<?xml version="1.0" encoding="UTF-8"?>
<svg id="Layer_2" data-name="Layer 2" xmlns="http://www.w3.org/2000/svg" viewBox="0 0 60.8625 74.6453">
  <g id="menu">
    <g id="_2" data-name="2">
      <path d="m30.7042,0c8.0514,0,16.7851,3.2755,21.8342,8.3241,4.6401,4.6401,6.9596,10.5078,6.9596,17.4673,0,7.6418-3.0018,15.011-13.5095,23.3351-3.9578,3.1386-6.0046,4.9128-6.0046,5.3223l.1363.1369h.2732c.1363,0,2.3195-.1369,6.55-.5465,2.7296-.2727,4.9128-.4085,6.5505-.4085,4.9128,0,6.2773,1.3645,6.9596,5.8677.2727,1.9099.409,4.0936.409,6.4131,0,3.9578-.2727,6.2773-.955,6.9606-.9555.955-12.5546,1.3645-34.9347,1.5003l-22.7897.2727-1.0913-1.3645c-.6823-.8181-1.0918-2.7291-1.0918-5.595,0-13.7822,2.4564-14.0549,17.1941-22.7886,10.2351-6.0046,14.7383-9.9624,17.4673-15.2847.8191-1.5003,1.2282-2.8649,1.2282-4.0936,0-2.5933-2.7291-5.0486-4.23-5.0486-.4096,0-1.5014.4085-3.1386,1.0908-1.5014.6823-3.1386,2.0479-4.7764,4.3674-1.7741,2.1837-2.866,3.4113-3.275,3.5482l-.1363.1358h-.4096c-3.1386,0-12.2819-5.3213-14.3287-8.1872-.5459-.8191-.8186-1.6383-.8186-2.3206s.409-1.9099,1.2282-3.684C9.6886,7.9145,15.8296,3.1386,24.4269.8191c1.9105-.5465,3.9573-.8191,6.2773-.8191Z" style="fill: #fff;"/>
    </g>
  </g>
</svg>