<?xml version="1.0" encoding="UTF-8"?>
<svg id="Layer_2" data-name="Layer 2" xmlns="http://www.w3.org/2000/svg" viewBox="0 0 58.353 77.8037">
  <g id="button_-_ok" data-name="button - ok">
    <path d="m26.854,0c4.5,0,7.9839.4355,10.3062,1.1611,7.6934,2.4678,13.064,6.6768,15.9673,12.4834.8711,1.8867,1.3066,4.21,1.3066,6.9678,0,5.6611-1.5972,8.5645-5.6611,12.1934l-3.0483,2.9023,3.0483,1.8877c5.6611,3.6289,8.8545,8.5635,9.4351,14.9512,0,.1445,0,.4355.145.8701v1.0166c0,9.1445-6.0967,16.6934-16.4028,20.6123-4.645,1.8867-9.4351,2.7578-14.5156,2.7578-11.6123,0-27.4346-7.6934-27.4346-12.4834,0-2.7578,6.8223-14.3701,8.7095-14.5156h.145c.4355,0,2.0322.7256,4.9355,2.0322,4.3545,2.1777,8.2739,3.3389,11.6123,3.3389,4.5,0,7.9839-1.8877,7.9839-4.21,0-3.0479-5.0806-5.3711-11.0322-5.3711-1.5967,0-2.6128,0-3.1934-.1445-1.1611,0-2.6128-.5811-2.7578-1.7422-.145-.4355-.145-1.3066-.145-2.4678,0-.29,0-.8711.145-1.5967v-1.8867c.145-7.5488.29-7.8389,6.0967-8.5645,5.8062-.7256,8.7095-2.4678,8.7095-5.0801,0-.4355,0-.8711-.1455-1.1621-.5806-2.0322-2.9028-3.0479-6.8223-3.0479-2.4678,0-4.79.5811-6.8223,1.5967-1.8872,1.0166-3.0483,1.5967-3.7744,1.5967-.29,0-.5806-.1455-1.0156-.5801-.7261-1.0166-4.7905-14.3711-4.7905-16.1133,0-1.1611,1.3066-2.4668,3.9194-3.7734S17.4189,1.1611,20.7573.4355c1.5967-.291,3.6289-.4355,6.0967-.4355Z" style="fill: #fff;"/>
  </g>
</svg>