<?xml version="1.0" encoding="UTF-8"?>
<svg id="Layer_2" data-name="Layer 2" xmlns="http://www.w3.org/2000/svg" viewBox="0 0 1920.5344 1082.9184">
  <g id="bg">
    <g>
      <rect width="1920.5344" height="1082.9184" style="fill: #c9edf8;"/>
      <g>
        <path d="m1775.6315,130.106c-8.4961-3.7465-17.5186-4.2421-26.5043-3.2529,6.2717-19.4521-3.0325-42.9456-24.3149-50.9514-29.0991-10.9464-57.4306,9.5345-63.1634,37.7598-10.1371-5.4036-25.3693-.7508-29.665,12.0648-5.1664,15.4128,6.3102,27.2726,19.5071,28.2677-2.9901,16.0209,3.7079,33.6286,19.3767,41.188,15.3122,7.3873,33.6532,2.1428,44.5119-9.9686,4.9307,4.9963,11.7413,7.8899,19.1526,6.3519,4.8086-.9978,8.927-3.6836,11.7938-7.3088,7.7681,5.1887,17.1974,7.6104,26.6945,5.3888,13.6478-3.1927,24.4219-15.6454,24.3505-29.8624-.0673-13.4185-9.9-24.4561-21.7395-29.677Z" style="fill: #e6faff;"/>
        <path d="m1073.2638,117.6989c-5.7968-2.1069-11.5332-2.1514-17.127-1.0146,2.2513-5.4304,3.4762-11.1999,2.8247-17.4305-1.2264-11.73-8.8844-21.0924-20.6706-23.286-20.0343-3.7293-39.6859,11.7808-52.4983,28.3979-10.5042-15.3194-34.1305-20.6463-52.048-15.0809-24.9109,7.7382-39.0694,32.178-35.8766,57.0753-13.1597-1.466-27.4214,10.7982-24.3162,25.2937,2.7911,13.0296,17.2487,19.2138,29.1649,16.2077,1.6274,11.3647,10.1272,21.6454,21.6637,24.695,13.3836,3.5381,26.1191-3.1445,33.9172-13.5669,9.4848,14.397,26.7134,23.2283,44.4081,20.4918,19.8604-3.0714,34.8089-20.5961,37.0969-39.9963,20.9504,1.4782,45.3988-16.602,48.6654-36.9181,1.7817-11.0811-4.8-21.0866-15.2044-24.8683Z" style="fill: #e6faff;"/>
        <path d="m1381.6204,354.3982c26.6237,14.5673,66.6065,20.8347,79.3637-14.8031,9.9327-27.7469-13.2817-41.6423-36.6871-45.2015,6.2754-7.7228,11.2091-16.4604,11.9747-26.4269,1.0629-13.839-6.2976-26.2219-18.193-33.0608-22.1147-12.7145-43.9907-4.1739-61.9619,9.9268-.8326-15.2593-8.6417-28.3129-27.5259-31.9302-25.3503-4.8563-44.3819,12.8362-59.5883,30.6909-13.0025-13.9921-35.6279-16.8151-48.2639.9896-10.6078,14.9468-3.2925,35.5543,12.4091,41.0031-6.9913,15.51-10.6807,34.2871,4.2649,46.0071,13.6837,10.7305,29.4435,5.8687,42.4803-2.755,3.1215,20.8992,17.6633,39.9149,38.2377,46.6294,23.3304,7.6138,49.0104-2.1003,63.4896-21.0694Z" style="fill: #e6faff;"/>
        <path d="m947.1399,952.7837c23.6454,14.4307,59.8289,21.8703,72.9982-10.0714,10.2533-24.8693-10.3126-38.5403-31.4988-42.7955,6.0551-6.7703,10.9302-14.5238,12.0585-23.5777,1.5665-12.5716-4.6099-24.1793-15.1604-30.9281-19.6142-12.5467-39.9282-5.7039-56.9217,6.3766-.1007-13.9484-6.6569-26.1869-23.7184-30.2999-22.9034-5.5218-41.0188,9.7877-55.6538,25.4106-11.2509-13.3185-31.7577-16.8688-44.0468-1.1809-10.3168,13.17-4.5364,32.2746,9.5442,37.92-7.0436,13.8392-11.2177,30.8,1.9029,42.1305,12.013,10.374,26.5915,6.6214,38.8503-.6787,1.9439,19.1893,14.3816,37.1545,32.8505,44.1644,20.9426,7.9487,44.7753.2002,58.7954-16.47Z" style="fill: #e6faff;"/>
        <path d="m1792.0541,893.2986c-8.0515-14.5469-24.0129-23.3649-40.3494-21.6096,2.6377-12.1927,2.5652-27.2035-11.62-31.7474-10.6399-3.4082-19.8329,1.0433-27.0437,8.0721-2.2662-13.0102-10.6704-24.7436-23.3419-30.0531-8.7459-3.6647-18.7302-3.4987-25.6667,3.614-5.5367,5.6777-7.2543,13.0844-7.5817,20.647-17.494-8.9634-41.0984-8.2622-53.1445,9.1509-5.8403,8.4427-6.1386,19.5815.9591,27.4123,5.371,5.9257,13.0953,8.4983,20.8927,9.893-5.5827,14.256-.1565,32.5377,13.8336,39.9463,13.4326,7.1131,29.7175,2.1892,38.9655-8.8045,6.149,7.7038,16.7021,11.1782,25.6716,7.5026,3.4978,14.572,14.7852,26.4396,29.6014,30.9089,18.8116,5.6747,39.6574-.8407,52.2613-15.7625,11.5862-13.7168,15.5029-33.017,6.5627-49.1699Z" style="fill: #e6faff;"/>
        <path d="m1787.7854,448.2771c-.8093-11.2863-3.4503-22.2812-11.2574-31.1201-9.9011-11.21-24.5344-13.0903-38.1931-8.3208-21.6425,7.5574-35.3495,28.684-35.9883,50.7454-19.5289-6.1013-42.9255,5.1156-41.595,29.2266.8981,16.2774,17.182,27.0417,30.8638,24.0266-.4359,22.8091,4.6861,49.6916,30.869,54.505,11.5564,2.1244,27.7327-2.2806,40.3042-10.5688,6.9485,16.5077,24.8324,28.1708,44.7101,24.0089,26.6769-5.5849,38.2775-31.9073,31.2511-54.9875,14.0635.0599,27.8784-3.9436,37.701-14.9927,13.3717-15.0417,12.2028-35.6201-1.1731-50.3122-22.1588-24.3394-59.5387-27.0341-87.4924-12.2104Z" style="fill: #e6faff;"/>
        <path d="m1327.5473,945.4119c-.8093-11.2863-3.4503-22.2812-11.2574-31.1201-9.9011-11.21-24.5344-13.0903-38.1931-8.3208-21.6425,7.5574-35.3495,28.684-35.9883,50.7454-19.5289-6.1013-42.9255,5.1156-41.595,29.2266.8981,16.2774,17.182,27.0417,30.8638,24.0266-.4359,22.8091,4.6861,49.6916,30.869,54.505,11.5564,2.1244,27.7327-2.2806,40.3042-10.5688,6.9485,16.5077,24.8324,28.1708,44.7101,24.0089,26.6769-5.5849,38.2775-31.9073,31.2511-54.9875,14.0635.0599,27.8784-3.9436,37.701-14.9927,13.3717-15.0417,12.2028-35.6201-1.1731-50.3122-22.1588-24.3394-59.5387-27.0341-87.4924-12.2104Z" style="fill: #e6faff;"/>
      </g>
      <g>
        <path d="m300.6083,271.4073c26.6237,14.5673,66.6065,20.8347,79.3637-14.8031,9.9327-27.7469-13.2817-41.6423-36.6871-45.2015,6.2754-7.7228,11.2091-16.4604,11.9747-26.4269,1.0629-13.839-6.2976-26.2219-18.193-33.0608-22.1147-12.7145-43.9907-4.1739-61.9619,9.9268-.8326-15.2593-8.6417-28.3129-27.5259-31.9302-25.3503-4.8563-44.3819,12.8362-59.5883,30.6909-13.0025-13.9921-35.6279-16.8151-48.2639.9896-10.6078,14.9468-3.2925,35.5543,12.4091,41.0031-6.9913,15.51-10.6807,34.2871,4.2649,46.0071,13.6837,10.7305,29.4435,5.8687,42.4803-2.755,3.1215,20.8992,17.6633,39.9149,38.2377,46.6294,23.3304,7.6138,49.0104-2.1003,63.4896-21.0694Z" style="fill: #e6faff;"/>
        <path d="m246.4159,657.7308c23.6454,14.4307,59.8289,21.8703,72.9982-10.0714,10.2533-24.8693-10.3126-38.5403-31.4988-42.7955,6.0551-6.7703,10.9302-14.5238,12.0585-23.5777,1.5665-12.5716-4.6099-24.1793-15.1604-30.9281-19.6142-12.5467-39.9282-5.7039-56.9217,6.3766-.1007-13.9484-6.6569-26.1869-23.7184-30.2999-22.9034-5.5218-41.0188,9.7877-55.6538,25.4106-11.2509-13.3185-31.7577-16.8688-44.0468-1.1809-10.3168,13.17-4.5364,32.2746,9.5442,37.92-7.0436,13.8392-11.2177,30.8,1.9029,42.1305,12.013,10.374,26.5915,6.6214,38.8503-.6787,1.9439,19.1893,14.3816,37.1545,32.8505,44.1644,20.9426,7.9487,44.7753.2002,58.7954-16.47Z" style="fill: #e6faff;"/>
        <path d="m1389.5653,595.6858c-8.0515-14.5469-24.0129-23.3649-40.3494-21.6096,2.6377-12.1927,2.5652-27.2035-11.62-31.7474-10.6399-3.4082-19.8329,1.0433-27.0437,8.0721-2.2662-13.0102-10.6704-24.7436-23.3419-30.0531-8.7459-3.6647-18.7302-3.4987-25.6667,3.614-5.5367,5.6777-7.2543,13.0844-7.5817,20.647-17.494-8.9634-41.0984-8.2622-53.1445,9.1509-5.8403,8.4427-6.1386,19.5815.9591,27.4123,5.371,5.9257,13.0953,8.4983,20.8927,9.893-5.5827,14.256-.1565,32.5377,13.8336,39.9463,13.4326,7.1131,29.7175,2.1892,38.9655-8.8045,6.149,7.7038,16.7021,11.1782,25.6716,7.5026,3.4978,14.572,14.7852,26.4396,29.6014,30.9089,18.8116,5.6747,39.6574-.8407,52.2613-15.7625,11.5862-13.7168,15.5029-33.017,6.5627-49.1699Z" style="fill: #e6faff;"/>
        <path d="m633.6686,544.5904c-.8093-11.2863-3.4503-22.2812-11.2574-31.1201-9.9011-11.21-24.5344-13.0903-38.1931-8.3208-21.6425,7.5574-35.3495,28.684-35.9883,50.7454-19.5289-6.1013-42.9255,5.1156-41.595,29.2266.8981,16.2774,17.182,27.0417,30.8638,24.0266-.4359,22.8091,4.6861,49.6916,30.869,54.505,11.5564,2.1244,27.7327-2.2806,40.3042-10.5688,6.9485,16.5077,24.8324,28.1708,44.7101,24.0089,26.6769-5.5849,38.2775-31.9073,31.2511-54.9875,14.0635.0599,27.8784-3.9436,37.701-14.9927,13.3717-15.0417,12.2028-35.6201-1.1731-50.3122-22.1588-24.3394-59.5387-27.0341-87.4924-12.2104Z" style="fill: #e6faff;"/>
      </g>
      <path d="m972.9873,434.2186c-8.4961-3.7465-17.5186-4.2421-26.5043-3.2529,6.2717-19.4521-3.0325-42.9456-24.3149-50.9514-29.0991-10.9464-57.4306,9.5345-63.1634,37.7598-10.1371-5.4036-25.3693-.7508-29.665,12.0648-5.1664,15.4128,6.3102,27.2726,19.5071,28.2677-2.9901,16.0209,3.7079,33.6286,19.3767,41.188,15.3122,7.3873,33.6532,2.1428,44.5119-9.9686,4.9307,4.9963,11.7413,7.8899,19.1526,6.3519,4.8086-.9978,8.927-3.6836,11.7938-7.3088,7.7681,5.1887,17.1974,7.6104,26.6945,5.3888,13.6478-3.1927,24.4219-15.6454,24.3505-29.8624-.0673-13.4185-9.9-24.4561-21.7395-29.677Z" style="fill: #e6faff;"/>
    </g>
  </g>
</svg>