<?xml version="1.0" encoding="UTF-8"?>
<svg id="Layer_2" data-name="Layer 2" xmlns="http://www.w3.org/2000/svg" viewBox="0 0 92.5802 79.1985">
  <g id="button_-_ok" data-name="button - ok">
    <g id="done">
      <path d="m89.4632,47.311c5.1593-13.7931,5.9521-35.8413-13.8678-43.6878C55.7753-4.2234,11.4043-.7871.876,28.5674c-9.6251,26.8362,62.6826,87.9978,88.5872,18.7436Z" style="fill: #7eab55;"/>
      <path d="m80.0659,20.5448l-1.6481-1.6481c-2.5029-2.5029-6.5609-2.5029-9.0639,0l-27.1008,27.1009-9.175-8.65c-2.503-2.503-6.5609-2.503-9.0639,0l-1.6481,1.648c-2.5028,2.5029-2.5028,6.5609,0,9.0638l15.3578,14.4792c1.2454,1.2452,2.8757,1.8711,4.508,1.8771.0661.0002.1319-.007.198-.0088.066.0017.1319.009.1981.0088,1.6321-.0061,3.2625-.6319,4.5079-1.8771l32.93-32.93c2.5029-2.5029,2.5029-6.5609,0-9.0638Z" style="fill: #fff;"/>
    </g>
  </g>
</svg>