<?xml version="1.0" encoding="UTF-8"?>
<svg id="Layer_2" data-name="Layer 2" xmlns="http://www.w3.org/2000/svg" viewBox="0 0 93.9387 80.3607">
  <g id="button_-_ok" data-name="button - ok">
    <g id="erase_all" data-name="erase all">
      <path d="m90.776,48.0052c5.235-13.9955,6.0394-36.3672-14.0713-44.3289C56.5937-4.2854,11.5716-.7987.8889,28.9866c-9.7663,27.23,63.6024,89.289,89.8871,19.0186Z" style="fill: #489fe0;"/>
      <g>
        <path d="m44.8804,13.7572l8.7444-.0684c.8269-.0065,1.5011.6614,1.5024,1.4884l.0038,2.41c.0013.8269.6754,1.4948,1.5023,1.4884h0c.8205-.0064,1.4815-.6745,1.4792-1.495l-.0155-5.4184c-.0036-.3929-.1655-.7756-.4456-1.0508-.2806-.2761-.665-.4321-1.058-.4292l-14.7093.1149c-.3912.0036-.7747.1655-1.0508.4449-.2761.2799-.4308.665-.4281,1.0582l.0162,5.404c.0025.8261.6762,1.4926,1.5022,1.4863h.0022c.8197-.0063,1.4806-.6733,1.4793-1.4931l-.0039-2.4472c-.0013-.8197.6594-1.4867,1.4791-1.4931Z" style="fill: #fff;"/>
        <g>
          <path d="m62.9883,32.318c-.8601-.1239-1.6569.4726-1.781,1.3316l-4.0891,28.4798c-.1246.8592.4726,1.6565,1.3328,1.7792.8601.1237,1.656-.4732,1.7806-1.3319l4.0891-28.4794c.1246-.86-.4726-1.6556-1.3323-1.7793Z" style="fill: none;"/>
          <path d="m37.8386,33.8327c-.1362-.8579-.9424-1.4411-1.7995-1.3042-.8593.1365-1.4429.9413-1.3057,1.8002l4.5346,28.4121c.1354.8564.942,1.4404,1.7995,1.3039.8575-.1369,1.4425-.9436,1.3053-1.8003l-4.5343-28.4116Z" style="fill: none;"/>
          <path d="m49.5106,32.2427c-.8669.0065-1.5653.7154-1.5598,1.5843l.2257,28.77c.0054.8687.7154,1.5675,1.5846,1.5603.8682-.0065,1.5666-.7163,1.5611-1.5848l-.2257-28.7702c-.0058-.8685-.7159-1.5668-1.5859-1.5596Z" style="fill: none;"/>
          <path d="m70.5046,29.0021c-.3022-.3602-.7545-.5684-1.2244-.5643l-39.5927.3085c-.4699.0041-.9146.2161-1.2127.5796-.2981.3633-.419.8411-.3314,1.3022l6.6048,34.4701c.1444.7511.8036,1.2923,1.5679,1.2865l26.6893-.2089c.7603-.0058,1.411-.5522,1.5467-1.2999l6.2982-34.5706c.0851-.4621-.0436-.9432-.3457-1.3031Zm-29.437,35.0425c-.8575.1365-1.6641-.4476-1.7995-1.3039l-4.5346-28.4121c-.1372-.8588.4464-1.6637,1.3057-1.8002.8571-.1369,1.6633.4463,1.7995,1.3042l4.5343,28.4116c.1372.8568-.4479,1.6635-1.3053,1.8003Zm8.6935.1126c-.8691.0072-1.5791-.6915-1.5846-1.5603l-.2257-28.77c-.0054-.8689.6929-1.5778,1.5598-1.5843.87-.0072,1.5801.6911,1.5859,1.5596l.2257,28.7702c.0054.8685-.6929,1.5783-1.5611,1.5848Zm14.5595-30.0599l-4.0891,28.4794c-.1246.8587-.9204,1.4556-1.7806,1.3319-.8602-.1228-1.4573-.92-1.3328-1.7792l4.0891-28.4798c.1241-.859.9209-1.4555,1.781-1.3316.8597.1237,1.4569.9193,1.3323,1.7793Z" style="fill: #fff;"/>
        </g>
        <path d="m71.256,21.1099l-1.3431.0104c-.8234.0064-1.496-.656-1.5023-1.4794l-.0076-1.0064c-.0032-.1951-.0823-.3853-.2213-.5209-.1389-.1374-.3314-.2147-.5247-.2136l-9.5401.0746-2.9834.0232-11.7259.0919-2.9816.0229-8.894.0693c-.1942.0016-.3849.0819-.5202.2212-.1376.138-.2155.3296-.2141.5248l.0076,1.0078c.0062.8232-.656,1.4956-1.4791,1.502l-1.7121.0133c-.8234.0064-1.4856.6791-1.4791,1.5024l.0139,1.7668c.0065.8233.6791,1.4854,1.5024,1.479l43.642-.3407c.8233-.0064,1.4856-.6791,1.4791-1.5024l-.0139-1.7672c-.0065-.8232-.679-1.4854-1.5023-1.479Z" style="fill: #fff;"/>
      </g>
    </g>
  </g>
</svg>