<?xml version="1.0" encoding="utf-8"?>
<!-- Generator: Adobe Illustrator 27.4.0, SVG Export Plug-In . SVG Version: 6.00 Build 0)  -->
<svg version="1.1" id="Layer_2_00000099659629675326094240000008566866630217075130_"
	 xmlns="http://www.w3.org/2000/svg" xmlns:xlink="http://www.w3.org/1999/xlink" x="0px" y="0px" viewBox="0 0 93.9 80.4"
	 style="enable-background:new 0 0 93.9 80.4;" xml:space="preserve">
<style type="text/css">
	.st0{fill:#ffa600;}
	.st1{fill:#FFFFFF;}
	.st2{fill:none;}
</style>
<path class="st0" d="M76.7,3.7C56.6-4.3,11.6-0.8,0.9,29c-9.8,27.2,63.6,89.3,89.9,19C96,34,96.8,11.6,76.7,3.7z"/>
<g>
	<polygon class="st1" points="32.5,42.5 45.4,29.5 54.9,20 57.9,23.2 41.9,39 	"/>
	<polygon class="st1" points="42.9,50.9 59.8,34 61.9,38.1 48.4,51.5 	"/>
	<g>
		<path class="st2" d="M31.8,50.5c-0.3-0.1-0.4,0-0.4,0.2c-0.1,0.8-0.3,1.6-0.5,2.5c-0.3,1.3-0.5,2.5-0.8,3.8c0,0.2-0.2,0.4,0.2,0.4
			c0.1,0,0.1,0,0.2,0c2.1-0.4,4.3-0.9,6.4-1.3c0.3-0.1,0.2-0.2,0.1-0.4C35.9,53.3,34.2,51.6,31.8,50.5z"/>
		<path class="st2" d="M70.3,16.2c-1.7-1.4-3.4-1.5-5.1-0.2c-0.6,0.5-1.1,1-1.7,1.6c-0.2,0.2-0.2,0.4,0,0.6c0.8,0.8,1.6,1.5,2.3,2.3
			c1.1,1.2,2.2,2.3,3.4,3.4c0.2,0.1,0.3,0.3,0.5,0.1c0.5-0.5,1-1,1.5-1.5c0.7-0.8,1.1-1.6,1.2-2.8c0-0.1,0-0.2,0-0.4
			C72.2,18,71.3,17,70.3,16.2z"/>
		<path class="st1" d="M72.4,12.4c-1.9-1.2-3.9-1.6-6.1-1.3c-1.9,0.3-3.5,1.2-4.9,2.5c-5,5-10,9.9-14.9,14.9
			c-0.1,0.1-0.1,0.1-0.2,0.2l-3.2,3.2c1,1,2,2,3.1,3.1l7.3-7.3l0,0c1.9-1.9,3.8-3.8,5.7-5.7c0.3-0.3,0.5-0.5,0.8-0.8
			c0.1-0.2,0.2-0.1,0.4,0c2,2,3.9,3.9,5.9,5.9c0.1,0.1,0.2,0.2,0.2,0.3c0,0.1-0.1,0.2-0.1,0.2c-2.2,2.2-4.4,4.3-6.5,6.5l0,0
			l-7.3,7.3c1,1,2,2,3.1,3.1l3.3-3.3l0.1-0.1c1.4-1.4,2.9-2.9,4.3-4.3l0,0l0,0c1.5-1.5,3-3,4.4-4.4c2.1-2.1,4.3-4.2,6.4-6.4
			c1.5-1.7,2.3-3.6,2.3-6.4C76.4,16.6,75.1,14.1,72.4,12.4z M71.2,22.5c-0.5,0.5-1,1-1.5,1.5c-0.2,0.2-0.4,0.1-0.5-0.1
			c-1.2-1.1-2.3-2.3-3.4-3.4c-0.8-0.8-1.5-1.6-2.3-2.3c-0.2-0.2-0.2-0.4,0-0.6c0.5-0.6,1-1.1,1.7-1.6c1.7-1.3,3.5-1.2,5.1,0.2
			c1,0.9,1.8,1.9,2,3.2c0,0.2,0,0.3,0,0.4C72.4,20.9,71.9,21.8,71.2,22.5z"/>
		<path class="st1" d="M42.9,50.9c-0.7,0.7-1.4,1.4-2.1,2.1c-0.2,0.2-0.3,0.2-0.5-0.1c-1.4-2.5-3.3-4.4-5.8-5.8
			c-0.3-0.2-0.2-0.3,0-0.5c0.7-0.7,1.4-1.4,2.1-2.1l0.2-0.2c0.7-0.7,1.5-1.5,2.2-2.2c1.3-1.3,2.6-2.7,3.9-4c0.1-0.1,0.2-0.1,0.2-0.2
			c0-0.1,0-0.1-0.1-0.2c-0.9-0.9-1.8-1.7-2.6-2.6c-0.1-0.1-0.3-0.1-0.4,0c-1.2,1.2-2.3,2.3-3.5,3.5c-2.7,2.7-5.3,5.4-8,8
			c-0.6,0.6-1,1.2-1,2c0,0.1,0,0.2,0,0.2c-0.7,3.6-1.4,7.2-2.1,10.8c-0.2,1-0.4,2-0.6,3c-0.1,0.3,0,0.3,0.3,0.3
			c0.5-0.1,1-0.2,1.4-0.3c2.4-0.5,4.8-1,7.2-1.4c1.9-0.4,3.8-0.8,5.7-1.1c0.6-0.1,1.1-0.4,1.5-0.8l9.4-9.4c0.7-0.8,1.5-1.5,2.2-2.3
			c0.2-0.2,0.2-0.3,0-0.5c-0.8-0.7-1.5-1.5-2.3-2.2c-0.5-0.5-0.5-0.5-1,0C47.1,46.8,45,48.8,42.9,50.9L42.9,50.9L42.9,50.9z
			 M36.8,56.1c-2.1,0.4-4.3,0.9-6.4,1.3c0,0-0.1,0-0.2,0c-0.3,0-0.2-0.2-0.2-0.4c0.3-1.3,0.5-2.5,0.8-3.8c0.2-0.8,0.3-1.6,0.5-2.5
			c0.1-0.3,0.1-0.4,0.4-0.2c2.4,1.1,4.1,2.8,5.2,5.2C37,55.9,37.1,56,36.8,56.1z"/>
	</g>
</g>
</svg>
