<?xml version="1.0" encoding="UTF-8"?>
<svg id="Layer_2" data-name="Layer 2" xmlns="http://www.w3.org/2000/svg" viewBox="0 0 186.3567 186.3567">
  <g id="routes">
    <g>
      <rect x="0" y="0" width="186.3565" height="186.3565" transform="translate(186.3566 0) rotate(90)" style="fill: #9fce62;"/>
      <g>
        <rect x="0" y="129.6705" width="186.3565" height="11.4038" style="fill: #e8e8e8;"/>
        <polygon points="186.3566 56.6865 186.3566 45.2823 97.8971 45.2824 0 45.2825 0 56.6866 186.3566 56.6865" style="fill: #e8e8e8;"/>
        <path d="m0,56.6866v34.2109s2.0414,0,2.0414,0h.1122s0,4.5619,0,4.5619h-.1122s-2.0414,0-2.0414,0v34.2112s186.3566-.0001,186.3566-.0001V56.6865S0,56.6866,0,56.6866Zm176.8819,34.2108v4.5619s-12.5128,0-12.5128,0v-4.5619s12.5128,0,12.5128,0Zm-25.0261,0v4.5619s-12.5132,0-12.5132,0v-4.5619s12.5132,0,12.5132,0Zm-25.0259,0v4.5619s-12.513,0-12.513,0v-4.5619s12.513,0,12.513,0Zm-25.0218,0v4.5619s-12.5126,0-12.5126,0v-4.5619s12.5126,0,12.5126,0Zm-37.4263,0h12.4004s.1122,0,.1122,0v4.5619s-.1122,0-.1122,0h-12.4004s-.1126,0-.1126,0v-4.5619s.1126,0,.1126,0Zm-24.9135,0h12.4002s.1124,0,.1124,0v4.5619s-.1124,0-.1124,0h-12.4002s-.1128,0-.1128,0v-4.5619s.1128,0,.1128,0Zm-24.9137,0h12.4004s.1122,0,.1122,0v4.5619s-.1122,0-.1122,0h-12.4004s-.1128,0-.1128,0v-4.5619s.1128,0,.1128,0Z" style="fill: #283543;"/>
        <rect x="114.317" y="90.8974" width="12.513" height="4.5619" style="fill: #e8e8e8;"/>
        <rect x="89.2955" y="90.8974" width="12.5126" height="4.5619" style="fill: #e8e8e8;"/>
        <rect x="64.2693" y="90.8974" width=".1126" height="4.5619" style="fill: #e8e8e8;"/>
        <rect x="76.7823" y="90.8974" width=".1122" height="4.5619" style="fill: #e8e8e8;"/>
        <rect x="64.3818" y="90.8974" width="12.4004" height="4.5619" style="fill: #e8e8e8;"/>
        <rect x="39.3556" y="90.8974" width=".1128" height="4.5619" style="fill: #e8e8e8;"/>
        <rect x="51.8686" y="90.8974" width=".1124" height="4.5619" style="fill: #e8e8e8;"/>
        <rect x="39.4684" y="90.8974" width="12.4002" height="4.5619" style="fill: #e8e8e8;"/>
        <rect x="14.4419" y="90.8975" width=".1128" height="4.5619" style="fill: #e8e8e8;"/>
        <rect x="26.9551" y="90.8974" width=".1122" height="4.5619" style="fill: #e8e8e8;"/>
        <rect x="14.5547" y="90.8974" width="12.4004" height="4.5619" style="fill: #e8e8e8;"/>
        <rect x="2.0415" y="90.8975" width=".1122" height="4.5619" style="fill: #283543;"/>
        <rect x="0" y="90.8975" width="2.0414" height="4.5619" style="fill: #283543;"/>
        <rect x="139.3426" y="90.8974" width="12.5132" height="4.5619" style="fill: #e8e8e8;"/>
        <rect x="164.3691" y="90.8974" width="12.5128" height="4.5619" style="fill: #e8e8e8;"/>
      </g>
    </g>
  </g>
</svg>