<?xml version="1.0" encoding="UTF-8"?>
<svg xmlns="http://www.w3.org/2000/svg" xmlns:xlink="http://www.w3.org/1999/xlink" viewBox="0 0 186.3565 186.3565">
  <defs>
    <clipPath id="clippath">
      <path d="m119.0927,54.0878c.7806-5.1543,1.8624-11.3592-.7234-16.1833-2.3441-4.3733-7.1022-6.8552-11.7439-8.0401-6.2005-1.5829-12.8075-1.2003-19.0371.0149-5.6156,1.0955-11.1543,3.0882-15.6083,6.7743-8.1951,6.7821-11.754,18.4965-6.7776,28.2615,2.781,5.4571,7.9374,8.8811,13.2613,11.5634,6.6878,3.3695,13.5883,6.3355,20.4104,9.4202.0083.2308.3393.4215.5533.1993,4.6205-4.7977,8.6628-10.0983,12.6694-15.4079,1.8363-2.4337,3.5604-4.9089,4.7166-7.7479,1.1536-2.8328,1.8223-5.8376,2.2792-8.8543Z" style="fill: none;"/>
    </clipPath>
  </defs>
  <g style="isolation: isolate;">
    <g id="Layer_2" data-name="Layer 2">
      <g id="lvl_1_-_tamplo" data-name="lvl 1 - tamplo">
        <g>
          <rect width="186.3565" height="186.3565" style="fill: #7eab55;"/>
          <g>
            <g>
              <g>
                <path d="m86.6692,154.7186s2.2536,8.3208,2.4269,11.6145c.1733,3.2936-.6934,7.1074-.6934,7.1074,0,0,6.5874,9.0142,9.7076,5.8939,3.1203-3.1203-4.8538-8.3208-4.8538-8.3208,0,0,.6861-2.8057,2.0802-7.6852,1.3868-4.8538,2.0802-7.9163,2.0802-7.9163l-10.7477-.6934Z" style="fill: #efd4d0;"/>
                <path d="m89.175,174.429c.975-2.5041,1.5186-5.0923,1.4071-7.8237-.1262-3.0904-.9005-6.13-1.5602-9.1385-.0583-.2654.0807-.6372.3887-.6846,2.5074-.386,5.1661-.5165,7.7251-.1911.1869-.7629.2814-1.1791.2814-1.1791l-10.7477-.6934s2.2536,8.3208,2.4269,11.6145c.1733,3.2936-.6934,7.1074-.6934,7.1074,0,0,.2899.3956.7723.9886Z" style="fill: #efd4d0; mix-blend-mode: multiply; opacity: .65;"/>
              </g>
              <g>
                <path d="m105.391,152.6384s2.2536,8.3208,2.4269,11.6144c.1733,3.2937-.6934,7.1074-.6934,7.1074,0,0,6.5874,9.0142,9.7076,5.8939,3.1203-3.1203-4.8538-8.3208-4.8538-8.3208,0,0,.6861-2.8057,2.0802-7.6852,1.3868-4.8538,2.0803-7.9164,2.0803-7.9164l-10.7478-.6933Z" style="fill: #efd4d0;"/>
                <path d="m107.8607,172.3042c1.5569-5.0838,1.8703-10.4048.114-15.5308-.1465-.4277.2978-.7654.6846-.6846,2.1711.4534,4.3513.7856,6.5492.9706.619-2.355.9303-3.7277.9303-3.7277l-10.7478-.6933s2.2536,8.3208,2.4269,11.6144c.1733,3.2937-.6934,7.1074-.6934,7.1074,0,0,.2758.3763.7362.944Z" style="fill: #efd4d0; mix-blend-mode: multiply; opacity: .65;"/>
              </g>
              <g>
                <path d="m95.0219,172.324c.0937.4288.0931.8812-.0333,1.3601-.4522,1.7128-2.4976,2.4127-4.0458,1.8635-.6549-.2323-1.2267-.621-1.7435-1.0888,1.8461,2.264,6.4531,7.3334,8.9112,4.8755,2.1416-2.1416-.9429-5.2628-3.0885-7.0103Z" style="fill: #252a33;"/>
                <path d="m114.2592,170.6769c.1922.7043.095,1.4347-.4772,2.1652-1.4911,1.9032-3.7846,1.2663-5.5722-.1137,2.0018,2.391,6.2849,6.8634,8.6225,4.5258,1.9749-1.9749-.494-4.7817-2.573-6.5772Z" style="fill: #252a33;"/>
              </g>
            </g>
            <path d="m96.3579,76.861s-4.7503-2.0443-14.6576,8.5707c-9.9072,10.615-14.5869,18.4317-18.3338,27.9909-3.7468,9.5592-11.496,21.9506-8.7514,26.4655,2.7446,4.5149,3.9099-1.2653,8.5586,4.4549,4.6487,5.7202-.6666,9.0312,8.7217,12.7488,9.3883,3.7175,13.449.5436,21.021,2.5432,7.5719,1.9997,6.9284,5.7587,15.9935,5.2,9.0651-.5586,6.3345-8.2368,11.9238-9.0387,5.5893-.8019,9.2467,3.5175,13.9663-.4231,4.7196-3.9406.9519-41.5187-7.8683-57.8018-8.8201-16.2831-30.5738-20.7105-30.5738-20.7105Z" style="fill: #e9e9e9;"/>
            <g>
              <path d="m140.3191,136.661c-.2892-2.6879-.6757-5.3683-1.1296-8.0331-1.7479-10.2606-4.6829-20.3638-9.2055-29.7564-4.4723-9.2886-10.4758-17.8169-17.9871-24.8857,9.0877-10.7864,14.6242-25.9758,8.2838-39.523-6.2399-13.3324-21.0661-19.3118-35.0023-19.9823-9.0797-.4369-18.2302.9687-27.0794,2.9272-1.061-.345-1.55.8308-1.0557,1.6802.488.8387,1.519,1.2932,2.0702,2.116.9798,1.4627,1.1703,3.3143.9657,5.0205-.4149,3.4577-2.2714,6.7442-3.3449,10.0352-.9471,2.9032-1.7018,5.8741-2.1292,8.9002-.7992,5.6584-.4366,11.5863,1.7158,16.9232,2.0173,5.0019,5.6165,9.3457,9.7359,12.7736,4.3267,3.6006,9.3945,6.1941,14.8111,7.6718-12.8351,10.4832-21.7208,25.9843-24.9133,42.1569-.2929,1.4836-.7173,3.101.1922,4.4502,1.1008,1.633,3.4988,2.374,5.1895,3.141,2.1899.9936,4.4053,1.9308,6.6435,2.8104,1.2208.4797,2.4483.9424,3.6821,1.3877.8919.3219,2.0209.9252,2.9771,1.0178,1.0668.1034,1.6536-.4864,1.9069-1.5018.1577-.6323.1079-1.3002.1041-1.943-.0098-1.6948.0034-3.3864.0905-5.0796.2739-5.3218,1.1204-10.6465,2.8302-15.704,3.2694-9.671,9.9384-18.3493,19.4842-22.4306,8.624,4.2357,17.1095,9.4323,22.0854,17.9148,2.8472,4.8535,3.9967,10.3936,4.7843,15.903.3995,2.7954.7335,5.6006,1.012,8.4107.23,2.3199.0403,5.0524.765,7.2753.466,1.4297,1.5179,1.9911,2.9855,1.7484,2.4465-.4048,4.9342-1.379,7.242-2.2607,1.9454-.7432,2.5134-1.09,2.2903-3.1639Z" style="fill: #fb3266;"/>
              <path d="m140.3191,136.661c-.2892-2.6879-.6757-5.3683-1.1296-8.0331-1.7479-10.2606-4.6829-20.3638-9.2055-29.7564-4.4723-9.2886-10.4758-17.8169-17.9871-24.8857,9.0877-10.7864,14.6242-25.9758,8.2838-39.523-6.2399-13.3324-21.0661-19.3118-35.0023-19.9823-9.0797-.4369-18.2302.9687-27.0794,2.9272-1.061-.345-1.55.8308-1.0557,1.6802.488.8387,1.519,1.2932,2.0702,2.116.6659.994.9611,2.1677,1.0217,3.3532,3.827-4.3588,10.2445-5.9086,15.9361-6.2835,7.3945-.487,15.0027.6131,22.0573,2.8348,7.015,2.2091,13.6653,6.2844,17.4236,12.811,4.1213,7.1573,3.45,15.6118,1.0445,23.2222-1.5257,4.8268-3.6142,9.5306-6.3675,13.7823-3.2758,5.0584-7.2941,9.6023-10.3703,14.7938-.1476.2491-.4024.3168-.6285.2706-9.3035,5.306-17.4943,12.5858-23.0121,21.8395-2.7823,4.6661-4.9683,9.8027-6.1814,15.1054-.8866,3.8757-1.9302,8.0399-2.109,12.1329.0173.0068.0345.0139.0517.0208,1.2208.4797,2.4483.9424,3.6821,1.3877.8919.3219,2.0209.9252,2.9771,1.0178,1.0668.1034,1.6536-.4864,1.9069-1.5018.1577-.6323.1079-1.3002.1041-1.943-.0098-1.6948.0034-3.3864.0905-5.0796.2739-5.3218,1.1204-10.6465,2.8302-15.704,2.0984-6.207,5.5994-12.0027,10.3604-16.4389-.3993-.0635,4.7644-3.6933,5.1266-4.0479,4.4605-4.3661,3.7445-5.5197,9.1113-8.745,1.9389-1.1651,4.1978-2.4322,6.5178-2.5023,2.4726-.0747,4.4253,1.9574,5.9364,3.6815,2.333,2.6619,4.1762,5.7524,5.8878,8.8374,1.89,3.4065,3.9905,6.677,5.6683,10.2022,3.7786,7.9387,5.7558,17.0265,5.8509,25.8044.0269,2.4854-.2456,4.9674-.3544,7.449-.0562,1.2821-.0907,2.5731-.0331,3.8577,1.4614-.4519,2.9062-1.0099,4.2862-1.5371,1.9454-.7432,2.5134-1.09,2.2903-3.1639Z" style="fill: #fb3266; mix-blend-mode: multiply;"/>
            </g>
            <path d="m119.0927,54.0878c.7806-5.1543,1.8624-11.3592-.7234-16.1833-2.3441-4.3733-7.1022-6.8552-11.7439-8.0401-6.2005-1.5829-12.8075-1.2003-19.0371.0149-5.6156,1.0955-11.1543,3.0882-15.6083,6.7743-8.1951,6.7821-11.754,18.4965-6.7776,28.2615,2.781,5.4571,7.9374,8.8811,13.2613,11.5634,6.6878,3.3695,13.5883,6.3355,20.4104,9.4202.0083.2308.3393.4215.5533.1993,4.6205-4.7977,8.6628-10.0983,12.6694-15.4079,1.8363-2.4337,3.5604-4.9089,4.7166-7.7479,1.1536-2.8328,1.8223-5.8376,2.2792-8.8543Z" style="fill: #252a33;"/>
            <g>
              <path d="m107.6579,91.2728c-.809-3.9457-4.2764-6.4441-8.2853-5.9108-.0099.0013-.0161.0068-.0253.0087-.0111-.0075-.0193-.0167-.0334-.0226-1.8091-.7722-3.7785-.6703-5.4742.3595-2.4617,1.495-2.4461,4.3074-4.0388,6.4447-.1245.1671-.0552.4353.1713.467,2.1352.2989,4.8139,1.0698,6.7917-.1767,1.7712-1.1163,2.3113-3.1462,2.5214-5.1298,1.3115,3.0199,4.8046,4.2437,8.0996,4.2935.1537.0023.3034-.1855.273-.3334Z" style="fill: #fc5b84;"/>
              <path d="m95.4278,87.563c2.0319-1.1587,4.4532-1.3283,6.6709-.6386,1.9938.62,3.6788,1.7722,5.2112,3.1548-1.2041-3.2411-4.3509-5.1944-7.9373-4.7173-.0099.0013-.0161.0068-.0253.0087-.0111-.0075-.0193-.0167-.0334-.0226-1.8091-.7722-3.7785-.6703-5.4742.3595-2.4617,1.495-2.4461,4.3074-4.0388,6.4447-.0272.0365-.0435.0783-.0527.121,2.1042-1.3213,3.5182-3.4777,5.6797-4.7102Z" style="fill: #fb3266; mix-blend-mode: multiply;"/>
            </g>
            <g>
              <g style="clip-path: url(#clippath);">
                <g>
                  <path d="m92.0735,76.8896s1.7286,2.2306.4063,4.8181c-1.3223,2.5876-6.1743,4.2192-6.1743,4.2192,0,0,4.6102,7.9999,11.9959,6.9779,7.3857-1.022,4.1917-7.0208,4.1917-7.0208,0,0-5.0136-.5065-5.3075-4.9536-.294-4.4471-.7681-6.8146-.7681-6.8146l-4.344,2.7738Z" style="fill: #efd4d0;"/>
                  <path d="m87.1765,87.2074c4.1959,1.1987,8.6187-4.8568,7.1149-8.6564-.1227-.3101.105-.7472.4657-.7497.72-.005,1.4384-.0363,2.156-.0806-.2483-2.3629-.4957-3.6049-.4957-3.6049l-4.344,2.7738s1.7286,2.2305.4063,4.8181c-1.3223,2.5876-6.1743,4.2192-6.1743,4.2192,0,0,.3015.5219.8711,1.2804Z" style="fill: #efd4d0; mix-blend-mode: multiply; opacity: .65;"/>
                </g>
              </g>
              <g>
                <g>
                  <path d="m81.1945,38.3873s1.2606,4.9644-2.0289,7.7428c-3.2896,2.7784-6.7839,6.7529-6.7839,6.7529,0,0-3.2033-3.8899-4.8135-.6481-1.6102,3.2418-1.424,6.2635.5972,6.7854,2.0212.5218,3.5974-1.4946,3.5974-1.4946,0,0,.9297,8.9527,5.1581,13.0181,4.2285,4.0654,11.7373,7.4613,19.694,6.1853,7.9569-1.276,19.4711-7.9226,19.8684-20.5174.3973-12.5948-1.8439-14.913-5.6029-15.5565-3.759-.6435-11.0171,3.7419-19.1016,1.6545-8.0845-2.0874-10.5843-3.9224-10.5843-3.9224Z" style="fill: #efd4d0;"/>
                  <path d="m75.3587,61.3342c-.7388-2.7863-.6125-5.3611,1.0351-7.7892,1.1398-1.6796,2.6839-2.9806,3.9962-4.5105,1.5381-1.7932,2.5932-3.8394,3.0478-6.1595.0705-.3598.4487-.5581.7849-.41,4.1705,1.8371,8.5903,3.0432,13.1793,2.895,3.9241-.1269,7.6595-1.3792,11.4838-2.1435,1.8494-.3695,3.7107-.6215,5.5294-.6701-.9243-1.1709-2.1223-1.6495-3.5347-1.8913-3.759-.6434-11.017,3.742-19.1016,1.6546-8.0845-2.0875-10.5843-3.9224-10.5843-3.9224,0,0,1.2607,4.9643-2.0289,7.7428-3.2896,2.7784-6.7839,6.7529-6.7839,6.7529,0,0-3.2033-3.8899-4.8135-.6481-1.6102,3.2418-1.4239,6.2635.5972,6.7853s3.5974-1.4947,3.5974-1.4947c0,0,.9296,8.9528,5.1581,13.0182,1.5087,1.4505,3.4366,2.8143,5.6519,3.9125-3.7395-3.249-6.0644-8.7865-7.2141-13.1221Z" style="fill: #efd4d0; mix-blend-mode: multiply; opacity: .65;"/>
                </g>
                <g>
                  <g>
                    <path d="m97.5604,58.5265c-.7789-.7623-2.2894-.5068-2.594.5985-.0387.1407.1685.2344.2395.101.3513-.6597,1.5493-1.0841,2.0505-.3352.1979.2958.1629.7036.0143,1.011-.1811.3742-.4521.4747-.8077.6309-.5273.2317-.1123.9203.3593.8521,1.2497-.1806,1.5384-2.0749.7381-2.8583Z" style="fill: #252a33;"/>
                    <g>
                      <path d="m87.2575,57.2427c-.7061-1.8222-2.7881-2.9825-4.7106-2.4212-1.8822.5495-2.8211,2.4557-2.5465,4.2967.0093.062.1083.0458.1078-.0146-.0248-3.6995,4.6465-4.6693,6.3027-1.504.2386.456,1.0386.1385.8466-.3569Z" style="fill: #252a33;"/>
                      <path d="m106.5355,50.5285c-2.3406.209-3.378,2.6076-3.2189,4.7143.0392.5192.8533.7123.9696.1312.3084-1.5408.2031-3.4072,2.0627-3.9555,1.9208-.5661,3.0132.8662,3.9707,2.2435.052.0748.1948.057.1874-.0508-.1308-1.9106-2.1561-3.2448-3.9716-3.0827Z" style="fill: #252a33;"/>
                    </g>
                    <path d="m70.9941,55.4827c-.2126-.9943-1.2608-1.8663-2.2982-1.7998.2543-.256.5634-.4599.9115-.5821.1939-.0681.1173-.3663-.086-.3114-1.4226.3839-2.0737,2.0122-1.5083,3.3168.0218.0504.1073.0144.0891-.0376-.2294-.6543-.1156-1.3425.2202-1.9045.0292.0281.0642.0511.1114.0592.886.1515,1.5396.5665,1.767,1.4781.1287.5162.9036.2967.7933-.2187Z" style="fill: #252a33;"/>
                    <path d="m101.0187,66.3467c-.1893,2.4868-3.1515,3.0733-4.6102,1.2353-.1252-.1577-.3675.044-.2727.2106,1.4998,2.6369,5.3082,1.4466,5.4741-1.4459.0218-.3817-.5625-.3763-.5912,0Z" style="fill: #252a33;"/>
                  </g>
                  <g>
                    <g>
                      <path d="m88.9365,65.6583c.2036,2.0845-2.3822,4.043-5.7755,4.3745-3.3933.3315-6.3092-1.0896-6.5129-3.1741-.2036-2.0845,2.3822-4.043,5.7755-4.3745,3.3933-.3315,6.3092,1.0897,6.5128,3.1741Z" style="fill: #fdacc1;"/>
                      <path d="m115.072,60.9666c.1783,1.8249-2.0855,3.5395-5.0563,3.8297-2.9708.2902-5.5236-.9539-5.7019-2.7788-.1783-1.8249,2.0855-3.5396,5.0563-3.8297,2.9708-.2902,5.5236.9539,5.7019,2.7789Z" style="fill: #fdacc1;"/>
                    </g>
                    <g>
                      <g>
                        <path d="m82.7922,63.6484c-.5215,0-.5224.8105,0,.8105.5216,0,.5224-.8105,0-.8105Z" style="fill: #252a33;"/>
                        <path d="m81.734,66.4157c-.5922,0-.5932.9203,0,.9203.5921,0,.593-.9203,0-.9203Z" style="fill: #252a33;"/>
                        <path d="m84.9088,65.85c-.6391,0-.6402.9934,0,.9934.6392,0,.6403-.9934,0-.9934Z" style="fill: #252a33;"/>
                      </g>
                      <g>
                        <path d="m109.4263,59.3878c-.5568,0-.5578.8654,0,.8654.5568,0,.5578-.8654,0-.8654Z" style="fill: #252a33;"/>
                        <path d="m108.368,62.1646c-.3883,0-.3889.6034,0,.6034.3881,0,.3888-.6034,0-.6034Z" style="fill: #252a33;"/>
                        <path d="m111.7193,61.5501c-.498,0-.4988.774,0,.774.4981,0,.4989-.774,0-.774Z" style="fill: #252a33;"/>
                      </g>
                    </g>
                  </g>
                </g>
              </g>
            </g>
            <g>
              <g>
                <path d="m123.0611,131.9878c-.0647-.0474-.149-.0705-.2491-.0465-14.1951,3.3915-28.244.8272-42.4451-.8769-.0202-.1345-.0404-.269-.0614-.4034-.0301-.1928-.3365-.1428-.3352.0454.0007.1029.0035.2076.0049.311-.064-.0076-.1279-.0155-.1918-.023-.1808-.0214-.2215.2826-.0432.3184.0799.0161.1603.0315.2403.0474.1865,9.8855,3.0138,22.0232,13.2616,25.8612,5.2854,1.9795,11.4391,1.8283,16.942,1.0427,4.9921-.7128,8.8435-3.2193,11.2082-7.7208,2.9595-5.6339,2.5954-12.1915,2.2136-18.3437-.0189-.3033-.3849-.3737-.5448-.2116Z" style="fill: #27d7d4;"/>
                <ellipse cx="102.204" cy="132.3583" rx="23.4023" ry="10.141" style="fill: #1da19f;"/>
                <path d="m123.0561,115.9579c-2.3702-6.6169-5.6499-14.0849-11.6094-18.2316-6.3319-4.4058-14.766-3.3363-20.8692.9194-6.0647,4.2289-10.1471,11.0344-11.8052,18.1703-.9473,4.0761-1.2042,8.4634-.4425,12.5933.1876,1.0167.5313,2.4253,1.7183,2.6819.8421.182,1.593-.3013,1.7281-1.0966.0786.0234.1846-.0436.1697-.1527-1.4522-10.6752.6625-22.2357,9.8296-28.9988,4.2143-3.1092,9.8521-4.9013,14.9623-3.0576,5.1549,1.8598,8.6057,6.3923,10.8475,11.2056,2.6902,5.7762,4.2057,12.1107,4.7471,18.4449-.138.0411-.2427.1657-.1789.3415.2862.7889.8709,1.3143,1.7351,1.3809,1.2852.0988,1.4778-.5112,1.5034-1.5954.1017-4.311-.8895-8.5676-2.3358-12.6052Z" style="fill: #27d7d4;"/>
                <ellipse cx="102.204" cy="131.2026" rx="23.4023" ry="10.141" style="fill: #27d7d4;"/>
                <ellipse cx="102.204" cy="131.2026" rx="19.5825" ry="7.8847" style="fill: #1da19f;"/>
                <path d="m81.1178,126.4001c-1.2283.9991-2.1342,2.3944-2.365,3.975-.0058.0392.0494.0572.0611.0168.4459-1.5313,1.1923-2.842,2.4297-3.866.0886-.0733-.0379-.1973-.1259-.1259Z" style="fill: #52dfdc; mix-blend-mode: multiply;"/>
                <path d="m125.107,128.3374c-.7195-1.092-1.7611-1.9274-2.981-2.3952-.073-.028-.1246.0934-.0535.127,1.1573.5471,2.0937,1.3401,2.8198,2.3937.0898.1304.3035.0093.2146-.1254Z" style="fill: #52dfdc; mix-blend-mode: multiply;"/>
                <path d="m98.8156,121.5549c-.0007-.1914-.2967-.1917-.2974,0-.0018.5349-.0153,1.0814.0594,1.6121.0126.0884.1663.0885.1787,0,.0747-.5307.0612-1.0773.0594-1.6121Z" style="fill: #52dfdc; mix-blend-mode: multiply;"/>
                <path d="m106.2694,121.1568c-.2278.6445-.4168,1.3141-.5893,1.9754-.0241.0919.1049.122.1386.0382.2556-.6361.5034-1.2883.7045-1.9437.0502-.1636-.198-.228-.2539-.07Z" style="fill: #52dfdc; mix-blend-mode: multiply;"/>
                <path d="m115.676,122.7613c-.2421.8502-.6833,1.5221-1.3704,2.0796-.0582.0472.0172.1428.0797.1033.7531-.4748,1.3266-1.2478,1.5563-2.1097.0457-.1716-.2171-.2437-.2656-.0732Z" style="fill: #52dfdc; mix-blend-mode: multiply;"/>
                <path d="m121.973,126.1732c-.5559.558-1.0762,1.0367-1.8041,1.3685-.0774.0353-.0225.1665.0582.1382.7338-.2579,1.4938-.7037,1.9641-1.3383.0955-.1288-.1094-.2775-.2182-.1684Z" style="fill: #52dfdc; mix-blend-mode: multiply;"/>
                <path d="m124.2418,132.6787c-.8075.053-1.5256-.0539-2.2451-.4458-.1191-.0649-.2188.1078-.1058.1811.6874.4453,1.5299.6875,2.3509.5817.1961-.0253.2081-.3305,0-.3169Z" style="fill: #52dfdc; mix-blend-mode: multiply;"/>
                <path d="m118.876,138.311c-.754-.3665-1.1272-1.1197-1.0655-1.9404.0082-.1088-.1697-.1337-.1916-.0259-.1835.9076.2857,1.8217,1.0749,2.2778.2031.1174.3891-.2109.1821-.3115Z" style="fill: #52dfdc; mix-blend-mode: multiply;"/>
                <path d="m110.6093,140.6561c-.5535-.6108-.6595-1.3739-.37-2.1353.0402-.1058-.1227-.1668-.1782-.0751-.4707.7776-.325,1.8125.2878,2.4706.1622.1741.4189-.0853.2603-.2602Z" style="fill: #52dfdc; mix-blend-mode: multiply;"/>
                <path d="m100.6639,139.3108c-.3191.689-.4967,1.4179-.5388,2.1762-.011.1983.3039.1998.3096,0,.0208-.7273.1414-1.4277.3562-2.1226.0227-.0738-.0935-.126-.127-.0536Z" style="fill: #52dfdc; mix-blend-mode: multiply;"/>
                <path d="m92.576,138.2204c-.6588.5155-.8999,1.5078-.5598,2.2666.0342.0762.1455.0199.1292-.0545-.1718-.7876.0439-1.4644.6391-2.0035.144-.1304-.0632-.3223-.2085-.2086Z" style="fill: #52dfdc; mix-blend-mode: multiply;"/>
                <path d="m85.3996,135.878c-.8677.3025-1.4094,1.1917-1.2674,2.0979.0104.0662.1151.0489.115-.0156-.003-.805.4769-1.5131,1.2327-1.7908.1805-.0663.1048-.356-.0803-.2915Z" style="fill: #52dfdc; mix-blend-mode: multiply;"/>
                <path d="m81.7467,131.7702c-.9615-.2999-2.0475.4547-2.3067,1.3717-.0264.0931.1171.1596.1604.0677.413-.876,1.1886-1.1887,2.108-1.1568.1661.0058.1897-.2353.0383-.2825Z" style="fill: #52dfdc; mix-blend-mode: multiply;"/>
                <path d="m86.0921,126.3711c-.7897-.8199-1.8059-1.3181-2.9458-1.3867-.0917-.0055-.1151.1492-.022.1629,1.0746.1567,2.0254.626,2.7626,1.429.1263.1374.3351-.0703.2052-.2051Z" style="fill: #52dfdc; mix-blend-mode: multiply;"/>
                <path d="m93.1689,123.9406c-.3011-.6305-.7715-1.1741-1.3386-1.579-.0895-.0639-.2021.0811-.1182.1532.5174.4445.9038.9637,1.1937,1.5797.0833.177.3474.0227.2631-.1538Z" style="fill: #52dfdc; mix-blend-mode: multiply;"/>
                <path d="m123.3201,139.1168c-1.9948,1.2616-4.0719,2.2672-6.229,3.0325.2911-.5731.2813-1.2853-.0833-1.829-.0703-.1049-.232-.0129-.1705.0997.3201.5859.3501,1.2142.0355,1.8054-2.4912.8626-5.0887,1.4059-7.794,1.638-.0492.0043-.0509.0792,0,.0781,5.1177-.122,10.1278-1.7447,14.3937-4.5636.1612-.1066.013-.3658-.1526-.261Z" style="fill: #52dfdc; mix-blend-mode: multiply;"/>
                <path d="m121.0922,143.7961c-2.3521.8642-4.7462,1.5639-7.1665,2.1056.2791-.7177.4268-1.5383.4125-2.2987-.0032-.1731-.2607-.1722-.2681,0-.035.8084-.1483,1.5549-.3255,2.3387-6.341,1.3975-12.8613,1.6881-19.2953.9079-.4444-.8106-.5165-1.6223-.3331-2.5059,3.4658.377,7.0041.3614,10.4115.2755.2318-.0058.2328-.3588,0-.3608-8.0976-.0678-16.3091-.0193-23.4412-4.4194-.046-.0284-.085.0415-.0418.0716,3.8246,2.6612,8.2488,3.8819,12.8078,4.4051-.2283.845-.0496,1.7718.4077,2.5107-3.3734-.4203-6.7228-1.1295-10.0084-2.1395-.0407-.0125-.0572.0498-.0175.0635,1.8052.6221,3.6394,1.142,5.4928,1.564-.6408.3258-.343,2.3026-.1679,3.1563-2.0974-.514-4.1692-1.1733-6.2513-1.973-.0487-.0187-.083.062-.0357.0847,3.6669,1.7596,7.7515,2.8357,11.839,3.2378-.5138.9295-.4426,2.1693.1801,3.026.0376.0515.1156.008.0864-.0504-.5101-1.0219-.4451-1.9781.0731-2.9413.9565.0854,1.9125.134,2.8627.1453.1733.002.1718-.2604,0-.2681-.9415-.0425-1.8684-.1163-2.786-.2143-.0507-.0641-.1439-.093-.2062-.0218-1.898-.2117-3.7526-.5387-5.5857-.9803-.122-.7915-.409-3.0965.3112-3.0092.0643.0078.1018-.0419.1077-.0964,10.2831,2.2528,21.1431,1.4521,31.0363-2.2559.2209-.0828.1265-.44-.0985-.3573Z" style="fill: #52dfdc; mix-blend-mode: multiply;"/>
                <path d="m122.2324,146.4862c-1.3401.6756-2.7081,1.2621-4.0973,1.7708.4331-.8451.5833-1.8503.3787-2.7795-.0417-.1889-.3121-.1047-.2845.0784.1472.9738.0597,1.8388-.3064,2.7542-.0033.0083.0013.0144.0009.0221-5.4127,1.9464-11.1565,2.6565-16.9629,2.2686-.0606-.004-.0576.0855,0,.0927,7.3767.9232,14.832-.5713,21.4486-3.9042.2018-.1016.0242-.4047-.1772-.3031Z" style="fill: #52dfdc; mix-blend-mode: multiply;"/>
                <path d="m119.0921,151.3857c-3.1899.7877-6.4303,1.5448-9.6876,2.0951.3139-.7245.4064-1.5012.319-2.2913-.0211-.1904-.296-.1561-.261.0353.1426.7802.0475,1.5406-.2071,2.2815-7.2274,1.2067-14.5361,1.3794-21.5625-1.4207-.0522-.0208-.0904.0685-.0386.0914,10.0763,4.4408,21.2953,2.1417,31.5292-.4599.2144-.0545.1237-.3845-.0914-.3314Z" style="fill: #52dfdc; mix-blend-mode: multiply;"/>
                <path d="m113.9641,153.3045c.0084-.1928-.3082-.1932-.2998,0,.0463,1.0797-.4032,1.9711-1.0882,2.7693-3.8125.6715-7.5807.8334-11.4351.5024-.0508-.0043-.0485.0717,0,.0781,3.8237.4975,7.7135.363,11.4953-.3888.0644-.0128.0817-.0679.0669-.1164.8373-.7029,1.2144-1.7777,1.2609-2.8446Z" style="fill: #52dfdc; mix-blend-mode: multiply;"/>
                <path d="m87.7157,142.5536c-.3888-.7695-.318-1.4864-.0648-2.2784.0404-.1262-.1556-.2118-.2161-.0911-.3839.7648-.2361,1.7104.1819,2.4273.0375.0642.1321.0077.0989-.0578Z" style="fill: #52dfdc; mix-blend-mode: multiply;"/>
                <path d="m98.378,143.914c-.3315-.4412-.3898-.9971-.1665-1.5017.0511-.1155-.116-.2181-.1727-.1009-.2723.5634-.1682,1.2096.2492,1.6719.0429.0474.1296-.0169.09-.0694Z" style="fill: #52dfdc; mix-blend-mode: multiply;"/>
                <path d="m104.7193,144.9464c-.2971.6355-.2816,1.4296.0064,2.0631.0345.0756.1464.0203.1293-.0545-.1567-.6841-.1142-1.2503.0826-1.9167.0375-.1267-.1599-.2168-.2183-.092Z" style="fill: #52dfdc; mix-blend-mode: multiply;"/>
              </g>
              <g style="mix-blend-mode: multiply; opacity: .29;">
                <path d="m123.6059,132.1994c-.0189-.3033-.3849-.3737-.5448-.2116-.0647-.0474-.149-.0705-.2491-.0465-.699.167-1.3978.3156-2.0962.4545.1149,3.5974-2.2837,6.5215-5.4755,7.9209-4.6844,2.0538-10.4199,1.9415-15.4254,1.6979-2.8287-.1376-5.6159-.4409-8.3967-.9893-2.9787-.5875-8.5321-1.7844-11.0986-4.5722.0851.7318.1889,1.466.31,2.1989,2.4558,3.7586,6.9574,5.379,11.2238,6.1714,4.6966.8724,9.6559.7981,14.3807.1763,3.3191-.4367,7.1229-2.1365,10.4747-1.4836,4.8014.9352,2.2317,6.3983.3883,8.8919-1.7757,2.4022-4.1083,4.3404-6.748,5.8281,4.9112-.7445,8.7051-3.2418,11.0434-7.6931,2.9595-5.6339,2.5954-12.1915,2.2136-18.3437Z" style="fill: #27d7d4;"/>
                <path d="m115.4182,123.9892c2.9205,1.7609,5.1264,4.8021,5.2969,8.2738.1797,3.6587-2.2436,6.6368-5.4748,8.0536-4.6844,2.0538-10.4199,1.9415-15.4254,1.6979-2.8287-.1376-5.6159-.4409-8.3967-.9893-1.4516-.2863-3.5148-.7177-5.546-1.4069,4.2172,1.7816,9.9769,2.8809,16.3319,2.8809,12.9247,0,23.4023-4.5403,23.4023-10.141,0-3.4757-4.0371-6.5418-10.1881-8.3691Z" style="fill: #1da19f;"/>
                <path d="m80.7887,128.2692c-1.1743,1.1531-1.8657,2.4183-1.9672,3.7489.4535-1.4187,1.1264-2.6613,1.9672-3.7489Z" style="fill: #1da19f;"/>
                <path d="m81.6046,127.3137c-.5435-9.3258,1.8554-18.8472,9.4427-24.908.013-.0972.0371-.1943.0705-.2909-.4663.3784-.9259.7619-1.3773,1.1481-2.8953,2.4774-5.9643,5.4252-7.3381,9.0669-1.6841,4.4644-2.5382,9.4044-2.5818,14.1639-.0055.5992-.2522,1.0413-.6126,1.3291-.0484.2452-.0984.4901-.157.7344-.1161.4854-.369.8205-.6881,1.0258.1181.6021.3007,1.3023.6729,1.8168.5989-1.5831,1.4819-2.9341,2.5688-4.086Z" style="fill: #27d7d4;"/>
                <path d="m123.0561,115.9579c-2.3702-6.6169-5.6499-14.0849-11.6094-18.2316-1.4233-.9903-2.954-1.6977-4.5392-2.1604-.2724.0354-.5432.0795-.815.1181,3.5837,1.9335,6.9474,4.1372,9.4064,7.4777,1.5588,2.1176,2.5505,4.4939,3.3653,6.9477,1.5369,3.286,2.6395,6.5915,3.4243,10.0797.8906,1.659,1.4465,3.4678,1.4132,5.4227-.0082.4791-.6019.9267-1.0439.599-.1964-.1456-.4042-.2673-.6131-.3871.1125.87.2133,1.7409.2878,2.6123-.138.0411-.2427.1657-.1789.3415.2862.789.8709,1.3143,1.7351,1.3809,1.2852.0989,1.4778-.5112,1.5034-1.5953.1017-4.311-.8895-8.5676-2.3358-12.6052Z" style="fill: #27d7d4;"/>
                <path d="m121.9837,125.7882c-.2505-.143-.5016-.2848-.737-.4593-.0192-.0143-.0335-.0307-.0507-.0459-.2314-.1392-.468-.2766-.715-.4103-.2542-.0544-.4894-.1698-.6823-.3526-3.2307-1.5961-7.5973-2.7492-12.5533-3.2214,2.8426.4115,5.5849,1.2035,7.9332,2.5447,3.0401,1.7362,5.3614,4.8527,5.5367,8.4197.1302,2.6502-1.1092,4.9395-3.0283,6.5409,4.8544-1.8582,7.9195-4.5739,7.9195-7.6013,0-1.992-1.332-3.8477-3.6226-5.4145Z" style="fill: #27d7d4;"/>
                <path d="m89.2443,122.7589c-6.294,1.8176-10.4426,4.9202-10.4426,8.4437,0,.2335.0248.4644.0606.6939,1.5966-4.8249,5.7478-7.5949,10.382-9.1376Z" style="fill: #27d7d4;"/>
                <path d="m120.7151,132.263c.0276.5621-.013,1.1058-.1017,1.6326.7583-.8403,1.173-1.747,1.173-2.693,0-1.5528-1.1193-2.9994-3.0442-4.2199,1.1404,1.5264,1.8773,3.3353,1.9729,5.2803Z" style="fill: #1da19f;"/>
                <path d="m81.1178,126.4001c-1.2283.9991-2.1342,2.3944-2.365,3.975-.0058.0392.0494.0572.0611.0168.4459-1.5313,1.1923-2.842,2.4297-3.866.0886-.0733-.0379-.1973-.1259-.1259Z" style="fill: #52dfdc; mix-blend-mode: multiply;"/>
                <path d="m125.107,128.3374c-.5599-.8496-1.3164-1.5412-2.1986-2.0279-.0856-.013-.1708-.0395-.2508-.0988-.0552-.0409-.1134-.0758-.1701-.1135-.1191-.0545-.2387-.108-.3616-.1551-.073-.028-.1246.0934-.0535.127,1.1573.5471,2.0937,1.3401,2.8198,2.3937.0898.1304.3035.0093.2146-.1254Z" style="fill: #52dfdc; mix-blend-mode: multiply;"/>
                <path d="m115.3983,123.9771c.2461-.3465.4344-.7338.5433-1.1425.0457-.1716-.2171-.2437-.2656-.0732-.1144.4016-.2749.7621-.483,1.0909.0694.0398.1366.0836.2053.1248Z" style="fill: #52dfdc; mix-blend-mode: multiply;"/>
                <path d="m121.973,126.1732c-.5559.558-1.0762,1.0367-1.8041,1.3685-.0774.0353-.0225.1665.0582.1382.7338-.2579,1.4938-.7037,1.9641-1.3383.0955-.1288-.1094-.2775-.2182-.1684Z" style="fill: #52dfdc; mix-blend-mode: multiply;"/>
                <path d="m124.2418,132.6787c-.8075.053-1.5256-.0539-2.2451-.4458-.1191-.0649-.2188.1078-.1058.1811.6874.4453,1.5299.6875,2.3509.5817.1961-.0253.2081-.3305,0-.3169Z" style="fill: #52dfdc; mix-blend-mode: multiply;"/>
                <path d="m83.1243,125.1472c.2771.0404.5456.1025.8048.1848.0779-.0537.1564-.1066.2353-.1591-.3261-.1004-.6653-.1674-1.0181-.1886-.0917-.0055-.1151.1492-.022.1629Z" style="fill: #52dfdc; mix-blend-mode: multiply;"/>
                <path d="m123.3201,139.1168c-1.9948,1.2616-4.0719,2.2672-6.229,3.0325.2911-.5731.2813-1.2853-.0833-1.829-.0703-.1049-.232-.0129-.1705.0997.3201.5859.3501,1.2142.0355,1.8054-2.4912.8626-5.0887,1.4059-7.794,1.638-.0492.0043-.0509.0792,0,.0781,1.2141-.029,2.4217-.1451,3.6152-.3389.095-.0166.1898-.0313.2846-.0465,3.735-.6477,7.3205-2.0812,10.494-4.1782.1612-.1066.013-.3658-.1526-.261Z" style="fill: #52dfdc; mix-blend-mode: multiply;"/>
                <path d="m82.5586,140.8716c3.458,2.0033,7.3246,2.9884,11.2937,3.4439-.0714.264-.0986.5361-.0945.8079.0893.0117.1788.0218.2682.0329.0035-.2655.0325-.5353.0901-.8127,3.4658.377,7.0041.3614,10.4115.2755.2318-.0058.2328-.3588,0-.3608-7.7286-.0648-15.5604-.0266-22.459-3.8484.1598.1581.3216.3137.49.4617Z" style="fill: #52dfdc; mix-blend-mode: multiply;"/>
                <path d="m121.0922,143.7961c-.7653.2812-1.5367.5386-2.3105.7852.091.1041.1735.2127.2446.327.7257-.2379,1.4482-.4865,2.1644-.755.2209-.0828.1265-.44-.0985-.3573Z" style="fill: #52dfdc; mix-blend-mode: multiply;"/>
                <path d="m122.2324,146.4862c-.959.4835-1.933.9196-2.9183,1.3159-.0305.1403-.0659.2812-.1049.4225,1.0846-.4329,2.154-.9083,3.2004-1.4354.2018-.1016.0242-.4047-.1772-.3031Z" style="fill: #52dfdc; mix-blend-mode: multiply;"/>
                <path d="m119.0921,151.3857c-.5137.1268-1.0306.2505-1.5467.375-.1006.1537-.2006.3015-.2995.441.6494-.1593,1.2955-.3213,1.9376-.4846.2144-.0545.1237-.3845-.0914-.3314Z" style="fill: #52dfdc; mix-blend-mode: multiply;"/>
                <path d="m87.651,140.2752c.0185-.0576-.0132-.1055-.0578-.1304-.0212-.0058-.0422-.0114-.0635-.0174-.0375-.0003-.0742.0154-.0948.0567-.3839.7648-.2361,1.7104.1819,2.4273.0375.0642.1321.0077.0989-.0578-.3888-.7695-.318-1.4864-.0648-2.2784Z" style="fill: #52dfdc; mix-blend-mode: multiply;"/>
                <path d="m98.378,143.914c-.3315-.4412-.3898-.9971-.1665-1.5017.0511-.1155-.116-.2181-.1727-.1009-.2723.5634-.1682,1.2096.2492,1.6719.0429.0474.1296-.0169.09-.0694Z" style="fill: #52dfdc; mix-blend-mode: multiply;"/>
              </g>
            </g>
            <g>
              <g>
                <path d="m85.5835,107.8775c-.1199-.0994-.2415-.1962-.3669-.2863-.0722-.0519-.1373.0556-.0886.1149.0005.0006.0011.0012.0016.0019-.1087-.0095-.2266.0416-.279.1711-.2974.7343-1.4158,1.0595-1.9429.3713-.2248-.2935-.2547-.6952-.161-1.0434.1057-.393.3545-.5964.6517-.8449.0864-.0722.0188-.2428-.0956-.2309-.2089.0217-.3873.0981-.5355.2124-.0226-.0008-.0443-.004-.0694.0017-3.967.8857-5.9791,5.5087-3.5278,8.874.9374,1.2869,2.8954,2.7043,4.6161,2.3349.9072-.1947,1.628-1.2872.9203-1.9228.5525.069,1.1149-.3206,1.2005-.9085.061-.4195-.1284-.7824-.4216-1.0461.5511-.0878,1.0699-.5705,1.1411-1.1499.0877-.7142-.3156-1.2769-.886-1.5737.5781-.1181,1.1157-.5501,1.2856-1.1026.2899-.9422-.5053-1.9226-1.4425-1.9728Z" style="fill: #efd4d0;"/>
                <path d="m81.4205,111.0406c1.2936-1.6825,3.3303-2.4025,5.3833-2.4539-.2773-.3989-.7284-.6827-1.2204-.7092-.1199-.0994-.2415-.1962-.3669-.2863-.0722-.0519-.1373.0556-.0886.1149.0005.0006.0011.0012.0016.0019-.1087-.0095-.2266.0416-.279.1711-.2974.7343-1.4158,1.0595-1.9429.3713-.2248-.2935-.2547-.6952-.161-1.0434.1057-.393.3545-.5964.6517-.8449.0864-.0722.0188-.2428-.0956-.2309-.2089.0217-.3873.0981-.5355.2124-.0226-.0008-.0443-.004-.0694.0017-3.967.8857-5.9791,5.5087-3.5278,8.874.6912.949,1.9378,1.9666,3.2347,2.2887-1.7621-1.7688-2.6996-4.236-.9842-6.4672Z" style="fill: #efd4d0; mix-blend-mode: multiply; opacity: .65;"/>
              </g>
              <g>
                <path d="m116.2245,108.0539c.1199-.0994.2415-.1962.3669-.2863.0723-.0519.1373.0556.0886.1148-.0005.0006-.0011.0013-.0016.0019.1087-.0095.2266.0415.279.1711.2974.7343,1.4158,1.0595,1.9429.3713.2248-.2935.2547-.6953.161-1.0435-.1057-.3929-.3545-.5963-.6517-.8448-.0863-.0722-.0188-.2428.0957-.2309.2089.0217.3873.0981.5355.2123.0226-.0008.0443-.0039.0694.0017,3.9669.8856,5.9791,5.5086,3.5278,8.874-.9374,1.2869-2.8955,2.7043-4.6162,2.3349-.9072-.1947-1.628-1.2872-.9203-1.9228-.5526.069-1.1149-.3206-1.2005-.9085-.061-.4195.1284-.7824.4216-1.0461-.5511-.0878-1.07-.5705-1.1411-1.1499-.0877-.7142.3156-1.2769.8859-1.5737-.5781-.1181-1.1155-.5501-1.2856-1.1026-.29-.9421.5054-1.9225,1.4425-1.9728Z" style="fill: #efd4d0;"/>
                <path d="m117.5694,110.7553c.9507-1.5353,2.5032-2.5228,4.1992-2.8655-.7241-.6507-1.6239-1.1373-2.6584-1.3683-.025-.0056-.0468-.0026-.0694-.0017-.1481-.1142-.3265-.1907-.5354-.2123-.1145-.0119-.182.1588-.0957.2309.2972.2485.546.4519.6517.8448.0937.3483.0638.75-.161,1.0435-.5272.6882-1.6456.363-1.9429-.3713-.0525-.1296-.1704-.1806-.2791-.1711.0005-.0006.0011-.0013.0017-.0019.0486-.0592-.0164-.1668-.0887-.1148-.1253.0901-.247.1869-.3668.2863-.9371.0502-1.7325,1.0307-1.4425,1.9728.17.5525.7074.9846,1.2856,1.1026-.5703.2969-.9736.8596-.8859,1.5737.0711.5794.59,1.0621,1.1411,1.1499-.2932.2637-.4826.6266-.4216,1.0461.0856.5879.6478.9774,1.2004.9085-.7077.6356.0131,1.7281.9204,1.9228.4829.1036.9842.0629,1.4767-.0726-2.3359-1.6149-3.5707-4.2516-1.9291-6.9026Z" style="fill: #efd4d0; mix-blend-mode: multiply; opacity: .65;"/>
              </g>
            </g>
          </g>
        </g>
      </g>
    </g>
  </g>
</svg>