<?xml version="1.0" encoding="UTF-8"?>
<svg xmlns="http://www.w3.org/2000/svg" viewBox="0 0 186.3565 186.3565">
  <g style="isolation: isolate;">
    <g id="Layer_2" data-name="Layer 2">
      <g id="lvl_1_-_tamplo" data-name="lvl 1 - tamplo">
        <g>
          <rect width="186.3565" height="186.3565" style="fill: #7eab55;"/>
          <g>
            <path d="m166.3077,48.9812c-4.1359.5141-10.3346,1.8207-11.1664,6.559-.7826-3.1927-2.7309-5.9728-5.4849-7.8689-.1866-.1277-.4847.0884-.3962.3078.6124,1.5652.9104,3.1534.9005,4.8038-1.7813-3.1502-5.0395-5.1706-8.7038-5.3572-.2948-.0164-.3308.3569-.1343.501,1.6799,1.2607,3.0192,2.8129,4.0245,4.6335-1.431-.6025-2.9078-.7859-4.4567-.5567-1.0676-4.2144-5.9892-5.9925-8.7792-8.9363-.1605-.1703-.4585-.0392-.4585.19-.0032,2.9209-1.1952,5.4489-.5926,8.4189.4355,2.1416,1.4736,4.2602,3.029,5.8255-8.1243,3.4907-14.3952,10.9698-17.3226,19.3069-2.9111-1.2967-6.13-1.9025-9.3031-2.0073-.2391-.0098-.3635.3046-.1965.465.5207.501,1.0445,1.002,1.5652,1.4997-5.3179-2.0434-10.9306-3.0257-16.6448-2.8784-.2226.0033-.3438.2816-.1833.442.8121.8252,1.4736,1.7094,2.0401,2.695-5.4784-1.0544-11.0092-1.7192-16.5858-1.9713-.2521-.0131-.3373.3504-.1277.4716.9758.56,1.8632,1.205,2.6917,1.9451-5.4719-.5632-10.9535-.3012-16.35.7793-.2521.0491-.2194.4093,0,.4748.7368.2292,1.4211.5206,2.0924.8809-5.0625,2.9111-9.0443,7.3416-11.366,12.7152-.072.167.0523.429.2685.3471.6222-.2292,1.2443-.4617,1.8665-.6909-.5501,2.4592-1.1723,4.9217-1.6307,7.4038-5.7272-3.7658-7.525-12.0963-8.6089-18.6061-.0426-.2554-.3831-.1932-.4551,0-.298.7924-.596,1.5882-.894,2.3806-.321-4.2013-.4486-8.5303-1.336-12.6366-.7401-3.4122-2.4592-6.6769-5.6781-8.2946-.203-.1015-.4781.1179-.334.334.6877,1.0479,1.0347,2.1187,1.0773,3.3041-2.2791-4.2406-6.0219-7.6003-10.5441-9.3227-6.0973-2.3217-12.7578-1.1592-18.9795-.0295-.262.0459-.1998.3962,0,.4715,4.3781,1.6701,9.1426,3.6447,12.0145,7.5447,3.1402,4.2635,2.5771,9.7353,3.7952,14.6373,1.8633,7.4858,7.7018,13.6223,14.9518,16.0946-1.1035.0164-2.1645-.1637-3.2451-.5403-.1603-.0556-.347.1637-.2357.3078,4.2045,5.4751,11.294,8.2912,18.0527,7.1255-.2096,2.0957-.1081,4.2144.7302,6.1857,1.5653,3.6642,5.0331,6.4247,8.6514,8.4255,1.4048,6.5917-.0654,13.3898-2.076,19.7621-2.0728,6.5721-4.1523,14.955-11.2712,17.7384-.252.0982-.2357.4945.0689.4977.7368.0066,2.3936-.1932,2.9274.4617.2653.3275.406,1.1265.6123,1.5161.6058,1.1559,1.4801,2.1612,2.5018,2.9667,1.9778,1.5652,4.4599,2.2922,6.9618,2.0041.1605-.0164.2881-.1441.2423-.3176-.0884-.3438-.2096-.6713-.357-.9725l.0098-.0033c.0393.0851.1637.1408.2357.0491.8416-1.0315,2.3741-2.122,1.2411-3.5333l.0884-.0655c.0294.0655.1146.1048.1866.0393.9792-.8809.822-2.3675-.1113-3.2288-1.133-1.0445-2.7637-.9922-4.2111-.7138,2.4003-1.9418,4.3749-4.234,5.95-6.8766l.036,1.2542c.0065.167.2456.3078.3668.1506,2.2987-2.9144,3.9786-6.1857,5.0003-9.7223.0982.0622.2554.036.3308-.0622,2.8652-3.72,4.9478-7.9147,6.1791-12.4205.0459,5.6716-2.1841,11.4774-3.6086,16.8576-1.4244,5.3769-2.4297,11.5756-6.572,15.6231-.2031.1997.0097.4912.2586.4454,1.8338-.321,3.0225,1.3196,4.2341,2.3904.7957.704,1.6634,1.2836,2.636,1.7192,2.2332.9987,4.6859,1.1395,7.037.5075.1736-.0491.2359-.2423.1606-.393-.1998-.3897-.4323-.7368-.6976-1.0413.0131-.0033.0262-.0033.036-.0098,1.0806-.4585,1.0871-1.8894.5239-2.7474-.1015-.1539-.2161-.2914-.3439-.4192.0623.0033.1245-.0262.1409-.095.4551-1.9483-1.0479-3.8836-2.8751-4.0834,3.8345-2.2201,4.8104-6.9225,5.2819-11.1139.2194.4388.4977.8317.8711,1.228.1014.1113.2979.0818.3699-.0459,2.9013-5.1051,4.4076-10.9535,4.1555-16.8215,4.0277.4126,8.1669-.036,12.0603-1.0806-.429.537-.8973,1.0184-1.4278,1.4866-.2292.2063.0262.4912.2685.4585,5.5373-.7499,11.5396-2.0695,15.9243-5.6356.8448,5.7665,2.1645,11.4905,3.2974,17.2047.5928,3.0028,1.4343,6.0776,1.3459,9.159-.0884,2.9962-1.0086,5.8451-2.4527,8.4517-.1081.1932.0328.3864.2325.4093.3831.0426,1.0577-.1637,1.3917-.0786.5337.1408.8023.871,1.1428,1.2935.7007.871,1.5521,1.6242,2.4953,2.2234,2.0269,1.2935,4.4142,1.837,6.7948,1.5751.1309-.0164.2259-.0786.2684-.2064.1048-.3045.1441-.6091.1409-.907,1.3262-.2391,2.3118-1.634,2.0204-2.9733-.0884-.4126-.2849-.7728-.5468-1.0675.4158-1.2411-.1507-2.5411-1.2181-3.3433-1.5391-1.1527-3.6054-.8187-5.3802-.4388.3373-3.6872.6713-7.3777.9988-11.0681.262.3701.5273.74.7892,1.1068.131.1866.4158.167.488-.0622,1.742-5.5668.7662-11.3071-.5862-16.851,2.4625,4.6597,4.7219,9.4242,6.7554,14.287,1.0905,2.6066,2.1187,5.2393,3.0815,7.895,1.0249,2.8325,2.78,6.3396,2.2332,9.3981-.036.1866.0753.3373.2653.3503,4.1063.3111,8.7562,4.0278,12.6104.9038.0819-.0655.0884-.1801.072-.2718-.1114-.6484-.3734-1.2181-.7433-1.6864.7564-.9856.6844-2.4592-.1147-3.4088-.0982-.1179-.2096-.2226-.3241-.3176.0982-.0393.1768-.1637.108-.2685-1.4212-2.2005-4.0604-3.1174-6.5459-2.4723-.2947-3.6839-1.133-7.2663-2.4789-10.6981.1834.1441.3799.2816.5993.4126.1768.1081.4257-.0295.4192-.239-.1179-3.8607-1.0249-7.5774-2.6786-11.0386.2685.2194.5403.4421.8088.6647.1997.1605.5763.0164.4748-.2783-1.9124-5.5242-3.7822-11.0681-5.7338-16.5825,1.562-1.395,2.8391-3.0159,3.8378-4.8661.2064.6615.4126,1.323.6189,1.9877.0557.1834.3177.2816.4585.1211,3.8149-4.365,7.6364-8.8578,9.624-14.3656.298.8088.596,1.6176.8907,2.4264.085.226.3634.2652.5009.0655,4.1555-5.999,6.5524-12.9805,6.9913-20.25.4126.465.8841.8088,1.5063,1.097.2095.095.3929-.0229.4225-.2424.6614-4.9642.4748-10.1479-1.0414-14.9517,1.7421-1.3426,2.9962-3.1665,3.7723-5.259.4945-1.3393.7827-2.7441.943-4.162.2227-1.9353.0065-3.9622.7794-5.796.0687-.1637-.0033-.4454-.239-.4159Z" style="fill: #51555c;"/>
            <path d="m23.1633,61.3972c3.6276,2.006,6.5609,4.9451,9.0931,8.1849.0781-1.1336.0131-2.2718.0013-3.4126-.005-.4712.5703-.6717.8972-.3717,2.0602,1.8908,3.0193,4.545,3.9027,7.1475.3757-.9936.7656-1.9819,1.1131-2.9861.1687-.4872.8546-.5101,1.0137,0,1.6184,5.191,1.3665,10.9836,4.2231,15.7561,1.9136,3.1971,4.2592,6.7946,7.3187,9.2159-2.5623-4.1512-3.6731-9.5994-4.432-14.1571-.0426-.2554-.3831-.1932-.4551,0-.298.7924-.596,1.5882-.894,2.3806-.321-4.2013-.4486-8.5303-1.336-12.6366-.7401-3.4122-2.4592-6.6769-5.6781-8.2946-.203-.1015-.4781.1179-.334.334.6877,1.0479,1.0347,2.1187,1.0773,3.3041-2.2791-4.2406-6.0219-7.6003-10.5441-9.3227-6.0973-2.3217-12.7578-1.1592-18.9795-.0295-.262.0459-.1998.3962,0,.4715,1.157.4414,2.3405.9055,3.5094,1.4193,3.6643.3037,7.2463,1.1959,10.5034,2.997Z" style="fill: #51555c; mix-blend-mode: multiply; opacity: .29;"/>
            <path d="m54.6673,92.6673c.6222-.2292,1.2443-.4617,1.8665-.6909-.0543.2425-.1112.4854-.1667.7281.2254-.3555.4574-.6986.6863-1.0252,1.4251-2.0334,3.2031-4.148,5.427-5.3339.5465-.2914,1.0163.3785.6369.8255-.3272.3854-.7008.7593-1.0138,1.1668,4.2147-2.3799,8.3147-4.9642,13.2493-5.5024.3848-.042.6718.4824.4538.7909-.1982.2804-.4042.5411-.6264.7808,5.9739-.2838,12.0053-1.0092,17.8313.7393.4125.1238.5427.7469.1255.9607-.4982.2552-.986.5212-1.462.8059,5.715-.1849,11.586-1.5213,17.0545.6894.3703.1497.584.748.1255.9607-.9295.4309-1.906.7519-2.8195,1.1985,4.9458.6291,10.7399.6892,15.0893-1.828-.167-.0318-.3345-.0619-.5005-.0971-4.779-1.013-2.7723-7.0222-1.6119-10.1409,2.032-5.4614,4.741-10.3511,8.7442-14.6327,3.8156-4.0811,9.1525-6.0703,13.805-8.972.5384-.3358,1.0006.3943.6369.8255-1.0736,1.2732-1.5714,2.6589-1.6485,4.2324,1.7935-1.1771,3.5079-2.408,5.5578-3.1461.4451-.1603.8106.399.5936.7721-.2449.421-.4773.8478-.7038,1.2779,1.4453-.5709,3.0074-.7124,4.5967-.8374,1.3534-.1065,2.799-.1788,4.0166-.8474,1.007-.5529,1.896-1.3731,2.782-2.0956,2.8122-2.2932,5.6128-4.5822,9.1341-5.1792-.0419-.0738-.1131-.125-.2193-.1117-4.1359.5141-10.3346,1.8207-11.1664,6.559-.7826-3.1927-2.7309-5.9728-5.4849-7.8689-.1866-.1277-.4847.0884-.3962.3078.6124,1.5652.9104,3.1534.9005,4.8038-1.7813-3.1502-5.0395-5.1706-8.7038-5.3572-.2948-.0164-.3308.3569-.1343.501,1.6799,1.2607,3.0192,2.8129,4.0245,4.6335-1.431-.6025-2.9078-.7859-4.4567-.5567-1.0676-4.2144-5.9892-5.9925-8.7792-8.9363-.1605-.1703-.4585-.0392-.4585.19-.0032,2.9209-1.1952,5.4489-.5926,8.4189.4355,2.1416,1.4736,4.2602,3.029,5.8255-8.1243,3.4907-14.3952,10.9698-17.3226,19.3069-2.9111-1.2967-6.13-1.9025-9.3031-2.0073-.2391-.0098-.3635.3046-.1965.465.5207.501,1.0445,1.002,1.5652,1.4997-5.3179-2.0434-10.9306-3.0257-16.6448-2.8784-.2226.0033-.3438.2816-.1833.442.8121.8252,1.4736,1.7094,2.0401,2.695-5.4784-1.0544-11.0092-1.7192-16.5858-1.9713-.2521-.0131-.3373.3504-.1277.4716.9758.56,1.8632,1.205,2.6917,1.9451-5.4719-.5632-10.9535-.3012-16.35.7793-.2521.0491-.2194.4093,0,.4748.7368.2292,1.4211.5206,2.0924.8809-5.0625,2.9111-9.0443,7.3416-11.366,12.7152-.072.167.0523.429.2685.3471Z" style="fill: #51555c; mix-blend-mode: multiply; opacity: .24;"/>
            <path d="m159.9018,66.582c-.6977.8113-.7506,1.7512-.6767,2.7849.1481,2.0746.9029,4.0436.9738,6.1351.0148.4352-.6021.7227-.8972.3717-.2405-.2861-.5112-.5406-.7841-.7934-.2245,6.9493-.0634,14.0845-4.2847,20.0071-.2542.3566-.8298.3383-.9607-.1256-.2288-.8106-.5232-1.598-.8049-2.3899-1.7359,5.1734-3.9084,10.5515-7.8129,14.4104-.2283.2257-.6707.2005-.8255-.1064-.4529-.8982-.7128-1.8354-.9423-2.7942-1.9446,2.8744-3.022,6.2254-5.5185,8.7625-2.5074,2.548-5.5582,4.4011-8.6932,6.0692,1.6773,2.6017,1.7155,5.9919,2.0528,8.982.0571.5056-.5895.6168-.8972.3716-.363-.2892-.708-.5944-1.045-.9089.007.1036.0174.2064.0267.3096,2.3152,4.4289,4.4489,8.9506,6.3772,13.5617,1.0905,2.6066,2.1187,5.2393,3.0815,7.895,1.0249,2.8325,2.78,6.3396,2.2332,9.3981-.036.1866.0753.3373.2653.3503,4.1063.3111,8.7562,4.0278,12.6104.9038.0819-.0655.0884-.1801.072-.2718-.1114-.6484-.3734-1.2181-.7433-1.6864.7564-.9856.6844-2.4592-.1147-3.4088-.0982-.1179-.2096-.2226-.3241-.3176.0982-.0393.1768-.1637.108-.2685-1.4212-2.2005-4.0604-3.1174-6.5459-2.4723-.2947-3.6839-1.133-7.2663-2.4789-10.6981.1834.1441.3799.2816.5993.4126.1768.1081.4257-.0295.4192-.239-.1179-3.8607-1.0249-7.5774-2.6786-11.0386.2685.2194.5403.4421.8088.6647.1997.1605.5763.0164.4748-.2783-1.9124-5.5242-3.7822-11.0681-5.7338-16.5825,1.562-1.395,2.8391-3.0159,3.8378-4.8661.2064.6615.4126,1.323.6189,1.9877.0557.1834.3177.2816.4585.1211,3.8149-4.365,7.6364-8.8578,9.624-14.3656.298.8088.596,1.6176.8907,2.4264.085.226.3634.2652.5009.0655,4.1555-5.999,6.5524-12.9805,6.9913-20.25.4126.465.8841.8088,1.5063,1.097.2095.095.3929-.0229.4225-.2424.63-4.7285.4878-9.6553-.8372-14.264-.4659.4156-.954.8147-1.3544,1.2803Z" style="fill: #51555c; mix-blend-mode: multiply; opacity: .24;"/>
            <path d="m78.7089,127.1849c-.3758,5.0603-2.2736,10.1772-3.5395,14.9582-1.4244,5.3769-2.4297,11.5756-6.572,15.6231-.2031.1997.0097.4912.2586.4454,1.8338-.321,3.0225,1.3196,4.2341,2.3904.7957.704,1.6634,1.2836,2.636,1.7192,2.2332.9987,4.6859,1.1395,7.037.5075.1736-.0491.2359-.2423.1606-.393-.1998-.3897-.4323-.7368-.6976-1.0413.0131-.0033.0262-.0033.036-.0098,1.0806-.4585,1.0871-1.8894.5239-2.7474-.1015-.1539-.2161-.2914-.3439-.4192.0623.0033.1245-.0262.1409-.095.4551-1.9483-1.0479-3.8836-2.8751-4.0834,3.8345-2.2201,4.8104-6.9225,5.2819-11.1139.2194.4388.4977.8317.8711,1.228.1014.1113.2979.0818.3699-.0459,2.8908-5.0865,4.3955-10.9109,4.157-16.7574-3.1634-.4919-9.2263-1.3644-11.679-.1655Z" style="fill: #51555c; mix-blend-mode: multiply; opacity: .24;"/>
            <path d="m77.6427,128.739c.1372-.3561.269-.7144.3949-1.0752-.2673.2868-.4099.641-.3949,1.0752Z" style="fill: #51555c; mix-blend-mode: multiply; opacity: .24;"/>
            <g>
              <g>
                <path d="m136.4144,50.0354c-1.0204-1.0588-2.3568-2.4853-3.7596-3.0175-.1631-.0619-.2908.0935-.3073.234-.4091,3.5044-.1819,8.0442,3.5377,9.6976.0987.0438.183-.0401.1699-.1205.0619.0822.118.1657.185.2468.1643.199.509-.0642.3599-.2776-.2861-.4091-.5243-.8067-.7306-1.2301.2755.145.5773.2422.952.3099.1758.0318.3945-.1167.3196-.3195-.1996-.5394-.3998-1.0786-.5999-1.6178.6901.3384,1.4018.5418,2.1985.6395.168.0206.2932-.1816.2495-.3275-.4889-1.6292-1.3991-2.9977-2.5746-4.2174Z" style="fill: #fdacc1;"/>
                <path d="m138.0171,54.4525c.2346.0522.4732.0972.7225.1277.168.0206.2932-.1816.2494-.3274-.4889-1.6292-1.3991-2.9977-2.5746-4.2174-1.0204-1.0588-2.3568-2.4853-3.7596-3.0175-.1631-.0619-.2908.0935-.3072.234-.0189.1616-.0358.3261-.0517.4917,2.4482,1.7821,4.277,4.0954,5.7213,6.7089Z" style="fill: #fdacc1; mix-blend-mode: multiply;"/>
              </g>
              <g>
                <path d="m164.6407,51.0963c-3.7732,1.0227-6.3748,5.3836-7.5999,8.8268-.0227.0641-.0159.1178.0034.1644-.0704.1054-.0165.2808.1517.3026.4944.0641.9376-.104,1.2794-.404-.0106.5842.1388,1.1534.4492,1.6984.0843.1481.3498.1316.3839-.0502.0675-.3583.1771-.6909.3248-1.0021-.1847.8415-.1386,1.7242.1892,2.5493.0412.1037.162.11.2225.0523.0215.0777.1086.1409.2052.0952,4.4528-2.1063,3.2357-8.102,4.6991-11.9241.0706-.1844-.138-.3547-.3085-.3085Z" style="fill: #fdacc1;"/>
                <path d="m157.1959,60.39c.1503.0195.2953.0152.4348-.0055.9021-3.5017,3.4738-6.76,6.3313-9.0639-3.4074,1.3284-5.771,5.3697-6.9213,8.6024-.0228.064-.0159.1179.0033.1644-.0704.1054-.0164.2808.1518.3026Z" style="fill: #fdacc1; mix-blend-mode: multiply;"/>
              </g>
            </g>
            <path d="m142.0493,73.919c-1.5292-.0614-3.0581-.128-4.5878-.1765-.185-.0058-.2656.194-.1961.3416.2513.5336,1.715,3.2905,1.3866,3.899-.0342.0635-3.1123-.7309-3.3635-.7758-.1204-.0214-.2785.0546-.2645.2014.0757.7859.6113,2.5336.4373,3.2747-.1481.6309-.2254.458-.9223.2271-.7784-.2579-1.5329-.56-2.2841-.89-.1005-.0442-.252-.0191-.2763.1124-.0725.3923-.1968,2.8333-.3935,2.9657-.5753.3875-1.2104-.796-1.8512-.8109-1.263-.0296-.7501,2.0467-.7181,2.7872.005.1158.173.1153.1796,0,.001-.0177.0016-.0389.0024-.0579,5.6923-1.058,10.498-5.4477,12.8481-10.617.001,0,.0021,0,.0032.0001.3096.0132.3092-.4688,0-.4812Z" style="fill: #fff;"/>
            <g>
              <path d="m146.2663,80.1251c-7.9271,7.2453-18.9848,9.3518-29.2245,6.5921-.1118-.0302-.1527.1322-.0471.1709,10.0359,3.6775,21.8779.7468,29.6591-6.3756.2607-.2386-.1275-.6251-.3875-.3874Z" style="fill: #252a33;"/>
              <path d="m116.6678,81.0832c-1.9308-.68-3.1824,1.0124-4.0966,2.5682-.7355,1.2519-.6763,2.5868.8747,3.1085.8481.2852,1.8493.0528,2.6996-.0938,1.6416-.283,3.2509-.6998,4.8397-1.1967.0498-.0156.0875-.0412.1184-.0712.1191-.0048.2265-.1167.1468-.2541-1.0094-1.7392-2.6419-3.3774-4.5827-4.0609Z" style="fill: #13151a;"/>
              <path d="m144.7547,72.8157c-.5699-.85-1.7399-1.3416-2.7441-1.1765-.1302.0214-.0893.2124.0296.2193.2939.0172.5574.0638.8026.1352-.0363.0271-.0657.0642-.0759.1183-.1198.6345-.2731,1.2566-.4151,1.8836-.0721.0119-.1389.0553-.1808.1464-3.7133,8.0352-11.9319,12.0485-20.5851,11.1203-.1135-.0122-.1378.175-.027.199,8.7063,1.8812,17.4485-3.0848,21.119-11.023.0494-.1066.0296-.2064-.02-.2865.3196-.6066.5044-1.3151.5659-1.978.0015-.0152-.0035-.0272-.005-.0409.4432.2003.8237.5087,1.1925.9477.159.1892.4817-.0591.3435-.2651Z" style="fill: #252a33;"/>
              <path d="m116.9071,76.8706c-.4349,1.17-.8589,2.3489-.8737,3.6131-.0008.0635.0996.08.1131.0153.2499-1.2047.455-2.4096,1.0152-3.5211.0901-.1787-.1837-.2981-.2546-.1073Z" style="fill: #252a33;"/>
              <g>
                <g>
                  <path d="m145.8684,62.1736c-.2293-.2673-.578-.3382-.9038-.2698-.314-.1752-.7123.182-.9071.4732-.4449.665-.7353,1.5742-.6178,2.3778.0943.6466.5699,1.3074,1.2924,1.2807.7379-.0273,1.0624-.7645,1.2059-1.3835.1564-.6749.4347-1.8913-.0695-2.4784Z" style="fill: #252a33;"/>
                  <path d="m145.2364,60.1926c-.9185.1836-1.8499.8335-2.1748,1.7377-.0209.058.0637.1062.1039.0605.6168-.7014,1.2524-1.1895,2.1873-1.3763.2758-.0551.1591-.4769-.1163-.4218Z" style="fill: #252a33;"/>
                </g>
                <g>
                  <path d="m133.0749,62.1736c-.2293-.2673-.578-.3382-.9039-.2698-.314-.1752-.7123.182-.907.4732-.445.665-.7354,1.5742-.6179,2.3778.0944.6466.5699,1.3074,1.2924,1.2807.7379-.0273,1.0625-.7645,1.2059-1.3835.1564-.6749.4348-1.8913-.0695-2.4784Z" style="fill: #252a33;"/>
                  <path d="m134.6352,62.2037c-.4023-.7923-1.3219-1.6489-2.156-1.9659-.2428-.0923-.3473.2602-.165.3913.3743.2694.7956.4642,1.1655.7461.3695.2817.6822.6221,1.0362.9205.0655.0552.1596-.0128.1194-.0921Z" style="fill: #252a33;"/>
                </g>
              </g>
            </g>
            <g>
              <path d="m148.9463,57.0675c-.9415.2576-1.7267.6855-2.4252,1.32-.0047-.7283.0645-1.4354.2295-2.1622.0473-.2085-.1567-.3422-.3384-.2602-1.9101.8629-4.7196,1.9524-5.9256,3.8984-.0623-2.1633.4819-5.53,3.0884-5.3509.1793.0123.2491-.2579.0919-.339-.8098-.4176-1.6317-.7694-2.519-.9904-1.3653-.34-1.4941-.3408.1353-1.1569.069-.0345.0205-.1539-.0533-.1262-.6892.2587-1.2551.5893-1.8157,1.0683-.1167.0997-.0091.2541.1115.2694,1.1721.1482,2.2363.44,3.2841.9184-2.5167.397-2.9772,4.589-2.727,6.6003.0317.255.3717.3279.461.0624.7282-2.1634,3.6493-3.3465,5.6804-4.2634-.1327.7736-.1785,1.5197-.121,2.3288.0122.1714.2336.3003.3659.1515.7112-.8003,1.5385-1.3372,2.5639-1.6531.2003-.0617.1171-.3711-.0869-.3153Z" style="fill: #252a33;"/>
              <path d="m38.4761,69.9447c-.0633-.1011-.2391-.0929-.2673.035-.0937.4242-.7834,2.9659-1.0611,2.7121-.2365-.2161-.3502-1.5386-.4789-1.8958-.143-.397-.3129-.7817-.5033-1.158-.946-1.8699-2.4208-3.366-4.2433-4.3877-.1212-.0679-.2689.0702-.1939.1939.6696,1.1035,1.1769,2.2522,1.5779,3.4799.0284.0869.1604.0517.1377-.0379-.2327-.9147-.6378-1.7352-.9435-2.6161-.195-.5619-.4104-.3509-.0911-.3969.378-.0544,1.1869.8888,1.5009,1.1933,1.6985,1.6474,2.7211,3.8109,3.0052,6.1515.0183.151.1836.195.2759.0748.3191-.4157.5693-.8141.767-1.3025.0734-.1814.2988-1.3409.425-1.4432.332-.2688,1.2947,3.0276,1.3635,3.3767.5212,2.6461.2228,5.352.0028,8.0115-.0121.1466.2083.1409.2256,0,.4969-4.0397.7489-8.4052-1.4991-11.9906Z" style="fill: #252a33;"/>
              <path d="m68.9805,84.7615c-2.0206.067-3.7425.7106-5.2936,2.0177-.0852.0718-.0132.2104.0876.2114.5105.0049,1.2022-.0504,1.7012.076.8287.21.5429.3278.0217.7559-.7369.6054-1.448,1.2438-2.1066,1.9343-1.202,1.2601-2.1723,2.6772-2.8608,4.2791-.0384.0894.0267.2245.1414.184.253-.0893,1.9399-.7945,2.0224-.6681-.0906-.1388-.7406,1.903-.7475,1.9487-.0175.1158.1555.1692.1799.0495.177-.8705.4891-1.5511,1.0793-2.2362.0708-.0822.0054-.2396-.1151-.1977-.3594.1247-1.8869.8489-2.1395.573-.1598-.1745,1.1452-1.9745,1.311-2.2,1.2184-1.6568,2.7783-3.0332,4.3991-4.2825.0709-.0546.0864-.2017-.0288-.2205-.3856-.0628-.7681-.1251-1.1566-.1655-.7715-.0803-1.5329.1044-.6079-.6361,1.0885-.8714,2.7599-1.2341,4.1127-1.3195.0661-.0042.0672-.1058,0-.1036Z" style="fill: #252a33;"/>
              <path d="m156.2904,71.2069c-.042-.0549-.1364-.004-.0954.0558.6622.9668,1.196,1.9946,1.5156,3.128.0866.3072.4527,1.7968.3296,1.8295-.3289.0873-.8296-.677-1.0209-.8717-.1069-.1088-.2865.0029-.2505.1459.445,1.7704.7116,3.5682.7178,5.3961.0007.2163.021,2.4104-.1324,2.4393-.1069.0201-.6703-1.3572-.7475-1.5231-.0647-.1391-.2864-.0672-.2827.0766.0575,2.2186-.5511,4.1973-1.7987,6.0282-.1068.1566.145.2996.2524.1476.7987-1.13,1.3717-2.3548,1.6553-3.7145.1026-.4919.0446-1.188.1992-1.6498.0072-.0215.0085-.0371.0128-.0558.0157.0282.0316.0566.057.0907.2512.3363.4232.9118.5956,1.283.0715.154.2668.0533.2834-.0767.2202-1.7246.2745-3.4481.0943-5.18-.0648-.622-.1549-1.2392-.2738-1.8533-.246-1.2707-.1183-.8603.6985-.0388.0835.084.2576.0262.2475-.1025-.1621-2.0745-.7879-3.8927-2.0572-5.5543Z" style="fill: #252a33;"/>
              <path d="m136.7963,113.4906c-2.7986,2.3215-5.9152,4.0724-9.361,5.2403-.1363.0462-.2265.2101-.1399.344,1.0699,1.6544,1.8705,3.4406,2.3059,5.3669.0929.4109.6707,2.8899.392,3.0257-.1821.0887-1.0428-.5399-1.336-.6817-.1099-.0531-.2018.0989-.0964.1651.5503.3453,1.0399.7332,1.491,1.2008.1026.1065.2865.0246.2878-.1192.0142-1.7232-.196-3.4129-.7038-5.0647-.2267-.7374-.5075-1.4595-.8345-2.1584-.4221-.9024-1.2398-1.4713-.2074-1.9775,1.4137-.6931,2.8857-1.1839,4.2665-1.9707,1.5248-.8689,2.951-1.8842,4.2924-3.014.2491-.2098-.1089-.5619-.3566-.3565Z" style="fill: #252a33;"/>
              <path d="m89.7354,126.9796c-3.7606.2116-7.2084-.3174-10.8323-1.2969-.0766-.0207-.1328.0977-.0558.1325,3.3334,1.512,7.2626,1.9848,10.8881,1.6134.2819-.0289.2928-.4655,0-.449Z" style="fill: #252a33;"/>
              <path d="m63.5675,160.2215c-.4233-1.3851-2.0979-2.2735-3.4854-1.9684-.1464.0322-.1133.2629.0352.2601,1.4309-.0274,2.4159.6313,3.0989,1.8564.1052.1887.4157.062.3513-.1481Z" style="fill: #252a33;"/>
              <path d="m65.3014,156.9661c-.9681-1.9789-3.3594-1.7233-5.1437-1.2498-.1386.0368-.078.2336.0581.211,1.6684-.278,3.7895-.5438,4.6939,1.2677.1306.2617.5193.0321.3916-.2289Z" style="fill: #252a33;"/>
              <path d="m82.0643,161.0527c-1.2412-.9185-3.0452-1.1224-4.4669-.5335-.1328.055-.0866.2508.0606.2198,1.5498-.3267,2.8228-.107,4.1949.6755.2399.1368.4235-.205.2114-.3619Z" style="fill: #252a33;"/>
              <path d="m78.3456,157.2615c-.0875.0491-.0284.2033.0701.1662.8843-.3327,3.4207-.6363,3.6549.6549.0445.2448.4237.1806.4251-.0575.0112-1.8207-3.1585-1.3202-4.1502-.7636Z" style="fill: #252a33;"/>
              <path d="m132.1324,161.3663c-.0107-.014-.0213-.028-.032-.042-.0575-.0756-.1388-.1178-.2263-.1038-.1923-.2072-.4721-.7537-.6129-.9085-.2706-.2977-.582-.565-.9297-.7692-.7242-.4254-1.5553-.5421-2.3562-.2934-.1485.0462-.0867.26.0636.2309,1.094-.2116,2.1027.2441,2.8288,1.0612.2813.3165.5517,1.0907.9883,1.1994.0895.0223.2152-.0129.2569-.1046.0064-.0141.0129-.0283.0193-.0424.031-.0682.0507-.161,0-.2276Z" style="fill: #252a33;"/>
              <path d="m128.0921,156.2361c-.1477.0585-.0928.2915.0673.2442,1.316-.3884,4.3875-.7252,4.552,1.3248.0232.2888.4696.296.456,0-.111-2.3918-3.5134-2.1875-5.0753-1.569Z" style="fill: #252a33;"/>
              <path d="m152.7319,157.3282c-.8408-1.2728-3.3216-.571-4.3793-.0037-.1374.0737-.0432.3126.1082.2567,1.1224-.415,2.9228-.8962,3.9221.0163.1782.1627.4943-.0493.3489-.2693Z" style="fill: #252a33;"/>
              <path d="m152.3084,153.7918c-1.2832-1.0764-3.65-.7519-5.0348-.0896-.0879.042-.0261.1887.0665.1578.6992-.2333,1.4131-.3873,2.154-.3829.4097.0024.8204.0478,1.2201.1375.3931.0882.8416.3279,1.2487.2393-.2932.0638-.161.4797.1212.4396.0304-.0043.0608-.0086.0913-.0129.0787-.0112.1397-.0916.1616-.1616.0105-.0336.0209-.0671.0313-.1007.0228-.0733.0006-.1758-.0599-.2265Z" style="fill: #252a33;"/>
              <path d="m72.5337,129.5131c-.0053-.0382-.0721-.0296-.0679.0092.1342,1.2354.1987,2.4752.1478,3.7178-.0158.3865.1249,1.2026-.2926,1.3096-.1061.0272-1.012-1.3686-1.0767-1.4558-.0734-.0987-.2632-.0802-.2552.0691.0694,1.3022-.1789,2.5394-.6419,3.7541-.1332.3492-.5866,1.8836-.92,2.0258-.3573.1524-.3721-1.2235-.3819-1.311-.021-.1873-.291-.1965-.2987,0-.0536,1.371-.5311,2.4548-1.419,3.4842-.1005.1165.0596.2825.1709.1709.6751-.6764,1.1551-1.4558,1.3892-2.3883.023-.08.0392-.1612.0567-.2423.0654.3022.1214.6106.2147.9009.0362.1125.209.1541.2688.0351.6348-1.2648,1.2779-2.5484,1.6183-3.9299.0919-.3728.0661-1.3668.2401-1.6702.0437-.0762.0644-.1337.0727-.1766.033.0392.0907.0873.192.1412.2829.1506.7401.9764.9133,1.2039.0737.0969.2203.0666.2299-.0623.1398-1.8796.1015-3.7192-.1605-5.5857Z" style="fill: #252a33;"/>
              <path d="m82.961,136.6903c-.0231-.0613-.1215-.0364-.0999.0276.3683,1.0882.6212,2.1936.6899,3.3447.0131.2199.1374.9736.0084,1.1503-.6647.9102-1.1114-.1138-1.3919-.4981-.1025-.1403-.3071-.0565-.2772.1168.1705.9921.2925,1.9872.3214,2.9939.0167.5773.2832,3.1011-.5896.9708-.0789-.1926-.3688-.1254-.3195.0881.2952,1.2781.2023,2.4569-.2726,3.6692-.0778.1989.2425.2848.3197.0882.3725-.9489.5137-1.8656.4354-2.8203.1173.1871.2433.3715.3911.5605.0952.1219.2676.0088.2772-.1149.071-.9157.1033-1.8286.0588-2.7467-.0156-.3225-.3845-1.8472-.2327-2.1467.0616.0823.1231.1647.1846.247.153.1628.245.4046.4358.5339.1823.1236.2441.3146.5472.1989.3537-.135.2936-.5495.334-.8533.2097-1.5808-.2712-3.3542-.8202-4.8099Z" style="fill: #252a33;"/>
              <path d="m128.1836,137.1907c-.4734-1.6718-1.0249-3.2763-1.8156-4.8261-.0348-.0682-.132-.0084-.1014.0592.5296,1.1715,1.1429,2.4537,1.362,3.7343.1085.6338.3048.7181-.4286.152-.4894-.3778-.9481-.8046-1.4193-1.2045-.1279-.1085-.3777-.0094-.3097.1802.4454,1.2417.7757,2.4905.9435,3.8016.0299.234.2625,1.5784.0918,1.6541-.1079.0478-1.1639-1.2265-1.2804-1.3517-.1272-.1368-.3413.0072-.3011.1752.3897,1.6288.5123,3.2203.4311,4.8869-.0104.2125.3155.2101.3292,0,.0968-1.4728-.0063-2.8959-.2779-4.3282.4003.4411.801.8818,1.203,1.3216.1096.1199.3182.0253.3169-.1313-.0167-1.8981-.3086-3.7216-.8908-5.5144.6221.5195,1.2441,1.0392,1.8724,1.551.1198.0976.3229.0103.2747-.1599Z" style="fill: #252a33;"/>
              <path d="m138.6603,126.4817c-.5142-1.2049-1.1185-2.3585-1.86-3.4404-.0408-.0597-.55-.8543-.6208-.8103.2857-.1777,1.6605.9081,1.9235,1.11.1234.0947.2429-.0811.1914-.1915-.7099-1.5251-1.6179-2.8329-2.9031-3.928-.0535-.0456-.1306.0288-.0782.0781.877.8243,2.0632,1.9574,2.3998,3.1622.2105.7534-.0187.1676-.5863-.1406-.4148-.2252-.8492-.383-1.297-.5294-.163-.0533-.237.1492-.1509.2593.9414,1.2031,1.7232,2.4817,2.3674,3.8533-.4301-.3979-.8608-.795-1.2987-1.1841-.1496-.1329-.3684.0813-.2214.2214.6173.5884,1.25,1.1607,1.8784,1.7373.1442.1323.3263-.0326.2559-.1975Z" style="fill: #252a33;"/>
              <path d="m142.6296,145.5606c-.6756-1.2065-1.4595-2.32-2.4203-3.3166-.0781-.081-.1936.0387-.1221.1221.7363.861,1.3884,1.7648,1.9478,2.7402-.3397-.2304-.6941-.4329-1.0795-.6078-.1396-.0634-.2841.0666-.2111.2111.3578.7082.7415,1.4004,1.1412,2.0848-.2325-.1447-.4335-.3201-.627-.5476-.1298-.1526-.3414.0662-.2182.2182.3385.4179.7003.6632,1.2004.8542.1314.0502.2442-.1205.1776-.231-.417-.6911-.8072-1.3959-1.1818-2.1101.4091.2157.7862.4638,1.1588.7632.1261.1013.3221-.0235.2341-.1806Z" style="fill: #252a33;"/>
            </g>
          </g>
        </g>
      </g>
    </g>
  </g>
</svg>