<?xml version="1.0" encoding="utf-8"?>
<!-- Generator: Adobe Illustrator 27.4.0, SVG Export Plug-In . SVG Version: 6.00 Build 0)  -->
<svg version="1.1" id="Layer_2_00000021803443442329272330000009459010521882167974_"
	 xmlns="http://www.w3.org/2000/svg" xmlns:xlink="http://www.w3.org/1999/xlink" x="0px" y="0px" viewBox="0 0 93.9 80.4"
	 style="enable-background:new 0 0 93.9 80.4;" xml:space="preserve">
<style type="text/css">
	.st0{fill:#E0000B;}
	.st1{fill:#FFFFFF;}
</style>
<g id="button_-_ok">
	<g id="erase_all">
		<path class="st0" d="M90.8,48c5.2-14,6-36.4-14.1-44.3C56.6-4.3,11.6-0.8,0.9,29C-8.9,56.2,64.5,118.3,90.8,48z"/>
		<g>
			<path class="st1" d="M75.8,19.3c0,2.8-0.8,4.7-2.3,6.4c-2,2.2-4.2,4.2-6.3,6.4c-2.9,2.9-5.8,5.8-8.7,8.7c-0.2,0.2-0.2,0.4,0,0.6
				c6.9,6.9,13.8,13.8,20.7,20.7c0.1,0.1,0.1,0.1,0.2,0.2c0.1,0.1,0.1,0.2,0,0.4c-0.9,0.9-1.8,1.8-2.7,2.7c-0.2,0.2-0.3,0.1-0.4,0
				c-1.6-1.6-3.3-3.3-4.9-4.9C54.9,44,38.3,27.4,21.8,10.9c-0.5-0.5-0.5-0.5,0-1c0.8-0.8,1.6-1.5,2.3-2.3c0.2-0.2,0.3-0.2,0.5,0
				c2,2,3.9,3.9,5.9,5.9c4,4,8.1,8.1,12.1,12.1c1,1,2,2,3,3c0.2,0.2,0.3,0.2,0.5,0c4.9-5,9.8-9.9,14.8-14.8c1.4-1.3,3-2.2,4.8-2.5
				c2.2-0.3,4.2,0.1,6.1,1.3C74.4,14.2,75.7,16.7,75.8,19.3z M65.9,27.2c0-0.1-0.1-0.2-0.2-0.3c-1.9-1.9-3.9-3.9-5.8-5.8
				c-0.2-0.2-0.2-0.2-0.4,0c-0.3,0.3-0.5,0.5-0.8,0.8c-3.2,3.2-6.4,6.3-9.5,9.6c-0.2,0.2-0.3,0.3-0.1,0.5c1.9,1.9,3.9,3.9,5.8,5.8
				c0.2,0.2,0.3,0.2,0.4,0c0.8-0.8,1.7-1.7,2.6-2.5c2.6-2.6,5.2-5.2,7.9-7.8C65.8,27.4,65.9,27.4,65.9,27.2z M71.7,19.8
				c0-0.1,0-0.2,0-0.4c-0.2-1.4-1-2.4-2-3.2c-1.6-1.4-3.4-1.4-5.1-0.2c-0.6,0.5-1.1,1-1.6,1.6c-0.2,0.2-0.2,0.4,0,0.6
				c0.8,0.8,1.5,1.5,2.3,2.3c1.1,1.2,2.2,2.3,3.4,3.4c0.2,0.1,0.3,0.3,0.5,0.1c0.5-0.5,1-1,1.5-1.5C71.2,21.8,71.7,20.9,71.7,19.8z"
				/>
			<path class="st1" d="M42.7,37.7c0,0.1-0.1,0.2-0.2,0.2c-1.3,1.3-2.6,2.6-3.9,4c-1.5,1.5-2.9,3-4.4,4.5c-0.2,0.2-0.3,0.3,0,0.5
				c2.5,1.4,4.4,3.3,5.8,5.8c0.1,0.3,0.3,0.3,0.5,0.1c2.7-2.8,5.5-5.4,8.2-8.2c0.5-0.5,0.5-0.5,0.9,0c0.7,0.7,1.5,1.5,2.2,2.2
				c0.2,0.2,0.2,0.3,0,0.5c-3.8,3.9-7.7,7.7-11.6,11.6c-0.4,0.4-0.9,0.7-1.5,0.8c-1.9,0.3-3.8,0.7-5.6,1.1c-2.4,0.5-4.7,1-7.1,1.4
				c-0.5,0.1-1,0.2-1.4,0.3c-0.3,0.1-0.4,0-0.3-0.3c0.2-1,0.4-2,0.6-3c0.7-3.6,1.4-7.1,2.1-10.7c0-0.1,0-0.1,0-0.2
				c0-0.8,0.4-1.4,1-2c2.7-2.6,5.3-5.3,8-8c1.1-1.1,2.3-2.3,3.4-3.4c0.2-0.2,0.3-0.2,0.4,0c0.9,0.9,1.7,1.7,2.6,2.6
				C42.7,37.5,42.7,37.6,42.7,37.7z M30,57c0.1,0,0.1,0,0.2,0c2.1-0.4,4.2-0.8,6.3-1.3c0.3-0.1,0.2-0.2,0.1-0.4
				c-1.1-2.3-2.8-4.1-5.1-5.1c-0.3-0.1-0.4,0-0.4,0.2c-0.1,0.8-0.3,1.6-0.5,2.4c-0.3,1.3-0.5,2.5-0.8,3.8C29.8,56.8,29.7,57.1,30,57
				z"/>
		</g>
	</g>
</g>
</svg>
