<?xml version="1.0" encoding="UTF-8"?>
<svg xmlns="http://www.w3.org/2000/svg" viewBox="0 0 186.3565 186.3565">
  <g style="isolation: isolate;">
    <g id="Layer_2" data-name="Layer 2">
      <g id="lvl_1_-_tamplo" data-name="lvl 1 - tamplo">
        <g>
          <rect width="186.3565" height="186.3565" style="fill: #7eab55;"/>
          <g>
            <path d="m160.4302,38.8156s-10.713,33.7629-1.5341,48.4152l-9.3942-10.4431-7.3469-15.1239,18.2752-22.8483Z" style="fill: #664844;"/>
            <polygon points="156.1471 94.0845 140.9429 172.7893 45.3574 174.7739 30.9706 95.4706 38.3982 95.393 38.4134 95.3927 146.7402 94.1875 156.1471 94.0845" style="fill: #f8d9c3;"/>
            <g style="mix-blend-mode: soft-light;">
              <polygon points="45.4905 138.3162 41.8223 98.944 62.9144 98.5062 69.9424 136.8417 69.4159 98.926 116.2561 97.8817 118.9381 135.9976 122.4989 97.824 143.8799 97.3801 140.7701 136.681 151.1797 90.3378 34.1272 93.2993 45.4905 138.3162"/>
            </g>
            <path d="m65.6652,94.6476l8.2851,79.5328,43.8737-.9108,2.2957-79.2254-7.2495.08-.39,19.9495s-4.2375-14.8875-20.359-12.9764-17.4922,11.3976-17.4922,11.3976l-1.4438-17.9308-7.52.0835Z" style="fill: #be776b;"/>
            <path d="m112.985,125.8942l.08,47.474-32.3886.6726-5.139-52.3425s1.5344-5.2045,5.5913-9.4177c2.4791-2.5687,5.9019-4.7888,10.4831-5.1908.9803-.0971,2.0087-.103,3.0849-.018,1.1069.0844,2.1394.278,3.1275.5491,3.38.8966,6.074,2.7595,8.1616,4.9724,5.3345,5.5687,6.9992,13.3009,6.9992,13.3009Z" style="fill: #664844;"/>
            <path d="m75.8498,124.9154l4.8266,49.1254-5.059-48.4913s.0717-.2317.2324-.6341Z" style="fill: #664844;"/>
            <path d="m113.0573,129.3769l.0078,43.9913-.0745-44.2507c.0493.1678.0667.2594.0667.2594Z" style="fill: #664844;"/>
            <g style="mix-blend-mode: soft-light; opacity: .5;">
              <path d="m112.985,125.8942c-5.1787-24.0517-31.3844-24.7634-37.4476-4.1959.6779,6.9818-.8091,1.3331,5.685-4.8914.488-.4688-.1089-4.6827,5.5194,53.6541l7.274-.8109-2.216-57.6704c1.8992-.1775,4.1264-.0279,6.1249.4895.3369.0816-.0484-4.087,4.0631,55.9716l7.0423-.1461-2.7915-51.0718c7.5858,7.5151,6.7603,16.9595,6.7463,8.6713Z"/>
            </g>
            <g>
              <g style="mix-blend-mode: soft-light;">
                <path d="m48.9731,121.814s-1.1193-17.8576,6.6914-18.1167c7.8104-.259,7.9646,17.6305,7.9646,17.6305l-14.656.4861Z"/>
              </g>
              <path d="m63.2175,126.3974l-13.8584.4598c-1.0706.0354-2.0088-2.0547-2.0435-3.0977h0c-.0344-1.043.8054-1.9172,1.876-1.9526l14.2164-.4716c1.0706-.0357,1.9666.7812,2.001,1.8242h0c.0348,1.043-1.1209,3.2025-2.1915,3.2379Z" style="fill: #72576e;"/>
              <g style="mix-blend-mode: soft-light;">
                <path d="m64.8753,121.9245c-.0633-.0062-.1334-.004-.2035-.0016l-16.7026.5538c-.0701.0025-.1402.0047-.2029.0155.0199-.0351.0472-.0614.0741-.0881.3394-.3527.8162-.582,1.3489-.5997l14.2205-.4716c.5749-.0189,1.1019.211,1.4655.5916Z" style="fill: #fff;"/>
              </g>
              <path d="m49.5564,121.7948s-1.0222-16.1945,6.1668-16.433c7.1887-.2386,7.3224,15.9854,7.3224,15.9854l-13.4893.4477Z" style="fill: #664844;"/>
              <g style="mix-blend-mode: soft-light; opacity: .5;">
                <path d="m51.4665,121.7312s-.7936-13.4368,4.3594-13.6077c5.1527-.1709,5.3093,13.2873,5.3093,13.2873l-9.6687.3205Z"/>
              </g>
              <path d="m51.9737,121.7144s-.7052-11.8776,3.9068-12.0305c4.6119-.1529,4.7472,11.7436,4.7472,11.7436l-8.6539.287Z" style="fill: #edb44f;"/>
              <path d="m60.3866,117.1035c-.3583-.4747-.7672-.739-1.195-.7247-1.1556.0382-2.0299,2.0997-1.9473,4.5809.0062.1908.0127.3816.0474.5714l-1.983.0658c.0223-.1917.0161-.3825.0096-.5733-.0822-2.4812-1.0911-4.4801-2.2467-4.4419-.4421.0146-.846.3236-1.1718.8379.0701-.9056.1809-1.8645.3503-2.7909.3202.6149.8184.9977,1.375.9794.9555-.032,1.6995-1.2896,1.6486-2.8166-.0378-1.1454-.5122-2.1021-1.1544-2.5151.4697-.4846,1.0601-.7647,1.759-.788.7132-.0236,1.3216.2339,1.8366.6859-.614.4374-1.0092,1.4404-.9716,2.5684.0506,1.527.8761,2.7328,1.8319,2.7009.542-.018,1.0002-.4151,1.2943-1.0154.2296.8956.3887,1.8108.5172,2.6751Z" style="fill: #664844;"/>
              <g style="mix-blend-mode: soft-light; opacity: .5;">
                <path d="m48.9359,130.2431c1.2397-.2122,2.4794-.4247,3.7191-.6369,1.7776-.3043,3.5609-.6093,5.3587-.6338,1.8474-.0251,3.711.2454,5.5355-.0844.8926-.1613,1.9079-.6332,2.1186-1.6988.0651-.3301.0406-.6766.0161-1.016-.072-.9872-.1436-1.9743-.2156-2.9615-3.2869.5711-6.5977.9543-9.9181,1.1485-1.4894.0869-3.0021.1334-4.4565-.2947-.8761-.2578-3.4507-1.8229-3.7225.0859-.0897.6307,1.0964,6.1721,1.5648,6.0917Z"/>
              </g>
            </g>
            <g>
              <g style="mix-blend-mode: soft-light;">
                <path d="m124.1857,120.2523s-1.1193-17.8573,6.6911-18.1164c7.8107-.2594,7.9649,17.6305,7.9649,17.6305l-14.656.4858Z"/>
              </g>
              <path d="m138.4297,124.836l-13.8581.4595c-1.0706.0357-2.0091-2.0544-2.0435-3.0974h0c-.0347-1.043.8054-1.9172,1.876-1.9529l14.2161-.4716c1.0706-.0354,1.9666.7812,2.0013,1.8242h0c.0344,1.043-1.1212,3.2025-2.1918,3.2382Z" style="fill: #72576e;"/>
              <g style="mix-blend-mode: soft-light;">
                <path d="m140.0879,120.3631c-.0636-.0065-.1337-.004-.2038-.0019l-16.7023.5541c-.0701.0022-.1402.0047-.2032.0152.0199-.0347.0472-.0614.0745-.0878.3394-.3527.8159-.582,1.3489-.5997l14.2201-.4716c.5752-.0192,1.1023.211,1.4659.5916Z" style="fill: #fff;"/>
              </g>
              <path d="m124.7689,120.2331s-1.0225-16.1945,6.1665-16.433c7.189-.2383,7.3227,15.9857,7.3227,15.9857l-13.4892.4474Z" style="fill: #664844;"/>
              <g style="mix-blend-mode: soft-light; opacity: .5;">
                <path d="m126.6787,120.1698s-.7933-13.4371,4.3594-13.6081c5.1527-.1709,5.3094,13.2873,5.3094,13.2873l-9.6687.3208Z"/>
              </g>
              <path d="m127.1859,120.153s-.7052-11.8779,3.9068-12.0308c4.6119-.1529,4.7472,11.7436,4.7472,11.7436l-8.6539.2873Z" style="fill: #edb44f;"/>
              <path d="m135.5991,115.5417c-.3586-.4743-.7672-.7387-1.1953-.7247-1.1553.0385-2.0295,2.0997-1.9473,4.5809.0065.1908.0127.3819.0475.5718l-1.9827.0658c.022-.192.0158-.3828.0096-.5736-.0825-2.4812-1.0914-4.4801-2.2467-4.4416-.4424.0146-.8463.3233-1.1717.8379.0698-.9056.1809-1.8648.35-2.7909.3204.6146.8187.9977,1.3749.9791.9558-.0316,1.6995-1.2896,1.6489-2.8163-.0382-1.1454-.5125-2.1024-1.1544-2.5154.4694-.4846,1.0598-.7647,1.7587-.7877.7135-.0239,1.3219.2339,1.8366.6859-.614.4371-1.0089,1.4404-.9716,2.5681.0509,1.527.8761,2.7328,1.8319,2.7012.542-.018,1.0002-.4154,1.2943-1.0157.2299.8956.3887,1.8108.5174,2.6751Z" style="fill: #664844;"/>
              <g style="mix-blend-mode: soft-light; opacity: .5;">
                <path d="m124.1484,128.6813c1.2397-.2122,2.4794-.4244,3.7191-.6366,1.7773-.3046,3.5605-.6093,5.3583-.6338,1.8474-.0251,3.7113.2451,5.5355-.0844.8925-.1613,1.9079-.6335,2.1186-1.6991.0651-.3298.0409-.6763.0161-1.016-.0717-.9872-.1436-1.9743-.2153-2.9615-3.2869.5711-6.598.9546-9.9185,1.1485-1.4891.0872-3.0018.1334-4.4562-.2944-.8764-.2581-3.451-1.8229-3.7225.0856-.0897.6307,1.0961,6.1721,1.5648,6.0917Z"/>
              </g>
            </g>
            <polygon points="19.0136 95.6062 100.2515 22.0376 164.972 93.9852 19.0136 95.6062" style="fill: #f8d9c3;"/>
            <path d="m66.3524,78.5139s9.8052-24.6443,27.629-25.0141c17.8238-.3701,24.7945,23.9258,24.7945,23.9258l-52.4235,1.0883Z" style="fill: #664844;"/>
            <path d="m91.2172,57.4308l-1.0985,17.6585-17.2911.3589s7.1295-15.9605,18.3897-18.0174Z" style="fill: #edb44f;"/>
            <path d="m96.4418,58.7623l-.4474,16.2047,16.4529-.3416s-5.0891-12.6932-16.0055-15.8631Z" style="fill: #edb44f;"/>
            <polygon points="43.7218 55.6736 53.1997 64.6477 62.0451 56.6372 55.8578 48.2383 43.7218 55.6736" style="fill: #664844;"/>
            <g style="mix-blend-mode: soft-light; opacity: .5;">
              <polygon points="43.7218 55.6736 53.1997 64.6477 62.0451 56.6372 55.8578 48.2383 43.7218 55.6736"/>
            </g>
            <polygon points="40.9096 58.1356 59.3535 46.7274 53.3148 39.0147 34.8678 50.2095 40.9096 58.1356" style="fill: #664844;"/>
            <polygon points="51.3716 174.6492 45.3574 174.7739 30.9706 95.4706 38.3982 95.393 38.4134 95.3927 51.3716 174.6492" style="fill: #be776b;"/>
            <polygon points="156.1471 94.0845 140.9429 172.7893 135.4809 172.9029 146.7402 94.1875 146.7535 94.095 156.1471 94.0845" style="fill: #be776b;"/>
            <path d="m94.4312,125.9848s-6.6864-9.0057-4.2297-10.2324c2.4564-1.2267,4.0644,2.2672,4.0644,2.2672,0,0,1.5375-2.9941,3.3735-2.6615,1.8356.3326,1.0967,5.573-3.2081,10.6267Z" style="fill: #be776b;"/>
            <polygon points="70.9513 139.8907 67.7152 140.0805 48.5751 141.184 45.3229 141.3745 44.8064 138.3305 48.0583 138.1403 67.3765 137.0176 70.6122 136.8277 70.9513 139.8907" style="fill: #be776b;"/>
            <polygon points="70.1906 139.1849 67.4481 142.3884 52.2076 160.2032 50.184 162.5476 49.4791 162.5932 48.9859 159.5486 48.9502 159.3038 51.5577 156.2567 66.9927 138.1921 68.0568 136.9577 69.9424 136.8417 70.1906 139.1849" style="fill: #be776b;"/>
            <polygon points="72.5338 161.1168 69.1981 158.6688 49.575 144.2944 46.0365 141.6972 45.9834 141.3606 45.4905 138.3162 46.5176 138.2489 48.8714 139.9806 68.7598 154.5489 72.0948 156.9814 72.2111 158.1457 72.5338 161.1168" style="fill: #be776b;"/>
            <polygon points="72.5512 161.2083 69.4851 161.3948 52.5603 162.4064 49.4791 162.5932 48.9859 159.5486 52.0674 159.3621 69.1606 158.3318 72.2111 158.1457 72.5512 161.2083" style="fill: #be776b;"/>
            <polygon points="52.5603 162.4064 49.8458 162.5547 49.0404 162.6022 48.4861 159.5591 48.4461 159.3144 45.1703 141.7152 45.1107 141.3789 44.5567 138.3358 45.7296 138.2654 48.0766 138.1397 48.4132 139.9903 48.6306 141.1828 49.2039 144.3022 51.4333 156.2592 52.0063 159.3634 52.1639 160.2041 52.5603 162.4064" style="fill: #be776b;"/>
            <polygon points="73.385 161.191 69.8242 161.3879 69.5 158.6622 69.4575 158.3256 69.0045 154.5436 67.5223 142.3871 67.2427 140.0905 67.0073 138.1918 66.8764 137.0282 68.2473 136.9537 70.4372 136.8315 70.7177 139.174 70.8039 139.8938 72.8694 156.9653 73.0007 158.1293 73.3652 161.0994 73.385 161.191" style="fill: #be776b;"/>
            <polygon points="118.8379 139.04 121.4959 139.0934 137.2167 139.39 139.8878 139.4433 140.1344 136.4123 137.4633 136.359 121.5961 136.0509 118.9381 135.9976 118.8379 139.04" style="fill: #be776b;"/>
            <polygon points="137.8139 156.6302 137.6792 157.5386 137.2911 160.2941 135.6236 158.3331 134.9154 157.4883 121.4109 141.3754 118.8611 138.328 118.9353 135.9932 120.5786 136.036 121.5701 137.2127 135.9565 154.4124 137.8139 156.6302" style="fill: #be776b;"/>
            <polygon points="118.1277 160.1095 120.8637 157.5466 136.9598 142.4973 140.0172 139.4228 140.0432 139.0878 140.5979 136.3612 139.2437 136.3894 137.3135 138.2021 120.9999 153.4544 118.2636 156.002 118.2317 157.1579 118.1277 160.1095" style="fill: #be776b;"/>
            <polygon points="117.5225 160.2131 120.5783 160.2584 120.6872 157.5504 120.703 157.2156 120.8566 153.4575 121.3743 141.3764 121.4714 139.094 121.5558 137.2072 121.5961 136.0509 120.4197 136.0348 118.5404 136.0056 118.4451 138.3336 118.416 139.0487 117.7027 156.0138 117.6624 157.1697 117.534 160.1216 117.5225 160.2131" style="fill: #be776b;"/>
            <polygon points="135.0922 160.4712 137.9274 160.4126 141.5758 136.341 138.7405 136.3999 135.0922 160.4712" style="fill: #be776b;"/>
            <g style="mix-blend-mode: soft-light; opacity: .4;">
              <polygon points="55.2367 167.8458 50.3332 168.2546 49.4791 162.5932 54.4301 162.2755 55.2367 167.8458"/>
            </g>
            <g style="mix-blend-mode: soft-light; opacity: .8;">
              <polygon points="67.0355 166.8794 55.2367 167.8458 54.4301 162.2755 66.4941 161.503 67.0355 166.8794"/>
            </g>
            <g style="mix-blend-mode: soft-light; opacity: .4;">
              <polygon points="73.1344 166.3846 67.0355 166.8794 66.4941 161.503 72.5338 161.1168 73.1344 166.3846"/>
            </g>
            <g style="mix-blend-mode: soft-light; opacity: .4;">
              <polygon points="60.5619 174.4584 51.3716 174.6492 50.3332 168.2546 60.0022 167.4552 60.5619 174.4584"/>
            </g>
            <g style="mix-blend-mode: soft-light; opacity: .8;">
              <polygon points="73.9562 174.1801 60.5619 174.4584 60.0022 167.4552 73.1344 166.3846 73.9562 174.1801"/>
            </g>
            <g style="mix-blend-mode: soft-light; opacity: .4;">
              <polygon points="124.1506 160.2137 123.9971 166.1268 118.0285 166.2505 118.1312 160.1085 124.1506 160.2137"/>
            </g>
            <g style="mix-blend-mode: soft-light; opacity: .8;">
              <polygon points="133.5016 160.3729 133.08 165.9381 123.9971 166.1268 124.1506 160.2137 133.5016 160.3729"/>
            </g>
            <g style="mix-blend-mode: soft-light; opacity: .4;">
              <polygon points="137.2173 160.4337 136.4861 165.8674 133.08 165.9381 133.5016 160.3729 137.2173 160.4337"/>
            </g>
            <g style="mix-blend-mode: soft-light; opacity: .8;">
              <polygon points="131.2695 165.9757 130.8473 172.999 117.8212 173.2696 118.0285 166.2505 131.2695 165.9757"/>
            </g>
            <g style="mix-blend-mode: soft-light; opacity: .4;">
              <polygon points="136.4861 165.8674 135.4809 172.9029 130.8473 172.999 131.2695 165.9757 136.4861 165.8674"/>
            </g>
            <path d="m154.6995,48.0202c-4.2551,7.9624-8.7715,19.6145-5.2048,28.7654l-6.222-6.9163-23.7409-26.3993s15.2616,4.6563,28.5535,1.6635c2.8113-.626,5.5538-1.6042,8.0257-3.0521,1.5471-.8919,3.0136-1.9815,4.3222-3.2671,0,0-2.8079,3.742-5.7337,9.2058Z" style="fill: #664844;"/>
            <path d="m152.9039,80.5673l-3.4095-3.7972c-3.567-9.1509.95-20.7875,5.2051-28.7499-2.1468,9.7146-4.4717,24.1606-1.7956,32.5471Z" style="fill: #f8d9c3;"/>
            <polygon points="137.2911 160.2941 137.6792 157.5386 135.6984 157.5029 134.9154 157.4883 120.8801 157.2119 118.2388 157.1592 118.1178 160.201 120.7743 160.2534 135.4542 160.5317 137.2508 160.5711 137.2911 160.2941" style="fill: #be776b;"/>
            <g style="mix-blend-mode: soft-light;">
              <polygon points="35.6787 89.3404 46.4807 83.5536 53.7538 89.7778 52.7003 78.9603 98.9234 33.5609 133.4892 76.8439 138.981 80.8565 144.822 85.7104 122.2855 87.5423 147.763 90.94 154.694 89.7183 150.7403 83.334 124.0547 54.9995 107.6006 34.6544 101.7738 27.7213 97.1448 26.5437 33.0113 86.66 30.8862 91.4072 35.6787 89.3404"/>
            </g>
            <path d="m100.2307,21.2272L19.0136,95.7117l145.954-1.6157L100.2307,21.2272Zm-.0977,7.8681l48.8161,57.9183-113.275,2.3519L100.133,29.0954Z" style="fill: #be776b;"/>
            <path d="m58.5674,93.7358c-.8975.0186-1.7956-.3555-2.4182-1.0979l-12.1227-14.4742c-1.0883-1.2996-.9174-3.2354.3822-4.3234,1.2996-1.0883,3.2339-.9186,4.3234.3822l12.123,14.4742c1.0883,1.2996.917,3.2351-.3825,4.3234-.5569.4666-1.231.7017-1.9051.7157Z" style="fill: #be776b;"/>
            <path d="m127.8973,92.2963c.8975-.0186,1.7795-.4297,2.3705-1.1975l11.5118-14.9647c1.0334-1.3436.7821-3.2705-.5615-4.3039-1.3436-1.0334-3.2693-.7836-4.3039.5615l-11.5118,14.9647c-1.0334,1.3436-.7818,3.2705.5615,4.3039.5758.443,1.2592.6499,1.9333.636Z" style="fill: #be776b;"/>
          </g>
        </g>
      </g>
    </g>
  </g>
</svg>