<?xml version="1.0" encoding="UTF-8"?>
<svg id="Layer_2" data-name="Layer 2" xmlns="http://www.w3.org/2000/svg" viewBox="0 0 186.3963 186.5114">
  <g id="routes">
    <g>
      <path d="m20.3016,140.9573h-10.2376s-10.0243,0-10.0243,0v45.3992s45.3726,0,45.3726,0v-20.2889c0-13.8448-11.2657-25.1103-25.1107-25.1103Z" style="fill: #9fce62;"/>
      <path d="m20.3017,45.1655c66.6676,0,120.9026,54.235,120.9025,120.9023v20.2889s45.192,0,45.192,0V.0001s-186.3564-.0001-186.3564-.0001v45.1654s10.0243,0,10.0243,0h10.2376Z" style="fill: #9fce62;"/>
      <rect x="0" y="45.1654" width=".0397" height="11.4036" style="fill: #e8e8e8;"/>
      <rect x="129.8004" y="186.3566" width="11.4038" height=".1548" style="fill: #e8e8e8;"/>
      <path d="m10.0641,56.569h10.2376c60.3779,0,109.4988,49.121,109.4988,109.4987v20.2889s11.4038,0,11.4038,0v-20.2889c0-66.6672-54.2349-120.9022-120.9025-120.9023h-10.2376s-10.0243,0-10.0243,0v11.4036s10.0243,0,10.0243,0Z" style="fill: #e8e8e8;"/>
      <rect x="0" y="129.5532" width=".0397" height="11.4041" style="fill: #e8e8e8;"/>
      <rect x="45.4123" y="186.3566" width="11.4041" height=".1548" style="fill: #e8e8e8;"/>
      <path d="m56.8164,166.0677c0-20.1346-16.3799-36.5145-36.5148-36.5145h-10.2376s-10.0243,0-10.0243,0v11.4041s10.0243,0,10.0243,0h10.2376c13.845,0,25.1107,11.2655,25.1107,25.1103v20.2889s11.4041,0,11.4041,0v-20.2889Z" style="fill: #e8e8e8;"/>
      <rect x="56.8164" y="186.3566" width="34.2109" height=".1548" style="fill: #283543;"/>
      <rect x="95.5891" y="186.3566" width="34.2112" height=".1548" style="fill: #283543;"/>
      <rect x="0" y="56.569" width=".0397" height="72.9842" style="fill: #283543;"/>
      <path d="m91.0273,184.4385h4.5619v1.9181s34.2112,0,34.2112,0v-20.2889c0-60.3777-49.1209-109.4987-109.4987-109.4987h-10.2376s-10.0243,0-10.0243,0v72.9842s10.0243,0,10.0243,0h10.2376c20.135,0,36.5148,16.3799,36.5148,36.5145v20.2889s34.2109,0,34.2109,0v-1.9181ZM14.7838,95.3423H3.908s0-4.5617,0-4.5617h10.8757s0,4.5617,0,4.5617Zm25.0918,2.7435c-3.8534-1.1089-7.8494-1.8929-11.8719-2.3296l.4901-4.5347c4.2854.4634,8.5394,1.2961,12.6469,2.4811l-1.2651,4.3831Zm55.7136,67.9819v5.8577s-4.5619,0-4.5619,0v-5.8577c0-2.1738-.0977-4.3205-.289-6.4411l4.5437-.4099c.2047,2.2807.3071,4.5837.3071,6.851Zm-34.0111-57.4375c-3.2787-2.3656-6.7754-4.4503-10.3924-6.2052l1.9957-4.1075c3.8489,1.871,7.5683,4.0942,11.0608,6.6065l-2.6641,3.7061Zm16.9012,17.2081c-2.2943-3.3097-4.8913-6.4458-7.7156-9.3236l3.2519-3.1983c3.0115,3.0649,5.7729,6.4012,8.2142,9.9205l-3.7504,2.6014Zm6.0179,10.5038l4.1337-1.9241c1.8046,3.8842,3.2833,7.9604,4.4012,12.1119l-4.4103,1.185c-1.042-3.9023-2.432-7.7287-4.1246-11.3727Z" style="fill: #283543;"/>
      <path d="m51.1856,102.425c3.617,1.7549,7.1137,3.8395,10.3924,6.2052l2.6641-3.7061c-3.4925-2.5124-7.2119-4.7356-11.0608-6.6065l-1.9957,4.1075Z" style="fill: #e8e8e8;"/>
      <path d="m70.7636,116.5146c2.8242,2.8779,5.4213,6.0139,7.7156,9.3236l3.7504-2.6014c-2.4412-3.5192-5.2027-6.8556-8.2142-9.9205l-3.2519,3.1983Z" style="fill: #e8e8e8;"/>
      <path d="m28.0037,95.7562c4.0224.4366,8.0185,1.2207,11.8719,2.3296l1.2651-4.3831c-4.1075-1.1851-8.3614-2.0177-12.6469-2.4811l-.4901,4.5347Z" style="fill: #e8e8e8;"/>
      <path d="m88.6308,134.418l-4.1337,1.9241c1.6926,3.644,3.0826,7.4704,4.1246,11.3727l4.4103-1.185c-1.1179-4.1514-2.5966-8.2277-4.4012-12.1119Z" style="fill: #e8e8e8;"/>
      <rect x="91.0273" y="186.3566" width="4.5619" height=".1548" style="fill: #e8e8e8;"/>
      <rect x="91.0273" y="184.4385" width="4.5619" height="1.9181" style="fill: #283543;"/>
      <path d="m91.0273,166.0677v5.8577s4.5619,0,4.5619,0v-5.8577c0-2.2673-.1024-4.5703-.3071-6.851l-4.5437.4099c.1912,2.1206.289,4.2673.289,6.4411Z" style="fill: #e8e8e8;"/>
      <rect x="3.908" y="90.7807" width="10.8757" height="4.5616" style="fill: #e8e8e8;"/>
    </g>
  </g>
</svg>