<?xml version="1.0" encoding="UTF-8"?>
<svg id="Layer_2" data-name="Layer 2" xmlns="http://www.w3.org/2000/svg" viewBox="0 0 186.5114 186.3962">
  <g id="routes">
    <g>
      <path d="m140.9573,166.0947v10.2376s0,10.0243,0,10.0243h45.3992s0-45.3726,0-45.3726h-20.2889c-13.8448,0-25.1103,11.2657-25.1103,25.1107Z" style="fill: #9fce62;"/>
      <path d="m45.1654,166.0946c0-66.6676,54.235-120.9026,120.9022-120.9026h20.2889s0-45.192,0-45.192H0s0,186.3565,0,186.3565h45.1654s0-10.0243,0-10.0243v-10.2376Z" style="fill: #9fce62;"/>
      <rect x="45.1654" y="186.3566" width="11.4036" height=".0397" style="fill: #e8e8e8;"/>
      <rect x="186.3566" y="45.1921" width=".1548" height="11.4038" style="fill: #e8e8e8;"/>
      <path d="m56.569,176.3322v-10.2376c0-60.3779,49.121-109.4988,109.4987-109.4988h20.2889s0-11.4038,0-11.4038h-20.2889c-66.6672,0-120.9022,54.2349-120.9022,120.9025v10.2376s0,10.0243,0,10.0243h11.4036s0-10.0243,0-10.0243Z" style="fill: #e8e8e8;"/>
      <rect x="129.5532" y="186.3566" width="11.4041" height=".0397" style="fill: #e8e8e8;"/>
      <rect x="186.3566" y="129.5798" width=".1548" height="11.4041" style="fill: #e8e8e8;"/>
      <path d="m166.0676,129.5798c-20.1346,0-36.5144,16.3799-36.5145,36.5148v10.2376s0,10.0243,0,10.0243h11.4041s0-10.0243,0-10.0243v-10.2376c0-13.845,11.2655-25.1107,25.1103-25.1107h20.2889s0-11.4041,0-11.4041h-20.2889Z" style="fill: #e8e8e8;"/>
      <rect x="186.3566" y="95.3689" width=".1548" height="34.2109" style="fill: #283543;"/>
      <rect x="186.3566" y="56.5958" width=".1548" height="34.2112" style="fill: #283543;"/>
      <rect x="56.569" y="186.3566" width="72.9842" height=".0397" style="fill: #283543;"/>
      <path d="m184.4384,95.3689v-4.5619h1.9181s0-34.2112,0-34.2112h-20.2889c-60.3777,0-109.4986,49.1209-109.4987,109.4988v10.2376s0,10.0243,0,10.0243h72.9842s0-10.0243,0-10.0243v-10.2376c0-20.135,16.3799-36.5148,36.5145-36.5148h20.2889s0-34.2109,0-34.2109h-1.9181Zm-89.0961,76.2435v10.8757h-4.5617v-10.8757h4.5617Zm2.7435-25.0918c-1.1089,3.8534-1.8929,7.8494-2.3296,11.8719l-4.5347-.4901c.4634-4.2854,1.2961-8.5394,2.4811-12.6469l4.3831,1.2651Zm67.9819-55.7136h5.8577v4.5619h-5.8578c-2.1738,0-4.3205.0978-6.4411.289l-.4099-4.5437c2.2807-.2047,4.5837-.3071,6.851-.3071Zm-57.4375,34.0111c-2.3656,3.2787-4.4502,6.7754-6.2052,10.3924l-4.1075-1.9957c1.871-3.8489,4.0942-7.5683,6.6065-11.0608l3.7061,2.6641Zm17.2081-16.9012c-3.3097,2.2943-6.4458,4.8913-9.3236,7.7156l-3.1983-3.2518c3.0649-3.0115,6.4012-5.7729,9.9205-8.2142l2.6014,3.7504Zm10.5038-6.0179l-1.9241-4.1337c3.8842-1.8046,7.9604-3.2833,12.1119-4.4012l1.185,4.4103c-3.9023,1.042-7.7287,2.432-11.3727,4.1246Z" style="fill: #283543;"/>
      <path d="m102.425,135.2106c1.7549-3.617,3.8395-7.1137,6.2052-10.3924l-3.7061-2.6641c-2.5124,3.4925-4.7356,7.2119-6.6065,11.0608l4.1075,1.9957Z" style="fill: #e8e8e8;"/>
      <path d="m116.5146,115.6326c2.8779-2.8242,6.0139-5.4213,9.3236-7.7156l-2.6014-3.7504c-3.5192,2.4412-6.8556,5.2027-9.9205,8.2142l3.1983,3.2518Z" style="fill: #e8e8e8;"/>
      <path d="m95.7562,158.3926c.4366-4.0224,1.2207-8.0185,2.3296-11.8719l-4.3831-1.2651c-1.1851,4.1075-2.0177,8.3614-2.4811,12.6469l4.5347.4901Z" style="fill: #e8e8e8;"/>
      <path d="m134.4179,97.7654l1.9241,4.1337c3.644-1.6926,7.4704-3.0826,11.3727-4.1246l-1.185-4.4103c-4.1514,1.1179-8.2277,2.5966-12.1119,4.4012Z" style="fill: #e8e8e8;"/>
      <rect x="186.3566" y="90.8071" width=".1548" height="4.5619" style="fill: #e8e8e8;"/>
      <rect x="184.4384" y="90.8071" width="1.9181" height="4.5619" style="fill: #283543;"/>
      <path d="m166.0677,95.3689h5.8577s0-4.5619,0-4.5619h-5.8577c-2.2673,0-4.5703.1024-6.851.3071l.4099,4.5437c2.1206-.1912,4.2673-.289,6.4411-.289Z" style="fill: #e8e8e8;"/>
      <rect x="90.7807" y="171.6125" width="4.5616" height="10.8757" style="fill: #e8e8e8;"/>
    </g>
  </g>
</svg>