<?xml version="1.0" encoding="UTF-8"?>
<svg id="Layer_2" data-name="Layer 2" xmlns="http://www.w3.org/2000/svg" viewBox="0 0 186.3962 186.5114">
  <g id="routes">
    <g>
      <path d="m166.0946,45.554h20.2619V.1548h-45.3726v20.2889c0,13.8448,11.2657,25.1103,25.1107,25.1103Z" style="fill: #9fce62;"/>
      <path d="m166.0946,141.3459c-66.6676,0-120.9026-54.235-120.9026-120.9022V.1548H0v186.3565h186.3565v-45.1654h-20.2619Z" style="fill: #9fce62;"/>
      <rect x="186.3565" y="129.9424" width=".0397" height="11.4036" style="fill: #e8e8e8;"/>
      <rect x="45.192" width="11.4038" height=".1548" style="fill: #e8e8e8;"/>
      <path d="m176.3322,129.9424h-10.2376c-60.3779,0-109.4988-49.121-109.4988-109.4986V.1548h-11.4038v20.2889c0,66.6672,54.235,120.9022,120.9026,120.9022h20.2619v-11.4036h-10.0243Z" style="fill: #e8e8e8;"/>
      <rect x="186.3565" y="45.554" width=".0397" height="11.4041" style="fill: #e8e8e8;"/>
      <rect x="129.5798" width="11.4041" height=".1548" style="fill: #e8e8e8;"/>
      <path d="m129.5798,20.4437c0,20.1346,16.3799,36.5144,36.5148,36.5144h20.2619v-11.4041h-20.2619c-13.845,0-25.1107-11.2655-25.1107-25.1103V.1548h-11.4041v20.2889Z" style="fill: #e8e8e8;"/>
      <rect x="95.3689" width="34.2109" height=".1548" style="fill: #283543;"/>
      <rect x="56.5958" width="34.2112" height=".1548" style="fill: #283543;"/>
      <rect x="186.3565" y="56.9582" width=".0397" height="72.9842" style="fill: #283543;"/>
      <path d="m95.3689,2.0729h-4.5619V.1548h-34.2112v20.2889c0,60.3777,49.121,109.4986,109.4988,109.4986h20.2619V56.9582h-20.2619c-20.135,0-36.5148-16.3799-36.5148-36.5144V.1548h-34.2109v1.9181Zm76.2436,89.0961h10.8757v4.5616h-10.8757v-4.5616Zm-25.0918-2.7435c3.8534,1.1089,7.8494,1.8929,11.8719,2.3296l-.4901,4.5347c-4.2854-.4634-8.5394-1.296-12.6469-2.4811l1.2651-4.3831ZM90.807,20.4437v-5.8577h4.5619v5.8577c0,2.1738.0978,4.3205.289,6.4411l-4.5437.4099c-.2047-2.2807-.3071-4.5837-.3071-6.851Zm34.0112,57.4375c3.2787,2.3656,6.7754,4.4502,10.3924,6.2051l-1.9957,4.1075c-3.8489-1.871-7.5683-4.0942-11.0608-6.6065l2.6641-3.7061Zm-16.9012-17.2081c2.2943,3.3097,4.8913,6.4458,7.7156,9.3236l-3.2518,3.1983c-3.0115-3.0649-5.7729-6.4012-8.2142-9.9205l3.7504-2.6014Zm-6.018-10.5038l-4.1337,1.9241c-1.8046-3.8842-3.2833-7.9604-4.4012-12.1119l4.4103-1.185c1.042,3.9023,2.432,7.7287,4.1246,11.3727Z" style="fill: #283543;"/>
      <path d="m135.2106,84.0864c-3.617-1.7549-7.1137-3.8395-10.3924-6.2051l-2.6641,3.7061c3.4925,2.5124,7.2119,4.7356,11.0608,6.6065l1.9957-4.1075Z" style="fill: #e8e8e8;"/>
      <path d="m115.6326,69.9968c-2.8242-2.8779-5.4213-6.0139-7.7156-9.3236l-3.7504,2.6014c2.4412,3.5192,5.2027,6.8556,8.2142,9.9205l3.2518-3.1983Z" style="fill: #e8e8e8;"/>
      <path d="m158.3925,90.7551c-4.0224-.4366-8.0185-1.2207-11.8719-2.3296l-1.2651,4.3831c4.1075,1.1851,8.3614,2.0177,12.6469,2.4811l.4901-4.5347Z" style="fill: #e8e8e8;"/>
      <path d="m97.7654,52.0935l4.1337-1.9241c-1.6926-3.644-3.0826-7.4704-4.1246-11.3727l-4.4103,1.185c1.1179,4.1514,2.5966,8.2277,4.4012,12.1119Z" style="fill: #e8e8e8;"/>
      <rect x="90.807" width="4.5619" height=".1548" style="fill: #e8e8e8;"/>
      <rect x="90.807" y=".1548" width="4.5619" height="1.9181" style="fill: #283543;"/>
      <path d="m95.3689,20.4437v-5.8577h-4.5619v5.8577c0,2.2673.1024,4.5703.3071,6.851l4.5437-.4099c-.1912-2.1206-.289-4.2673-.289-6.4411Z" style="fill: #e8e8e8;"/>
      <rect x="171.6125" y="91.1691" width="10.8757" height="4.5616" style="fill: #e8e8e8;"/>
    </g>
  </g>
</svg>