<?xml version="1.0" encoding="UTF-8"?>
<svg id="Layer_2" data-name="Layer 2" xmlns="http://www.w3.org/2000/svg" viewBox="0 0 186.5114 186.3962">
  <g id="routes">
    <g>
      <path d="m45.554,20.3016V.0397H.1548v45.3726h20.2889c13.8448,0,25.1103-11.2657,25.1103-25.1107Z" style="fill: #9fce62;"/>
      <path d="m141.3459,20.3016c0,66.6676-54.235,120.9026-120.9022,120.9026H.1548v45.192h186.3565V.0397h-45.1654v20.2619Z" style="fill: #9fce62;"/>
      <rect x="129.9424" width="11.4036" height=".0397" style="fill: #e8e8e8;"/>
      <rect y="129.8004" width=".1548" height="11.4038" style="fill: #e8e8e8;"/>
      <path d="m129.9424,10.064v10.2376c0,60.3779-49.121,109.4988-109.4986,109.4988H.1548v11.4038h20.2889c66.6672,0,120.9022-54.235,120.9022-120.9026V.0397h-11.4036v10.0243Z" style="fill: #e8e8e8;"/>
      <rect x="45.554" width="11.4041" height=".0397" style="fill: #e8e8e8;"/>
      <rect y="45.4123" width=".1548" height="11.4041" style="fill: #e8e8e8;"/>
      <path d="m20.4437,56.8164c20.1346,0,36.5144-16.3799,36.5144-36.5148V.0397h-11.4041v20.2619c0,13.845-11.2655,25.1107-25.1103,25.1107H.1548v11.4041h20.2889Z" style="fill: #e8e8e8;"/>
      <rect y="56.8164" width=".1548" height="34.2109" style="fill: #283543;"/>
      <rect y="95.5892" width=".1548" height="34.2112" style="fill: #283543;"/>
      <rect x="56.9582" width="72.9842" height=".0397" style="fill: #283543;"/>
      <path d="m2.0729,91.0273v4.5619H.1548v34.2112h20.2889c60.3777,0,109.4986-49.121,109.4986-109.4988V.0397H56.9582v20.2619c0,20.135-16.3799,36.5148-36.5144,36.5148H.1548v34.2109h1.9181ZM91.1691,14.7837V3.908h4.5616v10.8757h-4.5616Zm-2.7435,25.0918c1.1089-3.8534,1.8929-7.8494,2.3296-11.8719l4.5347.4901c-.4634,4.2854-1.296,8.5394-2.4811,12.6469l-4.3831-1.2651ZM20.4437,95.5892h-5.8577v-4.5619h5.8577c2.1738,0,4.3205-.0978,6.4411-.289l.4099,4.5437c-2.2807.2047-4.5837.3071-6.851.3071Zm57.4375-34.0112c2.3656-3.2787,4.4502-6.7754,6.2051-10.3924l4.1075,1.9957c-1.871,3.8489-4.0942,7.5683-6.6065,11.0608l-3.7061-2.6641Zm-17.2081,16.9012c3.3097-2.2943,6.4458-4.8913,9.3236-7.7156l3.1983,3.2518c-3.0649,3.0115-6.4012,5.7729-9.9205,8.2142l-2.6014-3.7504Zm-10.5038,6.018l1.9241,4.1337c-3.8842,1.8046-7.9604,3.2833-12.1119,4.4012l-1.185-4.4103c3.9023-1.042,7.7287-2.432,11.3727-4.1246Z" style="fill: #283543;"/>
      <path d="m84.0864,51.1856c-1.7549,3.617-3.8395,7.1137-6.2051,10.3924l3.7061,2.6641c2.5124-3.4925,4.7356-7.2119,6.6065-11.0608l-4.1075-1.9957Z" style="fill: #e8e8e8;"/>
      <path d="m69.9968,70.7636c-2.8779,2.8242-6.0139,5.4213-9.3236,7.7156l2.6014,3.7504c3.5192-2.4412,6.8556-5.2027,9.9205-8.2142l-3.1983-3.2518Z" style="fill: #e8e8e8;"/>
      <path d="m90.7551,28.0037c-.4366,4.0224-1.2207,8.0185-2.3296,11.8719l4.3831,1.2651c1.1851-4.1075,2.0177-8.3614,2.4811-12.6469l-4.5347-.4901Z" style="fill: #e8e8e8;"/>
      <path d="m52.0935,88.6308l-1.9241-4.1337c-3.644,1.6926-7.4704,3.0826-11.3727,4.1246l1.185,4.4103c4.1514-1.1179,8.2277-2.5966,12.1119-4.4012Z" style="fill: #e8e8e8;"/>
      <rect y="91.0273" width=".1548" height="4.5619" style="fill: #e8e8e8;"/>
      <rect x=".1548" y="91.0273" width="1.9181" height="4.5619" style="fill: #283543;"/>
      <path d="m20.4437,91.0273h-5.8577v4.5619h5.8577c2.2673,0,4.5703-.1024,6.851-.3071l-.4099-4.5437c-2.1206.1912-4.2673.289-6.4411.289Z" style="fill: #e8e8e8;"/>
      <rect x="91.1691" y="3.908" width="4.5616" height="10.8757" style="fill: #e8e8e8;"/>
    </g>
  </g>
</svg>