<?xml version="1.0" encoding="UTF-8"?>
<svg id="Layer_2" data-name="Layer 2" xmlns="http://www.w3.org/2000/svg" viewBox="0 0 186.3565 186.3565">
  <g id="lvl_1_-_tamplo" data-name="lvl 1 - tamplo">
    <g>
      <rect width="186.3565" height="186.3565" style="fill: #7eab55;"/>
      <g>
        <path d="m150.0749,44.7996c-1.8258,1.5565-1.3242,4.0912.1918,5.2985-.0803.3741-.1326.77-.1312,1.2022,2.4707-.0469,5.1347-2.1577,4.2193-4.4618-.9621-.1188-1.9752.2098-2.7701.9165-.0663-1.1191-.5722-2.2064-1.5099-2.9555Z" style="fill: #88a133;"/>
        <g>
          <path d="m60.7812,82.8208c-.6367-.1651-.3634.1175-2.2229-3.844,3.9592-.7928,6.4231-4.3326,6.4231-7.8354,0-4.7016-.7074-2.1568-.4788-6.8529,5.0962,7.4456.148,19.5005-3.7213,18.5323Z" style="fill: #643a2b;"/>
          <path d="m57.8092,81.3102c-10.8018,1.1937-13.3776-6.8161-13.6321-6.8161-1.2586-2.6009-1.9015-5.993-1.8545-8.253,0,0,1.2772-1.7808,2.4071.5281,1.3578,2.8093.4399,4.6139,2.5422,7.1231.125.125.819.9787,1.6458,1.4737,1.8082,1.2313,4.4169,1.8866,6.3739,2.0018,1.3717.1249.7525-.7609,2.5175,3.9423Z" style="fill: #643a2b;"/>
          <path d="m133.8189,86.0954c-.7367,22.5697-10.1747,41.5472-31.3662,49.6742,1.0423,11.1822,4.8523,37.8947,12.0449,46.7116l-32.4837-4.6777c8.7515-14.4298,7.683-52.3322,6.1589-68.7875,0,0-.6367-.078-4.184-1.8712-15.1448-7.6243-22.6624-12.2537-29.2223-31.3403-.7089-2.283-.6252-6.6304-.3509-7.653.4287-1.5983,4.2489,4.5606,4.2489,4.5606,2.7288,10.6888,9.1391,19.5159,19.4642,23.5313,3.9127,1.5371,10.6348,2.6788,12.7985,1.7411,2.2208-1.1094-.8858-20.7945-1.2733-23.1415,9.1317-2.3842,6.6107-1.7285,10.6286-2.7676-.764,8.2537-3.9704,45.9336,2.17,51.5972,4.7252,4.3043,17.0057-4.1806,23.0504-16.7356,5.5055-11.2315,3.5216-18.2345,3.0276-30.6257-.0371-.892-.7011-.2862,4.6516-2.9625.4119,2.4715.8082,7.5216.6367,12.7465Z" style="fill: #643a2b;"/>
          <g>
            <path d="m91.9167,80.6706c.777,6.7735.9937,13.5766.6541,20.3859.7241-6.7736.5012-13.6727-.6541-20.3859Z" style="fill: #572e21;"/>
            <path d="m94.1748,101.2404c1.0525-7.0061.7641-14.2491-.8373-21.1501,1.2251,6.9859,1.5047,14.089.8373,21.1501Z" style="fill: #572e21;"/>
            <path d="m95.565,101.2339c1.0277-6.829,1.0392-13.8377.0388-20.6704.6204,6.884.606,13.7886-.0388,20.6704Z" style="fill: #572e21;"/>
            <path d="m97.162,98.3564c.9791-6.0438,1.1824-12.2322.6082-18.3276.161,6.1245-.0435,12.227-.6082,18.3276Z" style="fill: #572e21;"/>
            <path d="m85.1044,104.3887c-4.0072-.3138-7.5726-2.317-11.1097-4.0803,3.3192,2.1261,7.0698,4.1824,11.1097,4.0803Z" style="fill: #572e21;"/>
            <path d="m86.0069,103.2989c-4.336-.3891-8.3284-2.5783-12.0658-4.7054,3.4974,2.4586,7.7291,4.7784,12.0905,4.7188-.0316-.1029-.1986-.0763-.2968-.1064.085.023.2152.0458.2722.093Z" style="fill: #572e21;"/>
            <path d="m87.4069,101.1609c-4.4874-.0804-8.7011-2.1748-12.8523-3.7103,3.9639,1.9108,8.3559,4.0526,12.8523,3.7103Z" style="fill: #572e21;"/>
            <path d="m76.55,97.0256c3.5747,2.2373,7.969,2.5842,12.085,2.6694-4.1113-.5105-8.3119-.8072-12.085-2.6694Z" style="fill: #572e21;"/>
            <path d="m55.6892,76.7841c.008.051.0077.0501,0,0h0Z" style="fill: #572e21;"/>
            <path d="m55.5366,75.8036c.035.2249.0685.4404.0962.6185-.0235-.1512-.0569-.3656-.0962-.6185Z" style="fill: #572e21;"/>
            <path d="m55.49,75.503c.0173.1115.0319.2052.0467.3006-.0156-.1008-.0312-.2007-.0467-.3006Z" style="fill: #572e21;"/>
            <path d="m55.6768,76.7048c.0065.041.0092.0587.0124.0792-.0032-.0204-.0072-.0461-.0124-.0792Z" style="fill: #572e21;"/>
            <path d="m55.6328,76.4221c.0117.0747.0195.1253.0278.178-.0085-.0535-.0172-.1107-.0278-.178Z" style="fill: #572e21;"/>
            <path d="m62.4351,88.1316c-3.4378-3.8725-5.8779-8.5383-7.092-13.5726.7961,5.1194,3.3423,9.9965,7.092,13.5726Z" style="fill: #572e21;"/>
            <path d="m55.4073,74.9716c.0239.1545.0526.3385.0827.5314-.0243-.1558-.0533-.3423-.0827-.5314Z" style="fill: #572e21;"/>
            <path d="m55.3431,74.5591c.0244.1565.0427.2749.0642.4125-.0378-.2429-.0642-.4125-.0642-.4125Z" style="fill: #572e21;"/>
            <path d="m55.6606,76.6001c.0059.0383.0117.0752.0162.1048-.0039-.0253-.0109-.0709-.0162-.1048Z" style="fill: #572e21;"/>
            <path d="m62.6459,86.7848c-2.7936-3.8321-4.9184-8.0732-6.3098-12.607.9813,4.6317,3.1887,9.0465,6.3098,12.607Z" style="fill: #572e21;"/>
            <path d="m63.7475,86.4485c-3.2919-3.5434-4.8257-8.1649-6.5206-12.5977,1.2858,4.5397,2.9183,9.3515,6.5206,12.5977Z" style="fill: #572e21;"/>
            <path d="m63.4005,85.1178c-2.1873-3.517-3.9526-7.2342-5.2907-11.154.9344,4.0281,2.7608,7.8831,5.2907,11.154Z" style="fill: #572e21;"/>
            <path d="m86.4584,175.3885c2.2782-7.8408,3.556-15.9965,3.7896-24.158-.616,8.1472-1.883,16.2132-3.7896,24.158Z" style="fill: #572e21;"/>
            <path d="m89.3171,174.6465c2.3387-7.2914,3.3663-15.039,3.0136-22.6879-.0323,7.6648-1.0454,15.2802-3.0136,22.6879Z" style="fill: #572e21;"/>
            <path d="m94.526,153.659c-.5652,17.8903-2.6472,21.1468-1.5687,19.2923-.0544.0835-.1746.3397-.2446.4044,1.4256-6.3841,2.0586-13.107,1.8133-19.6967Z" style="fill: #572e21;"/>
            <path d="m97.3282,175.7352c.4263-7.5247.1539-15.1032-.8065-22.5784.5814,7.5179.8484,15.0381.8065,22.5784Z" style="fill: #572e21;"/>
            <path d="m102.0205,176.7274c-2.6268-7.4306-1.3-15.5426-3.5022-23.0653,1.8213,7.5782.5049,15.7423,3.5022,23.0653Z" style="fill: #572e21;"/>
            <path d="m104.9942,175.7306c-2.9651-6.8937-2.3479-14.5912-4.3297-21.7289,1.6005,7.1963,1.0046,14.9777,4.3297,21.7289Z" style="fill: #572e21;"/>
            <path d="m108.4061,178.4972c-3.5894-7.8845-3.5445-16.663-5.8094-24.8933,1.8881,8.3032,1.8572,17.1393,5.8094,24.8933Z" style="fill: #572e21;"/>
            <path d="m109.0357,173.7031c-2.7069-6.4302-4.4124-13.2249-5.0584-20.1718.2593,6.9631,1.9997,13.9108,5.0584,20.1718Z" style="fill: #572e21;"/>
            <path d="m132.1219,86.4562c.4651-5.4298-.0309,4.8887-3.2614,15.4377,1.4831-6.202,1.9205-12.6562,1.1515-18.9817.8419,8.9494-.3565,17.8323-3.8938,26.6754l.279.1134c0-.1229,4.6382-10.6401,5.7246-23.2448Z" style="fill: #572e21;"/>
            <path d="m134.3211,95.4213c-1.4088,5.5124-5.1351,10.1556-7.1844,15.4498,1.7339-5.3713,5.3428-9.9798,7.0124-15.3884.0614-.0123.1105-.0368.1719-.0614Z" style="fill: #572e21;"/>
            <path d="m136.5685,93.9967c-.2042,2.86-1.1167,6.0792-1.2404,6.0792-1.1099.6055.42-.1154,1.0195-5.8827.0737-.0614.1474-.1228.2209-.1965Z" style="fill: #572e21;"/>
            <path d="m137.2687,98.8477c.4911-2.1738.8841-4.3598.8596-6.595.5853-.9744.0195,5.9354-.8596,6.595Z" style="fill: #572e21;"/>
            <path d="m139.6757,96.8582c-.1104.0982-.2088.1965-.3193.2947.8888-5.7611-.2606-6.2373.1352-7.1599.6141,2.2352.5771,4.5809.1841,6.8652Z" style="fill: #572e21;"/>
            <path d="m142.3286,93.4686c0,.0459-.1835.3057-.2089.3439-.613-2.5842-2.0056-5.2001-1.879-5.4529.5528,1.0316,1.5966,3.2054,2.0879,5.109Z" style="fill: #572e21;"/>
            <path d="m63.0532,82.0839c-.9088-1.0562-1.621-2.6773-1.9773-4.1265.0737-.0368.1351-.086.2088-.1351,1.0692,3.6933,2.2557,3.8719,1.7685,4.2616Z" style="fill: #572e21;"/>
            <path d="m64.441,80.3277c-.666,0-1.7431-2.5621-1.9896-3.3896.0737-.086.1597-.1597.2456-.2456,1.0363,3.8369,1.7439,3.3933,1.7439,3.6352Z" style="fill: #572e21;"/>
            <path d="m66.0253,76.6188c0,.365-1.5767-.5248-1.8913-.7123-.6284-.4043-.503-.3363-.3807-.5404.4899.3834,1.6796,1.1614,2.272,1.2527Z" style="fill: #572e21;"/>
            <path d="m66.6518,73.4748c-.5896.2456-1.3388.1965-2.0388,0,.0246-.0737.037-.1597.0614-.2456,1.8213.3903,1.9774-.3164,1.9774.2456Z" style="fill: #572e21;"/>
            <path d="m66.6518,71.0308c-.5282.2211-1.13.2825-1.6704.1105,0-.0368.0123-.086,0-.1228,1.6119.0344,1.6704-.6763,1.6704.0123Z" style="fill: #572e21;"/>
            <path d="m65.0342,71.2322c.0436.0226.0543.0281,0,0h0Z" style="fill: #572e21;"/>
            <path d="m46.621,77.5276c0,.4072.114.5566-.3316.0614-.0364-2.0215.9159-3.7509,1.0807-3.5861-.6632,1.0193-.7246,2.3457-.7492,3.5247Z" style="fill: #572e21;"/>
            <path d="m49.9369,80.2049c-1.1598-.5154-1.2373-3.7321-1.1913-4.9493.4383.3293.0157,2.9841,1.1913,4.9493Z" style="fill: #572e21;"/>
            <path d="m52.344,81.0031c-.9189-.115-1.497-3.749-1.5966-4.6669.0861.0368.1719.0737.2457.0982.2701,1.5843.6017,3.2054,1.3508,4.5686Z" style="fill: #572e21;"/>
            <path d="m52.2994,76.5866c.0449.3398.0316.2383,0,0h0Z" style="fill: #572e21;"/>
            <path d="m54.9599,81.3593h-.2333c-1.1053-1.2895-1.9036-2.837-2.3089-4.4704.5622.1126.2449,1.2426,2.5422,4.4704Z" style="fill: #572e21;"/>
            <path d="m54.3213,77.2574c.1229.0307.1718.0368.2947.0368,3.4294,5.9741,2.0573,4.9242-.2947-.0368Z" style="fill: #572e21;"/>
          </g>
          <path d="m47.2693,73.8945c-.7797.6821-1.955,1.0396-3.0794.5976-.1792,0-1.2469-2.8289-1.6372-5.3662.0489-.1469.9111-1.3426,2.1829-2.3519,1.255,2.6029.5007,4.6667,2.5337,7.1204Z" style="fill: #572e21;"/>
          <path d="m58.6647,72.7121c.1558.6107.3248,1.1955.4936,1.78-1.3122.8706-2.8585,1.4034-4.3916,1.3124-.7089-2.283-.6252-6.6304-.3509-7.653.4287-1.5983,4.2489,4.5606,4.2489,4.5606Z" style="fill: #572e21;"/>
          <path d="m66.5517,70.1134c-.4808.1819-1.0395.234-1.5592.2079-.0804-3.4174-.6956-1.6133-.4937-6.029,0,0,1.5721,2.2869,2.0529,5.821Z" style="fill: #572e21;"/>
          <path d="m152.9782,47.8245s-.0307-8.28-12.3558-4.4584c0,0,8.8195-8.1207-4.6188-5.8915,0,0,12.3038-6.8469,2.697-15.7638-9.6069-8.9169-18.3252,11.1462-18.3252,11.1462,0,0,3.6605-7.9615-9.4948-3.5031,0,0,6.8104-7.4838-9.7805-1.9107,0,0,3.5133-6.3205,1.3431-8.0168-2.1701-1.6963-14.3879,3.7175-16.4794,9.9275,0,0-4.1615-15.7638-18.4922-7.9615-14.3307,7.8024,1.9108,15.1269,1.9108,15.1269,0,0-6.6877-1.2738-7.1653.9554-.4777,2.2293,5.0954,3.6624,5.0954,3.6624,0,0-11.1462,4.4584-11.6238,6.6876-.4777,2.2293-4.9362,6.8469-4.9362,6.8469l7.0062,3.1689,6.2099,4.8722,9.0762-3.6303s-3.8215,3.8465,1.2738,5.2113,7.6955-3.9694,7.6955-3.9694c0,0-2.7593,7.9365,9.1829,5.9188,11.9422-2.0177,17.9426-7.1607,17.9426-7.1607l17.8864,1.2419,27.1304-5.3342-1.178-7.1653Z" style="fill: #668226;"/>
          <path d="m78.1289,96.2434c-.5111.5525-2.8164,2.2519-2.6247,6.3408-2.8655-1.5503-4.8648-2.68-7.2505-4.8076.0349-1.6002,2.5778-3.6944,4.1449-4.5088,1.9231,1.2863,3.8591,2.248,5.7303,2.9756Z" style="fill: #572e21;"/>
          <path d="m28.3698,55.0961s-21.5119.2122-18.9642,9.9784c2.5476,9.7661,16.9845,0,16.9845,0,0,0-2.5477,3.5856-1.0616,4.3405,1.4861.7548,4.0339-1.7928,4.0339-1.7928,0,0-1.8478,10.1907,3.5345,9.7661,5.3824-.4247,9.4162-7.8554,9.4162-7.8554,0,0-1.0616,5.0954,6.9,1.38,0,0,3.9277,4.7769,9.4477,1.8046,5.5199-2.9723,1.3799-6.4689,1.3799-6.4689,0,0,2.5477,2.8597,4.3523,1.4796,1.8046-1.3799,1.5923-2.6538,1.5923-2.6538,0,0,4.2461,1.38,5.0954-.743s-3.1845-3.397-3.1845-3.397c0,0,3.0784-2.1231,0-5.8384-3.0785-3.7154-7.3246,0-7.3246,0,0,0,.3185-1.38-.1061-2.2293-.4247-.8492-6.4754,1.4861-6.4754,1.4861,0,0,9.2353-7.7492,1.8046-12.9507-7.4307-5.2016-12.6323,6.4753-12.6323,6.4753,0,0-10.1907-6.5815-14.2245-3.0784-4.0339,3.5031,3.2907,6.7938,3.2907,6.7938,0,0-13.1317,0-3.8589,3.5031Z" style="fill: #9fb53b;"/>
          <path d="m61.8984,86.1194s-3.0254-3.7418-9.1556-.9554c-6.1304,2.7865,3.3438,4.2196,3.3438,4.2196,0,0-7.3246-.2389-8.28,1.672-.9554,1.9107,1.8311,2.3884,1.8311,2.3884,0,0-13.0569,2.5476-7.0061,8.0411,6.0507,5.4934,12.818-5.0158,12.818-5.0158,0,0,0,4.538,3.1845,2.3089,0,0,3.6624,5.2545,8.5189-.3185,0,0,5.0954,2.1496,7.5635.8758,2.468-1.2739,1.9107-3.9012,1.9107-3.9012,0,0,3.6623.3192,5.0158-1.8308,1.3534-2.1499-1.4331-2.1499-1.4331-2.1499,0,0,2.7865-3.9011-.9554-6.2896-3.742-2.3884-7.0858,1.2738-7.0858,1.2738,0,0-.7962-3.0254-5.0158-2.9458-4.2196.0797-5.2546,2.6273-5.2546,2.6273Z" style="fill: #668226;"/>
          <path d="m143.7163,90.0912c-1.4591,5.6677-6.6516,9.7286-11.962,11.6671-1.4066.7054-1.1575,1.0449.2579-6.0055,3.3001.7332,7.1144-4.0813,8.1916-7.3196.1717-.1717.9872-2.6499,1.3633-4.0405.2941-5.9827,1.0577-8.4492,2.0508-2.5668.5131,2.977.8516,5.3167.0984,8.2653Z" style="fill: #643a2b;"/>
          <path d="m99.363,84.0717c-1.8379-.1238-1.7363,2.3855-.278,3.0278-6.012-.9202-9.7569,11.1475-.9317,1.4098-.0965.4338-.4029.7972-.5064,1.2293-.2428,1.0139.9281,1.9191,2.3921-1.2535-.3218.7673.9757,2.0777,2.4998.3483,2.1965-2.4925-1.2808-2.8119-1.2808-2.8119,0,0-.7589-1.8733-1.8951-1.9498Z" style="fill: #668226;"/>
          <path d="m99.3027,87.717c1.4473-3.1681,5.4791-2.769,5.5881.9863.0241.1454-.1972.1947-.2336.0507l-.1471-.557c-.7951-2.8915-3.6113-2.6509-5.0018-.3579-.0766.133-.2844.0099-.2056-.1222h0Z" style="fill: #51651c;"/>
          <path d="m104.571,88.3575c-.8548.6628.5132,1.2857.8395,1.8607.6925,1.2205-.2098,2.3608-.3929,3.5655-.0241.159-.0418.3224-.0084.4797.0985.4645.592.723,1.0456.863,1.2527.3865,2.6314.3517,3.8633-.0976,2.7322-.9967,1.1489-4.9017-.6103-6.0673-1.1025-.7305-3.5175-1.5487-4.737-.604Z" style="fill: #668226;"/>
          <path d="m133.8189,86.0954c-.9208.9208-2.9698,1.6861-4.6256,1.1175-.3372-3.4842-.1912.9231-.6627-10.9015,1.4943-.8317,3.3653-1.0006,4.9635-.3898.234,2.2478.4678,5.821.3248,10.1739Z" style="fill: #572e21;"/>
          <path d="m143.72,90.0974c-1.2474-.0259-2.5987-.5976-3.5993-1.4423,1.7407-4.0468,1.4621-5.1984,1.6763-7.2503.5717-.0519,1.1953.078,1.819.4158.5388,2.9621.8264,5.4314.104,8.2768Z" style="fill: #572e21;"/>
          <path d="m100.1009,74.0114c-.1299,1.5203-.3248,3.8721-.5328,6.7307-2.2739,1.5202-5.3663,1.6112-8.0299.8314-1.3851-.4039-.716.345-1.8841-6.7306l7.6141-1.988c1.0266.169,2.014.5328,2.8327,1.1564Z" style="fill: #572e21;"/>
          <path d="m107.1516,81.2047c-1.2648-1.1367-2.2999-2.6085-3.2804-3.9647-5.6923-8.3398-3.1641-15.3832.6828-15.7896.8801-.0547,1.6018.9282,1.4077,1.6368-.113.08-.3323.0705-.4222-.021-.1001-.1313.0359-.3905.2356-.3677-.1943-.0473-.4023.1969-.294.4071.1271.1421.4221.2168.5757.0658.4249-.9528-.4628-2.048-1.4758-2.1158-3.875-.3505-8.0904,7.5482-1.6467,16.8217.9905,1.377,2.0397,2.7948,3.3276,3.9543-2.1022,2.0031-1.7606,5.8132.4382,7.5285-2.2172-2.2778-1.529-6.1676.1151-7.0925.9632.7682,2.4333,1.8747,3.4039,1.1213,1.2393-.7867-.587-3.284-3.0674-2.1842Zm2.4755,1.4208c-.3107.1886-1.5068-.6481-1.7853-.8542,1.1584-.2297,1.9248.6384,1.7853.8542Z" style="fill: #51651c;"/>
          <path d="m103.2453,59.0822s-13.8,1.3216-6.5816,4.1876c0,0-16.4537,3.7154-10.0846,13.2692,6.3693,9.5538,21.4431-4.4584,21.4431-4.4584,0,0-1.9108,3.8215,1.3799,4.6708,3.2908.8491,4.4584-1.2739,4.4584-1.2739,0,0,0,12.1015,7.7492,12.2076,7.7492.1062,10.7215-7.9614,10.7215-7.9614,0,0,.2123,2.8661,2.4416,3.1845,2.2292.3185,3.503-.1061,3.503-.1061,0,0,.7431,3.2907,4.9892,3.3969,4.2462.1062,6.3693-2.7084,6.3693-2.7084,0,0,19.7445,6.3177,24.9461-1.5377,5.2015-7.8553-2.6538-10.5092-2.6538-10.5092,0,0,3.6092-8.3862-1.8046-6.9001,0,0,2.2292-6.1883-2.1232-6.7033-4.3522-.5151-4.7769,3.5188-4.7769,3.5188,0,0,2.2293-13.8-8.4922-16.2415-10.7215-2.4415-10.5093,9.9785-10.5093,9.9785,0,0-5.8384-7.1123-9.9784-.8492,0,0-.9554-6.7938-10.9338,1.0615,0,0-4.2461-13.0569-16.2415-7.8553-11.9953,5.2015-3.8214,11.6292-3.8214,11.6292Z" style="fill: #88a133;"/>
          <path d="m76.7114,91.0343c1.2165-1.432.7149-2.7129,1.2117-4.5293,1.3954,1.1431,1.4643,4.5293-1.2117,4.5293Z" style="fill: #2b430e;"/>
          <path d="m80.1059,88.9445c.6383-1.451,1.0812-2.0112,2.3682-2.9398.4431,1.2806-.4023,2.9398-2.3682,2.9398Z" style="fill: #2b430e;"/>
          <path d="m130.9262,185.6386c-1.2863.7277-3.2662-.6367-4.5915,0H56.5986c3.2093-5.2494,7.5232-9.849,12.5907-13.3703,9.3553-6.4837,13.9811-.4678,13.2793,2.9366,1.5592-2.0659,3.4563-3.885,5.6002-5.3273.4419,1.2733.8836,2.5596,1.3254,3.8331,7.978-17.8401,8.3028-9.4333,11.6811,2.8196.2599-1.5463,1.1175-2.9885,2.3517-3.95,6.1589,8.6536.6368,3.0403,9.4983-.3509-.0389,2.04.4549,4.093,1.4034,5.899,2.1309-3.1704,9.0742-3.0665,16.5974,7.5102Z" style="fill: #668226;"/>
          <path d="m54.96,67.0322c-.2575-.2197-.6896-.0687-.7483.2683-.0863.4402-.2464,1.2574-.658,1.0927-.8599-.3602-.6918-1.5067-1.1267-1.8158-.7837-.5576-.942.7483-2.3155,1.5963-1.2233.8194-2.4948.0102-2.3821-1.4947.0346-.6583.0897-1.658.7511-1.9833-.8381.1377-1.128,1.2025-1.3388,1.9175-.6123,2.3806,2.0955,4.3236,4.713,1.6532,1.0847,1.8465,2.8398,1.6795,3.2262-.1205,1.7635.5588,3.3836-.6427,3.5627-2.0485-.8252,1.586-2.6321,1.7901-3.6836.9348Z" style="fill: #668125;"/>
          <path d="m64.7024,60.348c.1078-.2131.3176-.0366.1746.2369-.1627.4718-.8451.9953-1.2679.7608-.6052-.2372-1.1083.5158-.6633.9842.6719.5614-.4538,1.5056-1.1688.7627.1309,1.6208,2.7095,1.0293,2.5412-.6142,1.2255-.4413,1.5119-2.037.7795-2.4135-.2416-.1331-.5075.1267-.3953.2831Z" style="fill: #668125;"/>
          <path d="m131.5742,75.6392c-.1777-.491.1837-1.285-.37-1.5823-.2521-.1049-.5415.0144-.6465.2665-.5204,1.3119-2.0938,4.2809-3.6916,2.9779-1.0125-1.6586.2039-4.1583.9086-5.9022-5.482,6.5811.2855,10.2428,3.148,4.7911,1.0491,2.1621,3.2097.3334,2.1519-.529.6084.8117-1.1978,1.8439-1.5004-.0221Z" style="fill: #668125;"/>
          <path d="m165.5399,75.0813c.2231-.2142.405-.4652.5082-.7461-.7236,1.0666-1.8624.7397-1.7685,1.1678.093.4244,1.2391-.3509,2.1482.5741.3576.4473-2.1708,2.6844-5.1965,1.969,0,0-.001.0048-.001.0052-.7439-.187-1.1058.9818-.2432,1.165,0,.0001-.0005.0021-.0005.0021.0449.0216.1014.2907.0285.3537-.7698.7999-2.3861-.0657-2.6729-1.0622-.1782-.5523-1.0591-.4311-1.0699.1606-.0114,3.9565-3.6771,1.2486-2.3687-2.3616-2.2909,3.5609,1.7422,7.3038,3.1773,3.8407,1.7782,1.7474,4.2591.8545,4.1802-.8128,4.1687-.0091,6.8718-4.161,3.2788-4.2557Z" style="fill: #668125;"/>
          <path d="m69.7548,94.412c-.5608.3656-.9643-.1437-1.371-.5847-.3189-.2907-.6852-.0604-.6414.4738.0274.114-.295.3349-.3668.2394-.4367-.3329.2303-.8771-.2297-1.2575-.7251-.7035-1.0632.6973-3.8736,2.5718-.2301.1325-.6078.2443-.6024.1266.0519-.7673.4305-1.552.8467-2.2627-3.0524,2.0982-1.5902,5.3692,2.8137,1.2515.6814,1.0096,1.8357.6466,2.1603-.1378,1.3638.5912,1.8297-.5904,1.4685-.9484.0793.2279-.058.4184-.2042.528Z" style="fill: #2b430e;"/>
        </g>
      </g>
    </g>
  </g>
</svg>