<?xml version="1.0" encoding="UTF-8"?>
<svg xmlns="http://www.w3.org/2000/svg" viewBox="0 0 186.3565 186.3565">
  <g style="isolation: isolate;">
    <g id="Layer_2" data-name="Layer 2">
      <g id="lvl_1_-_tamplo" data-name="lvl 1 - tamplo">
        <g>
          <rect width="186.3565" height="186.3565" style="fill: #7eab55;"/>
          <g>
            <path d="m176.085,82.8638c-2.0789-4.3704-6.4255-7.6295-11.1587-8.3619,2.28-.8311,4.1725-3.2935,4.1773-5.8419.007-3.7578-2.8451-6.9771-6.089-8.8742-4.218-2.4665-9.099-3.2579-14.0254-3.0655,3.295-1.6325,6.0161-4.4449,7.2254-7.9269,1.0923-3.1456.95-6.8904-1.0982-9.5158-2.8866-3.6999-8.3412-4.028-12.9901-3.3883-7.0875.9753-13.9461,3.4927-20.0206,7.2698,1.2004-1.8749,1.5293-4.4277.5665-6.4786-1.6487-3.512-5.9698-5.2109-9.8127-4.6762-3.8427.5347-7.2107,2.896-9.9132,5.6797,4.0206-4.5382,6.8577-10.1163,8.1573-16.0386.9177-4.1824.5289-9.5338-3.3177-11.4152-1.5126-.7397-3.2782-.7577-4.9496-.5526-6.9215.8497-13.0139,5.2415-17.3927,10.669-4.379,5.4273-7.2847,11.8666-10.1427,18.2275,1.4729-4.094,2.3852-9.5903-1.239-11.9976-2.5573-1.6986-6.0094-.7528-8.7589.6126-6.3122,3.1345-11.5534,8.3132-14.9337,14.4821-1.2972,2.3677-2.8273,4.3335-4.1231,6.6814-2.0755-.7707-4.4575.672-5.4584,2.6465-1.0012,1.9747-.9519,4.3022-.7739,6.509.3799,4.7061,1.3142,9.546,4.0634,13.3845,4.3497,6.0733,11.8743,7.0846,17.8354,3.7212-.651,1.9094-.6453,4.1317.0966,6.0107,1.5115,3.8289,5.075,6.422,8.6166,8.5198,5.9142,3.5032,12.2798,6.2438,18.8892,8.1325,1.6504.4716,3.4743.8791,5.0338.162.8094-.3721,1.4148-1.1849,1.6364-2.037,3.5889,12.7328,14.7369,23.1152,27.7707,25.5609,5.9809,1.1223,12.6176.5411,17.4177-3.1991,3.7999-2.9609,5.8944-8.2505,4.88-12.8032,1.0909,1.5279,2.6479,2.7562,4.3812,3.5028,2.8829,1.2417,6.1609,1.3043,9.253.7637,5.8782-1.028,11.4392-4.3131,14.7172-9.2996s4.0435-11.6747,1.48-17.0635Z" style="fill: #668226;"/>
            <path d="m55.4018,45.6566s-8.7235-12.937-22.0525-3.5282c-13.329,9.4086-.784,18.0332-.784,18.0332,0,0-7.2525-.1961-7.8405,1.7642-.5881,1.9601,2.7441,2.0422,2.7441,2.0422,0,0-20.1894,4.2302-15.6811,14.6189,4.5083,10.3888,15.0931,2.5482,15.0931,2.5482,0,0-5.8805,6.8604-.5881,8.6246,5.2923,1.7642,9.9967-2.3521,9.9967-2.3521,0,0,.784,3.9202,4.9003,3.9202h7.2526s-.3921,3.5283,4.3122,3.5283,7.4485-4.9003,7.4485-4.9003c0,0,24.5018-3.3322,26.4619-7.2526,1.9601-3.9202-3.3481-4.7043-3.3481-4.7043,0,0,4.4129-.1961,3.7824-2.3523-.6305-2.1561-3.7824-2.4528-3.7824-2.4528,0,0,19.4212-12.0521,9.2285-21.6568-10.1928-9.6047-15.0931-.784-15.0931-.784,0,0-.392-8.6246-6.8604-8.6246s-8.6246,4.7043-8.6246,4.7043c0,0-1.7623-5.4883-6.5655-1.1761Z" style="fill: #9fb53b;"/>
            <path d="m134.142,98.3927c-1.9105,4.6538-8.6585,6.3194-8.6585,6.3194-.9911,8.568-5.5183,21.3585-12.6632,28.131-3.2274,3.2252-8.7807,6.548-12.1366,7.6665-3.1865,12.7509,5.8106,33.4805,12.4305,44.603h-36.0669c-5.6023-10.0504,4.1917-49.9231,7.1644-60.2177,1.0798-4.3196.5473-.5976,1.4941-8.8667-14.2826.8821-13.4852,1.0251-14.9656.4409-8.3646-3.2822-7.1766-22.3505-7.1766-22.3505-4.4456-1.0042-8.5483-8.683-10.5935-13.1531,2.2201-1.5446-.1023-3.887,4.715,4.0415,2.2657,3.7843,7.4583,3.3801,7.4583,3.3801-.1225-2.7066,1.7391-13.7165,2.5963-18.5662.2862.2149.7464.3624,1.2369.3307.1592,3.074,1.0777,7.6543,1.0777,7.6788.147.7226,3.772-2.878,4.1517-.4776.4531,2.9025-3.1719,3.1352-3.4536,5.1437-1.1472,8.2707,2.1507,17.2924,6.0499,22.2158,7.2379,6.1602,12.3938,3.2454,12.3938,3.2454,8.3234-19.2929,7.3597-19.2758,9.7117-21.0891.8695,1.9228-.8083,4.3231.0857,6.2459.4409-.0735.5511-.7103.9553-.894.4525-.2179,1.1588.1746.9308,1.5431,1.935-.4899,4.0904-.943,5.8295,0,2.9054,1.673-1.3532,2.7633-4.3354,13.7165-1.0885,3.8933-1.913,7.966-1.3839,12.0264,0,1.5809,1.2761,5.5695,2.6943,7.1032,1.4596,0,2.759-.1898,4.4089-.943,4.3563-1.585,9.4994-8.3849,11.5733-12.4673-1.6214-.8249-4.0666-3.1354-5.6703-6.4051-1.6778-3.4046-2.3147-10.1771-2.5351-13.7165,1.1634-.6123,1.6533-2.1799,1.6533-2.1799,0,0,.0735,1.8738.7226,2.7555.1134,6.8388,1.4041,12.7446,7.642,15.9821.9797-1.5921,2.3391-13.3368,2.2657-17.317-.0245-1.2002.049-2.0575.1959-2.6698.4041.098.8818.0367,1.4941-.2694.4041,2.7555.7226,11.4998.7226,11.4998,0,0,2.6576-.5756,4.9967-3.1597,1.8425-2.0365,3.3667-7.7819,3.5148-9.6383.4531.3307.8818.4409,1.2369.0857,0,0,.1592,5.5601-1.7635,10.2261Z" style="fill: #664844;"/>
            <path d="m110.0642,186.0001s-6.8803-12.6509-3.3292-18.5324c3.5511-5.8815,5.9925,4.7717,5.9925,4.7717,0,0-1.8865-9.9875,2.5524-10.5423,4.4389-.5549,4.8828,9.4326,4.8828,9.4326,0,0,5.9801-30.4065,15.7519-25.6347,9.7718,4.7719-8.5386,28.409-8.5386,28.409,0,0,10.0985-9.2107,12.3179-5.7706,2.2195,3.4401-4.9938,7.5461-4.9938,7.5461,0,0,7.1023-.111,7.1023,1.4427s-5.2158,3.1073-5.2158,3.1073c0,0,8.212-1.6646,8.101,1.831-.1109,3.4956-7.5461,3.9396-7.5461,3.9396h-27.0773Z" style="fill: #668226;"/>
            <g style="mix-blend-mode: soft-light;">
              <path d="m109.8423,175.2358c2.3354,3.5282,3.7621,7.5799,6.5472,10.7644-1.9136-1.0376-3.0416-3.0551-4.1149-4.864-1.0093-1.8789-1.8767-3.8311-2.4322-5.9004h0Z"/>
            </g>
            <g style="mix-blend-mode: soft-light;">
              <path d="m116.3896,168.9104c.4781,2.4698.9346,6.0624,1.2924,8.5856.384,2.5105.6874,6.1107,1.4819,8.504-2.5473-5.2255-2.7175-11.3624-2.7743-17.0896h0Z"/>
            </g>
            <g style="mix-blend-mode: soft-light;">
              <path d="m132.2587,155.8156c-3.145,6.5454-13.171,23.5795-9.9878,30.1844-4.1528-6.9386,5.8802-24.0145,9.9878-30.1844h0Z"/>
            </g>
            <path d="m107.6398,94.7921c.2694,1.1512-2.3391,4.6293-2.8658,5.8172-.9797,2.2167-1.7635,4.5313-2.4004,6.8705-.6368-1.5921-1.5431-3.0985-2.5596-4.4823-1.0532-1.4451-2.2534-2.829-3.8088-3.6985-.8573-.4776-1.837-.7716-2.8168-.796.7226-1.7391,1.4574-3.4903,2.1922-5.2294.992-2.3514,1.3349-4.715,3.5271-6.4051.8695,1.9228-.8083,4.3231.0857,6.2459.4409-.0735.5511-.7103.9553-.894.3307-.1592.7348.098.894.4409.147.3429.098.7348.0367,1.1022,1.935-.4899,4.0904-.943,5.8295,0,.4041.2327.8083.5634.9308,1.0287Z" style="fill: #4d312d;"/>
            <path d="m134.142,98.3927c-1.9105,4.6538-8.6585,6.3194-8.6585,6.3194,0,0-.5511,4.764-2.6331,10.9487-1.3594-1.5186-3.025-2.7678-4.8742-3.6496-1.1512-.9797-2.7188-2.6453-3.9802-5.2172-1.6778-3.4046-2.3147-10.1771-2.5351-13.7165,1.1634-.6123,1.6533-2.1799,1.6533-2.1799,0,0,.0735,1.8738.7226,2.7555.0367,2.2167.2817,6.2214,1.4451,9.2341,1.6901,4.4089,6.1969,6.748,6.1969,6.748.9797-1.5921,2.3391-13.3368,2.2657-17.317-.0245-1.2002.049-2.0575.1959-2.6698.4041.098.8818.0367,1.4941-.2694.4041,2.7555.7226,11.4998.7226,11.4998,0,0,2.6576-.5756,4.9967-3.1597,2.3269-2.5718,3.4903-9.3321,3.4903-9.3321l.0245-.3062c.4531.3307.8818.4409,1.2369.0857,0,0,.1592,5.5601-1.7635,10.2261Z" style="fill: #4d312d;"/>
            <path d="m115.3675,70.3422c-4.5474-4.3789,2.4774-7.8909,6.1206-.8323,2.2548-15.7837,19.794-11.4417,11.4856,1.9007,5.0812-6.874,6.8979-3.811,3.995,2.3862,22.3092-8.3934,29.3867,4.9111,12.8173,10.3616,6.6445,3.7652,3.1656,12.0696-3.995,8.4894,4.3865,10.0629-2.9428,9.0415-13.1502,4.9938-1.9303-.7656-7.3176,1.0428-9.549,1.2749-2.9912.3111-5.9286,1.0427-8.7986-.3413-2.2357-1.0782-3.9925-3.1085-4.7381-5.4761-1.3861,1.7544-2.85,3.5712-4.8837,4.4999-2.0338.9287-4.8088.6471-6.03-1.2258-1.1872-1.8207-.7831-4.2245-.2279-6.1793-2.559.8334-3.8847,3.7895-6.9818,1.4375-3.5583-2.7021-1.3364-7.9315,2.8858-7.7579-3.1733.0207-1.7204-6.0629,5.2208-5.1002-13.6043-10.462,2.1743-24.2239,15.829-8.4311Z" style="fill: #88a133;"/>
            <g>
              <path d="m105.2762,185.1126h-.1837c-1.041-1.4451-1.9595-2.9882-2.7678-4.5803-10.1526-21.5667-8.1931-56.213-.0735-78.3063-7.3848,22.1178-9.3443,56.6416.3429,78.1838.7716,1.6288,1.6656,3.2087,2.6821,4.7028Z" style="fill: #4d312d;"/>
              <path d="m96.2135,183.3246c.3674.6123.7471,1.2124,1.1634,1.788h-.1102c-.4286-.5511-.8083-1.1267-1.1757-1.7146-3.0985-4.911-4.8742-10.52-6.1357-16.1536-4.8865-22.6444-.5634-47.0034,11.0711-66.9535-7.3604,13.496-11.7692,28.6086-12.3571,43.9784-.5144,13.2756.9797,27.2737,7.5441,39.0552Z" style="fill: #4d312d;"/>
              <path d="m102.3247,185.1126h-.2082c-7.0909-11.2916-10.5568-24.6896-11.2426-37.9897-.6858-15.5045,2.6943-31.7193,10.9977-44.9582-7.8502,13.398-11.2304,29.4904-10.3853,44.9337.5389,13.2756,3.9925,26.6001,10.8385,38.0142Z" style="fill: #4d312d;"/>
              <path d="m87.7877,180.2016c.3552,1.6533.7348,3.3066,1.2492,4.911h-.1715c-.5511-1.5798-.9675-3.2209-1.3594-4.8375-4.9722-24.6774-3.5761-59.6421,12.0142-80.3638-14.8554,20.7706-16.374,55.8089-11.7325,80.2903Z" style="fill: #4d312d;"/>
              <path d="m83.7462,185.1126h-.1959c-7.3971-27.9718-1.9962-64.5776,14.0961-88.5079-15.431,24.2243-20.7706,60.4871-13.9002,88.5079Z" style="fill: #4d312d;"/>
              <path d="m80.66,185.1126h-.1592c-3.7475-9.4791-4.1272-19.6807-3.1229-29.8333.0122-.0122.0122-.0245.0122-.049.4286-2.5228.9063-5.0457,1.4084-7.5073-1.6411,12.5653-2.3391,25.3999,1.8615,37.3896Z" style="fill: #4d312d;"/>
              <path d="m99.7284,130.112c-.049,3.6373-.1715,7.4706.8083,10.9977-.0367.1592-.0735.3184-.098.4776-2.2902-6.4296-1.5309-15.9209.4654-22.9383.0122.2939.049.5756.0857.8573v.0122c-.7471,3.4781-1.139,7.0419-1.2614,10.5935Z" style="fill: #4d312d;"/>
              <path d="m102.7411,139.6646c-.1102.049-.2204.098-.3184.1347-1.6533-4.2619-.9797-9.2586,1.3472-13.1898.1592.0122.3184.0122.4776-.0122-2.033,3.968-2.9882,9.0872-1.5064,13.0674Z" style="fill: #4d312d;"/>
              <path d="m122.0666,117.8285c-.0612.1837-.1225.3552-.1959.5389-1.3349-.5634-2.5718-1.6656-3.5516-2.8535.0857-.1347.1592-.2572.2327-.3674,1.0777,1.041,2.2412,2.0697,3.5148,2.6821Z" style="fill: #4d312d;"/>
              <path d="m120.0704,122.4945c-.0735.1715-.1592.3429-.2572.5144-1.7391-1.0165-3.074-2.7923-3.3556-4.764.0735-.098.1592-.2082.2204-.3184.5021,1.9105,1.7513,3.5393,3.3924,4.5681Z" style="fill: #4d312d;"/>
              <path d="m117.1189,127.7729c-.098.1592-.1959.3062-.3062.4409-1.6411-1.7513-2.4984-4.5313-2.7066-7.1277.1347-.147.2572-.2939.3919-.4286.3552,2.5106,1.1267,5.2784,2.6208,7.1154Z" style="fill: #4d312d;"/>
              <path d="m112.8202,132.8431c-.1102.1102-.2082.2082-.3184.3062-1.6166-2.4861-1.9105-5.9887-1.5431-9.1974.1715-.1225.3552-.2694.5266-.4041-.2327,3.1842-.0857,6.7603,1.3349,9.2954Z" style="fill: #4d312d;"/>
              <path d="m110.0035,135.2557l-.3307.2572c-1.5798-2.4861-1.837-6.601-1.5798-9.8465.1347-.049.2694-.1225.4041-.1837,0,3.1719.1959,7.1766,1.5064,9.773Z" style="fill: #4d312d;"/>
              <path d="m105.6681,138.146c-.1225.0735-.2449.147-.3674.2082-1.3961-3.7598-.4899-8.4136.9553-12.0386h.0122c.0367-.0122.0612-.0122.0857-.0245-.7226,3.0862-1.7268,8.2789-.6858,11.8549Z" style="fill: #4d312d;"/>
            </g>
            <path d="m91.7077,185.3159c-.3857-.7794-.8656-2.5292-1.6723-3.0372-.491-.3091-1.4069-.0245-1.4402,1.7321-1.6517-2.5318-3.0544-1.6373-3.2863-.9581.1024-1.5326.1543-1.6942.0142-1.8567-.3635-.4219-2.6232.361-3.7974,1.786,1.1576-2.7413-1.3389-1.4059-2.1174.3773,3.0005-9.008-1.9457-3.2894-2.7977-.1026-.1479-.3795-.296-.7591-.4439-1.1387-.394.1313-.6735.5465-.6468.9609-.0844-1.3083-1.6049-2.2854-2.4532-1.1429-.5349.7206-1.3407,3.3566-.1842,3.8202.368.1473.7825.0693,1.1732.0028,4.397-.7474,8.8954.2624,13.3533.1257,1.2925-.0397,3.146.0163,4.2985-.5686Z" style="fill: #668226;"/>
            <path d="m140.6905,79.082c-2.4213-.3586-4.6561,1.1986-4.9993,2.2697-2.3013-1.3843-4.2661-2.1765-4.4629.5297-.7461-.496-1.683-.6071-2.5586-.1893-.0794-1.2497-1.3923-.6968-2.4125.062,1.8615-5.6366-5.8137-4.3354-8.5975,4.1835,3.5493-8.2843,11.5015-9.1938,6.6733-2.1294l.0011.0006c-.3353.4231.4414.9748.728.4443.6046-1.0077,2.1139-2.1901,2.727-2.3612-.1135.8929-.9604,1.6817-.294,1.9967.4863.23.7148-.4089.9132-.9167.7342-.9615,2.4999-.9355,3.0181.3187.2017.47.9342.1516.728-.3157-.2767-.6673-.2362-1.7759.3509-2.2521,1.3041-.0198,3.3803,1.4647,3.4395,1.3419.4027.2335.5583-.2677.2671-.404-.4548-.2639,1.4058-2.659,4.4787-2.5787Z" style="fill: #6a7f24;"/>
            <path d="m133.9877,118.4621c2.3939,1.0848,4.032,2.3481,5.6594,4.4147-2.7353,1.247-6.1935-1.4633-5.6594-4.4147h0Z" style="fill: #668226;"/>
            <path d="m138.3766,117.846c.6311.0244,1.8925-.0122,2.4684.1625.5868.1129,1.6869.7588,2.2458,1.0372-.8963,2.4965-5.1132,1.4156-4.7142-1.1997h0Z" style="fill: #668226;"/>
            <path d="m85.0479,93.1583c-.2317-.1168.17,1.0314-3.0279,4.5051.901.0898,1.79-.1647,2.5945-.5985.1234.9328.2943,1.8767.2884,2.8492,1.5137-1.0335,1.6124-3.6843,2.1399-5.2249,1.1431-2.0358-1.1632-3.1657-1.9949-1.531Z" style="fill: #668226;"/>
            <path d="m128.0695,62.0834c-2.4523-1.1304-.7701-5.3325,1.7862-4.4427-.1252.6008-.2838,1.8406-.5222,2.3705-.0562.1538-1.1392,2.0722-1.264,2.0722Z" style="fill: #88a133;"/>
            <path d="m130.9012,62.1107c-1.9159-2.0161,1.6788-5.141,3.4023-2.9501-.7035.7406-.8812,1.1835-1.4815,1.7285-.6281.5116-1.0912.6296-1.9208,1.2216h0Z" style="fill: #88a133;"/>
          </g>
        </g>
      </g>
    </g>
  </g>
</svg>