<?xml version="1.0" encoding="UTF-8"?>
<svg xmlns="http://www.w3.org/2000/svg" viewBox="0 0 186.3565 186.3565">
  <g style="isolation: isolate;">
    <g id="Layer_2" data-name="Layer 2">
      <g id="lvl_1_-_tamplo" data-name="lvl 1 - tamplo">
        <g>
          <rect width="186.3565" height="186.3565" style="fill: #7eab55;"/>
          <g>
            <path d="m25.8347,103.033c2.1022-4.424,9.3026-7.8321,17.0904-8.0887-4.2803-1.6632-4.9684-5.4179-2.7423-8.1389,4.3167-5.2759,22.3008-10.7575,33.3478-9.5603,7.7345.8381,14.6563,5.411,12.6049,9.8827,2.4346-2.2345,8.4305-1.3694,11.9372.299,10.5175,5.0041,12.4164,15.1699,3.9976,21.4012,4.5559,1.3056,8.9075,4.1813,7.1313,6.976-2.826,4.4466-22.9689,5.7448-23.2059,5.9111-.4887.3428-.7461,1.032-1.108,1.4913-.7104.9022-1.9181,1.3852-3.0547,1.2216-1.6527-.2379-2.8485-1.647-4.2878-2.4934-1.1529-.6782-2.2575-.7239-3.525-.9506-1.8216-.3256-9.0655-2.3176-9.7161-3.2764,3.7527,5.5298-24.4474,8.1368-32.6268-.6008-3.6926-3.9448-7.9714-9.5936-5.8426-14.0737Z" style="fill: #425d18;"/>
            <path d="m118.2961,74.0312s-13.9699-5.3679-19.144,1.8109,5.1741,9.8308,6.985,9.1839c0,0-4.0544,2.3776-1.2935,5.5622,2.7607,3.1845,3.1632,1.5522,3.1632,1.5522,0,0-1.2229,7.5024,6.6676,8.0198,7.8904.5175,10.0041-5.1741,10.0041-5.1741,0,0,3.0603,8.4079,14.0552,3.2338,10.995-5.1741,3.8806-10.3482,3.8806-10.3482,0,0,24.5768,6.7264,26.129-5.3034,1.5522-12.0297-18.2386-7.6317-18.2386-7.6317,0,0,3.3631-6.3382,1.2935-7.373-2.0696-1.0349-4.9153,2.1989-4.9153,2.1989,0,0,6.3382-18.4973-7.2438-18.2385-13.5818.2586-7.8904,17.4625-7.8904,17.4625,0,0-3.1045-5.4328-7.6317-3.1045-4.5274,2.3283-1.6816,4.9153-1.6816,4.9153,0,0-6.5969-4.0098-4.1393,3.2338Z" style="fill: #5a7721;"/>
            <path d="m137.4391,47.8451c0,7.7713-11.9924,18.5926-19.8857,18.739-7.8933.1464-11.6142-1.7202-11.6142-1.7202,0,0-2.6474,8.4911-12.9806,10.9433-10.3211,2.4522-22.0085-1.0004-25.4977-5.6241l-3.489-4.6115c-10.8067,4.5172-14.4142.5087-10.9434-3.7332-.3782.0854-17.8728,4.1357-16.0794-11.5411.5175-4.6529,2.6638-6.9243,5.5021-7.9177,4.8777-1.7072,14.268,1.6431,16.9457,3.4282-.6223-.6954-13.8591-15.384-3.9285-22.0329,10.1748-6.7831,19.2758,3.7332,19.2758,3.7332,0-6.3515,8.5577-7.0708,12.456-2.4522,0,0,3.4892-21.3375,24.8877-17.0188,21.4107,4.3309,18.9708,24.8023,11.6874,31.866,5.6163.0565,13.6638,2.09,13.6638,7.9421Z" style="fill: #668226;"/>
            <g style="mix-blend-mode: soft-light; opacity: .6;">
              <path d="m117.5534,66.584c-7.8933.1464-11.6142-1.7202-11.6142-1.7202,0,0-2.6474,8.4911-12.9806,10.9433-10.3211,2.4522-22.0085-1.0004-25.4977-5.6241l-3.489-4.6115c-10.8067,4.5172-14.4142.5087-10.9434-3.7332-.3782.0854-17.8728,4.1357-16.0794-11.5411.5369-4.8272,3.2682-7.5573,6.2463-8.1251,5.3711-1.1907,14.4689,2.2587,16.3632,3.6353,4.1272,2.9993,7.1575,9.3603,16.3211,4.9661-1.5233,11.782,10.1739,13.8861,17.3313,10.7374.6701-.2949,1.3454-.6438,2.0773-.666.8417-.0256,1.7518.3742,2.4855-.0388.5497-.3095.8458-1.0173,1.5536-.9662.7964.0578,1.9244.9748,2.769,1.2199,9.0817,2.6359,16.2868-4.3973,15.7213-12.215,5.3003,4.6096,19.1091,1.5239,16.7655-5.8525,9.3718,5.6408-6.5261,23.3969-17.0298,23.5917Z"/>
            </g>
            <path d="m100.6566,105.3551c-.5031,7.9283,8.1729,15.7576,14.896,35.3185,1.7959,5.1112,7.239,26.7583,7.2711,26.8885.6588,2.7084,1.0126,3.0256-1.9398,3.9771-17.1611,5.5125-16.9087,3.9983-43.5778,2.0008-.2706-.0284-3.1446-.1923-3.4526-.5002-6.0377-2.1744.5162-10.1261,8.3935-25.4367,2.9654-5.7364,2.4139-5.4066,2.7572-8.1495v-.0976c.1098-1.7934.061-4.1845-.61-5.0751-.408-.8136-7.8595-4.3819-16.421-1.9154-9.4427,2.7206-28.4988,5.4777-29.9628-3.4038,0,0,5.5143,7.4175,25.1805,1.891,24.5995-6.8437,21.7241-4.145,21.8133-5.8925.5124-8.4545-3.1354-11.9192-4.5993-20.0687-.5856-3.2208-.6588-8.2715-1.1956-9.2109-.5539-1.0385-12.7059-9.9526-15.3284-11.7469-1.2086-.827-4.9819-2.3335-4.5379-4.0895.7697-3.0381,9.2803,4.8742,14.9009,6.7231,1.9398.6466,3.8186.732,5.6729-.2074.6466-3.6478,1.83-8.9181.2197-12.4194-1.7803-3.8902-3.7945-7.5338-3.5625-11.8704.0366-.915.0244-3.0988.6832-3.7576.7198.9028,1.464,1.769,2.4157,2.4522.182.1215.3731,3.5278.4636,3.7088.1824.7299,1.0513,1.7812,1.8909,1.7812,3.8593.3989,1.3692-19.6874.4392-22.1671-.5612-1.5128-.6954-3.111-.4269-4.0259.8295-.061,1.6591.0976,2.3668.488.8552,1.1761.545,1.1175.7564.5368,4.0164-16.1647,10.6007-2.9522,10.3453,11.7484-.0487,2.928-.4758,5.3801-1.403,6.5757,4.0503,1.8422,3.0622-2.0374,2.0984-6.9417-1.6592-8.3508-1.2025-10.4479,4.4041-16.9334,1.6836-1.9276,3.2574-3.294,3.843-2.7572,1.1703,1.027-5.6512,5.7599-5.5997,10.7237.1516,15.0739,8.7827,15.9487-4.6969,21.5205-.1875,5.8091-.9473,24.6569,1.464,30.4752,3.1227-7.8338,13.2734-6.4831,19.2635-10.0649,2.6826-1.49,7.5609-11.4021,4.0991-2.6596,13.4442.7564-.61,1.8422-1.3786,2.562-8.3435,7.6825-16.9456,11.8053-16.9456,20.0199Z" style="fill: #845c4f;"/>
            <path d="m120.8839,171.5393c-12.5019,4.0158-15.435,4.1715-25.5221,3.5258-.9134-.0573-20.862-1.3788-21.5083-2.0252-3.7942-1.3664-2.318-5.7461-.1219-9.6623,2.0129-3.5624,3.9649-7.1369,5.8802-10.7359,3.7704-5.3033,4.9319-9.1887,5.3679-12.8952,0-.3507.5039-4.2004-.5856-5.4655-.1989-.3966-2.7534-1.6278-5.3801-2.2448.1342-1.769.2684-3.538.366-5.2947,6.8075-1.4396,5.5631-.5856,5.6241-1.7812.5124-8.4545-3.1354-11.9192-4.5993-20.0687-.5856-3.2208-.6588-8.2715-1.1956-9.2109-.2916-.5468-8.1844-6.5918-9.6744-7.6981.2073-.7808.5855-1.5006,1.1833-2.0862,1.1209-1.0586.2285-.4137,3.5258.671,1.9398.6466,3.8186.732,5.6729-.2074,1.7822-10.0532,1.0843-10.4185-.793-14.591.2562.0122.488.061.732.1708,7.4565,3.4796,7.0877,8.1495,1.1468,13.7004,1.5554.9243,6.1135.538,5.7705,8.6619-.122,2.8914-.4635,6.1121,1.3298,8.3813,1.1712,1.5006,3.1476,2.3546,3.8917,4.0991.9321,2.1095-.941,7.4192,9.2475,10.6505,1.952.61,3.3428,1.0858,4.5993,1.9764,4.7553,9.0329,9.2454,18.0275,11.8096,28.2304,6.2152,24.7707,7.0709,22.6624,3.2328,23.8995Z" style="fill: #64392b;"/>
            <path d="m99.4488,49.7483c1.7446,9.1987,6.0389,10.5895-5.2947,15.2742,0,0-.0122.3782-.0488,1.0492-2.8807-3.961-6.2652-4.3755-10.2723-2.4522.7231-5.6735-.3902-16.9289-1.3664-19.5319-.5612-1.5128-.6954-3.111-.4269-4.0259.8295-.061,1.6591.0976,2.3668.488.8552,1.1761.545,1.1175.7564.5368,4.0164-16.1647,10.6007-2.9522,10.3453,11.7484-.0487,2.928-.4758,5.3801-1.403,6.5757,4.0503,1.8422,3.0622-2.0374,2.0984-6.9417-1.6536-8.3222-1.203-10.4771,4.4041-16.9212.4392.4514.8418.9272,1.2078,1.4274-2.9414,3.7748-3.6806,5.7167-2.3668,12.7732Z" style="fill: #64392b;"/>
            <g style="mix-blend-mode: soft-light; opacity: .6;">
              <path d="m74.2383,86.5662c-.6282,1.1755-1.4287,2.2698-2.3812,3.1716-4.9751-3.7998-11.4498-8.4303-16.05-10.7405.071-.456.1925-.8816.3749-1.2767,7.1435,1.3476,12.8481,7.1332,18.0563,8.8456Z"/>
            </g>
            <path d="m37.2358,64.445s-3.5223-14.2301-10.567-10.1443c-7.0447,4.086,1.2681,15.78,1.2681,15.78,0,0-8.5945-2.2543-6.7629,6.7629,1.8316,9.0171,15.4982,12.6804,25.079,11.1305,9.5807-1.5497,21.3659-5.0928,21.3659-5.0928,0,0,11.1803,4.6702,13.4346-3.9243,2.2543-8.5944-7.0447-8.0155-7.0447-8.0155,0,0,.8453-5.2284-5.213-7.3417-6.0584-2.1134-9.7217,2.9587-9.7217,2.9587,0,0,.5636-15.0755-21.8383-2.1134Z" style="fill: #9fb53b;"/>
            <path d="m118.9564,37.2434c.0484,5.1544-5.859,11.0898-13.4686,11.2117-1.7933.0366-4.0869-.8174-4.0014-2.6108-.9056,3.3109-3.6702,6.4964-7.6616,7.6005-5.2395,1.4105-8.8742-1.9628-8.2959-5.3679-1.767,1.1002-4.5819.9551-6.1487-.8052-2.1869-2.4163-1.0969-6.9694,2.6597-7.2101,1.1552-.0849,2.2517.245,3.1232,1.0248.4803.4803.3551.4786.0365-.1586-6.8208-12.7989,17.267-25.0647,21.4351-4.4285-.1708-.8662,5.3923-4.7579,6.4293-5.0019,3.3184-.8052,5.8559,2.806,5.8925,5.7461Z" style="fill: #88a133;"/>
            <path d="m108.8046,141.7992c-.7802.2431-1.5097.3749-2.1887.3952-5.2587.1926-7.5589-5.8059-7.7615-10.7302-.1216-2.6041.3546-4.9042,1.2868-5.8364,4.5292-4.5293,13.9728,14.4895,8.6634,16.1715Z" style="fill: #845c4f;"/>
            <g style="mix-blend-mode: soft-light;">
              <path d="m106.616,142.1944c-5.2587.1926-7.5589-5.8059-7.7615-10.7302,1.2565-.6485,3.0702-.8411,5.036,1.4083,3.3539,3.82,4.6001,5.8668,2.7256,9.3219Z"/>
            </g>
            <path d="m33.8522,114.0917c-15.4227-1.4751-17.6316,11.1175-11.3606,12.1454-9.395-2.5087-14.2933,7.2749-5.279,7.9329,2.8435.2075,5.7505-.5928,8.0872-2.2266-2.4106,3.6449,5.4341,7.6541,9.8321,2.5786.3717,3.5865,6.3577,5.218,9.1276,5.8467,5.0789,1.1528,11.5031,1.0946,16.237-1.2962.5688-.2873,1.1253-.6191,1.7447-.7694,1.8508-.4491,3.9248-.1679,5.8151-.4149.4369-.0571,4.0118-1.2469,2.7749-2.3655,3.6931,3.34,14.9618,5.5769,20.4985,1.8285,3.7774-2.5572,7.1186-9.698,5.0161-13.6212-2.8011-5.2265-14.781-3.7851-14.0919,1.5047-.1513-6.1891-9.7416-7.9243-12.69-.6692.3161-.7777-9.0945-8.237-20.1613-6.6022-.9239.1365-2.2434.8121-3.1354.7076-1.8671-.2189-3.7716-3.7523-12.4148-4.5791Z" style="fill: #88a133;"/>
            <path d="m33.9143,122.042c.1021-.6289.2239-1.3505.2577-1.5674.0619-.3815-.3637-.6564-.6853-.4363-.591.398-1.062.9515-1.4041,1.5801-.2744-.6571-.574-1.3495-.8193-1.7446-.7797-1.6763-3.1584-1.0189-2.997,2.2156-1.1861-.6463-1.9115-.0856-1.9909.789-4.022-1.7939-6.4859.73.416,2.734-1.2689-.7253-2.8097-1.2954-3.7022-2.4728-.146-.3604,2.3415-.2427,4.4396,1.6099l.0027-.0043c.0493.0262.0877.0699.1388.0924.5273.2569,1.0173-.5145.5459-.8803-.325-.2383-.7674-.4825-.7297-.9933.9256.2904,1.1302,1.1786,1.7972,1.0385.319-.0822.5111-.4076.4288-.7269-.1671-.776-.3167-2.5532.3462-3.0657.3183-.085,1.3996,2.6669,1.6648,3.115.1936.4892.9795.388,1.032-.1463.0647-.491.2428-.9717.5014-1.4083-.0459.5333-.0875,1.0467-.0919,1.216-.0576.4263.3115.7619.659.4348.5289-.802,1.1018-2.1891,2.2587-1.7609.5658.229,1.067.8873.8891,1.5843.5436-1.18-1.164-3.1439-2.9577-1.2023Z" style="fill: #495619;"/>
            <g>
              <path d="m78.66,128.9278c.0628-.3395-.5518-.9887-1.4674-.3639,2.1473-1.789-1.2268-.758-2.1751.1433,1.4043-1.2199-.3703-1.1664-1.0082.0142,1.6293-2.694-.934-1.736-1.4953.6495l7.7892-.1885c.4823.0028-.5764-.824-1.6432-.2546Z" style="fill: #88a133;"/>
              <path d="m78.8147,128.7147c-.0795-.3232-.4207-.5579-.7402-.6127-.0981-.0134.4897-.5483-.2938-.8057-.7258.0129-1.3799.2309-1.9905.5595-.091-.2722-.4641-.4605-1.0831-.1541.2958-1.3282-1.6481-1.0162-2.1932,1.6692.2325-1.3177,2.946-3.5109,1.2798-.7799l.0026.0013c-.1802.329.2755.5624.4339.2484l.0007.0004c.3109-.5502,1.4241-1.0809.5911-.359l.0012.0012c-.3113.2075.0627.7611.3994.4396l.0002.0004c.6216-.523,1.7251-.9616,2.2739-1.0385-.2069.2677-.5212.5119-.7945.7426l.0006.0007c-.2827.2134.0565.6271.3146.4104.3683-.2711.966-.8738,1.4186-.2902.1227.274-.0658.1252-.2325.3526.0218.278.4956.1898.604-.0634.04-.1304.6814-.3589,1.2499-.1502.108.0215.5419.245.2456.2952.484.0603-.3606-.821-1.4885-.4677Z" style="fill: #495619;"/>
            </g>
            <path d="m65.6553,131.9996c.427.2684.2074.4514-.3538,1.159-.122-.5124-.3782-.5978-.6465-.4636-.0123,0-.0123.0122-.0245.0122-.3782.1952-.4514.732,0-.7442.0854-.2684-.1342-.305-.4392-.0366-.2195.183-.4758.5002-.6831.9882-.0732-.122-.2563-.0854-.3782-.0366-2.2693,1.0614-2.3791-.6222-3.1355.3416.2806.4636-1.3176-.1464-1.342.2684-.1342-.0854-.2562-.1586-.3538-.2196-.3172-.183-.5002-.2196-.6344-.1098-.0732.0488-.1342.1342-.1952.2562.0366-.5368-.1586-.488-.3904-.1098-.671-.9028.854-4.5749.671-1.4518.0732-.0732.1586-.1342.2562-.183.2074-.0976.4514-.1098.6832-.0488.2928.0488.5856.2318.8052.5124.2928-.3416.2196-1.0492.7442-1.1102.5368-.061.5978.8174.8297.8418.2927.0366.3415-.7564.8661-.2928.9639.8662.5125-.8418,3.3794-1.0248.6588-.0488,1.0492.4636.3416,1.4518Z" style="fill: #88a133;"/>
            <path d="m68.9165,131.8004c-.1066-.2879-.3931-.4136-.632-.4816-.6995-.1649-1.4114-.0878-2.0815.1354.1485-.2688.1793-.6423-.0433-.8844-.5766-.4651-1.1629-.3174-1.6722-.2279-.7953.1951-1.516.6172-2.0919,1.1941-.1754-.7648-.7708-.7228-1.2694-.2011-.0604-.1615-.1385-.3178-.2542-.4583-.7319-.6589-1.2085.1024-1.4421.8336-.0143-.0171-.0216-.0372-.0368-.0538-.3399-.4268-.971-.4771-1.4246-.2578.0433-.4851.0871-.9723.0904-.975.0152-.129-.1414-.223-.2479-.1457-1.0557.7209-1.9982,1.6023-2.7551,2.6153.7847-.8287,1.673-1.5405,2.6293-2.1363l-.153,1.0692c-.0644.1374-.093.2949-.0682.4764l-.0012.0083h.0015c.0034.0235-.0038.0426.0015.0669.0178.0899.0909.1625.1873.1712.115.0106.2168-.0739.2274-.189.0009-.0012.0081-.0773.0174-.1788.1048-.7322,1.2502-.4827,1.377.3534.056.2657.4727.2606.517-.0127.0781-.401.2406-1.1523.5477-1.3343.233.016.4088.7923.2502,1.0325-.1471.3444.3916.5779.5418.2342.1397-.3076.3883-.7346.6555-.8935.0842.1817.0769.4691.0748.6981-.0129.2762.3808.4067.5333.1693.523-.7549,1.3255-1.3327,2.2196-1.5665,1.0421-.242,1.7446-.0094.7175.9754-.0749.0686-.0926.1837-.0359.2722.0634.0989.1951.1279.2941.0644.5978-.5207,3.7871-1.2837,3.0512.3109-.2212.4124-.586.7447-.9284,1.0813.5146-.4396,1.3903-.9518,1.2034-1.7653Z" style="fill: #495619;"/>
            <path d="m50.7345,134.0736c.2253.0549.2634.3342.1978.5102-.7298,1.3084-3.774-2.4878-3.8556-1.702-.2639,2.142-2.0748,1.9516-2.1255-.8535.0038-.2333-.3041-.3662-.4707-.1979-4.1318,3.9004-3.218.9271-1.0521-.989.2335-.193-.0133-.5873-.2906-.4487-1.3541.5386-2.8773,1.5489-4.3423,1.393-.5433-.1192,1.1827-2.4381,3.1792-2.4849-3.0633-.1735-6.349,4.771.1335,2.1225-1.9791,2.3074-1.2883,4.6009,2.3369,1.2145.3045,2.7691,2.5631,2.7516,2.9438.6418,3.6542,3.2116,4.0411.8838,3.3457.794Z" style="fill: #495619;"/>
            <path d="m79.673,60.7647c.1707.122.3171,2.8792.4391,3.5868-1.0447-.2612-2.214-.1836-3.416.366-.1801-1.2961-.3077-5.536.5612-6.4049.7198.9028,1.464,1.769,2.4157,2.4522Z" style="fill: #64392b;"/>
            <path d="m117.6022,85.3352c-2.1534,1.9828-4.279,3.7086-6.6733,5.6241-.3714-1.5101-.7687-2.1827-.0122-3.8673,1.8067-.5558,3.7849-1.3221,5.2215-2.5376,1.3786-1.1468,6.1853-10.2235,2.8426-1.7812,13.4442.7564-.61,1.8422-1.3786,2.562Z" style="fill: #64392b;"/>
            <path d="m152.5414,185.6474c-.0477.0938-1.2334,0-1.3395,0-97.3438,0-83.2634,1.6469-101.3591-5.7974-.7932-.3263-1.1135-.8118-.4769-1.3876,2.3264-2.1042,6.4551-.6311,10.2238.2606-9.5903-7.0979-9.4751-6.8749-9.5861-7.3691-.3533-1.5726,6.8347-4.1096,17.2261,2.5026-5.1699-6.0016-5.1199-5.8215-5.0995-6.2044.0288-.5424.9967-1.3488,3.1998-.1253,8.3629,4.6446,5.6072,4.2259-.412-4.019-2.2061-3.022,2.0249-4.3738,9.909,4.8754,1.0483-2.8574,3.236-16.0077,9.7737-14.7115-.0732,5.6363.2318,11.2727.9394,16.8602.8662-3.5015,3.8062-6.3074,4.953-6.1853,1.1591.1342,4.3431,4.9286,4.9531,5.9168.2318-2.2814,1.4396-4.4529,3.2696-5.8436,1.0127,2.2936,2.3181,4.4528,3.8797,6.4171-.5612-3.6722.5489-8.0885,1.4274-8.4179,1.22-.4514,7.4907,5.4044,9.9063,8.3812-.915-1.7201-1.342-3.6844-1.1956-5.624,2.0252.6709,3.843,1.9397,5.1849,3.599-.793-4.0749-.183-8.4057,1.7202-12.1024,2.1105,3.2818,3.5258,7.0149,4.099,10.8824,2.0619-20.2761,14.9083-17.3238,8.7962,4.5505,2.3668-3.7699,5.3557-7.9422,9.7964-8.3448-1.2078,2.9281-2.8302,5.673-4.7822,8.1617,3.0134-2.4278,6.8929-5.0506,10.3333-2.7692-2.3668,1.5128-4.4775,3.416-6.2219,5.6363,3.9161-2.2082,8.8693-2.4522,12.9684-.6222-9.9185,7.0514-9.6501,6.0876-1.0127,2.989,3.7511-1.3514.7355,4.9284-1.0735,8.491Z" style="fill: #88a133;"/>
            <path d="m86.2035,58.8268c-.6022,10.2042-7.3004,24.4188,5.3635,50.0569-6.4909-11.2053-9.1379-24.48-7.3696-37.3243.3307-3.3949,2.3107-12.7326,2.006-12.7326Z" style="fill: #64392b;"/>
            <path d="m87.9937,56.15c2.3713,7.1219-4.0174,19.3752-1.3209,31.0451,2.1272,10.3239,8.3638,19.7497,6.9152,30.3628,1.1917-10.7083-5.0623-20.1357-7.2133-30.3012-2.6374-11.8126,3.8456-23.9405,1.6189-31.1067h0Z" style="fill: #64392b;"/>
            <path d="m89.6991,57.0636c2.3161,10.3384-3.2341,19.9171-.2124,32.5665,1.7374,8.0032,6.6385,15.0823,7.7748,23.2763.4247,2.6736.7893,5.4827,2.3808,7.7569-1.6342-2.2444-2.0559-5.0696-2.5279-7.7323-1.2012-8.2046-6.1214-15.1765-7.9247-23.2336-2.9486-13.2882,2.6253-21.9778.5093-32.6338h0Z" style="fill: #64392b;"/>
            <path d="m91.8899,59.0687c1.749,7.0227-2.6459,20.5476-.2418,32.1393,1.5806,8.1419,6.7713,10.1795,10.9491,30.2482-8.2948-34.2696-14.5037-15.8927-10.5738-54.353.4952-5.6832-.01-8.0344-.1335-8.0344Z" style="fill: #64392b;"/>
            <path d="m100.9982,109.1737c-.2253-.9016-6.6936-13.8439-8.0153-21.9353-.5803-6.1118,1.122-5.0323.366-24.5705,1.133,17.2514-.662,18.6479-.061,24.5339,1.5433,9.054,6.7877,18.6917,7.7103,21.9719Z" style="fill: #64392b;"/>
            <path d="m100.6566,105.3429c-1.952-4.0625-4.0747-9.9063-2.0374-13.8712,0-.0294-.0168.0384.2196-.1586-2.5195,5.2147,1.8178,12.9161,1.8178,14.0298Z" style="fill: #64392b;"/>
            <path d="m101.6082,101.0364c0,.0087-.1309.3457-.1342.3538-1.1834-3.9771-1.8788-8.8449.5612-11.785,1.4044-.5601-3.1703.7557-.427,11.4313Z" style="fill: #64392b;"/>
            <path d="m104.2068,96.9982l-.183.2196c-.4514-2.9402-.3904-6.4293,1.1346-8.6253,1.321-.3777-1.7969.2897-.9516,8.4057Z" style="fill: #64392b;"/>
            <path d="m106.7444,94.4607c-.0489.0366-.0977.0854-.1343.122-.3172-2.0374-.3782-4.7091.5734-6.5025,1.0837-.361-.8597-.1555-.4391,6.3805Z" style="fill: #64392b;"/>
            <path d="m110.0994,87.3238c-.8418,1.6836-1.2932,3.538-1.3543,5.4167-.0854.061-.1707.1342-.2562.2196-.0717-2.8146,1.1729-5.5509,1.3055-5.5509.1097-.0244.2073-.0488.305-.0854Z" style="fill: #64392b;"/>
            <path d="m84.1198,63.4653c-1.5208,4.1656-2.3243,8.5234-2.3946,12.9573-.6611-8.2864,2.6971-12.9573,2.3946-12.9573Z" style="fill: #64392b;"/>
            <path d="m78.9653,71.3908c-.0244-2.0496,1.4763-3.7332,2.9036-5.1483.5796.1452-2.3865,2.2877-2.9036,5.1483Z" style="fill: #64392b;"/>
            <path d="m80.4781,65.1811c-1.3054.5002-2.3668,1.4884-2.9646,2.745-.3836-1.0221,2.3181-3.2306,2.9646-2.745Z" style="fill: #64392b;"/>
            <path d="m79.9901,63.2047c-2.5262-.1804-3.355,1.4292-3.355.915.793-.915,2.135-1.342,3.3306-1.1468.0123.0854.0244.1586.0244.2318Z" style="fill: #64392b;"/>
          </g>
        </g>
      </g>
    </g>
  </g>
</svg>