<svg xmlns="http://www.w3.org/2000/svg" viewBox="0 0 132.64 113.47"><title>Asset 44</title><g id="Layer_2" data-name="Layer 2"><g id="koumpi_odigiwn" data-name="koumpi odigiwn"><path d="M128.18,67.78C135.57,48,136.7,16.43,108.31,5.19s-92-6.32-107,35.74C-12.53,79.38,91.06,167,128.18,67.78Z" style="fill:#fff"/><path d="M102.17,46.35,74.44,15.93A7,7,0,0,0,64,16.08L37.22,47.34c-4.5,5.34.55,12.64,7.11,11.46l.28,18.51C44.69,83.17,43.41,93,52,93c13.4,1,9.93-5,10.22-14.89-.93-8.47,3.82-8.46,10.61-8.3,4.47-.13,5.66,4.49,5.26,8.12.5,4.2-1.91,14.78,5.12,14.59C96.68,93.3,96.15,88,95.71,76.75L95.43,58l1.71,0A7,7,0,0,0,102.17,46.35Z" style="fill:#0f0b09"/></g></g></svg>