<svg xmlns="http://www.w3.org/2000/svg" viewBox="0 0 272.85 376.91"><title>Asset 43</title><g id="Layer_2" data-name="Layer 2"><g id="koumpi_odigiwn" data-name="koumpi odigiwn"><path d="M202.07,170.5c53.07-6.49,62.08-49.38,62.08-49.38s7.72-.3,8.65-8.05c.49-4-2.84-5-4.68-3.95,0-2.88-2.9-4.51-6-2.08,0-2.3,2.13-13.32-2-14-3.34-.54-3.23,6.23-4.51,13.3-2.85-.68-5.49.51-5.86,3.81-.59,5.23,5.62,9,5.62,9s-4.07,36.08-54.13,45C196.39,166.18,197,171.77,202.07,170.5Z" style="fill:#0f0b09"/><path d="M105,301.76s40.67,75.13,49,75.15c6.84,0,29-51.32,40.58-77.34,1.83-14.55-3.36-33.38-44.54-33.38C105.53,266.19,105,301.76,105,301.76Z" style="fill:#f3b880"/><path d="M150.07,266.19A61.31,61.31,0,0,0,130.79,269c-1,.32-1.88.66-2.77,1s-1.75.74-2.57,1.14a37.39,37.39,0,0,0-6.54,4c-.63.49-1.24,1-1.82,1.5A37.17,37.17,0,0,0,105,301.76l.66,1c6.93-18.27,18.47-20.48,27.66-8.75,6.68-16.57,29.06-19.83,38.36-.63,5.72-10.09,20.8-10.9,22.75,6.6.05-.13.11-.26.17-.39C196.44,285,191.25,266.19,150.07,266.19Z" style="fill:#f4c292"/><path d="M161.11,275.59S145.68,376.89,154,376.91c6.84,0,29-51.32,40.58-77.34C202.25,269.85,161.11,275.59,161.11,275.59Z" style="fill:#f6cfa6"/><path d="M133.33,293c1.92,10.79,14.36,81.83,19.69,83.66,12.49-26.08,18.67-83.32,18.67-83.32s6.16-19.88-17.42-21.53S133.33,293,133.33,293Z" style="fill:#f4c292"/><path d="M131.66,281.07c0,15.52,5.62,44.95,11.24,62.25C139.73,313.49,131.66,281.07,131.66,281.07Z" style="fill:#f9dec3"/><path d="M171.81,291.16c.22,9.36.16,25.17-8,50.34C167.82,308.31,171.81,291.16,171.81,291.16Z" style="fill:#f9dec3"/><path d="M150.07,266.19c-44.54,0-45.06,35.57-45.06,35.57l.66,1c6.16-16.24,18.17-18.91,27.66-8.75,6.68-16.57,29.06-19.83,38.36-.63,5.72-10.09,20.8-10.9,22.75,6.6.05-.13.11-.26.17-.39C196.44,285,191.25,266.19,150.07,266.19Z" style="fill:#ce7541"/><path d="M192.37,283c-8.52-10.59-31.26-7.42-31.26-7.42s-.4,2.28-1,6.1c4.56,1.9,8.72,5.7,11.62,11.67,4.91-8.32,20.8-10.9,22.75,6.6.05-.13.11-.26.17-.39C195.28,294.25,195,288.35,192.37,283Z" style="fill:#c8713a"/><path d="M154.27,271.83C130.68,270.18,133.33,293,133.33,293c0,.21.08.44.12.68,6.52-13.63,28.6-16.9,38.24-.34C171.69,293.36,177.85,273.48,154.27,271.83Z" style="fill:#cd7c52"/><path d="M154,376.91c3.63,0,11.6-14.49,20-32-1.63-7.63-43.2-6.46-43.2,1.75C140.68,362.72,150.4,376.9,154,376.91Z" style="fill:#0f0b09"/><path d="M166,345.84c-2.76-1.86-9.62,15.24-6.9,16.66S168.76,347.69,166,345.84Z" style="fill:#9f9e9d"/><path d="M157.78,366.06c-1.54-1-4,4.49-2.5,5.29S159.31,367.09,157.78,366.06Z" style="fill:#9f9e9d"/><path d="M197.91,75.38c-1.24-28.44-.84-33.21-4-45.36S187.17,1.2,145,0c-23-.63-56,6.16-69.09,19.61s-9,29.86-7.69,43.64a196.17,196.17,0,0,0,4.26,25.76Z" style="fill:#eb7bab"/><path d="M180.67,13C172.22,4.89,139.32.84,141.09,8.1c1,4.26,25,15.91,36.56,16.09C186,24.32,186.86,19,180.67,13Z" style="fill:#f1a7c9"/><path d="M135.87,7.49c.45-3.86-12.25-3.16-12.28.43S135.42,11.34,135.87,7.49Z" style="fill:#f1a7c9"/><path d="M71.66,99.53S102.46,261.37,105,301.76c7.1-18.65,18.84-20.83,28.32-8.74-2.58-46.75-15.74-171.52-19-211.33C85.85,88.66,71.66,99.53,71.66,99.53Z" style="fill:#306fb6"/><path d="M114.34,81.69c-28.49,7-42.68,17.84-42.68,17.84s.6,3.16,1.64,8.72a240.78,240.78,0,0,1,42.28-12.38C115.08,90.42,114.66,85.63,114.34,81.69Z" style="fill:#1d4a7f"/><path d="M166.07,80s7,171.16,5.62,212.37c-8.55-19.66-31.47-17.19-38.36.63-2.58-46.75-15.74-171.52-19-211.33C150.62,77.68,166.07,80,166.07,80Z" style="fill:#3f8ed4"/><path d="M166.55,92.08c-.3-7.62-.48-12.06-.48-12.06s-15.45-2.34-51.73,1.67c.32,3.94.74,8.73,1.24,14.18A213.56,213.56,0,0,1,166.55,92.08Z" style="fill:#306fb6"/><path d="M133.33,293c-4.74-38.56-17.68-177.91-19-211.33C121.26,125.21,133.69,278.21,133.33,293Z" style="fill:#a1d8f5"/><path d="M166.07,80s7,171.16,5.62,212.37c5.95-10.5,22.05-12.76,22.92,7.18,4.64-17.09,10.45-157.17,8.54-209C194.6,83.64,166.07,80,166.07,80Z" style="fill:#49a1e2"/><path d="M191.54,217.74c-6.8-1.57-7.41,37.13-1,37.88S198.34,219.31,191.54,217.74Z" style="fill:#a1d8f5"/><path d="M190.59,263.6c-3.78-.87-4.48,11.83-.91,12.25S194.37,264.47,190.59,263.6Z" style="fill:#a1d8f5"/><path d="M203.15,90.55C194.6,83.64,166.07,80,166.07,80s.18,4.44.48,12.06c22.51,1.1,35.9,5.67,35.9,5.67a3.21,3.21,0,0,0,.91.1C203.3,95.26,203.24,92.82,203.15,90.55Z" style="fill:#3f8ed4"/><path d="M171.69,292.39c1.64-37-6.3-178.59-5.62-212.37C171.53,125.45,175.26,280.54,171.69,292.39Z" style="fill:#a1d8f5"/><path d="M203.1,50.78c3.77,3.74,7.57,25.14,6.65,34.45S203.44,93,203.44,93s-53.72-22.26-131,11.25c-4.11.84-7.55-2-9.9-13.71-1.31-6.56-2.78-18.5-.49-27S88.81,44.85,128.82,39C168.62,33.24,193.29,41,203.1,50.78Z" style="fill:#d6d7d7"/><path d="M60.18,81a3.17,3.17,0,0,1-1.12-.21,3.13,3.13,0,0,1-1.8-4c3.45-9,29.6-21.09,72.9-26.83,21.75-2.88,40.49-2.76,55.71.37,11.63,2.39,20.75,6.59,25,11.54a3.13,3.13,0,1,1-4.74,4.08c-5.28-6.13-27.78-16.07-75.16-9.79C106.73,59.35,90.7,64.26,81.52,67.8,68.43,72.86,63.78,77.23,63.1,79A3.14,3.14,0,0,1,60.18,81Z" style="fill:#aeb0b0"/><path d="M63.93,99.61a3.05,3.05,0,0,1-.6-.06,3.13,3.13,0,0,1-2.47-3.67c.86-4.45,7.55-9.67,18.35-14.34,9.31-4,26.12-9.47,53.39-12.68,42.92-5,72.85,3.49,79.56,10.86a3.13,3.13,0,0,1-4.62,4.21c-2.16-2.36-10.11-5.91-22.49-8.13-10.47-1.88-28-3.53-51.72-.73-50.83,6-65.71,19.73-66.34,22A3.11,3.11,0,0,1,63.93,99.61Z" style="fill:#aeb0b0"/><path d="M145,41.37c-2.9,3.8,34,5.91,36.15,2.26S147.92,37.58,145,41.37Z" style="fill:#e6e6e6"/><ellipse cx="111.98" cy="142.05" rx="11.75" ry="5.87" transform="translate(-4.74 3.87) rotate(-1.94)" style="fill:#eb7bab"/><ellipse cx="180.72" cy="136.25" rx="11.75" ry="5.87" transform="translate(-15.49 23.44) rotate(-7.12)" style="fill:#eb7bab"/><circle cx="114.22" cy="116.64" r="16.85" style="fill:#fff"/><circle cx="116.14" cy="116.88" r="12.45" transform="translate(-21.65 26.53) rotate(-11.93)" style="fill:#0f0b09"/><path d="M114.16,113.39a3.6,3.6,0,1,1-3.46-3.74A3.6,3.6,0,0,1,114.16,113.39Z" style="fill:#fff"/><path d="M124.33,122.56a1.88,1.88,0,1,1-1.8-1.94A1.87,1.87,0,0,1,124.33,122.56Z" style="fill:#fff"/><circle cx="172.68" cy="111.89" r="16.85" transform="translate(-32.87 121.24) rotate(-35.55)" style="fill:#fff"/><circle cx="170.82" cy="112.43" r="12.45" transform="translate(-6.85 11.17) rotate(-3.67)" style="fill:#0f0b09"/><circle cx="175.76" cy="107.97" r="3.6" transform="translate(-26.34 66.68) rotate(-20.02)" style="fill:#fff"/><path d="M163.64,119.33a1.87,1.87,0,1,0,1.47-2.2A1.87,1.87,0,0,0,163.64,119.33Z" style="fill:#fff"/><path d="M148.53,164.45a38.43,38.43,0,0,1-10.46-.41c2,2.15,5.58,3.8,10.69,3.39s8-2.48,10-5.05A35.63,35.63,0,0,1,148.53,164.45Z" style="fill:#eb7bab"/><path d="M146.43,138.37a51.45,51.45,0,0,1-22-3c4.37,13.38,12.43,25.12,23.68,24.23s16.45-12.92,19.56-27.65A51.54,51.54,0,0,1,146.43,138.37Z" style="fill:#0f0b09"/><path d="M160,135.47a52.46,52.46,0,0,1-28.08,2c4,4.8,9,7.73,14.85,7.27S156.81,140.8,160,135.47Z" style="fill:#fff"/><path d="M144.23,149.44a22.9,22.9,0,0,0-13,.17c4.37,6.35,10,10.51,16.9,10a14.61,14.61,0,0,0,7.39-2.65A23.07,23.07,0,0,0,144.23,149.44Z" style="fill:#eb7bab"/><path d="M141.25,122.3c-1.83-.51-4.36,5.26-1.07,6.18C141.83,129,143,122.79,141.25,122.3Z" style="fill:#0f0b09"/><path d="M148.17,121.75c1.72-.79,5.13,4.51,2,5.94C148.64,128.41,146.49,122.52,148.17,121.75Z" style="fill:#0f0b09"/><path d="M98.62,91.33c1-6.47,7.3-14.18,16.65-13.54l.12,0c1.88.21,4.19,7.44,1.9,7.87A41.11,41.11,0,0,0,99.43,91.8.51.51,0,0,1,98.62,91.33Z" style="fill:#0f0b09"/><path d="M183.07,87.7c-.72-6.51-6.65-14.51-16-14.29h-.13c-1.88.12-4.53,7.24-2.26,7.77a41.18,41.18,0,0,1,17.57,6.94A.51.51,0,0,0,183.07,87.7Z" style="fill:#0f0b09"/><rect y="174.63" width="145.78" height="101.76" rx="3.36" style="fill:#eb7bab"/><rect x="7.24" y="181.05" width="131.1" height="88.92" rx="3.36" style="fill:#fff"/><path d="M63.88,169.63c-4.08,2.26-7.32,10.21-3.51,14.76,2.55,3.06,3.06-1.95,4.44-6-.41,5.3,4.2,14.06,6.39-.18,1.09,5.88,5.13,11.3,6.14,2.9-.23-.49-.13-5.83,1.36-6,1.84-.21,3.24.2,5.81-.1C87.46,173,74.43,163.82,63.88,169.63Z" style="fill:#0f0b09"/><path d="M71.93,199.48c-40.26,30.28-40.14,19.41,0,49.65,3.18,2.32,7.49-.12,7.49-4.24V203.72C79.42,199.59,75.11,197.15,71.93,199.48Z" style="fill:#0f0b09"/><path d="M89.25,209.46c.39.28,11.92-4.75,12.52-4.86,2.87-1.06,1.29-6-1.68-4.8l-11.68,4.7C86,205.36,86.64,209.52,89.25,209.46Z" style="fill:#0f0b09"/><path d="M101.77,244.17l-11-6.64c-2.79-1.67-5,3-2.34,4.47.57.2,11.73,7.45,12.18,7C103,249,103.86,245.31,101.77,244.17Z" style="fill:#0f0b09"/><path d="M104,221H89.25a2.57,2.57,0,0,0,0,5.12H104C107.1,226.15,107.1,220.93,104,221Z" style="fill:#0f0b09"/></g></g></svg>