<svg xmlns="http://www.w3.org/2000/svg" viewBox="0 0 70.23 70.23"><defs><style>.cls-1{fill:#2e3192;}.cls-2{fill:#fff;}</style></defs><g id="Layer_2" data-name="Layer 2"><g id="Layer_1-2" data-name="Layer 1"><g id="_5" data-name=" 5"><circle class="cls-1" cx="35.12" cy="35.12" r="32.49"/><path class="cls-2" d="M35.12,70.23A35.12,35.12,0,1,1,70.23,35.12h0A35.15,35.15,0,0,1,35.12,70.23Zm0-65A29.87,29.87,0,1,0,65,35.12,29.87,29.87,0,0,0,35.12,5.25Z"/><path class="cls-2" d="M33.06,21.7C11.34,38,11.4,32.17,33.06,48.49a2.58,2.58,0,0,0,4-2.29V24a2.58,2.58,0,0,0-2.42-2.74A2.53,2.53,0,0,0,33.06,21.7Z"/><path class="cls-2" d="M42.41,27.08c.2.15,6.43-2.56,6.75-2.62,1.55-.57.7-3.23-.91-2.59L42,24.41a1.4,1.4,0,0,0,.46,2.67Z"/><path class="cls-2" d="M49.16,45.82l-5.94-3.59c-1.51-.9-2.7,1.61-1.27,2.41.31.11,6.34,4,6.58,3.76a1.4,1.4,0,0,0,.63-2.58Z"/><path class="cls-2" d="M50.36,33.3h-8a1.38,1.38,0,0,0,0,2.76h8C52,36.09,52,33.27,50.36,33.3Z"/></g></g></g></svg>