<?xml version="1.0" encoding="UTF-8"?>
<svg width="84.706mm" height="59.909mm" version="1.1" viewBox="0 0 84.706 59.909" xmlns="http://www.w3.org/2000/svg" xmlns:xlink="http://www.w3.org/1999/xlink">
 <defs>
  <linearGradient id="linear-gradient-447" x1="660.6" x2="769.79" y1="407.72" y2="407.72" xlink:href="#linear-gradient-269"/>
  <linearGradient id="linear-gradient-269" x1="-270.68" x2="-10.053" y1="310.34" y2="310.34" gradientTransform="matrix(-1 0 0 1 1590.3 0)" gradientUnits="userSpaceOnUse">
   <stop stop-color="#b4f5fc" offset="0"/>
   <stop stop-color="#fff" offset="1"/>
  </linearGradient>
  <linearGradient id="linear-gradient-448" x1="487.75" x2="663.83" y1="373.09" y2="373.09" xlink:href="#linear-gradient-269"/>
  <linearGradient id="linear-gradient-449" x1="760.17" x2="803.14" y1="356.49" y2="356.49" xlink:href="#linear-gradient-269"/>
  <linearGradient id="linear-gradient-450" x1="770.84" x2="805.29" y1="442.9" y2="442.9" xlink:href="#linear-gradient-269"/>
  <linearGradient id="linear-gradient-451" x1="774.51" x2="807.9" y1="396.19" y2="396.19" xlink:href="#linear-gradient-269"/>
  <linearGradient id="linear-gradient-452" x1="606.72" x2="637.09" y1="397.59" y2="397.59" xlink:href="#linear-gradient-269"/>
 </defs>
 <g transform="translate(-87.904 -117.35)">
  <g id="_3_-_wind" transform="matrix(.26458 0 0 .26458 -41.146 42.06)" style="isolation:isolate" data-name="3 - wind">
   <g id="yGbAjc">
    <path d="m729.2 356.25c-0.5459-8.36 1.59-11.858 7.4177-12.776 8.0248-1.2642 15.079 3.1766 16.724 10.528 2.4392 10.903-3.198 21.532-14.335 26.658-9.2482 4.257-19.148 5.7109-29.208 6.2143-9.7768 0.4891-19.617-0.4475-29.34 1.25-3.7291 0.651-7.4877 1.2974-10.866 3.7358 1.8873 1.7627 3.7782 1.0634 5.3907 0.8519 21.7-2.8461 43.216 1.0949 64.82 1.6319 4.3234 0.1074 8.6693 0.4252 12.967 0.1169 3.6489-0.2618 7.31-1.2327 8.9069-5.2324a5.3255 5.3255 0 0 0-1.3436-6.2533c-3.3612-3.1957-6.6884-1.1865-10.297 0.4112-0.8137-4.1236-0.7455-7.5994 3.6433-9.2136 4.707-1.7312 11.999 1.2209 14.277 5.5592 4.5453 8.6563 0.321 18.599-9.2312 21.046-8.9691 2.2979-18.125 1.1653-27.194 0.6022-15.686-0.9738-31.342-2.5529-47.091-2.0178a8.2936 8.2936 0 0 0-5.1952 1.67c10.258 1.4164 20.545 2.657 30.768 4.2979 10.556 1.6945 21.089 3.59 31.557 5.7608a37.551 37.551 0 0 1 17.681 8.51c4.5516 4.0609 5.4953 9.2572 3.9736 15.001-1.2225 4.6146-4.7268 6.5068-9.031 7.198-7.6514 1.2287-10.074-1.7833-7.9645-9.7769 1.2176-0.7171 1.43 0.4514 1.9747 1.0524 2.3911 2.6384 4.9235 2.2083 7.0635-0.1236 2.453-2.6729 1.1584-5.1347-1.2611-6.9855-4.239-3.2427-9.282-4.8493-14.329-6.2153-20.726-5.61-41.968-8.3319-63.211-11.007a3.4117 3.4117 0 0 0-2.7558 1.0031c10.565 3.07 21.146 6.0855 31.69 9.2256 9.65 2.874 18.909 6.6355 27.111 12.638 9.4056 6.8831 13.957 15.942 12.604 27.744-1.0763 9.3893-6.6275 13.503-17.397 12.716-8.5143-0.6224-12.911-5.7479-12.681-14.563 0.1718-6.5875 4.1341-8.9769 10.815-9.8548-1.2261 2.2985-2.2377 3.9053-2.9739 5.63-2.1825 5.112-0.5212 9.495 4.1463 11.234 4.739 1.765 9.676-0.956 10.823-6.3627 1.4625-6.8946-1.3963-12.525-6.14-17.243a47.803 47.803 0 0 0-19.961-11.481c-14.778-4.5882-29.604-9.0226-44.44-13.42-5.267-1.5613-8.6026-3.6045-5.5455-10.031a13.884 13.884 0 0 0-0.141-12.017c-2.332-4.67 0.1753-6.8267 3.5126-8.7252 6.292-3.5792 13.202-4.7869 20.37-4.9133 13.202-0.2327 26.462 0.31 39.49-2.5261 5.8238-1.2676 11.484-3.0424 15.947-7.2929 5.4985-5.2376 7.388-13.146 4.1948-17.174-3.2691-4.1253-7.7296-3.4046-15.933 2.9181z" fill="url(#linear-gradient-447)"/>
    <path d="m497.34 284.57c-5.4648 18.541-1.7664 25.25 15.772 30.218 16.761 4.7478 33.409 2.751 50.007-1.0221 15.152-3.4446 30.314-6.4736 45.936-3.0252 12.473 2.7532 21.706 9.571 26.046 21.729 3.606 10.101 9.447 18.015 18.708 23.492a27.473 27.473 0 0 1 6.2437 5.2578c5.17 5.7318 5.1983 11.864-0.9069 16.621-4.7853 3.7281-6.6644 7.1258-4.5011 13.107a10.431 10.431 0 0 1-2.7617 11.89c-3.0928 2.8709-2.7971 6.3-0.2877 9.8227 10.018 14.064 3.67 27.103-14.112 29.201a2.4881 2.4881 0 0 1-0.68 0.0442c-18.152-3.0451-31.619 5.5929-43.761 17.539-1.846 1.8161-3.39 3.556-5.97 0.4652-2.2512-2.6964-0.7409-3.8742 1.045-5.4894 4.3945-3.9745 8.571-8.2026 13.104-12.009 7.0649-5.9324 14.974-9.24 24.566-7.6979a28.34 28.34 0 0 0 19.723-3.9117c6.2337-3.839 7.1661-8.3594 1.9912-13.3-5.92-5.6524-6.4187-11.132-1.6112-17.403 1.9237-2.5091 1.4958-5.0485 0.568-7.754-3.8856-11.331-3.8638-11.338 5.5244-19.444 0.3451-0.2979 0.6792-0.6088 1.03-0.8991 3.2638-2.6987 3.4364-5.3885-0.4459-7.4763-11.678-6.28-18.64-16.4-23.529-28.293-5.7556-14.002-16.826-19.677-31.332-19.819-11.228-0.11-22.189 1.8648-33.096 4.3353-21.446 4.8576-42.823 6.3619-63.895-1.8676-7.3614-2.8749-12.085-7.7854-12.846-16.063-0.7151-7.7808 1.7973-13.748 9.4725-18.248z" fill="url(#linear-gradient-448)"/>
    <path d="m768.95 353.31c-1.3116 4.9521-2.807 10.141 2.4361 13.424 4.6475 2.91 9.898 3.63 14.962 0.9392 5.5935-2.9731 9.0006-7.7185 9.2151-14.17 0.1368-4.1174-1.4261-7.5931-5.723-9.1421-2.6428-0.9527-5.0864-0.4959-6.7674 1.7131-2.8108 3.6933-0.5815 6.8189 1.5323 9.8706 0.4944 0.7137 0.9377 1.4628 1.4878 2.3263-7.044 0.9936-10.707-1.8346-11.614-8.628-0.8432-6.3136 3.5955-11.936 10.282-13.024 13.076-2.1276 21.292 8.8194 17.412 23.201-4.2462 15.742-24.476 22.16-36.977 11.681-4.1879-3.5106-6.007-8.1066-4.5195-13.428 1.0411-3.7241 3.9989-5.2331 8.2736-4.7633z" fill="url(#linear-gradient-449)"/>
    <path d="m786.29 442.07c-2.2384 3.9944-5.0118 7.6724-0.1184 10.045 4.7028 2.28 8.5309-0.2874 10.739-4.4986 3.91-7.4572-0.95-14.622-9.4173-14.266-4.1553 0.1744-6.0409 1.0973-16.645 8.1476 0.6587-8.901 4.0263-13.142 11.865-14.943 8.876-2.0392 17.594 0.7337 20.64 6.565 3.3955 6.5 2.16 18.004-2.4261 22.584-4.1133 4.1084-14.808 5.5877-19.912 2.7673-4.3129-2.3833-4.9546-6.3875-4.2523-10.621 0.7955-4.7961 4.499-5.652 9.5267-5.78z" fill="url(#linear-gradient-450)"/>
    <path d="m790.41 411.29c-12.354 2.1628-18.038-3.6838-15.178-15.486 2.7679-11.425 16.315-18.327 27.019-13.698 5.38 2.3261 6.19 6.944 5.3713 11.994-0.8392 5.1763-4.1339 7.0157-11.374 6.8174-0.0462-0.3845-0.2831-0.9313-0.1111-1.1382 2.4372-2.93 6.2445-5.9007 2.34-9.8484-3.589-3.6285-7.6817-1.5577-11.146 0.8864-6.9422 4.8975-7.1342 11.564-0.7138 16.896 1.3146 1.0916 3.299 1.5436 3.7929 3.5782z" fill="url(#linear-gradient-451)"/>
    <path d="m615.13 423.85c25.689-19.188 16.521-48.024-8.4077-50.708 15.499-5.8249 28.371 1.6694 30.09 17.877 1.2722 11.996-1.5233 22.714-11.998 30.104-2.7663 1.9518-5.9427 3.3139-9.6848 2.7273z" fill="url(#linear-gradient-452)"/>
   </g>
   <rect x="592.57" y="474.71" width="122.74" height="32.379" rx="13.007" fill="#fff"/>
   <circle cx="609.9" cy="490.91" r="18.584" fill="#2e3192"/>
   <path d="m609.9 511a20.084 20.084 0 1 1 20.084-20.084 20.106 20.106 0 0 1-20.084 20.084zm0-37.167a17.084 17.084 0 1 0 17.084 17.084 17.103 17.103 0 0 0-17.084-17.083z" fill="#fff"/>
   <g fill="#2e3192">
    <path d="m633.4 487.19 1.8545-3.29 2.5547 1.1026-2.3418 2.1875zm0.4522 9.9375 5.23-12.288h2.9473l5.2295 12.288h-3.5029l-0.8545-2.1534h-4.76l-0.8545 2.1534zm5.29-4.7256h2.76l-1.3672-3.503h-0.0339z"/>
    <path d="m646.13 488.14h3.2724l1.8369 5.2891h0.0352l1.8623-5.2891h3.1963l-3.5811 9.0317h-3.0332z"/>
    <path d="m658.5 492.5v-0.0342a2.1037 2.1037 0 0 1-1.0595-0.726 1.9449 1.9449 0 0 1-0.4268-1.2305 2.1752 2.1752 0 0 1 1.2813-2 5.9559 5.9559 0 0 1 2.6152-0.5557 6.6677 6.6677 0 0 1 2.4014 0.3677 5.1051 5.1051 0 0 1 1.7168 1.1362l-1.7168 1.6665a3.0341 3.0341 0 0 0-2.2559-0.88c-0.582 0-1.0684 0.1967-1.0684 0.7177q0 0.6666 0.8711 0.667h1.6329v1.7857h-1.752c-0.6494 0-1.0508 0.2734-1.0508 0.7861q0 0.82 1.3838 0.82a3.6593 3.6593 0 0 0 2.5381-1.0513l1.6572 1.7008a6.3034 6.3034 0 0 1-4.4258 1.6489c-2.7939 0-4.1787-0.9311-4.1787-2.666a2.2125 2.2125 0 0 1 1.8369-2.1529z"/>
    <path d="m666.53 500.45v-12.305h3.0595v4.9219c0 1.0254 0.47 1.6064 1.2989 1.6064 0.6494 0 1.1709-0.53 1.1709-1.5557v-4.9726h3.076v8.98h-3.0254v-0.8374h-0.0341a1.3675 1.3675 0 0 1-1.2647 0.9228 1.25 1.25 0 0 1-1.1875-0.82h-0.0342v4.0591z"/>
    <path d="m678 489.27a5.3318 5.3318 0 0 1 7.0156 0 4.8177 4.8177 0 0 1-9e-3 6.7334 5.3335 5.3335 0 0 1-7.0146 0 4.8189 4.8189 0 0 1 8e-3 -6.7334zm2.205 4.8018a1.6544 1.6544 0 0 0 1.3155 0.581 1.61 1.61 0 0 0 1.2988-0.5634 2.4417 2.4417 0 0 0-0.0254-2.9141 1.7437 1.7437 0 0 0-2.6142-0.0171 2.2491 2.2491 0 0 0-0.4786 1.47 2.1345 2.1345 0 0 0 0.5039 1.4436z"/>
    <path d="m689.72 488.58a4.9888 4.9888 0 0 1 2.5381-0.624 4.4272 4.4272 0 0 1 3.9482 1.94l-2.1875 1.5722a1.9526 1.9526 0 0 0-1.7607-0.9228 1.5245 1.5245 0 0 0-1.2393 0.5893 2.23 2.23 0 0 0-0.4785 1.419 2.2776 2.2776 0 0 0 0.3164 1.3242 2.5056 2.5056 0 0 0 1.47 0.9741c0.47 0.1626 0.8545 0.3076 1.1455 0.4273a6.968 6.968 0 0 1 0.8369 0.4189 2.178 2.178 0 0 1 0.6064 0.5039 2.3531 2.3531 0 0 1 0.4532 1.4868 9.0174 9.0174 0 0 1-0.47 2.4951h-2.3838q0.0249-0.1149 0.1026-0.436c0.0508-0.2134 0.0849-0.376 0.11-0.4785a4.3382 4.3382 0 0 0 0.1035-0.7261 0.9167 0.9167 0 0 0-0.6152-0.8286 7.01 7.01 0 0 0-1.2822-0.4785 0.7389 0.7389 0 0 1-0.0938-0.0259 4.2851 4.2851 0 0 1-3.3408-4.5459 4.4911 4.4911 0 0 1 2.221-4.0845z"/>
   </g>
   <g fill="#fff">
    <path d="m608.73 483.24c-12.423 9.3457-12.388 5.99 0 15.322a1.4776 1.4776 0 0 0 2.3133-1.3091v-12.704a1.4777 1.4777 0 0 0-2.3133-1.3091z"/>
    <path d="m614.07 486.32c0.119 0.0866 3.6773-1.4643 3.8629-1.4993 0.8848-0.3247 0.3977-1.8491-0.5185-1.48l-3.6038 1.4487a0.8041 0.8041 0 0 0 0.2594 1.5306z"/>
    <path d="m617.94 497.03-3.3976-2.0489c-0.8626-0.5165-1.5458 0.9193-0.7241 1.3771a37.974 37.974 0 0 0 3.759 2.1506 0.8056 0.8056 0 0 0 0.3627-1.4788z"/>
    <path d="m618.62 489.87h-4.55a0.7921 0.7921 0 0 0 0 1.58h4.55c0.9581 0.0158 0.9561-1.5954 0-1.58z"/>
   </g>
  </g>
 </g>
</svg>
