<?xml version="1.0" encoding="UTF-8" standalone="no"?>
<!-- Generator: Adobe Illustrator 27.4.0, SVG Export Plug-In . SVG Version: 6.00 Build 0)  -->

<svg
   version="1.1"
   id="Layer_1"
   x="0px"
   y="0px"
   viewBox="0 0 60.644442 57.299998"
   xml:space="preserve"
   sodipodi:docname="print.svg"
   width="60.644444"
   height="57.299999"
   inkscape:version="1.2.1 (9c6d41e410, 2022-07-14)"
   xmlns:inkscape="http://www.inkscape.org/namespaces/inkscape"
   xmlns:sodipodi="http://sodipodi.sourceforge.net/DTD/sodipodi-0.dtd"
   xmlns="http://www.w3.org/2000/svg"
   xmlns:svg="http://www.w3.org/2000/svg"><defs
   id="defs1274">
	

		
		
		
		
		
		
	</defs><sodipodi:namedview
   id="namedview1272"
   pagecolor="#ffffff"
   bordercolor="#000000"
   borderopacity="0.25"
   inkscape:showpageshadow="2"
   inkscape:pageopacity="0.0"
   inkscape:pagecheckerboard="0"
   inkscape:deskcolor="#d1d1d1"
   showgrid="false"
   inkscape:zoom="19.122726"
   inkscape:cx="25.336346"
   inkscape:cy="42.828623"
   inkscape:window-width="1920"
   inkscape:window-height="1017"
   inkscape:window-x="-8"
   inkscape:window-y="-8"
   inkscape:window-maximized="1"
   inkscape:current-layer="Layer_1" />
<style
   type="text/css"
   id="style1254">
	.st0{fill:#8F63BC;}
</style>
<path
   class="st0"
   d="m 18.687883,46.436405 c 0,-1.8 0,-3.5 0,-5.3 0,-0.2 0,-0.4 0.2,-0.5 0.1,-0.1 0.3,-0.1 0.5,-0.1 0.2,0.1 0.2,0.3 0.2,0.5 0,1 0,2.1 0,3.1 0,2.1 0.1,4.2 0,6.3 0,0.5 0.1,0.9 0,1.4 0,0.3 -0.1,0.6 -0.5,0.5 -0.3,0 -0.4,-0.3 -0.4,-0.6 0,-1.7 0,-3.5 0,-5.3 0,0 0,0 0,0 z"
   id="path2139"
   style="fill:#a97756;fill-opacity:1" />
<path
   class="st0"
   d="m 30.4,30.3 c -6.9,0 -13.8,0 -20.8,0 -0.2,0 -0.5,0 -0.7,0 -0.9,0 -1.4,0.5 -1.4,1.4 0,2.9 0,5.8 0,8.7 0,1.1 0,2.3 0,3.4 0,0.3 -0.1,0.5 -0.4,0.5 -0.9,0 -1.8,0.1 -2.8,-0.2 C 1.7,43.4 0,41.1 0,38.4 0,32 0,25.6 0,19.1 c 0,-2.9 2,-5.3 4.8,-5.8 0.7,-0.2 1.4,-0.2 2,-0.2 1.7,0 3.4,0 5.2,0 0.4,0 0.5,-0.1 0.5,-0.5 0,-3.8 0,-7.5 0,-11.3 0,-0.2 0,-0.4 0,-0.5 0.1,-0.4 0.4,-0.7 0.8,-0.8 0.1,0 0.3,0 0.4,0 11.1,0 22.2,0 33.3,0 1.1,0 1.3,0.2 1.3,1.3 0,3.7 0,7.5 0,11.2 0,0.6 0,0.6 0.6,0.6 1.7,0 3.4,0 5.2,0 1.2,0 2.4,0.1 3.4,0.7 2,1.1 3.1,2.9 3.1,5.1 0.1,6.5 0,13 0,19.5 0,3.2 -2.7,5.8 -5.8,5.8 -0.4,0 -0.9,0 -1.3,0 -0.2,0 -0.3,0 -0.3,-0.3 0.1,-1.2 0,-2.4 0,-3.6 0,-2.6 0,-5.1 0,-7.7 0,-0.4 0,-0.8 -0.1,-1.2 -0.1,-0.6 -0.5,-1.1 -1.2,-1.1 -0.2,0 -0.4,0 -0.5,0 -6.9,0 -13.9,0 -21,0 0,0 0,0 0,0 z m 0,-28.5 c -5.2,0 -10.4,0 -15.5,0 -0.6,0 -0.6,0 -0.6,0.6 0,5.9 0,11.8 0,17.7 0,0.7 0,0.7 0.7,0.7 10.2,0 20.4,0 30.6,0 0.2,0 0.4,0 0.5,0 0.4,0 0.5,-0.1 0.5,-0.5 0,-6 0,-12 0,-18 0,-0.6 0,-0.6 -0.6,-0.6 -5.2,0.1 -10.4,0.1 -15.6,0.1 z"
   id="path2131"
   style="fill:#a97756;fill-opacity:1" /><path
   class="st0"
   d="m 30.5,31.1 c 7,0 14,0 21.1,0 0.9,0 1,0.1 0.9,0.9 -0.1,3.5 0,7.1 0,10.6 0,0.3 0,0.6 0,0.9 0,0.5 -0.2,0.6 -0.6,0.6 -1,0 -1.9,0 -2.9,0 -0.4,0 -0.5,0.1 -0.5,0.5 0,3.9 0,7.7 0,11.6 0,0.7 -0.3,1.1 -1,1.1 -11.3,0 -22.5,0 -33.8,0 -0.9,0 -1.1,-0.2 -1.1,-1.2 0,-3.7 0,-7.5 0,-11.2 0,-0.7 0,-0.8 -0.8,-0.8 -0.9,0 -1.8,0 -2.7,0 -0.4,0 -0.6,-0.2 -0.6,-0.6 0,-0.7 0,-1.5 0,-2.2 0,-3.1 0,-6.3 0,-9.4 0,-0.9 0,-0.9 0.9,-0.9 7,0.1 14,0.1 21.1,0.1 z m -0.1,24.5 c 0,0 0,0 0,0 5.2,0 10.5,0 15.7,0 0.4,0 0.6,-0.1 0.6,-0.6 0,-5.8 0,-11.7 0,-17.5 0,-0.5 -0.1,-0.6 -0.6,-0.6 -10.4,0 -20.8,0 -31.2,0 -0.4,0 -0.6,0.1 -0.6,0.6 0,5.8 0,11.6 0,17.4 0,0.6 0,0.6 0.6,0.6 5.2,0.1 10.3,0.1 15.5,0.1 z"
   id="path2133"
   style="fill:#a97756;fill-opacity:1" /><path
   class="st0"
   d="m 30.422938,51.747706 c 3.6,0 7.2,0 10.8,0 0.1,0 0.3,0 0.4,0 0.2,0 0.4,0.2 0.4,0.4 0,0.3 -0.1,0.4 -0.4,0.5 -0.1,0 -0.3,0 -0.4,0 -7.2,0 -14.4,0 -21.7,0 -0.6,0 -0.9,-0.2 -0.8,-0.5 0.1,-0.5 0.5,-0.4 0.8,-0.4 3.7,0 7.3,0 10.9,0 z"
   id="path2135"
   style="fill:#a97756;fill-opacity:1" /><path
   class="st0"
   d="m 30.422938,41.352245 c -3.6,0 -7.2,0 -10.9,0 -0.1,0 -0.2,0 -0.4,0 -0.2,0 -0.4,-0.1 -0.4,-0.4 0,-0.3 0.1,-0.4 0.4,-0.4 0.1,0 0.3,0 0.4,0 7.3,0 14.5,0 21.8,0 0.1,0 0.2,0 0.4,0 0.2,0 0.4,0.2 0.4,0.4 0,0.2 -0.2,0.4 -0.4,0.4 -0.2,0 -0.3,0 -0.5,0 -3.7,0 -7.3,0 -10.8,0 z"
   id="path2137"
   style="fill:#a97756;fill-opacity:1" /><path
   class="st0"
   d="m 41.300241,51.778819 c 0,-3.5 0,-7 0,-10.5 0,-0.2 -0.1,-0.5 0.2,-0.6 0.3,-0.1 0.6,0 0.6,0.4 0,0.9 0,1.8 0,2.7 0,2.3 0,4.6 0,7 0,0.3 0.1,0.7 0,1 0,0.3 0,0.7 -0.4,0.7 -0.4,0 -0.4,-0.4 -0.4,-0.7 z"
   id="path2141"
   style="fill:#a97756;fill-opacity:1" /></svg>
