<?xml version="1.0" encoding="UTF-8" standalone="no"?>
<svg
   width="61.8853"
   height="61.8943"
   viewBox="0 0 61.8853 61.8943"
   version="1.1"
   id="svg7447"
   sodipodi:docname="save.svg"
   inkscape:version="1.2.1 (9c6d41e410, 2022-07-14)"
   xmlns:inkscape="http://www.inkscape.org/namespaces/inkscape"
   xmlns:sodipodi="http://sodipodi.sourceforge.net/DTD/sodipodi-0.dtd"
   xmlns="http://www.w3.org/2000/svg"
   xmlns:svg="http://www.w3.org/2000/svg">
  <defs
     id="defs7451" />
  <sodipodi:namedview
     id="namedview7449"
     pagecolor="#ffffff"
     bordercolor="#000000"
     borderopacity="0.25"
     inkscape:showpageshadow="2"
     inkscape:pageopacity="0.0"
     inkscape:pagecheckerboard="0"
     inkscape:deskcolor="#d1d1d1"
     showgrid="false"
     inkscape:zoom="6.7615275"
     inkscape:cx="25.955673"
     inkscape:cy="30.614384"
     inkscape:window-width="1920"
     inkscape:window-height="1017"
     inkscape:window-x="-8"
     inkscape:window-y="-8"
     inkscape:window-maximized="1"
     inkscape:current-layer="svg7447" />
  <title
     id="title7434">save-icon</title>
  <path
     d="M 30.97,61.8588 C 22.14,61.858 13.31,61.795 4.4816,61.8939 A 4.1007,4.1007 0 0 1 0,57.45 C 0.0706,39.726 0.035,22.002 0.0368,4.2781 0.037,1.47 1.4625,0.03 4.2521,0.0216 7.5187,0.0124 10.7858,0.0475 14.0517,0 c 0.9451,-0.0136 1.2245,0.3218 1.22,1.2347 -0.0292,5.5952 -0.0156,11.1906 -0.0127,16.7859 9e-4,1.7176 0.4619,2.1768 2.2,2.1774 q 13.5354,0.0046 27.0709,6e-4 c 1.6931,-6e-4 2.1126,-0.4179 2.1149,-2.1264 Q 46.6559,9.7277 46.651,1.3833 c 7e-4,-1.3424 0.02,-1.3613 1.346,-1.3647 1.6172,-0.004 3.2348,0.0218 4.8513,-0.0106 a 2.1917,2.1917 0 0 1 1.715,0.7223 c 2.1546,2.187 4.3107,4.3734 6.5165,6.508 a 2.4792,2.4792 0 0 1 0.8059,1.9626 q -0.0291,11.4978 -0.0114,22.9958 0,12.6622 -5e-4,25.3244 c -0.0012,2.9694 -1.36,4.3352 -4.3173,4.3366 Q 44.2631,61.8643 30.97,61.8588 Z M 30.9536,26.5 q -10.2348,0 -20.47,0.001 c -1.9884,8e-4 -2.356,0.3711 -2.3568,2.4046 q -0.0051,14.261 9e-4,28.5219 c 6e-4,1.6428 0.5164,2.1764 2.1247,2.1768 q 20.7123,0.0061 41.4246,0 c 1.5478,0 2.1032,-0.5591 2.1038,-2.1059 Q 53.7865,43.1406 53.7821,28.7825 C 53.7819,26.8866 53.3935,26.5 51.52,26.5 q -10.283,-0.0036 -20.5664,0 z m 26.8178,27.8689 c 2.41,-0.04 2.2366,0.4268 2.2255,-2.222 0,-0.0323 -0.0034,-0.0646 -0.0036,-0.0969 a 0.6435,0.6435 0 0 0 -0.7292,-0.7093 q -1.4051,-0.01 -2.81,-7e-4 a 0.72,0.72 0 0 0 -0.7791,0.6874 c -0.352,1.9781 -0.0642,2.3421 1.9027,2.3415 z"
     style="fill:#a97756;fill-opacity:1"
     id="path10827" />
  <path
     d="m 34.0628,10.1576 c 0.0013,-2.0351 0.0143,-4.07 -0.0059,-6.1052 -0.0068,-0.6811 0.19,-0.9729 0.9488,-0.9513 1.969,0.0562 3.941,0.0459 5.9108,0.01 0.7719,-0.0139 1.1137,0.2241 1.1092,1.0406 q -0.0333,6.1051 5e-4,12.2105 c 0.0031,0.6536 -0.2395,0.9616 -0.8914,0.9594 -2.1314,-0.0073 -4.2628,-0.007 -6.3942,-0.0146 -0.7467,-0.0027 -0.67,-0.578 -0.6729,-1.0443 -0.0145,-2.0348 -0.0062,-4.07 -0.0049,-6.1051 z"
     style="fill:#a97756;fill-opacity:1"
     id="path10829" />
  <g
     id="g717"
     transform="translate(0.31034084)">
    <path
       d="m 43.785425,30.13377 c -1.77777,0 -3.222933,1.202155 -3.222933,2.685779 v 21.486223 c 0,1.483624 1.445163,2.686853 3.222933,2.686853 1.778416,0 3.222935,-1.203767 3.222935,-2.687391 V 32.819011 c 0,-1.483086 -1.444519,-2.685241 -3.222935,-2.685241 z"
       id="path2"
       style="fill:#a97756;fill-opacity:1;stroke-width:0.588429" />
    <path
       d="m 34.909846,35.505327 c -1.777772,0 -3.222935,1.202154 -3.222935,2.685777 v 16.11413 c 0,1.483624 1.445163,2.685778 3.222935,2.685778 1.777769,0 3.222933,-1.202154 3.222933,-2.685778 v -16.11413 c 0,-1.483623 -1.445164,-2.685777 -3.222933,-2.685777 z"
       id="path4"
       style="fill:#a97756;fill-opacity:1;stroke-width:0.588429" />
    <path
       d="m 26.096516,40.876881 c -1.778417,0 -3.222933,1.202157 -3.222933,2.684705 v 10.743648 c 0,1.483624 1.444516,2.685778 3.222933,2.685778 1.777768,0 3.222932,-1.202154 3.222932,-2.685778 V 43.561048 c 0,-1.48201 -1.445164,-2.684167 -3.222932,-2.684167 z"
       id="path8"
       style="fill:#a97756;fill-opacity:1;stroke-width:0.588429" />
    <path
       d="m 17.479512,46.248437 c -1.778592,0 -3.223254,1.203767 -3.223254,2.685778 v 5.372094 c 0,1.483624 1.444662,2.686851 3.223254,2.686851 1.777949,0 3.222612,-1.203764 3.222612,-2.687388 v -5.371557 c 0,-1.482011 -1.444018,-2.685778 -3.222612,-2.685778 z"
       id="path10"
       style="fill:#a97756;fill-opacity:1;stroke-width:0.588454" />
  </g>
</svg>
