<svg xmlns="http://www.w3.org/2000/svg" viewBox="0 0 105.32 90.09"><title>Asset 47</title><g id="Layer_2" data-name="Layer 2"><g id="koumpi_odigiwn" data-name="koumpi odigiwn"><path d="M101.77,53.82c5.87-15.69,6.77-40.77-15.77-49.7S13-.9,1,32.5C-9.95,63,72.3,132.6,101.77,53.82Z" style="fill:#d8650f"/><path d="M91.08,23.37,89.21,21.5a7.28,7.28,0,0,0-10.31,0L48.07,52.33,37.63,42.49a7.28,7.28,0,0,0-10.31,0l-1.88,1.87a7.3,7.3,0,0,0,0,10.31L42.91,71.14A7.29,7.29,0,0,0,48,73.28h.45a7.28,7.28,0,0,0,5.13-2.14L91.08,33.68A7.28,7.28,0,0,0,91.08,23.37Z" style="fill:#0f0b09"/></g></g></svg>