<svg xmlns="http://www.w3.org/2000/svg" viewBox="0 0 71.11 81.72"><defs><style>.cls-1{isolation:isolate;}.cls-2{fill:#ff5050;}.cls-3{fill:#c15729;}.cls-4{fill:#e5a85e;}.cls-5{fill:#b54823;}.cls-6{fill:#a53a1e;}.cls-7{fill:#cc371f;}.cls-8{fill:#cc7e48;}.cls-9{fill:#939598;mix-blend-mode:multiply;}</style></defs><title>Asset 20</title><g class="cls-1"><g id="Layer_2" data-name="Layer 2"><g id="likos"><polygon class="cls-2" points="4.39 13.7 4.67 17.15 5.54 19.33 7.55 18.27 8.06 15.67 4.39 13.7"/><polygon class="cls-3" points="0 13.38 0.41 12.57 1.89 11.59 4.25 10.51 4.82 8.91 6.07 7.6 6.83 5.35 8.47 4.41 9.23 3.56 10.38 1.41 13.17 0 14.41 2.35 16.43 0.28 18.64 0.84 19.69 2.72 21.32 3.1 20.84 6.76 23.81 13.04 28.23 23.27 29.57 24.77 36.96 25.43 46.65 27.02 49.91 26.18 54.8 23.18 57.39 15.95 63.05 12.86 65.07 14.36 65.16 16.42 68.14 19.14 70.15 19.98 71.02 21.49 70.44 24.02 70.44 27.21 71.11 30.4 69.96 32.74 67.94 35.56 64.59 45.13 62 50.57 55.86 52.64 54.61 54.61 47.51 58.36 43.1 60.42 38.02 65.4 36.58 65.96 35.04 71.78 35.04 75.91 37.25 76.56 40.8 77.97 41.28 78.35 40.8 78.63 39.26 78.25 37.92 78.44 32.84 77.5 29.67 79.1 26.21 79.85 23.43 80.97 22.47 81.72 22.09 81.72 22.86 80.5 24.39 79.28 28.42 77.41 26.89 76.94 22.76 77.13 21.8 76.75 19.5 77.59 19.21 77.03 21.7 75.72 22.76 74.87 25.16 75.44 27.94 75.63 31.97 75.25 33.31 72.9 33.79 65.68 31.88 64.65 29.48 61.08 26.79 56.39 20.46 54.04 13.84 50.48 10.96 46.54 8.75 44.47 8.47 41.66 7.03 38.75 7.6 28.71 7.32 25.62 9.91 20.17 10.57 16.51 9.62 17.17 8.56 17.64 6.07 15.86 4.63 13.98 2.12 13.63 0 13.38"/><polygon class="cls-4" points="7.22 12.67 5.11 11.26 4.82 10.7 4.28 10.41 4.25 10.51 1.89 11.59 0.41 12.57 0 13.38 2.12 13.63 4.63 13.98 4.79 14.19 7.22 13.04 7.22 12.67"/><polygon class="cls-5" points="3.31 11.3 4.24 10.95 4.39 11.23 3.31 11.3"/><polygon class="cls-6" points="6.88 9.71 7.89 9.01 8.23 8.26 8.75 8.12 9.81 8.68 10 9.15 9.47 9.43 8.27 9.66 6.88 9.71"/><polygon class="cls-4" points="8.89 8.68 8.49 8.75 8.13 8.88 8.35 9.3 8.81 9.37 9.14 9.09 9.24 8.63 8.89 8.68"/><polygon class="cls-5" points="8.67 8.6 8.53 8.81 8.71 9.02 8.85 8.84 8.67 8.6"/><polygon class="cls-5" points="59.5 47.85 51.73 48.98 33.22 49.16 21.42 45.51 14.32 38.75 12.59 28.52 14.51 20.92 12.69 15.01 11.53 13.79 9.14 13.88 7.22 13.04 3.34 13.79 4.63 13.98 6.07 15.86 8.56 17.64 9.62 17.17 10.57 16.51 9.91 20.17 7.32 25.62 7.6 28.71 7.03 38.75 8.47 41.66 8.75 44.47 10.96 46.54 13.84 50.48 20.46 54.04 26.79 56.39 29.48 61.08 31.88 64.65 33.47 65.5 36.95 65.81 38.02 65.4 43.1 60.42 47.51 58.36 54.61 54.61 55.86 52.64 62 50.57 64.44 45.43 59.5 47.85"/><polygon class="cls-6" points="20.74 39.41 24.39 42.78 26.21 45.98 28.52 49.26 31.78 51.04 37.92 52.17 46.84 51.89 53.65 50.76 56.72 48.41 44.63 44.29 31.2 39.03 25.16 36.78 25.54 34.9 28.13 33.4 27.94 32.74 25.45 33.4 22.09 34.34 20.94 35.56 20.26 36.97 20.36 38.19 20.74 39.41"/><polygon class="cls-5" points="21.03 38.19 25.64 42.13 27.75 46.54 30.44 49.45 37.63 50.48 48.66 49.92 57.39 49.16 56.53 45.98 47.03 41.09 39.94 38.1 36.58 33.68 31.11 31.71 25.92 33.97 22.18 35.09 21.03 36.97 21.03 38.19"/><polygon class="cls-5" points="54.13 27.02 55.09 28.15 58.64 23.92 62.96 16.8 65 14.3 64.46 13.9 62.48 15.95 59.22 20.83 56.53 24.96 54.13 27.02"/><polygon class="cls-5" points="65.41 16.65 64.59 17.92 62.57 21.39 61.42 25.15 58.93 30.59 60.37 32.46 61.81 30.68 63.24 26.83 64.59 22.33 66.48 17.63 65.41 16.65"/><path class="cls-5" d="M68.31,19.21l-1.9,7.06s-2.78,4.88-2.88,5.16-1.44,2.91-1.44,2.91l1.15,1.6,2.31-6.38,1.92-4,1.32-6.1Z"/><polygon class="cls-5" points="70.44 27.21 70.44 24.02 71.02 21.49 70.15 19.98 70.14 19.98 69.86 22.89 68.23 28.43 65.93 34.43 64.69 39.41 65.44 42.69 67.94 35.56 69.96 32.74 71.11 30.4 70.44 27.21"/><polygon class="cls-7" points="5.75 13.7 8.56 14.96 10.79 15.18 9.71 19.47 7.91 19.75 6.04 18.06 4.96 14.89 4.63 13.98 5.75 13.7"/><polygon class="cls-6" points="12.37 17.85 12.37 19.33 12.73 19.89 13.17 18.2 12.37 17.85"/><polygon class="cls-5" points="12.88 15.6 13.17 17.08 13.88 17.5 14.32 15.46 12.88 15.6"/><polygon class="cls-5" points="13.81 18.91 14.32 20.81 14.96 20.81 15.04 18.41 13.81 18.91"/><polygon class="cls-5" points="14.96 16.86 15.26 17.36 15.54 17.22 15.33 16.09 14.96 16.86"/><polygon class="cls-5" points="14.32 24.96 14.1 26.79 15.18 27.28 15.4 24.46 14.32 24.96"/><polygon class="cls-5" points="11.94 27.91 12.73 30.66 13.24 30.38 13.38 27.91 11.94 27.91"/><polygon class="cls-5" points="14.39 28.05 14.53 29.04 15.4 28.76 15.4 27.84 14.39 28.05"/><polygon class="cls-5" points="14.1 30.24 14.89 32.13 16.11 32.06 15.83 29.46 14.1 30.24"/><polygon class="cls-5" points="12.88 32.63 13.96 32.13 15.18 33.97 15.26 34.81 14.96 35.09 13.1 34.11 12.88 32.63"/><polygon class="cls-5" points="15.61 22.21 16.4 23.48 16.91 23.13 16.48 22 15.61 22.21"/><polygon class="cls-5" points="17.56 12.08 17.91 12.78 18.64 12.43 18.27 11.52 17.56 12.08"/><polygon class="cls-5" points="11.44 6.31 12.45 6.8 12.45 7.29 11.15 6.73 11.44 6.31"/><polygon class="cls-5" points="12.95 6.03 13.17 7.08 13.88 7.15 13.88 5.82 12.95 6.03"/><polygon class="cls-5" points="14.24 6.31 14.96 7.08 15.54 7.08 15.04 5.89 14.24 6.31"/><polygon class="cls-5" points="14.75 7.58 15.18 7.93 15.04 8.21 14.75 7.58"/><polygon class="cls-5" points="18.64 8.77 19.93 9.12 19.93 9.97 18.49 9.62 18.64 8.77"/><polygon class="cls-6" points="64.9 35.86 66.41 34.74 67.99 33.75 67.99 34.39 66.62 35.3 65.19 36.43 64.9 35.86"/><polygon class="cls-5" points="15.04 5.89 17.91 6.31 20.22 8.7 22.73 11.16 22.98 11.28 20.84 6.76 21.25 3.6 20.72 2.96 19.69 2.72 18.64 0.84 16.43 0.28 14.41 2.35 13.17 0 10.38 1.41 9.23 3.56 8.47 4.41 6.83 5.35 6.82 5.4 8.13 6.03 11.51 5.46 15.04 5.89"/><polygon class="cls-7" points="15.26 4.06 17.84 4.9 21.06 7.21 20.84 6.76 21.32 3.1 19.69 2.72 18.64 0.84 16.43 0.28 14.41 2.35 13.17 0 10.38 1.41 9.23 3.56 8.47 4.41 6.83 5.35 6.07 7.6 4.82 8.91 4.63 9.45 6.83 7.15 9.42 5.32 12.59 3.92 15.26 4.06"/><polygon class="cls-2" points="13.74 1.5 13.95 1.48 13.17 0 10.38 1.41 9.23 3.56 8.47 4.41 6.83 5.35 6.62 5.97 7.89 5.25 8.85 4.97 9.81 3.61 10.82 1.83 12.83 0.84 13.74 1.5"/><polygon class="cls-2" points="16.81 1.13 18.25 1.55 19.31 2.35 19.46 2.31 18.64 0.84 16.43 0.28 15.61 1.13 16.81 1.13"/><polygon class="cls-5" points="13.74 36.71 14.32 38.75 15.11 38.4 15.33 35.94 13.74 36.71"/><polygon class="cls-5" points="13.31 34.95 14.39 35.51 13.24 35.94 13.31 34.95"/><polygon class="cls-5" points="20 41.99 18.34 41.99 18.78 43.04 20.58 42.69 20 41.99"/><polygon class="cls-5" points="17.34 38.4 16.11 39.03 17.99 40.44 18.64 40.02 17.34 38.4"/><polygon class="cls-5" points="16.04 40.58 16.69 40.23 17.63 42.27 16.91 42.2 16.04 40.58"/><polygon class="cls-5" points="19 40.86 19.57 41.21 19.86 40.93 19.14 40.37 19 40.86"/><polygon class="cls-5" points="20.15 44.59 20.86 44.17 22.23 45.01 22.66 46.56 21.08 45.93 20.15 44.59"/><polygon class="cls-5" points="58.42 46.98 58.57 48.11 60.37 47.76 60.73 46.63 58.42 46.98"/><polygon class="cls-5" points="60.65 45.93 62.02 44.73 62.52 44.94 61.95 46.77 60.65 45.93"/><polygon class="cls-5" points="23.24 22.84 24.18 24.46 24.61 24.04 24.1 22.42 23.24 22.84"/><polygon class="cls-5" points="24.89 21.58 25.04 22.49 25.69 22.35 25.61 21.09 24.89 21.58"/><polygon class="cls-6" points="11.87 40.58 12.52 42.27 13.02 41.99 12.81 39.88 11.87 40.58"/><polygon class="cls-6" points="13.24 41.21 14.82 43.04 16.04 42.27 14.32 40.16 13.24 41.21"/><polygon class="cls-6" points="13.67 44.17 14.75 46.07 15.18 45.51 14.75 43.61 13.67 44.17"/><polygon class="cls-6" points="15.9 44.38 17.7 44.66 17.7 44.1 15.97 43.32 15.9 44.38"/><polygon class="cls-6" points="16.48 45.65 18.06 46.14 17.91 46.35 16.48 45.65"/><polygon class="cls-6" points="16.62 46.56 16.4 47.05 17.12 47.41 17.84 47.2 16.62 46.56"/><polygon class="cls-6" points="47.98 58.11 43.82 58.03 36.62 59.44 31.73 58.59 26.84 55.08 23.53 52.97 15.61 50.01 12.02 46.77 8.9 44.61 10.96 46.54 13.84 50.48 20.46 54.04 26.79 56.39 29.48 61.08 31.88 64.65 33.79 65.68 33.6 68.63 35.8 68.91 36.58 65.96 38.02 65.4 43.1 60.42 47.51 58.36 47.98 58.11"/><polygon class="cls-4" points="37.25 76.56 35.04 75.91 35.04 71.78 36.56 66.03 33.78 65.89 33.31 72.9 31.97 75.25 27.94 75.63 25.16 75.44 22.76 74.87 21.7 75.72 19.21 77.03 19.5 77.59 21.8 76.75 22.76 77.13 26.89 76.94 28.42 77.41 24.39 79.28 22.86 80.5 22.09 81.72 22.47 81.72 23.43 80.97 26.21 79.85 29.67 79.1 32.84 77.5 37.92 78.44 39.26 78.25 40.8 78.63 41.28 78.35 40.8 77.97 37.25 76.56"/><polygon class="cls-6" points="24.46 52.97 25.54 53.6 26.05 53.25 24.82 51.84 24.46 52.97"/><polygon class="cls-6" points="26.77 54.09 29.21 55.08 29.79 54.37 28.2 53.25 26.77 54.09"/><polygon class="cls-6" points="27.84 55.15 28.42 56.98 29.72 57.26 29.64 55.29 29 55.36 27.84 55.15"/><polygon class="cls-6" points="25.18 54.37 26.05 53.95 26.33 54.44 26.12 55.08 25.18 54.37"/><polygon class="cls-6" points="27.41 51.56 27.41 52.19 27.99 52.19 27.99 51.7 27.41 51.56"/><polygon class="cls-6" points="31.37 57.05 32.88 57.75 33.46 56.98 31.23 55.64 31.37 57.05"/><polygon class="cls-6" points="22.38 51.91 23.31 52.19 23.38 51.7 21.94 50.64 22.38 51.91"/><polygon class="cls-6" points="20.58 51.28 20.72 52.05 21.66 51.98 21.59 51.07 20.58 51.28"/><polygon class="cls-6" points="22.16 37.56 23.75 37.77 25.4 38.47 26.33 39.17 26.48 38.61 24.68 37.41 23.17 36.85 22.16 37.56"/><polygon class="cls-6" points="21.94 36.71 23.89 36.29 25.69 36.29 26.77 36.57 27.05 36.15 24.82 35.79 22.52 35.94 21.94 36.71"/><polygon class="cls-6" points="28.2 37.84 28.49 38.82 29 38.33 28.2 37.84"/><polygon class="cls-6" points="26.33 37.48 27.56 36.85 27.63 37.27 27.13 37.77 26.33 37.48"/><polygon class="cls-6" points="27.34 40.09 25.76 40.23 24.75 40.09 25.9 40.72 27.63 40.58 27.84 39.52 27.41 38.89 27.34 40.09"/><polygon class="cls-6" points="28.71 34.95 28.93 35.58 28.42 36.43 29.57 35.65 29.57 34.39 27.84 33.97 28.71 34.95"/><polygon class="cls-6" points="30.36 35.3 30.51 35.94 30 36.57 31.08 36.15 30.87 35.16 29.93 34.53 30.36 35.3"/><polygon class="cls-6" points="30.22 37.69 31.44 37.98 31.59 37.34 30.22 37.69"/><polygon class="cls-6" points="30.44 44.45 31.44 46.28 33.39 46.7 33.46 46.21 31.8 45.93 30.72 43.96 30.44 44.45"/><polygon class="cls-6" points="32.45 45.01 34.03 45.22 34.54 44.73 34.54 44.17 34.03 44.59 32.45 45.01"/><polygon class="cls-6" points="30.29 43.11 29.28 42.06 29.64 43.18 30.29 43.11"/><polygon class="cls-6" points="65.4 33.68 66.27 32.13 68.57 31.22 68.5 31.71 65.4 33.68"/><polygon class="cls-6" points="66.34 31.01 66.48 29.95 65.26 27.98 65.04 28.61 66.34 31.01"/><polygon class="cls-6" points="68.21 28.97 68.21 29.6 70.3 28.54 70.22 28.2 68.21 28.97"/><polygon class="cls-6" points="66.84 26.01 67.27 27 67.63 26.79 67.27 25.31 66.84 26.01"/><polygon class="cls-8" points="39.72 78.02 37.77 77.67 34.75 76.75 34.39 75.91 35.04 75.76 35.04 71.78 36.56 66.03 35.05 65.95 35.11 68.94 34.1 73.65 33.67 75.98 32.97 77.53 37.92 78.44 39.26 78.25 40.8 78.63 41.04 78.49 39.72 78.02"/><polygon class="cls-8" points="33.53 77.03 30.36 77.95 27.7 78.86 24.89 79.71 24.03 80.2 23.3 80.15 22.86 80.5 22.09 81.72 22.47 81.72 23.43 80.97 26.21 79.85 29.67 79.1 32.84 77.5 33.39 77.61 33.53 77.03"/><polygon class="cls-8" points="28.2 76.33 25.9 76.4 23.75 76.4 22.73 76.19 21.8 76.75 22.76 77.13 26.89 76.94 28.22 77.35 29.72 76.89 28.2 76.33"/><polygon class="cls-5" points="2.66 12.81 1.82 12.77 0.15 13.09 0 13.38 0.63 13.35 1.61 13.04 3.38 12.95 5.4 12.99 7.02 13.13 7.22 13.04 7.22 12.72 4.92 12.76 2.66 12.81"/><polygon class="cls-9" points="70.44 24.02 71.02 21.49 70.15 19.98 68.79 19.41 68.79 19.41 68.31 19.21 68.31 19.21 68.14 19.14 66.48 17.63 66.48 17.63 65.53 16.76 65.16 16.42 65.07 14.36 65 14.3 65 14.3 64.46 13.9 64.46 13.9 63.05 12.86 57.39 15.95 54.8 23.18 49.91 26.18 46.65 27.02 36.96 25.43 29.57 24.77 28.23 23.27 23.81 13.04 20.84 6.76 21.32 3.1 19.69 2.72 19.46 2.31 19.46 2.31 18.64 0.84 16.43 0.28 14.41 2.35 13.95 1.48 13.95 1.48 13.17 0 10.38 1.41 9.23 3.56 8.47 4.41 6.83 5.35 6.07 7.6 4.82 8.91 4.63 9.45 4.63 9.44 4.25 10.51 1.89 11.59 0.41 12.57 0 13.38 2.12 13.63 4.41 13.95 4.67 17.15 5.54 19.33 6.75 18.7 7.91 19.75 9.71 19.47 10.43 16.61 10.57 16.51 9.91 20.17 7.32 25.62 7.6 28.71 7.03 38.75 8.47 41.66 8.75 44.47 8.9 44.61 8.9 44.61 10.96 46.54 13.84 50.48 20.46 54.04 26.79 56.39 29.48 61.08 31.88 64.65 33.47 65.5 33.47 65.5 33.79 65.68 33.78 65.89 33.78 65.89 33.31 72.9 31.97 75.25 27.94 75.63 25.16 75.44 22.76 74.87 21.7 75.72 19.21 77.03 19.5 77.59 21.8 76.75 22.76 77.13 26.89 76.94 28.22 77.35 28.22 77.35 28.42 77.41 24.39 79.28 23.3 80.15 23.3 80.15 22.86 80.5 22.09 81.72 22.47 81.72 23.43 80.97 26.21 79.85 29.67 79.1 32.84 77.5 33.39 77.61 33.39 77.61 37.92 78.44 39.26 78.25 40.8 78.63 41.28 78.35 40.8 77.97 37.25 76.56 35.04 75.91 35.04 75.76 35.04 71.78 36.58 65.96 38.02 65.4 43.1 60.42 47.51 58.36 54.61 54.61 55.86 52.64 62 50.57 64.59 45.13 67.94 35.56 69.96 32.74 71.11 30.4 70.44 27.21 70.44 24.02"/></g></g></g></svg>