<svg xmlns="http://www.w3.org/2000/svg" viewBox="0 0 185.27 37.38"><title>Asset 57</title><g id="Layer_2" data-name="Layer 2"><g id="bg"><path d="M184.15,28.3c-1.62-1.8-4.8-2-7-2.4a103.68,103.68,0,0,0-10.41-1.06c-7.79-.49-15.58-.92-23.37-1.38l-23.45-1.37-5.51-.33c-1-.05-4.6.37-5.36-.45-.27-.3-.11-1.94-.47-2.51a4.41,4.41,0,0,0-2.09-1.65c-2.47-1.09-8.1-.29-9.65-2.33-.51-.68-.41-2.51-.94-3.42a8.84,8.84,0,0,0-2.28-2.48A14.44,14.44,0,0,0,86,6.37a41.45,41.45,0,0,1-6.3-.7,24.29,24.29,0,0,1-5.37-2.56C67.74-.43,59.81,0,52.56.08a167.72,167.72,0,0,0-24.4,2.27c-6.42-1.06-5,6.28-7.36,9.81-3.3,5-10.52,5.41-15.43,8-3.43,1.79-7.86,5.53-3.65,9s10.61,4.5,16,5.06c15.11,1.6,30.45,2,45.63,2.43,15.56.49,31.13.68,46.7.73s31.14,0,46.71-.14c7.09,0,14.24,0,21.23-1.41C181,35.21,188,32.55,184.15,28.3Z" style="fill:#fff"/></g></g></svg>