<svg xmlns="http://www.w3.org/2000/svg" viewBox="0 0 244.46 91.37"><title>Asset 60</title><g id="Layer_2" data-name="Layer 2"><g id="bg"><path d="M242.94,61c-1.59-1.39-3.79-1.78-5.79-2.18-2.85-.57-5.72-1-8.59-1.34-6.25-.75-12.55-1-18.83-1.29-12.64-.53-25.42-1-37.5-4.89,17.12-4.2,36.61-3.64,49.64-17.11a1.58,1.58,0,0,0-.69-2.62,291.76,291.76,0,0,0-57.88-11.8,24.86,24.86,0,0,0,6.12-6.82,1.58,1.58,0,0,0-.93-2.31,95.58,95.58,0,0,0-20.7-.91c-6,.42-12.2,2-18,.3a7.16,7.16,0,0,0-2.9-7.47c-3.29-2.4-8-2.72-11.93-2.47A31.63,31.63,0,0,0,93,11.11c-2.52,3-5.34,7.14-5.21,11.24.06,2,1.06,3.52,2.26,5.07.59.76,1.8,1.85,1.7,2.95-.13,1.42-1.9,1.86-3,2.22-3.52,1.17-7.39,1.78-9,5.62A5.75,5.75,0,0,0,80.57,44c-3.66,1.64-7.13,4.56-5.78,8.54-15.64,6.76-33.81,3.85-49.08,12a1.58,1.58,0,0,0,.79,2.93,203.22,203.22,0,0,1,28.24,1l-3.17,3.28a1.59,1.59,0,0,0,1.11,2.68c.26,0,.51,0,.76,0a1.51,1.51,0,0,1,0,3c-15.06.62-29.36.54-44.85,2.12-2.86.29-6.28.93-8,3.5s.25,4.67,2.8,5.3a32.59,32.59,0,0,0,6.48.42l8.08.35,16.79.7L72.1,91.37c.93,0,31-1.67,45.67-1.83l23.74-.26c5.58-.07,11.84.51,16.28-3.49a1.33,1.33,0,0,0,.19-1.88c22.47-2.77,45.77,1.12,67.48-6.69C229.41,75.8,250.19,67.31,242.94,61Z" style="fill:#fff"/></g></g></svg>