<svg xmlns="http://www.w3.org/2000/svg" viewBox="0 0 230.87 76.99"><title>Asset 56</title><g id="Layer_2" data-name="Layer 2"><g id="bg"><path d="M230,58.86c-6.76-5.13-16.7-3.81-24.67-4.19q-15-.72-29.94-2.37c-9.24-1-18.78-1.92-27.65-4.88a39.66,39.66,0,0,1-12.24-6.52c-3.28-2.62-6.22-5.69-9.79-7.94-7.22-4.54-14.93-3.29-22.92-2.23-1.83.24-3.25.5-4.85-.86-.65-.55-1-1.4-1.66-2a7.26,7.26,0,0,0-2.8-1.51c-3-.86-7.32,1-10-.64s-1.74-6.16-4.16-8.28-5.28-1.25-8-.72c-4.84.92-6.63-1.39-8.73-5.28C61,8.52,59.5,5.67,56.75,3.65,50.27-1.11,40.88-.3,33.44,1A61.47,61.47,0,0,0,6.59,12.94a1.81,1.81,0,0,0-.72,1.61c-2,1.81-4.21,3.54-2.47,6.59.77,1.35,2.17,2.1,3.25,3.14,2.64,2.5-1.07,3.41-2.95,4.5C1.2,30.23-1.5,33.61,1,36.35c1.38,1.52,4.36,2.14,6.18,2.83l8.35,3.14c-.91,1.24-3.19,2.28-3.88,3.45a3.93,3.93,0,0,0,.56,4.78c2.12,2.4,6.44,3.59,9.26,5l8.78,4.27-5.76,3c-1.64.85-4,1.59-4.95,3.31-2.11,3.76,3.33,6,5.86,7.06,9.92,4.21,20.93,4.21,31.5,3.5,12.24-.81,24.41-1.91,36.68-2,6.41-.07,12.81,0,19.21.29,6,.24,12,.47,17.76-1.58a1.94,1.94,0,0,0,1.09-2.51l48.86-1.62c9.79-.32,19.61-.5,29.4-1,7.37-.37,14.81-1.5,20.47-6.62A1.75,1.75,0,0,0,230,58.86Z" style="fill:#fff"/></g></g></svg>