<svg xmlns="http://www.w3.org/2000/svg" viewBox="0 0 238.2 75.21"><title>Asset 61</title><g id="Layer_2" data-name="Layer 2"><g id="bg"><path d="M237.46,58.38c-10.76-8.23-25.18-5-37.22-9.72a5.6,5.6,0,0,0,.48-4.83c-1.53-4.18-6.7-4.16-10.33-4.79a16.72,16.72,0,0,1-6.64-2.34c-3.05-2.09-3-4.94-2.61-8.31.57-4.52-.47-8.18-4.51-10.66-4.27-2.62-9.28-2.22-13.93-3.59-5.21-1.52-8.57-6.61-13.2-9.33A34.59,34.59,0,0,0,121.28,1.7,35.09,35.09,0,0,0,99.75,23a1.34,1.34,0,0,0,0,1.12c-1.72,4.78-8.81,4.28-13,4.54-3.52.22-9.6,1.07-9.59,5.65,0,1.63.35,2.33-.87,3.51a8.06,8.06,0,0,1-3.39,1.64c-2.08.57-4.3.49-6.41.93a10.41,10.41,0,0,0-5,2.23c-1.68,1.53-1.68,3.23-2.31,5.24-.69,2.22-1.57,3-4,3.17-1.59.14-3.19.21-4.78.3-3.39.18-6.79.34-10.18.5-6.58.31-13.16.65-19.72,1.33q-4.07.42-8.12,1c-3.13.48-6.75.75-9.69,2s-3.87,4.43-1.31,6.55a9,9,0,0,0,5,1.74c3.45.36,7,.34,10.46.43,6.78.18,13.57.17,20.35.1,13.36-.15,26.72-.57,40.08-.41,13.56.16,27.67.46,41,3.34,6,1.29,11.17,4.78,17.22,5.9a113.2,113.2,0,0,0,17.55,1.31,228.82,228.82,0,0,0,84-13.89A1.59,1.59,0,0,0,237.46,58.38Z" style="fill:#fff"/></g></g></svg>