<svg xmlns="http://www.w3.org/2000/svg" viewBox="0 0 274.35 39.22"><title>Asset 49</title><g id="Layer_2" data-name="Layer 2"><g id="bg"><path d="M72.79,25.6v4.21a1.44,1.44,0,0,1-1.54,1.32H2.71A1.48,1.48,0,0,1,1.19,30a1.37,1.37,0,0,1,0-.19V25.6a1.45,1.45,0,0,1,1.54-1.32s2.21.13,5.68.3l1,.06c2,.09,4.4.21,7,.31l1.2.05,4.07.16,1.18,0c2.08.07,4.19.13,6.28.18l1.14,0c2.45.05,4.86.08,7.12.08h1.68c2.74,0,5.62-.08,8.49-.15l1.11,0c2.77-.07,5.5-.18,8.06-.28l1-.05L59,24.91c2.5-.11,4.76-.22,6.66-.32l1.14-.05,4.46-.26a2,2,0,0,1,.35,0,1.47,1.47,0,0,1,1.14,1A1.2,1.2,0,0,1,72.79,25.6Z" style="fill:#976b41"/><path d="M71.61,24.5v4.21A1.43,1.43,0,0,1,70.08,30H1.54a2,2,0,0,1-.35,0A1.38,1.38,0,0,1,0,28.71V24.5a1.45,1.45,0,0,1,1.54-1.32s2.66.16,6.73.37l1,0,7.13.32,1.18,0c1.32.06,2.68.1,4.07.15l1.18,0c2.07.07,4.17.12,6.24.17l1.15,0c2.05,0,4.07.05,6,.05h2.89c2.73,0,5.57-.09,8.38-.17l1.13,0c.92,0,1.83-.05,2.72-.09,2.25-.07,4.43-.16,6.45-.25L59,23.77l6.59-.33,1.14-.07,3.32-.19a1.49,1.49,0,0,1,1.52,1.13A1.21,1.21,0,0,1,71.61,24.5Z" style="fill:#ad7d46"/><path d="M73,15.82l-.28,2.7a1.43,1.43,0,0,1-1.57,1.17s-1.7,0-4.43.1l-1.18,0-6.31.08H58c-3,0-6.26,0-9.45,0H47.38c-2.85,0-5.62-.08-8.1-.18l-1.21,0c-.55,0-1.08,0-1.59-.08-1.89-.11-4-.26-6.25-.45L29.05,19c-2-.17-4.1-.36-6.18-.57l-1.18-.11-4.55-.47-1.08-.11c-2.85-.3-5.46-.59-7.57-.83l-1-.13-4.17-.48a1.41,1.41,0,0,1-1.4-1.12c0-.05,0-.1,0-.15l0-4.61A1.42,1.42,0,0,1,3.44,9.17l3.08.24,1.05.08,8,.61,1.14.09,1.53.12,3.44.26,1.18.1,6.49.5,1.25.1,7.7.59,1.2.09,7.93.61,1.2.09,9.65.75,1.22.09,6.34.49,1.29.1,4.5.34.17,0A1.32,1.32,0,0,1,73,15.82Z" style="fill:#976b41"/><path d="M71.82,14.72l-.28,2.7A1.44,1.44,0,0,1,70,18.59s-1.21,0-3.21.07l-1.21,0-6.27.09H58c-3,0-6.25,0-9.5,0H47.37c-2.8,0-5.56-.06-8.06-.14l-1.21,0c-1,0-1.92-.08-2.8-.14-.57,0-1.18-.06-1.8-.11l-3.24-.24L29.05,18c-2-.16-4.09-.35-6.18-.55l-1.18-.11-4.63-.47L16,16.8c-2.8-.29-5.41-.58-7.6-.83l-1-.12c-3.18-.36-5.22-.61-5.22-.61l-.23,0A1.35,1.35,0,0,1,.69,14l0-4.6a1.42,1.42,0,0,1,1.63-1.3l4.13.32,1,.08,8.09.62,1,.08h.11l5,.39,1.18.09,6.56.51,1.27.09,7.64.59,1.2.09,7.93.61,1.22.1,9.64.74,1.23.1L66,13l1.29.1,3.2.24a1.4,1.4,0,0,1,1.35,1.12A.88.88,0,0,1,71.82,14.72Z" style="fill:#a97e50"/><path d="M17.62,24V25c0,1.66-.12,3.39-.24,5l-.09,1.1c-.31,3.68-.73,6.61-.73,6.61a.48.48,0,0,1-.51.44H11.56a.5.5,0,0,1-.5-.39L11,37.08l-.74-5.95L10.11,30l-.67-5.39-.13-1.05L8.49,17l-.12-1-.8-6.48-.12-1L6.59,1.58a.47.47,0,0,1,.48-.48h9a.5.5,0,0,1,.46.32.52.52,0,0,1,0,.11s0,3.48.13,7.65v.08c0,.3,0,.62,0,.93.07,2.25.18,4.62.34,6.72,0,.34.05.66.08,1,.07.83.16,1.6.25,2.29A30.39,30.39,0,0,1,17.62,24Z" style="fill:#976b41"/><path d="M30.23,19.14q0,2.61,0,5.19c0,.36,0,.72,0,1.07.05,1.56.13,3.1.24,4.63,0,.37,0,.73.08,1.1.17,2.05.39,4.1.66,6.12a1,1,0,0,1-1.12,1.07H24a1.06,1.06,0,0,1-1.13-1V4.75a1.06,1.06,0,0,1,1.13-1h6.15a1,1,0,0,1,1.12,1.08Q31.08,6.45,30.91,8c-.08.74-.16,1.48-.21,2.22,0,.34-.06.67-.09,1-.15,1.91-.26,3.8-.32,5.69,0,.39,0,.79,0,1.18S30.24,18.81,30.23,19.14Z" style="fill:#976b41"/><path d="M68.41,6.11s-.56,2.66-1,6.1c0,.29-.08.57-.12.87l-.12,1c-.17,1.49-.32,3.06-.39,4.58,0,.38,0,.76,0,1.13,0,.54,0,1.07,0,1.58s0,1.33.05,2l0,1.17c0,.37,0,.74,0,1.12,0,1.54.08,3,.12,4.37,0,.38,0,.75,0,1.1.06,2.41.1,4.07.1,4.07a2.2,2.2,0,0,1-2.41,1.91L60.74,37a2.31,2.31,0,0,1-2.07-1.29,1.75,1.75,0,0,1-.15-.78l.18-3.78,0-1.1L59,25.28l0-.37,0-1.14.19-3.88.05-1.11.24-5.29.05-1,0-.64.28-6a2.21,2.21,0,0,1,2.41-1.92L66.18,4a2.63,2.63,0,0,1,.9.19A2,2,0,0,1,68.41,6.11Z" style="fill:#976b41"/><path d="M50.1,37.52a1.37,1.37,0,0,1-1.47,1.29H40.19a1.41,1.41,0,0,1-1.46-1.12,1,1,0,0,1,0-.17l.2-6.39L39,30l.14-4.55,0-1.11.12-3.74,0-.91,0-1,.2-6.72,0-1,0-1.13.22-7a1.38,1.38,0,0,1,1.46-1.23h6.5a1.24,1.24,0,0,1,.27,0h0a1.34,1.34,0,0,1,1.19,1.21C49,5.6,48.83,8.34,48.71,11c0,.23,0,.45,0,.67s0,.67,0,1q-.11,3.18-.1,6.16v1.1c0,1.21,0,2.39.08,3.54,0,.24,0,.48,0,.71s0,.76,0,1.13c.08,1.64.2,3.22.34,4.74,0,.37.07.74.11,1.1C49.39,33.39,49.7,35.52,50.1,37.52Z" style="fill:#976b41"/><path d="M16.44,23.91c0,.34,0,.69,0,1-.06,1.72-.17,3.47-.31,5.08,0,.38-.06.75-.1,1.1-.29,3.15-.63,5.51-.63,5.51a.47.47,0,0,1-.5.44H10.39a.48.48,0,0,1-.5-.39L9.2,31.13,9.07,30l-.68-5.45-.12-1-.83-6.73-.12-1-.8-6.44-.12-1L5.42.48A.47.47,0,0,1,5.92,0h9a.46.46,0,0,1,.5.43V.6c0,.12,0,.28,0,.5,0,1.25,0,4.11.13,7.33,0,.22,0,.44,0,.66s0,.67,0,1c.08,2.3.21,4.67.39,6.7l.09,1c.05.46.1.89.16,1.3A34.17,34.17,0,0,1,16.44,23.91Z" style="fill:#d5a060"/><path d="M30.1,3.76v0c-.17,1.31-.32,2.61-.45,3.91-.08.83-.15,1.65-.22,2.48,0,.33-.05.67-.07,1-.13,1.75-.22,3.5-.27,5.23,0,.55,0,1.1,0,1.64,0,.34,0,.67,0,1,0,1.77,0,3.52.06,5.27,0,.35,0,.71,0,1.07.06,1.56.16,3.11.28,4.65,0,.37.07.73.11,1.1.14,1.69.33,3.36.55,5A1,1,0,0,1,29,37.23H22.82a1.07,1.07,0,0,1-1.13-1V3.65a1.06,1.06,0,0,1,1.13-1H29A1,1,0,0,1,30.1,3.76Z" style="fill:#d5a060"/><path d="M67.23,5s-.67,3.22-1.16,7.16c0,.26-.07.53-.1.81l-.12,1c-.16,1.57-.28,3.18-.31,4.71,0,.38,0,.75,0,1.12,0,.16,0,.31,0,.46,0,1,0,2.1.08,3.17l0,1.15c0,.36,0,.72,0,1.07,0,1.58.07,3.08.11,4.37,0,.39,0,.76,0,1.1,0,1.81.07,3,.07,3A2.22,2.22,0,0,1,63.48,36l-3.91-.14a2.41,2.41,0,0,1-.9-.19,2,2,0,0,1-1.32-1.88l.12-2.68.06-1.1.22-4.89V25l.05-1.14L58,19.9l0-1.11.25-5.39,0-1,0-.62.33-7A2.21,2.21,0,0,1,61.1,2.81L65,3a2.31,2.31,0,0,1,2.07,1.28A1.75,1.75,0,0,1,67.23,5Z" style="fill:#d5a060"/><path d="M48.92,36.42a1.36,1.36,0,0,1-1.46,1.29H39l-.28,0a1.32,1.32,0,0,1-1.18-1.27l.16-5.29,0-1.1.14-4.55,0-1.1.13-4.18,0-.53,0-1,.21-6.77,0-1,0-1.24.25-7.93A1.37,1.37,0,0,1,40.09.45h6.49A1.4,1.4,0,0,1,48,1.57a.41.41,0,0,1,0,.11q-.37,4.76-.54,9.17l0,.7,0,1q-.11,3.22-.07,6.25c0,.37,0,.73,0,1.09,0,1.11,0,2.2.09,3.26,0,.35,0,.7,0,1s.05.75.07,1.13c.09,1.62.22,3.19.38,4.7l.12,1.1C48.31,33,48.59,34.75,48.92,36.42Z" style="fill:#d5a060"/><ellipse cx="10.93" cy="12.18" rx="1.17" ry="1.06" style="fill:#976b41"/><ellipse cx="11.03" cy="12.01" rx="1.08" ry="0.93" style="fill:#a97e50"/><g style="opacity:0.48"><ellipse cx="10.82" cy="11.88" rx="0.77" ry="0.66" style="fill:#d5a060"/></g><path d="M10.6,12.71a1.62,1.62,0,0,1,.18-1,1.3,1.3,0,0,1,.55-.53s-.06-.05-.1,0a1,1,0,0,0-.67.53c-.33.65-.08.94-.08.94Z" style="fill:#976b41"/><ellipse cx="25.9" cy="13.46" rx="1.17" ry="1.06" style="fill:#976b41"/><ellipse cx="25.99" cy="13.29" rx="1.08" ry="0.93" style="fill:#a97e50"/><g style="opacity:0.48"><ellipse cx="25.78" cy="13.16" rx="0.77" ry="0.66" style="fill:#d5a060"/></g><path d="M25.56,14a1.83,1.83,0,0,1,.18-1,1.3,1.3,0,0,1,.55-.53.19.19,0,0,0-.09,0,1,1,0,0,0-.67.53c-.34.65-.08.94-.08.94Z" style="fill:#976b41"/><ellipse cx="25.36" cy="27.8" rx="1.17" ry="1.06" style="fill:#976b41"/><ellipse cx="25.45" cy="27.63" rx="1.08" ry="0.93" style="fill:#a97e50"/><g style="opacity:0.48"><ellipse cx="25.24" cy="27.5" rx="0.77" ry="0.66" style="fill:#d5a060"/></g><path d="M25,28.33a1.62,1.62,0,0,1,.18-1,1.3,1.3,0,0,1,.55-.53s-.06-.05-.1,0a1,1,0,0,0-.67.53c-.33.65-.07.94-.07.94Z" style="fill:#976b41"/><ellipse cx="42.78" cy="27.4" rx="1.17" ry="1.06" style="fill:#976b41"/><ellipse cx="42.88" cy="27.23" rx="1.08" ry="0.93" style="fill:#a97e50"/><g style="opacity:0.48"><ellipse cx="42.67" cy="27.11" rx="0.77" ry="0.66" style="fill:#d5a060"/></g><path d="M42.45,27.93a1.64,1.64,0,0,1,.18-1,1.25,1.25,0,0,1,.54-.53.19.19,0,0,0-.09,0,1,1,0,0,0-.67.53c-.34.65-.08.94-.08.94Z" style="fill:#976b41"/><ellipse cx="41.8" cy="15.01" rx="1.17" ry="1.06" style="fill:#976b41"/><ellipse cx="41.89" cy="14.84" rx="1.08" ry="0.93" style="fill:#a97e50"/><g style="opacity:0.48"><ellipse cx="41.68" cy="14.71" rx="0.77" ry="0.66" style="fill:#d5a060"/></g><path d="M41.46,15.54a1.62,1.62,0,0,1,.18-1,1.3,1.3,0,0,1,.55-.53s-.06-.05-.09,0a1,1,0,0,0-.68.53c-.33.65-.07.93-.07.93Z" style="fill:#976b41"/><ellipse cx="61.51" cy="16.08" rx="1.17" ry="1.06" style="fill:#976b41"/><ellipse cx="61.61" cy="15.92" rx="1.08" ry="0.93" style="fill:#a97e50"/><g style="opacity:0.48"><ellipse cx="61.4" cy="15.79" rx="0.77" ry="0.66" style="fill:#d5a060"/></g><path d="M61.18,16.62a1.62,1.62,0,0,1,.18-1,1.3,1.3,0,0,1,.55-.53s-.06-.05-.1,0a1,1,0,0,0-.67.53c-.33.64-.07.93-.07.93Z" style="fill:#976b41"/><ellipse cx="61.91" cy="27.25" rx="1.17" ry="1.06" style="fill:#976b41"/><ellipse cx="62" cy="27.08" rx="1.08" ry="0.93" style="fill:#a97e50"/><g style="opacity:0.48"><ellipse cx="61.79" cy="26.95" rx="0.77" ry="0.66" style="fill:#d5a060"/></g><path d="M61.57,27.78a1.63,1.63,0,0,1,.18-1,1.3,1.3,0,0,1,.55-.53.26.26,0,0,0-.09,0,1,1,0,0,0-.68.53c-.33.65-.07.94-.07.94Z" style="fill:#976b41"/><ellipse cx="12.43" cy="26.62" rx="1.17" ry="1.06" style="fill:#976b41"/><ellipse cx="12.52" cy="26.46" rx="1.08" ry="0.93" style="fill:#a97e50"/><g style="opacity:0.48"><ellipse cx="12.31" cy="26.33" rx="0.77" ry="0.66" style="fill:#d5a060"/></g><path d="M12.09,27.16a1.81,1.81,0,0,1,.18-1,1.23,1.23,0,0,1,.55-.53s-.05-.05-.09,0a1,1,0,0,0-.67.53c-.34.64-.08.93-.08.93Z" style="fill:#976b41"/><g style="opacity:0.32"><path d="M72.74,25.27c-.36.05-.73.09-1.13.12-1.38.15-3,.25-4.8.27-.37,0-.74,0-1.13,0A66.87,66.87,0,0,1,59,25.28l-1.22-.14-1-.13c-1.71-.23-3.5-.54-5.39-.94,2.25-.07,4.43-.16,6.45-.25L58,19.9c-3,0-6.26,0-9.45,0,0,1.21,0,2.39.08,3.54-.38-.09-.76-.18-1.15-.29-2.6-.67-5.35-1.5-8.22-2.53l-1.2-.43-1.57-.61c-1-.39-2-.8-3-1.21s-2.17-.94-3.21-1.42l-1.2-.56c-2.24-1.07-4.31-2.16-6.22-3.25l-1.18-.69c-1.22-.72-2.36-1.44-3.44-2.15q-.81-.53-1.56-1.05l-.11-.09c-.36-.24-.72-.5-1.06-.74A59.41,59.41,0,0,1,7.07,1.1C6.7.72,6.37.35,6.06,0H14.6l.78.6.7.5c.15.11.3.22.46.32a.52.52,0,0,1,0,.11s0,3.48.13,7.65l5,.39V4.49c.38.2.78.39,1.18.59.79.38,1.62.76,2.48,1.12a37.06,37.06,0,0,0,4.3,1.49L30.91,8c-.08.74-.16,1.48-.21,2.22l7.64.59,0-1.24,1.2.2c2.57.41,5.25.75,7.92,1l1.21.13c0,.23,0,.45,0,.67l9.64.74,0-.62,1.22.08c2.32.14,4.51.24,6.49.32l1.31,0c0,.29-.08.57-.12.87l3.2.24a1.4,1.4,0,0,1,1.35,1.12A1.32,1.32,0,0,1,73,15.82l-.28,2.7a1.43,1.43,0,0,1-1.57,1.17s-1.7,0-4.43.1c0,.54,0,1.07,0,1.58s0,1.33.05,2l3.32-.19a1.49,1.49,0,0,1,1.52,1.13A1.47,1.47,0,0,1,72.74,25.27Z" style="fill:#f6cf8a"/></g><path d="M68.21,25.9v4.2a1.45,1.45,0,0,0,1.54,1.33h68.54a1.49,1.49,0,0,0,1.52-1.14,1.23,1.23,0,0,0,0-.19V25.9a1.46,1.46,0,0,0-1.54-1.33s-2.21.14-5.68.31l-1.05.06-7,.31-1.2.05-4.07.15-1.18,0c-2.08.07-4.19.14-6.28.18l-1.14,0c-2.45.05-4.86.08-7.12.08h-1.68c-2.74,0-5.62-.07-8.49-.15l-1.11,0c-2.77-.08-5.5-.18-8.06-.29l-1,0L82,25.21c-2.5-.11-4.76-.22-6.66-.32l-1.14-.06c-2.77-.15-4.46-.26-4.46-.26a1.34,1.34,0,0,0-.35,0,1.48,1.48,0,0,0-1.14.95A1.27,1.27,0,0,0,68.21,25.9Z" style="fill:#976b41"/><path d="M69.39,24.8V29a1.43,1.43,0,0,0,1.53,1.32h68.54a1.34,1.34,0,0,0,.35,0A1.38,1.38,0,0,0,141,29V24.8a1.44,1.44,0,0,0-1.54-1.32s-2.66.16-6.73.36l-1,.05c-2.11.1-4.53.21-7.13.31l-1.18.05-4.07.15-1.18,0c-2.07.07-4.17.13-6.24.17l-1.15,0c-2,0-4.07.06-6,.06h-2.89c-2.73,0-5.57-.09-8.38-.17-.38,0-.76,0-1.13,0l-2.72-.09c-2.25-.08-4.43-.17-6.45-.26L82,24.06l-6.59-.33-1.14-.06-3.32-.19a1.48,1.48,0,0,0-1.52,1.13A1.21,1.21,0,0,0,69.39,24.8Z" style="fill:#ad7d46"/><path d="M68,16.11l.28,2.71A1.43,1.43,0,0,0,69.86,20l4.43.09,1.18,0,6.31.09H83c3,0,6.25,0,9.45,0h1.16c2.85,0,5.62-.09,8.1-.18l1.21-.05,1.59-.08c1.89-.11,4-.26,6.25-.45l1.18-.1c2-.17,4.1-.37,6.18-.57l1.18-.12,4.55-.46,1.08-.12c2.85-.3,5.46-.59,7.57-.83l1.05-.12c2.57-.29,4.17-.49,4.17-.49a1.41,1.41,0,0,0,1.4-1.12s0-.1,0-.15l0-4.6a1.42,1.42,0,0,0-1.62-1.29l-3.08.23-1,.09-8,.61-1.14.09-1.53.12-3.44.26-1.18.09-6.49.5-1.26.1-7.69.59-1.2.1-7.93.6-1.2.1-9.65.74-1.22.1-6.34.48-1.29.1-4.5.35-.17,0A1.32,1.32,0,0,0,68,16.11Z" style="fill:#976b41"/><path d="M69.18,15l.28,2.7A1.44,1.44,0,0,0,71,18.89l3.22.07,1.21,0,6.27.1H83c3,0,6.25.05,9.5,0h1.17c2.8,0,5.56-.06,8.06-.14l1.21,0,2.79-.13,1.81-.12c1-.06,2.12-.14,3.24-.23l1.21-.1c2-.16,4.09-.35,6.18-.56l1.18-.11,4.63-.46,1.09-.12c2.8-.29,5.41-.58,7.6-.82l1.05-.12,5.22-.61.23,0a1.34,1.34,0,0,0,1.18-1.25l.05-4.6a1.42,1.42,0,0,0-1.63-1.29l-4.13.32-1,.08-8.09.62-1,.08h-.11l-5,.38-1.18.09-6.57.51-1.26.1-7.64.59-1.21.09-7.92.61-1.22.09-9.64.75-1.23.09L75,13.27l-1.29.1-3.2.25a1.4,1.4,0,0,0-1.35,1.12A.87.87,0,0,0,69.18,15Z" style="fill:#a97e50"/><path d="M123.38,24.25V25.3c0,1.65.12,3.39.24,5l.09,1.1c.31,3.68.73,6.61.73,6.61a.47.47,0,0,0,.51.43h4.49a.47.47,0,0,0,.49-.38l.09-.72.74-5.94.13-1.1.67-5.39.13-1.05.82-6.65.12-1,.8-6.48.12-1,.86-6.9a.45.45,0,0,0-.48-.47h-9a.48.48,0,0,0-.46.32.43.43,0,0,0,0,.11s0,3.47-.13,7.65v.07c0,.31,0,.62,0,.94-.07,2.24-.18,4.62-.34,6.72,0,.33,0,.66-.08,1-.07.83-.16,1.6-.25,2.29A30.15,30.15,0,0,0,123.38,24.25Z" style="fill:#976b41"/><path d="M110.77,19.44c0,1.74,0,3.46,0,5.18q0,.54,0,1.08c0,1.55-.13,3.09-.24,4.63,0,.36,0,.73-.09,1.1q-.24,3.07-.65,6.11a1,1,0,0,0,1.12,1.08H117a1.07,1.07,0,0,0,1.13-1V5.05a1.07,1.07,0,0,0-1.13-1h-6.15a1,1,0,0,0-1.12,1.08q.19,1.6.36,3.18c.08.74.15,1.49.21,2.23,0,.33.06.67.08,1q.24,2.87.33,5.69c0,.4,0,.8,0,1.19S110.76,19.11,110.77,19.44Z" style="fill:#976b41"/><path d="M72.59,6.41s.56,2.66,1,6.1l.12.86.12,1c.17,1.5.32,3.07.39,4.59,0,.37,0,.75,0,1.12,0,.54,0,1.07,0,1.58s0,1.33-.05,2l0,1.16c0,.38,0,.75,0,1.13,0,1.54-.08,3-.12,4.37,0,.38,0,.75,0,1.1-.06,2.41-.1,4.07-.1,4.07a2.2,2.2,0,0,0,2.4,1.91l3.92-.13A2.32,2.32,0,0,0,82.33,36a1.68,1.68,0,0,0,.15-.77l-.18-3.78,0-1.1L82,25.57l0-.36,0-1.15-.19-3.87,0-1.11-.24-5.29,0-1,0-.64-.28-6a2.21,2.21,0,0,0-2.41-1.91l-3.91.13a2.41,2.41,0,0,0-.9.19A2,2,0,0,0,72.59,6.41Z" style="fill:#976b41"/><path d="M90.9,37.82a1.38,1.38,0,0,0,1.47,1.29h8.44A1.42,1.42,0,0,0,102.27,38a.91.91,0,0,0,0-.17l-.2-6.38,0-1.1-.14-4.56,0-1.11-.12-3.74,0-.9,0-1.06-.2-6.71,0-1,0-1.13-.22-7a1.38,1.38,0,0,0-1.46-1.22h-6.5a1.23,1.23,0,0,0-.27,0h0a1.33,1.33,0,0,0-1.19,1.2c.22,2.83.39,5.56.51,8.21,0,.22,0,.44,0,.66s0,.67,0,1c.07,2.11.1,4.17.1,6.16V20.2c0,1.21,0,2.39-.08,3.55,0,.23,0,.47,0,.71s0,.75,0,1.13c-.08,1.63-.2,3.21-.34,4.74,0,.37-.07.74-.11,1.1C91.61,33.68,91.3,35.81,90.9,37.82Z" style="fill:#976b41"/><path d="M124.56,24.2c0,.35,0,.7,0,1.05.06,1.71.17,3.46.31,5.08,0,.37.06.74.1,1.1.29,3.14.63,5.51.63,5.51a.46.46,0,0,0,.5.43h4.49a.48.48,0,0,0,.5-.38l.69-5.56.13-1.1.68-5.45.12-1,.83-6.72.12-1,.8-6.45.12-1,1-7.92a.46.46,0,0,0-.5-.47h-9a.46.46,0,0,0-.5.43V.9c0,.11,0,.28,0,.49,0,1.25,0,4.11-.13,7.33,0,.22,0,.44,0,.67s0,.67,0,1c-.08,2.3-.21,4.67-.39,6.69,0,.34-.06.67-.09,1,0,.46-.1.9-.16,1.31A34,34,0,0,0,124.56,24.2Z" style="fill:#d5a060"/><path d="M110.9,4.06h0c.17,1.31.32,2.62.45,3.92.07.82.15,1.65.21,2.47,0,.34.06.67.08,1,.13,1.76.22,3.5.27,5.24,0,.55,0,1.1,0,1.64,0,.33,0,.66,0,1,0,1.76,0,3.52-.06,5.26,0,.36,0,.72,0,1.07-.06,1.56-.16,3.11-.29,4.66,0,.36-.06.73-.1,1.1-.14,1.68-.33,3.35-.55,5A1,1,0,0,0,112,37.53h6.15a1.07,1.07,0,0,0,1.13-1V4a1.06,1.06,0,0,0-1.13-1H112A1,1,0,0,0,110.9,4.06Z" style="fill:#d5a060"/><path d="M73.77,5.31s.66,3.21,1.16,7.15c0,.27.07.54.1.81l.12,1c.16,1.57.28,3.19.31,4.71,0,.39,0,.76,0,1.12,0,.16,0,.31,0,.46,0,1,0,2.11-.08,3.17l0,1.16c0,.35,0,.71,0,1.07,0,1.58-.07,3.08-.11,4.37,0,.38,0,.75,0,1.1,0,1.8-.07,3-.07,3a2.2,2.2,0,0,0,2.41,1.91l3.91-.13a2.42,2.42,0,0,0,.9-.2,2,2,0,0,0,1.32-1.87l-.12-2.68-.06-1.1-.22-4.9v-.17l0-1.15L83,20.2,83,19.08l-.25-5.39,0-1,0-.62-.32-7A2.2,2.2,0,0,0,79.9,3.11L76,3.24a2.3,2.3,0,0,0-2.07,1.29A1.7,1.7,0,0,0,73.77,5.31Z" style="fill:#d5a060"/><path d="M92.08,36.72A1.36,1.36,0,0,0,93.54,38H102a1.27,1.27,0,0,0,.28,0,1.31,1.31,0,0,0,1.18-1.27l-.16-5.28,0-1.1-.14-4.55,0-1.11L103,20.49l0-.52,0-1-.21-6.77,0-1,0-1.24L102.37,2A1.36,1.36,0,0,0,100.91.75H94.42A1.39,1.39,0,0,0,93,1.87.37.37,0,0,0,93,2q.38,4.74.54,9.17l0,.7,0,1c.07,2.15.09,4.24.07,6.25,0,.37,0,.74,0,1.1,0,1.11-.05,2.2-.09,3.26,0,.34,0,.69,0,1s0,.76-.07,1.13c-.09,1.62-.22,3.19-.38,4.71,0,.36-.08.73-.13,1.1Q92.58,34.21,92.08,36.72Z" style="fill:#d5a060"/><ellipse cx="130.07" cy="12.47" rx="1.17" ry="1.06" style="fill:#976b41"/><ellipse cx="129.97" cy="12.31" rx="1.08" ry="0.93" style="fill:#a97e50"/><g style="opacity:0.48"><ellipse cx="130.18" cy="12.18" rx="0.77" ry="0.66" style="fill:#d5a060"/></g><path d="M130.4,13a1.62,1.62,0,0,0-.18-1,1.23,1.23,0,0,0-.55-.53s.06,0,.1,0a1,1,0,0,1,.67.53c.33.64.08.93.08.93Z" style="fill:#976b41"/><ellipse cx="115.1" cy="13.76" rx="1.17" ry="1.06" style="fill:#976b41"/><ellipse cx="115.01" cy="13.59" rx="1.08" ry="0.93" style="fill:#a97e50"/><g style="opacity:0.48"><ellipse cx="115.22" cy="13.46" rx="0.77" ry="0.66" style="fill:#d5a060"/></g><path d="M115.44,14.29a1.81,1.81,0,0,0-.18-1,1.3,1.3,0,0,0-.55-.53s.05-.05.09,0a1,1,0,0,1,.67.53c.34.65.08.93.08.93Z" style="fill:#976b41"/><ellipse cx="115.64" cy="28.09" rx="1.17" ry="1.06" style="fill:#976b41"/><ellipse cx="115.55" cy="27.93" rx="1.08" ry="0.93" style="fill:#a97e50"/><g style="opacity:0.48"><ellipse cx="115.76" cy="27.8" rx="0.77" ry="0.66" style="fill:#d5a060"/></g><path d="M116,28.63a1.62,1.62,0,0,0-.18-1,1.23,1.23,0,0,0-.55-.53s.06-.05.1,0a1,1,0,0,1,.67.53c.33.64.07.93.07.93Z" style="fill:#976b41"/><ellipse cx="98.22" cy="27.7" rx="1.17" ry="1.06" style="fill:#976b41"/><ellipse cx="98.12" cy="27.53" rx="1.08" ry="0.93" style="fill:#a97e50"/><g style="opacity:0.48"><ellipse cx="98.33" cy="27.4" rx="0.77" ry="0.66" style="fill:#d5a060"/></g><path d="M98.55,28.23a1.62,1.62,0,0,0-.18-1,1.25,1.25,0,0,0-.55-.53s.06,0,.1,0a1,1,0,0,1,.67.53c.34.65.08.93.08.93Z" style="fill:#976b41"/><ellipse cx="99.2" cy="15.3" rx="1.17" ry="1.06" style="fill:#976b41"/><ellipse cx="99.11" cy="15.13" rx="1.08" ry="0.93" style="fill:#a97e50"/><g style="opacity:0.48"><ellipse cx="99.32" cy="15" rx="0.77" ry="0.66" style="fill:#d5a060"/></g><path d="M99.54,15.83a1.64,1.64,0,0,0-.18-1,1.3,1.3,0,0,0-.55-.53.26.26,0,0,1,.09,0,1,1,0,0,1,.68.53c.33.65.07.94.07.94Z" style="fill:#976b41"/><ellipse cx="79.49" cy="16.38" rx="1.17" ry="1.06" style="fill:#976b41"/><ellipse cx="79.39" cy="16.21" rx="1.08" ry="0.93" style="fill:#a97e50"/><g style="opacity:0.48"><ellipse cx="79.6" cy="16.08" rx="0.77" ry="0.66" style="fill:#d5a060"/></g><path d="M79.82,16.91a1.63,1.63,0,0,0-.18-1,1.3,1.3,0,0,0-.55-.53.25.25,0,0,1,.1,0,1,1,0,0,1,.67.53c.33.65.07.94.07.94Z" style="fill:#976b41"/><ellipse cx="79.09" cy="27.55" rx="1.17" ry="1.06" style="fill:#976b41"/><ellipse cx="79" cy="27.38" rx="1.08" ry="0.93" style="fill:#a97e50"/><g style="opacity:0.48"><ellipse cx="79.21" cy="27.25" rx="0.77" ry="0.66" style="fill:#d5a060"/></g><path d="M79.43,28.08a1.62,1.62,0,0,0-.18-1,1.3,1.3,0,0,0-.55-.53s.06-.05.09,0a1,1,0,0,1,.68.53c.33.64.07.93.07.93Z" style="fill:#976b41"/><ellipse cx="128.57" cy="26.92" rx="1.17" ry="1.06" style="fill:#976b41"/><ellipse cx="128.48" cy="26.75" rx="1.08" ry="0.93" style="fill:#a97e50"/><g style="opacity:0.48"><ellipse cx="128.69" cy="26.62" rx="0.77" ry="0.66" style="fill:#d5a060"/></g><path d="M128.9,27.45a1.67,1.67,0,0,0-.17-1,1.3,1.3,0,0,0-.55-.53s0-.05.09,0a1,1,0,0,1,.67.53c.34.65.08.94.08.94Z" style="fill:#976b41"/><g style="opacity:0.32"><path d="M68.26,25.56l1.13.13c1.38.14,3,.25,4.8.27h1.13A64.38,64.38,0,0,0,82,25.57l1.22-.14c.33,0,.66-.08,1-.13,1.71-.23,3.5-.54,5.39-.93-2.25-.08-4.43-.17-6.45-.26L83,20.2c3,0,6.25,0,9.45,0,0,1.21,0,2.39-.08,3.55l1.15-.29c2.6-.67,5.35-1.5,8.22-2.54l1.2-.43,1.57-.6c1-.4,2-.8,3-1.22s2.17-.93,3.21-1.42l1.2-.55q3.36-1.62,6.22-3.26l1.18-.68c1.21-.72,2.36-1.44,3.44-2.15.54-.36,1.06-.71,1.56-1.06l.11-.08,1.06-.75a59.44,59.44,0,0,0,8.45-7.32c.37-.38.7-.75,1-1.1H126.4c-.25.19-.52.39-.78.6l-.7.5-.46.32a.43.43,0,0,0,0,.11s0,3.47-.13,7.65l-5,.38V4.79l-1.18.58c-.79.38-1.62.76-2.48,1.13A41.24,41.24,0,0,1,111.35,8l-1.26.34c.08.74.15,1.49.21,2.23l-7.64.59,0-1.24-1.2.2c-2.57.4-5.25.75-7.92,1l-1.21.13c0,.22,0,.44,0,.66l-9.64.75,0-.62-1.21.07c-2.32.14-4.51.24-6.49.32l-1.31,0,.12.86-3.2.25a1.4,1.4,0,0,0-1.35,1.12A1.32,1.32,0,0,0,68,16.11l.28,2.71A1.43,1.43,0,0,0,69.86,20l4.43.09c0,.54,0,1.07,0,1.58s0,1.33-.05,2l-3.32-.19a1.48,1.48,0,0,0-1.52,1.13A1.48,1.48,0,0,0,68.26,25.56Z" style="fill:#f6cf8a"/></g><path d="M206.14,25.72v4.2a1.44,1.44,0,0,1-1.53,1.32H136.06a1.48,1.48,0,0,1-1.52-1.13,1.21,1.21,0,0,1,0-.19v-4.2a1.44,1.44,0,0,1,1.53-1.33l5.69.31,1,.05,7,.32,1.2,0,4.07.16,1.18,0c2.08.07,4.19.13,6.28.18l1.14,0c2.46,0,4.86.08,7.12.08h1.69c2.73,0,5.61-.07,8.48-.15l1.11,0c2.77-.08,5.5-.19,8.06-.29l1,0,1.23,0c2.5-.11,4.77-.22,6.66-.32l1.14-.06c2.77-.15,4.47-.26,4.47-.26a2,2,0,0,1,.34,0,1.47,1.47,0,0,1,1.14,1A1.27,1.27,0,0,1,206.14,25.72Z" style="fill:#976b41"/><path d="M205,24.62v4.21a1.43,1.43,0,0,1-1.53,1.31H134.89a2,2,0,0,1-.35,0,1.38,1.38,0,0,1-1.19-1.28V24.62a1.44,1.44,0,0,1,1.54-1.32l6.73.36,1,.05c2.11.1,4.54.21,7.13.31l1.18.05,4.07.14,1.18,0c2.07.07,4.17.13,6.24.17l1.15,0c2,0,4.07.06,6,.06h2.89c2.73,0,5.57-.09,8.38-.17l1.14,0,2.71-.09c2.25-.08,4.43-.17,6.45-.26l1.23-.05,6.58-.33,1.14-.06,3.32-.19A1.49,1.49,0,0,1,205,24.42,1.34,1.34,0,0,1,205,24.62Z" style="fill:#ad7d46"/><path d="M206.35,15.93l-.28,2.7a1.47,1.47,0,0,1-1.58,1.18l-4.43.09-1.18,0-6.31.09h-1.23c-3,0-6.25,0-9.45,0h-1.16c-2.85,0-5.62-.09-8.1-.18l-1.21-.05-1.59-.08c-1.89-.11-4-.27-6.25-.45l-1.18-.1-6.18-.57L155,18.47,150.49,18l-1.08-.12c-2.85-.3-5.46-.59-7.57-.83l-1.05-.12-4.17-.49a1.42,1.42,0,0,1-1.4-1.12c0-.05,0-.1,0-.15l0-4.6a1.42,1.42,0,0,1,1.62-1.3l3.08.24,1,.08,8,.62,1.14.09,1.53.12,3.44.26,1.18.09,6.49.5,1.26.1,7.69.59,1.21.09,7.92.61,1.21.1,9.64.74,1.22.09,6.34.49,1.29.1,4.5.34.18,0A1.33,1.33,0,0,1,206.35,15.93Z" style="fill:#976b41"/><path d="M205.17,14.83l-.28,2.7a1.45,1.45,0,0,1-1.57,1.18l-3.22.06c-.38,0-.78,0-1.21,0l-6.27.1h-1.23c-3,0-6.25.05-9.5,0h-1.17c-2.8,0-5.56-.06-8.06-.14l-1.21,0-2.79-.13-1.8-.12c-1-.07-2.13-.14-3.25-.23l-1.21-.1c-2-.17-4.08-.35-6.18-.56L155,17.49,150.41,17c-.36-.05-.73-.08-1.09-.12-2.8-.29-5.41-.58-7.6-.83-.36,0-.72-.07-1.05-.12l-5.22-.6-.23,0A1.35,1.35,0,0,1,134,14.08l0-4.6a1.43,1.43,0,0,1,1.63-1.3l4.13.32,1.05.08,8.09.63,1,.07H150l5,.39,1.18.09,6.57.51,1.26.09,7.64.59,1.21.09,7.92.62,1.22.09,9.65.74,1.22.1,6.41.49,1.3.1,3.19.25a1.41,1.41,0,0,1,1.36,1.12A1.22,1.22,0,0,1,205.17,14.83Z" style="fill:#a97e50"/><path d="M151,24.07v1c0,1.66-.12,3.4-.24,5,0,.38-.06.74-.09,1.1-.31,3.68-.73,6.62-.73,6.62a.47.47,0,0,1-.51.43h-4.49a.48.48,0,0,1-.49-.39l-.09-.71-.74-5.95-.13-1.1-.67-5.39-.13-1-.82-6.65-.12-1-.8-6.48-.12-1-.86-6.89a.45.45,0,0,1,.48-.47h9a.46.46,0,0,1,.46.32.36.36,0,0,1,0,.11s0,3.47.13,7.64v.08c0,.31,0,.62,0,.94.07,2.24.18,4.62.34,6.72,0,.33.05.66.08,1,.08.83.16,1.6.25,2.28A30.44,30.44,0,0,1,151,24.07Z" style="fill:#976b41"/><path d="M163.58,19.26c0,1.73,0,3.46,0,5.18,0,.36,0,.72,0,1.08q.08,2.32.24,4.62l.09,1.1q.24,3.09.65,6.12a1,1,0,0,1-1.12,1.08h-6.15a1.07,1.07,0,0,1-1.13-1V4.87a1.07,1.07,0,0,1,1.13-1h6.15A1,1,0,0,1,164.62,5c-.13,1.06-.25,2.13-.36,3.18q-.12,1.11-.21,2.22c0,.34-.06.67-.08,1-.16,1.91-.27,3.8-.33,5.69,0,.4,0,.79,0,1.19S163.59,18.93,163.58,19.26Z" style="fill:#976b41"/><path d="M201.76,6.23s-.55,2.66-1,6.1c0,.28-.08.57-.11.86s-.09.66-.13,1c-.17,1.5-.32,3.07-.39,4.58,0,.38,0,.76,0,1.13,0,.54,0,1.07,0,1.58s0,1.33.05,2l0,1.16,0,1.12c0,1.54.07,3,.11,4.37,0,.39,0,.75,0,1.1.06,2.42.1,4.08.1,4.08a2.2,2.2,0,0,1-2.4,1.91l-3.92-.13A2.32,2.32,0,0,1,192,35.8a1.7,1.7,0,0,1-.15-.78l.18-3.78,0-1.1.22-4.75,0-.36,0-1.15.18-3.87.05-1.11.24-5.3,0-1,0-.64.28-6A2.21,2.21,0,0,1,195.62,4l3.91.13a2.42,2.42,0,0,1,.9.2A2,2,0,0,1,201.76,6.23Z" style="fill:#976b41"/><path d="M183.45,37.64A1.37,1.37,0,0,1,182,38.92h-8.44a1.41,1.41,0,0,1-1.46-1.12.91.91,0,0,1,0-.17l.21-6.39,0-1.1.14-4.55,0-1.11.12-3.74,0-.9,0-1.06.21-6.72,0-1,0-1.13.22-7a1.38,1.38,0,0,1,1.46-1.22h6.5a1.23,1.23,0,0,1,.27,0h0a1.35,1.35,0,0,1,1.19,1.21q-.33,4.23-.51,8.21c0,.22,0,.44,0,.66s0,.67,0,1c-.08,2.11-.11,4.17-.11,6.16V20c0,1.21,0,2.39.08,3.54q0,.36,0,.72c0,.37,0,.75,0,1.13.08,1.63.2,3.21.34,4.73,0,.38.07.74.11,1.1C182.74,33.5,183.05,35.63,183.45,37.64Z" style="fill:#976b41"/><path d="M149.79,24c0,.35,0,.7,0,1.05-.06,1.71-.17,3.46-.31,5.07,0,.38-.06.75-.1,1.1-.29,3.15-.63,5.52-.63,5.52a.46.46,0,0,1-.5.43h-4.49a.49.49,0,0,1-.5-.39l-.69-5.56-.13-1.1-.67-5.44-.13-1-.83-6.72-.12-1-.8-6.44-.12-1-1-7.91a.47.47,0,0,1,.5-.48h9a.47.47,0,0,1,.5.44V.71c0,.12,0,.29,0,.5,0,1.25,0,4.11.13,7.33,0,.22,0,.44,0,.67s0,.67,0,1c.08,2.29.21,4.67.39,6.69,0,.34.06.67.09,1s.1.9.16,1.3A34.25,34.25,0,0,1,149.79,24Z" style="fill:#d5a060"/><path d="M163.45,3.88h0c-.17,1.31-.32,2.61-.45,3.91-.07.83-.15,1.66-.21,2.48,0,.33-.06.67-.08,1-.12,1.76-.22,3.5-.26,5.23,0,.55,0,1.1,0,1.65,0,.33,0,.66,0,1,0,1.76,0,3.51.06,5.26,0,.35,0,.72,0,1.07.06,1.56.16,3.11.29,4.65,0,.37.06.74.1,1.1.15,1.69.33,3.36.55,5a1,1,0,0,1-1.12,1.08h-6.15a1.07,1.07,0,0,1-1.13-1V3.77a1.07,1.07,0,0,1,1.13-1h6.16A1,1,0,0,1,163.45,3.88Z" style="fill:#d5a060"/><path d="M200.58,5.13s-.66,3.21-1.16,7.15c0,.27-.07.54-.1.81l-.12,1c-.16,1.57-.28,3.19-.31,4.71,0,.38,0,.75,0,1.12,0,.16,0,.31,0,.46,0,1,.05,2.11.08,3.17l0,1.16,0,1.06c0,1.58.07,3.09.11,4.37,0,.39,0,.76,0,1.1,0,1.81.07,3,.07,3a2.2,2.2,0,0,1-2.41,1.91L192.92,36a2.42,2.42,0,0,1-.9-.2,2,2,0,0,1-1.32-1.88l.12-2.68.06-1.1.22-4.89v-.17l0-1.15.18-3.91,0-1.12.25-5.39.05-1,0-.61.32-7a2.21,2.21,0,0,1,2.41-1.92l3.91.14a2.3,2.3,0,0,1,2.07,1.29A1.7,1.7,0,0,1,200.58,5.13Z" style="fill:#d5a060"/><path d="M182.27,36.54a1.36,1.36,0,0,1-1.46,1.28h-8.45l-.28,0a1.32,1.32,0,0,1-1.18-1.27l.16-5.29,0-1.1.14-4.54,0-1.11.14-4.18v-.52l0-1.05.21-6.77,0-1,0-1.24L172,1.79A1.38,1.38,0,0,1,173.44.56h6.49a1.4,1.4,0,0,1,1.45,1.12.45.45,0,0,1,0,.11Q181,6.55,180.85,11l0,.71,0,1c-.07,2.15-.09,4.24-.07,6.25,0,.37,0,.73,0,1.1,0,1.11.05,2.19.09,3.26,0,.34,0,.69,0,1s0,.76.07,1.13c.09,1.62.22,3.19.38,4.7,0,.37.08.74.13,1.1C181.66,33.1,181.94,34.86,182.27,36.54Z" style="fill:#d5a060"/><ellipse cx="144.28" cy="12.29" rx="1.17" ry="1.06" style="fill:#976b41"/><ellipse cx="144.38" cy="12.12" rx="1.08" ry="0.93" style="fill:#a97e50"/><g style="opacity:0.48"><ellipse cx="144.17" cy="12" rx="0.77" ry="0.66" style="fill:#d5a060"/></g><path d="M144,12.82a1.64,1.64,0,0,1,.18-1,1.3,1.3,0,0,1,.55-.53.25.25,0,0,0-.1,0,1,1,0,0,0-.67.53c-.33.65-.07.94-.07.94Z" style="fill:#976b41"/><ellipse cx="159.25" cy="13.57" rx="1.17" ry="1.06" style="fill:#976b41"/><ellipse cx="159.34" cy="13.41" rx="1.08" ry="0.93" style="fill:#a97e50"/><g style="opacity:0.48"><ellipse cx="159.13" cy="13.28" rx="0.77" ry="0.66" style="fill:#d5a060"/></g><path d="M158.92,14.11a1.62,1.62,0,0,1,.18-1,1.18,1.18,0,0,1,.54-.53s0,0-.09,0a1,1,0,0,0-.67.53c-.34.64-.08.93-.08.93Z" style="fill:#976b41"/><ellipse cx="158.71" cy="27.91" rx="1.17" ry="1.06" style="fill:#976b41"/><ellipse cx="158.8" cy="27.75" rx="1.08" ry="0.93" style="fill:#a97e50"/><g style="opacity:0.48"><ellipse cx="158.59" cy="27.62" rx="0.77" ry="0.66" style="fill:#d5a060"/></g><path d="M158.37,28.45a1.62,1.62,0,0,1,.18-1,1.29,1.29,0,0,1,.55-.54.17.17,0,0,0-.1,0,1,1,0,0,0-.67.52c-.33.65-.07.94-.07.94Z" style="fill:#976b41"/><ellipse cx="176.13" cy="27.51" rx="1.17" ry="1.06" style="fill:#976b41"/><ellipse cx="176.23" cy="27.35" rx="1.08" ry="0.93" style="fill:#a97e50"/><g style="opacity:0.48"><ellipse cx="176.02" cy="27.22" rx="0.77" ry="0.66" style="fill:#d5a060"/></g><path d="M175.8,28.05a1.62,1.62,0,0,1,.18-1,1.23,1.23,0,0,1,.55-.53s-.06,0-.1,0a1,1,0,0,0-.67.53c-.33.64-.08.93-.08.93Z" style="fill:#976b41"/><ellipse cx="175.15" cy="15.12" rx="1.17" ry="1.06" style="fill:#976b41"/><ellipse cx="175.24" cy="14.95" rx="1.08" ry="0.93" style="fill:#a97e50"/><g style="opacity:0.48"><ellipse cx="175.03" cy="14.82" rx="0.77" ry="0.66" style="fill:#d5a060"/></g><path d="M174.81,15.65a1.71,1.71,0,0,1,.18-1,1.3,1.3,0,0,1,.55-.53s-.06-.05-.09,0a1,1,0,0,0-.67.53c-.34.65-.08.94-.08.94Z" style="fill:#976b41"/><ellipse cx="194.87" cy="16.2" rx="1.17" ry="1.06" style="fill:#976b41"/><ellipse cx="194.96" cy="16.03" rx="1.08" ry="0.93" style="fill:#a97e50"/><g style="opacity:0.48"><ellipse cx="194.75" cy="15.9" rx="0.77" ry="0.66" style="fill:#d5a060"/></g><path d="M194.53,16.73a1.62,1.62,0,0,1,.18-1,1.3,1.3,0,0,1,.55-.53s-.06-.05-.1,0a1,1,0,0,0-.67.53c-.33.65-.07.94-.07.94Z" style="fill:#976b41"/><ellipse cx="195.26" cy="27.36" rx="1.17" ry="1.06" style="fill:#976b41"/><ellipse cx="195.35" cy="27.2" rx="1.08" ry="0.93" style="fill:#a97e50"/><g style="opacity:0.48"><ellipse cx="195.14" cy="27.07" rx="0.77" ry="0.66" style="fill:#d5a060"/></g><path d="M194.92,27.9a1.71,1.71,0,0,1,.18-1,1.29,1.29,0,0,1,.55-.54s-.06,0-.09,0a.93.93,0,0,0-.67.53c-.34.64-.08.93-.08.93Z" style="fill:#976b41"/><ellipse cx="145.78" cy="26.74" rx="1.17" ry="1.06" style="fill:#976b41"/><ellipse cx="145.88" cy="26.57" rx="1.08" ry="0.93" style="fill:#a97e50"/><g style="opacity:0.48"><ellipse cx="145.67" cy="26.44" rx="0.77" ry="0.66" style="fill:#d5a060"/></g><path d="M145.45,27.27a1.62,1.62,0,0,1,.18-1,1.25,1.25,0,0,1,.54-.53s0-.05-.09,0a1,1,0,0,0-.67.53c-.34.65-.08.93-.08.93Z" style="fill:#976b41"/><g style="opacity:0.32"><path d="M206.09,25.38l-1.13.13c-1.38.14-3,.24-4.79.26-.38,0-.75,0-1.14,0a67,67,0,0,1-6.71-.38l-1.22-.14-1-.13c-1.71-.23-3.5-.54-5.39-.93,2.25-.08,4.43-.17,6.45-.26l.18-3.91c-3,0-6.25,0-9.45,0,0,1.21,0,2.39.08,3.54-.38-.08-.76-.18-1.15-.28-2.6-.67-5.35-1.51-8.22-2.54l-1.19-.43-1.58-.6c-1-.4-2-.8-3-1.22-1.11-.46-2.18-.93-3.22-1.42l-1.19-.56c-2.25-1.07-4.32-2.16-6.23-3.25L155,12.58c-1.21-.73-2.36-1.44-3.44-2.15-.54-.36-1.06-.71-1.56-1.06a.48.48,0,0,1-.11-.09c-.36-.24-.71-.49-1.06-.74a59.44,59.44,0,0,1-8.45-7.32c-.37-.38-.7-.76-1-1.11H148l.78.6.7.51.46.32a.36.36,0,0,1,0,.11s0,3.47.13,7.64l5,.39V4.6c.39.2.78.4,1.18.59.79.38,1.62.76,2.48,1.13A39.09,39.09,0,0,0,163,7.8l1.26.35q-.12,1.11-.21,2.22l7.64.59,0-1.24,1.2.2c2.58.41,5.25.76,7.92,1l1.21.14c0,.22,0,.44,0,.66l9.65.74,0-.61,1.21.07c2.32.14,4.51.24,6.49.32l1.31.05c0,.28-.08.57-.11.86l3.19.25a1.41,1.41,0,0,1,1.36,1.12,1.33,1.33,0,0,1,1.18,1.37l-.28,2.7a1.47,1.47,0,0,1-1.58,1.18l-4.43.09c0,.54,0,1.07,0,1.58s0,1.33.05,2l3.32-.19A1.49,1.49,0,0,1,205,24.42,1.47,1.47,0,0,1,206.09,25.38Z" style="fill:#f6cf8a"/></g><path d="M201.56,26v4.2a1.44,1.44,0,0,0,1.54,1.33h68.54a1.47,1.47,0,0,0,1.52-1.14,1.11,1.11,0,0,0,0-.19V26a1.45,1.45,0,0,0-1.54-1.32s-2.21.13-5.68.3l-1,.06c-2,.09-4.4.21-7,.31l-1.2.05-4.07.16-1.18,0c-2.08.08-4.19.14-6.28.19l-1.14,0c-2.45.05-4.86.08-7.12.08h-1.68c-2.74,0-5.62-.08-8.49-.16l-1.11,0c-2.77-.08-5.5-.18-8.06-.29l-1,0-1.22-.05L208.7,25l-1.14-.06-4.46-.25a1.79,1.79,0,0,0-.34,0,1.47,1.47,0,0,0-1.15,1A1.2,1.2,0,0,0,201.56,26Z" style="fill:#976b41"/><path d="M202.74,24.91v4.21a1.43,1.43,0,0,0,1.53,1.32h68.54a1.34,1.34,0,0,0,.35,0,1.37,1.37,0,0,0,1.19-1.28V24.91a1.44,1.44,0,0,0-1.54-1.32s-2.66.16-6.73.36L265,24l-7.13.32-1.18,0-4.07.15-1.18,0c-2.07.06-4.17.12-6.24.16l-1.15,0c-2.05,0-4.07.06-6,.06h-2.9c-2.73,0-5.57-.09-8.38-.18-.38,0-.76,0-1.13,0-.92,0-1.83-.06-2.72-.09-2.25-.08-4.43-.16-6.45-.25l-1.22-.06-6.59-.33-1.14-.06-3.32-.19a1.47,1.47,0,0,0-1.51,1.13A.62.62,0,0,0,202.74,24.91Z" style="fill:#ad7d46"/><path d="M201.36,16.23l.28,2.7a1.43,1.43,0,0,0,1.57,1.17l4.43.1,1.18,0,6.31.08h1.23c3,0,6.26,0,9.45,0H227c2.85,0,5.62-.08,8.1-.18l1.21-.05,1.59-.08c1.89-.11,4-.26,6.25-.45l1.18-.1c2-.17,4.1-.36,6.18-.57l1.18-.11,4.55-.47,1.08-.11c2.85-.3,5.46-.6,7.57-.84l1.05-.12,4.17-.48a1.42,1.42,0,0,0,1.4-1.12c0-.05,0-.1,0-.16l0-4.6a1.42,1.42,0,0,0-1.62-1.29l-3.08.23-1.05.09-8,.61-1.14.09-1.53.12-3.44.26-1.18.1-6.49.49-1.25.1-7.7.59-1.2.1-7.93.61-1.2.09-9.65.74-1.22.1-6.34.48-1.29.1-4.5.35-.17,0A1.32,1.32,0,0,0,201.36,16.23Z" style="fill:#976b41"/><path d="M202.53,15.13l.28,2.7A1.44,1.44,0,0,0,204.39,19l3.21.07,1.21,0,6.28.09h1.22c3,0,6.25,0,9.51,0H227c2.8,0,5.56-.07,8.06-.14l1.21,0c1,0,1.92-.08,2.8-.13l1.8-.11,3.24-.24,1.21-.1c2-.16,4.09-.35,6.18-.55l1.18-.11,4.63-.47,1.09-.11c2.8-.3,5.41-.58,7.6-.83l1-.12c3.18-.36,5.22-.61,5.22-.61l.23,0a1.35,1.35,0,0,0,1.18-1.26l0-4.6a1.42,1.42,0,0,0-1.63-1.29L268,8.8l-1,.08-8.1.62-1,.08h-.1l-5,.39-1.18.09-6.56.5-1.27.1-7.64.59-1.2.09-7.93.61-1.22.1L216,12.8l-1.23.09-6.41.49-1.29.1-3.2.25a1.4,1.4,0,0,0-1.35,1.12A.87.87,0,0,0,202.53,15.13Z" style="fill:#a97e50"/><path d="M256.73,24.36v1.05c0,1.65.12,3.39.24,5l.09,1.1c.31,3.68.73,6.61.73,6.61a.48.48,0,0,0,.51.44h4.49a.49.49,0,0,0,.5-.39l.08-.71.74-6,.13-1.1.67-5.39L265,24l.82-6.65.12-1,.8-6.48.13-1,.85-6.9a.46.46,0,0,0-.48-.47h-9a.5.5,0,0,0-.46.32.52.52,0,0,0,0,.11s0,3.48-.12,7.65v.07c0,.31,0,.63,0,.94-.07,2.25-.18,4.62-.34,6.72,0,.34-.05.66-.08,1-.07.83-.16,1.6-.25,2.29A30.39,30.39,0,0,0,256.73,24.36Z" style="fill:#976b41"/><path d="M244.12,19.55c0,1.74,0,3.47,0,5.18q0,.56,0,1.08c0,1.56-.13,3.1-.24,4.63,0,.37,0,.73-.08,1.1q-.26,3.08-.66,6.11a1,1,0,0,0,1.12,1.08h6.15a1.06,1.06,0,0,0,1.13-1V5.16a1.06,1.06,0,0,0-1.13-1H244.2a1,1,0,0,0-1.12,1.08c.13,1.06.25,2.12.36,3.17.08.75.16,1.49.21,2.23,0,.33.06.67.09,1,.15,1.91.26,3.81.32,5.69,0,.4,0,.8,0,1.19S244.11,19.22,244.12,19.55Z" style="fill:#976b41"/><path d="M205.94,6.52s.56,2.66,1,6.1l.12.86.12,1c.17,1.5.32,3.07.39,4.59,0,.38,0,.75,0,1.13,0,.53,0,1.06,0,1.58s0,1.33,0,2l0,1.16c0,.38,0,.75,0,1.13,0,1.54-.08,3-.12,4.37,0,.38,0,.75,0,1.1-.06,2.41-.1,4.07-.1,4.07a2.21,2.21,0,0,0,2.41,1.91l3.91-.13a2.29,2.29,0,0,0,2.07-1.3,1.68,1.68,0,0,0,.15-.77l-.18-3.78-.05-1.1-.22-4.75v-.37l-.05-1.15-.19-3.87,0-1.11-.25-5.29-.05-1,0-.64-.28-6a2.21,2.21,0,0,0-2.41-1.91l-3.91.13a2.63,2.63,0,0,0-.9.19A2,2,0,0,0,205.94,6.52Z" style="fill:#976b41"/><path d="M224.25,37.93a1.37,1.37,0,0,0,1.47,1.29h8.44a1.41,1.41,0,0,0,1.46-1.13.86.86,0,0,0,0-.16l-.2-6.39,0-1.1-.14-4.55,0-1.11L235.1,21l0-.9,0-1.05-.2-6.72,0-1,0-1.13-.22-7A1.38,1.38,0,0,0,233.09,2h-6.5l-.27,0h0a1.33,1.33,0,0,0-1.19,1.21c.22,2.82.39,5.56.51,8.2,0,.23,0,.45,0,.67s0,.67.05,1q.1,3.18.11,6.16c0,.37,0,.73,0,1.1,0,1.21,0,2.38-.08,3.54,0,.24,0,.48,0,.71s0,.76-.05,1.13c-.08,1.64-.2,3.22-.34,4.74,0,.37-.07.74-.11,1.1C225,33.8,224.65,35.93,224.25,37.93Z" style="fill:#976b41"/><path d="M257.91,24.32c0,.34,0,.69,0,1,.06,1.71.17,3.47.31,5.08,0,.38.06.74.1,1.1.29,3.15.63,5.51.63,5.51a.47.47,0,0,0,.5.44H264a.48.48,0,0,0,.5-.39l.69-5.56.13-1.1L266,25l.12-1,.83-6.72.12-1,.8-6.45.12-1,1-7.92a.46.46,0,0,0-.5-.47h-9a.46.46,0,0,0-.5.43V1c0,.12,0,.28,0,.5,0,1.24,0,4.11-.13,7.33,0,.22,0,.44,0,.66s0,.67,0,1c-.08,2.3-.21,4.67-.39,6.7l-.09,1c-.05.46-.1.89-.16,1.3A35.74,35.74,0,0,0,257.91,24.32Z" style="fill:#d5a060"/><path d="M244.25,4.17v0c.17,1.31.32,2.61.45,3.91.08.82.15,1.65.22,2.47,0,.34.05.67.07,1,.13,1.76.22,3.51.27,5.24,0,.55,0,1.1,0,1.64,0,.34,0,.67,0,1,0,1.77,0,3.52-.06,5.26,0,.36,0,.72,0,1.08-.06,1.56-.16,3.11-.28,4.65,0,.37-.07.73-.11,1.1-.14,1.68-.33,3.35-.55,5a1,1,0,0,0,1.12,1.09h6.15a1.07,1.07,0,0,0,1.13-1V4.06a1.06,1.06,0,0,0-1.13-1h-6.16A1,1,0,0,0,244.25,4.17Z" style="fill:#d5a060"/><path d="M207.12,5.42s.67,3.22,1.16,7.15c0,.27.07.54.1.81l.12,1c.16,1.58.28,3.19.31,4.72,0,.38,0,.75,0,1.12,0,.15,0,.31,0,.46,0,1-.05,2.1-.08,3.16l0,1.16c0,.36,0,.71,0,1.07,0,1.58-.07,3.08-.11,4.37,0,.39,0,.75,0,1.1,0,1.81-.07,3-.07,3a2.21,2.21,0,0,0,2.41,1.91l3.91-.13a2.42,2.42,0,0,0,.9-.2A2,2,0,0,0,217,34.22l-.12-2.68,0-1.1-.23-4.89v-.18l-.05-1.14-.18-3.92-.05-1.11-.25-5.4,0-1,0-.62-.33-7a2.21,2.21,0,0,0-2.41-1.91l-3.91.14a2.32,2.32,0,0,0-2.07,1.28A1.73,1.73,0,0,0,207.12,5.42Z" style="fill:#d5a060"/><path d="M225.43,36.83a1.36,1.36,0,0,0,1.46,1.29h8.45a1.27,1.27,0,0,0,.28,0,1.31,1.31,0,0,0,1.18-1.26l-.16-5.29,0-1.1-.14-4.55,0-1.1-.13-4.19,0-.52,0-1L236,12.26l0-1L236,10l-.25-7.94A1.36,1.36,0,0,0,234.26.86h-6.49A1.39,1.39,0,0,0,226.32,2a.41.41,0,0,0,0,.11q.38,4.76.54,9.17l0,.7,0,1q.1,3.22.07,6.25c0,.36,0,.73,0,1.09,0,1.11-.05,2.2-.09,3.26,0,.35,0,.69,0,1s-.05.76-.07,1.13c-.09,1.63-.22,3.2-.38,4.71l-.12,1.1C226,33.39,225.76,35.16,225.43,36.83Z" style="fill:#d5a060"/><ellipse cx="263.42" cy="12.59" rx="1.17" ry="1.06" style="fill:#976b41"/><ellipse cx="263.32" cy="12.42" rx="1.08" ry="0.93" style="fill:#a97e50"/><g style="opacity:0.48"><ellipse cx="263.53" cy="12.29" rx="0.77" ry="0.66" style="fill:#d5a060"/></g><path d="M263.75,13.12a1.62,1.62,0,0,0-.18-1,1.25,1.25,0,0,0-.55-.53s.06-.05.1,0a1,1,0,0,1,.67.53c.34.65.08.93.08.93Z" style="fill:#976b41"/><ellipse cx="248.45" cy="13.87" rx="1.17" ry="1.06" style="fill:#976b41"/><ellipse cx="248.36" cy="13.7" rx="1.08" ry="0.93" style="fill:#a97e50"/><g style="opacity:0.48"><ellipse cx="248.57" cy="13.57" rx="0.77" ry="0.66" style="fill:#d5a060"/></g><path d="M248.79,14.4a1.81,1.81,0,0,0-.18-1,1.3,1.3,0,0,0-.55-.53s.05-.05.09,0a1,1,0,0,1,.67.53c.34.65.08.94.08.94Z" style="fill:#976b41"/><ellipse cx="249" cy="28.21" rx="1.17" ry="1.06" style="fill:#976b41"/><ellipse cx="248.9" cy="28.04" rx="1.08" ry="0.93" style="fill:#a97e50"/><g style="opacity:0.48"><ellipse cx="249.11" cy="27.91" rx="0.77" ry="0.66" style="fill:#d5a060"/></g><path d="M249.33,28.74a1.62,1.62,0,0,0-.18-1,1.3,1.3,0,0,0-.55-.53s.06-.05.1,0a1,1,0,0,1,.67.53c.33.65.07.94.07.94Z" style="fill:#976b41"/><ellipse cx="231.57" cy="27.81" rx="1.17" ry="1.06" style="fill:#976b41"/><ellipse cx="231.47" cy="27.64" rx="1.08" ry="0.93" style="fill:#a97e50"/><g style="opacity:0.48"><ellipse cx="231.68" cy="27.51" rx="0.77" ry="0.66" style="fill:#d5a060"/></g><path d="M231.9,28.34a1.62,1.62,0,0,0-.18-1,1.25,1.25,0,0,0-.54-.53s0-.05.09,0a1,1,0,0,1,.67.53c.34.65.08.94.08.94Z" style="fill:#976b41"/><ellipse cx="232.55" cy="15.41" rx="1.17" ry="1.06" style="fill:#976b41"/><ellipse cx="232.46" cy="15.25" rx="1.08" ry="0.93" style="fill:#a97e50"/><g style="opacity:0.48"><ellipse cx="232.67" cy="15.12" rx="0.77" ry="0.66" style="fill:#d5a060"/></g><path d="M232.89,16a1.62,1.62,0,0,0-.18-1,1.29,1.29,0,0,0-.55-.54.17.17,0,0,1,.1,0,1,1,0,0,1,.67.53c.33.64.07.93.07.93Z" style="fill:#976b41"/><ellipse cx="212.84" cy="16.49" rx="1.17" ry="1.06" style="fill:#976b41"/><ellipse cx="212.74" cy="16.33" rx="1.08" ry="0.93" style="fill:#a97e50"/><g style="opacity:0.48"><ellipse cx="212.95" cy="16.2" rx="0.77" ry="0.66" style="fill:#d5a060"/></g><path d="M213.17,17a1.62,1.62,0,0,0-.18-1,1.29,1.29,0,0,0-.55-.54.17.17,0,0,1,.1,0,1,1,0,0,1,.67.53c.33.64.07.93.07.93Z" style="fill:#976b41"/><ellipse cx="212.44" cy="27.66" rx="1.17" ry="1.06" style="fill:#976b41"/><ellipse cx="212.35" cy="27.49" rx="1.08" ry="0.93" style="fill:#a97e50"/><g style="opacity:0.48"><ellipse cx="212.56" cy="27.36" rx="0.77" ry="0.66" style="fill:#d5a060"/></g><path d="M212.78,28.19a1.62,1.62,0,0,0-.18-1,1.3,1.3,0,0,0-.55-.53s.06-.05.09,0a1,1,0,0,1,.68.53c.33.65.07.94.07.94Z" style="fill:#976b41"/><ellipse cx="261.92" cy="27.03" rx="1.17" ry="1.06" style="fill:#976b41"/><ellipse cx="261.83" cy="26.86" rx="1.08" ry="0.93" style="fill:#a97e50"/><g style="opacity:0.48"><ellipse cx="262.04" cy="26.74" rx="0.77" ry="0.66" style="fill:#d5a060"/></g><path d="M262.26,27.57a1.85,1.85,0,0,0-.18-1,1.3,1.3,0,0,0-.55-.53.13.13,0,0,1,.09,0,.93.93,0,0,1,.67.52c.34.65.08.94.08.94Z" style="fill:#976b41"/><g style="opacity:0.32"><path d="M201.61,25.68c.36,0,.73.09,1.13.12,1.38.14,3,.25,4.8.27h1.13a66.87,66.87,0,0,0,6.71-.38l1.22-.14,1-.14c1.71-.23,3.5-.53,5.39-.93-2.25-.08-4.43-.16-6.45-.25l-.18-3.92c3,0,6.26,0,9.45,0,0,1.21,0,2.38-.08,3.54.38-.09.76-.18,1.15-.29,2.6-.67,5.35-1.5,8.22-2.54.4-.13.79-.28,1.2-.43l1.57-.6c1-.4,2-.8,3-1.21s2.17-.94,3.21-1.43c.41-.17.8-.36,1.2-.55,2.24-1.07,4.32-2.16,6.22-3.25l1.18-.69c1.22-.72,2.37-1.44,3.44-2.15l1.57-1.06.1-.08,1.06-.74a58.85,58.85,0,0,0,8.45-7.33c.37-.38.7-.75,1-1.1h-8.54L259,1l-.7.5c-.15.11-.3.22-.46.32a.52.52,0,0,0,0,.11s0,3.48-.12,7.65l-5,.39V4.9c-.38.2-.78.39-1.18.59-.79.38-1.62.75-2.48,1.12a37.06,37.06,0,0,1-4.3,1.49l-1.26.34c.08.75.16,1.49.21,2.23l-7.64.59L236,10l-1.2.2c-2.57.41-5.25.75-7.92,1l-1.21.13c0,.23,0,.45,0,.67L216,12.8l0-.62-1.22.07c-2.32.15-4.51.25-6.49.32l-1.31,0,.12.86-3.2.25a1.4,1.4,0,0,0-1.35,1.12,1.32,1.32,0,0,0-1.18,1.38l.28,2.7a1.43,1.43,0,0,0,1.57,1.17l4.43.1c0,.53,0,1.06,0,1.58s0,1.33,0,2l-3.32-.19a1.47,1.47,0,0,0-1.51,1.13A1.47,1.47,0,0,0,201.61,25.68Z" style="fill:#f6cf8a"/></g></g></g></svg>