<svg xmlns="http://www.w3.org/2000/svg" viewBox="0 0 604.46 563.3"><title>Asset 50</title><g style="isolation:isolate"><g id="Layer_2" data-name="Layer 2"><g id="trofiki_alisida" data-name="trofiki alisida"><path d="M602,228.2C592.83,128,532.26-10,387,.57S-21,164,1.34,375.84C21.78,569.53,648.22,731.2,602,228.2Z" style="fill:#fff"/><path d="M174.16,362c1,3.86,1.72,6.79,2.45,9.71a27.91,27.91,0,0,1,.64,3c.19,1.41.73,3.2-1.15,3.73s-2.45-1.25-3.11-2.48a24.9,24.9,0,0,1-1.6-4.05q-3.12-9.31-6.15-18.67a27.2,27.2,0,0,1-1.28-5.06c-.43-3.62,1.17-5,4.62-3.87,4.56,1.51,9,3.29,13.53,5a56,56,0,0,1,5.66,2.32,16.07,16.07,0,0,1,2.75,2.29c-1.6,2-3,1.35-4.35.91-3.47-1.12-6.93-2.25-10.4-3.35a9.66,9.66,0,0,0-4.25-.53c1,1.27,1.91,2.59,3,3.8q12.09,13.83,24.23,27.61,17.61,20,35.2,40.07a27.87,27.87,0,0,1,2.45,4.11c-2.88.55-3.81-1.18-4.9-2.36-5.94-6.42-11.81-12.9-17.7-19.36q-19-20.85-38-41.69A18.85,18.85,0,0,0,174.16,362Z"/><path d="M297.23,197.19c1.62,3.64,2.86,6.39,4.08,9.15a28.9,28.9,0,0,1,1.15,2.83c.42,1.36,1.27,3-.49,3.87s-2.64-.8-3.5-1.9a26.09,26.09,0,0,1-2.28-3.72q-4.67-8.64-9.26-17.32a27.1,27.1,0,0,1-2.14-4.77c-1.05-3.5.3-5.14,3.89-4.61,4.75.71,9.46,1.68,14.19,2.58a55.24,55.24,0,0,1,6,1.31,15.52,15.52,0,0,1,3.1,1.78c-1.22,2.26-2.71,1.84-4.13,1.64-3.6-.5-7.21-1-10.82-1.51a9.68,9.68,0,0,0-4.28.22c1.19,1.08,2.33,2.22,3.58,3.23q14.28,11.53,28.61,23,20.81,16.69,41.58,33.41a27.93,27.93,0,0,1,3.13,3.63c-2.75,1-4-.51-5.24-1.49-7-5.29-13.86-10.67-20.77-16L299,198A15.16,15.16,0,0,0,297.23,197.19Z"/><path d="M158.82,261.88c3.58-1.74,6.29-3.07,9-4.37a26.71,26.71,0,0,1,2.79-1.25c1.35-.46,3-1.36,3.89.37s-.72,2.66-1.79,3.55a26,26,0,0,1-3.64,2.4q-8.49,4.95-17,9.82a26.55,26.55,0,0,1-4.7,2.3c-3.46,1.15-5.14-.13-4.73-3.75.55-4.77,1.38-9.51,2.12-14.26a54.66,54.66,0,0,1,1.11-6,15.15,15.15,0,0,1,1.69-3.16c2.29,1.14,1.92,2.64,1.77,4.07-.39,3.62-.79,7.24-1.16,10.86a9.73,9.73,0,0,0,.35,4.27c1.05-1.22,2.15-2.4,3.12-3.68q11.07-14.66,22.08-29.35,16-21.31,32-42.64a27.93,27.93,0,0,1,3.52-3.24c1.12,2.71-.38,4-1.32,5.29-5.06,7.12-10.21,14.19-15.34,21.28l-33,45.71A13.25,13.25,0,0,0,158.82,261.88Z"/><path d="M508.81,306.3l12.2,7.85,4.71,5.31,1.1,1.67,5,3.37,1.67,1.67,2.49,2.24s9.14,8.67,9.41,9.5a1.29,1.29,0,0,1-.56,1.39s3.6,3.36,4.44,4.2,6.63,8.38,6.63,8.38l6.91,9.77,4.12,10.59L568,385.32l-1.13,3.05s-6.4-.86-7.23-1.42-12.51-2.56-12.51-2.56L538,377.11s-11.08-12-11.35-12.85-4.71-5-5-5.86-3-2.52-3-3.64-.5-10-.5-10l-2.47-8.91s-3.86-6.7-3.86-7.81S508.81,306.3,508.81,306.3Z" style="fill:#d8650f"/><path d="M548.24,380.78l-1.66-2.51,5.57-1.09,3.37-6.11,4.45.3,3.89,2,2.33-3,.73,1.88L568,385.32l-1.13,3.05s-6.4-.86-7.23-1.42-12.51-2.56-12.51-2.56l-2.37-1.89Z" style="fill:#d6c9c3"/><path d="M511.24,323.71l5.55,1.83,4.64,17.27,6.08,10.05,9.68,11.73,8.31,8.66,6.65,3.93,6.39,3.92,9.17,1,.27,3.26-1.13,3.05s-6.4-.86-7.23-1.42-12.51-2.56-12.51-2.56L538,377.11s-11.08-12-11.35-12.85-4.71-5-5-5.86-3-2.52-3-3.64-.5-10-.5-10l-2.47-8.91s-3.86-6.7-3.86-7.81C511.76,327.72,511.55,326,511.24,323.71Z" style="fill:#d6c9c3;mix-blend-mode:multiply"/><path d="M395,258.61c-.21-.63-4.14-8-4.14-8l-3.12-1.06-.64,2.29-.22,4-.24,5.42Z" style="fill:#66524a"/><polygon points="471.92 339.79 471.31 351.76 474.61 360.39 479.87 366.27 484.58 370.18 485.39 373.24 484.54 378.8 480.88 386.58 479.77 387.69 476.7 388.51 473.9 391.83 474.45 394.06 481.68 394.09 486.41 393.84 486.99 389.95 488.38 388.28 488.68 385.5 491.77 379.68 496.25 371.63 495.16 367.73 490.44 365.2 487.43 354.62 484.74 334.57 471.92 339.79" style="fill:#d8650f"/><polygon points="479.77 387.69 480.88 386.58 484.54 378.8 485.39 373.24 484.87 371.27 486.8 370.47 489.3 372.15 493.19 371.34 496.01 370.75 496.25 371.63 491.77 379.68 488.68 385.5 488.38 388.28 486.99 389.95 486.41 393.84 481.68 394.09 474.45 394.06 473.9 391.83 476.7 388.51 479.77 387.69" style="fill:#44352e"/><polygon points="408.22 337.27 409.53 354.53 410.58 367.33 410.83 374.29 408.85 381.51 405.22 382.88 402.7 385.93 402.97 388.71 410.2 388.47 413.84 384.87 417.24 372.09 417.39 340.09 408.22 337.27" style="fill:#d8650f"/><polygon points="402.7 385.93 405.22 382.88 408.85 381.51 410.83 374.29 410.58 367.33 409.53 354.53 409.16 349.71 413.73 348.42 417.34 350.97 417.24 372.09 413.84 384.87 410.2 388.47 402.97 388.71 402.7 385.93" style="fill:#66524a"/><path d="M361.75,280.29l1.64,5,4.44,3.36,8.9-.79,7,0,5.27,4.2,5.75,18.38,4.1,15.61,5.52,9.2,6.37,7.82,3.6,2.52,1,20.88.49,13.36.54,3.61-2,6.4-3.62.81-2.53,4.72,1.39,1.12,10.86-1.07,2.83-10.55.52-6.4.65-6.26,2-5.69,2.88-21.69,3.63-2.77,8.34,2,15-.2,19.21-2.7,5.25,7.82,3,8.08,7.21,6.44L503.5,370l3.32,3.08-2,17.24-3.34,1.1-3.07,2.49-.86,5,2.78.29,6.95,0,4.48-3.88,1.95-1.66.61-10.57,4.24-14.72L511.89,360l-.8-7.52,4-13.33,3.4-12.79s-1.9-10-2.17-10.86-7.19-10.6-7.19-10.6l-15-6.47L468,296.1l-22.25-2.34-5.55-3.08-8.34-.88-4.45-2L420.19,277l-11.06-14.24-9.72-5.33-10,.79-10.88,8L376,270.9l-4.19,3.6Z" style="fill:#d8650f"/><polygon points="410.75 390.7 414.37 389.89 416.35 383.49 415.81 379.88 415.32 366.51 414.44 348.5 418.19 347.61 419.31 345.11 425.72 342.91 429.09 346.69 426.45 366.57 424.47 372.26 423.82 378.52 423.3 384.92 420.47 395.48 409.61 396.54 408.22 395.42 410.75 390.7" style="fill:#44352e"/><polygon points="491.01 363.54 489.35 362.05 491.85 362.15 504.64 364.44 510.21 363.35 511.83 359.42 511.89 360.02 518.53 368.4 514.29 383.12 513.68 393.69 511.73 395.35 507.25 399.23 500.3 399.19 497.52 398.9 498.38 393.9 501.45 391.41 504.79 390.31 506.82 373.07 503.5 369.99 491.01 363.54" style="fill:#44352e"/><polygon points="428.52 339.87 429.92 337.37 443.55 338.82 459.69 338.9 471.93 338.12 476.38 337.87 475.53 341.2 456.32 343.9 441.3 344.1 432.96 342.11 430.26 344.17 428.52 339.87" style="fill:#d6c9c3"/><polygon points="369.25 282.27 375.66 279.25 380.68 277.04 388.19 278.19 397.63 282.13 403.74 284.1 405.12 287.45 403.41 294.96 401.95 309.42 403.29 319.72 409.63 332.82 412.38 340.07 412.75 344.56 410.7 343.12 404.33 335.3 398.81 326.1 394.71 310.5 388.96 292.11 383.69 287.91 376.74 287.88 367.83 288.67 363.39 285.31 362.84 283.61 369.25 282.27" style="fill:#d6c9c3"/><polygon points="419.09 392.69 421.08 383.51 421.4 372.94 423.67 364.61 423.78 341.24 422.7 334.83 427.73 331.52 446.35 335.5 465.83 334.48 479.76 329.26 483.37 330.94 481.39 337.33 488.83 352.95 499.91 363.02 509.05 372.52 507.04 385.04 505.23 386.55 506.82 373.07 503.5 369.99 491.01 363.54 483.8 357.1 480.78 349.02 475.53 341.2 456.32 343.9 441.3 344.1 432.96 342.11 429.33 344.88 426.45 366.57 424.47 372.26 423.82 378.52 423.3 384.92 420.47 395.48 418.41 395.68 419.09 392.69" style="fill:#d6c9c3;mix-blend-mode:multiply"/><path d="M396.07,260.14l-5-.85s-.52-.49-1.17-1.16l9.52-.75,9.72,5.33L420.19,277l7.18,10.89,4.45,2,8.34.88,5.55,3.08L468,296.1l26.14,2.35,11.15,4.8-6.44-.61-23.91-3.73-22-1.22-10,1.35-10.57-1.44-6.66-3.1-4.41-7.8S411,272.46,410.75,271.62s-6.63-8.66-6.63-8.66Z" style="fill:#ff7e27"/><polygon points="382.18 270 377.68 272.33 374.75 273.99 376.53 272.03 380.4 269.6 382.18 270" style="fill:#66524a"/><polygon points="399.19 246.73 402.31 248.21 407.46 261.59 406.41 264.09 399.92 268.24 398.68 265.51 396.4 262.99 394.32 262.78 394.55 256.94 399.19 246.73" style="fill:#ff7e27"/><polygon points="400.22 249.45 398.71 247.79 399.19 246.73 402.31 248.21 407.46 261.59 406.41 264.09 399.92 268.24 399.26 266.76 400.16 261.76 400.19 254.66 400.22 249.45" style="fill:#d8650f"/><polygon points="396 258.61 396.23 255.07 398.75 250.7 398.95 253.83 398.71 259.67 398.01 264.77 396.4 262.99 395.68 262.92 395.57 262.58 396 258.61" style="fill:#d6c9c3;mix-blend-mode:multiply"/><polygon points="399.19 246.73 402.31 248.21 405.37 256.16 402.49 254.89 400.19 255.74 400.19 254.66 400.22 249.45 398.71 247.79 399.19 246.73" style="fill:#44352e"/><polygon points="365.35 286.79 367.7 286.54 371.46 285.94 377.31 284.3 382.73 284.84 382.73 285.47 379.81 285.25 377.1 285.12 372.71 286.25 368.95 287.18 366.41 287.6 365.35 286.79" style="fill:#66524a"/><polygon points="363.76 282.25 362.89 283.78 361.75 280.29 362.92 279.61 364.6 279.96 364.6 281.21 363.24 281.41 363.23 282.24 363.76 282.25" style="fill:#66524a"/><polygon points="379.79 268.45 379.99 269.18 379.78 270.23 379.15 270.95 381.44 270.65 383.53 270.55 381.97 269.29 379.79 268.45" style="fill:#44352e"/><polygon points="280.64 118.87 280.28 122.98 279.23 125.57 276.84 124.3 276.25 121.2 280.64 118.87" style="fill:#ff5050"/><polygon points="285.87 118.51 285.39 117.55 283.63 116.37 280.83 115.06 280.15 113.16 278.67 111.59 277.77 108.9 275.83 107.77 274.92 106.76 273.56 104.18 270.25 102.49 268.75 105.28 266.36 102.8 263.73 103.46 262.46 105.69 260.51 106.13 261.06 110.5 257.48 117.97 252.16 130.15 250.55 131.93 241.74 132.67 230.18 134.52 226.29 133.49 220.48 129.88 217.43 121.26 210.7 117.53 208.29 119.31 208.16 121.77 204.6 125 202.2 125.99 201.16 127.78 201.83 130.8 201.81 134.61 200.99 138.41 202.35 141.21 204.74 144.58 208.69 156.01 211.75 162.51 219.05 165 220.53 167.36 228.97 171.88 234.22 174.36 240.25 180.32 241.97 181 243.77 187.94 243.74 192.87 241.11 193.64 236.87 195.3 236.29 195.74 236.87 196.08 238.7 195.64 240.29 195.87 246.36 194.78 250.13 196.7 254.25 197.62 257.56 198.97 258.69 199.87 259.15 199.88 258.25 198.42 256.42 196.95 251.63 194.69 253.46 194.14 258.38 194.39 259.52 193.95 262.26 194.97 262.61 194.3 259.64 192.72 258.39 191.7 255.53 192.36 252.21 192.57 247.41 192.1 245.82 189.3 245.29 180.68 247.58 179.46 250.46 175.22 253.69 169.65 261.25 166.88 269.17 162.67 272.62 157.99 275.26 155.54 275.62 152.18 277.35 148.72 276.72 136.75 277.08 133.06 274.02 126.56 273.25 122.19 274.39 122.98 275.64 123.54 278.62 121.43 280.35 119.2 283.34 118.8 285.87 118.51" style="fill:#c15729"/><polygon points="277.27 117.62 279.8 115.96 280.14 115.29 280.79 114.95 280.83 115.06 283.63 116.37 285.39 117.55 285.87 118.51 283.34 118.8 280.35 119.2 280.16 119.45 277.27 118.07 277.27 117.62" style="fill:#e5a85e"/><polygon points="281.94 116.02 280.83 115.6 280.65 115.93 281.94 116.02" style="fill:#b54823"/><polygon points="277.69 114.1 276.49 113.25 276.1 112.36 275.47 112.19 274.2 112.85 273.97 113.41 274.6 113.75 276.03 114.03 277.69 114.1" style="fill:#a53a1e"/><polygon points="275.31 112.86 275.78 112.95 276.21 113.1 275.94 113.6 275.39 113.68 275 113.34 274.88 112.8 275.31 112.86" style="fill:#e5a85e"/><polygon points="275.56 112.76 275.73 113.01 275.52 113.27 275.35 113.05 275.56 112.76" style="fill:#b54823"/><polygon points="214.73 159.28 223.99 160.66 246.07 160.99 260.16 156.7 268.66 148.68 270.78 136.5 268.53 127.42 270.74 120.39 272.12 118.94 274.98 119.06 277.27 118.07 281.89 118.98 280.35 119.2 278.62 121.43 275.64 123.54 274.39 122.98 273.25 122.19 274.02 126.56 277.08 133.06 276.72 136.75 277.35 148.72 275.62 152.18 275.26 155.54 272.62 157.99 269.17 162.67 261.25 166.88 253.69 169.65 250.46 175.22 247.58 179.46 245.67 180.47 241.53 180.82 240.25 180.32 234.22 174.36 228.97 171.88 220.53 167.36 219.05 165 211.75 162.51 208.86 156.37 214.73 159.28" style="fill:#b54823"/><polygon points="260.99 149.43 256.63 153.44 254.44 157.23 251.67 161.13 247.77 163.24 240.45 164.55 229.81 164.16 221.69 162.78 218.05 159.97 232.49 155.11 248.53 148.92 255.75 146.27 255.3 144.03 252.22 142.23 252.45 141.44 255.42 142.24 259.42 143.38 260.79 144.84 261.58 146.52 261.46 147.98 260.99 149.43" style="fill:#a53a1e"/><polygon points="260.65 147.97 255.14 152.65 252.6 157.89 249.38 161.34 240.8 162.54 227.65 161.8 217.24 160.86 218.29 157.06 229.64 151.29 238.12 147.76 242.15 142.51 248.68 140.2 254.85 142.91 259.3 144.28 260.66 146.52 260.65 147.97" style="fill:#b54823"/><polygon points="221.26 134.48 220.11 135.81 215.9 130.76 210.79 122.23 208.37 119.25 209.01 118.77 211.37 121.23 215.23 127.06 218.41 132 221.26 134.48" style="fill:#b54823"/><polygon points="207.86 122.04 208.84 123.56 211.22 127.71 212.57 132.2 215.52 138.7 213.79 140.93 212.09 138.79 210.39 134.2 208.81 128.82 206.58 123.2 207.86 122.04" style="fill:#b54823"/><path d="M204.39,125.08l2.23,8.43s3.29,5.83,3.4,6.17,1.7,3.47,1.7,3.47l-1.38,1.9-2.71-7.62-2.26-4.82-1.55-7.29Z" style="fill:#b54823"/><polygon points="201.81 134.61 201.83 130.8 201.16 127.78 202.2 125.99 202.21 125.99 202.52 129.46 204.44 136.07 207.15 143.25 208.6 149.18 207.68 153.09 204.74 144.58 202.35 141.21 200.99 138.41 201.81 134.61" style="fill:#b54823"/><polygon points="279.01 118.86 275.66 120.35 273 120.59 274.26 125.72 276.4 126.06 278.64 124.06 279.94 120.29 280.35 119.2 279.01 118.86" style="fill:#cc371f"/><polygon points="271.09 123.77 271.09 125.53 270.65 126.2 270.15 124.19 271.09 123.77" style="fill:#a53a1e"/><polygon points="270.51 121.09 270.15 122.85 269.3 123.34 268.79 120.91 270.51 121.09" style="fill:#b54823"/><polygon points="269.37 125.02 268.76 127.29 267.99 127.28 267.92 124.43 269.37 125.02" style="fill:#b54823"/><polygon points="268.01 122.58 267.66 123.17 267.32 123 267.58 121.66 268.01 122.58" style="fill:#b54823"/><polygon points="268.74 132.24 268.99 134.42 267.69 135 267.45 131.64 268.74 132.24" style="fill:#b54823"/><polygon points="271.55 135.78 270.59 139.04 269.99 138.7 269.83 135.77 271.55 135.78" style="fill:#b54823"/><polygon points="268.64 135.93 268.46 137.1 267.43 136.76 267.44 135.67 268.64 135.93" style="fill:#b54823"/><polygon points="268.97 138.53 268.01 140.79 266.56 140.7 266.91 137.6 268.97 138.53" style="fill:#b54823"/><polygon points="270.41 141.39 269.13 140.8 267.66 142.97 267.56 143.98 267.91 144.32 270.14 143.15 270.41 141.39" style="fill:#b54823"/><polygon points="267.21 128.96 266.26 130.46 265.66 130.04 266.18 128.7 267.21 128.96" style="fill:#b54823"/><polygon points="264.95 116.86 264.52 117.7 263.66 117.28 264.1 116.19 264.95 116.86" style="fill:#b54823"/><polygon points="272.27 110.02 271.07 110.6 271.07 111.19 272.62 110.52 272.27 110.02" style="fill:#b54823"/><polygon points="270.47 109.67 270.21 110.93 269.35 111.01 269.36 109.42 270.47 109.67" style="fill:#b54823"/><polygon points="268.93 110 268.07 110.92 267.38 110.92 267.99 109.49 268.93 110" style="fill:#b54823"/><polygon points="268.32 111.51 267.8 111.93 267.97 112.27 268.32 111.51" style="fill:#b54823"/><polygon points="263.68 112.91 262.13 113.32 262.13 114.33 263.85 113.92 263.68 112.91" style="fill:#b54823"/><polygon points="208.37 144.96 206.57 143.61 204.69 142.42 204.69 143.18 206.31 144.28 208.02 145.63 208.37 144.96" style="fill:#a53a1e"/><polygon points="267.99 109.49 264.55 109.98 261.79 112.82 258.78 115.75 258.49 115.88 261.06 110.5 260.59 106.74 261.22 105.97 262.46 105.69 263.73 103.46 266.36 102.8 268.75 105.28 270.25 102.49 273.56 104.18 274.92 106.76 275.83 107.77 277.77 108.9 277.79 108.96 276.22 109.7 272.19 109.01 267.99 109.49" style="fill:#b54823"/><polygon points="267.74 107.31 264.65 108.3 260.8 111.04 261.06 110.5 260.51 106.13 262.46 105.69 263.73 103.46 266.36 102.8 268.75 105.28 270.25 102.49 273.56 104.18 274.92 106.76 275.83 107.77 277.77 108.9 278.67 111.59 280.15 113.16 280.38 113.8 277.76 111.05 274.68 108.86 270.92 107.16 267.74 107.31" style="fill:#cc371f"/><polygon points="269.55 104.27 269.31 104.24 270.25 102.49 273.56 104.18 274.92 106.76 275.83 107.77 277.77 108.9 278.02 109.64 276.51 108.78 275.37 108.44 274.23 106.81 273.04 104.68 270.64 103.49 269.55 104.27" style="fill:#ff5050"/><polygon points="265.9 103.81 264.18 104.3 262.92 105.25 262.74 105.2 263.73 103.46 266.36 102.8 267.34 103.81 265.9 103.81" style="fill:#ff5050"/><polygon points="269.36 146.25 268.66 148.68 267.72 148.26 267.47 145.32 269.36 146.25" style="fill:#b54823"/><polygon points="269.88 144.16 268.59 144.82 269.96 145.33 269.88 144.16" style="fill:#b54823"/><polygon points="261.86 152.51 263.84 152.52 263.32 153.78 261.17 153.34 261.86 152.51" style="fill:#b54823"/><polygon points="265.06 148.24 266.52 149 264.27 150.68 263.5 150.17 265.06 148.24" style="fill:#b54823"/><polygon points="266.59 150.85 265.82 150.43 264.69 152.86 265.55 152.78 266.59 150.85" style="fill:#b54823"/><polygon points="263.07 151.17 262.38 151.59 262.04 151.25 262.9 150.59 263.07 151.17" style="fill:#b54823"/><polygon points="261.68 155.61 260.82 155.11 259.19 156.1 258.67 157.95 260.56 157.2 261.68 155.61" style="fill:#b54823"/><polygon points="216.03 158.25 215.85 159.59 213.71 159.16 213.28 157.82 216.03 158.25" style="fill:#b54823"/><polygon points="213.37 156.98 211.75 155.55 211.15 155.79 211.82 157.98 213.37 156.98" style="fill:#b54823"/><polygon points="258.11 129.67 256.99 131.59 256.48 131.09 257.08 129.16 258.11 129.67" style="fill:#b54823"/><polygon points="256.15 128.15 255.97 129.24 255.2 129.07 255.29 127.56 256.15 128.15" style="fill:#b54823"/><polygon points="271.57 150.88 270.79 152.89 270.19 152.55 270.45 150.03 271.57 150.88" style="fill:#a53a1e"/><polygon points="269.93 151.62 268.03 153.8 266.58 152.87 268.65 150.36 269.93 151.62" style="fill:#a53a1e"/><polygon points="269.4 155.15 268.1 157.41 267.59 156.73 268.12 154.47 269.4 155.15" style="fill:#a53a1e"/><polygon points="266.74 155.39 264.6 155.71 264.6 155.04 266.66 154.13 266.74 155.39" style="fill:#a53a1e"/><polygon points="266.05 156.89 264.16 157.47 264.33 157.72 266.05 156.89" style="fill:#a53a1e"/><polygon points="265.87 157.98 266.13 158.57 265.26 158.99 264.41 158.73 265.87 157.98" style="fill:#a53a1e"/><polygon points="228.42 171.58 233.38 171.5 241.95 173.22 247.79 172.25 253.64 168.08 257.6 165.58 267.05 162.1 271.36 158.26 275.09 155.7 272.62 157.99 269.17 162.67 261.25 166.88 253.69 169.65 250.46 175.22 247.58 179.46 245.29 180.68 245.5 184.19 242.88 184.52 241.97 181 240.25 180.32 234.22 174.36 228.97 171.88 228.42 171.58" style="fill:#a53a1e"/><polygon points="241.11 193.64 243.74 192.87 243.77 187.94 241.99 181.08 245.3 180.93 245.82 189.3 247.41 192.1 252.21 192.57 255.53 192.36 258.39 191.7 259.64 192.72 262.61 194.3 262.26 194.97 259.52 193.95 258.38 194.39 253.46 194.14 251.63 194.69 256.42 196.95 258.25 198.42 259.15 199.88 258.69 199.87 257.56 198.97 254.25 197.62 250.13 196.7 246.36 194.78 240.29 195.87 238.7 195.64 236.87 196.08 236.29 195.74 236.87 195.3 241.11 193.64" style="fill:#e5a85e"/><polygon points="256.48 165.57 255.19 166.32 254.6 165.9 256.06 164.23 256.48 165.57" style="fill:#a53a1e"/><polygon points="253.73 166.9 250.81 168.06 250.13 167.22 252.02 165.89 253.73 166.9" style="fill:#a53a1e"/><polygon points="252.44 168.15 251.74 170.33 250.2 170.66 250.29 168.31 251.06 168.4 252.44 168.15" style="fill:#a53a1e"/><polygon points="255.62 167.25 254.59 166.74 254.24 167.32 254.5 168.08 255.62 167.25" style="fill:#a53a1e"/><polygon points="252.97 163.88 252.97 164.63 252.28 164.63 252.29 164.04 252.97 163.88" style="fill:#a53a1e"/><polygon points="248.22 170.4 246.42 171.23 245.74 170.3 248.41 168.72 248.22 170.4" style="fill:#a53a1e"/><polygon points="258.98 164.32 257.86 164.66 257.78 164.07 259.5 162.82 258.98 164.32" style="fill:#a53a1e"/><polygon points="261.12 163.58 260.95 164.5 259.83 164.42 259.92 163.32 261.12 163.58" style="fill:#a53a1e"/><polygon points="259.31 147.21 257.42 147.46 255.45 148.28 254.33 149.12 254.16 148.44 256.31 147.03 258.12 146.37 259.31 147.21" style="fill:#a53a1e"/><polygon points="259.58 146.21 257.26 145.69 255.12 145.68 253.83 146.01 253.49 145.5 256.15 145.1 258.89 145.28 259.58 146.21" style="fill:#a53a1e"/><polygon points="252.11 147.51 251.76 148.69 251.16 148.1 252.11 147.51" style="fill:#a53a1e"/><polygon points="254.34 147.1 252.89 146.34 252.8 146.84 253.4 147.44 254.34 147.1" style="fill:#a53a1e"/><polygon points="253.13 150.2 255.01 150.38 256.21 150.22 254.84 150.97 252.78 150.79 252.53 149.53 253.04 148.77 253.13 150.2" style="fill:#a53a1e"/><polygon points="251.53 144.07 251.26 144.82 251.86 145.84 250.49 144.9 250.5 143.4 252.56 142.9 251.53 144.07" style="fill:#a53a1e"/><polygon points="249.55 144.48 249.37 145.23 249.97 145.99 248.69 145.48 248.95 144.31 250.07 143.56 249.55 144.48" style="fill:#a53a1e"/><polygon points="249.71 147.33 248.25 147.66 248.08 146.91 249.71 147.33" style="fill:#a53a1e"/><polygon points="249.41 155.39 248.2 157.56 245.88 158.06 245.8 157.47 247.77 157.14 249.07 154.8 249.41 155.39" style="fill:#a53a1e"/><polygon points="247 156.05 245.12 156.29 244.52 155.7 244.52 155.03 245.12 155.54 247 156.05" style="fill:#a53a1e"/><polygon points="249.59 153.79 250.8 152.54 250.36 153.88 249.59 153.79" style="fill:#a53a1e"/><polygon points="207.78 142.35 206.76 140.5 204.02 139.4 204.1 139.99 207.78 142.35" style="fill:#a53a1e"/><polygon points="206.68 139.16 206.51 137.9 207.98 135.56 208.24 136.31 206.68 139.16" style="fill:#a53a1e"/><polygon points="204.46 136.72 204.46 137.47 201.97 136.2 202.06 135.78 204.46 136.72" style="fill:#a53a1e"/><polygon points="206.11 133.2 205.59 134.37 205.16 134.12 205.6 132.36 206.11 133.2" style="fill:#a53a1e"/><polygon points="238.15 195.36 240.47 194.95 244.08 193.87 244.51 192.87 243.74 192.69 243.77 187.94 241.99 181.08 243.79 181 243.7 184.56 244.87 190.19 245.37 192.96 246.21 194.81 240.29 195.87 238.7 195.64 236.87 196.08 236.58 195.91 238.15 195.36" style="fill:#cc7e48"/><polygon points="245.54 194.22 249.31 195.32 252.48 196.43 255.82 197.46 256.84 198.05 257.72 197.99 258.25 198.42 259.15 199.88 258.69 199.87 257.56 198.97 254.25 197.62 250.13 196.7 246.36 194.78 245.7 194.9 245.54 194.22" style="fill:#cc7e48"/><polygon points="251.89 193.41 254.63 193.5 257.21 193.52 258.41 193.27 259.52 193.95 258.38 194.39 253.46 194.14 251.87 194.62 250.09 194.07 251.89 193.41" style="fill:#cc7e48"/><polygon points="282.7 117.82 283.71 117.78 285.7 118.17 285.87 118.51 285.13 118.48 283.96 118.1 281.84 117.98 279.44 118.02 277.5 118.18 277.27 118.07 277.27 117.69 280.01 117.75 282.7 117.82" style="fill:#b54823"/><g id="bQ77fw.tif"><path d="M165.42,310.4c.13,2.6-1.55,4.07-3.41,5.38a44.37,44.37,0,0,1-4.95,2.65,19.79,19.79,0,0,0-5.5,4.05c-.5.56-1.17,1.07-1,2a1.11,1.11,0,0,0,1.33,1,19.66,19.66,0,0,0,6.31-1.88,10.57,10.57,0,0,1,2.94-1.29,1.55,1.55,0,0,1,1.7.74,1.39,1.39,0,0,1-.18,1.68,7.19,7.19,0,0,1-3.08,2.44,22.33,22.33,0,0,1-6.27,2,8.22,8.22,0,0,1-5.1-.52,4.26,4.26,0,0,1-1.85-5.12c1.39-3.46,4.19-5.51,7.12-7.47,2.05-1.37,4.4-2.17,6.46-3.52a5.41,5.41,0,0,0,1.46-1.32.86.86,0,0,0-.2-1.36,5.56,5.56,0,0,0-5.65-.57,3.66,3.66,0,0,0-1.42,1.57,13.14,13.14,0,0,1-5.81,5,6.8,6.8,0,0,1-4.19.57,5.68,5.68,0,0,1-4.2-3.84,11.39,11.39,0,0,1-.54-5.46,16.41,16.41,0,0,0,0-2.89,10.39,10.39,0,0,0,3.73,0,35.48,35.48,0,0,0,.07,6.27c.36,2.13,1.84,2.87,3.77,1.87a10.22,10.22,0,0,0,4-3.67c2.15-3.38,5.08-4.13,9-3.38a6.84,6.84,0,0,1,3.14,1.41c-.12.1-.21.25-.06.34.83.47,1.23,1.38,2,1.89.05.21.11.42.17.63A.6.6,0,0,0,165.42,310.4Z" style="fill:#efae92"/><path d="M143.15,304.24a10.39,10.39,0,0,1-3.73,0c-.35-.3-.24-.69-.25-1.07-.08-2.14.06-4.3-.86-6.32a1.88,1.88,0,0,0-.75-1c-.94-.48-1.52-1.53-2.67-1.69-.07,0-.14-.16-.2-.24a2.59,2.59,0,0,1,1.29.15.45.45,0,0,0,.64-.31,5.24,5.24,0,0,1,1-1.67c.22-.24.19-.39-.08-.5a31.5,31.5,0,0,0-3.85-1.37c-.91-.24-1.86,0-2.77-.28a4.86,4.86,0,0,0-3.73.45c-.79.36-.77,1.09-.08,1.62.22.17.49.27.59.56a1.47,1.47,0,0,1-1.39-1.19c-.17-.66.32-1,.76-1.33a4.24,4.24,0,0,1,3.25-.58c2.16.24,4.37.26,6.38,1.21.89.42,1.84.58,2.73.94a6.42,6.42,0,0,1,3.61,4,18.19,18.19,0,0,1,.79,6.1A4.77,4.77,0,0,1,143.15,304.24Z" style="fill:#f3c7ad"/><path d="M127.73,292.63c-.1-.29-.37-.39-.59-.56-.69-.53-.71-1.26.08-1.62A4.86,4.86,0,0,1,131,290c.91.31,1.86,0,2.77.28a31.5,31.5,0,0,1,3.85,1.37c.27.11.3.26.08.5a5.24,5.24,0,0,0-1,1.67.45.45,0,0,1-.64.31,2.59,2.59,0,0,0-1.29-.15l-.67-.13a.29.29,0,0,0-.42-.16l-1-.09c-1.5-.47-3.09-.51-4.6-.94Z" style="fill:#efae92"/><path d="M128,292.66c1.51.43,3.1.47,4.6.94a13.44,13.44,0,0,1-4.18-.57A.65.65,0,0,1,128,292.66Z" style="fill:#f3c7ad"/><path d="M165.1,309c-.78-.51-1.18-1.42-2-1.89-.15-.09-.06-.24.06-.34A3.26,3.26,0,0,1,165.1,309Z" style="fill:#f3c7ad"/><path d="M165.42,310.4a.6.6,0,0,1-.15-.8A.53.53,0,0,1,165.42,310.4Z" style="fill:#f3c7ad"/><path d="M133.6,293.69a.29.29,0,0,1,.42.16C133.82,294,133.69,293.86,133.6,293.69Z" style="fill:#f3c7ad"/></g><path d="M282.53,433.26a17,17,0,0,0,7.06,17.89c.85.56,1.87,1.2,1.94,2.21s-.77,1.74-1.36,2.51-.89,2.09,0,2.57,1.76-.35,2-1.22.1-1.81.35-2.68,1.26-1.45,1.72-.8a1.22,1.22,0,0,1,.16.71,7.43,7.43,0,0,0,.13,2.45,1.64,1.64,0,0,0,1.88,1.19c.82-.28,1-1.4.75-2.23s-.87-1.52-1.16-2.34a1.3,1.3,0,0,1,0-1.14c.4-.64,1.41-.4,2,.06s1.2,1.1,2,1.06a1.86,1.86,0,0,0-.42-2.76,4.52,4.52,0,0,0-3.1-.49,8.79,8.79,0,0,1-3.19.08c-2.39-.61-3.27-4-3.64-6.46-.49-3.14.64-6.76,1.16-9.9" style="fill:#837e35"/><path d="M299.45,421.08a18.77,18.77,0,0,0-2.63-2.16,3,3,0,0,0-.09-1.5c-.67-2.91-2.8-5.42-5.81-5.43a8.21,8.21,0,0,0-6.39,3.09,21.49,21.49,0,0,0-9.57,2.06c-.43.2-1.12,0-1.45.36-1.26,1.36-4.61,2.94-7.12,4a64.59,64.59,0,0,0-19.58,13c-3.27,3.17-7.95,9.9-7,14.35.93,4.13,5.76,6.11,9.62,6.42,5.66.46,12.47.65,17.93-.92l-.3.32a31.83,31.83,0,0,0,12.18-2.84,18.59,18.59,0,0,0,6-4.12c2.45-2.65,3.69-6.17,4.61-9.66h0a7.74,7.74,0,0,1,.51-1.42c.36-.72.74-1.43,1.14-2.12a7.7,7.7,0,0,1,3.65-3.13,20.22,20.22,0,0,0,4.57-2.7,5.28,5.28,0,0,0,1.69-1.92C302.35,424.81,301,422.58,299.45,421.08Z" style="fill:#969344"/><path d="M285.63,414l.05,0,8.31,3.34-6.61-4.51A8.13,8.13,0,0,0,285.63,414Z" style="fill:#837e35"/><path d="M295.22,431.39a20.22,20.22,0,0,0,4.57-2.7,5.28,5.28,0,0,0,1.69-1.92,7.64,7.64,0,0,0,.28-.93,2.67,2.67,0,0,1-1.08.56c-4,.94-8.88,2.19-12,5.29-2.2,2.18-3.57,5-5.16,7.69a47.64,47.64,0,0,1-14.6,15.2,31.89,31.89,0,0,0,10.37-2.73,18.59,18.59,0,0,0,6-4.12c2.45-2.65,3.69-6.17,4.61-9.66h0a7.74,7.74,0,0,1,.51-1.42c.36-.72.74-1.43,1.14-2.12A7.7,7.7,0,0,1,295.22,431.39Z" style="fill:#c4ba5b"/><path d="M290.22,419c1.83,3.71-4.21,8.25-8.35,8.23s-12.05-6.32-9-9.13c3.28-3,4.94-5.87,9.08-5.85S287.94,414.35,290.22,419Z" style="fill:#969344"/><path d="M276.18,429.55a6.91,6.91,0,0,0,2.54,2.36,6.56,6.56,0,0,0,3.24.9c2.26,0,4.33-1.2,6.37-2.36a37.21,37.21,0,0,1,6.56-3,31.91,31.91,0,0,1,3.5-.86l1.77-.23a2.62,2.62,0,0,0,1.6-.61,2.44,2.44,0,0,1-1.55.86l-1.72.46c-1.13.3-2.25.69-3.35,1.1s-2.14.92-3.19,1.46-2.11,1.06-3.13,1.65a27.82,27.82,0,0,1-3.23,1.62,8.3,8.3,0,0,1-3.66.63A6.84,6.84,0,0,1,276.18,429.55Z" style="fill:#837e35"/><path d="M284,436.2a23.91,23.91,0,0,0-.39,13.1,14.15,14.15,0,0,0,1.71-1.57c.12-.12.22-.25.33-.37A44.48,44.48,0,0,1,284,436.2Z" style="fill:#837e35"/><path d="M282.1,450.35a73.19,73.19,0,0,1-5.63-15.79,28.87,28.87,0,0,0,3.19,17.11A24,24,0,0,0,282.1,450.35Z" style="fill:#837e35"/><path d="M276.54,432.51c-1.43,7.45,1.63,16.79,7.9,21.13.94.65,2.05,1.39,2.1,2.53s-.91,1.91-1.6,2.75-1.06,2.31-.13,2.87,2-.34,2.29-1.3.17-2,.47-3,1.46-1.57,1.95-.84a1.36,1.36,0,0,1,.15.8,8.38,8.38,0,0,0,.08,2.74,1.8,1.8,0,0,0,2.05,1.38c.93-.29,1.18-1.53.9-2.46s-.91-1.72-1.21-2.64a1.5,1.5,0,0,1,.06-1.28c.48-.7,1.59-.4,2.25.14s1.3,1.26,2.15,1.23c.92-.76.58-2.37-.38-3.08a5,5,0,0,0-3.44-.64,9.9,9.9,0,0,1-3.56,0c-2.65-.76-3.73-3.89-4.07-6.62-.44-3.52-.81-7.94,1.09-10.6" style="fill:#969344"/><path d="M271.41,438.7a3.67,3.67,0,0,0-2.51,0,13,13,0,0,0-1.39.82c-2,1.09-4.43.45-6.65,0a20.69,20.69,0,0,0-12.05.84c-3.76,1.62-7.53,4.41-6.58,8.39,1.31,5.49,9.18,3.31,6.8,4.63a10.08,10.08,0,0,0-2.1,1.5,15.69,15.69,0,0,0,2.54.43c5.66.46,12.47.65,17.93-.92l-.3.32a32.74,32.74,0,0,0,4.94-.54c.39-.62.77-1.24,1.14-1.87,1.78-3,3.4-6.71,2.09-10A6.34,6.34,0,0,0,271.41,438.7Z" style="fill:#837e35"/><path d="M270.79,452.53c2.28-2,4.14-5,4-8.17a5.81,5.81,0,0,0-.66-2.58c-1.89-3.66-6.3-4.28-10.48-4.25a38.63,38.63,0,0,0-10.63,1.57,16.65,16.65,0,0,0-8.59,5.19,7.15,7.15,0,0,0-1.24,3.22,3.87,3.87,0,0,0,1.76,3.07,12.9,12.9,0,0,0,9.47.68c-2.7,1.84-4.7,2.26-6.71,4.84a1.25,1.25,0,0,0,0,1.67c1.88,1.9,4.79,1,7.5,1.48,1.17.23,2.06.31,3,.51,1.78.39,3.7,1.24,4.41,2.92.49,1.17.22,2.56,1.05,3.65a1.49,1.49,0,0,0,1.49.61c1.19-.26,1.18-1.87.59-2.83-.38-.63-.92-1.17-1.3-1.79a.86.86,0,0,1,.63-1.29,2.23,2.23,0,0,1,1.92.72c.59.7.83,1.85,1.73,2.07a1.26,1.26,0,0,0,1.56-1.55c-.21-1.3-1.28-1.89-2.39-2.29a.5.5,0,0,1,0-.93,2,2,0,0,1,1.5.06,12.51,12.51,0,0,0,1.65.8.88.88,0,0,0,1.13-.94,2.27,2.27,0,0,0-1.07-1.54,6.45,6.45,0,0,0-3.73-.52,46,46,0,0,1-10.73.29c.95-.12,2.5-.36,3.45-.54C264.18,455.87,267.64,455.27,270.79,452.53Z" style="fill:#969344"/><path d="M298.2,423.82c.28.57.31,1.12.06,1.25s-.68-.24-1-.8-.31-1.12-.06-1.24S297.92,423.26,298.2,423.82Z" style="fill:#837e35"/><circle cx="281.18" cy="419.73" r="5.63" transform="translate(-193.03 593.96) rotate(-76.36)" style="fill:#837e35"/><circle cx="281.91" cy="419.7" r="5.35" transform="matrix(0.24, -0.97, 0.97, 0.24, -192.44, 594.68)" style="fill:#fff"/><path d="M283.67,419.69c0,1.82-.81,3.28-1.78,3.28s-1.76-1.48-1.75-3.29.81-3.28,1.78-3.28S283.68,417.88,283.67,419.69Z" style="fill:#444"/><path d="M254.86,430.67c.28.4-.4,1.35-1.52,2.11s-2.24,1.06-2.52.65.4-1.35,1.52-2.12S254.58,430.26,254.86,430.67Z" style="fill:#837e35"/><path d="M258.45,427.52c.15.26-.3.78-1,1.17s-1.36.51-1.51.26.3-.77,1-1.17S258.31,427.27,258.45,427.52Z" style="fill:#837e35"/><path d="M268.38,423c.21.45-.62,1.27-1.85,1.83s-2.39.66-2.6.21.63-1.27,1.86-1.83S268.18,422.5,268.38,423Z" style="fill:#837e35"/><path d="M270.49,421.07c.07.14-.18.4-.55.58s-.74.23-.8.09.18-.39.55-.58S270.42,420.93,270.49,421.07Z" style="fill:#837e35"/><path d="M257.66,430.26c.07.13-.16.4-.52.61s-.72.27-.8.14.16-.41.53-.62S257.58,430.12,257.66,430.26Z" style="fill:#837e35"/><path d="M262.75,424.71c.07.13-.18.39-.56.57s-.73.22-.8.09.19-.4.56-.58S262.69,424.57,262.75,424.71Z" style="fill:#837e35"/><path d="M262.76,426.73c.16.31-.41.92-1.26,1.35s-1.67.53-1.82.23.4-.92,1.25-1.35S262.6,426.42,262.76,426.73Z" style="fill:#837e35"/><path d="M265.81,426c0,.09-.12.26-.37.38s-.48.16-.53.07.12-.27.37-.39S265.76,425.89,265.81,426Z" style="fill:#837e35"/><path d="M249.53,433.91c.08.11-.1.39-.41.63s-.63.33-.71.22.1-.4.4-.63S249.44,433.79,249.53,433.91Z" style="fill:#837e35"/></g></g></g></svg>