<svg xmlns="http://www.w3.org/2000/svg" viewBox="0 0 604.46 563.3"><title>Asset 55</title><g style="isolation:isolate"><g id="Layer_2" data-name="Layer 2"><g id="trofiki_alisida" data-name="trofiki alisida"><path d="M602,228.2C592.83,128,532.26-10,387,.57S-21,164,1.34,375.84C21.78,569.53,648.22,731.2,602,228.2Z" style="fill:#fff"/><path d="M145.71,210.6l-7.3,4.17a21.29,21.29,0,0,1-2.27,1.19c-1.1.47-2.42,1.32-3.27-.08s.45-2.27,1.3-3.08a23.45,23.45,0,0,1,2.91-2.21c4.55-3.07,9.11-6.14,13.69-9.17a22.48,22.48,0,0,1,3.8-2.18c2.83-1.17,4.32-.18,4.17,2.86-.19,4-.62,8-1,12.06a45.59,45.59,0,0,1-.6,5.09,12.43,12.43,0,0,1-1.23,2.73c-2-.83-1.76-2.1-1.71-3.3.12-3.05.26-6.1.36-9.16a8.07,8.07,0,0,0-.53-3.55c-.81,1.08-1.67,2.12-2.4,3.25q-8.44,12.89-16.84,25.8-12.21,18.73-24.42,37.48a24.29,24.29,0,0,1-2.77,2.9c-1.09-2.2.1-3.34.8-4.49,3.85-6.25,7.76-12.45,11.65-18.67l25.09-40.1A12.45,12.45,0,0,0,145.71,210.6Z"/><path d="M351,146.8c1.36,3,2.4,5.36,3.42,7.67a23.28,23.28,0,0,1,1,2.38c.35,1.14,1.06,2.54-.41,3.25s-2.21-.68-2.93-1.6a22.08,22.08,0,0,1-1.91-3.12q-3.92-7.24-7.77-14.53a22.38,22.38,0,0,1-1.8-4c-.88-2.93.25-4.31,3.27-3.87,4,.6,7.93,1.42,11.89,2.17a47,47,0,0,1,5,1.09,13.74,13.74,0,0,1,2.6,1.5c-1,1.89-2.27,1.54-3.46,1.38-3-.43-6.05-.86-9.07-1.27a8.06,8.06,0,0,0-3.6.18c1,.91,2,1.87,3,2.71q12,9.67,24,19.31,17.43,14,34.87,28a24,24,0,0,1,2.62,3c-2.3.87-3.32-.43-4.39-1.24-5.84-4.44-11.62-9-17.43-13.44l-37.41-29A14.47,14.47,0,0,0,351,146.8Z"/><path d="M315,173.79c-.71,3.27-1.24,5.74-1.79,8.21-.19.83-.36,1.68-.63,2.48-.39,1.13-.65,2.68-2.26,2.38s-1.38-1.86-1.41-3a21.21,21.21,0,0,1,.31-3.64c.77-5.44,1.54-10.88,2.36-16.31a22.92,22.92,0,0,1,.93-4.29c1-2.88,2.76-3.32,4.92-1.17,2.86,2.84,5.55,5.84,8.3,8.8a47.49,47.49,0,0,1,3.38,3.85,13.21,13.21,0,0,1,1.2,2.75c-1.94.91-2.74-.11-3.6-.95l-6.55-6.4a8,8,0,0,0-3-2c.26,1.32.46,2.66.81,4q3.9,14.9,7.86,29.78,5.74,21.61,11.46,43.24c.31,1.18,20.28,70.84,20.38,72.38-2.36-.67-22.49-70.69-22.87-72-2.06-7-4-14.1-6.06-21.15q-6.47-22.75-13-45.5A14.15,14.15,0,0,0,315,173.79Z"/><path d="M295.83,417.49,303,421.9a22.6,22.6,0,0,1,2.13,1.43c.94.73,2.31,1.49,1.49,2.91s-2.2.68-3.32.33a22.05,22.05,0,0,1-3.33-1.5c-4.88-2.53-9.75-5.06-14.61-7.63a22.51,22.51,0,0,1-3.73-2.3c-2.38-1.93-2.23-3.7.52-5,3.63-1.75,7.35-3.3,11.05-4.91a44,44,0,0,1,4.75-1.91,12.73,12.73,0,0,1,3-.23c.21,2.14-1,2.55-2.09,3.08l-8.21,4.06a8.13,8.13,0,0,0-2.87,2.18c1.34.18,2.67.44,4,.55q15.35,1.24,30.71,2.44c14.86,1.17,29.73,2.31,44.59,3.52a21.57,21.57,0,0,1,3.88,1c-1.41,2-3,1.51-4.33,1.44-7.32-.39-14.64-.85-22-1.3l-47.22-2.85A15.09,15.09,0,0,0,295.83,417.49Z"/><path d="M194.81,159l8.27-1.45a24.59,24.59,0,0,1,2.54-.35c1.19-.07,2.72-.42,3,1.19s-1.2,2-2.27,2.45a21.64,21.64,0,0,1-3.48,1.09q-8,2-16,4a22.9,22.9,0,0,1-4.32.77c-3.06.13-4.12-1.3-3-4.11,1.55-3.72,3.31-7.35,5-11A47.87,47.87,0,0,1,187,147a13.18,13.18,0,0,1,2.08-2.16c1.59,1.46.94,2.58.49,3.69-1.15,2.83-2.31,5.66-3.44,8.49a8,8,0,0,0-.7,3.53c1.12-.74,2.28-1.44,3.36-2.25Q201,149,213.32,139.74q17.84-13.5,35.69-27a23,23,0,0,1,3.59-1.8c.28,2.45-1.23,3.12-2.28,4-5.74,4.57-11.52,9.08-17.29,13.61l-37.2,29.22A14.92,14.92,0,0,0,194.81,159Z"/><polygon points="340 347.39 339.11 341.5 337.17 336.92 338.23 334.7 343.83 338.12 350.34 344.95 340 347.39" style="fill:#6d574f"/><polygon points="402.66 419.71 406 432.53 408.83 443.27 409.83 451.38 408.5 457.38 403.79 458.67 401.68 461.8 401.67 464.93 406.63 466 414.47 465.51 415.54 461.86 418.44 456.12 417.41 452.2 416.43 439.64 415.21 419.51 413.7 406.95 403.76 408.73 402.66 419.71" style="fill:#876e62"/><polygon points="416.97 456.15 415.29 459.08 414.58 462.51 413.71 461.62 414.62 455.35 416.97 456.15" style="fill:#6d574f"/><polygon points="415.21 419.51 413.7 406.95 403.76 408.73 402.66 419.71 406 432.53 408.21 440.91 408.94 433.27 411.73 423.77 415.41 422.77 415.21 419.51" style="fill:#ad8f80"/><polygon points="409.98 461.7 409.88 461.11 408.41 461.5 406.25 463.55 405.42 465.74 406.39 465.95 406.63 465.02 407.52 463.06 409.98 461.7" style="fill:#6d574f"/><polygon points="402.82 462.85 402.21 465.05 402.89 465.19 403.21 463.73 404.1 461.97 405.57 460.5 404.3 460.69 402.82 462.85" style="fill:#6d574f"/><polygon points="416.43 439.64 415.21 419.51 413.7 406.95 410.34 407.55 413.09 426.03 414.79 438.78 415.52 450.16 418.25 456.49 418.44 456.12 417.41 452.2 416.43 439.64" style="fill:#d6c9c3;mix-blend-mode:multiply"/><polygon points="502.25 368.68 510.35 368.98 522.61 376.35 537.67 397.34 544.39 413.32 545.38 424.3 542.21 431.87 537.77 431.85 523.98 417.93 516.51 393.84 510.56 381 505.87 377.06 502.25 368.68" style="fill:#ad8f80"/><path d="M541.54,421.73,535.67,418l-6.44-6.11-4.66-9.23-7.18-14.74L512,377.28l-7-2.3.9,2.08,4.69,3.94,5.95,12.84L524,417.93l13.79,13.92,4.44,0,3.17-7.57-.36-4.05-.92-.46Z" style="fill:#d6c9c3"/><polygon points="541.9 407.39 537.67 397.34 522.61 376.35 510.35 368.98 509.02 368.93 518.03 375.15 526.02 385.78 531.85 397.38 538.28 406.03 541.9 407.39" style="fill:#876e62"/><polygon points="460.52 403.77 464.11 417.64 471.12 429.18 477.09 437.31 477.33 441.24 472.05 451.93 469.42 456.36 467.84 457.92 462.34 459.73 458.4 464.94 459.44 465.99 468.59 465.51 473.83 464.23 474.9 458.22 482.26 449.1 488.05 441.29 489.9 437.37 489.39 433.71 485.5 428.73 485.83 412.26 477.79 400.19 460.52 403.77" style="fill:#876e62"/><polygon points="485.5 428.73 485.83 412.26 477.79 400.19 460.52 403.77 464.11 417.64 470.19 427.67 473.88 424.23 480.42 422.95 483.27 428.98 487.94 436.06 486.39 443.52 488.05 441.29 489.9 437.37 489.39 433.71 485.5 428.73" style="fill:#ad8f80"/><path d="M488.05,441.29l1.85-3.92-.51-3.66-3.89-5,.33-16.47-1.13-1.71c-1.73,1.4-3.45,2.86-3.45,2.86-.13.52.59,13.73.59,13.73l2.58,8.12,0,6.79-5,7.69-5,7-1.19,3.91,1,1.32.68-3.79,7.36-9.12Z" style="fill:#d6c9c3;mix-blend-mode:multiply"/><polygon points="321.81 378.28 328.12 370.73 331.03 365.51 331.31 361.07 333.43 354.28 338.96 346.73 345.25 343.88 358.83 344.73 367.18 348.43 372.4 350.02 395.92 351.7 403.52 349.91 408.49 349.41 416.31 353.11 436.17 355.29 459.44 354.36 474.09 352.34 488.2 355.01 504.87 366.6 509.5 382.83 511.5 402.7 508.8 420.73 510.6 428.06 515.02 433.31 517.1 435.15 516 445.86 511.75 461.79 509.64 464.13 507.79 469.35 501.76 471.42 499.15 471.14 498.38 469.31 494.45 470.07 492.11 468.23 495.79 462.5 502.33 461.22 504.18 458.09 507.93 439.81 499.07 433.5 492.3 426.14 479.04 413.01 472.8 404.88 466.26 405.89 444.54 408.93 420.48 410.9 406.89 411.62 403.43 424.15 400.74 438.78 399.39 448.45 400.15 453.42 400.14 455.77 395.93 461.5 393.81 468.03 392.23 469.33 381.78 469.28 379.17 468.49 380.23 464.83 386 460.94 390.49 450.5 390.8 441.61 386.75 413.36 384.42 407.86 375.56 402.06 367.24 391.83 364.11 390.77 360.17 394.15 355.48 390.73 348.21 381.02 342.99 379.17 335.38 383.57 331.45 385.12 325.71 383.79 321.28 381.15 321.81 378.28" style="fill:#ad8f80"/><polygon points="517.01 436.03 512.39 435.65 508.49 432.23 503.03 425.67 496.02 414.66 488.2 409.13 474.94 395.21 471.32 386.57 466.35 385.24 460.32 389.92 452.73 391.19 437.56 393.47 425.79 393.67 413.51 392.05 405.41 390.96 402.26 393.82 404.32 402.2 406.9 407.7 407.26 411.6 420.48 410.9 444.54 408.93 466.26 405.89 472.8 404.88 479.04 413.01 492.3 426.14 499.07 433.5 507.93 439.81 504.18 458.09 502.33 461.22 495.79 462.5 492.11 468.23 494.45 470.07 498.38 469.31 499.15 471.14 501.76 471.42 507.79 469.35 509.64 464.13 511.75 461.79 516 445.86 517.01 436.03" style="fill:#d6c9c3"/><polygon points="384.42 408.62 384.78 409.5 384.96 403.26 382.12 396.27 382.95 387.7 379.59 379.64 376.45 378.02 374.87 382.3 370.65 389.79 370.81 396.7 375.55 402.68 384.42 408.62" style="fill:#d6c9c3"/><polygon points="358.36 389.96 357.61 383.68 353.45 378.43 350.07 374.23 351.13 371.36 356.37 367.46 356.39 363.28 346.2 362.71 342.25 368.44 338.85 369.21 332.82 372.32 330.74 371.26 327.78 371.14 321.81 378.28 321.28 381.15 325.71 383.79 331.45 385.12 335.38 383.57 342.99 379.17 348.21 381.02 355.48 390.73 358.7 393.08 358.36 389.96" style="fill:#d6c9c3"/><path d="M387.61,396.89l-2.33-6s1.09-8.1,1.09-8.89.83-7.83.83-7.83l.31-11.51,4.47-6.51-2.13,9.4,2.29,12.3,2.06,7.85-2.12,5.74Z" style="fill:#876e62"/><path d="M336.34,361.36l-2.57,3.51c.59.2,3.35-2.53,3.35-2.53Z" style="fill:#876e62"/><polygon points="335.26 360.37 336.43 361.94 336.82 363.12 338.3 361.95 339.48 359.51 337.42 360.09 335.26 360.37" style="fill:#6d574f"/><polygon points="336.83 360.67 337.22 361.56 337.61 361.17 337.52 360.58 336.83 360.67" style="fill:#ad8f80"/><polygon points="321.28 381.15 324.71 383.2 324.29 380.71 325.66 379.93 325.47 378.36 323.91 378.16 323.29 376.52 321.81 378.28 321.28 381.15" style="fill:#6d574f"/><polygon points="337.23 379.79 332.12 383.04 328.37 384.41 329.42 384.65 332.64 383.17 335.26 381.61 339.2 379.28 342.21 378.25 342.6 377.46 341.03 377.33 337.23 379.79" style="fill:#6d574f"/><polygon points="335.77 356.78 337.1 352.99 342.35 348.31 345.62 347.81 344.94 352.12 347.93 355.92 355.37 358.18 355.62 361.32 352.62 360.26 346.48 358.4 344 359.04 341.65 356.94 335.77 356.78" style="fill:#876e62"/><polygon points="353.54 373 355.48 376.74 357.83 376.56 355.3 373.21 354.72 371.44 353.54 373" style="fill:#876e62"/><polygon points="357.26 373.42 362.73 377.17 366.44 382.08 369.37 383.08 370.94 382.5 367.43 379.74 364.71 373.65 356.5 369.49 357.26 373.42" style="fill:#876e62"/><polygon points="359.18 381.86 360.14 386.96 363.87 386.78 366.61 387.77 367.59 386.8 364.46 384.82 362.53 379.72 359.4 377.15 357.24 377.93 359.18 381.86" style="fill:#876e62"/><polygon points="369.55 386.02 370.93 384.66 366.63 383.26 366.43 384.24 369.55 386.02" style="fill:#876e62"/><path d="M483.81,356.37l11.73,7.31,3.88,7.86-.05,10.58-.61,4.71,7.41,9.44.37,4.32,1.14,7.65,2.4,4,1.42-9.5-2-19.87-4.63-16.23L488.2,355l-14.11-2.67-14.65,2-23.27.93-19.86-2.18-7.83-3.7-5,.5-7.6,1.79-22.86-1.63,1,1.46s6.07,1.41,6.66,1.21,10.39.84,10.39.84l7.83,3.17,9.4,1.42,7.65-.95,1,3.54.18,3.33,2.74,1.19,4.92-3.9,6.87-2.32,17.07-1.29,10-.35,10.59-1.32Z" style="fill:#876e62"/><polygon points="398.24 456.45 396.17 458.89 393.91 459.96 393.72 459.27 396.57 456.64 397.76 453.9 398.24 456.45" style="fill:#6b5951"/><path d="M383.68,466.48l3.74-1.55-.2-.79-4.12,1.55L382,469.28h1.33C383.42,468.3,383.68,466.48,383.68,466.48Z" style="fill:#6b5951"/><polygon points="382.71 464.22 380.55 466.07 379.97 468.73 380.59 468.92 380.94 466.47 382.81 464.61 382.71 464.22" style="fill:#6b5951"/><polygon points="397.73 399.88 397.88 409.1 393.73 414.76 390.59 415.93 389.23 413.57 392.97 409.47 395.75 401.63 397.73 399.88" style="fill:#876e62"/><polygon points="409.27 403.86 405.94 403.84 404.33 412.66 401.13 426.17 398.32 439.88 398.09 447.33 399.6 449.8 399.39 448.45 400.74 438.78 403.43 424.15 406.89 411.62 411.43 411.38 412 408.77 409.27 403.86" style="fill:#d6c9c3"/><polygon points="511.86 437.09 513.41 441.8 513.18 447.48 514.78 441.02 514.21 437.1 511.86 437.09" style="fill:#876e62"/><polygon points="516 445.86 517.01 436.03 515.03 435.87 516.04 437.63 514.96 445.47 512.96 452.78 510.32 459.56 507.55 463.73 506.73 469.71 507.79 469.35 509.64 464.13 511.75 461.79 516 445.86" style="fill:#876e62"/><path d="M497.75,464l-3.16,3.64-.53,2.18.39.3.49-.09c.31-1,.83-2.38.83-2.38l3.42-3.78,1.3-.38-.12-.66Z" style="fill:#876e62"/><path d="M502.71,464.49,500,467.1l-1.44,2.54.64,1.5.13,0c.32-1.2.8-2.89.8-2.89l2.76-2.86Z" style="fill:#876e62"/><polygon points="364.42 351.69 367.75 348.6 367.18 348.43 361.1 345.74 360.5 351.47 359.31 355.39 361.85 357.56 364.42 351.69" style="fill:#876e62"/><path d="M345.24,343.88,339,346.73l-5.53,7.55-2.12,6.79-.28,4.44-2.91,5.22-6.31,7.55-.53,2.87.61.37,1-3,2.1-2.61,4.6-4.55,2.64-4.82.14-3.8s1.6-6.13,1.61-6.52,3.42-6.13,3.42-6.13l3.55-3.12,3.67-2.08,3.4-.63.11-.23Z" style="fill:#d6c9c3;mix-blend-mode:multiply"/><polygon points="357.22 354 352.88 352.73 350.44 352.01 348.09 349.91 346 349.77 345.09 347.94 347.48 340.88 348.3 334.62 349.48 333.57 354.41 339.87 357.38 348.25 357.22 354" style="fill:#cf867c"/><polygon points="351.01 341.03 349.03 345.2 347.81 349.89 348.09 349.91 350.44 352.01 352.88 352.73 352.93 352.74 354.23 350.46 354.52 345.63 351.67 338.69 351.01 341.03" style="fill:#d6c9c3;mix-blend-mode:multiply"/><polygon points="349.48 333.57 348.3 334.62 347.48 340.88 345.09 347.94 346 349.77 346.16 349.78 346.67 346.37 347.86 342.59 348.68 336.58 349.85 337.37 352.31 342.21 352.94 347.06 351.75 350.19 350.26 351.86 350.44 352.01 352.88 352.73 357.22 354 357.38 348.25 354.41 339.87 349.48 333.57" style="fill:#6d574f"/><polygon points="466.26 405.89 472.8 404.88 479.04 413.01 492.3 426.14 498.15 432.5 494.4 425.37 482.7 411.2 476.47 401.75 469.43 398.85 454.5 403.22 422.08 405.16 409.27 404.58 404.3 404.81 405.32 409.52 405.78 415.63 406.89 411.62 420.48 410.9 444.54 408.93 466.26 405.89" style="fill:#d6c9c3;mix-blend-mode:multiply"/><path d="M163.73,353.81l-3.18-.57-2.79-2.39-2.09-1.73-8.49,2.54-5.25,5.14-2.56,4.38,2.34,2.63L133,373.13l-2.34,2-.24,2,.54,2.54L131,382l2,1.14,2.05,2.64,3.73-1,4-2.84,3,.35,3.91.17,1.28,6.73,3.1,2.45.16,4.81,2.61,1.57,1.66,4.61H163l1.34,8.38,3.81,1.38,1.35,4.31s2.35,7.3,2.36,7.75,7,9.85,7,9.85l5.55,3.73.55,3,1.24,1.16.58,8.11-1,5.9-2.14,3.39-3.81,3.13-.05,3,4.37.31,3.76-.28,1.37-3.81-.06-1.8,4.31-1.65-.67-2.23.36-2.72,1.22-13,7-2.94.18-3.77,1-2.29,9.35.44,16,2,9-2.56,5.8,2.37,7.22,4.42,2.58,5,2.38,3.68-.28,5.28L252.93,458l-2.52,1.14-1.73,2.17-1.94.51-3.27,5.83.77.43,1.95-.07-.41,1.22,3,.35,7.34-1,1.09-3.2-.19-1.35,3.27-1-.28-4.2,1.32-5.32,2.84-9.57-.84-2.53,3.46-9,2.17-16,2.21-15-.65-10.52.84-6.2L270,379l-5.55-3.72-3.44-4.1-15-2.51-12.39-1.39L215.87,367l-13.57-.75-13.81,1.07-6-3.11-3.14-3.81-9-3.16,2.75-3.4.31-3.92-2.39.38Z" style="fill:#d8b28d"/><polygon points="264.02 444.5 261.53 445.19 258.25 455.08 257.68 460.37 258.17 463.66 260.32 462.99 260.04 458.79 261.36 453.48 264.02 444.5" style="fill:#ad7e5a"/><polygon points="194.41 440.52 196.65 439.58 194.76 437.5 192.71 439.53 190.75 448.32 191.54 453.86 191.21 457.33 190.35 458.71 190.33 459.68 193.5 458.46 192.82 456.23 193.19 453.51 194.41 440.52" style="fill:#ad7e5a"/><polygon points="255.59 465.41 251.73 462.53 248.93 460.95 248.68 461.28 246.74 461.79 243.47 467.62 244.24 468.05 246.19 467.98 245.78 469.2 248.81 469.55 256.15 468.55 256.95 466.21 255.59 465.41" style="fill:#ad7e5a"/><polygon points="185.78 461.58 182.55 460.41 179.8 462.68 179.75 465.69 184.12 466 187.88 465.73 189.1 462.34 185.78 461.58" style="fill:#ad7e5a"/><polygon points="256.45 467.66 252.09 467.56 247.46 467.6 249.67 462.79 249.43 462.45 246.29 466.39 244.2 466.32 243.47 467.62 244.24 468.05 246.19 467.98 245.78 469.2 248.81 469.55 256.15 468.55 256.45 467.66" style="fill:#774c40"/><polygon points="187.88 465.73 188.13 465.03 186.2 465.03 182.69 464.81 184.99 461.29 183.75 460.84 181.72 462.92 181.1 464.52 179.77 464.61 179.75 465.69 184.12 466 187.88 465.73" style="fill:#774c40"/><path d="M271.39,384.66,270,379l-5.55-3.72-3.44-4.1-15-2.51-12.39-1.39L215.87,367l-13.57-.75-13.81,1.07-6-3.11-3.14-3.81-9-3.16,2.75-3.4.31-3.92-2.39.38-7.33,3.55-3.18-.57-2.79-2.39-2.09-1.73-8.49,2.54-5.25,5.14-.9,1.53h0l-1.66,2.85L141,363l1.4-2.43.59-.59,3.95-3.52,6.89-2.94,3.21,1.47,2.57,2.4,1,3.58-1.64,5a63.87,63.87,0,0,0-1.8,6.83c0,.9-.08,4.29-.08,4.29l-5.8,2-2.33,3.33.78,0,1.28,6.73,3.1,2.45.16,4.81,2.61,1.57,1.66,4.61H163l1.34,8.38,3.81,1.38,1.35,4.31s2.35,7.3,2.36,7.75,7,9.85,7,9.85l5.55,3.73.55,3,1.16,1.08,4.29,0,3.92-.51.1-1.06,7-2.94.18-3.77,1-2.29,9.35.44,16,2,9-2.56,5.8,2.37,7.22,4.42,2.58,5,2.26,3.5,6.05,0,2.91-1,.54-1.8-.84-2.53,3.46-9,2.17-16,2.21-15-.65-10.52Z" style="fill:#a87752"/><path d="M271,398.39l-1.52,5.9-2.58,8.37-3.11,6.12-4.49,5-8,0-5.19-2.08-2.1-4.29.85-6-2-2.19-5.35,1.83-3.45,4.94-4.61,6L218,425.44l-11.86,1s-2.18-2.18-2.19-2.63-1.22-4.78-1.22-4.78l-2.55-4.28-.69-2.68-1,1.84.89,4s2.27,5,2.14,5.5S200,428,200,428l-1.41,2.6-9.41,2.12-3.49-.94-2.7-4-1.39-5.67-2.39-8.5-2.3-5.49-.78-5.54,2.28-3.84-3.46.11-1.61,1.27-5.13-4.8L165.29,389l.66-2.58-1.41-1.76-3.61,0-.55-2.69.16-4.37.42-5.28,1.81-8.79-.33-5.56L158,354.46l-3.09-2.15-3.27,1.16-4.15,1.8-1.72,2.17,1.16-1,6.89-2.94,3.21,1.47,2.57,2.4,1,3.58-1.64,5a63.87,63.87,0,0,0-1.8,6.83c0,.9-.08,4.29-.08,4.29l-5.8,2-2.33,3.33.78,0,1.28,6.73,3.1,2.45.16,4.81,2.61,1.57,1.66,4.61H163l1.34,8.38,3.81,1.38,1.35,4.31s2.35,7.3,2.36,7.75,7,9.85,7,9.85l5.55,3.73.55,3,1.16,1.08,4.29,0,3.92-.51.1-1.06,7-2.94.18-3.77,1-2.29,9.35.44,16,2,9-2.56,5.8,2.37,7.22,4.42,2.58,5,2.26,3.5,6.05,0,2.91-1,.54-1.8-.84-2.53,3.46-9,2.17-16,2.21-15Z" style="fill:#8c5835"/><polygon points="131.91 377.54 132.72 375.02 134.7 373.49 134.73 374.28 135.33 375.16 133.56 376.35 131.91 377.54" style="fill:#774c40"/><polygon points="141.46 369.69 144.61 365.97 145.2 363.35 146.15 361.51 149.73 360.6 151.15 362.36 151.12 364.96 147.58 367.11 143.26 369.51 140.18 371.65 140.03 370.86 141.46 369.69" style="fill:#ad7e5a"/><polygon points="146.33 363.31 148.47 363.35 149.63 364.1 149.08 364.69 146.17 365.46 146.7 364.32 146.33 363.31" style="fill:#774c40"/><path d="M151.26,379.06l5.8-2s.11-3.39.08-4.29a26.83,26.83,0,0,1,.94-3.94l-.28.08-2.11,4.25-1.59,3.1L150,378.2l-4,1.71-3.9,1.49s-2.65,1.79-3,1.91-3.59.68-3.59.68l-1-.64,2.34-.87,3.24-.89.75-1.5-1-.19-1.43,1.18-3.78,1.48-2.1.25.57.33,2.05,2.64,3.73-1,4-2.84,3,.35,3.13.13Z" style="fill:#ad7e5a"/><path d="M252.44,443.24l2.26,3.5,6.05,0,2.91-1,.54-1.8-.84-2.53,0-.05-.32-.09-6,1-3.6-3.15s-3.89-4.84-4.24-5.17-2-6.48-2-6.48l-5-3.66-6.71,5-11.21,2.52-11.88-.95L204,427.86l-1.22.72-.94,2.4a30.65,30.65,0,0,0-3.65,2.38c-.32.46-6.2,3.37-6.2,3.37l-7.86-2-6.42-6.44L173.35,422l-2.94-7-1.64-.72.76,2.4s2.35,7.3,2.36,7.75,7,9.85,7,9.85l5.55,3.73.55,3,1.16,1.08,4.29,0,3.92-.51.1-1.06,7-2.94.18-3.77,1-2.29,9.35.44,16,2,9-2.56,5.8,2.37,7.22,4.42Z" style="fill:#774828"/><polygon points="168.06 358.52 170.53 357.25 170.39 357.2 173.14 353.8 173.45 349.88 171.06 350.26 163.75 353.8 163.41 354.39 161.65 355.92 160.56 356.85 161.34 359.88 164.03 359.44 168.06 358.52" style="fill:#d8b28d"/><polygon points="161.5 358.18 164.15 356.28 168.13 353.67 172.16 352.74 171.41 354.12 169.58 356.55 165.79 358.15 161.63 358.62 161.5 358.18" style="fill:#ad7e5a"/><polygon points="163.43 378.65 162.43 380.19 163.19 380.47 164.93 378.45 163.43 378.65" style="fill:#8c5835"/><polygon points="162.77 381.39 162.52 382.75 163.34 382.72 163.38 381.44 162.77 381.39" style="fill:#8c5835"/><polygon points="171 379.75 169.78 381.6 167.54 382.21 167.56 382.88 170.11 382.5 171.71 380.71 171.66 379.43 171 379.75" style="fill:#8c5835"/><path d="M169.38,378.75l-.1,1.51s.67-.32.66-.54.25-1.52.25-1.52Z" style="fill:#8c5835"/><path d="M170.49,389.4l-.29,2.5.65,1.63s1.52.4,1.52.17-.12-3.45-.13-3.75a21.38,21.38,0,0,1,.6-2.28Z" style="fill:#8c5835"/><polygon points="169.4 388.16 167.93 389.42 168.35 390.61 169.44 389.29 170.15 388.14 169.4 388.16" style="fill:#8c5835"/><polygon points="183.37 421.18 183.31 423.89 184.52 424 185.46 420.81 186.14 418.38 184.8 419.02 183.37 421.18" style="fill:#8c5835"/><polygon points="186.98 421.2 185.67 422.46 187.22 423.76 189.84 421.11 190.08 419.15 186.98 421.2" style="fill:#8c5835"/><polygon points="169.2 384.63 165.17 385.52 165.97 387 168.63 385.7 170.09 384.3 169.2 384.63" style="fill:#8c5835"/><polygon points="178.4 385.23 174.97 385.94 177.16 388.58 178.45 386.73 179.89 384.57 178.4 385.23" style="fill:#8c5835"/><polygon points="175.88 381.85 175.79 383.51 177.28 383.31 177.35 380.9 175.88 381.85" style="fill:#8c5835"/><polygon points="171.83 395.68 169.63 397.56 172.34 397.62 173.21 396.39 171.83 395.68" style="fill:#8c5835"/><polygon points="176.45 394.32 175.75 396 177.39 395.49 178.06 392.91 179.05 391.07 176.35 391.47 176.45 394.32" style="fill:#8c5835"/><path d="M189.59,404.87l-1,2.74s3.45-.57,3.43-1,2-2.93,2-2.93l-1.68-.84Z" style="fill:#8c5835"/><polygon points="205.53 422.39 209.18 423.47 213.05 422.29 214.18 419.85 210.02 421.49 205.53 422.39" style="fill:#8c5835"/><polygon points="207.28 420.68 208.64 416.26 209.55 416.39 209.19 419.11 207.28 420.68" style="fill:#8c5835"/><polygon points="205.24 418.19 203.76 418.99 205.13 419.39 206.46 418.6 207.03 417.68 205.24 418.19" style="fill:#8c5835"/><path d="M216.34,417.06l-1.75,1.57s2,.38,2.1-.07a20.08,20.08,0,0,1,1.73-2.47l0-1.06Z" style="fill:#8c5835"/><path d="M225.89,419.15l-5.66,1.54-.27,1.07s2.84-.55,3.29-.71l2.23-.84,1.3-1.39Z" style="fill:#8c5835"/><polygon points="212.57 380.92 207.94 381.97 209.66 383.88 213.22 382.4 214.81 380.24 212.57 380.92" style="fill:#8c5835"/><polygon points="193.83 405.63 192.39 407.33 195.23 406.78 197.11 404.61 193.83 405.63" style="fill:#8c5835"/><polygon points="195.5 401.36 195.55 402.86 197.45 401.29 198.28 399.15 195.5 401.36" style="fill:#8c5835"/><polygon points="188.94 398.87 187.79 400.26 191.23 399.7 191.77 398.02 188.94 398.87" style="fill:#8c5835"/><polygon points="188.61 393.46 186.53 394.28 190.31 394.76 191.15 392.77 188.61 393.46" style="fill:#8c5835"/><polygon points="200.87 377.55 200.35 380.13 201.37 379.04 202.65 376.89 200.87 377.55" style="fill:#8c5835"/><polygon points="213.65 377.12 210.07 378.29 211.59 378.54 214.13 378.01 214.54 376.94 213.65 377.12" style="fill:#8c5835"/><polygon points="190.73 416.26 193.57 415.57 194.71 413.87 192.26 412.45 192.32 414.26 189.49 415.1 190.73 416.26" style="fill:#8c5835"/><polygon points="193.06 418.29 191.56 418.5 192.5 419.51 193.84 419.17 193.06 418.29" style="fill:#8c5835"/><polygon points="222.72 414.14 222.6 415.19 223.94 414.7 224.79 413.31 222.72 414.14" style="fill:#8c5835"/><path d="M520.91,240.83l10.23,6.58,4,4.45.93,1.41,4.18,2.82,1.4,1.4,2.09,1.88s7.67,7.27,7.9,8a1.1,1.1,0,0,1-.48,1.17s3,2.81,3.72,3.51,5.57,7,5.57,7l5.79,8.2,3.46,8.88.88,11-.94,2.56s-5.37-.72-6.06-1.19-10.5-2.15-10.5-2.15l-7.66-6.1s-9.29-10.08-9.52-10.78-4-4.22-4.18-4.92-2.56-2.11-2.55-3-.43-8.4-.43-8.4l-2.06-7.48s-3.25-5.62-3.24-6.55S520.91,240.83,520.91,240.83Z" style="fill:#d8650f"/><path d="M554,303.29l-1.39-2.1,4.67-.92,2.83-5.12,3.73.25,3.26,1.65,2-2.49.61,1.57.88,11-.94,2.56s-5.37-.72-6.06-1.19-10.5-2.15-10.5-2.15l-2-1.58Z" style="fill:#d6c9c3"/><path d="M523,255.43,527.6,257l3.9,14.49,5.09,8.42,8.12,9.84,7,7.27,5.58,3.29,5.36,3.29,7.69.81.22,2.73-.94,2.56s-5.37-.72-6.06-1.19-10.5-2.15-10.5-2.15l-7.66-6.1s-9.29-10.08-9.52-10.78-4-4.22-4.18-4.92-2.56-2.11-2.55-3-.43-8.4-.43-8.4l-2.06-7.48s-3.25-5.62-3.24-6.55C523.39,258.79,523.21,257.37,523,255.43Z" style="fill:#d6c9c3;mix-blend-mode:multiply"/><path d="M425.42,200.83c-.17-.53-3.47-6.67-3.47-6.67l-2.61-.89-.54,1.92-.19,3.33-.2,4.55Z" style="fill:#66524a"/><polygon points="489.97 268.92 489.46 278.95 492.23 286.19 496.64 291.12 500.59 294.4 501.27 296.97 500.55 301.64 497.49 308.16 496.55 309.09 493.98 309.77 491.63 312.56 492.09 314.43 498.16 314.46 502.13 314.25 502.61 310.98 503.78 309.59 504.03 307.26 506.62 302.37 510.38 295.62 509.47 292.35 505.51 290.23 502.98 281.35 500.73 264.54 489.97 268.92" style="fill:#d8650f"/><polygon points="496.55 309.09 497.49 308.16 500.55 301.64 501.27 296.97 500.83 295.31 502.45 294.64 504.55 296.06 507.82 295.37 510.17 294.88 510.38 295.62 506.62 302.37 504.03 307.26 503.78 309.59 502.61 310.98 502.13 314.25 498.16 314.46 492.09 314.43 491.63 312.56 493.98 309.77 496.55 309.09" style="fill:#44352e"/><polygon points="436.55 266.8 437.64 281.27 438.53 292.01 438.73 297.85 437.07 303.91 434.03 305.06 431.92 307.61 432.14 309.95 438.21 309.74 441.26 306.73 444.11 296.01 444.24 269.17 436.55 266.8" style="fill:#d8650f"/><polygon points="431.92 307.61 434.03 305.06 437.07 303.91 438.73 297.85 438.53 292.01 437.64 281.27 437.34 277.23 441.17 276.16 444.19 278.29 444.11 296.01 441.26 306.73 438.21 309.74 432.14 309.95 431.92 307.61" style="fill:#66524a"/><path d="M397.57,219l1.38,4.21,3.72,2.82,7.47-.67,5.83,0,4.42,3.52,4.83,15.42,3.44,13.09,4.63,7.72,5.33,6.56,3,2.11.85,17.51.41,11.21.46,3-1.66,5.36-3,.68-2.12,4,1.16.94,9.11-.89,2.37-8.86.44-5.36.55-5.25,1.65-4.78,2.42-18.18,3-2.33,7,1.67,12.6-.17L493,270.1l4.4,6.55,2.54,6.79,6,5.39,10.48,5.42,2.79,2.58-1.71,14.46-2.8.92-2.58,2.09-.72,4.19,2.33.25,5.84,0,3.75-3.25,1.64-1.39.51-8.86,3.55-12.35-5.56-7-.68-6.3,3.33-11.19L529,257.67s-1.6-8.41-1.83-9.11-6-8.89-6-8.89l-12.58-5.43-21.92-2-18.66-2-4.66-2.59-7-.73-3.73-1.65-6-9.13-9.28-11.94-8.15-4.47-8.4.66-9.13,6.72-2.12,3.95-3.52,3Z" style="fill:#d8650f"/><polygon points="438.67 311.61 441.71 310.93 443.37 305.57 442.91 302.54 442.5 291.33 441.76 276.22 444.91 275.47 445.85 273.38 451.23 271.53 454.05 274.7 451.83 291.37 450.18 296.15 449.63 301.4 449.19 306.76 446.82 315.62 437.71 316.51 436.55 315.57 438.67 311.61" style="fill:#44352e"/><polygon points="505.98 288.83 504.59 287.59 506.69 287.67 517.41 289.58 522.08 288.67 523.44 285.38 523.5 285.88 529.06 292.91 525.5 305.26 525 314.12 523.36 315.51 519.61 318.76 513.77 318.74 511.44 318.49 512.16 314.3 514.74 312.21 517.54 311.29 519.25 296.83 516.46 294.25 505.98 288.83" style="fill:#44352e"/><polygon points="453.57 268.98 454.75 266.88 466.18 268.1 479.71 268.17 489.98 267.52 493.71 267.3 493 270.1 476.89 272.36 464.29 272.53 457.3 270.86 455.03 272.58 453.57 268.98" style="fill:#d6c9c3"/><polygon points="403.86 220.67 409.24 218.13 413.45 216.29 419.74 217.25 427.67 220.55 432.79 222.21 433.94 225.02 432.51 231.31 431.29 243.44 432.41 252.08 437.73 263.07 440.04 269.15 440.35 272.92 438.62 271.71 433.29 265.15 428.65 257.43 425.22 244.34 420.39 228.93 415.98 225.4 410.14 225.37 402.67 226.04 398.95 223.22 398.48 221.8 403.86 220.67" style="fill:#d6c9c3"/><polygon points="445.66 313.28 447.33 305.59 447.6 296.72 449.5 289.73 449.6 270.13 448.69 264.76 452.9 261.98 468.52 265.32 484.86 264.46 496.55 260.08 499.57 261.5 497.92 266.86 504.15 279.95 513.45 288.4 521.11 296.37 519.43 306.86 517.91 308.13 519.25 296.83 516.46 294.25 505.98 288.83 499.94 283.44 497.4 276.65 493 270.1 476.89 272.36 464.29 272.53 457.3 270.86 454.25 273.19 451.83 291.37 450.18 296.15 449.63 301.4 449.19 306.76 446.82 315.62 445.09 315.79 445.66 313.28" style="fill:#d6c9c3;mix-blend-mode:multiply"/><path d="M426.35,202.11l-4.2-.71-1-1,8-.62,8.15,4.47,9.28,11.94,6,9.13,3.73,1.65,7,.73,4.66,2.59,18.66,2,21.92,2,9.35,4-5.4-.51-20-3.13-18.43-1-8.41,1.12-8.86-1.2-5.59-2.6-3.7-6.55s-8.58-11.94-8.81-12.64-5.56-7.26-5.56-7.26Z" style="fill:#ff7e27"/><polygon points="414.7 210.38 410.93 212.34 408.47 213.72 409.97 212.09 413.22 210.04 414.7 210.38" style="fill:#66524a"/><polygon points="428.97 190.87 431.59 192.1 435.91 203.33 435.02 205.42 429.59 208.9 428.55 206.62 426.63 204.5 424.88 204.33 425.08 199.42 428.97 190.87" style="fill:#ff7e27"/><polygon points="429.83 193.15 428.57 191.75 428.97 190.87 431.59 192.1 435.91 203.33 435.02 205.42 429.59 208.9 429.03 207.67 429.79 203.47 429.81 197.52 429.83 193.15" style="fill:#d8650f"/><polygon points="426.3 200.83 426.49 197.86 428.61 194.19 428.77 196.82 428.57 201.71 427.98 205.99 426.63 204.5 426.03 204.45 425.94 204.15 426.3 200.83" style="fill:#d6c9c3;mix-blend-mode:multiply"/><polygon points="428.97 190.87 431.59 192.1 434.16 198.77 431.74 197.71 429.81 198.42 429.81 197.52 429.83 193.15 428.57 191.75 428.97 190.87" style="fill:#44352e"/><polygon points="400.59 224.47 402.56 224.26 405.71 223.75 410.62 222.37 415.17 222.83 415.17 223.35 412.72 223.17 410.44 223.07 406.77 224.01 403.61 224.79 401.48 225.14 400.59 224.47" style="fill:#66524a"/><polygon points="399.25 220.65 398.53 221.94 397.57 219.01 398.56 218.44 399.96 218.73 399.96 219.78 398.82 219.95 398.81 220.65 399.25 220.65" style="fill:#66524a"/><polygon points="412.7 209.08 412.87 209.7 412.69 210.57 412.16 211.18 414.09 210.92 415.84 210.84 414.53 209.79 412.7 209.08" style="fill:#44352e"/><polygon points="332.9 79.43 332.6 82.88 331.72 85.05 329.71 83.99 329.22 81.39 332.9 79.43" style="fill:#ff5050"/><polygon points="337.29 79.13 336.88 78.32 335.4 77.33 333.06 76.24 332.49 74.65 331.25 73.33 330.49 71.07 328.86 70.12 328.1 69.27 326.96 67.11 324.18 65.69 322.93 68.03 320.92 65.96 318.71 66.51 317.65 68.38 316.01 68.75 316.48 72.41 313.48 78.68 309.01 88.89 307.66 90.39 300.27 91.01 290.58 92.56 287.32 91.7 282.44 88.67 279.88 81.43 274.24 78.31 272.22 79.8 272.11 81.87 269.12 84.57 267.11 85.41 266.23 86.91 266.8 89.44 266.78 92.63 266.09 95.82 267.24 98.17 269.24 100.99 272.55 110.58 275.12 116.03 281.24 118.13 282.48 120.11 289.56 123.89 293.97 125.97 299.03 130.97 300.46 131.54 301.97 137.37 301.95 141.5 299.74 142.14 296.19 143.53 295.7 143.9 296.18 144.19 297.72 143.82 299.06 144.01 304.15 143.1 307.31 144.71 310.76 145.48 313.54 146.62 314.49 147.37 314.88 147.37 314.12 146.15 312.59 144.92 308.56 143.03 310.1 142.56 314.23 142.77 315.19 142.4 317.49 143.26 317.77 142.69 315.29 141.37 314.24 140.52 311.83 141.07 309.05 141.25 305.03 140.85 303.69 138.5 303.25 131.27 305.17 130.25 307.58 126.7 310.3 122.02 316.64 119.7 323.27 116.17 326.17 112.24 328.39 110.19 328.69 107.37 330.14 104.47 329.61 94.43 329.91 91.33 327.35 85.88 326.7 82.22 327.65 82.88 328.71 83.35 331.21 81.58 332.66 79.71 335.17 79.37 337.29 79.13" style="fill:#c15729"/><polygon points="330.07 78.39 332.19 76.99 332.48 76.43 333.02 76.14 333.06 76.24 335.4 77.33 336.88 78.32 337.29 79.13 335.17 79.37 332.66 79.71 332.49 79.92 330.07 78.76 330.07 78.39" style="fill:#e5a85e"/><polygon points="333.99 77.04 333.06 76.69 332.91 76.97 333.99 77.04" style="fill:#b54823"/><polygon points="330.42 75.43 329.42 74.72 329.09 73.97 328.56 73.83 327.5 74.39 327.31 74.85 327.83 75.14 329.03 75.38 330.42 75.43" style="fill:#a53a1e"/><polygon points="328.42 74.39 328.82 74.47 329.18 74.59 328.96 75.01 328.49 75.08 328.17 74.8 328.06 74.34 328.42 74.39" style="fill:#e5a85e"/><polygon points="328.64 74.31 328.78 74.52 328.6 74.73 328.46 74.55 328.64 74.31" style="fill:#b54823"/><polygon points="277.62 113.33 285.39 114.49 303.9 114.76 315.72 111.16 322.85 104.44 324.63 94.22 322.74 86.61 324.59 80.71 325.75 79.49 328.15 79.6 330.07 78.76 333.95 79.53 332.66 79.71 331.21 81.58 328.71 83.35 327.65 82.88 326.7 82.22 327.35 85.88 329.91 91.33 329.61 94.43 330.14 104.47 328.69 107.37 328.39 110.19 326.17 112.24 323.27 116.17 316.64 119.7 310.3 122.02 307.58 126.7 305.17 130.25 303.57 131.1 300.09 131.39 299.03 130.97 293.97 125.97 289.56 123.89 282.48 120.11 281.24 118.13 275.12 116.03 272.69 110.88 277.62 113.33" style="fill:#b54823"/><polygon points="316.42 105.06 312.76 108.42 310.92 111.61 308.6 114.88 305.33 116.64 299.19 117.74 290.27 117.42 283.46 116.26 280.4 113.9 292.51 109.83 305.96 104.64 312.02 102.42 311.64 100.54 309.06 99.02 309.26 98.37 311.75 99.03 315.1 99.99 316.25 101.22 316.91 102.63 316.81 103.84 316.42 105.06" style="fill:#a53a1e"/><polygon points="316.14 103.84 311.51 107.76 309.38 112.16 306.68 115.06 299.48 116.06 288.45 115.44 279.73 114.65 280.6 111.46 290.12 106.63 297.24 103.66 300.62 99.26 306.1 97.32 311.27 99.6 315 100.74 316.14 102.62 316.14 103.84" style="fill:#b54823"/><polygon points="283.09 92.52 282.13 93.64 278.6 89.4 274.31 82.25 272.29 79.75 272.82 79.35 274.8 81.41 278.04 86.3 280.7 90.44 283.09 92.52" style="fill:#b54823"/><polygon points="271.86 82.09 272.68 83.37 274.68 86.85 275.81 90.61 278.28 96.06 276.83 97.93 275.4 96.14 273.98 92.29 272.66 87.78 270.78 83.07 271.86 82.09" style="fill:#b54823"/><path d="M269,84.64l1.87,7.07s2.76,4.89,2.85,5.18,1.42,2.91,1.42,2.91l-1.15,1.59L271.66,95l-1.9-4-1.29-6.12Z" style="fill:#b54823"/><polygon points="266.78 92.63 266.8 89.44 266.23 86.91 267.11 85.41 267.12 85.4 267.38 88.32 268.99 93.86 271.26 99.88 272.48 104.86 271.7 108.13 269.24 100.99 267.24 98.17 266.09 95.82 266.78 92.63" style="fill:#b54823"/><polygon points="331.53 79.42 328.72 80.68 326.49 80.88 327.55 85.18 329.34 85.47 331.22 83.79 332.31 80.62 332.66 79.71 331.53 79.42" style="fill:#cc371f"/><polygon points="324.89 83.54 324.88 85.02 324.52 85.58 324.1 83.89 324.89 83.54" style="fill:#a53a1e"/><polygon points="324.4 81.29 324.1 82.77 323.38 83.19 322.96 81.14 324.4 81.29" style="fill:#b54823"/><polygon points="323.45 84.59 322.94 86.49 322.29 86.49 322.23 84.1 323.45 84.59" style="fill:#b54823"/><polygon points="322.31 82.55 322.01 83.04 321.73 82.9 321.95 81.77 322.31 82.55" style="fill:#b54823"/><polygon points="322.92 90.64 323.12 92.47 322.04 92.96 321.84 90.15 322.92 90.64" style="fill:#b54823"/><polygon points="325.27 93.61 324.47 96.35 323.97 96.07 323.83 93.6 325.27 93.61" style="fill:#b54823"/><polygon points="322.83 93.74 322.68 94.72 321.82 94.44 321.82 93.52 322.83 93.74" style="fill:#b54823"/><polygon points="323.11 95.92 322.31 97.82 321.08 97.74 321.38 95.14 323.11 95.92" style="fill:#b54823"/><polygon points="324.32 98.32 323.24 97.82 322.01 99.65 321.93 100.49 322.22 100.78 324.1 99.8 324.32 98.32" style="fill:#b54823"/><polygon points="321.63 87.89 320.84 89.16 320.33 88.8 320.77 87.68 321.63 87.89" style="fill:#b54823"/><polygon points="319.74 77.75 319.38 78.45 318.66 78.1 319.02 77.18 319.74 77.75" style="fill:#b54823"/><polygon points="325.88 72.01 324.87 72.5 324.87 72.99 326.17 72.43 325.88 72.01" style="fill:#b54823"/><polygon points="324.37 71.72 324.15 72.78 323.43 72.84 323.44 71.5 324.37 71.72" style="fill:#b54823"/><polygon points="323.07 72 322.35 72.77 321.78 72.76 322.29 71.57 323.07 72" style="fill:#b54823"/><polygon points="322.57 73.26 322.13 73.61 322.27 73.89 322.57 73.26" style="fill:#b54823"/><polygon points="318.67 74.44 317.38 74.78 317.37 75.63 318.81 75.28 318.67 74.44" style="fill:#b54823"/><polygon points="272.28 101.31 270.78 100.18 269.2 99.19 269.2 99.82 270.56 100.74 271.99 101.88 272.28 101.31" style="fill:#a53a1e"/><polygon points="322.29 71.57 319.41 71.98 317.09 74.36 314.56 76.81 314.32 76.92 316.48 72.41 316.08 69.26 316.61 68.61 317.65 68.38 318.71 66.51 320.92 65.96 322.93 68.03 324.18 65.69 326.96 67.11 328.1 69.27 328.86 70.12 330.49 71.07 330.51 71.13 329.19 71.74 325.81 71.16 322.29 71.57" style="fill:#b54823"/><polygon points="322.08 69.74 319.48 70.57 316.26 72.87 316.48 72.41 316.01 68.75 317.65 68.38 318.71 66.51 320.92 65.96 322.93 68.03 324.18 65.69 326.96 67.11 328.1 69.27 328.86 70.12 330.49 71.07 331.25 73.33 332.49 74.65 332.68 75.18 330.48 72.88 327.9 71.03 324.74 69.61 322.08 69.74" style="fill:#cc371f"/><polygon points="323.6 67.19 323.39 67.17 324.18 65.69 326.96 67.11 328.1 69.27 328.86 70.12 330.49 71.07 330.7 71.7 329.43 70.97 328.48 70.68 327.52 69.32 326.52 67.53 324.51 66.54 323.6 67.19" style="fill:#ff5050"/><polygon points="320.53 66.8 319.09 67.22 318.03 68.01 317.88 67.97 318.71 66.51 320.92 65.96 321.74 66.81 320.53 66.8" style="fill:#ff5050"/><polygon points="323.44 102.4 322.85 104.44 322.06 104.08 321.86 101.62 323.44 102.4" style="fill:#b54823"/><polygon points="323.88 100.64 322.8 101.2 323.94 101.63 323.88 100.64" style="fill:#b54823"/><polygon points="317.15 107.65 318.81 107.65 318.37 108.71 316.57 108.35 317.15 107.65" style="fill:#b54823"/><polygon points="319.83 104.07 321.05 104.71 319.17 106.11 318.53 105.68 319.83 104.07" style="fill:#b54823"/><polygon points="321.12 106.26 320.47 105.9 319.52 107.94 320.24 107.87 321.12 106.26" style="fill:#b54823"/><polygon points="318.16 106.53 317.59 106.87 317.3 106.59 318.02 106.03 318.16 106.53" style="fill:#b54823"/><polygon points="316.99 110.25 316.28 109.83 314.91 110.66 314.47 112.21 316.06 111.58 316.99 110.25" style="fill:#b54823"/><polygon points="278.71 112.46 278.56 113.59 276.76 113.23 276.4 112.1 278.71 112.46" style="fill:#b54823"/><polygon points="276.48 111.4 275.12 110.19 274.61 110.4 275.18 112.23 276.48 111.4" style="fill:#b54823"/><polygon points="314 88.49 313.06 90.1 312.63 89.68 313.14 88.06 314 88.49" style="fill:#b54823"/><polygon points="312.36 87.22 312.2 88.13 311.56 87.99 311.64 86.72 312.36 87.22" style="fill:#b54823"/><polygon points="325.29 106.28 324.63 107.96 324.13 107.68 324.35 105.57 325.29 106.28" style="fill:#a53a1e"/><polygon points="323.92 106.9 322.32 108.73 321.11 107.95 322.84 105.84 323.92 106.9" style="fill:#a53a1e"/><polygon points="323.47 109.86 322.38 111.75 321.95 111.19 322.4 109.29 323.47 109.86" style="fill:#a53a1e"/><polygon points="321.24 110.06 319.44 110.33 319.44 109.77 321.17 109 321.24 110.06" style="fill:#a53a1e"/><polygon points="320.66 111.32 319.07 111.81 319.22 112.02 320.66 111.32" style="fill:#a53a1e"/><polygon points="320.51 112.23 320.73 112.73 320 113.08 319.28 112.86 320.51 112.23" style="fill:#a53a1e"/><polygon points="289.1 123.64 293.26 123.58 300.45 125.02 305.35 124.2 310.25 120.7 313.57 118.61 321.5 115.69 325.11 112.47 328.24 110.32 326.17 112.24 323.27 116.17 316.64 119.7 310.3 122.02 307.58 126.7 305.17 130.25 303.25 131.27 303.43 134.22 301.23 134.5 300.46 131.54 299.03 130.97 293.97 125.97 289.56 123.89 289.1 123.64" style="fill:#a53a1e"/><polygon points="299.74 142.14 301.95 141.5 301.97 137.37 300.48 131.61 303.26 131.48 303.69 138.5 305.03 140.85 309.05 141.25 311.83 141.07 314.24 140.52 315.29 141.37 317.77 142.69 317.49 143.26 315.19 142.4 314.23 142.77 310.1 142.56 308.56 143.03 312.59 144.92 314.12 146.15 314.88 147.37 314.49 147.37 313.54 146.62 310.76 145.48 307.31 144.71 304.15 143.1 299.06 144.01 297.72 143.82 296.18 144.19 295.7 143.9 296.19 143.53 299.74 142.14" style="fill:#e5a85e"/><polygon points="312.64 118.6 311.55 119.23 311.06 118.88 312.28 117.47 312.64 118.6" style="fill:#a53a1e"/><polygon points="310.33 119.72 307.88 120.69 307.31 119.98 308.9 118.87 310.33 119.72" style="fill:#a53a1e"/><polygon points="309.25 120.77 308.66 122.59 307.36 122.87 307.45 120.9 308.09 120.97 309.25 120.77" style="fill:#a53a1e"/><polygon points="311.91 120.01 311.05 119.58 310.76 120.07 310.97 120.71 311.91 120.01" style="fill:#a53a1e"/><polygon points="309.69 117.18 309.69 117.82 309.12 117.81 309.12 117.32 309.69 117.18" style="fill:#a53a1e"/><polygon points="305.71 122.65 304.19 123.35 303.63 122.57 305.86 121.24 305.71 122.65" style="fill:#a53a1e"/><polygon points="314.73 117.56 313.79 117.83 313.72 117.34 315.17 116.29 314.73 117.56" style="fill:#a53a1e"/><polygon points="316.53 116.93 316.39 117.71 315.45 117.63 315.52 116.72 316.53 116.93" style="fill:#a53a1e"/><polygon points="315.01 103.2 313.43 103.41 311.77 104.1 310.83 104.8 310.69 104.24 312.5 103.05 314.01 102.5 315.01 103.2" style="fill:#a53a1e"/><polygon points="315.23 102.36 313.29 101.93 311.49 101.92 310.41 102.2 310.13 101.77 312.36 101.43 314.66 101.58 315.23 102.36" style="fill:#a53a1e"/><polygon points="308.97 103.46 308.67 104.44 308.17 103.94 308.97 103.46" style="fill:#a53a1e"/><polygon points="310.84 103.11 309.62 102.47 309.55 102.89 310.05 103.39 310.84 103.11" style="fill:#a53a1e"/><polygon points="309.82 105.71 311.4 105.86 312.41 105.72 311.26 106.35 309.53 106.2 309.32 105.15 309.75 104.51 309.82 105.71" style="fill:#a53a1e"/><polygon points="308.48 100.57 308.26 101.2 308.76 102.05 307.61 101.27 307.62 100 309.35 99.59 308.48 100.57" style="fill:#a53a1e"/><polygon points="306.82 100.91 306.67 101.55 307.18 102.18 306.1 101.75 306.32 100.77 307.26 100.14 306.82 100.91" style="fill:#a53a1e"/><polygon points="306.95 103.3 305.73 103.58 305.59 102.95 306.95 103.3" style="fill:#a53a1e"/><polygon points="306.7 110.06 305.69 111.88 303.74 112.3 303.68 111.81 305.33 111.53 306.42 109.56 306.7 110.06" style="fill:#a53a1e"/><polygon points="304.69 110.61 303.11 110.82 302.6 110.32 302.61 109.76 303.11 110.19 304.69 110.61" style="fill:#a53a1e"/><polygon points="306.86 108.72 307.87 107.67 307.5 108.8 306.86 108.72" style="fill:#a53a1e"/><polygon points="271.79 99.13 270.93 97.58 268.64 96.65 268.7 97.14 271.79 99.13" style="fill:#a53a1e"/><polygon points="270.87 96.45 270.73 95.39 271.96 93.43 272.17 94.06 270.87 96.45" style="fill:#a53a1e"/><polygon points="269.01 94.4 269 95.03 266.92 93.97 266.99 93.62 269.01 94.4" style="fill:#a53a1e"/><polygon points="270.39 91.45 269.95 92.44 269.59 92.22 269.96 90.75 270.39 91.45" style="fill:#a53a1e"/><polygon points="297.26 143.58 299.21 143.24 302.24 142.34 302.6 141.5 301.95 141.35 301.97 137.37 300.48 131.61 301.99 131.54 301.91 134.53 302.9 139.25 303.32 141.57 304.02 143.12 299.06 144.01 297.72 143.82 296.18 144.19 295.94 144.04 297.26 143.58" style="fill:#cc7e48"/><polygon points="303.46 142.63 306.62 143.56 309.28 144.48 312.08 145.34 312.94 145.84 313.67 145.79 314.12 146.15 314.88 147.37 314.49 147.37 313.54 146.62 310.76 145.48 307.31 144.71 304.15 143.1 303.59 143.2 303.46 142.63" style="fill:#cc7e48"/><polygon points="308.79 141.95 311.09 142.03 313.24 142.04 314.26 141.83 315.19 142.4 314.23 142.77 310.1 142.56 308.77 142.97 307.27 142.5 308.79 141.95" style="fill:#cc7e48"/><polygon points="334.63 78.55 335.47 78.52 337.14 78.84 337.29 79.13 336.66 79.11 335.68 78.79 333.91 78.69 331.89 78.72 330.27 78.86 330.07 78.76 330.07 78.44 332.37 78.49 334.63 78.55" style="fill:#b54823"/><g id="bQ77fw.tif"><path d="M188.36,184.59c.11,2.17-1.3,3.41-2.86,4.51a37.65,37.65,0,0,1-4.16,2.22,16.21,16.21,0,0,0-4.6,3.4c-.42.46-1,.89-.85,1.65a.93.93,0,0,0,1.12.88,16.66,16.66,0,0,0,5.29-1.58,9,9,0,0,1,2.46-1.08,1.32,1.32,0,0,1,1.43.62,1.16,1.16,0,0,1-.16,1.41,6,6,0,0,1-2.57,2,19.09,19.09,0,0,1-5.27,1.69,6.91,6.91,0,0,1-4.27-.44,3.55,3.55,0,0,1-1.55-4.29c1.16-2.9,3.51-4.62,6-6.27,1.71-1.15,3.69-1.82,5.41-2.94A4.53,4.53,0,0,0,185,185.3a.72.72,0,0,0-.17-1.14,4.66,4.66,0,0,0-4.73-.47,3.07,3.07,0,0,0-1.2,1.32,11,11,0,0,1-4.87,4.17,5.68,5.68,0,0,1-3.52.48,4.78,4.78,0,0,1-3.52-3.22,9.5,9.5,0,0,1-.45-4.58,13.15,13.15,0,0,0,0-2.43,8.67,8.67,0,0,0,3.13,0,29.8,29.8,0,0,0,.06,5.26c.3,1.79,1.54,2.41,3.16,1.57a8.48,8.48,0,0,0,3.38-3.08c1.81-2.84,4.26-3.47,7.54-2.84a5.82,5.82,0,0,1,2.64,1.19c-.1.08-.18.21-.05.28.69.39,1,1.16,1.68,1.58,0,.18.1.36.14.53A.52.52,0,0,0,188.36,184.59Z" style="fill:#efae92"/><path d="M169.68,179.42a8.67,8.67,0,0,1-3.13,0c-.29-.25-.2-.57-.21-.89-.06-1.79,0-3.61-.72-5.3a1.53,1.53,0,0,0-.63-.81c-.79-.4-1.27-1.28-2.23-1.42-.07,0-.12-.13-.18-.2a2.24,2.24,0,0,1,1.09.13.37.37,0,0,0,.53-.26,4.51,4.51,0,0,1,.87-1.4c.18-.2.16-.33-.07-.42a26.39,26.39,0,0,0-3.23-1.15c-.77-.2-1.56,0-2.32-.24a4.12,4.12,0,0,0-3.13.38c-.66.31-.65.92-.06,1.36.18.14.41.23.49.47a1.24,1.24,0,0,1-1.17-1c-.14-.56.27-.84.64-1.12a3.54,3.54,0,0,1,2.72-.49,16.49,16.49,0,0,1,5.35,1c.75.35,1.55.49,2.29.79a5.33,5.33,0,0,1,3,3.33,15,15,0,0,1,.66,5.12A3.9,3.9,0,0,1,169.68,179.42Z" style="fill:#f3c7ad"/><path d="M156.75,169.68c-.08-.24-.31-.33-.49-.47-.59-.44-.6-1.05.06-1.36a4.12,4.12,0,0,1,3.13-.38c.76.26,1.55,0,2.32.24a26.39,26.39,0,0,1,3.23,1.15c.23.09.25.22.07.42a4.51,4.51,0,0,0-.87,1.4.37.37,0,0,1-.53.26,2.24,2.24,0,0,0-1.09-.13l-.56-.1a.24.24,0,0,0-.35-.14l-.82-.07c-1.26-.4-2.59-.43-3.86-.79Z" style="fill:#efae92"/><path d="M157,169.71c1.27.36,2.6.39,3.86.79a11.58,11.58,0,0,1-3.51-.48A.57.57,0,0,1,157,169.71Z" style="fill:#f3c7ad"/><path d="M188.09,183.38c-.66-.42-1-1.19-1.68-1.58-.13-.07,0-.2.05-.28A2.74,2.74,0,0,1,188.09,183.38Z" style="fill:#f3c7ad"/><path d="M188.36,184.59a.52.52,0,0,1-.13-.68A.45.45,0,0,1,188.36,184.59Z" style="fill:#f3c7ad"/><path d="M161.67,170.57a.24.24,0,0,1,.35.14C161.85,170.79,161.75,170.71,161.67,170.57Z" style="fill:#f3c7ad"/></g><path d="M111.94,299.82a14.29,14.29,0,0,0,5.92,15c.72.47,1.56,1,1.62,1.86s-.64,1.45-1.14,2.1-.74,1.75,0,2.16,1.48-.3,1.69-1,.08-1.52.29-2.25,1.06-1.21,1.44-.67a1,1,0,0,1,.14.6,6.1,6.1,0,0,0,.11,2.05,1.36,1.36,0,0,0,1.57,1,1.46,1.46,0,0,0,.63-1.87c-.23-.69-.73-1.27-1-2a1.09,1.09,0,0,1,0-.95c.34-.54,1.19-.34,1.69.05s1,.92,1.64.88a1.55,1.55,0,0,0-.35-2.31,3.79,3.79,0,0,0-2.6-.41,7.28,7.28,0,0,1-2.67.06c-2-.51-2.74-3.37-3.06-5.41-.4-2.64.54-5.68,1-8.3" style="fill:#837e35"/><path d="M126.13,289.6a16.53,16.53,0,0,0-2.2-1.81,2.81,2.81,0,0,0-.08-1.26c-.56-2.44-2.35-4.54-4.88-4.55a6.91,6.91,0,0,0-5.36,2.59,18.05,18.05,0,0,0-8,1.73c-.36.17-.94,0-1.21.3-1.07,1.14-3.88,2.46-6,3.37A54.05,54.05,0,0,0,82,300.87c-2.74,2.66-6.67,8.31-5.84,12,.78,3.46,4.83,5.12,8.07,5.39,4.75.38,10.46.54,15-.78l-.25.27a26.48,26.48,0,0,0,10.21-2.38,15.48,15.48,0,0,0,5.06-3.45c2-2.22,3.09-5.18,3.87-8.11h0a6.36,6.36,0,0,1,.43-1.2c.29-.6.61-1.19,1-1.77a6.44,6.44,0,0,1,3.06-2.63,17.11,17.11,0,0,0,3.84-2.27,4.42,4.42,0,0,0,1.41-1.6C128.57,292.73,127.41,290.86,126.13,289.6Z" style="fill:#969344"/><path d="M114.54,283.63l0,0,7,2.8L116,282.67A7.07,7.07,0,0,0,114.54,283.63Z" style="fill:#837e35"/><path d="M122.58,298.25a17.11,17.11,0,0,0,3.84-2.27,4.42,4.42,0,0,0,1.41-1.6,4.35,4.35,0,0,0,.23-.78,2.09,2.09,0,0,1-.9.46c-3.33.79-7.45,1.85-10.07,4.44-1.85,1.83-3,4.22-4.33,6.45a39.89,39.89,0,0,1-12.25,12.75,26.8,26.8,0,0,0,8.7-2.29,15.48,15.48,0,0,0,5.06-3.45c2-2.22,3.09-5.18,3.87-8.11h0a6.36,6.36,0,0,1,.43-1.2c.29-.6.61-1.19,1-1.77A6.44,6.44,0,0,1,122.58,298.25Z" style="fill:#c4ba5b"/><path d="M118.39,287.82c1.53,3.12-3.53,6.93-7,6.91s-10.1-5.3-7.55-7.66c2.75-2.54,4.14-4.93,7.61-4.91S116.48,284,118.39,287.82Z" style="fill:#969344"/><path d="M106.62,296.7a6,6,0,0,0,4.84,2.67c1.88,0,3.59-1,5.31-2a31.44,31.44,0,0,1,5.51-2.48,23,23,0,0,1,3-.69l1.49-.18a2.14,2.14,0,0,0,1.34-.49,2,2,0,0,1-1.29.75l-1.44.4c-.94.27-1.88.61-2.79.95s-1.79.77-2.67,1.22-1.76.9-2.61,1.39a23.15,23.15,0,0,1-2.73,1.36,7.1,7.1,0,0,1-3.1.53A5.72,5.72,0,0,1,106.62,296.7Z" style="fill:#837e35"/><path d="M113.17,302.28a20,20,0,0,0-.34,11,11.2,11.2,0,0,0,1.44-1.31l.28-.32A36.71,36.71,0,0,1,113.17,302.28Z" style="fill:#837e35"/><path d="M111.58,314.15a62.39,62.39,0,0,1-4.73-13.24,24.31,24.31,0,0,0,2.68,14.35A20.28,20.28,0,0,0,111.58,314.15Z" style="fill:#837e35"/><path d="M106.91,299.19c-1.19,6.25,1.37,14.08,6.63,17.72.79.54,1.72,1.17,1.76,2.12s-.76,1.6-1.34,2.31-.89,1.93-.11,2.41,1.66-.29,1.92-1.09.14-1.7.4-2.51,1.22-1.31,1.63-.7a1.17,1.17,0,0,1,.13.67,7.09,7.09,0,0,0,.06,2.3,1.52,1.52,0,0,0,1.72,1.16c.78-.24,1-1.28.76-2.06s-.77-1.45-1-2.22a1.25,1.25,0,0,1,.06-1.07c.39-.59,1.33-.33,1.88.11s1.09,1.06,1.8,1a1.74,1.74,0,0,0-.32-2.59,4.19,4.19,0,0,0-2.88-.54,8.34,8.34,0,0,1-3,0c-2.22-.63-3.12-3.27-3.41-5.55-.37-2.95-.68-6.66.92-8.9" style="fill:#969344"/><path d="M102.62,304.38a3.12,3.12,0,0,0-2.11,0,11.47,11.47,0,0,0-1.17.68c-1.67.92-3.71.39-5.58,0a17.25,17.25,0,0,0-10.11.71c-3.14,1.36-6.31,3.7-5.51,7,1.09,4.61,7.7,2.78,5.7,3.89a8.8,8.8,0,0,0-1.76,1.25,12.69,12.69,0,0,0,2.13.37c4.75.38,10.46.54,15-.78l-.25.27a26.23,26.23,0,0,0,4.14-.46q.49-.76,1-1.56c1.49-2.55,2.85-5.62,1.75-8.37A5.3,5.3,0,0,0,102.62,304.38Z" style="fill:#837e35"/><path d="M102.09,316a9.11,9.11,0,0,0,3.39-6.85,5.06,5.06,0,0,0-.56-2.16c-1.59-3.07-5.29-3.6-8.79-3.57a32.46,32.46,0,0,0-8.92,1.31A14,14,0,0,0,80,309.07a6.17,6.17,0,0,0-1,2.7,3.23,3.23,0,0,0,1.48,2.57,10.81,10.81,0,0,0,7.94.58c-2.27,1.54-4,1.89-5.63,4.05a1,1,0,0,0,0,1.4c1.58,1.6,4,.8,6.3,1.25,1,.19,1.72.26,2.51.43,1.5.32,3.11,1,3.7,2.44.41,1,.19,2.15.89,3.06a1.25,1.25,0,0,0,1.24.52c1-.23,1-1.57.5-2.38-.32-.52-.77-1-1.09-1.5a.72.72,0,0,1,.53-1.08,1.84,1.84,0,0,1,1.6.6c.51.59.71,1.56,1.46,1.74a1.05,1.05,0,0,0,1.31-1.3c-.18-1.09-1.08-1.59-2-1.92a.42.42,0,0,1,0-.78,1.64,1.64,0,0,1,1.25.05,11,11,0,0,0,1.39.67.74.74,0,0,0,1-.79,1.92,1.92,0,0,0-.9-1.29,5.3,5.3,0,0,0-3.12-.43,38.39,38.39,0,0,1-9,.23c.8-.09,2.1-.29,2.9-.45C96.55,318.78,99.45,318.28,102.09,316Z" style="fill:#969344"/><path d="M125.08,291.9c.24.47.26.94,0,1.05s-.57-.2-.8-.67-.26-.94,0-1S124.84,291.43,125.08,291.9Z" style="fill:#837e35"/><circle cx="110.81" cy="288.47" r="4.72" transform="translate(-195.66 328.1) rotate(-76.36)" style="fill:#837e35"/><circle cx="111.41" cy="288.45" r="4.49" transform="translate(-195.17 328.7) rotate(-76.36)" style="fill:#fff"/><path d="M112.89,288.44c0,1.52-.67,2.75-1.49,2.75s-1.47-1.24-1.46-2.76.67-2.75,1.49-2.75S112.9,286.92,112.89,288.44Z" style="fill:#444"/><path d="M88.73,297.64c.24.34-.33,1.14-1.27,1.78s-1.88.88-2.12.54.34-1.13,1.28-1.77S88.5,297.3,88.73,297.64Z" style="fill:#837e35"/><path d="M91.74,295c.12.21-.25.65-.83,1s-1.14.42-1.26.21.25-.64.83-1S91.62,294.8,91.74,295Z" style="fill:#837e35"/><path d="M100.07,291.17c.18.38-.52,1.06-1.55,1.54s-2,.55-2.18.17.53-1.06,1.56-1.53S99.9,290.8,100.07,291.17Z" style="fill:#837e35"/><path d="M101.84,289.59c.06.12-.15.34-.46.49s-.62.19-.67.08.15-.33.46-.49S101.79,289.48,101.84,289.59Z" style="fill:#837e35"/><path d="M91.08,297.3c.06.11-.13.34-.44.51s-.6.23-.66.12.13-.34.43-.52S91,297.19,91.08,297.3Z" style="fill:#837e35"/><path d="M95.35,292.64c.06.12-.15.34-.47.49s-.62.18-.67.07.15-.33.47-.49S95.3,292.53,95.35,292.64Z" style="fill:#837e35"/><path d="M95.35,294.34c.14.26-.33.77-1,1.13s-1.4.45-1.53.19.34-.76,1-1.13S95.22,294.08,95.35,294.34Z" style="fill:#837e35"/><path d="M97.91,293.71c0,.08-.1.22-.3.33s-.41.12-.45,0,.1-.22.31-.33S97.88,293.63,97.91,293.71Z" style="fill:#837e35"/><path d="M84.26,300.36c.07.1-.08.33-.34.53s-.53.28-.6.18.08-.33.34-.52S84.19,300.27,84.26,300.36Z" style="fill:#837e35"/></g></g></g></svg>