<svg xmlns="http://www.w3.org/2000/svg" viewBox="0 0 173.38 127.47"><defs><style>.cls-1{isolation:isolate;}.cls-2{fill:#d8650f;}.cls-3,.cls-4{fill:#d6c9c3;}.cls-4,.cls-8{mix-blend-mode:multiply;}.cls-5{fill:#66524a;}.cls-6{fill:#44352e;}.cls-7{fill:#ff7e27;}.cls-8{fill:#939598;}</style></defs><title>Asset 19</title><g class="cls-1"><g id="Layer_2" data-name="Layer 2"><g id="likos"><path class="cls-2" d="M123.44,49.53l10.27,6.53,4,4.43.93,1.4,4.2,2.81,1.4,1.39,2.1,1.87s7.7,7.24,7.93,7.93a1.08,1.08,0,0,1-.46,1.17s3,2.8,3.73,3.5,5.6,7,5.6,7l5.83,8.17,3.51,8.87.93,11-.93,2.56s-5.37-.7-6.07-1.17-10.5-2.1-10.5-2.1l-7.7-6.06s-9.34-10-9.57-10.73-4-4.2-4.2-4.9-2.57-2.1-2.57-3-.46-8.4-.46-8.4l-2.1-7.47S126,68.66,126,67.73,123.44,49.53,123.44,49.53Z"/><path class="cls-3" d="M156.81,111.83l-1.4-2.1,4.67-.93,2.79-5.13,3.74.23,3.27,1.63,2-2.5.62,1.57.93,11-.93,2.56s-5.37-.7-6.07-1.17-10.5-2.1-10.5-2.1l-2-1.57Z"/><path class="cls-4" d="M125.55,64.12l4.66,1.51,4,14.46,5.14,8.41,8.17,9.8,7,7.23,5.6,3.27,5.37,3.27,7.69.76.24,2.74-.93,2.56s-5.37-.7-6.07-1.17-10.5-2.1-10.5-2.1l-7.7-6.06s-9.34-10-9.57-10.73-4-4.2-4.2-4.9-2.57-2.1-2.57-3-.46-8.4-.46-8.4l-2.1-7.47S126,68.66,126,67.73C126,67.48,125.82,66.06,125.55,64.12Z"/><path class="cls-5" d="M27.77,10c-.18-.53-3.5-6.65-3.5-6.65l-2.63-.88-.52,1.93L21,7.7l-.18,4.55Z"/><polygon class="cls-2" points="92.64 77.76 92.17 87.8 94.97 95.03 99.41 99.93 103.37 103.2 104.07 105.76 103.37 110.43 100.34 116.97 99.41 117.9 96.84 118.6 94.5 121.4 94.97 123.27 101.04 123.27 105.01 123.03 105.47 119.77 106.64 118.36 106.87 116.03 109.44 111.13 113.17 104.36 112.24 101.1 108.27 99 105.7 90.13 103.37 73.33 92.64 77.76"/><polygon class="cls-6" points="99.41 117.9 100.34 116.97 103.37 110.43 104.07 105.76 103.62 104.11 105.24 103.43 107.34 104.83 110.61 104.13 112.96 103.63 113.17 104.36 109.44 111.13 106.87 116.03 106.64 118.36 105.47 119.77 105.01 123.03 101.04 123.27 94.97 123.27 94.5 121.4 96.84 118.6 99.41 117.9"/><polygon class="cls-2" points="39.2 75.89 40.37 90.36 41.3 101.1 41.53 106.93 39.9 113 36.87 114.17 34.77 116.73 35 119.06 41.07 118.83 44.1 115.8 46.9 105.07 46.9 78.23 39.2 75.89"/><polygon class="cls-5" points="34.77 116.73 36.87 114.17 39.9 113 41.53 106.93 41.3 101.1 40.37 90.36 40.04 86.33 43.87 85.23 46.9 87.35 46.9 105.07 44.1 115.8 41.07 118.83 35 119.06 34.77 116.73"/><path class="cls-2" d="M0,28.29,1.4,32.5l3.73,2.8,7.47-.71h5.84l4.43,3.51,4.9,15.39,3.5,13.07,4.66,7.7L41.3,80.8l3,2.1.93,17.5.47,11.2.46,3L44.57,120l-3,.7-2.1,4,1.17.93,9.1-.93L52,115.8l.41-5.37.52-5.25,1.63-4.78,2.34-18.2,3-2.34,7,1.64,12.6-.23,16.1-2.34,4.44,6.53,2.56,6.77,6.07,5.37,10.5,5.36,2.8,2.57L120.41,120l-2.8.93L115,123l-.7,4.2,2.33.24h5.84l3.73-3.27,1.63-1.4.47-8.87,3.5-12.36-5.6-7-.7-6.3,3.27-11.19,2.8-10.74s-1.64-8.4-1.87-9.1-6.07-8.87-6.07-8.87L111.07,43,89.14,41.13,70.47,39.26,65.8,36.69l-7-.7-3.73-1.63L49,25.26l-9.33-11.9L31.5,8.93l-8.4.7L14,16.39l-2.1,4-3.5,3Z"/><polygon class="cls-6" points="41.53 120.7 44.57 120 46.2 114.63 45.74 111.6 45.27 100.4 44.46 85.29 47.6 84.53 48.54 82.43 53.91 80.56 56.74 83.72 54.6 100.4 52.97 105.18 52.45 110.43 52.04 115.8 49.7 124.67 40.6 125.6 39.43 124.67 41.53 120.7"/><polygon class="cls-6" points="108.74 97.6 107.34 96.36 109.44 96.43 120.17 98.3 124.84 97.37 126.19 94.06 126.24 94.56 131.84 101.57 128.34 113.93 127.88 122.8 126.24 124.2 122.51 127.47 116.67 127.47 114.34 127.23 115.04 123.03 117.61 120.93 120.41 120 122.04 105.53 119.24 102.96 108.74 97.6"/><polygon class="cls-3" points="56.24 78 57.4 75.89 68.84 77.06 82.37 77.06 92.64 76.36 96.37 76.13 95.67 78.93 79.57 81.27 66.97 81.5 59.97 79.86 57.72 81.59 56.24 78"/><polygon class="cls-3" points="6.3 29.93 11.66 27.36 15.87 25.49 22.16 26.43 30.1 29.69 35.24 31.32 36.4 34.13 35 40.43 33.84 52.56 35 61.2 40.37 72.16 42.7 78.23 43.03 81.99 41.3 80.8 35.93 74.26 31.27 66.56 27.77 53.49 22.87 38.1 18.43 34.59 12.6 34.59 5.13 35.3 1.4 32.5 0.93 31.08 6.3 29.93"/><polygon class="cls-4" points="48.54 122.33 50.17 114.63 50.4 105.76 52.27 98.76 52.27 79.16 51.34 73.8 55.54 71 71.17 74.26 87.51 73.33 99.17 68.89 102.2 70.29 100.57 75.66 106.87 88.73 116.21 97.13 123.91 105.07 122.27 115.57 120.76 116.84 122.04 105.53 119.24 102.96 108.74 97.6 102.67 92.23 100.11 85.46 95.67 78.93 79.57 81.27 66.97 81.5 59.97 79.86 56.94 82.2 54.6 100.4 52.97 105.18 52.45 110.43 52.04 115.8 49.7 124.67 47.98 124.84 48.54 122.33"/><path class="cls-7" d="M28.7,11.26l-4.2-.7s-.44-.41-1-1l8-.66,8.17,4.43L49,25.26l6.07,9.1L58.8,36l7,.7,4.67,2.57,18.67,1.87L111.07,43l9.37,4L115,46.5,95,43.46l-18.43-.93-8.4,1.16-8.87-1.16L53.67,40l-3.74-6.53s-8.63-11.9-8.86-12.6-5.6-7.24-5.6-7.24Z"/><polygon class="cls-5" points="17.09 19.58 13.33 21.56 10.88 22.95 12.37 21.31 15.61 19.25 17.09 19.58"/><polygon class="cls-7" points="31.27 0 33.9 1.23 38.27 12.43 37.39 14.53 31.97 18.03 30.92 15.75 28.99 13.65 27.25 13.48 27.42 8.57 31.27 0"/><polygon class="cls-2" points="32.14 2.27 30.87 0.89 31.27 0 33.9 1.23 38.27 12.43 37.39 14.53 31.97 18.03 31.41 16.8 32.14 12.6 32.14 6.65 32.14 2.27"/><polygon class="cls-4" points="28.65 9.98 28.82 7 30.92 3.33 31.1 5.95 30.92 10.85 30.35 15.13 28.99 13.65 28.39 13.59 28.3 13.3 28.65 9.98"/><polygon class="cls-6" points="31.27 0 33.9 1.23 36.49 7.88 34.07 6.83 32.14 7.55 32.14 6.65 32.14 2.27 30.87 0.89 31.27 0"/><polygon class="cls-5" points="3.05 33.73 5.02 33.51 8.17 32.99 13.07 31.59 17.62 32.03 17.62 32.55 15.17 32.38 12.89 32.29 9.22 33.25 6.07 34.04 3.94 34.4 3.05 33.73"/><polygon class="cls-5" points="1.69 29.93 0.97 31.21 0 28.3 0.98 27.72 2.39 28 2.39 29.05 1.25 29.23 1.25 29.93 1.69 29.93"/><polygon class="cls-6" points="15.08 18.29 15.26 18.91 15.08 19.78 14.55 20.39 16.48 20.13 18.23 20.04 16.91 18.99 15.08 18.29"/><path class="cls-8" d="M171.83,103h0l-2.88-7.3-5.83-8.17s-4.9-6.3-5.6-7-3.73-3.5-3.73-3.5a1.08,1.08,0,0,0,.46-1.17C154,75.2,146.31,68,146.31,68l-2.1-1.87-1.4-1.39-4.2-2.81-.93-1.4-4-4.43-8.34-5.3-1.7-2.4L120.43,47h0l-9.37-4L89.14,41.13,70.47,39.26,65.8,36.69l-7-.7-3.73-1.63L49,25.26l-9.33-11.9-1.46-.79.06-.14L33.9,1.23,31.27,0l-.4.89h0L27.42,8.58l0,.62c-.91-1.78-3.13-5.87-3.13-5.87l-2.63-.88-.52,1.93L21,7.7l-.14,3.63L14,16.39l-2.1,4-3.5,3L1,27.72H1l-1,.57.93,2.79h0L1.4,32.5l1.85,1.39.69.51h0l1.19.9,7.47-.71h5.84l4.43,3.51,4.9,15.39,3.5,13.07,4.66,7.7,3.48,4.24L40,86.32h0l.33,4,.93,10.74.23,5.83L39.9,113l-3,1.17-2.1,2.56.23,2.33,6.07-.23,3-3,1.56-6,.08,1.78.46,3L44.57,120l-3,.7-2.1,4,1.17.93,7.38-.76h0l1.72-.17L52,115.8l.41-5.37.52-5.25,1.63-4.78,2.14-16.68h0l.2-1.52,3-2.34,7,1.64,12.6-.23,13-1.89-.39,8.42L95,95l4.44,4.9,4,3.27.7,2.56-.7,4.67-3,6.53-.93.94-2.57.7-2.33,2.8.46,1.86H101l4-.23.46-3.26,1.17-1.4.23-2.34,2.57-4.9,3.73-6.77-.21-.73h0l-.72-2.53-4-2.1-.7-2.44,1.17,1,10.5,5.36,2.8,2.57-1.28,11.31h0l-.35,3.16-2.8.93L115,123l-.7,4.2,2.33.24h5.84l3.73-3.27,1.63-1.4.47-8.87,3.5-12.36-5.6-7-.7-6.3,3.27-11.19.6-2.32,2,7s.46,7.47.46,8.4,2.33,2.33,2.57,3,4,4.19,4.2,4.9,9.57,10.73,9.57,10.73l7.7,6.06s9.8,1.64,10.5,2.1,6.07,1.17,6.07,1.17l.93-2.56-.93-11Z"/></g></g></g></svg>