<svg xmlns="http://www.w3.org/2000/svg" viewBox="0 0 51.95 46.22"><defs><style>.cls-1{fill:#837e35;}.cls-2{fill:#969344;}.cls-3{fill:#c4ba5b;}.cls-4{fill:#fff;}.cls-5{fill:#444;}</style></defs><title>Asset 6</title><g id="Layer_2" data-name="Layer 2"><g id="vatraxos"><path class="cls-1" d="M16.09,17.87a14.31,14.31,0,0,1-6,15c-.72.46-1.57,1-1.64,1.85s.64,1.45,1.13,2.1.74,1.76,0,2.16-1.48-.3-1.69-1-.07-1.52-.28-2.25-1-1.22-1.44-.68a1,1,0,0,0-.13.59A6.73,6.73,0,0,1,6,37.65a1.37,1.37,0,0,1-1.58,1,1.46,1.46,0,0,1-.61-1.87c.23-.69.73-1.27,1-2a1.13,1.13,0,0,0,0-1c-.34-.54-1.19-.34-1.69,0s-1,.92-1.65.88a1.56,1.56,0,0,1,.36-2.31,3.75,3.75,0,0,1,2.6-.4A7.57,7.57,0,0,0,7,32.15c2-.51,2.76-3.37,3.08-5.41.42-2.63-.51-5.67-.93-8.3"/><path class="cls-2" d="M2,7.59a15.72,15.72,0,0,1,2.2-1.8,2.69,2.69,0,0,1,.09-1.26C4.82,2.09,6.62,0,9.15,0a6.87,6.87,0,0,1,5.34,2.62,18.05,18.05,0,0,1,8,1.76c.36.18.94,0,1.21.31,1.06,1.15,3.86,2.48,6,3.4a54,54,0,0,1,16.37,11c2.73,2.67,6.63,8.34,5.78,12.06-.8,3.46-4.85,5.1-8.09,5.35-4.75.37-10.46.49-15-.85l.25.28a26.86,26.86,0,0,1-10.2-2.43,15.37,15.37,0,0,1-5-3.48c-2-2.23-3.07-5.2-3.83-8.12h0a6.62,6.62,0,0,0-.43-1.2c-.29-.6-.6-1.19-.94-1.77a6.34,6.34,0,0,0-3-2.64A17.21,17.21,0,0,1,1.64,14,4.44,4.44,0,0,1,.23,12.36C-.5,10.71.66,8.85,2,7.59Z"/><path class="cls-1" d="M13.57,1.67l0,0-7,2.77L12.11.7A7,7,0,0,1,13.57,1.67Z"/><path class="cls-3" d="M5.46,16.25A16.8,16.8,0,0,1,1.64,14,4.44,4.44,0,0,1,.23,12.36,6.21,6.21,0,0,1,0,11.58,2.15,2.15,0,0,0,.9,12c3.33.81,7.44,1.88,10,4.49,1.84,1.84,3,4.24,4.3,6.47A40,40,0,0,0,27.44,35.81a26.73,26.73,0,0,1-8.69-2.33,15.37,15.37,0,0,1-5-3.48c-2-2.23-3.07-5.2-3.83-8.12h0a6.62,6.62,0,0,0-.43-1.2c-.29-.6-.6-1.19-.94-1.77A6.41,6.41,0,0,0,5.46,16.25Z"/><path class="cls-2" d="M9.71,5.85c-1.56,3.1,3.49,6.94,7,6.94s10.13-5.26,7.6-7.63C21.53,2.61,20.15.22,16.67.22S11.63,2,9.71,5.85Z"/><path class="cls-1" d="M21.43,14.78a5.71,5.71,0,0,1-4.82,3.43,7.21,7.21,0,0,1-3.1-.55,23,23,0,0,1-2.72-1.37c-.85-.5-1.72-.94-2.61-1.4S6.42,14,5.52,13.65s-1.85-.69-2.79-1l-1.44-.41A2,2,0,0,1,0,11.53,2.14,2.14,0,0,0,1.34,12l1.49.19a23,23,0,0,1,3,.71,31,31,0,0,1,5.5,2.5c1.71,1,3.42,2,5.29,2A6,6,0,0,0,21.43,14.78Z"/><path class="cls-1" d="M14.86,20.33a20.12,20.12,0,0,1,.28,11A12,12,0,0,1,13.71,30c-.1-.1-.19-.21-.28-.32A37.12,37.12,0,0,0,14.86,20.33Z"/><path class="cls-1" d="M16.39,32.2A61.93,61.93,0,0,0,21.18,19a24.23,24.23,0,0,1-2.75,14.34A20.3,20.3,0,0,1,16.39,32.2Z"/><path class="cls-2" d="M21.12,17.27c1.17,6.25-1.43,14.07-6.71,17.69-.79.54-1.72,1.16-1.76,2.11s.75,1.6,1.33,2.32.87,1.93.09,2.4-1.66-.29-1.91-1.1S12,39,11.77,38.19s-1.21-1.32-1.63-.71a1.26,1.26,0,0,0-.13.67,7,7,0,0,1-.07,2.29A1.53,1.53,0,0,1,8.21,41.6c-.78-.25-1-1.29-.75-2.07s.78-1.44,1-2.21a1.25,1.25,0,0,0-.05-1.07c-.39-.59-1.33-.34-1.88.1s-1.1,1-1.81,1a1.74,1.74,0,0,1,.33-2.59A4.22,4.22,0,0,1,8,34.27a8.34,8.34,0,0,0,3,0c2.22-.62,3.14-3.25,3.43-5.54.39-2.95.71-6.65-.87-8.89"/><path class="cls-1" d="M25.4,22.48a3.12,3.12,0,0,1,2.11,0,11.33,11.33,0,0,1,1.16.68c1.66.93,3.71.41,5.58.05a17.21,17.21,0,0,1,10.1.76c3.14,1.37,6.3,3.72,5.49,7.05-1.12,4.61-7.72,2.74-5.73,3.86a8.81,8.81,0,0,1,1.76,1.27,12.6,12.6,0,0,1-2.13.35c-4.75.37-10.46.49-15-.85l.25.28a26,26,0,0,1-4.13-.48c-.34-.52-.65-1-1-1.57-1.48-2.56-2.83-5.64-1.71-8.37A5.27,5.27,0,0,1,25.4,22.48Z"/><path class="cls-2" d="M25.87,34.08a9.08,9.08,0,0,1-3.35-6.87,5,5,0,0,1,.56-2.16c1.6-3.06,5.31-3.56,8.81-3.52a32.07,32.07,0,0,1,8.91,1.36A14,14,0,0,1,48,27.27,6.16,6.16,0,0,1,49,30a3.22,3.22,0,0,1-1.49,2.56,10.8,10.8,0,0,1-7.94.54c2.25,1.56,3.93,1.91,5.61,4.08a1.06,1.06,0,0,1,0,1.4c-1.59,1.59-4,.78-6.3,1.22-1,.18-1.73.25-2.52.42-1.5.31-3.11,1-3.71,2.42-.42,1-.2,2.15-.9,3.06a1.25,1.25,0,0,1-1.25.51c-1-.23-1-1.57-.49-2.38.32-.52.78-1,1.1-1.49a.72.72,0,0,0-.53-1.09,1.82,1.82,0,0,0-1.6.6c-.51.59-.71,1.55-1.47,1.73a1.06,1.06,0,0,1-1.3-1.31c.18-1.09,1.08-1.58,2-1.91a.42.42,0,0,0,0-.78,1.69,1.69,0,0,0-1.25,0,10.4,10.4,0,0,1-1.39.67.73.73,0,0,1-.94-.8,1.89,1.89,0,0,1,.9-1.28,5.31,5.31,0,0,1,3.12-.42,39,39,0,0,0,9,.28c-.8-.1-2.1-.31-2.89-.47C31.4,36.91,28.49,36.39,25.87,34.08Z"/><path class="cls-1" d="M3,9.89c-.24.48-.26.94-.05,1s.56-.2.8-.67.27-.94.06-1S3.23,9.42,3,9.89Z"/><circle class="cls-1" cx="17.28" cy="6.53" r="4.72" transform="translate(-1.04 4.17) rotate(-13.37)"/><circle class="cls-4" cx="16.67" cy="6.5" r="4.49" transform="translate(-1.05 4.03) rotate(-13.37)"/><path class="cls-5" d="M15.2,6.49c0,1.52.66,2.75,1.47,2.75S18.15,8,18.15,6.49s-.66-2.75-1.48-2.75S15.2,5,15.2,6.49Z"/><path class="cls-1" d="M39.31,15.81c-.23.34.33,1.13,1.27,1.78s1.88.89,2.11.55-.33-1.14-1.26-1.78S39.55,15.47,39.31,15.81Z"/><path class="cls-1" d="M36.31,13.16c-.12.21.25.65.83,1s1.14.43,1.26.22-.25-.65-.82-1S36.44,13,36.31,13.16Z"/><path class="cls-1" d="M28,9.28c-.17.38.52,1.07,1.55,1.54s2,.56,2.18.19S31.21,10,30.18,9.47,28.18,8.91,28,9.28Z"/><path class="cls-1" d="M26.24,7.7c-.06.11.15.33.46.49s.62.19.68.08-.15-.34-.47-.5S26.3,7.58,26.24,7.7Z"/><path class="cls-1" d="M37,15.45c-.07.11.13.34.43.52s.6.23.67.12-.13-.35-.44-.52S37,15.34,37,15.45Z"/><path class="cls-1" d="M32.72,10.78c-.06.11.15.33.47.48s.61.19.67.07-.16-.33-.47-.48S32.77,10.66,32.72,10.78Z"/><path class="cls-1" d="M32.71,12.48c-.14.26.33.76,1,1.13s1.4.46,1.53.2-.33-.77-1-1.14S32.84,12.22,32.71,12.48Z"/><path class="cls-1" d="M30.15,11.83c0,.08.1.22.31.33s.4.13.44.05-.1-.22-.3-.33S30.19,11.75,30.15,11.83Z"/><path class="cls-1" d="M43.77,18.55c-.07.09.08.33.34.52s.53.29.6.19-.08-.33-.34-.53S43.84,18.45,43.77,18.55Z"/></g></g></svg>