<svg xmlns="http://www.w3.org/2000/svg" viewBox="0 0 141 119.99"><defs><style>.cls-1{isolation:isolate;}.cls-2{fill:#d8b28d;}.cls-3{fill:#ad7e5a;}.cls-4{fill:#774c40;}.cls-5{fill:#a87752;}.cls-6{fill:#8c5835;}.cls-7{fill:#774828;}.cls-8{fill:#939598;mix-blend-mode:multiply;}</style></defs><title>Asset 18</title><g class="cls-1"><g id="Layer_2" data-name="Layer 2"><g id="likos"><path class="cls-2" d="M33.2,4.66,30,4.1l-2.8-2.37L25.11,0,16.64,2.58,11.42,7.75,8.87,12.13l2.36,2.62L2.56,24.12l-2.33,2-.23,2,.55,2.54L.64,33l2,1.12L4.7,36.75l3.72-1,4-2.86,3,.34,3.92.15,1.31,6.72,3.1,2.44.19,4.81,2.62,1.56,1.68,4.59,4.51,0,1.38,8.38,3.81,1.36,1.37,4.31s2.38,7.29,2.4,7.74,7,9.81,7,9.81l5.56,3.71.57,3,1.25,1.16.61,8.1-1,5.91-2.13,3.39-3.79,3.16,0,3,4.38.29,3.75-.3,1.36-3.82-.07-1.8,4.31-1.67-.69-2.23.34-2.72,1.16-13,7-3,.16-3.76,1-2.3,9.34.4,16,1.94,8.93-2.6,5.81,2.34,7.25,4.39,2.6,5,2.4,3.67-.26,5.28-1.58,5.77-2.51,1.15-1.73,2.18-1.93.52-3.25,5.84.77.43,2-.08-.41,1.22,3,.34,7.34-1,1.08-3.2-.2-1.34,3.27-1-.31-4.21,1.3-5.31,2.79-9.59-.85-2.53,3.42-9,2.1-16,2.13-15-.7-10.51L141,35l-1.42-5.67L134,25.64l-3.47-4.09-15-2.44-12.4-1.33L85.4,17.56l-13.58-.68L58,18l-6-3.09-3.16-3.79L39.87,8,42.6,4.6,42.9.67l-2.39.4Z"/><polygon class="cls-3" points="133.92 94.87 131.43 95.57 128.2 105.48 127.64 110.77 128.15 114.05 130.31 113.38 130 109.17 131.3 103.86 133.92 94.87"/><polygon class="cls-3" points="64.28 91.22 66.52 90.26 64.62 88.2 62.59 90.23 60.67 99.03 61.48 104.57 61.16 108.05 60.31 109.43 60.3 110.39 63.47 109.16 62.78 106.94 63.12 104.21 64.28 91.22"/><polygon class="cls-3" points="125.58 115.82 121.71 112.95 118.91 111.39 118.65 111.72 116.72 112.24 113.47 118.08 114.25 118.51 116.2 118.43 115.8 119.65 118.82 119.99 126.16 118.95 126.95 116.61 125.58 115.82"/><polygon class="cls-3" points="55.76 112.32 52.52 111.17 49.78 113.45 49.74 116.46 54.12 116.75 57.88 116.45 59.08 113.06 55.76 112.32"/><polygon class="cls-4" points="126.46 118.07 122.09 117.98 117.46 118.05 119.65 113.22 119.41 112.89 116.29 116.85 114.2 116.78 113.47 118.08 114.25 118.51 116.2 118.43 115.8 119.65 118.82 119.99 126.16 118.95 126.46 118.07"/><polygon class="cls-4" points="57.88 116.45 58.12 115.75 56.19 115.76 52.68 115.56 54.96 112.03 53.72 111.59 51.71 113.68 51.09 115.28 49.76 115.38 49.74 116.46 54.12 116.75 57.88 116.45"/><path class="cls-5" d="M141,35l-1.42-5.67L134,25.64l-3.47-4.09-15-2.44-12.4-1.33L85.4,17.56l-13.58-.68L58,18l-6-3.09-3.16-3.79L39.87,8,42.6,4.6,42.9.67l-2.39.4L33.2,4.66,30,4.1l-2.8-2.37L25.11,0,16.64,2.58,11.42,7.75l-.9,1.53h0L8.87,12.13l1.59,1.77,1.39-2.43.59-.6,3.93-3.54,6.88-3,3.22,1.46L29,8.2l1.05,3.58-1.62,5s-1.81,5.94-1.77,6.84-.06,4.3-.06,4.3l-5.79,2-2.32,3.34.79,0,1.31,6.72,3.1,2.44.19,4.81,2.62,1.56,1.68,4.59,4.51,0,1.38,8.38,3.81,1.36,1.37,4.31s2.38,7.29,2.4,7.74,7,9.81,7,9.81l5.56,3.71.57,3L56,92.81h4.3l3.91-.52.09-1.06,7-3,.16-3.76,1-2.3,9.34.4,16,1.94,8.93-2.6,5.81,2.34,7.25,4.39,2.6,5,2.27,3.48,6.06,0,2.9-1,.53-1.8-.85-2.53,3.42-9,2.1-16,2.13-15-.7-10.51Z"/><path class="cls-6" d="M140.69,48.73l-1.49,5.91L136.66,63l-3.08,6.14-4.48,5h-8l-5.2-2.06-2.12-4.28.82-6-2-2.18-5.35,1.86-3.42,4.95-4.58,6L87.78,76,75.93,77.08s-2.19-2.18-2.2-2.63-1.24-4.77-1.24-4.77l-2.57-4.27-.71-2.68-1,1.85.91,4s2.3,5,2.16,5.48-1.48,4.58-1.48,4.58l-1.4,2.61L59,83.45l-3.5-.93-2.71-4L51.39,72.9,49,64.41l-2.32-5.48-.82-5.54,2.27-3.85-3.46.13L43,50.94l-5.15-4.77-2.95-6.35.65-2.59-1.42-1.75-3.61,0L30,32.78l.14-4.37.4-5.28,1.77-8.81-.36-5.55-4.5-3.44L24.34,3.19,21.07,4.37,16.93,6.19,15.21,8.37l1.16-1,6.88-3,3.22,1.46L29,8.2l1.05,3.58-1.62,5s-1.81,5.94-1.77,6.84-.06,4.3-.06,4.3l-5.79,2-2.32,3.34.79,0,1.31,6.72,3.1,2.44.19,4.81,2.62,1.56,1.68,4.59,4.51,0,1.38,8.38,3.81,1.36,1.37,4.31s2.38,7.29,2.4,7.74,7,9.81,7,9.81l5.56,3.71.57,3L56,92.81h4.3l3.91-.52.09-1.06,7-3,.16-3.76,1-2.3,9.34.4,16,1.94,8.93-2.6,5.81,2.34,7.25,4.39,2.6,5,2.27,3.48,6.06,0,2.9-1,.53-1.8-.85-2.53,3.42-9,2.1-16,2.13-15Z"/><polygon class="cls-4" points="1.49 28.53 2.29 26.01 4.26 24.47 4.3 25.26 4.89 26.14 3.14 27.33 1.49 28.53"/><polygon class="cls-3" points="11 20.63 14.13 16.9 14.71 14.28 15.66 12.44 19.23 11.51 20.66 13.27 20.64 15.86 17.11 18.03 12.8 20.45 9.73 22.6 9.58 21.82 11 20.63"/><polygon class="cls-4" points="15.84 14.24 17.99 14.27 19.14 15.01 18.6 15.6 15.7 16.39 16.22 15.24 15.84 14.24"/><path class="cls-3" d="M20.85,30l5.79-2s.09-3.39.06-4.3a26.23,26.23,0,0,1,.92-3.94l-.28.08L25.25,24l-1.58,3.11-4.1,2-4,1.73-3.89,1.51s-2.64,1.79-3,1.92-3.59.7-3.59.7l-1-.64,2.34-.88,3.23-.91.74-1.5-1-.18L7.94,32l-3.78,1.5-2.09.26.57.32L4.7,36.75l3.72-1,4-2.86,3,.34,3.13.12Z"/><path class="cls-7" d="M122.33,93.67l2.27,3.48,6.06,0,2.9-1,.53-1.8-.85-2.53,0,0-.32-.09-6,1-3.62-3.14s-3.91-4.81-4.26-5.14-2.06-6.47-2.06-6.47l-5-3.64-6.69,5L94.17,81.8l-11.88-.9-8.45-2.39-1.21.72-.93,2.41A30.25,30.25,0,0,0,68.07,84c-.32.46-6.19,3.4-6.19,3.4l-7.87-2-6.45-6.42L43.14,72.8l-3-7-1.63-.71.76,2.4s2.38,7.29,2.4,7.74,7,9.81,7,9.81l5.56,3.71.57,3L56,92.81h4.3l3.91-.52.09-1.06,7-3,.16-3.76,1-2.3,9.34.4,16,1.94,8.93-2.6,5.81,2.34,7.25,4.39Z"/><polygon class="cls-2" points="37.55 9.35 40.02 8.06 39.88 8.01 42.6 4.6 42.9 0.67 40.51 1.07 33.22 4.64 32.88 5.23 31.13 6.77 30.04 7.71 30.83 10.73 33.52 10.29 37.55 9.35"/><polygon class="cls-3" points="30.99 9.03 33.63 7.12 37.59 4.49 41.62 3.54 40.88 4.93 39.06 7.37 35.28 8.98 31.12 9.47 30.99 9.03"/><polygon class="cls-6" points="33.02 29.5 32.02 31.04 32.79 31.31 34.52 29.29 33.02 29.5"/><polygon class="cls-6" points="32.37 32.23 32.12 33.6 32.95 33.56 32.98 32.29 32.37 32.23"/><polygon class="cls-6" points="40.59 30.56 39.38 32.42 37.15 33.03 37.17 33.7 39.71 33.31 41.3 31.52 41.25 30.24 40.59 30.56"/><path class="cls-6" d="M39,29.57l-.1,1.51s.67-.33.66-.55.24-1.52.24-1.52Z"/><path class="cls-6" d="M40.13,40.21l-.28,2.5.66,1.63s1.52.39,1.51.17-.13-3.46-.14-3.76a21.63,21.63,0,0,1,.59-2.28Z"/><polygon class="cls-6" points="39.03 38.98 37.57 40.24 37.99 41.43 39.07 40.1 39.78 38.95 39.03 38.98"/><polygon class="cls-6" points="53.16 71.93 53.11 74.64 54.32 74.74 55.25 71.55 55.91 69.11 54.58 69.77 53.16 71.93"/><polygon class="cls-6" points="56.77 71.94 55.46 73.19 57.02 74.49 59.63 71.83 59.85 69.86 56.77 71.94"/><polygon class="cls-6" points="38.82 35.45 34.78 36.35 35.6 37.83 38.25 36.52 39.71 35.11 38.82 35.45"/><polygon class="cls-6" points="48.02 36 44.59 36.73 46.79 39.36 48.07 37.5 49.5 35.34 48.02 36"/><polygon class="cls-6" points="45.48 32.63 45.4 34.29 46.89 34.09 46.95 31.68 45.48 32.63"/><polygon class="cls-6" points="41.5 46.48 39.31 48.37 42.02 48.42 42.88 47.18 41.5 46.48"/><polygon class="cls-6" points="46.11 45.1 45.42 46.78 47.06 46.27 47.71 43.69 48.69 41.84 46 42.25 46.11 45.1"/><path class="cls-6" d="M59.3,55.59l-.95,2.74s3.44-.58,3.43-1,2-2.94,2-2.94l-1.69-.84Z"/><polygon class="cls-6" points="75.33 73.03 78.98 74.1 82.84 72.9 83.96 70.45 79.81 72.11 75.33 73.03"/><polygon class="cls-6" points="77.06 71.31 78.4 66.9 79.31 67.02 78.96 69.73 77.06 71.31"/><polygon class="cls-6" points="75.01 68.83 73.54 69.64 74.91 70.04 76.23 69.24 76.8 68.31 75.01 68.83"/><path class="cls-6" d="M86.11,67.66l-1.75,1.57s2,.37,2.1-.08a20.4,20.4,0,0,1,1.72-2.48l0-1Z"/><path class="cls-6" d="M95.67,69.7,90,71.27l-.26,1.06s2.84-.56,3.28-.72l2.23-.84,1.3-1.41Z"/><polygon class="cls-6" points="82.17 31.53 77.54 32.61 79.27 34.5 82.82 33.01 84.4 30.84 82.17 31.53"/><polygon class="cls-6" points="63.55 56.33 62.11 58.04 64.94 57.48 66.82 55.3 63.55 56.33"/><polygon class="cls-6" points="65.19 52.05 65.25 53.55 67.14 51.97 67.97 49.84 65.19 52.05"/><polygon class="cls-6" points="58.62 49.59 57.47 50.99 60.91 50.41 61.45 48.73 58.62 49.59"/><polygon class="cls-6" points="58.27 44.19 56.19 45.02 59.97 45.48 60.8 43.48 58.27 44.19"/><polygon class="cls-6" points="70.45 28.21 69.95 30.8 70.96 29.7 72.23 27.55 70.45 28.21"/><polygon class="cls-6" points="83.22 27.73 79.66 28.92 81.17 29.16 83.71 28.61 84.12 27.54 83.22 27.73"/><polygon class="cls-6" points="60.49 66.98 63.33 66.27 64.46 64.57 62 63.16 62.07 64.96 59.24 65.82 60.49 66.98"/><polygon class="cls-6" points="62.83 69 61.33 69.21 62.27 70.22 63.62 69.87 62.83 69"/><polygon class="cls-6" points="92.47 64.7 92.36 65.76 93.69 65.26 94.54 63.87 92.47 64.7"/><path class="cls-8" d="M141,35l-1.42-5.67L134,25.64l-3.47-4.09-15-2.44-12.4-1.33L85.4,17.56l-13.58-.68L58,18l-6-3.09-3.16-3.79L39.87,8,42.6,4.6,42.9.67l-2.39.4L33.22,4.65h0L30,4.1l-2.8-2.37L25.11,0,16.64,2.58,11.42,7.75l-.9,1.53L8.87,12.13l1.59,1.77h0l.77.85L2.56,24.12l-2.33,2-.23,2,.55,2.54L.64,33l1.43.8h0l.57.32L4.7,36.75l3.72-1,4-2.86,3,.34,3.92.15,1.31,6.72,3.1,2.44.19,4.81,2.62,1.56,1.68,4.59,4.51,0,1.38,8.38,3.81,1.36.61,1.91h0l.76,2.4s2.38,7.29,2.4,7.74,7,9.81,7,9.81l5.56,3.71.57,3,1.25,1.16.61,8.1-1,5.91-2.13,3.39-1,.88h0l-2.74,2.28,0,3,4.38.29,3.75-.3,1.21-3.39h0l.15-.42-.07-1.81,4.31-1.67-.69-2.23.34-2.72,1.16-13,7-3,.16-3.76,1-2.3,9.34.4,16,1.94,8.93-2.6,5.81,2.34,7.25,4.39,2.6,5,2.27,3.48h0l.13.19-.26,5.28-1.58,5.77-2.51,1.15-1.47,1.85h0l-.26.33-1.93.52-3.25,5.84.77.43,2-.08-.41,1.22,3,.34,7.34-1,.3-.88h0l.78-2.32-.2-1.34,3.27-1-.31-4.21,1.3-5.31,2.62-9h0l.17-.6-.85-2.53,0,0h0l3.4-9,2.1-16,2.13-15-.2-3h0l-.5-7.53Z"/></g></g></g></svg>