<svg xmlns="http://www.w3.org/2000/svg" viewBox="0 0 224.31 137.12"><defs><style>.cls-1{isolation:isolate;}.cls-2{fill:#6d574f;}.cls-3{fill:#876e62;}.cls-4{fill:#ad8f80;}.cls-5,.cls-6{fill:#d6c9c3;}.cls-5{mix-blend-mode:multiply;}.cls-7{fill:#6b5951;}.cls-8{fill:#cf867c;}</style></defs><title>Asset 1</title><g class="cls-1"><g id="Layer_2" data-name="Layer 2"><g id="likos"><polygon class="cls-2" points="18.56 13.86 17.65 7.97 15.69 3.4 16.73 1.18 22.35 4.58 28.89 11.37 18.56 13.86"/><polygon class="cls-3" points="81.57 85.88 84.97 98.69 87.84 109.41 88.89 117.52 87.58 123.52 82.87 124.83 80.78 127.97 80.78 131.11 85.75 132.15 93.59 131.63 94.64 127.97 97.51 122.22 96.47 118.3 95.42 105.75 94.12 85.62 92.55 73.07 82.61 74.9 81.57 85.88"/><polygon class="cls-2" points="96.04 122.25 94.38 125.19 93.69 128.62 92.81 127.74 93.69 121.47 96.04 122.25"/><polygon class="cls-4" points="94.12 85.62 92.55 73.07 82.61 74.9 81.57 85.88 84.97 98.69 87.21 107.06 87.91 99.41 90.65 89.9 94.33 88.89 94.12 85.62"/><polygon class="cls-2" points="89.08 127.84 88.98 127.25 87.51 127.64 85.36 129.7 84.54 131.9 85.52 132.1 85.75 131.17 86.63 129.21 89.08 127.84"/><polygon class="cls-2" points="81.92 129.02 81.33 131.22 82.01 131.37 82.32 129.9 83.2 128.13 84.67 126.66 83.39 126.86 81.92 129.02"/><polygon class="cls-5" points="95.42 105.75 94.12 85.62 92.55 73.07 89.18 73.69 92.02 92.15 93.79 104.9 94.57 116.27 97.33 122.59 97.51 122.22 96.47 118.3 95.42 105.75"/><polygon class="cls-4" points="180.91 34.38 189.02 34.64 201.3 41.96 216.47 62.88 223.26 78.82 224.31 89.8 221.17 97.38 216.73 97.38 202.87 83.53 195.29 59.48 189.28 46.66 184.57 42.74 180.91 34.38"/><path class="cls-6" d="M220.45,87.25l-5.88-3.72-6.47-6.08-4.71-9.21-7.25-14.71-5.49-10.59-7-2.27.91,2.07,4.71,3.93,6,12.81,7.58,24.05,13.86,13.85h4.44l3.14-7.58-.39-4c-.52-.27-.92-.46-.92-.46Z"/><polygon class="cls-3" points="220.74 72.91 216.47 62.88 201.3 41.96 189.02 34.64 187.68 34.6 196.73 40.78 204.76 51.37 210.65 62.94 217.12 71.57 220.74 72.91"/><polygon class="cls-3" points="139.34 69.67 143 83.53 150.06 95.03 156.07 103.14 156.34 107.06 151.11 117.78 148.49 122.22 146.92 123.79 141.43 125.62 137.51 130.84 138.56 131.89 147.71 131.37 152.94 130.06 153.98 124.05 161.3 114.9 167.06 107.06 168.89 103.14 168.36 99.47 164.44 94.51 164.7 78.04 156.6 66.01 139.34 69.67"/><polygon class="cls-4" points="164.44 94.51 164.7 78.04 156.6 66.01 139.34 69.67 143 83.53 149.13 93.52 152.81 90.06 159.34 88.75 162.22 94.77 166.92 101.83 165.41 109.3 167.06 107.06 168.89 103.14 168.36 99.47 164.44 94.51"/><path class="cls-5" d="M167.05,107.06l1.84-3.93-.53-3.66-3.92-5L164.7,78l-1.14-1.7c-1.73,1.4-3.43,2.87-3.43,2.87-.13.53.65,13.73.65,13.73l2.61,8.1v6.8l-5,7.71-5,7.06-1.18,3.92,1,1.32.66-3.8,7.32-9.15Z"/><polygon class="cls-4" points="0.52 44.84 6.8 37.26 9.67 32.02 9.94 27.58 12.03 20.79 17.52 13.2 23.79 10.33 37.38 11.11 45.75 14.77 50.98 16.34 74.51 17.91 82.09 16.08 87.06 15.55 94.9 19.22 114.77 21.31 138.04 20.26 152.68 18.17 166.79 20.79 183.52 32.29 188.23 48.5 190.32 68.36 187.71 86.4 189.54 93.72 193.98 98.95 196.07 100.78 195.03 111.5 190.85 127.45 188.75 129.8 186.92 135.03 180.91 137.12 178.3 136.86 177.51 135.03 173.59 135.81 171.24 133.98 174.9 128.23 181.43 126.92 183.26 123.79 186.92 105.49 178.03 99.21 171.24 91.89 157.91 78.82 151.63 70.72 145.09 71.76 123.4 74.9 99.34 76.99 85.75 77.78 82.35 90.32 79.74 104.97 78.43 114.64 79.21 119.61 79.21 121.96 75.03 127.71 72.94 134.25 71.37 135.55 60.91 135.55 58.3 134.77 59.34 131.11 65.1 127.19 69.54 116.73 69.8 107.84 65.62 79.61 63.27 74.12 54.38 68.36 46.01 58.17 42.88 57.12 38.95 60.52 34.25 57.12 26.93 47.45 21.7 45.62 14.12 50.06 10.2 51.63 4.45 50.33 0 47.71 0.52 44.84"/><polygon class="cls-6" points="195.99 101.66 191.37 101.3 187.45 97.91 181.96 91.37 174.9 80.39 167.06 74.9 153.72 61.05 150.06 52.42 145.09 51.11 139.08 55.82 131.5 57.12 116.34 59.48 104.57 59.74 92.28 58.17 84.18 57.12 81.05 60 83.14 68.36 85.75 73.86 86.12 77.75 99.34 76.99 123.4 74.9 145.09 71.76 151.63 70.72 157.91 78.82 171.24 91.89 178.03 99.21 186.92 105.49 183.26 123.79 181.43 126.92 174.9 128.23 171.24 133.98 173.59 135.81 177.51 135.03 178.3 136.86 180.91 137.12 186.92 135.03 188.75 129.8 190.85 127.45 195.03 111.5 195.99 101.66"/><polygon class="cls-6" points="63.27 74.88 63.63 75.76 63.79 69.52 60.91 62.54 61.7 53.97 58.3 45.92 55.16 44.31 53.59 48.6 49.41 56.11 49.61 63.02 54.38 68.98 63.27 74.88"/><polygon class="cls-6" points="37.13 56.34 36.34 50.06 32.16 44.83 28.76 40.65 29.8 37.78 35.03 33.85 35.03 29.67 24.84 29.15 20.92 34.9 17.52 35.69 11.5 38.82 9.41 37.78 6.45 37.67 0.52 44.84 0 47.71 4.45 50.33 10.2 51.63 14.12 50.06 21.7 45.62 26.93 47.45 34.25 57.12 37.48 59.46 37.13 56.34"/><path class="cls-3" d="M66.4,63.14l-2.35-6s1-8.1,1-8.89.78-7.84.78-7.84l.26-11.5,4.45-6.54L68.5,31.76l2.35,12.29,2.09,7.84-2.09,5.76Z"/><path class="cls-3" d="M15,27.84l-2.55,3.53c.59.2,3.33-2.55,3.33-2.55Z"/><polygon class="cls-2" points="13.89 26.86 15.06 28.43 15.46 29.61 16.93 28.43 18.1 25.98 16.04 26.57 13.89 26.86"/><polygon class="cls-4" points="15.46 27.16 15.85 28.04 16.24 27.65 16.14 27.06 15.46 27.16"/><polygon class="cls-2" points="0 47.71 3.44 49.74 3.01 47.25 4.38 46.47 4.18 44.9 2.61 44.7 1.99 43.07 0.52 44.84 0 47.71"/><polygon class="cls-2" points="15.95 46.27 10.85 49.54 7.11 50.93 8.16 51.17 11.37 49.67 13.99 48.1 17.91 45.75 20.91 44.7 21.31 43.92 19.74 43.79 15.95 46.27"/><polygon class="cls-3" points="14.38 23.27 15.69 19.48 20.91 14.77 24.18 14.25 23.53 18.56 26.53 22.35 33.99 24.57 34.25 27.71 31.24 26.67 25.1 24.84 22.61 25.49 20.26 23.4 14.38 23.27"/><polygon class="cls-3" points="32.22 39.41 34.18 43.13 36.53 42.94 33.99 39.61 33.4 37.84 32.22 39.41"/><polygon class="cls-3" points="35.95 39.8 41.44 43.53 45.16 48.43 48.1 49.41 49.67 48.82 46.14 46.08 43.4 40 35.16 35.88 35.95 39.8"/><polygon class="cls-3" points="37.91 48.23 38.89 53.33 42.61 53.14 45.36 54.12 46.34 53.14 43.2 51.17 41.24 46.08 38.1 43.53 35.95 44.31 37.91 48.23"/><polygon class="cls-3" points="48.3 52.35 49.67 50.98 45.36 49.6 45.16 50.59 48.3 52.35"/><path class="cls-3" d="M162.41,22.16l11.77,7.25,3.92,7.84V47.84l-.59,4.71L185,62l.39,4.31,1.18,7.65,2.41,4,1.38-9.51L188.23,48.5l-4.71-16.21L166.79,20.78l-14.11-2.61L138,20.26l-23.27,1L94.9,19.22l-7.84-3.66-5,.52-7.58,1.83L51.64,16.38l1,1.46s6.08,1.38,6.67,1.18,10.39.78,10.39.78l7.84,3.14,9.41,1.37,7.65-1,1,3.53.2,3.34,2.74,1.17,4.9-3.92,6.87-2.35,17.06-1.38,10-.39L147.9,22Z"/><polygon class="cls-7" points="77.32 122.64 75.26 125.09 73 126.17 72.81 125.49 75.65 122.84 76.83 120.09 77.32 122.64"/><path class="cls-7" d="M62.81,132.74l3.72-1.57-.19-.78L62.22,132l-1.09,3.59h1.32C62.55,134.56,62.81,132.74,62.81,132.74Z"/><polygon class="cls-7" points="61.83 130.49 59.67 132.35 59.11 135.01 59.73 135.19 60.06 132.74 61.93 130.88 61.83 130.49"/><polygon class="cls-3" points="76.53 66.08 76.73 75.29 72.61 80.98 69.47 82.16 68.1 79.8 71.83 75.68 74.57 67.84 76.53 66.08"/><polygon class="cls-6" points="88.1 70 84.77 70 83.2 78.82 80.06 92.35 77.32 106.08 77.12 113.53 78.64 115.99 78.43 114.64 79.74 104.97 82.35 90.32 85.75 77.78 90.29 77.51 90.85 74.9 88.1 70"/><polygon class="cls-3" points="190.84 102.74 192.41 107.45 192.22 113.13 193.79 106.66 193.2 102.74 190.84 102.74"/><polygon class="cls-3" points="195.03 111.5 195.99 101.66 194.01 101.51 195.03 103.27 193.98 111.11 192.02 118.43 189.41 125.23 186.66 129.41 185.86 135.4 186.92 135.03 188.75 129.8 190.85 127.45 195.03 111.5"/><path class="cls-3" d="M176.86,129.67l-3.14,3.66-.52,2.18.39.3.49-.09c.31-1,.82-2.39.82-2.39l3.4-3.79,1.3-.39-.13-.66Z"/><path class="cls-3" d="M181.83,130.19l-2.75,2.62-1.43,2.55.65,1.5h.12c.32-1.19.79-2.89.79-2.89l2.75-2.87Z"/><polygon class="cls-3" points="43.01 18.04 46.32 14.94 45.75 14.77 39.66 12.11 39.09 17.84 37.91 21.77 40.46 23.92 43.01 18.04"/><path class="cls-5" d="M23.79,10.33,17.52,13.2,12,20.78l-2.09,6.8L9.67,32,6.8,37.25.52,44.84,0,47.71l.61.36,1-3,2.09-2.62,4.57-4.57,2.62-4.84L11,29.28s1.57-6.14,1.57-6.53S16,16.6,16,16.6l3.53-3.14,3.66-2.09,3.39-.65.12-.23Z"/><polygon class="cls-8" points="35.82 20.39 31.46 19.14 29.02 18.43 26.67 16.34 24.58 16.21 23.66 14.38 26.01 7.32 26.8 1.05 27.97 0 32.94 6.28 35.95 14.64 35.82 20.39"/><polygon class="cls-5" points="29.54 7.45 27.58 11.63 26.38 16.32 26.67 16.34 29.02 18.43 31.46 19.14 31.51 19.15 32.81 16.86 33.07 12.03 30.2 5.1 29.54 7.45"/><polygon class="cls-2" points="27.97 0 26.8 1.05 26.01 7.32 23.66 14.38 24.58 16.21 24.73 16.22 25.23 12.81 26.4 9.02 27.19 3.01 28.36 3.79 30.85 8.63 31.5 13.46 30.33 16.6 28.85 18.28 29.02 18.43 31.46 19.14 35.82 20.39 35.95 14.64 32.94 6.28 27.97 0"/><polygon class="cls-5" points="145.09 71.76 151.63 70.72 157.91 78.82 171.24 91.89 177.11 98.22 173.33 91.11 161.56 76.99 155.29 67.58 148.23 64.7 133.33 69.15 100.91 71.24 88.1 70.72 83.13 70.98 84.18 75.68 84.66 81.79 85.75 77.78 99.34 76.99 123.4 74.9 145.09 71.76"/></g></g></g></svg>