<svg xmlns="http://www.w3.org/2000/svg" viewBox="0 0 39.59 40.08"><defs><style>.cls-1{isolation:isolate;}.cls-2{fill:#efae92;}.cls-3{fill:#f3c7ad;}.cls-4{fill:#939598;mix-blend-mode:multiply;}</style></defs><title>Asset 22</title><g class="cls-1"><g id="Layer_2" data-name="Layer 2"><g id="likos"><g id="bQ77fw.tif"><path class="cls-2" d="M39.48,20.92c.14,2.61-1.54,4.1-3.41,5.43a46.83,46.83,0,0,1-5,2.69,19.64,19.64,0,0,0-5.51,4.11c-.5.56-1.17,1.07-1,2a1.12,1.12,0,0,0,1.35,1,19.9,19.9,0,0,0,6.34-1.92,10.68,10.68,0,0,1,3-1.31,1.56,1.56,0,0,1,1.72.73,1.39,1.39,0,0,1-.18,1.69,7.15,7.15,0,0,1-3.08,2.48,22.67,22.67,0,0,1-6.31,2.06,8.32,8.32,0,0,1-5.13-.5,4.28,4.28,0,0,1-1.89-5.15c1.38-3.49,4.19-5.56,7.13-7.55,2.06-1.39,4.42-2.21,6.49-3.57a5.48,5.48,0,0,0,1.46-1.34.86.86,0,0,0-.2-1.37,5.63,5.63,0,0,0-5.69-.55,3.67,3.67,0,0,0-1.43,1.59,13.12,13.12,0,0,1-5.82,5,6.9,6.9,0,0,1-4.22.6,5.73,5.73,0,0,1-4.25-3.85,11.55,11.55,0,0,1-.57-5.5,14.89,14.89,0,0,0,0-2.91,10.33,10.33,0,0,0,3.76,0,35.92,35.92,0,0,0,.1,6.31C17.5,23.27,19,24,20.93,23a10.23,10.23,0,0,0,4-3.72c2.15-3.42,5.09-4.18,9-3.44a6.92,6.92,0,0,1,3.17,1.4c-.12.1-.22.26-.06.34.83.47,1.24,1.38,2,1.89l.18.64A.62.62,0,0,0,39.48,20.92Z"/><path class="cls-3" d="M17,14.82a10.33,10.33,0,0,1-3.76,0c-.34-.3-.23-.69-.25-1.07-.09-2.15,0-4.33-.89-6.36a2,2,0,0,0-.76-1c-1-.48-1.54-1.54-2.7-1.7-.08,0-.14-.15-.21-.23a2.55,2.55,0,0,1,1.31.14.44.44,0,0,0,.64-.31,5.16,5.16,0,0,1,1-1.69c.22-.24.19-.39-.09-.5A30.77,30.77,0,0,0,7.46.8C6.54.57,5.59.84,4.68.53A5,5,0,0,0,.92,1c-.8.37-.78,1.1-.07,1.63.22.17.49.27.59.56A1.48,1.48,0,0,1,0,2C-.14,1.35.36,1,.8.67A4.24,4.24,0,0,1,4.07.07c2.17.23,4.4.24,6.42,1.18.9.42,1.86.59,2.75.94a6.43,6.43,0,0,1,3.66,4,17.91,17.91,0,0,1,.82,6.14A4.76,4.76,0,0,1,17,14.82Z"/><path class="cls-2" d="M1.44,3.2c-.1-.29-.37-.39-.59-.56C.14,2.11.12,1.38.92,1A5,5,0,0,1,4.68.53c.91.31,1.86,0,2.78.27a30.77,30.77,0,0,1,3.88,1.37c.28.11.31.26.09.5a5.16,5.16,0,0,0-1,1.69.44.44,0,0,1-.64.31,2.55,2.55,0,0,0-1.31-.14L7.78,4.4a.3.3,0,0,0-.43-.16l-1-.08c-1.51-.47-3.12-.5-4.64-.93Z"/><path class="cls-3" d="M1.73,3.23c1.52.43,3.13.46,4.64.93A13.62,13.62,0,0,1,2.16,3.6.64.64,0,0,1,1.73,3.23Z"/><path class="cls-3" d="M39.14,19.47c-.78-.51-1.19-1.42-2-1.89-.16-.08-.06-.24.06-.34A3.25,3.25,0,0,1,39.14,19.47Z"/><path class="cls-3" d="M39.48,20.92a.62.62,0,0,1-.16-.81A.54.54,0,0,1,39.48,20.92Z"/><path class="cls-3" d="M7.35,4.24a.3.3,0,0,1,.43.16C7.58,4.5,7.45,4.41,7.35,4.24Z"/></g><path class="cls-4" d="M39.32,20.11l-.18-.64a3.25,3.25,0,0,0-2-2.23A6.92,6.92,0,0,0,34,15.84c-3.95-.74-6.89,0-9,3.44a10.23,10.23,0,0,1-4,3.72c-1.94,1-3.43.27-3.81-1.87a35.92,35.92,0,0,1-.1-6.31,4.76,4.76,0,0,0,.7-2.5,17.91,17.91,0,0,0-.82-6.14,6.43,6.43,0,0,0-3.66-4c-.89-.35-1.85-.52-2.75-.94C8.47.31,6.24.3,4.07.07A4.24,4.24,0,0,0,.8.67C.36,1-.14,1.35,0,2A1.48,1.48,0,0,0,1.44,3.2l.29,0a.64.64,0,0,0,.43.37,13.62,13.62,0,0,0,4.21.56l1,.08c.1.17.23.26.43.16l.67.13c.07.08.13.22.21.23,1.16.16,1.74,1.22,2.7,1.7a2,2,0,0,1,.76,1c.93,2,.8,4.21.89,6.36,0,.38-.09.77.25,1.07a14.89,14.89,0,0,1,0,2.91,11.55,11.55,0,0,0,.57,5.5,5.73,5.73,0,0,0,4.25,3.85,6.9,6.9,0,0,0,4.22-.6,13.12,13.12,0,0,0,5.82-5,3.67,3.67,0,0,1,1.43-1.59,5.63,5.63,0,0,1,5.69.55.86.86,0,0,1,.2,1.37A5.48,5.48,0,0,1,34,23.14c-2.07,1.36-4.43,2.18-6.49,3.57-2.94,2-5.75,4.06-7.13,7.55a4.28,4.28,0,0,0,1.89,5.15,8.32,8.32,0,0,0,5.13.5,22.67,22.67,0,0,0,6.31-2.06,7.15,7.15,0,0,0,3.08-2.48,1.39,1.39,0,0,0,.18-1.69A1.56,1.56,0,0,0,35.21,33a10.68,10.68,0,0,0-3,1.31,19.9,19.9,0,0,1-6.34,1.92,1.12,1.12,0,0,1-1.35-1c-.16-.92.51-1.43,1-2A19.64,19.64,0,0,1,31.09,29a46.83,46.83,0,0,0,5-2.69c1.87-1.33,3.55-2.82,3.41-5.43A.54.54,0,0,0,39.32,20.11Z"/></g></g></g></svg>