<svg xmlns="http://www.w3.org/2000/svg" xmlns:xlink="http://www.w3.org/1999/xlink" width="6.6623cm" height="9.0219cm" viewBox="0 0 188.8539 255.7396"><defs><style>.cls-1{fill:none;}.cls-2{fill:#efc844;}.cls-3{clip-path:url(#clip-path);}.cls-4{fill:#f7f1ea;}.cls-5{clip-path:url(#clip-path-2);}.cls-6{fill:#f9e6cf;}.cls-7{fill:#f7d9b6;}.cls-8{clip-path:url(#clip-path-3);}.cls-9{fill:#d57b76;}.cls-10{fill:#5c9c58;}.cls-11{fill:#4258cb;}.cls-12{fill:#dd6e43;}.cls-13{clip-path:url(#clip-path-4);}.cls-14{clip-path:url(#clip-path-5);}.cls-15{clip-path:url(#clip-path-6);}.cls-16{clip-path:url(#clip-path-7);}.cls-17{clip-path:url(#clip-path-8);}.cls-18{clip-path:url(#clip-path-9);}.cls-19{clip-path:url(#clip-path-10);}.cls-20{clip-path:url(#clip-path-11);}.cls-21{clip-path:url(#clip-path-12);}</style><clipPath id="clip-path"><rect class="cls-1" width="188.8539" height="255.7397"/></clipPath><clipPath id="clip-path-2"><rect class="cls-1" x="-62.0069" y="-7.2777" width="256.3781" height="265.9759" transform="translate(132.3642 251.4206) rotate(180)"/></clipPath><clipPath id="clip-path-3"><rect class="cls-1" x="-62.0817" y="-7.2777" width="256.4529" height="265.9759"/></clipPath><clipPath id="clip-path-4"><rect class="cls-1" y="269.3639" width="188.8539" height="255.7397" rx="10.4509"/></clipPath><clipPath id="clip-path-5"><rect class="cls-1" x="-62.0069" y="262.0862" width="256.3781" height="265.9759" transform="translate(132.3642 790.1484) rotate(180)"/></clipPath><clipPath id="clip-path-6"><rect class="cls-1" x="-62.0817" y="262.0862" width="256.4529" height="265.9759"/></clipPath><clipPath id="clip-path-7"><rect class="cls-1" x="205.7709" y="269.3639" width="188.8539" height="255.7397" rx="10.4509"/></clipPath><clipPath id="clip-path-8"><rect class="cls-1" x="143.764" y="262.0862" width="256.3781" height="265.9759" transform="translate(543.9061 790.1484) rotate(180)"/></clipPath><clipPath id="clip-path-9"><rect class="cls-1" x="143.6892" y="262.0862" width="256.4529" height="265.9759"/></clipPath><clipPath id="clip-path-10"><rect class="cls-1" x="205.7709" width="188.8539" height="255.7397" rx="10.4509"/></clipPath><clipPath id="clip-path-11"><rect class="cls-1" x="143.764" y="-7.2777" width="256.3781" height="265.9759" transform="translate(543.9061 251.4206) rotate(180)"/></clipPath><clipPath id="clip-path-12"><rect class="cls-1" x="143.6892" y="-7.2777" width="256.4529" height="265.9759"/></clipPath></defs><title>Artboard 2</title><g id="bgs"><rect id="lvl_1" data-name="lvl 1" class="cls-2" x="-339.4912" y="-91.7861" width="1915.4785" height="1202.7417"/></g><g id="lvl_1_-_front" data-name="lvl 1 - front"><g class="cls-3"><rect class="cls-4" x="20.6006" y="-7.2777" width="173.7705" height="265.9759"/><g class="cls-5"><circle class="cls-6" cx="207.2012" cy="125.7103" r="244.1011"/><circle class="cls-7" cx="17.7359" cy="156.6153" r="36.5071"/><circle class="cls-7" cx="49.4011" cy="41.6456" r="40.2695"/><circle class="cls-7" cx="138.9952" cy="211.0316" r="36.5071"/><circle class="cls-7" cx="147.8133" cy="107.4185" r="36.5071"/></g><g class="cls-8"><circle class="cls-9" cx="47.8712" cy="115.2135" r="48.2236" transform="translate(-75.0762 136.4207) rotate(-77.2237)"/><path class="cls-10" d="M-51.9991,123.463a41.4543,41.4543,0,0,0,41.4543,41.4543A41.4544,41.4544,0,0,0,30.91,123.463Z"/><path class="cls-11" d="M-14.0013,57.3257A28.7987,28.7987,0,0,0-42.8,86.1244,28.7986,28.7986,0,0,0-14.0013,114.923,28.7987,28.7987,0,0,0,14.7974,86.1244,28.7987,28.7987,0,0,0-14.0013,57.3257Zm0,46.6028A17.8041,17.8041,0,0,1-31.8054,86.1244,17.8042,17.8042,0,0,1-14.0013,68.32,17.8042,17.8042,0,0,1,3.8029,86.1244,17.8042,17.8042,0,0,1-14.0013,103.9285Z"/><polygon class="cls-11" points="198.483 78.984 97.591 179.876 198.483 179.876 198.483 78.984"/><circle class="cls-2" cx="42.5298" cy="237.0082" r="38.3426" transform="translate(-198.2439 240.128) rotate(-80.5692)"/><path class="cls-12" d="M134.6371-61.5676h0a35.1023,35.1023,0,0,1,35.1023,35.1023v112.57a0,0,0,0,1,0,0H99.5348a0,0,0,0,1,0,0v-112.57a35.1023,35.1023,0,0,1,35.1023-35.1023Z" transform="translate(122.3687 146.9055) rotate(-90)"/><path class="cls-2" d="M-24.537,35.1736H27.948V-17.3115A52.485,52.485,0,0,0-24.537,35.1736Z"/><rect class="cls-11" x="80.4662" y="5.8528" width="60.4117" height="10.4855" transform="translate(99.5765 121.7677) rotate(-90)"/><path class="cls-2" d="M128.2749,96.3018V39.5306a13.9857,13.9857,0,0,1,13.9856-13.9857h0a13.9857,13.9857,0,0,1,13.9857,13.9857V96.3018a13.9856,13.9856,0,0,1-13.9857,13.9857h0A13.9856,13.9856,0,0,1,128.2749,96.3018Z"/><path class="cls-10" d="M225.7712,257.19a3.7385,3.7385,0,1,1-7.477,0,49.9161,49.9161,0,1,0-99.8322,0,3.7385,3.7385,0,1,1-7.4769,0,57.3931,57.3931,0,1,1,114.7861,0Z"/><path class="cls-10" d="M213.1852,257.19a3.7385,3.7385,0,0,1-7.477,0,37.33,37.33,0,1,0-74.66,0,3.7385,3.7385,0,0,1-7.477,0,44.8071,44.8071,0,1,1,89.6142,0Z"/><path class="cls-10" d="M201.3239,257.19a3.7384,3.7384,0,1,1-7.4768,0,25.4688,25.4688,0,1,0-50.9376,0,3.7385,3.7385,0,1,1-7.4769,0,32.9457,32.9457,0,1,1,65.8913,0Z"/><rect class="cls-9" x="154.0727" y="151.9455" width="12.2945" height="12.2945" transform="translate(2.1273 318.3127) rotate(-90)"/><rect class="cls-9" x="166.3672" y="139.6509" width="12.2945" height="12.2945" transform="translate(26.7163 318.3127) rotate(-90)"/><rect class="cls-9" x="154.0728" y="176.5345" width="12.2945" height="12.2945" transform="translate(-22.4617 342.9017) rotate(-90)"/><rect class="cls-9" x="154.0728" y="127.3565" width="12.2945" height="12.2945" transform="translate(26.7163 293.7237) rotate(-90)"/><rect class="cls-9" x="166.3673" y="164.24" width="12.2945" height="12.2945" transform="translate(2.1273 342.9017) rotate(-90)"/><rect class="cls-9" x="141.7783" y="139.651" width="12.2945" height="12.2945" transform="translate(2.1273 293.7237) rotate(-90)"/><rect class="cls-9" x="141.7783" y="164.24" width="12.2945" height="12.2945" transform="translate(-22.4617 318.3128) rotate(-90)"/><polygon class="cls-12" points="9.859 228.854 24.705 212.41 23.575 234.536 45.7 233.406 29.256 248.252 45.7 263.098 23.575 261.968 24.705 284.093 9.859 267.649 -4.987 284.093 -3.857 261.968 -25.983 263.098 -9.538 248.252 -25.983 233.406 -3.857 234.536 -4.987 212.41 9.859 228.854"/><path class="cls-10" d="M88.8653,101.5632a2.5358,2.5358,0,1,0,2.5358,2.5358A2.5358,2.5358,0,0,0,88.8653,101.5632Z"/><circle class="cls-10" cx="88.8653" cy="92.7547" r="2.5358"/><circle class="cls-10" cx="88.8653" cy="81.4105" r="2.5358"/><circle class="cls-10" cx="88.8653" cy="70.0662" r="2.5358"/><path class="cls-10" d="M76.9872,101.5632a2.5358,2.5358,0,1,0,2.5358,2.5358A2.5358,2.5358,0,0,0,76.9872,101.5632Z"/><path class="cls-10" d="M76.9872,90.2189a2.5358,2.5358,0,1,0,2.5358,2.5358A2.5358,2.5358,0,0,0,76.9872,90.2189Z"/><path class="cls-10" d="M76.9872,78.8747a2.5358,2.5358,0,1,0,2.5358,2.5358A2.5358,2.5358,0,0,0,76.9872,78.8747Z"/><path class="cls-10" d="M76.9872,67.53a2.5358,2.5358,0,1,0,2.5358,2.5358A2.5358,2.5358,0,0,0,76.9872,67.53Z"/><path class="cls-10" d="M65.1091,101.5632a2.5358,2.5358,0,1,0,2.5357,2.5358A2.5358,2.5358,0,0,0,65.1091,101.5632Z"/><circle class="cls-10" cx="65.1091" cy="92.7547" r="2.5358"/><circle class="cls-10" cx="65.1091" cy="81.4105" r="2.5358"/><circle class="cls-10" cx="65.1091" cy="70.0662" r="2.5358"/><path class="cls-10" d="M53.231,101.5632a2.5358,2.5358,0,1,0,2.5357,2.5358A2.5358,2.5358,0,0,0,53.231,101.5632Z"/><circle class="cls-10" cx="53.231" cy="92.7547" r="2.5358" transform="translate(-14.0648 9.6388) rotate(-9.1447)"/><circle class="cls-10" cx="53.231" cy="81.4105" r="2.5358" transform="translate(-12.2619 9.4946) rotate(-9.1447)"/><circle class="cls-10" cx="53.231" cy="70.0662" r="2.5358" transform="translate(-10.459 9.3505) rotate(-9.1447)"/><path class="cls-10" d="M41.3528,101.5632a2.5358,2.5358,0,1,0,2.5358,2.5358A2.5358,2.5358,0,0,0,41.3528,101.5632Z"/><path class="cls-10" d="M41.3528,90.2189a2.5358,2.5358,0,1,0,2.5358,2.5358A2.5358,2.5358,0,0,0,41.3528,90.2189Z"/><path class="cls-10" d="M41.3528,78.8747a2.5358,2.5358,0,1,0,2.5358,2.5358A2.5358,2.5358,0,0,0,41.3528,78.8747Z"/><path class="cls-10" d="M41.3528,67.53a2.5358,2.5358,0,1,0,2.5358,2.5358A2.5358,2.5358,0,0,0,41.3528,67.53Z"/><path class="cls-12" d="M110.3558,100.8a21.7965,21.7965,0,0,1,9.8143-5.67,21.7977,21.7977,0,0,1,5.67-9.8144h0a21.7986,21.7986,0,0,1,5.67,9.8144,21.7965,21.7965,0,0,1,9.8143,5.67h0a21.7965,21.7965,0,0,1-9.8143,5.67,21.7983,21.7983,0,0,1-5.67,9.8143h0a21.7974,21.7974,0,0,1-5.67-9.8143,21.7965,21.7965,0,0,1-9.8143-5.67Z"/></g></g><rect class="cls-1" width="188.8539" height="255.7397"/><g class="cls-13"><g class="cls-14"><circle class="cls-6" cx="207.2012" cy="395.0742" r="244.1011"/></g><g class="cls-15"><path class="cls-12" d="M134.6371,207.7963h0a35.1023,35.1023,0,0,1,35.1023,35.1023v112.57a0,0,0,0,1,0,0H99.5348a0,0,0,0,1,0,0v-112.57A35.1023,35.1023,0,0,1,134.6371,207.7963Z" transform="translate(-146.9952 416.2695) rotate(-90)"/><path class="cls-2" d="M-24.537,304.5375H27.948v-52.485A52.4849,52.4849,0,0,0-24.537,304.5375Z"/><rect class="cls-11" x="80.4662" y="275.2167" width="60.4117" height="10.4855" transform="translate(-169.7874 391.1316) rotate(-90)"/></g></g><g class="cls-16"><g class="cls-17"><circle class="cls-6" cx="412.9721" cy="395.0742" r="244.1011"/></g><g class="cls-18"><path class="cls-2" d="M181.2339,304.5375h52.485v-52.485A52.4849,52.4849,0,0,0,181.2339,304.5375Z"/></g></g><g class="cls-19"><g class="cls-20"><circle class="cls-6" cx="412.9721" cy="125.7103" r="244.1011"/><circle class="cls-7" cx="223.5069" cy="156.6153" r="36.5071"/></g><g class="cls-21"><path class="cls-10" d="M153.7718,123.463a41.4544,41.4544,0,0,0,82.9087,0Z"/><path class="cls-11" d="M191.77,57.3257a28.7987,28.7987,0,1,0,28.7986,28.7987A28.7986,28.7986,0,0,0,191.77,57.3257Zm0,46.6028a17.8042,17.8042,0,1,1,17.8041-17.8041A17.8041,17.8041,0,0,1,191.77,103.9285Z"/><path class="cls-2" d="M181.2339,35.1736h52.485V-17.3115A52.485,52.485,0,0,0,181.2339,35.1736Z"/><polygon class="cls-12" points="215.63 228.854 230.476 212.41 229.346 234.536 251.471 233.406 235.027 248.252 251.471 263.098 229.346 261.968 230.476 284.093 215.63 267.649 200.784 284.093 201.914 261.968 179.788 263.098 196.233 248.252 179.788 233.406 201.914 234.536 200.784 212.41 215.63 228.854"/></g></g></g></svg>