<svg xmlns="http://www.w3.org/2000/svg" width="6.6623cm" height="9.0219cm" viewBox="0 0 188.8539 255.7397"><defs><style>.cls-1{fill:#fff;}.cls-2{fill:#5c9c58;}.cls-3{fill:#dd6e43;}.cls-4{fill:#4258cb;}.cls-5{fill:#d57b76;}.cls-6{fill:none;stroke:#4258cb;stroke-miterlimit:10;}</style></defs><title>Artboard 13</title><g id="lvl_2" data-name="lvl 2"><g id="_9x" data-name="9x"><rect class="cls-1" x="-0.5854" y="0.3576" width="188.8539" height="255.7397" rx="10.4509"/><circle class="cls-2" cx="75.6509" cy="56.8262" r="12.8514"/><circle class="cls-3" cx="75.6509" cy="92.9714" r="12.8514"/><circle class="cls-4" cx="75.6509" cy="128.7096" r="12.8514"/><circle class="cls-2" cx="113.2168" cy="128.7096" r="12.8514"/><circle class="cls-5" cx="113.2168" cy="92.5644" r="12.8514"/><circle class="cls-2" cx="75.6509" cy="163.7777" r="12.8514"/><circle class="cls-3" cx="75.6509" cy="199.9229" r="12.8514"/><circle class="cls-5" cx="113.2168" cy="199.5159" r="12.8514"/><circle class="cls-4" cx="113.2168" cy="163.7777" r="12.8514"/><rect class="cls-6" x="56.0063" y="181.6862" width="75.6704" height="35.3882"/><rect class="cls-6" x="56.0063" y="146.1098" width="75.6704" height="35.3882"/><rect class="cls-6" x="56.0063" y="110.5334" width="75.6704" height="35.3882"/><rect class="cls-6" x="56.0063" y="74.957" width="75.6704" height="35.3882"/><polygon class="cls-6" points="131.677 74.769 56.006 74.769 56.006 39.381 93.014 39.381 131.677 39.381 131.677 74.769"/><line class="cls-6" x1="94.4062" y1="216.6979" x2="94.4062" y2="39.3806"/></g></g></svg>