<svg xmlns="http://www.w3.org/2000/svg" width="3.8204cm" height="3.2682cm" viewBox="0 0 108.2947 92.6416"><defs><style>.cls-1{fill:#4258cb;}.cls-2{fill:#fff;}</style></defs><title>Artboard 14</title><g id="tairiazoun_" data-name="tairiazoun?"><g id="oxi"><path class="cls-1" d="M104.6486,55.3415c6.0351-16.1344,6.9624-41.925-16.2217-51.1034S13.34-.9207,1.0247,33.4164C-10.2341,64.8077,74.347,136.3508,104.6486,55.3415Z"/><path class="cls-2" d="M69.1305,46.4468,82.1251,33.452a7.4969,7.4969,0,0,0,0-10.6023L80.1973,20.922a7.497,7.497,0,0,0-10.6024,0L56.6,33.9166,43.6056,20.922a7.497,7.497,0,0,0-10.6024,0L31.0755,22.85a7.497,7.497,0,0,0,0,10.6023L44.07,46.4468,31.0755,59.4414a7.4973,7.4973,0,0,0,0,10.6025l1.9277,1.9277a7.4972,7.4972,0,0,0,10.6024,0L56.6,58.9769,69.5949,71.9716a7.4972,7.4972,0,0,0,10.6024,0l1.9278-1.9277a7.4971,7.4971,0,0,0,0-10.6025Z"/></g></g></svg>