<svg xmlns="http://www.w3.org/2000/svg" width="3.8204cm" height="3.2682cm" viewBox="0 0 108.2947 92.6416"><defs><style>.cls-1{fill:#4258cb;}.cls-2{fill:#fff;}</style></defs><title>Artboard 13</title><g id="tairiazoun_" data-name="tairiazoun?"><g id="nai"><path class="cls-1" d="M104.6486,55.3415c6.0351-16.1344,6.9624-41.925-16.2217-51.1034S13.34-.9207,1.0247,33.4164C-10.2341,64.8077,74.347,136.3508,104.6486,55.3415Z"/><path class="cls-2" d="M93.6562,24.0321l-1.9278-1.9278a7.4972,7.4972,0,0,0-10.6024,0L49.4251,53.8053,38.6928,43.6871a7.4969,7.4969,0,0,0-10.6025,0l-1.9278,1.9277a7.4971,7.4971,0,0,0,0,10.6022L44.1271,73.154A7.4744,7.4744,0,0,0,49.4,75.35c.0773,0,.1543-.0082.2316-.01.0773.0021.1543.0106.2317.01a7.4744,7.4744,0,0,0,5.2731-2.1957l38.52-38.52A7.4969,7.4969,0,0,0,93.6562,24.0321Z"/></g></g></svg>