<?xml version="1.0" encoding="utf-8"?>
<!-- Generator: Adobe Illustrator 24.0.3, SVG Export Plug-In . SVG Version: 6.00 Build 0)  -->
<svg version="1.1"
	 id="svg39" xmlns:cc="http://creativecommons.org/ns#" xmlns:dc="http://purl.org/dc/elements/1.1/" xmlns:inkscape="http://www.inkscape.org/namespaces/inkscape" xmlns:rdf="http://www.w3.org/1999/02/22-rdf-syntax-ns#" xmlns:sodipodi="http://sodipodi.sourceforge.net/DTD/sodipodi-0.dtd" xmlns:svg="http://www.w3.org/2000/svg"
	 xmlns="http://www.w3.org/2000/svg" xmlns:xlink="http://www.w3.org/1999/xlink" x="0px" y="0px" viewBox="0 0 185.7 174.6"
	 style="enable-background:new 0 0 185.7 174.6;" xml:space="preserve">
<style type="text/css">
	.st0{fill:#D1E16C;}
	.st1{fill:#081F2D;}
</style>
<sodipodi:namedview  bordercolor="#666666" borderopacity="1" fit-margin-bottom="0" fit-margin-left="0" fit-margin-right="0" fit-margin-top="0" gridtolerance="10" guidetolerance="10" id="namedview41" inkscape:current-layer="svg39" inkscape:cx="92.348966" inkscape:cy="87.262745" inkscape:pageopacity="0" inkscape:pageshadow="2" inkscape:window-height="480" inkscape:window-maximized="0" inkscape:window-width="640" inkscape:window-x="0" inkscape:window-y="0" inkscape:zoom="0.55272727" objecttolerance="10" pagecolor="#ffffff" showgrid="false">
	</sodipodi:namedview>
<path class="st0" d="M175.4,105.6c9.9-26.3,11.4-68.5-26.5-83.4C111,7.1,26.3,13.7,6.2,69.8C-12.2,121,125.9,237.8,175.4,105.6z"/>
<g>
	<path class="st1" d="M100.2,73.6h3.6c0.9,0,1.3,0,1.5,0c1.2,0,2.2,0.1,3,0.4c1.5,0.5,1.7,0.8,1.8,3c0.1,1.7,0.3,9.9,0.3,24.4
		c0,14.7-0.1,22.2-0.5,22.6c-0.7,0.7-3.4,1.1-8.3,1.1h-4.8c-4.1-0.1-6.5-0.1-7.3-0.3c-0.9-0.1-1.6-0.4-2.1-0.9l-1.1-1.1L86.2,105
		v-5.5c0-15.3,0.5-23.6,1.6-24.8c0.5-0.5,3.3-0.8,8.4-0.9C97.4,73.7,98.7,73.7,100.2,73.6z M98.3,49.2c5.9,0,10.7,5,10.7,9.8v1.7
		c-0.4,5.1-4.2,8.2-10.4,8.2h-0.8c-5.9-0.4-10.3-3.7-10.3-9c0-2.2,0.4-4.4,3.2-7.3C93.5,49.7,96.2,49.2,98.3,49.2z"/>
</g>
</svg>
