<?xml version="1.0" encoding="utf-8"?>
<!-- Generator: Adobe Illustrator 24.0.3, SVG Export Plug-In . SVG Version: 6.00 Build 0)  -->
<svg version="1.1" id="Layer_1" xmlns="http://www.w3.org/2000/svg" xmlns:xlink="http://www.w3.org/1999/xlink" x="0px" y="0px"
	 viewBox="0 0 131 123" style="enable-background:new 0 0 131 123;" xml:space="preserve">
<style type="text/css">
	.st0{fill:#FFFFFF;}
	.st1{fill:#FF0000;}
	.st2{fill:#008000;}
	.st3{fill:#FBB940;}
	.st4{fill:#0DADB5;}
</style>
<path class="st0" d="M123.5,76.7c7-18.7,8.1-48.5-18.8-59.1C77.9,7,17.9,11.6,3.6,51.4C-9.4,87.7,88.5,170.4,123.5,76.7z"/>
<g transform="matrix( 1, 0, 0, 1, 0,0) ">
	<g transform="matrix( 0.855621337890625, 0, 0, 0.855621337890625, 68.5,57.95) ">
		<g transform="matrix( 1, 0, 0, 1, 0,0) ">
			<g>
				<g id="Symbol_7_0_Layer0_0_FILL">
					<path class="st1" d="M-17.5-26.4H-36v51.3h18.5V-26.4z"/>
					<path class="st2" d="M3.1,24.9v-36.4h-18.5v36.4H3.1z"/>
					<path d="M45.3,36.5v-5.4h-87.6v-60.5h-5.4v60.5h-0.1v5.4H45.3z"/>
					<path class="st3" d="M44.5,1.7H26v23.3h18.5V1.7z"/>
					<path class="st4" d="M23.8-21.6H5.3v46.5h18.5V-21.6z"/>
				</g>
			</g>
		</g>
	</g>
</g>
</svg>
