<?xml version="1.0" encoding="utf-8"?>
<!-- Generator: Adobe Illustrator 24.0.3, SVG Export Plug-In . SVG Version: 6.00 Build 0)  -->
<svg version="1.1" id="Layer_1" xmlns="http://www.w3.org/2000/svg" xmlns:xlink="http://www.w3.org/1999/xlink" x="0px" y="0px"
	 viewBox="0 0 131 123" style="enable-background:new 0 0 131 123;" xml:space="preserve">
<style type="text/css">
	.st0{fill:#FFFFFF;}
	.st1{fill:#FE0000;}
	.st2{clip-path:url(#SVGID_2_);fill:#FE0000;}
	.st3{clip-path:url(#SVGID_4_);fill:#FE0000;}
	.st4{clip-path:url(#SVGID_6_);fill:#FE0000;}
	.st5{clip-path:url(#SVGID_8_);fill:#FE0000;}
	.st6{clip-path:url(#SVGID_10_);fill:#FE0000;}
	.st7{clip-path:url(#SVGID_12_);fill:#007F00;}
	.st8{clip-path:url(#SVGID_14_);fill:#007F00;}
	.st9{clip-path:url(#SVGID_16_);fill:#007F00;}
	.st10{clip-path:url(#SVGID_18_);fill:#007F00;}
	.st11{clip-path:url(#SVGID_20_);fill:#007F00;}
	.st12{fill:#007F00;}
</style>
<path class="st0" d="M123.5,76.7c7-18.7,8.1-48.5-18.8-59.1C77.9,7,17.9,11.6,3.6,51.4C-9.4,87.7,88.5,170.4,123.5,76.7z"/>
<g>
	<g>
		<g>
			<path class="st1" d="M19,84.4c-0.3,0-0.6-0.1-0.7-0.4c-0.3-0.4-0.2-1,0.2-1.3l10.1-7.6c5.6-4.2,13.2-4.4,19-0.6
				c3.4,2.3,7.5,3,11.5,2c4-1,7.3-3.5,9.3-7.1l5.8-10.4c2.7-4.9,7.7-8,13.3-8.4c5.6-0.4,10.9,2.1,14.3,6.6l3.6,4.8
				c2.8,3.7,7.2,5.9,11.8,5.9c0.5,0,0.9,0.4,0.9,0.9c0,0.5-0.4,0.9-0.9,0.9c-5.2,0-10.1-2.5-13.2-6.6l-3.6-4.8
				c-3-4-7.7-6.2-12.7-5.9c-5,0.3-9.4,3.1-11.9,7.5l-5.8,10.4c-2.3,4-6,6.9-10.5,8c-4.5,1.1-9.1,0.3-13-2.3
				c-5.2-3.4-12-3.2-16.9,0.5l-10.1,7.6C19.4,84.4,19.2,84.4,19,84.4z"/>
		</g>
		<g>
			<g>
				<defs>
					<path id="SVGID_1_" d="M21.6,83.7c0,1.5-1.2,2.7-2.7,2.7c-1.5,0-2.7-1.2-2.7-2.7c0-1.5,1.2-2.7,2.7-2.7
						C20.4,81.1,21.6,82.3,21.6,83.7z"/>
				</defs>
				<use xlink:href="#SVGID_1_"  style="overflow:visible;fill:#FE0000;"/>
				<clipPath id="SVGID_2_">
					<use xlink:href="#SVGID_1_"  style="overflow:visible;"/>
				</clipPath>
				<rect x="16.3" y="81.1" class="st2" width="0.8" height="5.4"/>
				<rect x="17.1" y="81.1" class="st2" width="1.1" height="5.4"/>
				<rect x="18.2" y="81.1" class="st2" width="1.1" height="5.4"/>
				<rect x="19.3" y="81.1" class="st2" width="1.1" height="5.4"/>
				<rect x="20.4" y="81.1" class="st2" width="1.1" height="5.4"/>
				<rect x="21.5" y="81.1" class="st2" width="0.2" height="5.4"/>
			</g>
		</g>
		<g>
			<g>
				<defs>
					<path id="SVGID_3_" d="M47.1,74.1c0,1.5-1.2,2.7-2.7,2.7c-1.5,0-2.7-1.2-2.7-2.7c0-1.5,1.2-2.7,2.7-2.7
						C45.9,71.4,47.1,72.6,47.1,74.1z"/>
				</defs>
				<use xlink:href="#SVGID_3_"  style="overflow:visible;fill:#FE0000;"/>
				<clipPath id="SVGID_4_">
					<use xlink:href="#SVGID_3_"  style="overflow:visible;"/>
				</clipPath>
				<rect x="41.7" y="71.4" class="st3" width="1.2" height="5.4"/>
				<rect x="42.9" y="71.4" class="st3" width="1.6" height="5.4"/>
				<rect x="44.6" y="71.4" class="st3" width="1.6" height="5.4"/>
				<rect x="46.2" y="71.4" class="st3" width="1" height="5.4"/>
			</g>
		</g>
		<g>
			<g>
				<defs>
					<path id="SVGID_5_" d="M73.1,68.2c0,1.5-1.2,2.7-2.7,2.7c-1.5,0-2.7-1.2-2.7-2.7c0-1.5,1.2-2.7,2.7-2.7
						C71.9,65.5,73.1,66.7,73.1,68.2z"/>
				</defs>
				<use xlink:href="#SVGID_5_"  style="overflow:visible;fill:#FE0000;"/>
				<clipPath id="SVGID_6_">
					<use xlink:href="#SVGID_5_"  style="overflow:visible;"/>
				</clipPath>
				<rect x="67.7" y="65.5" class="st4" width="1" height="5.4"/>
				<rect x="68.7" y="65.5" class="st4" width="1.6" height="5.4"/>
				<rect x="70.3" y="65.5" class="st4" width="1.6" height="5.4"/>
				<rect x="71.9" y="65.5" class="st4" width="1.2" height="5.4"/>
			</g>
		</g>
		<g>
			<g>
				<defs>
					<path id="SVGID_7_" d="M92,51.8c0,1.5-1.2,2.7-2.7,2.7c-1.5,0-2.7-1.2-2.7-2.7c0-1.5,1.2-2.7,2.7-2.7
						C90.8,49.1,92,50.3,92,51.8z"/>
				</defs>
				<use xlink:href="#SVGID_7_"  style="overflow:visible;fill:#FE0000;"/>
				<clipPath id="SVGID_8_">
					<use xlink:href="#SVGID_7_"  style="overflow:visible;"/>
				</clipPath>
				<rect x="86.6" y="49.1" class="st5" width="0.7" height="5.4"/>
				<rect x="87.3" y="49.1" class="st5" width="1.6" height="5.4"/>
				<rect x="88.9" y="49.1" class="st5" width="1.6" height="5.4"/>
				<rect x="90.5" y="49.1" class="st5" width="1.5" height="5.4"/>
			</g>
		</g>
		<g>
			<g>
				<defs>
					<path id="SVGID_9_" d="M119.7,69c0,1.5-1.2,2.7-2.7,2.7c-1.5,0-2.7-1.2-2.7-2.7c0-1.5,1.2-2.7,2.7-2.7
						C118.5,66.3,119.7,67.5,119.7,69z"/>
				</defs>
				<use xlink:href="#SVGID_9_"  style="overflow:visible;fill:#FE0000;"/>
				<clipPath id="SVGID_10_">
					<use xlink:href="#SVGID_9_"  style="overflow:visible;"/>
				</clipPath>
				<rect x="114.3" y="66.3" class="st6" width="1.3" height="5.4"/>
				<rect x="115.6" y="66.3" class="st6" width="1.6" height="5.4"/>
				<rect x="117.2" y="66.3" class="st6" width="1.6" height="5.4"/>
				<rect x="118.8" y="66.3" class="st6" width="0.9" height="5.4"/>
			</g>
		</g>
	</g>
	<g>
		<g>
			<g>
				<defs>
					<path id="SVGID_11_" d="M22.8,65.5c0,1.4-1.1,2.5-2.5,2.5c-1.4,0-2.5-1.1-2.5-2.5c0-1.4,1.1-2.5,2.5-2.5
						C21.6,62.9,22.8,64.1,22.8,65.5z"/>
				</defs>
				<use xlink:href="#SVGID_11_"  style="overflow:visible;fill:#007F00;"/>
				<clipPath id="SVGID_12_">
					<use xlink:href="#SVGID_11_"  style="overflow:visible;"/>
				</clipPath>
				<rect x="17.7" y="62.9" class="st7" width="1.3" height="5.1"/>
				<rect x="19" y="62.9" class="st7" width="1.3" height="5.1"/>
				<rect x="20.3" y="62.9" class="st7" width="1.3" height="5.1"/>
				<rect x="21.6" y="62.9" class="st7" width="1.2" height="5.1"/>
			</g>
		</g>
		<g>
			<g>
				<defs>
					<path id="SVGID_13_" d="M46,65.5c0,1.4-1.1,2.5-2.5,2.5c-1.4,0-2.5-1.1-2.5-2.5c0-1.4,1.1-2.5,2.5-2.5
						C44.8,62.9,46,64.1,46,65.5z"/>
				</defs>
				<use xlink:href="#SVGID_13_"  style="overflow:visible;fill:#007F00;"/>
				<clipPath id="SVGID_14_">
					<use xlink:href="#SVGID_13_"  style="overflow:visible;"/>
				</clipPath>
				<rect x="40.9" y="62.9" class="st8" width="0.9" height="5.1"/>
				<rect x="41.7" y="62.9" class="st8" width="1.3" height="5.1"/>
				<rect x="43.1" y="62.9" class="st8" width="1.3" height="5.1"/>
				<rect x="44.4" y="62.9" class="st8" width="1.3" height="5.1"/>
				<rect x="45.7" y="62.9" class="st8" width="0.3" height="5.1"/>
			</g>
		</g>
		<g>
			<g>
				<defs>
					<path id="SVGID_15_" d="M69.2,53.7c0,1.4-1.1,2.5-2.5,2.5c-1.4,0-2.5-1.1-2.5-2.5s1.1-2.5,2.5-2.5C68,51.1,69.2,52.3,69.2,53.7
						z"/>
				</defs>
				<use xlink:href="#SVGID_15_"  style="overflow:visible;fill:#007F00;"/>
				<clipPath id="SVGID_16_">
					<use xlink:href="#SVGID_15_"  style="overflow:visible;"/>
				</clipPath>
				<rect x="64.1" y="51.1" class="st9" width="0.9" height="5.1"/>
				<rect x="65" y="51.1" class="st9" width="1.3" height="5.1"/>
				<rect x="66.3" y="51.1" class="st9" width="1.3" height="5.1"/>
				<rect x="67.7" y="51.1" class="st9" width="1.3" height="5.1"/>
				<rect x="69" y="51.1" class="st9" width="0.2" height="5.1"/>
			</g>
		</g>
		<g>
			<g>
				<defs>
					<path id="SVGID_17_" d="M92.4,60.6c0,1.4-1.1,2.5-2.5,2.5c-1.4,0-2.5-1.1-2.5-2.5s1.1-2.5,2.5-2.5
						C91.2,58.1,92.4,59.2,92.4,60.6z"/>
				</defs>
				<use xlink:href="#SVGID_17_"  style="overflow:visible;fill:#007F00;"/>
				<clipPath id="SVGID_18_">
					<use xlink:href="#SVGID_17_"  style="overflow:visible;"/>
				</clipPath>
				<rect x="87.3" y="58.1" class="st10" width="0.5" height="5.1"/>
				<rect x="87.8" y="58.1" class="st10" width="1.3" height="5.1"/>
				<rect x="89.2" y="58.1" class="st10" width="1.3" height="5.1"/>
				<rect x="90.5" y="58.1" class="st10" width="1.3" height="5.1"/>
				<rect x="91.8" y="58.1" class="st10" width="0.6" height="5.1"/>
			</g>
		</g>
		<g>
			<g>
				<defs>
					<circle id="SVGID_19_" cx="112.9" cy="53.3" r="2.5"/>
				</defs>
				<use xlink:href="#SVGID_19_"  style="overflow:visible;fill:#007F00;"/>
				<clipPath id="SVGID_20_">
					<use xlink:href="#SVGID_19_"  style="overflow:visible;"/>
				</clipPath>
				<rect x="110.3" y="50.8" class="st11" width="0.4" height="5.1"/>
				<rect x="110.8" y="50.8" class="st11" width="1.3" height="5.1"/>
				<rect x="112.1" y="50.8" class="st11" width="1.3" height="5.1"/>
				<rect x="113.4" y="50.8" class="st11" width="1.3" height="5.1"/>
				<rect x="114.7" y="50.8" class="st11" width="0.7" height="5.1"/>
			</g>
		</g>
		<g>
			<path class="st12" d="M113.7,51.7c-0.4-0.4-1-0.4-1.4,0c-0.6,0.6-14.6,14.8-33.4,4.5c-7.3-5.4-17.3-5.2-24.4,0.5L49,61.2
				c-3.2,2.6-7.2,4-11.3,4H25.7c-1.5,0-3-0.2-4.4-0.6v2.1c1.4,0.3,2.9,0.5,4.4,0.5h12.1c4.5,0,9-1.6,12.5-4.4l5.5-4.5
				c6.4-5.1,15.4-5.3,22-0.5c0,0,0.1,0,0.1,0.1c20.1,11.2,35.7-4.6,35.8-4.8C114.1,52.7,114.1,52.1,113.7,51.7z"/>
		</g>
	</g>
</g>
</svg>
