<?xml version="1.0" encoding="utf-8"?>
<!-- Generator: Adobe Illustrator 24.0.3, SVG Export Plug-In . SVG Version: 6.00 Build 0)  -->
<svg version="1.1" id="Layer_1" xmlns="http://www.w3.org/2000/svg" xmlns:xlink="http://www.w3.org/1999/xlink" x="0px" y="0px"
	 viewBox="0 0 131 123" style="enable-background:new 0 0 131 123;" xml:space="preserve">
<style type="text/css">
	.st0{fill:#BFC1BF;}
	.st1{fill:#515151;}
	.st2{clip-path:url(#SVGID_4_);fill:#515151;}
	.st3{clip-path:url(#SVGID_8_);fill:#515151;}
	.st4{clip-path:url(#SVGID_12_);fill:#515151;}
	.st5{clip-path:url(#SVGID_16_);fill:#515151;}
	.st6{clip-path:url(#SVGID_20_);fill:#515151;}
	.st7{clip-path:url(#SVGID_22_);fill:#515151;}
	.st8{clip-path:url(#SVGID_24_);fill:#515151;}
	.st9{clip-path:url(#SVGID_26_);fill:#515151;}
	.st10{clip-path:url(#SVGID_28_);fill:#515151;}
	.st11{clip-path:url(#SVGID_30_);fill:#515151;}
	.st12{clip-path:url(#SVGID_32_);fill:#515151;}
	.st13{clip-path:url(#SVGID_34_);fill:#515151;}
	.st14{clip-path:url(#SVGID_36_);fill:#515151;}
	.st15{clip-path:url(#SVGID_38_);fill:#515151;}
	.st16{clip-path:url(#SVGID_40_);fill:#515151;}
	.st17{clip-path:url(#SVGID_42_);fill:#515151;}
	.st18{clip-path:url(#SVGID_44_);fill:#515151;}
	.st19{clip-path:url(#SVGID_46_);fill:#515151;}
	.st20{clip-path:url(#SVGID_48_);fill:#515151;}
	.st21{clip-path:url(#SVGID_50_);fill:#515151;}
	.st22{clip-path:url(#SVGID_52_);fill:#515151;}
	.st23{clip-path:url(#SVGID_54_);fill:#515151;}
	.st24{clip-path:url(#SVGID_56_);fill:#515151;}
	.st25{clip-path:url(#SVGID_58_);fill:#515151;}
	.st26{clip-path:url(#SVGID_60_);fill:#515151;}
	.st27{clip-path:url(#SVGID_62_);fill:#515151;}
	.st28{clip-path:url(#SVGID_64_);fill:#515151;}
	.st29{clip-path:url(#SVGID_66_);fill:#515151;}
	.st30{clip-path:url(#SVGID_68_);fill:#515151;}
	.st31{clip-path:url(#SVGID_70_);fill:#515151;}
	.st32{clip-path:url(#SVGID_72_);fill:#515151;}
	.st33{clip-path:url(#SVGID_74_);fill:#515151;}
	.st34{clip-path:url(#SVGID_76_);fill:#515151;}
	.st35{clip-path:url(#SVGID_78_);fill:#515151;}
	.st36{clip-path:url(#SVGID_80_);fill:#515151;}
	.st37{clip-path:url(#SVGID_82_);fill:#515151;}
	.st38{clip-path:url(#SVGID_84_);fill:#515151;}
	.st39{clip-path:url(#SVGID_86_);fill:#515151;}
	.st40{clip-path:url(#SVGID_88_);fill:#515151;}
	.st41{clip-path:url(#SVGID_90_);fill:#515151;}
	.st42{clip-path:url(#SVGID_92_);fill:#515151;}
	.st43{clip-path:url(#SVGID_94_);fill:#515151;}
	.st44{clip-path:url(#SVGID_96_);fill:#515151;}
	.st45{clip-path:url(#SVGID_98_);fill:#515151;}
	.st46{clip-path:url(#SVGID_100_);fill:#515151;}
	.st47{clip-path:url(#SVGID_102_);fill:#515151;}
</style>
<path class="st0" d="M123.5,76.7c7-18.7,8.1-48.5-18.8-59.1C77.9,7,17.9,11.6,3.6,51.4C-9.4,87.7,88.5,170.4,123.5,76.7z"/>
<g>
	<g>
		<g>
			<path class="st1" d="M19,84.4c-0.3,0-0.6-0.1-0.7-0.4c-0.3-0.4-0.2-1,0.2-1.3l10.1-7.6c5.6-4.2,13.2-4.4,19-0.6
				c3.4,2.3,7.5,3,11.5,2s7.3-3.5,9.3-7.1L74.2,59c2.7-4.9,7.7-8,13.3-8.4c5.6-0.4,10.9,2.1,14.3,6.6l3.6,4.8
				c2.8,3.7,7.2,5.9,11.8,5.9c0.5,0,0.9,0.4,0.9,0.9s-0.4,0.9-0.9,0.9c-5.2,0-10.1-2.5-13.2-6.6l-3.6-4.8c-3-4-7.7-6.2-12.7-5.9
				s-9.4,3.1-11.9,7.5L70,70.3c-2.3,4-6,6.9-10.5,8s-9.1,0.3-13-2.3c-5.2-3.4-12-3.2-16.9,0.5l-10.1,7.6
				C19.4,84.4,19.2,84.4,19,84.4z"/>
		</g>
		<g>
			<g>
				<g>
					<path id="SVGID_1_" class="st1" d="M21.6,83.7c0,1.5-1.2,2.7-2.7,2.7s-2.7-1.2-2.7-2.7s1.2-2.7,2.7-2.7
						C20.4,81.1,21.6,82.3,21.6,83.7z"/>
				</g>
				<g>
					<defs>
						<path id="SVGID_2_" d="M21.6,83.7c0,1.5-1.2,2.7-2.7,2.7s-2.7-1.2-2.7-2.7s1.2-2.7,2.7-2.7C20.4,81.1,21.6,82.3,21.6,83.7z"/>
					</defs>
					<use xlink:href="#SVGID_2_"  style="overflow:visible;fill:#515151;"/>
					<clipPath id="SVGID_4_">
						<use xlink:href="#SVGID_2_"  style="overflow:visible;"/>
					</clipPath>
					<rect x="16.3" y="81.1" class="st2" width="0.8" height="5.4"/>
				</g>
				<g>
					<defs>
						<path id="SVGID_6_" d="M21.6,83.7c0,1.5-1.2,2.7-2.7,2.7s-2.7-1.2-2.7-2.7s1.2-2.7,2.7-2.7C20.4,81.1,21.6,82.3,21.6,83.7z"/>
					</defs>
					<use xlink:href="#SVGID_6_"  style="overflow:visible;fill:#515151;"/>
					<clipPath id="SVGID_8_">
						<use xlink:href="#SVGID_6_"  style="overflow:visible;"/>
					</clipPath>
					<rect x="17.1" y="81.1" class="st3" width="1.1" height="5.4"/>
				</g>
				<g>
					<defs>
						<path id="SVGID_10_" d="M21.6,83.7c0,1.5-1.2,2.7-2.7,2.7s-2.7-1.2-2.7-2.7s1.2-2.7,2.7-2.7C20.4,81.1,21.6,82.3,21.6,83.7z"
							/>
					</defs>
					<use xlink:href="#SVGID_10_"  style="overflow:visible;fill:#515151;"/>
					<clipPath id="SVGID_12_">
						<use xlink:href="#SVGID_10_"  style="overflow:visible;"/>
					</clipPath>
					<rect x="18.2" y="81.1" class="st4" width="1.1" height="5.4"/>
				</g>
				<g>
					<defs>
						<path id="SVGID_14_" d="M21.6,83.7c0,1.5-1.2,2.7-2.7,2.7s-2.7-1.2-2.7-2.7s1.2-2.7,2.7-2.7C20.4,81.1,21.6,82.3,21.6,83.7z"
							/>
					</defs>
					<use xlink:href="#SVGID_14_"  style="overflow:visible;fill:#515151;"/>
					<clipPath id="SVGID_16_">
						<use xlink:href="#SVGID_14_"  style="overflow:visible;"/>
					</clipPath>
					<rect x="19.3" y="81.1" class="st5" width="1.1" height="5.4"/>
				</g>
				<g>
					<defs>
						<path id="SVGID_18_" d="M21.6,83.7c0,1.5-1.2,2.7-2.7,2.7s-2.7-1.2-2.7-2.7s1.2-2.7,2.7-2.7C20.4,81.1,21.6,82.3,21.6,83.7z"
							/>
					</defs>
					<use xlink:href="#SVGID_18_"  style="overflow:visible;fill:#515151;"/>
					<clipPath id="SVGID_20_">
						<use xlink:href="#SVGID_18_"  style="overflow:visible;"/>
					</clipPath>
					<rect x="20.4" y="81.1" class="st6" width="1.1" height="5.4"/>
				</g>
				<g>
					<defs>
						<path id="SVGID_21_" d="M21.6,83.7c0,1.5-1.2,2.7-2.7,2.7s-2.7-1.2-2.7-2.7s1.2-2.7,2.7-2.7C20.4,81.1,21.6,82.3,21.6,83.7z"
							/>
					</defs>
					<use xlink:href="#SVGID_21_"  style="overflow:visible;fill:#515151;"/>
					<clipPath id="SVGID_22_">
						<use xlink:href="#SVGID_21_"  style="overflow:visible;"/>
					</clipPath>
					<rect x="21.5" y="81.1" class="st7" width="0.2" height="5.4"/>
				</g>
			</g>
		</g>
		<g>
			<g>
				<g>
					<path id="SVGID_3_" class="st1" d="M47.1,74.1c0,1.5-1.2,2.7-2.7,2.7s-2.7-1.2-2.7-2.7s1.2-2.7,2.7-2.7
						C45.9,71.4,47.1,72.6,47.1,74.1z"/>
				</g>
				<g>
					<defs>
						<circle id="SVGID_23_" cx="44.4" cy="74.1" r="2.7"/>
					</defs>
					<use xlink:href="#SVGID_23_"  style="overflow:visible;fill:#515151;"/>
					<clipPath id="SVGID_24_">
						<use xlink:href="#SVGID_23_"  style="overflow:visible;"/>
					</clipPath>
					<rect x="41.7" y="71.4" class="st8" width="1.2" height="5.4"/>
				</g>
				<g>
					<defs>
						<circle id="SVGID_25_" cx="44.4" cy="74.1" r="2.7"/>
					</defs>
					<use xlink:href="#SVGID_25_"  style="overflow:visible;fill:#515151;"/>
					<clipPath id="SVGID_26_">
						<use xlink:href="#SVGID_25_"  style="overflow:visible;"/>
					</clipPath>
					<rect x="42.9" y="71.4" class="st9" width="1.6" height="5.4"/>
				</g>
				<g>
					<defs>
						<circle id="SVGID_27_" cx="44.4" cy="74.1" r="2.7"/>
					</defs>
					<use xlink:href="#SVGID_27_"  style="overflow:visible;fill:#515151;"/>
					<clipPath id="SVGID_28_">
						<use xlink:href="#SVGID_27_"  style="overflow:visible;"/>
					</clipPath>
					<rect x="44.6" y="71.4" class="st10" width="1.6" height="5.4"/>
				</g>
				<g>
					<defs>
						<circle id="SVGID_29_" cx="44.4" cy="74.1" r="2.7"/>
					</defs>
					<use xlink:href="#SVGID_29_"  style="overflow:visible;fill:#515151;"/>
					<clipPath id="SVGID_30_">
						<use xlink:href="#SVGID_29_"  style="overflow:visible;"/>
					</clipPath>
					<rect x="46.2" y="71.4" class="st11" width="1" height="5.4"/>
				</g>
			</g>
		</g>
		<g>
			<g>
				<g>
					<path id="SVGID_5_" class="st1" d="M73.1,68.2c0,1.5-1.2,2.7-2.7,2.7s-2.7-1.2-2.7-2.7s1.2-2.7,2.7-2.7S73.1,66.7,73.1,68.2z"
						/>
				</g>
				<g>
					<defs>
						<circle id="SVGID_31_" cx="70.4" cy="68.2" r="2.7"/>
					</defs>
					<use xlink:href="#SVGID_31_"  style="overflow:visible;fill:#515151;"/>
					<clipPath id="SVGID_32_">
						<use xlink:href="#SVGID_31_"  style="overflow:visible;"/>
					</clipPath>
					<rect x="67.7" y="65.5" class="st12" width="1" height="5.4"/>
				</g>
				<g>
					<defs>
						<circle id="SVGID_33_" cx="70.4" cy="68.2" r="2.7"/>
					</defs>
					<use xlink:href="#SVGID_33_"  style="overflow:visible;fill:#515151;"/>
					<clipPath id="SVGID_34_">
						<use xlink:href="#SVGID_33_"  style="overflow:visible;"/>
					</clipPath>
					<rect x="68.7" y="65.5" class="st13" width="1.6" height="5.4"/>
				</g>
				<g>
					<defs>
						<circle id="SVGID_35_" cx="70.4" cy="68.2" r="2.7"/>
					</defs>
					<use xlink:href="#SVGID_35_"  style="overflow:visible;fill:#515151;"/>
					<clipPath id="SVGID_36_">
						<use xlink:href="#SVGID_35_"  style="overflow:visible;"/>
					</clipPath>
					<rect x="70.3" y="65.5" class="st14" width="1.6" height="5.4"/>
				</g>
				<g>
					<defs>
						<circle id="SVGID_37_" cx="70.4" cy="68.2" r="2.7"/>
					</defs>
					<use xlink:href="#SVGID_37_"  style="overflow:visible;fill:#515151;"/>
					<clipPath id="SVGID_38_">
						<use xlink:href="#SVGID_37_"  style="overflow:visible;"/>
					</clipPath>
					<rect x="71.9" y="65.5" class="st15" width="1.2" height="5.4"/>
				</g>
			</g>
		</g>
		<g>
			<g>
				<g>
					<path id="SVGID_7_" class="st1" d="M92,51.8c0,1.5-1.2,2.7-2.7,2.7s-2.7-1.2-2.7-2.7s1.2-2.7,2.7-2.7S92,50.3,92,51.8z"/>
				</g>
				<g>
					<defs>
						<circle id="SVGID_39_" cx="89.3" cy="51.8" r="2.7"/>
					</defs>
					<use xlink:href="#SVGID_39_"  style="overflow:visible;fill:#515151;"/>
					<clipPath id="SVGID_40_">
						<use xlink:href="#SVGID_39_"  style="overflow:visible;"/>
					</clipPath>
					<rect x="86.6" y="49.1" class="st16" width="0.7" height="5.4"/>
				</g>
				<g>
					<defs>
						<circle id="SVGID_41_" cx="89.3" cy="51.8" r="2.7"/>
					</defs>
					<use xlink:href="#SVGID_41_"  style="overflow:visible;fill:#515151;"/>
					<clipPath id="SVGID_42_">
						<use xlink:href="#SVGID_41_"  style="overflow:visible;"/>
					</clipPath>
					<rect x="87.3" y="49.1" class="st17" width="1.6" height="5.4"/>
				</g>
				<g>
					<defs>
						<circle id="SVGID_43_" cx="89.3" cy="51.8" r="2.7"/>
					</defs>
					<use xlink:href="#SVGID_43_"  style="overflow:visible;fill:#515151;"/>
					<clipPath id="SVGID_44_">
						<use xlink:href="#SVGID_43_"  style="overflow:visible;"/>
					</clipPath>
					<rect x="88.9" y="49.1" class="st18" width="1.6" height="5.4"/>
				</g>
				<g>
					<defs>
						<circle id="SVGID_45_" cx="89.3" cy="51.8" r="2.7"/>
					</defs>
					<use xlink:href="#SVGID_45_"  style="overflow:visible;fill:#515151;"/>
					<clipPath id="SVGID_46_">
						<use xlink:href="#SVGID_45_"  style="overflow:visible;"/>
					</clipPath>
					<rect x="90.5" y="49.1" class="st19" width="1.5" height="5.4"/>
				</g>
			</g>
		</g>
		<g>
			<g>
				<g>
					<path id="SVGID_9_" class="st1" d="M119.7,69c0,1.5-1.2,2.7-2.7,2.7s-2.7-1.2-2.7-2.7s1.2-2.7,2.7-2.7S119.7,67.5,119.7,69z"/>
				</g>
				<g>
					<defs>
						<circle id="SVGID_47_" cx="117" cy="69" r="2.7"/>
					</defs>
					<use xlink:href="#SVGID_47_"  style="overflow:visible;fill:#515151;"/>
					<clipPath id="SVGID_48_">
						<use xlink:href="#SVGID_47_"  style="overflow:visible;"/>
					</clipPath>
					<rect x="114.3" y="66.3" class="st20" width="1.3" height="5.4"/>
				</g>
				<g>
					<defs>
						<circle id="SVGID_49_" cx="117" cy="69" r="2.7"/>
					</defs>
					<use xlink:href="#SVGID_49_"  style="overflow:visible;fill:#515151;"/>
					<clipPath id="SVGID_50_">
						<use xlink:href="#SVGID_49_"  style="overflow:visible;"/>
					</clipPath>
					<rect x="115.6" y="66.3" class="st21" width="1.6" height="5.4"/>
				</g>
				<g>
					<defs>
						<circle id="SVGID_51_" cx="117" cy="69" r="2.7"/>
					</defs>
					<use xlink:href="#SVGID_51_"  style="overflow:visible;fill:#515151;"/>
					<clipPath id="SVGID_52_">
						<use xlink:href="#SVGID_51_"  style="overflow:visible;"/>
					</clipPath>
					<rect x="117.2" y="66.3" class="st22" width="1.6" height="5.4"/>
				</g>
				<g>
					<defs>
						<circle id="SVGID_53_" cx="117" cy="69" r="2.7"/>
					</defs>
					<use xlink:href="#SVGID_53_"  style="overflow:visible;fill:#515151;"/>
					<clipPath id="SVGID_54_">
						<use xlink:href="#SVGID_53_"  style="overflow:visible;"/>
					</clipPath>
					<rect x="118.8" y="66.3" class="st23" width="0.9" height="5.4"/>
				</g>
			</g>
		</g>
	</g>
	<g>
		<g>
			<g>
				<g>
					<path id="SVGID_11_" class="st1" d="M22.8,65.5c0,1.4-1.1,2.5-2.5,2.5s-2.5-1.1-2.5-2.5s1.1-2.5,2.5-2.5
						C21.6,62.9,22.8,64.1,22.8,65.5z"/>
				</g>
				<g>
					<defs>
						<path id="SVGID_55_" d="M22.8,65.5c0,1.4-1.1,2.5-2.5,2.5s-2.5-1.1-2.5-2.5s1.1-2.5,2.5-2.5C21.6,62.9,22.8,64.1,22.8,65.5z"
							/>
					</defs>
					<use xlink:href="#SVGID_55_"  style="overflow:visible;fill:#515151;"/>
					<clipPath id="SVGID_56_">
						<use xlink:href="#SVGID_55_"  style="overflow:visible;"/>
					</clipPath>
					<rect x="17.7" y="62.9" class="st24" width="1.3" height="5.1"/>
				</g>
				<g>
					<defs>
						<path id="SVGID_57_" d="M22.8,65.5c0,1.4-1.1,2.5-2.5,2.5s-2.5-1.1-2.5-2.5s1.1-2.5,2.5-2.5C21.6,62.9,22.8,64.1,22.8,65.5z"
							/>
					</defs>
					<use xlink:href="#SVGID_57_"  style="overflow:visible;fill:#515151;"/>
					<clipPath id="SVGID_58_">
						<use xlink:href="#SVGID_57_"  style="overflow:visible;"/>
					</clipPath>
					<rect x="19" y="62.9" class="st25" width="1.3" height="5.1"/>
				</g>
				<g>
					<defs>
						<path id="SVGID_59_" d="M22.8,65.5c0,1.4-1.1,2.5-2.5,2.5s-2.5-1.1-2.5-2.5s1.1-2.5,2.5-2.5C21.6,62.9,22.8,64.1,22.8,65.5z"
							/>
					</defs>
					<use xlink:href="#SVGID_59_"  style="overflow:visible;fill:#515151;"/>
					<clipPath id="SVGID_60_">
						<use xlink:href="#SVGID_59_"  style="overflow:visible;"/>
					</clipPath>
					<rect x="20.3" y="62.9" class="st26" width="1.3" height="5.1"/>
				</g>
				<g>
					<defs>
						<path id="SVGID_61_" d="M22.8,65.5c0,1.4-1.1,2.5-2.5,2.5s-2.5-1.1-2.5-2.5s1.1-2.5,2.5-2.5C21.6,62.9,22.8,64.1,22.8,65.5z"
							/>
					</defs>
					<use xlink:href="#SVGID_61_"  style="overflow:visible;fill:#515151;"/>
					<clipPath id="SVGID_62_">
						<use xlink:href="#SVGID_61_"  style="overflow:visible;"/>
					</clipPath>
					<rect x="21.6" y="62.9" class="st27" width="1.2" height="5.1"/>
				</g>
			</g>
		</g>
		<g>
			<g>
				<g>
					<path id="SVGID_13_" class="st1" d="M46,65.5c0,1.4-1.1,2.5-2.5,2.5S41,66.9,41,65.5s1.1-2.5,2.5-2.5
						C44.8,62.9,46,64.1,46,65.5z"/>
				</g>
				<g>
					<defs>
						<path id="SVGID_63_" d="M46,65.5c0,1.4-1.1,2.5-2.5,2.5S41,66.9,41,65.5s1.1-2.5,2.5-2.5C44.8,62.9,46,64.1,46,65.5z"/>
					</defs>
					<use xlink:href="#SVGID_63_"  style="overflow:visible;fill:#515151;"/>
					<clipPath id="SVGID_64_">
						<use xlink:href="#SVGID_63_"  style="overflow:visible;"/>
					</clipPath>
					<rect x="40.9" y="62.9" class="st28" width="0.9" height="5.1"/>
				</g>
				<g>
					<defs>
						<path id="SVGID_65_" d="M46,65.5c0,1.4-1.1,2.5-2.5,2.5S41,66.9,41,65.5s1.1-2.5,2.5-2.5C44.8,62.9,46,64.1,46,65.5z"/>
					</defs>
					<use xlink:href="#SVGID_65_"  style="overflow:visible;fill:#515151;"/>
					<clipPath id="SVGID_66_">
						<use xlink:href="#SVGID_65_"  style="overflow:visible;"/>
					</clipPath>
					<rect x="41.7" y="62.9" class="st29" width="1.3" height="5.1"/>
				</g>
				<g>
					<defs>
						<path id="SVGID_67_" d="M46,65.5c0,1.4-1.1,2.5-2.5,2.5S41,66.9,41,65.5s1.1-2.5,2.5-2.5C44.8,62.9,46,64.1,46,65.5z"/>
					</defs>
					<use xlink:href="#SVGID_67_"  style="overflow:visible;fill:#515151;"/>
					<clipPath id="SVGID_68_">
						<use xlink:href="#SVGID_67_"  style="overflow:visible;"/>
					</clipPath>
					<rect x="43.1" y="62.9" class="st30" width="1.3" height="5.1"/>
				</g>
				<g>
					<defs>
						<path id="SVGID_69_" d="M46,65.5c0,1.4-1.1,2.5-2.5,2.5S41,66.9,41,65.5s1.1-2.5,2.5-2.5C44.8,62.9,46,64.1,46,65.5z"/>
					</defs>
					<use xlink:href="#SVGID_69_"  style="overflow:visible;fill:#515151;"/>
					<clipPath id="SVGID_70_">
						<use xlink:href="#SVGID_69_"  style="overflow:visible;"/>
					</clipPath>
					<rect x="44.4" y="62.9" class="st31" width="1.3" height="5.1"/>
				</g>
				<g>
					<defs>
						<path id="SVGID_71_" d="M46,65.5c0,1.4-1.1,2.5-2.5,2.5S41,66.9,41,65.5s1.1-2.5,2.5-2.5C44.8,62.9,46,64.1,46,65.5z"/>
					</defs>
					<use xlink:href="#SVGID_71_"  style="overflow:visible;fill:#515151;"/>
					<clipPath id="SVGID_72_">
						<use xlink:href="#SVGID_71_"  style="overflow:visible;"/>
					</clipPath>
					<rect x="45.7" y="62.9" class="st32" width="0.3" height="5.1"/>
				</g>
			</g>
		</g>
		<g>
			<g>
				<g>
					<path id="SVGID_15_" class="st1" d="M69.2,53.7c0,1.4-1.1,2.5-2.5,2.5s-2.5-1.1-2.5-2.5s1.1-2.5,2.5-2.5
						C68,51.1,69.2,52.3,69.2,53.7z"/>
				</g>
				<g>
					<defs>
						<path id="SVGID_73_" d="M69.2,53.7c0,1.4-1.1,2.5-2.5,2.5s-2.5-1.1-2.5-2.5s1.1-2.5,2.5-2.5C68,51.1,69.2,52.3,69.2,53.7z"/>
					</defs>
					<use xlink:href="#SVGID_73_"  style="overflow:visible;fill:#515151;"/>
					<clipPath id="SVGID_74_">
						<use xlink:href="#SVGID_73_"  style="overflow:visible;"/>
					</clipPath>
					<rect x="64.1" y="51.1" class="st33" width="0.9" height="5.1"/>
				</g>
				<g>
					<defs>
						<path id="SVGID_75_" d="M69.2,53.7c0,1.4-1.1,2.5-2.5,2.5s-2.5-1.1-2.5-2.5s1.1-2.5,2.5-2.5C68,51.1,69.2,52.3,69.2,53.7z"/>
					</defs>
					<use xlink:href="#SVGID_75_"  style="overflow:visible;fill:#515151;"/>
					<clipPath id="SVGID_76_">
						<use xlink:href="#SVGID_75_"  style="overflow:visible;"/>
					</clipPath>
					<rect x="65" y="51.1" class="st34" width="1.3" height="5.1"/>
				</g>
				<g>
					<defs>
						<path id="SVGID_77_" d="M69.2,53.7c0,1.4-1.1,2.5-2.5,2.5s-2.5-1.1-2.5-2.5s1.1-2.5,2.5-2.5C68,51.1,69.2,52.3,69.2,53.7z"/>
					</defs>
					<use xlink:href="#SVGID_77_"  style="overflow:visible;fill:#515151;"/>
					<clipPath id="SVGID_78_">
						<use xlink:href="#SVGID_77_"  style="overflow:visible;"/>
					</clipPath>
					<rect x="66.3" y="51.1" class="st35" width="1.3" height="5.1"/>
				</g>
				<g>
					<defs>
						<path id="SVGID_79_" d="M69.2,53.7c0,1.4-1.1,2.5-2.5,2.5s-2.5-1.1-2.5-2.5s1.1-2.5,2.5-2.5C68,51.1,69.2,52.3,69.2,53.7z"/>
					</defs>
					<use xlink:href="#SVGID_79_"  style="overflow:visible;fill:#515151;"/>
					<clipPath id="SVGID_80_">
						<use xlink:href="#SVGID_79_"  style="overflow:visible;"/>
					</clipPath>
					<rect x="67.7" y="51.1" class="st36" width="1.3" height="5.1"/>
				</g>
				<g>
					<defs>
						<path id="SVGID_81_" d="M69.2,53.7c0,1.4-1.1,2.5-2.5,2.5s-2.5-1.1-2.5-2.5s1.1-2.5,2.5-2.5C68,51.1,69.2,52.3,69.2,53.7z"/>
					</defs>
					<use xlink:href="#SVGID_81_"  style="overflow:visible;fill:#515151;"/>
					<clipPath id="SVGID_82_">
						<use xlink:href="#SVGID_81_"  style="overflow:visible;"/>
					</clipPath>
					<rect x="69" y="51.1" class="st37" width="0.2" height="5.1"/>
				</g>
			</g>
		</g>
		<g>
			<g>
				<g>
					<path id="SVGID_17_" class="st1" d="M92.4,60.6c0,1.4-1.1,2.5-2.5,2.5s-2.5-1.1-2.5-2.5s1.1-2.5,2.5-2.5
						C91.2,58.1,92.4,59.2,92.4,60.6z"/>
				</g>
				<g>
					<defs>
						<circle id="SVGID_83_" cx="89.9" cy="60.6" r="2.5"/>
					</defs>
					<use xlink:href="#SVGID_83_"  style="overflow:visible;fill:#515151;"/>
					<clipPath id="SVGID_84_">
						<use xlink:href="#SVGID_83_"  style="overflow:visible;"/>
					</clipPath>
					<rect x="87.3" y="58.1" class="st38" width="0.5" height="5.1"/>
				</g>
				<g>
					<defs>
						<circle id="SVGID_85_" cx="89.9" cy="60.6" r="2.5"/>
					</defs>
					<use xlink:href="#SVGID_85_"  style="overflow:visible;fill:#515151;"/>
					<clipPath id="SVGID_86_">
						<use xlink:href="#SVGID_85_"  style="overflow:visible;"/>
					</clipPath>
					<rect x="87.8" y="58.1" class="st39" width="1.3" height="5.1"/>
				</g>
				<g>
					<defs>
						<circle id="SVGID_87_" cx="89.9" cy="60.6" r="2.5"/>
					</defs>
					<use xlink:href="#SVGID_87_"  style="overflow:visible;fill:#515151;"/>
					<clipPath id="SVGID_88_">
						<use xlink:href="#SVGID_87_"  style="overflow:visible;"/>
					</clipPath>
					<rect x="89.2" y="58.1" class="st40" width="1.3" height="5.1"/>
				</g>
				<g>
					<defs>
						<circle id="SVGID_89_" cx="89.9" cy="60.6" r="2.5"/>
					</defs>
					<use xlink:href="#SVGID_89_"  style="overflow:visible;fill:#515151;"/>
					<clipPath id="SVGID_90_">
						<use xlink:href="#SVGID_89_"  style="overflow:visible;"/>
					</clipPath>
					<rect x="90.5" y="58.1" class="st41" width="1.3" height="5.1"/>
				</g>
				<g>
					<defs>
						<circle id="SVGID_91_" cx="89.9" cy="60.6" r="2.5"/>
					</defs>
					<use xlink:href="#SVGID_91_"  style="overflow:visible;fill:#515151;"/>
					<clipPath id="SVGID_92_">
						<use xlink:href="#SVGID_91_"  style="overflow:visible;"/>
					</clipPath>
					<rect x="91.8" y="58.1" class="st42" width="0.6" height="5.1"/>
				</g>
			</g>
		</g>
		<g>
			<g>
				<g>
					<circle id="SVGID_19_" class="st1" cx="112.9" cy="53.3" r="2.5"/>
				</g>
				<g>
					<defs>
						<circle id="SVGID_93_" cx="112.9" cy="53.3" r="2.5"/>
					</defs>
					<use xlink:href="#SVGID_93_"  style="overflow:visible;fill:#515151;"/>
					<clipPath id="SVGID_94_">
						<use xlink:href="#SVGID_93_"  style="overflow:visible;"/>
					</clipPath>
					<rect x="110.3" y="50.8" class="st43" width="0.4" height="5.1"/>
				</g>
				<g>
					<defs>
						<circle id="SVGID_95_" cx="112.9" cy="53.3" r="2.5"/>
					</defs>
					<use xlink:href="#SVGID_95_"  style="overflow:visible;fill:#515151;"/>
					<clipPath id="SVGID_96_">
						<use xlink:href="#SVGID_95_"  style="overflow:visible;"/>
					</clipPath>
					<rect x="110.8" y="50.8" class="st44" width="1.3" height="5.1"/>
				</g>
				<g>
					<defs>
						<circle id="SVGID_97_" cx="112.9" cy="53.3" r="2.5"/>
					</defs>
					<use xlink:href="#SVGID_97_"  style="overflow:visible;fill:#515151;"/>
					<clipPath id="SVGID_98_">
						<use xlink:href="#SVGID_97_"  style="overflow:visible;"/>
					</clipPath>
					<rect x="112.1" y="50.8" class="st45" width="1.3" height="5.1"/>
				</g>
				<g>
					<defs>
						<circle id="SVGID_99_" cx="112.9" cy="53.3" r="2.5"/>
					</defs>
					<use xlink:href="#SVGID_99_"  style="overflow:visible;fill:#515151;"/>
					<clipPath id="SVGID_100_">
						<use xlink:href="#SVGID_99_"  style="overflow:visible;"/>
					</clipPath>
					<rect x="113.4" y="50.8" class="st46" width="1.3" height="5.1"/>
				</g>
				<g>
					<defs>
						<circle id="SVGID_101_" cx="112.9" cy="53.3" r="2.5"/>
					</defs>
					<use xlink:href="#SVGID_101_"  style="overflow:visible;fill:#515151;"/>
					<clipPath id="SVGID_102_">
						<use xlink:href="#SVGID_101_"  style="overflow:visible;"/>
					</clipPath>
					<rect x="114.7" y="50.8" class="st47" width="0.7" height="5.1"/>
				</g>
			</g>
		</g>
		<g>
			<path class="st1" d="M113.7,51.7c-0.4-0.4-1-0.4-1.4,0c-0.6,0.6-14.6,14.8-33.4,4.5c-7.3-5.4-17.3-5.2-24.4,0.5L49,61.2
				c-3.2,2.6-7.2,4-11.3,4h-12c-1.5,0-3-0.2-4.4-0.6v2.1c1.4,0.3,2.9,0.5,4.4,0.5h12.1c4.5,0,9-1.6,12.5-4.4l5.5-4.5
				c6.4-5.1,15.4-5.3,22-0.5c0,0,0.1,0,0.1,0.1c20.1,11.2,35.7-4.6,35.8-4.8C114.1,52.7,114.1,52.1,113.7,51.7z"/>
		</g>
	</g>
</g>
</svg>
