<?xml version="1.0" encoding="utf-8"?>
<!-- Generator: Adobe Illustrator 24.0.3, SVG Export Plug-In . SVG Version: 6.00 Build 0)  -->
<svg version="1.1"
	 id="svg35" xmlns:cc="http://creativecommons.org/ns#" xmlns:dc="http://purl.org/dc/elements/1.1/" xmlns:inkscape="http://www.inkscape.org/namespaces/inkscape" xmlns:rdf="http://www.w3.org/1999/02/22-rdf-syntax-ns#" xmlns:sodipodi="http://sodipodi.sourceforge.net/DTD/sodipodi-0.dtd" xmlns:svg="http://www.w3.org/2000/svg"
	 xmlns="http://www.w3.org/2000/svg" xmlns:xlink="http://www.w3.org/1999/xlink" x="0px" y="0px" viewBox="0 0 131 123"
	 style="enable-background:new 0 0 131 123;" xml:space="preserve">
<style type="text/css">
	.st0{fill:#BFC1BF;}
	.st1{fill:#FE9E9E;}
	.st2{fill:#44A144;}
	.st3{fill:#515151;}
</style>
<path class="st0" d="M124.4,75c7-18.7,8.1-48.5-18.8-59.1c-26.8-10.6-86.8-6-101,33.7C-8.5,86,89.4,168.7,124.4,75z"/>
<sodipodi:namedview  bordercolor="#666666" borderopacity="1" gridtolerance="10" guidetolerance="10" id="namedview37" inkscape:current-layer="svg35" inkscape:cx="65.5" inkscape:cy="61.5" inkscape:pageopacity="0" inkscape:pageshadow="2" inkscape:window-height="705" inkscape:window-maximized="1" inkscape:window-width="1366" inkscape:window-x="-8" inkscape:window-y="-8" inkscape:zoom="1.9186992" objecttolerance="10" pagecolor="#ffffff" showgrid="false">
	</sodipodi:namedview>
<g id="g862" transform="matrix(0.38684134,0,0,0.38684134,34.294522,35.731733)">
	<path id="path870" inkscape:connector-curvature="0" class="st1" d="M77.7,158.1c0.7-0.3,1.8-0.3,2.5,0s0.1,0.5-1.2,0.5
		C77.6,158.6,77.1,158.3,77.7,158.1z M95.3,158c1-0.3,2.3-0.2,3,0c0.7,0.3-0.1,0.5-1.8,0.5C94.8,158.5,94.3,158.3,95.3,158L95.3,158
		z M103.8,157.1c0.7-0.3,1.6-0.3,1.9,0.1c0.3,0.3-0.3,0.6-1.3,0.5C103.2,157.6,103,157.4,103.8,157.1L103.8,157.1z M139,142.4
		c0-0.2,0.8-1,1.8-1.8c1.6-1.2,1.6-1.2,0.4,0.4C139.8,142.6,139,143.2,139,142.4z M149,133.2c3.5-3.6,6.7-6.5,6.9-6.5
		s-2.4,2.9-5.9,6.5c-3.5,3.6-6.7,6.5-6.9,6.5S145.5,136.8,149,133.2z M174.2,84.7c0-1.4,0.2-1.9,0.5-1.3c0.3,0.7,0.3,1.8,0,2.5
		S174.2,86.1,174.2,84.7z M175.4,71.2c0-5,0.2-7.1,0.4-4.8s0.2,6.4,0,9C175.5,78.1,175.4,76.2,175.4,71.2z M174.1,57.1
		c0-1.2,0.3-1.4,0.6-0.6c0.3,0.7,0.3,1.6-0.1,1.9C174.3,58.8,174,58.2,174.1,57.1L174.1,57.1z M157.9,19c-1.2-1.6-1.2-1.6,0.4-0.4
		c1.7,1.3,2.2,2.1,1.4,2.1C159.4,20.7,158.6,19.9,157.9,19z M153.9,14l-2.4-2.8l2.8,2.4c1.5,1.3,2.8,2.6,2.8,2.8
		C157,17.2,156.2,16.6,153.9,14z M144.4,4.5l-1.9-2.3l2.2,1.9c2.1,1.8,2.7,2.6,1.9,2.6C146.5,6.7,145.4,5.7,144.4,4.5z M124-8.3
		c-0.8-0.5-1.1-1-0.5-1s1.7,0.4,2.5,1s1.1,1,0.5,1S124.8-7.7,124-8.3z M104.8-15c0.7-0.3,1.6-0.3,1.9,0.1c0.3,0.3-0.3,0.6-1.3,0.5
		C104.2-14.4,104-14.6,104.8-15z M97.7-15.9c0.7-0.3,1.8-0.3,2.5,0s0.1,0.5-1.2,0.5S97.1-15.7,97.7-15.9z"/>
	<path id="path868" inkscape:connector-curvature="0" class="st2" d="M26,133.2c-2.4-2.5-4.2-4.5-3.9-4.5s2.5,2,4.9,4.5
		s4.2,4.5,3.9,4.5S28.4,135.7,26,133.2z M17.9,124c-1.2-1.6-1.2-1.6,0.4-0.4c1,0.8,1.8,1.5,1.8,1.8C20,126.2,19.2,125.6,17.9,124z
		 M1.2,83.7c0-1.4,0.2-1.9,0.5-1.2s0.3,1.8,0,2.5S1.2,85.1,1.2,83.7z M0.3,71.7c0-3,0.2-4.3,0.4-2.8c0.2,1.5,0.2,4,0,5.5
		C0.5,76,0.3,74.8,0.3,71.7z M17,19.4c0-0.2,0.8-1,1.8-1.8c1.6-1.2,1.6-1.2,0.4,0.4C17.8,19.6,17,20.2,17,19.4z M26,9.2
		c3-3,5.7-5.5,5.9-5.5c0.3,0-1.9,2.5-4.9,5.5s-5.7,5.5-5.9,5.5C20.8,14.7,23,12.3,26,9.2z M71.8-15c0.7-0.3,1.6-0.3,1.9,0.1
		c0.3,0.3-0.3,0.6-1.3,0.5C71.2-14.4,71-14.6,71.8-15z M78.3-16c1-0.3,2.3-0.2,3,0c0.7,0.3-0.1,0.5-1.8,0.5S77.3-15.7,78.3-16z"/>
	<path id="path866" inkscape:connector-curvature="0" class="st3" d="M75.5,157.7c-12.1-1.9-28.9-8.3-35.3-13.6l-2.3-1.9l25.5-35.1
		L89,71.9V27.7v-44.2l6.8,0.7c39.5,3.9,71.6,33.4,78.3,72.1c2,11.5,0.7,30.1-3,41.5c-3.9,12.3-10.4,23.2-19.4,32.7
		c-16.8,17.7-36.2,26.6-60,27.7C86.1,158.4,78.8,158.2,75.5,157.7z"/>
	<path id="path864" inkscape:connector-curvature="0" class="st3" d="M28.5,134.6c-8.4-7.9-14.5-16.3-19.4-27
		C3.9,96.3,2,88.3,1.3,75.2C0,49.4,8.2,28.5,27,9.7C37.4-0.7,46.6-6.6,59.2-11c6.1-2.1,21.8-5.3,26.6-5.3c1,0,1.3,9.3,1.3,43.2v43.3
		L62,104.7c-13.8,19-25.4,34.9-25.9,35.3S32.2,138.1,28.5,134.6z"/>
</g>
</svg>
