<?xml version="1.0" encoding="utf-8"?>
<!-- Generator: Adobe Illustrator 24.0.3, SVG Export Plug-In . SVG Version: 6.00 Build 0)  -->
<svg version="1.1" id="Layer_1" xmlns="http://www.w3.org/2000/svg" xmlns:xlink="http://www.w3.org/1999/xlink" x="0px" y="0px"
	 viewBox="0 0 131 123" style="enable-background:new 0 0 131 123;" xml:space="preserve">
<style type="text/css">
	.st0{fill:#D30707;}
	.st1{fill:#FFFFFF;}
</style>
<path class="st0" d="M123.7,74.1c7-18.7,8.1-48.5-18.8-59.1C78.1,4.3,18,9,3.8,48.7C-9.2,85,88.6,167.8,123.7,74.1z"/>
<g transform="matrix( 1, 0, 0, 1, 0,0) ">
	<g transform="matrix( 0.5001983642578125, 0, 0, 0.5001983642578125, 70.35,65.15) ">
		<g transform="matrix( 1, 0, 0, 1, 0,0) ">
			<g>
				<g id="Symbol_8_copy_2_0_Layer0_0_FILL">
					<path class="st1" d="M-24.9,22.6v0.2h-50.8v25h147v-25H20.5v-0.2H-24.9 M9.1-45.2v-28.2h-25.2v28.2h-28.2V-20h28.2V8.2H9.1V-20
						h28.2v-25.2H9.1z"/>
				</g>
			</g>
		</g>
	</g>
</g>
</svg>
