<?xml version="1.0" encoding="utf-8"?>
<!-- Generator: Adobe Illustrator 24.0.3, SVG Export Plug-In . SVG Version: 6.00 Build 0)  -->
<svg version="1.1" id="Layer_1" xmlns="http://www.w3.org/2000/svg" xmlns:xlink="http://www.w3.org/1999/xlink" x="0px" y="0px"
	 viewBox="0 0 128 130" style="enable-background:new 0 0 128 130;" xml:space="preserve">
<style type="text/css">
	.st0{fill:#EF0729;}
	.st1{fill:#FFFFFF;}
</style>
<path class="st0" d="M122.4,83c7-18.7,8.1-48.5-18.8-59.1c-26.8-10.6-86.9-6-101.1,33.8C-10.5,94,87.4,176.7,122.4,83z"/>
<g transform="matrix( 1, 0, 0, 1, 0,0) ">
	<g transform="matrix( 1, 0, 0, 1, 65.35,63.45) ">
		<g transform="matrix( 1, 0, 0, 1, 0,0) ">
			<g>
				<g id="Symbol_6_0_Layer0_0_FILL">
					<path class="st1" d="M14-18.4v-8.3h-34.6c-1.5,0-2.8,0.6-3.9,1.7c-1.1,1.1-1.6,2.4-1.6,4V34c0,1.6,0.5,2.9,1.6,4
						c1.1,1.1,2.4,1.6,3.9,1.6h45c1.6,0,2.9-0.5,4-1.6c1.1-1.1,1.6-2.4,1.6-4v-44.6h-8.3c-2.1,0-3.9-0.8-5.5-2.3
						C14.8-14.5,14-16.3,14-18.4 M12,2.1c1.2,0,2.3,0.4,3.1,1.2c0.8,0.8,1.3,1.9,1.3,3.1s-0.4,2.2-1.3,3c-0.8,0.9-1.8,1.3-3.1,1.3
						H6.2v5.8c0,1.2-0.4,2.2-1.2,3c-0.8,0.8-1.8,1.2-3,1.2s-2.2-0.4-3-1.2c-0.8-0.8-1.2-1.8-1.2-3v-5.8h-5.8c-1.2,0-2.3-0.4-3.1-1.3
						c-0.8-0.8-1.3-1.8-1.3-3s0.4-2.2,1.3-3.1c0.8-0.8,1.8-1.2,3.1-1.2h5.8v-5.8c0-1.2,0.4-2.2,1.2-3C-0.3-7.6,0.8-8,2-8
						s2.2,0.4,3,1.3c0.8,0.8,1.2,1.8,1.2,3v5.8H12 M18.3-26.7v8.3c0,1,0.3,1.8,1,2.5c0.7,0.7,1.6,1,2.5,1h8.3V-15L18.3-26.7z"/>
				</g>
			</g>
		</g>
	</g>
</g>
</svg>
