<?xml version="1.0" encoding="utf-8"?>
<!-- Generator: Adobe Illustrator 24.0.3, SVG Export Plug-In . SVG Version: 6.00 Build 0)  -->
<svg version="1.1" id="Layer_1" xmlns="http://www.w3.org/2000/svg" xmlns:xlink="http://www.w3.org/1999/xlink" x="0px" y="0px"
	 viewBox="0 0 131 123" style="enable-background:new 0 0 131 123;" xml:space="preserve">
<style type="text/css">
	.st0{fill:#FF6700;}
	.st1{fill:#FFFFFF;}
</style>
<path class="st0" d="M124.8,72.8c7-18.8,8.1-48.8-18.9-59.5c-27-10.7-87.4-6-101.8,34C-9,83.8,89.5,167.1,124.8,72.8z"/>
<g id="_x37_SPGnX.tif_2_">
	<g>
		<path class="st1" d="M104.1,52.7c0-4.7,0-9.5,0-14.2c0-2.5-0.2-2.6-2.4-1.3c-2.1,1.2-4.2,2.3-6.2,3.6c-1.1,0.7-1.8,0.6-2.7-0.4
			c-9.6-10.3-21.4-14-35.2-10.7C43.8,33.1,33.3,46.1,32,60.3c-1.6,17.9,11.7,35.5,31.4,37.6c0.6,0.1,1.1,0,1.7,0.1
			c1.2,0.1,1.7-0.4,1.7-1.6c0-2.5-0.1-5,0-7.6c0-1.4-0.5-1.9-1.8-2c-8.2-0.7-14.5-4.6-18.8-11.7c-9.1-15.1,1.7-34.9,19.3-35.5
			c6.7-0.3,12.4,1.8,17.3,6.2c1.3,1.1,1.2,1.8-0.3,2.6c-2,1-3.8,2.2-5.7,3.3c-1.6,0.9-1.1,1.4,0.1,2.1C84,57.8,91.1,62,98.3,66.1
			c1.4,0.8,2.8,1.5,4.1,2.4c1.4,0.9,1.8,0.4,1.8-1.1C104.1,62.5,104.1,57.6,104.1,52.7z"/>
	</g>
</g>
</svg>
