<?xml version="1.0" encoding="utf-8"?>
<!-- Generator: Adobe Illustrator 24.0.3, SVG Export Plug-In . SVG Version: 6.00 Build 0)  -->
<svg version="1.1" id="Layer_1" xmlns="http://www.w3.org/2000/svg" xmlns:xlink="http://www.w3.org/1999/xlink" x="0px" y="0px"
	 viewBox="0 0 128 130" style="enable-background:new 0 0 128 130;" xml:space="preserve">
<style type="text/css">
	.st0{fill:#99007C;}
	.st1{fill:#FFFFFF;}
</style>
<path class="st0" d="M122.4,83c7-18.7,8.1-48.5-18.8-59.1c-26.8-10.6-86.9-6-101.1,33.8C-10.5,94,87.4,176.7,122.4,83z"/>
<g transform="matrix( 1, 0, 0, 1, 0,0) ">
	<g transform="matrix( 0.7067718505859375, 0, 0, -0.7067718505859375, 67.65,65.5) ">
		<g transform="matrix( 1, 0, 0, 1, 0,0) ">
			<g>
				<g id="Symbol_2_copy_0_Layer0_0_FILL">
					<path class="st1" d="M-25.8,19.1v16.7h74.1V19.1h-9.7V19H8.2v0.1H-25.8 M-25.8-2.4v16.8h54.5V-2.4H-25.8 M-48.1-30h4.8v66.1
						h7.5V-30h4.8l0.1-0.1l-8.7-16.6l-8.7,16.5L-48.1-30 M11.8-7v-16.8h-37.5V-7H11.8 M1.9-28.3v-16.8h-27.7v16.8H1.9z"/>
				</g>
			</g>
		</g>
	</g>
</g>
</svg>
