<?xml version="1.0" encoding="utf-8"?>
<!-- Generator: Adobe Illustrator 24.0.3, SVG Export Plug-In . SVG Version: 6.00 Build 0)  -->
<svg version="1.1"
	 id="svg43" xmlns:cc="http://creativecommons.org/ns#" xmlns:dc="http://purl.org/dc/elements/1.1/" xmlns:inkscape="http://www.inkscape.org/namespaces/inkscape" xmlns:rdf="http://www.w3.org/1999/02/22-rdf-syntax-ns#" xmlns:sodipodi="http://sodipodi.sourceforge.net/DTD/sodipodi-0.dtd" xmlns:svg="http://www.w3.org/2000/svg"
	 xmlns="http://www.w3.org/2000/svg" xmlns:xlink="http://www.w3.org/1999/xlink" x="0px" y="0px" viewBox="0 0 128 130"
	 style="enable-background:new 0 0 128 130;" xml:space="preserve">
<style type="text/css">
	.st0{fill:#99007C;}
	.st1{fill:#FFFFFF;}
</style>
<path class="st0" d="M122.4,80c7-18.7,8.1-48.5-18.8-59.1c-26.8-10.6-86.9-6-101.1,33.8C-10.5,91,87.4,173.7,122.4,80z"/>
<sodipodi:namedview  bordercolor="#666666" borderopacity="1" gridtolerance="10" guidetolerance="10" id="namedview45" inkscape:current-layer="svg43" inkscape:cx="64" inkscape:cy="65" inkscape:pageopacity="0" inkscape:pageshadow="2" inkscape:window-height="705" inkscape:window-maximized="1" inkscape:window-width="1366" inkscape:window-x="-8" inkscape:window-y="-8" inkscape:zoom="1.8153846" objecttolerance="10" pagecolor="#ffffff" showgrid="false">
	</sodipodi:namedview>
<g id="g39" transform="matrix(-0.70674996,0.00556194,0.00556194,0.70674996,62.685477,65.535199)">
	<g id="g37">
		<g id="use35">
			<g id="Symbol_2_0_Layer0_0_FILL">
				<path id="path26" class="st1" d="M-30.2,2.9l0,17.1l55.3,0V2.9L-30.2,2.9 M-30.2,24.7l0,17l75.2,0v-17h-9.9v-0.1l-30.8,0v0.1
					L-30.2,24.7 M-40.4-42H-48l0,67.1h-4.9l-0.1,0.2l8.8,16.8l8.8-16.8l-0.1-0.1h-4.9L-40.4-42 M-2.1-23.4l0-17.1l-28.1,0l0,17.1
					L-2.1-23.4 M7.9-1.7l0-17.1l-38.1,0v17.1L7.9-1.7z"/>
			</g>
		</g>
	</g>
</g>
</svg>
