<?xml version="1.0" encoding="utf-8"?>
<!-- Generator: Adobe Illustrator 24.0.3, SVG Export Plug-In . SVG Version: 6.00 Build 0)  -->
<svg version="1.1" id="Layer_1" xmlns="http://www.w3.org/2000/svg" xmlns:xlink="http://www.w3.org/1999/xlink" x="0px" y="0px"
	 viewBox="0 0 131 123" style="enable-background:new 0 0 131 123;" xml:space="preserve">
<style type="text/css">
	.st0{fill:#FF6700;}
	.st1{fill:#FFFFFF;}
</style>
<path class="st0" d="M123.8,77c7-18.6,8-48.5-18.7-59.1C78.3,7.3,18.3,11.9,4,51.6C-9,87.9,88.8,170.6,123.8,77z"/>
<g id="_x37_SPGnX.tif_1_">
	<g>
		<path class="st1" d="M31.6,57c0-4.7,0-9.4,0-14.1c0-2.5,0.2-2.5,2.4-1.3c2.1,1.2,4.1,2.3,6.2,3.6c1.1,0.7,1.8,0.6,2.7-0.4
			c9.6-10.3,21.2-13.9,34.9-10.6c13.7,3.4,24.1,16.3,25.4,30.4c1.6,17.8-11.6,35.3-31.1,37.3c-0.6,0.1-1.1,0-1.7,0.1
			c-1.2,0.1-1.7-0.4-1.7-1.6c0-2.5,0.1-5,0-7.5c0-1.4,0.5-1.8,1.8-2c8.2-0.7,14.4-4.6,18.6-11.6c9-15-1.7-34.6-19.2-35.3
			c-6.6-0.3-12.3,1.8-17.2,6.2c-1.3,1.1-1.2,1.8,0.3,2.5c1.9,1,3.8,2.2,5.7,3.2c1.6,0.9,1.1,1.4-0.1,2.1
			c-7.1,4.1-14.2,8.2-21.3,12.3c-1.4,0.8-2.7,1.5-4.1,2.4c-1.4,0.9-1.7,0.4-1.7-1C31.7,66.8,31.6,61.9,31.6,57z"/>
	</g>
</g>
</svg>
