<?xml version="1.0" encoding="UTF-8" standalone="no"?>
<!-- Created with Inkscape (http://www.inkscape.org/) -->

<svg
   width="54.933887mm"
   height="75.883743mm"
   viewBox="0 0 54.933887 75.883743"
   version="1.1"
   id="svg1329"
   inkscape:version="1.1.2 (b8e25be833, 2022-02-05)"
   sodipodi:docname="molivis.svg"
   xmlns:inkscape="http://www.inkscape.org/namespaces/inkscape"
   xmlns:sodipodi="http://sodipodi.sourceforge.net/DTD/sodipodi-0.dtd"
   xmlns="http://www.w3.org/2000/svg"
   xmlns:svg="http://www.w3.org/2000/svg">
  <sodipodi:namedview
     id="namedview1331"
     pagecolor="#ffffff"
     bordercolor="#666666"
     borderopacity="1.0"
     inkscape:pageshadow="2"
     inkscape:pageopacity="0.0"
     inkscape:pagecheckerboard="0"
     inkscape:document-units="mm"
     showgrid="false"
     inkscape:zoom="0.46235269"
     inkscape:cx="-256.29785"
     inkscape:cy="516.9214"
     inkscape:window-width="1366"
     inkscape:window-height="705"
     inkscape:window-x="-8"
     inkscape:window-y="-8"
     inkscape:window-maximized="1"
     inkscape:current-layer="layer1" />
  <defs
     id="defs1326" />
  <g
     inkscape:label="Στρώση 1"
     inkscape:groupmode="layer"
     id="layer1"
     transform="translate(-172.82207,-11.844249)">
    <g
       id="molivis"
       transform="matrix(0.26458333,0,0,0.26458333,159.73938,-187.05698)">
      <g
         id="g815">
        <g
           id="g803">
          <path
             d="m 203.2109,881.4921 c 40.3844,-4.933 47.2425,-37.575 47.2425,-37.575 0,0 5.868,-0.2247 6.5811,-6.1242 0.3676,-3.0413 -2.1647,-3.8142 -3.5624,-3.0044 0.005,-2.1902 -2.2075,-3.43 -4.5394,-1.5868 -0.0149,-1.746 1.6271,-10.1293 -1.5332,-10.6472 -2.5444,-0.417 -2.461,4.7365 -3.4317,10.1153 -2.1684,-0.5172 -4.1781,0.3904 -4.4617,2.9026 -0.4492,3.9786 4.2765,6.8157 4.2765,6.8157 0,0 -3.0912,27.4556 -41.1898,34.2303 -3.7006,1.5861 -3.2549,5.8457 0.6182,4.8738 z"
             style="fill:#100b09"
             id="path681" />
          <g
             id="g749">
            <g
               id="g707">
              <path
                 d="m 129.3548,981.3736 c 0,0 30.9496,57.1756 37.2976,57.1838 5.2075,0.01 22.0967,-39.0487 30.8822,-58.845 1.3896,-11.0749 -2.5558,-25.403 -33.8908,-25.403 -33.8908,0 -34.289,27.0643 -34.289,27.0643 z"
                 style="fill:#fbb277"
                 id="path683" />
              <path
                 d="m 163.6437,954.3094 c -5.825,0 -10.6606,0.7995 -14.6748,2.1237 -0.7298,0.2408 -1.4326,0.4989 -2.1091,0.7727 -0.6766,0.2738 -1.327,0.5633 -1.9523,0.8668 -1.8758,0.9106 -3.5255,1.9476 -4.9762,3.0663 -0.4836,0.3729 -0.9451,0.7549 -1.3854,1.1444 -9.0278,7.9833 -9.1912,19.0904 -9.1912,19.0904 0,0 0.1772,0.2664 0.5017,0.7507 5.2726,-13.9075 14.0505,-15.584 21.0448,-6.6578 5.083,-12.6092 22.1126,-15.0911 29.1903,-0.48 4.3526,-7.68 15.8288,-8.2946 17.3104,5.0223 0.0439,-0.0986 0.089,-0.1983 0.1326,-0.2965 1.3896,-11.0749 -2.5558,-25.403 -33.8908,-25.403 z"
                 style="fill:#fbbd87"
                 id="path685" />
              <path
                 d="m 172.043,961.4611 c 0,0 -11.7387,77.0881 -5.3907,77.0963 5.2075,0.01 22.0967,-39.0487 30.8822,-58.845 5.8121,-22.6198 -25.4915,-18.2513 -25.4915,-18.2513 z"
                 style="fill:#fbca9d"
                 id="path687" />
              <path
                 d="m 150.9013,974.7282 c 1.4651,8.2049 10.9326,62.2642 14.9843,63.6548 9.5014,-19.8446 14.2061,-63.3966 14.2061,-63.3966 0,0 4.6914,-15.1337 -13.2552,-16.3893 -17.9466,-1.2556 -15.9352,16.131 -15.9352,16.131 z"
                 style="fill:#fbbd87"
                 id="path689" />
              <path
                 d="m 149.6323,965.6317 c 0.007,11.813 4.2774,34.208 8.5547,47.3726 -2.413,-22.7062 -8.5547,-47.3726 -8.5547,-47.3726 z"
                 style="fill:#fddabc"
                 id="path691" />
              <path
                 d="m 180.1853,973.3092 c 0.1653,7.1255 0.1219,19.1541 -6.1197,38.3081 3.0803,-25.2576 6.1197,-38.3081 6.1197,-38.3081 z"
                 style="fill:#fddabc"
                 id="path693" />
              <path
                 d="m 163.6437,954.3094 c -33.8908,0 -34.289,27.0642 -34.289,27.0642 0,0 0.1771,0.2664 0.5017,0.7507 4.6903,-12.3608 13.8244,-14.3912 21.0448,-6.6578 5.083,-12.6092 22.1126,-15.0911 29.1903,-0.48 4.3525,-7.68 15.8287,-8.2946 17.3104,5.0223 0.0439,-0.0986 0.089,-0.1983 0.1326,-0.2965 1.3896,-11.0749 -2.5558,-25.403 -33.8908,-25.403 z"
                 style="fill:#d96f32"
                 id="path695" />
              <path
                 d="m 195.8334,967.1088 c -6.4876,-8.0594 -23.7903,-5.6477 -23.7903,-5.6477 0,0 -0.3062,1.7346 -0.7927,4.6407 3.4709,1.4459 6.6382,4.3369 8.8412,8.8847 3.7388,-6.3305 15.8288,-8.2946 17.3104,5.0223 0.0439,-0.0986 0.089,-0.1983 0.1326,-0.2965 0.5085,-4.0529 0.3002,-8.541 -1.7012,-12.6036 z"
                 style="fill:#d26b29"
                 id="path697" />
              <path
                 d="m 166.8364,958.5972 c -17.9466,-1.2556 -15.9352,16.131 -15.9352,16.131 0.0282,0.1577 0.0603,0.3326 0.0942,0.5157 4.9631,-10.3719 21.7601,-12.8637 29.0961,-0.2574 0,0 4.6914,-15.1337 -13.2552,-16.3893 z"
                 style="fill:#d77748"
                 id="path699" />
              <path
                 d="m 166.6524,1038.5574 c 2.767,0 8.832,-11.0211 15.2271,-24.3252 -1.2348,-5.8048 -32.8692,-4.9136 -32.8692,1.3308 7.4873,12.2032 14.8851,22.9909 17.6422,22.9944 z"
                 style="fill:#100b09"
                 id="path701" />
              <path
                 d="m 175.7685,1014.9179 c -2.0965,-1.4112 -7.3169,11.5944 -5.2448,12.68 2.0721,1.0856 7.3413,-11.2688 5.2448,-12.68 z"
                 style="fill:#9c9b9a"
                 id="path703" />
              <path
                 d="m 169.5057,1030.3024 c -1.1661,-0.7849 -3.0492,3.4204 -1.8967,4.0242 1.1525,0.6038 3.0627,-3.2393 1.8967,-4.0242 z"
                 style="fill:#9c9b9a"
                 id="path705" />
            </g>
            <g
               id="g715">
              <path
                 d="m 200.0477,809.1129 c -0.9436,-21.6449 -0.6443,-25.2678 -3.0303,-34.5197 -2.386,-9.252 -5.1435,-21.9273 -37.2741,-22.8098 -17.5012,-0.4807 -42.6354,4.6894 -52.5681,14.9243 -9.912,10.2135 -6.8354,22.7164 -5.8553,33.208 0.9801,10.4916 3.2439,19.6021 3.2439,19.6021 l 95.484,-10.4049 z"
                 style="fill:#f973a9"
                 id="path709" />
              <path
                 d="m 186.927,761.6539 c -6.4277,-6.1765 -31.4652,-9.261 -30.1185,-3.7367 0.7907,3.2433 18.9986,12.1046 27.8215,12.2443 6.3494,0.1005 7.0053,-3.9834 2.297,-8.5077 z"
                 style="fill:#fba0c7"
                 id="path711" />
              <path
                 d="m 152.8366,757.4492 c 0.3434,-2.9336 -9.3242,-2.4023 -9.3424,0.3317 -0.0182,2.734 8.9989,2.602 9.3424,-0.3317 z"
                 style="fill:#fba0c7"
                 id="path713" />
            </g>
            <g
               id="g737">
              <path
                 d="m 103.974,827.4868 c 0,0 23.4426,123.1539 25.3807,153.8868 5.4042,-14.1897 14.3334,-15.8509 21.5465,-6.6454 -1.9578,-35.5776 -11.9713,-130.5197 -14.4467,-160.8157 -21.6791,5.3027 -32.4806,13.5743 -32.4806,13.5743 z"
                 style="fill:#0171b9"
                 id="path717" />
              <path
                 d="m 136.4546,813.9125 c -21.6791,5.3027 -32.4806,13.5744 -32.4806,13.5744 0,0 0.4589,2.4108 1.2531,6.6397 11.4008,-4.4833 22.1972,-7.486 32.1707,-9.419 -0.3783,-4.1523 -0.6979,-7.7922 -0.9433,-10.7951 z"
                 style="fill:#004b81"
                 id="path719" />
              <path
                 d="m 175.8191,812.6435 c 0,0 5.3108,130.2448 4.2725,161.6046 -6.5013,-14.963 -23.9443,-13.0863 -29.1903,0.48 -1.9578,-35.5776 -11.9713,-130.5197 -14.4467,-160.8157 27.6059,-3.0487 39.3645,-1.269 39.3645,-1.269 z"
                 style="fill:#008dd7"
                 id="path721" />
              <path
                 d="m 176.1835,821.8184 c -0.2267,-5.7952 -0.3644,-9.1749 -0.3644,-9.1749 0,0 -11.7585,-1.7797 -39.3645,1.269 0.2454,3.0029 0.565,6.6428 0.9433,10.7951 15.0585,-2.9185 28.2382,-3.4063 38.7857,-2.8892 z"
                 style="fill:#0171b9"
                 id="path723" />
              <path
                 d="m 150.9013,974.7282 c -3.6057,-29.3486 -13.4494,-135.382 -14.4467,-160.8157 5.2625,33.1147 14.7207,149.5406 14.4467,160.8157 z"
                 style="fill:#8ed7f5"
                 id="path725" />
              <path
                 d="m 175.8191,812.6435 c 0,0 5.3108,130.2448 4.2725,161.6046 4.5309,-7.9946 16.7832,-9.7115 17.443,5.4642 3.5301,-13.0107 7.9535,-119.6014 6.5,-159.0558 -6.5065,-5.2606 -28.2154,-8.0131 -28.2154,-8.0131 z"
                 style="fill:#04a0e5"
                 id="path727" />
              <path
                 d="m 195.1957,917.4426 c -5.1748,-1.1924 -5.6382,28.2522 -0.7562,28.824 4.8821,0.5718 5.9309,-27.6316 0.7562,-28.824 z"
                 style="fill:#8ed7f5"
                 id="path729" />
              <path
                 d="m 194.476,952.3388 c -2.8782,-0.6632 -3.4109,9.0043 -0.6955,9.3223 2.7155,0.318 3.5737,-8.6591 0.6955,-9.3223 z"
                 style="fill:#8ed7f5"
                 id="path731" />
              <path
                 d="m 204.0345,820.6566 c -6.5065,-5.2606 -28.2154,-8.0131 -28.2154,-8.0131 0,0 0.1378,3.3797 0.3644,9.1749 17.1264,0.8397 27.3136,4.3205 27.3136,4.3205 0,0 0.2757,0.0769 0.6948,0.0704 -0.0416,-1.9695 -0.0937,-3.8267 -0.1573,-5.5527 z"
                 style="fill:#008dd7"
                 id="path733" />
              <path
                 d="m 180.0916,974.2482 c 1.2497,-28.1591 -4.7913,-135.903 -4.2725,-161.6046 4.1562,34.568 6.9879,152.5883 4.2725,161.6046 z"
                 style="fill:#8ed7f5"
                 id="path735" />
            </g>
            <g
               id="g747">
              <path
                 d="m 203.9978,790.393 c 2.8689,2.8481 5.7576,19.129 5.0582,26.2165 -0.6943,7.035 -4.7991,5.8734 -4.7991,5.8734 0,0 -40.8824,-16.9365 -99.7246,8.5609 -3.1307,0.641 -5.7488,-1.506 -7.5339,-10.4337 -0.9981,-4.9923 -2.1142,-14.0765 -0.3752,-20.5232 1.739,-6.4467 20.4004,-14.2021 50.8467,-18.6336 30.2845,-4.408 49.0601,1.526 56.5279,8.9396 z"
                 style="fill:#d3d4d4"
                 id="path739" />
              <path
                 d="m 95.2403,813.4016 c -0.2833,0 -0.5713,-0.051 -0.8515,-0.1583 -1.2268,-0.4706 -1.8401,-1.8467 -1.3697,-3.0737 2.6235,-6.8412 22.521,-16.0512 55.4745,-20.4174 16.5462,-2.1922 30.8082,-2.098 42.3892,0.2804 8.8535,1.8183 15.79,5.0209 19.0306,8.7865 0.8571,0.9961 0.7445,2.4983 -0.2516,3.3554 -0.9963,0.8574 -2.4988,0.7443 -3.3556,-0.2514 -4.016,-4.6667 -21.1375,-12.2302 -57.1876,-7.4533 -18.4583,2.4456 -30.6579,6.1777 -37.6419,8.878 -9.9583,3.8502 -13.4947,7.1706 -14.0143,8.5258 -0.3631,0.9466 -1.2653,1.528 -2.2221,1.528 z"
                 style="fill:#abadad"
                 id="path741" />
              <path
                 d="m 98.0947,827.5504 c -0.1506,0 -0.3033,-0.0143 -0.4568,-0.0439 -1.2902,-0.2494 -2.1324,-1.5044 -1.883,-2.7947 0.6543,-3.3852 5.7458,-7.3613 13.9689,-10.9092 7.0783,-3.054 19.8715,-7.2072 40.6205,-9.6505 32.6606,-3.845 55.4356,2.6556 60.5438,8.2599 0.8853,0.9713 0.8154,2.4762 -0.1557,3.3613 -0.9709,0.8853 -2.4758,0.8156 -3.3613,-0.1557 -1.638,-1.7971 -7.6903,-4.4996 -17.1084,-6.1864 -7.9724,-1.4281 -21.2731,-2.6828 -39.362,-0.553 -38.6755,4.5539 -50.0016,15.015 -50.4766,16.7504 -0.2196,1.1367 -1.2135,1.9216 -2.3293,1.9216 z"
                 style="fill:#abadad"
                 id="path743" />
              <path
                 d="m 159.799,783.2364 c -2.2091,2.8897 25.8591,4.4969 27.5117,1.7138 1.6526,-2.7831 -25.3025,-4.6036 -27.5117,-1.7138 z"
                 style="fill:#e3e3e3"
                 id="path745" />
            </g>
          </g>
          <g
             id="g801">
            <g
               id="g775">
              <path
                 d="m 143.5952,859.5393 c 0.0835,2.4672 -3.8489,4.6026 -8.7832,4.7697 -4.9344,0.167 -9.0022,-1.6976 -9.0857,-4.1648 -0.0835,-2.4672 3.8489,-4.6026 8.7833,-4.7697 4.9344,-0.1671 9.0022,1.6976 9.0857,4.1648 z"
                 style="fill:#f973a9"
                 id="path751" />
              <path
                 d="m 178.0943,856.5408 c 0.3059,2.4496 4.5253,3.9395 9.4245,3.3277 4.8991,-0.6117 8.6227,-3.0934 8.3169,-5.5429 -0.3059,-2.4496 -4.5253,-3.9395 -9.4245,-3.3277 -4.8992,0.6117 -8.6228,3.0934 -8.3169,5.5429 z"
                 style="fill:#f973a9"
                 id="path753" />
              <g
                 id="g763">
                <circle
                   cx="136.36211"
                   cy="840.5069"
                   r="12.8204"
                   style="fill:#ffffff"
                   id="circle755" />
                <circle
                   cx="137.8235"
                   cy="840.69043"
                   r="9.4741001"
                   transform="rotate(-11.9269,137.82359,840.69113)"
                   style="fill:#100b09"
                   id="circle757" />
                <path
                   d="m 136.3168,838.0361 c -0.0583,1.5129 -1.3321,2.6922 -2.845,2.634 -1.513,-0.0583 -2.6923,-1.332 -2.634,-2.845 0.0583,-1.513 1.332,-2.6923 2.845,-2.634 1.513,0.0582 2.6923,1.332 2.634,2.845 z"
                   style="fill:#ffffff"
                   id="path759" />
                <path
                   d="m 144.0518,845.0176 c -0.0303,0.787 -0.6928,1.4004 -1.4798,1.3701 -0.7869,-0.0303 -1.4003,-0.6929 -1.37,-1.4798 0.0303,-0.787 0.6928,-1.4004 1.4798,-1.3701 0.787,0.0303 1.4004,0.6929 1.37,1.4798 z"
                   style="fill:#ffffff"
                   id="path761" />
              </g>
              <g
                 id="g773">
                <circle
                   cx="180.8483"
                   cy="836.89441"
                   r="12.8204"
                   transform="rotate(-35.5463,180.84895,836.89554)"
                   style="fill:#ffffff"
                   id="circle765" />
                <circle
                   cx="179.43401"
                   cy="837.30573"
                   r="9.4741001"
                   transform="rotate(-3.6701,179.43496,837.31149)"
                   style="fill:#100b09"
                   id="circle767" />
                <circle
                   cx="183.1929"
                   cy="833.91193"
                   r="2.7414999"
                   transform="rotate(-20.0158,183.19219,833.91008)"
                   style="fill:#ffffff"
                   id="circle769" />
                <path
                   d="m 173.9644,842.5593 c 0.1538,0.7724 0.9046,1.2738 1.677,1.12 0.7724,-0.1538 1.2739,-0.9046 1.12,-1.677 -0.1538,-0.7724 -0.9046,-1.2739 -1.677,-1.1201 -0.7724,0.1538 -1.2738,0.9046 -1.12,1.677 z"
                   style="fill:#ffffff"
                   id="path771" />
              </g>
            </g>
            <g
               id="g793">
              <path
                 d="m 162.4663,876.8874 c -3.3402,0.2645 -5.9853,0.094 -7.9564,-0.3107 1.5352,1.6357 4.2459,2.89 8.1362,2.5819 3.9231,-0.3107 6.1122,-1.8852 7.5786,-3.8456 -1.8622,0.7301 -4.3225,1.3022 -7.7584,1.5743 z"
                 style="fill:#f973a9"
                 id="path777" />
              <g
                 id="g785">
                <path
                   d="m 160.8704,857.043 c -6.9977,0.5542 -13.2703,-0.9015 -16.7362,-2.2965 3.3202,10.1791 9.4588,19.1128 18.0143,18.4352 8.5555,-0.6776 12.521,-9.8269 14.888,-21.0409 -3.2031,1.9232 -9.1683,4.348 -16.1661,4.9022 z"
                   style="fill:#100b09"
                   id="path779" />
                <path
                   d="m 171.1634,854.8348 c -2.931,1.0376 -6.4561,1.9043 -10.293,2.2081 -4.0748,0.3227 -7.9024,-0.0366 -11.0744,-0.6681 3.0804,3.6498 6.8645,5.8858 11.3002,5.5345 4.4646,-0.3536 7.6774,-3.0174 10.0673,-7.0745 z"
                   style="fill:#ffffff"
                   id="path781" />
                <path
                   d="m 159.2004,865.4718 c -3.3049,-0.9443 -6.6109,-0.8517 -9.9125,0.1235 3.3284,4.8365 7.6443,7.9995 12.8606,7.5864 2.1495,-0.1702 4.0089,-0.876 5.6264,-2.0142 -2.365,-2.7718 -5.2027,-4.7323 -8.5746,-5.6957 z"
                   style="fill:#f973a9"
                   id="path783" />
              </g>
              <g
                 id="g791">
                <path
                   d="m 156.9312,844.814 c -1.3898,-0.3867 -3.3158,4.0047 -0.8149,4.7066 1.2585,0.3533 2.1672,-4.3304 0.8149,-4.7066 z"
                   style="fill:#100b09"
                   id="path787" />
                <path
                   d="m 162.1952,844.3971 c 1.3116,-0.6007 3.9048,3.4328 1.5456,4.5197 -1.1873,0.547 -2.8218,-3.9353 -1.5456,-4.5197 z"
                   style="fill:#100b09"
                   id="path789" />
              </g>
            </g>
            <g
               id="g799">
              <path
                 d="m 124.4897,821.252 c 0.7703,-4.9245 5.557,-10.7947 12.6699,-10.3031 0.0324,0.002 0.0631,0.0122 0.0954,0.0158 1.4255,0.1564 3.1888,5.6598 1.4448,5.9846 -0.7715,0.1437 -6.9088,0.4366 -13.594,4.657 -0.2928,0.1849 -0.6695,-0.012 -0.616,-0.3542 z"
                 style="fill:#100b09"
                 id="path795" />
              <path
                 d="m 188.7499,818.4892 c -0.5427,-4.9548 -5.054,-11.0391 -12.182,-10.8755 -0.0325,7e-4 -0.0636,0.009 -0.096,0.0114 -1.4312,0.0906 -3.446,5.5069 -1.7188,5.9117 0.764,0.179 6.8814,0.7543 13.3651,5.278 0.284,0.1982 0.6694,0.0188 0.6316,-0.3255 z"
                 style="fill:#100b09"
                 id="path797" />
            </g>
          </g>
        </g>
        <g
           id="g813">
          <g
             id="g809">
            <rect
               x="49.4464"
               y="884.63843"
               width="110.9344"
               height="77.434402"
               rx="2.9791999"
               ry="2.9791999"
               style="fill:#f973a9"
               id="rect805" />
            <rect
               x="54.958302"
               y="889.5224"
               width="99.760002"
               height="67.666397"
               rx="2.9791999"
               ry="2.9791999"
               style="fill:#ffffff"
               id="rect807" />
          </g>
          <path
             d="m 98.0567,880.8344 c -3.1084,1.7141 -5.5686,7.7648 -2.6747,11.2287 1.9449,2.3279 2.3276,-1.4871 3.38,-4.5564 -0.3069,4.034 3.1972,10.6952 4.8634,-0.1353 0.8331,4.4725 3.9024,8.5942 4.6696,2.2014 -0.1707,-0.3718 -0.099,-4.4364 1.0364,-4.5694 1.398,-0.1638 2.4646,0.1495 4.4228,-0.0792 2.2484,-1.5042 -7.6734,-8.5148 -15.6975,-4.0899 z"
             style="fill:#100b09"
             id="path811" />
        </g>
      </g>
      <path
         d="m 87.3785,913.7067 0.7192,-1.3073 0.9152,-1.635 c 0.1308,-0.2612 0.4578,-0.8171 0.9808,-1.667 0.523,-0.8499 0.9368,-1.4711 1.2422,-1.8635 l 1.373,-1.5692 c 0.566,-0.7406 1.0891,-1.3288 1.5692,-1.7651 0.4792,-0.4355 1.0564,-0.9041 1.7327,-1.4057 0.6752,-0.5009 1.3617,-0.9256 2.0595,-1.2749 2.9198,-1.5257 5.9601,-2.2775 9.121,-2.2559 3.1598,0.0223 5.9385,0.8825 8.3362,2.5825 2.5276,1.7877 4.162,4.2283 4.9037,7.3229 0.7846,3.0953 0.6315,6.3861 -0.4576,9.8731 -1.09,3.5305 -3.1823,6.5165 -6.2767,8.9571 l -3.3346,2.4194 c -1.1768,0.8283 -2.1147,1.5473 -2.8114,2.1574 -0.2187,0.2185 -0.3922,0.4362 -0.523,0.654 l -0.6538,1.046 c -0.3054,0.4362 -0.6764,0.9806 -1.1116,1.6346 -0.7417,1.046 -1.7225,1.6673 -2.9422,1.8635 -1.2208,0.1962 -2.3436,-0.0758 -3.3671,-0.8175 -1.0246,-0.7406 -1.6346,-1.7216 -1.8308,-2.9422 -0.196,-1.2199 0.0756,-2.3314 0.8173,-3.3343 0.0429,-0.0431 0.1962,-0.2616 0.4578,-0.654 l 0.7846,-1.308 c 0.2614,-0.392 0.5987,-0.8495 1.0133,-1.3727 0.4138,-0.5232 0.8173,-0.9583 1.2097,-1.308 0.8714,-0.871 2.1136,-1.8736 3.7267,-3.0076 1.743,-1.2196 2.7462,-1.939 3.0076,-2.1574 1.6122,-1.2638 2.6808,-2.746 3.2038,-4.446 1.089,-3.5305 0.7192,-5.9499 -1.1116,-7.2575 -0.4801,-0.3486 -1.0787,-0.6102 -1.7979,-0.7848 -0.7192,-0.1732 -1.6458,-0.1732 -2.7787,0 -1.1341,0.1746 -2.3109,0.5886 -3.5306,1.2426 -0.8286,0.3924 -1.6571,1.0687 -2.4846,2.0266 -0.8286,0.9594 -1.4936,1.8534 -1.9941,2.6806 -0.5016,0.8286 -1.2751,2.202 -2.3211,4.1194 -0.6109,1.046 -1.5151,1.7439 -2.7133,2.092 -1.1995,0.3493 -2.3324,0.2185 -3.4,-0.3924 -1.0685,-0.6098 -1.7755,-1.5035 -2.1249,-2.6806 -0.3484,-1.2196 -0.2176,-2.3752 0.3924,-3.4654 z m 17.0648,27.2649 c 0.8714,0.8725 1.3076,1.94 1.3076,3.2038 0,1.2649 -0.4362,2.3321 -1.3076,3.2038 -0.8725,0.8725 -1.94,1.3076 -3.2036,1.3076 -1.2649,0 -2.3324,-0.4352 -3.2038,-1.3076 -0.8725,-0.8717 -1.3076,-1.939 -1.3076,-3.2038 0,-1.2638 0.4352,-2.3314 1.3076,-3.2038 0.8714,-0.8714 1.939,-1.3076 3.2038,-1.3076 1.2636,0 2.3312,0.4362 3.2036,1.3076 z"
         id="path817" />
    </g>
  </g>
</svg>
