<?xml version="1.0" encoding="UTF-8" standalone="no"?>
<!-- Created with Inkscape (http://www.inkscape.org/) -->

<svg
   width="35.131153mm"
   height="30.053249mm"
   viewBox="0 0 35.131153 30.053249"
   version="1.1"
   id="svg1767"
   inkscape:version="1.1.2 (b8e25be833, 2022-02-05)"
   sodipodi:docname="bar_home.svg"
   xmlns:inkscape="http://www.inkscape.org/namespaces/inkscape"
   xmlns:sodipodi="http://sodipodi.sourceforge.net/DTD/sodipodi-0.dtd"
   xmlns="http://www.w3.org/2000/svg"
   xmlns:svg="http://www.w3.org/2000/svg">
  <sodipodi:namedview
     id="namedview1769"
     pagecolor="#ffffff"
     bordercolor="#666666"
     borderopacity="1.0"
     inkscape:pageshadow="2"
     inkscape:pageopacity="0.0"
     inkscape:pagecheckerboard="0"
     inkscape:document-units="mm"
     showgrid="false"
     inkscape:zoom="0.46235269"
     inkscape:cx="-245.48359"
     inkscape:cy="-296.31059"
     inkscape:window-width="1366"
     inkscape:window-height="705"
     inkscape:window-x="-8"
     inkscape:window-y="-8"
     inkscape:window-maximized="1"
     inkscape:current-layer="layer1" />
  <defs
     id="defs1764" />
  <g
     inkscape:label="Στρώση 1"
     inkscape:groupmode="layer"
     id="layer1"
     transform="translate(-170.13385,-227.03696)">
    <g
       id="home"
       transform="matrix(0.26458333,0,0,0.26458333,107.16955,-15.689883)">
      <path
         d="m 366.2841,985.2465 c 7.3995,-19.7822 8.5365,-51.4039 -19.8893,-62.6574 -28.4261,-11.2535 -92.0634,-6.3252 -107.1631,35.7752 -13.8044,38.4887 89.8998,126.2071 127.0524,26.8822 z"
         style="fill:#ffffff"
         id="path820" />
      <path
         d="m 340.2545,963.7929 -27.7621,-30.4582 c -2.8225,-3.0899 -7.7134,-3.0155 -10.4334,0.1587 0,0 -26.8301,31.2883 -26.8299,31.288 -4.4982,5.3455 0.5529,12.6549 7.1197,11.4704 l 0.2817,18.5267 c 0.0847,5.8696 -1.1984,15.7089 7.4227,15.6982 13.4098,0.9757 9.9403,-5.051 10.2236,-14.9011 -0.9292,-8.482 3.8228,-8.4743 10.6242,-8.3126 4.4715,-0.1278 5.6648,4.4979 5.2616,8.1341 0.509,4.2001 -1.9115,14.7953 5.1279,14.605 13.4625,0.7827 12.9352,-4.4918 12.495,-15.7772 l -0.285,-18.7509 1.7168,-0.0261 c 5.9979,-0.0912 9.0786,-7.2166 5.0373,-11.6549 z"
         style="fill:#100b09"
         id="path822" />
    </g>
  </g>
</svg>
