<?xml version="1.0" encoding="UTF-8" standalone="no"?>
<!-- Created with Inkscape (http://www.inkscape.org/) -->

<svg
   width="35.131153mm"
   height="30.053249mm"
   viewBox="0 0 35.131153 30.053249"
   version="1.1"
   id="svg2075"
   inkscape:version="1.1.2 (b8e25be833, 2022-02-05)"
   sodipodi:docname="bar_next.svg"
   xmlns:inkscape="http://www.inkscape.org/namespaces/inkscape"
   xmlns:sodipodi="http://sodipodi.sourceforge.net/DTD/sodipodi-0.dtd"
   xmlns="http://www.w3.org/2000/svg"
   xmlns:svg="http://www.w3.org/2000/svg">
  <sodipodi:namedview
     id="namedview2077"
     pagecolor="#ffffff"
     bordercolor="#666666"
     borderopacity="1.0"
     inkscape:pageshadow="2"
     inkscape:pageopacity="0.0"
     inkscape:pagecheckerboard="0"
     inkscape:document-units="mm"
     showgrid="false"
     inkscape:zoom="0.46235269"
     inkscape:cx="-299.55487"
     inkscape:cy="231.42506"
     inkscape:window-width="1366"
     inkscape:window-height="705"
     inkscape:window-x="-8"
     inkscape:window-y="-8"
     inkscape:window-maximized="1"
     inkscape:current-layer="layer1" />
  <defs
     id="defs2072" />
  <g
     inkscape:label="Στρώση 1"
     inkscape:groupmode="layer"
     id="layer1"
     transform="translate(-184.4402,-87.406902)">
    <g
       id="next_lvl"
       data-name="next lvl"
       transform="matrix(0.26458333,0,0,0.26458333,14.610715,-155.31994)">
      <path
         d="m 646.3456,985.2465 c -7.3995,-19.7822 -8.5365,-51.4039 19.8893,-62.6574 28.4261,-11.2535 92.0634,-6.3252 107.1631,35.7752 13.8044,38.4887 -89.8998,126.2071 -127.0524,26.8822 z"
         style="fill:#ffffff"
         id="path830" />
      <path
         d="m 740.7633,971.3625 -36.001,-31.0367 v 18.4024 h -27.9656 c -1.7315,0 -3.299,0.7018 -4.4337,1.8365 -1.1348,1.1348 -1.8366,2.7023 -1.8366,4.4338 v 12.728 c 0,3.463 2.8073,6.2703 6.2703,6.2703 h 27.9656 v 18.4023 c 0,0 36.001,-31.0366 36.001,-31.0366 z"
         style="fill:#110b09"
         id="path832" />
    </g>
  </g>
</svg>
