<?xml version="1.0" encoding="UTF-8" standalone="no"?>
<!-- Created with Inkscape (http://www.inkscape.org/) -->

<svg
   width="25.432003mm"
   height="21.9377mm"
   viewBox="0 0 25.432003 21.9377"
   version="1.1"
   id="svg2311"
   inkscape:version="1.1.2 (b8e25be833, 2022-02-05)"
   sodipodi:docname="blueplus.svg"
   xmlns:inkscape="http://www.inkscape.org/namespaces/inkscape"
   xmlns:sodipodi="http://sodipodi.sourceforge.net/DTD/sodipodi-0.dtd"
   xmlns="http://www.w3.org/2000/svg"
   xmlns:svg="http://www.w3.org/2000/svg">
  <sodipodi:namedview
     id="namedview2313"
     pagecolor="#ffffff"
     bordercolor="#666666"
     borderopacity="1.0"
     inkscape:pageshadow="2"
     inkscape:pageopacity="0.0"
     inkscape:pagecheckerboard="0"
     inkscape:document-units="mm"
     showgrid="false"
     inkscape:zoom="0.46235269"
     inkscape:cx="-347.13759"
     inkscape:cy="590.45833"
     inkscape:window-width="1366"
     inkscape:window-height="705"
     inkscape:window-x="-8"
     inkscape:window-y="-8"
     inkscape:window-maximized="1"
     inkscape:current-layer="layer1" />
  <defs
     id="defs2308" />
  <g
     inkscape:label="Στρώση 1"
     inkscape:groupmode="layer"
     id="layer1"
     transform="translate(-196.72909,7.5353241)">
    <g
       id="_"
       data-name="+"
       transform="matrix(0.26458333,0,0,0.26458333,-245.98639,-21.388473)">
      <g
         id="g51">
        <path
           d="m 1763.8125,101.4093 c 5.0796,-13.58 5.8601,-35.2875 -13.6535,-43.0127 -19.5138,-7.7253 -63.1992,-4.3421 -73.5647,24.5588 -9.4763,26.4215 61.714,86.638 87.2183,18.454 z"
           style="fill:#0049ff"
           id="path47" />
        <path
           d="m 1727.3393,135.2725 c -6.2881,0 -11.834,-1.5063 -15.5781,-2.8779 -23.8633,-8.7422 -43.1494,-34.5889 -37.5205,-50.2837 3.667,-10.2227 11.6699,-18.3691 23.1445,-23.5586 18.1768,-8.2227 41.2305,-7.4141 53.6934,-2.4805 9.498,3.7603 15.5771,11.0728 17.5811,21.1475 1.5156,7.6196 0.6025,16.7559 -2.5049,25.0659 v 0 c -9.9795,26.6782 -25.9502,32.9873 -38.8154,32.9873 z m 0.8779,-77.9585 c -9.4033,0 -19.7217,1.7007 -28.7715,5.7939 -10.3574,4.6841 -17.2539,11.6455 -20.498,20.6914 -4.6299,12.9062 13.7666,36.293 34.5332,43.9004 12.4258,4.5513 35.1826,7.0752 47.9902,-27.1665 4.2314,-11.313 6.417,-32.4292 -12.2324,-39.812 -5.3535,-2.1196 -12.8418,-3.4072 -21.0215,-3.4072 z"
           style="fill:#ffffff"
           id="path49" />
      </g>
      <path
         d="m 1728.1352,88.0302 v -9.822 c 0,-2.2129 -1.794,-4.0069 -4.0069,-4.0068 h -1.4571 c -2.2129,0 -4.0068,1.7939 -4.0069,4.0069 v 9.8219 h -9.8219 c -2.2129,0 -4.0069,1.7939 -4.0069,4.0069 v 1.4571 c 0,2.2129 1.794,4.0068 4.0069,4.0068 h 9.822 c 0,0 0,9.822 0,9.822 0,2.2129 1.794,4.0068 4.0069,4.0069 h 1.4571 c 1.1119,0 2.1179,-0.4529 2.8439,-1.1843 0.7188,-0.7242 1.1629,-1.7216 1.163,-2.8226 v -9.822 c 0,0 9.8219,0 9.8219,0 1.1011,0 2.0984,-0.4442 2.8227,-1.1631 0.7314,-0.7259 1.1842,-1.732 1.1842,-2.8438 V 92.037 c 0,-2.213 -1.7939,-4.0069 -4.0069,-4.0069 h -9.8219 z"
         style="fill:#ffffff"
         id="path53" />
    </g>
  </g>
</svg>
