<?xml version="1.0" encoding="utf-8"?>
<!-- Generator: Adobe Illustrator 24.0.3, SVG Export Plug-In . SVG Version: 6.00 Build 0)  -->
<svg version="1.1"
	 id="svg1110" xmlns:inkscape="http://www.inkscape.org/namespaces/inkscape" xmlns:sodipodi="http://sodipodi.sourceforge.net/DTD/sodipodi-0.dtd" xmlns:svg="http://www.w3.org/2000/svg"
	 xmlns="http://www.w3.org/2000/svg" xmlns:xlink="http://www.w3.org/1999/xlink" x="0px" y="0px" viewBox="0 0 148.5 146.9"
	 style="enable-background:new 0 0 148.5 146.9;" xml:space="preserve">
<style type="text/css">
	.st0{fill:#FF663F;}
	.st1{fill:#350073;}
	.st2{fill:#E84D2E;}
</style>
<sodipodi:namedview  bordercolor="#666666" borderopacity="1.0" fit-margin-bottom="0" fit-margin-left="0" fit-margin-right="0" fit-margin-top="0" id="namedview1112" inkscape:current-layer="layer1" inkscape:cx="323.34623" inkscape:cy="506.10715" inkscape:document-units="mm" inkscape:pagecheckerboard="0" inkscape:pageopacity="0.0" inkscape:pageshadow="2" inkscape:window-height="705" inkscape:window-maximized="1" inkscape:window-width="1366" inkscape:window-x="-8" inkscape:window-y="-8" inkscape:zoom="0.46235269" pagecolor="#ffffff" showgrid="false">
	</sodipodi:namedview>
<g id="no_x5F_button">
	<ellipse transform="matrix(0.7071 -0.7071 0.7071 0.7071 -30.3615 73.9148)" class="st0" cx="74" cy="73.6" rx="64.9" ry="64.9"/>
	<path class="st1" d="M74,138.5c-35.8,0-64.9-29-64.9-64.9c0-35.8,29-64.9,64.9-64.9s64.9,29,64.9,64.9
		C138.9,109.4,109.9,138.5,74,138.5 M74,142.5c9.3,0,18.3-1.8,26.8-5.4c8.2-3.5,15.6-8.4,21.9-14.8c6.3-6.3,11.3-13.7,14.8-21.9
		c3.6-8.5,5.4-17.5,5.4-26.8c0-9.3-1.8-18.3-5.4-26.8c-3.5-8.2-8.4-15.6-14.8-21.9c-6.3-6.3-13.7-11.3-21.9-14.8
		C92.4,6.6,83.3,4.7,74,4.7s-18.3,1.8-26.8,5.4c-8.2,3.5-15.6,8.4-21.9,14.8C19,31.2,14.1,38.6,10.6,46.8C7,55.3,5.2,64.3,5.2,73.6
		c0,9.3,1.8,18.3,5.4,26.8c3.5,8.2,8.4,15.6,14.8,21.9c6.3,6.3,13.7,11.3,21.9,14.8C55.7,140.7,64.7,142.5,74,142.5L74,142.5z"/>
	<path class="st2" d="M74,134.1c-35.1,0-63.6-27.9-64.8-62.7c0,0.7-0.1,1.5-0.1,2.2c0,35.8,29,64.9,64.9,64.9s64.9-29,64.9-64.9
		c0-0.7,0-1.5-0.1-2.2C137.7,106.2,109.1,134.1,74,134.1z"/>
	<ellipse transform="matrix(0.7071 -0.7071 0.7071 0.7071 -30.3615 73.9148)" class="st0" cx="74" cy="73.6" rx="53.5" ry="53.5"/>
</g>
<g>
	<path class="st1" d="M80.1,123.6l34.2-59.2c2.7-4.6-0.7-10.4-6-10.4H39.8c-5.3,0-8.7,5.8-6,10.4L68,123.6
		C70.7,128.2,77.4,128.2,80.1,123.6z"/>
	<path class="st1" d="M64.1,23.8h21.8c5.4,0,9.7,4.4,9.7,9.7v26.4c0,5.4-4.4,9.7-9.7,9.7H64.1c-5.4,0-9.7-4.4-9.7-9.7V33.5
		C54.3,28.1,58.7,23.8,64.1,23.8z"/>
</g>
</svg>
