<?xml version="1.0" encoding="utf-8"?>
<!-- Generator: Adobe Illustrator 24.0.3, SVG Export Plug-In . SVG Version: 6.00 Build 0)  -->
<svg version="1.1"
	 id="svg1110" xmlns:inkscape="http://www.inkscape.org/namespaces/inkscape" xmlns:sodipodi="http://sodipodi.sourceforge.net/DTD/sodipodi-0.dtd" xmlns:svg="http://www.w3.org/2000/svg"
	 xmlns="http://www.w3.org/2000/svg" xmlns:xlink="http://www.w3.org/1999/xlink" x="0px" y="0px" viewBox="0 0 148.5 146.9"
	 style="enable-background:new 0 0 148.5 146.9;" xml:space="preserve">
<style type="text/css">
	.st0{fill:#FF663F;}
	.st1{fill:#350073;}
	.st2{fill:#E84D2E;}
</style>
<sodipodi:namedview  bordercolor="#666666" borderopacity="1.0" fit-margin-bottom="0" fit-margin-left="0" fit-margin-right="0" fit-margin-top="0" id="namedview1112" inkscape:current-layer="layer1" inkscape:cx="323.34623" inkscape:cy="506.10715" inkscape:document-units="mm" inkscape:pagecheckerboard="0" inkscape:pageopacity="0.0" inkscape:pageshadow="2" inkscape:window-height="705" inkscape:window-maximized="1" inkscape:window-width="1366" inkscape:window-x="-8" inkscape:window-y="-8" inkscape:zoom="0.46235269" pagecolor="#ffffff" showgrid="false">
	</sodipodi:namedview>
<g id="no_x5F_button">
	<ellipse transform="matrix(0.7071 -0.7071 0.7071 0.7071 -30.5054 74.3536)" class="st0" cx="74.5" cy="74" rx="64.9" ry="64.9"/>
	<path class="st1" d="M74.5,9.1c35.8,0,64.9,29,64.9,64.9s-29,64.9-64.9,64.9S9.6,109.8,9.6,74S38.7,9.1,74.5,9.1 M74.5,5.1
		c-9.3,0-18.3,1.8-26.8,5.4C39.5,14,32.1,19,25.8,25.3C19.5,31.6,14.5,39,11,47.2C7.4,55.7,5.6,64.7,5.6,74c0,9.3,1.8,18.3,5.4,26.8
		c3.5,8.2,8.4,15.6,14.8,21.9c6.3,6.3,13.7,11.3,21.9,14.8c8.5,3.6,17.5,5.4,26.8,5.4s18.3-1.8,26.8-5.4c8.2-3.5,15.6-8.4,21.9-14.8
		c6.3-6.3,11.3-13.7,14.8-21.9c3.6-8.5,5.4-17.5,5.4-26.8c0-9.3-1.8-18.3-5.4-26.8c-3.5-8.2-8.4-15.6-14.8-21.9
		c-6.3-6.3-13.7-11.3-21.9-14.8C92.8,6.9,83.8,5.1,74.5,5.1L74.5,5.1z"/>
	<path class="st2" d="M74.5,13.6c35.1,0,63.6,27.9,64.8,62.7c0-0.7,0.1-1.5,0.1-2.2c0-35.8-29-64.9-64.9-64.9S9.6,38.2,9.6,74
		c0,0.7,0,1.5,0.1,2.2C10.9,41.4,39.4,13.6,74.5,13.6z"/>
	<ellipse transform="matrix(0.7071 -0.7071 0.7071 0.7071 -30.5054 74.3536)" class="st0" cx="74.5" cy="74" rx="53.5" ry="53.5"/>
</g>
<g>
	<path class="st1" d="M114.7,91.2C110.2,63.2,88,42.6,61.4,38.7l-1.1-6.6c-0.7-4.2-5.8-5.9-8.9-3L27.4,52c-2.7,2.6-2,7,1.4,8.6
		l30.1,14.2c3.9,1.8,8.2-1.4,7.5-5.6l-1.1-6.6c13.9,4.7,24.8,16.7,27.3,32.2c0.6,3.9,0.7,7.8,0.2,11.5c-0.5,4.3,2.4,8.3,6.8,8.9
		l7.1,0.9c4.1,0.5,7.8-2.3,8.3-6.4C115.8,103.7,115.7,97.4,114.7,91.2z"/>
</g>
</svg>
