<?xml version="1.0" encoding="utf-8"?>
<!-- Generator: Adobe Illustrator 24.0.3, SVG Export Plug-In . SVG Version: 6.00 Build 0)  -->
<svg version="1.1"
	 id="svg79952" inkscape:version="1.1.2 (b8e25be833, 2022-02-05)" sodipodi:docname="pause.svg" xmlns:inkscape="http://www.inkscape.org/namespaces/inkscape" xmlns:sodipodi="http://sodipodi.sourceforge.net/DTD/sodipodi-0.dtd" xmlns:svg="http://www.w3.org/2000/svg"
	 xmlns="http://www.w3.org/2000/svg" xmlns:xlink="http://www.w3.org/1999/xlink" x="0px" y="0px" viewBox="0 0 515.6 515.6"
	 style="enable-background:new 0 0 515.6 515.6;" xml:space="preserve">
<style type="text/css">
	.st0{fill:#FF663F;}
	.st1{fill:#350073;}
	.st2{fill:#E84D2E;}
</style>
<sodipodi:namedview  bordercolor="#666666" borderopacity="1.0" id="namedview79954" inkscape:current-layer="layer1" inkscape:cx="342.81189" inkscape:cy="343.89331" inkscape:document-units="mm" inkscape:pagecheckerboard="0" inkscape:pageopacity="0.0" inkscape:pageshadow="2" inkscape:window-height="705" inkscape:window-maximized="1" inkscape:window-width="1366" inkscape:window-x="-8" inkscape:window-y="-8" inkscape:zoom="0.46235269" pagecolor="#ffffff" showgrid="false">
	</sodipodi:namedview>
<g id="no_x5F_button">
	
		<ellipse transform="matrix(0.7071 -0.7071 0.7071 0.7071 -107.8021 259.2157)" class="st0" cx="259" cy="259.7" rx="238.3" ry="238.3"/>
	<path class="st1" d="M259,21.4c131.6,0,238.3,106.7,238.3,238.3S390.6,498,259,498S20.7,391.3,20.7,259.7S127.4,21.4,259,21.4
		 M259,6.7c-34.1,0-67.3,6.7-98.5,19.9c-30.1,12.7-57.2,31-80.4,54.2c-23.2,23.2-41.5,50.3-54.2,80.4C12.7,192.5,6,225.6,6,259.7
		c0,34.1,6.7,67.3,19.9,98.5c12.7,30.1,31,57.2,54.2,80.4c23.2,23.2,50.3,41.5,80.4,54.2c31.2,13.2,64.3,19.9,98.5,19.9
		c34.1,0,67.3-6.7,98.5-19.9c30.1-12.7,57.2-31,80.4-54.2c23.2-23.2,41.5-50.3,54.2-80.4c13.2-31.2,19.9-64.3,19.9-98.5
		c0-34.1-6.7-67.3-19.9-98.5c-12.7-30.1-31-57.2-54.2-80.4c-23.2-23.2-50.3-41.5-80.4-54.2C326.3,13.4,293.1,6.7,259,6.7L259,6.7z"
		/>
	<path class="st2" d="M259,37.7c128.9,0,233.8,102.3,238.1,230.2c0.1-2.7,0.2-5.4,0.2-8.1c0-131.6-106.7-238.3-238.3-238.3
		S20.7,128.1,20.7,259.7c0,2.7,0.1,5.4,0.2,8.1C25.2,140,130.1,37.7,259,37.7z"/>
	
		<ellipse transform="matrix(0.7071 -0.7071 0.7071 0.7071 -107.8021 259.2157)" class="st1" cx="259" cy="259.7" rx="196.4" ry="196.4"/>
</g>
<g>
	<path class="st0" d="M228.5,338.1h-38.2c-6.8,0-12.3-5.5-12.3-12.3V189.9c0-6.8,5.5-12.3,12.3-12.3h38.2c6.8,0,12.3,5.5,12.3,12.3
		v135.9C240.8,332.5,235.3,338.1,228.5,338.1z"/>
	<path class="st0" d="M325.3,338.1h-38.2c-6.8,0-12.3-5.5-12.3-12.3V189.9c0-6.8,5.5-12.3,12.3-12.3h38.2c6.8,0,12.3,5.5,12.3,12.3
		v135.9C337.6,332.5,332.1,338.1,325.3,338.1z"/>
</g>
</svg>
