<?xml version="1.0" encoding="utf-8"?>
<!-- Generator: Adobe Illustrator 24.0.3, SVG Export Plug-In . SVG Version: 6.00 Build 0)  -->
<svg version="1.1"
	 id="svg56287" inkscape:version="1.1.2 (b8e25be833, 2022-02-05)" sodipodi:docname="play.svg" xmlns:inkscape="http://www.inkscape.org/namespaces/inkscape" xmlns:sodipodi="http://sodipodi.sourceforge.net/DTD/sodipodi-0.dtd" xmlns:svg="http://www.w3.org/2000/svg"
	 xmlns="http://www.w3.org/2000/svg" xmlns:xlink="http://www.w3.org/1999/xlink" x="0px" y="0px" viewBox="0 0 515.6 515.6"
	 style="enable-background:new 0 0 515.6 515.6;" xml:space="preserve">
<style type="text/css">
	.st0{fill:#FF663F;}
	.st1{fill:#350073;}
	.st2{fill:#E84D2E;}
</style>
<sodipodi:namedview  bordercolor="#666666" borderopacity="1.0" id="namedview56289" inkscape:current-layer="layer1" inkscape:cx="342.81189" inkscape:cy="343.89331" inkscape:document-units="mm" inkscape:pagecheckerboard="0" inkscape:pageopacity="0.0" inkscape:pageshadow="2" inkscape:window-height="705" inkscape:window-maximized="1" inkscape:window-width="1366" inkscape:window-x="-8" inkscape:window-y="-8" inkscape:zoom="0.46235269" pagecolor="#ffffff" showgrid="false">
	</sodipodi:namedview>
<g id="no_x5F_button">
	
		<ellipse transform="matrix(0.7071 -0.7071 0.7071 0.7071 -106.7207 258.3535)" class="st0" cx="258.5" cy="258" rx="238.3" ry="238.3"/>
	<path class="st1" d="M258.5,19.7c131.6,0,238.3,106.7,238.3,238.3S390.1,496.3,258.5,496.3S20.2,389.6,20.2,258
		S126.9,19.7,258.5,19.7 M258.5,5c-34.1,0-67.3,6.7-98.5,19.9c-30.1,12.7-57.2,31-80.4,54.2c-23.2,23.2-41.5,50.3-54.2,80.4
		C12.2,190.7,5.5,223.9,5.5,258c0,34.1,6.7,67.3,19.9,98.5c12.7,30.1,31,57.2,54.2,80.4c23.2,23.2,50.3,41.5,80.4,54.2
		c31.2,13.2,64.3,19.9,98.5,19.9s67.3-6.7,98.5-19.9c30.1-12.7,57.2-31,80.4-54.2c23.2-23.2,41.5-50.3,54.2-80.4
		c13.2-31.2,19.9-64.3,19.9-98.5c0-34.1-6.7-67.3-19.9-98.5c-12.7-30.1-31-57.2-54.2-80.4c-23.2-23.2-50.3-41.5-80.4-54.2
		C325.8,11.7,292.6,5,258.5,5L258.5,5z"/>
	<path class="st2" d="M258.5,36c128.9,0,233.8,102.3,238.1,230.2c0.1-2.7,0.2-5.4,0.2-8.1c0-131.6-106.7-238.3-238.3-238.3
		S20.2,126.4,20.2,258c0,2.7,0.1,5.4,0.2,8.1C24.7,138.3,129.6,36,258.5,36z"/>
	
		<ellipse transform="matrix(0.7071 -0.7071 0.7071 0.7071 -106.7207 258.3535)" class="st1" cx="258.5" cy="258" rx="196.4" ry="196.4"/>
</g>
<path class="st0" d="M355.6,216.3l-114.1-65.9c-29.4-17-66.2,4.2-66.2,38.2v131.7c0,34,36.8,55.2,66.2,38.2l114.1-65.9
	C385,275.8,385,233.3,355.6,216.3z"/>
</svg>
