<?xml version="1.0" encoding="utf-8"?>
<!-- Generator: Adobe Illustrator 27.4.0, SVG Export Plug-In . SVG Version: 6.00 Build 0)  -->
<svg version="1.1"
	 id="svg63302" xmlns:sodipodi="http://sodipodi.sourceforge.net/DTD/sodipodi-0.dtd" xmlns:inkscape="http://www.inkscape.org/namespaces/inkscape" xmlns:svg="http://www.w3.org/2000/svg" inkscape:version="1.1.2 (b8e25be833, 2022-02-05)" sodipodi:docname="restart.svg"
	 xmlns="http://www.w3.org/2000/svg" xmlns:xlink="http://www.w3.org/1999/xlink" x="0px" y="0px" viewBox="0 0 515.6 515.6"
	 style="enable-background:new 0 0 515.6 515.6;" xml:space="preserve">
<style type="text/css">
	.st0{fill:#E680FF;}
	.st1{fill:#350073;}
	.st2{fill:#8400A0;}
</style>
<sodipodi:namedview  bordercolor="#666666" borderopacity="1.0" id="namedview63304" inkscape:current-layer="layer1" inkscape:cx="342.81189" inkscape:cy="343.89331" inkscape:document-units="mm" inkscape:pagecheckerboard="0" inkscape:pageopacity="0.0" inkscape:pageshadow="2" inkscape:window-height="705" inkscape:window-maximized="1" inkscape:window-width="1366" inkscape:window-x="-8" inkscape:window-y="-8" inkscape:zoom="0.46235269" pagecolor="#ffffff" showgrid="false">
	</sodipodi:namedview>
<g id="no_x5F_button">
	<ellipse class="st0" cx="259" cy="259.7" rx="238.3" ry="238.3"/>
	<path class="st1" d="M259,21.4c131.6,0,238.3,106.7,238.3,238.3S390.6,498,259,498S20.7,391.3,20.7,259.7S127.4,21.4,259,21.4
		 M259,6.7c-34.1,0-67.3,6.7-98.5,19.9c-30.1,12.7-57.2,31-80.4,54.2s-41.5,50.3-54.2,80.4C12.7,192.5,6,225.6,6,259.7
		s6.7,67.3,19.9,98.5c12.7,30.1,31,57.2,54.2,80.4c23.2,23.2,50.3,41.5,80.4,54.2c31.2,13.2,64.3,19.9,98.5,19.9
		c34.1,0,67.3-6.7,98.5-19.9c30.1-12.7,57.2-31,80.4-54.2c23.2-23.2,41.5-50.3,54.2-80.4c13.2-31.2,19.9-64.3,19.9-98.5
		c0-34.1-6.7-67.3-19.9-98.5c-12.7-30.1-31-57.2-54.2-80.4s-50.3-41.5-80.4-54.2C326.3,13.4,293.1,6.7,259,6.7L259,6.7z"/>
	<path class="st2" d="M259,37.7c128.9,0,233.8,102.3,238.1,230.2c0.1-2.7,0.2-5.4,0.2-8.1c0-131.6-106.7-238.3-238.3-238.3
		S20.7,128.1,20.7,259.7c0,2.7,0.1,5.4,0.2,8.1C25.2,140,130.1,37.7,259,37.7z"/>
	<ellipse class="st2" cx="259" cy="259.7" rx="196.4" ry="196.4"/>
</g>
<g id="e05jbJ.tif">
	<g>
		<path class="st0" d="M330.8,398c-47.8,0-95.7,0-143.5,0c-0.6-0.2-1.2-0.4-1.8-0.6c-11.5-3.7-18.1-12.7-18.1-24.7
			c0-9.8,0-19.7,0-29.5c0-7.8,1-6.8-6.9-6.8c-13.8,0.1-24.9-5.5-33.4-16.2c-4.4-5.4-6.7-11.8-8.2-18.6c0-26.3,0-52.6,0-78.9
			c0.3-1,0.5-1.9,0.8-2.9c3.5-13.8,11.9-23.4,24.9-29c6.3-2.7,12.9-3.2,19.6-2.8c2.5,0.1,3.3-0.8,3.3-3.3c-0.1-8.8,0-17.7,0-26.6
			c0-11.1,4.1-20.4,11.6-28.4c6.3-6.7,14.2-10.3,23.1-12.2c38,0,76,0,114,0c0.9,0.2,1.7,0.5,2.6,0.7c20,4.5,32.8,23,32.1,41
			c-0.3,7.2-0.1,14.4,0,21.6c0.1,8.2-1.1,7.1,7.1,7.1c13.7,0,24.7,5.5,33.2,16.2c4.4,5.5,6.7,11.9,8.3,18.6c0,26.3,0,52.6,0,78.9
			c-0.3,1-0.6,1.9-0.8,2.9c-2.3,9.6-7.4,17.4-15.2,23.4c-8.5,6.6-18.3,9-29,8.5c-3.5-0.2-3.6,0.1-3.6,3.5c0,11.4,0,22.8,0,34.2
			c0,3.5-0.8,6.9-2.3,10C344.8,391.6,338.6,395.9,330.8,398z M259.1,204.9c-32.5,0-65,0-97.5,0c-15.3,0-25.9,10.1-26.1,25.1
			c-0.2,21.5-0.1,42.9,0,64.4c0.1,11.3,6.6,20.3,16.6,23.7c4,1.4,8.2,1.4,12.4,1.5c2.2,0,2.9-0.8,2.9-2.9c-0.1-6.2,0-12.4,0-18.6
			c0-5.2,0-5.2-5.2-5.5c-4.1-0.2-7.5-3.4-7.9-7.4c-0.4-4.3,2.1-8.1,6.2-9.1c1.4-0.3,2.9-0.3,4.4-0.3c62.8,0,125.6,0,188.5,0
			c0.8,0,1.6,0,2.5,0c4.8,0.2,8.2,3.8,8.2,8.5c0,4.6-3.4,8.1-8.1,8.3c-0.9,0-1.8,0.1-2.7,0c-1.6,0-2.3,0.7-2.3,2.3
			c0,7.5,0,15,0,22.5c0,1.5,0.7,2.2,2.1,2.2c3.8,0.1,7.5,0,11.2-0.9c11-2.7,18.5-12.3,18.5-24.4c0.1-21.4,0.1-42.7,0-64.1
			c0-4.5-0.9-8.9-3.3-12.8c-5.2-8.6-13.1-12.4-22.9-12.4C323.9,204.9,291.5,204.9,259.1,204.9z M259,292.5c-23.5,0-47.1,0-70.6,0
			c-4.2,0-4.2,0-4.2,4.3c0,24.7,0,49.5,0,74.2c0,7.4,3,10.4,10.5,10.4c42.9,0,85.8,0,128.7,0c7.5,0,10.5-3,10.5-10.5
			c0-24.8,0-49.6,0-74.5c0-3.9,0-3.9-4-3.9C306.2,292.5,282.6,292.5,259,292.5z M259.1,134.2c-16.3,0-32.7-0.1-49,0
			c-15.3,0.1-25.8,10.5-25.9,25.9c-0.1,8.2,0.1,16.4-0.1,24.7c0,2.5,0.8,3.3,3.3,3.3c47.8-0.1,95.5-0.1,143.3,0
			c2.4,0,3.2-0.8,3.2-3.2c-0.1-8.4,0-16.8-0.1-25.2c-0.1-4.6-0.9-9.1-3.3-13.1c-5.1-8.5-12.9-12.3-22.7-12.4
			C291.6,134.2,275.3,134.2,259.1,134.2z"/>
		<path class="st0" d="M175.7,239.9c-4.3,0-8.6,0-12.8,0c-5.2-0.1-8.7-3.6-8.7-8.5c0-4.8,3.6-8.3,8.6-8.3c8.7-0.1,17.3-0.1,26,0
			c5,0,8.5,3.6,8.5,8.4c0,4.8-3.5,8.4-8.5,8.4C184.4,240,180.1,239.9,175.7,239.9z"/>
		<path class="st0" d="M259,327.6c-7,0-14,0-21.1,0c-5.7,0-9.3-3.4-9.3-8.5c0-5,3.7-8.3,9.1-8.4c14.1,0,28.3,0,42.4,0
			c5.5,0,9.1,3.4,9.1,8.3c0,5.1-3.6,8.5-9.3,8.5C273,327.6,266,327.6,259,327.6z"/>
		<path class="st0" d="M258.9,362.6c-7.1,0-14.2,0-21.3,0c-5.4,0-9-3.5-8.9-8.5c0.1-4.9,3.7-8.3,8.9-8.3c14.3,0,28.6,0,42.9,0
			c5.2,0,8.8,3.5,8.8,8.4c0,4.9-3.6,8.4-8.8,8.4C273.3,362.7,266.1,362.6,258.9,362.6z"/>
	</g>
</g>
</svg>
