<?xml version="1.0" encoding="utf-8"?>
<!-- Generator: Adobe Illustrator 24.0.3, SVG Export Plug-In . SVG Version: 6.00 Build 0)  -->
<svg version="1.1"
	 id="svg1110" xmlns:inkscape="http://www.inkscape.org/namespaces/inkscape" xmlns:sodipodi="http://sodipodi.sourceforge.net/DTD/sodipodi-0.dtd" xmlns:svg="http://www.w3.org/2000/svg"
	 xmlns="http://www.w3.org/2000/svg" xmlns:xlink="http://www.w3.org/1999/xlink" x="0px" y="0px" viewBox="0 0 148.5 146.9"
	 style="enable-background:new 0 0 148.5 146.9;" xml:space="preserve">
<style type="text/css">
	.st0{fill:#FF663F;}
	.st1{fill:#350073;}
	.st2{fill:#E84D2E;}
</style>
<sodipodi:namedview  bordercolor="#666666" borderopacity="1.0" fit-margin-bottom="0" fit-margin-left="0" fit-margin-right="0" fit-margin-top="0" id="namedview1112" inkscape:current-layer="layer1" inkscape:cx="323.34623" inkscape:cy="506.10715" inkscape:document-units="mm" inkscape:pagecheckerboard="0" inkscape:pageopacity="0.0" inkscape:pageshadow="2" inkscape:window-height="705" inkscape:window-maximized="1" inkscape:window-width="1366" inkscape:window-x="-8" inkscape:window-y="-8" inkscape:zoom="0.46235269" pagecolor="#ffffff" showgrid="false">
	</sodipodi:namedview>
<g id="no_x5F_button">
	
		<ellipse transform="matrix(0.7071 -0.7071 0.7071 0.7071 -30.1897 74.0157)" class="st0" cx="74.2" cy="73.5" rx="64.9" ry="64.9"/>
	<path class="st1" d="M74.2,8.6c35.8,0,64.9,29,64.9,64.9s-29,64.9-64.9,64.9s-64.9-29-64.9-64.9S38.4,8.6,74.2,8.6 M74.2,4.6
		C65,4.6,55.9,6.4,47.4,10c-8.2,3.5-15.6,8.4-21.9,14.8c-6.3,6.3-11.3,13.7-14.8,21.9c-3.6,8.5-5.4,17.5-5.4,26.8
		c0,9.3,1.8,18.3,5.4,26.8c3.5,8.2,8.4,15.6,14.8,21.9c6.3,6.3,13.7,11.3,21.9,14.8c8.5,3.6,17.5,5.4,26.8,5.4s18.3-1.8,26.8-5.4
		c8.2-3.5,15.6-8.4,21.9-14.8c6.3-6.3,11.3-13.7,14.8-21.9c3.6-8.5,5.4-17.5,5.4-26.8c0-9.3-1.8-18.3-5.4-26.8
		c-3.5-8.2-8.4-15.6-14.8-21.9c-6.3-6.3-13.7-11.3-21.9-14.8C92.6,6.4,83.5,4.6,74.2,4.6L74.2,4.6z"/>
	<path class="st2" d="M74.2,13c35.1,0,63.6,27.9,64.8,62.7c0-0.7,0.1-1.5,0.1-2.2c0-35.8-29-64.9-64.9-64.9S9.4,37.6,9.4,73.4
		c0,0.7,0,1.5,0.1,2.2C10.6,40.9,39.2,13,74.2,13z"/>
	
		<ellipse transform="matrix(0.7071 -0.7071 0.7071 0.7071 -30.1897 74.0157)" class="st0" cx="74.2" cy="73.5" rx="53.5" ry="53.5"/>
</g>
<g>
	<path class="st1" d="M33.5,91.2c4.5-27.9,26.7-48.6,53.3-52.4l1.1-6.6c0.7-4.2,5.8-5.9,8.9-3l24.1,23c2.7,2.6,2,7-1.4,8.6
		L89.4,74.8c-3.9,1.8-8.2-1.4-7.5-5.6l1.1-6.6c-13.9,4.7-24.8,16.7-27.3,32.2c-0.6,3.9-0.7,7.8-0.2,11.5c0.5,4.3-2.4,8.3-6.8,8.9
		l-7.1,0.9c-4.1,0.5-7.8-2.3-8.3-6.4C32.5,103.7,32.5,97.4,33.5,91.2z"/>
</g>
</svg>
