<?xml version="1.0" encoding="utf-8"?>
<!-- Generator: Adobe Illustrator 27.4.0, SVG Export Plug-In . SVG Version: 6.00 Build 0)  -->
<svg version="1.1"
	 id="svg909" xmlns:sodipodi="http://sodipodi.sourceforge.net/DTD/sodipodi-0.dtd" xmlns:inkscape="http://www.inkscape.org/namespaces/inkscape" xmlns:svg="http://www.w3.org/2000/svg" inkscape:version="1.1.2 (b8e25be833, 2022-02-05)" sodipodi:docname="squidsmall-03.svg"
	 xmlns="http://www.w3.org/2000/svg" xmlns:xlink="http://www.w3.org/1999/xlink" x="0px" y="0px" viewBox="0 0 3607.8 3374.5"
	 style="enable-background:new 0 0 3607.8 3374.5;" xml:space="preserve">
<style type="text/css">
	.st0{fill:#AA80AA;}
	.st1{fill:#EABABD;}
	.st2{opacity:0.5;}
	.st3{opacity:0.4;fill:#5E2807;}
	.st4{opacity:0.5;fill:#AA80AA;}
	.st5{fill:#CA9EC5;}
	.st6{fill:#7C1103;}
	.st7{fill:#BE1622;}
	.st8{fill:#5E2807;}
	.st9{opacity:0.6;fill:#FFFFFF;}
	.st10{opacity:0.4;fill:#FFFFFF;}
	.st11{fill:#965A90;}
	.st12{fill:#8E608E;}
	.st13{fill:#FFFFFF;}
	.st14{fill:#D97611;}
	.st15{fill:#1D1D1B;}
	.st16{opacity:0.4;fill:#CA9EC5;}
	.st17{fill:#B1DEED;}
	.st18{fill:#8DC3D2;}
	.st19{opacity:0.7;fill:#FFFFFF;}
</style>
<sodipodi:namedview  bordercolor="#666666" borderopacity="1.0" id="namedview911" inkscape:current-layer="svg909" inkscape:cx="1811.6734" inkscape:cy="1620.4218" inkscape:pagecheckerboard="0" inkscape:pageopacity="0.0" inkscape:pageshadow="2" inkscape:window-height="705" inkscape:window-maximized="1" inkscape:window-width="1366" inkscape:window-x="-8" inkscape:window-y="-8" inkscape:zoom="0.14378972" pagecolor="#ffffff" showgrid="false">
	</sodipodi:namedview>
<g id="_x31_5">
	<g>
		<g>
			<path class="st0" d="M2836.8,1498.7c-70.3,3.6-140.2,28.4-265.5-70.9c-89.8-71.1-144.3-178.1-179.6-284.5
				c-54.8-157.7-228.5-241.6-388.1-187.5c-159.5,54.2-244.4,225.9-189.7,383.6c15.5,53.4,61.7,104.4,94.8,147.2
				c275.3,360.1,545.7,460.5,914,470.9c196.5,13,402.2-213,412.4-448.2l0.9-17.5c1.9-27.7-25.7-50-52.8-42.9
				C3185.1,1449,3019.6,1495.5,2836.8,1498.7z"/>
		</g>
		<path class="st1" d="M3236,1491.8c-8.5,169.4-82.1,301.8-207.4,397.2c-123.3,101.1-234.1,64-376,53c-22.1-1.6-44.1-4.2-65.8-7.5
			c-125.7-155-185.2-282.5,46.4-204.9C3131.6,1896.9,3244.9,1357.5,3236,1491.8z"/>
		<g class="st2">
			<path class="st0" d="M2836.8,1498.7c-70.3,3.6-140.2,28.4-265.5-70.9c-89.8-71.1-144.3-178.1-179.6-284.5
				c-54.8-157.7-228.5-241.6-388.1-187.5c-159.5,54.2-244.4,225.9-189.7,383.6c15.5,53.4,61.7,104.4,94.8,147.2
				c275.3,360.1,545.7,460.5,914,470.9c196.5,13,402.2-213,412.4-448.2l0.9-17.5c1.9-27.7-25.7-50-52.8-42.9
				C3185.1,1449,3019.6,1495.5,2836.8,1498.7z"/>
		</g>
		<g>
			<path class="st0" d="M3036.3,1937.5c-144.6-40.6-249.3-164.4-323.2-294.1c-206.2-328.2-688.8-49.6-500.2,289.4
				c36.4,53.8,90.8,154.9,133.1,202.6c410.7,478.5,1193.6,283.2,1257.7-259.5c0,0,1.6-14.8,1.6-14.8c4.6-32.6-35.7-56.1-62.3-36.9
				C3550.9,1824.1,3275.8,2009.3,3036.3,1937.5z"/>
		</g>
		<path class="st1" d="M3596.2,1919.7c-84.8,413-631.3,654.1-1083.6,361.9c-25.4-417.6-10.2-786.5,174.6-419.2
			C2888.7,2260.9,3241.8,2192.1,3596.2,1919.7z"/>
		<g class="st2">
			<path class="st0" d="M3036.3,1937.5c-144.6-40.6-249.3-164.4-323.2-294.1c-206.2-328.2-688.8-49.6-500.2,289.4
				c36.4,53.8,90.8,154.9,133.1,202.6c410.7,478.5,1193.6,283.2,1257.7-259.5c0,0,1.6-14.8,1.6-14.8c4.6-32.6-35.7-56.1-62.3-36.9
				C3550.9,1824.1,3275.8,2009.3,3036.3,1937.5z"/>
		</g>
		<g>
			<path class="st0" d="M1909.5,1339.5c-15.5,53.4-61.8,104.4-94.8,147.3c-188.9,246.8-430.5,433-743.9,455.3
				c-146,11.3-253.3,47.6-376-53c-125.3-95.3-199-227.7-207.4-397.2c-1.8-27.1,25.6-50,52.8-42.8c123.4,31.2,231.4,47.6,346.5,49.6
				c71.7,3.8,140.5,28.4,265.5-70.8c89.9-71.2,144.2-178.2,179.5-284.4c54.7-157.7,228.6-241.7,388-187.4
				C1879.3,1010,1964.2,1181.7,1909.5,1339.5z"/>
		</g>
		<path class="st1" d="M492.8,1557.3c29.6,199.7,213.6,413.2,407.8,400.3c37.6-1.1,208.5-18.8,236-23
			c125.7-155,185.2-282.5-46.4-204.9C538.3,1914.8,453.8,1226.7,492.8,1557.3z"/>
		<g class="st2">
			<path class="st0" d="M1909.5,1339.5c-15.5,53.4-61.8,104.4-94.8,147.3c-188.9,246.8-430.5,433-743.9,455.3
				c-146,11.3-253.3,47.6-376-53c-125.3-95.3-199-227.7-207.4-397.2c-1.8-27.1,25.6-50,52.8-42.8c123.4,31.2,231.4,47.6,346.5,49.6
				c71.7,3.8,140.5,28.4,265.5-70.8c89.9-71.2,144.2-178.2,179.5-284.4c54.7-157.7,228.6-241.7,388-187.4
				C1879.3,1010,1964.2,1181.7,1909.5,1339.5z"/>
		</g>
		<g>
			<path class="st0" d="M1510.5,1932.8c-73.5,108.6-114.3,228-300.3,347.8c-458.3,296-1042.2,45.6-1092.1-419.5
				c-4.6-32.8,35.7-56.2,62.3-37c140.5,96,345.1,161.9,506.7,113.4c144.9-40.9,249.2-164.3,323.2-294.2
				C1216.6,1315.1,1699.3,1593.7,1510.5,1932.8z"/>
		</g>
		<path class="st1" d="M1210.2,2280.6C752.5,2576.2,209.4,2324,126.6,1918.7c355,274.1,708.8,339.7,909-57.2
			C1220.5,1494.1,1235.7,1863,1210.2,2280.6z"/>
		<g class="st2">
			<path class="st0" d="M1510.5,1932.8c-73.5,108.6-114.3,228-300.3,347.8c-458.3,296-1042.2,45.6-1092.1-419.5
				c-4.6-32.8,35.7-56.2,62.3-37c140.5,96,345.1,161.9,506.7,113.4c144.9-40.9,249.2-164.3,323.2-294.2
				C1216.6,1315.1,1699.3,1593.7,1510.5,1932.8z"/>
		</g>
		<path class="st0" d="M1578.5,2611.5c-8.7,1.2-13.8-10.5-6.9-15.9c22.8-18.7,43.3-38.1,59.4-60c145.2-191.2-23.8-484.1-25.7-477.6
			c-36.9-277.8,362.1-345.7,421.1-71.4C2042.5,1986.6,1971.2,2567.9,1578.5,2611.5z"/>
		<path class="st3" d="M952.8,2109.5c0,39.4-60.3,39.5-60.3,0C892.5,2070.1,952.8,2070.1,952.8,2109.5z"/>
		<path class="st4" d="M1578.5,2611.5c-8.7,1.2-13.8-10.5-6.9-15.9c22.8-18.7,43.3-38.1,59.4-60c145.2-191.2-23.8-484.1-25.7-477.6
			c-36.9-277.8,362.1-345.7,421.1-71.4C2042.5,1986.6,1971.2,2567.9,1578.5,2611.5z"/>
		<path class="st0" d="M1713.1,1986.6c43.1,619,518,658.3,454.8,609.1c-161.7-132.5-137.6-348.1-41.3-528.2l4.1-6.6
			c1.3-1.4,2.9-5.1,3.6-2.8C2171.1,1780.2,1772.1,1712.4,1713.1,1986.6L1713.1,1986.6z"/>
		<path class="st4" d="M1713.1,1986.6c43.1,619,518,658.3,454.8,609.1c-161.7-132.5-137.6-348.1-41.3-528.2l4.1-6.6
			c1.3-1.4,2.9-5.1,3.6-2.8C2171.1,1780.2,1772.1,1712.4,1713.1,1986.6L1713.1,1986.6z"/>
		<path class="st5" d="M3334.5,3021.6c-118,92.6-447.2,168.6-653.5,220c-50.6,12.8-92.4-44.4-66.6-87.5
			c127.5-237.5,280.3-288.7,204.8-335.1c-383.1-229.5-775.3-159.9-968-731.3c88.3,24.7,156.9-158.6,254.2-158.6
			c215.8,0,375.4-101.8,534.8-201.6c-12.3,140.5,169.7,438.1,280.1,520.1c163,125,380.7,281.8,467.9,431.4
			C3455.8,2790.2,3442.9,2938.8,3334.5,3021.6z"/>
		<path class="st5" d="M1875.2,2088.9c-193.8,574.8-614.9,509.5-967.6,730c-21.3,13.2-24.8,42.9-6.9,60.4
			c51.9,52.2,96.7,101.5,140.2,161.5c15.8,21.7,82.3,116,79.2,143.6c-1.1,35.2-35.5,66.9-74.4,57c-206.1-51.3-535.5-127.3-653.3-220
			c-96.3-73.3-118.3-200.7-71.8-307.4c68.4-161,338.2-353.2,486-466.6c107.8-80.5,238.2-359.5,228.5-502.7
			c0-15.1-20.9-21.2,125.7,71.4c8.5,4.4,27.1,16.6,28.9,17.5c369.2,231.6,406.4,112.3,537.4,198.3
			C1759.7,2049.9,1814.8,2106.2,1875.2,2088.9z"/>
		<path class="st1" d="M1875.2,2088.9c-247.2,611-581.6,488.6-967.6,730c-21.3,13.2-24.8,42.9-6.9,60.4
			c56.2,56.5,222.8,246,219.5,305.1c-165.2-142.9-438-326.4-520.7-404.2c-24.1-22.7-19.7-60.3,9.4-77.3
			c450.5-261.8,848.9-197.3,1154.9-646.3C1763.7,2051.5,1816.7,2105.6,1875.2,2088.9z"/>
		<path class="st1" d="M3127.2,2780.3c-79.9,75-444.3,328.4-520.9,404.2c-0.5-10.2,2-20.6,7.8-30.4
			c127.8-239.7,280.7-288.1,204.8-335.1c-365.4-225.7-755.1-148.3-964.3-721.2c-9.2-18.1,0-0.7,33.7-6.8c18,0,59.7-24.4,74.5-34.3
			c301.9,448.6,705.4,384.1,1154.9,646.5C3146.7,2720,3151.1,2757.6,3127.2,2780.3z"/>
		<path class="st4" d="M1872.3,2097.2c-66.2,190.9-184.4,363.4-366.7,463c-140.7-163.2-226.9-473-533.4-556.7
			c-1.8,0,4.1-5.9,18.6-45.4c75.4-193.7,23.9-222.3,60.1-212.8c33.4,9.6,124.9,81.6,139,88.5c343,233.1,414.5,122.7,537.4,198.3
			C1776.6,2059.2,1803.9,2097.2,1872.3,2097.2z"/>
		<path class="st4" d="M2733.5,2007.9c-296.1,91.2-376.4,381.3-518.9,548.1c-146.1-82.4-273.5-216.5-359.9-458.2
			c0-1.8,9.6,2.1,33.5-7c26,0,115.5-89.2,189.4-89.2c264.2,0,498.1-206.4,560.9-242.3C2644.9,1837.7,2694,1940,2733.5,2007.9z"/>
		<path class="st5" d="M2732.4,1304.2c-13.2,24-11.5,31.7,2.3,56.4c76.1,135.8,60.4,277.6-20.1,404.7
			c-178,281.3-533,334.9-863.6,338.9c-330.7-4-685.7-57.6-863.6-338.9c-152-240.1-8.4-407.3-8.8-435.6
			c-0.7-38.2-115.2-139-78.2-472.5c53.6-432.3,349-667.1,778.4-772.3c113.3-27.7,232.2-28.8,345.8-2.3
			c401.6,94.1,709.3,325.6,768.7,738.3C2815.5,976.3,2808,1166.7,2732.4,1304.2z"/>
		<path class="st4" d="M2780.4,1492.9c13.6,93.4-11.3,186.2-65.8,272.4c-178,281.3-533,334.9-863.6,338.9
			c-330.7-4-685.7-57.6-863.6-338.9c-54.6-86.2-79.4-179-65.8-272.4c8.1,59.2,30.9,117.3,65.8,172.4
			c178,281.3,533,334.9,863.6,338.9c330.7-4,685.7-57.6,863.6-338.9C2749.5,1610.1,2772.3,1552,2780.4,1492.9z"/>
		<path class="st6" d="M1640.2,1552.6c96.2,81.5,318.1,102.5,398.3,2.3l37.6,23.3c0,0-48.1,264.6-193.5,272.4
			c-145.4,7.8-263.2-283.8-263.2-283.8L1640.2,1552.6z"/>
		<path class="st7" d="M1864.1,1725.3c0,0,30.2-39.3,72.3-38.1c42.2,1.2,15.8,145.3-61.5,149.1c-77.3,3.8-168.4-119.2-117.8-143
			C1807.8,1669.5,1864.1,1725.3,1864.1,1725.3z"/>
		<path class="st6" d="M1579.3,1594c27.7-69.6,116.7-78.6,117.2-53.7c-2,29.2-58.2-13.1-97.1,59.9
			C1594.1,1610.2,1575.1,1604.3,1579.3,1594L1579.3,1594z"/>
		<path class="st6" d="M2027,1520.6c41.5,51.2,109.1,27.7,105.5,56.4c-5.5,34-101.9-9.7-125.6-50
			C2001.3,1516.9,2020,1509,2027,1520.6L2027,1520.6z"/>
		<g>
			<path class="st8" d="M1905,1908.4c20,0.2,47-23.1,58.6,3.3c10.9,40.5-99.1,52.3-170.1-24.4c-6.7-7.3,3.9-18,11.6-10.7
				C1806.9,1876.6,1846.8,1914.6,1905,1908.4z"/>
		</g>
		<g>
			<path class="st3" d="M1244.9,1701c-18.5,65.9,33.6,80.3,52.1,14.3C1315.6,1649.4,1263.5,1635,1244.9,1701z"/>
			<path class="st3" d="M1154.6,1673.6c-18.5,65.9,33.6,80.3,52.1,14.3C1225.2,1622.1,1173.1,1607.7,1154.6,1673.6z"/>
			<path class="st3" d="M1064.2,1646.3c-18.5,65.9,33.6,80.3,52.1,14.3C1134.9,1594.7,1082.8,1580.4,1064.2,1646.3z"/>
		</g>
		<g>
			<path class="st3" d="M2435.1,1678.3c18.5,65.9-33.6,80.3-52.1,14.3C2364.4,1626.7,2416.5,1612.3,2435.1,1678.3z"/>
			<path class="st3" d="M2525.4,1650.9c18.5,65.9-33.6,80.3-52.1,14.3C2454.8,1599.4,2506.9,1585,2525.4,1650.9z"/>
			<path class="st3" d="M2615.8,1623.6c18.5,65.9-33.6,80.3-52.1,14.3C2545.1,1572,2597.2,1557.7,2615.8,1623.6z"/>
		</g>
		<path class="st9" d="M1482.8,460.1c3.7,44.5-64.4,50.2-68.2,5.6C1410.9,421.1,1479.1,415.5,1482.8,460.1z"/>
		<path class="st10" d="M1533.9,845.6c3.9,46.6-67.4,52.5-71.3,5.9C1458.7,804.9,1530,799,1533.9,845.6z"/>
		<path class="st9" d="M1974.5,424.2c6.8,81.2-117.4,91.5-124.3,10.2C1843.4,353.2,1967.6,342.9,1974.5,424.2z"/>
		<path class="st9" d="M1879.4,142.1c4.4,52.2-75.5,58.8-79.9,6.6C1795.1,96.5,1875,89.8,1879.4,142.1z"/>
		<path class="st10" d="M2136.5,173.6c2.3,27.7-40.1,31.3-42.4,3.5C2091.8,149.3,2134.2,145.8,2136.5,173.6z"/>
		<path class="st9" d="M2269.7,379.3c5.3,63.6-92,71.7-97.3,8C2167,323.7,2264.3,315.7,2269.7,379.3z"/>
		<path class="st10" d="M2382.6,584.8c1.9,22.5-32.5,25.4-34.4,2.8C2346.3,565.1,2380.7,562.2,2382.6,584.8z"/>
		<path class="st10" d="M2493.2,365c1.9,22.5-32.5,25.4-34.4,2.8C2456.8,345.3,2491.3,342.4,2493.2,365z"/>
		<path class="st10" d="M1608,872.9c2.2,26-37.6,29.3-39.8,3.3C1566.1,850.2,1605.9,846.9,1608,872.9z"/>
		<path class="st3" d="M941.5,2659.1c0,69.4-106.2,69.5-106.2,0C835.3,2589.6,941.5,2589.5,941.5,2659.1z"/>
		<path class="st3" d="M673.2,2734.8c0,42-64.3,42-64.3,0C608.9,2692.8,673.2,2692.8,673.2,2734.8z"/>
		<path class="st3" d="M811.4,2792.3c0,34.1-52.1,34.1-52.1,0C759.3,2758.3,811.4,2758.2,811.4,2792.3z"/>
		<path class="st3" d="M1120.3,2671.7c0,56.3-86.2,56.4-86.2,0C1034,2615.3,1120.3,2615.2,1120.3,2671.7z"/>
		<path class="st3" d="M1262,2473.2c0,53-81.4,53.2-81.4,0c0-4-7.7,2,70.1-27.9C1257.6,2452.5,1262,2462.2,1262,2473.2z"/>
		<path class="st3" d="M1408.1,2468.6c0,27.3-41.8,27.3-41.8,0C1366.3,2441.3,1408.1,2441.2,1408.1,2468.6z"/>
		<path class="st3" d="M1608.2,2472c0,9.4-5,26-6.9,26c-27.4,21.6-35.6,25.3-37.8,27.4c-37.1,5.8-65.3-21.6-65.3-53.4
			C1498.2,2400.3,1608.2,2400.1,1608.2,2472z"/>
		<path class="st3" d="M1665.9,2270.7c0,38.1-58.3,38.1-58.3,0C1607.6,2232.6,1665.9,2232.6,1665.9,2270.7z"/>
		<path class="st3" d="M1754.4,2214.1c0,19.7-30.1,19.7-30.1,0C1724.3,2194.5,1754.4,2194.4,1754.4,2214.1z"/>
		<path class="st3" d="M923.6,2948.5c0,20.3-31.1,20.3-31.1,0C892.5,2928.2,923.6,2928.1,923.6,2948.5z"/>
		<path class="st3" d="M1018.9,3031.2c0,18.9-28.9,18.9-28.9,0C990,3012.4,1018.9,3012.3,1018.9,3031.2z"/>
		<path class="st3" d="M2052.9,2183.7c0,40.3-61.6,40.1-61.6,0c0-21.5,22.2-34.5,37.4-29.5
			C2052.5,2184.2,2052.9,2180.8,2052.9,2183.7z"/>
		<path class="st3" d="M1991.3,2292.8c0,7.5-5.4,27-26.8,28.8c-9.2-13.9-18.3-28.8-27.1-44.2
			C1952.3,2253.6,1991.3,2263.5,1991.3,2292.8z"/>
		<path class="st3" d="M2181,2379c0,39.5-60.5,39.6-60.5,0C2120.5,2339.5,2181,2339.4,2181,2379z"/>
		<path class="st3" d="M2419,2447.2c0,50.6-77.5,50.5-77.5,0c0-20.9,16.9-38,38.3-38.4C2403.5,2419,2419,2420.8,2419,2447.2z"/>
		<path class="st3" d="M2757.1,2544.1c-21.7,49.9-97,18.1-80.7-27.9C2679.2,2517.1,2738,2537.3,2757.1,2544.1z"/>
		<path class="st3" d="M2556.1,2582.2c0,25.9-39.6,25.9-39.6,0C2516.5,2556.3,2556.1,2556.2,2556.1,2582.2z"/>
		<path class="st3" d="M2771.7,2656.3c0,36.1-55.2,36.1-55.2,0C2716.5,2620.3,2771.7,2620.2,2771.7,2656.3z"/>
		<path class="st3" d="M3034.6,2664.8c0,65.5-100.5,65.7-100.5,0c0-18,9.5-33.7,24-42.4C3043.7,2661.9,3034.6,2655.4,3034.6,2664.8z
			"/>
		<path class="st3" d="M3004,2811.7c0,25.5-39.1,25.6-39.1,0C2964.9,2786.1,3004,2786.1,3004,2811.7z"/>
		<path class="st3" d="M2919.4,2901.8c0,41.4-63.3,41.4-63.3,0C2856.1,2860.4,2919.4,2860.4,2919.4,2901.8z"/>
		<path class="st3" d="M2744.2,3020.5c0,31.7-39.8,46.7-61.1,23.9c3.3-4.4,14.5-21.6,42.4-54.8
			C2736.6,2995.3,2744.2,3007,2744.2,3020.5z"/>
		<path class="st3" d="M367.6,2070c-28.9,48.3-106.6,9.8-81.4-43.1C312.5,2042.2,339.7,2056.7,367.6,2070z"/>
		<path class="st3" d="M521.9,2200.7c0,45.8-70.1,45.8-70.1,0C451.8,2155,521.9,2154.9,521.9,2200.7z"/>
		<path class="st3" d="M673.2,2232.5c0,42-64.3,42-64.3,0C608.9,2190.5,673.2,2190.4,673.2,2232.5z"/>
		<path class="st3" d="M747.7,2127.9c19.8-5.4,39.4-12.4,58.6-21.5C835,2152.1,753.4,2178.1,747.7,2127.9z"/>
		<path class="st3" d="M673.2,2325.8c0,27.2-41.5,27.2-41.5,0C631.7,2298.7,673.2,2298.7,673.2,2325.8z"/>
		<path class="st3" d="M386.7,2237.1c0,16.1-7.4,30.5-19.1,40c-27.7-20.1-54-42.4-78.4-66.3C315.7,2165.7,386.7,2184.3,386.7,2237.1
			z"/>
		<path class="st3" d="M552.3,1679.1c0,10.3-10.2,16.6-17.5,14.8c-3.5-7.7-7.1-15.4-10.2-23.2
			C532.7,1658.4,552.3,1664.3,552.3,1679.1z"/>
		<path class="st3" d="M703.2,1739.9c0,40.6-62.1,40.6-62.1,0C641.1,1699.3,703.2,1699.2,703.2,1739.9z"/>
		<path class="st3" d="M718.7,1847.6c0,10.1-15.5,10.2-15.5,0C703.2,1837.5,718.7,1837.5,718.7,1847.6z"/>
		<path class="st3" d="M835.3,1785.8c0,36.5-55.9,36.6-55.9,0C779.3,1749.3,835.3,1749.2,835.3,1785.8z"/>
		<path class="st3" d="M492.8,1557.3c11.6,19.6,39.8,21.1,53.8,1.9c-12-16.8-22.6-33.3-32-49.2c-12,1.9-21.5,10.5-24.9,21.8
			L492.8,1557.3z"/>
		<path class="st3" d="M3174.6,1576.8c0,23.9-21.4,41.6-43.6,38.9C3173.5,1569.8,3174.6,1553,3174.6,1576.8z"/>
		<path class="st3" d="M3099.2,1714c0,53.1-81.2,53.1-81.2,0c0-13.5-0.2-1,48.9-39.3C3085.3,1678.4,3099.2,1694.6,3099.2,1714z"/>
		<path class="st3" d="M3034.4,1824.4c0,28.3-43.3,28.3-43.3,0C2991.1,1796.1,3034.4,1796.1,3034.4,1824.4z"/>
		<path class="st3" d="M3167.3,1673.8c0,13.7-21,13.7-21,0C3146.3,1660.1,3167.3,1660.1,3167.3,1673.8z"/>
		<path class="st3" d="M2902.9,1783.7c0,19.6-30.1,19.7-30.1,0C2872.9,1764,2902.9,1764,2902.9,1783.7z"/>
		<path class="st3" d="M2854.5,2071.2c-46.4,30.3-103.7-23.1-76.1-70C2802.8,2029.1,2828.2,2052.3,2854.5,2071.2z"/>
		<path class="st3" d="M2980.5,2183.8c0,41.6-63.7,41.7-63.7,0C2916.8,2142.2,2980.5,2142.2,2980.5,2183.8z"/>
		<path class="st3" d="M3128,2195.5c0,26.1-39.9,26.1-39.9,0C3088.1,2169.5,3128,2169.4,3128,2195.5z"/>
		<path class="st3" d="M3373.6,2121.8c0,80.6-123.2,80.6-123.2,0c0-18.2-5,1.1,99.2-48.2C3364.2,2084.6,3373.6,2102.1,3373.6,2121.8
			z"/>
		<path class="st3" d="M3212.6,2279.7c0,20.5-31.4,20.5-31.4,0C3181.3,2259.3,3212.6,2259.2,3212.6,2279.7z"/>
		<path class="st3" d="M3390.7,2250.6c-1.8,0,4.8-3.7-16.6,13.4c-7.1-1-12.5-7-12.5-14.1C3361.6,2231.5,3390.7,2229.6,3390.7,2250.6
			z"/>
		<path class="st3" d="M3541.8,2006.3c0,49-75.8,36.9-65.8-2.4c1.8,0,41.8-27.2,43.6-28.4C3532.5,1979.7,3541.8,1992,3541.8,2006.3z
			"/>
		<path class="st3" d="M3500.4,2121.7c0,16.1-24.7,16.2-24.7,0C3475.7,2105.6,3500.4,2105.6,3500.4,2121.7z"/>
		<path class="st3" d="M1836.7,2345.9c0,20.7-31.6,20.7-31.6,0C1805.1,2325.2,1836.7,2325.2,1836.7,2345.9z"/>
		<path class="st3" d="M1776.6,2456.3c0,34.2-52.3,34.2-52.3,0C1724.3,2422.1,1776.6,2422.1,1776.6,2456.3z"/>
		<path class="st3" d="M1967.9,2451.1c0,27.3-41.8,27.4-41.8,0C1926.1,2423.8,1967.9,2423.8,1967.9,2451.1z"/>
		<path class="st3" d="M2100,2560.3c0,20.1-30.7,20.1-30.7,0C2069.3,2540.2,2100,2540.2,2100,2560.3z"/>
		<path class="st3" d="M1895.4,2264.3c0,14.6-22.4,14.6-22.4,0C1873,2249.7,1895.4,2249.7,1895.4,2264.3z"/>
		<g>
			<g class="st2">
				<path class="st11" d="M1285.1,785.1c32.3,1.4,28,50.1-3.9,46.2c-114.7-23.3-219.5,44.6-263.7,148.1c-3.3,8.2-16.6,3.2-13.4-5.1
					C1007.4,974.3,1066.9,761.5,1285.1,785.1z"/>
			</g>
			<path class="st9" d="M1497.6,1530.1c-75.2,39.3-358.1-47.8-451.6-111c-21.5-14.5-29.1-43.7-18.6-68.1
				c12.4-28.7,16.9-31.9,16.7-45.1c-0.7-37.9-103.5-137.7-64.1-480.9c15.7-137,166-170.4,278.6-124.7
				c174.3,70.8,247.2,274.9,288,464.4C1571.3,1279.3,1597.8,1477.1,1497.6,1530.1z"/>
			<g>
				<path class="st12" d="M1569,1410c-0.4,32.7-26.9,56.5-49.7,58.4c-194.2,33.5-386.7-8.5-463.1-189.1
					C871.1,843.6,1576.4,715.2,1569,1410z"/>
				<path class="st13" d="M1566.2,1414.7c-0.3,18-15.3,44.8-22.6,49.7c-25.6,19-346.3,70.9-445.8-166.1
					C927.8,898.2,1573,776.5,1566.2,1414.7z"/>
				<path class="st14" d="M1561,1445.8c-32.6,58-308.6,64.9-423.3-79.4c0-110.6,71.8-245.6,184-261.2
					C1467.1,1085.1,1599.3,1277,1561,1445.8z"/>
				<path class="st15" d="M1543.5,1464.4c-19.9,14.8-174.4,33.7-284.6-9.8c-16.9-97.5,32.5-215.5,117.6-226.3
					C1478.1,1215.3,1560.6,1358.3,1543.5,1464.4z"/>
				<path class="st15" d="M1543.5,1464.4c-19.9,14.8-174.4,33.7-284.6-9.8c-16.9-97.5,32.5-215.5,117.6-226.3
					C1478.1,1215.3,1560.6,1358.3,1543.5,1464.4z"/>
				<path class="st13" d="M1254.2,1091.8c84,119.1,11.9,184.8-72.2,65.6C1098.1,1038.3,1170.2,972.6,1254.2,1091.8z"/>
				<path class="st16" d="M1541.3,1465.8c-24.9,14.9-137.3,19.9-199.3,10.5c-27-174.3,96-193.9,201.3-46.4
					C1543.5,1444,1543.2,1458.5,1541.3,1465.8z"/>
			</g>
		</g>
		<g>
			<g class="st2">
				<path class="st11" d="M2377,764.2c-32,4.2-23.4,52.3,8,45.7c112.2-33.3,222.7,25.2,276,124.4c4,7.9,16.8,1.8,12.9-6.3
					C2683.7,928,2580.2,723.9,2377,764.2z"/>
			</g>
			<path class="st9" d="M2187.3,1530.1c77.8,39.7,367.9-48.7,462.2-111c22-14.5,29.8-43.7,19-68.1c-12.7-28.7-17.3-31.9-17.1-45.1
				c0.7-37.9,105.9-137.7,65.6-480.9c-16.1-137-169.8-170.4-285.1-124.7c-178.4,70.8-252.9,274.9-294.8,464.4
				C2111.8,1279.3,2084.6,1477.1,2187.3,1530.1z"/>
			<g>
				<path class="st12" d="M2113.9,1410c0.4,32.7,26.9,56.5,49.7,58.4c194.2,33.5,386.7-8.5,463.1-189.1
					C2811.7,843.6,2106.5,715.2,2113.9,1410z"/>
				<path class="st13" d="M2116.7,1414.7c0.3,18,15.3,44.8,22.6,49.7c25.6,19,346.3,70.9,445.8-166.1
					C2755.1,898.2,2109.8,776.5,2116.7,1414.7z"/>
				<path class="st14" d="M2121.9,1445.8c32.6,58,308.6,64.9,423.3-79.4c0-110.6-71.8-245.6-184-261.2
					C2215.8,1085.1,2083.5,1277,2121.9,1445.8z"/>
				<path class="st15" d="M2139.3,1464.4c20,14.8,174.4,33.7,284.6-9.8c16.9-97.5-32.5-215.5-117.6-226.3
					C2204.8,1215.3,2122.3,1358.3,2139.3,1464.4z"/>
				<path class="st15" d="M2139.3,1464.4c20,14.8,174.4,33.7,284.6-9.8c16.9-97.5-32.5-215.5-117.6-226.3
					C2204.8,1215.3,2122.3,1358.3,2139.3,1464.4z"/>
				<path class="st13" d="M2406,1079.2c-81.5,120.8-8,185,73.5,64.1C2561.1,1022.5,2487.6,958.3,2406,1079.2z"/>
				<path class="st16" d="M2141.6,1465.8c24.9,14.9,137.3,19.9,199.3,10.5c27-174.3-96-193.9-201.3-46.4
					C2139.3,1444,2139.7,1458.5,2141.6,1465.8z"/>
			</g>
		</g>
		<path class="st13" d="M1362.4,1265.5c0,35.9-54.9,35.9-54.9,0C1307.5,1229.7,1362.4,1229.6,1362.4,1265.5z"/>
		<path class="st13" d="M2368.6,1265.5c0,31.2-47.8,31.3-47.8,0C2320.8,1234.3,2368.6,1234.3,2368.6,1265.5z"/>
	</g>
	<g>
		<g>
			<path class="st17" d="M588.1,827.1c28.2,62.9-66.9,105.6-95.1,42.6C464.8,806.9,559.9,764.2,588.1,827.1z"/>
			<path class="st18" d="M588.1,827.2c28.2,62.9-66.9,105.5-95.1,42.6c-4.3-9.6-5.5-19.9-3.9-29.5c3.4,71.1,113.1,42.8,84.8-20.5
				c-4.6-10.2-12.6-17.8-22-22.1C567.4,801.1,581.1,811.6,588.1,827.2z"/>
			<path class="st19" d="M537.7,821.9c8.8,19.7-21,33.1-29.8,13.4C499,815.5,528.8,802.1,537.7,821.9z"/>
		</g>
		<g>
			<path class="st17" d="M471.5,1066c0,138.8-210,139-210,0C261.5,927.2,471.5,927,471.5,1066z"/>
			<path class="st18" d="M471.4,1066c0,138.9-209.9,138.9-209.9,0c0-21.2,6.3-41,17.2-57.5c-3.9,10-5.9,20.8-5.9,32
				c0,118.2,178.8,118.3,178.8,0c0-22.5-8.4-43.1-22.2-58.8C454.9,1001,471.4,1031.6,471.4,1066z"/>
			<path class="st19" d="M383.1,1014.8c0,43.5-65.9,43.6-65.9,0C317.2,971.2,383.1,971.2,383.1,1014.8z"/>
		</g>
	</g>
	<g>
		<circle class="st17" cx="221.1" cy="1443" r="159.9"/>
		<path class="st18" d="M221.1,1602.8c-129,0-202.3-144-133.6-247.3c-34.1,87.1,30.4,184.9,127,184.9
			c117.6,0,178.6-138.5,102.3-225.6C439,1406.5,375,1602.8,221.1,1602.8z"/>
		<path class="st19" d="M246.3,1364.9c0,66.3-100.3,66.4-100.3,0C146,1298.6,246.3,1298.5,246.3,1364.9z"/>
	</g>
</g>
</svg>
