<?xml version="1.0" encoding="utf-8"?>
<!-- Generator: Adobe Illustrator 27.4.0, SVG Export Plug-In . SVG Version: 6.00 Build 0)  -->
<svg version="1.1"
	 id="svg909" xmlns:sodipodi="http://sodipodi.sourceforge.net/DTD/sodipodi-0.dtd" xmlns:inkscape="http://www.inkscape.org/namespaces/inkscape" xmlns:svg="http://www.w3.org/2000/svg" inkscape:version="1.1.2 (b8e25be833, 2022-02-05)" sodipodi:docname="squidsmall-03.svg"
	 xmlns="http://www.w3.org/2000/svg" xmlns:xlink="http://www.w3.org/1999/xlink" x="0px" y="0px" viewBox="0 0 3607.8 3374.5"
	 style="enable-background:new 0 0 3607.8 3374.5;" xml:space="preserve">
<style type="text/css">
	.st0{fill:#97E3E8;}
	.st1{fill:#00C4C9;}
	.st2{fill:#B3F6FF;}
	.st3{fill:#6CBBC1;}
	.st4{fill:#FFFFFF;}
	.st5{fill:#14183D;}
	.st6{opacity:0.37;fill:#F6F6F6;}
	.st7{fill:#A8140B;}
	.st8{fill:#FF5631;}
</style>
<sodipodi:namedview  bordercolor="#666666" borderopacity="1.0" id="namedview911" inkscape:current-layer="svg909" inkscape:cx="1811.6734" inkscape:cy="1620.4218" inkscape:pagecheckerboard="0" inkscape:pageopacity="0.0" inkscape:pageshadow="2" inkscape:window-height="705" inkscape:window-maximized="1" inkscape:window-width="1366" inkscape:window-x="-8" inkscape:window-y="-8" inkscape:zoom="0.14378972" pagecolor="#ffffff" showgrid="false">
	</sodipodi:namedview>
<g>
	<g>
		<g>
			<path class="st0" d="M1668.1,3325.6c-397.5-5.5-353.2-487.9-264.5-515.6c88.7-27.7-55.2,315.3,194.1,399.2
				c264.2,89,355.3-210.5,198-459.9c-117.1-185.6-146.8-414.8-142.1-561.4c0.3-9.2,0.7-18,1.3-26.6c2.4-36.6,23-61.4,52.7-78.1
				c86.9-48.9,250.3-27.3,250.3-27.3s-166.1,227.4,22.4,604.4S2065.5,3331.2,1668.1,3325.6z"/>
		</g>
	</g>
	<g>
		<g>
			<path class="st1" d="M2922.9,385.9c-274.5,216.1-671.6,74.7-858.7,12.3c-186.6-62.2-284.3,76.1-284.8,76.9
				c-0.5-0.8-98.2-139.1-284.8-76.9c-187.1,62.4-584.3,203.8-858.7-12.3c-271.6-213.8-504.6-32.1-443.6,378.2
				s113.7,546.2,260.6,654.3c322.7,237.5,124.8,446.4,390.9,530.9h1871.3c266.1-84.6,68.2-293.5,390.9-530.9
				c146.9-108.1,199.6-244,260.6-654.3C3427.4,353.9,3194.4,172.1,2922.9,385.9z"/>
		</g>
	</g>
	<g>
		<g>
			<path class="st2" d="M3197.3,519.7C2952,404.2,2848,814.1,2382.2,610.3c-463.9-203-601.9-1.6-603,0c-1.1-1.6-139.1-202.9-603,0
				c-465.8,203.8-569.7-206.1-815.1-90.6S373.6,1313.1,569,1417c195.5,104,74.9,386.7,274.5,532.3s361.8,33.3,436.7,120.6
				c74.9,87.3-274.5,195.5-124.8,324.4s207.9-220.4,331.8-243c103.3-18.8,104.9,114,291.9,109.9l0,0l0,0l0,0l0,0
				c187.1,4.1,188.6-128.7,291.9-109.9c123.9,22.5,182.1,371.9,331.8,243s-199.6-237-124.8-324.4c74.9-87.3,237,25,436.7-120.6
				c199.6-145.5,79-428.3,274.5-532.3C3184.8,1313.1,3442.7,635.3,3197.3,519.7z"/>
		</g>
	</g>
	<g>
		<g>
			<g>
				<path class="st0" d="M1249.2,742c-37.2,85.9-64.6,174.5-81.5,264.8c-16.7,90.4-23.2,182.2-20.1,273.8
					c3.4,91.5,16.5,182.6,39.9,271.4c23.6,88.8,58,174.9,103.1,257c-59.4-72.6-103.6-158-133.7-247.7
					c-30.5-89.8-46.7-184.4-50.2-279.3c-3.1-94.8,6.2-190.3,29.9-282.1C1159.9,908.3,1197,819.9,1249.2,742z"/>
			</g>
		</g>
		<g>
			<g>
				<path class="st0" d="M2309.3,742c52.2,77.8,89.3,166.3,112.7,258c23.7,91.8,33,187.2,29.9,282.1
					c-3.5,94.8-19.7,189.5-50.2,279.3c-30.1,89.7-74.3,175.1-133.7,247.7c45.1-82,79.4-168.2,103.1-257
					c23.4-88.8,36.4-179.9,39.9-271.4c3.1-91.5-3.4-183.4-20.1-273.8C2373.9,916.5,2346.6,827.9,2309.3,742z"/>
			</g>
		</g>
	</g>
	<g>
		<g>
			<path class="st3" d="M1213,2035.4c-86.5-14-217,25.1-369.4-86c-266.1-84.6-68.2-293.5-390.9-530.9
				c-147-108.2-199.6-244-260.6-654.3c-10-67.5-12.1-128.8-7.3-183.3c21.8,254.4,186,589.5,321.8,661.7
				c205.5,109.3,78.7,406.8,288.6,559.8c210,153.1,380.6,35,459.3,126.9C1282.4,1961.9,1254.1,1997.3,1213,2035.4z"/>
		</g>
	</g>
	<g>
		<g>
			<path class="st3" d="M2424.9,2278.8c23,36.4,25.2,75-21.9,115.5c-149.7,128.9-207.9-220.4-331.8-242.9
				c-101.8-18.5-104.8,110-283.5,110c-2.8,0-5.6,0-8.4-0.1c-187.1,4.1-188.6-128.7-292-109.9c-123.8,22.6-182.1,371.9-331.8,242.9
				c-47.1-40.5-44.9-79.1-21.9-115.5c149.8,111,211.2-240.7,338.6-263.9c108.7-19.8,110.3,119.9,307.1,115.6c3,0.1,6,0.1,8.9,0.1
				c188,0,191.1-135.1,298.1-115.6C2213.7,2038.1,2275.1,2389.8,2424.9,2278.8z"/>
		</g>
	</g>
	<g>
		<g>
			<path class="st3" d="M3366.4,764.2c-61,410.3-113.7,546.1-260.6,654.3c-322.7,237.4-124.7,446.3-390.9,530.9
				c-152.4,111.1-282.9,72-369.4,86c-41.1-38.1-69.4-73.5-41.4-106.1c78.7-91.9,249.3,26.2,459.3-126.9
				c210-153,83.1-450.5,288.7-559.8c135.7-72.2,299.9-407.3,321.7-661.7C3378.6,635.3,3376.5,696.7,3366.4,764.2z"/>
		</g>
	</g>
	<g id="_x32_">
		<path class="st1" d="M2112.7,1450.5c-123.8,25.2-223.5-153-252-291.5c-58.9-282.8,98.8-475.5,258.7-302.6
			C2283.7,1036.4,2277.9,1417.4,2112.7,1450.5z"/>
		<path class="st4" d="M2113.4,1455.7c-116.5,24.1-208.4-148.1-234.2-275.5c-55.1-268.9,92.7-448.4,240.4-286
			C2275.4,1067.8,2264.4,1424.9,2113.4,1455.7z"/>
		<path class="st5" d="M1942.5,1345.5c-174.8-283.8-19.6-667.6,177.1-451.3C2307,1158.9,2153.9,1520.8,1942.5,1345.5z"/>
		<path class="st4" d="M1974.1,980.8c0,40-60.5,40.1-60.5,0C1913.5,940.7,1974.1,940.7,1974.1,980.8z"/>
		<path class="st4" d="M1990,1034.5c0,14.9-22.5,14.9-22.5,0C1967.5,1019.7,1990,1019.6,1990,1034.5z"/>
		<path class="st6" d="M2136.4,1218c81.3,217.5-110.4,289.4-191.8,71.7C1863.2,1072.1,2055,1000.3,2136.4,1218z"/>
		<path class="st3" d="M2186,865.2c14.9,24.1-25,44.3-35.5,16.1c-39.2-90.7-120.4-166.2-218.6-103c-6.5,4.7-14-5.4-7.6-10.3
			C1929.6,768,2071.1,648.7,2186,865.2z"/>
		<path class="st3" d="M2101,702.8c17.5,18.8-10.9,45.6-28.6,26.9c-10.7-17-28.4-32.7-71-31.5c-8.2,0.1-8.7-11.7-0.7-12.8
			C2004.5,685.5,2060.8,661.9,2101,702.8z"/>
		<path class="st1" d="M1434,1453.3c122.2,25.9,215.9-161.1,241.6-291.2c56.7-283.9-95.2-474.4-247.9-302.3
			C1269,1041,1276.5,1420.4,1434,1453.3z"/>
		<path class="st4" d="M1434.3,1455.7c116.5,24.1,208.4-148.1,234.2-275.5c55.1-268.9-92.7-448.4-240.4-286
			C1272.4,1067.8,1283.4,1424.9,1434.3,1455.7z"/>
		<path class="st5" d="M1605.3,1345.5c174.8-283.8,19.6-667.6-177.1-451.3C1240.8,1158.9,1393.9,1520.8,1605.3,1345.5z"/>
		<path class="st4" d="M1573.7,980.8c0,40,60.5,40.1,60.5,0S1573.7,940.7,1573.7,980.8z"/>
		<path class="st4" d="M1557.8,1034.5c0,14.9,22.5,14.9,22.5,0C1580.3,1019.7,1557.8,1019.6,1557.8,1034.5z"/>
		<path class="st6" d="M1411.4,1218c-81.3,217.5,110.4,289.4,191.8,71.7C1684.6,1072.1,1492.8,1000.3,1411.4,1218z"/>
		<path class="st7" d="M1651.8,1501.2c46.4,147.5,256.9,166.2,303.2-26.2h23.8c-31.9,491.3-254.9,477.2-344.5,24L1651.8,1501.2z"/>
		<path class="st7" d="M1611.5,1531.1c-4.6-29.8,31.4-56.3,71.8-37.5c9,3.2,6.8,17.3-2.5,17.8c-29.6,3.5-39-2.6-59.8,21.1
			C1618.6,1536.6,1612.1,1535.9,1611.5,1531.1L1611.5,1531.1z"/>
		<path class="st7" d="M1916.4,1488.5c16.1-30.3,60.9-37.5,79.1-5.7c1.1,4.1,9.5,14.6,2.7,17.5c-10,0.9-24.8-11.1-35.5-9.4
			c-10.9-1.1-24.2,7.2-36,10.4C1919.2,1504.1,1912.1,1495,1916.4,1488.5L1916.4,1488.5z"/>
		<path class="st8" d="M1827.7,1731.6c0,0,3.3-43.4,49.1-43.4c45.8,0,14.8,121.4-43.4,126.8c-58.1,5.4-133.3-106.3-89.2-117.8
			C1788.4,1685.8,1827.7,1731.6,1827.7,1731.6z"/>
		<path class="st3" d="M1383.7,891.4c-9.5,23.6-45.6,9.4-36.2-14.4c64.9-145.9,171.1-172.5,258-114.6c7,4.7,0,15.6-7.6,10.3
			C1600.4,772.7,1450.4,689,1383.7,891.4z"/>
		<path class="st3" d="M1403.8,746.9c1.5-25.2,64-88.7,84.4-53.1c19,37.4-48.2,19.5-72.8,58.4
			C1411.8,759.3,1401.2,754.1,1403.8,746.9L1403.8,746.9z"/>
	</g>
</g>
</svg>
