<?xml version="1.0" encoding="UTF-8" standalone="no"?>
<!-- Generator: Adobe Illustrator 27.4.0, SVG Export Plug-In . SVG Version: 6.00 Build 0)  -->

<svg
   version="1.1"
   id="svg17"
   inkscape:version="1.2.2 (732a01da63, 2022-12-09)"
   sodipodi:docname="background.svg"
   x="0px"
   y="0px"
   viewBox="0 0 2044.0001 1148.0314"
   xml:space="preserve"
   width="540.80835mm"
   height="303.75mm"
   xmlns:inkscape="http://www.inkscape.org/namespaces/inkscape"
   xmlns:sodipodi="http://sodipodi.sourceforge.net/DTD/sodipodi-0.dtd"
   xmlns:xlink="http://www.w3.org/1999/xlink"
   xmlns="http://www.w3.org/2000/svg"
   xmlns:svg="http://www.w3.org/2000/svg"><defs
   id="defs78" />
<style
   type="text/css"
   id="style2">
	.st0{fill:#DEF7F9;}
	.st1{clip-path:url(#SVGID_00000075151832430830951450000004075448763986096035_);fill:#FF9292;}
	.st2{opacity:0.8;clip-path:url(#SVGID_00000075151832430830951450000004075448763986096035_);}
	.st3{fill:#FFDC96;}
	.st4{clip-path:url(#SVGID_00000075151832430830951450000004075448763986096035_);fill:#97D3D3;}
	.st5{clip-path:url(#SVGID_00000075151832430830951450000004075448763986096035_);}
	.st6{clip-path:url(#SVGID_00000075151832430830951450000004075448763986096035_);fill:#0667B5;}
	.st7{clip-path:url(#SVGID_00000074418235644824715900000011329036773180334985_);}
	.st8{fill:#FFFFFF;}
	.st9{opacity:0.3;fill:#0667B5;}
</style>
<rect
   x="0"
   y="3.0999999"
   class="st0"
   width="2044"
   height="1415.1"
   id="rect4" />
<sodipodi:namedview
   bordercolor="#666666"
   borderopacity="1"
   fit-margin-bottom="0"
   fit-margin-left="0"
   fit-margin-right="0"
   fit-margin-top="0"
   gridtolerance="10"
   guidetolerance="10"
   id="namedview19"
   inkscape:current-layer="svg17"
   inkscape:cx="200.61829"
   inkscape:cy="133.74553"
   inkscape:pageopacity="0"
   inkscape:pageshadow="2"
   inkscape:window-height="705"
   inkscape:window-maximized="1"
   inkscape:window-width="1366"
   inkscape:window-x="-8"
   inkscape:window-y="-8"
   inkscape:zoom="0.17196837"
   objecttolerance="10"
   pagecolor="#ffffff"
   showgrid="false"
   inkscape:showpageshadow="2"
   inkscape:pagecheckerboard="0"
   inkscape:deskcolor="#d1d1d1"
   inkscape:document-units="mm">
	</sodipodi:namedview>
<g
   id="g67"
   transform="translate(5.8150228,-116.30046)">
	<defs
   id="defs8">
		
			<rect
   id="SVGID_1_"
   x="314.5"
   y="-311.29999"
   transform="rotate(-90,1022.0001,710.65)"
   width="1415.1"
   height="2044" />
	</defs>
	<clipPath
   id="SVGID_00000009554971090275577250000012479680203071436673_">
		<use
   xlink:href="#SVGID_1_"
   style="overflow:visible"
   id="use10" />
	</clipPath>
	<path
   style="fill:#ff9292"
   d="m 306.3,238.8 c 1.5,89.6 -28.9,176.5 -40,265.4 -11.1,88.9 2.4,190.4 71.8,247.1 65,53.2 163.6,54.1 222.8,113.7 62.5,63 58.7,168.5 113.2,238.5 64.2,82.5 183.3,89.1 283,120.3 143.5,44.8 259.4,149.3 370.3,250.9 26.3,24 55,56.2 45.2,90.4 -10.8,37.5 -58.5,47.2 -97.4,50.2 -310.3,23.6 -620.7,47.1 -931,70.7 -139.7,10.6 -293.9,17.1 -404.1,-69.4 -128.4,-100.8 -145.5,-285.5 -152.2,-448.6 -8.7,-212.7 -17.3,-425.3 -26,-638 -4.8,-117.1 -9.4,-235.8 15.5,-350.3 C -195.2,53.8 -106,-160 50.4,-108 193.3,-60.6 303.7,88.8 306.3,238.8 Z"
   clip-path="url(#SVGID_00000009554971090275577250000012479680203071436673_)"
   id="path13" />
	<g
   style="opacity:0.8"
   clip-path="url(#SVGID_00000009554971090275577250000012479680203071436673_)"
   id="g17">
		<path
   class="st3"
   d="m 125,1073.2 c 95.4,41.2 204.3,32.2 307,16.9 102.7,-15.3 207.5,-36.2 309.5,-16.5 116.7,22.5 216.4,95.5 324.8,144.3 108.4,48.9 245.8,70 338.6,-4.3 156.7,-125.5 75.9,-423.1 243.6,-533.5 97.7,-64.4 247.6,-36.1 320.7,-127.4 49.2,-61.4 39.6,-149.1 50.2,-227.1 10.7,-78 72,-167.2 147.9,-146.2 69.9,19.3 83.5,111.1 83.4,183.6 -0.6,434.2 -1.3,868.4 -1.9,1302.6 -575.6,62.7 -1155.9,82.5 -1734.4,59.1 -156.9,-6.3 -320.1,-17.7 -456.5,-95.6 -136.1,-77.8 -232.9,-220.9 -254.3,-376.3 -11.5,-83.9 -2.8,-313.5 89.8,-360.2 82.8,-41.6 153.7,146.9 231.6,180.6 z"
   id="path15" />
	</g>
	<path
   style="fill:#97d3d3"
   d="m 1709.8,137.3 c 34.4,125.1 20.7,257.5 14.9,387.1 -5.8,129.6 -1.7,266.1 62.9,378.6 47.9,83.4 126.5,148.4 161.4,238 25.7,66.1 25,138.9 27.2,209.8 2.2,70.9 8.6,144.8 45.8,205.1 37.3,60.3 114.4,101.7 180.6,76.2 88,-33.9 101.8,-150.4 101.4,-244.7 -2,-436.7 -4,-873.4 -6,-1310.1 -0.6,-133 -6.5,-279.9 -98,-376.4 -92.7,-97.8 -249.3,-110.4 -376.6,-66.2 -80,27.8 -278.7,117 -287.7,216.2 -5.6,62 56,88.2 91.5,129.3 38.8,45 66.9,99.9 82.6,157.1 z"
   clip-path="url(#SVGID_00000009554971090275577250000012479680203071436673_)"
   id="path19" />
	<g
   clip-path="url(#SVGID_00000009554971090275577250000012479680203071436673_)"
   id="g23">
		<path
   d="m 1169.3,1453.7 c -87,48.5 -197.2,61.8 -302.3,36.4 -105.1,-25.4 -197,-87.6 -252.2,-170.5 -9.4,-14.1 -18.2,-29.1 -26.8,-43.7 -25.4,-43.2 -51.7,-87.9 -94.9,-112.4 -30.1,-17 -65.4,-22.2 -99.5,-27.1 -28.4,-4.1 -57.7,-8.4 -84.5,-19.4 C 184.4,1065.8 168,903 166,854.3 c -1.6,-37.2 0,-75.2 1.5,-112 C 170.2,675.8 173,607.1 157.3,541.8 132.7,440.1 39.6,344.1 -59.9,363.5 l -0.8,-4.3 c 101.9,-19.9 197.1,77.8 222.1,181.6 15.9,65.9 13.1,134.9 10.4,201.7 -1.5,36.7 -3,74.6 -1.5,111.6 2,48 18.2,208.6 140.5,258.8 26.3,10.8 55.3,15 83.5,19.1 34.5,5 70.2,10.2 101.1,27.7 44.2,25 70.8,70.2 96.5,114 8.5,14.5 17.3,29.5 26.6,43.5 115.5,173.4 366.8,234.2 548.8,132.8 z"
   id="path21" />
	</g>
	<g
   clip-path="url(#SVGID_00000009554971090275577250000012479680203071436673_)"
   id="g27">
		<path
   d="m 2050.4,-184.9 c 0,93.2 -50.2,186.5 -98.9,255 -14,19.8 -29,39.7 -43.5,59 -57.5,76.5 -117,155.7 -136.7,249.2 -21.6,102.9 8.1,209.5 40.1,300.2 6.3,17.8 13,36 19.4,53.5 28.6,77.9 58.2,158.4 65.7,242.1 8.2,91.8 -15.4,212.5 -106.2,276.5 -28.9,20.4 -62.6,33.3 -95.1,45.8 -26.7,10.3 -54.4,20.9 -79.2,35.6 -56.7,33.6 -96.6,104.6 -65.8,156.9 l -3.8,2.2 c -32.2,-54.4 8.8,-128.2 67.3,-162.8 25.2,-14.9 53,-25.6 79.9,-35.9 32.3,-12.4 65.6,-25.2 94.1,-45.3 89.3,-62.9 112.5,-182.1 104.4,-272.5 -7.4,-83.1 -36.9,-163.4 -65.5,-241 -6.4,-17.5 -13.1,-35.7 -19.4,-53.5 -32.2,-91.2 -62.1,-198.5 -40.3,-302.5 19.9,-94.5 79.6,-174 137.4,-250.9 14.5,-19.2 29.4,-39.1 43.4,-58.9 62.6,-88.1 127.8,-217.5 83.5,-333.7 l 4.1,-1.6 c 10.6,26.9 15.1,54.8 15.1,82.6 z"
   id="path25" />
	</g>
	
		<rect
   x="0"
   y="-244.39999"
   style="fill:#0667b5"
   width="2044"
   height="2044"
   clip-path="url(#SVGID_00000009554971090275577250000012479680203071436673_)"
   id="rect29" />
	<g
   clip-path="url(#SVGID_00000009554971090275577250000012479680203071436673_)"
   id="g65">
		<defs
   id="defs32">
			<rect
   id="SVGID_00000004523553020029555350000015588004430972137900_"
   x="0"
   y="-244.39999"
   width="2044"
   height="2044" />
		</defs>
		<clipPath
   id="SVGID_00000007394114426111624340000000684561675048504460_">
			<use
   xlink:href="#SVGID_00000004523553020029555350000015588004430972137900_"
   style="overflow:visible"
   id="use34" />
		</clipPath>
		<g
   clip-path="url(#SVGID_00000007394114426111624340000000684561675048504460_)"
   id="g63">
			<path
   class="st8"
   d="M 2232.4,422.6 C 2178.1,479.2 2111.7,526.1 2035.3,546.7 1952.6,569 1865.6,557.5 1785,531.9 1618.5,479.2 1478.1,367.1 1309.6,319 1224.9,294.8 1136,284.3 1048,288.5 c -87.6,4.1 -173.3,24 -258.4,44 -86.1,20.3 -173,41.1 -261.9,44 -71.8,2.3 -143.3,-8.7 -211.4,-31.3 C 181.2,300.3 59.4,209.9 -20.1,91.4 -30,76.6 -40.5,62.5 -49.7,47.2 c -2.7,-4.5 -9,-0.6 -6.9,4 C 4.9,183 120.1,285 252,343.8 c 65.9,29.4 136.4,48 208.3,54.1 84.9,7.2 169.8,-5.5 252.7,-23.3 88.3,-19 175.6,-43.8 265.2,-55.7 90.2,-12 182.3,-8.8 271.3,10.2 88.4,18.8 170.3,54.5 250.2,96 78.3,40.6 155,84.8 237.6,116.3 80.3,30.6 167.8,49.7 253.9,38.8 80.2,-10.2 153,-47.1 214.4,-98.9 15.4,-12.9 29.9,-26.8 43.8,-41.3 10.9,-11.5 -6.2,-28.7 -17,-17.4 z"
   id="path37" />
			<path
   class="st8"
   d="m 369.6,1334.8 c -1.7,-58.4 -14.5,-117.8 -45.4,-168 -26.5,-43.1 -64.4,-77.5 -100.8,-112.1 -35.8,-34 -71.8,-69.5 -92.3,-115.2 -25.5,-56.7 -20,-121.7 -16,-182 4,-61 7,-125.1 -18.3,-182.3 -20.3,-45.7 -64.1,-84.2 -115,-89.3 -11.9,-1.2 -24.5,0.7 -35.9,3.9 -5.6,1.6 -3.2,9.8 2.4,8.7 50.3,-9.5 99.1,24.7 123.9,66.2 30.1,50.3 29,112.8 25.3,169.3 -4,60.6 -11.9,122.6 4.1,182.2 13.1,48.9 43.7,89.2 78.5,124.9 34.4,35.3 72.7,66.9 103.9,105.2 34.1,41.8 53.7,91.9 60.7,145.1 13.2,100.8 -9.3,208.2 -54.6,298.7 -42.4,84.7 -108.9,159.2 -196.9,197.5 -10.6,4.6 -21.4,8.5 -32.4,11.9 -14.4,4.5 -8.2,27.2 6.2,22.6 96.4,-30.3 173.6,-101 224.7,-186.9 53.2,-89.4 80.9,-196.2 77.9,-300.4 z"
   id="path39" />
			<path
   class="st8"
   d="m 1516.2,1738.8 c -10.5,-35.1 -25.4,-69.6 -47.7,-98.9 -22.7,-29.7 -52.1,-53.5 -87.4,-66.6 -34.8,-13 -73.7,-14.5 -109.8,-6.3 -36.5,8.3 -70.1,27.3 -95.4,55 -12.7,13.9 -24.7,30.8 -42.9,37.7 -17.8,6.8 -37.2,3.3 -54.1,-4.2 -39.4,-17.5 -66.8,-51.8 -102.5,-74.9 -17.3,-11.2 -36.5,-20.2 -57.2,-22.6 -20.8,-2.4 -41.1,3.7 -57.3,16.9 -15.8,12.8 -26.6,31 -36.1,48.7 -10.8,20.2 -20.2,41.3 -28,62.8 -15.4,42.4 -26.2,88.6 -27.3,133.9 -0.3,11.3 0.6,22.6 1.1,33.8 0.2,4.3 6.5,4.3 6.7,0 0.5,-11.4 2.2,-22.6 3.6,-34 1.3,-10.9 2.4,-21.8 4.2,-32.7 3.7,-22 8.5,-43.7 15,-65 6.4,-21 14.2,-41.5 23.5,-61.4 9,-19.1 18.8,-38.4 31.3,-55.5 11,-15 26,-27.6 44.9,-30.3 18.6,-2.6 37.2,4.2 53.2,13.2 36.5,20.4 63,53.9 98.8,75.4 17,10.2 35.9,18.1 55.9,19.4 20.9,1.3 40.2,-6.4 55.9,-19.7 14.5,-12.3 25.5,-28.1 39.8,-40.6 12.4,-10.8 26.9,-19.5 42,-26 31.4,-13.4 67.6,-17.4 101.1,-10.9 34.1,6.6 64.1,23.9 87.9,49 48.3,50.9 66.3,124.1 76.3,191.7 1.3,8.8 2.5,17.3 3.8,26.2 1.8,12.4 23.2,9.6 22,-3 -3.5,-37.4 -10.5,-75 -21.3,-111.1 z"
   id="path41" />
			<path
   class="st8"
   d="m 2236.9,896 c -27.4,-22.7 -55.9,-44.2 -84.1,-65.9 -25.1,-19.4 -50.3,-38.7 -76.6,-56.4 -49.3,-33.1 -106.2,-61.8 -167,-61.1 -54.7,0.6 -105.5,26.8 -140.8,68.2 -37.5,44.1 -54.9,101 -52.4,158.6 2.7,61.9 26.7,119.9 62.3,170.1 34.6,48.7 77.5,90.5 116.9,135.2 38.8,43.9 73.7,92.6 90.7,149.4 8.1,27 11.9,55.4 8.5,83.5 -3.3,27.4 -14.6,52.2 -28.5,75.7 -27,45.5 -61.7,90.9 -52.5,147.1 8.5,52.2 51.5,90.5 92.9,118.8 11,7.5 22.4,13.7 34.4,19.4 3.5,1.7 8,-2.9 4.5,-5.9 -38.3,-32.1 -83.7,-60.1 -106.2,-106.8 -10.5,-21.9 -13,-46.5 -7.1,-70.1 6.3,-25.1 20.3,-47.3 33.9,-69 14.2,-22.6 28.8,-45.2 37.9,-70.5 9.5,-26.3 12.3,-55 9.4,-82.6 -6.1,-57.1 -32.8,-110.5 -66.5,-156.3 -68.3,-93.1 -170.7,-165.4 -201.7,-281.8 -14.6,-54.9 -12.6,-115.6 14.6,-166.4 23.2,-43.3 62.8,-78.6 111,-91 55.7,-14.3 112.4,4.9 160.7,32.4 54.6,31.2 102.6,72.9 151.5,112 13.3,10.6 26.8,21 40.5,31.2 10.3,7.5 23.6,-9.6 13.7,-17.8 z"
   id="path43" />
			<circle
   class="st8"
   cx="74.300003"
   cy="-93.800003"
   r="176.60001"
   id="circle45" />
			<circle
   class="st8"
   cx="2044"
   cy="997.70001"
   r="126.3"
   id="circle47" />
			
				<circle
   transform="matrix(0.7071,-0.7071,0.7071,0.7071,539.7229,1507.3939)"
   class="st8"
   cx="2089.3999"
   cy="102.2"
   id="ellipse49"
   r="295.5" />
			
				<circle
   transform="matrix(0.7071,-0.7071,0.7071,0.7071,-997.9232,398.1494)"
   class="st8"
   cx="-18.4"
   cy="1403.7"
   id="ellipse51"
   r="295.5" />
			<g
   id="g61">
				<path
   class="st9"
   d="m 159.6,198.7 c 268,217.4 454.4,-64.5 839,151.7 41.6,17.6 84.1,33.6 128.5,42.6 166.5,45 295.7,-85.2 451.8,-47.6 44.1,12 84.4,34.9 125,55.3 105.9,51.9 254.8,174.5 340.2,92.4 132.9,-127.8 130.4,-607 0,-737.4 -361.3,-361.3 -1678.4,-357 -2044,0 -152.3,148.6 -12.3,290.2 159.5,443 z"
   id="path53" />
				<path
   class="st9"
   d="M 353.3,1798.6 C 501.7,1637.1 555.1,1379.1 468.7,1175.4 425.8,1067.8 336,994.7 249.3,923.6 c -32.4,-33.9 -45.4,-81 -45.1,-127.1 -1,-50 4.9,-100 -3.9,-149.7 C 179,549.7 78.6,385.4 0,442.8 c -273.9,200.1 -239.9,1117 0,1356.9 62.3,62.3 270.3,32.2 352.2,0 0.5,-0.3 0.7,-0.7 1.1,-1.1 z"
   id="path55" />
				<path
   class="st9"
   d="m 1590,1714.8 c -39,-103.2 -120.5,-213 -236.3,-229.9 -77.8,-11.2 -135.1,63.3 -211.6,58.7 -73.4,-7.5 -135.5,-71.5 -211.6,-60.1 -110.7,33.9 -265.9,233.2 -198.8,316.1 140,172.7 762.2,182.4 889.2,0 17.2,-24.7 -19.9,-56.8 -30.9,-84.8 z"
   id="path57" />
				<path
   class="st9"
   d="m 1863,656.7 c -196.9,-6.8 -343.9,188.8 -257.9,372.6 49.9,113.6 147.9,195.1 226.6,288 43,49.4 85.2,111.8 70.8,180.7 -9.5,47.6 -43.7,84.9 -55.9,131.5 -14.8,69.1 29.5,151.8 93.7,170.1 24.9,7.1 85.4,18.3 103.7,0 195.2,-195.2 152.6,-874 0,-1104 -34.3,-51.7 -118.8,-38.8 -181,-38.9 z"
   id="path59" />
			</g>
		</g>
	</g>
</g>
<g
   id="g75">
	<defs
   id="defs70">
		<rect
   id="SVGID_00000149356401386253305370000000073538094583025829_"
   x="0"
   y="3.0999999"
   width="2044"
   height="1415.1" />
	</defs>
	<clipPath
   id="SVGID_00000147940179829566934800000010356541728866040461_">
		<use
   xlink:href="#SVGID_00000149356401386253305370000000073538094583025829_"
   style="overflow:visible"
   id="use72" />
	</clipPath>
</g>
</svg>
