<?xml version="1.0" encoding="utf-8"?>
<!-- Generator: Adobe Illustrator 27.4.0, SVG Export Plug-In . SVG Version: 6.00 Build 0)  -->
<svg version="1.1"
	 id="svg61" xmlns:cc="http://creativecommons.org/ns#" xmlns:dc="http://purl.org/dc/elements/1.1/" xmlns:rdf="http://www.w3.org/1999/02/22-rdf-syntax-ns#" xmlns:sodipodi="http://sodipodi.sourceforge.net/DTD/sodipodi-0.dtd" xmlns:inkscape="http://www.inkscape.org/namespaces/inkscape" xmlns:svg="http://www.w3.org/2000/svg" inkscape:version="1.1.2 (b8e25be833, 2022-02-05)" sodipodi:docname="backcard.svg"
	 xmlns="http://www.w3.org/2000/svg" xmlns:xlink="http://www.w3.org/1999/xlink" x="0px" y="0px" viewBox="0 0 608.1 432.5"
	 style="enable-background:new 0 0 608.1 432.5;" xml:space="preserve">
<style type="text/css">
	.st0{clip-path:url(#SVGID_00000103980898828310521220000011946675368247229362_);}
	.st1{fill:#C3EBFF;}
	.st2{fill:#277DB2;}
	.st3{fill:#1EDAF9;}
	.st4{fill:#D69827;}
	.st5{fill:#D6CF27;}
	.st6{fill:#FBF69B;}
	.st7{fill:#A3680A;}
	.st8{fill:#CFEDFC;}
	.st9{opacity:0.14;}
	.st10{opacity:0.15;fill:#C3EBFF;enable-background:new    ;}
	.st11{fill:none;stroke:#FFFFFF;stroke-width:5;stroke-miterlimit:10;}
	.st12{fill:#F68340;}
	.st13{fill:#FFE01A;}
	.st14{fill:#CCCCCC;}
	.st15{fill:#F67225;}
	.st16{fill:#FFC21A;}
	.st17{fill:#E0E0E0;}
	.st18{fill:#FFF4B0;}
</style>
<g>
	<g>
		<defs>
			<path id="SVGID_1_" d="M604.3,45.8v340.8c0,12.1-4.3,22.3-12.8,30.9s-18.7,12.9-30.6,12.9H47.2c-12,0-22.2-4.3-30.6-12.9
				S3.8,398.7,3.8,386.7V45.8c0-12.1,4.3-22.3,12.8-30.9S35.3,2.1,47.2,2.1h513.6c12,0,22.2,4.3,30.6,12.9S604.3,33.8,604.3,45.8
				L604.3,45.8z"/>
		</defs>
		<clipPath id="SVGID_00000097466198610961075350000014947107170346662078_">
			<use xlink:href="#SVGID_1_"  style="overflow:visible;"/>
		</clipPath>
		<g style="clip-path:url(#SVGID_00000097466198610961075350000014947107170346662078_);">
			<g>
				<g>
					<g>
						<path class="st1" d="M503.8,1.6H103c0,54.8-44.4,99.2-99.2,99.2l0,0v230.5l0,0c54.8,0,99.2,44.4,99.2,99.2l0,0h400.8l0,0
							c0-54.8,44.4-99.2,99.2-99.2c0.4,0,0.9,0,1.3,0V100.8c-0.4,0-0.9,0-1.3,0C548.2,100.8,503.8,56.4,503.8,1.6z"/>
						<path class="st2" d="M479.8,27.3H127.1c0,48.2-39.1,87.3-87.3,87.3l0,0v202.9l0,0c48.2,0,87.3,39.1,87.3,87.3l0,0h352.7l0,0
							c0-48.2,39.1-87.3,87.3-87.3c0.4,0,0.8,0,1.1,0V114.6c-0.4,0-0.8,0-1.1,0C518.9,114.7,479.8,75.6,479.8,27.3z"/>
						<path class="st3" d="M476.6,30.8H130.3c0,47.3-38.4,85.7-85.7,85.7l0,0v199.2l0,0c47.3,0,85.7,38.4,85.7,85.7l0,0h346.3l0,0
							c0-47.3,38.4-85.7,85.7-85.7c0.4,0,0.7,0,1.1,0V116.5c-0.4,0-0.7,0-1.1,0C515,116.5,476.6,78.1,476.6,30.8z"/>
						<g>
							<path class="st2" d="M493,17.6l-3.4,0.1c0-0.3,0-0.6,0-0.9h-0.9v-3.4h4.3v1.7C493,15.9,493,16.8,493,17.6z"/>
							<path class="st2" d="M483.5,13.4v3.4h-5.2v-3.4H483.5z M473,13.4v3.4h-5.2v-3.4H473z M462.6,13.4v3.4h-5.2v-3.4H462.6z
								 M452.2,13.4v3.4H447v-3.4H452.2z M441.7,13.4v3.4h-5.2v-3.4H441.7z M431.3,13.4v3.4h-5.2v-3.4H431.3z M420.8,13.4v3.4h-5.2
								v-3.4H420.8z M410.4,13.4v3.4h-5.2v-3.4H410.4z M400,13.4v3.4h-5.2v-3.4H400z M389.5,13.4v3.4h-5.2v-3.4H389.5z M379.1,13.4
								v3.4h-5.2v-3.4H379.1z M368.7,13.4v3.4h-5.2v-3.4H368.7z M358.2,13.4v3.4H353v-3.4H358.2z M347.8,13.4v3.4h-5.2v-3.4H347.8z
								 M337.4,13.4v3.4h-5.2v-3.4H337.4z M326.9,13.4v3.4h-5.2v-3.4H326.9z M316.5,13.4v3.4h-5.2v-3.4H316.5z M306,13.4v3.4h-5.2
								v-3.4H306z M295.6,13.4v3.4h-5.2v-3.4H295.6z M285.2,13.4v3.4H280v-3.4H285.2z M274.7,13.4v3.4h-5.2v-3.4H274.7z M264.3,13.4
								v3.4h-5.2v-3.4H264.3z M253.9,13.4v3.4h-5.2v-3.4H253.9z M243.4,13.4v3.4h-5.2v-3.4H243.4z M233,13.4v3.4h-5.2v-3.4H233z
								 M222.6,13.4v3.4h-5.2v-3.4H222.6z M212.1,13.4v3.4h-5.2v-3.4H212.1z M201.7,13.4v3.4h-5.2v-3.4H201.7z M191.3,13.4v3.4H186
								v-3.4H191.3z M180.8,13.4v3.4h-5.2v-3.4H180.8z M170.4,13.4v3.4h-5.2v-3.4H170.4z M159.9,13.4v3.4h-5.2v-3.4H159.9z
								 M149.5,13.4v3.4h-5.2v-3.4H149.5z M139.1,13.4v3.4h-5.2v-3.4H139.1z M128.6,13.4v3.4h-5.2v-3.4H128.6z"/>
							<path class="st2" d="M118.2,13.4v3.4h-0.9c0,0.3,0,0.6,0,0.9l-3.4-0.1c0-0.8,0-1.7,0-2.5v-1.7
								C113.9,13.4,118.2,13.4,118.2,13.4z"/>
							<path class="st2" d="M117,23c-0.1,1.8-0.3,3.5-0.6,5.3l-3.4-0.5c0.2-1.7,0.4-3.4,0.6-5.1L117,23z M115.5,33.5
								c-0.3,1.7-0.7,3.5-1.2,5.2l-3.3-0.9c0.4-1.7,0.8-3.3,1.1-5L115.5,33.5z M112.9,43.8c-0.5,1.7-1.1,3.4-1.8,5l-3.2-1.2
								c0.6-1.6,1.2-3.2,1.7-4.8L112.9,43.8z M109.1,53.8c-0.7,1.6-1.5,3.2-2.3,4.8l-3-1.6c0.8-1.5,1.5-3,2.2-4.6L109.1,53.8z
								 M104.2,63.2c-0.9,1.5-1.9,3-2.8,4.5l-2.9-1.9c0.9-1.4,1.9-2.9,2.7-4.3L104.2,63.2z M98.3,72c-1.1,1.4-2.2,2.8-3.3,4.2
								L92.4,74c1.1-1.3,2.2-2.7,3.2-4L98.3,72z M91.5,80.1c-1.2,1.3-2.5,2.5-3.8,3.8l-2.4-2.5c1.2-1.2,2.5-2.4,3.6-3.6L91.5,80.1z
								 M83.7,87.4c-1.3,1.1-2.7,2.3-4.1,3.3L77.5,88c1.4-1,2.7-2.1,4-3.2L83.7,87.4z M75.3,93.8c-1.5,1-3,1.9-4.5,2.8l-1.7-3
								c1.5-0.9,2.9-1.8,4.3-2.7L75.3,93.8z M66.1,99.2c-1.6,0.8-3.2,1.6-4.8,2.3L60,98.4c1.5-0.7,3.1-1.4,4.6-2.2L66.1,99.2z
								 M56.5,103.6c-1.6,0.6-3.3,1.2-5,1.8l-1-3.3c1.6-0.5,3.2-1.1,4.8-1.7L56.5,103.6z M46.4,106.8c-1.7,0.4-3.5,0.8-5.2,1.2
								l-0.7-3.4c1.7-0.3,3.3-0.7,5-1.1L46.4,106.8z M35.9,108.9c-1.8,0.2-3.5,0.4-5.3,0.6l-0.3-3.4c1.7-0.1,3.4-0.3,5.1-0.6
								L35.9,108.9z"/>
							<path class="st2" d="M25.3,109.7c-0.3,0-0.6,0-0.9,0v0.9H21v-4.3h1.7c0.8,0,1.7,0,2.5,0L25.3,109.7z"/>
							<path class="st2" d="M24.4,115.8v5.1H21v-5.1H24.4z M24.4,126.1v5.1H21v-5.1H24.4z M24.4,136.4v5.1H21v-5.1H24.4z
								 M24.4,146.6v5.1H21v-5.1H24.4z M24.4,156.9v5.1H21v-5.1H24.4z M24.4,167.2v5.1H21v-5.1H24.4z M24.4,177.5v5.1H21v-5.1H24.4z
								 M24.4,187.8v5.1H21v-5.1H24.4z M24.4,198.1v5.1H21v-5.1H24.4z M24.4,208.4v5.1H21v-5.1H24.4z M24.4,218.7v5.1H21v-5.1H24.4z
								 M24.4,229v5.1H21V229H24.4z M24.4,239.2v5.1H21v-5.1H24.4z M24.4,249.5v5.1H21v-5.1H24.4z M24.4,259.8v5.1H21v-5.1H24.4z
								 M24.4,270.1v5.1H21v-5.1H24.4z M24.4,280.4v5.1H21v-5.1H24.4z M24.4,290.7v5.1H21v-5.1H24.4z M24.4,301v5.1H21V301H24.4z
								 M24.4,311.3v5.1H21v-5.1H24.4z"/>
							<path class="st2" d="M25.3,322.4l-0.1,3.4c-0.8,0-1.7,0-2.5,0H21v-4.3h3.4v0.9C24.7,322.4,25,322.4,25.3,322.4z"/>
							<path class="st2" d="M117,409.1l-3.4,0.3c-0.1-1.7-0.3-3.4-0.6-5.1l3.4-0.5C116.7,405.6,116.9,407.3,117,409.1z M115.5,398.6
								l-3.4,0.7c-0.3-1.7-0.7-3.3-1.1-5l3.3-0.9C114.8,395.1,115.2,396.8,115.5,398.6z M112.9,388.3l-3.3,1
								c-0.5-1.6-1.1-3.2-1.7-4.8l3.2-1.2C111.8,384.9,112.3,386.6,112.9,388.3z M109.1,378.4l-3.1,1.4c-0.7-1.5-1.4-3.1-2.2-4.6
								l3-1.6C107.6,375.2,108.4,376.8,109.1,378.4z M104.2,369l-3,1.7c-0.9-1.5-1.8-2.9-2.7-4.3l2.9-1.9
								C102.4,365.9,103.3,367.4,104.2,369z M98.3,360.1l-2.7,2.1c-1-1.4-2.1-2.7-3.2-4L95,356C96.1,357.3,97.2,358.7,98.3,360.1z
								 M91.4,352l-2.5,2.4c-1.2-1.2-2.4-2.5-3.6-3.6l2.4-2.5C89,349.5,90.2,350.7,91.4,352z M83.7,344.7l-2.2,2.6
								c-1.3-1.1-2.7-2.2-4-3.2l2.1-2.7C81,342.5,82.4,343.6,83.7,344.7z M75.2,338.3l-1.9,2.9c-1.4-0.9-2.9-1.9-4.3-2.7l1.7-3
								C72.3,336.4,73.8,337.4,75.2,338.3z M66.1,332.9l-1.6,3c-1.5-0.8-3.1-1.5-4.6-2.2l1.4-3.1C62.9,331.3,64.5,332.1,66.1,332.9z
								 M56.4,328.6l-1.2,3.2c-1.6-0.6-3.2-1.2-4.8-1.7l1-3.3C53.1,327.4,54.7,328,56.4,328.6z M46.3,325.4l-0.9,3.3
								c-1.7-0.4-3.3-0.8-5-1.1l0.7-3.4C42.8,324.5,44.5,324.9,46.3,325.4z M35.8,323.3l-0.5,3.4c-1.7-0.2-3.4-0.4-5.1-0.6l0.3-3.4
								C32.3,322.9,34.1,323.1,35.8,323.3z"/>
							<path class="st2" d="M118.2,415.4v3.4h-4.3v-1.7c0-0.8,0-1.7,0-2.5l3.4-0.1c0,0.3,0,0.6,0,0.9L118.2,415.4L118.2,415.4z"/>
							<path class="st2" d="M483.5,415.4v3.4h-5.2v-3.4H483.5z M473,415.4v3.4h-5.2v-3.4H473z M462.6,415.4v3.4h-5.2v-3.4H462.6z
								 M452.2,415.4v3.4H447v-3.4H452.2z M441.7,415.4v3.4h-5.2v-3.4H441.7z M431.3,415.4v3.4h-5.2v-3.4H431.3z M420.8,415.4v3.4
								h-5.2v-3.4H420.8z M410.4,415.4v3.4h-5.2v-3.4H410.4z M400,415.4v3.4h-5.2v-3.4H400z M389.5,415.4v3.4h-5.2v-3.4H389.5z
								 M379.1,415.4v3.4h-5.2v-3.4H379.1z M368.7,415.4v3.4h-5.2v-3.4H368.7z M358.2,415.4v3.4H353v-3.4H358.2z M347.8,415.4v3.4
								h-5.2v-3.4H347.8z M337.4,415.4v3.4h-5.2v-3.4H337.4z M326.9,415.4v3.4h-5.2v-3.4H326.9z M316.5,415.4v3.4h-5.2v-3.4H316.5z
								 M306,415.4v3.4h-5.2v-3.4H306z M295.6,415.4v3.4h-5.2v-3.4H295.6z M285.2,415.4v3.4H280v-3.4H285.2z M274.7,415.4v3.4h-5.2
								v-3.4H274.7z M264.3,415.4v3.4h-5.2v-3.4H264.3z M253.9,415.4v3.4h-5.2v-3.4H253.9z M243.4,415.4v3.4h-5.2v-3.4H243.4z
								 M233,415.4v3.4h-5.2v-3.4H233z M222.6,415.4v3.4h-5.2v-3.4H222.6z M212.1,415.4v3.4h-5.2v-3.4H212.1z M201.7,415.4v3.4h-5.2
								v-3.4H201.7z M191.3,415.4v3.4H186v-3.4H191.3z M180.8,415.4v3.4h-5.2v-3.4H180.8z M170.4,415.4v3.4h-5.2v-3.4H170.4z
								 M159.9,415.4v3.4h-5.2v-3.4H159.9z M149.5,415.4v3.4h-5.2v-3.4H149.5z M139.1,415.4v3.4h-5.2v-3.4H139.1z M128.6,415.4v3.4
								h-5.2v-3.4H128.6z"/>
							<path class="st2" d="M493,414.6c0,0.8,0,1.7,0,2.5v1.7h-4.3v-3.4h0.9c0-0.3,0-0.6,0-0.9L493,414.6z"/>
							<path class="st2" d="M577.7,326.1c-1.7,0.1-3.4,0.3-5.1,0.5l-0.4-3.4c1.8-0.2,3.6-0.4,5.3-0.5L577.7,326.1z M567.4,327.4
								c-1.7,0.3-3.4,0.7-5,1.1l-0.8-3.3c1.7-0.4,3.5-0.8,5.2-1.1L567.4,327.4z M557.4,329.8c-1.6,0.5-3.3,1.1-4.9,1.7l-1.2-3.2
								c1.7-0.6,3.4-1.2,5.1-1.7L557.4,329.8z M547.7,333.4c-1.6,0.7-3.1,1.4-4.7,2.2l-1.5-3.1c1.6-0.8,3.2-1.6,4.8-2.3L547.7,333.4
								z M538.5,338.1c-1.5,0.9-3,1.8-4.4,2.7l-1.9-2.9c1.5-1,3-1.9,4.6-2.8L538.5,338.1z M529.9,343.7c-1.4,1-2.7,2.1-4.1,3.2
								l-2.2-2.6c1.4-1.1,2.8-2.2,4.2-3.3L529.9,343.7z M522,350.4c-1.2,1.2-2.5,2.4-3.7,3.6l-2.5-2.4c1.2-1.3,2.5-2.6,3.8-3.8
								L522,350.4z M514.8,357.8c-1.1,1.3-2.2,2.6-3.2,4l-2.7-2.1c1.1-1.4,2.2-2.8,3.4-4.2L514.8,357.8z M508.6,366
								c-1,1.4-1.9,2.9-2.8,4.4l-2.9-1.8c0.9-1.5,1.9-3.1,2.9-4.5L508.6,366z M503.3,374.9c-0.8,1.5-1.6,3.1-2.3,4.6l-3.1-1.4
								c0.7-1.6,1.5-3.2,2.3-4.8L503.3,374.9z M499,384.3c-0.6,1.6-1.2,3.3-1.7,4.9l-3.3-1c0.5-1.7,1.1-3.4,1.8-5.1L499,384.3z
								 M495.9,394.2c-0.4,1.7-0.8,3.4-1.2,5l-3.4-0.7c0.3-1.7,0.7-3.5,1.2-5.2L495.9,394.2z M493.9,404.3c-0.2,1.7-0.4,3.4-0.6,5.1
								l-3.4-0.3c0.1-1.8,0.3-3.5,0.6-5.3L493.9,404.3z"/>
							<path class="st2" d="M587.2,321.6v4.3h-2.3c-0.2,0-0.4,0-0.6,0c-0.4,0-0.9,0-1.3,0l-0.1-3.4c0.3,0,0.6,0,0.9,0v-0.8h3.4
								V321.6z"/>
							<path class="st2" d="M587.2,115.8v5.1h-3.4v-5.1H587.2z M587.2,126v5.1h-3.4V126H587.2z M587.2,136.3v5.1h-3.4v-5.1H587.2z
								 M587.2,146.6v5.1h-3.4v-5.1H587.2z M587.2,156.9v5.1h-3.4v-5.1H587.2z M587.2,167.2v5.1h-3.4v-5.1H587.2z M587.2,177.5v5.1
								h-3.4v-5.1H587.2z M587.2,187.8v5.1h-3.4v-5.1H587.2z M587.2,198.1v5.1h-3.4v-5.1H587.2z M587.2,208.4v5.1h-3.4v-5.1H587.2z
								 M587.2,218.7v5.1h-3.4v-5.1H587.2z M587.2,229v5.1h-3.4V229H587.2z M587.2,239.2v5.1h-3.4v-5.1H587.2z M587.2,249.5v5.1
								h-3.4v-5.1H587.2z M587.2,259.8v5.1h-3.4v-5.1H587.2z M587.2,270.1v5.1h-3.4v-5.1H587.2z M587.2,280.4v5.1h-3.4v-5.1H587.2z
								 M587.2,290.7v5.1h-3.4v-5.1H587.2z M587.2,301v5.1h-3.4V301H587.2z M587.2,311.3v5.1h-3.4v-5.1H587.2z"/>
							<path class="st2" d="M587.2,106.3v4.3h-3.4v-0.8c-0.3,0-0.6,0-0.9,0l0.1-3.4c0.4,0,0.9,0,1.3,0c0.2,0,0.4,0,0.6,0
								L587.2,106.3z"/>
							<path class="st2" d="M577.7,106.1l-0.2,3.4c-1.8-0.1-3.6-0.3-5.3-0.5l0.4-3.4C574.3,105.8,576,106,577.7,106.1z M567.5,104.8
								l-0.6,3.4c-1.7-0.3-3.5-0.7-5.2-1.1l0.8-3.3C564.1,104.1,565.8,104.5,567.5,104.8z M557.5,102.4l-1,3.3
								c-1.7-0.5-3.4-1.1-5.1-1.7l1.2-3.2C554.2,101.3,555.8,101.9,557.5,102.4z M547.8,98.8l-1.4,3.1c-1.6-0.7-3.3-1.5-4.9-2.3
								l1.6-3.1C544.6,97.3,546.2,98.1,547.8,98.8z M538.6,94.1l-1.7,3c-1.5-0.9-3.1-1.8-4.6-2.8l1.9-2.9
								C535.6,92.4,537.1,93.3,538.6,94.1z M529.9,88.4l-2,2.8c-1.4-1.1-2.8-2.2-4.2-3.3l2.2-2.6C527.2,86.3,528.5,87.4,529.9,88.4z
								 M522,81.8l-2.3,2.5c-1.3-1.2-2.6-2.5-3.8-3.8l2.5-2.4C519.5,79.5,520.7,80.7,522,81.8z M514.9,74.4l-2.6,2.2
								c-1.2-1.4-2.3-2.8-3.4-4.2l2.7-2.1C512.6,71.7,513.7,73.1,514.9,74.4z M508.6,66.2l-2.8,1.9c-1-1.5-2-3-2.9-4.5l2.9-1.8
								C506.7,63.3,507.6,64.8,508.6,66.2z M503.3,57.3l-3,1.6c-0.8-1.6-1.6-3.2-2.3-4.8l3.1-1.4C501.8,54.2,502.5,55.8,503.3,57.3z
								 M499.1,47.9l-3.2,1.2c-0.6-1.7-1.2-3.3-1.8-5l3.3-1.1C497.9,44.7,498.4,46.3,499.1,47.9z M495.9,38.1l-3.3,0.9
								c-0.4-1.7-0.9-3.5-1.2-5.2l3.4-0.7C495.1,34.7,495.5,36.4,495.9,38.1z M493.9,28l-3.4,0.5c-0.2-1.8-0.5-3.6-0.6-5.3l3.4-0.3
								C493.4,24.6,493.6,26.3,493.9,28z"/>
						</g>
						<g>
							<path class="st2" d="M103,1.6H3.8v99.2l0,0C58.6,100.8,103,56.4,103,1.6z"/>
							<path class="st3" d="M503.8,1.6c0,54.8,44.4,99.2,99.2,99.2c0.4,0,0.9,0,1.3,0V1.6H503.8z"/>
							<path class="st3" d="M3.8,331.3L3.8,331.3v99.2H103l0,0C103,375.8,58.6,331.3,3.8,331.3z"/>
							<path class="st2" d="M503.8,430.6L503.8,430.6h100.5v-99.2c-0.4,0-0.9,0-1.3,0C548.2,331.3,503.8,375.8,503.8,430.6z"/>
						</g>
						<path class="st2" d="M389.6,55.8L389.6,55.8c-5.3-1.2-10.7-2.2-16.1-3.1c-0.2,0-0.3-0.1-0.5-0.1c-2.5-0.4-5.1-0.8-7.6-1.2
							c-0.2,0-0.4-0.1-0.6-0.1c-6.1-0.9-12.3-1.6-18.6-2.2c0,0,0,0-0.1,0c-3.3-0.3-6.5-0.5-9.8-0.7c-0.4,0-0.9-0.1-1.3-0.1
							c-3.2-0.2-6.3-0.3-9.5-0.4c-0.5,0-1,0-1.4,0c-3.3-0.1-6.6-0.1-9.9-0.1c-2.9,0-5.7,0-8.6,0.1c-0.7,0-1.3,0-2,0.1
							c-2.9,0.1-5.7,0.2-8.5,0.3c-0.1,0-0.1,0-0.2,0c-2.8,0.1-5.6,0.3-8.4,0.6c-0.5,0-1,0.1-1.6,0.1c-2.9,0.2-5.7,0.5-8.5,0.8h-0.1
							l0,0c-40.7,4.3-78.1,15.5-109.6,31.7c-0.2,0.1-0.5,0.2-0.7,0.4c-1.5,0.8-3,1.6-4.5,2.4c-0.3,0.2-0.6,0.3-0.9,0.5
							c-1.4,0.8-2.9,1.6-4.3,2.4c-0.3,0.2-0.5,0.3-0.8,0.5c-1.6,0.9-3.1,1.8-4.6,2.8c-0.1,0-0.2,0.1-0.2,0.1
							c-8.4,5.1-16.2,10.6-23.4,16.5l-0.1,0.1c-1.3,1.1-2.6,2.2-3.9,3.3c-0.1,0-0.1,0.1-0.2,0.1c-1.3,1.1-2.6,2.2-3.8,3.4l-0.1,0.1
							c-6.5,5.8-12.4,12-17.7,18.4l0,0l0,0C81.2,156.8,69.6,185,69.6,215c0,0.1,0,0.1,0,0.2v0.1c0,19.1,4.7,37.5,13.3,54.6h0.2
							c5.9,11.6,13.6,22.7,23,33l0.1,0.1c3.2,3.6,6.7,7,10.3,10.4c0.1,0.1,0.3,0.2,0.4,0.4c24.3,22.6,56.7,40.9,94.3,52.9
							c0.1,0,0.2,0.1,0.3,0.1c8.8,2.8,17.8,5.2,27.2,7.3c0.1,0,0.1,0,0.2,0c9.4,2.1,18.9,3.8,28.8,5.1l0,0l0,0
							c15.2,2,30.8,3.1,46.9,3.1c25.9,0,50.9-2.8,74.3-7.8c0.3-0.1,0.5-0.1,0.8-0.2c1.9-0.4,3.7-0.8,5.5-1.3c0.3-0.1,0.7-0.2,1-0.2
							c1.8-0.4,3.6-0.9,5.3-1.3c0.3-0.1,0.6-0.2,0.9-0.2c1.9-0.5,3.7-1,5.6-1.5c0.2-0.1,0.4-0.1,0.5-0.1c8.3-2.4,16.4-5,24.2-8
							c0.1,0,0.2-0.1,0.3-0.1c1.8-0.7,3.7-1.4,5.5-2.1c0.2-0.1,0.3-0.1,0.5-0.2c1.8-0.7,3.6-1.5,5.3-2.2c0.1,0,0.2-0.1,0.3-0.1
							c69-29.6,114.8-81.9,114.8-141.6c0-56.2-40.7-105.9-103-136.2l0.1-0.1c-20-9.7-42.1-17.4-66-22.7v0.1
							C389.9,55.9,389.7,55.8,389.6,55.8L389.6,55.8z"/>
						<g>
							<path class="st4" d="M304,49c135.2,0,244.9,74.8,244.9,167.1S439.3,383.2,304,383.2c-135.2,0-244.9-74.8-244.9-167.1
								C59.2,123.8,168.8,49,304,49z"/>
							<g>
								<polygon class="st5" points="319.6,215.4 319.6,215.4 319.6,215.4 								"/>
								<path class="st5" d="M319.6,215.4L319.6,215.4L319.6,215.4z"/>
								<path class="st5" d="M319.6,215.4L319.6,215.4L319.6,215.4z"/>
								<polygon class="st5" points="319.6,215.4 319.6,215.4 319.6,215.4 								"/>
								<path class="st5" d="M319.6,215.4L319.6,215.4L319.6,215.4z"/>
								<path class="st5" d="M319.6,215.4L319.6,215.4L319.6,215.4z"/>
								<polygon class="st5" points="319.6,215.4 319.6,215.4 319.6,215.4 319.6,215.4 								"/>
								<polygon class="st5" points="319.6,215.4 319.6,215.4 319.6,215.4 								"/>
								<polygon class="st5" points="319.6,215.4 319.6,215.4 319.6,215.4 								"/>
								<path class="st5" d="M319.6,215.4L319.6,215.4L319.6,215.4z"/>
								<path class="st5" d="M319.6,215.4L319.6,215.4L319.6,215.4z"/>
								<polygon class="st5" points="319.6,215.4 319.6,215.4 319.6,215.4 								"/>
								<polygon class="st5" points="319.6,215.4 319.6,215.4 319.6,215.4 319.6,215.4 								"/>
								<polygon class="st5" points="319.6,215.4 319.6,215.4 319.6,215.4 319.6,215.4 								"/>
								<path class="st5" d="M319.6,215.4L319.6,215.4L319.6,215.4z"/>
								<polygon class="st5" points="319.6,215.4 319.6,215.4 319.6,215.4 319.6,215.4 319.6,215.4 								"/>
								<path class="st5" d="M319.6,215.4L319.6,215.4L319.6,215.4z"/>
								<path class="st5" d="M319.6,215.4L319.6,215.4L319.6,215.4z"/>
								<path class="st5" d="M319.6,215.4L319.6,215.4L319.6,215.4z"/>
								<path class="st5" d="M319.6,215.4L319.6,215.4L319.6,215.4z"/>
								<path class="st5" d="M319.6,215.4L319.6,215.4L319.6,215.4z"/>
								<path class="st4" d="M379.5,57.1c-10.7-2.4-21.7-4.2-33-5.6l-26.9,163.9L379.5,57.1z"/>
								<path class="st5" d="M319.6,215.4L319.6,215.4L319.6,215.4z"/>
								<path class="st5" d="M319.6,215.4L319.6,215.4L319.6,215.4z"/>
								<path class="st5" d="M319.6,215.4L319.6,215.4L319.6,215.4z"/>
								<path class="st5" d="M319.6,215.4L319.6,215.4L319.6,215.4z"/>
								<polygon class="st5" points="319.6,215.4 319.6,215.4 319.6,215.4 319.6,215.4 319.6,215.4 								"/>
								<path class="st5" d="M319.6,215.4L319.6,215.4L319.6,215.4z"/>
								<polygon class="st5" points="319.6,215.4 319.6,215.4 319.6,215.4 								"/>
								<path class="st5" d="M319.6,215.4L319.6,215.4L319.6,215.4z"/>
								<path class="st5" d="M319.6,215.4L319.6,215.4L319.6,215.4z"/>
								<polygon class="st5" points="319.6,215.4 319.6,215.4 319.6,215.4 								"/>
								<polygon class="st5" points="319.6,215.4 319.6,215.4 319.6,215.4 								"/>
								<path class="st4" d="M320.2,215.4L320.2,215.4L320.2,215.4l-62.7,164.8c11.4,1.5,23.2,2.5,35,2.9L320.2,215.4L320.2,215.4z"
									/>
								<path class="st6" d="M183.6,361.6c22.5,8.7,47.3,15,73.6,18.5l62.4-164.8L183.6,361.6z"/>
								<path class="st4" d="M319.6,215.4L372,376.7c35.4-7,67.4-19.2,94.3-35.4L319.6,215.4L319.6,215.4z"/>
								<path class="st4" d="M319.6,215.4L319.6,215.4L72.5,270.5c4.9,9.7,11.1,19,18.4,27.8L319.6,215.4L319.6,215.4z"/>
								<path class="st6" d="M90.9,298.4c6.2,7.5,13.3,14.7,21.1,21.4l207.6-104.4L90.9,298.4z"/>
								<path class="st4" d="M59.2,216c0,0,0,0.2,0,0.4c0,19.1,4.7,37.5,13.3,54.6l247.1-55H59.2z"/>
								<path class="st4" d="M320.2,215.4L320.2,215.4L320.2,215.4L446,79.7C426,70,403.9,62.3,380,57L320.2,215.4z"/>
								<path class="st6" d="M319.6,215.4L319.6,215.4L121.1,105c-11.4,8.8-21.5,18.3-30.1,28.6L319.6,215.4L319.6,215.4z"/>
								<polygon class="st5" points="319.6,215.4 319.6,215.4 319.6,215.4 								"/>
								<polygon class="st5" points="319.6,215.4 319.6,215.4 319.6,215.4 								"/>
								<polygon class="st5" points="319.6,215.4 319.6,215.4 319.6,215.4 								"/>
								<polygon class="st5" points="319.6,215.4 319.6,215.4 319.6,215.4 319.6,215.4 								"/>
								<path class="st5" d="M319.6,215.4L319.6,215.4L319.6,215.4z"/>
								<polygon class="st5" points="319.6,215.4 319.6,215.4 319.6,215.4 319.6,215.4 								"/>
								<polygon class="st5" points="319.6,215.4 319.6,215.4 319.6,215.4 								"/>
								<polygon class="st5" points="319.6,215.4 319.6,215.4 319.6,215.4 								"/>
								<polygon class="st5" points="319.6,215.4 319.6,215.4 319.6,215.4 								"/>
								<path class="st5" d="M319.6,215.4L319.6,215.4L319.6,215.4z"/>
								<path class="st4" d="M161.9,80c-14.9,7.3-28.6,15.7-40.7,25l198.4,110.4L161.9,80z"/>
								<polygon class="st5" points="319.6,215.4 319.6,215.4 319.6,215.4 319.6,215.4 								"/>
								<polygon class="st5" points="319.6,215.4 319.6,215.4 319.6,215.4 								"/>
								<path class="st4" d="M319.6,215.4l26.9-163.9c-13.8-1.6-28-2.5-42.4-2.5c-12.9,0-25.6,0.7-37.9,2L319.6,215.4L319.6,215.4z"
									/>
							</g>
							<path class="st7" d="M304,79.1c110.9,0,200.8,61.4,200.8,137c0,75.7-89.9,137-200.8,137s-200.8-61.3-200.8-137
								C103.3,140.4,193.2,79.1,304,79.1z"/>
							<path class="st8" d="M304,100.4c93.6,0,169.6,51.8,169.6,115.7S397.7,331.8,304,331.8c-93.6,0-169.6-51.8-169.6-115.7
								C134.5,152.2,210.4,100.4,304,100.4z"/>
							<g>
								<path class="st8" d="M432.8,216.1c0,59.2-65.1,108-149.1,114.9c6.7,0.5,13.5,0.8,20.4,0.8c93.6,0,169.6-51.8,169.6-115.7
									s-75.9-115.7-169.6-115.7c-6.9,0-13.7,0.3-20.4,0.8C367.6,108.1,432.8,156.9,432.8,216.1z"/>
								<g>
									<path class="st8" d="M153.9,216.1c0-56.9,60.2-104.2,139.4-113.9c-3.2-0.4-6.4-0.7-9.7-1c-84,6.9-149.1,55.7-149.1,114.9
										s65.1,108,149.1,114.9c3.3-0.3,6.5-0.6,9.7-1C214.1,320.2,153.9,273,153.9,216.1z"/>
									<path class="st8" d="M432.8,216.1c0,56.9-60.2,104.2-139.4,113.9c3.2,0.4,6.4,0.7,9.7,1c84-6.9,149.1-55.7,149.1-114.9
										s-65.1-108-149.1-114.9c-3.3,0.3-6.5,0.6-9.7,1C372.6,111.9,432.8,159.2,432.8,216.1z"/>
								</g>
							</g>
						</g>
					</g>
					<g class="st9">
						<path class="st3" d="M331.6,430.6h172.2l0,0c0-54.8,44.4-99.2,99.2-99.2c0.4,0,0.9,0,1.3,0V100.8c-0.4,0-0.9,0-1.3,0
							c-54.8,0-99.2-44.4-99.2-99.2H330.1C522.8,202.9,396.4,367.8,331.6,430.6z"/>
					</g>
				</g>
			</g>
			<path class="st10" d="M175.4,343.8c-0.1-49.8-8.9-99.5-22.8-147.2C137.9,146.3,116.1,98.2,88,54.1
				c-17.5,28.1-48.7,46.8-84.2,46.8l0,0v230.5l0,0c54.8,0,99.2,44.4,99.2,99.2l0,0h59.1C172,403,175.4,372.8,175.4,343.8z"/>
		</g>
	</g>
</g>
<g>
	<g>
		
			<path id="Symbol_13_0_Layer0_0_1_STROKES_00000166661970364793338220000000652189352023322802_" inkscape:connector-curvature="0" class="st11" d="
			M604.3,45.8v340.8c0,12.1-4.3,22.3-12.8,30.9s-18.7,12.9-30.6,12.9H47.2c-12,0-22.2-4.3-30.6-12.9S3.8,398.7,3.8,386.7V45.8
			c0-12.1,4.3-22.3,12.8-30.9S35.3,2.1,47.2,2.1h513.6c12,0,22.2,4.3,30.6,12.9S604.3,33.8,604.3,45.8L604.3,45.8z"/>
	</g>
</g>
<sodipodi:namedview  bordercolor="#666666" borderopacity="1" fit-margin-bottom="0" fit-margin-left="0" fit-margin-right="0" fit-margin-top="0" gridtolerance="10" guidetolerance="10" id="namedview63" inkscape:current-layer="svg61" inkscape:cx="321.82203" inkscape:cy="207.62712" inkscape:pagecheckerboard="0" inkscape:pageopacity="0" inkscape:pageshadow="2" inkscape:window-height="705" inkscape:window-maximized="1" inkscape:window-width="1366" inkscape:window-x="-8" inkscape:window-y="-8" inkscape:zoom="0.33714286" objecttolerance="10" pagecolor="#ffffff" showgrid="false">
	</sodipodi:namedview>
<g>
	<polygon class="st12" points="331.2,272.6 276.8,272.6 276.8,294.6 274,294.6 274,299.3 334.1,299.3 334.1,294.6 331.2,294.6 	"/>
	<path class="st13" d="M354.7,163.7c-2.5-1.6-5.4-2.4-8.7-2.4c-2.8,0-5.3,0.6-7.1,1.2c-0.1-2-0.2-3.4-0.2-4.1h1.9v-3.7h-72.9v3.7
		h1.9c0,0.7-0.1,2.1-0.2,4.1c-1.8-0.6-4.3-1.2-7.1-1.2c-3.2,0-6.2,0.8-8.7,2.4c-2.8,1.8-4.5,4.7-4.9,8.4
		c-0.8,7.4,3.6,17.2,10.9,24.5c4.7,4.6,13,9.4,18.8,11.9c7.5,10.9,18.6,16.8,19.2,24.6c0.7,9.8-3.3,13.8-1.6,15.2
		c1.7,1.3,0,6.1,0,6.1s0,4.4-2.7,7.1s-2,4.4-1,6.4c0.8,1.6-0.6,3.9-1.3,4.9h26.6c-0.7-1-2.1-3.3-1.3-4.9c1-2,1.7-3.7-1-6.4
		c-2.7-2.7-2.7-7.1-2.7-7.1s-1.7-4.7,0-6.1c1.7-1.3-2.4-5.4-1.6-15.2c0.6-7.8,11.7-13.7,19.2-24.6c5.8-2.5,14.1-7.3,18.8-11.9
		c7.3-7.2,11.7-17,10.9-24.5C359.2,168.3,357.5,165.4,354.7,163.7z M263.2,192.7c-6.1-6-9.9-14.3-9.3-20c0.2-2.1,1-3.6,2.4-4.4
		c1.7-1,3.6-1.6,5.8-1.6c2.4,0,4.6,0.6,6,1.1c0.2,1.7,0.6,3.7,1.2,5.9c0.3,8,1.4,17.6,4.2,25.7c0.1,0.3,0.2,0.6,0.3,0.9
		C270,198.1,266,195.5,263.2,192.7z M344.9,192.7c-2.8,2.7-6.8,5.4-10.6,7.5c0.1-0.3,0.2-0.6,0.3-0.9c2.9-8.1,3.9-17.7,4.2-25.7
		c0.6-2.2,1-4.2,1.2-5.9c1.3-0.5,3.5-1.1,6-1.1c2.2,0,4.2,0.5,5.8,1.6c1.4,0.9,2.2,2.4,2.4,4.4C354.8,178.5,351,186.7,344.9,192.7z"
		/>
	<rect x="291.6" y="277.8" class="st14" width="24.8" height="14"/>
	<polygon class="st15" points="331.2,272.6 312,272.6 312,279 292,279 292,292.9 312,292.9 312,294.6 274,294.6 274,299.3 
		334.1,299.3 334.1,294.6 331.2,294.6 	"/>
	<rect x="291.6" y="277.8" class="st14" width="24.8" height="14"/>
	<path class="st16" d="M354.7,163.7c-2.5-1.6-5.4-2.4-8.7-2.4c-2.8,0-5.3,0.6-7.1,1.2c-0.1-2-0.2-3.4-0.2-4.1h1.9v-3.7h-20.1v3.7
		h-50.9l50.5,3.3c0,0,0,20.9-2.2,38.4s-8.8,21.1-10.9,27.2c-2,6.1-1.7,15.7-1.5,17.5s0.6,3.5,0.9,4.5s-0.3,3.5-0.2,5.5
		c0.2,1.9,0.8,4.8,0.8,6.1c-0.1,1.3-2.4,2.4-2.2,4.4c0.2,2,1.9,3,1.9,4.9c0,0.8-0.5,1.7-1,2.5h11.7c-0.7-1-2.1-3.3-1.3-4.9
		c1-2,1.7-3.7-1-6.4c-2.7-2.7-2.7-7.1-2.7-7.1s-1.7-4.7,0-6.1c1.7-1.3-2.4-5.4-1.6-15.2c0.6-7.8,11.7-13.7,19.2-24.6
		c5.8-2.5,14.1-7.3,18.8-11.9c7.3-7.2,11.7-17,10.9-24.5C359.2,168.3,357.5,165.4,354.7,163.7z M344.9,192.7
		c-2.8,2.7-6.8,5.4-10.6,7.5c0.1-0.3,0.2-0.6,0.3-0.9c2.9-8.1,3.9-17.7,4.2-25.7c0.6-2.2,1-4.2,1.2-5.9c1.3-0.5,3.5-1.1,6-1.1
		c2.2,0,4.2,0.5,5.8,1.6c1.4,0.9,2.2,2.4,2.4,4.4C354.8,178.5,351,186.7,344.9,192.7z"/>
	<path class="st16" d="M259.3,164.8c-4.3,1-8.3,4.1-7.2,11.1c0.7,4.3,4.2,9.6,8.4,13.9c-4.5-5.6-7.2-12.2-6.7-17.1
		c0.2-2.1,1-3.6,2.4-4.4c1.7-1,3.6-1.6,5.8-1.6c2.4,0,4.6,0.6,6,1.1v-2.1C268.1,165.7,263.8,163.7,259.3,164.8z"/>
	<polygon class="st17" points="295.2,291.8 299.5,291.8 306.1,277.8 301.7,277.8 	"/>
	<path class="st18" d="M286.4,168.8c-0.1-1.3,2.7-5.2,0.7-5.2s-11.8-0.7-11.8-0.7c-2.1-0.1-0.5,7.4,0.1,14.1
		c1.5,15,6,24.7,14.5,33.3C281.7,198.3,286.6,170.2,286.4,168.8z"/>
</g>
</svg>
