<?xml version="1.0" encoding="utf-8"?>
<!-- Generator: Adobe Illustrator 27.4.0, SVG Export Plug-In . SVG Version: 6.00 Build 0)  -->
<svg version="1.1" id="Layer_1" xmlns="http://www.w3.org/2000/svg" xmlns:xlink="http://www.w3.org/1999/xlink" x="0px" y="0px"
	 viewBox="0 0 64 64" style="enable-background:new 0 0 64 64;" xml:space="preserve">
<style type="text/css">
	.st0{fill:#12DD78;}
	.st1{fill:#FFFFFF;}
</style>
<g>
	<g id="fullscreen_00000135662537000724776190000011957270973265169837_">
		<path class="st0" d="M2.2,39.1C-1.4,29.6-2,14.4,11.7,8.9c13.7-5.4,44.4-3,51.7,17.2C70,44.7,20.1,87,2.2,39.1z"/>
	</g>
	<g>
		<path class="st1" d="M32.7,27.7h1.2c0.3,0,0.5,0,0.5,0c0.4,0,0.8,0,1.1,0.1c0.5,0.2,0.6,0.3,0.6,1.1c0,0.6,0.1,3.5,0.1,8.5
			c0,5.1,0,7.7-0.2,7.9c-0.2,0.2-1.2,0.4-2.9,0.4h-1.7c-1.4,0-2.3,0-2.5-0.1c-0.3,0-0.6-0.1-0.7-0.3l-0.4-0.4l0-6.2v-1.9
			c0-5.3,0.2-8.2,0.6-8.7c0.2-0.2,1.2-0.3,2.9-0.3C31.7,27.8,32.1,27.8,32.7,27.7z M32,19.2c2.1,0,3.7,1.8,3.7,3.4v0.6
			c-0.1,1.8-1.5,2.9-3.6,2.9h-0.3c-2.1-0.1-3.6-1.3-3.6-3.1c0-0.8,0.1-1.5,1.1-2.5C30.3,19.4,31.3,19.2,32,19.2z"/>
	</g>
</g>
</svg>
