<?xml version="1.0" encoding="utf-8"?>
<!-- Generator: Adobe Illustrator 27.4.0, SVG Export Plug-In . SVG Version: 6.00 Build 0)  -->
<svg version="1.1" id="Layer_1" xmlns="http://www.w3.org/2000/svg" xmlns:xlink="http://www.w3.org/1999/xlink" x="0px" y="0px"
	 viewBox="0 0 64 64" style="enable-background:new 0 0 64 64;" xml:space="preserve">
<style type="text/css">
	.st0{fill:#FFFFFF;}
	.st1{fill:#FF8B00;}
</style>
<path class="st0" d="M46,24.1l-0.2,0.1v3.6h-9.7v-9.7h3.6l0.1-0.2l-7.9-9l-7.9,9l0.1,0.2h3.6v9.7h-9.6v-3.6L18,24.1l-9,7.9l9,7.9
	l0.2-0.1v-3.6h9.6v9.7h-3.6l-0.1,0.1l7.9,9l7.9-9l-0.1-0.1h-3.6v-9.7h9.7v3.6l0.2,0.1l9-7.9L46,24.1z"/>
<g id="fullscreen">
	<path class="st1" d="M2.6,39.3C-1,29.9-1.5,14.9,12,9.5c13.5-5.4,43.8-3,50.9,17C69.5,44.8,20.2,86.5,2.6,39.3z"/>
	<g id="TbaarY_00000000198709505556804240000014785027780572207026_">
		<g>
			<path class="st0" d="M16.9,17.8c1.2,0.1,2.6,0,3.9,0.1c1.6,0,3.2,0.1,4.9,0.1c0.5,0,0.9,0.2,1,0.7c0.2,0.4,0,0.8-0.3,1.2
				c-0.8,0.8-1.6,1.6-2.4,2.4c-0.2,0.2-0.1,0.2,0,0.4c1.4,1.4,2.7,2.7,4.1,4.1c0.2,0.2,0.2,0.3,0,0.4c-1.3,1.3-2.7,2.6-4,4
				c-0.2,0.2-0.2,0.2-0.4,0c-1.3-1.3-2.7-2.7-4-4c-0.3-0.3-0.2-0.3-0.6,0c-0.8,0.8-1.5,1.5-2.3,2.3c-0.3,0.3-0.7,0.4-1.1,0.2
				c-0.4-0.2-0.6-0.5-0.6-1c0-0.3,0-0.6,0-1c0-0.4,0-0.7,0-1.1c0-1.7,0-3.4-0.1-5.1c0-0.8,0-1.6,0-2.4c0-0.7,0.4-1.1,1.1-1.1
				C16.4,17.8,16.6,17.8,16.9,17.8z"/>
			<path class="st0" d="M15,46.7c0-1.3,0-2.8,0.1-4.2c0-1.1,0-2.2,0-3.3c0-0.3,0-0.6,0-0.9c0-0.5,0.2-0.8,0.6-0.9
				c0.4-0.2,0.8-0.1,1.1,0.2c0.8,0.8,1.5,1.5,2.3,2.3c0.3,0.3,0.2,0.3,0.6,0c1.3-1.3,2.7-2.7,4-4c0.2-0.2,0.2-0.2,0.4,0
				c1.3,1.3,2.6,2.7,4,4c0.2,0.2,0.2,0.3,0,0.4c-1.4,1.4-2.7,2.7-4.1,4.1c-0.1,0.1-0.2,0.2,0,0.4c0.8,0.8,1.6,1.6,2.4,2.3
				c0.3,0.3,0.5,0.7,0.3,1.2c-0.2,0.5-0.6,0.6-1,0.7c-0.2,0-0.4,0-0.6,0c-1.7,0-3.4,0-5,0.1c-1.3,0-2.5,0-3.8,0.1
				c-0.4,0-0.8-0.1-1-0.5c-0.1-0.2-0.2-0.3-0.2-0.5C15,47.7,15,47.3,15,46.7z"/>
			<path class="st0" d="M46.8,47.3c0,0.3,0,0.6,0,0.8c0,0.6-0.4,1.1-1,1c-1.7,0-3.4-0.1-5-0.1c-0.4,0-0.8,0-1.2,0
				c-1.2,0-2.3,0-3.5,0c-0.5,0-0.8-0.2-1-0.6c-0.2-0.4-0.1-0.8,0.2-1.1c0.8-0.8,1.6-1.6,2.4-2.4c0.2-0.1,0.1-0.2,0-0.4
				c-1.4-1.4-2.7-2.7-4.1-4.1c-0.2-0.2-0.2-0.2,0-0.5c1.3-1.3,2.6-2.6,4-4c0.1-0.2,0.2-0.2,0.4,0c1.4,1.4,2.7,2.7,4.1,4.1
				c0.2,0.2,0.3,0.2,0.4,0c0.8-0.8,1.6-1.6,2.3-2.3c0.4-0.4,0.8-0.5,1.2-0.3c0.4,0.2,0.6,0.6,0.6,1c0,1.4,0,2.9,0.1,4.3
				C46.7,44.3,46.7,45.8,46.8,47.3z"/>
			<path class="st0" d="M46.8,20.1c-0.1,1.3,0,2.7-0.1,4.1c0,1.5-0.1,2.9-0.1,4.4c0,0.5-0.2,0.8-0.7,1c-0.4,0.2-0.8,0.1-1.1-0.3
				c-0.8-0.8-1.6-1.6-2.4-2.4c-0.1-0.1-0.2-0.1-0.4,0c-1.4,1.4-2.8,2.8-4.1,4.1c-0.1,0.1-0.2,0.2-0.4,0c-1.3-1.3-2.7-2.7-4-4
				c-0.2-0.2-0.2-0.2,0-0.4c1.4-1.4,2.7-2.7,4.1-4.1c0.2-0.2,0.1-0.2,0-0.4c-0.8-0.8-1.6-1.6-2.3-2.3c-0.3-0.3-0.5-0.7-0.3-1.2
				c0.2-0.5,0.6-0.7,1-0.7c1.6,0,3.3,0,4.9-0.1c1.4,0,2.7,0,4.1-0.1c0.3,0,0.6-0.1,0.9,0c0.5,0.1,0.8,0.5,0.8,1
				C46.8,19.3,46.8,19.6,46.8,20.1z"/>
		</g>
	</g>
</g>
</svg>
