<?xml version="1.0" encoding="utf-8"?>
<!-- Generator: Adobe Illustrator 27.4.0, SVG Export Plug-In . SVG Version: 6.00 Build 0)  -->
<svg version="1.1" id="Layer_1" xmlns="http://www.w3.org/2000/svg" xmlns:xlink="http://www.w3.org/1999/xlink" x="0px" y="0px"
	 viewBox="0 0 64 64" style="enable-background:new 0 0 64 64;" xml:space="preserve">
<style type="text/css">
	.st0{fill:#6ACE00;}
	.st1{fill:none;stroke:#FFFFFF;stroke-miterlimit:10;}
	.st2{fill:#FFFFFF;}
</style>
<g>
	<g id="fullscreen_00000135662537000724776190000011957270973265169837_">
		<path class="st0" d="M2.2,39.1C-1.4,29.6-2,14.4,11.7,8.9c13.7-5.4,44.4-3,51.7,17.2C70,44.7,20.1,87,2.2,39.1z"/>
	</g>
	<g>
		<path class="st1" d="M25.4,45.1h-12c-2,0-3.7-1.6-3.7-3.7V22.6c0-2,1.6-3.7,3.7-3.7h12c2,0,3.7,1.6,3.7,3.7v18.8
			C29.1,43.4,27.5,45.1,25.4,45.1z"/>
	</g>
	<g>
		<path class="st1" d="M48.7,45.1h-12c-2,0-3.7-1.6-3.7-3.7V22.6c0-2,1.6-3.7,3.7-3.7h12c2,0,3.7,1.6,3.7,3.7v18.8
			C52.3,43.4,50.7,45.1,48.7,45.1z"/>
	</g>
</g>
<g>
	<path class="st2" d="M19.5,27c0.5,0,2.3,0.1,2.4,0.3c0.1,0.1,0.1,0.7,0.1,1.8v1.2c0,0.6,0,1.2,0,1.7c0,2.9-0.1,4.4-0.1,4.6
		c-0.1,0.3-0.3,0.5-0.7,0.5l-0.9,0c-0.6,0-1-0.1-1.2-0.1c-0.4-0.1-0.4-0.3-0.4-0.9l0-1.3c0-0.8,0-1.7,0-2.6c0-1.3,0-2.1-0.1-2.1
		c0,0-0.2,0.1-0.5,0.3c-0.6,0.4-0.7,0.5-1.1,0.1c-0.4-0.4-0.6-0.8-0.6-1c0-0.4,1.8-1.9,2.5-2.4C19,27,19.2,27,19.5,27z"/>
</g>
<g>
	<path class="st2" d="M43.3,26.9c1.1,0,2.3,0.4,3,1.1c0.6,0.6,0.9,1.4,0.9,2.4c0,1-0.4,2-1.8,3.2c-0.5,0.4-0.8,0.7-0.8,0.7l0,0h0
		c0,0,0.3,0,0.9-0.1c0.4,0,0.7-0.1,0.9-0.1c0.7,0,0.9,0.2,0.9,0.8c0,0.3,0.1,0.6,0.1,0.9c0,0.5,0,0.9-0.1,0.9
		c-0.1,0.1-1.7,0.2-4.7,0.2l-3.1,0l-0.1-0.2c-0.1-0.1-0.1-0.4-0.1-0.8c0-1.9,0.3-1.9,2.3-3.1c1.4-0.8,2-1.4,2.4-2.1
		c0.1-0.2,0.2-0.4,0.2-0.6c0-0.4-0.4-0.7-0.6-0.7c-0.1,0-0.2,0.1-0.4,0.1c-0.2,0.1-0.4,0.3-0.6,0.6c-0.2,0.3-0.4,0.5-0.4,0.5l0,0
		h-0.1c-0.4,0-1.7-0.7-1.9-1.1c-0.1-0.1-0.1-0.2-0.1-0.3c0-0.1,0.1-0.3,0.2-0.5c0.5-1,1.3-1.7,2.5-2C42.7,27,43,26.9,43.3,26.9z"/>
</g>
</svg>
