<?xml version="1.0" encoding="utf-8"?>
<!-- Generator: Adobe Illustrator 27.4.0, SVG Export Plug-In . SVG Version: 6.00 Build 0)  -->
<svg version="1.1" id="Layer_1" xmlns="http://www.w3.org/2000/svg" xmlns:xlink="http://www.w3.org/1999/xlink" x="0px" y="0px"
	 viewBox="0 0 110.7 142.6" style="enable-background:new 0 0 110.7 142.6;" xml:space="preserve">
<style type="text/css">
	.st0{fill:#FFFFFF;}
	.st1{fill:#100B09;}
	.st2{fill:#FBB277;}
	.st3{fill:#FABD87;}
	.st4{fill:#FBCA9D;}
	.st5{fill:#FDDABC;}
	.st6{fill:#D96F32;}
	.st7{fill:#D26B29;}
	.st8{fill:#D77748;}
	.st9{fill:#9C9B9A;}
	.st10{fill:#F973A9;}
	.st11{fill:#FBA0C7;}
	.st12{fill:#0171B9;}
	.st13{fill:#004B81;}
	.st14{fill:#008DD7;}
	.st15{fill:#8ED7F5;}
	.st16{fill:#05A0E5;}
	.st17{fill:#D3D4D4;}
	.st18{fill:#ABADAD;}
	.st19{fill:#E3E3E3;}
</style>
<path class="st0" d="M59.5,124.7c-1.3,0-2.4,0.4-3.3,1.3c-0.9,0.9-1.3,2-1.3,3.2c0,1.4,0.5,2.6,1.4,3.4c0.9,0.8,2,1.2,3.3,1.2
	c1.2,0,2.3-0.4,3.2-1.2c0.9-0.8,1.4-1.9,1.4-3.4c0-1.3-0.4-2.4-1.3-3.2C61.9,125.1,60.8,124.7,59.5,124.7 M60.2,93.9
	c1.9,0,3.5,0.6,4.7,1.7c1.2,1.1,1.8,2.5,1.8,4.1c0,0.8-0.2,1.6-0.6,2.3c-0.4,0.7-0.9,1.4-1.5,1.9c-0.6,0.6-1.5,1.4-2.8,2.6
	c-1.5,1.3-2.7,2.4-3.6,3.4c-0.9,1-1.6,2.1-2.1,3.3c-0.5,1.2-0.8,2.7-0.8,4.4c0,1.4,0.4,2.4,1.1,3.1c0.7,0.7,1.6,1,2.7,1
	c2,0,3.3-1.1,3.6-3.2c0.2-1,0.4-1.7,0.5-2.1c0.1-0.4,0.3-0.8,0.5-1.2c0.2-0.4,0.5-0.8,0.9-1.3c0.4-0.5,1-1.1,1.7-1.7
	c2.5-2.2,4.2-3.8,5.2-4.8c1-1,1.8-2.1,2.5-3.4c0.7-1.3,1.1-2.8,1.1-4.6c0-2.2-0.6-4.3-1.8-6.1c-1.2-1.9-3-3.4-5.3-4.5
	c-2.3-1.1-4.9-1.6-7.8-1.6c-3.2,0-6,0.7-8.4,2c-2.4,1.3-4.2,2.9-5.5,4.9c-1.2,2-1.9,4-1.9,5.9c0,0.9,0.4,1.8,1.2,2.6
	c0.8,0.8,1.8,1.2,2.9,1.2c1.9,0,3.3-1.2,4-3.5c0.7-2.2,1.6-3.9,2.7-5C56.3,94.5,58,93.9,60.2,93.9L60.2,93.9z"/>
<g id="molivis">
	<g>
		<g>
			<g>
				<g>
					<path class="st1" d="M79.2,64.5c19.8-2.4,23.1-18.4,23.1-18.4s2.9-0.1,3.2-3c0.2-1.5-1.1-1.9-1.7-1.5c0-1.1-1.1-1.7-2.2-0.8
						c0-0.9,0.8-5-0.8-5.2c-1.2-0.2-1.2,2.3-1.7,5c-1.1-0.3-2,0.2-2.2,1.4c-0.2,1.9,2.1,3.3,2.1,3.3s-1.5,13.4-20.2,16.8
						C77.1,62.9,77.3,65,79.2,64.5z"/>
				</g>
				<g>
					<g>
						<path class="st2" d="M43.1,113.4c0,0,15.1,28,18.3,28c2.5,0,10.8-19.1,15.1-28.8c0.7-5.4-1.3-12.4-16.6-12.4
							C43.3,100.1,43.1,113.4,43.1,113.4z"/>
						<path class="st3" d="M59.8,100.1c-2.9,0-5.2,0.4-7.2,1c-0.4,0.1-0.7,0.2-1,0.4c-0.3,0.1-0.6,0.3-1,0.4c-0.9,0.4-1.7,1-2.4,1.5
							c-0.2,0.2-0.5,0.4-0.7,0.6c-4.4,3.9-4.5,9.3-4.5,9.3s0.1,0.1,0.2,0.4c2.6-6.8,6.9-7.6,10.3-3.3c2.5-6.2,10.8-7.4,14.3-0.2
							c2.1-3.8,7.7-4.1,8.5,2.5c0,0,0-0.1,0.1-0.1C77.1,107.1,75.2,100.1,59.8,100.1z"/>
						<path class="st4" d="M64,103.6c0,0-5.7,37.7-2.6,37.7c2.5,0,10.8-19.1,15.1-28.8C79.3,101.5,64,103.6,64,103.6z"/>
						<path class="st3" d="M53.6,110.1c0.7,4,5.4,30.5,7.3,31.2c4.7-9.7,7-31,7-31s2.3-7.4-6.5-8S53.6,110.1,53.6,110.1z"/>
						<path class="st5" d="M53,105.7c0,5.8,2.1,16.7,4.2,23.2C56,117.7,53,105.7,53,105.7z"/>
						<path class="st5" d="M67.9,109.4c0.1,3.5,0.1,9.4-3,18.8C66.5,115.8,67.9,109.4,67.9,109.4z"/>
						<path class="st6" d="M59.8,100.1c-16.6,0-16.8,13.2-16.8,13.2s0.1,0.1,0.2,0.4c2.3-6.1,6.8-7,10.3-3.3
							c2.5-6.2,10.8-7.4,14.3-0.2c2.1-3.8,7.7-4.1,8.5,2.5c0,0,0-0.1,0.1-0.1C77.1,107.1,75.2,100.1,59.8,100.1z"/>
						<path class="st7" d="M75.6,106.4c-3.2-3.9-11.6-2.8-11.6-2.8s-0.1,0.8-0.4,2.3c1.7,0.7,3.2,2.1,4.3,4.3
							c1.8-3.1,7.7-4.1,8.5,2.5c0,0,0-0.1,0.1-0.1C76.7,110.6,76.6,108.4,75.6,106.4z"/>
						<path class="st8" d="M61.4,102.2c-8.8-0.6-7.8,7.9-7.8,7.9c0,0.1,0,0.2,0,0.3c2.4-5.1,10.7-6.3,14.2-0.1
							C67.9,110.3,70.2,102.8,61.4,102.2z"/>
						<path class="st1" d="M61.3,141.4c1.4,0,4.3-5.4,7.5-11.9c-0.6-2.8-16.1-2.4-16.1,0.7C56.3,136.1,60,141.4,61.3,141.4z"/>
						<path class="st9" d="M65.8,129.8c-1-0.7-3.6,5.7-2.6,6.2S66.8,130.5,65.8,129.8z"/>
						<path class="st9" d="M62.7,137.3c-0.6-0.4-1.5,1.7-0.9,2C62.3,139.6,63.3,137.7,62.7,137.3z"/>
					</g>
					<g>
						<path class="st10" d="M77.7,29.1c-0.5-10.6-0.3-12.4-1.5-16.9C75,7.6,73.7,1.4,57.9,1c-8.6-0.2-20.9,2.3-25.7,7.3
							c-4.9,5-3.3,11.1-2.9,16.3c0.5,5.1,1.6,9.6,1.6,9.6L77.7,29.1z"/>
						<path class="st11" d="M71.2,5.8c-3.1-3-15.4-4.5-14.7-1.8c0.4,1.6,9.3,5.9,13.6,6C73.2,10,73.5,8,71.2,5.8z"/>
						<path class="st11" d="M54.6,3.8C54.7,2.3,50,2.6,50,3.9C50,5.3,54.4,5.2,54.6,3.8z"/>
					</g>
					<g>
						<path class="st12" d="M30.6,38.1c0,0,11.5,60.3,12.4,75.3c2.6-6.9,7-7.8,10.5-3.3c-1-17.4-5.9-63.9-7.1-78.7
							C35.9,34,30.6,38.1,30.6,38.1z"/>
						<path class="st13" d="M46.5,31.4c-10.6,2.6-15.9,6.6-15.9,6.6s0.2,1.2,0.6,3.2c5.6-2.2,10.9-3.7,15.7-4.6
							C46.8,34.7,46.7,32.9,46.5,31.4z"/>
						<path class="st14" d="M65.8,30.8c0,0,2.6,63.8,2.1,79.1c-3.2-7.3-11.7-6.4-14.3,0.2c-1-17.4-5.9-63.9-7.1-78.7
							C60,29.9,65.8,30.8,65.8,30.8z"/>
						<path class="st12" d="M66,35.3c-0.1-2.8-0.2-4.5-0.2-4.5s-5.8-0.9-19.3,0.6c0.1,1.5,0.3,3.3,0.5,5.3
							C54.4,35.3,60.8,35,66,35.3z"/>
						<path class="st15" d="M53.6,110.1c-1.8-14.4-6.6-66.3-7.1-78.7C49.1,47.6,53.7,104.6,53.6,110.1z"/>
						<path class="st16" d="M65.8,30.8c0,0,2.6,63.8,2.1,79.1c2.2-3.9,8.2-4.8,8.5,2.7c1.7-6.4,3.9-58.5,3.2-77.9
							C76.4,32.1,65.8,30.8,65.8,30.8z"/>
						<path class="st15" d="M75.3,82.1c-2.5-0.6-2.8,13.8-0.4,14.1C77.3,96.5,77.8,82.7,75.3,82.1z"/>
						<path class="st15" d="M74.9,99.2c-1.4-0.3-1.7,4.4-0.3,4.6C75.9,103.9,76.3,99.5,74.9,99.2z"/>
						<path class="st14" d="M79.6,34.7c-3.2-2.6-13.8-3.9-13.8-3.9s0.1,1.7,0.2,4.5c8.4,0.4,13.4,2.1,13.4,2.1s0.1,0,0.3,0
							C79.7,36.5,79.6,35.6,79.6,34.7z"/>
						<path class="st15" d="M67.9,109.9c0.6-13.8-2.3-66.5-2.1-79.1C67.8,47.7,69.2,105.5,67.9,109.9z"/>
					</g>
					<g>
						<g>
							<path class="st17" d="M79.6,19.9c1.4,1.4,2.8,9.4,2.5,12.8c-0.3,3.4-2.3,2.9-2.3,2.9s-20-8.3-48.8,4.2
								c-1.5,0.3-2.8-0.7-3.7-5.1c-0.5-2.4-1-6.9-0.2-10c0.9-3.2,10-7,24.9-9.1C66.7,13.4,75.9,16.3,79.6,19.9z"/>
							<path class="st18" d="M26.4,31.2c-0.1,0-0.3,0-0.4-0.1c-0.6-0.2-0.9-0.9-0.7-1.5c1.3-3.3,11-7.9,27.2-10
								c8.1-1.1,15.1-1,20.7,0.1c4.3,0.9,7.7,2.5,9.3,4.3c0.4,0.5,0.4,1.2-0.1,1.6c-0.5,0.4-1.2,0.4-1.6-0.1c-2-2.3-10.3-6-28-3.6
								c-9,1.2-15,3-18.4,4.3c-4.9,1.9-6.6,3.5-6.9,4.2C27.3,30.9,26.8,31.2,26.4,31.2z"/>
							<path class="st18" d="M27.8,38.1c-0.1,0-0.1,0-0.2,0c-0.6-0.1-1-0.7-0.9-1.4c0.3-1.7,2.8-3.6,6.8-5.3
								c3.5-1.5,9.7-3.5,19.9-4.7c16-1.9,27.1,1.3,29.6,4c0.4,0.5,0.4,1.2-0.1,1.6c-0.5,0.4-1.2,0.4-1.6-0.1c-0.8-0.9-3.8-2.2-8.4-3
								c-3.9-0.7-10.4-1.3-19.3-0.3c-18.9,2.2-24.5,7.3-24.7,8.2C28.8,37.7,28.3,38.1,27.8,38.1z"/>
							<path class="st19" d="M58,16.4c-1.1,1.4,12.7,2.2,13.5,0.8C72.2,15.9,59,15,58,16.4z"/>
						</g>
					</g>
				</g>
				<g>
					<g>
						<path class="st10" d="M50,53.7c0,1.2-1.9,2.3-4.3,2.3c-2.4,0.1-4.4-0.8-4.4-2c0-1.2,1.9-2.3,4.3-2.3C48,51.6,50,52.5,50,53.7z
							"/>
						<path class="st10" d="M66.9,52.3c0.1,1.2,2.2,1.9,4.6,1.6c2.4-0.3,4.2-1.5,4.1-2.7c-0.1-1.2-2.2-1.9-4.6-1.6
							C68.6,49.9,66.8,51.1,66.9,52.3z"/>
						<g>
							<circle class="st0" cx="46.5" cy="44.4" r="6.3"/>
							
								<ellipse transform="matrix(0.9784 -0.2067 0.2067 0.9784 -8.181 10.7165)" class="st1" cx="47.2" cy="44.5" rx="4.6" ry="4.6"/>
							<path class="st0" d="M46.5,43.2c0,0.7-0.7,1.3-1.4,1.3c-0.7,0-1.3-0.7-1.3-1.4c0-0.7,0.7-1.3,1.4-1.3
								C45.9,41.9,46.5,42.5,46.5,43.2z"/>
							<path class="st0" d="M50.3,46.6c0,0.4-0.3,0.7-0.7,0.7c-0.4,0-0.7-0.3-0.7-0.7c0-0.4,0.3-0.7,0.7-0.7
								C50,45.9,50.3,46.3,50.3,46.6z"/>
						</g>
						<g>
							
								<ellipse transform="matrix(0.8136 -0.5814 0.5814 0.8136 -12.0792 47.6355)" class="st0" cx="68.3" cy="42.7" rx="6.3" ry="6.3"/>
							
								<ellipse transform="matrix(0.9979 -6.401194e-02 6.401194e-02 0.9979 -2.605 4.4133)" class="st1" cx="67.6" cy="42.9" rx="4.6" ry="4.6"/>
							
								<ellipse transform="matrix(0.9396 -0.3423 0.3423 0.9396 -9.9091 26.2465)" class="st0" cx="69.4" cy="41.2" rx="1.3" ry="1.3"/>
							<path class="st0" d="M64.9,45.4c0.1,0.4,0.4,0.6,0.8,0.5c0.4-0.1,0.6-0.4,0.5-0.8c-0.1-0.4-0.4-0.6-0.8-0.5
								C65.1,44.7,64.8,45.1,64.9,45.4z"/>
						</g>
					</g>
					<g>
						<path class="st10" d="M59.3,62.2c-1.6,0.1-2.9,0-3.9-0.2c0.8,0.8,2.1,1.4,4,1.3c1.9-0.2,3-0.9,3.7-1.9
							C62.2,61.8,60.9,62.1,59.3,62.2z"/>
						<g>
							<path class="st1" d="M58.5,52.5c-3.4,0.3-6.5-0.4-8.2-1.1c1.6,5,4.6,9.4,8.8,9c4.2-0.3,6.1-4.8,7.3-10.3
								C64.8,51.1,61.9,52.2,58.5,52.5z"/>
							<path class="st0" d="M63.5,51.4c-1.4,0.5-3.2,0.9-5,1.1c-2,0.2-3.9,0-5.4-0.3c1.5,1.8,3.4,2.9,5.5,2.7
								C60.8,54.7,62.4,53.4,63.5,51.4z"/>
							<path class="st10" d="M57.7,56.6c-1.6-0.5-3.2-0.4-4.9,0.1c1.6,2.4,3.7,3.9,6.3,3.7c1.1-0.1,2-0.4,2.8-1
								C60.7,58.1,59.3,57.1,57.7,56.6z"/>
						</g>
						<g>
							<g>
								<path class="st1" d="M56.6,46.5c-0.7-0.2-1.6,2-0.4,2.3C56.8,49,57.2,46.7,56.6,46.5z"/>
								<path class="st1" d="M59.1,46.3c0.6-0.3,1.9,1.7,0.8,2.2C59.3,48.8,58.5,46.6,59.1,46.3z"/>
							</g>
						</g>
					</g>
					<g>
						<g>
							<path class="st1" d="M40.7,35c0.4-2.4,2.7-5.3,6.2-5c0,0,0,0,0,0c0.7,0.1,1.6,2.8,0.7,2.9c-0.4,0.1-3.4,0.2-6.7,2.3
								C40.8,35.3,40.7,35.2,40.7,35z"/>
						</g>
						<g>
							<path class="st1" d="M72.1,33.7c-0.3-2.4-2.5-5.4-6-5.3c0,0,0,0,0,0c-0.7,0-1.7,2.7-0.8,2.9c0.4,0.1,3.4,0.4,6.5,2.6
								C72,33.9,72.1,33.8,72.1,33.7z"/>
						</g>
					</g>
				</g>
			</g>
		</g>
		<g>
			<g>
				<g>
					<path class="st10" d="M55.3,103.9H6.9c-1.6,0-3-1.3-3-3V69c0-1.6,1.3-3,3-3h48.3c1.6,0,3,1.3,3,3V101
						C58.2,102.6,56.9,103.9,55.3,103.9z"/>
					<path class="st0" d="M52.5,101.5H9.6c-1.6,0-3-1.3-3-3V71.4c0-1.6,1.3-3,3-3h42.9c1.6,0,3,1.3,3,3v27.2
						C55.5,100.2,54.1,101.5,52.5,101.5z"/>
				</g>
				<path class="st1" d="M27.7,64.2C26.2,65,25,68,26.4,69.7c1,1.1,1.1-0.7,1.7-2.2c-0.2,2,1.6,5.2,2.4-0.1c0.4,2.2,1.9,4.2,2.3,1.1
					c-0.1-0.2,0-2.2,0.5-2.2c0.7-0.1,1.2,0.1,2.2,0C36.5,65.4,31.7,62,27.7,64.2z"/>
			</g>
		</g>
	</g>
	<g>
		<path d="M22.5,80.3l0.4-0.6l0.4-0.8c0.1-0.1,0.2-0.4,0.5-0.8c0.3-0.4,0.5-0.7,0.6-0.9l0.7-0.8c0.3-0.4,0.5-0.7,0.8-0.9
			c0.2-0.2,0.5-0.4,0.8-0.7c0.3-0.2,0.7-0.5,1-0.6c1.4-0.7,2.9-1.1,4.5-1.1c1.5,0,2.9,0.4,4.1,1.3c1.2,0.9,2,2.1,2.4,3.6
			c0.4,1.5,0.3,3.1-0.2,4.8c-0.5,1.7-1.6,3.2-3.1,4.4l-1.6,1.2c-0.6,0.4-1,0.8-1.4,1.1c-0.1,0.1-0.2,0.2-0.3,0.3l-0.3,0.5
			c-0.1,0.2-0.3,0.5-0.5,0.8c-0.4,0.5-0.8,0.8-1.4,0.9c-0.6,0.1-1.1,0-1.6-0.4c-0.5-0.4-0.8-0.8-0.9-1.4c-0.1-0.6,0-1.1,0.4-1.6
			c0,0,0.1-0.1,0.2-0.3l0.4-0.6c0.1-0.2,0.3-0.4,0.5-0.7c0.2-0.3,0.4-0.5,0.6-0.6c0.4-0.4,1-0.9,1.8-1.5c0.9-0.6,1.3-0.9,1.5-1.1
			c0.8-0.6,1.3-1.3,1.6-2.2c0.5-1.7,0.4-2.9-0.5-3.6c-0.2-0.2-0.5-0.3-0.9-0.4c-0.4-0.1-0.8-0.1-1.4,0c-0.6,0.1-1.1,0.3-1.7,0.6
			c-0.4,0.2-0.8,0.5-1.2,1c-0.4,0.5-0.7,0.9-1,1.3c-0.2,0.4-0.6,1.1-1.1,2c-0.3,0.5-0.7,0.9-1.3,1c-0.6,0.2-1.1,0.1-1.7-0.2
			c-0.5-0.3-0.9-0.7-1-1.3C22.2,81.4,22.2,80.8,22.5,80.3z M30.9,93.6c0.4,0.4,0.6,0.9,0.6,1.6c0,0.6-0.2,1.1-0.6,1.6
			c-0.4,0.4-0.9,0.6-1.6,0.6c-0.6,0-1.1-0.2-1.6-0.6c-0.4-0.4-0.6-0.9-0.6-1.6c0-0.6,0.2-1.1,0.6-1.6c0.4-0.4,0.9-0.6,1.6-0.6
			C29.9,93,30.4,93.2,30.9,93.6z"/>
	</g>
</g>
</svg>
