<?xml version="1.0" encoding="utf-8"?>
<!-- Generator: Adobe Illustrator 27.4.0, SVG Export Plug-In . SVG Version: 6.00 Build 0)  -->
<svg version="1.1" id="Layer_1" xmlns="http://www.w3.org/2000/svg" xmlns:xlink="http://www.w3.org/1999/xlink" x="0px" y="0px"
	 viewBox="0 0 64 64" style="enable-background:new 0 0 64 64;" xml:space="preserve">
<style type="text/css">
	.st0{fill:#FF4AFF;}
	.st1{fill:#FFFFFF;}
</style>
<g id="Layer_2_1_">
	<g id="home_1_">
		<path class="st0" d="M61.6,37.3c3.6-9.5,4.1-24.6-9.5-30s-44-3-51.3,17.1C-5.8,42.9,43.8,84.8,61.6,37.3z"/>
		<g>
			<path class="st1" d="M49.2,27L35.9,12.4c-1.3-1.5-3.7-1.4-5,0.1L18,27.5c-2.2,2.6,0.3,6.1,3.4,5.5l0.1,8.9c0,2.8-0.6,7.5,3.6,7.5
				c6.4,0.5,4.8-2.4,4.9-7.1c-0.4-4.1,1.8-4,5.1-4c2.1,0,2.7,2.2,2.5,3.9c0.3,2-0.9,7.1,2.5,7c6.4,0.4,6.2-2.2,6-7.6l-0.1-9h0.8
				C49.6,32.6,51.1,29.1,49.2,27z"/>
		</g>
	</g>
</g>
</svg>
