<?xml version="1.0" encoding="UTF-8"?>
<svg id="Layer_2" data-name="Layer 2" xmlns="http://www.w3.org/2000/svg" viewBox="0 0 40.8024 74.3726">
  <g id="menu">
    <g id="_1" data-name="1">
      <path d="m22.3801,0c3.6846,0,16.6487,1.0918,17.74,2.3195.4096.6823.6823,5.0496.6823,13.101v8.8695c-.1363,4.7769-.1363,8.8706-.1363,12.4188-.1363,21.1514-.4096,32.4783-.8186,34.2524-.6823,2.0468-2.32,3.4113-5.186,3.4113l-6.8227-.2727c-4.6401-.1369-7.6424-.4096-8.8706-.8191-2.7291-.6823-3.0018-2.3195-3.0018-6.2773l.2727-9.2791c.1363-6.1415.2727-12.6915.2727-19.3783,0-9.9613-.1363-15.1468-.409-15.4205-.1363-.1358-1.3645.4096-3.4119,1.911-4.2305,2.866-5.4581,3.4113-8.1878.6823-3.0023-3.2755-4.5032-5.7319-4.5032-7.3691C0,15.011,13.3732,3.8209,18.4223.5454c.6828-.4085,2.0473-.5454,3.9578-.5454Z" style="fill: #fff;"/>
    </g>
  </g>
</svg>