<?xml version="1.0" encoding="UTF-8"?>
<svg id="Layer_2" data-name="Layer 2" xmlns="http://www.w3.org/2000/svg" viewBox="0 0 65.4336 66.0684">
  <g id="menu">
    <g id="_4" data-name="4">
      <path d="m34.0767,0c.8721.001,1.7446.002,2.3677.127l4.2363.2539c2.8662.1279,4.9849.2539,6.6045.3809,3.2402.1279,5.2334.3799,6.106.5049,1.4946.376,2.7397,1.623,2.7373,3.4922,0,.125-.001.9971.1226,2.4932.123,1.4951.1206,3.4893.2422,6.1055.1221,2.6172.1191,4.9854.2412,7.3535.3643,9.0977.7329,14.082,1.231,14.8311.2485.374.7466.499,1.3696.5h.4985c4.4863.0049,5.6064,1.502,5.6001,7.6074-.0068,6.2314-.5098,10.0947-1.5083,11.4648-.3745.6221-1.2471.8701-2.3687.8691l-1.4956-.002c-3.9873-.3779-3.7373-.627-4.3657,4.2334-.3765,2.3662-.8765,3.8613-1.5005,4.7334l-.9985,1.1201-9.8447-.0107c-6.48-.0068-9.9687-.2598-10.4668-.7588s-.8701-2.2441-1.2412-5.1104c-.3706-2.8662-.6182-4.6123-.7422-4.9863-.2485-.374-5.1089-.5029-14.7046-.5137-9.5952-.0107-14.7041-.2646-15.3271-.6396S-.0015,52.8018,0,51.4307c.0039-3.3652.2607-10.5928.8853-12.0869l4.8672-6.2266c4.6172-5.8516,8.8604-11.3301,12.604-16.4355C25.4707,6.9688,29.8374,1.6152,31.334.7451,32.082.2461,32.9551-.0019,34.0767,0Zm-.3979,22.0566c-.374,0-7.2368,8.2168-9.8574,11.8281-1.2476,1.6191-1.8726,2.7393-1.873,3.3623-.0005.374,1.9937.501,6.106.5059,7.8511.0088,6.729.1309,6.7339-4.3545.0029-2.4932-.2432-5.4834-.6133-9.0977-.1226-1.4951-.3716-2.2441-.4961-2.2441Z" style="fill: #fff;"/>
    </g>
  </g>
</svg>