<?xml version="1.0" encoding="UTF-8"?>
<svg id="Layer_2" data-name="Layer 2" xmlns="http://www.w3.org/2000/svg" viewBox="0 0 242.0799 334.4008">
  <g id="menu">
    <g id="molivis">
      <g>
        <g>
          <path d="m179.2821,151.27c47.0863-5.7516,55.0825-43.8107,55.0825-43.8107,0,0,6.8418-.262,7.6733-7.1406.4286-3.546-2.5239-4.4472-4.1536-3.503.0057-2.5536-2.5738-3.9992-5.2928-1.8501-.0174-2.0358,1.8971-11.8103-1.7876-12.4141-2.9666-.4862-2.8694,5.5225-4.0012,11.794-2.5282-.603-4.8714.4552-5.2021,3.3843-.5238,4.6389,4.9862,7.9468,4.9862,7.9468,0,0-3.6042,32.012-48.0254,39.9109-4.3147,1.8494-3.795,6.8158.7208,5.6826Z" style="fill: #0f0b09;"/>
          <g>
            <g>
              <path d="m93.1693,267.7272s36.0858,66.664,43.4872,66.6736c6.0717.0079,25.7637-45.5289,36.0072-68.6105,1.6202-12.9128-2.98-29.6187-39.5151-29.6187-39.5151,0-39.9793,31.5557-39.9793,31.5557Z" style="fill: #f1b680;"/>
              <path d="m133.1487,236.1716c-6.7917,0-12.4297.9322-17.1101,2.4761-.851.2807-1.6703.5817-2.4591.9009-.7888.3192-1.5472.6567-2.2763,1.0106-2.1871,1.0617-4.1106,2.2708-5.802,3.5752-.5638.4348-1.1019.8802-1.6153,1.3343-10.526,9.3081-10.7165,22.2585-10.7165,22.2585,0,0,.2066.3107.585.8753,6.1477-16.2155,16.3823-18.1702,24.5373-7.7627,5.9265-14.7018,25.7822-17.5955,34.0345-.5597,5.0749-8.9545,18.4556-9.6711,20.1831,5.8558.0512-.115.1037-.2312.1546-.3456,1.6202-12.9128-2.98-29.6187-39.5151-29.6187Z" style="fill: #f2c090;"/>
              <path d="m142.9419,244.5102s-13.6867,89.8811-6.2853,89.8906c6.0717.0079,25.7637-45.5289,36.0072-68.6105,6.7767-26.3736-29.7219-21.2801-29.7219-21.2801Z" style="fill: #f4cda4;"/>
              <path d="m118.2915,259.979c1.7083,9.5666,12.7469,72.5971,17.4709,74.2185,11.0782-23.1379,16.5636-73.9174,16.5636-73.9174,0,0,5.47-17.6452-15.4549-19.1092-20.9249-1.4639-18.5797,18.808-18.5797,18.808Z" style="fill: #f2c090;"/>
              <path d="m116.812,249.3729c.0077,13.7735,4.9872,39.8849,9.9743,55.2342-2.8134-26.4743-9.9743-55.2342-9.9743-55.2342Z" style="fill: #f8dcc1;"/>
              <path d="m152.4354,258.3245c.1928,8.3079.1422,22.3327-7.1353,44.6654,3.5914-29.4491,7.1353-44.6654,7.1353-44.6654Z" style="fill: #f8dcc1;"/>
              <path d="m133.1487,236.1716c-39.5151,0-39.9793,31.5556-39.9793,31.5556,0,0,.2065.3107.5849.8753,5.4686-14.4122,16.1186-16.7795,24.5373-7.7627,5.9265-14.7018,25.7823-17.5955,34.0346-.5597,5.0748-8.9545,18.4556-9.6711,20.1831,5.8558.0512-.115.1037-.2312.1546-.3456,1.6202-12.9128-2.98-29.6187-39.5151-29.6187Z" style="fill: #cc7541;"/>
              <path d="m170.6803,251.0951c-7.5642-9.3969-27.7384-6.5849-27.7384-6.5849,0,0-.3571,2.0225-.9242,5.4108,4.0469,1.6858,7.7399,5.0566,10.3085,10.3591,4.3593-7.3811,18.4556-9.6711,20.1831,5.8558.0512-.115.1037-.2312.1546-.3456.5929-4.7255.35-9.9584-1.9835-14.6952Z" style="fill: #c6713a;"/>
              <path d="m136.8712,241.171c-20.9249-1.4639-18.5797,18.808-18.5797,18.808.0328.1838.0703.3878.1098.6013,5.7868-12.0931,25.3712-14.9985,33.9247-.3001,0,0,5.47-17.6452-15.4549-19.1092Z" style="fill: #cb7c52;"/>
              <path d="m136.6566,334.4008c3.2262.0042,10.2977-12.8501,17.754-28.362-1.4397-6.7682-38.324-5.729-38.324,1.5516,8.7299,14.2283,17.3553,26.8063,20.5699,26.8104Z" style="fill: #0f0b09;"/>
              <path d="m147.2855,306.8382c-2.4444-1.6453-8.5312,13.5185-6.1152,14.7842,2.416,1.2657,8.5596-13.1389,6.1152-14.7842Z" style="fill: #9d9c9b;"/>
              <path d="m139.9834,324.7758c-1.3596-.9152-3.5552,3.9881-2.2114,4.692,1.3438.704,3.571-3.7769,2.2114-4.692Z" style="fill: #9d9c9b;"/>
            </g>
            <g>
              <path d="m175.5939,66.8794c-1.1001-25.2369-.7512-29.4611-3.5332-40.2484-2.782-10.7874-5.9971-25.5662-43.4599-26.5952-20.4056-.5605-49.7109,5.4677-61.292,17.4011-11.5569,11.9085-7.9698,26.4862-6.827,38.719,1.1428,12.2328,3.7822,22.8552,3.7822,22.8552l111.3298-12.1317Z" style="fill: #e97ba9;"/>
              <path d="m160.2958,11.5444c-7.4944-7.2015-36.687-10.7979-35.1167-4.3568.9219,3.7816,22.1515,14.1134,32.4386,14.2763,7.4031.1172,8.1678-4.6444,2.6782-9.9195Z" style="fill: #efa5c7;"/>
              <path d="m120.5481,6.6419c.4004-3.4205-10.8716-2.801-10.8927.3867-.0212,3.1877,10.4923,3.0338,10.8927-.3867Z" style="fill: #efa5c7;"/>
            </g>
            <g>
              <path d="m63.5766,88.3025s27.3329,143.5917,29.5927,179.4248c6.3011-16.5446,16.712-18.4815,25.1222-7.7482-2.2827-41.4818-13.958-152.1798-16.8441-187.5035-25.2769,6.1827-37.8708,15.827-37.8708,15.827Z" style="fill: #306fb4;"/>
              <path d="m101.4474,72.4755c-25.2769,6.1827-37.8708,15.8271-37.8708,15.8271,0,0,.535,2.8109,1.4611,7.7416,13.2928-5.2274,25.8809-8.7284,37.5095-10.9821-.4411-4.8414-.8137-9.0854-1.0998-12.5866Z" style="fill: #1d4a7e;"/>
              <path d="m147.3446,70.9959s6.1921,151.8593,4.9816,188.4234c-7.5802-17.4462-27.9179-15.258-34.0346.5597-2.2827-41.4818-13.958-152.1798-16.8441-187.5035,32.1872-3.5546,45.8971-1.4796,45.8971-1.4796Z" style="fill: #3e8cd2;"/>
              <path d="m147.7695,81.6934c-.2643-6.7569-.4249-10.6975-.4249-10.6975,0,0-13.7099-2.0751-45.8971,1.4796.2861,3.5012.6588,7.7452,1.0998,12.5866,17.5575-3.4028,32.9245-3.9716,45.2222-3.3687Z" style="fill: #306fb4;"/>
              <path d="m118.2915,259.979c-4.204-34.219-15.6814-157.849-16.8441-187.5035,6.1358,38.6102,17.1636,174.3573,16.8441,187.5035Z" style="fill: #9fd6f3;"/>
              <path d="m147.3446,70.9959s6.1921,151.8593,4.9816,188.4234c5.2828-9.3214,19.5684-11.3232,20.3377,6.371,4.1159-15.1698,9.2735-139.4496,7.5787-185.4515-7.5863-6.1336-32.8979-9.3429-32.8979-9.3429Z" style="fill: #489fe0;"/>
              <path d="m169.9367,193.1866c-6.0335-1.3903-6.5739,32.9407-.8816,33.6074,5.6923.6667,6.9151-32.2171.8816-33.6074Z" style="fill: #9fd6f3;"/>
              <path d="m169.0976,233.874c-3.3559-.7733-3.9769,10.4985-.8109,10.8694,3.1661.3708,4.1667-10.0961.8109-10.8694Z" style="fill: #9fd6f3;"/>
              <path d="m180.2424,80.3388c-7.5863-6.1336-32.8979-9.3429-32.8979-9.3429,0,0,.1607,3.9406.4249,10.6975,19.9686.979,31.8463,5.0374,31.8463,5.0374,0,0,.3215.0897.8101.0821-.0486-2.2964-.1093-4.4617-.1834-6.4742Z" style="fill: #3e8cd2;"/>
              <path d="m152.3261,259.4193c1.4571-32.8322-5.5864-158.4565-4.9816-188.4234,4.846,40.3047,8.1476,177.9107,4.9816,188.4234Z" style="fill: #9fd6f3;"/>
            </g>
            <g>
              <path d="m180.1996,45.0528c3.345,3.3208,6.7131,22.3035,5.8976,30.5672-.8095,8.2025-5.5955,6.8481-5.5955,6.8481,0,0-47.667-19.7471-116.2742,9.9817-3.6502.7473-6.7029-1.7559-8.7842-12.1653-1.1638-5.8207-2.465-16.4125-.4374-23.9291,2.0276-7.5165,23.7859-16.559,59.2849-21.7259,35.3103-5.1395,57.2018,1.7792,65.9088,10.4232Z" style="fill: #d4d5d5;"/>
              <path d="m53.3934,71.8798c-.3303,0-.6661-.0594-.9928-.1846-1.4304-.5487-2.1455-2.1531-1.597-3.5837,3.0589-7.9765,26.2584-18.7149,64.6807-23.8057,19.2921-2.5561,35.9209-2.4462,49.4238.3269,10.3228,2.1201,18.4103,5.8541,22.1888,10.2447.9993,1.1613.868,2.9129-.2933,3.9123-1.1617.9997-2.9135.8679-3.9124-.2931-4.6824-5.4412-24.6453-14.2599-66.6781-8.6902-21.5215,2.8515-35.7457,7.2029-43.8887,10.3514-11.611,4.4891-15.7342,8.3606-16.34,9.9407-.4234,1.1037-1.4752,1.7815-2.5909,1.7815Z" style="fill: #acaeae;"/>
              <path d="m56.7216,88.3766c-.1755,0-.3536-.0166-.5327-.0511-1.5043-.2907-2.4863-1.7541-2.1955-3.2584.7629-3.947,6.6993-8.583,16.2871-12.7196,8.253-3.5608,23.1692-8.4032,47.3616-11.2521,38.0807-4.483,64.6354,3.0963,70.5912,9.6307,1.0322,1.1325.9508,2.8871-.1815,3.9192-1.1321,1.0322-2.8867.9509-3.9192-.1815-1.9098-2.0953-8.9666-5.2463-19.9475-7.2131-9.2955-1.6651-24.8034-3.128-45.8943-.6448-45.0938,5.3097-58.2996,17.5067-58.8534,19.5302-.2561,1.3253-1.4149,2.2405-2.7159,2.2405Z" style="fill: #acaeae;"/>
              <path d="m128.6659,36.7085c-2.5757,3.3693,30.1504,5.2431,32.0773,1.9982,1.9268-3.2449-29.5016-5.3675-32.0773-1.9982Z" style="fill: #e4e4e4;"/>
            </g>
          </g>
          <g>
            <g>
              <path d="m109.773,125.6742c.0974,2.8766-4.4876,5.3665-10.2408,5.5612-5.7532.1948-10.4961-1.9793-10.5935-4.8559-.0974-2.8766,4.4876-5.3665,10.2409-5.5612,5.7533-.1948,10.4961,1.9793,10.5935,4.8559Z" style="fill: #e97ba9;"/>
              <path d="m149.9973,122.1781c.3566,2.8561,5.2763,4.5932,10.9885,3.88,5.7122-.7132,10.0537-3.6067,9.6971-6.4628-.3566-2.8561-5.2763-4.5932-10.9885-3.88-5.7122.7132-10.0537,3.6068-9.6971,6.4628Z" style="fill: #e97ba9;"/>
              <g>
                <circle cx="101.3396" cy="103.4832" r="14.9479" style="fill: #fff;"/>
                <circle cx="103.0435" cy="103.6972" r="11.0464" transform="translate(-19.206 23.534) rotate(-11.9269)" style="fill: #0f0b09;"/>
                <path d="m101.2867,100.6024c-.0679,1.764-1.5531,3.139-3.3171,3.0711-1.7641-.068-3.1391-1.5531-3.0711-3.3171s1.5531-3.1391,3.3171-3.0711c1.7641.0679,3.1391,1.5531,3.0711,3.3171Z" style="fill: #fff;"/>
                <path d="m110.3054,108.7425c-.0353.9176-.8078,1.6328-1.7254,1.5974-.9175-.0354-1.6327-.8079-1.5974-1.7254.0353-.9176.8078-1.6328,1.7253-1.5974.9176.0354,1.6328.8079,1.5974,1.7254Z" style="fill: #fff;"/>
              </g>
              <g>
                <circle cx="153.2084" cy="99.2713" r="14.948" transform="translate(-29.1614 107.5691) rotate(-35.5463)" style="fill: #fff;"/>
                <circle cx="151.5593" cy="99.7508" r="11.0464" transform="translate(-6.0744 9.9062) rotate(-3.6701)" style="fill: #0f0b09;"/>
                <circle cx="155.9421" cy="95.7938" r="3.1965" transform="translate(-23.369 59.1617) rotate(-20.0158)" style="fill: #fff;"/>
                <path d="m145.1821,105.8763c.1793.9006,1.0547,1.4852,1.9553,1.3059s1.4853-1.0547,1.3059-1.9553c-.1793-.9006-1.0547-1.4853-1.9553-1.3059-.9006.1794-1.4852,1.0547-1.3059,1.9553Z" style="fill: #fff;"/>
              </g>
            </g>
            <g>
              <path d="m131.7758,145.9013c-3.8945.3084-6.9786.1096-9.2767-.3622,1.7899,1.9072,4.9505,3.3696,9.4865,3.0104,4.5741-.3623,7.1265-2.1981,8.8362-4.4838-2.1712.8513-5.0398,1.5183-9.046,1.8356Z" style="fill: #e97ba9;"/>
              <g>
                <path d="m129.9151,122.7636c-8.159.6461-15.4725-1.0511-19.5136-2.6776,3.8712,11.8684,11.0285,22.2846,21.0038,21.4946,9.9753-.79,14.5989-11.4578,17.3587-24.5327-3.7347,2.2423-10.6899,5.0696-18.8489,5.7157Z" style="fill: #0f0b09;"/>
                <path d="m141.9163,120.189c-3.4174,1.2098-7.5275,2.2203-12.0012,2.5746-4.751.3763-9.2138-.0427-12.9123-.7789,3.5915,4.2555,8.0037,6.8625,13.1755,6.453,5.2056-.4122,8.9515-3.5181,11.738-8.2486Z" style="fill: #fff;"/>
                <path d="m127.9679,132.5912c-3.8534-1.101-7.708-.9931-11.5575.1439,3.8807,5.6391,8.9129,9.327,14.9949,8.8454,2.5062-.1985,4.6742-1.0214,6.5601-2.3484-2.7574-3.2318-6.0662-5.5176-9.9975-6.6409Z" style="fill: #e97ba9;"/>
              </g>
              <g>
                <path d="m125.3221,108.5051c-1.6204-.4509-3.8661,4.6693-.9502,5.4877,1.4674.4119,2.5269-5.049.9502-5.4877Z" style="fill: #0f0b09;"/>
                <path d="m131.4597,108.0191c1.5293-.7004,4.5529,4.0025,1.8022,5.2698-1.3843.6378-3.2901-4.5883-1.8022-5.2698Z" style="fill: #0f0b09;"/>
              </g>
            </g>
            <g>
              <path d="m87.4969,81.0329c.8981-5.7418,6.4792-12.5861,14.7725-12.013.0378.0026.0736.0143.1112.0184,1.662.1824,3.718,6.599,1.6845,6.9777-.8995.1675-8.0554.5091-15.8499,5.4298-.3414.2156-.7806-.014-.7183-.413Z" style="fill: #0f0b09;"/>
              <path d="m162.4213,77.8116c-.6328-5.7771-5.8928-12.8711-14.2036-12.6803-.0379.0008-.0742.0109-.112.0133-1.6687.1057-4.0178,6.4208-2.004,6.8927.8908.2088,8.0234.8794,15.5831,6.1538.3311.2311.7805.0219.7365-.3795Z" style="fill: #0f0b09;"/>
            </g>
          </g>
        </g>
        <g>
          <g>
            <rect y="154.9385" width="129.3443" height="90.2849" rx="2.9792" ry="2.9792" style="fill: #e97ba9;"/>
            <rect x="6.4266" y="160.6331" width="116.3155" height="78.8958" rx="2.9792" ry="2.9792" style="fill: #fff;"/>
          </g>
          <path d="m56.6772,150.5032c-3.6242,1.9986-6.4928,9.0533-3.1186,13.0922,2.2677,2.7143,2.7139-1.7339,3.9409-5.3126-.3579,4.7034,3.7278,12.47,5.6705-.1577.9714,5.2147,4.5501,10.0204,5.4445,2.5667-.199-.4335-.1154-5.1726,1.2084-5.3277,1.63-.191,2.8736.1743,5.1568-.0923,2.6215-1.7538-8.9468-9.9278-18.3026-4.7686Z" style="fill: #0f0b09;"/>
        </g>
      </g>
      <path d="m44.227,188.8308l.8386-1.5242,1.0671-1.9063c.1525-.3046.5338-.9527,1.1436-1.9436s1.0922-1.7153,1.4484-2.1728l1.6009-1.8296c.6599-.8635,1.2699-1.5493,1.8296-2.058.5587-.5078,1.2318-1.0541,2.0203-1.639.7872-.584,1.5877-1.0793,2.4013-1.4865,3.4043-1.7789,6.9492-2.6554,10.6346-2.6303,3.6842.026,6.9241,1.029,9.7196,3.0111,2.947,2.0844,4.8527,4.93,5.7174,8.5381.9148,3.609.7363,7.4459-.5336,11.5115-1.2709,4.1164-3.7104,7.598-7.3183,10.4436l-3.888,2.8209c-1.3721.9657-2.4656,1.8041-3.278,2.5155-.2549.2547-.4573.5086-.6098.7625l-.7623,1.2196c-.3561.5086-.7887,1.1434-1.2961,1.9059-.8647,1.2196-2.0083,1.944-3.4305,2.1728-1.4234.2288-2.7325-.0884-3.9259-.9532-1.1947-.8635-1.9059-2.0073-2.1346-3.4305-.2285-1.4224.0882-2.7183.9529-3.8876.0501-.0503.2288-.305.5338-.7625l.9148-1.525c.3048-.4571.698-.9904,1.1815-1.6005.4824-.61.9529-1.1174,1.4105-1.525,1.016-1.0156,2.4644-2.1845,4.3451-3.5068,2.0322-1.422,3.202-2.2607,3.5068-2.5155,1.8797-1.4735,3.1257-3.2017,3.7355-5.1839,1.2697-4.1164.8386-6.9373-1.2961-8.4619-.5597-.4064-1.2577-.7114-2.0963-.915-.8386-.2019-1.9189-.2019-3.2399,0-1.3223.2036-2.6944.6863-4.1166,1.4488-.9661.4575-1.9321,1.246-2.8969,2.363-.9661,1.1186-1.7414,2.161-2.3251,3.1255-.5849.9661-1.4867,2.5674-2.7063,4.803-.7122,1.2196-1.7666,2.0332-3.1636,2.4392-1.3985.4072-2.7195.2547-3.9643-.4575-1.2458-.711-2.0701-1.753-2.4776-3.1255-.4062-1.422-.2537-2.7694.4575-4.0405Zm19.8968,31.7896c1.016,1.0173,1.5246,2.262,1.5246,3.7355,0,1.4748-.5086,2.7191-1.5246,3.7355-1.0173,1.0173-2.262,1.5246-3.7353,1.5246-1.4748,0-2.7195-.5074-3.7355-1.5246-1.0173-1.0164-1.5246-2.2607-1.5246-3.7355,0-1.4735.5074-2.7183,1.5246-3.7355,1.016-1.016,2.2607-1.5246,3.7355-1.5246,1.4733,0,2.718.5086,3.7353,1.5246Z"/>
    </g>
  </g>
</svg>