<?xml version="1.0" encoding="utf-8"?>
<!-- Generator: Adobe Illustrator 27.4.0, SVG Export Plug-In . SVG Version: 6.00 Build 0)  -->
<svg version="1.1" id="Layer_4" xmlns="http://www.w3.org/2000/svg" xmlns:xlink="http://www.w3.org/1999/xlink" x="0px" y="0px"
	 viewBox="0 0 363.5 292.5" style="enable-background:new 0 0 363.5 292.5;" xml:space="preserve">
<style type="text/css">
	.st0{fill:#FFFFFF;}
	.st1{fill:#61C0E3;}
	.st2{clip-path:url(#SVGID_00000055669024716080980340000013513877878719914425_);}
	.st3{fill:url(#SVGID_00000087414769226371622180000014604433554272255676_);}
	.st4{fill:#B5623F;}
	.st5{fill:#D58650;}
	.st6{fill:#6DBBAA;}
	.st7{fill:none;stroke:#F7F3DC;stroke-width:2;stroke-linecap:round;stroke-linejoin:round;}
	.st8{fill:#80472B;}
	.st9{fill:#443F59;}
	.st10{fill:none;stroke:#F7F3DC;stroke-width:3;stroke-miterlimit:10;}
	.st11{fill:#E16766;}
	.st12{fill:#8F4651;}
	.st13{fill:none;stroke:#8F4651;stroke-width:2;stroke-linecap:round;stroke-linejoin:round;}
	.st14{fill:#F7F3DC;}
	.st15{opacity:0.4;fill:#3A374D;enable-background:new    ;}
	.st16{fill:none;stroke:#E16766;stroke-width:2;stroke-linecap:round;stroke-linejoin:round;}
	.st17{fill:#3A374D;}
	.st18{fill:#E78C73;}
	.st19{fill:#ECA78F;}
	.st20{fill:none;stroke:#443F59;stroke-width:2;stroke-miterlimit:10;}
	.st21{fill:#657ABA;}
	.st22{fill:none;stroke:#F5AA98;stroke-width:2;stroke-linecap:round;stroke-linejoin:round;}
	.st23{fill:#3D4B97;}
	.st24{fill:#009444;}
</style>
<g id="football">
	<path class="st0" d="M34.4,0h294.6c19,0,34.4,15.4,34.4,34.4v223.6c0,19-15.4,34.4-34.4,34.4H34.4c-19,0-34.4-15.4-34.4-34.4V34.4
		C0,15.4,15.4,0,34.4,0z"/>
	<path class="st1" d="M47.1,20.3h271.5c14.4,0,26,11.6,26,26v201c0,14.4-11.6,26-26,26H47.1c-14.4,0-26-11.6-26-26v-201
		C21.1,31.9,32.8,20.3,47.1,20.3z"/>
	<g>
		<defs>
			<path id="SVGID_1_" d="M47.1,20.3h271.5c14.4,0,26,11.6,26,26v201c0,14.4-11.6,26-26,26H47.1c-14.4,0-26-11.6-26-26v-201
				C21.1,31.9,32.8,20.3,47.1,20.3z"/>
		</defs>
		<clipPath id="SVGID_00000005979788068837027360000009070561521151382177_">
			<use xlink:href="#SVGID_1_"  style="overflow:visible;"/>
		</clipPath>
		<g style="clip-path:url(#SVGID_00000005979788068837027360000009070561521151382177_);">
			
				<linearGradient id="SVGID_00000139272989858123581480000010146426132746067103_" gradientUnits="userSpaceOnUse" x1="-49.6188" y1="145.089" x2="413.1312" y2="145.089" gradientTransform="matrix(1 0 0 -1 0 291.8898)">
				<stop  offset="0" style="stop-color:#F9EE4C"/>
				<stop  offset="1" style="stop-color:#B84D36"/>
			</linearGradient>
			
				<rect x="-49.6" y="-7.4" style="fill:url(#SVGID_00000139272989858123581480000010146426132746067103_);" width="462.8" height="308.5"/>
			<polygon class="st4" points="355.1,301.1 10.6,301.1 90.8,151.7 274.9,151.7 			"/>
			<polygon class="st5" points="348.1,301.1 355.1,301.1 274.9,151.7 90.8,151.7 10.6,301.1 17.6,301.1 87.7,170.5 278,170.5 			"/>
			<polygon class="st6" points="312.6,301.1 52.9,301.1 91.6,207.4 275.1,207.4 			"/>
			<path class="st7" d="M68.7,301.1l28.8-75.4c1.4-3.6,4.8-6,8.6-6h154.1c3.9,0,7.4,2.5,8.7,6.2l26.7,75.2"/>
			<polygon class="st8" points="87.7,170.5 91.6,207.4 275.1,207.4 278,170.5 			"/>
			<rect x="154.3" y="182.9" class="st9" width="54.9" height="24.5"/>
			<polyline class="st10" points="154.3,207.4 154.3,182.9 209.2,182.9 209.2,207.4 			"/>
			<polygon class="st4" points="235.5,157.2 126.4,161.2 122.5,151.7 235.5,151.7 			"/>
			<polygon class="st11" points="235.5,149.6 128.3,149.6 131.4,139.6 232.4,139.6 			"/>
			<rect x="128.3" y="149.6" class="st12" width="107.2" height="7.6"/>
			<line class="st13" x1="144.5" y1="139.6" x2="143.3" y2="149.6"/>
			<line class="st13" x1="163" y1="139.6" x2="161.8" y2="149.6"/>
			<line class="st13" x1="181.6" y1="139.6" x2="181.6" y2="149.6"/>
			<line class="st13" x1="200.1" y1="139.6" x2="201.3" y2="149.6"/>
			<line class="st13" x1="218.6" y1="139.6" x2="219.8" y2="149.6"/>
			<polygon class="st7" points="217.8,243.8 145.9,243.8 152.1,219.7 211.6,219.7 			"/>
			<polygon class="st7" points="204.6,231.7 159.6,231.7 162.1,219.7 201.4,219.7 			"/>
			<path class="st9" d="M218.2,243.9c0,1.6-2.8,2.8-6.4,2.8s-6.4-1.3-6.4-2.8s2.8-2.8,6.4-2.8S218.2,242.3,218.2,243.9L218.2,243.9z
				"/>
			<circle class="st14" cx="211.3" cy="237.2" r="7.6"/>
			<polygon class="st15" points="278,170.5 275.1,207.4 52.9,301.1 87.7,170.5 			"/>
			<path class="st7" d="M205.6,244.7c0,6.4-10.6,11.6-23.7,11.6s-23.7-5.2-23.7-11.6"/>
			<path class="st7" d="M146.5,301.1c0-9.6,15.8-17.4,35.4-17.4s35.4,7.8,35.4,17.4"/>
			<line class="st16" x1="143.3" y1="157.2" x2="143.3" y2="150.2"/>
			<line class="st16" x1="161.8" y1="157.2" x2="161.8" y2="150.2"/>
			<line class="st16" x1="181.6" y1="157.2" x2="181.6" y2="150.2"/>
			<line class="st16" x1="201.3" y1="157.2" x2="201.3" y2="150.2"/>
			<line class="st16" x1="219.8" y1="157.2" x2="219.8" y2="150.2"/>
			<ellipse class="st17" cx="69.9" cy="223.7" rx="3.1" ry="5.3"/>
			<ellipse class="st17" cx="293.5" cy="223.7" rx="3.1" ry="5.3"/>
			<path class="st14" d="M290.6,227.5H72.8c-2.3,0-4.1-1.8-4.1-4.1l0,0c0-2.3,1.8-4.1,4.1-4.1h217.8c2.3,0,4.1,1.8,4.1,4.1l0,0
				C294.7,225.7,292.9,227.5,290.6,227.5z"/>
			<polygon class="st9" points="128.6,227.5 121.2,227.5 121.2,219.3 125.8,219.3 			"/>
			<polygon class="st9" points="194.9,219.3 198.3,227.5 190.3,227.5 			"/>
			<polygon class="st9" points="264.1,219.3 268,227.5 260,227.5 			"/>
			<path class="st11" d="M118,212.6c-1-1.5-3.3-2.6-5.9-2.6s-4.8,1-5.9,2.6h0l-7.9,2.2v16.4l2.2,3.7v5h23v-5l2.2-3.7v-16.4
				L118,212.6L118,212.6z"/>
			<ellipse class="st14" cx="112.2" cy="214" rx="6.5" ry="5.7"/>
			<path class="st18" d="M112.1,217L112.1,217c-1.8,0-3.3-1.5-3.3-3.3v-5.3h6.7v5.3C115.4,215.5,113.9,217,112.1,217z"/>
			<circle class="st19" cx="112.1" cy="203.9" r="8"/>
			<rect x="100.6" y="240" class="st14" width="23.2" height="14.5"/>
			<rect x="100.6" y="254.5" class="st19" width="23.2" height="23.8"/>
			<rect x="100.6" y="274.1" class="st14" width="23.2" height="4.1"/>
			<line class="st20" x1="112.2" y1="246.9" x2="112.2" y2="278.3"/>
			<path class="st11" d="M187.1,212.6c-1-1.5-3.3-2.6-5.9-2.6s-4.8,1-5.9,2.6h0l-7.9,2.2v16.4l2.2,3.7v5h23v-5l2.2-3.7v-16.4
				L187.1,212.6L187.1,212.6z"/>
			<ellipse class="st14" cx="181.3" cy="214" rx="6.5" ry="5.7"/>
			<path class="st18" d="M181.3,217L181.3,217c-1.8,0-3.3-1.5-3.3-3.3v-5.3h6.7v5.3C184.6,215.5,183.1,217,181.3,217L181.3,217z"/>
			<circle class="st19" cx="181.3" cy="203.9" r="8"/>
			<rect x="169.8" y="240" class="st14" width="23.2" height="14.5"/>
			<rect x="169.8" y="254.5" class="st19" width="23.2" height="23.8"/>
			<rect x="169.8" y="274.1" class="st14" width="23.2" height="4.1"/>
			<line class="st20" x1="181.3" y1="246.9" x2="181.3" y2="278.3"/>
			<path class="st11" d="M256.3,212.6c-1-1.5-3.3-2.6-5.9-2.6s-4.8,1-5.9,2.6h0l-7.9,2.2v16.4l2.2,3.7v5h23v-5l2.2-3.7v-16.4
				L256.3,212.6L256.3,212.6z"/>
			<ellipse class="st14" cx="250.5" cy="214" rx="6.5" ry="5.7"/>
			<path class="st18" d="M250.4,217L250.4,217c-1.8,0-3.3-1.5-3.3-3.3v-5.3h6.7v5.3C253.8,215.5,252.3,217,250.4,217L250.4,217z"/>
			<circle class="st19" cx="250.4" cy="203.9" r="8"/>
			<rect x="238.9" y="240" class="st14" width="23.2" height="14.5"/>
			<rect x="238.9" y="254.5" class="st19" width="23.2" height="23.8"/>
			<rect x="238.9" y="274.1" class="st14" width="23.2" height="4.1"/>
			<line class="st20" x1="250.5" y1="246.9" x2="250.5" y2="278.3"/>
			<ellipse class="st17" cx="311.2" cy="267.2" rx="3.6" ry="6.2"/>
			<ellipse class="st17" cx="52.1" cy="267.2" rx="3.6" ry="6.2"/>
			<path class="st14" d="M309.2,271.3H54.3c-2.3,0-4.1-1.8-4.1-4.1v0c0-2.3,1.8-4.1,4.1-4.1h254.8c2.3,0,4.1,1.8,4.1,4.1v0
				C313.2,269.5,311.4,271.3,309.2,271.3z"/>
			<polygon class="st9" points="148.1,263.1 151.1,271.3 143.3,271.3 143.3,263.1 			"/>
			<polygon class="st9" points="244.3,263.1 247.4,271.3 239.5,271.3 239.5,263.1 			"/>
			<path class="st21" d="M139.6,256.4c-1.1-1.6-3.5-2.8-6.3-2.8s-5.2,1.1-6.3,2.8h0l-8.5,2.4v17.7l2.4,4v5.4h24.8v-5.4l2.4-4v-17.7
				L139.6,256.4L139.6,256.4z"/>
			<ellipse class="st14" cx="133.4" cy="257.9" rx="7" ry="6.1"/>
			<path class="st18" d="M133.3,261L133.3,261c-2,0-3.6-1.6-3.6-3.6v-5.7h7.2v5.7C136.9,259.4,135.3,261,133.3,261L133.3,261z"/>
			<circle class="st19" cx="133.3" cy="247" r="8.6"/>
			<rect x="120.9" y="285.9" class="st11" width="25" height="15.1"/>
			<path class="st21" d="M235.5,256.4c-1.1-1.6-3.5-2.8-6.3-2.8s-5.2,1.1-6.3,2.8h0l-8.5,2.4v17.7l2.4,4v5.4h24.8v-5.4l2.4-4v-17.7
				L235.5,256.4L235.5,256.4z"/>
			<ellipse class="st14" cx="229.3" cy="257.9" rx="7" ry="6.1"/>
			<path class="st18" d="M229.2,261L229.2,261c-2,0-3.6-1.6-3.6-3.6v-5.7h7.2v5.7C232.8,259.4,231.2,261,229.2,261z"/>
			<circle class="st19" cx="229.2" cy="247" r="8.6"/>
			<rect x="216.8" y="285.9" class="st11" width="25" height="15.1"/>
			<polyline class="st22" points="87.7,170.5 278,170.5 343.5,292.4 			"/>
			<path class="st21" d="M163,139.6l-1.2,10v7.6h19.7v-17.6H163L163,139.6z M177.7,147.3h-12.3l0.7-6h11.6L177.7,147.3L177.7,147.3z
				"/>
			<rect x="161.8" y="149.6" class="st23" width="19.7" height="7.6"/>
			<polygon class="st23" points="177.7,143.3 165.9,143.3 166.2,141.2 177.7,141.2 			"/>
		</g>
	</g>
	<path class="st0" d="M54.7,122.3c-0.3,0.1-1.3,0.1-3.1,0c-1.9-0.1-3-0.3-3.4-0.5c-0.7-0.4-1.1-0.8-1.2-1.2c0-0.1,0-0.2,0.1-0.4
		c0.1-0.1,0.1-0.4,0-0.7c-1.4-7.4-2.7-15.3-4.1-23.4c0-0.1-0.1-0.1-0.3-0.1c-0.2,0-0.4-0.1-0.7-0.2c-0.3-0.1-0.5-0.3-0.7-0.6
		c-0.2-0.3-0.4-0.7-0.5-1.2c-0.1-0.4-0.2-0.8-0.4-1.2c-0.2-0.4-0.5-0.9-0.7-1.3c-0.2-0.4-0.4-0.8-0.6-1.1c-0.1-0.3-0.2-0.6-0.1-0.7
		c0-0.1,0.5-0.2,1.3-0.4c0.8-0.2,1.9-0.3,3.1-0.5c1.2-0.2,2.6-0.4,4-0.6c1.4-0.2,2.8-0.4,4.1-0.6c1.3-0.2,2.3-0.4,3.2-0.6
		c0.9-0.2,1.4-0.3,1.6-0.3c0.3-0.1,0.6-0.1,0.9-0.2c0.3,0,0.6-0.1,0.9-0.1c0.6-0.1,1.6,0,2.9,0.4c1.3,0.4,2.1,0.9,2.3,1.4
		c0,0.1,0.1,0.4,0.2,0.9c0.1,0.5,0.1,0.8,0,1.1c0,0.1-0.1,0.3-0.1,0.5c0,0.2,0,0.5,0,0.7c0,0.2,0.1,0.5,0.1,0.6c0,0.2,0,0.3,0,0.4
		c1.5,8.8,3,16.9,4.5,24.1c0,0,0.1,0.2,0.2,0.3c0.1,0.2,0.3,0.5,0.5,0.9c0.6,1.5,0.5,2.3-0.1,2.7c-0.2,0.1-0.4,0.1-0.6,0.1
		c-1,0.1-2.4,0-4.1-0.4c-1.8-0.4-3-0.9-3.5-1.5c-0.1-0.3-0.2-0.6-0.3-1c0-0.1,0-0.2,0-0.3c0-0.1,0.1-0.3,0.2-0.4
		c0.1-0.1,0.1-0.3,0.2-0.4c0.1-0.1,0.1-0.2,0.1-0.2c-1.4-7-2.8-14.6-4.2-22.7c-1,0.3-2.1,0.5-3.1,0.6c-1,0.1-2.1,0.4-3.1,0.8
		c1.4,8.2,2.8,16,4.2,23.2c0.1,0.3,0.2,0.6,0.4,0.8c0.2,0.2,0.3,0.4,0.4,0.5C55.6,121.2,55.4,122.1,54.7,122.3L54.7,122.3z"/>
	<path class="st0" d="M53.4,117.5c2-0.5,0.7-0.1-0.1-0.1c-0.8,0-1.6-0.1-2.3-0.1c-0.3,0-0.7-0.1-1-0.1c-1.2-0.1,1.1,0.2,0.2,0
		c-0.5-0.1-0.9-0.4,0.6,0.3l-0.3-0.2c1,0.6,1.6,1.7,1.6,3.1l-0.7,2.5c0.5-1.1,0.9-2.1,0.8-3.4c-0.1-1-0.3-2.1-0.5-3.1
		c-0.3-1.5-0.6-3-0.8-4.5c-0.5-3-1.1-6.1-1.6-9.1c-0.3-1.5-0.5-3-0.8-4.6c-0.3-2-0.4-4.2-1.9-5.7l-1-0.8c-0.4-0.2-0.8-0.4-1.3-0.5
		c-0.2-0.2,0.9,0.6,0.9,0.6c0.1,0.1,0.7,1,0.6,1.1c0-0.1-0.2-0.9-0.3-1c-0.3-0.8-0.7-1.6-1-2.3c-0.1-0.3-0.3-0.5-0.4-0.8l-0.2-0.4
		c-0.5-1.2-0.5-0.4,0.1,2.4L42.6,93c-1.9,1.6-2.4,1.2-0.9,0.9c0.4-0.1,0.8-0.1,1.2-0.2c1.1-0.2,2.2-0.3,3.4-0.5
		c2.4-0.3,4.7-0.7,7.1-1.1c1.8-0.3,3.5-0.6,5.3-0.9c1.2-0.2-0.2,0.1-0.2,0c0,0.1,0.6-0.1,0.6,0c0,0.1-1.3-0.3-0.2,0
		c0.2,0.1,0.4,0.1,0.7,0.2c0.2,0,1.1,0.4,0.4,0.1c-0.7-0.2,0.1,0,0.1,0l0.3,0.2l-0.6-0.5c-0.6-0.6-1-1.2-1.1-2c0-0.4,0-0.4,0-0.1
		l0,0.2c0,0.5,0,0.5,0.1-0.1l0-0.4l-0.2,1.3c0,0.5,0,0.9,0,1.3c0.1,1.3,0.4,2.7,0.6,4c0.4,2.4,0.9,4.9,1.3,7.3
		c0.8,4.4,1.7,8.9,2.6,13.3c0.2,1.2,0.5,2.4,1.2,3.4c0.1,0.1,0.4,0.6,0.1,0.1c-0.4-0.7,0.2,0.5,0.1,0.5l-0.1-0.4
		c-0.4-1.7,0.6-3.1,2.8-4.2c0.2-0.1,1,0,0.4-0.1c-0.2,0-0.4,0-0.7,0c-0.1,0-1.2-0.1-0.5,0c0.7,0.1-0.2,0-0.4-0.1
		c-0.4-0.1-0.7-0.2-1.1-0.2c-0.4-0.1-1.1-0.5-1.5-0.4c0.5-0.1,0.8,0.4,0.4,0.1c-0.8-0.5,0.8,0.8,0.3,0.2l1.3,2.2
		c-0.1-0.2-0.1-0.4-0.2-0.6c-0.5,2.8-0.5,3.2,0.2,1.2c0.3-1,0.3-1.9,0.1-2.9c-0.2-1-0.4-2-0.6-3c-0.4-2.1-0.8-4.2-1.2-6.4
		c-0.8-4.4-1.6-8.9-2.4-13.3c-0.5-2.7-3.7-4.1-6.2-3.5c-0.6,0.2-1.2,0.3-1.8,0.4c-1.1,0.2,0.7-0.1-0.4,0.1c-1.4,0.2-2.7,0.4-4,1
		c-2.7,1.1-4,3.2-3.5,6.2c0.8,4.8,1.7,9.7,2.6,14.5c0.4,2.2,0.8,4.5,1.3,6.7c0.2,1.3,0.4,2.6,1.1,3.7c0.3,0.4,0.6,0.8,1,1.2
		c-0.7-2.4-1.1-3-0.9-1.8c0,0.6,0,0.4,0.1-0.5c2.2-2,2.8-2.8,1.7-2.3c-2.4,1-3.1,4.8-1.8,6.8c1.6,2.5,4.3,2.9,6.8,1.8
		c3.5-1.5,3.8-6.7,2.3-9.7c-0.3-0.5-0.9-0.9-1.1-1.4l0.9,1.4l-0.1-0.4c-0.1-0.7-0.3-1.3-0.4-2c-0.3-1.3-0.5-2.7-0.8-4
		c-1-5.6-2-11.2-3-16.8l-3.5,6.2c0.6-0.2,1.2-0.4,1.8-0.6c1-0.4-0.7,0.1,0.4-0.1c1.4-0.2,2.7-0.4,4-0.7L51.6,95
		c1.3,7.6,2.7,15.1,4.2,22.7V115c0.6-1.6-0.3,0.5-0.4,1c-0.2,0.9-0.2,2,0,3c0.3,1.2,0.8,2.4,1.7,3.2c1.3,1.3,3.2,2.1,5,2.5
		c4,1,9.7,1.7,11.7-3c1-2.3,0.4-4.9-0.7-7c-0.1-0.2-0.2-0.3-0.3-0.5c-0.5-0.8,0.1,0.3,0.1,0.3c0,0-0.5-2.6-0.6-2.9
		c-0.7-3.3-1.3-6.7-1.9-10c-0.3-1.7-0.6-3.4-0.9-5.1c-0.1-0.8-0.3-1.6-0.4-2.4c-0.1-0.5-0.2-1-0.3-1.4c-0.1-0.4-0.5-1.6-0.3-1.9
		c-0.2,0.4,0.2,1.4,0.1,0.4c0-0.1,0-0.8-0.1-0.9l-0.1,0.8c0.1-0.5,0.1-1.1,0.2-1.6c0-0.4,0-0.8-0.1-1.2c-0.3-2.5-1.4-4.5-3.7-5.7
		c-1.8-0.9-4-1.6-6-1.6c-1.6,0-3.3,0.4-4.8,0.7c-3.3,0.6-6.7,1.1-10,1.6c-1.7,0.3-3.5,0.5-5.2,0.8c-3.2,0.6-5.4,3.6-4.4,6.8
		c0.3,1,0.8,2,1.3,2.9c0.1,0.2,0.5,0.8,0.5,1c-0.2-0.7-0.3-0.7-0.1-0.2c0,0.2,0.1,0.4,0.2,0.7c0.8,2.7,2.9,4.5,5.6,5.2l-2.2-1.3
		l0.1,0.1l-1.3-2.2c1.2,7,2.4,14,3.7,20.9c0.1,0.4,0.1,0.7,0.2,1.1c0,0.2,0.1,0.4,0.1,0.7c0.2,1.1,0.3,0.3,0.5-2.3
		c-0.8,1.6-0.9,3.2-0.2,4.8c0.8,1.9,2.7,3.5,4.7,4c1.5,0.4,3.1,0.5,4.6,0.6c1.4,0.1,2.8,0.2,4.2-0.2c2.5-0.6,4.3-3.6,3.5-6.2
		C58.7,118.3,56.1,116.8,53.4,117.5L53.4,117.5z"/>
	<path class="st0" d="M82.2,95.3c1.7,0.5,3.2,1.8,4.4,3.8c1.1,1.8,1.9,4,2.4,6.5c0.7,3.4,0.6,6.2-0.3,8.7c-0.9,2.6-2.5,3.8-4.8,3.9
		c-0.8-0.1-2.1-0.1-3.7-0.1c-1.2,0-2.3,0-3.3-0.1c-1.7-0.1-3.3-1.1-4.6-2.9c-1.3-1.7-2.1-3.8-2.7-6.4c-0.5-2.6-0.5-5.1,0-7.4
		c0.6-2.5,1.7-4.5,3.4-5.7c0.3-0.2,0.7-0.3,1.2-0.4c0.6-0.1,1.7,0,3.5,0.2C78.9,95.2,80.4,95.2,82.2,95.3L82.2,95.3z M78,99.5
		c-0.8,0.1-1.3,1-1.7,2.8c-0.3,1.8-0.4,3.4-0.1,4.9c0.4,1.8,0.9,3.5,1.8,5.1c0.9,1.7,1.8,2.6,2.5,2.7c1,0,1.6-0.9,1.9-2.8
		c0.3-1.9,0.2-4-0.2-6.3c-0.3-1.3-0.7-2.6-1.3-3.8C80.1,100.3,79.1,99.4,78,99.5L78,99.5z"/>
	<path class="st0" d="M80.9,100.1c0.8,0.3-0.3-0.1-0.4-0.2c0,0.1,0.6,0.3,0.7,0.4c1,0.6-0.6-0.6,0.2,0.2c0.2,0.2,0.4,0.4,0.6,0.6
		c0.3,0.3,0.4,0.2-0.1-0.2c0.4,0.2,0.8,1.2,1,1.6c0.1,0.2,0.2,0.4,0.3,0.7c0.1,0.3,0.5,0.7-0.1-0.2c0.3,0.4,0.4,1,0.5,1.5
		c0.4,1.2,0.7,2.4,0.8,3.7c-0.1-1.1,0-0.3,0-0.1c0,0.3,0,0.7,0.1,1c0,0.5,0,1,0,1.5c0,0.2,0,0.7-0.1,0.9c0-0.1,0.2-1.2,0-0.3
		c0,0.2-0.3,1.6-0.4,1.6c0,0,0.6-1.1,0.1-0.2c-0.1,0.2-0.2,0.4-0.3,0.6c-0.3,0.5-0.3,0,0.3-0.3c-0.1,0-0.3,0.3-0.4,0.4
		c-0.5,0.6,0.2-0.3,0.4-0.3c0,0-0.4,0.2-0.5,0.3c0.4-0.4,1.1-0.4,0.3-0.2c-0.9,0.3,0.2-0.1,0.4,0c-0.2-0.1-1,0-1.2,0
		c-0.5,0-0.9,0-1.4,0c-1.3,0-2.7,0-4-0.1c-0.2,0-0.5-0.1-0.8-0.1c0.2,0,1.2,0.3,0.4,0c0,0-0.5-0.2-0.6-0.2c0.4-0.2,0.9,0.5,0.4,0.1
		c0,0-0.5-0.3-0.5-0.4l0.5,0.4c-0.1-0.1-0.3-0.2-0.4-0.4c-0.2-0.2-0.3-0.4-0.5-0.6c-0.4-0.5,0.5,0.8,0,0c-0.3-0.5-0.5-0.9-0.8-1.3
		c-0.1-0.2-0.4-0.8-0.1-0.2c0.4,0.7-0.1-0.3-0.2-0.4c-0.4-1.1-0.9-2.4-0.9-3.5c0,0.2,0.1,1,0,0.1c0-0.3,0-0.6-0.1-0.8
		c0-0.5,0-1.1,0-1.7c0-0.3,0-0.5,0.1-0.8c0.1-1.3-0.2,0.7,0-0.1c0.1-0.6,0.2-1.1,0.4-1.7c0-0.1,0.5-1.2,0.1-0.4
		c-0.3,0.7,0.1-0.2,0.2-0.3c0.1-0.2,0.2-0.4,0.3-0.6c0.5-0.9-0.7,0.7,0,0c0.1-0.1,0.3-0.3,0.4-0.4c0.3-0.3,0.3-0.3,0,0
		c-0.3,0.2-0.6,0.4-0.9,0.5c0.9-0.3-0.3,0.1-0.5,0c0,0,0.6,0,0.6,0c1.1,0,2.2,0.2,3.3,0.2c1.3-0.1,2.5,0,3.8,0c2.6,0.1,5.1-2.4,5-5
		c-0.1-2.8-2.2-4.9-5-5c-1.4-0.1-2.7,0-4.1,0c-1.1,0-2.3-0.2-3.4-0.2c-3.7,0.1-6.7,2.6-8.3,5.8c-3.1,6.2-2.5,14.2,0.8,20.2
		c1.6,2.9,4.3,5.6,7.7,6.5c2.9,0.7,6.1,0.5,9,0.6c3.5,0.1,6.5-1.7,8.4-4.6c1.7-2.6,2.3-6.1,2.2-9.2c-0.2-7.4-3.3-16.3-11-18.8
		c-2.5-0.8-5.6,1-6.2,3.5C76.7,96.7,78.2,99.2,80.9,100.1L80.9,100.1z"/>
	<path class="st0" d="M76.7,94.7c-2.5,0.4-4,2.8-4.8,5c-0.6,1.8-0.9,3.9-0.8,5.8c0.1,1.9,0.4,3.9,1,5.7c0.6,1.8,1.3,3.6,2.4,5.1
		c1.4,2.1,3.3,3.6,5.9,3.8c2.4,0.1,4.7-1.4,5.8-3.5c1.9-3.6,1.6-8.2,0.8-12c-0.2-0.9-0.5-1.8-0.8-2.6c-0.5-1.2-0.9-2.4-1.6-3.5
		c-1.5-2.2-3.8-4.2-6.6-4c-1.3,0.1-2.6,0.5-3.5,1.5c-0.9,0.9-1.5,2.3-1.5,3.5c0.1,2.6,2.2,5.2,5,5c0.2,0,0.3,0,0.5,0l-1.3-0.2
		c0.2,0,0.3,0.1,0.4,0.1l-1.2-0.5c0.2,0.1,0.3,0.2,0.4,0.3l-1-0.8c0.3,0.2,0.5,0.4,0.7,0.7l-0.8-1c0.5,0.7,0.9,1.5,1.3,2.4l-0.5-1.2
		c0.6,1.4,1,2.9,1.2,4.5l-0.2-1.3c0.2,1.4,0.2,2.9,0,4.3l0.2-1.3c-0.1,0.7-0.2,1.4-0.5,2.1l0.5-1.2c-0.1,0.2-0.2,0.4-0.3,0.6l0.8-1
		c-0.1,0.1-0.2,0.2-0.3,0.3l1-0.8c-0.1,0.1-0.2,0.1-0.3,0.2l1.2-0.5c-0.1,0-0.2,0.1-0.2,0.1l1.3-0.2c-0.1,0-0.2,0-0.4,0l1.3,0.2
		c-0.1,0-0.2,0-0.2-0.1l1.2,0.5c-0.2-0.1-0.3-0.2-0.5-0.3l1,0.8c-0.3-0.2-0.5-0.5-0.8-0.8l0.8,1c-0.6-0.8-1.1-1.8-1.5-2.7l0.5,1.2
		c-0.6-1.4-1-2.9-1.3-4.4l0.2,1.3c-0.2-1.2-0.1-2.4,0-3.5l-0.2,1.3c0.1-0.9,0.3-1.7,0.6-2.5l-0.5,1.2c0.1-0.2,0.2-0.4,0.3-0.6
		l-0.8,1c0.1-0.1,0.2-0.2,0.3-0.3l-1,0.8c0.1-0.1,0.2-0.1,0.3-0.2l-1.2,0.5c0.1,0,0.2,0,0.2-0.1c1.2-0.2,2.4-1.3,3-2.3
		c0.6-1.1,0.9-2.7,0.5-3.9c-0.4-1.2-1.1-2.4-2.3-3C79.3,94.5,78.1,94.5,76.7,94.7L76.7,94.7z"/>
	<path class="st0" d="M92.8,98.4c0.4-0.8,0.9-1.4,1.5-1.7c0.6-0.3,1.2-0.5,1.9-0.7c-0.5-0.3-1.1-0.6-1.9-1c-0.7-0.4-1.4-0.8-2.1-1.3
		c-0.7-0.5-1.3-1-1.8-1.6c-0.5-0.6-0.8-1.2-0.9-1.9c-0.1-0.7-0.1-1.4-0.1-2.2c0.1-0.8,0.2-1.5,0.4-2.2c0.2-0.7,0.6-1.3,1-1.8
		c0.4-0.5,1-0.8,1.6-0.9c0.7-0.1,1.4-0.2,2.4-0.2c0.9,0,1.9,0,2.9,0.1c1,0,2.1,0.1,3.1,0.2c1,0.1,2,0.1,3,0.1c0,0,0.1-0.1,0.3-0.2
		c0.1-0.1,0.4-0.2,0.7-0.3c0.2,0,0.4-0.1,0.7-0.1c0.3,0,0.6,0,1,0c0.3,0,0.6,0.1,0.9,0.3c0.2,0.2,0.4,0.4,0.5,0.8
		c0.1,0.6,0.1,1.2,0,1.9c-0.1,0.7-0.3,1.4-0.5,2.1c-0.3,0.7-0.6,1.2-1,1.7c-0.4,0.5-0.9,0.8-1.4,0.9c-0.2,0-0.5,0-0.7-0.1
		c-0.2-0.1-0.7-0.2-1.3-0.4c-2.7-0.7-4.3-1-5-0.9c-0.6,0.1-0.9,0.5-0.8,1.1c0,0.3,0.4,0.6,0.9,1c0.6,0.4,1.2,0.8,1.9,1.1
		c0.7,0.4,1.3,0.7,2,1c0.6,0.3,1.1,0.5,1.3,0.5c1.4,0.6,2.5,1.3,3.4,2c0.9,0.7,1.7,1.4,2.3,2.2c0.6,0.8,1.1,1.7,1.4,2.6
		c0.4,0.9,0.6,2,0.9,3.1c0.2,0.9,0.2,2,0,3.2c-0.2,1.3-0.5,2.5-1.1,3.6c-0.6,1.2-1.4,2.2-2.5,3.1c-1.1,0.9-2.5,1.4-4.2,1.7
		c-1.1,0.2-2.3,0.2-3.6,0.1c-1.3-0.1-2.6-0.4-3.8-0.8c-1.2-0.4-2.2-1.1-3.1-1.9c-0.9-0.8-1.5-1.9-1.7-3.1c-0.2-1.1-0.3-2.2-0.3-3.3
		c0-1.1,0.1-2.1,0.3-3c0.2-1,0.4-1.9,0.7-2.7C92.2,99.8,92.5,99.1,92.8,98.4L92.8,98.4z M102.7,111.9c0.4-0.4,0.7-0.9,1-1.4
		c0.2-0.5,0.4-1.1,0.5-1.7c0.1-0.6,0.1-1.2,0.1-1.8c0-0.6-0.1-1.2-0.2-1.7c-0.1-0.3-0.2-0.7-0.4-1.2c-0.2-0.5-0.5-1-0.8-1.5
		c-0.3-0.5-0.7-1-1.1-1.5c-0.4-0.5-0.8-0.9-1.2-1.2c-0.5,0.3-1,0.7-1.4,1.3c-0.4,0.6-0.7,1.3-1,2.1c-0.3,0.8-0.4,1.7-0.5,2.6
		c-0.1,0.9,0,1.8,0.2,2.6c0.2,0.9,0.7,1.7,1.7,2.3C100.4,111.5,101.5,111.8,102.7,111.9L102.7,111.9z"/>
	<path class="st0" d="M97.1,101c0.3-0.6,0.1-0.1-0.2,0.1c0.6-0.6-0.7,0.4-0.2,0.1c0.5-0.3-0.8,0.2-0.1,0c0.3-0.1,0.6-0.2,1-0.3
		c4-1.1,5-7.1,1.2-9.1c-0.7-0.4-1.5-0.8-2.2-1.2c-0.4-0.2-0.7-0.4-1.1-0.7c-0.2-0.1-0.3-0.2-0.5-0.4c-0.6-0.4,0.5,0.5,0,0
		c-0.3-0.3-0.6-0.6-0.9-0.8c-0.4-0.4,0.2,0.2,0.2,0.3c-0.3-0.3,0-0.4,0,0c0,0.4,0.1,0.3,0.1,0c0,0.1,0,0.8,0.1,0.3
		c0-0.2,0-0.5,0-0.7c0-0.4,0.1-0.6,0-0.1c0.1-0.3,0.1-0.6,0.2-0.9c0-0.1,0.3-0.7,0-0.2c-0.2,0.5,0.1-0.1,0.1-0.2
		c0.2-0.3,0.4-0.3,0.1-0.1c-0.4,0.2-1,0.7-1.4,0.9c0.1-0.1,0.8-0.1,0.1,0c-0.7,0.1,0.7,0,0.9,0c1.8-0.1,3.6,0,5.4,0.1
		c2.1,0.1,4.9,0.7,6.7-0.5c0.6-0.4-1.2,0.3-0.3,0.1c-0.3,0.1-0.8-0.1-0.3,0.1c0.6,0.2-0.2-0.1-0.3-0.1l-1.3-1.7
		c-1-1.9-1.4-2.4-1.3-1.5c0,0.2,0,0.4,0,0.6c0,0.1-0.1,0.8,0,0.2c0.1-0.6-0.1,0.3-0.1,0.4c-0.1,0.2-0.1,0.4-0.2,0.6
		c0.2-0.9,0.1-0.3,0,0c0,0-0.4,0.7,0,0.1c0.3-0.5,0,0-0.1,0.1c0.7-0.6,0.5-0.4,1.7-0.6c2.3-0.3,1.5,0,1.1-0.3
		c-0.4-0.2-0.9-0.2-1.3-0.3c-1.7-0.4-3.5-0.8-5.2-1C96.4,83.9,94,85,92.9,87c-1.8,3.1-0.3,6.3,2.3,8.3c1.5,1.1,3.1,1.9,4.8,2.6
		c0.5,0.2,1.3,0.4,1.6,0.7c0,0-1.1-0.5-0.5-0.2c0.2,0.1,0.4,0.2,0.6,0.3c0.4,0.2,0.7,0.4,1,0.6c0.2,0.1,0.3,0.2,0.5,0.3
		c0.1,0.1,0.8,0.5,0.3,0.2c-0.5-0.3,0,0,0.1,0.1c0.2,0.1,0.3,0.3,0.5,0.4c0.3,0.3,0.5,0.6,0.8,0.9c0.4,0.4-0.2-0.2-0.2-0.2
		c0.1,0.2,0.2,0.4,0.3,0.5c0.2,0.3,0.6,1.4,0.3,0.5c0.3,0.8,0.5,1.5,0.7,2.3c0,0.2,0.1,0.4,0.1,0.6c0.2,0.6-0.1-0.4,0-0.4
		c-0.1,0.1,0,1.2,0,1.4c0,0.2,0,0.4,0,0.7c0-0.1,0.2-0.8,0-0.2c-0.1,0.5-0.2,1-0.4,1.4c0,0.1-0.3,0.7-0.1,0.2
		c0.2-0.5-0.1,0.1-0.1,0.2c-0.1,0.2-0.2,0.3-0.3,0.5c-0.1,0.1-0.5,0.8-0.2,0.3c0.3-0.5,0,0-0.1,0.1c-0.1,0.1-0.3,0.3-0.4,0.4
		c-0.1,0.1-0.4,0.4-0.5,0.4c0,0,0.8-0.5,0.3-0.2c-0.3,0.2-0.6,0.4-0.9,0.5c-0.5,0.3,0.3-0.2,0.3-0.1c0,0.1-0.7,0.2-0.8,0.2
		c-0.2,0.1-0.4,0.1-0.6,0.1c-0.7,0.2,0.8,0,0.1,0c-0.5,0-1,0.1-1.5,0.1c-0.6,0-1.1-0.1-1.6-0.1c-0.6,0,0.2,0,0.3,0
		c-0.3-0.1-0.6-0.1-0.8-0.2c-0.5-0.1-0.9-0.3-1.4-0.4c-0.5-0.1,0.1,0.1,0.2,0.1c-0.2-0.1-0.5-0.2-0.7-0.4c-0.2-0.1-0.3-0.2-0.5-0.3
		c-0.6-0.3,0.5,0.5,0,0c-0.1-0.1-0.3-0.3-0.4-0.4c-0.6-0.6,0.2,0.1,0.1,0.2c0,0-0.2-0.4-0.3-0.5c-0.3-0.4,0.2,0.9,0,0
		c0-0.2-0.1-0.4-0.1-0.6c-0.2-0.7,0,0.7,0-0.1c0-0.5-0.1-1.1-0.1-1.6c0-0.2,0-0.5,0-0.7c0-0.1,0.1-1.1,0-0.4c-0.1,0.6,0-0.1,0-0.2
		c0.1-0.3,0.1-0.6,0.2-0.8c0.1-0.5,0.2-0.9,0.4-1.4c0.1-0.5,0.3-0.9,0.5-1.3c0-0.1,0.3-0.8,0.1-0.2C96.6,102.1,97.1,101,97.1,101
		c1.1-2.4,0.7-5.5-1.8-6.8c-2.2-1.2-5.6-0.7-6.8,1.8c-1.7,3.5-2.9,7.5-2.7,11.4c0.1,2.2,0.5,4.3,1.4,6.3c1,1.9,2.6,3.4,4.4,4.5
		c3.4,2.1,7.8,2.8,11.7,2.3c4.4-0.5,8-2.5,10.5-6.2c4.4-6.6,2.7-16.7-3.3-21.7c-1.4-1.1-2.8-2.1-4.4-2.8c-0.6-0.3-2.8-1.3-0.7-0.3
		c-0.3-0.1-0.6-0.3-0.9-0.4c-0.9-0.4-1.9-0.9-2.8-1.4c-0.2-0.1-0.5-0.3-0.7-0.4l-0.3-0.2c2.4,1.5,1.6,3.9-2.5,7.2c0.2,0,0.4,0,0.5,0
		c0.9,0-1.4-0.3-0.4-0.1c1.5,0.3,3,0.6,4.5,1c6.2,1.8,9.9-4.5,10.2-9.7c0.2-3.2-1.2-6.2-4.4-7.2c-2.4-0.8-4.9-0.3-7.1,0.9l2.5-0.7
		c-2.9-0.1-5.8-0.3-8.6-0.3c-1.6,0-3.3,0-4.8,0.6c-2.1,0.8-3.8,2.4-4.7,4.4c-1.6,3.4-2,8,0.1,11.3c1.9,2.9,4.9,4.7,7.9,6.2l1.2-9.1
		c-2.8,0.7-5,2.1-6.4,4.6c-1.3,2.3-0.6,5.6,1.8,6.8C92.6,104,95.8,103.4,97.1,101L97.1,101z"/>
	<path class="st0" d="M106.2,115.4c1.3-1.4,2.3-3.1,2.7-5c0.5-2.1,0.4-4.1,0-6.2c-0.1-0.9-0.5-1.7-0.9-2.5c-0.3-0.6-0.6-1.2-0.9-1.7
		c-0.4-0.6-0.9-1.2-1.3-1.8c-0.5-0.7-1-1.3-1.7-1.8l-1-0.8c-0.6-0.4-1.2-0.6-1.9-0.6c-1.1-0.2-2.2,0-3.2,0.6
		c-2.3,1.3-3.6,3.5-4.5,5.9c-0.7,1.8-1,4-0.9,5.9c0.2,2.5,0.9,5,2.8,6.7c2.1,1.8,4.4,2.6,7.1,2.8
		C103.9,116.9,105.4,116.2,106.2,115.4c0.9-0.9,1.5-2.3,1.5-3.5c-0.1-1.3-0.5-2.6-1.5-3.5c-1-0.9-2.2-1.4-3.5-1.5
		c-0.2,0-0.4,0-0.6-0.1l1.3,0.2c-0.5-0.1-1-0.2-1.5-0.4l1.2,0.5c-0.5-0.2-0.9-0.5-1.3-0.8l1,0.8c-0.3-0.2-0.5-0.5-0.8-0.7l0.8,1
		c-0.2-0.2-0.3-0.5-0.4-0.7l0.5,1.2c-0.2-0.4-0.2-0.8-0.3-1.3l0.2,1.3c-0.1-1-0.1-1.9,0-2.9l-0.2,1.3c0.1-0.8,0.3-1.7,0.7-2.5
		l-0.5,1.2c0.3-0.6,0.6-1.2,0.9-1.7l-0.8,1c0.2-0.3,0.5-0.5,0.8-0.8l-1,0.8c0.1-0.1,0.3-0.2,0.4-0.3l-6.1-0.8
		c0.5,0.4,0.9,0.8,1.3,1.3l-0.8-1c0.8,1,1.4,2.1,1.9,3.3l-0.5-1.2c0.2,0.5,0.3,0.9,0.4,1.4l-0.2-1.3c0.1,0.8,0.1,1.6,0.1,2.4
		l0.2-1.3c-0.1,0.7-0.3,1.4-0.6,2.1l0.5-1.2c-0.2,0.4-0.4,0.7-0.6,1l0.8-1c-0.1,0.2-0.2,0.3-0.4,0.4c-0.9,1-1.5,2.2-1.5,3.5
		c0,1.2,0.5,2.7,1.5,3.5c1,0.9,2.2,1.5,3.5,1.5C104,116.8,105.3,116.4,106.2,115.4L106.2,115.4z"/>
	<path class="st0" d="M124.7,87.4c1.7,0.4,3.2,1.6,4.4,3.6c1.1,1.8,1.9,4.1,2.4,6.7c0.7,3.6,0.6,6.8-0.3,9.6c-0.9,3-2.5,4.5-4.8,4.6
		c-0.8,0-2.1,0-3.7,0c-1.2,0.1-2.3,0.1-3.3,0c-1.7-0.1-3.3-1-4.6-2.8c-1.3-1.7-2.1-3.8-2.7-6.4c-0.5-2.6-0.5-5.2,0-7.7
		c0.6-2.7,1.7-4.9,3.4-6.3c0.3-0.2,0.7-0.4,1.2-0.5c0.6-0.1,1.7-0.2,3.5-0.2C121.4,87.7,122.9,87.5,124.7,87.4L124.7,87.4z
		 M120.5,92.3c-0.8,0.2-1.3,1.2-1.7,3.2c-0.3,1.9-0.4,3.7-0.1,5.2c0.4,1.9,0.9,3.6,1.8,5.3c0.9,1.8,1.8,2.7,2.5,2.7
		c1,0,1.6-1,1.9-3.2c0.3-2.1,0.2-4.3-0.2-6.7c-0.3-1.4-0.7-2.7-1.3-3.9C122.6,92.9,121.6,92.1,120.5,92.3z"/>
	<path class="st0" d="M123.4,92.2c0,0,0.6,0.2,0.6,0.2c-0.2,0.2-1-0.5-0.3-0.1c0,0,0.6,0.3,0.5,0.3c0,0-0.8-0.7-0.1,0
		c0.2,0.2,0.3,0.4,0.5,0.5c0.5,0.5-0.4-0.7-0.1-0.1c0.3,0.5,0.6,0.9,0.9,1.5c0.1,0.2,0.2,0.4,0.3,0.7c0.5,0.9,0-0.1-0.1-0.1
		c0.3,0.2,0.5,1.5,0.6,1.7c0.2,0.5,0.3,1.1,0.4,1.7c0.1,0.3,0.1,0.6,0.2,0.9c0.1,0.4,0.1,1,0.1,0.3c0.1,1.2,0.2,2.4,0.1,3.7
		c0,0.3-0.1,0.5-0.1,0.8c0,0.7,0.2-0.9,0-0.1c-0.1,0.6-0.2,1.1-0.4,1.7c-0.1,0.3-0.2,0.5-0.2,0.7c-0.3,1,0.1-0.1,0.1-0.2
		c0,0-0.9,1.8-0.5,0.9c0.3-0.6,0.1-0.1-0.1,0c-0.5,0.4,0.9-0.6,0.4-0.3c-0.2,0.1-0.7,0.3,0,0.1c0.8-0.2,0,0-0.2,0
		c-0.7,0.3,0.4-0.1,0.5,0c-0.1-0.1-0.5,0-0.6,0c-0.4,0-0.9,0-1.3,0c-1.2,0-2.4,0.1-3.6,0.1c-0.3,0-0.7,0-1,0l-0.2,0
		c-0.5,0-0.5,0,0,0l0.3,0.1c-0.2,0-0.3-0.1-0.5-0.1c-0.7-0.2-0.1-0.1-0.2,0l0.3,0.1c-0.2-0.1-0.3-0.2-0.4-0.3
		c-0.6-0.3,0.6,0.6,0.2,0.1c-0.2-0.2-0.4-0.3-0.5-0.5c-0.1-0.1-0.3-0.3-0.4-0.5l0.3,0.4c-0.3-0.2-0.7-1-0.8-1.4
		c-0.1-0.2-0.2-0.4-0.3-0.7c-0.3-0.6,0.3,0.8,0.1,0.1c-0.4-1.2-0.7-2.4-0.9-3.7c-0.1-0.8,0,0.7,0-0.1c0-0.3,0-0.6-0.1-0.9
		c0-0.6,0-1.2,0-1.8c0-0.3,0.1-0.6,0.1-0.9c0-0.8-0.2,0.8,0,0c0.1-0.7,0.3-1.4,0.5-2c0.1-0.2,0.2-0.5,0.2-0.7c0.2-0.6-0.4,0.8,0,0
		c0.2-0.4,0.9-1.1,0.9-1.5c0,0.2-0.8,0.8-0.1,0.2c0.3-0.3,1-0.7-0.1-0.1c-0.2,0.1-1.1,0.4-0.2,0.1c0.7-0.2-1.2,0.1-0.6,0.1
		c1.5,0,2.9-0.1,4.4-0.3c0.2,0,0.4-0.1,0.6-0.1c1.1-0.2-1.2,0.1,0.1,0c0.7-0.1,1.4-0.1,2.1-0.2c2.6-0.2,5.1-2.2,5-5
		c-0.1-2.6-2.2-5.2-5-5c-1.7,0.1-3.4,0.3-5.1,0.6c-0.6,0.1,0,0.2,0.3-0.1c-0.1,0.1-1,0-1.2,0c-0.9,0-1.9,0.1-2.8,0.3
		c-3.3,0.6-5.7,3.4-7,6.2c-3,6.4-2.7,14.8,0.9,21c1.7,3,4.6,5.7,8.1,6.3c2.8,0.5,5.8,0.2,8.7,0.1c7.7-0.2,10.6-8.6,10.5-15.1
		c-0.2-7.2-3-17.2-11-19.1c-2.5-0.6-5.5,0.8-6.2,3.5C119.3,88.7,120.6,91.6,123.4,92.2L123.4,92.2z"/>
	<path class="st0" d="M119.2,87.5c-4.7,1.3-5.7,7.1-5.6,11.3c0.1,2,0.4,4.1,1.1,6c0.6,1.9,1.4,3.8,2.6,5.4c1.5,2,3.3,3.5,6,3.5
		c3,0,5.1-2.3,6.1-4.9c0.6-1.7,0.8-3.6,0.9-5.4c0-2.1-0.2-4.2-0.7-6.3c-0.2-0.9-0.5-1.8-0.8-2.7c-0.5-1.2-0.9-2.4-1.7-3.4
		c-0.8-1.1-1.7-2.2-2.9-2.8C122.5,87.3,120.9,87.2,119.2,87.5c-1.2,0.2-2.4,1.3-3,2.3c-0.6,1.1-0.9,2.7-0.5,3.9
		c0.4,1.2,1.1,2.4,2.3,3c1.2,0.7,2.5,0.8,3.9,0.5l0.2,0l-1.3,0.2c0.2,0,0.3,0,0.5,0l-1.3-0.2c0.2,0,0.3,0.1,0.4,0.1l-1.2-0.5
		c0.9,0.5-0.9-0.8-0.3-0.3c0.6,0.6-0.8-1.1-0.2-0.2c0.4,0.6,0.7,1.3,1,1.9L119,97c0.6,1.4,0.9,2.9,1.1,4.4L120,100
		c0.2,1.7,0.3,3.5,0,5.2l0.2-1.3c-0.1,0.7-0.3,1.5-0.5,2.2l0.5-1.2c-0.1,0.2-0.2,0.4-0.3,0.6c0.7-0.8,0.8-1,0.5-0.7
		c0.9-0.6,1.1-0.8,0.7-0.6l1.2-0.5c-0.1,0-0.2,0.1-0.4,0.1l1.3-0.2c-0.1,0-0.2,0-0.2,0l1.3,0.2c-0.1,0-0.2,0-0.2-0.1l1.2,0.5
		c-0.1,0-0.2-0.1-0.2-0.1c-0.5-0.4,0.8,0.8,0.6,0.4c-0.1-0.1-0.2-0.2-0.3-0.3c-0.3-0.3,0.7,1.1,0.3,0.4c-0.4-0.7-0.9-1.5-1.2-2.3
		l0.5,1.2c-0.6-1.5-1.1-3.1-1.4-4.8l0.2,1.3c-0.2-1.4-0.1-2.7,0-4.1l-0.2,1.3c0.1-0.9,0.3-1.8,0.6-2.6l-0.5,1.2
		c0.3-0.6,0.7-0.8-0.3,0.2c0.5-0.5-1.3,0.7-0.5,0.4l-1.2,0.5l0.1,0c2.5-0.7,4.3-3.6,3.5-6.2C124.5,88.4,121.9,86.7,119.2,87.5
		L119.2,87.5z"/>
	<path class="st0" d="M155.6,80.2c0.1,0.5,0.1,1,0.1,1.6c0,0.6,0,1.2-0.1,1.8c-0.1,0.6-0.2,1.1-0.3,1.5c-0.2,0.4-0.4,0.7-0.7,0.8
		c-0.7,0.2-1.5,0.3-2.3,0.4c-0.9,0.1-1.6,0.2-2.1,0.3c0.8,0.9,1.7,1.9,2.4,3.1c0.8,1.2,1.3,2.6,1.6,4.3c0.3,1.5,0.3,3,0,4.5
		c-0.3,1.5-0.8,3-1.5,4.3c-0.8,1.3-1.8,2.5-3,3.5c-1.2,1-2.7,1.6-4.4,2c-0.8,0.2-1.7,0.2-2.6,0.1c-0.9-0.1-1.8-0.4-2.7-0.7
		c-0.9-0.3-1.8-0.7-2.6-1.2c-0.9-0.5-1.6-1-2.3-1.5c-0.7-0.6-1.2-1.1-1.7-1.7c-0.4-0.6-0.7-1.1-0.8-1.6c-1-5.4-0.8-9.9,0.5-13.2
		c1.4-3.3,3.6-5.4,6.7-6.2c0.2,0,0.4-0.1,0.8-0.2c0.4-0.1,0.8-0.2,1.3-0.3c0.5-0.1,0.9-0.2,1.4-0.3c0.5-0.1,0.8-0.2,1.2-0.2
		c1.6-0.5,2.8-0.8,3.6-1.1c0.8-0.3,1.5-0.5,1.9-0.6c0.4-0.1,0.8-0.3,1-0.3c0.3-0.1,0.6-0.2,1.1-0.4c0.4-0.1,0.7-0.2,1.1-0.2
		c0.4,0,0.7,0,1.1,0.1c0.3,0.1,0.6,0.3,0.9,0.5C155.4,79.5,155.6,79.8,155.6,80.2L155.6,80.2z M142,88.1c-1.3,0.7-2.2,2.1-2.7,4.2
		c-0.5,2.1-0.4,4.7,0.2,8c0.1,0.5,0.3,0.9,0.6,1.3c0.3,0.4,0.8,0.7,1.2,1c0.5,0.3,1,0.6,1.6,0.7c0.6,0.2,1.1,0.3,1.6,0.4
		c0.4-0.5,0.8-1.1,1.1-1.9c0.3-0.8,0.6-1.7,0.8-2.7c0.2-1,0.3-2,0.4-3.1c0-1.1,0-2.2-0.2-3.3c-0.3-1.4-0.7-2.5-1.4-3.2
		C144.5,88.7,143.4,88.3,142,88.1L142,88.1z"/>
	<path class="st0" d="M150.8,81.5c-0.2-1.4,0,0.1,0,0.3c0,0.4,0,0.8,0,1.1c0,0.6-0.1,0.8,0,0.1c-0.1,0.5-0.1,0.5,0,0.1
		c0.3-1,1.1-1.6,2.2-2c-0.3,0-0.7,0.1-0.9,0.2c-0.6,0.1,0.9-0.1-0.1,0c-1,0.1-2,0.2-3,0.5c-3.8,0.9-4.7,5.7-2.2,8.4
		c0.2,0.3,0.5,0.5,0.7,0.8c0.1,0.1,0.6,0.8,0.3,0.3c-0.4-0.6,0.4,0.6,0.4,0.6c0.2,0.2,0.3,0.4,0.4,0.7c0.1,0.2,0.2,0.4,0.3,0.6
		c0.5,0.9-0.1-0.2-0.1-0.2c0.3,0.1,0.5,1.7,0.6,2c0.3,1.3,0-0.6,0,0.2c0,0.3,0,0.6,0,0.9c0,0.4,0,0.8,0,1.1c0,0.2-0.2,0.9,0,0
		c-0.1,0.6-0.2,1.1-0.4,1.6c-0.1,0.3-0.2,0.5-0.3,0.8c0.4-1.1,0,0.1-0.2,0.3c-0.2,0.3-0.3,0.6-0.5,0.9c-0.1,0.1-0.6,0.8-0.2,0.3
		c0.5-0.6-0.4,0.4-0.4,0.4c-0.2,0.2-0.4,0.4-0.6,0.6c-0.2,0.2-0.7,0.5,0,0c-0.2,0.1-0.4,0.3-0.7,0.4c-0.2,0.1-0.5,0.3-0.7,0.4
		c-0.9,0.5,0.7-0.1-0.3,0.1c-0.3,0.1-0.7,0.2-1,0.3c-0.7,0.3,0.8,0,0.1,0c-0.4,0-0.7,0-1.1,0c0.2,0,0.9,0.2,0,0
		c-0.6-0.2-1.2-0.3-1.8-0.5c-0.9-0.3-0.1-0.1,0,0c-0.4-0.2-0.8-0.4-1.1-0.6c-0.5-0.3-1.1-0.6-1.6-1c-0.3-0.2-1-0.5-0.1,0
		c-0.2-0.1-0.5-0.4-0.6-0.6c-0.2-0.2-0.4-0.4-0.6-0.6c-0.6-0.6,0,0,0.1,0.1c-0.7-0.9,0.1,0.3,0,0.3c-0.2-0.1-0.2-1-0.2-1.2
		c0,0-0.2-1.5-0.1-0.7c0.1,0.6,0-0.3,0-0.5c-0.1-0.6-0.1-1.3-0.1-1.9c0-0.5,0-1.1,0-1.6c0-0.5-0.1-1.5,0.1-1.9
		c-0.3,0.6-0.1,0.8,0,0.3c0.1-0.3,0.1-0.6,0.2-0.9c0.1-0.5,0.2-1,0.4-1.5c0-0.1,0.2-0.6,0.2-0.6c-0.1,0-0.4,0.9-0.1,0.2
		c0.3-0.5,0.6-1,0.9-1.6c0.5-0.8-0.2,0.2-0.2,0.2c0-0.2,0.4-0.5,0.6-0.6c0.2-0.2,0.4-0.4,0.6-0.6c0.6-0.5-0.2,0.3-0.2,0.2
		c0-0.1,1-0.6,1.1-0.7c0.8-0.5-0.3,0.2-0.3,0.1c0-0.1,0.8-0.3,1-0.3c2.5-0.7,5-1.1,7.5-1.8c1.1-0.3,2.2-0.7,3.3-1
		c0.5-0.2,1.3-0.3,1.7-0.6c0.5-0.4-0.8,0-0.2,0c0.4,0,0.3,0-0.4-0.1C151.9,83.1,151.2,82.5,150.8,81.5c0.7,2.5,3.6,4.3,6.2,3.5
		c2.6-0.8,4.2-3.4,3.5-6.2c-0.7-2.8-3-4.8-5.8-5.2c-2.1-0.3-3.8,0.4-5.8,1c-2.7,0.9-5.3,1.6-8,2.2c-3.3,0.7-6.3,1.8-8.7,4.2
		c-2.3,2.3-3.8,5.4-4.5,8.6c-0.8,3.7-0.6,7.3-0.1,11c0.3,1.8,0.6,3.5,1.7,5.1c1.3,1.8,2.9,3.2,4.7,4.4c3.2,2.1,7.3,3.7,11.1,3.3
		c4-0.4,7.9-2.5,10.4-5.6c2.9-3.6,4.5-8.2,4.1-12.8c-0.5-4.7-2.4-8.4-5.6-11.8l-2.2,8.4c0.4-0.1,1.4-0.3,0.4-0.1
		c0.9-0.2,1.9-0.2,2.8-0.4c1.9-0.3,3.6-1.2,4.7-2.8c1.7-2.7,1.5-6.2,1.1-9.3c-0.4-2.6-3.8-4.3-6.2-3.5
		C151.5,76.3,150.4,78.8,150.8,81.5L150.8,81.5z"/>
	<path class="st0" d="M139.5,83.7c-3.5,2.1-4.9,5.9-5.4,9.8c-0.2,1.4-0.1,2.8,0,4.2c0.1,1.2,0.3,2.3,0.5,3.5
		c0.2,1.4,0.9,2.6,1.8,3.7c1.4,1.6,3.4,2.7,5.4,3.4c1.9,0.6,4,0.7,5.7-0.6c0.9-0.7,1.6-1.7,2.1-2.8c1.8-3.8,2.4-8,1.8-12.1
		c-0.3-2.4-1.1-4.6-2.7-6.5c-1.4-1.6-3.5-2.6-5.5-2.9C142,83,140.7,83,139.5,83.7c-1,0.6-2,1.8-2.3,3c-0.3,1.3-0.2,2.7,0.5,3.9
		c0.7,1,1.7,2.1,3,2.3c0.6,0.1,1.1,0.2,1.7,0.4l-1.2-0.5c0.4,0.2,0.7,0.4,1.1,0.6l-1-0.8c0.3,0.2,0.5,0.4,0.7,0.7l-0.8-1
		c0.2,0.3,0.4,0.7,0.6,1.1l-0.5-1.2c0.3,0.8,0.5,1.6,0.6,2.4l-0.2-1.3c0.2,1.6,0.2,3.1,0,4.7l0.2-1.3c-0.2,1.3-0.5,2.5-1,3.8
		l0.5-1.2c-0.3,0.6-0.6,1.2-1,1.8l0.8-1l-0.1,0.2l3.5-1.5l-0.3,0l1.3,0.2c-0.6-0.1-1.2-0.3-1.8-0.5l1.2,0.5
		c-0.5-0.2-1.1-0.5-1.5-0.9l1,0.8c-0.3-0.3-0.7-0.6-0.9-0.9l0.8,1c-0.1-0.2-0.2-0.4-0.4-0.6l0.5,1.2c-0.2-0.7-0.3-1.5-0.4-2.2
		l0.2,1.3c-0.2-1.7-0.3-3.5-0.1-5.2l-0.2,1.3c0.1-0.9,0.4-1.8,0.7-2.7l-0.5,1.2c0.2-0.5,0.5-1,0.9-1.5l-0.8,1
		c0.2-0.3,0.5-0.6,0.8-0.8l-1,0.8c0.2-0.1,0.3-0.2,0.5-0.3c2.3-1.3,3.3-4.6,1.8-6.8C144.9,83.3,141.9,82.3,139.5,83.7L139.5,83.7z"
		/>
	<path class="st0" d="M177.6,102.7c0.3,0.3,0.5,0.7,0.7,1c0.2,0.4,0.3,0.7,0.4,1.1c0.2,1.4-0.8,2.3-3,2.9c-0.5,0.1-1,0.2-1.6,0.1
		c-0.6,0-1.1-0.1-1.7-0.2c-0.5-0.1-1-0.3-1.4-0.6c-0.4-0.2-0.6-0.5-0.7-0.9c0-0.3,0-0.6,0-0.9c0.1-0.4,0.2-0.8,0.4-1.2
		c-0.2-1.3-0.4-2.6-0.7-3.8c-1.1,0.2-2.3,0.2-3.6,0.1c-1.3-0.1-2.5-0.5-3.6-1c-1.1-0.5-2.1-1.2-2.9-2.1c-0.8-0.9-1.4-2-1.6-3.3
		c-0.3-1.7-0.3-3.2-0.1-4.7c0.2-1.4,0.6-2.7,1.1-3.9c0.5-1.2,1.1-2.2,1.8-3.1c0.7-0.9,1.4-1.7,2.1-2.3c0.7-0.6,1.3-1.1,1.9-1.5
		c0.6-0.4,0.9-0.6,1.2-0.7c-0.4-2.3-0.8-4.6-1.2-7c-0.5-0.3-0.9-0.6-1.1-0.8c-0.2-0.3-0.4-0.5-0.4-0.9c-0.3-1.7,0.8-3,3.4-3.6
		c0.7-0.2,1.4-0.3,2-0.2c0.7,0,1.3,0.1,1.8,0.3c0.5,0.2,1,0.4,1.4,0.7c0.4,0.3,0.6,0.6,0.7,1.1c0.1,0.3-0.2,1.2-0.8,2.7
		c0.3,2,0.6,3.9,0.9,5.8c1.8-0.3,3.3-0.3,4.7-0.1c1.4,0.2,2.6,0.6,3.6,1.2c1,0.6,1.8,1.3,2.4,2.2c0.6,0.9,1,2,1.3,3.1
		c0.3,1.7,0.4,3.3,0.2,5c-0.2,1.6-0.6,3.2-1.2,4.6c-0.7,1.4-1.6,2.7-2.7,3.9c-1.2,1.2-2.6,2.1-4.3,2.7
		C177,99.7,177.3,101.2,177.6,102.7L177.6,102.7z M165.1,92.6c0.2,1.2,0.7,2.1,1.4,2.6c0.7,0.5,1.8,0.8,3.1,0.8
		c-0.7-4.2-1.5-8.5-2.2-12.7c-0.7,0.5-1.2,1.2-1.6,1.9c-0.4,0.8-0.6,1.6-0.8,2.5c-0.2,0.9-0.2,1.7-0.2,2.6
		C164.9,91.1,164.9,91.9,165.1,92.6L165.1,92.6z M175.7,93c0.7-0.5,1.2-1.1,1.6-1.9c0.4-0.8,0.6-1.6,0.8-2.5
		c0.1-0.9,0.2-1.8,0.1-2.8c0-1-0.1-1.9-0.3-2.8c-0.2-1.1-0.7-1.9-1.4-2.5c-0.7-0.6-1.7-0.7-3-0.3C174.3,84.5,175,88.8,175.7,93
		L175.7,93z"/>
	<path class="st0" d="M174,106.2c-0.3-0.4-0.3-0.5-0.1-0.2c0.1,0.3,0.1,0.2,0,0c0-0.2-0.1-1.5-0.2-0.7c0-0.7,0.2-1.4,0.6-2
		c0.1-0.2,0.3-0.4,0.5-0.5c0.4-0.3,0.4-0.3,0-0.1l-0.3,0.1l0.5-0.2c0.1,0.3-1.4,0-0.5,0.2c0.8,0.1-0.3,0-0.5,0l-0.4,0
		c0.6,0.1,0.7,0.1,0.3,0c-0.3-0.1-1-0.4-0.1,0.1l-0.3-0.2l1.8,3.2c-0.2-0.9-0.1,0.7,0,0.3c0.1-0.3,0-0.2-0.2,0.4l0.5-1.2
		c0.5-1.9-0.3-4.5-0.7-6.5c-0.5-2.9-3.7-3.9-6.2-3.5c0.7-0.1,0.3,0-0.2,0c-0.3,0-0.6,0-0.9,0c-0.4,0-0.8,0-1.2-0.1
		c0.5,0.1,0.6,0.1,0.1,0c-0.3-0.1-0.5-0.1-0.8-0.2c0,0-1.2-0.4-0.6-0.2c0.6,0.2-0.2-0.1-0.3-0.2c-0.3-0.2-0.6-0.4-0.9-0.5
		c0.4,0.2,0.5,0.4,0.1,0c-0.2-0.2-0.5-0.5-0.7-0.7c-0.4-0.4,0.3,0.7,0.1,0.1c-0.4-1-0.2,0,0,0c0,0-0.2-0.7-0.2-0.7
		c0-0.1-0.2-1.3-0.1-0.6c0.1,0.6,0-0.3,0-0.4c0-0.4,0-0.7,0-1.1c0-0.3,0-0.5,0-0.8c0-0.7-0.1-0.2,0,0.1c-0.1-0.4,0.3-1.4,0.4-1.8
		c0.1-0.3,0.2-0.6,0.3-0.9c0.2-0.5,0.1-0.3,0,0.1c0.3-0.5,0.5-1.1,0.9-1.6c0.2-0.3,0.4-0.5,0.5-0.8c-0.3,0.4-0.2,0.3,0-0.1
		c0.4-0.5,0.9-1,1.3-1.4c0.3-0.3,0.5-0.5,0.8-0.7c0.6-0.5-0.1-0.1-0.1,0.1c0.1-0.3,1.2-0.8,1.4-0.9c2.1-1,2.7-3.6,2.3-5.6
		c-0.2-1.3-0.5-2.6-0.7-4c-0.3-1.8-0.4-3.9-1.8-5.2l-1-0.8c-0.4-0.3-0.5-0.3-0.1,0c0.4,0.6,0.6,0.7,0.8,1.6c0.2,0.9,0.2,1.1,0.2,0.7
		c0-0.3,0-0.2-0.1,0.3c-0.2,1,0.3-0.3-0.2,0.6c-0.1,0.2-1,1.3-0.5,0.8l-0.6,0.4l0.3-0.2c0.5,0,0-0.2-0.3,0.1
		c0.2-0.2,0.7-0.2,0.9-0.3c0.1,0,1-0.2,0.4-0.1c-0.6,0.1,0.2,0,0.3,0c0.1,0,1,0,0.3,0c-0.8-0.1,0.2,0.1,0.4,0.1
		c-0.4-0.1-0.5-0.4-0.1,0c-0.9-0.9-1.4-1.6-1.5-2.9c0-0.1,0.3-1.4,0.1-0.8c-0.1,0.2-0.1,0.5-0.2,0.7c-0.2,0.7-0.5,1.3-0.6,2
		c-0.2,1.1,0.1,2.3,0.3,3.5c0.2,1.5,0.4,2.9,0.7,4.4c0.2,1.1,1.3,2.5,2.3,3c1.3,0.7,2.4,0.7,3.9,0.5c-0.7,0.1-0.1,0,0.3,0
		c0.3,0,0.6,0,0.9,0c0.3,0,1.6-0.2,1.8,0.1c-0.6-0.1-0.7-0.1-0.3,0c0.1,0,0.3,0,0.4,0.1c0.3,0.1,0.6,0.2,0.9,0.3
		c0.7,0.2,0.1-0.1-0.2-0.1c0.2,0,0.6,0.3,0.8,0.4c0.1,0.1,0.2,0.1,0.3,0.2c0.3,0.2,0.2,0.1-0.3-0.2c0,0,0.5,0.5,0.5,0.5
		c0.6,0.6-0.2-0.5,0,0c0.1,0.2,0.2,0.5,0.4,0.6c0.3,0.4-0.2-0.9,0,0c0.1,0.3,0.1,0.5,0.2,0.7c0,0,0.2,1.2,0.1,0.6
		c-0.1-0.6,0,0.7,0,0.7c0,0.7,0,1.3,0,2c0,0.1-0.1,1,0,0.4c0.1-0.7-0.1,0.5-0.1,0.6c-0.1,0.6-0.4,1.2-0.5,1.9
		c-0.2,0.7,0.5-0.9-0.1,0.2c-0.1,0.2-0.2,0.5-0.4,0.7c-0.2,0.3-0.3,0.6-0.5,0.8c-0.2,0.2-0.8,0.8-0.1,0.1c-0.4,0.4-0.8,0.9-1.2,1.3
		c-0.1,0.1-0.8,0.6-0.2,0.2c0.6-0.4-0.3,0.2-0.4,0.3c-0.2,0.1-0.5,0.3-0.7,0.4c-0.2,0.1-1.4,0.6-0.3,0.2c-2.7,1.1-4,3.2-3.5,6.2
		c0.3,1.5,0.5,3,0.8,4.5c0.4,2.6,3.8,4.3,6.2,3.5c2.8-0.9,4-3.4,3.5-6.2c-0.3-1.5-0.5-3-0.8-4.5l-3.5,6.2c3.9-1.6,7.1-4,9.3-7.7
		c2.1-3.5,3-7.9,2.6-12c-0.4-4.5-2.1-8.4-6-10.9c-3.7-2.4-8.3-2.4-12.5-1.7l6.2,3.5c-0.3-1.9-0.6-3.9-0.9-5.8v2.7
		c0.5-1.2,1-2.4,1-3.8c0.1-1.8-0.8-3.5-2-4.8c-2.5-2.6-6.7-2.9-10-2.2c-3.1,0.7-5.9,2.6-7,5.7c-1.2,3.5,0.6,7,3.7,8.8l-2.3-3
		c0.4,2.3,0.8,4.7,1.2,7l2.3-5.6c-3.2,1.5-6.1,4.8-7.9,7.8c-1.9,3.3-2.9,7.2-2.7,11c0.2,2.2,0.5,4.3,1.6,6.3
		c0.9,1.8,2.6,3.3,4.3,4.4c3.7,2.5,8.3,2.9,12.5,2.2l-6.2-3.5c0.2,1.3,0.4,2.6,0.7,3.8l0.5-3.9c-1.5,3.5-1.7,7.3,1.8,9.7
		c2.4,1.6,5.6,2,8.4,1.4c2.4-0.5,4.9-1.8,6.2-4.1c1.8-3.2,0.5-6.7-1.8-9.3c-1.7-2-5.3-1.9-7.1,0C172.1,101.3,172.2,104.1,174,106.2
		L174,106.2z"/>
	<path class="st0" d="M160.2,93.9c0.4,2.3,1.8,4.3,3.7,5.6c1.7,1.1,3.7,1.5,5.7,1.5c1.6,0,3-0.8,3.9-2c1-1.3,1.2-2.7,0.9-4.4
		c-0.7-4.2-1.5-8.5-2.2-12.7c-0.3-1.5-1.6-2.7-2.9-3.2c-1.3-0.6-3.2-0.7-4.4,0.3c-1.3,1-2.4,1.9-3.2,3.4c-0.6,1.1-1.1,2.3-1.4,3.6
		C159.7,88.6,159.8,91.2,160.2,93.9c0.2,1.2,1.3,2.4,2.3,3c1.1,0.6,2.7,0.9,3.9,0.5c1.2-0.4,2.4-1.1,3-2.3c0.7-1.3,0.7-2.5,0.5-3.9
		c0-0.2-0.1-0.4-0.1-0.6L170,92c-0.2-1.3-0.2-2.6,0-3.9l-0.2,1.3c0.1-0.9,0.3-1.7,0.7-2.5l-0.5,1.2c0.2-0.5,0.5-0.9,0.8-1.4l-0.8,1
		c0.3-0.3,0.5-0.6,0.8-0.8l-1,0.8l0.2-0.1l-7.3-3c0.7,4.2,1.5,8.5,2.2,12.7l4.8-6.3c-0.4,0-0.7,0-1.1-0.1l1.3,0.2
		c-0.4-0.1-0.9-0.2-1.3-0.3l1.2,0.5c-0.3-0.1-0.6-0.3-0.9-0.5l1,0.8c-0.2-0.1-0.3-0.3-0.5-0.5l0.8,1c-0.2-0.3-0.4-0.6-0.5-0.9
		l0.5,1.2c-0.1-0.4-0.3-0.8-0.3-1.2c-0.2-1.2-1.3-2.4-2.3-3c-1.1-0.6-2.7-0.9-3.9-0.5c-1.2,0.4-2.4,1.1-3,2.3
		C160.1,91.3,160,92.5,160.2,93.9L160.2,93.9z"/>
	<path class="st0" d="M178.3,97.4c1.3-0.9,2.2-1.8,3.1-3.2c0.6-1,1-2.1,1.3-3.1c0.6-2.1,0.7-4.4,0.5-6.5c-0.1-1.2-0.2-2.4-0.6-3.6
		c-0.5-1.4-1.1-2.6-2.2-3.7c-2.2-2.2-5.3-2.7-8.2-1.9c-1.2,0.3-2.4,1.2-3,2.3c-0.7,1.3-0.7,2.5-0.5,3.9c0.7,4.3,1.5,8.6,2.2,12.8
		c0.2,1.2,1.3,2.4,2.3,3c1.1,0.6,2.7,0.9,3.9,0.5c1.2-0.4,2.4-1.1,3-2.3c0.7-1.3,0.7-2.5,0.5-3.9c-0.7-4.3-1.5-8.6-2.2-12.8
		l-3.5,6.2c0.3-0.1,0.6-0.1,0.9-0.2l-1.3,0.2c0.3,0,0.6,0,1,0l-1.3-0.2c0.2,0,0.4,0.1,0.7,0.2l-1.2-0.5c0.2,0.1,0.4,0.2,0.6,0.3
		l-1-0.8c0.2,0.2,0.4,0.4,0.6,0.6l-0.8-1c0.2,0.2,0.3,0.5,0.4,0.8l-0.5-1.2c0.3,0.6,0.4,1.3,0.5,2l-0.2-1.3c0.2,1.5,0.3,3,0.1,4.4
		l0.2-1.3c-0.1,0.8-0.3,1.6-0.6,2.4l0.5-1.2c-0.2,0.5-0.5,1-0.8,1.4l0.8-1c-0.2,0.3-0.5,0.6-0.8,0.8l1-0.8l-0.2,0.1
		c-1.1,0.8-1.9,1.6-2.3,3c-0.3,1.2-0.2,2.8,0.5,3.9c0.7,1.1,1.7,2,3,2.3C175.6,98.1,177.2,98.2,178.3,97.4L178.3,97.4z"/>
	<path class="st0" d="M212.4,86.5c0.1,0.4,0,0.9-0.1,1.3c-0.1,0.5-0.3,1-0.7,1.4c-0.3,0.5-0.8,0.9-1.4,1.3c-0.6,0.4-1.3,0.7-2.1,0.9
		c-1.2,0.3-2.1,0.3-2.6,0.1c-0.6-0.3-0.9-0.9-1.1-1.9c-0.1-0.3-0.3-0.6-0.6-1c-0.2-0.4-0.5-0.8-0.7-1.2c-0.2-0.4-0.5-0.8-0.7-1.2
		c-0.2-0.4-0.4-0.8-0.5-1.1c-0.3,0.9-0.6,1.8-0.8,2.7c-0.3,0.9-0.7,1.8-1.1,2.6c-0.4,0.8-1,1.5-1.6,2.2c-0.6,0.6-1.4,1-2.4,1.3
		c-0.9,0.2-1.8,0.2-2.8-0.1c-1-0.3-1.8-0.9-2.7-1.6c-0.8-0.8-1.5-1.7-2.2-2.8c-0.6-1.1-1.1-2.4-1.3-3.8c-0.5-2.8-0.7-5.2-0.5-7.4
		c0.1-2.2,0.5-4,1-5.6c0.6-1.6,1.4-2.8,2.3-3.8c1-0.9,2.1-1.6,3.3-1.9c1-0.3,1.9-0.3,2.6-0.1c0.7,0.2,1.3,0.5,1.9,0.9
		c0.5,0.4,1,1,1.4,1.6c0.4,0.7,0.7,1.3,1.1,2c0.1-1.3,0.2-2.5,0.3-3.8c-0.2-1-0.1-1.7,0.3-2.1c0.4-0.4,1-0.8,1.8-1
		c0.3-0.1,0.8-0.1,1.4-0.1c0.6,0,1.2,0.1,1.9,0.3c0.6,0.2,1.2,0.4,1.7,0.7c0.5,0.3,0.8,0.7,0.9,1.2c0.1,0.5,0.1,1.2,0,1.9
		c-0.1,0.7-0.3,1.6-0.5,2.5c-0.2,0.9-0.5,1.9-0.7,2.9c-0.2,1.1-0.4,2.2-0.5,3.3c0.4,0.9,1,1.9,1.6,2.9c0.6,1,1.2,2,1.8,2.8
		c0.6,0.9,1.1,1.7,1.5,2.3C212.2,85.8,212.4,86.3,212.4,86.5L212.4,86.5z M194.8,73.5c-0.3,0.1-0.6,0.5-0.9,1.2
		c-0.2,0.7-0.4,1.5-0.5,2.5c-0.1,0.9-0.1,1.9-0.1,3c0,1.1,0.1,2,0.3,2.8c0.2,1.4,0.6,2.4,1.2,3.1c0.6,0.7,1.2,1.2,2,1.4
		c0.5-0.8,0.9-1.9,1.3-3.3c0.4-1.4,0.7-3.1,1-5.1c-0.7-2.1-1.5-3.6-2.2-4.5C196.2,73.7,195.5,73.4,194.8,73.5L194.8,73.5z"/>
	<path class="st0" d="M207.4,86.5c0.1,0.6-0.1,0.3,0.1,0c-0.5,0.7,0.1-0.1,0.2-0.3c0.3-0.5-0.1,0.1-0.2,0.2
		C207.2,86.9,208.2,85.8,207.4,86.5l-0.2,0.1l0.5-0.2c-0.3,0.2-0.7,0.2-1,0.3c-0.6,0.3,0.7,0,0.2,0c-0.6,0-0.8-0.2,0.3,0.1
		c0.7,0.2,1.7,0.9,2.1,1.5c0.1,0.3,0.3,1,0.2,0.3c-0.2-0.8-0.6-1.7-1-2.4c-0.7-1.2-1.4-2.4-2-3.7c-0.8-1.8-3.2-2.6-5-2.4
		c-2,0.3-3.6,1.7-4.2,3.6c-0.4,1.2-0.8,2.3-1.1,3.5c0.3-1,0,0-0.1,0.3c-0.2,0.4-0.5,1-0.8,1.4c0.4-0.5,0.4-0.5,0.1-0.1
		c-0.4,0.4-0.3,0.4,0.2,0c-0.2,0.2-1.3,0.7-0.2,0.2c-0.6,0.1-0.5,0.2,0.2,0.1c-0.3,0-0.5,0-0.8,0c0.7,0.1,0.7,0.1,0.1-0.1l0.5,0.2
		c-0.3,0-1.5-1.1-0.6-0.3c-0.4-0.3-0.7-0.7-1.1-1.1c0.7,0.7,0,0-0.2-0.3c-0.2-0.4-0.7-1-0.8-1.4c0.2,1.2-0.1-0.4-0.2-0.7
		c-0.1-0.4-0.2-0.8-0.3-1.2c0-0.2-0.3-2.1-0.2-1c-0.1-0.5-0.1-1-0.1-1.6c-0.1-1-0.1-2.1-0.1-3.1c0-0.4,0-0.9,0.1-1.3
		c0-0.3,0.1-0.6,0.1-0.9c-0.1,0.6-0.1,0.7,0,0.1c0.2-0.9,0.4-1.7,0.7-2.6c-0.4,1.1,0.2-0.3,0.3-0.6c0.1-0.2,0.9-1.2,0.4-0.7
		c-0.6,0.6,0.5-0.5,0.6-0.5c-0.9,0.9,0.2-0.3,0.6-0.3c-0.6,0.2-0.7,0.3-0.1,0.1l0.4-0.1c0.6-0.1,0.6-0.1-0.1,0c0.2,0,0.5,0,0.7,0
		c-0.8-0.1-0.9-0.1-0.3,0c-0.6-0.3-0.7-0.3-0.2-0.1c0.9,0.5-0.8-0.6,0.1,0.1c0.4,0.4,0.3,0.3-0.1-0.2c0.1,0.2,0.3,0.5,0.4,0.7
		c0.3,0.5,0.6,1.1,0.9,1.6c1,1.9,3.6,3,5.6,2.3c2.2-0.7,3.5-2.5,3.7-4.8c0.1-0.8,0.1-1.6,0.2-2.4c0-0.4,0.1-0.8,0.1-1.2
		c0.1-0.5,0-1-0.2-1.6l0.1,0.6c0,1-0.8,2-1.6,2.6c0.5-0.3,0.1-0.1-0.2,0.1c0.5-0.1,0.5-0.1,0-0.1c-0.5,0.1-0.5,0.1,0,0
		c0.3,0,0.6,0,0.9,0.1c-1-0.1,0.3,0.1,0.4,0.2c0.6,0.2,0.1,0.1-0.2-0.1c0.5,0.3,0.4,0.2-0.3-0.4c-0.4-0.3-0.7-0.7-0.9-1.2
		c-0.1-0.4,0-0.9-0.1-0.3c0.2-1.2,0,0.1,0,0.3c-0.1,0.3-0.1,0.5-0.2,0.8c-0.2,0.8-0.4,1.5-0.5,2.3c-0.4,1.8-0.7,3.6-0.9,5.4
		c-0.2,2,0.8,3.9,1.8,5.6c0.7,1.2,1.5,2.4,2.2,3.6c0.4,0.6,0.7,1.1,1.1,1.7c0.2,0.3,0.4,0.5,0.5,0.8c0.3,0.5,0.4,1.3,0-0.3
		c0.7,2.5,3.5,4.3,6.2,3.5c2.5-0.8,4.3-3.5,3.5-6.2c-0.6-1.9-1.9-3.6-3-5.3c-1.1-1.7-2.1-3.4-3-5.2l0.7,2.5c0-0.1,0.2-1.4,0.1-0.8
		c-0.1,0.6,0.1-0.8,0.1-0.7c0.1-0.7,0.3-1.3,0.4-2c0.3-1.3,0.6-2.6,0.9-3.9c0.3-2.1,0.5-4.2-0.6-6.2c-1-1.8-2.8-2.9-4.7-3.5
		c-3.3-1.2-7.2-1-10,1.2c-1.7,1.3-2.6,3.3-2.6,5.5l0,0.4c0.3,1.4,0.3,1.8,0.1,1.1c-0.1-0.3-0.1-0.3-0.1,0c0,0.2,0,0.5-0.1,0.7
		c-0.1,0.8-0.1,1.6-0.2,2.4l9.3-2.5c-1.2-2.3-2.6-4.7-5-5.9c-2.6-1.4-5.6-1.6-8.4-0.6c-5,1.7-8.1,6.4-9.1,11.5
		c-0.5,2.4-0.7,4.9-0.5,7.4c0.2,2.5,0.4,5.3,1.2,7.7C184.6,94,189,99,194.9,99c3.6,0,6.5-2,8.6-4.8c1.7-2.3,2.5-5.1,3.3-7.8
		c-3,0.4-6.1,0.8-9.1,1.2c0.4,0.9,1,1.8,1.5,2.7c0.3,0.5,0.6,1,0.9,1.5c-0.3-0.7-0.3-0.5-0.1,0.1c1,2.9,3.6,4.8,6.7,4.8
		c5.4-0.1,11.3-4.4,10.8-10.2c-0.2-2.6-2.1-5.1-5-5C209.9,81.6,207.2,83.7,207.4,86.5L207.4,86.5z"/>
	<path class="st0" d="M193.5,68.7c-1.6,0.6-2.9,1.5-3.7,3.1c-0.5,1-0.8,2.1-1,3.2c-0.3,2.1-0.5,4.1-0.3,6.2c0.2,2.3,0.5,4.4,1.5,6.5
		c1.1,2.3,3.2,3.8,5.5,4.7l1.3,0.2c0.7,0,1.3-0.1,1.9-0.4c1-0.4,1.9-1.1,2.4-2c0.9-1.6,1.6-3.4,2-5.2c0.2-0.8,0.4-1.6,0.5-2.3
		c0.3-1.5,0.7-3.3,0.2-4.8c-0.6-1.7-1.3-3.6-2.3-5.1c-0.8-1.2-1.7-2.3-3-3.1C197.1,68.5,195.3,68.4,193.5,68.7
		c-1.2,0.2-2.4,1.3-3,2.3c-0.6,1.1-0.9,2.7-0.5,3.9c0.9,2.7,3.4,4,6.2,3.5l0.2,0l-1.3,0.2c0.1,0,0.2,0,0.3,0l-1.3-0.2
		c0.2,0,0.3,0.1,0.5,0.1l-1.2-0.5c0.2,0.1,0.3,0.2,0.5,0.3l-1-0.8c0.3,0.2,0.5,0.5,0.8,0.8l-0.8-1c0.6,0.8,1.1,1.8,1.5,2.7l-0.5-1.2
		c0.2,0.5,0.4,1.1,0.6,1.7l-0.2-1.3c0,0.3-0.1,0.5-0.1,0.8l0.2-1.3c-0.3,2.2-0.8,4.3-1.6,6.3l0.5-1.2c-0.2,0.4-0.4,0.8-0.6,1.2
		l5.6-2.3l-0.2-0.1l1.2,0.5c-0.4-0.2-0.7-0.4-1-0.6l1,0.8c-0.3-0.2-0.5-0.5-0.7-0.8l0.8,1c-0.3-0.3-0.5-0.7-0.6-1.1l0.5,1.2
		c-0.3-0.8-0.5-1.7-0.6-2.6l0.2,1.3c-0.2-2-0.3-4,0-5.9l-0.2,1.3c0.1-0.7,0.3-1.4,0.5-2.1l-0.5,1.2c0.1-0.2,0.2-0.3,0.3-0.5l-0.8,1
		c0.1-0.1,0.1-0.1,0.2-0.2l-1,0.8l0.1-0.1l-1.2,0.5l0.1,0c1.2-0.5,2.3-1.1,3-2.3c0.6-1.1,0.9-2.7,0.5-3.9
		C198.9,69.8,196.1,67.8,193.5,68.7L193.5,68.7z"/>
	<path class="st0" d="M215.3,84.9c-1-4.4-1.9-8.6-2.9-12.7c-0.1-0.5-0.3-1-0.6-1.4c-0.3-0.4-0.5-0.7-0.8-1c-0.3-0.3-0.5-0.6-0.7-0.9
		c-0.2-0.3-0.4-0.6-0.4-0.9c-0.1-0.5-0.2-1-0.2-1.4c0-0.5,0-0.9,0.1-1.3c0.1-0.4,0.4-0.8,0.8-1.1c0.4-0.3,0.9-0.6,1.6-0.7
		c0.8-0.2,1.6-0.2,2.4-0.2c0.9,0,1.7,0.1,2.4,0.3c0.8,0.2,1.4,0.4,1.9,0.8c0.5,0.3,0.8,0.7,0.9,1.2c0.1,0.4,0.1,0.8,0.1,1.2
		c0,0.4,0,0.8,0,1.2c0,0.4,0,0.8,0,1.2c0,0.4,0,0.9,0.1,1.4c0.1,0.3,0.2,0.8,0.3,1.6c0.2,0.8,0.4,1.7,0.6,2.7c0.2,1,0.5,2.1,0.7,3.3
		c0.2,1.2,0.5,2.3,0.7,3.3c0.4,0.4,0.7,0.7,1,1c0.3,0.3,0.6,0.6,0.9,0.9c0.3,0.3,0.5,0.6,0.7,0.9c0.2,0.3,0.3,0.7,0.4,1.1
		c0.3,1.8-1.8,3.3-6.3,4.4c-0.9,0.2-1.8,0.1-2.5-0.3c-0.8-0.4-1.2-1.2-1.4-2.2C215.1,86.5,215.1,85.8,215.3,84.9L215.3,84.9z"/>
	<path class="st0" d="M220.1,83.6c-0.5-2.4-1.1-4.8-1.6-7.2c-0.6-2.5-0.9-5.2-2-7.5c-0.5-1.1-1.4-2.2-2.3-3.1
		c-0.5-0.5,0.3,0.5,0.4,0.6c0.5,0.6-0.1,0,0.1-0.2l0.1,0.4l0-0.5l-0.4,1.4c-0.2,0.3-0.4,0.5-0.7,0.7c-0.3,0.4-0.2,0.2,0,0
		c-1,0.5-0.3,0.2-0.1,0.1l0.2,0c0.4-0.1,0.3-0.1-0.3,0c0.1-0.1,0.5,0,0.6,0c0.2,0,1.3-0.1,1.5,0c-0.2-0.2-0.8-0.2-0.1,0
		c0.3,0.1,0.7,0.2,1,0.3c0.6,0.1-0.2,0-0.3-0.1c1,0.8-0.8-1-0.8-0.9c-0.1-0.1-0.5-1.2-0.4-1.2c0,0,0,0.5,0,0.6
		c0,1.3-0.1,2.5,0.1,3.8c0.3,2,0.8,4,1.2,6c0.5,2.2,0.7,4.6,1.6,6.6c0.5,1.3,1.6,2.3,2.7,3.2c0.1,0.1,0.6,0.5,0.1,0.1l-0.2-0.2
		c0.2,0.4,0.3,0.4,0.1,0c0-0.1-0.1-1.4-0.2-0.9c0,0.5,0.3-1.5,0.1-0.7c0,0.1,0.6-1.2,0.3-0.8c-0.3,0.7,0.3-0.3,0.4-0.4
		c-0.1,0.1-0.2,0.2-0.3,0.3c0.1-0.1,1-0.6,0.4-0.3c-0.2,0.1-0.3,0.2-0.5,0.3l-0.3,0.1c-0.4,0.2-0.4,0.2,0,0c0.2-0.3,0.4-0.1,0,0
		c-0.3,0.1-0.6,0.2-0.9,0.3c-0.2,0.1-1.7,0.6-1.9,0.5c0,0,1-0.1,0.4-0.1c-0.5,0,0.7,0.1,1,0.2c0.3,0.2,0.7,0.6,0.9,0.9
		c0.2,0.3,0.2,0.8,0.1,0.2c0.1,1.3,0,0.5,0,0.3c0-1-0.2,1,0-0.2c0.6-2.5-0.8-5.5-3.5-6.2c-2.5-0.6-5.5,0.8-6.2,3.5
		c-0.9,3.9,0,8.4,3.9,10.3c3.6,1.8,7.5,0.6,10.9-1.1c2.3-1.1,4.2-3,4.9-5.5c0.5-1.9,0-4.1-1-5.7c-0.9-1.4-2.1-2.4-3.2-3.6l1.3,2.2
		c-0.8-3.4-1.5-6.7-2.3-10.1c-0.1-0.3-0.1-0.5-0.2-0.8c0.1,0.8,0.1-0.2,0.1-0.5c0-0.9,0.1-1.7,0.1-2.6c-0.2-2.8-1.5-5.3-4.1-6.5
		c-4.1-1.9-10.5-2.3-13.9,1.1c-2.2,2.2-2.4,5.1-1.9,8.1c0.2,1.4,0.9,2.5,1.8,3.6c0.2,0.3,0.5,0.6,0.7,0.9c0.1,0.1,0.4,0.6,0.1,0.2
		c-0.4-0.6,0.4,0.7,0-0.1c-0.3-0.5,0,0,0,0.1c0.1,0.3,0.1,0.6,0.2,0.9c0.1,0.5,0.3,1.1,0.4,1.6c0.3,1.1,0.5,2.2,0.8,3.3
		c0.5,2.3,1,4.6,1.6,6.9c0.6,2.6,3.7,4.3,6.2,3.5C219.3,88.9,220.7,86.3,220.1,83.6L220.1,83.6z"/>
	<path class="st0" d="M246.2,70.7c0.3,1.9,0.4,3.5,0.2,5c-0.2,1.4-0.5,2.7-1.1,3.7c-0.6,1-1.3,1.9-2.1,2.5c-0.9,0.6-1.8,1-2.8,1.2
		c-0.7,0.2-1.5,0.1-2.4-0.1c-0.8-0.2-2-0.6-3.4-1.1c0.5,1.9,1,3.9,1.5,5.9c0.1,0.3,0.3,0.6,0.4,0.8c0.2,0.2,0.4,0.5,0.6,0.8
		c0.2,0.3,0.4,0.5,0.5,0.8c0.2,0.3,0.3,0.6,0.3,0.9c0.1,0.4-0.1,0.9-0.4,1.2c-0.3,0.4-0.8,0.8-1.4,1.1c-0.6,0.3-1.2,0.6-1.9,0.9
		c-0.7,0.3-1.4,0.5-2,0.6c-0.4,0.1-0.8,0.1-1.2,0.1c-0.4,0-0.8-0.1-1.2-0.2c-0.4-0.1-0.7-0.4-0.9-0.7c-0.3-0.3-0.4-0.8-0.5-1.3
		c0-0.3-0.1-0.6-0.1-1c0-0.4,0-0.7,0-1c0-0.3,0.1-0.6,0.1-0.8c0-0.2,0-0.3,0-0.4c-1-5.8-1.9-11.2-2.9-16.4c-0.4-2-0.4-3.8-0.2-5.3
		c0.3-1.6,0.7-2.9,1.4-4c0.7-1.1,1.5-2,2.4-2.6c0.9-0.7,1.8-1.1,2.8-1.2c0.8-0.2,1.8-0.2,3-0.2c1.1,0,2.2,0.1,3.3,0.1
		c0.5,0,1.1,0.3,1.9,0.7c0.8,0.4,1.5,1,2.3,1.9c0.8,0.8,1.5,1.9,2.2,3.2C245.4,67.2,245.9,68.8,246.2,70.7L246.2,70.7z M234.3,63.7
		c-0.5,0.4-0.9,0.9-1.2,1.6c-0.3,0.7-0.5,1.5-0.6,2.4c-0.1,0.9-0.1,1.8-0.1,2.8c0.1,1,0.2,1.8,0.4,2.6c0.2,0.9,0.5,1.7,1,2.4
		c0.5,0.7,1,1.2,1.7,1.7c0.6,0.4,1.3,0.8,1.9,1c0.7,0.2,1.3,0.4,1.9,0.4c0.4-0.8,0.6-1.8,0.5-3.2c0-1.4-0.3-3.3-0.8-5.8
		c-0.1-0.7-0.4-1.4-0.8-2.1c-0.4-0.7-0.8-1.3-1.3-1.8c-0.5-0.5-0.9-1-1.4-1.3S234.7,63.8,234.3,63.7L234.3,63.7z"/>
	<path class="st0" d="M241.4,72c0.2,1.2,0-0.6,0.1,0.5c0,0.4,0.1,0.8,0.1,1.3c0,0.4,0,0.8,0,1.2c0,1,0.3-0.9,0,0.2
		c-0.1,0.4-0.2,0.8-0.3,1.2c-0.1,0.2-0.5,1.1-0.1,0.5c0.4-0.7-0.3,0.4-0.4,0.5c-0.2,0.3-0.1,0.2,0.2-0.3c-0.1,0.1-0.2,0.3-0.4,0.4
		c-0.5,0.5-0.2,0.5,0.1,0c-0.1,0.1-0.8,0.6-1,0.6c0.5-0.2,0.6-0.3,0.3-0.1c-0.2,0.1-0.4,0.1-0.6,0.2c-1,0.3,0.8,0.1-0.2,0
		c1.2,0.1,0.1,0-0.2-0.1c-0.3-0.1-0.6-0.2-0.9-0.3c-0.8-0.2-1.5-0.5-2.3-0.7c-3.7-1.2-7,2.6-6.2,6.2c0.6,2.5,1,5.6,2.3,7.8
		c0.3,0.5,0.7,0.9,1,1.3c0.4,0.5-0.1-0.1-0.1-0.2c0,0,0.4,0.5,0.4,0.5c-0.4,0.1,0.1-3,0.1-3.2c0.4-0.8,0.4-0.5,0.1-0.2
		c0.8-0.7,0.4-0.3,0.1-0.1c-0.2,0.1-0.5,0.3-0.7,0.4c-1.1,0.6,0.5-0.1-0.2,0.1c-0.5,0.2-1.1,0.3-1.6,0.5c-0.6,0.3,0.8,0,0.1,0
		l-0.2,0c0.4,0,0.8,0.1,1.1,0.5c0.5,0.3,0.8,0.5,1.1,1.1c0.1,0.2,0.2,1.3,0.2,0.7c0-0.5,0-1,0-1.5c0.2-2.6-0.5-5.3-1-7.8
		c-0.4-2.6-0.9-5.1-1.4-7.7c-0.2-1.1-0.4-2.2-0.6-3.4c-0.1-0.3-0.1-0.6-0.2-0.9c0.1,1,0,0.2,0,0c0-0.6-0.1-1.2,0-1.8
		c0-0.2,0.1-1,0-0.3c-0.1,0.8,0-0.2,0.1-0.3c0.1-0.5,0.3-1,0.4-1.6c0.2-0.7-0.4,0.7-0.1,0.1c0.1-0.2,0.2-0.3,0.2-0.5
		c0.1-0.2,0.3-0.4,0.4-0.7c0.6-1-0.6,0.5,0.2-0.3c0.1-0.1,0.5-0.6,0.6-0.5c0.1,0-1.2,0.7,0,0c0.3-0.1,0.5-0.3,0.8-0.4
		c-0.1,0.1-0.7,0.2-0.2,0.1c0.2,0,1-0.3,0.3-0.1c-0.7,0.2,0.1,0,0.3,0c0.7-0.1,1.4-0.1,2.1-0.1c0.7,0,1.4,0.1,2.1,0.1
		c0.8,0-0.9-0.1-0.2-0.1c1,0.1-0.1-0.1-0.1-0.1c0,0,0.6,0.3,0.7,0.4c1,0.5-0.6-0.6,0.3,0.2c0.1,0.1,1.2,1.2,1.1,1.2
		c-0.1,0.1-0.5-0.8-0.1-0.1c0.2,0.3,0.4,0.7,0.6,1c0.1,0.3,0.3,0.5,0.4,0.8c0.1,0.1,0.5,1.1,0.2,0.4c-0.3-0.7,0,0.1,0.1,0.3
		c0.1,0.3,0.2,0.6,0.3,0.9C241.1,70.6,241.3,71.3,241.4,72c0.5,2.6,3.7,4.3,6.2,3.5c2.7-0.9,4-3.4,3.5-6.2
		c-1.3-6.7-5.9-13.7-13.2-14.3c-3.6-0.3-7.6-0.2-10.7,1.8c-3.1,2-5.3,5.1-6.2,8.7c-0.9,3.6-0.5,7,0.2,10.6c0.6,3.2,1.2,6.5,1.7,9.7
		c0.3,1.5,0.8,3.3,0.8,4.8c0-1.7-0.2,0.2-0.2,0.6c-0.1,1,0,2,0.2,3c0.5,2.1,1.8,4,3.7,5c2.2,1.2,4.7,1.1,7,0.4
		c4.3-1.3,9.7-4.5,8.4-9.8c-0.2-0.9-0.6-1.8-1.2-2.6c-0.4-0.5-0.8-0.9-1.1-1.5c-0.3-0.3-0.2-0.3,0.2,0.2c0.3,0.8,0.3,0.8,0.1,0.1
		c-0.4-1.8-0.9-3.6-1.4-5.5l-6.2,6.2c2.2,0.7,4.4,1.6,6.8,1.4c2.8-0.2,5.7-1.5,7.7-3.6c4-4.1,4.3-9.9,3.4-15.2
		c-0.4-2.6-3.8-4.3-6.2-3.5C242.1,66.8,240.9,69.3,241.4,72L241.4,72z"/>
	<path class="st0" d="M231.8,59.4c-1.2,0.9-2.3,1.8-2.9,3.2c-0.6,1.1-1,2.3-1.2,3.6c-0.4,2.7-0.4,5.4,0.2,8.1
		c0.5,2.4,1.8,4.6,3.7,6.2c1.1,0.9,2.2,1.6,3.5,2.1c1.4,0.6,2.7,0.8,4.3,1c1.6,0.2,3.6-1.1,4.3-2.5c1.9-3.8,1.1-7.9,0.5-11.9
		c-0.3-2-1.1-3.9-2.3-5.6c-1.6-2.1-3.5-4-6.1-4.7c-2.5-0.7-5.6,0.9-6.2,3.5c-0.6,2.6,0.8,5.4,3.5,6.2c0.1,0,0.2,0.1,0.3,0.1
		l-1.2-0.5c0.4,0.2,0.8,0.4,1.2,0.7l-1-0.8c0.6,0.5,1.1,1,1.6,1.6l-0.8-1c0.5,0.7,0.9,1.3,1.3,2.1l-0.5-1.2c0.6,1.4,0.7,3,0.9,4.5
		l-0.2-1.3c0.2,1.5,0.4,3,0.2,4.4l0.2-1.3c-0.1,0.4-0.2,0.8-0.3,1.2l0.5-1.2c0,0.1-0.1,0.2-0.1,0.3l4.3-2.5l-0.2,0l1.3,0.2
		c-0.7-0.1-1.4-0.3-2.1-0.5l1.2,0.5c-0.6-0.3-1.2-0.6-1.7-1l1,0.8c-0.5-0.4-0.9-0.8-1.3-1.3l0.8,1c-0.3-0.4-0.6-0.9-0.8-1.4L238,73
		c-0.3-0.9-0.5-1.8-0.6-2.7l0.2,1.3c-0.2-1.3-0.2-2.6,0-3.9l-0.2,1.3c0.1-0.8,0.3-1.6,0.6-2.4l-0.5,1.2c0.1-0.3,0.3-0.6,0.5-0.9
		l-0.8,1c0.2-0.2,0.3-0.4,0.5-0.6l-1,0.8l0.2-0.1c1.1-0.8,1.9-1.6,2.3-3c0.3-1.2,0.2-2.8-0.5-3.9c-0.7-1.1-1.7-2-3-2.3
		C234.4,58.6,232.9,58.6,231.8,59.4L231.8,59.4z"/>
	<path class="st0" d="M273.7,74.8c0.1,0.4,0,0.8-0.1,1.2c-0.1,0.4-0.3,0.8-0.7,1.2c-0.3,0.4-0.8,0.7-1.4,1c-0.6,0.3-1.3,0.5-2.1,0.6
		c-1.2,0.1-2.1,0.1-2.6-0.3c-0.6-0.3-0.9-1-1.1-2c-0.1-0.3-0.3-0.7-0.6-1c-0.2-0.4-0.5-0.8-0.7-1.2c-0.2-0.4-0.5-0.8-0.7-1.2
		c-0.2-0.4-0.4-0.8-0.5-1.1c-0.3,0.8-0.5,1.6-0.8,2.5c-0.3,0.8-0.7,1.6-1.1,2.4c-0.4,0.7-1,1.4-1.6,1.9c-0.6,0.5-1.4,0.9-2.4,1
		c-0.9,0.1-1.8,0-2.8-0.4c-1-0.4-1.8-1-2.7-1.8c-0.8-0.8-1.5-1.8-2.2-2.9c-0.6-1.1-1.1-2.4-1.3-3.7c-0.5-2.6-0.7-4.9-0.5-6.8
		c0.1-1.9,0.5-3.5,1-4.8c0.6-1.3,1.4-2.3,2.3-3c1-0.7,2.1-1.2,3.3-1.3c1-0.1,1.9-0.1,2.6,0.1c0.7,0.2,1.3,0.5,1.9,0.9
		c0.5,0.4,1,0.9,1.4,1.5c0.4,0.6,0.7,1.2,1.1,1.9c0.1-1.1,0.2-2.2,0.3-3.3c-0.2-0.9-0.1-1.4,0.3-1.8c0.4-0.3,1-0.6,1.8-0.7
		c0.3,0,0.8,0,1.4,0.1c0.6,0.1,1.2,0.2,1.9,0.4c0.6,0.2,1.2,0.4,1.7,0.8c0.5,0.3,0.8,0.7,0.9,1.1c0.1,0.5,0.1,1,0,1.7
		c-0.1,0.6-0.3,1.4-0.5,2.2c-0.2,0.8-0.5,1.6-0.7,2.6c-0.2,0.9-0.4,1.9-0.5,2.9c0.4,0.9,1,1.8,1.6,2.9c0.6,1,1.2,2,1.8,2.9
		c0.6,0.9,1.1,1.7,1.5,2.4C273.4,74.2,273.7,74.6,273.7,74.8L273.7,74.8z M260.9,46.1c0.2,0.2,0.1,0.4-0.2,0.8
		c-0.3,0.3-0.4,0.5-0.4,0.6c0.1,0.1,0,0.6-0.3,1.3c-0.4,0.9-0.5,1.3-0.5,1.3c0.1,0.7-0.1,1.2-0.4,1.4c-0.1,0.1-0.3,0.1-0.4,0.1
		c-0.2,0-0.6,0-1-0.1c-0.6-0.1-1-0.1-1.1-0.2c-1-0.1-1.5-0.1-1.8-0.1c-0.7-0.1-1.1-0.2-1.3-0.4c-0.1-0.1,0.2-0.6,0.8-1.6
		c0.8-1.2,1.2-1.8,1.3-2c0-0.1,0.1-0.4,0.1-1c0.1-0.5,0.2-0.7,0.4-0.7c0.6-0.2,1.4-0.2,2.7,0C259.8,45.6,260.6,45.8,260.9,46.1
		L260.9,46.1z M256.1,60.8c-0.3,0-0.6,0.4-0.9,1c-0.2,0.6-0.4,1.3-0.5,2.1c-0.1,0.8-0.1,1.7-0.1,2.7c0,1,0.1,1.8,0.3,2.6
		c0.2,1.3,0.6,2.3,1.2,3c0.6,0.7,1.2,1.2,2,1.6c0.5-0.7,0.9-1.7,1.3-2.9c0.4-1.2,0.7-2.8,1-4.6c-0.7-2-1.5-3.4-2.2-4.3
		C257.4,61.1,256.7,60.7,256.1,60.8L256.1,60.8z"/>
	<path class="st0" d="M268.7,74.8c0.1,0.6,0,0.3,0.1-0.1c0.3-0.6,0.3-0.7,0.2-0.4c-0.1,0.2-0.1,0.2,0.1-0.1c0.1-0.1,0.9-0.7,0.5-0.5
		c-0.2,0.1-0.9,0.4-0.2,0.2c0.8-0.3-0.3,0-0.4,0.1c-0.5,0.1-0.3,0,0.1,0c-0.1,0-0.8,0-0.8,0l0.7,0.1c-0.4-0.1-0.4-0.1,0.1,0.1
		c0.6,0.5,1.2,0.9,1.7,1.6c0.3,0.6,0-0.1,0-0.3c-0.3-0.9-0.7-1.7-1.1-2.4c-0.7-1.2-1.4-2.3-1.9-3.5c-0.8-1.8-3.2-2.6-5-2.4
		c-2,0.3-3.5,1.7-4.2,3.6c-0.3,1-0.6,1.9-1,2.9c0.4-1-0.1,0.2-0.2,0.4c-0.1,0.3-0.3,0.5-0.4,0.7c0.4-0.4,0.4-0.5,0,0l-0.3,0.3
		c0.5-0.4,0.6-0.4,0.1-0.1c-1.1,0.4,1-0.2-0.2,0c0.7-0.1,0.7-0.1,0.2-0.1c0.6,0.1,0.7,0.1,0.3,0c-0.2,0-0.4-0.1-0.6-0.2
		c0.5,0.2,0.6,0.2,0.1,0c-0.2-0.1-1.1-0.9-0.3-0.1c-0.4-0.3-0.7-0.6-1-1c-0.1-0.1-0.3-0.3-0.4-0.4c0.4,0.5,0.4,0.5,0.1,0
		c-0.2-0.4-0.5-0.7-0.7-1.1c-0.1-0.3-0.3-0.5-0.4-0.8c0.2,0.5,0.2,0.5,0.1,0.2c-0.1-0.5-0.3-1-0.4-1.5c-0.1-0.5-0.2-0.9-0.3-1.4
		c-0.1-0.6-0.1-0.6,0-0.1c0-0.2-0.1-0.4-0.1-0.7c-0.1-0.9-0.1-1.8-0.1-2.7c0-0.4,0-0.7,0-1.1c0-0.3,0-0.6,0.1-0.9
		c-0.1,0.6-0.1,0.7,0,0.1c0.1-0.3,0.3-2,0.6-2.1c-0.3,0.7-0.3,0.8-0.1,0.2c0.1-0.2,0.3-0.5,0.4-0.7c0.4-0.8-0.6,0.4,0.1-0.2
		c0.2-0.2,0.3-0.3,0.5-0.5l-0.4,0.3c0.2-0.1,0.4-0.3,0.7-0.4c-0.6,0.2-0.6,0.2-0.1,0.1c0.3-0.1,1.4-0.2,0.3-0.1c0.1,0,1.2,0,1.2,0
		c-0.7-0.1-0.8-0.1-0.3,0c0.5,0.2,0.6,0.2,0.2,0.1c-0.3-0.1-0.3-0.1,0.1,0.1c-0.5-0.4-0.5-0.4-0.1,0c-0.7-0.8,0.1,0.1,0.2,0.3
		c0.3,0.5,0.6,1,0.9,1.5c1,1.8,3.6,3,5.6,2.3c2.3-0.7,3.4-2.5,3.7-4.8c0.1-0.8,0.2-1.6,0.2-2.3c0-0.3,0.1-0.6,0.1-0.9l-0.2-1.3
		c0.3,0.8,0,1.5-0.8,2.1c-0.1,0.9-0.5,1.5-1.2,1.7c-0.4,0.2-0.4,0.2,0,0c0.9-0.2-0.3,0-0.3,0c0,0,1.2,0.1,0.5,0
		c-0.6-0.1,0.4,0.1,0.5,0.1c0.3,0.1,0.8,0.1,1.1,0.3c-0.4-0.4-0.7-0.2,0,0c0.5,0.3,0.3,0-0.6-0.8c-0.5-0.3-0.7-0.7-0.8-1.2
		c-0.1-0.4,0.1-1-0.1-0.3c-0.3,1.4-0.7,2.7-1.1,4.1c-0.4,1.6-0.9,3.5-0.6,5.2c0.2,1.6,1.3,3.3,2.2,4.7c0.7,1.1,1.3,2.2,2,3.3
		c0.4,0.6,0.7,1.1,1.1,1.7c0.1,0.2,0.3,0.5,0.4,0.7c0.3,0.5,0.4,1.2,0-0.2c0.7,2.5,3.5,4.3,6.2,3.5c2.5-0.8,4.3-3.5,3.5-6.2
		c-0.6-2-1.9-3.7-3-5.4c-1.1-1.7-2.1-3.4-3-5.2l0.7,2.5c0.1-0.5,0.1-0.4,0,0c0.1-0.3,0.1-0.7,0.2-1c0.1-0.6,0.3-1.2,0.4-1.7
		c0.3-1.3,0.7-2.5,0.9-3.8c0.3-2,0.4-4.1-0.8-5.9c-1.2-1.8-2.9-2.8-4.9-3.5c-2.9-1-6.4-1.2-9.2,0.4c-1.9,1.1-3.1,3.3-3.1,5.5
		c0,0.5,0.3,1.2,0.2,1.7l-0.2-0.5l0,0.5c-0.2,0.7-0.2,1.6-0.2,2.3l9.3-2.5c-1.3-2.3-2.7-4.5-5.1-5.8c-2.6-1.4-5.5-1.5-8.3-0.8
		c-4.9,1.2-8.3,5.6-9.1,10.5c-0.4,2.2-0.5,4.5-0.3,6.8c0.2,2.4,0.5,5,1.4,7.3c2,5.1,6.1,9.6,11.8,10.1c2.9,0.2,6-1.2,7.9-3.4
		c2-2.3,3-5.2,4-8.1c-3,0.4-6.1,0.8-9.1,1.2c0.4,0.9,1,1.8,1.5,2.7c0.3,0.5,0.5,0.9,0.8,1.4c0.2,0.3,0.1,0.2-0.2-0.3
		c0.1,0.2,0.1,0.5,0.2,0.7c1.1,3,3.6,4.7,6.8,4.9c5.1,0.2,11.2-3.4,10.6-9.2c-0.2-2.6-2.1-5.1-5-5C271.2,69.9,268.4,72,268.7,74.8
		L268.7,74.8z"/>
	<path class="st0" d="M256.5,48.6L256.5,48.6l-0.5-1.1c0,0,0,0.1,0,0.1l-0.2-1.3l0,0.1l0.2-1.3l0,0.1l0.5-1.2c0,0.1-0.1,0.2-0.2,0.3
		l0.8-1c-0.4,0.5-0.9,1-1.3,1.6c-0.1,0.2-0.4,0.8-0.3,0.6c-0.3,0.6-0.4,1.3-0.4,1.9s0.2,1.3,0.4,1.9c0.2,0.4,0.2,0.4,0.3,0.7
		l-0.5-1.2l0,0l-0.2-1.3c0,0.1,0,0.1,0,0.2l0.2-1.3c-0.1,0.7-0.4,1.3-0.7,1.9c-0.1,0.2-0.1,0.3-0.2,0.5c-0.2,0.7-0.1,1.4-0.2,2
		l0.2-1.3c0,0.1,0,0.2-0.1,0.3l0.5-1.2c0,0.1-0.1,0.1-0.1,0.2l0.8-1c0,0-0.1,0.1-0.1,0.1l1-0.8c-0.1,0.1-0.1,0.1-0.2,0.1l1.2-0.5
		c-0.1,0-0.2,0.1-0.3,0.1l1.3-0.2c-0.2,0-0.4,0-0.6,0l1.3,0.2c-1.1-0.1-2.1-0.4-3.2-0.4c-0.5,0-1-0.1-1.6-0.1l1.3,0.2
		c-0.3,0-0.6-0.1-0.9-0.2l1.2,0.5c-0.1,0-0.1-0.1-0.2-0.1l1,0.8c0,0-0.1-0.1-0.1-0.1l0.8,1l0,0l0.5,1.2l0,0l0.2,1.3c0,0,0,0,0-0.1
		l-0.2,1.3c0-0.1,0-0.2,0.1-0.2l-0.5,1.2c0.4-1,1.1-1.8,1.6-2.7c0.1-0.2,0.3-0.4,0.4-0.6c0.6-1.1,0.7-2.3,0.8-3.5l-0.2,1.3
		c0-0.2,0.1-0.3,0.1-0.4l-0.5,1.2c0-0.1,0.1-0.1,0.1-0.2l-0.8,1l0,0l-1,0.8l0,0l-1.2,0.5c0.1-0.1,0.3-0.1,0.4-0.1l-1.3,0.2
		c0.9-0.1,1.8,0,2.7,0.1l-1.3-0.2c0.5,0.1,1,0.1,1.4,0.3l-1.2-0.5c0.1,0.1,0.2,0.1,0.3,0.2l-1-0.8c0,0,0.1,0.1,0.1,0.1
		c0.9,0.9,2.3,1.5,3.5,1.5c1.2,0,2.7-0.5,3.5-1.5c0.9-1,1.5-2.2,1.5-3.5c-0.1-1.4-0.5-2.5-1.5-3.5c0,0-0.1-0.1-0.1-0.1
		c-0.3-0.2-0.8-0.6-1.1-0.8c-0.1-0.1-0.2-0.1-0.3-0.1c-0.6-0.3-1.3-0.6-1.9-0.7c-1.2-0.3-2.5-0.4-3.7-0.4c-0.3,0-0.6,0-1,0
		c-1.1,0.1-2.1,0.2-3.1,0.8c-0.3,0.2-0.8,0.6-1.1,0.8c-0.2,0.2-0.7,0.8-0.8,1.1c-0.1,0.2-0.2,0.5-0.3,0.7c-0.1,0.3-0.2,0.5-0.3,0.8
		c-0.2,0.8-0.2,1.6-0.3,2.3l0.2-1.3c0,0.1,0,0.1,0,0.2l0.5-1.2c-0.2,0.5-0.6,0.9-0.8,1.4c-0.7,1.1-1.3,2.1-1.7,3.3
		c-0.3,0.8-0.2,1.9,0,2.8c0.3,1,0.4,1.1,0.9,1.7c0.5,0.6,0.4,0.5,1,1c0.8,0.6,1.7,1,2.7,1.2c0.7,0.1,1.4,0.2,2.1,0.2
		c0.4,0,0.9,0,1.3,0.1l-1.3-0.2c1.7,0.2,3.3,0.7,5,0.2c0.9-0.3,1.8-0.7,2.5-1.5c0.7-0.7,1.1-1.5,1.4-2.5c0.2-0.5,0.2-1.2,0.3-1.7
		c0-0.2,0-0.4,0-0.6l-0.2,1.3c0.1-0.5,0.4-1,0.6-1.5c0.1-0.3,0.2-0.6,0.3-0.9c0.1-0.5,0.2-1,0.2-1.5c0-0.3-0.1-1.1-0.2-1.4
		c0.3,1.4-0.3-0.9-0.5-1.2l0.7,2.5l0,0l-0.7,2.5c0-0.1,0.1-0.1,0.1-0.2l-0.8,1c0.5-0.6,1-1.1,1.3-1.8c0.2-0.4,0.4-0.9,0.5-1.3
		c0.1-0.3,0.2-1.1,0.2-1.4c0-0.4-0.1-1.1-0.2-1.4c-0.1-0.3-0.4-1-0.6-1.3c-0.3-0.6-0.7-1.1-1.3-1.4c-0.5-0.4-1-0.7-1.7-0.9
		c-0.7-0.2-1.3-0.2-2-0.1c-0.7,0-1.3,0.2-1.9,0.6c-1.1,0.7-2,1.7-2.3,3C255.8,46,255.8,47.6,256.5,48.6L256.5,48.6z"/>
	<path class="st0" d="M254.7,56c-2.8,0.7-4.3,3.5-4.7,6.1c-0.3,1.9-0.4,3.9-0.2,5.8c0.2,2.2,0.6,4.1,1.6,6.1
		c0.9,1.7,2.5,3.3,4.3,4.2c1.2,0.6,2.5,0.9,3.9,0.5c1.3-0.4,2.3-1.2,3-2.3c0.9-1.5,1.6-3.2,2-4.8c0.2-0.7,0.4-1.5,0.5-2.2
		c0.3-1.5,0.7-3.2,0.1-4.7c-0.6-1.6-1.3-3.3-2.3-4.7c-0.8-1.2-1.7-2.1-2.9-3c-1.1-0.7-2.5-1.2-3.9-1.1c-1.3,0.1-2.6,0.5-3.5,1.5
		c-0.9,0.9-1.5,2.3-1.5,3.5c0.1,1.3,0.5,2.6,1.5,3.5c0.9,0.9,2.2,1.6,3.5,1.5c0.2,0,0.3,0,0.4,0l-1.3-0.2c0.1,0,0.2,0,0.3,0.1
		l-1.2-0.5c0.2,0.1,0.4,0.2,0.6,0.3l-1-0.8c0.4,0.3,0.7,0.6,1,1l-0.8-1c0.7,0.9,1.2,1.9,1.6,2.9l-0.5-1.2c0.2,0.4,0.3,0.7,0.4,1.1
		v-2.7c-0.3,2-0.7,4-1.5,5.9l0.5-1.2c-0.2,0.6-0.5,1.1-0.8,1.7l6.8-1.8c-0.4-0.2-0.7-0.4-1-0.6l1,0.8c-0.4-0.3-0.7-0.6-1-1l0.8,1
		c-0.3-0.4-0.5-0.8-0.7-1.2l0.5,1.2c-0.3-0.8-0.5-1.6-0.6-2.4l0.2,1.3c-0.2-1.6-0.2-3.3-0.1-5l-0.2,1.3c0.1-0.7,0.2-1.4,0.5-2.1
		l-0.5,1.2c0.1-0.1,0.1-0.2,0.2-0.3l-0.8,1c0.1-0.1,0.1-0.2,0.2-0.2l-1,0.8c0.1-0.1,0.1-0.1,0.2-0.1l-1.2,0.5l0.1,0
		c2.5-0.6,4.3-3.6,3.5-6.2C260,56.8,257.5,55.3,254.7,56L254.7,56z"/>
	<path class="st0" d="M292.7,72.8c0.1,0.1,0.1,0.3,0.1,0.6c0.3,1.1,0.3,2-0.1,2.8c-0.4,0.8-1.1,1.4-2.2,1.8c0,0,0,0,0,0
		c-0.3,0.1-0.5,0.2-0.7,0.2c-0.2,0-0.4,0.1-0.5,0.1c-0.8,0-1.5-0.3-2.2-0.9c-0.4-0.4-0.8-0.7-1.3-1.1c-1.8-1.9-3.6-3.8-5.4-5.6
		c0.2,1.2,0.5,2.3,0.7,3.5c0,0.2,0.1,0.4,0.3,0.7c0.1,0.2,0.3,0.4,0.3,0.6c0.1,0.2,0.1,0.4,0.2,0.5c0.1,0.5-0.1,1.1-0.5,1.6
		c-0.6,0.5-2.1,0.8-4.2,0.9c-1.3,0.1-2.1-0.2-2.4-0.8c-0.2-0.2-0.3-0.5-0.4-0.8c-0.1-0.3-0.1-0.6-0.2-0.9c0-0.7,0-1.1,0-1.3
		c-1-6-2.1-11.6-3.1-16.7c-0.1-0.3-0.1-0.6-0.2-0.9c0-0.4-0.1-0.8-0.1-1.2c0.2-1,1.1-1.5,2.5-1.7c2-0.2,3.4,0,4.2,0.7
		c0.2,0.2,0.4,0.4,0.5,0.6c0.2,0.2,0.3,0.5,0.3,0.7c0.1,0.3,0,0.8-0.1,1.5c0,0,0,0,0,0c-0.1,0.5-0.1,0.9,0,1.1c0,0.4,0.1,1,0.1,1.8
		c0,0.8,0.2,2.4,0.4,4.7c2-5.1,3.2-8,3.8-9.1c0.1-0.2,0.3-0.4,0.4-0.7c0.2-0.3,0.3-0.6,0.5-0.9c0,0,0,0,0,0c0.3-0.6,0.8-1.1,1.7-1.4
		c0.1,0,0.2-0.1,0.3-0.1c0.1,0,0.3,0,0.5-0.1c1-0.1,2,0.1,3,0.7c0.5,0.3,1,0.7,1.3,1.1c0.3,0.4,0.5,0.8,0.6,1.2c0,0.2,0,0.5-0.1,0.8
		c-0.1,0.3-0.3,0.6-0.5,0.9c-0.2,0.3-0.5,0.6-0.8,1c-0.3,0.3-0.5,0.6-0.8,0.9c-1.4,2.4-2.7,4.8-4.1,7.3c1.8,1.3,3.6,2.7,5.4,4
		C291.4,71.3,292.3,71.9,292.7,72.8L292.7,72.8z"/>
	<path class="st0" d="M287.9,74.2c0,0.1,0.2,1,0.3,1c-0.3-0.2,0.3-1.6,0-0.7c0.1-0.3,1-1.5,0.4-0.9l0.5-0.4c-0.5,0.2-0.4,0.2,0.2,0
		l6.2,3.5l0,0c-0.4-2.4-3.8-4.5-6.2-3.5c-0.2,0.1-0.5,0.2-0.7,0.2c0.5-0.2,1-0.2,1.5,0c-0.8-0.2,0.4,0.3,0.6,0.4
		c-0.8-0.5-1.5-1.3-2.1-2c-1.5-1.6-3-3.2-4.5-4.7c-1.5-1.5-4.2-2-6.1-0.8c-1.9,1.3-2.8,3.4-2.3,5.6c0.3,1.2,0.4,2.4,0.7,3.5
		c0.2,0.5,0.4,1,0.6,1.5c0.1,0.2,0.2,0.5,0.4,0.7c-0.2-0.4-0.4-0.9-0.4-1.4c0.6-1.6,0.6-2,0.2-1.2l1.8-1.8c-0.6,0.4-0.2-0.1,0.5-0.2
		c-0.2,0-0.5,0.1-0.7,0.2c-0.3,0.1-0.5,0.1-0.8,0.2c-1.2,0.2,1.1-0.1-0.3,0c-0.2,0-1.2,0.2-1.3,0.1l0.7,0.1c0.8,0.2,1.4,0.6,1.8,1.2
		c0.3,0.4,0.3,0.4,0.1,0.1l0.3,0.6c0,0.5,0,0.5,0,0.2c0-0.2,0-0.4,0-0.6c-0.1-1.8-0.5-3.6-0.8-5.4c-0.3-1.7-0.6-3.4-0.9-5.1
		c-0.3-1.6-0.6-3.1-0.9-4.7c-0.2-0.8-0.3-1.6-0.5-2.4c-0.1-0.3-0.1-0.7-0.2-1.1c-0.1-0.4-0.1-0.4,0,0.1c0.1,0.5,0.1,0.4,0,0l0-0.4
		c0,0.7-0.3,1.4-0.8,1.9c-0.1,0.1-1.4,1.2-1.5,1c0.2-0.1,0.4-0.1,0.7-0.2l-0.5,0.1c0.1-0.1,1.1,0,1.2,0c1,0-0.7-0.2-0.1,0
		c0.8,0.2,0.1,0-0.3-0.2c0.4,0.3,0.3,0.1-0.3-0.4c-0.7-0.5-1-1.2-0.9-2.1c0,0.9,0.3-1.3,0,0c-0.3,1.6-0.1,3,0.9,4.4
		c0.9,1.1,2.4,2.1,3.9,2l0,0l-5-5c-0.1,1.2,0,2.4,0.1,3.5c0.1,1.4,0.2,2.8,0.4,4.2c0.2,2.5,1.7,4.6,4.3,4.9c2.6,0.4,4.6-1.2,5.5-3.6
		c0.5-1.2,1-2.5,1.5-3.7c0.2-0.6,0.4-1.1,0.7-1.6c0.1-0.2,0.2-0.4,0.2-0.6c0.3-0.8-0.4,0.8-0.1,0.3c0.6-1.3,1.3-2.5,1.9-3.8
		c0.8-1.6,1-3.4,0-5c-0.8-1.4-2.6-2.6-4.3-2.5l0,0l4.3,7.5c0.2-0.4,0.2-0.3-0.1,0c-0.2,0.3-0.4,0.5-0.7,0.7
		c-0.3,0.1-0.8,0.2-0.2,0.1c-0.9,0.1-1.1,0.1-0.6,0.1c0.2,0,0.4,0,0.6,0l-0.6-0.1c0.4,0.1,0.5,0.1,0.2,0c-0.6-0.2,0.4,0.2,0.6,0.3
		c-0.4-0.3-0.5-0.4-0.2-0.1c0.2,0.2,0.2,0.2-0.1-0.1c-0.9-0.9-0.9-2-0.3-3.5l-0.2,0.3c-0.8,1,0.7-0.8-0.2,0.3
		c-2.4,2.7-3.9,6.1-5.7,9.2c-1.4,2.5-0.4,5.2,1.8,6.8c1.4,1,2.8,2.1,4.3,3.2c0.3,0.2,0.6,0.5,1,0.7c0.5,0.4,1.2,0.4,1.8,0.8
		c-1.5-0.9,0.7,0.8-0.7-0.5c0.7,0.6-0.5-0.9-0.1,0c1.1,2.4,4.7,3.2,6.8,1.8c2.4-1.6,3-4.3,1.8-6.8c-0.5-1.1-1.3-1.9-2.2-2.6
		c-0.5-0.4-0.9-0.6-1.4-0.9l-1.2-0.5c-0.5-0.2-0.5-0.2,0.1,0c-1.5-1.4-3.4-2.6-5-3.7l1.8,6.8c0.6-1.2,1.3-2.3,1.9-3.5
		c0.4-0.6,0.7-1.3,1.1-1.9c0.2-0.3,0.3-0.6,0.5-0.9c0.1-0.1,0.5-1,0.2-0.5c-0.2,0.4,0.1-0.2,0.2-0.3c0.2-0.2,0.4-0.4,0.5-0.6
		c0.5-0.6,1-1.3,1.5-2c1.2-2.1,1.3-4.4,0.3-6.6c-2.8-5.9-12.8-7.3-16.1-1.1c-1.6,3.1,0.3,7.9,4.3,7.5l0,0l-4.3-7.5
		c-0.7,1.4-1.4,2.7-2.1,4.1c-1.1,2.6-2.1,5.2-3.1,7.8l9.8,1.3c-0.1-1.4-0.3-2.8-0.4-4.2c-0.1-1.2-0.3-2.4-0.1-3.5
		c0.3-2.5-2.5-5.2-5-5l0,0l4.8,6.3c0.3-1.4,0.5-2.8,0.1-4.2c-0.4-1.8-1.8-3.5-3.3-4.4c-2.4-1.4-5.2-1.4-7.9-1
		c-2.7,0.4-5.3,2.4-6,5.2c-0.6,2.4,0.3,5.2,0.8,7.6c0.4,2.2,0.9,4.4,1.3,6.7c0.2,1.1,0.4,2.2,0.6,3.2c0.1,0.6,0.2,1.1,0.3,1.7
		c0.1,0.3,0.1,0.6,0.2,1c0,0.2,0.3,1.5,0.1,0.6c-0.1-0.7,0-0.2,0,0c0,0.3,0,0.6,0,0.8c0,0.8,0.2,1.6,0.4,2.4
		c0.4,1.3,1.1,2.5,2.1,3.4c2.4,2.3,5.9,1.8,8.8,1.3c3.4-0.6,6.2-2.9,6.3-6.5c0-0.7,0-1.5-0.2-2.2c0-0.1-0.6-2.1-0.9-2.1
		c0.3,0,0.2,1,0.1,0.1c0-0.4-0.2-0.7-0.2-1.1c-0.1-0.7-0.3-1.3-0.4-2c-2.8,1.6-5.6,3.2-8.4,4.9c1.9,2,3.7,4.2,5.9,6
		c1.3,1.1,2.6,2.2,4.3,2.7c1.5,0.5,3.4,0.5,4.8-0.2l-6.2-3.5l0,0c0.4,2.5,3.8,4.4,6.2,3.5c2.1-0.9,4.1-2,5.2-4.1
		c1.2-2.3,1.2-4.8,0.4-7.2c-0.8-2.5-3.5-4.3-6.2-3.5C288.8,68.8,287.1,71.5,287.9,74.2L287.9,74.2z"/>
	<path class="st0" d="M298,72.9c-1-4.4-1.9-8.7-2.9-12.8c-0.1-0.5-0.3-1-0.6-1.4c-0.3-0.4-0.5-0.8-0.8-1.1c-0.3-0.3-0.5-0.7-0.7-1
		c-0.2-0.3-0.4-0.6-0.4-0.9c-0.1-0.5-0.2-0.9-0.2-1.4c0-0.5,0-0.9,0.1-1.2c0.1-0.4,0.4-0.7,0.8-0.9c0.4-0.3,0.9-0.4,1.6-0.5
		c0.8-0.1,1.6-0.1,2.4,0.1s1.7,0.3,2.4,0.6c0.8,0.3,1.4,0.6,1.9,1.1c0.5,0.4,0.8,0.9,0.9,1.4c0.1,0.4,0.1,0.8,0.1,1.2
		c0,0.4,0,0.8,0,1.2c0,0.4,0,0.8,0,1.3c0,0.4,0,0.9,0.1,1.4c0.1,0.3,0.2,0.9,0.3,1.7c0.2,0.8,0.4,1.7,0.6,2.8
		c0.2,1.1,0.5,2.2,0.7,3.4c0.2,1.2,0.5,2.4,0.7,3.5c0.4,0.5,0.7,0.9,1,1.3c0.3,0.4,0.6,0.7,0.9,1.1c0.3,0.3,0.5,0.7,0.7,1
		c0.2,0.3,0.3,0.7,0.4,1.1c0.3,1.9-1.8,2.7-6.3,2.6c-0.9,0-1.8-0.3-2.5-0.9c-0.8-0.6-1.2-1.4-1.4-2.4
		C297.7,74.4,297.8,73.7,298,72.9L298,72.9z"/>
	<path class="st0" d="M302.8,71.6c-0.5-2.4-1.1-4.8-1.6-7.2c-0.5-2.3-0.9-4.8-1.8-7c-0.6-1.4-1.5-2.4-2.4-3.7
		c0.1,0.2,0.4,0.8,0.1,0.1c0,0.1,0.6,0.9,0.2,0.3c-0.3-0.5,0,0.5,0-0.1c0-0.8-0.4,1.4-0.8,1.8c-0.3,0.3-0.7,0.5-1.1,0.7
		c0.1-0.1,0.7,0,0.1,0c-0.7,0,0.7,0,0.9,0c0.9,0,0.1,0-0.1,0c0.3,0.1,0.5,0.1,0.8,0.2c0.3,0.1,0.5,0.2,0.8,0.2
		c0.8,0.2-0.1-0.1-0.1-0.1c0.2-0.2,1.6,1.3,0.5,0.2c-0.3-0.3-0.6-0.7-0.7-1c0-0.2,0-0.8-0.1-0.3c-0.2,1-0.1,2.2-0.1,3.2
		c0.1,2.3,0.7,4.5,1.2,6.7c0.5,2.2,0.8,4.3,1.4,6.5c0.4,1.6,1.5,2.8,2.6,4.1c0.1,0.2,0.3,0.4,0.4,0.5c-0.6-0.8-0.2-0.2-0.1,0
		c0.2,0.3,0.2,0.7,0-0.1c0,0,0-1.1-0.1-0.6c0-0.9,0.4-1.8,1-2.4c-0.4,0.4,1.1-0.8,0.6-0.4c-0.5,0.3-0.4-0.1,0.5-0.2
		c-0.3,0-0.7,0.2-1,0.3c-0.9,0.2,0.4-0.1,0.4,0c0,0-0.8,0.1-0.9,0.1c-0.5,0-1.1,0-1.6,0c-0.7,0.1,0.8,0.3,0.2,0
		c-0.5-0.2,0.7,0.5,0,0c0.1,0.1,0.7,0.7,0.2,0.1c0.3,0.3,0.5,0.6,0.6,1c-0.2-0.8-0.1,0-0.1,0.2c0-1-0.3,0.8,0-0.4
		c0.6-2.5-0.8-5.5-3.5-6.2c-2.6-0.6-5.5,0.8-6.2,3.5c-1,4.1,0.4,8.5,4.2,10.6c2.8,1.6,6.7,1.4,9.8,0.7c2.6-0.6,5.1-2.5,5.7-5.2
		c0.8-4.1-1.9-6.9-4.2-9.9l1.3,2.2c-0.8-3.6-1.6-7.1-2.3-10.7c0-0.1-0.1-0.3-0.1-0.4c-0.2-0.6,0.1,0.3,0,0.4c0.1-0.1,0-1,0-1.1
		c0-0.9,0.1-1.8,0.1-2.7c-0.2-3-1.6-5.3-4.2-6.8c-3.9-2.3-10.1-3-13.8,0.1c-2.4,2-2.6,5.1-2.1,8c0.2,1.1,0.6,2,1.3,2.9
		c0.3,0.4,0.6,0.8,0.9,1.2c0.3,0.4-0.1-0.1-0.1-0.2c0.1,0.2,0.3,0.4,0.4,0.6c0.1,0.1,0.4,0.9,0.2,0.3c-0.3-0.7,0,0.2,0.1,0.4
		c0.1,0.3,0.1,0.6,0.2,0.9c0.1,0.5,0.2,1,0.4,1.6c0.2,1.1,0.5,2.1,0.7,3.2c0.5,2.3,1,4.6,1.6,7c0.6,2.6,3.7,4.3,6.2,3.5
		C302,76.9,303.4,74.3,302.8,71.6L302.8,71.6z"/>
	<path class="st24" d="M55.4,122.8c-0.3,0.1-1.3,0.1-3.1,0c-1.9-0.1-3-0.3-3.4-0.5c-0.7-0.4-1.1-0.8-1.2-1.2c0-0.1,0-0.2,0.1-0.4
		c0.1-0.1,0.1-0.4,0-0.7c-1.4-7.4-2.7-15.3-4.1-23.4c0-0.1-0.1-0.1-0.3-0.1c-0.2,0-0.4-0.1-0.7-0.2c-0.3-0.1-0.5-0.3-0.7-0.6
		c-0.2-0.3-0.4-0.7-0.5-1.2c-0.1-0.4-0.2-0.8-0.4-1.2c-0.2-0.4-0.5-0.9-0.7-1.3c-0.2-0.4-0.4-0.8-0.6-1.1c-0.1-0.3-0.2-0.6-0.1-0.7
		c0-0.1,0.5-0.2,1.3-0.4c0.8-0.1,1.9-0.3,3.1-0.5c1.2-0.2,2.6-0.4,4-0.6c1.4-0.2,2.8-0.4,4.1-0.6c1.3-0.2,2.3-0.4,3.2-0.6
		c0.9-0.2,1.4-0.3,1.6-0.3c0.3-0.1,0.6-0.1,0.9-0.2c0.3,0,0.6-0.1,0.9-0.1c0.6-0.1,1.6,0,2.9,0.4c1.3,0.4,2.1,0.9,2.3,1.4
		c0,0.1,0.1,0.4,0.2,0.9c0.1,0.5,0.1,0.8,0,1.1c0,0.1-0.1,0.3-0.1,0.5c0,0.2,0,0.5,0,0.7c0,0.2,0.1,0.5,0.1,0.6c0,0.2,0,0.3,0,0.4
		c1.5,8.8,3,16.9,4.5,24.1c0,0,0.1,0.2,0.2,0.3c0.1,0.2,0.3,0.5,0.5,0.9c0.6,1.5,0.5,2.3-0.1,2.7c-0.2,0.1-0.4,0.1-0.6,0.1
		c-1,0.1-2.4,0-4.1-0.4c-1.8-0.4-3-0.9-3.5-1.5c-0.1-0.3-0.2-0.6-0.3-1c0-0.1,0-0.2,0-0.3c0-0.1,0.1-0.3,0.2-0.4
		c0.1-0.1,0.1-0.3,0.2-0.4c0.1-0.1,0.1-0.2,0.1-0.2c-1.4-7-2.8-14.6-4.2-22.7c-1,0.3-2.1,0.5-3.1,0.6c-1,0.1-2.1,0.4-3.1,0.8
		c1.4,8.2,2.8,16,4.2,23.2c0.1,0.3,0.2,0.6,0.4,0.8c0.2,0.2,0.3,0.4,0.4,0.5C56.2,121.7,56.1,122.5,55.4,122.8L55.4,122.8z"/>
	<path class="st24" d="M82.8,95.8c1.7,0.5,3.2,1.8,4.4,3.8c1.1,1.8,1.9,4,2.4,6.5c0.7,3.4,0.6,6.2-0.3,8.7c-0.9,2.6-2.5,3.8-4.8,3.9
		c-0.8-0.1-2.1-0.1-3.7-0.1c-1.2,0-2.3,0-3.3-0.1c-1.7-0.1-3.3-1.1-4.6-2.9c-1.3-1.7-2.1-3.8-2.7-6.4c-0.5-2.6-0.5-5.1,0-7.4
		c0.6-2.5,1.7-4.5,3.4-5.7c0.3-0.2,0.7-0.3,1.2-0.4c0.6-0.1,1.7,0,3.5,0.2C79.6,95.7,81,95.7,82.8,95.8L82.8,95.8z M78.7,100
		c-0.8,0.1-1.3,1-1.7,2.8c-0.3,1.8-0.4,3.4-0.1,4.9c0.4,1.8,0.9,3.5,1.8,5.1c0.9,1.7,1.8,2.6,2.5,2.7c1,0,1.6-0.9,1.9-2.8
		c0.3-1.9,0.2-4-0.2-6.3c-0.3-1.3-0.7-2.6-1.3-3.8C80.8,100.8,79.8,99.9,78.7,100L78.7,100z"/>
	<path class="st24" d="M93.4,98.9c0.4-0.8,0.9-1.4,1.5-1.7c0.6-0.3,1.2-0.5,1.9-0.7c-0.5-0.3-1.1-0.6-1.9-1
		c-0.7-0.4-1.4-0.8-2.1-1.3c-0.7-0.5-1.3-1-1.8-1.6c-0.5-0.6-0.8-1.2-0.9-1.9c-0.1-0.7-0.1-1.4-0.1-2.2c0.1-0.8,0.2-1.5,0.4-2.2
		c0.2-0.7,0.6-1.3,1-1.8c0.4-0.5,1-0.8,1.6-0.9c0.7-0.1,1.4-0.2,2.4-0.2c0.9,0,1.9,0,2.9,0.1c1,0,2.1,0.1,3.1,0.2c1,0.1,2,0.1,3,0.1
		c0,0,0.1-0.1,0.3-0.2c0.1-0.1,0.4-0.2,0.7-0.3c0.2,0,0.4-0.1,0.7-0.1c0.3,0,0.6,0,1,0c0.3,0,0.6,0.1,0.9,0.3
		c0.2,0.2,0.4,0.4,0.5,0.8c0.1,0.6,0.1,1.2,0,1.9c-0.1,0.7-0.3,1.4-0.5,2.1c-0.3,0.7-0.6,1.2-1,1.7c-0.4,0.5-0.9,0.8-1.4,0.9
		c-0.2,0-0.5,0-0.7-0.1c-0.2-0.1-0.7-0.2-1.3-0.4c-2.7-0.7-4.3-1-5-0.9c-0.6,0.1-0.9,0.5-0.8,1.1c0,0.3,0.4,0.6,0.9,1
		c0.6,0.4,1.2,0.8,1.9,1.1c0.7,0.4,1.3,0.7,2,1c0.6,0.3,1.1,0.5,1.3,0.5c1.4,0.6,2.5,1.3,3.4,2c0.9,0.7,1.7,1.4,2.3,2.2
		c0.6,0.8,1.1,1.7,1.4,2.6c0.4,0.9,0.6,2,0.9,3.1c0.2,0.9,0.2,2,0,3.2c-0.2,1.3-0.5,2.5-1.1,3.6c-0.6,1.2-1.4,2.2-2.5,3.1
		c-1.1,0.9-2.5,1.4-4.2,1.7c-1.1,0.2-2.3,0.2-3.6,0.1c-1.3-0.1-2.6-0.4-3.8-0.8c-1.2-0.4-2.2-1.1-3.1-1.9c-0.9-0.8-1.5-1.9-1.7-3.1
		c-0.2-1.1-0.3-2.2-0.3-3.3c0-1.1,0.1-2.1,0.3-3c0.2-1,0.4-1.9,0.7-2.7C92.8,100.3,93.1,99.5,93.4,98.9L93.4,98.9z M103.3,112.3
		c0.4-0.4,0.7-0.9,1-1.4c0.2-0.5,0.4-1.1,0.5-1.7c0.1-0.6,0.1-1.2,0.1-1.8c0-0.6-0.1-1.2-0.2-1.7c-0.1-0.3-0.2-0.7-0.4-1.2
		c-0.2-0.5-0.5-1-0.8-1.5c-0.3-0.5-0.7-1-1.1-1.5c-0.4-0.5-0.8-0.9-1.2-1.2c-0.5,0.3-1,0.7-1.4,1.3c-0.4,0.6-0.7,1.3-1,2.1
		c-0.3,0.8-0.4,1.7-0.5,2.6c-0.1,0.9,0,1.8,0.2,2.6c0.2,0.9,0.7,1.7,1.7,2.3C101.1,111.9,102.2,112.3,103.3,112.3L103.3,112.3z"/>
	<path class="st24" d="M125.3,87.9c1.7,0.4,3.2,1.6,4.4,3.6c1.1,1.8,1.9,4.1,2.4,6.7c0.7,3.6,0.6,6.8-0.3,9.6
		c-0.9,3-2.5,4.5-4.8,4.6c-0.8,0-2.1,0-3.7,0c-1.2,0.1-2.3,0.1-3.3,0c-1.7-0.1-3.3-1-4.6-2.8c-1.3-1.7-2.1-3.8-2.7-6.4
		c-0.5-2.6-0.5-5.2,0-7.7c0.6-2.7,1.7-4.9,3.4-6.3c0.3-0.2,0.7-0.4,1.2-0.5c0.6-0.1,1.7-0.2,3.5-0.2C122.1,88.2,123.5,88,125.3,87.9
		z M121.2,92.8c-0.8,0.2-1.3,1.2-1.7,3.2c-0.3,1.9-0.4,3.7-0.1,5.2c0.4,1.9,0.9,3.6,1.8,5.3c0.9,1.8,1.8,2.7,2.5,2.7
		c1,0,1.6-1,1.9-3.2c0.3-2.1,0.2-4.3-0.2-6.7c-0.3-1.4-0.7-2.7-1.3-3.9C123.3,93.4,122.3,92.5,121.2,92.8L121.2,92.8z"/>
	<path class="st24" d="M156.3,80.7c0.1,0.5,0.1,1,0.1,1.6c0,0.6,0,1.2-0.1,1.8c-0.1,0.6-0.2,1.1-0.3,1.5c-0.2,0.4-0.4,0.7-0.7,0.8
		c-0.7,0.2-1.5,0.3-2.3,0.4c-0.9,0.1-1.6,0.2-2.1,0.3c0.8,0.9,1.7,1.9,2.4,3.1c0.8,1.2,1.3,2.6,1.6,4.3c0.3,1.5,0.3,3,0,4.5
		c-0.3,1.5-0.8,3-1.5,4.3c-0.8,1.3-1.8,2.5-3,3.5c-1.2,1-2.7,1.6-4.4,2c-0.8,0.2-1.7,0.2-2.6,0.1c-0.9-0.1-1.8-0.4-2.7-0.7
		c-0.9-0.3-1.8-0.8-2.6-1.2c-0.9-0.5-1.6-1-2.3-1.5c-0.7-0.6-1.2-1.1-1.7-1.7c-0.4-0.6-0.7-1.1-0.8-1.6c-1-5.4-0.8-9.9,0.5-13.2
		c1.4-3.3,3.6-5.4,6.7-6.2c0.2,0,0.4-0.1,0.8-0.2c0.4-0.1,0.8-0.2,1.3-0.3s0.9-0.2,1.4-0.3c0.4-0.1,0.8-0.2,1.2-0.2
		c1.6-0.5,2.8-0.8,3.6-1.1c0.8-0.3,1.5-0.5,1.9-0.6c0.4-0.1,0.8-0.3,1-0.3c0.3-0.1,0.6-0.2,1.1-0.4c0.4-0.1,0.7-0.2,1.1-0.2
		c0.4,0,0.7,0,1.1,0.1c0.3,0.1,0.6,0.3,0.9,0.5C156.1,79.9,156.2,80.3,156.3,80.7L156.3,80.7z M142.7,88.5c-1.3,0.7-2.2,2.1-2.7,4.2
		c-0.5,2.1-0.4,4.7,0.2,8c0.1,0.5,0.3,0.9,0.6,1.3c0.3,0.4,0.8,0.7,1.2,1c0.5,0.3,1,0.6,1.6,0.8c0.6,0.2,1.1,0.3,1.6,0.4
		c0.4-0.5,0.8-1.1,1.1-1.9c0.3-0.8,0.6-1.7,0.8-2.7c0.2-1,0.3-2,0.4-3.1c0-1.1,0-2.2-0.2-3.3c-0.3-1.4-0.7-2.5-1.4-3.2
		C145.1,89.2,144.1,88.7,142.7,88.5L142.7,88.5z"/>
	<path class="st24" d="M178.2,103.2c0.3,0.3,0.5,0.7,0.7,1c0.2,0.4,0.3,0.7,0.4,1.1c0.2,1.4-0.8,2.3-3,2.9c-0.5,0.1-1,0.2-1.6,0.1
		c-0.6,0-1.1-0.1-1.7-0.2c-0.5-0.1-1-0.3-1.4-0.6c-0.4-0.2-0.6-0.5-0.7-0.9c0-0.3,0-0.6,0-0.9c0.1-0.3,0.2-0.8,0.4-1.2
		c-0.2-1.3-0.4-2.6-0.7-3.8c-1.1,0.2-2.3,0.2-3.6,0.1c-1.3-0.1-2.5-0.5-3.6-1c-1.1-0.5-2.1-1.2-2.9-2.1c-0.8-0.9-1.4-2-1.6-3.3
		c-0.3-1.7-0.3-3.2-0.1-4.7c0.2-1.4,0.6-2.7,1.1-3.9c0.5-1.2,1.1-2.2,1.8-3.1c0.7-0.9,1.4-1.7,2.1-2.3c0.7-0.6,1.3-1.1,1.9-1.5
		c0.6-0.4,0.9-0.6,1.2-0.7c-0.4-2.3-0.8-4.6-1.2-7c-0.5-0.3-0.9-0.6-1.1-0.8c-0.2-0.3-0.4-0.5-0.4-0.9c-0.3-1.7,0.8-3,3.4-3.6
		c0.7-0.2,1.4-0.3,2-0.2c0.7,0,1.3,0.1,1.8,0.3c0.5,0.2,1,0.4,1.4,0.7c0.4,0.3,0.6,0.7,0.7,1.1c0.1,0.3-0.2,1.2-0.8,2.7
		c0.3,2,0.6,3.9,0.9,5.9c1.8-0.3,3.3-0.3,4.7-0.1c1.4,0.2,2.6,0.6,3.6,1.2c1,0.6,1.8,1.3,2.4,2.2c0.6,0.9,1,2,1.3,3.1
		c0.3,1.7,0.4,3.3,0.2,5c-0.2,1.6-0.6,3.2-1.2,4.6c-0.7,1.4-1.6,2.7-2.7,3.9c-1.2,1.2-2.6,2.1-4.3,2.7
		C177.7,100.2,178,101.7,178.2,103.2L178.2,103.2z M165.7,93.1c0.2,1.2,0.7,2.1,1.4,2.6c0.7,0.5,1.8,0.8,3.1,0.8
		c-0.7-4.2-1.5-8.5-2.2-12.7c-0.7,0.5-1.2,1.2-1.6,1.9c-0.4,0.8-0.6,1.6-0.8,2.5c-0.2,0.9-0.2,1.7-0.2,2.6
		C165.5,91.6,165.6,92.4,165.7,93.1L165.7,93.1z M176.4,93.5c0.7-0.5,1.2-1.1,1.6-1.9c0.4-0.8,0.6-1.6,0.8-2.5
		c0.1-0.9,0.2-1.8,0.1-2.8c0-1-0.1-1.9-0.3-2.8c-0.2-1.1-0.7-1.9-1.4-2.5c-0.7-0.6-1.7-0.7-3-0.3C174.9,85,175.7,89.2,176.4,93.5
		L176.4,93.5z"/>
	<path class="st24" d="M213.1,87c0.1,0.4,0,0.9-0.1,1.3c-0.1,0.5-0.3,0.9-0.7,1.4c-0.3,0.5-0.8,0.9-1.4,1.3
		c-0.6,0.4-1.3,0.7-2.1,0.9c-1.2,0.3-2.1,0.3-2.6,0.1c-0.6-0.3-0.9-0.9-1.1-1.9c-0.1-0.3-0.3-0.6-0.6-1c-0.2-0.4-0.5-0.8-0.7-1.2
		c-0.2-0.4-0.5-0.8-0.7-1.2c-0.2-0.4-0.4-0.8-0.5-1.1c-0.3,0.9-0.6,1.8-0.8,2.7c-0.3,0.9-0.7,1.8-1.1,2.6c-0.4,0.8-1,1.5-1.6,2.2
		c-0.6,0.6-1.4,1-2.4,1.3c-0.9,0.2-1.8,0.2-2.8-0.1c-1-0.3-1.8-0.9-2.7-1.6c-0.8-0.8-1.5-1.7-2.2-2.8c-0.6-1.1-1.1-2.4-1.3-3.8
		c-0.5-2.8-0.7-5.2-0.5-7.4c0.1-2.2,0.5-4,1-5.6c0.6-1.6,1.4-2.8,2.3-3.8c1-1,2.1-1.6,3.3-1.9c1-0.3,1.9-0.3,2.6-0.1
		c0.7,0.2,1.3,0.5,1.9,0.9c0.5,0.4,1,1,1.4,1.6c0.4,0.7,0.7,1.3,1.1,2c0.1-1.3,0.2-2.5,0.3-3.8c-0.2-1-0.1-1.7,0.3-2.1
		c0.4-0.4,1-0.8,1.8-1c0.3-0.1,0.8-0.1,1.4-0.1c0.6,0,1.2,0.1,1.9,0.3c0.6,0.2,1.2,0.4,1.7,0.7c0.5,0.3,0.8,0.7,0.9,1.2
		c0.1,0.5,0.1,1.2,0,1.9c-0.1,0.7-0.3,1.6-0.5,2.5c-0.2,0.9-0.5,1.9-0.7,2.9c-0.2,1.1-0.4,2.2-0.5,3.3c0.4,0.9,1,1.9,1.6,2.9
		c0.6,1,1.2,2,1.8,2.8c0.6,0.9,1.1,1.7,1.5,2.3C212.8,86.3,213.1,86.7,213.1,87L213.1,87z M195.5,74c-0.3,0.1-0.6,0.5-0.9,1.2
		c-0.2,0.7-0.4,1.5-0.5,2.5c-0.1,0.9-0.1,1.9-0.1,3c0,1.1,0.1,2,0.3,2.8c0.2,1.4,0.6,2.4,1.2,3.1c0.6,0.7,1.2,1.2,2,1.4
		c0.5-0.8,0.9-1.9,1.3-3.3c0.4-1.4,0.7-3.1,1-5.1c-0.7-2.1-1.5-3.6-2.2-4.5C196.8,74.2,196.1,73.8,195.5,74L195.5,74z"/>
	<path class="st24" d="M216,85.4c-1-4.4-1.9-8.6-2.9-12.7c-0.1-0.5-0.3-1-0.6-1.4c-0.3-0.4-0.5-0.7-0.8-1c-0.3-0.3-0.5-0.6-0.7-0.9
		c-0.2-0.3-0.4-0.6-0.4-0.9c-0.1-0.5-0.2-1-0.2-1.4c0-0.5,0-0.9,0.1-1.3c0.1-0.4,0.4-0.8,0.8-1.1c0.4-0.3,0.9-0.6,1.6-0.7
		c0.8-0.2,1.6-0.2,2.4-0.2c0.9,0,1.7,0.1,2.4,0.3c0.8,0.2,1.4,0.4,1.9,0.8c0.5,0.3,0.8,0.7,0.9,1.2c0.1,0.4,0.1,0.8,0.1,1.2
		c0,0.4,0,0.8,0,1.2c0,0.4,0,0.8,0,1.2c0,0.4,0,0.9,0.1,1.4c0.1,0.3,0.2,0.8,0.3,1.6c0.2,0.8,0.4,1.7,0.6,2.7c0.2,1,0.5,2.1,0.7,3.3
		c0.3,1.2,0.5,2.3,0.7,3.3c0.4,0.4,0.7,0.7,1,1c0.3,0.3,0.6,0.6,0.9,0.9c0.3,0.3,0.5,0.6,0.7,0.9c0.2,0.3,0.3,0.7,0.4,1.1
		c0.3,1.8-1.8,3.3-6.3,4.4c-0.9,0.2-1.8,0.1-2.5-0.3c-0.8-0.4-1.2-1.2-1.4-2.2C215.7,87,215.8,86.2,216,85.4L216,85.4z"/>
	<path class="st24" d="M246.9,71.2c0.3,1.9,0.4,3.5,0.2,5c-0.2,1.4-0.5,2.7-1.1,3.7c-0.6,1-1.3,1.9-2.1,2.5c-0.9,0.6-1.8,1-2.8,1.2
		c-0.7,0.2-1.5,0.1-2.4-0.1c-0.8-0.2-2-0.6-3.4-1.1c0.5,1.9,1,3.9,1.5,5.9c0.1,0.3,0.3,0.6,0.4,0.8c0.2,0.2,0.4,0.5,0.6,0.8
		c0.2,0.3,0.4,0.5,0.5,0.8c0.2,0.3,0.3,0.6,0.3,0.9c0.1,0.4-0.1,0.9-0.4,1.2c-0.3,0.4-0.8,0.8-1.4,1.1c-0.6,0.3-1.2,0.6-1.9,0.9
		c-0.7,0.3-1.4,0.5-2,0.6c-0.4,0.1-0.8,0.1-1.2,0.1c-0.4,0-0.8-0.1-1.2-0.2c-0.4-0.1-0.7-0.4-0.9-0.7c-0.3-0.3-0.4-0.8-0.5-1.3
		c0-0.3-0.1-0.6-0.1-1c0-0.4,0-0.7,0-1c0-0.3,0-0.6,0.1-0.8c0-0.2,0-0.3,0-0.4c-1-5.8-1.9-11.2-2.9-16.4c-0.4-2-0.4-3.8-0.2-5.3
		c0.3-1.6,0.7-2.9,1.4-4c0.7-1.1,1.5-2,2.4-2.6c0.9-0.7,1.8-1.1,2.7-1.2c0.8-0.2,1.8-0.2,3-0.2c1.1,0,2.2,0.1,3.3,0.1
		c0.5,0,1.1,0.3,1.9,0.7c0.8,0.4,1.5,1,2.3,1.9c0.8,0.8,1.5,1.9,2.2,3.2C246,67.7,246.6,69.3,246.9,71.2L246.9,71.2z M235,64.2
		c-0.5,0.4-0.9,0.9-1.2,1.6c-0.3,0.7-0.5,1.5-0.6,2.4c-0.1,0.9-0.1,1.8-0.1,2.8c0.1,1,0.2,1.8,0.4,2.6c0.2,0.9,0.5,1.7,1,2.4
		c0.5,0.7,1,1.2,1.7,1.7c0.6,0.4,1.3,0.8,1.9,1c0.7,0.2,1.3,0.4,1.9,0.4c0.4-0.8,0.6-1.8,0.5-3.2c-0.1-1.4-0.3-3.3-0.8-5.8
		c-0.1-0.7-0.4-1.4-0.8-2.1c-0.4-0.7-0.8-1.3-1.3-1.8c-0.5-0.5-0.9-1-1.4-1.3C235.8,64.5,235.4,64.3,235,64.2L235,64.2z"/>
	<path class="st24" d="M274.3,75.3c0.1,0.4,0,0.8-0.1,1.2c-0.1,0.4-0.3,0.8-0.7,1.2c-0.3,0.4-0.8,0.7-1.4,1
		c-0.6,0.3-1.3,0.5-2.1,0.6c-1.2,0.1-2.1,0.1-2.6-0.3c-0.6-0.3-0.9-1-1.1-2c-0.1-0.3-0.3-0.7-0.6-1c-0.2-0.4-0.5-0.8-0.7-1.2
		c-0.2-0.4-0.5-0.8-0.7-1.2c-0.2-0.4-0.4-0.8-0.5-1.1c-0.3,0.8-0.5,1.6-0.8,2.5c-0.3,0.8-0.7,1.6-1.1,2.4c-0.4,0.7-1,1.4-1.6,1.9
		c-0.6,0.5-1.4,0.9-2.4,1c-0.9,0.1-1.8,0-2.8-0.4c-1-0.4-1.8-1-2.7-1.8c-0.8-0.8-1.5-1.8-2.2-2.9c-0.6-1.1-1.1-2.4-1.3-3.7
		c-0.5-2.6-0.7-4.9-0.5-6.8c0.1-1.9,0.5-3.5,1-4.8c0.6-1.3,1.4-2.3,2.3-3c1-0.7,2.1-1.2,3.3-1.3c1-0.1,1.9-0.1,2.6,0.1
		c0.7,0.2,1.3,0.5,1.9,0.9c0.5,0.4,1,0.9,1.4,1.5c0.4,0.6,0.7,1.2,1.1,1.9c0.1-1.1,0.2-2.2,0.3-3.3c-0.2-0.9-0.1-1.4,0.3-1.8
		c0.4-0.3,1-0.6,1.8-0.7c0.3,0,0.8,0,1.4,0.1c0.6,0.1,1.2,0.2,1.9,0.4c0.6,0.2,1.2,0.4,1.7,0.8c0.5,0.3,0.8,0.7,0.9,1.1
		c0.1,0.5,0.1,1,0,1.7c-0.1,0.6-0.3,1.4-0.5,2.2c-0.2,0.8-0.5,1.6-0.7,2.6c-0.2,0.9-0.4,1.9-0.5,2.9c0.4,0.9,1,1.8,1.6,2.9
		c0.6,1,1.2,2,1.8,2.9c0.6,0.9,1.1,1.7,1.5,2.4C274.1,74.6,274.3,75.1,274.3,75.3L274.3,75.3z M261.5,46.6c0.2,0.2,0.1,0.4-0.2,0.8
		c-0.3,0.3-0.4,0.5-0.4,0.6c0.1,0.1,0,0.6-0.3,1.3c-0.4,0.9-0.5,1.3-0.5,1.3c0.1,0.7-0.1,1.2-0.4,1.4c-0.1,0.1-0.3,0.1-0.4,0.1
		c-0.2,0-0.6,0-1-0.1c-0.6-0.1-1-0.1-1.1-0.2c-1-0.1-1.5-0.1-1.8-0.1c-0.7-0.1-1.1-0.2-1.3-0.4c-0.1-0.1,0.2-0.6,0.8-1.6
		c0.8-1.2,1.2-1.8,1.3-2c0-0.1,0.1-0.4,0.1-1c0.1-0.5,0.2-0.7,0.4-0.7c0.6-0.2,1.4-0.2,2.7,0C260.5,46,261.2,46.3,261.5,46.6
		L261.5,46.6z M256.7,61.2c-0.3,0-0.6,0.4-0.9,1c-0.2,0.6-0.4,1.3-0.5,2.1c-0.1,0.8-0.1,1.7-0.1,2.7c0,1,0.1,1.8,0.3,2.6
		c0.2,1.3,0.6,2.3,1.2,3c0.6,0.7,1.2,1.2,2,1.6c0.5-0.7,0.9-1.7,1.3-2.9c0.4-1.2,0.7-2.8,1-4.6c-0.7-2-1.5-3.4-2.2-4.3
		C258.1,61.6,257.4,61.2,256.7,61.2z"/>
	<path class="st24" d="M293.3,73.3c0.1,0.1,0.1,0.3,0.1,0.6c0.3,1.1,0.3,2-0.1,2.8c-0.4,0.8-1.1,1.4-2.2,1.8c0,0,0,0,0,0
		c-0.3,0.1-0.5,0.2-0.7,0.2c-0.2,0-0.4,0.1-0.5,0.1c-0.8,0-1.5-0.3-2.2-0.9c-0.4-0.4-0.8-0.7-1.3-1.1c-1.8-1.9-3.6-3.8-5.4-5.6
		c0.2,1.2,0.5,2.3,0.8,3.5c0,0.2,0.1,0.4,0.3,0.7c0.1,0.2,0.3,0.4,0.3,0.6c0.1,0.2,0.1,0.4,0.2,0.5c0.1,0.5-0.1,1.1-0.5,1.6
		c-0.6,0.5-2.1,0.8-4.2,0.9c-1.3,0.1-2.1-0.2-2.4-0.8c-0.2-0.2-0.3-0.5-0.4-0.8c-0.1-0.3-0.1-0.6-0.2-0.9c0-0.7,0-1.1,0-1.3
		c-1-6-2.1-11.6-3.1-16.7c-0.1-0.3-0.1-0.6-0.2-0.9c0-0.4-0.1-0.8-0.1-1.2c0.2-1,1.1-1.5,2.5-1.7c2-0.2,3.4,0,4.2,0.7
		c0.2,0.2,0.4,0.4,0.5,0.6c0.2,0.2,0.3,0.5,0.3,0.7c0.1,0.3,0,0.8-0.1,1.5c0,0,0,0,0,0c-0.1,0.5-0.1,0.9,0,1.1c0,0.4,0.1,1,0.1,1.8
		c0,0.8,0.2,2.4,0.4,4.7c2-5.1,3.2-8,3.8-9.1c0.1-0.2,0.3-0.4,0.4-0.7c0.2-0.3,0.3-0.6,0.5-0.9c0,0,0,0,0,0c0.3-0.6,0.8-1.1,1.7-1.4
		c0.1,0,0.2-0.1,0.3-0.1c0.1,0,0.3-0.1,0.5-0.1c1-0.1,2,0.1,3,0.7c0.5,0.3,1,0.7,1.3,1.1c0.3,0.4,0.5,0.8,0.6,1.2
		c0,0.2,0,0.5-0.1,0.8c-0.1,0.3-0.3,0.6-0.5,0.9c-0.2,0.3-0.5,0.6-0.8,1c-0.3,0.3-0.5,0.6-0.8,0.9c-1.4,2.4-2.7,4.8-4.1,7.3
		c1.8,1.3,3.6,2.7,5.4,4C292.1,71.7,292.9,72.4,293.3,73.3L293.3,73.3z"/>
	<path class="st24" d="M298.7,73.4c-1-4.4-1.9-8.7-2.9-12.8c-0.1-0.5-0.3-1-0.6-1.4c-0.3-0.4-0.5-0.8-0.8-1.1
		c-0.3-0.3-0.5-0.7-0.7-1c-0.2-0.3-0.4-0.6-0.4-0.9c-0.1-0.5-0.2-0.9-0.2-1.4c0-0.5,0-0.9,0.1-1.2c0.1-0.4,0.4-0.7,0.8-0.9
		c0.4-0.3,0.9-0.4,1.6-0.5c0.8-0.1,1.6-0.1,2.4,0.1c0.9,0.1,1.7,0.3,2.4,0.6c0.8,0.3,1.4,0.6,1.9,1.1c0.5,0.4,0.8,0.9,0.9,1.4
		c0.1,0.4,0.1,0.8,0.1,1.2c0,0.4,0,0.8,0,1.2c0,0.4,0,0.8,0,1.3c0,0.4,0,0.9,0.1,1.4c0.1,0.3,0.2,0.9,0.3,1.7
		c0.2,0.8,0.4,1.7,0.6,2.8c0.2,1.1,0.5,2.2,0.7,3.4c0.2,1.2,0.5,2.4,0.7,3.5c0.4,0.5,0.7,0.9,1,1.3c0.3,0.4,0.6,0.7,0.9,1.1
		c0.3,0.3,0.5,0.7,0.7,1c0.2,0.3,0.3,0.7,0.4,1.1c0.3,1.9-1.8,2.7-6.3,2.6c-0.9,0-1.8-0.3-2.5-0.9c-0.8-0.6-1.2-1.4-1.4-2.4
		C298.4,74.8,298.5,74.1,298.7,73.4L298.7,73.4z"/>
</g>
</svg>
