<?xml version="1.0" encoding="UTF-8" standalone="no"?>
<!-- Generator: Adobe Illustrator 27.4.0, SVG Export Plug-In . SVG Version: 6.00 Build 0)  -->

<svg
   version="1.1"
   id="svg1155"
   x="0px"
   y="0px"
   viewBox="0 0 1885.2 1044"
   style="enable-background:new 0 0 1885.2 1044;"
   xml:space="preserve"
   sodipodi:docname="background.svg"
   inkscape:version="1.2.2 (732a01da63, 2022-12-09)"
   xmlns:inkscape="http://www.inkscape.org/namespaces/inkscape"
   xmlns:sodipodi="http://sodipodi.sourceforge.net/DTD/sodipodi-0.dtd"
   xmlns:xlink="http://www.w3.org/1999/xlink"
   xmlns="http://www.w3.org/2000/svg"
   xmlns:svg="http://www.w3.org/2000/svg">
<style
   type="text/css"
   id="style2">
	.st0{fill:#A9D04A;}
	.st1{fill:#903E37;}
	.st2{clip-path:url(#SVGID_00000143602706306581829810000009424557718980290456_);}
	.st3{fill:#EE4439;}
	.st4{fill:#F06157;}
	.st5{fill:#F37E63;}
	.st6{fill:#0D2F4B;}
	.st7{fill:#AA1E38;}
	.st8{fill:#BF1F3D;}
	.st9{fill:#EE4966;}
	.st10{fill:#008356;}
	.st11{fill:#00AB7E;}
	.st12{fill:#27B793;}
	.st13{fill:#F58A2F;}
	.st14{fill:#FFCC02;}
	.st15{fill:#FFDF93;}
	.st16{fill:#FFFFFF;}
	.st17{fill:#FAAC18;}
	.st18{fill:#ED325B;}
	.st19{fill:#9B1B33;}
	.st20{fill:#C3E1F5;}
	.st21{fill:#F287A2;}
	.st22{fill:#F3782D;}
	.st23{fill:none;stroke:#FFFFFF;stroke-width:0.8919;stroke-miterlimit:10;}
	.st24{fill:#752C29;}
	.st25{fill:#0076BA;}
	.st26{fill:#00A1DA;}
	.st27{fill:#C9655F;}
	.st28{fill:#0095CF;}
	.st29{fill:#3BC0E7;}
	.st30{fill:#071D2F;}
	.st31{fill:#234466;}
	.st32{fill:#BA514F;}
	.st33{fill:#F7AB9D;}
	.st34{fill:#5C1D1A;}
</style>
<sodipodi:namedview
   bordercolor="#666666"
   borderopacity="1"
   fit-margin-bottom="0"
   fit-margin-left="0"
   fit-margin-right="0"
   fit-margin-top="0"
   gridtolerance="10"
   guidetolerance="10"
   id="namedview1157"
   inkscape:current-layer="svg1155"
   inkscape:cx="1655.159"
   inkscape:cy="626.9874"
   inkscape:pageopacity="0"
   inkscape:pageshadow="2"
   inkscape:window-height="705"
   inkscape:window-maximized="1"
   inkscape:window-width="1366"
   inkscape:window-x="-8"
   inkscape:window-y="-8"
   inkscape:zoom="0.22807476"
   objecttolerance="10"
   pagecolor="#ffffff"
   showgrid="false"
   showguides="false"
   inkscape:showpageshadow="2"
   inkscape:pagecheckerboard="0"
   inkscape:deskcolor="#d1d1d1">
	</sodipodi:namedview>
<defs
   id="defs8">
	
		<inkscape:path-effect
   apply_no_weight="true"
   apply_with_weight="true"
   effect="bspline"
   helper_size="0"
   id="path-effect1851"
   is_visible="true"
   only_selected="false"
   steps="2"
   weight="33.333333">
		</inkscape:path-effect>
	
		<inkscape:path-effect
   apply_no_weight="true"
   apply_with_weight="true"
   effect="bspline"
   helper_size="0"
   id="path-effect1851-6"
   is_visible="true"
   only_selected="false"
   steps="2"
   weight="33.333333">
		</inkscape:path-effect>
	
		<inkscape:path-effect
   apply_no_weight="true"
   apply_with_weight="true"
   effect="bspline"
   helper_size="0"
   id="path-effect1851-6-5"
   is_visible="true"
   only_selected="false"
   steps="2"
   weight="33.333333">
		</inkscape:path-effect>
</defs>
<g
   id="g672"
   transform="matrix(-1,0,0,1,1872.1,0)">
	<rect
   x="-13.1"
   y="-56.400002"
   class="st0"
   width="1898.3"
   height="1100.4"
   id="rect10" />
	<path
   class="st1"
   d="m 1141.3,-26.7 v 0 c 0,0 0,0.1 0,0 0,0.1 0,0 0,0 z"
   id="path12" />
	<g
   id="g670">
		<defs
   id="defs15">
			<rect
   id="SVGID_1_"
   x="-13.1"
   y="-221.3"
   width="1898.3"
   height="1265.3" />
		</defs>
		<clipPath
   id="SVGID_00000111886075241658997210000002118209978379550387_">
			<use
   xlink:href="#SVGID_1_"
   style="overflow:visible"
   id="use17" />
		</clipPath>
		<g
   clip-path="url(#SVGID_00000111886075241658997210000002118209978379550387_)"
   id="g668">
			<g
   id="g32">
				<g
   id="g30">
					<path
   class="st3"
   d="m 1022.3,888.4 c -0.4,20.3 -5.5,39.4 -14.1,56.3 -1.6,3.1 -3.3,6.1 -5.1,9.1 -19.8,32.2 -53.3,55.1 -92.3,60.6 -3.4,0.5 -6.8,0.8 -10.3,1.1 -3.6,0.2 -7.2,0.3 -10.9,0.2 -25,-0.5 -48.2,-8 -67.8,-20.7 -3.1,-2 -6.2,-4.2 -9.1,-6.5 -10.8,-8.4 -20.2,-18.4 -27.9,-29.7 -7.2,-10.6 -12.9,-22.2 -16.7,-34.7 -1,-3.2 -1.9,-6.5 -2.6,-9.8 -2.3,-10 -3.4,-20.5 -3.1,-31.3 0.4,-21.9 6.3,-42.4 16.2,-60.3 1.7,-3.1 3.6,-6.1 5.5,-9.1 13.3,-19.9 31.8,-35.9 53.7,-46 3,-1.4 6.1,-2.7 9.3,-3.9 14.9,-5.5 31.1,-8.4 47.9,-8.1 17.2,0.4 33.5,4 48.4,10.4 3.5,1.5 7,3.2 10.3,5 3.4,1.8 6.7,3.8 9.8,5.9 21.3,14 38.3,34.1 48.4,57.8 1.3,3.1 2.5,6.2 3.6,9.4 4.7,13.9 7.1,28.8 6.8,44.3 z"
   id="path20" />
					<path
   class="st1"
   d="m 1022.3,888.4 c -0.4,20.3 -5.5,39.4 -14.1,56.3 -1.6,3.1 -3.3,6.1 -5.1,9.1 -19.8,32.2 -53.3,55.1 -92.3,60.6 -3.4,0.5 -6.8,0.8 -10.3,1.1 -3.6,0.2 -7.2,0.3 -10.9,0.2 -25,-0.5 -48.2,-8 -67.8,-20.7 -3.1,-2 -6.2,-4.2 -9.1,-6.5 -10.8,-8.4 -20.2,-18.4 -27.9,-29.7 18.1,18.9 52.9,46.7 98.3,44.6 68.2,-3.2 102.4,-42.7 109.8,-57.5 7,-13.8 45.7,-93 -29.4,-168.9 21.3,14 38.3,34.1 48.4,57.8 1.3,3.1 2.5,6.2 3.6,9.4 4.7,13.8 7.1,28.7 6.8,44.2 z"
   id="path22" />
					
						<circle
   transform="matrix(0.2627,-0.9649,0.9649,0.2627,-200.5038,1475.2349)"
   class="st4"
   cx="865"
   cy="868.79999"
   id="ellipse24"
   r="95" />
					<path
   class="st5"
   d="m 885.7,849.1 c -0.6,29 -24.6,52 -53.6,51.4 -29,-0.6 -52,-24.6 -51.4,-53.6 0.6,-29 24.6,-52 53.6,-51.4 29,0.6 52,24.6 51.4,53.6 z"
   id="path26" />
					<path
   class="st6"
   d="m 864.4,881.4 c 55.6,32.8 96.7,53.2 143.8,63.2 -1.6,3.1 -3.3,6.1 -5.1,9.1 -46.8,-10.4 -88,-30.8 -142.8,-63.2 -2,-1.2 -4.5,-0.4 -5.5,1.7 -5.4,11.2 -9.9,21.8 -13.7,31.6 -0.5,1.4 0,2.9 1.3,3.6 15.7,8.8 30.2,22 42.8,39 10.5,14.2 19.3,30.7 25.7,47.8 -3.4,0.5 -6.8,0.8 -10.3,1.1 -6,-15.4 -14,-30.2 -23.4,-43 -8.5,-11.5 -20.9,-25.1 -37.3,-34.9 -1.6,-1 -3.7,-0.2 -4.3,1.6 -3.9,11.6 -6.7,21.7 -8.7,29.8 -2.6,10.9 -4.1,19.6 -4.9,26 -2.2,-1.4 -4.3,-2.9 -6.4,-4.4 -0.9,-0.7 -1.8,-1.4 -2.8,-2.1 0.8,-5.2 2,-11.6 3.8,-19.2 2.2,-9.4 5.4,-21.4 10.2,-35.3 0.5,-1.5 -0.2,-3.2 -1.7,-3.7 -4,-1.5 -8.1,-2.8 -12.4,-3.7 -15.8,-3.5 -31,-3.8 -44.5,-2.5 -1,-3.2 -1.9,-6.5 -2.6,-9.8 14.5,-1.5 31.5,-1.5 49.2,2.5 4.6,1 9.1,2.4 13.6,4.1 1.5,0.6 3.2,-0.2 3.8,-1.7 4,-10.4 8.9,-21.6 14.7,-33.5 0.7,-1.4 0.2,-3.2 -1.1,-4.1 -16.2,-10.5 -37.2,-26.1 -56.5,-46.8 -4.2,-4.5 -7.7,-8.6 -10.6,-12.1 1.7,-3.1 3.6,-6.1 5.5,-9.1 3.1,3.9 7.3,8.9 12.6,14.6 10.8,11.5 28.4,28 53.1,44.1 1.6,1 3.7,0.5 4.5,-1.1 8.5,-15.8 17.4,-29.6 26.3,-41.7 1.2,-1.6 0.8,-3.8 -0.8,-4.9 -4.3,-2.9 -8.3,-6 -12.1,-9.4 -14.6,-13 -25,-29.8 -29.9,-47.5 3,-1.4 6.1,-2.7 9.3,-3.9 4.2,16.3 13.7,31.9 27.2,44 3.7,3.3 7.7,6.4 12,9.2 1.5,1 3.5,0.7 4.6,-0.7 20.8,-25.4 40.4,-41.5 52.5,-50.2 3.5,1.5 7,3.2 10.3,5 -10.5,7 -30.9,22.5 -53.2,49.1 -1.5,1.7 -0.9,4.4 1.2,5.3 1.4,0.7 2.8,1.3 4.2,1.9 11.5,4.9 23.8,8.2 36.5,9.9 21.6,2.8 47.9,1.7 69.5,-2.6 1.3,3.1 2.5,6.2 3.6,9.4 -16.1,3.3 -34.9,5 -52.7,4.6 -7.5,-0.2 -14.8,-0.7 -21.6,-1.5 -16.9,-2.2 -32.9,-7.1 -47.1,-14.2 -1.5,-0.8 -3.3,-0.3 -4.3,1 -9,12.2 -18.1,26.2 -26.8,42.2 -1.1,2 -0.5,4.4 1.3,5.4 z"
   id="path28" />
				</g>
			</g>
			<g
   id="g64">
				<polygon
   class="st7"
   points="424.1,113.7 379.6,169.6 378.6,170.8 341.2,165 333.6,149.4 417.2,99.6 "
   id="polygon34" />
				<path
   class="st8"
   d="m 379.6,169.6 -1,1.2 -7.6,-15.6 c -0.7,-1.9 -1,-4.6 0.3,-2.3 3,4.8 5.9,11.2 8.3,16.7 z"
   id="path36" />
				<polygon
   class="st8"
   points="371,155.2 417.2,99.6 382.9,98 333.6,149.4 "
   id="polygon38" />
				<path
   class="st7"
   d="m 338.6,141.5 2.9,5.9 c 0.7,1.4 3.9,1.3 7.3,-0.3 3.3,-1.6 5.4,-4.1 4.7,-5.5 l -2.9,-5.9 z"
   id="path40" />
				<path
   class="st9"
   d="m 350.6,135.7 c 0.7,1.4 -1.4,3.9 -4.7,5.5 -3.3,1.6 -6.6,1.8 -7.3,0.3 -0.7,-1.4 1.4,-3.9 4.7,-5.5 3.4,-1.6 6.6,-1.8 7.3,-0.3 z"
   id="path42" />
				<path
   class="st7"
   d="m 360.1,145.7 2.9,5.9 c 0.7,1.4 3.9,1.3 7.3,-0.3 3.3,-1.6 5.4,-4.1 4.7,-5.5 l -2.9,-5.9 z"
   id="path44" />
				<path
   class="st9"
   d="m 372,139.8 c 0.7,1.4 -1.4,3.9 -4.7,5.5 -3.3,1.6 -6.6,1.8 -7.3,0.3 -0.7,-1.4 1.4,-3.9 4.7,-5.5 3.4,-1.6 6.6,-1.7 7.3,-0.3 z"
   id="path46" />
				<path
   class="st7"
   d="m 355.6,121.7 2.9,5.9 c 0.7,1.4 3.9,1.3 7.3,-0.3 3.3,-1.6 5.4,-4.1 4.7,-5.5 l -2.9,-5.9 z"
   id="path48" />
				<path
   class="st9"
   d="m 367.5,115.9 c 0.7,1.4 -1.4,3.9 -4.7,5.5 -3.3,1.6 -6.6,1.8 -7.3,0.3 -0.7,-1.4 1.4,-3.9 4.7,-5.5 3.4,-1.6 6.6,-1.8 7.3,-0.3 z"
   id="path50" />
				<path
   class="st7"
   d="m 377,125.9 2.9,5.9 c 0.7,1.4 3.9,1.3 7.3,-0.3 3.3,-1.6 5.4,-4.1 4.7,-5.5 l -2.9,-6 z"
   id="path52" />
				<path
   class="st9"
   d="m 389,120 c 0.7,1.4 -1.4,3.9 -4.7,5.5 -3.3,1.6 -6.6,1.8 -7.3,0.3 -0.7,-1.4 1.4,-3.9 4.7,-5.5 3.3,-1.5 6.6,-1.7 7.3,-0.3 z"
   id="path54" />
				<path
   class="st7"
   d="m 372.5,101.9 2.9,5.9 c 0.7,1.4 3.9,1.3 7.3,-0.3 3.3,-1.6 5.4,-4.1 4.7,-5.5 l -2.9,-5.9 z"
   id="path56" />
				<path
   class="st9"
   d="m 384.5,96.1 c 0.7,1.4 -1.4,3.9 -4.7,5.5 -3.3,1.6 -6.6,1.8 -7.3,0.3 -0.7,-1.4 1.4,-3.9 4.7,-5.5 3.3,-1.6 6.6,-1.7 7.3,-0.3 z"
   id="path58" />
				<path
   class="st7"
   d="m 393.9,106.1 2.9,5.9 c 0.7,1.4 3.9,1.3 7.3,-0.3 3.3,-1.6 5.4,-4.1 4.7,-5.5 l -2.9,-5.9 z"
   id="path60" />
				<path
   class="st9"
   d="m 405.9,100.2 c 0.7,1.4 -1.4,3.9 -4.7,5.5 -3.3,1.6 -6.6,1.8 -7.3,0.3 -0.7,-1.4 1.4,-3.9 4.7,-5.5 3.3,-1.5 6.6,-1.7 7.3,-0.3 z"
   id="path62" />
			</g>
			<g
   id="g96">
				<polygon
   class="st7"
   points="1397.6,378.6 1353,434.5 1352.1,435.7 1314.7,429.9 1307.1,414.3 1390.7,364.5 "
   id="polygon66" />
				<path
   class="st8"
   d="m 1353,434.5 -1,1.2 -7.6,-15.6 c -0.7,-1.9 -1,-4.6 0.3,-2.3 3,4.8 5.9,11.2 8.3,16.7 z"
   id="path68" />
				<polygon
   class="st8"
   points="1344.5,420.1 1390.7,364.5 1356.4,362.9 1307.1,414.3 "
   id="polygon70" />
				<path
   class="st7"
   d="m 1312.1,406.4 2.9,5.9 c 0.7,1.4 3.9,1.3 7.3,-0.3 3.3,-1.6 5.4,-4.1 4.7,-5.5 l -2.9,-5.9 z"
   id="path72" />
				<path
   class="st9"
   d="m 1324.1,400.6 c 0.7,1.4 -1.4,3.9 -4.7,5.5 -3.3,1.6 -6.6,1.8 -7.3,0.3 -0.7,-1.4 1.4,-3.9 4.7,-5.5 3.4,-1.6 6.6,-1.8 7.3,-0.3 z"
   id="path74" />
				<path
   class="st7"
   d="m 1333.5,410.6 2.9,5.9 c 0.7,1.4 3.9,1.3 7.3,-0.3 3.3,-1.6 5.4,-4.1 4.7,-5.5 l -2.9,-5.9 z"
   id="path76" />
				<path
   class="st9"
   d="m 1345.5,404.7 c 0.7,1.4 -1.4,3.9 -4.7,5.5 -3.3,1.6 -6.6,1.8 -7.3,0.3 -0.7,-1.4 1.4,-3.9 4.7,-5.5 3.4,-1.5 6.6,-1.7 7.3,-0.3 z"
   id="path78" />
				<path
   class="st7"
   d="m 1329,386.6 2.9,5.9 c 0.7,1.4 3.9,1.3 7.3,-0.3 3.3,-1.6 5.4,-4.1 4.7,-5.5 l -2.9,-5.9 z"
   id="path80" />
				<path
   class="st9"
   d="m 1341,380.8 c 0.7,1.4 -1.4,3.9 -4.7,5.5 -3.3,1.6 -6.6,1.8 -7.3,0.3 -0.7,-1.4 1.4,-3.9 4.7,-5.5 3.4,-1.6 6.6,-1.7 7.3,-0.3 z"
   id="path82" />
				<path
   class="st7"
   d="m 1350.5,390.8 2.9,5.9 c 0.7,1.4 3.9,1.3 7.3,-0.3 3.3,-1.6 5.4,-4.1 4.7,-5.5 l -2.9,-5.9 z"
   id="path84" />
				<path
   class="st9"
   d="m 1362.4,384.9 c 0.7,1.4 -1.4,3.9 -4.7,5.5 -3.3,1.6 -6.6,1.8 -7.3,0.3 -0.7,-1.4 1.4,-3.9 4.7,-5.5 3.4,-1.5 6.6,-1.7 7.3,-0.3 z"
   id="path86" />
				<path
   class="st7"
   d="m 1346,366.8 2.9,5.9 c 0.7,1.4 3.9,1.3 7.3,-0.3 3.3,-1.6 5.4,-4.1 4.7,-5.5 L 1358,361 Z"
   id="path88" />
				<path
   class="st9"
   d="m 1357.9,361 c 0.7,1.4 -1.4,3.9 -4.7,5.5 -3.3,1.6 -6.6,1.8 -7.3,0.3 -0.7,-1.4 1.4,-3.9 4.7,-5.5 3.4,-1.6 6.7,-1.7 7.3,-0.3 z"
   id="path90" />
				<path
   class="st7"
   d="m 1367.4,371 2.9,5.9 c 0.7,1.4 3.9,1.3 7.3,-0.3 3.3,-1.6 5.4,-4.1 4.7,-5.5 l -2.9,-5.9 z"
   id="path92" />
				<path
   class="st9"
   d="m 1379.4,365.2 c 0.7,1.4 -1.4,3.9 -4.7,5.5 -3.3,1.6 -6.6,1.8 -7.3,0.3 -0.7,-1.4 1.4,-3.9 4.7,-5.5 3.3,-1.6 6.6,-1.8 7.3,-0.3 z"
   id="path94" />
			</g>
			<g
   id="g128">
				<polygon
   class="st7"
   points="1550.1,272.4 1491.6,231.2 1490.4,230.4 1494,192.7 1509.1,184.2 1563.7,264.7 "
   id="polygon98" />
				<path
   class="st8"
   d="m 1491.6,231.2 -1.2,-0.9 15.1,-8.5 c 1.9,-0.9 4.5,-1.3 2.4,0.2 -4.7,3.3 -10.9,6.5 -16.3,9.2 z"
   id="path100" />
				<polygon
   class="st8"
   points="1505.5,221.9 1563.7,264.7 1563.3,230.4 1509.1,184.2 "
   id="polygon102" />
				<path
   class="st7"
   d="m 1517.3,188.7 -5.7,3.2 c -1.4,0.8 -1.1,4 0.7,7.2 1.8,3.2 4.4,5.2 5.8,4.4 l 5.7,-3.2 z"
   id="path104" />
				<path
   class="st9"
   d="m 1523.8,200.4 c -1.4,0.8 -4,-1.2 -5.8,-4.4 -1.8,-3.2 -2.1,-6.4 -0.7,-7.2 1.4,-0.8 4,1.2 5.8,4.4 1.8,3.1 2.1,6.4 0.7,7.2 z"
   id="path106" />
				<path
   class="st7"
   d="m 1514.4,210.4 -5.7,3.2 c -1.4,0.8 -1.1,4 0.7,7.2 1.8,3.2 4.4,5.2 5.8,4.4 l 5.7,-3.2 z"
   id="path108" />
				<path
   class="st9"
   d="m 1520.9,222 c -1.4,0.8 -4,-1.2 -5.8,-4.4 -1.8,-3.2 -2.1,-6.4 -0.7,-7.2 1.4,-0.8 4,1.2 5.8,4.4 1.8,3.2 2.1,6.4 0.7,7.2 z"
   id="path110" />
				<path
   class="st7"
   d="m 1538,204.5 -5.7,3.2 c -1.4,0.8 -1.1,4 0.7,7.2 1.8,3.2 4.4,5.2 5.8,4.4 l 5.7,-3.2 z"
   id="path112" />
				<path
   class="st9"
   d="m 1544.6,216.1 c -1.4,0.8 -4,-1.2 -5.8,-4.4 -1.8,-3.2 -2.1,-6.4 -0.7,-7.2 1.4,-0.8 4,1.2 5.8,4.4 1.7,3.2 2.1,6.4 0.7,7.2 z"
   id="path114" />
				<path
   class="st7"
   d="m 1535.2,226.1 -5.7,3.2 c -1.4,0.8 -1.1,4 0.7,7.2 1.8,3.2 4.4,5.2 5.8,4.4 l 5.7,-3.2 z"
   id="path116" />
				<path
   class="st9"
   d="m 1541.7,237.7 c -1.4,0.8 -4,-1.2 -5.8,-4.4 -1.8,-3.2 -2.1,-6.4 -0.7,-7.2 1.4,-0.8 4,1.2 5.8,4.4 1.7,3.2 2.1,6.4 0.7,7.2 z"
   id="path118" />
				<path
   class="st7"
   d="m 1558.8,220.2 -5.7,3.2 c -1.4,0.8 -1.1,4 0.7,7.2 1.8,3.2 4.4,5.2 5.8,4.4 l 5.7,-3.2 z"
   id="path120" />
				<path
   class="st9"
   d="m 1565.3,231.8 c -1.4,0.8 -4,-1.2 -5.8,-4.4 -1.8,-3.2 -2.1,-6.4 -0.7,-7.2 1.4,-0.8 4,1.2 5.8,4.4 1.8,3.2 2.1,6.5 0.7,7.2 z"
   id="path122" />
				<path
   class="st7"
   d="m 1555.9,241.8 -5.7,3.2 c -1.4,0.8 -1.1,4 0.7,7.2 1.8,3.2 4.4,5.2 5.8,4.4 l 5.7,-3.2 z"
   id="path124" />
				<path
   class="st9"
   d="m 1562.4,253.5 c -1.4,0.8 -4,-1.2 -5.8,-4.4 -1.8,-3.2 -2.1,-6.4 -0.7,-7.2 1.4,-0.8 4,1.2 5.8,4.4 1.8,3.2 2.1,6.4 0.7,7.2 z"
   id="path126" />
			</g>
			<g
   id="g160">
				<polygon
   class="st7"
   points="1494.1,759.3 1449.5,815.3 1448.6,816.4 1411.2,810.7 1403.6,795.1 1487.2,745.3 "
   id="polygon130" />
				<path
   class="st8"
   d="m 1449.5,815.3 -1,1.2 -7.6,-15.6 c -0.7,-1.9 -1,-4.6 0.3,-2.3 3,4.8 5.9,11.2 8.3,16.7 z"
   id="path132" />
				<polygon
   class="st8"
   points="1441,800.8 1487.2,745.3 1452.9,743.7 1403.6,795.1 "
   id="polygon134" />
				<path
   class="st7"
   d="m 1408.6,787.2 2.9,5.9 c 0.7,1.4 3.9,1.3 7.3,-0.3 3.3,-1.6 5.4,-4.1 4.7,-5.5 l -2.9,-5.9 z"
   id="path136" />
				<path
   class="st9"
   d="m 1420.6,781.3 c 0.7,1.4 -1.4,3.9 -4.7,5.5 -3.3,1.6 -6.6,1.8 -7.3,0.3 -0.7,-1.4 1.4,-3.9 4.7,-5.5 3.3,-1.6 6.6,-1.7 7.3,-0.3 z"
   id="path138" />
				<path
   class="st7"
   d="m 1430,791.3 2.9,5.9 c 0.7,1.4 3.9,1.3 7.3,-0.3 3.3,-1.6 5.4,-4.1 4.7,-5.5 l -2.9,-5.9 z"
   id="path140" />
				<path
   class="st9"
   d="m 1442,785.5 c 0.7,1.4 -1.4,3.9 -4.7,5.5 -3.3,1.6 -6.6,1.8 -7.3,0.3 -0.7,-1.4 1.4,-3.9 4.7,-5.5 3.4,-1.6 6.6,-1.8 7.3,-0.3 z"
   id="path142" />
				<path
   class="st7"
   d="m 1425.5,767.4 2.9,5.9 c 0.7,1.4 3.9,1.3 7.3,-0.3 3.3,-1.6 5.4,-4.1 4.7,-5.5 l -2.9,-5.9 z"
   id="path144" />
				<path
   class="st9"
   d="m 1437.5,761.5 c 0.7,1.4 -1.4,3.9 -4.7,5.5 -3.3,1.6 -6.6,1.8 -7.3,0.3 -0.7,-1.4 1.4,-3.9 4.7,-5.5 3.4,-1.6 6.6,-1.7 7.3,-0.3 z"
   id="path146" />
				<path
   class="st7"
   d="m 1447,771.5 2.9,5.9 c 0.7,1.4 3.9,1.3 7.3,-0.3 3.3,-1.6 5.4,-4.1 4.7,-5.5 l -2.9,-5.9 z"
   id="path148" />
				<path
   class="st9"
   d="m 1458.9,765.7 c 0.7,1.4 -1.4,3.9 -4.7,5.5 -3.3,1.6 -6.6,1.8 -7.3,0.3 -0.7,-1.4 1.4,-3.9 4.7,-5.5 3.4,-1.6 6.6,-1.7 7.3,-0.3 z"
   id="path150" />
				<path
   class="st7"
   d="m 1442.5,747.6 2.9,5.9 c 0.7,1.4 3.9,1.3 7.3,-0.3 3.3,-1.6 5.4,-4.1 4.7,-5.5 l -2.9,-5.9 z"
   id="path152" />
				<path
   class="st9"
   d="m 1454.4,741.7 c 0.7,1.4 -1.4,3.9 -4.7,5.5 -3.3,1.6 -6.6,1.8 -7.3,0.3 -0.7,-1.4 1.4,-3.9 4.7,-5.5 3.4,-1.5 6.6,-1.7 7.3,-0.3 z"
   id="path154" />
				<path
   class="st7"
   d="m 1463.9,751.7 2.9,5.9 c 0.7,1.4 3.9,1.3 7.3,-0.3 3.3,-1.6 5.4,-4.1 4.7,-5.5 l -2.9,-5.9 z"
   id="path156" />
				<path
   class="st9"
   d="m 1475.9,745.9 c 0.7,1.4 -1.4,3.9 -4.7,5.5 -3.3,1.6 -6.6,1.8 -7.3,0.3 -0.7,-1.4 1.4,-3.9 4.7,-5.5 3.3,-1.6 6.6,-1.7 7.3,-0.3 z"
   id="path158" />
			</g>
			<g
   id="g192">
				<polygon
   class="st10"
   points="670.2,745.7 708.1,806.3 708.9,807.5 746.7,806 756,791.4 678.6,732.4 "
   id="polygon162" />
				<path
   class="st11"
   d="m 708.1,806.3 0.8,1.3 9.3,-14.6 c 1,-1.8 1.5,-4.5 -0.1,-2.4 -3.4,4.4 -7,10.5 -10,15.7 z"
   id="path164" />
				<polygon
   class="st11"
   points="718.2,792.9 678.6,732.4 712.9,734.8 756,791.4 "
   id="polygon166" />
				<path
   class="st10"
   d="m 751.9,783 -3.5,5.6 c -0.9,1.3 -4.1,0.8 -7.2,-1.1 -3.1,-2 -4.9,-4.7 -4.1,-6 l 3.5,-5.6 z"
   id="path168" />
				<path
   class="st12"
   d="m 740.7,775.8 c -0.9,1.3 1,4 4.1,6 3.1,2 6.3,2.5 7.2,1.1 0.9,-1.3 -1,-4 -4.1,-6 -3.1,-1.9 -6.4,-2.4 -7.2,-1.1 z"
   id="path170" />
				<path
   class="st10"
   d="m 730.2,784.7 -3.5,5.6 c -0.9,1.3 -4.1,0.8 -7.2,-1.1 -3.1,-2 -4.9,-4.7 -4.1,-6 l 3.5,-5.6 z"
   id="path172" />
				<path
   class="st12"
   d="m 718.9,777.5 c -0.9,1.3 1,4 4.1,6 3.1,2 6.3,2.5 7.2,1.1 0.9,-1.3 -1,-4 -4.1,-6 -3.1,-1.9 -6.3,-2.4 -7.2,-1.1 z"
   id="path174" />
				<path
   class="st10"
   d="m 737.4,761.4 -3.5,5.6 c -0.9,1.3 -4.1,0.8 -7.2,-1.1 -3.1,-2 -4.9,-4.7 -4.1,-6 l 3.5,-5.6 z"
   id="path176" />
				<path
   class="st12"
   d="m 726.1,754.2 c -0.9,1.3 1,4 4.1,6 3.1,2 6.3,2.5 7.2,1.1 0.9,-1.3 -1,-4 -4.1,-6 -3.1,-1.9 -6.3,-2.4 -7.2,-1.1 z"
   id="path178" />
				<path
   class="st10"
   d="m 715.6,763.1 -3.5,5.6 c -0.9,1.3 -4.1,0.8 -7.2,-1.1 -3.1,-2 -4.9,-4.7 -4.1,-6 l 3.5,-5.6 z"
   id="path180" />
				<path
   class="st12"
   d="m 704.4,755.9 c -0.9,1.3 1,4 4.1,6 3.1,2 6.3,2.5 7.2,1.1 0.9,-1.3 -1,-4 -4.1,-6 -3.2,-1.9 -6.4,-2.4 -7.2,-1.1 z"
   id="path182" />
				<path
   class="st10"
   d="m 722.8,739.8 -3.5,5.6 c -0.9,1.3 -4.1,0.8 -7.2,-1.1 -3.1,-2 -4.9,-4.7 -4.1,-6 l 3.5,-5.6 z"
   id="path184" />
				<path
   class="st12"
   d="m 711.5,732.7 c -0.9,1.3 1,4 4.1,6 3.1,2 6.3,2.5 7.2,1.1 0.9,-1.3 -1,-4 -4.1,-6 -3.1,-2 -6.3,-2.5 -7.2,-1.1 z"
   id="path186" />
				<path
   class="st10"
   d="m 701,741.5 -3.5,5.6 c -0.9,1.3 -4.1,0.8 -7.2,-1.1 -3.1,-2 -4.9,-4.7 -4.1,-6 l 3.5,-5.6 z"
   id="path188" />
				<path
   class="st12"
   d="m 689.8,734.4 c -0.9,1.3 1,4 4.1,6 3.1,2 6.3,2.5 7.2,1.1 0.9,-1.3 -1,-4 -4.1,-6 -3.1,-2 -6.3,-2.5 -7.2,-1.1 z"
   id="path190" />
			</g>
			<g
   id="g224">
				<polygon
   class="st10"
   points="21.9,702 86.6,671.7 88,671 91,633.3 77.6,622.3 9.8,692.1 "
   id="polygon194" />
				<path
   class="st11"
   d="M 86.6,671.7 88,671 74.6,660 c -1.7,-1.2 -4.3,-2.1 -2.4,-0.2 4.1,4 9.6,8.3 14.4,11.9 z"
   id="path196" />
				<polygon
   class="st11"
   points="74.6,660 9.8,692.1 16.2,658.3 77.6,622.3 "
   id="polygon198" />
				<path
   class="st10"
   d="m 68.8,625.3 5.1,4.2 c 1.2,1 0.3,4.1 -2,7 -2.3,2.8 -5.2,4.3 -6.5,3.3 l -5.1,-4.2 z"
   id="path200" />
				<path
   class="st12"
   d="m 60.3,635.7 c 1.2,1 4.1,-0.5 6.5,-3.3 2.3,-2.8 3.2,-6 2,-7 -1.2,-1 -4.1,0.5 -6.5,3.3 -2.3,2.8 -3.2,5.9 -2,7 z"
   id="path202" />
				<path
   class="st10"
   d="m 67.8,647.1 5.1,4.2 c 1.2,1 0.3,4.1 -2,7 -2.3,2.8 -5.2,4.3 -6.5,3.3 l -5.1,-4.2 z"
   id="path204" />
				<path
   class="st12"
   d="m 59.4,657.4 c 1.2,1 4.1,-0.5 6.5,-3.3 2.3,-2.8 3.2,-6 2,-7 -1.2,-1 -4.1,0.5 -6.5,3.3 -2.3,2.9 -3.2,6 -2,7 z"
   id="path206" />
				<path
   class="st10"
   d="m 45.6,637.2 5.1,4.2 c 1.2,1 0.3,4.1 -2,7 -2.3,2.8 -5.2,4.3 -6.5,3.3 l -5.1,-4.2 z"
   id="path208" />
				<path
   class="st12"
   d="m 37.1,647.5 c 1.2,1 4.1,-0.5 6.5,-3.3 2.3,-2.8 3.2,-6 2,-7 -1.2,-1 -4.1,0.5 -6.5,3.3 -2.3,2.9 -3.2,6 -2,7 z"
   id="path210" />
				<path
   class="st10"
   d="m 44.7,659 5.1,4.2 c 1.2,1 0.3,4.1 -2,7 -2.3,2.8 -5.2,4.3 -6.5,3.3 l -5.1,-4.2 z"
   id="path212" />
				<path
   class="st12"
   d="m 36.2,669.3 c 1.2,1 4.1,-0.5 6.5,-3.3 2.3,-2.8 3.2,-6 2,-7 -1.2,-1 -4.1,0.5 -6.5,3.3 -2.3,2.9 -3.2,6 -2,7 z"
   id="path214" />
				<path
   class="st10"
   d="m 22.4,649.1 5.1,4.2 c 1.2,1 0.3,4.1 -2,7 -2.3,2.8 -5.2,4.3 -6.5,3.3 l -5.1,-4.2 z"
   id="path216" />
				<path
   class="st12"
   d="m 14,659.4 c 1.2,1 4.1,-0.5 6.5,-3.3 2.3,-2.8 3.2,-6 2,-7 -1.2,-1 -4.1,0.5 -6.5,3.3 -2.4,2.9 -3.3,6 -2,7 z"
   id="path218" />
				<path
   class="st10"
   d="m 21.5,670.9 5.1,4.2 c 1.2,1 0.3,4.1 -2,7 -2.3,2.8 -5.2,4.3 -6.5,3.3 L 13,681.2 Z"
   id="path220" />
				<path
   class="st12"
   d="m 13,681.2 c 1.2,1 4.1,-0.5 6.5,-3.3 2.3,-2.8 3.2,-6 2,-7 -1.2,-1 -4.1,0.5 -6.5,3.3 -2.3,2.9 -3.2,6 -2,7 z"
   id="path222" />
			</g>
			<g
   id="g256">
				<polygon
   class="st13"
   points="173.5,457.6 220.5,511.5 221.5,512.6 258.6,505.2 265.5,489.2 179.7,443.3 "
   id="polygon226" />
				<path
   class="st14"
   d="m 220.5,511.5 1,1.1 6.9,-15.9 c 0.7,-2 0.8,-4.7 -0.4,-2.3 -2.8,5 -5.4,11.5 -7.5,17.1 z"
   id="path228" />
				<polygon
   class="st14"
   points="228.4,496.7 179.7,443.3 213.9,440.1 265.5,489.2 "
   id="polygon230" />
				<path
   class="st13"
   d="m 260.1,481.6 -2.6,6 c -0.6,1.5 -3.9,1.5 -7.3,0 -3.4,-1.5 -5.6,-3.8 -5,-5.3 l 2.6,-6 z"
   id="path232" />
				<path
   class="st15"
   d="m 247.9,476.3 c -0.6,1.5 1.6,3.8 5,5.3 3.4,1.5 6.6,1.5 7.3,0 0.6,-1.5 -1.6,-3.8 -5,-5.3 -3.5,-1.5 -6.7,-1.5 -7.3,0 z"
   id="path234" />
				<path
   class="st13"
   d="m 238.9,486.7 -2.6,6 c -0.6,1.5 -3.9,1.5 -7.3,0 -3.4,-1.5 -5.6,-3.8 -5,-5.3 l 2.6,-6 z"
   id="path236" />
				<path
   class="st15"
   d="m 226.7,481.4 c -0.6,1.5 1.6,3.8 5,5.3 3.4,1.5 6.6,1.5 7.3,0 0.6,-1.5 -1.6,-3.8 -5,-5.3 -3.4,-1.5 -6.7,-1.5 -7.3,0 z"
   id="path238" />
				<path
   class="st13"
   d="m 242.3,462.6 -2.6,6 c -0.6,1.5 -3.9,1.5 -7.3,0 -3.4,-1.5 -5.6,-3.8 -5,-5.3 l 2.6,-6 z"
   id="path240" />
				<path
   class="st15"
   d="m 230.1,457.3 c -0.6,1.5 1.6,3.8 5,5.3 3.4,1.5 6.6,1.5 7.3,0 0.6,-1.5 -1.6,-3.8 -5,-5.3 -3.5,-1.5 -6.7,-1.5 -7.3,0 z"
   id="path242" />
				<path
   class="st13"
   d="m 221.1,467.7 -2.6,6 c -0.6,1.5 -3.9,1.5 -7.3,0 -3.4,-1.5 -5.6,-3.8 -5,-5.3 l 2.6,-6 z"
   id="path244" />
				<path
   class="st15"
   d="m 208.9,462.4 c -0.6,1.5 1.6,3.8 5,5.3 3.4,1.5 6.6,1.5 7.3,0 0.6,-1.5 -1.6,-3.8 -5,-5.3 -3.5,-1.5 -6.7,-1.5 -7.3,0 z"
   id="path246" />
				<path
   class="st13"
   d="m 224.5,443.6 -2.6,6 c -0.6,1.5 -3.9,1.5 -7.3,0 -3.4,-1.5 -5.6,-3.8 -5,-5.3 l 2.6,-6 z"
   id="path248" />
				<path
   class="st15"
   d="m 212.3,438.3 c -0.6,1.5 1.6,3.8 5,5.3 3.4,1.5 6.6,1.5 7.3,0 0.6,-1.5 -1.6,-3.8 -5,-5.3 -3.5,-1.5 -6.7,-1.5 -7.3,0 z"
   id="path250" />
				<path
   class="st13"
   d="m 203.3,448.7 -2.6,6 c -0.6,1.5 -3.9,1.5 -7.3,0 -3.4,-1.5 -5.6,-3.8 -5,-5.3 l 2.6,-6 z"
   id="path252" />
				<path
   class="st15"
   d="m 191,443.4 c -0.6,1.5 1.6,3.8 5,5.3 3.4,1.5 6.6,1.5 7.3,0 0.6,-1.5 -1.6,-3.8 -5,-5.3 -3.4,-1.5 -6.6,-1.5 -7.3,0 z"
   id="path254" />
			</g>
			<g
   id="g288">
				<polygon
   class="st13"
   points="166,66.6 95.1,75.5 93.6,75.7 79.1,110.7 88.4,125.3 174.5,79.8 "
   id="polygon258" />
				<path
   class="st14"
   d="m 95.1,75.5 -1.5,0.2 9.4,14.6 c 1.3,1.6 3.4,3.3 2.2,0.9 -2.7,-5 -6.7,-10.8 -10.1,-15.7 z"
   id="path260" />
				<polygon
   class="st14"
   points="103,90.3 174.5,79.8 158,109.9 88.5,125.3 "
   id="polygon262" />
				<path
   class="st13"
   d="m 97.8,125.1 -3.6,-5.5 c -0.9,-1.3 1,-4 4.1,-6 3.1,-2 6.3,-2.5 7.2,-1.2 l 3.6,5.5 z"
   id="path264" />
				<path
   class="st15"
   d="m 109,117.9 c -0.9,-1.3 -4.1,-0.8 -7.2,1.2 -3.1,2 -4.9,4.7 -4.1,6 0.9,1.3 4.1,0.8 7.2,-1.2 3.2,-2 5,-4.7 4.1,-6 z"
   id="path266" />
				<path
   class="st13"
   d="m 105.4,104.6 -3.6,-5.5 c -0.9,-1.3 1,-4 4.1,-6 3.1,-2 6.3,-2.5 7.2,-1.2 l 3.6,5.5 z"
   id="path268" />
				<path
   class="st15"
   d="m 116.6,97.4 c -0.9,-1.3 -4.1,-0.8 -7.2,1.2 -3.1,2 -4.9,4.7 -4.1,6 0.9,1.3 4.1,0.8 7.2,-1.2 3.1,-1.9 5,-4.6 4.1,-6 z"
   id="path270" />
				<path
   class="st13"
   d="m 123.5,120.9 -3.6,-5.5 c -0.9,-1.3 1,-4 4.1,-6 3.1,-2 6.3,-2.5 7.2,-1.2 l 3.6,5.5 z"
   id="path272" />
				<path
   class="st15"
   d="m 134.7,113.7 c -0.9,-1.3 -4.1,-0.8 -7.2,1.2 -3.1,2 -4.9,4.7 -4.1,6 0.9,1.3 4.1,0.8 7.2,-1.2 3.2,-1.9 5,-4.6 4.1,-6 z"
   id="path274" />
				<path
   class="st13"
   d="M 131.1,100.5 127.5,95 c -0.9,-1.3 1,-4 4.1,-6 3.1,-2 6.3,-2.5 7.2,-1.2 l 3.6,5.5 z"
   id="path276" />
				<path
   class="st15"
   d="m 142.3,93.3 c -0.9,-1.3 -4.1,-0.8 -7.2,1.2 -3.1,2 -4.9,4.7 -4.1,6 0.9,1.3 4.1,0.8 7.2,-1.2 3.2,-2 5,-4.7 4.1,-6 z"
   id="path278" />
				<path
   class="st13"
   d="m 149.2,116.8 -3.6,-5.5 c -0.9,-1.3 1,-4 4.1,-6 3.1,-2 6.3,-2.5 7.2,-1.2 l 3.6,5.5 z"
   id="path280" />
				<path
   class="st15"
   d="m 160.4,109.6 c -0.9,-1.3 -4.1,-0.8 -7.2,1.2 -3.1,2 -4.9,4.7 -4.1,6 0.9,1.3 4.1,0.8 7.2,-1.2 3.2,-2 5,-4.7 4.1,-6 z"
   id="path282" />
				<path
   class="st13"
   d="m 156.8,96.3 -3.6,-5.5 c -0.9,-1.3 1,-4 4.1,-6 3.1,-2 6.3,-2.5 7.2,-1.2 l 3.6,5.5 z"
   id="path284" />
				<path
   class="st15"
   d="m 168,89.1 c -0.9,-1.3 -4.1,-0.8 -7.2,1.2 -3.1,2 -4.9,4.7 -4.1,6 0.9,1.3 4.1,0.8 7.2,-1.2 3.2,-1.9 5,-4.6 4.1,-6 z"
   id="path286" />
			</g>
			<g
   id="g320">
				<polygon
   class="st13"
   points="963.3,91.5 909.6,44.4 908.5,43.4 872.7,55.7 868,72.4 959.1,106.6 "
   id="polygon290" />
				<path
   class="st14"
   d="m 909.6,44.4 -1.1,-1 -4.7,16.7 c -0.4,2 -0.2,4.7 0.7,2.3 2,-5.4 3.7,-12.2 5.1,-18 z"
   id="path292" />
				<polygon
   class="st14"
   points="903.7,60.1 959.1,106.6 925.6,114.2 868,72.4 "
   id="polygon294" />
				<path
   class="st13"
   d="m 874.3,79.3 1.8,-6.3 c 0.4,-1.5 3.7,-2 7.2,-1 3.5,1 6.1,3.1 5.6,4.6 l -1.8,6.3 z"
   id="path296" />
				<path
   class="st15"
   d="m 887.1,82.9 c 0.4,-1.5 -2.1,-3.6 -5.6,-4.6 -3.5,-1 -6.8,-0.6 -7.2,1 -0.4,1.5 2.1,3.6 5.6,4.6 3.6,1 6.8,0.5 7.2,-1 z"
   id="path298" />
				<path
   class="st13"
   d="m 894.6,71.4 1.8,-6.3 c 0.4,-1.5 3.7,-2 7.2,-1 3.5,1 6.1,3.1 5.6,4.6 l -1.8,6.3 z"
   id="path300" />
				<path
   class="st15"
   d="m 907.5,75 c 0.4,-1.5 -2.1,-3.6 -5.6,-4.6 -3.5,-1 -6.8,-0.6 -7.2,1 -0.4,1.5 2.1,3.6 5.6,4.6 3.5,1 6.7,0.6 7.2,-1 z"
   id="path302" />
				<path
   class="st13"
   d="m 894.5,95.8 1.8,-6.3 c 0.4,-1.5 3.7,-2 7.2,-1 3.5,1 6.1,3.1 5.6,4.6 l -1.8,6.3 z"
   id="path304" />
				<path
   class="st15"
   d="m 907.3,99.4 c 0.4,-1.5 -2.1,-3.6 -5.6,-4.6 -3.5,-1 -6.8,-0.6 -7.2,1 -0.4,1.5 2.1,3.6 5.6,4.6 3.5,0.9 6.8,0.5 7.2,-1 z"
   id="path306" />
				<path
   class="st13"
   d="m 914.8,87.9 1.8,-6.3 c 0.4,-1.5 3.7,-2 7.2,-1 3.5,1 6.1,3.1 5.6,4.6 l -1.8,6.3 z"
   id="path308" />
				<path
   class="st15"
   d="m 927.6,91.5 c 0.4,-1.5 -2.1,-3.6 -5.6,-4.6 -3.5,-1 -6.8,-0.6 -7.2,1 -0.4,1.5 2.1,3.6 5.6,4.6 3.6,1 6.8,0.5 7.2,-1 z"
   id="path310" />
				<path
   class="st13"
   d="m 914.6,112.2 1.8,-6.3 c 0.4,-1.5 3.7,-2 7.2,-1 3.5,1 6.1,3.1 5.6,4.6 l -1.8,6.3 z"
   id="path312" />
				<path
   class="st15"
   d="m 927.4,115.9 c 0.4,-1.5 -2.1,-3.6 -5.6,-4.6 -3.5,-1 -6.8,-0.6 -7.2,1 -0.4,1.5 2.1,3.6 5.6,4.6 3.6,0.9 6.8,0.5 7.2,-1 z"
   id="path314" />
				<path
   class="st13"
   d="m 935,104.4 1.8,-6.3 c 0.4,-1.5 3.7,-2 7.2,-1 3.5,1 6.1,3.1 5.6,4.6 l -1.8,6.3 z"
   id="path316" />
				<path
   class="st15"
   d="m 947.8,108 c 0.4,-1.5 -2.1,-3.6 -5.6,-4.6 -3.5,-1 -6.8,-0.6 -7.2,1 -0.4,1.5 2.1,3.6 5.6,4.6 3.5,1 6.8,0.5 7.2,-1 z"
   id="path318" />
			</g>
			<g
   id="g376">
				<path
   class="st16"
   d="m 1779.3,839.2 c -12.6,-1 -24,-11 -27.7,-24.3 -2.7,-9.5 -1.5,-20.3 3,-30.3 -8.3,-1.9 -17.4,-5.6 -25.2,-12.6 -10.9,-9.7 -16.3,-24.3 -13.9,-37.2 2.1,-11.1 9.5,-21.2 22.6,-30.9 -6.6,-9.8 -8.6,-23.3 -5.1,-35.7 4,-14.3 13.6,-24.7 21.7,-31.2 -4.2,-5.1 -7.8,-11 -10.7,-17.5 -2,1 -4,1.8 -6.1,2.6 -1.4,0.5 -2.7,0.9 -4.1,1.3 -14.1,3.8 -27.8,1.2 -39.8,-7.7 -1.1,-0.8 -2.2,-1.7 -3.3,-2.7 -6.1,9.3 -13.7,17.5 -22.4,24 -7.8,5.8 -14.5,8.9 -21.3,9.5 -7.5,0.7 -15.2,-1.7 -21,-6.5 -1.9,1.7 -3.8,3.3 -5.9,4.8 -7.2,5.2 -18.5,11.3 -31.8,10.9 -12.6,-0.4 -24,-7.1 -29.1,-17.2 l 5.5,-2.8 c 4.1,8.1 13.4,13.5 23.8,13.8 11.5,0.3 21.6,-5.1 28,-9.8 1.8,-1.3 3.5,-2.7 5.2,-4.2 -10.6,-12.7 -13.1,-31.2 -6.8,-51.3 2.1,-6.6 4.7,-11.2 8.5,-14.5 5,-4.5 12.1,-5.9 17.5,-3.5 4,1.8 7.3,5.5 8.9,10.3 1.5,4.4 1.4,9 1.2,12.4 -1.1,17.4 -8.5,34.1 -20.4,46.7 4.4,3.4 10.3,5.2 15.9,4.7 5.6,-0.5 11.4,-3.2 18.2,-8.3 8.5,-6.4 15.8,-14.4 21.6,-23.6 -3.5,-4 -6.7,-8.9 -9.6,-14.6 -7.2,-14.1 -11,-29.8 -11.2,-45.6 0,-4 0.1,-8.7 1.7,-13.2 1.7,-5.1 4.9,-9 9,-11.2 3.8,-2 8.4,-2.3 12.9,-0.9 4.1,1.3 7.9,3.8 10.7,7.2 5.7,7.1 6.9,16.3 7.3,22.6 1,15.8 -2.1,32 -8.9,46.9 -1.2,2.7 -2.6,5.4 -4.1,7.9 1.2,1.1 2.4,2.1 3.7,3.1 11.6,8.6 24.4,10.5 38.1,5.6 2,-0.7 3.9,-1.5 5.9,-2.5 -0.4,-1.1 -0.8,-2.3 -1.1,-3.5 -3.8,-12.4 -5.2,-26.3 -4.5,-43.8 0.3,-7.3 1,-15.9 3.8,-23.9 3.1,-8.8 8.7,-15.7 15.5,-19.6 8.2,-4.6 18.4,-4.4 25.4,0.6 4.6,3.3 8,8.6 9.4,14.9 1.1,4.8 1.2,10.2 0.2,16.8 -0.4,2.9 -1,5.7 -1.7,8.6 -3,11.8 -9.6,24.1 -18.6,34.7 -6.3,7.5 -13.3,13.5 -20.7,18 2.7,6.2 6.1,11.9 10.2,16.7 10.7,-7.5 22.8,-12.5 33.3,-16.4 14.6,-5.5 31.9,-10.8 49.4,-9.3 7.5,0.6 17,4.7 21.4,12.4 2.9,5 3.1,10.7 0.4,16.3 -3.2,6.9 -10.2,10.9 -15.2,13.3 -22.2,10.7 -49.6,12.9 -69.8,5.5 -7.5,-2.8 -14.4,-7.3 -20.4,-13.4 -7.4,6 -16.3,15.4 -19.9,28.3 -3,10.7 -1.3,22.2 4.2,30.5 14.4,-9.7 44.5,-26.3 74.9,-20.9 6,1.1 14.2,4.7 17.3,11.5 1.4,3 2.2,7.9 -1.4,13.9 -2.8,4.6 -7.4,7.6 -10.6,9.4 -7.2,4.1 -15.4,6.8 -23.7,7.8 -5.9,0.7 -13.5,1.5 -20.9,1.4 -14.9,-0.3 -27.8,-5.4 -36.6,-14.6 -11.9,8.8 -18.5,17.7 -20.4,27.3 -2.1,10.8 2.6,23.1 11.9,31.4 7.4,6.6 16.2,9.9 24.1,11.5 0.1,-0.1 0.2,-0.3 0.2,-0.4 5.6,-9.1 14.2,-17.5 26.2,-25.4 9.9,-6.6 20.6,-12 31.8,-16.2 8.6,-3.2 18.6,-6.2 28.2,-4.9 5.9,0.8 10.2,3.4 12.7,7.5 5.4,9.3 -3.1,17.1 -5.9,19.7 -20.7,19.1 -53.1,29.4 -84.5,27.1 -1.7,-0.1 -3.5,-0.3 -5.4,-0.6 -4.5,9.1 -5.7,18.9 -3.4,27.4 3,10.7 12.3,19 22.2,19.8 z m -15,-59.2 c 0.8,0.1 1.7,0.2 2.5,0.2 29.8,2.2 60.4,-7.5 79.9,-25.5 5.4,-5 6.8,-8.5 4.7,-12 -1.4,-2.5 -4.2,-4 -8.1,-4.5 -8.2,-1.1 -17.3,1.7 -25.2,4.6 -10.8,4 -21,9.2 -30.5,15.5 -10.5,6.9 -18.1,14 -23.3,21.7 z m -17.2,-74.8 c 7.6,7.5 18.8,11.7 31.6,12 7,0.1 14.4,-0.6 20.1,-1.3 7.5,-0.9 14.9,-3.3 21.4,-7 4.1,-2.3 6.8,-4.6 8.4,-7.2 1.8,-3 2.2,-5.6 1,-8.1 -1.7,-3.7 -6.8,-6.9 -12.7,-7.9 -9.8,-1.9 -35.9,-3.3 -69.8,19.5 z m 16.8,-67.4 c 5.2,5.1 11.1,8.9 17.5,11.3 18.7,6.9 44.2,4.8 65,-5.2 6.6,-3.2 10.4,-6.4 12.2,-10.3 1.8,-3.8 1.7,-7.3 -0.2,-10.6 -2.8,-4.9 -9.7,-8.8 -16.6,-9.4 -16.3,-1.4 -32.7,3.8 -46.7,9 -9.9,3.7 -21.2,8.4 -31.2,15.2 z M 1763,526.6 c -1.6,0.4 -3.1,1 -4.6,1.9 -5.6,3.1 -10.1,8.9 -12.7,16.3 -2.6,7.1 -3.2,14.8 -3.5,22 -0.7,16.7 0.7,30 4.3,41.7 0.2,0.7 0.5,1.5 0.7,2.2 16.3,-10.3 30.6,-29.2 35.5,-48.3 0.7,-2.6 1.2,-5.3 1.6,-7.9 0.8,-5.8 0.8,-10.5 -0.1,-14.5 -1.1,-4.8 -3.6,-8.8 -7,-11.2 -3.9,-2.9 -9.2,-3.6 -14.2,-2.2 z m -130.4,45.1 c -1.8,0.5 -3.5,1.4 -5,2.7 -2.8,2.5 -5,6.2 -6.7,11.7 -2.8,8.9 -3.7,17.7 -2.8,25.4 0.9,7.6 3.7,14.2 8.1,19.7 10.8,-11.6 17.5,-26.8 18.5,-42.7 0.2,-2.9 0.2,-6.7 -0.9,-10.1 -1,-3.1 -3.1,-5.5 -5.4,-6.6 -1.7,-0.6 -3.7,-0.6 -5.8,-0.1 z m 48.4,-43.1 c -0.6,0.2 -1.3,0.4 -1.9,0.7 -2.6,1.4 -4.8,4.2 -6,7.7 -1.2,3.7 -1.4,7.7 -1.4,11.1 0.1,14.8 3.8,29.6 10.5,42.8 2.3,4.5 4.8,8.4 7.5,11.8 1,-1.9 2,-3.8 2.9,-5.7 6.4,-14 9.3,-29.2 8.3,-43.9 -0.6,-8.7 -2.4,-14.7 -5.9,-19.1 -3.3,-3.9 -9.1,-6.7 -14,-5.4 z"
   id="path322" />
				<g
   id="g336">
					<polygon
   class="st17"
   points="1708.1,844.4 1729.5,846 1640.7,747.7 1631.7,757.6 "
   id="polygon324" />
					<polygon
   class="st17"
   points="1935,783.2 1917.4,795.3 1943.9,662.7 1956.7,666.7 "
   id="polygon326" />
					
						<rect
   x="1726.9"
   y="810.79999"
   transform="matrix(0.9656,-0.2602,0.2602,0.9656,-170.237,510.88)"
   class="st9"
   width="235"
   height="175.2"
   id="rect328" />
					<path
   class="st8"
   d="m 1959.5,874.2 21.1,78.2 -226.9,61.2 -31.7,-117.9 c 27.2,14.3 78.4,33.8 137.7,19.7 49.8,-11.8 81.6,-28.7 99.8,-41.2 z"
   id="path330" />
					<path
   class="st17"
   d="m 1858.4,872.2 6.2,-8.9 c 3.8,-5.5 -1.3,-12.7 -7.7,-11 l -10.2,2.7 c -2.9,0.8 -6,-0.3 -7.7,-2.8 l -3.9,-5.5 c -3.9,-5.5 -12.6,-3 -12.9,3.8 l -0.3,6 c -0.2,3.2 -2.4,5.8 -5.5,6.6 l -9.3,2.2 c -6.7,1.6 -7.4,10.8 -1.1,13.5 l 10,4.3 c 2.7,1.2 4.5,3.9 4.3,6.9 l -0.6,12.6 c -0.3,7 8.6,10.3 12.8,4.6 l 6.3,-8.4 c 2,-2.6 5.5,-3.6 8.5,-2.3 l 9.1,3.9 c 6.6,2.8 12.8,-4.8 8.7,-10.6 l -6.6,-9.5 c -1.8,-2.4 -1.8,-5.7 -0.1,-8.1 z"
   id="path332" />
					
						<rect
   x="1744.3"
   y="942.59998"
   transform="matrix(0.9655,-0.2602,0.2602,0.9655,-186.4934,517.6699)"
   class="st17"
   width="235"
   height="41"
   id="rect334" />
				</g>
				<g
   id="g374">
					<path
   class="st9"
   d="m 1598.5,596.6 c -5.8,5.7 -14,8.5 -22.2,9.1 0.2,8.2 -4.7,16.8 -11.9,20.6 -3.3,1.7 -7,2.5 -10.7,2.4 -4.5,-0.1 -8.9,-1.5 -12.5,-4.2 1.3,4.2 0.6,8.9 -2,12.6 -4,5.7 -11,9.3 -18,9.2 -7,-0.1 -13.9,-3.8 -17.7,-9.7 1,4.1 0,8.8 -2.3,12.4 -1.3,2 -2.9,3.6 -4.9,4.7 -5.7,3.2 -13.2,0.6 -17.8,-4 -4.7,4.5 -10.9,7.5 -17.3,7.6 -6.5,0.1 -13.1,-3.1 -16.3,-8.7 -3.2,-5.6 -2.2,-13.5 2.8,-17.6 -5,3.4 -12.5,4.1 -18,1.5 -5.5,-2.6 -9.5,-8.3 -10,-14.4 -0.5,-6.1 2.4,-12.3 7.4,-15.9 -5.9,-2.1 -8.6,-8.6 -9.8,-14.8 -1.1,-6.2 1.3,-12.9 6.1,-16.9 4.8,-4.1 11.8,-5.3 17.7,-3.1 -2.6,-5.9 -3.5,-13 -1.5,-19.2 2,-6.2 6.8,-11.5 12.9,-13.6 6.1,-2.2 13.4,-1 18.2,3.4 -1.7,-7.6 2.6,-15.5 8.9,-20.1 5.3,-3.9 12.4,-5.2 18.8,-3.4 6.4,1.8 11.8,6.5 14.4,12.6 0.5,-8.4 7.4,-15.7 15.4,-18.5 7.9,-2.9 17.5,-0.6 23.3,5.5 5.8,6.1 7.6,15.8 4.3,23.5 6.5,-5.4 16,-8.9 24,-6.7 6.6,1.8 10.6,8.1 11.6,14.9 1.1,6.8 -0.7,13.8 -6.4,17.6 7.8,-2.4 17,3 19.7,10.8 2.6,7.7 -0.3,16.7 -6.2,22.4 z"
   id="path338" />
					<path
   class="st18"
   d="m 1591,579.6 c 3.2,11.8 -1.6,20.4 -11.3,21.6 -4.7,0.6 -15.8,14 -26,27.6 -4.5,-0.1 -8.9,-1.5 -12.5,-4.2 1.3,4.2 0.6,8.9 -2,12.6 -4,5.7 -11,9.3 -18,9.2 -7,-0.1 -13.9,-3.8 -17.7,-9.7 1,4.1 0,8.8 -2.3,12.4 l -24.9,-6.7 c -1.9,5.3 -14.1,13.8 -22.6,2.5 -8.5,-11.3 -0.1,-19.7 -0.1,-19.7 0,0 -11,3.4 -17.4,-2 -6.5,-5.4 -4,-14.9 0.4,-18 0,0 -12.8,-13 -7.4,-23.2 5.3,-10.2 20.5,-6 20.5,-6 0,0 -8.1,-20.2 4,-29.2 12.1,-9 24.8,4.7 24.8,4.7 0,0 -3,-20.1 8.5,-24.9 11.6,-4.8 24.4,6.5 27,12.7 3.3,-16.8 15.7,-20.9 24.7,-18.8 7.1,1.7 12.4,15.9 10.1,23.2 12.5,-4.8 18.9,-3.9 25.6,3.3 6.7,7.2 -1.6,23.3 -1.6,23.3 0,0 15.1,-2.5 18.2,9.3 z"
   id="path340" />
					<path
   class="st19"
   d="m 1465.5,659.7 c -3.7,1 -7.8,0.9 -11.4,-0.5 -6,-2.3 -10.6,-7.8 -11.7,-14.1 -0.5,-2.8 -0.3,-5.7 0.5,-8.4 -1.6,0.2 -2.7,0.3 -2.7,0.3 -6.5,0.2 -12.5,-1.9 -16.3,-5.9 -2.3,-2.4 -4,-5.6 -5,-9.5 -1.4,-5.6 -1,-11.2 1.4,-15.6 0.7,-1.3 1.5,-2.4 2.4,-3.5 -2,-1.6 -3.8,-3.6 -5.1,-5.9 -3.2,-5.5 -3.9,-12.4 -1.9,-18.4 2,-5.8 6.4,-10.4 12.5,-12.9 2.9,-1.2 6.1,-1.9 9.2,-2 -0.4,-1.7 -0.7,-3.5 -0.9,-5.2 -0.6,-6.9 3.4,-12.9 6.4,-16.7 3.1,-4 6.9,-6.8 11,-8.2 4.3,-1.5 9.1,-1.5 13.8,0 0.3,-1.8 0.7,-3.7 1.5,-5.4 2.7,-6.4 8.3,-11.4 15.1,-13.6 5.8,-1.8 12.2,-1.5 17.7,1 3.8,1.7 7.1,4.3 9.7,7.5 4.1,-9.1 10.7,-15.4 18.6,-17.4 10.5,-2.6 22,2.7 26.9,12.5 2.1,4.2 3,9.1 2.7,14.1 2.2,-1 4.6,-1.9 6.9,-2.5 4.5,-1.2 8.3,-1.4 11.6,-0.6 5,1.2 9.7,5 12.4,10.2 2.9,5.6 3.5,12.6 1.4,18.6 -0.3,0.9 -0.7,1.7 -1.1,2.6 2.8,0.5 5.5,1.7 7.9,3.5 6,4.6 9,12.8 7.8,20.8 -1,6.7 -5,13 -10.6,16.8 -5.6,3.8 -12.9,5.2 -19.5,3.7 l 0.9,-3.8 c 5.6,1.3 11.7,0.1 16.4,-3.1 4.7,-3.2 8.1,-8.5 8.9,-14.2 1,-6.5 -1.6,-13.4 -6.3,-17.1 -2.2,-1.7 -4.9,-2.7 -7.7,-3 -0.9,1.3 -2,2.5 -3.2,3.6 l -0.3,0.3 c -2.2,2 -6.2,5.7 -9.5,3.6 -1.5,-1 -1.9,-2.3 -2,-3.1 -0.1,-1.6 0.9,-3.2 2.9,-4.8 2.8,-2.2 6.3,-3.4 10,-3.5 0.7,-1.1 1.2,-2.3 1.6,-3.5 1.7,-5 1.3,-10.8 -1.2,-15.5 -2.2,-4.2 -5.8,-7.2 -9.8,-8.2 -2.7,-0.6 -5.9,-0.5 -9.7,0.6 -3,0.8 -5.9,1.9 -8.6,3.4 -1.2,5.8 -3,9.5 -5.3,11.1 -1.2,0.8 -2.6,1.1 -4,0.8 -2.7,-0.6 -3.6,-2.1 -3.9,-3.2 -0.6,-2.4 1.2,-4.9 3,-6.4 2.1,-1.8 4.3,-3.4 6.7,-4.7 0.8,-5.1 0.1,-10.3 -2,-14.5 -4.1,-8.2 -13.8,-12.7 -22.5,-10.5 -3.5,0.9 -12,4.4 -17,17.5 0.2,0.3 0.3,0.6 0.4,0.9 0.1,0.1 0.1,0.3 0.2,0.5 2,4.1 3.6,8.2 1.9,10.8 -0.5,0.9 -1.7,1.9 -3.9,1.9 -2,0 -3.1,-1 -3.7,-1.8 -2,-2.8 -0.7,-7.8 0.6,-11.8 v -0.1 c -2.3,-3.6 -5.7,-6.6 -9.6,-8.3 -4.7,-2 -10.1,-2.3 -15,-0.8 -5.7,1.8 -10.4,6 -12.6,11.3 -0.7,1.7 -1.1,3.5 -1.3,5.4 0.5,0.3 1.1,0.5 1.6,0.8 3.6,2 8.4,4.7 10.2,9.7 0.8,2.4 0.7,4.5 -0.4,6.1 -1.2,1.8 -3.6,2.7 -5.9,2.2 -2.2,-0.4 -3.8,-1.9 -4.7,-3.1 -3,-3.7 -4.6,-8.5 -4.8,-13.3 -4.2,-1.5 -8.6,-1.6 -12.3,-0.3 -3.4,1.2 -6.5,3.6 -9.2,7 -4.2,5.4 -6,9.7 -5.6,14 0.2,1.9 0.5,3.9 1.1,5.8 2.7,0.3 5.3,1.1 7.7,2.3 2.8,1.4 4.7,3 5.6,5.1 1.2,2.6 0.8,6.5 -2.1,8.2 -1.9,1.1 -4.4,1 -6.5,-0.3 -1.7,-1 -2.9,-2.6 -3.8,-4 -1.6,-2.4 -2.9,-5 -3.9,-7.6 -3,-0.1 -6.1,0.5 -8.9,1.7 -5,2.1 -8.7,5.8 -10.3,10.6 -1.7,5 -1.1,10.6 1.5,15.1 1.2,2.1 2.9,3.9 4.8,5.3 1,-0.7 2.1,-1.2 3.2,-1.6 2.6,-0.9 6.4,-1.1 8.7,1.4 2.2,2.5 1.4,4.5 1,5.2 -1,1.7 -3.3,2.6 -5.8,2.2 -2.4,-0.4 -4.7,-1.2 -6.8,-2.4 -0.9,0.9 -1.6,1.9 -2.2,3.1 -1.9,3.6 -2.2,8.1 -1,12.8 0.8,3.2 2.2,5.8 4,7.7 3,3.2 7.9,4.9 13.3,4.7 1.3,0 2.9,-0.2 4.6,-0.5 1.5,-2.7 3.7,-4.9 6.3,-6.4 1.6,-0.9 3.3,-1.1 4.7,-0.5 1.3,0.5 2.3,1.5 2.6,2.7 0.3,1.1 0.1,2.3 -0.6,3.2 -1.7,2.3 -6.4,3.7 -10.5,4.5 -1.1,2.6 -1.5,5.6 -1,8.4 0.9,5 4.5,9.4 9.3,11.2 4.7,1.8 10.4,0.9 14.3,-2.3 l 2.4,3.1 c -1.5,1.3 -3.8,2.5 -6.2,3.1 z m -12,-30.5 c -0.2,0.1 -0.4,0.1 -0.6,0.3 -0.8,0.5 -1.6,1 -2.3,1.7 1.9,-0.6 3.4,-1.2 3.9,-1.8 0,0 -0.1,-0.1 -0.2,-0.1 -0.2,-0.2 -0.5,-0.2 -0.8,-0.1 z m 124.4,-61.3 c 0,0 0.1,0.1 0.1,0.1 0.3,0 1.3,-0.1 4.6,-3.2 l 0.3,-0.3 c 0,0 0.1,-0.1 0.1,-0.1 -1.4,0.4 -2.7,1.1 -3.8,2 -0.9,0.8 -1.2,1.3 -1.3,1.5 z m -0.1,0.1 v 0 z m -148.2,34.1 c 1.2,0.5 2.4,0.9 3.7,1.1 0.9,0.2 1.5,0 1.7,-0.2 0,-0.1 -0.2,-0.4 -0.5,-0.8 -0.9,-1 -2.9,-0.9 -4.4,-0.4 -0.2,0.2 -0.3,0.3 -0.5,0.3 z m 13.3,-34.4 c 0.7,1.7 1.6,3.3 2.7,4.9 0.7,1 1.5,2.2 2.6,2.8 0.8,0.5 1.9,0.6 2.5,0.3 0.8,-0.5 1.1,-2 0.6,-3.2 -0.6,-1.2 -1.8,-2.3 -3.8,-3.2 -1.5,-0.7 -3,-1.2 -4.6,-1.6 z m 106.7,-23.5 c 0.1,0.1 0.3,0.2 1,0.4 0.4,0.1 0.6,0 1,-0.2 1,-0.7 1.9,-2.4 2.7,-4.9 -1,0.7 -2,1.5 -2.9,2.3 -1.2,0.9 -1.8,2 -1.8,2.4 z m -78.1,-5.2 c 0.5,3.3 1.7,6.5 3.7,9 0.7,0.9 1.6,1.5 2.4,1.7 0.7,0.1 1.6,-0.1 1.9,-0.6 0.4,-0.5 0.3,-1.5 -0.1,-2.6 -1.1,-3.3 -4.2,-5.4 -7.9,-7.5 z m 41,-6.9 c -0.7,3.1 -0.3,4.1 -0.1,4.4 0,0.1 0.1,0.2 0.5,0.2 0.4,0 0.6,-0.1 0.6,-0.1 0.1,-0.2 0.4,-1.1 -1,-4.5 z"
   id="path342" />
					<g
   id="g370">
						<path
   class="st16"
   d="m 1575.7,641.2 c -8.2,15.3 -22.5,27.4 -40.6,32.2 -14.2,3.8 -28.6,2.7 -41.3,-2.5 -18.4,-7.4 -31.5,-19.2 -37,-39.8 -7,-26 3.5,-51.7 23.7,-67 6.9,-5.3 15,-9.3 23.9,-11.7 31.3,-8.4 61.3,8.4 73.5,32.4 1.4,2.7 2.5,5.6 3.4,8.5 5.1,16.6 2,33.8 -5.6,47.9 z"
   id="path344" />
						<path
   class="st20"
   d="m 1575.7,641.2 c -8.2,15.3 -22.5,27.4 -40.6,32.2 -14.2,3.8 -28.6,2.7 -41.3,-2.5 -18.4,-7.4 -31.5,-19.2 -37,-39.8 -7,-26 3.5,-51.7 23.7,-67 -7.8,10.9 -15.3,26.9 -11.6,45.1 7.1,35.1 36.2,44 53.1,41.9 29.4,-3.5 53,-29.6 55.8,-66.3 1.4,2.7 2.5,5.6 3.4,8.5 5.2,16.6 2.1,33.8 -5.5,47.9 z"
   id="path346" />
						<g
   id="g352">
							<path
   class="st6"
   d="m 1531.8,612.5 c 1.1,-1 -5.9,-18.6 4.3,-23 10.2,-4.4 17,16.4 18.3,15.8 1.3,-0.6 -6,-27.3 -20.8,-22.3 -14.8,5.1 -2.9,30.5 -1.8,29.5 z"
   id="path348" />
							<path
   class="st6"
   d="m 1478.8,634 c 1.1,-1 -5.9,-18.6 4.3,-23 10.2,-4.4 17,16.4 18.3,15.8 1.3,-0.6 -6,-27.3 -20.8,-22.3 -14.8,5.1 -2.9,30.6 -1.8,29.5 z"
   id="path350" />
						</g>
						<g
   id="g360">
							<path
   class="st9"
   d="m 1531.8,621.8 c 0.1,0.3 0.1,0.6 0.1,0.9 0.7,6.8 -3.9,13 -10.7,14.2 -7.1,1.3 -13.9,-3.5 -15.2,-10.6 -0.6,-3.2 0.1,-6.3 1.6,-8.9 1.9,-3.2 5.1,-5.6 9,-6.3 7.2,-1.2 14,3.5 15.2,10.7 z"
   id="path354" />
							<path
   class="st8"
   d="m 1532,622.7 c 0.7,6.8 -3.9,13 -10.7,14.2 -7.1,1.3 -13.9,-3.5 -15.2,-10.6 -0.6,-3.2 0.1,-6.3 1.6,-8.9 0.7,3.8 3.1,10.4 9,12.2 6.8,2.2 12.8,-2.2 15.3,-6.9 z"
   id="path356" />
							<path
   class="st21"
   d="m 1528.2,620.3 c 0.4,2.3 -1.1,4.5 -3.4,4.9 -2.3,0.4 -4.5,-1.1 -4.9,-3.4 -0.4,-2.3 1.1,-4.5 3.4,-4.9 2.3,-0.4 4.5,1.1 4.9,3.4 z"
   id="path358" />
						</g>
						<polygon
   class="st9"
   points="1494.3,627.5 1490,629 1488.3,626.9 1488.3,629.7 1484.8,631 1488.3,632.4 1488.3,637.2 1490.6,633.4 1495,635.2 1491.9,631.4 "
   id="polygon362" />
						<polygon
   class="st9"
   points="1548.3,604.5 1544,606.1 1542.3,603.9 1542.3,606.7 1538.8,608 1542.3,609.5 1542.4,614.2 1544.7,610.4 1549,612.3 1545.9,608.4 "
   id="polygon364" />
						<path
   class="st9"
   d="m 1574.8,628.7 c 2.9,7.3 1.7,15.6 -2.9,21.9 -8.5,11.9 -21,21 -36.2,25.1 -12,3.2 -24.1,2.9 -35.2,-0.3 -7.6,-2.2 -13.1,-11.7 -9.6,-18.9 1.5,-3.1 5.8,-7.1 9.7,-8.1 12,-3 17.1,5 28.3,-0.3 13.9,-6.5 14.7,-11.8 22.3,-22.9 2.9,-4.2 12,-9.3 19.2,-3.1 1.8,1.6 3.3,3.8 4.4,6.6 z"
   id="path366" />
						<path
   class="st8"
   d="m 1507.3,660.4 c -2.6,1 -2.1,4.4 2.5,6.1 2.5,0.7 9.7,4.4 28.2,-3.1 18.5,-7.5 25.1,-25.9 24.2,-29.2 -0.9,-3.3 -4.2,-1.7 -6,1.5 -1.8,3.2 -11.6,18.4 -20.1,21.6 -12.9,5.1 -25.1,1.6 -28.8,3.1 z"
   id="path368" />
					</g>
					<path
   class="st16"
   d="m 1494.2,549.3 c 0.1,-0.1 0.2,-0.1 0.1,-0.1 0,0.1 0,0.1 -0.1,0.1 z"
   id="path372" />
				</g>
			</g>
			<g
   id="g406">
				<path
   class="st14"
   d="m 1750.6,359.5 c 12.9,11.7 27.3,21.6 42.7,29.7 1,0.5 2.1,1.1 3.1,1.6 80.7,41.1 147.3,40.4 154.7,59.6 0,0 -7.1,18.3 5.3,26.1 0.8,0.5 1.7,1 2.6,1.4 15.9,6.8 35.1,-41 -11.1,-51.3 -7.4,-1.6 -14.8,-3.3 -22.1,-5.2 -10.1,-2.5 -20.1,-5.3 -30.1,-8.3 -11.7,-3.6 -23.4,-7.6 -34.8,-12 -12.5,-4.9 -24.7,-10.3 -36.7,-16.3 -12.3,-6.3 -24.3,-13.3 -35.6,-21.3 -11.4,-8 -22.1,-16.8 -31.7,-26.8 -9.6,-9.9 -18.1,-20.9 -24.9,-32.9 -8,-14.1 -13.2,-29.6 -18.4,-44.8 -5.4,-16 -7.7,-33.4 -7.5,-50.2 0.2,-12.2 1.6,-24.3 3.9,-36.3 2.4,-12 5.6,-23.8 9.6,-35.3 3.9,-11.4 8.5,-22.5 13.5,-33.5 4.8,-10.4 10.1,-20.6 15.7,-30.6 5.1,-9.1 10.5,-18 16.1,-26.8 4.8,-7.4 9.7,-14.7 14.8,-21.9 3.8,-5.4 7.7,-10.8 11.6,-16.1 17.7,-23.9 6.1,-42.1 -6.9,-48.4 -7.6,-3.7 -15.7,-3.3 -18.5,2.5 -7.5,15.4 12.1,25.6 12.1,25.6 7,19.3 -43.7,62.5 -77.5,146.6 -5.9,14.7 -10.4,30.1 -12.9,45.7 -2.1,12.8 -2.9,25.9 -2.2,38.9 0.5,10.2 1.8,20.5 4.1,30.5 0,0.1 0,0.2 0.1,0.3 1,4.6 2.3,9.1 3.7,13.6 2,6.3 4.6,12.5 6.9,18.8 0,0 0,0.1 0,0.1 2.4,6.5 4.8,13 7.7,19.4 4.3,9.3 9.5,18.3 15.3,26.7 7.9,11.2 17.1,21.6 27.4,30.9 z"
   id="path378" />
				<path
   class="st22"
   d="m 1788.9,376.4 c 33,19.9 75.9,35.8 110.1,43.4 34.2,7.5 56.8,11.9 64.5,23.9 7.7,12.1 -19.4,13.6 -7.9,31.4 0.3,0.5 0.6,0.9 0.9,1.3 0.8,0.5 1.7,1 2.6,1.4 15.9,6.8 35.1,-41 -11.1,-51.3 -7.4,-1.6 -14.8,-3.3 -22.1,-5.2 -10.1,-2.5 -20.1,-5.3 -30.1,-8.3 -11.7,-3.6 -23.4,-7.6 -34.8,-12 -12.5,-4.9 -24.7,-10.3 -36.7,-16.3 -12.3,-6.3 -24.3,-13.3 -35.6,-21.3 -11.4,-8 -22.1,-16.8 -31.7,-26.8 -9.6,-9.9 -18.1,-20.9 -24.9,-32.9 -8,-14.1 -13.2,-29.6 -18.4,-44.8 -5.4,-16 -7.7,-33.4 -7.5,-50.2 0.2,-12.2 1.6,-24.3 3.9,-36.3 2.4,-12 5.6,-23.8 9.6,-35.3 3.9,-11.4 8.5,-22.5 13.5,-33.5 4.8,-10.4 10.1,-20.6 15.7,-30.6 5.1,-9.1 10.5,-18 16.1,-26.8 4.8,-7.4 9.7,-14.7 14.8,-21.9 3.8,-5.4 7.7,-10.8 11.6,-16.1 17.7,-23.9 6.1,-42.1 -6.9,-48.4 5.4,8.5 10.8,21.7 4.7,34.9 -10,21.7 -84,128.7 -92,177.1 -7.8,47.2 -5.8,72.4 13.5,113.4 19.2,40.9 45.2,71.3 78.2,91.2 z"
   id="path380" />
				<polygon
   class="st16"
   points="1948.9,182 1951.1,450.3 1946.9,448.7 1944.8,183 1776.9,-9.4 1778,-12 "
   id="polygon382" />
				<g
   id="g404">
					<path
   class="st8"
   d="m 1918,193.8 c 0,0 -0.6,-9.5 13.2,-24 14.8,-15.7 27.6,-12.8 27.4,-5.5 -0.2,7.3 -10.5,18.2 -10.5,18.2 0,0 24.4,5.7 21.2,15.7 -3,9.4 -38.6,10.5 -51.3,-4.4 z"
   id="path384" />
					<g
   id="g392">
						<g
   id="g390">
							<g
   id="g388">
								<path
   class="st23"
   d="M 1712.4,246.4"
   id="path386" />
							</g>
						</g>
					</g>
					<g
   id="g400">
						<path
   class="st1"
   d="M 1624.5,309.7 1955,184.3 c 0,0 0,0 0,0 l -1.7,-4.1 -1.6,-4 -329.7,128.6 1,2 z"
   id="path394" />
						<path
   class="st24"
   d="M 1624.5,309.7 1955,184.3 c 0,0 0,0 0,0 l -1.7,-4.1 -330.3,126.5 z"
   id="path396" />
						<path
   class="st24"
   d="m 1955.1,184.3 c 0,0 0,0 0,0 l -3.3,-8.1 c 0,0 -4.3,2.4 -2.9,5.8 1.4,3.3 5.9,2.3 6.2,2.3 z"
   id="path398" />
					</g>
					<path
   class="st8"
   d="m 1629.3,329.9 c 6.2,-10 12.5,-24 12.5,-24 l 15.3,-5 -4.8,-11.6 c 0,0 -5.6,3.3 -13.9,7.7 -5.4,-2.9 -16.2,-6.6 -24.7,-9.3 z"
   id="path402" />
				</g>
			</g>
			<g
   id="g426">
				<path
   class="st25"
   d="m 1665.6,941.4 c -0.7,43.6 -24.4,81.3 -59.4,101.9 -18.3,10.8 -39.8,16.8 -62.6,16.4 -12.7,-0.2 -24.8,-2.3 -36.3,-6.1 -48.4,-16.1 -82.9,-62.2 -82.1,-115.9 0.1,-4.1 0.3,-8.1 0.8,-12 0.7,-6.2 1.9,-12.3 3.5,-18.2 9,-32.8 31.6,-59.9 61.2,-75 13.5,-6.9 28.6,-11.4 44.4,-12.7 4,-0.3 8,-0.5 12,-0.4 10.1,0.2 19.8,1.5 29.1,4 50.1,13.3 87.2,58.1 89.1,111.7 0.3,2 0.3,4.1 0.3,6.3 z"
   id="path408" />
				<path
   class="st26"
   d="m 1620.2,917.8 c -0.5,35.3 -19.8,65.9 -48.1,82.5 -14.8,8.7 -32.2,13.6 -50.7,13.3 -10.3,-0.2 -20.1,-1.9 -29.3,-5 -35.9,-12 -62.3,-44.2 -66,-83 0.7,-6.2 1.9,-12.3 3.5,-18.2 9,-32.8 31.6,-59.9 61.2,-75 13.5,-6.9 28.6,-11.4 44.4,-12.7 4.3,0.5 8.6,1.4 12.7,2.5 40.6,10.8 70.6,47.1 72.2,90.4 0.1,1.7 0.1,3.5 0.1,5.2 z"
   id="path410" />
				<path
   class="st20"
   d="m 1606.2,1043.2 c -18.3,10.8 -39.8,16.8 -62.6,16.4 -12.7,-0.2 -24.8,-2.3 -36.3,-6.1 -8.2,-9.4 -15.6,-23.4 -19.5,-46.4 -0.7,-4.3 -1.3,-8.9 -1.7,-13.8 -4.6,-50.7 25.7,-113.9 25.7,-113.9 l 6.7,0.1 61.8,115.4 z"
   id="path412" />
				<path
   class="st20"
   d="m 1665.5,935 c -7.7,-11.6 -22.9,-29.7 -48.3,-42.6 -1.9,-1 -3.9,-1.9 -6,-2.9 -44.6,-19.9 -88.9,-9.1 -88.9,-9.1 0,0 -0.6,-0.9 -2.9,-7.8 14.1,-22.5 31.2,-35.9 45.8,-43.9 3.9,-2.1 7.6,-3.9 11.1,-5.3 50.2,13.3 87.3,58.1 89.2,111.6 z"
   id="path414" />
				<path
   class="st16"
   d="m 1515.7,874.3 -3.9,5.1 c -0.8,0.2 -47.1,-6.3 -82.3,28.1 9,-32.8 31.6,-59.9 61.2,-75 16.2,14.1 25,41.8 25,41.8 z"
   id="path416" />
				<path
   class="st16"
   d="m 1518.5,879.5 61.8,115.4 c -2.6,1.9 -5.4,3.7 -8.2,5.4 -14.8,8.7 -32.2,13.6 -50.7,13.3 -10.3,-0.2 -20.1,-1.9 -29.3,-5 -1.4,-0.5 -2.8,-1 -4.2,-1.5 -0.7,-4.3 -1.3,-8.9 -1.7,-13.8 -4.6,-50.7 25.7,-113.9 25.7,-113.9 z"
   id="path418" />
				<path
   class="st16"
   d="m 1617.3,892.4 c -1.9,-1 -3.9,-1.9 -6,-2.9 -44.6,-19.9 -88.9,-9.1 -88.9,-9.1 0,0 -0.6,-0.9 -2.9,-7.8 14.1,-22.5 31.2,-35.9 45.8,-43.9 25.6,12.4 44.9,35.6 52,63.7 z"
   id="path420" />
				<path
   class="st16"
   d="m 1529.9,870.8 c 2.9,5.9 -0.5,13.6 -7.7,17.2 -7.2,3.6 -15.4,1.8 -18.4,-4.1 -2.9,-5.9 0.5,-13.6 7.7,-17.2 7.2,-3.6 15.5,-1.8 18.4,4.1 z"
   id="path422" />
				<path
   class="st25"
   d="m 1522.4,874.5 c 1.3,2.5 -0.2,5.8 -3.3,7.3 -3.1,1.5 -6.6,0.8 -7.8,-1.8 -1.3,-2.5 0.2,-5.8 3.3,-7.3 3.1,-1.5 6.6,-0.7 7.8,1.8 z"
   id="path424" />
			</g>
			<g
   id="g456">
				<path
   class="st16"
   d="m -54.2,905.5 -6.5,13.1 c 0,0 2.7,59.1 88.7,114.2 86,55.2 152.3,37.1 152.3,37.1 l 9.3,-11.9 z"
   id="path428" />
				<path
   class="st20"
   d="m -35.1,905.2 c 0,0 -11.3,-1.1 -19.1,0.4 4.7,27.1 26.4,84.6 101.7,127 75.3,42.4 133.8,28.2 142.2,25.5 C 178.1,1041.2 115.5,929 -35.1,905.2 Z"
   id="path430" />
				<path
   class="st8"
   d="m 181.3,1056.2 c 0,0 -17,4 -43.5,1.4 -2.7,-0.3 -5.5,-0.6 -8.4,-1 -24.2,-3.5 -54.7,-12.5 -87.1,-33.7 -0.3,-0.2 -0.7,-0.4 -1,-0.7 -1.8,-1.2 -3.7,-2.4 -5.4,-3.7 -30.7,-21.2 -50.7,-43.7 -63.4,-62.5 -1.7,-2.4 -3.2,-4.8 -4.6,-7.1 -12.7,-20.6 -16.2,-35.1 -15.9,-35.6 0.4,-0.6 33.2,-46.1 57.8,-80.3 14.8,-20.5 26.6,-37 26.6,-37 L 251.7,938.5 230.5,974 Z"
   id="path432" />
				<path
   class="st19"
   d="M 230.5,974 C 193.8,974.7 141.7,968.8 95.6,937.3 47.2,904.2 22.1,862 9.7,833.1 c 14.8,-20.5 26.6,-37 26.6,-37 l 215.3,142.5 z"
   id="path434" />
				<path
   class="st16"
   d="m 62.9,823 -32.7,48 -57.8,85 c -1.7,-2.4 -3.2,-4.8 -4.6,-7.1 7.3,-10.6 35.5,-51.2 58.3,-84.2 17,-24.6 31.1,-44.9 31.4,-45.3 z"
   id="path436" />
				<path
   class="st20"
   d="m 57.5,819.4 5.4,3.6 -32.7,48 c -1.4,-2.1 -2.8,-4.2 -4.1,-6.3 17.1,-24.6 31.2,-44.9 31.4,-45.3 z"
   id="path438" />
				<path
   class="st16"
   d="m 130.6,892.9 -31.7,46.6 -56.7,83.4 c -0.3,-0.2 -0.7,-0.4 -1,-0.7 -1.8,-1.2 -3.7,-2.4 -5.4,-3.7 7.6,-10.9 34.9,-50.4 57.4,-82.9 17.4,-25.1 31.8,-46 32.1,-46.3 z"
   id="path440" />
				<path
   class="st20"
   d="m 125.2,889.3 5.4,3.6 -31.7,46.6 c -1.1,-0.7 -2.2,-1.5 -3.3,-2.2 -0.8,-0.5 -1.6,-1.1 -2.4,-1.7 17.3,-25 31.8,-45.9 32,-46.3 z"
   id="path442" />
				<path
   class="st16"
   d="m 137.8,1057.6 c -2.7,-0.3 -5.5,-0.6 -8.4,-1 11,-17.8 34.4,-56 52.8,-85.8 14,-22.8 25,-40.7 25.2,-41 l 5.5,3.3 -23.4,38.8 z"
   id="path444" />
				<path
   class="st20"
   d="m 189.5,971.8 c -2.4,-0.3 -4.9,-0.7 -7.4,-1.1 14,-22.8 25,-40.7 25.2,-41 l 5.5,3.3 z"
   id="path446" />
				<path
   class="st16"
   d="m 251.3,950.4 c 0,0 -54.5,0.5 -134.4,-53.2 -77.3,-52 -90,-98.2 -90,-98.2 l 12.5,-17.7 c 0,0 47.4,-2.3 126.3,50 79.8,52.8 97.1,100.3 97.1,100.3 z"
   id="path448" />
				<path
   class="st20"
   d="m 262.9,931.7 c 0,0 -53.4,-0.4 -127.4,-48.2 -74,-47.8 -96,-102.1 -96,-102.1 0,0 47.4,-2.3 126.3,50 79.7,52.8 97.1,100.3 97.1,100.3 z"
   id="path450" />
				<path
   class="st20"
   d="m 251.5,924.3 c 0,0 -3.5,-0.1 -9.9,-1.2 C 224.4,920.3 186.4,910.8 138,879.5 88.4,847.4 64.2,812.9 55.1,797.4 c -3.1,-5.2 -4.4,-8.3 -4.4,-8.3 0,0 41.7,-0.7 112.6,46.3 71.6,47.6 88.2,88.9 88.2,88.9 z"
   id="path452" />
				<path
   class="st26"
   d="m 251.5,924.3 c 0,0 -3.5,-0.1 -9.9,-1.2 C 231.2,906 206.6,872.6 159.2,841.3 114,811.4 75.6,801 55.1,797.4 c -3.1,-5.2 -4.4,-8.3 -4.4,-8.3 0,0 41.7,-0.7 112.6,46.3 71.6,47.6 88.2,88.9 88.2,88.9 z"
   id="path454" />
			</g>
			<g
   id="g464">
				<path
   class="st1"
   d="m 421.1,864.6 c 0.2,3.1 -2.3,5.8 -5.4,5.9 -73.4,1.7 -172.8,4.6 -205,5.1 -8.8,0.1 -17.4,2.1 -25.7,5.2 -7.7,2.9 -16.1,0 -19.4,-2.2 -4.4,-2.9 -3.7,-11 -0.8,-14.3 1.2,-1.4 3.3,-2.6 5.8,-3.5 3.4,-1.2 7.6,-1.6 11.5,-0.5 0.6,0.2 1.2,0.4 1.8,0.5 7.8,2.4 16,3.5 24.1,3.2 29.9,-1.1 131.2,-5.2 207.2,-8 3,-0.1 5.6,2.2 5.8,5.3 l 0.1,1.1 z"
   id="path458" />
				<path
   class="st24"
   d="m 421.1,864.6 c 0.2,3.1 -2.3,5.8 -5.4,5.9 -73.4,1.7 -172.8,4.6 -205,5.1 -8.8,0.1 -17.4,2.1 -25.7,5.2 -7.7,2.9 -16.1,0 -19.4,-2.2 -4.4,-2.9 -3.7,-11 -0.8,-14.3 1.2,-1.4 3.3,-2.6 5.8,-3.5 -1.3,3.8 -1.1,7.9 3.6,10.5 9.9,5.4 14.2,1.8 33.1,-0.5 7.7,-1 120.6,-5.3 213.7,-8.5 z"
   id="path460" />
				<path
   class="st27"
   d="m 176.5,861.8 c -3.3,0.5 -4.3,3.2 -0.2,5.3 4,2.1 9.7,3.2 11.3,0.3 1.5,-2.9 -4.3,-6.7 -11.1,-5.6 z"
   id="path462" />
			</g>
			<g
   id="g472">
				<path
   class="st1"
   d="m 101.1,567.4 c -3.1,0.7 -4.9,3.9 -4.1,6.9 19.4,70.8 45.2,166.9 53.9,197.8 2.4,8.5 3,17.3 2.4,26.1 -0.5,8.2 4.6,15.4 7.7,18 4.1,3.4 11.6,0.4 13.9,-3.3 1,-1.6 1.6,-3.9 1.7,-6.6 0.1,-3.6 -0.7,-7.7 -2.9,-11.2 -0.3,-0.5 -0.7,-1.1 -1,-1.5 -4.6,-6.8 -7.9,-14.3 -10,-22.2 -7.5,-29 -32.7,-127.2 -51.7,-200.8 -0.8,-2.9 -3.7,-4.7 -6.7,-4 l -1,0.2 z"
   id="path466" />
				<path
   class="st24"
   d="m 101.1,567.4 c -3.1,0.7 -4.9,3.9 -4.1,6.9 19.4,70.8 45.2,166.9 53.9,197.8 2.4,8.5 3,17.3 2.4,26.1 -0.5,8.2 4.6,15.4 7.7,18 4.1,3.4 11.6,0.4 13.9,-3.3 1,-1.6 1.6,-3.9 1.7,-6.6 -3.3,2.3 -7.2,3.4 -11.1,-0.5 -8,-7.9 -5.9,-13.1 -9,-31.9 -1.3,-7.6 -29.5,-117.1 -53.2,-207.1 z"
   id="path468" />
				<path
   class="st27"
   d="m 173.9,800.9 c 0.4,3.3 -1.8,5 -5,1.7 -3.2,-3.2 -5.9,-8.4 -3.5,-10.7 2.3,-2.2 7.6,2.3 8.5,9 z"
   id="path470" />
			</g>
			<g
   id="g582">
				<g
   id="g482">
					<path
   class="st14"
   d="m 563.9,829.8 c -4.4,-1.2 -7,-5.7 -5.8,-10.1 1.2,-4.4 5.7,-7 10.1,-5.8 4.4,1.2 7,5.7 5.8,10.1 -1.2,4.4 -5.8,7 -10.1,5.8 z m 59.3,16.2 c -4.4,-1.2 -7,-5.7 -5.8,-10.1 1.2,-4.4 5.7,-7 10.1,-5.8 4.4,1.2 7,5.7 5.8,10.1 -1.2,4.4 -5.7,7 -10.1,5.8 z m 22.4,-10.4 c -2.4,-17.2 -20,-18.5 -26.1,-15.6 -3.5,1.7 -10.9,5.5 -16.7,8.4 -4.4,2.3 -9.8,0.8 -12.5,-3.4 -3.5,-5.5 -7.9,-12.5 -10.1,-15.7 -2.7,-4 -11.5,-9.1 -20.3,-6.8 -3.5,0.9 -7,3.1 -10.1,7 -10.8,13.6 1.8,28.2 11.7,30.9 l 11.6,3.2 c 5.6,1.5 8.9,7.3 7.4,12.9 l -9.2,33.7 14.8,4 9.2,-33.7 c 1.5,-5.6 7.3,-8.9 12.9,-7.4 l 11.6,3.2 c 10,2.8 28.2,-3.5 25.8,-20.7 z"
   id="path474" />
					
						<rect
   x="570.90002"
   y="874.40002"
   transform="matrix(0.2627,-0.9649,0.9649,0.2627,-422.2608,1211.5027)"
   class="st22"
   width="21.299999"
   height="15.3"
   id="rect476" />
					<path
   class="st14"
   d="m 548.3,885 2,-7.4 c 1,-3.7 4.8,-5.8 8.5,-4.8 l 47.5,12.9 c 3.7,1 5.8,4.8 4.8,8.5 l -2.1,7.9 z"
   id="path478" />
					<path
   class="st22"
   d="m 580.6,856.6 c 1.5,-5.6 -1.8,-11.4 -7.4,-12.9 l -11.6,-3.2 c -9.9,-2.7 -22.5,-17.3 -11.7,-30.9 3.1,-3.9 6.6,-6 10.1,-7 -3.7,2.4 -8.4,6.7 -9.3,13.5 -1.6,11.6 4.3,17.4 11.4,20.1 7,2.7 23,6 18.5,20.4 z"
   id="path480" />
				</g>
				<g
   id="g544">
					<g
   id="g530">
						<path
   class="st8"
   d="m 736.6,1032.3 -5.3,19.6 c -0.8,2.8 -3.7,4.5 -6.5,3.7 l -8.5,-2.3 c -2.8,-0.8 -4.5,-3.7 -3.7,-6.5 l 5.3,-19.6 c 0.8,-2.8 3.7,-4.5 6.5,-3.7 l 8.5,2.3 c 2.8,0.8 4.4,3.7 3.7,6.5 z"
   id="path484" />
						<path
   class="st19"
   d="m 733.3,1044.3 -2.1,7.6 c -0.8,2.8 -3.7,4.5 -6.5,3.7 l -8.5,-2.3 c -2.8,-0.8 -4.5,-3.7 -3.7,-6.5 l 1.3,-4.6 14.9,4 c 1.4,0.4 3.1,-0.6 4.6,-1.9 z"
   id="path486" />
						<path
   class="st16"
   d="m 376.4,924.7 c 0,0 -10,33.8 -10.2,34.4 -0.1,0.3 -4.2,-10.2 -8.3,-20.7 -1.8,-4.7 -3.7,-9.5 -5.1,-13.3 -1.2,-3.2 1.7,-6.4 5,-5.5 z"
   id="path488" />
						<path
   class="st20"
   d="m 376.4,924.7 c 0,0 -10,33.8 -10.2,34.4 -0.1,0.3 -4.2,-10.2 -8.3,-20.7 l 4.8,-17.5 z"
   id="path490" />
						<path
   class="st26"
   d="m 729.7,1021.8 -16.8,61.7 -21.8,-5.9 c 0,0 3.8,-11.9 3,-25.7 -0.9,-15.4 -7.7,-33.3 -32.1,-39.7 -14.6,-3.8 -25.5,-0.8 -33.7,5 -0.8,0.5 -1.5,1.1 -2.2,1.7 -4.1,3.4 -7.5,7.5 -10.1,11.8 -4.2,6.6 -6.7,13.3 -8.1,18 -1,3.2 -4.4,5.1 -7.7,4.2 l -130.5,-35.5 c 1.3,-3.4 4.7,-13.7 4.7,-25.2 0,-2.7 -0.2,-5.4 -0.7,-8.2 -0.2,-1.2 -0.4,-2.4 -0.8,-3.6 -3,-11.8 -11.4,-23.2 -31,-28.5 -25.7,-7 -39.6,5.4 -47,18.6 -6.6,11.8 -8,24.3 -8,24.3 l -36,-9.8 17,-62.6 c 1,-3.6 4.7,-5.8 8.3,-4.8 l 14.4,3.9 c 3.3,-11.9 14.5,-14.2 25.6,-11.2 11.1,3 45.5,12.4 45.5,12.4 l 36.2,-42.5 6.2,-7.3 c 2.7,-3.2 7,-4.5 11,-3.4 l 128.4,34.9 c 3.8,1 6.8,4.1 7.7,8 l 2.3,10 12.5,55.7 c 0,0 27.9,7.3 43.1,11.7 7.7,2.3 10.8,7.7 8.9,14.6 -1.4,5.3 -1.8,6.2 -1.7,6.3 0,0 0,0 0,0 l 8.7,2.4 c 3.5,1.3 5.7,5 4.7,8.7 z"
   id="path492" />
						<path
   class="st28"
   d="m 724.9,1039.1 -12.1,44.4 -21.8,-5.9 c 0,0 3.8,-11.9 3,-25.7 -0.9,-15.4 -7.7,-33.3 -32.1,-39.7 -14.6,-3.8 -25.5,-0.8 -33.7,5 -0.8,0.5 -1.5,1.1 -2.2,1.7 -4.1,3.4 -7.5,7.5 -10.1,11.8 -4.2,6.6 -6.7,13.3 -8.1,18 -1,3.2 -4.4,5.1 -7.7,4.2 l -130.5,-35.5 c 1.3,-3.4 4.7,-13.7 4.7,-25.2 0,-2.7 -0.2,-5.4 -0.7,-8.2 -0.2,-1.2 -0.4,-2.4 -0.8,-3.6 -3,-11.8 -11.4,-23.2 -31,-28.5 -25.7,-7 -39.6,5.4 -47,18.6 -6.6,11.8 -8,24.3 -8,24.3 l -36,-9.8 12,-43.9 c 28.7,0 77.9,1.7 194.4,33.5 101.1,27.4 140.2,48.3 167.7,64.5 z"
   id="path494" />
						<g
   id="g500">
							<path
   class="st25"
   d="m 526.5,880.6 -40,50.1 -0.1,0.1 -13.5,49.5 c 0.3,1.2 0.6,2.4 0.8,3.6 l 14.2,-52.3 39.2,-49.2 51.3,14 -38.1,140.1 1.6,0.4 38.6,-141.7 z"
   id="path496" />
							<path
   class="st25"
   d="m 629.7,908.7 -50.9,-13.9 -38.6,141.7 1.6,0.4 38.2,-140 48.3,13.1 10.4,62.7 -12.6,46.2 c 0.7,-0.6 1.4,-1.2 2.2,-1.7 l 12.1,-44.4 z"
   id="path498" />
						</g>
						<path
   class="st25"
   d="m 461.7,922.8 v 0 c -7.7,8.6 -19.5,12.1 -30.6,9.2 l -40.5,-10.4 c 3.3,-11.9 14.5,-14.2 25.6,-11.2 11.2,3 45.5,12.4 45.5,12.4 z"
   id="path502" />
						<path
   class="st25"
   d="m 716.2,1011 -27.9,-7.6 c -11,-3 -19.4,-11.8 -21.9,-23 l -0.5,-2.1 c 0,0 27.9,7.3 43.1,11.7 7.7,2.3 10.8,7.7 8.9,14.6 -1.5,5.4 -1.8,6.3 -1.7,6.4 z"
   id="path504" />
						<polygon
   class="st6"
   points="497.9,909.9 483.2,928.6 461.7,922.8 475,907.1 497.9,880.3 517.1,885.5 "
   id="polygon506" />
						<polygon
   class="st6"
   points="644.4,972.5 639.6,946.8 634.1,917.4 653.4,922.6 660.5,954.3 665.9,978.3 "
   id="polygon508" />
						<polygon
   class="st6"
   points="559.7,950 493.1,931.9 509.6,911.8 528.4,888.9 573,901.2 "
   id="polygon510" />
						<polygon
   class="st6"
   points="568.8,952.5 582.1,903.7 625.3,915.7 630,943.6 634.4,970.4 "
   id="polygon512" />
						<path
   class="st16"
   d="m 394.9,970.4 -6.9,25.3 c -0.9,3.4 -4.4,5.3 -7.7,4.4 l -35.5,-9.7 c -4.4,-1.2 -7,-5.5 -6.2,-9.9 0,-0.2 0.1,-0.5 0.2,-0.7 l 4,-14.7 c 1.3,-4.6 6,-7.3 10.6,-6.1 z"
   id="path514" />
						<path
   class="st16"
   d="m 615.9,1030.6 -6.9,25.3 c -0.9,3.4 -4.4,5.3 -7.7,4.4 L 471.8,1025 c -3.4,-0.9 -5.3,-4.4 -4.4,-7.7 l 6.9,-25.3 z"
   id="path516" />
						<path
   class="st16"
   d="m 726.5,1068.1 -4.8,17.7 c -1,3.8 -4.9,6 -8.7,5 l -21.4,-5.8 c -3.4,-0.9 -5.3,-4.4 -4.4,-7.7 l 6.9,-25.3 27.4,7.5 c 3.8,0.9 6,4.8 5,8.6 z"
   id="path518" />
						<path
   class="st20"
   d="m 390.5,986.6 -2.5,9.1 c -0.9,3.4 -4.4,5.3 -7.7,4.4 l -35.5,-9.7 c -4.4,-1.2 -7,-5.5 -6.2,-9.9 1.5,-4.2 6,-6.5 10.4,-5.3 z"
   id="path520" />
						<path
   class="st20"
   d="m 611.5,1046.7 -2.5,9.1 c -0.9,3.4 -4.4,5.3 -7.7,4.4 l -129.5,-35.3 c -3.4,-0.9 -5.3,-4.4 -4.4,-7.7 l 2.5,-9.1 z"
   id="path522" />
						<path
   class="st20"
   d="m 722.1,1084.2 -0.4,1.5 c -1,3.8 -4.9,6 -8.7,5 l -21.4,-5.8 c -3.4,-0.9 -5.3,-4.4 -4.4,-7.7 l 2.5,-9.1 27.4,7.5 c 3.8,0.9 6,4.8 5,8.6 z"
   id="path524" />
						<path
   class="st6"
   d="m 548.1,964.1 -9.7,-2.6 c -3.3,-0.9 -5.3,-4.4 -4.4,-7.7 v 0 c 0.3,-1.1 1.5,-1.8 2.6,-1.5 l 17.6,4.8 c 1.1,0.3 1.8,1.5 1.5,2.6 v 0 c -0.8,3.4 -4.3,5.3 -7.6,4.4 z"
   id="path526" />
						<path
   class="st6"
   d="m 622.5,984.4 -9.7,-2.6 c -3.3,-0.9 -5.3,-4.4 -4.4,-7.7 v 0 c 0.3,-1.1 1.5,-1.8 2.6,-1.5 l 17.6,4.8 c 1.1,0.3 1.8,1.5 1.5,2.6 v 0 c -0.8,3.3 -4.3,5.3 -7.6,4.4 z"
   id="path528" />
					</g>
					<path
   class="st29"
   d="m 689.7,1009.9 c 0,0 30.4,18.6 32.8,19 2,-7.5 2,-7.5 2,-7.5 0,0 -27,-9.7 -34.8,-11.5 z"
   id="path532" />
					<path
   class="st29"
   d="m 378.1,923.9 c -3.1,-0.8 -3.5,1.3 -3.8,2.5 l -0.8,2.8 c -0.7,2.6 1.2,5.1 3.8,5.2 11.9,0.4 40.7,1.4 46,1.8 -14.4,-3.9 -45.2,-12.3 -45.2,-12.3 z"
   id="path534" />
					<path
   class="st30"
   d="m 475,907.1 c 6.5,0.6 14.1,1.5 22.9,2.8 l -14.7,18.7 -21.4,-5.8 z"
   id="path536" />
					<path
   class="st30"
   d="m 509.6,911.8 c 15.7,2.8 34.6,6.8 57,12.8 l -6.9,25.4 -66.6,-18.1 z"
   id="path538" />
					<path
   class="st30"
   d="m 630,943.6 4.4,26.8 -65.7,-17.9 6.9,-25.4 c 20.1,5.5 38.3,11.1 54.4,16.5 z"
   id="path540" />
					<path
   class="st30"
   d="m 665.9,978.3 -21.4,-5.8 -4.8,-25.7 c 7.5,2.6 14.4,5 20.8,7.4 z"
   id="path542" />
				</g>
				<g
   id="g562">
					<g
   id="g556">
						<path
   class="st6"
   d="m 468.1,1002.6 c -5.5,20.1 -26.2,32 -46.4,26.5 -20.1,-5.5 -32,-26.2 -26.5,-46.4 1,-3.7 2.5,-7.1 4.5,-10.2 8.6,-13.7 25.5,-20.8 41.9,-16.3 16.8,4.6 27.8,19.8 27.9,36.4 -0.1,3.3 -0.5,6.7 -1.4,10 z"
   id="path546" />
						<g
   id="g554">
							<path
   class="st30"
   d="m 468.1,1002.6 c -5.5,20.1 -26.2,32 -46.4,26.5 -20.1,-5.5 -32,-26.2 -26.5,-46.4 1,-3.7 2.5,-7.1 4.5,-10.2 4.4,6.4 14.1,16.3 33.2,21.3 16.6,4.3 29,1.8 36.6,-1.2 -0.1,3.3 -0.5,6.7 -1.4,10 z"
   id="path548" />
							<path
   class="st31"
   d="m 454.3,998.8 c -3.4,12.6 -16.4,20 -29,16.6 -12.6,-3.4 -20,-16.4 -16.6,-29 0.3,-1.2 0.7,-2.3 1.2,-3.4 4.6,-10.5 16.4,-16.4 27.8,-13.2 11.6,3.2 18.9,14.5 17.2,26.1 -0.2,1 -0.4,2 -0.6,2.9 z"
   id="path550" />
							<path
   class="st6"
   d="m 454.3,998.8 c -3.4,12.6 -16.4,20 -29,16.6 -12.6,-3.4 -20,-16.4 -16.6,-29 0.3,-1.2 0.7,-2.3 1.2,-3.4 5.4,4.2 12.9,8.2 23,10.8 8.5,2.2 15.8,2.6 22,2.1 -0.2,1 -0.4,2 -0.6,2.9 z"
   id="path552" />
						</g>
					</g>
					<path
   class="st16"
   d="m 441.2,995.3 c 0,0.1 0,0.2 -0.1,0.2 -1.6,5.3 -7.1,8.4 -12.4,6.9 -5.4,-1.5 -8.6,-7 -7.1,-12.4 v 0 c 0.1,-0.5 0.3,-1 0.5,-1.4 2,-4.5 7,-7 12,-5.7 5,1.4 8.1,6.2 7.4,11.2 -0.1,0.4 -0.1,0.8 -0.3,1.2 z"
   id="path558" />
					<path
   class="st20"
   d="m 441.2,995.5 c -1.6,5.3 -7.1,8.4 -12.4,6.9 -5.4,-1.5 -8.6,-7 -7.1,-12.4 3.3,1.5 7,2.8 11.2,3.9 2.8,0.7 5.6,1.2 8.3,1.6 z"
   id="path560" />
				</g>
				<g
   id="g580">
					<g
   id="g574">
						<path
   class="st6"
   d="m 687.4,1062.3 c -5.5,20.1 -26.2,32 -46.4,26.5 -20.1,-5.5 -32,-26.2 -26.5,-46.4 1,-3.7 2.5,-7.1 4.5,-10.2 8.6,-13.7 25.5,-20.8 41.9,-16.3 16.8,4.6 27.8,19.8 27.9,36.4 -0.1,3.3 -0.5,6.7 -1.4,10 z"
   id="path564" />
						<g
   id="g572">
							<path
   class="st30"
   d="m 687.4,1062.3 c -5.5,20.1 -26.2,32 -46.4,26.5 -20.1,-5.5 -32,-26.2 -26.5,-46.4 1,-3.7 2.5,-7.1 4.5,-10.2 4.4,6.4 14.1,16.3 33.2,21.3 16.6,4.3 29,1.8 36.6,-1.2 -0.1,3.3 -0.5,6.7 -1.4,10 z"
   id="path566" />
							<path
   class="st31"
   d="m 673.6,1058.5 c -3.4,12.6 -16.4,20 -29,16.6 -12.6,-3.4 -20,-16.4 -16.6,-29 0.3,-1.2 0.7,-2.3 1.2,-3.4 4.6,-10.5 16.4,-16.4 27.8,-13.2 11.6,3.2 18.9,14.5 17.2,26.1 -0.2,1 -0.4,2 -0.6,2.9 z"
   id="path568" />
							<path
   class="st6"
   d="m 673.6,1058.5 c -3.4,12.6 -16.4,20 -29,16.6 -12.6,-3.4 -20,-16.4 -16.6,-29 0.3,-1.2 0.7,-2.3 1.2,-3.4 5.4,4.2 12.9,8.2 23,10.8 8.5,2.2 15.8,2.6 22,2.1 -0.2,1 -0.4,2 -0.6,2.9 z"
   id="path570" />
						</g>
					</g>
					<path
   class="st16"
   d="m 660.5,1055 c 0,0.1 0,0.2 -0.1,0.2 -1.6,5.3 -7.1,8.4 -12.4,6.9 -5.4,-1.5 -8.6,-7 -7.1,-12.4 v 0 c 0.1,-0.5 0.3,-1 0.5,-1.4 2,-4.5 7,-7 12,-5.7 5,1.4 8.1,6.2 7.4,11.2 -0.1,0.4 -0.1,0.8 -0.3,1.2 z"
   id="path576" />
					<path
   class="st20"
   d="m 660.5,1055.2 c -1.6,5.3 -7.1,8.4 -12.4,6.9 -5.4,-1.5 -8.6,-7 -7.1,-12.4 3.3,1.5 7,2.8 11.2,3.9 2.8,0.7 5.6,1.2 8.3,1.6 z"
   id="path578" />
				</g>
			</g>
			<g
   id="g666">
				<g
   id="g588">
					<path
   class="st1"
   d="m 1090,1103.4 c -17.9,19.9 -55,13.6 -56.3,-21.9 -0.1,-3.1 0.5,-6.5 1.6,-10.2 12.1,-38.4 87.2,-103.6 87.2,-103.6 l 31.2,17.9 3.6,2 c -0.1,-0.1 -49.4,95.9 -67.3,115.8 z"
   id="path584" />
					<path
   class="st24"
   d="m 1090,1103.4 c -17.9,19.9 -55,13.6 -56.3,-21.9 -0.1,-3.1 0.5,-6.5 1.6,-10.2 2.9,6.6 9.6,13.8 24.1,16.7 21.5,4.3 69,-63.7 94.2,-102.4 l 3.6,2 c 0,-0.1 -49.3,95.9 -67.2,115.8 z"
   id="path586" />
				</g>
				<g
   id="g594">
					<path
   class="st1"
   d="m 1200.2,1170.9 c -9.3,5.6 -18.1,7 -25.7,5.4 -17.3,-3.6 -28.3,-22.3 -23.6,-40.3 6.7,-25.9 59.5,-120 59.5,-120 l 4.3,2.1 31.5,15.8 c -0.1,0.1 -15.7,118.5 -46,137 z"
   id="path590" />
					<path
   class="st24"
   d="m 1174.4,1176.3 c -17.3,-3.6 -28.3,-22.3 -23.6,-40.3 6.7,-25.9 59.5,-120 59.5,-120 l 4.3,2.1 c -17.1,44.4 -48.9,133.6 -40.2,158.2 z"
   id="path592" />
				</g>
				<g
   id="g600">
					<path
   class="st1"
   d="m 1205.6,892.7 c -0.4,0.1 -0.8,0.2 -1.3,0.3 -16.9,3.7 -84.2,15.3 -103.7,14.1 -20,-1.2 -38.3,-12.1 -37.4,-27.4 0.5,-7.9 3.6,-15.2 9.6,-20.5 5.6,-5 13.6,-8.2 24.2,-8.8 22.1,-1.2 82.8,7.6 110.3,10.6 20.5,2.3 12.8,28.4 -1.7,31.7 z"
   id="path596" />
					<path
   class="st24"
   d="m 1204.3,893 c -16.9,3.7 -84.2,15.3 -103.7,14.1 -20,-1.2 -38.3,-12.1 -37.4,-27.4 0.5,-7.9 3.6,-15.2 9.6,-20.5 0.2,10.3 3.9,21.6 16.6,27.5 18,8.3 76.8,7.7 114.9,6.3 z"
   id="path598" />
				</g>
				<g
   id="g606">
					<path
   class="st1"
   d="m 1263.6,919.4 c 0.1,0.4 0.3,0.8 0.5,1.3 6.3,16.2 33.7,78.7 45.5,94.3 12,16 31.3,25.2 43.4,16.1 6.3,-4.7 10.7,-11.4 11.8,-19.3 1.1,-7.4 -0.6,-15.9 -6,-25 -11.2,-19 -52,-64.8 -69.7,-86.1 -13.2,-16 -30.7,4.8 -25.5,18.7 z"
   id="path602" />
					<path
   class="st24"
   d="m 1264.1,920.6 c 6.3,16.2 33.7,78.7 45.5,94.3 12,16 31.3,25.2 43.4,16.1 6.3,-4.7 10.7,-11.4 11.8,-19.3 -8.8,5.5 -20.1,8.6 -32.1,1.3 -16.7,-10.4 -48.7,-59.8 -68.6,-92.4 z"
   id="path604" />
				</g>
				<g
   id="g618">
					<path
   class="st1"
   d="m 1166.5,1047.5 c -19.6,-9.3 -32,-20.5 -39.4,-32.5 -16.6,-26.9 -7.3,-57.6 5.5,-78.3 23.3,-37.3 78,-81.1 78,-81.1 0,0 4.9,1.5 13,4.7 14.2,5.7 38,16.8 61.3,34.5 1.8,1.4 3.7,2.8 5.5,4.3 -1.4,24.5 -4.8,51.4 -10.3,76 -3.1,13.8 -6.9,26.9 -11.3,38.3 -9.5,24.6 -38.7,64.3 -102.3,34.1 z"
   id="path608" />
					<path
   class="st24"
   d="m 1268.1,941.4 c -15.4,-1.3 -19.6,-23.2 -19.6,-23.2 0,0 -3.3,1.4 -8.1,1.5 -4.7,0.1 -5.1,-6.3 -5.1,-6.3 0,0 -3.8,3.2 -8.4,0.3 -4.7,-3 -2.8,-6.6 -2.8,-6.6 0,0 -23.8,9.9 -32.3,-3.8 -8.4,-13.7 21.2,-37.8 21.2,-37.8 2.3,-2.7 5.6,-4.4 9.6,-5.1 15.3,5.9 41,17.4 66.3,36.1 0,0.4 -0.1,0.7 -0.1,1.1 -3.5,18.7 -5.3,45 -20.7,43.8 z"
   id="path610" />
					<path
   class="st27"
   d="m 1250.1,1002.4 c -14.7,27.2 -45.6,46 -78,30.9 -26.6,-12.3 -34.3,-39 -29.5,-64.1 7.2,-37.3 42.2,-71.3 84.8,-50 35.8,17.8 37.9,55 22.7,83.2 z"
   id="path612" />
					<path
   class="st24"
   d="m 1166.5,1047.5 c -19.6,-9.3 -32,-20.5 -39.4,-32.5 9.2,8.7 43.1,37.3 83.6,30.7 33.6,-5.5 53.4,-27.4 69.4,-70.6 -3.1,13.8 -6.9,26.9 -11.3,38.3 -9.5,24.6 -38.7,64.3 -102.3,34.1 z"
   id="path614" />
					<path
   class="st32"
   d="m 1250.1,1002.4 c -14.7,27.2 -45.6,46 -78,30.9 -26.6,-12.3 -34.3,-39 -29.5,-64.1 2.1,17.4 10.1,40.6 36.8,50.8 29.7,11.2 55.2,-4.2 70.7,-17.6 z"
   id="path616" />
				</g>
				<g
   id="g646">
					<g
   id="g644">
						<path
   class="st1"
   d="m 1271.3,764.6 c 6.6,-19.3 -2.8,-58.2 -40.6,-49.7 -43.9,9.8 -30.1,54.8 -10.6,65.8 19,10.8 44.6,3.3 51.2,-16.1 z"
   id="path620" />
						<path
   class="st33"
   d="m 1258.4,760.1 c 3.9,-11.5 -1.7,-34.7 -24.2,-29.7 -26.2,5.9 -18,32.7 -6.3,39.3 11.3,6.5 26.6,1.9 30.5,-9.6 z"
   id="path622" />
						<path
   class="st1"
   d="m 1383.3,779.3 c 16.5,12 31.2,49.2 -4.6,64 -41.5,17.2 -56.2,-27.4 -46.6,-47.7 9.4,-19.7 34.7,-28.3 51.2,-16.3 z"
   id="path624" />
						<path
   class="st33"
   d="m 1375.5,790.3 c 9.9,7.2 18.7,29.6 -2.8,38.5 -25,10.3 -33.7,-16.5 -28,-28.7 5.7,-11.9 20.9,-17 30.8,-9.8 z"
   id="path626" />
						<path
   class="st1"
   d="m 1323,760 c -32,-16.9 -50.4,-20 -83.5,-9.5 -33.1,10.5 -52,41.1 -54.2,69.8 -2.1,28.7 25.1,55.9 61.8,71.9 36.7,16 79.9,32.4 109.8,-11.1 29.9,-43.5 7.9,-99 -33.9,-121.1 z"
   id="path628" />
						<path
   class="st33"
   d="m 1311.3,870.3 c 3.8,-18.4 -15.5,-34.8 -26.2,-40.9 -10.7,-6 -29.7,-15 -46.6,-8.9 -6.9,2.5 -19.1,12.3 -11.5,30.3 6.8,16 29.5,28.1 43.1,32 20.3,5.9 38,2.8 41.2,-12.5 z"
   id="path630" />
						<path
   class="st34"
   d="m 1237.5,788.5 c 0.7,0.2 37.3,30 37.3,30 0,0 0.4,-20.6 -10.5,-28.7 -11,-8.2 -26.8,-1.3 -26.8,-1.3 z"
   id="path632" />
						<path
   class="st34"
   d="m 1337.3,840.3 c -0.5,-0.5 -46,-13.2 -46,-13.2 0,0 16.6,-12.2 29.6,-7.9 12.9,4.2 16.4,21.1 16.4,21.1 z"
   id="path634" />
						<path
   class="st9"
   d="m 1348.5,865.9 c -2.1,4.1 -10.3,4.1 -18.3,-0.1 -8,-4.1 -12.7,-10.8 -10.6,-14.9 2.1,-4.1 10.3,-4.1 18.3,0.1 8,4.2 12.7,10.8 10.6,14.9 z"
   id="path636" />
						<path
   class="st9"
   d="m 1234.4,811.9 c -2.1,4.1 -10.3,4.1 -18.3,-0.1 -8,-4.1 -12.7,-10.8 -10.6,-14.9 2.1,-4.1 10.3,-4.1 18.3,0.1 8,4.1 12.7,10.8 10.6,14.9 z"
   id="path638" />
						<path
   class="st1"
   d="m 1276.2,862.8 c -9,-9.5 -3.5,-21.3 -3.5,-21.3 l 1,-2.9 -1.6,2.3 c 0,0 -6.4,11.3 -19.4,9.4 -8.1,-1.2 -15,-9.9 -15,-9.9 0,0 1.2,12.7 14.9,15 7.4,1.3 11.6,-1.6 15.4,-6 -1.5,7.5 -0.8,12.7 4.8,16.9 11.2,8.4 19.9,3 19.9,3 0,0 -10.9,-0.5 -16.5,-6.5 z"
   id="path640" />
						<path
   class="st6"
   d="m 1265,827.2 c -2.2,0.7 -6.1,9.7 3.9,16.6 9.7,6.7 19.3,0.7 19.9,-3.1 0.6,-3.8 -17.2,-15.7 -23.8,-13.5 z"
   id="path642" />
					</g>
				</g>
				<g
   id="g664">
					<path
   class="st17"
   d="m 1235.1,896.2 c -0.8,0.8 -2,1.3 -3.7,1.9 -3.5,1.2 -15.9,2.6 -22.9,1.6 -7.1,-1 -10.8,-3 -10.4,-10.4 0.2,-3.2 2.4,-9.6 5.8,-15.4 4.5,-7.6 10.9,-14.2 17.1,-11.1 8.9,4.5 14.1,18.9 15.5,24.9 0.4,1.8 0.5,3.7 0.1,5.5 -0.2,1.3 -0.7,2.3 -1.5,3 z"
   id="path648" />
					<path
   class="st22"
   d="m 1235.1,896.2 c -0.8,0.8 -2,1.3 -3.7,1.9 -3.5,1.2 -15.9,2.6 -22.9,1.6 -7.1,-1 -10.8,-3 -10.4,-10.4 0.2,-3.2 2.4,-9.6 5.8,-15.4 -1.4,5.7 -3.2,16.5 1.8,19.9 4.7,3.2 19.8,2.9 29.4,2.4 z"
   id="path650" />
					<path
   class="st22"
   d="m 1235,894 c 1.3,-1.9 -4,-16 -7.7,-17.5 -3.7,-1.5 1.7,10.1 1.7,10.1 0,0 -8.8,-6.7 -9.9,-5 -1.1,1.7 8.8,8.9 8.8,8.9 0,0 -12.1,0.8 -11.4,2.5 0.7,1.8 17.2,2.9 18.5,1 z"
   id="path652" />
					<path
   class="st17"
   d="m 1281.5,921.3 c 0,0.1 0,0.1 0,0 -1.7,2.9 -3.4,5.1 -4.8,6.3 -5.6,4.9 -9.5,3.2 -14.6,-1.7 -5.1,-5 -11.7,-15.6 -12.9,-19.1 -0.3,-0.9 -0.5,-1.6 -0.6,-2.3 -0.5,-2.8 0.5,-4.4 3.6,-7.2 0,0 19.7,-8.3 30.8,-3.1 8.5,4.1 3.8,18.3 -1.5,27.1 z"
   id="path654" />
					<path
   class="st22"
   d="m 1281.5,921.4 c -1.7,2.8 -3.4,5.1 -4.8,6.3 -5.6,4.9 -9.5,3.2 -14.6,-1.7 -5.1,-5 -11.7,-15.6 -12.9,-19.1 -0.3,-0.9 -0.5,-1.6 -0.6,-2.3 5.4,8.4 13.7,19.9 20,21.9 4.9,1.5 9.5,-1.6 12.9,-5.1 z"
   id="path656" />
					<path
   class="st22"
   d="m 1249.3,901.5 c 0.8,-2.1 15.4,-6 18.7,-3.8 3.3,2.2 -9.2,4.4 -9.2,4.4 0,0 10.6,3.3 9.8,5.2 -0.8,1.9 -12.3,-2.1 -12.3,-2.1 0,0 6.3,10.3 4.5,10.8 -1.9,0.4 -12.3,-12.4 -11.5,-14.5 z"
   id="path658" />
					<path
   class="st17"
   d="m 1245.4,890.5 c -0.5,0.5 0.4,-5.6 -4.2,-6.5 -6.1,-1.3 -12.7,14.4 -10.9,18.6 1.8,4.2 8.7,1.8 8.7,1.8 0,0 1.1,5.2 6,5 4.9,-0.1 10.5,-14.4 8.9,-18 -1.6,-3.5 -5.4,-4 -8.5,-0.9 z"
   id="path660" />
					<path
   class="st22"
   d="m 1242.5,893.8 c -0.1,-0.5 0.5,-4.9 -1,-4.4 -1.5,0.5 -5.2,8.9 -4.4,9.5 0.8,0.6 4.1,-1.8 4.1,-1.8 0,0 -0.1,8 2.2,5.9 2.4,-2.1 6.7,-10.2 5,-10.8 -1.7,-0.5 -5.9,1.6 -5.9,1.6 z"
   id="path662" />
				</g>
			</g>
		</g>
	</g>
</g>
</svg>
