<?xml version="1.0" encoding="utf-8"?>
<!-- Generator: Adobe Illustrator 27.4.0, SVG Export Plug-In . SVG Version: 6.00 Build 0)  -->
<svg version="1.1"
	 id="svg504" xmlns:sodipodi="http://sodipodi.sourceforge.net/DTD/sodipodi-0.dtd" xmlns:rdf="http://www.w3.org/1999/02/22-rdf-syntax-ns#" xmlns:inkscape="http://www.inkscape.org/namespaces/inkscape" xmlns:cc="http://creativecommons.org/ns#" xmlns:dc="http://purl.org/dc/elements/1.1/" xmlns:svg="http://www.w3.org/2000/svg" inkscape:version="0.92.4 (5da689c313, 2019-01-14)" sodipodi:docname="colors_notext.svg"
	 xmlns="http://www.w3.org/2000/svg" xmlns:xlink="http://www.w3.org/1999/xlink" x="0px" y="0px" viewBox="0 0 857 601"
	 style="enable-background:new 0 0 857 601;" xml:space="preserve">
<style type="text/css">
	.st0{fill:#444444;}
	.st1{fill:#F8E8CE;}
	.st2{fill:#FFFFFF;}
	.st3{fill:#AAAAAA;}
	.st4{fill:#C4EF29;}
	.st5{fill:#E5E5E5;}
	.st6{fill:#FFF800;}
	.st7{fill:#FF1A30;}
	.st8{fill:#9D4ABC;}
	.st9{fill:#002AF7;}
	.st10{fill:#FF7300;}
	.st11{fill:#009318;}
	.st12{fill:#C1C1C1;}
	.st13{fill:#A35E1A;}
	.st14{fill:#FF64D7;}
	.st15{fill:#BC1940;}
	.st16{fill:#26E8F7;}
	.st17{fill:#3F3F3F;}
</style>
<sodipodi:namedview  bordercolor="#666666" borderopacity="1" gridtolerance="10" guidetolerance="10" id="namedview506" inkscape:current-layer="svg504" inkscape:cx="321.55993" inkscape:cy="235.03889" inkscape:pageopacity="0" inkscape:pageshadow="2" inkscape:window-height="705" inkscape:window-maximized="1" inkscape:window-width="1366" inkscape:window-x="-8" inkscape:window-y="-8" inkscape:zoom="0.55533178" objecttolerance="10" pagecolor="#ffffff" showgrid="false">
	</sodipodi:namedview>
<g id="g184" transform="matrix(0.80828857,0,0,0.80828857,0.4,61.4)">
	<g id="g182">
		<g id="use180">
			<g id="Symbol_4_copy_4_0_Layer0_0_FILL">
				<path id="path2" class="st0" d="M151.2-75.8c-0.1-0.1-0.2-0.1-0.4-0.1H0c-0.1,0-0.3,0.1-0.3,0.1c-0.1,0.1-0.1,0.2-0.1,0.4V75.4
					c0,0.1,0.1,0.3,0.1,0.4c0.1,0.1,0.2,0.1,0.3,0.1h150.9c0.1,0,0.3-0.1,0.4-0.1c0.1-0.1,0.1-0.2,0.1-0.4V-75.4
					C151.4-75.6,151.3-75.7,151.2-75.8 M0.5-74.9h149.9V74.9H0.5V-74.9z"/>
				<path id="path4" class="st1" d="M150.4-74.9H0.5V74.9h149.9V-74.9 M149.6-74.4v0.2l0.2-0.2V74.2H1.5H1.2V-74.4H149.6z"/>
				<path id="path6" class="st2" d="M143.2-67.6l6.4-6.5v-0.2H1.2V74.2h0.2L8,67.7V-67.6H143.2z"/>
				<path id="path8" class="st3" d="M143.2-67.6L143.2-67.6l-0.1,135.1H8.3L8,67.7l-6.5,6.4h148.3V-74.4l-0.2,0.2L143.2-67.6z"/>
				<path id="path10" class="st4" d="M143.1-67.5L143.1-67.5L8-67.6V67.7l0.3-0.3H143V-67.5H143.1z"/>
			</g>
		</g>
	</g>
</g>
<g id="g190" transform="matrix(0.80828857,0,0,0.80828857,122.85,61.4)">
	<g id="g188">
		<g id="use186">
			<g id="Symbol_4_0_Layer0_0_FILL">
				<path id="path13" class="st0" d="M151.2-75.8c-0.1-0.1-0.2-0.1-0.4-0.1H0c-0.1,0-0.3,0.1-0.3,0.1c-0.1,0.1-0.1,0.2-0.1,0.4V75.4
					c0,0.1,0.1,0.3,0.1,0.4c0.1,0.1,0.2,0.1,0.3,0.1h150.9c0.1,0,0.3-0.1,0.4-0.1c0.1-0.1,0.1-0.2,0.1-0.4V-75.4
					C151.4-75.6,151.3-75.7,151.2-75.8 M0.5-74.9h149.9V74.9H0.5V-74.9z"/>
				<path id="path15" class="st1" d="M150.4-74.9H0.5V74.9h149.9V-74.9 M149.6-74.4v0.2l0.2-0.2V74.2H1.5H1.2V-74.4H149.6z"/>
				<path id="path17" class="st2" d="M143.2-67.6l6.4-6.5v-0.2H1.2V74.2h0.2L8,67.7V-67.6H143.2z"/>
				<path id="path19" class="st3" d="M143.2-67.6L143.2-67.6l-0.1,135.1H8.3L8,67.7l-6.5,6.4h148.3V-74.4l-0.2,0.2L143.2-67.6z"/>
				<path id="path21" class="st5" d="M143.1-67.5L143.1-67.5L8-67.6V67.7l0.4-0.3h134.7L143.1-67.5L143.1-67.5z"/>
			</g>
		</g>
	</g>
</g>
<g id="g196" transform="matrix(0.80828857,0,0,0.80828857,245.3,61.4)">
	<g id="g194">
		<g id="use192">
			<g id="Symbol_4_copy_12_0_Layer0_0_FILL">
				<path id="path24" class="st0" d="M151.2-75.8c-0.1-0.1-0.2-0.1-0.4-0.1H0c-0.1,0-0.3,0.1-0.3,0.1c-0.1,0.1-0.1,0.2-0.1,0.4V75.4
					c0,0.1,0.1,0.3,0.1,0.4c0.1,0.1,0.2,0.1,0.3,0.1h150.9c0.1,0,0.3-0.1,0.4-0.1c0.1-0.1,0.1-0.2,0.1-0.4V-75.4
					C151.4-75.6,151.3-75.7,151.2-75.8 M0.5-74.9h149.9V74.9H0.5V-74.9z"/>
				<path id="path26" class="st1" d="M150.4-74.9H0.5V74.9h149.9V-74.9 M149.6-74.4v0.2l0.2-0.2V74.2H1.5H1.2V-74.4H149.6z"/>
				<path id="path28" class="st2" d="M143.2-67.6l6.4-6.5v-0.2H1.2V74.2h0.2L8,67.7V-67.6H143.2z"/>
				<path id="path30" class="st3" d="M143.2-67.6L143.2-67.6l-0.1,135.1H8.3L8,67.7l-6.5,6.4h148.3V-74.4l-0.2,0.2L143.2-67.6z"/>
				<path id="path32" class="st6" d="M143.1-67.5L143.1-67.5L8-67.6V67.7l0.3-0.3H143V-67.5H143.1z"/>
			</g>
		</g>
	</g>
</g>
<g id="g202" transform="matrix(0.80828857,0,0,0.80828857,367.75,61.4)">
	<g id="g200">
		<g id="use198">
			<g id="Symbol_4_0_Layer0_0_FILL_00000023985423339962824070000016960878260546083458_">
				<path id="path13_00000066475751140718351140000002757253245767147439_" class="st0" d="M151.2-75.8c-0.1-0.1-0.2-0.1-0.4-0.1H0
					c-0.1,0-0.3,0.1-0.3,0.1c-0.1,0.1-0.1,0.2-0.1,0.4V75.4c0,0.1,0.1,0.3,0.1,0.4c0.1,0.1,0.2,0.1,0.3,0.1h150.9
					c0.1,0,0.3-0.1,0.4-0.1c0.1-0.1,0.1-0.2,0.1-0.4V-75.4C151.4-75.6,151.3-75.7,151.2-75.8 M0.5-74.9h149.9V74.9H0.5V-74.9z"/>
				<path id="path15_00000111884003530838486090000011628768070478721966_" class="st1" d="M150.4-74.9H0.5V74.9h149.9V-74.9
					 M149.6-74.4v0.2l0.2-0.2V74.2H1.5H1.2V-74.4H149.6z"/>
				<path id="path17_00000033344759383448769230000009325985137981112456_" class="st2" d="M143.2-67.6l6.4-6.5v-0.2H1.2V74.2h0.2
					L8,67.7V-67.6H143.2z"/>
				<path id="path19_00000036959843429961924310000016851380611642028455_" class="st3" d="M143.2-67.6L143.2-67.6l-0.1,135.1H8.3
					L8,67.7l-6.5,6.4h148.3V-74.4l-0.2,0.2L143.2-67.6z"/>
				<path id="path21_00000096757948684855325940000014940953499356878999_" class="st5" d="M143.1-67.5L143.1-67.5L8-67.6V67.7
					l0.3-0.3H143V-67.5H143.1z"/>
			</g>
		</g>
	</g>
</g>
<g id="g208" transform="matrix(0.80828857,0,0,0.80828857,490.2,61.4)">
	<g id="g206">
		<g id="use204">
			<g id="Symbol_4_0_Layer0_0_FILL_00000103970770299503391610000012395468197948150708_">
				<path id="path13_00000036959554784581584210000001162692629597034911_" class="st0" d="M151.2-75.8c-0.1-0.1-0.2-0.1-0.4-0.1H0
					c-0.1,0-0.3,0.1-0.3,0.1c-0.1,0.1-0.1,0.2-0.1,0.4V75.4c0,0.1,0.1,0.3,0.1,0.4c0.1,0.1,0.2,0.1,0.3,0.1h150.9
					c0.1,0,0.3-0.1,0.4-0.1c0.1-0.1,0.1-0.2,0.1-0.4V-75.4C151.4-75.6,151.3-75.7,151.2-75.8 M0.5-74.9h149.9V74.9H0.5V-74.9z"/>
				<path id="path15_00000023999165042390411630000011598790013811244672_" class="st1" d="M150.4-74.9H0.5V74.9h149.9V-74.9
					 M149.6-74.4v0.2l0.2-0.2V74.2H1.5H1.2V-74.4H149.6z"/>
				<path id="path17_00000073722821717747135810000002442673045680083388_" class="st2" d="M143.2-67.6l6.4-6.5v-0.2H1.2V74.2h0.2
					L8,67.7V-67.6H143.2z"/>
				<path id="path19_00000144299741187194877220000011336311820609020555_" class="st3" d="M143.2-67.6L143.2-67.6l-0.1,135.1H8.3
					L8,67.7l-6.5,6.4h148.3V-74.4l-0.2,0.2L143.2-67.6z"/>
				<path id="path21_00000041284369604028125420000003263118888200455834_" class="st5" d="M143.1-67.5L143.1-67.5L8-67.6V67.7
					l0.4-0.3h134.7L143.1-67.5L143.1-67.5z"/>
			</g>
		</g>
	</g>
</g>
<g id="g214" transform="matrix(0.80828857,0,0,0.80828857,612.65,61.4)">
	<g id="g212">
		<g id="use210">
			<g id="Symbol_4_copy_5_0_Layer0_0_FILL">
				<path id="path35" class="st0" d="M151.2-75.8c-0.1-0.1-0.2-0.1-0.4-0.1H0c-0.1,0-0.3,0.1-0.3,0.1c-0.1,0.1-0.1,0.2-0.1,0.4V75.4
					c0,0.1,0.1,0.3,0.1,0.4c0.1,0.1,0.2,0.1,0.3,0.1h150.9c0.1,0,0.3-0.1,0.4-0.1c0.1-0.1,0.1-0.2,0.1-0.4V-75.4
					C151.4-75.6,151.3-75.7,151.2-75.8 M0.5-74.9h149.9V74.9H0.5V-74.9z"/>
				<path id="path37" class="st1" d="M150.4-74.9H0.5V74.9h149.9V-74.9 M149.6-74.4v0.2l0.2-0.2V74.2H1.5H1.2V-74.4H149.6z"/>
				<path id="path39" class="st2" d="M143.2-67.6l6.4-6.5v-0.2H1.2V74.2h0.2L8,67.7V-67.6H143.2z"/>
				<path id="path41" class="st3" d="M143.2-67.6L143.2-67.6l-0.1,135.1H8.3L8,67.7l-6.5,6.4h148.3V-74.4l-0.2,0.2L143.2-67.6z"/>
				<path id="path43" class="st7" d="M143.1-67.5L143.1-67.5L8-67.6V67.7l0.4-0.3h134.7L143.1-67.5L143.1-67.5z"/>
			</g>
		</g>
	</g>
</g>
<g id="g220" transform="matrix(0.80828857,0,0,0.80828857,735.2,61.4)">
	<g id="g218">
		<g id="use216">
			<g id="Symbol_4_0_Layer0_0_FILL_00000097465114906193105230000007980441332277947301_">
				<path id="path13_00000112600084518246351000000003855901861241564846_" class="st0" d="M151.2-75.8c-0.1-0.1-0.2-0.1-0.4-0.1H0
					c-0.1,0-0.3,0.1-0.3,0.1c-0.1,0.1-0.1,0.2-0.1,0.4V75.4c0,0.1,0.1,0.3,0.1,0.4c0.1,0.1,0.2,0.1,0.3,0.1h150.9
					c0.1,0,0.3-0.1,0.4-0.1c0.1-0.1,0.1-0.2,0.1-0.4V-75.4C151.4-75.6,151.3-75.7,151.2-75.8 M0.5-74.9h149.9V74.9H0.5V-74.9z"/>
				<path id="path15_00000010298514573729616390000006835323682184620959_" class="st1" d="M150.4-74.9H0.5V74.9h149.9V-74.9
					 M149.6-74.4v0.2l0.2-0.2V74.2H1.5H1.2V-74.4H149.6z"/>
				<path id="path17_00000040564715728692281850000013689682397306564240_" class="st2" d="M143.2-67.6l6.4-6.5v-0.2H1.2V74.2h0.2
					L8,67.7V-67.6H143.2z"/>
				<path id="path19_00000069368566574577519740000015517596098355122080_" class="st3" d="M143.2-67.6L143.2-67.6l-0.1,135.1H8.3
					L8,67.7l-6.5,6.4h148.3V-74.4l-0.2,0.2L143.2-67.6z"/>
				<path id="path21_00000172410411641457213570000005248226214628110486_" class="st5" d="M143.1-67.5L143.1-67.5L8-67.6V67.7
					l0.4-0.3h134.7L143.1-67.5L143.1-67.5z"/>
			</g>
		</g>
	</g>
</g>
<g id="g226" transform="matrix(0.80828857,0,0,0.80828857,0.4,181.05)">
	<g id="g224">
		<g id="use222">
			<g id="Symbol_4_0_Layer0_0_FILL_00000131362508041433524110000004079536574202339250_">
				<path id="path13_00000060017992486630436930000015295786080815562386_" class="st0" d="M151.2-75.8c-0.1-0.1-0.2-0.1-0.4-0.1H0
					c-0.1,0-0.3,0.1-0.3,0.1c-0.1,0.1-0.1,0.2-0.1,0.4V75.4c0,0.1,0.1,0.3,0.1,0.4c0.1,0.1,0.2,0.1,0.3,0.1h150.9
					c0.1,0,0.3-0.1,0.4-0.1c0.1-0.1,0.1-0.2,0.1-0.4V-75.4C151.4-75.6,151.3-75.7,151.2-75.8 M0.5-74.9h149.9V74.9H0.5V-74.9z"/>
				<path id="path15_00000060724520657796487670000004848660067643217854_" class="st1" d="M150.4-74.9H0.5V74.9h149.9V-74.9
					 M149.6-74.4v0.2l0.2-0.2V74.2H1.5H1.2V-74.4H149.6z"/>
				<path id="path17_00000133490272924521528490000009618955350511044009_" class="st2" d="M143.2-67.6l6.4-6.5v-0.2H1.2V74.2h0.2
					L8,67.7V-67.6H143.2z"/>
				<path id="path19_00000149370030678593799820000001960901763668441744_" class="st3" d="M143.2-67.6L143.2-67.6l-0.1,135.1H8.3
					L8,67.7l-6.5,6.4h148.3V-74.4l-0.2,0.2L143.2-67.6z"/>
				<path id="path21_00000014603529036638390290000012214796685920851584_" class="st5" d="M143.1-67.5L143.1-67.5L8-67.6V67.7
					l0.3-0.3H143V-67.5H143.1z"/>
			</g>
		</g>
	</g>
</g>
<g id="g232" transform="matrix(0.80828857,0,0,0.80828857,122.85,181.05)">
	<g id="g230">
		<g id="use228">
			<g id="Symbol_4_copy_8_0_Layer0_0_FILL">
				<path id="path46" class="st0" d="M151.2-75.8c-0.1-0.1-0.2-0.1-0.4-0.1H0c-0.1,0-0.3,0.1-0.3,0.1c-0.1,0.1-0.1,0.2-0.1,0.4V75.4
					c0,0.1,0.1,0.3,0.1,0.4c0.1,0.1,0.2,0.1,0.3,0.1h150.9c0.1,0,0.3-0.1,0.4-0.1c0.1-0.1,0.1-0.2,0.1-0.4V-75.4
					C151.4-75.6,151.3-75.7,151.2-75.8 M0.5-74.9h149.9V74.9H0.5V-74.9z"/>
				<path id="path48" class="st1" d="M150.4-74.9H0.5V74.9h149.9V-74.9 M149.6-74.4v0.2l0.2-0.2V74.2H1.5H1.2V-74.4H149.6z"/>
				<path id="path50" class="st2" d="M143.2-67.6l6.4-6.5v-0.2H1.2V74.2h0.2L8,67.7V-67.6H143.2z"/>
				<path id="path52" class="st3" d="M143.2-67.6L143.2-67.6l-0.1,135.1H8.3L8,67.7l-6.5,6.4h148.3V-74.4l-0.2,0.2L143.2-67.6z"/>
				<path id="path54" class="st8" d="M143.1-67.5L143.1-67.5L8-67.6V67.7l0.4-0.3h134.7L143.1-67.5L143.1-67.5z"/>
			</g>
		</g>
	</g>
</g>
<g id="g238" transform="matrix(0.80828857,0,0,0.80828857,245.3,181.05)">
	<g id="g236">
		<g id="use234">
			<g id="Symbol_4_0_Layer0_0_FILL_00000082358676936908971120000018222054325171570307_">
				<path id="path13_00000127028626412814560450000013832580486590981301_" class="st0" d="M151.2-75.8c-0.1-0.1-0.2-0.1-0.4-0.1H0
					c-0.1,0-0.3,0.1-0.3,0.1c-0.1,0.1-0.1,0.2-0.1,0.4V75.4c0,0.1,0.1,0.3,0.1,0.4c0.1,0.1,0.2,0.1,0.3,0.1h150.9
					c0.1,0,0.3-0.1,0.4-0.1c0.1-0.1,0.1-0.2,0.1-0.4V-75.4C151.4-75.6,151.3-75.7,151.2-75.8 M0.5-74.9h149.9V74.9H0.5V-74.9z"/>
				<path id="path15_00000140698197559992058020000014733284184173367467_" class="st1" d="M150.4-74.9H0.5V74.9h149.9V-74.9
					 M149.6-74.4v0.2l0.2-0.2V74.2H1.5H1.2V-74.4H149.6z"/>
				<path id="path17_00000140731055211173677340000010084447712347367091_" class="st2" d="M143.2-67.6l6.4-6.5v-0.2H1.2V74.2h0.2
					L8,67.7V-67.6H143.2z"/>
				<path id="path19_00000075842219260670987550000013656480397485884047_" class="st3" d="M143.2-67.6L143.2-67.6l-0.1,135.1H8.3
					L8,67.7l-6.5,6.4h148.3V-74.4l-0.2,0.2L143.2-67.6z"/>
				<path id="path21_00000036932525540099398260000016152671747061553537_" class="st5" d="M143.1-67.5L143.1-67.5L8-67.6V67.7
					l0.3-0.3H143V-67.5H143.1z"/>
			</g>
		</g>
	</g>
</g>
<g id="g244" transform="matrix(0.80828857,0,0,0.80828857,367.75,181.05)">
	<g id="g242">
		<g id="use240">
			<g id="Symbol_4_copy_3_0_Layer0_0_FILL">
				<path id="path57" class="st0" d="M151.2-75.8c-0.1-0.1-0.2-0.1-0.4-0.1H0c-0.1,0-0.3,0.1-0.3,0.1c-0.1,0.1-0.1,0.2-0.1,0.4V75.4
					c0,0.1,0.1,0.3,0.1,0.4c0.1,0.1,0.2,0.1,0.3,0.1h150.9c0.1,0,0.3-0.1,0.4-0.1c0.1-0.1,0.1-0.2,0.1-0.4V-75.4
					C151.4-75.6,151.3-75.7,151.2-75.8 M0.5-74.9h149.9V74.9H0.5V-74.9z"/>
				<path id="path59" class="st1" d="M150.4-74.9H0.5V74.9h149.9V-74.9 M149.6-74.4v0.2l0.2-0.2V74.2H1.5H1.2V-74.4H149.6z"/>
				<path id="path61" class="st2" d="M143.2-67.6l6.4-6.5v-0.2H1.2V74.2h0.2L8,67.7V-67.6H143.2z"/>
				<path id="path63" class="st3" d="M143.2-67.6L143.2-67.6l-0.1,135.1H8.3L8,67.7l-6.5,6.4h148.3V-74.4l-0.2,0.2L143.2-67.6z"/>
				<path id="path65" class="st9" d="M143.1-67.5L143.1-67.5L8-67.6V67.7l0.3-0.3H143V-67.5H143.1z"/>
			</g>
		</g>
	</g>
</g>
<g id="g250" transform="matrix(0.80828857,0,0,0.80828857,490.2,181.05)">
	<g id="g248">
		<g id="use246">
			<g id="Symbol_4_0_Layer0_0_FILL_00000028302447075379656420000007829875505828288171_">
				<path id="path13_00000059276145206739608130000011219558411611858307_" class="st0" d="M151.2-75.8c-0.1-0.1-0.2-0.1-0.4-0.1H0
					c-0.1,0-0.3,0.1-0.3,0.1c-0.1,0.1-0.1,0.2-0.1,0.4V75.4c0,0.1,0.1,0.3,0.1,0.4c0.1,0.1,0.2,0.1,0.3,0.1h150.9
					c0.1,0,0.3-0.1,0.4-0.1c0.1-0.1,0.1-0.2,0.1-0.4V-75.4C151.4-75.6,151.3-75.7,151.2-75.8 M0.5-74.9h149.9V74.9H0.5V-74.9z"/>
				<path id="path15_00000144326953291269256930000002586891213387773059_" class="st1" d="M150.4-74.9H0.5V74.9h149.9V-74.9
					 M149.6-74.4v0.2l0.2-0.2V74.2H1.5H1.2V-74.4H149.6z"/>
				<path id="path17_00000096038789980122770590000015672751459001787020_" class="st2" d="M143.2-67.6l6.4-6.5v-0.2H1.2V74.2h0.2
					L8,67.7V-67.6H143.2z"/>
				<path id="path19_00000003076957460796812790000013176697058185135531_" class="st3" d="M143.2-67.6L143.2-67.6l-0.1,135.1H8.3
					L8,67.7l-6.5,6.4h148.3V-74.4l-0.2,0.2L143.2-67.6z"/>
				<path id="path21_00000108292790857965058770000015087419403279899526_" class="st5" d="M143.1-67.5L143.1-67.5L8-67.6V67.7
					l0.4-0.3h134.7L143.1-67.5L143.1-67.5z"/>
			</g>
		</g>
	</g>
</g>
<g id="g256" transform="matrix(0.80828857,0,0,0.80828857,612.65,181.05)">
	<g id="g254">
		<g id="use252">
			<g id="Symbol_4_0_Layer0_0_FILL_00000013184867020930637340000007917106259140938890_">
				<path id="path13_00000112593680356463082380000009723786154799551361_" class="st0" d="M151.2-75.8c-0.1-0.1-0.2-0.1-0.4-0.1H0
					c-0.1,0-0.3,0.1-0.3,0.1c-0.1,0.1-0.1,0.2-0.1,0.4V75.4c0,0.1,0.1,0.3,0.1,0.4c0.1,0.1,0.2,0.1,0.3,0.1h150.9
					c0.1,0,0.3-0.1,0.4-0.1c0.1-0.1,0.1-0.2,0.1-0.4V-75.4C151.4-75.6,151.3-75.7,151.2-75.8 M0.5-74.9h149.9V74.9H0.5V-74.9z"/>
				<path id="path15_00000023263107801313555640000007112393622814080652_" class="st1" d="M150.4-74.9H0.5V74.9h149.9V-74.9
					 M149.6-74.4v0.2l0.2-0.2V74.2H1.5H1.2V-74.4H149.6z"/>
				<path id="path17_00000101804189952800961240000004435976580160484251_" class="st2" d="M143.2-67.6l6.4-6.5v-0.2H1.2V74.2h0.2
					L8,67.7V-67.6H143.2z"/>
				<path id="path19_00000160164074066973503440000004523343487220249765_" class="st3" d="M143.2-67.6L143.2-67.6l-0.1,135.1H8.3
					L8,67.7l-6.5,6.4h148.3V-74.4l-0.2,0.2L143.2-67.6z"/>
				<path id="path21_00000124128254158660594880000007979322821863817653_" class="st5" d="M143.1-67.5L143.1-67.5L8-67.6V67.7
					l0.4-0.3h134.7L143.1-67.5L143.1-67.5z"/>
			</g>
		</g>
	</g>
</g>
<g id="g262" transform="matrix(0.80828857,0,0,0.80828857,735.2,181.05)">
	<g id="g260">
		<g id="use258">
			<g id="Symbol_4_copy_13_0_Layer0_0_FILL">
				<path id="path68" class="st0" d="M151.2-75.8c-0.1-0.1-0.2-0.1-0.4-0.1H0c-0.1,0-0.3,0.1-0.3,0.1c-0.1,0.1-0.1,0.2-0.1,0.4V75.4
					c0,0.1,0.1,0.3,0.1,0.4c0.1,0.1,0.2,0.1,0.3,0.1h150.9c0.1,0,0.3-0.1,0.4-0.1c0.1-0.1,0.1-0.2,0.1-0.4V-75.4
					C151.4-75.6,151.3-75.7,151.2-75.8 M0.5-74.9h149.9V74.9H0.5V-74.9z"/>
				<path id="path70" class="st1" d="M150.4-74.9H0.5V74.9h149.9V-74.9 M149.6-74.4v0.2l0.2-0.2V74.2H1.5H1.2V-74.4H149.6z"/>
				<path id="path72" class="st2" d="M143.2-67.6l6.4-6.5v-0.2H1.2V74.2h0.2L8,67.7V-67.6H143.2z"/>
				<path id="path74" class="st3" d="M143.2-67.6L143.2-67.6l-0.1,135.1H8.3L8,67.7l-6.5,6.4h148.3V-74.4l-0.2,0.2L143.2-67.6z"/>
				<path id="path76" class="st5" d="M143.1-67.5L143.1-67.5L8-67.6V67.7l0.4-0.3h134.7L143.1-67.5L143.1-67.5z"/>
			</g>
		</g>
	</g>
</g>
<g id="g268" transform="matrix(0.80828857,0,0,0.80828857,0.4,300.65)">
	<g id="g266">
		<g id="use264">
			<g id="Symbol_4_copy_11_0_Layer0_0_FILL">
				<path id="path79" class="st0" d="M151.2-75.8c-0.1-0.1-0.2-0.1-0.4-0.1H0c-0.1,0-0.3,0.1-0.3,0.1c-0.1,0.1-0.1,0.2-0.1,0.4V75.4
					c0,0.1,0.1,0.3,0.1,0.4c0.1,0.1,0.2,0.1,0.3,0.1h150.9c0.1,0,0.3-0.1,0.4-0.1c0.1-0.1,0.1-0.2,0.1-0.4V-75.4
					C151.4-75.6,151.3-75.7,151.2-75.8 M0.5-74.9h149.9V74.9H0.5V-74.9z"/>
				<path id="path81" class="st1" d="M150.4-74.9H0.5V74.9h149.9V-74.9 M149.6-74.4v0.2l0.2-0.2V74.2H1.5H1.2V-74.4H149.6z"/>
				<path id="path83" class="st2" d="M143.2-67.6l6.4-6.5v-0.2H1.2V74.2h0.2L8,67.7V-67.6H143.2z"/>
				<path id="path85" class="st3" d="M143.2-67.6L143.2-67.6l-0.1,135.1H8.3L8,67.7l-6.5,6.4h148.3V-74.4l-0.2,0.2L143.2-67.6z"/>
				<path id="path87" class="st10" d="M143.1-67.5L143.1-67.5L8-67.6V67.7l0.3-0.3H143V-67.5H143.1z"/>
			</g>
		</g>
	</g>
</g>
<g id="g274" transform="matrix(0.80828857,0,0,0.80828857,122.85,300.65)">
	<g id="g272">
		<g id="use270">
			<g id="Symbol_4_0_Layer0_0_FILL_00000183928240169165829230000005400074461091822991_">
				<path id="path13_00000114042506064714404080000014614724909865606055_" class="st0" d="M151.2-75.8c-0.1-0.1-0.2-0.1-0.4-0.1H0
					c-0.1,0-0.3,0.1-0.3,0.1c-0.1,0.1-0.1,0.2-0.1,0.4V75.4c0,0.1,0.1,0.3,0.1,0.4c0.1,0.1,0.2,0.1,0.3,0.1h150.9
					c0.1,0,0.3-0.1,0.4-0.1c0.1-0.1,0.1-0.2,0.1-0.4V-75.4C151.4-75.6,151.3-75.7,151.2-75.8 M0.5-74.9h149.9V74.9H0.5V-74.9z"/>
				<path id="path15_00000039126121944962633370000016104749615603015559_" class="st1" d="M150.4-74.9H0.5V74.9h149.9V-74.9
					 M149.6-74.4v0.2l0.2-0.2V74.2H1.5H1.2V-74.4H149.6z"/>
				<path id="path17_00000169529316890158586220000008602430986734131850_" class="st2" d="M143.2-67.6l6.4-6.5v-0.2H1.2V74.2h0.2
					L8,67.7V-67.6H143.2z"/>
				<path id="path19_00000024701021402077486840000008457174755173985950_" class="st3" d="M143.2-67.6L143.2-67.6l-0.1,135.1H8.3
					L8,67.7l-6.5,6.4h148.3V-74.4l-0.2,0.2L143.2-67.6z"/>
				<path id="path21_00000145051728891035115710000016420115284600273562_" class="st5" d="M143.1-67.5L143.1-67.5L8-67.6V67.7
					l0.4-0.3h134.7L143.1-67.5L143.1-67.5z"/>
			</g>
		</g>
	</g>
</g>
<g id="g280" transform="matrix(0.80828857,0,0,0.80828857,245.3,300.65)">
	<g id="g278">
		<g id="use276">
			<g id="Symbol_4_0_Layer0_0_FILL_00000147183967897259791190000004895823721947045270_">
				<path id="path13_00000180354055923391435400000007287963517164441997_" class="st0" d="M151.2-75.8c-0.1-0.1-0.2-0.1-0.4-0.1H0
					c-0.1,0-0.3,0.1-0.3,0.1c-0.1,0.1-0.1,0.2-0.1,0.4V75.4c0,0.1,0.1,0.3,0.1,0.4c0.1,0.1,0.2,0.1,0.3,0.1h150.9
					c0.1,0,0.3-0.1,0.4-0.1c0.1-0.1,0.1-0.2,0.1-0.4V-75.4C151.4-75.6,151.3-75.7,151.2-75.8 M0.5-74.9h149.9V74.9H0.5V-74.9z"/>
				<path id="path15_00000090278404404105948350000008815752907961940614_" class="st1" d="M150.4-74.9H0.5V74.9h149.9V-74.9
					 M149.6-74.4v0.2l0.2-0.2V74.2H1.5H1.2V-74.4H149.6z"/>
				<path id="path17_00000088845662717361265580000003978229086614782860_" class="st2" d="M143.2-67.6l6.4-6.5v-0.2H1.2V74.2h0.2
					L8,67.7V-67.6H143.2z"/>
				<path id="path19_00000116228409885875131060000002518738925734153903_" class="st3" d="M143.2-67.6L143.2-67.6l-0.1,135.1H8.3
					L8,67.7l-6.5,6.4h148.3V-74.4l-0.2,0.2L143.2-67.6z"/>
				<path id="path21_00000089561177320265162680000003858807430001638572_" class="st5" d="M143.1-67.5L143.1-67.5L8-67.6V67.7
					l0.3-0.3H143V-67.5H143.1z"/>
			</g>
		</g>
	</g>
</g>
<g id="g286" transform="matrix(0.80828857,0,0,0.80828857,367.75,300.65)">
	<g id="g284">
		<g id="use282">
			<g id="Symbol_4_copy_7_0_Layer0_0_FILL">
				<path id="path90" class="st0" d="M151.2-75.8c-0.1-0.1-0.2-0.1-0.4-0.1H0c-0.1,0-0.3,0.1-0.3,0.1c-0.1,0.1-0.1,0.2-0.1,0.4V75.4
					c0,0.1,0.1,0.3,0.1,0.4c0.1,0.1,0.2,0.1,0.3,0.1h150.9c0.1,0,0.3-0.1,0.4-0.1c0.1-0.1,0.1-0.2,0.1-0.4V-75.4
					C151.4-75.6,151.3-75.7,151.2-75.8 M0.5-74.9h149.9V74.9H0.5V-74.9z"/>
				<path id="path92" class="st1" d="M150.4-74.9H0.5V74.9h149.9V-74.9 M149.6-74.4v0.2l0.2-0.2V74.2H1.5H1.2V-74.4H149.6z"/>
				<path id="path94" class="st2" d="M143.2-67.6l6.4-6.5v-0.2H1.2V74.2h0.2L8,67.7V-67.6H143.2z"/>
				<path id="path96" class="st3" d="M143.2-67.6L143.2-67.6l-0.1,135.1H8.3L8,67.7l-6.5,6.4h148.3V-74.4l-0.2,0.2L143.2-67.6z"/>
				<path id="path98" class="st5" d="M143.1-67.5L143.1-67.5L8-67.6V67.7l0.3-0.3H143V-67.5H143.1z"/>
			</g>
		</g>
	</g>
</g>
<g id="g292" transform="matrix(0.80828857,0,0,0.80828857,490.2,300.65)">
	<g id="g290">
		<g id="use288">
			<g id="Symbol_4_0_Layer0_0_FILL_00000147179804079997679130000017396382544841592737_">
				<path id="path13_00000109011335669862554910000000041870125219897740_" class="st0" d="M151.2-75.8c-0.1-0.1-0.2-0.1-0.4-0.1H0
					c-0.1,0-0.3,0.1-0.3,0.1c-0.1,0.1-0.1,0.2-0.1,0.4V75.4c0,0.1,0.1,0.3,0.1,0.4c0.1,0.1,0.2,0.1,0.3,0.1h150.9
					c0.1,0,0.3-0.1,0.4-0.1c0.1-0.1,0.1-0.2,0.1-0.4V-75.4C151.4-75.6,151.3-75.7,151.2-75.8 M0.5-74.9h149.9V74.9H0.5V-74.9z"/>
				<path id="path15_00000030456148904753157480000005246988438413984166_" class="st1" d="M150.4-74.9H0.5V74.9h149.9V-74.9
					 M149.6-74.4v0.2l0.2-0.2V74.2H1.5H1.2V-74.4H149.6z"/>
				<path id="path17_00000100375943645493835690000009305267024508612482_" class="st2" d="M143.2-67.6l6.4-6.5v-0.2H1.2V74.2h0.2
					L8,67.7V-67.6H143.2z"/>
				<path id="path19_00000043420457795890633120000001317270149438382464_" class="st3" d="M143.2-67.6L143.2-67.6l-0.1,135.1H8.3
					L8,67.7l-6.5,6.4h148.3V-74.4l-0.2,0.2L143.2-67.6z"/>
				<path id="path21_00000006694607668680604500000016515418128432904605_" class="st11" d="M143.1-67.5L143.1-67.5L8-67.6V67.7
					l0.4-0.3h134.7L143.1-67.5L143.1-67.5z"/>
			</g>
		</g>
	</g>
</g>
<g id="g298" transform="matrix(0.80828857,0,0,0.80828857,612.65,300.65)">
	<g id="g296">
		<g id="use294">
			<g id="Symbol_4_copy_6_0_Layer0_0_FILL">
				<path id="path101" class="st0" d="M151.2-75.8c-0.1-0.1-0.2-0.1-0.4-0.1H0c-0.1,0-0.3,0.1-0.3,0.1c-0.1,0.1-0.1,0.2-0.1,0.4
					V75.4c0,0.1,0.1,0.3,0.1,0.4c0.1,0.1,0.2,0.1,0.3,0.1h150.9c0.1,0,0.3-0.1,0.4-0.1c0.1-0.1,0.1-0.2,0.1-0.4V-75.4
					C151.4-75.6,151.3-75.7,151.2-75.8 M0.5-74.9h149.9V74.9H0.5V-74.9z"/>
				<path id="path103" class="st1" d="M150.4-74.9H0.5V74.9h149.9V-74.9 M149.6-74.4v0.2l0.2-0.2V74.2H1.5H1.2V-74.4H149.6z"/>
				<path id="path105" class="st2" d="M143.2-67.6l6.4-6.5v-0.2H1.2V74.2h0.2L8,67.7V-67.6H143.2z"/>
				<path id="path107" class="st3" d="M143.2-67.6L143.2-67.6l-0.1,135.1H8.3L8,67.7l-6.5,6.4h148.3V-74.4l-0.2,0.2L143.2-67.6z"/>
				<path id="path109" class="st5" d="M143.1-67.5L143.1-67.5L8-67.6V67.7l0.4-0.3h134.7L143.1-67.5L143.1-67.5z"/>
			</g>
		</g>
	</g>
</g>
<g id="g304" transform="matrix(0.80828857,0,0,0.80828857,735.2,300.65)">
	<g id="g302">
		<g id="use300">
			<g id="Symbol_4_0_Layer0_0_FILL_00000042723301541708239190000006220011610391269801_">
				<path id="path13_00000032634827656256725330000017904363071374961820_" class="st0" d="M151.2-75.8c-0.1-0.1-0.2-0.1-0.4-0.1H0
					c-0.1,0-0.3,0.1-0.3,0.1c-0.1,0.1-0.1,0.2-0.1,0.4V75.4c0,0.1,0.1,0.3,0.1,0.4c0.1,0.1,0.2,0.1,0.3,0.1h150.9
					c0.1,0,0.3-0.1,0.4-0.1c0.1-0.1,0.1-0.2,0.1-0.4V-75.4C151.4-75.6,151.3-75.7,151.2-75.8 M0.5-74.9h149.9V74.9H0.5V-74.9z"/>
				<path id="path15_00000052090192253687314070000011206305885727831461_" class="st1" d="M150.4-74.9H0.5V74.9h149.9V-74.9
					 M149.6-74.4v0.2l0.2-0.2V74.2H1.5H1.2V-74.4H149.6z"/>
				<path id="path17_00000060030133517313723450000004556328275572514978_" class="st2" d="M143.2-67.6l6.4-6.5v-0.2H1.2V74.2h0.2
					L8,67.7V-67.6H143.2z"/>
				<path id="path19_00000076579131080642026730000004256876863186074270_" class="st3" d="M143.2-67.6L143.2-67.6l-0.1,135.1H8.3
					L8,67.7l-6.5,6.4h148.3V-74.4l-0.2,0.2L143.2-67.6z"/>
				<path id="path21_00000060029626571349076210000003313651528063065475_" class="st5" d="M143.1-67.5L143.1-67.5L8-67.6V67.7
					l0.4-0.3h134.7L143.1-67.5L143.1-67.5z"/>
			</g>
		</g>
	</g>
</g>
<g id="g310" transform="matrix(0.80828857,0,0,0.80828857,0.4,420.3)">
	<g id="g308">
		<g id="use306">
			<g id="Symbol_4_0_Layer0_0_FILL_00000025405287331528561990000009400599338834071961_">
				<path id="path13_00000181803864809125074000000014199387199319510939_" class="st0" d="M151.2-75.8c-0.1-0.1-0.2-0.1-0.4-0.1H0
					c-0.1,0-0.3,0.1-0.3,0.1c-0.1,0.1-0.1,0.2-0.1,0.4V75.4c0,0.1,0.1,0.3,0.1,0.4c0.1,0.1,0.2,0.1,0.3,0.1h150.9
					c0.1,0,0.3-0.1,0.4-0.1c0.1-0.1,0.1-0.2,0.1-0.4V-75.4C151.4-75.6,151.3-75.7,151.2-75.8 M0.5-74.9h149.9V74.9H0.5V-74.9z"/>
				<path id="path15_00000142150666251534786280000017542964140042640017_" class="st1" d="M150.4-74.9H0.5V74.9h149.9V-74.9
					 M149.6-74.4v0.2l0.2-0.2V74.2H1.5H1.2V-74.4H149.6z"/>
				<path id="path17_00000019667142940734716360000009495189295859406265_" class="st2" d="M143.2-67.6l6.4-6.5v-0.2H1.2V74.2h0.2
					L8,67.7V-67.6H143.2z"/>
				<path id="path19_00000006673654200891350210000011773260730983279294_" class="st3" d="M143.2-67.6L143.2-67.6l-0.1,135.1H8.3
					L8,67.7l-6.5,6.4h148.3V-74.4l-0.2,0.2L143.2-67.6z"/>
				<path id="path21_00000147192182778343489230000000948887106823285927_" class="st5" d="M143.1-67.5L143.1-67.5L8-67.6V67.7
					l0.3-0.3H143V-67.5H143.1z"/>
			</g>
		</g>
	</g>
</g>
<g id="g316" transform="matrix(0.80828857,0,0,0.80828857,122.85,420.3)">
	<g id="g314">
		<g id="use312">
			<g id="Symbol_4_copy_10_0_Layer0_0_FILL">
				<path id="path112" class="st0" d="M151.2-75.8c-0.1-0.1-0.2-0.1-0.4-0.1H0c-0.1,0-0.3,0.1-0.3,0.1c-0.1,0.1-0.1,0.2-0.1,0.4
					V75.4c0,0.1,0.1,0.3,0.1,0.4c0.1,0.1,0.2,0.1,0.3,0.1h150.9c0.1,0,0.3-0.1,0.4-0.1c0.1-0.1,0.1-0.2,0.1-0.4V-75.4
					C151.4-75.6,151.3-75.7,151.2-75.8 M0.5-74.9h149.9V74.9H0.5V-74.9z"/>
				<path id="path114" class="st1" d="M150.4-74.9H0.5V74.9h149.9V-74.9 M149.6-74.4v0.2l0.2-0.2V74.2H1.5H1.2V-74.4H149.6z"/>
				<path id="path116" class="st2" d="M143.2-67.6l6.4-6.5v-0.2H1.2V74.2h0.2L8,67.7V-67.6H143.2z"/>
				<path id="path118" class="st3" d="M143.2-67.6L143.2-67.6l-0.1,135.1H8.3L8,67.7l-6.5,6.4h148.3V-74.4l-0.2,0.2L143.2-67.6z"/>
				<path id="path120" class="st12" d="M143.1-67.5L143.1-67.5L8-67.6V67.7l0.4-0.3h134.7L143.1-67.5L143.1-67.5z"/>
			</g>
		</g>
	</g>
</g>
<g id="g322" transform="matrix(0.80828857,0,0,0.80828857,245.3,420.3)">
	<g id="g320">
		<g id="use318">
			<g id="Symbol_4_0_Layer0_0_FILL_00000031173934801403856280000002171056525361945232_">
				<path id="path13_00000015331353167570162670000013697173521361017484_" class="st0" d="M151.2-75.8c-0.1-0.1-0.2-0.1-0.4-0.1H0
					c-0.1,0-0.3,0.1-0.3,0.1c-0.1,0.1-0.1,0.2-0.1,0.4V75.4c0,0.1,0.1,0.3,0.1,0.4c0.1,0.1,0.2,0.1,0.3,0.1h150.9
					c0.1,0,0.3-0.1,0.4-0.1c0.1-0.1,0.1-0.2,0.1-0.4V-75.4C151.4-75.6,151.3-75.7,151.2-75.8 M0.5-74.9h149.9V74.9H0.5V-74.9z"/>
				<path id="path15_00000100375167927564298480000001572812966749751483_" class="st1" d="M150.4-74.9H0.5V74.9h149.9V-74.9
					 M149.6-74.4v0.2l0.2-0.2V74.2H1.5H1.2V-74.4H149.6z"/>
				<path id="path17_00000129922228991724127220000014451783483991389828_" class="st2" d="M143.2-67.6l6.4-6.5v-0.2H1.2V74.2h0.2
					L8,67.7V-67.6H143.2z"/>
				<path id="path19_00000021815701830645649450000014519555231733558940_" class="st3" d="M143.2-67.6L143.2-67.6l-0.1,135.1H8.3
					L8,67.7l-6.5,6.4h148.3V-74.4l-0.2,0.2L143.2-67.6z"/>
				<path id="path21_00000025420327193190883910000018269413626207701403_" class="st5" d="M143.1-67.5L143.1-67.5L8-67.6V67.7
					l0.3-0.3H143V-67.5H143.1z"/>
			</g>
		</g>
	</g>
</g>
<g id="g328" transform="matrix(0.80828857,0,0,0.80828857,367.75,420.3)">
	<g id="g326">
		<g id="use324">
			<g id="Symbol_4_copy_14_0_Layer0_0_FILL">
				<path id="path123" class="st0" d="M151.2-75.8c-0.1-0.1-0.2-0.1-0.4-0.1H0c-0.1,0-0.3,0.1-0.3,0.1c-0.1,0.1-0.1,0.2-0.1,0.4
					V75.4c0,0.1,0.1,0.3,0.1,0.4c0.1,0.1,0.2,0.1,0.3,0.1h150.9c0.1,0,0.3-0.1,0.4-0.1c0.1-0.1,0.1-0.2,0.1-0.4V-75.4
					C151.4-75.6,151.3-75.7,151.2-75.8 M0.5-74.9h149.9V74.9H0.5V-74.9z"/>
				<path id="path125" class="st1" d="M150.4-74.9H0.5V74.9h149.9V-74.9 M149.6-74.4v0.2l0.2-0.2V74.2H1.5H1.2V-74.4H149.6z"/>
				<path id="path127" class="st2" d="M143.2-67.6l6.4-6.5v-0.2H1.2V74.2h0.2L8,67.7V-67.6H143.2z"/>
				<path id="path129" class="st3" d="M143.2-67.6L143.2-67.6l-0.1,135.1H8.3L8,67.7l-6.5,6.4h148.3V-74.4l-0.2,0.2L143.2-67.6z"/>
				<path id="path131" class="st13" d="M143.1-67.5L143.1-67.5L8-67.6V67.7l0.3-0.3H143V-67.5H143.1z"/>
			</g>
		</g>
	</g>
</g>
<g id="g334" transform="matrix(0.80828857,0,0,0.80828857,490.2,420.3)">
	<g id="g332">
		<g id="use330">
			<g id="Symbol_4_0_Layer0_0_FILL_00000092429423617598533950000015756039165446186392_">
				<path id="path13_00000103971296132670550870000006604147196066726788_" class="st0" d="M151.2-75.8c-0.1-0.1-0.2-0.1-0.4-0.1H0
					c-0.1,0-0.3,0.1-0.3,0.1c-0.1,0.1-0.1,0.2-0.1,0.4V75.4c0,0.1,0.1,0.3,0.1,0.4c0.1,0.1,0.2,0.1,0.3,0.1h150.9
					c0.1,0,0.3-0.1,0.4-0.1c0.1-0.1,0.1-0.2,0.1-0.4V-75.4C151.4-75.6,151.3-75.7,151.2-75.8 M0.5-74.9h149.9V74.9H0.5V-74.9z"/>
				<path id="path15_00000049907601318111615100000014871067557387305135_" class="st1" d="M150.4-74.9H0.5V74.9h149.9V-74.9
					 M149.6-74.4v0.2l0.2-0.2V74.2H1.5H1.2V-74.4H149.6z"/>
				<path id="path17_00000025418837434392228280000007512328040302750091_" class="st2" d="M143.2-67.6l6.4-6.5v-0.2H1.2V74.2h0.2
					L8,67.7V-67.6H143.2z"/>
				<path id="path19_00000132072424426233556780000002235161542634455735_" class="st3" d="M143.2-67.6L143.2-67.6l-0.1,135.1H8.3
					L8,67.7l-6.5,6.4h148.3V-74.4l-0.2,0.2L143.2-67.6z"/>
				<path id="path21_00000039134978800987063130000007141367675449296061_" class="st5" d="M143.1-67.5L143.1-67.5L8-67.6V67.7
					l0.4-0.3h134.7L143.1-67.5L143.1-67.5z"/>
			</g>
		</g>
	</g>
</g>
<g id="g340" transform="matrix(0.80828857,0,0,0.80828857,612.65,420.3)">
	<g id="g338">
		<g id="use336">
			<g id="Symbol_4_copy_15_0_Layer0_0_FILL">
				<path id="path134" class="st0" d="M151.2-75.8c-0.1-0.1-0.2-0.1-0.4-0.1H0c-0.1,0-0.3,0.1-0.3,0.1c-0.1,0.1-0.1,0.2-0.1,0.4
					V75.4c0,0.1,0.1,0.3,0.1,0.4c0.1,0.1,0.2,0.1,0.3,0.1h150.9c0.1,0,0.3-0.1,0.4-0.1c0.1-0.1,0.1-0.2,0.1-0.4V-75.4
					C151.4-75.6,151.3-75.7,151.2-75.8 M0.5-74.9h149.9V74.9H0.5V-74.9z"/>
				<path id="path136" class="st1" d="M150.4-74.9H0.5V74.9h149.9V-74.9 M149.6-74.4v0.2l0.2-0.2V74.2H1.5H1.2V-74.4H149.6z"/>
				<path id="path138" class="st2" d="M143.2-67.6l6.4-6.5v-0.2H1.2V74.2h0.2L8,67.7V-67.6H143.2z"/>
				<path id="path140" class="st3" d="M143.2-67.6L143.2-67.6l-0.1,135.1H8.3L8,67.7l-6.5,6.4h148.3V-74.4l-0.2,0.2L143.2-67.6z"/>
				<path id="path142" class="st14" d="M143.1-67.5L143.1-67.5L8-67.6V67.7l0.4-0.3h134.7L143.1-67.5L143.1-67.5z"/>
			</g>
		</g>
	</g>
</g>
<g id="g346" transform="matrix(0.80828857,0,0,0.80828857,735.2,420.3)">
	<g id="g344">
		<g id="use342">
			<g id="Symbol_4_0_Layer0_0_FILL_00000080894522724192128430000002514344809887040904_">
				<path id="path13_00000109712505714062161760000002549607905483753865_" class="st0" d="M151.2-75.8c-0.1-0.1-0.2-0.1-0.4-0.1H0
					c-0.1,0-0.3,0.1-0.3,0.1c-0.1,0.1-0.1,0.2-0.1,0.4V75.4c0,0.1,0.1,0.3,0.1,0.4c0.1,0.1,0.2,0.1,0.3,0.1h150.9
					c0.1,0,0.3-0.1,0.4-0.1c0.1-0.1,0.1-0.2,0.1-0.4V-75.4C151.4-75.6,151.3-75.7,151.2-75.8 M0.5-74.9h149.9V74.9H0.5V-74.9z"/>
				<path id="path15_00000119817244499532458180000015409861323385124758_" class="st1" d="M150.4-74.9H0.5V74.9h149.9V-74.9
					 M149.6-74.4v0.2l0.2-0.2V74.2H1.5H1.2V-74.4H149.6z"/>
				<path id="path17_00000172431300477060403750000002657105488891306422_" class="st2" d="M143.2-67.6l6.4-6.5v-0.2H1.2V74.2h0.2
					L8,67.7V-67.6H143.2z"/>
				<path id="path19_00000068661330158121573980000016124233799727591325_" class="st3" d="M143.2-67.6L143.2-67.6l-0.1,135.1H8.3
					L8,67.7l-6.5,6.4h148.3V-74.4l-0.2,0.2L143.2-67.6z"/>
				<path id="path21_00000137119726250143870930000002482877106972475296_" class="st5" d="M143.1-67.5L143.1-67.5L8-67.6V67.7
					l0.4-0.3h134.7L143.1-67.5L143.1-67.5z"/>
			</g>
		</g>
	</g>
</g>
<g id="g352" transform="matrix(0.80828857,0,0,0.80828857,0.4,540.05)">
	<g id="g350">
		<g id="use348">
			<g id="Symbol_4_0_Layer0_0_FILL_00000021084439118334298130000011508501907418514575_">
				<path id="path13_00000169520567759575758230000016821820741814775198_" class="st0" d="M151.2-75.8c-0.1-0.1-0.2-0.1-0.4-0.1H0
					c-0.1,0-0.3,0.1-0.3,0.1c-0.1,0.1-0.1,0.2-0.1,0.4V75.4c0,0.1,0.1,0.3,0.1,0.4c0.1,0.1,0.2,0.1,0.3,0.1h150.9
					c0.1,0,0.3-0.1,0.4-0.1c0.1-0.1,0.1-0.2,0.1-0.4V-75.4C151.4-75.6,151.3-75.7,151.2-75.8 M0.5-74.9h149.9V74.9H0.5V-74.9z"/>
				<path id="path15_00000060708796122413929210000009379882586495608228_" class="st1" d="M150.4-74.9H0.5V74.9h149.9V-74.9
					 M149.6-74.4v0.2l0.2-0.2V74.2H1.5H1.2V-74.4H149.6z"/>
				<path id="path17_00000008869504186394566840000016868269328152420006_" class="st2" d="M143.2-67.6l6.4-6.5v-0.2H1.2V74.2h0.2
					L8,67.7V-67.6H143.2z"/>
				<path id="path19_00000182495153860110152000000001362910080151817856_" class="st3" d="M143.2-67.6L143.2-67.6l-0.1,135.1H8.3
					L8,67.7l-6.5,6.4h148.3V-74.4l-0.2,0.2L143.2-67.6z"/>
				<path id="path21_00000078757588404130487240000015880560349497853595_" class="st5" d="M143.1-67.5L143.1-67.5L8-67.6V67.7
					l0.3-0.3H143V-67.5H143.1z"/>
			</g>
		</g>
	</g>
</g>
<g id="g358" transform="matrix(0.80828857,0,0,0.80828857,122.85,540.05)">
	<g id="g356">
		<g id="use354">
			<g id="Symbol_4_copy_0_Layer0_0_FILL">
				<path id="path145" class="st0" d="M151.2-75.8c-0.1-0.1-0.2-0.1-0.4-0.1H0c-0.1,0-0.3,0.1-0.3,0.1c-0.1,0.1-0.1,0.2-0.1,0.4
					V75.4c0,0.1,0.1,0.3,0.1,0.4c0.1,0.1,0.2,0.1,0.3,0.1h150.9c0.1,0,0.3-0.1,0.4-0.1c0.1-0.1,0.1-0.2,0.1-0.4V-75.4
					C151.4-75.6,151.3-75.7,151.2-75.8 M0.5-74.9h149.9V74.9H0.5V-74.9z"/>
				<path id="path147" class="st1" d="M150.4-74.9H0.5V74.9h149.9V-74.9 M149.6-74.4v0.2l0.2-0.2V74.2H1.5H1.2V-74.4H149.6z"/>
				<path id="path149" class="st2" d="M143.2-67.6l6.4-6.5v-0.2H1.2V74.2h0.2L8,67.7V-67.6H143.2z"/>
				<path id="path151" class="st3" d="M143.2-67.6L143.2-67.6l-0.1,135.1H8.3L8,67.7l-6.5,6.4h148.3V-74.4l-0.2,0.2L143.2-67.6z"/>
				<path id="path153" class="st15" d="M143.1-67.5L143.1-67.5L8-67.6V67.7l0.4-0.3h134.7L143.1-67.5L143.1-67.5z"/>
			</g>
		</g>
	</g>
</g>
<g id="g364" transform="matrix(0.80828857,0,0,0.80828857,245.3,540.05)">
	<g id="g362">
		<g id="use360">
			<g id="Symbol_4_0_Layer0_0_FILL_00000007403266518813092720000008962433506318234506_">
				<path id="path13_00000015328838498162012240000004128186958364551815_" class="st0" d="M151.2-75.8c-0.1-0.1-0.2-0.1-0.4-0.1H0
					c-0.1,0-0.3,0.1-0.3,0.1c-0.1,0.1-0.1,0.2-0.1,0.4V75.4c0,0.1,0.1,0.3,0.1,0.4c0.1,0.1,0.2,0.1,0.3,0.1h150.9
					c0.1,0,0.3-0.1,0.4-0.1c0.1-0.1,0.1-0.2,0.1-0.4V-75.4C151.4-75.6,151.3-75.7,151.2-75.8 M0.5-74.9h149.9V74.9H0.5V-74.9z"/>
				<path id="path15_00000132087233209929553470000006317843317766290081_" class="st1" d="M150.4-74.9H0.5V74.9h149.9V-74.9
					 M149.6-74.4v0.2l0.2-0.2V74.2H1.5H1.2V-74.4H149.6z"/>
				<path id="path17_00000034780863704352914500000017034934845469970822_" class="st2" d="M143.2-67.6l6.4-6.5v-0.2H1.2V74.2h0.2
					L8,67.7V-67.6H143.2z"/>
				<path id="path19_00000024697855551842072850000003632800904455062154_" class="st3" d="M143.2-67.6L143.2-67.6l-0.1,135.1H8.3
					L8,67.7l-6.5,6.4h148.3V-74.4l-0.2,0.2L143.2-67.6z"/>
				<path id="path21_00000129902044992696839220000013462489497575721652_" class="st5" d="M143.1-67.5L143.1-67.5L8-67.6V67.7
					l0.3-0.3H143V-67.5H143.1z"/>
			</g>
		</g>
	</g>
</g>
<g id="g370" transform="matrix(0.80828857,0,0,0.80828857,367.75,540.05)">
	<g id="g368">
		<g id="use366">
			<g id="Symbol_4_0_Layer0_0_FILL_00000129908384872641216820000010915373858757019028_">
				<path id="path13_00000176012040064604738340000017721052124828946819_" class="st0" d="M151.2-75.8c-0.1-0.1-0.2-0.1-0.4-0.1H0
					c-0.1,0-0.3,0.1-0.3,0.1c-0.1,0.1-0.1,0.2-0.1,0.4V75.4c0,0.1,0.1,0.3,0.1,0.4c0.1,0.1,0.2,0.1,0.3,0.1h150.9
					c0.1,0,0.3-0.1,0.4-0.1c0.1-0.1,0.1-0.2,0.1-0.4V-75.4C151.4-75.6,151.3-75.7,151.2-75.8 M0.5-74.9h149.9V74.9H0.5V-74.9z"/>
				<path id="path15_00000003787473168314522830000015807548514718937233_" class="st1" d="M150.4-74.9H0.5V74.9h149.9V-74.9
					 M149.6-74.4v0.2l0.2-0.2V74.2H1.5H1.2V-74.4H149.6z"/>
				<path id="path17_00000129920717420462134000000008994964466143925933_" class="st2" d="M143.2-67.6l6.4-6.5v-0.2H1.2V74.2h0.2
					L8,67.7V-67.6H143.2z"/>
				<path id="path19_00000161598504967909673340000018352962370480373411_" class="st3" d="M143.2-67.6L143.2-67.6l-0.1,135.1H8.3
					L8,67.7l-6.5,6.4h148.3V-74.4l-0.2,0.2L143.2-67.6z"/>
				<path id="path21_00000070814295213528147650000008862320260751533233_" class="st5" d="M143.1-67.5L143.1-67.5L8-67.6V67.7
					l0.3-0.3H143V-67.5H143.1z"/>
			</g>
		</g>
	</g>
</g>
<g id="g376" transform="matrix(0.80828857,0,0,0.80828857,490.2,540.05)">
	<g id="g374">
		<g id="use372">
			<g id="Symbol_4_copy_9_0_Layer0_0_FILL">
				<path id="path156" class="st0" d="M151.2-75.8c-0.1-0.1-0.2-0.1-0.4-0.1H0c-0.1,0-0.3,0.1-0.3,0.1c-0.1,0.1-0.1,0.2-0.1,0.4
					V75.4c0,0.1,0.1,0.3,0.1,0.4c0.1,0.1,0.2,0.1,0.3,0.1h150.9c0.1,0,0.3-0.1,0.4-0.1c0.1-0.1,0.1-0.2,0.1-0.4V-75.4
					C151.4-75.6,151.3-75.7,151.2-75.8 M0.5-74.9h149.9V74.9H0.5V-74.9z"/>
				<path id="path158" class="st1" d="M150.4-74.9H0.5V74.9h149.9V-74.9 M149.6-74.4v0.2l0.2-0.2V74.2H1.5H1.2V-74.4H149.6z"/>
				<path id="path160" class="st2" d="M143.2-67.6l6.4-6.5v-0.2H1.2V74.2h0.2L8,67.7V-67.6H143.2z"/>
				<path id="path162" class="st3" d="M143.2-67.6L143.2-67.6l-0.1,135.1H8.3L8,67.7l-6.5,6.4h148.3V-74.4l-0.2,0.2L143.2-67.6z"/>
				<path id="path164" class="st16" d="M143.1-67.5L143.1-67.5L8-67.6V67.7l0.4-0.3h134.7L143.1-67.5L143.1-67.5z"/>
			</g>
		</g>
	</g>
</g>
<g id="g382" transform="matrix(0.80828857,0,0,0.80828857,612.65,540.05)">
	<g id="g380">
		<g id="use378">
			<g id="Symbol_4_0_Layer0_0_FILL_00000090974869975661014950000011291461661280785282_">
				<path id="path13_00000127042696936386314140000004305241681079131069_" class="st0" d="M151.2-75.8c-0.1-0.1-0.2-0.1-0.4-0.1H0
					c-0.1,0-0.3,0.1-0.3,0.1c-0.1,0.1-0.1,0.2-0.1,0.4V75.4c0,0.1,0.1,0.3,0.1,0.4c0.1,0.1,0.2,0.1,0.3,0.1h150.9
					c0.1,0,0.3-0.1,0.4-0.1c0.1-0.1,0.1-0.2,0.1-0.4V-75.4C151.4-75.6,151.3-75.7,151.2-75.8 M0.5-74.9h149.9V74.9H0.5V-74.9z"/>
				<path id="path15_00000127754413878295411830000002569420102989765542_" class="st1" d="M150.4-74.9H0.5V74.9h149.9V-74.9
					 M149.6-74.4v0.2l0.2-0.2V74.2H1.5H1.2V-74.4H149.6z"/>
				<path id="path17_00000000917466572945602570000007624080848190053295_" class="st2" d="M143.2-67.6l6.4-6.5v-0.2H1.2V74.2h0.2
					L8,67.7V-67.6H143.2z"/>
				<path id="path19_00000053510746182799860370000004786689672858908549_" class="st3" d="M143.2-67.6L143.2-67.6l-0.1,135.1H8.3
					L8,67.7l-6.5,6.4h148.3V-74.4l-0.2,0.2L143.2-67.6z"/>
				<path id="path21_00000018204210395529287920000001254323511060433590_" class="st5" d="M143.1-67.5L143.1-67.5L8-67.6V67.7
					l0.4-0.3h134.7L143.1-67.5L143.1-67.5z"/>
			</g>
		</g>
	</g>
</g>
<g id="g388" transform="matrix(0.80828857,0,0,0.80828857,735.2,540.05)">
	<g id="g386">
		<g id="use384">
			<g id="Symbol_4_copy_2_0_Layer0_0_FILL">
				<path id="path167" class="st0" d="M151.2-75.8c-0.1-0.1-0.2-0.1-0.4-0.1H0c-0.1,0-0.3,0.1-0.3,0.1c-0.1,0.1-0.1,0.2-0.1,0.4
					V75.4c0,0.1,0.1,0.3,0.1,0.4c0.1,0.1,0.2,0.1,0.3,0.1h150.9c0.1,0,0.3-0.1,0.4-0.1c0.1-0.1,0.1-0.2,0.1-0.4V-75.4
					C151.4-75.6,151.3-75.7,151.2-75.8 M0.5-74.9h149.9V74.9H0.5V-74.9z"/>
				<path id="path169" class="st1" d="M150.4-74.9H0.5V74.9h149.9V-74.9 M149.6-74.4v0.2l0.2-0.2V74.2H1.5H1.2V-74.4H149.6z"/>
				<path id="path171" class="st2" d="M143.2-67.6l6.4-6.5v-0.2H1.2V74.2h0.2L8,67.7V-67.6H143.2z"/>
				<path id="path173" class="st3" d="M143.2-67.6L143.2-67.6l-0.1,135.1H8.3L8,67.7l-6.5,6.4h148.3V-74.4l-0.2,0.2L143.2-67.6z"/>
				<path id="path175" class="st5" d="M143.1-67.5L143.1-67.5L8-67.6V67.7l0.4-0.3h134.7L143.1-67.5L143.1-67.5z"/>
			</g>
		</g>
	</g>
</g>
<g>
	<path class="st17" d="M152.8,72.3c-0.1-1.7,0-3.4-0.2-5.1c-0.1-1.5-0.2-3.8-1.5-4.9c-1.8-1.4-4.1,1.5-4.6,2.9
		c-0.7,2.1-0.6,4.2-0.4,6.4c0.1,0.1,0.1,0.2,0.1,0.4c0,0,0,0.1,0,0.1c0.2,0.6-0.4,1.1-1,1c-1.2-0.3-1.4-2.6-1.4-3.6
		c-0.1-1.6,0-3.3,0.6-4.9c1-2.6,3.2-5.1,6.2-4.8c1.4,0.1,2.3,0.8,2.9,1.7v-0.1c-0.1-1.8-0.3-4-1.1-5.6c-1.2-2.2-3.7-2.9-5.6-1.1
		c-0.6,0.5-1.3-0.3-0.9-0.9c1.3-1.7,3.4-2.3,5.4-1.4c2.1,0.9,3.2,2.8,3.6,5c1.1,5,0.6,9.8,0.1,14.9
		C154.9,73.7,152.9,73.8,152.8,72.3z"/>
	<path class="st17" d="M168.1,66.5c0.6,1.9,1.2,3.8,1.7,5.7c0.2,0.9-0.9,1.4-1.4,0.6c-0.7-1.1-1.2-2.2-1.6-3.4
		c-0.1,0.1-0.2,0.3-0.3,0.4c-1.5,2.5-4.5,4.8-7.5,2.8c-5-3.4-0.2-13,4.1-14.9c0.5-0.2,1.1-0.1,1.4,0.4c1.2,1.8,2.1,3.8,2.8,5.9
		c0.7-2.1,1.2-4.1,1.6-5.2c0.3-0.9,1.6-0.5,1.4,0.4C169.5,61.7,168.9,64.2,168.1,66.5z M163.3,60.1c-1.6,1.1-2.8,3.1-3.4,4.9
		c-0.6,1.6-1.8,5.1,0.4,6.1c2.6,1.2,4.4-0.9,5.7-3.8C165.3,64.9,164.6,62.4,163.3,60.1z"/>
	<path class="st17" d="M183.4,60.8L183.4,60.8c-0.2,0.3-1.1,0.9-1.2,1.1c-0.5,0.4-0.9,0.9-1.4,1.3c-0.4,0.5-0.9,1-1.4,1.4
		c0.2,0.3,0.4,0.5,0.6,0.8c1.8,2.6,4.1,6.3,3.8,9.6c-0.1,1.2-2,1.6-2.3,0.3l-0.2-1c0-0.1,0-0.2,0-0.3c-0.6-2.8-1.7-5.4-3.3-7.7
		c-0.1,0.1-0.1,0.2-0.2,0.3c-1.4,1.8-2.6,3.7-4,5.5c0,0.1-0.1,0.2-0.2,0.3c-0.1,0.1-0.2,0.3-0.4,0.4c-0.3,0.8-1.8,0.4-1.5-0.6
		c0.9-2.8,3-5.5,4.8-7.8l0.1-0.1c-1.4-1.8-3.1-3.4-4.9-4.8c-0.9-0.4-0.1-1.8,0.8-1.4c2,1.1,3.8,2.8,5.4,4.6c0.6-0.7,1.3-1.5,2-2.2
		c0.7-0.7,1.8-2.2,2.8-2.4c1.1-0.2,2.1,0.8,1.5,1.9C184,60.4,183.7,60.5,183.4,60.8z"/>
	<path class="st17" d="M196.9,66.5c0.6,1.9,1.2,3.8,1.7,5.7c0.2,0.9-0.9,1.4-1.4,0.6c-0.7-1.1-1.2-2.2-1.6-3.4
		c-0.1,0.1-0.2,0.3-0.3,0.4c-1.5,2.5-4.5,4.8-7.5,2.8c-5-3.4-0.2-13,4.1-14.9c0.5-0.2,1.1-0.1,1.4,0.4c1.2,1.8,2.1,3.8,2.8,5.9
		c0.7-2.1,1.2-4.1,1.6-5.2c0.3-0.9,1.6-0.5,1.4,0.4C198.3,61.7,197.8,64.2,196.9,66.5z M192.1,60.1c-1.6,1.1-2.8,3.1-3.4,4.9
		c-0.6,1.6-1.8,5.1,0.4,6.1c2.6,1.2,4.4-0.9,5.7-3.8C194.1,64.9,193.4,62.4,192.1,60.1z"/>
	<path class="st17" d="M205.5,72.9c-0.5,0.7-1.9,0.8-2-0.3c-0.6-4.6-2.1-9-3.3-13.5c-0.2-0.7,0.9-1.2,1.2-0.5
		c1.5,3.4,2.7,7,3.6,10.7c0.8-1.5,1.6-3,2.2-4.6c0.9-2.3,1.1-4.7,1.9-6.9c0.4-1,1.6-0.7,1.7,0.2C211.5,63.1,208.1,68.8,205.5,72.9z"
		/>
	<path class="st17" d="M215.5,73c-4.9,1.5-2.8-12.8-2.1-14.7c0.2-0.5,0.9-0.4,0.9,0.1c0.1,2.6-0.1,5.3,0.2,7.9
		c0.1,1.6,0.2,4,1.4,5.3C216.2,72.2,216,72.9,215.5,73z M214.2,55.1c-0.6,0.9-2.1,0.1-1.4-0.8c0.8-1.2,1.6-2.5,3-3.2
		c0.8-0.4,1.6,0.6,0.9,1.2C215.7,53.1,214.9,54,214.2,55.1z"/>
</g>
<g>
	<path class="st17" d="M295.5,189.9c-0.1-0.1-0.1-0.1-0.2-0.2h0c-0.7-1-1.1-2-1.5-3.1c-0.4,0.8-0.8,1.6-1.5,2.3
		c-1.3,1.4-3.1,2.1-4.6,0.4c-0.6-0.7-1.1-1.7-1.4-2.6c-0.2,3.1-0.5,6.1-0.7,9.2c-0.1,0.8-1.3,0.8-1.2,0c-0.4-6.7,0.6-13.4,0.6-20
		c0-1.3,1.9-1.3,1.9,0c0,3.5,0.3,7.5,1.6,10.8c0.2,0.6,0.5,1.5,1.1,1.8c0.6,0.3,1.5-1.1,1.8-1.4c2.1-3.3,1.4-7.5,1.8-11.2
		c0.1-1.1,1.6-1.1,1.7,0c0.1,3.7-0.6,8.8,1.8,11.9c0.2,0.2,0.4,0.4,0.6,0.7C298.1,189.6,296.4,190.9,295.5,189.9z"/>
	<path class="st17" d="M313,189.7c-2.5,1.9-4.6,0.4-5.9-2c-0.9,1.4-2.3,2.6-4,2.5c-2.9-0.2-4-4-4-6.3c0-3,0.7-6.7,3.2-8.5
		c0.7-0.5,1.3,0.5,0.8,1.1c-1.5,1.9-2.2,4.5-2.1,7c0.1,1.1,0.4,4.8,2.2,4.6c0.9-0.1,2-1.6,2.6-3.1c-0.5-1.7-0.6-3.5-0.2-4.6
		c0.3-0.9,1.3-1.1,2.1-0.6c1.4,1.1,1.1,3.3,0.6,5c0.1,0.4,0.3,0.8,0.5,1.2c0.6,1.2,2,3.2,3,1.2c1.4-2.5,1.5-7.9-0.5-10.2
		c-1-1.1,0.5-2.6,1.6-1.6c1.9,1.6,2.3,4.8,2.3,7.1C315.4,184.8,315.1,188,313,189.7z"/>
	<path class="st17" d="M319.7,190.2c0.1,1.7,0.2,3.4,0.3,5c0,1.1-1.6,1-1.7,0c-0.6-6.1-1.6-12.3-0.5-18.5c0.5-2.7,1.4-8.2,4.9-8.6
		c3.5-0.4,5.3,4.3,4.4,7.1c-0.5,1.6-1.4,3.1-2.6,4.5c1.8-0.3,3.5,0.1,4,1.9C329.9,186.6,323.9,189.8,319.7,190.2z M324.4,170
		c-1.5-0.9-2.4,0.4-3,1.7c-1.4,3.3-1.9,6.8-2,10.4c0.6-0.5,1.5-1.1,2.5-1.6c1-0.8,3.4-3.3,4-5.2C326.5,173.5,326.3,171.1,324.4,170z
		 M321.7,182.4c-0.6,0.4-1.1,0.8-1.7,1.2c-0.2,0.1-0.4,0.1-0.6,0.1c0,1.6,0.1,3.3,0.2,4.9c3.1-0.5,7.9-2.3,7.4-6.2
		C326.7,180.3,323.7,181.3,321.7,182.4z"/>
</g>
<g>
	<path class="st17" d="M404.7,73.1c-0.9-2-2.3-3.4-3.8-4.9c-0.7-0.7-1.6-1.6-2.2-2.6c-1.1,2-2.2,4.2-2.3,6.4
		c-0.1,1.1-1.5,1.2-1.8,0.3c-0.8-2.3-0.9-4.8-0.7-7.2c0.2-2.4,0.4-5,1.3-7.2c0.2-0.4,0.7-0.4,0.8,0.1c0.2,2.3-0.4,4.7-0.5,7.1
		c0,0.8,0,1.7,0,2.5c0.7-1.8,1.7-3.4,2.7-4.8c1.8-2.4,4.6-5.5,8-4.7c0.7,0.2,0.8,1.4,0,1.5c-2.8,0.4-4.8,2.1-6.4,4.3
		c1.1,1.5,2.5,2.6,3.9,3.8s2.7,2.9,2.6,4.9C406.3,73.5,405.1,73.9,404.7,73.1z"/>
	<path class="st17" d="M411.5,73c-4.9,1.5-2.8-12.8-2.1-14.7c0.2-0.5,0.9-0.4,0.9,0.1c0.1,2.6-0.1,5.3,0.2,7.9
		c0.1,1.6,0.2,4,1.4,5.3C412.3,72.2,412.1,72.9,411.5,73z M410.2,55.1c-0.6,0.9-2.1,0.1-1.4-0.8c0.8-1.2,1.6-2.5,3-3.2
		c0.8-0.4,1.6,0.6,0.9,1.2C411.8,53.1,411,54,410.2,55.1z"/>
	<path class="st17" d="M419.7,71.5c1,1.1-0.6,2.8-1.7,1.7c-3.6-3.3-2.9-9.3,0.2-12.7c-1.6,0.1-3.1,0-4.7-0.5
		c-0.9-0.3-0.5-1.5,0.2-1.5c2.6,0.2,6.2-0.3,8.7-0.6c0.5-0.1,1-0.1,1.6-0.1c1.4,0,1.4,2.1,0,2.2C418.5,60.2,416.4,67.8,419.7,71.5z"
		/>
	<path class="st17" d="M428.9,72.2c-0.1,0-0.1,0-0.2-0.1l0-0.1c-0.4-0.3-0.4-0.9,0.1-1.1c1.4-0.4,2.8-0.1,4-1
		c0.9-0.7,1.4-1.6,1.6-2.7c0.3-2.1,0.1-6.1-2.1-7.2c-3.4-1.6-4.6,5.7-4.6,7.6c0,3.5,0.9,6.9,1.8,10.2c0.4,1.7-2.1,2.2-2.5,0.7
		c-1.2-4.9-2.6-10.9-0.6-16.3c1.1-3,4.4-6.3,7.5-3.8c2.6,2.1,3.4,7,2.3,10.1C435.3,71.4,431.8,73.5,428.9,72.2z"/>
	<path class="st17" d="M441.4,73c-4.9,1.5-2.8-12.8-2.1-14.7c0.2-0.5,0.9-0.4,0.9,0.1c0.1,2.6-0.1,5.3,0.2,7.9
		c0.1,1.6,0.2,4,1.4,5.3C442.2,72.2,442,72.9,441.4,73z"/>
	<path class="st17" d="M448.5,72.9c-0.5,0.7-1.9,0.8-2-0.3c-0.6-4.6-2.1-9-3.3-13.5c-0.2-0.7,0.9-1.2,1.2-0.5
		c1.5,3.4,2.7,7,3.6,10.7c0.8-1.5,1.6-3,2.2-4.6c0.9-2.3,1.1-4.7,1.9-6.9c0.4-1,1.6-0.7,1.7,0.2C454.5,63.1,451.1,68.8,448.5,72.9z"
		/>
	<path class="st17" d="M455.5,70.2c-0.7-1.6-0.1-4.4,1.2-6.5c-0.5-0.2-0.8-0.8-0.5-1.3c0.4-0.6,0.7-1.2,1.1-1.8
		c2.3-3.1,6.5-3.9,8.6-0.1c1.6,3,2.1,7.6,0,10.5C463.7,74.2,457.2,74.3,455.5,70.2z M463.6,60.7c-1.2-1.3-2.5-0.8-3.6,0.2
		c0.8-0.2,1.7,0,2.6,0.7c0.5,0.4-0.2,1.3-0.7,0.9c-2.8-2-7.7,6.7-2.7,8.3c2.7,0.9,5,0.1,5.7-2.9C465.5,65.7,465.3,62.5,463.6,60.7z"
		/>
</g>
<g>
	<path class="st17" d="M534.3,189.9c-0.1-0.1-0.1-0.1-0.2-0.2h0c-0.7-1-1.1-2-1.5-3.1c-0.4,0.8-0.8,1.6-1.5,2.3
		c-1.3,1.4-3.1,2.1-4.5,0.4c-0.6-0.7-1.1-1.7-1.4-2.6c-0.2,3.1-0.5,6.1-0.7,9.2c-0.1,0.8-1.3,0.8-1.2,0c-0.4-6.7,0.6-13.4,0.6-20
		c0-1.3,1.9-1.3,1.9,0c0,3.5,0.3,7.5,1.6,10.8c0.2,0.6,0.5,1.5,1.1,1.8c0.6,0.3,1.5-1.1,1.8-1.4c2.1-3.3,1.4-7.5,1.8-11.2
		c0.1-1.1,1.6-1.1,1.7,0c0.1,3.7-0.6,8.8,1.8,11.9c0.2,0.2,0.4,0.4,0.6,0.7C536.9,189.6,535.2,190.9,534.3,189.9z"/>
	<path class="st17" d="M551.4,177.6c-1.3,0.1-2.7-0.2-4-0.3c0.3,0.3-0.1-0.1,0.2,0.3c0.3,0.3,0.3,0.8,0.4,1.1
		c0.1,1.2,0.1,2.4,0.2,3.6c0.1,2.4-0.1,4.9,0.1,7.3c0.1,1.6-2.3,1.6-2.5,0c0-0.3,0-0.6,0.1-0.9c0.1-2,0.2-4.1,0.3-6.1
		c0.1-1.1,0.1-2.3,0.1-3.5c0-0.4,0.1-0.7,0.1-1.1c0-0.2,0.1-0.3,0.2-0.5c0-0.2,0.1-0.3,0.2-0.4c-0.8-0.1-1.5-0.1-2.3-0.1
		c-0.8,0-1.6,0.1-2.4,0.2c0,1.6-0.4,3.2-0.5,4.7c-0.2,1.7-0.4,3.4-0.3,5.1c0.3,0.8,0.4,1.4,0.4,2.3c-0.1,1.2-2.1,1.7-2.3,0.3
		c-0.4-2.7-0.2-5.3,0.3-8c0.2-1.4,0.6-2.8,0.8-4.2c0,0-0.1,0-0.1,0c-0.9,0.2-1.8,0.7-2.8,0.9c-0.7,0.3-1.1-0.7-0.7-1.2
		c1.6-1.8,4.9-2.2,7.1-2.3c2.3-0.2,5.8-0.5,7.8,1C552.5,176.4,552.3,177.5,551.4,177.6z"/>
	<path class="st17" d="M561.1,189.3c-0.1-1.7,0-3.4-0.2-5.1c-0.1-1.5-0.2-3.8-1.5-4.9c-1.8-1.4-4.1,1.5-4.6,2.9
		c-0.7,2.1-0.6,4.2-0.4,6.4c0.1,0.1,0.1,0.2,0.1,0.4c0,0,0,0.1,0,0.1c0.2,0.6-0.4,1.1-1,1c-1.2-0.3-1.4-2.6-1.4-3.6
		c-0.1-1.6,0-3.3,0.6-4.9c1-2.6,3.2-5.1,6.2-4.8c1.3,0.1,2.3,0.8,2.9,1.7v-0.1c-0.1-1.8-0.3-4-1.1-5.6c-1.2-2.2-3.7-2.9-5.6-1.1
		c-0.6,0.5-1.3-0.3-0.9-0.9c1.3-1.7,3.4-2.3,5.4-1.4c2.1,0.9,3.2,2.8,3.6,5c1.1,5,0.6,9.8,0.1,14.9
		C563.2,190.7,561.2,190.8,561.1,189.3z"/>
	<path class="st17" d="M571.6,190.2c-2.2,0.4-4.6-0.3-5.8-2.4c-1.3-2.3,0.2-4.6,2.3-6.3c-1.1-0.5-2.1-1.5-1.7-2.8
		c1.2-3.4,7.1-5,9.7-2.2c0.5,0.5-0.2,1.2-0.8,0.7c-1.8-1.5-6.2-0.7-7.2,1.5c-0.6,1.3,0.9,1.5,2.3,1.3c0.7-0.4,1.4-0.6,2-0.8
		c0.8-0.2,1.6,0.9,0.9,1.5c-0.6,0.5-1.4,0.9-2.2,1c-2,1.1-4.3,3.1-3.6,4.9c0.8,1.8,3.4,1.8,4.8,0.8c1.3-0.9,2.3-2.1,3.2-3.3
		c0.7-0.9,2.1,0.3,1.5,1.2C575.9,187.2,574.2,189.8,571.6,190.2z"/>
</g>
<g>
	<path class="st17" d="M644,299.5c-1.3,0.1-2.7-0.2-4-0.3c0.3,0.3-0.1-0.1,0.2,0.3c0.3,0.3,0.3,0.8,0.4,1.1c0.1,1.2,0.1,2.4,0.2,3.6
		c0.1,2.4-0.1,4.9,0.1,7.3c0.1,1.6-2.3,1.6-2.5,0c0-0.3,0-0.6,0.1-0.9c0.1-2,0.2-4.1,0.3-6.1c0.1-1.1,0.1-2.3,0.1-3.5
		c0-0.4,0.1-0.7,0.1-1.1c0-0.2,0.1-0.3,0.2-0.5c0-0.2,0.1-0.3,0.2-0.4c-0.8-0.1-1.5-0.1-2.3-0.1c-0.8,0-1.6,0.1-2.4,0.2
		c0,1.6-0.4,3.2-0.5,4.7c-0.2,1.7-0.4,3.4-0.3,5.1c0.3,0.8,0.4,1.4,0.4,2.3c-0.1,1.2-2.1,1.7-2.3,0.3c-0.4-2.7-0.2-5.3,0.3-8
		c0.2-1.4,0.6-2.8,0.8-4.2c0,0-0.1,0-0.1,0c-0.9,0.2-1.8,0.7-2.8,0.9c-0.7,0.3-1.1-0.7-0.7-1.2c1.6-1.8,4.9-2.2,7.1-2.3
		c2.3-0.2,5.8-0.5,7.8,1C645.1,298.4,644.9,299.4,644,299.5z"/>
	<path class="st17" d="M648.1,311.1c-0.1,0-0.1,0-0.2-0.1l0-0.1c-0.4-0.3-0.4-0.9,0.1-1.1c1.4-0.4,2.8-0.1,4-1
		c0.9-0.7,1.4-1.6,1.6-2.7c0.3-2.1,0.1-6.1-2.1-7.2c-3.4-1.6-4.6,5.7-4.6,7.6c0,3.5,0.9,6.9,1.8,10.2c0.4,1.7-2.1,2.2-2.5,0.7
		c-1.2-4.9-2.6-10.9-0.6-16.3c1.1-3,4.4-6.3,7.5-3.8c2.6,2.1,3.4,7,2.3,10.1C654.6,310.3,651,312.5,648.1,311.1z"/>
	<path class="st17" d="M668.4,305.4c0.6,1.9,1.2,3.8,1.8,5.7c0.2,0.9-1,1.4-1.4,0.6c-0.7-1.1-1.2-2.2-1.6-3.4
		c-0.1,0.1-0.2,0.3-0.3,0.4c-1.5,2.5-4.5,4.8-7.5,2.8c-5-3.4-0.2-13,4.1-14.9c0.6-0.2,1.1-0.1,1.4,0.4c1.2,1.8,2.1,3.8,2.8,5.9
		c0.7-2.1,1.2-4.1,1.6-5.2c0.3-0.9,1.6-0.5,1.3,0.4C669.8,300.6,669.3,303.1,668.4,305.4z M663.6,299c-1.6,1.1-2.8,3.1-3.4,4.9
		c-0.6,1.6-1.8,5.1,0.4,6.1c2.6,1.2,4.4-0.9,5.8-3.8C665.6,303.8,664.9,301.3,663.6,299z M665.8,294c-0.6,0.9-2.1,0.1-1.4-0.8
		c0.8-1.2,1.6-2.5,3-3.2c0.8-0.4,1.6,0.6,0.9,1.2C667.4,292,666.6,293,665.8,294z"/>
	<path class="st17" d="M680,299.5c-0.9,0-2-0.2-2.9,0.1c-2.6,0.8-3.3,5-2.5,7.2c0.6,1.4,1.7,2.8,3.3,3.2c1.3,0.3,3.2-0.2,3.5-1.7
		c0.5-2.1-0.4-6.1-2.9-6.8c-0.9-0.2-0.5-1.6,0.4-1.4c3.4,0.6,5.1,5.7,4.4,8.7c-0.9,4.1-6.5,4.3-9,1.6c-3-3.2-3.2-8.5,0-11.7
		c2.4-2.4,6.6-1.5,9.6-1.5c1.1,0,1.2,1.4,0.2,1.8C682.9,299.5,681.5,299.6,680,299.5z"/>
	<path class="st17" d="M689.3,312c-4.9,1.5-2.8-12.8-2.1-14.7c0.2-0.5,0.9-0.4,0.9,0.1c0.1,2.6-0.1,5.3,0.2,7.9
		c0.1,1.6,0.2,4,1.4,5.3C690,311.1,689.8,311.8,689.3,312z"/>
	<path class="st17" d="M696.4,311.8c-0.5,0.7-1.9,0.8-2-0.3c-0.6-4.6-2.1-9-3.3-13.5c-0.2-0.7,0.9-1.2,1.2-0.5
		c1.5,3.4,2.7,7,3.6,10.7c0.8-1.5,1.6-3,2.2-4.6c0.9-2.3,1.1-4.7,1.9-6.9c0.4-1,1.6-0.7,1.7,0.2C702.3,302.1,699,307.7,696.4,311.8z
		"/>
	<path class="st17" d="M703.4,309.1c-0.7-1.6-0.1-4.4,1.2-6.5c-0.5-0.2-0.8-0.8-0.5-1.3c0.4-0.6,0.7-1.2,1.1-1.8
		c2.3-3.1,6.5-3.9,8.6-0.1c1.6,3,2.1,7.6,0,10.5C711.5,313.1,705.1,313.2,703.4,309.1z M711.5,299.7c-1.2-1.3-2.5-0.8-3.6,0.2
		c0.8-0.2,1.7,0,2.6,0.7c0.5,0.4-0.2,1.3-0.7,0.9c-2.8-2-7.7,6.7-2.7,8.3c2.7,0.9,5,0.1,5.7-2.9
		C713.3,304.6,713.1,301.4,711.5,299.7z"/>
</g>
<g>
	<path class="st17" d="M779.9,427.9c-0.1,0-0.1,0-0.2-0.1l0-0.1c-0.4-0.3-0.4-0.9,0.1-1.1c1.4-0.4,2.8-0.1,4-1
		c0.9-0.7,1.4-1.6,1.6-2.7c0.3-2.1,0.1-6.1-2.1-7.2c-3.4-1.6-4.6,5.7-4.6,7.6c0,3.5,0.9,6.9,1.8,10.2c0.4,1.7-2.1,2.2-2.5,0.7
		c-1.2-4.9-2.6-10.9-0.6-16.3c1.1-3,4.4-6.3,7.5-3.8c2.6,2.1,3.4,7,2.3,10.1C786.4,427.1,782.8,429.2,779.9,427.9z"/>
	<path class="st17" d="M789.6,425.8c-0.7-1.6-0.1-4.4,1.2-6.5c-0.5-0.2-0.8-0.8-0.5-1.3c0.4-0.6,0.7-1.2,1.1-1.8
		c2.3-3.1,6.5-3.9,8.6-0.1c1.6,3,2.1,7.6,0,10.5C797.7,429.9,791.3,430,789.6,425.8z M797.7,416.4c-1.2-1.3-2.5-0.8-3.6,0.2
		c0.8-0.2,1.7,0,2.6,0.7c0.5,0.4-0.2,1.3-0.7,0.9c-2.8-2-7.7,6.7-2.7,8.3c2.7,0.9,5,0.1,5.7-2.9
		C799.5,421.4,799.3,418.2,797.7,416.4z"/>
	<path class="st17" d="M804.7,433.5c-2.7-2.5-1.8-6.7,0.7-8.9c0.7-0.6,1.6,0.3,1.1,1.1c-1.1,1.3-1.8,3.4-1.2,5.1
		c0.6,1.6,2.2,2.2,3.8,1.7c4.5-1.3,3.7-6.3,1.4-9.3c-2.1-2.7-6.4-4.8-6-8.7c0.2-1.7,1.4-3.1,2.9-4.2c-0.1,0-0.2,0-0.4,0
		c-0.9,0-3.3,0.1-3.6-1.1c-0.1-0.5,0.6-0.8,0.8-0.4c0.3,0.6,4.1,0,4.7-0.1c1.1-0.1,2.1-0.2,3.2-0.3c0.4,0,0.8-0.1,1.1,0
		c1,0,1,1.6,0,1.6c-2.3,0-7.8,2.3-6.9,5.4c0.7,2.3,3.1,3.6,4.7,5.3c2.4,2.6,4.5,7,2.8,10.5C812.3,434.2,807.4,436,804.7,433.5z"/>
</g>
<g>
	<path class="st17" d="M534.9,428.8c-0.9-2-2.3-3.4-3.8-4.9c-0.7-0.7-1.6-1.6-2.2-2.6c-1.1,2-2.2,4.2-2.3,6.4
		c-0.1,1.1-1.5,1.2-1.8,0.3c-0.8-2.3-0.9-4.8-0.7-7.2c0.2-2.4,0.4-5,1.3-7.2c0.2-0.4,0.7-0.4,0.8,0.1c0.2,2.3-0.4,4.7-0.5,7.1
		c0,0.8,0,1.7,0,2.5c0.7-1.8,1.7-3.4,2.7-4.8c1.8-2.4,4.6-5.5,8-4.7c0.7,0.2,0.8,1.4,0,1.5c-2.8,0.4-4.8,2.1-6.4,4.3
		c1.1,1.5,2.5,2.6,3.9,3.8c1.4,1.3,2.7,2.9,2.6,4.9C536.5,429.1,535.3,429.6,534.9,428.8z"/>
	<path class="st17" d="M549.4,422.2c0.6,1.9,1.2,3.8,1.7,5.7c0.2,0.9-0.9,1.4-1.4,0.6c-0.7-1.1-1.2-2.2-1.6-3.4
		c-0.1,0.1-0.2,0.3-0.3,0.4c-1.5,2.5-4.5,4.8-7.5,2.8c-5-3.4-0.2-13,4.1-14.9c0.5-0.2,1.1-0.1,1.4,0.4c1.2,1.8,2.1,3.8,2.8,5.9
		c0.7-2.1,1.2-4.1,1.6-5.2c0.3-0.9,1.6-0.5,1.3,0.4C550.8,417.4,550.3,419.9,549.4,422.2z M544.7,415.8c-1.6,1.1-2.8,3.1-3.4,4.9
		c-0.6,1.6-1.8,5.1,0.4,6.1c2.6,1.2,4.4-0.9,5.7-3.8C546.6,420.6,546,418.1,544.7,415.8z"/>
	<path class="st17" d="M564,427.5c-1,0.8-2.1,1.3-3.2,1.5c0.2,1.8,0.4,3.7,0.6,5.5c0.1,1.4-1.9,1.5-2.3,0.3
		c-0.6-1.8-0.8-3.8-0.9-5.8c-2.4-0.5-4.4-2.3-5.1-5.3c-1.2-5.2,1.5-10.5,6.9-11.6c0.8-0.1,1.1,1,0.3,1.2c-4.6,1.3-6.9,6.2-5.1,10.6
		c0.6,1.5,1.6,2.4,2.8,2.8c-0.1-2.9,0-6,1.1-8.6c1-2.3,3.4-4,6-3.1C570,416.6,566.7,425.5,564,427.5z M562.7,417.6
		c-0.9,0.5-1.3,1.5-1.5,2.5c-0.6,2.2-0.7,4.4-0.5,6.7c1.3-0.4,2.6-1.4,3.3-3c0.7-1.5,1.9-4.5,0.9-6.1
		C564.4,417,563.2,417.2,562.7,417.6z"/>
	<path class="st17" d="M575.3,428.9c-2.2,0.4-4.6-0.3-5.8-2.4c-1.3-2.3,0.2-4.6,2.3-6.3c-1.1-0.5-2.1-1.5-1.7-2.8
		c1.2-3.4,7.1-5,9.7-2.2c0.5,0.5-0.2,1.2-0.8,0.7c-1.8-1.5-6.2-0.7-7.2,1.5c-0.6,1.3,0.9,1.5,2.3,1.3c0.7-0.4,1.4-0.6,2-0.8
		c0.8-0.2,1.6,0.9,0.9,1.5c-0.6,0.5-1.4,0.9-2.2,1c-2,1.1-4.3,3.1-3.6,4.9c0.8,1.8,3.4,1.8,4.8,0.8c1.3-0.9,2.3-2.1,3.2-3.3
		c0.7-0.9,2.1,0.3,1.5,1.2C579.6,425.9,577.9,428.5,575.3,428.9z M576.4,410.8c-0.6,0.9-2.1,0.1-1.4-0.8c0.8-1.2,1.6-2.5,3-3.2
		c0.8-0.4,1.6,0.6,0.9,1.2C578,408.8,577.2,409.7,576.4,410.8z"/>
</g>
<g>
	<path class="st17" d="M639,540.9c0,0.1,0.1,0.1,0.1,0.2c2.1,2.5,3.4,5.3,3.6,8.6c0.1,2.4-0.4,5.1-2.8,6.1c-1.8,0.8-4.5,0.3-6-1
		c-2.9-2.5-0.7-7.3,0.7-10c0.6-1.2,1.3-2.3,2.1-3.4c-0.7-0.8-1.5-1.6-2.2-2.4c-0.3-0.4-1.2-1.7-1.7-1.8c-0.5-0.1-0.5-0.8,0-1
		c0.9-0.3,1.9,0.9,2.5,1.4c0.8,0.8,1.7,1.5,2.5,2.3c0.2-0.3,0.4-0.6,0.6-0.8c1-1.3,2.1-2.8,3.5-3.5c0.6-0.3,1.3,0.5,0.8,1
		C641.5,537.9,640.2,539.3,639,540.9z M637.8,542.6c-0.1,0.2-0.3,0.5-0.5,0.7c-1.4,2.3-3.9,6.1-3,9c0.5,1.5,2,1.9,3.5,1.8
		c2.6-0.3,2.9-2.7,2.7-4.9C640.2,546.7,639.3,544.6,637.8,542.6z"/>
	<path class="st17" d="M655.4,544.2c0.6,1.9,1.2,3.8,1.7,5.7c0.2,0.9-0.9,1.4-1.4,0.6c-0.7-1.1-1.2-2.2-1.6-3.4
		c-0.1,0.1-0.2,0.3-0.3,0.4c-1.5,2.5-4.5,4.8-7.5,2.8c-5-3.4-0.2-13,4.1-14.9c0.5-0.2,1.1-0.1,1.4,0.4c1.2,1.8,2.1,3.8,2.8,5.9
		c0.7-2.1,1.2-4.1,1.6-5.2c0.3-0.9,1.6-0.5,1.3,0.4C656.8,539.3,656.3,541.8,655.4,544.2z M650.6,537.8c-1.6,1.1-2.8,3.1-3.4,4.9
		c-0.6,1.6-1.8,5.1,0.4,6.1c2.6,1.2,4.4-0.9,5.7-3.8C652.6,542.5,651.9,540,650.6,537.8z"/>
	<path class="st17" d="M668,550c-0.1-1.7,0-3.4-0.2-5.1c-0.1-1.5-0.2-3.8-1.5-4.9c-1.8-1.4-4.1,1.5-4.5,2.9
		c-0.7,2.1-0.6,4.2-0.4,6.4c0.1,0.1,0.1,0.2,0.1,0.4c0,0,0,0.1,0,0.1c0.2,0.6-0.4,1.1-1,1c-1.2-0.3-1.4-2.6-1.4-3.6
		c-0.1-1.6,0-3.3,0.6-4.9c1-2.6,3.2-5.1,6.2-4.8c1.3,0.1,2.3,0.8,2.9,1.7v-0.1c-0.1-1.8-0.3-4-1.1-5.6c-1.2-2.2-3.7-2.9-5.6-1.1
		c-0.6,0.5-1.3-0.3-0.9-0.9c1.3-1.7,3.4-2.3,5.4-1.4c2.1,0.9,3.2,2.8,3.6,5c1.1,5,0.6,9.8,0.1,14.9C670.1,551.4,668.1,551.4,668,550
		z"/>
	<path class="st17" d="M683.4,544.2c0.6,1.9,1.2,3.8,1.8,5.7c0.2,0.9-1,1.4-1.4,0.6c-0.7-1.1-1.2-2.2-1.6-3.4
		c-0.1,0.1-0.2,0.3-0.3,0.4c-1.5,2.5-4.5,4.8-7.5,2.8c-5-3.4-0.2-13,4.1-14.9c0.6-0.2,1.1-0.1,1.4,0.4c1.2,1.8,2.1,3.8,2.8,5.9
		c0.7-2.1,1.2-4.1,1.6-5.2c0.3-0.9,1.6-0.5,1.4,0.4C684.8,539.3,684.2,541.8,683.4,544.2z M678.6,537.8c-1.6,1.1-2.8,3.1-3.4,4.9
		c-0.6,1.6-1.8,5.1,0.4,6.1c2.6,1.2,4.4-0.9,5.8-3.8C680.6,542.5,679.9,540,678.6,537.8z M680.8,532.7c-0.6,0.9-2.1,0.1-1.4-0.8
		c0.8-1.2,1.6-2.5,3-3.2c0.8-0.4,1.6,0.6,0.9,1.2C682.3,530.7,681.5,531.7,680.8,532.7z"/>
	<path class="st17" d="M688.7,555.4c-2.7-2.5-1.8-6.7,0.7-8.9c0.7-0.6,1.6,0.3,1.1,1.1c-1.1,1.3-1.8,3.4-1.2,5.1
		c0.6,1.6,2.2,2.2,3.8,1.7c4.5-1.3,3.7-6.3,1.4-9.3c-2.1-2.7-6.4-4.8-6-8.7c0.2-1.7,1.4-3.1,2.9-4.2c-0.1,0-0.2,0-0.4,0
		c-0.9,0-3.3,0.1-3.6-1.1c-0.1-0.5,0.6-0.8,0.8-0.4c0.3,0.6,4.1,0,4.7-0.1c1.1-0.1,2.1-0.2,3.2-0.3c0.4,0,0.8-0.1,1.1,0
		c1,0,1,1.6,0,1.6c-2.3,0-7.8,2.3-6.9,5.4c0.7,2.3,3.1,3.6,4.7,5.3c2.4,2.6,4.5,7,2.8,10.5C696.3,556.1,691.4,558,688.7,555.4z"/>
	<path class="st17" d="M703.3,550.7c-4.9,1.5-2.8-12.8-2.1-14.7c0.2-0.5,0.9-0.4,0.9,0.1c0.1,2.6-0.1,5.3,0.2,7.9
		c0.1,1.6,0.2,4,1.4,5.3C704.1,549.8,703.9,550.5,703.3,550.7z"/>
	<path class="st17" d="M705.7,547.8c-0.7-1.6-0.1-4.4,1.2-6.5c-0.5-0.2-0.8-0.8-0.5-1.3c0.4-0.6,0.7-1.2,1.1-1.8
		c2.3-3.1,6.5-3.9,8.6-0.1c1.6,3,2.1,7.6,0,10.5C713.9,551.8,707.4,551.9,705.7,547.8z M713.8,538.4c-1.2-1.3-2.5-0.8-3.6,0.2
		c0.8-0.2,1.7,0,2.6,0.7c0.5,0.4-0.2,1.3-0.7,0.9c-2.8-2-7.7,6.7-2.7,8.3c2.7,0.9,5,0.1,5.7-2.9
		C715.7,543.3,715.4,540.1,713.8,538.4z"/>
</g>
<g>
	<path class="st17" d="M269.2,550.6c-0.1-0.1-0.1-0.1-0.2-0.2h0c-0.7-1-1.1-2-1.5-3.1c-0.4,0.8-0.8,1.6-1.5,2.3
		c-1.3,1.4-3.1,2.1-4.6,0.4c-0.6-0.7-1.1-1.7-1.4-2.6c-0.2,3.1-0.5,6.1-0.7,9.2c-0.1,0.8-1.3,0.8-1.2,0c-0.4-6.7,0.6-13.4,0.6-20
		c0-1.3,1.9-1.3,1.9,0c0,3.5,0.3,7.5,1.6,10.8c0.2,0.6,0.5,1.5,1.1,1.8c0.6,0.3,1.5-1.1,1.8-1.4c2.1-3.3,1.4-7.5,1.8-11.2
		c0.1-1.1,1.6-1.1,1.7,0c0.1,3.7-0.6,8.8,1.8,11.9c0.2,0.2,0.4,0.4,0.6,0.7C271.7,550.2,270,551.6,269.2,550.6z"/>
	<path class="st17" d="M286.3,538.2c-1.3,0.1-2.7-0.2-4-0.3c0.3,0.3-0.1-0.1,0.2,0.3c0.3,0.3,0.3,0.8,0.4,1.1
		c0.1,1.2,0.1,2.4,0.2,3.6c0.1,2.4-0.1,4.9,0.1,7.3c0.1,1.6-2.3,1.6-2.5,0c0-0.3,0-0.6,0.1-0.9c0.1-2,0.2-4.1,0.3-6.1
		c0.1-1.1,0.1-2.3,0.1-3.5c0-0.4,0.1-0.7,0.1-1.1c0-0.2,0.1-0.3,0.2-0.5c0-0.2,0.1-0.3,0.2-0.4c-0.8-0.1-1.5-0.1-2.3-0.1
		c-0.8,0-1.6,0.1-2.4,0.2c0,1.6-0.4,3.2-0.5,4.7c-0.2,1.7-0.4,3.4-0.3,5.1c0.3,0.8,0.4,1.4,0.4,2.3c-0.1,1.2-2.1,1.7-2.3,0.3
		c-0.4-2.7-0.2-5.3,0.3-8c0.2-1.4,0.6-2.8,0.8-4.2c0,0-0.1,0-0.1,0c-0.9,0.2-1.8,0.7-2.8,0.9c-0.7,0.3-1.1-0.7-0.7-1.2
		c1.6-1.8,4.9-2.2,7.1-2.3c2.3-0.2,5.8-0.5,7.8,1C287.3,537.1,287.1,538.1,286.3,538.2z"/>
	<path class="st17" d="M287.3,547.8c-0.7-1.6-0.1-4.4,1.2-6.5c-0.5-0.2-0.8-0.8-0.5-1.3c0.4-0.6,0.7-1.2,1.1-1.8
		c2.3-3.1,6.5-3.9,8.6-0.1c1.6,3,2.1,7.6,0,10.5C295.4,551.8,289,551.9,287.3,547.8z M295.3,538.4c-1.2-1.3-2.5-0.8-3.6,0.2
		c0.8-0.2,1.7,0,2.6,0.7c0.5,0.4-0.2,1.3-0.7,0.9c-2.8-2-7.7,6.7-2.7,8.3c2.7,0.9,5,0.1,5.7-2.9C297.2,543.3,297,540.1,295.3,538.4z
		"/>
	<path class="st17" d="M304.2,549.9c-0.1,0-0.1,0-0.2-0.1l0-0.1c-0.4-0.3-0.4-0.9,0.1-1.1c1.4-0.4,2.8-0.1,4-1
		c0.9-0.7,1.4-1.6,1.6-2.7c0.3-2.1,0.1-6.1-2.1-7.2c-3.4-1.6-4.6,5.7-4.6,7.6c0,3.5,0.9,6.9,1.8,10.2c0.4,1.7-2.1,2.2-2.5,0.7
		c-1.2-4.9-2.6-10.9-0.6-16.3c1.1-3,4.4-6.3,7.5-3.8c2.6,2.1,3.4,7,2.3,10.1C310.6,549,307,551.2,304.2,549.9z"/>
	<path class="st17" d="M318.5,550.6c-0.5,0.7-1.9,0.8-2-0.3c-0.6-4.6-2.1-9-3.3-13.5c-0.2-0.7,0.9-1.2,1.2-0.5
		c1.5,3.4,2.7,7,3.6,10.7c0.8-1.5,1.6-3,2.2-4.6c0.9-2.3,1.1-4.7,1.9-6.9c0.4-1,1.6-0.7,1.7,0.2
		C324.5,540.8,321.1,546.4,318.5,550.6z"/>
	<path class="st17" d="M331.3,549.2c1,1.1-0.6,2.8-1.7,1.7c-3.6-3.3-2.9-9.3,0.2-12.7c-1.6,0.1-3.1,0-4.7-0.5
		c-0.9-0.3-0.5-1.5,0.2-1.5c2.6,0.2,6.2-0.3,8.7-0.6c0.5-0.1,1-0.1,1.6-0.1c1.4,0,1.4,2.1,0,2.2
		C330.1,537.8,327.9,545.4,331.3,549.2z"/>
	<path class="st17" d="M351,550.3c-2.5,1.9-4.6,0.4-5.9-2c-0.9,1.4-2.3,2.6-4,2.5c-2.9-0.2-4-4-4-6.3c0-3,0.7-6.7,3.2-8.5
		c0.7-0.5,1.3,0.5,0.8,1.1c-1.5,1.9-2.2,4.5-2.1,7c0.1,1.1,0.4,4.8,2.2,4.6c0.9-0.1,2-1.6,2.6-3.1c-0.5-1.7-0.6-3.5-0.2-4.6
		c0.3-0.9,1.3-1.1,2.1-0.6c1.4,1.1,1.1,3.3,0.6,5c0.1,0.4,0.3,0.8,0.5,1.2c0.6,1.2,2,3.2,3,1.2c1.4-2.5,1.5-7.9-0.5-10.2
		c-1-1.1,0.5-2.6,1.6-1.6c1.9,1.6,2.3,4.8,2.3,7.1C353.3,545.5,353,548.7,351,550.3z M347.5,532.7c-0.6,0.9-2.1,0.1-1.4-0.8
		c0.8-1.2,1.6-2.5,3-3.2c0.8-0.4,1.6,0.6,0.9,1.2C349,530.7,348.2,531.7,347.5,532.7z"/>
</g>
<g>
	<path class="st17" d="M148.3,300.1c-1.1,0-2.2-0.1-3.3-0.3c0.2,0.3-0.1-0.1,0.2,0.2c0.2,0.2,0.3,0.6,0.3,0.9c0.1,1,0.1,2,0.1,3
		c0,2,0,4,0,6c0,1.3-1.9,1.3-2,0c0-0.3,0-0.5,0-0.7c0.1-1.7,0.1-3.3,0.2-5c0-0.9,0-1.9,0.1-2.9c0-0.3,0.1-0.6,0.1-0.9
		c0-0.1,0.1-0.3,0.1-0.4c0-0.1,0.1-0.3,0.2-0.3c-0.6-0.1-1.2-0.1-1.9-0.1c-0.6,0-1.3,0.1-2,0.1c0,1.3-0.3,2.6-0.4,3.8
		c-0.2,1.4-0.3,2.8-0.2,4.2c0.3,0.7,0.4,1.2,0.3,1.9c-0.1,1-1.7,1.4-1.9,0.2c-0.3-2.2-0.1-4.4,0.3-6.5c0.2-1.2,0.5-2.3,0.7-3.4
		c0,0-0.1,0-0.1,0c-0.8,0.2-1.5,0.6-2.3,0.7c-0.6,0.2-0.9-0.6-0.6-1c1.3-1.4,4-1.8,5.8-1.9c1.9-0.1,4.8-0.4,6.4,0.8
		C149.2,299.2,149,300,148.3,300.1z"/>
	<path class="st17" d="M149.1,308c-0.6-1.3,0-3.6,1-5.4c-0.4-0.2-0.6-0.6-0.4-1.1c0.3-0.5,0.6-1,0.9-1.5c1.9-2.5,5.3-3.2,7-0.1
		c1.3,2.4,1.7,6.2,0,8.6C155.8,311.2,150.5,311.3,149.1,308z M155.7,300.2c-1-1-2-0.6-2.9,0.1c0.7-0.1,1.4,0,2.1,0.6
		c0.4,0.3-0.1,1-0.6,0.7c-2.3-1.6-6.3,5.5-2.2,6.8c2.2,0.7,4.1,0,4.7-2.4C157.2,304.3,157,301.7,155.7,300.2z"/>
	<path class="st17" d="M162.9,309.6c0,0-0.1,0-0.1,0l0,0c-0.3-0.2-0.3-0.7,0.1-0.9c1.1-0.3,2.3-0.1,3.3-0.8c0.8-0.6,1.2-1.3,1.3-2.2
		c0.2-1.7,0.1-5-1.7-5.9c-2.8-1.3-3.8,4.7-3.8,6.3c0,2.9,0.7,5.6,1.4,8.4c0.4,1.4-1.7,1.8-2,0.6c-1-4-2.1-8.9-0.5-13.4
		c0.9-2.4,3.6-5.2,6.2-3.1c2.1,1.7,2.8,5.8,1.9,8.2C168.2,308.9,165.3,310.7,162.9,309.6z"/>
	<path class="st17" d="M175.5,309.1c0.8,0.9-0.5,2.3-1.4,1.4c-2.9-2.7-2.4-7.6,0.2-10.4c-1.3,0-2.5,0-3.8-0.4
		c-0.7-0.2-0.4-1.3,0.2-1.2c2.1,0.1,5.1-0.2,7.1-0.5c0.4-0.1,0.8-0.1,1.3-0.1c1.2,0,1.2,1.7,0,1.8
		C174.5,299.8,172.8,306,175.5,309.1z"/>
	<path class="st17" d="M180.5,308c-0.6-1.3,0-3.6,1-5.4c-0.4-0.2-0.6-0.6-0.4-1.1c0.3-0.5,0.6-1,0.9-1.5c1.9-2.5,5.3-3.2,7-0.1
		c1.3,2.4,1.7,6.2,0,8.6C187.2,311.2,181.9,311.3,180.5,308z M187.1,300.2c-1-1-2-0.6-2.9,0.1c0.7-0.1,1.4,0,2.1,0.6
		c0.4,0.3-0.1,1-0.6,0.7c-2.3-1.6-6.3,5.5-2.2,6.8c2.2,0.7,4.1,0,4.7-2.4C188.6,304.3,188.5,301.7,187.1,300.2z"/>
	<path class="st17" d="M200.4,310.4c-0.7-1.7-1.9-2.8-3.2-4c-0.6-0.6-1.3-1.3-1.8-2.1c-0.9,1.6-1.8,3.4-1.9,5.3c0,0.9-1.2,1-1.5,0.2
		c-0.6-1.9-0.7-3.9-0.6-5.9c0.2-1.9,0.4-4.1,1.1-5.9c0.1-0.3,0.6-0.3,0.6,0.1c0.2,1.9-0.3,3.9-0.4,5.8c0,0.7,0,1.4,0,2
		c0.6-1.4,1.4-2.8,2.2-4c1.4-2,3.8-4.5,6.5-3.9c0.6,0.1,0.6,1.1,0,1.2c-2.3,0.3-4,1.7-5.2,3.5c0.9,1.2,2,2.1,3.2,3.1
		c1.2,1.1,2.2,2.4,2.1,4C201.7,310.6,200.7,311.1,200.4,310.4z"/>
	<path class="st17" d="M212.3,305c0.5,1.5,1,3.1,1.4,4.7c0.2,0.7-0.8,1.1-1.2,0.5c-0.6-0.9-1-1.8-1.3-2.8c-0.1,0.1-0.1,0.2-0.2,0.4
		c-1.3,2.1-3.7,4-6.1,2.3c-4.1-2.8-0.2-10.6,3.4-12.2c0.4-0.2,0.9-0.1,1.2,0.3c1,1.5,1.7,3.2,2.3,4.8c0.6-1.7,1-3.4,1.3-4.3
		c0.2-0.7,1.3-0.4,1.1,0.3C213.4,301,213,303,212.3,305z M208.3,299.7c-1.3,0.9-2.3,2.6-2.8,4c-0.5,1.3-1.4,4.2,0.4,5
		c2.1,1,3.6-0.7,4.7-3.1C210,303.6,209.4,301.6,208.3,299.7z"/>
	<path class="st17" d="M222.6,309.7c-0.1-1.4,0-2.8-0.1-4.2c-0.1-1.2-0.2-3.2-1.2-4c-1.4-1.2-3.3,1.2-3.7,2.4
		c-0.6,1.7-0.5,3.4-0.4,5.2c0,0.1,0.1,0.2,0.1,0.3c0,0,0,0,0,0.1c0.2,0.5-0.4,0.9-0.8,0.8c-1-0.2-1.1-2.1-1.2-2.9
		c-0.1-1.3,0-2.7,0.5-4c0.8-2.1,2.6-4.2,5.1-4c1.1,0.1,1.9,0.6,2.4,1.4v-0.1c-0.1-1.4-0.2-3.3-0.9-4.6c-1-1.8-3-2.4-4.6-0.9
		c-0.5,0.4-1.1-0.2-0.7-0.7c1.1-1.4,2.8-1.9,4.4-1.2c1.7,0.7,2.6,2.3,3,4.1c0.9,4.1,0.5,8.1,0.1,12.2
		C224.3,310.9,222.6,310.9,222.6,309.7z"/>
	<path class="st17" d="M228.8,310.3c-4,1.2-2.3-10.5-1.8-12c0.1-0.4,0.7-0.3,0.7,0.1c0.1,2.2,0,4.4,0.1,6.5c0.1,1.3,0.2,3.3,1.2,4.4
		C229.4,309.6,229.3,310.2,228.8,310.3z M227.7,295.6c-0.5,0.7-1.7,0-1.2-0.7c0.6-1,1.3-2.1,2.5-2.6c0.6-0.3,1.3,0.5,0.8,1
		C229,294,228.3,294.8,227.7,295.6z"/>
</g>
<g>
	<path class="st17" d="M292,419c0,0.1,0.1,0.1,0.1,0.2c2.1,2.5,3.4,5.3,3.6,8.6c0.1,2.4-0.4,5.1-2.8,6.1c-1.8,0.8-4.5,0.3-6-1
		c-2.9-2.5-0.7-7.3,0.7-10c0.6-1.2,1.3-2.3,2.1-3.4c-0.7-0.8-1.5-1.6-2.2-2.4c-0.3-0.4-1.2-1.7-1.7-1.8c-0.5-0.1-0.5-0.8,0-1
		c0.9-0.3,1.9,0.9,2.5,1.4c0.8,0.8,1.7,1.5,2.5,2.3c0.2-0.3,0.4-0.6,0.6-0.8c1-1.3,2.1-2.8,3.5-3.5c0.6-0.3,1.3,0.5,0.8,1
		C294.4,416,293.1,417.4,292,419z M290.8,420.7c-0.1,0.2-0.3,0.5-0.5,0.7c-1.4,2.3-3.9,6.1-3,9c0.5,1.5,2,1.9,3.5,1.8
		c2.6-0.3,2.9-2.7,2.7-4.9C293.2,424.8,292.2,422.6,290.8,420.7z"/>
	<path class="st17" d="M308.3,428.8c-0.9-2-2.3-3.4-3.8-4.9c-0.7-0.7-1.6-1.6-2.2-2.6c-1.1,2-2.2,4.2-2.3,6.4
		c-0.1,1.1-1.5,1.2-1.8,0.3c-0.8-2.3-0.9-4.8-0.7-7.2c0.2-2.4,0.4-5,1.3-7.2c0.2-0.4,0.7-0.4,0.8,0.1c0.2,2.3-0.4,4.7-0.5,7.1
		c0,0.8,0,1.7,0,2.5c0.7-1.8,1.7-3.4,2.7-4.8c1.8-2.4,4.6-5.5,8-4.7c0.7,0.2,0.8,1.4,0,1.5c-2.8,0.4-4.8,2.1-6.4,4.3
		c1.1,1.5,2.5,2.6,3.9,3.8s2.7,2.9,2.6,4.9C309.9,429.1,308.7,429.6,308.3,428.8z"/>
	<path class="st17" d="M315.4,427.9c-0.1,0-0.1,0-0.2-0.1l0-0.1c-0.4-0.3-0.4-0.9,0.1-1.1c1.4-0.4,2.8-0.1,4-1
		c0.9-0.7,1.4-1.6,1.6-2.7c0.3-2.1,0.1-6.1-2.1-7.2c-3.4-1.6-4.6,5.7-4.6,7.6c0,3.5,0.9,6.9,1.8,10.2c0.4,1.7-2.1,2.2-2.5,0.7
		c-1.2-4.9-2.6-10.9-0.6-16.3c1.1-3,4.4-6.3,7.5-3.8c2.6,2.1,3.4,7,2.3,10.1C321.8,427.1,318.2,429.2,315.4,427.9z"/>
	<path class="st17" d="M327.9,428.7c-4.9,1.5-2.8-12.8-2.1-14.7c0.2-0.5,0.9-0.4,0.9,0.1c0.1,2.6-0.1,5.3,0.2,7.9
		c0.1,1.6,0.2,4,1.4,5.3C328.6,427.8,328.5,428.6,327.9,428.7z"/>
</g>
<g>
	<path class="st17" d="M765.6,73.1c-0.9-2-2.3-3.4-3.8-4.9c-0.7-0.7-1.6-1.6-2.2-2.6c-1.1,2-2.2,4.2-2.3,6.4
		c-0.1,1.1-1.5,1.2-1.8,0.3c-0.8-2.3-0.9-4.8-0.7-7.2c0.2-2.4,0.4-5,1.3-7.2c0.2-0.4,0.7-0.4,0.8,0.1c0.2,2.3-0.4,4.7-0.5,7.1
		c0,0.8,0,1.7,0,2.5c0.7-1.8,1.7-3.4,2.7-4.8c1.8-2.4,4.6-5.5,8-4.7c0.7,0.2,0.8,1.4,0,1.5c-2.8,0.4-4.8,2.1-6.4,4.3
		c1.1,1.5,2.5,2.6,3.9,3.8c1.4,1.3,2.7,2.9,2.6,4.9C767.1,73.5,765.9,73.9,765.6,73.1z"/>
	<path class="st17" d="M769.5,70.2c-0.7-1.6-0.1-4.4,1.2-6.5c-0.5-0.2-0.8-0.8-0.5-1.3c0.4-0.6,0.7-1.2,1.1-1.8
		c2.3-3.1,6.5-3.9,8.6-0.1c1.6,3,2.1,7.6,0,10.5C777.7,74.2,771.2,74.3,769.5,70.2z M777.6,60.7c-1.2-1.3-2.5-0.8-3.6,0.2
		c0.8-0.2,1.7,0,2.6,0.7c0.5,0.4-0.2,1.3-0.7,0.9c-2.8-2-7.7,6.7-2.7,8.3c2.7,0.9,5,0.1,5.7-2.9C779.4,65.7,779.2,62.5,777.6,60.7z
		 M778.2,55.1c-0.6,0.9-2.1,0.1-1.4-0.8c0.8-1.2,1.6-2.5,3-3.2c0.8-0.4,1.6,0.6,0.9,1.2C779.7,53.1,778.9,54,778.2,55.1z"/>
	<path class="st17" d="M793.8,73.1c-0.9-2-2.3-3.4-3.8-4.9c-0.7-0.7-1.6-1.6-2.2-2.6c-1.1,2-2.2,4.2-2.3,6.4
		c-0.1,1.1-1.5,1.2-1.8,0.3c-0.8-2.3-0.9-4.8-0.7-7.2c0.2-2.4,0.4-5,1.3-7.2c0.2-0.4,0.7-0.4,0.8,0.1c0.2,2.3-0.4,4.7-0.5,7.1
		c0,0.8,0,1.7,0,2.5c0.7-1.8,1.7-3.4,2.7-4.8c1.8-2.4,4.6-5.5,8-4.7c0.7,0.2,0.8,1.4,0,1.5c-2.8,0.4-4.8,2.1-6.4,4.3
		c1.1,1.5,2.5,2.6,3.9,3.8c1.4,1.3,2.7,2.9,2.6,4.9C795.4,73.5,794.2,73.9,793.8,73.1z"/>
	<path class="st17" d="M808.2,73.1c-0.9-2-2.3-3.4-3.8-4.9c-0.7-0.7-1.6-1.6-2.2-2.6c-1.1,2-2.2,4.2-2.3,6.4
		c-0.1,1.1-1.5,1.2-1.8,0.3c-0.8-2.3-0.9-4.8-0.7-7.2c0.2-2.4,0.4-5,1.3-7.2c0.2-0.4,0.7-0.4,0.8,0.1c0.2,2.3-0.4,4.7-0.5,7.1
		c0,0.8,0,1.7,0,2.5c0.7-1.8,1.7-3.4,2.7-4.8c1.8-2.4,4.6-5.5,8-4.7c0.7,0.2,0.8,1.4,0,1.5c-2.8,0.4-4.8,2.1-6.4,4.3
		c1.1,1.5,2.5,2.6,3.9,3.8c1.4,1.3,2.7,2.9,2.6,4.9C809.8,73.5,808.6,73.9,808.2,73.1z"/>
	<path class="st17" d="M815.1,73c-4.9,1.5-2.8-12.8-2.1-14.7c0.2-0.5,0.9-0.4,0.9,0.1c0.1,2.6-0.1,5.3,0.2,7.9
		c0.1,1.6,0.2,4,1.4,5.3C815.8,72.2,815.7,72.9,815.1,73z"/>
	<path class="st17" d="M822.2,72.9c-0.5,0.7-1.9,0.8-2-0.3c-0.6-4.6-2.1-9-3.3-13.5c-0.2-0.7,0.9-1.2,1.2-0.5
		c1.5,3.4,2.7,7,3.6,10.7c0.8-1.5,1.6-3,2.2-4.6c0.9-2.3,1.1-4.7,1.9-6.9c0.4-1,1.6-0.7,1.7,0.2C828.2,63.1,824.8,68.8,822.2,72.9z"
		/>
	<path class="st17" d="M829.2,70.2c-0.7-1.6-0.1-4.4,1.2-6.5c-0.5-0.2-0.8-0.8-0.5-1.3c0.4-0.6,0.7-1.2,1.1-1.8
		c2.3-3.1,6.5-3.9,8.6-0.1c1.6,3,2.1,7.6,0,10.5C837.4,74.2,830.9,74.3,829.2,70.2z M837.3,60.7c-1.2-1.3-2.5-0.8-3.6,0.2
		c0.8-0.2,1.7,0,2.6,0.7c0.5,0.4-0.2,1.3-0.7,0.9c-2.8-2-7.7,6.7-2.7,8.3c2.7,0.9,5,0.1,5.7-2.9C839.2,65.7,838.9,62.5,837.3,60.7z"
		/>
</g>
</svg>
