<?xml version="1.0" encoding="UTF-8" standalone="no"?>
<!-- Generator: Adobe Illustrator 27.4.0, SVG Export Plug-In . SVG Version: 6.00 Build 0)  -->

<svg
   version="1.1"
   id="Layer_1"
   x="0px"
   y="0px"
   viewBox="0 0 857.49823 481.59821"
   xml:space="preserve"
   sodipodi:docname="dice.svg"
   inkscape:version="1.2.2 (732a01da63, 2022-12-09)"
   width="857.49823"
   height="481.59821"
   xmlns:inkscape="http://www.inkscape.org/namespaces/inkscape"
   xmlns:sodipodi="http://sodipodi.sourceforge.net/DTD/sodipodi-0.dtd"
   xmlns="http://www.w3.org/2000/svg"
   xmlns:svg="http://www.w3.org/2000/svg"><defs
   id="defs1346">
	
	
	
	
	
	
	
	
	
	
	
	
	
	
	
	
	
	
	
	
	
	
	
	
	
	
	
	
	
	
	
	
	
	
	
</defs><sodipodi:namedview
   id="namedview1344"
   pagecolor="#ffffff"
   bordercolor="#000000"
   borderopacity="0.25"
   inkscape:showpageshadow="2"
   inkscape:pageopacity="0.0"
   inkscape:pagecheckerboard="0"
   inkscape:deskcolor="#d1d1d1"
   showgrid="false"
   inkscape:zoom="0.87354409"
   inkscape:cx="428.71333"
   inkscape:cy="437.29905"
   inkscape:window-width="1366"
   inkscape:window-height="705"
   inkscape:window-x="-8"
   inkscape:window-y="-8"
   inkscape:window-maximized="1"
   inkscape:current-layer="Layer_1" />
<style
   type="text/css"
   id="style2">
	.st0{fill:#444444;}
	.st1{fill:#F8E8CE;}
	.st2{fill:#E5E5E5;}
	.st3{fill:#FFFFFF;}
	.st4{fill:#AAAAAA;}
	.st5{fill:#FC0000;}
	.st6{fill:#05D36C;}
	.st7{fill:#C94300;}
	.st8{fill:#0B4EF7;}
	.st9{fill:#E82FF7;}
	.st10{fill:#D6C709;}
	.st11{fill:#5B5B5B;}
</style>
<g
   transform="matrix(0.80828857,0,0,0.80828857,0.32331543,61.349102)"
   id="g29">
		<g
   id="g27">
			<g
   id="g25">
				<g
   id="Duplicate_Items_Folder_Symbol_4_0_Layer0_0_FILL">
					<g
   id="g6">
						<path
   class="st0"
   d="m 151.2,-75.8 c -0.1,-0.1 -0.2,-0.1 -0.4,-0.1 H 0 c -0.1,0 -0.3,0.1 -0.3,0.1 -0.1,0.1 -0.1,0.2 -0.1,0.4 V 75.4 c 0,0.1 0.1,0.3 0.1,0.4 0.1,0.1 0.2,0.1 0.3,0.1 h 150.9 c 0.1,0 0.3,-0.1 0.4,-0.1 0.1,-0.1 0.1,-0.2 0.1,-0.4 V -75.4 c 0,-0.2 -0.1,-0.3 -0.2,-0.4 M 0.5,-74.9 H 150.4 V 74.9 H 0.5 Z"
   id="path4" />
					</g>
					<g
   id="g10">
						<path
   class="st1"
   d="M 150.4,-74.9 H 0.5 V 74.9 H 150.4 V -74.9 m -0.8,0.7 0.2,-0.2 V 74.2 H 1.5 1.2 V -74.4 h 148.4 z"
   id="path8" />
					</g>
					<g
   id="g14">
						<path
   class="st2"
   d="m 143.1,-67.5 v 0 L 8,-67.6 V 67.7 L 8.3,67.4 H 143 V -67.5 Z"
   id="path12" />
					</g>
					<g
   id="g18">
						<path
   class="st3"
   d="m 149.6,-74.2 v -0.2 H 1.2 V 74.2 H 1.4 L 8,67.7 V -67.6 h 135.2 z"
   id="path16" />
					</g>
					<g
   id="g22">
						<path
   class="st4"
   d="m 149.8,-74.4 -0.2,0.2 -6.4,6.5 -0.1,0.1 v 135 H 8.3 L 8,67.7 1.5,74.1 h 148.3 z"
   id="path20" />
					</g>
				</g>
			</g>
		</g>
	</g><g
   transform="matrix(0.80828857,0,0,0.80828857,122.77332,61.349102)"
   id="g56">
		<g
   id="g54">
			<g
   id="g52">
				<g
   id="Duplicate_Items_Folder_Symbol_4_0_Layer0_0_FILL_00000146493653453437622390000005856974514048076930_">
					<g
   id="g33">
						<path
   class="st0"
   d="m 151.2,-75.8 c -0.1,-0.1 -0.2,-0.1 -0.4,-0.1 H 0 c -0.1,0 -0.3,0.1 -0.3,0.1 -0.1,0.1 -0.1,0.2 -0.1,0.4 V 75.4 c 0,0.1 0.1,0.3 0.1,0.4 0.1,0.1 0.2,0.1 0.3,0.1 h 150.9 c 0.1,0 0.3,-0.1 0.4,-0.1 0.1,-0.1 0.1,-0.2 0.1,-0.4 V -75.4 c 0,-0.2 -0.1,-0.3 -0.2,-0.4 M 0.5,-74.9 H 150.4 V 74.9 H 0.5 Z"
   id="path31" />
					</g>
					<g
   id="g37">
						<path
   class="st1"
   d="M 150.4,-74.9 H 0.5 V 74.9 H 150.4 V -74.9 m -0.8,0.7 0.2,-0.2 V 74.2 H 1.5 1.2 V -74.4 h 148.4 z"
   id="path35" />
					</g>
					<g
   id="g41">
						<path
   class="st2"
   d="m 143.1,-67.5 v 0 L 8,-67.6 V 67.7 l 0.4,-0.3 h 134.7 z"
   id="path39" />
					</g>
					<g
   id="g45">
						<path
   class="st3"
   d="m 149.6,-74.2 v -0.2 H 1.2 V 74.2 H 1.4 L 8,67.7 V -67.6 h 135.2 z"
   id="path43" />
					</g>
					<g
   id="g49">
						<path
   class="st4"
   d="m 149.8,-74.4 -0.2,0.2 -6.4,6.5 -0.1,0.1 v 135 H 8.3 L 8,67.7 1.5,74.1 h 148.3 z"
   id="path47" />
					</g>
				</g>
			</g>
		</g>
	</g><g
   transform="matrix(0.80828857,0,0,0.80828857,245.22332,61.349102)"
   id="g83">
		<g
   id="g81">
			<g
   id="g79">
				<g
   id="Duplicate_Items_Folder_Symbol_4_0_Layer0_0_FILL_00000000203712009826075590000003032526079147901832_">
					<g
   id="g60">
						<path
   class="st0"
   d="m 151.2,-75.8 c -0.1,-0.1 -0.2,-0.1 -0.4,-0.1 H 0 c -0.1,0 -0.3,0.1 -0.3,0.1 -0.1,0.1 -0.1,0.2 -0.1,0.4 V 75.4 c 0,0.1 0.1,0.3 0.1,0.4 0.1,0.1 0.2,0.1 0.3,0.1 h 150.9 c 0.1,0 0.3,-0.1 0.4,-0.1 0.1,-0.1 0.1,-0.2 0.1,-0.4 V -75.4 c 0,-0.2 -0.1,-0.3 -0.2,-0.4 M 0.5,-74.9 H 150.4 V 74.9 H 0.5 Z"
   id="path58" />
					</g>
					<g
   id="g64">
						<path
   class="st1"
   d="M 150.4,-74.9 H 0.5 V 74.9 H 150.4 V -74.9 m -0.8,0.7 0.2,-0.2 V 74.2 H 1.5 1.2 V -74.4 h 148.4 z"
   id="path62" />
					</g>
					<g
   id="g68">
						<path
   class="st2"
   d="m 143.1,-67.5 v 0 L 8,-67.6 V 67.7 L 8.3,67.4 H 143 V -67.5 Z"
   id="path66" />
					</g>
					<g
   id="g72">
						<path
   class="st3"
   d="m 149.6,-74.2 v -0.2 H 1.2 V 74.2 H 1.4 L 8,67.7 V -67.6 h 135.2 z"
   id="path70" />
					</g>
					<g
   id="g76">
						<path
   class="st4"
   d="m 149.8,-74.4 -0.2,0.2 -6.4,6.5 -0.1,0.1 v 135 H 8.3 L 8,67.7 1.5,74.1 h 148.3 z"
   id="path74" />
					</g>
				</g>
			</g>
		</g>
	</g><g
   transform="matrix(0.80828857,0,0,0.80828857,367.67332,61.349102)"
   id="g110">
		<g
   id="g108">
			<g
   id="g106">
				<g
   id="Duplicate_Items_Folder_Symbol_4_0_Layer0_0_FILL_00000109738409043943152150000009807984576221767326_">
					<g
   id="g87">
						<path
   class="st0"
   d="m 151.2,-75.8 c -0.1,-0.1 -0.2,-0.1 -0.4,-0.1 H 0 c -0.1,0 -0.3,0.1 -0.3,0.1 -0.1,0.1 -0.1,0.2 -0.1,0.4 V 75.4 c 0,0.1 0.1,0.3 0.1,0.4 0.1,0.1 0.2,0.1 0.3,0.1 h 150.9 c 0.1,0 0.3,-0.1 0.4,-0.1 0.1,-0.1 0.1,-0.2 0.1,-0.4 V -75.4 c 0,-0.2 -0.1,-0.3 -0.2,-0.4 M 0.5,-74.9 H 150.4 V 74.9 H 0.5 Z"
   id="path85" />
					</g>
					<g
   id="g91">
						<path
   class="st1"
   d="M 150.4,-74.9 H 0.5 V 74.9 H 150.4 V -74.9 m -0.8,0.7 0.2,-0.2 V 74.2 H 1.5 1.2 V -74.4 h 148.4 z"
   id="path89" />
					</g>
					<g
   id="g95">
						<path
   class="st2"
   d="m 143.1,-67.5 v 0 L 8,-67.6 V 67.7 L 8.3,67.4 H 143 V -67.5 Z"
   id="path93" />
					</g>
					<g
   id="g99">
						<path
   class="st3"
   d="m 149.6,-74.2 v -0.2 H 1.2 V 74.2 H 1.4 L 8,67.7 V -67.6 h 135.2 z"
   id="path97" />
					</g>
					<g
   id="g103">
						<path
   class="st4"
   d="m 149.8,-74.4 -0.2,0.2 -6.4,6.5 -0.1,0.1 v 135 H 8.3 L 8,67.7 1.5,74.1 h 148.3 z"
   id="path101" />
					</g>
				</g>
			</g>
		</g>
	</g><g
   transform="matrix(0.80828857,0,0,0.80828857,490.12332,61.349102)"
   id="g137">
		<g
   id="g135">
			<g
   id="g133">
				<g
   id="Duplicate_Items_Folder_Symbol_4_0_Layer0_0_FILL_00000127761416228770963740000000747956412734915762_">
					<g
   id="g114">
						<path
   class="st0"
   d="m 151.2,-75.8 c -0.1,-0.1 -0.2,-0.1 -0.4,-0.1 H 0 c -0.1,0 -0.3,0.1 -0.3,0.1 -0.1,0.1 -0.1,0.2 -0.1,0.4 V 75.4 c 0,0.1 0.1,0.3 0.1,0.4 0.1,0.1 0.2,0.1 0.3,0.1 h 150.9 c 0.1,0 0.3,-0.1 0.4,-0.1 0.1,-0.1 0.1,-0.2 0.1,-0.4 V -75.4 c 0,-0.2 -0.1,-0.3 -0.2,-0.4 M 0.5,-74.9 H 150.4 V 74.9 H 0.5 Z"
   id="path112" />
					</g>
					<g
   id="g118">
						<path
   class="st1"
   d="M 150.4,-74.9 H 0.5 V 74.9 H 150.4 V -74.9 m -0.8,0.7 0.2,-0.2 V 74.2 H 1.5 1.2 V -74.4 h 148.4 z"
   id="path116" />
					</g>
					<g
   id="g122">
						<path
   class="st2"
   d="m 143.1,-67.5 v 0 L 8,-67.6 V 67.7 l 0.4,-0.3 h 134.7 z"
   id="path120" />
					</g>
					<g
   id="g126">
						<path
   class="st3"
   d="m 149.6,-74.2 v -0.2 H 1.2 V 74.2 H 1.4 L 8,67.7 V -67.6 h 135.2 z"
   id="path124" />
					</g>
					<g
   id="g130">
						<path
   class="st4"
   d="m 149.8,-74.4 -0.2,0.2 -6.4,6.5 -0.1,0.1 v 135 H 8.3 L 8,67.7 1.5,74.1 h 148.3 z"
   id="path128" />
					</g>
				</g>
			</g>
		</g>
	</g><g
   transform="matrix(0.80828857,0,0,0.80828857,612.57332,61.349102)"
   id="g164">
		<g
   id="g162">
			<g
   id="g160">
				<g
   id="Duplicate_Items_Folder_Symbol_4_0_Layer0_0_FILL_00000097497284776799453170000017390332628603784377_">
					<g
   id="g141">
						<path
   class="st0"
   d="m 151.2,-75.8 c -0.1,-0.1 -0.2,-0.1 -0.4,-0.1 H 0 c -0.1,0 -0.3,0.1 -0.3,0.1 -0.1,0.1 -0.1,0.2 -0.1,0.4 V 75.4 c 0,0.1 0.1,0.3 0.1,0.4 0.1,0.1 0.2,0.1 0.3,0.1 h 150.9 c 0.1,0 0.3,-0.1 0.4,-0.1 0.1,-0.1 0.1,-0.2 0.1,-0.4 V -75.4 c 0,-0.2 -0.1,-0.3 -0.2,-0.4 M 0.5,-74.9 H 150.4 V 74.9 H 0.5 Z"
   id="path139" />
					</g>
					<g
   id="g145">
						<path
   class="st1"
   d="M 150.4,-74.9 H 0.5 V 74.9 H 150.4 V -74.9 m -0.8,0.7 0.2,-0.2 V 74.2 H 1.5 1.2 V -74.4 h 148.4 z"
   id="path143" />
					</g>
					<g
   id="g149">
						<path
   class="st2"
   d="m 143.1,-67.5 v 0 L 8,-67.6 V 67.7 l 0.4,-0.3 h 134.7 z"
   id="path147" />
					</g>
					<g
   id="g153">
						<path
   class="st3"
   d="m 149.6,-74.2 v -0.2 H 1.2 V 74.2 H 1.4 L 8,67.7 V -67.6 h 135.2 z"
   id="path151" />
					</g>
					<g
   id="g157">
						<path
   class="st4"
   d="m 149.8,-74.4 -0.2,0.2 -6.4,6.5 -0.1,0.1 v 135 H 8.3 L 8,67.7 1.5,74.1 h 148.3 z"
   id="path155" />
					</g>
				</g>
			</g>
		</g>
	</g><g
   transform="matrix(0.80828857,0,0,0.80828857,735.12332,61.349102)"
   id="g191">
		<g
   id="g189">
			<g
   id="g187">
				<g
   id="Duplicate_Items_Folder_Symbol_4_0_Layer0_0_FILL_00000068667367954578840610000005459374431885038225_">
					<g
   id="g168">
						<path
   class="st0"
   d="m 151.2,-75.8 c -0.1,-0.1 -0.2,-0.1 -0.4,-0.1 H 0 c -0.1,0 -0.3,0.1 -0.3,0.1 -0.1,0.1 -0.1,0.2 -0.1,0.4 V 75.4 c 0,0.1 0.1,0.3 0.1,0.4 0.1,0.1 0.2,0.1 0.3,0.1 h 150.9 c 0.1,0 0.3,-0.1 0.4,-0.1 0.1,-0.1 0.1,-0.2 0.1,-0.4 V -75.4 c 0,-0.2 -0.1,-0.3 -0.2,-0.4 M 0.5,-74.9 H 150.4 V 74.9 H 0.5 Z"
   id="path166" />
					</g>
					<g
   id="g172">
						<path
   class="st1"
   d="M 150.4,-74.9 H 0.5 V 74.9 H 150.4 V -74.9 m -0.8,0.7 0.2,-0.2 V 74.2 H 1.5 1.2 V -74.4 h 148.4 z"
   id="path170" />
					</g>
					<g
   id="g176">
						<path
   class="st2"
   d="m 143.1,-67.5 v 0 L 8,-67.6 V 67.7 l 0.4,-0.3 h 134.7 z"
   id="path174" />
					</g>
					<g
   id="g180">
						<path
   class="st3"
   d="m 149.6,-74.2 v -0.2 H 1.2 V 74.2 H 1.4 L 8,67.7 V -67.6 h 135.2 z"
   id="path178" />
					</g>
					<g
   id="g184">
						<path
   class="st4"
   d="m 149.8,-74.4 -0.2,0.2 -6.4,6.5 -0.1,0.1 v 135 H 8.3 L 8,67.7 1.5,74.1 h 148.3 z"
   id="path182" />
					</g>
				</g>
			</g>
		</g>
	</g><g
   transform="matrix(0.80828857,0,0,0.80828857,0.32331543,180.9991)"
   id="g218">
		<g
   id="g216">
			<g
   id="g214">
				<g
   id="Duplicate_Items_Folder_Symbol_4_0_Layer0_0_FILL_00000098935953377485723230000001298379973757110932_">
					<g
   id="g195">
						<path
   class="st0"
   d="m 151.2,-75.8 c -0.1,-0.1 -0.2,-0.1 -0.4,-0.1 H 0 c -0.1,0 -0.3,0.1 -0.3,0.1 -0.1,0.1 -0.1,0.2 -0.1,0.4 V 75.4 c 0,0.1 0.1,0.3 0.1,0.4 0.1,0.1 0.2,0.1 0.3,0.1 h 150.9 c 0.1,0 0.3,-0.1 0.4,-0.1 0.1,-0.1 0.1,-0.2 0.1,-0.4 V -75.4 c 0,-0.2 -0.1,-0.3 -0.2,-0.4 M 0.5,-74.9 H 150.4 V 74.9 H 0.5 Z"
   id="path193" />
					</g>
					<g
   id="g199">
						<path
   class="st1"
   d="M 150.4,-74.9 H 0.5 V 74.9 H 150.4 V -74.9 m -0.8,0.7 0.2,-0.2 V 74.2 H 1.5 1.2 V -74.4 h 148.4 z"
   id="path197" />
					</g>
					<g
   id="g203">
						<path
   class="st2"
   d="m 143.1,-67.5 v 0 L 8,-67.6 V 67.7 L 8.3,67.4 H 143 V -67.5 Z"
   id="path201" />
					</g>
					<g
   id="g207">
						<path
   class="st3"
   d="m 149.6,-74.2 v -0.2 H 1.2 V 74.2 H 1.4 L 8,67.7 V -67.6 h 135.2 z"
   id="path205" />
					</g>
					<g
   id="g211">
						<path
   class="st4"
   d="m 149.8,-74.4 -0.2,0.2 -6.4,6.5 -0.1,0.1 v 135 H 8.3 L 8,67.7 1.5,74.1 h 148.3 z"
   id="path209" />
					</g>
				</g>
			</g>
		</g>
	</g><g
   transform="matrix(0.80828857,0,0,0.80828857,122.77332,180.9991)"
   id="g245">
		<g
   id="g243">
			<g
   id="g241">
				<g
   id="Duplicate_Items_Folder_Symbol_4_0_Layer0_0_FILL_00000010282869261343963540000003047898577256897183_">
					<g
   id="g222">
						<path
   class="st0"
   d="m 151.2,-75.8 c -0.1,-0.1 -0.2,-0.1 -0.4,-0.1 H 0 c -0.1,0 -0.3,0.1 -0.3,0.1 -0.1,0.1 -0.1,0.2 -0.1,0.4 V 75.4 c 0,0.1 0.1,0.3 0.1,0.4 0.1,0.1 0.2,0.1 0.3,0.1 h 150.9 c 0.1,0 0.3,-0.1 0.4,-0.1 0.1,-0.1 0.1,-0.2 0.1,-0.4 V -75.4 c 0,-0.2 -0.1,-0.3 -0.2,-0.4 M 0.5,-74.9 H 150.4 V 74.9 H 0.5 Z"
   id="path220" />
					</g>
					<g
   id="g226">
						<path
   class="st1"
   d="M 150.4,-74.9 H 0.5 V 74.9 H 150.4 V -74.9 m -0.8,0.7 0.2,-0.2 V 74.2 H 1.5 1.2 V -74.4 h 148.4 z"
   id="path224" />
					</g>
					<g
   id="g230">
						<path
   class="st2"
   d="m 143.1,-67.5 v 0 L 8,-67.6 V 67.7 l 0.4,-0.3 h 134.7 z"
   id="path228" />
					</g>
					<g
   id="g234">
						<path
   class="st3"
   d="m 149.6,-74.2 v -0.2 H 1.2 V 74.2 H 1.4 L 8,67.7 V -67.6 h 135.2 z"
   id="path232" />
					</g>
					<g
   id="g238">
						<path
   class="st4"
   d="m 149.8,-74.4 -0.2,0.2 -6.4,6.5 -0.1,0.1 v 135 H 8.3 L 8,67.7 1.5,74.1 h 148.3 z"
   id="path236" />
					</g>
				</g>
			</g>
		</g>
	</g><g
   transform="matrix(0.80828857,0,0,0.80828857,245.22332,180.9991)"
   id="g272">
		<g
   id="g270">
			<g
   id="g268">
				<g
   id="Duplicate_Items_Folder_Symbol_4_0_Layer0_0_FILL_00000031906905040799126660000002256654423919673493_">
					<g
   id="g249">
						<path
   class="st0"
   d="m 151.2,-75.8 c -0.1,-0.1 -0.2,-0.1 -0.4,-0.1 H 0 c -0.1,0 -0.3,0.1 -0.3,0.1 -0.1,0.1 -0.1,0.2 -0.1,0.4 V 75.4 c 0,0.1 0.1,0.3 0.1,0.4 0.1,0.1 0.2,0.1 0.3,0.1 h 150.9 c 0.1,0 0.3,-0.1 0.4,-0.1 0.1,-0.1 0.1,-0.2 0.1,-0.4 V -75.4 c 0,-0.2 -0.1,-0.3 -0.2,-0.4 M 0.5,-74.9 H 150.4 V 74.9 H 0.5 Z"
   id="path247" />
					</g>
					<g
   id="g253">
						<path
   class="st1"
   d="M 150.4,-74.9 H 0.5 V 74.9 H 150.4 V -74.9 m -0.8,0.7 0.2,-0.2 V 74.2 H 1.5 1.2 V -74.4 h 148.4 z"
   id="path251" />
					</g>
					<g
   id="g257">
						<path
   class="st2"
   d="m 143.1,-67.5 v 0 L 8,-67.6 V 67.7 L 8.3,67.4 H 143 V -67.5 Z"
   id="path255" />
					</g>
					<g
   id="g261">
						<path
   class="st3"
   d="m 149.6,-74.2 v -0.2 H 1.2 V 74.2 H 1.4 L 8,67.7 V -67.6 h 135.2 z"
   id="path259" />
					</g>
					<g
   id="g265">
						<path
   class="st4"
   d="m 149.8,-74.4 -0.2,0.2 -6.4,6.5 -0.1,0.1 v 135 H 8.3 L 8,67.7 1.5,74.1 h 148.3 z"
   id="path263" />
					</g>
				</g>
			</g>
		</g>
	</g><g
   transform="matrix(0.80828857,0,0,0.80828857,367.67332,180.9991)"
   id="g299">
		<g
   id="g297">
			<g
   id="g295">
				<g
   id="Duplicate_Items_Folder_Symbol_4_0_Layer0_0_FILL_00000101808113489081053570000005815447536388867749_">
					<g
   id="g276">
						<path
   class="st0"
   d="m 151.2,-75.8 c -0.1,-0.1 -0.2,-0.1 -0.4,-0.1 H 0 c -0.1,0 -0.3,0.1 -0.3,0.1 -0.1,0.1 -0.1,0.2 -0.1,0.4 V 75.4 c 0,0.1 0.1,0.3 0.1,0.4 0.1,0.1 0.2,0.1 0.3,0.1 h 150.9 c 0.1,0 0.3,-0.1 0.4,-0.1 0.1,-0.1 0.1,-0.2 0.1,-0.4 V -75.4 c 0,-0.2 -0.1,-0.3 -0.2,-0.4 M 0.5,-74.9 H 150.4 V 74.9 H 0.5 Z"
   id="path274" />
					</g>
					<g
   id="g280">
						<path
   class="st1"
   d="M 150.4,-74.9 H 0.5 V 74.9 H 150.4 V -74.9 m -0.8,0.7 0.2,-0.2 V 74.2 H 1.5 1.2 V -74.4 h 148.4 z"
   id="path278" />
					</g>
					<g
   id="g284">
						<path
   class="st2"
   d="m 143.1,-67.5 v 0 L 8,-67.6 V 67.7 L 8.3,67.4 H 143 V -67.5 Z"
   id="path282" />
					</g>
					<g
   id="g288">
						<path
   class="st3"
   d="m 149.6,-74.2 v -0.2 H 1.2 V 74.2 H 1.4 L 8,67.7 V -67.6 h 135.2 z"
   id="path286" />
					</g>
					<g
   id="g292">
						<path
   class="st4"
   d="m 149.8,-74.4 -0.2,0.2 -6.4,6.5 -0.1,0.1 v 135 H 8.3 L 8,67.7 1.5,74.1 h 148.3 z"
   id="path290" />
					</g>
				</g>
			</g>
		</g>
	</g><g
   transform="matrix(0.80828857,0,0,0.80828857,490.12332,180.9991)"
   id="g326">
		<g
   id="g324">
			<g
   id="g322">
				<g
   id="Duplicate_Items_Folder_Symbol_4_0_Layer0_0_FILL_00000148623022430044216980000003810513447510785152_">
					<g
   id="g303">
						<path
   class="st0"
   d="m 151.2,-75.8 c -0.1,-0.1 -0.2,-0.1 -0.4,-0.1 H 0 c -0.1,0 -0.3,0.1 -0.3,0.1 -0.1,0.1 -0.1,0.2 -0.1,0.4 V 75.4 c 0,0.1 0.1,0.3 0.1,0.4 0.1,0.1 0.2,0.1 0.3,0.1 h 150.9 c 0.1,0 0.3,-0.1 0.4,-0.1 0.1,-0.1 0.1,-0.2 0.1,-0.4 V -75.4 c 0,-0.2 -0.1,-0.3 -0.2,-0.4 M 0.5,-74.9 H 150.4 V 74.9 H 0.5 Z"
   id="path301" />
					</g>
					<g
   id="g307">
						<path
   class="st1"
   d="M 150.4,-74.9 H 0.5 V 74.9 H 150.4 V -74.9 m -0.8,0.7 0.2,-0.2 V 74.2 H 1.5 1.2 V -74.4 h 148.4 z"
   id="path305" />
					</g>
					<g
   id="g311">
						<path
   class="st2"
   d="m 143.1,-67.5 v 0 L 8,-67.6 V 67.7 l 0.4,-0.3 h 134.7 z"
   id="path309" />
					</g>
					<g
   id="g315">
						<path
   class="st3"
   d="m 149.6,-74.2 v -0.2 H 1.2 V 74.2 H 1.4 L 8,67.7 V -67.6 h 135.2 z"
   id="path313" />
					</g>
					<g
   id="g319">
						<path
   class="st4"
   d="m 149.8,-74.4 -0.2,0.2 -6.4,6.5 -0.1,0.1 v 135 H 8.3 L 8,67.7 1.5,74.1 h 148.3 z"
   id="path317" />
					</g>
				</g>
			</g>
		</g>
	</g><g
   transform="matrix(0.80828857,0,0,0.80828857,612.57332,180.9991)"
   id="g353">
		<g
   id="g351">
			<g
   id="g349">
				<g
   id="Duplicate_Items_Folder_Symbol_4_0_Layer0_0_FILL_00000068676255145335729880000018346459405693199036_">
					<g
   id="g330">
						<path
   class="st0"
   d="m 151.2,-75.8 c -0.1,-0.1 -0.2,-0.1 -0.4,-0.1 H 0 c -0.1,0 -0.3,0.1 -0.3,0.1 -0.1,0.1 -0.1,0.2 -0.1,0.4 V 75.4 c 0,0.1 0.1,0.3 0.1,0.4 0.1,0.1 0.2,0.1 0.3,0.1 h 150.9 c 0.1,0 0.3,-0.1 0.4,-0.1 0.1,-0.1 0.1,-0.2 0.1,-0.4 V -75.4 c 0,-0.2 -0.1,-0.3 -0.2,-0.4 M 0.5,-74.9 H 150.4 V 74.9 H 0.5 Z"
   id="path328" />
					</g>
					<g
   id="g334">
						<path
   class="st1"
   d="M 150.4,-74.9 H 0.5 V 74.9 H 150.4 V -74.9 m -0.8,0.7 0.2,-0.2 V 74.2 H 1.5 1.2 V -74.4 h 148.4 z"
   id="path332" />
					</g>
					<g
   id="g338">
						<path
   class="st2"
   d="m 143.1,-67.5 v 0 L 8,-67.6 V 67.7 l 0.4,-0.3 h 134.7 z"
   id="path336" />
					</g>
					<g
   id="g342">
						<path
   class="st3"
   d="m 149.6,-74.2 v -0.2 H 1.2 V 74.2 H 1.4 L 8,67.7 V -67.6 h 135.2 z"
   id="path340" />
					</g>
					<g
   id="g346">
						<path
   class="st4"
   d="m 149.8,-74.4 -0.2,0.2 -6.4,6.5 -0.1,0.1 v 135 H 8.3 L 8,67.7 1.5,74.1 h 148.3 z"
   id="path344" />
					</g>
				</g>
			</g>
		</g>
	</g><g
   transform="matrix(0.80828857,0,0,0.80828857,735.12332,180.9991)"
   id="g380">
		<g
   id="g378">
			<g
   id="g376">
				<g
   id="Duplicate_Items_Folder_Symbol_4_0_Layer0_0_FILL_00000178903725109501738680000003021235784109561475_">
					<g
   id="g357">
						<path
   class="st0"
   d="m 151.2,-75.8 c -0.1,-0.1 -0.2,-0.1 -0.4,-0.1 H 0 c -0.1,0 -0.3,0.1 -0.3,0.1 -0.1,0.1 -0.1,0.2 -0.1,0.4 V 75.4 c 0,0.1 0.1,0.3 0.1,0.4 0.1,0.1 0.2,0.1 0.3,0.1 h 150.9 c 0.1,0 0.3,-0.1 0.4,-0.1 0.1,-0.1 0.1,-0.2 0.1,-0.4 V -75.4 c 0,-0.2 -0.1,-0.3 -0.2,-0.4 M 0.5,-74.9 H 150.4 V 74.9 H 0.5 Z"
   id="path355" />
					</g>
					<g
   id="g361">
						<path
   class="st1"
   d="M 150.4,-74.9 H 0.5 V 74.9 H 150.4 V -74.9 m -0.8,0.7 0.2,-0.2 V 74.2 H 1.5 1.2 V -74.4 h 148.4 z"
   id="path359" />
					</g>
					<g
   id="g365">
						<path
   class="st2"
   d="m 143.1,-67.5 v 0 L 8,-67.6 V 67.7 l 0.4,-0.3 h 134.7 z"
   id="path363" />
					</g>
					<g
   id="g369">
						<path
   class="st3"
   d="m 149.6,-74.2 v -0.2 H 1.2 V 74.2 H 1.4 L 8,67.7 V -67.6 h 135.2 z"
   id="path367" />
					</g>
					<g
   id="g373">
						<path
   class="st4"
   d="m 149.8,-74.4 -0.2,0.2 -6.4,6.5 -0.1,0.1 v 135 H 8.3 L 8,67.7 1.5,74.1 h 148.3 z"
   id="path371" />
					</g>
				</g>
			</g>
		</g>
	</g><g
   transform="matrix(0.80828857,0,0,0.80828857,0.32331543,300.5991)"
   id="g407">
		<g
   id="g405">
			<g
   id="g403">
				<g
   id="Duplicate_Items_Folder_Symbol_4_0_Layer0_0_FILL_00000016076287801236073990000012813079132533888651_">
					<g
   id="g384">
						<path
   class="st0"
   d="m 151.2,-75.8 c -0.1,-0.1 -0.2,-0.1 -0.4,-0.1 H 0 c -0.1,0 -0.3,0.1 -0.3,0.1 -0.1,0.1 -0.1,0.2 -0.1,0.4 V 75.4 c 0,0.1 0.1,0.3 0.1,0.4 0.1,0.1 0.2,0.1 0.3,0.1 h 150.9 c 0.1,0 0.3,-0.1 0.4,-0.1 0.1,-0.1 0.1,-0.2 0.1,-0.4 V -75.4 c 0,-0.2 -0.1,-0.3 -0.2,-0.4 M 0.5,-74.9 H 150.4 V 74.9 H 0.5 Z"
   id="path382" />
					</g>
					<g
   id="g388">
						<path
   class="st1"
   d="M 150.4,-74.9 H 0.5 V 74.9 H 150.4 V -74.9 m -0.8,0.7 0.2,-0.2 V 74.2 H 1.5 1.2 V -74.4 h 148.4 z"
   id="path386" />
					</g>
					<g
   id="g392">
						<path
   class="st2"
   d="m 143.1,-67.5 v 0 L 8,-67.6 V 67.7 L 8.3,67.4 H 143 V -67.5 Z"
   id="path390" />
					</g>
					<g
   id="g396">
						<path
   class="st3"
   d="m 149.6,-74.2 v -0.2 H 1.2 V 74.2 H 1.4 L 8,67.7 V -67.6 h 135.2 z"
   id="path394" />
					</g>
					<g
   id="g400">
						<path
   class="st4"
   d="m 149.8,-74.4 -0.2,0.2 -6.4,6.5 -0.1,0.1 v 135 H 8.3 L 8,67.7 1.5,74.1 h 148.3 z"
   id="path398" />
					</g>
				</g>
			</g>
		</g>
	</g><g
   transform="matrix(0.80828857,0,0,0.80828857,122.77332,300.5991)"
   id="g434">
		<g
   id="g432">
			<g
   id="g430">
				<g
   id="Duplicate_Items_Folder_Symbol_4_0_Layer0_0_FILL_00000134932168618403840680000011088508444235831974_">
					<g
   id="g411">
						<path
   class="st0"
   d="m 151.2,-75.8 c -0.1,-0.1 -0.2,-0.1 -0.4,-0.1 H 0 c -0.1,0 -0.3,0.1 -0.3,0.1 -0.1,0.1 -0.1,0.2 -0.1,0.4 V 75.4 c 0,0.1 0.1,0.3 0.1,0.4 0.1,0.1 0.2,0.1 0.3,0.1 h 150.9 c 0.1,0 0.3,-0.1 0.4,-0.1 0.1,-0.1 0.1,-0.2 0.1,-0.4 V -75.4 c 0,-0.2 -0.1,-0.3 -0.2,-0.4 M 0.5,-74.9 H 150.4 V 74.9 H 0.5 Z"
   id="path409" />
					</g>
					<g
   id="g415">
						<path
   class="st1"
   d="M 150.4,-74.9 H 0.5 V 74.9 H 150.4 V -74.9 m -0.8,0.7 0.2,-0.2 V 74.2 H 1.5 1.2 V -74.4 h 148.4 z"
   id="path413" />
					</g>
					<g
   id="g419">
						<path
   class="st2"
   d="m 143.1,-67.5 v 0 L 8,-67.6 V 67.7 l 0.4,-0.3 h 134.7 z"
   id="path417" />
					</g>
					<g
   id="g423">
						<path
   class="st3"
   d="m 149.6,-74.2 v -0.2 H 1.2 V 74.2 H 1.4 L 8,67.7 V -67.6 h 135.2 z"
   id="path421" />
					</g>
					<g
   id="g427">
						<path
   class="st4"
   d="m 149.8,-74.4 -0.2,0.2 -6.4,6.5 -0.1,0.1 v 135 H 8.3 L 8,67.7 1.5,74.1 h 148.3 z"
   id="path425" />
					</g>
				</g>
			</g>
		</g>
	</g><g
   transform="matrix(0.80828857,0,0,0.80828857,245.22332,300.5991)"
   id="g461">
		<g
   id="g459">
			<g
   id="g457">
				<g
   id="Duplicate_Items_Folder_Symbol_4_0_Layer0_0_FILL_00000078033939582523499420000015822503872599413127_">
					<g
   id="g438">
						<path
   class="st0"
   d="m 151.2,-75.8 c -0.1,-0.1 -0.2,-0.1 -0.4,-0.1 H 0 c -0.1,0 -0.3,0.1 -0.3,0.1 -0.1,0.1 -0.1,0.2 -0.1,0.4 V 75.4 c 0,0.1 0.1,0.3 0.1,0.4 0.1,0.1 0.2,0.1 0.3,0.1 h 150.9 c 0.1,0 0.3,-0.1 0.4,-0.1 0.1,-0.1 0.1,-0.2 0.1,-0.4 V -75.4 c 0,-0.2 -0.1,-0.3 -0.2,-0.4 M 0.5,-74.9 H 150.4 V 74.9 H 0.5 Z"
   id="path436" />
					</g>
					<g
   id="g442">
						<path
   class="st1"
   d="M 150.4,-74.9 H 0.5 V 74.9 H 150.4 V -74.9 m -0.8,0.7 0.2,-0.2 V 74.2 H 1.5 1.2 V -74.4 h 148.4 z"
   id="path440" />
					</g>
					<g
   id="g446">
						<path
   class="st2"
   d="m 143.1,-67.5 v 0 L 8,-67.6 V 67.7 L 8.3,67.4 H 143 V -67.5 Z"
   id="path444" />
					</g>
					<g
   id="g450">
						<path
   class="st3"
   d="m 149.6,-74.2 v -0.2 H 1.2 V 74.2 H 1.4 L 8,67.7 V -67.6 h 135.2 z"
   id="path448" />
					</g>
					<g
   id="g454">
						<path
   class="st4"
   d="m 149.8,-74.4 -0.2,0.2 -6.4,6.5 -0.1,0.1 v 135 H 8.3 L 8,67.7 1.5,74.1 h 148.3 z"
   id="path452" />
					</g>
				</g>
			</g>
		</g>
	</g><g
   transform="matrix(0.80828857,0,0,0.80828857,367.67332,300.5991)"
   id="g488">
		<g
   id="g486">
			<g
   id="g484">
				<g
   id="Duplicate_Items_Folder_Symbol_4_0_Layer0_0_FILL_00000026140050304109919800000016580085525223730825_">
					<g
   id="g465">
						<path
   class="st0"
   d="m 151.2,-75.8 c -0.1,-0.1 -0.2,-0.1 -0.4,-0.1 H 0 c -0.1,0 -0.3,0.1 -0.3,0.1 -0.1,0.1 -0.1,0.2 -0.1,0.4 V 75.4 c 0,0.1 0.1,0.3 0.1,0.4 0.1,0.1 0.2,0.1 0.3,0.1 h 150.9 c 0.1,0 0.3,-0.1 0.4,-0.1 0.1,-0.1 0.1,-0.2 0.1,-0.4 V -75.4 c 0,-0.2 -0.1,-0.3 -0.2,-0.4 M 0.5,-74.9 H 150.4 V 74.9 H 0.5 Z"
   id="path463" />
					</g>
					<g
   id="g469">
						<path
   class="st1"
   d="M 150.4,-74.9 H 0.5 V 74.9 H 150.4 V -74.9 m -0.8,0.7 0.2,-0.2 V 74.2 H 1.5 1.2 V -74.4 h 148.4 z"
   id="path467" />
					</g>
					<g
   id="g473">
						<path
   class="st2"
   d="m 143.1,-67.5 v 0 L 8,-67.6 V 67.7 L 8.3,67.4 H 143 V -67.5 Z"
   id="path471" />
					</g>
					<g
   id="g477">
						<path
   class="st3"
   d="m 149.6,-74.2 v -0.2 H 1.2 V 74.2 H 1.4 L 8,67.7 V -67.6 h 135.2 z"
   id="path475" />
					</g>
					<g
   id="g481">
						<path
   class="st4"
   d="m 149.8,-74.4 -0.2,0.2 -6.4,6.5 -0.1,0.1 v 135 H 8.3 L 8,67.7 1.5,74.1 h 148.3 z"
   id="path479" />
					</g>
				</g>
			</g>
		</g>
	</g><g
   transform="matrix(0.80828857,0,0,0.80828857,490.12332,300.5991)"
   id="g515">
		<g
   id="g513">
			<g
   id="g511">
				<g
   id="Duplicate_Items_Folder_Symbol_4_0_Layer0_0_FILL_00000090998860055647108510000010414270576567189393_">
					<g
   id="g492">
						<path
   class="st0"
   d="m 151.2,-75.8 c -0.1,-0.1 -0.2,-0.1 -0.4,-0.1 H 0 c -0.1,0 -0.3,0.1 -0.3,0.1 -0.1,0.1 -0.1,0.2 -0.1,0.4 V 75.4 c 0,0.1 0.1,0.3 0.1,0.4 0.1,0.1 0.2,0.1 0.3,0.1 h 150.9 c 0.1,0 0.3,-0.1 0.4,-0.1 0.1,-0.1 0.1,-0.2 0.1,-0.4 V -75.4 c 0,-0.2 -0.1,-0.3 -0.2,-0.4 M 0.5,-74.9 H 150.4 V 74.9 H 0.5 Z"
   id="path490" />
					</g>
					<g
   id="g496">
						<path
   class="st1"
   d="M 150.4,-74.9 H 0.5 V 74.9 H 150.4 V -74.9 m -0.8,0.7 0.2,-0.2 V 74.2 H 1.5 1.2 V -74.4 h 148.4 z"
   id="path494" />
					</g>
					<g
   id="g500">
						<path
   class="st2"
   d="m 143.1,-67.5 v 0 L 8,-67.6 V 67.7 l 0.4,-0.3 h 134.7 z"
   id="path498" />
					</g>
					<g
   id="g504">
						<path
   class="st3"
   d="m 149.6,-74.2 v -0.2 H 1.2 V 74.2 H 1.4 L 8,67.7 V -67.6 h 135.2 z"
   id="path502" />
					</g>
					<g
   id="g508">
						<path
   class="st4"
   d="m 149.8,-74.4 -0.2,0.2 -6.4,6.5 -0.1,0.1 v 135 H 8.3 L 8,67.7 1.5,74.1 h 148.3 z"
   id="path506" />
					</g>
				</g>
			</g>
		</g>
	</g><g
   transform="matrix(0.80828857,0,0,0.80828857,612.57332,300.5991)"
   id="g542">
		<g
   id="g540">
			<g
   id="g538">
				<g
   id="Duplicate_Items_Folder_Symbol_4_0_Layer0_0_FILL_00000142893302461108046060000013443881986408851878_">
					<g
   id="g519">
						<path
   class="st0"
   d="m 151.2,-75.8 c -0.1,-0.1 -0.2,-0.1 -0.4,-0.1 H 0 c -0.1,0 -0.3,0.1 -0.3,0.1 -0.1,0.1 -0.1,0.2 -0.1,0.4 V 75.4 c 0,0.1 0.1,0.3 0.1,0.4 0.1,0.1 0.2,0.1 0.3,0.1 h 150.9 c 0.1,0 0.3,-0.1 0.4,-0.1 0.1,-0.1 0.1,-0.2 0.1,-0.4 V -75.4 c 0,-0.2 -0.1,-0.3 -0.2,-0.4 M 0.5,-74.9 H 150.4 V 74.9 H 0.5 Z"
   id="path517" />
					</g>
					<g
   id="g523">
						<path
   class="st1"
   d="M 150.4,-74.9 H 0.5 V 74.9 H 150.4 V -74.9 m -0.8,0.7 0.2,-0.2 V 74.2 H 1.5 1.2 V -74.4 h 148.4 z"
   id="path521" />
					</g>
					<g
   id="g527">
						<path
   class="st2"
   d="m 143.1,-67.5 v 0 L 8,-67.6 V 67.7 l 0.4,-0.3 h 134.7 z"
   id="path525" />
					</g>
					<g
   id="g531">
						<path
   class="st3"
   d="m 149.6,-74.2 v -0.2 H 1.2 V 74.2 H 1.4 L 8,67.7 V -67.6 h 135.2 z"
   id="path529" />
					</g>
					<g
   id="g535">
						<path
   class="st4"
   d="m 149.8,-74.4 -0.2,0.2 -6.4,6.5 -0.1,0.1 v 135 H 8.3 L 8,67.7 1.5,74.1 h 148.3 z"
   id="path533" />
					</g>
				</g>
			</g>
		</g>
	</g><g
   transform="matrix(0.80828857,0,0,0.80828857,735.12332,300.5991)"
   id="g569">
		<g
   id="g567">
			<g
   id="g565">
				<g
   id="Duplicate_Items_Folder_Symbol_4_0_Layer0_0_FILL_00000021839062649158354910000005879760877082891452_">
					<g
   id="g546">
						<path
   class="st0"
   d="m 151.2,-75.8 c -0.1,-0.1 -0.2,-0.1 -0.4,-0.1 H 0 c -0.1,0 -0.3,0.1 -0.3,0.1 -0.1,0.1 -0.1,0.2 -0.1,0.4 V 75.4 c 0,0.1 0.1,0.3 0.1,0.4 0.1,0.1 0.2,0.1 0.3,0.1 h 150.9 c 0.1,0 0.3,-0.1 0.4,-0.1 0.1,-0.1 0.1,-0.2 0.1,-0.4 V -75.4 c 0,-0.2 -0.1,-0.3 -0.2,-0.4 M 0.5,-74.9 H 150.4 V 74.9 H 0.5 Z"
   id="path544" />
					</g>
					<g
   id="g550">
						<path
   class="st1"
   d="M 150.4,-74.9 H 0.5 V 74.9 H 150.4 V -74.9 m -0.8,0.7 0.2,-0.2 V 74.2 H 1.5 1.2 V -74.4 h 148.4 z"
   id="path548" />
					</g>
					<g
   id="g554">
						<path
   class="st2"
   d="m 143.1,-67.5 v 0 L 8,-67.6 V 67.7 l 0.4,-0.3 h 134.7 z"
   id="path552" />
					</g>
					<g
   id="g558">
						<path
   class="st3"
   d="m 149.6,-74.2 v -0.2 H 1.2 V 74.2 H 1.4 L 8,67.7 V -67.6 h 135.2 z"
   id="path556" />
					</g>
					<g
   id="g562">
						<path
   class="st4"
   d="m 149.8,-74.4 -0.2,0.2 -6.4,6.5 -0.1,0.1 v 135 H 8.3 L 8,67.7 1.5,74.1 h 148.3 z"
   id="path560" />
					</g>
				</g>
			</g>
		</g>
	</g><g
   transform="matrix(0.80828857,0,0,0.80828857,0.32331543,420.2491)"
   id="g596">
		<g
   id="g594">
			<g
   id="g592">
				<g
   id="Duplicate_Items_Folder_Symbol_4_0_Layer0_0_FILL_00000033335836145372437240000008115325097484869028_">
					<g
   id="g573">
						<path
   class="st0"
   d="m 151.2,-75.8 c -0.1,-0.1 -0.2,-0.1 -0.4,-0.1 H 0 c -0.1,0 -0.3,0.1 -0.3,0.1 -0.1,0.1 -0.1,0.2 -0.1,0.4 V 75.4 c 0,0.1 0.1,0.3 0.1,0.4 0.1,0.1 0.2,0.1 0.3,0.1 h 150.9 c 0.1,0 0.3,-0.1 0.4,-0.1 0.1,-0.1 0.1,-0.2 0.1,-0.4 V -75.4 c 0,-0.2 -0.1,-0.3 -0.2,-0.4 M 0.5,-74.9 H 150.4 V 74.9 H 0.5 Z"
   id="path571" />
					</g>
					<g
   id="g577">
						<path
   class="st1"
   d="M 150.4,-74.9 H 0.5 V 74.9 H 150.4 V -74.9 m -0.8,0.7 0.2,-0.2 V 74.2 H 1.5 1.2 V -74.4 h 148.4 z"
   id="path575" />
					</g>
					<g
   id="g581">
						<path
   class="st2"
   d="m 143.1,-67.5 v 0 L 8,-67.6 V 67.7 L 8.3,67.4 H 143 V -67.5 Z"
   id="path579" />
					</g>
					<g
   id="g585">
						<path
   class="st3"
   d="m 149.6,-74.2 v -0.2 H 1.2 V 74.2 H 1.4 L 8,67.7 V -67.6 h 135.2 z"
   id="path583" />
					</g>
					<g
   id="g589">
						<path
   class="st4"
   d="m 149.8,-74.4 -0.2,0.2 -6.4,6.5 -0.1,0.1 v 135 H 8.3 L 8,67.7 1.5,74.1 h 148.3 z"
   id="path587" />
					</g>
				</g>
			</g>
		</g>
	</g><g
   transform="matrix(0.80828857,0,0,0.80828857,122.77332,420.2491)"
   id="g623">
		<g
   id="g621">
			<g
   id="g619">
				<g
   id="Duplicate_Items_Folder_Symbol_4_0_Layer0_0_FILL_00000021115631079104637930000004684443091697030027_">
					<g
   id="g600">
						<path
   class="st0"
   d="m 151.2,-75.8 c -0.1,-0.1 -0.2,-0.1 -0.4,-0.1 H 0 c -0.1,0 -0.3,0.1 -0.3,0.1 -0.1,0.1 -0.1,0.2 -0.1,0.4 V 75.4 c 0,0.1 0.1,0.3 0.1,0.4 0.1,0.1 0.2,0.1 0.3,0.1 h 150.9 c 0.1,0 0.3,-0.1 0.4,-0.1 0.1,-0.1 0.1,-0.2 0.1,-0.4 V -75.4 c 0,-0.2 -0.1,-0.3 -0.2,-0.4 M 0.5,-74.9 H 150.4 V 74.9 H 0.5 Z"
   id="path598" />
					</g>
					<g
   id="g604">
						<path
   class="st1"
   d="M 150.4,-74.9 H 0.5 V 74.9 H 150.4 V -74.9 m -0.8,0.7 0.2,-0.2 V 74.2 H 1.5 1.2 V -74.4 h 148.4 z"
   id="path602" />
					</g>
					<g
   id="g608">
						<path
   class="st2"
   d="m 143.1,-67.5 v 0 L 8,-67.6 V 67.7 l 0.4,-0.3 h 134.7 z"
   id="path606" />
					</g>
					<g
   id="g612">
						<path
   class="st3"
   d="m 149.6,-74.2 v -0.2 H 1.2 V 74.2 H 1.4 L 8,67.7 V -67.6 h 135.2 z"
   id="path610" />
					</g>
					<g
   id="g616">
						<path
   class="st4"
   d="m 149.8,-74.4 -0.2,0.2 -6.4,6.5 -0.1,0.1 v 135 H 8.3 L 8,67.7 1.5,74.1 h 148.3 z"
   id="path614" />
					</g>
				</g>
			</g>
		</g>
	</g><g
   transform="matrix(0.80828857,0,0,0.80828857,245.22332,420.2491)"
   id="g650">
		<g
   id="g648">
			<g
   id="g646">
				<g
   id="Duplicate_Items_Folder_Symbol_4_0_Layer0_0_FILL_00000099637343416124633990000000342304737978954899_">
					<g
   id="g627">
						<path
   class="st0"
   d="m 151.2,-75.8 c -0.1,-0.1 -0.2,-0.1 -0.4,-0.1 H 0 c -0.1,0 -0.3,0.1 -0.3,0.1 -0.1,0.1 -0.1,0.2 -0.1,0.4 V 75.4 c 0,0.1 0.1,0.3 0.1,0.4 0.1,0.1 0.2,0.1 0.3,0.1 h 150.9 c 0.1,0 0.3,-0.1 0.4,-0.1 0.1,-0.1 0.1,-0.2 0.1,-0.4 V -75.4 c 0,-0.2 -0.1,-0.3 -0.2,-0.4 M 0.5,-74.9 H 150.4 V 74.9 H 0.5 Z"
   id="path625" />
					</g>
					<g
   id="g631">
						<path
   class="st1"
   d="M 150.4,-74.9 H 0.5 V 74.9 H 150.4 V -74.9 m -0.8,0.7 0.2,-0.2 V 74.2 H 1.5 1.2 V -74.4 h 148.4 z"
   id="path629" />
					</g>
					<g
   id="g635">
						<path
   class="st2"
   d="m 143.1,-67.5 v 0 L 8,-67.6 V 67.7 L 8.3,67.4 H 143 V -67.5 Z"
   id="path633" />
					</g>
					<g
   id="g639">
						<path
   class="st3"
   d="m 149.6,-74.2 v -0.2 H 1.2 V 74.2 H 1.4 L 8,67.7 V -67.6 h 135.2 z"
   id="path637" />
					</g>
					<g
   id="g643">
						<path
   class="st4"
   d="m 149.8,-74.4 -0.2,0.2 -6.4,6.5 -0.1,0.1 v 135 H 8.3 L 8,67.7 1.5,74.1 h 148.3 z"
   id="path641" />
					</g>
				</g>
			</g>
		</g>
	</g><g
   transform="matrix(0.80828857,0,0,0.80828857,367.67332,420.2491)"
   id="g677">
		<g
   id="g675">
			<g
   id="g673">
				<g
   id="Duplicate_Items_Folder_Symbol_4_0_Layer0_0_FILL_00000176002238526707892410000010896268844058837653_">
					<g
   id="g654">
						<path
   class="st0"
   d="m 151.2,-75.8 c -0.1,-0.1 -0.2,-0.1 -0.4,-0.1 H 0 c -0.1,0 -0.3,0.1 -0.3,0.1 -0.1,0.1 -0.1,0.2 -0.1,0.4 V 75.4 c 0,0.1 0.1,0.3 0.1,0.4 0.1,0.1 0.2,0.1 0.3,0.1 h 150.9 c 0.1,0 0.3,-0.1 0.4,-0.1 0.1,-0.1 0.1,-0.2 0.1,-0.4 V -75.4 c 0,-0.2 -0.1,-0.3 -0.2,-0.4 M 0.5,-74.9 H 150.4 V 74.9 H 0.5 Z"
   id="path652" />
					</g>
					<g
   id="g658">
						<path
   class="st1"
   d="M 150.4,-74.9 H 0.5 V 74.9 H 150.4 V -74.9 m -0.8,0.7 0.2,-0.2 V 74.2 H 1.5 1.2 V -74.4 h 148.4 z"
   id="path656" />
					</g>
					<g
   id="g662">
						<path
   class="st2"
   d="m 143.1,-67.5 v 0 L 8,-67.6 V 67.7 L 8.3,67.4 H 143 V -67.5 Z"
   id="path660" />
					</g>
					<g
   id="g666">
						<path
   class="st3"
   d="m 149.6,-74.2 v -0.2 H 1.2 V 74.2 H 1.4 L 8,67.7 V -67.6 h 135.2 z"
   id="path664" />
					</g>
					<g
   id="g670">
						<path
   class="st4"
   d="m 149.8,-74.4 -0.2,0.2 -6.4,6.5 -0.1,0.1 v 135 H 8.3 L 8,67.7 1.5,74.1 h 148.3 z"
   id="path668" />
					</g>
				</g>
			</g>
		</g>
	</g><g
   transform="matrix(0.80828857,0,0,0.80828857,490.12332,420.2491)"
   id="g704">
		<g
   id="g702">
			<g
   id="g700">
				<g
   id="Duplicate_Items_Folder_Symbol_4_0_Layer0_0_FILL_00000016033674009377286970000017306531843277609653_">
					<g
   id="g681">
						<path
   class="st0"
   d="m 151.2,-75.8 c -0.1,-0.1 -0.2,-0.1 -0.4,-0.1 H 0 c -0.1,0 -0.3,0.1 -0.3,0.1 -0.1,0.1 -0.1,0.2 -0.1,0.4 V 75.4 c 0,0.1 0.1,0.3 0.1,0.4 0.1,0.1 0.2,0.1 0.3,0.1 h 150.9 c 0.1,0 0.3,-0.1 0.4,-0.1 0.1,-0.1 0.1,-0.2 0.1,-0.4 V -75.4 c 0,-0.2 -0.1,-0.3 -0.2,-0.4 M 0.5,-74.9 H 150.4 V 74.9 H 0.5 Z"
   id="path679" />
					</g>
					<g
   id="g685">
						<path
   class="st1"
   d="M 150.4,-74.9 H 0.5 V 74.9 H 150.4 V -74.9 m -0.8,0.7 0.2,-0.2 V 74.2 H 1.5 1.2 V -74.4 h 148.4 z"
   id="path683" />
					</g>
					<g
   id="g689">
						<path
   class="st2"
   d="m 143.1,-67.5 v 0 L 8,-67.6 V 67.7 l 0.4,-0.3 h 134.7 z"
   id="path687" />
					</g>
					<g
   id="g693">
						<path
   class="st3"
   d="m 149.6,-74.2 v -0.2 H 1.2 V 74.2 H 1.4 L 8,67.7 V -67.6 h 135.2 z"
   id="path691" />
					</g>
					<g
   id="g697">
						<path
   class="st4"
   d="m 149.8,-74.4 -0.2,0.2 -6.4,6.5 -0.1,0.1 v 135 H 8.3 L 8,67.7 1.5,74.1 h 148.3 z"
   id="path695" />
					</g>
				</g>
			</g>
		</g>
	</g><g
   transform="matrix(0.80828857,0,0,0.80828857,612.57332,420.2491)"
   id="g731">
		<g
   id="g729">
			<g
   id="g727">
				<g
   id="Duplicate_Items_Folder_Symbol_4_0_Layer0_0_FILL_00000024680212973241960100000004283109319019715491_">
					<g
   id="g708">
						<path
   class="st0"
   d="m 151.2,-75.8 c -0.1,-0.1 -0.2,-0.1 -0.4,-0.1 H 0 c -0.1,0 -0.3,0.1 -0.3,0.1 -0.1,0.1 -0.1,0.2 -0.1,0.4 V 75.4 c 0,0.1 0.1,0.3 0.1,0.4 0.1,0.1 0.2,0.1 0.3,0.1 h 150.9 c 0.1,0 0.3,-0.1 0.4,-0.1 0.1,-0.1 0.1,-0.2 0.1,-0.4 V -75.4 c 0,-0.2 -0.1,-0.3 -0.2,-0.4 M 0.5,-74.9 H 150.4 V 74.9 H 0.5 Z"
   id="path706" />
					</g>
					<g
   id="g712">
						<path
   class="st1"
   d="M 150.4,-74.9 H 0.5 V 74.9 H 150.4 V -74.9 m -0.8,0.7 0.2,-0.2 V 74.2 H 1.5 1.2 V -74.4 h 148.4 z"
   id="path710" />
					</g>
					<g
   id="g716">
						<path
   class="st2"
   d="m 143.1,-67.5 v 0 L 8,-67.6 V 67.7 l 0.4,-0.3 h 134.7 z"
   id="path714" />
					</g>
					<g
   id="g720">
						<path
   class="st3"
   d="m 149.6,-74.2 v -0.2 H 1.2 V 74.2 H 1.4 L 8,67.7 V -67.6 h 135.2 z"
   id="path718" />
					</g>
					<g
   id="g724">
						<path
   class="st4"
   d="m 149.8,-74.4 -0.2,0.2 -6.4,6.5 -0.1,0.1 v 135 H 8.3 L 8,67.7 1.5,74.1 h 148.3 z"
   id="path722" />
					</g>
				</g>
			</g>
		</g>
	</g><g
   transform="matrix(0.80828857,0,0,0.80828857,735.12332,420.2491)"
   id="g758">
		<g
   id="g756">
			<g
   id="g754">
				<g
   id="Duplicate_Items_Folder_Symbol_4_0_Layer0_0_FILL_00000039098422256013575520000012491069073063509920_">
					<g
   id="g735">
						<path
   class="st0"
   d="m 151.2,-75.8 c -0.1,-0.1 -0.2,-0.1 -0.4,-0.1 H 0 c -0.1,0 -0.3,0.1 -0.3,0.1 -0.1,0.1 -0.1,0.2 -0.1,0.4 V 75.4 c 0,0.1 0.1,0.3 0.1,0.4 0.1,0.1 0.2,0.1 0.3,0.1 h 150.9 c 0.1,0 0.3,-0.1 0.4,-0.1 0.1,-0.1 0.1,-0.2 0.1,-0.4 V -75.4 c 0,-0.2 -0.1,-0.3 -0.2,-0.4 M 0.5,-74.9 H 150.4 V 74.9 H 0.5 Z"
   id="path733" />
					</g>
					<g
   id="g739">
						<path
   class="st1"
   d="M 150.4,-74.9 H 0.5 V 74.9 H 150.4 V -74.9 m -0.8,0.7 0.2,-0.2 V 74.2 H 1.5 1.2 V -74.4 h 148.4 z"
   id="path737" />
					</g>
					<g
   id="g743">
						<path
   class="st2"
   d="m 143.1,-67.5 v 0 L 8,-67.6 V 67.7 l 0.4,-0.3 h 134.7 z"
   id="path741" />
					</g>
					<g
   id="g747">
						<path
   class="st3"
   d="m 149.6,-74.2 v -0.2 H 1.2 V 74.2 H 1.4 L 8,67.7 V -67.6 h 135.2 z"
   id="path745" />
					</g>
					<g
   id="g751">
						<path
   class="st4"
   d="m 149.8,-74.4 -0.2,0.2 -6.4,6.5 -0.1,0.1 v 135 H 8.3 L 8,67.7 1.5,74.1 h 148.3 z"
   id="path749" />
					</g>
				</g>
			</g>
		</g>
	</g>
<g
   id="_x32_bYVbg_00000149370432276206216530000006313526561954679431_"
   transform="translate(-122.5662,-239.30614)">
	<g
   id="g983">
		<g
   id="g953">
			<path
   class="st3"
   d="m 707.8,422.4 c 0,8 0,16.1 0,24.1 0,5.1 -3.2,9 -8.2,10 -0.6,0.1 -1.1,0.1 -1.7,0.1 -6.2,-0.2 -12.5,-0.6 -18.7,-0.5 -6.1,0.1 -12.2,0.6 -18.3,0.8 -4.1,0.2 -8.3,0.3 -12.4,0.2 -4.5,-0.1 -8.7,-3.8 -9.8,-8.4 -0.2,-0.9 -0.3,-1.7 -0.3,-2.6 0,-16.1 0,-32.2 0,-48.4 0,-5.8 4.5,-10.2 10.3,-10.1 7.5,0.2 14.9,-0.3 22.4,-0.8 7.6,-0.5 15.1,-0.5 22.7,0 1.8,0.1 3.7,0.2 5.5,0.5 4.8,0.9 8.7,5.5 8.7,10.5 -0.1,8.2 -0.2,16.4 -0.2,24.6 z m -4.6,-0.2 c 0,-8 0,-16.1 0,-24.1 0,-3.1 -1.9,-5.6 -4.9,-6.2 -1.5,-0.3 -3.1,-0.3 -4.6,-0.4 -8.3,-0.6 -16.6,-0.4 -25,0.1 -6.5,0.3 -13.1,0.5 -19.6,0.7 -3.8,0.1 -6.2,2.3 -6.2,6.1 0,13.5 0,26.9 0,40.4 0,2.6 0,5.1 0,7.7 0,3.2 2.7,6.1 5.9,6 4.9,0 9.8,-0.1 14.7,-0.3 5,-0.2 9.9,-0.6 14.9,-0.7 6.2,-0.2 12.5,0.2 18.7,0.5 3.6,0.2 6.1,-2.2 6.1,-5.8 0,-8 0,-16 0,-24 z"
   id="path951" />
		</g>
		<g
   id="g957">
			<path
   class="st5"
   d="m 703.2,422.2 c 0,8 0,15.9 0,23.9 0,3.6 -2.5,6 -6.1,5.8 -6.2,-0.3 -12.5,-0.8 -18.7,-0.5 -5,0.2 -9.9,0.6 -14.9,0.7 -4.9,0.2 -9.8,0.3 -14.7,0.3 -3.2,0 -5.9,-2.8 -5.9,-6 0,-2.6 0,-5.1 0,-7.7 0,-13.5 0,-26.9 0,-40.4 0,-3.8 2.4,-6 6.2,-6.1 6.6,-0.1 13.1,-0.3 19.6,-0.7 8.3,-0.4 16.6,-0.6 25,-0.1 1.5,0.1 3.1,0.1 4.6,0.4 3,0.6 4.9,3.2 4.9,6.2 0,8.1 0,16.2 0,24.2 z"
   id="path955" />
		</g>
		<g
   id="g961">
			<path
   class="st3"
   d="m 653.4,439.5 c 0,-3.7 3,-6.7 6.8,-6.7 3.4,0 6.2,2.7 6.2,6.1 0,3.9 -3,7 -6.7,7 -3.4,0 -6.2,-2.8 -6.3,-6.4 z"
   id="path959" />
		</g>
		<g
   id="g965">
			<path
   class="st3"
   d="m 659.7,413 c -3.7,0 -6.7,-3 -6.7,-6.8 0,-3.4 2.7,-6.2 6.1,-6.2 3.9,0 7,3 7,6.7 0,3.5 -2.8,6.3 -6.4,6.3 z"
   id="path963" />
		</g>
		<g
   id="g969">
			<path
   class="st3"
   d="m 660.3,429.2 c -3.7,0 -6.7,-3 -6.7,-6.8 0,-3.4 2.7,-6.2 6.1,-6.2 3.9,0 7,3 7,6.7 0,3.5 -2.8,6.3 -6.4,6.3 z"
   id="path967" />
		</g>
		<g
   id="g973">
			<path
   class="st3"
   d="m 679.6,439.2 c 0,-3.7 3,-6.7 6.8,-6.7 3.4,0 6.2,2.7 6.2,6.1 0,3.9 -3,7 -6.7,7 -3.5,0 -6.3,-2.8 -6.3,-6.4 z"
   id="path971" />
		</g>
		<g
   id="g977">
			<path
   class="st3"
   d="m 685.9,412.7 c -3.7,0 -6.7,-3 -6.7,-6.8 0,-3.4 2.7,-6.2 6.1,-6.2 3.9,0 7,3 7,6.7 0,3.5 -2.8,6.3 -6.4,6.3 z"
   id="path975" />
		</g>
		<g
   id="g981">
			<path
   class="st3"
   d="m 686.5,428.9 c -3.7,0 -6.7,-3 -6.7,-6.8 0,-3.4 2.7,-6.2 6.1,-6.2 3.9,0 7,3 7,6.7 0,3.5 -2.8,6.2 -6.4,6.3 z"
   id="path979" />
		</g>
	</g>
</g>
<g
   id="_x32_bYVbg_00000138542729637125841200000005928760545861563835_"
   transform="translate(-122.5662,-238.16138)">
	<g
   id="g1018">
		<g
   id="g988">
			<path
   class="st3"
   d="m 831.1,540.6 c 0,8 0,16.1 0,24.1 0,5.1 -3.2,9 -8.2,10 -0.6,0.1 -1.1,0.1 -1.7,0.1 -6.2,-0.2 -12.5,-0.6 -18.7,-0.5 -6.1,0.1 -12.2,0.6 -18.3,0.8 -4.1,0.2 -8.3,0.3 -12.4,0.2 -4.5,-0.1 -8.7,-3.8 -9.8,-8.4 -0.2,-0.9 -0.3,-1.7 -0.3,-2.6 0,-16.1 0,-32.2 0,-48.4 0,-5.8 4.5,-10.2 10.3,-10.1 7.5,0.2 14.9,-0.3 22.4,-0.8 7.6,-0.5 15.1,-0.5 22.7,0 1.8,0.1 3.7,0.2 5.5,0.5 4.8,0.9 8.7,5.5 8.7,10.5 -0.2,8.2 -0.2,16.4 -0.2,24.6 z m -4.6,-0.2 c 0,-8 0,-16.1 0,-24.1 0,-3.1 -1.9,-5.6 -4.9,-6.2 -1.5,-0.3 -3.1,-0.3 -4.6,-0.4 -8.3,-0.6 -16.6,-0.4 -25,0.1 -6.5,0.3 -13.1,0.5 -19.6,0.7 -3.8,0.1 -6.2,2.3 -6.2,6.1 0,13.5 0,26.9 0,40.4 0,2.6 0,5.1 0,7.7 0,3.2 2.7,6.1 5.9,6 4.9,0 9.8,-0.1 14.7,-0.3 5,-0.2 9.9,-0.6 14.9,-0.7 6.2,-0.2 12.5,0.2 18.7,0.5 3.6,0.2 6.1,-2.2 6.1,-5.8 0,-8 0,-16 0,-24 z"
   id="path986" />
		</g>
		<g
   id="g992">
			<path
   class="st5"
   d="m 826.5,540.4 c 0,8 0,15.9 0,23.9 0,3.6 -2.5,6 -6.1,5.8 -6.2,-0.3 -12.5,-0.8 -18.7,-0.5 -5,0.2 -9.9,0.6 -14.9,0.7 -4.9,0.2 -9.8,0.3 -14.7,0.3 -3.2,0 -5.9,-2.8 -5.9,-6 0,-2.6 0,-5.1 0,-7.7 0,-13.5 0,-26.9 0,-40.4 0,-3.8 2.4,-6 6.2,-6.1 6.6,-0.1 13.1,-0.3 19.6,-0.7 8.3,-0.4 16.6,-0.6 25,-0.1 1.5,0.1 3.1,0.1 4.6,0.4 3,0.6 4.9,3.2 4.9,6.2 0,8.1 0,16.2 0,24.2 z"
   id="path990" />
		</g>
		<g
   id="g996">
			<path
   class="st3"
   d="m 776.7,557.7 c 0,-3.7 3,-6.7 6.8,-6.7 3.4,0 6.2,2.7 6.2,6.1 0,3.9 -3,7 -6.7,7 -3.5,0 -6.2,-2.8 -6.3,-6.4 z"
   id="path994" />
		</g>
		<g
   id="g1000">
			<path
   class="st3"
   d="m 783,531.2 c -3.7,0 -6.7,-3 -6.7,-6.8 0,-3.4 2.7,-6.2 6.1,-6.2 3.9,0 7,3 7,6.7 0,3.5 -2.8,6.3 -6.4,6.3 z"
   id="path998" />
		</g>
		<g
   id="g1004">
			<path
   class="st3"
   d="m 783.6,547.4 c -3.7,0 -6.7,-3 -6.7,-6.8 0,-3.4 2.7,-6.2 6.1,-6.2 3.9,0 7,3 7,6.7 0,3.5 -2.8,6.3 -6.4,6.3 z"
   id="path1002" />
		</g>
		<g
   id="g1008">
			<path
   class="st3"
   d="m 802.9,557.4 c 0,-3.7 3,-6.7 6.8,-6.7 3.4,0 6.2,2.7 6.2,6.1 0,3.9 -3,7 -6.7,7 -3.5,0 -6.3,-2.8 -6.3,-6.4 z"
   id="path1006" />
		</g>
		<g
   id="g1012">
			<path
   class="st3"
   d="m 809.1,530.9 c -3.7,0 -6.7,-3 -6.7,-6.8 0,-3.4 2.7,-6.2 6.1,-6.2 3.9,0 7,3 7,6.7 0.1,3.5 -2.7,6.3 -6.4,6.3 z"
   id="path1010" />
		</g>
		<g
   id="g1016">
			<path
   class="st3"
   d="m 809.7,547.1 c -3.7,0 -6.7,-3 -6.7,-6.8 0,-3.4 2.7,-6.2 6.1,-6.2 3.9,0 7,3 7,6.7 0.1,3.5 -2.7,6.2 -6.4,6.3 z"
   id="path1014" />
		</g>
	</g>
</g>
<g
   id="g1033"
   transform="translate(-0.07668457,-0.05089754)">
	<g
   id="g1023">
		<path
   class="st3"
   d="m 344.1,62.9 c 0,8.6 0,17.2 0,25.8 0,5.5 -3.5,9.6 -8.8,10.7 -0.6,0.1 -1.2,0.1 -1.8,0.1 -6.7,-0.2 -13.3,-0.6 -20,-0.5 -6.5,0.1 -13.1,0.6 -19.6,0.9 -4.4,0.2 -8.8,0.3 -13.3,0.2 -4.8,-0.1 -9.3,-4.1 -10.4,-8.9 -0.2,-0.9 -0.3,-1.9 -0.3,-2.8 0,-17.2 0,-34.5 0,-51.7 0,-6.2 4.8,-11 11,-10.8 8,0.2 16,-0.3 23.9,-0.8 8.1,-0.5 16.2,-0.5 24.2,0.1 2,0.1 3.9,0.2 5.9,0.5 5.2,0.9 9.3,5.9 9.3,11.2 -0.1,8.5 -0.1,17.2 -0.1,26 z m -5,-0.2 c 0,-8.6 0,-17.2 0,-25.8 0,-3.3 -2,-6 -5.2,-6.7 -1.6,-0.3 -3.3,-0.3 -5,-0.4 -8.9,-0.6 -17.8,-0.4 -26.7,0.1 -7,0.4 -14,0.6 -21,0.7 -4,0.1 -6.6,2.5 -6.6,6.5 0,14.4 0,28.8 0,43.2 0,2.7 0,5.5 0,8.2 0,3.5 2.9,6.5 6.3,6.5 5.2,0 10.5,-0.1 15.7,-0.3 5.3,-0.2 10.6,-0.6 15.9,-0.8 6.7,-0.2 13.3,0.2 20,0.6 3.8,0.2 6.5,-2.4 6.5,-6.2 0.1,-8.5 0.1,-17.1 0.1,-25.6 z"
   id="path1021" />
	</g>
	<g
   id="g1027">
		<path
   class="st6"
   d="m 339.1,62.7 c 0,8.5 0,17 0,25.6 0,3.8 -2.6,6.4 -6.5,6.2 -6.7,-0.4 -13.3,-0.8 -20,-0.6 -5.3,0.2 -10.6,0.6 -15.9,0.8 -5.2,0.2 -10.5,0.3 -15.7,0.3 -3.5,0 -6.3,-3 -6.3,-6.5 0,-2.7 0,-5.5 0,-8.2 0,-14.4 0,-28.8 0,-43.2 0,-4 2.6,-6.5 6.6,-6.5 7,-0.2 14,-0.4 21,-0.7 8.9,-0.5 17.8,-0.7 26.7,-0.1 1.7,0.1 3.3,0.1 5,0.4 3.2,0.7 5.2,3.4 5.2,6.7 -0.1,8.6 -0.1,17.2 -0.1,25.8 z"
   id="path1025" />
	</g>
	<g
   id="g1031">
		<path
   class="st3"
   d="m 299.9,62.4 c 0,-4 3.2,-7.1 7.3,-7.2 3.6,0 6.6,2.9 6.7,6.5 0,4.1 -3.2,7.5 -7.2,7.5 -3.8,0.1 -6.8,-2.9 -6.8,-6.8 z"
   id="path1029" />
	</g>
</g>
<g
   id="g1051"
   transform="translate(-0.07668457,-0.05089754)">
	<g
   id="g1037">
		<path
   class="st3"
   d="m 830.8,182.4 c 0,8.4 0,16.7 0,25.1 0,5.3 -3.4,9.4 -8.6,10.4 -0.6,0.1 -1.2,0.1 -1.8,0.1 -6.5,-0.2 -13,-0.6 -19.5,-0.5 -6.4,0.1 -12.7,0.6 -19.1,0.9 -4.3,0.2 -8.6,0.3 -12.9,0.2 -4.6,-0.1 -9.1,-4 -10.2,-8.7 -0.2,-0.9 -0.3,-1.8 -0.3,-2.7 0,-16.8 0,-33.5 0,-50.3 0,-6 4.6,-10.7 10.7,-10.5 7.8,0.2 15.5,-0.3 23.3,-0.8 7.9,-0.5 15.7,-0.5 23.6,0.1 1.9,0.1 3.8,0.2 5.7,0.5 5,0.9 9,5.8 9.1,10.9 0.1,8.3 0,16.8 0,25.3 z m -4.7,-0.2 c 0,-8.4 0,-16.7 0,-25.1 0,-3.2 -2,-5.8 -5.1,-6.5 -1.6,-0.3 -3.2,-0.3 -4.8,-0.4 -8.7,-0.6 -17.3,-0.4 -25.9,0.1 -6.8,0.3 -13.6,0.5 -20.4,0.7 -3.9,0.1 -6.4,2.4 -6.4,6.4 0,14 0,28 0,42 0,2.7 0,5.3 0,8 0,3.4 2.8,6.3 6.1,6.3 5.1,0 10.2,-0.1 15.3,-0.3 5.2,-0.2 10.3,-0.6 15.5,-0.8 6.5,-0.2 13,0.2 19.5,0.6 3.7,0.2 6.3,-2.3 6.3,-6 -0.1,-8.4 -0.2,-16.7 -0.1,-25 z"
   id="path1035" />
	</g>
	<g
   id="g1041">
		<path
   class="st7"
   d="m 826,182.2 c 0,8.3 0,16.6 0,24.8 0,3.7 -2.6,6.3 -6.3,6 -6.5,-0.4 -13,-0.8 -19.5,-0.6 -5.2,0.2 -10.3,0.6 -15.5,0.8 -5.1,0.2 -10.2,0.3 -15.3,0.3 -3.4,0 -6.1,-2.9 -6.1,-6.3 0,-2.7 0,-5.3 0,-8 0,-14 0,-28 0,-42 0,-3.9 2.5,-6.3 6.4,-6.4 6.8,-0.2 13.6,-0.4 20.4,-0.7 8.7,-0.4 17.3,-0.6 25.9,-0.1 1.6,0.1 3.3,0.1 4.8,0.4 3.1,0.7 5.1,3.3 5.1,6.5 0.2,8.6 0.2,17 0.1,25.3 z"
   id="path1039" />
	</g>
	<g
   id="g1045">
		<path
   class="st3"
   d="m 801.5,168.3 c 0,-3.9 3.1,-6.9 7.1,-7 3.5,0 6.5,2.8 6.5,6.3 0,4 -3.1,7.3 -7,7.3 -3.6,0.1 -6.5,-2.9 -6.6,-6.6 z"
   id="path1043" />
	</g>
	<g
   id="g1049">
		<path
   class="st3"
   d="m 774.3,196.4 c 0,-3.9 3.1,-6.9 7.1,-7 3.5,0 6.5,2.8 6.5,6.3 0,4 -3.1,7.3 -7,7.3 -3.7,0.1 -6.6,-2.8 -6.6,-6.6 z"
   id="path1047" />
	</g>
</g>
<g
   id="g1069"
   transform="translate(-0.07668457,-0.05089754)">
	<g
   id="g1055">
		<path
   class="st3"
   d="m 711,62.8 c 0,8.4 0,16.7 0,25.1 0,5.3 -3.4,9.4 -8.6,10.4 -0.6,0.1 -1.2,0.1 -1.8,0.1 -6.5,-0.2 -13,-0.6 -19.5,-0.5 -6.4,0.1 -12.7,0.6 -19.1,0.9 -4.3,0.2 -8.6,0.3 -12.9,0.2 -4.6,-0.1 -9.1,-4 -10.2,-8.7 -0.2,-0.9 -0.3,-1.8 -0.3,-2.7 0,-16.8 0,-33.5 0,-50.3 0,-6 4.6,-10.7 10.7,-10.5 7.8,0.2 15.5,-0.3 23.3,-0.8 7.9,-0.5 15.7,-0.5 23.6,0.1 1.9,0.1 3.8,0.2 5.7,0.5 5,0.9 9,5.8 9.1,10.9 0,8.3 0,16.8 0,25.3 z m -4.8,-0.1 c 0,-8.4 0,-16.7 0,-25.1 0,-3.2 -2,-5.8 -5.1,-6.5 -1.6,-0.3 -3.2,-0.3 -4.8,-0.4 -8.7,-0.6 -17.3,-0.4 -25.9,0.1 -6.8,0.3 -13.6,0.5 -20.4,0.7 -3.9,0.1 -6.4,2.4 -6.4,6.4 0,14 0,28 0,42 0,2.7 0,5.3 0,8 0,3.4 2.8,6.3 6.1,6.3 5.1,0 10.2,-0.1 15.3,-0.3 5.2,-0.2 10.3,-0.6 15.5,-0.8 6.5,-0.2 13,0.2 19.5,0.6 3.7,0.2 6.3,-2.3 6.3,-6 -0.1,-8.4 -0.1,-16.7 -0.1,-25 z"
   id="path1053" />
	</g>
	<g
   id="g1059">
		<path
   class="st7"
   d="m 706.2,62.7 c 0,8.3 0,16.6 0,24.8 0,3.7 -2.6,6.3 -6.3,6 -6.5,-0.4 -13,-0.8 -19.5,-0.6 -5.2,0.2 -10.3,0.6 -15.5,0.8 -5.1,0.2 -10.2,0.3 -15.3,0.3 -3.4,0 -6.1,-2.9 -6.1,-6.3 0,-2.7 0,-5.3 0,-8 0,-14 0,-28 0,-42 0,-3.9 2.5,-6.3 6.4,-6.4 6.8,-0.2 13.6,-0.4 20.4,-0.7 8.7,-0.4 17.3,-0.6 25.9,-0.1 1.6,0.1 3.3,0.1 4.8,0.4 3.1,0.7 5.1,3.3 5.1,6.5 0.1,8.6 0.1,16.9 0.1,25.3 z"
   id="path1057" />
	</g>
	<g
   id="g1063">
		<path
   class="st3"
   d="m 681.7,48.7 c 0,-3.9 3.1,-6.9 7.1,-7 3.5,0 6.5,2.8 6.5,6.3 0,4 -3.1,7.3 -7,7.3 -3.7,0.1 -6.6,-2.8 -6.6,-6.6 z"
   id="path1061" />
	</g>
	<g
   id="g1067">
		<path
   class="st3"
   d="m 654.5,76.9 c 0,-3.9 3.1,-6.9 7.1,-7 3.5,0 6.5,2.8 6.5,6.3 0,4 -3.1,7.3 -7,7.3 -3.7,0.1 -6.6,-2.8 -6.6,-6.6 z"
   id="path1065" />
	</g>
</g>
<g
   id="g1091"
   transform="translate(-0.07668457,-0.05089754)">
	<g
   id="g1073">
		<path
   class="st3"
   d="m 220.4,181.7 c 0,8.4 0,16.8 0,25.2 0,5.3 -3.4,9.4 -8.6,10.4 -0.6,0.1 -1.2,0.1 -1.8,0.1 -6.5,-0.2 -13.1,-0.6 -19.6,-0.5 -6.4,0.1 -12.8,0.6 -19.2,0.9 -4.3,0.2 -8.7,0.3 -13,0.2 -4.7,-0.1 -9.1,-4 -10.2,-8.8 -0.2,-0.9 -0.3,-1.8 -0.3,-2.7 0,-16.9 0,-33.7 0,-50.6 0,-6.1 4.7,-10.7 10.7,-10.6 7.8,0.2 15.6,-0.3 23.4,-0.8 7.9,-0.5 15.8,-0.5 23.7,0.1 1.9,0.1 3.9,0.2 5.7,0.5 5.1,0.9 9.1,5.8 9.1,10.9 0.1,8.6 0.1,17.2 0.1,25.7 z m -4.9,-0.1 c 0,-8.4 0,-16.8 0,-25.2 0,-3.2 -2,-5.9 -5.1,-6.5 -1.6,-0.3 -3.2,-0.3 -4.8,-0.4 -8.7,-0.6 -17.4,-0.4 -26.1,0.1 -6.8,0.3 -13.7,0.6 -20.5,0.7 -3.9,0.1 -6.4,2.5 -6.4,6.4 0,14.1 0,28.2 0,42.3 0,2.7 0,5.4 0,8 0,3.4 2.8,6.3 6.2,6.3 5.1,0 10.3,-0.1 15.4,-0.3 5.2,-0.2 10.4,-0.6 15.6,-0.8 6.5,-0.2 13.1,0.2 19.6,0.6 3.8,0.2 6.3,-2.3 6.3,-6.1 -0.2,-8.5 -0.2,-16.8 -0.2,-25.1 z"
   id="path1071" />
	</g>
	<g
   id="g1077">
		<path
   class="st8"
   d="m 215.5,181.6 c 0,8.3 0,16.7 0,25 0,3.8 -2.6,6.3 -6.3,6.1 -6.5,-0.4 -13,-0.8 -19.6,-0.6 -5.2,0.2 -10.4,0.6 -15.6,0.8 -5.1,0.2 -10.3,0.3 -15.4,0.3 -3.4,0 -6.1,-2.9 -6.2,-6.3 0,-2.7 0,-5.4 0,-8 0,-14.1 0,-28.2 0,-42.3 0,-3.9 2.5,-6.3 6.4,-6.4 6.9,-0.2 13.7,-0.4 20.5,-0.7 8.7,-0.4 17.4,-0.7 26.1,-0.1 1.6,0.1 3.3,0.1 4.8,0.4 3.1,0.7 5.1,3.3 5.1,6.5 0.2,8.5 0.2,16.9 0.2,25.3 z m -31,-7.7 c -3.8,-0.1 -7.2,3.2 -7.3,7.1 -0.1,3.7 2.8,6.6 6.6,6.6 3.7,0.1 7.1,-3.1 7.2,-6.9 0,-3.7 -2.8,-6.7 -6.5,-6.8 z m 22.2,-8.7 c 0,-4 -3.2,-7.2 -7.1,-7.2 -3.6,0 -6.6,2.9 -6.6,6.6 0,3.9 3.1,7.1 7.1,7.1 3.7,0 6.6,-2.9 6.6,-6.5 z m -45.4,32.4 c 0,3.8 3,6.7 6.7,6.7 3.9,0 7.1,-3.3 7,-7.4 0,-3.5 -3,-6.4 -6.5,-6.4 -4.1,0.1 -7.2,3.2 -7.2,7.1 z"
   id="path1075" />
	</g>
	<g
   id="g1081">
		<path
   class="st3"
   d="m 184.5,173.9 c 3.7,0.1 6.6,3.1 6.4,6.9 -0.1,3.8 -3.5,7 -7.2,6.9 -3.8,-0.1 -6.7,-3 -6.6,-6.6 0.2,-4 3.5,-7.3 7.4,-7.2 z"
   id="path1079" />
	</g>
	<g
   id="g1085">
		<path
   class="st3"
   d="m 206.7,165.2 c 0,3.7 -2.9,6.5 -6.6,6.5 -4,0 -7.1,-3.1 -7.1,-7.1 0,-3.7 3,-6.6 6.6,-6.6 3.9,0 7.1,3.2 7.1,7.2 z"
   id="path1083" />
	</g>
	<g
   id="g1089">
		<path
   class="st3"
   d="m 161.3,197.6 c 0,-3.9 3.1,-7 7.2,-7 3.5,0 6.5,2.8 6.5,6.4 0,4 -3.1,7.3 -7,7.4 -3.7,-0.1 -6.7,-3 -6.7,-6.8 z"
   id="path1087" />
	</g>
</g>
<g
   id="g1113"
   transform="translate(-0.07668457,-0.05089754)">
	<g
   id="g1095">
		<path
   class="st3"
   d="m 97.7,62.1 c 0,8.4 0,16.8 0,25.2 0,5.3 -3.4,9.4 -8.6,10.4 -0.6,0.1 -1.2,0.1 -1.8,0.1 -6.5,-0.2 -13.1,-0.6 -19.6,-0.5 -6.4,0.1 -12.8,0.6 -19.2,0.9 -4.3,0.2 -8.7,0.3 -13,0.2 -4.7,-0.1 -9.1,-4 -10.2,-8.8 C 25.1,88.7 25,87.8 25,86.9 25,70 25,53.2 25,36.3 c 0,-6.1 4.7,-10.7 10.7,-10.6 7.8,0.2 15.6,-0.3 23.4,-0.8 7.9,-0.5 15.8,-0.5 23.7,0.1 1.9,0.1 3.9,0.2 5.7,0.5 5.1,0.9 9.1,5.8 9.1,10.9 0.1,8.6 0.1,17.1 0.1,25.7 z m -4.8,-0.2 c 0,-8.4 0,-16.8 0,-25.2 0,-3.2 -2,-5.9 -5.1,-6.5 C 86.2,29.9 84.6,29.9 83,29.8 74.3,29.2 65.6,29.4 56.9,29.9 50.1,30.2 43.2,30.5 36.4,30.6 32.5,30.7 30,33.1 30,37 c 0,14.1 0,28.2 0,42.3 0,2.7 0,5.4 0,8 0,3.4 2.8,6.3 6.2,6.3 5.1,0 10.3,-0.1 15.4,-0.3 5.2,-0.2 10.4,-0.6 15.6,-0.8 6.5,-0.2 13.1,0.2 19.6,0.6 3.8,0.2 6.3,-2.3 6.3,-6.1 -0.2,-8.4 -0.2,-16.7 -0.2,-25.1 z"
   id="path1093" />
	</g>
	<g
   id="g1099">
		<path
   class="st8"
   d="m 92.9,61.9 c 0,8.3 0,16.7 0,25 0,3.8 -2.6,6.3 -6.3,6.1 -6.5,-0.4 -13,-0.8 -19.6,-0.6 -5.2,0.2 -10.4,0.6 -15.6,0.8 -5.1,0.2 -10.3,0.3 -15.4,0.3 -3.4,0 -6.1,-2.9 -6.2,-6.3 0,-2.7 0,-5.4 0,-8 0,-14.1 0,-28.2 0,-42.3 0,-3.9 2.5,-6.3 6.4,-6.4 6.9,-0.2 13.7,-0.4 20.5,-0.7 8.7,-0.4 17.4,-0.7 26.1,-0.1 1.6,0.1 3.3,0.1 4.8,0.4 3.1,0.7 5.1,3.3 5.1,6.5 0.2,8.5 0.2,16.9 0.2,25.3 z M 61.8,54.2 c -3.8,-0.1 -7.2,3.2 -7.3,7.1 -0.1,3.7 2.8,6.7 6.6,6.7 3.7,0.1 7.1,-3.1 7.2,-6.9 0.1,-3.7 -2.8,-6.8 -6.5,-6.9 z m 22.3,-8.7 c 0,-4 -3.2,-7.2 -7.1,-7.2 -3.6,0 -6.6,2.9 -6.6,6.6 0,3.9 3.1,7.1 7.1,7.1 3.7,0 6.6,-2.8 6.6,-6.5 z M 38.7,78 c 0,3.8 3,6.7 6.7,6.7 3.9,0 7.1,-3.3 7,-7.4 0,-3.5 -3,-6.4 -6.5,-6.4 -4.1,0.1 -7.3,3.2 -7.2,7.1 z"
   id="path1097" />
	</g>
	<g
   id="g1103">
		<path
   class="st3"
   d="m 61.8,54.2 c 3.7,0.1 6.6,3.1 6.4,6.9 -0.1,3.8 -3.5,7 -7.2,6.9 -3.8,-0.1 -6.7,-3 -6.6,-6.6 0.2,-4 3.6,-7.3 7.4,-7.2 z"
   id="path1101" />
	</g>
	<g
   id="g1107">
		<path
   class="st3"
   d="m 84.1,45.5 c 0,3.7 -2.9,6.5 -6.6,6.5 -4,0 -7.1,-3.1 -7.1,-7.1 0,-3.7 3,-6.6 6.6,-6.6 3.9,0 7.1,3.3 7.1,7.2 z"
   id="path1105" />
	</g>
	<g
   id="g1111">
		<path
   class="st3"
   d="m 38.7,78 c 0,-3.9 3.1,-7 7.2,-7 3.5,0 6.5,2.8 6.5,6.4 0,4 -3.1,7.3 -7,7.4 -3.8,-0.1 -6.7,-3 -6.7,-6.8 z"
   id="path1109" />
	</g>
</g>
<g
   id="g1139"
   transform="translate(1.0680773,-121.39566)">
	<g
   id="g1117">
		<path
   class="st3"
   d="m 98.5,421.9 c 0,8.5 0,16.9 0,25.4 0,5.4 -3.4,9.5 -8.7,10.5 -0.6,0.1 -1.2,0.1 -1.8,0.1 -6.6,-0.2 -13.1,-0.6 -19.7,-0.5 -6.4,0.1 -12.9,0.6 -19.3,0.9 -4.3,0.2 -8.7,0.3 -13.1,0.2 -4.7,-0.1 -9.2,-4 -10.3,-8.8 -0.2,-0.9 -0.3,-1.8 -0.3,-2.8 0,-17 0,-33.9 0,-50.9 0,-6.1 4.7,-10.8 10.8,-10.6 7.9,0.2 15.7,-0.3 23.5,-0.8 7.9,-0.5 15.9,-0.5 23.8,0.1 1.9,0.1 3.9,0.2 5.8,0.5 5.1,0.9 9.1,5.8 9.2,11 0.1,8.5 0.1,17.1 0.1,25.7 z m -4.9,-0.2 c 0,-8.5 0,-16.9 0,-25.4 0,-3.2 -2,-5.9 -5.1,-6.6 -1.6,-0.3 -3.2,-0.3 -4.9,-0.4 -8.8,-0.6 -17.5,-0.4 -26.3,0.1 -6.9,0.4 -13.8,0.6 -20.7,0.7 -4,0.1 -6.5,2.5 -6.5,6.4 0,14.2 0,28.3 0,42.5 0,2.7 0,5.4 0,8.1 0,3.4 2.8,6.4 6.2,6.4 5.2,0 10.3,-0.1 15.5,-0.3 5.2,-0.2 10.5,-0.6 15.7,-0.8 6.6,-0.2 13.1,0.2 19.7,0.6 3.8,0.2 6.4,-2.3 6.4,-6.1 0,-8.4 0,-16.8 0,-25.2 z"
   id="path1115" />
	</g>
	<g
   id="g1121">
		<path
   class="st9"
   d="m 93.6,421.7 c 0,8.4 0,16.8 0,25.1 0,3.8 -2.6,6.3 -6.4,6.1 -6.6,-0.4 -13.1,-0.8 -19.7,-0.6 -5.2,0.2 -10.5,0.6 -15.7,0.8 -5.2,0.2 -10.3,0.3 -15.5,0.3 -3.4,0 -6.2,-2.9 -6.2,-6.4 0,-2.7 0,-5.4 0,-8.1 0,-14.2 0,-28.3 0,-42.5 0,-4 2.5,-6.4 6.5,-6.4 6.9,-0.2 13.8,-0.4 20.7,-0.7 8.8,-0.4 17.5,-0.7 26.3,-0.1 1.6,0.1 3.3,0.1 4.9,0.4 3.2,0.7 5.1,3.3 5.1,6.6 0.1,8.6 0,17.1 0,25.5 z"
   id="path1119" />
	</g>
	<g
   id="g1125">
		<path
   class="st3"
   d="m 68.8,407.6 c 0,-3.9 3.1,-7 7.2,-7 3.6,0 6.5,2.9 6.6,6.4 0,4.1 -3.1,7.4 -7.1,7.4 -3.7,0 -6.6,-3 -6.7,-6.8 z"
   id="path1123" />
	</g>
	<g
   id="g1129">
		<path
   class="st3"
   d="m 41.3,436.1 c 0,-3.9 3.1,-7 7.2,-7 3.6,0 6.5,2.9 6.6,6.4 0,4.1 -3.1,7.4 -7.1,7.4 -3.8,0 -6.7,-3 -6.7,-6.8 z"
   id="path1127" />
	</g>
	<g
   id="g1133">
		<path
   class="st3"
   d="m 47.8,414.4 c -3.9,0 -7,-3.1 -7,-7.2 0,-3.6 2.9,-6.5 6.4,-6.6 4.1,0 7.4,3.1 7.4,7.1 0,3.7 -2.9,6.6 -6.8,6.7 z"
   id="path1131" />
	</g>
	<g
   id="g1137">
		<path
   class="st3"
   d="m 76.3,441.9 c -3.9,0 -7,-3.1 -7,-7.2 0,-3.6 2.9,-6.5 6.4,-6.6 4.1,0 7.4,3.1 7.4,7.1 0,3.8 -3,6.7 -6.8,6.7 z"
   id="path1135" />
	</g>
</g>
<g
   id="g1165"
   transform="translate(-0.07668457,-119.10614)">
	<g
   id="g1143">
		<path
   class="st3"
   d="m 221.1,541.1 c 0,8.5 0,16.9 0,25.4 0,5.4 -3.4,9.5 -8.7,10.5 -0.6,0.1 -1.2,0.1 -1.8,0.1 -6.6,-0.2 -13.1,-0.6 -19.7,-0.5 -6.4,0.1 -12.9,0.6 -19.3,0.9 -4.3,0.2 -8.7,0.3 -13.1,0.2 -4.7,-0.1 -9.2,-4 -10.3,-8.8 -0.2,-0.9 -0.3,-1.8 -0.3,-2.8 0,-17 0,-33.9 0,-50.9 0,-6.1 4.7,-10.8 10.8,-10.6 7.9,0.2 15.7,-0.3 23.5,-0.8 7.9,-0.5 15.9,-0.5 23.8,0.1 1.9,0.1 3.9,0.2 5.8,0.5 5.1,0.9 9.1,5.8 9.2,11 0.2,8.5 0.1,17.1 0.1,25.7 z m -4.8,-0.1 c 0,-8.5 0,-16.9 0,-25.4 0,-3.2 -2,-5.9 -5.1,-6.6 -1.6,-0.3 -3.2,-0.3 -4.9,-0.4 -8.8,-0.6 -17.5,-0.4 -26.3,0.1 -6.9,0.4 -13.8,0.6 -20.7,0.7 -4,0.1 -6.5,2.5 -6.5,6.4 0,14.2 0,28.3 0,42.5 0,2.7 0,5.4 0,8.1 0,3.4 2.8,6.4 6.2,6.4 5.2,0 10.3,-0.1 15.5,-0.3 5.2,-0.2 10.5,-0.6 15.7,-0.8 6.6,-0.2 13.1,0.2 19.7,0.6 3.8,0.2 6.4,-2.3 6.4,-6.1 0,-8.5 0,-16.8 0,-25.2 z"
   id="path1141" />
	</g>
	<g
   id="g1147">
		<path
   class="st9"
   d="m 216.3,541 c 0,8.4 0,16.8 0,25.1 0,3.8 -2.6,6.3 -6.4,6.1 -6.6,-0.4 -13.1,-0.8 -19.7,-0.6 -5.2,0.2 -10.5,0.6 -15.7,0.8 -5.2,0.2 -10.3,0.3 -15.5,0.3 -3.4,0 -6.2,-2.9 -6.2,-6.4 0,-2.7 0,-5.4 0,-8.1 0,-14.2 0,-28.3 0,-42.5 0,-4 2.5,-6.4 6.5,-6.4 6.9,-0.2 13.8,-0.4 20.7,-0.7 8.8,-0.4 17.5,-0.7 26.3,-0.1 1.6,0.1 3.3,0.1 4.9,0.4 3.2,0.7 5.1,3.3 5.1,6.6 0,8.6 0,17 0,25.5 z"
   id="path1145" />
	</g>
	<g
   id="g1151">
		<path
   class="st3"
   d="m 191.5,526.9 c 0,-3.9 3.1,-7 7.2,-7 3.6,0 6.5,2.9 6.6,6.4 0,4.1 -3.1,7.4 -7.1,7.4 -3.8,-0.1 -6.7,-3 -6.7,-6.8 z"
   id="path1149" />
	</g>
	<g
   id="g1155">
		<path
   class="st3"
   d="m 163.9,555.3 c 0,-3.9 3.1,-7 7.2,-7 3.6,0 6.5,2.9 6.6,6.4 0,4.1 -3.1,7.4 -7.1,7.4 -3.7,0 -6.7,-2.9 -6.7,-6.8 z"
   id="path1153" />
	</g>
	<g
   id="g1159">
		<path
   class="st3"
   d="m 170.5,533.6 c -3.9,0 -7,-3.1 -7,-7.2 0,-3.6 2.9,-6.5 6.4,-6.6 4.1,0 7.4,3.1 7.4,7.1 -0.1,3.8 -3,6.7 -6.8,6.7 z"
   id="path1157" />
	</g>
	<g
   id="g1163">
		<path
   class="st3"
   d="m 199,561.2 c -3.9,0 -7,-3.1 -7,-7.2 0,-3.6 2.9,-6.5 6.4,-6.6 4.1,0 7.4,3.1 7.4,7.1 -0.1,3.7 -3,6.6 -6.8,6.7 z"
   id="path1161" />
	</g>
</g>
<g
   id="g1195"
   transform="translate(-0.07668457,-0.05089754)">
	<g
   id="g1169">
		<path
   class="st3"
   d="m 463.8,302.8 c 0,8.3 0,16.7 0,25 0,5.3 -3.3,9.4 -8.6,10.3 -0.6,0.1 -1.2,0.1 -1.8,0.1 -6.5,-0.2 -12.9,-0.6 -19.4,-0.5 -6.3,0.1 -12.7,0.6 -19,0.8 -4.3,0.2 -8.6,0.3 -12.9,0.2 -4.6,-0.1 -9,-4 -10.1,-8.7 -0.2,-0.9 -0.3,-1.8 -0.3,-2.7 0,-16.7 0,-33.5 0,-50.2 0,-6 4.6,-10.6 10.7,-10.5 7.8,0.2 15.5,-0.3 23.2,-0.8 7.8,-0.5 15.7,-0.5 23.5,0.1 1.9,0.1 3.8,0.2 5.7,0.5 5,0.9 9,5.7 9,10.9 0,8.6 0,17.1 0,25.5 z m -4.8,-0.1 c 0,-8.3 0,-16.7 0,-25 0,-3.2 -2,-5.8 -5.1,-6.5 -1.6,-0.3 -3.2,-0.3 -4.8,-0.4 -8.6,-0.6 -17.3,-0.4 -25.9,0.1 -6.8,0.3 -13.6,0.5 -20.4,0.7 -3.9,0.1 -6.4,2.4 -6.4,6.4 0,14 0,27.9 0,41.9 0,2.7 0,5.3 0,8 0,3.4 2.8,6.3 6.1,6.3 5.1,0 10.2,-0.1 15.3,-0.3 5.2,-0.2 10.3,-0.6 15.5,-0.8 6.5,-0.2 12.9,0.2 19.4,0.6 3.7,0.2 6.3,-2.3 6.3,-6 0,-8.5 0,-16.7 0,-25 z"
   id="path1167" />
	</g>
	<g
   id="g1173">
		<path
   class="st10"
   d="m 459,302.7 c 0,8.3 0,16.5 0,24.8 0,3.7 -2.6,6.2 -6.3,6 -6.5,-0.4 -12.9,-0.8 -19.4,-0.6 -5.2,0.2 -10.3,0.6 -15.5,0.8 -5.1,0.2 -10.2,0.3 -15.3,0.3 -3.3,0 -6.1,-2.9 -6.1,-6.3 0,-2.7 0,-5.3 0,-8 0,-14 0,-27.9 0,-41.9 0,-3.9 2.5,-6.3 6.4,-6.4 6.8,-0.2 13.6,-0.4 20.4,-0.7 8.6,-0.4 17.3,-0.6 25.9,-0.1 1.6,0.1 3.2,0.1 4.8,0.4 3.1,0.7 5.1,3.3 5.1,6.5 0,8.5 0,16.9 0,25.2 z"
   id="path1171" />
	</g>
	<g
   id="g1177">
		<path
   class="st3"
   d="m 434.6,288.8 c 0,-3.9 3.1,-6.9 7.1,-6.9 3.5,0 6.4,2.8 6.5,6.3 0,4 -3.1,7.3 -7,7.3 -3.7,-0.1 -6.6,-3 -6.6,-6.7 z"
   id="path1175" />
	</g>
	<g
   id="g1181">
		<path
   class="st3"
   d="m 407.4,316.9 c 0,-3.9 3.1,-6.9 7.1,-6.9 3.5,0 6.4,2.8 6.5,6.3 0,4 -3.1,7.3 -7,7.3 -3.7,-0.1 -6.6,-3 -6.6,-6.7 z"
   id="path1179" />
	</g>
	<g
   id="g1185">
		<path
   class="st3"
   d="m 413.9,295.4 c -3.9,0 -6.9,-3.1 -6.9,-7.1 0,-3.5 2.8,-6.4 6.3,-6.5 4,0 7.3,3.1 7.3,7 -0.1,3.7 -3,6.6 -6.7,6.6 z"
   id="path1183" />
	</g>
	<g
   id="g1189">
		<path
   class="st3"
   d="m 442,322.6 c -3.9,0 -6.9,-3.1 -6.9,-7.1 0,-3.5 2.8,-6.4 6.3,-6.5 4,0 7.3,3.1 7.3,7 -0.1,3.7 -3,6.6 -6.7,6.6 z"
   id="path1187" />
	</g>
	<g
   id="g1193">
		<path
   class="st3"
   d="m 427.9,309 c -3.9,0 -6.9,-3.1 -6.9,-7.1 0,-3.5 2.8,-6.4 6.3,-6.5 4,0 7.3,3.1 7.3,7 0,3.7 -2.9,6.6 -6.7,6.6 z"
   id="path1191" />
	</g>
</g>
<g
   id="g1225"
   transform="translate(-0.07668457,-0.05089754)">
	<g
   id="g1199">
		<path
   class="st3"
   d="m 586,422.5 c 0,8.3 0,16.7 0,25 0,5.3 -3.3,9.4 -8.6,10.3 -0.6,0.1 -1.2,0.1 -1.8,0.1 -6.5,-0.2 -12.9,-0.6 -19.4,-0.5 -6.3,0.1 -12.7,0.6 -19,0.8 -4.3,0.2 -8.6,0.3 -12.9,0.2 -4.6,-0.1 -9,-4 -10.1,-8.7 -0.2,-0.9 -0.3,-1.8 -0.3,-2.7 0,-16.7 0,-33.5 0,-50.2 0,-6 4.6,-10.6 10.7,-10.5 7.8,0.2 15.5,-0.3 23.2,-0.8 7.8,-0.5 15.7,-0.5 23.5,0.1 1.9,0.1 3.8,0.2 5.7,0.5 5,0.9 9,5.7 9,10.9 0.1,8.5 0,17 0,25.5 z m -4.7,-0.2 c 0,-8.3 0,-16.7 0,-25 0,-3.2 -2,-5.8 -5.1,-6.5 -1.6,-0.3 -3.2,-0.3 -4.8,-0.4 -8.6,-0.6 -17.3,-0.4 -25.9,0.1 -6.8,0.3 -13.6,0.5 -20.4,0.7 -3.9,0.1 -6.4,2.4 -6.4,6.4 0,14 0,27.9 0,41.9 0,2.7 0,5.3 0,8 0,3.4 2.8,6.3 6.1,6.3 5.1,0 10.2,-0.1 15.3,-0.3 5.2,-0.2 10.3,-0.6 15.5,-0.8 6.5,-0.2 12.9,0.2 19.4,0.6 3.7,0.2 6.3,-2.3 6.3,-6 0,-8.4 0,-16.7 0,-25 z"
   id="path1197" />
	</g>
	<g
   id="g1203">
		<path
   class="st10"
   d="m 581.3,422.3 c 0,8.3 0,16.5 0,24.8 0,3.7 -2.6,6.2 -6.3,6 -6.5,-0.4 -12.9,-0.8 -19.4,-0.6 -5.2,0.2 -10.3,0.6 -15.5,0.8 -5.1,0.2 -10.2,0.3 -15.3,0.3 -3.3,0 -6.1,-2.9 -6.1,-6.3 0,-2.7 0,-5.3 0,-8 0,-14 0,-27.9 0,-41.9 0,-3.9 2.5,-6.3 6.4,-6.4 6.8,-0.2 13.6,-0.4 20.4,-0.7 8.6,-0.4 17.3,-0.6 25.9,-0.1 1.6,0.1 3.2,0.1 4.8,0.4 3.1,0.7 5.1,3.3 5.1,6.5 0,8.5 0,16.9 0,25.2 z"
   id="path1201" />
	</g>
	<g
   id="g1207">
		<path
   class="st3"
   d="m 556.8,408.4 c 0,-3.9 3.1,-6.9 7.1,-6.9 3.5,0 6.4,2.8 6.5,6.3 0,4 -3.1,7.3 -7,7.3 -3.7,0 -6.6,-2.9 -6.6,-6.7 z"
   id="path1205" />
	</g>
	<g
   id="g1211">
		<path
   class="st3"
   d="m 529.6,436.5 c 0,-3.9 3.1,-6.9 7.1,-6.9 3.5,0 6.4,2.8 6.5,6.3 0,4 -3.1,7.3 -7,7.3 -3.7,0 -6.6,-2.9 -6.6,-6.7 z"
   id="path1209" />
	</g>
	<g
   id="g1215">
		<path
   class="st3"
   d="m 536.1,415.1 c -3.9,0 -6.9,-3.1 -6.9,-7.1 0,-3.5 2.8,-6.4 6.3,-6.5 4,0 7.3,3.1 7.3,7 0,3.6 -3,6.5 -6.7,6.6 z"
   id="path1213" />
	</g>
	<g
   id="g1219">
		<path
   class="st3"
   d="m 564.2,442.3 c -3.9,0 -6.9,-3.1 -6.9,-7.1 0,-3.5 2.8,-6.4 6.3,-6.5 4,0 7.3,3.1 7.3,7 -0.1,3.6 -3,6.5 -6.7,6.6 z"
   id="path1217" />
	</g>
	<g
   id="g1223">
		<path
   class="st3"
   d="m 550.1,428.7 c -3.9,0 -6.9,-3.1 -6.9,-7.1 0,-3.5 2.8,-6.4 6.3,-6.5 4,0 7.3,3.1 7.3,7 0,3.6 -2.9,6.5 -6.7,6.6 z"
   id="path1221" />
	</g>
</g>











</svg>
