<?xml version="1.0" encoding="UTF-8" standalone="no"?>
<!-- Created with Inkscape (http://www.inkscape.org/) -->

<svg
   width="198.74063mm"
   height="309.57693mm"
   viewBox="0 0 198.74063 309.57693"
   version="1.1"
   id="svg3275"
   inkscape:version="1.1.2 (b8e25be833, 2022-02-05)"
   sodipodi:docname="nemo.svg"
   xmlns:inkscape="http://www.inkscape.org/namespaces/inkscape"
   xmlns:sodipodi="http://sodipodi.sourceforge.net/DTD/sodipodi-0.dtd"
   xmlns="http://www.w3.org/2000/svg"
   xmlns:svg="http://www.w3.org/2000/svg">
  <sodipodi:namedview
     id="namedview3277"
     pagecolor="#ffffff"
     bordercolor="#666666"
     borderopacity="1.0"
     inkscape:pageshadow="2"
     inkscape:pageopacity="0.0"
     inkscape:pagecheckerboard="0"
     inkscape:document-units="mm"
     showgrid="false"
     inkscape:zoom="0.46235269"
     inkscape:cx="368.7661"
     inkscape:cy="484.47863"
     inkscape:window-width="1366"
     inkscape:window-height="705"
     inkscape:window-x="-8"
     inkscape:window-y="-8"
     inkscape:window-maximized="1"
     inkscape:current-layer="layer1" />
  <defs
     id="defs3272" />
  <g
     inkscape:label="Στρώση 1"
     inkscape:groupmode="layer"
     id="layer1"
     transform="translate(-7.6412446,-20.321365)">
    <g
       id="g3234"
       transform="rotate(-90,139.05234,275.01236)">
      <path
         style="fill:#e36e17;fill-opacity:1;fill-rule:nonzero;stroke:none;stroke-width:0.352778"
         d="m 245.13152,312.40257 c 0,0 6.33899,27.58418 -21.9921,29.82076 -34.60806,2.72987 -52.55701,-42.49596 -50.69388,-51.4422 1.86171,-8.94619 72.68598,21.62144 72.68598,21.62144"
         id="path1488" />
      <path
         style="fill:#e36e17;fill-opacity:1;fill-rule:nonzero;stroke:none;stroke-width:0.352778"
         d="m 335.71137,204.67855 c 0,0 9.24663,-55.39711 -27.21215,-60.75905 -25.34623,-3.72897 -32.42796,26.46521 -54.4201,30.37744 -21.99209,3.9164 -42.49592,-38.27222 -74.54773,6.49196 -32.06005,44.76281 3.72347,51.84317 3.72347,51.84317 l 152.45651,-27.95352"
         id="path1490" />
      <path
         style="fill:#fafffd;fill-opacity:1;fill-rule:nonzero;stroke:none;stroke-width:0.352778"
         d="m 392.35976,283.69803 c -8.38951,27.87911 -45.03014,39.6627 -85.94274,42.13902 -18.63107,1.13277 -38.14684,0.3321 -56.28047,-1.75697 -10.84513,-1.24164 -21.19009,-2.94626 -30.56075,-4.98437 -16.79967,-3.62976 -30.47393,-8.30407 -38.22951,-13.22641 -2.01333,-1.27607 -3.63251,-2.57143 -4.79971,-3.86542 -10.70875,-11.88558 -35.41007,-19.79825 -49.9539,-5.63065 -14.53416,14.16762 -52.554239,2.60999 -39.880436,-46.21802 7.996767,-30.80741 26.676066,-24.07708 45.741236,-17.34538 11.1511,3.93707 22.43586,7.86998 31.78997,4.29673 3.07714,-1.17821 6.16532,-2.92834 9.32519,-5.08773 13.54197,-9.23561 28.47851,-25.99531 50.8441,-37.82437 9.95493,-5.2765 21.3844,-9.5636 34.82163,-11.77534 7.24299,-1.192 15.05645,-1.77768 23.54104,-1.59441 14.75052,0.3211 28.78032,3.69729 41.58506,9.14329 46.07193,19.60122 76.34746,66.02321 67.99929,93.73003"
         id="path1492" />
      <path
         style="fill:#1e1c19;fill-opacity:1;fill-rule:nonzero;stroke:none;stroke-width:0.352778"
         d="m 336.70494,193.22432 c -0.52917,-16.6715 -5.43913,-39.35264 -27.74269,-42.68886 -24.93974,-3.72622 -31.9071,26.46521 -53.54091,30.37744 -21.62831,3.91503 -41.80004,-38.2736 -73.33093,6.49059 -11.86628,16.83409 -14.28613,28.33934 -12.6807,36.14592 -4.97749,-7.35873 -5.94625,-20.32744 10.11481,-42.76326 32.06005,-44.76006 52.56251,-2.57281 74.55323,-6.49196 21.99488,-3.9081 29.07111,-34.10228 54.4201,-30.37332 25.85064,3.79924 28.72108,32.77937 28.20709,49.30345"
         id="path1494" />
      <path
         style="fill:#1e1c19;fill-opacity:1;fill-rule:nonzero;stroke:none;stroke-width:0.352778"
         d="m 245.51326,322.59453 c -0.97843,8.10288 -5.61002,18.29897 -22.36971,19.6288 -34.61219,2.72711 -52.56389,-42.49872 -50.69801,-51.43803 0.2577,-1.24302 1.85208,-1.72533 4.41247,-1.62335 1.65915,13.68806 18.53184,50.3797 48.3774,47.91439 12.72756,-1.05834 18.12809,-7.71839 20.27785,-14.48181"
         id="path1496" />
      <path
         style="fill:#eb9919;fill-opacity:1;fill-rule:nonzero;stroke:none;stroke-width:0.352778"
         d="m 392.35976,283.69803 c -8.38951,27.87911 -45.03014,39.6627 -85.94274,42.13902 -20.63062,-63.11138 -0.7579,-109.35007 17.94345,-135.86905 46.07193,19.60122 76.34746,66.02321 67.99929,93.73003"
         id="path1498" />
      <path
         style="fill:#b86807;fill-opacity:1;fill-rule:nonzero;stroke:none;stroke-width:0.352778"
         d="m 349.97958,283.80964 c -13.64947,0 -24.76335,-11.10558 -24.77576,-24.75367 -0.007,-6.61875 2.56452,-12.84196 7.2402,-17.5259 4.6743,-4.68534 10.89342,-7.26778 17.51213,-7.27466 13.67289,0 24.7909,11.10558 24.79778,24.75367 0.008,6.61875 -2.56452,12.84196 -7.23883,17.5259 -4.6743,4.68535 -10.89339,7.26779 -17.5121,7.27466 h -0.0233"
         id="path1500" />
      <path
         style="fill:#ffbf75;fill-opacity:1;fill-rule:nonzero;stroke:none;stroke-width:0.352778"
         d="m 349.97958,279.04027 c -13.64947,0 -24.76335,-11.10563 -24.77576,-24.75509 -0.007,-6.61734 2.56452,-12.84055 7.2402,-17.5259 4.6743,-4.68393 10.89342,-7.26637 17.51213,-7.27329 13.67289,0 24.7909,11.10563 24.79778,24.75372 0.008,6.61871 -2.56452,12.84058 -7.23883,17.52589 -4.6743,4.68535 -10.89339,7.26779 -17.5121,7.27467 h -0.0233"
         id="path1502" />
      <path
         style="fill:#faf3d9;fill-opacity:1;fill-rule:nonzero;stroke:none;stroke-width:0.352778"
         d="m 371.57067,254.24383 c 0.0123,11.9283 -9.64904,21.60764 -21.57455,21.61868 -11.93108,0.0109 -21.60764,-9.64766 -21.61868,-21.57871 -0.0123,-11.9283 9.64766,-21.60488 21.57459,-21.61864 11.93105,-0.0109 21.61039,9.65175 21.61864,21.57867"
         id="path1504" />
      <path
         style="fill:#000000;fill-opacity:1;fill-rule:nonzero;stroke:none;stroke-width:0.352778"
         d="m 362.93174,254.25212 c 0.008,7.15751 -5.78912,12.96321 -12.94804,12.97147 -7.15338,0.007 -12.9632,-5.78916 -12.96595,-12.94804 -0.008,-7.15755 5.78911,-12.96321 12.94253,-12.9715 7.15892,-0.007 12.96321,5.78915 12.97146,12.94807"
         id="path1506" />
      <path
         style="fill:#fafafa;fill-opacity:1;fill-rule:nonzero;stroke:none;stroke-width:0.352778"
         d="m 357.18535,247.32194 c 0.004,2.57144 -2.07674,4.65642 -4.64401,4.65642 -2.5728,0.004 -4.65776,-2.0781 -4.66051,-4.64537 -0.004,-2.57144 2.07532,-4.65639 4.6481,-4.66052 2.5728,-0.004 4.65642,2.07808 4.65642,4.64947"
         id="path1508" />
      <path
         style="fill:#ffbf75;fill-opacity:1;fill-rule:nonzero;stroke:none;stroke-width:0.352778"
         d="m 366.0213,225.36153 c -0.53605,0 -1.07622,-0.17914 -1.52273,-0.54984 -4.05832,-3.36928 -9.21494,-5.22411 -14.52728,-5.22411 -5.30268,0 -10.45792,1.85483 -14.51349,5.22411 -1.01699,0.84338 -2.52042,0.70143 -3.35965,-0.31006 -0.8406,-1.01286 -0.7028,-2.51492 0.31144,-3.35827 4.91408,-4.07899 11.15109,-6.3252 17.5617,-6.3252 6.42168,0 12.66557,2.24621 17.57274,6.3252 1.01424,0.84335 1.15207,2.34541 0.31147,3.35827 -0.47269,0.56776 -1.14794,0.8599 -1.8342,0.8599"
         id="path1510" />
      <path
         style="fill:#eb9919;fill-opacity:1;fill-rule:nonzero;stroke:none;stroke-width:0.352778"
         d="m 253.50311,312.1559 c -1.60126,4.19749 -2.69131,8.17454 -3.36515,11.92418 -10.84516,-1.24164 -21.18871,-2.94626 -30.56216,-4.98437 11.54384,-33.28927 7.42625,-46.29933 -1.12448,-84.9533 -4.24709,-19.24706 0.0813,-31.90434 5.96142,-39.94795 9.95493,-5.27791 21.38577,-9.5636 34.82301,-11.77534 -4.82314,8.07805 -7.79971,19.96638 -4.02939,37.01962 9.18326,41.52166 13.25813,53.45271 -1.70325,92.71716"
         id="path1512" />
      <path
         style="fill:#eb9919;fill-opacity:1;fill-rule:nonzero;stroke:none;stroke-width:0.352778"
         d="m 181.34905,305.8693 c -2.01472,-1.27745 -3.6339,-2.57143 -4.8011,-3.8668 -4.92509,-5.46805 -12.81299,-10.09272 -21.31137,-12.11432 -9.97698,-2.37437 -20.78909,-1.16032 -28.64253,6.48505 -14.53416,14.16762 -52.554229,2.60999 -39.88043,-46.21802 10.276064,-39.61035 38.21991,-17.17312 61.92905,-12.45334 5.52181,1.09418 10.81348,1.23472 15.60078,-0.59531 3.07993,-1.17821 6.16673,-2.92834 9.32656,-5.08773 0.5829,7.55717 2.66789,15.70966 7.32427,23.8263 8.79877,15.34308 6.68211,34.96497 0.45477,50.02417"
         id="path1514" />
      <path
         style="fill:#e36e17;fill-opacity:1;fill-rule:nonzero;stroke:none;stroke-width:0.352778"
         d="m 155.23658,289.88818 c -9.97698,-2.37437 -20.78909,-1.16032 -28.64253,6.48505 -14.53416,14.16762 -52.554229,2.60999 -39.88043,-46.21802 10.276064,-39.61035 38.21991,-17.17312 61.92905,-12.45334 -1.70738,12.7744 -2.0519,32.53687 6.59391,52.18631"
         id="path1516" />
      <path
         style="fill:#1e1c19;fill-opacity:1;fill-rule:nonzero;stroke:none;stroke-width:0.352778"
         d="m 123.08145,299.04386 c -16.27738,9.62011 -48.122477,-3.61322 -36.36783,-48.88865 4.543425,-17.49834 12.526398,-22.88508 22.0762,-23.03942 -4.93201,3.21359 -9.006877,9.3872 -11.786378,20.09729 -9.570473,36.87632 9.771658,52.48949 26.078008,51.83078"
         id="path1518" />
      <path
         style="fill:#f0b861;fill-opacity:1;fill-rule:nonzero;stroke:none;stroke-width:0.352778"
         d="m 306.41978,325.83705 c 40.91121,-2.47632 77.55184,-14.25991 85.94136,-42.13902 0.33623,-1.10519 0.60631,-2.24067 0.81992,-3.40099 -0.21361,1.16445 -0.48369,2.2958 -0.81992,3.40099 -8.38952,27.87911 -45.03015,39.6627 -85.94136,42.13902 m -38.61125,-0.1736 c -7.6357,-0.48923 -15.15844,-1.22372 -22.41931,-2.15801 1.5682,0.20118 3.15295,0.39133 4.74595,0.57464 5.77399,0.66696 11.68714,1.19888 17.67336,1.58337 m -95.62207,-27.68893 c -0.004,-0.004 -0.008,-0.007 -0.008,-0.007 0,0 0.004,0.004 0.008,0.007 m -0.0455,-0.0358 c -0.0166,-0.0138 -0.0275,-0.0233 -0.0441,-0.0346 0.0166,0.0109 0.0275,0.0205 0.0441,0.0346 m -0.0482,-0.0386 c -0.75795,-0.58564 -1.54478,-1.1534 -2.36333,-1.69636 0.004,0 0.008,0.004 0.008,0.004 0.81443,0.54293 1.6013,1.10794 2.35508,1.69358"
         id="path1520" />
      <path
         style="fill:#d74f07;fill-opacity:1;fill-rule:nonzero;stroke:none;stroke-width:0.352778"
         d="m 245.21283,323.48063 c -0.57464,-0.0744 -1.15065,-0.14883 -1.71841,-0.22602 0.57188,0.0772 1.14377,0.15159 1.71841,0.22602 m -14.66095,-2.23382 c -20.74083,-3.64765 -38.09725,-8.89384 -47.80964,-14.53003 7.94162,4.60678 21.00128,8.95586 36.83356,12.37893 3.52778,0.76895 7.19339,1.48827 10.97608,2.1511"
         id="path1522" />
      <path
         style="fill:#eeb85e;fill-opacity:1;fill-rule:nonzero;stroke:none;stroke-width:0.352778"
         d="m 288.97795,326.35108 c -7.06794,0 -14.16759,-0.23978 -21.16804,-0.68763 -5.98618,-0.38449 -11.89662,-0.91641 -17.67057,-1.58337 0.67246,-3.74964 1.76251,-7.72669 3.36239,-11.92418 0.0854,-0.21911 0.17089,-0.44097 0.25358,-0.66008 8.8773,0.57602 17.91173,0.88607 26.90756,0.88607 6.54431,0 13.06379,-0.16259 19.49097,-0.51124 0.74828,-0.0427 1.49931,-0.0855 2.24483,-0.13092 1.11757,4.59991 2.45015,9.30314 4.02111,14.09732 -5.74919,0.34865 -11.58791,0.51403 -17.44183,0.51403 m -69.40215,-7.25537 c -15.83228,-3.42307 -28.89194,-7.77215 -36.83356,-12.38031 -0.32798,-0.65871 -0.64079,-1.31463 -0.93984,-1.96783 0.5333,-1.35876 1.03629,-2.7547 1.50343,-4.17685 11.19657,3.07992 24.78402,5.78502 39.6324,7.82866 -0.92604,3.3431 -2.04089,6.8888 -3.36243,10.69633 m -46.13533,-20.10145 c -0.4065,-0.3459 -0.82684,-0.68901 -1.25401,-1.01974 0,-0.004 -0.007,-0.007 -0.007,-0.007 -0.0109,-0.0109 -0.0247,-0.0219 -0.0358,-0.0289 -0.0138,-0.0138 -0.0289,-0.0247 -0.0469,-0.0346 0,0 0,-0.004 -0.004,-0.004 -0.7524,-0.58565 -1.53927,-1.15065 -2.35507,-1.69358 0.004,0 0,0 0.004,0 1.31466,0.87916 2.55076,1.81074 3.69729,2.78776"
         id="path1524" />
      <path
         style="fill:#1c1407;fill-opacity:1;fill-rule:nonzero;stroke:none;stroke-width:0.352778"
         d="m 245.38922,323.50544 c -0.0634,-0.0109 -0.11712,-0.018 -0.17639,-0.0247 0.0565,0.007 0.11575,0.0138 0.17639,0.0247 m -62.64698,-16.78866 c -0.48232,-0.28251 -0.94809,-0.56085 -1.39319,-0.84748 -2.01472,-1.27745 -3.6339,-2.57143 -4.8011,-3.8668 -0.93429,-1.03628 -1.97612,-2.04223 -3.10748,-3.00824 1.13136,0.96326 2.17319,1.97196 3.10748,3.00824 1.1672,1.29537 2.78638,2.58935 4.8011,3.8668 0.15159,-0.3707 0.30314,-0.74415 0.45198,-1.12173 0.30042,0.6532 0.61323,1.30912 0.94121,1.96921"
         id="path1526" />
      <path
         style="fill:#e16e0a;fill-opacity:1;fill-rule:nonzero;stroke:none;stroke-width:0.352778"
         d="m 306.41978,325.83705 c -1.56958,-4.79418 -2.90629,-9.49741 -4.01973,-14.09732 41.51203,-2.53284 78.69012,-12.87914 91.3033,-36.17073 -0.073,1.61643 -0.24529,3.19705 -0.51954,4.72804 -0.21357,1.16032 -0.48369,2.2958 -0.81992,3.39961 -8.39364,27.88049 -45.0329,39.66408 -85.94411,42.1404"
         id="path1528" />
      <path
         style="fill:#e16e0a;fill-opacity:1;fill-rule:nonzero;stroke:none;stroke-width:0.352778"
         d="m 250.13796,324.08008 c -1.59441,-0.18331 -3.17916,-0.37346 -4.74874,-0.57464 -0.0606,-0.0109 -0.11987,-0.018 -0.17639,-0.0247 -0.57464,-0.0744 -1.14653,-0.14884 -1.71841,-0.22602 -4.4304,-0.59669 -8.75605,-1.27053 -12.94254,-2.0078 -3.78269,-0.66284 -7.4483,-1.38215 -10.97608,-2.1511 1.32016,-3.80753 2.43501,-7.35185 3.36243,-10.69633 9.83231,1.35047 20.21445,2.41293 30.8157,3.09644 -0.0813,0.21911 -0.16675,0.44097 -0.25082,0.66008 -1.60126,4.19749 -2.69131,8.17453 -3.36515,11.92417"
         id="path1530" />
      <path
         style="fill:#e16e0a;fill-opacity:1;fill-rule:nonzero;stroke:none;stroke-width:0.352778"
         d="m 181.34905,305.8693 c -2.01472,-1.27745 -3.6339,-2.57143 -4.8011,-3.8668 -0.93429,-1.03628 -1.97612,-2.04498 -3.10748,-3.00824 -1.14652,-0.97702 -2.38537,-1.9086 -3.69728,-2.78776 3.96462,1.51444 8.52318,2.97794 13.55989,4.36422 -0.46439,1.42215 -0.96601,2.81809 -1.50205,4.17685 -0.14884,0.37758 -0.30039,0.75103 -0.45198,1.12173"
         id="path1532" />
      <path
         style="fill:#9e3f00;fill-opacity:1;fill-rule:nonzero;stroke:none;stroke-width:0.352778"
         d="m 139.14663,245.30864 -8.24481,-1.15753 c -2.71614,-0.3707 -5.41157,-0.74828 -8.1208,-1.05146 -2.70923,-0.30042 -5.41429,-0.62424 -8.14832,-0.87093 -2.73128,-0.31144 -5.47635,-0.49058 -8.28753,-0.92467 2.71611,-0.79375 5.52041,-1.23472 8.33576,-1.38628 2.81534,-0.1833 5.64444,-0.0524 8.44599,0.26459 2.80155,0.31693 5.57417,0.90949 8.27648,1.71841 2.68718,0.83923 5.34406,1.86585 7.74323,3.40787"
         id="path1534" />
      <path
         style="fill:#9e3f00;fill-opacity:1;fill-rule:nonzero;stroke:none;stroke-width:0.352778"
         d="m 139.14663,259.0353 c -2.93938,0.0385 -5.79603,-0.0469 -8.6541,-0.0992 l -8.51902,-0.15847 c -2.83326,-0.0537 -5.65548,-0.0152 -8.49563,0.0208 -2.84702,0.018 -5.67612,0.20806 -8.62513,0.23703 2.66788,-1.22785 5.51353,-2.05328 8.40327,-2.53697 2.89253,-0.47269 5.82775,-0.71935 8.74917,-0.66008 2.92421,0.0386 5.84151,0.30039 8.71749,0.80476 2.8677,0.52503 5.71472,1.22371 8.42395,2.39229"
         id="path1536" />
      <path
         style="fill:#9e3f00;fill-opacity:1;fill-rule:nonzero;stroke:none;stroke-width:0.352778"
         d="m 140.38823,270.40409 c -2.97381,0.64632 -5.9049,1.13002 -8.82632,1.63435 -2.92146,0.49336 -5.82084,0.98393 -8.69545,1.5379 -2.87182,0.55396 -5.71884,1.1672 -8.50247,1.97199 -2.77262,0.83647 -5.5039,1.78869 -8.01882,3.49194 0.79788,-1.31191 1.96095,-2.38401 3.19568,-3.31971 1.25677,-0.9095 2.60724,-1.68946 4.00872,-2.33437 2.81118,-1.27744 5.77398,-2.12358 8.76293,-2.6996 2.9876,-0.56776 6.01101,-0.8709 9.0303,-0.94121 3.02341,-0.0469 6.05095,0.0813 9.04543,0.65871"
         id="path1538" />
      <path
         style="fill:#9e3f00;fill-opacity:1;fill-rule:nonzero;stroke:none;stroke-width:0.352778"
         d="m 140.38823,280.5933 c -1.80661,1.48555 -3.78135,2.64862 -5.80291,3.70004 -2.0326,1.03766 -4.13138,1.92652 -6.27973,2.67755 -2.15251,0.74411 -4.36425,1.3408 -6.61733,1.76113 -2.25863,0.38721 -4.56957,0.61736 -6.89434,0.41614 2.10979,-1.00595 4.18373,-1.83416 6.26868,-2.64305 2.08499,-0.81858 4.16998,-1.5875 6.27973,-2.3096 2.10704,-0.73452 4.23333,-1.4194 6.39272,-2.04364 2.16214,-0.61736 4.34908,-1.18512 6.65318,-1.55857"
         id="path1540" />
    </g>
  </g>
</svg>
