<?xml version="1.0" encoding="utf-8"?>
<!-- Generator: Adobe Illustrator 27.4.0, SVG Export Plug-In . SVG Version: 6.00 Build 0)  -->
<svg version="1.1"
	 id="svg289" xmlns:cc="http://creativecommons.org/ns#" xmlns:dc="http://purl.org/dc/elements/1.1/" xmlns:rdf="http://www.w3.org/1999/02/22-rdf-syntax-ns#" xmlns:sodipodi="http://sodipodi.sourceforge.net/DTD/sodipodi-0.dtd" xmlns:inkscape="http://www.inkscape.org/namespaces/inkscape" xmlns:svg="http://www.w3.org/2000/svg" inkscape:version="0.92.4 (5da689c313, 2019-01-14)" sodipodi:docname="student.svg"
	 xmlns="http://www.w3.org/2000/svg" xmlns:xlink="http://www.w3.org/1999/xlink" x="0px" y="0px" viewBox="0 0 176.9 176.8"
	 style="enable-background:new 0 0 176.9 176.8;" xml:space="preserve">
<style type="text/css">
	.st0{fill:url(#SVGID_1_);}
	.st1{fill:url(#SVGID_00000093884728101490606600000016373935421423360136_);}
	.st2{fill:#F7941E;}
	.st3{fill:url(#SVGID_00000121237364260263621020000011119986527197417905_);}
	.st4{fill:url(#SVGID_00000150098319737981708120000012958390601744162214_);}
	.st5{fill:#43960E;}
	.st6{fill:url(#SVGID_00000050633564580445146360000004525927191883955892_);}
	.st7{fill:url(#SVGID_00000128453474847477627780000015128659622470886026_);}
	.st8{fill:url(#SVGID_00000021809409745444954940000009317326395772203684_);}
	.st9{fill:url(#SVGID_00000005984165529108373290000012287752779106172819_);}
	.st10{fill:url(#SVGID_00000082356237149255984130000008205410116881483142_);}
	.st11{fill:url(#SVGID_00000137811183837372472120000010092356268330057623_);}
	.st12{fill:url(#SVGID_00000161625582412796045970000002546015288268424861_);}
	.st13{fill:url(#SVGID_00000034079419872472164150000016908962769550630808_);}
	.st14{fill:url(#SVGID_00000088819092734806974490000002438563813043017107_);}
	.st15{fill:url(#SVGID_00000096761704188227392860000007817892138566953388_);}
	.st16{fill:url(#SVGID_00000079457759121552933070000013715676877642908328_);}
	.st17{fill:url(#SVGID_00000132794062164274225830000014548358030034937265_);}
	.st18{fill:url(#SVGID_00000013160287551758940900000008640194735000191887_);}
	.st19{fill:url(#SVGID_00000010292491548201530060000003577616618919930496_);}
	.st20{fill:#E3E3E3;}
	.st21{fill:#C9C9C9;}
	.st22{fill:url(#SVGID_00000121990478926173124940000004540466950887438732_);}
	.st23{fill:url(#SVGID_00000129884757561794359120000012948945231119109035_);}
	.st24{fill:url(#SVGID_00000062913473290056243370000007256761683274877877_);}
	.st25{fill:#FFFFFF;}
</style>
<defs>
	
		<inkscape:path-effect  apply_no_weight="true" apply_with_weight="true" effect="bspline" helper_size="0" id="path-effect9762" is_visible="true" only_selected="false" steps="2" weight="33.333333">
		</inkscape:path-effect>
	
		<inkscape:path-effect  apply_no_weight="true" apply_with_weight="true" effect="bspline" helper_size="0" id="path-effect9740" is_visible="true" only_selected="false" steps="2" weight="33.333333">
		</inkscape:path-effect>
	
		<inkscape:path-effect  apply_no_weight="true" apply_with_weight="true" effect="bspline" helper_size="0" id="path-effect9586" is_visible="true" only_selected="false" steps="2" weight="33.333333">
		</inkscape:path-effect>
	
		<inkscape:path-effect  apply_no_weight="true" apply_with_weight="true" effect="bspline" helper_size="0" id="path-effect9740-1" is_visible="true" only_selected="false" steps="2" weight="33.333333">
		</inkscape:path-effect>
</defs>
<sodipodi:namedview  bordercolor="#666666" borderopacity="1.0" fit-margin-bottom="0" fit-margin-left="0" fit-margin-right="0" fit-margin-top="0" id="base" inkscape:current-layer="layer1" inkscape:cx="-209.20158" inkscape:cy="-1.9514653" inkscape:document-units="mm" inkscape:pageopacity="0.0" inkscape:pageshadow="2" inkscape:window-height="705" inkscape:window-maximized="1" inkscape:window-width="1366" inkscape:window-x="-8" inkscape:window-y="-8" inkscape:zoom="0.7" pagecolor="#ffffff" showgrid="false">
	</sodipodi:namedview>
<g>
	<g>
		
			<radialGradient id="SVGID_1_" cx="88.4033" cy="153.2756" r="24.5474" gradientTransform="matrix(1 0 0 -1 0 177.2756)" gradientUnits="userSpaceOnUse">
			<stop  offset="0" style="stop-color:#9CFF00"/>
			<stop  offset="0.9958" style="stop-color:#63A300"/>
		</radialGradient>
		<path class="st0" d="M59.5,26.6C59,24,60.4,16,60.4,16c0-7.5,12.4-11,19.2-11h17.7c6.8,0,19.2,3.4,19.2,11c0,0,1.3,8,0.8,10.6
			c-0.5,2.5-1,16.4-1,16.4H60.6C60.6,43,60.1,29.2,59.5,26.6z"/>
		
			<linearGradient id="SVGID_00000134972201641511147420000000666205049723117243_" gradientUnits="userSpaceOnUse" x1="60.4" y1="166.4256" x2="116.5407" y2="166.4256" gradientTransform="matrix(1 0 0 -1 0 177.2756)">
			<stop  offset="0" style="stop-color:#363B39"/>
			<stop  offset="1" style="stop-color:#0C0D0D"/>
		</linearGradient>
		<path style="fill:url(#SVGID_00000134972201641511147420000000666205049723117243_);" d="M97.1,5H79.8C73,5,60.4,8.4,60.4,15.7v1
			c0-2.6,0.9-4.4,2.5-5.7c2.9-3,8-4.4,13.9-4.4h23.4c5.9,0,11,1.4,13.9,4.4c1.6,1.3,2.5,3.1,2.5,5.7v-1C116.5,8.4,103.9,5,97.1,5z"
			/>
		<path class="st2" d="M113.8,17.3c-0.3,0-0.4-0.3-0.4-0.5c0-1.1-0.4-2.1-1.1-2.9c-0.2-0.2-0.2-0.5-0.1-0.7l0,0
			c0.2-0.2,0.5-0.2,0.7,0.1c0.9,0.9,1.4,2.2,1.4,3.5C114.3,17.1,114,17.3,113.8,17.3L113.8,17.3z"/>
		<path class="st2" d="M63.1,17.3c0.3,0,0.4-0.3,0.4-0.5c0-1.1,0.4-2.1,1.1-2.9c0.2-0.2,0.2-0.5,0.1-0.7l0,0c-0.1-0.2-0.4-0.2-0.7,0
			c-0.9,0.9-1.4,2.2-1.4,3.5C62.6,17.1,62.9,17.3,63.1,17.3L63.1,17.3z"/>
		
			<linearGradient id="SVGID_00000112629249412826354230000008033240899597043374_" gradientUnits="userSpaceOnUse" x1="105.6792" y1="166.4854" x2="112.6018" y2="166.4854" gradientTransform="matrix(1 0 0 -1 0 177.2756)">
			<stop  offset="0" style="stop-color:#F7F7F7"/>
			<stop  offset="1" style="stop-color:#DBDBDB"/>
		</linearGradient>
		<path style="fill:url(#SVGID_00000112629249412826354230000008033240899597043374_);" d="M105.8,8.6c0,0-0.4-0.4,0.3-0.4
			c0.6-0.1,3.9,0.1,5.6,2.6c1.8,2.5,0.4,2.6,0.4,2.6L105.8,8.6z"/>
		
			<linearGradient id="SVGID_00000049199723965586473740000016441275650572266681_" gradientUnits="userSpaceOnUse" x1="67.2862" y1="166.4854" x2="70.839" y2="166.4854" gradientTransform="matrix(1 0 0 -1 0 177.2756)">
			<stop  offset="0" style="stop-color:#F7F7F7"/>
			<stop  offset="1" style="stop-color:#DBDBDB"/>
		</linearGradient>
		<path style="fill:url(#SVGID_00000049199723965586473740000016441275650572266681_);" d="M71.2,8.6c0,0,0.4-0.4-0.3-0.4
			c-0.6-0.1-3.9,0.1-5.6,2.6c-1.8,2.5-0.4,2.6-0.4,2.6L71.2,8.6z"/>
		<path class="st5" d="M105,25.6c-5.2,5.9-27.9,5.9-33.1,0c-2.5-2.9,6.2-17,6.2-17h20.6C98.8,8.6,107.5,22.7,105,25.6z"/>
		<g>
			<g>
			</g>
		</g>
		<g>
			<g>
			</g>
		</g>
		
			<radialGradient id="SVGID_00000046330317244582261120000012949659350584905641_" cx="88.4" cy="130.2272" r="22.1766" gradientTransform="matrix(1 0 0 -1 0 177.2756)" gradientUnits="userSpaceOnUse">
			<stop  offset="0" style="stop-color:#FFFFFF"/>
			<stop  offset="0.9958" style="stop-color:#83D600"/>
		</radialGradient>
		<path style="fill:url(#SVGID_00000046330317244582261120000012949659350584905641_);" d="M63.2,61.3h50.5c0,0,2.6-2,2.6-2.9
			c0-6.3,0-11.6,0-15.3c0-3.4-1.9-7-1.9-7s-4.9-3.4-26-3.3c-14.2-0.1-22.2,2.2-25.7,3.7c-1.7,0.7-2.2,3.9-2.2,6.6
			c0,4.6,0,11.4,0,15.3C60.6,60.5,63.2,61.3,63.2,61.3z"/>
		
			<linearGradient id="SVGID_00000160159419151565168790000010254952815504293513_" gradientUnits="userSpaceOnUse" x1="73.3275" y1="154.4727" x2="97.8646" y2="112.4766" gradientTransform="matrix(1 0 0 -1 0 177.2756)">
			<stop  offset="0" style="stop-color:#FFFFFF"/>
			<stop  offset="0.9837" style="stop-color:#43960E"/>
		</linearGradient>
		<path style="fill:url(#SVGID_00000160159419151565168790000010254952815504293513_);" d="M65.7,61.3c0,0-1.7-4.9-1.7-12.9
			c0-5.5,1.7-12.3,1.7-12.3c1.6-0.6,12.2-2.6,22.7-2.6c10.6,0,21.1,1.8,22.7,2.4c0,0,1.7,6.5,1.7,12.5c0,8.4-1.7,12.9-1.7,12.9
			S65.7,61.3,65.7,61.3z"/>
		<g>
			
				<linearGradient id="SVGID_00000047049211765950933940000014146202990264637080_" gradientUnits="userSpaceOnUse" x1="89.635" y1="219.8319" x2="96.0895" y2="207.3348" gradientTransform="matrix(0.9997 2.380000e-02 2.380000e-02 -0.9997 18.7826 246.269)">
				<stop  offset="0" style="stop-color:#363B39"/>
				<stop  offset="1" style="stop-color:#1B1C1C"/>
			</linearGradient>
			<path style="fill:url(#SVGID_00000047049211765950933940000014146202990264637080_);" d="M114.3,27.7c0,0,3,0.6,3,3.1
				s-3.2,7.5-3.2,4.3C114.1,31.9,114,28.6,114.3,27.7z"/>
			
				<linearGradient id="SVGID_00000150086780505488362820000010890282704799141300_" gradientUnits="userSpaceOnUse" x1="107.9986" y1="144.8709" x2="116.4526" y2="144.8709" gradientTransform="matrix(1.0383 0 0 -1 4.0529 177.2756)">
				<stop  offset="0" style="stop-color:#9CFF00"/>
				<stop  offset="0.9958" style="stop-color:#63A300"/>
			</linearGradient>
			<path style="fill:url(#SVGID_00000150086780505488362820000010890282704799141300_);" d="M124.7,33.1c-0.7-0.9-6.7-2.7-6.7-2.7
				c-1.2-0.4-1.6,0.6-1.7,1.5l8.7,2.6C125,34.1,125,33.6,124.7,33.1z"/>
			
				<linearGradient id="SVGID_00000145755498753439220550000006325666039238073785_" gradientUnits="userSpaceOnUse" x1="116.1127" y1="143.6756" x2="124.9656" y2="143.6756" gradientTransform="matrix(1 0 0 -1 0 177.2756)">
				<stop  offset="0" style="stop-color:#363B39"/>
				<stop  offset="1" style="stop-color:#1B1C1C"/>
			</linearGradient>
			<path style="fill:url(#SVGID_00000145755498753439220550000006325666039238073785_);" d="M116.2,32c-0.1,0.6-0.1,1.1-0.1,1.1
				l8.6,2.1c0,0,0.1-0.2,0.2-0.6L116.2,32z"/>
		</g>
		<g>
			
				<linearGradient id="SVGID_00000156565557769575217400000004725264063251737737_" gradientUnits="userSpaceOnUse" x1="-325.7644" y1="209.9435" x2="-319.3089" y2="197.4445" gradientTransform="matrix(-0.9997 2.380000e-02 -2.380000e-02 -0.9997 -257.3922 246.269)">
				<stop  offset="0" style="stop-color:#363B39"/>
				<stop  offset="1" style="stop-color:#1B1C1C"/>
			</linearGradient>
			<path style="fill:url(#SVGID_00000156565557769575217400000004725264063251737737_);" d="M62.6,27.7c0,0-3,0.6-3,3.1
				s3.2,7.5,3.2,4.3S62.9,28.6,62.6,27.7z"/>
			
				<linearGradient id="SVGID_00000125589776673212335270000004093538022592356275_" gradientUnits="userSpaceOnUse" x1="-292.1851" y1="144.8709" x2="-283.7295" y2="144.8709" gradientTransform="matrix(-1.0383 0 0 -1 -242.6621 177.2756)">
				<stop  offset="0" style="stop-color:#9CFF00"/>
				<stop  offset="0.9958" style="stop-color:#63A300"/>
			</linearGradient>
			<path style="fill:url(#SVGID_00000125589776673212335270000004093538022592356275_);" d="M52.2,33.1c0.7-0.9,6.7-2.7,6.7-2.7
				c1.2-0.4,1.6,0.6,1.7,1.5L52,34.5C51.9,34.1,51.9,33.6,52.2,33.1z"/>
			
				<linearGradient id="SVGID_00000000909079097943931210000018139261767042688915_" gradientUnits="userSpaceOnUse" x1="-299.3963" y1="143.6756" x2="-290.5428" y2="143.6756" gradientTransform="matrix(-1 0 0 -1 -238.6094 177.2756)">
				<stop  offset="0" style="stop-color:#363B39"/>
				<stop  offset="1" style="stop-color:#1B1C1C"/>
			</linearGradient>
			<path style="fill:url(#SVGID_00000000909079097943931210000018139261767042688915_);" d="M60.7,32c0.1,0.6,0.1,1.1,0.1,1.1
				l-8.6,2.1c0,0-0.1-0.2-0.2-0.6L60.7,32z"/>
		</g>
		
			<linearGradient id="SVGID_00000029729618158310276590000003101989678484494776_" gradientUnits="userSpaceOnUse" x1="78.1437" y1="169.0756" x2="98.7605" y2="169.0756" gradientTransform="matrix(1 0 0 -1 0 177.2756)">
			<stop  offset="0" style="stop-color:#363B39"/>
			<stop  offset="1" style="stop-color:#0C0D0D"/>
		</linearGradient>
		<polygon style="fill:url(#SVGID_00000029729618158310276590000003101989678484494776_);" points="98.8,8.6 78.1,8.6 79.4,7.8 
			97.5,7.8 		"/>
		
			<linearGradient id="SVGID_00000059283819433985102740000010431930929318087053_" gradientUnits="userSpaceOnUse" x1="112.1089" y1="134.2668" x2="125.0796" y2="109.1532" gradientTransform="matrix(1 0 0 -1 0 177.2756)">
			<stop  offset="0" style="stop-color:#363B39"/>
			<stop  offset="1" style="stop-color:#1B1C1C"/>
		</linearGradient>
		<path style="fill:url(#SVGID_00000059283819433985102740000010431930929318087053_);" d="M113.7,58.3l2.6-2.7l0,0
			c0-0.1,0-0.3,0-0.4c0-5,0-9.2,0-12.3c0,0,0.1-1.5,0.2-3.6l-2.7,2.5C113.7,41.9,115.1,49.7,113.7,58.3z"/>
		
			<linearGradient id="SVGID_00000065777564169428142630000014376545941583883161_" gradientUnits="userSpaceOnUse" x1="113.024" y1="129.2016" x2="121.5531" y2="112.6877" gradientTransform="matrix(1 0 0 -1 0 177.2756)">
			<stop  offset="0" style="stop-color:#3B3B3B"/>
			<stop  offset="1" style="stop-color:#000000"/>
		</linearGradient>
		<path style="fill:url(#SVGID_00000065777564169428142630000014376545941583883161_);" d="M116.3,55.7L116.3,55.7
			c0-4.8,0-7.5,0-10.2c-0.7,0.5-1.4,1.1-2.1,1.6c0.2,3,0.1,7-0.5,11.2L116.3,55.7z"/>
		
			<linearGradient id="SVGID_00000175287843076886840020000018032138536048876731_" gradientUnits="userSpaceOnUse" x1="58.5392" y1="135.0327" x2="73.3616" y2="106.334" gradientTransform="matrix(1 0 0 -1 0 177.2756)">
			<stop  offset="0" style="stop-color:#363B39"/>
			<stop  offset="1" style="stop-color:#1B1C1C"/>
		</linearGradient>
		<path style="fill:url(#SVGID_00000175287843076886840020000018032138536048876731_);" d="M63.2,58.3c-1.3-8.6,0-16.4,0-16.4
			l-2.7-2.2c0.1,1.9,0.1,3.3,0.1,3.3c0,3.7,0,8.8,0,12.6l0,0l0,0L63.2,58.3z"/>
		
			<linearGradient id="SVGID_00000155135854395477476910000010357950422056614808_" gradientUnits="userSpaceOnUse" x1="56.2487" y1="129.6475" x2="65.193" y2="122.8918" gradientTransform="matrix(1 0 0 -1 0 177.2756)">
			<stop  offset="0" style="stop-color:#000000"/>
			<stop  offset="1" style="stop-color:#3B3B3B"/>
		</linearGradient>
		<path style="fill:url(#SVGID_00000155135854395477476910000010357950422056614808_);" d="M60.6,55.7L60.6,55.7c0-4.8,0-7.5,0-10.2
			c0.7,0.5,1.4,1.1,2.1,1.6c-0.2,3-0.1,7,0.5,11.2L60.6,55.7z"/>
		
			<linearGradient id="SVGID_00000124854710046368344280000010367913373131067287_" gradientUnits="userSpaceOnUse" x1="63.2" y1="115.1756" x2="113.8" y2="115.1756" gradientTransform="matrix(1 0 0 -1 0 177.2756)">
			<stop  offset="0" style="stop-color:#363B39"/>
			<stop  offset="1" style="stop-color:#0C0D0D"/>
		</linearGradient>
		
			<rect x="63.2" y="61.3" style="fill:url(#SVGID_00000124854710046368344280000010367913373131067287_);" width="50.6" height="1.6"/>
		<g>
			<path d="M109.1,25c-7.3-3-15.4-4.6-23.9-4.4c0-0.3,0-0.7,0-1c8.6-0.2,16.9,1.4,24.3,4.5C109.3,24.4,109.2,24.7,109.1,25z"/>
			<path d="M94,20.7c0,0.6-2.6,1.1-5.9,1.1s-5.9-0.5-5.9-1.1s2.6-1.1,5.9-1.1C91.3,19.6,94,20.1,94,20.7z"/>
		</g>
		<path class="st20" d="M116.2,54c0.3,0,0.5-0.2,0.5-0.5V49c0-0.3-0.2-0.5-0.5-0.5V54z"/>
		<path class="st21" d="M60.6,54c-0.3,0-0.5-0.2-0.5-0.5V49c0-0.3,0.2-0.5,0.5-0.5V54z"/>
		<path d="M88.5,33.1c-8.1,0-23.3,2.4-23.3,2.4s-1.7-9.6-1.9-11.3v-0.4l0.4-0.1c8.6-2.7,17-4,25.7-4c7.4,0,15.2,0.9,23.9,2.8
			l0.4,0.1V23c0,4.9-1.8,12.6-1.8,12.6S96.6,33.1,88.5,33.1z"/>
		
			<linearGradient id="SVGID_00000015356883071969549910000004316000065248519611_" gradientUnits="userSpaceOnUse" x1="63.7" y1="149.6405" x2="113.1064" y2="149.6405" gradientTransform="matrix(1 0 0 -1 0 177.2756)">
			<stop  offset="0" style="stop-color:#363B39"/>
			<stop  offset="1" style="stop-color:#0C0D0D"/>
		</linearGradient>
		<path style="fill:url(#SVGID_00000015356883071969549910000004316000065248519611_);" d="M111.9,35.1c-15.6-3.3-30.8-3.5-46.4-0.1
			c-0.6-4-1.4-6.9-1.8-10.8c15.9-5.1,31-5.2,49.4-1.2C113.2,27.8,112.1,35.1,111.9,35.1z"/>
		
			<linearGradient id="SVGID_00000067915992041494565950000013423245967497289392_" gradientUnits="userSpaceOnUse" x1="71.7397" y1="150.0945" x2="105.9397" y2="150.0945" gradientTransform="matrix(1 0 0 -1 0 177.2756)">
			<stop  offset="0" style="stop-color:#3B3B3B"/>
			<stop  offset="1" style="stop-color:#000000"/>
		</linearGradient>
		<path style="fill:url(#SVGID_00000067915992041494565950000013423245967497289392_);" d="M73.7,33.6c10-1.3,20.2-1.3,30.2,0.1
			l2-11.9c-11.3-1.5-22.9-1.5-34.2-0.1L73.7,33.6z"/>
		
			<linearGradient id="SVGID_00000165931194495993717400000004803333054006317494_" gradientUnits="userSpaceOnUse" x1="54.6" y1="59.9756" x2="122.3" y2="59.9756" gradientTransform="matrix(1 0 0 -1 0 177.2756)">
			<stop  offset="0" style="stop-color:#9CFF00"/>
			<stop  offset="5.084750e-02" style="stop-color:#43960E"/>
			<stop  offset="0.8856" style="stop-color:#68AC00"/>
			<stop  offset="0.9966" style="stop-color:#558C00"/>
		</linearGradient>
		<path style="fill:url(#SVGID_00000165931194495993717400000004803333054006317494_);" d="M120.4,171.8H56.5c-1,0-1.9-0.8-1.9-1.9
			V64.7c0-1,0.8-1.9,1.9-1.9h63.9c1,0,1.9,0.8,1.9,1.9v105.2C122.3,170.9,121.4,171.8,120.4,171.8z"/>
		<rect x="59.3" y="67.6" class="st5" width="58.2" height="99.5"/>
	</g>
	<g id="PWXzdq.tif">
		<g>
			<path class="st25" d="M95.1,98.6C95.1,98.6,95,98.6,95.1,98.6c0.1,0.1,0.2,0.1,0.2,0.1c0.8,0.2,1.4,0.6,1.9,1.2
				c0.6,0.7,1.1,1.4,1.5,2.2c0.2,0.4,0.5,0.8,0.7,1.2c0.1,0.2,0.2,0.2,0.3,0.1c0.6-0.4,1.2-0.8,1.8-1.2c0,0,0,0,0.1,0
				c0,0.1,0,0.1,0,0.2c-1.1,2-2.2,4-3.4,6c-0.1,0.2-0.2,0.4-0.3,0.6c-0.1,0.2-0.2,0.3-0.4,0.3c-1.5,0-3,0-4.4,0c-1,0-2.1,0-3.1,0
				c-0.2,0-0.4,0-0.6,0c0-0.1,0.1-0.1,0.2-0.2c0.7-0.4,1.5-0.8,2.2-1.2c0.1-0.1,0.2-0.1,0.1-0.3c-0.5-1.2-1.1-2.4-1.8-3.6
				c-1-1.7-2.2-3.3-3.7-4.7c-0.3-0.3-0.6-0.5-0.9-0.7C88.6,98.6,91.8,98.6,95.1,98.6z"/>
			<path class="st25" d="M106.3,116.6c-0.1,0.3-0.2,0.7-0.4,1c-0.8,1.3-1.9,2.2-3.4,2.7c-0.4,0.1-0.8,0.1-1.2,0.1
				c-0.6,0-1.2,0-1.9,0c-0.2,0-0.4-0.1-0.5-0.3c-0.8-1.5-1.6-3-2.5-4.6c-0.3-0.6-0.6-1.1-0.9-1.7c-0.1-0.1,0-0.2,0.1-0.2
				c2-1.2,4.1-2.5,6.1-3.7c0.3-0.2,0.6-0.3,0.9-0.5c0.1-0.1,0.2-0.1,0.3,0.1c0.6,1.2,1.2,2.4,1.8,3.6c0.5,1,1,2.1,1.5,3.1
				c0,0.1,0.1,0.1,0.1,0.2C106.3,116.4,106.3,116.5,106.3,116.6z"/>
			<path class="st25" d="M105.6,119c-0.1,0.2-0.2,0.4-0.3,0.6c-0.7,1.5-1.4,3.1-2.2,4.6c-0.5,1-1.1,2-1.9,2.9s-1.8,1.5-2.9,1.8
				c-0.8,0.3-1.7,0.3-2.6,0.3c-0.6,0-1.1,0-1.7,0c-0.2,0-0.2,0.1-0.2,0.2c0,0.8,0,1.5,0,2.3c0,0.1,0,0.1,0,0.2
				c-0.1,0-0.1-0.1-0.2-0.2c-1-1.7-2-3.5-2.9-5.2c-0.2-0.4-0.5-0.8-0.7-1.3c-0.1-0.1-0.1-0.2,0-0.3c0.6-1,1.2-2.1,1.7-3.1
				c0.6-1.2,1.3-2.3,1.9-3.5c0-0.1,0-0.1,0.1-0.1s0,0.1,0,0.2c0,0.7,0,1.4,0,2c0,0.2,0,0.2,0.2,0.2c2.3-0.1,4.6,0,6.9,0
				c0.7,0,1.3,0,2-0.2c0.8-0.2,1.6-0.6,2.2-1.2C105.3,119.3,105.4,119.1,105.6,119L105.6,119z"/>
			<path class="st25" d="M83.9,129.3c-1,0-1.9,0-2.9,0c-0.5,0-1-0.1-1.4-0.3c-1.3-0.6-2.3-1.5-3.2-2.6c-1-1.2-1.8-2.6-2.5-3.9
				c-0.5-1.1-1.1-2.1-1.6-3.2c-0.1-0.1-0.1-0.2-0.2-0.3v-0.1h0.1c0.4,0.4,0.8,0.7,1.2,1c0.4,0.3,0.9,0.6,1.4,0.8
				c0.4,0.2,0.9,0.2,1.4,0.2c0.9,0,1.7,0,2.6,0c0.4,0,0.9,0,1.3,0c2.2,0,4.4,0,6.7,0c0.1,0,0.2,0,0.2,0c0.1,0,0.2,0.1,0.2,0.2
				c0,0.3,0,0.5,0,0.8c0,2.4,0,4.8,0,7.3c0,0.3,0,0.3-0.3,0.3C85.9,129.3,84.9,129.3,83.9,129.3z"/>
			<path class="st25" d="M83.9,116.5c-0.2,0-0.2-0.1-0.3-0.1c-0.7-0.4-1.5-0.9-2.2-1.3c-0.1-0.1-0.2,0-0.2,0.1c-0.3,0.7-0.6,1.4-1,2
				c-0.5,1-1,2.1-1.5,3.1c-0.1,0.1-0.1,0.2-0.3,0.2c-0.9,0-1.7,0-2.6-0.1c-0.5,0-1-0.3-1.5-0.5c-1.2-0.7-2-1.7-2.5-2.9
				c-0.1-0.2-0.1-0.4,0-0.7c0.9-1.7,1.7-3.5,2.6-5.2c0.1-0.1,0-0.2-0.1-0.3c-0.8-0.4-1.5-0.9-2.3-1.3c-0.1,0-0.1-0.1-0.1-0.1
				c0-0.1,0.1-0.1,0.2-0.1c2.6,0,5.1,0,7.7,0c0.1,0,0.2,0.1,0.3,0.2c1.2,2.2,2.4,4.4,3.6,6.6C83.7,116.2,83.8,116.3,83.9,116.5z"/>
			<path class="st25" d="M83,98.8c1.3,0,2.3,0.4,3.2,1.1c0.7,0.6,1.3,1.3,1.8,2c0.1,0.2,0.2,0.3,0.3,0.5c0.1,0.1,0.1,0.2,0,0.3
				c-0.3,0.6-0.7,1.3-1,1.9c-0.7,1.2-1.3,2.5-2,3.7c-0.1,0.3-0.3,0.5-0.4,0.8c-0.1,0.1-0.1,0.1-0.2,0.1c-1.1-0.7-2.2-1.4-3.3-2.1
				c-1.2-0.8-2.5-1.5-3.7-2.3c-0.1-0.1-0.1-0.1-0.1-0.2c1.2-1.7,2.3-3.5,3.5-5.2c0.1-0.2,0.3-0.3,0.4-0.3
				C82.2,98.9,82.7,98.8,83,98.8z"/>
		</g>
	</g>
</g>
</svg>
