<?xml version="1.0" encoding="utf-8"?>
<!-- Generator: Adobe Illustrator 27.4.0, SVG Export Plug-In . SVG Version: 6.00 Build 0)  -->
<svg version="1.1"
	 id="svg543" xmlns:sodipodi="http://sodipodi.sourceforge.net/DTD/sodipodi-0.dtd" xmlns:rdf="http://www.w3.org/1999/02/22-rdf-syntax-ns#" xmlns:inkscape="http://www.inkscape.org/namespaces/inkscape" xmlns:cc="http://creativecommons.org/ns#" xmlns:dc="http://purl.org/dc/elements/1.1/" xmlns:svg="http://www.w3.org/2000/svg" inkscape:version="0.92.4 (5da689c313, 2019-01-14)" sodipodi:docname="shapes_notext.svg"
	 xmlns="http://www.w3.org/2000/svg" xmlns:xlink="http://www.w3.org/1999/xlink" x="0px" y="0px" viewBox="0 0 857 602"
	 style="enable-background:new 0 0 857 602;" xml:space="preserve">
<style type="text/css">
	.st0{fill:#444444;}
	.st1{fill:#F8E8CE;}
	.st2{fill:#FFFFFF;}
	.st3{fill:#AAAAAA;}
	.st4{fill:#E5E5E5;}
	.st5{fill:#FF5B71;}
	.st6{fill:#D12442;}
	.st7{fill:#D389BD;}
	.st8{fill:#BA65A4;}
	.st9{fill:#FDDD3A;}
	.st10{fill:#FFF235;}
	.st11{fill:#F6CA14;}
	.st12{fill:#D1A900;}
	.st13{fill:#1CADE3;}
	.st14{fill:#0099DC;}
	.st15{fill:#0485B2;}
	.st16{fill:none;}
	.st17{fill:#EE5A9C;}
	.st18{fill:#E43C90;}
	.st19{fill:#EF6EA8;}
	.st20{fill:#BC1E74;}
	.st21{fill:#FF9100;}
	.st22{fill:#D37402;}
	.st23{fill:#00F988;}
	.st24{fill:#09AA5D;}
	.st25{fill:#A4E869;}
	.st26{fill:#7AB541;}
	.st27{fill:#0080FF;}
	.st28{fill:#005BA5;}
	.st29{fill:#E21000;}
	.st30{fill:#930700;}
	.st31{fill:#EADE00;}
	.st32{fill:#AFA200;}
	.st33{fill:#494949;}
</style>
<sodipodi:namedview  bordercolor="#666666" borderopacity="1" gridtolerance="10" guidetolerance="10" id="namedview545" inkscape:current-layer="svg543" inkscape:cx="-268.3431" inkscape:cy="351.17693" inkscape:pageopacity="0" inkscape:pageshadow="2" inkscape:window-height="705" inkscape:window-maximized="1" inkscape:window-width="1366" inkscape:window-x="-8" inkscape:window-y="-8" inkscape:zoom="0.39202658" objecttolerance="10" pagecolor="#ffffff" showgrid="false">
	</sodipodi:namedview>
<g id="g100" transform="matrix(0.80828857,0,0,0.80828857,0.4,62.75)">
	<g id="g98">
		<g id="use96">
			<g id="Symbol_4_0_Layer0_0_FILL">
				<g id="path2">
					<path class="st0" d="M151.2-76c-0.1-0.1-0.2-0.1-0.4-0.1H0c-0.1,0-0.3,0.1-0.3,0.1c-0.1,0.1-0.1,0.2-0.1,0.4V75.2
						c0,0.1,0.1,0.3,0.1,0.4c0.1,0.1,0.2,0.1,0.3,0.1h150.9c0.1,0,0.3-0.1,0.4-0.1c0.1-0.1,0.1-0.2,0.1-0.4V-75.7
						C151.4-75.8,151.3-75.9,151.2-76 M0.5-75.2h149.9V74.7H0.5V-75.2z"/>
				</g>
				<g id="path4">
					<path class="st1" d="M150.4-75.2H0.5V74.7h149.9V-75.2 M149.6-74.6v0.2l0.2-0.2V74H1.5H1.2V-74.6H149.6z"/>
				</g>
				<g id="path6">
					<path class="st2" d="M143.2-67.9l6.4-6.5v-0.2H1.2V74h0.2L8,67.5V-67.9H143.2z"/>
				</g>
				<g id="path8">
					<path class="st3" d="M143.2-67.9L143.2-67.9l-0.1,135.1H8.3L8,67.5L1.5,74h148.3V-74.6l-0.2,0.2L143.2-67.9z"/>
				</g>
				<g id="path10">
					<path class="st4" d="M143.1-67.8L143.1-67.8L8-67.9V67.5l0.3-0.3H143v-135H143.1z"/>
				</g>
			</g>
		</g>
	</g>
</g>
<g id="g106" transform="matrix(0.80828857,0,0,0.80828857,728.95,420.55)">
	<g id="g104">
		<g id="use102">
			<g id="Symbol_4_0_Layer0_0_FILL_00000057856617367565944020000006972131852511088547_">
				<g id="path2_00000024004149143150599540000007527483977003721096_">
					<path class="st0" d="M157.7-75.8c-0.1-0.1-0.2-0.1-0.4-0.1H6.4c-0.1,0-0.3,0.1-0.3,0.1C6-75.7,6-75.6,6-75.4V75.4
						c0,0.1,0.1,0.3,0.1,0.4c0.1,0.1,0.2,0.1,0.3,0.1h150.9c0.1,0,0.3-0.1,0.4-0.1c0.1-0.1,0.1-0.2,0.1-0.4V-75.4
						C157.8-75.6,157.8-75.7,157.7-75.8 M6.9-74.9h149.9V74.9H6.9V-74.9z"/>
				</g>
				<g id="path4_00000054974703845682232700000004367232116412736689_">
					<path class="st1" d="M156.8-74.9H6.9V74.9h149.9L156.8-74.9 M156.1-74.4v0.2l0.2-0.2V74.2H7.9H7.7V-74.4H156.1z"/>
				</g>
				<g id="path6_00000048479097119265090530000013270581327287037605_">
					<path class="st2" d="M149.6-67.6l6.4-6.5v-0.2H7.7V74.2h0.2l6.5-6.4V-67.6H149.6z"/>
				</g>
				<g id="path8_00000153687430753875686090000016452881103048786836_">
					<path class="st3" d="M149.6-67.6L149.6-67.6l-0.1,135.1H14.8l-0.4,0.3l-6.5,6.4h148.3V-74.4l-0.2,0.2L149.6-67.6z"/>
				</g>
				<g id="path10_00000134938418709115646240000000747861923546826646_">
					<path class="st4" d="M149.5-67.5L149.5-67.5L14.4-67.6V67.7l0.4-0.3h134.7V-67.5z"/>
				</g>
			</g>
		</g>
	</g>
</g>
<g id="g112" transform="matrix(0.80828857,0,0,0.80828857,245.3,62.75)">
	<g id="g110">
		<g id="use108">
			<g id="Symbol_4_0_Layer0_0_FILL_00000041284311209527837320000008059889795685489048_">
				<g id="path2_00000155108935303216007840000009395691468609637536_">
					<path class="st0" d="M151.2-76c-0.1-0.1-0.2-0.1-0.4-0.1H0c-0.1,0-0.3,0.1-0.3,0.1c-0.1,0.1-0.1,0.2-0.1,0.4V75.2
						c0,0.1,0.1,0.3,0.1,0.4c0.1,0.1,0.2,0.1,0.3,0.1h150.9c0.1,0,0.3-0.1,0.4-0.1c0.1-0.1,0.1-0.2,0.1-0.4V-75.7
						C151.4-75.8,151.3-75.9,151.2-76 M0.5-75.2h149.9V74.7H0.5V-75.2z"/>
				</g>
				<g id="path4_00000015347109854312592910000005403258354177462448_">
					<path class="st1" d="M150.4-75.2H0.5V74.7h149.9V-75.2 M149.6-74.6v0.2l0.2-0.2V74H1.5H1.2V-74.6H149.6z"/>
				</g>
				<g id="path6_00000157997516171477126120000010360631310375759794_">
					<path class="st2" d="M143.2-67.9l6.4-6.5v-0.2H1.2V74h0.2L8,67.5V-67.9H143.2z"/>
				</g>
				<g id="path8_00000036249121193093756160000006399212360395048884_">
					<path class="st3" d="M143.2-67.9L143.2-67.9l-0.1,135.1H8.3L8,67.5L1.5,74h148.3V-74.6l-0.2,0.2L143.2-67.9z"/>
				</g>
				<g id="path10_00000176021503273690717610000013989761639343461296_">
					<path class="st4" d="M143.1-67.8L143.1-67.8L8-67.9V67.5l0.3-0.3H143v-135H143.1z"/>
				</g>
			</g>
		</g>
	</g>
</g>
<g id="g118" transform="matrix(0.80828857,0,0,0.80828857,367.75,62.75)">
	<g id="g116">
		<g id="use114">
			<g id="Symbol_4_0_Layer0_0_FILL_00000167395658768129741350000003842712895238764932_">
				<g id="path2_00000042010490735679254520000002200077004639188122_">
					<path class="st0" d="M151.2-76c-0.1-0.1-0.2-0.1-0.4-0.1H0c-0.1,0-0.3,0.1-0.3,0.1c-0.1,0.1-0.1,0.2-0.1,0.4V75.2
						c0,0.1,0.1,0.3,0.1,0.4c0.1,0.1,0.2,0.1,0.3,0.1h150.9c0.1,0,0.3-0.1,0.4-0.1c0.1-0.1,0.1-0.2,0.1-0.4V-75.7
						C151.4-75.8,151.3-75.9,151.2-76 M0.5-75.2h149.9V74.7H0.5V-75.2z"/>
				</g>
				<g id="path4_00000003106666698228172490000006721997179963678879_">
					<path class="st1" d="M150.4-75.2H0.5V74.7h149.9V-75.2 M149.6-74.6v0.2l0.2-0.2V74H1.5H1.2V-74.6H149.6z"/>
				</g>
				<g id="path6_00000022519364463937133560000016206082409796882604_">
					<path class="st2" d="M143.2-67.9l6.4-6.5v-0.2H1.2V74h0.2L8,67.5V-67.9H143.2z"/>
				</g>
				<g id="path8_00000145029021083507723540000006925270994396109468_">
					<path class="st3" d="M143.2-67.9L143.2-67.9l-0.1,135.1H8.3L8,67.5L1.5,74h148.3V-74.6l-0.2,0.2L143.2-67.9z"/>
				</g>
				<g id="path10_00000047777791217049611700000009134504407946484126_">
					<path class="st4" d="M143.1-67.8L143.1-67.8L8-67.9V67.5l0.3-0.3H143v-135H143.1z"/>
				</g>
			</g>
		</g>
	</g>
</g>
<g id="g124" transform="matrix(0.80828857,0,0,0.80828857,490.2,62.75)">
	<g id="g122">
		<g id="use120">
			<g id="Symbol_4_0_Layer0_0_FILL_00000060718874202409458760000012851487041570271387_">
				<g id="path2_00000183931077455208167610000017228650999048755593_">
					<path class="st0" d="M151.2-76c-0.1-0.1-0.2-0.1-0.4-0.1H0c-0.1,0-0.3,0.1-0.3,0.1c-0.1,0.1-0.1,0.2-0.1,0.4V75.2
						c0,0.1,0.1,0.3,0.1,0.4c0.1,0.1,0.2,0.1,0.3,0.1h150.9c0.1,0,0.3-0.1,0.4-0.1c0.1-0.1,0.1-0.2,0.1-0.4V-75.7
						C151.4-75.8,151.3-75.9,151.2-76 M0.5-75.2h149.9V74.7H0.5V-75.2z"/>
				</g>
				<g id="path4_00000182523135411332471050000007666885396670035862_">
					<path class="st1" d="M150.4-75.2H0.5V74.7h149.9V-75.2 M149.6-74.6v0.2l0.2-0.2V74H1.5H1.2V-74.6H149.6z"/>
				</g>
				<g id="path6_00000169516036661798399500000014961519093579055036_">
					<path class="st2" d="M143.2-67.9l6.4-6.5v-0.2H1.2V74h0.2L8,67.5V-67.9H143.2z"/>
				</g>
				<g id="path8_00000001665662037508111850000011031744532500242863_">
					<path class="st3" d="M143.2-67.9L143.2-67.9l-0.1,135.1H8.3L8,67.5L1.5,74h148.3V-74.6l-0.2,0.2L143.2-67.9z"/>
				</g>
				<g id="path10_00000024700687145594495970000009638486501810725534_">
					<path class="st4" d="M143.1-67.8L143.1-67.8L8-67.9V67.5l0.4-0.3h134.7L143.1-67.8L143.1-67.8z"/>
				</g>
			</g>
		</g>
	</g>
</g>
<g id="g130" transform="matrix(0.80828857,0,0,0.80828857,612.65,62.75)">
	<g id="g128">
		<g id="use126">
			<g id="Symbol_4_0_Layer0_0_FILL_00000003811045814102726980000010203010938762674367_">
				<g id="path2_00000111890607537781829590000001353001895528908961_">
					<path class="st0" d="M151.2-76c-0.1-0.1-0.2-0.1-0.4-0.1H0c-0.1,0-0.3,0.1-0.3,0.1c-0.1,0.1-0.1,0.2-0.1,0.4V75.2
						c0,0.1,0.1,0.3,0.1,0.4c0.1,0.1,0.2,0.1,0.3,0.1h150.9c0.1,0,0.3-0.1,0.4-0.1c0.1-0.1,0.1-0.2,0.1-0.4V-75.7
						C151.4-75.8,151.3-75.9,151.2-76 M0.5-75.2h149.9V74.7H0.5V-75.2z"/>
				</g>
				<g id="path4_00000056406234049904874240000013045944485960576663_">
					<path class="st1" d="M150.4-75.2H0.5V74.7h149.9V-75.2 M149.6-74.6v0.2l0.2-0.2V74H1.5H1.2V-74.6H149.6z"/>
				</g>
				<g id="path6_00000161608843497017924190000007142883374151338919_">
					<path class="st2" d="M143.2-67.9l6.4-6.5v-0.2H1.2V74h0.2L8,67.5V-67.9H143.2z"/>
				</g>
				<g id="path8_00000150070345939787929130000005586749309766291625_">
					<path class="st3" d="M143.2-67.9L143.2-67.9l-0.1,135.1H8.3L8,67.5L1.5,74h148.3V-74.6l-0.2,0.2L143.2-67.9z"/>
				</g>
				<g id="path10_00000152252852442381324580000012666466921934896539_">
					<path class="st4" d="M143.1-67.8L143.1-67.8L8-67.9V67.5l0.4-0.3h134.7L143.1-67.8L143.1-67.8z"/>
				</g>
			</g>
		</g>
	</g>
</g>
<g id="g136" transform="matrix(0.80828857,0,0,0.80828857,735.2,62.75)">
	<g id="g134">
		<g id="use132">
			<g id="Symbol_4_0_Layer0_0_FILL_00000091017035848212406670000014345063686291619502_">
				<g id="path2_00000072993743194985466790000010583979596603331516_">
					<path class="st0" d="M150-76c-0.1-0.1-0.2-0.1-0.4-0.1H-1.3c-0.1,0-0.3,0.1-0.3,0.1c-0.1,0.1-0.1,0.2-0.1,0.4V75.2
						c0,0.1,0.1,0.3,0.1,0.4c0.1,0.1,0.2,0.1,0.3,0.1h150.9c0.1,0,0.3-0.1,0.4-0.1c0.1-0.1,0.1-0.2,0.1-0.4V-75.7
						C150.1-75.8,150.1-75.9,150-76 M-0.8-75.2h149.9V74.7H-0.8V-75.2z"/>
				</g>
				<g id="path4_00000055699972803546447230000012722936884186736830_">
					<path class="st1" d="M149.1-75.2H-0.8V74.7h149.9L149.1-75.2 M148.4-74.6v0.2l0.2-0.2V74H0.2H0V-74.6H148.4z"/>
				</g>
				<g id="path6_00000061450129643549349280000006611041753507255483_">
					<path class="st2" d="M141.9-67.9l6.4-6.5v-0.2H0V74h0.2l6.5-6.4V-67.9H141.9z"/>
				</g>
				<g id="path8_00000058561351830711363160000013209939200969587359_">
					<path class="st3" d="M141.9-67.9L141.9-67.9l-0.1,135.1H7.1l-0.4,0.3L0.2,74h148.3V-74.6l-0.2,0.2L141.9-67.9z"/>
				</g>
				<g id="path10_00000154397802831285786620000012698042020909465476_">
					<path class="st4" d="M141.8-67.8L141.8-67.8L6.7-67.9V67.5l0.4-0.3h134.7V-67.8z"/>
				</g>
			</g>
		</g>
	</g>
</g>
<g id="g142" transform="matrix(0.80828857,0,0,0.80828857,0.4,182.4)">
	<g id="g140">
		<g id="use138">
			<g id="Symbol_4_0_Layer0_0_FILL_00000062170747477018209800000002527276927208526779_">
				<g id="path2_00000000209592974442518250000010463367002182371712_">
					<path class="st0" d="M151.2-75.8c-0.1-0.1-0.2-0.1-0.4-0.1H0c-0.1,0-0.3,0.1-0.3,0.1c-0.1,0.1-0.1,0.2-0.1,0.4V75.4
						c0,0.1,0.1,0.3,0.1,0.4c0.1,0.1,0.2,0.1,0.3,0.1h150.9c0.1,0,0.3-0.1,0.4-0.1c0.1-0.1,0.1-0.2,0.1-0.4V-75.5
						C151.4-75.6,151.3-75.7,151.2-75.8 M0.5-75h149.9V74.9H0.5V-75z"/>
				</g>
				<g id="path4_00000111167897200759796450000011761640082765346480_">
					<path class="st1" d="M150.4-75H0.5V74.9h149.9V-75 M149.6-74.4v0.2l0.2-0.2V74.2H1.5H1.2V-74.4H149.6z"/>
				</g>
				<g id="path6_00000103961407567163123440000013763964828460691112_">
					<path class="st2" d="M143.2-67.7l6.4-6.5v-0.2H1.2V74.2h0.2L8,67.7V-67.7H143.2z"/>
				</g>
				<g id="path8_00000173149725070394813510000009687076572293894278_">
					<path class="st3" d="M143.2-67.7L143.2-67.7l-0.1,135.1H8.3L8,67.7l-6.5,6.4h148.3V-74.4l-0.2,0.2L143.2-67.7z"/>
				</g>
				<g id="path10_00000102529401508985403710000008088653573099773357_">
					<path class="st4" d="M143.1-67.6L143.1-67.6L8-67.7V67.7l0.3-0.3H143v-135H143.1z"/>
				</g>
			</g>
		</g>
	</g>
</g>
<g id="g154" transform="matrix(0.80828857,0,0,0.80828857,245.3,182.4)">
	<g id="g152">
		<g id="use150">
			<g id="Symbol_4_0_Layer0_0_FILL_00000017488679195934062650000009659570928698336409_">
				<g id="path2_00000146459863597470641830000009439416191409941120_">
					<path class="st0" d="M151.2-75.8c-0.1-0.1-0.2-0.1-0.4-0.1H0c-0.1,0-0.3,0.1-0.3,0.1c-0.1,0.1-0.1,0.2-0.1,0.4V75.4
						c0,0.1,0.1,0.3,0.1,0.4c0.1,0.1,0.2,0.1,0.3,0.1h150.9c0.1,0,0.3-0.1,0.4-0.1c0.1-0.1,0.1-0.2,0.1-0.4V-75.5
						C151.4-75.6,151.3-75.7,151.2-75.8 M0.5-75h149.9V74.9H0.5V-75z"/>
				</g>
				<g id="path4_00000026866958475516022370000000020738918433504908_">
					<path class="st1" d="M150.4-75H0.5V74.9h149.9V-75 M149.6-74.4v0.2l0.2-0.2V74.2H1.5H1.2V-74.4H149.6z"/>
				</g>
				<g id="path6_00000158017089806823539740000012288919036979721893_">
					<path class="st2" d="M143.2-67.7l6.4-6.5v-0.2H1.2V74.2h0.2L8,67.7V-67.7H143.2z"/>
				</g>
				<g id="path8_00000026866943304865955490000012895560907734951044_">
					<path class="st3" d="M143.2-67.7L143.2-67.7l-0.1,135.1H8.3L8,67.7l-6.5,6.4h148.3V-74.4l-0.2,0.2L143.2-67.7z"/>
				</g>
				<g id="path10_00000039118881252824875450000018344616573389853330_">
					<path class="st4" d="M143.1-67.6L143.1-67.6L8-67.7V67.7l0.3-0.3H143v-135H143.1z"/>
				</g>
			</g>
		</g>
	</g>
</g>
<g id="g160" transform="matrix(0.80828857,0,0,0.80828857,367.75,182.4)">
	<g id="g158">
		<g id="use156">
			<g id="Symbol_4_0_Layer0_0_FILL_00000078755145510030100570000010173634966654743987_">
				<g id="path2_00000111185043719099079840000017375565389773749642_">
					<path class="st0" d="M151.2-75.8c-0.1-0.1-0.2-0.1-0.4-0.1H0c-0.1,0-0.3,0.1-0.3,0.1c-0.1,0.1-0.1,0.2-0.1,0.4V75.4
						c0,0.1,0.1,0.3,0.1,0.4c0.1,0.1,0.2,0.1,0.3,0.1h150.9c0.1,0,0.3-0.1,0.4-0.1c0.1-0.1,0.1-0.2,0.1-0.4V-75.5
						C151.4-75.6,151.3-75.7,151.2-75.8 M0.5-75h149.9V74.9H0.5V-75z"/>
				</g>
				<g id="path4_00000030473317724129259180000003227667644077662641_">
					<path class="st1" d="M150.4-75H0.5V74.9h149.9V-75 M149.6-74.4v0.2l0.2-0.2V74.2H1.5H1.2V-74.4H149.6z"/>
				</g>
				<g id="path6_00000029757789466747643810000013650173063508748688_">
					<path class="st2" d="M143.2-67.7l6.4-6.5v-0.2H1.2V74.2h0.2L8,67.7V-67.7H143.2z"/>
				</g>
				<g id="path8_00000174601280969872920320000009263182456056537984_">
					<path class="st3" d="M143.2-67.7L143.2-67.7l-0.1,135.1H8.3L8,67.7l-6.5,6.4h148.3V-74.4l-0.2,0.2L143.2-67.7z"/>
				</g>
				<g id="path10_00000172417310576537766280000012639880159394053290_">
					<path class="st4" d="M143.1-67.6L143.1-67.6L8-67.7V67.7l0.3-0.3H143v-135H143.1z"/>
				</g>
			</g>
		</g>
	</g>
</g>
<g id="g166" transform="matrix(0.80828857,0,0,0.80828857,490.2,182.4)">
	<g id="g164">
		<g id="use162">
			<g id="Symbol_4_0_Layer0_0_FILL_00000024707311206431413960000008060899986521116292_">
				<g id="path2_00000069380103871089443450000017988368857506093208_">
					<path class="st0" d="M151.2-75.8c-0.1-0.1-0.2-0.1-0.4-0.1H0c-0.1,0-0.3,0.1-0.3,0.1c-0.1,0.1-0.1,0.2-0.1,0.4V75.4
						c0,0.1,0.1,0.3,0.1,0.4c0.1,0.1,0.2,0.1,0.3,0.1h150.9c0.1,0,0.3-0.1,0.4-0.1c0.1-0.1,0.1-0.2,0.1-0.4V-75.5
						C151.4-75.6,151.3-75.7,151.2-75.8 M0.5-75h149.9V74.9H0.5V-75z"/>
				</g>
				<g id="path4_00000008106495094226170510000015754463775499544497_">
					<path class="st1" d="M150.4-75H0.5V74.9h149.9V-75 M149.6-74.4v0.2l0.2-0.2V74.2H1.5H1.2V-74.4H149.6z"/>
				</g>
				<g id="path6_00000036236036935696876180000018161778294271511955_">
					<path class="st2" d="M143.2-67.7l6.4-6.5v-0.2H1.2V74.2h0.2L8,67.7V-67.7H143.2z"/>
				</g>
				<g id="path8_00000181786656457589936310000014505996450723418503_">
					<path class="st3" d="M143.2-67.7L143.2-67.7l-0.1,135.1H8.3L8,67.7l-6.5,6.4h148.3V-74.4l-0.2,0.2L143.2-67.7z"/>
				</g>
				<g id="path10_00000096763707700810175890000005016336437352907164_">
					<path class="st4" d="M143.1-67.6L143.1-67.6L8-67.7V67.7l0.4-0.3h134.7L143.1-67.6L143.1-67.6z"/>
				</g>
			</g>
		</g>
	</g>
</g>
<g id="g148" transform="matrix(0.80828857,0,0,0.80828857,122.85,182.4)">
	<g id="g146">
		<g id="use144">
			<g id="Symbol_4_0_Layer0_0_FILL_00000033363552309600447430000017556475254216275622_">
				<g id="path2_00000058564793044152101480000001378862769272277172_">
					<path class="st0" d="M151.1-75.9c-0.1-0.1-0.2-0.1-0.4-0.2H-0.1c-0.1,0-0.3,0.1-0.3,0.2c-0.1,0.1-0.1,0.2-0.1,0.4v151
						c0,0.1,0.1,0.3,0.1,0.4S-0.3,76-0.1,76h150.9c0.1,0,0.3-0.1,0.4-0.2c0.1-0.1,0.1-0.2,0.1-0.4v-151
						C151.3-75.7,151.2-75.8,151.1-75.9 M0.4-75.1h149.9V75H0.4V-75.1z"/>
				</g>
				<g id="path4_00000058585913906331310760000001114299357940534933_">
					<path class="st1" d="M150.3-75.1H0.4V75h149.9L150.3-75.1 M149.5-74.5v0.2l0.2-0.2V74.3H1.4H1.1V-74.5H149.5z"/>
				</g>
				<g id="path6_00000098938623980545254090000009415952286167862679_">
					<path class="st2" d="M143.1-67.7l6.4-6.6v-0.2H1.1V74.3h0.2l6.5-6.5V-67.7H143.1z"/>
				</g>
				<g id="path8_00000077326211783924193940000012935128060371397047_">
					<path class="st3" d="M143.1-67.7l-0.1,0.1V67.5H8.2l-0.3,0.3l-6.5,6.5h148.3V-74.5l-0.2,0.2L143.1-67.7z"/>
				</g>
				<g id="path10_00000149382099678950156040000004061500477030073234_">
					<path class="st4" d="M143-67.6l0.1-0.1H7.9V67.8l0.3-0.3H143V-67.6z"/>
				</g>
			</g>
		</g>
	</g>
</g>
<g id="g172" transform="matrix(0.80828857,0,0,0.80828857,612.65,182.4)">
	<g id="g170">
		<g id="use168">
			<g id="Symbol_4_0_Layer0_0_FILL_00000119807508041754990940000014847469003942912409_">
				<g id="path2_00000078728286230637113320000008709132304190666398_">
					<path class="st0" d="M151.2-75.8c-0.1-0.1-0.2-0.1-0.4-0.1H0c-0.1,0-0.3,0.1-0.3,0.1c-0.1,0.1-0.1,0.2-0.1,0.4V75.4
						c0,0.1,0.1,0.3,0.1,0.4c0.1,0.1,0.2,0.1,0.3,0.1h150.9c0.1,0,0.3-0.1,0.4-0.1c0.1-0.1,0.1-0.2,0.1-0.4V-75.5
						C151.4-75.6,151.3-75.7,151.2-75.8 M0.5-75h149.9V74.9H0.5V-75z"/>
				</g>
				<g id="path4_00000101815569689806686930000018131885094844902032_">
					<path class="st1" d="M150.4-75H0.5V74.9h149.9V-75 M149.6-74.4v0.2l0.2-0.2V74.2H1.5H1.2V-74.4H149.6z"/>
				</g>
				<g id="path6_00000021117990851476599990000004709108357694463134_">
					<path class="st2" d="M143.2-67.7l6.4-6.5v-0.2H1.2V74.2h0.2L8,67.7V-67.7H143.2z"/>
				</g>
				<g id="path8_00000023248538889175750580000002771749508534949297_">
					<path class="st3" d="M143.2-67.7L143.2-67.7l-0.1,135.1H8.3L8,67.7l-6.5,6.4h148.3V-74.4l-0.2,0.2L143.2-67.7z"/>
				</g>
				<g id="path10_00000074413613661496314030000011966847728264372912_">
					<path class="st4" d="M143.1-67.6L143.1-67.6L8-67.7V67.7l0.4-0.3h134.7L143.1-67.6L143.1-67.6z"/>
				</g>
			</g>
		</g>
	</g>
</g>
<g id="g178" transform="matrix(0.80828857,0,0,0.80828857,735.2,182.4)">
	<g id="g176">
		<g id="use174">
			<g id="Symbol_4_0_Layer0_0_FILL_00000025440143557055061070000007755473767476061111_">
				<g id="path2_00000089563856112063284460000016014926334299872946_">
					<path class="st0" d="M150-75.8c-0.1-0.1-0.2-0.1-0.4-0.1H-1.3c-0.1,0-0.3,0.1-0.3,0.1c-0.1,0.1-0.1,0.2-0.1,0.4V75.4
						c0,0.1,0.1,0.3,0.1,0.4c0.1,0.1,0.2,0.1,0.3,0.1h150.9c0.1,0,0.3-0.1,0.4-0.1c0.1-0.1,0.1-0.2,0.1-0.4V-75.4
						C150.1-75.6,150.1-75.7,150-75.8 M-0.8-74.9h149.9V74.9H-0.8V-74.9z"/>
				</g>
				<g id="path4_00000102536156034228840390000002439320304375451040_">
					<path class="st1" d="M149.1-74.9H-0.8V74.9h149.9L149.1-74.9 M148.4-74.4v0.2l0.2-0.2V74.2H0.2H0V-74.4H148.4z"/>
				</g>
				<g id="path6_00000175305919553886309250000008393064082716938152_">
					<path class="st2" d="M141.9-67.6l6.4-6.5v-0.2H0V74.2h0.2l6.5-6.4V-67.6H141.9z"/>
				</g>
				<g id="path8_00000153694245092182785800000013017949854318354564_">
					<path class="st3" d="M141.9-67.6L141.9-67.6l-0.1,135.1H7.1l-0.4,0.3l-6.5,6.4h148.3V-74.4l-0.2,0.2L141.9-67.6z"/>
				</g>
				<g id="path10_00000017492461212884835460000006727953520199175566_">
					<path class="st4" d="M141.8-67.5L141.8-67.5L6.7-67.6V67.7l0.4-0.3h134.7V-67.5z"/>
				</g>
			</g>
		</g>
	</g>
</g>
<g id="g184" transform="matrix(0.80828857,0,0,0.80828857,0.4,302)">
	<g id="g182">
		<g id="use180">
			<g id="Symbol_4_0_Layer0_0_FILL_00000140711856823094285050000013953596219598861203_">
				<g id="path2_00000142858157422478081590000014871120901222127250_">
					<path class="st0" d="M151.2-75.8c-0.1-0.1-0.2-0.1-0.4-0.1H0c-0.1,0-0.3,0.1-0.3,0.1c-0.1,0.1-0.1,0.2-0.1,0.4V75.4
						c0,0.1,0.1,0.3,0.1,0.4c0.1,0.1,0.2,0.1,0.3,0.1h150.9c0.1,0,0.3-0.1,0.4-0.1c0.1-0.1,0.1-0.2,0.1-0.4V-75.4
						C151.4-75.6,151.3-75.7,151.2-75.8 M0.5-74.9h149.9V74.9H0.5V-74.9z"/>
				</g>
				<g id="path4_00000034049822348791093820000010980567872012097705_">
					<path class="st1" d="M150.4-74.9H0.5V74.9h149.9V-74.9 M149.6-74.4v0.2l0.2-0.2V74.2H1.5H1.2V-74.4H149.6z"/>
				</g>
				<g id="path6_00000005975738898163892670000000094192166252343445_">
					<path class="st2" d="M143.2-67.6l6.4-6.5v-0.2H1.2V74.2h0.2L8,67.7V-67.6H143.2z"/>
				</g>
				<g id="path8_00000026871959748440744960000008491877493286785436_">
					<path class="st3" d="M143.2-67.6L143.2-67.6l-0.1,135.1H8.3L8,67.7l-6.5,6.4h148.3V-74.4l-0.2,0.2L143.2-67.6z"/>
				</g>
				<g id="path10_00000030470407633806021120000000617366304771491732_">
					<path class="st4" d="M143.1-67.5L143.1-67.5L8-67.6V67.7l0.3-0.3H143V-67.5H143.1z"/>
				</g>
			</g>
		</g>
	</g>
</g>
<g id="g190" transform="matrix(0.80828857,0,0,0.80828857,122.85,302)">
	<g id="g188">
		<g id="use186">
			<g id="Symbol_4_0_Layer0_0_FILL_00000168118519416731920450000006746176599741086624_">
				<g id="path2_00000054963599454882630800000001770535081808191148_">
					<path class="st0" d="M151.1-75.8c-0.1-0.1-0.2-0.1-0.4-0.1H-0.1c-0.1,0-0.3,0.1-0.3,0.1c-0.1,0.1-0.1,0.2-0.1,0.4V75.4
						c0,0.1,0.1,0.3,0.1,0.4c0.1,0.1,0.2,0.1,0.3,0.1h150.9c0.1,0,0.3-0.1,0.4-0.1c0.1-0.1,0.1-0.2,0.1-0.4V-75.4
						C151.3-75.6,151.2-75.7,151.1-75.8 M0.4-74.9h149.9V74.9H0.4V-74.9z"/>
				</g>
				<g id="path4_00000066495869530957017040000015506392911535888303_">
					<path class="st1" d="M150.3-74.9H0.4V74.9h149.9L150.3-74.9 M149.5-74.4v0.2l0.2-0.2V74.2H1.4H1.1V-74.4H149.5z"/>
				</g>
				<g id="path6_00000017508343009326121090000018381320373674731699_">
					<path class="st2" d="M143.1-67.6l6.4-6.5v-0.2H1.1V74.2h0.2l6.5-6.4V-67.6H143.1z"/>
				</g>
				<g id="path8_00000092451216826468738160000000726201697762667189_">
					<path class="st3" d="M143.1-67.6L143.1-67.6l-0.1,135H8.2l-0.3,0.3l-6.5,6.4h148.3V-74.4l-0.2,0.2L143.1-67.6z"/>
				</g>
				<g id="path10_00000170280106682261889770000009658011550063682959_">
					<path class="st4" d="M143-67.5L143-67.5L7.9-67.6V67.7l0.3-0.3H143V-67.5z"/>
				</g>
			</g>
		</g>
	</g>
</g>
<g id="g196" transform="matrix(0.80828857,0,0,0.80828857,245.3,302)">
	<g id="g194">
		<g id="use192">
			<g id="Symbol_4_0_Layer0_0_FILL_00000034089343528881507960000016707996159042167228_">
				<g id="path2_00000068673903481941523780000007232502475358004132_">
					<path class="st0" d="M151.2-75.8c-0.1-0.1-0.2-0.1-0.4-0.1H0c-0.1,0-0.3,0.1-0.3,0.1c-0.1,0.1-0.1,0.2-0.1,0.4V75.4
						c0,0.1,0.1,0.3,0.1,0.4c0.1,0.1,0.2,0.1,0.3,0.1h150.9c0.1,0,0.3-0.1,0.4-0.1c0.1-0.1,0.1-0.2,0.1-0.4V-75.4
						C151.4-75.6,151.3-75.7,151.2-75.8 M0.5-74.9h149.9V74.9H0.5V-74.9z"/>
				</g>
				<g id="path4_00000183216263279024222770000001361758064845223855_">
					<path class="st1" d="M150.4-74.9H0.5V74.9h149.9V-74.9 M149.6-74.4v0.2l0.2-0.2V74.2H1.5H1.2V-74.4H149.6z"/>
				</g>
				<g id="path6_00000066502249678284850750000004306917295981801610_">
					<path class="st2" d="M143.2-67.6l6.4-6.5v-0.2H1.2V74.2h0.2L8,67.7V-67.6H143.2z"/>
				</g>
				<g id="path8_00000051349698610727253910000016684851669806800273_">
					<path class="st3" d="M143.2-67.6L143.2-67.6l-0.1,135.1H8.3L8,67.7l-6.5,6.4h148.3V-74.4l-0.2,0.2L143.2-67.6z"/>
				</g>
				<g id="path10_00000047061924320312984500000008394199800180631170_">
					<path class="st4" d="M143.1-67.5L143.1-67.5L8-67.6V67.7l0.3-0.3H143V-67.5H143.1z"/>
				</g>
			</g>
		</g>
	</g>
</g>
<g id="g202" transform="matrix(0.80828857,0,0,0.80828857,367.75,302)">
	<g id="g200">
		<g id="use198">
			<g id="Symbol_4_0_Layer0_0_FILL_00000133503239864127640250000011250163920443120808_">
				<g id="path2_00000124154712822414452450000008538036914902318216_">
					<path class="st0" d="M151.2-75.8c-0.1-0.1-0.2-0.1-0.4-0.1H0c-0.1,0-0.3,0.1-0.3,0.1c-0.1,0.1-0.1,0.2-0.1,0.4V75.4
						c0,0.1,0.1,0.3,0.1,0.4c0.1,0.1,0.2,0.1,0.3,0.1h150.9c0.1,0,0.3-0.1,0.4-0.1c0.1-0.1,0.1-0.2,0.1-0.4V-75.4
						C151.4-75.6,151.3-75.7,151.2-75.8 M0.5-74.9h149.9V74.9H0.5V-74.9z"/>
				</g>
				<g id="path4_00000132069887730392947830000006575668080426835355_">
					<path class="st1" d="M150.4-74.9H0.5V74.9h149.9V-74.9 M149.6-74.4v0.2l0.2-0.2V74.2H1.5H1.2V-74.4H149.6z"/>
				</g>
				<g id="path6_00000071534364550132265750000004975994454730426785_">
					<path class="st2" d="M143.2-67.6l6.4-6.5v-0.2H1.2V74.2h0.2L8,67.7V-67.6H143.2z"/>
				</g>
				<g id="path8_00000061430185181603523010000013039290469823301022_">
					<path class="st3" d="M143.2-67.6L143.2-67.6l-0.1,135.1H8.3L8,67.7l-6.5,6.4h148.3V-74.4l-0.2,0.2L143.2-67.6z"/>
				</g>
				<g id="path10_00000013162491137018077680000013193890061353456268_">
					<path class="st4" d="M143.1-67.5L143.1-67.5L8-67.6V67.7l0.3-0.3H143V-67.5H143.1z"/>
				</g>
			</g>
		</g>
	</g>
</g>
<g id="g208" transform="matrix(0.80828857,0,0,0.80828857,490.2,302)">
	<g id="g206">
		<g id="use204">
			<g id="Symbol_4_0_Layer0_0_FILL_00000160177816290408472680000000439426008075200952_">
				<g id="path2_00000072270546006141667110000002324338484441207688_">
					<path class="st0" d="M151.2-75.8c-0.1-0.1-0.2-0.1-0.4-0.1H0c-0.1,0-0.3,0.1-0.3,0.1c-0.1,0.1-0.1,0.2-0.1,0.4V75.4
						c0,0.1,0.1,0.3,0.1,0.4c0.1,0.1,0.2,0.1,0.3,0.1h150.9c0.1,0,0.3-0.1,0.4-0.1c0.1-0.1,0.1-0.2,0.1-0.4V-75.4
						C151.4-75.6,151.3-75.7,151.2-75.8 M0.5-74.9h149.9V74.9H0.5V-74.9z"/>
				</g>
				<g id="path4_00000085221534252272745910000001023283114645741492_">
					<path class="st1" d="M150.4-74.9H0.5V74.9h149.9V-74.9 M149.6-74.4v0.2l0.2-0.2V74.2H1.5H1.2V-74.4H149.6z"/>
				</g>
				<g id="path6_00000031926952065245368180000006709736285001348030_">
					<path class="st2" d="M143.2-67.6l6.4-6.5v-0.2H1.2V74.2h0.2L8,67.7V-67.6H143.2z"/>
				</g>
				<g id="path8_00000124844552374104592620000002099423773179169682_">
					<path class="st3" d="M143.2-67.6L143.2-67.6l-0.1,135.1H8.3L8,67.7l-6.5,6.4h148.3V-74.4l-0.2,0.2L143.2-67.6z"/>
				</g>
				<g id="path10_00000072959872506455002510000015217409638139051933_">
					<path class="st4" d="M143.1-67.5L143.1-67.5L8-67.6V67.7l0.4-0.3h134.7L143.1-67.5L143.1-67.5z"/>
				</g>
			</g>
		</g>
	</g>
</g>
<g id="g214" transform="matrix(0.80828857,0,0,0.80828857,612.65,302)">
	<g id="g212">
		<g id="use210">
			<g id="Symbol_4_0_Layer0_0_FILL_00000142868847218277860410000011288505960904820098_">
				<g id="path2_00000052797777442139639080000009149625877104494986_">
					<path class="st0" d="M151.2-75.8c-0.1-0.1-0.2-0.1-0.4-0.1H0c-0.1,0-0.3,0.1-0.3,0.1c-0.1,0.1-0.1,0.2-0.1,0.4V75.4
						c0,0.1,0.1,0.3,0.1,0.4c0.1,0.1,0.2,0.1,0.3,0.1h150.9c0.1,0,0.3-0.1,0.4-0.1c0.1-0.1,0.1-0.2,0.1-0.4V-75.4
						C151.4-75.6,151.3-75.7,151.2-75.8 M0.5-74.9h149.9V74.9H0.5V-74.9z"/>
				</g>
				<g id="path4_00000158713056885321952630000000747903880597271428_">
					<path class="st1" d="M150.4-74.9H0.5V74.9h149.9V-74.9 M149.6-74.4v0.2l0.2-0.2V74.2H1.5H1.2V-74.4H149.6z"/>
				</g>
				<g id="path6_00000147220028667650125230000010907124864385706908_">
					<path class="st2" d="M143.2-67.6l6.4-6.5v-0.2H1.2V74.2h0.2L8,67.7V-67.6H143.2z"/>
				</g>
				<g id="path8_00000172409204603684112420000009721210664746860943_">
					<path class="st3" d="M143.2-67.6L143.2-67.6l-0.1,135.1H8.3L8,67.7l-6.5,6.4h148.3V-74.4l-0.2,0.2L143.2-67.6z"/>
				</g>
				<g id="path10_00000176760770045589993190000009365872722992672642_">
					<path class="st4" d="M143.1-67.5L143.1-67.5L8-67.6V67.7l0.4-0.3h134.7L143.1-67.5L143.1-67.5z"/>
				</g>
			</g>
		</g>
	</g>
</g>
<g id="g220" transform="matrix(0.80828857,0,0,0.80828857,735.2,302)">
	<g id="g218">
		<g id="use216">
			<g id="Symbol_4_0_Layer0_0_FILL_00000041294227150112928130000002292045310008840110_">
				<g id="path2_00000098215582679956837460000012394515635341972125_">
					<path class="st0" d="M150-75.8c-0.1-0.1-0.2-0.1-0.4-0.1H-1.3c-0.1,0-0.3,0.1-0.3,0.1c-0.1,0.1-0.1,0.2-0.1,0.4V75.4
						c0,0.1,0.1,0.3,0.1,0.4c0.1,0.1,0.2,0.1,0.3,0.1h150.9c0.1,0,0.3-0.1,0.4-0.1c0.1-0.1,0.1-0.2,0.1-0.4V-75.4
						C150.1-75.6,150.1-75.7,150-75.8 M-0.8-74.9h149.9V74.9H-0.8V-74.9z"/>
				</g>
				<g id="path4_00000121242668927724428840000003837499666418490246_">
					<path class="st1" d="M149.1-74.9H-0.8V74.9h149.9L149.1-74.9 M148.4-74.4v0.2l0.2-0.2V74.2H0.2H0V-74.4H148.4z"/>
				</g>
				<g id="path6_00000041259561511804798460000005930724095860632201_">
					<path class="st2" d="M141.9-67.6l6.4-6.5v-0.2H0V74.2h0.2l6.5-6.4V-67.6H141.9z"/>
				</g>
				<g id="path8_00000026856311108640365330000010436197993028459960_">
					<path class="st3" d="M141.9-67.6L141.9-67.6l-0.1,135.1H7.1l-0.4,0.3l-6.5,6.4h148.3V-74.4l-0.2,0.2L141.9-67.6z"/>
				</g>
				<g id="path10_00000048467942921869867500000017746309516269359496_">
					<path class="st4" d="M141.8-67.5L141.8-67.5L6.7-67.6V67.7l0.4-0.3h134.7V-67.5z"/>
				</g>
			</g>
		</g>
	</g>
</g>
<g id="g226" transform="matrix(0.80828857,0,0,0.80828857,0.4,421.65)">
	<g id="g224">
		<g id="use222">
			<g id="Symbol_4_0_Layer0_0_FILL_00000025407147054455560530000000470899841905722768_">
				<g id="path2_00000106826320460935926590000003965532090028234375_">
					<path class="st0" d="M151.2-75.8c-0.1-0.1-0.2-0.1-0.4-0.1H0c-0.1,0-0.3,0.1-0.3,0.1c-0.1,0.1-0.1,0.2-0.1,0.4V75.4
						c0,0.1,0.1,0.3,0.1,0.4c0.1,0.1,0.2,0.1,0.3,0.1h150.9c0.1,0,0.3-0.1,0.4-0.1c0.1-0.1,0.1-0.2,0.1-0.4V-75.4
						C151.4-75.6,151.3-75.7,151.2-75.8 M0.5-74.9h149.9V74.9H0.5V-74.9z"/>
				</g>
				<g id="path4_00000126297849903040931310000017418496824503613829_">
					<path class="st1" d="M150.4-74.9H0.5V74.9h149.9V-74.9 M149.6-74.4v0.2l0.2-0.2V74.2H1.5H1.2V-74.4H149.6z"/>
				</g>
				<g id="path6_00000068673418780828141480000007485837589687126947_">
					<path class="st2" d="M143.2-67.6l6.4-6.5v-0.2H1.2V74.2h0.2L8,67.7V-67.6H143.2z"/>
				</g>
				<g id="path8_00000160871311356605549900000010597987761126321316_">
					<path class="st3" d="M143.2-67.6L143.2-67.6l-0.1,135.1H8.3L8,67.7l-6.5,6.4h148.3V-74.4l-0.2,0.2L143.2-67.6z"/>
				</g>
				<g id="path10_00000129179066641383179780000013762188123628869248_">
					<path class="st4" d="M143.1-67.5L143.1-67.5L8-67.6V67.7l0.3-0.3H143V-67.5H143.1z"/>
				</g>
			</g>
		</g>
	</g>
</g>
<g id="g232" transform="matrix(0.80828857,0,0,0.80828857,122.85,421.65)">
	<g id="g230">
		<g id="use228">
			<g id="Symbol_4_0_Layer0_0_FILL_00000116954203912083876640000010422110688551804823_">
				<g id="path2_00000067205876901617659880000013475038297354648965_">
					<path class="st0" d="M151.1-75.8c-0.1-0.1-0.2-0.1-0.4-0.1H-0.1c-0.1,0-0.3,0.1-0.3,0.1c-0.1,0.1-0.1,0.2-0.1,0.4V75.4
						c0,0.1,0.1,0.3,0.1,0.4c0.1,0.1,0.2,0.1,0.3,0.1h150.9c0.1,0,0.3-0.1,0.4-0.1c0.1-0.1,0.1-0.2,0.1-0.4V-75.4
						C151.3-75.6,151.2-75.7,151.1-75.8 M0.4-74.9h149.9V74.9H0.4V-74.9z"/>
				</g>
				<g id="path4_00000161619136070287682540000009682827198073111973_">
					<path class="st1" d="M150.3-74.9H0.4V74.9h149.9L150.3-74.9 M149.5-74.4v0.2l0.2-0.2V74.2H1.4H1.1V-74.4H149.5z"/>
				</g>
				<g id="path6_00000092428373916082031500000011656307186502566040_">
					<path class="st2" d="M143.1-67.6l6.4-6.5v-0.2H1.1V74.2h0.2l6.5-6.4V-67.6H143.1z"/>
				</g>
				<g id="path8_00000038407425058454473070000010115892973379549568_">
					<path class="st3" d="M143.1-67.6L143.1-67.6l-0.1,135H8.2l-0.3,0.3l-6.5,6.4h148.3V-74.4l-0.2,0.2L143.1-67.6z"/>
				</g>
				<g id="path10_00000101818337789241675190000008633489020979229598_">
					<path class="st4" d="M143-67.5L143-67.5L7.9-67.6V67.7l0.3-0.3H143V-67.5z"/>
				</g>
			</g>
		</g>
	</g>
</g>
<g id="g238" transform="matrix(0.80828857,0,0,0.80828857,245.3,421.65)">
	<g id="g236">
		<g id="use234">
			<g id="Symbol_4_0_Layer0_0_FILL_00000157291522330966101970000000119456920468825756_">
				<g id="path2_00000070076909875572487870000000367881128897953949_">
					<path class="st0" d="M151.2-75.8c-0.1-0.1-0.2-0.1-0.4-0.1H0c-0.1,0-0.3,0.1-0.3,0.1c-0.1,0.1-0.1,0.2-0.1,0.4V75.4
						c0,0.1,0.1,0.3,0.1,0.4c0.1,0.1,0.2,0.1,0.3,0.1h150.9c0.1,0,0.3-0.1,0.4-0.1c0.1-0.1,0.1-0.2,0.1-0.4V-75.4
						C151.4-75.6,151.3-75.7,151.2-75.8 M0.5-74.9h149.9V74.9H0.5V-74.9z"/>
				</g>
				<g id="path4_00000150091816535655015560000014992568124332521130_">
					<path class="st1" d="M150.4-74.9H0.5V74.9h149.9V-74.9 M149.6-74.4v0.2l0.2-0.2V74.2H1.5H1.2V-74.4H149.6z"/>
				</g>
				<g id="path6_00000028305757775857245750000004606787685230774945_">
					<path class="st2" d="M143.2-67.6l6.4-6.5v-0.2H1.2V74.2h0.2L8,67.7V-67.6H143.2z"/>
				</g>
				<g id="path8_00000141419324469174721020000015179088005499934909_">
					<path class="st3" d="M143.2-67.6L143.2-67.6l-0.1,135.1H8.3L8,67.7l-6.5,6.4h148.3V-74.4l-0.2,0.2L143.2-67.6z"/>
				</g>
				<g id="path10_00000103252654281057211800000016910595948285829793_">
					<path class="st4" d="M143.1-67.5L143.1-67.5L8-67.6V67.7l0.3-0.3H143V-67.5H143.1z"/>
				</g>
			</g>
		</g>
	</g>
</g>
<g id="g244" transform="matrix(0.80828857,0,0,0.80828857,367.75,421.65)">
	<g id="g242">
		<g id="use240">
			<g id="Symbol_4_0_Layer0_0_FILL_00000066490057351728314050000004783118010253894813_">
				<g id="path2_00000159438894633729068180000015755941001396391868_">
					<path class="st0" d="M151.2-75.8c-0.1-0.1-0.2-0.1-0.4-0.1H0c-0.1,0-0.3,0.1-0.3,0.1c-0.1,0.1-0.1,0.2-0.1,0.4V75.4
						c0,0.1,0.1,0.3,0.1,0.4c0.1,0.1,0.2,0.1,0.3,0.1h150.9c0.1,0,0.3-0.1,0.4-0.1c0.1-0.1,0.1-0.2,0.1-0.4V-75.4
						C151.4-75.6,151.3-75.7,151.2-75.8 M0.5-74.9h149.9V74.9H0.5V-74.9z"/>
				</g>
				<g id="path4_00000011723411955562501670000000744818105632825015_">
					<path class="st1" d="M150.4-74.9H0.5V74.9h149.9V-74.9 M149.6-74.4v0.2l0.2-0.2V74.2H1.5H1.2V-74.4H149.6z"/>
				</g>
				<g id="path6_00000130618051517152606890000008586712310674796178_">
					<path class="st2" d="M143.2-67.6l6.4-6.5v-0.2H1.2V74.2h0.2L8,67.7V-67.6H143.2z"/>
				</g>
				<g id="path8_00000135692729031639177920000004130399926732768413_">
					<path class="st3" d="M143.2-67.6L143.2-67.6l-0.1,135.1H8.3L8,67.7l-6.5,6.4h148.3V-74.4l-0.2,0.2L143.2-67.6z"/>
				</g>
				<g id="path10_00000155113685838991257640000004763351280140717449_">
					<path class="st4" d="M143.1-67.5L143.1-67.5L8-67.6V67.7l0.3-0.3H143V-67.5H143.1z"/>
				</g>
			</g>
		</g>
	</g>
</g>
<g id="g250" transform="matrix(0.80828857,0,0,0.80828857,490.2,421.65)">
	<g id="g248">
		<g id="use246">
			<g id="Symbol_4_0_Layer0_0_FILL_00000150789655329905784890000016593476894351877823_">
				<g id="path2_00000069357811239459572450000016305085999317334700_">
					<path class="st0" d="M151.2-75.8c-0.1-0.1-0.2-0.1-0.4-0.1H0c-0.1,0-0.3,0.1-0.3,0.1c-0.1,0.1-0.1,0.2-0.1,0.4V75.4
						c0,0.1,0.1,0.3,0.1,0.4c0.1,0.1,0.2,0.1,0.3,0.1h150.9c0.1,0,0.3-0.1,0.4-0.1c0.1-0.1,0.1-0.2,0.1-0.4V-75.4
						C151.4-75.6,151.3-75.7,151.2-75.8 M0.5-74.9h149.9V74.9H0.5V-74.9z"/>
				</g>
				<g id="path4_00000067958925461898816360000008569740770902955659_">
					<path class="st1" d="M150.4-74.9H0.5V74.9h149.9V-74.9 M149.6-74.4v0.2l0.2-0.2V74.2H1.5H1.2V-74.4H149.6z"/>
				</g>
				<g id="path6_00000165234147192554916510000010581991935596165539_">
					<path class="st2" d="M143.2-67.6l6.4-6.5v-0.2H1.2V74.2h0.2L8,67.7V-67.6H143.2z"/>
				</g>
				<g id="path8_00000016064897022159762910000010790654261438956695_">
					<path class="st3" d="M143.2-67.6L143.2-67.6l-0.1,135.1H8.3L8,67.7l-6.5,6.4h148.3V-74.4l-0.2,0.2L143.2-67.6z"/>
				</g>
				<g id="path10_00000105426802482394124550000004709626196142584198_">
					<path class="st4" d="M143.1-67.5L143.1-67.5L8-67.6V67.7l0.4-0.3h134.7L143.1-67.5L143.1-67.5z"/>
				</g>
			</g>
		</g>
	</g>
</g>
<g id="g256" transform="matrix(0.80828857,0,0,0.80828857,612.65,421.65)">
	<g id="g254">
		<g id="use252">
			<g id="Symbol_4_0_Layer0_0_FILL_00000092421171790669488290000001271668356573996208_">
				<g id="path2_00000127043272241357483900000006763041279023504817_">
					<path class="st0" d="M151.2-75.8c-0.1-0.1-0.2-0.1-0.4-0.1H0c-0.1,0-0.3,0.1-0.3,0.1c-0.1,0.1-0.1,0.2-0.1,0.4V75.4
						c0,0.1,0.1,0.3,0.1,0.4c0.1,0.1,0.2,0.1,0.3,0.1h150.9c0.1,0,0.3-0.1,0.4-0.1c0.1-0.1,0.1-0.2,0.1-0.4V-75.4
						C151.4-75.6,151.3-75.7,151.2-75.8 M0.5-74.9h149.9V74.9H0.5V-74.9z"/>
				</g>
				<g id="path4_00000008845562704865471230000002032733483161119159_">
					<path class="st1" d="M150.4-74.9H0.5V74.9h149.9V-74.9 M149.6-74.4v0.2l0.2-0.2V74.2H1.5H1.2V-74.4H149.6z"/>
				</g>
				<g id="path6_00000100354748382292128300000014978721526108065676_">
					<path class="st2" d="M143.2-67.6l6.4-6.5v-0.2H1.2V74.2h0.2L8,67.7V-67.6H143.2z"/>
				</g>
				<g id="path8_00000151518568490179562020000007526369076376049029_">
					<path class="st3" d="M143.2-67.6L143.2-67.6l-0.1,135.1H8.3L8,67.7l-6.5,6.4h148.3V-74.4l-0.2,0.2L143.2-67.6z"/>
				</g>
				<g id="path10_00000180359284808841221110000013272416783209414044_">
					<path class="st4" d="M143.1-67.5L143.1-67.5L8-67.6V67.7l0.4-0.3h134.7L143.1-67.5L143.1-67.5z"/>
				</g>
			</g>
		</g>
	</g>
</g>
<g id="g262" transform="matrix(0.80828857,0,0,0.80828857,735.2,421.65)">
	<g id="g260">
		<g id="use258">
			<g id="Symbol_4_0_Layer0_0_FILL_00000028326073917907635820000012167210808837885108_">
				<g id="path2_00000140005610011180639100000005319206059327384981_">
					<path class="st0" d="M150-75.8c-0.1-0.1-0.2-0.1-0.4-0.1H-1.3c-0.1,0-0.3,0.1-0.3,0.1c-0.1,0.1-0.1,0.2-0.1,0.4V75.4
						c0,0.1,0.1,0.3,0.1,0.4c0.1,0.1,0.2,0.1,0.3,0.1h150.9c0.1,0,0.3-0.1,0.4-0.1c0.1-0.1,0.1-0.2,0.1-0.4V-75.4
						C150.1-75.6,150.1-75.7,150-75.8 M-0.8-74.9h149.9V74.9H-0.8V-74.9z"/>
				</g>
				<g id="path4_00000009569743275224169180000014540532314898896006_">
					<path class="st1" d="M149.1-74.9H-0.8V74.9h149.9L149.1-74.9 M148.4-74.4v0.2l0.2-0.2V74.2H0.2H0V-74.4H148.4z"/>
				</g>
				<g id="path6_00000000924649784056353140000018022634545189583233_">
					<path class="st2" d="M141.9-67.6l6.4-6.5v-0.2H0V74.2h0.2l6.5-6.4V-67.6H141.9z"/>
				</g>
				<g id="path8_00000142872729171197351820000001492369091805057678_">
					<path class="st3" d="M141.9-67.6L141.9-67.6l-0.1,135.1H7.1l-0.4,0.3l-6.5,6.4h148.3V-74.4l-0.2,0.2L141.9-67.6z"/>
				</g>
				<g id="path10_00000132050265894490996960000008429028540627953086_">
					<path class="st4" d="M141.8-67.5L141.8-67.5L6.7-67.6V67.7l0.4-0.3h134.7V-67.5z"/>
				</g>
			</g>
		</g>
	</g>
</g>
<g id="g268" transform="matrix(0.80828857,0,0,0.80828857,0.4,541.4)">
	<g id="g266">
		<g id="use264">
			<g id="Symbol_4_0_Layer0_0_FILL_00000160187528557650243590000013249487523440654496_">
				<g id="path2_00000016788620543113752650000005876110753205673858_">
					<path class="st0" d="M151.2-75.8c-0.1-0.1-0.2-0.1-0.4-0.1H0c-0.1,0-0.3,0.1-0.3,0.1c-0.1,0.1-0.1,0.2-0.1,0.4V75.4
						c0,0.1,0.1,0.3,0.1,0.4c0.1,0.1,0.2,0.1,0.3,0.1h150.9c0.1,0,0.3-0.1,0.4-0.1c0.1-0.1,0.1-0.2,0.1-0.4V-75.4
						C151.4-75.6,151.3-75.7,151.2-75.8 M0.5-74.9h149.9V74.9H0.5V-74.9z"/>
				</g>
				<g id="path4_00000018929771920095130370000008182791754718317460_">
					<path class="st1" d="M150.4-74.9H0.5V74.9h149.9V-74.9 M149.6-74.4v0.2l0.2-0.2V74.2H1.5H1.2V-74.4H149.6z"/>
				</g>
				<g id="path6_00000127761261675433027970000000755038019491830425_">
					<path class="st2" d="M143.2-67.6l6.4-6.5v-0.2H1.2V74.2h0.2L8,67.7V-67.6H143.2z"/>
				</g>
				<g id="path8_00000080184174779983785270000012025192590297862836_">
					<path class="st3" d="M143.2-67.6L143.2-67.6l-0.1,135.1H8.3L8,67.7l-6.5,6.4h148.3V-74.4l-0.2,0.2L143.2-67.6z"/>
				</g>
				<g id="path10_00000099662813996451212580000007039532074057781646_">
					<path class="st4" d="M143.1-67.5L143.1-67.5L8-67.6V67.7l0.3-0.3H143V-67.5H143.1z"/>
				</g>
			</g>
		</g>
	</g>
</g>
<g id="g274" transform="matrix(0.80828857,0,0,0.80828857,122.85,541.4)">
	<g id="g272">
		<g id="use270">
			<g id="Symbol_4_0_Layer0_0_FILL_00000030476560357998383820000013036424653461358246_">
				<g id="path2_00000047051516475827347430000002038053959976974239_">
					<path class="st0" d="M151.1-75.8c-0.1-0.1-0.2-0.1-0.4-0.1H-0.1c-0.1,0-0.3,0.1-0.3,0.1c-0.1,0.1-0.1,0.2-0.1,0.4V75.4
						c0,0.1,0.1,0.3,0.1,0.4c0.1,0.1,0.2,0.1,0.3,0.1h150.9c0.1,0,0.3-0.1,0.4-0.1c0.1-0.1,0.1-0.2,0.1-0.4V-75.4
						C151.3-75.6,151.2-75.7,151.1-75.8 M0.4-74.9h149.9V74.9H0.4V-74.9z"/>
				</g>
				<g id="path4_00000065049289655020213820000003236294316273332152_">
					<path class="st1" d="M150.3-74.9H0.4V74.9h149.9L150.3-74.9 M149.5-74.4v0.2l0.2-0.2V74.2H1.4H1.1V-74.4H149.5z"/>
				</g>
				<g id="path6_00000179648080620706992600000017852899203626816400_">
					<path class="st2" d="M143.1-67.6l6.4-6.5v-0.2H1.1V74.2h0.2l6.5-6.4V-67.6H143.1z"/>
				</g>
				<g id="path8_00000167356092459365956790000018323718088639478452_">
					<path class="st3" d="M143.1-67.6L143.1-67.6l-0.1,135H8.2l-0.3,0.3l-6.5,6.4h148.3V-74.4l-0.2,0.2L143.1-67.6z"/>
				</g>
				<g id="path10_00000158718220123432818780000013525637723361430708_">
					<path class="st4" d="M143-67.5L143-67.5L7.9-67.6V67.7l0.3-0.3H143V-67.5z"/>
				</g>
			</g>
		</g>
	</g>
</g>
<g id="g280" transform="matrix(0.80828857,0,0,0.80828857,245.3,541.4)">
	<g id="g278">
		<g id="use276">
			<g id="Symbol_4_0_Layer0_0_FILL_00000158738238967721611770000009736312552156759475_">
				<g id="path2_00000096745233925713880670000016569251715807409541_">
					<path class="st0" d="M151.2-75.8c-0.1-0.1-0.2-0.1-0.4-0.1H0c-0.1,0-0.3,0.1-0.3,0.1c-0.1,0.1-0.1,0.2-0.1,0.4V75.4
						c0,0.1,0.1,0.3,0.1,0.4c0.1,0.1,0.2,0.1,0.3,0.1h150.9c0.1,0,0.3-0.1,0.4-0.1c0.1-0.1,0.1-0.2,0.1-0.4V-75.4
						C151.4-75.6,151.3-75.7,151.2-75.8 M0.5-74.9h149.9V74.9H0.5V-74.9z"/>
				</g>
				<g id="path4_00000083784649746542239540000009220780913507367838_">
					<path class="st1" d="M150.4-74.9H0.5V74.9h149.9V-74.9 M149.6-74.4v0.2l0.2-0.2V74.2H1.5H1.2V-74.4H149.6z"/>
				</g>
				<g id="path6_00000161600331775804786060000003395248037079198113_">
					<path class="st2" d="M143.2-67.6l6.4-6.5v-0.2H1.2V74.2h0.2L8,67.7V-67.6H143.2z"/>
				</g>
				<g id="path8_00000083802617478974909190000004630663314644480950_">
					<path class="st3" d="M143.2-67.6L143.2-67.6l-0.1,135.1H8.3L8,67.7l-6.5,6.4h148.3V-74.4l-0.2,0.2L143.2-67.6z"/>
				</g>
				<g id="path10_00000178204264835863616470000002143961095067861401_">
					<path class="st4" d="M143.1-67.5L143.1-67.5L8-67.6V67.7l0.3-0.3H143V-67.5H143.1z"/>
				</g>
			</g>
		</g>
	</g>
</g>
<g id="g286" transform="matrix(0.80828857,0,0,0.80828857,367.75,541.4)">
	<g id="g284">
		<g id="use282">
			<g id="Symbol_4_0_Layer0_0_FILL_00000000942515608968551480000014834001855966572212_">
				<g id="path2_00000164494104139366944620000003069169999803760271_">
					<path class="st0" d="M151.2-75.8c-0.1-0.1-0.2-0.1-0.4-0.1H0c-0.1,0-0.3,0.1-0.3,0.1c-0.1,0.1-0.1,0.2-0.1,0.4V75.4
						c0,0.1,0.1,0.3,0.1,0.4c0.1,0.1,0.2,0.1,0.3,0.1h150.9c0.1,0,0.3-0.1,0.4-0.1c0.1-0.1,0.1-0.2,0.1-0.4V-75.4
						C151.4-75.6,151.3-75.7,151.2-75.8 M0.5-74.9h149.9V74.9H0.5V-74.9z"/>
				</g>
				<g id="path4_00000068637381053020406360000014018365794157628571_">
					<path class="st1" d="M150.4-74.9H0.5V74.9h149.9V-74.9 M149.6-74.4v0.2l0.2-0.2V74.2H1.5H1.2V-74.4H149.6z"/>
				</g>
				<g id="path6_00000137849084726173960390000008611245902120492165_">
					<path class="st2" d="M143.2-67.6l6.4-6.5v-0.2H1.2V74.2h0.2L8,67.7V-67.6H143.2z"/>
				</g>
				<g id="path8_00000176723036698106780500000003394042831356048571_">
					<path class="st3" d="M143.2-67.6L143.2-67.6l-0.1,135.1H8.3L8,67.7l-6.5,6.4h148.3V-74.4l-0.2,0.2L143.2-67.6z"/>
				</g>
				<g id="path10_00000111164199646769182430000011826718869800842931_">
					<path class="st4" d="M143.1-67.5L143.1-67.5L8-67.6V67.7l0.3-0.3H143V-67.5H143.1z"/>
				</g>
			</g>
		</g>
	</g>
</g>
<g id="g292" transform="matrix(0.80828857,0,0,0.80828857,490.2,541.4)">
	<g id="g290">
		<g id="use288">
			<g id="Symbol_4_0_Layer0_0_FILL_00000171715209524700647500000000186189793868264846_">
				<g id="path2_00000031910589066764629700000004784936348432782234_">
					<path class="st0" d="M151.2-75.8c-0.1-0.1-0.2-0.1-0.4-0.1H0c-0.1,0-0.3,0.1-0.3,0.1c-0.1,0.1-0.1,0.2-0.1,0.4V75.4
						c0,0.1,0.1,0.3,0.1,0.4c0.1,0.1,0.2,0.1,0.3,0.1h150.9c0.1,0,0.3-0.1,0.4-0.1c0.1-0.1,0.1-0.2,0.1-0.4V-75.4
						C151.4-75.6,151.3-75.7,151.2-75.8 M0.5-74.9h149.9V74.9H0.5V-74.9z"/>
				</g>
				<g id="path4_00000026131243946562233880000000042299066979260322_">
					<path class="st1" d="M150.4-74.9H0.5V74.9h149.9V-74.9 M149.6-74.4v0.2l0.2-0.2V74.2H1.5H1.2V-74.4H149.6z"/>
				</g>
				<g id="path6_00000170968271433178490050000009065223672830444452_">
					<path class="st2" d="M143.2-67.6l6.4-6.5v-0.2H1.2V74.2h0.2L8,67.7V-67.6H143.2z"/>
				</g>
				<g id="path8_00000011713391768976076240000010174196449613590667_">
					<path class="st3" d="M143.2-67.6L143.2-67.6l-0.1,135.1H8.3L8,67.7l-6.5,6.4h148.3V-74.4l-0.2,0.2L143.2-67.6z"/>
				</g>
				<g id="path10_00000016069112469756668340000009851868501857323184_">
					<path class="st4" d="M143.1-67.5L143.1-67.5L8-67.6V67.7l0.4-0.3h134.7L143.1-67.5L143.1-67.5z"/>
				</g>
			</g>
		</g>
	</g>
</g>
<g id="g298" transform="matrix(0.80828857,0,0,0.80828857,612.65,541.4)">
	<g id="g296">
		<g id="use294">
			<g id="Symbol_4_0_Layer0_0_FILL_00000123410083826048302820000011772575075747349940_">
				<g id="path2_00000025411111296819110480000009152016661110864022_">
					<path class="st0" d="M151.2-75.8c-0.1-0.1-0.2-0.1-0.4-0.1H0c-0.1,0-0.3,0.1-0.3,0.1c-0.1,0.1-0.1,0.2-0.1,0.4V75.4
						c0,0.1,0.1,0.3,0.1,0.4c0.1,0.1,0.2,0.1,0.3,0.1h150.9c0.1,0,0.3-0.1,0.4-0.1c0.1-0.1,0.1-0.2,0.1-0.4V-75.4
						C151.4-75.6,151.3-75.7,151.2-75.8 M0.5-74.9h149.9V74.9H0.5V-74.9z"/>
				</g>
				<g id="path4_00000138530895052135576610000001012356147881110437_">
					<path class="st1" d="M150.4-74.9H0.5V74.9h149.9V-74.9 M149.6-74.4v0.2l0.2-0.2V74.2H1.5H1.2V-74.4H149.6z"/>
				</g>
				<g id="path6_00000037694153792708556110000008578503756064600727_">
					<path class="st2" d="M143.2-67.6l6.4-6.5v-0.2H1.2V74.2h0.2L8,67.7V-67.6H143.2z"/>
				</g>
				<g id="path8_00000110461827565417275550000007627009652645300878_">
					<path class="st3" d="M143.2-67.6L143.2-67.6l-0.1,135.1H8.3L8,67.7l-6.5,6.4h148.3V-74.4l-0.2,0.2L143.2-67.6z"/>
				</g>
				<g id="path10_00000078039951956193503080000012982147743948947118_">
					<path class="st4" d="M143.1-67.5L143.1-67.5L8-67.6V67.7l0.4-0.3h134.7L143.1-67.5L143.1-67.5z"/>
				</g>
			</g>
		</g>
	</g>
</g>
<g id="g304" transform="matrix(0.80828857,0,0,0.80828857,735.2,541.4)">
	<g id="g302">
		<g id="use300">
			<g id="Symbol_4_0_Layer0_0_FILL_00000103978763018814806090000014239296936606875779_">
				<g id="path2_00000144314456766322078420000005008897995957420431_">
					<path class="st0" d="M150-75.8c-0.1-0.1-0.2-0.1-0.4-0.1H-1.3c-0.1,0-0.3,0.1-0.3,0.1c-0.1,0.1-0.1,0.2-0.1,0.4V75.4
						c0,0.1,0.1,0.3,0.1,0.4c0.1,0.1,0.2,0.1,0.3,0.1h150.9c0.1,0,0.3-0.1,0.4-0.1c0.1-0.1,0.1-0.2,0.1-0.4V-75.4
						C150.1-75.6,150.1-75.7,150-75.8 M-0.8-74.9h149.9V74.9H-0.8V-74.9z"/>
				</g>
				<g id="path4_00000000191485865570908110000015002804491144205706_">
					<path class="st1" d="M149.1-74.9H-0.8V74.9h149.9L149.1-74.9 M148.4-74.4v0.2l0.2-0.2V74.2H0.2H0V-74.4H148.4z"/>
				</g>
				<g id="path6_00000181056956165973341480000008754403821391379609_">
					<path class="st2" d="M141.9-67.6l6.4-6.5v-0.2H0V74.2h0.2l6.5-6.4V-67.6H141.9z"/>
				</g>
				<g id="path8_00000164484927319968117180000013628500512336451760_">
					<path class="st3" d="M141.9-67.6L141.9-67.6l-0.1,135.1H7.1l-0.4,0.3l-6.5,6.4h148.3V-74.4l-0.2,0.2L141.9-67.6z"/>
				</g>
				<g id="path10_00000137098100185404943980000013105148560722058920_">
					<path class="st4" d="M141.8-67.5L141.8-67.5L6.7-67.6V67.7l0.4-0.3h134.7V-67.5z"/>
				</g>
			</g>
		</g>
	</g>
</g>
<g id="g310" transform="matrix(0.80828857,0,0,0.80828857,122.35,61.4)">
	<g id="g308">
		<g id="use306">
			<g id="Symbol_4_0_Layer0_0_FILL_00000000906882677077555790000000169692701777610887_">
				<g id="path2_00000094603148103254449210000014539227364966097025_">
					<path class="st0" d="M151.7-74.4c-0.1-0.1-0.2-0.1-0.4-0.1H0.5c-0.1,0-0.3,0.1-0.3,0.1C0-74.3,0-74.2,0-74V74.8
						c0,0.1,0.1,0.3,0.1,0.3c0.1,0.1,0.2,0.1,0.3,0.1h150.9c0.1,0,0.3-0.1,0.4-0.1c0.1-0.1,0.1-0.2,0.1-0.3V-74
						C151.9-74.2,151.8-74.3,151.7-74.4 M1-73.5h149.9V74.3H1V-73.5z"/>
				</g>
				<g id="path4_00000170978683821772900030000018129760501434531492_">
					<path class="st1" d="M150.9-73.5H1V74.3h149.9V-73.5 M150.1-73v0.2l0.2-0.2V73.6H2H1.7V-73H150.1z"/>
				</g>
				<g id="path6_00000142889099871844211610000009140065669991359380_">
					<path class="st2" d="M143.7-66.3l6.4-6.5V-73H1.7V73.6H2l6.5-6.4V-66.3H143.7z"/>
				</g>
				<g id="path8_00000125571108785446957890000007152395196143955600_">
					<path class="st3" d="M143.7-66.3L143.7-66.3l-0.1,133.2H8.8l-0.3,0.3L2,73.6h148.3V-73l-0.2,0.2L143.7-66.3z"/>
				</g>
				<g id="path10_00000059997406298275621050000013268618618494690964_">
					<path class="st4" d="M143.6-66.2L143.6-66.2L8.5-66.3V67.2l0.3-0.3h134.7V-66.2H143.6z"/>
				</g>
			</g>
		</g>
	</g>
</g>
<g id="g354" transform="translate(139.6,420.35)">
	<g id="g352">
		<g id="use350" transform="translate(4)">
			<g id="Symbol_9_0_Layer0_0_FILL">
				<g id="path37">
					<path class="st5" d="M246.3,1.3l38.1,37.8l38-37.8l-38-38.1L246.3,1.3z"/>
					<path class="st6" d="M284.4,39.8l-0.4-0.4L245.6,1.3l38.8-38.8l38.7,38.8L284.4,39.8z M247,1.3l37.4,37.1l37.3-37.1l-37.3-37.4
						L247,1.3z"/>
				</g>
			</g>
		</g>
	</g>
</g>
<g>
	<g id="g374" transform="translate(-648.1,347.95)">
		<g id="use372">
			<g id="Symbol_11_0_Layer0_49_FILL">
				<g id="path52">
					<path class="st7" d="M740.5-197.6h-63v63.1h63V-197.6z"/>
				</g>
			</g>
		</g>
	</g>
	<g id="g374_00000148638716641354815980000001811457047771257992_" transform="translate(-648.1,347.95)">
		<g id="use372_00000096046330031706306080000001201996074774519712_">
			<g id="Symbol_11_0_Layer0_49_FILL_00000044898211316219073520000009502250459142220169_">
				<g id="path52_00000134211887336778497760000000214832790769739417_">
					<path class="st8" d="M741-134h-64v-64.1h64V-134z M678-135h62v-62.1h-62V-135z"/>
				</g>
			</g>
		</g>
	</g>
</g>
<g>
	<g>
		<g id="g400" transform="matrix(0.48680115,0.3249054,-0.3249054,0.48680115,115.15,-86.5)">
			<g id="use398">
				<g id="Symbol_11_0_Layer0_55_FILL">
					<g id="path70">
						<path class="st9" d="M246.3,66.2l-61.2,106l61.2,35.4L246.3,66.2z"/>
					</g>
				</g>
			</g>
		</g>
		<g id="g404" transform="matrix(0.48680115,0.3249054,-0.3249054,0.48680115,115.15,-86.5)">
			<g id="use402">
				<g id="Symbol_11_0_Layer0_56_FILL">
					<g id="path73">
						<path class="st10" d="M307.5,172.2l-61.1-106l0,141.4L307.5,172.2z"/>
					</g>
				</g>
			</g>
		</g>
		<g id="g408" transform="matrix(0.48680115,0.3249054,-0.3249054,0.48680115,115.15,-86.5)">
			<g id="use406">
				<g id="Symbol_11_0_Layer0_57_FILL">
					<g id="path76">
						<path class="st11" d="M246.3,136.8l-61.2,35.3l61.2,35.4l61.2-35.3L246.3,136.8z"/>
					</g>
				</g>
			</g>
		</g>
	</g>
	<g>
		<g>
			<path class="st12" d="M209.4,97.7L167.3,95l-18.6-37.7l65.5-32.4L209.4,97.7z M167.9,94l40.5,2.6l4.6-70.1L150,57.7L167.9,94z"/>
		</g>
		<g>
			<polygon class="st12" points="190.9,60.6 149.3,58 149.3,57 190.3,59.6 213.2,25.4 214,26 			"/>
		</g>
		<g>
			
				<rect x="199.3" y="58" transform="matrix(0.8968 -0.4424 0.4424 0.8968 -14.1847 96.4769)" class="st12" width="1" height="41.4"/>
		</g>
	</g>
</g>
<g>
	<g id="g424" transform="matrix(0.35728455,0.48669434,-0.48669434,0.35728455,209,28.7)">
		<g id="use422">
			<g id="Symbol_11_0_Layer0_61_FILL">
				<g id="path88">
					<path class="st13" d="M387.2,272.2c-9.4-13.1-22-20.9-37.8-23.5c-15.9-2.6-30.3,0.8-43.4,10.2c-13,9.4-20.9,22-23.5,37.8
						c-2.6,15.9,0.8,30.3,10.1,43.4c9.4,13,22,20.9,37.9,23.5c15.9,2.6,30.3-0.8,43.4-10.1c13.1-9.4,20.9-22,23.5-37.9
						S396.6,285.3,387.2,272.2z"/>
				</g>
			</g>
		</g>
	</g>
	<g id="g428" transform="matrix(0.35728455,0.48669434,-0.48669434,0.35728455,209,28.7)">
		<g id="use426">
			<g id="Symbol_11_0_Layer0_62_FILL">
				<g id="path91">
					<path class="st14" d="M381.1,347.3c11.4-11.4,17.1-25.1,17.1-41.1c0-6.6-1.1-13.1-3.2-19.3c-4,11.5-11,20.8-21,27.9
						c-10.1,7.3-21.5,10.9-34,10.9c-12.5,0-23.9-3.6-33.9-11c-9.9-7.1-16.9-16.5-20.9-28c-2.2,6.2-3.3,12.6-3.3,19.3
						c0,16.1,5.7,29.8,17,41.1c11.4,11.4,25.1,17.1,41.1,17.1C356,364.4,369.7,358.7,381.1,347.3z"/>
				</g>
			</g>
		</g>
	</g>
	
		<g id="g424_00000016074138054553853070000006550895141923698306_" transform="matrix(0.35728455,0.48669434,-0.48669434,0.35728455,209,28.7)">
		<g id="use422_00000110429811966755873520000016547664958798524036_">
			<g id="Symbol_11_0_Layer0_61_FILL_00000176728051588821350080000003178884828023314832_">
				<g id="path88_00000030467831828416225930000002209859827155967659_">
					<path class="st15" d="M387.6,340.8c-3.6,4.9-8.1,9.3-13.4,13.1c-13.2,9.4-27.9,12.8-43.8,10.2c-15.9-2.6-28.7-10.6-38.2-23.7
						c-9.4-13.2-12.8-27.9-10.2-43.8c2.6-15.8,10.6-28.6,23.7-38.1c13.1-9.4,27.9-12.9,43.8-10.3c15.9,2.6,28.7,10.6,38.1,23.7
						l-0.4,0.3l0.4-0.3c9.4,13.1,12.9,27.9,10.3,43.8C396.3,325.2,392.9,333.6,387.6,340.8z M293.1,272.3
						c-5.2,7.1-8.6,15.3-10.1,24.5c-2.6,15.6,0.8,30.1,10,43c9.3,12.9,22,20.7,37.6,23.3c15.6,2.5,30.1-0.8,43-10
						c12.9-9.3,20.7-21.9,23.3-37.6c2.6-15.9-0.7-29.9-10.1-43l0,0c-9.2-12.9-21.9-20.7-37.5-23.3c-15.9-2.6-29.9,0.7-43,10.1
						C301.1,263.1,296.7,267.4,293.1,272.3z"/>
				</g>
			</g>
		</g>
	</g>
</g>
<g>
	<path class="st16" d="M427.7,181.4"/>
</g>
<g>
	<g>
		<g id="g412" transform="matrix(0.46426392,0.41795349,-0.41795349,0.46426392,483.55,-16.3)">
			<g id="use410">
				<g id="Symbol_11_0_Layer0_58_FILL">
					<g id="path79">
						<path class="st17" d="M237.8,919L179,953l0,68l58.9,34l58.9-33.9l0-68L237.8,919z"/>
					</g>
				</g>
			</g>
		</g>
		<g id="g416" transform="matrix(0.46426392,0.41795349,-0.41795349,0.46426392,483.55,-16.3)">
			<g id="use414">
				<g id="Symbol_11_0_Layer0_59_FILL">
					<g id="path82">
						<path class="st18" d="M179,1021l58.9,34l58.9-33.9l-58.8-34L179,1021z"/>
					</g>
				</g>
			</g>
		</g>
		<g id="g420" transform="matrix(0.46426392,0.41795349,-0.41795349,0.46426392,483.55,-16.3)">
			<g id="use418">
				<g id="Symbol_11_0_Layer0_60_FILL">
					<g id="path85">
						<path class="st19" d="M237.8,919l0,68l58.8,34l0-68L237.8,919z"/>
					</g>
				</g>
			</g>
		</g>
	</g>
	<g>
		<path class="st20" d="M194.8,582.2l-42.1-8.9l-13.4-40.9l28.8-32l42.2,9l13.3,40.8L194.8,582.2z M153.5,572.5l40.9,8.7l28-31.2
			l-12.9-39.8l-41-8.8l-28,31.2L153.5,572.5z"/>
	</g>
	<g>
		<polygon class="st20" points="194.1,581.9 180.9,541.2 181.1,541 209.5,509.5 210.3,510.1 182.1,541.4 195.1,581.5 		"/>
	</g>
	<g>
		
			<rect x="160.2" y="515.6" transform="matrix(0.207 -0.9784 0.9784 0.207 -397.8341 583.0075)" class="st20" width="1" height="42.5"/>
	</g>
</g>
<g>
	<g id="g366" transform="matrix(0.72319031,0,0,0.72319031,-33.9,216.1)">
		<g id="use364">
			<g id="Symbol_11_0_Layer0_47_FILL">
				<g id="path46">
					<path class="st21" d="M978.4-263.6l-44.5,25.7v51.4l44.5,25.7l44.4-25.7v-51.4L978.4-263.6z"/>
				</g>
			</g>
		</g>
	</g>
	<g id="g366_00000059294167189012078460000006284408537153155216_" transform="matrix(0.72319031,0,0,0.72319031,-33.9,216.1)">
		<g id="use364_00000027590755871178719170000016808108574563176633_">
			<g id="Symbol_11_0_Layer0_47_FILL_00000129188135974197854210000015769084885599351432_">
				<g id="path46_00000147188906993387436440000006508500544043944635_">
					<path class="st22" d="M978.4-160.2l-45-26v-52l45-26l44.9,26v52L978.4-160.2z M934.4-186.8l44,25.4l43.9-25.4v-50.8L978.4-263
						l-44,25.4V-186.8z"/>
				</g>
			</g>
		</g>
	</g>
</g>
<g>
	<g id="g342" transform="translate(636.75,179)">
		<g id="g340">
			<g id="use338">
				<g id="Symbol_7_0_Layer0_0_FILL">
					<g id="path31">
						<path class="st23" d="M-359.6,33.3h60.9l-30.5-60.9L-359.6,33.3z"/>
					</g>
				</g>
			</g>
		</g>
	</g>
	<g id="g342_00000173149724906971614230000018185599696357233835_" transform="translate(636.75,179)">
		<g id="g340_00000083077128517317176390000002113628755235184309_">
			<g id="use338_00000029030420188168492330000016627055872168618114_">
				<g id="Symbol_7_0_Layer0_0_FILL_00000178901721191763370180000018418928394617660545_">
					<g id="path31_00000082327444431083713770000008375971280078126747_">
						<path class="st24" d="M-297.7,33.8h-62.5l31.2-62.5L-297.7,33.8z M-358.6,32.8h59.3L-329-26.5L-358.6,32.8z"/>
					</g>
				</g>
			</g>
		</g>
	</g>
</g>
<g>
	<g id="g396" transform="translate(-450.25,436.75)">
		<g id="use394">
			<g id="Symbol_11_0_Layer0_54_FILL">
				<g id="path67">
					<path class="st25" d="M1022.5-102.2l13.5-41.5l-35.4-25.7l-35.4,25.7l13.5,41.5H1022.5z"/>
				</g>
			</g>
		</g>
	</g>
	<g id="g396_00000065758315407663868400000004685999983643461553_" transform="translate(-450.25,436.75)">
		<g id="use394_00000177456137204951573230000007195405355636961186_">
			<g id="Symbol_11_0_Layer0_54_FILL_00000103952381774401359690000002024400220471449782_">
				<g id="path67_00000088821820188309343160000001028066579266592173_">
					<path class="st26" d="M1022.9-101.7h-44.5l-13.7-42.2l36-26.1l36,26.1L1022.9-101.7z M979.1-102.7h43.1l13.3-40.8l-34.8-25.3
						l-34.8,25.3L979.1-102.7z"/>
				</g>
			</g>
		</g>
	</g>
</g>
<g>
	<g id="g320" transform="translate(640.8,422.6)">
		<g id="g318">
			<g id="use316">
				<g id="Symbol_6_0_Layer0_0_FILL">
					<g id="path16">
						<path class="st27" d="M32.9-32.9c-9.1,0-16.8,3.2-23.3,9.7S0-9.1,0,0c0,9,3.2,16.8,9.6,23.2s14.2,9.6,23.3,9.6
							c9,0,16.8-3.2,23.2-9.6S65.8,9,65.8,0c0-9.1-3.2-16.8-9.7-23.2C49.7-29.7,41.9-32.9,32.9-32.9z"/>
					</g>
				</g>
			</g>
		</g>
	</g>
	<g id="g320_00000114779373172027956220000010853693122378404010_" transform="translate(640.8,422.6)">
		<g id="g318_00000173143479232735578050000011431958549695535546_">
			<g id="use316_00000178907529078510272210000008663189789264965539_">
				<g id="Symbol_6_0_Layer0_0_FILL_00000115484581831553420250000003104597487439737234_">
					<g id="path16_00000155844771107613834510000014773982332591744698_">
						<path class="st28" d="M32.9,33.3c-9.2,0-17.2-3.3-23.7-9.7C2.8,17.1-0.5,9.2-0.5,0c0-9.3,3.2-17,9.7-23.6
							c6.6-6.6,14.4-9.8,23.7-9.8c9.2,0,17.1,3.3,23.6,9.8C63-17.1,66.3-9.2,66.3,0c0,9.1-3.3,17-9.8,23.6
							C50,30,42.1,33.3,32.9,33.3z M32.9-32.4c-9,0-16.5,3.1-22.9,9.6C3.6-16.5,0.5-9,0.5,0c0,8.9,3.2,16.6,9.5,22.8
							c6.3,6.3,14,9.5,22.9,9.5c8.9,0,16.6-3.2,22.8-9.5c6.3-6.3,9.6-14,9.6-22.8c0-9-3.1-16.5-9.5-22.8
							C49.5-29.2,41.8-32.4,32.9-32.4z"/>
					</g>
				</g>
			</g>
		</g>
	</g>
</g>
<g>
	<g id="g392" transform="translate(518.55,543.4)">
		<g id="g390">
			<g id="use388">
				<g id="Symbol_10_0_Layer0_0_FILL">
					<g id="path64">
						<path class="st29" d="M10.5-391.2C5.1-389,1.4-385-0.6-379.3c-2,5.6-1.7,11.1,0.8,16.6c5.5,11.7,16,23.1,31.6,34.2
							c15.6-11.2,26.2-22.6,31.6-34.2c2.5-5.4,2.8-10.9,0.8-16.5c-2-5.7-5.7-9.7-11.1-11.9c-5.3-2.2-10.5-1.7-15.5,1.4
							c-1.5,1-3,2.2-4.3,3.6l-1.5,1.8c-1.4-2-3.3-3.8-5.8-5.4C21-392.9,15.8-393.4,10.5-391.2z"/>
					</g>
				</g>
			</g>
		</g>
	</g>
	<g id="g392_00000065781287957653507660000012620676011891877522_" transform="translate(518.55,543.4)">
		<g id="g390_00000032630913555328863640000005129210330801204148_">
			<g id="use388_00000046305704243668598510000004407827280051932291_">
				<g id="Symbol_10_0_Layer0_0_FILL_00000096777895456502443320000011607179053078915227_">
					<g id="path64_00000044175042403860584610000005068365497679812020_">
						<path class="st30" d="M31.8-328l-0.3-0.2C16-339.3,5.3-350.8-0.3-362.6c-2.6-5.5-2.8-11.2-0.8-16.9c2-5.9,5.8-9.9,11.4-12.2
							c5.5-2.3,10.8-1.7,16,1.5c2.3,1.5,4.1,3.1,5.6,5l1.1-1.3c1.4-1.6,2.9-2.7,4.4-3.7c5.2-3.2,10.5-3.7,16-1.4
							c5.5,2.1,9.3,6.2,11.4,12.1c2,5.7,1.7,11.3-0.8,16.9c-5.4,11.6-16.1,23.1-31.8,34.4L31.8-328z M16.9-392
							c-2.1,0-4.1,0.4-6.2,1.3l0,0c-5.3,2.2-8.9,6-10.8,11.6c-1.9,5.4-1.7,10.8,0.8,16.1c5.4,11.5,15.9,22.9,31.1,33.8
							c15.4-11.1,25.9-22.5,31.1-33.8c2.4-5.3,2.7-10.7,0.8-16.1c-2-5.6-5.6-9.5-10.8-11.5c-5.1-2.1-10.2-1.7-15.1,1.4
							c-1.4,0.9-2.9,2-4.2,3.5l-1.9,2.3l-0.4-0.5c-1.4-2-3.3-3.7-5.7-5.3C22.9-391.1,19.9-392,16.9-392z"/>
					</g>
				</g>
			</g>
		</g>
	</g>
</g>
<g>
	<g id="g348" transform="translate(263.69333,538.53248)">
		<g id="g346">
			<g id="use344">
				<g id="Symbol_8_0_Layer0_0_FILL">
					<g id="path34">
						<path class="st31" d="M275.3-9L251-5l17.4,17.5l-4.5,25.2l22.8-11.9l22.5,11.9l-4.5-25.2L322.4-5l-24.6-4l-11.1-22.8L275.3-9z
							"/>
					</g>
				</g>
			</g>
		</g>
	</g>
	<g id="g348_00000181045868112683959670000006821221117462720953_" transform="translate(263.69333,538.53248)">
		<g id="g346_00000077321243631563441570000005589690297629984950_">
			<g id="use344_00000150807744895560685270000018295631210778431657_">
				<g id="Symbol_8_0_Layer0_0_FILL_00000013908791784319740920000010422241195682363010_">
					<g id="path34_00000166643122181812416250000007676276298777436605_">
						<path class="st32" d="M309.9,38.6l-23.2-12.3l-23.5,12.2l4.6-25.9L250-5.3l25-4.1l11.7-23.5l11.4,23.5l25.3,4.1l-18.2,18
							L309.9,38.6z M252-4.7l16.9,17l-4.4,24.5l22.1-11.6l21.8,11.5l-4.4-24.5l17.2-17l-23.9-3.9l-10.8-22.1L275.6-8.5L252-4.7z"/>
					</g>
				</g>
			</g>
		</g>
	</g>
</g>
<g>
	<path class="st33" d="M147.3,188.4c0.7,0.8-0.4,2-1.2,1.2c-2.5-2.3-2-6.5,0.1-8.9c-1.1,0-2.2,0-3.3-0.3c-0.6-0.2-0.4-1.1,0.1-1.1
		c1.8,0.1,4.3-0.2,6.1-0.4c0.4-0.1,0.7-0.1,1.1-0.1c1,0,1,1.5,0,1.5C146.4,180.4,144.9,185.8,147.3,188.4z"/>
	<path class="st33" d="M155.6,189.6c-1.6,0.2-3.3-0.2-4.1-1.7c-0.9-1.6,0.2-3.3,1.6-4.5c-0.8-0.3-1.5-1-1.2-2c0.8-2.4,5-3.5,6.8-1.5
		c0.3,0.4-0.2,0.8-0.5,0.5c-1.2-1.1-4.3-0.5-5.1,1.1c-0.4,0.9,0.6,1,1.6,0.9c0.5-0.2,1-0.4,1.4-0.5c0.6-0.1,1.2,0.6,0.6,1.1
		c-0.4,0.4-1,0.6-1.5,0.7c-1.4,0.8-3,2.2-2.5,3.4c0.6,1.3,2.4,1.3,3.4,0.5c0.9-0.6,1.6-1.4,2.2-2.3c0.5-0.6,1.5,0.2,1.1,0.8
		C158.6,187.5,157.4,189.3,155.6,189.6z"/>
	<path class="st33" d="M164.9,188.4c0.7,0.8-0.4,2-1.2,1.2c-2.5-2.3-2-6.5,0.1-8.9c-1.1,0-2.2,0-3.3-0.3c-0.6-0.2-0.4-1.1,0.1-1.1
		c1.8,0.1,4.3-0.2,6.1-0.4c0.4-0.1,0.7-0.1,1.1-0.1c1,0,1,1.5,0,1.5C164.1,180.4,162.5,185.8,164.9,188.4z"/>
	<path class="st33" d="M171.3,188.9c0,0-0.1,0-0.1,0l0,0c-0.3-0.2-0.3-0.6,0.1-0.7c0.9-0.2,1.9-0.1,2.8-0.7c0.7-0.5,1-1.1,1.1-1.9
		c0.2-1.4,0.1-4.3-1.5-5.1c-2.4-1.2-3.3,4-3.3,5.4c0,2.5,0.6,4.8,1.2,7.2c0.3,1.2-1.5,1.5-1.7,0.5c-0.8-3.4-1.8-7.7-0.4-11.5
		c0.8-2.1,3.1-4.4,5.3-2.7c1.8,1.4,2.4,4.9,1.6,7.1C175.9,188.3,173.4,189.8,171.3,188.9z"/>
	<path class="st33" d="M185.6,184.9c0.4,1.3,0.9,2.7,1.2,4c0.1,0.6-0.7,0.9-1,0.4c-0.5-0.8-0.8-1.5-1.2-2.4
		c-0.1,0.1-0.1,0.2-0.2,0.3c-1.1,1.8-3.2,3.4-5.3,2c-3.5-2.4-0.1-9.1,2.9-10.5c0.4-0.2,0.8-0.1,1,0.3c0.9,1.3,1.4,2.7,1.9,4.1
		c0.5-1.5,0.8-2.9,1.1-3.6c0.2-0.6,1.2-0.4,0.9,0.3C186.6,181.5,186.2,183.3,185.6,184.9z M182.2,180.4c-1.1,0.8-1.9,2.2-2.4,3.4
		c-0.5,1.1-1.3,3.6,0.3,4.3c1.8,0.8,3.1-0.6,4-2.6C183.6,183.7,183.1,182,182.2,180.4z M183.8,176.9c-0.4,0.6-1.4,0-1-0.6
		c0.6-0.9,1.2-1.8,2.1-2.3c0.5-0.3,1.2,0.4,0.7,0.8C184.9,175.5,184.3,176.1,183.8,176.9z"/>
	<path class="st33" d="M192.6,182.6c0,0,0.1,0.1,0.1,0.1c1.4,1.8,2.4,3.7,2.5,6c0.1,1.7-0.2,3.6-1.9,4.3c-1.3,0.6-3.1,0.2-4.2-0.7
		c-2-1.8-0.5-5.2,0.5-7.1c0.4-0.8,0.9-1.6,1.4-2.4c-0.5-0.6-1-1.1-1.6-1.7c-0.2-0.2-0.8-1.2-1.2-1.3c-0.4-0.1-0.3-0.6,0-0.7
		c0.6-0.2,1.4,0.6,1.8,1c0.6,0.5,1.2,1,1.8,1.6c0.1-0.2,0.3-0.4,0.4-0.6c0.7-0.9,1.4-1.9,2.5-2.4c0.5-0.2,0.9,0.3,0.6,0.7
		C194.3,180.5,193.4,181.5,192.6,182.6z M191.7,183.8c-0.1,0.2-0.2,0.3-0.3,0.5c-1,1.6-2.8,4.3-2.1,6.3c0.3,1.1,1.4,1.3,2.4,1.2
		c1.8-0.2,2.1-1.9,1.9-3.4C193.4,186.7,192.7,185.2,191.7,183.8z"/>
	<path class="st33" d="M206.2,189.2c-1.8,1.4-3.2,0.3-4.2-1.4c-0.7,1-1.6,1.9-2.8,1.8c-2-0.1-2.8-2.8-2.8-4.5c0-2.1,0.5-4.7,2.3-6
		c0.5-0.3,0.9,0.4,0.6,0.8c-1.1,1.4-1.5,3.1-1.5,4.9c0,0.8,0.3,3.4,1.6,3.2c0.6-0.1,1.4-1.1,1.9-2.2c-0.3-1.2-0.4-2.5-0.1-3.2
		c0.2-0.7,0.9-0.8,1.4-0.4c1,0.8,0.8,2.3,0.4,3.5c0.1,0.3,0.2,0.6,0.3,0.8c0.4,0.8,1.4,2.2,2.1,0.9c1-1.8,1-5.5-0.4-7.2
		c-0.7-0.8,0.4-1.8,1.2-1.2c1.3,1.1,1.6,3.4,1.6,5C207.9,185.8,207.7,188.1,206.2,189.2z"/>
	<path class="st33" d="M212.6,189.4c-0.3,0.5-1.3,0.5-1.4-0.2c-0.5-3.3-1.4-6.3-2.3-9.5c-0.1-0.5,0.6-0.9,0.9-0.4
		c1.1,2.4,1.9,4.9,2.5,7.5c0.6-1.1,1.1-2.1,1.5-3.2c0.6-1.6,0.8-3.3,1.4-4.9c0.2-0.7,1.1-0.5,1.2,0.2
		C216.8,182.5,214.5,186.5,212.6,189.4z"/>
	<path class="st33" d="M217.6,187.5c-0.5-1.2,0-3.1,0.9-4.6c-0.3-0.1-0.6-0.6-0.4-0.9c0.2-0.5,0.5-0.9,0.8-1.3
		c1.6-2.2,4.6-2.7,6-0.1c1.2,2.1,1.4,5.3,0,7.4C223.3,190.3,218.8,190.3,217.6,187.5z M223.2,180.8c-0.8-0.9-1.7-0.6-2.5,0.1
		c0.6-0.1,1.2,0,1.8,0.5c0.4,0.3-0.1,0.9-0.5,0.6c-2-1.4-5.4,4.7-1.9,5.9c1.9,0.6,3.5,0,4-2C224.6,184.3,224.4,182.1,223.2,180.8z"
		/>
</g>
<g>
	<path class="st33" d="M404.7,188.4c0.7,0.8-0.4,2-1.2,1.2c-2.5-2.3-2-6.5,0.1-8.9c-1.1,0-2.2,0-3.3-0.3c-0.6-0.2-0.4-1.1,0.1-1.1
		c1.8,0.1,4.3-0.2,6.1-0.4c0.4-0.1,0.7-0.1,1.1-0.1c1,0,1,1.5,0,1.5C403.9,180.4,402.4,185.8,404.7,188.4z"/>
	<path class="st33" d="M411.2,188.9c0,0-0.1,0-0.1,0l0,0c-0.3-0.2-0.3-0.6,0.1-0.7c0.9-0.2,1.9-0.1,2.8-0.7c0.7-0.5,1-1.1,1.1-1.9
		c0.2-1.4,0.1-4.3-1.5-5.1c-2.4-1.2-3.3,4-3.3,5.4c0,2.5,0.6,4.8,1.2,7.2c0.3,1.2-1.5,1.5-1.7,0.5c-0.8-3.4-1.8-7.7-0.4-11.5
		c0.8-2.1,3.1-4.4,5.3-2.7c1.8,1.4,2.4,4.9,1.6,7.1C415.7,188.3,413.2,189.8,411.2,188.9z"/>
	<path class="st33" d="M420,189.5c-3.5,1.1-2-9-1.5-10.3c0.1-0.3,0.6-0.3,0.6,0.1c0.1,1.9,0,3.7,0.1,5.6c0.1,1.2,0.2,2.8,1,3.8
		C420.5,188.9,420.4,189.4,420,189.5z M419.1,176.9c-0.4,0.6-1.4,0-1-0.6c0.6-0.9,1.2-1.8,2.1-2.3c0.5-0.3,1.2,0.4,0.7,0.8
		C420.2,175.5,419.6,176.1,419.1,176.9z"/>
	<path class="st33" d="M425.9,182.6c0,0,0.1,0.1,0.1,0.1c1.4,1.8,2.4,3.7,2.5,6c0.1,1.7-0.2,3.6-1.9,4.3c-1.3,0.6-3.1,0.2-4.2-0.7
		c-2-1.8-0.5-5.2,0.5-7.1c0.4-0.8,0.9-1.6,1.4-2.4c-0.5-0.6-1-1.1-1.6-1.7c-0.2-0.2-0.8-1.2-1.2-1.3c-0.4-0.1-0.3-0.6,0-0.7
		c0.6-0.2,1.4,0.6,1.8,1c0.6,0.5,1.2,1,1.8,1.6c0.1-0.2,0.3-0.4,0.4-0.6c0.7-0.9,1.4-1.9,2.5-2.4c0.5-0.2,0.9,0.3,0.6,0.7
		C427.6,180.5,426.7,181.5,425.9,182.6z M425,183.8c-0.1,0.2-0.2,0.3-0.3,0.5c-1,1.6-2.8,4.3-2.1,6.3c0.3,1.1,1.4,1.3,2.4,1.2
		c1.8-0.2,2.1-1.9,1.9-3.4C426.7,186.7,426,185.2,425,183.8z"/>
	<path class="st33" d="M439.5,189.2c-1.8,1.4-3.2,0.3-4.2-1.4c-0.7,1-1.6,1.9-2.8,1.8c-2-0.1-2.8-2.8-2.8-4.5c0-2.1,0.5-4.7,2.3-6
		c0.5-0.3,0.9,0.4,0.6,0.8c-1.1,1.4-1.5,3.1-1.5,4.9c0,0.8,0.3,3.4,1.6,3.2c0.6-0.1,1.4-1.1,1.9-2.2c-0.3-1.2-0.4-2.5-0.1-3.2
		c0.2-0.7,0.9-0.8,1.4-0.4c1,0.8,0.8,2.3,0.4,3.5c0.1,0.3,0.2,0.6,0.3,0.8c0.4,0.8,1.4,2.2,2.1,0.9c1-1.8,1-5.5-0.4-7.2
		c-0.7-0.8,0.4-1.8,1.2-1.2c1.3,1.1,1.6,3.4,1.6,5C441.2,185.8,441,188.1,439.5,189.2z"/>
	<path class="st33" d="M445.9,189.4c-0.3,0.5-1.3,0.5-1.4-0.2c-0.5-3.3-1.4-6.3-2.3-9.5c-0.1-0.5,0.6-0.9,0.9-0.4
		c1.1,2.4,1.9,4.9,2.5,7.5c0.6-1.1,1.1-2.1,1.5-3.2c0.6-1.6,0.8-3.3,1.4-4.9c0.2-0.7,1.1-0.5,1.2,0.2
		C450.1,182.5,447.7,186.5,445.9,189.4z"/>
	<path class="st33" d="M450.9,187.5c-0.5-1.2,0-3.1,0.9-4.6c-0.3-0.1-0.6-0.6-0.4-0.9c0.2-0.5,0.5-0.9,0.8-1.3
		c1.6-2.2,4.6-2.7,6-0.1c1.2,2.1,1.4,5.3,0,7.4C456.6,190.3,452.1,190.3,450.9,187.5z M456.5,180.8c-0.8-0.9-1.7-0.6-2.5,0.1
		c0.6-0.1,1.2,0,1.8,0.5c0.4,0.3-0.1,0.9-0.5,0.6c-2-1.4-5.4,4.7-1.9,5.9c1.9,0.6,3.5,0,4-2C457.8,184.3,457.7,182.1,456.5,180.8z"
		/>
</g>
<g>
	<path class="st33" d="M655.4,189.5c-0.6-1.4-1.6-2.4-2.7-3.4c-0.5-0.5-1.1-1.1-1.5-1.8c-0.8,1.4-1.5,2.9-1.6,4.5
		c0,0.7-1,0.9-1.3,0.2c-0.6-1.6-0.6-3.3-0.5-5c0.2-1.7,0.3-3.5,0.9-5c0.1-0.3,0.5-0.2,0.5,0.1c0.2,1.6-0.3,3.3-0.3,5
		c0,0.6,0,1.2,0,1.8c0.5-1.2,1.2-2.4,1.9-3.4c1.2-1.7,3.2-3.9,5.6-3.3c0.5,0.1,0.6,1,0,1.1c-2,0.3-3.4,1.5-4.5,3
		c0.8,1.1,1.7,1.8,2.7,2.7c1,0.9,1.9,2,1.8,3.4C656.5,189.8,655.7,190.1,655.4,189.5z"/>
	<path class="st33" d="M665.6,184.9c0.4,1.3,0.9,2.7,1.2,4c0.2,0.6-0.7,0.9-1,0.4c-0.5-0.8-0.8-1.5-1.2-2.4
		c-0.1,0.1-0.1,0.2-0.2,0.3c-1.1,1.8-3.2,3.4-5.3,2c-3.5-2.4-0.1-9.1,2.9-10.5c0.4-0.2,0.7-0.1,1,0.3c0.8,1.3,1.4,2.7,1.9,4.1
		c0.5-1.5,0.8-2.9,1.1-3.6c0.2-0.6,1.1-0.4,0.9,0.3C666.5,181.5,666.2,183.3,665.6,184.9z M662.2,180.4c-1.1,0.8-1.9,2.2-2.4,3.4
		c-0.4,1.1-1.2,3.6,0.3,4.3c1.8,0.8,3.1-0.6,4-2.6C663.6,183.7,663.1,182,662.2,180.4z"/>
	<path class="st33" d="M670.5,188.9c0,0-0.1,0-0.1,0l0,0c-0.3-0.2-0.3-0.6,0.1-0.7c0.9-0.2,1.9-0.1,2.8-0.7c0.7-0.5,1-1.1,1.1-1.9
		c0.2-1.4,0.1-4.3-1.5-5.1c-2.4-1.2-3.3,4-3.3,5.4c0,2.5,0.6,4.8,1.2,7.2c0.3,1.2-1.5,1.5-1.7,0.5c-0.8-3.4-1.8-7.7-0.4-11.5
		c0.8-2.1,3.1-4.4,5.3-2.7c1.8,1.4,2.4,4.9,1.6,7.1C675,188.3,672.5,189.8,670.5,188.9z"/>
	<path class="st33" d="M681,176.3c1.6,1.6,3,3.4,3.8,5.4c1.1,2.6,0.8,6.4-2.1,7.8c-2.4,1.2-5.9-0.4-5.8-3.4c0.1-2.6,3.2-5.3,5.9-5.1
		c0.1,0,0.1,0,0.2,0c-1.3-2.3-3.6-4.5-5.2-5.8c-0.7-0.6,0.3-1.6,1-1c1.4,1.2,4.3,1,5.8,0.1c0.4-0.2,0.9,0.3,0.5,0.6
		C684.1,176,682.6,176.4,681,176.3z M683.3,181.6c0,0.2-0.2,0.4-0.5,0.4c-1.9,0.1-5.2,2.6-4.4,4.8c1,2.7,4.2,1.9,5.2-0.3
		C684.4,184.9,684.1,183.2,683.3,181.6z"/>
	<path class="st33" d="M688.8,189.5c-3.5,1.1-2-9-1.5-10.3c0.1-0.3,0.6-0.3,0.6,0.1c0.1,1.9,0,3.7,0.1,5.6c0.1,1.2,0.2,2.8,1,3.8
		C689.3,188.9,689.2,189.4,688.8,189.5z"/>
	<path class="st33" d="M698,184.9c0.4,1.3,0.9,2.7,1.2,4c0.1,0.6-0.7,0.9-1,0.4c-0.5-0.8-0.8-1.5-1.2-2.4c-0.1,0.1-0.1,0.2-0.2,0.3
		c-1.1,1.8-3.2,3.4-5.3,2c-3.5-2.4-0.1-9.1,2.9-10.5c0.4-0.2,0.8-0.1,1,0.3c0.9,1.3,1.4,2.7,1.9,4.1c0.5-1.5,0.8-2.9,1.1-3.6
		c0.2-0.6,1.2-0.4,0.9,0.3C698.9,181.5,698.6,183.3,698,184.9z M694.6,180.4c-1.1,0.8-1.9,2.2-2.4,3.4c-0.5,1.1-1.3,3.6,0.3,4.3
		c1.8,0.8,3.1-0.6,4-2.6C696,183.7,695.5,182,694.6,180.4z M696.2,176.9c-0.4,0.6-1.4,0-1-0.6c0.6-0.9,1.2-1.8,2.1-2.3
		c0.5-0.3,1.2,0.4,0.7,0.8C697.2,175.5,696.7,176.1,696.2,176.9z"/>
</g>
<g>
	<path class="st33" d="M643.2,302.2c-0.9,0-1.9-0.1-2.8-0.2c0.2,0.2-0.1-0.1,0.2,0.2c0.2,0.2,0.2,0.5,0.3,0.8
		c0.1,0.8,0.1,1.7,0.1,2.5c0,1.7,0,3.4,0,5.1c0,1.1-1.6,1.1-1.7,0c0-0.2,0-0.4,0-0.6c0.1-1.4,0.1-2.8,0.2-4.3c0-0.8,0-1.6,0.1-2.5
		c0-0.3,0.1-0.5,0.1-0.8c0-0.1,0.1-0.2,0.1-0.3c0-0.1,0.1-0.2,0.1-0.3c-0.5-0.1-1.1-0.1-1.6-0.1c-0.6,0-1.1,0.1-1.7,0.1
		c0,1.1-0.2,2.2-0.4,3.3c-0.2,1.2-0.3,2.4-0.2,3.6c0.2,0.6,0.3,1,0.2,1.6c-0.1,0.8-1.5,1.2-1.6,0.2c-0.3-1.9-0.1-3.7,0.2-5.6
		c0.2-1,0.4-2,0.6-2.9c0,0-0.1,0-0.1,0c-0.7,0.2-1.3,0.5-2,0.6c-0.5,0.2-0.8-0.5-0.5-0.8c1.1-1.2,3.4-1.5,5-1.6
		c1.6-0.1,4.1-0.3,5.5,0.7C644,301.4,643.9,302.2,643.2,302.2z"/>
	<path class="st33" d="M648,311.1c-1.6,0.2-3.3-0.2-4.1-1.7c-0.9-1.6,0.2-3.3,1.6-4.5c-0.8-0.3-1.5-1-1.2-2c0.8-2.4,5-3.5,6.8-1.5
		c0.3,0.4-0.2,0.8-0.5,0.5c-1.2-1.1-4.3-0.5-5.1,1.1c-0.4,0.9,0.6,1,1.6,0.9c0.5-0.2,1-0.4,1.4-0.5c0.6-0.1,1.2,0.6,0.6,1.1
		c-0.4,0.4-1,0.6-1.5,0.7c-1.4,0.8-3,2.2-2.5,3.4c0.6,1.3,2.4,1.3,3.4,0.5c0.9-0.6,1.6-1.4,2.2-2.3c0.5-0.6,1.5,0.2,1.1,0.8
		C651,309,649.8,310.8,648,311.1z"/>
	<path class="st33" d="M656.6,310.9c-0.3,0.5-1.3,0.5-1.4-0.2c-0.5-3.3-1.4-6.3-2.3-9.5c-0.1-0.5,0.6-0.9,0.9-0.4
		c1.1,2.4,1.9,4.9,2.5,7.5c0.6-1.1,1.1-2.1,1.5-3.2c0.6-1.6,0.8-3.3,1.4-4.9c0.2-0.7,1.1-0.5,1.2,0.2
		C660.8,304,658.4,308,656.6,310.9z"/>
	<path class="st33" d="M665.6,309.9c0.7,0.8-0.4,2-1.2,1.2c-2.5-2.3-2-6.5,0.1-8.9c-1.1,0-2.2,0-3.3-0.3c-0.6-0.2-0.4-1.1,0.1-1.1
		c1.8,0.1,4.3-0.2,6.1-0.4c0.3-0.1,0.7-0.1,1.1-0.1c1,0,1,1.5,0,1.5C664.7,301.9,663.2,307.3,665.6,309.9z"/>
	<path class="st33" d="M677.3,306.4c0.4,1.3,0.9,2.7,1.2,4c0.1,0.6-0.7,0.9-1,0.4c-0.5-0.8-0.8-1.5-1.2-2.4
		c-0.1,0.1-0.1,0.2-0.2,0.3c-1.1,1.8-3.2,3.4-5.3,2c-3.5-2.4-0.1-9.1,2.9-10.5c0.4-0.2,0.8-0.1,1,0.3c0.9,1.3,1.4,2.7,1.9,4.1
		c0.5-1.5,0.8-2.9,1.1-3.6c0.2-0.6,1.2-0.4,0.9,0.3C678.3,303,677.9,304.8,677.3,306.4z M674,301.9c-1.1,0.8-1.9,2.2-2.4,3.4
		c-0.5,1.1-1.3,3.6,0.3,4.3c1.8,0.8,3.1-0.6,4-2.6C675.3,305.3,674.9,303.5,674,301.9z M675.5,298.4c-0.4,0.6-1.4,0-1-0.6
		c0.6-0.9,1.2-1.8,2.1-2.3c0.5-0.3,1.2,0.4,0.7,0.8C676.6,297,676,297.6,675.5,298.4z"/>
	<path class="st33" d="M684.3,304.1c0,0,0.1,0.1,0.1,0.1c1.4,1.8,2.4,3.7,2.5,6c0.1,1.7-0.2,3.6-1.9,4.3c-1.3,0.6-3.1,0.2-4.2-0.7
		c-2-1.8-0.5-5.2,0.5-7c0.4-0.8,0.9-1.6,1.4-2.4c-0.5-0.6-1-1.1-1.6-1.7c-0.2-0.2-0.8-1.2-1.2-1.3c-0.4-0.1-0.3-0.6,0-0.7
		c0.6-0.2,1.4,0.6,1.8,1c0.6,0.5,1.2,1,1.8,1.6c0.1-0.2,0.3-0.4,0.4-0.6c0.7-0.9,1.4-1.9,2.5-2.4c0.5-0.2,0.9,0.3,0.6,0.7
		C686,302,685.1,303,684.3,304.1z M683.4,305.3c-0.1,0.2-0.2,0.3-0.3,0.5c-1,1.6-2.8,4.3-2.1,6.3c0.3,1.1,1.4,1.3,2.4,1.2
		c1.8-0.2,2.1-1.9,1.9-3.4C685.1,308.2,684.4,306.7,683.4,305.3z"/>
	<path class="st33" d="M697.9,310.7c-1.8,1.4-3.2,0.3-4.2-1.4c-0.7,1-1.6,1.9-2.8,1.8c-2-0.1-2.8-2.8-2.8-4.5c0-2.1,0.5-4.7,2.3-6
		c0.5-0.3,0.9,0.4,0.6,0.8c-1.1,1.4-1.5,3.1-1.5,4.9c0,0.8,0.3,3.4,1.6,3.2c0.6-0.1,1.4-1.1,1.9-2.2c-0.3-1.2-0.4-2.5-0.1-3.2
		c0.2-0.7,0.9-0.8,1.4-0.4c1,0.8,0.8,2.3,0.4,3.5c0.1,0.3,0.2,0.6,0.3,0.8c0.4,0.8,1.4,2.2,2.1,0.9c1-1.8,1-5.5-0.4-7.2
		c-0.7-0.8,0.4-1.8,1.2-1.2c1.3,1.1,1.6,3.4,1.6,5C699.6,307.3,699.4,309.6,697.9,310.7z"/>
	<path class="st33" d="M704.4,310.9c-0.3,0.5-1.3,0.5-1.4-0.2c-0.5-3.3-1.4-6.3-2.3-9.5c-0.1-0.5,0.6-0.9,0.9-0.4
		c1.1,2.4,1.9,4.9,2.5,7.5c0.6-1.1,1.1-2.1,1.5-3.2c0.6-1.6,0.8-3.3,1.4-4.9c0.2-0.7,1.1-0.5,1.2,0.2
		C708.5,304,706.2,308,704.4,310.9z"/>
	<path class="st33" d="M709.3,309c-0.5-1.2,0-3.1,0.9-4.6c-0.3-0.1-0.6-0.6-0.4-0.9c0.2-0.5,0.5-0.9,0.8-1.3c1.6-2.2,4.6-2.7,6-0.1
		c1.2,2.1,1.4,5.3,0,7.4C715,311.8,710.5,311.9,709.3,309z M715,302.3c-0.8-0.9-1.7-0.6-2.5,0.1c0.6-0.1,1.2,0,1.8,0.5
		c0.3,0.3-0.1,0.9-0.5,0.6c-2-1.4-5.4,4.7-1.9,5.9c1.9,0.6,3.5,0,4-2C716.3,305.8,716.1,303.6,715,302.3z"/>
</g>
<g>
	<path class="st33" d="M774.5,429.3c-0.6-1.4-1.6-2.4-2.7-3.4c-0.5-0.5-1.1-1.1-1.5-1.8c-0.8,1.4-1.5,2.9-1.6,4.5
		c0,0.7-1,0.9-1.3,0.2c-0.6-1.6-0.6-3.3-0.5-5c0.2-1.7,0.3-3.5,0.9-5c0.1-0.3,0.5-0.2,0.5,0.1c0.2,1.6-0.3,3.3-0.3,5
		c0,0.6,0,1.2,0,1.8c0.5-1.2,1.2-2.4,1.9-3.4c1.2-1.7,3.2-3.9,5.6-3.3c0.5,0.1,0.6,1,0,1.1c-2,0.3-3.4,1.5-4.5,3
		c0.8,1.1,1.7,1.8,2.7,2.7c1,0.9,1.9,2,1.8,3.4C775.6,429.5,774.8,429.9,774.5,429.3z"/>
	<path class="st33" d="M782,429.3c-2.2,0.5-4.4-1.5-4.7-3.6c-0.4-2.3,0.2-5.2,2.3-6.6c0.4-0.2,0.8,0.3,0.5,0.6
		c-1.6,1.4-2.1,4.2-1.3,6.1c0.4,1.1,2.3,2.7,3.3,1.4c0.8-1.1,0.9-2.9,1-4.2c0-1.3,0-2.5,0-3.8c-0.1-0.8,1.1-0.9,1.4-0.2
		c0.6,1.9,0.5,4,0.2,5.9C784.4,426.5,783.8,428.9,782,429.3z M782.3,416.6c-0.4,0.6-1.4,0-1-0.6c0.6-0.9,1.2-1.8,2.1-2.3
		c0.5-0.3,1.2,0.4,0.7,0.8C783.4,415.2,782.9,415.9,782.3,416.6z"/>
	<path class="st33" d="M793.7,429.3c-0.6-1.4-1.6-2.4-2.7-3.4c-0.5-0.5-1.1-1.1-1.5-1.8c-0.8,1.4-1.5,2.9-1.6,4.5
		c0,0.7-1,0.9-1.3,0.2c-0.6-1.6-0.6-3.3-0.5-5c0.2-1.7,0.3-3.5,0.9-5c0.1-0.3,0.5-0.2,0.5,0.1c0.2,1.6-0.3,3.3-0.3,5
		c0,0.6,0,1.2,0,1.8c0.5-1.2,1.2-2.4,1.9-3.4c1.2-1.7,3.2-3.9,5.6-3.3c0.5,0.1,0.6,1,0,1.1c-2,0.3-3.4,1.5-4.5,3
		c0.8,1.1,1.7,1.8,2.7,2.7c1,0.9,1.9,2,1.8,3.4C794.8,429.5,793.9,429.9,793.7,429.3z"/>
	<path class="st33" d="M802.5,428.7c-0.1-1.2,0-2.4-0.1-3.6c-0.1-1.1-0.2-2.7-1.1-3.4c-1.2-1-2.9,1-3.2,2c-0.5,1.5-0.4,2.9-0.3,4.5
		c0,0.1,0.1,0.1,0.1,0.2c0,0,0,0,0,0.1c0.1,0.4-0.3,0.8-0.7,0.7c-0.9-0.2-1-1.8-1-2.5c-0.1-1.1,0-2.4,0.4-3.4
		c0.7-1.8,2.2-3.6,4.4-3.4c0.9,0.1,1.6,0.5,2.1,1.2v-0.1c-0.1-1.2-0.2-2.8-0.8-3.9c-0.9-1.6-2.6-2-4-0.8c-0.4,0.4-0.9-0.2-0.6-0.6
		c0.9-1.2,2.4-1.6,3.8-1c1.5,0.6,2.2,2,2.6,3.5c0.8,3.5,0.4,6.9,0.1,10.5C804,429.7,802.6,429.7,802.5,428.7z"/>
	<path class="st33" d="M805.8,427.2c-0.5-1.2,0-3.1,0.9-4.6c-0.3-0.1-0.6-0.6-0.4-0.9c0.2-0.5,0.5-0.9,0.8-1.3
		c1.6-2.2,4.6-2.7,6-0.1c1.2,2.1,1.4,5.3,0,7.4C811.6,430,807,430.1,805.8,427.2z M811.5,420.6c-0.8-0.9-1.7-0.6-2.5,0.1
		c0.6-0.1,1.2,0,1.8,0.5c0.4,0.3-0.1,0.9-0.5,0.6c-2-1.4-5.4,4.7-1.9,5.9c1.9,0.6,3.5,0,4-2C812.8,424.1,812.7,421.8,811.5,420.6z"
		/>
	<path class="st33" d="M819.7,432.4c-0.6,0-1.1-0.4-0.8-1c0.2-0.7,1-1,1.6-1.4c0.2-0.1,0.9-0.5,0.6-0.7c-0.3-0.3-0.8-0.4-1.2-0.5
		c-1.9-0.4-4-0.6-4.6-2.8c-1.1-3.9,3.5-8.5,7.4-7.3c0.5,0.1,0.3,0.8-0.2,0.7c-2.2-0.4-4.5,1.5-5.4,3.4c-0.4,0.9-0.7,2.1-0.1,3
		c0.5,0.8,1.4,0.9,2.3,1.1c1.3,0.2,4,0.6,3.7,2.6C822.8,430.8,821,432.4,819.7,432.4z"/>
</g>
<g>
	<path class="st33" d="M530,428.6c0,0-0.1,0-0.1,0l0,0c-0.3-0.2-0.3-0.6,0.1-0.7c0.9-0.2,1.9-0.1,2.8-0.7c0.7-0.5,1-1.1,1.1-1.9
		c0.2-1.4,0.1-4.3-1.5-5.1c-2.4-1.2-3.3,4-3.3,5.4c0,2.5,0.6,4.8,1.2,7.2c0.3,1.2-1.5,1.5-1.7,0.5c-0.8-3.4-1.8-7.7-0.4-11.5
		c0.8-2.1,3.1-4.4,5.3-2.7c1.8,1.4,2.4,4.9,1.6,7.1C534.5,428,532,429.6,530,428.6z"/>
	<path class="st33" d="M536.8,427.2c-0.5-1.2,0-3.1,0.9-4.6c-0.3-0.1-0.6-0.6-0.4-0.9c0.2-0.5,0.5-0.9,0.8-1.3
		c1.6-2.2,4.6-2.7,6-0.1c1.2,2.1,1.4,5.3,0,7.4C542.5,430,538,430.1,536.8,427.2z M542.4,420.6c-0.8-0.9-1.7-0.6-2.5,0.1
		c0.6-0.1,1.2,0,1.8,0.5c0.3,0.3-0.1,0.9-0.5,0.6c-2-1.4-5.4,4.7-1.9,5.9c1.9,0.6,3.5,0,4-2C543.7,424.1,543.6,421.8,542.4,420.6z
		 M542.8,416.6c-0.4,0.6-1.4,0-1-0.6c0.6-0.9,1.2-1.8,2.1-2.3c0.5-0.3,1.2,0.4,0.7,0.8C543.9,415.2,543.4,415.9,542.8,416.6z"/>
	<path class="st33" d="M554.5,429.1c0,0-0.1-0.1-0.1-0.2h0c-0.5-0.7-0.8-1.4-1-2.1c-0.2,0.6-0.6,1.1-1,1.6c-0.9,1-2.2,1.5-3.2,0.3
		c-0.4-0.5-0.7-1.2-0.9-1.9c-0.2,2.1-0.4,4.3-0.5,6.5c0,0.6-0.9,0.6-0.9,0c-0.3-4.7,0.4-9.4,0.4-14.1c0-0.9,1.4-0.9,1.4,0
		c0,2.5,0.2,5.3,1.1,7.6c0.1,0.4,0.4,1,0.8,1.2c0.4,0.2,1.1-0.7,1.2-1c1.4-2.3,1-5.3,1.3-7.9c0.1-0.7,1.2-0.8,1.2,0
		c0.1,2.6-0.5,6.2,1.3,8.4c0.1,0.1,0.3,0.3,0.4,0.5C556.3,428.9,555.1,429.9,554.5,429.1z"/>
	<path class="st33" d="M558.9,429.3c0.1,1.2,0.1,2.4,0.2,3.5c0,0.8-1.1,0.7-1.2,0c-0.4-4.3-1.1-8.7-0.4-13c0.3-1.9,1-5.8,3.5-6.1
		c2.5-0.3,3.7,3,3.1,5c-0.4,1.1-1,2.2-1.8,3.1c1.3-0.2,2.4,0.1,2.8,1.4C566,426.8,561.8,429,558.9,429.3z M562.1,415.2
		c-1.1-0.6-1.7,0.2-2.1,1.2c-1,2.3-1.3,4.8-1.4,7.3c0.4-0.4,1-0.8,1.7-1.1c0.7-0.6,2.4-2.3,2.8-3.6
		C563.6,417.6,563.5,415.9,562.1,415.2z M560.2,423.9c-0.4,0.3-0.8,0.6-1.2,0.8c-0.1,0.1-0.3,0.1-0.4,0.1c0,1.2,0.1,2.3,0.1,3.4
		c2.2-0.3,5.5-1.6,5.2-4.3C563.8,422.4,561.6,423.1,560.2,423.9z"/>
	<path class="st33" d="M566.6,427.2c-0.5-1.2,0-3.1,0.9-4.6c-0.3-0.1-0.6-0.6-0.4-0.9c0.2-0.5,0.5-0.9,0.8-1.3
		c1.6-2.2,4.6-2.7,6-0.1c1.2,2.1,1.4,5.3,0,7.4C572.3,430,567.8,430.1,566.6,427.2z M572.3,420.6c-0.8-0.9-1.7-0.6-2.5,0.1
		c0.6-0.1,1.2,0,1.8,0.5c0.3,0.3-0.1,0.9-0.5,0.6c-2-1.4-5.4,4.7-1.9,5.9c1.9,0.6,3.5,0,4-2C573.6,424.1,573.4,421.8,572.3,420.6z"
		/>
	<path class="st33" d="M580.4,432.4c-0.6,0-1.1-0.4-0.8-1c0.2-0.7,1-1,1.6-1.4c0.2-0.1,0.9-0.5,0.6-0.7c-0.3-0.3-0.8-0.4-1.2-0.5
		c-1.9-0.4-4-0.6-4.6-2.8c-1.1-3.9,3.5-8.5,7.4-7.3c0.5,0.1,0.3,0.8-0.2,0.7c-2.2-0.4-4.5,1.5-5.4,3.4c-0.4,0.9-0.7,2.1-0.1,3
		c0.5,0.8,1.4,0.9,2.3,1.1c1.3,0.2,4,0.6,3.7,2.6C583.6,430.8,581.8,432.4,580.4,432.4z"/>
</g>
<g>
	<path class="st33" d="M656,546.3c0.4,1.3,0.9,2.7,1.2,4c0.2,0.6-0.7,0.9-1,0.4c-0.5-0.8-0.8-1.5-1.2-2.4c-0.1,0.1-0.1,0.2-0.2,0.3
		c-1.1,1.8-3.2,3.4-5.3,2c-3.5-2.4-0.1-9.1,2.9-10.5c0.4-0.2,0.7-0.1,1,0.3c0.8,1.3,1.4,2.7,1.9,4.1c0.5-1.5,0.8-2.9,1.1-3.6
		c0.2-0.6,1.1-0.4,0.9,0.3C657,542.9,656.6,544.6,656,546.3z M652.6,541.8c-1.1,0.8-1.9,2.2-2.4,3.4c-0.4,1.1-1.2,3.6,0.3,4.3
		c1.8,0.8,3.1-0.6,4-2.6C654,545.1,653.5,543.4,652.6,541.8z"/>
	<path class="st33" d="M664,542.1c-0.6,0-1.4-0.1-2,0c-1.8,0.6-2.3,3.5-1.7,5.1c0.4,1,1.2,2,2.3,2.2c0.9,0.2,2.2-0.1,2.5-1.2
		c0.3-1.5-0.3-4.3-2-4.7c-0.7-0.2-0.4-1.1,0.3-1c2.4,0.4,3.6,4,3.1,6.1c-0.6,2.9-4.5,3-6.3,1.1c-2.1-2.2-2.2-5.9,0-8.2
		c1.7-1.7,4.6-1.1,6.7-1c0.7,0,0.8,1,0.2,1.2C666,542.1,665.1,542.2,664,542.1z"/>
	<path class="st33" d="M672.5,549.8c0.7,0.8-0.4,2-1.2,1.2c-2.5-2.3-2-6.5,0.1-8.9c-1.1,0-2.2,0-3.3-0.3c-0.6-0.2-0.4-1.1,0.1-1.1
		c1.8,0.1,4.3-0.2,6.1-0.4c0.4-0.1,0.7-0.1,1.1-0.1c1,0,1,1.5,0,1.5C671.6,541.8,670.1,547.2,672.5,549.8z"/>
	<path class="st33" d="M680.8,551c-1.6,0.2-3.3-0.2-4.1-1.7c-0.9-1.6,0.2-3.3,1.6-4.5c-0.8-0.3-1.5-1-1.2-2c0.8-2.4,5-3.5,6.8-1.5
		c0.3,0.4-0.2,0.8-0.5,0.5c-1.2-1.1-4.3-0.5-5,1.1c-0.4,0.9,0.6,1,1.6,0.9c0.5-0.2,1-0.4,1.4-0.5c0.6-0.1,1.2,0.6,0.6,1.1
		c-0.4,0.4-1,0.6-1.5,0.7c-1.4,0.8-3,2.2-2.5,3.4c0.6,1.3,2.4,1.3,3.4,0.5c0.9-0.6,1.6-1.4,2.2-2.3c0.5-0.6,1.5,0.2,1.1,0.8
		C683.8,548.9,682.6,550.7,680.8,551z M681.6,538.3c-0.4,0.6-1.4,0-1-0.6c0.6-0.9,1.2-1.8,2.1-2.3c0.5-0.3,1.2,0.4,0.7,0.8
		C682.7,536.9,682.1,537.5,681.6,538.3z"/>
	<path class="st33" d="M688.3,550.3c0,0-0.1,0-0.1,0l0,0c-0.3-0.2-0.3-0.6,0.1-0.7c0.9-0.2,1.9-0.1,2.8-0.7c0.7-0.5,1-1.1,1.1-1.9
		c0.2-1.4,0.1-4.3-1.5-5.1c-2.4-1.2-3.3,4-3.3,5.4c0,2.5,0.6,4.8,1.2,7.2c0.3,1.2-1.5,1.5-1.7,0.5c-0.8-3.4-1.8-7.7-0.4-11.5
		c0.8-2.1,3.1-4.4,5.3-2.7c1.8,1.4,2.4,4.9,1.6,7.1C692.8,549.7,690.3,551.2,688.3,550.3z"/>
	<path class="st33" d="M697.1,550.9c-3.5,1.1-2-9-1.5-10.3c0.1-0.3,0.6-0.3,0.6,0.1c0.1,1.9,0,3.7,0.1,5.6c0.1,1.2,0.2,2.8,1,3.8
		C697.6,550.2,697.5,550.7,697.1,550.9z"/>
</g>
<g>
	<path class="st33" d="M771.8,72c-1.6,0.2-3.3-0.2-4.1-1.7c-0.9-1.6,0.2-3.3,1.6-4.5c-0.8-0.3-1.5-1-1.2-2c0.8-2.4,5-3.5,6.8-1.5
		c0.3,0.4-0.2,0.8-0.5,0.5c-1.2-1.1-4.3-0.5-5.1,1.1c-0.4,0.9,0.6,1,1.6,0.9c0.5-0.2,1-0.4,1.4-0.5c0.6-0.1,1.2,0.6,0.6,1.1
		c-0.4,0.4-1,0.6-1.5,0.7c-1.4,0.8-3,2.2-2.5,3.4c0.6,1.3,2.4,1.3,3.4,0.5c0.9-0.6,1.6-1.4,2.2-2.3c0.5-0.6,1.5,0.2,1.1,0.8
		C774.8,69.9,773.6,71.7,771.8,72z"/>
	<path class="st33" d="M781.5,65.1c-0.7,0.4-1.2,0.9-1.3,1.5c-0.2,1.1,1.4,1.5,2.1,1.9c0.8,0.5,1.8,1.1,2,2.1
		c0.3,1.3-0.1,2.6-0.8,3.6c-1.4,2-4.9,2.4-6.3,0.1c-1.1-1.8-0.3-4.1,1.8-4.7c0.5-0.1,0.9,0.6,0.4,0.9c-2.4,1.1-1.4,4.5,1.2,4.2
		c1.5-0.2,3.1-2,2.7-3.6c-0.2-0.9-1.1-1.3-1.9-1.8c-1.4-0.7-2.8-1.6-2.3-3.4c0.2-0.6,0.6-1.1,1.1-1.6c-0.8-0.5-1.4-1.3-1.6-2.1
		c-0.3-1.2,0.3-2.4,1.3-3.3c-0.8-0.2-1.6-0.5-2.2-0.9c-0.3-0.2,0-0.7,0.3-0.6c0.9,0.4,2.1,0.6,3.3,0.5c0.9-0.5,1.9-0.7,2.7-0.6
		c0.7,0.1,0.5,1,0,1.2c-0.6,0.2-1.3,0.4-2,0.4c-1.2,0.6-2.5,1.7-2.2,2.7c0.1,0.5,0.9,1.4,1.8,1.8c0.8-0.4,1.7-0.6,2.4-0.7
		c0.5,0,0.9,0.5,0.7,0.9C784.1,65.2,782.8,65.4,781.5,65.1z"/>
	<path class="st33" d="M793.5,67.3c0.4,1.3,0.9,2.7,1.2,4c0.1,0.6-0.7,0.9-1,0.4c-0.5-0.8-0.8-1.5-1.2-2.4c-0.1,0.1-0.1,0.2-0.2,0.3
		c-1.1,1.8-3.2,3.4-5.3,2c-3.5-2.4-0.1-9.1,2.9-10.5c0.4-0.2,0.8-0.1,1,0.3c0.9,1.3,1.4,2.7,1.9,4.1c0.5-1.5,0.8-2.9,1.1-3.6
		c0.2-0.6,1.2-0.4,0.9,0.3C794.4,63.9,794.1,65.6,793.5,67.3z M790.1,62.8c-1.1,0.8-1.9,2.2-2.4,3.4c-0.5,1.1-1.3,3.6,0.3,4.3
		c1.8,0.8,3.1-0.6,4-2.6C791.5,66.1,791,64.3,790.1,62.8z M791.7,59.2c-0.4,0.6-1.4,0-1-0.6c0.6-0.9,1.2-1.8,2.1-2.3
		c0.5-0.3,1.2,0.4,0.7,0.8C792.7,57.8,792.2,58.5,791.7,59.2z"/>
	<path class="st33" d="M800.4,65c0,0,0.1,0.1,0.1,0.1c1.4,1.8,2.4,3.7,2.5,6c0.1,1.7-0.2,3.6-1.9,4.3c-1.3,0.6-3.1,0.2-4.2-0.7
		c-2-1.8-0.5-5.2,0.5-7.1c0.4-0.8,0.9-1.6,1.4-2.4c-0.5-0.6-1-1.1-1.6-1.7c-0.2-0.2-0.8-1.2-1.2-1.3c-0.4-0.1-0.3-0.6,0-0.7
		c0.6-0.2,1.4,0.6,1.8,1c0.6,0.5,1.2,1,1.8,1.6c0.1-0.2,0.3-0.4,0.4-0.6c0.7-0.9,1.4-1.9,2.5-2.4c0.5-0.2,0.9,0.3,0.6,0.7
		C802.2,62.9,801.2,63.9,800.4,65z M799.6,66.2c-0.1,0.2-0.2,0.3-0.3,0.5c-1,1.6-2.8,4.3-2.1,6.3c0.3,1.1,1.4,1.3,2.4,1.2
		c1.8-0.2,2.1-1.9,1.9-3.4C801.3,69,800.6,67.5,799.6,66.2z"/>
	<path class="st33" d="M814.1,71.6c-1.8,1.4-3.2,0.3-4.2-1.4c-0.7,1-1.6,1.9-2.8,1.8c-2-0.1-2.8-2.8-2.8-4.5c0-2.1,0.5-4.7,2.3-6
		c0.5-0.3,0.9,0.4,0.6,0.8c-1.1,1.4-1.5,3.1-1.5,4.9c0,0.8,0.3,3.4,1.6,3.2c0.6-0.1,1.4-1.1,1.9-2.2c-0.3-1.2-0.4-2.5-0.1-3.2
		c0.2-0.7,0.9-0.8,1.4-0.4c1,0.8,0.8,2.3,0.4,3.5c0.1,0.3,0.2,0.6,0.3,0.8c0.4,0.8,1.4,2.2,2.1,0.9c1-1.8,1-5.5-0.4-7.2
		c-0.7-0.8,0.4-1.8,1.2-1.2c1.3,1.1,1.6,3.4,1.6,5C815.8,68.2,815.6,70.4,814.1,71.6z"/>
	<path class="st33" d="M820.5,71.7c-0.3,0.5-1.3,0.5-1.4-0.2c-0.5-3.3-1.4-6.3-2.3-9.5c-0.1-0.5,0.6-0.9,0.9-0.4
		c1.1,2.4,1.9,4.9,2.5,7.5c0.6-1.1,1.1-2.1,1.5-3.2c0.6-1.6,0.8-3.3,1.4-4.9c0.2-0.7,1.1-0.5,1.2,0.2
		C824.7,64.9,822.3,68.8,820.5,71.7z"/>
	<path class="st33" d="M825.4,69.8c-0.5-1.2,0-3.1,0.9-4.6c-0.3-0.1-0.6-0.6-0.4-0.9c0.2-0.5,0.5-0.9,0.8-1.3c1.6-2.2,4.6-2.7,6-0.1
		c1.2,2.1,1.4,5.3,0,7.4C831.2,72.6,826.6,72.7,825.4,69.8z M831.1,63.2c-0.8-0.9-1.7-0.6-2.5,0.1c0.6-0.1,1.2,0,1.8,0.5
		c0.3,0.3-0.1,0.9-0.5,0.6c-2-1.4-5.4,4.7-1.9,5.9c1.9,0.6,3.5,0,4-2C832.4,66.7,832.3,64.4,831.1,63.2z"/>
</g>
<g>
	<path class="st33" d="M285.7,302.3c-0.6,0-1.4-0.1-2,0c-1.8,0.6-2.4,3.5-1.7,5.1c0.4,1,1.2,2,2.3,2.2c0.9,0.2,2.2-0.1,2.5-1.2
		c0.3-1.5-0.3-4.3-2-4.7c-0.7-0.2-0.4-1.1,0.3-1c2.4,0.4,3.6,4,3.1,6.1c-0.6,2.9-4.5,3-6.3,1.1c-2.1-2.2-2.2-5.9,0-8.2
		c1.7-1.7,4.6-1.1,6.7-1c0.7,0,0.8,1,0.2,1.2C287.7,302.2,286.7,302.3,285.7,302.3z"/>
	<path class="st33" d="M297.6,310.1c-0.7,0.5-1.5,0.9-2.2,1c0.1,1.3,0.3,2.6,0.4,3.9c0.1,1-1.3,1-1.6,0.2c-0.4-1.3-0.6-2.7-0.6-4.1
		c-1.7-0.3-3.1-1.6-3.5-3.7c-0.8-3.7,1.1-7.4,4.9-8.1c0.6-0.1,0.8,0.7,0.2,0.9c-3.3,0.9-4.9,4.3-3.6,7.5c0.4,1.1,1.2,1.7,2,1.9
		c-0.1-2,0-4.2,0.8-6c0.7-1.6,2.4-2.8,4.2-2.2C301.8,302.5,299.5,308.7,297.6,310.1z M296.7,303.2c-0.6,0.4-0.9,1.1-1.1,1.7
		c-0.4,1.5-0.5,3.1-0.4,4.7c0.9-0.3,1.8-1,2.3-2.1c0.5-1,1.3-3.2,0.6-4.3C297.9,302.8,297.1,302.9,296.7,303.2z"/>
	<path class="st33" d="M308.9,306.4c0.4,1.3,0.9,2.7,1.2,4c0.2,0.6-0.7,0.9-1,0.4c-0.5-0.8-0.8-1.5-1.2-2.4
		c-0.1,0.1-0.1,0.2-0.2,0.3c-1.1,1.8-3.2,3.4-5.3,2c-3.5-2.4-0.1-9.1,2.9-10.5c0.4-0.2,0.7-0.1,1,0.3c0.8,1.3,1.4,2.7,1.9,4.1
		c0.5-1.5,0.8-2.9,1.1-3.6c0.2-0.6,1.1-0.4,0.9,0.3C309.9,303,309.5,304.8,308.9,306.4z M305.6,301.9c-1.1,0.8-1.9,2.2-2.4,3.4
		c-0.4,1.1-1.2,3.6,0.3,4.3c1.8,0.8,3.1-0.6,4-2.6C307,305.3,306.5,303.5,305.6,301.9z"/>
	<path class="st33" d="M313.7,311c-3.5,1.1-2-9-1.5-10.3c0.1-0.3,0.6-0.3,0.6,0.1c0.1,1.9,0,3.7,0.1,5.6c0.1,1.2,0.2,2.8,1,3.8
		C314.2,310.4,314.1,310.9,313.7,311z M312.8,298.4c-0.4,0.6-1.4,0-1-0.6c0.6-0.9,1.2-1.8,2.1-2.3c0.5-0.3,1.2,0.4,0.7,0.8
		C313.9,297,313.3,297.6,312.8,298.4z"/>
	<path class="st33" d="M317.6,310.4c0,0-0.1,0-0.1,0l0,0c-0.3-0.2-0.3-0.6,0.1-0.7c0.9-0.2,1.9-0.1,2.8-0.7c0.7-0.5,1-1.1,1.1-1.9
		c0.2-1.4,0.1-4.3-1.5-5.1c-2.4-1.2-3.3,4-3.3,5.4c0,2.5,0.6,4.8,1.2,7.2c0.3,1.2-1.5,1.5-1.7,0.5c-0.8-3.4-1.8-7.7-0.4-11.5
		c0.8-2.1,3.1-4.4,5.3-2.7c1.8,1.4,2.4,4.9,1.6,7.1C322.1,309.8,319.6,311.3,317.6,310.4z"/>
	<path class="st33" d="M331.8,306.4c0.4,1.3,0.9,2.7,1.2,4c0.2,0.6-0.7,0.9-1,0.4c-0.5-0.8-0.8-1.5-1.2-2.4
		c-0.1,0.1-0.1,0.2-0.2,0.3c-1.1,1.8-3.2,3.4-5.3,2c-3.5-2.4-0.1-9.1,2.9-10.5c0.4-0.2,0.7-0.1,1,0.3c0.8,1.3,1.4,2.7,1.9,4.1
		c0.5-1.5,0.8-2.9,1.1-3.6c0.2-0.6,1.1-0.4,0.9,0.3C332.7,303,332.4,304.8,331.8,306.4z M328.4,301.9c-1.1,0.8-1.9,2.2-2.4,3.4
		c-0.4,1.1-1.2,3.6,0.3,4.3c1.8,0.8,3.1-0.6,4-2.6C329.8,305.3,329.3,303.5,328.4,301.9z"/>
</g>
<g>
	<path class="st33" d="M280.7,63.1c-0.9,0-1.9-0.1-2.8-0.2c0.2,0.2-0.1-0.1,0.2,0.2c0.2,0.2,0.2,0.5,0.3,0.8
		c0.1,0.8,0.1,1.7,0.1,2.5c0,1.7,0,3.4,0,5.1c0,1.1-1.6,1.1-1.7,0c0-0.2,0-0.4,0-0.6c0.1-1.4,0.1-2.8,0.2-4.3c0-0.8,0-1.6,0.1-2.5
		c0-0.3,0.1-0.5,0.1-0.8c0-0.1,0.1-0.2,0.1-0.3c0-0.1,0.1-0.2,0.1-0.3c-0.5-0.1-1.1-0.1-1.6-0.1c-0.6,0-1.1,0.1-1.7,0.1
		c0,1.1-0.2,2.2-0.4,3.3c-0.2,1.2-0.3,2.4-0.2,3.6c0.2,0.6,0.3,1,0.2,1.6c-0.1,0.8-1.5,1.2-1.6,0.2c-0.3-1.9-0.1-3.7,0.2-5.6
		c0.2-1,0.4-2,0.6-2.9c0,0-0.1,0-0.1,0c-0.7,0.2-1.3,0.5-2,0.6c-0.5,0.2-0.8-0.5-0.5-0.8c1.1-1.2,3.4-1.5,5-1.6
		c1.6-0.1,4.1-0.3,5.5,0.7C281.4,62.3,281.3,63,280.7,63.1z"/>
	<path class="st33" d="M286,71.9c-2.2,0.5-4.4-1.5-4.7-3.6c-0.4-2.4,0.2-5.2,2.3-6.6c0.4-0.2,0.8,0.3,0.5,0.6
		c-1.6,1.4-2.1,4.2-1.3,6.1c0.4,1.1,2.3,2.7,3.3,1.4c0.8-1.1,0.9-2.9,1-4.2c0-1.3,0-2.5,0-3.8c-0.1-0.8,1.1-0.9,1.4-0.2
		c0.6,1.9,0.5,4,0.2,5.9C288.5,69.1,287.9,71.5,286,71.9z"/>
	<path class="st33" d="M292.6,71.3c0,0-0.1,0-0.1,0l0,0c-0.3-0.2-0.3-0.6,0.1-0.7c0.9-0.2,1.9-0.1,2.8-0.7c0.7-0.5,1-1.1,1.1-1.9
		c0.2-1.4,0.1-4.3-1.5-5.1c-2.4-1.2-3.3,4-3.3,5.4c0,2.5,0.6,4.8,1.2,7.2c0.3,1.2-1.5,1.5-1.7,0.5c-0.8-3.4-1.8-7.7-0.4-11.5
		c0.8-2.1,3.1-4.4,5.3-2.7c1.8,1.4,2.4,4.9,1.6,7.1C297.1,70.7,294.6,72.2,292.6,71.3z"/>
	<path class="st33" d="M306.8,67.3c0.4,1.3,0.9,2.7,1.2,4c0.2,0.6-0.7,0.9-1,0.4c-0.5-0.8-0.8-1.5-1.2-2.4c-0.1,0.1-0.1,0.2-0.2,0.3
		c-1.1,1.8-3.2,3.4-5.3,2c-3.5-2.4-0.1-9.1,2.9-10.5c0.4-0.2,0.7-0.1,1,0.3c0.8,1.3,1.4,2.7,1.9,4.1c0.5-1.5,0.8-2.9,1.1-3.6
		c0.2-0.6,1.1-0.4,0.9,0.3C307.7,63.9,307.4,65.6,306.8,67.3z M303.4,62.8c-1.1,0.8-1.9,2.2-2.4,3.4c-0.4,1.1-1.2,3.6,0.3,4.3
		c1.8,0.8,3.1-0.6,4-2.6C304.8,66.1,304.3,64.3,303.4,62.8z"/>
	<path class="st33" d="M317.5,71.7c0,0-0.1-0.1-0.1-0.2h0c-0.5-0.7-0.8-1.4-1-2.1c-0.2,0.6-0.6,1.1-1,1.6c-0.9,1-2.2,1.5-3.2,0.3
		c-0.4-0.5-0.7-1.2-0.9-1.9c-0.2,2.1-0.4,4.3-0.5,6.5c0,0.6-0.9,0.6-0.9,0c-0.3-4.7,0.4-9.4,0.4-14.1c0-0.9,1.4-0.9,1.4,0
		c0,2.5,0.2,5.3,1.1,7.6c0.1,0.4,0.4,1,0.8,1.2c0.4,0.2,1.1-0.7,1.2-1c1.4-2.3,1-5.3,1.3-7.9c0.1-0.7,1.2-0.8,1.2,0
		c0.1,2.6-0.5,6.2,1.3,8.4c0.1,0.1,0.3,0.3,0.4,0.5C319.3,71.5,318.1,72.5,317.5,71.7z"/>
	<path class="st33" d="M322.3,71.8c-3.5,1.1-2-9-1.5-10.3c0.1-0.3,0.6-0.3,0.6,0.1c0.1,1.9,0,3.7,0.1,5.6c0.1,1.2,0.2,2.8,1,3.8
		C322.8,71.2,322.7,71.7,322.3,71.8z M321.3,59.2c-0.4,0.6-1.4,0-1-0.6c0.6-0.9,1.2-1.8,2.1-2.3c0.5-0.3,1.2,0.4,0.7,0.8
		C322.4,57.8,321.9,58.5,321.3,59.2z"/>
	<path class="st33" d="M327.8,58.7c1.6,1.6,3,3.4,3.8,5.4c1.1,2.6,0.8,6.4-2.1,7.8c-2.4,1.2-5.9-0.4-5.8-3.4
		c0.1-2.6,3.2-5.3,5.9-5.1c0.1,0,0.1,0,0.2,0c-1.3-2.3-3.6-4.5-5.2-5.8c-0.7-0.6,0.3-1.6,1-1c1.4,1.2,4.3,1,5.8,0.1
		c0.4-0.2,0.9,0.3,0.5,0.6C330.9,58.3,329.3,58.7,327.8,58.7z M330.1,64c0,0.2-0.2,0.4-0.5,0.4c-1.9,0.1-5.2,2.6-4.4,4.8
		c1,2.7,4.2,1.9,5.2-0.3C331.1,67.3,330.9,65.6,330.1,64z"/>
	<path class="st33" d="M340.9,67.3c0.4,1.3,0.9,2.7,1.2,4c0.2,0.6-0.7,0.9-1,0.4c-0.5-0.8-0.8-1.5-1.2-2.4c-0.1,0.1-0.1,0.2-0.2,0.3
		c-1.1,1.8-3.2,3.4-5.3,2c-3.5-2.4-0.1-9.1,2.9-10.5c0.4-0.2,0.7-0.1,1,0.3c0.8,1.3,1.4,2.7,1.9,4.1c0.5-1.5,0.8-2.9,1.1-3.6
		c0.2-0.6,1.1-0.4,0.9,0.3C341.9,63.9,341.5,65.6,340.9,67.3z M337.6,62.8c-1.1,0.8-1.9,2.2-2.4,3.4c-0.4,1.1-1.2,3.6,0.3,4.3
		c1.8,0.8,3.1-0.6,4-2.6C339,66.1,338.5,64.3,337.6,62.8z"/>
</g>
<g>
	<path class="st33" d="M291.3,550.9c-0.6-1.4-1.6-2.4-2.7-3.4c-0.5-0.5-1.1-1.1-1.5-1.8c-0.8,1.4-1.5,2.9-1.6,4.5
		c0,0.7-1,0.9-1.3,0.2c-0.6-1.6-0.6-3.3-0.5-5c0.2-1.7,0.3-3.5,0.9-5c0.1-0.3,0.5-0.2,0.5,0.1c0.2,1.7-0.3,3.3-0.3,5
		c0,0.6,0,1.2,0,1.8c0.5-1.2,1.2-2.4,1.9-3.4c1.2-1.7,3.2-3.9,5.6-3.3c0.5,0.1,0.6,1,0,1.1c-2,0.3-3.4,1.5-4.5,3
		c0.8,1.1,1.7,1.8,2.7,2.7c1,0.9,1.9,2,1.8,3.4C292.4,551.2,291.5,551.5,291.3,550.9z"/>
	<path class="st33" d="M298.7,550.9c-2.2,0.5-4.4-1.5-4.7-3.6c-0.4-2.4,0.2-5.2,2.3-6.6c0.4-0.2,0.8,0.3,0.5,0.6
		c-1.6,1.4-2.1,4.2-1.3,6.1c0.4,1.1,2.3,2.7,3.3,1.4c0.8-1.1,0.9-2.9,1-4.2c0-1.3,0-2.5,0-3.8c-0.1-0.8,1.1-0.9,1.4-0.2
		c0.6,1.9,0.5,4,0.2,5.9C301.1,548.1,300.5,550.5,298.7,550.9z M299.1,538.3c-0.4,0.6-1.4,0-1-0.6c0.6-0.9,1.2-1.8,2.1-2.3
		c0.5-0.3,1.2,0.4,0.7,0.8C300.2,536.9,299.6,537.5,299.1,538.3z"/>
	<path class="st33" d="M304.7,551c0.1,1.2,0.1,2.4,0.2,3.5c0,0.8-1.1,0.7-1.2,0c-0.4-4.3-1.1-8.7-0.4-13c0.3-1.9,1-5.8,3.5-6.1
		c2.5-0.3,3.7,3,3.1,5c-0.4,1.1-1,2.2-1.8,3.1c1.3-0.2,2.4,0.1,2.8,1.4C311.8,548.5,307.6,550.7,304.7,551z M308,536.8
		c-1.1-0.6-1.7,0.2-2.1,1.2c-1,2.3-1.3,4.8-1.4,7.3c0.4-0.4,1-0.8,1.7-1.1c0.7-0.6,2.4-2.4,2.8-3.6
		C309.4,539.3,309.3,537.6,308,536.8z M306.1,545.5c-0.4,0.3-0.8,0.6-1.2,0.8c-0.1,0.1-0.3,0.1-0.4,0.1c0,1.2,0.1,2.3,0.1,3.4
		c2.2-0.3,5.5-1.6,5.2-4.3C309.6,544.1,307.5,544.8,306.1,545.5z"/>
	<path class="st33" d="M312.4,548.8c-0.5-1.2,0-3.1,0.9-4.6c-0.3-0.1-0.6-0.6-0.4-0.9c0.2-0.5,0.5-0.9,0.8-1.3
		c1.6-2.2,4.6-2.7,6-0.1c1.2,2.1,1.4,5.3,0,7.4C318.1,551.7,313.6,551.7,312.4,548.8z M318.1,542.2c-0.8-0.9-1.7-0.6-2.5,0.1
		c0.6-0.1,1.2,0,1.8,0.5c0.4,0.3-0.1,0.9-0.5,0.6c-2-1.4-5.4,4.7-1.9,5.9c1.9,0.6,3.5,0,4-2C319.4,545.7,319.2,543.5,318.1,542.2z"
		/>
	<path class="st33" d="M326.2,554c-0.6,0-1.1-0.4-0.8-1c0.2-0.7,1-1,1.6-1.4c0.2-0.1,0.9-0.5,0.6-0.7c-0.3-0.3-0.8-0.4-1.2-0.5
		c-1.9-0.4-4-0.6-4.6-2.8c-1.1-3.9,3.5-8.5,7.4-7.3c0.5,0.1,0.3,0.8-0.2,0.7c-2.2-0.4-4.5,1.5-5.4,3.4c-0.4,0.9-0.7,2.1-0.1,3
		c0.5,0.8,1.4,0.9,2.3,1.1c1.3,0.2,4,0.6,3.7,2.6C329.4,552.4,327.6,554,326.2,554z"/>
</g>
</svg>
