<?xml version="1.0" encoding="UTF-8" standalone="no"?>
<svg
   viewBox="0 0 2535.2253 3321.8455"
   version="1.1"
   id="svg187"
   sodipodi:docname="squidsmall-04.svg"
   width="2535.2253"
   height="3321.8455"
   inkscape:version="1.1.2 (b8e25be833, 2022-02-05)"
   xmlns:inkscape="http://www.inkscape.org/namespaces/inkscape"
   xmlns:sodipodi="http://sodipodi.sourceforge.net/DTD/sodipodi-0.dtd"
   xmlns="http://www.w3.org/2000/svg"
   xmlns:svg="http://www.w3.org/2000/svg">
  <defs
     id="defs191" />
  <sodipodi:namedview
     id="namedview189"
     pagecolor="#ffffff"
     bordercolor="#666666"
     borderopacity="1.0"
     inkscape:pageshadow="2"
     inkscape:pageopacity="0.0"
     inkscape:pagecheckerboard="0"
     showgrid="false"
     inkscape:zoom="0.14378972"
     inkscape:cx="1630.8537"
     inkscape:cy="1356.147"
     inkscape:window-width="1366"
     inkscape:window-height="705"
     inkscape:window-x="-8"
     inkscape:window-y="-8"
     inkscape:window-maximized="1"
     inkscape:current-layer="svg187" />
  <g
     style="isolation:isolate"
     id="g185"
     transform="matrix(0.60012913,0.79990314,0.79990314,-0.60012913,-1478.7333,1297.2238)">
    <g
       id="body_1"
       data-name="body 1">
      <g
         id="g182">
        <g
           id="g170">
          <path
             d="m 3533.7298,2298.4879 c -1.767,-2.6917 -3.4366,-5.2334 -4.9384,-7.7394 l -1.026,-1.7133 -1.3409,-1.4809 c -47.8555,-52.8773 -117.5782,-91.6158 -196.3205,-109.079 -121.7389,-27.0083 -248.143,-31.0319 -370.3855,-34.9234 -53.0273,-1.6875 -107.8603,-3.4336 -161.0882,-7.054 -86.0099,-5.8621 -158.9348,-16.1015 -222.9404,-31.3041 -80.1895,-19.0454 -147.2682,-45.7379 -205.07,-81.6039 -21.7202,-13.4763 -62.6478,-41.6248 -92.7153,-78.7294 -28.2906,-34.9115 -39.7903,-68.6272 -34.1805,-100.2073 0.9515,-5.3526 4.0832,-14.4815 7.3997,-24.1457 10.5622,-30.7846 23.7077,-69.097 9.4299,-97.2961 -6.2068,-12.2606 -16.9855,-21.0846 -31.171,-25.5184 -19.701,-6.1553 -40.1692,-1.4529 -58.7066,4.9747 8.9928,-9.2806 19.7953,-20.3456 32.2804,-32.9876 2.9723,-3.0061 6.033,-6.0947 9.1801,-9.261 0,0 0,0 -0.01,-0.01 3.6383,-3.6669 7.3977,-7.4452 11.2783,-11.3335 3.3358,-3.3377 6.7546,-6.7496 10.2612,-10.2456 0,-7e-4 0,0 -0.01,0 1.1139,-1.1107 2.2353,-2.2281 3.3671,-3.3539 0,0 0,0.01 0,0.011 1.4501,-1.4516 2.9132,-2.9105 4.3872,-4.3762 1.4635,-1.4537 2.94,-2.9189 4.4309,-4.3965 0.6337,-0.6274 1.2664,-1.254 1.9065,-1.8868 0,-2e-4 -5e-4,-7e-4 0,0 1.4551,-1.4409 2.9201,-2.8905 4.4006,-4.3534 4.844,-4.7835 9.8361,-9.7077 14.9438,-14.7057 0,0 0,0 -0.01,-0.01 1.9686,-1.9324 3.9576,-3.8813 5.9649,-5.8461 3.75,-3.6597 7.5765,-7.3885 11.4501,-11.155 0,0 -0.01,-0.01 -0.01,-0.014 2.1151,-2.0596 4.2511,-4.1361 6.4044,-6.227 2.4826,-2.4053 4.9821,-4.8275 7.5154,-7.2831 -5e-4,-1e-4 -5e-4,-2e-4 -5e-4,-4e-4 1.6379,-1.5851 3.2891,-3.1807 4.9478,-4.7822 0.8164,-0.7883 1.6374,-1.5805 2.4588,-2.3727 0.8755,-0.8443 1.7526,-1.6903 2.6341,-2.539 4.4413,-4.2774 8.9516,-8.6047 13.5369,-12.9824 0,0 -0.01,-0.01 -0.01,-0.01 1.2718,-1.2176 2.5487,-2.4392 3.8309,-3.6649 0,0 0,0.01 0.01,0.01 3.2787,-3.1379 6.6845,-6.3707 10.0273,-9.5546 0,0 -0.01,-0.01 -0.012,-0.014 1.3543,-1.2886 2.7135,-2.5816 4.0788,-3.8782 0.01,0.01 0.01,0.012 0.015,0.018 4.7308,-4.4932 9.5888,-9.084 14.4472,-13.6725 -0.01,-0.01 -0.013,-0.015 -0.019,-0.023 2.1355,-2.016 4.2863,-4.0424 6.4466,-6.0757 0,0.01 0.01,0.011 0.013,0.017 5.5537,-5.2323 11.2361,-10.542 16.9472,-15.875 -0.01,-0.01 -0.017,-0.014 -0.026,-0.021 2.7294,-2.5497 5.4767,-5.1111 8.2409,-7.684 0.01,0.01 0.017,0.018 0.025,0.027 6.0518,-5.6353 12.2124,-11.3426 18.4262,-17.096 -0.01,-0.01 -0.011,-0.012 -0.017,-0.017 1.6602,-1.5327 3.3269,-3.0692 4.999,-4.609 0.01,0.013 0.018,0.025 0.027,0.037 5.5105,-5.0883 11.1194,-10.2091 16.7511,-15.3713 -0.01,-0.01 -0.02,-0.021 -0.03,-0.031 1.3031,-1.1911 2.6088,-2.3833 3.9178,-3.5779 0.01,0.011 0.021,0.022 0.031,0.032 3.3135,-3.0217 6.6989,-6.0929 10.0586,-9.1404 -0.011,-0.015 -0.023,-0.029 -0.034,-0.044 1.7143,-1.5569 3.4346,-3.1168 5.1589,-4.6794 0.01,0.013 0.021,0.025 0.031,0.038 3.2608,-2.9554 6.5778,-5.9385 9.8763,-8.9202 -0.012,-0.013 -0.025,-0.026 -0.037,-0.039 2.057,-1.8554 4.12,-3.7134 6.1909,-5.5757 0.011,0.014 0.023,0.028 0.034,0.043 6.7779,-6.1029 13.6238,-12.2143 20.5343,-18.3729 -0.013,-0.013 -0.026,-0.027 -0.039,-0.04 1.3727,-1.2223 2.7473,-2.4456 4.1254,-3.6702 0.014,0.016 0.028,0.032 0.043,0.048 6.6249,-5.8856 13.3254,-11.8203 20.0829,-17.7614 -0.013,-0.017 -0.027,-0.034 -0.04,-0.052 1.3985,-1.231 2.8,-2.463 4.2039,-3.6961 0.013,0.019 0.026,0.038 0.04,0.056 2.5546,-2.2499 5.1475,-4.5047 7.7205,-6.7569 -0.016,-0.02 -0.034,-0.04 -0.05,-0.06 1.4005,-1.2254 2.8029,-2.4516 4.2079,-3.6787 0.016,0.022 0.033,0.045 0.049,0.067 4.3425,-3.7885 8.7391,-7.6043 13.1277,-11.4167 -0.023,-0.019 -0.045,-0.039 -0.068,-0.059 1.4462,-1.2545 2.8948,-2.5098 4.3459,-3.7658 0.018,0.019 0.037,0.038 0.056,0.057 3.7152,-3.233 7.5198,-6.4548 11.2634,-9.6911 -0.024,-0.025 -0.046,-0.051 -0.07,-0.076 1.4352,-1.2356 2.8735,-2.4719 4.3137,-3.7085 0.026,0.026 0.052,0.053 0.079,0.079 4.4567,-3.821 8.8553,-7.637 13.3502,-11.463 -0.021,-0.017 -0.041,-0.036 -0.062,-0.054 1.4635,-1.2483 2.9291,-2.497 4.3971,-3.7461 0.02,0.015 0.041,0.03 0.061,0.045 4.9548,-4.2019 10.0059,-8.4374 15.0094,-12.6651 -0.03,-0.025 -0.061,-0.05 -0.09,-0.075 1.5281,-1.2897 3.0582,-2.5797 4.5903,-3.8699 l 0.082,0.085 c 4.0216,-3.3892 7.9772,-6.7708 12.0222,-10.1429 -0.024,-0.014 -0.047,-0.028 -0.071,-0.041 2.1221,-1.7749 4.2471,-3.5499 6.3766,-5.325 0.018,0.017 0.035,0.034 0.053,0.051 4.264,-3.5404 8.5439,-7.1004 12.8362,-10.6421 -0.019,-0.023 -0.036,-0.047 -0.054,-0.07 1.8782,-1.5547 3.7599,-3.1091 5.6436,-4.6633 0.015,0.022 0.03,0.044 0.045,0.066 6.8082,-5.6298 13.6695,-11.2256 20.5462,-16.8442 -0.02,-0.021 -0.04,-0.041 -0.06,-0.062 1.472,-1.2001 2.945,-2.4002 4.4199,-3.5998 0.022,0.021 0.044,0.041 0.066,0.062 6.1382,-5.0077 12.3207,-9.9828 18.5116,-14.9764 -0.015,-0.024 -0.029,-0.048 -0.045,-0.072 1.3607,-1.0944 2.723,-2.1885 4.0862,-3.2822 0.015,0.025 0.031,0.051 0.046,0.076 7.7741,-6.2477 15.6034,-12.4642 23.451,-18.681 -0.022,-0.019 -0.044,-0.038 -0.066,-0.057 1.697,-1.3414 3.3944,-2.6814 5.0943,-4.0208 0.016,0.02 0.033,0.039 0.049,0.059 4.2863,-3.3632 8.5876,-6.7476 12.8923,-10.1132 -0.019,-0.019 -0.037,-0.039 -0.057,-0.058 1.4025,-1.0958 2.8059,-2.1906 4.2099,-3.2849 0.021,0.022 0.042,0.045 0.064,0.067 10.4872,-8.1792 21.0414,-16.3084 31.6234,-24.3793 -0.018,-0.027 -0.036,-0.054 -0.055,-0.081 2.6693,-2.036 5.3407,-4.0694 8.0155,-6.0985 0.055,0.01 0.1083,0.019 0.1634,0.026 7.7672,-5.9093 15.5711,-11.762 23.3869,-17.5968 -0.04,-0.017 -0.079,-0.036 -0.1192,-0.053 1.3588,-1.0134 2.718,-2.0263 4.0778,-3.0377 0.01,0.042 0.014,0.082 0.018,0.1242 5.9168,-4.4035 11.8856,-8.6936 17.8198,-13.0402 -0.048,-0.051 -0.093,-0.1032 -0.141,-0.1536 1.7844,-1.3095 3.5702,-2.6169 5.3571,-3.9223 l 0.1237,0.1646 c 5.7166,-4.1809 11.4074,-8.3946 17.1364,-12.5367 -0.023,-0.033 -0.049,-0.066 -0.073,-0.099 1.5718,-1.1325 3.1436,-2.2637 4.7169,-3.3928 0.024,0.025 0.049,0.049 0.074,0.074 3.3045,-2.3647 6.6239,-4.7105 9.9389,-7.0756 -0.029,-0.032 -0.059,-0.064 -0.088,-0.096 1.7128,-1.2196 3.4262,-2.4366 5.1405,-3.6518 -0.01,0.058 -0.02,0.1177 -0.018,0.172 10.5373,-7.4703 21.0965,-14.844 31.6661,-22.1378 -0.034,-0.031 -0.065,-0.064 -0.099,-0.094 2.5765,-1.7767 5.1539,-3.5496 7.7324,-5.3149 0.026,0.028 0.052,0.056 0.077,0.084 6.4869,-4.4543 12.9812,-8.8505 19.4874,-13.2285 -0.027,-0.024 -0.049,-0.052 -0.075,-0.076 2.0217,-1.3588 4.0435,-2.7138 6.0662,-4.065 -0.016,0.065 -0.027,0.1311 -0.048,0.1936 4.8654,-3.2575 9.7219,-6.5131 14.5848,-9.7106 -0.028,-0.024 -0.053,-0.05 -0.081,-0.074 2.4305,-1.6002 4.8609,-3.193 7.2909,-4.7815 0.017,0.029 0.037,0.056 0.054,0.086 13.3358,-8.716 26.6745,-17.2523 40.0163,-25.6131 -0.026,-0.017 -0.05,-0.036 -0.075,-0.053 2.3172,-1.4495 4.635,-2.8936 6.9522,-4.3309 0.012,0.025 0.023,0.051 0.035,0.076 29.11,-18.0744 58.1668,-35.1771 87.0389,-51.0916 -0.1018,0.0482 -0.2061,0.0903 -0.3129,0.1235 0.298,-0.1639 0.5954,-0.3271 0.8929,-0.4908 -0.1147,0.0922 -0.2349,0.1728 -0.3586,0.2461 9.3285,-5.1403 18.6387,-10.1588 27.9245,-15.0432 -0.01,-0.008 -0.012,-0.0174 -0.019,-0.0258 1.6801,-0.8832 3.3591,-1.7626 5.0377,-2.6371 0.01,0.0145 0.01,0.029 0.015,0.0435 12.9906,-6.7835 25.9281,-13.2794 38.8199,-19.513 -0.01,-0.0121 -0.017,-0.024 -0.025,-0.0362 2.9211,-1.4126 5.8398,-2.8135 8.754,-4.1968 0.01,0.004 0.01,0.009 0.016,0.0132 2.5551,-1.2228 5.1092,-2.4289 7.6609,-3.6241 0.6223,-0.2903 1.244,-0.5802 1.8658,-0.8692 2.3952,-1.1155 4.7889,-2.2243 7.1777,-3.312 0,0 72.5207,-41.8437 -10.071,-4.2091 -0.5671,0.2579 -1.1566,0.5282 -1.7566,0.8043 -83.5904,38.4081 -452.9727,230.2551 -974.5774,748.5579 -0.4216,0.4182 -0.8403,0.8307 -1.2619,1.2496 0,0 0,0 0,0 -12.1419,12.0716 -24.3633,24.3137 -36.6681,36.7413 -3.8374,3.8734 -7.6832,7.7667 -11.5385,11.6818 -1.9721,-5.7526 -4.2377,-12.1984 -8.2037,-18.0783 -14.3355,-21.2862 -43.0889,-20.3963 -65.2333,-10.0735 -22.1166,10.3238 -36.8414,27.8456 -47.1989,41.9576 l -1.9954,2.7205 -1.0111,3.2191 c -0.583,1.8534 -3.7137,6.7133 -20.1688,11.8057 l -0.8711,0.2702 -0.8443,0.3466 c -11.6776,4.7954 -27.2735,7.496 -39.8052,9.6653 -4.259,0.737 -8.2817,1.4342 -11.9219,2.1623 -26.4898,5.2632 -53.6173,10.0586 -79.8508,14.696 -15.0943,2.6688 -30.7021,5.4281 -46.0815,8.2558 -96.1887,17.7085 -187.3237,25.5989 -270.8605,23.4614 -123.9031,-3.1774 -246.7684,-40.8938 -365.5881,-77.3677 -48.9182,-15.0159 -99.5011,-30.5442 -149.4206,-43.4286 -85.6603,-22.1285 -170.9938,-36.455 -253.6297,-42.5843 -86.7042,-6.4303 -173.326,-4.0544 -257.4547,7.063 -86.0129,11.3597 -160.1685,27.2536 -226.7038,48.5905 -81.4619,26.1223 -151.9136,61.0289 -209.3857,103.7393 -3.9193,2.9072 -7.933,6.0081 -11.9298,9.2163 l -4.3176,3.4674 -1.9656,5.1778 c -1.3151,3.4654 -2.2229,6.9676 -2.7006,10.4102 l -8.5687,61.8781 39.2997,-40.7558 c 35.2452,-8.0353 76.2632,-15.0238 117.9069,-10.146 45.2561,5.3278 80.8818,32.8058 109.7604,58.9798 58.3213,52.8694 102.9378,120.8708 132.6099,202.1151 22.2745,60.9792 33.958,127.6795 45.2561,192.1847 5.7648,32.9101 11.7252,66.9406 19.0365,99.965 9.7527,43.9957 23.1555,85.851 36.1868,124.5279 l 0.3943,1.172 c 6.616,19.6563 16.9139,50.2571 40.0744,65.2253 -0.5959,17.5059 1.1512,35.3704 5.2235,53.2974 3.9174,17.2328 9.3891,33.8507 14.6821,49.9224 4.1398,12.5735 8.0512,24.4497 11.2723,36.5821 11.0339,41.5523 6.6488,69.8856 -15.6505,101.0685 -0.6794,0.9505 -2.6122,3.3452 -4.4815,5.6605 -22.1702,27.4582 -41.157,53.8993 -30.137,75.567 3.3582,6.6041 12.2884,17.5238 34.3801,16.4263 102.0458,-5.0874 200.5895,-92.6696 215.1862,-191.25 7.9122,-53.4484 -12.1354,-101.2999 -59.5976,-142.2354 -2.2725,-1.9577 -4.5798,-3.9144 -6.8991,-5.882 -1.1005,-0.9336 -2.2149,-1.8792 -3.3313,-2.8298 -0.444,-19.0276 12.2934,-35.6356 32.784,-41.6646 12.8605,-3.7882 27.0152,5.4688 44.3036,20.5303 17.3947,15.1579 31.0696,34.395 45.5482,54.7625 9.3583,13.1664 19.0365,26.7808 29.9731,39.4884 29.5301,34.3245 63.6371,58.9212 101.3615,73.1017 1.8117,0.6834 3.674,1.3955 5.581,2.1245 12.4662,4.7696 27.2526,10.4271 42.7631,13.523 -13.6899,13.9978 -30.9713,26.8583 -47.8684,39.4338 -9.4259,7.0143 -18.3293,13.6392 -26.759,20.5393 -3.4972,2.8635 -7.055,5.7568 -10.6545,8.6839 -48.211,39.2023 -102.8533,83.6351 -124.1316,145.684 -9.9771,29.0991 -6.0856,60.1836 11.2525,89.8945 8.3303,14.2759 31.2276,47.8565 63.8467,51.3278 1.4005,0.149 2.7731,0.2205 4.119,0.2205 25.4032,0 40.9008,-25.5929 48.5547,-38.2339 8.9521,-14.8083 16.3617,-30.3942 23.527,-45.4677 5.877,-12.3629 11.4283,-24.0405 17.7274,-35.2443 21.5027,-38.218 44.9075,-58.0998 83.4672,-70.9116 l 3.6541,-1.2088 c 28.515,-9.4199 58.0005,-19.1597 78.8327,-49.981 6.5753,-9.6931 8.6849,-21.0806 10.3794,-30.2304 0.287,-1.5465 0.5642,-3.0483 0.8472,-4.4259 1.5862,-7.6132 6.322,-14.9602 11.5147,-17.8684 2.5874,-1.4472 4.8798,-1.5932 7.9271,-0.5006 3.0681,1.0985 6.2763,2.4384 9.6732,3.8578 2.8645,1.1969 5.8274,2.4334 8.8627,3.5906 29.3285,11.2445 56.7778,11.3955 81.59,0.4489 15.6178,-6.9011 28.0323,-18.0582 37.0053,-33.2339 24.4825,-5.2225 55.3435,7.4175 80.558,17.7493 42.1533,17.2944 77.9478,31.2335 115.6394,43.0591 79.9928,25.0377 159.9807,35.1727 237.7547,30.142 72.8902,-4.705 167.9793,-13.3661 257.0464,-38.7891 73.062,-20.8412 149.6351,-49.4248 240.9787,-89.9531 102.0607,-45.2621 202.7905,-100.6573 300.2029,-154.2279 102.91,-56.593 209.3231,-115.1129 317.4009,-161.7328 120.4626,-51.9605 230.3779,-83.3361 336.0222,-95.9175 46.6814,-5.5562 92.8414,-6.5504 135.7992,-6.7829 26.1442,1.3647 52.8117,3.6472 78.6063,5.8542 l 11.0419,0.9416 c 11.025,0.9495 22.7055,1.9994 35.7071,3.2092 l 7.7076,0.7171 1.9587,-1.4422 c 6.1541,-0.09 12.2278,0.046 17.5735,0.2076 l 38.9967,1.174 -22.4245,-34.2629 z"
             style="fill:#30026e;stroke:#ffffff;stroke-width:14px;stroke-miterlimit:10"
             id="path2" />
          <path
             d="m 3533.7298,2298.4879 c -1.767,-2.6917 -3.4366,-5.2334 -4.9384,-7.7394 l -1.026,-1.7133 -1.3409,-1.4809 c -47.8555,-52.8773 -117.5782,-91.6158 -196.3205,-109.079 -121.7389,-27.0083 -248.143,-31.0319 -370.3855,-34.9234 -53.0273,-1.6875 -107.8603,-3.4336 -161.0882,-7.054 -86.0099,-5.8621 -158.9348,-16.1015 -222.9404,-31.3041 -80.1895,-19.0454 -147.2682,-45.7379 -205.07,-81.6039 -21.7202,-13.4763 -62.6478,-41.6248 -92.7153,-78.7294 -28.2906,-34.9115 -39.7903,-68.6272 -34.1805,-100.2073 0.9515,-5.3526 4.0832,-14.4815 7.3997,-24.1457 10.5622,-30.7846 23.7077,-69.097 9.4299,-97.2961 -6.2068,-12.2606 -16.9855,-21.0846 -31.171,-25.5184 -19.701,-6.1553 -40.1692,-1.4529 -58.7066,4.9747 8.9928,-9.2806 19.7953,-20.3456 32.2804,-32.9876 2.9723,-3.0061 6.033,-6.0947 9.1801,-9.261 0,0 0,0 -0.01,-0.01 3.6383,-3.6669 7.3977,-7.4452 11.2783,-11.3335 3.3358,-3.3377 6.7546,-6.7496 10.2612,-10.2456 0,-7e-4 0,0 -0.01,0 1.1139,-1.1107 2.2353,-2.2281 3.3671,-3.3539 0,0 0,0.01 0,0.011 1.4501,-1.4516 2.9132,-2.9105 4.3872,-4.3762 1.4635,-1.4537 2.94,-2.9189 4.4309,-4.3965 0.6337,-0.6274 1.2664,-1.254 1.9065,-1.8868 0,-2e-4 -5e-4,-7e-4 0,0 1.4551,-1.4409 2.9201,-2.8905 4.4006,-4.3534 4.844,-4.7835 9.8361,-9.7077 14.9438,-14.7057 0,0 0,0 -0.01,-0.01 1.9686,-1.9324 3.9576,-3.8813 5.9649,-5.8461 3.75,-3.6597 7.5765,-7.3885 11.4501,-11.155 0,0 -0.01,-0.01 -0.01,-0.014 2.1151,-2.0596 4.2511,-4.1361 6.4044,-6.227 2.4826,-2.4053 4.9821,-4.8275 7.5154,-7.2831 -5e-4,-1e-4 -5e-4,-2e-4 -5e-4,-4e-4 1.6379,-1.5851 3.2891,-3.1807 4.9478,-4.7822 0.8164,-0.7883 1.6374,-1.5805 2.4588,-2.3727 0.8755,-0.8443 1.7526,-1.6903 2.6341,-2.539 4.4413,-4.2774 8.9516,-8.6047 13.5369,-12.9824 0,0 -0.01,-0.01 -0.01,-0.01 1.2718,-1.2176 2.5487,-2.4392 3.8309,-3.6649 0,0 0,0.01 0.01,0.01 3.2787,-3.1379 6.6845,-6.3707 10.0273,-9.5546 0,0 -0.01,-0.01 -0.012,-0.014 1.3543,-1.2886 2.7135,-2.5816 4.0788,-3.8782 0.01,0.01 0.01,0.012 0.015,0.018 4.7308,-4.4932 9.5888,-9.084 14.4472,-13.6725 -0.01,-0.01 -0.013,-0.015 -0.019,-0.023 2.1355,-2.016 4.2863,-4.0424 6.4466,-6.0757 0,0.01 0.01,0.011 0.013,0.017 5.5537,-5.2323 11.2361,-10.542 16.9472,-15.875 -0.01,-0.01 -0.017,-0.014 -0.026,-0.021 2.7294,-2.5497 5.4767,-5.1111 8.2409,-7.684 0.01,0.01 0.017,0.018 0.025,0.027 6.0518,-5.6353 12.2124,-11.3426 18.4262,-17.096 -0.01,-0.01 -0.011,-0.012 -0.017,-0.017 1.6602,-1.5327 3.3269,-3.0692 4.999,-4.609 0.01,0.013 0.018,0.025 0.027,0.037 5.5105,-5.0883 11.1194,-10.2091 16.7511,-15.3713 -0.01,-0.01 -0.02,-0.021 -0.03,-0.031 1.3031,-1.1911 2.6088,-2.3833 3.9178,-3.5779 0.01,0.011 0.021,0.022 0.031,0.032 3.3135,-3.0217 6.6989,-6.0929 10.0586,-9.1404 -0.011,-0.015 -0.023,-0.029 -0.034,-0.044 1.7143,-1.5569 3.4346,-3.1168 5.1589,-4.6794 0.01,0.013 0.021,0.025 0.031,0.038 3.2608,-2.9554 6.5778,-5.9385 9.8763,-8.9202 -0.012,-0.013 -0.025,-0.026 -0.037,-0.039 2.057,-1.8554 4.12,-3.7134 6.1909,-5.5757 0.011,0.014 0.023,0.028 0.034,0.043 6.7779,-6.1029 13.6238,-12.2143 20.5343,-18.3729 -0.013,-0.013 -0.026,-0.027 -0.039,-0.04 1.3727,-1.2223 2.7473,-2.4456 4.1254,-3.6702 0.014,0.016 0.028,0.032 0.043,0.048 6.6249,-5.8856 13.3254,-11.8203 20.0829,-17.7614 -0.013,-0.017 -0.027,-0.034 -0.04,-0.052 1.3985,-1.231 2.8,-2.463 4.2039,-3.6961 0.013,0.019 0.026,0.038 0.04,0.056 2.5546,-2.2499 5.1475,-4.5047 7.7205,-6.7569 -0.016,-0.02 -0.034,-0.04 -0.05,-0.06 1.4005,-1.2254 2.8029,-2.4516 4.2079,-3.6787 0.016,0.022 0.033,0.045 0.049,0.067 4.3425,-3.7885 8.7391,-7.6043 13.1277,-11.4167 -0.023,-0.019 -0.045,-0.039 -0.068,-0.059 1.4462,-1.2545 2.8948,-2.5098 4.3459,-3.7658 0.018,0.019 0.037,0.038 0.056,0.057 3.7152,-3.233 7.5198,-6.4548 11.2634,-9.6911 -0.024,-0.025 -0.046,-0.051 -0.07,-0.076 1.4352,-1.2356 2.8735,-2.4719 4.3137,-3.7085 0.026,0.026 0.052,0.053 0.079,0.079 4.4567,-3.821 8.8553,-7.637 13.3502,-11.463 -0.021,-0.017 -0.041,-0.036 -0.062,-0.054 1.4635,-1.2483 2.9291,-2.497 4.3971,-3.7461 0.02,0.015 0.041,0.03 0.061,0.045 4.9548,-4.2019 10.0059,-8.4374 15.0094,-12.6651 -0.03,-0.025 -0.061,-0.05 -0.09,-0.075 1.5281,-1.2897 3.0582,-2.5797 4.5903,-3.8699 l 0.082,0.085 c 4.0216,-3.3892 7.9772,-6.7708 12.0222,-10.1429 -0.024,-0.014 -0.047,-0.028 -0.071,-0.041 2.1221,-1.7749 4.2471,-3.5499 6.3766,-5.325 0.018,0.017 0.035,0.034 0.053,0.051 4.264,-3.5404 8.5439,-7.1004 12.8362,-10.6421 -0.019,-0.023 -0.036,-0.047 -0.054,-0.07 1.8782,-1.5547 3.7599,-3.1091 5.6436,-4.6633 0.015,0.022 0.03,0.044 0.045,0.066 6.8082,-5.6298 13.6695,-11.2256 20.5462,-16.8442 -0.02,-0.021 -0.04,-0.041 -0.06,-0.062 1.472,-1.2001 2.945,-2.4002 4.4199,-3.5998 0.022,0.021 0.044,0.041 0.066,0.062 6.1382,-5.0077 12.3207,-9.9828 18.5116,-14.9764 -0.015,-0.024 -0.029,-0.048 -0.045,-0.072 1.3607,-1.0944 2.723,-2.1885 4.0862,-3.2822 0.015,0.025 0.031,0.051 0.046,0.076 7.7741,-6.2477 15.6034,-12.4642 23.451,-18.681 -0.022,-0.019 -0.044,-0.038 -0.066,-0.057 1.697,-1.3414 3.3944,-2.6814 5.0943,-4.0208 0.016,0.02 0.033,0.039 0.049,0.059 4.2863,-3.3632 8.5876,-6.7476 12.8923,-10.1132 -0.019,-0.019 -0.037,-0.039 -0.057,-0.058 1.4025,-1.0958 2.8059,-2.1906 4.2099,-3.2849 0.021,0.022 0.042,0.045 0.064,0.067 10.4872,-8.1792 21.0414,-16.3084 31.6234,-24.3793 -0.018,-0.027 -0.036,-0.054 -0.055,-0.081 2.6693,-2.036 5.3407,-4.0694 8.0155,-6.0985 0.055,0.01 0.1083,0.019 0.1634,0.026 7.7672,-5.9093 15.5711,-11.762 23.3869,-17.5968 -0.04,-0.017 -0.079,-0.036 -0.1192,-0.053 1.3588,-1.0134 2.718,-2.0263 4.0778,-3.0377 0.01,0.042 0.014,0.082 0.018,0.1242 5.9168,-4.4035 11.8856,-8.6936 17.8198,-13.0402 -0.048,-0.051 -0.093,-0.1032 -0.141,-0.1536 1.7844,-1.3095 3.5702,-2.6169 5.3571,-3.9223 l 0.1237,0.1646 c 5.7166,-4.1809 11.4074,-8.3946 17.1364,-12.5367 -0.023,-0.033 -0.049,-0.066 -0.073,-0.099 1.5718,-1.1325 3.1436,-2.2637 4.7169,-3.3928 0.024,0.025 0.049,0.049 0.074,0.074 3.3045,-2.3647 6.6239,-4.7105 9.9389,-7.0756 -0.029,-0.032 -0.059,-0.064 -0.088,-0.096 1.7128,-1.2196 3.4262,-2.4366 5.1405,-3.6518 -0.01,0.058 -0.02,0.1177 -0.018,0.172 10.5373,-7.4703 21.0965,-14.844 31.6661,-22.1378 -0.034,-0.031 -0.065,-0.064 -0.099,-0.094 2.5765,-1.7767 5.1539,-3.5496 7.7324,-5.3149 0.026,0.028 0.052,0.056 0.077,0.084 6.4869,-4.4543 12.9812,-8.8505 19.4874,-13.2285 -0.027,-0.024 -0.049,-0.052 -0.075,-0.076 2.0217,-1.3588 4.0435,-2.7138 6.0662,-4.065 -0.016,0.065 -0.027,0.1311 -0.048,0.1936 4.8654,-3.2575 9.7219,-6.5131 14.5848,-9.7106 -0.028,-0.024 -0.053,-0.05 -0.081,-0.074 2.4305,-1.6002 4.8609,-3.193 7.2909,-4.7815 0.017,0.029 0.037,0.056 0.054,0.086 13.3358,-8.716 26.6745,-17.2523 40.0163,-25.6131 -0.026,-0.017 -0.05,-0.036 -0.075,-0.053 2.3172,-1.4495 4.635,-2.8936 6.9522,-4.3309 0.012,0.025 0.023,0.051 0.035,0.076 29.11,-18.0744 58.1668,-35.1771 87.0389,-51.0916 -0.1018,0.0482 -0.2061,0.0903 -0.3129,0.1235 0.298,-0.1639 0.5954,-0.3271 0.8929,-0.4908 -0.1147,0.0922 -0.2349,0.1728 -0.3586,0.2461 9.3285,-5.1403 18.6387,-10.1588 27.9245,-15.0432 -0.01,-0.008 -0.012,-0.0174 -0.019,-0.0258 1.6801,-0.8832 3.3591,-1.7626 5.0377,-2.6371 0.01,0.0145 0.01,0.029 0.015,0.0435 12.9906,-6.7835 25.9281,-13.2794 38.8199,-19.513 -0.01,-0.0121 -0.017,-0.024 -0.025,-0.0362 2.9211,-1.4126 5.8398,-2.8135 8.754,-4.1968 0.01,0.004 0.01,0.009 0.016,0.0132 2.5551,-1.2228 5.1092,-2.4289 7.6609,-3.6241 0.6223,-0.2903 1.244,-0.5802 1.8658,-0.8692 2.3952,-1.1155 4.7889,-2.2243 7.1777,-3.312 0,0 72.5207,-41.8437 -10.071,-4.2091 -0.5671,0.2579 -1.1566,0.5282 -1.7566,0.8043 -83.5904,38.4081 -452.9727,230.2551 -974.5774,748.5579 -0.4216,0.4182 -0.8403,0.8307 -1.2619,1.2496 0,0 0,0 0,0 -12.1419,12.0716 -24.3633,24.3137 -36.6681,36.7413 -3.8374,3.8734 -7.6832,7.7667 -11.5385,11.6818 -1.9721,-5.7526 -4.2377,-12.1984 -8.2037,-18.0783 -14.3355,-21.2862 -43.0889,-20.3963 -65.2333,-10.0735 -22.1166,10.3238 -36.8414,27.8456 -47.1989,41.9576 l -1.9954,2.7205 -1.0111,3.2191 c -0.583,1.8534 -3.7137,6.7133 -20.1688,11.8057 l -0.8711,0.2702 -0.8443,0.3466 c -11.6776,4.7954 -27.2735,7.496 -39.8052,9.6653 -4.259,0.737 -8.2817,1.4342 -11.9219,2.1623 -26.4898,5.2632 -53.6173,10.0586 -79.8508,14.696 -15.0943,2.6688 -30.7021,5.4281 -46.0815,8.2558 -96.1887,17.7085 -187.3237,25.5989 -270.8605,23.4614 -123.9031,-3.1774 -246.7684,-40.8938 -365.5881,-77.3677 -48.9182,-15.0159 -99.5011,-30.5442 -149.4206,-43.4286 -85.6603,-22.1285 -170.9938,-36.455 -253.6297,-42.5843 -86.7042,-6.4303 -173.326,-4.0544 -257.4547,7.063 -86.0129,11.3597 -160.1685,27.2536 -226.7038,48.5905 -81.4619,26.1223 -151.9136,61.0289 -209.3857,103.7393 -3.9193,2.9072 -7.933,6.0081 -11.9298,9.2163 l -4.3176,3.4674 -1.9656,5.1778 c -1.3151,3.4654 -2.2229,6.9676 -2.7006,10.4102 l -8.5687,61.8781 39.2997,-40.7558 c 35.2452,-8.0353 76.2632,-15.0238 117.9069,-10.146 45.2561,5.3278 80.8818,32.8058 109.7604,58.9798 58.3213,52.8694 102.9378,120.8708 132.6099,202.1151 22.2745,60.9792 33.958,127.6795 45.2561,192.1847 5.7648,32.9101 11.7252,66.9406 19.0365,99.965 9.7527,43.9957 23.1555,85.851 36.1868,124.5279 l 0.3943,1.172 c 6.616,19.6563 16.9139,50.2571 40.0744,65.2253 -0.5959,17.5059 1.1512,35.3704 5.2235,53.2974 3.9174,17.2328 9.3891,33.8507 14.6821,49.9224 4.1398,12.5735 8.0512,24.4497 11.2723,36.5821 11.0339,41.5523 6.6488,69.8856 -15.6505,101.0685 -0.6794,0.9505 -2.6122,3.3452 -4.4815,5.6605 -22.1702,27.4582 -41.157,53.8993 -30.137,75.567 3.3582,6.6041 12.2884,17.5238 34.3801,16.4263 102.0458,-5.0874 200.5895,-92.6696 215.1862,-191.25 7.9122,-53.4484 -12.1354,-101.2999 -59.5976,-142.2354 -2.2725,-1.9577 -4.5798,-3.9144 -6.8991,-5.882 -1.1005,-0.9336 -2.2149,-1.8792 -3.3313,-2.8298 -0.444,-19.0276 12.2934,-35.6356 32.784,-41.6646 12.8605,-3.7882 27.0152,5.4688 44.3036,20.5303 17.3947,15.1579 31.0696,34.395 45.5482,54.7625 9.3583,13.1664 19.0365,26.7808 29.9731,39.4884 29.5301,34.3245 63.6371,58.9212 101.3615,73.1017 1.8117,0.6834 3.674,1.3955 5.581,2.1245 12.4662,4.7696 27.2526,10.4271 42.7631,13.523 -13.6899,13.9978 -30.9713,26.8583 -47.8684,39.4338 -9.4259,7.0143 -18.3293,13.6392 -26.759,20.5393 -3.4972,2.8635 -7.055,5.7568 -10.6545,8.6839 -48.211,39.2023 -102.8533,83.6351 -124.1316,145.684 -9.9771,29.0991 -6.0856,60.1836 11.2525,89.8945 8.3303,14.2759 31.2276,47.8565 63.8467,51.3278 1.4005,0.149 2.7731,0.2205 4.119,0.2205 25.4032,0 40.9008,-25.5929 48.5547,-38.2339 8.9521,-14.8083 16.3617,-30.3942 23.527,-45.4677 5.877,-12.3629 11.4283,-24.0405 17.7274,-35.2443 21.5027,-38.218 44.9075,-58.0998 83.4672,-70.9116 l 3.6541,-1.2088 c 28.515,-9.4199 58.0005,-19.1597 78.8327,-49.981 6.5753,-9.6931 8.6849,-21.0806 10.3794,-30.2304 0.287,-1.5465 0.5642,-3.0483 0.8472,-4.4259 1.5862,-7.6132 6.322,-14.9602 11.5147,-17.8684 2.5874,-1.4472 4.8798,-1.5932 7.9271,-0.5006 3.0681,1.0985 6.2763,2.4384 9.6732,3.8578 2.8645,1.1969 5.8274,2.4334 8.8627,3.5906 29.3285,11.2445 56.7778,11.3955 81.59,0.4489 15.6178,-6.9011 28.0323,-18.0582 37.0053,-33.2339 24.4825,-5.2225 55.3435,7.4175 80.558,17.7493 42.1533,17.2944 77.9478,31.2335 115.6394,43.0591 79.9928,25.0377 159.9807,35.1727 237.7547,30.142 72.8902,-4.705 167.9793,-13.3661 257.0464,-38.7891 73.062,-20.8412 149.6351,-49.4248 240.9787,-89.9531 102.0607,-45.2621 202.7905,-100.6573 300.2029,-154.2279 102.91,-56.593 209.3231,-115.1129 317.4009,-161.7328 120.4626,-51.9605 230.3779,-83.3361 336.0222,-95.9175 46.6814,-5.5562 92.8414,-6.5504 135.7992,-6.7829 26.1442,1.3647 52.8117,3.6472 78.6063,5.8542 l 11.0419,0.9416 c 11.025,0.9495 22.7055,1.9994 35.7071,3.2092 l 7.7076,0.7171 1.9587,-1.4422 c 6.1541,-0.09 12.2278,0.046 17.5735,0.2076 l 38.9967,1.174 -22.4245,-34.2629 z"
             style="fill:#30026e"
             id="path4" />
          <path
             d="m 948.159,2659.1508 c -40.8102,-35.8862 -61.9222,-87.445 -99.8092,-125.711 -28.0129,-28.3096 -61.6651,-35.9976 -96.2937,-15.0209 -22.5861,13.6926 -32.4383,43.8144 -27.3363,69.0678 -16.6168,-14.8856 -31.4212,-31.4493 -34.9378,-54.5903 -4.4545,-29.2268 19.3901,-57.0512 40.3116,-79.8091 80.5024,-42.4376 190.1087,-22.6808 268.3386,19.3495 61.1904,32.8537 95.184,81.0281 102.8022,150.7195 3.1647,29.0383 2.2871,62.3001 -8.4989,90.5004 -50.3804,7.2257 -108.0385,-22.4093 -144.5764,-54.5059 z"
             style="fill:#9da6c9"
             id="path6" />
          <path
             d="m 1101.2343,2623.1563 c -5.9141,-54.0469 -27.7547,-95.1048 -65.7667,-126.1744 1.1784,4.7119 1.3138,9.4205 -0.027,14.0207 -3.4229,11.8 -10.5258,15.6445 -18.0253,24.3048 -14.2058,16.4253 16.0495,41.6784 27.5393,50.2024 10.988,8.145 49,33.9903 28.4835,49.7433 -4.9657,3.8164 -11.5564,4.9803 -16.3316,9.1756 -7.5381,6.6022 -8.2283,13.7488 -10.5841,22.4622 -1.4741,5.4404 -4.5441,10.6091 -10.5664,11.8281 -69.3249,14.2891 -114.0463,-72.1544 -146.9978,-117.5379 -19.743,-27.1739 -43.2889,-47.7976 -76.1311,-51.0706 12.5173,4.2484 24.4651,12.1519 35.5229,23.3294 37.887,38.266 58.999,89.8248 99.8092,125.711 36.5379,32.0966 94.196,61.7317 144.5764,54.5059 10.7861,-28.2003 11.6636,-61.4621 8.4989,-90.5004 z"
             style="opacity:0.5;mix-blend-mode:multiply;fill:#a7a4a4"
             id="path8" />
          <path
             d="m 723.3124,2586.1583 c 0.4737,0.4331 0.9338,0.893 1.4075,1.3283 -1.7042,-8.4448 -1.7042,-17.4299 -0.1468,-26.1734 -2.5994,8.4448 -3.5749,17.2685 -1.2607,24.8451 z"
             style="opacity:0.5;mix-blend-mode:multiply;fill:#a7a4a4"
             id="path10" />
          <path
             d="m 3465.5243,2298.5795 c 0.202,-0.2998 0.3238,-0.6236 0.4737,-0.9203 -12.18,-0.1634 -24.6015,-2.0323 -36.388,-4.3598 -0.7318,-0.1333 -1.5022,-0.2686 -2.2611,-0.4039 -69.758,-2.2205 -139.9751,-0.028 -209.2313,7.5235 -82.4751,9.0371 -161.8824,32.3665 -240.029,59.4321 -164.1161,56.8618 -316.3235,143.2751 -468.3818,225.9553 -156.7002,85.2243 -316.5515,165.4416 -488.7213,214.7269 -85.0881,24.3568 -180.8384,33.9374 -269.1089,36.5095 -83.5058,2.4331 -165.6457,-17.3766 -243.8058,-45.2533 -51.8794,-18.5094 -121.4344,-64.4111 -176.565,-35.6694 9.6638,-24.9534 9.312,-55.9407 8.6488,-80.0537 -0.014,-0.7589 -0.1905,-1.2992 -0.4351,-1.7073 -5.4643,32.1531 -3.3136,72.6406 -28.6719,93.6412 -5.8755,6.9842 -13.5458,12.5318 -23.7645,15.7247 -30.2824,9.5004 -58.4837,-17.1852 -88.5245,-10.6361 -20.2448,4.4119 -33.1119,18.4324 -40.4615,37.4571 -9.7138,25.1137 -14.0736,43.0307 -40.5396,54.9671 -18.296,8.2532 -38.7709,12.5287 -57.5114,19.8378 -56.6598,22.0562 -84.5895,85.4949 -106.3365,137.9982 -5.5872,13.4769 -20.757,56.6713 -45.4938,39.2706 -11.2847,-7.9565 -20.1344,-23.3824 -26.7658,-35.0221 -25.1834,-44.0863 -4.8439,-85.6836 24.9804,-120.6776 49.9733,-58.5922 117.5941,-97.6179 171.1527,-152.097 40.7311,-41.4367 40.7311,-106.8214 30.9621,-160.4081 -20.2177,-110.7462 -133.5488,-166.1454 -236.3906,-177.6487 -34.994,-3.8966 -70.9219,-0.9736 -103.7787,9.6076 -14.2194,5.1416 -28.0098,11.1775 -40.3501,19.8929 -9.8387,6.954 -22.5725,14.6941 -33.2097,23.9779 -6.9811,7.7681 -12.9889,16.2931 -17.7109,25.7372 11.013,-13.2325 23.3283,-24.3298 36.7253,-33.3138 -16.5783,18.9693 -30.3125,40.1065 -33.2618,65.6033 -4.7356,41.0549 39.2841,70.7157 64.7777,95.5338 41.9502,40.7582 50.1503,95.9689 27.6048,149.3672 -21.6106,51.1507 -71.5309,87.2253 -121.8415,106.6019 -11.3794,4.3848 -23.2076,7.1196 -35.0357,9.9886 -12.0415,2.8961 -38.8094,12.9639 -19.5265,-19.4328 11.2316,-18.8896 27.4716,-34.4256 37.9974,-53.8033 23.4262,-43.0307 21.5586,-86.3884 8.4719,-132.259 -16.672,-58.4598 -34.2622,-110.0425 -11.2181,-169.7203 20.1501,-52.1511 64.8194,-92.369 107.0516,-126.955 0.7704,-0.6236 0.5018,-2.0321 -0.5132,-1.2201 -37.5237,29.2299 -73.3433,61.8951 -98.1082,99.5688 1.3419,-25.1418 -25.0606,-48.3348 -0.3238,-75.671 8.5104,-9.4171 19.7982,-15.6695 31.313,-21.6221 -7.9035,3.4645 -16.1286,6.4679 -23.6,10.3374 -17.5787,9.1475 -28.8364,23.6812 -33.8687,40.8652 -0.0833,2.8693 0.1603,5.7123 0.7974,8.5002 3.4645,15.0209 21.367,36.8595 16.7782,52.2313 -10.811,19.3526 -18.5927,40.0024 -22.2175,62.1117 -27.229,-12.205 -37.378,-66.4405 -45.3481,-91.1771 -16.6168,-51.4755 -26.5357,-105.0092 -35.9945,-158.161 -16.6585,-93.7242 -29.6203,-188.9883 -69.3364,-276.3503 -34.561,-76.0226 -88.3247,-141.3552 -153.9529,-192.5861 -63.8575,-49.8255 -149.5973,-39.9212 -222.3315,-17.9441 48.0797,-33.37 98.4601,-60.5678 154.7243,-80.6763 81.8682,-29.2569 168.3784,-48.6897 254.1983,-61.8152 181.3964,-27.741 361.0459,-8.3644 537.5297,38.2693 165.7519,43.7876 329.1115,110.69 502.2932,117.1589 85.4264,3.1926 176.8367,-4.06 259.8938,-24.7098 65.9135,-16.3732 135.4164,-21.569 199.8277,-43.6543 8.3084,-2.868 17.2789,-6.6563 24.1132,-12.5839 -10.8391,16.1036 -21.747,32.0165 -36.6982,43.1658 -52.4499,39.1344 -125.1561,46.9577 -187.8778,57.3753 -75.6023,12.5318 -151.0995,32.1528 -225.5098,50.3387 -139.3931,34.1019 -274.2131,81.76 -401.8062,147.8515 -61.6651,31.9095 -121.3793,68.4994 -178.391,108.1208 -30.3656,21.0818 -59.1073,44.5465 -88.2539,67.2522 -26.9292,20.9766 -56.9284,59.0552 -89.7165,68.2277 -0.787,0.2444 -1.5157,1.9759 -0.3269,1.6802 17.7942,-4.4131 31.9896,-15.8059 45.6853,-27.5528 27.7277,-23.7343 57.9018,-44.0874 87.3222,-65.6845 60.7427,-44.5985 124.5887,-85.06 190.5553,-121.5148 126.5115,-69.9347 262.5484,-119.7581 401.6011,-158.0553 72.4365,-19.945 145.5373,-37.6455 218.6505,-54.939 59.3509,-14.0455 120.3122,-20.325 178.0807,-40.7865 22.0156,-7.7648 46.4286,-17.5889 64.2624,-33.1254 15.6435,-13.6122 27.3893,-32.7181 40.3116,-48.7676 7.0363,-8.7436 17.889,-21.3524 29.1882,-29.2288 8.0919,-9.2037 18.4563,-14.5889 29.7972,-6.0359 13.4906,10.2041 16.8469,29.0654 32.8568,36.185 10.8777,4.8449 22.382,6.1972 33.6938,4.6815 -7.7265,-3.4645 -15.6018,-6.2253 -23.0181,-9.9855 37.8225,-19.8398 108.229,-43.494 97.9031,20.7851 -5.0052,31.0142 -22.4892,60.5676 -23.2461,92.2608 -0.8536,35.4261 15.6414,65.3316 34.9378,94.018 80.6242,119.8656 241.1928,167.7964 375.3517,193.1017 167.9152,31.6929 339.3812,26.0889 509.1504,38.4856 124.6585,9.0923 268.704,22.9494 360.439,113.5862 -8.1065,-0.4601 -16.2264,-0.8922 -24.3433,-1.3242 z"
             style="fill:#f05a29"
             id="path12" />
          <path
             d="m 3489.8676,2299.9037 c -91.7351,-90.6368 -235.7805,-104.4938 -360.439,-113.5862 -169.7692,-12.3968 -341.2351,-6.7927 -509.1504,-38.4856 -134.1589,-25.3052 -294.7275,-73.2361 -375.3517,-193.1017 -19.2964,-28.6865 -35.7915,-58.592 -34.9378,-94.018 0.7568,-31.6932 18.2408,-61.2466 23.2461,-92.2608 10.3259,-64.2791 -60.0806,-40.6249 -97.9031,-20.7851 7.4163,3.7602 15.2916,6.521 23.0181,9.9855 -11.3118,1.5157 -22.8161,0.1634 -33.6938,-4.6815 -16.0099,-7.1196 -19.3662,-25.9808 -32.8568,-36.185 -11.3409,-8.5531 -21.7054,-3.1678 -29.7972,6.0359 -11.2993,7.8764 -22.152,20.4853 -29.1882,29.2288 -12.9222,16.0495 -24.6681,35.1554 -40.3116,48.7676 -17.8338,15.5365 -42.2468,25.3606 -64.2624,33.1254 -57.7685,20.4616 -118.7299,26.741 -178.0807,40.7865 -73.1132,17.2935 -146.2139,34.994 -218.6505,54.939 -139.0527,38.2972 -275.0896,88.1206 -401.6011,158.0553 -65.9666,36.4548 -129.8126,76.9163 -190.5553,121.5148 -29.4204,21.5971 -59.5945,41.9502 -87.3222,65.6845 -13.6957,11.7469 -27.8911,23.1397 -45.6853,27.5528 -1.1888,0.2957 -0.4601,-1.4358 0.3269,-1.6802 32.7881,-9.1725 62.7873,-47.251 89.7165,-68.2277 29.1466,-22.7058 57.8882,-46.1705 88.2539,-67.2522 57.0117,-39.6214 116.7259,-76.2113 178.391,-108.1208 127.5931,-66.0915 262.4131,-113.7496 401.8062,-147.8515 74.4103,-18.1859 149.9075,-37.8069 225.5098,-50.3387 62.7217,-10.4175 135.4279,-18.2408 187.8778,-57.3753 14.9512,-11.1494 25.859,-27.0622 36.6982,-43.1658 -6.8343,5.9276 -15.8048,9.7159 -24.1132,12.5839 -64.4113,22.0853 -133.9142,27.2811 -199.8277,43.6543 -83.0571,20.6498 -174.4673,27.9023 -259.8938,24.7098 -130.0156,-4.8449 -254.5096,-43.7626 -378.6247,-81.4081 31.3421,19.0247 61.0425,43.95 81.3529,74.5873 21.6533,32.6934 21.342,64.9794 1.3554,98.4861 -31.8283,53.3421 -86.3498,84.8195 -140.937,110.8535 -28.9852,13.804 -58.5909,26.4407 -86.9422,41.5702 -36.9834,19.7045 -71.3955,44.8733 -105.5776,69.0397 -34.7744,24.5763 -69.2416,49.635 -104.7479,73.1549 -31.2474,20.6768 -63.8856,43.9229 -99.4199,56.563 -20.4072,7.2528 -44.6568,9.2566 -64.3728,-1.244 -19.2267,-10.2322 -32.8672,-27.7693 -42.6528,-46.9023 -26.5638,-51.8274 -31.8928,-110.7733 -52.3958,-164.765 -23.625,-62.1939 -58.6055,-121.0578 -104.2221,-169.6922 -43.2212,-46.0622 -96.8496,-85.6846 -158.7697,-101.8665 -65.7948,-17.212 -131.8832,-5.3069 -190.1785,27.9028 72.1659,-21.4087 156.6179,-30.502 219.7186,18.728 65.6282,51.2309 119.3919,116.5635 153.9529,192.5861 39.7161,87.3619 52.6779,182.6261 69.3364,276.3503 9.4587,53.1518 19.3776,106.6854 35.9945,158.161 7.9701,24.7366 18.119,78.9721 45.3481,91.1771 3.6248,-22.1093 11.4065,-42.759 22.2175,-62.1117 4.5888,-15.3718 -13.3137,-37.2104 -16.7782,-52.2313 -0.6371,-2.7879 -0.8807,-5.6309 -0.7974,-8.5002 5.0323,-17.184 16.2899,-31.7177 33.8687,-40.8652 7.4714,-3.8695 15.6966,-6.8728 23.6,-10.3374 -11.5148,5.9526 -22.8026,12.205 -31.313,21.6221 -24.7368,27.3363 1.6656,50.5292 0.3238,75.671 24.7649,-37.6736 60.5845,-70.3389 98.1082,-99.5688 1.015,-0.812 1.2836,0.5965 0.5132,1.2201 -42.2323,34.5859 -86.9016,74.8038 -107.0516,126.955 -23.0441,59.6778 -5.4539,111.2605 11.2181,169.7203 13.0867,45.8706 14.9543,89.2283 -8.4719,132.259 -10.5258,19.3776 -26.7658,34.9137 -37.9974,53.8033 -19.2829,32.3967 7.485,22.3289 19.5265,19.4328 11.8281,-2.8691 23.6562,-5.6038 35.0357,-9.9886 50.3106,-19.3766 100.2309,-55.4512 121.8415,-106.6019 22.5455,-53.3983 14.3453,-108.609 -27.6048,-149.3672 -25.4936,-24.818 -69.5134,-54.4789 -64.7777,-95.5338 2.9492,-25.4968 16.6835,-46.6339 33.2618,-65.6033 -13.3969,8.984 -25.7123,20.0814 -36.7253,33.3138 4.7221,-9.4442 10.7298,-17.9691 17.7109,-25.7372 10.6372,-9.2839 23.371,-17.0239 33.2097,-23.9779 12.3403,-8.7155 26.1307,-14.7513 40.3501,-19.8929 32.8568,-10.5812 68.7846,-13.5042 103.7787,-9.6076 102.8417,11.5033 216.1728,66.9025 236.3906,177.6487 9.769,53.5867 9.769,118.9714 -30.9621,160.4081 -53.5586,54.4791 -121.1794,93.5048 -171.1527,152.097 -29.8243,34.994 -50.1638,76.5913 -24.9804,120.6776 6.6313,11.6397 15.4811,27.0656 26.7658,35.0221 24.7368,17.4007 39.9066,-25.7937 45.4938,-39.2706 21.747,-52.5032 49.6766,-115.942 106.3365,-137.9982 18.7405,-7.309 39.2154,-11.5845 57.5114,-19.8378 26.466,-11.9364 30.8258,-29.8535 40.5396,-54.9671 7.3496,-19.0247 20.2167,-33.0452 40.4615,-37.4571 30.0408,-6.5491 58.2422,20.1365 88.5245,10.6361 10.2187,-3.1928 17.889,-8.7404 23.7645,-15.7247 25.3583,-21.0006 23.2076,-61.4881 28.6719,-93.6412 0.2446,0.4081 0.4216,0.9484 0.4351,1.7073 0.6631,24.113 1.015,55.1004 -8.6488,80.0537 55.1306,-28.7416 124.6856,17.16 176.565,35.6694 78.1601,27.8768 160.3,47.6864 243.8058,45.2533 88.2705,-2.5722 184.0208,-12.1527 269.1089,-36.5095 172.1698,-49.2852 332.0211,-129.5026 488.7213,-214.7269 152.0582,-82.6802 304.2657,-169.0936 468.3818,-225.9553 78.1466,-27.0656 157.5538,-50.3949 240.029,-59.4321 69.2562,-7.5516 139.4733,-9.744 209.2313,-7.5235 0.7589,0.1353 1.5293,0.2707 2.2611,0.4039 11.7865,2.3275 24.208,4.1964 36.388,4.3598 -0.1499,0.2967 -0.2717,0.6205 -0.4737,0.9203 8.1169,0.432 16.2369,0.8641 24.3433,1.3242 z m -2082.9063,232.1005 c -55.0889,-0.8932 -105.361,-38.4304 -117.4025,-93.2091 -13.2502,-60.243 12.2331,-126.0347 47.2406,-174.4257 36.4119,-50.3387 84.248,-90.3932 130.1749,-131.694 -64.9932,21.436 -124.2639,57.5387 -177.3354,100.4362 -31.5711,25.5217 -61.4215,53.0985 -89.7165,82.193 -22.2738,22.921 -45.2117,46.3337 -74.4384,60.3513 -26.416,12.6922 -55.4689,17.4005 -84.5759,13.2606 -22.6922,-3.1928 -60.2847,-8.2001 -71.2321,-32.3134 -8.3219,-18.2942 0.6621,-37.9703 11.8396,-52.9631 20.3937,-27.3623 48.9864,-50.0951 76.0375,-70.5283 60.7448,-45.8738 127.9971,-81.7881 191.7463,-123.1417 -38.3742,8.6884 -74.884,23.7333 -109.4731,42.4374 -35.3459,19.133 -71.4621,40.0263 -103.8036,63.9761 -22.3956,16.5929 -43.2608,35.3209 -66.9951,50.042 -17.0103,10.582 -39.1894,23.8696 -59.9609,17.2133 -1.3544,-0.432 -1.2721,-2.2195 -0.7173,-3.1928 32.0833,-56.8899 93.7765,-94.1284 146.8479,-129.1495 53.2765,-35.1304 109.014,-67.1721 168.1067,-91.4217 5.8058,-2.868 11.6543,-5.6559 17.5517,-8.3084 27.3748,-13.2085 55.6563,-24.6015 84.9413,-32.8297 4.0985,-1.136 8.2283,-2.2195 12.3549,-3.2751 20.4186,-6.6844 40.8654,-13.2616 61.055,-20.2698 41.2183,-14.3172 82.9103,-27.1978 124.7522,-39.5946 42.6653,-12.6118 85.0475,-26.7926 128.1605,-37.8337 42.734,-10.9089 85.9948,-19.5411 129.189,-28.3929 33.9936,-6.9811 66.9701,-17.077 100.7857,-24.6265 14.0205,-3.1397 29.3787,-6.496 44.738,-7.9035 10.4862,-3.1127 20.8267,-6.7396 30.8778,-11.0963 25.9819,-11.2576 54.7652,-25.0335 73.3443,-47.0637 11.0827,-13.1273 23.193,-31.6367 39.231,-39.2414 11.393,-5.4123 23.7749,2.5162 24.7337,15.1282 2.8961,38.0786 -30.7696,79.9205 -54.2873,105.9823 -16.8615,18.6731 -35.4542,35.4261 -55.1972,50.7179 -20.3801,25.0616 -48.1078,45.6281 -72.803,64.9526 -45.0201,35.2647 -88.9045,71.2591 -128.8122,112.4223 -52.935,54.5892 -103.8703,114.3729 -142.0842,180.3814 -30.9611,53.4503 -57.1585,110.4764 -95.2506,159.4599 -33.7084,43.3295 -81.3696,84.4958 -139.6232,83.5203 z m 805.4498,-99.1097 c -104.3335,101.9777 -243.7933,168.6917 -387.8138,190.2888 -33.1264,4.9532 -66.6703,7.8212 -100.1621,8.1731 -24.0331,0.2436 -53.8303,-0.7591 -72.5313,-18.3241 -22.1655,-20.757 -22.991,-53.6669 -19.9065,-81.9765 3.8299,-35.1825 11.9635,-70.4201 24.3704,-103.5174 31.8959,-85.1175 83.2486,-161.8439 144.8335,-229.2877 58.619,-80.2442 135.0479,-148.9851 208.1341,-214.2636 25.2105,-22.5174 78.3922,-65.3867 107.2671,-24.4654 25.7653,36.51 22.4091,85.0082 39.9878,124.8709 46.4838,105.5247 165.2387,241.573 55.8208,348.5018 z"
             style="opacity:0.2;mix-blend-mode:multiply;fill:#27353c"
             id="path14" />
          <path
             d="m 609.3077,2562.6936 c 3.6248,-22.1093 11.4065,-42.759 22.2175,-62.1117 4.5888,-15.3718 -13.3137,-37.2104 -16.7782,-52.2313 -0.6371,-2.7879 -0.8807,-5.6309 -0.7974,-8.5002 5.0323,-17.184 16.2899,-31.7177 33.8687,-40.8652 4.2089,-2.1653 8.6457,-4.085 13.1523,-5.9536 9.2568,-19.0528 26.3473,-33.3169 40.4896,-49.7172 -66.9306,4.7356 -87.7302,67.0909 -101.4895,124.5742 -0.5715,2.3558 -3.4114,3.8997 -5.5237,2.5724 -47.1574,-29.7421 -46.8877,-100.5692 -47.833,-149.744 -0.5819,-30.3386 0.2551,-60.8947 -6.4689,-90.6649 -9.4587,-41.9751 -26.8345,-81.0846 -41.3536,-121.3826 -26.7928,-74.4798 -53.6003,-159.2962 -111.8955,-215.9425 -26.3754,-25.654 -56.943,-42.7871 -90.8148,-54.507 2.8961,1.9486 5.7652,4.0079 8.5947,6.1993 65.6282,51.2309 119.3919,116.5635 153.9529,192.5861 39.7161,87.3619 52.6779,182.6261 69.3364,276.3503 9.4587,53.1518 19.3776,106.6854 35.9945,158.161 7.9701,24.7366 18.119,78.9721 45.3481,91.1771 z"
             style="opacity:0.2;mix-blend-mode:multiply;fill:#27353c"
             id="path16" />
          <path
             d="m 1436.0548,1922.1473 c -75.1703,36.9418 -159.081,53.8282 -229.1763,100.6493 47.3062,-17.5371 95.1423,-33.6136 143.4386,-48.0932 69.9995,-25.9257 141.6241,-47.5228 214.5218,-65.3597 74.4103,-18.1859 149.9075,-37.8069 225.5098,-50.3387 62.7217,-10.4175 135.4279,-18.2408 187.8778,-57.3753 14.9512,-11.1494 25.859,-27.0622 36.6982,-43.1658 -6.8343,5.9276 -15.8048,9.7159 -24.1132,12.5839 -64.4113,22.0853 -133.9142,27.2811 -199.8277,43.6543 -83.0571,20.6498 -174.4673,27.9023 -259.8938,24.7098 -12.4496,-0.4601 -24.818,-1.3255 -37.1729,-2.3808 12.5849,35.0742 -28.3617,70.6356 -57.8622,85.1162 z"
             style="opacity:0.2;mix-blend-mode:multiply;fill:#27353c"
             id="path18" />
          <path
             d="m 1294.0237,2339.6896 c 17.7141,-49.7466 45.1419,-96.9443 79.2157,-137.7837 -30.9892,22.4091 -60.3128,46.7118 -84.5874,76.4289 -28.7552,35.1814 -59.2978,83.436 -42.0438,130.4466 9.1735,25.0085 26.062,45.5781 43.9094,65.2514 -17.3872,-41.7586 -12.0696,-90.6087 3.5062,-134.3431 z"
             style="opacity:0.2;mix-blend-mode:multiply;fill:#27353c"
             id="path20" />
          <path
             d="m 1393.2125,2187.8583 c -23.9779,25.8486 -45.4948,54.9671 -63.0174,86.0365 2.1508,-3.2449 4.3567,-6.4127 6.6043,-9.5254 30.1606,-41.6784 68.1444,-76.2925 106.3854,-110.4214 -16.5887,11.3409 -33.4085,22.4643 -49.9723,33.9103 z"
             style="opacity:0.2;mix-blend-mode:multiply;fill:#27353c"
             id="path22" />
          <path
             d="m 1036.0225,2216.3834 c -22.3956,16.5929 -43.2608,35.3209 -66.9951,50.042 -17.0103,10.582 -39.1894,23.8696 -59.9609,17.2133 -0.5007,-0.1634 -0.7454,-0.5153 -0.9057,-0.9205 -13.9404,14.9931 -27.2394,30.6095 -39.7859,46.794 57.8914,-11.096 108.4602,-38.6741 156.9167,-70.8789 10.6091,-8.932 21.544,-17.4299 32.2613,-25.5217 60.7448,-45.8738 127.9971,-81.7881 191.7463,-123.1417 -38.3742,8.6884 -74.884,23.7333 -109.4731,42.4374 -35.3459,19.133 -71.4621,40.0263 -103.8036,63.9761 z"
             style="opacity:0.2;mix-blend-mode:multiply;fill:#27353c"
             id="path24" />
          <path
             d="m 940.217,2942.808 c 10.556,-22.4362 22.6808,-42.7611 38.9728,-61.4621 29.5932,-33.9384 64.2208,-62.8154 95.3599,-95.2933 26.1026,-27.1978 52.3812,-57.9705 64.2895,-94.397 10.8943,-33.345 11.3263,-69.1511 0.014,-102.493 -21.1651,-62.4908 -73.3433,-112.8023 -133.0325,-139.2713 -23.4376,-10.3925 -48.4711,-17.2373 -73.8981,-21.569 83.3007,23.2492 160.4885,76.5913 176.8232,166.0923 9.769,53.5867 9.769,118.9714 -30.9621,160.4081 -53.5586,54.4791 -121.1794,93.5048 -171.1527,152.097 -29.8243,34.994 -50.1638,76.5913 -24.9804,120.6776 6.6313,11.6397 15.4811,27.0656 26.7658,35.0221 5.8058,4.0871 11.0827,4.7916 15.8329,3.3563 -25.8049,-29.1747 3.045,-95.6972 15.9683,-123.1677 z"
             style="fill:#9da6c9"
             id="path26" />
          <path
             d="m 680.7688,2528.2711 c 2.9492,-25.4968 16.6835,-46.6339 33.2618,-65.6033 -13.3969,8.984 -25.7123,20.0814 -36.7253,33.3138 4.7221,-9.4442 10.7298,-17.9691 17.7109,-25.7372 10.6372,-9.2839 23.371,-17.0239 33.2097,-23.9779 4.2338,-3.0044 8.7019,-5.5757 13.247,-8.0401 -32.7881,10.6926 -66.4548,28.4181 -83.3153,59.3521 -23.5865,43.3295 -5.0084,88.4194 14.2225,129.2858 28.7416,61.028 44.8151,134.2078 5.6809,195.2108 -17.2123,26.848 -50.5959,63.2474 -86.1166,69.9069 4.7502,3.7329 17.1467,-0.4882 24.3298,-2.2195 11.8281,-2.8691 23.6562,-5.6038 35.0357,-9.9886 50.3106,-19.3766 100.2309,-55.4512 121.8415,-106.6019 22.5455,-53.3983 14.3453,-108.609 -27.6048,-149.3672 -25.4936,-24.818 -69.5134,-54.4789 -64.7777,-95.5338 z"
             style="fill:#9da6c9"
             id="path28" />
          <path
             d="m 1578.4523,2785.7809 c -38.6605,-15.7215 -76.9025,-33.1254 -116.932,-45.195 -19.8763,-5.9807 -39.7161,-10.7444 -60.3513,-13.0172 -12.0551,-1.3271 -28.1597,-2.1911 -38.1202,-10.1508 -5.9141,-4.7086 -10.9599,-9.7409 -13.5437,-17.0499 -2.7483,-7.7673 -4.3171,-15.5602 -9.2974,-22.1093 0.61,23.7895 0.6767,53.6398 -8.7019,77.8613 55.1306,-28.7416 124.6856,17.16 176.565,35.6694 78.1601,27.8768 160.3,47.6864 243.8058,45.2533 5.1552,-0.1632 10.327,-0.3267 15.5092,-0.5151 -64.3041,-9.1768 -127.743,-25.9017 -188.9334,-50.7468 z"
             style="fill:#9da6c9"
             id="path30" />
          <path
             d="m 1338.0018,2675.6874 c -13.017,-13.5054 -31.6242,-25.0616 -50.8124,-16.5648 -18.9175,8.3636 -34.0467,26.2807 -40.0409,45.93 -3.6415,11.9333 -6.1962,24.7889 -13.1523,35.3428 -5.0219,7.6068 -14.5192,10.8277 -23.1409,8.2001 -10.5008,-3.2199 -17.8203,-5.6809 -28.4564,0.5432 -7.8098,4.5453 -14.9543,10.2564 -19.3516,18.3493 -6.4825,11.9603 -9.2287,25.3854 -14.6555,37.7819 -6.2524,14.3162 -14.4775,27.0094 -25.8871,37.7257 -22.7995,21.3806 -55.8312,26.874 -79.2407,47.3073 -3.5999,3.1397 -7.2278,6.7396 -10.7861,10.608 8.4302,-6.3044 17.6173,-11.6087 27.7683,-15.5602 18.7405,-7.309 39.2154,-11.5845 57.5114,-19.8378 26.466,-11.9364 30.8258,-29.8535 40.5396,-54.9671 7.3496,-19.0247 20.2167,-33.0452 40.4615,-37.4571 30.0408,-6.5491 58.2422,20.1365 88.5245,10.6361 10.2187,-3.1928 17.889,-8.7404 23.7645,-15.7247 24.6265,-20.4051 23.3158,-59.1595 28.2263,-90.8252 -0.405,-0.4872 -0.7985,-1.0004 -1.2721,-1.4876 z"
             style="fill:#9da6c9"
             id="path32" />
          <path
             d="m 1971.7305,1990.2396 c -60.1629,54.507 -120.7442,108.6059 -175.8061,168.3919 -57.172,62.0565 -100.9346,131.7468 -144.4671,203.5994 -28.8915,47.6872 -51.9096,98.1092 -79.4208,146.5523 -28.8499,50.8259 -64.4259,107.4722 -126.9029,116.8893 -1.9488,0.2967 -4.7367,4.9522 -1.5824,4.9803 46.1319,0.5955 83.0186,-38.1338 109.2846,-71.7755 35.9945,-46.1424 59.7423,-100.1892 86.7798,-151.6647 40.2699,-76.6714 88.9597,-152.2623 144.5473,-218.6757 58.4733,-69.8265 127.31,-130.1778 194.4956,-191.3411 6.699,-6.1171 -0.3238,-12.9368 -6.928,-6.9561 z"
             style="fill:#30026e"
             id="path34" />
          <path
             d="m 1218.258,2129.8066 c -68.744,28.3898 -128.0116,72.5875 -188.3109,115.2934 -69.3385,49.1478 -163.8447,121.9227 -251.9091,84.4656 -1.6937,-0.7037 -4.3452,2.4912 -2.4256,3.5197 77.4043,41.5421 157.38,-8.5 220.3827,-54.3717 72.4241,-52.7216 139.5545,-110.2049 222.4263,-146.5512 1.2992,-0.5684 1.6896,-3.1116 -0.1634,-2.3558 z"
             style="fill:#30026e"
             id="path36" />
          <path
             d="m 1458.8959,2129.538 c -63.8294,41.3516 -119.5668,91.582 -155.5634,159.3777 -19.0778,35.9133 -32.328,77.2148 -36.9949,117.5931 -3.9663,34.2903 14.8981,66.0634 19.6629,98.5132 1.2305,4.2765 2.4329,8.552 3.5832,12.8566 1.0556,-27.6059 -11.2712,-54.3186 -14.4359,-82.4647 -4.7252,-41.9772 12.4736,-87.3909 28.8884,-125.2529 32.2332,-74.3968 92.5044,-129.9323 156.0516,-177.7549 1.8811,-1.4075 1.3138,-4.4673 -1.192,-2.868 z"
             style="fill:#30026e"
             id="path38" />
          <g
             id="g48">
            <path
               d="m 1317.8923,2747.3786 c -9.0507,22.3008 -30.2574,34.7502 -47.3343,27.8214 -17.0905,-6.928 -23.5865,-30.6613 -14.5327,-52.9631 9.0684,-22.3008 30.2574,-34.7494 47.3489,-27.8214 17.0905,6.954 23.5865,30.6623 14.5181,52.9631 z"
               style="fill:#ffffff"
               id="path40" />
            <path
               d="m 1312.658,2748.2458 c -6.064,14.9106 -20.2448,23.2461 -31.6659,18.5904 -11.4346,-4.625 -15.7767,-20.4851 -9.7159,-35.3977 6.064,-14.9127 20.2302,-23.2492 31.6648,-18.621 11.4211,4.6557 15.7778,20.5167 9.7169,35.4284 z"
               style="fill:#161615"
               id="path42" />
            <path
               d="m 1290.7892,2725.6462 c -3.3698,8.2803 -11.2462,12.9087 -17.5923,10.3395 -6.3607,-2.5713 -8.7685,-11.3951 -5.3988,-19.7045 3.3698,-8.2803 11.2462,-12.9087 17.5923,-10.3363 6.3607,2.5963 8.7685,11.393 5.3988,19.7014 z"
               style="fill:#ffffff"
               id="path44" />
            <path
               d="m 1282.8462,2756.6874 c -1.244,3.0593 -4.1402,4.7648 -6.4679,3.8164 -2.3423,-0.9452 -3.2209,-4.1932 -1.9904,-7.253 1.2451,-3.0312 4.1266,-4.7354 6.4689,-3.7881 2.3277,0.9484 3.2199,4.1964 1.9894,7.2247 z"
               style="fill:#ffffff"
               id="path46" />
          </g>
          <g
             id="g58">
            <path
               d="m 623.6103,2420.1493 c -5.3602,17.5902 -1.4741,33.6667 8.6603,35.9143 10.1489,2.2195 22.7058,-10.2041 28.065,-27.7943 5.3467,-17.5923 1.4606,-33.6688 -8.6738,-35.9133 -10.1354,-2.2476 -22.7058,10.201 -28.0514,27.7933 z"
               style="fill:#ffffff"
               id="path50" />
            <path
               d="m 625.4779,2422.7464 c -3.5718,11.7482 -0.9754,22.5174 5.8037,24.0052 6.7812,1.4907 15.1698,-6.8179 18.7561,-18.5927 3.5863,-11.7732 0.9869,-22.5174 -5.7923,-24.03 -6.7791,-1.4918 -15.1813,6.8447 -18.7676,18.6174 z"
               style="fill:#161615"
               id="path52" />
            <path
               d="m 644.1237,2416.9294 c -2.0008,6.5491 -0.5403,12.5287 3.2199,13.3407 3.7633,0.8401 8.4302,-3.7602 10.4342,-10.3113 1.9904,-6.5491 0.5403,-12.5298 -3.2199,-13.3699 -3.7748,-0.8359 -8.4448,3.8164 -10.4342,10.3405 z"
               style="fill:#ffffff"
               id="path54" />
            <path
               d="m 634.6785,2439.6071 c -0.7308,2.4087 -0.202,4.6003 1.1784,4.9272 1.3939,0.2967 3.1116,-1.4075 3.8435,-3.8154 0.7287,-2.3839 0.202,-4.5763 -1.192,-4.9001 -1.3794,-0.2967 -3.0981,1.4075 -3.8299,3.7883 z"
               style="fill:#ffffff"
               id="path56" />
          </g>
          <path
             d="m 1017.5266,2601.7476 c -13.9404,-12.0447 -28.5012,-22.4372 -40.9497,-36.1579 -14.1007,-15.5061 -25.5738,-33.1535 -39.3091,-48.9833 -9.2557,-10.6926 -18.0659,-19.5681 -28.1201,-26.3889 -0.0281,-0.053 -0.0146,-0.1083 -0.0416,-0.1353 -9.2287,-8.957 -29.3236,-24.6546 -41.1631,-10.9339 -1.0556,1.217 -1.8405,2.5172 -2.4495,3.8445 -6.6573,12.7453 1.4606,35.9663 7.6734,49.8505 9.9189,22.1653 23.776,42.8423 38.8104,61.7598 21.7709,27.4162 45.6552,59.431 76.7932,76.4008 14.262,7.7671 39.0124,7.8233 48.6314,-7.8493 15.5362,-25.3021 0.1228,-44.1134 -19.8752,-61.4069 z"
             style="fill:#30026e"
             id="path60" />
          <path
             d="m 1018.6874,2667.0792 c -8.6988,1.0285 -16.8053,-0.3519 -24.3162,-4.2205 -21.1224,-8.7163 -37.0501,-29.9865 -51.3798,-46.8469 -16.1577,-19.0528 -32.8162,-36.0499 -46.767,-56.9711 -5.8058,-8.7404 -24.3568,-37.9695 -27.7683,-59.3509 -0.405,-5.4675 -0.1197,-11.0963 1.421,-15.5334 0.203,-0.5952 0.5018,-1.0554 0.7985,-1.5155 0.3519,-0.5434 0.8536,-1.0038 1.2992,-1.4887 0.5965,-0.4872 1.2721,-0.8672 2.0425,-1.1108 37.1063,11.4763 56.4162,40.5968 79.2167,71.0424 12.9222,17.2656 26.9563,32.2866 43.696,45.9 9.2807,7.5235 18.4428,14.8315 26.9542,23.2482 15.3332,14.0205 13.6156,29.6338 -5.1968,46.8471 z"
             style="fill:#30026e"
             id="path62" />
          <path
             d="m 869.9573,2490.3528 c 12.79,-7.3881 28.4731,13.829 34.3455,21.7584 10.0688,13.6405 18.6593,28.1212 31.0027,39.866 11.8812,11.3399 84.8976,72.2877 91.1219,106.8768 11.1379,-13.9924 10.3124,-26.8772 -2.5432,-38.622 -8.5114,-8.4167 -17.6735,-15.7247 -26.9542,-23.2482 -16.7397,-13.6135 -30.7737,-28.6344 -43.696,-45.9 -22.8005,-30.4456 -42.1105,-59.5661 -79.2167,-71.0424 -0.7704,0.2436 -1.446,0.6236 -2.0425,1.1108 -0.4456,0.4849 -0.9473,0.9452 -1.2992,1.4887 -0.2967,0.4601 -0.5955,0.9203 -0.7985,1.5155 -0.7704,2.2174 -1.2305,4.7367 -1.446,7.3884 0.5257,-0.38 0.9588,-0.8391 1.5261,-1.192 z"
             style="mix-blend-mode:multiply;fill:#7b7a79"
             id="path64" />
          <path
             d="m 1070.7469,2546.0518 c -20.8934,-18.4326 -43.1942,-32.5851 -62.5853,-52.9101 -23.2065,-24.3329 -47.6862,-46.8752 -81.2998,-54.5632 -0.9754,-0.2155 -2.1539,0.5965 -2.9794,1.6521 -3.0846,1.2721 -5.709,4.3286 -7.765,9.6888 -6.294,16.265 24.1414,42.9225 32.5164,52.7464 22.4892,26.4141 46.184,51.4508 71.8546,74.8051 14.6274,13.2887 31.5441,26.848 51.1653,31.313 10.4196,2.3829 21.569,-5.0885 24.0466,-15.3728 4.8304,-20.1615 -11.0297,-35.0461 -24.9534,-47.3593 z"
             style="fill:#30026e"
             id="path66" />
          <path
             d="m 1061.4495,2597.5544 c -8.4167,-3.8164 -15.8996,-9.6911 -23.1794,-15.3197 -10.6924,-8.2283 -20.1511,-17.9171 -30.0971,-27.0094 -19.4994,-17.8338 -36.9001,-37.9703 -54.1551,-57.9434 -6.5876,-7.6047 -13.1919,-15.1844 -19.8763,-22.6808 -4.1287,-4.7367 -7.6182,-9.9053 -10.4748,-15.5061 0.8526,-6.9832 2.3964,-11.5033 4.5607,-13.7238 40.2179,14.8325 63.1818,46.1465 93.9514,74.5082 21.7054,20.0002 62.425,33.8291 68.311,66.2789 4.8304,26.6575 -22.0843,14.5608 -29.0404,11.3961 z"
             style="fill:#30026e"
             id="path68" />
          <path
             d="m 940.1889,2460.1756 c 29.7306,9.2037 40.5698,44.6547 65.0494,61.6515 17.0624,11.8281 79.3906,45.0347 84.8445,75.7522 1.0691,-2.5963 1.3408,-6.2524 0.407,-11.4211 -5.886,-32.4498 -46.6056,-46.2787 -68.311,-66.2789 -30.7696,-28.3617 -53.7335,-59.6757 -93.9514,-74.5082 -2.1643,2.2205 -3.7081,6.7406 -4.5607,13.7238 0.3935,0.7847 0.9057,1.4887 1.3408,2.2726 2.9211,-2.6515 7.6984,-3.4916 15.1813,-1.192 z"
             style="mix-blend-mode:multiply;fill:#7b7a79"
             id="path70" />
          <path
             d="m 1109.3939,2661.9386 c -0.9067,-0.9484 -2.3007,-0.3248 -3.248,0.7037 -13.3699,-2.9242 -26.9573,-10.7173 -38.7303,0.9203 -10.1729,10.0407 -5.3425,22.6774 4.3983,31.0142 7.8899,6.7677 22.4091,17.4286 32.3967,8.6072 5.5622,-4.9272 8.0648,-12.56 9.0403,-19.7284 0.8932,-6.5241 0.9453,-16.4016 -3.857,-21.5169 z"
             style="fill:#30026e"
             id="path72" />
          <path
             d="m 1102.0047,2698.9085 c -6.2659,7.0633 -21.8407,-6.3078 -26.4545,-10.2572 -8.8102,-7.5516 -11.8281,-18.9446 0.1072,-25.0085 5.1166,-2.5724 12.4767,0.028 17.5787,1.244 4.1131,0.9754 8.12,2.0319 12.2997,2.2205 1.6656,10.7715 4.6284,22.5725 -3.5312,31.8012 z"
             style="fill:#30026e"
             id="path74" />
          <path
             d="m 1107.2015,2678.5825 c -0.3664,-3.8435 -1.0837,-7.7119 -1.6656,-11.4752 -4.1797,-0.1886 -8.1866,-1.2451 -12.2997,-2.2205 -5.1021,-1.2161 -12.4621,-3.8164 -17.5787,-1.244 -8.1856,4.1683 -9.3359,10.8246 -6.3981,17.052 11.0817,-2.1122 26.061,-2.2476 37.9422,-2.1122 z"
             style="mix-blend-mode:multiply;fill:#7b7a79"
             id="path76" />
          <path
             d="m 732.311,2628.5967 c -13.5167,-13.5333 -26.7106,-26.8491 -39.1456,-41.4348 -24.2767,-28.4731 -27.6465,-55.5626 -14.414,-90.18 0.7037,-1.8642 -1.8124,-1.5124 -2.3392,-0.1601 -9.7023,24.6286 -13.8841,47.7393 -7.2414,73.6681 7.9847,31.1495 35.983,54.7774 57.3646,76.5913 23.5032,24.005 35.018,54.939 37.6455,87.9572 3.8966,48.9302 -35.5093,88.4975 -70.4222,116.7811 -1.5407,1.2448 -1.0816,3.9778 1.0275,2.4891 49.8536,-35.5093 81.736,-84.7925 80.7075,-147.4715 -0.5018,-29.9857 -23.1826,-58.2151 -43.1827,-78.2403 z"
             style="fill:#ffffff"
             id="path78" />
          <path
             d="m 1074.3718,2768.4602 c -44.3716,44.1147 -98.1467,77.4597 -141.3138,122.9264 -38.6324,40.7017 -55.9145,85.9803 -39.3497,140.379 0.2967,1.0035 2.029,-0.2436 1.879,-1.0275 -22.382,-117.3505 111.679,-190.1785 181.0185,-260.0302 2.029,-2.056 -0.177,-4.2765 -2.234,-2.2478 z"
             style="fill:#ffffff"
             id="path80" />
          <path
             d="m 1224.6728,2763.8601 c -19.4599,4.1953 -43.7761,0.5434 -57.9569,17.889 -7.6463,9.3638 -11.2878,19.2964 -16.1317,30.2571 -9.8908,22.382 -28.6865,38.0538 -50.0951,48.7982 -0.6236,0.3238 -0.8922,1.5959 0.08,1.217 19.921,-8.1452 35.2522,-19.7295 48.0391,-37.1031 6.9978,-9.4723 10.8943,-20.8684 15.4946,-31.5576 11.1098,-25.8455 40.298,-19.513 60.3513,-26.5245 1.3002,-0.4318 2.3142,-3.4362 0.2186,-2.9761 z"
             style="fill:#ffffff"
             id="path82" />
          <path
             d="m 704.7884,2354.7095 c -16.0484,20.8663 -47.174,17.0499 -64.4529,36.7513 -1.8405,2.1112 0.0416,3.9796 2.1362,2.1674 19.0143,-16.5367 48.3795,-16.8365 63.5472,-38.3784 0.7454,-1.0556 -0.61,-1.3273 -1.2305,-0.5403 z"
             style="fill:#9da6c9"
             id="path84" />
          <path
             d="m 2449.5846,2599.9873 c -140.5154,90.0694 -302.5612,155.0762 -464.4988,193.9949 -81.8932,19.6764 -162.9911,32.1801 -247.4171,27.3363 -83.4787,-4.7918 -167.7277,-23.0329 -246.7415,-49.8265 -1.2055,-0.4039 -2.9648,1.9236 -1.6105,2.4089 76.3071,26.9844 155.6862,44.2498 236.0772,53.1818 84.0606,9.3651 166.8762,-3.2751 248.354,-23.5448 166.211,-41.3266 333.0216,-108.0656 476.2551,-202.602 0.6767,-0.4601 0.4081,-1.4887 -0.4185,-0.9484 z"
             style="fill:#9da6c9"
             id="path86" />
          <path
             d="m 532.5655,2283.0703 c -9.9043,-71.5558 -28.0369,-142.2195 -55.5064,-209.0699 -22.991,-55.9394 -43.951,-115.0748 -81.5726,-163.166 -37.2104,-47.606 -95.5338,-89.5833 -153.6822,-106.0648 -1.6094,-0.4601 -3.9767,2.6244 -2.1778,3.1678 59.1208,17.4018 112.7877,59.7556 152.1936,106.5496 40.5146,48.1195 61.3278,114.642 84.5624,172.2335 28.2399,69.9881 43.0859,144.7117 52.7747,219.299 8.7967,67.8238 18.5656,134.4826 45.0066,198.1621 0.2165,0.4882 1.1087,-0.1884 0.9203,-0.6475 -29.6203,-70.4753 -32.1645,-145.6872 -42.5186,-220.4639 z"
             style="fill:#9da6c9"
             id="path88" />
          <path
             d="m 1173.6834,2075.4641 c -34.6286,17.8078 -69.1344,35.8331 -102.8563,55.3461 -34.2091,19.7813 -60.2566,45.7103 -91.9641,68.4161 -0.5403,0.38 -0.3383,1.244 0.3269,0.7839 28.4845,-19.8367 54.3966,-41.8388 84.3438,-59.7027 36.3213,-21.6772 74.4135,-40.2148 110.8816,-61.6515 1.6625,-1.0004 1.6375,-4.4368 -0.7318,-3.1918 z"
             style="fill:#9da6c9"
             id="path90" />
          <path
             d="m 1481.1551,2125.8299 c -84.5312,60.8676 -172.4488,146.7927 -183.8834,255.7536 -0.1364,1.217 1.5428,0.5132 1.6625,-0.3238 16.3066,-107.4181 103.507,-187.1491 183.4129,-252.561 1.7874,-1.4353 1.244,-4.6013 -1.192,-2.8688 z"
             style="fill:#9da6c9"
             id="path92" />
          <g
             style="mix-blend-mode:screen"
             id="g168">
            <path
               d="m 2758.1549,2272.6226 c -0.7039,-3.273 -2.4222,-6.3326 -6.3354,-6.3326 -6.1967,-0.028 -12.1634,2.7075 -16.6419,6.9842 -2.5579,0.9723 -4.9943,2.868 -6.7818,4.3556 -5.7777,4.8449 -9.8106,16.0495 -3.3948,22.0049 6.7124,6.2245 17.5511,-0.5713 22.7474,-5.36 5.1269,-4.7356 12.0415,-14.1007 10.4064,-21.6523 z"
               style="fill:#32444e"
               id="path94" />
            <path
               d="m 2802.1998,2258.7135 c -7.5103,0 -16.4395,15.3728 -6.7261,15.3728 7.5104,0 16.4425,-15.3728 6.7261,-15.3728 z"
               style="fill:#32444e"
               id="path96" />
            <path
               d="m 2777.2466,2326.3728 c -19.4299,-0.6236 -36.7259,17.2935 -44.3305,33.6415 -2.2198,4.7887 -2.6517,13.749 3.844,15.7218 2.0147,0.5955 3.9768,0.8953 5.9278,1.0556 8.4027,3.304 20.555,-4.7606 26.3056,-9.5805 9.769,-8.172 16.373,-19.9169 16.2651,-32.8016 -0.028,-4.3567 -3.7358,-7.9003 -8.012,-8.0367 z"
               style="fill:#32444e"
               id="path98" />
            <path
               d="m 2879.6561,2274.5983 c -6.4933,0 -14.2198,13.2889 -5.817,13.2889 6.4932,0 14.2336,-13.2889 5.817,-13.2889 z"
               style="fill:#32444e"
               id="path100" />
            <path
               d="m 2548.3142,2196.6018 c -4.7367,-2.4643 -11.1379,-1.9478 -16.0765,-0.4872 -8.375,2.4631 -15.1708,6.5761 -21.8136,12.18 -5.8724,4.9522 -10.5945,12.1488 -12.1248,19.7282 -0.8391,4.1414 -0.5955,10.9893 3.2876,13.749 4.2234,3.0294 8.3771,3.3282 12.7484,2.4089 2.1914,0.837 4.6836,1.0004 6.9145,0.4872 15.9266,-3.7352 31.1495,-18.4045 32.6132,-35.2928 0.4737,-5.5206 -0.1915,-10.0126 -5.5487,-12.7734 z"
               style="fill:#32444e"
               id="path102" />
            <path
               d="m 2593.0908,2244.5577 c -8.6603,0 -18.9591,17.7276 -7.7546,17.7276 8.6613,0 18.9727,-17.7276 7.7546,-17.7276 z"
               style="fill:#32444e"
               id="path104" />
            <path
               d="m 2713.81,2204.3419 c -0.5424,-2.8149 -1.8291,-4.6274 -3.4635,-5.7912 0.1468,-1.1368 -0.1915,-2.2205 -1.4637,-3.0044 -4.6138,-2.8961 -11.393,-1.4608 -15.9266,0.8391 -7.4412,3.7893 -13.8956,11.9093 -14.7076,20.4332 -0.4487,4.7616 0.3904,8.7415 4.9251,11.1494 3.7602,2.004 8.7019,0.38 12.3538,-0.8651 8.5114,-2.843 20.1365,-13.0992 18.2825,-22.761 z"
               style="fill:#32444e"
               id="path106" />
            <path
               d="m 3089.6604,2244.6128 c -5.05,-5.252 -12.1946,-5.7642 -19.1892,-3.5197 -4.6138,-0.1333 -9.8523,2.1112 -13.7759,4.7918 -9.972,6.7646 -16.0078,18.2689 -16.5367,29.6338 -0.6621,13.9393 14.8742,12.5318 23.5594,8.1752 11.2733,-5.6309 21.0703,-14.4276 26.9844,-25.604 2.1362,-4.06 2.2996,-10.0126 -1.0421,-13.4771 z"
               style="fill:#32444e"
               id="path108" />
            <path
               d="m 3197.4689,2225.0197 c -7.8077,0 -17.078,15.9651 -6.9957,15.9651 7.7931,0 17.077,-15.9651 6.9957,-15.9651 z"
               style="fill:#32444e"
               id="path110" />
            <path
               d="m 2953.9056,2297.8196 c -2.0008,-8.9039 -10.5664,-12.0415 -18.9834,-9.5805 -6.7399,2.004 -13.452,6.4406 -18.2409,12.2599 -1.7072,1.8127 -3.2757,3.7084 -4.6697,5.6291 -5.3986,7.4444 -14.3695,26.8772 0.338,29.745 7.9317,1.5407 17.0244,-4.2232 23.0605,-8.608 8.2248,-5.9807 21.1096,-17.7526 18.4956,-29.4454 z"
               style="fill:#32444e"
               id="path112" />
            <path
               d="m 2929.3878,2211.1075 c -0.5681,-0.1887 -2.059,-1.1639 1.0559,0.9192 -2.6411,-1.7846 -4.7113,-2.5432 -7.9842,-1.9199 -3.5861,0.704 -6.848,2.76 -9.406,5.3043 -4.1542,4.1402 -9.6331,15.6695 -1.2027,18.8892 8.4969,3.2201 17.0077,-3.8162 20.4718,-11.1762 1.746,-3.7081 2.0038,-10.4459 -2.9349,-12.0165 z"
               style="fill:#32444e"
               id="path114" />
            <path
               d="m 3320.4888,2238.2249 c -4.3598,0 -8.3095,3.0869 -10.0157,7.0115 -1.3117,3.0044 -0.837,7.9284 3.4781,7.9284 4.3307,0 8.2938,-3.0596 10.0011,-6.9832 1.3106,-3.0044 0.8266,-7.9568 -3.4635,-7.9568 z"
               style="fill:#32444e"
               id="path116" />
            <path
               d="m 408.085,1726.3379 c -7.1029,-3.653 -15.2364,-1.8926 -21.7043,2.2476 -3.8549,2.461 -6.7791,5.8454 -9.39,9.5254 -2.1674,3.0315 -3.1949,6.3326 -4.1683,9.8241 -1.1358,4.06 0.5268,9.6357 4.8314,11.1525 9.3505,3.273 19.2548,-2.1122 24.615,-10.0688 1.649,-1.4077 3.2199,-2.9513 4.6669,-4.6003 4.1287,-4.7637 8.9736,-14.0726 1.1493,-18.0805 z"
               style="fill:#32444e"
               id="path118" />
            <path
               d="m 292.9967,1751.2381 c -4.9105,0 -10.7444,10.0407 -4.3973,10.0407 4.9136,0 10.7444,-10.0407 4.3973,-10.0407 z"
               style="fill:#32444e"
               id="path120" />
            <path
               d="m 350.2644,1747.53 c -3.1127,-0.407 -6.5356,1.0816 -9.2433,2.4089 0.1228,0.027 0.2446,0.052 0.3664,0.08 -6.699,2.9763 -13.1388,12.0447 -5.7371,16.7001 7.2112,4.517 18.7957,-4.7117 19.3776,-12.1248 0.2967,-3.655 -0.7599,-6.496 -4.7637,-7.0644 z"
               style="fill:#32444e"
               id="path122" />
            <path
               d="m 543.8929,1788.8564 c -3.9528,-1.9475 -8.4167,-2.5159 -12.7348,-1.6508 -6.9395,1.4356 -11.9614,5.9796 -17.1717,10.4196 -4.8304,4.1399 -10.811,16.3199 -4.2755,21.6499 2.9763,2.4633 5.8724,4.0071 9.8106,3.8437 4.0184,-0.1353 7.6599,-0.6205 11.2878,-2.5713 4.8158,-2.5692 8.7269,-5.4654 11.9468,-9.9574 1.192,-1.6802 2.0977,-3.5728 3.046,-5.3883 0.5403,-1.0275 0.8922,-2.1362 1.0556,-3.248 0.0385,-0.1322 0.1083,-0.2407 0.1333,-0.3769 1.5709,-4.7359 2.1924,-10.0959 -3.0981,-12.7205 z"
               style="fill:#32444e"
               id="path124" />
            <path
               d="m 656.5858,1706.7167 c -4.9105,0 -10.7444,10.0407 -4.3973,10.0407 4.9136,0 10.7444,-10.0407 4.3973,-10.0407 z"
               style="fill:#32444e"
               id="path126" />
            <path
               d="m 558.9273,1717.6526 c -0.2301,-2.816 -1.7468,-4.9803 -3.8445,-6.7677 -3.1647,-2.6796 -7.2247,-2.4641 -10.8912,-0.8641 -6.7677,2.976 -13.2356,9.9043 -14.8742,17.5087 -3.0846,2.436 -5.736,7.0084 -2.8961,10.1492 3.2345,3.5715 7.1477,4.0319 11.0578,2.9232 0.4747,-0.027 0.9734,0 1.4335,-0.1083 4.7637,-0.9203 9.8658,-4.6274 12.3018,-9.1204 h 0.0281 c 4.2869,-2.7348 8.1033,-8.5239 7.6848,-13.7207 z"
               style="fill:#32444e"
               id="path128" />
            <path
               d="m 797.4541,1715.4329 c -0.025,-0.7045 -0.4466,-1.3 -1.5168,-1.624 -1.2024,-0.4078 -1.5678,-1.5165 -3.0283,-1.705 -0.8536,-0.1103 -1.6656,-0.1634 -2.5162,-0.1634 -2.8441,-0.027 -5.482,0.9203 -8.0128,2.1372 -6.0744,2.8959 -10.988,7.6599 -14.9127,13.0721 -2.8149,3.8445 -3.8299,9.9324 1.0285,12.5318 11.8,6.2774 24.9252,-3.4387 29.6619,-14.236 1.3658,-3.1127 1.8541,-7.308 -0.7037,-10.0128 z"
               style="fill:#32444e"
               id="path130" />
            <g
               id="g136">
              <path
                 d="m 702.7178,1776.3247 c 0.4747,-2.6778 -0.7454,-4.3838 -3.3833,-4.8689 -0.6486,-0.1364 -1.3523,-0.1083 -2.056,-0.083 -3.5593,-2.5976 -8.8383,-0.837 -12.1113,1.4075 -4.6419,3.1928 -7.3881,7.8483 -7.688,13.425 -0.2436,4.6555 4.6981,7.2799 8.7967,6.2763 0.6236,-0.1603 1.2586,-0.4039 1.8811,-0.6486 -0.5288,0.1882 -1.0556,0.4081 -1.6094,0.5403 0.812,-0.1884 1.5824,-0.5122 2.3527,-0.812 1.1503,-0.5122 2.2757,-1.1607 3.3563,-1.9478 -0.1333,0.1353 -0.2686,0.2988 -0.405,0.4351 -0.7454,0.5122 -1.5293,0.9452 -2.3413,1.2971 3.1116,-1.3523 5.7912,-3.5999 7.7535,-6.4408 0.5819,-0.8651 1.1368,-1.8405 1.5969,-2.9242 1.5428,-0.7287 3.045,-2.2726 3.3833,-3.2199 0.1749,-0.4851 0.812,-4.3567 0.4737,-2.436 z"
                 style="fill:#32444e"
                 id="path132" />
              <path
                 d="m 688.157,1791.8329 c 0.4601,-0.1353 0.9203,-0.2717 1.3533,-0.4872 -0.203,0.1083 -0.405,0.1353 -0.61,0.2155 -0.2415,0.1083 -0.4851,0.1915 -0.7433,0.2717 z"
                 style="fill:#32444e"
                 id="path134" />
            </g>
            <path
               d="m 1064.9411,1764.1999 c -13.8841,-8.0648 -36.3078,2.9511 -45.7239,13.6686 -0.4185,0.4872 -0.8932,1.0837 -1.3804,1.7593 -8.8768,6.1691 -19.109,19.1892 -12.6651,29.6338 6.8728,11.1244 22.8796,4.44 31.6898,-0.2707 12.205,-6.521 26.3754,-16.1827 31.8158,-29.4985 2.3944,-5.9005 2.1362,-11.8812 -3.7362,-15.2926 z"
               style="fill:#32444e"
               id="path138" />
            <path
               d="m 951.5434,1762.3604 c -4.9136,0 -10.7444,10.0677 -4.3983,10.0677 4.9105,0 10.7444,-10.0677 4.3983,-10.0677 z"
               style="fill:#32444e"
               id="path140" />
            <path
               d="m 1379.7489,1890.1576 c -8.0253,-3.9798 -18.094,-1.0837 -25.2771,3.2449 -4.5482,2.7639 -8.5,8.7446 -8.1335,14.2089 0.2717,3.9798 3.5853,6.7677 7.36,6.7958 2.5994,2.7327 6.8895,3.1926 10.4071,2.5443 6.9145,-1.2721 13.2075,-6.5522 16.8323,-12.3684 2.7743,-4.4933 4.7502,-11.4763 -1.1888,-14.4255 z"
               style="fill:#32444e"
               id="path142" />
            <path
               d="m 1328.72,1835.0271 c -4.9136,-2.1362 -10.988,-2.2476 -15.7653,0.38 -0.38,0.2165 -0.7704,0.4882 -1.1503,0.7287 -0.61,0.055 -1.2451,0.2717 -1.8957,0.787 -4.0329,3.1928 -8.375,6.3607 -11.9614,10.0657 -2.056,2.112 -3.8966,5.3873 -2.7327,8.3917 5.7236,14.8575 24.1414,7.0894 32.2728,-1.0837 4.467,-4.492 9.6076,-15.6166 1.2326,-19.2694 z"
               style="fill:#32444e"
               id="path144" />
            <path
               d="m 1552.7942,1862.6048 c -6.3596,-0.432 -14.1392,7.8764 -11.3118,14.237 1.5428,3.4364 5.1687,2.9232 8.0919,2.0029 2.6661,-0.8672 5.0469,-2.6796 6.1441,-5.3324 0.6767,-1.624 1.2586,-3.1666 1.3106,-4.8988 0.3133,-2.9242 -0.5923,-5.7371 -4.2349,-6.0088 z"
               style="fill:#32444e"
               id="path146" />
            <g
               id="g152">
              <path
                 d="m 1894.8425,1920.1162 c -2.5578,-3.5166 -6.3607,-3.3284 -9.8106,-1.7044 -0.5549,-1.3533 -1.9207,-2.0037 -3.5332,-1.705 -2.2309,0.4331 -4.0184,2.1372 -4.9917,4.141 0.5819,-1.0283 1.1639,-1.2448 0.2686,-0.2996 -0.1072,0.1083 -0.1884,0.2436 -0.2821,0.3516 -0.2165,0.4604 -0.432,0.8953 -0.5549,1.3557 0.1333,-0.5153 0.3248,-0.9484 0.5268,-1.3002 -0.4601,0.5132 -0.9057,1.0285 -1.3138,1.5686 -1.1639,1.6523 -1.7312,3.6001 -2.2028,5.5208 -0.407,1.599 0.1603,3.8997 1.9342,4.467 0.9734,0.3248 1.8926,0.7849 2.7993,1.2448 0.7318,0.6488 1.6656,0.9757 2.6661,1.1089 1.9623,0.5671 4.1016,0.4872 6.064,0.1072 5.9942,-1.1076 12.637,-9.0642 8.4302,-14.8565 z"
                 style="fill:#32444e"
                 id="path148" />
              <path
                 d="m 1876.507,1920.8478 c -0.014,0.052 -0.027,0.052 -0.042,0.1075 0,-0.027 0.015,-0.027 0.028,-0.055 0,0 0,-0.025 0.014,-0.052 z"
                 style="fill:#32444e"
                 id="path150" />
            </g>
            <path
               d="m 1986.7368,1860.5205 c -5.0604,0 -11.0682,10.3657 -4.5337,10.3657 5.0635,0 11.0692,-10.3657 4.5337,-10.3657 z"
               style="fill:#32444e"
               id="path154" />
            <path
               d="m 2008.2267,1883.0932 c -7.8629,-3.3282 -16.2931,4.6284 -19.4057,11.0411 -1.2576,2.5994 -1.6094,5.1166 -1.5428,7.9565 0.097,3.6561 3.0315,6.3326 6.5762,6.5769 4.5618,0.324 8.3636,-2.2723 11.6116,-5.1414 1.5688,-1.3523 2.9242,-2.8961 4.0746,-4.6284 3.0034,-4.5472 5.329,-13.017 -1.3138,-15.8048 z"
               style="fill:#32444e"
               id="path156" />
            <path
               d="m 2144.452,1818.1947 c -4.5451,-1.9238 -10.7028,-0.1083 -14.4255,2.8128 -3.273,2.5994 -6.521,5.6309 -8.8758,9.1475 -0.1749,0.1634 -0.3664,0.3248 -0.5268,0.488 -0.5299,0.4874 -1.0035,1.0277 -1.4637,1.5961 0.7037,-0.8641 -4.897,5.4685 -1.3523,1.6792 -2.5162,2.7056 -6.5907,8.6332 -4.0985,12.6099 1.5542,2.4641 2.8399,4.5753 5.8589,5.4154 4.3421,1.1888 7.942,0.7568 12.232,-0.6236 9.364,-3.0317 15.3978,-12.8004 17.5506,-21.8688 1.0285,-4.3569 -0.5153,-9.4171 -4.8991,-11.2566 z"
               style="fill:#32444e"
               id="path158" />
            <path
               d="m 2193.5457,1952.7815 c -0.08,-0.1353 -0.1739,-0.2686 -0.2571,-0.3769 -1.5407,-2.3277 -5.277,-2.031 -7.5349,-1.8147 -7.6744,0.704 -15.9964,9.663 -15.3062,17.4842 0.3654,4.2765 3.5332,6.0078 7.0217,5.9526 1.0035,0.1083 2.0321,0.083 3.0596,-0.1353 2.5974,-0.3248 5.1416,-1.5136 7.1862,-3.1127 5.5351,-4.3286 10.2957,-11.3128 5.8308,-17.9972 z"
               style="fill:#32444e"
               id="path160" />
            <g
               id="g166">
              <path
                 d="m 2182.5192,2067.7761 c -0.014,0.027 -0.042,0.055 -0.055,0.055 -0.081,0.1083 -0.1083,0.1364 0.055,-0.055 z"
                 style="fill:#32444e"
                 id="path162" />
              <path
                 d="m 2189.2286,2051.7829 c -1.8405,-4.4119 -6.928,-3.9798 -10.6226,-2.5994 -5.0334,1.8395 -9.4452,5.9828 -11.6511,10.8277 -1.0525,2.2996 -1.446,5.2759 -0.3904,7.6315 -0.1218,0.2418 -0.2301,0.4604 -0.2852,0.5405 0.7589,-1.4075 -0.7568,1.2721 -0.9067,1.5157 h 0.015 c -0.6486,0.9203 -1.1503,1.9759 -1.3669,3.0846 -1.0691,5.3852 4.5586,5.4685 7.8764,3.4364 2.7743,-1.676 5.2488,-3.3552 7.7265,-5.4924 1.0285,-0.8922 1.9478,-1.8676 2.841,-2.8961 0.4737,-0.5684 4.112,-4.872 1.6375,-2.004 1.0837,-1.244 2.1362,-2.5162 3.1116,-3.8403 2.0154,-2.7358 3.3979,-6.876 2.0154,-10.2041 z"
                 style="fill:#32444e"
                 id="path164" />
            </g>
          </g>
        </g>
        <path
           d="m 1574.2695,2122.1499 c -33.2337,12.205 -67.4428,22.5423 -98.2685,40.2699 -34.7775,20.0012 -60.8676,47.1188 -83.817,79.6769 -37.5789,53.2869 -75.3327,123.7903 -51.8409,190.5824 6.2253,17.7274 28.4564,-5.0052 31.0288,-13.5302 8.7685,-29.0956 15.0761,-57.8622 27.0927,-85.9553 10.8631,-25.4135 24.9502,-48.5263 39.9597,-71.6922 35.0607,-54.102 85.9397,-95.3203 137.2122,-133.3188 2.8295,-2.1091 3.5332,-7.8202 -1.3669,-6.0327 z"
           style="fill:#9da6c9"
           id="path172" />
        <path
           d="m 1221.0312,2158.1964 c -53.7085,8.4164 -104.9675,32.4248 -150.2698,62.0586 -36.0111,23.5459 -104.3054,76.1572 -91.8985,125.7672 2.6661,10.608 19.2163,6.8728 24.9398,2.1112 16.6054,-13.7759 25.9559,-29.8253 36.9168,-48.1213 12.3934,-20.7018 29.2955,-37.9422 47.1844,-53.9115 38.5804,-34.4256 87.3752,-55.5626 132.5453,-79.5957 2.9909,-1.5959 6.8895,-9.2807 0.5819,-8.3084 z"
           style="fill:#9da6c9"
           id="path174" />
        <path
           d="m 971.5685,2213.6517 c -11.2285,6.6313 -23.3679,10.2562 -33.9488,18.2958 -10.1625,7.6851 -19.108,16.8607 -30.1106,23.4097 -7.5349,4.492 -15.073,16.2369 -11.3263,25.2251 4.0735,9.769 15.9828,5.8724 22.6392,1.9207 12.3965,-7.3611 19.4609,-19.6493 28.5532,-30.3388 9.6888,-11.3959 21.949,-19.7043 30.6092,-32.0977 3.9111,-5.6028 -1.0421,-9.5805 -6.4158,-6.4148 z"
           style="fill:#9da6c9"
           id="path176" />
        <path
           d="m 2249.5028,2646.1057 c -76.1874,28.2013 -154.944,51.3142 -234.3481,68.4711 -91.4207,19.7578 -182.1803,26.766 -275.5768,23.086 -44.1977,-1.7323 -89.1242,-1.9207 -133.1408,-6.496 -21.367,-2.2174 -41.6264,-6.6292 -60.6376,-14.641 35.7925,28.472 87.2118,34.2091 130.5975,44.2217 78.6057,18.1334 167.0365,19.7847 247.0236,11.8812 162.4779,-16.0484 327.3397,-80.4608 455.2149,-182.0023 2.3694,-1.8957 5.075,-6.5241 6.3742,-10.9641 -41.1236,28.9613 -89.121,49.2863 -135.507,66.4434 z"
           style="fill:#9da6c9"
           id="path178" />
        <path
           d="m 622.46,2280.5823 c -1.9478,-8.2014 -3.45,-16.6449 -4.2099,-25.605 -0.0666,-0.7037 -0.1083,-1.3804 -0.1603,-2.0844 -11.8281,-151.4482 -63.8856,-322.3844 -194.2936,-413.6174 -32.9484,-23.0576 -76.1842,-42.4894 -116.1721,-48.822 99.8124,38.9978 173.8989,136.0783 205.3899,235.8605 20.4717,64.8467 38.8625,128.3106 53.3952,194.7811 9.542,43.5991 23.3158,106.9017 64.1823,131.7718 0.9473,0.5705 1.9613,0.7589 2.9898,0.7318 -3.705,-24.3579 -7.3465,-48.7147 -11.1213,-73.0164 z"
           style="fill:#9da6c9"
           id="path180" />
      </g>
    </g>
  </g>
</svg>
