<?xml version="1.0" encoding="UTF-8"?>
<svg width="30.941mm" height="10.628mm" version="1.1" viewBox="0 0 30.941 10.628" xmlns="http://www.w3.org/2000/svg">
 <g transform="translate(-134.44 -163.62)">
  <g id="_4_-_limni" transform="matrix(.26458 0 0 .26458 -246.04 -51.5)" style="isolation:isolate" data-name="4 - limni">
   <rect x="1440.8" y="816.92" width="114.19" height="32.379" rx="14.382" fill="#fff"/>
   <circle cx="1458.1" cy="833.12" r="18.584" fill="#2e3192"/>
   <path d="m1458.1 853.21a20.084 20.084 0 1 1 20.084-20.084 20.106 20.106 0 0 1-20.084 20.084zm0-37.167a17.084 17.084 0 1 0 17.084 17.083 17.102 17.102 0 0 0-17.084-17.083z" fill="#fff"/>
   <g fill="#2e3192">
    <path d="m1485.1 839.33 4.9394-12.288h2.9571l4.93 12.288h-3.5459l-2.9229-7.8018h-0.017l-2.8711 7.8018z"/>
    <path d="m1498.9 839.33v-8.98h3.0761v8.98zm0.5722-10.101 1.8545-3.2891 2.5557 1.1016-2.3418 2.1875z"/>
    <path d="m1503.9 842.66v-12.305h3.06v4.9219c0 1.0254 0.47 1.6064 1.2988 1.6064 0.6494 0 1.1709-0.53 1.1709-1.5556v-4.9727h3.0762v8.98h-3.0254v-0.8379h-0.034a1.3675 1.3675 0 0 1-1.2647 0.9228 1.2506 1.2506 0 0 1-1.1875-0.82h-0.034v4.06z"/>
    <path d="m1513.6 830.35h3.2724l1.8369 5.2891h0.035l1.8623-5.2891h3.1963l-3.5811 9.0313h-3.0332z"/>
    <path d="m1524.9 839.33v-8.98h3.06v0.8623h0.034a3.1078 3.1078 0 0 1 2.4355-1.0508 2.9943 2.9943 0 0 1 2.2041 0.8887 3.4933 3.4933 0 0 1 0.8721 2.5381v9.0664h-3.06v-8.332c0-0.9824-0.5556-1.5381-1.247-1.5381-0.752 0-1.2393 0.539-1.2393 1.5723v4.9736z"/>
   </g>
   <g fill="#fff">
    <path d="m1456.9 825.45c-12.423 9.3457-12.388 5.99 0 15.322a1.4776 1.4776 0 0 0 2.3133-1.3091v-12.704a1.4777 1.4777 0 0 0-2.3133-1.3092z"/>
    <path d="m1462.3 828.53c0.119 0.0866 3.6773-1.4643 3.8629-1.4993 0.8848-0.3247 0.3978-1.8492-0.5185-1.48l-3.6037 1.4487a0.8041 0.8041 0 0 0 0.2593 1.5306z"/>
    <path d="m1466.2 839.24-3.3976-2.0488c-0.8626-0.5165-1.5457 0.9193-0.7241 1.3771a37.995 37.995 0 0 0 3.7591 2.1506 0.8057 0.8057 0 0 0 0.3626-1.4789z"/>
    <path d="m1466.8 832.09h-4.55a0.7921 0.7921 0 0 0 0 1.5805h4.55c0.958 0.0154 0.9559-1.5957 0-1.5805z"/>
   </g>
  </g>
 </g>
</svg>
