<?xml version="1.0" encoding="UTF-8"?>
<svg width="30.941mm" height="10.628mm" version="1.1" viewBox="0 0 30.941 10.628" xmlns="http://www.w3.org/2000/svg">
 <g transform="translate(-118.2 -118.81)">
  <g id="_4_-_potami" transform="matrix(.26458 0 0 .26458 -288.62 -43.719)" style="isolation:isolate" data-name="4 - potami">
   <rect x="1540.3" y="618.15" width="114.19" height="32.379" rx="14.382" fill="#fff"/>
   <circle cx="1557.7" cy="634.35" r="18.584" fill="#2e3192"/>
   <path d="m1557.7 654.43a20.084 20.084 0 1 1 20.083-20.084 20.107 20.107 0 0 1-20.083 20.084zm0-37.167a17.084 17.084 0 1 0 17.083 17.083 17.103 17.103 0 0 0-17.083-17.083z" fill="#fff"/>
   <g fill="#2e3192">
    <path d="m1582.7 640.56v-12.253h10.587v12.253h-3.2382v-9.331h-4.11v9.331z"/>
    <path d="m1596.4 632.71a4.8761 4.8761 0 0 1 3.5205-1.3164 4.8261 4.8261 0 0 1 3.4951 1.3164 4.8177 4.8177 0 0 1-0.01 6.7334 5.3348 5.3348 0 0 1-7.0156 0 4.8177 4.8177 0 0 1 0.01-6.7334zm2.2051 4.8017a1.6539 1.6539 0 0 0 1.3154 0.5811 1.61 1.61 0 0 0 1.2988-0.5635 2.4378 2.4378 0 0 0-0.025-2.914 1.7454 1.7454 0 0 0-2.6153-0.0166 2.2528 2.2528 0 0 0-0.4785 1.47 2.1383 2.1383 0 0 0 0.5049 1.443z"/>
    <path d="m1605.5 634.19v-2.6143h7.878v2.6143h-2.3838v6.3662h-3.0762v-6.3662z"/>
    <path d="m1614.1 636.06a5.989 5.989 0 0 1 0.333-2.0684 3.8644 3.8644 0 0 1 0.9053-1.47 3.9269 3.9269 0 0 1 2.8027-1.1367 3.0741 3.0741 0 0 1 2.4952 1.0683h0.043v-1.0167h3.0078v9.1172h-3.0078v-0.8887h-0.043a2.9006 2.9006 0 0 1-2.4434 1.085 3.8435 3.8435 0 0 1-3.751-2.6318 5.7336 5.7336 0 0 1-0.3418-2.0582zm3.5625 1.4863a1.7554 1.7554 0 0 0 1.333 0.5381 1.7083 1.7083 0 0 0 1.2823-0.5547 2.3569 2.3569 0 0 0 0-2.957 1.7011 1.7011 0 0 0-1.2823-0.5469 1.7692 1.7692 0 0 0-1.3076 0.5645 2.3117 2.3117 0 0 0-0.025 2.956zm0.2481-7.0918 1.8545-3.29 2.5546 1.1025-2.3408 2.1875z"/>
    <path d="m1625.5 643.88v-12.305h3.06v4.9219c0 1.0254 0.47 1.6065 1.2988 1.6065 0.6494 0 1.1709-0.53 1.1709-1.5557v-4.9727h3.0762v8.9805h-3.0254v-0.8369h-0.034a1.3675 1.3675 0 0 1-1.2646 0.9229 1.25 1.25 0 0 1-1.1875-0.82h-0.034v4.0586z"/>
    <path d="m1636 640.56v-8.9805h3.0762v8.9805z"/>
   </g>
   <g fill="#fff">
    <path d="m1556.5 626.67c-12.423 9.3457-12.388 5.99 0 15.322a1.4776 1.4776 0 0 0 2.3133-1.3091v-12.704a1.4777 1.4777 0 0 0-2.3133-1.3091z"/>
    <path d="m1561.8 629.75c0.1191 0.0865 3.6773-1.4644 3.863-1.4994 0.8848-0.3247 0.3977-1.8491-0.5185-1.48l-3.6038 1.4487a0.8042 0.8042 0 0 0 0.2593 1.5307z"/>
    <path d="m1565.7 640.47-3.3976-2.0489c-0.8627-0.5165-1.5458 0.9193-0.7242 1.3772a38.015 38.015 0 0 0 3.7591 2.1506 0.8057 0.8057 0 0 0 0.3627-1.4789z"/>
    <path d="m1566.4 633.31h-4.55a0.7921 0.7921 0 0 0 0 1.58h4.55c0.958 0.0159 0.9554-1.5954 0-1.58z"/>
   </g>
  </g>
 </g>
</svg>
