<?xml version="1.0" encoding="UTF-8"?>
<svg width="39.242mm" height="10.628mm" version="1.1" viewBox="0 0 39.242 10.628" xmlns="http://www.w3.org/2000/svg">
<g transform="translate(-65.072 -127.07)">
<g id="_4_-_thalassa" transform="matrix(.26458 0 0 .26458 -118.24 -86.698)" style="isolation:isolate" data-name="4 - thalassa">
<rect x="695.59" y="811.84" width="145.57" height="32.379" rx="12.302" fill="#fff"/>
<circle cx="712.92" cy="828.04" r="18.584" fill="#2e3192"/>
<path d="m712.92 848.12a20.084 20.084 0 1 1 20.084-20.083 20.106 20.106 0 0 1-20.084 20.083zm0-37.167a17.084 17.084 0 1 0 17.084 17.084 17.103 17.103 0 0 0-17.084-17.084z" fill="#fff"/>
<g fill="#2e3192">
<path d="m747.36 821.79a7.6464 7.6464 0 0 1 3.4951 0.7861 5.9823 5.9823 0 0 1 2.418 2.2383 6.2893 6.2893 0 0 1 0.872 3.3066 5.9782 5.9782 0 0 1-1.8711 4.5889 6.9652 6.9652 0 0 1-4.9482 1.7519 7.4308 7.4308 0 0 1-3.4688-0.7949 5.91 5.91 0 0 1-2.4267-2.2383 6.2147 6.2147 0 0 1-0.8809-3.3076c-0.0508-3.751 2.7949-6.3828 6.8106-6.331zm-2.52 8.8349a3.8508 3.8508 0 0 0 5.0332-9e-3 3.32 3.32 0 0 0 0.9658-2.4951 3.2731 3.2731 0 0 0-0.9834-2.5029 3.5446 3.5446 0 0 0-2.5293-0.9229 3.44 3.44 0 0 0-2.5029 0.9307 3.32 3.32 0 0 0-0.9659 2.4951 3.2747 3.2747 0 0 0 0.982 2.5039zm0.47-1.3672v-2.5039h4.0586v2.5039z"/>
<path d="m755.45 829.76a5.986 5.986 0 0 1 0.333-2.0683 3.8627 3.8627 0 0 1 0.9052-1.47 3.9271 3.9271 0 0 1 2.8028-1.1368 3.0741 3.0741 0 0 1 2.4951 1.0684h0.043v-1.0166h3.0078v9.1172h-3.0078v-0.8887h-0.043a2.9006 2.9006 0 0 1-2.4434 1.085 3.8432 3.8432 0 0 1-3.7509-2.6319 5.7307 5.7307 0 0 1-0.3418-2.0583zm3.5625 1.4864a1.7557 1.7557 0 0 0 1.333 0.538 1.7082 1.7082 0 0 0 1.2822-0.5546 2.3567 2.3567 0 0 0 0-2.9571 1.7009 1.7009 0 0 0-1.2822-0.5468 1.7693 1.7693 0 0 0-1.3077 0.5644 2.312 2.312 0 0 0-0.0253 2.9561zm0.248-7.0918 1.8545-3.29 2.5547 1.1026-2.3408 2.1875z"/>
<path d="m766.11 834.25 3.8877-8.9463-0.2646-0.7695c-0.2481-0.76-0.6582-0.9571-1.1709-0.9571a7.035 7.035 0 0 0-1.1367 0.12l-0.333-2.5546a8.78 8.78 0 0 1 1.9052-0.2139 3.204 3.204 0 0 1 2.0508 0.6064 4.8272 4.8272 0 0 1 1.3164 2.1621l3.7774 10.553h-3.1875l-1.6241-5.0244h-0.0507l-1.837 5.0244z"/>
<path d="m776.36 829.76a5.986 5.986 0 0 1 0.333-2.0683 3.8627 3.8627 0 0 1 0.9052-1.47 3.9271 3.9271 0 0 1 2.8028-1.1368 3.0741 3.0741 0 0 1 2.4951 1.0684h0.043v-1.0166h3.0078v9.1172h-3.0078v-0.8887h-0.043a2.9006 2.9006 0 0 1-2.4434 1.085 3.8432 3.8432 0 0 1-3.7509-2.6319 5.7307 5.7307 0 0 1-0.3418-2.0583zm3.5625 1.4864a1.7557 1.7557 0 0 0 1.333 0.538 1.7082 1.7082 0 0 0 1.2822-0.5546 2.3567 2.3567 0 0 0 0-2.9571 1.7009 1.7009 0 0 0-1.2822-0.5468 1.7693 1.7693 0 0 0-1.3077 0.5644 2.312 2.312 0 0 0-0.0253 2.9561z"/>
<path d="m792.27 825.27h5.2979v2.3838h-1.7862v0.0342a2.1346 2.1346 0 0 1 1.0254 0.9228 2.8466 2.8466 0 0 1 0.377 1.4014 4.5206 4.5206 0 0 1-4.88 4.4346 4.7487 4.7487 0 0 1-4.2119-2.1875 4.6275 4.6275 0 0 1 4.1777-6.9893zm-1.2383 5.9561a1.684 1.684 0 0 0 1.3067 0.5546 1.6515 1.6515 0 0 0 1.291-0.538 2.0526 2.0526 0 0 0 0.4785-1.4014 2.0817 2.0817 0 0 0-0.4961-1.418 1.7964 1.7964 0 0 0-2.6064-9e-3 2.0817 2.0817 0 0 0-0.4873 1.4268 1.9563 1.9563 0 0 0 0.5136 1.3848z"/>
<path d="m803.45 825.27h5.2978v2.3838h-1.7851v0.0342a2.1443 2.1443 0 0 1 1.0254 0.9228 2.8559 2.8559 0 0 1 0.375 1.4014 4.5193 4.5193 0 0 1-4.8789 4.4346 4.7525 4.7525 0 0 1-4.2129-2.1875 4.63 4.63 0 0 1 4.1787-6.9893zm-1.2393 5.9561a1.6874 1.6874 0 0 0 1.3076 0.5546 1.65 1.65 0 0 0 1.29-0.538 2.0477 2.0477 0 0 0 0.4785-1.4014 2.081 2.081 0 0 0-0.4951-1.418 1.7965 1.7965 0 0 0-2.6065-9e-3 2.0811 2.0811 0 0 0-0.4863 1.4268 1.9549 1.9549 0 0 0 0.5118 1.3848z"/>
<path d="m809.8 829.76a5.9884 5.9884 0 0 1 0.333-2.0683 3.8629 3.8629 0 0 1 0.9053-1.47 3.927 3.927 0 0 1 2.8027-1.1368 3.0739 3.0739 0 0 1 2.4951 1.0684h0.043v-1.0166h3.0078v9.1172h-3.0078v-0.8887h-0.043a2.9 2.9 0 0 1-2.4433 1.085 3.8434 3.8434 0 0 1-3.751-2.6319 5.7329 5.7329 0 0 1-0.3418-2.0583zm3.5625 1.4864a1.7557 1.7557 0 0 0 1.333 0.538 1.7083 1.7083 0 0 0 1.2823-0.5546 2.357 2.357 0 0 0 0-2.9571 1.701 1.701 0 0 0-1.2823-0.5468 1.7691 1.7691 0 0 0-1.3076 0.5644 2.3118 2.3118 0 0 0-0.0254 2.9561z"/>
</g>
<g fill="#fff">
<path d="m711.74 820.37c-12.423 9.3457-12.388 5.99 0 15.322a1.4776 1.4776 0 0 0 2.3133-1.3091v-12.704a1.4777 1.4777 0 0 0-2.3133-1.3091z"/>
<path d="m717.09 823.45c0.119 0.0865 3.6773-1.4644 3.8629-1.4994 0.8848-0.3247 0.3977-1.8491-0.5185-1.48l-3.6038 1.4488a0.8041 0.8041 0 0 0 0.2594 1.5306z"/>
<path d="m720.95 834.16-3.3976-2.0489c-0.8627-0.5164-1.5458 0.9193-0.7242 1.3772a38.006 38.006 0 0 0 3.7591 2.1506 0.8057 0.8057 0 0 0 0.3627-1.4789z"/>
<path d="m721.64 827h-4.55a0.7921 0.7921 0 0 0 0 1.58h4.55c0.9579 0.0159 0.9558-1.5953 0-1.58z"/>
</g>
</g>
</g>
</svg>
