<?xml version="1.0" encoding="UTF-8"?>
<svg width="67.437mm" height="10.628mm" version="1.1" viewBox="0 0 67.437 10.628" xmlns="http://www.w3.org/2000/svg">
 <g transform="translate(3.6224 -169.21)">
  <g id="_4_-_upogeios" transform="matrix(.26458 0 0 .26458 -421.46 -81.761)" style="isolation:isolate" data-name="4 - upogeios">
   <rect x="1582" y="952.45" width="252.13" height="32.379" rx="16.19" fill="#fff"/>
   <circle cx="1599.3" cy="968.65" r="18.584" fill="#2e3192"/>
   <path d="m1599.3 988.74a20.084 20.084 0 1 1 20.083-20.083 20.106 20.106 0 0 1-20.083 20.083zm0-37.167a17.084 17.084 0 1 0 17.083 17.084 17.104 17.104 0 0 0-17.083-17.084z" fill="#fff"/>
   <g fill="#2e3192">
    <path d="m1626.2 962.61h3.7441l2.4 4.2558h0.033l2.42-4.2558h3.6739l-4.5215 7.4941v4.76h-3.2383v-4.76z"/>
    <path d="m1639.5 974.86v-8.9805h8.418v8.9805h-3.0684v-6.4433h-2.2734v6.4434z"/>
    <path d="m1650.8 967.01a5.3318 5.3318 0 0 1 7.0156 0 4.8165 4.8165 0 0 1-0.01 6.7334 5.3318 5.3318 0 0 1-7.0136 0 4.8189 4.8189 0 0 1 0.01-6.7334zm2.2051 4.8018a1.65 1.65 0 0 0 1.3144 0.5811 1.6077 1.6077 0 0 0 1.2988-0.5635 2.4379 2.4379 0 0 0-0.025-2.9141 1.7424 1.7424 0 0 0-2.6133-0.0176 2.2515 2.2515 0 0 0-0.4785 1.47 2.1352 2.1352 0 0 0 0.5039 1.4441zm0.4257-7.05 1.8555-3.2891 2.5547 1.1016-2.35 2.1875z"/>
    <path d="m1659.4 965.88h3.2559l1.8555 5.5371h0.033l1.8808-5.5371h3.1777l-3.5625 9.1514v3.1533h-3.0859v-3.2217z"/>
    <path d="m1671.7 970.24v-0.0341a2.099 2.099 0 0 1-1.0586-0.7266 1.9439 1.9439 0 0 1-0.4278-1.2305 2.1752 2.1752 0 0 1 1.2813-1.999 5.959 5.959 0 0 1 2.6152-0.5557 6.6838 6.6838 0 0 1 2.4024 0.3672 5.1354 5.1354 0 0 1 1.7168 1.1367l-1.7168 1.6661a3.0351 3.0351 0 0 0-2.2559-0.88c-0.582 0-1.0683 0.1963-1.0683 0.7177 0 0.4444 0.289 0.667 0.871 0.667h1.6329v1.7852h-1.752c-0.65 0-1.0508 0.2734-1.0508 0.7861q0 0.82 1.3828 0.82a3.6638 3.6638 0 0 0 2.5391-1.0507l1.6562 1.7a6.2986 6.2986 0 0 1-4.4257 1.6494c-2.793 0-4.1778-0.9317-4.1778-2.666a2.2126 2.2126 0 0 1 1.836-2.1528z"/>
    <path d="m1679.8 974.86v-8.9805h3.0761v8.9805z"/>
    <path d="m1685.8 967.01a5.3318 5.3318 0 0 1 7.0156 0 4.8165 4.8165 0 0 1-0.01 6.7334 5.3318 5.3318 0 0 1-7.0136 0 4.8189 4.8189 0 0 1 0.01-6.7334zm2.2051 4.8018a1.65 1.65 0 0 0 1.3144 0.5811 1.6077 1.6077 0 0 0 1.2988-0.5635 2.4375 2.4375 0 0 0-0.025-2.9141 1.7424 1.7424 0 0 0-2.6133-0.0176 2.2515 2.2515 0 0 0-0.4785 1.47 2.1352 2.1352 0 0 0 0.5041 1.4441z"/>
    <path d="m1697.5 966.32a4.9868 4.9868 0 0 1 2.5372-0.6241 4.429 4.429 0 0 1 3.9492 1.9395l-2.1875 1.5723a1.9542 1.9542 0 0 0-1.7617-0.9229 1.523 1.523 0 0 0-1.2383 0.59 2.2228 2.2228 0 0 0-0.4785 1.419 2.2776 2.2776 0 0 0 0.3164 1.3242 2.496 2.496 0 0 0 1.4687 0.9736c0.4707 0.1631 0.8555 0.3077 1.1465 0.4278a6.8108 6.8108 0 0 1 0.8359 0.4189 2.17 2.17 0 0 1 0.6075 0.5039 2.3522 2.3522 0 0 1 0.4531 1.4864 9.0189 9.0189 0 0 1-0.4707 2.4951h-2.3828c0.016-0.0762 0.051-0.2217 0.1015-0.4356 0.051-0.2139 0.086-0.3759 0.1114-0.4785a4.3469 4.3469 0 0 0 0.1035-0.7266 0.9168 0.9168 0 0 0-0.6153-0.8281 7.0224 7.0224 0 0 0-1.2832-0.4785 0.6553 0.6553 0 0 1-0.094-0.0264 4.284 4.284 0 0 1-3.34-4.5459 4.49 4.49 0 0 1 2.2208-4.0841z"/>
    <path d="m1709.3 962.61h3.7422l2.4 4.2558h0.035l2.418-4.2558h3.6738l-4.5195 7.4941v4.76h-3.2383v-4.76z"/>
    <path d="m1722.4 967.45a3.848 3.848 0 0 1 2.7676-1.18 0.54 0.54 0 0 1 0.1621 0.0176l-2.7675-2.4785v-2.0674h7.3984v2.47h-3.0918l2.17 2.0762a7.3686 7.3686 0 0 1 1.5293 1.9482 5.02 5.02 0 0 1 0.4609 2.2383 4.3853 4.3853 0 0 1-2.2636 3.94 5.1866 5.1866 0 0 1-2.6328 0.6494 4.9051 4.9051 0 0 1-3.5957-1.3838 4.5818 4.5818 0 0 1-1.2657-3.2051 4.1149 4.1149 0 0 1 1.1288-3.0249zm2.4434 4.3916a1.6427 1.6427 0 0 0 1.3242 0.5732 1.5715 1.5715 0 0 0 1.3067-0.5732 2.0784 2.0784 0 0 0 0.4629-1.3672 1.9783 1.9783 0 0 0-0.7364-1.623 1.5215 1.5215 0 0 0-0.9648-0.3165 1.74 1.74 0 0 0-1.4278 0.5557 2.1185 2.1185 0 0 0-0.4609 1.3838 1.9763 1.9763 0 0 0 0.4961 1.3672z"/>
    <path d="m1732.3 978.19v-7.8193a4.4726 4.4726 0 0 1 4.7578-4.6739 4.911 4.911 0 0 1 3.4961 1.2393 4.3061 4.3061 0 0 1 1.332 3.3066 4.8987 4.8987 0 0 1-1.35 3.5547 4.4 4.4 0 0 1-3.0762 1.2393 2.97 2.97 0 0 1-2.0429-0.709h-0.041v3.8623zm3.4257-6.3574a1.542 1.542 0 0 0 1.2989 0.5976c1.1367 0 1.7695-0.82 1.7695-2.0595 0-1.2559-0.6-2.085-1.7519-2.085a1.5921 1.5921 0 0 0-1.2989 0.5732 2.2407 2.2407 0 0 0-0.4883 1.4952 2.2866 2.2866 0 0 0 0.4707 1.4784z"/>
    <path d="m1744.5 967.01a4.8746 4.8746 0 0 1 3.5215-1.3164 4.8218 4.8218 0 0 1 3.4941 1.3164 4.819 4.819 0 0 1-0.01 6.7334 4.8747 4.8747 0 0 1-3.5215 1.3155 4.8247 4.8247 0 0 1-3.4941-1.3155 4.8189 4.8189 0 0 1 0.01-6.7334zm2.2051 4.8018a1.6573 1.6573 0 0 0 1.3164 0.5811 1.6106 1.6106 0 0 0 1.2988-0.5635 2.4377 2.4377 0 0 0-0.025-2.9141 1.7445 1.7445 0 0 0-2.6152-0.0176 2.2515 2.2515 0 0 0-0.4785 1.47 2.1447 2.1447 0 0 0 0.5039 1.4441z"/>
    <path d="m1757.6 965.85 0.7773 2.3662a2.1136 2.1136 0 0 0-1.4687 2.2051 2.0363 2.0363 0 0 0 1.9551 2.2041v-6.8779c0.5742-0.0342 1.0859-0.0518 1.5566-0.0518q6.2286 0 6.2285 4.7256c0 2.4434-1.4179 4.3233-4.8613 4.58v3.1875h-2.9238v-3.1874a5.3137 5.3137 0 0 1-3.7071-1.4531 4.3845 4.3845 0 0 1-1.1543-3.0586 4.4354 4.4354 0 0 1 3.5977-4.6397zm4.1875 6.7754a2.0567 2.0567 0 0 0 1.9727-2.2724 1.9156 1.9156 0 0 0-1.9727-2.085z"/>
    <path d="m1769.1 967.01a4.8746 4.8746 0 0 1 3.5215-1.3164 4.822 4.822 0 0 1 3.4941 1.3164 4.819 4.819 0 0 1-0.01 6.7334 4.8748 4.8748 0 0 1-3.5215 1.3155 4.8247 4.8247 0 0 1-3.4941-1.3155 4.8189 4.8189 0 0 1 0.01-6.7334zm2.205 4.8018a1.6575 1.6575 0 0 0 1.3165 0.5811 1.6106 1.6106 0 0 0 1.2988-0.5635 2.4377 2.4377 0 0 0-0.025-2.9141 1.7445 1.7445 0 0 0-2.6152-0.0176 2.2516 2.2516 0 0 0-0.4786 1.47 2.1452 2.1452 0 0 0 0.5039 1.4441z"/>
    <path d="m1778.8 978.19v-7.8193a4.4728 4.4728 0 0 1 4.7578-4.6739 4.911 4.911 0 0 1 3.4961 1.2393 4.3058 4.3058 0 0 1 1.332 3.3066 4.8987 4.8987 0 0 1-1.35 3.5547 4.4 4.4 0 0 1-3.0761 1.2393 2.97 2.97 0 0 1-2.043-0.709h-0.041v3.8623zm3.4258-6.3574a1.5416 1.5416 0 0 0 1.2988 0.5976c1.1367 0 1.77-0.82 1.77-2.0595 0-1.2559-0.6-2.085-1.7519-2.085a1.5919 1.5919 0 0 0-1.2988 0.5732 2.24 2.24 0 0 0-0.4883 1.4952 2.2866 2.2866 0 0 0 0.4702 1.4784z"/>
    <path d="m1791.3 970.24v-0.0341a2.0994 2.0994 0 0 1-1.0586-0.7266 1.9443 1.9443 0 0 1-0.4277-1.2305 2.1753 2.1753 0 0 1 1.2812-1.999 5.9591 5.9591 0 0 1 2.6153-0.5557 6.6832 6.6832 0 0 1 2.4023 0.3672 5.1344 5.1344 0 0 1 1.7168 1.1367l-1.7168 1.6661a3.0348 3.0348 0 0 0-2.2559-0.88c-0.582 0-1.0683 0.1963-1.0683 0.7177 0 0.4444 0.289 0.667 0.8711 0.667h1.6328v1.7852h-1.752c-0.65 0-1.0507 0.2734-1.0507 0.7861q0 0.82 1.3828 0.82a3.6635 3.6635 0 0 0 2.539-1.0507l1.6563 1.7a6.2988 6.2988 0 0 1-4.4258 1.6494c-2.793 0-4.1777-0.9317-4.1777-2.666a2.2125 2.2125 0 0 1 1.8359-2.1528zm1.5215-5.4775 1.8555-3.2891 2.5546 1.1016-2.3418 2.1875z"/>
    <path d="m1798.8 970.37a5.9863 5.9863 0 0 1 0.334-2.0674 3.8736 3.8736 0 0 1 0.9043-1.47 3.93 3.93 0 0 1 2.8028-1.1368 3.0775 3.0775 0 0 1 2.4961 1.0684h0.043v-1.0166h3.0078v9.1172h-3.0078v-0.8887h-0.043a2.9006 2.9006 0 0 1-2.4434 1.085 3.8462 3.8462 0 0 1-3.752-2.6319 5.7564 5.7564 0 0 1-0.3418-2.0592zm3.5626 1.4873a1.7611 1.7611 0 0 0 1.3339 0.5381 1.7036 1.7036 0 0 0 1.2813-0.5557 2.3553 2.3553 0 0 0 0-2.9561 1.6989 1.6989 0 0 0-1.2813-0.5468 1.7648 1.7648 0 0 0-1.3066 0.5634 2.3164 2.3164 0 0 0-0.027 2.9571z"/>
    <path d="m1812.1 966.32a4.9862 4.9862 0 0 1 2.5371-0.6241 4.429 4.429 0 0 1 3.9492 1.9395l-2.1875 1.5723a1.9542 1.9542 0 0 0-1.7617-0.9229 1.5232 1.5232 0 0 0-1.2383 0.59 2.2228 2.2228 0 0 0-0.4785 1.419 2.2776 2.2776 0 0 0 0.3164 1.3242 2.4964 2.4964 0 0 0 1.4687 0.9736c0.4707 0.1631 0.8555 0.3077 1.1465 0.4278a6.8037 6.8037 0 0 1 0.8359 0.4189 2.17 2.17 0 0 1 0.6075 0.5039 2.3522 2.3522 0 0 1 0.4531 1.4864 9.0189 9.0189 0 0 1-0.4707 2.4951h-2.3828c0.016-0.0762 0.051-0.2217 0.1015-0.4356 0.051-0.2139 0.086-0.3759 0.1114-0.4785a4.3469 4.3469 0 0 0 0.1035-0.7266 0.9168 0.9168 0 0 0-0.6153-0.8281 7.0224 7.0224 0 0 0-1.2832-0.4785 0.6553 0.6553 0 0 1-0.094-0.0264 4.284 4.284 0 0 1-3.34-4.5459 4.49 4.49 0 0 1 2.2209-4.0841z"/>
   </g>
   <g fill="#fff">
    <path d="m1598.1 960.98c-12.423 9.3456-12.388 5.99 0 15.322a1.4776 1.4776 0 0 0 2.3134-1.3091v-12.704a1.4777 1.4777 0 0 0-2.3134-1.309z"/>
    <path d="m1603.5 964.06c0.119 0.0865 3.6773-1.4644 3.8629-1.4994 0.8848-0.3247 0.3978-1.8491-0.5185-1.48l-3.6038 1.4488a0.8041 0.8041 0 0 0 0.2594 1.5306z"/>
    <path d="m1607.3 974.77-3.3976-2.0489c-0.8626-0.5165-1.5457 0.9193-0.7241 1.3772a38.014 38.014 0 0 0 3.759 2.1506 0.8057 0.8057 0 0 0 0.3627-1.4789z"/>
    <path d="m1608 967.61h-4.55a0.7921 0.7921 0 0 0 0 1.58h4.55c0.9583 0.0156 0.956-1.5954 0-1.58z"/>
   </g>
  </g>
 </g>
</svg>
