<?xml version="1.0" encoding="utf-8"?>
<!-- Generator: Adobe Illustrator 27.4.0, SVG Export Plug-In . SVG Version: 6.00 Build 0)  -->
<svg version="1.1" id="Layer_1" xmlns="http://www.w3.org/2000/svg" xmlns:xlink="http://www.w3.org/1999/xlink" x="0px" y="0px"
	 viewBox="0 0 363.5 292.5" style="enable-background:new 0 0 363.5 292.5;" xml:space="preserve">
<style type="text/css">
	.st0{fill:#FFFFFF;}
	.st1{fill:#30276E;}
	.st2{clip-path:url(#SVGID_00000150817170869442644440000010540711823619592082_);}
	.st3{clip-path:url(#SVGID_00000000205891805132392810000001687455491530520741_);}
	.st4{fill:#2D2148;}
	.st5{clip-path:url(#SVGID_00000052082513543381162380000013743099729752997522_);}
	.st6{fill:#F6FDFC;}
	.st7{fill:#C9FACA;}
	.st8{fill:#D2DDDC;}
	.st9{fill:#AFB8B7;}
	.st10{opacity:0.64;fill:#ADADAD;enable-background:new    ;}
	.st11{fill:url(#SVGID_00000100363792783075273030000005361329720882746010_);}
	.st12{fill:url(#SVGID_00000014621607684244714430000008496775017491202999_);}
	.st13{clip-path:url(#SVGID_00000080887097413239138570000005346060738518010272_);}
	.st14{fill:#69B8E6;}
	.st15{fill:#85F9AD;}
	.st16{fill:#9EAAAC;}
	.st17{fill:#2E3192;}
	.st18{fill:#C4493C;}
	.st19{fill:#B43C2F;}
	.st20{fill:#EB7667;}
	.st21{fill:#ED9183;}
	.st22{fill:#67BDE1;}
	.st23{fill:#6DC9F0;}
	.st24{fill:#B7C3C5;}
	.st25{fill:#D7E3E5;}
</style>
<g>
	<g id="Layer_4">
		<g id="moon">
			<g id="basket">
				<path class="st0" d="M34.4,0h294.6c19,0,34.4,15.4,34.4,34.4v223.6c0,19-15.4,34.4-34.4,34.4H34.4c-19,0-34.4-15.4-34.4-34.4
					V34.4C0,15.4,15.4,0,34.4,0z"/>
				<path class="st1" d="M47.1,20.3h271.5c14.4,0,26,11.6,26,26v201c0,14.4-11.6,26-26,26H47.1c-14.4,0-26-11.6-26-26v-201
					C21.1,31.9,32.8,20.3,47.1,20.3z"/>
				<g>
					<defs>
						<path id="SVGID_1_" d="M47.1,20.3h271.5c14.4,0,26,11.6,26,26v201c0,14.4-11.6,26-26,26H47.1c-14.4,0-26-11.6-26-26v-201
							C21.1,31.9,32.8,20.3,47.1,20.3z"/>
					</defs>
					<clipPath id="SVGID_00000021833909807778515160000014609795707893392533_">
						<use xlink:href="#SVGID_1_"  style="overflow:visible;"/>
					</clipPath>
					<g style="clip-path:url(#SVGID_00000021833909807778515160000014609795707893392533_);">
						<g>
							<defs>
								<rect id="SVGID_00000139992901015626757070000011103439458276937354_" x="-93.7" y="-54.5" width="504.8" height="336.5"/>
							</defs>
							<clipPath id="SVGID_00000150785926359344755160000014156619033179346859_">
								<use xlink:href="#SVGID_00000139992901015626757070000011103439458276937354_"  style="overflow:visible;"/>
							</clipPath>
							<g style="clip-path:url(#SVGID_00000150785926359344755160000014156619033179346859_);">
								<rect x="-94.7" y="-55.5" class="st4" width="505.8" height="338.5"/>
								<g>
									<defs>
										<circle id="SVGID_00000094588571546869244070000009498797444447783563_" cx="300" cy="60.9" r="20.5"/>
									</defs>
									<clipPath id="SVGID_00000081613351198143620420000017983382237753255574_">
										<use xlink:href="#SVGID_00000094588571546869244070000009498797444447783563_"  style="overflow:visible;"/>
									</clipPath>
									<g style="clip-path:url(#SVGID_00000081613351198143620420000017983382237753255574_);">
										<circle class="st6" cx="300" cy="60.9" r="20.5"/>
										<path class="st7" d="M306.2,64.7c0,1.4-1.1,2.5-2.5,2.5s-2.5-1.1-2.5-2.5c0-1.4,1.1-2.5,2.5-2.5S306.2,63.4,306.2,64.7z"
											/>
										<path class="st8" d="M306.2,64.7c0,1.4-1.1,2.5-2.5,2.5s-2.5-1.1-2.5-2.5c0-1.4,1.1-2.5,2.5-2.5S306.2,63.4,306.2,64.7z"
											/>
										<path class="st9" d="M301.7,65.3c0-1.4,1.1-2.5,2.5-2.5c0.6,0,1.2,0.2,1.6,0.6c-0.4-0.7-1.2-1.2-2.1-1.2
											c-1.4,0-2.5,1.1-2.5,2.5c0,0.7,0.3,1.4,0.8,1.8C301.9,66.2,301.7,65.7,301.7,65.3z"/>
										<path class="st7" d="M310.2,71.5c0,0.3-0.3,0.6-0.6,0.6s-0.6-0.3-0.6-0.6s0.3-0.6,0.6-0.6S310.2,71.2,310.2,71.5z"/>
										<path class="st8" d="M310.2,71.5c0,0.3-0.3,0.6-0.6,0.6s-0.6-0.3-0.6-0.6s0.3-0.6,0.6-0.6S310.2,71.2,310.2,71.5z"/>
										<path class="st9" d="M309,71.7c0-0.3,0.3-0.6,0.6-0.6c0.2,0,0.3,0.1,0.4,0.2c-0.1-0.2-0.3-0.3-0.5-0.3
											c-0.3,0-0.6,0.3-0.6,0.6c0,0.2,0.1,0.4,0.2,0.5C309.1,71.9,309,71.8,309,71.7L309,71.7z"/>
										<circle class="st7" cx="305.5" cy="44.6" r="1.3"/>
										<circle class="st8" cx="305.5" cy="44.6" r="1.3"/>
										<path class="st9" d="M304.4,44.9c0-0.7,0.6-1.3,1.3-1.3c0.3,0,0.6,0.1,0.9,0.3c-0.2-0.4-0.6-0.6-1.1-0.6
											c-0.7,0-1.3,0.6-1.3,1.3c0,0.4,0.2,0.7,0.4,1C304.5,45.4,304.4,45.2,304.4,44.9L304.4,44.9z"/>
										<path class="st7" d="M286.4,63.2c0,0.4-0.3,0.7-0.7,0.7s-0.7-0.3-0.7-0.7s0.3-0.7,0.7-0.7S286.4,62.8,286.4,63.2z"/>
										<path class="st8" d="M286.4,63.2c0,0.4-0.3,0.7-0.7,0.7s-0.7-0.3-0.7-0.7s0.3-0.7,0.7-0.7S286.4,62.8,286.4,63.2z"/>
										<path class="st9" d="M285.2,63.3c0-0.4,0.3-0.7,0.7-0.7c0.2,0,0.3,0.1,0.4,0.2c-0.1-0.2-0.3-0.3-0.6-0.3
											c-0.4,0-0.7,0.3-0.7,0.7c0,0.2,0.1,0.4,0.2,0.5C285.3,63.6,285.2,63.5,285.2,63.3L285.2,63.3z"/>
										<path class="st7" d="M313.9,53.2c0,1.4-1.1,2.5-2.5,2.5s-2.5-1.1-2.5-2.5s1.1-2.5,2.5-2.5S313.9,51.9,313.9,53.2z"/>
										<path class="st8" d="M313.9,53.2c0,1.4-1.1,2.5-2.5,2.5s-2.5-1.1-2.5-2.5s1.1-2.5,2.5-2.5S313.9,51.9,313.9,53.2z"/>
										<path class="st9" d="M309.4,53.8c0-1.4,1.1-2.5,2.5-2.5c0.6,0,1.2,0.2,1.6,0.6c-0.4-0.7-1.2-1.2-2.1-1.2
											c-1.4,0-2.5,1.1-2.5,2.5c0,0.7,0.3,1.4,0.8,1.8C309.5,54.7,309.4,54.2,309.4,53.8L309.4,53.8z"/>
										<path class="st7" d="M294.9,46c0,1.4-1.1,2.5-2.5,2.5S290,47.4,290,46s1.1-2.5,2.5-2.5S294.9,44.7,294.9,46z"/>
										<path class="st8" d="M294.9,46c0,1.4-1.1,2.5-2.5,2.5S290,47.4,290,46s1.1-2.5,2.5-2.5S294.9,44.7,294.9,46z"/>
										<path class="st9" d="M290.5,46.6c0-1.4,1.1-2.5,2.5-2.5c0.6,0,1.2,0.2,1.6,0.6c-0.4-0.7-1.2-1.2-2.1-1.2
											c-1.4,0-2.5,1.1-2.5,2.5c0,0.7,0.3,1.4,0.8,1.8C290.6,47.5,290.5,47,290.5,46.6L290.5,46.6z"/>
										<path class="st7" d="M306.4,77.3c0,1.4-1.1,2.5-2.5,2.5s-2.5-1.1-2.5-2.5s1.1-2.5,2.5-2.5S306.4,76,306.4,77.3z"/>
										<path class="st8" d="M306.4,77.3c0,1.4-1.1,2.5-2.5,2.5s-2.5-1.1-2.5-2.5s1.1-2.5,2.5-2.5S306.4,76,306.4,77.3z"/>
										<path class="st9" d="M302,77.9c0-1.4,1.1-2.5,2.5-2.5c0.6,0,1.2,0.2,1.6,0.6c-0.4-0.7-1.2-1.2-2.1-1.2
											c-1.4,0-2.5,1.1-2.5,2.5c0,0.7,0.3,1.4,0.8,1.8C302.1,78.8,302,78.4,302,77.9L302,77.9z"/>
										<path class="st7" d="M295.6,67.1c-0.4,0.6-1.3,0.8-1.9,0.4s-0.8-1.3-0.4-1.9s1.3-0.8,1.9-0.4
											C295.9,65.6,296,66.5,295.6,67.1L295.6,67.1z"/>
										<path class="st8" d="M295.6,67.1c-0.4,0.6-1.3,0.8-1.9,0.4s-0.8-1.3-0.4-1.9s1.3-0.8,1.9-0.4
											C295.9,65.6,296,66.5,295.6,67.1L295.6,67.1z"/>
										<path class="st9" d="M293.4,66c0.4-0.6,1.3-0.8,1.9-0.4c0.3,0.2,0.5,0.5,0.6,0.8c0-0.5-0.2-0.9-0.6-1.2
											c-0.6-0.4-1.5-0.2-1.9,0.4c-0.2,0.3-0.3,0.8-0.2,1.1C293.1,66.5,293.2,66.2,293.4,66L293.4,66z"/>
										<path class="st7" d="M317.8,70.1c-0.4,0.6-1.3,0.8-1.9,0.4s-0.8-1.3-0.4-1.9c0.4-0.6,1.3-0.8,1.9-0.4
											S318.3,69.4,317.8,70.1L317.8,70.1z"/>
										<path class="st8" d="M317.8,70.1c-0.4,0.6-1.3,0.8-1.9,0.4s-0.8-1.3-0.4-1.9c0.4-0.6,1.3-0.8,1.9-0.4
											S318.3,69.4,317.8,70.1L317.8,70.1z"/>
										<path class="st9" d="M315.6,68.9c0.4-0.6,1.3-0.8,1.9-0.4c0.3,0.2,0.5,0.5,0.6,0.8c0-0.5-0.2-0.9-0.6-1.2
											c-0.6-0.4-1.5-0.2-1.9,0.4c-0.2,0.3-0.3,0.8-0.2,1.1C315.4,69.4,315.4,69.2,315.6,68.9L315.6,68.9z"/>
										<path class="st7" d="M282.3,71.6c-0.3,0.5-1,0.6-1.5,0.3s-0.6-1-0.3-1.5c0.3-0.5,1-0.6,1.5-0.3
											C282.5,70.4,282.7,71.1,282.3,71.6z"/>
										<path class="st8" d="M282.3,71.6c-0.3,0.5-1,0.6-1.5,0.3s-0.6-1-0.3-1.5c0.3-0.5,1-0.6,1.5-0.3
											C282.5,70.4,282.7,71.1,282.3,71.6z"/>
										<path class="st9" d="M280.6,70.7c0.3-0.5,1-0.6,1.5-0.3c0.2,0.1,0.4,0.4,0.4,0.6c0-0.4-0.2-0.7-0.5-0.9
											c-0.5-0.3-1.1-0.2-1.5,0.3c-0.2,0.3-0.2,0.6-0.1,0.9C280.4,71.1,280.5,70.9,280.6,70.7L280.6,70.7z"/>
										<path class="st7" d="M292.6,76c-0.4,0.6-1.3,0.8-1.9,0.4s-0.8-1.3-0.4-1.9c0.4-0.6,1.3-0.8,1.9-0.4
											C292.8,74.5,293,75.3,292.6,76L292.6,76z"/>
										<path class="st8" d="M292.6,76c-0.4,0.6-1.3,0.8-1.9,0.4s-0.8-1.3-0.4-1.9c0.4-0.6,1.3-0.8,1.9-0.4
											C292.8,74.5,293,75.3,292.6,76L292.6,76z"/>
										<path class="st9" d="M290.3,74.9c0.4-0.6,1.3-0.8,1.9-0.4c0.3,0.2,0.5,0.5,0.6,0.8c0-0.5-0.2-0.9-0.6-1.2
											c-0.6-0.4-1.5-0.2-1.9,0.4c-0.2,0.3-0.3,0.8-0.2,1.1C290.1,75.3,290.1,75.1,290.3,74.9L290.3,74.9z"/>
										<path class="st7" d="M296.7,58.2c-0.1,0.8-0.9,1.2-1.6,1.1s-1.2-0.9-1.1-1.6c0.1-0.8,0.9-1.2,1.6-1.1
											C296.4,56.7,296.9,57.4,296.7,58.2z"/>
										<path class="st8" d="M296.7,58.2c-0.1,0.8-0.9,1.2-1.6,1.1s-1.2-0.9-1.1-1.6c0.1-0.8,0.9-1.2,1.6-1.1
											C296.4,56.7,296.9,57.4,296.7,58.2z"/>
										<path class="st9" d="M294.2,58c0.1-0.8,0.9-1.2,1.6-1.1c0.3,0.1,0.6,0.3,0.8,0.5c-0.2-0.4-0.5-0.8-1-0.9
											c-0.8-0.1-1.5,0.4-1.6,1.1c-0.1,0.4,0,0.8,0.3,1.1C294.2,58.5,294.1,58.3,294.2,58z"/>
										<path class="st7" d="M311.4,60.2c-0.1,0.4-0.5,0.7-1,0.7c-0.4-0.1-0.7-0.5-0.7-1c0.1-0.4,0.5-0.7,1-0.7
											S311.5,59.8,311.4,60.2L311.4,60.2z"/>
										<path class="st8" d="M311.4,60.2c-0.1,0.4-0.5,0.7-1,0.7c-0.4-0.1-0.7-0.5-0.7-1c0.1-0.4,0.5-0.7,1-0.7
											S311.5,59.8,311.4,60.2L311.4,60.2z"/>
										<path class="st9" d="M309.9,60.1c0.1-0.4,0.5-0.7,1-0.7c0.2,0,0.4,0.2,0.5,0.3c-0.1-0.3-0.3-0.5-0.6-0.5
											c-0.4-0.1-0.9,0.2-1,0.7c0,0.2,0,0.5,0.2,0.7C309.9,60.4,309.9,60.3,309.9,60.1L309.9,60.1z"/>
										<path class="st7" d="M304.8,54.6c-0.1,0.4-0.5,0.7-1,0.7s-0.7-0.5-0.7-1s0.5-0.7,1-0.7C304.6,53.7,304.9,54.1,304.8,54.6
											L304.8,54.6z"/>
										<path class="st8" d="M304.8,54.6c-0.1,0.4-0.5,0.7-1,0.7s-0.7-0.5-0.7-1s0.5-0.7,1-0.7C304.6,53.7,304.9,54.1,304.8,54.6
											L304.8,54.6z"/>
										<path class="st9" d="M303.3,54.5c0.1-0.4,0.5-0.7,1-0.7c0.2,0,0.4,0.2,0.5,0.3c-0.1-0.3-0.3-0.5-0.6-0.5
											c-0.4-0.1-0.9,0.2-1,0.7c0,0.2,0,0.5,0.2,0.7C303.3,54.8,303.2,54.6,303.3,54.5L303.3,54.5z"/>
										<path class="st7" d="M319.9,60.1c-0.1,0.4-0.5,0.7-1,0.7s-0.7-0.5-0.7-1s0.5-0.7,1-0.7S320,59.7,319.9,60.1L319.9,60.1z"
											/>
										<path class="st8" d="M319.9,60.1c-0.1,0.4-0.5,0.7-1,0.7s-0.7-0.5-0.7-1s0.5-0.7,1-0.7S320,59.7,319.9,60.1L319.9,60.1z"
											/>
										<path class="st9" d="M318.4,60c0.1-0.4,0.5-0.7,1-0.7c0.2,0,0.4,0.2,0.5,0.3c-0.1-0.3-0.3-0.5-0.6-0.5
											c-0.4-0.1-0.9,0.2-1,0.7c0,0.2,0,0.5,0.2,0.7C318.4,60.3,318.4,60.2,318.4,60L318.4,60z"/>
										<path class="st7" d="M320.2,50.8c-0.2,1-1.1,1.6-2.1,1.4s-1.6-1.1-1.4-2.1c0.2-1,1.1-1.6,2.1-1.4
											C319.7,48.9,320.3,49.8,320.2,50.8z"/>
										<path class="st8" d="M320.2,50.8c-0.2,1-1.1,1.6-2.1,1.4s-1.6-1.1-1.4-2.1c0.2-1,1.1-1.6,2.1-1.4
											C319.7,48.9,320.3,49.8,320.2,50.8z"/>
										<path class="st9" d="M316.8,50.6c0.2-1,1.1-1.6,2.1-1.4c0.5,0.1,0.8,0.3,1.1,0.7c-0.2-0.6-0.7-1-1.4-1.1
											c-1-0.2-1.9,0.5-2.1,1.4c-0.1,0.5,0,1.1,0.4,1.4C316.8,51.3,316.8,51,316.8,50.6L316.8,50.6z"/>
										<path class="st7" d="M285.2,55.1c-0.1,0.8-0.9,1.2-1.6,1.1c-0.8-0.1-1.2-0.9-1.1-1.6s0.9-1.2,1.6-1.1
											S285.4,54.3,285.2,55.1z"/>
										<path class="st8" d="M285.2,55.1c-0.1,0.8-0.9,1.2-1.6,1.1c-0.8-0.1-1.2-0.9-1.1-1.6s0.9-1.2,1.6-1.1
											S285.4,54.3,285.2,55.1z"/>
										<path class="st9" d="M282.7,54.9c0.1-0.8,0.9-1.2,1.6-1.1c0.3,0.1,0.6,0.3,0.8,0.5c-0.2-0.4-0.5-0.8-1-0.9
											c-0.8-0.1-1.5,0.4-1.6,1.1c-0.1,0.4,0,0.8,0.3,1.1C282.7,55.4,282.6,55.2,282.7,54.9z"/>
										<path class="st10" d="M305.9,41.2c6.9,3.3,4.4,15.8-0.5,19.6c-13.3,10.6-27.6-0.5-23.7,20.5c2.6,1.3,15.2,0,18.3,0
											c11.3,0,20.5-9.2,20.5-20.5C320.5,51.6,314.4,43.8,305.9,41.2L305.9,41.2z"/>
									</g>
								</g>
								
									<linearGradient id="SVGID_00000104677109598240233150000013566659262005845160_" gradientUnits="userSpaceOnUse" x1="-156.0541" y1="611.0026" x2="-84.7215" y2="611.0026" gradientTransform="matrix(0.8374 -0.5466 -0.5466 -0.8374 421.3763 536.9454)">
									<stop  offset="0" style="stop-color:#FFFFFF"/>
									<stop  offset="0.1452" style="stop-color:#FFFFFF;stop-opacity:0.9863"/>
									<stop  offset="0.2734" style="stop-color:#FFFFFF;stop-opacity:0.944"/>
									<stop  offset="0.3952" style="stop-color:#FFFFFF;stop-opacity:0.873"/>
									<stop  offset="0.5131" style="stop-color:#FFFFFF;stop-opacity:0.7731"/>
									<stop  offset="0.6282" style="stop-color:#FFFFFF;stop-opacity:0.6442"/>
									<stop  offset="0.7413" style="stop-color:#FFFFFF;stop-opacity:0.4861"/>
									<stop  offset="0.8526" style="stop-color:#FFFFFF;stop-opacity:0.2986"/>
									<stop  offset="0.9598" style="stop-color:#FFFFFF;stop-opacity:8.710000e-02"/>
									<stop  offset="1" style="stop-color:#FFFFFF;stop-opacity:0"/>
								</linearGradient>
								<path style="fill:url(#SVGID_00000104677109598240233150000013566659262005845160_);" d="M16.5,71.6
									c0.7,1.1-40.8,29.6-48.6,34.7c-7.8,5.1-10.3,5.4-11.1,4.3c-0.7-1.1,0.6-3.3,8.4-8.4C-27.1,97.1,15.7,70.5,16.5,71.6
									L16.5,71.6z"/>
								
									<linearGradient id="SVGID_00000000920018058022485250000006739696056095261573_" gradientUnits="userSpaceOnUse" x1="-114.8128" y1="675.2644" x2="-71.8284" y2="675.2644" gradientTransform="matrix(0.7128 -0.7014 -0.7014 -0.7128 551.5596 630.2795)">
									<stop  offset="0" style="stop-color:#FFFFFF"/>
									<stop  offset="0.1452" style="stop-color:#FFFFFF;stop-opacity:0.9863"/>
									<stop  offset="0.2734" style="stop-color:#FFFFFF;stop-opacity:0.944"/>
									<stop  offset="0.3952" style="stop-color:#FFFFFF;stop-opacity:0.873"/>
									<stop  offset="0.5131" style="stop-color:#FFFFFF;stop-opacity:0.7731"/>
									<stop  offset="0.6282" style="stop-color:#FFFFFF;stop-opacity:0.6442"/>
									<stop  offset="0.7413" style="stop-color:#FFFFFF;stop-opacity:0.4861"/>
									<stop  offset="0.8526" style="stop-color:#FFFFFF;stop-opacity:0.2986"/>
									<stop  offset="0.9598" style="stop-color:#FFFFFF;stop-opacity:8.710000e-02"/>
									<stop  offset="1" style="stop-color:#FFFFFF;stop-opacity:0"/>
								</linearGradient>
								<path style="fill:url(#SVGID_00000000920018058022485250000006739696056095261573_);" d="M26.6,199.2
									c0.4,0.4-24.2,25.4-26.7,27.9c-2.5,2.5-3.4,2.8-3.8,2.4s0-1.3,2.5-3.8C1.1,223.3,26.2,198.8,26.6,199.2L26.6,199.2z"/>
								<g>
									<defs>
										<path id="SVGID_00000002365779965221164340000005715629917661251221_" d="M266.9,310.7c-33.7-57.1-95.8-95.4-166.9-95.4
											s-133.2,38.3-166.9,95.4H266.9L266.9,310.7z"/>
									</defs>
									<clipPath id="SVGID_00000033346694388541647550000009742343937641564095_">
										<use xlink:href="#SVGID_00000002365779965221164340000005715629917661251221_"  style="overflow:visible;"/>
									</clipPath>
									<g style="clip-path:url(#SVGID_00000033346694388541647550000009742343937641564095_);">
										<path class="st14" d="M266.9,310.7c-33.7-57.1-95.8-95.4-166.9-95.4s-133.2,38.3-166.9,95.4H266.9L266.9,310.7z"/>
										<path class="st15" d="M-15.4,299c-0.9,1.4-3.6,3.6-4,5.1c-0.3,1.2,1.1,3.7,0.8,4.9c-0.1,0.5-0.4,1.1-0.7,1.6H9.5
											c0-0.9,0.2-1.9,0.1-2.5c-0.3-2.9,0.7-10.4-2-11.6c-2.6-1.1-6.9,7.7-9.2,6.2c-1-0.7-0.2-3.5,0.1-4.8c0.4-1.5,2.1-2.2,1.2-3
											c-0.7-0.6-2-0.2-2.7-0.8C-11.3,287.8-13.6,296.2-15.4,299L-15.4,299z"/>
										<path class="st15" d="M45.2,208.8C45.3,208.4,45.3,208.4,45.2,208.8L45.2,208.8z"/>
										<path class="st15" d="M89.4,245.5c0.2,0.3,2.4,1.1,3,1.2c0.6,0.1,3.2-0.6,3.4-1.5c0.1-0.8-2-2.2-2.2-2.3
											c-1-0.4,3.7-0.1,4.3-1c0.5-0.8-1.3-2.4-1.6-3.3c-0.5-1.6-2-5.3-1-6.6c0.2-0.3,1.4,0.2,1.5-0.1c0.1-0.3-0.9-0.4-1-0.6
											c-1.8-3.5,2.7,0.4,3.6,2.9c0.4,1.2,0.8-6.5-0.8-6.5c-1,0-0.9-2.5-0.9-3.4c0.2-2.8,4.3-7.2,5.1-9.9
											c0.3-0.9-1.4-4.3-0.2-3.6c2.1,1.1,5.2-4.8,4.1-6.4c-1.9-2.7-10.3,6.9-12.5,4.2c-8.8-10.4-0.8-4.2-1.5-5.4
											c-0.3-0.5,2.2-0.8,2-1.4c-0.7-2.3-9.3,2.2-9.4-0.1c-0.2-3.2,11.3,1.1,12.7-1.8c0.6-1.1-1.6-3.6-2.6-4.4
											c-0.9-0.8-3.4-1.6-4.6-1.8c-3.9-0.6-17.2-0.5-15.4,2.9c0.2,0.5-2.4,0.4-2.3,4.6c0,1.4-1.6-2.8-1.6-2.7
											c0.1,0.4-3.7,0.5-3.7,1.3c-0.1,1.5-3.3,0.7-4.7,1.1c-0.2,0.1,0.5-0.7,0.4-0.7c-3,1.9-18.7,10.7-18.5,9.2
											c0-0.2,0.2-0.5,0.1-0.5c-1-0.2-0.8,4.7-1.5,5.1c-1.7,1-6,1.2-7.6,2.5c-1.1,0.9-3.5,4.7-2.6,5.2c1.8,1.1,2.7,1.3,3,1.8
											c1.2,2.4-5.3,6.6-4.4,8c1.3,2.4,8.9,1,10.4,3.3c2.2,3.1-0.6,13.7-1.4,15c-0.5,0.7-2.2,2.7-1.7,3.4
											c0.7,0.9,3.9-1.7,4.4-0.7c0.8,1.5-4.3,3.6-4.6,5.3c-0.1,0.5-3,3,1.6,1.1c0.6-0.2,2.2,1.5,2.2,3c0,2.6-3.4,5.6-3.8,5.2
											c-1.6-1.5-2.9,2.6-2.6,5.5c0.2,3.1-3.9,6,1.1,8.4c4.2,2,6.2,8.9,0.7,13.1c-0.1,0,5.7,4.2,7.7,3.5c2.4-0.9,3-7.2,4.4-9.4
											c2-3.3,6.4-7.9,11.1-10.7c4.2-2.5,8.8-7,12.1-9c4-2.5,18.3-3,17.3-7.6c-0.3-1.5-7.3-0.4-6.1-1.2c0.8-0.6,2.4-4.4,2.3-4
											c-0.4,1.8,4.9,0.9,5.3-0.4c0.7-2-3-5.7-4-7.4c0,0,3.6,3.8,3.3,3.8c-0.3,0,1.2-2.9,1.3-2.5C93.2,249.4,89,245,89.4,245.5
											L89.4,245.5z M44.2,257.1C44.3,258.2,43.9,254.1,44.2,257.1L44.2,257.1z"/>
										<path class="st15" d="M-2.4,245.6c-1,2.2-3.5,3.5-4.4,4.4c-1.2,1.1,1.4,4.9-1.3,6.3c-0.2,0.1-5.4,5.9,3.1,4.8
											c1.3-0.2,3.8,0.3,4.9,0.4c0.3,0-0.2-0.3-0.1-0.7c0.2-1.3,1.7-3.8,2.7-3c0,0-1.2,5.9,0.5,7c0.4,0.3,1.4,0,1.7,0.3
											c0.3,0.4-0.8,1.1-1,1.5c-0.7,1.4,0.8,4.9,0,6.3c-1.4,2.6-9.8,3.3-9.9,6.3c-0.1,1.3,3.4,2.3,4.2,3.3c1,1.3,1.3,4.8,3.2,5.8
											c2.9,1.6,5.2,3.1,6.4,2c1-1-2.4-4.6-2.2-5.2c0.3-1,3.6,5,5.2,4.4c3.1-1.1-1.7-11.2-0.4-13.2c0.4-0.6,2-1.2,2.6-1.7
											c1.7-1.2,7-1.8,7.3-3.9c0.2-1-2.5-2-2.9-2.9c-0.4-1.1,0.8-4.8,0-4.6c-1.6,0.3,2-5-1.7-8.1c-3-2.6-4-1.6-3.3-2.7
											c0.2-0.3,0.2-6.4-1.4-4.8c0,0,0,0,0,0c-1.2-0.2-4.4,3.2-5.4,2.2c-1.1-1.1-2.7-1.6-2.8-2.7c-0.3-2,1.7-3.3,1.1-4.1
											c-0.9-1.2-2.2,1.1-4.6,1.4C-2.3,244.6-1.9,244.6-2.4,245.6L-2.4,245.6z M-1.3,260.7c0-0.1,0.1,0,0.1,0.1
											C-1.2,260.9-1.4,260.8-1.3,260.7z"/>
										<path class="st15" d="M2.7,265.4c0.2,0.7,1-0.1,0.3-0.6C2.7,264.7,2.6,265.1,2.7,265.4z"/>
										<path class="st15" d="M151.1,304.9c1.2,0.7,2.8,3.5,3.2,5.7h5.2c1.1-0.9,2.2-1.8,2.8-2.6c0.8-1.1,3-3.5,2.6-4.8
											c-0.7-2.2,2.3-7.6-3.8-8.4c-2-0.3,3.7-12.7,5.1-10.5c6.1,9.2,2.7,5.2,2.3,7c-0.5,2.2-1.1,7.1,0.2,8.9
											c1.6,2.1,12,0.1,12.2,4.1c0.2,3.1-7.2,2.6-8.6,5.2c0,0.1,0.8,0.6,1.7,1.1h103c-6.1-10.4-12-19.1-16.5-24.5
											c-4.1-4.9-22.5-14.5-31.1-17.6c-3.8-1.3-5.8-4-7.7-2.5c-4.1,3.3,14.4,14.1,10.8,18c-3.5,3.8-16.1-10.2-17.9-10.7
											c-0.8-0.2,7,7.8,5.5,7.9c-1.6,0.1-7.9-2.9-10.5-2.2c-1.9,0.5-4.8,4.3-6.7,4.1c-2.1-0.3-4.1-7.7-5.8-6.4
											c-1.8,1.3,5.2,7.9,4,8c-0.6,0.1-4,0.1-4.6,1.1c-0.6,1,1.4,3.7,0.5,4.4c-1.2,0.9-4.8-3.5-5.7-2.3c-0.8,1,3.9,3.1,3,4
											c-2.8,2.7-13.1-9-11.2-10.8c11.5-10.8,6.3-5.1,4.8-6.3c-2.9-2.4-14.9-6-13.9-6.4c0.1,0,2-0.4,2-0.9c0-1.4-4.9-2.3-4.9-2.2
											c-1.6,2.9-1.9-0.4-2.5-0.1c-1.2,0.7-2.2,1.6-5.6-0.4c-0.4-0.2-0.9-0.8-1.1-0.6c-0.3,0.3,0.7,1.2,0.5,1.4
											c-1.9,2.3-2.8,3.1-4.1,1.9c-0.4-0.4-0.1-1.1-0.7-1.3c-1.3-0.5-2.1,4-1.9,4.4c1,1.6-2-1.3-2.6-1.9
											c-2.4-2.3-2.6,1.4-1.5,3.4c0.6,1,3.6-1,3.7,0.3c0.2,4.7-4.1,9-5.7,11.8c-1.5,2.5-7.4,5.3-8.6,8
											c-1.4,3.1-2.7,11.2-0.3,13.6C142.6,307.7,148.9,303.6,151.1,304.9L151.1,304.9z M238.5,281.4c1.2-0.8,1.8,1.9,2.2,2.7
											c0.2,0.3,0.3,1.7-0.5,1.6C238.8,285.5,237.1,282.3,238.5,281.4L238.5,281.4z"/>
										<path class="st15" d="M158.2,267.9C158,267.9,158.4,268,158.2,267.9L158.2,267.9z"/>
										<path class="st16" d="M191.1,310.7h75.8c-24.5-41.5-64-73-111-87.2C186.9,238.1,193.1,271.4,191.1,310.7z"/>
									</g>
								</g>
							</g>
						</g>
					</g>
				</g>
				<path class="st0" d="M72.4,123c0,0.3,0.1,1,0.2,2.1c0.1,0.6,0,1-0.2,1.3c-0.1,0.1-0.4,0.2-0.8,0.2c-1.1,0-2.4-0.2-4.1-0.7
					c-1.8-0.5-3-1.1-3.8-1.8c-0.3-0.3-0.7-1.3-1.3-2.9c-0.7-2.2-1.4-4-2.1-5.5c-1.2,0.1-2.9,0.5-5.1,1c-2.2,0.6-3.6,1-4.2,1.4
					c-0.2,1.4-0.6,3.1-1,5c0,0.5-0.1,0.9-0.1,1.3c0,0.4-0.3,0.7-0.7,0.9c-0.1,0.1-0.2,0.1-0.4,0c-0.8-0.1-2.1-0.7-4.1-1.8
					c-1.9-1.1-3-1.9-3.1-2.1c-0.2-0.5-0.1-1.6,0.3-3.3c0.6-2.5,0.9-4.1,1-4.6c-0.8-0.8-1.2-1.6-1.3-2.3c0-0.2,0-0.4,0-0.5
					c0-0.4,0.9-0.9,2.6-1.6c0.9-7.1,1.7-14.3,2.6-21.6c0-0.4-0.1-1.2-0.3-2.2c-0.2-0.9-0.2-1.5,0-1.7c0.1-0.2,0.5-0.2,1.1-0.2
					c1.5,0.1,3.7,0.6,6.6,1.5c2.9,0.9,4.7,1.6,5.3,2.3c0.8,3.9,2.4,9.8,4.9,17.4C67.6,113.7,70.2,119.7,72.4,123L72.4,123z
					 M57.5,107.9c-0.8-2.1-1.2-3.6-1.4-4.3c-0.7-2.3-1.3-4.7-1.9-7.2c-0.4,1.6-0.7,3.9-1.1,6.8c-0.4,3-0.6,4.9-0.5,5.6
					C53,108.7,54.7,108.4,57.5,107.9L57.5,107.9z"/>
				<path class="st0" d="M66.8,123c0.1,1.2,0.1,2.2,0,3.3l4.1-5.4c-0.7,0.1-1.9-0.6-2.6-0.8c-1.1-0.4-0.1,1.4-0.3-0.5
					c-0.3-2.2-1.8-4.8-2.7-6.8c-1.1-2.5-4.1-2.9-6.4-2.6c-3.3,0.5-7.8,1.1-10.7,3c-1.7,1.1-2.3,2.6-2.8,4.4
					c-0.3,1.1-0.5,2.2-0.7,3.2c-0.1,0.5-0.2,1-0.3,1.5c-0.1,1-0.1,1-0.1,0.1l4.9-2.8c0.7-0.1,0.1,0.1-0.3-0.2
					c-0.4-0.3-2.4-1.7-3.1-1.8c-0.9-0.6-0.7-0.3,0.6,0.8c0.8,1.5,1.2,1.6,1.2,0.3c0.4-0.5,0.5-2,0.6-2.7c0.1-0.7,0.9-5.3-0.4-5.4
					c0.4,0-4.6,5.4-0.8,3.2c1.1-0.6,1.8-1.6,2.3-2.7c1.7-4.2,1.4-10.2,2-14.7c0.3-2.4,0.6-4.8,0.9-7.3c0.1-1.4,0.2-2.1,0.1-3.4
					c-0.1-1.3,0.3-3-0.3-0.9L48,88.8c1.1-0.2,3.6,1,4.7,1.4l1.6,0.5c1.2,0.7,1.4,0.5,0.5-0.4c-0.5-1-0.7-1-0.4-0.2
					c0.1,0.4,0.2,0.8,0.3,1.1c0.7,4.3,2.4,8.7,3.7,12.8c2.4,7.4,4.9,15.3,9.1,21.8c4,6,13.7,0.4,9.7-5.7c-5.7-8.6-8.4-19.6-11-29.4
					c-1.2-4.5-1.6-7.8-6.2-9.9c-4.6-2-9.9-3.7-15-2.9c-1.9,0.3-3.4,2.2-3.9,3.9c-0.5,1.7-0.1,3,0,4.7c0.1,2.4-0.4,4.8-0.6,7.1
					c-0.6,5.1-1.2,10.1-1.8,15.2l2.8-4.9c-5.3,2.5-6.9,7.4-3.2,12.2l-0.6-4.3c-0.5,3.4-2.3,7.2-1.4,10.6c0.9,3.3,4.2,5.1,7,6.6
					c2.7,1.4,5.9,2.7,8.8,1c3.6-2.1,3.7-6.9,4.4-10.6l-2.6,3.4c2.2-1.2,5.5-1.6,8-1.9l-6.4-2.6c1.7,3.8,2.1,8.3,5.8,10.8
					c3.5,2.3,8.4,3.5,12.5,2.6c2.6-0.6,3.8-3,4.1-5.4c0.1-1.2,0.1-2.2,0-3.3C77.5,115.8,66.3,115.7,66.8,123L66.8,123z"/>
				<path class="st0" d="M62.9,106.4c-1.3-3.8-2.5-7.5-3.3-11.4c-1.2-5.4-9.7-5.4-10.8,0c-1,4.4-2.1,9.4-1.9,13.9
					c0.1,3.5,3.5,6.6,7.1,5.4c1.6-0.5,3.3-0.7,5-1C61.9,112.8,63.6,109.2,62.9,106.4c-0.9-3.1-3.9-4.5-6.9-3.9c-1.7,0.3-3.4,0.5-5,1
					l7.1,5.4c-0.2-3.6,0.7-7.5,1.5-10.9H48.7c0.8,3.9,2,7.7,3.3,11.4c1,2.9,3.8,4.8,6.9,3.9C61.7,112.6,63.9,109.3,62.9,106.4
					L62.9,106.4z"/>
				<path class="st0" d="M98.9,99.3c-0.6,1.1-1.7,1.5-3.3,1.4c-0.2,0-0.4,0-0.6,0c-0.1,0-0.2,0-0.3,0c-0.1,0-0.2,0-0.4,0
					c-0.5,0-0.8,0-1,0c-0.5,0.2-1.1,0.4-1.6,0.6c0.3,0.6,0.5,1.3,0.7,2.3c0.2,1,0.5,2.2,0.7,3.7c0.3,2.1,0.7,4.7,1.1,7.6
					c0.1,0.2,0.2,0.4,0.4,0.7c0.2,0.3,0.4,0.5,0.6,0.8c0,0,0,0-0.1,0c0.4,0.5,0.7,0.8,1,1.1c0.2,0.3,0.4,0.5,0.5,0.7
					c0.2,0.5,0.3,1.1,0.2,1.7c-0.1,0.6-0.3,1.2-0.7,1.8c-0.3,0.4-0.7,0.9-1.2,1.2c-0.5,0.4-1,0.7-1.5,0.9c-1.4,0.6-2.7,0.5-4-0.4
					c-0.6-0.4-0.9-0.8-1.1-1.3c-0.1-0.3-0.2-0.8-0.4-1.5c-0.1-0.7-0.3-1.3-0.3-1.9c0-0.2-0.1-0.4-0.1-0.5c-0.5-2.6-1-5.2-1.5-7.9
					c-0.3-1.2-0.5-2.5-0.7-3.7c-0.2-1.3-0.5-2.6-0.7-4c-0.3,0-0.5,0.1-0.7,0.1c-0.2,0-0.4,0.1-0.7,0.2c-0.6,0.1-1.1,0.2-1.7,0.3
					c0.4,2.6,0.8,5.1,1.2,7.7c0.2,1.3,0.4,2.6,0.7,3.9c0.2,1.3,0.5,2.6,0.7,3.9c0.2,1.2,0.4,2.4,0.6,3.5c0,0.3,0.1,0.5,0.1,0.9
					c0,0.3,0,0.7,0,1c0,1.1-1,1.9-2.8,2.1c-1.3,0.1-2.4,0-3-0.5c-0.7-0.5-1.2-1.1-1.5-2c-0.1-0.3-0.2-0.8-0.3-1.3
					c-0.1-0.5-0.2-1-0.2-1.5c-0.1-1-0.2-1.8-0.3-2.4c-0.3-1.4-0.5-2.7-0.8-4c-0.2-1.2-0.5-2.4-0.7-3.5c-0.2-1.1-0.5-2.2-0.7-3.2
					c-0.2-1-0.5-2.1-0.7-3.1c0,0,0,0,0,0c-0.1,0-0.1,0-0.2,0c-0.1,0-0.2,0-0.2,0c-0.8,0.1-1.5,0.1-1.9,0c-0.7-0.2-1.4-0.6-2-1.4
					c-0.3-0.3-0.6-0.6-0.9-0.9c-0.3-0.3-0.6-0.7-0.8-1c-0.3-0.4-0.5-0.8-0.7-1.2c-0.2-0.4-0.2-0.9-0.2-1.4c0,0,0-0.3,0.2-0.8
					c0-0.1,0.1-0.2,0.1-0.3c0.2-0.4,1.1-0.8,2.9-1.2c1.8-0.5,4.4-0.9,7.8-1.4c4.4-0.7,7.7-1.4,10-1.9c2.3-0.5,3.5-0.9,3.7-1
					c0.3-0.2,0.6-0.5,0.9-0.7c0,0,0,0,0,0.1c0.4-0.4,0.7-0.6,1.1-0.8c0.4-0.2,0.8-0.3,1.1-0.3c1,0,2,0.6,3.2,1.8c1.4,1.5,2,3,2,4.6
					c0,0.4-0.1,0.8-0.2,1.1C99.3,98.4,99.2,98.8,98.9,99.3C98.9,99.2,98.9,99.2,98.9,99.3L98.9,99.3z"/>
				<path class="st0" d="M94.9,95.3c0.7-0.8,0.5-0.2-0.5-0.4c-1.5-0.2-2.9,0.3-4.3,0.8c-2.7,1-5.1,3.8-3.9,6.9
					c1.9,5.2,0.8,12,4.1,16.5l7.7-7.7l-0.1,0c-5.5-3.9-10.7,4.3-6.8,8.8c2.1,0.5,2.8,0.1,2.2-1.3c-0.1-0.6-0.2-1.2-0.3-1.9
					c-0.3-1.5-0.6-3-0.8-4.4c-0.7-3.9-1.5-7.8-2.2-11.7c-0.6-3.2-4.2-4.4-6.9-3.9c-1,0.2-2,0.4-3.1,0.6c-3.2,0.6-4.4,4.1-3.9,6.9
					c0.5,3.4,1.1,6.9,1.7,10.3c0.2,1.3,0.5,2.6,0.7,3.9c0.4,2.5-0.4,4.9,2.4,3.2c2.3-1.4,1.6-2,1.3-4.5c-0.2-1.3-0.5-2.6-0.7-3.9
					c-0.7-3.5-1.4-7-2.2-10.4c-0.5-2.3-3.1-4.3-5.4-4.1c-1,0.1-1.7,0.1-1.6,0.2c1.2,0.5,1.5,0.4,0.7-0.2c-0.5-0.8-0.7-0.6-0.5,0.7
					c-2.8,3.6,0.1,2.1,1.7,1.8c1.7-0.3,3.4-0.6,5.1-0.9c5.7-1,12.4-1.4,17-5l-9.4-2.5l0,0.1c0.5,3.5,5.5,5.3,8.3,3.4
					c-1.4-0.1-1.8-0.1-1.2-0.1c0.1,0,0.2,0,0.1,0.1c-3.9,6.1,5.8,11.8,9.7,5.7c5.5-8.6-5.2-21.7-14.3-15.3l8.3,3.4l0-0.1
					c-0.7-4.7-6.5-4.7-9.4-2.5c1.7-1.3,0.9-0.4-0.6-0.1c-1,0.2-2.1,0.5-3.1,0.7c-2.8,0.6-5.5,1.1-8.3,1.6
					c-4.1,0.7-10.2,0.9-13.1,4.1c-3.4,3.8-1.7,9.3,1.4,12.6c1.5,1.6,3.2,3.1,5.3,3.7c1,0.3,6.9-0.1,3.9,0.1l-5.4-4.1
					c1.3,5.9,1.9,11.9,3.3,17.7c1.3,5.6,6.1,8.8,11.8,7.7c5.7-1.1,7.4-5.7,6.6-10.9c-0.9-6.4-2.2-12.7-3.2-19l-3.9,6.9
					c1-0.2,2-0.4,3.1-0.6l-6.9-3.9c0.9,5.2,2,10.4,3,15.6c0.7,3.8,1.5,6.9,5.2,8.9c4.6,2.6,10.3,0.7,13.3-3.4
					c3.2-4.4,1.8-9-1.4-12.8l-6.8,8.8l0.1,0c4.5,3.2,11-3.2,7.7-7.7c-1.3-1.8-1.1-4.9-1.4-7.1c-0.4-2.3-0.7-4.5-1.5-6.7l-3.9,6.9
					c3.5-1.4,6.7,0,9.7-3.3C107.8,97.9,99.8,89.9,94.9,95.3L94.9,95.3z"/>
				<path class="st0" d="M113.8,88.9c1.9,0.5,3.5,1.9,4.9,4.4c1.3,2.2,2.2,5,2.7,8.2c0.7,4.5,0.6,8.4-0.3,12c-1,3.8-2.8,5.9-5.3,6.2
					c-0.9,0-2.3,0.1-4.2,0.2c-1.3,0.2-2.6,0.2-3.7,0.2c-1.9,0-3.6-1.2-5.1-3.6c-1.4-2.2-2.4-5-2.9-8.4c-0.6-3.4-0.6-6.7,0-9.8
					c0.6-3.4,1.9-6.1,3.8-7.9c0.3-0.3,0.8-0.5,1.4-0.7c0.6-0.2,1.9-0.2,3.9-0.2C110.2,89.2,111.8,89,113.8,88.9z M109.1,95
					c-0.9,0.2-1.5,1.6-1.9,4c-0.4,2.4-0.4,4.6-0.1,6.6c0.4,2.4,1.1,4.7,2,6.8c1,2.3,1.9,3.4,2.8,3.4c1.1,0,1.8-1.4,2.1-4.2
					c0.3-2.6,0.3-5.5-0.2-8.6c-0.3-1.7-0.8-3.3-1.5-4.9C111.5,95.7,110.4,94.7,109.1,95L109.1,95z"/>
				<path class="st0" d="M112.3,94.3c3.9,1.4,4.2,11.4,3.9,14.4c-0.1,1.6-0.7,4.9-1.5,5.4c-0.5,0.3-5.5,0.8-6.4,0.4
					c-3.5-1.8-3.5-10.8-3.1-13.9c0.2-1.4,1-5.1,1.6-5.4c1.2-0.6,5.4-0.5,6.9-0.7c7.2-0.5,7.2-11.8,0-11.2c-4,0.3-9.5,0-12.9,2.3
					c-4.3,2.8-6.1,8.7-6.7,13.6c-1.1,9.1,1.4,24.4,12.4,26.4c3.9,0.7,10.1,0.5,13.6-1.5c4.4-2.4,6.3-7.5,7-12.2
					c1.5-10-1.1-24.5-11.9-28.4C108.4,81,105.5,91.9,112.3,94.3L112.3,94.3z"/>
				<path class="st0" d="M106.3,90.1c-5.9,3.2-5.4,12.8-4.2,18.4c1.1,5.3,4.5,14.6,11.7,12.6c6.6-1.8,6.6-11.2,6-16.6
					c-0.6-6-3-15.4-10.6-15.2c-7.2,0.2-7.3,11.5,0,11.2c-2-1.4-2.6-1.5-1.9-0.4c0.3,0.6,0.5,1.2,0.7,1.8c0.3,1.1,0.5,2.2,0.7,3.3
					c0.1,1.2,0.2,2.4,0.2,3.6c0,0.1-0.5,3.5-0.5,3.5l6.4-1.6c-0.3-0.6-0.6-1.2-0.8-1.8c-0.4-1.1-0.7-2.3-1-3.4
					c-0.2-1.3-0.3-2.5-0.3-3.8c0.1-1.5,1.3-3-0.6-1.9C118.4,96.4,112.7,86.7,106.3,90.1L106.3,90.1z"/>
				<path class="st0" d="M146.2,80.4c0.1,0.5,0.1,1.2,0.2,1.9c0,0.7,0,1.4-0.1,2.1c-0.1,0.7-0.2,1.2-0.4,1.8
					c-0.2,0.5-0.5,0.8-0.8,0.9c-0.8,0.2-1.6,0.4-2.6,0.6c-1,0.1-1.7,0.3-2.3,0.5c0.9,1,1.8,2.2,2.7,3.5c0.8,1.3,1.4,3,1.8,5
					c0.3,1.7,0.3,3.5,0,5.3c-0.3,1.8-0.9,3.6-1.7,5.2c-0.8,1.7-2,3.1-3.3,4.4c-1.4,1.3-3,2.2-4.9,2.8c-0.9,0.3-1.8,0.4-2.8,0.3
					c-1-0.1-2-0.3-3-0.6c-1-0.3-2-0.8-2.9-1.3c-0.9-0.5-1.8-1.1-2.5-1.8c-0.7-0.6-1.4-1.3-1.8-2c-0.5-0.7-0.8-1.3-0.9-1.9
					c-1.1-6.7-0.9-12.2,0.6-16.3c1.5-4.1,4-6.6,7.4-7.6c0.2-0.1,0.5-0.1,0.9-0.2c0.4-0.1,0.9-0.2,1.4-0.4c0.5-0.1,1-0.3,1.5-0.4
					c0.5-0.1,0.9-0.2,1.3-0.3c1.8-0.6,3.1-1,4-1.3c0.9-0.3,1.6-0.6,2.1-0.7c0.5-0.2,0.9-0.3,1.2-0.4c0.3-0.1,0.7-0.3,1.2-0.5
					c0.4-0.2,0.8-0.3,1.3-0.3c0.4,0,0.8,0,1.2,0.1c0.4,0.1,0.7,0.3,1,0.6C146,79.6,146.1,79.9,146.2,80.4L146.2,80.4z M131.1,90
					c-1.4,0.9-2.4,2.6-3,5.1c-0.5,2.5-0.5,5.8,0.2,9.7c0.1,0.6,0.3,1.1,0.7,1.5c0.4,0.5,0.8,0.9,1.4,1.2c0.5,0.3,1.1,0.6,1.7,0.8
					c0.6,0.2,1.2,0.3,1.8,0.3c0.4-0.6,0.8-1.4,1.2-2.4c0.4-1,0.7-2.1,0.9-3.3c0.2-1.2,0.4-2.4,0.4-3.8c0-1.3,0-2.6-0.2-3.9
					c-0.3-1.7-0.8-2.9-1.6-3.8C133.8,90.8,132.7,90.2,131.1,90L131.1,90z"/>
				<path class="st0" d="M140.6,80.4c0,0.3,0.1,3.3,0.2,3.4c2.3-1.7,2.4-2.3,0.3-1.6c-0.8,0.1-1.6,0.3-2.3,0.5
					c-4.4,1.1-5.1,6.3-2.5,9.4c3.6,4.1,4.2,10.2,0.4,14.5c-2.3,2.6-4.8,3-7.8,1.3c-3-1.7-3-3.5-3.2-6.9c-0.2-4.6,0-10.7,5-12.6
					c2.4-0.9,5.1-1.2,7.6-2.1c1.1-0.4,2.1-0.7,3.2-1.1l1.2-0.4c2.2-0.6,1.8-1.1-1.3-1.5c3,6.6,12.7,0.9,9.7-5.7
					c-2.7-5.9-8.5-4.6-13.5-2.9c-4.6,1.6-9.9,2.1-14.1,4.6c-9.3,5.5-11.7,21.5-7.6,30.8c4.8,11,20.2,13.1,28.3,4.9
					c8.8-8.8,7.8-21.9,0.1-30.9l-2.5,9.4c3.5-0.9,7-0.9,9.1-4.5c1.4-2.5,1.4-5.8,1.1-8.5C151,73.3,139.7,73.2,140.6,80.4L140.6,80.4
					z"/>
				<path class="st0" d="M128.3,85.1c-5.4,4.1-6.5,10.4-5.9,16.9c0.3,3.4,0.8,6.5,3.4,8.9c2.3,2.2,5.2,3,8.2,3.3
					c2,0.2,3.9-1.2,4.9-2.8c5.1-8.2,5.4-24.5-6.2-27c-7.1-1.5-10.1,9.4-3,10.8c2.1,0.4,0.4-0.7,0.9,0.3c0.5,1.2,0.3,2.9,0.3,4.2
					c-0.1,2.1-0.6,4.2-1.7,5.9l4.9-2.8c-0.8-0.1-0.7-1.1-0.2,0.3c-0.4-1-0.3-2.8-0.3-3.9c0-1,0.1-4.3,0.5-4.6c2.4-1.9,3.7-4.8,2-7.7
					C134.6,84.8,130.7,83.3,128.3,85.1L128.3,85.1z"/>
				<path class="st0" d="M151.2,85.9c-0.3,0.2-0.6,0.4-1,0.6c-0.4,0.2-0.7,0.4-1.1,0.6c-0.3,0.2-0.6,0.4-0.9,0.6
					c-0.3,0.2-0.5,0.3-0.6,0.3c-0.6,0.2-1.2,0.2-1.8,0.1c-0.6-0.1-0.9-0.6-1.1-1.3c-0.2-1-0.2-2,0-3.1c0.1-1,0.4-2,0.8-2.8
					c0.4-0.9,0.8-1.6,1.3-2.2c0.5-0.6,1-1,1.6-1.1c0.5-0.2,1.2-0.3,1.8-0.3c0.7,0,1.4-0.1,2.1-0.1c0.8,0,1.5,0,2.3,0.1
					c0.8,0.1,1.5,0.2,2.2,0.2c1.4-1.3,2.8-2.4,4.3-3.2c1.5-0.9,3-1.5,4.5-1.9c1.1-0.3,2-0.4,2.7-0.1c0.7,0.2,1.2,0.7,1.3,1.5
					c0.2,1.1,0.2,2.2,0.1,3.2c-0.2,1.1-0.4,2.1-0.8,3.1c-0.4,0.9-0.9,1.8-1.4,2.4c-0.6,0.7-1.2,1.1-1.8,1.3
					c-0.3,0.1-0.7,0.2-1.2,0.3c-0.5,0.1-1.1,0.2-1.7,0.2c-0.6,0.1-1.1,0.1-1.7,0.2c-0.5,0.1-0.9,0.1-1.2,0.1
					c-0.2,0.5-0.3,1.1-0.4,1.8c-0.1,0.8-0.1,1.6-0.1,2.4c0,0.8,0,1.6,0.1,2.4c0,0.7,0.1,1.3,0.2,1.7c0.2,1,0.6,1.6,1.3,1.8
					c0.7,0.2,1.3,0.3,2,0.1c0.5-0.1,0.9-0.3,1.4-0.6c0.5-0.3,1-0.5,1.5-0.8c0.5-0.3,1-0.6,1.5-0.9c0.5-0.3,1.1-0.5,1.6-0.7
					c0.9-0.3,1.5-0.3,1.9-0.2c0.4,0.2,0.7,0.6,0.8,1.1c0.2,0.9,0.2,1.8,0.1,2.7c-0.1,1-0.3,1.9-0.6,2.8c-0.3,0.9-0.8,1.7-1.5,2.4
					c-0.7,0.7-1.5,1.3-2.5,1.6c-1.1,0.4-2.4,0.7-4,0.8c-1.6,0.2-3.2,0.1-4.7-0.1c-1.5-0.2-2.9-0.7-4.1-1.4c-1.2-0.7-1.9-1.8-2.1-3.2
					c-0.4-2.3-0.4-4.5,0-6.8c0.4-2.3,0.9-4.5,1.6-6.7C153.1,85.4,152.1,85.6,151.2,85.9L151.2,85.9z"/>
				<path class="st0" d="M148.4,81c-0.7,0.4-1.4,0.8-2.1,1.2c-1.7,0.8-1.1,1,1.7,0.6l2.6,3.4c-0.5-1.1-0.3-2.6,0.4-3.7
					c-0.9,0.3-0.9,0.4-0.2,0.3c0.5,0,1.1-0.1,1.6,0c2.2,0,4.6,0.7,6.7-0.1c1.4-0.6,2.3-1.7,3.5-2.6c0.2-0.2,4.7-2.4,4.7-2.3
					l-2.9-2.4c0,1.1-0.3,2.2-0.8,3.2c-0.8,0.6-2.5,0.4-3.5,0.5c-2.6,0.3-4.6,1.6-5.4,4.1c-1.3,4.1-1.5,10.8,1.1,14.4
					c1.6,2.1,4.1,3.1,6.7,3c2.7-0.1,6.1-3.5,8.4-3.2l-4-1.6c-0.7-2-0.9-2-0.7-0.2c0,1.1-0.5,1.7-1.6,1.8c-1.2,0.6-4.1,0.7-5.3,0.2
					c-3.5-1.4-0.8-8.1,0-11c1.2-4.2-2.8-8-6.9-6.9c-0.9,0.2-1.9,0.5-2.8,0.7c-7,1.9-4,12.7,3,10.8c0.9-0.2,1.9-0.5,2.8-0.7l-6.9-6.9
					c-2,7.2-4.6,18.2,3.1,23c5.7,3.6,15.7,3.5,20.9-0.8c4.6-3.7,7.4-13.5,2.3-18c-2.6-2.3-7.6-2.3-10.3,0c-2.6,0.8-2.3,2.2,0.8,4.4
					c-0.1-0.7-0.1-1.4-0.1-2.1c0-1.3-0.1-2.6,0.3-3.9l-5.4,4.1c4.1-0.5,8.5-0.6,11.5-3.8c3.1-3.4,4.7-9,3.7-13.5
					c-2.6-12-16.8-4.3-22.4,0.6l4-1.6c-8.1-0.9-15.4,0.5-17.4,9.6c-0.9,3.9-0.7,9,3.2,11.3c4.1,2.4,7.8,0,11.4-2
					C160.3,87.1,154.7,77.4,148.4,81L148.4,81z"/>
				<path class="st0" d="M183.8,68.7c1.9,0.3,3.5,1.5,4.9,3.5c1.3,1.8,2.2,4.2,2.7,7c0.7,3.9,0.6,7.6-0.3,11c-1,3.7-2.8,5.8-5.3,6.3
					c-0.9,0.1-2.3,0.3-4.2,0.6c-1.3,0.3-2.6,0.5-3.7,0.5c-1.9,0.2-3.6-0.8-5.2-3c-1.4-2-2.4-4.5-2.9-7.7c-0.6-3.2-0.6-6.2,0-9.1
					c0.6-3.2,1.9-5.6,3.8-7.3c0.3-0.3,0.8-0.5,1.4-0.7c0.6-0.2,1.9-0.3,3.9-0.4C180.2,69.2,181.8,68.9,183.8,68.7L183.8,68.7z
					 M179.2,74.1c-0.9,0.2-1.5,1.4-1.9,3.6c-0.4,2.2-0.4,4.2-0.1,6c0.4,2.2,1.1,4.2,2,6.2c1,2.1,1.9,3.1,2.8,3
					c1.1-0.1,1.8-1.5,2.1-4.1c0.3-2.5,0.3-5.1-0.2-7.8c-0.3-1.5-0.8-2.9-1.5-4.3C181.5,74.6,180.4,73.8,179.2,74.1L179.2,74.1z"/>
				<path class="st0" d="M182.3,74.1c3.9,1,4.2,8.3,3.9,11.5c-0.1,1.2-0.5,4.7-1.5,5.3c-0.7,0.5-5.6,1.1-6.3,0.9
					c-3.3-1-3.5-8.8-3.2-11.5c0.2-1.6,0.5-4.3,2-5.1c1.3-0.8,5-0.7,6.6-0.9c7.1-0.7,7.2-12,0-11.2c-4.3,0.4-10,0.4-13.5,3
					c-4.1,3-5.8,8.6-6.3,13.4c-0.8,8.6,2.5,23.2,13.4,23.6c3.7,0.1,9.4-0.5,12.7-2.4c4.3-2.5,6.3-7.4,7-12.1
					c1.4-9.3-1.4-22.7-11.9-25.4C178.3,61.5,175.3,72.3,182.3,74.1L182.3,74.1z"/>
				<path class="st0" d="M176.3,69.3c-5.7,3-5.5,11.9-4.2,17.2c1.2,5.2,4.8,13.7,11.7,11.7c6.4-1.8,6.6-10.7,6-16
					c-0.7-5.6-3.4-14.4-10.6-13.8c-7.2,0.6-7.2,11.9,0,11.2c-2.1,0.2-1.5-0.6-0.9,1.6c0.3,1,0.4,2,0.4,3c0.1,1.1,0.1,2.2,0,3.2
					l-0.1,1c-0.7,1.9,0,1.5,2-1h3c1.2,1,1.5,1,0.9,0.1c-0.3-0.5-0.5-1-0.7-1.6c-0.4-1-0.7-2.1-0.9-3.1c-0.1-0.9-0.2-1.7-0.1-2.6
					l0.1-1c0.6-1.5,0.3-1.6-0.7-0.3C188.4,75.6,182.7,65.9,176.3,69.3L176.3,69.3z"/>
				<path class="st0" d="M191.3,68.1c-0.4,0.1-0.8,0-1.2-0.2c-0.4-0.3-0.8-0.6-1.1-1.1c-0.4-0.5-0.7-1-1-1.6
					c-0.3-0.6-0.5-1.2-0.6-1.7c-0.2-1,0-1.8,0.6-2.5c0.6-0.7,1.5-1,2.6-0.9c0.8-0.4,1.6-0.7,2.5-1.1c0.9-0.3,1.9-0.6,2.9-0.8
					c2.1-0.4,3.8-0.4,5.2,0c1.4,0.4,2.3,1.1,2.9,2.2c3.1,6.2,6.2,12.5,9.4,19.1c0.2,0.4,0.5,0.8,1.1,1.2c0.6,0.4,1.2,0.6,1.8,0.5
					c0.7-0.4,1.2-0.4,1.5-0.2c0.3,0.2,0.6,0.6,0.7,1.1c0.1,0.4-0.1,1-0.4,1.7c-0.4,0.7-0.8,1.4-1.4,2.1c-0.6,0.7-1.2,1.3-1.8,1.9
					c-0.6,0.6-1.2,0.9-1.7,1.1c-1.1,0.3-2,0.2-2.7-0.3c-0.7-0.5-1.4-1.4-2.1-2.8c-1.5-3.1-2.9-6.1-4.4-9.1c-0.4,1.2-0.9,2.3-1.3,3.5
					c-0.4,1.1-0.8,2.3-1.1,3.4c-0.3,1.1-0.5,2.2-0.6,3.3c-0.1,1-0.1,2.1,0.1,3.1c0,0.5-0.2,1.1-0.6,1.7c-0.4,0.6-1.2,1.1-2.3,1.5
					c-0.5,0.1-1.1,0.2-1.7,0.3c-0.7,0-1.4,0-2-0.1c-0.7-0.1-1.2-0.3-1.8-0.6c-0.5-0.3-0.8-0.7-0.9-1.3c-0.1-0.5,0-1.4,0.3-2.5
					c0.3-1.1,0.7-2.6,1.4-4.6c0.7-1.9,1.6-4.3,2.6-7.1c1.1-2.8,2.4-6.2,3.9-9.9c-0.3-0.5-0.5-1-0.7-1.3c-0.2-0.3-0.4-0.5-0.5-0.7
					c-0.2-0.2-0.4-0.2-0.6-0.2c-0.2,0-0.5,0-0.9,0.1c-0.7,0.2-1.3,0.4-1.8,0.7c-0.5,0.3-1,0.6-1.4,0.9c-0.4,0.3-0.9,0.6-1.3,0.9
					C192.3,67.8,191.8,68,191.3,68.1L191.3,68.1z"/>
				<path class="st0" d="M192.8,62.7c2.1,0.4-5.4,4.1,0.7,2.2c1.7-0.5,3.6-1.6,5.4-1.4c1,0.2,1.1,0.1,0.4-0.3c0.5,1,1,2.1,1.6,3.1
					c1,2.1,2.1,4.2,3.1,6.3c1.8,3.6,3.1,8.5,6,11.4c1.1,1.1,2.6,2.1,4.1,2.5c0.6,0.2,6.4,0.6,2.5-0.1l-3.4-2.6
					c0.1-1.9-0.1-2.4-0.7-1.4c-0.3,0.4-0.7,0.8-1.1,1.2l2.7,0.5c-0.4-0.7-0.7-1.3-1-2c-1.4-2.8-2.7-5.6-4-8.4
					c-2.3-4.7-8.7-2.8-10.3,1.3c-1.1,3.1-2.3,6.1-2.8,9.3c-0.2,1.3-0.2,2.6-0.4,3.9c1.3-0.5,1.5-0.7,0.6-0.6
					c-1.6-0.1-1.1,0.7,1.5,2.7c0.8-0.5,1.7-5.4,2.1-6.4c0.9-2.6,1.9-5.2,2.9-7.8c1.9-5,5.1-10.3,0.2-14.8c-4.5-4.1-8.7-0.3-13,1.5
					c-6.6,2.8-3.7,13.6,3,10.8c1.2-0.5,2.3-1,3.5-1.6c0.4-0.3,0.9-0.6,1.4-0.9c1.6-0.8,0.8-1.2-2.4-1l-0.6-4.3
					c-2.3,5.9-4.7,11.8-6.7,17.8c-1.6,4.8-3.1,10.8,2.1,14c4,2.4,10.2,1.9,13.7-1c2-1.7,3-4,3.1-6.6c0.3-4.4,1.1-7.6,2.7-11.7
					l-10.3,1.3c2.2,4.4,4,11.3,8.5,14c4.8,2.8,9.9,0.3,13.1-3.5c3-3.5,4.9-8.3,1.5-12.3c-0.5-0.6-5.6-4-6.5-2.1
					c0.4-0.9,3.7,3.7,1.4-1.2c-0.8-1.6-1.6-3.2-2.3-4.9c-2.3-4.7-4.3-11.6-8.6-14.8c-4.1-3.1-9.9-2.5-14.6-1
					c-4.2,1.4-9.3,2.8-9.8,8.6c-0.5,4.9,3.1,10.5,8,11.5C196.9,75,199.9,64.1,192.8,62.7L192.8,62.7z"/>
				<path class="st0" d="M218.7,69.3c-0.3-0.3-0.6-0.5-1-0.9c-0.4-0.3-0.8-0.7-1.2-1.1c-0.4-0.4-0.8-0.8-1.1-1.3
					c-0.3-0.5-0.6-1-0.7-1.6c-0.1-0.4,0-0.9,0.3-1.3c0.3-0.4,0.7-0.8,1.2-1.1c0.5-0.3,1.1-0.6,1.8-0.8c0.7-0.2,1.3-0.4,1.9-0.5
					c0.7-0.1,1.3,0.1,1.8,0.7c0.5,0.6,0.9,1.4,1.1,2.6c0.4-0.4,0.9-0.9,1.4-1.4c0.5-0.5,1.1-1,1.8-1.4c0.7-0.5,1.4-0.8,2.1-1.2
					c0.7-0.3,1.5-0.6,2.2-0.7c1.1-0.2,2.2-0.1,3.2,0.2c1,0.3,2,0.7,2.8,1.3c0.8,0.6,1.5,1.2,2,2c0.5,0.8,0.9,1.5,1,2.2
					c0.2,0.9,0.4,1.9,0.6,3.1c0.2,1.2,0.5,2.3,0.7,3.6c0.2,1.2,0.5,2.4,0.7,3.7c0.2,1.2,0.5,2.4,0.6,3.4c0.2,1.1,0.4,2,0.5,2.8
					c0.1,0.8,0.3,1.3,0.3,1.7c0.1,0.6,0.4,1.1,0.8,1.6c0.5,0.5,0.7,1.1,0.8,1.6c0.1,0.4-0.1,0.8-0.4,1.2c-0.3,0.5-0.8,0.9-1.4,1.3
					c-0.6,0.4-1.2,0.8-1.9,1.1c-0.7,0.3-1.4,0.5-2,0.6c-1,0.1-1.8,0-2.4-0.3c-0.7-0.4-1.1-1-1.2-2c-0.1-0.7-0.1-1.4,0-2.3
					c0.1-0.8,0.2-1.6,0-2.2c-0.1-0.6-0.3-1.5-0.5-2.7c-0.2-1.1-0.4-2.4-0.7-3.7c-0.2-1.3-0.5-2.7-0.8-4c-0.3-1.3-0.6-2.6-0.9-3.7
					c-0.3-1.1-0.6-2-1-2.8c-0.3-0.8-0.6-1.2-0.9-1.3c-0.4,0.1-0.9,0.4-1.4,0.7c-0.5,0.3-1,0.7-1.5,1.1c-0.5,0.4-0.8,0.9-1.1,1.3
					c-0.3,0.4-0.4,0.8-0.3,1.1c1,3.5,1.9,7.1,2.9,10.9c0.3,0.4,0.3,0.9,0,1.3c-0.3,0.4-0.7,0.8-1.3,1.2c-0.6,0.4-1.2,0.7-1.9,1
					c-0.7,0.3-1.4,0.5-2,0.6c-0.5,0.1-0.9,0.1-1.3,0c-0.4-0.1-0.7-0.2-0.9-0.4c-0.2-0.2-0.4-0.4-0.5-0.6c-0.1-0.2-0.2-0.5-0.3-0.7
					c-0.1-0.4,0-0.9,0.2-1.5C220.2,77.6,219.4,73.4,218.7,69.3L218.7,69.3z M230.1,50.6c0.2,0.2,0.1,0.5-0.2,0.8
					c-0.3,0.4-0.5,0.6-0.5,0.6c0.1,0.1,0,0.6-0.3,1.5c-0.4,1-0.6,1.4-0.6,1.5c0.1,0.8-0.1,1.3-0.4,1.5c-0.1,0.1-0.3,0.1-0.5,0.1
					c-0.3,0-0.6,0-1.1-0.1c-0.6-0.1-1.1-0.1-1.3-0.2c-1.1,0-1.7-0.1-1.9-0.1c-0.7-0.1-1.2-0.2-1.4-0.4c-0.1-0.1,0.2-0.7,0.9-1.8
					c0.8-1.3,1.3-2.1,1.4-2.2c0-0.1,0.1-0.4,0.1-1.1c0.1-0.5,0.2-0.8,0.4-0.8c0.6-0.2,1.6-0.2,3,0C229,50,229.8,50.2,230.1,50.6
					L230.1,50.6z"/>
				<path class="st0" d="M222.7,65.4c-1.5-1.3-1.7-3-2.7-0.3c-0.9,1.4-0.9,1.9,0,1.5c1.5-0.4,0.7-0.7-2.5-1c1.1,4,6.5,5.6,9.4,2.5
					c1.3-1.3,3.2-3.5,5.3-3.1c3,0.7,2.8,5.9,3.3,8.2c0.6,3.3,1.2,6.6,1.8,9.9c0.2,0.9,0.3,1.6,0.6,2.5c1.4,3.7,0.5,1,1.8-1.2
					l-0.6,0.3c-1.6,0.5-1.1,1.4,1.7,2.6c0.4-0.3,0.2-2.9,0.1-3.4c-0.2-2.6-0.9-5.3-1.4-7.9c-0.9-4.6-1.6-10.9-5.1-14.3
					c-1.9-1.8-4.6-2-6.8-0.9c-3.1,1.6-6.3,4.1-6.9,7.7c-0.9,4.7,2.6,9.1,2.7,13.7l1.6-4c0.1-0.1-1.9,1.5-1.8,1.2
					c2.6,3.3,3.7,3.9,3.2,1.8c-0.1-0.9-0.3-1.7-0.4-2.6c-0.6-3.6-1.3-7.2-2-10.8c-1.3-7.1-12.2-4.1-10.8,3c0.6,3,1.3,5.9,1.6,8.9
					c0.3,2.4,0,5,1.3,7.2c2.2,3.8,6.8,4.3,10.6,3.1c3.7-1.2,7.5-3.7,7.9-7.8c0.3-2.7-1-5.8-1.6-8.4c-0.3-1-1-2.5-1-3.6
					c0,1.5-1.1,1.5,1.3,0.3l-6.8-0.9c0.8,0.8,1.1,4.2,1.3,5.3c0.5,2.2,0.9,4.4,1.3,6.6c0.7,4.1-0.4,8.6,2.5,12
					c5.7,6.6,20.3,0.3,18.4-8.6c-0.3-1.4-1.3-2.6-1.8-3.9c-0.8-2.2-0.9-4.9-1.3-7.2c-0.9-4.8-1.2-10.5-4.1-14.5
					c-6.4-8.8-17.4-6.2-24,0.6l9.4,2.5c-1.9-7.1-8.3-9.1-14.5-5.5c-7.7,4.5-4.3,11.6,0.9,16.3C220.1,78.1,228.1,70.2,222.7,65.4
					L222.7,65.4z"/>
				<path class="st0" d="M225.3,53.4l0.1,0.2l-0.6-4.3l0.9-1.6l-0.9,1.1c-0.3,0.4-0.2,0.3-0.5,1c-0.4,1-0.5,1.9-0.4,2.9
					c0.1,1.1,0.2,1,0.1-0.4c0.1-1.3,0.1-1.6-0.1-0.8l0.2-0.4l-0.6,1.3c-0.1,0.2-0.2,0.5-0.3,0.7c-0.1,0.4-0.1,0.4-0.2,1
					c-0.1,0.3-0.1,0.6-0.1,1c0,1.3,0.4,0.4,1.2-2.7l2.5-1.4c0.5-0.1,1-0.1,1.4,0.1l-1.5-0.2c-0.5-0.1-1-0.1-1.6-0.2
					c-0.4,0-0.9-0.1-1.3-0.1c-0.9,0,0.9,0.2,1.1,0.3l2.6,3.4l0-0.1v3c-0.1,0.3-0.7,1.3-0.2,0.6c0.2-0.3,0.4-0.6,0.5-0.9
					c0.3-0.6,0.7-1.1,1.1-1.7c0.3-0.4,0.4-0.8,0.6-1.2c0.3-0.8,0.3-0.7,0.4-1.6c0.2-1.5,0.5-1.4-0.4,0.5l-2,2l-0.9,0.4
					c-0.9,0.1-1,0.1-0.6,0.1c0.4,0.1,0.8,0,1.2,0c0.5,0,0.7,0.2,0.1,0c1.5,0.4,0.4,0.4-1-0.8c2.2,1.9,5.8,2.3,8,0c2-2.1,2.4-5.9,0-8
					c-3.5-3.1-11.7-4-14.5,0.6c-0.3,0.6-0.6,1.2-0.7,1.8c0,0.2-0.6,2-0.3,2.3c-1.2-1,1.3-3,0.4-1.9c-0.2,0.2-0.3,0.5-0.5,0.7
					c-1.4,2.2-2.9,4.4-2.1,7.2c0.9,3.3,4,4.4,7.1,4.6c0.7,0.1,1.5,0.1,2.2,0.1c0.4,0,0.3,0-0.3,0l1.5,0.2c0.7,0.1,1.5,0,2.2-0.2
					c1.7-0.4,3.1-1.5,4-2.9c0.4-0.6,0.6-1.2,0.8-1.9c0.1-0.3,0.3-3.4,0-0.9c0-0.1,0.3-0.8,0.1-0.3c-0.4,1,0.5-1.2,0.7-1.6
					c0.4-1.2,0.6-2.8,0.2-4l-0.6,4.3c0.3-0.6-1.3,1.7,0,0c0.6-0.8,1-1.2,1.2-2.2c0.5-1.7,0.1-3.2-0.6-4.8c-1.2-2.7-5.4-3.5-7.7-2
					C224.5,47.6,224,50.5,225.3,53.4L225.3,53.4z"/>
				<path class="st0" d="M73.8,144.3c0.1,0.5,0.1,1,0.2,1.6c0,0.6,0,1.2-0.1,1.7c-0.1,0.5-0.2,1-0.4,1.4c-0.2,0.4-0.5,0.6-0.8,0.6
					c-0.8,0.1-1.6,0-2.6-0.1c-1-0.1-1.7-0.1-2.3-0.1c0.9,1,1.8,2.2,2.7,3.4c0.8,1.2,1.4,2.7,1.8,4.4c0.3,1.4,0.3,2.8,0,4.2
					c-0.3,1.4-0.9,2.6-1.7,3.8c-0.8,1.1-2,2.1-3.3,2.9c-1.4,0.8-3,1.4-4.9,1.6c-0.9,0.1-1.8,0.1-2.8-0.1c-1-0.2-2-0.5-3-0.9
					c-1-0.4-2-0.9-2.9-1.5c-0.9-0.6-1.8-1.3-2.5-1.9c-0.7-0.7-1.4-1.4-1.8-2.1c-0.5-0.7-0.8-1.3-0.9-1.9c-1.1-6.3-0.9-11.2,0.6-14.3
					c1.5-3.1,4-4.5,7.4-4.4c0.2,0,0.5,0,0.9,0c0.4,0,0.9,0,1.4,0.1c0.5,0,1,0.1,1.5,0.1c0.5,0,0.9,0.1,1.3,0.1c1.8,0,3.1-0.1,4-0.1
					c0.9-0.1,1.6-0.1,2.1-0.1c0.5,0,0.9-0.1,1.2-0.1c0.3,0,0.7-0.1,1.2-0.2c0.4,0,0.8,0,1.3,0c0.4,0.1,0.8,0.2,1.2,0.3
					c0.4,0.2,0.7,0.4,1,0.7C73.5,143.6,73.7,143.9,73.8,144.3L73.8,144.3z M58.7,148.9c-1.4,0.4-2.4,1.6-3,3.6
					c-0.5,2-0.5,4.8,0.2,8.3c0.1,0.5,0.3,1,0.7,1.4c0.4,0.5,0.8,0.9,1.4,1.2c0.5,0.4,1.1,0.7,1.7,1c0.6,0.3,1.2,0.5,1.8,0.6
					c0.4-0.4,0.8-1,1.2-1.8c0.4-0.7,0.7-1.6,0.9-2.5c0.2-0.9,0.4-1.9,0.4-3c0-1.1,0-2.1-0.2-3.2c-0.3-1.4-0.8-2.6-1.6-3.4
					C61.4,150.2,60.3,149.5,58.7,148.9L58.7,148.9z"/>
				<path class="st0" d="M68.2,144.3c0.2,1.1,0.2,2.1-0.1,3.1l2.6-3.4c1.3-0.2,1.1-0.2-0.5-0.2c-0.8-0.1-1.6-0.1-2.3-0.1
					c-5.2,0-7.1,6-4,9.6c3,3.5,4.8,9.6-1.6,10.6c-2.4,0.4-4.7-0.8-6.5-2.3c-2.4-1.9-2.4-3.6-2.5-6.6c-0.1-1.6-0.3-4.3,0.6-5.8
					c1.2-1.7,2.8-1.3,4.7-1.2c2.3,0.1,4.5,0.2,6.8,0c0.7,0,1.4-0.1,2.1-0.1c0.6,0,1.3-0.1,1.9-0.2c1.2,0,1-0.3-0.5-0.8
					c3.2,6.5,12.9,0.8,9.7-5.7c-2.4-4.9-7.2-4.9-12-4.5c-4.8,0.4-9.9-0.8-14.6,0.4c-10.6,2.8-12,17.5-8.9,26.2
					c3.6,10.2,18,14.5,26.9,9.3c11.1-6.4,8.9-19.1,1.7-27.5l-4,9.6c3.1,0,5.9,0.7,8.5-1.2c3.1-2.3,3.4-5.9,3.1-9.5
					C78.7,137.2,67.4,137.1,68.2,144.3L68.2,144.3z"/>
				<path class="st0" d="M57.2,143.5c-5.7,2.3-7.8,7.7-7.4,13.6c0.2,3,0.5,6.1,2.4,8.5c1.9,2.5,4.8,4,7.8,4.8
					c1.9,0.5,4.1,0.1,5.5-1.4c3.4-3.8,4.6-9.1,3.9-14.1c-0.7-5.9-3.9-9.2-9.3-11.4c-2.8-1.1-6.2,1.2-6.9,3.9
					c-0.9,3.2,1.1,5.8,3.9,6.9c2,0.8,1.4,5.5,0.3,6.7l5.5-1.4c-0.5-0.1-1.3-0.3-1.8-0.7c0.2,0.8,0.2,0.6-0.1-0.7
					c0-0.4-0.1-0.7-0.1-1.1c-0.1-0.7,0.1-1.6,0-2.3c-0.2-1.3,1.4-1.3-0.8-0.4c2.8-1.1,4.8-3.8,3.9-6.9
					C63.4,144.7,60,142.4,57.2,143.5L57.2,143.5z"/>
				<path class="st0" d="M78.8,149.7c-0.3,0.1-0.6,0.2-1,0.3c-0.4,0.1-0.7,0.2-1.1,0.3c-0.3,0.1-0.6,0.2-0.9,0.3
					c-0.3,0.1-0.5,0.1-0.6,0.2c-0.6,0-1.2,0-1.8-0.2c-0.6-0.2-0.9-0.6-1.1-1.3c-0.2-0.9-0.2-1.7,0-2.5c0.1-0.8,0.4-1.6,0.8-2.2
					c0.4-0.6,0.8-1.2,1.3-1.6c0.5-0.4,1-0.6,1.6-0.7c0.5,0,1.2,0,1.8,0.1c0.7,0.1,1.4,0.2,2.1,0.3c0.8,0.1,1.5,0.3,2.3,0.5
					c0.8,0.2,1.5,0.4,2.2,0.5c1.4-0.9,2.8-1.6,4.3-2.2c1.5-0.6,3-1,4.5-1.2c1.1-0.2,2-0.1,2.7,0.1c0.7,0.3,1.2,0.8,1.3,1.5
					c0.2,1,0.2,1.9,0.1,2.9c-0.2,0.9-0.4,1.8-0.8,2.6c-0.4,0.8-0.9,1.4-1.4,1.9c-0.6,0.5-1.2,0.8-1.8,0.9c-0.3,0-0.7,0.1-1.2,0.1
					c-0.5,0-1.1,0-1.7,0c-0.6,0-1.1,0-1.7-0.1c-0.5,0-0.9,0-1.2-0.1c-0.2,0.4-0.3,0.8-0.4,1.4c-0.1,0.6-0.1,1.2-0.1,1.9
					c0,0.7,0,1.3,0.1,1.9c0,0.6,0.1,1.1,0.2,1.4c0.2,0.8,0.6,1.4,1.3,1.6c0.7,0.3,1.3,0.4,2,0.4c0.5,0,0.9-0.1,1.4-0.3
					c0.5-0.1,1-0.3,1.5-0.4c0.5-0.2,1-0.3,1.5-0.5c0.5-0.2,1.1-0.3,1.6-0.4c0.9-0.1,1.5-0.1,1.9,0.1c0.4,0.2,0.7,0.5,0.8,1
					c0.2,0.7,0.2,1.4,0.1,2.2c-0.1,0.7-0.3,1.4-0.6,2.1c-0.3,0.6-0.8,1.2-1.5,1.6c-0.7,0.5-1.5,0.7-2.5,0.9c-1.1,0.1-2.4,0.2-4,0.1
					c-1.6-0.1-3.2-0.3-4.7-0.7c-1.5-0.4-2.9-1-4.1-1.7c-1.2-0.7-1.9-1.6-2.1-2.8c-0.4-1.8-0.4-3.6,0-5.3c0.4-1.7,0.9-3.4,1.6-5.1
					C80.7,149.7,79.7,149.7,78.8,149.7L78.8,149.7z"/>
				<path class="st0" d="M77.3,144.3c-0.6,0.2-2.5,0.4-3,0.9c2.3,3.5,3.5,4.2,3.7,2.2l-1.1,0.6c1.8,0.7,5,1.1,6.9,1.3
					c1.7,0.1,2.8-0.3,4.3-1.1c1.2-0.6,3.7-1.1,4.5-1.9c1.6-0.2,1.4-1.1-0.6-2.8c-0.6,1-0.6,1.4,0,1.3c-0.3-0.1-3.1-0.1-4.3-0.1
					c-2.5-0.1-4.8,1.8-5.4,4.1c-1.9,6.4-0.5,15.6,7.8,15.8c1.3,0,4.6-0.1,5.6-1.1c1.3-0.2,1.1-0.7-0.6-1.7c-0.9-0.4-1.3-1-1.4-1.7
					c-0.5-0.3-1.3-0.2-2.1-0.3c-1.3-0.1-4.9-0.1-5.8-1c-1.4-1.4,0.5-5.7,1.2-7.5c1.2-3.4-2-7.3-5.4-7.1c-0.9,0.1-1.9,0.1-2.8,0.1
					c-7.2,0.3-7.2,11.6,0,11.2c0.9,0,1.9-0.1,2.8-0.1l-5.4-7.1c-2.3,6.6-3.8,15.3,3.1,19.6c5.2,3.2,14.8,4.9,20.4,1.7
					c5.2-2.9,7.6-10.8,3.2-15.5c-2.3-2.5-5.4-2.6-8.6-1.9c-0.8,0.2-1.6,0.4-2.3,0.7c-2.4,0.3-2.1,1.2,0.9,2.7c0,0,0.2-3.4,0.3-3.8
					l-5.4,4.1c4.1,0.2,8.3,0.5,11.5-2.5c3-2.8,4.4-7.4,3.8-11.4c-1.5-11.1-15-6.9-21.4-3.1l4.3-0.6c-7-1.7-15.3-3.2-18.5,5.1
					c-1.4,3.6-1.3,8.4,1.8,11.1c3.4,2.8,7.2,1.7,10.9,0.6C87.2,153.1,84.3,142.3,77.3,144.3L77.3,144.3z"/>
				<path class="st0" d="M111.4,138.1c1.9,0.3,3.5,1.5,4.9,3.5c1.3,1.8,2.2,4.1,2.7,6.7c0.7,3.7,0.6,6.9-0.3,9.8
					c-1,3-2.8,4.6-5.3,4.7c-0.9,0-2.3,0-4.2,0c-1.3,0.1-2.6,0.1-3.7,0c-1.9-0.1-3.6-1.1-5.1-2.9c-1.4-1.7-2.4-3.9-2.9-6.5
					c-0.6-2.7-0.6-5.3,0-7.7c0.6-2.7,1.9-4.8,3.8-6.2c0.3-0.2,0.8-0.4,1.4-0.5c0.6-0.1,1.9-0.2,3.9-0.2
					C107.8,138.4,109.4,138.2,111.4,138.1L111.4,138.1z M106.8,143c-0.9,0.2-1.5,1.2-1.9,3.2c-0.4,1.9-0.4,3.7-0.1,5.2
					c0.4,1.9,1.1,3.7,2,5.4c1,1.8,1.9,2.7,2.8,2.8c1.1,0,1.8-1,2.1-3.2c0.3-2.1,0.3-4.4-0.2-6.8c-0.3-1.4-0.8-2.7-1.5-4
					C109.1,143.6,108,142.7,106.8,143L106.8,143z"/>
				<path class="st0" d="M109.9,143.5c3.7,1,4.2,7.8,3.9,10.8c-0.3,2.3-0.2,2.5-2.1,2.8c-1.3,0.2-4.4,0.5-5.7,0
					c-3.2-1.2-3.7-7.4-3-10.1c0.2-1,0.6-2.1,1.3-2.8c-0.9,0.1-0.9,0.1,0,0c0.5,0,1,0,1.5,0c1.9-0.1,3.8-0.4,5.7-0.6
					c7.2-0.5,7.2-11.8,0-11.2c-4,0.3-9.4,0-12.9,2.1c-4.2,2.5-6.3,8-6.8,12.6c-0.9,8.8,3.5,20,13.2,21.2c9.5,1.2,18.2-1,19.9-11.7
					c1.4-9.1-2.1-21.3-11.9-24C105.9,130.7,102.9,141.5,109.9,143.5L109.9,143.5z"/>
				<path class="st0" d="M103.9,138.1c-10.2,4.4-4,30.2,7.7,26.7c6.4-1.9,6.4-10.4,5.5-15.7c-0.8-5.2-4.1-12.2-10.4-11.8
					c-7.2,0.4-7.2,11.6,0,11.2c-1.9-1.5-2.5-1.8-1.8-0.7c0.2,0.3,0.4,0.7,0.6,1c0.3,0.8,0.5,1.6,0.7,2.5c0.1,0.9,0.2,1.8,0.2,2.7
					l-0.1,1.1c-0.5,1.3,0.1,1,1.9-1.1h3c1.2,1.1,1.5,1.2,0.9,0.3c-0.3-0.5-0.6-1-0.8-1.5c-0.3-0.8-0.6-1.6-0.8-2.4
					c-0.1-0.8-0.2-1.3-0.1-2.1l0.1-0.7c0.5-1.5,0.3-1.4-0.7,0.2c2.8-1.2,3.4-5.3,2-7.7C109.9,137.3,106.7,136.9,103.9,138.1
					L103.9,138.1z"/>
				<path class="st0" d="M148.8,158.2c0.3,0.3,0.6,0.7,0.8,1.1c0.2,0.4,0.4,0.8,0.4,1.1c0.3,1.4-0.8,2.4-3.3,2.8
					c-0.5,0.1-1.1,0.1-1.7,0.1c-0.7,0-1.3-0.1-1.9-0.3c-0.6-0.1-1.1-0.3-1.5-0.6c-0.4-0.3-0.7-0.5-0.7-0.9c-0.1-0.3,0-0.6,0-0.9
					c0.1-0.3,0.2-0.7,0.5-1.2c-0.2-1.3-0.5-2.6-0.7-3.8c-1.3,0.2-2.6,0.2-4,0.1c-1.4-0.2-2.8-0.5-4-1c-1.3-0.5-2.3-1.2-3.3-2.1
					c-0.9-0.9-1.5-2-1.8-3.3c-0.3-1.7-0.4-3.2-0.1-4.6c0.2-1.4,0.6-2.8,1.2-4c0.6-1.2,1.2-2.3,2-3.2c0.8-1,1.5-1.8,2.3-2.5
					c0.8-0.7,1.5-1.2,2.1-1.7c0.6-0.4,1-0.7,1.3-0.8c-0.4-2.4-0.9-4.8-1.3-7.3c-0.6-0.3-1-0.5-1.3-0.8c-0.2-0.3-0.4-0.6-0.5-0.9
					c-0.3-1.8,0.9-3.2,3.8-4.1c0.8-0.2,1.5-0.4,2.2-0.4c0.7,0,1.4,0,2,0.1c0.6,0.1,1.1,0.4,1.5,0.6c0.4,0.3,0.6,0.7,0.7,1.1
					c0.1,0.4-0.2,1.4-0.9,3c0.3,2.1,0.7,4.2,1,6.2c2-0.4,3.7-0.5,5.2-0.4c1.5,0.1,2.9,0.5,4,1c1.1,0.6,2,1.3,2.7,2.3
					c0.7,1,1.2,2.1,1.4,3.4c0.3,1.8,0.4,3.6,0.2,5.4c-0.2,1.8-0.6,3.4-1.4,5c-0.7,1.5-1.7,2.9-3,4.1c-1.3,1.2-2.9,2.2-4.7,2.8
					C148.3,155.2,148.6,156.7,148.8,158.2L148.8,158.2z M135,148c0.2,1.2,0.8,2.1,1.6,2.6c0.8,0.5,2,0.8,3.5,0.8
					c-0.8-4.3-1.7-8.6-2.5-13c-0.8,0.6-1.4,1.2-1.8,2c-0.4,0.8-0.7,1.6-0.9,2.5c-0.2,0.9-0.2,1.8-0.2,2.6
					C134.8,146.5,134.8,147.3,135,148L135,148z M146.8,148.3c0.7-0.5,1.3-1.2,1.7-2c0.4-0.8,0.7-1.7,0.9-2.7c0.2-1,0.2-1.9,0.2-3
					c-0.1-1-0.2-2-0.3-2.9c-0.2-1.2-0.7-2-1.5-2.6c-0.8-0.6-1.9-0.6-3.4-0.2C145.2,139.4,146,143.9,146.8,148.3L146.8,148.3z"/>
				<path class="st0" d="M144,161.1c-0.7-2.3-0.4-3.5,0.9-3.5l1.6,4c0-2.7,0.1-4.7-0.5-7.5c-0.4-2.2-3.1-4.4-5.4-4.1
					c-3.7,0.4-8.3,0.2-7.7-4.6c0.5-3.4,3.1-6.4,6.1-8.1c2.3-1.3,3-3.9,2.6-6.4c-0.4-2.3-0.5-5.1-1.3-7.3c-0.3-0.9-0.8-1.8-1.4-2.5
					c-2.7-2.9,0,3.8,0,3.5c0-0.2-0.2-4.6-1.5-3c-0.6,0.7-0.4,2.1-0.4,3c0.1,2.3,0.7,4.7,1.1,7c0.5,3.2,4.2,4.4,6.9,3.9
					c4.3-0.7,6.6-0.2,6.5,4.4c0,3.5-1.7,6.9-5.1,8.3c-3,1.2-4.5,3.6-3.9,6.9c0.3,1.5,0.6,3.1,0.9,4.6c1.3,7.1,12.2,4.1,10.8-3
					c-0.3-1.5-0.6-3.1-0.9-4.6l-3.9,6.9c9.4-3.9,14.5-12.4,13-22.7c-1.5-10.6-11.1-13.2-20.5-11.7l6.9,3.9c-0.3-2-0.5-3.7-0.3-5.2
					c0.3-2,0.6-3.5-0.4-5.4c-2-4-6.8-5.2-11-4.4c-8.4,1.5-14.1,11-5.3,16.5l-2.6-3.4c0.4,2.4,0.9,4.9,1.3,7.3l2.6-6.4
					c-7.3,4-12.5,12.4-11.6,20.8c1,9.4,10.2,13.8,18.9,12.9l-5.4-4.1c0.6,3.1-0.5,5.8,1.7,8.5c2.5,3,6.9,3.7,10.6,3.2
					c6.8-1,10.7-7.5,6.2-13.4C149.3,149.7,139.6,155.3,144,161.1L144,161.1z"/>
				<path class="st0" d="M129.5,149.5c1.3,5.2,5.5,7.3,10.5,7.6c3.9,0.2,6.1-3.7,5.4-7.1c-0.8-4.3-1.7-8.7-2.5-13
					c-0.9-4.6-6.4-4.9-9.4-2.5C129.1,138.1,128.7,144.2,129.5,149.5c0.5,3,4.2,4.7,6.9,3.9c3.2-0.9,4.4-3.9,3.9-6.9
					c-0.3-1.7,0-3.2,1.2-4.1l-9.4-2.5c0.8,4.3,1.6,8.7,2.5,13l5.4-7.1c-0.3,0-0.9-0.2-0.7-0.1c0.4,0.3,1.5,2.5,1.1,0.8
					C138.6,139.5,127.7,142.5,129.5,149.5L129.5,149.5z"/>
				<path class="st0" d="M150.8,152.3c4.5-3.5,4.9-9.9,4-15.1c-1-6.1-6.1-9.2-12-7.7c-3.1,0.8-4.5,4-3.9,6.9
					c0.8,4.5,1.7,8.9,2.5,13.4c0.6,3,4.2,4.7,6.9,3.9c3.1-0.9,4.5-3.9,3.9-6.9c-0.8-4.5-1.7-8.9-2.5-13.4l-3.9,6.9
					c-0.3,0.1-1.6-1.5-2-1.1c-0.1,0.1,0.2,2.4,0.2,2.4c-0.1,1.4-0.3,2-1.1,2.7c-2.4,1.9-2,6,0,8
					C145.2,154.7,148.4,154.2,150.8,152.3L150.8,152.3z"/>
				<path class="st0" d="M171.6,127c-0.3,0-0.7,0.1-1.2,0.1c-0.5,0-1,0.1-1.5,0.2c-0.5,0.1-1,0.1-1.5,0.2c-0.5,0.1-0.8,0.1-1,0.2
					c-0.4,0.2-0.9,0.3-1.3,0.5c-0.4,0.2-0.8,0.4-1.2,0.7c-0.3,0.3-0.6,0.6-0.8,0.9c-0.2,0.3-0.3,0.7-0.2,1.1c0,0.2,0.2,0.5,0.3,0.8
					c0.2,0.3,0.4,0.5,0.7,0.8c0.3,0.2,0.6,0.4,1,0.5c0.4,0.1,0.8,0.1,1.2-0.1c0.3-0.3,0.7-0.6,1.1-1c0.5-0.3,0.9-0.5,1.2-0.7
					c0.3-0.1,0.7,0,1.2,0.3c0.5,0.3,0.9,0.7,1.3,1.1c0.4,0.5,0.8,1,1.1,1.5c0.3,0.5,0.5,1,0.6,1.3c0.1,0.4,0.1,0.7,0.2,1
					c0.1,0.3,0.1,0.7,0.1,0.9c0,0.3-0.1,0.5-0.3,0.8c-0.2,0.2-0.5,0.4-0.9,0.5c-0.4,0.1-1,0.3-1.8,0.4c-0.7,0.1-1.4,0.3-2.1,0.5
					c-1.1,0.3-1.9,0.7-2.3,1.2c-0.4,0.4-0.5,1-0.4,1.7c0.1,0.5,0.4,0.9,0.9,1.2c0.5,0.4,1.3,0.4,2.2,0.1c0.5-0.2,1.1-0.4,1.8-0.7
					c0.7-0.3,1.4-0.6,2-1c0.6-0.4,1.2-0.7,1.6-1c0.4-0.3,0.7-0.5,0.7-0.7c0-0.7,0.2-1.4,0.6-2.1c0.4-0.7,1-1.1,1.7-1.3
					c0.3-0.1,0.8,0,1.3,0.2c0.6,0.2,1.1,0.6,1.7,1c0.6,0.4,1.1,1,1.5,1.5c0.4,0.6,0.7,1.2,0.8,1.8c0.1,0.7,0.1,1.3-0.2,2
					c-0.2,0.6-0.7,1.1-1.4,1.3c-1.5,1-3,2-4.5,2.8c-1.5,0.9-3.2,1.6-5.3,2.1c-1.3,0.4-2.6,0.5-4,0.3c-1.3-0.2-2.5-0.5-3.7-1
					c-1.1-0.5-2.1-1.2-2.8-2c-0.8-0.8-1.3-1.7-1.5-2.8c-0.1-0.8-0.2-1.6-0.2-2.2c0-0.7,0.1-1.3,0.2-1.8c0.1-0.6,0.3-1.1,0.5-1.5
					c0.2-0.5,0.5-0.9,0.7-1.4c-0.9-0.2-1.7-0.5-2.3-0.9c-0.6-0.4-1.1-0.9-1.5-1.3c-0.4-0.5-0.6-1-0.8-1.6c-0.2-0.5-0.3-1.1-0.4-1.6
					c-0.2-1.1-0.1-2.2,0.2-3.3c0.3-1.1,0.8-2,1.6-3c0.7-0.9,1.6-1.7,2.7-2.5c1.1-0.7,2.3-1.3,3.6-1.8c1.3-0.5,2.9-0.9,4.7-1.3
					c1.8-0.4,3.6-0.6,5.4-0.6c0.3-0.1,0.7-0.1,1.2-0.2c0.5-0.1,1-0.1,1.5-0.1c0.5,0,1,0.2,1.4,0.5c0.4,0.3,0.7,0.7,0.8,1.4
					c0.1,0.4,0.1,1,0,1.7c-0.1,0.7-0.3,1.4-0.5,2.1c-0.2,0.7-0.5,1.3-0.8,1.9c-0.3,0.6-0.6,0.9-0.9,1c-0.3,0.1-0.5,0.2-0.7,0.2
					c-0.2,0-0.4,0.1-0.6,0c-0.2,0-0.4-0.1-0.6-0.2c-0.2-0.1-0.5-0.3-0.8-0.5C172.9,127.1,172.2,127.1,171.6,127L171.6,127z"/>
				<path class="st0" d="M171.6,121.4c-5.6,0.6-14.7,1.9-14.3,9.5c0.1,3,2.1,5.7,4.8,6.9c3.7,1.7,6,0,9.3-1.7l-4.3,0.6
					c0.2,0-0.1,0.5,0.1,0l2.6-3.4c-3.1,1.8-6.7,1.1-9,4.6c-2.2,3.3-1.2,7.9,2,10.2c3.4,2.4,7.4,1.3,10.8-0.4c1.5-0.7,3-1.5,4.3-2.7
					c0.5-0.5,1.2-1.2,1.5-1.8c0.4-0.6,0.6-1.3,0.7-2.1c0.2-1.2,0.1-1-0.4,0.7l-4.3,0.6c0.2,0,1.4,0.1,1.3,0.5l1.1-3l-1.5,1
					c-2.2,0.9-3.8,2.6-6.2,3.2c-3.2,0.8-7-0.1-5-4c1.6-3.3,0.3-7.1-3.4-8.3c-2.5-0.8,0.2-3.4,1.4-4.2c2-1.4,5.1-2,7.5-2.3
					c0.9-0.1,2.8,0.1,3.6-0.4c1.6-0.9-0.5-4-1.4-2.7c-1.8,2.4,3.4-0.3,3.6,0.2C175.9,121.5,172.3,121.4,171.6,121.4
					c-7.2-0.8-7.1,10.5,0,11.2c1.8,0.2,4.6,1.4,7.3-0.2c2.9-1.7,4.2-5.2,4.8-8.4c0.5-3.1,0.2-6.4-2.2-8.6c-3.1-2.8-7.1-2-10.9-1.6
					c-7.4,0.8-15.7,3.2-19.5,10.2c-4.1,7.5-0.3,16.1,7.5,18.5l-3.4-8.3c-3.3,6.6-3,14.7,4,18.9c7.2,4.3,15.3,1.9,21.8-2.2
					c3.2-2,6.1-3.7,6.5-7.8c0.4-3.4-1.1-6.3-3.5-8.6c-6.3-5.9-14.3-2.4-15.3,5.8l1.6-4c-0.8,0.8-2.6,1-3.2,1.8
					c-0.6,0.7,1.6,6.4,2.6,6.6c0.5,0.1,1.6-0.3,2.1-0.4c3.8-0.9,6.5-3.3,6.5-7.5c0-3.6-2-7.3-4.8-9.4c-4-3.1-8-1.6-11.5,1.4l4-1.6
					l1.7,0.8l0.6,4.3c-0.8,0.9-0.6,1,0.6,0.5c0.9-0.1,1.8-0.2,2.7-0.3C178.8,131.9,178.9,120.6,171.6,121.4L171.6,121.4z"/>
				<path class="st0" d="M178.8,122.9c-0.3-0.2-0.6-0.3-0.9-0.4c-0.2-0.1-0.4-0.1-0.6-0.3c-0.2-0.1-0.3-0.3-0.4-0.5
					c-0.1-0.2-0.2-0.6-0.3-1.1c-0.1-0.5-0.1-1,0.1-1.7c0.1-0.6,0.4-1.3,0.7-1.9c0.3-0.6,0.7-1.2,1.2-1.7c0.5-0.5,1.1-0.9,1.7-1.1
					c0.6-0.2,1.3-0.2,2,0.2c0.7,0.3,1.4,0.8,2.1,1.4c0.7,0.6,1.3,1.3,2,2c0.7,0.7,1.2,1.4,1.8,2c0.1-0.4,0.3-0.8,0.5-1.4
					c0.2-0.5,0.4-1.1,0.7-1.7c0.2-0.6,0.5-1.2,0.7-1.8c0.2-0.6,0.5-1.2,0.7-1.8c0.3-0.9,0.7-1.6,1.3-2c0.5-0.4,1.2-0.8,1.9-1
					c0.6-0.2,1.2-0.3,1.9-0.2c0.7,0.1,1.3,0.2,1.9,0.5c0.6,0.3,1.1,0.7,1.6,1.3c0.5,0.6,0.7,1.3,0.9,2.1c0.1,0.5-0.1,1.3-0.4,2.3
					c-0.4,1-0.9,2.1-1.5,3.3c-0.6,1.2-1.2,2.4-1.9,3.6c-0.7,1.2-1.3,2.3-1.7,3.2c0.7,0.5,1.5,1.1,2.2,1.8c0.7,0.7,1.4,1.4,2.1,2.3
					c0.6,0.8,1.2,1.7,1.7,2.6c0.5,0.9,0.8,1.9,0.9,2.9c0.1,0.7,0.1,1.6-0.1,2.6c-0.1,1.1-0.4,2.2-0.8,3.4c-0.4,1.2-0.9,2.4-1.4,3.6
					c-0.6,1.2-1.2,2.4-1.9,3.4c-0.7,1.1-1.5,2-2.3,2.7c-0.8,0.7-1.7,1.2-2.5,1.4c-1,0.3-2.2,0.2-3.4-0.3c-1.3-0.5-2.5-1.1-3.6-1.9
					c-1.1-0.8-2.1-1.8-2.9-2.8c-0.8-1.1-1.3-2.1-1.5-3.1c-0.4-2.6-0.3-5.2,0.4-8.1c0.7-2.9,1.9-6.1,3.7-9.7
					C182.9,125.6,180.9,124.2,178.8,122.9L178.8,122.9z M191,132.2c-0.4,0.8-0.7,1.8-1.1,3c-0.4,1.1-0.7,2.3-1,3.4
					c-0.3,1.1-0.5,2.2-0.7,3.2c-0.2,1-0.2,1.7-0.1,2.2c0.1,0.4,0.2,0.7,0.4,0.9c0.2,0.2,0.5,0.4,0.7,0.5c0.3,0.1,0.6,0.2,0.9,0.3
					c0.3,0.1,0.6,0.1,0.8,0.1c0.3-0.3,0.6-0.8,1.1-1.6c0.4-0.8,0.9-1.6,1.3-2.6c0.4-0.9,0.7-1.9,1-2.9c0.3-1,0.3-1.9,0.2-2.6
					C193.2,134.9,192.1,133.5,191,132.2L191,132.2z"/>
				<path class="st0" d="M180.3,117.5c0.9,2.6,1.7,3.2,2.3,1.8c-2.3-0.2-2.8,0.2-1.7,1c0.3,1,2.5,2.7,3.3,3.5c3.1,3.4,8,1.2,9.4-2.5
					c0.4-1.2,2-3.7,1.9-4.9c0,0.2,0-2.4-1.3-1.8c-0.7,0.3-1.8,3.6-2.2,4.3c-0.8,1.5-1.6,2.9-2.4,4.4c-1.6,2.9-0.5,5.8,2,7.7
					c3.4,2.5,4.6,5.2,3.4,9.2c-0.6,1.9-2.3,6.9-4.4,7.1c-0.8,0.1-2.9-1.8-3.4-2.4c-1-1.4-1.1-2.3-0.9-4c0.2-3.9,1.8-7.6,3.5-11
					c1.4-2.9,0.7-5.9-2-7.7c-2-1.4-4.1-2.7-6.2-4c-6.1-3.9-11.7,5.8-5.7,9.7c2.1,1.3,4.1,2.7,6.2,4l-2-7.7
					c-3.3,6.9-6.8,15.5-4.3,23.2c2.1,6.5,10.7,12.6,17.6,11.1c7.1-1.6,11-9.6,12.8-16c2.4-8.9-1.8-15.8-8.8-21l2,7.7
					c3.8-7,11.1-17.8,1.1-23.4c-3.5-2-8-1.6-11.3,0.6c-3.7,2.6-4.9,8.1-6.4,12.1l9.4-2.5c-4.8-5.2-11.5-10.8-17.8-4.1
					c-5.3,5.6-4,13.7,3,16.6C184,131.1,187,120.2,180.3,117.5L180.3,117.5z"/>
				<path class="st0" d="M185.5,130.7c-2.8,6.7-6.7,18.7,3.8,20.6c1.8,0.3,4.2,0.2,5.5-1.4c2.3-2.9,4.1-6.3,4.9-10
					c0.4-2.1,0.7-4.6-0.5-6.5c-1.1-1.8-2.9-3.5-4.2-5.2c-2-2.3-5.9-2-8,0c-2.3,2.3-2,5.6,0,8c1.1,1.3,2.3,2.7,3.4,4l-1.6-4
					c0.1,1.2-0.3,2.2-0.7,3.3c-0.2,0.5-0.5,1-0.8,1.5c-0.1,0.1-1,1.6-0.4,0.8l5.5-1.4c-0.5,0.1-0.8-0.1-1.1-0.4l2,2
					c0.3,1.4,0.4,1.8,0.3,1.2c0.1-0.5,0.2-1,0.3-1.5c0.2-0.8,0.4-1.7,0.6-2.5c0.5-1.9,1.2-3.7,1.9-5.5c1.2-2.8-1.3-6.2-3.9-6.9
					C189.2,125.9,186.7,127.9,185.5,130.7L185.5,130.7z"/>
				<path class="st0" d="M200.3,115.9c-0.3-0.2-0.6-0.3-0.9-0.4c-0.2-0.1-0.4-0.2-0.6-0.3c-0.2-0.1-0.3-0.3-0.4-0.6
					c-0.1-0.2-0.2-0.6-0.3-1.2c-0.1-0.5-0.1-1,0.1-1.7c0.1-0.7,0.4-1.3,0.7-1.9c0.3-0.6,0.7-1.2,1.2-1.7c0.5-0.5,1.1-0.8,1.7-1
					c0.6-0.2,1.3-0.1,2,0.3c0.7,0.4,1.4,0.9,2.1,1.5c0.7,0.6,1.3,1.3,2,2.1c0.7,0.8,1.2,1.5,1.8,2.1c0.1-0.4,0.3-0.8,0.5-1.4
					c0.2-0.5,0.4-1.1,0.7-1.7c0.2-0.6,0.5-1.2,0.7-1.8c0.2-0.6,0.5-1.2,0.7-1.7c0.3-0.9,0.7-1.5,1.3-1.9c0.5-0.4,1.1-0.7,1.9-0.9
					c0.6-0.2,1.2-0.2,1.9-0.1c0.7,0.1,1.3,0.3,1.9,0.7c0.6,0.3,1.1,0.8,1.6,1.4c0.4,0.6,0.7,1.3,0.9,2.1c0.1,0.5-0.1,1.3-0.4,2.2
					c-0.4,1-0.9,2-1.5,3.2c-0.6,1.2-1.2,2.3-1.9,3.5c-0.7,1.2-1.3,2.2-1.7,3.1c0.7,0.6,1.5,1.2,2.2,1.9c0.7,0.7,1.4,1.5,2.1,2.4
					c0.6,0.9,1.2,1.8,1.7,2.8c0.5,1,0.8,2,0.9,3c0.1,0.7,0.1,1.6-0.1,2.7c-0.2,1.1-0.4,2.2-0.8,3.4c-0.4,1.2-0.9,2.4-1.4,3.7
					c-0.6,1.2-1.2,2.4-1.9,3.5c-0.7,1.1-1.5,2-2.3,2.7c-0.8,0.7-1.7,1.2-2.5,1.4c-1,0.3-2.2,0.1-3.4-0.4c-1.3-0.5-2.5-1.2-3.6-2.1
					c-1.1-0.9-2.1-1.9-3-3c-0.8-1.1-1.3-2.2-1.5-3.3c-0.4-2.7-0.3-5.5,0.4-8.5c0.7-2.9,1.9-6.3,3.7-9.9
					C204.4,118.7,202.4,117.3,200.3,115.9L200.3,115.9z M212.4,125.9c-0.4,0.9-0.7,1.9-1.1,3c-0.4,1.2-0.7,2.3-1,3.5
					c-0.3,1.2-0.5,2.3-0.7,3.3c-0.2,1-0.2,1.8-0.1,2.3c0.1,0.4,0.2,0.7,0.4,0.9c0.2,0.2,0.5,0.4,0.7,0.6c0.3,0.2,0.6,0.3,0.9,0.3
					c0.3,0.1,0.6,0.1,0.8,0.2c0.3-0.3,0.6-0.8,1.1-1.6c0.4-0.8,0.9-1.6,1.3-2.6c0.4-1,0.7-1.9,1-3c0.3-1,0.3-1.9,0.2-2.7
					C214.7,128.7,213.6,127.3,212.4,125.9L212.4,125.9z"/>
				<path class="st0" d="M203.2,111c-1.5-0.9-1.3-0.3,0.6,1.7c0.9-1.1,0.2-1-1.9,0.2c-0.1,0.2,3.4,3.8,3.8,4.2c3,3.5,8,1.2,9.4-2.5
					c0.5-1.2,3.1-7.8,0.1-5c-1.6,1.5-3,5.5-4.1,7.5c-1.1,2-1.1,5.2,0.9,6.8c3.7,3,6,5.8,4.6,10.7c-0.4,1.5-2.3,7-3.7,7.3
					c-3,0.5-5-4.4-5-6.5c-0.1-4.2,1.7-8.5,3.5-12.2c1.4-3,0.6-5.8-2-7.7C207.3,113.9,205.2,112.5,203.2,111c-6-4.1-11.6,5.6-5.7,9.7
					c2.1,1.4,4.1,2.9,6.2,4.4l-2-7.7c-3.4,7.1-6.8,15.8-4.3,23.7c2,6.4,9.8,12.5,16.6,11.8c7.4-0.8,11.6-9.1,13.5-15.4
					c2.6-8.6-0.7-16.1-7.4-21.6l0.9,6.8c3.8-7,10.8-16.9,1.5-22.9c-3.2-2.1-7.5-2.4-10.9-0.5c-4.4,2.4-5.7,8-7.3,12.4l9.4-2.5
					c-4.5-5.1-11-11.2-17.5-4.9c-4.7,4.6-5.3,13.5,1.3,16.5C204,123.7,209.7,114,203.2,111L203.2,111z"/>
				<path class="st0" d="M207,124.4c-2.8,6.9-6.6,18.8,3.8,21c2.7,0.6,4.7-0.5,6.4-2.6c2-2.6,3.5-6.2,4.1-9.5c0.4-2,0.5-4.3-0.6-6
					c-1.1-1.9-2.9-3.7-4.2-5.4c-1.9-2.4-6-2-8,0c-2.3,2.3-1.9,5.6,0,8c1.1,1.4,2.3,2.8,3.4,4.3l-1.6-4c0.2,2.4-1.3,5.1-2.7,7
					l6.4-2.6c-0.5,0.1-0.9-0.1-1.1-0.5l2,2c0.3,1.4,0.4,1.7,0.3,1.1c0.1-0.5,0.2-1.1,0.3-1.6c0.2-0.9,0.4-1.7,0.6-2.6
					c0.5-1.9,1.2-3.8,1.9-5.6c1.2-2.8-1.3-6.2-3.9-6.9C210.7,119.6,208.2,121.6,207,124.4L207,124.4z"/>
				<path class="st0" d="M251,125c0.1,0.5,0.1,1-0.1,1.6c-0.1,0.5-0.4,1.1-0.8,1.6c-0.4,0.5-0.9,0.9-1.5,1.3
					c-0.6,0.4-1.4,0.6-2.4,0.8c-1.3,0.2-2.3,0.1-2.9-0.3c-0.6-0.4-1-1.2-1.2-2.5c-0.2-0.4-0.4-0.8-0.6-1.3c-0.3-0.5-0.5-1-0.8-1.5
					c-0.3-0.5-0.5-1.1-0.8-1.6c-0.2-0.5-0.4-1-0.6-1.4c-0.3,1-0.6,2.1-0.9,3.1c-0.3,1.1-0.7,2.1-1.2,3c-0.5,0.9-1.1,1.7-1.8,2.4
					c-0.7,0.7-1.6,1.1-2.6,1.3c-1,0.2-2,0.1-3.1-0.4c-1.1-0.5-2-1.2-3-2.2c-0.9-1-1.7-2.2-2.4-3.6c-0.7-1.4-1.2-3-1.5-4.7
					c-0.5-3.3-0.7-6.2-0.6-8.8c0.1-2.5,0.5-4.7,1.2-6.4c0.6-1.8,1.5-3.2,2.6-4.2c1.1-1,2.3-1.7,3.7-2c1.1-0.2,2.1-0.2,2.9,0.1
					c0.8,0.3,1.5,0.7,2.1,1.2c0.6,0.6,1.1,1.2,1.5,2c0.4,0.8,0.8,1.6,1.2,2.5c0.1-1.5,0.3-2.9,0.4-4.4c-0.2-1.1-0.1-2,0.4-2.4
					c0.4-0.5,1.1-0.8,2-0.9c0.4-0.1,0.9,0,1.6,0.1c0.7,0.1,1.4,0.3,2.1,0.6c0.7,0.3,1.3,0.6,1.9,1.1c0.5,0.4,0.9,1,1,1.5
					c0.1,0.6,0.1,1.4,0,2.2c-0.1,0.9-0.3,1.8-0.6,2.8c-0.3,1-0.5,2.2-0.8,3.4c-0.3,1.2-0.4,2.5-0.5,3.8c0.5,1.1,1.1,2.4,1.7,3.7
					c0.7,1.3,1.3,2.5,2,3.7c0.6,1.2,1.2,2.2,1.7,3C250.7,124.2,250.9,124.7,251,125L251,125z M236.7,87c0.2,0.2,0.1,0.6-0.2,1.1
					c-0.3,0.5-0.5,0.7-0.5,0.8c0.1,0.2,0,0.8-0.3,1.9c-0.4,1.2-0.6,1.9-0.6,1.9c0.1,1-0.1,1.7-0.4,1.9c-0.1,0.1-0.3,0.1-0.5,0.2
					c-0.3,0-0.6,0-1.1-0.1c-0.6-0.1-1.1-0.2-1.3-0.2c-1.1-0.1-1.7-0.1-1.9-0.1c-0.7-0.1-1.2-0.3-1.4-0.5c-0.1-0.1,0.2-0.9,0.9-2.3
					c0.8-1.7,1.3-2.6,1.4-2.9c0-0.1,0.1-0.6,0.1-1.4c0.1-0.7,0.2-1,0.4-1.1c0.6-0.2,1.6-0.3,3-0.1C235.6,86.2,236.4,86.5,236.7,87
					L236.7,87z M231.4,107.2c-0.4,0.1-0.7,0.5-0.9,1.3c-0.2,0.8-0.4,1.7-0.5,2.8c-0.1,1.1-0.1,2.3-0.1,3.6c0,1.3,0.1,2.4,0.3,3.3
					c0.3,1.6,0.7,2.9,1.3,3.8c0.6,0.9,1.4,1.5,2.2,1.9c0.5-0.9,1-2.2,1.5-3.8c0.5-1.6,0.8-3.6,1.1-5.9c-0.8-2.5-1.6-4.4-2.5-5.5
					C232.9,107.6,232.1,107.1,231.4,107.2L231.4,107.2z"/>
				<path class="st0" d="M245.3,125c0.7-0.5,0.6-0.6-0.3-0.3c2.5,2,3.1,1.9,1.9-0.1c-0.3-1.8-2-4.1-2.8-5.8c-2.1-4.7-9-2.9-10.3,1.3
					c-0.7,2.5-1.5,7.6-4,3.7c-1.6-2.5-1.9-5.7-2-8.6c-0.1-2.7-0.2-5.8,0.9-8.3c1.6-3.5,2.5-1.5,3.7,1c2.6,5.5,10,2.2,10.5-2.8
					c0.1-1.7,1.6-5.6-0.9-3.2c-1.5,0.7-1.8,1.1-0.8,1.3c0.9,0.5,1,0.3,0.3-0.6c-0.4-1.2-0.6-1.1-0.6,0.2c-0.2,1-0.5,2.1-0.7,3.1
					c-0.3,1.4-0.6,2.8-0.8,4.3c-0.9,6.6,3.9,10.6,6,16.3c2.5,6.7,13.3,3.8,10.8-3c-0.9-2.5-2.4-4.8-3.6-7.2c-0.7-1.2-1.4-2.5-2-3.8
					c-0.8-1.9-0.2-0.1-0.1-1.3c0.7-5.1,3.6-10.8-0.3-15.4c-2.6-3.1-7.7-4.7-11.7-3.9c-6.8,1.4-6.4,7.6-6.9,13.1l10.5-2.8
					c-3.4-7.1-10.4-11.5-18-6.8c-6.9,4.4-8.2,13.8-7.5,21.3c0.6,7.6,3.1,16.3,10.8,19.6c9.8,4.2,15-5.4,17.3-13.2l-10.3,1.3
					c2.3,5.1,3.8,11.3,10.5,11.4c6.6,0.1,11.2-4.5,11.6-10.9C256.9,117.7,245.7,117.8,245.3,125L245.3,125z"/>
				<path class="st0" d="M231.3,88.5l0.1,0.3v-3c0.1-0.6,0.3-0.8-0.1,0c-0.3,0.5-0.5,1-0.7,1.5c-0.2,0.7-0.4,2.2,0,3.1l0-2.2
					c-0.1,0.3-0.1,0.5-0.2,0.8c-0.2,0.7-0.5,1.3-0.6,1.9c0,0.1,0,0.2-0.1,0.2c-0.2,0.6-0.2,1.2-0.2,1.8c0,1.2,0.4,0.5,1.2-2.3
					l2.5-1.4c0.2-0.1,2.3,0.2,0.9,0c-0.7-0.1-1.5-0.2-2.2-0.3c-0.5,0-1-0.1-1.5-0.1l-0.3,0c0.9,0,1.7,0.4,2.4,1.1l1.4,2.5l0-0.1v3
					c0.1-0.3,0.4-1-0.2,0.2c0.2-0.3,0.3-0.7,0.5-1c0.4-0.8,0.8-1.5,1.1-2.3c0.3-0.7,0.7-1.3,0.9-2c0.2-0.6,0.2-1.2,0.3-1.9
					c0-0.9-0.2,0.5,0.1-0.4l-1.4,2.5l0.2-0.2l-2.5,1.4c0.7-0.2-0.1,0.1-0.3,0c0.1,0,1.5,0.1,1,0c-0.4-0.1,0.5,0.1,0.6,0.1
					c0.3,0.1,0.3,0.1-0.1-0.1c-0.4-0.1-0.8-0.3-1.1-0.6c1.9,2.2,6,2.1,8,0c2.2-2.4,2.1-5.6,0-8c-1.8-2.1-4.9-2.6-7.4-2.7
					c-3.3-0.2-6.7,1.2-7.7,4.7c-0.2,0.7-0.3,1.5-0.4,2.2c0,0.3,0,0.7-0.1,1l0.1-1.1c0.4-1.6,0.5-1.2,0.2-0.6
					c-0.2,0.4-0.4,0.7-0.6,1.1c-1.2,2.3-2.7,4.8-2,7.5c0.9,3.3,4,4.5,7.1,4.8c0.4,0,0.8,0.1,1.2,0.1c-0.8,0-0.6-0.1,0.1,0
					c1.5,0.3,2.9,0.5,4.4,0.1c1.7-0.4,3.3-1.7,4.2-3.3c0.4-0.8,0.6-1.6,0.8-2.5c0.1-0.4,0.1-0.8,0.1-1.2l-0.2,0.9
					c0.2-0.1,0.7-2.2,0.8-2.4c0.4-1.4,0.6-2.9,0.2-4.3v3c-1,2.7,0.7-1.2,0.7-1.2c0.4-1.2,0.4-2.5,0-3.6c-0.9-2.8-3.9-4.9-6.9-3.9
					C232.5,82.5,230.3,85.5,231.3,88.5L231.3,88.5z"/>
				<path class="st0" d="M228.6,102.3c-4.3,3.2-4.6,8.8-4.3,13.8c0.4,5.2,1.8,9.9,6.5,12.7c2.5,1.5,6.4,0.7,7.7-2
					c2.1-4.3,4.2-10.5,2.7-15.2c-1.5-4.7-4.3-9.8-9.8-10c-7.2-0.2-7.2,11.1,0,11.2l0.6,0l-2.8-0.8c2.7,1.2,0.6,7.2-0.3,9.1l7.7-2
					c-1.5-0.9-1.5-7-0.8-8.7l-2,2l0.5-0.4c2.4-1.8,3.7-4.9,2-7.7C234.8,101.9,231,100.5,228.6,102.3L228.6,102.3z"/>
				<path class="st0" d="M271.2,114.6c0.4,2.3,0.5,4.3,0.3,6c-0.2,1.6-0.6,3-1.2,4.1c-0.6,1.1-1.4,1.8-2.4,2.4c-1,0.5-2,0.8-3.2,0.8
					c-0.8,0-1.7-0.2-2.6-0.6c-0.9-0.4-2.2-1.1-3.8-1.9c0.5,2.4,1.1,4.8,1.6,7.2c0.1,0.4,0.3,0.7,0.5,1.1c0.2,0.3,0.4,0.6,0.7,1
					c0.2,0.3,0.4,0.7,0.6,1c0.2,0.3,0.3,0.7,0.4,1.1c0.1,0.5-0.1,1-0.4,1.4c-0.4,0.4-0.9,0.7-1.5,1c-0.6,0.3-1.3,0.6-2.1,0.8
					c-0.8,0.2-1.5,0.4-2.2,0.4c-0.4,0.1-0.9,0.1-1.4,0c-0.5-0.1-0.9-0.2-1.3-0.4c-0.4-0.2-0.7-0.5-1-0.9c-0.3-0.4-0.5-0.9-0.6-1.6
					c-0.1-0.4-0.1-0.8-0.1-1.2c0-0.4,0-0.8,0-1.2c0-0.4,0.1-0.7,0.1-0.9c0-0.2,0-0.4,0-0.4c-1.1-6.9-2.1-13.6-3.2-20
					c-0.4-2.5-0.5-4.7-0.2-6.6c0.3-1.9,0.8-3.5,1.6-4.8c0.7-1.3,1.6-2.3,2.6-2.9c1-0.7,2-1,3.1-1.1c0.9,0,2,0,3.3,0.3
					c1.3,0.2,2.5,0.5,3.7,0.9c0.5,0.2,1.2,0.6,2.1,1.3c0.9,0.7,1.7,1.7,2.6,2.9c0.9,1.3,1.7,2.8,2.4,4.6
					C270.2,110.1,270.8,112.2,271.2,114.6L271.2,114.6z M257.9,103.2c-0.6,0.4-1,0.9-1.4,1.8c-0.3,0.8-0.6,1.8-0.7,2.9
					c-0.1,1.1-0.2,2.2-0.1,3.4c0.1,1.2,0.2,2.3,0.4,3.2c0.2,1.2,0.6,2.2,1.1,3.1c0.5,0.9,1.2,1.7,1.9,2.3c0.7,0.6,1.4,1.2,2.1,1.6
					c0.7,0.4,1.4,0.7,2.1,0.9c0.4-0.8,0.6-2.1,0.6-3.7c-0.1-1.7-0.3-4.1-0.8-7.2c-0.1-0.9-0.4-1.8-0.8-2.7c-0.4-0.9-0.9-1.7-1.4-2.5
					c-0.5-0.8-1-1.4-1.6-2C258.8,103.8,258.3,103.4,257.9,103.2L257.9,103.2z"/>
				<path class="st0" d="M265.7,116.1c0.2,1.1,0.7,4.8-0.4,5.7c-1.1,0.9-3.3-0.8-4.3-1.4c-4.4-2.2-9.4,1.4-8.3,6.4
					c0.6,2.8,0.8,6.6,2.5,9.1c2.4,3.5,1.5-2.4,2.3-1.9c-2-1.3-3.2,3.5-0.5,2.1c1.8-0.9-1.8-15-2.1-16.9c-0.6-3.5-3.9-14.8,2-15.3
					C263,103.5,264.9,111.6,265.7,116.1c1.3,7.1,12.2,4.1,10.8-3c-2-10.9-8.9-21.1-21.2-20.4c-5.5,0.3-9.7,4.2-11.6,9.2
					c-2.3,5.9-1.1,11.7-0.1,17.7c0.9,5.7,1.9,11.4,2.1,17.1c0.3,5.1,3.9,9.1,9.2,9.1c4.2,0,9.7-1.7,11.7-5.7c1.2-2.5,1-5-0.2-7.5
					c-1.5-2.9-2.1-5.6-2.8-8.9l-8.3,6.4c5.7,2.9,11.9,5.2,17.3,0.2c4.9-4.5,4.7-11.2,3.9-17.3C275.6,106,264.8,109,265.7,116.1
					L265.7,116.1z"/>
				<path class="st0" d="M253.9,99.3c-4.3,3.5-4.2,10.8-3.4,15.8c1.1,6.3,5.4,10.6,11.4,12.7c3.1,1.1,5.8-1.3,6.9-3.9
					c1.6-3.9,0.6-9.2-0.1-13.2c-0.9-4.8-3.7-9.7-8-12.2c-6.2-3.8-11.9,6-5.7,9.7c3.1,1.8,4.3,9.6,3,12.8l6.9-3.9
					c-2.1-0.8-3.1-2.3-3.5-4.5c-0.2-1.3-0.5-4.6,0.4-5.3c2.4-1.9,2-6,0-8C259.6,96.9,256.3,97.4,253.9,99.3L253.9,99.3z"/>
				<path class="st0" d="M276.1,123.6c-1.1-5.3-2.1-10.5-3.2-15.6c-0.1-0.7-0.4-1.3-0.7-1.8c-0.3-0.5-0.6-1-0.9-1.5
					c-0.3-0.4-0.6-0.9-0.8-1.3c-0.3-0.4-0.4-0.8-0.5-1.2c-0.1-0.6-0.2-1.2-0.2-1.7c0-0.6,0-1.1,0.2-1.5c0.1-0.4,0.4-0.8,0.8-1
					c0.4-0.2,1-0.4,1.8-0.3c0.9,0.1,1.8,0.3,2.7,0.6c1,0.3,1.8,0.8,2.7,1.3c0.8,0.5,1.5,1.1,2.1,1.7c0.6,0.6,0.9,1.2,1,1.9
					c0.1,0.5,0.1,1,0.1,1.4c0,0.5,0,0.9-0.1,1.4c0,0.5,0,1,0,1.5c0,0.5,0,1.1,0.1,1.7c0.1,0.4,0.2,1,0.4,2c0.2,1,0.4,2.1,0.7,3.3
					c0.3,1.3,0.5,2.6,0.8,4c0.3,1.4,0.5,2.8,0.8,4c0.4,0.6,0.8,1.1,1.1,1.6c0.4,0.5,0.7,0.9,1,1.3c0.3,0.4,0.5,0.8,0.7,1.2
					c0.2,0.4,0.3,0.9,0.4,1.3c0.3,2.1-2,2.7-7,2.2c-1-0.1-2-0.5-2.8-1.3c-0.8-0.8-1.4-1.7-1.6-2.9
					C275.8,125.3,275.8,124.5,276.1,123.6L276.1,123.6z"/>
				<path class="st0" d="M281.5,122.1c-0.9-4.3-1.8-8.7-2.7-13c-0.7-3.1-3.5-7.1-3.2-10.1l-1.6,4c-1.9,0.2-2,0.4-0.1,0.7
					c0.5,0.3,1,0.6,1.5,0.8c0.5,0.7,0.1,2.7,0.2,3.8c0.2,3,1,6,1.6,9c0.5,2.7,0.7,5.7,1.9,8.1c0.2,0.5,1.6,2.7,2.1,2.9
					c3.3-2.5,4-3.7,2-3.5c-0.8-0.4-1.3-0.3-1.7,0.3c1.3-7.1-9.6-10.1-10.8-3c-0.9,5,0.4,10.1,5.3,12.6c3.7,1.8,10,2.1,13.6-0.2
					c4.3-2.8,3.8-8,1.4-11.9c-2.5-4-3.6-9.4-4.1-14.2c-0.6-5.4,0.1-9.3-4.8-12.9c-3.6-2.6-9.8-5-14-2.4c-4.9,3-4.3,9.4-1.9,13.8
					c2.9,5.3,3.4,12.2,4.6,18.1C272.1,132.2,282.9,129.2,281.5,122.1L281.5,122.1z"/>
				<path class="st17" d="M72.9,123.2c0,0.3,0.1,1,0.2,2c0.1,0.6,0,1-0.2,1.3c-0.1,0.1-0.4,0.2-0.8,0.2c-1.1,0-2.4-0.2-4.1-0.7
					c-1.8-0.5-3-1.1-3.8-1.8c-0.3-0.3-0.7-1.3-1.3-2.9c-0.7-2.2-1.4-4-2.1-5.5c-1.2,0.1-2.9,0.5-5.1,1c-2.2,0.6-3.6,1-4.2,1.4
					c-0.2,1.4-0.6,3.1-1,5c0,0.4-0.1,0.9-0.1,1.3c0,0.4-0.3,0.7-0.7,0.9c-0.1,0.1-0.2,0.1-0.4,0c-0.8-0.1-2.1-0.7-4.1-1.8
					c-1.9-1.1-3-1.8-3.1-2.1c-0.2-0.5-0.1-1.6,0.3-3.3c0.6-2.5,0.9-4.1,1-4.6c-0.8-0.8-1.2-1.6-1.3-2.3c0-0.2,0-0.4,0-0.5
					c0-0.4,0.9-0.9,2.6-1.6c0.9-7.1,1.7-14.3,2.6-21.6c0-0.4-0.1-1.1-0.3-2.2c-0.2-0.9-0.2-1.5,0-1.7c0.1-0.2,0.5-0.2,1.1-0.2
					c1.5,0.1,3.7,0.6,6.6,1.5c2.9,0.9,4.7,1.6,5.3,2.3c0.8,3.9,2.4,9.8,4.9,17.4C68,113.9,70.7,120,72.9,123.2L72.9,123.2z
					 M57.9,108.1c-0.8-2.1-1.2-3.6-1.4-4.3c-0.7-2.3-1.3-4.7-1.9-7.2c-0.4,1.6-0.7,3.9-1.1,6.8c-0.4,3-0.6,4.9-0.5,5.6
					C53.5,108.9,55.1,108.7,57.9,108.1L57.9,108.1z"/>
				<path class="st17" d="M99.4,99.5c-0.6,1.1-1.7,1.5-3.3,1.4c-0.2,0-0.4,0-0.6,0c-0.1,0-0.2,0-0.3,0c-0.1,0-0.2,0-0.4,0
					c-0.5,0-0.8,0-1,0c-0.5,0.2-1.1,0.4-1.6,0.6c0.3,0.6,0.5,1.3,0.7,2.3c0.2,1,0.5,2.2,0.7,3.7c0.3,2.1,0.7,4.7,1.1,7.6
					c0.1,0.2,0.2,0.4,0.4,0.7c0.2,0.3,0.4,0.5,0.6,0.8c0,0,0,0-0.1,0c0.4,0.5,0.7,0.8,1,1.1c0.2,0.3,0.4,0.5,0.5,0.7
					c0.2,0.5,0.3,1.1,0.2,1.7c-0.1,0.6-0.3,1.2-0.7,1.8c-0.3,0.4-0.7,0.9-1.2,1.2c-0.5,0.4-1,0.7-1.5,0.9c-1.4,0.6-2.7,0.5-4-0.4
					c-0.6-0.4-0.9-0.8-1.1-1.3c-0.1-0.3-0.2-0.8-0.4-1.5c-0.1-0.7-0.3-1.3-0.3-1.9c0-0.2-0.1-0.4-0.1-0.5c-0.5-2.6-1-5.2-1.5-7.9
					c-0.3-1.2-0.5-2.5-0.7-3.7c-0.2-1.3-0.5-2.6-0.7-4c-0.3,0-0.5,0.1-0.7,0.1c-0.2,0-0.4,0.1-0.7,0.2c-0.6,0.1-1.1,0.2-1.7,0.3
					c0.4,2.6,0.8,5.1,1.2,7.7c0.2,1.3,0.4,2.6,0.7,3.9c0.2,1.3,0.5,2.6,0.7,3.9c0.2,1.2,0.4,2.4,0.6,3.5c0,0.3,0.1,0.5,0.1,0.9
					c0,0.3,0,0.7,0,1c0,1.2-1,1.9-2.8,2.1c-1.3,0.1-2.4,0-3-0.5c-0.7-0.5-1.2-1.1-1.5-2c-0.1-0.3-0.2-0.8-0.3-1.3
					c-0.1-0.5-0.2-1-0.2-1.5c-0.1-1-0.2-1.8-0.3-2.4c-0.3-1.4-0.5-2.7-0.8-4c-0.2-1.2-0.5-2.4-0.7-3.5c-0.2-1.1-0.5-2.2-0.7-3.2
					c-0.2-1-0.5-2.1-0.7-3.1c0,0,0,0,0,0c-0.1,0-0.1,0-0.2,0c-0.1,0-0.2,0-0.2,0c-0.8,0.1-1.5,0.1-1.9,0c-0.7-0.2-1.4-0.6-2-1.4
					c-0.3-0.3-0.6-0.6-0.9-0.9c-0.3-0.3-0.6-0.7-0.8-1c-0.3-0.4-0.5-0.8-0.7-1.2c-0.2-0.4-0.2-0.9-0.2-1.4c0,0,0-0.3,0.2-0.8
					c0-0.1,0.1-0.2,0.1-0.3c0.2-0.4,1.1-0.8,2.9-1.2c1.8-0.5,4.4-0.9,7.8-1.4c4.4-0.7,7.7-1.4,10-1.9c2.3-0.5,3.5-0.9,3.7-1
					c0.3-0.2,0.6-0.5,0.9-0.7c0,0,0,0,0,0.1c0.4-0.4,0.7-0.6,1.1-0.8c0.4-0.2,0.8-0.3,1.1-0.3c1,0,2,0.6,3.2,1.8c1.4,1.5,2,3,2,4.6
					c0,0.4-0.1,0.8-0.2,1.1C99.8,98.7,99.6,99,99.4,99.5C99.4,99.4,99.4,99.5,99.4,99.5L99.4,99.5z"/>
				<path class="st17" d="M114.2,89.1c1.9,0.5,3.5,1.9,4.9,4.4c1.3,2.2,2.2,5,2.7,8.2c0.7,4.5,0.6,8.4-0.3,12
					c-1,3.8-2.8,5.9-5.3,6.2c-0.9,0-2.3,0.1-4.2,0.2c-1.3,0.2-2.6,0.2-3.7,0.2c-1.9,0-3.6-1.2-5.1-3.6c-1.4-2.2-2.4-5-2.9-8.4
					c-0.6-3.4-0.6-6.7,0-9.8c0.6-3.4,1.9-6.1,3.8-7.9c0.3-0.3,0.8-0.5,1.4-0.7c0.6-0.2,1.9-0.2,3.9-0.2
					C110.6,89.4,112.2,89.2,114.2,89.1L114.2,89.1z M109.6,95.2c-0.9,0.2-1.5,1.6-1.9,4c-0.4,2.4-0.4,4.6-0.1,6.6
					c0.4,2.4,1.1,4.7,2,6.8c1,2.3,1.9,3.4,2.8,3.4c1.1,0,1.8-1.4,2.1-4.2c0.3-2.6,0.3-5.5-0.2-8.6c-0.3-1.7-0.8-3.3-1.5-4.9
					C111.9,95.9,110.8,94.9,109.6,95.2L109.6,95.2z"/>
				<path class="st17" d="M146.6,80.6c0.1,0.5,0.1,1.2,0.2,1.9c0,0.7,0,1.4-0.1,2.1c-0.1,0.7-0.2,1.2-0.4,1.8
					c-0.2,0.5-0.5,0.8-0.8,0.9c-0.8,0.2-1.6,0.4-2.6,0.6c-1,0.1-1.7,0.3-2.3,0.5c0.9,1,1.8,2.2,2.7,3.5c0.8,1.3,1.4,3,1.8,5
					c0.3,1.7,0.3,3.5,0,5.3c-0.3,1.8-0.9,3.6-1.7,5.2c-0.8,1.7-2,3.1-3.3,4.4c-1.4,1.3-3,2.2-4.9,2.8c-0.9,0.3-1.8,0.4-2.8,0.3
					c-1-0.1-2-0.3-3-0.6c-1-0.3-2-0.8-2.9-1.3c-0.9-0.5-1.8-1.1-2.5-1.8c-0.7-0.6-1.4-1.3-1.8-2c-0.5-0.7-0.8-1.3-0.9-1.9
					c-1.1-6.7-0.9-12.2,0.6-16.3c1.5-4.1,4-6.6,7.4-7.6c0.2-0.1,0.5-0.1,0.9-0.2c0.4-0.1,0.9-0.2,1.4-0.4c0.5-0.1,1-0.3,1.5-0.4
					c0.5-0.1,0.9-0.2,1.3-0.3c1.8-0.6,3.1-1,4-1.3c0.9-0.3,1.6-0.6,2.1-0.7c0.5-0.2,0.9-0.3,1.2-0.4c0.3-0.1,0.7-0.3,1.2-0.5
					c0.4-0.2,0.8-0.3,1.3-0.3c0.4,0,0.8,0,1.2,0.1c0.4,0.1,0.7,0.3,1,0.6C146.4,79.8,146.6,80.2,146.6,80.6L146.6,80.6z M131.5,90.2
					c-1.4,0.9-2.4,2.6-3,5.1c-0.5,2.5-0.5,5.8,0.2,9.7c0.1,0.5,0.3,1.1,0.7,1.5c0.4,0.5,0.8,0.9,1.4,1.2c0.5,0.3,1.1,0.6,1.7,0.8
					c0.6,0.2,1.2,0.3,1.8,0.3c0.4-0.6,0.8-1.4,1.2-2.4c0.4-1,0.7-2.1,0.9-3.3c0.2-1.2,0.4-2.4,0.4-3.8c0-1.3,0-2.6-0.2-3.9
					c-0.3-1.7-0.8-2.9-1.6-3.8C134.3,91,133.1,90.4,131.5,90.2L131.5,90.2z"/>
				<path class="st17" d="M151.6,86.1c-0.3,0.2-0.6,0.4-1,0.6c-0.4,0.2-0.7,0.4-1.1,0.6c-0.3,0.2-0.6,0.4-0.9,0.6
					c-0.3,0.2-0.5,0.3-0.6,0.3c-0.6,0.2-1.2,0.2-1.8,0.1c-0.6-0.1-0.9-0.6-1.1-1.3c-0.2-1-0.2-2,0-3.1c0.1-1,0.4-2,0.8-2.8
					c0.4-0.9,0.8-1.6,1.3-2.2c0.5-0.6,1-1,1.6-1.1c0.5-0.2,1.2-0.3,1.8-0.3c0.7,0,1.4-0.1,2.1-0.1c0.8,0,1.5,0,2.3,0.1
					c0.8,0.1,1.5,0.2,2.2,0.2c1.4-1.3,2.8-2.4,4.3-3.2c1.5-0.9,3-1.5,4.5-1.9c1.1-0.3,2-0.4,2.7-0.1c0.7,0.2,1.2,0.7,1.3,1.5
					c0.2,1.1,0.2,2.2,0.1,3.2c-0.2,1.1-0.4,2.1-0.8,3.1c-0.4,0.9-0.9,1.8-1.4,2.4c-0.6,0.7-1.2,1.1-1.8,1.3
					c-0.3,0.1-0.7,0.2-1.2,0.3c-0.5,0.1-1.1,0.2-1.7,0.2c-0.6,0.1-1.1,0.1-1.7,0.2c-0.5,0.1-0.9,0.1-1.2,0.1
					c-0.2,0.5-0.3,1.1-0.4,1.8c-0.1,0.8-0.1,1.6-0.1,2.4c0,0.8,0,1.6,0.1,2.4c0,0.7,0.1,1.3,0.2,1.7c0.2,1,0.6,1.6,1.3,1.8
					c0.7,0.2,1.3,0.3,2,0.1c0.5-0.1,0.9-0.3,1.4-0.6c0.5-0.3,1-0.5,1.5-0.8c0.5-0.3,1-0.6,1.5-0.9c0.5-0.3,1.1-0.5,1.6-0.7
					c0.9-0.3,1.5-0.3,1.9-0.2c0.4,0.2,0.7,0.6,0.8,1.1c0.2,0.9,0.2,1.8,0.1,2.7c-0.1,1-0.3,1.9-0.6,2.8c-0.3,0.9-0.8,1.7-1.5,2.4
					c-0.7,0.7-1.5,1.3-2.5,1.6c-1.1,0.4-2.4,0.7-4,0.8c-1.6,0.2-3.2,0.1-4.7-0.1c-1.5-0.2-2.9-0.7-4.1-1.4c-1.2-0.7-1.9-1.8-2.1-3.2
					c-0.4-2.3-0.4-4.5,0-6.8c0.4-2.3,0.9-4.5,1.6-6.7C153.5,85.6,152.6,85.9,151.6,86.1L151.6,86.1z"/>
				<path class="st17" d="M184.2,68.9c1.9,0.3,3.5,1.5,4.9,3.5c1.3,1.8,2.2,4.2,2.7,7c0.7,3.9,0.6,7.6-0.3,11
					c-1,3.7-2.8,5.8-5.3,6.3c-0.9,0.1-2.3,0.3-4.2,0.6c-1.3,0.3-2.6,0.5-3.7,0.5c-1.9,0.2-3.6-0.8-5.1-3c-1.4-2-2.4-4.5-2.9-7.7
					c-0.6-3.2-0.6-6.2,0-9.1c0.6-3.2,1.9-5.6,3.8-7.3c0.3-0.3,0.8-0.5,1.4-0.7c0.6-0.2,1.9-0.3,3.9-0.4
					C180.6,69.4,182.2,69.1,184.2,68.9L184.2,68.9z M179.6,74.3c-0.9,0.2-1.5,1.4-1.9,3.6c-0.4,2.2-0.4,4.2-0.1,6
					c0.4,2.2,1.1,4.2,2,6.2c1,2.1,1.9,3.1,2.8,3c1.1-0.1,1.8-1.5,2.1-4.1c0.3-2.5,0.3-5.1-0.2-7.8c-0.3-1.5-0.8-2.9-1.5-4.3
					C181.9,74.8,180.8,74,179.6,74.3L179.6,74.3z"/>
				<path class="st17" d="M191.7,68.3c-0.4,0.1-0.8,0-1.2-0.2c-0.4-0.3-0.8-0.6-1.1-1.1c-0.4-0.5-0.7-1-1-1.6
					c-0.3-0.6-0.5-1.2-0.6-1.7c-0.2-1,0-1.8,0.6-2.5c0.6-0.7,1.5-1,2.6-0.9c0.8-0.4,1.6-0.7,2.5-1.1c0.9-0.3,1.9-0.6,2.9-0.8
					c2.1-0.4,3.8-0.4,5.2,0c1.4,0.4,2.3,1.1,2.9,2.2c3.1,6.2,6.2,12.5,9.4,19.1c0.2,0.4,0.5,0.8,1.1,1.2c0.6,0.4,1.2,0.6,1.8,0.5
					c0.7-0.4,1.2-0.4,1.5-0.2c0.3,0.2,0.6,0.6,0.7,1.1c0.1,0.4-0.1,1-0.4,1.7c-0.3,0.7-0.8,1.4-1.4,2.1c-0.6,0.7-1.2,1.3-1.8,1.9
					c-0.6,0.6-1.2,0.9-1.7,1.1c-1.1,0.3-2,0.2-2.7-0.3c-0.7-0.5-1.4-1.4-2.1-2.8c-1.5-3.1-2.9-6.1-4.4-9.1c-0.4,1.2-0.9,2.3-1.3,3.5
					c-0.4,1.1-0.8,2.3-1.1,3.4c-0.3,1.1-0.5,2.2-0.6,3.2c-0.1,1-0.1,2.1,0.1,3.1c0,0.5-0.2,1.1-0.6,1.7c-0.4,0.6-1.2,1.1-2.3,1.5
					c-0.5,0.1-1.1,0.2-1.7,0.3c-0.7,0-1.4,0-2-0.1c-0.7-0.1-1.2-0.3-1.8-0.6c-0.5-0.3-0.8-0.7-0.9-1.3c-0.1-0.5,0-1.4,0.3-2.5
					c0.3-1.1,0.7-2.6,1.4-4.6c0.7-1.9,1.6-4.3,2.6-7.1c1.1-2.8,2.4-6.2,3.9-9.9c-0.3-0.5-0.5-1-0.7-1.3c-0.2-0.3-0.4-0.5-0.5-0.7
					c-0.2-0.2-0.4-0.2-0.6-0.2c-0.2,0-0.5,0-0.9,0.1c-0.7,0.2-1.3,0.4-1.8,0.7c-0.5,0.3-1,0.6-1.4,0.9c-0.4,0.3-0.9,0.6-1.3,0.9
					C192.8,68,192.3,68.2,191.7,68.3L191.7,68.3z"/>
				<path class="st17" d="M219.1,69.6c-0.3-0.3-0.6-0.5-1-0.9c-0.4-0.3-0.8-0.7-1.2-1.1c-0.4-0.4-0.8-0.8-1.1-1.3
					c-0.3-0.5-0.6-1-0.7-1.6c-0.1-0.4,0-0.9,0.3-1.3c0.3-0.4,0.7-0.8,1.2-1.1c0.5-0.3,1.1-0.6,1.8-0.8c0.7-0.2,1.3-0.4,1.9-0.5
					c0.7-0.1,1.3,0.1,1.8,0.7c0.6,0.6,0.9,1.4,1.1,2.6c0.4-0.4,0.9-0.9,1.4-1.4c0.5-0.5,1.1-1,1.8-1.4c0.7-0.5,1.4-0.8,2.1-1.2
					c0.7-0.3,1.5-0.6,2.2-0.7c1.1-0.2,2.2-0.1,3.2,0.2c1,0.3,2,0.7,2.8,1.3c0.8,0.6,1.5,1.2,2,2c0.5,0.8,0.9,1.5,1,2.2
					c0.2,0.9,0.4,1.9,0.6,3.1c0.2,1.2,0.5,2.3,0.7,3.6c0.2,1.2,0.5,2.4,0.7,3.7c0.2,1.2,0.5,2.4,0.6,3.4c0.2,1.1,0.4,2,0.5,2.8
					c0.1,0.8,0.3,1.3,0.3,1.7c0.1,0.6,0.4,1.1,0.8,1.6c0.5,0.5,0.7,1.1,0.8,1.6c0.1,0.4-0.1,0.8-0.4,1.2c-0.3,0.5-0.8,0.9-1.4,1.3
					c-0.6,0.4-1.2,0.8-1.9,1.1c-0.7,0.3-1.4,0.5-2,0.6c-1,0.1-1.8,0-2.4-0.3c-0.7-0.4-1.1-1-1.2-2c-0.1-0.7-0.1-1.4,0-2.3
					c0.1-0.8,0.2-1.6,0-2.2c-0.1-0.6-0.3-1.5-0.5-2.7c-0.2-1.1-0.4-2.4-0.7-3.7c-0.2-1.3-0.5-2.7-0.8-4c-0.3-1.3-0.6-2.6-0.9-3.7
					c-0.3-1.1-0.6-2-1-2.8c-0.3-0.8-0.6-1.2-0.9-1.3c-0.4,0.1-0.9,0.4-1.4,0.7c-0.5,0.3-1,0.7-1.5,1.1c-0.5,0.4-0.8,0.9-1.1,1.3
					c-0.3,0.4-0.4,0.8-0.3,1.1c1,3.5,1.9,7.1,2.9,10.9c0.3,0.5,0.3,0.9,0,1.3c-0.3,0.4-0.7,0.8-1.3,1.2c-0.6,0.4-1.2,0.7-1.9,1
					c-0.7,0.3-1.4,0.5-2,0.6c-0.5,0.1-0.9,0.1-1.3,0c-0.4-0.1-0.7-0.2-0.9-0.4c-0.2-0.2-0.4-0.4-0.5-0.6c-0.1-0.2-0.2-0.5-0.3-0.7
					c-0.1-0.4,0-0.9,0.2-1.5C220.7,77.8,219.9,73.6,219.1,69.6L219.1,69.6z M230.6,50.8c0.2,0.2,0.1,0.5-0.2,0.8
					c-0.3,0.4-0.5,0.6-0.5,0.6c0.1,0.1,0,0.6-0.3,1.5c-0.4,1-0.6,1.5-0.6,1.5c0.1,0.8-0.1,1.3-0.4,1.5c-0.1,0.1-0.3,0.1-0.5,0.1
					c-0.3,0-0.6,0-1.1-0.1c-0.6-0.1-1.1-0.1-1.3-0.2c-1.1,0-1.7-0.1-1.9-0.1c-0.7-0.1-1.2-0.2-1.4-0.4c-0.1-0.1,0.2-0.7,0.9-1.8
					c0.8-1.3,1.3-2.1,1.4-2.2c0-0.1,0.1-0.4,0.1-1.1c0.1-0.5,0.2-0.8,0.4-0.8c0.6-0.2,1.6-0.2,3,0C229.4,50.2,230.3,50.5,230.6,50.8
					L230.6,50.8z"/>
				<path class="st17" d="M74.2,144.5c0.1,0.5,0.1,1,0.2,1.6c0,0.6,0,1.2-0.1,1.7c-0.1,0.5-0.2,1-0.4,1.4c-0.2,0.4-0.5,0.6-0.8,0.6
					c-0.8,0-1.6,0-2.6-0.1c-1-0.1-1.7-0.1-2.3-0.1c0.9,1,1.8,2.2,2.7,3.4c0.8,1.2,1.4,2.7,1.8,4.4c0.3,1.4,0.3,2.8,0,4.2
					c-0.3,1.4-0.9,2.6-1.7,3.8c-0.8,1.1-2,2.1-3.3,2.9c-1.4,0.8-3,1.4-4.9,1.6c-0.9,0.1-1.8,0.1-2.8-0.1c-1-0.2-2-0.5-3-0.9
					c-1-0.4-2-0.9-2.9-1.5c-1-0.6-1.8-1.3-2.5-1.9c-0.7-0.7-1.4-1.4-1.8-2.1c-0.5-0.7-0.8-1.3-0.9-1.9c-1.1-6.3-0.9-11.2,0.6-14.3
					c1.5-3.1,4-4.5,7.4-4.4c0.2,0,0.5,0,0.9,0c0.4,0,0.9,0,1.4,0.1c0.5,0,1,0.1,1.5,0.1c0.5,0,0.9,0.1,1.3,0.1c1.8,0,3.1-0.1,4-0.1
					c0.9-0.1,1.6-0.1,2.1-0.1c0.5,0,0.9-0.1,1.2-0.1c0.3,0,0.7-0.1,1.2-0.2c0.4,0,0.8,0,1.3,0c0.4,0.1,0.8,0.2,1.2,0.3
					c0.4,0.2,0.7,0.4,1,0.7C74,143.8,74.2,144.1,74.2,144.5L74.2,144.5z M59.1,149.1c-1.4,0.4-2.4,1.6-3,3.6c-0.5,2-0.5,4.8,0.2,8.3
					c0.1,0.5,0.3,1,0.7,1.4c0.4,0.5,0.8,0.9,1.4,1.2c0.5,0.4,1.1,0.7,1.7,1c0.6,0.3,1.2,0.5,1.8,0.6c0.4-0.4,0.8-1,1.2-1.8
					c0.4-0.7,0.7-1.6,0.9-2.5c0.2-0.9,0.4-1.9,0.4-3c0-1.1,0-2.1-0.2-3.2c-0.3-1.4-0.8-2.6-1.6-3.4
					C61.9,150.4,60.7,149.7,59.1,149.1L59.1,149.1z"/>
				<path class="st17" d="M79.2,150c-0.3,0.1-0.6,0.2-1,0.3c-0.4,0.1-0.7,0.2-1.1,0.3c-0.3,0.1-0.6,0.2-0.9,0.3
					c-0.3,0.1-0.5,0.1-0.6,0.2c-0.6,0-1.2,0-1.8-0.2c-0.6-0.2-0.9-0.6-1.1-1.3c-0.2-0.9-0.2-1.7,0-2.5c0.1-0.8,0.4-1.6,0.8-2.2
					c0.4-0.6,0.8-1.2,1.3-1.6c0.5-0.4,1-0.6,1.6-0.7c0.5,0,1.2,0,1.8,0.1c0.7,0.1,1.4,0.2,2.1,0.3c0.8,0.1,1.5,0.3,2.3,0.5
					c0.8,0.2,1.5,0.4,2.2,0.5c1.4-0.9,2.8-1.6,4.3-2.2c1.5-0.6,3-1,4.5-1.2c1.1-0.2,2-0.1,2.7,0.1c0.7,0.3,1.2,0.8,1.3,1.5
					c0.2,1,0.2,1.9,0.1,2.9c-0.2,0.9-0.4,1.8-0.8,2.6c-0.4,0.8-0.9,1.4-1.4,1.9c-0.6,0.5-1.2,0.8-1.8,0.9c-0.3,0-0.7,0.1-1.2,0.1
					c-0.5,0-1.1,0-1.7,0c-0.6,0-1.1,0-1.7-0.1c-0.5,0-0.9,0-1.2-0.1c-0.2,0.4-0.3,0.8-0.4,1.4c-0.1,0.6-0.1,1.2-0.1,1.9
					c0,0.7,0,1.3,0.1,1.9c0,0.6,0.1,1.1,0.2,1.4c0.2,0.8,0.6,1.4,1.3,1.6c0.7,0.3,1.3,0.4,2,0.4c0.5,0,0.9-0.1,1.4-0.3
					c0.5-0.1,1-0.3,1.5-0.4c0.5-0.2,1-0.3,1.5-0.5c0.5-0.2,1.1-0.3,1.6-0.4c0.9-0.1,1.5-0.1,1.9,0.1c0.4,0.2,0.7,0.5,0.8,1
					c0.2,0.7,0.2,1.4,0.1,2.2c-0.1,0.7-0.3,1.4-0.6,2.1c-0.3,0.6-0.8,1.2-1.5,1.6c-0.7,0.5-1.5,0.7-2.5,0.9c-1.1,0.1-2.4,0.2-4,0.1
					c-1.6-0.1-3.2-0.3-4.7-0.7c-1.5-0.4-2.9-0.9-4.1-1.7c-1.2-0.7-1.9-1.6-2.1-2.8c-0.4-1.8-0.4-3.6,0-5.3c0.4-1.7,0.9-3.4,1.6-5.1
					C81.1,149.9,80.2,149.9,79.2,150L79.2,150z"/>
				<path class="st17" d="M111.8,138.3c1.9,0.3,3.5,1.5,4.9,3.5c1.3,1.8,2.2,4.1,2.7,6.7c0.7,3.7,0.6,6.9-0.3,9.8
					c-1,3-2.8,4.6-5.3,4.7c-0.9,0-2.3,0-4.2,0c-1.3,0.1-2.6,0.1-3.7,0c-1.9-0.1-3.6-1.1-5.1-2.9c-1.4-1.7-2.4-3.9-2.9-6.5
					c-0.6-2.7-0.6-5.3,0-7.7c0.6-2.7,1.9-4.8,3.8-6.2c0.3-0.2,0.8-0.4,1.4-0.5c0.6-0.1,1.9-0.2,3.9-0.2
					C108.2,138.6,109.8,138.4,111.8,138.3L111.8,138.3z M107.2,143.2c-0.9,0.2-1.5,1.2-1.9,3.2c-0.4,1.9-0.4,3.7-0.1,5.2
					c0.4,1.9,1.1,3.7,2,5.4c1,1.8,1.9,2.7,2.8,2.8c1.1,0,1.8-1,2.1-3.2c0.3-2.1,0.3-4.4-0.2-6.8c-0.3-1.4-0.8-2.7-1.5-4
					C109.5,143.8,108.4,143,107.2,143.2L107.2,143.2z"/>
				<path class="st17" d="M149.3,158.5c0.3,0.3,0.6,0.7,0.8,1.1c0.2,0.4,0.4,0.8,0.4,1.1c0.3,1.4-0.8,2.4-3.3,2.8
					c-0.5,0.1-1.1,0.1-1.7,0.1c-0.7,0-1.3-0.1-1.9-0.3c-0.6-0.1-1.1-0.3-1.5-0.6c-0.4-0.3-0.7-0.5-0.7-0.9c-0.1-0.3-0.1-0.6,0-0.9
					c0.1-0.3,0.2-0.8,0.5-1.2c-0.2-1.3-0.5-2.6-0.7-3.8c-1.3,0.2-2.6,0.2-4,0.1c-1.4-0.2-2.8-0.5-4-1c-1.3-0.5-2.3-1.2-3.3-2.1
					c-0.9-0.9-1.5-2-1.8-3.3c-0.3-1.7-0.4-3.2-0.1-4.6c0.2-1.4,0.6-2.8,1.2-4c0.6-1.2,1.2-2.3,2-3.2c0.8-1,1.5-1.8,2.3-2.5
					c0.8-0.7,1.4-1.2,2.1-1.7c0.6-0.4,1-0.7,1.3-0.8c-0.4-2.4-0.9-4.8-1.3-7.3c-0.6-0.3-1-0.5-1.3-0.8c-0.2-0.3-0.4-0.6-0.5-0.9
					c-0.3-1.8,0.9-3.2,3.8-4.1c0.8-0.2,1.5-0.4,2.2-0.4c0.7,0,1.4,0,2,0.1c0.6,0.1,1.1,0.4,1.5,0.6c0.4,0.3,0.7,0.7,0.7,1.1
					c0.1,0.4-0.2,1.4-0.9,3c0.3,2.1,0.7,4.2,1,6.2c2-0.4,3.7-0.5,5.2-0.4c1.5,0.1,2.9,0.5,4,1c1.1,0.6,2,1.3,2.7,2.3
					c0.7,1,1.2,2.1,1.4,3.4c0.3,1.8,0.4,3.6,0.2,5.4c-0.2,1.8-0.6,3.4-1.4,5c-0.7,1.5-1.7,2.9-3,4.1c-1.3,1.2-2.9,2.2-4.7,2.8
					C148.7,155.4,149,156.9,149.3,158.5L149.3,158.5z M135.4,148.2c0.2,1.2,0.8,2.1,1.6,2.6c0.8,0.5,2,0.8,3.5,0.8
					c-0.8-4.3-1.7-8.6-2.5-13c-0.8,0.6-1.4,1.2-1.8,2c-0.4,0.8-0.7,1.6-0.9,2.5c-0.2,0.9-0.2,1.8-0.2,2.6
					C135.2,146.7,135.3,147.5,135.4,148.2L135.4,148.2z M147.3,148.5c0.7-0.5,1.3-1.2,1.7-2c0.4-0.8,0.7-1.7,0.9-2.7
					c0.2-1,0.2-1.9,0.2-3c-0.1-1-0.2-2-0.3-2.9c-0.2-1.2-0.7-2-1.5-2.6c-0.8-0.6-1.9-0.6-3.4-0.2
					C145.6,139.7,146.5,144.1,147.3,148.5L147.3,148.5z"/>
				<path class="st17" d="M172.1,127.2c-0.3,0-0.7,0.1-1.2,0.1c-0.5,0-1,0.1-1.5,0.2c-0.5,0.1-1,0.1-1.5,0.2c-0.5,0.1-0.8,0.1-1,0.2
					c-0.4,0.2-0.9,0.3-1.3,0.5c-0.4,0.2-0.8,0.4-1.2,0.7c-0.3,0.3-0.6,0.6-0.8,0.9c-0.2,0.3-0.3,0.7-0.2,1.1c0,0.2,0.2,0.5,0.3,0.8
					c0.2,0.3,0.4,0.5,0.7,0.8c0.3,0.2,0.6,0.4,1,0.5c0.4,0.1,0.8,0.1,1.2-0.1c0.3-0.3,0.7-0.6,1.1-1c0.5-0.3,0.9-0.5,1.3-0.7
					c0.3-0.1,0.7,0,1.2,0.3c0.5,0.3,0.9,0.7,1.3,1.1c0.4,0.5,0.8,1,1.1,1.5c0.3,0.5,0.5,1,0.6,1.3c0.1,0.4,0.1,0.7,0.2,1
					c0.1,0.3,0.1,0.7,0.1,0.9c0,0.3-0.1,0.5-0.3,0.7c-0.2,0.2-0.5,0.4-0.9,0.5c-0.4,0.1-1,0.3-1.8,0.4c-0.7,0.1-1.4,0.3-2.1,0.5
					c-1.1,0.3-1.9,0.7-2.3,1.2c-0.4,0.4-0.5,1-0.4,1.7c0.1,0.5,0.4,0.9,0.9,1.2c0.5,0.4,1.3,0.4,2.2,0.1c0.5-0.2,1.1-0.4,1.8-0.7
					c0.7-0.3,1.4-0.6,2-1c0.6-0.4,1.2-0.7,1.6-1c0.4-0.3,0.7-0.5,0.7-0.7c0-0.7,0.2-1.4,0.6-2.1c0.4-0.7,1-1.1,1.7-1.3
					c0.3-0.1,0.8,0,1.3,0.2c0.6,0.2,1.1,0.6,1.7,1c0.6,0.4,1.1,1,1.5,1.5c0.4,0.6,0.7,1.2,0.8,1.8c0.1,0.7,0.1,1.3-0.2,2
					c-0.2,0.6-0.7,1.1-1.4,1.3c-1.5,1-3,2-4.5,2.8c-1.5,0.9-3.2,1.6-5.3,2.1c-1.3,0.4-2.6,0.5-4,0.3c-1.3-0.2-2.5-0.5-3.7-1
					c-1.1-0.5-2.1-1.2-2.8-2c-0.8-0.8-1.3-1.7-1.5-2.8c-0.1-0.8-0.2-1.6-0.2-2.2c0-0.7,0.1-1.3,0.2-1.8c0.1-0.6,0.3-1.1,0.5-1.5
					c0.2-0.5,0.5-0.9,0.7-1.4c-0.9-0.2-1.7-0.5-2.3-0.9c-0.6-0.4-1.1-0.9-1.5-1.3c-0.4-0.5-0.6-1-0.8-1.6c-0.2-0.5-0.3-1.1-0.4-1.6
					c-0.2-1.1-0.1-2.2,0.2-3.3c0.3-1.1,0.8-2,1.6-3c0.7-0.9,1.6-1.7,2.7-2.5c1.1-0.7,2.3-1.3,3.6-1.8c1.3-0.5,2.9-0.9,4.7-1.3
					c1.8-0.4,3.6-0.6,5.4-0.6c0.3-0.1,0.7-0.1,1.2-0.2c0.5-0.1,1-0.1,1.5-0.1c0.5,0,1,0.2,1.4,0.5c0.4,0.3,0.7,0.7,0.8,1.4
					c0.1,0.4,0.1,1,0,1.7c-0.1,0.7-0.3,1.4-0.5,2.1c-0.2,0.7-0.5,1.3-0.8,1.9c-0.3,0.6-0.6,0.9-0.9,1c-0.3,0.1-0.5,0.2-0.7,0.2
					c-0.2,0-0.4,0.1-0.6,0c-0.2,0-0.4-0.1-0.6-0.2c-0.2-0.1-0.5-0.3-0.8-0.5C173.3,127.4,172.7,127.3,172.1,127.2L172.1,127.2z"/>
				<path class="st17" d="M179.3,123.1c-0.3-0.2-0.6-0.3-0.9-0.4c-0.2-0.1-0.4-0.1-0.6-0.3c-0.2-0.1-0.3-0.3-0.4-0.5
					c-0.1-0.2-0.2-0.6-0.3-1.1c-0.1-0.5-0.1-1,0.1-1.7c0.1-0.6,0.4-1.3,0.7-1.9c0.3-0.6,0.7-1.2,1.2-1.7c0.5-0.5,1.1-0.9,1.7-1.1
					c0.6-0.2,1.3-0.2,2,0.2c0.7,0.3,1.4,0.8,2.1,1.4c0.7,0.6,1.3,1.3,2,2c0.6,0.7,1.2,1.4,1.8,2c0.1-0.4,0.3-0.8,0.5-1.4
					c0.2-0.5,0.4-1.1,0.7-1.7c0.2-0.6,0.5-1.2,0.7-1.8c0.2-0.6,0.5-1.2,0.7-1.8c0.3-0.9,0.7-1.6,1.3-2c0.5-0.4,1.1-0.8,1.9-1
					c0.6-0.2,1.2-0.3,1.9-0.2c0.7,0.1,1.3,0.2,1.9,0.5c0.6,0.3,1.1,0.7,1.6,1.3c0.5,0.6,0.7,1.3,0.9,2.1c0.1,0.5-0.1,1.3-0.4,2.3
					c-0.4,1-0.9,2.1-1.5,3.3c-0.6,1.2-1.2,2.4-1.9,3.6c-0.7,1.2-1.3,2.3-1.7,3.2c0.7,0.5,1.5,1.1,2.2,1.8c0.7,0.7,1.4,1.4,2.1,2.3
					c0.6,0.8,1.2,1.7,1.7,2.6c0.5,0.9,0.8,1.9,0.9,2.9c0.1,0.7,0.1,1.6-0.1,2.6c-0.1,1.1-0.4,2.2-0.8,3.4c-0.4,1.2-0.9,2.4-1.4,3.6
					c-0.6,1.2-1.2,2.4-1.9,3.4c-0.7,1.1-1.5,2-2.3,2.7c-0.8,0.7-1.7,1.2-2.5,1.4c-1,0.3-2.2,0.2-3.4-0.3c-1.3-0.5-2.5-1.1-3.6-1.9
					c-1.1-0.8-2.1-1.8-3-2.8c-0.8-1-1.3-2.1-1.5-3.1c-0.4-2.6-0.3-5.2,0.4-8.1c0.7-2.9,1.9-6.1,3.7-9.7
					C183.4,125.8,181.3,124.5,179.3,123.1L179.3,123.1z M191.4,132.4c-0.4,0.8-0.7,1.8-1.1,3c-0.4,1.1-0.7,2.3-1,3.4
					c-0.3,1.1-0.5,2.2-0.7,3.2c-0.2,1-0.2,1.7-0.1,2.2c0.1,0.4,0.2,0.7,0.4,0.9c0.2,0.2,0.5,0.4,0.7,0.5c0.3,0.1,0.6,0.2,0.9,0.3
					c0.3,0.1,0.6,0.1,0.8,0.1c0.3-0.3,0.6-0.8,1.1-1.6c0.4-0.8,0.9-1.6,1.3-2.6c0.4-0.9,0.7-1.9,1-2.9c0.3-1,0.3-1.9,0.2-2.6
					C193.6,135.1,192.5,133.8,191.4,132.4L191.4,132.4z"/>
				<path class="st17" d="M200.8,116.1c-0.3-0.2-0.6-0.3-0.9-0.4c-0.2-0.1-0.4-0.2-0.6-0.3c-0.2-0.1-0.3-0.3-0.4-0.6
					c-0.1-0.2-0.2-0.6-0.3-1.2c-0.1-0.5-0.1-1,0.1-1.7c0.1-0.6,0.4-1.3,0.7-1.9c0.3-0.6,0.7-1.2,1.2-1.7c0.5-0.5,1.1-0.8,1.7-1
					c0.6-0.2,1.3-0.1,2,0.3c0.7,0.4,1.4,0.9,2.1,1.5c0.7,0.6,1.3,1.3,2,2.1c0.6,0.8,1.2,1.5,1.8,2.1c0.1-0.4,0.3-0.8,0.5-1.4
					c0.2-0.5,0.4-1.1,0.7-1.7c0.2-0.6,0.5-1.2,0.7-1.8c0.2-0.6,0.5-1.2,0.7-1.7c0.3-0.9,0.7-1.5,1.3-1.9c0.5-0.4,1.1-0.7,1.9-0.9
					c0.6-0.1,1.2-0.2,1.9-0.1c0.7,0.1,1.3,0.3,1.9,0.7c0.6,0.3,1.1,0.8,1.6,1.4c0.5,0.6,0.7,1.3,0.9,2.1c0.1,0.5-0.1,1.3-0.4,2.2
					c-0.4,1-0.9,2-1.5,3.2c-0.6,1.2-1.2,2.3-1.9,3.5c-0.7,1.2-1.3,2.2-1.7,3.1c0.7,0.6,1.5,1.2,2.2,1.9c0.7,0.7,1.4,1.5,2.1,2.4
					c0.6,0.9,1.2,1.8,1.7,2.8c0.5,1,0.8,2,0.9,3c0.1,0.7,0.1,1.6-0.1,2.7c-0.2,1.1-0.4,2.2-0.8,3.4c-0.4,1.2-0.8,2.4-1.4,3.7
					c-0.6,1.2-1.2,2.4-1.9,3.5c-0.7,1.1-1.5,2-2.3,2.7c-0.8,0.7-1.7,1.2-2.5,1.4c-1,0.3-2.2,0.1-3.4-0.4c-1.3-0.5-2.5-1.2-3.6-2.1
					c-1.1-0.9-2.1-1.9-3-3c-0.8-1.1-1.3-2.2-1.5-3.3c-0.4-2.7-0.3-5.5,0.4-8.5c0.7-2.9,1.9-6.3,3.7-9.9
					C204.9,119,202.8,117.5,200.8,116.1L200.8,116.1z M212.9,126.1c-0.4,0.9-0.7,1.9-1.1,3c-0.4,1.2-0.7,2.3-1,3.5
					c-0.3,1.2-0.5,2.3-0.7,3.3c-0.2,1-0.2,1.8-0.1,2.3c0.1,0.4,0.2,0.7,0.4,0.9c0.2,0.2,0.5,0.4,0.7,0.6c0.3,0.2,0.6,0.3,0.9,0.3
					c0.3,0.1,0.6,0.1,0.8,0.2c0.3-0.3,0.6-0.8,1.1-1.6c0.4-0.8,0.9-1.6,1.3-2.6c0.4-1,0.7-1.9,1-3c0.3-1,0.3-1.9,0.2-2.7
					C215.1,128.9,214,127.5,212.9,126.1L212.9,126.1z"/>
				<path class="st17" d="M251.4,125.2c0.1,0.5,0.1,1-0.1,1.6c-0.1,0.5-0.4,1.1-0.8,1.6c-0.4,0.5-0.9,0.9-1.5,1.3
					c-0.6,0.4-1.4,0.6-2.4,0.8c-1.3,0.2-2.3,0.1-2.9-0.3c-0.6-0.4-1-1.2-1.2-2.5c-0.2-0.4-0.4-0.8-0.6-1.3c-0.3-0.5-0.5-1-0.8-1.5
					c-0.3-0.5-0.5-1.1-0.8-1.6c-0.2-0.5-0.4-1-0.6-1.4c-0.3,1-0.6,2.1-0.9,3.1c-0.3,1.1-0.7,2.1-1.2,3c-0.5,0.9-1.1,1.7-1.8,2.4
					c-0.7,0.7-1.6,1.1-2.6,1.3c-1,0.2-2,0.1-3.1-0.4c-1.1-0.5-2-1.2-3-2.2c-0.9-1-1.7-2.2-2.4-3.6c-0.7-1.4-1.2-3-1.5-4.7
					c-0.5-3.3-0.7-6.2-0.6-8.8c0.1-2.5,0.5-4.7,1.2-6.4c0.6-1.8,1.5-3.2,2.6-4.2c1.1-1,2.3-1.7,3.7-2c1.1-0.2,2.1-0.2,2.9,0.1
					c0.8,0.3,1.5,0.7,2.1,1.2c0.6,0.6,1.1,1.2,1.5,2c0.4,0.8,0.8,1.6,1.2,2.5c0.1-1.5,0.3-2.9,0.4-4.4c-0.2-1.1-0.1-2,0.4-2.4
					c0.4-0.5,1.1-0.8,2-0.9c0.4-0.1,0.9,0,1.6,0.1c0.7,0.1,1.4,0.3,2.1,0.6c0.7,0.3,1.3,0.6,1.9,1.1c0.5,0.4,0.9,1,1,1.5
					c0.1,0.6,0.1,1.4,0,2.2c-0.1,0.9-0.3,1.8-0.6,2.8c-0.3,1-0.5,2.2-0.8,3.4c-0.3,1.2-0.4,2.5-0.5,3.8c0.5,1.1,1.1,2.4,1.7,3.7
					c0.7,1.3,1.3,2.5,2,3.7c0.6,1.2,1.2,2.2,1.7,3C251.1,124.4,251.4,125,251.4,125.2L251.4,125.2z M237.2,87.2
					c0.2,0.2,0.1,0.6-0.2,1.1c-0.3,0.5-0.5,0.7-0.5,0.8c0.1,0.2,0,0.8-0.3,1.9c-0.4,1.2-0.6,1.9-0.6,1.9c0.1,1-0.1,1.7-0.4,1.9
					c-0.1,0.1-0.3,0.1-0.5,0.2c-0.3,0-0.6,0-1.1-0.1c-0.6-0.1-1.1-0.2-1.3-0.2c-1.1-0.1-1.7-0.1-1.9-0.1c-0.7-0.1-1.2-0.3-1.4-0.5
					c-0.1-0.1,0.2-0.9,0.9-2.3c0.8-1.7,1.3-2.6,1.4-2.9c0-0.1,0.1-0.6,0.1-1.4c0.1-0.7,0.2-1,0.4-1.1c0.6-0.2,1.6-0.3,3-0.1
					C236,86.4,236.9,86.7,237.2,87.2L237.2,87.2z M231.8,107.4c-0.4,0.1-0.7,0.5-0.9,1.3c-0.2,0.8-0.4,1.7-0.5,2.8
					c-0.1,1.1-0.1,2.3-0.1,3.6c0,1.3,0.1,2.4,0.3,3.3c0.3,1.6,0.7,2.9,1.3,3.8c0.6,0.9,1.3,1.5,2.2,1.9c0.5-0.9,1-2.2,1.5-3.8
					c0.5-1.6,0.8-3.6,1.1-5.9c-0.8-2.5-1.6-4.4-2.5-5.5C233.4,107.8,232.6,107.3,231.8,107.4L231.8,107.4z"/>
				<path class="st17" d="M271.6,114.8c0.4,2.3,0.5,4.3,0.3,6c-0.2,1.6-0.6,3-1.2,4.1c-0.6,1.1-1.4,1.8-2.4,2.4
					c-1,0.5-2,0.8-3.2,0.8c-0.8,0-1.7-0.2-2.6-0.6c-0.9-0.4-2.2-1.1-3.8-1.9c0.5,2.4,1.1,4.8,1.6,7.2c0.1,0.4,0.3,0.7,0.5,1.1
					c0.2,0.3,0.4,0.6,0.7,1c0.2,0.3,0.4,0.7,0.6,1c0.2,0.3,0.3,0.7,0.4,1.1c0.1,0.5-0.1,1-0.4,1.4c-0.4,0.4-0.9,0.7-1.5,1
					c-0.6,0.3-1.3,0.6-2.1,0.8c-0.8,0.2-1.5,0.4-2.2,0.4c-0.4,0.1-0.9,0.1-1.4,0c-0.5-0.1-0.9-0.2-1.3-0.4c-0.4-0.2-0.7-0.5-1-0.9
					c-0.3-0.4-0.5-0.9-0.6-1.6c-0.1-0.4-0.1-0.8-0.1-1.2c0-0.4,0-0.8,0-1.2c0-0.4,0.1-0.7,0.1-0.9c0-0.2,0-0.4,0-0.4
					c-1.1-6.9-2.1-13.6-3.2-20c-0.4-2.5-0.5-4.7-0.2-6.6c0.3-1.9,0.8-3.5,1.6-4.8c0.7-1.3,1.6-2.3,2.6-2.9c1-0.7,2-1,3.1-1.1
					c0.9,0,2,0,3.3,0.3c1.3,0.2,2.5,0.5,3.7,0.9c0.5,0.2,1.2,0.6,2.1,1.3c0.9,0.7,1.7,1.7,2.6,2.9c0.9,1.3,1.7,2.8,2.4,4.6
					C270.6,110.3,271.2,112.4,271.6,114.8L271.6,114.8z M258.4,103.5c-0.6,0.4-1,0.9-1.4,1.8c-0.3,0.8-0.6,1.8-0.7,2.9
					c-0.1,1.1-0.2,2.2-0.1,3.4c0.1,1.2,0.2,2.3,0.4,3.2c0.2,1.2,0.6,2.2,1.1,3.1c0.5,0.9,1.2,1.7,1.9,2.3c0.7,0.6,1.4,1.2,2.1,1.6
					c0.7,0.4,1.4,0.7,2.1,0.9c0.4-0.8,0.6-2.1,0.6-3.7c-0.1-1.7-0.3-4.1-0.8-7.2c-0.1-0.9-0.4-1.8-0.8-2.7c-0.4-0.9-0.9-1.7-1.4-2.5
					c-0.5-0.8-1-1.4-1.6-2C259.3,104,258.8,103.6,258.4,103.5L258.4,103.5z"/>
				<path class="st17" d="M276.5,123.8c-1.1-5.3-2.1-10.5-3.2-15.6c-0.1-0.7-0.4-1.3-0.7-1.8c-0.3-0.5-0.6-1-0.9-1.5
					c-0.3-0.4-0.6-0.9-0.8-1.3c-0.3-0.4-0.4-0.8-0.5-1.2c-0.1-0.6-0.2-1.2-0.2-1.7c0-0.6,0-1.1,0.2-1.5c0.1-0.4,0.4-0.8,0.8-1
					c0.4-0.2,1-0.4,1.8-0.3c0.9,0.1,1.8,0.3,2.7,0.6c0.9,0.3,1.8,0.8,2.7,1.3c0.8,0.5,1.5,1.1,2.1,1.7c0.6,0.6,0.9,1.2,1,1.9
					c0.1,0.5,0.1,1,0.1,1.4c0,0.5,0,0.9-0.1,1.4c0,0.5,0,1,0,1.5c0,0.5,0,1.1,0.1,1.7c0.1,0.4,0.2,1,0.4,2c0.2,1,0.4,2.1,0.7,3.3
					c0.3,1.3,0.5,2.6,0.8,4c0.3,1.4,0.6,2.8,0.8,4c0.4,0.6,0.8,1.1,1.1,1.6c0.4,0.5,0.7,0.9,1,1.3c0.3,0.4,0.5,0.8,0.7,1.2
					c0.2,0.4,0.3,0.9,0.4,1.3c0.3,2.1-2,2.7-7,2.2c-1-0.1-2-0.5-2.8-1.3c-0.8-0.8-1.4-1.7-1.6-2.9
					C276.2,125.5,276.3,124.7,276.5,123.8L276.5,123.8z"/>
			</g>
			<path class="st18" d="M262.1,168.6l-27.9,5.4c-0.6,0.1-1.3-0.3-1.4-0.9c-1.7-8.2-9.5-13.4-17.7-11.9c-0.2,0-0.5,0-0.7-0.1
				c-0.4-0.1-0.6-0.5-0.7-0.9l0,0c-0.1-0.6,0.3-1.3,0.9-1.4l27.8-5.3c9.4-1.8,18.7,4.3,20.7,13.7c0,0,0,0,0,0c0.1,0.3,0,0.6-0.2,0.9
				C262.7,168.4,262.4,168.6,262.1,168.6L262.1,168.6z"/>
			<path class="st19" d="M261.4,168.8l-27.2,5.2c-0.6,0.1-1.3-0.3-1.4-0.9c-1.7-8.2-9.5-13.4-17.7-11.9c-0.2,0-0.5,0-0.7-0.1
				L241,156C250.1,154.2,259,159.9,261.4,168.8L261.4,168.8z"/>
			<path class="st18" d="M286.2,192.8l-5.4,27.9c-0.1,0.6,0.3,1.3,0.9,1.4c8.2,1.7,13.4,9.5,11.9,17.7c0,0.2,0,0.5,0.1,0.7
				c0.1,0.4,0.5,0.6,0.9,0.7l0,0c0.6,0.1,1.3-0.3,1.4-0.9l5.3-27.8c1.8-9.4-4.3-18.7-13.7-20.7c0,0,0,0,0,0c-0.3-0.1-0.6,0-0.9,0.2
				C286.5,192.2,286.3,192.5,286.2,192.8z"/>
			<path class="st19" d="M286.1,193.5l-5.2,27.2c-0.1,0.6,0.3,1.3,0.9,1.4c8.2,1.7,13.4,9.5,11.9,17.7c0,0.2,0,0.5,0.1,0.7l5.1-26.6
				C300.7,204.8,295,195.9,286.1,193.5L286.1,193.5z"/>
			<path class="st20" d="M253.5,220.4c-2.7-2.7-10.4,0.4-19.4,7.1c0.6-2.3,0.6-4.1-0.2-5.3c-1.1-0.8-3-0.9-5.3-0.3
				c6.7-9,9.8-16.8,7.1-19.4c-3.9-3.9-18,4.1-31.6,17.7s-17.7,31.6-17.7,31.6s3.8-0.9,9.1-3.1c-6.7,9.7-9.6,19.3-10.3,22.2
				c2.8-0.8,12.5-3.7,22.2-10.3c-2.2,5.4-3.1,9.1-3.1,9.1s18-4.1,31.6-17.7C249.5,238.4,257.4,224.3,253.5,220.4L253.5,220.4z"/>
			<path class="st21" d="M266.5,207.5c-2.7-2.7-10.4,0.4-19.4,7.1c0.6-2.3,0.6-4.1-0.3-5.3c-1.1-0.8-3-0.9-5.3-0.3
				c6.7-9,9.8-16.8,7.1-19.4c-3.9-3.9-18,4.1-31.6,17.7s-17.7,31.6-17.7,31.6s3.8-0.9,9.1-3.1c-6.7,9.7-9.6,19.3-10.3,22.2
				c2.8-0.8,12.5-3.7,22.2-10.3c-2.2,5.4-3.1,9.1-3.1,9.1s18-4.1,31.6-17.7C262.4,225.5,270.3,211.3,266.5,207.5L266.5,207.5z"/>
			<path class="st22" d="M280.6,223.5l-31.4,31.4L200.2,206l31.4-31.4c13.9-13.9,31.9-21.4,47.1-25.4c17.3-4.5,31.2-4.6,31.8-4.6
				c0,0,0,0,0,0s0,0,0,0c0,0.6-0.1,14.5-4.6,31.8C301.9,191.7,294.5,209.6,280.6,223.5L280.6,223.5z"/>
			<path class="st23" d="M267.8,210.7l-31.4,31.4L213,218.8l31.4-31.4c13.2-13.2,27.5-23,39.4-29.9c14.9-8.6,26.2-12.7,26.8-12.9
				c0,0,0,0,0,0s0,0,0,0c-0.2,0.6-4.3,11.8-12.9,26.8C290.8,183.3,280.9,197.6,267.8,210.7L267.8,210.7z"/>
			<path class="st24" d="M247.4,248.2c-2.5,2.5-6.6,2.5-9.1,0L206,215.9c-2.5-2.5-2.5-6.6,0-9.1l0,0c2.5-2.5,6.6-2.5,9.1,0
				l32.3,32.3C249.9,241.6,249.9,245.7,247.4,248.2L247.4,248.2L247.4,248.2z"/>
			<path class="st19" d="M198.1,223.5c-0.9,0.1-1.7-0.1-2.5-0.4c-0.4-0.2-0.8-0.5-1.2-0.9c-4-4-2.7-16.1-0.2-21.1l12.8-26.1
				c2.7-5.4,9.3-7.7,14.7-5c1.1,0.5,2.1,1.3,2.9,2.1c0.6,0.6,1.2,1.4,1.7,2.2c1.8,3.1,2.1,7,0.4,10.4l-12.8,26.1
				C211.5,215.4,203.6,223.2,198.1,223.5L198.1,223.5z"/>
			<path class="st18" d="M198.1,223.5c-0.7-0.2-1.3-0.5-1.8-0.9c-0.1-0.1-0.2-0.2-0.3-0.3c-4.2-4.2,0.1-16.9,3.8-21.4l18.3-22.6
				c2.1-2.6,5.1-4,8.2-4c1.8,3.1,2.1,7,0.4,10.4l-12.8,26.1C211.5,215.4,203.6,223.2,198.1,223.5L198.1,223.5z"/>
			<path class="st19" d="M229.9,255.3c-0.1,0.9,0.1,1.7,0.4,2.5c0.2,0.4,0.5,0.8,0.9,1.2c4,4,16.1,2.7,21.1,0.2l26.1-12.8
				c5.4-2.7,7.7-9.3,5-14.7c-0.6-1.1-1.2-2.1-2.1-2.9c-0.6-0.6-1.4-1.2-2.2-1.7c-3.1-1.8-7-2.1-10.4-0.4l-26.1,12.8
				C237.9,241.8,230.2,249.7,229.9,255.3L229.9,255.3z"/>
			<path class="st18" d="M229.9,255.3c0.2,0.7,0.5,1.3,0.9,1.8c0.1,0.1,0.2,0.2,0.3,0.3c4.2,4.2,16.9-0.1,21.4-3.8l22.6-18.3
				c2.6-2.1,4-5.1,4-8.2c-3.1-1.8-7-2.1-10.4-0.4l-26.1,12.8C237.9,241.8,230.2,249.7,229.9,255.3L229.9,255.3z"/>
			<path class="st19" d="M225.9,243l-0.1,0.1c-3.5,3.5-13.5,8.2-17,4.9c-0.1-0.1-0.3-0.3-0.4-0.4c-2.8-3.8,1.4-13.5,4.7-16.9
				l16.3-17l0.1-0.1c3.4-3.4,8.9-3.5,12.4-0.1c0.1,0.1,0.2,0.2,0.3,0.3c3.2,3.4,3.3,8.8,0,12.2L225.9,243z"/>
			<path class="st18" d="M225.9,243l-0.1,0.1c-3.5,3.5-13.5,8.2-17,4.9c-0.1-0.1-0.3-0.3-0.4-0.4l33.8-33.8c3.2,3.4,3.3,8.8,0,12.2
				L225.9,243L225.9,243z"/>
			<path class="st19" d="M251.5,203.7c-8.3-8.3-8.3-21.7,0-30c8.3-8.3,21.7-8.3,30,0c8.3,8.3,8.3,21.7,0,30
				C273.2,212,259.8,212,251.5,203.7L251.5,203.7z M276.9,178.3c-5.7-5.7-15-5.7-20.8,0c-5.7,5.7-5.7,15,0,20.8
				c5.7,5.7,15,5.7,20.8,0C282.6,193.3,282.6,184,276.9,178.3z"/>
			<path class="st25" d="M278,200.2c-6.4,6.4-16.7,6.4-23.1,0c-6.4-6.4-6.4-16.7,0-23.1c6.4-6.4,16.7-6.4,23.1,0
				C284.4,183.5,284.4,193.8,278,200.2L278,200.2z"/>
			<path class="st0" d="M277,191.6c-2.1,2.1-5.5,2.1-7.6,0c-2.1-2.1-2.1-5.5,0-7.6c2.1-2.1,5.5-2.1,7.6,0
				C279.1,186.1,279.1,189.5,277,191.6L277,191.6z"/>
			<path class="st18" d="M306,176.4c-2.8-1.3-5.6-3-8.3-5.1c-2.5-1.8-5-4-7.4-6.3c-2.4-2.4-4.6-4.9-6.4-7.5c-2-2.7-3.7-5.5-5-8.3
				c17.3-4.5,31.2-4.6,31.8-4.6c0,0,0,0,0,0s0,0,0,0C310.6,145.2,310.5,159.1,306,176.4L306,176.4z"/>
		</g>
	</g>
</g>
</svg>
