<svg xmlns="http://www.w3.org/2000/svg" viewBox="0 0 105.32 90.09">
    <title>Asset 48</title>
    <g id="Layer_2" data-name="Layer 2">
        <g id="koumpi_odigiwn" data-name="koumpi odigiwn">
            <path d="M101.77,53.82c5.87-15.69,6.77-40.77-15.77-49.7S13-.9,1,32.5C-9.95,63,72.3,132.6,101.77,53.82Z"
                style="fill: #2e3192;" />
            <path
                d="M67.23,45.17,79.87,32.53a7.3,7.3,0,0,0,0-10.31L78,20.35a7.28,7.28,0,0,0-10.31,0L55,33,42.41,20.35a7.28,7.28,0,0,0-10.31,0l-1.88,1.87a7.28,7.28,0,0,0,0,10.31L42.86,45.17,30.22,57.81a7.28,7.28,0,0,0,0,10.31L32.1,70a7.28,7.28,0,0,0,10.31,0L55,57.36,67.68,70A7.28,7.28,0,0,0,78,70l1.88-1.87a7.3,7.3,0,0,0,0-10.31Z"
                style="fill: #fff;" />
        </g>
    </g>
</svg>