<?xml version="1.0" encoding="UTF-8"?>
<svg id="Layer_2" data-name="Layer 2" xmlns="http://www.w3.org/2000/svg" viewBox="0 0 121.2539 103.7277">
  <g id="Layer_5" data-name="Layer 5">
    <g id="download">
      <path
        d="m117.1715,61.964c6.7572-18.0651,7.7956-46.942-18.1629-57.2187C73.0499-5.5315,14.9364-1.0309,1.1473,37.4152c-12.6061,35.1478,82.0965,115.2522,116.0242,24.5488Z"
        style="fill: #2e3192;" />
      <path
        d="m58.1383,13.5638c-9.2704-.539-8.9073,3.0931-8.6042,10.8643l.1963,12.912-4.1822.018c-4.1302.0628-6.2516,4.9694-3.4687,8.0256l19.1172,20.9738c1.9436,2.1277,5.3115,2.0765,7.1845-.1093,0,0,18.4754-21.5453,18.4753-21.5451,3.0975-3.681-.1965-8.6879-7.9027-7.8986l-.194-12.7576c-.0583-4.0418.8253-10.8173-5.1113-10.8099"
        style="fill: #fff;" />
      <path
        d="m33.2159,63.4033c-.0941,6.2118-.1882,12.4235-.2824,18.6353-.0307,2.0271,1.743,3.75,3.75,3.75h55.0587c2.0272,0,3.75-1.7181,3.75-3.75v-16.9411c0-4.8259-7.5-4.8339-7.5,0v16.9411l3.75-3.75h-55.0587l3.75,3.75c.0941-6.2118.1882-12.4235.2824-18.6353.0732-4.8279-7.4268-4.8296-7.5,0h0Z"
        style="fill: #fff;" />
    </g>
  </g>
</svg>