<?xml version="1.0" encoding="UTF-8"?>
<svg id="Layer_2" data-name="Layer 2" xmlns="http://www.w3.org/2000/svg" viewBox="0 0 132.7792 113.5871">
  <g id="menu">
    <g id="home">
      <path d="m128.3088,67.8537c7.3995-19.7822,8.5365-51.4039-19.8893-62.6574C79.9934-6.0572,16.3561-1.1289,1.2564,40.9715c-13.8044,38.4887,89.8998,126.2071,127.0524,26.8822Z" style="fill: #fff;"/>
      <path d="m102.2792,46.4001l-27.7621-30.4582c-2.8225-3.0899-7.7134-3.0155-10.4334.1587,0,0-26.8301,31.2883-26.8299,31.288-4.4982,5.3455.5529,12.6549,7.1197,11.4704l.2817,18.5267c.0847,5.8696-1.1984,15.7089,7.4227,15.6982,13.4098.9757,9.9403-5.051,10.2236-14.9011-.9292-8.482,3.8228-8.4743,10.6242-8.3126,4.4715-.1278,5.6648,4.4979,5.2616,8.1341.509,4.2001-1.9115,14.7953,5.1279,14.605,13.4625.7827,12.9352-4.4918,12.495-15.7772l-.285-18.7509,1.7168-.0261c5.9979-.0912,9.0786-7.2166,5.0373-11.6549Z" style="fill: #0f0b09;"/>
    </g>
  </g>
</svg>