<?xml version="1.0" encoding="UTF-8"?>
<svg id="Layer_2" data-name="Layer 2" xmlns="http://www.w3.org/2000/svg" viewBox="0 0 326.9426 95.0828">
  <g id="Layer_5" data-name="Layer 5">
    <g id="ulika">
      <g id="basket">
        <rect width="326.9426" height="95.0828" rx="34.4477" ry="34.4477" style="fill: #fff;"/>
      </g>
      <g>
        <path d="m262.0009,14.0169c-7.8891-.4587-7.5801,2.6322-7.3222,9.2456l.167,10.9882-3.5591.0153c-3.5148.0534-5.3201,4.229-2.9519,6.8298l16.2688,17.8487c1.654,1.8107,4.5201,1.7671,6.1141-.093,0,0,15.7226-18.3351,15.7225-18.335,2.636-3.1325-.1673-7.3935-6.7252-6.7217l-.1651-10.8568c-.0496-3.4396.7023-9.2055-4.3497-9.1993" style="fill: #2e3192;"/>
        <path d="m240.7919,56.4305c-.0801,5.2862-.1602,10.5725-.2403,15.8587-.0261,1.7251,1.4833,3.1913,3.1913,3.1913h46.8552c1.7251,0,3.1913-1.4621,3.1913-3.1913v-14.417c0-4.1069-6.3825-4.1137-6.3825,0v14.417l3.1913-3.1913h-46.8552l3.1913,3.1913c.0801-5.2862.1602-10.5725.2403-15.8587.0623-4.1086-6.3203-4.11-6.3825,0h0Z" style="fill: #2e3192;"/>
      </g>
      <g>
        <path d="m96.5271,18.7613c.0735,1.3037-.4478,2.297-1.5635,2.9993-.2633.3555-.5185.7092-.7685,1.0627-.2496.3534-.4331.6388-.5484.8583-.7054,2.5009-1.4108,4.9806-2.1162,7.4322-.6222,2.1305-1.2451,4.2153-1.8687,6.2573-.6244,2.0406-1.2222,4.0587-1.7944,6.0522.2278,1.6113.4557,3.1996.6836,4.7659.0884.3763.1768.7515.2651,1.1252.0618.9743-.2136,1.795-.8262,2.467-.6138.6722-1.4814,1.0938-2.6026,1.2616-.6383.0953-1.2491.0942-1.834-.0005-.5849-.0934-1.1106-.269-1.5771-.5245-.4669-.2556-.8416-.5894-1.1255-1.0008-.2838-.412-.4413-.8735-.4741-1.3887-.0228-.3589.0248-.724.1426-1.0922.1176-.3674.3622-.8761.7329-1.5331.1138-.2261.2103-.4305.2891-.6141.0786-.1816.1128-.3641.1011-.5475-.0016-.0266-.0033-.0532-.0049-.0797-.2021-1.3927-.4043-2.804-.6064-4.2347.0143.0253.0286.0507.043.0762-2.2404-5.5951-4.4808-11.5469-6.7212-17.884-.3236-.5279-.6471-1.059-.9707-1.5933-.5603-.894-.8576-1.6687-.8916-2.3167-.0266-.4918.0514-.9474.2339-1.3708-.0117.0168-.0234.0336-.0352.0503.452-1.1324,1.6852-1.7947,3.6997-1.9857,1.2739-.1224,2.125-.0342,2.5508.265l-.0381.0044c.5326.3826.9654.811,1.2984,1.2849.3331.4717.5147.9976.5459,1.575.0125.2276.0247.4549.0371.6819.0064.1214.0185.2343.0371.3389.0179.1036.0318.2322.04.3834.0122.2261.0244.4517.0366.6771.007.1193.0049.211-.0044.2723-.0096.0629-.0097.1667-.002.3167.8849,2.5851,1.7699,5.1044,2.6548,7.5607l-.0381.0044c.0923.2767.1687.498.23.6631.0607.1634.121.3289.1822.4934.0606.1619.1221.3412.1855.5341.062.1907.1529.4353.2734.7332.5799-1.9607,1.1774-3.9895,1.791-6.0875.6136-2.0983,1.1976-4.1707,1.7529-6.2119.2344-.866.4153-1.5398.543-2.023.128-.4825.2538-.866.3799-1.1522.1249-.2872.2799-.5146.4624-.6873.1832-.1719.4599-.3834.8316-.6363.2211-.176.4952-.3192.8227-.4316.3272-.1102.6311-.1824.9111-.2126.5606-.0613,1.1079-.023,1.6416.1121.5324.1363,1.0134.3572,1.4409.6644.4273.3071.7816.6803,1.063,1.1158.2804.4372.4496.9279.5063,1.4763.0008.0143.0016.0289.0025.0433Z" style="fill: #2e3192;"/>
        <path d="m98.8601,27.1407c-.3063.0487-.603-.0717-.8896-.3635-.2871-.2938-.5489-.6885-.7832-1.191-.2352-.5003-.4346-1.0602-.5981-1.6764-.1646-.6183-.2626-1.213-.2954-1.7834-.0567-.9969.1862-1.8111.7285-2.4298.5432-.6191,1.2429-.8371,2.1006-.6626.6238-.3092,1.3083-.5833,2.0522-.8221.7436-.2376,1.5108-.407,2.3008-.5076,1.6826-.2149,3.04-.0692,4.0708.4186,1.0309.489,1.7112,1.3239,2.0391,2.5058,1.8102,6.5559,3.6205,12.7877,5.4307,18.873.0992.3432.3486.7038.7475,1.0857.3985.3795.8557.5533,1.3706.5223.5485-.2982.9472-.3444,1.1929-.1391.2461.2048.3833.5342.4126.991.0243.3807-.1313.8718-.4678,1.4692-.336.5983-.7505,1.1888-1.2422,1.7704-.4929.5813-1.0139,1.1045-1.5659,1.5704-.5517.464-1.0311.7406-1.439.8271-.8669.1862-1.5658.0593-2.0981-.3782-.5322-.4395-.9936-1.2834-1.3848-2.5452-.8622-2.7632-1.7243-5.5617-2.5864-8.4128-.4511,1.0414-.8904,2.0604-1.3184,3.0541-.4277.9937-.8045,1.9698-1.1319,2.9247-.3273.9559-.5781,1.8805-.7534,2.7737-.1754.8921-.2486,1.7744-.2178,2.6439-.0235.4417-.2256.9126-.6064,1.4126-.3809.5001-1.0178.8375-1.9097,1.0139-.383.0756-.8398.0948-1.3716.0577-.5316-.0373-1.0475-.1359-1.5479-.2983-.5009-.1591-.9352-.3924-1.3032-.6962-.3673-.3035-.5663-.6851-.5957-1.1459-.0296-.4605.1069-1.1408.4112-2.0464.3036-.9044.8051-2.1587,1.5044-3.7722.6978-1.6138,1.591-3.6467,2.6772-6.1105,1.086-2.4619,2.3975-5.4706,3.9351-9.011-.162-.5472-.2973-.9796-.4058-1.2909-.1095-.3115-.2262-.5541-.3526-.7285-.1265-.1729-.2806-.2714-.4619-.2993-.1816-.0265-.4252-.0164-.7315.0314-.5611.0878-1.0469.2457-1.4575.4728-.4115.2267-.8023.4728-1.1724.7344-.3706.2631-.7367.5048-1.0957.7244-.3608.2209-.7574.3657-1.1904.4335Z" style="fill: #2e3192;"/>
        <path d="m120.7492,41.2607c-.4405-3.8167-.8812-7.6473-1.3217-11.5089-.0579-.5054-.1829-.9427-.374-1.309-.1912-.3658-.3865-.7008-.5865-1.0021-.199-.303-.3857-.5956-.5581-.8777-.1727-.2839-.2689-.5794-.2886-.8896-.0291-.4652-.0392-.9285-.0293-1.3875.0096-.4591.0929-.8793.249-1.2574.1563-.3772.4124-.7067.7681-.984.3556-.2771.8525-.4653,1.4897-.5648.6885-.1059,1.4012-.1197,2.1401-.0409.739.0773,1.4253.2325,2.0586.4627.6328.2298,1.1542.5204,1.5635.8692.4096.3503.6298.7595.6606,1.2314.0245.3732.0099.7407-.0439,1.1029-.0527.3619-.1066.7299-.1591,1.1039-.0522.3751-.1044.7639-.1558,1.1636-.0503.4005-.0623.8251-.0327,1.2752.0178.2758.0632.7656.1353,1.4734.0715.7057.163,1.5185.2749,2.4326.1112.9156.2211,1.8937.3281,2.9372.1064,1.0426.2153,2.0233.3277,2.9399.2805.3475.5463.6536.7964.9189.2492.2647.4728.5151.6689.754.1968.2368.362.4891.4956.7516.1332.2634.212.5729.2344.9241.1015,1.5568-1.8366,2.765-5.813,3.6331-.8167.1772-1.5344.07-2.1533-.3185-.6209-.3906-.9586-1.0274-1.0156-1.913-.0363-.5556.0775-1.1964.3408-1.9202Z" style="fill: #2e3192;"/>
        <path d="m145.862,35.9695c.0331.1188.0568.275.0699.4709.1894.9083.0823,1.7333-.3199,2.4744-.4027.7415-1.1161,1.3762-2.1396,1.9042-.001-.0124-.002-.025-.0029-.0372-.2488.1489-.4613.2551-.6372.3141-.1773.0595-.3296.1016-.4566.1276-.6885.1354-1.3196-.0303-1.8921-.4974-.34-.2607-.68-.5206-1.02-.7804-1.4011-1.4717-2.802-2.9302-4.2031-4.3871.107,1.0287.2139,2.0609.3208,3.097.0096.1483.0742.3375.1928.5642.1123.1554.1943.3154.2441.4805.0497.1674.079.3134.0869.4379.0291.4481-.1578.9547-.5596,1.5209-.6143.4835-1.8909.9301-3.8276,1.3422-1.1735.2501-1.8427.0891-2.0088-.4885-.1433-.1975-.2348-.4268-.2773-.6852-.043-.2587-.0606-.5278-.0527-.8096.0633-.5972.0905-.9852.0791-1.1608-.3451-5.2848-.6901-10.5171-1.0352-15.7229-.0433-.2664-.0577-.5834-.0435-.9468.0151-.3633.0313-.7831.0518-1.2591.3208-.9966,1.1172-1.5854,2.3925-1.7728,1.7837-.263,2.9937-.0724,3.6299.5549.1403.1734.2694.3698.3882.5936.1179.2231.1851.4431.1997.6572.0208.3107-.0743.8082-.2842,1.4967l.0381-.0066c-.1201.5055-.1734.8667-.1587,1.0835-.0012.3662-.0265.9431-.0762,1.7333-.0497.7927-.0917,2.268-.126,4.4518,2.248-4.9757,3.671-7.8434,4.269-8.8889.1432-.1636.2953-.3763.458-.6372.1617-.2596.3341-.5566.5166-.8885-.0127.0016-.0254.0032-.0381.005.3177-.6089.8638-1.0709,1.6396-1.3842.0753-.0325.1687-.0637.2837-.0906.1133-.0266.272-.0543.4765-.0809.8663-.1149,1.7287.0733,2.5874.5529.4302.2634.774.5615,1.0293.8934.2556.3311.397.679.4229,1.0432.0146.2053-.0518.4446-.1992.7205-.1483.2751-.3407.5644-.5762.867-.2365.3015-.4915.6033-.7666.9034-.2753.2997-.533.5863-.771.859-1.4512,2.28-2.9024,4.6311-4.3535,7.0361,1.461.9912,2.9222,1.9823,4.3833,2.9803,1.1181.1373,1.8072.5911,2.0654,1.3589Z" style="fill: #2e3192;"/>
        <path d="m167.8933,33.3056c.0229.3347-.0366.6866-.1787,1.0543-.1422.3692-.3812.7259-.7173,1.0713-.3369.3465-.7661.648-1.2885.9115-.5216.2604-1.1657.4398-1.9302.5406-1.0704.14-1.8339.0825-2.2881-.1751-.4552-.2571-.7103-.8144-.7676-1.6641-.0948-.2552-.2241-.549-.3882-.8796-.1635-.3284-.3289-.6763-.4951-1.0388-.1667-.3629-.3256-.7133-.4771-1.0526-.153-.338-.2762-.6437-.3726-.9158-.3135.688-.637,1.3952-.9741,2.1227-.336.7281-.7342,1.4097-1.1938,2.0452-.4596.6342-.9889,1.1826-1.5908,1.6389-.6004.4564-1.3221.754-2.1631.8956-.79.1334-1.5835.0339-2.3794-.2998-.7959-.3346-1.5132-.8467-2.1528-1.537-.6396-.6888-1.1797-1.5281-1.6201-2.5143-.4416-.9846-.7024-2.0754-.7842-3.2657-.1588-2.3093-.0866-4.3331.2139-6.0835.3018-1.7492.7756-3.2095,1.4229-4.3945.6469-1.1843,1.4352-2.0917,2.3643-2.739.928-.647,1.9402-1.0204,3.0366-1.1343.9187-.0964,1.6798-.0374,2.2871.1674.6065.2059,1.1179.5016,1.5327.8878.4153.3868.7524.8509,1.0127,1.3971.2598.5452.5148,1.1108.7646,1.6942.222-.9772.444-1.9408.666-2.89-.0586-.7609.1055-1.2878.4932-1.5862.3867-.2966.9501-.4772,1.6899-.5418.3061-.0264.7256.0051,1.2593.0948.5323.0887,1.0631.2256,1.5913.4087.5277.1843.9889.4203,1.3843.7078.3946.2896.607.6202.6363.9949.0323.416-.0386.9003-.2134,1.4585-.1747.5579-.4036,1.1742-.686,1.8502-.2825.6775-.5732,1.4181-.873,2.2234-.3001.8068-.5467,1.6516-.7388,2.5329.2867.761.6476,1.5735,1.082,2.4355.433.8636.8568,1.6794,1.2705,2.4451.4128.7659.7754,1.4394,1.0845,2.014.3089.5764.4698.9518.4809,1.1196Zm-14.0107-12.0179c-.306.0391-.5874.3216-.8447.852-.2574.5329-.4689,1.1668-.6338,1.9147-.165.7449-.2812,1.5486-.3491,2.4092-.068.8611-.0786,1.6219-.0327,2.277.0786,1.1237.3253,1.9941.7412,2.6002.4139.6053.9413,1.0527,1.5801,1.338.4722-.6288.9474-1.4797,1.4287-2.5361.4802-1.0553.9195-2.3972,1.3203-3.9962-.4316-1.7156-.9285-2.959-1.4893-3.7641-.5612-.8058-1.1342-1.1678-1.7207-1.0948Zm5.9019-13.1362c.1167.1697.0269.3936-.2695.6765-.2967.2829-.4427.4457-.4399.485.0859.1134-.0604.5063-.4399,1.1956-.4243.7733-.635,1.1803-.6333,1.2-.0225.6743-.1948,1.0914-.5161,1.2413-.1245.053-.25.083-.3774.0942-.2044.0179-.4897-.0211-.856-.1148-.4957-.1029-.8217-.1694-.978-.1985-.8295-.0953-1.335-.1562-1.5156-.1843-.5734-.0976-.9307-.2452-1.0747-.444-.059-.0989.2355-.6011.8838-1.4771.8118-1.0709,1.2633-1.6597,1.3545-1.8065.046-.0646.1238-.371.2325-.9174.1183-.4268.2528-.65.4048-.6773.5027-.1057,1.2809-.0534,2.3354.1483,1.0545.2012,1.6833.4592,1.8896.7792Z" style="fill: #2e3192;"/>
        <path d="m51.486,80.212c.0331.1068.0571.2418.0699.4098.1903.7958.0822,1.4649-.3198,2.0289-.4028.5627-1.1164,1.0016-2.1397,1.3247-.0008-.0104-.0016-.0211-.0025-.0313-.2484.0948-.4613.1582-.6381.1886-.1767.0296-.3295.0483-.4561.0544-.6887.0344-1.3191-.1763-1.892-.6511-.3401-.2678-.68-.5391-1.0201-.8143-1.401-1.4866-2.802-3.0621-4.2031-4.7289.1071.9924.2142,1.9777.3213,2.9544.0097.1395.0738.3248.1919.5532.1136.1618.1946.3206.2446.4818.0497.1598.0786.2972.087.4125.0293.4129-.1571.8425-.5591,1.3013-.6146.3519-1.891.5876-3.8281.7065-1.173.0732-1.8422-.1815-2.0089-.7774-.1424-.2179-.2347-.4596-.2773-.7224-.0427-.2632-.0603-.5342-.0527-.8124.0639-.5814.0912-.9595.0796-1.1358-.345-5.3149-.6901-10.725-1.0351-16.1811-.0439-.2884-.0576-.617-.0439-.9866.0153-.3688.0309-.7939.0522-1.2771.3203-.9155,1.1172-1.2438,2.3921-1.0204,1.784.3113,2.9943.8679,3.6299,1.6985.1407.2184.2695.4575.3882.7197.1176.2612.1846.5045.1998.7259.0211.3206-.0739.7969-.2847,1.4312.0129.0013.0257.003.0386.0043-.1201.4747-.1728.8221-.1582,1.0424-.0014.3671-.0268.9369-.0762,1.7094-.0498.7729-.0916,2.2271-.1265,4.3442,2.2485-4.2584,3.6714-6.7538,4.2691-7.6589.143-.1287.2958-.3039.4575-.527.1621-.2208.3343-.4785.5175-.7704-.0127-.0015-.0254-.0031-.0381-.0045.317-.5412.864-.8787,1.6392-1.0138.0753-.0157.1696-.0246.2837-.0255.1138-.0002.272.0092.4765.0294.8667.0844,1.7291.4725,2.5879,1.1523.4303.3646.7739.7402,1.0293,1.1313.2559.3896.3965.7713.4223,1.1422.0147.2091-.0517.4354-.1992.6802-.1484.2456-.3403.4929-.5757.7437-.2362.2491-.4923.4919-.7671.7291-.275.2354-.5322.4609-.7705.675-1.4512,1.9087-2.9023,3.8101-4.3535,5.7468,1.4611,1.2356,2.9223,2.4093,4.3834,3.5254,1.1177.3035,1.8064.8,2.0649,1.4919Z" style="fill: #2e3192;"/>
        <path d="m73.5276,80.2019c.0234.2687-.0374.5458-.1787.8281-.1423.2828-.3812.5496-.7178.8018-.3363.2502-.7662.4625-1.2881.6366-.5219.1727-1.1656.2753-1.9307.3087-1.0708.0466-1.8335-.042-2.2881-.2696-.4552-.2256-.7104-.6711-.7676-1.343-.0948-.2082-.224-.4493-.3872-.7271-.1647-.2756-.3296-.5679-.4961-.8776-.1659-.3094-.3257-.6116-.4771-.9075-.1517-.2943-.2764-.5608-.3725-.8-.3126.552-.6373,1.1108-.9741,1.6744-.3358.5654-.7344,1.0783-1.1938,1.5431-.459.4645-.9893.8479-1.5904,1.1512-.6014.3033-1.3222.4724-2.163.5052-.7907.0298-1.584-.1254-2.3795-.4783-.7958-.353-1.5135-.8514-2.1528-1.507-.6394-.6545-1.1804-1.441-1.6207-2.3622-.441-.9229-.7015-1.9315-.7837-3.0239-.1589-2.1192-.0867-4.0235.2139-5.6631.3014-1.6392.7755-3.0124,1.4229-4.0997.6469-1.0888,1.4346-1.8983,2.3637-2.4281.9282-.5303,1.9408-.7756,3.0372-.7417.918.028,1.6796.1917,2.2866.4926.6071.3024,1.1182.6851,1.5327,1.1489.4154.4648.7528.9968,1.0132,1.5992.2594.6038.5145,1.2159.7641,1.8405.222-.9734.4441-1.9595.666-2.9583-.0586-.8248.1056-1.3889.4937-1.6828.3866-.2946.9497-.4464,1.6894-.4593.3062-.0063.7255.0605,1.2593.1986.5322.1384,1.0634.3251,1.5918.5611.5274.2367.9889.525,1.3838.8646.3944.3394.6074.7117.6367,1.1198.0326.4532-.0391.9702-.2139,1.5474-.1748.5791-.4037,1.2054-.6855,1.8761-.2827.6704-.5738,1.3898-.873,2.1539-.3003.7658-.5464,1.5523-.7383,2.3569.2861.7261.6471,1.4873,1.0811,2.2789.433.7915.8574,1.52,1.2705,2.191.4136.6702.7755,1.2435,1.0845,1.7267.3089.4835.4702.7904.4814.9242Zm-14.0107-12.0516c-.306-.0052-.588.2352-.8452.7222-.2571.4861-.468,1.0765-.6334,1.767-.1651.6902-.2816,1.4317-.3491,2.2216-.0683.7889-.0787,1.4791-.0327,2.0729.0782,1.0208.3255,1.8143.7407,2.3895.4143.5771.9419,1.0181,1.5801,1.3303.4722-.4746.9482-1.1395,1.4287-2.0014.4799-.8628.9199-1.9935,1.3204-3.4194-.4316-1.6313-.928-2.9014-1.4888-3.7639-.561-.8644-1.1346-1.3103-1.7206-1.3187Z" style="fill: #2e3192;"/>
        <path d="m75.2688,69.3269c-.252.0585-.5281.1265-.8296.2097-.3008.0807-.5894.1611-.8648.2386-.2758.08-.5253.1508-.7509.2161-.2256.0641-.3892.0995-.4907.103-.4854.0217-.9445-.0573-1.3799-.2352-.4355-.1795-.6719-.5187-.709-1.0218-.0507-.6776.0205-1.3403.2168-1.9844.1955-.6448.467-1.2183.8145-1.722.3477-.5016.74-.9076,1.1787-1.2155.438-.3076.8868-.474,1.3457-.4982.4331-.0228.9143.002,1.4443.074.5305.0729,1.088.1647,1.6719.2734.584.1096,1.1699.2464,1.7588.408.5883.1614,1.1572.3228,1.7076.4833,1.1811-.6923,2.3856-1.2519,3.6133-1.6756,1.228-.4234,2.4544-.7086,3.6777-.8503.8662-.1005,1.5779-.0333,2.1348.2026.557.2352.8559.6547.8985,1.2531.057.8052-.0216,1.5916-.2358,2.3561-.2144.7662-.5112,1.4534-.8902,2.0652-.3789.6103-.8176,1.1114-1.3144,1.5034-.4972.3932-1.0007.6105-1.5108.6589-.2288.0222-.5503.0261-.9614.0093-.4128-.0161-.8447-.0406-1.2959-.0772-.4523-.0356-.8846-.0688-1.2969-.0997-.4129-.0311-.7234-.0589-.9302-.085-.1844.2755-.3418.6569-.4712,1.1403-.1296.483-.2314.9933-.3052,1.528-.074.5344-.1241,1.0424-.1499,1.5213-.0263.4815-.0289.8528-.0073,1.1179.052.6549.3255,1.1021.8203,1.353.4941.2508.9974.3779,1.5112.3809.3584-.004.7324-.0515,1.123-.1403.39-.0905.7864-.185,1.1885-.288.4025-.1031.8168-.2065,1.2446-.3127.4275-.1061.8579-.178,1.292-.2135.6886-.0574,1.1869.0029,1.4966.1835.309.1821.4793.467.5107.8561.0453.572.0027,1.1592-.1274,1.7544-.1316.5975-.3624,1.1429-.6924,1.6413-.3304.4979-.7763.9091-1.3384,1.2334-.5621.326-1.2386.5085-2.0283.5533-.8672.0491-1.9214-.0089-3.165-.1686-1.2432-.1615-2.4452-.4342-3.6045-.821-1.1607-.3868-2.1633-.8854-3.0092-1.5015-.8464-.6158-1.3056-1.3674-1.3794-2.261-.1176-1.4293.0714-2.8267.5664-4.1828.4953-1.3556,1.078-2.6909,1.7476-4.001-.7416.0157-1.4832.0283-2.2246.0374Z" style="fill: #2e3192;"/>
        <path d="m112.2239,77.1921c.023.3168-.0374.6488-.1787.9922-.1423.3437-.3811.6714-.7178.9849-.3365.3134-.7658.5811-1.2881.8054-.5221.2243-1.1656.3652-1.9307.4296-1.0705.0892-1.8334.0114-2.2876-.2321-.4554-.2423-.7109-.7361-.768-1.4901-.0946-.2293-.2243-.4949-.3872-.7952-.1648-.2975-.3297-.6151-.4961-.9467-.1657-.3323-.3252-.6552-.4771-.9689-.1517-.3125-.2764-.5952-.3725-.8481-.3125.629-.637,1.2653-.9741,1.9037-.3357.6403-.7338,1.224-1.1938,1.7526-.459.5297-.9892.9682-1.5904,1.3157-.6013.3498-1.3221.5533-2.1631.6151-.7902.0586-1.5835-.0792-2.3794-.406-.7958-.3275-1.5139-.7937-2.1528-1.408-.6398-.6121-1.18-1.3457-1.6206-2.2086-.441-.8627-.7017-1.8174-.7837-2.8706-.1586-2.0458-.0869-3.915.2139-5.5812.3013-1.6647.7753-3.1132,1.4229-4.3203.6468-1.2078,1.4346-2.1747,2.3638-2.8878.9282-.7116,1.941-1.1575,3.0371-1.3242.918-.1399,1.6798-.1099,2.2871.0949.6063.2039,1.1178.5123,1.5322.9251.4157.4124.7527.915,1.0132,1.5021.2592.5903.5146,1.1947.7642,1.8161.222-1.0605.444-2.132.666-3.2148-.0584-.8549.1053-1.4702.4937-1.8409.3866-.3714.9503-.6212,1.6894-.7512.3061-.0543.7253-.0507,1.2593.0129.532.0646,1.0634.1814,1.5918.3538.5273.1743.9888.4135,1.3838.7206.395.3072.6078.6765.6367,1.11.0329.4816-.0393,1.0475-.2139,1.6946-.1748.6471-.404,1.3551-.6855,2.1212-.2826.7648-.5733,1.5858-.873,2.4584-.2998.8737-.5467,1.767-.7383,2.6769.286.7719.647,1.5823,1.0811,2.4339.4337.8507.8573,1.6451,1.2715,2.3846.4122.7402.7745,1.3815,1.084,1.9306.3086.5466.4697.9016.4809,1.0596Zm-14.0107-11.7217c-.3059.0427-.588.3381-.8442.8774-.2579.5414-.4693,1.1793-.6343,1.9126-.1653.7328-.2816,1.5108-.3491,2.3289-.0685.8183-.0787,1.5273-.0327,2.132.0783,1.0389.3252,1.8295.7407,2.3871.4148.5594.9416.9758,1.5801,1.2532.4721-.5379.9482-1.2816,1.4292-2.2427.4796-.9623.9194-2.2147,1.3198-3.7781-.4316-1.6816-.928-2.9453-1.4888-3.7636-.561-.8191-1.135-1.1908-1.7207-1.1068Z" style="fill: #2e3192;"/>
        <path d="m131.7165,56.0625c.0266.4064.0176.8825-.0244,1.4293-.0422.5478-.1117,1.0694-.2085,1.5629-.0979.4949-.2441.9272-.4395,1.299-.1955.3705-.4203.5811-.6753.6305-.6117.1176-1.292.1842-2.0391.2003-.748.0152-1.3639.0694-1.8476.1624.648.8381,1.2462,1.7951,1.7939,2.8765.5478,1.0803.8729,2.4167.9761,4.0048.0864,1.335-.0569,2.6893-.4321,4.0495-.3747,1.3604-.9556,2.6081-1.7422,3.7312-.787,1.1249-1.7663,2.053-2.935,2.7866-1.1704.733-2.5079,1.1605-4.0113,1.2996-.7138.0666-1.457-.0089-2.2285-.2186-.772-.2097-1.5309-.5107-2.2768-.9001-.747-.3889-1.466-.8338-2.1562-1.334-.691-.5004-1.3002-1.0155-1.8272-1.5502-.5269-.5324-.9503-1.0582-1.2705-1.5801-.321-.5208-.4954-.9855-.5249-1.3944-.3369-4.683.2336-8.4282,1.7129-11.1417,1.4797-2.7133,3.5959-4.3816,6.3486-4.9268.1534-.0305.3955-.0724.7276-.1268.3319-.0535.7026-.1144,1.1118-.1842.4081-.0696.8112-.1311,1.2085-.1875.3959-.0538.7354-.0978,1.0175-.1305,1.4258-.314,2.5073-.5684,3.2446-.7582.7364-.1895,1.3017-.3328,1.6968-.4278.3935-.0943.7055-.1777.9331-.2508.2273-.0714.5435-.1761.9487-.3111.329-.0942.6623-.1447.9976-.1513.3357-.0068.6425.0446.9209.1539.2779.1075.5089.2774.6919.5087.1823.2311.2855.5242.3086.8791Zm-12.4653,6.0145c-1.1768.54-2.0732,1.6956-2.6895,3.4407-.6154,1.7469-.8253,4.0449-.6274,6.8848.028.3995.1697.7822.4277,1.1494.2574.3694.5762.7066.958,1.0132.3808.3069.8047.5734,1.2705.8033.4659.2282.9198.3895,1.3638.4778.3844-.3813.7599-.9101,1.1255-1.5892.3648-.6775.6797-1.4414.9448-2.2869.2645-.845.4678-1.749.6099-2.709.1416-.9595.1811-1.9199.1172-2.8757-.0836-1.2497-.3867-2.2166-.9087-2.8914-.523-.6747-1.3867-1.1459-2.5918-1.417Z" style="fill: #2e3192;"/>
        <path d="m148.8025,71.6502c.0328.1384.0567.3162.0699.5392.1894,1.0446.0825,1.9728-.3199,2.7732-.4034.7995-1.1161,1.4446-2.1401,1.9286-.0008-.014-.0016-.0278-.0024-.0417-.2485.14-.4615.2347-.6377.2831-.1771.0475-.3289.0781-.4561.0936-.6886.0776-1.3194-.1732-1.8926-.7412-.34-.3193-.68-.6362-1.02-.951-1.4009-1.7345-2.8018-3.4159-4.2026-5.0537.1069,1.1015.2139,2.2075.3208,3.3177.0099.1583.0735.3651.1924.6163.1128.1749.1946.3519.2446.5331.0491.1828.0781.3398.0864.4742.0295.4801-.1573,1.0017-.5591,1.5593-.6144.4478-1.8912.7806-3.8281.9936-1.1728.1285-1.8423-.1102-2.0083-.7143-.1429-.2167-.2352-.459-.2773-.7252-.043-.2676-.0606-.5422-.0527-.8295.0633-.6021.0907-.9949.0791-1.174-.3451-5.4153-.6902-10.7819-1.0352-16.1263-.0434-.2739-.0576-.598-.0435-.9728.0154-.3746.0312-.8077.0518-1.2997.321-1.0398,1.1172-1.6941,2.3925-1.9602,1.7835-.3727,2.9938-.2361,3.6299.4119.1396.1807.2697.3867.3877.6231.1184.2358.1851.4707.2002.7014.021.3338-.0741.8741-.2851,1.6209.0128-.0027.0257-.0054.0385-.0081-.1197.5469-.173.9346-.1582,1.1662-.0013.3938-.0267,1.0115-.0762,1.8593-.0493.8484-.092,2.4268-.126,4.749,2.2481-5.2428,3.671-8.4858,4.2686-9.6519.1436-.1863.2957-.4271.4575-.7229.1624-.2934.3353-.6308.5176-1.0085-.0127.0023-.0253.0049-.0381.0072.3174-.6926.8639-1.2375,1.6396-1.6298.0751-.0417.1691-.0804.2837-.1168.1134-.0355.2718-.0751.4765-.1158.8663-.174,1.7279-.0057,2.5874.5122.4302.2859.7741.616,1.0293.9933.2563.3759.3971.7756.4229,1.1974.0144.2378-.052.5168-.1992.8396-.1484.3232-.3411.66-.5762,1.0143-.2362.3521-.4922.7009-.7666,1.0491-.2754.347-.5327.676-.771.9879-1.4512,2.6057-2.9023,5.2119-4.3535,7.7958,1.461,1.1449,2.9222,2.3207,4.3833,3.5316,1.1183.2235,1.8072.7806,2.0654,1.6714Z" style="fill: #2e3192;"/>
        <path d="m161.1013,55.7568c-.2326-.0176-.5371-.0433-.9121-.0782-.3748-.0356-.7704-.0644-1.1836-.0927-.4131-.0259-.8008-.0438-1.1616-.0507-.3607-.0066-.6314.0055-.8095.0355-.3568.0616-.7121.1446-1.0664.2476-.3555.1024-.6752.2416-.9605.4149-.2863.1724-.5182.3828-.6958.6326-.1782.2506-.2567.5499-.2358.9019.0132.2173.0792.4582.1988.7266.1187.2683.2762.5153.4697.7452.1941.2299.4302.4091.708.5438.2787.1326.5835.171.915.1176.2426-.2335.5641-.4548.9644-.66.3993-.2049.7392-.3284,1.0205-.3741.2551-.0417.5455.09.873.4012.3272.31.6265.696.8979,1.1602.2721.4639.5056.9511.7026,1.4604.1969.5097.3044.9211.3223,1.2332.0182.3108.0419.6212.0732.9332.0303.3104.0267.5851-.0107.8193-.0391.2366-.1357.438-.293.6041-.1581.1671-.4031.274-.7339.321-.3573.051-.8191.0654-1.3848.0487-.5669-.0182-1.118.0117-1.6533.0916-.8927.1331-1.5081.3679-1.8492.7031-.341.3342-.4922.8098-.4565,1.4313.025.4242.2276.8307.6098,1.2222.3821.392.9561.5359,1.7202.4318.4083-.0565.8969-.1648,1.4654-.3291.5688-.1639,1.1168-.3533,1.6436-.5715.5275-.2159.9713-.4279,1.3315-.6393.3604-.2079.5508-.372.5703-.4906.0399-.6475.2454-1.2219.6148-1.7235.37-.5007.847-.7921,1.4345-.8727.2544-.0342.5887.0946,1.0049.3886.414.2957.8204.6808,1.2202,1.16.3993.4788.7492,1.0054,1.0508,1.5772.3006.5734.4665,1.1296.4956,1.6653.0327.597-.0588,1.158-.2735,1.6818-.2158.5229-.6167.8177-1.2026.8843-1.2477.6577-2.478,1.2518-3.6929,1.7824-1.2158.5296-2.6391.8856-4.27,1.0726-1.046.1205-2.0782.0081-3.0971-.3243-1.0193-.3327-1.9383-.8089-2.7568-1.425-.8196-.6154-1.4962-1.3395-2.0327-2.1723-.5365-.8316-.8329-1.7158-.8887-2.6582-.0441-.7486-.0314-1.4133.0366-1.9929.0686-.5807.1783-1.1047.3306-1.5726.1526-.4675.3333-.8906.5425-1.2727.2087-.3787.4307-.7549.6665-1.1261-.7143-.3224-1.2908-.6975-1.7285-1.1284-.4389-.4285-.7756-.8802-1.0102-1.3541-.2354-.4732-.3929-.9526-.4742-1.4365-.0821-.484-.1364-.9663-.1655-1.4432-.0608-.9822.076-1.8971.4102-2.7484.3338-.8489.8217-1.6088,1.4634-2.2772.6425-.6666,1.4065-1.2324,2.2939-1.6937.8869-.459,1.8656-.7909,2.937-.9894,1.0703-.1978,2.3129-.3242,3.7276-.3741,1.4134-.0485,2.8244.0517,4.2305.3062.2312-.0108.5457-.0153.9453-.0125.3988.0033.7957.0625,1.188.1759.393.116.7464.3173,1.0605.6084.3127.2916.4881.7342.524,1.3303.0214.353-.0348.8141-.1675,1.3853-.1335.572-.3119,1.1382-.5352,1.6982-.2245.563-.4776,1.0518-.7617,1.4724-.2844.4211-.553.6494-.8076.688-.2048.0303-.3832.0512-.5371.0609-.1534.0099-.3033-.0077-.4472-.0566-.1447-.0472-.2975-.1355-.459-.2645-.1623-.1263-.3521-.2997-.5713-.5159-.4591-.1495-.9183-.2972-1.3774-.4435Z" style="fill: #2e3192;"/>
        <path d="m169.1946,56.9314c-.109-.5496-.3166-.9075-.6216-1.0748-.3053-.1668-.6394-.2684-1.001-.299-.6732-.0706-1.0956-.2737-1.27-.6097-.1741-.3354-.2812-.8339-.3203-1.4885-.0258-.4378.0749-.9959.3047-1.6736.2295-.6788.53-1.3431.9018-1.9954.371-.6516.7941-1.2129,1.2666-1.6854.4728-.4742.9385-.7408,1.3975-.8062.586-.0836,1.2158.0167,1.8887.3029.6731.2867,1.301.6973,1.8867,1.2351.5844.536,1.0783,1.166,1.4815,1.8883.4025.722.6268,1.4727.6728,2.2476.057.9712.0609,2.3523.0117,4.1714-.0488,1.8214-.0066,3.923.1274,6.3307.0689,1.2352.3689,2.1385.899,2.6982.5306.5601,1.2416.7987,2.1347.7106.9178-.0894,1.581-.614,1.9897-1.5695.409-.9521.576-2.1104.501-3.4617-.0468-.8493-.2633-1.9525-.6469-3.291-.3835-1.3391-.8017-2.6995-1.2534-4.0815-.4519-1.3812-.8685-2.6754-1.249-3.8904-.3802-1.2133-.5912-2.147-.6318-2.8214-.0476-.7813.1289-1.4504.5317-2.0151.401-.5648.9708-.8852,1.7105-.9587,1.3256-.1307,2.5727.0311,3.7407.4852,1.1675.4535,2.0107,1.3663,2.5293,2.7439.552,1.5131,1.0489,3.4012,1.4897,5.699.4405,2.2974.7465,4.9677.9185,8.0575.0721,1.2934-.0168,2.5901-.2661,3.8875-.2494,1.2977-.7415,2.4906-1.4766,3.5747-.7357,1.0864-1.7362,1.9984-3.0034,2.7446-1.2662.7435-2.8812,1.2043-4.8442,1.3864-1.4277.133-2.7311.0794-3.9092-.1585-1.1788-.2377-2.2076-.6553-3.085-1.2508-.8786-.5955-1.5739-1.3531-2.0854-2.2727-.5118-.9208-.8031-2.0147-.8736-3.2784-.0376-.6778-.0612-1.4402-.0698-2.288-.0096-.8482-.0073-1.7068.0083-2.5759.0142-.8711.0423-1.7068.0864-2.5123.0439-.8046.0869-1.5067.1284-2.1052Z" style="fill: #2e3192;"/>
        <path d="m190.6677,54.5494c-.1709-.3027-.3966-.6523-.6743-1.0452-.2791-.3925-.5532-.8208-.8228-1.2812-.2706-.4598-.517-.9614-.7407-1.5011-.2241-.5405-.3535-1.1121-.3901-1.7119-.0275-.4642.0941-.8801.3658-1.2479.2719-.3685.6308-.6862,1.0747-.9511.4445-.2664.9367-.4689,1.4771-.6127.5411-.1432,1.0661-.2228,1.5762-.2388.5352-.0162.9892.3075,1.3613.9708.3717.6651.5691,1.6082.5923,2.8416.3595-.3929.7745-.8103,1.2461-1.2524.4706-.4402.9875-.8459,1.5527-1.2108.5631-.3653,1.1511-.6645,1.7607-.9008.6099-.2335,1.2208-.3438,1.8325-.3306.8921.0212,1.7285.2819,2.5093.7778.7804.4976,1.4603,1.1105,2.0381,1.8387.5781.7269,1.0389,1.5342,1.3848,2.4213.3448.8878.5415,1.7167.5874,2.4858.057.9623.1211,2.0463.1924,3.2583.0714,1.2131.1368,2.4565.1973,3.7285.0604,1.2738.1273,2.5458.1997,3.8096.0717,1.2662.1316,2.4376.1797,3.5162.0469,1.0778.0935,2.0167.1377,2.8108.0443.7952.0748,1.3572.0932,1.6826.0309.5615.2028,1.1321.5147,1.7067.3119.5764.4829,1.1158.5107,1.6229.0196.3585-.1265.7422-.4345,1.1556-.3102.4144-.7104.8-1.2022,1.153-.4925.3555-1.0251.6538-1.6001.8984-.5753.2419-1.1301.3806-1.6655.4099-.7645.0422-1.3888-.1558-1.8721-.5975-.483-.4411-.7506-1.1601-.8033-2.1496-.0361-.681.0377-1.4415.2237-2.2775.1848-.8342.261-1.5679.2266-2.2048-.0359-.6674-.0807-1.6039-.1328-2.8021-.053-1.1986-.1118-2.4991-.1762-3.897-.065-1.3984-.1514-2.8134-.2574-4.2422-.1066-1.4296-.2266-2.737-.3584-3.9263-.1327-1.1913-.2872-2.2026-.4634-3.0404-.1767-.8369-.3721-1.351-.5879-1.5481-.3523.0801-.7495.2496-1.1929.5142-.4429.2637-.8651.5793-1.2641.9462-.3992.3676-.7342.7526-1.0044,1.1521-.2705.3994-.3955.7717-.376,1.1122.3968,3.7889.7935,7.6931,1.1905,11.7059.1809.507.1411.963-.1182,1.3677-.2594.4045-.63.757-1.1118,1.0535-.4822.3001-1.0201.5395-1.6099.7264-.5912.1855-1.1416.2943-1.6513.3256-.4081.0244-.7493-.0332-1.0259-.171-.2759-.1387-.4968-.3172-.6611-.5384-.165-.2219-.2876-.46-.3647-.718-.0775-.2557-.1227-.5067-.1357-.751-.0229-.4293.0654-.9233.2657-1.4835-.1976-4.6144-.3952-9.0683-.5928-13.3604Zm10.9663-17.6845c.1159.2294.0262.5102-.27.8409-.2965.3324-.4434.5245-.4399.5751.0863.1557-.0603.6445-.4395,1.4789-.4239.9383-.6353,1.4277-.6333,1.4533-.0226.853-.1953,1.3604-.5166,1.5115-.1245.0522-.2502.0756-.377.0739-.2042-.0019-.4896-.0847-.8564-.2436-.4964-.1855-.8211-.3029-.9781-.3562-.8289-.2085-1.3344-.3317-1.5156-.3834-.5727-.1773-.9306-.3918-1.0747-.6492-.0595-.1276.2356-.7192.8842-1.7506.8114-1.2621,1.2629-1.9631,1.3535-2.1414.0458-.0756.1239-.4545.2324-1.1293.1194-.5239.254-.7982.4053-.8221.5032-.0976,1.2823.0202,2.3354.3659,1.0538.3453,1.6835.7417,1.8901,1.1762Z" style="fill: #2e3192;"/>
        <path d="m225.0642,49.7831c.424.3506.7438.7425.96,1.176.216.4341.3474,1.0288.3945,1.7832.0265.4169-.0192.8929-.1362,1.4323-.1168.5386-.2927,1.0403-.5278,1.5058-.2346.4674-.5264.8464-.8721,1.1407-.3473.2956-.7499.4007-1.209.3188-1.0709-.1933-2.0389-.451-2.9052-.7836-.8668-.3335-1.6432-.546-2.3316-.6412-.5104-.0696-1.0163.1358-1.518.623-.5008.4885-.946,1.0967-1.333,1.8303-.3868.7311-.7026,1.4932-.9468,2.2813-.2454.7885-.3532,1.4367-.3237,1.9357.0148.2516.203.4312.5654.5411.3612.1112.8337.1766,1.4194.1992.5843.0226,1.2371.0206,1.958,0,.7205-.0217,1.4347-.0444,2.1421-.0681.7072-.0232,1.3832-.0288,2.0288-.0213.6449.0095,1.1841.0486,1.6177.114.459.0678.8708.3027,1.2363.6968.365.3932.6718.8616.9214,1.4019.2475.5406.4407,1.0968.5781,1.6688.1371.5708.2186,1.0626.2452,1.4755.0392.6205-.0836,1.2867-.3658,2.0124-.2838.7252-.681,1.4541-1.1924,2.1928-.5122.7379-1.1018,1.4694-1.7691,2.1935-.6667.726-1.3715,1.3903-2.1113,1.9909-.7416.6003-1.4894,1.0984-2.2446,1.48-.7549.3837-1.4649.5876-2.1275.6007-1.0198.022-1.8066-.3462-2.3603-1.1185-.5547-.7714-.8676-1.8171-.9414-3.1177-.0573-1.0119.0822-1.6939.4185-2.0452.3369-.3527.7217-.5204,1.1553-.509.3572.0092.637.0237.8423.0445.2047.0195.3842.048.5395.0807.1543.0318.3206.0596.5.0797.1794.0201.435.0358.7667.0496.4071.0158.8108-.039,1.2109-.1583.3994-.1202.7511-.2843,1.0567-.4991.3048-.215.55-.4645.7363-.7484.1855-.2861.2689-.6032.2471-.9543-.0111-.1898-.2169-.3337-.6162-.4332-.3994-.0969-.9047-.1685-1.5161-.2109-.6123-.0416-1.2737-.0482-1.9828-.0194-.7095.0311-1.3872.0673-2.0327.1104-.6466.0443-1.2037.0891-1.6718.1304-.469.0425-.7668.0612-.8936.0579-.5357-.0148-1.0579-.1389-1.5688-.3815-.5103-.2409-.9671-.5602-1.3716-.9582-.405-.397-.7433-.8669-1.0156-1.4083-.2721-.5389-.4255-1.1132-.46-1.7179-.1115-1.9594.0392-3.9978.4512-6.0892.412-2.0909,1.0179-3.965,1.8198-5.6232.8003-1.658,1.7466-2.9678,2.8394-3.9443,1.0924-.9744,2.2752-1.3638,3.5498-1.1776.7134.1041,1.4769.2008,2.291.2972.813.0956,1.601.1948,2.3633.2992.7623.1052,1.4565.2361,2.083.3917.6255.1536,1.0959.3215,1.4077.4922Z" style="fill: #2e3192;"/>
      </g>
    </g>
  </g>
</svg>