<?xml version="1.0" encoding="UTF-8" standalone="no"?>
<!-- Created with Inkscape (http://www.inkscape.org/) -->

<svg
   width="150.78769mm"
   height="244.10843mm"
   viewBox="0 0 150.78769 244.10843"
   version="1.1"
   id="svg2973"
   inkscape:version="1.1.2 (b8e25be833, 2022-02-05)"
   sodipodi:docname="crab.svg"
   xmlns:inkscape="http://www.inkscape.org/namespaces/inkscape"
   xmlns:sodipodi="http://sodipodi.sourceforge.net/DTD/sodipodi-0.dtd"
   xmlns="http://www.w3.org/2000/svg"
   xmlns:svg="http://www.w3.org/2000/svg">
  <sodipodi:namedview
     id="namedview2975"
     pagecolor="#ffffff"
     bordercolor="#666666"
     borderopacity="1.0"
     inkscape:pageshadow="2"
     inkscape:pageopacity="0.0"
     inkscape:pagecheckerboard="0"
     inkscape:document-units="mm"
     showgrid="false"
     inkscape:zoom="0.46235269"
     inkscape:cx="269.27496"
     inkscape:cy="475.82723"
     inkscape:window-width="1366"
     inkscape:window-height="705"
     inkscape:window-x="-8"
     inkscape:window-y="-8"
     inkscape:window-maximized="1"
     inkscape:current-layer="layer1" />
  <defs
     id="defs2970" />
  <g
     inkscape:label="Στρώση 1"
     inkscape:groupmode="layer"
     id="layer1"
     transform="translate(-33.906734,-22.726137)">
    <g
       id="g2928"
       transform="rotate(-90,288.53585,161.30279)">
      <path
         style="fill:#ba0719;fill-opacity:1;fill-rule:nonzero;stroke:none;stroke-width:0.352778"
         d="m 331.97687,-26.667868 -6.03166,-1.378038 2.13043,-9.322428 6.03169,1.380797 -2.13046,9.319669"
         id="path1086" />
      <path
         style="fill:#ba0719;fill-opacity:1;fill-rule:nonzero;stroke:none;stroke-width:0.352778"
         d="m 277.46307,-26.666488 6.03303,-1.379418 -2.13455,-9.323804 -6.03169,1.379414 2.13321,9.323808"
         id="path1088" />
      <path
         style="fill:#ba0719;fill-opacity:1;fill-rule:nonzero;stroke:none;stroke-width:0.352778"
         d="m 270.9546,-12.035855 c 0,0 -10.16028,-6.480916 -22.17127,-5.153865 l -4.55164,2.878723 -0.45477,4.003199 c 0,0 3.00274,7.6453578 14.83459,11.4652779 11.83181,3.8240582 12.34309,-13.1933349 12.34309,-13.1933349"
         id="path1090" />
      <path
         style="fill:#ba0719;fill-opacity:1;fill-rule:nonzero;stroke:none;stroke-width:0.352778"
         d="m 248.78333,-17.18972 c 0,0 -1.91273,-9.13777 -10.28703,-11.50524 -8.3716,-2.363336 -7.73356,3.461632 -7.73356,3.461632 0,0 1.45383,13.64809 13.01418,14.92553 11.5576,1.2733091 5.00641,-6.881922 5.00641,-6.881922"
         id="path1092" />
      <path
         style="fill:#ba0719;fill-opacity:1;fill-rule:nonzero;stroke:none;stroke-width:0.352778"
         d="m 339.16609,-12.038614 c 0,0 10.15616,-6.479533 22.17127,-5.151106 l 4.55027,2.875968 0.45614,4.004578 c 0,0 -3.00686,7.6439786 -14.83596,11.4666539 -11.83044,3.8226788 -12.34172,-13.1960939 -12.34172,-13.1960939"
         id="path1094" />
      <path
         style="fill:#ba0719;fill-opacity:1;fill-rule:nonzero;stroke:none;stroke-width:0.352778"
         d="m 361.33324,-17.188341 c 0,0 1.90993,-9.136394 10.2829,-11.503864 8.37297,-2.366091 7.73907,3.458877 7.73907,3.458877 0,0 -1.45659,13.652224 -13.01281,14.92553 -11.56452,1.2746885 -5.00916,-6.880543 -5.00916,-6.880543"
         id="path1096" />
      <path
         style="fill:#ba0719;fill-opacity:1;fill-rule:nonzero;stroke:none;stroke-width:0.352778"
         d="m 388.39651,35.980503 c -1.24573,0 -2.3647,-0.870903 -2.63479,-2.141467 -2.02022,-9.609067 -8.61963,-15.621459 -19.60813,-17.871793 -8.56724,-1.752851 -16.55988,-0.497452 -16.64116,-0.483694 -1.47451,0.237032 -2.84981,-0.760659 -3.08681,-2.226892 -0.24116,-1.467612 0.75929,-2.851161 2.22554,-3.088185 0.36791,-0.05926 9.05781,-1.4262698 18.58006,0.522277 13.09963,2.681662 21.32792,10.303577 23.80287,22.040353 0.30593,1.453832 -0.62427,2.882865 -2.08223,3.188758 -0.18878,0.03859 -0.37208,0.06064 -0.55535,0.06064"
         id="path1098" />
      <path
         style="fill:#ba0719;fill-opacity:1;fill-rule:nonzero;stroke:none;stroke-width:0.352778"
         d="m 378.48014,46.450841 c -1.2471,0 -2.3647,-0.872313 -2.63479,-2.138715 -2.01055,-9.570473 -8.56728,-15.574575 -19.47718,-17.846957 -8.56865,-1.784562 -16.69496,-0.520912 -16.77486,-0.511281 -1.46901,0.235655 -2.8484,-0.762035 -3.08543,-2.229662 -0.23704,-1.46759 0.76065,-2.847022 2.22828,-3.086805 0.36654,-0.05648 9.05923,-1.42487 18.58148,0.526415 13.09687,2.6803 21.32788,10.300829 23.80146,22.037604 0.3018,1.453833 -0.63116,2.88283 -2.08358,3.188759 -0.18468,0.03859 -0.37345,0.06064 -0.55538,0.06064"
         id="path1100" />
      <path
         style="fill:#ba0719;fill-opacity:1;fill-rule:nonzero;stroke:none;stroke-width:0.352778"
         d="m 369.27349,57.459977 c -1.24577,0 -2.36333,-0.870902 -2.62929,-2.141466 -2.01471,-9.566346 -8.57141,-15.570448 -19.47859,-17.84283 -8.57003,-1.784562 -16.69768,-0.522288 -16.77624,-0.511246 -1.46759,0.23562 -2.8484,-0.76207 -3.08681,-2.229661 -0.23287,-1.467626 0.7662,-2.847023 2.22966,-3.086806 0.3652,-0.05651 9.06336,-1.424905 18.57735,0.525004 13.10513,2.681676 21.3348,10.300864 23.80562,22.03898 0.30593,1.452457 -0.62702,2.881489 -2.08223,3.188794 -0.18602,0.03856 -0.37208,0.05923 -0.55947,0.05923"
         id="path1102" />
      <path
         style="fill:#ba0719;fill-opacity:1;fill-rule:nonzero;stroke:none;stroke-width:0.352778"
         d="m 222.26852,35.980503 c -0.18331,0 -0.3707,-0.02081 -0.55813,-0.06064 -1.45383,-0.305893 -2.384,-1.734926 -2.08083,-3.188758 2.4722,-11.736776 10.70321,-19.357312 23.80146,-22.041729 9.52225,-1.9471708 18.21353,-0.581533 18.58148,-0.522277 1.46762,0.237021 2.46531,1.619194 2.22966,3.09094 -0.24116,1.463474 -1.61918,2.458417 -3.08681,2.225513 -0.11024,-0.01658 -8.22413,-1.269157 -16.77486,0.512657 -10.91128,2.268255 -17.46663,8.275108 -19.48131,17.84283 -0.26733,1.270564 -1.38631,2.141467 -2.63066,2.141467"
         id="path1104" />
      <path
         style="fill:#ba0719;fill-opacity:1;fill-rule:nonzero;stroke:none;stroke-width:0.352778"
         d="m 232.18485,46.450841 c -0.18326,0 -0.3707,-0.02081 -0.55809,-0.06064 -1.45246,-0.305929 -2.384,-1.734926 -2.0767,-3.188759 2.46945,-11.736775 10.69908,-19.355929 23.79733,-22.037604 9.52225,-1.951285 18.21766,-0.581519 18.58148,-0.526415 1.46759,0.241159 2.46532,1.623342 2.22966,3.090933 -0.23703,1.467626 -1.61918,2.462565 -3.08681,2.225534 -0.11299,-0.01658 -8.22,-1.269153 -16.77486,0.512657 -10.91131,2.271006 -17.46663,8.275108 -19.47993,17.846957 -0.26458,1.266437 -1.38356,2.137339 -2.63208,2.137339"
         id="path1106" />
      <path
         style="fill:#ba0719;fill-opacity:1;fill-rule:nonzero;stroke:none;stroke-width:0.352778"
         d="m 241.38879,57.461353 c -0.1833,0 -0.3707,-0.02187 -0.55813,-0.06061 -1.45658,-0.305929 -2.38813,-1.734961 -2.08082,-3.188794 2.47357,-11.73674 10.7032,-19.357304 23.80149,-22.037569 9.51809,-1.95132 18.2149,-0.58293 18.58144,-0.526415 1.46763,0.239783 2.46532,1.623307 2.22553,3.090933 -0.23562,1.467591 -1.61505,2.462566 -3.0868,2.225534 -0.13367,-0.02081 -8.23376,-1.266437 -16.7707,0.511246 -10.91131,2.272382 -17.46667,8.276484 -19.47997,17.844205 -0.26871,1.269189 -1.38631,2.141467 -2.63204,2.141467"
         id="path1108" />
      <path
         style="fill:#e33d3d;fill-opacity:1;fill-rule:nonzero;stroke:none;stroke-width:0.352778"
         d="m 362.94003,16.500572 c 0,35.123438 -115.21916,35.123438 -115.21916,0 0,-28.577769 25.79412,-51.746725 57.61165,-51.746725 31.81752,0 57.60751,23.168956 57.60751,51.746725"
         id="path1110" />
      <path
         style="fill:#c52323;fill-opacity:1;fill-rule:nonzero;stroke:none;stroke-width:0.352778"
         d="m 362.94003,16.500572 c 0,33.391228 -104.13696,35.037995 -114.40199,4.936102 25.92229,20.146928 107.40017,15.44507 107.40017,-14.0917999 0,-8.8731902 -2.49012,-17.2309897 -6.88055,-24.5332151 8.65548,9.0523312 13.88237,20.8235345 13.88237,33.688913"
         id="path1112" />
      <path
         style="fill:#e33d3d;fill-opacity:1;fill-rule:nonzero;stroke:none;stroke-width:0.352778"
         d="m 427.1125,-54.786737 c 0,21.325142 -16.60536,38.615388 -37.09956,38.615388 -20.49141,0 -37.09677,-17.290246 -37.09677,-38.615388 0,-20.513474 15.36651,-37.286956 34.77204,-38.539593 0.0386,0.516763 0,1.04593 -0.14193,1.562696 -0.77032,2.779501 -3.91502,3.162597 -4.09141,5.459787 -0.21498,2.706465 4.01835,3.808896 3.82129,6.42028 -0.21082,2.676151 -4.79418,2.900769 -5.32747,5.869066 -0.54709,3.038573 3.94945,4.61367 3.54982,7.914072 -0.37895,3.162596 -4.71565,3.511243 -4.91408,6.418901 -0.18052,2.627919 3.12815,6.02616 6.96185,6.139162 2.50938,0.08131 5.54246,-1.141017 6.42028,-3.40789 1.09276,-2.838757 -2.03123,-5.127681 -0.81718,-7.373881 1.23472,-2.301324 5.18968,-1.149286 6.14052,-3.278353 1.00598,-2.259983 -2.90904,-4.798328 -1.91131,-7.229189 0.86127,-2.116667 4.29531,-1.406977 5.73264,-3.691763 1.37251,-2.186948 -2.24621,-5.00917 -0.95638,-7.095519 0.6284,-1.02526 1.55444,-0.628385 2.4529,-1.635732 0.67662,-0.756542 0.81858,-1.708767 0.73589,-2.710603 12.84055,6.075772 21.76886,19.539204 21.76886,35.178559"
         id="path1114" />
      <path
         style="fill:#c52323;fill-opacity:1;fill-rule:nonzero;stroke:none;stroke-width:0.352778"
         d="m 427.1125,-54.786737 c 0,21.325142 -16.60536,38.615388 -37.09956,38.615388 -19.25669,0 -35.08347,-15.271419 -36.91213,-34.813378 6.42444,11.480437 18.37479,19.197451 32.06697,19.197451 20.49417,0 37.09953,-17.290246 37.09953,-38.616767 0,-1.287089 -0.0592,-2.55626 -0.17639,-3.813031 3.19292,5.710591 5.02158,12.349978 5.02158,19.430337"
         id="path1116" />
      <path
         style="fill:#e33d3d;fill-opacity:1;fill-rule:nonzero;stroke:none;stroke-width:0.352778"
         d="m 183.00407,-54.785357 c 0,21.325141 16.60811,38.614008 37.1009,38.614008 20.49007,0 37.09543,-17.288867 37.09543,-38.614008 0,-20.517612 -15.36789,-37.289716 -34.77341,-38.538218 -0.0386,0.515388 0,1.044554 0.14467,1.559941 0.76895,2.779501 3.91502,3.161217 4.09141,5.461166 0.21636,2.709221 -4.02114,3.806141 -3.82408,6.416146 0.21224,2.677527 4.79422,2.903524 5.32751,5.870441 0.54984,3.037198 -3.94807,4.617805 -3.54845,7.916831 0.3845,3.161217 4.71565,3.509864 4.91684,6.42028 0.17639,2.627916 -3.12815,6.024782 -6.96323,6.13778 -2.508,0.08131 -5.54521,-1.142393 -6.41752,-3.410645 -1.09277,-2.836002 2.02847,-5.126302 0.81855,-7.369747 -1.23748,-2.306835 -5.19243,-1.153417 -6.14465,-3.281108 -1.00598,-2.261362 2.90625,-4.796952 1.91131,-7.231945 -0.86127,-2.116666 -4.29672,-1.404221 -5.72847,-3.686252 -1.37255,-2.186947 2.24342,-5.00917 0.95222,-7.098274 -0.63116,-1.022505 -1.55582,-0.631144 -2.45569,-1.637111 -0.67384,-0.753787 -0.81442,-1.707388 -0.73311,-2.709224 -12.84192,6.075772 -21.77023,19.540584 -21.77023,35.179939"
         id="path1118" />
      <path
         style="fill:#c52323;fill-opacity:1;fill-rule:nonzero;stroke:none;stroke-width:0.352778"
         d="m 183.00407,-54.785357 c 0,21.325141 16.60811,38.614008 37.1009,38.614008 19.25535,0 35.08488,-15.271419 36.91491,-34.812002 -6.42444,11.480437 -18.37891,19.194695 -32.06697,19.194695 -20.49692,0 -37.10227,-17.288866 -37.10227,-38.614008 0,-1.284333 0.0606,-2.557639 0.17638,-3.810275 -3.19154,5.707832 -5.02295,12.347222 -5.02295,19.427582"
         id="path1120" />
      <path
         style="fill:#ba0719;fill-opacity:1;fill-rule:nonzero;stroke:none;stroke-width:0.352778"
         d="m 343.83765,-46.831322 c 0,0.432706 -0.0233,0.876434 -0.0758,1.313271 -0.28801,3.192914 -1.66882,6.150183 -3.96738,8.455643 -2.60448,2.60587 -6.06749,4.043165 -9.74961,4.050054 h -0.018 c -4.42627,0 -8.36609,-2.097373 -10.89889,-5.342653 -1.56962,-2.017448 -2.59349,-4.486893 -2.84427,-7.163044 v -0.01242 c -0.0372,-0.413409 -0.0565,-0.848871 -0.0565,-1.27055 0,-3.693142 1.42212,-7.154774 4.03077,-9.771669 2.60173,-2.601736 6.06749,-4.039031 9.75649,-4.050055 3.1557,0 6.05649,1.065227 8.38539,2.844271 3.29487,2.521811 5.42671,6.49194 5.43771,10.947135"
         id="path1122" />
      <path
         style="fill:#e33d3d;fill-opacity:1;fill-rule:nonzero;stroke:none;stroke-width:0.352778"
         d="m 343.83765,-48.890109 c 0,0.432703 -0.0233,0.876431 -0.0758,1.311892 -0.28801,3.192915 -1.66882,6.151563 -3.96738,8.457019 -2.60448,2.604495 -6.06749,4.041785 -9.74961,4.050054 h -0.018 c -4.42627,0 -8.36609,-2.097373 -10.89889,-5.342653 -1.56962,-2.017448 -2.59349,-4.486893 -2.84427,-7.16442 v -0.01101 c -0.0372,-0.413413 -0.0565,-0.846117 -0.0565,-1.270554 0,-3.689008 1.42212,-7.154774 4.03077,-9.767535 2.60173,-2.610002 6.06749,-4.043161 9.75649,-4.054186 3.1557,0 6.05649,1.065223 8.38539,2.844271 3.29487,2.521807 5.42671,6.491937 5.43771,10.947136"
         id="path1124" />
      <path
         style="fill:#faf3d9;fill-opacity:1;fill-rule:nonzero;stroke:none;stroke-width:0.352778"
         d="m 342.06275,-48.887354 c 0.004,6.647657 -5.37711,12.035787 -12.02478,12.042677 -6.63939,0.0083 -12.03579,-5.372972 -12.03992,-12.020628 -0.007,-6.643522 5.37436,-12.034407 12.02062,-12.042676 6.64355,-0.0041 12.03579,5.377106 12.04408,12.020627"
         id="path1126" />
      <path
         style="fill:#000000;fill-opacity:1;fill-rule:nonzero;stroke:none;stroke-width:0.352778"
         d="m 337.24373,-48.879085 c 0.004,3.98804 -3.22322,7.220921 -7.21127,7.225055 -3.98804,0.0041 -7.2209,-3.22599 -7.22506,-7.211275 -0.004,-3.988044 3.22601,-7.22092 7.21127,-7.225055 3.98805,-0.0041 7.22094,3.223232 7.22506,7.211275"
         id="path1128" />
      <path
         style="fill:#fafafa;fill-opacity:1;fill-rule:nonzero;stroke:none;stroke-width:0.352778"
         d="m 334.71227,-52.719678 c 0,1.431781 -1.16304,2.593467 -2.58932,2.593467 -1.43178,0.0041 -2.59761,-1.158931 -2.59761,-2.589332 0,-1.430405 1.15895,-2.593471 2.58936,-2.596226 1.43175,0 2.59344,1.157552 2.59757,2.592091"
         id="path1130" />
      <path
         style="fill:#ba0719;fill-opacity:1;fill-rule:nonzero;stroke:none;stroke-width:0.352778"
         d="m 338.96628,-62.319093 c -0.29764,0 -0.59944,-0.09784 -0.84886,-0.305925 -2.26275,-1.878266 -5.13182,-2.910417 -8.09321,-2.910417 -2.95314,0 -5.82221,1.032151 -8.08496,2.910417 -0.56639,0.468535 -1.40007,0.392741 -1.87138,-0.172254 -0.46715,-0.56224 -0.39138,-1.400087 0.17363,-1.871377 2.73816,-2.269628 6.21221,-3.522264 9.78271,-3.522264 3.576,0 7.05693,1.252636 9.79096,3.522264 0.56222,0.47129 0.64078,1.309137 0.17363,1.871377 -0.26458,0.31557 -0.64078,0.478179 -1.02252,0.478179"
         id="path1132" />
      <path
         style="fill:#ba0719;fill-opacity:1;fill-rule:nonzero;stroke:none;stroke-width:0.352778"
         d="m 265.60642,-46.831322 c 0,0.434082 0.018,0.879189 0.0703,1.313271 0.28939,3.19567 1.6757,6.151563 3.96875,8.455643 2.60728,2.60725 6.07166,4.043165 9.75103,4.054189 h 0.0219 c 4.42348,0 8.36055,-2.100132 10.89339,-5.345412 1.57371,-2.017448 2.5962,-4.486893 2.8429,-7.16442 v -0.01101 c 0.0427,-0.412034 0.0634,-0.846117 0.0634,-1.269175 0,-3.690384 -1.42762,-7.154774 -4.0321,-9.773045 -2.60728,-2.603116 -6.06753,-4.039031 -9.75791,-4.050055 -3.15295,0 -6.06061,1.066603 -8.38535,2.844271 -3.29766,2.521811 -5.42533,6.490561 -5.43638,10.945756"
         id="path1134" />
      <path
         style="fill:#e33d3d;fill-opacity:1;fill-rule:nonzero;stroke:none;stroke-width:0.352778"
         d="m 265.60642,-48.891488 c 0,0.434082 0.018,0.879189 0.0703,1.313271 0.28939,3.19567 1.6757,6.151563 3.96875,8.455643 2.60728,2.607246 6.07166,4.043161 9.75103,4.054186 h 0.0219 c 4.42348,0 8.36055,-2.100129 10.89339,-5.345409 1.57371,-2.014693 2.5962,-4.486893 2.8429,-7.16442 v -0.01101 c 0.0427,-0.412034 0.0634,-0.846117 0.0634,-1.270554 0,-3.689008 -1.42762,-7.153395 -4.0321,-9.767535 -2.60728,-2.607246 -6.06753,-4.043161 -9.75791,-4.054186 -3.15295,0 -6.06061,1.066599 -8.38535,2.844271 -3.29766,2.521807 -5.42533,6.490558 -5.43638,10.945756"
         id="path1136" />
      <path
         style="fill:#faf3d9;fill-opacity:1;fill-rule:nonzero;stroke:none;stroke-width:0.352778"
         d="m 267.38135,-48.883219 c -0.007,6.642142 5.3757,12.035786 12.01925,12.039917 6.64626,0.0069 12.03716,-5.372967 12.04404,-12.019248 0.007,-6.646277 -5.37711,-12.037162 -12.01924,-12.044052 -6.6463,-0.0069 -12.03717,5.377102 -12.04405,12.023383"
         id="path1138" />
      <path
         style="fill:#000000;fill-opacity:1;fill-rule:nonzero;stroke:none;stroke-width:0.352778"
         d="m 272.19345,-48.880464 c -0.004,3.986664 3.2246,7.22092 7.21403,7.225055 3.98667,0.0041 7.22093,-3.224611 7.22506,-7.211275 0.004,-3.985285 -3.22463,-7.225055 -7.21402,-7.22781 -3.98667,-0.0041 -7.22232,3.227366 -7.22507,7.21403"
         id="path1140" />
      <path
         style="fill:#fafafa;fill-opacity:1;fill-rule:nonzero;stroke:none;stroke-width:0.352778"
         d="m 274.73317,-52.718302 c -0.004,1.431784 1.15757,2.592091 2.58932,2.592091 1.43178,0.0041 2.59348,-1.156172 2.59623,-2.589332 0,-1.431784 -1.16028,-2.592091 -2.59207,-2.592091 -1.43316,-0.0041 -2.59348,1.156173 -2.59348,2.589332"
         id="path1142" />
      <path
         style="fill:#ba0719;fill-opacity:1;fill-rule:nonzero;stroke:none;stroke-width:0.352778"
         d="m 270.47504,-62.317713 c 0.30042,0 0.59944,-0.09922 0.8461,-0.307305 2.26137,-1.876887 5.13733,-2.910417 8.09321,-2.910417 2.95589,0 5.82775,1.03353 8.08634,2.910417 0.56776,0.469911 1.40423,0.392741 1.87276,-0.172254 0.46577,-0.564995 0.38862,-1.400087 -0.17226,-1.869998 -2.73816,-2.272386 -6.21358,-3.523643 -9.78684,-3.523643 -3.57737,0 -7.05139,1.251257 -9.78958,3.523643 -0.5636,0.469911 -0.64216,1.305003 -0.17222,1.869998 0.26458,0.316949 0.64216,0.479559 1.02249,0.479559"
         id="path1144" />
      <path
         style="fill:#700a0a;fill-opacity:1;fill-rule:nonzero;stroke:none;stroke-width:0.352778"
         d="m 312.40045,-25.710129 c -0.007,-0.861275 -1.51168,-1.249881 -2.25308,-0.584288 -1.3105,1.174087 -3.08818,1.893425 -5.04913,1.893425 -1.96233,0 -3.74414,-0.719338 -5.05326,-1.89618 -0.74553,-0.665593 -2.25034,-0.274232 -2.25722,0.587043 v 0.02755 c 0,3.766178 3.27833,6.82129 7.31048,6.82129 4.03076,0 7.30221,-3.055112 7.30221,-6.82129 v -0.02755"
         id="path1146" />
    </g>
  </g>
</svg>
