<?xml version="1.0" encoding="utf-8"?>
<!-- Generator: Adobe Illustrator 27.4.0, SVG Export Plug-In . SVG Version: 6.00 Build 0)  -->
<svg version="1.1"
	 id="svg1110" xmlns:sodipodi="http://sodipodi.sourceforge.net/DTD/sodipodi-0.dtd" xmlns:inkscape="http://www.inkscape.org/namespaces/inkscape" xmlns:svg="http://www.w3.org/2000/svg"
	 xmlns="http://www.w3.org/2000/svg" xmlns:xlink="http://www.w3.org/1999/xlink" x="0px" y="0px" viewBox="0 0 148.5 146.9"
	 style="enable-background:new 0 0 148.5 146.9;" xml:space="preserve">
<style type="text/css">
	.st0{fill:#9B9B29;}
	.st1{fill:#FFF200;}
</style>
<sodipodi:namedview  bordercolor="#666666" borderopacity="1.0" fit-margin-bottom="0" fit-margin-left="0" fit-margin-right="0" fit-margin-top="0" id="namedview1112" inkscape:current-layer="layer1" inkscape:cx="323.34623" inkscape:cy="506.10715" inkscape:document-units="mm" inkscape:pagecheckerboard="0" inkscape:pageopacity="0.0" inkscape:pageshadow="2" inkscape:window-height="705" inkscape:window-maximized="1" inkscape:window-width="1366" inkscape:window-x="-8" inkscape:window-y="-8" inkscape:zoom="0.46235269" pagecolor="#ffffff" showgrid="false">
	</sodipodi:namedview>
<g>
	<g id="no_x5F_button_00000038387638574447922070000006108705469531025342_">
		<ellipse class="st0" cx="74.5" cy="74" rx="64.9" ry="64.9"/>
		<path class="st1" d="M74.5,9.1c35.8,0,64.9,29,64.9,64.9s-29,64.9-64.9,64.9S9.6,109.8,9.6,74S38.7,9.1,74.5,9.1 M74.5,5.1
			c-9.3,0-18.3,1.8-26.8,5.4C39.5,14,32.1,19,25.8,25.3S14.5,39,11,47.2C7.4,55.7,5.6,64.7,5.6,74s1.8,18.3,5.4,26.8
			c3.5,8.2,8.4,15.6,14.8,21.9c6.3,6.3,13.7,11.3,21.9,14.8c8.5,3.6,17.5,5.4,26.8,5.4s18.3-1.8,26.8-5.4
			c8.2-3.5,15.6-8.4,21.9-14.8c6.3-6.3,11.3-13.7,14.8-21.9c3.6-8.5,5.4-17.5,5.4-26.8s-1.8-18.3-5.4-26.8
			c-3.5-8.2-8.4-15.6-14.8-21.9c-6.3-6.3-13.7-11.3-21.9-14.8C92.8,6.9,83.8,5.1,74.5,5.1L74.5,5.1z"/>
		<ellipse class="st0" cx="74.5" cy="74" rx="53.5" ry="53.5"/>
	</g>
	<g>
		<path class="st1" d="M26.3,109.7c0.5,4.1,4.2,6.9,8.3,6.4l7.1-0.9c4.4-0.6,7.3-4.6,6.8-8.9c-0.5-3.7-0.4-7.6,0.2-11.5
			C51.2,79.3,62.1,67.3,76,62.6l-1.1,6.6c-0.7,4.2,3.6,7.4,7.5,5.6l30.1-14.2c3.4-1.6,4.1-6,1.4-8.6l-24-22.9
			c-3.1-2.9-8.2-1.2-8.9,3l-1.1,6.6c-26.6,3.9-48.8,24.5-53.3,52.5C25.6,97.4,25.5,103.7,26.3,109.7z"/>
	</g>
</g>
</svg>
