<?xml version="1.0" encoding="UTF-8" standalone="no"?>
<!-- Generator: Adobe Illustrator 27.4.0, SVG Export Plug-In . SVG Version: 6.00 Build 0)  -->

<svg
   version="1.1"
   id="svg909"
   inkscape:version="1.2.2 (732a01da63, 2022-12-09)"
   sodipodi:docname="squidsmall-01.svg"
   x="0px"
   y="0px"
   viewBox="0 0 3607.8 3374.5"
   style="enable-background:new 0 0 3607.8 3374.5;"
   xml:space="preserve"
   xmlns:inkscape="http://www.inkscape.org/namespaces/inkscape"
   xmlns:sodipodi="http://sodipodi.sourceforge.net/DTD/sodipodi-0.dtd"
   xmlns="http://www.w3.org/2000/svg"
   xmlns:svg="http://www.w3.org/2000/svg"><defs
   id="defs159" />
<style
   type="text/css"
   id="style2">
	.st0{fill:#FFAB9C;}
	.st1{fill:#FFFFFF;}
	.st2{fill:#A11800;}
	.st3{fill:#E20C25;}
	.st4{fill:#FF9484;}
	.st5{fill:#F9CBC5;}
	.st6{fill:#FF856B;}
	.st7{opacity:0.3;}
	.st8{fill:#FF604D;}
	.st9{fill:#591D3B;}
	.st10{opacity:0.5;fill:#FFFFFF;}
	.st11{fill:#432918;}
</style>
<sodipodi:namedview
   bordercolor="#666666"
   borderopacity="1.0"
   id="namedview911"
   inkscape:current-layer="svg909"
   inkscape:cx="1811.6733"
   inkscape:cy="1620.4218"
   inkscape:pagecheckerboard="0"
   inkscape:pageopacity="0.0"
   inkscape:pageshadow="2"
   inkscape:window-height="705"
   inkscape:window-maximized="1"
   inkscape:window-width="1366"
   inkscape:window-x="-8"
   inkscape:window-y="-8"
   inkscape:zoom="0.14378972"
   pagecolor="#ffffff"
   showgrid="false"
   inkscape:showpageshadow="2"
   inkscape:deskcolor="#d1d1d1">
	</sodipodi:namedview>
<g
   id="_x33_6"
   transform="rotate(24.022221,1528.3226,1731.8736)">
	<path
   class="st0"
   d="m 2645,2253 c 89.2,80.6 285.1,379.5 268.7,400.8 -16.1,20.9 -64.2,22.9 -64.2,22.9 220.6,119.3 103.7,340 -332.2,214 17.6,6.1 110.1,40.9 66.6,133 -48.2,101.4 -314.7,35.4 -314.7,35.4 86.4,102.4 -18.6,114.1 -18.6,114.1 -187.7,92.4 -500.9,-134.8 -647.5,-274.9 7.7,100.6 -200.8,503.5 -341.5,420.6 -144.4,-84.5 77.4,-655.5 40.1,-751.2 -27.5,-70.4 -138.5,-81.5 -190.1,-195.5 -48.1,-123.1 -62.3,-259.4 -67,-392.1 -1.7,-40.3 3.5,-26.3 -13.7,-33 -40.6,-15.5 -71.7,-73.5 -88.6,-113.7 -53.4,-126 -34.9,-690.7 -34.9,-690.7 C 682.8,1246.3 591.3,1085.5 641,858.6 679.6,683.1 944.8,428.5 1026,231.4 c 20.8,-50.3 97.8,-223.1 150.7,-212.1 15.9,3.3 8.8,59.9 62.1,165.4 53.5,105.8 133.7,130.3 358.4,220 448.3,179.4 411.4,501.3 70.3,534.7 67.4,85.5 208.1,171.6 329.1,250.8 65.7,42.9 102.9,97.8 122,166 9.3,38 -11.1,17.7 61.5,60.5 71.3,42 269.4,161.8 318,229.5 67.1,90.6 12.9,226 12.9,226 21.9,27.5 296.6,21.1 355.8,26.6 166.3,14.7 171,240.4 -221.8,354.2 z"
   id="path5" />
	<g
   id="g9">
		<path
   class="st1"
   d="m 1752.1,545.2 c 98.3,88.1 107.6,189.7 88.7,189 -14.3,-0.3 -6.1,-61.7 -96.9,-179 -6.1,-5.7 1.5,-15.5 8.2,-10 z"
   id="path7" />
	</g>
	<g
   id="g13">
		<path
   d="m 1886.1,698.9 c -1,7.2 -12.1,6.7 -12.5,-0.4 -1.4,-28.1 -16.6,-52.1 -29.8,-76.2 -5.2,-6.6 3.7,-15 9.5,-8.7 2.4,-1 38.3,44.1 32.8,85.3 z"
   id="path11" />
	</g>
	<g
   id="g17">
		<path
   class="st1"
   d="m 1059.2,347.7 c 4.2,-5.9 13.9,-0.2 10.8,6.3 -26.1,56 -61.5,108.9 -92.2,162.5 -3,7.9 -14.9,4 -12.2,-4.1 4.7,-1.9 14.4,-60.1 93.6,-164.7 z"
   id="path15" />
	</g>
	<g
   id="g21">
		<path
   class="st1"
   d="m 1025.5,465.8 c 1,-10.8 51.3,-113.2 58,-78.2 0.9,10.1 -53.2,115.7 -58,78.2 z"
   id="path19" />
	</g>
	<g
   id="g25">
		<path
   class="st1"
   d="m 1382.8,1279 c 4.7,6.7 -6.2,14.3 -10.7,7.1 -157.7,-214.4 -218.2,-717 -232,-983.1 -0.5,-7.8 12.1,-9.3 12.8,-1 4.6,-1.8 53.4,695.8 229.9,977 z"
   id="path23" />
	</g>
	<g
   id="g29">
		<path
   d="m 1484,1322.8 c 5.3,6.3 -3.9,14.6 -9.7,8.4 -76.9,-77.1 -134.1,-238.8 -143.6,-327.8 -1,-7.4 10.3,-9.8 12.4,-2.6 7,-2.8 48,194.4 140.9,322 z"
   id="path27" />
	</g>
	<path
   class="st2"
   d="m 1715.6,2166.1 c 60.8,34.8 114.9,31.1 150.9,-74.1 0,0 -19.9,-8.7 -7.4,-19.1 12.4,-10.4 24.6,13.7 42.7,10.8 16.2,-2.6 55.7,5.7 1.5,21.4 0,0 12.7,194.1 -16,212.2 -28.6,18.1 -127.9,-70.9 -164.2,-132.2 0,0 -51.2,20 -56.8,5.7 -5.6,-14.3 10.8,-11.1 20.6,-17.6 9.7,-6.5 19.9,-12.1 28.7,-7.1 z"
   id="path31" />
	<path
   class="st3"
   d="m 1846.2,2231 c 0,0 4.1,-36.9 18.6,-32.8 14.5,4.1 23,89.6 5.8,95.4 -17.2,5.8 -83.8,-44 -66.9,-59.9 17,-15.8 42.5,-2.7 42.5,-2.7 z"
   id="path33" />
	<g
   id="g37">
		<path
   d="m 2829.9,2078.2 c -2.5,-15.8 -6,-91.2 4.8,-89.5 15,18.9 14.9,89.5 -4.8,89.5 z"
   id="path35" />
	</g>
	<g
   id="g41">
		<path
   d="m 2872.3,2038.5 c 0.5,-21.6 6.9,-38.1 10.2,-58.7 0.1,-1.9 1.8,-3.2 3.6,-3.1 26.9,16.3 -7.9,79.9 -13.8,61.8 z"
   id="path39" />
	</g>
	<path
   class="st1"
   d="m 1318.4,849.8 c 5.7,14.7 -16.5,23.4 -22.2,8.7 -5.8,-14.7 16.4,-23.4 22.2,-8.7 z"
   id="path43" />
	<path
   class="st1"
   d="m 1310.4,768.2 c 8.2,21.1 -23.6,33.6 -31.9,12.5 -8.2,-21.1 23.7,-33.6 31.9,-12.5 z"
   id="path45" />
	<path
   class="st1"
   d="m 1305.3,681.8 c 5.2,13.3 -14.9,21.2 -20.1,7.9 -5.2,-13.3 14.9,-21.2 20.1,-7.9 z"
   id="path47" />
	<path
   class="st4"
   d="m 851.7,502.9 c -71.5,140.1 -176,337.7 -111,470.1 36.7,74.3 145,114.5 205.5,58.3 -16,225.5 0.4,453.2 48.1,674.5 13,60.1 43.6,132.9 105.3,134.5 -113.1,350.8 199.7,727.8 622.2,670.2 -260.1,156.1 -496.4,522.2 -277.9,726.2 -59.3,71.5 -126.1,115.5 -182.4,82.3 -142.1,-83.1 72.1,-655.7 44.2,-739.8 -48.3,-148.6 -239.9,-1.1 -261.3,-598.9 -2,-47.2 6.3,-19.6 -25.8,-39.1 -19.7,-12.2 -48.5,-40.7 -76.5,-107.6 -53.4,-126 -34.9,-690.7 -34.9,-690.7 C 682.6,1246.5 591.1,1085.7 640.8,858.8 671.8,718 789.1,625.5 851.7,502.9 Z"
   id="path49" />
	<path
   class="st5"
   d="m 2329.7,1822.3 c 1.5,58.7 -36.7,71.3 -87.8,88.5 -224.5,75.3 -468.5,-34.5 -784.2,293.1 -35.2,36.5 -79.9,75.3 -106.6,118.6 -22.5,36.6 -38.8,51.8 -77.6,11.8 -148.9,-153.3 -200.2,-379.4 -163.6,-548.3 15.2,-69.9 63.6,-138.6 98.1,-201.5 34.6,-63.7 63.3,-96 135.6,-87.5 89.4,11.2 163.6,72.5 232,131 16.1,-117 -52.6,-357.1 129.7,-335.9 87,10.2 180.8,12.4 258.8,55.4 214.7,118.4 363.2,376.9 365.6,474.8 z"
   id="path51" />
	<path
   class="st4"
   d="m 2828.7,2174.7 c -190.3,6.1 -314.1,-139.8 -521.6,-8 58.2,-139.9 144.7,-367.3 95.1,-502.9 -44.2,-121.6 -179,-190.4 -308.4,-199.2 -70.5,-361.8 -425.3,-189.7 -713.5,-790 -45.9,-95.6 -73.3,-202.4 -62.4,-308 74.9,178.5 186.3,351 421.2,557.7 -5.2,2.1 -66,22.2 -71.5,15.2 145.7,184.9 404.4,223.4 451.1,416.8 9.3,38 -11.1,17.7 61.5,60.5 71.7,42.2 269.4,161.8 318,229.5 67.1,90.6 12.9,226 12.9,226 21.9,27.5 296.6,21.1 355.8,26.6 127.5,11.2 171.4,155 -38.2,275.8 z"
   id="path53" />
	<path
   class="st4"
   d="m 1923.9,774.1 c -15.9,84.4 -103.1,127 -171.2,147.5 2.5,-9.8 13.7,-18.6 23,-25.3 C 1881.7,822.1 1911.8,589 1612.1,453.6 1479.6,393.7 1312.6,360.4 1220.3,257.1 1120.6,145 1194,66.8 1142.1,34.3 c 59.3,-50.9 29.6,17.9 96.6,150.5 53.5,105.8 133.7,130.3 358.4,220 224.9,90 353.7,226.8 326.8,369.3 z"
   id="path55" />
	<path
   class="st6"
   d="m 2849.5,2676.8 c 220.6,119.3 103.7,340 -332.2,214 17.6,6.1 110.1,40.9 66.6,133 -48.2,101.4 -314.7,35.4 -314.7,35.4 86.4,102.4 -18.6,114.1 -18.6,114.1 -203.8,100.3 -531.5,-171.1 -622.9,-252.5 -2,-6.7 -3.4,-13 -4.9,-19.6 113.9,62.6 197.9,139.1 336,158.9 153.5,22.1 173.6,-81.4 141.9,-118.1 87.2,58.5 191,119.3 283.3,58.8 42.9,-28.1 65.9,-88.4 42.6,-134 80.1,23.4 166.4,46.5 245.8,19.9 79.3,-26.6 138.8,-126 93.4,-196.3 52.8,9 115.9,-44.4 87.7,-161.3 40.2,64.6 66.7,116.4 60.3,124.7 -16.2,21 -64.3,23 -64.3,23 z"
   id="path57" />
	<g
   class="st7"
   id="g61">
		<path
   class="st1"
   d="m 1208.8,1354 c 42.8,125.3 -137.4,193.3 -187.9,70.4 -50.9,-283.9 -19.6,-576.1 63.6,-835.6 3.9,-14.6 27.1,-10.4 25.3,4.8 10.3,-4.1 -64.3,326.7 99,760.4 z"
   id="path59" />
	</g>
	<path
   class="st6"
   d="m 2180,1416.8 c -343.6,-73.1 -462.7,-137.8 -513.6,-87 -63.6,63.2 -11.6,236.7 -43.1,340.4 -14.3,46.7 -152,-121.2 -299.4,-157.2 -101.7,-24.9 -167.4,150.2 -279.4,467.2 -2,-47.2 6.3,-19.6 -25.8,-39.1 85.4,-460.4 229,-688.1 555.1,-352.2 -30.6,-117.2 -58.2,-279.6 40.2,-354.2 95.8,-57.9 352.1,48.3 504.4,121.5 9.5,38.1 -10.9,17.8 61.6,60.6 z"
   id="path63" />
	<g
   id="g67">
		<path
   class="st8"
   d="M 1667.3,939.4 C 1387.2,695.4 1350.1,493 1366.2,524.9 c 118.5,215.9 305.6,412.8 301.1,414.5 z"
   id="path65" />
	</g>
	<g
   id="g71">
		<path
   class="st8"
   d="M 907.2,1142.9 C 928.4,946.4 944.9,742 1030.6,561 c 3.4,-6.6 14,-2.3 11.7,4.8 -73.8,232.3 -125.7,573.4 -135.1,577.1 z"
   id="path69" />
	</g>
	<path
   class="st8"
   d="m 2183.3,1896.4 c -99.1,88.5 -384,-38.9 -494.8,-322.6 -89.9,-263.8 174.9,-309.1 399.4,-63.2 96.5,105.8 191.4,299.5 95.4,385.8 z"
   id="path73" />
	<path
   class="st1"
   d="m 2170.6,1903 c -92.7,83.6 -361.1,-38.8 -466.5,-308.6 -85.7,-251 163,-292.8 375.1,-58.2 91.2,100.9 181.3,285.3 91.4,366.8 z"
   id="path75" />
	<path
   class="st9"
   d="m 2182,1890.6 c -76.7,104.1 -266.1,-3.6 -367.1,-115.6 -271.5,-299.4 17.4,-439 256.5,-174.5 89.5,98.7 130.8,214.5 110.6,290.1 z"
   id="path77" />
	<path
   class="st1"
   d="m 1843.8,1590.9 c 12.7,32.4 -36.3,51.6 -49,19.1 -12.7,-32.3 36.3,-51.5 49,-19.1 z"
   id="path79" />
	<path
   class="st1"
   d="m 1879,1681.2 c 6.3,16.2 -18.2,25.8 -24.5,9.6 -6.3,-16.2 18.2,-25.8 24.5,-9.6 z"
   id="path81" />
	<path
   class="st10"
   d="m 2140.9,1921.6 c -56.1,22.5 -139,1 -221.1,-54.4 -36.6,-54.2 -45.6,-109.7 -18.5,-135.8 62.2,-60.1 238.7,78.1 239.6,190.2 z"
   id="path83" />
	<path
   class="st8"
   d="m 1365.6,2282.2 c 127.5,-12.7 215.7,-306.2 79.6,-577.8 -135,-243.1 -336.3,-80.4 -299.9,248.8 15.6,141.4 96.4,341 220.3,329 z"
   id="path85" />
	<path
   class="st1"
   d="m 1373.9,2278.6 c 124.2,-13.1 212.4,-294.6 81.9,-553.3 -129.5,-231.5 -326.7,-74.3 -293.9,240.3 14.2,135.2 91.3,325.5 212,313 z"
   id="path87" />
	<path
   class="st9"
   d="m 1357,2278.8 c 128.7,12.4 175.1,-200.4 159.2,-350.4 -41.5,-402.1 -338.3,-280.3 -301.2,74.3 13.7,132.5 72.3,240.7 142,276.1 z"
   id="path89" />
	<path
   class="st1"
   d="m 1360,1826.9 c 15.7,31.1 62.7,7.4 47,-23.7 -15.7,-31 -62.7,-7.4 -47,23.7 z"
   id="path91" />
	<path
   class="st1"
   d="m 1403.6,1913.5 c 7.8,15.5 31.3,3.7 23.5,-11.8 -7.9,-15.6 -31.4,-3.8 -23.5,11.8 z"
   id="path93" />
	<path
   class="st10"
   d="m 1407.5,2268.9 c 54.2,-26.7 93.6,-102.8 107.2,-200.9 -15.8,-63.4 -51.2,-107.3 -88.7,-104.5 -86.2,6.2 -101.3,229.8 -18.5,305.4 z"
   id="path95" />
	<path
   class="st8"
   d="M 2269.2,3059.2 C 1977.1,2876.7 2046,2939 2047.5,2884.1 c 0.7,-6.8 -9.5,-9.4 -12,-2.9 -6.3,16.6 -21.2,35.1 -39.9,26.8 -7.2,-3.3 -12.4,6.5 -6.2,11.3 9.4,11.4 26.8,11 38.2,3.1 69.5,62.3 158,97.8 241.6,136.8 z"
   id="path97" />
	<path
   class="st8"
   d="m 2517.3,2890.7 c -38.6,-16.1 -77.9,-33.1 -113.4,-55 17.6,-27.6 -4.2,-38 -6.8,-26.3 -3.6,19.1 -21,29.9 -39.4,26.1 -7.7,-1.4 -10.3,10.1 -2.9,12.5 12.2,7.4 27.9,5.5 39.3,-2.4 35.6,26.6 79.9,38.8 123.2,45.1 z"
   id="path99" />
	<path
   class="st8"
   d="m 2717.8,2618.8 c 3.7,-8.3 4.5,-21.2 -4.2,-21.1 -11.7,0.1 2.6,16.5 -28.4,28.9 -12.3,4.4 4.4,23.5 25.2,2.9 35.5,24.9 95.7,52.3 138.9,47.2 -47.4,-8.6 -90.4,-33.4 -131.5,-57.9 z"
   id="path101" />
	<g
   id="g105">
		<path
   class="st8"
   d="m 2645,2253 c -19.2,4.4 -42,4.6 -58.6,-7.4 -6.3,-4.5 0.4,-14.5 6.9,-10.5 30.7,17.8 54.5,16.9 51.7,17.9 z"
   id="path103" />
	</g>
	<g
   id="g109">
		<path
   class="st8"
   d="m 2833.2,2607.1 c -1.2,-0.1 -2.3,-0.9 -2.8,-1.9 -14.3,-24.9 -62.9,-59.5 -43.3,-59 23.3,0 64.7,62 46.1,60.9 z"
   id="path107" />
	</g>
	<g
   id="g113">
		<path
   class="st8"
   d="m 2860.6,2828.1 c 1.8,0.3 3.1,2 2.8,3.8 -55.3,36.2 -230.1,-38.1 -2.8,-3.8 z"
   id="path111" />
	</g>
	<g
   id="g117">
		<path
   class="st8"
   d="m 2869.7,2805.4 c -18.7,13.7 -50.7,-1.7 -35.8,-5.5 18.9,-7.4 39.1,-1.1 35.8,5.5 z"
   id="path115" />
	</g>
	<g
   id="g121">
		<path
   class="st8"
   d="m 2141.4,3139.8 c 18.2,4.2 -28.5,22.4 -117.7,-27.9 0,0 0.1,-0.3 0.1,-0.5 -4.1,0.4 -4.7,-6.2 -0.5,-6.4 14.2,-5.6 106.4,31.1 118.1,34.8 z"
   id="path119" />
	</g>
	<g
   id="g125">
		<path
   class="st8"
   d="m 2176.6,3131.8 c -21.8,9 -45.6,-6.2 -64,-17.2 -23.5,-16.6 67.5,8.9 64,17.2 z"
   id="path123" />
	</g>
	<g
   id="g129">
		<path
   class="st6"
   d="m 1261.2,3137.1 c 0.4,-17 26.1,-16.5 25.7,0.6 -2.8,131.7 37.8,108.4 22.8,129.6 -26.2,36.7 -50.2,-52.4 -48.5,-130.2 z"
   id="path127" />
	</g>
	<g
   id="g133">
		<path
   class="st6"
   d="m 1296.6,3164.8 c -3.9,-16.5 21.2,-22.4 25,-5.8 8,34.3 20.4,68.8 26.5,73.8 20,13 -18.9,72.5 -51.5,-68 z"
   id="path131" />
	</g>
	<path
   class="st6"
   d="m 1771.6,2549.7 c 0,0 389.8,-35.6 531.3,-351.7 0,0 9.2,-2.1 8.7,4.2 -0.6,6.2 -148.8,293.5 -180.6,307 -31.8,13.3 -335.7,71.7 -359.4,40.5 z"
   id="path135" />
	<path
   class="st8"
   d="m 1535.9,2590.6 c -102.2,18.5 -232.5,-18.5 -234.3,-23 -28,-68.1 -140,-84.7 -190,-195.2 121.5,101.1 262.3,201.5 422.4,205.5 7.6,-0.9 9.5,11.1 1.9,12.7 z"
   id="path137" />
	<path
   class="st8"
   d="m 2523.9,1879.3 c -25.7,51.4 -61.4,108.2 -99.2,153.9 -4.6,5.9 -14.4,-0.7 -10.5,-7.2 57.8,-123.2 101.9,-284.9 53.3,-412.6 76,68.7 78.7,170.7 43.4,258.8 2.2,2.8 6.6,4.9 13,7.1 z"
   id="path139" />
	<path
   class="st11"
   d="m 1212.7,2394.5 c 9.1,23.4 -26.2,37.2 -35.4,13.8 -9.1,-23.4 26.3,-37.3 35.4,-13.8 z"
   id="path141" />
	<path
   class="st11"
   d="m 1284.4,2447.7 c 6.2,15.8 -17.8,25.2 -24,9.4 -6.2,-15.9 17.8,-25.2 24,-9.4 z"
   id="path143" />
	<path
   class="st11"
   d="m 1535.5,2297.6 c 8.7,22.4 -25.1,35.7 -33.9,13.2 -8.7,-22.4 25.1,-35.6 33.9,-13.2 z"
   id="path145" />
	<path
   class="st11"
   d="m 1580.9,2276.1 c 4.8,12.4 -13.9,19.7 -18.8,7.3 -4.8,-12.3 14,-19.7 18.8,-7.3 z"
   id="path147" />
	<path
   class="st11"
   d="m 2114,2044.9 c 10.3,26.3 -29.6,42 -39.9,15.6 -10.2,-26.4 29.6,-42 39.9,-15.6 z"
   id="path149" />
	<path
   class="st11"
   d="m 2159.5,2011.3 c 7.1,18.2 -20.4,29 -27.6,10.8 -7.1,-18.3 20.5,-29.1 27.6,-10.8 z"
   id="path151" />
	<path
   class="st11"
   d="m 2466.8,1723.8 c 8.5,21.7 -24.3,34.5 -32.8,12.8 -8.4,-21.7 24.3,-34.5 32.8,-12.8 z"
   id="path153" />
	<path
   class="st11"
   d="m 2464,1790.7 c 5.5,14 -15.7,22.3 -21.1,8.3 -5.5,-14 15.6,-22.3 21.1,-8.3 z"
   id="path155" />
</g>
</svg>
