<?xml version="1.0" encoding="utf-8"?>
<!-- Generator: Adobe Illustrator 24.0.3, SVG Export Plug-In . SVG Version: 6.00 Build 0)  -->
<svg version="1.1"
	 id="svg70381" inkscape:version="1.1.2 (b8e25be833, 2022-02-05)" sodipodi:docname="clear.svg" xmlns:inkscape="http://www.inkscape.org/namespaces/inkscape" xmlns:sodipodi="http://sodipodi.sourceforge.net/DTD/sodipodi-0.dtd" xmlns:svg="http://www.w3.org/2000/svg"
	 xmlns="http://www.w3.org/2000/svg" xmlns:xlink="http://www.w3.org/1999/xlink" x="0px" y="0px" viewBox="0 0 515.6 515.6"
	 style="enable-background:new 0 0 515.6 515.6;" xml:space="preserve">
<style type="text/css">
	.st0{fill:#FF663F;}
	.st1{fill:#350073;}
	.st2{fill:#E84D2E;}
</style>
<sodipodi:namedview  bordercolor="#666666" borderopacity="1.0" id="namedview70383" inkscape:current-layer="layer1" inkscape:cx="342.81189" inkscape:cy="343.89331" inkscape:document-units="mm" inkscape:pagecheckerboard="0" inkscape:pageopacity="0.0" inkscape:pageshadow="2" inkscape:window-height="705" inkscape:window-maximized="1" inkscape:window-width="1366" inkscape:window-x="-8" inkscape:window-y="-8" inkscape:zoom="0.46235269" pagecolor="#ffffff" showgrid="false">
	</sodipodi:namedview>
<g id="no_x5F_button">
	<ellipse class="st0" cx="259" cy="259.7" rx="238.3" ry="238.3"/>
	<path class="st1" d="M259,21.4c131.6,0,238.3,106.7,238.3,238.3S390.6,498,259,498S20.7,391.3,20.7,259.7S127.4,21.4,259,21.4
		 M259,6.7c-34.1,0-67.3,6.7-98.5,19.9c-30.1,12.7-57.2,31-80.4,54.2s-41.5,50.3-54.2,80.4C12.7,192.5,6,225.6,6,259.7
		s6.7,67.3,19.9,98.5c12.7,30.1,31,57.2,54.2,80.4c23.2,23.2,50.3,41.5,80.4,54.2c31.2,13.2,64.3,19.9,98.5,19.9
		c34.1,0,67.3-6.7,98.5-19.9c30.1-12.7,57.2-31,80.4-54.2c23.2-23.2,41.5-50.3,54.2-80.4c13.2-31.2,19.9-64.3,19.9-98.5
		c0-34.1-6.7-67.3-19.9-98.5c-12.7-30.1-31-57.2-54.2-80.4s-50.3-41.5-80.4-54.2C326.3,13.4,293.1,6.7,259,6.7L259,6.7z"/>
	<path class="st2" d="M259,37.7c128.9,0,233.8,102.3,238.1,230.2c0.1-2.7,0.2-5.4,0.2-8.1c0-131.6-106.7-238.3-238.3-238.3
		S20.7,128.1,20.7,259.7c0,2.7,0.1,5.4,0.2,8.1C25.2,140,130.1,37.7,259,37.7z"/>
	<ellipse class="st1" cx="259" cy="259.7" rx="196.4" ry="196.4"/>
	<g>
		<path class="st0" d="M260.1,313.1l-34.6-34.6l34.6-34.6c3.2-3.2,3.2-8.4,0-11.6l-16-16c-3.2-3.2-8.4-3.2-11.6,0l-34.6,34.6
			l-34.6-34.6c-3.2-3.2-8.4-3.2-11.6,0l-16,16c-3.2,3.2-3.2,8.4,0,11.6l34.6,34.6l-34.6,34.6c-3.2,3.2-3.2,8.4,0,11.6l16,16
			c3.2,3.2,8.4,3.2,11.6,0l34.6-34.6l34.6,34.6c3.2,3.2,8.4,3.2,11.6,0l16-16C263.4,321.6,263.4,316.4,260.1,313.1z"/>
		<g>
			<path class="st0" d="M320.3,146.8c10,0,45.2,3,48.2,6.3c1.1,1.9,1.9,13.7,1.9,35.6v24.1c-0.4,13-0.4,24.1-0.4,33.7
				c-0.4,57.5-1.1,88.2-2.2,93.1c-1.9,5.6-6.3,9.3-14.1,9.3l-18.5-0.7c-12.6-0.4-20.8-1.1-24.1-2.2c-7.4-1.9-8.2-6.3-8.2-17.1
				l0.7-25.2c0.4-16.7,0.7-34.5,0.7-52.6c0-27.1-0.4-41.2-1.1-41.9c-0.4-0.4-3.7,1.1-9.3,5.2c-11.5,7.8-14.8,9.3-22.2,1.9
				c-8.2-8.9-12.2-15.6-12.2-20c0-8.5,36.3-38.9,50.1-47.8C311.4,147.1,315.1,146.8,320.3,146.8z"/>
		</g>
	</g>
</g>
</svg>
