<svg xmlns="http://www.w3.org/2000/svg" xmlns:xlink="http://www.w3.org/1999/xlink" width="6.6623cm" height="9.0219cm" viewBox="0 0 188.8539 255.7396"><defs><style>.cls-1{fill:none;}.cls-2{clip-path:url(#clip-path);}.cls-3{fill:#ddf8f8;}.cls-4{fill:#fff;}.cls-5{fill:#cbcdc0;}.cls-6{fill:#7b4615;}.cls-7{fill:#f7e3d0;}.cls-8{fill:#dc5a35;}.cls-9{fill:#f4d048;}.cls-10{fill:#ffe78c;}.cls-11{fill:#fff9cd;}.cls-12{fill:#edb844;}.cls-13{fill:#e38e3d;}.cls-14{fill:#fbefb6;}.cls-15{fill:#e0735f;}.cls-16{fill:#e9a495;}.cls-17{fill:#00824c;}.cls-18{fill:#ececed;}.cls-19{fill:#7bb5d4;}.cls-20{fill:#292b02;}.cls-21{fill:#006cb1;}.cls-22{fill:#f2c7a8;}.cls-23{fill:#3b3b3b;}.cls-24{fill:#404041;}.cls-25{fill:#da4b33;}.cls-26{fill:#c17b5b;}.cls-27{fill:#e5b795;}.cls-28{fill:#eec3d7;}.cls-29{fill:#313232;}.cls-30{fill:#eeb14e;}.cls-31{fill:#c8876b;}.cls-32{fill:#e17d64;}.cls-33{fill:#5a2f2e;}.cls-34{fill:#dc7c71;}.cls-35{fill:#221f20;}.cls-36{fill:#6d4735;}.cls-37{fill:#45a39b;}.cls-38{fill:#6b5ea1;}.cls-39{fill:#aba6ce;}.cls-40{fill:#858585;}.cls-41{fill:#434343;}.cls-42{fill:#97c0d2;}.cls-43{fill:#363737;}.cls-44{fill:#e4886f;}.cls-45{fill:#00adc2;}.cls-46{fill:#009ab7;}.cls-47{fill:#007ba0;}.cls-48{fill:#74c1cf;}.cls-49{fill:#c0e1ed;}.cls-50{fill:#00a359;}.cls-51{fill:#86be6e;}.cls-52{fill:#006339;}.cls-53{fill:#bdd797;}.cls-54{fill:#a4c854;}.cls-55{fill:#dbe280;}.cls-56{fill:#74ae55;}.cls-57{fill:#498747;}.cls-58{fill:#f3f1b1;}.cls-59{clip-path:url(#clip-path-2);}.cls-60{clip-path:url(#clip-path-3);}.cls-61{fill:#f9e6cf;}.cls-62{clip-path:url(#clip-path-4);}.cls-63{fill:#dd6e43;}.cls-64{fill:#efc844;}.cls-65{fill:#4258cb;}.cls-66{clip-path:url(#clip-path-5);}.cls-67{clip-path:url(#clip-path-6);}.cls-68{clip-path:url(#clip-path-7);}.cls-69{clip-path:url(#clip-path-8);}.cls-70{clip-path:url(#clip-path-9);}.cls-71{fill:#f7d9b6;}.cls-72{clip-path:url(#clip-path-10);}.cls-73{fill:#5c9c58;}.cls-74{clip-path:url(#clip-path-11);}</style><clipPath id="clip-path"><rect class="cls-1" x="-0.6684" y="-0.948" width="190.3055" height="258.0701"/></clipPath><clipPath id="clip-path-2"><rect class="cls-1" x="-0.5404" y="269.3639" width="188.8539" height="255.7397" rx="10.4509"/></clipPath><clipPath id="clip-path-3"><rect class="cls-1" x="-62.5474" y="262.0862" width="256.3781" height="265.9759" transform="translate(131.2833 790.1484) rotate(180)"/></clipPath><clipPath id="clip-path-4"><rect class="cls-1" x="-62.6222" y="262.0862" width="256.4529" height="265.9759"/></clipPath><clipPath id="clip-path-5"><rect class="cls-1" x="204.6498" y="269.3639" width="188.8539" height="255.7397" rx="10.4509"/></clipPath><clipPath id="clip-path-6"><rect class="cls-1" x="142.6428" y="262.0862" width="256.3781" height="265.9759" transform="translate(541.6637 790.1484) rotate(180)"/></clipPath><clipPath id="clip-path-7"><rect class="cls-1" x="142.568" y="262.0862" width="256.4529" height="265.9759"/></clipPath><clipPath id="clip-path-8"><rect class="cls-1" x="204.6498" width="188.8539" height="255.7397" rx="10.4509"/></clipPath><clipPath id="clip-path-9"><rect class="cls-1" x="142.6428" y="-7.2777" width="256.3781" height="265.9759" transform="translate(541.6637 251.4206) rotate(180)"/></clipPath><clipPath id="clip-path-10"><rect class="cls-1" x="142.568" y="-7.2777" width="256.4529" height="265.9759"/></clipPath><clipPath id="clip-path-11"><rect class="cls-1" x="204.6498" y="-0.4861" width="188.8539" height="255.7397" rx="10.4509"/></clipPath></defs><title>Artboard 2</title><g id="lvl_2_-_front" data-name="lvl 2 - front"><g class="cls-2"><rect class="cls-3" x="-3.8093" y="-0.3154" width="196.9708" height="256.406"/><polygon class="cls-4" points="148.731 159.547 147.775 162.494 144.681 162.494 147.184 164.316 146.228 167.263 148.731 165.441 151.235 167.263 150.279 164.316 152.782 162.494 149.688 162.494 148.731 159.547"/><polygon class="cls-4" points="121.455 227.784 119.692 233.219 113.986 233.219 118.602 236.577 116.839 242.011 121.455 238.653 126.071 242.011 124.308 236.577 128.924 233.219 123.218 233.219 121.455 227.784"/><polygon class="cls-4" points="11.694 39.62 10.249 44.073 5.573 44.073 9.356 46.826 7.911 51.279 11.694 48.527 15.476 51.279 14.032 46.826 17.815 44.073 13.139 44.073 11.694 39.62"/><polygon class="cls-4" points="161.331 13.302 159.886 17.755 155.21 17.755 158.993 20.507 157.548 24.961 161.331 22.209 165.113 24.961 163.668 20.507 167.451 17.755 162.775 17.755 161.331 13.302"/><polygon class="cls-4" points="52.949 35.952 51.993 38.899 48.899 38.899 51.402 40.72 50.446 43.667 52.949 41.846 55.452 43.667 54.496 40.72 57 38.899 53.905 38.899 52.949 35.952"/><polygon class="cls-4" points="68.081 103.066 67.124 106.013 64.03 106.013 66.534 107.834 65.578 110.781 68.081 108.96 70.584 110.781 69.628 107.834 72.131 106.013 69.037 106.013 68.081 103.066"/><polygon class="cls-4" points="54.738 164.645 53.195 169.399 48.203 169.399 52.242 172.338 50.699 177.092 54.738 174.154 58.777 177.092 57.234 172.338 61.273 169.399 56.28 169.399 54.738 164.645"/><path class="cls-5" d="M85.388,218.4485c-11.8108-.6865-26.8028,2.369-12.5093,5.1521s42.7475,1.607,44.2955-2.4087S85.388,218.4485,85.388,218.4485Z"/><path class="cls-6" d="M121.2109,158.0456a14.2463,14.2463,0,0,1-4.4409,2.4878,1.2111,1.2111,0,1,1-.74-2.3063c3.4678-1.1217,7.2305-4.9235,8.9374-9.05a10.2848,10.2848,0,0,0,.0356-8.6728,1.2106,1.2106,0,1,1,2.1535-1.1066c1.62,3.1613,1.6369,6.8643.0484,10.7063A20.5831,20.5831,0,0,1,121.2109,158.0456Z"/><path class="cls-7" d="M127.0428,141.1659c2.4183-.9117,1.8554-7.1513.807-7.5731-1.1423-.46-1.0264,2.4049-1.0264,2.4049s-.5037-3.1438-1.64-3.1969c-1.24-.058-.3463,3.5612-.3463,3.5612s-1.16-2.8782-2.1946-2.4063,1.1413,4.1484,1.1413,4.1484-2.2279-1.2379-2.4936.0014C121.0916,139.0327,124.464,142.138,127.0428,141.1659Z"/><path class="cls-6" d="M74.3083,153.8432a14.1818,14.1818,0,0,0,4.3276,2.6783,1.2113,1.2113,0,1,0,.8411-2.2719c-3.4173-1.27-7.0106-5.2329-8.5391-9.4275a10.2807,10.2807,0,0,1,.34-8.665,1.2117,1.2117,0,1,0-2.1048-1.2012c-1.7558,3.0906-1.9308,6.787-.508,10.6952A20.5372,20.5372,0,0,0,74.3083,153.8432Z"/><path class="cls-7" d="M68.5809,137.8618c-2.2738-1.2288-.8782-7.3362.2173-7.6129,1.1939-.3018.6945,2.5212.6945,2.5212s.921-3.0476,2.0546-2.947c1.236.1095-.1356,3.5755-.1356,3.5755s1.5359-2.6961,2.498-2.0891-1.6881,3.9572-1.6881,3.9572,2.374-.9268,2.4708.3371C74.7648,136.5493,71.0059,139.1725,68.5809,137.8618Z"/><path class="cls-6" d="M75.001,210.9086a15.9027,15.9027,0,0,0-.4761,5.8247,1.482,1.482,0,0,0,1.5936,1.2753,1.3363,1.3363,0,0,0,1.2495-1.5008c-.5158-4.1891,1.7014-9.8654,5.2839-13.5008a11.7624,11.7624,0,0,1,9.2823-3.8519,1.3574,1.3574,0,0,0,1.4927-1.2759,1.48,1.48,0,0,0-1.371-1.5081,14.3256,14.3256,0,0,0-11.5041,4.6656A22.2838,22.2838,0,0,0,75.001,210.9086Z"/><path class="cls-8" d="M74.4742,215.7381c-1.3833-.6372-5.172.0345-5.0464,1.7255.1964,2.6318,6.2338,3.3511,7.2343,2.3736a3.7334,3.7334,0,0,0,.8095-3.12A4.5068,4.5068,0,0,1,74.4742,215.7381Z"/><path class="cls-9" d="M112.3984,171.4927q10.8225,8.4828,6.3194,21.71a19.8855,19.8855,0,0,1-4.873,7.8946,23.4314,23.4314,0,0,1-7.6631,5.0884,27.9928,27.9928,0,0,1-9.9036,2.0277,29.5859,29.5859,0,0,1-10.2376-1.3079q-12.18-4.133-16.3721-16.6811-.7179-2.22,1.8875-3.8419a22.3593,22.3593,0,0,1,6.1523-2.5538,31.5936,31.5936,0,0,1,6.8624-1.0557q3.3143-.1235,3.9786.6074a2.69,2.69,0,0,1,.5878,1.7008q-.0883,3.3029,4.0637,2.5025t3.6382-2.92q-.58-2.3368-5.4961-5.6057t-4.7132-7.497a13.1451,13.1451,0,0,1,.7546-3.1662,12.2444,12.2444,0,0,1,3.5947-4.8114q-7.9929-.751-11.0828-1.3316a4.5356,4.5356,0,0,1-3.1854-2.901,17.6606,17.6606,0,0,1-1.5094-5.6551,20.2844,20.2844,0,0,1,.2357-6.0284,6.7246,6.7246,0,0,1,2.0569-4.1042q1.1737-.9273,7.5926-.9141t13.8656.7q7.4468.6879,13.8191,1.8422t7.4983,2.4734q2.4372,2.9914-1.2132,11.2354A79.7374,79.7374,0,0,1,112.3984,171.4927Z"/><path class="cls-10" d="M103.8477,149.8944c-3.7773-4.0271-23.7869-2.6017-22.3394.4947.7579,1.6211,11.8744,5.6062,17.2218,5.5594C103.598,155.9063,106.2887,152.4969,103.8477,149.8944Z"/><path class="cls-11" d="M107.8267,160.9866c-2.2183.925-4.7041,9.3127-3.2216,9.1962.7759-.0611,4.1016-3.9889,4.902-6.1792C110.2357,162.01,109.26,160.3889,107.8267,160.9866Z"/><path class="cls-12" d="M85.61,187.96c-1.9629-3.5119-13.1248.56-8.8058,8.4522,4.8507,8.8648,21.2216,12.1006,30.8478,5.6712s6.5762-21.682-2.0655-27.9045-13.8042-2.7094-8.0026,2.3129,6.8918,11.9615-.1389,14.35S87.8986,192.0558,85.61,187.96Z"/><path class="cls-13" d="M87.8186,197.2719c-4.17-1.7629-7.2789,1.39-2.92,4.0152s19.362,2.49,22.3068-1.85.3074-8.1355-5.5536-4.0234S92.5518,199.2733,87.8186,197.2719Z"/><path class="cls-13" d="M108.7563,184.5443c-1.7418-1.14-6.9669,6.836-.7195,7.062C110.3329,191.6893,111.0161,186.0227,108.7563,184.5443Z"/><path class="cls-14" d="M92.179,206.1556h-.0011c-.7344-.0575-1.4813-.1428-2.22-.2539a19.805,19.805,0,0,1-13.3372-7.9135c-2.4915-3.3838-3.4183-6.79-3.3413-7.7809.0473-.6058.6464-1.1312,2.0032-1.7569a31.2292,31.2292,0,0,1,3.7177-1.3563,35.002,35.002,0,0,1,6.11-1.4309c.605.0471.9308.5685,1.3431,1.2289a8.49,8.49,0,0,0,3.6309,3.4413,5.1251,5.1251,0,0,0,1.9227.4977,9.7459,9.7459,0,0,0,6.7607-2.2814,4.4858,4.4858,0,0,0,1.6262-3.1167c.0645-2.3159-2.7182-4.6015-5.4093-6.812-2.1051-1.729-4.0931-3.3619-4.951-5.1227-1.4726-3.0226,2.502-7.7781,4.8767-10.6192.4184-.5.8735-1.0453,1.159-1.4258-1.2543-.1675-4.1594-.442-6.5855-.6715-3.2868-.3108-6.6856-.6322-7.7766-.8279-.3681-.0662-1.4869-.2668-2.2479-4.7466a36.9773,36.9773,0,0,1-.481-7.1692c.0977-2.1689.4423-3.08,1.19-3.1459a94.2179,94.2179,0,0,1,13.8421.27,137.2915,137.2915,0,0,1,15.3636,2.0011c6.8817,1.38,8.0819,2.619,8.3858,3.4306.8332,2.2245-1.94,7.57-5.6523,14.3268-1.5806,2.8774-3.0751,5.598-3.2752,6.62a7.8321,7.8321,0,0,0,1.1895,1.1513c2.5818,2.2427,7.9541,6.91,6.3477,16.4639a19.3788,19.3788,0,0,1-8.4728,13.3279A25.0192,25.0192,0,0,1,92.179,206.1556ZM74.3862,190.3192a15.7508,15.7508,0,0,0,3.1289,7.0087,18.7174,18.7174,0,0,0,12.6082,7.4737c.7125.1072,1.4328.19,2.1411.2447,11.9886.936,21.236-5.524,23.01-16.0748,1.5029-8.9383-3.3648-13.1671-5.98-15.439-1.0773-.936-1.6709-1.4516-1.5694-2.1038.1815-1.1665,1.6059-3.76,3.41-7.0432,2.51-4.5707,6.3051-11.478,5.585-13.4-.0819-.2193-.8325-1.38-7.5637-2.7309a136.0968,136.0968,0,0,0-15.2319-1.9824,94.5372,94.5372,0,0,0-13.5234-.2834,14.0263,14.0263,0,0,0-.2913,4.8527A26.6531,26.6531,0,0,0,81.2089,157.7c.3913,1.0763.6913,1.1581.6941,1.1588,1.0459.1876,4.4211.5068,7.6854.8153,4.7.4443,6.9636.67,7.4208.8237a.63.63,0,0,1,.4128.4308c.138.4886-.2013.919-1.66,2.664-2.0574,2.4618-5.887,7.0436-4.73,9.4175.7518,1.5423,2.737,3.1734,4.6573,4.7506,2.8981,2.3807,5.895,4.842,5.8152,7.7031a5.4874,5.4874,0,0,1-1.9936,3.9127,10.7835,10.7835,0,0,1-7.59,2.5635,6.2181,6.2181,0,0,1-2.338-.6142,9.6063,9.6063,0,0,1-4.0712-3.8439,3.636,3.636,0,0,0-.5077-.71,38.5784,38.5784,0,0,0-5.4985,1.3307C75.7858,189.23,74.54,190.0363,74.3862,190.3192Z"/><path class="cls-6" d="M104.022,215.2066a15.8406,15.8406,0,0,0,4.4351,3.7965,1.48,1.48,0,0,0,1.9663-.5462,1.3383,1.3383,0,0,0-.4832-1.893c-3.6938-2.0348-6.99-7.1575-7.8355-12.1952a13.6054,13.6054,0,0,1,.2017-5.77c.7178-2.4524-2.2083-2.6013-2.7316-.7666A16.0281,16.0281,0,0,0,99.28,204.92,22.2927,22.2927,0,0,0,104.022,215.2066Z"/><path class="cls-8" d="M107.6222,218.4618c-1.3256.7507-3,4.2193-1.5575,5.1078,2.2453,1.381,6.3626-3.0988,6.1574-4.4838a3.7308,3.7308,0,0,0-2.0527-2.4846A4.5111,4.5111,0,0,1,107.6222,218.4618Z"/><path class="cls-14" d="M85.6882,152.1966c-.7276,1.7622-2.523.542-6.1886-.2876-3.27-.7386-5.5555-.4923-5.6057-2.4086-.048-1.8326,2.7914-3.6806,6.4943-2.9688C84.2035,147.2659,86.4693,150.3017,85.6882,152.1966Z"/><path class="cls-6" d="M81.9558,149.5251a.7338.7338,0,1,1-.087-1.0327A.7335.7335,0,0,1,81.9558,149.5251Z"/><path class="cls-6" d="M79.121,148.3936a.7343.7343,0,1,1-.0889-1.0364A.7353.7353,0,0,1,79.121,148.3936Z"/><path class="cls-6" d="M79.59,150.7144a.7351.7351,0,1,1-.0871-1.0346A.7342.7342,0,0,1,79.59,150.7144Z"/><path class="cls-14" d="M104.8759,156.6692c.0005,1.9067,2.1267,1.4651,5.8314,2.0994,3.3029.5662,5.3219,1.6672,6.0983-.0853.7423-1.6753-1.1783-4.4693-4.8711-5.2252C108.1274,152.6789,104.8759,154.62,104.8759,156.6692Z"/><path class="cls-6" d="M109.6609,156.0158a.7341.7341,0,1,0,.44-.9416A.7349.7349,0,0,0,109.6609,156.0158Z"/><path class="cls-6" d="M112.713,155.9368a.734.734,0,1,0,.4405-.9409A.7318.7318,0,0,0,112.713,155.9368Z"/><path class="cls-6" d="M111.47,157.947a.7328.7328,0,1,0,.44-.9383A.7325.7325,0,0,0,111.47,157.947Z"/><path class="cls-6" d="M87.4051,153.7964a9.1454,9.1454,0,0,0,15.62,3.2323c1.5113-1.7869,2.5821-3.2826.9408-4.0988s-4.7758-.3929-8.02-1.063c-3.2447-.672-5.9543-2.3045-7.7852-2.2066S86.7238,151.5572,87.4051,153.7964Z"/><path class="cls-15" d="M94.2713,159.9865a9.1908,9.1908,0,0,0,6.891-1.3472A9.0836,9.0836,0,0,0,88.39,155.88,9.2189,9.2189,0,0,0,94.2713,159.9865Z"/><path class="cls-16" d="M94.2178,154.7986c-1.1727-.1119-3.4595.3253-3.1894,1.0909s2.2424-.1794,4.0989.281S96.8415,155.0477,94.2178,154.7986Z"/><path class="cls-6" d="M113.2165,142.21l-.0051-.0226c-.6054-2.5564-2.1486-4.25-4.2348-4.6533a4.8453,4.8453,0,0,0-1.8332,0,.6388.6388,0,0,0-.001,1.2541.6326.6326,0,0,0,.24,0,3.6419,3.6419,0,0,1,1.3628.0005c.9207.1779,2.5634.8934,3.2265,3.6889a.637.637,0,0,0,1.2453-.2675Zm-.198.0289Z"/><path class="cls-6" d="M87.4082,128.1384l.0088-.0085.0109-.01c2.8564-2.4275,5.5681-1.9028,7.1533-.6018a5.0062,5.0062,0,0,1,.4856.4562.64.64,0,0,1-.0353.9011.639.639,0,0,1-.8372.0255.6858.6858,0,0,1-.0633-.0592,3.6426,3.6426,0,0,0-.36-.3386c-.5761-.4727-2.6763-1.8272-5.5187.5883a.6333.6333,0,0,1-.8151.0087.61.61,0,0,1-.0823-.0807A.6348.6348,0,0,1,87.4082,128.1384Z"/><path class="cls-17" d="M91.1729,146.7306c-.1082.3817-1.7109.2582-3.5767-.2772s-3.2929-1.2769-3.1843-1.6595,1.7112-.2575,3.5782.277S91.2825,146.3473,91.1729,146.7306Z"/><path class="cls-4" d="M94.816,141.3488c-1.545,3.8929-4.8747,5.194-7.872,4.0013s-4.5268-4.4279-2.9821-8.3207,5.2272-6.0818,8.2243-4.889S96.3608,137.4558,94.816,141.3488Z"/><path class="cls-6" d="M88.6555,146.0794a6.2726,6.2726,0,0,1-1.83-.4313,5.8894,5.8894,0,0,1-3.3741-3.329,7.3169,7.3169,0,0,1,.2129-5.4081c1.3512-3.4057,4.3137-5.6268,7.2038-5.4013a4.9048,4.9048,0,0,1,1.4361.3328,5.5464,5.5464,0,0,1,3.2075,3.8013,9.1308,9.1308,0,0,1-.3988,5.8234C93.8806,144.5748,91.4666,146.2986,88.6555,146.0794Zm2.1635-13.93c-2.613-.204-5.31,1.8516-6.559,4.9987a6.6922,6.6922,0,0,0-.2122,4.9381,5.2573,5.2573,0,0,0,3.0144,2.9665,5.6372,5.6372,0,0,0,1.6434.3877c2.5162.1967,4.6892-1.3773,5.8126-4.2095a8.486,8.486,0,0,0,.3785-5.41,4.9223,4.9223,0,0,0-2.8284-3.382A4.28,4.28,0,0,0,90.819,132.149Z"/><path class="cls-18" d="M92.136,142.1087c1.3279-1.3063,2.0408-4.2533,2.0027-6.5231a8.4974,8.4974,0,0,1-2.0725,7.8736c-3.514,3.5573-8.0936-.106-7.8774-3.7235a6.4216,6.4216,0,0,1,.24-1.3279C83.9817,143.14,88.6865,145.4987,92.136,142.1087Z"/><path class="cls-19" d="M88.02,137.1717a2.7564,2.7564,0,0,0,1.3512,3.6035c1.2593.4126,2.7-.532,3.2143-2.1106a2.4622,2.4622,0,1,0-4.5655-1.4929Z"/><path class="cls-20" d="M88.8622,137.309a1.71,1.71,0,1,0,2.2325-1.4672A1.9138,1.9138,0,0,0,88.8622,137.309Z"/><path class="cls-4" d="M91.615,136.34a.7838.7838,0,1,0,1.0229-.6716A.8793.8793,0,0,0,91.615,136.34Z"/><path class="cls-4" d="M88.48,138.37a.4507.4507,0,0,0,.22.5858.5.5,0,1,0-.22-.5858Z"/><path class="cls-6" d="M105.0281,141.8468a5.5521,5.5521,0,0,1,3.0085.2915,5.1239,5.1239,0,0,1,1.5087.908c.9249.8092,2.3273,2.67,1.3261,6.04a.469.469,0,0,1-.2357.2845.5643.5643,0,0,1-.4389.0312.6606.6606,0,0,1-.0977-.0419.5178.5178,0,0,1-.2741-.6c.6271-2.11.2729-3.8822-.9966-4.992a3.9739,3.9739,0,0,0-1.17-.7067,4.2751,4.2751,0,0,0-2.3519-.2167,3.615,3.615,0,0,0-2.9667,3.1225.4685.4685,0,0,1-.2038.3181.5662.5662,0,0,1-.4517.0669c-.0225-.0061-.0435-.0131-.0633-.02a.5774.5774,0,0,1-.0651-.03h0a.5318.5318,0,0,1-.29-.5411A4.557,4.557,0,0,1,105.0281,141.8468Z"/><path class="cls-21" d="M27.87,23.787A3.6835,3.6835,0,0,1,25.6455,28.13a4.0129,4.0129,0,0,1-3.1.18A3.7861,3.7861,0,0,1,20.23,26.253a3.7376,3.7376,0,0,1-.1464-3.0375A4.1225,4.1225,0,0,1,25.7393,20.89,3.7012,3.7012,0,0,1,27.87,23.787Zm3.9853,11.6392a3.6918,3.6918,0,0,1-2.2188,4.361,4.194,4.194,0,0,1-3.1065.1618A3.724,3.724,0,0,1,24.2217,37.91a3.7656,3.7656,0,0,1-.1495-3.0464,3.9452,3.9452,0,0,1,2.0307-2.3,3.9909,3.9909,0,0,1,3.6217-.0341A3.7013,3.7013,0,0,1,31.8557,35.4262Z"/><path class="cls-21" d="M171.9226,147.1936a4.3474,4.3474,0,0,1-4.7659,3.2446,4.748,4.748,0,0,1-3.3188-1.5726,4.4841,4.4841,0,0,1-1.2384-3.4477,4.4155,4.4155,0,0,1,1.5665-3.2351,4.6724,4.6724,0,0,1,3.4067-1.2238,4.7223,4.7223,0,0,1,3.7774,2.0194A4.3813,4.3813,0,0,1,171.9226,147.1936Zm-2.4493,14.3388a4.3576,4.3576,0,0,1-4.77,3.2665,4.9621,4.9621,0,0,1-3.3151-1.5945,4.6657,4.6657,0,0,1,.3264-6.6719,4.6556,4.6556,0,0,1,3.4086-1.2347,4.7226,4.7226,0,0,1,3.7774,2.0194A4.3821,4.3821,0,0,1,169.4733,161.5324Z"/><path class="cls-22" d="M122.5661,110.22a70.3318,70.3318,0,0,0,13.7693-6.1211c.3161,1.2771.4992,2.2387.4992,2.2387s-4.0466,2.873-14.2689,6.2652C120.9864,111.5609,122.5661,110.22,122.5661,110.22Z"/><path class="cls-23" d="M124.1654,112.0386a2.3782,2.3782,0,0,1-2.4345,1.3121c-1.3939-.6406-3.2966-3.2419-2.8752-5.4123.3893-2.0191,2.0077-1.9729,2.8059-1.1726.6416.6457.4563,2.4217,2.0135,3.0073.58.041.6538.9255-.4322.9821C122.9317,111.6569,124.1654,112.0386,124.1654,112.0386Z"/><path class="cls-24" d="M124.0924,110.1706a.6972.6972,0,0,1-.0589-.19A.4077.4077,0,0,1,124.0924,110.1706Z"/><path class="cls-4" d="M121.975,113.4124a1.2932,1.2932,0,0,1-1.0958.2142,7.0156,7.0156,0,0,1-2.7059-4.6528c-.1546-1.6108.5956-2.369,1.2378-2.21A6.1259,6.1259,0,0,0,121.975,113.4124Z"/><path class="cls-4" d="M122.9722,110.7177c-.4031.5245-1.2055-.4532-1.1021-.75a12.033,12.033,0,0,0,.548-1.5241c.2006-.0741.9255.5774.9383,1.0035A2.3308,2.3308,0,0,1,122.9722,110.7177Z"/><path class="cls-22" d="M172.1291,108.9867a70.37,70.37,0,0,1-13.7316-6.2065c-.3234,1.276-.5124,2.236-.5124,2.236s4.0289,2.8974,14.23,6.3534C173.7016,110.3365,172.1291,108.9867,172.1291,108.9867Z"/><path class="cls-23" d="M170.5192,110.7946a2.38,2.38,0,0,0,2.4262,1.3277c1.398-.6327,3.3166-3.2219,2.9087-5.3956-.3774-2.0216-1.9961-1.9845-2.7992-1.19-.6464.6434-.4706,2.4189-2.0318,2.9961-.58.0375-.6586.921.4257.9839C171.7548,110.4215,170.5192,110.7946,170.5192,110.7946Z"/><path class="cls-24" d="M170.6037,108.9272a.6671.6671,0,0,0,.06-.19A.4.4,0,0,0,170.6037,108.9272Z"/><path class="cls-4" d="M172.7015,112.1828a1.2942,1.2942,0,0,0,1.0936.22,7.0173,7.0173,0,0,0,2.7352-4.6355c.1643-1.6108-.5814-2.3734-1.2262-2.2185A6.124,6.124,0,0,1,172.7015,112.1828Z"/><path class="cls-4" d="M171.72,109.4816c.4.5263,1.2081-.4469,1.1075-.7438a12.0033,12.0033,0,0,1-.5387-1.5276c-.2-.076-.9294.5718-.9449.9973A2.3387,2.3387,0,0,0,171.72,109.4816Z"/><path class="cls-25" d="M154.8473,99.0043s1.4561,2.2052,5.8416,4.282c-3.5429,6.813-21.61,11.9979-27.28.4863,4.0332-2.2977,3.3933-2.0262,6.576-4.09C144.1715,100.7594,154.8473,99.0043,154.8473,99.0043Z"/><path class="cls-22" d="M138.8865,84.8213s-6.7293.7211-14.38-9.9574c-.9011.2559-1.736-.4013-2.6566-1.4883-.8953-.567-1.4037-1.1063-1.1148-1.4055.2989-.3091,1.2377.4023,1.494.5445-.0249-.04-1.0832-1.0338-1.2974-1.2734-.5043-.5457-.0456-1.0971.4722-.703.4354.3287,1.3808,1.1517,1.433,1.1915-.0334-.0527-.9711-1.2393-1.1493-1.4572-.52-.6351.1131-1.3042.7226-.5865.4173.4884,1.1146,1.3714,1.1966,1.4293.001-.0492-.353-.8255-.5305-1.3031-.2917-.783.3358-1.1393.815-.3128.38.6481,1.361,2.1666,1.361,2.1666s.444-1.1566,1.0791-.9027c.636.2588-.2039,2.2543-.2039,2.2543s3.9267,8.1709,13.2426,9.1067C141.183,83.4123,138.8865,84.8213,138.8865,84.8213Z"/><path class="cls-26" d="M124.5476,73.1157a.019.019,0,0,0,.014-.0047.0773.0773,0,0,0,.0354-.1051,1.0169,1.0169,0,0,1,.5643-1.3358.0767.0767,0,0,0,.0323-.1067.0839.0839,0,0,0-.1067-.0321,1.1685,1.1685,0,0,0-.6288,1.5462A.0718.0718,0,0,0,124.5476,73.1157Z"/><path class="cls-22" d="M152.5856,84.7249a29.1712,29.1712,0,0,0,17.1481-3.3879c.73.5929,1.7535.3271,3.0336-.3048,1.0454-.1655,1.7273-.4566,1.5807-.8456-.15-.4013-1.2964-.1237-1.5876-.0974.0378-.0246,1.4026-.5164,1.6958-.6466.68-.3038.4778-.9879-.1531-.8355-.53.1269-1.7223.5063-1.7864.524.0506-.0385,1.385-.7514,1.632-.8789.7312-.3765.4167-1.2423-.4287-.8273-.576.2807-1.569.8118-1.6652.8331.0175-.0464.6526-.6181,1.0041-.9817.58-.6021.1453-1.18-.6206-.615-.6078.4444-2.11,1.4426-2.11,1.4426s.05-1.2374-.6336-1.2574c-.6861-.0187-.7092,2.1508-.7092,2.1508a26.4578,26.4578,0,0,1-15.7711,3.0592C151.04,82.516,152.5856,84.7249,152.5856,84.7249Z"/><path class="cls-26" d="M170.4507,79.7362a.0549.0549,0,0,0,.0417-.0176,1.1693,1.1693,0,0,0,.0375-1.6694.075.075,0,0,0-.1075-.0134.077.077,0,0,0-.0149.1084,1.0209,1.0209,0,0,1-.012,1.4527.08.08,0,0,0-.0109.1106A.082.082,0,0,0,170.4507,79.7362Z"/><path class="cls-22" d="M151.64,80.9607a14.0773,14.0773,0,0,1-2.5871-.5878,15.198,15.198,0,0,1,.2459-2.6936l-2.6572-.405s-.2613,2.04-.28,2.8136c-1.59.31-3.5036.5013-3.5036.5013s-1.37,4.8506,4.1129,4.9624C148.4124,85.5828,151.7555,83.2145,151.64,80.9607Z"/><path class="cls-27" d="M146.6236,78.209l2.3117.2357a14.5116,14.5116,0,0,1-.2827,1.7867,1.263,1.263,0,0,0-2.0931-.1124A17.8636,17.8636,0,0,1,146.6236,78.209Z"/><path class="cls-28" d="M150.68,80.71c.7912.3409,4.1118.7979,5.9814,1.2207a5.4963,5.4963,0,0,1,.2748,4.1484c-.2737.3035-1.95.2746-3.471-.1066.25,4.351,1.2289,9.1305,3.5708,12.1486-2.7134,3.88-15.7616,4.0182-18.95,2.0707.5544-1.5466,1.3926-8.9839,1.9743-14.3875.0145-.1368-1.78.2093-3.0368-.65a6.41,6.41,0,0,1,.8314-3.9775c1.6708-.0871,4.966-.5757,5.75-.7065C142.9069,84.8693,150.3112,86.3416,150.68,80.71Z"/><path class="cls-4" d="M138.3752,81.15a8.7917,8.7917,0,0,0-.4944,4.3931,4.2923,4.2923,0,0,1-1.404-.36s-.0852-2.7417,1.1458-4.05A4.6357,4.6357,0,0,0,138.3752,81.15Z"/><path class="cls-4" d="M156.168,81.841a7.7049,7.7049,0,0,1,.0839,4.4189,3.1277,3.1277,0,0,0,1.2629-.152s-.1275-2.9723-.853-4.1773A1.9555,1.9555,0,0,0,156.168,81.841Z"/><path class="cls-4" d="M144.0491,80.3337c.01,2.4285.9423,3.7092,2.97,3.8061s3.3094-1.8492,3.4578-3.4461a4.2,4.2,0,0,1,.7011.1646,3.9621,3.9621,0,0,1-4.2033,4.0936c-4.3026-.0048-3.6959-4.4332-3.6959-4.4332Z"/><path class="cls-4" d="M138.2719,99.4158c1.3805,1.0262,13.6513,1.9277,18.2533-2.09.5112.7955.7513,1.1178.7513,1.1178s-5.1546,5.2415-19.2924,2.1051C138.09,100.0037,138.2719,99.4158,138.2719,99.4158Z"/><path class="cls-25" d="M131.5968,49.0428c-3.0071.1169-7.95,1.3818-7.8776,3.4257s11.9274,4.4731,11.9274,4.4731Z"/><path class="cls-29" d="M165.0342,72.6324a4.2351,4.2351,0,0,1-4.0875,3.4137c1.687,1.1484.41,3.4481-1.8311,3.9447,2.395.5085,1.94,2.4,1.0222,3.7314A2.2183,2.2183,0,0,1,162.341,87.46c1.3385,2.1855,4.0449,2.8642,7.8449,2.8443-1.1,1.2653-5.2155,1.1862-5.2155,1.1862a9.6887,9.6887,0,0,0,3.9173,2.29c-4.2607.5611-7.9489.0363-8.8379-5.3118a2.1259,2.1259,0,0,1-1.7709-3.5282,2.6653,2.6653,0,0,1-1.57-4.9874c-2.9863-1.6484-3.1093-5.7549.4386-6.0859-3.5858-3.02,2.2238-7.4244,5.4218-7.5317C167.1568,66.8068,165.0342,72.6324,165.0342,72.6324Z"/><path class="cls-30" d="M162.6137,87.0875s1.55.8854.8679,1.9173A3.103,3.103,0,0,1,160.68,90.29s-1.0276-.2987-.83-1.8417A8.63,8.63,0,0,0,162.6137,87.0875Z"/><path class="cls-29" d="M132.5025,48.3986c4.1393-7.7552,19.5863-5.214,19.5863-5.214s17.8867.4362,18.8853,10.6361c4.4849,2.29,2.963,7.2906.1375,6.9129,2.6489,1.3236-.0724,6.5706-4.6093,5.8956,0,0-10.6484-1.8723-16.66-3.1675-6.1411-.3317-16.9055-1.3267-16.9055-1.3267-4.5544-.543-5.8037-6.3216-2.9-6.9021C127.2094,54.8543,128.4241,49.5207,132.5025,48.3986Z"/><path class="cls-22" d="M166.4848,66.0256C165.2161,75.5108,156.98,80.8334,147.86,79.611s-15.6686-8.5281-14.4-18.0147a16.6636,16.6636,0,1,1,33.0253,4.4293Z"/><path class="cls-22" d="M165.8162,66.008a2.7987,2.7987,0,0,1,2.8463-1.9207c2.4958-.0237,3.131,3.32,1.6036,5.1116-1.5277,1.788-4.2757,1.5289-4.9677-.0757Z"/><path class="cls-31" d="M169.0543,64.9825c-1.5767-.44-3.1469,2.26-1.1141,3.9415-.7263-2.0868.1795-2.69,1.2394-1.6245.0507-.6533-.31-1.103-1.2839-1.1255A1.8157,1.8157,0,0,1,169.0543,64.9825Z"/><path class="cls-22" d="M134.0053,61.7491a2.799,2.799,0,0,0-2.2414-2.6026c-2.4014-.68-3.8932,2.3781-2.8911,4.5089,1.0054,2.1272,3.7234,2.6007,4.8137,1.2358Z"/><path class="cls-31" d="M131.15,59.9066c1.6383-.0088,2.4428,3.0107.04,4.0954,1.2489-1.8211.5327-2.6423-.7691-1.8932.1238-.6439.5895-.9828,1.5341-.748A1.816,1.816,0,0,0,131.15,59.9066Z"/><path class="cls-32" d="M150.9889,63.1759c-.2933.9709-3.0191,1.77-2.2274,3.1044.49.8257,1.8666.817,2.0679-.688C150.9456,64.7211,150.9889,63.1759,150.9889,63.1759Z"/><path class="cls-32" d="M155.3306,69.8856c-.1312.9752,1.2381,1.9638,3.0575,2.2074s3.3992-.35,3.5295-1.3255-1.2391-1.9632-3.0576-2.2074S155.46,68.91,155.3306,69.8856Z"/><path class="cls-32" d="M136.6213,67.38c-.13.9758,1.2388,1.9634,3.0577,2.2076s3.4-.35,3.53-1.3254-1.2386-1.9638-3.058-2.2076S136.7512,66.4048,136.6213,67.38Z"/><path class="cls-33" d="M144.5359,68.78c1.3972-.6881,1.7.7283,4.5757,1.1032,2.9346.3829,3.5308-.9755,4.7972.3085,1.0342,1.0471-.6272,5.9849-5.429,5.2959C143.6424,74.7893,143.2065,69.4341,144.5359,68.78Z"/><path class="cls-34" d="M151.9321,74.8662a5.0959,5.0959,0,0,1-3.4523.6217,5.3474,5.3474,0,0,1-3.05-1.4419,10.5462,10.5462,0,0,1,3.3821-.0265A10.3761,10.3761,0,0,1,151.9321,74.8662Z"/><path class="cls-4" d="M145.0349,68.6121c1.0209-.1672,1.5772.9456,4.0767,1.2714,2.5292.33,3.3214-.6327,4.3032-.0823-.2005,1.3719-2.4658,2.1012-4.4956,1.81C146.9078,71.3211,144.8359,69.9707,145.0349,68.6121Z"/><path class="cls-4" d="M156.0754,63.1713a2.95,2.95,0,1,0,4.0752-1.3407A3.0443,3.0443,0,0,0,156.0754,63.1713Z"/><path class="cls-35" d="M157.0681,63.71a1.819,1.819,0,1,0,2.5126-.8274A1.8778,1.8778,0,0,0,157.0681,63.71Z"/><path class="cls-4" d="M159.0132,64.0965a.5313.5313,0,1,0,.592-.5A.5515.5515,0,0,0,159.0132,64.0965Z"/><path class="cls-4" d="M157.2971,65.2026a.3293.3293,0,1,0,.3661-.31A.34.34,0,0,0,157.2971,65.2026Z"/><path class="cls-36" d="M161.9684,63.6761a4.3643,4.3643,0,0,0-5.4371-1.5079C160.1174,59.1766,161.9684,63.6761,161.9684,63.6761Z"/><path class="cls-4" d="M144.2506,61.5884a2.9492,2.9492,0,1,1-3.58-2.3664A3.0411,3.0411,0,0,1,144.2506,61.5884Z"/><path class="cls-35" d="M143.1518,61.8467a1.8187,1.8187,0,1,1-2.2072-1.4589A1.8752,1.8752,0,0,1,143.1518,61.8467Z"/><path class="cls-4" d="M141.1741,61.708a.5314.5314,0,1,1-.44-.6389A.5524.5524,0,0,1,141.1741,61.708Z"/><path class="cls-4" d="M142.5393,63.2258a.33.33,0,1,1-.2717-.3942A.34.34,0,0,1,142.5393,63.2258Z"/><path class="cls-36" d="M138.4322,60.5248a4.3626,4.3626,0,0,1,5.6411-.0247C141.3981,56.67,138.4322,60.5248,138.4322,60.5248Z"/><path class="cls-29" d="M143.2343,56.87c-.2624-1.6978-3.3447-1.9254-4.7127.7451C140.0756,56.3166,143.2343,56.87,143.2343,56.87Z"/><path class="cls-29" d="M158.294,58.8859c.6986-1.5682,3.733-.9771,4.3517,1.9591C161.4871,59.1839,158.294,58.8859,158.294,58.8859Z"/><path class="cls-29" d="M162.63,51.64c2.8842,4.0123,1.5362,5.32-.0279,4.7306-2.49-.9375-3.4833-4.7978-3.4833-4.7978s.9867,4.6645-3.0185,3.02a6.2109,6.2109,0,0,1-3.9966-5.4706s-2.203,5.95-6.5566,4.662c-2.458-.7273.49-5.1719.49-5.1719s-3.8081,5.4345-6.0034,3.5269c-3.425-2.9764,7.697-7.9332,13.1651-6.6976S162.63,51.64,162.63,51.64Z"/><path class="cls-25" d="M157.0215,34.4136c-.7894-1.9666-3.3454-3.2906-4.7313-.9172A47.8137,47.8137,0,0,0,157.0215,34.4136Z"/><path class="cls-37" d="M131.4239,49.0189c10.9372-.2428,30.1465,3.463,40.5861,5.5893.3233-3.16,1.0943-10.3682-3.0195-14.7362-2.634-2.7972-8.2167-5.3055-13.9371-6.0934-5.8076-.8-11.9819-.4165-15.4061,1.1038C134.1681,37.3163,132.6618,44.0578,131.4239,49.0189Zm17.16-4.224a43.1881,43.1881,0,0,0,9.4389,1.4777c1.6393.0721,2.5508,3.642-.4984,3.7064a23.7638,23.7638,0,0,1-9.9826-1.6591C145.6735,47.4313,146.976,44.4239,148.5839,44.7949Z"/><path class="cls-38" d="M117.0245,108.5136q-1.2132-.1832-2.8133-4.6681a39.394,39.394,0,0,1-1.73-5.5474q-.9553-7.5573,2.2223-12.7134a46.2227,46.2227,0,0,1,8.3692-9.8741q2.11-1.9065,1.5193-2.8969a2.2627,2.2627,0,0,0-2.0225-1.04,4.683,4.683,0,0,0-2.7687.8238,2.0447,2.0447,0,0,0-.742,2.6379,2.06,2.06,0,0,1-.05,1.2992,4.26,4.26,0,0,1-2.7,1.9939,24.0991,24.0991,0,0,1-4.4953,1.1544,18.7916,18.7916,0,0,1-2.9849.2483,5.755,5.755,0,0,1-2.8351-.7851q-1.6485-.895-1.2839-4.9406a21.0107,21.0107,0,0,1,1.17-5.9323,18.5218,18.5218,0,0,1,8.3423-9.14A19.3152,19.3152,0,0,1,126.23,56.7993a17.2119,17.2119,0,0,1,10.5874,5.8835,13.2545,13.2545,0,0,1,3.6714,11.3861,13.0369,13.0369,0,0,1-5.028,8.6492,18.2147,18.2147,0,0,0-5.6856,6.5385q3.7092-1.4982,7.3976-3.056a41.596,41.596,0,0,1,4.9516-1.8653q1.1718-.3735,2.6123,1.088a15.7643,15.7643,0,0,1,2.5819,3.559,19.8906,19.8906,0,0,1,1.7309,4.25,4.5457,4.5457,0,0,1,.06,3.161q-.2868.58-4.9655,2.5443t-10.3673,4.1075q-5.6883,2.1428-10.7065,3.8306T117.0245,108.5136Z"/><path class="cls-39" d="M128.9287,61.1483c-.0854,1.2585-1.9913,2.1535-4.2569,1.9992s-4.0335-1.2993-3.9481-2.5575,1.9913-2.1534,4.2571-1.9994S129.0141,59.89,128.9287,61.1483Z"/><path class="cls-39" d="M133.8225,64.0169c-.2109.5939-1.2494.7662-2.3191.3853s-1.7658-1.1723-1.5548-1.766,1.25-.7671,2.3194-.3855S134.0337,63.4225,133.8225,64.0169Z"/><path class="cls-22" d="M115.2029,57.6905a2.4644,2.4644,0,0,0-.4023,3.1584c.4319.9324.7148,1.3967,1.054,1.1781.3495-.2266-.2708-1.3632-.3581-1.6368.0328.0335.7392,1.2358.9225,1.4881.4252.5836,1.1009.2652.8281-.3049-.2327-.4755-.9071-1.5721-.937-1.63.0469.0428,1.0716,1.3012,1.2416,1.5094.5076.6181,1.2642.1829.6993-.5371a11.5516,11.5516,0,0,1-.9134-1.4926c.0481.0061.6106.7385.989,1.0541.6313.5266,1.0528.0273.3859-.9027-.426-.5935-.9946-1.641-.9946-1.641s1.28-.72,1.32-1.01c.0918-.6711-1.9126.0221-1.9126.0221A3.6965,3.6965,0,0,0,115.2029,57.6905Z"/><path class="cls-22" d="M44.11,131.198s5.91-.12,11.3629-10.2136c.8107.12,1.4612-.5394,2.1407-1.5856.7108-.5893,1.0919-1.1118.8093-1.34-.2923-.2347-1.0283.4851-1.2344.6358.0169-.0367.8248-1.0142.9844-1.2438.3763-.53-.0825-.9557-.4871-.56-.34.3343-1.07,1.1517-1.11,1.1932.0221-.05.7032-1.1829.8339-1.39.3812-.6082-.24-1.1181-.6907-.43-.3072.47-.814,1.3119-.8792,1.3715-.0065-.0435.2153-.7545.3165-1.1873.168-.7117-.4146-.9508-.7405-.1819-.2579.605-.94,2.0273-.94,2.0273s-.5135-.9525-1.0347-.6626c-.5241.2944.4254,1.93.4254,1.93s-2.5034,7.5147-10.472,9.3536C41.9644,130.2319,44.11,131.198,44.11,131.198Z"/><path class="cls-27" d="M45.1171,128.6411c.1339.3264.6965,1.1614.9632,1.79a7.1841,7.1841,0,0,0,1.9781-.9012c-.3984.0417-1.1815-.0775-1.3757-.4415-.2585-.4911.3839-1.19.66-1.4568A10.3671,10.3671,0,0,1,45.1171,128.6411Z"/><path class="cls-22" d="M31.7846,133.6058a25.4991,25.4991,0,0,1-14.17-5.6995c-.7215.39-1.5557-.0045-2.5529-.7533-.8688-.3126-1.4063-.6735-1.219-.9839.1952-.32,1.1313.1046,1.3791.1742-.03-.0277-1.12-.6716-1.3524-.831-.5342-.37-.2487-.925.2674-.6921.4349.195,1.3982.7155,1.4486.74-.0374-.0412-1.0663-.8686-1.2587-1.0193-.5662-.4417-.1557-1.1343.5032-.64.45.3353,1.2139.9514,1.294.9872-.0084-.0438-.4593-.637-.7023-1.0074-.3985-.6108.0661-1.0351.6327-.4262.4493.4806,1.5759,1.5814,1.5759,1.5814s.1587-1.0694.7474-.9754c.5912.0953.2587,1.961.2587,1.961a23.1342,23.1342,0,0,0,13.04,5.1935C33.467,131.9626,31.7846,133.6058,31.7846,133.6058Z"/><path class="cls-27" d="M29.4144,133.1264a14.4985,14.4985,0,0,0,2.0576.1369s1.3288-1.46-.1422-1.996a18.3327,18.3327,0,0,1-2.0674-.16C30.0433,131.3391,31.4848,132.8232,29.4144,133.1264Z"/><path class="cls-26" d="M17.2613,126.418a.0687.0687,0,0,1-.0342-.0238,1.0217,1.0217,0,0,1,.24-1.4391.0655.0655,0,0,1,.0933.0055.068.068,0,0,1-.0045.0978.8919.8919,0,0,0-.2247,1.2482.0691.0691,0,0,1-.0082.0966A.0767.0767,0,0,1,17.2613,126.418Z"/><path class="cls-22" d="M34.484,130.4618s1.4661-.569,2.3931-1.0692a9.5884,9.5884,0,0,0-.5566-2.1111l1.8056-.5788s.4942,1.6185.61,2.285c1.4137.0628,3.2866.02,3.2866.02s1.81,4.0116-2.9129,4.8171C37.8672,134.0379,34.6743,132.4248,34.484,130.4618Z"/><path class="cls-27" d="M38.0605,127.3528l-1.4375.45a6.63,6.63,0,0,1,.4247,1.4913c.4486-.612,1.19-.7192,1.5364-.2691A12.9568,12.9568,0,0,0,38.0605,127.3528Z"/><path class="cls-21" d="M40.9917,129.0536c2.5924,4.9988-5.906,6.602-6.5839,1.517a17.6575,17.6575,0,0,1-5.68-.7248c-.17,1.9467-.2992,3.51-.4572,4.8208a27.0447,27.0447,0,0,0,4.2544.9356c.8711,1.7378.9992,10.7818.8094,11.2424a41.31,41.31,0,0,0,14.5446-.7959c.0025,0-2.38-13.1391-2.4788-13.345a9.8044,9.8044,0,0,0,3.3381-1.7432,7.0315,7.0315,0,0,0-1.9443-4.3171A11.7852,11.7852,0,0,1,40.9917,129.0536Z"/><path class="cls-4" d="M40.4874,128.9126c.4817,1.4592.5242,3.4634-1.7586,3.7646-2.0113.2655-2.99-.6415-3.2536-2.6419a7.2708,7.2708,0,0,0-1.333.4892s.672,4.3357,4.9984,3.5071c4.1108-.7872,2.7236-5.1808,2.7236-5.1808Z"/><path class="cls-4" d="M46.9486,126.4564s2.0888,2.7043,2.1639,4.5441a5.7167,5.7167,0,0,1-.9534.6152,19.9262,19.9262,0,0,0-2.05-4.51A3.0852,3.0852,0,0,0,46.9486,126.4564Z"/><path class="cls-4" d="M29.7215,129.9583a20.88,20.88,0,0,1-1.1722,4.8227,3.6354,3.6354,0,0,1-1.2157-.4827,11.9979,11.9979,0,0,0,1.1059-4.7869A7.7144,7.7144,0,0,0,29.7215,129.9583Z"/><path class="cls-22" d="M50.1,159.5769s.6136,2.7639.9935,4.2566a3.3526,3.3526,0,0,1-1.61.3866l-1.4112-4.49Z"/><path class="cls-22" d="M30.5008,159.9113s-1.8005,2.18-2.7457,3.3989a3.351,3.351,0,0,1-1.2946-1.0355l2.6742-3.8731Z"/><path class="cls-4" d="M52.6982,165.0184c.456.7409,1.171,3.5953-.7379,4.1937-2.1273.6687-2.88-1.8839-2.9082-2.9714A8.03,8.03,0,0,1,52.6982,165.0184Z"/><path class="cls-21" d="M50.9328,162.7c1.5927.9991,3.0651,4.5849.6775,5.4684s-3.0848-2.9133-2.5689-4.9337C50.5773,163.1827,50.9328,162.7,50.9328,162.7Z"/><path class="cls-4" d="M24.8911,162.88c-.5536.2127-1.13,1.0869-.9936,2.7374s.5715,3.9562,2.5383,4.3244a1.37,1.37,0,0,0,1.7969-1.5728Z"/><path class="cls-21" d="M26.6508,161.7588c-.5589.1326-2.1483.915-2.06,2.177.0851,1.258.3453,4.7434,2.3035,5.0409,1.9574.2917,1.82-1.3575,1.5741-2.45-.2446-1.0931-.4356-3.6324-.4356-3.6324S27.3328,163.096,26.6508,161.7588Z"/><path class="cls-4" d="M51.5294,163.8414a3.0084,3.0084,0,0,0-2.4543.8228.5158.5158,0,0,0,.4056.8465,18.9271,18.9271,0,0,1,2.0922-.651C52.53,164.6956,52.0993,163.9829,51.5294,163.8414Z"/><path class="cls-4" d="M28.9388,164.7749a3.0038,3.0038,0,0,0-2.2628-1.2532.5147.5147,0,0,0-.3477.8708,20.18,20.18,0,0,1,1.8922,1.1026C28.99,166.0925,29.2236,165.2912,28.9388,164.7749Z"/><path class="cls-40" d="M40.7638,128.5451s.2734,4.0116.38,6.53a1.1528,1.1528,0,0,0,1.7232-.0731l-.7555-6.44Z"/><path class="cls-40" d="M33.5565,130.484s1.1063,3.6518,1.7122,6.097a1.1528,1.1528,0,0,0,1.6757-.413l-2.0218-6.1607Z"/><path class="cls-41" d="M43.0569,134.3551a30.2808,30.2808,0,0,1-8.16,1.2471c.2271,4.0578.1,6.7587-1.9854,6.0319-.3333,4.1915-.7625,10.5476-4.4691,16.5128.6868.847.8771,2.3872,3.6662,2.5641,2.8335-3.18,7.9387-9.3367,8.514-10.728,1.792,1.8412,5.6138,8.7415,7.2545,11.4191,2.6566-.2456,3.5115-1.6327,3.5115-1.6327s-2.8975-13.6-4.3658-18.9324C45.349,140.8155,43.0569,134.3551,43.0569,134.3551Z"/><path class="cls-42" d="M41.46,135.5005a.5122.5122,0,1,0,.5182-.5073A.5114.5114,0,0,0,41.46,135.5005Z"/><path class="cls-42" d="M35.8647,136.3616a.5117.5117,0,1,0,.5187-.5067A.5113.5113,0,0,0,35.8647,136.3616Z"/><path class="cls-40" d="M42.316,137.6546l-5.8731.7652s.4463,5.1783,3.8039,4.6149C43.5573,142.48,42.316,137.6546,42.316,137.6546Z"/><path class="cls-40" d="M34.1931,145.1475a5.75,5.75,0,0,1-1.7734,2.2738c.1794.374.5444.9973.5444.9973s2.148-1.4421,2.458-3.0105A2.9725,2.9725,0,0,1,34.1931,145.1475Z"/><path class="cls-40" d="M46.6364,144.6766a5.736,5.736,0,0,0,1.7158,2.3178c-.191.3712-.5718.9835-.5718.9835s-2.11-1.4948-2.3819-3.0705A2.9761,2.9761,0,0,0,46.6364,144.6766Z"/><path class="cls-40" d="M51.3443,157.81a12.0053,12.0053,0,0,1-4.978,1.6844,12.0425,12.0425,0,0,0,1.5111,1.9075s2.5836-.0373,3.716-1.2809C51.4047,158.51,51.3443,157.81,51.3443,157.81Z"/><path class="cls-40" d="M33.1338,160.3505s-3.3625-.8505-4.9431-2.53c-.3037.9214-.7235,1.9478-.7235,1.9478s2.4457,2.3179,4.1277,2.3221C32.6575,160.865,33.1338,160.3505,33.1338,160.3505Z"/><path class="cls-43" d="M55.2136,97.1151c-2.1965-3.1595-8.499-4.71-8.499-4.71s6.462-.0292,4.0709-3.4476c-3.1281-4.4723-13.6922-1.1951-13.6922-1.1951s3.9911-5.25-.32-5.4971A8.1031,8.1031,0,0,0,28.1805,87.81a8.1023,8.1023,0,0,0-9.9687-.67c-3.5326,2.4855.76,5.2293.76,5.2293s-8.7443,1.1833-9.4852,6.5931c-.5665,4.135,4.7258,3.06,4.7258,3.06s-4.43,2.4058-4.9414,6.2218c-.3214,2.3938,1.2432,4.724,4.01,4.0536-2.4925,1.59.755,6.5168,5.19,5.3745,0,0,10.3785-2.9691,16.2143-4.8815,6.063-.97,16.6494-3.0791,16.6494-3.0791,4.4655-1.014,5.1056-6.8824,2.1623-7.1562C56.2638,101.8856,56.5921,99.0975,55.2136,97.1151Z"/><path class="cls-22" d="M18.4251,117.0706c2.2454,9.2869,10.9765,13.7142,19.9067,11.5489s14.6721-10.1012,12.4268-19.3884a16.6382,16.6382,0,1,0-32.3335,7.84Z"/><path class="cls-22" d="M19.0871,116.9838a2.7915,2.7915,0,0,0-3.0253-1.6107c-2.48.2366-2.7645,3.6227-1.0612,5.2424,1.7029,1.6163,4.4044,1.0723,4.9253-.5925Z"/><path class="cls-31" d="M15.7654,116.3033c1.52-.6021,3.36,1.9162,1.5159,3.7965.5047-2.1474-.4582-2.6521-1.4-1.4837-.1172-.643.1941-1.1274,1.1588-1.2512A1.8123,1.8123,0,0,0,15.7654,116.3033Z"/><path class="cls-22" d="M50.2327,109.44a2.796,2.796,0,0,1,1.9545-2.818c2.3141-.9257,4.1131,1.9559,3.3392,4.1754-.7767,2.2172-3.4269,2.9709-4.6506,1.7293Z"/><path class="cls-31" d="M52.8755,107.313c-1.6262.1617-2.1121,3.2438.3865,4.0708-1.4292-1.6784-.8035-2.5686.5668-1.9608-.1887-.6252-.6864-.9138-1.601-.5825A1.8156,1.8156,0,0,1,52.8755,107.313Z"/><path class="cls-32" d="M33.5163,112.6258c.3923.9338,3.1814,1.4443,2.5339,2.8513-.4.8708-1.7684,1.0062-2.1242-.4675C33.72,114.1564,33.5163,112.6258,33.5163,112.6258Z"/><path class="cls-32" d="M29.9028,119.7413c.2308.9554-1.0259,2.0789-2.8066,2.51s-3.4118.0071-3.6431-.9479,1.0266-2.0793,2.8074-2.5105S29.6724,118.786,29.9028,119.7413Z"/><path class="cls-32" d="M48.22,115.304c.23.9552-1.0264,2.0793-2.8075,2.51s-3.4118.0072-3.6424-.9482,1.0261-2.0786,2.8072-2.51S47.9892,114.3494,48.22,115.304Z"/><path class="cls-33" d="M40.5066,117.5185c-1.459-.5376-1.6133.9-4.4287,1.5727-2.8745.6861-3.608-.6008-4.7323.8061-.9177,1.1481,1.2453,5.8777,5.9413,4.6925C42.0179,123.3933,41.8953,118.03,40.5066,117.5185Z"/><path class="cls-34" d="M33.7946,124.3328a5.0808,5.0808,0,0,0,3.4923.257,5.3421,5.3421,0,0,0,2.8794-1.749,10.5367,10.5367,0,0,0-3.3616.3265A10.3578,10.3578,0,0,0,33.7946,124.3328Z"/><path class="cls-4" d="M39.9932,117.404c-1.031-.0595-1.4678,1.103-3.9153,1.6872-2.4779.5916-3.3646-.2817-4.282.3665.3415,1.342,2.6667,1.83,4.6524,1.3291C38.4152,120.2888,40.3321,118.7325,39.9932,117.404Z"/><path class="cls-4" d="M28.4646,113.1518a2.9454,2.9454,0,1,1-4.1857-.9064A3.04,3.04,0,0,1,28.4646,113.1518Z"/><path class="cls-35" d="M27.5354,113.79a1.8166,1.8166,0,1,1-2.581-.5592A1.874,1.874,0,0,1,27.5354,113.79Z"/><path class="cls-4" d="M25.6443,114.3765a.5306.5306,0,1,1-.64-.4355A.547.547,0,0,1,25.6443,114.3765Z"/><path class="cls-4" d="M27.4629,115.2954a.329.329,0,1,1-.3953-.2689A.34.34,0,0,1,27.4629,115.2954Z"/><path class="cls-36" d="M22.6655,114.2674a4.3585,4.3585,0,0,1,5.2423-2.0638C24.036,109.606,22.6655,114.2674,22.6655,114.2674Z"/><path class="cls-4" d="M40.0424,110.3473a2.9443,2.9443,0,1,0,3.309-2.7221A3.0356,3.0356,0,0,0,40.0424,110.3473Z"/><path class="cls-35" d="M41.16,110.49a1.8158,1.8158,0,1,0,2.0409-1.6787A1.8719,1.8719,0,0,0,41.16,110.49Z"/><path class="cls-4" d="M43.11,110.1459a.53.53,0,1,0,.37-.68A.5514.5514,0,0,0,43.11,110.1459Z"/><path class="cls-4" d="M41.9121,111.7952a.3286.3286,0,1,0,.2285-.4195A.338.338,0,0,0,41.9121,111.7952Z"/><path class="cls-36" d="M45.7089,108.6855a4.3548,4.3548,0,0,0-5.6038.5632C42.363,105.1667,45.7089,108.6855,45.7089,108.6855Z"/><path class="cls-43" d="M40.5611,105.5562c.084-1.7124,3.121-2.26,4.7573.2492C43.64,104.6782,40.5611,105.5562,40.5611,105.5562Z"/><path class="cls-43" d="M25.8164,109.1278c-.8567-1.4847-3.8075-.5814-4.1175,2.3988C22.6769,109.7564,25.8164,109.1278,25.8164,109.1278Z"/><path class="cls-43" d="M20.7587,102.3845c-2.4469,4.2849-.9726,5.4427.52,4.6946,2.3749-1.191,2.96-5.1269,2.96-5.1269s-.4949,4.7346,3.3111,2.6847a6.2041,6.2041,0,0,0,3.4-5.8489s2.8056,5.6784,6.9949,3.9462c2.3657-.9784-1.0233-5.0849-1.0233-5.0849s4.346,5,6.3272,2.8767C46.34,97.2138,34.7807,93.45,29.48,95.2472S20.7587,102.3845,20.7587,102.3845Z"/><path class="cls-25" d="M62.8147,116.3132q-.5843,1.2987-6.48,1.8908t-8.4094-.2987q-1.2252-.4312-1.9223-8.3664t-1.5168-16.32q-1.9929.973-4.0391,1.823a7.6435,7.6435,0,0,1-2.5867.7876q-1.4128.1172-4.2155-4.2636T30.46,84.4916Q30.292,83.27,33.836,80.039a109.1094,109.1094,0,0,1,10.08-7.8576,11.2512,11.2512,0,0,1,4.06-1.4768,32.71,32.71,0,0,1,5.9043-.7033,19.8557,19.8557,0,0,1,5.442.5251q2.4186.6125,2.7036,2.2064.7438,4.5043,1.2274,11.5043t.6085,13.8q.1252,6.8013-.128,12.0443T62.8147,116.3132Z"/><path class="cls-44" d="M60.0813,81.4742c-1.2107.3476-2.7-1.1429-3.3253-3.3291s-.1515-4.24,1.0591-4.5876,2.7,1.1428,3.3253,3.3291S61.2921,81.1267,60.0813,81.4742Z"/><path class="cls-44" d="M59.8208,87.0391c-.63.0031-1.1445-.9161-1.1506-2.0531s.5-2.0616,1.13-2.0648,1.1448.916,1.1506,2.0531S60.4505,87.0356,59.8208,87.0391Z"/><path class="cls-22" d="M54.9438,118.5024s-1.1641-2.3564-1.8031-2.178c-.9935.2776-.0588,2.0108.4949,2.83A5.73,5.73,0,0,0,54.9438,118.5024Z"/><path class="cls-5" d="M172.0385,246.2147q-.57.8493-4.0821,1.0236a79.5224,79.5224,0,0,1-12.1616-.9481,93.9827,93.9827,0,0,1-13.78-2.5717q-4.6038-1.3776-3.8845-2.5321.5646-.8109,3.8787-1.0087a77.9328,77.9328,0,0,1,11.995.8863,92.5342,92.5342,0,0,1,14.02,2.59Q172.8079,245.083,172.0385,246.2147Z"/><path class="cls-45" d="M178.0832,225.06a30.3611,30.3611,0,0,1-6.6095,14.3718q-4.8909,5.6269-15.19,4.6808-10.9245-1.0311-15.5284-8.9745T138.4116,215.37a31.0658,31.0658,0,0,1,6.3208-13.9969q4.6512-5.6274,15.0378-5.0835,11.04.6325,15.8281,8.8718T178.0832,225.06Zm-14.0036-3.42a8.2749,8.2749,0,0,0-.7519-5.8636,5.3044,5.3044,0,0,0-4.625-2.5987q-3.0346-.1232-4.4169,1.52a8.711,8.711,0,0,0-1.8393,4.0969,8.1767,8.1767,0,0,0,.6624,5.82,5.4059,5.4059,0,0,0,4.5582,2.6214q3.0144.28,4.4447-1.3734A9.19,9.19,0,0,0,164.08,221.6394Z"/><path class="cls-4" d="M169.9158,206.6946c-.6708,1.0679-2.7739.9512-4.6966-.2607s-2.9379-3.06-2.2666-4.1279,2.774-.9515,4.6971.26S170.5871,205.6269,169.9158,206.6946Z"/><path class="cls-4" d="M173.4289,211.0178c-.4675.4227-1.4639.0813-2.2257-.7621s-1.0008-1.8713-.5332-2.2946,1.4638-.0817,2.2254.7623S173.8959,210.5944,173.4289,211.0178Z"/><path class="cls-46" d="M147.614,211.8279c3.3413-3.3556,5.8932-.89,3.493,2.64s-3.1891,14.7457,5.0156,16.336,12.7108-8.641,11.2539-13.8965,6.9923-1.273,5.5446,10.6256-7.8693,15.5585-19.1778,13.79S137.0427,222.4443,147.614,211.8279Z"/><path class="cls-47" d="M161.9026,234.4988a16.5151,16.5151,0,0,1-12.9181-2.4915c-3.5251-2.4037-5.0623,1.63-.0111,5.2031a14.66,14.66,0,0,0,17.09.3549C169.95,234.9753,166.7655,233.2626,161.9026,234.4988Z"/><path class="cls-48" d="M149.7024,202.467c5.5862-3.7654,11.6681-2.8607,11.2471-.35-.6925,4.13-11.0574,2.3634-14.076,8.7008S141.6717,207.8809,149.7024,202.467Z"/><path class="cls-47" d="M145.8287,225.0768c-1.7991-2.1223-2.5852,1.3367-1.455,3.6576S147.9046,227.5253,145.8287,225.0768Z"/><path class="cls-47" d="M169.6456,226.85c-1.5526-.6582-5.05,5.34-2.7509,6.1323S172.1488,227.9105,169.6456,226.85Z"/><path class="cls-48" d="M173.8656,213.19c-1.674.2-1.74,7.1452.6491,6.6917S176.5644,212.8683,173.8656,213.19Z"/><path class="cls-49" d="M155.3074,242.0681c-6.0966-.8237-10.54-3.5744-13.2071-8.1762-2.8094-4.8471-3.537-10.9466-2.1639-18.13a28.587,28.587,0,0,1,5.7928-12.821c2.8747-3.477,7.5559-5.071,13.9148-4.7382.685.0393,1.3584.1031,2.0023.19,5.7321.7745,9.9784,3.474,12.6219,8.0234,2.9195,5.0252,3.69,11.1651,2.291,18.2507a27.9326,27.9326,0,0,1-6.06,13.1647c-3.0215,3.4767-7.7531,4.9451-14.0622,4.3658C156.0556,242.1612,155.6758,242.1178,155.3074,242.0681Zm6.2282-42.8528c-.623-.0841-1.2746-.1461-1.9368-.1836-6.0809-.3187-10.533,1.1748-13.2311,4.4387a27.7625,27.7625,0,0,0-5.6184,12.451c-1.334,6.9781-.6389,12.8847,2.0678,17.5541,2.5315,4.3685,6.7714,6.9831,12.6011,7.7708.3572.0482.7263.09,1.0963.1253,6.0278.5536,10.523-.82,13.36-4.0842a27.1188,27.1188,0,0,0,5.8724-12.7809c1.3582-6.8813.62-12.8269-2.1948-17.673C171.0438,202.5169,167.001,199.9537,161.5356,199.2153Zm-4.7089,30.7883h0a7.5026,7.5026,0,0,1-5.8523-3.6648,11.4455,11.4455,0,0,1-.9381-8.1138,12.1692,12.1692,0,0,1,2.5632-5.6949c1.3189-1.57,3.4295-2.307,6.2724-2.1915q.4671.0258.9.0846a7.32,7.32,0,0,1,5.66,3.6154,11.5724,11.5724,0,0,1,1.06,8.17,12.8379,12.8379,0,0,1-2.74,5.8729c-1.37,1.5822-3.4994,2.2507-6.3282,1.9877C157.2238,230.052,157.0221,230.03,156.8267,230.0036Zm2.8338-18.7583c-.2664-.036-.5456-.0622-.829-.0783-2.567-.1044-4.4529.5338-5.5987,1.8974a11.3569,11.3569,0,0,0-2.3834,5.3176,10.6531,10.6531,0,0,0,.8422,7.5422,6.6311,6.6311,0,0,0,5.2455,3.2573h0c.1818.0246.37.0456.56.0616,2.5512.2374,4.4435-.3365,5.6285-1.705a12.0054,12.0054,0,0,0,2.5532-5.4913,10.77,10.77,0,0,0-.963-7.5906A6.4493,6.4493,0,0,0,159.6605,211.2453Z"/><path class="cls-5" d="M93.4464,56.3684q-.4767.5491-2.9684.3637a56.5082,56.5082,0,0,1-8.4924-1.7368,66.8007,66.8007,0,0,1-9.4928-3.0233q-3.1258-1.3758-2.5177-2.1266.4692-.5223,2.8233-.3708A55.351,55.351,0,0,1,81.18,51.1529a65.758,65.758,0,0,1,9.66,3.0568Q94.0884,55.6383,93.4464,56.3684Z"/><path class="cls-50" d="M95.496,36.062q4.8386,5.451,1.2374,11.9194a10.5315,10.5315,0,0,1-3.2887,3.6525,12.4042,12.4042,0,0,1-4.4772,1.9246,14.8258,14.8258,0,0,1-5.3555.116A15.6812,15.6812,0,0,1,78.3987,52.02,13.2606,13.2606,0,0,1,71.4435,41.767q-.1639-1.2252,1.3482-1.8231a11.8387,11.8387,0,0,1,3.45-.7469,16.725,16.725,0,0,1,3.6778.1017q1.74.25,2.0167.6947a1.4265,1.4265,0,0,1,.1452.9427q-.3588,1.7131,1.8815,1.6907T86.136,41.45q-.0813-1.2732-2.3344-3.4448T82.0549,33.649a6.964,6.964,0,0,1,.6936-1.579,6.4846,6.4846,0,0,1,2.33-2.167q-4.0954-1.1511-5.6518-1.7473A2.4059,2.4059,0,0,1,78.0407,26.34a9.3584,9.3584,0,0,1-.251-3.0918,10.7292,10.7292,0,0,1,.6943-3.1206,3.56,3.56,0,0,1,1.4612-1.9442q.7-.3719,4.0452.245t7.1624,1.6826q3.8175,1.0662,7.03,2.2736t3.675,2.0023q.9867,1.791-1.6973,5.7421A42.2284,42.2284,0,0,1,95.496,36.062Z"/><path class="cls-4" d="M94.1332,30.25c-.7612-.4722-.6893-1.9691.1609-3.3435s2.1568-2.1062,2.9176-1.6341.6894,1.9692-.1611,3.3438S94.8942,30.7218,94.1332,30.25Z"/><path class="cls-4" d="M91.0836,32.7713c-.3027-.33-.0653-1.0411.5293-1.5874s1.3224-.7216,1.6249-.3911.066,1.0412-.5286,1.5877S91.3862,33.1017,91.0836,32.7713Z"/><path class="cls-51" d="M93.0848,23.989c-1.5875-2.4584-12.1546-3.617-11.6936-1.8649.2416.9172,5.66,4.0512,8.452,4.5351C92.3851,27.1,94.1107,25.5778,93.0848,23.989Z"/><path class="cls-17" d="M79.9692,42.1018c-.6905-2.0177-6.8956-.9557-5.3917,3.57,1.6888,5.0825,9.917,8.3253,15.5451,5.8881S95.6057,40.8807,91.69,36.815s-6.94-2.7242-4.3911.4454,2.4593,6.8912-1.4324,7.4685S80.7742,44.4544,79.9692,42.1018Z"/><path class="cls-52" d="M80.2385,47.1662c-2.0071-1.3154-3.9265.0332-1.9028,1.816S88.194,52.12,90.1409,50.1375s.931-4.2122-2.5145-2.6254S82.5164,48.66,80.2385,47.1662Z"/><path class="cls-52" d="M92.3608,42.52c-.8-.76-4.28,2.9018-1.0448,3.6132C92.5052,46.3953,93.3986,43.5059,92.3608,42.52Z"/><path class="cls-53" d="M81.67,52.2122l-.0009,0c-.3773-.1-.7585-.2154-1.1329-.3433a10.5028,10.5028,0,0,1-6.2035-5.3931,8.3876,8.3876,0,0,1-1.0046-4.3739c.082-.3116.4441-.5285,1.2107-.7259a16.6218,16.6218,0,0,1,2.0669-.354,18.5458,18.5458,0,0,1,3.3209-.1651c.311.0822.4314.3849.5839.7681a4.4991,4.4991,0,0,0,1.567,2.1393,2.7136,2.7136,0,0,0,.955.4422,5.1632,5.1632,0,0,0,3.741-.547,2.375,2.375,0,0,0,1.1431-1.47c.2529-1.2012-.981-2.6573-2.1747-4.0653a9.7932,9.7932,0,0,1-2.0957-3.1415c-.4814-1.7158,2.0414-3.8175,3.5488-5.0729.2655-.2212.5543-.4619.7391-.6331-.6377-.2065-2.1264-.626-3.37-.9758-1.6842-.4744-3.4257-.965-3.9761-1.1709-.1853-.0692-.7495-.28-.7219-2.6883a19.5906,19.5906,0,0,1,.4286-3.7835c.2564-1.1212.5224-1.5636.9185-1.5269a49.9032,49.9032,0,0,1,7.191,1.4566,72.839,72.839,0,0,1,7.82,2.503c3.4568,1.3738,3.9652,2.1337,4.047,2.5858.2232,1.2389-1.7292,3.7622-4.3048,6.9321a22.0228,22.0228,0,0,0-2.3347,3.14,4.1338,4.1338,0,0,0,.5108.7131,8.7,8.7,0,0,1,1.7494,9.187,10.2613,10.2613,0,0,1-5.68,6.1431A13.2533,13.2533,0,0,1,81.67,52.2122ZM73.8944,42.265a8.3464,8.3464,0,0,0,.967,3.9513,9.9249,9.9249,0,0,0,5.8652,5.0945c.3612.1237.7289.235,1.0927.3311,6.162,1.6272,11.5953-.8619,13.52-6.1941A8.0735,8.0735,0,0,0,93.6845,36.83c-.4734-.59-.7339-.9154-.6192-1.2459a18.9157,18.9157,0,0,1,2.4456-3.348c1.7421-2.1442,4.3749-5.3849,4.1815-6.4553-.0221-.1221-.3032-.799-3.6844-2.1427a72.2321,72.2321,0,0,0-7.7535-2.4809,50.1277,50.1277,0,0,0-7.0236-1.4329,7.4378,7.4378,0,0,0-.6115,2.5023,14.1251,14.1251,0,0,0-.0772,3.68c.1021.5983.2508.67.2522.67.5274.1971,2.2568.6845,3.93,1.1555,2.4077.6782,3.5666,1.0114,3.7907,1.1344a.3351.3351,0,0,1,.1743.2639c.0256.2681-.1921.46-1.1178,1.2314-1.3059,1.0879-3.7365,3.1127-3.3584,4.46a9.6506,9.6506,0,0,0,1.9778,2.9193c1.2854,1.5165,2.6144,3.0846,2.3021,4.5689a2.9077,2.9077,0,0,1-1.4106,1.85,5.7116,5.7116,0,0,1-4.2.6154,3.2976,3.2976,0,0,1-1.16-.5425,5.09,5.09,0,0,1-1.7581-2.3909,1.9241,1.9241,0,0,0-.1977-.4181,20.4261,20.4261,0,0,0-2.9927.1711C74.7271,41.83,74.0009,42.1317,73.8944,42.265Z"/><path class="cls-5" d="M37.19,243.2989q-.29.6666-2.7211,1.2421a56.5539,56.5539,0,0,1-8.6207.9058,66.83,66.83,0,0,1-9.9614-.0193q-3.3937-.3693-3.04-1.269.2905-.639,2.581-1.205a55.3241,55.3241,0,0,1,8.4967-.9277,65.7513,65.7513,0,0,1,10.1306.0009Q37.5819,242.4089,37.19,243.2989Z"/><path class="cls-54" d="M35.6382,216.2066a16.3146,16.3146,0,0,1,2.1,8.0125,20,20,0,0,1-1.7225,8.2193,21.8843,21.8843,0,0,1-5.0925,7.1139,21.0278,21.0278,0,0,1-8.0113,4.6962,3.4979,3.4979,0,0,1-2.8125-.93,9.7991,9.7991,0,0,1-2.2127-2.6655,8.19,8.19,0,0,1-1.0592-2.9114q-.19-1.3821.6481-1.67.5735-.1843,2.1062-.7078a3.3471,3.3471,0,0,0,1.9243-1.2374,11.2345,11.2345,0,0,1-7.7377-4.06,11.5754,11.5754,0,0,1-2.8349-8.3807,11.1369,11.1369,0,0,1,3.9112-8.1457,14.28,14.28,0,0,1,15.4571-2.2611A11.6592,11.6592,0,0,1,35.6382,216.2066ZM24.9757,225.35q2.1381-.7056,1.6107-3.341t-2.829-2.524q-2.3005.1112-2.3389,2.7906a3.4928,3.4928,0,0,0,.9748,2.5464A2.2513,2.2513,0,0,0,24.9757,225.35Z"/><path class="cls-4" d="M31.8551,217.3423c-.5322.7208-2.0162.526-3.3144-.4354s-1.9188-2.3253-1.3864-3.046,2.0162-.5262,3.3142.4353S32.3878,216.6213,31.8551,217.3423Z"/><path class="cls-4" d="M34.1144,220.5927c-.3536.2752-1.0415-.02-1.5366-.6583s-.6092-1.38-.2555-1.654,1.0416.02,1.5363.6584S34.4681,220.3178,34.1144,220.5927Z"/><path class="cls-55" d="M18.2714,214.1217c3.7065-2.241,7.5838-1.4669,7.234.1323-.5755,2.63-7.1761,1.1669-9.3156,5.1409S12.9422,217.3434,18.2714,214.1217Z"/><path class="cls-55" d="M15,225.8539c.9884-.078.5219-4.9906-.8764-4.76S13.4059,225.979,15,225.8539Z"/><path class="cls-56" d="M15.7127,225.9888c1.4272-1.5738,4.0223,2.523,8.6074,2.6416s5.4533-3.8176,7.2087-5.2733c3.9142-3.2462,5.755,3.2888,3.2926,8.5031s-10.9842,11.4-12.54,10.7954-5.2631-4.5645-2.6383-5.4773c5.6716-1.972,5.3881-4.3362,2.8256-4.722S12.975,229.0081,15.7127,225.9888Z"/><path class="cls-57" d="M22.3508,237.0477c1.3407-.7072-.5789,2.0659,2.8928.2s5.7757-3.3358,5.3332-1.9555-6.33,5.91-8.0548,5.3141S19.87,238.3565,22.3508,237.0477Z"/><path class="cls-57" d="M32.2418,229.7342c-.9914-.4828-3.2085,4.058.0911,3.7605C33.5455,233.3855,33.5279,230.361,32.2418,229.7342Z"/><path class="cls-58" d="M22.6387,243.0742c-1.0758.0519-3.0858-2.0628-3.6054-2.9782-.4232-.7441-1.3812-2.5448-1.1377-3.19a.4773.4773,0,0,1,.2933-.2914l.01-.0029a26.7061,26.7061,0,0,0,3.9045-1.5354,4.6423,4.6423,0,0,0,1.2661-1.0759,16.9948,16.9948,0,0,1-4.4769-1.44,12.9234,12.9234,0,0,1-4.2539-2.9667,10.7072,10.7072,0,0,1-2.612-7.72,10.314,10.314,0,0,1,3.608-7.5115A13.0982,13.0982,0,0,1,29.81,212.29a10.7848,10.7848,0,0,1,4.9163,4.5391,14.9851,14.9851,0,0,1,1.922,7.3293,18.3118,18.3118,0,0,1-1.5692,7.49,20.0092,20.0092,0,0,1-4.6335,6.4734,22.3812,22.3812,0,0,1-7.6791,4.9334.2859.2859,0,0,1-.0509.012C22.69,243.0705,22.6647,243.0729,22.6387,243.0742Zm-4.2-5.92a7.89,7.89,0,0,0,1.1063,2.65c.5305.9339,2.3749,2.7147,3.0657,2.6814h.0021a21.5091,21.5091,0,0,0,7.4288-4.7923A19.4276,19.4276,0,0,0,34.54,231.41a17.7232,17.7232,0,0,0,1.5192-7.25,14.4052,14.4052,0,0,0-1.8458-7.0415,10.2093,10.2093,0,0,0-4.6507-4.2941A12.5112,12.5112,0,0,0,16.02,214.8079a9.7438,9.7438,0,0,0-3.4055,7.0966,10.1362,10.1362,0,0,0,2.472,7.3068c1.8126,2.1279,6.1544,4.0057,8.8252,4.2629a.2947.2947,0,0,1,.23.4352,4.7928,4.7928,0,0,1-1.7419,1.6768A25.9226,25.9226,0,0,1,18.4384,237.1538Z"/><path class="cls-58" d="M28.12,222.0386a4.8177,4.8177,0,0,0-2.1483-3.52,3.3328,3.3328,0,0,0-2.0442-.6039,4.2044,4.2044,0,0,0-1.9915.6785l-.0059.0037c-1.72,1.1215-2.2321,2.9036-1.52,5.2966.6391,2.1533,1.9664,3.197,3.944,3.1014h0a5.9581,5.9581,0,0,0,.6964-.0764,3.44,3.44,0,0,0,2.4864-1.3721A5.0018,5.0018,0,0,0,28.12,222.0386Zm-1.0517,3.1094a2.9,2.9,0,0,1-2.1,1.1257l-.0079.0013a5.449,5.449,0,0,1-.6375.0706h0c-1.7031.082-2.8-.7847-3.354-2.65-.6217-2.0918-.2094-3.576,1.2616-4.5363a3.6712,3.6712,0,0,1,1.7287-.5954,2.7926,2.7926,0,0,1,1.7108.51,4.124,4.124,0,0,1,1.867,3.05A4.3524,4.3524,0,0,1,27.0681,225.148Z"/></g><rect class="cls-1" x="-0.5404" y="-0.4861" width="188.8539" height="255.7397" rx="10.4509"/><g class="cls-59"><g class="cls-60"><circle class="cls-61" cx="206.6607" cy="395.0742" r="244.1011"/></g><g class="cls-62"><path class="cls-63" d="M134.0966,207.7963h0a35.1023,35.1023,0,0,1,35.1023,35.1023v112.57a0,0,0,0,1,0,0H98.9943a0,0,0,0,1,0,0v-112.57A35.1023,35.1023,0,0,1,134.0966,207.7963Z" transform="translate(-147.5357 415.729) rotate(-90)"/><path class="cls-64" d="M-25.0775,304.5375h52.485v-52.485A52.4849,52.4849,0,0,0-25.0775,304.5375Z"/><rect class="cls-65" x="79.9258" y="275.2167" width="60.4117" height="10.4855" transform="translate(-170.3279 390.5911) rotate(-90)"/></g></g><g class="cls-66"><g class="cls-67"><circle class="cls-61" cx="411.8509" cy="395.0742" r="244.1011"/></g><g class="cls-68"><path class="cls-64" d="M180.1128,304.5375h52.4849v-52.485A52.4848,52.4848,0,0,0,180.1128,304.5375Z"/></g></g><g class="cls-69"><g class="cls-70"><circle class="cls-61" cx="411.8509" cy="125.7103" r="244.1011"/><circle class="cls-71" cx="222.3857" cy="156.6153" r="36.5071"/></g><g class="cls-72"><path class="cls-73" d="M152.6506,123.463a41.4544,41.4544,0,0,0,82.9087,0Z"/><path class="cls-65" d="M190.6485,57.3257a28.7987,28.7987,0,1,0,28.7986,28.7987A28.7986,28.7986,0,0,0,190.6485,57.3257Zm0,46.6028a17.8042,17.8042,0,1,1,17.8042-17.8041A17.8041,17.8041,0,0,1,190.6485,103.9285Z"/><path class="cls-64" d="M180.1128,35.1736h52.4849V-17.3115A52.4849,52.4849,0,0,0,180.1128,35.1736Z"/><polygon class="cls-63" points="214.509 228.854 229.355 212.41 228.225 234.536 250.35 233.406 233.906 248.252 250.35 263.098 228.225 261.968 229.355 284.093 214.509 267.649 199.663 284.093 200.793 261.968 178.667 263.098 195.111 248.252 178.667 233.406 200.793 234.536 199.663 212.41 214.509 228.854"/></g></g></g></svg>