<?xml version="1.0" encoding="utf-8"?>
<!-- Generator: Adobe Illustrator 24.0.3, SVG Export Plug-In . SVG Version: 6.00 Build 0)  -->
<svg version="1.1" id="Layer_1" xmlns="http://www.w3.org/2000/svg" xmlns:xlink="http://www.w3.org/1999/xlink" x="0px" y="0px"
	 viewBox="0 0 146 125.3" style="enable-background:new 0 0 146 125.3;" xml:space="preserve">
<style type="text/css">
	.st0{fill:#FFFFFF;}
	.st1{fill:none;stroke:#2E3191;stroke-width:3;stroke-miterlimit:10;}
	.st2{fill:#CC345F;}
	.st3{fill:#A345DB;}
	.st4{fill:#5C9C58;}
</style>
<title>Asset 115</title>
<g id="Layer_2_1_">
	<g id="menu_-_lvl_2">
		<g id="LVL2">
			<g id="next_lvl">
				<path class="st0" d="M139.7,50.8c8,21.3,9.2,55.4-21.4,67.5S19.1,125.1,2.9,79.7C-12,38.3,99.7-56.2,139.7,50.8z"/>
				<path class="st1" d="M139.7,50.8c8,21.3,9.2,55.4-21.4,67.5S19.1,125.1,2.9,79.7C-12,38.3,99.7-56.2,139.7,50.8z"/>
			</g>
		</g>
		<path class="st2" d="M48.6,44.1c1.9-0.4,8.6-1.3,9.3-0.8c0.3,0.3,0.9,2.5,1.8,6.6l1,4.5c0.5,2.5,0.9,4.6,1.3,6.4
			c2.3,10.8,3.4,16.7,3.4,17.6c-0.1,1.2-1.1,2.2-2.3,2.3l-3.5,0.6C58.1,81.8,56.5,82,55,82c-1.5,0-1.8-0.9-2.2-2.9l-0.9-4.8
			c-0.6-3.2-1.3-6.5-2-10c-1.1-5.1-1.8-7.7-1.9-7.8c-0.1-0.1-0.7,0.4-1.5,1.4c-1.8,1.9-2.4,2.4-4.1,1.3c-1.9-1.3-2.9-2.4-3.1-3.3
			c-0.3-1.6,5.3-8.8,7.5-11.1C47.2,44.4,47.9,44.2,48.6,44.1z"/>
		<path class="st3" d="M93.3,21c4.1,0.9,7.8,3.2,10.3,6.6c1.9,2.9,2.5,6.4,1.7,9.7c-0.8,3.9-3.2,7.4-9.4,10.5
			c-2.4,1.2-3.6,1.9-3.7,2.1l0.1,0.1l0.1,0c0.1,0,1.2,0.2,3.4,0.4c1.4,0.2,2.6,0.3,3.4,0.5c2.5,0.5,3.1,1.4,2.9,3.8
			c-0.1,1.1-0.2,2.2-0.5,3.3c-0.4,2-0.8,3.2-1.2,3.5c-0.6,0.4-6.6-0.7-18.1-3l-11.7-2.3l-0.4-0.8c-0.3-1-0.3-2,0-3
			c1.5-7.1,2.8-6.9,11.3-9.8c5.9-2,8.6-3.5,10.6-6c0.5-0.6,0.9-1.2,1.1-2c0.2-1.3-0.5-2.5-1.6-3c-0.6,0-1.2,0.1-1.7,0.2
			c-1.1,0.3-2.1,0.9-2.9,1.7c-0.6,0.6-1.3,1.1-2.1,1.5L84.8,35l-0.2,0c-1.6-0.3-5.7-4.1-6.5-5.7c-0.2-0.4-0.2-0.8-0.2-1.3
			c0.2-0.6,0.6-1.2,1-1.8c2.6-3.4,6.7-5.4,11-5.5C91.1,20.6,92.2,20.7,93.3,21z"/>
		<path class="st4" d="M84.3,65.5c1.7,0.3,3.3,0.8,4.9,1.6c3.5,1.9,5.7,4.5,6.5,7.6c0.2,1.2,0.2,2.3,0,3.5c-0.3,2.3-1.8,4.3-3.9,5.3
			L90,84.6l1.3,1.2c2.3,2,3.5,5.1,3.1,8.1c0,0.1,0,0.3,0,0.4l-0.1,0.5c-0.9,4.4-4.6,7.5-9.9,8.4c-2.4,0.5-4.9,0.4-7.3-0.1
			c-5.6-1.1-12.5-6.4-12-8.7c0.3-1.3,4.7-6.3,5.6-6.2l0.1,0c0.8,0.4,1.5,0.9,2.2,1.5c1.5,1.3,3.3,2.2,5.3,2.7c2.2,0.4,4-0.1,4.3-1.3
			c0.3-1.5-1.9-3.1-4.8-3.7c-0.5-0.1-1-0.2-1.5-0.4c-0.6-0.1-1.2-0.5-1.2-1.1c0-0.4,0.1-0.8,0.2-1.2c0-0.3,0.1-0.5,0.2-0.8l0.2-0.9
			c0.8-3.6,0.9-3.8,3.8-3.5c2.9,0.2,4.4-0.3,4.7-1.6c0.1-0.2,0.1-0.4,0-0.6c-0.1-1-1.1-1.8-3-2.1c-1.1-0.2-2.3-0.2-3.4,0.1
			c-0.6,0.3-1.3,0.4-2,0.4c-0.1,0-0.3-0.1-0.4-0.4c-0.5-2.7-0.7-5.5-0.8-8.2c0.1-0.6,0.9-1.1,2.3-1.4c1.5-0.4,3.1-0.6,4.7-0.7
			C82.3,65.2,83.3,65.3,84.3,65.5z"/>
	</g>
</g>
</svg>
