<svg id="menu_-_lvl_1" data-name="menu - lvl 1" xmlns="http://www.w3.org/2000/svg" width="3.2535cm" height="2.7832cm" viewBox="0 0 92.225 78.8947"><defs><style>.cls-1{fill:#fff;}.cls-2{fill:#cc345f;}.cls-3{fill:#a345db;}.cls-4{fill:#5c9c58;}</style></defs><title>Artboard 17</title><g id="LVL2"><g id="next_lvl" data-name="next lvl"><path class="cls-1" d="M3.105,47.13c-5.1395-13.74-5.9292-35.7039,13.8146-43.52S80.8645-.7841,91.3524,28.4578C100.9405,55.191,28.91,116.118,3.105,47.13Z"/></g></g><path class="cls-2" d="M27.135,26.1856c1.2167-.2643,5.576-.8325,6.0251-.5042a20.2587,20.2587,0,0,1,1.1628,4.2775l.6351,2.9286c.297,1.5868.59,2.94.8444,4.1116,1.47,6.9941,2.1912,10.7543,2.1827,11.369a1.6672,1.6672,0,0,1-1.4676,1.4977l-2.2728.3991a14.12,14.12,0,0,1-2.988.3641c-.95-.03-1.158-.55-1.4415-1.8578l-.574-3.0843c-.3949-2.0358-.8192-4.21-1.2981-6.4186a39.2361,39.2361,0,0,0-1.24-5.0618c-.0548-.0361-.4214.2321-.9892.8749-1.1919,1.25-1.5586,1.5169-2.6554.812q-1.8383-1.3014-2.0146-2.1119c-.2247-1.0364,3.39-5.69,4.8234-7.1317A3.0036,3.0036,0,0,1,27.135,26.1856Z"/><path class="cls-3" d="M55.9744,11.253A10.9859,10.9859,0,0,1,62.618,15.52a8.032,8.032,0,0,1,1.09,6.26c-.53,2.5284-2.0342,4.7559-6.0864,6.78a10.0208,10.0208,0,0,0-2.354,1.3438l.0356.0547.0908.0185c.045.01.7749.1162,2.2027.2744q1.3835.148,2.1953.3184c1.625.3408,1.9814.8877,1.895,2.4238a15.7324,15.7324,0,0,1-.3091,2.1494c-.2744,1.3086-.5263,2.0576-.7993,2.2354-.3823.25-4.2471-.419-11.6577-1.9258l-7.5562-1.49-.2656-.5274a3.31,3.31,0,0,1,.0269-1.9258c.9555-4.5586,1.7871-4.4785,7.2671-6.3447,3.8007-1.2764,5.5644-2.2725,6.8369-3.8428a2.943,2.943,0,0,0,.6894-1.27,1.8955,1.8955,0,0,0-1.0488-1.9629,4.6661,4.6661,0,0,0-1.1133.1436,4.2072,4.2072,0,0,0-1.8833,1.1132,5.9419,5.9419,0,0,1-1.3286.9463l-.0547.0352-.1357-.0283c-1.0381-.2178-3.6924-2.6123-4.17-3.7022a1.4667,1.4667,0,0,1-.11-.8232,3.7055,3.7055,0,0,1,.6621-1.1328,9.1885,9.1885,0,0,1,7.1045-3.5518A7.5824,7.5824,0,0,1,55.9744,11.253Z"/><path class="cls-4" d="M50.1733,40.0073A11.5258,11.5258,0,0,1,53.31,41.0132a8.09,8.09,0,0,1,4.1934,4.8848,5.2774,5.2774,0,0,1-.0283,2.2519A4.4867,4.4867,0,0,1,54.95,51.5952l-1.1309.7129.8311.7774a6.0806,6.0806,0,0,1,2.0048,5.248.803.803,0,0,0-.0087.2793l-.0635.3164c-.5713,2.8477-2.9424,4.8184-6.3975,5.3965a12.0941,12.0941,0,0,1-4.6933-.0488c-3.6172-.7246-8.0645-4.1114-7.7647-5.6035.1719-.8575,3.0225-4.0489,3.62-3.9766l.0449.01a9.568,9.568,0,0,1,1.41.9414A8.5818,8.5818,0,0,0,46.21,57.4136c1.4014.2812,2.6045-.09,2.75-.8125.19-.9492-1.2471-1.99-3.1006-2.3613a5.441,5.441,0,0,1-.9853-.2461c-.3623-.0723-.7783-.3438-.751-.7149a3.34,3.34,0,0,1,.1094-.7773,2.5611,2.5611,0,0,1,.1445-.4883l.1182-.5879c.5175-2.3418.58-2.4238,2.4345-2.2871s2.8672-.2246,3.03-1.0371a.8758.8758,0,0,0,.0264-.3711c-.0528-.668-.7129-1.1309-1.9336-1.377a4.8374,4.8374,0,0,0-2.2246.0723,3.446,3.446,0,0,1-1.2754.2617c-.0908-.0175-.1729-.082-.28-.2441a33.3128,33.3128,0,0,1-.4853-5.3184c.0722-.3613.5605-.6875,1.456-.93a12.25,12.25,0,0,1,3.0029-.4336A11.2106,11.2106,0,0,1,50.1733,40.0073Z"/></svg>