<?xml version="1.0" encoding="UTF-8" standalone="no"?>
<svg
   width="2400"
   height="1350"
   viewBox="0 0 2400 1350"
   version="1.1"
   id="svg8255"
   sodipodi:docname="background.svg"
   inkscape:version="1.2.1 (9c6d41e410, 2022-07-14)"
   xmlns:inkscape="http://www.inkscape.org/namespaces/inkscape"
   xmlns:sodipodi="http://sodipodi.sourceforge.net/DTD/sodipodi-0.dtd"
   xmlns:xlink="http://www.w3.org/1999/xlink"
   xmlns="http://www.w3.org/2000/svg"
   xmlns:svg="http://www.w3.org/2000/svg"
   xmlns:rdf="http://www.w3.org/1999/02/22-rdf-syntax-ns#"
   xmlns:cc="http://creativecommons.org/ns#"
   xmlns:dc="http://purl.org/dc/elements/1.1/">
  <sodipodi:namedview
     id="namedview8257"
     pagecolor="#ffffff"
     bordercolor="#000000"
     borderopacity="0.25"
     inkscape:showpageshadow="2"
     inkscape:pageopacity="0.0"
     inkscape:pagecheckerboard="0"
     inkscape:deskcolor="#d1d1d1"
     showgrid="false"
     inkscape:zoom="0.41650132"
     inkscape:cx="1122.4454"
     inkscape:cy="698.67726"
     inkscape:window-width="1920"
     inkscape:window-height="1017"
     inkscape:window-x="-8"
     inkscape:window-y="-8"
     inkscape:window-maximized="1"
     inkscape:current-layer="svg8255"
     showguides="false" />
  <defs
     id="defs7580">
    <clipPath
       id="clip-path">
      <rect
         x="2.5676999"
         y="-4.1897001"
         width="2044.2332"
         height="1429.7129"
         style="fill:none"
         id="rect7527" />
    </clipPath>
    <linearGradient
       id="_ÂÁ_Ï_ÌÌ_È_ËÂÌÚ_30"
       x1="973.72803"
       y1="217.1114"
       x2="1279.8972"
       y2="405.211"
       gradientUnits="userSpaceOnUse">
      <stop
         offset="0.1606"
         stop-color="#772d28"
         id="stop7536" />
      <stop
         offset="0.3449"
         stop-color="#8e3930"
         id="stop7538" />
      <stop
         offset="1"
         stop-color="#d2603c"
         id="stop7540" />
    </linearGradient>
    <linearGradient
       id="_ÂÁ_Ï_ÌÌ_È_ËÂÌÚ_33"
       x1="975.55811"
       y1="312.90219"
       x2="1143.3853"
       y2="444.72739"
       gradientUnits="userSpaceOnUse">
      <stop
         offset="0.0135"
         stop-color="#772d28"
         id="stop7543" />
      <stop
         offset="0.1554"
         stop-color="#7d302a"
         id="stop7545" />
      <stop
         offset="0.5915"
         stop-color="#8a372e"
         id="stop7547" />
      <stop
         offset="1"
         stop-color="#8e3930"
         id="stop7549" />
    </linearGradient>
    <linearGradient
       id="_ÂÁ_Ï_ÌÌ_È_ËÂÌÚ_30-2"
       x1="828.7381"
       y1="472.54099"
       x2="1247.8842"
       y2="730.0495"
       xlink:href="#_%C3%82%C3%81_%C3%8F_%C3%8C%C3%8C_%C3%88_%C3%8B%C3%82%C3%8C%C3%9A_30" />
    <linearGradient
       id="_ÂÁ_Ï_ÌÌ_È_ËÂÌÚ_30-3"
       x1="937.97528"
       y1="496.49539"
       x2="737.89569"
       y2="766.1582"
       xlink:href="#_%C3%82%C3%81_%C3%8F_%C3%8C%C3%8C_%C3%88_%C3%8B%C3%82%C3%8C%C3%9A_30" />
    <linearGradient
       id="_ÂÁ_Ï_ÌÌ_È_ËÂÌÚ_12"
       x1="1231.5668"
       y1="673.64398"
       x2="1270.8306"
       y2="1060.5385"
       gradientUnits="userSpaceOnUse">
      <stop
         offset="0.2666"
         stop-color="#bb492f"
         id="stop7554" />
      <stop
         offset="0.8134"
         stop-color="#a03c2b"
         id="stop7556" />
    </linearGradient>
    <linearGradient
       id="_ÂÁ_Ï_ÌÌ_È_ËÂÌÚ_10"
       x1="886.21033"
       y1="1079.295"
       x2="886.21033"
       y2="558.34888"
       gradientUnits="userSpaceOnUse">
      <stop
         offset="0.1829"
         stop-color="#bb492f"
         id="stop7559" />
      <stop
         offset="0.8134"
         stop-color="#d2603c"
         id="stop7561" />
    </linearGradient>
    <linearGradient
       id="_ÂÁ_Ï_ÌÌ_È_ËÂÌÚ_10-2"
       x1="664.55438"
       y1="1079.3604"
       x2="664.55438"
       y2="558.34888"
       xlink:href="#_%C3%82%C3%81_%C3%8F_%C3%8C%C3%8C_%C3%88_%C3%8B%C3%82%C3%8C%C3%9A_10" />
    <linearGradient
       id="_ÂÁ_Ï_ÌÌ_È_ËÂÌÚ_12-2"
       x1="-2274.3308"
       y1="-526.58221"
       x2="-1997.9337"
       y2="-526.58221"
       gradientTransform="rotate(136.2115,-523.83111,697.56738)"
       xlink:href="#_%C3%82%C3%81_%C3%8F_%C3%8C%C3%8C_%C3%88_%C3%8B%C3%82%C3%8C%C3%9A_12" />
    <linearGradient
       id="_ÂÁ_Ï_ÌÌ_È_ËÂÌÚ_12-3"
       x1="1105.3553"
       y1="554.34039"
       x2="1383.4994"
       y2="554.34039"
       xlink:href="#_%C3%82%C3%81_%C3%8F_%C3%8C%C3%8C_%C3%88_%C3%8B%C3%82%C3%8C%C3%9A_12" />
    <linearGradient
       id="_ÂÁ_Ï_ÌÌ_È_ËÂÌÚ_12-4"
       x1="1230.0594"
       y1="673.56873"
       x2="1269.3973"
       y2="1061.1914"
       xlink:href="#_%C3%82%C3%81_%C3%8F_%C3%8C%C3%8C_%C3%88_%C3%8B%C3%82%C3%8C%C3%9A_12" />
    <linearGradient
       id="_ÂÁ_Ï_ÌÌ_È_ËÂÌÚ_10-3"
       x1="884.05292"
       y1="1079.9833"
       x2="884.05292"
       y2="558.05652"
       xlink:href="#_%C3%82%C3%81_%C3%8F_%C3%8C%C3%8C_%C3%88_%C3%8B%C3%82%C3%8C%C3%9A_10" />
    <linearGradient
       id="_ÂÁ_Ï_ÌÌ_È_ËÂÌÚ_7"
       x1="762.54498"
       y1="654.6286"
       x2="1312.0504"
       y2="246.0475"
       gradientUnits="userSpaceOnUse">
      <stop
         offset="0.2801"
         stop-color="#e27244"
         id="stop7569" />
      <stop
         offset="0.8134"
         stop-color="#f2794e"
         id="stop7571" />
    </linearGradient>
    <radialGradient
       id="radial-gradient"
       cx="223.35091"
       cy="410.99951"
       r="59.925201"
       gradientTransform="matrix(1,0,0,-1,0,1422)"
       gradientUnits="userSpaceOnUse">
      <stop
         offset="0"
         stop-color="#ff6163"
         id="stop7574" />
      <stop
         offset="1"
         stop-color="#c62020"
         id="stop7576" />
    </radialGradient>
    <radialGradient
       id="radial-gradient-2"
       cx="160.0694"
       cy="217.8264"
       r="67.1362"
       xlink:href="#radial-gradient" />
  </defs>
  <title
     id="title7582">sinaisthimata-2</title>
  <rect
     x="0.25490001"
     y="-0.26800001"
     width="2399.6572"
     height="1351.246"
     style="fill:#3d69d8;stroke-width:1.05602"
     id="rect7584" />
  <g
     clip-path="url(#clip-path)"
     id="g7626"
     transform="matrix(1.1738278,0,0,0.9509915,-2.8055209,-0.06251138)">
    <g
       style="opacity:0.75"
       id="g7588">
      <path
         d="m 375.3206,1191.23 c -0.0278,0.01 -0.0564,0.016 -0.0849,0.023 a 1.1167,1.1167 0 0 1 -1.2985,-1.0053 c -9.3418,-53.599 -39.01,-101.8874 -79.36,-129.168 -40.35,-27.2834 -90.7933,-33.201 -134.9007,-15.7046 -0.3236,0.1255 -0.6491,0.2568 -0.9767,0.389 a 116.0236,116.0236 0 0 1 9.1683,19.0646 c 4.3851,11.7111 8.848,29.44 5.2079,47.3973 -3.4389,16.977 -14.3364,30.7734 -27.134,34.1715 -10.6882,2.8963 -20.6992,-1.0908 -28.1895,-11.2321 -9.16,-12.4007 -12.222,-31.2456 -7.446,-45.8244 7.8552,-23.9761 27.9973,-37.4889 44.8817,-44.8442 -16.7143,-26.0288 -43.1191,-42.4276 -72.8453,-44.1966 -35.1129,-2.0906 -65.9653,17.1661 -82.5342,51.513 a 1.014,1.014 0 0 1 -1.4993,0.487 1.4217,1.4217 0 0 1 -0.4145,-1.7622 c 16.9879,-35.2141 48.6006,-54.96 84.5581,-52.8219 30.6321,1.8248 57.8223,18.859 74.9,45.8628 0.5447,-0.2266 1.0851,-0.4438 1.6208,-0.6569 44.7351,-17.6355 95.8129,-11.7332 136.7007,15.9145 40.8878,27.6477 70.9514,76.5774 80.4182,130.8909 a 1.325,1.325 0 0 1 -0.7721,1.5022 z M 156.5447,1046.6651 c -16.5631,7.1072 -36.53,20.24 -44.1864,43.6046 -4.4959,13.7247 -1.5947,31.4914 7.0551,43.2 6.9313,9.3848 16.1763,13.08 26.0334,10.41 11.9929,-3.3016 22.238,-16.2121 25.4895,-32.2532 3.4976,-17.2571 -0.8335,-34.4079 -5.0831,-45.7579 a 113.1781,113.1781 0 0 0 -9.3085,-19.2035 z"
         style="fill:#ffffff"
         id="path7586" />
    </g>
    <g
       style="opacity:0.75"
       id="g7592">
      <path
         d="m 1136.5571,1425.9776 c 9.4668,-54.3135 39.53,-103.2432 80.4181,-130.8909 40.8881,-27.6477 91.9657,-33.55 136.7007,-15.9145 0.5358,0.2131 1.0761,0.43 1.6209,0.6569 17.0775,-27.0038 44.2677,-44.038 74.9,-45.8628 35.9576,-2.1381 67.57,17.6077 84.5581,52.8219 a 1.4218,1.4218 0 0 1 -0.4144,1.7622 1.014,1.014 0 0 1 -1.4993,-0.487 c -16.5689,-34.347 -47.4216,-53.6041 -82.5338,-51.5132 -29.7261,1.769 -56.131,18.1678 -72.8454,44.1966 16.8845,7.3553 37.0266,20.8681 44.8818,44.8442 4.776,14.5788 1.7141,33.4236 -7.446,45.8244 -7.49,10.1413 -17.5013,14.1284 -28.1894,11.2321 -12.7976,-3.3981 -23.6951,-17.1945 -27.134,-34.1715 -3.64,-17.9571 0.8226,-35.6862 5.2078,-47.3974 a 116.0278,116.0278 0 0 1 9.1684,-19.0646 c -0.3277,-0.1321 -0.6532,-0.2634 -0.9767,-0.3889 -44.1074,-17.4964 -94.5506,-11.5788 -134.9007,15.7046 -40.3507,27.2805 -70.0187,75.5689 -79.3606,129.168 a 1.1167,1.1167 0 0 1 -1.2985,1.0053 c -0.028,-0.01 -0.057,-0.014 -0.085,-0.023 a 1.3249,1.3249 0 0 1 -0.7721,-1.502 z m 210.2393,-123.8591 c -4.25,11.35 -8.5807,28.5008 -5.0831,45.7579 3.2516,16.041 13.4967,28.9516 25.49,32.2531 9.8571,2.67 19.102,-1.0249 26.0335,-10.41 8.65,-11.709 11.5509,-29.4756 7.055,-43.2 -7.6563,-23.3647 -27.6233,-36.4974 -44.1863,-43.6047 a 113.18,113.18 0 0 0 -9.3091,19.2037 z"
         style="fill:#ffffff"
         id="path7590" />
    </g>
    <path
       d="m 901.4426,571.5564 c -4.2562,0 -7.7188,-4.07 -7.7188,-9.0713 0,-5.0013 3.4626,-9.0713 7.7188,-9.0713 4.2562,0 7.7183,4.0694 7.7183,9.0713 0,5.0019 -3.4626,9.0713 -7.7183,9.0713 z m 0,-17.5207 c -3.9644,0 -7.1894,3.79 -7.1894,8.4494 0,4.6594 3.225,8.4494 7.1894,8.4494 3.9644,0 7.1891,-3.79 7.1891,-8.4494 0,-4.6594 -3.2248,-8.4494 -7.1891,-8.4494 z"
       style="fill:#ffffff"
       id="path7594" />
    <path
       d="m 685.9283,452.5174 c -5.4812,0 -5.49,10.0118 0,10.0118 5.4817,0 5.4903,-10.0118 0,-10.0118 z"
       style="fill:#ffffff"
       id="path7596" />
    <path
       d="m 569.121,551.51 c -5.4812,0 -5.49,10.0118 0,10.0118 5.4812,-3e-4 5.4904,-10.0118 0,-10.0118 z"
       style="fill:#ffffff"
       id="path7598" />
    <path
       d="m 602.9251,1143.0933 a 4.7613,4.7613 0 0 0 -4.2592,5.0059 v 3.5516 c 0,2.6183 1.959,5.1269 4.2592,5.0059 a 4.7615,4.7615 0 0 0 4.2592,-5.0059 v -3.5516 c 0,-2.6184 -1.9591,-5.127 -4.2592,-5.0059 z"
       style="fill:#ffffff"
       id="path7600" />
    <path
       d="m 1524.5659,1207.0207 c -5.4812,0 -5.49,10.0118 0,10.0118 5.4813,0 5.4903,-10.0118 0,-10.0118 z"
       style="fill:#ffffff"
       id="path7602" />
    <path
       d="m 1312.9249,762.24 c -5.4813,0 -5.49,10.0118 0,10.0118 5.4812,4e-4 5.4904,-10.0118 0,-10.0118 z"
       style="fill:#ffffff"
       id="path7604" />
    <path
       d="m 1352.2079,832.2222 c -2.7406,0 -2.745,5.0059 0,5.0059 2.7407,0 2.7451,-5.0059 0,-5.0059 z"
       style="fill:#ffffff"
       id="path7606" />
    <path
       d="m 1632.2026,810.5259 c -3.9,0 -3.9066,7.124 0,7.124 3.9002,10e-5 3.9066,-7.124 0,-7.124 z"
       style="fill:#ffffff"
       id="path7608" />
    <path
       d="m 1439.9563,1337.3782 c -2.7406,0 -2.7453,5.0059 0,5.0059 2.7406,0 2.7451,-5.0059 0,-5.0059 z"
       style="fill:#ffffff"
       id="path7610" />
    <path
       d="m 533.4242,1220.1782 c -2.7406,0 -2.7451,5.0059 0,5.0059 2.7407,0 2.7452,-5.0059 0,-5.0059 z"
       style="fill:#ffffff"
       id="path7612" />
    <path
       d="m 779.6033,536.7052 c -2.7407,0 -2.7451,5.0059 0,5.0059 2.7406,0 2.7451,-5.0059 0,-5.0059 z"
       style="fill:#ffffff"
       id="path7614" />
    <path
       d="m 640.6977,570.0759 c -2.7405,0 -2.745,5.0059 0,5.0059 2.7406,0 2.7452,-5.0059 0,-5.0059 z"
       style="fill:#ffffff"
       id="path7616" />
    <path
       d="m 709.6285,622.2245 a 1.5951,1.5951 0 0 0 -0.6853,-0.5175 1.4112,1.4112 0 0 0 -0.8206,-0.2155 2.0033,2.0033 0 0 0 -1.5058,0.733 2.8515,2.8515 0 0 0 -0.6238,1.77 v 3.5514 a 2.83,2.83 0 0 0 0.6238,1.77 1.5942,1.5942 0 0 0 0.6854,0.5175 1.41,1.41 0 0 0 0.82,0.2155 2.003,2.003 0 0 0 1.5059,-0.733 2.851,2.851 0 0 0 0.6237,-1.77 v -3.5514 a 2.8307,2.8307 0 0 0 -0.6233,-1.77 z"
       style="fill:#ffffff"
       id="path7618" />
    <path
       d="m 1382.4257,569.41 c -2.7406,0 -2.7451,5.0059 0,5.0059 2.7407,0 2.7451,-5.0059 0,-5.0059 z"
       style="fill:#ffffff"
       id="path7620" />
    <path
       d="m 540.3743,1419.7722 -39.8042,-0.1677 H 2.7256 L 2.5677,996.6393 c -0.0021,-5.8558 29.1548,8.7931 30.521,9.673 a 122.6524,122.6524 0 0 1 29.2218,26.0725 c 3.2291,4.0146 27.8262,44.334 21.1558,48.2172 a 83.8,83.8 0 0 1 81.5109,-1.0226 c 25.0872,13.793 42.8473,41.36 45.73,70.98 16.8178,-7.6514 35.9419,-11.9815 53.49,-6.4327 17.5481,5.5488 32.5771,24.45 31.0246,43.6542 40.428,-26.6618 133.2847,-3.3305 175.6641,19.7358 38.4792,20.9435 93.6772,62.1317 110.684,176.2772 a 43.589,43.589 0 0 1 27.479,-3.5547 c 18.9661,3.8537 34.6787,17.8472 38.93,39.2917 z"
       style="fill:#9fbff4"
       id="path7622" />
    <path
       d="m 1509.1871,1419.7722 39.8043,-0.1677 h 497.8444 l 0.1579,-422.9652 c 0,-5.8558 -29.1548,8.7931 -30.521,9.673 a 122.6524,122.6524 0 0 0 -29.2218,26.0725 c -3.2291,4.0146 -27.8262,44.334 -21.1557,48.2172 a 83.8,83.8 0 0 0 -81.511,-1.0226 c -25.0872,13.793 -42.8473,41.36 -45.73,70.98 -16.8178,-7.6514 -35.9418,-11.9815 -53.49,-6.4327 -17.5482,5.5488 -32.5771,24.45 -31.0246,43.6542 -40.428,-26.6618 -133.2847,-3.3305 -175.6641,19.7358 -38.4792,20.9435 -93.6772,62.1317 -110.684,176.2772 a 43.589,43.589 0 0 0 -27.479,-3.5547 c -18.9661,3.8537 -34.6787,17.8472 -38.93,39.2917 z"
       style="fill:#9fbff4"
       id="path7624" />
  </g>
  <path
     d="m 898.1877,1118.2649 c 144.2147,50.2854 318.5179,37.9476 468.0347,10.9352 93.0307,-16.824 179.2598,-47.0141 265.0277,-80.2883 119.3143,-46.3596 238.283,-88.98069 367.8573,-113.09517 110.899,-20.65621 227.9083,-28.50746 339.9593,-8.97281 a 564.44713,457.64632 0 0 1 63.4037,14.39389 v 194.03809 c -111.9365,36.2653 -226.5244,63.5577 -346.2996,79.4471 -143.062,18.974 -289.3516,24.7688 -433.9121,30.19 -238.3982,8.7861 -493.9728,7.103 -718.88305,-66.5486 -99.71679,-32.62 -190.78766,-83.3726 -241.3953,-162.1655 -46.91873,-72.90414 -52.45219,-161.60465 -3.5736,-234.88288 70.20519,-105.24367 270.4453,-143.00464 394.71715,-77.76459 71.8192,37.76068 93.9527,117.95554 53.1438,178.61566 -36.3131,53.83696 -109.86144,78.60574 -182.48762,77.76459 26.05317,-14.58083 47.37988,-32.43308 59.59953,-60.19285 14.17903,-32.15267 14.87098,-71.96964 -8.64604,-101.50528 -53.60493,-67.10939 -170.49841,-30.28332 -212.92113,24.48845 -86.9213,112.16049 -1.72975,247.407 136.37526,295.543 z"
     style="opacity:0.1;isolation:isolate;fill:#ffffff;stroke-width:1.05602"
     id="path7628" />
  <path
     d="m 1645.2983,196.81171 c -42.4228,-54.77178 -159.3163,-91.59775 -212.9212,-24.48836 -23.5171,29.53555 -22.8254,69.35251 -8.646,101.50517 12.2197,27.75978 33.5464,45.61203 59.5995,60.19287 -72.6263,0.84124 -146.1745,-23.92754 -182.4876,-77.7646 -40.809,-60.66012 -18.6754,-140.85497 53.1439,-178.615662 124.2714,-65.240046 324.5118,-27.479267 394.717,77.764692 48.8786,73.27814 43.3452,161.97845 -3.5736,234.88279 -50.6077,78.79289 -141.6785,129.54547 -241.3953,162.1655 -224.9105,73.65203 -480.4849,75.33452 -718.88311,66.54855 C 640.29138,613.58178 494.0018,607.78662 350.93976,588.81272 231.1644,572.92328 116.57676,545.63096 4.6401951,509.36563 V 315.32799 A 564.4544,457.65222 0 0 1 68.043902,300.93401 c 112.051608,-19.53465 229.060368,-11.6834 339.959238,8.9728 129.57402,24.11439 248.54262,66.7355 367.8572,113.0952 85.76763,33.27433 171.99688,63.46418 265.02746,80.28833 149.5174,27.01201 323.8201,39.34971 468.0349,-10.93514 138.1048,-48.13604 223.2963,-183.383 136.3756,-295.54349 z"
     style="opacity:0.1;isolation:isolate;fill:#ffffff;stroke-width:1.05602"
     id="path7630" />
  <path
     d="m 43.5241,3.6819 c -15.0794,40.0875 -25.939,90.3521 -2.4822,127.8333 44.3072,70.6806 164.4456,22.34 215.9512,87.87 57.5869,73.2248 -51.5676,185.8548 -7.1984,300.6561 21.9675,56.9665 82.2229,115.67 230.5963,153.2757"
     style="fill:none;stroke:#ffffff;stroke-width:2.325px;stroke-miterlimit:10;stroke-dasharray:9.2999, 9.2999, 9.2999, 9.2999, 9.2999, 9.2999"
     id="path7632" />
  <path
     d="m 1719.6052,1374.9389 c 68.4444,-0.17 149.7067,-12.4091 192.4315,-68.6888 80.5273,-106.24 -59.75,-258.3891 9.0035,-372.46847 76.8083,-127.525 306.9344,-28.1989 453.3581,-159.5192 72.6859,-65.09 126.2837,-188.3782 98.4478,-431.3955"
     style="fill:none;stroke:#ffffff;stroke-width:2.325px;stroke-miterlimit:10;stroke-dasharray:9.2999, 9.2999, 9.2999, 9.2999, 9.2999, 9.2999"
     id="path7634" />
  <path
     d="m 313.67943,636.73653 19.62331,219.14583 c 0,0 141.10631,9.75494 216.3101,-18.26215 z"
     style="opacity:0.5;isolation:isolate;fill:#42210b;stroke-width:1.1343"
     id="path7636" />
  <path
     d="m 313.67943,636.73653 c 0,0 20.53074,163.22508 35.39003,205.98802 0,0 94.71363,21.43815 200.42993,-5.10434 L 526.81351,613.82378 Z"
     style="fill:#f3c460;stroke-width:1.1343"
     id="path7638" />
  <path
     d="m 317.98977,669.2908 c -2.72231,-19.50986 -4.31034,-32.44083 -4.31034,-32.44083 l 213.24749,-22.91276 3.06261,29.9454 z"
     style="fill:#f5d080;stroke-width:1.1343"
     id="path7640" />
  <path
     d="m 400.11272,750.27948 c 12.47725,-2.72231 22.6859,-14.06525 26.54252,-25.86193 3.97003,-12.02352 -3.51633,-30.28566 -18.48902,-29.15139 a 5.9405306,5.9405306 0 0 0 -5.89832,5.44462 1.1764909,1.1764909 0 0 0 -0.90744,-0.68057 c -8.84751,-2.38202 -16.33385,-2.60888 -24.1605,2.72232 a 25.308733,25.308733 0 0 0 -11.00265,23.13961 c 1.58801,16.44728 18.14873,27.90366 33.91541,24.38734 z m -20.19044,-19.85017 c -9.52808,-13.27125 6.69234,-29.94538 20.7576,-27.67678 a 1.5312983,1.5312983 0 0 0 1.70144,-1.02088 6.5423876,6.5423876 0 0 0 2.83574,4.87747 c 2.7223,2.04173 6.35206,2.72232 8.28035,5.55804 1.4746,2.15516 1.36116,4.9909 0.68058,7.82663 -1.81488,7.48636 -7.7132,13.61156 -14.40554,17.01444 -7.71322,3.74316 -15.31301,-0.22686 -19.85017,-6.57892 z"
     style="fill:#005ca9;stroke-width:1.1343"
     id="path7642" />
  <path
     d="m 473.16133,739.50367 c 12.47726,-2.7223 22.68591,-14.06525 26.54252,-25.86192 3.97002,-12.02355 -3.51632,-30.28567 -18.48901,-29.15139 a 5.9405306,5.9405306 0 0 0 -5.89835,5.44462 1.1764909,1.1764909 0 0 0 -0.90744,-0.68058 c -8.84749,-2.38201 -16.33383,-2.60887 -24.16047,2.72233 a 25.308733,25.308733 0 0 0 -11.00268,23.1396 c 1.58802,16.44728 18.26217,27.90367 33.91543,24.38734 z m 0.56716,-47.52694 a 1.5312983,1.5312983 0 0 0 1.70145,-1.02088 6.5423876,6.5423876 0 0 0 2.83572,4.87747 c 2.72231,2.04171 6.35205,2.72231 8.28037,5.55804 1.47457,2.15516 1.36116,4.9909 0.68058,7.82663 -1.81488,7.48636 -7.71323,13.61156 -14.40557,17.01444 -7.59977,3.74316 -15.19955,-0.22686 -19.73673,-6.57893 -9.52808,-13.27124 6.57891,-29.94537 20.64418,-27.67677 z"
     style="fill:#005ca9;stroke-width:1.1343"
     id="path7644" />
  <path
     d="m 469.30474,716.93121 c 6.1252,0 6.1252,-9.52807 0,-9.52807 -6.12519,0 -6.12519,9.52807 0,9.52807 z"
     style="fill:#005ca9;stroke-width:1.1343"
     id="path7646" />
  <path
     d="m 395.00841,717.2715 c -7.25949,0 -7.25949,11.22951 0,11.22951 7.25949,0 7.25949,-11.22951 0,-11.22951 z"
     style="fill:#005ca9;stroke-width:1.1343"
     id="path7648" />
  <path
     d="m 508.43792,761.05528 c -3.62974,-1.02085 -7.25949,-0.34028 -10.88925,-0.34028 a 5.5225427,5.5225427 0 0 0 -4.6506,-0.90744 38.56127,38.56127 0 0 1 -3.8566,-1.81487 4.4403118,4.4403118 0 0 0 -6.4655,4.99091 10.685854,10.685854 0 0 0 3.7432,5.67145 c -1.36115,9.52808 -3.28947,17.58159 -10.43552,24.9545 -6.69235,7.03264 -15.88013,10.77581 -25.2948,12.36382 a 45.365793,45.365793 0 0 1 -27.33649,-3.97004 40.978907,40.978907 0 0 1 -11.45638,-8.73405 c -3.4029,-3.62975 -5.33119,-8.28036 -7.82665,-12.47727 a 15.416205,15.416205 0 0 0 2.04174,-7.48633 3.8739582,3.8739582 0 0 0 -6.57891,-2.72232 c -4.65061,3.85662 -7.94006,8.39379 -13.27125,11.56981 -3.17604,1.92831 -11.5698,5.89834 -7.14608,10.43552 4.19689,4.19689 13.27126,-0.90744 17.01444,-3.4029 a 7.9532239,7.9532239 0 0 0 1.13429,-0.90742 c 2.7223,9.75493 11.22952,18.48901 19.16959,23.4799 10.88924,6.80576 24.16048,8.73409 36.75116,7.03264 23.3665,-3.17602 45.71209,-22.11877 46.8464,-46.27924 a 16.030652,16.030652 0 0 0 10.4355,-4.08348 4.3722539,4.3722539 0 0 0 -1.92829,-7.37291 z"
     style="fill:#005ca9;stroke-width:1.1343"
     id="path7650" />
  <path
     d="m 2144.3183,541.56504 -5.4252,191.8144 -182.9018,-9.20321 c 0,0 19.4721,-117.41368 22.0878,-153.45152 2.5188,-36.13474 166.2392,-29.15967 166.2392,-29.15967 z"
     style="opacity:0.5;isolation:isolate;fill:#42210b;stroke-width:0.968759"
     id="path7652" />
  <path
     d="m 2144.3183,538.27126 c 0,0 -8.2344,165.07662 -14.5314,189.39249 l -184.7426,-10.4626 c 0,0 30.3221,-113.05424 21.894,-183.19244 z"
     style="fill:#f3c460;stroke-width:0.968759"
     id="path7654" />
  <path
     d="m 1968.5853,561.81211 c -0.097,-7.6532 -0.8719,-20.73145 -1.647,-27.70651 l 177.38,4.26253 c 0,0 -0.7752,16.66268 -1.5501,29.54717 z"
     style="fill:#f5d080;stroke-width:0.968759"
     id="path7656" />
  <path
     d="m 2034.5577,635.34097 c 2.1314,0.19376 3.3906,-2.4219 2.4219,-4.16567 -3.1969,-5.23131 -7.847,-8.33132 -12.4969,-12.20637 a 117.58697,117.58697 0 0 1 -15.1129,-14.33765 c -5.2311,-6.0063 -14.2405,2.90627 -8.7187,8.71884 a 108.7452,108.7452 0 0 0 15.5002,13.56264 c 5.6188,4.16567 11.2376,7.94383 18.4064,8.42821 z"
     style="fill:#005ca9;stroke-width:0.968759"
     id="path7658" />
  <path
     d="m 2104.1147,604.72817 c -6.1032,3.87503 -12.1095,8.0407 -18.2126,12.01261 -5.6189,3.68129 -12.2065,7.55633 -16.4691,12.8845 -3.0031,3.77817 0.6782,8.71885 5.1345,6.58757 5.9094,-2.71253 11.2377,-6.8782 16.8564,-10.07509 6.2,-3.6813 12.7877,-6.87821 18.8909,-10.75323 6.6844,-4.26255 0.4842,-14.91892 -6.2001,-10.65636 z"
     style="fill:#005ca9;stroke-width:0.968759"
     id="path7660" />
  <path
     d="m 2073.3081,604.92191 c 11.1408,5.81256 26.1565,-8.8157 31.8722,-17.05015 3.1001,-4.45631 -3.9719,-9.88135 -7.4595,-5.7157 -3.3907,4.06879 -6.6844,8.13758 -10.9469,11.33451 -4.2627,3.19688 -9.9783,4.26252 -13.9503,7.75007 a 2.4005863,2.4005863 0 0 0 0.4845,3.68127 z"
     style="fill:#005ca9;stroke-width:0.968759"
     id="path7662" />
  <path
     d="m 2020.9951,600.46561 a 24.034926,24.034926 0 0 0 9.4939,3.87505 c 3.6812,0.58125 6.3938,-0.48437 9.8813,-1.25938 2.2281,-0.48439 2.1313,-3.87506 0,-4.4563 a 40.376639,40.376639 0 0 1 -12.7877,-6.68445 c -4.1657,-3.29378 -5.7156,-8.62196 -9.9781,-11.6251 -3.2939,-2.42192 -6.8782,0.96875 -7.2657,4.16566 -0.8719,6.29694 5.9094,12.69075 10.6563,15.98452 z"
     style="fill:#005ca9;stroke-width:0.968759"
     id="path7664" />
  <path
     d="m 2089.2926,670.89443 c -9.7844,3.00316 -19.5689,6.20008 -29.2564,9.59074 v 0 c -0.8721,-2.71252 -2.2282,-5.23131 -3.197,-7.94383 -0.3874,-1.25939 -0.678,-2.61566 -0.9687,-3.97192 q 5.9579,-0.72657 11.9157,-1.74377 c 0,2.32504 0.2906,4.55317 1.5498,6.20006 2.8096,3.6813 7.8471,2.32502 8.4283,-2.32503 0.1938,-1.9375 -0.5812,-3.97191 -1.0656,-5.81254 v 0 c 3.2938,-0.87189 6.5877,-1.74377 9.6876,-2.90629 7.3626,-2.61565 4.5532,-13.75638 -3.2937,-11.81886 -12.497,3.00316 -24.7033,6.20006 -37.4911,8.33133 -6.3938,1.06563 -12.6906,1.74376 -19.0845,2.51878 -6.2,0.775 -13.3688,0.48438 -19.2782,2.71253 a 2.6235946,2.6235946 0 0 0 0,5.03755 c 0.5812,0.19375 1.0657,0.38751 1.6468,0.58125 a 3.9882864,3.9882864 0 0 0 -0.9687,2.03439 c -0.2908,4.4563 0.7749,9.10635 0.9687,13.65951 a 148.70575,148.70575 0 0 1 -0.5811,16.08142 c -0.4845,5.6188 5.8125,6.87818 9.3,3.97191 11.5281,-1.84065 22.9594,-7.2657 33.9065,-10.85011 13.466,-4.45629 27.1253,-8.4282 40.7847,-12.01264 7.4596,-1.9375 4.2626,-13.46573 -3.0031,-11.33448 z m -65.0037,-0.38748 c 0,1.93751 0.2906,3.97189 0.4845,5.90943 a 87.481511,87.481511 0 0 0 1.7436,12.30323 5.3875626,5.3875626 0 0 0 2.0344,3.29379 85.119577,85.119577 0 0 0 -8.4283,4.16568 c 0.2908,-8.71885 -1.1624,-19.3752 -6.1999,-25.86589 3.4875,0.29062 7.0719,0.19376 10.3657,0.19376 z m 13.95,17.82516 a 6.4005946,6.4005946 0 0 0 0,-2.71252 c -0.7749,-3.58441 -1.7437,-7.07194 -2.6154,-10.55948 q -0.5814,-2.32502 -1.1626,-4.65004 6.3938,-0.29063 12.7876,-0.87189 h 0.4844 a 24.075516,24.075516 0 0 0 3.5842,14.24077 c -0.7749,0.29062 -1.5498,0.58126 -2.228,0.775 -3.5844,1.16252 -7.2656,2.42191 -10.8502,3.77816 z"
     style="fill:#005ca9;stroke-width:0.968759"
     id="path7666" />
  <path
     d="m 2072.7269,320.68784 -16.7595,187.16436 c 0,0 -120.5138,8.33134 -184.7425,-15.59702 z"
     style="opacity:0.5;isolation:isolate;fill:#42210b;stroke-width:0.968759"
     id="path7668" />
  <path
     d="m 2072.7269,320.68784 c 0,0 -17.5346,139.40453 -30.2253,175.92675 0,0 -80.8914,18.30955 -171.1798,-4.35941 l 19.3752,-191.13626 z"
     style="fill:#f3c460;stroke-width:0.968759"
     id="path7670" />
  <path
     d="m 2069.0456,348.49126 c 2.325,-16.66266 3.6813,-27.70652 3.6813,-27.70652 L 1890.6,301.21577 l -2.6157,25.57527 z"
     style="fill:#f5d080;stroke-width:0.968759"
     id="path7672" />
  <path
     d="m 1932.1599,420.76072 c 11.2376,3.97191 20.0533,-9.00946 23.8314,-17.63143 a 51.035126,51.035126 0 0 0 4.4564,-20.44082 c 0,-5.61881 -1.0657,-15.59703 -7.3627,-17.7283 a 3.4068368,3.4068368 0 0 0 -4.2624,2.4219 c -0.6784,4.35941 2.3249,8.91258 2.7124,13.36887 a 38.242365,38.242365 0 0 1 -1.8405,14.43451 c -1.6471,5.52195 -6.5875,17.24395 -13.6597,17.53457 -3.0999,0.0968 -5.1343,-4.26254 -6.2,-6.58756 a 28.281289,28.281289 0 0 1 -2.3251,-15.69391 c 0.8721,-9.20322 4.6502,-22.95959 15.8878,-22.76585 a 1.2593875,1.2593875 0 0 0 0.8719,-2.13129 c -11.7221,-10.07509 -21.4096,11.14076 -23.5409,19.66583 -2.6156,11.14072 -1.4533,30.90344 11.4314,35.55348 z"
     style="fill:#005ca9;stroke-width:0.968759"
     id="path7674" />
  <path
     d="m 2018.7669,395.18545 c -0.4844,-5.32815 -2.0344,-15.11264 -8.7188,-15.79076 a 1.4551738,1.4551738 0 0 0 -1.4532,1.06563 c -1.55,4.16567 1.4532,9.39698 1.9377,13.56264 a 36.912936,36.912936 0 0 1 -1.1628,14.91888 c -1.1623,4.65006 -5.7156,15.79079 -12.1094,11.62513 -4.0686,-2.61567 -6.5875,-9.39695 -7.9437,-13.75639 -1.3563,-4.16568 -1.3563,-8.71883 -1.1626,-13.07826 a 36.729745,36.729745 0 0 1 2.9063,-13.65951 c 2.0344,-4.16567 5.0376,-4.55315 9.0096,-6.00629 a 1.5827594,1.5827594 0 0 0 0.6779,-2.61566 c -3.4875,-4.4563 -9.5906,-2.51877 -13.0781,0.67812 -4.65,4.06881 -6.6845,11.3345 -7.6532,17.24394 -2.0345,13.27198 0.3874,30.03154 11.819,38.6535 11.0437,8.23445 20.3438,-3.58442 24.1219,-13.07825 a 41.686306,41.686306 0 0 0 2.8094,-19.76272 z"
     style="fill:#005ca9;stroke-width:0.968759"
     id="path7676" />
  <path
     d="m 1994.3542,386.36975 c -0.678,2.13128 -1.3562,4.74693 -0.097,6.78133 a 2.8144403,2.8144403 0 0 0 4.8438,0 c 1.2594,-2.0344 0.6782,-4.65005 -0.097,-6.78133 a 2.3962268,2.3962268 0 0 0 -4.6501,0 z"
     style="fill:#005ca9;stroke-width:0.968759"
     id="path7678" />
  <path
     d="m 1933.8067,375.3259 c -1.9376,3.00315 -1.8406,7.55632 -1.0656,10.75323 a 2.899885,2.899885 0 0 0 4.747,1.25938 9.7109429,9.7109429 0 0 0 2.6156,-5.90942 9.5917856,9.5917856 0 0 0 -1.2594,-6.10319 2.9094757,2.9094757 0 0 0 -5.0376,0 z"
     style="fill:#005ca9;stroke-width:0.968759"
     id="path7680" />
  <path
     d="m 2007.6261,459.1236 a 7.2571717,7.2571717 0 0 0 -1.5499,-0.3875 c -5.3283,-17.43767 -24.7033,-25.38151 -41.7535,-23.83149 -13.8533,1.25939 -33.519,8.62197 -40.0098,22.47523 l -1.1626,-2.03441 a 9.4577092,9.4577092 0 0 0 -1.6469,-1.74376 2.3250231,2.3250231 0 0 0 -1.1624,-0.67814 c -1.4532,-1.74375 -3.7781,0.19376 -3.4876,2.0344 -0.5813,2.51879 0.9688,5.81256 1.647,8.0407 1.2592,4.26254 1.6469,10.07511 4.1655,13.7564 1.7439,2.51876 6.0064,2.42189 6.7813,-0.8719 1.0657,-4.26252 -0.9685,-9.00946 -2.7123,-13.17512 4.1656,-5.13442 8.1375,-9.97823 13.8532,-13.65952 a 46.00058,46.00058 0 0 1 22.6689,-7.16881 38.16845,38.16845 0 0 1 20.6345,4.74691 c 6.6845,3.77818 9.7847,9.78447 12.1097,16.75955 -2.0346,2.22814 -3.4876,5.13443 -3.3908,7.94383 a 4.2003478,4.2003478 0 0 0 7.7501,2.13128 c 1.1627,-1.84064 1.6471,-3.6813 3.1,-5.42506 a 7.7435861,7.7435861 0 0 1 1.2594,-1.25939 1.699495,1.699495 0 0 0 0.4843,-0.38749 26.997101,26.997101 0 0 0 3.6814,-2.9063 c 1.4532,-1.45314 0.6781,-3.68127 -1.2595,-4.35941 z"
     style="fill:#005ca9;stroke-width:0.968759"
     id="path7682" />
  <path
     d="m 2021.867,227.68693 32.5504,185.03309 c 0,0 120.8042,-1.93753 182.7079,-31.29093 z"
     style="opacity:0.5;isolation:isolate;fill:#42210b;stroke-width:0.968759"
     id="path7684" />
  <path
     d="m 2021.867,227.68693 c 0,0 29.2566,137.37011 45.1442,172.72984 0,0 82.1508,11.43136 170.211,-18.89083 l -35.5535,-188.81123 z"
     style="fill:#f3c460;stroke-width:0.968759"
     id="path7686" />
  <path
     d="m 2027.8733,255.00595 c -3.6813,-16.46891 -6.0063,-27.31902 -6.0063,-27.31902 l 179.8017,-34.97222 4.747,25.28462 z"
     style="fill:#f5d080;stroke-width:0.968759"
     id="path7688" />
  <path
     d="m 2104.9865,306.73772 c 8.5251,-4.65005 12.2065,-15.88766 12.0127,-24.99399 -0.097,-8.33135 -6.4907,-23.44399 -17.4376,-20.05334 a 1.5887656,1.5887656 0 0 0 -0.9688,2.32502 c 3.6813,5.81258 9.2032,8.62197 9.9782,16.08141 0.6781,6.10318 -1.1626,12.88451 -5.4252,17.43767 -4.7467,5.03755 -10.4625,2.51878 -14.8219,-1.64688 -7.847,-7.45945 -4.5531,-21.89396 5.8126,-25.3815 a 1.2969754,1.2969754 0 0 0 -0.2906,-2.51878 c -3.1969,-0.29061 -5.2315,-0.87188 -8.3314,0.67814 a 16.455543,16.455543 0 0 0 -6.8782,6.49068 c -3.7781,5.71568 -3.1969,14.24077 -0.2906,20.1502 4.7469,9.97822 16.1782,17.14705 26.6408,11.43137 z"
     style="fill:#005ca9;stroke-width:0.968759"
     id="path7690" />
  <path
     d="m 2091.9083,285.23125 a 4.3746276,4.3746276 0 0 0 -0.4844,3.48753 3.7219744,3.7219744 0 0 0 3.4875,2.71254 3.7975376,3.7975376 0 0 0 3.3907,-2.32503 4.6298959,4.6298959 0 0 0 0.5812,-1.74377 3.6638487,3.6638487 0 0 0 0,-1.45314 3.2700479,3.2700479 0 0 0 -1.4531,-1.93751 4.2575046,4.2575046 0 0 0 -2.1313,-0.67814 4.1199408,4.1199408 0 0 0 -1.0656,0.19376 3.8672883,3.8672883 0 0 0 -2.325,1.74376 z"
     style="fill:#005ca9;stroke-width:0.968759"
     id="path7692" />
  <path
     d="m 2156.5246,292.59383 c 18.697,-2.90629 19.8595,-33.80971 5.5219,-42.62543 a 1.1528238,1.1528238 0 0 0 -1.5499,1.55001 c 4.7469,8.62198 10.85,28.19091 -2.6157,32.74409 -6.6845,2.22815 -14.047,-2.90629 -17.1471,-8.42821 a 13.695256,13.695256 0 0 1 -1.2594,-9.20323 c 0.4844,-2.4219 3.0999,-7.07194 5.3281,-8.33132 1.3563,-0.77502 0.3876,-2.71253 -1.0655,-2.42191 -2.2281,0.38751 -3.875,0 -6.1032,1.06564 -2.0344,0.96876 -3.4875,3.00317 -4.5531,4.94068 -2.519,4.26254 -2.422,9.49384 -1.2595,14.14389 2.6156,10.36572 13.9502,18.21268 24.7034,16.56579 z"
     style="fill:#005ca9;stroke-width:0.968759"
     id="path7694" />
  <path
     d="m 2150.2277,275.4468 a 4.1021155,4.1021155 0 0 0 2.9062,-1.16254 4.3894497,4.3894497 0 0 0 1.0656,-1.84063 4.3432399,4.3432399 0 0 0 0,-2.22815 c 0,-0.19374 -0.097,-0.38749 -0.097,-0.67813 a 4.0539682,4.0539682 0 0 0 -1.0658,-1.74376 3.8801728,3.8801728 0 0 0 -2.8093,-1.16253 4.0687902,4.0687902 0 0 0 -2.0344,0.58126 4.2218543,4.2218543 0 0 0 -1.8408,2.4219 c 0,0.19377 -0.097,0.38752 -0.097,0.67814 a 4.5725452,4.5725452 0 0 0 0.3872,3.1969 4.3661025,4.3661025 0 0 0 3.5846,1.93754 z"
     style="fill:#005ca9;stroke-width:0.968759"
     id="path7696" />
  <path
     d="m 2185.7812,307.41586 c -0.9689,-2.61566 -4.7471,-2.90629 -5.619,0 -0.097,0.29061 -0.097,0.58124 -0.1936,0.87188 -14.8221,2.03438 -29.7409,7.16881 -44.2724,10.8501 -8.622,2.22815 -17.2439,4.26254 -25.8659,6.00631 -6.8781,1.35627 -14.822,1.93752 -21.5064,4.55317 a 3.3247829,3.3247829 0 0 0 -3.4875,3.97191 c 3.778,16.85641 16.5658,31.58156 30.5158,41.17229 14.0471,9.68759 31.4847,12.01262 47.1787,5.03753 12.497,-5.61879 19.2784,-18.30955 22.3782,-31.0003 a 108.47084,108.47084 0 0 0 2.6158,-20.9252 c 0.2905,-7.07196 0.6782,-14.04701 -1.7437,-20.53769 z m -6.9752,16.8564 a 119.1367,119.1367 0 0 1 -1.453,17.63143 c -1.8407,11.23761 -6.297,22.18459 -16.5658,28.19091 -13.0783,7.65319 -28.6754,4.0688 -40.7848,-3.48754 -12.3033,-7.75007 -21.2159,-19.76269 -27.9972,-32.35658 5.425,0.38751 11.3344,-0.775 16.4689,-1.45313 8.7189,-1.16251 17.4375,-3.00315 26.0595,-4.8438 8.5251,-1.84065 16.9534,-3.87503 25.3816,-5.90943 6.2,-1.55003 12.6909,-2.71253 18.8908,-4.35941 z"
     style="fill:#005ca9;stroke-width:0.968759"
     id="path7698" />
  <path
     d="m 2030.7112,15.75314 50.2785,185.12995 -177.7672,44.07857 c 0,0 -15.3065,-117.99492 -23.2503,-153.257773 -7.9439,-35.262846 150.739,-75.950747 150.739,-75.950747 z"
     style="opacity:0.5;isolation:isolate;fill:#42210b;stroke-width:0.968759"
     id="path7700" />
  <path
     d="m 2029.8392,12.653109 c 0,0 39.913,160.426591 40.7849,185.517471 l -179.8017,43.40043 c 0,0 -3.6815,-116.9293 -32.0661,-181.642433 z"
     style="fill:#f3c460;stroke-width:0.968759"
     id="path7702" />
  <path
     d="m 1868.4438,85.988204 c -2.3248,-7.265692 -6.7812,-19.665815 -9.5906,-26.059627 l 171.083,-47.275468 c 0,0 4.0687,16.178285 7.072,28.675283 z"
     style="fill:#f5d080;stroke-width:0.968759"
     id="path7704" />
  <path
     d="m 1937.3227,123.96358 c -6.975,-2.22814 -14.4345,-4.16565 -21.797,-4.45629 -4.2625,-0.19375 -5.2313,6.68443 -0.9689,7.45945 6.9752,1.25938 13.8533,2.61565 20.7315,4.35942 5.9096,1.55 12.2065,4.06879 18.5034,3.68129 a 1.6108535,1.6108535 0 0 0 1.1625,-2.71254 c -4.7469,-4.4563 -11.6251,-6.39382 -17.6315,-8.33133 z"
     style="fill:#005ca9;stroke-width:0.968759"
     id="path7706" />
  <path
     d="m 2017.6329,90.444505 a 1.4603083,1.4603083 0 0 0 -2.1312,-1.259391 c -3.197,1.356261 -5.3282,4.45629 -7.4595,7.071944 -3.0032,3.875042 -6.1999,7.653202 -9.2032,11.431362 -3.1967,4.0688 -12.3033,12.01263 -10.4627,17.82517 a 1.4725145,1.4725145 0 0 0 1.2594,0.96877 c 3.0032,-0.29064 4.4563,-2.32504 6.4908,-4.4563 3.0031,-3.29378 5.8126,-6.87818 8.622,-10.26884 q 4.5048,-5.52194 8.7188,-11.33449 c 2.0344,-2.809411 4.3594,-6.393818 4.1656,-9.978225 z"
     style="fill:#005ca9;stroke-width:0.968759"
     id="path7708" />
  <path
     d="m 2002.5203,158.25768 a 123.09389,123.09389 0 0 0 -15.2096,-4.35942 c -0.8721,-0.19375 -1.8407,-0.38752 -2.7126,-0.58126 2.4219,-4.06878 4.9408,-8.13758 6.9751,-12.40013 a 1.4708677,1.4708677 0 0 0 -1.6469,-2.13126 c -6.1031,1.84063 -10.3658,7.36257 -13.7564,12.8845 -2.0343,-0.29063 -4.0688,-0.67813 -6.1032,-0.96875 -3.5843,-0.48439 -9.0095,-1.74377 -12.3032,0.19374 a 1.7881364,1.7881364 0 0 0 -0.3875,2.80941 c 2.7125,2.32502 7.4595,2.71253 10.8502,3.5844 1.3562,0.29063 2.7125,0.67814 3.9719,1.06564 -2.3252,4.0688 -4.4564,8.33134 -6.6846,12.49702 -1.9375,3.5844 -4.7469,7.65318 -3.9719,11.81885 a 2.1360179,2.1360179 0 0 0 2.6157,1.55001 c 3.7781,-0.77501 6.0063,-4.65004 7.847,-7.75007 a 142.73985,142.73985 0 0 0 6.5875,-12.69075 c 0.4845,-1.06563 1.0656,-2.13127 1.6468,-3.19691 1.1627,0.29062 2.3251,0.67814 3.4875,0.96876 q 7.2658,2.0344 14.5315,4.65004 c 3.1001,1.16252 6.9751,3.77818 10.172,1.93753 a 3.7792281,3.7792281 0 0 0 1.8407,-3.29379 c 0.097,-4.06877 -4.5532,-5.32818 -7.75,-6.58756 z"
     style="fill:#005ca9;stroke-width:0.968759"
     id="path7710" />
  <path
     d="m 1979.6575,109.72282 c 13.6595,-1.06563 19.9566,-17.243918 20.2472,-28.869032 0.097,-2.421905 -3.3908,-2.228146 -3.6814,0 a 31.603164,31.603164 0 0 1 -6.1032,15.306391 c -3.1,4.456301 -8.1376,6.878191 -11.6251,10.850111 -0.775,0.96876 -0.2906,2.80941 1.1625,2.71253 z"
     style="fill:#005ca9;stroke-width:0.968759"
     id="path7712" />
  <path
     d="m 1951.2729,114.46975 a 1.7285576,1.7285576 0 0 0 0,-3.00316 c -4.4563,-2.22816 -9.8813,-2.51878 -14.5314,-4.26255 -5.6188,-2.0344 -9.8814,-6.20005 -14.7251,-9.590721 -1.6468,-1.162502 -3.3906,1.065643 -2.6157,2.615651 5.1344,9.6876 20.9253,19.18145 31.8722,14.24078 z"
     style="fill:#005ca9;stroke-width:0.968759"
     id="path7714" />
  <path
     d="m 220.66723,294.29284 38.11234,216.65036 c 0,0 141.44659,-2.26858 213.92805,-36.63771 z"
     style="opacity:0.5;isolation:isolate;fill:#42210b;stroke-width:1.1343"
     id="path7716" />
  <path
     d="m 220.66723,294.29284 c 0,0 34.25572,160.84304 52.85815,202.24483 0,0 96.18823,13.38467 199.29566,-22.11876 L 431.07899,253.34479 Z"
     style="fill:#f3c460;stroke-width:1.1343;fill-opacity:1"
     id="path7718" />
  <path
     d="m 227.69987,326.27996 c -4.31032,-19.28301 -7.03264,-31.98712 -7.03264,-31.98712 l 210.41176,-40.94805 5.55805,29.6051 z"
     style="fill:#f5d080;stroke-width:1.1343"
     id="path7720" />
  <path
     d="m 317.19575,340.45864 c -9.6415,-0.11341 -9.52807,14.51899 0,14.85928 4.65061,0.22686 8.73408,0.45372 12.13695,3.97003 2.94918,3.0626 4.08347,7.59978 4.31033,11.56981 a 23.110583,23.110583 0 0 1 -16.5607,23.25305 c -9.64151,2.83573 -21.77847,-0.56714 -23.25307,-11.79667 -1.47457,-12.47725 6.8058,-19.62332 15.65328,-26.65593 2.26859,-1.81487 -0.22686,-4.9909 -2.60888,-4.53718 -13.49811,2.94917 -23.4799,19.85016 -21.77845,33.00798 2.26859,17.12787 19.50987,23.0262 34.70941,19.73673 32.32742,-6.69234 33.68858,-63.06681 -2.60887,-63.4071 z"
     style="fill:#005ca9;stroke-width:1.1343"
     id="path7722" />
  <path
     d="m 361.2064,389.68706 c 11.11609,9.07435 25.18136,5.21776 33.80201,-5.21775 8.39378,-10.09523 13.15781,-24.95451 9.1878,-37.88546 A 24.09243,24.09243 0 0 0 391.4921,331.83802 c -7.48637,-3.51632 -18.94275,-4.65062 -25.97535,0.45371 a 7.1095349,7.1095349 0 0 0 -1.92834,2.15516 2.9639132,2.9639132 0 0 0 1.02089,4.08345 c 4.99089,3.62976 13.04439,1.81488 18.94271,3.4029 a 12.332397,12.332397 0 0 1 8.28037,6.80575 c 3.40287,6.57893 0.56713,16.90101 -3.62974,24.04707 a 26.559179,26.559179 0 0 1 -7.94009,8.62065 9.4073902,9.4073902 0 0 1 -9.41464,1.13429 c -4.76403,-1.70145 -8.84751,-7.82664 -9.98178,-12.81753 -2.38204,-9.9818 5.55803,-17.46815 12.13694,-23.13962 a 1.4859266,1.4859266 0 0 0 -0.68058,-2.49545 c -10.88922,-2.94916 -19.39643,9.86836 -21.5516,18.71587 -2.15516,10.32208 2.38203,20.41732 10.43551,26.88279 z"
     style="fill:#005ca9;stroke-width:1.1343"
     id="path7724" />
  <path
     d="m 309.14227,380.04555 c 0.11341,0.22686 0.34027,0.34028 0.45371,0.45372 a 5.4015134,5.4015134 0 0 0 3.85659,1.58802 v 0 a 6.1675029,6.1675029 0 0 0 3.85662,-1.58802 5.4770574,5.4770574 0 0 0 0,-7.71321 5.6016032,5.6016032 0 0 0 -3.85662,-1.58801 v 0 a 5.6521924,5.6521924 0 0 0 -4.08345,1.9283 4.7671023,4.7671023 0 0 0 -0.22685,6.9192 z"
     style="fill:#005ca9;stroke-width:1.1343"
     id="path7726" />
  <path
     d="m 380.60285,370.17718 c 8.73407,0 8.73407,-13.49811 0,-13.49811 -8.62064,0.11341 -8.62064,13.49811 0,13.49811 z"
     style="fill:#005ca9;stroke-width:1.1343"
     id="path7728" />
  <path
     d="m 413.0437,395.81225 c -2.83574,-3.40288 -7.03263,-1.13429 -8.28037,2.15516 a 3.8587586,3.8587586 0 0 0 -1.13428,0.11341 c -6.35206,1.36113 -12.47726,4.65062 -18.60244,6.69234 -7.71321,2.60887 -15.53986,5.10432 -23.47992,7.2595 -8.16693,2.38201 -16.56071,4.31031 -24.95448,6.12518 -6.80578,1.47458 -14.40555,2.04173 -20.87104,4.87748 a 2.8968764,2.8968764 0 0 0 -2.49546,2.60887 c -0.34028,4.31032 -0.794,7.71321 0.22686,12.02352 a 33.472028,33.472028 0 0 0 4.1969,10.20866 42.468009,42.468009 0 0 0 15.65327,14.40557 c 13.3847,7.3729 29.6051,8.05347 44.35095,4.87745 14.51898,-3.17602 28.47081,-11.34295 36.5243,-24.04706 8.28035,-12.93097 8.96092,-35.04972 -1.13429,-47.3001 z m -94.1465,30.96627 a 43.6352,43.6352 0 0 0 13.8384,-0.22687 c -0.3403,6.80577 3.17604,15.42643 4.99091,20.87102 0.68056,1.92832 1.36114,4.42376 2.38199,6.80579 -0.22684,-0.11342 -0.56712,-0.22685 -0.79399,-0.3403 -10.7758,-4.99089 -17.92187,-15.65327 -20.41731,-27.10964 z m 34.48256,30.96623 c 0.45372,-4.99086 -3.51629,-10.20864 -5.33117,-14.74581 -1.58802,-3.85661 -3.17603,-7.7132 -4.65061,-11.56981 -0.68058,-1.92831 -1.36116,-4.08349 -2.15517,-6.1252 5.10433,-0.79401 10.09524,-1.81488 15.08613,-2.94916 1.36116,12.47723 6.69234,23.59332 10.54894,35.38998 a 53.753111,53.753111 0 0 1 -13.49812,0 z m 23.59336,-1.81485 c -4.08347,-12.02352 -10.77581,-22.91277 -14.74586,-34.93631 a 9.4496992,9.4496992 0 0 0 1.70146,-0.45371 c 6.35205,-1.588 12.59068,-3.40288 18.71587,-5.33119 -1.47459,3.62975 -0.34029,8.05351 0.34028,11.79668 1.24772,6.69235 3.97004,13.61153 6.35205,19.96358 a 5.305779,5.305779 0 0 0 2.26859,2.83574 54.912134,54.912134 0 0 1 -14.63239,6.12521 z m 27.10963,-17.69501 a 31.752325,31.752325 0 0 1 -4.65059,5.67149 c -1.92829,-6.01179 -4.65061,-11.68326 -6.91921,-17.58159 -1.47458,-3.97002 -2.38202,-9.30122 -5.10432,-12.59068 6.01176,-2.04173 12.93094,-3.74317 18.48901,-7.03262 1.47459,4.87748 3.28944,9.52808 3.28944,15.08613 a 30.554508,30.554508 0 0 1 -5.10433,16.44727 z"
     style="fill:#005ca9;stroke-width:1.1343"
     id="path7730" />
  <path
     d="m 132.64593,63.917504 1.02088,224.703866 214.38178,-5.78491 c 0,0 -19.62331,-137.93029 -21.55162,-180.23949 C 324.45525,60.401184 132.64593,63.917504 132.64593,63.917504 Z"
     style="opacity:0.5;isolation:isolate;fill:#42210b;stroke-width:1.1343"
     id="path7732" />
  <path
     d="m 132.75936,60.174326 c 0,0 5.10434,193.510754 11.91011,222.094984 l 216.53693,-7.14606 c 0,0 -32.3274,-133.16624 -20.53074,-214.948924 z"
     style="fill:#f3c460;stroke-width:1.1343"
     id="path7734" />
  <path
     d="m 337.83993,92.501737 c 0.34028,-8.960925 1.58801,-24.273918 2.72232,-32.440847 l -207.80289,0.113436 c 0,0 0.4537,19.509885 0.90745,34.596006 z"
     style="fill:#f5d080;stroke-width:1.1343"
     id="path7736" />
  <path
     d="m 299.38732,139.34813 c -6.9192,-1.36116 -14.6324,-0.11342 -21.5516,0.79399 -6.4655,0.79402 -15.53986,0.90746 -20.53074,5.3312 a 1.5539843,1.5539843 0 0 0 0.34029,2.49544 c 5.55805,3.28947 14.06525,1.70143 20.30388,1.36116 h 0.68057 a 19.300598,19.300598 0 0 0 -0.90743,5.7849 51.705709,51.705709 0 0 0 -0.11342,7.2595 6.0059793,6.0059793 0 0 0 5.89834,5.89833 c 4.08346,0 6.35206,-3.74317 5.67147,-7.48635 -0.34029,-2.15516 -0.90743,-4.31032 -1.36115,-6.35205 a 27.720244,27.720244 0 0 0 -1.58802,-5.21776 c 3.97003,0 7.94006,0 11.9101,-0.22686 5.33119,-0.11341 6.91922,-8.50721 1.24774,-9.6415 z"
     style="fill:#005ca9;stroke-width:1.1343"
     id="path7738" />
  <path
     d="m 202.74537,178.14102 c 3.06261,-1.81487 3.4029,-5.21776 2.15518,-8.16692 0.90743,2.04172 -0.11341,-0.90745 -0.22686,-1.4746 -0.34028,-1.47457 -0.79402,-2.94915 -1.02086,-4.31031 a 20.948388,20.948388 0 0 0 -2.26861,-6.80578 c 7.82664,-0.45371 15.76671,-1.13428 23.59335,-1.58801 7.03262,-0.45372 7.03262,-11.56981 0,-11.00266 -9.07436,0.794 -18.03531,1.81488 -27.10966,2.83574 -8.73407,0.90743 -18.71588,0.56713 -26.88281,4.1969 a 2.4441792,2.4441792 0 0 0 0,4.19688 c 6.91921,2.94915 15.08614,2.26858 22.57248,1.9283 -1.02087,2.60888 -0.90743,5.89835 -0.79401,8.50722 0.22687,3.40288 0.45373,6.57892 1.81489,9.64151 1.36114,2.83573 5.55803,3.5163 8.16691,2.04173 z"
     style="fill:#005ca9;stroke-width:1.1343"
     id="path7740" />
  <path
     d="m 294.62329,220.56366 a 18.511018,18.511018 0 0 0 -2.2686,1.92831 c -15.19954,-9.98181 -34.48256,-14.40556 -52.51786,-13.95184 -15.31298,0.34029 -37.99889,9.30122 -36.52431,27.90366 a 9.1627228,9.1627228 0 0 0 -7.25947,2.382 1.8653483,1.8653483 0 0 0 0.79401,3.06262 c 1.92829,0.79401 4.08345,1.02086 5.89831,1.9283 1.92832,1.02086 2.72231,2.83573 3.85662,4.53717 a 4.5813045,4.5813045 0 0 0 5.10432,2.04173 c 2.15517,-0.56716 4.08346,-3.28945 3.17604,-5.55804 a 14.116077,14.116077 0 0 0 -6.80577,-7.03263 c 3.06257,-6.57891 4.65059,-12.47723 11.34293,-16.67413 6.69235,-4.08347 15.08614,-4.65061 22.68591,-4.31033 14.06525,0.56715 32.44084,5.78491 42.87636,15.65327 0.11341,0.11341 0.22687,0.11341 0.34028,0.22686 -0.22685,0.56716 -0.56714,1.13431 -0.794,1.58802 -2.49545,5.55804 5.44461,10.43551 8.28035,4.76402 2.49545,-4.99088 4.65062,-11.45637 4.42376,-17.12784 a 1.6381491,1.6381491 0 0 0 -2.60888,-1.36115 z"
     style="fill:#005ca9;stroke-width:1.1343"
     id="path7742" />
  <path
     d="m 2237.416,414.27003 -55.1224,179.60802 c 0,0 108.501,53.18491 176.9924,55.2193 z"
     style="opacity:0.5;isolation:isolate;fill:#42210b;stroke-width:0.968759"
     id="path7744" />
  <path
     d="m 2237.416,414.27003 c 0,0 -36.3285,135.72323 -38.363,174.37672 0,0 68.007,47.46922 160.233,60.54748 l 54.1536,-184.35494 z"
     style="fill:#f3c460;stroke-width:0.968759"
     id="path7746" />
  <path
     d="m 2230.344,441.39529 c 4.1657,-16.37204 7.072,-27.12526 7.072,-27.12526 l 176.0236,50.56926 -7.2656,24.70336 z"
     style="fill:#f5d080;stroke-width:0.968759"
     id="path7748" />
  <path
     d="m 2292.8291,486.92699 c -7.2658,-3.77815 -12.8845,7.36257 -5.7157,11.23763 3.4876,1.9375 6.4906,3.68129 7.7501,7.75006 1.0656,3.39065 0.1939,7.36257 -1.2595,10.55949 a 19.8432,19.8432 0 0 1 -21.7001,11.23761 c -8.4282,-1.55001 -16.372,-8.91258 -13.0782,-17.92205 3.6811,-10.07511 12.7876,-12.20639 22.2813,-14.14389 2.4219,-0.48438 1.7438,-3.87504 -0.2906,-4.4563 -11.4313,-3.00315 -25.5753,5.90944 -29.3534,16.66266 -4.9406,13.85327 5.9095,24.99402 18.6971,28.48153 27.319,7.36258 50.2785,-35.06909 22.669,-49.40674 z"
     style="fill:#005ca9;stroke-width:0.968759"
     id="path7750" />
  <path
     d="m 2307.2635,541.46816 c 4.9407,11.23761 17.147,13.75639 27.8034,9.10634 10.2688,-4.45629 19.7628,-13.95013 21.7003,-25.28462 a 20.566766,20.566766 0 0 0 -3.9719,-16.1783 c -4.2626,-5.52191 -12.6908,-10.8501 -19.8597,-9.68758 a 5.653584,5.653584 0 0 0 -2.2282,0.87187 2.5932726,2.5932726 0 0 0 -0.7749,3.48756 c 2.422,4.65003 9.2031,6.49067 13.0783,9.97821 a 10.473066,10.473066 0 0 1 3.6814,8.42821 c 0,6.29694 -6.1033,13.07825 -12.1096,16.95329 a 22.293386,22.293386 0 0 1 -9.3969,3.48753 c -3.3907,0.29063 -5.3282,-0.38749 -7.5565,-2.80941 -3.0031,-3.10002 -3.6812,-9.39696 -2.6155,-13.65949 2.0343,-8.52509 11.0438,-11.14074 18.3095,-12.88452 a 1.332432,1.332432 0 0 0 0.4844,-2.22813 c -7.1689,-6.4907 -18.6003,0 -23.6379,5.90942 -6.0061,7.07195 -6.4905,16.46892 -2.9062,24.50962 z"
     style="fill:#005ca9;stroke-width:0.968759"
     id="path7752" />
  <path
     d="m 2271.4195,513.95539 c 0,0.19375 0.097,0.3875 0.097,0.58126 a 4.9309863,4.9309863 0 0 0 2.3251,2.71251 v 0 a 5.0805628,5.0805628 0 0 0 3.5844,0.29064 4.9309863,4.9309863 0 0 0 2.7126,-2.32503 4.6112957,4.6112957 0 0 0 0.2905,-3.58441 4.9316643,4.9316643 0 0 0 -2.3249,-2.71252 v 0 a 4.2099386,4.2099386 0 0 0 -2.422,-0.48438 3.2093067,3.2093067 0 0 0 -1.4532,0.38751 4.0059178,4.0059178 0 0 0 -2.8093,5.13442 z"
     style="fill:#005ca9;stroke-width:0.968759"
     id="path7754" />
  <path
     d="m 2329.642,534.20246 c 6.5874,3.39066 11.8187,-6.87819 5.2312,-10.26885 -6.6843,-3.39065 -11.9157,6.87819 -5.2312,10.26885 z"
     style="fill:#005ca9;stroke-width:0.968759"
     id="path7756" />
  <path
     d="m 2344.2702,566.26841 c -0.8719,-3.77815 -4.9407,-3.5844 -7.1689,-1.55002 -0.2905,-0.0968 -0.5812,-0.29062 -0.8719,-0.3875 -5.3281,-1.35626 -11.3345,-1.35626 -16.7594,-2.13129 -6.8784,-0.96875 -13.8534,-2.22813 -20.6346,-3.5844 -7.1689,-1.45313 -14.2408,-3.10002 -21.3126,-4.94067 -5.7158,-1.55 -11.8189,-4.06878 -17.7285,-4.35941 a 2.6707734,2.6707734 0 0 0 -2.9062,0.96875 c -1.9375,3.19691 -3.5845,5.52194 -4.5532,9.20322 a 27.896692,27.896692 0 0 0 -0.7751,9.39696 35.800318,35.800318 0 0 0 6.297,16.95331 c 7.3627,10.85009 19.3751,17.63142 31.8721,20.92519 12.3033,3.19692 26.0598,2.42192 37.2005,-4.16566 11.2376,-6.49068 20.3439,-23.05649 17.3408,-36.32848 z m -83.604,-13.07826 a 41.312753,41.312753 0 0 0 10.5595,5.2313 c -2.9064,5.03756 -3.5843,12.98139 -4.2625,17.82517 -0.1937,1.74379 -0.6781,3.87506 -0.872,6.10319 -0.1937,-0.19375 -0.2907,-0.38749 -0.4842,-0.58124 -6.2001,-7.94383 -7.4597,-18.89084 -4.9408,-28.57842 z m 14.1439,37.00662 c 2.325,-3.68128 1.3563,-9.10634 1.6469,-13.27201 0.2906,-3.58441 0.5814,-7.07193 0.9687,-10.65635 0.1938,-1.74377 0.5815,-3.6813 0.6782,-5.52194 4.1657,1.35627 8.3313,2.51878 12.594,3.6813 -3.7784,9.97821 -4.0688,20.53768 -5.8128,31.0003 a 49.923571,49.923571 0 0 1 -10.075,-5.2313 z m 18.6971,7.75007 c 1.5502,-10.75322 0.6781,-21.60333 2.325,-32.25969 a 8.062986,8.062986 0 0 1 1.4531,0.38751 c 5.4251,1.25938 10.8502,2.32502 16.372,3.19689 -2.5186,2.22817 -3.3907,6.00632 -4.3594,9.10635 -1.6468,5.6188 -2.2281,11.81887 -2.9062,17.63143 a 4.9488114,4.9488114 0 0 0 0.6781,3.00314 45.380187,45.380187 0 0 1 -13.5626,-1.06563 z m 27.5127,-2.90628 a 30.132879,30.132879 0 0 1 -5.7156,2.51877 c 0.7749,-5.32817 0.9687,-10.65634 1.55,-15.98452 0.3876,-3.5844 1.8405,-8.0407 1.0657,-11.62513 5.3281,0.77503 11.3343,2.13129 16.7595,1.74379 -0.775,4.26253 -1.1626,8.52507 -3.3907,12.69074 a 24.789493,24.789493 0 0 1 -10.2689,10.65635 z"
     style="fill:#005ca9;stroke-width:0.968759"
     id="path7758" />
  <path
     d="m 2178.3217,653.55363 -33.616,188.90814 180.9644,28.09403 c 0,0 4.7469,-118.86682 9.4936,-154.7109 4.8439,-35.84412 -156.842,-62.29127 -156.842,-62.29127 z"
     style="opacity:0.5;isolation:isolate;fill:#42210b;stroke-width:0.968759"
     id="path7760" />
  <path
     d="m 2178.9999,650.35674 c 0,0 -25.4785,163.33287 -24.1222,188.42374 l 182.9987,27.22214 c 0,0 -6.6846,-116.83241 15.7907,-183.77371 z"
     style="fill:#f3c460;stroke-width:0.968759"
     id="path7762" />
  <path
     d="m 2346.3045,709.06357 c 1.6469,-7.45945 5.0377,-20.15021 7.2659,-26.83466 l -174.5705,-31.7753 c 0,0 -2.6158,16.4689 -4.5533,29.15966 z"
     style="fill:#f5d080;stroke-width:0.968759"
     id="path7764" />
  <path
     d="m 2306.876,742.48577 c -5.6186,-2.22814 -12.3031,-2.32502 -18.2125,-2.61564 -5.5221,-0.29063 -13.1753,-1.64688 -18.116,1.35626 a 1.317513,1.317513 0 0 0 -0.097,2.13127 c 4.1656,3.68128 11.6251,3.58441 16.7597,4.26254 0.1937,0 0.3874,0.0968 0.5811,0.0968 a 15.653508,15.653508 0 0 0 -1.6467,4.65005 45.530924,45.530924 0 0 0 -1.2597,6.10319 5.1865451,5.1865451 0 0 0 4.069,5.90942 c 3.4876,0.67814 6.0063,-2.13126 5.9095,-5.42505 0,-1.84064 -0.097,-3.77816 -0.1938,-5.61881 a 24.396854,24.396854 0 0 0 -0.4844,-4.65004 c 3.2936,0.58126 6.6845,1.16251 9.9782,1.6469 4.65,0.77501 7.2657,-6.00632 2.7125,-7.84696 z"
     style="fill:#005ca9;stroke-width:0.968759"
     id="path7766" />
  <path
     d="m 2219.6877,760.21407 c 2.8094,-1.06564 3.6813,-3.77816 3.0032,-6.49068 0.3875,1.84065 0.097,-0.77501 0,-1.25939 -0.097,-1.25939 -0.1938,-2.51878 -0.1938,-3.77817 a 22.116782,22.116782 0 0 0 -0.8719,-6.10319 c 6.6844,0.77502 13.3689,1.45316 20.0532,2.22817 6.0065,0.67813 7.6532,-8.62198 1.647,-9.20323 -7.7499,-0.77501 -15.4032,-1.25939 -23.1535,-1.74377 -7.4593,-0.48437 -15.8875,-2.32502 -23.2501,-0.67812 -1.4531,0.29062 -1.8406,2.71253 -0.6781,3.48753 5.3282,3.48753 12.3033,4.26254 18.6971,5.03755 -1.2595,2.03438 -1.647,4.8438 -1.9375,7.07195 a 22.423975,22.423975 0 0 0 0.097,8.42821 c 0.6779,2.71252 4.1657,3.87503 6.5875,3.00314 z"
     style="fill:#005ca9;stroke-width:0.968759"
     id="path7768" />
  <path
     d="m 2290.4071,810.00831 a 13.723449,13.723449 0 0 0 -2.2281,1.35627 c -11.2376,-10.65635 -26.7377,-17.43768 -41.9473,-19.7627 -12.8844,-2.0344 -33.3253,1.93753 -34.9722,17.82518 a 7.7555017,7.7555017 0 0 0 -6.4907,0.87189 c -1.1626,0.67813 -0.6782,2.13128 0.1938,2.71252 1.4531,0.96876 3.2937,1.45314 4.65,2.51878 1.4531,1.16251 1.8406,2.80939 2.5188,4.35943 a 3.7950187,3.7950187 0 0 0 3.9718,2.51876 c 1.9377,-0.19375 3.9719,-2.13127 3.4876,-4.16566 a 12.797314,12.797314 0 0 0 -4.65,-6.97508 c 3.5845,-5.13441 5.8125,-9.78447 12.1095,-12.30325 6.2,-2.42189 13.3689,-1.55 19.7626,-0.0968 11.722,2.61565 26.3503,9.78449 33.616,19.76271 0.097,0.0969 0.097,0.19375 0.1937,0.29063 -0.2904,0.3875 -0.5812,0.87187 -0.8717,1.25939 -2.9064,4.26253 3.0031,9.59071 6.2,5.32817 2.9062,-3.77817 5.7156,-8.91258 6.3938,-13.65952 0.2907,-1.16251 -0.872,-2.4219 -1.9376,-1.84065 z"
     style="fill:#005ca9;stroke-width:0.968759"
     id="path7770" />
  <path
     d="m 359.95867,555.63442 -38.11231,216.65039 c 0,0 -141.4466,-2.2686 -213.92805,-36.63774 z"
     style="opacity:0.5;isolation:isolate;fill:#42210b;stroke-width:1.1343"
     id="path7772" />
  <path
     d="m 359.95867,555.63442 c 0,0 -34.2557,160.84306 -52.85814,202.24483 0,0 -96.18824,13.38469 -199.29566,-22.11874 l 41.74207,-221.07413 z"
     style="fill:#f3c460;stroke-width:1.1343"
     id="path7774" />
  <path
     d="m 352.92606,587.73499 c 4.31031,-19.28303 7.03261,-31.98712 7.03261,-31.98712 l -210.41173,-41.06149 -5.55805,29.60511 z"
     style="fill:#f5d080;stroke-width:1.1343"
     id="path7776" />
  <path
     d="m 194.57846,616.43265 c 0.11341,2.94918 0.45372,5.89834 0.794,8.84751 1.1343,7.37293 2.72231,16.78755 9.07437,21.43818 3.74317,2.7223 7.59976,-1.70145 6.91918,-5.3312 -0.56714,-2.94916 -2.15515,-5.21774 -3.28943,-7.94005 a 50.540901,50.540901 0 0 1 -2.94918,-10.7758 c -1.36116,-7.25951 -1.02087,-14.63242 -1.1343,-21.89191 -0.11341,-4.08345 -6.12519,-6.23862 -8.0535,-2.15516 a 126.01758,126.01758 0 0 1 -9.64149,15.88014 c -3.97005,5.44461 -9.30123,9.30123 -13.49813,14.51897 -1.47457,1.81486 -0.22686,5.21776 2.49546,4.31034 7.59978,-2.83575 13.95183,-9.52808 19.28302,-16.90102 z"
     style="fill:#005ca9;stroke-width:1.1343"
     id="path7778" />
  <path
     d="m 287.70408,645.92433 c -2.83573,-6.91919 -7.14605,-12.47724 -9.30122,-19.85016 -2.15516,-7.59978 -2.04172,-15.19956 -2.83573,-22.91277 -0.45371,-4.1969 -6.80578,-5.78491 -7.94007,-1.02087 -1.92831,8.0535 -7.03264,15.19956 -12.13696,21.55161 -4.31031,5.33119 -10.7758,10.20867 -13.72498,16.56072 a 2.5900495,2.5900495 0 0 0 3.51634,3.51631 c 6.69232,-3.0626 12.25038,-10.54894 16.78754,-16.10699 a 66.462887,66.462887 0 0 0 4.1969,-5.67148 c 1.02087,11.91011 4.99091,24.04706 13.15783,30.39912 3.97003,2.72229 10.09523,-2.04174 8.28035,-6.46549 z"
     style="fill:#005ca9;stroke-width:1.1343"
     id="path7780" />
  <path
     d="m 272.8448,687.09923 c -4.87745,0.45374 -7.48632,4.53719 -10.32208,8.05352 a 42.877604,42.877604 0 0 1 -11.11608,9.07436 44.473218,44.473218 0 0 1 -25.52163,5.55804 34.142282,34.142282 0 0 1 -21.89191,-9.98179 c -7.14604,-7.37293 -7.37293,-17.35472 -9.75493,-26.76938 a 3.0456959,3.0456959 0 0 0 -5.55806,-0.68056 c -11.5698,23.25304 11.9101,45.82552 33.34829,49.22839 a 57.758309,57.758309 0 0 0 33.802,-5.10433 c 7.7132,-3.62973 26.20221,-17.24127 19.85017,-27.56337 a 3.1052464,3.1052464 0 0 0 -2.83577,-1.81488 z"
     style="fill:#005ca9;stroke-width:1.1343"
     id="path7782" />
  <g
     id="g23960">
    <g
       id="g23954">
      <rect
         x="29.302834"
         y="-67.018181"
         width="2046.49"
         height="1418.5383"
         style="fill:none"
         id="rect23952" />
    </g>
  </g>
  <g
     id="g20836">
    <rect
       x="0.31079999"
       y="0.2085"
       width="2046.49"
       height="1418.5383"
       style="fill:none"
       id="rect7530" />
  </g>
  <path
     d="m 529.45766,124.51386 c -3.5313,-5.1167 -4.7471,-13.2822 -6.418,-19.5767 -2.5293,-13.293899 -2.709,-43.997499 -3.8789,-44.574699 -0.004,-0.5835 -7.4776,-1.1235 -9.81,-0.5264 -1.28,0.7081 0.7207,23.5787 0.7764,33.0347 0.6172,5.834 3.6992,33.602099 -1.4356,34.099099 -3.6152,0.6045 -8.2636,-15.5962 -9.457,-20.1421 -4.6445,-15.617099 -8.8018,-27.734799 -10.0664,-44.421799 -0.0176,-3.0357 -0.6289,-7.585 0.5224,-10.5108 1.0372,-2.3408 1.0547,0.5777 1.6475,2.3252 2.51,9.7925 4.2051,20.1734 6.6006,30.6665 -1.2178,-8.6323 -2.44,-17.9648 -3.544,-27.1816 -0.6015,-2.9151 -1.2021,-5.8306 1.0069,-7.5947 8.1308,-6.9351 36.499,-7.1006 39.375,5.6079 1.3047,3.3779 0.1152,19.73 0.1357,23.1147 a 278.0051,278.0051 0 0 0 3.169,42.828099 c 1.1967,5.1299 -6.2643,6.9248 -8.6236,2.8526 z"
     style="fill:#f5d080;fill-opacity:1"
     id="path7805" />
  <path
     d="m 591.68026,123.44986 c -1.1435,3.9766 -8.7393,2.8535 -12.125,2.8731 -3.5059,-0.68 -8.0547,0.0468 -8.7822,-4.6187 -0.6045,-3.499 9.0019,-57.842799 -3.166,-62.324699 -3.3955,-1.7314 -7.33,24.209 -4.9844,46.143999 a 134.9716,134.9716 0 0 1 1.2568,15.17 c 0.0137,2.3349 -1.1386,5.0268 -3.3525,5.74 -3.0322,0.6016 -17.9824,-0.5957 -17.4229,-4.5684 0.5635,-3.5058 6.2881,-2.955 8.7364,-3.5532 a 23.004,23.004 0 0 1 -4.8506,-10.83 c -4.0742,-17.954999 -3.5723,-31.967299 -1.9112,-47.388199 -0.008,-1.2841 0.9825,-11.68 2.2666,-11.6875 0.584,-0.003 0.6192,5.9507 0.6211,6.3008 0.5323,11.2046 0.1319,22.648 2.4141,33.6089 -1.2314,-10.9673 -1.8965,-24.8559 3.1836,-34.5757 4.7324,-9.3672 16.7432,-11.8886 24.3721,-4.8125 7.6289,6.8438 8.29,20.1494 8.8173,30.5367 0.0743,12.6084 -2.76,27.218199 -4.79,39.255299 5.0098,-1.6634 10.8604,0.6373 9.7168,4.7301 z"
     style="fill:#f5d080;fill-opacity:1"
     id="path7807" />
  <path
     d="m 643.23396,54.735061 c -2.4238,4.5674 -17.96,3.0239 -26.7021,5.41 -3.9659,0.6065 12.956,19.5371 13.46,25.9556 0.0274,4.5527 -7.9394,19.659999 -10.7148,24.345699 -2.8779,7.022 23.5947,2.1973 24.3223,6.8633 0.0136,2.2178 -12.7872,9.2973 -38.1211,9.4453 -5.253,0.0308 -8.7657,-1.7 -8.7989,-7.42 a 26.1426,26.1426 0 0 1 0.543,-7.0083 c 2.28,-9.3526 7.3633,-18.604999 12.5771,-25.523899 2.8985,-3.52 1.751,-0.01 0.6006,2.7983 -1.7216,5.2637 -4.0263,10.531199 -6.2129,15.796899 2.7774,-4.1016 15.4288,-16.901399 15.4151,-19.235899 -0.02,-3.5024 -22.0723,-21.2363 -23.2988,-31.1528 -1.2237,-9.7988 12.0849,-9.8765 20.1406,-9.9233 8.1718,-0.0482 28.3973,4.9699 26.7899,9.6491 z"
     style="fill:#f5d080;fill-opacity:1"
     id="path7809" />
  <path
     d="m 728.59436,97.433861 a 164.4077,164.4077 0 0 1 -2.93,17.996099 c -1.1406,4.56 -1.583,8.6484 -6.2461,9.8428 -3.9629,1.3076 -7.5889,0.0444 -9.2461,-3.9151 -1.7832,-5.36 -2.8672,-11.0747 -4.7637,-16.084 -2.8672,-11.073699 -6.5537,-22.609999 -10.5879,-33.677199 a 185.942,185.942 0 0 0 -0.291,30.122099 138.1581,138.1581 0 0 0 0.5479,13.89 c 0.0166,2.9185 1.9218,9.2114 -0.9893,10.5127 -5.7109,1.668 -12.3369,-33.434599 -14.1455,-43.347699 -1.9248,-9.6782 -3.623,-20.76 -2.0469,-30.5751 0.668,-5.7251 1.8721,0.5722 1.8858,2.9072 1.207,6.8808 2.3017,14.3467 3.63,21.9272 -0.044,-7.5884 0.8759,-30.0093 7.7636,-30.0493 7.4678,-0.6274 11.1446,9.1582 13.9824,15.4458 a 205.0453,205.0453 0 0 1 10.67,27.7236 90.2617,90.2617 0 0 0 0.3447,-20.9 c -1.0918,-6.8813 -3.46,-12.705 -4.7813,-19.0019 -1.0849,-5.8306 5.7911,-8.0889 8.27,-3.4341 3.415,5.1177 5.0908,11.9956 6.875,17.8228 2.9812,10.8399 3.0437,21.4634 2.0584,32.7941 z"
     style="fill:#f5d080;fill-opacity:1"
     id="path7811" />
  <path
     d="m 752.92046,124.26046 c -2.4365,2.8159 -5.8281,1.6684 -8.1748,-0.5362 -6.3554,-8.7192 -8.2978,-21.3164 -9.4091,-31.816899 a 160.4471,160.4471 0 0 1 -0.2393,-40.977 c 0,0 0.33,-3.5044 0.8,-2.9238 1.752,-0.01 1.6484,22.4062 2.2432,24.271 0.5468,-6.4244 1.7949,-12.6192 2.69,-19.1622 0.7822,-5.9589 1.4766,-7.0141 3.9189,-8.7788 1.043,-1.0566 2.4541,0.6861 3.0479,2.4336 1.0625,1.8614 1.7637,22.0547 3.1357,36.99 1.2551,15.0537 3.6038,37.454899 1.9875,40.500299 z"
     style="fill:#f5d080;fill-opacity:1"
     id="path7813" />
  <path
     d="m 806.84526,122.19386 c -1.1435,3.9765 -8.7382,2.8535 -12.124,2.873 -3.5058,-0.68 -8.0556,0.0474 -8.7832,-4.6186 -0.6045,-3.4991 9.0029,-57.842299 -3.166,-62.324299 -3.3955,-1.7319 -7.33,24.209 -4.9844,46.143599 a 134.9722,134.9722 0 0 1 1.2569,15.17 c 0.0136,2.335 -1.1387,5.0269 -3.3526,5.7407 -3.0322,0.6011 -17.9824,-0.5957 -17.4228,-4.5683 0.5635,-3.5059 6.2881,-2.9556 8.7353,-3.5537 a 23.0139,23.0139 0 0 1 -4.85,-10.83 c -4.0742,-17.954599 -3.5722,-31.966799 -1.9111,-47.387699 -0.008,-1.2842 0.9824,-11.6807 2.2666,-11.688 0.584,-0.003 0.6191,5.9507 0.6211,6.3008 0.5322,11.2046 0.1318,22.6479 2.414,33.6093 -1.2314,-10.9677 -1.8964,-24.8564 3.1836,-34.5761 4.7325,-9.3667 16.7432,-11.8887 24.3731,-4.8125 7.6289,6.8442 8.29,20.15 8.8174,30.5366 0.0742,12.6084 -2.76,27.218299 -4.79,39.255399 5.0097,-1.6636 10.8597,0.6372 9.7161,4.7298 z"
     style="fill:#f5d080;fill-opacity:1"
     id="path7815" />
  <path
     d="m 834.88246,124.71596 c -12.7136,1.8257 -19.3136,-8.6435 -21.6026,-20.7721 -2.4131,-13.411699 -1.9072,-26.724199 -0.8174,-40.039099 0.5557,-4.79 1.1123,-9.3467 1.669,-14.02 -0.007,-1.2842 0.5674,-2.9219 1.04,-1.8736 1.2988,2.4439 0.1123,19.2627 0.1406,24.0494 1.2422,-7.1294 2.9522,-14.1441 6.419,-20.4683 1.62,-2.3447 5.6719,-8.2056 9.7588,-8.23 13.4248,-0.0781 16.916,17.9971 18.1484,29.0811 2.5488,16.6805 6.832,50.395199 -14.7558,52.272599 z m 2.6552,-45.313399 c -0.0342,-5.837 -0.0722,-12.2579 -1.2763,-18.5552 -0.5977,-2.4483 -2.39,-9.3262 -4.7305,-10.48 -3.3789,1.1875 -4.6162,9.25 -5.1787,12.8726 -0.5508,5.7241 -1.0977,12.1479 -0.4805,17.8647 3.7272,-1.6562 7.461,-1.9108 11.666,-1.7021 z m -0.5,14.48 c -3.5049,-0.5639 -6.8945,-1.1274 -11.1006,-1.687 0.6143,5.2505 0.6582,12.838399 4.3047,17.486799 3.9991,5.1138 5.6973,-4.1191 6.2627,-7.041 a 43.553,43.553 0 0 0 0.5332,-8.758899 z"
     style="fill:#f5d080;fill-opacity:1"
     id="path7817" />
  <path
     d="m 890.85706,73.371261 c -4.6661,0.61 -2.4317,-16.6812 -4.2,-19.5894 -1.7471,0.5938 -8.628,1.8013 -9.793,2.3921 -2.207,1.7637 -2.708,16.127 -2.083,23.0108 8.6455,1.1172 13.1924,-0.0767 12.6582,8.5659 0.0469,8.0557 -8.0186,6.3511 -12.5811,4.7432 0.4932,4.5507 1.1621,19.022899 1.751,20.069999 1.7686,2.9082 15.6319,-2.31 15.6719,4.5786 0.0332,5.72 -11.5176,6.9551 -15.6006,7.563 -3.3848,0.0195 -9.2226,0.0537 -11.4648,-4.02 -2.3545,-3.3715 -11.8321,-47.096099 -7.8809,-70.235799 -0.006,-1.0508 1.001,-8.645 2.1943,-3.9824 1.2041,6.2978 1.2422,12.7187 1.8614,19.0195 0.5537,-5.2568 1.1074,-10.397 2.831,-15.0771 1.7276,-3.9795 5.11,-4.5835 9.19,-5.7744 6.8818,-1.2076 20.06,-3.5025 22.459,7.3408 1.1907,4.0803 -2.2116,21.3786 -5.0134,21.3952 z"
     style="fill:#f5d080;fill-opacity:1"
     id="path7819" />
  <path
     d="m 919.98686,123.28536 c -2.4345,2.8164 -5.8271,1.6684 -8.1748,-0.5362 -6.3554,-8.7192 -8.2978,-21.3159 -9.4082,-31.816899 a 160.3609,160.3609 0 0 1 -0.2392,-40.977 c 0,0 0.3291,-3.5044 0.7988,-2.9238 1.752,-0.01 1.6484,22.4062 2.2432,24.271 0.5468,-6.4244 1.7949,-12.6192 2.69,-19.1622 0.7822,-5.9589 1.4766,-7.0136 3.9189,-8.7788 1.044,-1.0566 2.4551,0.6861 3.0489,2.4336 1.0625,1.8618 1.7636,22.0552 3.1347,36.99 1.2553,15.0535 3.604,37.455299 1.9877,40.500299 z"
     style="fill:#f5d080;fill-opacity:1"
     id="path7821" />
  <path
     d="m 971.87886,52.817061 c -2.4238,4.5679 -17.9609,3.0239 -26.7031,5.41 -3.9668,0.6064 12.9561,19.5371 13.46,25.956 0.0273,4.5527 -7.9395,19.659199 -10.7149,24.345199 -2.8779,7.022 23.5957,2.1978 24.3233,6.8633 0.0137,2.2178 -12.7881,9.2979 -38.1211,9.4453 -5.2539,0.0308 -8.7666,-1.7 -8.8,-7.42 a 26.1348,26.1348 0 0 1 0.543,-7.0083 c 2.28,-9.3525 7.3632,-18.604999 12.5771,-25.523899 2.8975,-3.5195 1.751,-0.01 0.6006,2.7983 -1.7217,5.2637 -4.0264,10.5313 -6.2129,15.796899 2.7773,-4.101599 15.4287,-16.901399 15.415,-19.235799 -0.02,-3.5025 -22.0722,-21.2364 -23.2988,-31.1529 -1.2236,-9.7988 12.085,-9.8764 20.1406,-9.9233 8.1717,-0.0481 28.3983,4.9705 26.7912,9.6492 z"
     style="fill:#f5d080;fill-opacity:1"
     id="path7823" />
  <path
     d="m 1048.8452,97.549461 c -0.539,7.591299 -1.6591,15.653299 -6.7617,21.520999 -8.122,8.6865 -22.0312,5.85 -27.9258,-3.9233 -5.0664,-8.0264 -6.4189,-19.692399 -7.5263,-29.493199 -0.6553,-12.1382 -1.3164,-25.3262 0.832,-37.4805 0.6758,-4.09 1.29,1.043 1.3008,2.9107 0.5,5.7183 1.125,12.6025 1.7422,18.4365 1.1269,-6.895 6.1455,-27.2383 20.1543,-27.32 13.7754,-0.0806 16.2246,19.5185 17.456,30.4853 0.6321,8.1687 1.2666,16.9216 0.7285,24.8635 z m -18.1406,-47.8774 c -4.7861,0.0278 -10.1982,13.019 -10.2715,20.374 -0.066,8.64 0.3008,51.483899 11.667,38.691899 3.4776,-4.2231 2.7989,-20.329999 3.3565,-24.886199 -0.044,-7.5879 -0.2032,-34.7896 -4.752,-34.1797 z"
     style="fill:#f5d080;fill-opacity:1"
     id="path7825" />
  <path
     d="m 1103.1304,56.721361 a 4.8608,4.8608 0 0 1 -4.5332,3.5288 c -4.082,0.6074 -8.6484,-1.7 -12.74,-2.8442 2.9863,11.54 3.0566,23.5649 2.54,35.1259 -0.5508,5.7237 -2.7383,31.070799 -6.707,31.094299 -12.7256,0.0742 -16.8965,-34.458999 -15.81,-48.241699 -0.01,-1.1675 0.9707,-13.7813 2.1377,-13.7881 1.167,-0.007 1.2217,9.0991 1.2246,9.6831 0.037,6.42 0.074,12.7246 1.2783,19.022 a 104.8149,104.8149 0 0 0 5.2442,18.415499 c -2.3155,-16.681599 -4.1534,-31.614699 -1.3535,-51.828099 -4.0889,-0.56 -16.6905,0.6816 -19.0323,-0.4722 -6.3213,-2.8823 6.83,-9.8472 8.5752,-11.0249 11.41,-5.2026 27.0528,-5.2939 36.2207,5.0425 1.761,1.7412 3.5227,3.3652 2.9553,6.2871 z"
     style="fill:#f5d080;fill-opacity:1"
     id="path7827" />
  <path
     d="m 1147.8658,100.00696 c 0.034,5.72 0.073,12.4913 0.1074,18.3287 0.037,6.4209 -7.7842,6.4668 -8.626,2.2685 -0.3584,-1.5156 -2.9834,-11.3071 -3.5879,-14.8061 a 16.4435,16.4435 0 0 1 -14.3691,-1.5508 c -0.9112,3.9751 -1.586,8.4155 -2.8428,13.0928 -0.4531,2.3374 -1.3623,6.5459 -4.5166,6.2138 -6.7754,-0.6611 -6.0684,-39.541999 -5.4736,-57.757299 0.2021,-5.3721 2.8984,-23.3667 5.0068,-22.2119 1.17,0.46 0.057,9.6894 0.063,10.8569 -0.4092,9.81 0.083,14.2432 0.1269,21.7144 1.1065,-10.3965 3.2744,-38.895496 18.1319,-33.8452 5.8505,2.3 8.2255,9.0581 9.8935,14.769 2.3799,7.9248 5.299,27.9883 6.086,42.927199 z m -14.5215,-7.853999 c -1.2178,-8.6323 -2.8985,-16.5615 -4.7,-25.1894 -2.1651,9.1182 -3.8662,17.7676 -5.4473,26.8833 a 22.3545,22.3545 0 0 1 6.2979,-1.2046 10.6089,10.6089 0 0 1 3.8494,-0.4893 z"
     style="fill:#f5d080;fill-opacity:1"
     id="path7829" />
  <path
     d="m 1203.6411,94.661261 a 164.4135,164.4135 0 0 1 -2.93,17.996599 c -1.1407,4.56 -1.5831,8.648 -6.2461,9.8428 -3.9629,1.3071 -7.5889,0.0444 -9.2461,-3.9155 -1.7832,-5.36 -2.8672,-11.0742 -4.7637,-16.0835 -2.8672,-11.074199 -6.5537,-22.609999 -10.5879,-33.677799 a 185.9488,185.9488 0 0 0 -0.291,30.1226 138.1411,138.1411 0 0 0 0.5478,13.889999 c 0.017,2.9185 1.9219,9.212 -0.9892,10.5132 -5.7119,1.6675 -12.3379,-33.434499 -14.1465,-43.347599 -1.9248,-9.6787 -3.623,-20.76 -2.0469,-30.5757 0.668,-5.7246 1.8721,0.5727 1.8858,2.9077 1.207,6.8809 2.3017,14.3462 3.63,21.9273 -0.044,-7.5884 0.8759,-30.01 7.7646,-30.05 7.4678,-0.6269 11.1445,9.1582 13.9824,15.4463 a 205.021,205.021 0 0 1 10.67,27.7232 90.2519,90.2519 0 0 0 0.3448,-20.8994 c -1.0918,-6.8819 -3.46,-12.7056 -4.7813,-19.002 -1.0849,-5.831 5.791,-8.0889 8.27,-3.4341 3.415,5.1172 5.0908,11.9956 6.875,17.8228 2.9802,10.8395 3.0427,21.4631 2.0583,32.7931 z"
     style="fill:#f5d080;fill-opacity:1"
     id="path7831" />
  <path
     d="m 1211.3169,109.32686 c 3.249,-3.5215 8.7246,-5.5381 12.3643,-2.0572 7.6308,7.3106 -0.2324,20.0821 -9.8408,14.1841 -4.337,-2.8935 -6.4659,-7.6679 -2.5235,-12.1269 z"
     style="fill:#f5d080;fill-opacity:1"
     id="path7833" />
  <path
     d="m 1233.6158,109.19646 c 3.249,-3.5215 8.7246,-5.5381 12.3642,-2.0571 7.6309,7.31 -0.2324,20.082 -9.8408,14.1845 -4.3369,-2.894 -6.4658,-7.6679 -2.5234,-12.1274 z"
     style="fill:#f5d080;fill-opacity:1"
     id="path7835" />
  <path
     d="m 1255.9146,109.06656 c 3.249,-3.5215 8.7236,-5.5381 12.3633,-2.0571 7.6308,7.3105 -0.2325,20.082 -9.84,14.1841 -4.3368,-2.8936 -6.4657,-7.668 -2.5233,-12.127 z"
     style="fill:#f5d080;fill-opacity:1"
     id="path7837" />
  <path
     d="m 564.5291,919.3 c -8.7137,0.3322 -25.3217,5.8488 -25.3851,5.7892 a 167.8416,167.8416 0 0 0 -16.4943,-13.76 c -2.0317,-1.4736 -5.6022,-0.3983 -5.7244,2.4053 q -0.4758,10.904 -0.8044,21.8125 -10.8583,5.2668 -21.4672,11.0512 c -2.46,1.3431 -3.133,5.57 0.0644,6.6208 q 10.34,3.397 20.8009,6.3987 -0.1989,10.8171 -0.2846,21.6363 a 3.7541,3.7541 0 0 0 0.6354,2.1625 3.8805,3.8805 0 0 0 6.5914,1.7733 q 8.6088,-9.4749 16.7586,-19.3364 9.0356,2.164 18.1411,4.02 c 4.3868,0.8908 12.395,3.9807 15.6326,-0.854 3.244,-4.8442 -3.7747,-10.647 -6.4741,-13.9115 -3.202,-3.8723 -6.4337,-7.7209 -9.7362,-11.5083 6.1242,-8.1793 6.5272,-8.5734 12.2022,-17.0754 2.3987,-3.5942 -0.1854,-7.3873 -4.4563,-7.2242 z"
     style="fill:#ffd88e"
     id="path7839" />
  <path
     d="m 1369.0648,333.0335 c -9.737,-5.8335 -31.7674,-11.6276 -31.7941,-11.7377 a 218.4953,218.4953 0 0 0 -8.2,-26.73 c -1.1675,-3.0512 -5.825,-4.4176 -7.9517,-1.4478 q -8.2719,11.5506 -16.3867,23.2106 -15.5838,-1.9782 -31.2638,-3.2147 c -3.6372,-0.2849 -7.3767,3.8456 -4.6375,7.2644 q 8.8581,11.056 18.13,21.7669 -7.9081,11.6528 -15.6946,23.388 a 4.8873,4.8873 0 0 0 -0.8449,2.81 c -1.3425,3.0395 1.5591,7.76 5.9258,6.62 q 16.1234,-4.2095 32.0212,-9.1666 8.3129,8.7842 16.9209,17.2823 c 4.15,4.09 10.684,13.1536 17.6516,10.1844 6.9815,-2.9752 3.455,-14.2926 2.833,-19.7714 -0.7378,-6.4987 -1.5249,-12.9928 -2.4327,-19.47 12.4932,-4.5635 13.2127,-4.7066 25.4456,-9.9413 5.1707,-2.2148 5.05,-8.1879 0.2779,-11.0471 z"
     style="fill:#ffd88e"
     id="path7841" />
  <path
     d="m 1037.2954,207.2309 c -8.7137,0.3322 -25.3217,5.8488 -25.3851,5.7892 a 167.8416,167.8416 0 0 0 -16.4943,-13.76 c -2.0317,-1.4736 -5.6022,-0.3983 -5.7244,2.4053 q -0.4758,10.904 -0.8044,21.8125 -10.8583,5.2673 -21.4672,11.0521 c -2.46,1.3431 -3.133,5.57 0.0644,6.6208 q 10.34,3.3971 20.8009,6.3987 -0.1989,10.8171 -0.2846,21.6363 a 3.7541,3.7541 0 0 0 0.6354,2.1625 3.8805,3.8805 0 0 0 6.5914,1.7733 q 8.6088,-9.4749 16.7586,-19.3364 9.0356,2.1641 18.1411,4.02 c 4.3868,0.8908 12.395,3.9807 15.6326,-0.854 3.244,-4.8442 -3.7747,-10.647 -6.4741,-13.9115 -3.202,-3.8723 -6.4337,-7.7209 -9.7362,-11.5083 6.1242,-8.1793 6.5272,-8.5734 12.2022,-17.0754 2.3983,-3.5949 -0.1856,-7.3879 -4.4563,-7.2251 z"
     style="fill:#ffd88e"
     id="path7843" />
  <path
     d="m 1556.7339,1122.3112 c -5.2864,-3.1671 -17.2473,-6.3129 -17.2618,-6.3727 a 118.6072,118.6072 0 0 0 -4.4522,-14.5125 c -0.6338,-1.6566 -3.1625,-2.3985 -4.3171,-0.7861 q -4.4912,6.2711 -8.8968,12.6016 -8.4607,-1.074 -16.9739,-1.7453 c -1.9747,-0.1547 -4.0049,2.0878 -2.5178,3.944 q 4.8093,6.0026 9.8431,11.8178 -4.2935,6.3265 -8.5209,12.6979 a 2.6537,2.6537 0 0 0 -0.4588,1.5254 2.7424,2.7424 0 0 0 3.2173,3.5942 q 8.7537,-2.2854 17.3851,-4.9767 4.5132,4.7691 9.1868,9.383 c 2.2529,2.2208 5.8006,7.1414 9.5834,5.5293 3.79,-1.6153 1.8758,-7.76 1.5381,-10.7344 -0.4005,-3.5283 -0.8279,-7.0541 -1.3207,-10.5709 6.7828,-2.4776 7.1735,-2.5553 13.815,-5.3974 2.8073,-1.2019 2.7421,-4.4449 0.1512,-5.9972 z"
     style="fill:#ffd88e"
     id="path7845" />
  <metadata
     id="metadata9102">
    <rdf:RDF>
      <cc:Work
         rdf:about="">
        <dc:title>sinaisthimata-2</dc:title>
      </cc:Work>
    </rdf:RDF>
  </metadata>
</svg>
