<?xml version="1.0" encoding="UTF-8" standalone="no"?>
<svg
   width="100.05861"
   height="101.65604"
   viewBox="0 0 100.05861 101.65604"
   version="1.1"
   id="svg730"
   sodipodi:docname="f0-on.svg"
   inkscape:version="1.2.1 (9c6d41e410, 2022-07-14)"
   xmlns:inkscape="http://www.inkscape.org/namespaces/inkscape"
   xmlns:sodipodi="http://sodipodi.sourceforge.net/DTD/sodipodi-0.dtd"
   xmlns:xlink="http://www.w3.org/1999/xlink"
   xmlns="http://www.w3.org/2000/svg"
   xmlns:svg="http://www.w3.org/2000/svg"
   xmlns:rdf="http://www.w3.org/1999/02/22-rdf-syntax-ns#"
   xmlns:cc="http://creativecommons.org/ns#"
   xmlns:dc="http://purl.org/dc/elements/1.1/">
  <sodipodi:namedview
     id="namedview732"
     pagecolor="#ffffff"
     bordercolor="#000000"
     borderopacity="0.25"
     inkscape:showpageshadow="2"
     inkscape:pageopacity="0.0"
     inkscape:pagecheckerboard="0"
     inkscape:deskcolor="#d1d1d1"
     showgrid="false"
     inkscape:zoom="3.3320106"
     inkscape:cx="21.008337"
     inkscape:cy="53.421199"
     inkscape:window-width="1920"
     inkscape:window-height="1017"
     inkscape:window-x="-8"
     inkscape:window-y="-8"
     inkscape:window-maximized="1"
     inkscape:current-layer="svg730" />
  <defs
     id="defs55">
    <clipPath
       id="clip-path">
      <rect
         x="2.5676999"
         y="-4.1897001"
         width="2044.2332"
         height="1429.7129"
         style="fill:none"
         id="rect2" />
    </clipPath>
    <clipPath
       id="clip-path-2">
      <rect
         x="0.31079999"
         y="0.2085"
         width="2046.49"
         height="1418.5383"
         style="fill:none"
         id="rect5" />
    </clipPath>
    <clipPath
       id="clip-path-3">
      <rect
         x="0.4914"
         y="0.2085"
         width="2046.49"
         height="1418.5383"
         style="fill:none"
         id="rect8" />
    </clipPath>
    <linearGradient
       id="_ÂÁ_Ï_ÌÌ_È_ËÂÌÚ_30"
       x1="973.72803"
       y1="217.1114"
       x2="1279.8972"
       y2="405.211"
       gradientUnits="userSpaceOnUse">
      <stop
         offset="0.1606"
         stop-color="#772d28"
         id="stop11" />
      <stop
         offset="0.3449"
         stop-color="#8e3930"
         id="stop13" />
      <stop
         offset="1"
         stop-color="#d2603c"
         id="stop15" />
    </linearGradient>
    <linearGradient
       id="_ÂÁ_Ï_ÌÌ_È_ËÂÌÚ_33"
       x1="975.55811"
       y1="312.90219"
       x2="1143.3853"
       y2="444.72739"
       gradientUnits="userSpaceOnUse">
      <stop
         offset="0.0135"
         stop-color="#772d28"
         id="stop18" />
      <stop
         offset="0.1554"
         stop-color="#7d302a"
         id="stop20" />
      <stop
         offset="0.5915"
         stop-color="#8a372e"
         id="stop22" />
      <stop
         offset="1"
         stop-color="#8e3930"
         id="stop24" />
    </linearGradient>
    <linearGradient
       id="_ÂÁ_Ï_ÌÌ_È_ËÂÌÚ_30-2"
       x1="828.7381"
       y1="472.54099"
       x2="1247.8842"
       y2="730.0495"
       xlink:href="#_%C3%82%C3%81_%C3%8F_%C3%8C%C3%8C_%C3%88_%C3%8B%C3%82%C3%8C%C3%9A_30" />
    <linearGradient
       id="_ÂÁ_Ï_ÌÌ_È_ËÂÌÚ_30-3"
       x1="937.97528"
       y1="496.49539"
       x2="737.89569"
       y2="766.1582"
       xlink:href="#_%C3%82%C3%81_%C3%8F_%C3%8C%C3%8C_%C3%88_%C3%8B%C3%82%C3%8C%C3%9A_30" />
    <linearGradient
       id="_ÂÁ_Ï_ÌÌ_È_ËÂÌÚ_12"
       x1="1231.5668"
       y1="673.64398"
       x2="1270.8306"
       y2="1060.5385"
       gradientUnits="userSpaceOnUse">
      <stop
         offset="0.2666"
         stop-color="#bb492f"
         id="stop29" />
      <stop
         offset="0.8134"
         stop-color="#a03c2b"
         id="stop31" />
    </linearGradient>
    <linearGradient
       id="_ÂÁ_Ï_ÌÌ_È_ËÂÌÚ_10"
       x1="886.21033"
       y1="1079.295"
       x2="886.21033"
       y2="558.34888"
       gradientUnits="userSpaceOnUse">
      <stop
         offset="0.1829"
         stop-color="#bb492f"
         id="stop34" />
      <stop
         offset="0.8134"
         stop-color="#d2603c"
         id="stop36" />
    </linearGradient>
    <linearGradient
       id="_ÂÁ_Ï_ÌÌ_È_ËÂÌÚ_10-2"
       x1="664.55438"
       y1="1079.3604"
       x2="664.55438"
       y2="558.34888"
       xlink:href="#_%C3%82%C3%81_%C3%8F_%C3%8C%C3%8C_%C3%88_%C3%8B%C3%82%C3%8C%C3%9A_10" />
    <linearGradient
       id="_ÂÁ_Ï_ÌÌ_È_ËÂÌÚ_12-2"
       x1="-2274.3308"
       y1="-526.58221"
       x2="-1997.9337"
       y2="-526.58221"
       gradientTransform="rotate(136.2115,-523.83111,697.56738)"
       xlink:href="#_%C3%82%C3%81_%C3%8F_%C3%8C%C3%8C_%C3%88_%C3%8B%C3%82%C3%8C%C3%9A_12" />
    <linearGradient
       id="_ÂÁ_Ï_ÌÌ_È_ËÂÌÚ_12-3"
       x1="1105.3553"
       y1="554.34039"
       x2="1383.4994"
       y2="554.34039"
       xlink:href="#_%C3%82%C3%81_%C3%8F_%C3%8C%C3%8C_%C3%88_%C3%8B%C3%82%C3%8C%C3%9A_12" />
    <linearGradient
       id="_ÂÁ_Ï_ÌÌ_È_ËÂÌÚ_12-4"
       x1="1230.0594"
       y1="673.56873"
       x2="1269.3973"
       y2="1061.1914"
       xlink:href="#_%C3%82%C3%81_%C3%8F_%C3%8C%C3%8C_%C3%88_%C3%8B%C3%82%C3%8C%C3%9A_12" />
    <linearGradient
       id="_ÂÁ_Ï_ÌÌ_È_ËÂÌÚ_10-3"
       x1="884.05292"
       y1="1079.9833"
       x2="884.05292"
       y2="558.05652"
       xlink:href="#_%C3%82%C3%81_%C3%8F_%C3%8C%C3%8C_%C3%88_%C3%8B%C3%82%C3%8C%C3%9A_10" />
    <linearGradient
       id="_ÂÁ_Ï_ÌÌ_È_ËÂÌÚ_7"
       x1="762.54498"
       y1="654.6286"
       x2="1312.0504"
       y2="246.0475"
       gradientUnits="userSpaceOnUse">
      <stop
         offset="0.2801"
         stop-color="#e27244"
         id="stop44" />
      <stop
         offset="0.8134"
         stop-color="#f2794e"
         id="stop46" />
    </linearGradient>
    <radialGradient
       id="radial-gradient"
       cx="223.35091"
       cy="410.99951"
       r="59.925201"
       gradientTransform="matrix(1,0,0,-1,0,1422)"
       gradientUnits="userSpaceOnUse">
      <stop
         offset="0"
         stop-color="#ff6163"
         id="stop49" />
      <stop
         offset="1"
         stop-color="#c62020"
         id="stop51" />
    </radialGradient>
    <radialGradient
       id="radial-gradient-2"
       cx="160.0694"
       cy="217.8264"
       r="67.1362"
       xlink:href="#radial-gradient" />
  </defs>
  <title
     id="title57">sinaisthimata-2</title>
  <circle
     id="_1_-_click"
     data-name="1 - click"
     cx="49.627224"
     cy="50.569782"
     r="48.359501"
     style="fill:#f3a160;fill-opacity:1" />
  <g
     id="_1"
     data-name="1"
     transform="translate(-546.09415,-1032.6888)">
    <path
       d="m 612.4371,1094.7538 a 0.8361,0.8361 0 0 0 -0.5933,0.1767 1.0887,1.0887 0 0 1 0.0543,-0.5195 c -0.2224,0.3783 -0.4723,0.729 -0.72,1.0823 a 19.0737,19.0737 0 0 0 -1.6426,2.0086 28.1336,28.1336 0 0 1 -8.5181,5.7187 12.4736,12.4736 0 0 0 -3.29,2.0685 c -1.6267,-0.3581 -7.2891,-3.5475 -8.4606,-4.3975 -0.93,-0.6777 -6.1354,-5.8854 -8.18,-6.2434 a 1.76,1.76 0 0 0 0.2817,-0.5861 c -0.4155,0.3349 -0.5922,0.4186 -0.5757,0.3031 -0.06,0.1045 -0.1142,0.2132 -0.1723,0.3208 a 0.5464,0.5464 0 0 0 -0.34,0.4283 c -0.02,0.098 -0.0288,0.192 -0.044,0.2892 -0.0128,0.024 -0.0276,0.047 -0.0386,0.071 -0.002,-0.3281 -0.1624,-0.4558 -0.4814,-0.3807 a 4.5463,4.5463 0 0 1 -0.1113,1.345 8.1823,8.1823 0 0 0 0.5615,0.927 c 0.2849,2.5863 2.0412,4.6658 4.4189,6.1452 1.1513,1.4318 2.148,2.4817 2.5007,2.3472 0.26,-0.081 -1.57,-1.9512 0.746,-0.4754 -0.9826,0.1467 1.0535,1.19 2.5972,1.9023 4.0877,-0.088 5.2451,0.7071 9.37,0.4057 0,0 0.0348,0 0.0983,-0.01 2.2256,-0.32 -0.7028,-0.4858 -0.6386,-0.404 a 0.9531,0.9531 0 0 1 0.3141,-0.2785 c 0.4571,0 0.9692,-0.01 1.58,-0.055 a 1.7454,1.7454 0 0 0 1.2736,0.8744 c 1.6322,0.1406 2.3892,-1.6144 2.8916,-1.66 a 1.3658,1.3658 0 0 0 0.358,-0.1864 1.1039,1.1039 0 0 0 0.2,-0.081 8.5486,8.5486 0 0 1 0.6881,-0.5738 c 0.4589,-0.2426 0.9038,-0.5128 1.3359,-0.7994 0.0538,0.015 0.1668,-0.032 0.2957,-0.209 a 14.8534,14.8534 0 0 0 2.5861,-2.2646 c 0.198,0.066 0.3417,0.1467 0.3063,0.237 a 0.4074,0.4074 0 0 0 -0.13,-0.4411 4.872,4.872 0 0 0 0.9991,-2.1993 c 0.4015,0 0.6807,-1.1428 0.8433,-2.1316 0.7514,-1.3317 0.9243,-2.469 -0.3639,-2.7593 z m -22.4971,11.8309 c -0.3044,-0.096 0.4058,-0.5458 0,0 z m 0.5293,-0.021 a 0.2594,0.2594 0 0 1 0.17,-0.3044 c 0.0453,0.2389 -0.009,0.3416 -0.1693,0.3044 z m 4.5416,0.2768 c -0.1125,0 -0.16,-0.1461 -0.1437,-0.4443 0.0528,0 0.2928,0.4778 0.144,0.4442 z m -0.3758,-0.78 a 10.9783,10.9783 0 0 0 2.8666,-0.5152 1.5441,1.5441 0 0 0 -0.2,0.3184 8.09,8.09 0 0 0 -1.5485,0.707 4.8774,4.8774 0 0 1 -1.1178,-0.5103 z m 2.8575,1.4208 v 0 c -0.0243,-0.062 -0.0614,-1.0033 3e-4,2e-4 z m 1.1788,-0.045 c 0.07,-0.3489 0.1577,-0.355 0.273,-0.02 z m 4.7,-0.4931 c -0.7614,0.4583 -1.2912,0.2279 0,0 z m 0.6228,-0.3709 c -0.0636,-0.091 -0.0715,-0.1289 -0.0691,-0.1583 0.036,-0.012 0.071,-0.026 0.107,-0.038 0.0667,0.03 0.1143,0.1107 -0.0372,0.1963 z m 8.4251,-8.2119 a 0.91,0.91 0 0 1 -0.2921,0.1883 c 0.0917,-0.13 0.1888,-0.2592 0.2738,-0.3875 -0.0116,0.1634 -0.006,0.252 0.019,0.1994 z"
       style="fill:#3d69d8"
       id="path708" />
    <path
       d="m 632.0905,1047.9428 a 53.1575,53.1575 0 0 0 -17.2182,-10.8346 c -5.6764,-2.2886 -12.6765,-2.7719 -17.7021,-4.39 1.2961,0.4167 2.5849,0.861 3.867,1.323 a 7.57,7.57 0 0 0 -2.3032,-0.48 c -0.0195,0.059 0.029,0.1312 0.11,0.2033 -0.0715,0 -0.1457,9e-4 -0.2167,0 a 3.54,3.54 0 0 0 -1.4147,-0.2959 2.7073,2.7073 0 0 1 0.6416,0.3233 c -0.2223,0.01 -0.4435,0.018 -0.6666,0.028 a 43.9084,43.9084 0 0 0 -5.1674,-1.0762 c -0.1266,0 -6.0315,-0.2616 -5.3856,0.3569 -1.5809,0.2212 -2.9124,1.5479 -4.3455,2.3044 -0.6661,0.1332 -1.3285,0.28 -1.9854,0.4357 -0.0324,-0.272 -0.8439,-0.3312 -0.4241,-1.04 -1.2484,0.3483 -7.7286,2.7095 -7.4736,2.9325 a 23.477,23.477 0 0 0 2.5194,-0.779 c -2.4187,0.9734 -10.5432,3.6176 -11.23,6.21 0.132,0.098 0.2506,0.187 0.37,0.2775 -0.0807,0.064 -0.1594,0.1319 -0.2408,0.198 -0.0543,-0.12 -0.121,-0.2213 -0.1674,-0.3515 a 6.3123,6.3123 0 0 1 -0.8354,1.1922 q -0.5572,0.485 -1.1023,0.9992 c -1.3573,1.0071 -2.7946,1.6011 -3.7186,4.0376 a 52.367,52.367 0 0 0 -9.2844,17.2627 33.901,33.901 0 0 0 -1.3259,5.0177 53.2646,53.2646 0 0 0 -1.0915,8.1593 c -0.49,1.1862 -10e-4,9.1878 0.42,10.4876 a 52.3812,52.3812 0 0 0 5.3691,16.2055 c 0.7106,2.4982 3.2052,5.6948 5.06,7.8093 a 52.4231,52.4231 0 0 0 4.7171,5.2541 24.7648,24.7648 0 0 1 2.1688,3.2168 c 0.5414,0.9594 2.1975,1.1421 3.3793,1.4806 a 50.8032,50.8032 0 0 0 30.1062,9.934 c 27.9129,0 49.1385,-23.524 48.624,-50.9976 -0.24,-12.8677 -4.6697,-26.3204 -14.0531,-35.4086 z m 4.2587,11.1055 c 0.0317,0.049 0.0673,0.1 0.1,0.15 -0.0679,0.01 -0.1332,0.01 -0.2029,0.025 0.0382,-0.066 0.0674,-0.1158 0.1029,-0.175 z m -37.5049,-25.2843 a 1.4842,1.4842 0 0 0 0.2386,0.1664 c -0.1442,-0.054 -0.286,-0.1038 -0.4248,-0.152 0.0636,0 0.1219,-0.011 0.1862,-0.014 z m -9.014,-0.4195 c -0.9906,0.61 -1.642,0.6674 -1.9616,0.1893 a 1.2183,1.2183 0 0 1 -0.1827,-0.4386 q 1.0723,0.1256 2.144,0.2493 z m -6.3774,3.2473 c -0.3428,0.1327 -0.0127,0.7131 -0.237,0.528 0.017,-0.107 -0.1229,-0.1651 -0.0477,-0.043 -0.0623,-0.059 -0.1473,-0.1479 -0.28,-0.2946 0.1883,-0.065 0.3754,-0.127 0.5647,-0.1906 z m -7.3068,0.4223 c -0.2139,0.071 -0.4278,0.1473 -0.6428,0.2219 -0.1247,-0.091 -0.25,-0.1853 -0.3686,-0.2836 0.3374,0.02 0.6753,0.042 1.0114,0.062 z m 67.1934,47.2436 c -0.2334,-0.1461 -0.4894,-0.2951 -0.7987,-0.45 a 20.51,20.51 0 0 0 0.4095,5.56 c -0.1761,1.391 -0.404,2.764 -0.6925,4.1158 -1.0009,0.3251 -1.8063,0.8879 -1.0308,2.4835 a 1.56,1.56 0 0 1 0.564,-0.4675 c -0.3465,1.3517 -0.7559,2.6759 -1.2106,3.9782 a 28.2794,28.2794 0 0 0 -2.4572,4.4427 c 0.195,0.093 0.3722,0.1772 0.5445,0.2584 -0.0983,0.2072 -0.2016,0.4095 -0.3018,0.6148 -0.6928,1.4188 -1.4239,2.7567 -2.2159,4.054 -0.1033,0.07 -0.2011,0.1423 -0.3111,0.2078 0.0551,0.012 0.1107,0.013 0.1675,0.021 -0.3789,0.6117 -0.767,1.2154 -1.1715,1.8081 a 3.0543,3.0543 0 0 0 -0.2817,-0.446 50.9381,50.9381 0 0 1 -4.0186,5.8786 c -0.6738,0.7581 -1.3926,1.4679 -2.1211,2.167 0.02,-0.039 0.0367,-0.079 0.0581,-0.1185 a 60.0634,60.0634 0 0 1 -10.0048,7.2665 c 0.0232,0.042 0.0532,0.073 0.0764,0.1142 a 44.4133,44.4133 0 0 1 -8.9733,3.6959 c -0.0159,-0.059 -0.0239,-0.12 -0.04,-0.1783 -1.0157,0.245 -3.3635,0.7815 -3.6788,0.949 0.025,0.043 0.0574,0.068 0.0831,0.1075 q -1.1624,0.2312 -2.3454,0.3991 c -1.0364,-0.08 -2.1,-0.072 -2.4261,-0.062 a 1.0281,1.0281 0 0 1 0.5611,0.2829 44.3325,44.3325 0 0 1 -6.55,0.1607 c -0.2989,-0.3238 -0.885,-0.509 -2.258,-0.6232 a 1.1419,1.1419 0 0 1 0.2425,0.4876 c -0.7682,-0.073 -1.5393,-0.1607 -2.3135,-0.2731 -1.1434,-0.1662 -2.27,-0.3875 -3.3825,-0.6338 a 17.3434,17.3434 0 0 0 -5.743,-1.6456 c -0.624,-0.223 -1.2381,-0.4632 -1.8492,-0.7114 a 2.7776,2.7776 0 0 0 -1.0224,-0.7112 3.4393,3.4393 0 0 0 -1.5229,-0.4015 q -1.0706,-0.5106 -2.1124,-1.0694 c -1.2417,-1.0548 -2.7548,-2.9315 -4.2147,-2.5459 -0.7743,-0.5242 -1.5358,-1.0633 -2.277,-1.63 -1.0284,-0.94 -2.08,-1.9818 -2.3613,-2.252 a 4.9675,4.9675 0 0 0 -1.55,-1.0847 49.473,49.473 0 0 1 -6.2674,-7.1956 c 0.43,-0.3447 0.1027,-0.5787 -0.5115,-0.7352 q -0.5252,-0.7644 -1.0205,-1.5485 c 0.0239,0.017 0.0441,0.025 0.0685,0.041 -0.0893,-0.134 -0.1821,-0.2567 -0.2775,-0.3747 a 48.26,48.26 0 0 1 -5.5365,-12.6043 c -0.2982,-3.4449 -0.6026,-6.9989 -1.5589,-8.8475 a 46.0886,46.0886 0 0 1 0.5885,-11.74 c 0.1895,-1.0579 0.42,-2.0918 0.6679,-3.1142 a 0.1407,0.1407 0 0 1 0.0886,0.01 c 0.1955,-0.8617 0.3607,-1.6733 0.5659,-2.4456 a 46.7885,46.7885 0 0 1 20.2835,-27.2946 2.9366,2.9366 0 0 0 1.0419,-0.6667 c 0.9295,-0.57 1.8815,-1.1018 2.8477,-1.6121 a 12.4574,12.4574 0 0 0 1.9847,-0.9924 q 0.968,-0.4593 1.9549,-0.8776 a 0.7885,0.7885 0 0 1 -0.0507,0.195 q 0.73,-0.2237 1.4587,-0.4492 c -0.0611,-0.082 -0.1222,-0.1649 -0.1834,-0.2463 0.2024,-0.08 0.4059,-0.1576 0.6088,-0.234 a 2.0633,2.0633 0 0 1 -0.0221,0.3575 c 5.803,-1.7019 11.8333,-0.5475 17.335,-2.5905 0.8206,-0.3269 -0.1577,-0.7736 -1.6011,-1.1873 0.2047,-0.014 0.4125,-0.02 0.6177,-0.031 2.2239,1.2912 9.23,5.7919 10.0086,4.2307 2.8831,0.69 3.7887,2.9827 7.8794,2.6735 q 2.0277,1.1475 3.9691,2.3961 c -0.05,0.5035 0.7449,0.8793 1.7654,1.1855 a 59.3193,59.3193 0 0 1 10.3354,8.9537 5.3479,5.3479 0 0 0 0.9246,1.0456 c 0.9246,1.0792 1.807,2.1913 2.6271,3.3445 1.0414,2.9333 2.4664,7.6907 4.3534,7.6436 0.2512,0.5684 0.4846,1.1471 0.7107,1.7275 a 8.2359,8.2359 0 0 0 -0.005,3.4809 c 0.3967,-0.9643 0.76,-0.6411 1.1233,-0.2646 0.0634,0.2133 0.1117,0.4338 0.1728,0.6483 -1.4758,0.7553 0.1865,3.0126 0.0538,4.4946 q 0.4,-0.4154 0.8018,-0.8287 c 0.0843,0.45 0.1553,0.9081 0.2249,1.3652 a 2.157,2.157 0 0 0 -0.9845,-0.1912 q 0.29,1.8057 0.4827,3.6256 a 1.2143,1.2143 0 0 1 0.8727,-0.245 c 0.022,0.2633 0.0538,0.5218 0.07,0.7888 a 1.7724,1.7724 0 0 1 -0.9051,-0.019 c -0.8775,3.0665 -0.54,4.0681 0.9961,3.0274 0,0.4467 -0.0182,0.9031 -0.0294,1.3572 z"
       style="fill:#3d69d8"
       id="path710" />
    <path
       d="m 576.2158,1080.2093 c 0.754,-0.9149 1.3333,-1.7191 0.93,-1.7283 a 3.1851,3.1851 0 0 1 -0.9656,1.0817 c -0.1857,-0.038 1.3425,-2.0118 0.0856,-2.9986 0.002,0.013 -0.0294,0.026 -0.09,0.042 0.0678,-0.01 0.0714,0 -0.1919,0.038 -0.9216,-0.152 0.0494,-0.1662 0.2578,-0.1032 a 2.2726,2.2726 0 0 0 -0.7461,-0.347 1.8186,1.8186 0 0 0 -0.17,0.1692 3.8937,3.8937 0 0 0 -0.5457,-0.9362 3.1532,3.1532 0 0 1 0.8011,0.1675 c -0.0587,-0.1034 -0.1081,-0.3093 -0.0587,-0.2041 0.01,0.024 0.0465,0.046 0.0825,0.072 -0.38,-0.4271 -0.9526,-0.95 -0.91,-0.9215 1.3213,0.21 -2.9522,-1.6163 -5.182,-0.2585 0.1081,-0.083 0.21,-0.1668 0.3214,-0.2481 -0.05,-0.032 -0.2,0.095 -0.4125,0.2983 a 2.4374,2.4374 0 0 0 -0.3984,0.3256 c 0.1,-0.081 0.2059,-0.1582 0.3091,-0.2364 -0.8144,0.81 -2.3477,2.544 -2.7871,1.8381 a 12.2324,12.2324 0 0 0 -0.5567,1.4936 0.2411,0.2411 0 0 0 -0.2023,-0.05 c -0.0794,0.023 0.0171,0.1888 0.1491,0.231 a 8.1635,8.1635 0 0 0 -0.3251,1.6384 2.2418,2.2418 0 0 0 -0.1289,1.7275 c -0.2023,0.5273 0.9471,1.42 2.1669,2.1089 0.07,-0.01 0.2554,0.1155 0.2554,0.1155 1.08,0.6154 2.192,1.0279 2.2164,0.7572 a 1.0535,1.0535 0 0 0 -0.1331,-0.7242 10.0526,10.0526 0 0 0 1.3022,-0.017 c -0.1522,0.2536 -0.3116,0.54 -0.4791,0.8922 -5.487,2.9094 1.0731,-0.3874 1.6518,-1.0382 -0.004,0.02 -0.009,0.039 0.0262,0.074 0.2042,-0.1142 0.2561,-0.1552 0.1651,-0.1166 a 0.3394,0.3394 0 0 0 -0.1632,0.012 l 0.0984,-0.024 c 0.2165,-0.054 0.4235,-0.1106 0.6215,-0.1784 a 4.0481,4.0481 0 0 0 -1.2259,0.99 c 0.3294,0.2848 3.3249,-1.5168 2.9877,-1.6421 a 0.9326,0.9326 0 0 0 -0.8464,0.272 c 0.007,-0.02 0.0294,-0.051 0.0434,-0.077 a 2.6814,2.6814 0 0 0 0.2823,-0.2077 c 0.4779,-0.084 0.8622,-0.6667 1.0975,-1.493 0.1382,-0.1619 0.2781,-0.3256 0.4144,-0.49 0.0158,-0.2318 0.1624,-0.3265 0.2529,-0.3051 z m 0.3459,-2.5209 c 0,0 0.04,-0.011 0.0763,-0.022 -0.0207,0.01 -0.0292,0.01 -0.0763,0.022 z m -5.2255,2.1743 c 0.0318,0.043 0.063,0.086 0.0916,0.1283 -0.146,0.4724 -0.259,0.9087 -0.3513,1.2394 a 3.1637,3.1637 0 0 1 0.2597,-1.3677 z m -1.873,-0.4564 a 7.0845,7.0845 0 0 1 0.34,-0.7364 q 0.1173,-0.1834 0.2578,-0.3612 c 0.0172,0.023 0.0355,0.046 0.0519,0.069 a 7.6518,7.6518 0 0 0 -0.7143,1.8241 1.82,1.82 0 0 1 0.0646,-0.7956 z m 5.3336,-0.8263 a 0.6938,0.6938 0 0 1 0.005,0.2115 c -0.0128,-0.039 -0.0286,-0.078 -0.0415,-0.1167 0.0116,-0.032 0.0256,-0.064 0.036,-0.095 z m -1.0523,-3.9538 c -0.0341,-0.015 -0.0654,-0.03 -0.1,-0.041 0.1062,-0.086 0.3903,-0.1198 0.1,0.041 z m -2.1791,-0.5077 a 0.336,0.336 0 0 1 -0.3379,-0.1247 c 0.0842,-0.022 0.5047,0.091 0.3379,0.1247 z m 0.457,0.3831 a 6.0241,6.0241 0 0 0 -1.5576,0.5909 c 0.2285,-0.3391 0.4076,-0.616 0.3519,-0.5952 a 2.3752,2.3752 0 0 1 1.2057,0 z m -2.45,9.1224 a 2.3566,2.3566 0 0 1 -0.2218,-0.12 c 0.11,0.013 0.2163,0.025 0.3256,0.034 a 0.6154,0.6154 0 0 1 -0.1042,0.086 z m 6.634,-6.9183 c 0.46,0.1217 0.39,0.1989 -0.2164,0.2275 -0.2424,0.011 0.1476,-0.2103 0.216,-0.2275 z"
       style="fill:#3d69d8"
       id="path712" />
    <path
       d="m 627.3612,1080.1683 c 0.0134,0 -0.1833,0.1332 -0.1833,0.2157 a 6.64,6.64 0 0 0 -0.1949,-0.7528 c 0.2163,-0.5745 0.3153,-0.9857 0.1161,-0.98 a 2.4649,2.4649 0 0 1 -0.2517,0.588 c -0.0661,-0.1718 -0.1333,-0.3453 -0.21,-0.5183 a 2.3327,2.3327 0 0 0 -0.3838,-1.66 c -0.0274,0.039 -0.17,0.072 -0.4332,0.095 a 0.1424,0.1424 0 0 1 -0.0544,-0.058 0.61,0.61 0 0 1 0.2029,-0.1778 1.291,1.291 0 0 1 0.2322,0.073 1.6,1.6 0 0 0 -0.2047,-0.1918 c -0.0116,0.014 -0.033,0.024 -0.2383,0.067 -0.0629,-0.01 -0.1149,-0.02 -0.1608,-0.028 -0.0219,-0.037 -0.0471,-0.073 -0.0709,-0.11 a 1.9518,1.9518 0 0 1 0.3783,-6e-4 2.0263,2.0263 0 0 0 -0.5408,-0.25 c -0.165,-0.2476 -0.3337,-0.4914 -0.5035,-0.7322 a 1.8747,1.8747 0 0 1 0.3385,0.08 1.0216,1.0216 0 0 1 -0.1186,-0.198 c -0.44,-0.404 -0.996,-0.8513 -0.9154,-0.7938 1.2437,0.17 -2.9393,-1.532 -4.8477,-0.3148 0.127,-0.1045 0.2376,-0.215 0.3782,-0.314 -0.055,-0.041 -0.209,0.1045 -0.4138,0.3348 a 1.8266,1.8266 0 0 0 -0.3818,0.327 c 0.102,-0.1 0.2315,-0.19 0.344,-0.2861 -0.7321,0.8257 -2.0936,2.6565 -2.4652,1.9086 a 4.7458,4.7458 0 0 0 -0.07,1.9958 1.2594,1.2594 0 0 0 -0.1149,0.226 3.3916,3.3916 0 0 0 1.02,3.7081 1.7058,1.7058 0 0 0 0.2287,0.15 c 0.64,1.2755 1.5142,2.0912 2.5849,1.5712 -1.21,0.8525 0.5157,-0.1717 -0.0153,0.4791 0.1533,-0.187 0.2616,-0.3312 0.3483,-0.4552 a 5.5817,5.5817 0 0 0 2.9467,0.25 c 0.0147,0.2451 0.0379,0.5133 0.0831,0.8268 0.0123,-0.021 0.2915,-0.5586 0.4437,-0.9386 0.1643,-0.043 0.3226,-0.09 0.48,-0.1442 a 1.6436,1.6436 0 0 0 -0.14,0.5927 c 0.2468,0.1032 0.8506,-0.5414 1.2759,-1.1231 a 2.6716,2.6716 0 0 0 1.42,-1.8071 5.0266,5.0266 0 0 0 -0.0911,-1.44 c 0.005,0.025 0.03,0.05 0.0954,0.055 0.7637,0.08 0.286,-0.3935 0.0872,-0.27 z m -0.9093,-2.2806 c -0.3708,-0.8079 0.3752,-0.1473 0,0 z m -5.1551,-3.5273 a 0.2745,0.2745 0 0 1 -0.2818,-0.1527 c 0.0825,-0.014 0.4473,0.1417 0.2818,0.1523 z m 0.5994,0.48 a 7.7545,7.7545 0 0 0 -1.83,0.7744 5.412,5.412 0 0 0 0.4681,-0.9308 2.4143,2.4143 0 0 1 1.3619,0.1567 z m -2.15,-0.01 c 0.1772,-0.4235 -0.1724,0.8 0,0 z m -0.8757,1.4311 a 0.4813,0.4813 0 0 1 0.1693,0.01 c -0.03,0.023 -0.063,0.045 -0.0929,0.067 a 0.138,0.138 0 0 1 -0.0769,-0.073 z m -0.052,7.2793 0.1155,0.1259 c -0.0865,-0.011 -0.6664,-0.09 -0.1159,-0.1256 z m 3.9318,-1.1347 a 1.132,1.132 0 0 1 -0.1961,-0.3411 2.3227,2.3227 0 0 0 0.5958,0.396 c -0.11,0.1042 -0.2424,0.1084 -0.4,-0.055 z"
       style="fill:#3d69d8"
       id="path714" />
    <path
       d="m 612.0161,1100.1473 c -0.0642,0.017 -0.1009,0.026 -0.1191,0.032 0.4123,-0.1106 -0.1437,0.9111 0.1429,0.8 0.0701,-0.034 0.2016,-0.8941 -0.0238,-0.8318 z"
       style="fill:#3d69d8"
       id="path716" />
    <path
       d="m 609.61,1104.09 c 0.2506,-0.1448 0.5176,-0.9166 0.6179,-0.9551 -0.3445,0.1333 -0.4417,0.852 -0.6179,0.9551 z"
       style="fill:#3d69d8"
       id="path718" />
    <path
       d="m 606.4735,1106.35 c 0.2994,0.4314 0.5352,-0.6372 0.3727,-0.6686 -0.0676,-0.013 -0.6031,0.3159 -0.3727,0.6686 z"
       style="fill:#3d69d8"
       id="path720" />
    <path
       d="m 603.8446,1108.2315 c 0.2147,0.6588 0.9783,-0.9087 0.9092,-0.8678 -0.0825,0.063 -1.0409,0.464 -0.9092,0.8678 z"
       style="fill:#3d69d8"
       id="path722" />
    <path
       d="m 598.0044,1108.76 c 0.0536,1.2643 1.513,-0.5244 1.4145,-0.5011 -0.174,0.045 -1.4281,0.061 -1.4145,0.5011 z"
       style="fill:#3d69d8"
       id="path724" />
    <path
       d="m 586.71,1106.3848 c 0.02,0.2438 0.6765,0.3343 0.5836,-0.032 -5e-4,0 -0.5994,-0.2481 -0.5836,0.032 z"
       style="fill:#3d69d8"
       id="path726" />
  </g>
  <metadata
     id="metadata7444">
    <rdf:RDF>
      <cc:Work
         rdf:about="">
        <dc:title>sinaisthimata-2</dc:title>
      </cc:Work>
    </rdf:RDF>
  </metadata>
</svg>
