<?xml version="1.0" encoding="UTF-8" standalone="no"?>
<svg
   width="97.706909"
   height="103.39654"
   viewBox="0 0 97.706909 103.39654"
   version="1.1"
   id="svg730"
   sodipodi:docname="happy-2-on.svg"
   inkscape:version="1.2.1 (9c6d41e410, 2022-07-14)"
   xmlns:inkscape="http://www.inkscape.org/namespaces/inkscape"
   xmlns:sodipodi="http://sodipodi.sourceforge.net/DTD/sodipodi-0.dtd"
   xmlns:xlink="http://www.w3.org/1999/xlink"
   xmlns="http://www.w3.org/2000/svg"
   xmlns:svg="http://www.w3.org/2000/svg"
   xmlns:rdf="http://www.w3.org/1999/02/22-rdf-syntax-ns#"
   xmlns:cc="http://creativecommons.org/ns#"
   xmlns:dc="http://purl.org/dc/elements/1.1/">
  <sodipodi:namedview
     id="namedview732"
     pagecolor="#ffffff"
     bordercolor="#000000"
     borderopacity="0.25"
     inkscape:showpageshadow="2"
     inkscape:pageopacity="0.0"
     inkscape:pagecheckerboard="0"
     inkscape:deskcolor="#d1d1d1"
     showgrid="false"
     inkscape:zoom="0.58902182"
     inkscape:cx="344.63919"
     inkscape:cy="-276.72999"
     inkscape:window-width="1920"
     inkscape:window-height="1017"
     inkscape:window-x="-8"
     inkscape:window-y="-8"
     inkscape:window-maximized="1"
     inkscape:current-layer="svg730" />
  <defs
     id="defs55">
    <clipPath
       id="clip-path">
      <rect
         x="2.5676999"
         y="-4.1897001"
         width="2044.2332"
         height="1429.7129"
         style="fill:none"
         id="rect2" />
    </clipPath>
    <clipPath
       id="clip-path-2">
      <rect
         x="0.31079999"
         y="0.2085"
         width="2046.49"
         height="1418.5383"
         style="fill:none"
         id="rect5" />
    </clipPath>
    <clipPath
       id="clip-path-3">
      <rect
         x="0.4914"
         y="0.2085"
         width="2046.49"
         height="1418.5383"
         style="fill:none"
         id="rect8" />
    </clipPath>
    <linearGradient
       id="_ÂÁ_Ï_ÌÌ_È_ËÂÌÚ_30"
       x1="973.72803"
       y1="217.1114"
       x2="1279.8972"
       y2="405.211"
       gradientUnits="userSpaceOnUse">
      <stop
         offset="0.1606"
         stop-color="#772d28"
         id="stop11" />
      <stop
         offset="0.3449"
         stop-color="#8e3930"
         id="stop13" />
      <stop
         offset="1"
         stop-color="#d2603c"
         id="stop15" />
    </linearGradient>
    <linearGradient
       id="_ÂÁ_Ï_ÌÌ_È_ËÂÌÚ_33"
       x1="975.55811"
       y1="312.90219"
       x2="1143.3853"
       y2="444.72739"
       gradientUnits="userSpaceOnUse">
      <stop
         offset="0.0135"
         stop-color="#772d28"
         id="stop18" />
      <stop
         offset="0.1554"
         stop-color="#7d302a"
         id="stop20" />
      <stop
         offset="0.5915"
         stop-color="#8a372e"
         id="stop22" />
      <stop
         offset="1"
         stop-color="#8e3930"
         id="stop24" />
    </linearGradient>
    <linearGradient
       id="_ÂÁ_Ï_ÌÌ_È_ËÂÌÚ_30-2"
       x1="828.7381"
       y1="472.54099"
       x2="1247.8842"
       y2="730.0495"
       xlink:href="#_%C3%82%C3%81_%C3%8F_%C3%8C%C3%8C_%C3%88_%C3%8B%C3%82%C3%8C%C3%9A_30" />
    <linearGradient
       id="_ÂÁ_Ï_ÌÌ_È_ËÂÌÚ_30-3"
       x1="937.97528"
       y1="496.49539"
       x2="737.89569"
       y2="766.1582"
       xlink:href="#_%C3%82%C3%81_%C3%8F_%C3%8C%C3%8C_%C3%88_%C3%8B%C3%82%C3%8C%C3%9A_30" />
    <linearGradient
       id="_ÂÁ_Ï_ÌÌ_È_ËÂÌÚ_12"
       x1="1231.5668"
       y1="673.64398"
       x2="1270.8306"
       y2="1060.5385"
       gradientUnits="userSpaceOnUse">
      <stop
         offset="0.2666"
         stop-color="#bb492f"
         id="stop29" />
      <stop
         offset="0.8134"
         stop-color="#a03c2b"
         id="stop31" />
    </linearGradient>
    <linearGradient
       id="_ÂÁ_Ï_ÌÌ_È_ËÂÌÚ_10"
       x1="886.21033"
       y1="1079.295"
       x2="886.21033"
       y2="558.34888"
       gradientUnits="userSpaceOnUse">
      <stop
         offset="0.1829"
         stop-color="#bb492f"
         id="stop34" />
      <stop
         offset="0.8134"
         stop-color="#d2603c"
         id="stop36" />
    </linearGradient>
    <linearGradient
       id="_ÂÁ_Ï_ÌÌ_È_ËÂÌÚ_10-2"
       x1="664.55438"
       y1="1079.3604"
       x2="664.55438"
       y2="558.34888"
       xlink:href="#_%C3%82%C3%81_%C3%8F_%C3%8C%C3%8C_%C3%88_%C3%8B%C3%82%C3%8C%C3%9A_10" />
    <linearGradient
       id="_ÂÁ_Ï_ÌÌ_È_ËÂÌÚ_12-2"
       x1="-2274.3308"
       y1="-526.58221"
       x2="-1997.9337"
       y2="-526.58221"
       gradientTransform="rotate(136.2115,-523.83111,697.56738)"
       xlink:href="#_%C3%82%C3%81_%C3%8F_%C3%8C%C3%8C_%C3%88_%C3%8B%C3%82%C3%8C%C3%9A_12" />
    <linearGradient
       id="_ÂÁ_Ï_ÌÌ_È_ËÂÌÚ_12-3"
       x1="1105.3553"
       y1="554.34039"
       x2="1383.4994"
       y2="554.34039"
       xlink:href="#_%C3%82%C3%81_%C3%8F_%C3%8C%C3%8C_%C3%88_%C3%8B%C3%82%C3%8C%C3%9A_12" />
    <linearGradient
       id="_ÂÁ_Ï_ÌÌ_È_ËÂÌÚ_12-4"
       x1="1230.0594"
       y1="673.56873"
       x2="1269.3973"
       y2="1061.1914"
       xlink:href="#_%C3%82%C3%81_%C3%8F_%C3%8C%C3%8C_%C3%88_%C3%8B%C3%82%C3%8C%C3%9A_12" />
    <linearGradient
       id="_ÂÁ_Ï_ÌÌ_È_ËÂÌÚ_10-3"
       x1="884.05292"
       y1="1079.9833"
       x2="884.05292"
       y2="558.05652"
       xlink:href="#_%C3%82%C3%81_%C3%8F_%C3%8C%C3%8C_%C3%88_%C3%8B%C3%82%C3%8C%C3%9A_10" />
    <linearGradient
       id="_ÂÁ_Ï_ÌÌ_È_ËÂÌÚ_7"
       x1="762.54498"
       y1="654.6286"
       x2="1312.0504"
       y2="246.0475"
       gradientUnits="userSpaceOnUse">
      <stop
         offset="0.2801"
         stop-color="#e27244"
         id="stop44" />
      <stop
         offset="0.8134"
         stop-color="#f2794e"
         id="stop46" />
    </linearGradient>
    <radialGradient
       id="radial-gradient"
       cx="223.35091"
       cy="410.99951"
       r="59.925201"
       gradientTransform="matrix(1,0,0,-1,0,1422)"
       gradientUnits="userSpaceOnUse">
      <stop
         offset="0"
         stop-color="#ff6163"
         id="stop49" />
      <stop
         offset="1"
         stop-color="#c62020"
         id="stop51" />
    </radialGradient>
    <radialGradient
       id="radial-gradient-2"
       cx="160.0694"
       cy="217.8264"
       r="67.1362"
       xlink:href="#radial-gradient" />
  </defs>
  <title
     id="title57">sinaisthimata-2</title>
  <ellipse
     id="_2_-_click"
     data-name="2 - click"
     cx="49.189991"
     cy="50.622002"
     rx="48.359501"
     ry="50.622002"
     style="fill:#f3c460" />
  <g
     id="_2-2"
     data-name="2"
     transform="translate(-678.20173,-1032.8902)">
    <path
       d="m 771.9078,1064.4271 c -3.8908,-10.0758 -10.01,-18.7368 -19.5929,-24.0411 a 55.534,55.534 0 0 0 -14.24,-5.3262 c -2.5214,-0.5922 -5.0739,-1.0457 -7.6417,-1.3878 -2.2464,-0.2989 -5.8231,2.0153 -2.5783,2.3606 0.5531,0.059 1.0982,0.132 1.6433,0.2029 2.8464,1.276 8.7105,4.0093 9.2452,2.6509 2.9076,0.4547 3.6794,2.3424 7.596,2.0827 q 2.1265,0.9853 4.1113,2.1455 c -0.0195,0.517 0.88,0.9056 1.9684,1.2258 0.9338,0.6124 1.8443,1.2516 2.7242,1.9256 -0.0831,0.042 -0.15,0.073 -0.15,0.073 a 9.0308,9.0308 0 0 0 2.2923,1.6861 43.9315,43.9315 0 0 1 4.25,4.25 c 0.0488,1.2467 1.7312,2.5317 2.4639,3.0945 0.2378,0.3294 0.479,0.6563 0.71,0.9931 0.9992,2.5574 2.4481,9.3307 4.76,8.8559 0.1869,0.4547 0.366,0.9191 0.5432,1.3835 0.0306,1.0994 -0.37,2.1927 0.0844,3.7357 0.8354,-0.4681 0.8237,-0.1217 1.1959,0.062 0.0263,0.089 0.0526,0.1778 0.0776,0.2658 -1.4647,0.7627 0.2152,2.9455 0.1283,4.4047 0.2646,-0.2866 0.53,-0.5738 0.7939,-0.8591 0.1057,0.4663 0.2028,0.9392 0.2976,1.4134 a 1.9489,1.9489 0 0 0 -1.045,-0.2138 31.932,31.932 0 0 1 0.5964,3.5461 1.0085,1.0085 0 0 1 1.0034,-0.2016 c 0.0343,0.2194 0.0587,0.4375 0.0875,0.6544 a 1.6969,1.6969 0 0 1 -1.0041,0.057 q -1.0843,4.6547 1.1482,2.8776 a 0.8079,0.8079 0 0 0 0.1694,-0.011 c 0.0371,0.51 0.0585,1.015 0.0787,1.52 a 8.5119,8.5119 0 0 0 -1.0358,-0.5408 c -10e-4,1.0322 -0.7455,4.4029 1.0493,3.7723 l -0.003,0.071 c -1.1,1.3291 -0.7926,2.3129 -0.1925,3.0462 -0.0837,0.8288 -0.1949,1.6488 -0.322,2.464 -1.0786,0.3758 -2.0734,0.9416 -1.1415,2.5838 a 1.4868,1.4868 0 0 1 0.7864,-0.5959 q -0.3657,1.8048 -0.8689,3.5572 a 18.2344,18.2344 0 0 0 -2.4609,4.96 c 0.2249,0.093 0.4295,0.1767 0.6209,0.2549 -0.088,0.2077 -0.1711,0.4174 -0.2628,0.6226 -0.0318,-0.016 -0.055,-0.032 -0.088,-0.048 0.002,0.094 -0.009,0.184 -0.011,0.2763 -0.5677,1.276 -1.196,2.5208 -1.8712,3.7369 -0.1155,0.092 -0.2291,0.1838 -0.3563,0.2694 0.0679,0.01 0.1314,0.01 0.1974,0.015 -0.3428,0.61 -0.6979,1.2136 -1.0682,1.8058 a 2.7814,2.7814 0 0 0 -0.2762,-0.3881 c -0.8622,1.386 -1.61,2.9382 -2.4871,4.3767 a 50.977,50.977 0 0 1 -22.2927,16.5875 c -0.4486,0.16 -0.8837,0.3233 -1.2112,0.4436 -1.0641,0.3911 -2.154,0.7047 -3.2474,0.998 -0.8084,0.05 -1.5368,0.1363 -1.79,0.1728 a 1.181,1.181 0 0 1 0.4932,0.1505 44.9385,44.9385 0 0 1 -6.2,1.0186 c -0.3093,-0.3239 -0.888,-0.4528 -2.3252,-0.407 a 1.2045,1.2045 0 0 1 0.3373,0.5469 42.5294,42.5294 0 0 1 -5.1907,-0.076 c -1.1519,-0.7394 -5.8842,-1.469 -6.5814,-1.051 -0.4693,-0.1149 -0.9375,-0.2353 -1.4049,-0.368 -0.5262,-1.3223 -1.57,-2.4871 -2.8032,-0.9075 -0.2309,-0.084 -0.4619,-0.171 -0.6923,-0.26 -1.4415,-1.1616 -4.5215,-3.2937 -5.6832,-2.7829 a 0.2439,0.2439 0 0 1 -0.1448,-0.012 c -0.2817,-0.1649 -0.5647,-0.3313 -0.8457,-0.503 -1.2473,-0.8982 -3.2236,-2.68 -3.6134,-3.0243 a 4,4 0 0 0 -2.0259,-1.0675 c -1.1243,-0.9569 -2.2286,-1.98 -3.3065,-3.0841 -1.0444,-1.072 -2.0142,-2.2031 -2.95,-3.3581 1.0089,-0.6349 0.2713,-0.8965 -0.7877,-0.9856 -0.4082,-0.5311 -0.795,-1.0743 -1.1794,-1.6207 a 4.2473,4.2473 0 0 1 0.6593,0.32 6.095,6.095 0 0 0 -1.2905,-1.22 50.9589,50.9589 0 0 1 -4.7708,-8.8786 c -0.8184,-4.4188 -1.639,-9.838 -3.27,-11.3761 q -0.34,-1.9836 -0.53,-3.9893 a 0.36,0.36 0 0 0 -0.0153,-0.2107 52.8215,52.8215 0 0 1 -0.009,-9.3773 c 0.1809,-1.0022 0.432,-1.6915 0.7914,-1.7569 0.8011,-8.0322 1.3706,-10.9832 5.4173,-18.6365 -0.05,0.02 -0.08,0.018 -0.124,0.034 0.1051,-0.1955 0.2145,-0.3886 0.322,-0.583 0.007,0.045 0.0141,0.081 0.02,0.13 a 32.7882,32.7882 0 0 1 5.2695,-7.1126 3.4772,3.4772 0 0 1 -0.4888,-0.094 c 0.22,-0.2664 0.4467,-0.5261 0.6728,-0.7877 0.7418,-0.074 1.3249,-0.7015 2.65,-1.9169 1.694,-1.5553 3.6818,-2.18 2.7835,-3.3293 0.23,-0.1827 0.47,-0.3642 0.7113,-0.5469 0.0923,0.1454 0.19,0.3 0.294,0.4595 1.2472,-1.0444 4.21,-2.2806 4.33,-3.6318 q 0.3015,-0.1869 0.608,-0.372 a 0.6868,0.6868 0 0 1 0.04,0.4454 q 0.6372,-0.3822 1.2772,-0.7638 c -0.1088,-0.092 -0.2157,-0.1858 -0.3244,-0.2794 0.2022,-0.1191 0.4075,-0.2351 0.6116,-0.3525 a 1.863,1.863 0 0 1 0.0661,0.4229 c 5.2357,-2.7579 11.0045,-2.8416 16.0455,-5.443 0.746,-0.4131 -0.1584,-0.7071 -1.5229,-0.9112 a 17.262,17.262 0 0 1 1.9085,-0.2524 c -0.7615,0.05 -1.5131,0.1179 -2.2563,0.201 a 38.8128,38.8128 0 0 0 -5.08,-0.308 10.5423,10.5423 0 0 0 -3.7362,1.1093 q 0.86,-0.062 1.719,-0.1259 c -0.8414,0.765 -1.4613,0.94 -1.8632,0.5384 a 1.0825,1.0825 0 0 1 -0.1729,-0.2311 23.1233,23.1233 0 0 0 -2.5111,1.8786 42.3671,42.3671 0 0 0 -4.2758,1.9744 c -0.2444,-0.102 -0.6031,-0.1876 -0.424,-0.75 -1.12,0.5994 -6.7881,4.1872 -6.4911,4.3534 0.168,0.097 1.8846,-1.1587 2.2427,-1.238 -2.16,1.4512 -9.2213,5.3531 -9.585,7.9759 0.3783,0.1974 0.7071,0.3648 1.0035,0.51 -0.1272,0.1528 -0.2494,0.31 -0.3746,0.4657 a 4.2587,4.2587 0 0 1 -0.6453,-0.8519 c -1.5235,4.7659 -7.0521,10.26 -8.9917,16.8827 -0.6759,2.313 -3.9972,12.4137 -2.4878,14.2526 -0.1008,-0.12 0.2169,-0.8366 0.5078,-1.6115 -0.0225,0.75 -0.0312,1.6677 -0.0274,2.6907 a 58.3115,58.3115 0 0 0 0.2376,9.4767 c 0.1278,3.121 0.2811,5.6674 0.3881,6.2063 a 2.1118,2.1118 0 0 0 0.5139,-0.5108 54.8868,54.8868 0 0 0 1.64,6.0131 6.6527,6.6527 0 0 0 0.3245,1.1091 c -0.0324,-0.17 -0.0727,-0.3275 -0.1125,-0.4863 0.0513,0.1465 0.0973,0.2945 0.1492,0.44 a 12.6368,12.6368 0 0 0 1.9713,4.739 q 0.7618,1.6087 1.64,3.1648 c 0.5128,3.3868 6.03,8.5922 7.4468,9.9762 a 29.9425,29.9425 0 0 1 5.2793,6.1452 c 0.76,1.2453 3.3995,0.9728 4.3528,1.6322 -0.8708,-0.602 -1.4569,-0.98 -1.851,-1.3126 a 0.8726,0.8726 0 0 0 0.149,0.07 c 1.2064,0.7877 2.453,1.4879 3.6972,2.1712 0.9305,0.5112 1.9573,0.998 2.7792,1.3554 0.0587,0.025 0.1185,0.05 0.1766,0.076 0.5689,0.2444 1.0169,0.4314 1.2015,0.5285 a 4.5015,4.5015 0 0 0 1.4781,0.5323 48.5263,48.5263 0 0 0 45.82,-7.4083 c 19.1324,-14.6433 24.0291,-39.7494 15.5545,-61.6993 z M 707.59,1040.2908 c -0.1291,-0.076 -0.2293,-0.1406 -0.3985,-0.2616 0.1564,-0.1015 0.3245,-0.1907 0.4924,-0.2811 -0.2551,0.2101 0.1489,0.6636 -0.0939,0.5427 z m -6.9207,1.4158 c -0.15,0.1009 -0.2946,0.206 -0.4424,0.308 q -0.18,-0.078 -0.3533,-0.1668 z m -8.347,75.3619 c -0.1839,-0.2267 -0.3678,-0.4541 -0.5475,-0.6838 0.2007,0.038 0.3914,0.2365 0.5478,0.6838 z m -12.7467,-23.0847 c 0.014,0.025 0.0274,0.051 0.04,0.076 a 0.4886,0.4886 0 0 1 -0.0397,-0.076 z m 86.3419,-34.7553 c 0.1223,-0.1944 0.2207,-0.3483 0.3086,-0.4833 0.0912,0.1515 0.1815,0.3055 0.2714,0.4607 a 2.0277,2.0277 0 0 0 -0.5797,0.023 z"
       style="fill:#3d69d8"
       id="path688" />
    <path
       d="m 707.9672,1078.396 c 0.0178,0.025 0.308,0.2652 0.6826,0.5683 0.1174,0.2084 0.2236,0.4254 0.3233,0.6478 -0.2053,-0.025 -0.091,0.06 0.055,0.1192 0.7407,1.6945 1.1379,3.633 2.6222,4.2618 0.1118,0.048 0.2071,0.074 0.3086,0.1094 0.1179,0.1063 0.2292,0.2083 0.3636,0.3245 a 1.4077,1.4077 0 0 0 -0.0636,-0.228 c 2.5293,0.6331 1.6085,-3.0133 1.1263,-4.2587 -2.038,-5.2567 -8.53,-9.6577 -14.1627,-6.73 a 12.0176,12.0176 0 0 0 -5.8207,6.4653 9.2647,9.2647 0 0 0 0.14,3.1795 c -0.033,0.1057 -0.0489,0.1974 -0.0733,0.2952 0.0238,0.013 0.0378,0.02 0.0672,0.037 l -0.0477,0.176 c -0.011,-0.01 -0.0324,-0.033 -0.0556,-0.061 -0.1479,0.7639 0.0275,1.2663 0.7492,1.2534 -1.7666,0.1289 0.5127,0.038 -0.4877,0.495 0.9992,-0.4565 1.5919,-0.1614 2.005,-0.68 -0.3892,0.49 0.9936,-2.7512 2.02,-4.58 0.2647,-0.3923 0.5312,-0.77 0.8019,-1.125 0.099,-0.01 0.1783,-0.011 0.1893,0.032 -0.0274,-0.1014 -0.0909,-0.1014 -0.17,-0.056 0.0947,-0.1252 0.1931,-0.242 0.29,-0.3605 a 10.7688,10.7688 0 0 0 1.9665,-1.224 c -2.3379,1.3853 1.3579,-0.8634 0.8746,-0.8452 0.1185,0 2.7254,0.6637 3.3506,0.8427 0.894,0.048 0.8867,-0.116 0.0318,-0.4753 -0.06,0.2872 -0.1321,0.2981 -0.2169,0.036 a 3.1049,3.1049 0 0 1 0.2529,-0.2206 c 0.2365,0.083 0.4748,0.17 0.726,0.281 -0.085,0.3581 0.2787,0.76 0.7419,1.0927 a 4.5981,4.5981 0 0 0 1.2857,0.6649 c 0.0513,0.074 0.0892,0.1466 0.0684,0.1814 a 0.1183,0.1183 0 0 0 -0.0311,-0.1753 c 0.0739,0.011 0.1112,0 0.0867,-0.044 z m -13.6328,5.9265 a 1.3015,1.3015 0 0 1 0.0293,-0.16 0.5053,0.5053 0 0 0 0.1649,-0.029 c 0.1938,0.1643 0.1198,0.2095 -0.1942,0.1887 z m 1.3828,-1.5052 c 0.0593,-0.085 0.1192,-0.1722 0.1779,-0.2578 a 0.4215,0.4215 0 0 1 -0.1779,0.2578 z m 8.0555,-6.293 c -6e-4,-0.013 0.0868,-0.8573 0,0 z m 0.693,0.1148 c 0.1088,-0.26 0.1675,-0.2493 0.16,0.027 z m 1.815,0.2641 c 0.0214,0.011 0.0445,0.023 0.0672,0.034 -0.077,0.054 -0.0905,0.031 -0.0672,-0.034 z m 0.6715,0.8989 c -0.737,-0.1314 -0.3557,-0.3227 0,0 z m 0.4187,0.075 c 0.0244,0.01 0.0267,-0.068 0.009,-0.026 0.0965,-0.2904 0.2065,0.076 -0.009,0.026 z"
       style="fill:#3d69d8"
       id="path690" />
    <path
       d="m 707.1642,1078.6881 c -0.0409,-0.027 -0.5284,-0.1951 -0.6844,0.1052 -0.2529,0.4867 0.7113,-0.1314 0.6844,-0.1052 z"
       style="fill:#3d69d8"
       id="path692" />
    <path
       d="m 703.8851,1077.5827 c -0.18,0.9888 0.81,-0.2218 0.8,-0.1883 -0.0935,-0.01 -0.7451,-0.1668 -0.8,0.1883 z"
       style="fill:#3d69d8"
       id="path694" />
    <path
       d="m 699.063,1079.0762 c 0.154,0.069 0.2023,-0.2829 -0.0263,-0.3508 0,0 -0.1606,0.2762 0.0263,0.3508 z"
       style="fill:#3d69d8"
       id="path696" />
    <path
       d="m 741.3519,1083.3563 c -1.8638,0.429 0.6374,-0.039 -0.4454,0.5261 1.0033,-0.5236 1.593,-0.2859 1.9285,-0.9373 a 27.773,27.773 0 0 1 2.2146,-5.9265 2.2051,2.2051 0 0 1 -0.333,-0.032 4.45,4.45 0 0 1 0.3648,-0.48 c 0.1418,0.1582 0.8886,0.057 1.5564,-0.088 -1.75,1.7525 2.973,-1.3823 2.13,-1.4337 0.3875,0.023 2.7854,0.7413 3.5608,0.9693 0.3508,0.1124 1.4593,-0.047 -0.022,-0.4907 -0.0628,0.2828 -0.1387,0.2963 -0.23,0.041 0.082,-0.08 0.15,-0.1272 0.2207,-0.1864 0.3043,0.1131 0.6049,0.2352 0.8958,0.3759 0.1553,1.4837 1.3842,1.5227 2.1108,1.5729 0.0488,0.063 0.1094,0.1161 0.1552,0.1791 -0.0746,0.084 0.0519,0.2052 0.0806,0.2328 a 0.3034,0.3034 0 0 0 0.022,-0.064 6.3667,6.3667 0 0 1 0.602,1.1855 c -0.2658,-0.068 -0.036,0.2335 0.1253,0.308 0.0848,0.2457 0.1552,0.498 0.223,0.7528 -0.0636,-0.044 -0.1174,-0.085 -0.1174,-0.1215 0,0.062 0.0661,0.1338 0.1406,0.2046 0.25,0.9742 0.3936,1.9879 0.5432,2.9149 0.4229,2.6107 4.664,1.416 3.97,-1.0932 -1.714,-6.2 -5.8285,-10.9825 -12.715,-10.5309 a 9.0667,9.0667 0 0 0 -6.6738,3.7557 c -0.5089,0.67 -1.0315,3.5511 -0.99,5.613 a 6.3878,6.3878 0 0 0 -0.3941,1.4134 c 0.0231,-0.012 0.0873,0 0.2389,0.059 l -0.0171,0.184 a 1.0208,1.0208 0 0 1 -0.2262,-0.2133 c -0.1078,0.8724 0.1654,1.4212 1.0808,1.3093 z m 0.124,-0.2573 c 0.007,-0.017 -0.0378,-0.4846 0.2011,-0.1894 0.179,0.1088 0.1124,0.1681 -0.2011,0.1894 z m 4.9047,-7.16 c -0.1748,0.074 -0.0655,-0.5305 0,0 z m 0.1833,-0.53 c 0.1209,0.1357 0.1332,0.2286 0.0446,0.2762 a 0.2511,0.2511 0 0 1 -0.0446,-0.2762 z m 4.4035,-0.038 z m 0.723,0.1355 c 0.1154,-0.2541 0.176,-0.2406 0.1656,0.04 z m -2.2965,-0.7033 c -0.0184,0 -0.0305,-0.027 -0.0452,-0.042 0.0232,0 0.0471,0 0.0452,0.042 z m 4.7946,1.9091 a 0.2493,0.2493 0 0 1 0.07,0.057 c -0.7434,-0.2114 -0.356,-0.2817 -0.07,-0.057 z m 0.4828,0.1814 c 0.0238,0.01 0.0305,-0.067 0.011,-0.025 0.1124,-0.2872 0.2041,0.1 -0.011,0.025 z"
       style="fill:#3d69d8"
       id="path698" />
    <path
       d="m 755.748,1078.2207 a 0.2752,0.2752 0 0 0 -0.4656,-0.016 c -0.2762,0.3165 0.4382,0.1088 0.4656,0.016 z"
       style="fill:#3d69d8"
       id="path700" />
    <path
       d="m 745.5586,1077.4947 c 0.13,0.081 0.2121,-0.2243 0.007,-0.34 0,-4e-4 -0.1754,0.2391 -0.007,0.34 z"
       style="fill:#3d69d8"
       id="path702" />
    <path
       d="m 747.7916,1097.3608 a 0.5215,0.5215 0 0 0 0.0727,-0.82 c -0.495,-0.591 -2.6907,-0.7908 -5.4723,-0.8061 0.0416,-0.053 0.0922,-0.093 0.1308,-0.15 a 1.1022,1.1022 0 0 0 -0.37,0.1491 c -1.0737,0 -2.2251,0.02 -3.3972,0.059 -0.0812,-0.2249 -0.2425,-0.1429 -0.3355,0.01 -4.4664,0.1559 -9.1211,0.503 -10.5865,0.42 -0.5366,-0.029 -1.0738,-0.056 -1.61,-0.084 0.0722,-0.026 0.1259,-0.061 0.13,-0.1185 a 4.4934,4.4934 0 0 1 -0.56,0.095 c -0.2067,-0.01 -0.4113,-0.023 -0.6173,-0.032 a 13.8734,13.8734 0 0 1 -2.8068,-0.8481 c -0.18,0.5426 -0.5683,0.5414 -0.0732,-0.044 -0.5335,0.054 -1.2828,0.1083 -2.16,0.1424 a 0.1635,0.1635 0 0 0 -0.005,-0.1026 c -0.0306,-0.053 -0.1492,0.013 -0.24,0.1118 -2.7188,0.099 -6.4954,0.07 -8.5645,0.61 -0.007,0.046 -0.2145,0.059 -0.2145,0.059 -0.8818,0.2639 -1.3927,0.6484 -1.2711,1.221 a 1.9026,1.9026 0 0 0 -0.5115,-0.8238 c 0.1656,0.7034 0.1382,0.87 -0.0806,0.5041 a 3.1364,3.1364 0 0 1 0.2835,0.6325 c -0.07,0.026 -0.1369,0.05 -0.2,0.076 -0.51,-0.7925 -0.8782,-1.1665 -0.7126,-0.26 0.033,0.1821 0.0824,0.3582 0.12,0.54 a 0.501,0.501 0 0 1 -0.209,-0.029 14.2361,14.2361 0 0 1 -0.3018,1.7392 c 0.0415,1.3419 7,13.37 9.263,13.1855 0.2187,-0.021 -0.2305,-0.49 -0.5122,-0.8322 a 22.1514,22.1514 0 0 0 4.8931,3.0885 c -0.1278,-0.021 -0.2488,-0.043 -0.3807,-0.064 2.8727,1.3083 2.3936,1.0743 1.0389,0.3593 a 22.1062,22.1062 0 0 0 5.9244,1.5888 13.6285,13.6285 0 0 0 4.697,-0.2609 3.7514,3.7514 0 0 0 -1.3,0.6942 c 0.19,1.3176 1.7056,-0.7064 1.88,-0.8262 -0.0873,0.012 -0.1686,0.035 -0.2548,0.054 a 18.4744,18.4744 0 0 0 8.5572,-5.1282 0.2468,0.2468 0 0 0 0.0794,0.124 c 0.2928,0.2422 0.42,-0.2976 0.4089,-0.6361 0.4075,-0.4467 0.795,-0.9142 1.164,-1.3951 0.0594,0.1913 0.25,0.2615 0.6344,-0.1021 0.1565,-0.3917 0.1063,-0.5781 -0.1344,-0.5751 a 20.9711,20.9711 0 0 0 2.2059,-3.9256 c 0.2574,0.031 0.4267,0.097 0.32,0.2016 0.2963,-0.292 0.1094,-0.47 -0.1558,-0.6122 a 18.3187,18.3187 0 0 0 0.9367,-3.1136 c 0.2836,-0.2279 0.3326,-1.12 0.291,-2.0936 a 14.7942,14.7942 0 0 0 0.007,-1.9827 z m -37.655,5.4136 a 10.5538,10.5538 0 0 0 0.9289,2.0851 2.312,2.312 0 0 1 -0.9289,-2.0851 z m 1.0958,2.2861 0.0391,0.054 z m 2.2352,-8.6194 c -0.0812,0.02 -0.1643,0.039 -0.2486,0.06 0.0415,-0.1221 0.0917,-0.26 0.157,-0.4339 0.4253,-0.3949 0.2896,-0.1406 0.0916,0.3739 z m 0.5024,-0.1174 c 0.0214,-0.1729 0.0642,-0.2254 0.1223,-0.1974 0.002,0.072 10e-4,0.1143 10e-4,0.1687 -0.0422,0.01 -0.0818,0.019 -0.1234,0.029 z m 0.74,-0.1656 c -0.085,0.018 -0.1791,0.04 -0.28,0.061 -6e-4,-0.2677 0.1081,-0.6008 0.31,-0.1346 -0.01,0.029 -0.02,0.048 -0.03,0.074 z m 24.2452,3.4972 a 1.9449,1.9449 0 0 1 -0.3667,0.1823 7.226,7.226 0 0 1 -4.0271,3.455 c -0.1931,0.15 -0.3856,0.286 -0.5781,0.4138 -1.1684,0.1656 -3.3554,0.5573 -4.0539,0.641 a 0.48,0.48 0 0 1 0.2957,0.1461 c -0.858,0.983 -4.021,-0.1084 -6.7956,-1.5269 -2.5233,-1.29 -4.7266,-2.85 -4.57,-3.376 a 3.7117,3.7117 0 0 0 0.51,-0.3379 c -0.074,-0.1082 -0.1675,-0.206 -0.2347,-0.3171 0.1888,0.01 0.3776,0.013 0.5652,0.019 0.0172,-0.021 0.0343,-0.041 0.0471,-0.059 a 0.37,0.37 0 0 1 0.0226,0.061 c 0.58,0.019 1.1611,0.039 1.74,0.057 0.0758,-0.086 0.1448,-0.082 0.23,0.01 0.1314,0 0.2628,0.01 0.3654,0 a 0.3444,0.3444 0 0 0 0.1075,-0.049 l -0.1986,-0.2677 c -0.0482,0.1552 -0.0421,0.2372 -0.0115,0.2805 a 8.4169,8.4169 0 0 0 -2.2648,-0.1137 c -0.2346,0.01 -0.4479,0.015 -0.6007,0.012 0.0385,-0.01 0.2531,-0.052 0.5537,-0.1058 a 0.9457,0.9457 0 0 0 -0.07,-0.083 c 0.1057,0 0.154,0.027 0.1662,0.067 1.0872,-0.19 3.1166,-0.4809 2.85,0.017 a 2.1532,2.1532 0 0 1 0.748,0.024 0.1607,0.1607 0 0 0 0.0219,0.1931 c 0.1125,-0.064 0.1613,-0.12 0.16,-0.1741 0.1619,0.02 0.325,0.038 0.4827,0.056 0,0.067 0.0422,0.056 0.0727,0.01 0.2506,0.028 0.4736,0.05 0.6069,0.051 a 2.6813,2.6813 0 0 0 0.2065,-0.59 c 0.3978,-0.2628 0.14,0.5811 0.3868,0.6771 1.5888,0.6148 8.1587,-1.614 10.267,0.3807 a 0.7186,0.7186 0 0 1 -0.1607,0.067 q 0.5911,0.02 1.1818,0.039 c 0.2188,-0.058 0.4192,-0.1045 0.5659,-0.1327 -0.5463,-0.09 -2.4224,-0.4356 -0.3758,-0.2535 0.7033,-0.089 2.1437,0.037 2.712,0.034 a 4.2673,4.2673 0 0 0 -0.8078,0.4761 c -0.03,0.065 -0.0759,0.1185 -0.107,0.184 0.0549,-0.03 0.1622,-0.081 0.3574,-0.1668 z"
       style="fill:#3d69d8"
       id="path704" />
  </g>
  <metadata
     id="metadata6665">
    <rdf:RDF>
      <cc:Work
         rdf:about="">
        <dc:title>sinaisthimata-2</dc:title>
      </cc:Work>
    </rdf:RDF>
  </metadata>
</svg>
