<?xml version="1.0" encoding="UTF-8" standalone="no"?>
<svg
   width="98.941902"
   height="98.957855"
   viewBox="0 0 98.941902 98.957855"
   version="1.1"
   id="svg730"
   sodipodi:docname="f2-on.svg"
   inkscape:version="1.2.1 (9c6d41e410, 2022-07-14)"
   xmlns:inkscape="http://www.inkscape.org/namespaces/inkscape"
   xmlns:sodipodi="http://sodipodi.sourceforge.net/DTD/sodipodi-0.dtd"
   xmlns:xlink="http://www.w3.org/1999/xlink"
   xmlns="http://www.w3.org/2000/svg"
   xmlns:svg="http://www.w3.org/2000/svg"
   xmlns:rdf="http://www.w3.org/1999/02/22-rdf-syntax-ns#"
   xmlns:cc="http://creativecommons.org/ns#"
   xmlns:dc="http://purl.org/dc/elements/1.1/">
  <sodipodi:namedview
     id="namedview732"
     pagecolor="#ffffff"
     bordercolor="#000000"
     borderopacity="0.25"
     inkscape:showpageshadow="2"
     inkscape:pageopacity="0.0"
     inkscape:pagecheckerboard="0"
     inkscape:deskcolor="#d1d1d1"
     showgrid="false"
     inkscape:zoom="4.7121746"
     inkscape:cx="74.912335"
     inkscape:cy="19.311679"
     inkscape:window-width="1920"
     inkscape:window-height="1017"
     inkscape:window-x="-8"
     inkscape:window-y="-8"
     inkscape:window-maximized="1"
     inkscape:current-layer="svg730" />
  <defs
     id="defs55">
    <clipPath
       id="clip-path">
      <rect
         x="2.5676999"
         y="-4.1897001"
         width="2044.2332"
         height="1429.7129"
         style="fill:none"
         id="rect2" />
    </clipPath>
    <clipPath
       id="clip-path-2">
      <rect
         x="0.31079999"
         y="0.2085"
         width="2046.49"
         height="1418.5383"
         style="fill:none"
         id="rect5" />
    </clipPath>
    <clipPath
       id="clip-path-3">
      <rect
         x="0.4914"
         y="0.2085"
         width="2046.49"
         height="1418.5383"
         style="fill:none"
         id="rect8" />
    </clipPath>
    <linearGradient
       id="_ÂÁ_Ï_ÌÌ_È_ËÂÌÚ_30"
       x1="973.72803"
       y1="217.1114"
       x2="1279.8972"
       y2="405.211"
       gradientUnits="userSpaceOnUse">
      <stop
         offset="0.1606"
         stop-color="#772d28"
         id="stop11" />
      <stop
         offset="0.3449"
         stop-color="#8e3930"
         id="stop13" />
      <stop
         offset="1"
         stop-color="#d2603c"
         id="stop15" />
    </linearGradient>
    <linearGradient
       id="_ÂÁ_Ï_ÌÌ_È_ËÂÌÚ_33"
       x1="975.55811"
       y1="312.90219"
       x2="1143.3853"
       y2="444.72739"
       gradientUnits="userSpaceOnUse">
      <stop
         offset="0.0135"
         stop-color="#772d28"
         id="stop18" />
      <stop
         offset="0.1554"
         stop-color="#7d302a"
         id="stop20" />
      <stop
         offset="0.5915"
         stop-color="#8a372e"
         id="stop22" />
      <stop
         offset="1"
         stop-color="#8e3930"
         id="stop24" />
    </linearGradient>
    <linearGradient
       id="_ÂÁ_Ï_ÌÌ_È_ËÂÌÚ_30-2"
       x1="828.7381"
       y1="472.54099"
       x2="1247.8842"
       y2="730.0495"
       xlink:href="#_%C3%82%C3%81_%C3%8F_%C3%8C%C3%8C_%C3%88_%C3%8B%C3%82%C3%8C%C3%9A_30" />
    <linearGradient
       id="_ÂÁ_Ï_ÌÌ_È_ËÂÌÚ_30-3"
       x1="937.97528"
       y1="496.49539"
       x2="737.89569"
       y2="766.1582"
       xlink:href="#_%C3%82%C3%81_%C3%8F_%C3%8C%C3%8C_%C3%88_%C3%8B%C3%82%C3%8C%C3%9A_30" />
    <linearGradient
       id="_ÂÁ_Ï_ÌÌ_È_ËÂÌÚ_12"
       x1="1231.5668"
       y1="673.64398"
       x2="1270.8306"
       y2="1060.5385"
       gradientUnits="userSpaceOnUse">
      <stop
         offset="0.2666"
         stop-color="#bb492f"
         id="stop29" />
      <stop
         offset="0.8134"
         stop-color="#a03c2b"
         id="stop31" />
    </linearGradient>
    <linearGradient
       id="_ÂÁ_Ï_ÌÌ_È_ËÂÌÚ_10"
       x1="886.21033"
       y1="1079.295"
       x2="886.21033"
       y2="558.34888"
       gradientUnits="userSpaceOnUse">
      <stop
         offset="0.1829"
         stop-color="#bb492f"
         id="stop34" />
      <stop
         offset="0.8134"
         stop-color="#d2603c"
         id="stop36" />
    </linearGradient>
    <linearGradient
       id="_ÂÁ_Ï_ÌÌ_È_ËÂÌÚ_10-2"
       x1="664.55438"
       y1="1079.3604"
       x2="664.55438"
       y2="558.34888"
       xlink:href="#_%C3%82%C3%81_%C3%8F_%C3%8C%C3%8C_%C3%88_%C3%8B%C3%82%C3%8C%C3%9A_10" />
    <linearGradient
       id="_ÂÁ_Ï_ÌÌ_È_ËÂÌÚ_12-2"
       x1="-2274.3308"
       y1="-526.58221"
       x2="-1997.9337"
       y2="-526.58221"
       gradientTransform="rotate(136.2115,-523.83111,697.56738)"
       xlink:href="#_%C3%82%C3%81_%C3%8F_%C3%8C%C3%8C_%C3%88_%C3%8B%C3%82%C3%8C%C3%9A_12" />
    <linearGradient
       id="_ÂÁ_Ï_ÌÌ_È_ËÂÌÚ_12-3"
       x1="1105.3553"
       y1="554.34039"
       x2="1383.4994"
       y2="554.34039"
       xlink:href="#_%C3%82%C3%81_%C3%8F_%C3%8C%C3%8C_%C3%88_%C3%8B%C3%82%C3%8C%C3%9A_12" />
    <linearGradient
       id="_ÂÁ_Ï_ÌÌ_È_ËÂÌÚ_12-4"
       x1="1230.0594"
       y1="673.56873"
       x2="1269.3973"
       y2="1061.1914"
       xlink:href="#_%C3%82%C3%81_%C3%8F_%C3%8C%C3%8C_%C3%88_%C3%8B%C3%82%C3%8C%C3%9A_12" />
    <linearGradient
       id="_ÂÁ_Ï_ÌÌ_È_ËÂÌÚ_10-3"
       x1="884.05292"
       y1="1079.9833"
       x2="884.05292"
       y2="558.05652"
       xlink:href="#_%C3%82%C3%81_%C3%8F_%C3%8C%C3%8C_%C3%88_%C3%8B%C3%82%C3%8C%C3%9A_10" />
    <linearGradient
       id="_ÂÁ_Ï_ÌÌ_È_ËÂÌÚ_7"
       x1="762.54498"
       y1="654.6286"
       x2="1312.0504"
       y2="246.0475"
       gradientUnits="userSpaceOnUse">
      <stop
         offset="0.2801"
         stop-color="#e27244"
         id="stop44" />
      <stop
         offset="0.8134"
         stop-color="#f2794e"
         id="stop46" />
    </linearGradient>
    <radialGradient
       id="radial-gradient"
       cx="223.35091"
       cy="410.99951"
       r="59.925201"
       gradientTransform="matrix(1,0,0,-1,0,1422)"
       gradientUnits="userSpaceOnUse">
      <stop
         offset="0"
         stop-color="#ff6163"
         id="stop49" />
      <stop
         offset="1"
         stop-color="#c62020"
         id="stop51" />
    </radialGradient>
    <radialGradient
       id="radial-gradient-2"
       cx="160.0694"
       cy="217.8264"
       r="67.1362"
       xlink:href="#radial-gradient" />
  </defs>
  <title
     id="title57">sinaisthimata-2</title>
  <ellipse
     id="_3_-_click"
     data-name="3 - click"
     cx="48.676323"
     cy="50.245098"
     rx="48.359501"
     ry="48.000599"
     style="fill:#b1f360;fill-opacity:1" />
  <g
     id="_3"
     data-name="3"
     transform="translate(-807.93861,-1037.8898)">
    <path
       d="m 878.7011,1083.66 c 0.1064,0.7211 0.2408,1.4527 0.396,2.142 0.0477,0.023 0.0661,0.088 0.0844,0.1539 a 10.0081,10.0081 0 0 0 0.754,2.49 c 0.0245,0 0.0392,-0.01 0.0733,-0.01 l 0.0746,0.173 c -0.0146,0 -0.044,-0.013 -0.0769,-0.023 0.2823,0.5378 0.59,0.8458 0.9068,0.803 0.03,0.034 0.0636,0.068 0.0965,0.1015 -0.3019,0.374 -0.07,0.1864 0.1076,0.1124 0.04,0.038 0.0844,0.072 0.1283,0.1087 a 0.9472,0.9472 0 0 1 -0.0672,0.184 c 0.03,-0.064 0.06,-0.11 0.0892,-0.1637 a 3.4525,3.4525 0 0 0 0.6722,0.4577 c -0.0159,0.1106 -0.033,0.2035 -0.0489,0.3214 0,0 0.0661,-0.1143 0.1553,-0.2732 a 2.5957,2.5957 0 0 0 1.0388,0.2518 c 2.5727,0.05 3.5114,-1.6842 3.5724,-3.9678 1.4862,-1.7331 0.4939,-6.2326 -2.0348,-8.0029 -0.1895,-0.3948 -0.3851,-0.7529 -0.5733,-1.0719 0.1161,-0.024 -0.0281,-0.245 -0.3263,-0.51 a 4.531,4.531 0 0 0 -0.4962,-0.6275 1.7073,1.7073 0 0 0 -2.4359,-0.1736 c 0.0453,-0.1 0.071,-0.1681 0.071,-0.1681 a 4.2324,4.2324 0 0 0 -0.3166,0.347 8.5111,8.5111 0 0 0 -1.9714,2.8074 6.7694,6.7694 0 0 0 -0.5817,1.7075 5.7785,5.7785 0 0 0 0.7088,2.8275 z m 4.1554,2.456 a 2.6857,2.6857 0 0 0 0.7688,-0.6275 4.5624,4.5624 0 0 1 -0.4631,1.2473 4.5137,4.5137 0 0 0 -0.3057,-0.6202 z"
       style="fill:#3d69d8"
       id="path678" />
    <path
       d="m 896.6771,1056.7307 a 38.7284,38.7284 0 0 0 -16.5742,-12.6553 c -1.8051,-0.75 -17.9649,-6.3485 -18.6089,-4.1853 -0.0416,0.1387 0.8347,0.53 2.1681,1.04 -0.0843,0 -0.138,0 -0.1454,0.024 -0.0293,0.098 0.1149,0.2164 0.3434,0.3416 a 4.6519,4.6519 0 0 0 -1.7942,-0.3789 c 0.3349,-0.092 9.4475,5.81 10.2762,4.0852 2.8147,0.6478 3.56,2.7591 7.58,2.5122 0.5658,-0.02 -0.5085,-0.62 -1.2589,-0.9967 a 50.65,50.65 0 0 1 5.1491,2.9 c -1.0938,1.001 1.2382,1.6524 3.1166,2.1786 0.5329,0.4156 1.0474,0.8543 1.5607,1.2968 a 5.2862,5.2862 0 0 1 -0.5939,0.2908 c 0.4986,0.7774 2.1693,1.7453 3.6543,2.7286 0.2982,0.3318 0.6075,0.652 0.8885,0.9961 0.5586,0.6807 1.09,1.3951 1.6035,2.13 -0.2273,1.1843 1.2466,2.5556 2.03,3.2437 0.1014,0.18 0.2126,0.3531 0.31,0.5354 0.4156,1.5875 1.9959,8.0834 3.8842,9.3325 q 0.4693,1.5336 0.8555,3.0989 a 4.7874,4.7874 0 0 0 0.0745,2.1468 3.6506,3.6506 0 0 1 0.3849,-0.1552 c 0.0869,0.424 0.1626,0.8488 0.2433,1.274 -0.2384,0.9711 0.6062,2.5293 0.4717,3.6013 0.0306,-0.028 0.06,-0.056 0.0893,-0.085 0.0184,0.1442 0.0452,0.2891 0.0623,0.4333 -0.0439,0 -0.0782,-0.016 -0.121,-0.016 0.1492,1.3872 0.28,2.3625 0.3972,3.0377 0.0208,0.3276 0.0379,0.652 0.0538,0.9765 -0.0354,-0.01 -0.0672,-0.01 -0.1038,-0.021 -0.7591,2.3858 -0.6869,3.4491 0.1844,3.2339 -0.002,0.2017 -0.002,0.4022 -0.007,0.6027 -0.0452,-0.024 -0.0783,-0.047 -0.1247,-0.072 -0.0551,1.1636 -0.0733,2.1921 -0.03,3.14 -0.0379,0.4822 -0.07,0.968 -0.1235,1.4391 a 41.3171,41.3171 0 0 1 -0.8152,4.7775 c -0.7431,0.3087 -1.2234,0.87 -0.6355,2.1883 a 0.8372,0.8372 0 0 1 0.1014,-0.1014 c -0.3813,1.3273 -0.8323,2.6222 -1.3321,3.8915 a 24.0811,24.0811 0 0 0 -2.0655,3.6384 c 0.1172,0.062 0.2211,0.1185 0.3311,0.1785 a 43.6424,43.6424 0 0 1 -3.8559,6.1629 2.7031,2.7031 0 0 0 -0.1846,-0.3062 c -0.8238,1.0969 -1.5791,2.3148 -2.4017,3.45 a 45.8711,45.8711 0 0 1 -4.9584,4.7329 c -1.5851,1.2241 -3.1606,2.3839 -4.7909,3.4594 a 46.3011,46.3011 0 0 1 -12.4639,5.4718 c -0.006,-0.026 -0.006,-0.053 -0.0134,-0.08 a 36.3063,36.3063 0 0 0 -3.5566,0.8048 c 0.0172,0.029 0.038,0.046 0.0575,0.073 -1.0328,0.1931 -2.0692,0.3605 -3.1105,0.4821 a 7.7125,7.7125 0 0 0 -1.4568,-0.2408 0.9524,0.9524 0 0 1 0.5671,0.32 43.3731,43.3731 0 0 1 -5.7541,0.1724 c 0.0207,-0.055 0.0245,-0.1082 0.0476,-0.1644 a 11.1643,11.1643 0 0 1 -2.7841,-0.5512 1.2084,1.2084 0 0 1 0.2531,0.553 42.597,42.597 0 0 1 -4.774,-0.7309 c -0.3446,-0.072 -0.6795,-0.16 -1.0217,-0.2413 a 21.2963,21.2963 0 0 0 -4.17,-1.2027 q -1.5345,-0.5253 -3.0225,-1.1568 c -0.4168,-0.8591 -1.0779,-1.4348 -1.931,-0.8757 a 49.1539,49.1539 0 0 1 -25.3665,-29.7993 c -0.3691,-3.0787 -0.8176,-6.1422 -1.6683,-7.7469 a 46.4593,46.4593 0 0 1 -0.3826,-5.1943 47.3437,47.3437 0 0 1 13.28,-33.3351 c 0.44,-0.3887 0.8823,-0.773 1.3554,-1.1311 -0.05,-0.01 -0.0869,-0.032 -0.1344,-0.044 0.1954,-0.1833 0.3824,-0.3752 0.58,-0.5543 0.1088,-0.098 0.2347,-0.1961 0.3459,-0.2938 a 10.2487,10.2487 0 0 0 2.7133,-1.8039 c 1.5986,-1.2083 3.2632,-1.4282 2.9455,-2.3094 0.2211,-0.1387 0.4388,-0.278 0.6635,-0.415 0.0294,0.06 0.0551,0.1149 0.0856,0.1766 a 21.9219,21.9219 0 0 0 3.7485,-2.3135 c 0.4987,-0.2573 1.0071,-0.5035 1.5167,-0.75 a 0.9743,0.9743 0 0 1 -0.0232,0.1454 q 0.6692,-0.2868 1.3408,-0.5713 c -0.0428,-0.046 -0.0844,-0.091 -0.1272,-0.1363 0.1613,-0.076 0.3252,-0.1479 0.4865,-0.2207 a 1.8036,1.8036 0 0 1 0.01,0.2 c 5.3225,-2.4737 10.9336,-1.5063 16.1866,-3.4026 0.8238,-0.322 -0.1405,-0.7443 -1.5608,-1.1263 a 18.9608,18.9608 0 0 1 2.0607,-0.082 c -0.7994,-0.021 -1.595,-0.02 -2.3846,0 a 39.9075,39.9075 0 0 0 -4.7042,-0.8862 9.5584,9.5584 0 0 0 -3.7764,0.63 q 0.8468,0.03 1.6927,0.06 c -0.9045,0.6606 -1.53,0.7676 -1.8748,0.3319 a 1.037,1.037 0 0 1 -0.1431,-0.2482 c -1.1476,0.5262 -2.0142,1.2418 -3.1495,1.903 q -1.8975,0.5373 -3.7241,1.2252 c -0.1161,-0.2194 -0.7993,-0.2309 -0.4864,-0.9123 -1.15,0.4553 -7.0337,3.31 -6.79,3.49 a 23.0178,23.0178 0 0 0 2.3087,-0.9619 c -2.1878,1.0395 -9.6724,4.2551 -10.23,6.61 0.2676,0.1857 0.5047,0.3464 0.7271,0.4956 -0.1259,0.113 -0.2541,0.2279 -0.38,0.3421 a 4.23,4.23 0 0 1 -0.3778,-0.72 c -1.6034,3.2761 -3.6469,3.61 -5.5988,7.23 a 47.8194,47.8194 0 0 0 -3.3121,4.9766 14.6266,14.6266 0 0 0 -1.9555,3.06 c -0.7235,1.6462 -3.8938,9.3771 -3.8621,12.6025 -0.1185,0.6167 -0.23,1.2357 -0.3264,1.862 a 49.0931,49.0931 0 0 0 15.24,43.7867 23.2391,23.2391 0 0 1 1.94,2.8844 c 0.5757,1.034 2.4469,1.1171 3.581,1.5082 a 49.9749,49.9749 0 0 0 18.7215,7.811 c 28.5687,5.5682 55.1487,-13.0041 58.54,-42.3929 a 52.1773,52.1773 0 0 0 -9.8864,-36.7354 z m -62.6163,-13.339 c 0.3714,-0.016 0.743,-0.032 1.1121,-0.048 -0.22,0.1052 -0.4363,0.2163 -0.6538,0.325 a 5.2782,5.2782 0 0 1 -0.4583,-0.2767 z m 31.9871,-1.2877 c 0.0354,0.011 0.0842,0.027 0.1062,0.034 -0.0241,-0.01 -0.0623,-0.018 -0.1062,-0.034 z m 31.84,24.178 c 0.0477,-0.059 0.0806,-0.1 0.12,-0.154 0.0219,0.05 0.0464,0.1 0.0672,0.15 -0.0622,0 -0.1221,0 -0.1868,0 z"
       style="fill:#3d69d8"
       id="path680" />
    <path
       d="m 836.7055,1082.2474 a 5.09,5.09 0 0 1 -0.4473,1.5088 c -0.3654,-0.081 1.1612,-3.7643 -0.9948,-4.4023 a 2.7244,2.7244 0 0 0 -0.1785,0.7529 5.69,5.69 0 0 0 -0.4863,-1.1012 c 0.69,1.0162 0.017,-0.429 -0.0869,-0.5293 a 1.3529,1.3529 0 0 1 0.6612,0.099 c -0.017,-0.035 -0.0354,-0.078 -0.0611,-0.1313 a 8.4207,8.4207 0 0 0 -0.974,-1.0847 c 1.3749,-0.059 -1.969,-1.0554 -3.5028,-0.6716 -0.7187,0.9129 -2.393,3.3714 -2.65,2.64 a 9.14,9.14 0 0 0 -0.0562,2.2538 c -0.0379,-0.1125 -0.1507,-0.2457 -0.231,-0.1779 -0.0649,0.055 0.12,0.4162 0.231,0.2976 a 34.397,34.397 0 0 0 0.5035,3.8267 c -0.3263,3.2615 0.4975,6.1518 4.4842,4.6737 a 3.0275,3.0275 0 0 0 1.3371,-1.037 c 1.0436,-0.3112 2.173,-0.913 1.6242,-1.3115 a 0.6282,0.6282 0 0 0 -0.6478,0.3722 22.4364,22.4364 0 0 0 1.09,-3.19 c -0.039,-0.3239 0.0526,-0.4718 0.1187,-0.4315 0.3378,-1.2728 0.5381,-2.3783 0.2668,-2.3564 z m -0.9117,-2.4052 c 0.0477,-0.012 0.0525,0 -0.1283,0.065 -0.8189,-0.1906 0.4717,-0.2737 0.1283,-0.065 z m -7.2084,3.3519 c 0.1234,0.052 -0.0661,0.1314 0,0 z m 0.1014,-0.54 0.1674,0.11 c 0.1272,0.158 -0.2236,0.013 -0.1674,-0.1103 z m 4.428,4.12 q -0.0973,-0.2933 -0.1785,-0.5891 a 4.6308,4.6308 0 0 0 0.4119,-0.6324 4.01,4.01 0 0 1 -0.2334,1.2212 z m 2.3038,-5.8133 c -0.28,-0.7529 0.007,-0.5476 0,0 z m -1.1208,-2.5887 -0.1307,-0.1258 c 0.1772,-0.1163 0.2285,-0.068 0.1307,0.1255 z m -0.77,-0.5719 c 0.005,-0.047 0.2529,-0.5188 0,0 z m -1.579,-0.7608 c -0.082,0 -0.1308,-0.084 -0.148,-0.264 0.0539,-3e-4 0.2617,0.2815 0.1481,0.2637 z m -1.3176,0.1638 c 0.4631,-0.5891 -0.5843,1.001 0,0 z m -0.006,1.18 c 0.0221,-0.048 0.0428,-0.089 0.06,-0.1215 -0.0147,0.03 -0.0257,0.06 -0.0416,0.089 0.2945,-0.5354 0.6332,-1.1061 0.6332,-1.1061 a 7.9536,7.9536 0 0 1 1.72,0.6722 1.8029,1.8029 0 0 0 -0.83,0.3411 c -0.6294,-0.2042 -1.2662,0.011 -1.8114,0.8524 -0.0329,0.053 -0.0684,0.113 -0.1026,0.1729 0.1321,-0.33 0.253,-0.6337 0.3459,-0.8415 -0.13,0.2665 -0.2591,0.5348 -0.3862,0.8036 a 4.5154,4.5154 0 0 1 0.4128,-0.8621 z m -0.8273,0.7029 a 0.1453,0.1453 0 0 1 -0.1663,-0.1333 c 0.1468,-0.016 0.203,0.032 0.1664,0.1329 z m -0.0257,0.3367 c -0.08,0.1876 -0.308,-0.2616 0,0 z m -0.495,1.4891 c 0.0648,0.1284 0.1711,0.047 0.297,-0.15 -0.11,0.2915 -0.2175,0.6033 -0.3226,0.932 -0.0614,-0.036 -0.0745,-0.2385 0.0257,-0.7824 z m -0.1393,0.9486 c -0.0978,0.1179 -0.1784,0.1068 -0.23,-0.045 0.0578,-0.068 0.1335,-0.05 0.2301,0.045 z m -0.3459,-0.06 c 0.1833,0.084 0.1541,0.12 -0.1136,0.1106 z m 0.121,0.5457 c -0.1063,0.1119 -0.2457,0.1112 -0.418,-0.014 a 0.3375,0.3375 0 0 1 0.4181,0.014 z m 1.7575,5.0783 c 0.002,-0.1039 0.002,-0.2122 0.002,-0.3178 a 6.0067,6.0067 0 0 0 1.2784,0.7852 0.9186,0.9186 0 0 1 -1.2811,-0.4678 z m 4.7861,-0.797 c -0.0134,0.014 -0.0587,0.014 -0.11,0.01 a 12.7076,12.7076 0 0 0 0.2885,-2.9156 c 0.286,1.2168 0.4461,2.3081 -0.1784,2.9052 z m 0.2579,-6.3407 c -0.1674,0.035 0.0732,-0.2866 0.1185,-0.3146 0.3362,0.1346 0.2972,0.2501 -0.1184,0.3142 z m 0.4766,0.9668 v 0 c -0.2834,-1.0736 0.2617,-0.1691 10e-5,-4e-4 z"
       style="fill:#3d69d8"
       id="path682" />
    <path
       d="m 857.3911,1103.9571 a 3.9937,3.9937 0 0 1 -0.7126,0.2739 c -0.127,0.01 -0.2578,0.02 -0.39,0.031 a 11.6546,11.6546 0 0 1 -2.8747,-0.4485 c -0.0525,0.677 -0.3911,0.7106 -0.0806,-0.038 a 9.5779,9.5779 0 0 1 -1.9726,0.6692 0.3629,0.3629 0 0 0 -0.005,-0.2829 c -0.0538,-0.081 -0.22,0.1338 -0.259,0.333 -0.1883,0.032 -0.4157,0.072 -0.693,0.1278 -1.5388,0.06 -2.9259,0.076 -3.9966,0.024 a 3.9742,3.9742 0 0 0 -1.98,-0.3349 0.3394,0.3394 0 0 1 -0.1394,-0.1363 c 0.0207,0.048 0.0465,0.086 0.0673,0.1333 a 0.8388,0.8388 0 0 1 -0.4706,-0.107 c -0.3423,-0.2958 -1.8137,0.8464 -1.975,1.5821 a 2.8186,2.8186 0 0 0 -0.0417,-1.0938 q -0.3464,1.4538 -0.3078,0.2566 a 3.83,3.83 0 0 1 -0.4218,1.9592 c 0.0269,-0.098 0.95,1.3572 0.737,1.1837 -0.0134,-0.01 7.5165,0.1461 9.7788,0.07 0.1441,0.014 0.29,0.026 0.4339,0.037 -3.18,0.5439 -5.5146,1.04 -5.308,1.045 2.0435,0.063 20.1086,0.4015 21.0887,-1.3426 a 1.163,1.163 0 0 0 0.4022,-0.5084 c 1.3591,-0.1577 2.6179,-0.3264 3.6434,-0.5023 0.1539,0.3483 0.4436,0.7688 0.325,-0.057 0.0477,-0.01 0.0941,-0.018 0.1394,-0.028 0.2114,0.4058 0.5109,1.1691 0.32,1.25 0.3116,-0.1338 0.1772,-1.3578 0.2908,-1.3694 0.12,-0.012 0.3264,-0.027 0.56,-0.038 0.1895,-0.01 0.3483,-0.015 0.5024,-0.018 a 0.8456,0.8456 0 0 1 0.0916,-0.2291 0.6468,0.6468 0 0 1 0.0648,0.2266 c 0.3606,0 0.6563,0.012 0.671,0.065 -0.1076,1.5289 2.8477,-1.1654 2.9,-1.2307 a 16.0619,16.0619 0 0 1 -1.79,0.4681 c 0.143,0.062 0.2444,0.2206 0.1259,0.5823 0.0269,-0.078 -1.1367,-0.6258 -1.199,-0.7712 0.2213,-0.6429 1.1611,0.067 1.5657,-0.098 1.1158,-0.4511 -1.9617,-1.3414 -2.8465,-1.1146 a 3.8282,3.8282 0 0 0 -0.3654,-0.3851 c 0.0256,-0.053 0.0659,-0.094 0.09,-0.15 a 0.7791,0.7791 0 0 0 -0.18,0.08 c -2.316,-1.9214 -6.6756,-0.9631 -9.335,-0.5567 -0.43,0.067 -1.4569,0.1845 -2.8185,0.322 a 2.1533,2.1533 0 0 0 -0.95,0.093 c -0.8971,0.086 -1.898,0.1759 -2.9492,0.2628 0.1735,-0.047 0.2799,-0.1214 0.264,-0.2363 z m -15.0671,2.4585 c -0.2042,0.2218 -0.2629,0.1008 -0.16,-0.3582 0.0145,0.027 0.617,0.093 0.16,0.3582 z m 1.3015,-1.5736 -0.1869,-0.045 c 0.0746,-0.092 0.5133,-0.7065 0.1869,0.045 z m 31.8319,1.8632 -0.2762,-0.4791 c 0.0954,-0.2376 0.2298,-0.2461 0.2762,0.4791 z m -30.0413,0.1645 c 0.005,0.081 -0.176,0.8182 0,0 z m -0.0526,-1.06 c -0.009,0.022 -0.0171,0.04 -0.0269,0.064 -0.4632,0.7131 -0.5047,0.6349 -0.13,-0.2194 0.0494,0.055 0.1056,0.1029 0.1569,0.1561 z m -0.3275,0.9618 c -0.0831,0.067 -0.1418,0.4095 -0.17,0.01 z m -0.6392,0.9314 a 8.7234,8.7234 0 0 0 1.45,0.2627 c -0.4576,0.1201 -1.5112,0.3419 -1.45,-0.2624 z m 1.6609,0.2052 z m 0.0893,-0.3292 c -0.099,0.097 0.0489,-0.3179 0.1588,-0.2207 z m 0.022,-0.8947 a 1.1019,1.1019 0 0 1 -0.02,-0.1932 c 0.0661,0.048 0.1285,0.1027 0.1969,0.1473 z"
       style="fill:#3d69d8"
       id="path684" />
  </g>
  <metadata
     id="metadata5891">
    <rdf:RDF>
      <cc:Work
         rdf:about="">
        <dc:title>sinaisthimata-2</dc:title>
      </cc:Work>
    </rdf:RDF>
  </metadata>
</svg>
