<?xml version="1.0" encoding="UTF-8" standalone="no"?>
<svg
   width="96.94767"
   height="99.105347"
   viewBox="0 0 96.94767 99.105347"
   version="1.1"
   id="svg730"
   sodipodi:docname="f3-on.svg"
   inkscape:version="1.2.1 (9c6d41e410, 2022-07-14)"
   xmlns:inkscape="http://www.inkscape.org/namespaces/inkscape"
   xmlns:sodipodi="http://sodipodi.sourceforge.net/DTD/sodipodi-0.dtd"
   xmlns:xlink="http://www.w3.org/1999/xlink"
   xmlns="http://www.w3.org/2000/svg"
   xmlns:svg="http://www.w3.org/2000/svg"
   xmlns:rdf="http://www.w3.org/1999/02/22-rdf-syntax-ns#"
   xmlns:cc="http://creativecommons.org/ns#"
   xmlns:dc="http://purl.org/dc/elements/1.1/">
  <sodipodi:namedview
     id="namedview732"
     pagecolor="#ffffff"
     bordercolor="#000000"
     borderopacity="0.25"
     inkscape:showpageshadow="2"
     inkscape:pageopacity="0.0"
     inkscape:pagecheckerboard="0"
     inkscape:deskcolor="#d1d1d1"
     showgrid="false"
     inkscape:zoom="3.3320106"
     inkscape:cx="80.131798"
     inkscape:cy="40.516078"
     inkscape:window-width="1920"
     inkscape:window-height="1017"
     inkscape:window-x="-8"
     inkscape:window-y="-8"
     inkscape:window-maximized="1"
     inkscape:current-layer="svg730" />
  <defs
     id="defs55">
    <clipPath
       id="clip-path">
      <rect
         x="2.5676999"
         y="-4.1897001"
         width="2044.2332"
         height="1429.7129"
         style="fill:none"
         id="rect2" />
    </clipPath>
    <clipPath
       id="clip-path-2">
      <rect
         x="0.31079999"
         y="0.2085"
         width="2046.49"
         height="1418.5383"
         style="fill:none"
         id="rect5" />
    </clipPath>
    <clipPath
       id="clip-path-3">
      <rect
         x="0.4914"
         y="0.2085"
         width="2046.49"
         height="1418.5383"
         style="fill:none"
         id="rect8" />
    </clipPath>
    <linearGradient
       id="_ÂÁ_Ï_ÌÌ_È_ËÂÌÚ_30"
       x1="973.72803"
       y1="217.1114"
       x2="1279.8972"
       y2="405.211"
       gradientUnits="userSpaceOnUse">
      <stop
         offset="0.1606"
         stop-color="#772d28"
         id="stop11" />
      <stop
         offset="0.3449"
         stop-color="#8e3930"
         id="stop13" />
      <stop
         offset="1"
         stop-color="#d2603c"
         id="stop15" />
    </linearGradient>
    <linearGradient
       id="_ÂÁ_Ï_ÌÌ_È_ËÂÌÚ_33"
       x1="975.55811"
       y1="312.90219"
       x2="1143.3853"
       y2="444.72739"
       gradientUnits="userSpaceOnUse">
      <stop
         offset="0.0135"
         stop-color="#772d28"
         id="stop18" />
      <stop
         offset="0.1554"
         stop-color="#7d302a"
         id="stop20" />
      <stop
         offset="0.5915"
         stop-color="#8a372e"
         id="stop22" />
      <stop
         offset="1"
         stop-color="#8e3930"
         id="stop24" />
    </linearGradient>
    <linearGradient
       id="_ÂÁ_Ï_ÌÌ_È_ËÂÌÚ_30-2"
       x1="828.7381"
       y1="472.54099"
       x2="1247.8842"
       y2="730.0495"
       xlink:href="#_%C3%82%C3%81_%C3%8F_%C3%8C%C3%8C_%C3%88_%C3%8B%C3%82%C3%8C%C3%9A_30" />
    <linearGradient
       id="_ÂÁ_Ï_ÌÌ_È_ËÂÌÚ_30-3"
       x1="937.97528"
       y1="496.49539"
       x2="737.89569"
       y2="766.1582"
       xlink:href="#_%C3%82%C3%81_%C3%8F_%C3%8C%C3%8C_%C3%88_%C3%8B%C3%82%C3%8C%C3%9A_30" />
    <linearGradient
       id="_ÂÁ_Ï_ÌÌ_È_ËÂÌÚ_12"
       x1="1231.5668"
       y1="673.64398"
       x2="1270.8306"
       y2="1060.5385"
       gradientUnits="userSpaceOnUse">
      <stop
         offset="0.2666"
         stop-color="#bb492f"
         id="stop29" />
      <stop
         offset="0.8134"
         stop-color="#a03c2b"
         id="stop31" />
    </linearGradient>
    <linearGradient
       id="_ÂÁ_Ï_ÌÌ_È_ËÂÌÚ_10"
       x1="886.21033"
       y1="1079.295"
       x2="886.21033"
       y2="558.34888"
       gradientUnits="userSpaceOnUse">
      <stop
         offset="0.1829"
         stop-color="#bb492f"
         id="stop34" />
      <stop
         offset="0.8134"
         stop-color="#d2603c"
         id="stop36" />
    </linearGradient>
    <linearGradient
       id="_ÂÁ_Ï_ÌÌ_È_ËÂÌÚ_10-2"
       x1="664.55438"
       y1="1079.3604"
       x2="664.55438"
       y2="558.34888"
       xlink:href="#_%C3%82%C3%81_%C3%8F_%C3%8C%C3%8C_%C3%88_%C3%8B%C3%82%C3%8C%C3%9A_10" />
    <linearGradient
       id="_ÂÁ_Ï_ÌÌ_È_ËÂÌÚ_12-2"
       x1="-2274.3308"
       y1="-526.58221"
       x2="-1997.9337"
       y2="-526.58221"
       gradientTransform="rotate(136.2115,-523.83111,697.56738)"
       xlink:href="#_%C3%82%C3%81_%C3%8F_%C3%8C%C3%8C_%C3%88_%C3%8B%C3%82%C3%8C%C3%9A_12" />
    <linearGradient
       id="_ÂÁ_Ï_ÌÌ_È_ËÂÌÚ_12-3"
       x1="1105.3553"
       y1="554.34039"
       x2="1383.4994"
       y2="554.34039"
       xlink:href="#_%C3%82%C3%81_%C3%8F_%C3%8C%C3%8C_%C3%88_%C3%8B%C3%82%C3%8C%C3%9A_12" />
    <linearGradient
       id="_ÂÁ_Ï_ÌÌ_È_ËÂÌÚ_12-4"
       x1="1230.0594"
       y1="673.56873"
       x2="1269.3973"
       y2="1061.1914"
       xlink:href="#_%C3%82%C3%81_%C3%8F_%C3%8C%C3%8C_%C3%88_%C3%8B%C3%82%C3%8C%C3%9A_12" />
    <linearGradient
       id="_ÂÁ_Ï_ÌÌ_È_ËÂÌÚ_10-3"
       x1="884.05292"
       y1="1079.9833"
       x2="884.05292"
       y2="558.05652"
       xlink:href="#_%C3%82%C3%81_%C3%8F_%C3%8C%C3%8C_%C3%88_%C3%8B%C3%82%C3%8C%C3%9A_10" />
    <linearGradient
       id="_ÂÁ_Ï_ÌÌ_È_ËÂÌÚ_7"
       x1="762.54498"
       y1="654.6286"
       x2="1312.0504"
       y2="246.0475"
       gradientUnits="userSpaceOnUse">
      <stop
         offset="0.2801"
         stop-color="#e27244"
         id="stop44" />
      <stop
         offset="0.8134"
         stop-color="#f2794e"
         id="stop46" />
    </linearGradient>
    <radialGradient
       id="radial-gradient"
       cx="223.35091"
       cy="410.99951"
       r="59.925201"
       gradientTransform="matrix(1,0,0,-1,0,1422)"
       gradientUnits="userSpaceOnUse">
      <stop
         offset="0"
         stop-color="#ff6163"
         id="stop49" />
      <stop
         offset="1"
         stop-color="#c62020"
         id="stop51" />
    </radialGradient>
    <radialGradient
       id="radial-gradient-2"
       cx="160.0694"
       cy="217.8264"
       r="67.1362"
       xlink:href="#radial-gradient" />
  </defs>
  <title
     id="title57">sinaisthimata-2</title>
  <ellipse
     id="_4_-_click"
     data-name="4 - click"
     cx="48.359501"
     cy="50.091774"
     rx="48.359501"
     ry="48.000599"
     style="fill:#60f3bd;fill-opacity:1" />
  <g
     id="_4"
     data-name="4"
     transform="translate(-938.65521,-1035.1968)">
    <path
       d="m 1010.2282,1084.3435 a 1.51,1.51 0 0 0 0.18,0.2107 c 0.4986,1.7717 1.1782,2.9052 2.01,2.1823 -0.9436,1.1873 0.4021,-0.2395 -0.012,0.6679 0.1185,-0.2615 0.2029,-0.4608 0.27,-0.6344 a 2.5919,2.5919 0 0 0 2.2977,0.3491 c 0.011,0.3409 0.028,0.7119 0.062,1.1513 0.01,-0.032 0.2274,-0.778 0.3459,-1.3072 a 3.9182,3.9182 0 0 0 0.3728,-0.2 3.7806,3.7806 0 0 0 -0.1089,0.8244 c 0.1908,0.1417 0.6637,-0.7542 0.9938,-1.5633 a 4.15,4.15 0 0 0 1.1035,-2.5145 12.3641,12.3641 0 0 0 -0.07,-2.0026 0.084,0.084 0 0 0 0.074,0.078 c 0.594,0.1094 0.2225,-0.5494 0.068,-0.3771 a 0.72,0.72 0 0 0 -0.1429,0.2995 c -0.038,-0.3459 -0.091,-0.6985 -0.1516,-1.0425 0.1686,-0.8012 0.2457,-1.3757 0.089,-1.3677 a 5.22,5.22 0 0 1 -0.1943,0.82 c -0.054,-0.2414 -0.1039,-0.4822 -0.1626,-0.723 a 4.5131,4.5131 0 0 0 -0.4986,-2.671 c -0.012,0.021 -0.031,0.035 -0.1882,0.095 -0.048,-0.014 -0.089,-0.028 -0.1247,-0.04 -0.015,-0.05 -0.034,-0.1 -0.054,-0.15 a 0.8221,0.8221 0 0 1 0.2995,0 1.439,1.439 0 0 0 -0.4267,-0.35 c -0.13,-0.3434 -0.26,-0.6837 -0.3934,-1.0175 a 0.9621,0.9621 0 0 1 0.2639,0.11 2.1851,2.1851 0 0 1 -0.093,-0.2762 c -0.34,-0.56 -0.7737,-1.1818 -0.7125,-1.1023 0.97,0.234 -2.2843,-2.1321 -3.773,-0.4375 0.099,-0.1455 0.187,-0.3008 0.2957,-0.4395 -0.041,-0.057 -0.1649,0.148 -0.3262,0.4706 a 2.2563,2.2563 0 0 0 -0.2934,0.4516 c 0.077,-0.1351 0.176,-0.2567 0.26,-0.3863 -0.5744,1.1568 -1.6352,3.6855 -1.9127,2.6436 a 11.7878,11.7878 0 0 0 -0.056,2.7842 3.0182,3.0182 0 0 0 -0.087,0.3067 7.4033,7.4033 0 0 0 0.7937,5.1603 z m 0.9386,1.5582 0.089,0.1766 c -0.068,-0.016 -0.5194,-0.1259 -0.089,-0.1766 z m 3.0616,-1.5766 a 2.1731,2.1731 0 0 1 -0.1527,-0.4736 2.2464,2.2464 0 0 0 0.4645,0.5494 c -0.087,0.1448 -0.1882,0.1516 -0.3118,-0.076 z m 2.5043,-7.6368 c 0.3362,0.1448 0.3006,0.2622 -0.1136,0.3288 a 0.2122,0.2122 0 0 1 -0.044,-0.08 0.7193,0.7193 0 0 1 0.1577,-0.2488 z m -3.6371,-3.5608 c -0.084,0.026 -0.1541,-0.045 -0.2188,-0.2145 0.065,-0.019 0.3483,0.197 0.2188,0.2145 z m 0.4655,0.6654 a 5.2205,5.2205 0 0 0 -1.4238,1.0779 10.7,10.7 0 0 0 0.3654,-1.2941 c 0.2188,-0.1567 0.6173,-0.036 1.0584,0.2162 z m -1.6731,-0.01 c 0.1393,-0.5909 -0.1345,1.111 0,0 z m -0.6807,1.99 a 0.2052,0.2052 0 0 1 0.1319,0.01 c -0.024,0.031 -0.048,0.062 -0.072,0.094 a 0.17,0.17 0 0 1 -0.06,-0.1023 z"
       style="fill:#3d69d8"
       id="path662" />
    <path
       d="m 965.781,1078.7043 a 4.6326,4.6326 0 0 1 -0.5879,1.5057 c -0.0892,-0.029 0.7553,-2.7719 -0.1589,-4.0675 -0.004,0.014 -0.022,0.031 -0.0587,0.05 0.0489,-0.01 0.0514,0 -0.1283,0.059 -0.638,-0.17 -0.003,-0.2255 0.16,-0.1534 a 1.4584,1.4584 0 0 0 -0.5316,-0.4424 2.0464,2.0464 0 0 0 -0.12,0.2743 9.9964,9.9964 0 0 0 -0.46,-1.2986 1.3888,1.3888 0 0 1 0.5952,0.2054 c -0.0464,-0.1382 -0.0965,-0.4156 -0.0562,-0.2738 a 0.3121,0.3121 0 0 0 0.066,0.094 c -0.2945,-0.5664 -0.7284,-1.2558 -0.6966,-1.2191 0.9264,0.2376 -2.1609,-2.0882 -3.6079,-0.162 0.0672,-0.1149 0.1344,-0.2346 0.2053,-0.3489 -0.0391,-0.042 -0.1357,0.1412 -0.2689,0.432 a 2.6768,2.6768 0 0 0 -0.2456,0.4462 c 0.06,-0.1106 0.1259,-0.217 0.1907,-0.3264 -0.5085,1.1343 -1.4446,3.5394 -1.793,2.5929 -0.05,0.2414 -0.18,1.0707 -0.2811,2.05 -0.04,-0.053 -0.0941,-0.092 -0.1418,-0.061 -0.0525,0.034 0.0257,0.2554 0.1186,0.3078 -0.1651,1.7264 -0.2225,3.8017 0.374,4.045 -0.8946,0.3519 -0.374,1.4745 0.4644,2.5176 0.2518,0.9167 0.7479,1.5284 1.5986,1.5865 0.5195,0.4027 0.9142,0.5866 0.9142,0.3287 -0.002,-0.171 -0.01,-0.3117 -0.0244,-0.4406 a 4.8937,4.8937 0 0 0 0.6966,-0.2646 c -0.0611,0.2658 -0.1234,0.5573 -0.1857,0.8836 -3.4515,3.9911 0.3458,-0.1565 1.0033,-1.3285 0.0294,-0.018 0.0588,-0.035 0.0893,-0.054 0.0822,-0.052 0.1381,-0.081 0.2,-0.1229 0.0514,-0.033 0.0893,-0.072 0.1381,-0.1069 a 4.4046,4.4046 0 0 0 -0.6379,1.1892 c 0.2493,0.3746 2.1925,-2.1853 1.953,-2.3424 -0.0281,-6e-4 -0.0439,0.017 -0.0709,0.02 a 1.2249,1.2249 0 0 0 0.2945,-0.5384 2.4556,2.4556 0 0 0 0.1077,0.6832 0.9147,0.9147 0 0 0 -0.07,-0.8134 5.802,5.802 0 0 0 0.154,-0.842 c 0.0465,0.042 0.0722,-0.3544 0.0465,-0.4767 0.0109,-0.2 0.0208,-0.4081 0.0257,-0.6264 q 0.0293,-0.074 0.0586,-0.15 c -0.007,-0.319 0.0892,-0.4541 0.154,-0.4253 0.4596,-1.2726 0.8018,-2.3873 0.5171,-2.386 z m -0.46,-1.0553 c -0.2444,-1.11 0.28,-0.1742 0,0 z m -0.3165,-1.3231 q 0.4894,0.2263 -0.132,0.3177 c -0.1663,0.025 0.0875,-0.2908 0.1324,-0.3177 z m -0.231,1.5332 -0.0147,-0.094 c 0.1092,-0.023 0.0738,0.1009 0.0151,0.094 z m -6.084,3.7327 c -0.005,0.043 -0.01,0.085 -0.0123,0.1264 -0.1353,0.026 -0.2147,-0.01 0.0128,-0.1264 z m 1.8418,-0.058 a 3.5031,3.5031 0 0 1 0.1589,-1.4685 c -0.0864,0.5948 -0.1366,1.1183 -0.1585,1.4685 z m -1.7918,-0.4089 a 0.2161,0.2161 0 0 1 -0.1038,-0.065 0.1371,0.1371 0 0 1 0.1185,-0.041 z m -0.0525,-1.7092 0.1492,0.1369 c 0.092,0.1784 -0.2162,-0.021 -0.1488,-0.1369 z m 4.5013,-5.87 c -0.0208,-0.02 -0.0452,-0.041 -0.0672,-0.059 0.0761,-0.077 0.1789,-0.094 0.0676,0.059 z m -1.5815,-0.5653 c -0.07,0.05 -0.1491,0 -0.2408,-0.1565 0.0554,-0.035 0.3561,0.1038 0.2412,0.1562 z m 0.1039,0.4333 a 3.19,3.19 0 0 0 -0.7358,0.7222 2.3771,2.3771 0 0 0 0.143,-0.6129 0.703,0.703 0 0 1 0.5932,-0.1094 z m -2.8025,5.1588 c 0.18,0.11 0.137,0.1406 -0.1222,0.098 z m 0.0391,0.5671 c -0.1209,0.096 -0.2554,0.074 -0.4094,-0.075 a 0.3293,0.3293 0 0 1 0.4098,0.075 z m -0.4486,0.8047 c 0.1113,0.073 -0.0854,0.1248 0,0 z m -0.1416,2.8986 c 0.6574,0.2107 -0.4547,0.443 0,0 z m 0.1734,0.5664 c 0.0354,-0.01 0.0551,-0.015 0.08,-0.023 l 0.007,0.098 c -0.0539,-0.01 -0.087,-0.031 -0.087,-0.075 z m 5.5023,1.0872 c 0.0293,-0.048 0.0526,-0.1015 0.077,-0.1516 a 0.312,0.312 0 0 0 0.0869,0.016 0.5545,0.5545 0 0 0 -0.2005,0.3 c 0.008,-0.043 0.0238,-0.1021 0.037,-0.1644 z"
       style="fill:#3d69d8"
       id="path664" />
    <path
       d="m 1001.6436,1106.6691 a 0.3739,0.3739 0 0 0 0.1576,0.151 c 1.06,0.9031 2.1242,0.1442 1.611,-3.0488 -1.17,-7.2866 -8.0922,-11.241 -15.1271,-10.1673 a 17.3049,17.3049 0 0 0 -9.5893,4.8288 11.4232,11.4232 0 0 0 -3.108,5.4516 8.5048,8.5048 0 0 0 -0.6746,1.25 0.9452,0.9452 0 0 1 0.2408,0.1436 l -0.08,0.2346 a 1.7079,1.7079 0 0 1 -0.1931,-0.2951 c -0.4265,1.078 -0.2664,1.8387 0.9092,1.9475 a 1.73,1.73 0 0 0 -0.9361,0.2726 q 1.2522,0.051 0.2273,0.2781 c 1.4056,-0.4 1.9555,0.1227 2.624,-0.6747 a 10.6349,10.6349 0 0 1 0.4583,-1.9409 21.1687,21.1687 0 0 1 3.0152,-4.2226 c 0.754,-0.245 1.6842,-0.45 1.71,-0.7724 0.003,-0.14 -0.5683,-0.065 -0.8,-0.1375 0.2126,-0.1979 0.4265,-0.3936 0.6514,-0.5775 0.09,0.3728 1.26,0.068 2.2548,-0.2824 -2.5971,2.8325 3.79,-2.041 2.6474,-2.0221 1.63,-0.026 2.6252,1.3927 4.85,0.6307 1.8369,0.143 -0.4485,-0.608 -0.4131,-0.5237 0.48,-0.6032 1.0412,-0.37 1.32,-0.4779 0.1393,0.034 0.2737,0.051 0.4131,0.089 a 2.0239,2.0239 0 0 0 0.3409,1.9152 c 0.8519,0.8446 2.167,0.063 2.4371,0.4693 0.1478,0.1681 2.0178,1.82 3.0212,2.5972 q 0.1026,0.2218 0.1943,0.4492 a 1.1626,1.1626 0 0 0 0.1492,0.3709 c 0.03,0.087 0.0476,0.1821 0.0745,0.2707 -0.3214,0.1919 -0.7871,0.4045 -0.7492,0.4424 0.1039,0.1039 0.5378,-0.023 0.8409,-0.1106 0.055,0.1882 0.1173,0.37 0.1588,0.5628 a 8.338,8.338 0 0 0 0.3557,1.2142 c -0.3629,0.4223 0.6673,2.6168 0.81,2.9022 v -1.4423 a 2.7076,2.7076 0 0 0 0.1978,0.224 z m -25.5828,-0.023 c 0.0281,0.082 0.06,0.1581 0.0916,0.2315 -0.0464,0 -0.0843,0 -0.14,-0.012 a 1.4853,1.4853 0 0 1 0.0484,-0.2193 z m 8.4966,-8.07 c -0.2334,0.1039 -0.1014,-0.6575 0,0 z m 0.2995,-0.3288 a 0.287,0.287 0 0 1 -0.0782,-0.2866 c 0.16,0.1215 0.1821,0.2272 0.0782,0.287 z m 3.58,-1.4861 c -0.0586,0.015 -0.1026,-0.051 -0.1467,-0.1582 0.0441,-0.01 0.0783,-0.021 0.1211,-0.03 0.0558,0.097 0.0887,0.1898 0.0253,0.1886 z m 2.1621,0.4485 c -0.005,-0.015 -0.0245,-1.0627 0,0 z m 0.9741,0.051 c 0.1039,-0.3367 0.1833,-0.3305 0.2236,0.017 z m 2.7242,-0.2877 c 0.0392,0.014 0.0818,0.028 0.1185,0.041 -0.0293,0.08 -0.0989,0.3 -0.0524,0.2487 a 1.72,1.72 0 0 0 0.0524,-0.2487 1.057,1.057 0 0 1 -0.0524,0.2487 c -0.5015,0.5666 -0.2473,-0.043 -0.0664,-0.2892 z m 0.29,0.1014 c 0.1,0.036 0.2029,0.064 0.3019,0.1051 -0.0282,0.092 -0.0675,0.198 -0.1259,0.3379 -0.1096,0.2618 -0.2133,-0.3388 -0.1766,-0.4426 z m 0.4668,1.3065 a 0.2467,0.2467 0 0 1 0.1077,0.072 c -1.048,-0.2391 -0.4553,-0.2638 -0.1083,-0.072 z m 0.2446,-1.0119 c 0.1319,0.063 0.2627,0.1331 0.3922,0.2035 a 0.8466,0.8466 0 0 1 -0.3928,-0.2033 z m 0.4252,1.1843 c 0.0293,0 0.0244,-0.088 0.009,-0.034 0.0924,-0.3736 0.2818,0.098 -0.009,0.035 z m 5.1882,7.4614 a 0.505,0.505 0 0 1 0.1015,-0.2151 c 0.065,0.1167 0.13,0.2291 0.1955,0.3324 -0.074,0.518 -0.1704,0.6634 -0.2976,-0.1169 z"
       style="fill:#3d69d8"
       id="path666" />
    <path
       d="m 996.7487,1100.1439 c -0.2981,0.432 0.5891,0.09 0.605,-0.031 a 0.3646,0.3646 0 0 0 -0.605,0.031 z"
       style="fill:#3d69d8"
       id="path668" />
    <path
       d="m 994.6637,1099.7344 c -0.277,0.6387 0.9044,-0.1741 0.8848,-0.1576 -0.0721,-0.01 -0.7166,-0.2302 -0.8848,0.1576 z"
       style="fill:#3d69d8"
       id="path670" />
    <path
       d="m 990.9324,1098.4933 c -0.0807,1.2527 1.0938,-0.3409 1.0779,-0.311 -0.1295,0.01 -1.0645,-0.1399 -1.0779,0.311 z"
       style="fill:#3d69d8"
       id="path672" />
    <path
       d="m 1033.8311,1072.308 a 54.7389,54.7389 0 0 0 -15.0047,-25.8787 42.5549,42.5549 0 0 0 -13.7313,-8.92 33.7345,33.7345 0 0 0 -8.0384,-2.0464 32.1088,32.1088 0 0 0 -5.67,-0.198 q -1.85,0.9339 0,1.9182 c 0.1465,0.015 0.29,0.041 0.4362,0.059 1.49,0.5219 9.566,4.71 10.1845,3.1184 2.9014,0.3447 3.3024,2.3161 7.0789,2.4683 0.09,0 0.13,-0.018 0.1479,-0.05 a 43.1814,43.1814 0 0 1 3.6825,2.2892 c -1.76,1.158 1.579,2.0556 3.5492,2.7449 0.3813,0.3282 0.7529,0.6656 1.122,1.0059 a 3.8382,3.8382 0 0 1 -0.9436,0.4841 c 0.5573,1.1426 3.3256,2.52 5.0012,3.8156 q 0.6656,0.81 1.2955,1.6511 a 0.7054,0.7054 0 0 1 -0.049,0.308 c -0.54,1.3921 1.5436,2.9755 2.3294,3.5841 0.4889,-0.1148 2.2317,9.3992 4.7629,9.6712 0.1968,0.5835 0.38,1.1758 0.5561,1.7716 a 6.2788,6.2788 0 0 0 -0.286,3.2266 c 0.7651,-0.32 0.8776,-0.094 1.1623,0.1038 0.028,0.1173 0.055,0.2366 0.081,0.3551 -1.5179,0.6379 -0.015,2.8446 -0.2982,4.3161 q 0.4858,-0.4152 0.9715,-0.8316 c 0.08,0.4956 0.1467,0.9991 0.2115,1.502 a 2.2425,2.2425 0 0 0 -1.1806,-0.3276 c 0.1491,1.1813 0.2579,2.3667 0.319,3.5572 0.506,-0.3055 0.9068,-0.32 1.2076,-0.065 0.015,0.174 0.022,0.3506 0.033,0.5273 a 1.9019,1.9019 0 0 1 -1.2026,0.052 q -1.2832,4.5978 1.0779,2.9039 a 0.6954,0.6954 0 0 0 0.2628,-0.015 c 0.01,0.52 0.015,1.0371 0.01,1.5516 a 9.1543,9.1543 0 0 0 -1.1439,-0.591 c 0.028,1.0933 -0.7516,4.2342 1.001,3.74 0,0.042 0,0.085 -0.01,0.1265 -0.9936,1.1648 -0.8127,2.0533 -0.3031,2.7377 -0.1247,0.8727 -0.28,1.7343 -0.4534,2.5892 -1.0267,0.33 -1.8712,0.8934 -0.9887,2.4212 a 1.4926,1.4926 0 0 1 0.545,-0.45 q -0.48,1.9112 -1.1146,3.7509 a 23.1162,23.1162 0 0 0 -2.3638,4.1885 c 0.1883,0.095 0.3631,0.182 0.5317,0.2658 -0.092,0.1937 -0.1819,0.3887 -0.2774,0.58 -0.6311,1.2636 -1.3065,2.4963 -2.0472,3.6874 -0.1478,0.094 -0.2945,0.1863 -0.4583,0.2707 0.087,0.027 0.1723,0.037 0.2567,0.056 -0.3813,0.6073 -0.7835,1.2032 -1.1966,1.7892 a 3.1547,3.1547 0 0 0 -0.3568,-0.6074 c -1.3274,2.0722 -3.0506,4.7775 -5.0355,6.2643 a 2.4958,2.4958 0 0 1 0.1321,0.52 c -0.5232,0.5153 -1.0658,1.0158 -1.6194,1.507 a 4.0526,4.0526 0 0 0 0.3373,-1.1006 44.8607,44.8607 0 0 1 -9.9083,6.5919 4.3042,4.3042 0 0 0 0.5342,0.7926 c -0.39,0.2083 -0.78,0.4167 -1.1733,0.6153 a 4.2651,4.2651 0 0 0 0.038,-0.545 1.3143,1.3143 0 0 1 -0.2042,0.6264 q -0.8725,0.4316 -1.7623,0.8347 c -1.5656,0.2407 -3.603,0.2078 -4.3656,1.7147 -0.4644,0.1571 -0.924,0.3166 -1.3921,0.4614 -0.065,-0.2835 -0.1333,-0.5671 -0.22,-0.8463 -0.9178,0.25 -3.2534,0.9276 -3.4845,1.0663 a 1.7173,1.7173 0 0 0 0.6332,0.619 c -0.3167,0.078 -0.6258,0.157 -0.9437,0.23 a 13.4558,13.4558 0 0 0 -4.1516,-0.2114 c 0.6147,0.1276 0.8017,0.4241 0.605,0.87 a 43.2893,43.2893 0 0 1 -5.96,0.4908 c -0.2188,-0.7034 -0.5683,-1.0279 -2.5165,-1.06 a 1.85,1.85 0 0 1 0.3826,1.03 40.9547,40.9547 0 0 1 -4.9316,-0.5078 c -0.1686,-0.877 -5.974,-2.1749 -6.6156,-1.66 -0.3863,-0.1308 -0.7712,-0.2641 -1.1513,-0.4065 a 2.1746,2.1746 0 0 0 -1.2112,-0.96 c -1.2785,-0.5384 -1.249,-0.1772 -1.8358,-0.3288 q -0.671,-0.3164 -1.3284,-0.6563 a 45.4429,45.4429 0 0 0 -4.58,-2.7152 c -0.0941,-0.063 -0.1834,-0.1308 -0.275,-0.1961 -0.5072,-1.6909 -2.38,-2.5568 -4.33,-3.4221 a 47.7421,47.7421 0 0 1 -7.6313,-8.75 c 0.2909,-0.06 0.55,0.1308 0.6843,0.8043 1.1574,-0.5923 0.3093,-0.8971 -0.8384,-1.0419 q -0.5958,-0.8836 -1.15,-1.7924 a 3.4794,3.4794 0 0 1 0.9374,0.4644 5.2512,5.2512 0 0 0 -1.5815,-1.5307 52.0543,52.0543 0 0 1 -6.8529,-23.2161 c 0.4181,-0.371 0.6258,-0.789 -0.0377,-1.1012 a 41.5955,41.5955 0 0 1 0.1551,-5.6906 c 0.1625,-1.5221 0.3553,-2.9926 0.4938,-3.9048 a 40.801,40.801 0 0 1 9.8875,-21.153 28.0134,28.0134 0 0 1 4.1322,-3.7282 3.8481,3.8481 0 0 1 -0.3849,-0.1461 c 0.1429,-0.1308 0.2834,-0.2658 0.4289,-0.3942 0.4962,0.031 1.1122,-0.3428 2.3845,-1.3 2.0911,-1.5706 4.4537,-2.0038 3.8768,-3.3062 0.2468,-0.1527 0.49,-0.3134 0.7407,-0.4607 0.0524,0.1052 0.1038,0.21 0.1575,0.3142 a 23.0928,23.0928 0 0 0 3.6556,-2.3326 c 1.265,-0.6069 2.5458,-1.1824 3.8584,-1.6964 0.9228,-0.3617 1.8542,-0.6991 2.79,-1.02 4.25,-1.1281 8.5724,-1.2375 12.58,-2.9645 0.5635,-0.2652 0.3581,-0.5249 -0.2213,-0.7712 0.9692,-0.3758 1.4887,-0.6789 0.6906,-0.69 -1.0278,-0.014 -2.0362,0.011 -3.0346,0.055 a 33.0927,33.0927 0 0 0 -4.1445,-0.5842 9.9014,9.9014 0 0 0 -3.67,0.8263 c 0.5439,0 1.083,0.01 1.6231,0.013 a 3.2905,3.2905 0 0 1 -1.0291,0.594 c -0.0647,0.013 -0.1307,0.024 -0.1943,0.037 a 0.6789,0.6789 0 0 1 -0.638,-0.226 1.02,1.02 0 0 1 -0.1467,-0.2274 12.0927,12.0927 0 0 0 -1.5411,0.9924 44.1471,44.1471 0 0 0 -5.7687,1.9152 0.6326,0.6326 0 0 1 0.0305,-0.4205 c -1.161,0.5079 -6.9432,3.4741 -6.7013,3.6581 0.2849,-0.097 0.5586,-0.2078 0.8373,-0.3167 -0.11,0.066 -0.22,0.1314 -0.3313,0.1993 -3.0847,1.47 -8.0126,4.0388 -8.4159,5.7827 0.1931,0.1425 0.3667,0.2794 0.528,0.4113 -0.0892,0.087 -0.1785,0.173 -0.2652,0.2609 a 4.6771,4.6771 0 0 1 -0.2959,-0.5536 c -2.3759,4.3645 -8.4514,8.8848 -11.15,15.15 -0.847,1.9691 -4.8558,12.1761 -3.3831,13.892 a 4.4223,4.4223 0 0 1 0.4962,-1.3291 c -0.15,2.2086 -0.2,5.7223 -0.1882,9.0631 0,0.3746 0,0.75 0.007,1.1263 0.0293,3.6873 0.1283,6.934 0.242,7.6172 a 2.4648,2.4648 0 0 0 0.3874,-0.2872 50.6245,50.6245 0 0 0 5.01,15.4307 c 0.7479,3.3825 5.1116,8.2785 6.3138,9.6724 a 29.854,29.854 0 0 1 4.6773,6.4967 c 0.6417,1.2789 3.3207,1.1426 4.1921,1.8387 -0.8666,-0.6924 -1.4239,-1.114 -1.78,-1.4777 a 0.9425,0.9425 0 0 0 0.7663,0.159 q 0.5958,0.4426 1.2051,0.8634 c 1.08,1.5925 4.9522,3.2638 5.6441,3.6983 a 2.8338,2.8338 0 0 0 2.2084,0.6319 44.9083,44.9083 0 0 0 6.2845,2.151 c 0.3483,0.32 0.6819,0.4608 0.946,0.2323 a 50.2788,50.2788 0 0 0 38.3779,-6.8418 c 18.2829,-11.6371 25.139,-33.2953 19.7801,-53.921 z m -38.25,-34.4431 c 0.0331,0.01 0.0808,0.016 0.099,0.021 -0.0201,0 -0.0545,-0.01 -0.0986,-0.021 z m 31.3834,24.5494 c 0.1479,-0.1967 0.2664,-0.3495 0.37,-0.4858 0.075,0.1486 0.1491,0.2952 0.2212,0.4455 a 2.715,2.715 0 0 0 -0.5908,0.04 z m -4.2141,52.4937 c -0.078,0.093 -0.1491,0.1881 -0.2286,0.28 -0.026,0 -0.045,0 -0.072,0 0.098,-0.1005 0.1995,-0.194 0.301,-0.2843 z m -11.5045,9.7951 c 0.048,0.01 0.081,0.01 0.1247,0.015 l -0.072,0.044 c -0.019,-0.02 -0.031,-0.039 -0.052,-0.059 z m -52.8742,0.3385 a 1.4611,1.4611 0 0 1 -0.231,-0.5145 4.0771,4.0771 0 0 0 0.2314,0.5145 z"
       style="fill:#3d69d8"
       id="path674" />
  </g>
  <metadata
     id="metadata5114">
    <rdf:RDF>
      <cc:Work
         rdf:about="">
        <dc:title>sinaisthimata-2</dc:title>
      </cc:Work>
    </rdf:RDF>
  </metadata>
</svg>
