<?xml version="1.0" encoding="UTF-8" standalone="no"?>
<svg
   width="98.726036"
   height="102.59162"
   viewBox="0 0 98.726036 102.59162"
   version="1.1"
   id="svg730"
   sodipodi:docname="f4-on.svg"
   inkscape:version="1.2.1 (9c6d41e410, 2022-07-14)"
   xmlns:inkscape="http://www.inkscape.org/namespaces/inkscape"
   xmlns:sodipodi="http://sodipodi.sourceforge.net/DTD/sodipodi-0.dtd"
   xmlns:xlink="http://www.w3.org/1999/xlink"
   xmlns="http://www.w3.org/2000/svg"
   xmlns:svg="http://www.w3.org/2000/svg"
   xmlns:rdf="http://www.w3.org/1999/02/22-rdf-syntax-ns#"
   xmlns:cc="http://creativecommons.org/ns#"
   xmlns:dc="http://purl.org/dc/elements/1.1/">
  <sodipodi:namedview
     id="namedview732"
     pagecolor="#ffffff"
     bordercolor="#000000"
     borderopacity="0.25"
     inkscape:showpageshadow="2"
     inkscape:pageopacity="0.0"
     inkscape:pagecheckerboard="0"
     inkscape:deskcolor="#d1d1d1"
     showgrid="false"
     inkscape:zoom="3.3320106"
     inkscape:cx="42.016673"
     inkscape:cy="12.304883"
     inkscape:window-width="1920"
     inkscape:window-height="1017"
     inkscape:window-x="-8"
     inkscape:window-y="-8"
     inkscape:window-maximized="1"
     inkscape:current-layer="svg730" />
  <defs
     id="defs55">
    <clipPath
       id="clip-path">
      <rect
         x="2.5676999"
         y="-4.1897001"
         width="2044.2332"
         height="1429.7129"
         style="fill:none"
         id="rect2" />
    </clipPath>
    <clipPath
       id="clip-path-2">
      <rect
         x="0.31079999"
         y="0.2085"
         width="2046.49"
         height="1418.5383"
         style="fill:none"
         id="rect5" />
    </clipPath>
    <clipPath
       id="clip-path-3">
      <rect
         x="0.4914"
         y="0.2085"
         width="2046.49"
         height="1418.5383"
         style="fill:none"
         id="rect8" />
    </clipPath>
    <linearGradient
       id="_ÂÁ_Ï_ÌÌ_È_ËÂÌÚ_30"
       x1="973.72803"
       y1="217.1114"
       x2="1279.8972"
       y2="405.211"
       gradientUnits="userSpaceOnUse">
      <stop
         offset="0.1606"
         stop-color="#772d28"
         id="stop11" />
      <stop
         offset="0.3449"
         stop-color="#8e3930"
         id="stop13" />
      <stop
         offset="1"
         stop-color="#d2603c"
         id="stop15" />
    </linearGradient>
    <linearGradient
       id="_ÂÁ_Ï_ÌÌ_È_ËÂÌÚ_33"
       x1="975.55811"
       y1="312.90219"
       x2="1143.3853"
       y2="444.72739"
       gradientUnits="userSpaceOnUse">
      <stop
         offset="0.0135"
         stop-color="#772d28"
         id="stop18" />
      <stop
         offset="0.1554"
         stop-color="#7d302a"
         id="stop20" />
      <stop
         offset="0.5915"
         stop-color="#8a372e"
         id="stop22" />
      <stop
         offset="1"
         stop-color="#8e3930"
         id="stop24" />
    </linearGradient>
    <linearGradient
       id="_ÂÁ_Ï_ÌÌ_È_ËÂÌÚ_30-2"
       x1="828.7381"
       y1="472.54099"
       x2="1247.8842"
       y2="730.0495"
       xlink:href="#_%C3%82%C3%81_%C3%8F_%C3%8C%C3%8C_%C3%88_%C3%8B%C3%82%C3%8C%C3%9A_30" />
    <linearGradient
       id="_ÂÁ_Ï_ÌÌ_È_ËÂÌÚ_30-3"
       x1="937.97528"
       y1="496.49539"
       x2="737.89569"
       y2="766.1582"
       xlink:href="#_%C3%82%C3%81_%C3%8F_%C3%8C%C3%8C_%C3%88_%C3%8B%C3%82%C3%8C%C3%9A_30" />
    <linearGradient
       id="_ÂÁ_Ï_ÌÌ_È_ËÂÌÚ_12"
       x1="1231.5668"
       y1="673.64398"
       x2="1270.8306"
       y2="1060.5385"
       gradientUnits="userSpaceOnUse">
      <stop
         offset="0.2666"
         stop-color="#bb492f"
         id="stop29" />
      <stop
         offset="0.8134"
         stop-color="#a03c2b"
         id="stop31" />
    </linearGradient>
    <linearGradient
       id="_ÂÁ_Ï_ÌÌ_È_ËÂÌÚ_10"
       x1="886.21033"
       y1="1079.295"
       x2="886.21033"
       y2="558.34888"
       gradientUnits="userSpaceOnUse">
      <stop
         offset="0.1829"
         stop-color="#bb492f"
         id="stop34" />
      <stop
         offset="0.8134"
         stop-color="#d2603c"
         id="stop36" />
    </linearGradient>
    <linearGradient
       id="_ÂÁ_Ï_ÌÌ_È_ËÂÌÚ_10-2"
       x1="664.55438"
       y1="1079.3604"
       x2="664.55438"
       y2="558.34888"
       xlink:href="#_%C3%82%C3%81_%C3%8F_%C3%8C%C3%8C_%C3%88_%C3%8B%C3%82%C3%8C%C3%9A_10" />
    <linearGradient
       id="_ÂÁ_Ï_ÌÌ_È_ËÂÌÚ_12-2"
       x1="-2274.3308"
       y1="-526.58221"
       x2="-1997.9337"
       y2="-526.58221"
       gradientTransform="rotate(136.2115,-523.83111,697.56738)"
       xlink:href="#_%C3%82%C3%81_%C3%8F_%C3%8C%C3%8C_%C3%88_%C3%8B%C3%82%C3%8C%C3%9A_12" />
    <linearGradient
       id="_ÂÁ_Ï_ÌÌ_È_ËÂÌÚ_12-3"
       x1="1105.3553"
       y1="554.34039"
       x2="1383.4994"
       y2="554.34039"
       xlink:href="#_%C3%82%C3%81_%C3%8F_%C3%8C%C3%8C_%C3%88_%C3%8B%C3%82%C3%8C%C3%9A_12" />
    <linearGradient
       id="_ÂÁ_Ï_ÌÌ_È_ËÂÌÚ_12-4"
       x1="1230.0594"
       y1="673.56873"
       x2="1269.3973"
       y2="1061.1914"
       xlink:href="#_%C3%82%C3%81_%C3%8F_%C3%8C%C3%8C_%C3%88_%C3%8B%C3%82%C3%8C%C3%9A_12" />
    <linearGradient
       id="_ÂÁ_Ï_ÌÌ_È_ËÂÌÚ_10-3"
       x1="884.05292"
       y1="1079.9833"
       x2="884.05292"
       y2="558.05652"
       xlink:href="#_%C3%82%C3%81_%C3%8F_%C3%8C%C3%8C_%C3%88_%C3%8B%C3%82%C3%8C%C3%9A_10" />
    <linearGradient
       id="_ÂÁ_Ï_ÌÌ_È_ËÂÌÚ_7"
       x1="762.54498"
       y1="654.6286"
       x2="1312.0504"
       y2="246.0475"
       gradientUnits="userSpaceOnUse">
      <stop
         offset="0.2801"
         stop-color="#e27244"
         id="stop44" />
      <stop
         offset="0.8134"
         stop-color="#f2794e"
         id="stop46" />
    </linearGradient>
    <radialGradient
       id="radial-gradient"
       cx="223.35091"
       cy="410.99951"
       r="59.925201"
       gradientTransform="matrix(1,0,0,-1,0,1422)"
       gradientUnits="userSpaceOnUse">
      <stop
         offset="0"
         stop-color="#ff6163"
         id="stop49" />
      <stop
         offset="1"
         stop-color="#c62020"
         id="stop51" />
    </radialGradient>
    <radialGradient
       id="radial-gradient-2"
       cx="160.0694"
       cy="217.8264"
       r="67.1362"
       xlink:href="#radial-gradient" />
  </defs>
  <title
     id="title57">sinaisthimata-2</title>
  <ellipse
     id="_5_-_click"
     data-name="5 - click"
     cx="49.815437"
     cy="50.655388"
     rx="48.359501"
     ry="49.9282"
     style="fill:#60b9f3;fill-opacity:1" />
  <path
     d="m 28.839301,47.1225 a 4.71,4.71 0 0 1 -0.6722,1.4721 c -0.1,-0.04 0.9141,-2.7328 0.059,-4.0748 0,0.015 -0.024,0.032 -0.063,0.051 0.049,-0.01 0.051,0 -0.132,0.051 -0.6344,-0.1969 0.024,-0.2194 0.1759,-0.1394 a 1.4567,1.4567 0 0 0 -0.5145,-0.473 2.1961,2.1961 0 0 0 -0.1161,0.231 7.62,7.62 0 0 0 -0.38,-1.2765 1.38,1.38 0 0 1 0.5561,0.2279 c -0.04,-0.1406 -0.076,-0.4174 -0.04,-0.2768 a 0.3163,0.3163 0 0 0 0.051,0.092 c -0.2627,-0.5805 -0.6563,-1.2857 -0.627,-1.2478 0.9167,0.2853 -2.05,-2.1982 -3.5956,-0.35 0.074,-0.1118 0.15,-0.228 0.2272,-0.3385 -0.037,-0.045 -0.1454,0.1332 -0.2945,0.4191 a 2.8652,2.8652 0 0 0 -0.2677,0.4291 c 0.069,-0.107 0.1406,-0.21 0.209,-0.3159 -0.5658,1.106 -1.6218,3.4569 -1.9262,2.4975 -0.062,0.2389 -0.2321,1.0608 -0.3861,2.0337 -0.04,-0.056 -0.089,-0.099 -0.1418,-0.07 -0.055,0.032 0.012,0.2567 0.1039,0.3135 a 20.0052,20.0052 0 0 0 -0.2236,2.23 5.7743,5.7743 0 0 0 -0.091,2.3508 c -0.1418,0.7175 0.6563,1.9336 1.4984,2.8734 0.05,-0.015 0.1809,0.1553 0.1809,0.1553 0.748,0.8371 1.5179,1.3993 1.5375,1.0309 a 2.67,2.67 0 0 0 -0.092,-0.9857 3.5071,3.5071 0 0 0 0.902,-0.021 c -0.1064,0.3446 -0.2164,0.7357 -0.3349,1.2112 -3.8425,3.9928 0.7358,-0.5146 1.1477,-1.4092 a 0.142,0.142 0 0 0 0.017,0.098 c 0.1417,-0.1558 0.1783,-0.2107 0.1173,-0.1588 a 0.1392,0.1392 0 0 0 -0.1124,0.016 c 0.023,-0.011 0.045,-0.02 0.067,-0.03 a 2.9075,2.9075 0 0 0 0.4253,-0.2413 4.435,4.435 0 0 0 -0.8482,1.345 c 0.23,0.3867 2.3074,-2.0674 2.0728,-2.2366 a 0.5244,0.5244 0 0 0 -0.5879,0.37 c 0,-0.027 0.022,-0.067 0.031,-0.1008 a 2.7281,2.7281 0 0 0 0.1968,-0.2843 c 0.3312,-0.116 0.5976,-0.9081 0.76,-2.03 q 0.1448,-0.332 0.2872,-0.6686 c 0.012,-0.3165 0.1137,-0.4467 0.1772,-0.4161 0.5241,-1.2456 0.9262,-2.3401 0.6464,-2.3536 z m -3.872,-5.9367 c -0.072,0.046 -0.1478,-0.011 -0.2334,-0.1681 0.057,-0.031 0.3471,0.1228 0.2334,0.1681 z m -1.381,12.9386 a 1.9226,1.9226 0 0 1 -0.154,-0.1637 c 0.076,0.018 0.1515,0.035 0.2261,0.047 a 1.2689,1.2689 0 0 1 -0.072,0.1166 z m -0.121,-4.6583 a 4.2036,4.2036 0 0 1 0.038,-1.0419 9.0071,9.0071 0 0 1 0.2469,-1.0524 c 0.048,-0.1635 0.1124,-0.325 0.176,-0.484 0.011,0.03 0.023,0.062 0.035,0.093 a 17.5438,17.5438 0 0 0 -0.4962,2.4854 z m 1.1622,1.4 a 8.4048,8.4048 0 0 1 0.1821,-1.8656 c 0.022,0.06 0.042,0.1174 0.064,0.1748 -0.1014,0.6433 -0.1808,1.2404 -0.2457,1.6907 z m -0.424,-8.3511 a 4.442,4.442 0 0 0 0.2457,-0.8121 0.8766,0.8766 0 0 1 0.8346,0.01 3.3956,3.3956 0 0 0 -1.0799,0.8066 z m 2.2733,-0.64 c -0.021,-0.017 -0.043,-0.037 -0.067,-0.054 0.072,-0.1164 0.2675,-0.1632 0.067,0.054 z m 0.7063,5.5078 c 0.01,-0.042 0.015,-0.086 0.025,-0.127 a 1.7669,1.7669 0 0 1 0,0.2889 c -0.01,-0.054 -0.021,-0.1075 -0.029,-0.1619 z m 1.2492,-1.34 c -0.1859,-1.12 0.29,-0.1594 0,0 z m -0.3973,-1.0272 c -0.1665,0.016 0.1039,-0.286 0.1491,-0.31 0.3178,0.168 0.2698,0.2712 -0.1491,0.3105 z"
     style="fill:#3d69d8"
     id="path648" />
  <path
     d="m 79.296001,48.3594 a 0.7158,0.7158 0 0 0 -0.143,0.2921 c -0.038,-0.3453 -0.089,-0.6911 -0.15,-1.0358 0.1687,-0.8018 0.2469,-1.3757 0.088,-1.3689 a 4.997,4.997 0 0 1 -0.1944,0.82 c -0.051,-0.2408 -0.1039,-0.4816 -0.1637,-0.7211 a 5.2481,5.2481 0 0 0 -0.3129,-2.3014 c -0.031,0.05 -0.132,0.093 -0.3239,0.1222 a 0.2549,0.2549 0 0 1 -0.043,-0.078 0.7822,0.7822 0 0 1 0.1577,-0.2493 0.6925,0.6925 0 0 1 0.15,0.084 2.3877,2.3877 0 0 0 -0.1246,-0.25 c -0.011,0.021 -0.031,0.035 -0.187,0.094 -0.05,-0.013 -0.089,-0.027 -0.1247,-0.039 -0.02,-0.05 -0.039,-0.1 -0.057,-0.15 a 0.83,0.83 0 0 1 0.3006,0 1.4327,1.4327 0 0 0 -0.4265,-0.35 c -0.13,-0.3453 -0.2591,-0.6845 -0.3924,-1.0181 a 0.9135,0.9135 0 0 1 0.2629,0.11 1.8435,1.8435 0 0 1 -0.092,-0.2762 c -0.3434,-0.56 -0.776,-1.1818 -0.7112,-1.1017 0.9667,0.2334 -2.2892,-2.134 -3.7742,-0.4382 0.099,-0.1467 0.1858,-0.3 0.2958,-0.44 -0.045,-0.056 -0.1638,0.1479 -0.33,0.4712 a 2.2325,2.2325 0 0 0 -0.29,0.4515 c 0.077,-0.1369 0.1735,-0.2567 0.2578,-0.3875 -0.5757,1.1587 -1.6352,3.6874 -1.91,2.643 a 11.482,11.482 0 0 0 -0.056,2.7879 2.0811,2.0811 0 0 0 -0.087,0.3055 7.402,7.402 0 0 0 0.7919,5.16 1.6489,1.6489 0 0 0 0.1785,0.209 c 0.4974,1.7722 1.1831,2.9063 2.0105,2.184 -0.9411,1.1867 0.4008,-0.2395 -0.011,0.6674 0.12,-0.26 0.2042,-0.4609 0.2726,-0.6332 a 2.59,2.59 0 0 0 2.2953,0.3483 c 0.012,0.34 0.03,0.7114 0.064,1.15 0.01,-0.031 0.2249,-0.7774 0.3447,-1.3071 a 3.5391,3.5391 0 0 0 0.3714,-0.1986 4.0059,4.0059 0 0 0 -0.1062,0.8231 c 0.1906,0.1429 0.6611,-0.7529 0.9923,-1.562 a 4.1527,4.1527 0 0 0 1.1049,-2.5146 12.4333,12.4333 0 0 0 -0.068,-1.997 c 0,0.035 0.021,0.064 0.073,0.073 0.5928,0.1098 0.2225,-0.5502 0.067,-0.3766 z m -6.6512,4.6944 0.092,0.176 c -0.069,-0.017 -0.5195,-0.1266 -0.092,-0.1755 z m 0.1015,-10.025 a 0.1908,0.1908 0 0 1 -0.06,-0.102 0.21,0.21 0 0 1 0.132,0.01 c -0.023,0.031 -0.05,0.062 -0.072,0.094 z m 1.83,-2.7505 c -0.084,0.027 -0.1552,-0.046 -0.2175,-0.2139 0.062,-0.019 0.3467,0.1968 0.2171,0.2139 z m -1.2076,0.6587 c 0.1382,-0.5915 -0.1331,1.11 0,0 z m 0.2495,1.0835 a 11.47,11.47 0 0 0 0.3654,-1.2937 c 0.2163,-0.1546 0.6159,-0.035 1.0547,0.2169 a 5.258,5.258 0 0 0 -1.4205,1.0768 z m 2.0911,9.4548 a 2.023,2.023 0 0 1 -0.1528,-0.473 2.1792,2.1792 0 0 0 0.4632,0.5494 c -0.087,0.1448 -0.1886,0.151 -0.3108,-0.076 z m 2.8783,-6.2893 c -0.2873,-1.1245 0.2945,-0.209 0,0 z"
     style="fill:#3d69d8"
     id="path650" />
  <path
     d="m 35.329001,27.7443 a 1.4,1.4 0 0 0 -0.9825,-0.55 c 0.038,-0.1187 0.077,-0.2427 0.1172,-0.3832 a 3.7809,3.7809 0 0 0 -0.5939,0.3752 3.569,3.569 0 0 0 -0.5145,0.077 c 0.061,-0.2254 0.7442,-0.1545 0.4839,-0.5762 -0.3264,-0.5089 -0.9912,0.1162 -1.3859,0.1131 -0.6332,-0.01 0.3947,0.4693 0.3409,0.45 a 0.5655,0.5655 0 0 1 -0.033,0.1814 9.1675,9.1675 0 0 0 -0.9168,0.3716 c 0.01,-0.076 0.015,-0.1479 0,-0.1522 a 0.9948,0.9948 0 0 0 -0.066,0.187 24.7108,24.7108 0 0 0 -3.7582,2.3564 c -0.099,-0.1851 -0.2726,-0.3331 -0.4926,-0.067 a 0.8213,0.8213 0 0 0 -0.018,0.4461 q -0.2258,0.1705 -0.4462,0.3441 c -0.2285,-0.1015 -0.4486,-0.2194 -0.4486,-0.2194 0.2739,0.506 -1.2905,0.4748 -1.667,0.3495 -0.062,-0.032 -0.077,-0.044 -0.075,-0.057 a 2.89,2.89 0 0 1 -0.6526,0.5505 0.27,0.27 0 0 0 -0.053,-0.1 c -0.033,-0.036 -0.05,0.054 -0.04,0.1577 -0.9863,0.5976 -2.3063,0.8867 -2.9736,1.4416 0,0.032 0.01,0.057 0.014,0.1 l -0.082,0.023 c 0,0 0,-0.038 0,-0.067 a 0.9986,0.9986 0 0 0 -0.3043,1.0975 c -0.7138,-1.8326 0.1833,0.7553 -0.3507,-0.3752 0.3752,0.7975 0.4668,1.5656 0.9435,1.735 -0.1308,-0.045 0.2542,-0.2813 0.8323,-0.5666 a 19.0308,19.0308 0 0 1 -2.0619,1.7533 c 3.065,1.9276 17.9515,-5.2772 15.1866,-8.9961 z m -14.236,6.6854 c -0.015,0.1943 -0.066,0.143 -0.15,-0.1582 -3e-4,4e-4 0.2454,-0.1261 0.15,0.1586 z m 1.3859,-1.5216 c 0.1834,1.1873 -0.396,-0.6521 0,0 z m -0.1013,1.0944 c 0.017,0.043 0.1576,0.5732 0,0 z m -0.13,-0.9747 c 0.28,0.817 0,0.1925 -0.01,0.137 -0.019,-0.1048 -0.017,-0.1505 0.01,-0.1366 z m -0.2811,0.047 c 0.1075,-0.3288 0.7345,1.3249 0.047,0.084 0.017,0.027 -0.046,-0.084 -0.046,-0.084 z m 0.2371,0.9361 c -0.017,0.056 0.046,0.2781 -0.065,0.035 z m 0.1282,0.863 a 0.2266,0.2266 0 0 1 -0.14,-0.1639 c 0.032,-0.01 0.2164,-0.019 0.3862,-0.053 -0.083,0.074 -0.165,0.1472 -0.2458,0.2172 z m 0.29,-1.1452 c -0.1809,-0.3313 0.012,-0.2194 0.082,-0.084 z m 0.2065,0.5585 c -0.015,0.077 -0.055,-0.2065 0.01,-0.1656 z m 0.2236,-0.5879 c -0.026,-0.2883 0,-0.3037 0.075,-0.049 0.067,0.2399 0,0.1568 -0.074,0.049 z m 0.4132,-0.4687 a 0.3824,0.3824 0 0 1 0.097,0.2555 c -0.065,-0.027 -0.099,-0.1127 -0.096,-0.2551 z m 0.4192,-0.3923 c 0.032,0.154 -0.099,-0.073 0,0 z m 0.3165,0.064 0.033,0.2272 c -0.017,0.171 -0.116,-0.2665 -0.033,-0.2268 z m 0.2323,0.1454 a 0.7852,0.7852 0 0 1 -0.1871,-0.4382 0.9217,0.9217 0 0 1 0.1873,0.4386 z m 0.1772,-0.1467 c -0.022,-0.042 -0.043,-0.086 -0.075,-0.1509 2e-4,4e-4 0.1164,0.1091 0.075,0.1513 z"
     style="fill:#3d69d8"
     id="path652" />
  <path
     d="m 95.580401,33.2604 c -3.4771,-10.1875 -9.2165,-19.1589 -18.4208,-25.0145 a 55.3037,55.3037 0 0 0 -13.9659,-6.208 77.1427,77.1427 0 0 0 -7.624,-1.8364 c -1.6659,-0.3152 -6.2637,1.5125 -3.2682,2 0.8445,0.1374 1.6818,0.2932 2.5079,0.4589 2.6094,1.16 6.82,3.2717 8.1765,3.482 2.64,0.4063 4.2666,2.0826 7.866,2.1291 q 2.0624,1.088 3.9966,2.3337 c -0.2372,0.6239 0.8714,1.0957 2.1595,1.4923 q 1.2906,0.94 2.5129,1.9549 c -0.098,0.042 -0.1784,0.072 -0.192,0.078 a 10.2483,10.2483 0 0 0 2.8209,2.2861 45.68,45.68 0 0 1 3.4808,3.757 c -0.34,1.4177 1.6829,2.8868 2.3638,3.5792 1.0669,-0.1956 2.2586,11.0931 5.3556,10.039 0.86,1.6817 -0.18,3.0121 0.3593,5.1955 0.9081,-0.4766 0.8384,-0.06 1.2905,0.12 0.015,0.066 0.032,0.1326 0.048,0.1992 -1.6182,0.6813 0.027,2.9528 -0.1308,4.4458 0.286,-0.28 0.5721,-0.5623 0.8568,-0.8422 0.082,0.481 0.16,0.9643 0.2286,1.4514 a 1.9876,1.9876 0 0 0 -1.0559,-0.2652 29.125,29.125 0 0 1 0.4093,3.58 1.0362,1.0362 0 0 1 1.0084,-0.1533 c 0.02,0.2243 0.045,0.4467 0.061,0.671 a 1.7368,1.7368 0 0 1 -1.012,0 q -1.3657,4.6052 0.9814,2.9571 a 0.7355,0.7355 0 0 0 0.1613,-7e-4 c 0.01,0.5115 0.015,1.0237 0,1.5358 a 8.4044,8.4044 0 0 0 -1.0145,-0.6088 c -0.065,1.0408 -1.0338,4.411 0.8435,3.8537 -1.2553,1.3658 -0.9571,2.4009 -0.3642,3.1868 -0.1187,0.7969 -0.2544,1.59 -0.4119,2.38 -1.1379,0.3148 -2.2563,0.8011 -1.391,2.5728 a 1.5042,1.5042 0 0 1 0.9522,-0.5855 c -0.2677,1.1146 -0.583,2.2133 -0.9227,3.3042 -1.3139,1.2973 -2.035,3.0817 -2.959,5.17 0.3275,0.1484 0.6026,0.2725 0.858,0.3824 -0.097,0.2188 -0.198,0.4364 -0.3,0.6546 -0.1,-0.063 -0.1992,-0.1253 -0.3165,-0.19 a 5.8357,5.8357 0 0 1 -0.1454,1.1764 q -0.5226,1.0642 -1.0927,2.1 a 5.51,5.51 0 0 1 -1.16,0.974 2.98,2.98 0 0 0 0.5842,0.043 c -0.43,0.7455 -0.8763,1.4825 -1.3469,2.2048 a 2.1525,2.1525 0 0 0 -0.4424,-0.8384 c -1.5436,2.2537 -2.6656,5.0219 -4.6981,6.8839 a 2.0136,2.0136 0 0 1 0.1381,0.4 q -0.77,0.8378 -1.58,1.6389 a 3.6261,3.6261 0 0 0 0.3618,-0.9636 37.0866,37.0866 0 0 1 -9.6,7.426 3.9186,3.9186 0 0 0 0.2811,0.4009 c -0.2946,0.17 -0.5908,0.33 -0.89,0.4924 -1.1275,0.614 -2.2745,1.18 -3.4539,1.691 a 4.3856,4.3856 0 0 0 -2.717,1.07 c -0.5952,0.21 -1.1977,0.4034 -1.8051,0.5872 -0.042,-0.17 -0.073,-0.34 -0.1211,-0.509 -1.0828,0.4424 -3.2607,0.7945 -3.603,1.0071 a 2.1849,2.1849 0 0 0 0.3264,0.374 c -0.4523,0.095 -0.9044,0.1833 -1.3615,0.2645 a 18.518,18.518 0 0 0 -3.5688,-0.1392 c 0.4595,0.1 0.67,0.2859 0.67,0.5475 a 44.385,44.385 0 0 1 -5.9973,0.2285 1.8363,1.8363 0 0 1 0.072,-0.2779 12.2316,12.2316 0 0 1 -2.8624,-0.5342 1.3567,1.3567 0 0 1 0.3006,0.6709 45.8965,45.8965 0 0 1 -5.4594,-0.8 18.5192,18.5192 0 0 0 -5.8409,-1.6115 c -0.6355,-0.22 -1.2625,-0.451 -1.8883,-0.6955 -0.418,-1.2331 -1.271,-2.2457 -2.5054,-1.0614 q -0.6472,-0.297 -1.2846,-0.61 c -1.4666,-1.3286 -3.93,-3.2223 -5.0183,-2.8454 -0.3911,-0.248 -0.7674,-0.5034 -1.1464,-0.7608 -1.2051,-1.034 -2.9357,-2.7847 -3.2889,-3.1281 a 3.9461,3.9461 0 0 0 -2.2708,-1.2485 c -0.5561,-0.5029 -1.1,-1.0212 -1.6353,-1.5486 0.17,-0.152 -0.27,-0.531 -0.9814,-0.9917 a 51.5713,51.5713 0 0 1 -4.087,-4.82 c 0.3129,-0.1357 0.62,0.01 0.8348,0.7229 1.1379,-0.6752 0.1515,-0.9459 -1.0669,-1.0358 -0.4218,-0.5787 -0.8373,-1.1654 -1.2407,-1.7618 a 3.3934,3.3934 0 0 1 1.034,0.46 6.3817,6.3817 0 0 0 -1.7575,-1.573 50.2711,50.2711 0 0 1 -2.5017998,-4.3992 c -0.6086,-1.2168 -1.13,-2.45 -1.6144,-3.6868 -0.7139,-4.2984 -1.3176,-9.7726 -2.7782,-11.7813 a 46.9335,46.9335 0 0 1 0.7224,-13.3071 c 0.2309,-0.5586 0.4448,-0.8842 0.6184,-0.8066 a 38.8771,38.8771 0 0 1 0.9117,-5.1339 50.4032,50.4032 0 0 1 3.2645,-8.0353 c 1.0011,-1.9148 2.2891998,-3.8957 3.7667998,-6.2741 a 1.197,1.197 0 0 1 -0.2249,0.039 c 0.16,-0.2451 0.3313,-0.4865 0.4963,-0.7284 a 2.9074,2.9074 0 0 1 0.01,0.3025 c 1.7929,-2.294 3.6018,-4.8882 5.98,-6.65 a 3.47,3.47 0 0 1 -0.7161,-0.2047 c 0.2444,-0.2548 0.4986,-0.5022 0.7491,-0.751 1.3359,0.2193 2.0643,-0.8018 4.2839,-2.6521 1.6793,-1.4019 2.9173,-1.3842 1.7806,-2.3632 0.2249,-0.1534 0.4388,-0.3226 0.6673,-0.4705 0.1186,0.2151 0.2445,0.4473 0.3826,0.7 1.7673,-1.3706 3.66,-1.9231 4.3388,-3.2969 0.2994,-0.14 0.5988,-0.2785 0.902,-0.4118 a 0.6231,0.6231 0 0 1 0.032,0.5 q 0.669,-0.3383 1.3369,-0.6777 c -0.094,-0.095 -0.1906,-0.1893 -0.2847,-0.2847 0.209,-0.086 0.4168,-0.1748 0.6258,-0.2579 a 1.9651,1.9651 0 0 1 0.029,0.3569 c 5.4522,-2.3918 11.3,-2.1162 16.5105,-4.4885 0.6442,-0.3153 0.1272,-0.6026 -0.842,-0.8512 0.7981,-0.2652 1.3249,-0.4456 1.2747,-0.4437 -0.8225,0.044 -1.6378,0.1124 -2.4493,0.1955 A 39.8668,39.8668 0 0 0 42.585101,0 a 10.6833,10.6833 0 0 0 -3.7691,0.8752 c 0.5621,0 1.1207,-0.01 1.6841,-0.015 -0.8958,0.7162 -1.5318,0.8525 -1.9078,0.4217 a 1.0191,1.0191 0 0 1 -0.1492,-0.2242 c -1.5362,0.7864 -2.5874,1.8565 -4.4524,2.7633 -0.4975,0.1961 -0.9948,0.3972 -1.4849,0.608 -0.15,0.052 -0.2909,0.1057 -0.4511,0.1546 a 4.8647,4.8647 0 0 1 -0.6819,0.349 c 0.5916,-0.6863 -0.7786,-0.3092 -0.3924,-1.2784 -1.1695,0.5236 -7.1142,3.7105 -6.8369,3.8932 0.7835,-0.3495 1.5682,-0.7064 2.3442,-1.0713 -2.2427,1.1495 -9.6944,4.7629 -10.2321,7.26 0.4155,0.2641 0.7822,0.481 1.1134,0.6618 -0.1625,0.151 -0.3264,0.2976 -0.4841,0.4511 a 4.18,4.18 0 0 1 -0.66,-0.9925 c -1.7624,3.4185 -3.9758,3.0256 -5.3959,7.3 -0.1113,0.3271 -0.368,0.9265 -0.7077,1.65 a 55.22,55.22 0 0 0 -3.7325998,6.1788 1.0888,1.0888 0 0 1 -0.3336,0.2213 c -1.3359,0.4655 -5.71000002,13.191 -4.912,14.5091 -0.046,-0.074 0.1247,-0.4039 0.3521,-0.8219 A 47.36,47.36 0 0 0 0.78520118,48.203 c -0.2066,0.8787 -0.363,1.543 -0.4167,1.7556 -0.786,3.3177 -0.1626,7.4841 0.4583,10.7638 a 2.2321,2.2321 0 0 0 0.58660002,-0.5708 49.5894,49.5894 0 0 0 1.3628,5.652 c 0.012,0.056 0.023,0.1113 0.035,0.1675 a 0.6629,0.6629 0 0 1 0,-0.069 c 0.1454,0.4778 0.2932,0.9527 0.4534,1.4256 -0.042,0.054 -0.084,0.1051 -0.1136,0.14 0.53,2.1359 1.2465,4.0779 2.2035,5.0422 q 0.6618,1.4079 1.4044,2.7792 c 0.3275,2.8814 4.3999998,7.1633 5.7172998,8.5969 a 20.2969,20.2969 0 0 0 1.3859,1.52 q 1.408,1.5894 2.95,3.0781 a 10.4924,10.4924 0 0 1 1.3749,2.2391 c 1.1073,2.671 3.4075,1.7783 5.1307,3.17 -0.089,-0.073 -0.1577,-0.1259 -0.2419,-0.1937 16.6437,11.821 39.4473,12.0037 55.9884,-0.3379 18.5596,-13.8474 23.773399,-38.826 16.5148,-60.0999 z m -5.8482,-5.5755 c 0.2323,-0.3417 0.3936,-0.5787 0.5183,-0.748 0.1479,0.2677 0.29,0.5426 0.4375,0.8146 a 2.13,2.13 0 0 0 -0.9558,-0.067 z M 34.595801,5.1587 c 0.023,0.1926 0.1259,0.3654 -0.028,0.275 -0.097,-0.065 -0.1613,-0.1148 -0.237,-0.1754 0.088,-0.032 0.1759,-0.067 0.2652,-0.1 z m -5.99,1.0859 c 0,0.027 -0.01,0.042 -0.01,0.068 -0.341,0.1815 -0.6807,0.3612 -1.0181,0.55 a 4.1625,4.1625 0 0 1 -0.8787,-0.42 c 0.6354,-0.066 1.2722,-0.1312 1.9052,-0.1981 z m -3.812,2.3131 q -0.4655,0.3024 -0.9263,0.616 c -0.1,-0.07 -0.1968,-0.1357 -0.3129,-0.2115 0.5499,-0.4143 0.9313,-0.5115 1.2393,-0.4045 z M 0.88310118,56.7613 a 0.179,0.179 0 0 1 0.068,0.1423 c -0.022,-0.047 -0.047,-0.095 -0.069,-0.1423 z M 86.212401,82.3606 c -0.072,0.012 -0.1332,0.02 -0.2028,0.032 a 7.14,7.14 0 0 1 0.6624,-0.6489 c -0.1528,0.2059 -0.3056,0.4125 -0.4597,0.6166 z"
     style="fill:#3d69d8"
     id="path654" />
  <path
     d="m 63.053901,27.6943 c 0,-0.044 0.072,-0.01 0.2018,0.073 -0.072,0.1723 -0.021,0.46 0.2211,0.9227 a 17.608,17.608 0 0 0 8.0164,7.4322 c 1.8467,0.8982 12.3257,2.3129 6.8185,-1.5608 -0.096,-0.068 -0.204,-0.124 -0.3055,-0.1882 a 0.3064,0.3064 0 0 0 0.056,-0.083 c 0.2225,-0.5819 -1.3289,-1.0941 -1.3554,-1.02 a 0.4147,0.4147 0 0 0 0,0.3722 c -0.1626,-0.079 -0.3166,-0.165 -0.4841,-0.2395 0.016,0 0.021,-0.01 -0.033,-0.064 a 0.6594,0.6594 0 0 1 -0.2933,-0.069 c -0.5711,-0.2411 -1.0976,-0.4425 -1.6329,-0.6362 -0.1857,-0.1247 -0.3129,-0.1876 -0.3409,-0.1247 -0.8763,-0.3134 -1.76,-0.6245 -2.613,-0.9783 0.1588,-0.187 0.2993,-0.5042 -0.1529,-0.5849 -0.099,-0.018 -0.32,0.1454 -0.517,0.297 -0.1528,-0.07 -0.3,-0.1478 -0.446,-0.2218 -0.035,-0.2866 -0.052,-0.6013 -0.061,-0.5854 -0.29,0.4864 -1.1024,-0.905 -1.2,-1.3169 -0.01,-0.082 0,-0.1027 0.011,-0.107 a 2.82,2.82 0 0 1 -0.8286,-0.3318 0.3056,0.3056 0 0 0 0.062,-0.094 c 0.017,-0.047 -0.075,-0.021 -0.1637,0.034 -1.0365,-0.6355 -1.9409,-1.7807 -2.7708,-2.1944 -0.028,0.019 -0.05,0.036 -0.092,0.061 l -0.06,-0.073 c 0.013,0 0.038,-0.015 0.07,-0.028 a 0.9741,0.9741 0 0 0 -1.1476,0.1613 c 1.3284,-1.466 -0.5965,0.4925 0.1759,-0.5017 -0.5549,0.7166 -1.2014,1.1137 -1.1334,1.6481 z m 2.387,0.48 -0.1137,-0.048 c 0.2191,-0.3117 0.2021,-0.077 0.1141,0.048 z m 0.5646,-0.5206 c -0.9838,0.6741 0.4144,-0.6594 0,0 z m -0.21,-0.1791 c -0.6124,0.6075 -0.1723,0.082 -0.1272,0.048 0.085,-0.066 0.125,-0.082 0.1275,-0.049 z m -0.1749,-0.2548 c 0.3508,-0.05 -0.9153,1.32 0,0 z m -0.814,0.5708 0.066,0.045 a 0.4933,0.4933 0 0 0 -0.1137,0.057 c -0.014,-0.024 0.01,-0.053 0.048,-0.1026 z m -0.7907,-1.05 c 0,0 0.2311,0.1857 -0.072,0.212 -0.183,0.068 -0.1586,-0.01 0.072,-0.2125 z"
     style="fill:#3d69d8"
     id="path656" />
  <path
     d="m 65.082001,75.4351 a 0.9532,0.9532 0 0 0 -0.1564,1.0027 c -0.1443,-0.311 -0.7908,-2.6337 -1.5192,-4.87 -0.3,-0.1484 -0.4254,-0.4894 -0.3789,-1.03 0.024,0.037 0.048,0.075 0.072,0.1106 -0.6991,-2.0435 -1.4153,-3.7552 -1.8052,-3.3793 a 7.2776,7.2776 0 0 1 1.1256,2.2537 c -0.369,0.087 -1.4274,-1.8162 -2.8379,-3.1961 -0.3042,-0.12 -0.8689,-0.4217 -0.924,-0.77 -0.1088,-0.072 -0.2163,-0.1325 -0.325,-0.1937 a 0.455,0.455 0 0 1 -0.1333,0.2751 c -0.107,0.1337 -0.297,-0.3264 -0.29,-0.382 a 1.1,1.1 0 0 1 0.2077,-0.014 3.0442,3.0442 0 0 0 -0.3813,-0.1509 c 0.01,0.032 0,0.066 -0.055,0.1986 a 1.5772,1.5772 0 0 1 -0.3631,0.081 c -0.045,-0.026 -0.084,-0.056 -0.13,-0.082 a 0.6733,0.6733 0 0 1 0.3043,-0.2633 2.3155,2.3155 0 0 0 -0.8726,-0.057 c -0.2885,-0.1143 -0.61,-0.2689 -0.9521,-0.4021 a 6.7422,6.7422 0 0 0 0.9667,-0.1026 9.1556,9.1556 0 0 0 -3.3524,-0.9075 3.8349,3.8349 0 0 1 1.056,-0.083 24.0577,24.0577 0 0 0 -6.7563,0.075 c 0.3092,-0.089 0.6172,-0.176 0.9265,-0.264 -0.07,-0.5 -6.71,3.0445 -5.5965,1.4349 a 11.7305,11.7305 0 0 0 -2.5592,2.0685 c 0.046,-0.1075 0.054,-0.2031 -0.038,-0.1974 -0.1086,0.01 -0.3252,0.4125 -0.2126,0.4614 a 30.7357,30.7357 0 0 0 -3.1827,4.6609 11.2673,11.2673 0 0 0 -0.5573,1.4378 0.3247,0.3247 0 0 1 0.066,-0.036 c 0.1541,0.31 -0.039,0.38 -0.1674,0.3354 -0.12,0.3631 -0.2445,0.76 -0.3691,1.1758 0.054,0.01 0.1015,0.16 -0.023,0.2554 -0.035,-0.01 -0.033,-0.028 -0.035,-0.054 a 24.0807,24.0807 0 0 0 -0.6576,2.8117 c 0.04,0.027 0,0.3374 0,0.3374 l -0.037,-0.073 c -0.1662,1.2407 -0.069,2.1206 0.6221,1.9171 -1.32,0.79 0.3557,0.1118 -0.3446,0.9032 0.3031,-0.3484 0.5878,-0.7083 0.858,-1.08 a 0.51,0.51 0 0 0 0.14,0.6582 12.5706,12.5706 0 0 1 0.2884,-1.5754 c 0.067,0.42 0.1443,0.861 0.2236,1.238 -0.023,0.1454 -0.05,0.2891 -0.071,0.437 -0.8506,0.1355 -1.22,0.3623 -0.1075,0.76 0.1625,0.3336 0.024,0.4735 -0.4131,0.4161 0.01,-0.041 0.7565,0.6978 0.6306,0.6251 0.2542,0.1486 7.3148,0.5232 7.5776,0.1656 0.088,-0.12 -1.1391,-0.3324 -0.2188,-0.4564 0.13,0.01 0.2566,0.01 0.39,0.014 -0.32,0.5891 5.1466,0.095 1.8895,0.2378 0.1613,-0.072 0.314,-0.1223 0.4656,-0.18 1.4874,0.026 3.0262,0.032 4.5465,0.02 -0.1919,0.03 -0.3629,0.089 -0.3629,0.2164 0,0.6624 0.7211,-0.051 0.8591,-0.2207 1.5131,-0.016 2.9957,-0.053 4.3718,-0.113 0.015,0.1912 0.1565,0.1051 0.264,-0.012 1.2,-0.056 2.3112,-0.1289 3.289,-0.2207 a 0.3447,0.3447 0 0 1 0.073,0.1571 0.9379,0.9379 0 0 1 0.037,-0.1668 c 0.5243,-0.05 1.0034,-0.1069 1.4386,-0.1675 -0.5524,0.6576 0.209,0.6979 2.305,0.1119 0,0 -0.1247,-0.024 -0.3105,-0.055 a 4.91,4.91 0 0 0 0.8263,-1.75 c 0.1845,0.8647 0.3886,1.656 0.4167,1.76 -0.056,-0.5842 -0.23,-1.5447 -0.2908,-2.3881 a 2.1383,2.1383 0 0 0 0.012,-0.4265 c -0.01,-0.064 -0.02,-0.1259 -0.027,-0.1906 a 3.378,3.378 0 0 1 0.037,-0.4083 0.2736,0.2736 0 0 1 -0.09,0.011 c -0.01,-0.053 -0.016,-0.1051 -0.023,-0.157 l 0.1112,-0.1278 a 0.3323,0.3323 0 0 1 0.044,0.08 0.7212,0.7212 0 0 1 0.1957,-0.3593 10.8967,10.8967 0 0 0 0.319,2.6308 c 0.2159,0.088 0.4722,-4.7677 -0.03,-4.7726 z m -29.2226,3.9263 c 0.01,-0.031 0.01,-0.8623 0.1651,-0.3477 0.1283,0.1876 0.073,0.3 -0.1651,0.3477 z m 0.33,-5.192 a 0.1448,0.1448 0 0 1 -0.037,-0.1984 c 0.616,0.1984 0.068,0.2267 0.037,0.1984 z m 0.2542,1.3543 0.043,-0.2255 c 0.012,0.1075 0.176,0.1668 -0.043,0.2255 z m 0.3044,-0.6967 a 0.323,0.323 0 0 1 -0.1015,-0.043 c 0.049,-0.1375 0.1015,-0.1613 0.1407,-0.1449 -0.015,0.062 -0.023,0.1255 -0.039,0.1882 z m 0.092,-1.0584 c -0.3214,0.099 -0.062,-0.3184 0.081,-0.3354 a 3.1087,3.1087 0 0 0 -0.081,0.3354 z m 2.7438,-5.0538 v 0.258 c -0.094,0.2792 -0.1659,-0.1431 0,-0.258 z m -0.11,12.954 c 0.021,0.089 -0.082,0.3423 0,0 z m -0.2859,-0.063 c -0.061,0.03 -0.087,0.1979 -0.1283,0 z m -0.2786,-12.31 c 0.032,0.1552 -0.181,0.12 0,0 z m -1.7539,12.0569 c -0.1136,0.093 -0.1626,0.053 -0.1552,-0.1075 0.022,0.01 0.039,0.014 0.064,0.021 0.048,0.015 0.116,0.03 0.1759,0.045 a 0.3352,0.3352 0 0 1 -0.084,0.042 z m 0.3422,-8.834 c -0.026,0.014 -0.051,0.028 -0.079,0.04 -0.094,-0.3122 -0.046,-0.3977 0.105,-0.26 a 0.18,0.18 0 0 1 0.044,0.074 c -0.022,0.05 -0.049,0.097 -0.07,0.1462 z m 0.42,-0.9123 c -0.16,0.053 -0.7383,0.01 0,0 z m 0.1344,-0.7377 c 0.1149,-0.051 0.1687,-0.01 0.1638,0.12 -0.1144,0.1228 -0.1707,0.085 -0.1633,-0.1199 z m 0.7027,11.1916 a 8.0256,8.0256 0 0 0 1.0658,0.16 c -0.3283,0.076 -1.0824,0.1255 -1.0653,-0.1599 z m 1.05,-13.8706 c 0.1955,-0.01 0.275,0.096 0.2677,0.2849 -0.2001,0.058 -0.2942,-0.036 -0.2673,-0.2848 z m 0.23,13.834 c -0.073,0.049 0.033,-0.1582 0.1149,-0.1094 z m 19.4144,-15.1148 c 0.059,-0.2475 0.3227,0.2555 0,0.022 0.037,0.026 0.017,-0.056 0.01,-0.022 z m -4.2128,-2.8568 c 0.1283,0.053 0.3727,-0.01 0.4949,0.2236 -0.1489,-0.03 -0.7429,-0.3263 -0.4947,-0.2235 z m -5.5048,-0.3111 c -0.031,0 -0.06,0 -0.094,0 -0.031,-0.024 -0.047,-0.037 -0.053,-0.072 a 0.36,0.36 0 0 1 0.1469,0.069 z m -9.1677,4.219 a 0.6159,0.6159 0 0 1 -0.1319,-0.1179 l 0.2065,-0.05 a 0.6623,0.6623 0 0 1 0,0.091 c -0.025,0.028 -0.052,0.05 -0.079,0.077 z m 0.2177,13.7764 c 0.034,0 0.071,0 0.1038,0.01 -0.033,0.07 -0.067,0.048 -0.1036,-0.01 z m 18.3,-8.91 c 0.5011,0 0.5341,-0.078 0.1882,-0.3476 a 13.636,13.636 0 0 1 -1.3944,0.1374 c -0.08,-0.012 -0.4511,-0.05 -0.5329,-0.045 a 0.5865,0.5865 0 0 0 0.25,0.061 c -0.3446,0.019 -0.6893,0.029 -0.9789,0.027 a 4.8535,4.8535 0 0 0 0.8053,-0.2658 h -1.0963 a 3.6239,3.6239 0 0 1 -0.3824,0.068 0.3151,0.3151 0 0 0 0.032,-0.068 h -0.2237 c -0.022,0.02 -0.037,0.026 -0.055,0.1 -0.055,0.01 -0.1064,0.012 -0.1625,0.017 a 0.6482,0.6482 0 0 0 -0.1686,-0.1162 0.6626,0.6626 0 0 0 -0.1113,0.01 0.4621,0.4621 0 0 0 -0.01,0.1356 c -0.2506,0.021 -0.5232,0.038 -0.81,0.053 a 1.0043,1.0043 0 0 0 -0.3568,0.018 c -0.9,0.037 -1.8272,0.045 -2.38,0.012 0.3935,0.087 0.7884,0.1766 1.19,0.2254 0,0 -1.1746,-0.051 -2.5569,-0.1075 0.1247,-0.039 -0.3874,-0.1479 -0.8519,-0.039 a 0.6371,0.6371 0 0 1 0.08,0.01 25.7635,25.7635 0 0 0 -3.4942,-0.01 0.6755,0.6755 0 0 1 0.6685,0.2163 c -0.06,0.3 -3.33,-0.275 -3.3085,-0.3153 a 6.5681,6.5681 0 0 1 1.86,-0.075 0.4166,0.4166 0 0 0 -0.2139,-0.1344 2.82,2.82 0 0 0 -0.3557,0.015 c 0.089,0.017 0.015,0.017 -0.2,-0.015 -0.6746,0 -1.3456,0 -1.9909,-0.04 0.1075,-0.1673 0.2236,-0.3085 0.3349,-0.4668 a 3.0049,3.0049 0 0 0 -0.4742,0.2536 9.8515,9.8515 0 0 1 0.8983,-1.7319 c 0,0 0.065,-0.068 0.057,-0.088 0.8725,-1.4146 2.1535,-3.0181 3.0163,-2.2652 0.5573,-1.8364 5.8334,-1.1892 6.9664,-0.78 -1.2759,0.077 3.4283,2.16 3.2719,2.3362 -0.2836,-0.1736 -0.566,-0.3538 -0.8434,-0.54 a 21.0359,21.0359 0 0 1 4.1384,3.7728 c -0.2681,0.01 -0.5357,0 -0.8046,-0.019 z m 2.93,8.702 -0.04,-0.1069 c 0.026,0 0.045,-0.01 0.068,-0.013 a 0.6625,0.6625 0 0 1 -0.029,0.1202 z m 0.3152,-0.021 c -0.039,-0.031 -0.089,-0.074 -0.149,-0.1234 0.2932,-0.053 0.5573,-0.1051 0.7858,-0.1645 a 1.8057,1.8057 0 0 0 0.05,0.2293 c -0.4464,-0.057 -0.8608,-0.082 -0.6872,0.059 z m 0.022,-10.5744 c 0.09,0.081 -0.198,-0.4137 -0.2,-0.3758 a 14.58,14.58 0 0 0 -2.1694,-3.0469 c 1.9739,0.7768 3.9489,5.8041 3.9464,6.6749 0,0.13 -0.1014,0.1865 -0.2224,0.2232 a 20.0151,20.0151 0 0 0 -1.355,-3.475 z m 1.8968,5.8006 c -0.015,-0.08 -0.031,-0.1583 -0.048,-0.2378 a 0.8127,0.8127 0 0 0 -0.01,-0.223 3.559,3.559 0 0 1 -0.15,-0.57 0.2036,0.2036 0 0 0 0.08,0 c 0,-0.035 -0.01,-0.067 -0.015,-0.1 a 0.1166,0.1166 0 0 0 -0.087,0 c -0.057,-0.2584 -0.1319,-0.509 -0.2016,-0.7644 0.1,0.012 0.187,0.027 0.1918,0.055 0.012,0.065 0.053,0.3569 0.097,0.7107 0.057,0.026 0.079,0.086 0.015,0.1 0.024,0.1827 0.048,0.3739 0.071,0.5658 0.049,0 0.11,0.056 0.1883,0.1613 a 0.1432,0.1432 0 0 1 -0.16,0.075 c 0.01,0.079 0.015,0.1511 0.024,0.2251 z"
     style="fill:#3d69d8"
     id="path658" />
  <metadata
     id="metadata4336">
    <rdf:RDF>
      <cc:Work
         rdf:about="">
        <dc:title>sinaisthimata-2</dc:title>
      </cc:Work>
    </rdf:RDF>
  </metadata>
</svg>
