<?xml version="1.0" encoding="UTF-8" standalone="no"?>
<svg
   width="99.896797"
   height="102.9465"
   viewBox="0 0 99.896797 102.9465"
   version="1.1"
   id="svg730"
   sodipodi:docname="anger-6-off.svg"
   inkscape:version="1.2.1 (9c6d41e410, 2022-07-14)"
   xmlns:inkscape="http://www.inkscape.org/namespaces/inkscape"
   xmlns:sodipodi="http://sodipodi.sourceforge.net/DTD/sodipodi-0.dtd"
   xmlns:xlink="http://www.w3.org/1999/xlink"
   xmlns="http://www.w3.org/2000/svg"
   xmlns:svg="http://www.w3.org/2000/svg"
   xmlns:rdf="http://www.w3.org/1999/02/22-rdf-syntax-ns#"
   xmlns:cc="http://creativecommons.org/ns#"
   xmlns:dc="http://purl.org/dc/elements/1.1/">
  <sodipodi:namedview
     id="namedview732"
     pagecolor="#ffffff"
     bordercolor="#000000"
     borderopacity="0.25"
     inkscape:showpageshadow="2"
     inkscape:pageopacity="0.0"
     inkscape:pagecheckerboard="0"
     inkscape:deskcolor="#d1d1d1"
     showgrid="false"
     inkscape:zoom="3.3320106"
     inkscape:cx="37.815006"
     inkscape:cy="60.924176"
     inkscape:window-width="1920"
     inkscape:window-height="1017"
     inkscape:window-x="-8"
     inkscape:window-y="-8"
     inkscape:window-maximized="1"
     inkscape:current-layer="svg730" />
  <defs
     id="defs55">
    <clipPath
       id="clip-path">
      <rect
         x="2.5676999"
         y="-4.1897001"
         width="2044.2332"
         height="1429.7129"
         style="fill:none"
         id="rect2" />
    </clipPath>
    <clipPath
       id="clip-path-2">
      <rect
         x="0.31079999"
         y="0.2085"
         width="2046.49"
         height="1418.5383"
         style="fill:none"
         id="rect5" />
    </clipPath>
    <clipPath
       id="clip-path-3">
      <rect
         x="0.4914"
         y="0.2085"
         width="2046.49"
         height="1418.5383"
         style="fill:none"
         id="rect8" />
    </clipPath>
    <linearGradient
       id="_ÂÁ_Ï_ÌÌ_È_ËÂÌÚ_30"
       x1="973.72803"
       y1="217.1114"
       x2="1279.8972"
       y2="405.211"
       gradientUnits="userSpaceOnUse">
      <stop
         offset="0.1606"
         stop-color="#772d28"
         id="stop11" />
      <stop
         offset="0.3449"
         stop-color="#8e3930"
         id="stop13" />
      <stop
         offset="1"
         stop-color="#d2603c"
         id="stop15" />
    </linearGradient>
    <linearGradient
       id="_ÂÁ_Ï_ÌÌ_È_ËÂÌÚ_33"
       x1="975.55811"
       y1="312.90219"
       x2="1143.3853"
       y2="444.72739"
       gradientUnits="userSpaceOnUse">
      <stop
         offset="0.0135"
         stop-color="#772d28"
         id="stop18" />
      <stop
         offset="0.1554"
         stop-color="#7d302a"
         id="stop20" />
      <stop
         offset="0.5915"
         stop-color="#8a372e"
         id="stop22" />
      <stop
         offset="1"
         stop-color="#8e3930"
         id="stop24" />
    </linearGradient>
    <linearGradient
       id="_ÂÁ_Ï_ÌÌ_È_ËÂÌÚ_30-2"
       x1="828.7381"
       y1="472.54099"
       x2="1247.8842"
       y2="730.0495"
       xlink:href="#_%C3%82%C3%81_%C3%8F_%C3%8C%C3%8C_%C3%88_%C3%8B%C3%82%C3%8C%C3%9A_30" />
    <linearGradient
       id="_ÂÁ_Ï_ÌÌ_È_ËÂÌÚ_30-3"
       x1="937.97528"
       y1="496.49539"
       x2="737.89569"
       y2="766.1582"
       xlink:href="#_%C3%82%C3%81_%C3%8F_%C3%8C%C3%8C_%C3%88_%C3%8B%C3%82%C3%8C%C3%9A_30" />
    <linearGradient
       id="_ÂÁ_Ï_ÌÌ_È_ËÂÌÚ_12"
       x1="1231.5668"
       y1="673.64398"
       x2="1270.8306"
       y2="1060.5385"
       gradientUnits="userSpaceOnUse">
      <stop
         offset="0.2666"
         stop-color="#bb492f"
         id="stop29" />
      <stop
         offset="0.8134"
         stop-color="#a03c2b"
         id="stop31" />
    </linearGradient>
    <linearGradient
       id="_ÂÁ_Ï_ÌÌ_È_ËÂÌÚ_10"
       x1="886.21033"
       y1="1079.295"
       x2="886.21033"
       y2="558.34888"
       gradientUnits="userSpaceOnUse">
      <stop
         offset="0.1829"
         stop-color="#bb492f"
         id="stop34" />
      <stop
         offset="0.8134"
         stop-color="#d2603c"
         id="stop36" />
    </linearGradient>
    <linearGradient
       id="_ÂÁ_Ï_ÌÌ_È_ËÂÌÚ_10-2"
       x1="664.55438"
       y1="1079.3604"
       x2="664.55438"
       y2="558.34888"
       xlink:href="#_%C3%82%C3%81_%C3%8F_%C3%8C%C3%8C_%C3%88_%C3%8B%C3%82%C3%8C%C3%9A_10" />
    <linearGradient
       id="_ÂÁ_Ï_ÌÌ_È_ËÂÌÚ_12-2"
       x1="-2274.3308"
       y1="-526.58221"
       x2="-1997.9337"
       y2="-526.58221"
       gradientTransform="rotate(136.2115,-523.83111,697.56738)"
       xlink:href="#_%C3%82%C3%81_%C3%8F_%C3%8C%C3%8C_%C3%88_%C3%8B%C3%82%C3%8C%C3%9A_12" />
    <linearGradient
       id="_ÂÁ_Ï_ÌÌ_È_ËÂÌÚ_12-3"
       x1="1105.3553"
       y1="554.34039"
       x2="1383.4994"
       y2="554.34039"
       xlink:href="#_%C3%82%C3%81_%C3%8F_%C3%8C%C3%8C_%C3%88_%C3%8B%C3%82%C3%8C%C3%9A_12" />
    <linearGradient
       id="_ÂÁ_Ï_ÌÌ_È_ËÂÌÚ_12-4"
       x1="1230.0594"
       y1="673.56873"
       x2="1269.3973"
       y2="1061.1914"
       xlink:href="#_%C3%82%C3%81_%C3%8F_%C3%8C%C3%8C_%C3%88_%C3%8B%C3%82%C3%8C%C3%9A_12" />
    <linearGradient
       id="_ÂÁ_Ï_ÌÌ_È_ËÂÌÚ_10-3"
       x1="884.05292"
       y1="1079.9833"
       x2="884.05292"
       y2="558.05652"
       xlink:href="#_%C3%82%C3%81_%C3%8F_%C3%8C%C3%8C_%C3%88_%C3%8B%C3%82%C3%8C%C3%9A_10" />
    <linearGradient
       id="_ÂÁ_Ï_ÌÌ_È_ËÂÌÚ_7"
       x1="762.54498"
       y1="654.6286"
       x2="1312.0504"
       y2="246.0475"
       gradientUnits="userSpaceOnUse">
      <stop
         offset="0.2801"
         stop-color="#e27244"
         id="stop44" />
      <stop
         offset="0.8134"
         stop-color="#f2794e"
         id="stop46" />
    </linearGradient>
    <radialGradient
       id="radial-gradient"
       cx="223.35091"
       cy="410.99951"
       r="59.925201"
       gradientTransform="matrix(1,0,0,-1,0,1422)"
       gradientUnits="userSpaceOnUse">
      <stop
         offset="0"
         stop-color="#ff6163"
         id="stop49" />
      <stop
         offset="1"
         stop-color="#c62020"
         id="stop51" />
    </radialGradient>
    <radialGradient
       id="radial-gradient-2"
       cx="160.0694"
       cy="217.8264"
       r="67.1362"
       xlink:href="#radial-gradient" />
  </defs>
  <title
     id="title57">sinaisthimata-2</title>
  <g
     id="_6"
     data-name="6"
     transform="translate(-1198.4193,-1034.6921)">
    <path
       d="m 1235.1927,1081.64 a 4.7991,4.7991 0 0 0 -0.71,-0.8841 c 0.065,-0.2476 0.1429,-0.464 0.1484,0.093 -0.01,-0.8873 0.269,-1.6059 -0.029,-2.0173 0.2993,0.4138 -2.2629,-0.2254 -3.3775,-0.7816 -0.1339,-0.098 -0.2708,-0.1961 -0.4083,-0.2957 a 0.5528,0.5528 0 0 0 -0.056,-0.2016 c -0.048,0.047 -0.036,0.1045 0,0.1643 q -0.4665,-0.3291 -0.95,-0.6593 c 0.3868,-0.087 0.1278,-0.1687 -0.3012,-0.2024 -0.5836,-0.3886 -1.1825,-0.7741 -1.7863,-1.1432 0,-0.073 0.01,-0.1272 0.05,-0.1284 a 1.2918,1.2918 0 0 0 -0.2145,0.027 c -0.8085,-0.49 -1.6193,-0.9509 -2.3979,-1.3579 a 0.1136,0.1136 0 0 1 0.01,-0.08 0.1642,0.1642 0 0 0 -0.026,0.072 c -0.32,-0.1681 -0.6338,-0.3239 -0.94,-0.4717 0,-0.034 -0.032,-0.1223 -0.088,-0.1345 a 0.63,0.63 0 0 0 0.062,0.1229 c -0.308,-0.1467 -0.6061,-0.2836 -0.8958,-0.4064 0.1063,-0.2048 0.2469,-0.6912 -0.151,-0.065 a 4.3586,4.3586 0 0 1 0.264,-0.7431 c -0.1332,0.1455 -0.5158,0.5224 -0.5158,0.5224 a 0.7967,0.7967 0 0 1 -0.1124,-0.2181 2.5269,2.5269 0 0 0 -0.1261,-0.2582 0.4013,0.4013 0 0 1 -0.2393,0.2673 0.6624,0.6624 0 0 1 0.2393,-0.2673 c -0.084,-0.1429 -0.19,-0.2368 -0.3084,-0.1207 q 0.8442,-0.5024 -1.2246,-0.6068 c 0.027,0.018 0.4566,0.561 0.71,0.5952 a 0.2126,0.2126 0 0 0 -0.065,0.039 c 0.06,0.094 0.085,0.1166 0.074,0.067 a 0.3635,0.3635 0 0 0 0.1717,0.1759 0.3728,0.3728 0 0 1 -0.1136,0.097 c -0.072,-0.022 -0.1424,-0.043 -0.2126,-0.062 -0.1473,-0.18 -0.26,-0.55 -0.5408,-0.2737 a 0.4513,0.4513 0 0 0 -0.088,0.1332 c -0.8373,-0.1344 -1.4026,0.012 -1.5382,0.5579 -0.3373,1.3579 1.4129,2.9846 3.4013,4.3633 -0.5865,1.1794 -1.4733,3.0065 -1.7482,2.1406 -0.061,0.24 -0.2317,1.0609 -0.3851,2.0343 -0.039,-0.057 -0.09,-0.098 -0.14,-0.07 -0.056,0.032 0.011,0.258 0.1027,0.3135 a 20.9433,20.9433 0 0 0 -0.2249,2.23 5.7872,5.7872 0 0 0 -0.089,2.3527 c -0.1431,0.7161 0.6556,1.9322 1.5008,2.8715 0.049,-0.015 0.1785,0.1552 0.1785,0.1552 0.7485,0.8378 1.5191,1.4 1.5368,1.0321 a 2.6081,2.6081 0 0 0 -0.093,-0.9863 3.5225,3.5225 0 0 0 0.9038,-0.022 c -0.1064,0.3452 -0.2164,0.7356 -0.3343,1.2123 -3.831,3.9886 0.74,-0.5182 1.1477,-1.4109 a 0.1364,0.1364 0 0 0 0.016,0.099 c 0.1424,-0.1547 0.1772,-0.21 0.1155,-0.1583 a 0.1391,0.1391 0 0 0 -0.1118,0.015 c 0.023,-0.01 0.046,-0.02 0.069,-0.031 a 3.275,3.275 0 0 0 0.4259,-0.2414 4.4738,4.4738 0 0 0 -0.8488,1.3456 c 0.23,0.3875 2.3068,-2.0667 2.0721,-2.2366 a 0.5237,0.5237 0 0 0 -0.5866,0.37 c 0.01,-0.026 0.02,-0.068 0.029,-0.1015 a 2.8737,2.8737 0 0 0 0.1968,-0.2834 c 0.3312,-0.113 0.5977,-0.9051 0.76,-2.03 0.096,-0.2212 0.1931,-0.4449 0.2883,-0.6679 0.014,-0.3166 0.1149,-0.4473 0.1779,-0.4168 0.5225,-1.2466 0.924,-2.3405 0.6422,-2.3545 a 4.6449,4.6449 0 0 1 -0.6691,1.4727 c -0.092,-0.036 0.7382,-2.2665 0.245,-3.6806 1.8866,0.6827 7.9176,2.5667 7.1048,1.1273 z m -13,-9.37 -0.1564,0.3214 c -0.1373,0.074 -0.1763,0.03 0.156,-0.3214 z m 12.234,8.4312 c -0.02,-0.02 -0.04,-0.04 -0.06,-0.059 a 1.2253,1.2253 0 0 0 0.1032,-0.3165 c -0.019,0.1556 -0.033,0.2736 -0.044,0.3756 z m -9.9437,3.8976 c 0.024,0.059 0.043,0.1179 0.065,0.1754 -0.1015,0.6435 -0.1808,1.24 -0.2438,1.6915 a 8.1578,8.1578 0 0 1 0.1786,-1.8671 z m -1.3041,-0.59 a 8.9006,8.9006 0 0 1 0.2446,-1.0365 c 0.049,-0.1653 0.1111,-0.3263 0.1759,-0.4857 0.012,0.031 0.025,0.061 0.036,0.092 a 17.8455,17.8455 0 0 0 -0.4969,2.4853 4.3332,4.3332 0 0 1 0.04,-1.0552 z m 3.7033,-1.1514 a 1.6987,1.6987 0 0 1 0,0.2872 c -0.01,-0.054 -0.02,-0.1069 -0.03,-0.1594 0.01,-0.043 0.018,-0.086 0.025,-0.1277 z m 6.1659,-3.4 c 0.034,-0.083 0.056,-0.1368 0,0 z m 1.2546,0.4941 c 0.1045,-0.1619 0.1222,-0.088 0.056,0.2182 -4e-4,-3e-4 -0.2778,-0.024 -0.057,-0.2185 z m -0.7511,-0.81 a 5.8122,5.8122 0 0 0 -0.5365,-0.2444 c 0.2062,-0.03 0.651,-0.1314 0.5361,0.2444 z m -0.7351,-0.036 c 0.04,-0.032 -0.015,0.067 -0.062,0.1107 -0.025,-0.019 0.061,-0.1107 0.061,-0.1107 z m -9.5562,10.6184 a 1.8885,1.8885 0 0 1 -0.1535,-0.1644 c 0.075,0.017 0.15,0.034 0.2249,0.046 a 0.7753,0.7753 0 0 1 -0.072,0.118 z m 4.8447,-8.0811 0.065,-0.036 c -0.017,0.01 -0.028,0.015 -0.065,0.036 z m -0.3953,-1.0284 c -0.1153,0.011 -0.025,-0.1229 0.059,-0.22 0.081,0.032 0.1729,0.067 0.29,0.11 -0.019,0.055 -0.1326,0.089 -0.3496,0.11 z"
       style="fill:#3d69d8"
       id="path638" />
    <path
       d="m 1297.2638,1076.1306 c -2.8231,-13.68 -11.1255,-27.1057 -23.3424,-34.2346 -5.8574,-3.4179 -12.9455,-6.4282 -19.7322,-7.2017 a 65.3231,65.3231 0 0 0 -10.1858,0.7143 c -1.3437,-0.1485 -2.4956,-0.228 -2.7133,-0.21 a 9.9041,9.9041 0 0 0 -4.0674,1.0834 c 0.627,-0.038 1.2553,-0.074 1.8822,-0.1117 -0.12,0.1068 -0.2328,0.1955 -0.3447,0.28 -0.4967,0.1418 -0.9612,0.29 -1.3872,0.45 a 0.7577,0.7577 0 0 1 -0.2614,-0.1816 1.137,1.137 0 0 1 -0.1883,-0.2645 14.0283,14.0283 0 0 0 -1.8522,1.3719 46.5748,46.5748 0 0 0 -5.8231,2.34 0.5731,0.5731 0 0 1 -0.01,-0.5011 c -1.1966,0.6094 -7.2261,4.2533 -6.96,4.4183 0.371,-0.1736 0.7284,-0.3753 1.0932,-0.5616 -0.1772,0.1173 -0.3569,0.2266 -0.5335,0.3464 -3.19,1.7649 -8.2723,4.7177 -8.716,6.8113 0.12,0.078 0.2243,0.1424 0.3354,0.2145 -0.065,0.066 -0.1306,0.1344 -0.1961,0.2029 -0.055,-0.1014 -0.12,-0.1828 -0.1711,-0.29 -0.21,0.3973 -0.454,0.8005 -0.7107,1.2058 a 58.6628,58.6628 0 0 0 -6.7685,8.8125 31.2281,31.2281 0 0 0 -3.944,6.7287 c -0.9184,2.2641 -4.5777,11.36 -3.8584,14.3766 a 44.182,44.182 0 0 0 -0.3642,7.3308 c 0.01,0.2412 0.035,0.48 0.047,0.721 a 22.3449,22.3449 0 0 0 0.7267,6.0216 48.8264,48.8264 0 0 0 9.0459,20.1638 21.7956,21.7956 0 0 0 4.43,5.185 55.3184,55.3184 0 0 0 8.2479,6.9739 10.4735,10.4735 0 0 1 1.0162,1.3554 c 1.2547,2.0691 2.951,1.6744 4.6027,2.0343 a 49.4637,49.4637 0 0 0 28.45,5.671 c 29.3285,-3.2785 48.0569,-33.1248 42.2507,-61.2566 z m -7.3544,32.5255 c 0.068,-0.1338 0.1406,-0.2622 0.2175,-0.3869 -0.065,0.1278 -0.1356,0.2531 -0.2175,0.3869 z m -8.7839,-56.6037 c 0.067,0.071 0.1308,0.1435 0.198,0.2145 a 2.4213,2.4213 0 0 0 -0.3074,0.116 c 0.041,-0.1247 0.075,-0.2248 0.1094,-0.3305 z m -32.7466,82.35 a 18.5647,18.5647 0 0 0 -6.328,-0.6955 c -0.6794,-0.1234 -1.356,-0.2584 -2.0276,-0.4125 -0.6422,-1.197 -1.6988,-2.0954 -2.7915,-0.7332 -0.4992,-0.1461 -0.9991,-0.2909 -1.4959,-0.4541 -1.6921,-1.1287 -4.3962,-2.6374 -5.5176,-2.1986 q -1.0385,-0.485 -2.0539,-1.0175 c -1.3284,-0.8916 -2.8922,-2.0649 -3.2547,-2.3271 a 4.47,4.47 0 0 0 -2.1,-0.9014 51.7215,51.7215 0 0 1 -7.4277,-6.2276 c 0.2114,-0.5 -1.0249,-1.276 -1.2449,-1.6139 a 0.3735,0.3735 0 0 0 -0.3305,-0.053 c -0.181,-0.2017 -0.3625,-0.4027 -0.5409,-0.6068 0.1277,0.047 0.2505,0.087 0.3929,0.1522 a 5.3113,5.3113 0 0 0 -0.9636,-0.8073 46.36,46.36 0 0 1 -10.1619,-20.6837 c -0.2664,-1.3261 -0.4425,-2.6576 -0.5757,-3.988 a 0.5145,0.5145 0 0 0 -0.075,-0.7571 43.2151,43.2151 0 0 1 0.3417,-9.8013 c 0.1314,-0.3258 0.2645,-0.5054 0.3941,-0.4638 0.1027,-0.9619 0.1625,-1.9665 0.2469,-3.0353 a 51.1231,51.1231 0 0 1 9.6565,-20.3807 24.3984,24.3984 0 0 1 4.343,-4.3748 3.7186,3.7186 0 0 1 -0.4852,-0.1381 c 0.231,-0.239 0.4547,-0.4895 0.69,-0.7242 0.8849,0.042 1.5574,-0.711 3.479,-2.2591 1.85,-1.49 3.7277,-1.898 2.8049,-3.0421 0.2389,-0.171 0.4834,-0.3336 0.726,-0.5 0.086,0.1466 0.1754,0.3 0.2714,0.46 1.5765,-1.2906 3.26,-2.0227 4.0924,-3.1673 0.4333,-0.2389 0.8763,-0.4626 1.3169,-0.69 a 0.9177,0.9177 0 0 1 -0.01,0.1834 q 0.6923,-0.3793 1.3855,-0.76 c -0.033,-0.029 -0.065,-0.057 -0.097,-0.086 0.1509,-0.075 0.3043,-0.15 0.4638,-0.2291 0,0.037 0.015,0.067 0.016,0.1063 a 22.3475,22.3475 0 0 1 5.8084,-2.302 c 2.6406,-0.2328 8.5541,0.043 10.0219,-0.31 2.7457,-0.6624 5.1088,0.756 8.7418,-0.7718 0.2175,-0.089 -0.2555,-0.2433 -0.7615,-0.3728 a 33.006,33.006 0 0 1 5.3324,1.0786 c -1.5418,1.7886 2.28,1.5779 4.5772,1.6164 0.5,0.2089 0.9942,0.4272 1.4868,0.6532 a 3.9734,3.9734 0 0 1 -0.7316,0.7364 c 0.8605,0.817 3.5064,1.2551 5.608,1.8546 0.979,0.5952 1.9188,1.2174 2.82,1.8571 0.01,1.3543 2.4064,2.3473 3.02,2.5605 1.9994,0.6894 5.67,9.2471 8.3579,8.91 0.4674,0.65 0.9251,1.3085 1.3658,1.9813 a 7.3756,7.3756 0 0 0 0.7375,3.0347 c 0.1314,-0.7542 0.3887,-0.85 0.6887,-0.737 0.1876,0.32 0.3637,0.6459 0.5445,0.9692 -1.0119,1.13 1.0877,2.9729 1.331,4.4358 0.1686,-0.3006 0.3348,-0.6012 0.5035,-0.9013 0.1809,0.3832 0.3447,0.7724 0.5145,1.16 a 2.2809,2.2809 0 0 0 -0.8836,0.088 q 0.7581,1.7177 1.4165,3.4758 a 1.32,1.32 0 0 1 0.7322,-0.4473 c 0.096,0.261 0.1863,0.5232 0.2768,0.7854 a 1.8692,1.8692 0 0 1 -0.8428,0.1759 c 0.22,1.9049 0.6325,2.7108 1.738,2.71 0.1357,0.4894 0.2787,0.974 0.3972,1.4581 a 9.3364,9.3364 0 0 0 -1.0052,-0.2891 20.9085,20.9085 0 0 0 1.9738,5.9686 c 0.1271,1.213 0.21,2.4315 0.2329,3.6512 -1.08,0.5568 -2.0454,1.29 -0.7724,2.8924 a 1.5123,1.5123 0 0 1 0.7663,-0.7779 c -0.034,1.2112 -0.1236,2.42 -0.25,3.6267 a 16.217,16.217 0 0 0 -1.99,5.8605 c 0.3557,0.086 0.6618,0.1595 0.9473,0.2218 -0.057,0.2438 -0.11,0.49 -0.1723,0.7339 -0.1132,-0.042 -0.2188,-0.084 -0.3478,-0.1259 a 2.8839,2.8839 0 0 1 0.1882,0.7309 c -0.2493,0.9418 -0.5323,1.8736 -0.8365,2.7994 -0.3031,0.4737 -0.64,0.9246 -0.9571,1.3456 a 3.0266,3.0266 0 0 0 0.5158,-0.042 c -0.29,0.8054 -0.6031,1.6023 -0.9331,2.3949 a 2.7877,2.7877 0 0 0 -0.5958,-0.6741 38.5861,38.5861 0 0 1 -3.43,8.0965 1.0187,1.0187 0 0 1 0.1112,0.17 q -0.5682,0.9113 -1.1739,1.7978 c 0.038,-0.22 0.078,-0.4393 0.13,-0.6575 a 58.3358,58.3358 0 0 1 -8.2822,9.7628 c 0.026,0.031 0.057,0.051 0.085,0.08 a 45.4473,45.4473 0 0 1 -8.1624,5.7889 c -0.056,-0.1082 -0.095,-0.1864 -0.1039,-0.21 -0.976,0.55 -3.2437,1.5364 -3.4979,1.7685 0.059,0.06 0.121,0.093 0.1815,0.1448 q -0.9432,0.4144 -1.9072,0.7878 c -1.2119,0.1326 -2.5709,0.4467 -2.9094,0.517 a 0.9572,0.9572 0 0 1 0.7309,0.245 c -1.2473,0.3979 -2.5128,0.7468 -3.8048,1.0254 q -1.1366,0.2429 -2.2762,0.4222 c 0.01,-0.072 0,-0.1374 0.018,-0.212 a 11.5747,11.5747 0 0 1 -3.0529,-0.033 1.3415,1.3415 0 0 1 0.4,0.5727 42.8146,42.8146 0 0 1 -5.7615,0.1442 z"
       style="fill:#3d69d8"
       id="path640" />
    <path
       d="m 1262.1627,1080.55 c 0.27,0.3672 0.4516,0.7326 0.6343,1.0175 -0.2548,0.3824 -0.2646,0.6416 0.1289,0.6832 0.8776,0.093 2.6949,-0.5775 4.7824,-1.6683 0.01,0.1276 0.1057,0.3517 0.2078,0.2627 0.061,-0.053 -6e-4,-0.2529 -0.088,-0.3263 0.1106,-0.059 0.2268,-0.121 0.3392,-0.1827 0.01,0.2756 0.021,0.5713 0.041,0.8776 a 2.412,2.412 0 0 0 -0.088,0.308 7.4051,7.4051 0 0 0 0.7932,5.16 1.8117,1.8117 0 0 0 0.1791,0.21 c 0.498,1.7722 1.1806,2.9058 2.0111,2.1834 -0.9429,1.1868 0.4027,-0.24 -0.011,0.6667 0.1185,-0.26 0.2028,-0.4607 0.2707,-0.6319 a 2.5885,2.5885 0 0 0 2.294,0.3478 c 0.01,0.3415 0.029,0.7131 0.064,1.15 0.01,-0.031 0.2268,-0.7767 0.3465,-1.3064 a 4.1386,4.1386 0 0 0 0.3727,-0.1987 3.9109,3.9109 0 0 0 -0.1087,0.8232 c 0.1925,0.1424 0.663,-0.7541 0.9936,-1.5638 a 4.14,4.14 0 0 0 1.1037,-2.5134 12.3356,12.3356 0 0 0 -0.068,-1.9952 0.0738,0.0738 0 0 0 0.071,0.07 c 0.5971,0.1106 0.2249,-0.5493 0.071,-0.3765 a 0.6947,0.6947 0 0 0 -0.143,0.2915 q -0.059,-0.5187 -0.1509,-1.0364 c 0.168,-0.8011 0.2462,-1.3749 0.089,-1.367 a 5.1215,5.1215 0 0 1 -0.1961,0.8207 c -0.05,-0.2414 -0.1028,-0.4822 -0.1639,-0.7235 a 4.5052,4.5052 0 0 0 -0.4949,-2.6711 c -0.012,0.021 -0.032,0.036 -0.1883,0.094 -0.05,-0.014 -0.09,-0.026 -0.1246,-0.037 -0.018,-0.049 -0.035,-0.099 -0.053,-0.149 a 0.91,0.91 0 0 1 0.3,0 1.4392,1.4392 0 0 0 -0.4284,-0.3538 q -0.1943,-0.5143 -0.3936,-1.0181 a 0.9814,0.9814 0 0 1 0.2647,0.1119 1.97,1.97 0 0 1 -0.094,-0.2781 c -0.1943,-0.3184 -0.4149,-0.6527 -0.56,-0.87 3.0732,-2.49 5.1551,-5.151 3.66,-6.642 -1.111,-1.1072 -3.1954,0.6594 -5.0574,2.6259 -0.5157,-0.5189 -0.3141,0.083 -0.13,0.1406 -1.0218,1.09 -1.9623,2.2121 -2.629,2.935 -0.1222,-0.195 -0.3368,-0.3489 -0.56,0 a 1.01,1.01 0 0 0 0.043,0.5267 c -0.026,0.023 -0.059,0.059 -0.084,0.08 -0.052,0.043 -0.201,0.1565 -0.4,0.3031 a 2.4779,2.4779 0 0 0 -0.4754,-0.1436 c 0.3385,0.4553 -1.3249,0.73 -1.74,0.6783 -0.2573,0.2011 -0.4858,0.4259 -0.7474,0.638 a 0.2538,0.2538 0 0 0 -0.059,-0.081 c -0.036,-0.029 -0.046,0.056 -0.031,0.1528 a 35.3763,35.3763 0 0 0 -3.0909,2.0808 c 0.01,0.024 0.014,0.04 0.022,0.071 l -0.089,0.04 a 0.8944,0.8944 0 0 0 -0.1955,1.0877 c -1.0245,-1.6827 0.3016,0.7083 -0.4391,-0.3017 z m 7.6887,7.6906 0.091,0.1753 c -0.068,-0.016 -0.5195,-0.1251 -0.091,-0.1752 z m 3.0635,-1.5778 a 2.1712,2.1712 0 0 1 -0.1534,-0.4725 2.2886,2.2886 0 0 0 0.4632,0.5494 c -0.085,0.1443 -0.187,0.1503 -0.3098,-0.077 z m 2.88,-6.2894 c 0,0 0.032,-0.024 0.059,-0.043 z m -0.3776,-1.3463 c 0.3379,0.1442 0.3025,0.2616 -0.1149,0.3276 a 0.2305,0.2305 0 0 1 -0.042,-0.08 0.709,0.709 0 0 1 0.1571,-0.2475 z m -10.916,0.8091 c -0.016,0.014 -0.032,0.027 -0.049,0.042 -0.016,-0.052 0.01,-0.057 0.049,-0.042 z m -0.1967,-0.6062 c 0.3232,1.136 -0.5041,-0.5768 0,0 z m -0.2389,0.1662 c 0.3934,0.7688 0.026,0.1931 0.01,0.1393 -0.038,-0.1007 -0.041,-0.1465 -0.01,-0.1392 z m -0.305,0.098 c 0.054,-0.3422 0.9827,1.2424 0,0 z m -0.7884,1.5308 c 0.011,0.1961 -0.051,0.1546 -0.1844,-0.1278 0.013,0 0.2511,-0.1752 0.1844,0.1279 z"
       style="fill:#3d69d8"
       id="path642" />
    <path
       d="m 1264.5594,1109.3069 a 1.2716,1.2716 0 0 0 -0.1357,0.1723 c -0.13,-0.35 -0.2749,-0.7046 -0.4369,-1.0614 0.2237,-0.01 0.5775,-0.4259 1.1549,0.6771 -1.0095,-1.9055 -0.7479,-0.3288 -1.2136,-0.811 -0.1589,-0.3422 -0.3366,-0.6872 -0.5231,-1.0309 -0.3074,-0.5664 -0.6171,-1.0786 -0.9539,-1.5869 a 3.3219,3.3219 0 0 0 -0.7926,-1.122 c -3.5449,-4.7207 -9.2673,-8.647 -14.5886,-7.3521 a 4.9711,4.9711 0 0 0 -1.3774,0.2676 c 0.3538,-0.1692 0.7088,-0.3379 1.0645,-0.5011 -0.04,-0.2145 -4.7384,2.3192 -5.5023,2.5263 0.1925,0.5573 -0.2084,1.0291 -0.1045,0 a 25.4411,25.4411 0 0 0 -2.3118,3.9561 20.3756,20.3756 0 0 0 -2.4425,4.458 c -0.1155,0.2939 -0.2206,0.5922 -0.32,0.8934 -0.102,0.053 -0.1069,0.12 -0.057,0.184 -0.1234,0.3868 -0.2335,0.7773 -0.3257,1.1752 -0.151,-0.099 -0.2151,-0.073 -0.05,0.2334 -0.072,0.3385 -0.1289,0.6794 -0.1747,1.0223 -0.7822,2.5245 -0.8849,4.3327 0.5188,4.002 a 1.789,1.789 0 0 0 -0.6625,0.7309 c 0.5653,-0.223 0.7718,-0.2328 0.6368,-0.038 0.078,-0.084 0.1645,-0.1662 0.2457,-0.2487 a 0.5872,0.5872 0 0 1 0.1278,0.16 c -0.034,0.2029 -0.077,0.1523 -0.1278,-0.16 0.043,0.3 0.062,0.5775 0.073,0.8263 -0.4577,0.1844 -0.5719,0.3519 -0.1632,0.48 0.064,0.018 0.13,0.028 0.195,0.049 a 1.1688,1.1688 0 0 0 0.4821,0.9954 20.847,20.847 0 0 1 3.64,-0.3275 36.9745,36.9745 0 0 0 3.8622,-0.012 c 0.6495,-0.032 1.2716,-0.065 1.8931,-0.1008 -1.1024,0.8152 -0.1858,0.4931 0.8323,-0.046 1.0828,-0.06 2.1626,-0.1094 3.2364,-0.1027 0.1637,0.1265 0.26,0.2219 0.2108,0.2469 a 3.042,3.042 0 0 0 0.4015,-0.2279 c 1.0149,0.044 3.0707,0.1478 5.3006,0.1533 a 0.3532,0.3532 0 0 0 -0.1466,0.32 c 0,0.48 0.3862,-0.1285 0.4038,-0.32 0.294,0 0.5891,0 0.8855,-0.01 -0.4846,0.3294 0.052,0.1332 0.1742,0 0.7192,-0.012 1.4385,-0.037 2.1272,-0.082 a 2.0022,2.0022 0 0 0 0.068,0.45 c 0.079,-0.038 0.1143,-0.2413 0.1321,-0.4656 0.4155,-0.028 0.82,-0.064 1.2051,-0.1087 0.061,-0.01 0.1221,-0.015 0.1838,-0.023 0.068,0.1558 0.3,0.1229 0.6985,-0.099 1.7471,-0.29 2.9058,-0.8049 2.665,-1.69 a 4.9992,4.9992 0 0 0 0.4785,-1.8443 c 0.3959,-0.9279 0.1581,-4.7912 -0.4865,-4.6122 z m -25.9721,8.3885 c 0.2646,0.038 0.5292,0.082 0.795,0.1094 -0.3184,0.097 -0.715,0.1522 -0.795,-0.1094 z m 19.2684,-11.2062 0.2511,-0.046 a 4.1539,4.1539 0 0 0 -0.5915,-0.5078 c 0.7009,0.8219 -1.4948,0.3911 -2.019,0.3869 -0.01,-0.025 0.5744,-0.148 0.8218,-0.2629 h -1.1439 a 2.0551,2.0551 0 0 1 -0.3679,0.093 0.4717,0.4717 0 0 0 0.035,-0.093 h -0.21 a 0.7775,0.7775 0 0 0 -0.061,0.051 0.611,0.611 0 0 0 0.01,0.078 c -0.04,0 -0.086,0.01 -0.1277,0.014 a 0.5705,0.5705 0 0 0 -0.1827,-0.1425 0.5771,0.5771 0 0 0 -0.1028,0.01 0.5219,0.5219 0 0 0 -0.01,0.1668 c -0.1986,0.018 -0.4113,0.032 -0.6338,0.043 a 0.7984,0.7984 0 0 0 -0.4388,0.018 c -0.8884,0.029 -1.8137,0.015 -2.3172,-0.027 a 10.8951,10.8951 0 0 0 1.1916,0.2427 c 0,0 -1.1048,-0.051 -2.3979,-0.11 0.1412,-0.039 -0.3256,-0.15 -0.7223,-0.03 a 21.8554,21.8554 0 0 0 -3.2364,0 0.6045,0.6045 0 0 1 0.6209,0.2152 c -0.048,0.2646 -3.1214,-0.2323 -3.0817,-0.3148 a 5.76,5.76 0 0 1 1.7348,-0.073 0.431,0.431 0 0 0 -0.215,-0.1351 2.251,2.251 0 0 0 -0.3178,0.015 c 0.082,0.018 0.013,0.016 -0.1876,-0.015 -0.627,0 -1.2527,0 -1.8547,-0.039 0.093,-0.1608 0.1937,-0.2959 0.29,-0.4474 a 2.9548,2.9548 0 0 0 -0.4407,0.2463 5.8031,5.8031 0 0 1 0.6888,-1.5913 c 0,0 0.113,-0.1368 0.097,-0.1735 0.7553,-1.3615 1.8931,-2.907 2.7174,-2.2367 0.3722,-1.8534 5.4694,-1.2734 6.5131,-0.9172 -1.224,-0.02 3.1209,2.159 2.9907,2.2989 q -0.39,-0.2575 -0.7718,-0.5285 c 1.3743,0.8585 2.6589,2.6967 3.8584,3.8279 -0.1306,-0.01 -0.2602,-0.01 -0.3885,-0.01 z"
       style="fill:#3d69d8"
       id="path644" />
  </g>
  <metadata
     id="metadata3562">
    <rdf:RDF>
      <cc:Work
         rdf:about="">
        <dc:title>sinaisthimata-2</dc:title>
      </cc:Work>
    </rdf:RDF>
  </metadata>
</svg>
