<?xml version="1.0" encoding="UTF-8" standalone="no"?>
<svg
   width="99.733742"
   height="103.36815"
   viewBox="0 0 99.733742 103.36815"
   version="1.1"
   id="svg730"
   sodipodi:docname="f6-on.svg"
   inkscape:version="1.2.1 (9c6d41e410, 2022-07-14)"
   xmlns:inkscape="http://www.inkscape.org/namespaces/inkscape"
   xmlns:sodipodi="http://sodipodi.sourceforge.net/DTD/sodipodi-0.dtd"
   xmlns:xlink="http://www.w3.org/1999/xlink"
   xmlns="http://www.w3.org/2000/svg"
   xmlns:svg="http://www.w3.org/2000/svg"
   xmlns:rdf="http://www.w3.org/1999/02/22-rdf-syntax-ns#"
   xmlns:cc="http://creativecommons.org/ns#"
   xmlns:dc="http://purl.org/dc/elements/1.1/">
  <sodipodi:namedview
     id="namedview732"
     pagecolor="#ffffff"
     bordercolor="#000000"
     borderopacity="0.25"
     inkscape:showpageshadow="2"
     inkscape:pageopacity="0.0"
     inkscape:pagecheckerboard="0"
     inkscape:deskcolor="#d1d1d1"
     showgrid="false"
     inkscape:zoom="2.3560873"
     inkscape:cx="55.600657"
     inkscape:cy="22.07049"
     inkscape:window-width="1920"
     inkscape:window-height="1017"
     inkscape:window-x="-8"
     inkscape:window-y="-8"
     inkscape:window-maximized="1"
     inkscape:current-layer="svg730" />
  <defs
     id="defs55">
    <clipPath
       id="clip-path">
      <rect
         x="2.5676999"
         y="-4.1897001"
         width="2044.2332"
         height="1429.7129"
         style="fill:none"
         id="rect2" />
    </clipPath>
    <clipPath
       id="clip-path-2">
      <rect
         x="0.31079999"
         y="0.2085"
         width="2046.49"
         height="1418.5383"
         style="fill:none"
         id="rect5" />
    </clipPath>
    <clipPath
       id="clip-path-3">
      <rect
         x="0.4914"
         y="0.2085"
         width="2046.49"
         height="1418.5383"
         style="fill:none"
         id="rect8" />
    </clipPath>
    <linearGradient
       id="_ÂÁ_Ï_ÌÌ_È_ËÂÌÚ_30"
       x1="973.72803"
       y1="217.1114"
       x2="1279.8972"
       y2="405.211"
       gradientUnits="userSpaceOnUse">
      <stop
         offset="0.1606"
         stop-color="#772d28"
         id="stop11" />
      <stop
         offset="0.3449"
         stop-color="#8e3930"
         id="stop13" />
      <stop
         offset="1"
         stop-color="#d2603c"
         id="stop15" />
    </linearGradient>
    <linearGradient
       id="_ÂÁ_Ï_ÌÌ_È_ËÂÌÚ_33"
       x1="975.55811"
       y1="312.90219"
       x2="1143.3853"
       y2="444.72739"
       gradientUnits="userSpaceOnUse">
      <stop
         offset="0.0135"
         stop-color="#772d28"
         id="stop18" />
      <stop
         offset="0.1554"
         stop-color="#7d302a"
         id="stop20" />
      <stop
         offset="0.5915"
         stop-color="#8a372e"
         id="stop22" />
      <stop
         offset="1"
         stop-color="#8e3930"
         id="stop24" />
    </linearGradient>
    <linearGradient
       id="_ÂÁ_Ï_ÌÌ_È_ËÂÌÚ_30-2"
       x1="828.7381"
       y1="472.54099"
       x2="1247.8842"
       y2="730.0495"
       xlink:href="#_%C3%82%C3%81_%C3%8F_%C3%8C%C3%8C_%C3%88_%C3%8B%C3%82%C3%8C%C3%9A_30" />
    <linearGradient
       id="_ÂÁ_Ï_ÌÌ_È_ËÂÌÚ_30-3"
       x1="937.97528"
       y1="496.49539"
       x2="737.89569"
       y2="766.1582"
       xlink:href="#_%C3%82%C3%81_%C3%8F_%C3%8C%C3%8C_%C3%88_%C3%8B%C3%82%C3%8C%C3%9A_30" />
    <linearGradient
       id="_ÂÁ_Ï_ÌÌ_È_ËÂÌÚ_12"
       x1="1231.5668"
       y1="673.64398"
       x2="1270.8306"
       y2="1060.5385"
       gradientUnits="userSpaceOnUse">
      <stop
         offset="0.2666"
         stop-color="#bb492f"
         id="stop29" />
      <stop
         offset="0.8134"
         stop-color="#a03c2b"
         id="stop31" />
    </linearGradient>
    <linearGradient
       id="_ÂÁ_Ï_ÌÌ_È_ËÂÌÚ_10"
       x1="886.21033"
       y1="1079.295"
       x2="886.21033"
       y2="558.34888"
       gradientUnits="userSpaceOnUse">
      <stop
         offset="0.1829"
         stop-color="#bb492f"
         id="stop34" />
      <stop
         offset="0.8134"
         stop-color="#d2603c"
         id="stop36" />
    </linearGradient>
    <linearGradient
       id="_ÂÁ_Ï_ÌÌ_È_ËÂÌÚ_10-2"
       x1="664.55438"
       y1="1079.3604"
       x2="664.55438"
       y2="558.34888"
       xlink:href="#_%C3%82%C3%81_%C3%8F_%C3%8C%C3%8C_%C3%88_%C3%8B%C3%82%C3%8C%C3%9A_10" />
    <linearGradient
       id="_ÂÁ_Ï_ÌÌ_È_ËÂÌÚ_12-2"
       x1="-2274.3308"
       y1="-526.58221"
       x2="-1997.9337"
       y2="-526.58221"
       gradientTransform="rotate(136.2115,-523.83111,697.56738)"
       xlink:href="#_%C3%82%C3%81_%C3%8F_%C3%8C%C3%8C_%C3%88_%C3%8B%C3%82%C3%8C%C3%9A_12" />
    <linearGradient
       id="_ÂÁ_Ï_ÌÌ_È_ËÂÌÚ_12-3"
       x1="1105.3553"
       y1="554.34039"
       x2="1383.4994"
       y2="554.34039"
       xlink:href="#_%C3%82%C3%81_%C3%8F_%C3%8C%C3%8C_%C3%88_%C3%8B%C3%82%C3%8C%C3%9A_12" />
    <linearGradient
       id="_ÂÁ_Ï_ÌÌ_È_ËÂÌÚ_12-4"
       x1="1230.0594"
       y1="673.56873"
       x2="1269.3973"
       y2="1061.1914"
       xlink:href="#_%C3%82%C3%81_%C3%8F_%C3%8C%C3%8C_%C3%88_%C3%8B%C3%82%C3%8C%C3%9A_12" />
    <linearGradient
       id="_ÂÁ_Ï_ÌÌ_È_ËÂÌÚ_10-3"
       x1="884.05292"
       y1="1079.9833"
       x2="884.05292"
       y2="558.05652"
       xlink:href="#_%C3%82%C3%81_%C3%8F_%C3%8C%C3%8C_%C3%88_%C3%8B%C3%82%C3%8C%C3%9A_10" />
    <linearGradient
       id="_ÂÁ_Ï_ÌÌ_È_ËÂÌÚ_7"
       x1="762.54498"
       y1="654.6286"
       x2="1312.0504"
       y2="246.0475"
       gradientUnits="userSpaceOnUse">
      <stop
         offset="0.2801"
         stop-color="#e27244"
         id="stop44" />
      <stop
         offset="0.8134"
         stop-color="#f2794e"
         id="stop46" />
    </linearGradient>
    <radialGradient
       id="radial-gradient"
       cx="223.35091"
       cy="410.99951"
       r="59.925201"
       gradientTransform="matrix(1,0,0,-1,0,1422)"
       gradientUnits="userSpaceOnUse">
      <stop
         offset="0"
         stop-color="#ff6163"
         id="stop49" />
      <stop
         offset="1"
         stop-color="#c62020"
         id="stop51" />
    </radialGradient>
    <radialGradient
       id="radial-gradient-2"
       cx="160.0694"
       cy="217.8264"
       r="67.1362"
       xlink:href="#radial-gradient" />
  </defs>
  <title
     id="title57">sinaisthimata-2</title>
  <ellipse
     id="_7_-_click"
     data-name="7 - click"
     cx="49.684509"
     cy="51.661236"
     rx="48.359501"
     ry="49.9282"
     style="fill:#f198ca;fill-opacity:1" />
  <g
     id="_7"
     data-name="7"
     transform="translate(-1330.3647,-1036.1686)">
    <path
       d="m 1356.1147,1054.8731 c 0.1039,0.748 1.3164,0.3325 2.2366,0.3679 a 1.23,1.23 0 0 0 0.4034,0.067 c 0.4927,0.052 1.2844,0.1088 1.738,0.159 0.054,0.01 0.066,-0.017 0.056,-0.055 0.079,0.015 0.1558,0.027 0.2327,0.038 -0.01,0.2175 0.05,0.3862 0.2646,0.3178 0.1094,-0.033 0.2529,-0.069 0.4064,-0.1051 0.087,-0.021 0.1693,-0.042 0.253,-0.059 l 0.5817,0.095 a 1.2865,1.2865 0 0 0 0.2274,-0.034 c 0.058,0.3336 0.5561,-0.1308 0.5353,-0.039 a 1.2978,1.2978 0 0 1 0.066,-0.1895 0.122,0.122 0 0 1 0.12,0.031 0.2607,0.2607 0 0 1 0.013,0.1783 c 0.046,0.089 0.051,-0.044 0.021,-0.16 a 0.2971,0.2971 0 0 0 -0.045,-0.1123 c 0.016,-0.011 0.032,-0.023 0.05,-0.038 0.1009,0.043 0.22,0.13 0.2665,-0.044 a 0.1816,0.1816 0 0 0 -0.06,-0.1942 1.5194,1.5194 0 0 0 -0.3855,-2.3882 c -2.5569,-1.1722 -6.7929,0.7284 -6.7282,1.6829 a 0.4517,0.4517 0 0 0 -0.2538,0.4814 z m 4.98,0.6539 c -0.258,0.092 -0.11,-0.072 0,0 z m -4.2032,-0.5134 c 0,0.029 -0.022,0.29 0,0 z m 0.1577,0.22 c -0.021,0.034 0.01,-0.1087 0.031,-0.074 z m 0,-0.2982 c -0.012,-0.079 0.01,-0.105 0.01,-0.105 0.026,0.016 0.042,0.049 -0.01,0.105 z m 0.2,0.071 q 0.061,-0.2073 0.043,-0.01 c -0.014,0.121 -0.028,0.071 -0.042,0.01 z m -1.0113,0.026 c -0.028,0.088 -0.046,0.058 -0.054,-0.098 9e-4,0 0.1322,-0.027 0.055,0.098 z"
       style="fill:#3d69d8"
       id="path620" />
    <path
       d="m 1395.36,1055.3938 c 0.2988,0.6367 2.4541,-0.011 2.3674,-0.014 -0.013,0.027 0.1468,0.05 0.3788,0.067 0.4525,0.034 1.1941,0.05 1.5974,0.043 0.054,0 0.075,-0.081 0.072,-0.1846 0.063,0 0.1278,0 0.1919,0 -0.01,0.281 0.039,0.5328 0.2726,0.4216 0.1021,-0.049 0.2289,-0.1028 0.3605,-0.1539 a 6.6305,6.6305 0 0 1 0.9478,-0.3178 c 0.011,0.6807 0.51,-0.022 0.5024,0.092 0.029,-0.2444 0.078,-0.2579 0.12,-0.21 1.1379,-0.5658 1.0938,-2.652 -0.2707,-2.8452 -1.52,-0.21 -7.1736,1.6219 -6.0981,2.4652 -0.02,0.051 -0.043,0.1161 -0.07,0.209 0.01,-0.829 -0.068,0.8418 -0.3721,0.4299 z m 0.8366,0.071 a 1.2356,1.2356 0 0 0 0.2718,0.051 c -0.085,0.05 -0.2813,0.144 -0.2714,-0.051 z m 0.1936,-0.3031 c 0,0.034 -0.029,0.2933 0,0 z m -0.073,-0.024 c -0.016,0.022 -0.026,0.1406 -0.032,0 z m 0.2109,0.2481 c -0.021,0.032 0.01,-0.1051 0.03,-0.074 z m 0.01,-0.2982 a 0.3584,0.3584 0 0 1 0,-0.073 c 0.049,0.052 4e-4,0.073 4e-4,0.073 z m 0.2206,0.065 c -0.015,0.1234 -0.028,0.07 -0.04,0.01 0.04,-0.1357 0.054,-0.1406 0.04,-0.01 z m 3.504,0.33 c -0.2353,0.12 -0.1051,-0.055 0,0 z m 1.5449,-0.055 c -0.031,-0.1332 0.029,-0.2555 0,0 z m -6.0413,-0.3923 c 0,0 0.12,-0.01 0.026,0.1026 -0.043,0.087 -0.058,0.051 -0.025,-0.1026 z"
       style="fill:#3d69d8"
       id="path622" />
    <path
       d="m 1359.3694,1069.38 c -5.1888,-0.8872 -10,1.6452 -13.1818,5.5806 -0.2122,0 -0.2665,-0.1577 -0.1009,-0.5133 a 16.05,16.05 0 0 0 -2.7683,5.2944 c -0.024,-0.1208 -0.072,-0.1844 -0.1521,-0.105 a 1.4708,1.4708 0 0 0 -0.075,0.9154 c -0.042,0.1675 -0.081,0.3349 -0.1186,0.5035 a 15.5621,15.5621 0 0 0 -0.6166,3.4026 13.8862,13.8862 0 0 0 0.935,5.8568 c 0.055,0.21 0.107,0.418 0.1681,0.6245 1.0052,3.3988 2.72,5.8652 5.9337,6.9885 0.096,0.033 1.0773,0.53 2.2451,1.0156 a 0.7353,0.7353 0 0 1 0.1547,-0.1039 l 0.5493,0.1857 a 2.7366,2.7366 0 0 1 -0.3873,0.047 c 0.2193,0.088 0.4392,0.1722 0.663,0.2516 0,1.8908 7.022,0.8177 8.92,0.407 1.6225,-0.1772 2.9369,-0.4814 2.8759,-0.9984 0.6531,-0.3313 1.35,-0.6845 2.0172,-1.0915 -0.6356,0.5 -1.2626,1.0084 -1.8548,1.5583 a 8.7257,8.7257 0 0 0 1.9317,-1.6011 17.9209,17.9209 0 0 0 1.7068,-1.2087 c 0.027,0.01 0.1271,-0.083 0.2566,-0.2139 a 16.845,16.845 0 0 0 1.7227,-1.6182 c 0.037,-0.017 0.082,-0.044 0.1192,-0.056 a 3.3915,3.3915 0 0 0 1.3053,-1.7539 c 0.2548,-0.3752 0.5041,-0.7553 0.7229,-1.1585 5.1498,-9.4252 -3.3096,-20.5585 -12.9722,-22.2085 z m -13.52,11.17 a 12.4951,12.4951 0 0 1 17.0679,-7.212 15.4639,15.4639 0 0 1 8.13,10.2407 3.1067,3.1067 0 0 0 -0.9111,-1.5816 3.1583,3.1583 0 0 0 0.9448,1.7453 11.565,11.565 0 0 1 0.2291,3.5468 0.6405,0.6405 0 0 0 -0.045,0.3716 9.271,9.271 0 0 1 -2.7188,5.4472 c -1.4164,1.4018 -8.4343,3.0237 -12.671,4.4365 -6.9194,-3.8388 -13.4582,-7.0867 -10.09,-16.8111 0.022,-0.063 0.043,-0.1209 0.065,-0.1834 z m -1.0187,12.8624 c 0.064,0.024 0.1009,0.038 0.1479,0.056 0.064,0.089 0.1307,0.1772 0.1961,0.2664 -0.064,0.087 -0.1178,0.2285 0.1217,0.5537 q -0.9505,-0.4069 -0.4655,-0.8763 z m 1.1458,1.2918 c 0.07,0.075 0.1369,0.1541 0.2077,0.2285 a 0.3262,0.3262 0 0 1 -0.2883,-0.1637 0.8258,0.8258 0 0 1 0.081,-0.065 z m 1.2,1.3407 c -0.018,-0.077 -0.018,-0.15 0.037,0.087 -0.5313,-0.055 -0.1762,-0.3165 -0.037,-0.087 z"
       style="fill:#3d69d8"
       id="path624" />
    <path
       d="m 1386.28,1087.3833 c 0.022,0.19 0.02,0.3837 0.045,0.5732 a 11.9586,11.9586 0 0 0 1.7751,4.8594 c -0.098,0.03 0.012,0.15 0.162,0.27 0.3618,1.0573 1.7263,3.5249 2.6265,2.6143 0.029,0.024 0.057,0.048 0.087,0.075 -0.2805,1.2441 0.5823,0.3324 0.61,1.3028 -0.01,-0.21 -0.04,-0.42 -0.051,-0.6294 0.8341,2.0422 6.1018,3.5835 7.4939,3.75 1.483,0.534 2.7487,0.7589 2.9172,0.084 -0.049,-0.032 -0.1013,-0.056 -0.152,-0.084 a 16.0617,16.0617 0 0 0 2.5183,-0.429 c 0.04,0 0.1221,0 0.2987,-0.02 0.4822,-0.1284 -0.037,-0.044 -0.12,-0.01 -0.046,0 -0.091,0.01 -0.13,0.015 a 17.0769,17.0769 0 0 0 2.4432,-0.8372 c -0.2213,0.1356 -0.4479,0.2566 -0.6643,0.4021 a 3.3348,3.3348 0 0 0 0.9674,-0.5207 c 0.3129,-0.1405 0.6148,-0.3018 0.9191,-0.46 a 3.6749,3.6749 0 0 1 0.594,-0.066 c 0.5707,0 1.6034,-0.9068 2.6644,-2.057 0.03,-0.026 0.063,-0.045 0.093,-0.071 a 15.1688,15.1688 0 0 0 5.04,-8.6237 c 0.01,-0.047 0.015,-0.089 0.021,-0.1357 1.1019,-5.49 -0.512,-11.5644 -5.0274,-15.1954 a 14.66,14.66 0 0 0 -14.3815,-2.2379 0.75,0.75 0 0 1 0.1914,-0.231 14.5822,14.5822 0 0 0 -4.0357,2.3025 c -0.2716,0.2123 -0.5475,0.4169 -0.8129,0.6368 0,-0.051 -0.025,-0.082 -0.096,-0.066 -0.1119,0.017 -0.338,0.3154 -0.4456,0.5415 a 15.604,15.604 0 0 0 -2.3307,2.68 18.7833,18.7833 0 0 0 -3.2522,8.9722 0.4409,0.4409 0 0 0 -0.017,0.37 c 0,-0.04 0.01,-0.082 0.01,-0.1223 0,0.044 -6e-4,0.089 0,0.1344 a 11.1918,11.1918 0 0 0 0.044,2.2137 z m 8.2718,-13.0395 a 13.2049,13.2049 0 0 1 3.7484,-2.0129 c 0.9282,-0.2176 1.8565,-0.4352 2.7921,-0.6 0.113,-0.011 0.2243,-0.021 0.3373,-0.031 0.8409,0.084 2.184,0.171 3.3806,0.2309 a 11.6123,11.6123 0 0 1 5.9636,3.3316 11.1243,11.1243 0 0 1 1.8438,2.5961 4.0539,4.0539 0 0 0 -0.4822,-0.4608 c -0.6636,0.4106 0.5829,1.4262 1.1459,1.9334 a 14.6048,14.6048 0 0 1 0.3922,8.5431 3.034,3.034 0 0 0 -0.1393,-0.8591 c -0.3832,-0.064 -0.1895,1.0754 -0.087,1.6437 a 12.6634,12.6634 0 0 1 -2.8275,4.9365 13.2117,13.2117 0 0 1 -8.6207,4.07 c -1.0413,0.015 -7.2769,-2.052 -9.6253,-2.2879 a 1.2216,1.2216 0 0 0 -0.3159,-0.7357 c -1.955,-7.1719 -5.6111,-12.2513 0.99,-18.9891 0.1149,-0.1161 0.2371,-0.22 0.3545,-0.33 a 8.2762,8.2762 0 0 0 1.1494,-0.9793 z"
       style="fill:#3d69d8"
       id="path626" />
    <path
       d="m 1381.4726,1105.2785 a 0.1479,0.1479 0 0 0 0.075,-0.1087 c 0.2506,-0.9875 -0.6777,-0.35 -0.4576,-0.1027 a 1.1667,1.1667 0 0 0 0.209,0.18 c -0.2574,-0.049 -0.514,-0.1 -0.7939,-0.138 -3.0353,-0.4 -5.7259,1.9212 -6.5967,4.6993 a 0.4432,0.4432 0 0 0 -0.061,0.1955 5.5274,5.5274 0 0 0 0.4075,4.23 0.9781,0.9781 0 0 0 0.1356,0.43 c -0.1026,-0.1589 -0.1906,-0.3264 -0.2871,-0.4913 0.5928,1.0938 1.9151,3.6848 1.8174,3.6053 0.602,-0.4937 0.9581,-0.097 0.068,0.046 a 8.6618,8.6618 0 0 0 2.7494,0.6026 c -0.1492,0.044 -0.3349,0.1833 -0.2817,0.33 0.052,0.1393 0.56,-0.1174 0.44,-0.32 a 9.18,9.18 0 0 0 5.2768,-1.5582 0.648,0.648 0 0 1 -0.1828,-0.075 c -0.2376,-0.8628 0.2928,-0.26 0.3118,-0.01 a 9.8289,9.8289 0 0 0 2.4859,-2.3649 1.6061,1.6061 0 0 0 -0.6569,-1.9238 c 0.045,-0.1454 0.091,-0.292 0.1259,-0.4375 a 1.81,1.81 0 0 0 0.18,-0.1075 c -0.06,0 -0.1081,0.01 -0.1613,0.015 a 5.0451,5.0451 0 0 0 -1.2912,-5.0354 c 0.1319,0 0.2627,0.016 0.3953,0.01 -0.47,-0.4669 -0.6874,-0.4791 -0.8421,-0.3825 a 7.7174,7.7174 0 0 0 -3.0652,-1.2873 z m -2.1859,11.3493 a 1.34,1.34 0 0 0 0.1395,0.012 0.2069,0.2069 0 0 1 -0.1437,0.1882 0.2354,0.2354 0 0 1 0,-0.2005 z m 0.4981,0.4216 a 1.08,1.08 0 0 1 0.053,-0.1564 0.5094,0.5094 0 0 1 0.035,0.1711 0.84,0.84 0 0 1 -0.088,-0.015 z m -0.4216,-0.096 c -0.026,-0.01 -0.05,-0.02 -0.076,-0.026 0.062,-0.1161 0.089,-0.1161 0.076,0.026 z m 5.1271,-0.6088 a 3.1488,3.1488 0 0 1 -0.3074,-0.3568 0.584,0.584 0 0 1 0.3,0.16 c 0.072,0.1126 0.073,0.1809 0.01,0.1968 z m 1.8877,-2.4981 c 0.069,0.079 0.4937,0.6649 -0.073,0.2335 z m -1.3329,2.0008 c 0.23,0.7809 -0.2768,-0.062 -0.37,-0.2445 -0.021,-0.061 -0.035,-0.1088 -0.052,-0.1577 0.035,-0.048 0.072,-0.094 0.1064,-0.143 0.08,0.1295 0.1848,0.3083 0.3156,0.5452 z"
       style="fill:#3d69d8"
       id="path628" />
    <path
       d="m 1421.3374,1056.1271 a 50.0255,50.0255 0 0 0 -15.5823,-13.7167 c -1.4917,-0.8579 -16.6071,-7.9477 -17.242,-5.221 -0.069,0.303 0.2609,0.7 0.8708,1.161 a 1.0353,1.0353 0 0 0 -0.3288,-0.035 c 0.3587,-0.054 8.9415,7.0716 9.9975,5.3947 2.907,0.8811 3.1966,3.2216 7.4481,3.4575 1.0467,0.073 -3.2028,-2.4125 -1.2528,-1.2551 0.086,0.027 0.1918,0.065 0.3074,0.11 a 47.8507,47.8507 0 0 1 4.9632,3.34 c -1.8631,1.0694 1.4453,2.1193 3.4356,2.9112 0.3771,0.3557 0.7559,0.7077 1.1207,1.0744 a 3.7922,3.7922 0 0 1 -0.9135,0.4082 c 0.5427,1.0743 2.7126,2.32 4.3284,3.5125 0.3611,0.473 0.7229,0.9448 1.0595,1.4324 0.2794,0.4046 0.5336,0.83 0.7951,1.2491 0.04,1.8063 0.3428,2.4285 1.8205,3.8951 1.0175,-0.1075 1.0669,10.0366 3.69,10.451 0.1235,0.6208 0.2323,1.2453 0.3356,1.8724 a 7.18,7.18 0 0 0 -0.6081,3.2424 c 0.5322,-0.7333 0.7957,-0.5255 1.0291,-0.1723 0.029,0.2664 0.065,0.5329 0.092,0.8 -1.5528,0.4767 -0.3275,2.9982 -0.7125,4.4049 q 0.4712,-0.352 0.9418,-0.6991 c 0.017,0.48 0.038,0.9618 0.045,1.4434 a 2.1567,2.1567 0 0 0 -1.01,-0.3924 q 0.081,1.8553 0.014,3.7069 a 1.0976,1.0976 0 0 1 0.95,-0.1137 c -0.01,0.2493 -0.02,0.4963 -0.033,0.7456 a 1.7339,1.7339 0 0 1 -0.9166,-0.096 c -0.3923,1.9212 -0.2,2.7218 0.7187,3.0188 -0.043,0.4583 -0.09,0.9043 -0.14,1.3505 -0.2083,-0.1454 -0.4351,-0.297 -0.7077,-0.4559 a 40.5627,40.5627 0 0 0 0.014,5.1137 q -0.4152,2.1888 -1.034,4.3142 c -0.9734,0.2395 -1.744,0.7383 -1.1128,2.3368 a 1.5581,1.5581 0 0 1 0.4944,-0.3715 c -0.4254,1.243 -0.913,2.4615 -1.4391,3.66 a 17.4328,17.4328 0 0 0 -2.7964,4.1763 c 0.19,0.1137 0.3672,0.2212 0.5353,0.3189 -0.1111,0.1956 -0.2218,0.39 -0.3373,0.5855 -0.042,0 -0.051,0.04 -0.049,0.077 q -1.0065,1.7 -2.1438,3.3086 c -0.2327,0.1759 -0.4661,0.35 -0.6843,0.5206 0.09,0.026 0.18,0.038 0.2682,0.057 q -0.6636,0.913 -1.3681,1.793 a 2.9612,2.9612 0 0 0 -0.3032,-0.6392 44.146,44.146 0 0 1 -5.4675,6.2661 1.6971,1.6971 0 0 1 0.083,0.3667 q -0.9183,0.8194 -1.873,1.5962 a 9.0092,9.0092 0 0 1 0.5727,-1.05 94.2924,94.2924 0 0 1 -10.3685,6.4433 4.0074,4.0074 0 0 0 0.3538,0.5965 c -0.3514,0.1687 -0.7,0.3422 -1.0559,0.5011 0.013,-0.084 0.034,-0.1687 0.042,-0.2554 a 1.353,1.353 0 0 1 -0.093,0.2787 c -0.8505,0.3825 -1.7153,0.7356 -2.5885,1.0693 -1.47,0.077 -3.1466,0.094 -3.9648,1.3115 q -0.7543,0.2053 -1.5155,0.3911 c -0.037,-0.2322 -0.073,-0.4632 -0.1278,-0.6943 -1.0192,0.2188 -3.3213,0.6552 -3.6348,0.81 a 1.8652,1.8652 0 0 0 0.4638,0.545 q -1.2043,0.1944 -2.4242,0.3216 a 16.0984,16.0984 0 0 0 -2.6459,-0.5831 c 0.5518,0.1454 0.7363,0.3972 0.5933,0.75 a 41.8969,41.8969 0 0 1 -6.2728,-0.1088 c -0.1779,-0.5817 -0.5842,-0.8763 -2.3943,-1.1036 a 1.5026,1.5026 0 0 1 0.2787,0.8507 c -0.9956,-0.1443 -1.9922,-0.3116 -2.9895,-0.5268 q -1.0524,-0.2292 -2.0857,-0.5133 c -0.7186,-0.8274 -4.9138,-2.2354 -6.1977,-2.2171 -0.5586,-0.2481 -1.1153,-0.5048 -1.6622,-0.7772 a 3.7984,3.7984 0 0 0 -2.24,-1.1978 q -1.3309,-0.7553 -2.6094,-1.5986 c -0.97,-1.0107 -2.0967,-2.305 -3.23,-2.3258 a 52.2273,52.2273 0 0 1 -11.5893,-12.7793 c 0.8891,-0.4338 0.311,-0.7736 -0.6227,-1.0082 -0.294,-0.4767 -0.5806,-0.9558 -0.8586,-1.4423 a 2.455,2.455 0 0 0 0.3892,0.029 6.0053,6.0053 0 0 0 -1.2252,-1.5363 51.3046,51.3046 0 0 1 -6.1317,-23.7189 c 0,-0.1431 0.011,-0.2811 0.011,-0.4217 0.5989,-0.4144 1.0737,-0.968 0.037,-1.4276 0.024,-0.6416 0.068,-1.2783 0.1228,-1.9114 0.5988,-2.6461 1.5186,-7.4322 1.7918,-8.4563 0.5353,-1.8578 1.01,-3.4332 1.4971,-4.8558 a 49.0254,49.0254 0 0 1 11.3223,-16.6108 30.0524,30.0524 0 0 1 3.171,-2.5825 2.4406,2.4406 0 0 1 -0.2823,-0.105 c 0.157,-0.1356 0.319,-0.27 0.4773,-0.4046 0.4791,0 1.1085,-0.3727 2.3869,-1.2576 2.2415,-1.5534 4.9834,-1.8883 4.0051,-3.4527 0.2567,-0.165 0.5109,-0.3288 0.7687,-0.4864 0.086,0.1894 0.1736,0.3911 0.2719,0.6086 1.71,-1.0034 4.7208,-1.7856 4.8119,-3.39 0.1117,-0.055 0.2224,-0.1075 0.3348,-0.1626 0.37,0.053 0.4949,0.2848 0.3514,0.7126 0.4625,-0.1931 0.9246,-0.3862 1.3865,-0.5757 -0.1986,-0.2236 -0.3989,-0.4473 -0.5982,-0.6685 0.2781,-0.126 0.5592,-0.2432 0.84,-0.3666 a 1.6454,1.6454 0 0 1 0.1418,0.875 c 5.512,-2.1572 11.3938,-1.7294 16.6375,-3.9989 0.7383,-0.3485 -0.026,-0.6894 -1.2661,-0.9827 0.5707,-0.06 1.1415,-0.1211 1.7128,-0.1565 -0.586,0.035 -1.1695,0.094 -1.752,0.1467 a 40.1735,40.1735 0 0 0 -5.5591,-0.7932 10.5238,10.5238 0 0 0 -3.6751,0.7688 c 0.5268,0.01 1.0541,0.02 1.5822,0.029 -0.9118,0.6893 -1.5482,0.8081 -1.9042,0.3691 a 0.986,0.986 0 0 1 -0.1283,-0.1993 c -2.046,0.9827 -3.3274,2.4469 -6.5052,3.2108 a 2.0314,2.0314 0 0 1 0.1895,0.138 c -0.2744,0.098 -0.5445,0.209 -0.8165,0.3105 -0.048,-0.055 -0.11,-0.1038 -0.1435,-0.075 0.037,0.043 0.064,0.07 0.089,0.095 a 1.25,1.25 0 0 1 -0.089,-0.095 c 0.8549,-0.7467 -0.7071,-0.3959 -0.2506,-1.3687 a 65.9667,65.9667 0 0 0 -7.0423,3.3781 24.5687,24.5687 0 0 0 2.4151,-0.8666 c -2.25,0.8763 -10.2021,4.07 -10.765,6.33 0.39,0.2982 0.6973,0.57 0.9612,0.8079 -0.1509,0.1173 -0.2987,0.2382 -0.4492,0.3544 a 4.109,4.109 0 0 1 -0.5493,-1.0425 c -1.8986,3.4416 -4.1231,3.5993 -6.49,7.784 q -1.4043,1.6318 -2.6613,3.39 a 22.3545,22.3545 0 0 0 -2.9577,3.7217 c -1.1238,1.9627 -6.0939,11.76 -4.7947,13.818 -0.03,-0.048 0.025,-0.1956 0.1077,-0.3765 a 50.9494,50.9494 0 0 0 -1.185,10.8542 52.4778,52.4778 0 0 0 0.3141,5.7749 5.586,5.586 0 0 0 0.029,0.6343 56.4778,56.4778 0 0 0 4.7886,16.5056 c 0.6624,2.4225 2.7652,5.3578 4.3008,7.5128 0.7516,1.0547 1.5064,2.1034 2.3125,3.1141 a 27.2721,27.2721 0 0 1 3.6151,5.7639 c 0.5867,1.3249 3.2475,1.4152 4.095,2.2109 -0.7621,-0.715 -1.2846,-1.1709 -1.63,-1.5559 0.027,0.02 0.051,0.049 0.079,0.066 a 47.1133,47.1133 0 0 0 26.1346,11.722 c 27.5218,3.0286 52.114,-18.6005 55.2587,-45.5278 1.4807,-12.6797 -0.6893,-27.0709 -8.3248,-37.5988 z m -53.8587,-15.3922 c -0.4333,0.1222 0.022,0.7382 -0.2275,0.572 0,-0.1064 -0.1356,-0.1491 -0.052,-0.039 a 3.8415,3.8415 0 0 1 -0.3159,-0.2726 c -0.2028,-0.1821 -0.29,-0.3018 -0.3037,-0.374 0.072,-0.029 0.1479,-0.055 0.2206,-0.084 a 3.2142,3.2142 0 0 1 0.6784,0.198 z m -26.4036,73.5487 c -0.095,-0.1466 -0.184,-0.3006 -0.2781,-0.45 a 0.8027,0.8027 0 0 1 0.2781,0.45 z m 20.1918,-72.4854 a 0.9915,0.9915 0 0 1 -0.046,0.198 c -0.2885,0.1283 -0.5806,0.248 -0.866,0.3776 a 3.7266,3.7266 0 0 1 -1.0009,-0.53 c 0.6374,-0.014 1.2758,-0.031 1.9127,-0.046 z m -5.2175,2.3172 c 0.6324,-0.4106 1.0284,-0.45 1.334,-0.2676 -0.3374,0.1785 -0.676,0.3544 -1.01,0.5389 -0.1065,-0.09 -0.2019,-0.1747 -0.324,-0.2713 z m 67.4744,23.7362 c 0.1393,-0.1638 0.2762,-0.3313 0.415,-0.4962 0.066,0.1821 0.1271,0.3665 0.1894,0.55 a 2.4781,2.4781 0 0 0 -0.6044,-0.054 z m -9.783,53.8263 c -0.058,0.064 -0.113,0.1258 -0.1723,0.1906 a 0.7315,0.7315 0 0 1 0.1723,-0.1906 z"
       style="fill:#3d69d8"
       id="path630" />
    <path
       d="m 1356.3481,1091.0389 a 3.5606,3.5606 0 0 0 1.34,-0.2983 1.7461,1.7461 0 0 0 2.2428,-0.9533 3.31,3.31 0 0 1 1.3089,-0.4436 c -0.5689,-0.9974 -0.616,-1.4508 -0.157,-1.3749 -0.037,-0.02 -0.074,-0.037 -0.1264,-0.066 l 0.028,-0.127 a 1.4735,1.4735 0 0 1 0.26,0.231 c 0.062,0.021 0.1229,0.042 0.1981,0.074 -0.3826,-0.5536 -0.3728,-0.864 -0.6357,-1.029 0.2544,-2.0631 -0.2052,-4.252 -1.6413,-4.6492 0.1021,-0.363 -0.1277,-0.2371 -0.2481,-0.055 a 3.1809,3.1809 0 0 0 -1.98,0.5842 c -0.3856,0.027 -0.5414,0.1943 -0.5885,0.4241 a 3.2509,3.2509 0 0 0 -1.1061,1.9384 c -0.1619,0 -0.1808,0.2873 -0.068,0.62 a 6.1015,6.1015 0 0 0 0.2658,2.1535 1.2454,1.2454 0 0 0 0.056,0.6868 1.9647,1.9647 0 0 0 -0.14,-0.2126 c 0.3804,0.7941 1.0148,2.5112 0.9909,2.4966 z m 3.7425,-1.5339 c 0.021,-0.042 0.043,-0.082 0.063,-0.1246 0.093,0.1396 0.116,0.231 -0.063,0.1246 z m 0.3305,-0.627 c 0.1759,0.16 0.089,0.1553 -0.084,0.087 a 0.1278,0.1278 0 0 1 0.084,-0.087 z"
       style="fill:#3d69d8"
       id="path632" />
    <path
       d="m 1398.4934,1089.8057 c 1.1843,0.062 4.576,-1.8834 4.8906,-1.6964 a 2.5151,2.5151 0 0 1 -0.4674,-1.22 0.2467,0.2467 0 0 1 0.31,-0.1577 c -0.038,-0.018 -0.073,-0.034 -0.1257,-0.062 l 0.027,-0.1272 a 1.4106,1.4106 0 0 1 0.26,0.231 1.81,1.81 0 0 1 0.198,0.075 4.8476,4.8476 0 0 1 -0.407,-0.7565 c 0.454,-1.8663 -0.091,-4.1041 -1.7985,-4.7348 -0.045,-0.016 -0.085,-0.023 -0.1277,-0.038 0.2425,-0.6331 -0.187,-0.32 -0.2481,-0.072 -2.0326,-0.5206 -3.1875,1.1281 -3.36,2.9675 -0.5531,-0.5414 -0.5073,0.4717 0.012,1.0572 0.01,0.097 0.02,0.1931 0.034,0.2823 0.022,0.1357 0.05,0.26 0.08,0.38 a 2.79,2.79 0 0 0 -0.129,1.59 1.6348,1.6348 0 0 0 -0.14,-0.2151 c 0.3805,0.7936 1.0155,2.5117 0.9916,2.4974 z m 3.6556,-1.5876 c -0.029,-0.05 -0.049,-0.084 -0.073,-0.1223 0.036,-0.035 0.071,-0.071 0.1051,-0.1063 0.1827,0.2212 0.3343,0.4815 -0.032,0.2286 z m 0.4174,-0.5745 c 0.1943,0.1772 0.069,0.1552 -0.1374,0.066 0.024,-0.029 0.045,-0.066 0.068,-0.096 0.034,0.017 0.069,0.031 0.069,0.031 a 0.6016,0.6016 0 0 0 -0.069,-0.031 c 0.018,0.01 0.028,0.012 0.069,0.031 z"
       style="fill:#3d69d8"
       id="path634" />
  </g>
  <metadata
     id="metadata2784">
    <rdf:RDF>
      <cc:Work
         rdf:about="">
        <dc:title>sinaisthimata-2</dc:title>
      </cc:Work>
    </rdf:RDF>
  </metadata>
</svg>
