<?xml version="1.0" encoding="UTF-8" standalone="no"?>
<svg
   width="99.740601"
   height="103.67207"
   viewBox="0 0 99.740601 103.67207"
   version="1.1"
   id="svg730"
   sodipodi:docname="cry-8-off.svg"
   inkscape:version="1.2.1 (9c6d41e410, 2022-07-14)"
   xmlns:inkscape="http://www.inkscape.org/namespaces/inkscape"
   xmlns:sodipodi="http://sodipodi.sourceforge.net/DTD/sodipodi-0.dtd"
   xmlns:xlink="http://www.w3.org/1999/xlink"
   xmlns="http://www.w3.org/2000/svg"
   xmlns:svg="http://www.w3.org/2000/svg"
   xmlns:rdf="http://www.w3.org/1999/02/22-rdf-syntax-ns#"
   xmlns:cc="http://creativecommons.org/ns#"
   xmlns:dc="http://purl.org/dc/elements/1.1/">
  <sodipodi:namedview
     id="namedview732"
     pagecolor="#ffffff"
     bordercolor="#000000"
     borderopacity="0.25"
     inkscape:showpageshadow="2"
     inkscape:pageopacity="0.0"
     inkscape:pagecheckerboard="0"
     inkscape:deskcolor="#d1d1d1"
     showgrid="false"
     inkscape:zoom="4.7121746"
     inkscape:cx="149.61245"
     inkscape:cy="96.770608"
     inkscape:window-width="1920"
     inkscape:window-height="1017"
     inkscape:window-x="-8"
     inkscape:window-y="-8"
     inkscape:window-maximized="1"
     inkscape:current-layer="svg730" />
  <defs
     id="defs55">
    <clipPath
       id="clip-path">
      <rect
         x="2.5676999"
         y="-4.1897001"
         width="2044.2332"
         height="1429.7129"
         style="fill:none"
         id="rect2" />
    </clipPath>
    <clipPath
       id="clip-path-2">
      <rect
         x="0.31079999"
         y="0.2085"
         width="2046.49"
         height="1418.5383"
         style="fill:none"
         id="rect5" />
    </clipPath>
    <clipPath
       id="clip-path-3">
      <rect
         x="0.4914"
         y="0.2085"
         width="2046.49"
         height="1418.5383"
         style="fill:none"
         id="rect8" />
    </clipPath>
    <linearGradient
       id="_ÂÁ_Ï_ÌÌ_È_ËÂÌÚ_30"
       x1="973.72803"
       y1="217.1114"
       x2="1279.8972"
       y2="405.211"
       gradientUnits="userSpaceOnUse">
      <stop
         offset="0.1606"
         stop-color="#772d28"
         id="stop11" />
      <stop
         offset="0.3449"
         stop-color="#8e3930"
         id="stop13" />
      <stop
         offset="1"
         stop-color="#d2603c"
         id="stop15" />
    </linearGradient>
    <linearGradient
       id="_ÂÁ_Ï_ÌÌ_È_ËÂÌÚ_33"
       x1="975.55811"
       y1="312.90219"
       x2="1143.3853"
       y2="444.72739"
       gradientUnits="userSpaceOnUse">
      <stop
         offset="0.0135"
         stop-color="#772d28"
         id="stop18" />
      <stop
         offset="0.1554"
         stop-color="#7d302a"
         id="stop20" />
      <stop
         offset="0.5915"
         stop-color="#8a372e"
         id="stop22" />
      <stop
         offset="1"
         stop-color="#8e3930"
         id="stop24" />
    </linearGradient>
    <linearGradient
       id="_ÂÁ_Ï_ÌÌ_È_ËÂÌÚ_30-2"
       x1="828.7381"
       y1="472.54099"
       x2="1247.8842"
       y2="730.0495"
       xlink:href="#_%C3%82%C3%81_%C3%8F_%C3%8C%C3%8C_%C3%88_%C3%8B%C3%82%C3%8C%C3%9A_30" />
    <linearGradient
       id="_ÂÁ_Ï_ÌÌ_È_ËÂÌÚ_30-3"
       x1="937.97528"
       y1="496.49539"
       x2="737.89569"
       y2="766.1582"
       xlink:href="#_%C3%82%C3%81_%C3%8F_%C3%8C%C3%8C_%C3%88_%C3%8B%C3%82%C3%8C%C3%9A_30" />
    <linearGradient
       id="_ÂÁ_Ï_ÌÌ_È_ËÂÌÚ_12"
       x1="1231.5668"
       y1="673.64398"
       x2="1270.8306"
       y2="1060.5385"
       gradientUnits="userSpaceOnUse">
      <stop
         offset="0.2666"
         stop-color="#bb492f"
         id="stop29" />
      <stop
         offset="0.8134"
         stop-color="#a03c2b"
         id="stop31" />
    </linearGradient>
    <linearGradient
       id="_ÂÁ_Ï_ÌÌ_È_ËÂÌÚ_10"
       x1="886.21033"
       y1="1079.295"
       x2="886.21033"
       y2="558.34888"
       gradientUnits="userSpaceOnUse">
      <stop
         offset="0.1829"
         stop-color="#bb492f"
         id="stop34" />
      <stop
         offset="0.8134"
         stop-color="#d2603c"
         id="stop36" />
    </linearGradient>
    <linearGradient
       id="_ÂÁ_Ï_ÌÌ_È_ËÂÌÚ_10-2"
       x1="664.55438"
       y1="1079.3604"
       x2="664.55438"
       y2="558.34888"
       xlink:href="#_%C3%82%C3%81_%C3%8F_%C3%8C%C3%8C_%C3%88_%C3%8B%C3%82%C3%8C%C3%9A_10" />
    <linearGradient
       id="_ÂÁ_Ï_ÌÌ_È_ËÂÌÚ_12-2"
       x1="-2274.3308"
       y1="-526.58221"
       x2="-1997.9337"
       y2="-526.58221"
       gradientTransform="rotate(136.2115,-523.83111,697.56738)"
       xlink:href="#_%C3%82%C3%81_%C3%8F_%C3%8C%C3%8C_%C3%88_%C3%8B%C3%82%C3%8C%C3%9A_12" />
    <linearGradient
       id="_ÂÁ_Ï_ÌÌ_È_ËÂÌÚ_12-3"
       x1="1105.3553"
       y1="554.34039"
       x2="1383.4994"
       y2="554.34039"
       xlink:href="#_%C3%82%C3%81_%C3%8F_%C3%8C%C3%8C_%C3%88_%C3%8B%C3%82%C3%8C%C3%9A_12" />
    <linearGradient
       id="_ÂÁ_Ï_ÌÌ_È_ËÂÌÚ_12-4"
       x1="1230.0594"
       y1="673.56873"
       x2="1269.3973"
       y2="1061.1914"
       xlink:href="#_%C3%82%C3%81_%C3%8F_%C3%8C%C3%8C_%C3%88_%C3%8B%C3%82%C3%8C%C3%9A_12" />
    <linearGradient
       id="_ÂÁ_Ï_ÌÌ_È_ËÂÌÚ_10-3"
       x1="884.05292"
       y1="1079.9833"
       x2="884.05292"
       y2="558.05652"
       xlink:href="#_%C3%82%C3%81_%C3%8F_%C3%8C%C3%8C_%C3%88_%C3%8B%C3%82%C3%8C%C3%9A_10" />
    <linearGradient
       id="_ÂÁ_Ï_ÌÌ_È_ËÂÌÚ_7"
       x1="762.54498"
       y1="654.6286"
       x2="1312.0504"
       y2="246.0475"
       gradientUnits="userSpaceOnUse">
      <stop
         offset="0.2801"
         stop-color="#e27244"
         id="stop44" />
      <stop
         offset="0.8134"
         stop-color="#f2794e"
         id="stop46" />
    </linearGradient>
    <radialGradient
       id="radial-gradient"
       cx="223.35091"
       cy="410.99951"
       r="59.925201"
       gradientTransform="matrix(1,0,0,-1,0,1422)"
       gradientUnits="userSpaceOnUse">
      <stop
         offset="0"
         stop-color="#ff6163"
         id="stop49" />
      <stop
         offset="1"
         stop-color="#c62020"
         id="stop51" />
    </radialGradient>
    <radialGradient
       id="radial-gradient-2"
       cx="160.0694"
       cy="217.8264"
       r="67.1362"
       xlink:href="#radial-gradient" />
  </defs>
  <title
     id="title57">sinaisthimata-2</title>
  <g
     id="_8"
     data-name="8"
     transform="translate(-1462.1477,-1036.0192)">
    <path
       d="m 1500.3553,1060.2476 c -0.8212,-0.2309 -0.8188,0.4693 -1.2392,0.495 -0.6624,0.043 -0.6979,0.6759 -0.048,0.6552 -0.138,0.13 -0.275,0.259 -0.4131,0.3886 q -0.4216,0.737 -0.4486,0.2077 c 0.1456,-0.012 -0.3617,0.588 -0.2737,0.5 -0.2639,-0.2089 -0.5244,-0.1943 -0.5182,0.1822 0.01,0.7455 -1.5265,0.6122 -0.9972,1.128 0.056,-0.121 0.1613,-0.1552 0.32,-0.1039 -0.4229,0.4314 -0.3691,0.4511 -0.88,0.4144 -0.45,-0.032 -0.132,0.2932 -0.39,0.4326 -0.3044,0.1637 -0.1589,0.5438 -0.4767,0.8336 -0.517,0.4729 -0.209,0.1844 -0.7945,0.6795 a 0.8308,0.8308 0 0 1 0.033,-0.2505 c -0.1638,0.1454 -0.39,-0.017 -0.2677,0.34 -0.5317,-0.325 -0.6392,0 -0.4448,0.4755 -0.1516,0.13 -0.3031,0.2543 -0.46,0.3777 -0.088,0.066 -0.924,0.3093 -0.957,0.3617 0.1087,-0.2089 0.5316,-0.4032 0.1443,-0.6025 -0.2554,-0.1344 -0.3484,0.3422 -0.37,0.4852 -0.06,0.385 0.17,0.4779 -0.308,0.6184 a 1.9388,1.9388 0 0 1 -0.7958,0.048 c 0.015,0.034 -0.2113,-0.6086 -0.347,-0.5451 0.068,0.1626 0.1308,0.3263 0.1906,0.4914 -0.076,-0.1 -0.1087,-0.098 -0.1062,0.01 -0.037,-0.16 -0.072,-0.3214 -0.1077,-0.48 -0.1808,0.2787 -0.053,0.9019 -0.027,1.2148 a 0.295,0.295 0 0 0 -0.2346,-0.2995 c -0.1235,0.064 -0.1492,0.3277 -0.1931,0.4388 -0.1089,0.28 -0.6931,-0.073 -0.9119,0.1651 0.07,-0.5329 -0.2529,-0.086 -0.39,0.044 a 1.226,1.226 0 0 1 -0.8066,0.4413 c -0.022,-0.1027 -0.1639,-0.9632 -0.484,-0.8214 -0.3544,0.1614 -0.3226,0.7432 -0.3313,-0.084 -0.094,0.1748 -0.4021,0.8531 -0.7369,0.7175 a 2.5217,2.5217 0 0 0 0.1222,-0.5439 c 0,0 -0.27,0.4131 -0.308,0.4913 -0.8153,-0.2213 -0.2824,0.3825 -0.78,0.7015 0.01,-0.046 0.116,-0.583 0.05,-0.605 -0.059,-0.021 -0.2737,0.7565 -0.2444,0.6576 0.021,-0.1527 0.037,-0.3055 0.049,-0.46 0.068,0.5537 -0.2164,0.9179 -0.084,1.5058 -0.1308,-0.1553 -0.8018,0.5169 0.092,0.4607 -0.029,0.048 -0.27,0.577 -0.015,0.5989 0.2847,0.028 0.2554,-0.71 0.14,-0.5573 0.077,-0.1381 1.6511,0.9619 2.162,0.7932 a 10.302,10.302 0 0 0 3.6971,-0.4253 17.6836,17.6836 0 0 0 6.386,-3.4039 26.81,26.81 0 0 0 5.6037,-5.4436 2.0149,2.0149 0 0 0 -2.7999,-2.7271 z m -12.74,8.9209 c 0.012,0.079 0.022,0.1588 0.032,0.2382 -0.1318,0.011 -0.188,-0.2762 -0.032,-0.2382 z m -1.3653,0.027 -0.087,-0.026 c 0.043,-0.081 0.2775,-0.6184 0.087,0.026 z m 0.9594,0.093 c 0.021,0.1271 -0.026,0.1772 -0.1357,0.1466 0.012,-0.031 0.1224,-0.4327 0.1363,-0.1466 z"
       style="fill:#3d69d8"
       id="path610" />
    <path
       d="m 1541.3818,1069.0242 c -0.06,-0.187 -0.1234,-0.3716 -0.1858,-0.5586 0.1637,0.12 0.5451,-0.6684 -0.1871,-0.4191 0,0 0.1052,-0.6319 -0.095,-0.5842 -0.2335,0.054 -0.077,0.7381 -0.015,0.5768 -0.1869,0.7553 -0.8812,0.1711 -1.1169,-0.2078 -0.76,-1.2307 -1.5156,0.5794 -2.4433,-0.121 a 0.3509,0.3509 0 0 0 0.1382,-0.34 8.5376,8.5376 0 0 1 -1.2307,0.045 1.1843,1.1843 0 0 0 0.2688,-0.5195 c -0.038,0.1516 -0.594,-0.2908 -0.7223,-0.13 -0.3972,0.51 0.6625,0.042 -0.1674,0.6319 -0.1064,-0.023 -0.095,-0.078 0.034,-0.1626 -0.5022,-0.1747 -0.3934,-0.3764 -0.7112,-0.7773 -0.3582,-0.4534 -1.0047,-0.2041 -1.4789,-0.1785 a 1.868,1.868 0 0 1 0.8727,0.057 c -0.84,0.2494 -1.5167,-0.2689 -2.222,-0.6551 -0.3055,-0.1649 -0.3544,-0.6906 -0.5867,-0.6257 a 0.2557,0.2557 0 0 0 0.1431,-0.3214 c -0.1137,-0.039 -0.2518,0.074 -0.3545,0.1039 -0.6978,0.2052 -1.1512,-0.3142 -1.7391,-0.7566 0.094,-0.2848 0.037,-0.5316 -0.27,-0.6209 a 2.1749,2.1749 0 0 1 -1.2857,-0.73 0.4736,0.4736 0 0 0 0.2555,-0.3459 0.72,0.72 0 0 0 -0.4,0.1772 c -0.1308,-0.1442 -0.258,-0.2934 -0.3814,-0.4461 0.2652,-0.1454 0.1882,-0.6355 -0.181,-0.2115 -0.1172,-0.1515 -0.2554,-0.5755 -0.2334,-0.44 a 4.1884,4.1884 0 0 0 -1.4336,-1.6377 1.88,1.88 0 0 0 -0.9912,-0.2018 c -0.468,0.029 -0.56,-0.1392 -1.0083,-0.2883 0.528,0.594 -1.0144,1.3138 -1.1024,2.1974 -0.1356,1.3493 1.3347,2.8575 2.1866,3.7656 a 18.8537,18.8537 0 0 0 7.0715,4.478 21.612,21.612 0 0 0 6.1964,1.37 8.2989,8.2989 0 0 0 3.2755,-0.2823 c 1.2102,-0.4215 1.572,-1.3529 0.1005,-1.8417 z m -0.3239,-0.088 c -0.038,-0.01 -0.077,-0.016 -0.1149,-0.023 0.055,-0.1443 0.092,-0.1418 0.1149,0.023 z m -1.3139,-0.7884 c -0.06,0 -0.5244,-0.1734 -0.7442,-0.1942 0.2565,-0.084 0.7883,-0.2861 0.7442,0.1942 z m -0.86,-0.1539 z m -0.086,0.2688 c 0.065,-0.074 -0.062,0.2616 -0.1124,0.1736 z m 0.4083,0.2909 c -0.023,0.1186 -0.066,-0.021 0,0 0,0.015 -0.013,0 -4e-4,0 z"
       style="fill:#3d69d8"
       id="path612" />
    <path
       d="m 1552.8447,1057.9523 c -6.1929,-9.8813 -16.1317,-17.8549 -27.5224,-20.749 a 35.7911,35.7911 0 0 0 -8.498,-1.1231 33.5961,33.5961 0 0 0 -4.5575,0.2725 c -0.7015,0.092 -1.2736,-0.37 -2.0325,-0.3312 -0.6832,0.037 -1.3444,0.2334 -2.0263,0.2836 -0.2018,0.32 -2.6107,0.1478 -2.8918,0.15 -0.8958,0.01 -1.7905,-0.026 -2.6851,0.033 -0.1944,0 -0.8946,0.6453 -0.6343,0.8371 a 5.0833,5.0833 0 0 0 -1.7111,1.056 c -0.6087,0.4461 -1.3236,0.7089 -1.91,1.1891 -0.3972,0.3277 -3.71,1.9568 -3.086,0.4132 a 5.1112,5.1112 0 0 0 -2.1719,1.4935 c -0.6611,0.9643 -2.443,0.2884 -3.4734,0.65 -0.4338,0.1431 -2.3319,1.2748 -1.5509,1.8272 0.2591,0.1834 1.925,-1.0157 2.4676,-1.0743 a 20.15,20.15 0 0 0 -4.4672,3.0786 0.5646,0.5646 0 0 1 -0.8945,-0.046 c -0.2921,-0.3006 -0.78,0.1382 -0.9949,0.3166 -0.6234,0.523 -1.39,0.83 -1.3517,1.7624 -0.4963,-0.6931 -1.1513,0.24 -1.6268,0.633 -0.2933,0.2421 -0.6319,0.4254 -0.9362,0.6527 -0.7626,0.5708 -0.7248,0.7932 0.053,1.2528 -0.5218,0.4754 -0.4509,0.1577 -0.7455,-0.3288 a 9.016,9.016 0 0 1 -1.39,2.3454 q -0.3538,0.3519 -0.7,0.71 a 0.6764,0.6764 0 0 1 -0.4852,-0.71 24.3044,24.3044 0 0 0 -2.7988,3.196 c -0.726,1.1745 -1.0364,2.4591 -1.8651,3.5834 -0.7736,1.0511 -1.6157,1.9824 -2.4554,2.9785 a 11.7057,11.7057 0 0 0 -1.2259,1.6866 9.83,9.83 0 0 1 -0.5645,1.3346 c -0.2738,0.3349 -0.6417,0.3484 -0.8678,0.7871 -0.22,0.4229 -0.4058,0.869 -0.62,1.2968 a 15.5354,15.5354 0 0 0 -1.072,3.7985 11.61,11.61 0 0 1 -1.48,3.5517 c -0.3678,0.5916 -1.2331,1.7587 -0.325,2.1865 -0.4742,-0.1015 -1.09,1.6939 -1.2027,2.0509 -0.1467,0.479 0.78,3.8694 -0.16,3.6091 -0.1418,1.1072 -0.1895,2.2256 -0.2372,3.3427 a 2.3091,2.3091 0 0 0 0.2152,0.9764 c -0.012,0.4682 -0.2311,0.84 -0.2139,1.26 a 48.8792,48.8792 0 0 0 0.9276,8.3706 54.8975,54.8975 0 0 0 6.3188,16.5644 c -0.054,0.7 0.8946,1.6193 1.2441,2.1779 0.3252,0.4632 0.6943,0.8983 0.9815,1.3163 -0.1406,0.7223 1.8943,2.76 2.3648,3.37 a 37.9367,37.9367 0 0 0 3.5909,3.9916 c 1.012,0.9791 2.0887,1.8932 3.114,2.8539 1.133,0.9032 1.4484,2.3222 2.4347,3.3035 0.4143,0.4144 1.128,2.1144 1.7746,1.1489 0.1761,0.1015 3.5957,1.9213 3.4575,1.2222 -0.062,-0.3116 -1.8406,-1.1428 -2.1327,-1.4043 0.8422,0.5634 1.7038,1.0963 2.5789,1.6084 0.71,0.4155 1.04,1.1549 1.8112,1.5289 a 7.1067,7.1067 0 0 0 2.4151,0.6955 c 1.1635,0.5414 2.3491,1.03 3.5224,1.5436 a 40.3214,40.3214 0 0 0 9.9327,2.5764 50.0815,50.0815 0 0 0 20.5192,-0.96 45.6707,45.6707 0 0 0 30.7686,-27.2865 c 7.0228,-17.1163 4.8485,-37.2515 -4.9277,-52.854 z m 5.2847,37.1778 c 0.2738,-0.2847 0.528,-0.6868 0.9276,-0.8115 -0.2163,1.9041 -0.594,4.505 -1.66,6.2051 -0.35,0.5547 -0.4277,-0.15 -0.6062,0.7381 -0.084,0.4144 -0.1931,0.82 -0.3067,1.2271 -0.2983,1.0913 -0.594,1.2124 0.6319,1.5229 -0.1577,0.5475 0.012,0.8 -0.5891,0.5755 0.36,1.0426 -0.2262,2.1 -0.5745,3.0813 -1.11,-2.3625 -4.3828,-2.4676 -6.3762,-3.69 -3.11,-1.909 -0.7993,-6.0791 -2.0692,-8.9586 -0.8029,-1.8186 -2.6594,-2.3405 -3.9366,-3.7081 a 5.5484,5.5484 0 0 1 -1.337,-4.4524 2.125,2.125 0 0 0 1.8478,-3.1655 c -0.1148,-0.2616 -1.205,-1.4667 -1.4677,-0.9961 -0.2592,-0.044 -0.32,-0.2383 -0.5464,-0.3618 -0.1161,-0.063 -0.286,0.3166 -0.5818,0.3141 0.057,-0.1075 0.2054,-0.6538 0.3373,-0.6929 a 0.9823,0.9823 0 0 0 -0.4289,0.4559 c -0.1919,0.4167 -0.6624,0.23 -1.0743,0.2224 a 4.14,4.14 0 0 0 -1.8456,-0.027 c -1.7378,-0.027 -3.4343,-0.023 -5.149,0.089 0.1637,-0.077 -0.2334,-0.5524 -0.6747,0.053 -0.4729,0.038 -0.8458,0.1759 -1.2735,-0.06 0,0.028 0.087,-0.6453 -0.081,-0.6416 -0.015,0.1772 -0.031,0.3533 -0.051,0.5267 -0.028,-0.1185 -0.065,-0.1306 -0.1088,-0.033 q 0.055,-0.2439 0.1247,-0.4839 c -0.3,0.1588 -0.3044,0.875 -0.5867,0.9189 a 5.5191,5.5191 0 0 0 -1.4935,0.048 c 0.2444,-0.5365 -0.31,-0.089 -0.4559,0 -0.1711,0.1039 -0.3068,0.3716 -0.5084,0.28 -0.2762,-0.127 -0.4218,-0.1149 -0.4547,0.2616 -0.045,-0.2347 -0.1577,-0.9936 -0.5475,-0.9875 -0.5365,0.01 -0.4375,0.9031 -0.6014,0 -0.1418,0.2432 -0.3947,0.9349 -0.8029,0.8775 a 1.7258,1.7258 0 0 0 -0.043,-0.5548 c -0.027,-0.05 -0.1943,0.5084 -0.1993,0.5866 -0.7931,0.1222 -0.5792,0.5182 -0.4289,1.2161 -0.051,-0.18 -0.1577,-0.7273 -0.3361,-0.8225 -0.071,-0.038 0.14,0.8958 0.094,0.6929 -0.059,-0.1466 -0.1234,-0.2921 -0.1906,-0.4364 0.1662,0.4829 0.37,0.5452 0.087,0.9827 a 1.038,1.038 0 0 0 0.04,1.1684 c 0.7273,0.9925 3.1508,0.8605 4.2325,0.8471 -0.015,0.016 -0.62,0.5817 -0.2139,0.5719 -0.022,0.058 0.3312,1.5522 -0.2261,1.0413 -0.084,0.2982 0.2139,0.42 -0.044,0.5891 -0.1234,0.081 -0.75,0.5916 -0.1955,0.6086 0.083,0 0.1662,-0.3458 0.1883,-0.363 -0.1283,0.3129 -0.4412,1.28 -0.28,1.3665 -0.2615,-0.042 -0.45,0.6221 0.3409,0.5329 0.055,0.4949 -0.8994,-0.2836 -0.3409,0.3508 0.1124,0.1282 0.3605,0.5768 -0.1235,0.3457 0.1382,0.6075 0.62,0.8373 0.7712,1.3872 a 3.0333,3.0333 0 0 0 0.5524,1.1025 c 0.2359,0.2322 1.1489,1.0694 1.2614,0.9594 -0.2933,0.3568 0.5732,0.5268 0.462,0.3312 -0.039,-0.072 -0.3545,-0.4119 -0.4144,-0.3752 0.2811,-0.2481 0.8152,0.9093 0.8752,0.9557 0.1526,0.1162 1.0718,0.6576 1.0656,0.6343 a 0.9161,0.9161 0 0 0 0.32,0.55 0.5179,0.5179 0 0 0 0.14,-0.4291 c 0.4339,0.456 0.3776,0.76 0.57,1.3384 a 3.6113,3.6113 0 0 1 0.017,2.3771 c -0.053,0.2249 -0.12,0.968 -0.3752,1.0487 0.066,-0.022 -0.3593,0.2065 -0.3483,0.2383 0.01,0.032 0.1834,0.638 0.17,0.6563 a 0.4239,0.4239 0 0 1 0.082,-0.2041 c -0.1174,0.4167 -0.4779,0.3972 -0.4326,0.8824 0.026,0.2726 -0.055,0.3019 -0.1908,0.5158 -0.1367,0.2187 0.095,0.3251 0.2347,0.3911 a 2.4519,2.4519 0 0 0 -0.04,0.7223 c -0.2921,-0.1882 -0.3483,0.3666 -0.2249,0.3812 0.231,-0.3886 0.5586,0.9009 0.7835,1.2 a 0.43,0.43 0 0 1 -0.3068,0.1125 4.3437,4.3437 0 0 0 0.3617,0.4924 c 0.3765,-0.7027 0.6258,0.3973 0.8042,0.4988 0.1626,0.093 1.4092,0.3373 1.1184,0.7784 0.2041,0.037 1.1659,0.3484 1.0951,0.4534 a 8.5827,8.5827 0 0 1 0.9863,0.3423 0.5423,0.5423 0 0 0 -0.1113,0.1137 c 0.067,0.037 0.1113,0.01 0.13,-0.084 -0.1,0.4144 0.5085,-0.073 0.5085,0.3532 a 3.4894,3.4894 0 0 1 1.4567,0.7908 c 1.2968,1.2539 1.4447,3.17 1.4764,4.8717 a 11.0152,11.0152 0 0 0 1.2479,5.5853 c 0.048,-0.022 0.5158,1.4459 0.8018,1.5192 0.1344,0.034 1.02,0.7945 0.8763,0.4608 0.21,0.1723 0.704,0.3581 0.6929,0.693 0.014,-0.3581 0.5709,0.1259 0.7,0.1882 -0.9191,0.7492 -1.5547,1.7355 -2.4053,2.5507 a 24.5,24.5 0 0 1 -3.2229,2.1669 6.9124,6.9124 0 0 1 0.4449,0.5353 c -0.38,0.2628 -0.7065,0.671 -0.9827,0.4315 0.046,1.0535 -3.6151,1.5265 -4.3888,1.821 a 23.1949,23.1949 0 0 0 -2.3332,1.1476 c -0.3055,0.1564 -0.81,0.2641 -0.7577,0.715 0.063,0.5414 -0.049,0.4009 -0.5513,0.5916 -0.2077,-0.6209 -0.1026,-0.7235 -0.7467,-0.5622 -0.6136,0.1552 -0.5989,0.3312 -0.8763,0.8579 a 1.1741,1.1741 0 0 1 -1.4691,0.506 c -0.3373,-0.1173 -0.3886,-0.4632 -0.8091,-0.1918 a 7.2086,7.2086 0 0 1 0.6405,0.4864 7.7281,7.7281 0 0 1 -2.0729,0.512 c -0.1675,-0.6587 -0.72,-0.4106 -1.1489,-0.204 a 1.9164,1.9164 0 0 1 -0.484,0.2175 c -0.3446,0.05 -0.27,-0.3739 -0.53,-0.3324 q -0.5884,0.092 -1.1733,0.1833 0.3648,0.2256 0.7419,0.429 c -0.49,0.2175 0.3178,0.253 -0.5744,0.4033 a 1.4055,1.4055 0 0 0 -1.6634,0.048 c -1.0523,0.6428 -2.85,0.5194 -4.0748,0.5732 a 4.8245,4.8245 0 0 1 0.1174,-0.5378 c -1.0425,0.1345 -2,-0.3715 -3.0311,-0.3739 a 1.4516,1.4516 0 0 1 0.374,0.9484 45.7221,45.7221 0 0 1 -5.2028,-0.3582 0.3571,0.3571 0 0 0 -0.3007,-0.5109 c -0.6013,-0.12 -0.3312,0.6014 -0.9949,0.13 -0.594,-0.4228 -0.8238,-0.8079 -1.6169,-0.9862 -0.385,-0.089 -1.3994,-0.4865 -1.6377,-0.099 -0.5329,0.875 -2.2525,-0.034 -2.7792,-0.45 -0.18,0.64 -0.6637,0.3434 -0.5049,-0.3386 a 14.23,14.23 0 0 0 -2.0825,-0.61 c -0.3826,-0.1382 -0.8384,-0.8043 -1.3017,-0.6283 a 1.1534,1.1534 0 0 0 -0.4388,0.4755 c -0.4143,-0.1662 -0.8347,-0.3227 -1.2465,-0.4986 -0.49,-0.2531 -1.0109,-0.4547 -1.5131,-0.687 -0.7614,-0.3532 -0.8409,-0.9948 -1.46,-1.4519 a 10.2,10.2 0 0 0 -1.6378,-0.7321 c -0.2187,-0.095 -1.9054,0.231 -0.9961,-0.4681 -0.7957,-0.4106 -1.6169,-0.7786 -2.3967,-1.221 a 6.7573,6.7573 0 0 1 -2.02,-1.5192 c -1.2246,-1.2209 -2.6827,-1.74 -3.895,-2.817 0.1246,-0.098 0.34,-0.1443 0.1992,-0.3191 0,0 0.3042,-0.3165 0.3263,-0.3361 0.2456,0.3948 0.3911,-0.803 0.4241,-0.814 -0.084,0.029 -0.1418,0.12 -0.2,0.1833 l 0.5293,-0.9153 c 0.4473,0.5891 0.1625,0.089 0.605,-0.3031 0.3006,-0.2518 -0.1761,-0.2531 -0.083,-0.4266 0.048,-0.093 0.3287,0.2335 0.34,0.2457 0.4792,-0.2115 0.097,-1.4238 0.5342,-1.3481 0.3777,0.057 0.3826,-0.3911 0.3508,-0.6245 0.06,0.042 0.1149,0.084 0.1723,0.1259 0.1808,-0.3777 0.5976,-1.0414 0.3788,-1.3054 0.1149,0.1393 0.3288,-0.2713 0.3032,-0.4008 0.078,-0.2408 -0.3729,-0.069 -0.4193,-0.3214 a 1.5679,1.5679 0 0 0 0.6613,-0.5293 c -0.2189,-0.032 -0.32,-0.1736 -0.4693,-0.2285 0.721,0.1967 0.33,-0.2628 0.61,-0.6124 a 1.7077,1.7077 0 0 0 -0.5133,0.1088 0.528,0.528 0 0 1 0.04,-0.2688 c 0.143,0.076 0.35,0.027 0.4913,0.1038 0.033,-0.21 0.06,-0.42 0.077,-0.6331 a 0.3627,0.3627 0 0 1 -0.4412,-0.1 0.9879,0.9879 0 0 1 0.4473,0.01 4.3072,4.3072 0 0 0 -0.011,-0.616 c -0.2676,0.1236 -0.4766,0.1944 -0.5011,-0.1575 0.08,0.16 0.2444,0.1821 0.4962,0.065 -0.01,-0.3617 0.02,-0.7785 -0.4277,-0.594 a 0.3441,0.3441 0 0 0 -0.1137,-0.6 c -0.4657,-0.096 0.6368,-0.6258 0.023,-0.7822 a 0.5782,0.5782 0 0 1 -0.231,0.2126 c -0.068,-0.3445 0.087,-0.9422 0.011,-1.1793 a 2.4082,2.4082 0 0 1 -0.1052,-0.3264 c -0.3531,0.1039 -0.2566,-0.9973 -0.2579,-1.2943 -0.01,-1.2613 0.3521,-4.1029 1.75,-4.4585 -0.043,-0.024 -0.086,-0.046 -0.1284,-0.07 a 4.76,4.76 0 0 1 0.4546,-0.385 c 0.357,-0.26 0.3129,0.1026 0.7529,-0.1125 -0.5206,-0.34 0.6294,-0.5365 0.6649,-0.6221 0.75,0.3594 0.4192,-0.4448 0.9729,-0.3691 a 0.1634,0.1634 0 0 0 -0.2518,-0.1039 c 0.083,-0.059 1.1513,0.1051 0.7443,-0.4816 0.7382,-0.078 1.2612,-1.5619 0.9178,-1.6621 0.825,-0.4863 -0.2114,-0.8433 -0.2359,-1.2808 a 1.336,1.336 0 0 0 0.4608,0.1112 c -0.064,-0.4118 -1.2233,-0.9655 -0.2518,-1.2283 -0.022,0.046 -0.044,0.097 -0.066,0.1454 0.5622,-0.092 -1.2846,-0.6637 0.01,-0.4473 -0.5928,-0.259 -0.7345,-0.8176 -0.84,-1.5521 a 14.3308,14.3308 0 0 1 -0.3423,-1.7906 c -0.2419,-0.035 0.3655,-0.7052 0.3129,-0.6624 0.033,-0.029 -0.1259,-0.3263 0.2285,-0.4278 0.1895,-0.055 0.3618,-0.3483 0.44,-0.5035 0.071,0.1161 0.8153,-0.5377 0.6222,-0.9239 0.2578,0.1613 0.3593,-0.1382 0.35,-0.34 a 5.4164,5.4164 0 0 0 1.5094,-0.8494 c -0.048,-0.034 -0.308,-0.092 -0.165,-0.23 0.1431,-0.073 0.2152,-0.015 0.2213,0.1747 a 8.6361,8.6361 0 0 0 1.0131,-1.14 1.9479,1.9479 0 0 1 -0.8017,-0.3459 c 0.081,-0.1344 0.7565,0.2567 0.8347,0.308 a 2.6551,2.6551 0 0 0 0.4119,-1.4665 c -0.2531,0.032 -0.5085,0.054 -0.7627,0.061 -0.021,-0.3032 0.594,-0.17 0.7627,-0.1223 0.026,-0.3617 0.1014,-1.0962 -0.3924,-0.9643 a 0.2063,0.2063 0 0 1 0.2812,-0.089 c -0.017,-0.082 -0.036,-0.1625 -0.051,-0.2445 a 1.74,1.74 0 0 0 -0.4924,0.17 c -0.01,-0.4816 0.5785,0.1136 0.4038,-0.5073 -0.08,0.04 -0.1594,0.087 -0.2389,0.1272 -0.187,-0.083 0.2035,-0.1284 0.2389,-0.1272 -0.099,-0.34 -0.1851,-0.6857 -0.2573,-1.0315 a 38.7731,38.7731 0 0 0 5.4437,-0.3508 c 1.804,-0.281 0.8872,-2.2708 1.77,-2.8134 -1.0731,0.059 -0.088,-1.3922 -1.348,-1.58 -0.4572,-0.068 -0.2164,0.253 -0.6808,-0.16 -0.084,-0.074 -0.3386,-0.3226 -0.4742,-0.1674 -0.374,0.4339 0.4546,0.6355 -0.5488,0.39 0.1307,-0.1431 0.3251,-0.7493 0.517,-0.797 a 1.1235,1.1235 0 0 0 -0.5561,0.4816 c -0.2872,0.4877 -1.3017,0.051 -1.8492,0.01 0.087,-0.121 0.077,-0.5439 -0.067,-0.6257 -0.2029,-0.1185 -0.1919,0.4852 -0.044,0.6147 a 44.1941,44.1941 0 0 0 -7.6814,0.6124 c 0.3288,-0.1125 -0.2164,-0.5732 -0.715,0.075 a 2.7028,2.7028 0 0 1 -1.4569,-0.021 c 0,0.015 0.089,-0.649 -0.098,-0.6368 -0.013,0.176 -0.032,0.3532 -0.053,0.5279 -0.034,-0.1172 -0.077,-0.1283 -0.1259,-0.029 q 0.061,-0.2474 0.1382,-0.4888 a 1.4914,1.4914 0 0 0 -0.379,0.523 c -0.4583,0.8629 -0.026,0.104 -0.4375,0.2446 -0.4607,0.1551 -1.1488,0.082 -1.5656,0.2614 0.32,-0.5743 -0.67,0.053 -0.7921,0.132 -0.2834,0.1859 -0.1795,0.1223 -0.523,0.028 -0.5829,-0.159 0.3019,0.3178 -0.3312,0.3178 -0.043,-0.2836 -0.1491,-1.0792 -0.6184,-0.9889 -0.5048,0.099 -0.5011,0.7554 -0.583,-0.051 -0.2017,0.26 -0.5426,0.885 -0.9827,0.786 a 1.5149,1.5149 0 0 0 0.031,-0.555 c -0.029,-0.071 -0.286,0.4914 -0.3006,0.5622 -0.8471,0.031 -0.7333,0.3887 -0.6845,1.1623 -0.028,-0.1747 -0.065,-0.75 -0.231,-0.8518 -0.077,-0.049 -0.01,0.8959 -0.021,0.6991 -0.042,-0.1528 -0.087,-0.3068 -0.1368,-0.4584 0.5658,0.5952 0.01,1.3861 0.1576,1.9739 0.2555,1.001 2.4591,1.4141 3.2816,1.5387 -0.5866,2.5788 -3.9526,2.6118 -4.9743,4.846 -1.0144,2.2292 1.0584,4.7262 -0.01,6.9127 -1.2038,2.4664 -5.7772,1.8076 -6.02,5.1307 -0.1956,2.6693 2.1094,5.9117 0.7772,8.4662 a 32.0312,32.0312 0 0 1 -4.2752,-9.1005 c -0.8115,-3.4355 -2.3612,-7.0618 -2.8416,-10.3531 -0.099,-0.6747 -0.4583,-1.7539 0,-2.2232 0.2433,-0.2506 0.192,-1.001 0.1259,-1.3126 -0.1259,-0.5953 -0.9044,-0.2237 -0.2408,-1.078 0.7811,-1.0058 -0.3178,-1.0181 -0.3091,-1.7869 0.01,-0.6905 -0.1529,-1.854 0.31,-2.3148 a 3.45,3.45 0 0 0 0.5109,-1.92 20.0778,20.0778 0 0 0 0.2628,-3.3256 1.6267,1.6267 0 0 0 0.4265,0.1956 c 0.1137,-0.6 -0.3251,-0.6 -0.2334,-1.0512 0.061,-0.2847 0.1357,-0.3165 0.4314,-0.3458 a 3.2446,3.2446 0 0 0 0.073,-0.7711 19.6019,19.6019 0 0 1 1.2661,-5.4767 48.73,48.73 0 0 1 7.2293,-12.1143 c -0.594,-0.054 0.044,-0.4522 0.2554,-0.7212 0.1639,0.6955 0.7956,-0.5181 1.0926,-0.8591 0.5708,-0.66 1.1587,-1.309 1.7808,-1.9189 a 49.2926,49.2926 0 0 1 3.9233,-3.4465 4.9131,4.9131 0 0 1 -0.8642,-0.2982 c 0.2029,-0.1834 0.4057,-0.3619 0.61,-0.54 a 3.39,3.39 0 0 1 0.4877,0.6527 c 2.4369,-1.7552 4.7212,-3.7168 7.2378,-5.3618 -0.2334,-0.1651 -0.4694,-0.3275 -0.7028,-0.4913 0.2139,-0.1308 0.43,-0.258 0.649,-0.3838 q 0.1741,0.3356 0.3508,0.6734 a 38.2732,38.2732 0 0 1 5.2981,-3.1532 c -0.053,-0.098 -0.1051,-0.1955 -0.1577,-0.2958 0.1919,-0.087 0.385,-0.1736 0.5794,-0.259 a 0.2992,0.2992 0 0 1 -0.1308,0.4155 c 0.3422,-0.1711 1.5595,-0.5427 1.2466,-0.863 0.1906,-0.074 0.6245,-0.435 0.55,-0.029 a 39.2034,39.2034 0 0 1 6.7061,-2.2917 4.756,4.756 0 0 1 2.492,-0.1393 12.0557,12.0557 0 0 0 2.8648,0.1161 c 1.7477,0.055 3.4991,0.031 5.2468,0.1039 0.8018,0.033 3.168,0.5989 3.3232,-0.2652 0.2408,-0.017 0.2273,0.2419 0.76,0.1662 a 7.2884,7.2884 0 0 1 2.0422,0.05 3.7434,3.7434 0 0 0 -0.2872,0.4852 q 0.4711,0.042 0.935,0.1308 a 0.7641,0.7641 0 0 1 0.031,-0.4865 11.275,11.275 0 0 0 4.3547,0.62 4.3727,4.3727 0 0 1 2.2306,0.2395 q 1.2979,0.4032 2.5653,0.9007 a 5.0414,5.0414 0 0 1 -0.8054,0.275 14.8774,14.8774 0 0 1 3.6384,1.4361 10.9518,10.9518 0 0 1 1.63,1.2674 c 0.6428,-0.2946 0.803,-0.4046 1.3994,-0.04 -0.1478,0.3178 -0.5707,0.4314 -0.8421,0.5989 a 6.8453,6.8453 0 0 0 1.8223,1.3724 10.616,10.616 0 0 0 1.5228,0.6013 c 1.2712,0.5843 2.3381,1.5106 3.6312,2.0582 0.7589,0.6869 0.5023,0.7505 0.4986,1.6695 0,0.6442 0.6,0.7052 1.0681,0.83 0.057,0.017 0,0.6453 0.2152,0.8922 0.2787,0.3239 0.5549,0.6465 0.8335,0.9668 0.3472,-0.59 0.6821,-0.08 1.05,0.138 -0.2322,0.088 -0.4644,0.1772 -0.6991,0.2641 a 53.477,53.477 0 0 1 4.99,6.8785 c 0.3923,-0.3643 0.6942,-0.2592 0.4216,0.2455 -0.26,0.4829 0.5268,1.3616 0.792,1.8554 a 10.407,10.407 0 0 0 0.4693,0.9654 c 0.3949,0.5745 0.8886,-0.5327 1.0535,-0.6794 0.236,0.4521 0.4621,0.9081 0.6857,1.3651 a 0.8717,0.8717 0 0 0 -0.089,0.9313 c 0.3129,0.9411 0.1552,1.969 0.5206,2.9 0.13,-1.1562 1.6867,-0.6025 1.0084,0.5683 -0.4375,0.7529 -0.4962,1.2051 0.1955,1.7978 a 3.0416,3.0416 0 0 1 0.649,2.5043 5.8466,5.8466 0 0 0 0.8458,-0.8763 c 0.1075,0.3533 0.2139,0.7077 0.3152,1.0621 q -0.5481,0.088 -1.095,0.1735 c 0.3911,1.2 0.5878,2.4505 0.8653,3.6788 a 5.1052,5.1052 0 0 1 1.133,-0.3092 c 0.1331,0.627 -0.286,1.1758 -1.0046,0.8347 0.2211,1.1574 0.3593,2.3307 0.5511,3.493 0.2286,-0.1784 0.5035,-0.5768 0.8361,-0.545 0.5011,0.056 0.3775,0.9887 0.42,1.4128 a 3.2936,3.2936 0 0 1 -1.183,-0.3471 34.1856,34.1856 0 0 0 0.4522,4.1481 3.0461,3.0461 0 0 0 0.9545,-0.259 c -0.2188,0.281 -0.1137,0.633 -0.2847,0.9227 -0.1761,0.2994 -0.5,0.2053 -0.4645,0.6355 a 4.56,4.56 0 0 0 0.6735,2.4248 c 0.127,0.1357 0.016,0.814 0,1.001 -0.05,0.8458 -0.1944,0.2591 -0.6979,0.6648 a 3.7578,3.7578 0 0 0 -0.4927,3.1196 z m -5.9386,20.2052 a 11.291,11.291 0 0 1 1.2576,-1.6622 c -0.3349,0.6796 -0.5231,1.4129 -1.2576,1.6622 z m 2.1926,-3.6617 c -0.2395,-0.2566 -0.5354,-0.4571 -0.7908,-0.699 -0.4327,0.9789 -0.9863,1.9 -1.4141,2.877 -0.4143,0.9459 -0.5487,1.953 -1.0485,2.8708 -0.2836,0.5207 -1.5559,1.8811 -1.1917,2.3015 0.4252,0.49 -1.1415,2.0606 -1.5424,2.5519 a 6.0378,6.0378 0 0 0 0.37,-1.5376 17.4485,17.4485 0 0 0 -1.1917,1.6378 c -0.1869,0.28 -0.3824,0.5573 -0.5865,0.8262 a 8.7721,8.7721 0 0 1 -1.1464,-0.7309 5.7452,5.7452 0 0 1 -1.9324,-2.558 c -0.7565,-2.0252 -0.4925,-4.2948 -0.7638,-6.4067 a 4.5984,4.5984 0 0 0 -2.5422,-3.94 c -1.4775,-0.8617 -3.196,-1.4472 -4.4781,-2.6118 -1.5192,-1.3823 -0.8188,-2.7854 -0.2126,-4.4452 a 5.8471,5.8471 0 0 0 0.3373,-3.8974 c -0.5463,-1.5608 -2.1694,-2.67 -3.3879,-3.6886 a 4.7254,4.7254 0 0 1 -2.0521,-2.8319 8.17,8.17 0 0 1 0.1956,-3.6286 c 0.2322,-0.8507 0.4253,-0.7468 1.28,-0.7981 0.9178,-0.056 1.8395,-0.087 2.76,-0.1125 1.87,-0.046 3.7412,-0.043 5.61,-0.01 a 4.8784,4.8784 0 0 0 -0.3532,2.0668 c 0,0.27 -0.4045,0.4363 -0.1087,0.8481 a 2.25,2.25 0 0 1 0.1442,1.0976 c -0.1381,0.1319 0.5316,1.24 0.6562,1.1623 -0.1416,0.1113 0.1089,0.4045 0.2665,0.3519 0.043,-0.013 -0.1393,-0.407 -0.2249,-0.3752 -0.2419,0.1346 1.4251,1.1661 1.413,1.1415 0.079,0.1505 0.1368,0.1492 0.3263,0.3277 a 0.3562,0.3562 0 0 0 0.01,-0.3129 6.2132,6.2132 0 0 1 1.1489,1.0082 c -0.051,-0.035 0.53,0.2128 0.4876,0.3655 0.7822,0.5842 0.8544,0.7345 0.924,1.5412 -0.01,-0.1015 0.4511,0.2444 0.4254,0.1686 a 2.6468,2.6468 0 0 1 -0.1125,-0.3324 c 0.2237,0.4021 0.9863,3.13 0.6625,3.17 -0.023,0.6343 -0.2958,1.419 -0.2469,1.8224 0.3263,0.062 -0.2017,0.3971 -0.1968,0.4693 0.01,0.094 0.2236,0.2517 0.2274,0.3422 -0.2726,0 -0.2628,0 -0.29,0.1967 0.2323,-0.056 0.34,0 0.3252,0.1651 -0.3226,0.1711 -0.1442,0.072 -0.3508,0.021 -0.016,0.11 -0.056,0.2847 0.2567,0.3837 -0.2688,0 -0.3581,0.1161 -0.264,0.3446 0.5976,-0.259 0.8249,0.9154 1.1293,1.298 a 5.7364,5.7364 0 0 0 2.31,1.568 c 1.7685,0.7554 3.9367,1.2625 4.9707,3.0531 -0.4119,-0.4522 -0.1749,0.029 -0.1785,0.1014 -0.017,-0.013 -0.5658,-0.5756 -0.5658,-0.5756 0.4827,-0.2506 0.066,-0.1051 -0.1785,-0.4718 -0.1833,-0.2725 -0.1736,0.13 -0.319,0.036 0.084,0.054 0.1736,-0.3044 -0.1124,-0.4682 -0.054,0.099 -0.7,-0.1356 -0.6881,-0.078 -0.07,-0.3593 -0.077,-0.4106 -0.4412,-0.3606 0.029,-0.04 0.059,-0.082 0.088,-0.1234 0.043,0.02 -1.12,-0.5414 -0.9448,-0.2628 -0.1906,-0.303 -0.2811,-0.27 -0.3984,0.055 -0.2848,-0.024 -0.081,-0.35 -0.4437,-0.4632 -0.035,0.1442 -0.1369,0.2224 -0.1846,0.325 0.159,-0.4583 -0.1661,-0.2419 -0.369,-0.4753 -0.047,1.018 0.35,-0.039 0.6539,0.6281 0.1833,0.4009 0.9777,0.4938 1.1647,0.062 a 3.0952,3.0952 0 0 0 -0.2127,0.3972 c 0.2591,0.1662 0.467,0.1528 0.6135,-0.099 -0.2114,0.4375 0.3374,0.5952 0.7114,0.5952 0.1112,0 1.32,1.568 1.3847,1.529 a 0.2989,0.2989 0 0 0 0.01,-0.1931 0.493,0.493 0 0 1 0.073,0.7784 0.5571,0.5571 0 0 0 0.2421,-0.063 c -0.01,0.035 -0.061,1.2282 -0.1626,1.183 a 0.6126,0.6126 0 0 0 0.2444,-0.2823 2.3071,2.3071 0 0 0 -0.2444,0.4693 c 0.1174,0.2921 0.638,-1.1122 0.65,-1.3212 0.067,0.2334 0.132,0.5036 0.4021,0.5719 -0.1971,0.4831 -0.3889,0.967 -0.5967,1.4449 z m -21.24,-14.4341 c -0.1136,-0.019 -0.2261,-0.04 -0.34,-0.057 0.051,-0.05 0.1027,-0.099 0.1528,-0.1478 0.062,0.068 0.1232,0.1357 0.1868,0.2057 z m -0.5732,-0.3947 0.09,-0.2211 c 0.2998,0.2554 0.1161,0.2713 -0.09,0.2211 z m -6.9213,-13.3646 c 0.015,-0.093 0.1137,-0.6991 0.1137,-0.017 z m 1.1685,0.033 a 1.211,1.211 0 0 1 0.09,-0.275 c -0.022,0.028 0.098,0.6454 -0.028,0.6991 -0.021,-0.1406 -0.042,-0.2823 -0.062,-0.4241 z m 0.3226,0.187 q 0.077,-0.3831 0.078,0.1149 c -0.077,0.046 -0.1043,0.01 -0.078,-0.1151 z m 0.165,-0.3777 c 0.053,-0.042 0.1051,-0.083 0.1589,-0.1246 -0.1271,0.1271 0.2554,0.4485 -0.016,0.539 -0.03,-0.1308 0.058,-0.429 -0.1434,-0.4144 z m 1.7831,4.2838 c -0.25,-0.015 -0.21,-0.11 0.121,-0.2836 -0.041,0.097 -0.081,0.1883 -0.1214,0.2836 z m -0.3959,1.9518 c -0.121,-0.076 0.011,-0.067 0,0 z m -0.081,0.6478 c 0.012,-0.1858 0.017,0 0,0 z m 1.4141,3.9807 c 0.1527,0.094 0.15,0.149 -0.01,0.1674 -0.098,-0.04 -0.094,-0.095 0.01,-0.1674 z m 0.396,0.4436 c 0.029,0.029 -0.028,0.066 0,0 z m 3.3586,3.4454 c 0.13,0.1454 0.1357,0.2615 0.013,0.3508 -0.1617,-0.1442 -0.1666,-0.2616 -0.014,-0.3508 z m 9.5709,-4.5514 c 0.1454,0.035 0.1846,0.1148 0.1174,0.2346 q -0.2425,-0.068 -0.1178,-0.2346 z m -0.7785,-0.517 c 0.051,0.038 0.1063,0.077 0.1576,0.1136 -0.3047,0.072 -0.1312,-0.019 -0.158,-0.1136 z m -0.2641,-0.1773 c 0.1614,0.042 0.1736,0.094 0.042,0.1541 -0.08,-0.033 -0.095,-0.084 -0.042,-0.154 z m 12.1535,16.6059 c -0.027,-0.068 -0.054,-0.1381 -0.079,-0.209 0.2016,0 0.3336,0.3715 0.088,0.3838 a 0.7283,0.7283 0 0 0 -0.01,-0.1748 z m -0.1014,-0.3043 c -0.017,-0.064 -0.032,-0.1272 -0.048,-0.1919 0.1231,0.1137 0.1389,0.1772 0.047,0.1919 z m -74.5461,-24.7824 c 0.1907,0.1039 0.3117,0.01 0.021,0.2274 -0.01,-0.076 -0.014,-0.1515 -0.021,-0.2274 z m 0.5732,-1.3113 c 0.032,-0.088 0.2237,-0.682 0.1283,0 z m 1.298,0.16 a 1.0043,1.0043 0 0 1 0.127,-0.2627 c -0.011,0.01 0.037,0.6391 -0.1,0.6782 -0.01,-0.1392 -0.019,-0.2773 -0.027,-0.4154 z m 0.347,0.2115 c 0.037,-0.5257 -0.032,0.3177 0,0 z m 0.22,-0.3729 c 0.061,-0.039 0.1259,-0.079 0.1895,-0.1172 -0.1639,0.1221 0.2211,0.3873 -0.077,0.4766 -0.018,-0.1613 0.1061,-0.3665 -0.1126,-0.3593 z m 12.2169,5.6857 a 0.7281,0.7281 0 0 1 0.2115,0.043 c -0.1345,0 -0.1467,0.1088 -0.242,0.1564 a 0.1858,0.1858 0 0 1 0.03,-0.1991 z m -0.6648,2.2953 c -0.037,-0.1138 -0.3582,0.286 -0.049,-0.2115 0.016,0.071 0.031,0.1419 0.049,0.2116 z m -2.5227,10.4154 c -0.1039,-0.012 -0.083,-0.053 0,0 z m -1.1341,2.3038 c 0,0.04 -0.022,0.057 -0.056,0.049 a 0.4235,0.4235 0 0 0 0.056,-0.049 z m -6.5632,-15.58 c 0.209,0.1784 -0.012,0.1307 -0.1784,0.1 0.022,-0.077 0.082,-0.1114 0.1781,-0.1003 z m -3.5834,8.03 c 0.087,-0.033 0.044,0.1223 0,0 0.014,-0.01 0.01,0.018 -3e-4,-6e-4 z m -3.5419,5.9875 c 0.5768,-0.012 0.9887,-0.5083 1.55,-0.5267 -0.031,-0.023 -0.061,-0.047 -0.09,-0.07 0.3887,-0.1651 0.75,-0.1895 1.0828,-0.3582 -0.5476,-0.2786 0.5854,-0.5158 0.5121,-0.4656 a 1.84,1.84 0 0 0 0.4327,-0.2664 c 0.1674,-0.1772 -0.2188,-0.3031 0.2115,-0.478 -0.053,-0.057 -0.1015,-0.065 -0.1455,-0.028 a 2.0865,2.0865 0 0 0 0.5769,-1.4312 c -0.022,-0.2286 -0.1308,-1.6745 -0.3716,-1.7221 -0.231,-0.71 -0.2934,-0.8128 -0.49,-1.4752 a 4.1142,4.1142 0 0 1 -0.1222,-2.3844 c 0.024,-0.082 0.3605,-0.9925 0.5476,-0.7773 0.029,-0.029 0.4583,-0.5586 0.4252,-0.7273 a 10.39,10.39 0 0 1 1.4214,-0.9753 c -0.033,-0.03 -0.2273,-0.1039 -0.105,-0.1943 0.1173,-0.042 0.1674,0.014 0.1516,0.16 q 0.4543,-0.3393 0.92,-0.6637 c -0.12,-0.06 -0.4668,-0.209 -0.33,-0.3691 0.5793,0.4558 0.737,0.1149 1.1037,-0.5047 -0.187,-0.078 -0.3716,-0.16 -0.5524,-0.25 0.138,-0.2309 0.44,0.1247 0.5755,0.21 0.1957,-0.3508 0.456,-0.5976 0.1088,-0.8128 0.22,-0.093 0.2286,0.2249 0.2861,-0.1479 -0.4633,-0.055 -0.5831,-0.027 -0.4975,-0.4424 0.1185,0.2506 0.45,0.7029 0.542,0.1553 -0.071,0 -0.1424,0.011 -0.212,0.015 -0.1038,-0.1149 0.1839,-0.027 0.212,-0.015 0.1222,-0.6868 1.1447,-0.3973 1.7851,-0.4376 0.7406,-0.044 1.4775,-0.1173 2.2146,-0.1919 1.5179,-0.1552 3.0334,-0.2188 4.5575,-0.2395 0.092,2.3648 -1.6047,4.1774 -3.0688,5.8273 -0.6455,0.726 -1.6159,1.5535 -1.65,2.6033 a 11.7606,11.7606 0 0 0 0.836,3.5029 c 1.2283,4.5427 -4.1407,4.5061 -5.54,7.8843 -0.9471,2.2854 0.1162,4.3863 0.4889,6.6633 a 9.2773,9.2773 0 0 1 -1.6927,7.1816 c -0.5647,0.7492 -1.3726,2.3515 -2.2489,1.47 q -1.4849,-1.4979 -2.8513,-3.108 c 0.5757,-0.4523 -1.7917,-2.2416 -1.9347,-2.431 0.88,0.1809 0.143,-0.5047 -0.2054,-0.7675 a 0.5725,0.5725 0 0 0 -0.3055,0.088 c -0.2567,-0.3544 -0.506,-0.7149 -0.754,-1.0766 0.1123,-0.061 0.36,-0.1247 0.2541,-0.2787 0.02,-0.021 0.2591,-0.2457 0.3019,-0.286 0.1259,0.2211 0.4632,-0.4706 0.3837,-0.7163 -0.044,-0.1393 -0.2749,0.2445 -0.21,0.1626 a 6.37,6.37 0 0 0 0.2444,-0.86 c 0.495,0.3154 0.1723,0 0.3386,-0.4486 0.14,-0.3031 -0.2237,-0.1271 -0.198,-0.2847 0.7222,-0.2726 0.055,-0.4156 -0.025,-1.0792 0.3142,-0.2395 0.2262,-0.3887 0,-0.6172 0.055,0 0.1124,0 0.1686,-0.01 0.011,0.054 -0.2958,-1.3408 -0.4168,-1 0.024,-0.07 0.094,-0.6636 -0.21,-0.3752 -0.05,-0.1943 0.04,-0.4718 -0.023,-0.6355 -0.015,0 -0.077,0.088 -0.1124,0.099 -0.5399,-2.3225 -0.5997,-4.9159 2.1257,-6.0979 z m 8.884,16.5326 c 0.1125,0.067 0.2226,0.1344 0.3324,0.2 -0.3189,-0.1014 -0.2247,-0.1014 -0.4326,-0.2322 0.031,-0.1469 0.064,-0.1359 0.1,0.032 z m -2.5763,4.1652 c 0,0 -0.1173,0.1882 -0.1467,0.1613 0.047,-0.054 0.098,-0.1081 0.1464,-0.1619 z m 2.2317,-3.6115 c 0.084,0.067 0.1687,0.1344 0.2505,0.2028 -0.1322,0 -0.3119,-0.056 -0.2508,-0.2032 z m -8.1642,-0.7126 q -0.5775,-0.3026 -0.1675,-0.5109 c 0.055,0.1693 0.111,0.3417 0.1672,0.5103 z m -2.9638,-4.5832 c -0.11,0.017 -0.021,-0.011 0,0 z m 0.51,-0.6282 a 0.7966,0.7966 0 0 1 -0.104,0.3214 0.0837,0.0837 0 0 0 -0.1332,0 c 0.079,-0.107 0.1571,-0.2132 0.2363,-0.3184 z m 0.4424,-3.1264 c -0.01,-0.015 0.085,-0.062 0,0 z m -0.1161,-0.4778 c -0.015,-0.054 0.22,-0.2188 0,0 z m -1.0169,4.3718 c 0.01,0.038 -0.143,0.1283 0,0 z m 25.2651,-72.2741 c 0.1246,0.1968 0.01,0 0.1185,-0.04 -0.056,0.2081 -0.085,0.027 -0.1191,0.039 z m 47.8828,12.3172 c -0.094,0.022 -0.1871,0.043 -0.281,0.065 q 0.1056,-0.4369 0.2804,-0.065 z m 2.7842,3.6006 c -0.2677,0.092 -0.5354,0.1821 -0.803,0.2737 q 0.2,-0.4271 0.385,-0.8653 c 0.1412,0.1974 0.2792,0.3939 0.4174,0.591 z m -44.2774,-20.5291 a 12.4772,12.4772 0 0 0 -2.035,0.3789 0.3552,0.3552 0 0 0 -0.2249,-0.429 c 0.7523,-0.038 1.5064,0.058 2.2593,0.05 z m -14.5661,5.6343 c 0.1834,-0.013 0.3667,-0.027 0.5512,-0.04 -0.5774,0.3058 -0.1558,0.079 -0.5518,0.039 z"
       style="fill:#3d69d8"
       id="path614" />
    <path
       d="m 1524.1024,1109.2745 c 0.01,-0.198 -0.077,-1.19 -0.5328,-0.7468 a 11.528,11.528 0 0 0 -1.0914,-1.9139 0.3467,0.3467 0 0 0 0.2016,0.1062 c -0.011,-0.14 -0.6391,-0.7124 -0.7491,-0.8505 0.4,-0.4388 -0.3924,-0.9386 -0.7163,-1.0621 -0.49,-0.187 -1.7745,-2.5214 -2.1363,-2.0081 0.079,-0.1111 0.6221,0.8226 0.6221,0.8226 a 18.1766,18.1766 0 0 1 -1.7185,-1.122 c 0.8116,-0.5524 -0.89,-0.985 -0.9765,-1.0365 a 1.27,1.27 0 0 0 -0.9093,-0.2945 c -0.3264,0.053 -1.2222,0.8043 -1.0486,0.056 0.016,0.01 -1.2051,-0.3605 -1.1953,-0.3287 0.1443,-0.027 0.1992,-0.1173 0.1625,-0.2714 a 3.3868,3.3868 0 0 1 -1.6634,0.031 1.4276,1.4276 0 0 1 0.8544,-0.2566 3.0219,3.0219 0 0 0 -0.6209,-0.143 c -0.48,0.018 -0.4327,-0.2029 -0.9228,-0.247 -0.5756,-0.055 -1.0474,0.6442 -1.3688,0.9032 0.2188,-0.2126 -0.67,-0.3421 -0.8324,-0.2 -0.5389,0.4632 -1.3418,-0.27 -2.0642,0.095 a 8.2,8.2 0 0 0 1.0963,-0.4289 c -0.1356,-0.6405 -1.4788,0.3812 -1.6769,0.56 a 6.3911,6.3911 0 0 1 -2.5567,1.0414 c -0.017,-0.15 -0.07,-0.5464 -0.3324,-0.4046 0.1893,0.4485 -0.2,0.4167 -0.2628,0.6734 a 2.5979,2.5979 0 0 1 0.1795,-0.6147 2.4663,2.4663 0 0 0 -0.7161,1.8052 c -0.3215,-0.5109 -0.5988,0.4814 -0.6611,0.6794 -0.2408,0.7725 -1.0463,1.1966 -1.29,1.9862 0.033,-0.1382 0,-0.2189 -0.1064,-0.2433 -0.5389,0.4082 -0.3947,1.9873 -0.6758,2.569 -0.1674,0.3459 -0.061,0.55 -0.1223,0.8959 a 0.8748,0.8748 0 0 0 -0.743,0.7015 2.0832,2.0832 0 0 0 0.022,0.9155 c 0.1332,0.5989 0.53,0.7112 0,0.95 a 10.243,10.243 0 0 0 1.9689,2.085 c -0.5891,0.24 -0.2652,0.457 0.1625,0.4522 0.6491,-0.01 1.2136,0.3251 1.8809,0.2725 a 13.1067,13.1067 0 0 0 3.905,0.721 c 2.5593,0.137 5.1087,-0.062 7.6705,0.1064 2.0386,0.1332 4.4047,0.2359 6.2856,-0.6966 1.001,-0.4975 1.1941,-1.3346 1.8957,-2.046 0.9865,-1.0006 0.7142,-2.2656 0.7789,-3.5134 z m -6.5069,-6.9371 a 7.5692,7.5692 0 0 1 -0.9007,-0.4266 1.3591,1.3591 0 0 1 0.9007,0.4266 z m -1.1623,-0.495 c -0.068,-0.025 -0.138,-0.044 -0.2052,-0.069 0.142,-0.059 0.2101,-0.035 0.2052,0.069 z m -1.7293,-0.54 c -0.018,0.05 -0.24,0.068 0,0 -0.01,0.024 -0.04,0.011 0,-3e-4 z m -0.79,-0.2945 c 0.1027,0.034 0.3044,-0.08 0.39,0.2 -0.1146,-0.028 -0.5888,-0.2798 -0.3896,-0.2003 z m -4.2667,0.1429 c -0.1613,0.067 -0.2358,0 -0.226,-0.22 a 0.5678,0.5678 0 0 1 0.2264,0.2197 z m -1.5069,0.2518 c -0.264,0.061 -0.1161,-0.127 0,0 -0.048,0.011 -0.047,-0.05 4e-4,-3e-4 z m -8.11,8.4344 a 0.92,0.92 0 0 1 0.053,0.4191 c -0.018,-0.1408 -0.036,-0.2801 -0.053,-0.4194 z m 0.039,1.249 a 0.3342,0.3342 0 0 1 0.2066,0.4058 c -0.069,0.051 -0.436,-0.3518 -0.2066,-0.4061 z m 1.5644,2.976 a 2.4949,2.4949 0 0 0 0.2908,0.1785 c -0.1001,0.047 -0.8371,0.099 -0.2908,-0.1788 z"
       style="fill:#3d69d8"
       id="path616" />
  </g>
  <metadata
     id="metadata2010">
    <rdf:RDF>
      <cc:Work
         rdf:about="">
        <dc:title>sinaisthimata-2</dc:title>
      </cc:Work>
    </rdf:RDF>
  </metadata>
</svg>
