<?xml version="1.0" encoding="utf-8"?>
<!-- Generator: Adobe Illustrator 27.4.0, SVG Export Plug-In . SVG Version: 6.00 Build 0)  -->
<svg version="1.1"
	 id="svg2" xmlns:sodipodi="http://sodipodi.sourceforge.net/DTD/sodipodi-0.dtd" xmlns:rdf="http://www.w3.org/1999/02/22-rdf-syntax-ns#" xmlns:inkscape="http://www.inkscape.org/namespaces/inkscape" xmlns:cc="http://creativecommons.org/ns#" xmlns:dc="http://purl.org/dc/elements/1.1/" xmlns:svg="http://www.w3.org/2000/svg" inkscape:version="0.92.4 (5da689c313, 2019-01-14)" sodipodi:docname="flower.svg"
	 xmlns="http://www.w3.org/2000/svg" xmlns:xlink="http://www.w3.org/1999/xlink" x="0px" y="0px" viewBox="0 0 116.4 116.6"
	 style="enable-background:new 0 0 116.4 116.6;" xml:space="preserve">
<style type="text/css">
	.st0{fill:#1A2815;}
	.st1{fill:#496F3C;}
	.st2{fill:#466B3A;}
	.st3{fill:#71A95F;}
	.st4{fill:#629651;}
	.st5{fill:#273B20;}
	.st6{fill:#7BAF6A;}
	.st7{fill:#6EA75B;}
	.st8{opacity:0.3;fill:#71A95F;}
	.st9{opacity:0.7;fill:#7BAF6A;}
	.st10{fill:#84B474;}
	.st11{fill:#314C29;}
	.st12{fill:#4C743E;}
	.st13{fill:#639751;}
	.st14{fill:#558346;}
	.st15{fill:#87B678;}
	.st16{opacity:0.8;fill:#2B4224;}
	.st17{fill:#3F6034;}
	.st18{opacity:0.5;fill:#2B4224;}
	.st19{opacity:0.6;fill:#2B4224;}
	.st20{opacity:0.5;fill:#6EA75B;}
</style>
<sodipodi:namedview  bordercolor="#666666" borderopacity="1.0" fit-margin-bottom="0" fit-margin-left="0" fit-margin-right="0" fit-margin-top="0" id="base" inkscape:current-layer="layer2" inkscape:cx="-536.01504" inkscape:cy="-89.289636" inkscape:document-units="px" inkscape:pageopacity="0.0" inkscape:pageshadow="2" inkscape:window-height="705" inkscape:window-maximized="1" inkscape:window-width="1366" inkscape:window-x="-8" inkscape:window-y="-8" inkscape:zoom="0.6116799" pagecolor="#ffffff" showgrid="false" units="px">
	</sodipodi:namedview>
<g>
	<path class="st0" d="M51.4,88.8c0,0,3.3,17,6.6,17c3.3,0,4.7-16.3,4.7-16.3l-5.3-18.1L51.4,88.8z"/>
	<g>
		<g>
			<g>
				<path class="st1" d="M50.8,41.6c0,0-4,8.8-3.6,11.2c0.4,2.4,3.4,7,3.4,7l2.6-17.6L50.8,41.6z"/>
				<path class="st1" d="M50.8,41.6c0,0-0.6,1.3-1.3,3c-0.1,1.7-0.6,3.5-0.9,5.2c-0.2,1.4-0.5,2.6-1.2,3.8c0.8,2.5,3.2,6.2,3.2,6.2
					l2.6-17.6L50.8,41.6z"/>
			</g>
			<g>
				<g>
					<path class="st2" d="M30.6,49.3C30.6,49.3,30.6,49.3,30.6,49.3c-0.2,0.1-0.3,0.2-0.5,0.3c-0.1,0.1-0.3,0.1-0.5,0
						c-0.1-0.1-0.1-0.1-0.2-0.1c0,0,0,0.1,0,0.1c0,0,0.1,0.1,0.1,0.1c0.2,0.1,0.1,0.2,0.1,0.4c0,0.2,0,0.3,0.1,0.5
						c0,0,0.1,0.1,0.1,0c0-0.1,0-0.3,0-0.4c0.1-0.2,0.1-0.3,0.3-0.4c0.1-0.1,0.2-0.1,0.3-0.2c0.1,0,0.1,0,0.2-0.1c0,0,0,0,0,0
						c0,0,0,0,0-0.1C30.8,49.4,30.7,49.4,30.6,49.3z"/>
					<path class="st3" d="M51.6,37.6c-0.1-0.1-0.1-0.1-0.2-0.1c0,0,0,0,0,0c-0.2,0-0.5,0.1-0.6,0.3c-0.7,0.3-1.4,0.7-1.6,1.4
						c-0.4,0.3-0.7,0.7-1,1c-1.2,1.3-2.2,2.7-3.2,4.1c-0.9,1.3-3.3,5.2-3.7,5.8c-1.3-0.8-2.4-2-3.8-2.7c-0.2-0.1-0.4-0.2-0.7-0.3
						c0,0,0,0,0,0c0,0,0,0,0,0c-0.2-0.1-0.5-0.1-0.6,0c-0.1,0-0.1,0.1-0.2,0.2c-0.2,0.1-0.4,0.1-0.6,0.2c-0.7,0.4-1.5,0.7-2.3,1
						c-0.9,0.4-1.8,0.8-2.7,1.3c0,0.8,1.5-0.2,1.8-0.3c0.7-0.4,1.6-0.5,2.3-0.8c0.4-0.2,0.8-0.1,1.2-0.3c0.2-0.1,0.4-0.2,0.6-0.2
						c0.2,0.2,0.4,0.3,0.6,0.5c0.7,0.5,1.3,1.2,2,1.7c0.5,0.4,1.2,1,1.9,1.2c0,0.3,0.4,0.5,0.7,0.4c0.5-0.1,0.7-0.5,1-0.9
						c0.3-0.4,3.2-5.2,3.7-5.8c0.7-0.8,1.2-1.6,2-2.3c0.6-0.5,1.2-1,1.6-1.6c0.3,0.2,0.6,0.3,0.9,0.3c1,0,1.3-1.5,1.3-2.2
						C52,38.5,52,38,51.6,37.6z"/>
					<path class="st3" d="M41.2,49.9c0,0,0.5-0.4,0.5-0.5c0.2-0.3,0.5-0.6,0.7-0.9c0.3-0.4,0.6-0.9,0.9-1.3c0.6-0.9,1.2-1.8,1.8-2.7
						c1.2-1.8,2.5-3.5,3.9-5.1c0.1-0.1,0.2,0,0.2,0c0.1,0.1,0.1,0.1,0.1,0.2c0.2-0.6,0.3-1.1,0.8-1.6c0.1-0.1,0.3-0.2,0.5-0.3
						c-0.7,0.3-1.3,0.7-1.6,1.4c-0.4,0.3-0.7,0.7-1,1c-1.2,1.3-2.2,2.7-3.2,4.1C44,45.4,41.7,49,41.2,49.9
						C41.2,49.9,41.2,49.9,41.2,49.9z"/>
					<path class="st3" d="M32.6,48.5c0.9-0.4,1.8-0.9,2.7-1.3c0.8-0.3,1.4-0.3,2.2,0c0,0-0.1-0.1-0.1-0.1c-0.2-0.1-0.4-0.2-0.7-0.3
						c0,0,0,0,0,0c0,0,0,0,0,0c-0.2-0.1-0.5-0.1-0.6,0c-0.1,0-0.1,0.1-0.2,0.2c-0.2,0.1-0.4,0.1-0.6,0.2c-0.7,0.4-1.5,0.7-2.3,1
						c-0.9,0.4-1.8,0.8-2.7,1.3c0,0,0,0,0,0C31,49.2,31.8,48.9,32.6,48.5z"/>
					<path class="st4" d="M51.6,37.6c-0.1-0.1-0.1-0.1-0.2-0.1c0,0,0,0,0,0c-0.2,0-0.5,0.1-0.6,0.3c-0.1,0.1-0.3,0.1-0.4,0.2
						c0.2,0.6-0.1,1.5-0.3,2c0,0.1-0.2,0.1-0.2,0c-0.2-0.3-0.4-0.7-0.5-1.2c-0.1,0.7,0,1.5-0.4,2.1c-0.6,0.8-1.3,1.5-2,2.3
						c-1.4,1.6-2.8,3.3-3.8,5.2c-0.3,0.5-0.5,1-0.7,1.5c-0.1,0.2-0.1,0.5-0.3,0.7c-0.2,0.2-0.5,0.3-0.7,0.1
						c-0.2-0.2-0.2-0.5-0.2-0.8c0,0,0,0.1-0.1,0.1c0,0,0,0-0.1,0c-0.1,0.4-0.2,0.8-0.6,0.8c-0.6-0.1-1.1-0.8-1.5-1.2
						c-0.8-0.7-1.7-1.4-2.5-2.2c-0.2-0.2-0.2-0.4-0.1-0.5c-0.1,0-0.3,0-0.4,0.1c-0.1,0-0.1,0.1-0.2,0.2c0,0,0,0-0.1,0
						c-0.2,0.3-0.4,0.6-0.9,0.8c-0.9,0.3-1.8,0.5-2.7,0.9c-0.6,0.2-1.2,0.7-1.8,0.8c0,0-0.1,0-0.1,0c0,0.8,1.5-0.2,1.8-0.4
						c0.7-0.4,1.6-0.5,2.3-0.8c0.4-0.2,0.8-0.1,1.2-0.3c0.2-0.1,0.4-0.2,0.6-0.2c0.2,0.2,0.4,0.3,0.6,0.5c0.7,0.5,1.3,1.2,2,1.7
						c0.5,0.4,1.2,1,1.9,1.2c0,0.3,0.4,0.5,0.7,0.4c0.5-0.1,0.7-0.5,1-0.9c0.3-0.4,3.2-5.2,3.7-5.8c0.7-0.8,1.2-1.6,2-2.3
						c0.6-0.5,1.2-1,1.6-1.6c0.3,0.2,0.6,0.3,0.9,0.3c1,0,1.3-1.5,1.3-2.2C52,38.5,52,38,51.6,37.6z"/>
				</g>
				<g>
					<g>
						<path class="st2" d="M40.3,77.6C40.3,77.6,40.3,77.6,40.3,77.6c-0.1,0.3-0.1,0.5-0.2,0.7c-0.1,0.2-0.9,1-0.8,1
							c0.1,0,0.5-0.3,0.6-0.3c0.2-0.1,0.1,0,0.3,0.2c0.1,0.1,0.2,0.3,0.4,0.3c0,0,0.1,0,0.1-0.1c-0.1-0.1-0.2-0.2-0.2-0.4
							c-0.1-0.2-0.1-0.4,0-0.6c0-0.2,0.1-0.3,0.1-0.5c0-0.1,0.1-0.1,0.1-0.2c0,0,0,0,0,0c0,0,0-0.1,0-0.1
							C40.5,77.5,40.4,77.5,40.3,77.6z"/>
						<g>
							<g>
								<path class="st5" d="M49.4,67.5c-0.2-0.4,0.2-1.8,0.4-2.4c0.1-0.5,0.2-1,0.3-1.4c0-0.2,0.1-1.1,0.4-0.4c0.4,0.8,0.5,2,0.6,3
									c0.1-0.4,0.2-0.7,0.2-1.1c0-1-0.1-1.9-0.2-2.8c-0.1-0.5-0.1-1.1-0.2-1.6c0,0,0-0.1,0-0.1c0-0.2-0.1-0.3-0.1-0.4
									c-0.1-0.3-0.2-0.5-0.1-0.7c0-0.1-0.1,0-0.1,0.1c0,0.2,0,0.1,0.1,0.4c0,0.1,0,0.1,0.1,0.2c-0.5-0.2-1.2,2.7-1.3,2.9
									c-0.4,1-0.7,2.4-1,3.5c-0.3,1.2-0.6,2.5-0.8,3.7c-0.5,2.6-1,5.1-1.3,7.7c-0.3,2.2-1,4.5-1.1,6.7c-0.1,0.5-0.3,0.9-0.3,1.1
									c-0.2,1.2-0.5,2.4-0.7,3.6c-0.1,0.5-0.4,1.6-0.1,2c0.2,0.2,0.6,0,0.8,0.2c0.1,0,0.1,0.1,0.2,0.2c0.1,0.1,0.3,0.2,0.4,0.4
									c0-0.5-0.2-1-0.4-1.5c-0.5-0.2-0.2-1-0.2-1.4c0-0.8,0.2-1.7,0.3-2.5c0-0.3,0.1-0.7,0.1-1c0.5-0.2,0.8-0.2,1.1,0.4
									c0.1,0.1,0.1,0.3,0.2,0.4c0-0.2,0.1-0.3,0.1-0.5c-0.1-0.5-0.1-1-0.1-1.5c-0.2-0.4-0.4-0.4-0.3-1.2c0.1-0.4,0.2-0.7,0.2-1
									c0.1-0.5,0.2-1.7,0.6-1.1c0.2,0.3,0.4,0.8,0.6,1.1c0.1-0.3,0.2-0.5,0.2-0.8c0-0.4-0.1-0.7-0.2-1.1c-0.2-0.8-1-1-0.6-2.2
									c0.2-0.5,0.2-2.2,0.9-1.6c0.3,0.3,0.5,0.8,0.7,1.2c0.1,0.1,0.2,0.1,0.2-0.2c0-0.4,0-0.7,0-1.1c0-0.3-0.1-0.7-0.1-1
									c-0.1-0.3-0.3-0.6-0.5-0.9c-0.5-0.6-0.2-1.2,0-1.9c0.2-1,0.4-2.1,0.7-3.1c0.2-0.5,0.4-0.1,0.6,0.2c0.3,0.4,0.5,0.9,0.7,1.5
									c0.1-0.2,0.2-0.5,0.2-0.8c-0.1-0.6-0.2-1.3-0.4-1.8C49.9,68.2,49.6,67.9,49.4,67.5z"/>
								<path class="st6" d="M43.3,60.3c0,0-0.8,0-0.9,0.5c0,0.1,0.2,1.2,0.1,2.3c-0.6,4.2-2.3,14-2.3,14s-0.6,1.2,0,1.4
									c0.6,0.2,0.6,0.1,0.7-1.4c0.1-1.5,3.1-12.6,3.1-12.6L43.3,60.3z"/>
								<path class="st6" d="M43.3,60.3c0,0-0.8,0-0.9,0.5c0,0.1,0.2,1.2,0.1,2.3c-0.1,0.9-0.3,2.2-0.5,3.5c-0.1,2.6-0.6,5.3-1,7.9
									c-0.1,0.8-0.3,1.5-0.4,2.3c-0.1,0.6-0.1,1.1-0.1,1.7c0.3,0,0.3-0.3,0.4-1.5c0.1-1.5,3.1-12.6,3.1-12.6L43.3,60.3z"/>
								<path class="st3" d="M40.5,93.5c0,0-1.2,3.1,1.1,3.1c2.3,0,1.9-1.5,2.2-4.3c0.3-2.9,0.8-31.8,0.8-31.8s-1.4-1.9-2.2,0.1
									c-0.5,1.1,0.6,1.9,0.2,2.8C42.3,64.1,40.5,93.5,40.5,93.5z"/>
								<path class="st3" d="M40.5,93.8c0,0-1.2,3.2,1.1,3.2c2.3,0,1.9-1.5,2.2-4.4c0.3-2.9,0.8-32.2,0.8-32.2s-1.4-1.9-2.2,0.1
									c-0.5,1.1,0.6,1.9,0.2,2.8C42.3,64.2,40.5,93.8,40.5,93.8z"/>
								<path class="st3" d="M44.6,60.4c0,0-0.9-1.2-1.6-0.7c0.2,0.1,0.3,0.3,0.4,0.4c0.1,0.2,0.3,0.5,0.3,0.8c0,0.1,0,0.3-0.1,0.4
									c-0.3,0.3-0.2,0.7-0.1,1.1c0.3,1,0.1,2.5-0.1,3.5c-0.8,5.8-1.4,11.7-2.2,17.5c-0.4,5.7-0.7,10.4-0.7,10.4S39.3,97,41.6,97
									c2.3,0,1.9-1.5,2.2-4.4C44,89.7,44.6,60.4,44.6,60.4z"/>
								<path class="st3" d="M51.3,59.4c0.2-2,0.3-4.3-0.2-6.1c-0.4-1.5-1.8-1.1-2.8-0.4c-1.1,0.7-4.2,5.2-4.8,12.3
									c0,0-2.6,26.7-3,28.3c-0.4,1.9,0.5,3.2,2,2.6c0.5-0.2,1-0.7,1.2-1.3c0.5-1,5.2-22.9,6.4-28.1C50.7,64.3,51.1,61.8,51.3,59.4
									z"/>
								<path class="st7" d="M43.5,71.5c0.6-3.3,1.4-6.6,2.2-9.8c0.3-1.5,0.6-3,0.9-4.6c0.2-0.9,0.4-1.9,0.4-2.8
									c-1.4,1.9-3.1,5.7-3.6,10.9c0,0-0.9,8.6-1.6,16.3C42.3,78.2,42.9,74.8,43.5,71.5z"/>
								<path class="st6" d="M51.1,53.3c-0.2-0.9-0.8-1.1-1.4-1c-0.2,3-0.8,5.9-1.3,8.9c-0.6,4.1-1.3,8.3-2,12.4
									c-0.7,4.2-1.5,8.4-2.2,12.6c-0.3,1.5-0.5,3-0.8,4.6c-0.1,1-0.2,1.9,0.2,2.8c0.1,0.4,0.2,0.7,0.1,1.1
									c0.7-2.3,5.2-22.9,6.3-27.9c0.6-2.4,1-4.8,1.2-7.2C51.5,57.5,51.6,55.1,51.1,53.3z"/>
								<path class="st3" d="M51.1,53.3c-0.4-1.5-1.8-1.1-2.8-0.4c-1.1,0.7-4.2,5.2-4.8,12.3c0,0-2.6,26.7-3,28.3
									c-0.4,1.9,0.5,3.2,2,2.6c0.5-0.2,1-0.7,1.2-1.3c0.5-1,5.2-22.9,6.4-28.1c0.6-2.4,1-4.8,1.2-7.2
									C51.5,57.5,51.6,55.1,51.1,53.3z M42.4,95.5c-0.5,0.3-1.6,0.1-1.5-0.8c0-0.6,0.3-0.9,0.7-1.1c0,0,0,0,0.1-0.1
									c0.5-0.3,1.4-0.4,1.5,0.4C43.3,94.5,42.9,95.2,42.4,95.5z M49,64.1c-0.3,4.3-1.2,8.6-2.1,12.8c-0.5,2.5-1,5.1-1.6,7.6
									c-0.5,2.3-1,4.7-1.9,6.8c-0.2,0.4-0.5,1.3-1,1.2c-0.5,0-0.7-0.7-0.8-1.3c-0.1-1,0-2,0.1-3c0.1-1.3,0.2-2.6,0.3-3.9
									c0.5-5.4,1.1-10.8,2-16.2c0.2-1.1,0.3-2.2,0.5-3.3c0,0,0-0.1,0-0.1c0.2-2,0.6-4.1,1.1-6c0.5-1.7,1.2-3.7,2.5-4.7
									c0.1,0,0.1,0,0.2,0c0.2,0.6,0.4,1,0.4,1.7c0,0.8,0.1,1.5,0.1,2.3C49,60.1,49.1,62.1,49,64.1z"/>
							</g>
							<g>
								<path class="st6" d="M49.1,56.4c0-0.4-0.3-0.7-0.2-1.1c0-0.1-0.1,0-0.1,0c-0.1,0.4,0,0.8,0,1.1c0,0.3-0.2,0.5-0.3,0.7
									c0,0.2-0.1,0.4-0.1,0.6c0,0.2,0.2,0,0.2-0.1c0.1-0.3,0.1-0.6,0.3-0.9C49.1,56.7,49.1,56.5,49.1,56.4z"/>
								<path class="st6" d="M48.3,60.9c0-0.2-0.1-0.4-0.1-0.6c0-0.1-0.1,0-0.1,0c-0.1,0.3,0,0.7,0,1c0,0.3-0.3,0.5-0.2,0.8
									c0,0.1,0.1,0,0.1-0.1c0.1-0.1,0.1-0.3,0.1-0.4c0.1-0.1,0.2-0.2,0.2-0.4C48.4,61.2,48.4,61.1,48.3,60.9z"/>
								<path class="st6" d="M47.6,63.9C47.6,63.9,47.5,63.9,47.6,63.9c-0.1,0.4,0.1,0.7,0,1c-0.1,0.2-0.2,0.4-0.2,0.7
									c0,0.2,0.2,0,0.2-0.1c0.1-0.2,0.1-0.3,0.2-0.5c0-0.1,0.1-0.2,0.1-0.3C47.9,64.4,47.7,64.1,47.6,63.9z"/>
								<path class="st6" d="M47.1,68c0-0.1,0-0.3-0.1-0.4c0,0-0.1,0-0.1,0.1c0,0.3,0.1,0.8,0,1.1c-0.1,0.2-0.1,0.3-0.2,0.4
									c-0.1,0.2-0.1,0.3-0.1,0.5c0,0.2,0.2,0,0.2-0.1c0.1-0.3,0.1-0.5,0.2-0.7c0.1-0.1,0.1-0.3,0.1-0.4
									C47.2,68.3,47.2,68.2,47.1,68z"/>
								<path class="st6" d="M46.6,72.1c-0.1-0.1-0.2-0.3-0.3-0.5c0,0-0.1,0-0.1,0.1c0.1,0.3,0.2,0.7,0,1c-0.2,0.3-0.3,0.6-0.3,1
									c0,0.1,0.1,0,0.1,0c0.2-0.4,0.4-0.9,0.5-1.3C46.7,72.3,46.7,72.2,46.6,72.1z"/>
								<path class="st6" d="M46,75.4c0-0.3-0.1-0.5-0.1-0.8c0-0.1-0.1,0-0.1,0c-0.1,0.3-0.1,0.7,0,0.9c0.1,0.2-0.1,0.3-0.1,0.4
									c-0.1,0.2-0.1,0.5-0.2,0.7c0,0.1,0.1,0.1,0.1,0c0.2-0.3,0.2-0.7,0.4-1C46,75.5,46,75.5,46,75.4z"/>
								<path class="st6" d="M45.2,78C45.1,78,45.1,78,45.2,78c0,0.4,0.2,0.6,0,1c-0.2,0.3-0.2,0.6-0.3,1c-0.1,0.2,0.1,0,0.2,0
									c0.1-0.2,0.1-0.3,0.2-0.5c0.1-0.2,0.2-0.4,0.2-0.7C45.5,78.5,45.2,78.2,45.2,78z"/>
								<path class="st6" d="M44.8,80.7C44.8,80.7,44.7,80.7,44.8,80.7c-0.2,0.3,0,0.6-0.1,0.9c-0.1,0.2-0.2,0.5-0.2,0.8
									c0,0.1,0.1,0,0.1-0.1c0.1-0.2,0.1-0.4,0.2-0.6c0-0.1,0.1-0.2,0.2-0.3C44.9,81.1,44.8,81,44.8,80.7z"/>
								<path class="st6" d="M44.4,83.9c0.1-0.3-0.1-0.4-0.2-0.6c0,0-0.1,0-0.1,0.1c0,0.1,0,0.2,0,0.3c0.1,0.2-0.1,0.5-0.1,0.6
									c-0.1,0.3-0.2,0.6-0.2,0.9c0,0.2,0.3,0,0.3-0.2c0-0.2,0-0.4,0.1-0.5C44.3,84.3,44.4,84.1,44.4,83.9z"/>
								<path class="st6" d="M43.8,86.4c0-0.1-0.1-0.2,0-0.3c0,0,0-0.1,0-0.1c0,0,0,0,0,0c0,0-0.1,0-0.1,0.1c0,0,0,0,0,0
									c-0.1,0.1,0,0.2,0,0.4c0,0.3-0.2,0.5-0.2,0.8c0,0.1,0.1,0,0.1-0.1c0.1-0.2,0.2-0.4,0.2-0.6C43.8,86.6,43.8,86.5,43.8,86.4z"
									/>
								<path class="st6" d="M43.3,88.3C43.3,88.3,43.2,88.3,43.3,88.3c0,0.1,0,0.2-0.1,0.2c0,0.1,0.1,0,0.1,0
									C43.3,88.4,43.3,88.4,43.3,88.3z"/>
							</g>
						</g>
					</g>
					<g>
						<path class="st8" d="M46.9,56.7c-0.4,1-0.6,1.9-0.8,3c0,0.1,0.1,0,0.1,0C46.4,58.6,46.6,57.6,46.9,56.7
							C47,56.6,46.9,56.6,46.9,56.7z"/>
						<path class="st8" d="M45.6,61c-0.1,0.6-0.3,1.3-0.4,1.9c0,0.1,0.1,0,0.1,0C45.4,62.3,45.5,61.6,45.6,61
							C45.6,61,45.6,61,45.6,61z"/>
						<path class="st8" d="M45.1,63.9c-0.3,1.9-0.7,3.8-0.9,5.7c0,0.1,0.1,0,0.1-0.1C44.6,67.7,44.9,65.8,45.1,63.9
							C45.2,63.9,45.1,63.9,45.1,63.9z"/>
						<path class="st8" d="M44.9,67c-0.5,3-1,6-1.5,9c0,0.1,0.1,0,0.1-0.1C44.1,73,44.5,70,44.9,67C45,66.9,44.9,67,44.9,67z"/>
						<path class="st8" d="M44.6,73.6c-0.8,3.8-1,7.7-1.7,11.6c0,0.1,0.1,0,0.1,0c0.4-1.8,0.5-3.7,0.7-5.5
							C44,77.6,44.2,75.6,44.6,73.6C44.6,73.5,44.6,73.6,44.6,73.6z"/>
						<path class="st8" d="M43.1,81c-0.3,2.2-0.5,4.3-0.6,6.5c0,0.1,0.1,0,0.1,0C42.8,85.3,43,83.1,43.1,81
							C43.2,80.9,43.1,81,43.1,81z"/>
						<path class="st8" d="M42.4,85.6C42.4,85.6,42.3,85.7,42.4,85.6c0,1.9-0.4,3.9-0.4,5.9c0,0.1,0.1,0,0.1-0.1
							c0.1-1.1,0.2-2.2,0.2-3.2C42.3,87.4,42.4,86.5,42.4,85.6z"/>
						<path class="st8" d="M42.5,89.3c-0.1,0.5-0.1,1.1-0.2,1.6c0,0.1,0.1,0,0.1,0C42.4,90.3,42.5,89.8,42.5,89.3
							C42.6,89.2,42.5,89.2,42.5,89.3z"/>
						<path class="st8" d="M46.6,64.3c-0.4,2.9-1.3,5.8-1.8,8.8c0,0.1,0.1,0,0.1-0.1C45.4,70.1,46.2,67.1,46.6,64.3
							C46.6,64.1,46.6,64.2,46.6,64.3z"/>
						<path class="st8" d="M45.3,68.5c-0.1,0.7-0.3,1.3-0.4,2c0,0.1,0.1,0,0.1,0C45.1,69.8,45.2,69.2,45.3,68.5
							C45.4,68.4,45.3,68.5,45.3,68.5z"/>
						<path class="st8" d="M47.4,58.9c-0.3,1.1-0.6,2.3-0.7,3.5c0,0.1,0.1,0,0.1-0.1C46.9,61.2,47.2,60,47.4,58.9
							C47.4,58.8,47.4,58.9,47.4,58.9z"/>
						<path class="st8" d="M47.2,57.8c-0.6,2.4-1,4.9-1.4,7.4c0,0.1,0.1,0,0.1,0C46.3,62.6,46.7,60.2,47.2,57.8
							C47.3,57.7,47.2,57.7,47.2,57.8z"/>
						<path class="st8" d="M47,63.9c-0.3,1.2-0.5,2.5-0.7,3.7c0,0.1,0.1,0,0.1,0C46.6,66.3,46.8,65.1,47,63.9
							C47.1,63.8,47.1,63.8,47,63.9z"/>
						<path class="st8" d="M45.9,69.9c-0.1,1.2-0.5,2.5-0.7,3.7c-0.2,1.3-0.4,2.5-0.6,3.8c0,0.1,0.1,0,0.1-0.1
							c0.2-1.3,0.4-2.5,0.7-3.8C45.5,72.4,45.8,71.1,45.9,69.9C45.9,69.9,45.9,69.9,45.9,69.9z"/>
						<path class="st8" d="M44.3,79.2c-0.1,0.6-0.2,1.2-0.3,1.9c0,0.1,0.1,0,0.1-0.1C44.2,80.4,44.3,79.8,44.3,79.2
							C44.4,79.1,44.3,79.1,44.3,79.2z"/>
						<path class="st8" d="M43.5,77.4c-0.1,0.5-0.2,1-0.2,1.5c0,0.1,0.1,0,0.1,0C43.4,78.3,43.5,77.8,43.5,77.4
							C43.6,77.3,43.5,77.3,43.5,77.4z"/>
						<path class="st8" d="M48.2,55.3C48.2,55.3,48.2,55.3,48.2,55.3c-0.1,1.9-0.4,3.8-0.8,5.6c0,0.1,0.1,0,0.1,0
							C48,59,48.2,57.1,48.2,55.3z"/>
						<path class="st8" d="M47.5,61.1c0,0.8-0.2,1.6-0.4,2.3c0,0.1,0.1,0,0.1,0C47.3,62.7,47.5,61.9,47.5,61.1
							C47.5,61.1,47.5,61.1,47.5,61.1z"/>
						<path class="st8" d="M48.4,59.4c0,0.1-0.1,0.3-0.1,0.4c0,0.1,0,0.1,0.1,0C48.4,59.7,48.5,59.5,48.4,59.4
							C48.5,59.3,48.4,59.3,48.4,59.4z"/>
						<path class="st8" d="M47.8,55.5c-0.1,0.3-0.1,0.7-0.2,1c0,0.1,0.1,0,0.1,0C47.8,56.1,47.8,55.8,47.8,55.5
							C47.9,55.4,47.8,55.4,47.8,55.5z"/>
						<path class="st8" d="M42.8,65.1C42.8,65.1,42.8,65.1,42.8,65.1c0,1.6-0.3,3.2-0.3,4.8c0,0.1,0.1,0,0.1-0.1
							c0.1-0.9,0.1-1.9,0.1-2.8C42.8,66.4,42.9,65.7,42.8,65.1z"/>
					</g>
					<path class="st9" d="M47.7,58c0-0.1-0.1,0-0.1,0c0,0,0,0,0,0c0,0,0,0-0.1,0.1c0,0,0,0,0,0c0,0.1-0.1,0.1-0.1,0.2
						c-0.1,0.2-0.1,0.5-0.2,0.7c-0.1,0.3,0.2,0.3,0.3,0.2c0.1-0.1,0.2-0.4,0.2-0.6C47.7,58.4,47.7,58.2,47.7,58z"/>
					<path class="st9" d="M46,63.7c-0.2,0-0.3,0.3-0.3,0.5c0,0,0,0.1,0,0.1c0,0.3-0.1,0.7-0.1,1c0,0.2,0.2,0.2,0.3,0.1
						c0.2-0.1,0.3-0.4,0.3-0.6C46.3,64.5,46.4,63.7,46,63.7z"/>
					<path class="st9" d="M45.3,69.2c-0.1-0.1-0.2,0-0.3,0.1c-0.2,0-0.4,0.8-0.4,1c0,0.3-0.1,0.7,0.2,0.8c0,0,0,0,0,0c0,0,0,0,0.1,0
						c0.3,0,0.4-0.5,0.5-0.8C45.4,69.9,45.5,69.4,45.3,69.2z"/>
					<path class="st9" d="M46.9,70C46.9,70,46.9,70,46.9,70C46.9,70,47,70,46.9,70c0-0.1,0-0.1,0-0.1c0,0,0,0,0-0.1c0,0,0-0.1,0-0.1
						c0,0-0.1,0-0.1,0.1c-0.1,0.1-0.1,0.2-0.2,0.3c0,0,0,0.1,0,0.1C46.8,70.3,46.9,70.2,46.9,70C46.9,70.1,46.9,70.1,46.9,70
						C46.9,70,46.9,70,46.9,70z"/>
					<path class="st9" d="M48.1,69.5c0-0.4-0.3-0.1-0.5,0.1c0,0,0,0.1-0.1,0.1c-0.1,0.1-0.1,0.3-0.2,0.4c-0.2,0.4-0.3,1.1,0,1.3
						c0.1,0.1,0.1,0,0.2-0.1c0.2-0.2,0.3-0.6,0.3-0.8C48.1,70.2,48.1,69.8,48.1,69.5z"/>
					<path class="st9" d="M48.1,69.8c0-0.2-0.2-0.1-0.3,0.1c0,0,0,0,0,0.1c0,0.1-0.1,0.2-0.1,0.2c-0.1,0.3-0.2,0.6,0,0.8
						c0,0,0.1,0,0.1,0c0.1-0.1,0.2-0.3,0.2-0.5C48.1,70.3,48.1,70,48.1,69.8z"/>
					<path class="st9" d="M48.8,65.4c0-0.1,0-0.1,0-0.2C48.8,65.2,48.7,65.3,48.8,65.4c-0.1,0-0.1,0-0.1,0.1c0,0,0,0.1,0,0.1
						c0,0,0,0,0,0c0,0,0,0,0,0c0,0,0,0,0,0c0,0,0,0.1,0,0.1c0,0.1,0,0.1,0.1,0.1C48.8,65.7,48.9,65.5,48.8,65.4
						C48.8,65.4,48.8,65.4,48.8,65.4z"/>
					<path class="st9" d="M44.2,76c0-0.4-0.1-1.2-0.5-1.3c-0.1,0-0.2,0.1-0.3,0.3c0,0.1-0.1,0.2-0.1,0.3c0,0,0,0,0,0
						c-0.4,0.8-0.3,2.4,0.2,2.9c0.1,0.1,0.2-0.1,0.3-0.2C44.2,77.5,44.2,76.6,44.2,76z"/>
					<path class="st9" d="M43.9,76.5c0-0.2-0.1-0.7-0.3-0.8c-0.1,0-0.1,0.1-0.2,0.2c0,0.1,0,0.1-0.1,0.2c0,0,0,0,0,0
						c-0.2,0.5-0.2,1.4,0.1,1.7c0.1,0,0.1,0,0.2-0.1C43.9,77.4,43.9,76.9,43.9,76.5z"/>
					<path class="st9" d="M43.1,82.1c-0.1,0-0.1,0.1-0.1,0.2c0,0,0,0.1,0,0.2c0,0,0,0,0,0c0,0-0.1,0.2,0,0.2
						C43.2,82.7,43.2,82.3,43.1,82.1C43.2,82.1,43.2,82.1,43.1,82.1z"/>
					<path class="st9" d="M44.6,75.3C44.6,75.3,44.6,75.2,44.6,75.3C44.6,75.2,44.6,75.3,44.6,75.3c-0.1,0-0.1,0-0.1,0
						c0,0.1-0.1,0.1,0,0.2c0,0,0,0.1,0,0.1c0,0.1,0.1-0.1,0.1-0.1c0,0,0,0,0,0c0,0,0,0,0,0C44.6,75.4,44.7,75.3,44.6,75.3z"/>
					<path class="st9" d="M46,80C46,79.9,45.9,79.9,46,80C45.9,79.9,45.9,80,46,80c-0.1,0-0.1,0-0.1,0c0,0,0,0,0,0c0,0,0,0,0,0
						c0,0,0,0-0.1,0c-0.1,0.1-0.1,0.2-0.2,0.3c0,0.1-0.1,0.2-0.1,0.3c0,0.1,0,0.3,0,0.3c0.1,0.1,0.3-0.2,0.4-0.4
						C46,80.4,46.1,80.2,46,80z"/>
					<path class="st9" d="M42.8,86.1c0,0-0.1,0-0.1,0.1c-0.1,0.1-0.1,0.2-0.1,0.3c-0.1,0-0.1,0.1-0.2,0.2c-0.1,0.3,0,0.7,0.1,0.9
						c0.1,0.1,0.2,0.1,0.3,0c0.1-0.1,0.2-0.3,0.2-0.5C42.9,86.7,43,86.3,42.8,86.1z"/>
					<path class="st9" d="M42.4,90.2C42.4,90.2,42.4,90.2,42.4,90.2C42.4,90.2,42.4,90.2,42.4,90.2C42.4,90.1,42.3,90.2,42.4,90.2
						c-0.1,0-0.2,0.1-0.1,0.1c0,0,0,0,0,0c0,0,0,0,0,0c0,0,0,0,0,0c0,0,0,0,0,0C42.4,90.4,42.4,90.3,42.4,90.2
						C42.4,90.3,42.4,90.3,42.4,90.2z"/>
					<path class="st9" d="M41.5,91.9C41.4,91.9,41.4,91.8,41.5,91.9c-0.1,0-0.1,0-0.1,0c0,0,0-0.1,0-0.1c0-0.1-0.1,0-0.1,0
						c0,0.1,0,0.2,0,0.3c0,0.1,0,0.1,0,0.2c0,0.1,0.1,0,0.1-0.1c0-0.1,0-0.2,0-0.3c0,0,0,0,0,0c0,0,0,0,0,0
						C41.4,92,41.5,91.9,41.5,91.9z"/>
					<path class="st9" d="M42.5,91.9C42.5,91.9,42.5,91.8,42.5,91.9C42.5,91.8,42.5,91.8,42.5,91.9c0-0.1,0-0.1,0-0.1c0,0,0,0,0,0
						c0,0-0.1,0.2-0.1,0.2C42.4,91.9,42.4,91.9,42.5,91.9C42.4,92,42.5,91.9,42.5,91.9C42.5,91.9,42.5,91.9,42.5,91.9
						C42.5,91.9,42.5,91.9,42.5,91.9C42.5,91.9,42.5,91.9,42.5,91.9z"/>
				</g>
				<g>
					<path class="st2" d="M41,19.4C41,19.3,41,19.3,41,19.4c-0.3-0.1-0.4-0.2-0.6-0.4c-0.2-0.1-0.3-0.3-0.2-0.5c0-0.1,0-0.2-0.1-0.3
						c0-0.1-0.1,0-0.1,0.1c0,0.1-0.1,0.2-0.1,0.2c0,0.2-0.2,0.3-0.4,0.4c-0.2,0.1-0.3,0.2-0.5,0.3c0,0,0,0.1,0,0.1
						c0.2-0.1,0.3-0.1,0.5-0.2c0.3-0.1,0.4,0,0.6,0.2c0.1,0.1,0.3,0.2,0.4,0.3c0.1,0.1,0.1,0.1,0.2,0.1c0,0,0,0,0,0c0,0,0.1,0,0.1,0
						C41,19.5,41,19.5,41,19.4z"/>
					<path class="st4" d="M43.9,21.3c-0.4-0.2-2.2-1.7-2.3-1.8c-0.3-0.4-1.3-0.4-0.9,0.3c0.4,0.6,0.3,0,0.9,0.3
						c0.6,0.4,2.3,2.1,2.2,2.4c0,0,0,0.4,0.2,0.5C44.2,23.1,45.3,22,43.9,21.3z"/>
					<path class="st4" d="M42.7,21c0.2,0.2,0.4,0.4,0.5,0.5C43.1,21.4,42.9,21.2,42.7,21z"/>
					<path class="st4" d="M43.9,21.3c-0.4-0.2-2.2-1.7-2.3-1.8c-0.2-0.3-0.7-0.3-0.9-0.2c0,0,0.1,0,0.1,0c0.2,0.1,0.3,0.2,0.4,0.3
						c0.2,0.2,0.5,0.2,0.7,0.5c0.5,0.6,1.7,1,1.6,1.9c0.2,0.2,0.2,0.4,0.2,0.4c0,0,0,0.4,0.2,0.5C44.2,23.1,45.3,22,43.9,21.3z"/>
					<path class="st4" d="M40.6,28.8l-0.8,0.1c0,0-0.4-0.5,1.1-2.8c1.6-2.3,2.6-3.4,2.7-4c0.1-0.6,1.3-0.5,0.9,0.4
						C44.2,23.5,40.6,28.8,40.6,28.8z"/>
					<path class="st3" d="M40.4,27.2c0.4-0.6,0.8-1.2,1.2-1.7c0.4-0.6,0.8-1.2,1.3-1.9c0.2-0.3,1-1.2,0.8-1.6c0,0,0,0.1,0,0.1
						c-0.1,0.6-1.1,1.7-2.7,4c-1.3,1.9-1.2,2.6-1.2,2.8C39.9,28.3,40.1,27.7,40.4,27.2z"/>
					<path class="st4" d="M44.1,21.7C44.1,21.7,44.1,21.7,44.1,21.7c0.6,0.7-0.4,1.6-0.7,2c-0.4,0.6-0.7,1.2-1,1.8
						c-0.3,0.4-0.5,1-0.8,1.4c-0.4,0.4-1.1,0.4-1.5,0.7c-0.5,1-0.2,1.3-0.2,1.3l0.8-0.1c0,0,3.7-5.3,4-6.3
						C44.8,21.9,44.4,21.6,44.1,21.7z"/>
					<path class="st4" d="M51.7,32c0,0-6.1-1.7-8.4-3.4c-2.3-1.6-2.5-1.1-3.2-0.6c-0.7,0.5-0.4,1.5,1.4,1.7c1.8,0.3,9.6,3.8,9.6,3.8
						L51.7,32z"/>
					<path class="st3" d="M47.1,31.8c-1.2-0.6-2.4-1.1-3.7-1.6c-0.6-0.3-1.2-0.5-1.8-0.6c-0.4-0.1-0.8-0.2-1.2-0.4
						c-0.4-0.2-0.5-0.5-0.6-0.9c-0.3,0.5,0.1,1.3,1.6,1.5c1,0.2,3.8,1.3,6.2,2.3C47.5,32,47.3,31.9,47.1,31.8z"/>
					<path class="st4" d="M43.3,28.6c-2.3-1.6-2.5-1.1-3.2-0.6c-0.2,0.1-0.3,0.3-0.3,0.5c0.1-0.2,0.3-0.3,0.6-0.3
						c0.6,0,1.5-0.1,1.9,0.4c0.4,0.4,8.2,3.8,7.9,4.6c0.6,0.3,0.9,0.4,0.9,0.4l0.6-1.6C51.7,32,45.6,30.3,43.3,28.6z"/>
				</g>
			</g>
		</g>
		<g>
			<g>
				<path class="st1" d="M63.9,41.5c0,0,4.1,8.7,3.7,11.2c-0.4,2.4-3.4,7-3.4,7l-2.7-17.6L63.9,41.5z"/>
				<path class="st1" d="M63.9,41.5c0,0,0.6,1.3,1.3,3c0.1,1.7,0.7,3.5,0.9,5.2c0.2,1.4,0.6,2.6,1.2,3.8c-0.8,2.5-3.2,6.2-3.2,6.2
					l-2.7-17.6L63.9,41.5z"/>
			</g>
			<g>
				<g>
					<path class="st2" d="M84,49.3C84,49.3,84,49.4,84,49.3c0,0.1,0,0.1,0,0.1c0,0.1,0.1,0,0.2,0.1c0.1,0,0.2,0.1,0.3,0.2
						c0.2,0.1,0.3,0.2,0.3,0.4c0,0.1,0,0.3,0.1,0.4c0,0.1,0.1,0,0.1,0c0.1-0.1,0.1-0.3,0.1-0.5c0-0.2,0-0.3,0.1-0.4
						c0.1,0,0.1-0.1,0.1-0.1c0,0,0-0.1,0-0.1c-0.1,0-0.2,0-0.2,0.1c-0.1,0.1-0.3,0.1-0.5,0c-0.1-0.1-0.3-0.1-0.4-0.3
						c0,0-0.1,0-0.1,0C84,49.2,84,49.2,84,49.3z"/>
					<path class="st3" d="M63.1,37.5c0.1-0.1,0.1-0.1,0.2-0.1c0,0,0,0,0,0c0.2,0,0.5,0.1,0.6,0.2c0.7,0.3,1.4,0.7,1.6,1.4
						c0.4,0.3,0.7,0.7,1,1c1.2,1.2,2.2,2.7,3.2,4.1c1,1.3,3.4,5.1,3.8,5.7c1.3-0.8,2.4-2,3.7-2.8c0.2-0.1,0.4-0.3,0.7-0.3
						c0,0,0,0,0,0c0,0,0,0,0,0c0.2-0.1,0.5-0.1,0.6,0c0.1,0,0.1,0.1,0.2,0.2c0.2,0.1,0.4,0.1,0.6,0.2c0.7,0.4,1.5,0.7,2.3,1
						c0.9,0.4,1.8,0.7,2.7,1.2c0,0.8-1.5-0.2-1.8-0.3c-0.7-0.4-1.6-0.5-2.4-0.8c-0.4-0.2-0.8-0.1-1.2-0.3c-0.2-0.1-0.4-0.2-0.6-0.2
						c-0.2,0.2-0.4,0.3-0.6,0.5c-0.7,0.5-1.3,1.2-2,1.7c-0.5,0.4-1.2,1.1-1.9,1.2c0,0.3-0.4,0.5-0.7,0.4c-0.5-0.1-0.7-0.5-1-0.9
						c-0.3-0.4-3.3-5.2-3.8-5.8c-0.7-0.8-1.2-1.6-2-2.3c-0.6-0.5-1.2-1-1.6-1.6c-0.3,0.2-0.6,0.3-0.9,0.3c-1,0-1.3-1.5-1.3-2.2
						C62.7,38.5,62.6,37.9,63.1,37.5z"/>
					<path class="st3" d="M73.5,49.8c0,0-0.5-0.4-0.5-0.5c-0.2-0.3-0.5-0.6-0.7-0.9c-0.3-0.4-0.6-0.9-0.9-1.3
						c-0.6-0.9-1.2-1.8-1.8-2.7c-1.2-1.8-2.5-3.5-3.9-5.1c-0.1-0.1-0.2,0-0.2,0c-0.1,0.1-0.1,0.1-0.1,0.2c-0.2-0.6-0.3-1.1-0.9-1.6
						c-0.1-0.1-0.3-0.2-0.5-0.3c0.7,0.3,1.3,0.7,1.6,1.3c0.4,0.3,0.7,0.7,1,1c1.2,1.2,2.2,2.7,3.2,4.1C70.8,45.3,73,48.9,73.5,49.8
						C73.5,49.7,73.5,49.8,73.5,49.8z"/>
					<path class="st3" d="M82.1,48.3c-0.9-0.4-1.8-0.9-2.7-1.2c-0.8-0.3-1.4-0.3-2.2,0c0,0,0.1-0.1,0.1-0.1c0.2-0.1,0.4-0.3,0.7-0.3
						c0,0,0,0,0,0c0,0,0,0,0,0c0.2-0.1,0.5-0.1,0.6,0c0.1,0,0.1,0.1,0.2,0.2c0.2,0.1,0.4,0.1,0.6,0.2c0.7,0.4,1.5,0.7,2.3,1
						c0.9,0.4,1.8,0.7,2.7,1.2c0,0,0,0,0,0C83.7,49,82.9,48.7,82.1,48.3z"/>
					<path class="st4" d="M63.1,37.5c0.1-0.1,0.1-0.1,0.2-0.1c0,0,0,0,0,0c0.2,0,0.5,0.1,0.6,0.2c0.1,0.1,0.3,0.1,0.4,0.2
						c-0.2,0.6,0.1,1.5,0.3,2c0,0.1,0.2,0.1,0.2,0c0.2-0.3,0.4-0.7,0.5-1.2c0.1,0.7,0,1.5,0.4,2.1c0.6,0.8,1.3,1.5,2,2.3
						c1.5,1.6,2.9,3.3,3.9,5.2c0.3,0.5,0.5,1,0.7,1.5c0.1,0.2,0.1,0.5,0.3,0.7c0.2,0.2,0.5,0.3,0.7,0.1c0.2-0.2,0.2-0.5,0.2-0.8
						c0,0,0,0.1,0.1,0.1c0,0,0,0,0.1,0c0.1,0.4,0.2,0.8,0.6,0.8c0.6-0.1,1.1-0.8,1.5-1.2c0.8-0.7,1.7-1.4,2.4-2.2
						c0.2-0.2,0.2-0.4,0.1-0.5c0.1,0,0.3,0,0.4,0.1c0.1,0,0.1,0.1,0.2,0.2c0,0,0,0,0.1,0c0.2,0.3,0.4,0.6,0.9,0.8
						c0.9,0.3,1.8,0.5,2.7,0.9c0.6,0.2,1.2,0.7,1.8,0.8c0,0,0.1,0,0.1,0c0,0.8-1.5-0.2-1.8-0.4c-0.7-0.4-1.6-0.5-2.4-0.8
						c-0.4-0.2-0.8-0.1-1.2-0.3c-0.2-0.1-0.4-0.2-0.6-0.2c-0.2,0.2-0.4,0.3-0.6,0.5c-0.7,0.5-1.3,1.2-2,1.7
						c-0.5,0.4-1.2,1.1-1.9,1.2c0,0.3-0.4,0.5-0.7,0.4c-0.5-0.1-0.7-0.5-1-0.9c-0.3-0.4-3.3-5.2-3.8-5.8c-0.7-0.8-1.2-1.6-2-2.3
						c-0.6-0.5-1.2-1-1.6-1.6c-0.3,0.2-0.6,0.3-0.9,0.3c-1,0-1.3-1.5-1.3-2.2C62.7,38.5,62.6,37.9,63.1,37.5z"/>
				</g>
				<g>
					<g>
						<path class="st2" d="M74.4,77.4C74.4,77.5,74.4,77.5,74.4,77.4c0,0.1-0.1,0.1-0.1,0.1c0,0.1,0,0.1,0.1,0.2
							c0.1,0.2,0.1,0.3,0.1,0.5c0.1,0.3,0.1,0.4,0,0.6c-0.1,0.2-0.2,0.3-0.2,0.4c0,0,0,0.1,0.1,0.1c0.2-0.1,0.3-0.2,0.4-0.3
							c0.1-0.2,0.1-0.3,0.3-0.2c0.1,0,0.4,0.4,0.6,0.3c0.1,0-0.7-0.8-0.8-1c-0.1-0.2-0.1-0.4-0.1-0.6c0,0,0-0.1,0-0.1
							C74.5,77.4,74.5,77.4,74.4,77.4z"/>
						<g>
							<g>
								<path class="st5" d="M65.5,67.5c0.2-0.4-0.2-1.8-0.4-2.4c-0.1-0.5-0.2-1-0.3-1.4c0-0.2-0.1-1.1-0.4-0.4
									c-0.4,0.8-0.5,2-0.6,3c-0.1-0.4-0.2-0.7-0.2-1.1c0-1,0.1-1.9,0.2-2.8c0-0.5,0.1-1.1,0.2-1.6c0,0,0-0.1,0-0.1
									c0-0.2,0.1-0.3,0.1-0.4c0.1-0.3,0.1-0.5,0.1-0.7c0-0.1,0.1,0,0.1,0.1c0,0.2,0,0.1-0.1,0.4c0,0.1,0,0.1-0.1,0.2
									c0.5-0.2,1.2,2.7,1.3,2.9c0.5,1,0.7,2.4,1,3.5c0.3,1.2,0.6,2.5,0.9,3.7c0.5,2.6,1,5.1,1.4,7.7c0.3,2.2,1,4.5,1.2,6.6
									c0.1,0.5,0.3,0.9,0.3,1.1c0.2,1.2,0.5,2.4,0.7,3.6c0.1,0.5,0.4,1.6,0.1,2c-0.2,0.2-0.6,0-0.8,0.2c-0.1,0-0.1,0.1-0.2,0.2
									c-0.1,0.1-0.3,0.2-0.4,0.4c0-0.5,0.2-1,0.4-1.5c0.5-0.2,0.2-1,0.2-1.4c0-0.8-0.2-1.7-0.3-2.5c0-0.3-0.1-0.7-0.1-1
									c-0.5-0.2-0.8-0.2-1.1,0.4c-0.1,0.1-0.1,0.3-0.2,0.4c0-0.2-0.1-0.3-0.1-0.5c0.1-0.5,0.1-1,0.1-1.5c0.2-0.4,0.4-0.5,0.3-1.2
									c-0.1-0.4-0.2-0.7-0.3-1c-0.1-0.5-0.2-1.7-0.6-1.1c-0.2,0.3-0.4,0.8-0.6,1.1c-0.1-0.3-0.2-0.5-0.2-0.8
									c0-0.4,0.1-0.7,0.2-1.1c0.2-0.9,1-1,0.6-2.2c-0.2-0.5-0.3-2.2-0.9-1.6c-0.3,0.3-0.5,0.8-0.6,1.2c-0.1,0.1-0.2,0.1-0.2-0.2
									c0-0.4,0-0.7,0-1.1c0-0.3,0-0.7,0.1-1c0.1-0.3,0.3-0.6,0.5-0.9c0.4-0.6,0.2-1.2,0-1.9c-0.3-1-0.4-2.1-0.7-3.1
									c-0.2-0.5-0.4-0.1-0.6,0.2c-0.3,0.4-0.5,0.9-0.6,1.5c-0.1-0.2-0.2-0.5-0.2-0.8c0.1-0.6,0.2-1.3,0.4-1.8
									C65,68.1,65.3,67.8,65.5,67.5z"/>
								<path class="st6" d="M71.6,60.2c0,0,0.8,0,0.9,0.4c0,0.1-0.2,1.2-0.1,2.3c0.6,4.2,2.4,14,2.4,14s0.6,1.2,0,1.4
									c-0.6,0.2-0.6,0.1-0.7-1.4c-0.1-1.5-3.2-12.6-3.2-12.6L71.6,60.2z"/>
								<path class="st6" d="M71.6,60.2c0,0,0.8,0,0.9,0.4c0,0.1-0.2,1.2-0.1,2.3c0.1,0.9,0.3,2.2,0.6,3.5c0.1,2.6,0.6,5.3,1.1,7.9
									c0.1,0.8,0.3,1.5,0.4,2.3c0.1,0.6,0.1,1.1,0.1,1.7c-0.3,0-0.3-0.3-0.4-1.5c-0.1-1.5-3.2-12.6-3.2-12.6L71.6,60.2z"/>
								<path class="st3" d="M74.6,93.3c0,0,1.2,3.1-1.1,3.1c-2.3,0-1.9-1.4-2.2-4.3c-0.3-2.9-1.1-31.8-1.1-31.8s1.4-1.9,2.2,0.1
									c0.5,1.1-0.5,1.9-0.2,2.8C72.5,64,74.6,93.3,74.6,93.3z"/>
								<path class="st3" d="M74.6,93.7c0,0,1.2,3.1-1.1,3.2c-2.3,0-1.9-1.4-2.2-4.4c-0.3-2.9-1.1-32.2-1.1-32.2s1.4-1.9,2.2,0.1
									c0.5,1.1-0.5,1.9-0.2,2.8C72.5,64.1,74.6,93.7,74.6,93.7z"/>
								<path class="st3" d="M70.2,60.3c0,0,0.9-1.2,1.6-0.7c-0.2,0.1-0.3,0.3-0.4,0.4c-0.1,0.2-0.3,0.5-0.3,0.8
									c0,0.1,0,0.3,0.1,0.4c0.3,0.3,0.2,0.7,0.1,1.1c-0.3,1-0.1,2.5,0.1,3.5c0.9,5.8,1.5,11.7,2.3,17.5c0.4,5.7,0.7,10.4,0.7,10.4
									s1.2,3.1-1.1,3.2c-2.3,0-1.9-1.4-2.2-4.4C71,89.6,70.2,60.3,70.2,60.3z"/>
								<path class="st3" d="M63.5,59.4c-0.2-1.9-0.3-4.3,0.2-6.1c0.4-1.5,1.8-1.1,2.8-0.5c1.1,0.7,4.3,5.2,4.9,12.2
									c0,0,2.8,26.7,3.2,28.3c0.4,1.9-0.5,3.2-1.9,2.6c-0.5-0.2-1-0.7-1.3-1.3c-0.5-1-5.3-22.9-6.6-28.1
									C64.2,64.2,63.7,61.8,63.5,59.4z"/>
								<path class="st7" d="M71.4,71.4c-0.7-3.3-1.5-6.5-2.2-9.8c-0.4-1.5-0.6-3-1-4.6c-0.2-0.9-0.4-1.9-0.4-2.8
									c1.4,1.9,3.2,5.7,3.6,10.8c0,0,0.9,8.6,1.8,16.3C72.6,78.1,72,74.7,71.4,71.4z"/>
								<path class="st6" d="M63.7,53.3c0.2-0.9,0.8-1.1,1.4-1c0.2,3,0.8,5.9,1.3,8.9c0.7,4.1,1.4,8.3,2.1,12.4
									c0.8,4.2,1.5,8.4,2.3,12.6c0.3,1.5,0.5,3,0.8,4.6c0.1,1,0.2,1.9-0.2,2.8c-0.1,0.4-0.2,0.7-0.1,1.1
									c-0.7-2.3-5.3-22.9-6.5-27.9c-0.6-2.4-1.1-4.8-1.3-7.2C63.3,57.4,63.2,55.1,63.7,53.3z"/>
								<path class="st3" d="M63.5,59.4c0.2,2.4,0.7,4.8,1.3,7.2c1.3,5.2,6.1,27.1,6.6,28.1c0.3,0.6,0.8,1.1,1.3,1.3
									c1.5,0.6,2.3-0.7,1.9-2.6c-0.3-1.5-3.2-28.2-3.2-28.3c-0.6-7.1-3.9-11.6-4.9-12.2c-1-0.6-2.4-1.1-2.8,0.5
									C63.2,55.1,63.3,57.4,63.5,59.4z M71.9,93.8c0.1-0.8,1-0.7,1.5-0.4c0,0,0,0,0.1,0.1c0.4,0.2,0.7,0.6,0.7,1.1
									c0.1,1-1,1.1-1.5,0.8C72.1,95.1,71.8,94.4,71.9,93.8z M66,58.1c0.1-0.8,0.1-1.5,0.1-2.3c0-0.7,0.2-1.1,0.4-1.7
									c0-0.1,0.1-0.1,0.2,0c1.3,1,2,2.9,2.5,4.7c0.6,2,0.9,4,1.2,6c0,0.1,0,0.1,0,0.1c0.2,1.1,0.3,2.2,0.5,3.3
									c0.9,5.4,1.5,10.8,2.1,16.2c0.1,1.3,0.2,2.6,0.3,3.9c0.1,1,0.2,2,0.1,3c0,0.5-0.3,1.2-0.8,1.3c-0.4,0-0.8-0.8-1-1.2
									c-0.9-2.1-1.4-4.6-2-6.8c-0.6-2.5-1.1-5-1.7-7.6c-0.9-4.2-1.9-8.5-2.2-12.8C65.7,62,65.9,60,66,58.1z"/>
							</g>
							<g>
								<path class="st6" d="M65.6,56.3c0-0.4,0.3-0.8,0.2-1.1c0-0.1,0.1,0,0.1,0c0.1,0.4,0,0.8,0,1.1c0,0.3,0.2,0.4,0.3,0.7
									c0,0.2,0.1,0.4,0.1,0.6c0,0.2-0.2,0-0.2-0.1c-0.1-0.3-0.1-0.6-0.3-0.9C65.7,56.6,65.6,56.5,65.6,56.3z"/>
								<path class="st6" d="M66.5,60.9c0-0.2,0.1-0.4,0.1-0.6c0-0.1,0.1,0,0.1,0c0.1,0.3,0,0.7,0,1c0,0.3,0.3,0.5,0.2,0.8
									c0,0.1-0.1,0-0.1-0.1c-0.1-0.1-0.1-0.3-0.1-0.4c-0.1-0.1-0.2-0.2-0.2-0.4C66.5,61.2,66.5,61,66.5,60.9z"/>
								<path class="st6" d="M67.2,63.8C67.3,63.8,67.3,63.9,67.2,63.8c0.1,0.4-0.1,0.7,0,1c0.1,0.2,0.2,0.4,0.2,0.7
									c0,0.2-0.2,0-0.2-0.1c-0.1-0.2-0.1-0.3-0.2-0.5c0-0.1-0.1-0.2-0.1-0.3C66.9,64.3,67.2,64.1,67.2,63.8z"/>
								<path class="st6" d="M67.8,67.9c0-0.1,0-0.3,0.1-0.4c0,0,0.1,0,0.1,0.1c0,0.3-0.1,0.8,0,1.1c0.1,0.2,0.1,0.3,0.2,0.4
									c0.1,0.2,0.1,0.3,0.1,0.5c0,0.2-0.2,0-0.2-0.1C68,69.3,68,69,67.8,68.8c-0.1-0.1-0.1-0.3-0.1-0.4
									C67.7,68.2,67.7,68.1,67.8,67.9z"/>
								<path class="st6" d="M68.3,72c0.1-0.1,0.2-0.3,0.3-0.5c0,0,0.1,0,0.1,0.1c-0.1,0.3-0.2,0.7,0,1c0.2,0.3,0.3,0.6,0.3,1
									c0,0.1-0.1,0-0.1,0c-0.2-0.4-0.4-0.9-0.5-1.3C68.2,72.2,68.2,72.1,68.3,72z"/>
								<path class="st6" d="M68.9,75.3c0-0.3,0.1-0.5,0.1-0.8c0-0.1,0.1,0,0.1,0c0.1,0.3,0.1,0.7,0,0.9c-0.1,0.2,0.1,0.3,0.1,0.4
									c0.1,0.2,0.1,0.5,0.2,0.7c0,0.1-0.1,0.1-0.1,0c-0.2-0.3-0.2-0.7-0.4-1C68.9,75.4,68.9,75.4,68.9,75.3z"/>
								<path class="st6" d="M69.8,77.9C69.8,77.9,69.9,78,69.8,77.9c0,0.4-0.2,0.6,0,1c0.2,0.3,0.2,0.6,0.3,1c0.1,0.2-0.1,0-0.2,0
									c-0.1-0.2-0.1-0.3-0.2-0.5c-0.1-0.2-0.2-0.4-0.2-0.7C69.4,78.4,69.7,78.1,69.8,77.9z"/>
								<path class="st6" d="M70.2,80.6C70.2,80.6,70.3,80.6,70.2,80.6c0.2,0.3,0,0.6,0.2,0.9c0.1,0.2,0.2,0.5,0.2,0.8
									c0,0.1-0.1,0-0.1-0.1c-0.1-0.2-0.1-0.4-0.2-0.6c0-0.1-0.1-0.2-0.2-0.3C70,81,70.2,80.9,70.2,80.6z"/>
								<path class="st6" d="M70.6,83.8c-0.1-0.3,0.1-0.4,0.2-0.6c0,0,0.1,0,0.1,0.1c0,0.1,0,0.2,0,0.3c-0.1,0.2,0.1,0.5,0.1,0.6
									c0.1,0.3,0.2,0.6,0.2,0.9c0,0.2-0.3,0-0.3-0.2c0-0.2,0-0.4-0.1-0.5C70.7,84.2,70.6,84,70.6,83.8z"/>
								<path class="st6" d="M71.2,86.3c0-0.1,0.1-0.2,0-0.3c0,0,0-0.1,0-0.1c0,0,0,0,0,0c0,0,0.1,0,0.1,0.1c0,0,0,0,0,0
									c0.1,0.1,0,0.2,0.1,0.4c0,0.3,0.2,0.5,0.2,0.8c0,0.1-0.1,0-0.1-0.1c-0.1-0.2-0.2-0.4-0.2-0.6C71.2,86.5,71.2,86.4,71.2,86.3
									z"/>
								<path class="st6" d="M71.7,88.2C71.8,88.2,71.8,88.2,71.7,88.2c0,0.1,0.1,0.2,0.1,0.2c0,0.1-0.1,0-0.1,0
									C71.7,88.3,71.7,88.3,71.7,88.2z"/>
							</g>
						</g>
					</g>
					<g>
						<path class="st8" d="M67.9,56.6c0.4,1,0.7,1.9,0.9,3c0,0.1-0.1,0-0.1,0C68.4,58.5,68.2,57.6,67.9,56.6
							C67.8,56.6,67.9,56.6,67.9,56.6z"/>
						<path class="st8" d="M69.2,60.9c0.1,0.6,0.3,1.3,0.4,1.9c0,0.1-0.1,0-0.1,0C69.4,62.2,69.3,61.6,69.2,60.9
							C69.2,60.9,69.2,60.9,69.2,60.9z"/>
						<path class="st8" d="M69.7,63.9c0.3,1.9,0.8,3.8,0.9,5.7c0,0.1-0.1,0-0.1-0.1C70.2,67.6,70,65.7,69.7,63.9
							C69.7,63.8,69.7,63.8,69.7,63.9z"/>
						<path class="st8" d="M69.9,66.9c0.6,3,1.1,6,1.5,9c0,0.1-0.1,0-0.1-0.1C70.8,72.9,70.4,69.9,69.9,66.9
							C69.9,66.8,69.9,66.9,69.9,66.9z"/>
						<path class="st8" d="M70.4,73.5c0.8,3.8,1,7.7,1.8,11.6c0,0.1-0.1,0-0.1,0c-0.4-1.8-0.5-3.7-0.8-5.5
							C71,77.5,70.7,75.5,70.4,73.5C70.3,73.4,70.3,73.5,70.4,73.5z"/>
						<path class="st8" d="M71.8,80.9c0.3,2.2,0.5,4.3,0.7,6.5c0,0.1-0.1,0-0.1,0C72.2,85.2,72,83,71.8,80.9
							C71.8,80.8,71.8,80.9,71.8,80.9z"/>
						<path class="st8" d="M72.6,85.5C72.6,85.5,72.7,85.6,72.6,85.5c0,1.9,0.4,3.9,0.5,5.8c0,0.1-0.1,0-0.1-0.1
							c-0.1-1.1-0.2-2.2-0.2-3.2C72.7,87.2,72.6,86.4,72.6,85.5z"/>
						<path class="st8" d="M72.5,89.2c0.1,0.5,0.2,1.1,0.2,1.6c0,0.1-0.1,0-0.1,0C72.6,90.2,72.5,89.7,72.5,89.2
							C72.4,89.1,72.5,89.1,72.5,89.2z"/>
						<path class="st8" d="M68.3,64.2c0.5,2.9,1.4,5.8,1.9,8.8c0,0.1-0.1,0-0.1-0.1C69.5,70,68.6,67.1,68.3,64.2
							C68.2,64.1,68.3,64.1,68.3,64.2z"/>
						<path class="st8" d="M69.6,68.5c0.1,0.7,0.3,1.3,0.4,2c0,0.1-0.1,0-0.1,0C69.8,69.7,69.6,69.1,69.6,68.5
							C69.5,68.3,69.6,68.4,69.6,68.5z"/>
						<path class="st8" d="M67.5,58.8c0.3,1.1,0.6,2.3,0.7,3.5c0,0.1-0.1,0-0.1-0.1C67.9,61.1,67.6,60,67.5,58.8
							C67.4,58.8,67.4,58.8,67.5,58.8z"/>
						<path class="st8" d="M67.6,57.7c0.6,2.4,1.1,4.9,1.4,7.3c0,0.1-0.1,0-0.1,0C68.5,62.5,68.1,60.1,67.6,57.7
							C67.5,57.6,67.6,57.6,67.6,57.7z"/>
						<path class="st8" d="M67.8,63.8c0.3,1.2,0.6,2.5,0.7,3.7c0,0.1-0.1,0-0.1,0C68.2,66.2,68,65,67.8,63.8
							C67.7,63.7,67.8,63.8,67.8,63.8z"/>
						<path class="st8" d="M69,69.9c0.1,1.2,0.5,2.5,0.7,3.7c0.2,1.3,0.5,2.5,0.7,3.8c0,0.1-0.1,0-0.1-0.1c-0.2-1.3-0.5-2.5-0.7-3.8
							C69.4,72.3,69.1,71.1,69,69.9C69,69.8,69,69.8,69,69.9z"/>
						<path class="st8" d="M70.7,79.1c0.1,0.6,0.2,1.2,0.3,1.9c0,0.1-0.1,0-0.1-0.1C70.8,80.3,70.7,79.7,70.7,79.1
							C70.6,79,70.6,79,70.7,79.1z"/>
						<path class="st8" d="M71.5,77.3c0.1,0.5,0.2,1,0.2,1.5c0,0.1-0.1,0-0.1,0C71.6,78.2,71.5,77.7,71.5,77.3
							C71.4,77.2,71.4,77.2,71.5,77.3z"/>
						<path class="st8" d="M66.5,55.3C66.5,55.2,66.6,55.3,66.5,55.3c0.2,1.9,0.5,3.7,0.8,5.6c0,0.1-0.1,0-0.1,0
							C66.8,59,66.6,57.1,66.5,55.3z"/>
						<path class="st8" d="M67.4,61.1c0.1,0.8,0.3,1.6,0.4,2.3c0,0.1-0.1,0-0.1,0C67.5,62.6,67.3,61.8,67.4,61.1
							C67.3,61,67.4,61,67.4,61.1z"/>
						<path class="st8" d="M66.4,59.3c0,0.1,0.1,0.3,0.1,0.4c0,0.1,0,0.1,0,0C66.4,59.6,66.4,59.4,66.4,59.3
							C66.3,59.2,66.4,59.3,66.4,59.3z"/>
						<path class="st8" d="M67,55.4c0.1,0.3,0.1,0.7,0.2,1c0,0.1-0.1,0-0.1,0C67,56,67,55.7,67,55.4C66.9,55.3,67,55.3,67,55.4z"/>
						<path class="st8" d="M72,65C72,65,72.1,65,72,65c0,1.6,0.4,3.2,0.3,4.8c0,0.1-0.1,0-0.1-0.1c-0.1-0.9-0.1-1.9-0.2-2.8
							C72.1,66.3,72,65.6,72,65z"/>
					</g>
					<path class="st9" d="M67.1,57.9c0-0.1,0.1,0,0.1,0c0,0,0,0,0,0c0,0,0,0,0.1,0.1c0,0,0,0,0,0c0,0.1,0.1,0.1,0.1,0.2
						c0.1,0.2,0.1,0.5,0.2,0.7c0.1,0.3-0.2,0.3-0.3,0.2c-0.1-0.1-0.2-0.4-0.2-0.6C67.1,58.3,67.1,58.1,67.1,57.9z"/>
					<path class="st9" d="M68.8,63.6c0.2,0,0.3,0.3,0.3,0.5c0,0,0,0.1,0,0.1c0,0.3,0.1,0.7,0.1,1c0,0.2-0.2,0.2-0.3,0.1
						c-0.2-0.1-0.3-0.4-0.3-0.6C68.6,64.4,68.5,63.6,68.8,63.6z"/>
					<path class="st9" d="M69.6,69.1c0.1-0.1,0.2,0,0.3,0.1c0.2,0,0.4,0.8,0.4,1c0,0.3,0.1,0.7-0.2,0.8c0,0,0,0,0,0c0,0,0,0-0.1,0
						c-0.3,0-0.4-0.5-0.5-0.8C69.5,69.8,69.4,69.3,69.6,69.1z"/>
					<path class="st9" d="M67.9,69.9C67.9,69.9,67.9,69.9,67.9,69.9C67.9,69.9,67.9,69.9,67.9,69.9c0-0.1,0-0.1,0-0.1c0,0,0,0,0-0.1
						c0,0,0-0.1,0-0.1c0,0,0.1,0,0.1,0.1c0.1,0.1,0.1,0.2,0.2,0.3c0,0,0,0.1,0,0.1C68.1,70.2,68,70.1,67.9,69.9
						C68,70,67.9,70,67.9,69.9C67.9,70,67.9,69.9,67.9,69.9z"/>
					<path class="st9" d="M66.8,69.5c0-0.4,0.3-0.1,0.5,0.1c0,0,0,0.1,0.1,0.1c0.1,0.1,0.1,0.3,0.2,0.4c0.2,0.4,0.3,1.1,0,1.3
						c-0.1,0.1-0.1,0-0.2-0.1c-0.2-0.2-0.3-0.6-0.3-0.8C66.8,70.1,66.7,69.8,66.8,69.5z"/>
					<path class="st9" d="M66.8,69.8c0-0.2,0.2-0.1,0.3,0.1c0,0,0,0,0,0.1c0,0.1,0.1,0.2,0.1,0.2c0.1,0.3,0.2,0.6,0,0.8
						c0,0-0.1,0-0.1,0c-0.1-0.1-0.2-0.3-0.2-0.5C66.8,70.2,66.8,70,66.8,69.8z"/>
					<path class="st9" d="M66,65.4c0-0.1,0-0.1,0-0.2C66,65.1,66.1,65.3,66,65.4c0.1,0,0.1,0,0.1,0.1c0,0,0,0.1,0,0.1c0,0,0,0,0,0
						c0,0,0,0,0,0c0,0,0,0,0,0c0,0,0,0.1,0,0.1c0,0.1,0,0.1-0.1,0.1C66.1,65.6,66,65.5,66,65.4C66,65.4,66,65.4,66,65.4z"/>
					<path class="st9" d="M71.1,77.9c0.1,0.1,0.2,0.2,0.3,0.2c0.5-0.5,0.6-2.1,0.2-2.9c0,0,0,0,0,0c0-0.1-0.1-0.2-0.1-0.3
						c-0.1-0.1-0.2-0.3-0.3-0.3c-0.4,0-0.5,0.9-0.5,1.3C70.7,76.5,70.8,77.4,71.1,77.9z"/>
					<path class="st9" d="M71.3,77.7c0,0.1,0.1,0.1,0.2,0.1c0.3-0.3,0.3-1.2,0.1-1.7c0,0,0,0,0,0c0-0.1,0-0.1-0.1-0.2
						c0-0.1-0.1-0.2-0.2-0.2c-0.2,0-0.3,0.5-0.3,0.8C71,76.8,71.1,77.3,71.3,77.7z"/>
					<path class="st9" d="M71.8,82c0.1,0,0.1,0.1,0.1,0.2c0,0,0,0.1,0,0.2c0,0,0,0,0,0c0,0,0.1,0.2,0,0.2
						C71.8,82.6,71.8,82.2,71.8,82C71.8,82,71.8,82,71.8,82z"/>
					<path class="st9" d="M70.3,75.2C70.3,75.2,70.3,75.1,70.3,75.2C70.3,75.1,70.4,75.2,70.3,75.2c0.1,0,0.1,0,0.1,0
						c0,0.1,0.1,0.1,0,0.2c0,0,0,0.1,0,0.1c0,0.1-0.1-0.1-0.1-0.1c0,0,0,0,0,0c0,0,0,0,0,0C70.3,75.3,70.2,75.2,70.3,75.2z"/>
					<path class="st9" d="M69.1,80.6c0.1,0.1,0.2,0.5,0.4,0.4c0.1-0.1,0.1-0.2,0-0.3c0-0.1-0.1-0.2-0.1-0.3c0-0.1-0.1-0.2-0.2-0.3
						c0,0,0,0-0.1,0c0,0,0,0,0,0c0,0,0,0,0,0c0,0,0,0,0,0c0,0,0,0,0,0c0,0-0.1,0-0.1,0C68.9,80.1,69,80.4,69.1,80.6z"/>
					<path class="st9" d="M72.1,87c0,0.2,0.1,0.3,0.2,0.5c0.1,0.1,0.2,0.1,0.3,0c0.1-0.2,0.1-0.7,0.1-0.9c0-0.1-0.1-0.2-0.2-0.2
						c0-0.1-0.1-0.2-0.1-0.3c0,0-0.1-0.1-0.1-0.1C72,86.2,72.1,86.6,72.1,87z"/>
					<path class="st9" d="M72.7,90.1C72.7,90.1,72.7,90.1,72.7,90.1C72.7,90.1,72.7,90.1,72.7,90.1C72.7,90,72.7,90.1,72.7,90.1
						c0.1,0,0.2,0.1,0.1,0.1c0,0,0,0,0,0c0,0,0,0,0,0c0,0,0,0,0,0c0,0,0,0,0,0C72.7,90.3,72.7,90.2,72.7,90.1
						C72.7,90.2,72.7,90.2,72.7,90.1z"/>
					<path class="st9" d="M73.6,91.9C73.6,91.9,73.6,91.9,73.6,91.9C73.6,91.9,73.6,91.9,73.6,91.9c0,0.1,0,0.2,0,0.3
						c0,0.1,0.1,0.2,0.1,0.1c0-0.1,0-0.1,0-0.2c0-0.1,0-0.2,0-0.3c0,0-0.1-0.1-0.1,0c0,0,0,0.1,0,0.1c0,0-0.1,0-0.1,0c0,0,0,0,0,0
						C73.6,91.8,73.6,91.8,73.6,91.9z"/>
					<path class="st9" d="M72.5,91.8C72.5,91.7,72.5,91.7,72.5,91.8C72.5,91.7,72.5,91.7,72.5,91.8c0-0.1,0-0.1,0-0.1c0,0,0,0,0,0
						c0,0,0.1,0.2,0.1,0.2C72.6,91.8,72.6,91.8,72.5,91.8C72.6,91.8,72.6,91.8,72.5,91.8C72.6,91.8,72.5,91.8,72.5,91.8
						C72.5,91.8,72.5,91.8,72.5,91.8C72.5,91.8,72.5,91.8,72.5,91.8z"/>
				</g>
				<g>
					<path class="st2" d="M73.6,19.5C73.6,19.5,73.7,19.5,73.6,19.5c0.1,0,0.1,0,0.1,0c0.1,0,0.1-0.1,0.2-0.1
						c0.1-0.1,0.2-0.2,0.4-0.3c0.2-0.1,0.3-0.2,0.6-0.2c0.2,0,0.3,0.1,0.5,0.2c0.1,0,0-0.1,0-0.1c-0.1-0.2-0.3-0.3-0.5-0.3
						c-0.2-0.1-0.3-0.1-0.4-0.4c0-0.1,0-0.2-0.1-0.2c0,0-0.1-0.1-0.1-0.1c-0.1,0.1-0.1,0.2,0,0.3c0,0.2-0.1,0.4-0.2,0.5
						c-0.2,0.1-0.3,0.2-0.5,0.3c0,0-0.1,0-0.1,0.1C73.5,19.3,73.5,19.4,73.6,19.5z"/>
					<path class="st4" d="M70.7,21.2c0.4-0.2,2.2-1.7,2.3-1.9c0.3-0.4,1.3-0.4,0.9,0.3c-0.4,0.6-0.3,0-0.9,0.3
						c-0.6,0.4-2.3,2.1-2.2,2.4c0,0,0,0.4-0.2,0.5C70.3,23,69.3,21.9,70.7,21.2z"/>
					<path class="st4" d="M71.8,20.9c-0.2,0.2-0.3,0.4-0.5,0.5C71.4,21.3,71.6,21.1,71.8,20.9z"/>
					<path class="st4" d="M70.7,21.2c0.4-0.2,2.2-1.7,2.3-1.9c0.2-0.3,0.7-0.3,0.9-0.2c0,0-0.1,0-0.1,0c-0.2,0.1-0.3,0.2-0.4,0.3
						c-0.2,0.2-0.5,0.2-0.7,0.5C72,20.5,70.9,21,71,21.9c-0.2,0.2-0.2,0.4-0.2,0.4c0,0,0,0.4-0.2,0.5C70.3,23,69.3,21.9,70.7,21.2z"
						/>
					<path class="st4" d="M74,28.7l0.8,0c0,0,0.4-0.5-1.2-2.8c-1.6-2.3-2.6-3.3-2.7-4c-0.1-0.6-1.3-0.5-0.9,0.4
						C70.3,23.4,74,28.7,74,28.7z"/>
					<path class="st3" d="M74.2,27.1c-0.4-0.6-0.8-1.1-1.2-1.7c-0.4-0.6-0.9-1.2-1.3-1.9c-0.2-0.3-1-1.2-0.8-1.6c0,0,0,0.1,0,0.1
						c0.1,0.6,1.1,1.7,2.7,4c1.3,1.9,1.3,2.6,1.2,2.8C74.6,28.2,74.5,27.6,74.2,27.1z"/>
					<path class="st4" d="M70.4,21.6C70.4,21.6,70.4,21.6,70.4,21.6c-0.6,0.7,0.4,1.6,0.7,2c0.4,0.6,0.7,1.2,1.1,1.7
						c0.3,0.4,0.5,1,0.8,1.4c0.4,0.4,1.1,0.4,1.5,0.7c0.5,1,0.3,1.3,0.3,1.3l-0.8,0c0,0-3.7-5.3-4.1-6.3
						C69.7,21.8,70.1,21.5,70.4,21.6z"/>
					<path class="st4" d="M62.9,32c0,0,6.1-1.8,8.4-3.5c2.3-1.7,2.5-1.1,3.2-0.6c0.7,0.5,0.4,1.5-1.4,1.8c-1.8,0.3-9.6,3.9-9.6,3.9
						L62.9,32z"/>
					<path class="st3" d="M67.5,31.7c1.2-0.7,2.4-1.1,3.7-1.6c0.6-0.3,1.2-0.5,1.8-0.7c0.4-0.1,0.8-0.2,1.2-0.4
						c0.4-0.2,0.5-0.5,0.6-0.9c0.3,0.5-0.1,1.3-1.6,1.5c-1,0.2-3.8,1.3-6.1,2.3C67.1,31.9,67.3,31.8,67.5,31.7z"/>
					<path class="st4" d="M71.3,28.5c2.3-1.7,2.5-1.1,3.2-0.6c0.2,0.1,0.3,0.3,0.3,0.5c-0.1-0.2-0.3-0.3-0.6-0.3
						c-0.6,0-1.5-0.1-1.9,0.4c-0.4,0.4-8.2,3.8-7.8,4.6c-0.6,0.3-0.9,0.4-0.9,0.4L62.9,32C62.9,32,68.9,30.2,71.3,28.5z"/>
				</g>
			</g>
		</g>
		<g>
			<path class="st10" d="M53.6,33.7c0.1-0.2,0.2-0.4,0.3-0.7c0.2-1.2,0.5-2.3,0.3-3.5c-0.1-0.9-0.3-1.7-0.5-2.6
				c-0.1-0.6,0-1.3,0.1-2c-0.3,0.9-0.3,1.8-0.4,2.7c0.1,0.4,0.2,0.8,0.3,1.3C54.1,30.6,53.6,32.2,53.6,33.7z"/>
			<path class="st10" d="M54.2,40.1c0-1.1-0.1-2.2-0.2-3.3c0-0.5,0-1-0.1-1.4C53.8,37,53.9,38.6,54.2,40.1z"/>
		</g>
		<path class="st11" d="M53.2,20.6c-0.8,0-1.5,0.8-1.8,1.5c-0.1,0.2-0.3,0.8,0,0.9c0.3,0.1,0.8-0.6,1-0.8c0.3-0.3,0.6-0.7,0.9-1.1
			C53.3,21,53.5,20.6,53.2,20.6z"/>
		<path class="st7" d="M56.4,20.3c-0.8,0.5-1.3,1.3-1.8,2c-0.5,0.8-1.1,1.9-1,2.8c0,0.1,0.1,0,0.1-0.1
			C54.4,23.3,55.2,21.9,56.4,20.3C56.4,20.4,56.4,20.3,56.4,20.3z"/>
		<path class="st7" d="M53.8,25.6c0-0.1,0-0.1-0.1-0.1c-0.2-0.1-0.3,0.3-0.2,0.4c0,0,0,0,0.1,0c0.1,0,0.1-0.1,0.2-0.1
			C53.8,25.6,53.8,25.6,53.8,25.6z"/>
		<path class="st7" d="M53.9,30.1C53.9,30,53.8,30.1,53.9,30.1c0.2,1.9-0.6,3.7-0.8,5.6c-0.2,1.6,0,3.2,0.1,4.9c0,0,0.1,0,0.1,0
			c0.1-1.8,0.1-3.7,0.3-5.5C53.7,33.3,54.5,31.7,53.9,30.1z"/>
		<g>
			<g>
				<path class="st12" d="M51.3,39.3c-0.2,1.5-3.6,32.2-2.9,41.6c0.9,12.1,7.7,17.9,8,18.6l1.6-56.7C55.7,41.9,53.4,40.8,51.3,39.3z
					"/>
				<g>
					<path class="st13" d="M56.6,42.2c-1.8-0.7-3.4-1.6-5-2.7L51.1,40c0,0-1.6,3.5-2.3,13.4c-1.8,24.7,5.7,60.2,7,56.3
						c1.3-3.9,2.6-65,2.6-65L56.6,42.2z"/>
					<path class="st14" d="M51.7,83.3c-0.6-4.6-0.9-9.3-1.4-13.9c-0.3-2.2-0.6-4.3-0.8-6.5c-0.1-1.2,0-3.1-0.9-4
						c-0.5,24.1,6,54.5,7.2,50.8c0.1-0.4,0.3-1.4,0.4-2.9C53.7,99.2,52.7,91.2,51.7,83.3z"/>
					<path class="st6" d="M56.6,42.2c-1.2-0.5-2.3-1-3.4-1.7c0.3,5,0,10,0,15.1c0,5.6,0.3,11.3,0.7,16.9c0.4,5.5,0.9,11,1.7,16.4
						c0.4,2.5,0.8,4.9,1.2,7.4c0.9-19.1,1.6-51.6,1.6-51.6L56.6,42.2z"/>
					<path class="st15" d="M56.6,42.2c-0.6-0.2-1.2-0.5-1.8-0.8c-0.1,0.5-0.1,1-0.1,1.6c-0.5,5.7-0.6,11.4-0.4,17
						c0.2,5.8,0.7,11.5,1,17.3c0.3,5.7,0.8,11.4,1.4,17c0,0.4,0.1,0.9,0.1,1.3c0.9-19.2,1.6-50.9,1.6-50.9L56.6,42.2z"/>
					<path class="st6" d="M49.2,64.9c-0.1-8.3,0.5-17,3.3-24.8c-0.3-0.2-0.6-0.4-0.9-0.6L51.1,40c0,0-1.6,3.5-2.3,13.4
						c-1.4,18.4,2.4,42.7,5,52.4c-0.5-2.8-1-5.5-1.4-8.3C50.7,86.7,49.4,75.8,49.2,64.9z"/>
					<path class="st6" d="M49.6,51.7c0.2-1.3,0.5-5.1,2.5-4.8c1,0.1,1.6,1.1,1.9,1.9c0.6,1.1,0.9,2.4,1.2,3.6
						c0.9,4.1,1.4,8.3,1.5,12.5c0.2,4.9,0.2,9.9,0.3,14.8c0,2.5,0,5,0.1,7.5c0.7-18.8,1.2-42.4,1.2-42.4l-1.8-2.5
						c-1.8-0.7-3.4-1.6-5-2.7L51.1,40c0,0-1.6,3.5-2.3,13.4c-0.1,1.5-0.2,3.1-0.2,4.7C48.9,55.9,49.3,53.8,49.6,51.7z"/>
					<path class="st6" d="M55.4,100.2c-0.1,0.1-0.2,0.1-0.2,0c-0.8-0.9-1.2-2.1-1.5-3.3c-0.4-1.5-0.9-3.1-1.3-4.6
						c-1-3.6-1.7-7.2-2.4-10.8c-0.3-1.5-0.5-2.9-0.7-4.4c1.7,18.7,5.6,35.4,6.5,32.6c0.4-1.1,0.7-6.5,1.1-13.8
						C56.6,97.4,56.6,99.2,55.4,100.2z"/>
				</g>
				<g>
					<path class="st7" d="M51.3,48c0-0.3,0.1-0.6,0-0.9c0-0.1-0.1,0-0.1,0.1c0,0.3,0,0.6-0.1,0.9c0,0.4,0,0.7,0,1.1
						c0,0.1,0.2,0,0.2-0.1C51.3,48.7,51.3,48.4,51.3,48z"/>
					<path class="st7" d="M51.5,49.2C51.5,49.1,51.4,49.2,51.5,49.2c-0.1,0.2-0.1,0.2-0.1,0.3c0,0.1,0,0.2,0,0.3c0,0,0.1,0,0.1,0
						C51.6,49.5,51.6,49.3,51.5,49.2z"/>
					<path class="st7" d="M52.2,47.5c0-0.1-0.1,0-0.1,0c0,0.4-0.1,0.8-0.1,1.2c0,0.1,0.1,0,0.1-0.1C52.1,48.3,52.1,47.9,52.2,47.5z"
						/>
					<path class="st7" d="M50.7,53.3c0-0.3,0.1-0.7,0-1c0,0-0.1,0-0.1,0.1c0,0.3,0,0.7,0,1c0,0.4,0,0.7,0,1.1c0,0.1,0.1,0,0.1-0.1
						C50.7,54,50.7,53.6,50.7,53.3z"/>
					<path class="st7" d="M50.2,53C50.2,52.9,50.1,53,50.2,53c-0.1,0.4-0.1,0.6-0.1,0.9c0,0.1,0.1,0,0.1,0
						C50.2,53.6,50.2,53.3,50.2,53z"/>
					<path class="st7" d="M51.1,50.6c0-0.1-0.1,0-0.1,0.1c0,0.1,0,0.3,0,0.4c0,0,0,0,0.1,0c0,0,0.1-0.1,0.1-0.1
						C51.1,50.9,51.1,50.7,51.1,50.6z"/>
					<path class="st7" d="M51.6,57c0-0.4,0-0.8,0-1.2c0-0.1-0.1,0-0.1,0.1c0.1,0.4,0,0.8,0,1.3c0,0.5,0,1,0,1.5c0,0.1,0.1,0,0.1-0.1
						C51.7,58,51.7,57.5,51.6,57z"/>
					<path class="st7" d="M51.3,55.8c0-0.1-0.1,0-0.1,0.1c0,0.2,0,0.5,0,0.7c0,0.1,0.1,0,0.1,0C51.3,56.3,51.3,56.1,51.3,55.8z"/>
					<path class="st7" d="M52.3,53.5c0-0.1-0.1,0-0.1,0.1c0.1,0.2,0,0.5,0,0.7c0,0.1,0.1,0,0.1-0.1C52.3,54,52.4,53.7,52.3,53.5z"/>
					<path class="st7" d="M51.7,51.7C51.7,51.7,51.6,51.7,51.7,51.7c-0.1,0.4,0,0.7-0.1,1c0,0.1,0.1,0,0.1,0
						C51.8,52.4,51.7,52,51.7,51.7z"/>
					<path class="st7" d="M52.8,57.3C52.8,57.2,52.7,57.3,52.8,57.3c-0.1,1.5-0.1,2.9,0,4.3c0,0.1,0.1,0,0.1-0.1
						C52.8,60.1,52.8,58.7,52.8,57.3z"/>
					<path class="st7" d="M52.4,59.7C52.4,59.7,52.3,59.8,52.4,59.7c-0.1,0.8-0.1,1.5,0,2.2c0,0.1,0.1,0,0.1-0.1
						C52.5,61.2,52.4,60.5,52.4,59.7z"/>
					<path class="st7" d="M51.5,58.8C51.5,58.7,51.4,58.8,51.5,58.8c0,2,0.1,4,0.3,6c0,0.1,0.1,0,0.1-0.1
						C51.9,62.7,51.7,60.7,51.5,58.8z"/>
					<path class="st7" d="M50.8,58.6C50.8,58.6,50.7,58.6,50.8,58.6c0,0.6-0.1,1.2,0,1.8c0,0.1,0.1,0,0.1,0
						C50.9,59.8,50.8,59.2,50.8,58.6z"/>
					<path class="st7" d="M50.2,56.2C50.2,56.1,50.1,56.2,50.2,56.2c-0.2,1.8-0.1,3.5,0,5.2c0,0.1,0.1,0,0.1-0.1
						C50.2,59.6,50.1,57.9,50.2,56.2z"/>
					<path class="st7" d="M50.5,63C50.5,62.9,50.4,63,50.5,63c0,0.9,0.1,1.7,0.2,2.5c0,0.1,0.1,0,0.1-0.1
						C50.7,64.6,50.6,63.8,50.5,63z"/>
					<path class="st7" d="M51.1,63.5C51,63.4,51,63.5,51.1,63.5c-0.1,0.4-0.1,0.8,0,1.1c0,0.1,0.1,0,0.1-0.1
						C51.1,64.2,51.1,63.9,51.1,63.5z"/>
					<path class="st7" d="M50.6,62.2c-0.1-0.3,0-0.6-0.1-0.8c0-0.1-0.1,0-0.1,0.1C50.5,61.7,50.5,62,50.6,62.2
						C50.6,62.3,50.6,62.2,50.6,62.2z"/>
					<path class="st7" d="M50.6,67.9c-0.1-0.6-0.1-1.2-0.2-1.8c0,0-0.1,0-0.1,0.1c0.2,1.3,0.2,2.6,0.5,3.9c0,0.1,0.1,0,0.1-0.1
						C50.8,69.2,50.7,68.6,50.6,67.9z"/>
					<path class="st7" d="M51.2,67.5c0-0.1-0.1,0-0.1,0.1c0,0.5,0.1,1.1,0.1,1.7c0,0.1,0.1,0,0.1-0.1C51.3,68.6,51.3,68,51.2,67.5z"
						/>
					<path class="st7" d="M52.3,67.9c0-0.1-0.1,0-0.1,0.1c0,0.4,0,0.8,0,1.2c0,0.1,0.1,0,0.1-0.1C52.3,68.7,52.3,68.3,52.3,67.9z"/>
					<path class="st7" d="M52.3,71.3c0-0.1-0.1,0-0.1,0.1c0,1.6,0.2,3.2,0.4,4.8c0,0.1,0.1,0,0.1-0.1C52.6,74.5,52.4,72.9,52.3,71.3
						z"/>
					<path class="st7" d="M51.9,72.4C51.9,72.3,51.8,72.4,51.9,72.4c0,0.6,0,1.2,0.1,1.8c0,0.1,0.1,0,0.1,0
						C52,73.5,52,72.9,51.9,72.4z"/>
					<path class="st7" d="M52.8,69.9C52.8,69.8,52.7,69.9,52.8,69.9c-0.1,0.4-0.1,0.7-0.1,1c0,0.1,0.1,0,0.1-0.1
						C52.9,70.5,52.9,70.2,52.8,69.9z"/>
					<path class="st7" d="M55.5,47.8C55.5,47.7,55.4,47.8,55.5,47.8c-0.2,3.1-0.3,6.2,0,9.3c0,0.1,0.1,0,0.1-0.1
						C55.5,53.9,55.4,50.8,55.5,47.8z"/>
					<path class="st7" d="M55.9,60.2c0-2.6,0.1-5.2,0.2-7.8c0-0.1-0.1,0-0.1,0c-0.2,5.1-0.3,10.2-0.3,15.3c0,0.1,0.1,0,0.1-0.1
						C55.9,65.2,55.9,62.7,55.9,60.2z"/>
					<path class="st7" d="M57.3,51.2C57.3,51.2,57.2,51.2,57.3,51.2c0.1,3.2-0.2,6.4-0.3,9.6c0,0.1,0.1,0,0.1-0.1
						C57.3,57.6,57.5,54.3,57.3,51.2z"/>
					<path class="st7" d="M56.6,58.3C56.6,58.2,56.5,58.3,56.6,58.3c0.1,3.3,0,6.4-0.1,9.6c0,0.1,0.1,0,0.1-0.1
						C56.9,64.6,56.9,61.4,56.6,58.3z"/>
					<path class="st7" d="M56.9,69.4C56.9,69.3,56.9,69.4,56.9,69.4c-0.1,2-0.1,3.9,0,5.8c0,0.1,0.1,0,0.1-0.1
						C57,73.2,57,71.3,56.9,69.4z"/>
					<path class="st7" d="M56.4,48.2C56.4,48.1,56.3,48.2,56.4,48.2c0,1.3,0,2.5,0.1,3.7c0,0.1,0.1,0,0.1-0.1
						C56.5,50.6,56.5,49.4,56.4,48.2z"/>
					<path class="st7" d="M57.4,48.9C57.4,48.9,57.4,48.9,57.4,48.9c0,0.3-0.1,0.6,0,0.9c0,0,0.1,0,0.1,0
						C57.4,49.5,57.4,49.2,57.4,48.9z"/>
					<path class="st7" d="M57.9,52.3C57.9,52.2,57.8,52.3,57.9,52.3c-0.1,1.5-0.1,3-0.1,4.5c0,0.1,0.1,0,0.1,0
						C57.8,55.2,57.8,53.7,57.9,52.3z"/>
					<path class="st7" d="M54.9,58.3C54.9,58.2,54.9,58.3,54.9,58.3c-0.1,4.5,0.4,9,0.8,13.4c0,0.1,0.1,0,0.1-0.1
						C55.6,67.2,55,62.7,54.9,58.3z"/>
					<path class="st7" d="M56.5,74.2c-0.1-1.5-0.1-3-0.3-4.5c0-0.1-0.1,0-0.1,0c0.2,1.5,0.2,3,0.3,4.5c0.1,1.6,0.2,3.1,0.3,4.7
						c0,0,0.1,0,0.1,0C56.7,77.3,56.6,75.8,56.5,74.2z"/>
					<path class="st7" d="M55.6,72.7C55.6,72.6,55.6,72.7,55.6,72.7c0.3,3.8,0.4,7.6,0.9,11.4c0,0.1,0.1,0,0.1,0
						C56.2,80.3,56.1,76.4,55.6,72.7z"/>
					<path class="st7" d="M56.4,85.4c-0.1-0.6-0.1-1.1-0.2-1.7c0,0-0.1,0-0.1,0.1c0.2,0.6,0.1,1.3,0.2,1.9c0.1,0.6,0.2,1.2,0.2,1.7
						c0,0.1,0.1,0,0.1,0C56.6,86.7,56.5,86.1,56.4,85.4z"/>
					<path class="st7" d="M56.9,81.2C56.9,81.2,56.8,81.2,56.9,81.2c-0.1,0.5,0,1,0.1,1.4c0,0,0.1,0,0.1-0.1
						C57,82.1,56.9,81.7,56.9,81.2z"/>
					<path class="st7" d="M53.8,74.8c-0.1-1.7-0.2-3.5-0.3-5.2c-0.1-0.8-0.2-1.5-0.2-2.2c-0.1-0.9-0.1-1.7-0.2-2.6c0,0-0.1,0-0.1,0
						c0.1,0.7,0.1,1.5,0.1,2.2c0.1,0.9,0.2,1.8,0.2,2.6c0.1,1.7,0.2,3.5,0.4,5.2c0.3,3.4,0.5,6.9,0.9,10.3c0,0.1,0.1,0,0.1,0
						C54.4,81.7,54.1,78.2,53.8,74.8z"/>
					<path class="st7" d="M54.2,85.4c-0.3-2.1-0.6-4.1-0.9-6.2c0,0-0.1,0-0.1,0c0.4,4,1.1,7.9,1.6,11.9c0,0.1,0.1,0,0.1,0
						C54.8,89.2,54.4,87.3,54.2,85.4z"/>
					<path class="st7" d="M51.5,75.4C51.5,75.4,51.4,75.4,51.5,75.4c0.2,2.3,0.5,4.5,0.8,6.7c0.3,2.3,0.4,4.6,0.8,6.9
						c0,0.1,0.1,0,0.1-0.1C52.7,84.4,52,80,51.5,75.4z"/>
					<path class="st7" d="M53.6,89.5C53.5,89.5,53.5,89.5,53.6,89.5c0.2,1.7,0.4,3.4,0.7,5c0,0,0.1,0,0.1-0.1
						C54.1,92.8,53.8,91.2,53.6,89.5z"/>
					<path class="st7" d="M54.5,93.2C54.5,93.2,54.5,93.3,54.5,93.2c0.1,0.6,0.1,1.1,0.2,1.7c0,0.1,0.1,0,0.1,0
						C54.8,94.3,54.7,93.8,54.5,93.2z"/>
					<path class="st7" d="M55,93.1c-0.2-1.1-0.4-2.2-0.5-3.4c-0.1-1.2-0.4-2.3-0.5-3.5c0,0-0.1,0-0.1,0c0.1,1,0.3,2.1,0.5,3.1
						c0.1,1,0.2,2,0.4,3c0.4,2.2,1,4.4,1.4,6.6c0,0.1,0.1,0,0.1-0.1C55.9,97.1,55.4,95.1,55,93.1z"/>
					<path class="st7" d="M55.8,93.6C55.8,93.5,55.7,93.6,55.8,93.6c0,0.9,0.2,1.7,0.3,2.5c0,0.1,0.1,0,0.1-0.1
						C56.2,95.2,56,94.4,55.8,93.6z"/>
					<path class="st7" d="M55.4,100.2c-0.2-1.1-0.5-2.2-0.6-3.3c0-0.1-0.1,0-0.1,0C54.8,98.1,55,99.2,55.4,100.2
						C55.3,100.3,55.4,100.3,55.4,100.2z"/>
					<path class="st7" d="M52.8,46.9C52.8,46.9,52.8,46.9,52.8,46.9c-0.2,1.6-0.2,3.2-0.2,4.8c-0.1,1.9,0,3.7,0.2,5.6
						c0,0.1,0.1,0,0.1-0.1C52.8,53.8,52.7,50.4,52.8,46.9z"/>
					<path class="st7" d="M49.7,52.3c0.3-2.4,0.7-4.7,1.3-7c0-0.1-0.1,0-0.1,0c-0.7,2.4-1.1,4.9-1.4,7.4c-0.1,1-0.1,2-0.2,3.1
						c0,1-0.2,2.1,0,3.1c0,0.1,0.1,0,0.1-0.1c-0.1-0.9,0-1.9,0.1-2.8C49.5,54.8,49.6,53.6,49.7,52.3z"/>
				</g>
			</g>
			<path class="st7" d="M51,71.6c-0.4-3.4-0.4-6.9-0.5-10.4c0-1.8-0.1-3.6-0.1-5.5c0-1.9,0.2-3.9,0.3-5.8c0-0.1-0.1,0-0.2,0.1
				c-0.3,1.9-0.7,3.8-0.8,5.7c-0.1,1.8,0,3.5,0,5.3c0,3.6,0.1,7.2,0.4,10.8c0.3,3.6,0.6,7.2,1,10.8c0.5,3.6,0.9,7.2,1.7,10.7
				c0,0.1,0.2,0,0.2-0.1C52,86,51.8,78.8,51,71.6z"/>
		</g>
		<g>
			<g>
				<path class="st12" d="M63.3,39.2c0.2,1.5,3.8,32.2,3.2,41.6c-0.8,12.1-7.6,18-7.9,18.6l-2-56.7C59,41.9,61.3,40.8,63.3,39.2z"/>
				<g>
					<path class="st13" d="M58.1,42.2c1.7-0.7,3.4-1.6,5-2.8l0.5,0.5c0,0,1.6,3.5,2.4,13.4c2,24.7-5.2,60.3-6.6,56.4
						c-1.3-3.9-3.1-65-3.1-65L58.1,42.2z"/>
					<path class="st14" d="M63.3,83.2c0.6-4.6,0.8-9.3,1.3-13.9c0.2-2.2,0.5-4.3,0.7-6.5c0.1-1.2,0-3.1,0.9-4
						c0.7,24.1-5.6,54.5-6.9,50.9c-0.1-0.4-0.3-1.4-0.4-2.9C61.4,99.2,62.3,91.1,63.3,83.2z"/>
					<path class="st6" d="M58.1,42.2c1.2-0.5,2.3-1.1,3.4-1.7c-0.2,5,0.1,10,0.1,15.1c0,5.6-0.3,11.3-0.6,16.9
						c-0.3,5.5-0.8,11-1.6,16.4c-0.3,2.5-0.7,4.9-1.2,7.4c-1-19.1-2-51.6-2-51.6L58.1,42.2z"/>
					<path class="st15" d="M58.1,42.2c0.6-0.2,1.2-0.5,1.8-0.8c0.1,0.5,0.1,1,0.2,1.6c0.5,5.6,0.7,11.4,0.5,17
						c-0.2,5.8-0.6,11.5-0.9,17.3c-0.3,5.7-0.7,11.4-1.3,17c0,0.4-0.1,0.9-0.1,1.3c-1-19.2-1.9-50.8-1.9-50.8L58.1,42.2z"/>
					<path class="st6" d="M65.6,64.8c0.1-8.3-0.6-17-3.4-24.8c0.3-0.2,0.6-0.4,0.9-0.6l0.5,0.5c0,0,1.6,3.5,2.4,13.4
						c1.5,18.4-2.1,42.7-4.6,52.4c0.5-2.8,1-5.5,1.4-8.3C64.4,86.7,65.5,75.7,65.6,64.8z"/>
					<path class="st6" d="M65.1,51.6c-0.2-1.3-0.5-5.1-2.6-4.8c-1,0.1-1.5,1.1-1.9,1.9c-0.5,1.2-0.9,2.4-1.2,3.6
						c-0.9,4.1-1.3,8.3-1.4,12.5c-0.1,4.9-0.2,9.9-0.2,14.8c0,2.5,0,5,0,7.5c-0.8-18.8-1.5-42.4-1.5-42.4l1.8-2.5
						c1.7-0.7,3.4-1.6,5-2.8l0.5,0.5c0,0,1.6,3.5,2.4,13.4c0.1,1.5,0.2,3.1,0.3,4.7C65.9,55.9,65.5,53.7,65.1,51.6z"/>
					<path class="st6" d="M59.7,100.2c0.1,0.1,0.2,0.1,0.2,0c0.8-0.9,1.2-2.1,1.5-3.3c0.4-1.6,0.9-3.1,1.3-4.6
						c0.9-3.6,1.7-7.2,2.3-10.9c0.3-1.5,0.5-2.9,0.7-4.4c-1.5,18.7-5.4,35.4-6.3,32.7c-0.4-1.1-0.8-6.5-1.2-13.8
						C58.5,97.4,58.5,99.2,59.7,100.2z"/>
				</g>
				<g>
					<path class="st7" d="M63.4,48c0-0.3-0.1-0.6,0-0.9c0-0.1,0.1,0,0.1,0.1c0,0.3,0,0.6,0.1,0.9c0,0.3,0,0.7,0,1.1
						c0,0.1-0.2,0-0.2-0.1C63.4,48.7,63.4,48.3,63.4,48z"/>
					<path class="st7" d="M63.2,49.1C63.2,49.1,63.3,49.1,63.2,49.1c0.1,0.2,0.1,0.2,0.1,0.3c0,0.1,0,0.2,0,0.3c0,0-0.1,0-0.1,0
						C63.1,49.5,63.2,49.3,63.2,49.1z"/>
					<path class="st7" d="M62.6,47.4c0-0.1,0.1,0,0.1,0c0,0.4,0.1,0.8,0.1,1.2c0,0.1-0.1,0-0.1-0.1C62.6,48.2,62.6,47.8,62.6,47.4z"
						/>
					<path class="st7" d="M64.1,53.2c0-0.3-0.1-0.7,0-1c0,0,0.1,0,0.1,0.1c0,0.3,0,0.7,0.1,1c0,0.4,0,0.7,0,1.1c0,0.1-0.1,0-0.1-0.1
						C64.1,54,64.1,53.6,64.1,53.2z"/>
					<path class="st7" d="M64.6,52.9C64.6,52.9,64.6,52.9,64.6,52.9c0.1,0.4,0.1,0.6,0.1,0.9c0,0.1-0.1,0-0.1,0
						C64.5,53.5,64.5,53.2,64.6,52.9z"/>
					<path class="st7" d="M63.7,50.5c0-0.1,0.1,0,0.1,0.1c0,0.1,0,0.3,0,0.4c0,0,0,0-0.1,0c0,0-0.1-0.1-0.1-0.1
						C63.7,50.8,63.7,50.7,63.7,50.5z"/>
					<path class="st7" d="M63.2,57c0-0.4,0-0.8,0-1.2c0-0.1,0.1,0,0.1,0.1c-0.1,0.4,0,0.8,0,1.3c0,0.5,0,1,0,1.5
						c0,0.1-0.1,0-0.1-0.1C63.1,57.9,63.1,57.5,63.2,57z"/>
					<path class="st7" d="M63.5,55.8c0-0.1,0.1,0,0.1,0.1c0,0.2,0,0.5,0,0.7c0,0.1-0.1,0-0.1,0C63.5,56.3,63.5,56,63.5,55.8z"/>
					<path class="st7" d="M62.5,53.4c0-0.1,0.1,0,0.1,0.1c-0.1,0.2,0,0.5,0,0.7c0,0.1-0.1,0-0.1-0.1C62.5,53.9,62.4,53.7,62.5,53.4z
						"/>
					<path class="st7" d="M63.1,51.7C63.1,51.6,63.1,51.7,63.1,51.7c0.1,0.4,0,0.7,0.1,1c0,0.1-0.1,0-0.1,0C63,52.3,63,52,63.1,51.7
						z"/>
					<path class="st7" d="M62,57.3C62,57.2,62.1,57.3,62,57.3c0.1,1.5,0.2,2.9,0.1,4.3c0,0.1-0.1,0-0.1-0.1C62,60.1,62,58.7,62,57.3
						z"/>
					<path class="st7" d="M62.4,59.7C62.4,59.7,62.5,59.7,62.4,59.7c0.1,0.8,0.1,1.5,0,2.2c0,0.1-0.1,0-0.1-0.1
						C62.4,61.1,62.4,60.4,62.4,59.7z"/>
					<path class="st7" d="M63.3,58.7C63.3,58.7,63.4,58.7,63.3,58.7c0,2-0.1,4-0.3,6c0,0.1-0.1,0-0.1-0.1
						C63,62.7,63.2,60.7,63.3,58.7z"/>
					<path class="st7" d="M64,58.6C64,58.5,64.1,58.6,64,58.6c0.1,0.6,0.1,1.2,0,1.8c0,0.1-0.1,0-0.1,0C63.9,59.7,64,59.2,64,58.6z"
						/>
					<path class="st7" d="M64.6,56.1C64.6,56.1,64.7,56.2,64.6,56.1c0.2,1.8,0.2,3.5,0,5.2c0,0.1-0.1,0-0.1-0.1
						C64.6,59.6,64.7,57.9,64.6,56.1z"/>
					<path class="st7" d="M64.4,62.9C64.4,62.9,64.5,62.9,64.4,62.9c0,0.9,0,1.7-0.2,2.5c0,0.1-0.1,0-0.1-0.1
						C64.2,64.6,64.2,63.8,64.4,62.9z"/>
					<path class="st7" d="M63.8,63.5C63.8,63.4,63.9,63.5,63.8,63.5c0.1,0.4,0.1,0.8,0,1.1c0,0.1-0.1,0-0.1-0.1
						C63.8,64.2,63.8,63.8,63.8,63.5z"/>
					<path class="st7" d="M64.2,62.1c0.1-0.3,0-0.6,0.1-0.8c0-0.1,0.1,0,0.1,0.1C64.4,61.7,64.4,61.9,64.2,62.1
						C64.3,62.3,64.2,62.2,64.2,62.1z"/>
					<path class="st7" d="M64.3,67.8c0.1-0.6,0.1-1.2,0.2-1.8c0,0,0.1,0,0.1,0.1c-0.2,1.3-0.2,2.6-0.4,3.9c0,0.1-0.1,0-0.1-0.1
						C64,69.2,64.2,68.5,64.3,67.8z"/>
					<path class="st7" d="M63.6,67.4c0-0.1,0.1,0,0.1,0.1c0,0.6-0.1,1.1-0.1,1.7c0,0.1-0.1,0-0.1-0.1C63.6,68.5,63.6,68,63.6,67.4z"
						/>
					<path class="st7" d="M62.6,67.9c0-0.1,0.1,0,0.1,0.1c0,0.4,0,0.8,0,1.2c0,0.1-0.1,0-0.1-0.1C62.6,68.7,62.6,68.3,62.6,67.9z"/>
					<path class="st7" d="M62.6,71.3c0-0.1,0.1,0,0.1,0.1c0,1.6-0.2,3.2-0.4,4.8c0,0.1-0.1,0-0.1-0.1C62.3,74.5,62.5,72.9,62.6,71.3
						z"/>
					<path class="st7" d="M63.1,72.3C63.1,72.3,63.1,72.4,63.1,72.3c0,0.6,0,1.2-0.1,1.8c0,0.1-0.1,0-0.1,0
						C62.9,73.5,63,72.9,63.1,72.3z"/>
					<path class="st7" d="M62.1,69.8C62.1,69.8,62.2,69.8,62.1,69.8c0.1,0.4,0.1,0.7,0.1,1c0,0.1-0.1,0-0.1-0.1
						C62,70.5,62,70.2,62.1,69.8z"/>
					<path class="st7" d="M59.3,47.7C59.3,47.7,59.4,47.7,59.3,47.7c0.3,3.1,0.3,6.2,0.1,9.3c0,0.1-0.1,0-0.1-0.1
						C59.3,53.9,59.4,50.8,59.3,47.7z"/>
					<path class="st7" d="M58.9,60.2c-0.1-2.6-0.1-5.2-0.2-7.8c0-0.1,0.1,0,0.1,0c0.2,5.1,0.4,10.2,0.4,15.3c0,0.1-0.1,0-0.1-0.1
						C58.9,65.2,59,62.7,58.9,60.2z"/>
					<path class="st7" d="M57.5,51.2C57.5,51.2,57.6,51.2,57.5,51.2c0,3.2,0.3,6.4,0.3,9.6c0,0.1-0.1,0-0.1-0.1
						C57.5,57.6,57.3,54.3,57.5,51.2z"/>
					<path class="st7" d="M58.2,58.2C58.2,58.2,58.3,58.3,58.2,58.2c-0.1,3.3,0.1,6.4,0.1,9.6c0,0.1-0.1,0-0.1-0.1
						C58,64.6,58,61.4,58.2,58.2z"/>
					<path class="st7" d="M57.9,69.4C57.9,69.3,58,69.4,57.9,69.4c0.1,2,0.2,3.9,0,5.8c0,0.1-0.1,0-0.1-0.1
						C57.9,73.2,58,71.3,57.9,69.4z"/>
					<path class="st7" d="M58.3,48.2C58.3,48.1,58.4,48.2,58.3,48.2c0.1,1.3,0,2.5,0,3.7c0,0.1-0.1,0-0.1-0.1
						C58.2,50.6,58.3,49.4,58.3,48.2z"/>
					<path class="st7" d="M57.3,48.9C57.3,48.9,57.4,48.9,57.3,48.9c0,0.3,0.1,0.6,0,0.9c0,0-0.1,0-0.1,0
						C57.3,49.5,57.3,49.2,57.3,48.9z"/>
					<path class="st7" d="M56.9,52.3C56.9,52.2,57,52.3,56.9,52.3c0.2,1.5,0.2,3,0.1,4.5c0,0.1-0.1,0-0.1,0
						C57,55.2,57,53.7,56.9,52.3z"/>
					<path class="st7" d="M59.9,58.2C59.9,58.2,60,58.2,59.9,58.2c0.1,4.5-0.4,9-0.7,13.4c0,0.1-0.1,0-0.1-0.1
						C59.3,67.1,59.8,62.7,59.9,58.2z"/>
					<path class="st7" d="M58.4,74.2c0.1-1.5,0.1-3,0.3-4.5c0-0.1,0.1,0,0.1,0c-0.2,1.5-0.2,3-0.3,4.5c-0.1,1.6-0.2,3.1-0.3,4.7
						c0,0-0.1,0-0.1,0C58.3,77.3,58.4,75.8,58.4,74.2z"/>
					<path class="st7" d="M59.3,72.7C59.3,72.6,59.3,72.7,59.3,72.7c-0.2,3.8-0.4,7.6-0.8,11.4c0,0.1-0.1,0-0.1,0
						C58.8,80.2,58.9,76.4,59.3,72.7z"/>
					<path class="st7" d="M58.6,85.4c0.1-0.6,0-1.1,0.2-1.7c0,0,0.1,0,0.1,0.1c-0.2,0.6-0.1,1.3-0.2,1.9c-0.1,0.6-0.2,1.2-0.2,1.7
						c0,0.1-0.1,0-0.1,0C58.4,86.7,58.5,86.1,58.6,85.4z"/>
					<path class="st7" d="M58.1,81.2C58.1,81.2,58.2,81.2,58.1,81.2c0.1,0.5,0.1,1-0.1,1.4c0,0-0.1,0-0.1-0.1
						C58,82.1,58,81.7,58.1,81.2z"/>
					<path class="st7" d="M61.1,74.8c0.1-1.7,0.2-3.5,0.3-5.2c0.1-0.8,0.1-1.5,0.2-2.2c0.1-0.9,0-1.7,0.2-2.6c0,0,0.1,0,0.1,0
						c-0.1,0.7-0.1,1.5-0.1,2.2c-0.1,0.9-0.2,1.8-0.2,2.6c-0.1,1.7-0.2,3.5-0.3,5.2c-0.3,3.4-0.4,6.9-0.9,10.3c0,0.1-0.1,0-0.1,0
						C60.6,81.6,60.9,78.2,61.1,74.8z"/>
					<path class="st7" d="M60.9,85.4c0.3-2.1,0.6-4.1,0.8-6.2c0,0,0.1,0,0.1,0c-0.3,4-1,7.9-1.5,11.9c0,0.1-0.1,0-0.1,0
						C60.3,89.2,60.6,87.3,60.9,85.4z"/>
					<path class="st7" d="M63.4,75.4C63.4,75.3,63.5,75.4,63.4,75.4c-0.1,2.3-0.5,4.5-0.7,6.8c-0.3,2.3-0.4,4.6-0.7,6.9
						c0,0.1-0.1,0-0.1-0.1C62.3,84.4,62.9,79.9,63.4,75.4z"/>
					<path class="st7" d="M61.5,89.5C61.5,89.5,61.6,89.5,61.5,89.5c-0.2,1.7-0.4,3.4-0.7,5c0,0-0.1,0-0.1-0.1
						C60.9,92.8,61.2,91.2,61.5,89.5z"/>
					<path class="st7" d="M60.5,93.2C60.5,93.2,60.6,93.2,60.5,93.2c-0.1,0.6-0.1,1.1-0.2,1.7c0,0.1-0.1,0-0.1,0
						C60.3,94.3,60.4,93.8,60.5,93.2z"/>
					<path class="st7" d="M60.1,93.1c0.2-1.1,0.4-2.2,0.5-3.4c0.1-1.2,0.4-2.3,0.5-3.5c0,0,0.1,0,0.1,0c-0.1,1-0.3,2.1-0.4,3.1
						c-0.1,1-0.2,2-0.4,3c-0.4,2.2-1,4.4-1.3,6.7c0,0.1-0.1,0-0.1-0.1C59.2,97,59.7,95.1,60.1,93.1z"/>
					<path class="st7" d="M59.2,93.5C59.2,93.5,59.3,93.6,59.2,93.5c0,0.9-0.2,1.7-0.3,2.5c0,0.1-0.1,0-0.1-0.1
						C58.9,95.1,59.1,94.4,59.2,93.5z"/>
					<path class="st7" d="M59.8,100.2c0.2-1.1,0.4-2.2,0.6-3.3c0-0.1,0.1,0,0.1,0C60.3,98.1,60.1,99.2,59.8,100.2
						C59.8,100.3,59.8,100.2,59.8,100.2z"/>
					<path class="st7" d="M61.9,46.9C61.9,46.9,62,46.9,61.9,46.9c0.2,1.6,0.2,3.2,0.2,4.7c0.1,1.9,0.1,3.7-0.1,5.6
						c0,0.1-0.1,0-0.1-0.1C62,53.8,62.1,50.3,61.9,46.9z"/>
					<path class="st7" d="M65.1,52.3c-0.3-2.4-0.7-4.7-1.3-7c0-0.1,0.1,0,0.1,0c0.7,2.4,1.2,4.9,1.5,7.4c0.1,1,0.2,2,0.2,3.1
						c0,1,0.2,2.1,0.1,3.1c0,0.1-0.1,0-0.1-0.1c0.1-0.9,0-1.9-0.1-2.8C65.2,54.8,65.2,53.5,65.1,52.3z"/>
				</g>
			</g>
			<path class="st7" d="M63.9,71.6c0.3-3.4,0.4-6.9,0.4-10.4c0-1.8,0-3.6,0.1-5.5c0-1.9-0.2-3.9-0.4-5.8c0-0.1,0.1,0,0.2,0.1
				c0.4,1.9,0.7,3.8,0.8,5.7c0.1,1.8,0.1,3.5,0.1,5.3c0.1,3.6,0,7.2-0.3,10.8c-0.3,3.6-0.5,7.3-1,10.9c-0.4,3.6-0.9,7.2-1.7,10.7
				c0,0.1-0.2,0-0.2-0.1C63.1,86,63.2,78.7,63.9,71.6z"/>
		</g>
		<path class="st11" d="M61.1,21.1c0.2,0.4,0.6,0.7,0.9,1.1c0.2,0.2,0.7,0.8,1,0.8c0.3-0.1,0.1-0.7,0-0.9c-0.3-0.7-1-1.4-1.8-1.5
			C60.9,20.6,61,21,61.1,21.1z"/>
		<g>
			<path class="st3" d="M63.2,21.9c-1-1.8-3.6-2-3.6-2c-0.2-1.2-4.6-1.1-4.8,0c0,0-2.6,0.2-3.6,2c-1,1.8,0,7.1,0,7.1l3.5,0l5,0
				l3.5,0C63.2,29,64.2,23.7,63.2,21.9z"/>
			<path class="st16" d="M56.7,26.6c-1.5,0-2.6,0.9-4,1.3c-0.6,0.1-1.1,0.2-1.7,0c0.1,0.7,0.2,1.2,0.2,1.2l12,0c0,0,0.1-0.6,0.2-1.4
				C61.1,27.7,59,26.5,56.7,26.6z"/>
			<path class="st6" d="M62.2,27c-1.4-0.7-2.5-1.5-4.2-1.4c-1.6,0.1-3.3,0.6-4.7,1.4c-0.4,0.2-1,0.6-1.5,0.6c-0.3,0-0.6,0-0.9-0.1
				c0.1,1,0.2,1.6,0.2,1.6l12,0c0,0,0.1-0.7,0.2-1.6C63,27.4,62.6,27.2,62.2,27z"/>
			<path class="st16" d="M63.2,21.9c-1-1.8-3.6-2-3.6-2c0-0.1-0.1-0.2-0.1-0.3c-0.2,0.2-0.4,0.4-0.6,0.3c-0.7-0.2-1.2-0.5-2-0.3
				c-0.6,0.2-1.4,0.4-1.8,0c-0.1,0.1-0.2,0.2-0.2,0.3c0,0-2.6,0.2-3.6,2c-0.3,0.6-0.4,1.7-0.4,2.9c0.3,0.4,0.8,0.7,1.3,0.7
				c0.8,0.1,1.5-0.1,2.2-0.5c1-0.5,2.1-1.1,3.3-1c1.1,0.1,2.1,0.5,3,1.1c1.1,0.6,2.3,0.3,3-0.6C63.6,23.5,63.5,22.5,63.2,21.9z"/>
			<path class="st11" d="M54.4,20.7c0.8,0.6,0.8,2.1-0.1,3.2c-0.9,1.1-2.2,1.5-3.1,0.9c-0.8-0.6-0.8-2.1,0.1-3.2
				C52.2,20.5,53.6,20.1,54.4,20.7z"/>
			<path class="st11" d="M54.4,20.7c-0.3-0.3-0.8-0.3-1.3-0.3c0,0,0.1,0,0.1,0c1,0.5,0.5,2-0.1,2.7c-0.5,0.6-2,1.7-2.4,0.4
				c-0.1-0.2-0.1-0.4,0-0.6c-0.2,0.8,0,1.5,0.5,1.9c0.8,0.6,2.2,0.2,3.1-0.9C55.2,22.8,55.3,21.4,54.4,20.7z"/>
			<path class="st11" d="M59.9,20.7c-0.8,0.6-0.8,2.1,0.1,3.2c0.9,1.1,2.3,1.5,3.1,0.9c0.8-0.6,0.8-2.1-0.1-3.2
				C62.1,20.5,60.8,20.1,59.9,20.7z"/>
			<path class="st11" d="M61.4,23.4c-0.5-0.5-1.4-1.7-1-2.5c0.2-0.3,0.4-0.5,0.7-0.5c-0.4-0.1-0.8,0-1.2,0.3
				c-0.8,0.6-0.8,2.1,0.1,3.2c0.9,1.1,2.3,1.5,3.1,0.9c0.2-0.1,0.3-0.3,0.4-0.5C62.8,24.7,61.8,23.9,61.4,23.4z"/>
			<g>
				<g>
					<path class="st17" d="M80.4,6.7c0.2-0.3,0-0.3-0.2-0.2c-1.7,1.4-11,9.3-15.1,10.6c-3.7,1.1-5.3,2.6-5.8,3.2
						c0,0.1,0.1,0.1,0.3-0.1c0.3-0.2,0.6-0.5,0.8-0.7c0.6-0.4,1.3-0.8,1.9-1.1c0.2-0.1,0.4-0.2,0.6-0.2c0.6-0.3,1.4-0.6,2.2-0.8
						c1.9-0.6,5.2-2.6,9.5-6C75.9,10.6,80.1,7.2,80.4,6.7z"/>
				</g>
				<g>
					<path class="st17" d="M34.1,6.9c-0.2-0.3,0-0.3,0.2-0.2c1.7,1.4,11,9.2,15.2,10.5c3.7,1.1,5.3,2.6,5.8,3.2
						c0,0.1-0.1,0.1-0.3-0.1c-0.3-0.2-0.6-0.5-0.8-0.7c-0.6-0.4-1.3-0.8-1.9-1.1c-0.2-0.1-0.4-0.2-0.6-0.2c-0.6-0.3-1.4-0.6-2.2-0.8
						c-2-0.6-5.2-2.6-9.6-5.9C38.6,10.8,34.3,7.3,34.1,6.9z"/>
				</g>
			</g>
			<path class="st7" d="M59.5,21.1c-0.8-1-1.5-1.3-2-1.3l0,0c0,0-0.1,0-0.2,0c-0.1,0-0.2,0-0.2,0l0,0c-0.4,0.1-1.2,0.4-1.9,1.3
				C54,22.7,52.3,26,53,27.9c0.5,1.4,3,1.5,4.3,1.4c1.3,0.1,3.8,0,4.3-1.4C62.3,25.9,60.7,22.7,59.5,21.1z"/>
			<path class="st18" d="M61.5,25.2c0,0.1-0.1,0.2-0.1,0.3c-0.9,1.3-3,0.3-4.2,0.3c-1.2,0-2.1,0.5-3.2,0.7c-0.5,0.1-0.8-0.5-0.8-0.9
				c0-0.1,0-0.2,0-0.4c-0.3,1-0.4,2-0.1,2.7c0.5,1.4,3,1.5,4.3,1.4c1.3,0.1,3.8,0,4.3-1.4C61.9,27.1,61.8,26.1,61.5,25.2z"/>
			<path class="st10" d="M57.6,21c0.7,0,1.5,0.5,2,1c0.6,0.7,1.2,1.4,1.6,2.2c-0.5-1.2-1.2-2.3-1.8-3.1c-0.8-1-1.5-1.3-2-1.3l0,0
				c0,0-0.1,0-0.2,0c-0.1,0-0.2,0-0.2,0l0,0c-0.4,0.1-1.2,0.4-1.9,1.3c-0.6,0.8-1.4,2.1-1.9,3.4c0.2-0.4,0.4-0.7,0.7-1
				c0.7-1,1.6-2.2,2.8-2.5C57.1,21,57.3,21,57.6,21z"/>
			<g>
				<path class="st3" d="M50.3,36c0,0.1,0,0.2-0.1,0.3c-0.5,1.2-1.3,2.3-1.2,4.1c0.1,4.5,8.5,5.5,8.5,5.5c3.3,0,8.2-3.8,8.4-5.5
					c0.3-1.8-0.8-2.9-1.3-4.1C54.9,40.6,50.3,36,50.3,36z"/>
				<path class="st19" d="M49.8,37c0.7-0.3,1.8,0.4,2.4,0.7c2.3,0.9,4.6,1.2,7,0.8c1.1-0.2,2.2-0.4,3.2-0.8c0.7-0.2,1.5-0.8,2.3-0.6
					c0.2,0.1,0.4,0.1,0.6,0.3c-0.2-0.4-0.4-0.8-0.6-1.1C54.9,40.6,50.3,36,50.3,36c0,0.1,0,0.2-0.1,0.3C50.1,36.5,50,36.7,49.8,37
					C49.8,37,49.8,37,49.8,37z"/>
				<path class="st6" d="M63.2,40.7c0.1-1.3,0.4-2.7,0.4-4c-6.4,2.6-10.4,1.2-12.2,0.1c0,2.5,1.1,5.1,1.1,7.6c2.4,1.1,5,1.4,5,1.4
					c1.8,0,4.1-1.1,5.8-2.4C63.1,42.5,63.1,41.6,63.2,40.7z"/>
				<path class="st7" d="M62.1,40.7c0-1.2-0.2-2.3-0.3-3.5c-3.8,1.2-6.6,0.9-8.5,0.3c0,1.1-0.2,2.2-0.2,3.3c0,1.3,0.1,2.6,0.4,3.9
					c2,0.8,4,1,4,1c1.3,0,2.9-0.6,4.3-1.5C62,43.1,62.1,41.9,62.1,40.7z"/>
				<path class="st6" d="M53.2,42.2c0-0.7,0-1.5,0.3-2.1c0.7-1.3,2.4-1.3,3.8-1.3c0.9,0,2,0,2.9,0.2c0.6,0.1,1.1,0.4,1.4,1
					c0.3,0.6,0.4,1.2,0.5,1.9c0-0.3,0-0.7,0-1c0-1.2-0.2-2.3-0.3-3.5c-3.8,1.2-6.6,0.9-8.5,0.3c0,1.1-0.2,2.2-0.2,3.3
					c0,0.6,0,1.2,0.1,1.9C53.2,42.5,53.2,42.4,53.2,42.2z"/>
				<path class="st6" d="M64.7,29c-0.4-1.9-2.2,0-3.3-1.4c-1.1-1.4-3.1-1.2-3.1-1.2l-1.8,0c0,0-1.9-0.2-3,1.2
					c-1.1,1.4-2.9-0.5-3.3,1.4c-0.4,1.8,0.4,5.4,0.1,6.9c0,0,4.6,4.7,14.4,0.2C64.2,35,65.1,30.9,64.7,29z"/>
				<path class="st3" d="M64.7,29c-0.4-1.9-2.2,0-3.3-1.4c-1.1-1.4-3.1-1.2-3.1-1.2l-1.8,0c0,0-1.9-0.2-3,1.2
					c-1.1,1.4-2.9-0.5-3.3,1.4c-0.4,1.8,0.4,5.4,0.1,6.9c0,0,4.6,4.7,14.4,0.2C64.2,35,65.1,30.9,64.7,29z"/>
				<path class="st16" d="M50.2,29.1c0.5-0.4,1.3-0.1,2-0.2c1-0.1,1.5-1,2.3-1.4c0.7-0.4,1.4-0.6,2.2-0.6c0.9-0.1,1.9,0,2.8,0.4
					c1,0.4,1.7,1.4,2.9,1.3c0.7-0.1,1.5-0.2,2,0.4c0.1,0.1,0.2,0.2,0.3,0.3c0-0.1,0-0.1,0-0.2c-0.4-1.9-2.2,0-3.3-1.4
					c-1.1-1.4-3.1-1.2-3.1-1.2l-1.8,0c0,0-1.9-0.2-3,1.2C52.3,29.1,50.6,27.2,50.2,29.1C50.2,29.1,50.2,29.1,50.2,29.1
					C50.2,29.1,50.2,29.1,50.2,29.1z"/>
				<path class="st6" d="M63.5,35.7c-0.2-2.5-1.4-5-1.1-7.5c-0.4,0-0.7-0.2-1.1-0.6c-1.1-1.4-3.1-1.2-3.1-1.2l-1.8,0
					c0,0-1.9-0.2-3,1.2c-0.3,0.3-0.5,0.5-0.8,0.5c0.1,0.9,0,1.8-0.2,2.7c-0.5,1.8-1,3.8-1,5.7c0,0.1,0,0.1,0,0.2
					c1.8,1,5.8,2.5,12.2-0.1C63.6,36.3,63.6,36,63.5,35.7z"/>
				<path class="st7" d="M61.5,31.9c-0.3-1.4-0.2-2.7,0-4c-0.1-0.1-0.1-0.1-0.2-0.2c-1.1-1.4-3.1-1.2-3.1-1.2l-1.8,0
					c0,0-1.9-0.2-3,1.2c-0.1,0.1-0.2,0.2-0.2,0.2c0.1,0.6,0.3,1.2,0.4,1.8c0.1,0.8,0.1,1.5,0,2.3c-0.3,1.9-0.4,3.7-0.2,5.6
					c1.9,0.6,4.7,0.8,8.5-0.3C61.8,35.4,61.9,33.7,61.5,31.9z"/>
				<path class="st6" d="M61.5,28c-0.5,0.6-0.9,1.4-0.8,2.3c0.1,1.4,0.5,2.8,0.4,4.2c-0.1,0.8-0.2,1.9-1,2.4
					c-0.7,0.4-1.5,0.6-2.3,0.7c-1.6,0.1-4.1-0.2-4-2.4c0.1-1.2,0.4-2.4,0.4-3.6c-0.1-1.2-0.4-2.1-0.9-3.1c0.1,0.4,0.2,0.8,0.3,1.3
					c0.1,0.8,0.1,1.5,0,2.3c-0.3,1.9-0.4,3.7-0.2,5.6c1.9,0.6,4.7,0.8,8.5-0.3c0-1.8,0-3.6-0.3-5.4C61.3,30.5,61.3,29.3,61.5,28z"/>
				<path class="st6" d="M65.8,38.4c0,0.1,0,0.1,0,0.2c0,0.5-0.2,1-0.4,1.5c-0.4,1-0.9,1.8-1.8,2.4c-1.8,1.4-4,2.3-6.3,2.2
					c-2.3-0.1-4.5-0.8-6.4-2.1c-0.7-0.6-1.6-1.4-1.9-2.3c0-0.2-0.1-0.4-0.1-0.5c0,0.2,0,0.4,0,0.5c0.1,4.5,8.5,5.5,8.5,5.5
					c3.3,0,8.2-3.8,8.4-5.5C66.1,39.6,66,39,65.8,38.4z"/>
			</g>
			<g>
				<path class="st20" d="M56.7,22.5C56.7,22.4,56.6,22.5,56.7,22.5c0,0.6-0.1,1.2-0.2,1.7c-0.1,0.7-0.2,1.4-0.3,2.1
					c-0.2,1.4-0.4,2.9-0.5,4.3c-0.3,2.8,0.2,5.6,0.1,8.4c0,0.1,0.1,0,0.1,0c0.2-1.4,0.1-2.8,0.1-4.3c0-1.5,0-3.1,0.1-4.6
					c0.1-1.4,0.3-2.9,0.5-4.3C56.7,24.8,57,23.5,56.7,22.5z"/>
				<path class="st20" d="M55.9,40.7C55.9,40.6,55.8,40.7,55.9,40.7c-0.1,1.4-0.2,2.8,0.1,4.1c0,0.1,0.2,0,0.2-0.1
					C56.4,43.4,56,42,55.9,40.7z"/>
				<path class="st20" d="M55.1,35C55.1,34.9,55,35,55.1,35c0,1-0.1,1.9-0.1,2.9c0.1,1.2,0.2,2.5,0.4,3.7c0,0,0,0,0,0
					C55.1,39.3,55.3,37.1,55.1,35z"/>
				<path class="st20" d="M55.9,23.7c-0.1,0.8-0.3,1.5-0.5,2.3c-0.2,0.8-0.3,1.7-0.3,2.6c-0.1,1.7-0.2,3.3-0.2,5c0,0,0.1,0,0.1,0
					c0.1-1.7,0.2-3.3,0.3-5c0.1-0.8,0.1-1.7,0.3-2.6C55.7,25.2,56,24.5,55.9,23.7C56,23.7,55.9,23.7,55.9,23.7z"/>
				<path class="st20" d="M54.6,27.8C54.6,27.8,54.6,27.9,54.6,27.8c-0.2,3.5-0.5,7-0.1,10.5c0,0,0,0,0,0
					C54.4,34.8,54.6,31.3,54.6,27.8z"/>
			</g>
			<g>
				<path class="st20" d="M57.5,22.3C57.5,22.3,57.6,22.4,57.5,22.3c0,0.6,0.2,1.2,0.2,1.7c0.1,0.7,0.2,1.4,0.3,2.1
					c0.2,1.4,0.4,2.8,0.6,4.3c0.3,2.8-0.2,5.6,0,8.4c0,0.1-0.1,0-0.1,0c-0.2-1.4-0.1-2.8-0.1-4.3c-0.1-1.5,0-3.1-0.2-4.6
					c-0.1-1.4-0.3-2.9-0.5-4.3C57.5,24.7,57.1,23.4,57.5,22.3z"/>
				<path class="st20" d="M58.4,40.5C58.4,40.5,58.5,40.6,58.4,40.5c0.1,1.4,0.2,2.8,0,4.1c0,0.1-0.2,0-0.2-0.1
					C58,43.3,58.3,41.8,58.4,40.5z"/>
				<path class="st20" d="M59.2,34.8C59.2,34.8,59.2,34.9,59.2,34.8c0,1,0.1,1.9,0.1,2.9c0,1.2-0.1,2.5-0.3,3.7c0,0,0,0,0,0
					C59.1,39.2,59,37,59.2,34.8z"/>
				<path class="st20" d="M58.3,23.6c0.1,0.8,0.3,1.5,0.5,2.3c0.2,0.8,0.3,1.7,0.3,2.6c0.2,1.7,0.2,3.3,0.2,5c0,0-0.1,0-0.1,0
					c-0.1-1.7-0.2-3.3-0.3-5c-0.1-0.8-0.1-1.7-0.3-2.6C58.5,25.1,58.2,24.3,58.3,23.6C58.2,23.6,58.3,23.6,58.3,23.6z"/>
				<path class="st20" d="M59.6,27.7C59.6,27.7,59.6,27.7,59.6,27.7c0.2,3.5,0.5,7,0.2,10.5c0,0,0,0,0,0
					C59.9,34.7,59.6,31.2,59.6,27.7z"/>
			</g>
			<path class="st20" d="M61.6,36.2C61.6,36.2,61.5,36.2,61.6,36.2c-0.2,1.1-0.3,2.1-0.3,3.2c0.1,1.3,0.1,2.6,0,3.9
				c0,0.1,0.1,0,0.1,0C61.9,41,61.9,38.6,61.6,36.2z"/>
			<path class="st20" d="M53.5,37.2C53.5,37.2,53.5,37.2,53.5,37.2c0,2.2-0.1,4.3,0.6,6.3c0,0.1,0.1,0,0.1-0.1
				C53.8,41.4,53.9,39.3,53.5,37.2z"/>
		</g>
		<g>
			<path class="st10" d="M61.3,26.1c0-0.2-0.1-0.4-0.1-0.6c-0.2-0.5-0.3-0.9-0.5-1.4c0.2,0.9,0.4,1.9,0.3,2.8
				c-0.1,0.9-0.4,1.7-0.4,2.6c-0.1,1.3,0.3,2.7,0.4,4.1c0.1-0.3,0.1-0.6,0.1-0.9c-0.1-1.2-0.4-2.5-0.1-3.7
				C61.1,28.1,61.4,27.1,61.3,26.1z"/>
			<path class="st10" d="M60.7,40c0.1-0.6,0.2-1.3,0.3-1.9c0.1-0.9,0-1.8-0.1-2.7c-0.1,0.5-0.1,0.9-0.1,1.4
				c-0.1,1.2-0.1,2.3-0.2,3.5c0,0,0,0,0,0C60.6,40.3,60.6,40.1,60.7,40z"/>
		</g>
		<path class="st7" d="M61.1,30C61.2,30,61.2,30,61.1,30c-0.2,1.9,0.6,3.7,0.8,5.6c0.2,1.6,0,3.2,0,4.9c0,0-0.1,0-0.1,0
			c-0.1-1.8-0.1-3.7-0.3-5.5C61.3,33.3,60.5,31.7,61.1,30z"/>
	</g>
</g>
</svg>
