<?xml version="1.0" encoding="utf-8"?>
<!-- Generator: Adobe Illustrator 27.4.0, SVG Export Plug-In . SVG Version: 6.00 Build 0)  -->
<svg version="1.1"
	 id="svg1155" xmlns:rdf="http://www.w3.org/1999/02/22-rdf-syntax-ns#" xmlns:sodipodi="http://sodipodi.sourceforge.net/DTD/sodipodi-0.dtd" xmlns:cc="http://creativecommons.org/ns#" xmlns:svg="http://www.w3.org/2000/svg" xmlns:dc="http://purl.org/dc/elements/1.1/" xmlns:inkscape="http://www.inkscape.org/namespaces/inkscape"
	 xmlns="http://www.w3.org/2000/svg" xmlns:xlink="http://www.w3.org/1999/xlink" x="0px" y="0px" viewBox="0 0 1885.2 1044"
	 style="enable-background:new 0 0 1885.2 1044;" xml:space="preserve">
<style type="text/css">
	.st0{fill:#A9D04A;}
	.st1{fill:#903E37;}
	.st2{clip-path:url(#SVGID_00000143602706306581829810000009424557718980290456_);}
	.st3{fill:#EE4439;}
	.st4{fill:#F06157;}
	.st5{fill:#F37E63;}
	.st6{fill:#0D2F4B;}
	.st7{fill:#AA1E38;}
	.st8{fill:#BF1F3D;}
	.st9{fill:#EE4966;}
	.st10{fill:#008356;}
	.st11{fill:#00AB7E;}
	.st12{fill:#27B793;}
	.st13{fill:#F58A2F;}
	.st14{fill:#FFCC02;}
	.st15{fill:#FFDF93;}
	.st16{fill:#FFFFFF;}
	.st17{fill:#FAAC18;}
	.st18{fill:#ED325B;}
	.st19{fill:#9B1B33;}
	.st20{fill:#C3E1F5;}
	.st21{fill:#F287A2;}
	.st22{fill:#F3782D;}
	.st23{fill:none;stroke:#FFFFFF;stroke-width:0.8919;stroke-miterlimit:10;}
	.st24{fill:#752C29;}
	.st25{fill:#0076BA;}
	.st26{fill:#00A1DA;}
	.st27{fill:#C9655F;}
	.st28{fill:#0095CF;}
	.st29{fill:#3BC0E7;}
	.st30{fill:#071D2F;}
	.st31{fill:#234466;}
	.st32{fill:#BA514F;}
	.st33{fill:#F7AB9D;}
	.st34{fill:#5C1D1A;}
</style>
<sodipodi:namedview  bordercolor="#666666" borderopacity="1" fit-margin-bottom="0" fit-margin-left="0" fit-margin-right="0" fit-margin-top="0" gridtolerance="10" guidetolerance="10" id="namedview1157" inkscape:current-layer="svg1155" inkscape:cx="1653.6255" inkscape:cy="622.97496" inkscape:pageopacity="0" inkscape:pageshadow="2" inkscape:window-height="705" inkscape:window-maximized="1" inkscape:window-width="1366" inkscape:window-x="-8" inkscape:window-y="-8" inkscape:zoom="0.22807476" objecttolerance="10" pagecolor="#ffffff" showgrid="false" showguides="false">
	</sodipodi:namedview>
<defs>
	
		<inkscape:path-effect  apply_no_weight="true" apply_with_weight="true" effect="bspline" helper_size="0" id="path-effect1851" is_visible="true" only_selected="false" steps="2" weight="33.333333">
		</inkscape:path-effect>
	
		<inkscape:path-effect  apply_no_weight="true" apply_with_weight="true" effect="bspline" helper_size="0" id="path-effect1851-6" is_visible="true" only_selected="false" steps="2" weight="33.333333">
		</inkscape:path-effect>
	
		<inkscape:path-effect  apply_no_weight="true" apply_with_weight="true" effect="bspline" helper_size="0" id="path-effect1851-6-5" is_visible="true" only_selected="false" steps="2" weight="33.333333">
		</inkscape:path-effect>
</defs>
<g>
	<rect x="-13.1" y="-56.4" class="st0" width="1898.3" height="1100.4"/>
	<path class="st1" d="M1141.3-26.7L1141.3-26.7C1141.3-26.7,1141.3-26.6,1141.3-26.7C1141.3-26.6,1141.3-26.7,1141.3-26.7z"/>
	<g>
		<defs>
			<rect id="SVGID_1_" x="-13.1" y="-221.3" width="1898.3" height="1265.3"/>
		</defs>
		<clipPath id="SVGID_00000111886075241658997210000002118209978379550387_">
			<use xlink:href="#SVGID_1_"  style="overflow:visible;"/>
		</clipPath>
		<g style="clip-path:url(#SVGID_00000111886075241658997210000002118209978379550387_);">
			<g>
				<g>
					<path class="st3" d="M1022.3,888.4c-0.4,20.3-5.5,39.4-14.1,56.3c-1.6,3.1-3.3,6.1-5.1,9.1c-19.8,32.2-53.3,55.1-92.3,60.6
						c-3.4,0.5-6.8,0.8-10.3,1.1c-3.6,0.2-7.2,0.3-10.9,0.2c-25-0.5-48.2-8-67.8-20.7c-3.1-2-6.2-4.2-9.1-6.5
						c-10.8-8.4-20.2-18.4-27.9-29.7c-7.2-10.6-12.9-22.2-16.7-34.7c-1-3.2-1.9-6.5-2.6-9.8c-2.3-10-3.4-20.5-3.1-31.3
						c0.4-21.9,6.3-42.4,16.2-60.3c1.7-3.1,3.6-6.1,5.5-9.1c13.3-19.9,31.8-35.9,53.7-46c3-1.4,6.1-2.7,9.3-3.9
						c14.9-5.5,31.1-8.4,47.9-8.1c17.2,0.4,33.5,4,48.4,10.4c3.5,1.5,7,3.2,10.3,5c3.4,1.8,6.7,3.8,9.8,5.9
						c21.3,14,38.3,34.1,48.4,57.8c1.3,3.1,2.5,6.2,3.6,9.4C1020.2,858,1022.6,872.9,1022.3,888.4z"/>
					<path class="st1" d="M1022.3,888.4c-0.4,20.3-5.5,39.4-14.1,56.3c-1.6,3.1-3.3,6.1-5.1,9.1c-19.8,32.2-53.3,55.1-92.3,60.6
						c-3.4,0.5-6.8,0.8-10.3,1.1c-3.6,0.2-7.2,0.3-10.9,0.2c-25-0.5-48.2-8-67.8-20.7c-3.1-2-6.2-4.2-9.1-6.5
						c-10.8-8.4-20.2-18.4-27.9-29.7c18.1,18.9,52.9,46.7,98.3,44.6c68.2-3.2,102.4-42.7,109.8-57.5c7-13.8,45.7-93-29.4-168.9
						c21.3,14,38.3,34.1,48.4,57.8c1.3,3.1,2.5,6.2,3.6,9.4C1020.2,858,1022.6,872.9,1022.3,888.4z"/>
					
						<ellipse transform="matrix(0.2627 -0.9649 0.9649 0.2627 -200.5038 1475.2349)" class="st4" cx="865" cy="868.8" rx="95" ry="95"/>
					<path class="st5" d="M885.7,849.1c-0.6,29-24.6,52-53.6,51.4c-29-0.6-52-24.6-51.4-53.6c0.6-29,24.6-52,53.6-51.4
						C863.3,796.1,886.3,820.1,885.7,849.1z"/>
					<path class="st6" d="M864.4,881.4c55.6,32.8,96.7,53.2,143.8,63.2c-1.6,3.1-3.3,6.1-5.1,9.1c-46.8-10.4-88-30.8-142.8-63.2
						c-2-1.2-4.5-0.4-5.5,1.7c-5.4,11.2-9.9,21.8-13.7,31.6c-0.5,1.4,0,2.9,1.3,3.6c15.7,8.8,30.2,22,42.8,39
						c10.5,14.2,19.3,30.7,25.7,47.8c-3.4,0.5-6.8,0.8-10.3,1.1c-6-15.4-14-30.2-23.4-43c-8.5-11.5-20.9-25.1-37.3-34.9
						c-1.6-1-3.7-0.2-4.3,1.6c-3.9,11.6-6.7,21.7-8.7,29.8c-2.6,10.9-4.1,19.6-4.9,26c-2.2-1.4-4.3-2.9-6.4-4.4
						c-0.9-0.7-1.8-1.4-2.8-2.1c0.8-5.2,2-11.6,3.8-19.2c2.2-9.4,5.4-21.4,10.2-35.3c0.5-1.5-0.2-3.2-1.7-3.7
						c-4-1.5-8.1-2.8-12.4-3.7c-15.8-3.5-31-3.8-44.5-2.5c-1-3.2-1.9-6.5-2.6-9.8c14.5-1.5,31.5-1.5,49.2,2.5
						c4.6,1,9.1,2.4,13.6,4.1c1.5,0.6,3.2-0.2,3.8-1.7c4-10.4,8.9-21.6,14.7-33.5c0.7-1.4,0.2-3.2-1.1-4.1
						c-16.2-10.5-37.2-26.1-56.5-46.8c-4.2-4.5-7.7-8.6-10.6-12.1c1.7-3.1,3.6-6.1,5.5-9.1c3.1,3.9,7.3,8.9,12.6,14.6
						c10.8,11.5,28.4,28,53.1,44.1c1.6,1,3.7,0.5,4.5-1.1c8.5-15.8,17.4-29.6,26.3-41.7c1.2-1.6,0.8-3.8-0.8-4.9
						c-4.3-2.9-8.3-6-12.1-9.4c-14.6-13-25-29.8-29.9-47.5c3-1.4,6.1-2.7,9.3-3.9c4.2,16.3,13.7,31.9,27.2,44
						c3.7,3.3,7.7,6.4,12,9.2c1.5,1,3.5,0.7,4.6-0.7c20.8-25.4,40.4-41.5,52.5-50.2c3.5,1.5,7,3.2,10.3,5
						c-10.5,7-30.9,22.5-53.2,49.1c-1.5,1.7-0.9,4.4,1.2,5.3c1.4,0.7,2.8,1.3,4.2,1.9c11.5,4.9,23.8,8.2,36.5,9.9
						c21.6,2.8,47.9,1.7,69.5-2.6c1.3,3.1,2.5,6.2,3.6,9.4c-16.1,3.3-34.9,5-52.7,4.6c-7.5-0.2-14.8-0.7-21.6-1.5
						c-16.9-2.2-32.9-7.1-47.1-14.2c-1.5-0.8-3.3-0.3-4.3,1c-9,12.2-18.1,26.2-26.8,42.2C862,878,862.6,880.4,864.4,881.4z"/>
				</g>
			</g>
			<g>
				<polygon class="st7" points="417.2,99.6 424.1,113.7 379.6,169.6 378.6,170.8 341.2,165 333.6,149.4 				"/>
				<path class="st8" d="M379.6,169.6l-1,1.2l-7.6-15.6c-0.7-1.9-1-4.6,0.3-2.3C374.3,157.7,377.2,164.1,379.6,169.6z"/>
				<polygon class="st8" points="333.6,149.4 371,155.2 417.2,99.6 382.9,98 				"/>
				<path class="st7" d="M338.6,141.5l2.9,5.9c0.7,1.4,3.9,1.3,7.3-0.3c3.3-1.6,5.4-4.1,4.7-5.5l-2.9-5.9L338.6,141.5z"/>
				<path class="st9" d="M350.6,135.7c0.7,1.4-1.4,3.9-4.7,5.5c-3.3,1.6-6.6,1.8-7.3,0.3c-0.7-1.4,1.4-3.9,4.7-5.5
					C346.7,134.4,349.9,134.2,350.6,135.7z"/>
				<path class="st7" d="M360.1,145.7l2.9,5.9c0.7,1.4,3.9,1.3,7.3-0.3c3.3-1.6,5.4-4.1,4.7-5.5l-2.9-5.9L360.1,145.7z"/>
				<path class="st9" d="M372,139.8c0.7,1.4-1.4,3.9-4.7,5.5c-3.3,1.6-6.6,1.8-7.3,0.3c-0.7-1.4,1.4-3.9,4.7-5.5
					C368.1,138.5,371.3,138.4,372,139.8z"/>
				<path class="st7" d="M355.6,121.7l2.9,5.9c0.7,1.4,3.9,1.3,7.3-0.3c3.3-1.6,5.4-4.1,4.7-5.5l-2.9-5.9L355.6,121.7z"/>
				<path class="st9" d="M367.5,115.9c0.7,1.4-1.4,3.9-4.7,5.5c-3.3,1.6-6.6,1.8-7.3,0.3c-0.7-1.4,1.4-3.9,4.7-5.5
					C363.6,114.6,366.8,114.4,367.5,115.9z"/>
				<path class="st7" d="M377,125.9l2.9,5.9c0.7,1.4,3.9,1.3,7.3-0.3c3.3-1.6,5.4-4.1,4.7-5.5L389,120L377,125.9z"/>
				<path class="st9" d="M389,120c0.7,1.4-1.4,3.9-4.7,5.5c-3.3,1.6-6.6,1.8-7.3,0.3c-0.7-1.4,1.4-3.9,4.7-5.5
					C385,118.8,388.3,118.6,389,120z"/>
				<path class="st7" d="M372.5,101.9l2.9,5.9c0.7,1.4,3.9,1.3,7.3-0.3c3.3-1.6,5.4-4.1,4.7-5.5l-2.9-5.9L372.5,101.9z"/>
				<path class="st9" d="M384.5,96.1c0.7,1.4-1.4,3.9-4.7,5.5c-3.3,1.6-6.6,1.8-7.3,0.3c-0.7-1.4,1.4-3.9,4.7-5.5
					C380.5,94.8,383.8,94.7,384.5,96.1z"/>
				<path class="st7" d="M393.9,106.1l2.9,5.9c0.7,1.4,3.9,1.3,7.3-0.3c3.3-1.6,5.4-4.1,4.7-5.5l-2.9-5.9L393.9,106.1z"/>
				<path class="st9" d="M405.9,100.2c0.7,1.4-1.4,3.9-4.7,5.5c-3.3,1.6-6.6,1.8-7.3,0.3c-0.7-1.4,1.4-3.9,4.7-5.5
					C401.9,99,405.2,98.8,405.9,100.2z"/>
			</g>
			<g>
				<polygon class="st7" points="1390.7,364.5 1397.6,378.6 1353,434.5 1352.1,435.7 1314.7,429.9 1307.1,414.3 				"/>
				<path class="st8" d="M1353,434.5l-1,1.2l-7.6-15.6c-0.7-1.9-1-4.6,0.3-2.3C1347.7,422.6,1350.6,429,1353,434.5z"/>
				<polygon class="st8" points="1307.1,414.3 1344.5,420.1 1390.7,364.5 1356.4,362.9 				"/>
				<path class="st7" d="M1312.1,406.4l2.9,5.9c0.7,1.4,3.9,1.3,7.3-0.3c3.3-1.6,5.4-4.1,4.7-5.5l-2.9-5.9L1312.1,406.4z"/>
				<path class="st9" d="M1324.1,400.6c0.7,1.4-1.4,3.9-4.7,5.5c-3.3,1.6-6.6,1.8-7.3,0.3c-0.7-1.4,1.4-3.9,4.7-5.5
					C1320.2,399.3,1323.4,399.1,1324.1,400.6z"/>
				<path class="st7" d="M1333.5,410.6l2.9,5.9c0.7,1.4,3.9,1.3,7.3-0.3c3.3-1.6,5.4-4.1,4.7-5.5l-2.9-5.9L1333.5,410.6z"/>
				<path class="st9" d="M1345.5,404.7c0.7,1.4-1.4,3.9-4.7,5.5c-3.3,1.6-6.6,1.8-7.3,0.3c-0.7-1.4,1.4-3.9,4.7-5.5
					C1341.6,403.5,1344.8,403.3,1345.5,404.7z"/>
				<path class="st7" d="M1329,386.6l2.9,5.9c0.7,1.4,3.9,1.3,7.3-0.3c3.3-1.6,5.4-4.1,4.7-5.5l-2.9-5.9L1329,386.6z"/>
				<path class="st9" d="M1341,380.8c0.7,1.4-1.4,3.9-4.7,5.5c-3.3,1.6-6.6,1.8-7.3,0.3c-0.7-1.4,1.4-3.9,4.7-5.5
					C1337.1,379.5,1340.3,379.4,1341,380.8z"/>
				<path class="st7" d="M1350.5,390.8l2.9,5.9c0.7,1.4,3.9,1.3,7.3-0.3c3.3-1.6,5.4-4.1,4.7-5.5l-2.9-5.9L1350.5,390.8z"/>
				<path class="st9" d="M1362.4,384.9c0.7,1.4-1.4,3.9-4.7,5.5c-3.3,1.6-6.6,1.8-7.3,0.3c-0.7-1.4,1.4-3.9,4.7-5.5
					C1358.5,383.7,1361.7,383.5,1362.4,384.9z"/>
				<path class="st7" d="M1346,366.8l2.9,5.9c0.7,1.4,3.9,1.3,7.3-0.3c3.3-1.6,5.4-4.1,4.7-5.5l-2.9-5.9L1346,366.8z"/>
				<path class="st9" d="M1357.9,361c0.7,1.4-1.4,3.9-4.7,5.5c-3.3,1.6-6.6,1.8-7.3,0.3c-0.7-1.4,1.4-3.9,4.7-5.5
					C1354,359.7,1357.3,359.6,1357.9,361z"/>
				<path class="st7" d="M1367.4,371l2.9,5.9c0.7,1.4,3.9,1.3,7.3-0.3c3.3-1.6,5.4-4.1,4.7-5.5l-2.9-5.9L1367.4,371z"/>
				<path class="st9" d="M1379.4,365.2c0.7,1.4-1.4,3.9-4.7,5.5c-3.3,1.6-6.6,1.8-7.3,0.3c-0.7-1.4,1.4-3.9,4.7-5.5
					C1375.4,363.9,1378.7,363.7,1379.4,365.2z"/>
			</g>
			<g>
				<polygon class="st7" points="1563.7,264.7 1550.1,272.4 1491.6,231.2 1490.4,230.4 1494,192.7 1509.1,184.2 				"/>
				<path class="st8" d="M1491.6,231.2l-1.2-0.9l15.1-8.5c1.9-0.9,4.5-1.3,2.4,0.2C1503.2,225.3,1497,228.5,1491.6,231.2z"/>
				<polygon class="st8" points="1509.1,184.2 1505.5,221.9 1563.7,264.7 1563.3,230.4 				"/>
				<path class="st7" d="M1517.3,188.7l-5.7,3.2c-1.4,0.8-1.1,4,0.7,7.2c1.8,3.2,4.4,5.2,5.8,4.4l5.7-3.2L1517.3,188.7z"/>
				<path class="st9" d="M1523.8,200.4c-1.4,0.8-4-1.2-5.8-4.4c-1.8-3.2-2.1-6.4-0.7-7.2c1.4-0.8,4,1.2,5.8,4.4
					C1524.9,196.3,1525.2,199.6,1523.8,200.4z"/>
				<path class="st7" d="M1514.4,210.4l-5.7,3.2c-1.4,0.8-1.1,4,0.7,7.2c1.8,3.2,4.4,5.2,5.8,4.4l5.7-3.2L1514.4,210.4z"/>
				<path class="st9" d="M1520.9,222c-1.4,0.8-4-1.2-5.8-4.4c-1.8-3.2-2.1-6.4-0.7-7.2c1.4-0.8,4,1.2,5.8,4.4
					C1522,218,1522.3,221.2,1520.9,222z"/>
				<path class="st7" d="M1538,204.5l-5.7,3.2c-1.4,0.8-1.1,4,0.7,7.2c1.8,3.2,4.4,5.2,5.8,4.4l5.7-3.2L1538,204.5z"/>
				<path class="st9" d="M1544.6,216.1c-1.4,0.8-4-1.2-5.8-4.4c-1.8-3.2-2.1-6.4-0.7-7.2c1.4-0.8,4,1.2,5.8,4.4
					C1545.6,212.1,1546,215.3,1544.6,216.1z"/>
				<path class="st7" d="M1535.2,226.1l-5.7,3.2c-1.4,0.8-1.1,4,0.7,7.2c1.8,3.2,4.4,5.2,5.8,4.4l5.7-3.2L1535.2,226.1z"/>
				<path class="st9" d="M1541.7,237.7c-1.4,0.8-4-1.2-5.8-4.4c-1.8-3.2-2.1-6.4-0.7-7.2c1.4-0.8,4,1.2,5.8,4.4
					C1542.7,233.7,1543.1,236.9,1541.7,237.7z"/>
				<path class="st7" d="M1558.8,220.2l-5.7,3.2c-1.4,0.8-1.1,4,0.7,7.2c1.8,3.2,4.4,5.2,5.8,4.4l5.7-3.2L1558.8,220.2z"/>
				<path class="st9" d="M1565.3,231.8c-1.4,0.8-4-1.2-5.8-4.4c-1.8-3.2-2.1-6.4-0.7-7.2c1.4-0.8,4,1.2,5.8,4.4
					C1566.4,227.8,1566.7,231.1,1565.3,231.8z"/>
				<path class="st7" d="M1555.9,241.8l-5.7,3.2c-1.4,0.8-1.1,4,0.7,7.2c1.8,3.2,4.4,5.2,5.8,4.4l5.7-3.2L1555.9,241.8z"/>
				<path class="st9" d="M1562.4,253.5c-1.4,0.8-4-1.2-5.8-4.4c-1.8-3.2-2.1-6.4-0.7-7.2c1.4-0.8,4,1.2,5.8,4.4
					C1563.5,249.5,1563.8,252.7,1562.4,253.5z"/>
			</g>
			<g>
				<polygon class="st7" points="1487.2,745.3 1494.1,759.3 1449.5,815.3 1448.6,816.4 1411.2,810.7 1403.6,795.1 				"/>
				<path class="st8" d="M1449.5,815.3l-1,1.2l-7.6-15.6c-0.7-1.9-1-4.6,0.3-2.3C1444.2,803.4,1447.1,809.8,1449.5,815.3z"/>
				<polygon class="st8" points="1403.6,795.1 1441,800.8 1487.2,745.3 1452.9,743.7 				"/>
				<path class="st7" d="M1408.6,787.2l2.9,5.9c0.7,1.4,3.9,1.3,7.3-0.3c3.3-1.6,5.4-4.1,4.7-5.5l-2.9-5.9L1408.6,787.2z"/>
				<path class="st9" d="M1420.6,781.3c0.7,1.4-1.4,3.9-4.7,5.5c-3.3,1.6-6.6,1.8-7.3,0.3c-0.7-1.4,1.4-3.9,4.7-5.5
					C1416.6,780,1419.9,779.9,1420.6,781.3z"/>
				<path class="st7" d="M1430,791.3l2.9,5.9c0.7,1.4,3.9,1.3,7.3-0.3c3.3-1.6,5.4-4.1,4.7-5.5l-2.9-5.9L1430,791.3z"/>
				<path class="st9" d="M1442,785.5c0.7,1.4-1.4,3.9-4.7,5.5c-3.3,1.6-6.6,1.8-7.3,0.3c-0.7-1.4,1.4-3.9,4.7-5.5
					C1438.1,784.2,1441.3,784,1442,785.5z"/>
				<path class="st7" d="M1425.5,767.4l2.9,5.9c0.7,1.4,3.9,1.3,7.3-0.3c3.3-1.6,5.4-4.1,4.7-5.5l-2.9-5.9L1425.5,767.4z"/>
				<path class="st9" d="M1437.5,761.5c0.7,1.4-1.4,3.9-4.7,5.5c-3.3,1.6-6.6,1.8-7.3,0.3c-0.7-1.4,1.4-3.9,4.7-5.5
					C1433.6,760.2,1436.8,760.1,1437.5,761.5z"/>
				<path class="st7" d="M1447,771.5l2.9,5.9c0.7,1.4,3.9,1.3,7.3-0.3c3.3-1.6,5.4-4.1,4.7-5.5l-2.9-5.9L1447,771.5z"/>
				<path class="st9" d="M1458.9,765.7c0.7,1.4-1.4,3.9-4.7,5.5c-3.3,1.6-6.6,1.8-7.3,0.3c-0.7-1.4,1.4-3.9,4.7-5.5
					C1455,764.4,1458.2,764.3,1458.9,765.7z"/>
				<path class="st7" d="M1442.5,747.6l2.9,5.9c0.7,1.4,3.9,1.3,7.3-0.3c3.3-1.6,5.4-4.1,4.7-5.5l-2.9-5.9L1442.5,747.6z"/>
				<path class="st9" d="M1454.4,741.7c0.7,1.4-1.4,3.9-4.7,5.5c-3.3,1.6-6.6,1.8-7.3,0.3c-0.7-1.4,1.4-3.9,4.7-5.5
					C1450.5,740.5,1453.7,740.3,1454.4,741.7z"/>
				<path class="st7" d="M1463.9,751.7l2.9,5.9c0.7,1.4,3.9,1.3,7.3-0.3c3.3-1.6,5.4-4.1,4.7-5.5l-2.9-5.9L1463.9,751.7z"/>
				<path class="st9" d="M1475.9,745.9c0.7,1.4-1.4,3.9-4.7,5.5c-3.3,1.6-6.6,1.8-7.3,0.3c-0.7-1.4,1.4-3.9,4.7-5.5
					C1471.9,744.6,1475.2,744.5,1475.9,745.9z"/>
			</g>
			<g>
				<polygon class="st10" points="678.6,732.4 670.2,745.7 708.1,806.3 708.9,807.5 746.7,806 756,791.4 				"/>
				<path class="st11" d="M708.1,806.3l0.8,1.3l9.3-14.6c1-1.8,1.5-4.5-0.1-2.4C714.7,795,711.1,801.1,708.1,806.3z"/>
				<polygon class="st11" points="756,791.4 718.2,792.9 678.6,732.4 712.9,734.8 				"/>
				<path class="st10" d="M751.9,783l-3.5,5.6c-0.9,1.3-4.1,0.8-7.2-1.1c-3.1-2-4.9-4.7-4.1-6l3.5-5.6L751.9,783z"/>
				<path class="st12" d="M740.7,775.8c-0.9,1.3,1,4,4.1,6c3.1,2,6.3,2.5,7.2,1.1c0.9-1.3-1-4-4.1-6
					C744.8,775,741.5,774.5,740.7,775.8z"/>
				<path class="st10" d="M730.2,784.7l-3.5,5.6c-0.9,1.3-4.1,0.8-7.2-1.1c-3.1-2-4.9-4.7-4.1-6l3.5-5.6L730.2,784.7z"/>
				<path class="st12" d="M718.9,777.5c-0.9,1.3,1,4,4.1,6c3.1,2,6.3,2.5,7.2,1.1c0.9-1.3-1-4-4.1-6
					C723,776.7,719.8,776.2,718.9,777.5z"/>
				<path class="st10" d="M737.4,761.4l-3.5,5.6c-0.9,1.3-4.1,0.8-7.2-1.1c-3.1-2-4.9-4.7-4.1-6l3.5-5.6L737.4,761.4z"/>
				<path class="st12" d="M726.1,754.2c-0.9,1.3,1,4,4.1,6c3.1,2,6.3,2.5,7.2,1.1c0.9-1.3-1-4-4.1-6
					C730.2,753.4,727,752.9,726.1,754.2z"/>
				<path class="st10" d="M715.6,763.1l-3.5,5.6c-0.9,1.3-4.1,0.8-7.2-1.1c-3.1-2-4.9-4.7-4.1-6l3.5-5.6L715.6,763.1z"/>
				<path class="st12" d="M704.4,755.9c-0.9,1.3,1,4,4.1,6c3.1,2,6.3,2.5,7.2,1.1c0.9-1.3-1-4-4.1-6
					C708.4,755.1,705.2,754.6,704.4,755.9z"/>
				<path class="st10" d="M722.8,739.8l-3.5,5.6c-0.9,1.3-4.1,0.8-7.2-1.1c-3.1-2-4.9-4.7-4.1-6l3.5-5.6L722.8,739.8z"/>
				<path class="st12" d="M711.5,732.7c-0.9,1.3,1,4,4.1,6c3.1,2,6.3,2.5,7.2,1.1c0.9-1.3-1-4-4.1-6
					C715.6,731.8,712.4,731.3,711.5,732.7z"/>
				<path class="st10" d="M701,741.5l-3.5,5.6c-0.9,1.3-4.1,0.8-7.2-1.1c-3.1-2-4.9-4.7-4.1-6l3.5-5.6L701,741.5z"/>
				<path class="st12" d="M689.8,734.4c-0.9,1.3,1,4,4.1,6c3.1,2,6.3,2.5,7.2,1.1c0.9-1.3-1-4-4.1-6
					C693.9,733.5,690.7,733,689.8,734.4z"/>
			</g>
			<g>
				<polygon class="st10" points="9.8,692.1 21.9,702 86.6,671.7 88,671 91,633.3 77.6,622.3 				"/>
				<path class="st11" d="M86.6,671.7L88,671l-13.4-11c-1.7-1.2-4.3-2.1-2.4-0.2C76.3,663.8,81.8,668.1,86.6,671.7z"/>
				<polygon class="st11" points="77.6,622.3 74.6,660 9.8,692.1 16.2,658.3 				"/>
				<path class="st10" d="M68.8,625.3l5.1,4.2c1.2,1,0.3,4.1-2,7c-2.3,2.8-5.2,4.3-6.5,3.3l-5.1-4.2L68.8,625.3z"/>
				<path class="st12" d="M60.3,635.7c1.2,1,4.1-0.5,6.5-3.3c2.3-2.8,3.2-6,2-7c-1.2-1-4.1,0.5-6.5,3.3
					C60,631.5,59.1,634.6,60.3,635.7z"/>
				<path class="st10" d="M67.8,647.1l5.1,4.2c1.2,1,0.3,4.1-2,7c-2.3,2.8-5.2,4.3-6.5,3.3l-5.1-4.2L67.8,647.1z"/>
				<path class="st12" d="M59.4,657.4c1.2,1,4.1-0.5,6.5-3.3c2.3-2.8,3.2-6,2-7c-1.2-1-4.1,0.5-6.5,3.3
					C59.1,653.3,58.2,656.4,59.4,657.4z"/>
				<path class="st10" d="M45.6,637.2l5.1,4.2c1.2,1,0.3,4.1-2,7c-2.3,2.8-5.2,4.3-6.5,3.3l-5.1-4.2L45.6,637.2z"/>
				<path class="st12" d="M37.1,647.5c1.2,1,4.1-0.5,6.5-3.3c2.3-2.8,3.2-6,2-7c-1.2-1-4.1,0.5-6.5,3.3
					C36.8,643.4,35.9,646.5,37.1,647.5z"/>
				<path class="st10" d="M44.7,659l5.1,4.2c1.2,1,0.3,4.1-2,7c-2.3,2.8-5.2,4.3-6.5,3.3l-5.1-4.2L44.7,659z"/>
				<path class="st12" d="M36.2,669.3c1.2,1,4.1-0.5,6.5-3.3c2.3-2.8,3.2-6,2-7c-1.2-1-4.1,0.5-6.5,3.3
					C35.9,665.2,35,668.3,36.2,669.3z"/>
				<path class="st10" d="M22.4,649.1l5.1,4.2c1.2,1,0.3,4.1-2,7c-2.3,2.8-5.2,4.3-6.5,3.3l-5.1-4.2L22.4,649.1z"/>
				<path class="st12" d="M14,659.4c1.2,1,4.1-0.5,6.5-3.3c2.3-2.8,3.2-6,2-7c-1.2-1-4.1,0.5-6.5,3.3
					C13.6,655.3,12.7,658.4,14,659.4z"/>
				<path class="st10" d="M21.5,670.9l5.1,4.2c1.2,1,0.3,4.1-2,7c-2.3,2.8-5.2,4.3-6.5,3.3l-5.1-4.2L21.5,670.9z"/>
				<path class="st12" d="M13,681.2c1.2,1,4.1-0.5,6.5-3.3c2.3-2.8,3.2-6,2-7c-1.2-1-4.1,0.5-6.5,3.3
					C12.7,677.1,11.8,680.2,13,681.2z"/>
			</g>
			<g>
				<polygon class="st13" points="179.7,443.3 173.5,457.6 220.5,511.5 221.5,512.6 258.6,505.2 265.5,489.2 				"/>
				<path class="st14" d="M220.5,511.5l1,1.1l6.9-15.9c0.7-2,0.8-4.7-0.4-2.3C225.2,499.4,222.6,505.9,220.5,511.5z"/>
				<polygon class="st14" points="265.5,489.2 228.4,496.7 179.7,443.3 213.9,440.1 				"/>
				<path class="st13" d="M260.1,481.6l-2.6,6c-0.6,1.5-3.9,1.5-7.3,0c-3.4-1.5-5.6-3.8-5-5.3l2.6-6L260.1,481.6z"/>
				<path class="st15" d="M247.9,476.3c-0.6,1.5,1.6,3.8,5,5.3c3.4,1.5,6.6,1.5,7.3,0c0.6-1.5-1.6-3.8-5-5.3
					C251.7,474.8,248.5,474.8,247.9,476.3z"/>
				<path class="st13" d="M238.9,486.7l-2.6,6c-0.6,1.5-3.9,1.5-7.3,0c-3.4-1.5-5.6-3.8-5-5.3l2.6-6L238.9,486.7z"/>
				<path class="st15" d="M226.7,481.4c-0.6,1.5,1.6,3.8,5,5.3c3.4,1.5,6.6,1.5,7.3,0c0.6-1.5-1.6-3.8-5-5.3
					S227.3,479.9,226.7,481.4z"/>
				<path class="st13" d="M242.3,462.6l-2.6,6c-0.6,1.5-3.9,1.5-7.3,0c-3.4-1.5-5.6-3.8-5-5.3l2.6-6L242.3,462.6z"/>
				<path class="st15" d="M230.1,457.3c-0.6,1.5,1.6,3.8,5,5.3c3.4,1.5,6.6,1.5,7.3,0c0.6-1.5-1.6-3.8-5-5.3
					C233.9,455.8,230.7,455.8,230.1,457.3z"/>
				<path class="st13" d="M221.1,467.7l-2.6,6c-0.6,1.5-3.9,1.5-7.3,0c-3.4-1.5-5.6-3.8-5-5.3l2.6-6L221.1,467.7z"/>
				<path class="st15" d="M208.9,462.4c-0.6,1.5,1.6,3.8,5,5.3s6.6,1.5,7.3,0c0.6-1.5-1.6-3.8-5-5.3
					C212.7,460.9,209.5,460.9,208.9,462.4z"/>
				<path class="st13" d="M224.5,443.6l-2.6,6c-0.6,1.5-3.9,1.5-7.3,0c-3.4-1.5-5.6-3.8-5-5.3l2.6-6L224.5,443.6z"/>
				<path class="st15" d="M212.3,438.3c-0.6,1.5,1.6,3.8,5,5.3c3.4,1.5,6.6,1.5,7.3,0c0.6-1.5-1.6-3.8-5-5.3
					C216.1,436.8,212.9,436.8,212.3,438.3z"/>
				<path class="st13" d="M203.3,448.7l-2.6,6c-0.6,1.5-3.9,1.5-7.3,0c-3.4-1.5-5.6-3.8-5-5.3l2.6-6L203.3,448.7z"/>
				<path class="st15" d="M191,443.4c-0.6,1.5,1.6,3.8,5,5.3c3.4,1.5,6.6,1.5,7.3,0c0.6-1.5-1.6-3.8-5-5.3
					C194.9,441.9,191.7,441.9,191,443.4z"/>
			</g>
			<g>
				<polygon class="st13" points="174.5,79.8 166,66.6 95.1,75.5 93.6,75.7 79.1,110.7 88.4,125.3 				"/>
				<path class="st14" d="M95.1,75.5l-1.5,0.2l9.4,14.6c1.3,1.6,3.4,3.3,2.2,0.9C102.5,86.2,98.5,80.4,95.1,75.5z"/>
				<polygon class="st14" points="88.5,125.3 103,90.3 174.5,79.8 158,109.9 				"/>
				<path class="st13" d="M97.8,125.1l-3.6-5.5c-0.9-1.3,1-4,4.1-6c3.1-2,6.3-2.5,7.2-1.2l3.6,5.5L97.8,125.1z"/>
				<path class="st15" d="M109,117.9c-0.9-1.3-4.1-0.8-7.2,1.2c-3.1,2-4.9,4.7-4.1,6c0.9,1.3,4.1,0.8,7.2-1.2
					C108.1,121.9,109.9,119.2,109,117.9z"/>
				<path class="st13" d="M105.4,104.6l-3.6-5.5c-0.9-1.3,1-4,4.1-6c3.1-2,6.3-2.5,7.2-1.2l3.6,5.5L105.4,104.6z"/>
				<path class="st15" d="M116.6,97.4c-0.9-1.3-4.1-0.8-7.2,1.2c-3.1,2-4.9,4.7-4.1,6c0.9,1.3,4.1,0.8,7.2-1.2
					C115.6,101.5,117.5,98.8,116.6,97.4z"/>
				<path class="st13" d="M123.5,120.9l-3.6-5.5c-0.9-1.3,1-4,4.1-6c3.1-2,6.3-2.5,7.2-1.2l3.6,5.5L123.5,120.9z"/>
				<path class="st15" d="M134.7,113.7c-0.9-1.3-4.1-0.8-7.2,1.2c-3.1,2-4.9,4.7-4.1,6c0.9,1.3,4.1,0.8,7.2-1.2
					C133.8,117.8,135.6,115.1,134.7,113.7z"/>
				<path class="st13" d="M131.1,100.5l-3.6-5.5c-0.9-1.3,1-4,4.1-6c3.1-2,6.3-2.5,7.2-1.2l3.6,5.5L131.1,100.5z"/>
				<path class="st15" d="M142.3,93.3c-0.9-1.3-4.1-0.8-7.2,1.2c-3.1,2-4.9,4.7-4.1,6c0.9,1.3,4.1,0.8,7.2-1.2
					C141.4,97.3,143.2,94.6,142.3,93.3z"/>
				<path class="st13" d="M149.2,116.8l-3.6-5.5c-0.9-1.3,1-4,4.1-6c3.1-2,6.3-2.5,7.2-1.2l3.6,5.5L149.2,116.8z"/>
				<path class="st15" d="M160.4,109.6c-0.9-1.3-4.1-0.8-7.2,1.2c-3.1,2-4.9,4.7-4.1,6c0.9,1.3,4.1,0.8,7.2-1.2
					C159.5,113.6,161.3,110.9,160.4,109.6z"/>
				<path class="st13" d="M156.8,96.3l-3.6-5.5c-0.9-1.3,1-4,4.1-6c3.1-2,6.3-2.5,7.2-1.2l3.6,5.5L156.8,96.3z"/>
				<path class="st15" d="M168,89.1c-0.9-1.3-4.1-0.8-7.2,1.2c-3.1,2-4.9,4.7-4.1,6c0.9,1.3,4.1,0.8,7.2-1.2
					C167.1,93.2,168.9,90.5,168,89.1z"/>
			</g>
			<g>
				<polygon class="st13" points="959.1,106.6 963.3,91.5 909.6,44.4 908.5,43.4 872.7,55.7 868,72.4 				"/>
				<path class="st14" d="M909.6,44.4l-1.1-1l-4.7,16.7c-0.4,2-0.2,4.7,0.7,2.3C906.5,57,908.2,50.2,909.6,44.4z"/>
				<polygon class="st14" points="868,72.4 903.7,60.1 959.1,106.6 925.6,114.2 				"/>
				<path class="st13" d="M874.3,79.3l1.8-6.3c0.4-1.5,3.7-2,7.2-1c3.5,1,6.1,3.1,5.6,4.6l-1.8,6.3L874.3,79.3z"/>
				<path class="st15" d="M887.1,82.9c0.4-1.5-2.1-3.6-5.6-4.6c-3.5-1-6.8-0.6-7.2,1c-0.4,1.5,2.1,3.6,5.6,4.6
					C883.5,84.9,886.7,84.4,887.1,82.9z"/>
				<path class="st13" d="M894.6,71.4l1.8-6.3c0.4-1.5,3.7-2,7.2-1c3.5,1,6.1,3.1,5.6,4.6l-1.8,6.3L894.6,71.4z"/>
				<path class="st15" d="M907.5,75c0.4-1.5-2.1-3.6-5.6-4.6c-3.5-1-6.8-0.6-7.2,1c-0.4,1.5,2.1,3.6,5.6,4.6
					C903.8,77,907,76.6,907.5,75z"/>
				<path class="st13" d="M894.5,95.8l1.8-6.3c0.4-1.5,3.7-2,7.2-1c3.5,1,6.1,3.1,5.6,4.6l-1.8,6.3L894.5,95.8z"/>
				<path class="st15" d="M907.3,99.4c0.4-1.5-2.1-3.6-5.6-4.6c-3.5-1-6.8-0.6-7.2,1c-0.4,1.5,2.1,3.6,5.6,4.6
					C903.6,101.3,906.9,100.9,907.3,99.4z"/>
				<path class="st13" d="M914.8,87.9l1.8-6.3c0.4-1.5,3.7-2,7.2-1c3.5,1,6.1,3.1,5.6,4.6l-1.8,6.3L914.8,87.9z"/>
				<path class="st15" d="M927.6,91.5c0.4-1.5-2.1-3.6-5.6-4.6c-3.5-1-6.8-0.6-7.2,1c-0.4,1.5,2.1,3.6,5.6,4.6
					C924,93.5,927.2,93,927.6,91.5z"/>
				<path class="st13" d="M914.6,112.2l1.8-6.3c0.4-1.5,3.7-2,7.2-1c3.5,1,6.1,3.1,5.6,4.6l-1.8,6.3L914.6,112.2z"/>
				<path class="st15" d="M927.4,115.9c0.4-1.5-2.1-3.6-5.6-4.6c-3.5-1-6.8-0.6-7.2,1c-0.4,1.5,2.1,3.6,5.6,4.6
					C923.8,117.8,927,117.4,927.4,115.9z"/>
				<path class="st13" d="M935,104.4l1.8-6.3c0.4-1.5,3.7-2,7.2-1c3.5,1,6.1,3.1,5.6,4.6l-1.8,6.3L935,104.4z"/>
				<path class="st15" d="M947.8,108c0.4-1.5-2.1-3.6-5.6-4.6c-3.5-1-6.8-0.6-7.2,1c-0.4,1.5,2.1,3.6,5.6,4.6
					C944.1,110,947.4,109.5,947.8,108z"/>
			</g>
			<g>
				<path class="st16" d="M1779.3,839.2c-12.6-1-24-11-27.7-24.3c-2.7-9.5-1.5-20.3,3-30.3c-8.3-1.9-17.4-5.6-25.2-12.6
					c-10.9-9.7-16.3-24.3-13.9-37.2c2.1-11.1,9.5-21.2,22.6-30.9c-6.6-9.8-8.6-23.3-5.1-35.7c4-14.3,13.6-24.7,21.7-31.2
					c-4.2-5.1-7.8-11-10.7-17.5c-2,1-4,1.8-6.1,2.6c-1.4,0.5-2.7,0.9-4.1,1.3c-14.1,3.8-27.8,1.2-39.8-7.7c-1.1-0.8-2.2-1.7-3.3-2.7
					c-6.1,9.3-13.7,17.5-22.4,24c-7.8,5.8-14.5,8.9-21.3,9.5c-7.5,0.7-15.2-1.7-21-6.5c-1.9,1.7-3.8,3.3-5.9,4.8
					c-7.2,5.2-18.5,11.3-31.8,10.9c-12.6-0.4-24-7.1-29.1-17.2l5.5-2.8c4.1,8.1,13.4,13.5,23.8,13.8c11.5,0.3,21.6-5.1,28-9.8
					c1.8-1.3,3.5-2.7,5.2-4.2c-10.6-12.7-13.1-31.2-6.8-51.3c2.1-6.6,4.7-11.2,8.5-14.5c5-4.5,12.1-5.9,17.5-3.5
					c4,1.8,7.3,5.5,8.9,10.3c1.5,4.4,1.4,9,1.2,12.4c-1.1,17.4-8.5,34.1-20.4,46.7c4.4,3.4,10.3,5.2,15.9,4.7
					c5.6-0.5,11.4-3.2,18.2-8.3c8.5-6.4,15.8-14.4,21.6-23.6c-3.5-4-6.7-8.9-9.6-14.6c-7.2-14.1-11-29.8-11.2-45.6
					c0-4,0.1-8.7,1.7-13.2c1.7-5.1,4.9-9,9-11.2c3.8-2,8.4-2.3,12.9-0.9c4.1,1.3,7.9,3.8,10.7,7.2c5.7,7.1,6.9,16.3,7.3,22.6
					c1,15.8-2.1,32-8.9,46.9c-1.2,2.7-2.6,5.4-4.1,7.9c1.2,1.1,2.4,2.1,3.7,3.1c11.6,8.6,24.4,10.5,38.1,5.6c2-0.7,3.9-1.5,5.9-2.5
					c-0.4-1.1-0.8-2.3-1.1-3.5c-3.8-12.4-5.2-26.3-4.5-43.8c0.3-7.3,1-15.9,3.8-23.9c3.1-8.8,8.7-15.7,15.5-19.6
					c8.2-4.6,18.4-4.4,25.4,0.6c4.6,3.3,8,8.6,9.4,14.9c1.1,4.8,1.2,10.2,0.2,16.8c-0.4,2.9-1,5.7-1.7,8.6
					c-3,11.8-9.6,24.1-18.6,34.7c-6.3,7.5-13.3,13.5-20.7,18c2.7,6.2,6.1,11.9,10.2,16.7c10.7-7.5,22.8-12.5,33.3-16.4
					c14.6-5.5,31.9-10.8,49.4-9.3c7.5,0.6,17,4.7,21.4,12.4c2.9,5,3.1,10.7,0.4,16.3c-3.2,6.9-10.2,10.9-15.2,13.3
					c-22.2,10.7-49.6,12.9-69.8,5.5c-7.5-2.8-14.4-7.3-20.4-13.4c-7.4,6-16.3,15.4-19.9,28.3c-3,10.7-1.3,22.2,4.2,30.5
					c14.4-9.7,44.5-26.3,74.9-20.9c6,1.1,14.2,4.7,17.3,11.5c1.4,3,2.2,7.9-1.4,13.9c-2.8,4.6-7.4,7.6-10.6,9.4
					c-7.2,4.1-15.4,6.8-23.7,7.8c-5.9,0.7-13.5,1.5-20.9,1.4c-14.9-0.3-27.8-5.4-36.6-14.6c-11.9,8.8-18.5,17.7-20.4,27.3
					c-2.1,10.8,2.6,23.1,11.9,31.4c7.4,6.6,16.2,9.9,24.1,11.5c0.1-0.1,0.2-0.3,0.2-0.4c5.6-9.1,14.2-17.5,26.2-25.4
					c9.9-6.6,20.6-12,31.8-16.2c8.6-3.2,18.6-6.2,28.2-4.9c5.9,0.8,10.2,3.4,12.7,7.5c5.4,9.3-3.1,17.1-5.9,19.7
					c-20.7,19.1-53.1,29.4-84.5,27.1c-1.7-0.1-3.5-0.3-5.4-0.6c-4.5,9.1-5.7,18.9-3.4,27.4c3,10.7,12.3,19,22.2,19.8L1779.3,839.2z
					 M1764.3,780c0.8,0.1,1.7,0.2,2.5,0.2c29.8,2.2,60.4-7.5,79.9-25.5c5.4-5,6.8-8.5,4.7-12c-1.4-2.5-4.2-4-8.1-4.5
					c-8.2-1.1-17.3,1.7-25.2,4.6c-10.8,4-21,9.2-30.5,15.5C1777.1,765.2,1769.5,772.3,1764.3,780z M1747.1,705.2
					c7.6,7.5,18.8,11.7,31.6,12c7,0.1,14.4-0.6,20.1-1.3c7.5-0.9,14.9-3.3,21.4-7c4.1-2.3,6.8-4.6,8.4-7.2c1.8-3,2.2-5.6,1-8.1
					c-1.7-3.7-6.8-6.9-12.7-7.9C1807.1,683.8,1781,682.4,1747.1,705.2z M1763.9,637.8c5.2,5.1,11.1,8.9,17.5,11.3
					c18.7,6.9,44.2,4.8,65-5.2c6.6-3.2,10.4-6.4,12.2-10.3c1.8-3.8,1.7-7.3-0.2-10.6c-2.8-4.9-9.7-8.8-16.6-9.4
					c-16.3-1.4-32.7,3.8-46.7,9C1785.2,626.3,1773.9,631,1763.9,637.8z M1763,526.6c-1.6,0.4-3.1,1-4.6,1.9
					c-5.6,3.1-10.1,8.9-12.7,16.3c-2.6,7.1-3.2,14.8-3.5,22c-0.7,16.7,0.7,30,4.3,41.7c0.2,0.7,0.5,1.5,0.7,2.2
					c16.3-10.3,30.6-29.2,35.5-48.3c0.7-2.6,1.2-5.3,1.6-7.9c0.8-5.8,0.8-10.5-0.1-14.5c-1.1-4.8-3.6-8.8-7-11.2
					C1773.3,525.9,1768,525.2,1763,526.6z M1632.6,571.7c-1.8,0.5-3.5,1.4-5,2.7c-2.8,2.5-5,6.2-6.7,11.7
					c-2.8,8.9-3.7,17.7-2.8,25.4c0.9,7.6,3.7,14.2,8.1,19.7c10.8-11.6,17.5-26.8,18.5-42.7c0.2-2.9,0.2-6.7-0.9-10.1
					c-1-3.1-3.1-5.5-5.4-6.6C1636.7,571.2,1634.7,571.2,1632.6,571.7z M1681,528.6c-0.6,0.2-1.3,0.4-1.9,0.7c-2.6,1.4-4.8,4.2-6,7.7
					c-1.2,3.7-1.4,7.7-1.4,11.1c0.1,14.8,3.8,29.6,10.5,42.8c2.3,4.5,4.8,8.4,7.5,11.8c1-1.9,2-3.8,2.9-5.7
					c6.4-14,9.3-29.2,8.3-43.9c-0.6-8.7-2.4-14.7-5.9-19.1C1691.7,530.1,1685.9,527.3,1681,528.6z"/>
				<g>
					<polygon class="st17" points="1631.7,757.6 1708.1,844.4 1729.5,846 1640.7,747.7 					"/>
					<polygon class="st17" points="1956.7,666.7 1935,783.2 1917.4,795.3 1943.9,662.7 					"/>
					
						<rect x="1726.9" y="810.8" transform="matrix(0.9656 -0.2602 0.2602 0.9656 -170.237 510.88)" class="st9" width="235" height="175.2"/>
					<path class="st8" d="M1959.5,874.2l21.1,78.2l-226.9,61.2L1722,895.7c27.2,14.3,78.4,33.8,137.7,19.7
						C1909.5,903.6,1941.3,886.7,1959.5,874.2z"/>
					<path class="st17" d="M1858.4,872.2l6.2-8.9c3.8-5.5-1.3-12.7-7.7-11l-10.2,2.7c-2.9,0.8-6-0.3-7.7-2.8l-3.9-5.5
						c-3.9-5.5-12.6-3-12.9,3.8l-0.3,6c-0.2,3.2-2.4,5.8-5.5,6.6l-9.3,2.2c-6.7,1.6-7.4,10.8-1.1,13.5l10,4.3
						c2.7,1.2,4.5,3.9,4.3,6.9l-0.6,12.6c-0.3,7,8.6,10.3,12.8,4.6l6.3-8.4c2-2.6,5.5-3.6,8.5-2.3l9.1,3.9
						c6.6,2.8,12.8-4.8,8.7-10.6l-6.6-9.5C1856.7,877.9,1856.7,874.6,1858.4,872.2z"/>
					
						<rect x="1744.3" y="942.6" transform="matrix(0.9655 -0.2602 0.2602 0.9655 -186.4934 517.6699)" class="st17" width="235" height="41"/>
				</g>
				<g>
					<path class="st9" d="M1598.5,596.6c-5.8,5.7-14,8.5-22.2,9.1c0.2,8.2-4.7,16.8-11.9,20.6c-3.3,1.7-7,2.5-10.7,2.4
						c-4.5-0.1-8.9-1.5-12.5-4.2c1.3,4.2,0.6,8.9-2,12.6c-4,5.7-11,9.3-18,9.2c-7-0.1-13.9-3.8-17.7-9.7c1,4.1,0,8.8-2.3,12.4
						c-1.3,2-2.9,3.6-4.9,4.7c-5.7,3.2-13.2,0.6-17.8-4c-4.7,4.5-10.9,7.5-17.3,7.6c-6.5,0.1-13.1-3.1-16.3-8.7
						c-3.2-5.6-2.2-13.5,2.8-17.6c-5,3.4-12.5,4.1-18,1.5c-5.5-2.6-9.5-8.3-10-14.4c-0.5-6.1,2.4-12.3,7.4-15.9
						c-5.9-2.1-8.6-8.6-9.8-14.8c-1.1-6.2,1.3-12.9,6.1-16.9c4.8-4.1,11.8-5.3,17.7-3.1c-2.6-5.9-3.5-13-1.5-19.2
						c2-6.2,6.8-11.5,12.9-13.6c6.1-2.2,13.4-1,18.2,3.4c-1.7-7.6,2.6-15.5,8.9-20.1c5.3-3.9,12.4-5.2,18.8-3.4
						c6.4,1.8,11.8,6.5,14.4,12.6c0.5-8.4,7.4-15.7,15.4-18.5c7.9-2.9,17.5-0.6,23.3,5.5c5.8,6.1,7.6,15.8,4.3,23.5
						c6.5-5.4,16-8.9,24-6.7c6.6,1.8,10.6,8.1,11.6,14.9c1.1,6.8-0.7,13.8-6.4,17.6c7.8-2.4,17,3,19.7,10.8
						C1607.3,581.9,1604.4,590.9,1598.5,596.6z"/>
					<path class="st18" d="M1591,579.6c3.2,11.8-1.6,20.4-11.3,21.6c-4.7,0.6-15.8,14-26,27.6c-4.5-0.1-8.9-1.5-12.5-4.2
						c1.3,4.2,0.6,8.9-2,12.6c-4,5.7-11,9.3-18,9.2c-7-0.1-13.9-3.8-17.7-9.7c1,4.1,0,8.8-2.3,12.4l-24.9-6.7
						c-1.9,5.3-14.1,13.8-22.6,2.5c-8.5-11.3-0.1-19.7-0.1-19.7s-11,3.4-17.4-2c-6.5-5.4-4-14.9,0.4-18c0,0-12.8-13-7.4-23.2
						c5.3-10.2,20.5-6,20.5-6s-8.1-20.2,4-29.2c12.1-9,24.8,4.7,24.8,4.7s-3-20.1,8.5-24.9c11.6-4.8,24.4,6.5,27,12.7
						c3.3-16.8,15.7-20.9,24.7-18.8c7.1,1.7,12.4,15.9,10.1,23.2c12.5-4.8,18.9-3.9,25.6,3.3c6.7,7.2-1.6,23.3-1.6,23.3
						S1587.9,567.8,1591,579.6z"/>
					<path class="st19" d="M1465.5,659.7c-3.7,1-7.8,0.9-11.4-0.5c-6-2.3-10.6-7.8-11.7-14.1c-0.5-2.8-0.3-5.7,0.5-8.4
						c-1.6,0.2-2.7,0.3-2.7,0.3c-6.5,0.2-12.5-1.9-16.3-5.9c-2.3-2.4-4-5.6-5-9.5c-1.4-5.6-1-11.2,1.4-15.6c0.7-1.3,1.5-2.4,2.4-3.5
						c-2-1.6-3.8-3.6-5.1-5.9c-3.2-5.5-3.9-12.4-1.9-18.4c2-5.8,6.4-10.4,12.5-12.9c2.9-1.2,6.1-1.9,9.2-2c-0.4-1.7-0.7-3.5-0.9-5.2
						c-0.6-6.9,3.4-12.9,6.4-16.7c3.1-4,6.9-6.8,11-8.2c4.3-1.5,9.1-1.5,13.8,0c0.3-1.8,0.7-3.7,1.5-5.4c2.7-6.4,8.3-11.4,15.1-13.6
						c5.8-1.8,12.2-1.5,17.7,1c3.8,1.7,7.1,4.3,9.7,7.5c4.1-9.1,10.7-15.4,18.6-17.4c10.5-2.6,22,2.7,26.9,12.5
						c2.1,4.2,3,9.1,2.7,14.1c2.2-1,4.6-1.9,6.9-2.5c4.5-1.2,8.3-1.4,11.6-0.6c5,1.2,9.7,5,12.4,10.2c2.9,5.6,3.5,12.6,1.4,18.6
						c-0.3,0.9-0.7,1.7-1.1,2.6c2.8,0.5,5.5,1.7,7.9,3.5c6,4.6,9,12.8,7.8,20.8c-1,6.7-5,13-10.6,16.8c-5.6,3.8-12.9,5.2-19.5,3.7
						l0.9-3.8c5.6,1.3,11.7,0.1,16.4-3.1c4.7-3.2,8.1-8.5,8.9-14.2c1-6.5-1.6-13.4-6.3-17.1c-2.2-1.7-4.9-2.7-7.7-3
						c-0.9,1.3-2,2.5-3.2,3.6l-0.3,0.3c-2.2,2-6.2,5.7-9.5,3.6c-1.5-1-1.9-2.3-2-3.1c-0.1-1.6,0.9-3.2,2.9-4.8
						c2.8-2.2,6.3-3.4,10-3.5c0.7-1.1,1.2-2.3,1.6-3.5c1.7-5,1.3-10.8-1.2-15.5c-2.2-4.2-5.8-7.2-9.8-8.2c-2.7-0.6-5.9-0.5-9.7,0.6
						c-3,0.8-5.9,1.9-8.6,3.4c-1.2,5.8-3,9.5-5.3,11.1c-1.2,0.8-2.6,1.1-4,0.8c-2.7-0.6-3.6-2.1-3.9-3.2c-0.6-2.4,1.2-4.9,3-6.4
						c2.1-1.8,4.3-3.4,6.7-4.7c0.8-5.1,0.1-10.3-2-14.5c-4.1-8.2-13.8-12.7-22.5-10.5c-3.5,0.9-12,4.4-17,17.5
						c0.2,0.3,0.3,0.6,0.4,0.9c0.1,0.1,0.1,0.3,0.2,0.5c2,4.1,3.6,8.2,1.9,10.8c-0.5,0.9-1.7,1.9-3.9,1.9c-2,0-3.1-1-3.7-1.8
						c-2-2.8-0.7-7.8,0.6-11.8l0-0.1c-2.3-3.6-5.7-6.6-9.6-8.3c-4.7-2-10.1-2.3-15-0.8c-5.7,1.8-10.4,6-12.6,11.3
						c-0.7,1.7-1.1,3.5-1.3,5.4c0.5,0.3,1.1,0.5,1.6,0.8c3.6,2,8.4,4.7,10.2,9.7c0.8,2.4,0.7,4.5-0.4,6.1c-1.2,1.8-3.6,2.7-5.9,2.2
						c-2.2-0.4-3.8-1.9-4.7-3.1c-3-3.7-4.6-8.5-4.8-13.3c-4.2-1.5-8.6-1.6-12.3-0.3c-3.4,1.2-6.5,3.6-9.2,7c-4.2,5.4-6,9.7-5.6,14
						c0.2,1.9,0.5,3.9,1.1,5.8c2.7,0.3,5.3,1.1,7.7,2.3c2.8,1.4,4.7,3,5.6,5.1c1.2,2.6,0.8,6.5-2.1,8.2c-1.9,1.1-4.4,1-6.5-0.3
						c-1.7-1-2.9-2.6-3.8-4c-1.6-2.4-2.9-5-3.9-7.6c-3-0.1-6.1,0.5-8.9,1.7c-5,2.1-8.7,5.8-10.3,10.6c-1.7,5-1.1,10.6,1.5,15.1
						c1.2,2.1,2.9,3.9,4.8,5.3c1-0.7,2.1-1.2,3.2-1.6c2.6-0.9,6.4-1.1,8.7,1.4c2.2,2.5,1.4,4.5,1,5.2c-1,1.7-3.3,2.6-5.8,2.2
						c-2.4-0.4-4.7-1.2-6.8-2.4c-0.9,0.9-1.6,1.9-2.2,3.1c-1.9,3.6-2.2,8.1-1,12.8c0.8,3.2,2.2,5.8,4,7.7c3,3.2,7.9,4.9,13.3,4.7
						c1.3,0,2.9-0.2,4.6-0.5c1.5-2.7,3.7-4.9,6.3-6.4c1.6-0.9,3.3-1.1,4.7-0.5c1.3,0.5,2.3,1.5,2.6,2.7c0.3,1.1,0.1,2.3-0.6,3.2
						c-1.7,2.3-6.4,3.7-10.5,4.5c-1.1,2.6-1.5,5.6-1,8.4c0.9,5,4.5,9.4,9.3,11.2c4.7,1.8,10.4,0.9,14.3-2.3l2.4,3.1
						C1470.2,657.9,1467.9,659.1,1465.5,659.7z M1453.5,629.2c-0.2,0.1-0.4,0.1-0.6,0.3c-0.8,0.5-1.6,1-2.3,1.7
						c1.9-0.6,3.4-1.2,3.9-1.8c0,0-0.1-0.1-0.2-0.1C1454.1,629.1,1453.8,629.1,1453.5,629.2z M1577.9,567.9c0,0,0.1,0.1,0.1,0.1
						c0.3,0,1.3-0.1,4.6-3.2l0.3-0.3c0,0,0.1-0.1,0.1-0.1c-1.4,0.4-2.7,1.1-3.8,2C1578.3,567.2,1578,567.7,1577.9,567.9z
						 M1577.8,568L1577.8,568L1577.8,568z M1429.6,602.1c1.2,0.5,2.4,0.9,3.7,1.1c0.9,0.2,1.5,0,1.7-0.2c0-0.1-0.2-0.4-0.5-0.8
						c-0.9-1-2.9-0.9-4.4-0.4C1429.9,602,1429.8,602.1,1429.6,602.1z M1442.9,567.7c0.7,1.7,1.6,3.3,2.7,4.9c0.7,1,1.5,2.2,2.6,2.8
						c0.8,0.5,1.9,0.6,2.5,0.3c0.8-0.5,1.1-2,0.6-3.2c-0.6-1.2-1.8-2.3-3.8-3.2C1446,568.6,1444.5,568.1,1442.9,567.7z
						 M1549.6,544.2c0.1,0.1,0.3,0.2,1,0.4c0.4,0.1,0.6,0,1-0.2c1-0.7,1.9-2.4,2.7-4.9c-1,0.7-2,1.5-2.9,2.3
						C1550.2,542.7,1549.6,543.8,1549.6,544.2z M1471.5,539c0.5,3.3,1.7,6.5,3.7,9c0.7,0.9,1.6,1.5,2.4,1.7c0.7,0.1,1.6-0.1,1.9-0.6
						c0.4-0.5,0.3-1.5-0.1-2.6C1478.3,543.2,1475.2,541.1,1471.5,539z M1512.5,532.1c-0.7,3.1-0.3,4.1-0.1,4.4
						c0,0.1,0.1,0.2,0.5,0.2c0.4,0,0.6-0.1,0.6-0.1C1513.6,536.4,1513.9,535.5,1512.5,532.1z"/>
					<g>
						<path class="st16" d="M1575.7,641.2c-8.2,15.3-22.5,27.4-40.6,32.2c-14.2,3.8-28.6,2.7-41.3-2.5c-18.4-7.4-31.5-19.2-37-39.8
							c-7-26,3.5-51.7,23.7-67c6.9-5.3,15-9.3,23.9-11.7c31.3-8.4,61.3,8.4,73.5,32.4c1.4,2.7,2.5,5.6,3.4,8.5
							C1586.4,609.9,1583.3,627.1,1575.7,641.2z"/>
						<path class="st20" d="M1575.7,641.2c-8.2,15.3-22.5,27.4-40.6,32.2c-14.2,3.8-28.6,2.7-41.3-2.5c-18.4-7.4-31.5-19.2-37-39.8
							c-7-26,3.5-51.7,23.7-67c-7.8,10.9-15.3,26.9-11.6,45.1c7.1,35.1,36.2,44,53.1,41.9c29.4-3.5,53-29.6,55.8-66.3
							c1.4,2.7,2.5,5.6,3.4,8.5C1586.4,609.9,1583.3,627.1,1575.7,641.2z"/>
						<g>
							<path class="st6" d="M1531.8,612.5c1.1-1-5.9-18.6,4.3-23c10.2-4.4,17,16.4,18.3,15.8c1.3-0.6-6-27.3-20.8-22.3
								C1518.8,588.1,1530.7,613.5,1531.8,612.5z"/>
							<path class="st6" d="M1478.8,634c1.1-1-5.9-18.6,4.3-23c10.2-4.4,17,16.4,18.3,15.8c1.3-0.6-6-27.3-20.8-22.3
								C1465.8,609.6,1477.7,635.1,1478.8,634z"/>
						</g>
						<g>
							<path class="st9" d="M1531.8,621.8c0.1,0.3,0.1,0.6,0.1,0.9c0.7,6.8-3.9,13-10.7,14.2c-7.1,1.3-13.9-3.5-15.2-10.6
								c-0.6-3.2,0.1-6.3,1.6-8.9c1.9-3.2,5.1-5.6,9-6.3C1523.8,609.9,1530.6,614.6,1531.8,621.8z"/>
							<path class="st8" d="M1532,622.7c0.7,6.8-3.9,13-10.7,14.2c-7.1,1.3-13.9-3.5-15.2-10.6c-0.6-3.2,0.1-6.3,1.6-8.9
								c0.7,3.8,3.1,10.4,9,12.2C1523.5,631.8,1529.5,627.4,1532,622.7z"/>
							<path class="st21" d="M1528.2,620.3c0.4,2.3-1.1,4.5-3.4,4.9c-2.3,0.4-4.5-1.1-4.9-3.4c-0.4-2.3,1.1-4.5,3.4-4.9
								C1525.6,616.5,1527.8,618,1528.2,620.3z"/>
						</g>
						<polygon class="st9" points="1491.9,631.4 1494.3,627.5 1490,629 1488.3,626.9 1488.3,629.7 1484.8,631 1488.3,632.4 
							1488.3,637.2 1490.6,633.4 1495,635.2 						"/>
						<polygon class="st9" points="1545.9,608.4 1548.3,604.5 1544,606.1 1542.3,603.9 1542.3,606.7 1538.8,608 1542.3,609.5 
							1542.4,614.2 1544.7,610.4 1549,612.3 						"/>
						<path class="st9" d="M1574.8,628.7c2.9,7.3,1.7,15.6-2.9,21.9c-8.5,11.9-21,21-36.2,25.1c-12,3.2-24.1,2.9-35.2-0.3
							c-7.6-2.2-13.1-11.7-9.6-18.9c1.5-3.1,5.8-7.1,9.7-8.1c12-3,17.1,5,28.3-0.3c13.9-6.5,14.7-11.8,22.3-22.9
							c2.9-4.2,12-9.3,19.2-3.1C1572.2,623.7,1573.7,625.9,1574.8,628.7z"/>
						<path class="st8" d="M1507.3,660.4c-2.6,1-2.1,4.4,2.5,6.1c2.5,0.7,9.7,4.4,28.2-3.1c18.5-7.5,25.1-25.9,24.2-29.2
							c-0.9-3.3-4.2-1.7-6,1.5c-1.8,3.2-11.6,18.4-20.1,21.6C1523.2,662.4,1511,658.9,1507.3,660.4z"/>
					</g>
					<path class="st16" d="M1494.2,549.3c0.1-0.1,0.2-0.1,0.1-0.1C1494.3,549.3,1494.3,549.3,1494.2,549.3z"/>
				</g>
			</g>
			<g>
				<path class="st14" d="M1750.6,359.5c12.9,11.7,27.3,21.6,42.7,29.7c1,0.5,2.1,1.1,3.1,1.6c80.7,41.1,147.3,40.4,154.7,59.6
					c0,0-7.1,18.3,5.3,26.1c0.8,0.5,1.7,1,2.6,1.4c15.9,6.8,35.1-41-11.1-51.3c-7.4-1.6-14.8-3.3-22.1-5.2
					c-10.1-2.5-20.1-5.3-30.1-8.3c-11.7-3.6-23.4-7.6-34.8-12c-12.5-4.9-24.7-10.3-36.7-16.3c-12.3-6.3-24.3-13.3-35.6-21.3
					c-11.4-8-22.1-16.8-31.7-26.8c-9.6-9.9-18.1-20.9-24.9-32.9c-8-14.1-13.2-29.6-18.4-44.8c-5.4-16-7.7-33.4-7.5-50.2
					c0.2-12.2,1.6-24.3,3.9-36.3c2.4-12,5.6-23.8,9.6-35.3c3.9-11.4,8.5-22.5,13.5-33.5c4.8-10.4,10.1-20.6,15.7-30.6
					c5.1-9.1,10.5-18,16.1-26.8c4.8-7.4,9.7-14.7,14.8-21.9c3.8-5.4,7.7-10.8,11.6-16.1c17.7-23.9,6.1-42.1-6.9-48.4
					c-7.6-3.7-15.7-3.3-18.5,2.5C1758.4-22.2,1778-12,1778-12c7,19.3-43.7,62.5-77.5,146.6c-5.9,14.7-10.4,30.1-12.9,45.7
					c-2.1,12.8-2.9,25.9-2.2,38.9c0.5,10.2,1.8,20.5,4.1,30.5c0,0.1,0,0.2,0.1,0.3c1,4.6,2.3,9.1,3.7,13.6c2,6.3,4.6,12.5,6.9,18.8
					c0,0,0,0.1,0,0.1c2.4,6.5,4.8,13,7.7,19.4c4.3,9.3,9.5,18.3,15.3,26.7C1731.1,339.8,1740.3,350.2,1750.6,359.5z"/>
				<path class="st22" d="M1788.9,376.4c33,19.9,75.9,35.8,110.1,43.4c34.2,7.5,56.8,11.9,64.5,23.9c7.7,12.1-19.4,13.6-7.9,31.4
					c0.3,0.5,0.6,0.9,0.9,1.3c0.8,0.5,1.7,1,2.6,1.4c15.9,6.8,35.1-41-11.1-51.3c-7.4-1.6-14.8-3.3-22.1-5.2
					c-10.1-2.5-20.1-5.3-30.1-8.3c-11.7-3.6-23.4-7.6-34.8-12c-12.5-4.9-24.7-10.3-36.7-16.3c-12.3-6.3-24.3-13.3-35.6-21.3
					c-11.4-8-22.1-16.8-31.7-26.8c-9.6-9.9-18.1-20.9-24.9-32.9c-8-14.1-13.2-29.6-18.4-44.8c-5.4-16-7.7-33.4-7.5-50.2
					c0.2-12.2,1.6-24.3,3.9-36.3c2.4-12,5.6-23.8,9.6-35.3c3.9-11.4,8.5-22.5,13.5-33.5c4.8-10.4,10.1-20.6,15.7-30.6
					c5.1-9.1,10.5-18,16.1-26.8c4.8-7.4,9.7-14.7,14.8-21.9c3.8-5.4,7.7-10.8,11.6-16.1c17.7-23.9,6.1-42.1-6.9-48.4
					c5.4,8.5,10.8,21.7,4.7,34.9c-10,21.7-84,128.7-92,177.1c-7.8,47.2-5.8,72.4,13.5,113.4C1729.9,326.1,1755.9,356.5,1788.9,376.4
					z"/>
				<polygon class="st16" points="1778,-12 1948.9,182 1951.1,450.3 1946.9,448.7 1944.8,183 1776.9,-9.4 				"/>
				<g>
					<path class="st8" d="M1918,193.8c0,0-0.6-9.5,13.2-24c14.8-15.7,27.6-12.8,27.4-5.5c-0.2,7.3-10.5,18.2-10.5,18.2
						s24.4,5.7,21.2,15.7C1966.3,207.6,1930.7,208.7,1918,193.8z"/>
					<g>
						<g>
							<g>
								<path class="st23" d="M1712.4,246.4"/>
							</g>
						</g>
					</g>
					<g>
						<path class="st1" d="M1624.5,309.7l330.5-125.4c0,0,0,0,0,0l-1.7-4.1l-1.6-4l-329.7,128.6l1,2L1624.5,309.7z"/>
						<path class="st24" d="M1624.5,309.7l330.5-125.4c0,0,0,0,0,0l-1.7-4.1l-330.3,126.5L1624.5,309.7z"/>
						<path class="st24" d="M1955.1,184.3C1955.1,184.3,1955.1,184.3,1955.1,184.3l-3.3-8.1c0,0-4.3,2.4-2.9,5.8
							C1950.3,185.3,1954.8,184.3,1955.1,184.3z"/>
					</g>
					<path class="st8" d="M1629.3,329.9c6.2-10,12.5-24,12.5-24l15.3-5l-4.8-11.6c0,0-5.6,3.3-13.9,7.7c-5.4-2.9-16.2-6.6-24.7-9.3
						L1629.3,329.9z"/>
				</g>
			</g>
			<g>
				<path class="st25" d="M1665.6,941.4c-0.7,43.6-24.4,81.3-59.4,101.9c-18.3,10.8-39.8,16.8-62.6,16.4
					c-12.7-0.2-24.8-2.3-36.3-6.1c-48.4-16.1-82.9-62.2-82.1-115.9c0.1-4.1,0.3-8.1,0.8-12c0.7-6.2,1.9-12.3,3.5-18.2
					c9-32.8,31.6-59.9,61.2-75c13.5-6.9,28.6-11.4,44.4-12.7c4-0.3,8-0.5,12-0.4c10.1,0.2,19.8,1.5,29.1,4
					c50.1,13.3,87.2,58.1,89.1,111.7C1665.6,937.1,1665.6,939.2,1665.6,941.4z"/>
				<path class="st26" d="M1620.2,917.8c-0.5,35.3-19.8,65.9-48.1,82.5c-14.8,8.7-32.2,13.6-50.7,13.3c-10.3-0.2-20.1-1.9-29.3-5
					c-35.9-12-62.3-44.2-66-83c0.7-6.2,1.9-12.3,3.5-18.2c9-32.8,31.6-59.9,61.2-75c13.5-6.9,28.6-11.4,44.4-12.7
					c4.3,0.5,8.6,1.4,12.7,2.5c40.6,10.8,70.6,47.1,72.2,90.4C1620.2,914.3,1620.2,916.1,1620.2,917.8z"/>
				<path class="st20" d="M1606.2,1043.2c-18.3,10.8-39.8,16.8-62.6,16.4c-12.7-0.2-24.8-2.3-36.3-6.1c-8.2-9.4-15.6-23.4-19.5-46.4
					c-0.7-4.3-1.3-8.9-1.7-13.8c-4.6-50.7,25.7-113.9,25.7-113.9l6.7,0.1l61.8,115.4L1606.2,1043.2z"/>
				<path class="st20" d="M1665.5,935c-7.7-11.6-22.9-29.7-48.3-42.6c-1.9-1-3.9-1.9-6-2.9c-44.6-19.9-88.9-9.1-88.9-9.1
					s-0.6-0.9-2.9-7.8c14.1-22.5,31.2-35.9,45.8-43.9c3.9-2.1,7.6-3.9,11.1-5.3C1626.5,836.7,1663.6,881.5,1665.5,935z"/>
				<path class="st16" d="M1515.7,874.3l-3.9,5.1c-0.8,0.2-47.1-6.3-82.3,28.1c9-32.8,31.6-59.9,61.2-75
					C1506.9,846.6,1515.7,874.3,1515.7,874.3z"/>
				<path class="st16" d="M1518.5,879.5l61.8,115.4c-2.6,1.9-5.4,3.7-8.2,5.4c-14.8,8.7-32.2,13.6-50.7,13.3
					c-10.3-0.2-20.1-1.9-29.3-5c-1.4-0.5-2.8-1-4.2-1.5c-0.7-4.3-1.3-8.9-1.7-13.8c-4.6-50.7,25.7-113.9,25.7-113.9L1518.5,879.5z"
					/>
				<path class="st16" d="M1617.3,892.4c-1.9-1-3.9-1.9-6-2.9c-44.6-19.9-88.9-9.1-88.9-9.1s-0.6-0.9-2.9-7.8
					c14.1-22.5,31.2-35.9,45.8-43.9C1590.9,841.1,1610.2,864.3,1617.3,892.4z"/>
				<path class="st16" d="M1529.9,870.8c2.9,5.9-0.5,13.6-7.7,17.2c-7.2,3.6-15.4,1.8-18.4-4.1c-2.9-5.9,0.5-13.6,7.7-17.2
					C1518.7,863.1,1527,864.9,1529.9,870.8z"/>
				<path class="st25" d="M1522.4,874.5c1.3,2.5-0.2,5.8-3.3,7.3c-3.1,1.5-6.6,0.8-7.8-1.8c-1.3-2.5,0.2-5.8,3.3-7.3
					C1517.7,871.2,1521.2,872,1522.4,874.5z"/>
			</g>
			<g>
				<path class="st16" d="M-54.2,905.5l-6.5,13.1c0,0,2.7,59.1,88.7,114.2c86,55.2,152.3,37.1,152.3,37.1l9.3-11.9L-54.2,905.5z"/>
				<path class="st20" d="M-35.1,905.2c0,0-11.3-1.1-19.1,0.4c4.7,27.1,26.4,84.6,101.7,127c75.3,42.4,133.8,28.2,142.2,25.5
					C178.1,1041.2,115.5,929-35.1,905.2z"/>
				<path class="st8" d="M181.3,1056.2c0,0-17,4-43.5,1.4c-2.7-0.3-5.5-0.6-8.4-1c-24.2-3.5-54.7-12.5-87.1-33.7
					c-0.3-0.2-0.7-0.4-1-0.7c-1.8-1.2-3.7-2.4-5.4-3.7C5.2,997.3-14.8,974.8-27.5,956c-1.7-2.4-3.2-4.8-4.6-7.1
					c-12.7-20.6-16.2-35.1-15.9-35.6c0.4-0.6,33.2-46.1,57.8-80.3c14.8-20.5,26.6-37,26.6-37l215.3,142.5L230.5,974L181.3,1056.2z"
					/>
				<path class="st19" d="M230.5,974c-36.7,0.7-88.8-5.2-134.9-36.7c-48.4-33.1-73.5-75.3-85.9-104.2c14.8-20.5,26.6-37,26.6-37
					l215.3,142.5L230.5,974z"/>
				<path class="st16" d="M62.9,823l-32.7,48l-57.8,85c-1.7-2.4-3.2-4.8-4.6-7.1c7.3-10.6,35.5-51.2,58.3-84.2
					c17-24.6,31.1-44.9,31.4-45.3L62.9,823z"/>
				<path class="st20" d="M57.5,819.4l5.4,3.6l-32.7,48c-1.4-2.1-2.8-4.2-4.1-6.3C43.2,840.1,57.3,819.8,57.5,819.4z"/>
				<path class="st16" d="M130.6,892.9l-31.7,46.6l-56.7,83.4c-0.3-0.2-0.7-0.4-1-0.7c-1.8-1.2-3.7-2.4-5.4-3.7
					c7.6-10.9,34.9-50.4,57.4-82.9c17.4-25.1,31.8-46,32.1-46.3L130.6,892.9z"/>
				<path class="st20" d="M125.2,889.3l5.4,3.6l-31.7,46.6c-1.1-0.7-2.2-1.5-3.3-2.2c-0.8-0.5-1.6-1.1-2.4-1.7
					C110.5,910.6,125,889.7,125.2,889.3z"/>
				<path class="st16" d="M137.8,1057.6c-2.7-0.3-5.5-0.6-8.4-1c11-17.8,34.4-56,52.8-85.8c14-22.8,25-40.7,25.2-41l5.5,3.3
					l-23.4,38.8L137.8,1057.6z"/>
				<path class="st20" d="M189.5,971.8c-2.4-0.3-4.9-0.7-7.4-1.1c14-22.8,25-40.7,25.2-41l5.5,3.3L189.5,971.8z"/>
				<path class="st16" d="M251.3,950.4c0,0-54.5,0.5-134.4-53.2c-77.3-52-90-98.2-90-98.2l12.5-17.7c0,0,47.4-2.3,126.3,50
					c79.8,52.8,97.1,100.3,97.1,100.3L251.3,950.4z"/>
				<path class="st20" d="M262.9,931.7c0,0-53.4-0.4-127.4-48.2c-74-47.8-96-102.1-96-102.1s47.4-2.3,126.3,50
					C245.5,884.2,262.9,931.7,262.9,931.7z"/>
				<path class="st20" d="M251.5,924.3c0,0-3.5-0.1-9.9-1.2c-17.2-2.8-55.2-12.3-103.6-43.6c-49.6-32.1-73.8-66.6-82.9-82.1
					c-3.1-5.2-4.4-8.3-4.4-8.3s41.7-0.7,112.6,46.3C234.9,883,251.5,924.3,251.5,924.3z"/>
				<path class="st26" d="M251.5,924.3c0,0-3.5-0.1-9.9-1.2c-10.4-17.1-35-50.5-82.4-81.8C114,811.4,75.6,801,55.1,797.4
					c-3.1-5.2-4.4-8.3-4.4-8.3s41.7-0.7,112.6,46.3C234.9,883,251.5,924.3,251.5,924.3z"/>
			</g>
			<g>
				<path class="st1" d="M421.1,864.6c0.2,3.1-2.3,5.8-5.4,5.9c-73.4,1.7-172.8,4.6-205,5.1c-8.8,0.1-17.4,2.1-25.7,5.2
					c-7.7,2.9-16.1,0-19.4-2.2c-4.4-2.9-3.7-11-0.8-14.3c1.2-1.4,3.3-2.6,5.8-3.5c3.4-1.2,7.6-1.6,11.5-0.5c0.6,0.2,1.2,0.4,1.8,0.5
					c7.8,2.4,16,3.5,24.1,3.2c29.9-1.1,131.2-5.2,207.2-8c3-0.1,5.6,2.2,5.8,5.3l0.1,1.1L421.1,864.6z"/>
				<path class="st24" d="M421.1,864.6c0.2,3.1-2.3,5.8-5.4,5.9c-73.4,1.7-172.8,4.6-205,5.1c-8.8,0.1-17.4,2.1-25.7,5.2
					c-7.7,2.9-16.1,0-19.4-2.2c-4.4-2.9-3.7-11-0.8-14.3c1.2-1.4,3.3-2.6,5.8-3.5c-1.3,3.8-1.1,7.9,3.6,10.5
					c9.9,5.4,14.2,1.8,33.1-0.5c7.7-1,120.6-5.3,213.7-8.5L421.1,864.6z"/>
				<path class="st27" d="M176.5,861.8c-3.3,0.5-4.3,3.2-0.2,5.3c4,2.1,9.7,3.2,11.3,0.3C189.1,864.5,183.3,860.7,176.5,861.8z"/>
			</g>
			<g>
				<path class="st1" d="M101.1,567.4c-3.1,0.7-4.9,3.9-4.1,6.9c19.4,70.8,45.2,166.9,53.9,197.8c2.4,8.5,3,17.3,2.4,26.1
					c-0.5,8.2,4.6,15.4,7.7,18c4.1,3.4,11.6,0.4,13.9-3.3c1-1.6,1.6-3.9,1.7-6.6c0.1-3.6-0.7-7.7-2.9-11.2c-0.3-0.5-0.7-1.1-1-1.5
					c-4.6-6.8-7.9-14.3-10-22.2c-7.5-29-32.7-127.2-51.7-200.8c-0.8-2.9-3.7-4.7-6.7-4l-1,0.2L101.1,567.4z"/>
				<path class="st24" d="M101.1,567.4c-3.1,0.7-4.9,3.9-4.1,6.9c19.4,70.8,45.2,166.9,53.9,197.8c2.4,8.5,3,17.3,2.4,26.1
					c-0.5,8.2,4.6,15.4,7.7,18c4.1,3.4,11.6,0.4,13.9-3.3c1-1.6,1.6-3.9,1.7-6.6c-3.3,2.3-7.2,3.4-11.1-0.5c-8-7.9-5.9-13.1-9-31.9
					c-1.3-7.6-29.5-117.1-53.2-207.1L101.1,567.4z"/>
				<path class="st27" d="M173.9,800.9c0.4,3.3-1.8,5-5,1.7c-3.2-3.2-5.9-8.4-3.5-10.7C167.7,789.7,173,794.2,173.9,800.9z"/>
			</g>
			<g>
				<g>
					<path class="st14" d="M563.9,829.8c-4.4-1.2-7-5.7-5.8-10.1c1.2-4.4,5.7-7,10.1-5.8c4.4,1.2,7,5.7,5.8,10.1
						C572.8,828.4,568.2,831,563.9,829.8z M623.2,846c-4.4-1.2-7-5.7-5.8-10.1c1.2-4.4,5.7-7,10.1-5.8c4.4,1.2,7,5.7,5.8,10.1
						C632.1,844.6,627.6,847.2,623.2,846z M645.6,835.6c-2.4-17.2-20-18.5-26.1-15.6c-3.5,1.7-10.9,5.5-16.7,8.4
						c-4.4,2.3-9.8,0.8-12.5-3.4c-3.5-5.5-7.9-12.5-10.1-15.7c-2.7-4-11.5-9.1-20.3-6.8c-3.5,0.9-7,3.1-10.1,7
						c-10.8,13.6,1.8,28.2,11.7,30.9l11.6,3.2c5.6,1.5,8.9,7.3,7.4,12.9l-9.2,33.7l14.8,4l9.2-33.7c1.5-5.6,7.3-8.9,12.9-7.4
						l11.6,3.2C629.8,859.1,648,852.8,645.6,835.6z"/>
					
						<rect x="570.9" y="874.4" transform="matrix(0.2627 -0.9649 0.9649 0.2627 -422.2608 1211.5027)" class="st22" width="21.3" height="15.3"/>
					<path class="st14" d="M548.3,885l2-7.4c1-3.7,4.8-5.8,8.5-4.8l47.5,12.9c3.7,1,5.8,4.8,4.8,8.5l-2.1,7.9L548.3,885z"/>
					<path class="st22" d="M580.6,856.6c1.5-5.6-1.8-11.4-7.4-12.9l-11.6-3.2c-9.9-2.7-22.5-17.3-11.7-30.9c3.1-3.9,6.6-6,10.1-7
						c-3.7,2.4-8.4,6.7-9.3,13.5c-1.6,11.6,4.3,17.4,11.4,20.1C569.1,838.9,585.1,842.2,580.6,856.6z"/>
				</g>
				<g>
					<g>
						<path class="st8" d="M736.6,1032.3l-5.3,19.6c-0.8,2.8-3.7,4.5-6.5,3.7l-8.5-2.3c-2.8-0.8-4.5-3.7-3.7-6.5l5.3-19.6
							c0.8-2.8,3.7-4.5,6.5-3.7l8.5,2.3C735.7,1026.6,737.3,1029.5,736.6,1032.3z"/>
						<path class="st19" d="M733.3,1044.3l-2.1,7.6c-0.8,2.8-3.7,4.5-6.5,3.7l-8.5-2.3c-2.8-0.8-4.5-3.7-3.7-6.5l1.3-4.6l14.9,4
							C730.1,1046.6,731.8,1045.6,733.3,1044.3z"/>
						<path class="st16" d="M376.4,924.7c0,0-10,33.8-10.2,34.4c-0.1,0.3-4.2-10.2-8.3-20.7c-1.8-4.7-3.7-9.5-5.1-13.3
							c-1.2-3.2,1.7-6.4,5-5.5L376.4,924.7z"/>
						<path class="st20" d="M376.4,924.7c0,0-10,33.8-10.2,34.4c-0.1,0.3-4.2-10.2-8.3-20.7l4.8-17.5L376.4,924.7z"/>
						<path class="st26" d="M729.7,1021.8l-16.8,61.7l-21.8-5.9c0,0,3.8-11.9,3-25.7c-0.9-15.4-7.7-33.3-32.1-39.7
							c-14.6-3.8-25.5-0.8-33.7,5c-0.8,0.5-1.5,1.1-2.2,1.7c-4.1,3.4-7.5,7.5-10.1,11.8c-4.2,6.6-6.7,13.3-8.1,18
							c-1,3.2-4.4,5.1-7.7,4.2l-130.5-35.5c1.3-3.4,4.7-13.7,4.7-25.2c0-2.7-0.2-5.4-0.7-8.2c-0.2-1.2-0.4-2.4-0.8-3.6
							c-3-11.8-11.4-23.2-31-28.5c-25.7-7-39.6,5.4-47,18.6c-6.6,11.8-8,24.3-8,24.3l-36-9.8l17-62.6c1-3.6,4.7-5.8,8.3-4.8
							l14.4,3.9c3.3-11.9,14.5-14.2,25.6-11.2c11.1,3,45.5,12.4,45.5,12.4l36.2-42.5l6.2-7.3c2.7-3.2,7-4.5,11-3.4l128.4,34.9
							c3.8,1,6.8,4.1,7.7,8l2.3,10l12.5,55.7c0,0,27.9,7.3,43.1,11.7c7.7,2.3,10.8,7.7,8.9,14.6c-1.4,5.3-1.8,6.2-1.7,6.3
							c0,0,0,0,0,0l8.7,2.4C728.5,1014.4,730.7,1018.1,729.7,1021.8z"/>
						<path class="st28" d="M724.9,1039.1l-12.1,44.4l-21.8-5.9c0,0,3.8-11.9,3-25.7c-0.9-15.4-7.7-33.3-32.1-39.7
							c-14.6-3.8-25.5-0.8-33.7,5c-0.8,0.5-1.5,1.1-2.2,1.7c-4.1,3.4-7.5,7.5-10.1,11.8c-4.2,6.6-6.7,13.3-8.1,18
							c-1,3.2-4.4,5.1-7.7,4.2l-130.5-35.5c1.3-3.4,4.7-13.7,4.7-25.2c0-2.7-0.2-5.4-0.7-8.2c-0.2-1.2-0.4-2.4-0.8-3.6
							c-3-11.8-11.4-23.2-31-28.5c-25.7-7-39.6,5.4-47,18.6c-6.6,11.8-8,24.3-8,24.3l-36-9.8l12-43.9c28.7,0,77.9,1.7,194.4,33.5
							C658.3,1002,697.4,1022.9,724.9,1039.1z"/>
						<g>
							<path class="st25" d="M526.5,880.6l-40,50.1l-0.1,0.1l-13.5,49.5c0.3,1.2,0.6,2.4,0.8,3.6l14.2-52.3l39.2-49.2l51.3,14
								l-38.1,140.1l1.6,0.4l38.6-141.7L526.5,880.6z"/>
							<path class="st25" d="M629.7,908.7l-50.9-13.9l-38.6,141.7l1.6,0.4L580,896.9l48.3,13.1l10.4,62.7l-12.6,46.2
								c0.7-0.6,1.4-1.2,2.2-1.7l12.1-44.4L629.7,908.7z"/>
						</g>
						<path class="st25" d="M461.7,922.8L461.7,922.8c-7.7,8.6-19.5,12.1-30.6,9.2l-40.5-10.4c3.3-11.9,14.5-14.2,25.6-11.2
							C427.4,913.4,461.7,922.8,461.7,922.8z"/>
						<path class="st25" d="M716.2,1011l-27.9-7.6c-11-3-19.4-11.8-21.9-23l-0.5-2.1c0,0,27.9,7.3,43.1,11.7
							c7.7,2.3,10.8,7.7,8.9,14.6C716.4,1010,716.1,1010.9,716.2,1011z"/>
						<polygon class="st6" points="517.1,885.5 497.9,909.9 483.2,928.6 461.7,922.8 475,907.1 497.9,880.3 						"/>
						<polygon class="st6" points="665.9,978.3 644.4,972.5 639.6,946.8 634.1,917.4 653.4,922.6 660.5,954.3 						"/>
						<polygon class="st6" points="573,901.2 559.7,950 493.1,931.9 509.6,911.8 528.4,888.9 						"/>
						<polygon class="st6" points="634.4,970.4 568.8,952.5 582.1,903.7 625.3,915.7 630,943.6 						"/>
						<path class="st16" d="M394.9,970.4l-6.9,25.3c-0.9,3.4-4.4,5.3-7.7,4.4l-35.5-9.7c-4.4-1.2-7-5.5-6.2-9.9
							c0-0.2,0.1-0.5,0.2-0.7l4-14.7c1.3-4.6,6-7.3,10.6-6.1L394.9,970.4z"/>
						<path class="st16" d="M615.9,1030.6l-6.9,25.3c-0.9,3.4-4.4,5.3-7.7,4.4l-129.5-35.3c-3.4-0.9-5.3-4.4-4.4-7.7l6.9-25.3
							L615.9,1030.6z"/>
						<path class="st16" d="M726.5,1068.1l-4.8,17.7c-1,3.8-4.9,6-8.7,5l-21.4-5.8c-3.4-0.9-5.3-4.4-4.4-7.7l6.9-25.3l27.4,7.5
							C725.3,1060.4,727.5,1064.3,726.5,1068.1z"/>
						<path class="st20" d="M390.5,986.6l-2.5,9.1c-0.9,3.4-4.4,5.3-7.7,4.4l-35.5-9.7c-4.4-1.2-7-5.5-6.2-9.9
							c1.5-4.2,6-6.5,10.4-5.3L390.5,986.6z"/>
						<path class="st20" d="M611.5,1046.7l-2.5,9.1c-0.9,3.4-4.4,5.3-7.7,4.4l-129.5-35.3c-3.4-0.9-5.3-4.4-4.4-7.7l2.5-9.1
							L611.5,1046.7z"/>
						<path class="st20" d="M722.1,1084.2l-0.4,1.5c-1,3.8-4.9,6-8.7,5l-21.4-5.8c-3.4-0.9-5.3-4.4-4.4-7.7l2.5-9.1l27.4,7.5
							C720.9,1076.5,723.1,1080.4,722.1,1084.2z"/>
						<path class="st6" d="M548.1,964.1l-9.7-2.6c-3.3-0.9-5.3-4.4-4.4-7.7l0,0c0.3-1.1,1.5-1.8,2.6-1.5l17.6,4.8
							c1.1,0.3,1.8,1.5,1.5,2.6l0,0C554.9,963.1,551.4,965,548.1,964.1z"/>
						<path class="st6" d="M622.5,984.4l-9.7-2.6c-3.3-0.9-5.3-4.4-4.4-7.7l0,0c0.3-1.1,1.5-1.8,2.6-1.5l17.6,4.8
							c1.1,0.3,1.8,1.5,1.5,2.6l0,0C629.3,983.3,625.8,985.3,622.5,984.4z"/>
					</g>
					<path class="st29" d="M689.7,1009.9c0,0,30.4,18.6,32.8,19c2-7.5,2-7.5,2-7.5S697.5,1011.7,689.7,1009.9z"/>
					<path class="st29" d="M378.1,923.9c-3.1-0.8-3.5,1.3-3.8,2.5l-0.8,2.8c-0.7,2.6,1.2,5.1,3.8,5.2c11.9,0.4,40.7,1.4,46,1.8
						C408.9,932.3,378.1,923.9,378.1,923.9z"/>
					<path class="st30" d="M475,907.1c6.5,0.6,14.1,1.5,22.9,2.8l-14.7,18.7l-21.4-5.8L475,907.1z"/>
					<path class="st30" d="M509.6,911.8c15.7,2.8,34.6,6.8,57,12.8l-6.9,25.4l-66.6-18.1L509.6,911.8z"/>
					<path class="st30" d="M630,943.6l4.4,26.8l-65.7-17.9l6.9-25.4C595.7,932.6,613.9,938.2,630,943.6z"/>
					<path class="st30" d="M665.9,978.3l-21.4-5.8l-4.8-25.7c7.5,2.6,14.4,5,20.8,7.4L665.9,978.3z"/>
				</g>
				<g>
					<g>
						<path class="st6" d="M468.1,1002.6c-5.5,20.1-26.2,32-46.4,26.5c-20.1-5.5-32-26.2-26.5-46.4c1-3.7,2.5-7.1,4.5-10.2
							c8.6-13.7,25.5-20.8,41.9-16.3c16.8,4.6,27.8,19.8,27.9,36.4C469.4,995.9,469,999.3,468.1,1002.6z"/>
						<g>
							<path class="st30" d="M468.1,1002.6c-5.5,20.1-26.2,32-46.4,26.5c-20.1-5.5-32-26.2-26.5-46.4c1-3.7,2.5-7.1,4.5-10.2
								c4.4,6.4,14.1,16.3,33.2,21.3c16.6,4.3,29,1.8,36.6-1.2C469.4,995.9,469,999.3,468.1,1002.6z"/>
							<path class="st31" d="M454.3,998.8c-3.4,12.6-16.4,20-29,16.6c-12.6-3.4-20-16.4-16.6-29c0.3-1.2,0.7-2.3,1.2-3.4
								c4.6-10.5,16.4-16.4,27.8-13.2c11.6,3.2,18.9,14.5,17.2,26.1C454.7,996.9,454.5,997.9,454.3,998.8z"/>
							<path class="st6" d="M454.3,998.8c-3.4,12.6-16.4,20-29,16.6c-12.6-3.4-20-16.4-16.6-29c0.3-1.2,0.7-2.3,1.2-3.4
								c5.4,4.2,12.9,8.2,23,10.8c8.5,2.2,15.8,2.6,22,2.1C454.7,996.9,454.5,997.9,454.3,998.8z"/>
						</g>
					</g>
					<path class="st16" d="M441.2,995.3c0,0.1,0,0.2-0.1,0.2c-1.6,5.3-7.1,8.4-12.4,6.9c-5.4-1.5-8.6-7-7.1-12.4l0,0
						c0.1-0.5,0.3-1,0.5-1.4c2-4.5,7-7,12-5.7c5,1.4,8.1,6.2,7.4,11.2C441.4,994.5,441.4,994.9,441.2,995.3z"/>
					<path class="st20" d="M441.2,995.5c-1.6,5.3-7.1,8.4-12.4,6.9c-5.4-1.5-8.6-7-7.1-12.4c3.3,1.5,7,2.8,11.2,3.9
						C435.7,994.6,438.5,995.1,441.2,995.5z"/>
				</g>
				<g>
					<g>
						<path class="st6" d="M687.4,1062.3c-5.5,20.1-26.2,32-46.4,26.5c-20.1-5.5-32-26.2-26.5-46.4c1-3.7,2.5-7.1,4.5-10.2
							c8.6-13.7,25.5-20.8,41.9-16.3c16.8,4.6,27.8,19.8,27.9,36.4C688.7,1055.6,688.3,1059,687.4,1062.3z"/>
						<g>
							<path class="st30" d="M687.4,1062.3c-5.5,20.1-26.2,32-46.4,26.5c-20.1-5.5-32-26.2-26.5-46.4c1-3.7,2.5-7.1,4.5-10.2
								c4.4,6.4,14.1,16.3,33.2,21.3c16.6,4.3,29,1.8,36.6-1.2C688.7,1055.6,688.3,1059,687.4,1062.3z"/>
							<path class="st31" d="M673.6,1058.5c-3.4,12.6-16.4,20-29,16.6c-12.6-3.4-20-16.4-16.6-29c0.3-1.2,0.7-2.3,1.2-3.4
								c4.6-10.5,16.4-16.4,27.8-13.2c11.6,3.2,18.9,14.5,17.2,26.1C674,1056.6,673.8,1057.6,673.6,1058.5z"/>
							<path class="st6" d="M673.6,1058.5c-3.4,12.6-16.4,20-29,16.6c-12.6-3.4-20-16.4-16.6-29c0.3-1.2,0.7-2.3,1.2-3.4
								c5.4,4.2,12.9,8.2,23,10.8c8.5,2.2,15.8,2.6,22,2.1C674,1056.6,673.8,1057.6,673.6,1058.5z"/>
						</g>
					</g>
					<path class="st16" d="M660.5,1055c0,0.1,0,0.2-0.1,0.2c-1.6,5.3-7.1,8.4-12.4,6.9c-5.4-1.5-8.6-7-7.1-12.4l0,0
						c0.1-0.5,0.3-1,0.5-1.4c2-4.5,7-7,12-5.7c5,1.4,8.1,6.2,7.4,11.2C660.7,1054.2,660.7,1054.6,660.5,1055z"/>
					<path class="st20" d="M660.5,1055.2c-1.6,5.3-7.1,8.4-12.4,6.9c-5.4-1.5-8.6-7-7.1-12.4c3.3,1.5,7,2.8,11.2,3.9
						C655,1054.3,657.8,1054.8,660.5,1055.2z"/>
				</g>
			</g>
			<g>
				<g>
					<path class="st1" d="M1090,1103.4c-17.9,19.9-55,13.6-56.3-21.9c-0.1-3.1,0.5-6.5,1.6-10.2c12.1-38.4,87.2-103.6,87.2-103.6
						l31.2,17.9l3.6,2C1157.2,987.5,1107.9,1083.5,1090,1103.4z"/>
					<path class="st24" d="M1090,1103.4c-17.9,19.9-55,13.6-56.3-21.9c-0.1-3.1,0.5-6.5,1.6-10.2c2.9,6.6,9.6,13.8,24.1,16.7
						c21.5,4.3,69-63.7,94.2-102.4l3.6,2C1157.2,987.5,1107.9,1083.5,1090,1103.4z"/>
				</g>
				<g>
					<path class="st1" d="M1200.2,1170.9c-9.3,5.6-18.1,7-25.7,5.4c-17.3-3.6-28.3-22.3-23.6-40.3c6.7-25.9,59.5-120,59.5-120
						l4.3,2.1l31.5,15.8C1246.1,1034,1230.5,1152.4,1200.2,1170.9z"/>
					<path class="st24" d="M1174.4,1176.3c-17.3-3.6-28.3-22.3-23.6-40.3c6.7-25.9,59.5-120,59.5-120l4.3,2.1
						C1197.5,1062.5,1165.7,1151.7,1174.4,1176.3z"/>
				</g>
				<g>
					<path class="st1" d="M1205.6,892.7c-0.4,0.1-0.8,0.2-1.3,0.3c-16.9,3.7-84.2,15.3-103.7,14.1c-20-1.2-38.3-12.1-37.4-27.4
						c0.5-7.9,3.6-15.2,9.6-20.5c5.6-5,13.6-8.2,24.2-8.8c22.1-1.2,82.8,7.6,110.3,10.6C1227.8,863.3,1220.1,889.4,1205.6,892.7z"/>
					<path class="st24" d="M1204.3,893c-16.9,3.7-84.2,15.3-103.7,14.1c-20-1.2-38.3-12.1-37.4-27.4c0.5-7.9,3.6-15.2,9.6-20.5
						c0.2,10.3,3.9,21.6,16.6,27.5C1107.4,895,1166.2,894.4,1204.3,893z"/>
				</g>
				<g>
					<path class="st1" d="M1263.6,919.4c0.1,0.4,0.3,0.8,0.5,1.3c6.3,16.2,33.7,78.7,45.5,94.3c12,16,31.3,25.2,43.4,16.1
						c6.3-4.7,10.7-11.4,11.8-19.3c1.1-7.4-0.6-15.9-6-25c-11.2-19-52-64.8-69.7-86.1C1275.9,884.7,1258.4,905.5,1263.6,919.4z"/>
					<path class="st24" d="M1264.1,920.6c6.3,16.2,33.7,78.7,45.5,94.3c12,16,31.3,25.2,43.4,16.1c6.3-4.7,10.7-11.4,11.8-19.3
						c-8.8,5.5-20.1,8.6-32.1,1.3C1316,1002.6,1284,953.2,1264.1,920.6z"/>
				</g>
				<g>
					<path class="st1" d="M1166.5,1047.5c-19.6-9.3-32-20.5-39.4-32.5c-16.6-26.9-7.3-57.6,5.5-78.3c23.3-37.3,78-81.1,78-81.1
						s4.9,1.5,13,4.7c14.2,5.7,38,16.8,61.3,34.5c1.8,1.4,3.7,2.8,5.5,4.3c-1.4,24.5-4.8,51.4-10.3,76c-3.1,13.8-6.9,26.9-11.3,38.3
						C1259.3,1038,1230.1,1077.7,1166.5,1047.5z"/>
					<path class="st24" d="M1268.1,941.4c-15.4-1.3-19.6-23.2-19.6-23.2s-3.3,1.4-8.1,1.5c-4.7,0.1-5.1-6.3-5.1-6.3
						s-3.8,3.2-8.4,0.3c-4.7-3-2.8-6.6-2.8-6.6s-23.8,9.9-32.3-3.8c-8.4-13.7,21.2-37.8,21.2-37.8c2.3-2.7,5.6-4.4,9.6-5.1
						c15.3,5.9,41,17.4,66.3,36.1c0,0.4-0.1,0.7-0.1,1.1C1285.3,916.3,1283.5,942.6,1268.1,941.4z"/>
					<path class="st27" d="M1250.1,1002.4c-14.7,27.2-45.6,46-78,30.9c-26.6-12.3-34.3-39-29.5-64.1c7.2-37.3,42.2-71.3,84.8-50
						C1263.2,937,1265.3,974.2,1250.1,1002.4z"/>
					<path class="st24" d="M1166.5,1047.5c-19.6-9.3-32-20.5-39.4-32.5c9.2,8.7,43.1,37.3,83.6,30.7c33.6-5.5,53.4-27.4,69.4-70.6
						c-3.1,13.8-6.9,26.9-11.3,38.3C1259.3,1038,1230.1,1077.7,1166.5,1047.5z"/>
					<path class="st32" d="M1250.1,1002.4c-14.7,27.2-45.6,46-78,30.9c-26.6-12.3-34.3-39-29.5-64.1c2.1,17.4,10.1,40.6,36.8,50.8
						C1209.1,1031.2,1234.6,1015.8,1250.1,1002.4z"/>
				</g>
				<g>
					<g>
						<path class="st1" d="M1271.3,764.6c6.6-19.3-2.8-58.2-40.6-49.7c-43.9,9.8-30.1,54.8-10.6,65.8
							C1239.1,791.5,1264.7,784,1271.3,764.6z"/>
						<path class="st33" d="M1258.4,760.1c3.9-11.5-1.7-34.7-24.2-29.7c-26.2,5.9-18,32.7-6.3,39.3
							C1239.2,776.2,1254.5,771.6,1258.4,760.1z"/>
						<path class="st1" d="M1383.3,779.3c16.5,12,31.2,49.2-4.6,64c-41.5,17.2-56.2-27.4-46.6-47.7
							C1341.5,775.9,1366.8,767.3,1383.3,779.3z"/>
						<path class="st33" d="M1375.5,790.3c9.9,7.2,18.7,29.6-2.8,38.5c-25,10.3-33.7-16.5-28-28.7
							C1350.4,788.2,1365.6,783.1,1375.5,790.3z"/>
						<path class="st1" d="M1323,760c-32-16.9-50.4-20-83.5-9.5c-33.1,10.5-52,41.1-54.2,69.8c-2.1,28.7,25.1,55.9,61.8,71.9
							c36.7,16,79.9,32.4,109.8-11.1C1386.8,837.6,1364.8,782.1,1323,760z"/>
						<path class="st33" d="M1311.3,870.3c3.8-18.4-15.5-34.8-26.2-40.9c-10.7-6-29.7-15-46.6-8.9c-6.9,2.5-19.1,12.3-11.5,30.3
							c6.8,16,29.5,28.1,43.1,32C1290.4,888.7,1308.1,885.6,1311.3,870.3z"/>
						<path class="st34" d="M1237.5,788.5c0.7,0.2,37.3,30,37.3,30s0.4-20.6-10.5-28.7C1253.3,781.6,1237.5,788.5,1237.5,788.5z"/>
						<path class="st34" d="M1337.3,840.3c-0.5-0.5-46-13.2-46-13.2s16.6-12.2,29.6-7.9C1333.8,823.4,1337.3,840.3,1337.3,840.3z"/>
						<path class="st9" d="M1348.5,865.9c-2.1,4.1-10.3,4.1-18.3-0.1c-8-4.1-12.7-10.8-10.6-14.9c2.1-4.1,10.3-4.1,18.3,0.1
							C1345.9,855.2,1350.6,861.8,1348.5,865.9z"/>
						<path class="st9" d="M1234.4,811.9c-2.1,4.1-10.3,4.1-18.3-0.1c-8-4.1-12.7-10.8-10.6-14.9c2.1-4.1,10.3-4.1,18.3,0.1
							C1231.8,801.1,1236.5,807.8,1234.4,811.9z"/>
						<path class="st1" d="M1276.2,862.8c-9-9.5-3.5-21.3-3.5-21.3l1-2.9l-1.6,2.3c0,0-6.4,11.3-19.4,9.4c-8.1-1.2-15-9.9-15-9.9
							s1.2,12.7,14.9,15c7.4,1.3,11.6-1.6,15.4-6c-1.5,7.5-0.8,12.7,4.8,16.9c11.2,8.4,19.9,3,19.9,3S1281.8,868.8,1276.2,862.8z"/>
						<path class="st6" d="M1265,827.2c-2.2,0.7-6.1,9.7,3.9,16.6c9.7,6.7,19.3,0.7,19.9-3.1C1289.4,836.9,1271.6,825,1265,827.2z"
							/>
					</g>
				</g>
				<g>
					<path class="st17" d="M1235.1,896.2c-0.8,0.8-2,1.3-3.7,1.9c-3.5,1.2-15.9,2.6-22.9,1.6c-7.1-1-10.8-3-10.4-10.4
						c0.2-3.2,2.4-9.6,5.8-15.4c4.5-7.6,10.9-14.2,17.1-11.1c8.9,4.5,14.1,18.9,15.5,24.9c0.4,1.8,0.5,3.7,0.1,5.5
						C1236.4,894.5,1235.9,895.5,1235.1,896.2z"/>
					<path class="st22" d="M1235.1,896.2c-0.8,0.8-2,1.3-3.7,1.9c-3.5,1.2-15.9,2.6-22.9,1.6c-7.1-1-10.8-3-10.4-10.4
						c0.2-3.2,2.4-9.6,5.8-15.4c-1.4,5.7-3.2,16.5,1.8,19.9C1210.4,897,1225.5,896.7,1235.1,896.2z"/>
					<path class="st22" d="M1235,894c1.3-1.9-4-16-7.7-17.5c-3.7-1.5,1.7,10.1,1.7,10.1s-8.8-6.7-9.9-5c-1.1,1.7,8.8,8.9,8.8,8.9
						s-12.1,0.8-11.4,2.5C1217.2,894.8,1233.7,895.9,1235,894z"/>
					<path class="st17" d="M1281.5,921.3C1281.5,921.4,1281.5,921.4,1281.5,921.3c-1.7,2.9-3.4,5.1-4.8,6.3
						c-5.6,4.9-9.5,3.2-14.6-1.7c-5.1-5-11.7-15.6-12.9-19.1c-0.3-0.9-0.5-1.6-0.6-2.3c-0.5-2.8,0.5-4.4,3.6-7.2
						c0,0,19.7-8.3,30.8-3.1C1291.5,898.3,1286.8,912.5,1281.5,921.3z"/>
					<path class="st22" d="M1281.5,921.4c-1.7,2.8-3.4,5.1-4.8,6.3c-5.6,4.9-9.5,3.2-14.6-1.7c-5.1-5-11.7-15.6-12.9-19.1
						c-0.3-0.9-0.5-1.6-0.6-2.3c5.4,8.4,13.7,19.9,20,21.9C1273.5,928,1278.1,924.9,1281.5,921.4z"/>
					<path class="st22" d="M1249.3,901.5c0.8-2.1,15.4-6,18.7-3.8c3.3,2.2-9.2,4.4-9.2,4.4s10.6,3.3,9.8,5.2
						c-0.8,1.9-12.3-2.1-12.3-2.1s6.3,10.3,4.5,10.8C1258.9,916.4,1248.5,903.6,1249.3,901.5z"/>
					<path class="st17" d="M1245.4,890.5c-0.5,0.5,0.4-5.6-4.2-6.5c-6.1-1.3-12.7,14.4-10.9,18.6c1.8,4.2,8.7,1.8,8.7,1.8
						s1.1,5.2,6,5c4.9-0.1,10.5-14.4,8.9-18C1252.3,887.9,1248.5,887.4,1245.4,890.5z"/>
					<path class="st22" d="M1242.5,893.8c-0.1-0.5,0.5-4.9-1-4.4c-1.5,0.5-5.2,8.9-4.4,9.5c0.8,0.6,4.1-1.8,4.1-1.8s-0.1,8,2.2,5.9
						c2.4-2.1,6.7-10.2,5-10.8C1246.7,891.7,1242.5,893.8,1242.5,893.8z"/>
				</g>
			</g>
		</g>
	</g>
</g>
</svg>
