<?xml version="1.0" encoding="utf-8"?>
<!-- Generator: Adobe Illustrator 27.4.0, SVG Export Plug-In . SVG Version: 6.00 Build 0)  -->
<svg version="1.1"
	 id="svg289" xmlns:cc="http://creativecommons.org/ns#" xmlns:dc="http://purl.org/dc/elements/1.1/" xmlns:rdf="http://www.w3.org/1999/02/22-rdf-syntax-ns#" xmlns:sodipodi="http://sodipodi.sourceforge.net/DTD/sodipodi-0.dtd" xmlns:inkscape="http://www.inkscape.org/namespaces/inkscape" xmlns:svg="http://www.w3.org/2000/svg" inkscape:version="0.92.4 (5da689c313, 2019-01-14)" sodipodi:docname="student.svg"
	 xmlns="http://www.w3.org/2000/svg" xmlns:xlink="http://www.w3.org/1999/xlink" x="0px" y="0px" viewBox="0 0 176.9 176.8"
	 style="enable-background:new 0 0 176.9 176.8;" xml:space="preserve">
<style type="text/css">
	.st0{fill:#3989C4;}
	.st1{fill:#3078A7;}
	.st2{fill:#363534;}
	.st3{fill:#ED573F;}
	.st4{fill:#FCB790;}
	.st5{fill:#FFFEFF;}
</style>
<defs>
	
		<inkscape:path-effect  apply_no_weight="true" apply_with_weight="true" effect="bspline" helper_size="0" id="path-effect9762" is_visible="true" only_selected="false" steps="2" weight="33.333333">
		</inkscape:path-effect>
	
		<inkscape:path-effect  apply_no_weight="true" apply_with_weight="true" effect="bspline" helper_size="0" id="path-effect9740" is_visible="true" only_selected="false" steps="2" weight="33.333333">
		</inkscape:path-effect>
	
		<inkscape:path-effect  apply_no_weight="true" apply_with_weight="true" effect="bspline" helper_size="0" id="path-effect9586" is_visible="true" only_selected="false" steps="2" weight="33.333333">
		</inkscape:path-effect>
	
		<inkscape:path-effect  apply_no_weight="true" apply_with_weight="true" effect="bspline" helper_size="0" id="path-effect9740-1" is_visible="true" only_selected="false" steps="2" weight="33.333333">
		</inkscape:path-effect>
</defs>
<sodipodi:namedview  bordercolor="#666666" borderopacity="1.0" fit-margin-bottom="0" fit-margin-left="0" fit-margin-right="0" fit-margin-top="0" id="base" inkscape:current-layer="layer1" inkscape:cx="-209.20158" inkscape:cy="-1.9514653" inkscape:document-units="mm" inkscape:pageopacity="0.0" inkscape:pageshadow="2" inkscape:window-height="705" inkscape:window-maximized="1" inkscape:window-width="1366" inkscape:window-x="-8" inkscape:window-y="-8" inkscape:zoom="0.7" pagecolor="#ffffff" showgrid="false">
	</sodipodi:namedview>
<g>
	<path class="st0" d="M121.9,60.2c0.3,0.2,0.4,0.4,0.4,0.7c0.1,1.5-0.1,3-0.2,4.6c0,0.1-0.1,0.1-0.1,0.2c-0.4,0.4-0.5,1.4-0.1,2.1
		c0.1,1.1-0.1,2.2-0.2,3.4c-0.1,0.7,0,1.4-0.1,2.2c-0.1,1.7-0.3,3.3-0.4,5c0,0.8-0.2,1.6-0.2,2.4c0,0.9-0.3,1.8-0.8,2.5
		c-0.5,0.7-1,1.4-1.5,2.1c-0.2,0-0.4,0.2-0.5,0.3c-0.7,0.7-1.4,1.5-2,2.3c-0.3,0.5-1,0.6-1.3,1.1c-0.4,0.5-0.5,1.3-1.3,1.4
		c-0.1,0.4-0.5,0.5-0.8,0.7c-0.2,0.1-0.3,0.2-0.4,0.4c-0.6,0.7-1.3,1.5-2.1,2c-0.2,0.1-0.4,0.3-0.6,0.5c-0.6,0.6-1.1,1.1-1.7,1.7
		c-0.6,0.6-1.2,1.1-1.8,1.7c-0.6,0.6-1.2,1.3-1.9,1.8c-0.6,0.5-1,1.1-1.2,1.8c-0.1,0.3-0.3,0.6-0.4,0.8c-0.8,1.3-1.4,2.7-2,4.1
		c-0.6,1.5-1.1,3-1.8,4.4c-0.4,0.8-0.8,1.7-1.4,2.4c-0.5,0.5-0.8,1.2-1.3,1.6c-0.7,0.6-1.4,1.1-2,1.7c-0.6,0.5-1.2,0.7-1.9,0.9
		c-1.3,0.3-2.6,0.3-3.9,0.3c-0.3,0-0.6-0.1-1-0.2c-1.2-0.4-2.1-1.1-3.1-1.8c-1.3-0.9-2.3-2-3.3-3.3c-0.2-0.2-0.3-0.4-0.4-0.7
		c-0.4-1.2-0.8-2.4-1.4-3.5c-0.4-0.8-0.8-1.7-1.1-2.5c-0.2-0.7-0.3-1.4-0.8-2c-0.4-0.5-0.6-1.1-0.9-1.7c-0.5-0.9-1.1-1.8-1.9-2.5
		c-1-0.9-2.4-1.5-2.9-2.9c0,0-0.1-0.1-0.1-0.1c-0.9-0.9-1.8-1.7-2.7-2.5c-0.6-0.5-1.2-1-1.7-1.6c-0.6-0.8-1.2-1.5-1.9-2.1
		c-0.5-0.4-1.1-0.8-1.5-1.4c-0.9-1-1.7-2-2.6-2.9c-0.4-0.4-0.8-0.7-1-1.2c-0.1-0.5-0.4-0.7-0.9-0.7c0,0,0,0,0-0.1
		c0,0-0.1-0.1-0.1-0.1c-0.7-0.8-1.1-1.7-1.1-2.7c-0.1-0.8-0.1-1.5-0.2-2.3c0.1-0.1,0.1-0.3,0-0.4c0-0.1,0-0.2,0-0.3
		c0-0.5,0.1-1.1-0.1-1.6c0-1.2-0.1-2.3-0.2-3.5c0-0.1,0-0.3,0-0.4c0-1.9-0.1-3.8-0.4-5.7c0-0.3,0-0.6,0-0.9c0-1.4-0.1-2.8-0.1-4.2
		c0-0.4-0.1-0.9,0.4-1.1c1.2-0.4,2.4-0.9,3.7-1c0.8-0.1,1.6-0.3,2.3,0.1c0.2,1.1,0.5,2.2,0.7,3.2c0.5,2.3,0.8,4.6,1.4,6.8
		c0.3,1.1,0.5,2.2,0.7,3.3c0.3,1.7,0.7,3.4,1.2,5.1c0.1,0.4,0.3,0.7,0.6,1.1c0.8,1.1,1.9,1.8,2.9,2.7c0.3,0.4,0.8,0.6,1.1,0.9
		c1.6,1.2,3.1,2.5,4.6,3.8c1,0.9,2.1,1.7,3.5,1.9c0.5,0.5,1,1,1.7,1.3c0,0,0.1,0.1,0.1,0.1c0.9,1.3,1.9,2.5,3.4,3.1
		c0,0.3,0.2,0.3,0.4,0.3c0.1,0,0.2,0.1,0.3,0.1c0.3,0.5,0.8,0.8,1.3,1.1c0.2,0.1,0.3,0,0.4-0.1c0.3,0.1,0.7,0.2,1,0.3
		c0.8,0.4,1.5,0.4,2.4,0.2c1.3-0.3,2.6-0.6,3.6-1.6c0.5-0.5,1-1.1,1.6-1.6c1.1-0.8,1.8-1.9,2.1-3.3c0.1,0,0.2,0,0.3,0
		c1.3,0.1,2.4-0.4,3.4-1.2c0.9-0.7,1.7-1.4,2.6-2.1c1.5-1.3,3.2-2.5,4.7-3.7c0.8-0.6,1.5-1.4,2.2-2.1c0.6-0.8,0.7-1.7,0.9-2.6
		c0.5-2.3,0.9-4.6,1.4-6.9c0.4-1.9,0.8-3.7,1.1-5.6c0.3-1.5,0.7-3,1.1-4.5c0.2-0.1,0.4-0.2,0.6-0.2c0.8,0,1.6,0,2.3,0.2
		C120,59.4,120.9,59.8,121.9,60.2z"/>
	<path class="st1" d="M59.1,83.6c0.4,0,0.7,0.2,0.9,0.7c0.2,0.5,0.6,0.9,1,1.2c0.9,0.9,1.8,1.9,2.6,2.9c0.4,0.5,1,0.9,1.5,1.4
		c0.7,0.6,1.3,1.3,1.9,2.1c0.5,0.6,1.1,1.1,1.7,1.6c1,0.8,1.8,1.6,2.7,2.5c0,0,0.1,0.1,0.1,0.1c0.5,1.4,1.9,2,2.9,2.9
		c0.8,0.7,1.4,1.6,1.9,2.5c0.3,0.6,0.6,1.2,0.9,1.7c0.4,0.6,0.5,1.3,0.8,2c0.3,0.9,0.7,1.7,1.1,2.5c0.5,1.1,1,2.3,1.4,3.5
		c0.1,0.2,0.2,0.5,0.4,0.7c0.9,1.3,2,2.4,3.3,3.3c1,0.7,1.9,1.4,3.1,1.8c0.3,0.1,0.6,0.2,1,0.2c1.3,0,2.6,0.1,3.9-0.3
		c0.7-0.2,1.4-0.4,1.9-0.9c0.7-0.6,1.4-1.1,2-1.7c0.5-0.5,0.9-1.1,1.3-1.6c0.6-0.7,1-1.6,1.4-2.4c0.7-1.4,1.3-2.9,1.8-4.4
		c0.6-1.4,1.2-2.8,2-4.1c0.2-0.3,0.3-0.5,0.4-0.8c0.2-0.7,0.7-1.3,1.2-1.8c0.7-0.6,1.3-1.2,1.9-1.8c0.6-0.6,1.2-1.1,1.8-1.7
		c0.6-0.5,1.2-1.1,1.7-1.7c0.2-0.2,0.4-0.4,0.6-0.5c0.8-0.6,1.4-1.3,2.1-2c0.1-0.1,0.3-0.2,0.4-0.4c0.3-0.2,0.7-0.3,0.8-0.7
		c0.8-0.1,0.9-0.9,1.3-1.4c0.4-0.5,1-0.6,1.3-1.1c0.6-0.8,1.3-1.6,2-2.3c0.2-0.2,0.3-0.3,0.5-0.3c-0.5,0.7-1,1.4-1.5,2.1
		c-1.5,2-3.1,4-4.8,5.8c-0.6,0.6-1.2,1.1-1.7,1.7c-1.1,1.3-2,2.8-2.7,4.4c-0.1,0.2,0,0.4-0.1,0.6c-0.3,0.2-0.4,0.5-0.5,0.8
		c-0.1,0.4-0.2,0.8-0.4,1.2c-0.4,0.8-0.6,1.7-0.8,2.6c-0.3,1.2-0.5,2.3-0.7,3.5c-0.2,1.3-0.6,2.5-1,3.7c-0.7,2.3-1.2,4.6-1.9,6.8
		c-0.5,1.6-1.1,3.2-1.9,4.7c-0.9,1.7-2.1,3-3.8,3.8c-0.5,0.3-1.1,0.4-1.6,0.7c-1,0.6-2.1,0.7-3.1,0.8c-1.5,0.1-3,0.1-4.5,0
		c-1.2,0-2.5-0.3-3.7-0.6c-1-0.3-1.8-0.8-2.7-1.3c-0.7-0.4-1.4-0.9-1.9-1.5c-0.9-1.1-1.5-2.3-2-3.6c-0.7-1.7-1.2-3.4-1.8-5.2
		c-0.8-2.4-1.3-4.8-1.9-7.2c-0.5-2-1-4-1.5-6c-0.2-0.8-0.3-1.5-0.7-2.2c-0.3-0.7-0.7-1.4-1-2.1c-0.1-0.2-0.1-0.4-0.4-0.5
		c-0.5-1.5-1.4-2.9-2.5-4c-1.7-1.7-3.2-3.5-4.8-5.3C61.6,87.3,60.3,85.5,59.1,83.6z"/>
	<path class="st2" d="M70.3,98.4c0.3,0.1,0.3,0.3,0.4,0.5c0.3,0.7,0.6,1.4,1,2.1c0.3,0.7,0.5,1.5,0.7,2.2c0.4,2,1,4,1.5,6
		c0.6,2.4,1.1,4.8,1.9,7.2c0.6,1.7,1.1,3.5,1.8,5.2c0.5,1.3,1.1,2.5,2,3.6c0.5,0.6,1.2,1.1,1.9,1.5c0.9,0.5,1.7,1,2.7,1.3
		c1.2,0.4,2.4,0.6,3.7,0.6c1.5,0.1,3,0.1,4.5,0c1-0.1,2.1-0.2,3.1-0.8c0.5-0.3,1.1-0.5,1.6-0.7c1.7-0.9,2.9-2.1,3.8-3.8
		c0.8-1.5,1.4-3.1,1.9-4.7c0.7-2.2,1.2-4.5,1.9-6.8c0.4-1.2,0.7-2.5,1-3.7c0.2-1.2,0.5-2.3,0.7-3.5c0.2-0.9,0.5-1.7,0.8-2.6
		c0.2-0.4,0.3-0.8,0.4-1.2c0.1-0.3,0.3-0.6,0.5-0.8c-0.1,1.2-0.3,2.3-0.4,3.5c-0.2,1.1-0.4,2.1-0.5,3.2c-0.3,1.5-0.5,3-0.8,4.5
		c-0.4,2.1-0.9,4.1-1.4,6.1c-0.4,1.4-0.8,2.8-1.3,4.2c-0.6,1.8-1.4,3.6-2.2,5.3c-0.8,1.7-1.8,3.3-3.1,4.7c-1,1.2-2.2,2.2-3.7,2.7
		c-0.3,0.1-0.6-0.1-0.8,0.2c-0.1,0.3,0.2,0.5,0.2,0.8c0,0.7,0,1.4,0,2.1c0,3.3,0,6.7,0,10c0,0.4,0,0.8-0.4,1.1
		c-0.3,0.2-0.6,0.2-0.9,0c-0.4-0.2-0.7-0.4-1.1-0.4c-0.3-0.4-0.2-0.8-0.1-1.2c0.3,0.2,0.5,0.1,0.5-0.3c0-0.4,0.1-0.8,0.1-1.2
		c0-3.1,0-6.3,0-9.4c0-0.5-0.2-1-0.5-1.3c-0.1-0.1-0.2-0.1-0.4-0.1c-1-0.1-2,0.1-3.1,0c-0.2,0-0.3,0.1-0.4,0.2
		c-0.5,0.2-0.5,0.7-0.5,1.1c0,3.2,0,6.4,0,9.6c0,0.4,0,0.7,0,1.1c0,0.4,0.2,0.6,0.6,0.4c0,0.4,0.1,0.8,0,1.2c-0.4-0.1-0.7,0-1,0.3
		c-0.3,0.3-0.7,0.3-1,0.1c-0.3-0.2-0.7-0.4-0.7-1c0-4,0-8,0-12.1c0-0.3,0.1-0.6,0.2-0.8c0.1-0.2,0-0.3-0.1-0.3c-3-0.7-5-2.8-6.8-5.2
		c-1.1-1.6-1.9-3.3-2.7-5.1c-0.6-1.4-1.1-2.7-1.5-4.2c-0.5-2.2-1-4.4-1.5-6.6c-0.3-1.3-0.6-2.6-0.7-3.9c-0.2-1.4-0.5-2.8-0.7-4.2
		c-0.2-1.3-0.4-2.5-0.5-3.8C70.6,100.3,70.3,99.3,70.3,98.4z"/>
	<path class="st3" d="M91.8,24.7c0,0.8,0,1.5,0,2.3c-0.1,0.5-0.1,1,0,1.5c0,1.1,0,2.3,0,3.4c-0.1,0.1,0,0.1,0,0.2
		c-0.1,0.4,0,0.8,0.1,1.1c-0.3,0.2-0.3,0.6-0.3,0.9c0,2.6,0.1,5.2,0.1,7.8c0,0.1,0,0.2,0,0.3c-0.1,0.2-0.3,0.2-0.5,0.2
		c-1.2,0-2.4,0-3.6,0c0,0,0,0-0.1,0c-0.1,0-0.2,0-0.3,0c-0.1-0.2-0.1-0.4-0.1-0.6c0-2.7,0.1-5.4,0.1-8c0-0.2,0-0.5-0.1-0.7
		c0-0.3,0.1-0.7-0.1-1c0.2-2.7,0-5.4,0.1-8c0-0.5,0.2-0.9,0.4-1.4c0.1,0,0.2-0.1,0.3-0.2c0.6-0.7,2-0.9,2.7-0.3
		c0.2,0.2,0.4,0.3,0.7,0.2C91.6,23.1,91.8,23.8,91.8,24.7C91.8,24.6,91.8,24.7,91.8,24.7C91.8,24.7,91.8,24.7,91.8,24.7z"/>
	<path class="st4" d="M63.2,59.2c-0.8-0.4-1.6-0.2-2.3-0.1c-1.3,0.2-2.5,0.6-3.7,1c-0.3-0.9-0.7-1.7-1-2.6c-0.2-0.4-0.4-0.7-0.4-1.2
		c0-0.2-0.2-0.3-0.3-0.5c0-0.4,0-0.7-0.1-1.1c-0.2-0.6-0.3-1.3-0.3-1.9c0.2-1,1-1.4,1.7-1.9c1.6-1,3.3-1.2,5.1-1.2
		c0.8,0,1.4,0.3,1.7,1c0.2,0.5,0.5,0.9,1,1.2c-0.2,0.1-0.4,0.1-0.4,0.3c-0.1,0.6-0.1,1.3-0.1,2c0,0.3,0.2,0.5,0.6,0.5
		c0.4,0,0.8-0.1,1.3,0.1c-0.3,1-0.7,1.9-1.4,2.7C64.1,58.1,63.6,58.7,63.2,59.2z"/>
	<path class="st2" d="M87.7,153.2c0-0.2,0-0.3,0-0.5c0,0,0-0.1,0-0.1c0-1,0-1.9,0-2.9c0-0.4,0.1-0.8-0.1-1.2c0-0.2,0-0.4,0-0.5
		c0.1,0,0.1,0,0.2,0.1c0.2,1.4,0.3,2.7,0.1,4.1c-0.1,0.7,0.1,1.3,0.6,1.5c0.4,0.1,0.8,0.2,1.2,0.2c0.5,0,0.8-0.2,1.1-0.6
		c0.2-0.3,0.2-0.7,0.5-0.8c0,0.3,0,0.7,0,1c0,0,0,0,0,0c0,0,0,0,0,0.1c0,3,0,5.9,0,8.9c0,3.2,0,6.4,0,9.6c0,0.4,0,0.8-0.2,1.2
		c-0.2,0.7-0.8,1-1.5,1.1c-0.7,0.1-1.2-0.1-1.6-0.7c-0.4-0.6-0.4-1.2-0.4-1.9c0-4.4,0-8.7,0-13.1C87.7,156.9,87.7,155.1,87.7,153.2
		C87.7,153.2,87.7,153.2,87.7,153.2C87.7,153.2,87.7,153.2,87.7,153.2z"/>
	<path class="st4" d="M121.9,60.2c-1-0.3-2-0.8-3-1c-0.8-0.2-1.5-0.2-2.3-0.2c-0.2,0-0.4,0.1-0.6,0.2c-0.8-0.7-1.4-1.7-2.1-2.5
		c-0.4-0.5-0.6-1-0.8-1.6c0-0.2,0.2-0.2,0.4-0.2c0.3,0,0.6,0,0.9,0c0.3,0,0.5-0.1,0.5-0.4c0.1-0.7,0.2-1.4,0.1-2.2
		c0-0.1,0-0.2,0.1-0.3c0.1-1,1.1-2.3,2.4-2.2c1.8,0.2,3.5,0.5,5.2,1.4c0.7,0.4,1,1,1.4,1.7c-0.2,1-0.4,2-0.5,3.1
		C123.2,57.4,122.5,58.8,121.9,60.2z"/>
	<path class="st2" d="M91.4,22.3c-0.3,0-0.5-0.1-0.7-0.2c-0.7-0.6-2.1-0.4-2.7,0.3c-0.1,0.1-0.2,0.2-0.3,0.2c0-4.3,0-8.5,0-12.8
		c0-1.9,0-3.7,0-5.6c0-0.4,0.1-0.8,0.3-1.2c0.4-0.8,1.1-0.9,1.9-0.9c0.7,0.1,1,0.5,1.3,1c0.3,0.4,0.2,0.8,0.2,1.2c0,4,0,8,0,12.1
		C91.4,18.4,91.4,20.3,91.4,22.3z"/>
	<path class="st3" d="M91.4,152.6c-0.4,0.1-0.4,0.6-0.5,0.8c-0.3,0.4-0.6,0.6-1.1,0.6c-0.4,0-0.8-0.1-1.2-0.2
		c-0.5-0.1-0.7-0.8-0.6-1.5c0.1-1.4,0.1-2.7-0.1-4.1c0-0.1-0.1-0.1-0.2-0.1c0-0.1,0-0.1,0-0.2c0.1-0.4,0-0.8,0-1.2c0,0,0,0,0,0
		c0.3,0,0.3-0.2,0.4-0.5c0.1-0.4,0-0.8,0-1.2c0-0.8,0.1-1.6,0.1-2.4c0-0.8-0.1-1.6-0.1-2.4c0-0.5,0.1-1,0.1-1.5c0-1.1,0-2.3,0-3.4
		c0-0.2-0.1-0.3-0.1-0.5c0-0.2-0.2-0.3-0.4-0.3c0-0.1,0-0.1,0-0.2c0.1-0.1,0.2-0.2,0.4-0.2c1,0.1,2-0.1,3.1,0c0.1,0,0.3,0,0.4,0.1
		c0,0.2,0,0.4,0,0.6c0,3.9,0,7.8,0,11.6c-0.1,0.4-0.2,0.8,0.1,1.2c-0.2,0.2-0.1,0.5-0.1,0.7C91.4,149.9,91.4,151.3,91.4,152.6z"/>
	<path class="st4" d="M94,43.1c0,0.2,0.2,0.3,0.4,0.4c2.1,0.4,3.9,1.4,5.7,2.5c1.5,0.9,2.9,2,4.3,3.1c2.1,1.4,4.2,2.7,6.8,2.9
		c0.1,0,0.2,0.1,0.4,0.1c-0.1,0.8-0.1,1.6-0.3,2.3c-0.3,0.1-0.5,0-0.7-0.1c-1.3-0.2-2.6-0.5-3.8-1.1c-2.1-1.1-4-2.4-5.9-3.7
		c-1.3-0.9-2.6-1.9-4.1-2.6c-1-0.5-2.1-1-3.2-1c-0.3,0.1-0.6-0.2-1,0c0-0.8-0.1-1.6-0.1-2.4c0.3,0,0.6-0.1,0.8,0
		C93.7,43.4,93.9,43.4,94,43.1z M99.4,46.4c-0.2,0-0.5,0.1-0.6,0.4c-0.1,0.2-0.1,0.5,0.1,0.7c0.3,0.3,0.6,0.6,0.9,0.8
		c1.6,1.1,3.2,2.4,4.9,3.3c0.6,0.4,1.2,0.8,2,0.9c0.5,0.1,0.8-0.1,1-0.5c0.1-0.4-0.2-0.6-0.5-0.8c-1.7-1-3.3-2.1-4.9-3.2
		c-0.5-0.4-1.1-0.7-1.6-1.2C100.4,46.6,100,46.4,99.4,46.4z"/>
	<path class="st4" d="M67.4,51.9c0.6,0.3,1.2,0,1.7-0.1c1.8-0.4,3.5-1.3,5-2.4c1.2-0.8,2.5-1.6,3.6-2.5c1.5-1.2,3.1-2.1,4.9-2.8
		c0.6-0.2,1.2-0.4,1.8-0.5c0.2,0,0.5,0,0.6-0.3c0.5,0,1,0.2,1.5,0.1c0,0.8,0,1.6,0.1,2.4c-0.4-0.1-0.8-0.3-1.2,0.2
		c-0.3-0.3-0.6,0-0.9,0.1c-2.1,0.4-3.9,1.7-5.6,2.9c-1.3,0.9-2.6,1.8-3.9,2.7c-0.7,0.5-1.5,0.9-2.2,1.3c-1.6,0.8-3.2,1.4-5,1.4
		c0-0.1-0.1-0.1-0.1-0.2C67.5,53.4,67.5,52.6,67.4,51.9z M71.6,51.9c0,0.5,0.3,0.7,0.8,0.6c0.9-0.2,1.7-0.7,2.5-1.2
		c1.7-1.1,3.2-2.4,4.9-3.4c0.2-0.1,0.4-0.4,0.6-0.6c0.2-0.3,0.1-1-0.3-1c-0.5-0.1-1-0.1-1.4,0.3c-1.3,1.2-2.9,2-4.2,3.1
		c-0.7,0.6-1.5,0.9-2.3,1.4C71.7,51.3,71.5,51.6,71.6,51.9z"/>
	<path class="st2" d="M111.4,54.4c0.2-0.8,0.2-1.5,0.3-2.3c0.2-0.9,0.2-1.9,0.4-2.8c0.1-0.6,0-1.2,0.3-1.7c0.3-0.5,0.6-0.7,1.2-0.7
		c0.9-0.1,1.7,0.2,2.5,0.4c1.3,0.3,2.6,0.8,3.9,1.2c1.4,0.5,2.8,1,4.3,1.3c0.3,0.1,0.6,0.1,0.9,0.2c0.3,0,0.4,0.1,0.4,0.4
		c0,0.3-0.1,0.4-0.4,0.4c-0.7,0-1.4-0.1-2.1-0.3c-1.6-0.4-3.1-0.9-4.6-1.4c-1.3-0.5-2.7-0.8-4.1-1.1c-1-0.2-1.2-0.1-1.2,0.9
		c0,0.8-0.2,1.6-0.2,2.4c0,0.5,0.1,0.7,0.6,0.6c0.5,0,1,0.2,1.5,0.1c0,0.1,0,0.1,0.1,0.1c0.1,0.7,0,1.4-0.1,2.2
		c0,0.3-0.2,0.5-0.5,0.4c-0.3,0-0.6,0-0.9,0c-0.1,0-0.3-0.1-0.4,0.2c-0.6-0.2-0.6-0.2-0.8,0.3c-0.1,0.4-0.4,0.5-0.8,0.4
		c-0.5-0.2-0.3-0.6-0.3-1c0,0,0.1,0,0.1-0.1C111.4,54.6,111.4,54.5,111.4,54.4z"/>
	<path class="st2" d="M67.4,51.9c0.1,0.7,0.2,1.5,0.3,2.2c0,0.1,0.1,0.1,0.1,0.2c0,0.3,0,0.6,0,0.9c0,0.1,0,0.2-0.2,0.3
		c-0.4,0.2-0.7,0.2-0.9-0.4c-0.1-0.5-0.4-0.4-0.7-0.3c-0.4-0.1-0.8-0.1-1.3-0.1c-0.4,0-0.6-0.2-0.6-0.5c-0.1-0.7-0.1-1.3,0.1-2
		c0.1-0.2,0.3-0.3,0.4-0.3c0.3-0.1,0.7-0.1,1.1-0.1c0.3,0,0.5-0.1,0.5-0.4c0-1.1-0.2-2.1-0.2-3.1c0-0.4-0.2-0.5-0.6-0.5
		c-1.5,0.2-2.9,0.5-4.3,1c-1,0.4-1.9,0.8-2.9,1c-1.3,0.3-2.7,0.8-4.1,0.8c-0.2,0-0.5,0-0.5-0.3c0-0.3,0.2-0.6,0.5-0.7
		c1.6-0.1,3.1-0.6,4.6-1.2c1.8-0.6,3.6-1.2,5.4-1.6c0.6-0.1,1.1-0.2,1.7-0.1c0.6,0.1,1.1,0.3,1.2,1.4C67,49.5,67.1,50.7,67.4,51.9z"
		/>
	<path class="st2" d="M86.5,43.4c-0.5,0.1-1-0.1-1.5-0.1c0-3.6,0-7.1,0-10.7c0-0.5,0.3-0.8,0.7-1c0.3-0.2,0.7-0.1,1,0.2
		c0.2,0.1,0.3,0.2,0.6,0.2c0.2,0.3,0,0.7,0.1,1c-0.2,0.1-0.2,0.2-0.2,0.4l0,0c0,0,0,0,0,0c0,1.2,0,2.4,0,3.5c0,0,0,0.1,0,0.1
		c0,0.2,0,0.4,0,0.6c0,0,0,0.1,0,0.1c0,1.5,0,3,0,4.5C86.8,42.7,86.6,43,86.5,43.4z"/>
	<path class="st2" d="M94,43.1c-0.1,0.3-0.3,0.3-0.6,0.3c-0.3,0-0.6,0-0.8,0c0-0.3-0.1-0.6-0.4-0.8c-0.1-0.1-0.2-0.3-0.2-0.4
		c0-0.1,0.1-0.1,0.1-0.2c0-2,0-4,0-6c0,0,0,0,0-0.1c0-0.1,0-0.2,0-0.3c0-0.1,0-0.1,0-0.2c0-0.2,0-0.4,0-0.6c0,0,0-0.1,0-0.1
		c0-0.4,0-0.8,0-1.2c0-0.2,0-0.3-0.2-0.4c-0.1-0.4-0.1-0.8-0.1-1.1c0,0,0.1,0,0.1-0.1c0.2-0.1,0.4-0.1,0.5-0.2
		c0.8-0.5,1.5-0.1,1.6,0.9c0,1.2,0,2.3,0,3.5C94,38.5,94,40.8,94,43.1z"/>
	<path class="st2" d="M123.6,55.9c0.2-1,0.4-2,0.5-3.1c0.7,0.1,1.3,0.1,2,0.2c0.5,0.1,1,0.6,0.9,1.2c0,0.3,0.1,0.7-0.1,1
		c-0.3,0.5-0.7,0.8-1.2,0.8C125,56,124.3,56,123.6,55.9z"/>
	<path class="st2" d="M55.1,52.9c-0.1,0.7,0.1,1.3,0.3,1.9c0.1,0.4,0.1,0.7,0.1,1.1c-0.8,0.2-1.7,0.2-2.6,0c-0.6-0.1-1-1-0.9-1.7
		c0.1-0.6,0.6-1.1,1.5-1.2C54,53,54.5,52.9,55.1,52.9z"/>
	<path class="st1" d="M122,67.7c-0.4-0.7-0.3-1.6,0.1-2.1C122.1,66.4,122.2,67,122,67.7z"/>
	<path class="st3" d="M87.7,148.6c0.1,0.4,0.1,0.8,0.1,1.2c0,1,0,1.9,0,2.9c0,0,0,0-0.1-0.1C87.7,151.3,87.7,150,87.7,148.6z"/>
	<path class="st4" d="M57.5,76.1c0.2,0.5,0.1,1.1,0.1,1.6C57.4,77.2,57.5,76.6,57.5,76.1z"/>
	<path class="st4" d="M91.8,28.5c-0.1-0.5-0.1-1,0-1.5C91.8,27.5,91.8,28,91.8,28.5z"/>
	<path class="st4" d="M57.6,78c0.1,0.1,0.1,0.3,0,0.4C57.5,78.2,57.5,78.1,57.6,78z"/>
	<path class="st3" d="M115.1,52.2c-0.1,0-0.1-0.1-0.1-0.1c0.1,0,0.1-0.1,0.2-0.1C115.1,52.1,115.1,52.1,115.1,52.2z"/>
	<path class="st4" d="M91.9,32.1C91.9,32.1,91.8,32.1,91.9,32.1c-0.1,0-0.2-0.1-0.1-0.2C91.8,31.9,91.9,32,91.9,32.1z"/>
	<path class="st3" d="M91.4,153.7C91.4,153.7,91.4,153.6,91.4,153.7C91.4,153.6,91.4,153.6,91.4,153.7
		C91.4,153.6,91.4,153.6,91.4,153.7C91.4,153.7,91.4,153.7,91.4,153.7z"/>
	<path class="st1" d="M87.7,152.6C87.7,152.6,87.7,152.6,87.7,152.6c0,0.1,0,0.1,0,0.1C87.7,152.7,87.7,152.6,87.7,152.6z"/>
	<path class="st1" d="M59,83.4c0,0,0.1,0.1,0.1,0.1C59,83.5,59,83.4,59,83.4z"/>
	<path class="st4" d="M91.8,24.7C91.8,24.7,91.8,24.7,91.8,24.7C91.8,24.7,91.8,24.6,91.8,24.7C91.8,24.7,91.8,24.7,91.8,24.7z"/>
	<polygon class="st1" points="87.7,153.2 87.7,153.2 87.7,153.2 	"/>
	<path class="st2" d="M80.5,75.8c0.6-0.9,1.2-1.8,1.8-2.6c0.8-1,1.7-2,3-2.5c0.4-0.2,0.9-0.3,1.4-0.4c0.2,0,0.4,0,0.5,0
		c0.8-0.1,1.5-0.3,2.3-0.3c0.3,0,0.6,0,0.8,0c0.4,0,0.9,0.1,1.2-0.3c0,0,0.1,0,0.1,0c0,0.2-0.1,0.5,0.3,0.6c1.3,0.3,2.4,1,3.5,1.8
		c0.4,0.3,0.7,0.6,1.1,0.8c0.6,0.4,0.9,0.9,1.2,1.5c0.5,1.2,1.1,2.3,1.4,3.6c0.3,1.3,0.3,2.6,0.2,3.9c-0.1,1-0.3,2-0.4,3
		c-0.2,1-0.4,2.1-0.8,3c-0.3,1.4-1,2.4-2.1,3.3c-0.6,0.5-1.1,1-1.6,1.6c-1,1-2.3,1.3-3.6,1.6c-0.8,0.2-1.6,0.1-2.4-0.2
		c-0.3-0.2-0.7-0.2-1-0.3c-0.6-0.4-1.2-0.6-1.8-0.9c-0.1,0-0.2-0.1-0.3-0.1c-0.1-0.2-0.2-0.2-0.4-0.3c-1.5-0.6-2.5-1.8-3.4-3.1
		c0-0.1-0.1-0.1-0.1-0.1c0.1-0.3-0.2-0.4-0.2-0.7c0-0.5-0.3-0.6-0.7-0.7c-0.3,0-0.5,0-0.8,0c-1.4-0.2-2.4-1-3.5-1.9
		c-1.5-1.3-3-2.6-4.6-3.8c-0.4-0.3-0.8-0.5-1.1-0.9c0.7-1.5,1.7-2.9,3.7-2.9c0.3,0,0.6,0,0.9,0c1.5-0.1,2.3,0.8,3,1.9
		c0.5,0.7,0.8,1.4,1.1,2.2c0.1,0.4,0.3,0.7,0.4,1.1c0.1,0.2,0,0.6,0.3,0.6c0.1,0,0-0.4-0.1-0.5c-0.1-0.1-0.1-0.2-0.1-0.4
		c0.1-0.2,0.2-0.5-0.1-0.7c0-0.1-0.1-0.1-0.1-0.2c-0.2-1.7-0.3-3.4,0.1-5.1C80.2,77,80.3,76.4,80.5,75.8z"/>
	<path class="st1" d="M79.8,88c0.3,0,0.5,0,0.8,0c0.4,0,0.7,0.1,0.7,0.7c0,0.2,0.2,0.4,0.2,0.7C80.9,89,80.3,88.5,79.8,88z"/>
	<path class="st1" d="M85.8,92.9c0.6,0.3,1.2,0.5,1.8,0.9c-0.1,0.1-0.3,0.2-0.4,0.1C86.6,93.7,86.1,93.5,85.8,92.9z"/>
	<path class="st1" d="M85,92.5c0.2,0,0.3,0.1,0.4,0.3C85.2,92.8,85.1,92.8,85,92.5z"/>
	<path class="st5" d="M87.6,134.5c0,0.1,0,0.1,0,0.2c-0.1,0.2,0,0.5,0,0.7c-0.1,0-0.1,0.1,0,0.1c0,0.1,0,0.2,0,0.2
		c-0.1,0.1-0.1,0.2,0,0.2c0,0,0,0.1,0,0.1c-0.1,0.1-0.1,0.2,0,0.2c0,2.3,0,4.6,0,6.9c-0.1,0.1-0.1,0.2,0,0.2c0,0,0,0.1,0,0.1
		c-0.1,0.1-0.1,0.2,0,0.2c0,0.3,0,0.6,0,0.9c-0.1,0.1-0.1,0.2,0,0.2c0,0.1,0,0.1,0,0.2c-0.1,0.3-0.1,0.6,0,0.9c0,0.1,0,0.2,0,0.3
		c0,0,0,0.1,0,0.1c0,0.1,0,0.2,0,0.3c0,0,0,0,0,0c-0.4,0.2-0.5,0-0.6-0.4c0-0.4,0-0.7,0-1.1c0-3.2,0-6.4,0-9.6
		C87.1,135.2,87.2,134.8,87.6,134.5z"/>
	<path class="st5" d="M91.4,146.7c0-3.9,0-7.8,0-11.6c0-0.2,0-0.4,0-0.6c0.3,0.4,0.5,0.9,0.5,1.3c0,3.1,0,6.3,0,9.4
		c0,0.4-0.1,0.8-0.1,1.2C91.9,146.8,91.8,146.8,91.4,146.7z"/>
	<path class="st5" d="M92,42.2c0.1,0.1,0.1,0.4,0.2,0.4c0.3,0.2,0.3,0.5,0.4,0.8c0,0.8,0.1,1.6,0.1,2.4c-0.1,0.5-0.4,0.9-0.9,0.9
		c-0.1,0-0.3,0-0.4,0c0,0,0,0-0.1,0c-0.1,0-0.1,0-0.2,0c0,0-0.1,0-0.1,0c-1.2,0-2.3-0.1-3.5,0c-0.5-0.2-0.8-0.5-0.9-1
		c0-0.8,0-1.6-0.1-2.4c0.1-0.4,0.3-0.7,0.5-1c0.1,0,0.2,0,0.3,0c0.1,0,0.2,0,0.3,0c0,0,0,0,0,0s0,0,0,0c1.2,0,2.4,0,3.6,0
		c0.2,0,0.4,0,0.5-0.2C91.8,42.2,91.9,42.2,92,42.2z"/>
	<path class="st4" d="M92,42.2c-0.1,0-0.2,0-0.2,0c0-0.1,0-0.2,0-0.3c0-2.6-0.1-5.2-0.1-7.8c0-0.3,0-0.6,0.3-0.9
		c0.2,0.1,0.2,0.2,0.2,0.4c0,0.4,0,0.8,0,1.2c0,0,0,0,0,0c0,0,0,0,0,0.1c0,0.2,0,0.4,0,0.6c-0.1,0.1-0.1,0.1,0,0.2
		c0,0.1,0,0.2,0,0.3c0,0,0,0,0,0.1c0,2,0,4,0,6C92,42.1,92,42.1,92,42.2z"/>
	<path class="st4" d="M87.3,42.4c-0.1,0-0.2,0-0.3,0c0-1.5,0-3,0-4.5c0,0,0,0,0,0c0,0,0,0,0-0.1c0-0.2,0-0.4,0-0.6c0,0,0-0.1,0-0.1
		c0-1.2,0-2.4,0-3.5c0,0,0,0,0-0.1c0-0.1,0-0.3,0.2-0.4c0.1,0.2,0.1,0.5,0.1,0.7c0,2.7-0.1,5.4-0.1,8C87.3,42,87.2,42.2,87.3,42.4z"
		/>
	<path class="st4" d="M87.6,42.4L87.6,42.4C87.6,42.4,87.6,42.4,87.6,42.4C87.6,42.3,87.6,42.3,87.6,42.4z"/>
	<path class="st2" d="M87.7,135.8c0-0.1,0-0.2,0-0.2c0,0,0-0.1,0-0.1c-0.1-0.2-0.1-0.5,0-0.7c0.2,0,0.3,0,0.4,0.3
		c0,0.2,0.1,0.3,0.1,0.5c0,1.1,0,2.3,0,3.4c0,0.5-0.1,1-0.1,1.5c0,0.8,0,1.6,0.1,2.4c0,0.8-0.1,1.6-0.1,2.4c0,0.4,0.1,0.8,0,1.2
		c-0.1,0.2-0.1,0.4-0.4,0.5c0-0.1,0-0.2,0-0.3c0,0,0.1,0,0-0.1c0-0.1,0-0.2,0-0.3c0.1-0.3,0-0.6,0-0.9c0-0.1,0-0.1,0-0.2
		c0-0.1,0-0.2,0-0.2c0-0.3,0-0.6,0-0.9c0-0.1,0-0.2,0-0.2c0,0,0-0.1,0-0.1c0-0.1,0-0.2,0-0.2c0-2.3,0-4.6,0-6.9c0-0.1,0-0.2,0-0.2
		c0,0,0-0.1,0-0.1C87.7,136,87.7,135.9,87.7,135.8z"/>
	<path class="st5" d="M99.4,46.4c0.6,0,0.9,0.2,1.2,0.5c0.5,0.5,1.1,0.8,1.6,1.2c1.6,1.1,3.2,2.2,4.9,3.2c0.3,0.2,0.6,0.4,0.5,0.8
		c-0.1,0.4-0.5,0.6-1,0.5c-0.7-0.1-1.3-0.5-2-0.9c-1.7-1-3.2-2.2-4.9-3.3c-0.3-0.2-0.7-0.5-0.9-0.8c-0.2-0.2-0.2-0.5-0.1-0.7
		C99,46.5,99.3,46.4,99.4,46.4z"/>
	<path class="st2" d="M91.8,46.8c0.5-0.1,0.8-0.5,0.9-0.9c0.3-0.2,0.6,0.1,1,0c-0.3,0.9-0.8,1.6-1.7,2.1
		C91.7,47.5,91.8,47.1,91.8,46.8z"/>
	<path class="st5" d="M71.6,51.9c0-0.4,0.2-0.6,0.5-0.8c0.8-0.5,1.6-0.9,2.3-1.4c1.4-1.1,2.9-1.9,4.2-3.1c0.4-0.3,0.9-0.4,1.4-0.3
		c0.3,0.1,0.5,0.7,0.3,1c-0.2,0.2-0.3,0.4-0.6,0.6c-1.7,1-3.2,2.3-4.9,3.4c-0.8,0.5-1.5,1-2.5,1.2C71.8,52.6,71.6,52.4,71.6,51.9z"
		/>
	<path class="st2" d="M86.6,45.9c0.1,0.5,0.4,0.8,0.9,1c-0.1,0.4-0.3,0.7-0.3,1.1c-0.8-0.4-1.3-1.2-1.8-1.9
		C85.7,45.6,86.2,45.8,86.6,45.9z"/>
	<path class="st4" d="M111.3,54.7C111.3,54.7,111.4,54.7,111.3,54.7C111.4,54.7,111.4,54.7,111.3,54.7z"/>
	<path class="st1" d="M87,37c0,0,0,0.1,0,0.1C87,37.1,87,37.1,87,37z"/>
	<path class="st1" d="M87,37.7C87,37.8,87,37.8,87,37.7c0,0.1,0,0.1,0,0.1C87,37.8,87,37.8,87,37.7z"/>
	<path class="st1" d="M87.1,33.4C87.1,33.5,87.1,33.5,87.1,33.4C87.1,33.5,87,33.4,87.1,33.4L87.1,33.4z"/>
	<path class="st3" d="M92,35.7c0-0.1,0-0.1,0-0.2C92,35.5,92,35.6,92,35.7z"/>
	<path class="st3" d="M92,36C92,36,92,36,92,36C92.1,36,92.1,36,92,36z"/>
	<path class="st3" d="M92,34.9C92,34.9,92,34.9,92,34.9C92,34.8,92,34.8,92,34.9C92,34.9,92,34.9,92,34.9z"/>
	<path class="st3" d="M87.2,47.9c0-0.4,0.2-0.7,0.3-1.1c1.2-0.1,2.3,0,3.5,0c0,0,0.1,0,0.1,0c0.1,0,0.1,0,0.2,0c0,0.1,0,0,0.1,0
		c0.1,0,0.3,0,0.4,0c0.1,0.4-0.1,0.8,0.2,1.1c-0.1,0.1-0.1,0.3-0.1,0.4c0,0.8,0,1.6-0.1,2.4c-0.1,0.7,0.1,1.5,0.1,2.2
		c0,3.9,0,7.8,0,11.7c0,1.7,0.2,3.4,0,5.1c0,0-0.1,0-0.1,0c-0.3,0.5-0.8,0.3-1.2,0.3c-0.3,0-0.6,0-0.8,0c-0.8-0.1-1.6,0.1-2.3,0.3
		c0-0.1,0-0.2,0-0.3c0-6.2,0-12.4,0-18.6c0-1,0-2,0-3C87.3,48.3,87.3,48.1,87.2,47.9z"/>
	<path class="st4" d="M79.8,82.6c0,0.1,0.1,0.1,0.1,0.2c0,0.2-0.1,0.5,0.1,0.7c0,0.1,0,0.3,0.1,0.4c-0.1,0-0.2,0-0.3,0
		c-0.1-0.4-0.3-0.7-0.4-1.1C79.5,82.7,79.6,82.7,79.8,82.6z"/>
	<path class="st4" d="M80.5,75.8c-0.2,0.5-0.3,1.1-0.7,1.6C79.9,76.8,80.2,76.3,80.5,75.8z"/>
	<path class="st4" d="M87.3,70.1c0,0.1,0,0.2,0,0.3c-0.2,0-0.4,0-0.5,0C86.8,70.1,87.1,70.3,87.3,70.1z"/>
	<path class="st1" d="M79.8,83.7c0.1,0,0.2,0,0.3,0c0.1,0.2,0.2,0.6,0.1,0.5C79.8,84.3,79.9,84,79.8,83.7z"/>
	<path class="st1" d="M79.9,83.4c-0.2-0.2-0.1-0.4-0.1-0.7C80.1,82.9,80,83.1,79.9,83.4z"/>
	<path class="st4" d="M87.7,145.2c0.1,0.3,0.1,0.6,0,0.9C87.6,145.8,87.6,145.5,87.7,145.2z"/>
	<path class="st4" d="M87.7,135.8c0,0.1,0,0.2,0,0.2C87.6,136,87.6,135.9,87.7,135.8z"/>
	<path class="st4" d="M87.7,136.2c0,0.1,0,0.2,0,0.2C87.6,136.3,87.6,136.3,87.7,136.2z"/>
	<path class="st4" d="M87.7,143.3c0,0.1,0,0.2,0,0.2C87.6,143.5,87.6,143.4,87.7,143.3z"/>
	<path class="st4" d="M87.7,143.7c0,0.1,0,0.2,0,0.2C87.6,143.9,87.6,143.8,87.7,143.7z"/>
	<path class="st4" d="M87.7,144.9c0,0.1,0,0.2,0,0.2C87.6,145,87.6,144.9,87.7,144.9z"/>
	<path class="st4" d="M87.7,135.4c0,0,0,0.1,0,0.1C87.7,135.5,87.7,135.5,87.7,135.4z"/>
	<path class="st4" d="M87.7,146.4c0,0.1,0,0.1,0,0.1C87.7,146.4,87.7,146.4,87.7,146.4z"/>
	<path class="st4" d="M91.3,46.8C91.3,46.8,91.3,46.8,91.3,46.8C91.3,46.8,91.3,46.8,91.3,46.8z"/>
	<path class="st4" d="M91,46.8C91,46.9,91,46.9,91,46.8C91,46.8,91,46.8,91,46.8z"/>
</g>
</svg>
