<?xml version="1.0" encoding="UTF-8" standalone="no"?>
<!-- Generator: Adobe Illustrator 27.4.0, SVG Export Plug-In . SVG Version: 6.00 Build 0)  -->

<svg
   version="1.1"
   id="svg543"
   inkscape:version="1.2.2 (732a01da63, 2022-12-09)"
   sodipodi:docname="body_boy.svg"
   x="0px"
   y="0px"
   viewBox="0 0 856.44745 481.81659"
   xml:space="preserve"
   width="856.44745"
   height="481.81659"
   xmlns:inkscape="http://www.inkscape.org/namespaces/inkscape"
   xmlns:sodipodi="http://sodipodi.sourceforge.net/DTD/sodipodi-0.dtd"
   xmlns="http://www.w3.org/2000/svg"
   xmlns:svg="http://www.w3.org/2000/svg"><defs
   id="defs3224" />
<style
   type="text/css"
   id="style2536">
	.st0{fill:#444444;}
	.st1{fill:#F8E8CE;}
	.st2{fill:#FFFFFF;}
	.st3{fill:#AAAAAA;}
	.st4{fill:#1229D6;}
	.st5{fill:#E5E5E5;}
	.st6{fill:#DD6CD8;}
	.st7{fill:#9E6171;}
	.st8{fill:#F20633;}
	.st9{fill:#73E852;}
	.st10{fill:#EDDD15;}
	.st11{fill:#03F2F2;}
	.st12{fill:#FFA25C;}
	.st13{fill:#00776E;}
	.st14{fill:none;}
	.st15{fill:#7B2C27;}
	.st16{fill:#DDDFE0;}
	.st17{fill:#AEB0B3;}
	.st18{fill:#8B6C5A;}
	.st19{fill:#060708;}
	.st20{fill:#FBC6A4;}
	.st21{fill:#712914;}
	.st22{fill:#EAAD85;}
	.st23{fill:#A6583A;}
	.st24{fill:#FCD2B7;}
	.st25{fill:#FBC192;}
	.st26{fill:#FDDFCC;}
	.st27{fill:#FCD0AB;}
	.st28{fill:#D58D5E;}
	.st29{fill:#FCD8C1;}
	.st30{fill:#FBDEC7;}
	.st31{fill:#FDFDFF;}
	.st32{fill:#CE7754;}
	.st33{fill:#FDFFFF;}
	.st34{fill:#FDE2CF;}
	.st35{fill:#E16FAA;}
	.st36{fill:#CA5A94;}
	.st37{fill:#439CD6;}
	.st38{fill:#72301D;}
	.st39{fill:#F8AF9A;}
	.st40{fill:#FBD3C4;}
	.st41{fill:#803330;}
	.st42{fill:#511517;}
	.st43{fill:#EC756C;}
	.st44{fill:#F48F87;}
	.st45{fill:#F7B0AD;}
	.st46{fill:#DD9682;}
	.st47{fill:#D5956A;}
	.st48{fill:#D9DBDC;}
	.st49{fill:#231F20;}
	.st50{fill:#8A4A37;}
	.st51{fill:#5E281A;}
</style>
<sodipodi:namedview
   bordercolor="#666666"
   borderopacity="1"
   gridtolerance="10"
   guidetolerance="10"
   id="namedview545"
   inkscape:current-layer="svg543"
   inkscape:cx="-267.83898"
   inkscape:cy="352.01695"
   inkscape:pageopacity="0"
   inkscape:pageshadow="2"
   inkscape:window-height="705"
   inkscape:window-maximized="1"
   inkscape:window-width="1366"
   inkscape:window-x="-8"
   inkscape:window-y="-8"
   inkscape:zoom="0.39202658"
   objecttolerance="10"
   pagecolor="#ffffff"
   showgrid="false"
   inkscape:showpageshadow="2"
   inkscape:pagecheckerboard="0"
   inkscape:deskcolor="#d1d1d1">
	</sodipodi:namedview>
<g
   id="g100"
   transform="matrix(0.80828857,0,0,0.80828857,0.32331543,61.567498)">
	<g
   id="g98">
		<g
   id="use96">
			<g
   id="Symbol_4_0_Layer0_0_FILL">
				<path
   id="path2"
   class="st0"
   d="m 151.2,-76 c -0.1,-0.1 -0.2,-0.1 -0.4,-0.1 H 0 c -0.1,0 -0.3,0.1 -0.3,0.1 -0.1,0.1 -0.1,0.2 -0.1,0.4 V 75.2 c 0,0.1 0.1,0.3 0.1,0.4 0.1,0.1 0.2,0.1 0.3,0.1 h 150.9 c 0.1,0 0.3,-0.1 0.4,-0.1 0.1,-0.1 0.1,-0.2 0.1,-0.4 V -75.7 c 0,-0.1 -0.1,-0.2 -0.2,-0.3 M 0.5,-75.2 H 150.4 V 74.7 H 0.5 Z" />
				<path
   id="path4"
   class="st1"
   d="M 150.4,-75.2 H 0.5 V 74.7 H 150.4 V -75.2 m -0.8,0.6 v 0.2 l 0.2,-0.2 V 74 H 1.5 1.2 V -74.6 Z" />
				<path
   id="path6"
   class="st2"
   d="m 143.2,-67.9 6.4,-6.5 v -0.2 H 1.2 V 74 H 1.4 L 8,67.5 V -67.9 Z" />
				<path
   id="path8"
   class="st3"
   d="m 143.2,-67.9 v 0 L 143.1,67.2 H 8.3 L 8,67.5 1.5,74 H 149.8 V -74.6 l -0.2,0.2 z" />
				<path
   id="path10"
   class="st4"
   d="m 143.1,-67.8 v 0 L 8,-67.9 V 67.5 L 8.3,67.2 H 143 v -135 z" />
			</g>
		</g>
	</g>
</g>
<g
   id="g106"
   transform="matrix(0.80828857,0,0,0.80828857,728.87332,419.3675)">
	<g
   id="g104">
		<g
   id="use102">
			<g
   id="Symbol_4_0_Layer0_0_FILL_00000057856617367565944020000006972131852511088547_">
				<path
   id="path2_00000024004149143150599540000007527483977003721096_"
   class="st0"
   d="m 157.7,-75.8 c -0.1,-0.1 -0.2,-0.1 -0.4,-0.1 H 6.4 c -0.1,0 -0.3,0.1 -0.3,0.1 C 6,-75.7 6,-75.6 6,-75.4 V 75.4 c 0,0.1 0.1,0.3 0.1,0.4 0.1,0.1 0.2,0.1 0.3,0.1 h 150.9 c 0.1,0 0.3,-0.1 0.4,-0.1 0.1,-0.1 0.1,-0.2 0.1,-0.4 V -75.4 c 0,-0.2 0,-0.3 -0.1,-0.4 M 6.9,-74.9 H 156.8 V 74.9 H 6.9 Z" />
				<path
   id="path4_00000054974703845682232700000004367232116412736689_"
   class="st1"
   d="M 156.8,-74.9 H 6.9 V 74.9 H 156.8 V -74.9 m -0.7,0.5 v 0.2 l 0.2,-0.2 V 74.2 H 7.9 7.7 V -74.4 Z" />
				<path
   id="path6_00000048479097119265090530000013270581327287037605_"
   class="st2"
   d="m 149.6,-67.6 6.4,-6.5 v -0.2 H 7.7 V 74.2 h 0.2 l 6.5,-6.4 V -67.6 Z" />
				<path
   id="path8_00000153687430753875686090000016452881103048786836_"
   class="st3"
   d="m 149.6,-67.6 v 0 L 149.5,67.5 H 14.8 l -0.4,0.3 -6.5,6.4 H 156.2 V -74.4 l -0.2,0.2 z" />
				<path
   id="path10_00000134938418709115646240000000747861923546826646_"
   class="st5"
   d="m 149.5,-67.5 v 0 L 14.4,-67.6 V 67.7 l 0.4,-0.3 h 134.7 z" />
			</g>
		</g>
	</g>
</g>
<g
   id="g112"
   transform="matrix(0.80828857,0,0,0.80828857,245.22332,61.567498)">
	<g
   id="g110">
		<g
   id="use108">
			<g
   id="Symbol_4_0_Layer0_0_FILL_00000041284311209527837320000008059889795685489048_">
				<path
   id="path2_00000155108935303216007840000009395691468609637536_"
   class="st0"
   d="m 151.2,-76 c -0.1,-0.1 -0.2,-0.1 -0.4,-0.1 H 0 c -0.1,0 -0.3,0.1 -0.3,0.1 -0.1,0.1 -0.1,0.2 -0.1,0.4 V 75.2 c 0,0.1 0.1,0.3 0.1,0.4 0.1,0.1 0.2,0.1 0.3,0.1 h 150.9 c 0.1,0 0.3,-0.1 0.4,-0.1 0.1,-0.1 0.1,-0.2 0.1,-0.4 V -75.7 c 0,-0.1 -0.1,-0.2 -0.2,-0.3 M 0.5,-75.2 H 150.4 V 74.7 H 0.5 Z" />
				<path
   id="path4_00000015347109854312592910000005403258354177462448_"
   class="st1"
   d="M 150.4,-75.2 H 0.5 V 74.7 H 150.4 V -75.2 m -0.8,0.6 v 0.2 l 0.2,-0.2 V 74 H 1.5 1.2 V -74.6 Z" />
				<path
   id="path6_00000157997516171477126120000010360631310375759794_"
   class="st2"
   d="m 143.2,-67.9 6.4,-6.5 v -0.2 H 1.2 V 74 H 1.4 L 8,67.5 V -67.9 Z" />
				<path
   id="path8_00000036249121193093756160000006399212360395048884_"
   class="st3"
   d="m 143.2,-67.9 v 0 L 143.1,67.2 H 8.3 L 8,67.5 1.5,74 H 149.8 V -74.6 l -0.2,0.2 z" />
				<path
   id="path10_00000176021503273690717610000013989761639343461296_"
   class="st6"
   d="m 143.1,-67.8 v 0 L 8,-67.9 V 67.5 L 8.3,67.2 H 143 v -135 z" />
			</g>
		</g>
	</g>
</g>
<g
   id="g118"
   transform="matrix(0.80828857,0,0,0.80828857,367.67332,61.567498)">
	<g
   id="g116">
		<g
   id="use114">
			<g
   id="Symbol_4_0_Layer0_0_FILL_00000167395658768129741350000003842712895238764932_">
				<path
   id="path2_00000042010490735679254520000002200077004639188122_"
   class="st0"
   d="m 151.2,-76 c -0.1,-0.1 -0.2,-0.1 -0.4,-0.1 H 0 c -0.1,0 -0.3,0.1 -0.3,0.1 -0.1,0.1 -0.1,0.2 -0.1,0.4 V 75.2 c 0,0.1 0.1,0.3 0.1,0.4 0.1,0.1 0.2,0.1 0.3,0.1 h 150.9 c 0.1,0 0.3,-0.1 0.4,-0.1 0.1,-0.1 0.1,-0.2 0.1,-0.4 V -75.7 c 0,-0.1 -0.1,-0.2 -0.2,-0.3 M 0.5,-75.2 H 150.4 V 74.7 H 0.5 Z" />
				<path
   id="path4_00000003106666698228172490000006721997179963678879_"
   class="st1"
   d="M 150.4,-75.2 H 0.5 V 74.7 H 150.4 V -75.2 m -0.8,0.6 v 0.2 l 0.2,-0.2 V 74 H 1.5 1.2 V -74.6 Z" />
				<path
   id="path6_00000022519364463937133560000016206082409796882604_"
   class="st2"
   d="m 143.2,-67.9 6.4,-6.5 v -0.2 H 1.2 V 74 H 1.4 L 8,67.5 V -67.9 Z" />
				<path
   id="path8_00000145029021083507723540000006925270994396109468_"
   class="st3"
   d="m 143.2,-67.9 v 0 L 143.1,67.2 H 8.3 L 8,67.5 1.5,74 H 149.8 V -74.6 l -0.2,0.2 z" />
				<path
   id="path10_00000047777791217049611700000009134504407946484126_"
   class="st5"
   d="m 143.1,-67.8 v 0 L 8,-67.9 V 67.5 L 8.3,67.2 H 143 v -135 z" />
			</g>
		</g>
	</g>
</g>
<g
   id="g124"
   transform="matrix(0.80828857,0,0,0.80828857,0.911458,420.68614)">
	<g
   id="g122">
		<g
   id="use120">
			<g
   id="Symbol_4_0_Layer0_0_FILL_00000060718874202409458760000012851487041570271387_">
				<path
   id="path2_00000183931077455208167610000017228650999048755593_"
   class="st0"
   d="m 151.2,-76 c -0.1,-0.1 -0.2,-0.1 -0.4,-0.1 H 0 c -0.1,0 -0.3,0.1 -0.3,0.1 -0.1,0.1 -0.1,0.2 -0.1,0.4 V 75.2 c 0,0.1 0.1,0.3 0.1,0.4 0.1,0.1 0.2,0.1 0.3,0.1 h 150.9 c 0.1,0 0.3,-0.1 0.4,-0.1 0.1,-0.1 0.1,-0.2 0.1,-0.4 V -75.7 c 0,-0.1 -0.1,-0.2 -0.2,-0.3 M 0.5,-75.2 H 150.4 V 74.7 H 0.5 Z" />
				<path
   id="path4_00000182523135411332471050000007666885396670035862_"
   class="st1"
   d="M 150.4,-75.2 H 0.5 V 74.7 H 150.4 V -75.2 m -0.8,0.6 v 0.2 l 0.2,-0.2 V 74 H 1.5 1.2 V -74.6 Z" />
				<path
   id="path6_00000169516036661798399500000014961519093579055036_"
   class="st2"
   d="m 143.2,-67.9 6.4,-6.5 v -0.2 H 1.2 V 74 H 1.4 L 8,67.5 V -67.9 Z" />
				<path
   id="path8_00000001665662037508111850000011031744532500242863_"
   class="st3"
   d="m 143.2,-67.9 v 0 L 143.1,67.2 H 8.3 L 8,67.5 1.5,74 H 149.8 V -74.6 l -0.2,0.2 z" />
				<path
   id="path10_00000024700687145594495970000009638486501810725534_"
   class="st5"
   d="m 143.1,-67.8 v 0 L 8,-67.9 V 67.5 l 0.4,-0.3 h 134.7 z" />
			</g>
		</g>
	</g>
</g>
<g
   id="g130"
   transform="matrix(0.80828857,0,0,0.80828857,612.57332,61.567498)">
	<g
   id="g128">
		<g
   id="use126">
			<g
   id="Symbol_4_0_Layer0_0_FILL_00000003811045814102726980000010203010938762674367_">
				<path
   id="path2_00000111890607537781829590000001353001895528908961_"
   class="st0"
   d="m 151.2,-76 c -0.1,-0.1 -0.2,-0.1 -0.4,-0.1 H 0 c -0.1,0 -0.3,0.1 -0.3,0.1 -0.1,0.1 -0.1,0.2 -0.1,0.4 V 75.2 c 0,0.1 0.1,0.3 0.1,0.4 0.1,0.1 0.2,0.1 0.3,0.1 h 150.9 c 0.1,0 0.3,-0.1 0.4,-0.1 0.1,-0.1 0.1,-0.2 0.1,-0.4 V -75.7 c 0,-0.1 -0.1,-0.2 -0.2,-0.3 M 0.5,-75.2 H 150.4 V 74.7 H 0.5 Z" />
				<path
   id="path4_00000056406234049904874240000013045944485960576663_"
   class="st1"
   d="M 150.4,-75.2 H 0.5 V 74.7 H 150.4 V -75.2 m -0.8,0.6 v 0.2 l 0.2,-0.2 V 74 H 1.5 1.2 V -74.6 Z" />
				<path
   id="path6_00000161608843497017924190000007142883374151338919_"
   class="st2"
   d="m 143.2,-67.9 6.4,-6.5 v -0.2 H 1.2 V 74 H 1.4 L 8,67.5 V -67.9 Z" />
				<path
   id="path8_00000150070345939787929130000005586749309766291625_"
   class="st3"
   d="m 143.2,-67.9 v 0 L 143.1,67.2 H 8.3 L 8,67.5 1.5,74 H 149.8 V -74.6 l -0.2,0.2 z" />
				<path
   id="path10_00000152252852442381324580000012666466921934896539_"
   class="st5"
   d="m 143.1,-67.8 v 0 L 8,-67.9 V 67.5 l 0.4,-0.3 h 134.7 z" />
			</g>
		</g>
	</g>
</g>
<g
   id="g136"
   transform="matrix(0.80828857,0,0,0.80828857,735.12332,61.567498)">
	<g
   id="g134">
		<g
   id="use132">
			<g
   id="Symbol_4_0_Layer0_0_FILL_00000091017035848212406670000014345063686291619502_">
				<path
   id="path2_00000072993743194985466790000010583979596603331516_"
   class="st0"
   d="m 150,-76 c -0.1,-0.1 -0.2,-0.1 -0.4,-0.1 H -1.3 c -0.1,0 -0.3,0.1 -0.3,0.1 -0.1,0.1 -0.1,0.2 -0.1,0.4 V 75.2 c 0,0.1 0.1,0.3 0.1,0.4 0.1,0.1 0.2,0.1 0.3,0.1 h 150.9 c 0.1,0 0.3,-0.1 0.4,-0.1 0.1,-0.1 0.1,-0.2 0.1,-0.4 V -75.7 c 0,-0.1 0,-0.2 -0.1,-0.3 M -0.8,-75.2 H 149.1 V 74.7 H -0.8 Z" />
				<path
   id="path4_00000055699972803546447230000012722936884186736830_"
   class="st1"
   d="M 149.1,-75.2 H -0.8 V 74.7 H 149.1 V -75.2 m -0.7,0.6 v 0.2 l 0.2,-0.2 V 74 H 0.2 0 V -74.6 Z" />
				<path
   id="path6_00000061450129643549349280000006611041753507255483_"
   class="st2"
   d="m 141.9,-67.9 6.4,-6.5 v -0.2 H 0 V 74 H 0.2 L 6.7,67.6 V -67.9 Z" />
				<path
   id="path8_00000058561351830711363160000013209939200969587359_"
   class="st3"
   d="m 141.9,-67.9 v 0 L 141.8,67.2 H 7.1 L 6.7,67.5 0.2,74 H 148.5 V -74.6 l -0.2,0.2 z" />
				<path
   id="path10_00000154397802831285786620000012698042020909465476_"
   class="st7"
   d="m 141.8,-67.8 v 0 L 6.7,-67.9 V 67.5 l 0.4,-0.3 h 134.7 z" />
			</g>
		</g>
	</g>
</g>
<g
   id="g142"
   transform="matrix(0.80828857,0,0,0.80828857,0.32331543,181.2175)">
	<g
   id="g140">
		<g
   id="use138">
			<g
   id="Symbol_4_0_Layer0_0_FILL_00000062170747477018209800000002527276927208526779_">
				<path
   id="path2_00000000209592974442518250000010463367002182371712_"
   class="st0"
   d="m 151.2,-75.8 c -0.1,-0.1 -0.2,-0.1 -0.4,-0.1 H 0 c -0.1,0 -0.3,0.1 -0.3,0.1 -0.1,0.1 -0.1,0.2 -0.1,0.4 V 75.4 c 0,0.1 0.1,0.3 0.1,0.4 0.1,0.1 0.2,0.1 0.3,0.1 h 150.9 c 0.1,0 0.3,-0.1 0.4,-0.1 0.1,-0.1 0.1,-0.2 0.1,-0.4 V -75.5 c 0,-0.1 -0.1,-0.2 -0.2,-0.3 M 0.5,-75 H 150.4 V 74.9 H 0.5 Z" />
				<path
   id="path4_00000111167897200759796450000011761640082765346480_"
   class="st1"
   d="M 150.4,-75 H 0.5 V 74.9 H 150.4 V -75 m -0.8,0.6 v 0.2 l 0.2,-0.2 V 74.2 H 1.5 1.2 V -74.4 Z" />
				<path
   id="path6_00000103961407567163123440000013763964828460691112_"
   class="st2"
   d="m 143.2,-67.7 6.4,-6.5 v -0.2 H 1.2 V 74.2 H 1.4 L 8,67.7 V -67.7 Z" />
				<path
   id="path8_00000173149725070394813510000009687076572293894278_"
   class="st3"
   d="m 143.2,-67.7 v 0 L 143.1,67.4 H 8.3 L 8,67.7 1.5,74.1 H 149.8 V -74.4 l -0.2,0.2 z" />
				<path
   id="path10_00000102529401508985403710000008088653573099773357_"
   class="st5"
   d="m 143.1,-67.6 v 0 L 8,-67.7 V 67.7 L 8.3,67.4 H 143 v -135 c 0,0 0.1,0 0.1,0 z" />
			</g>
		</g>
	</g>
</g>
<g
   id="g154"
   transform="matrix(0.80828857,0,0,0.80828857,245.22332,181.2175)">
	<g
   id="g152">
		<g
   id="use150">
			<g
   id="Symbol_4_0_Layer0_0_FILL_00000017488679195934062650000009659570928698336409_">
				<path
   id="path2_00000146459863597470641830000009439416191409941120_"
   class="st0"
   d="m 151.2,-75.8 c -0.1,-0.1 -0.2,-0.1 -0.4,-0.1 H 0 c -0.1,0 -0.3,0.1 -0.3,0.1 -0.1,0.1 -0.1,0.2 -0.1,0.4 V 75.4 c 0,0.1 0.1,0.3 0.1,0.4 0.1,0.1 0.2,0.1 0.3,0.1 h 150.9 c 0.1,0 0.3,-0.1 0.4,-0.1 0.1,-0.1 0.1,-0.2 0.1,-0.4 V -75.5 c 0,-0.1 -0.1,-0.2 -0.2,-0.3 M 0.5,-75 H 150.4 V 74.9 H 0.5 Z" />
				<path
   id="path4_00000026866958475516022370000000020738918433504908_"
   class="st1"
   d="M 150.4,-75 H 0.5 V 74.9 H 150.4 V -75 m -0.8,0.6 v 0.2 l 0.2,-0.2 V 74.2 H 1.5 1.2 V -74.4 Z" />
				<path
   id="path6_00000158017089806823539740000012288919036979721893_"
   class="st2"
   d="m 143.2,-67.7 6.4,-6.5 v -0.2 H 1.2 V 74.2 H 1.4 L 8,67.7 V -67.7 Z" />
				<path
   id="path8_00000026866943304865955490000012895560907734951044_"
   class="st3"
   d="m 143.2,-67.7 v 0 L 143.1,67.4 H 8.3 L 8,67.7 1.5,74.1 H 149.8 V -74.4 l -0.2,0.2 z" />
				<path
   id="path10_00000039118881252824875450000018344616573389853330_"
   class="st5"
   d="m 143.1,-67.6 v 0 L 8,-67.7 V 67.7 L 8.3,67.4 H 143 v -135 c 0,0 0.1,0 0.1,0 z" />
			</g>
		</g>
	</g>
</g>
<g
   id="g160"
   transform="matrix(0.80828857,0,0,0.80828857,367.67332,181.2175)">
	<g
   id="g158">
		<g
   id="use156">
			<g
   id="Symbol_4_0_Layer0_0_FILL_00000078755145510030100570000010173634966654743987_">
				<path
   id="path2_00000111185043719099079840000017375565389773749642_"
   class="st0"
   d="m 151.2,-75.8 c -0.1,-0.1 -0.2,-0.1 -0.4,-0.1 H 0 c -0.1,0 -0.3,0.1 -0.3,0.1 -0.1,0.1 -0.1,0.2 -0.1,0.4 V 75.4 c 0,0.1 0.1,0.3 0.1,0.4 0.1,0.1 0.2,0.1 0.3,0.1 h 150.9 c 0.1,0 0.3,-0.1 0.4,-0.1 0.1,-0.1 0.1,-0.2 0.1,-0.4 V -75.5 c 0,-0.1 -0.1,-0.2 -0.2,-0.3 M 0.5,-75 H 150.4 V 74.9 H 0.5 Z" />
				<path
   id="path4_00000030473317724129259180000003227667644077662641_"
   class="st1"
   d="M 150.4,-75 H 0.5 V 74.9 H 150.4 V -75 m -0.8,0.6 v 0.2 l 0.2,-0.2 V 74.2 H 1.5 1.2 V -74.4 Z" />
				<path
   id="path6_00000029757789466747643810000013650173063508748688_"
   class="st2"
   d="m 143.2,-67.7 6.4,-6.5 v -0.2 H 1.2 V 74.2 H 1.4 L 8,67.7 V -67.7 Z" />
				<path
   id="path8_00000174601280969872920320000009263182456056537984_"
   class="st3"
   d="m 143.2,-67.7 v 0 L 143.1,67.4 H 8.3 L 8,67.7 1.5,74.1 H 149.8 V -74.4 l -0.2,0.2 z" />
				<path
   id="path10_00000172417310576537766280000012639880159394053290_"
   class="st5"
   d="m 143.1,-67.6 v 0 L 8,-67.7 V 67.7 L 8.3,67.4 H 143 v -135 c 0,0 0.1,0 0.1,0 z" />
			</g>
		</g>
	</g>
</g>
<g
   id="g166"
   transform="matrix(0.80828857,0,0,0.80828857,490.12332,181.2175)">
	<g
   id="g164">
		<g
   id="use162">
			<g
   id="Symbol_4_0_Layer0_0_FILL_00000024707311206431413960000008060899986521116292_">
				<path
   id="path2_00000069380103871089443450000017988368857506093208_"
   class="st0"
   d="m 151.2,-75.8 c -0.1,-0.1 -0.2,-0.1 -0.4,-0.1 H 0 c -0.1,0 -0.3,0.1 -0.3,0.1 -0.1,0.1 -0.1,0.2 -0.1,0.4 V 75.4 c 0,0.1 0.1,0.3 0.1,0.4 0.1,0.1 0.2,0.1 0.3,0.1 h 150.9 c 0.1,0 0.3,-0.1 0.4,-0.1 0.1,-0.1 0.1,-0.2 0.1,-0.4 V -75.5 c 0,-0.1 -0.1,-0.2 -0.2,-0.3 M 0.5,-75 H 150.4 V 74.9 H 0.5 Z" />
				<path
   id="path4_00000008106495094226170510000015754463775499544497_"
   class="st1"
   d="M 150.4,-75 H 0.5 V 74.9 H 150.4 V -75 m -0.8,0.6 v 0.2 l 0.2,-0.2 V 74.2 H 1.5 1.2 V -74.4 Z" />
				<path
   id="path6_00000036236036935696876180000018161778294271511955_"
   class="st2"
   d="m 143.2,-67.7 6.4,-6.5 v -0.2 H 1.2 V 74.2 H 1.4 L 8,67.7 V -67.7 Z" />
				<path
   id="path8_00000181786656457589936310000014505996450723418503_"
   class="st3"
   d="m 143.2,-67.7 v 0 L 143.1,67.4 H 8.3 L 8,67.7 1.5,74.1 H 149.8 V -74.4 l -0.2,0.2 z" />
				<path
   id="path10_00000096763707700810175890000005016336437352907164_"
   class="st5"
   d="m 143.1,-67.6 v 0 L 8,-67.7 V 67.7 l 0.4,-0.3 h 134.7 z" />
			</g>
		</g>
	</g>
</g>
<g
   id="g148"
   transform="matrix(0.80828857,0,0,0.80828857,122.77332,181.2175)">
	<g
   id="g146">
		<g
   id="use144">
			<g
   id="Symbol_4_0_Layer0_0_FILL_00000033363552309600447430000017556475254216275622_">
				<path
   id="path2_00000058564793044152101480000001378862769272277172_"
   class="st0"
   d="M 151.1,-75.9 C 151,-76 150.9,-76 150.7,-76.1 H -0.1 c -0.1,0 -0.3,0.1 -0.3,0.2 -0.1,0.1 -0.1,0.2 -0.1,0.4 v 151 c 0,0.1 0.1,0.3 0.1,0.4 0,0.1 0.1,0.1 0.3,0.1 h 150.9 c 0.1,0 0.3,-0.1 0.4,-0.2 0.1,-0.1 0.1,-0.2 0.1,-0.4 v -151 c 0,-0.1 -0.1,-0.2 -0.2,-0.3 M 0.4,-75.1 H 150.3 V 75 H 0.4 Z" />
				<path
   id="path4_00000058585913906331310760000001114299357940534933_"
   class="st1"
   d="M 150.3,-75.1 H 0.4 V 75 H 150.3 V -75.1 m -0.8,0.6 v 0.2 l 0.2,-0.2 V 74.3 H 1.4 1.1 V -74.5 Z" />
				<path
   id="path6_00000098938623980545254090000009415952286167862679_"
   class="st2"
   d="m 143.1,-67.7 6.4,-6.6 v -0.2 H 1.1 V 74.3 H 1.3 L 7.8,67.8 V -67.7 Z" />
				<path
   id="path8_00000077326211783924193940000012935128060371397047_"
   class="st3"
   d="m 143.1,-67.7 -0.1,0.1 V 67.5 H 8.2 L 7.9,67.8 1.4,74.3 H 149.7 V -74.5 l -0.2,0.2 z" />
				<path
   id="path10_00000149382099678950156040000004061500477030073234_"
   class="st8"
   d="m 143,-67.6 0.1,-0.1 H 7.9 V 67.8 L 8.2,67.5 H 143 Z" />
			</g>
		</g>
	</g>
</g>
<g
   id="g172"
   transform="matrix(0.80828857,0,0,0.80828857,612.57332,181.2175)">
	<g
   id="g170">
		<g
   id="use168">
			<g
   id="Symbol_4_0_Layer0_0_FILL_00000119807508041754990940000014847469003942912409_">
				<path
   id="path2_00000078728286230637113320000008709132304190666398_"
   class="st0"
   d="m 151.2,-75.8 c -0.1,-0.1 -0.2,-0.1 -0.4,-0.1 H 0 c -0.1,0 -0.3,0.1 -0.3,0.1 -0.1,0.1 -0.1,0.2 -0.1,0.4 V 75.4 c 0,0.1 0.1,0.3 0.1,0.4 0.1,0.1 0.2,0.1 0.3,0.1 h 150.9 c 0.1,0 0.3,-0.1 0.4,-0.1 0.1,-0.1 0.1,-0.2 0.1,-0.4 V -75.5 c 0,-0.1 -0.1,-0.2 -0.2,-0.3 M 0.5,-75 H 150.4 V 74.9 H 0.5 Z" />
				<path
   id="path4_00000101815569689806686930000018131885094844902032_"
   class="st1"
   d="M 150.4,-75 H 0.5 V 74.9 H 150.4 V -75 m -0.8,0.6 v 0.2 l 0.2,-0.2 V 74.2 H 1.5 1.2 V -74.4 Z" />
				<path
   id="path6_00000021117990851476599990000004709108357694463134_"
   class="st2"
   d="m 143.2,-67.7 6.4,-6.5 v -0.2 H 1.2 V 74.2 H 1.4 L 8,67.7 V -67.7 Z" />
				<path
   id="path8_00000023248538889175750580000002771749508534949297_"
   class="st3"
   d="m 143.2,-67.7 v 0 L 143.1,67.4 H 8.3 L 8,67.7 1.5,74.1 H 149.8 V -74.4 l -0.2,0.2 z" />
				<path
   id="path10_00000074413613661496314030000011966847728264372912_"
   class="st5"
   d="m 143.1,-67.6 v 0 L 8,-67.7 V 67.7 l 0.4,-0.3 h 134.7 z" />
			</g>
		</g>
	</g>
</g>
<g
   id="g178"
   transform="matrix(0.80828857,0,0,0.80828857,735.12332,181.2175)">
	<g
   id="g176">
		<g
   id="use174">
			<g
   id="Symbol_4_0_Layer0_0_FILL_00000025440143557055061070000007755473767476061111_">
				<path
   id="path2_00000089563856112063284460000016014926334299872946_"
   class="st0"
   d="m 150,-75.8 c -0.1,-0.1 -0.2,-0.1 -0.4,-0.1 H -1.3 c -0.1,0 -0.3,0.1 -0.3,0.1 -0.1,0.1 -0.1,0.2 -0.1,0.4 V 75.4 c 0,0.1 0.1,0.3 0.1,0.4 0.1,0.1 0.2,0.1 0.3,0.1 h 150.9 c 0.1,0 0.3,-0.1 0.4,-0.1 0.1,-0.1 0.1,-0.2 0.1,-0.4 V -75.4 c 0,-0.2 0,-0.3 -0.1,-0.4 M -0.8,-74.9 H 149.1 V 74.9 H -0.8 Z" />
				<path
   id="path4_00000102536156034228840390000002439320304375451040_"
   class="st1"
   d="M 149.1,-74.9 H -0.8 V 74.9 H 149.1 V -74.9 m -0.7,0.5 v 0.2 l 0.2,-0.2 V 74.2 H 0.2 0 V -74.4 Z" />
				<path
   id="path6_00000175305919553886309250000008393064082716938152_"
   class="st2"
   d="m 141.9,-67.6 6.4,-6.5 v -0.2 H 0 V 74.2 H 0.2 L 6.7,67.8 V -67.6 Z" />
				<path
   id="path8_00000153694245092182785800000013017949854318354564_"
   class="st3"
   d="m 141.9,-67.6 v 0 L 141.8,67.5 H 7.1 L 6.7,67.8 0.2,74.2 H 148.5 V -74.4 l -0.2,0.2 z" />
				<path
   id="path10_00000017492461212884835460000006727953520199175566_"
   class="st5"
   d="m 141.8,-67.5 v 0 L 6.7,-67.6 V 67.7 l 0.4,-0.3 h 134.7 z" />
			</g>
		</g>
	</g>
</g>
<g
   id="g184"
   transform="matrix(0.80828857,0,0,0.80828857,0.32331543,300.8175)">
	<g
   id="g182">
		<g
   id="use180">
			<g
   id="Symbol_4_0_Layer0_0_FILL_00000140711856823094285050000013953596219598861203_">
				<path
   id="path2_00000142858157422478081590000014871120901222127250_"
   class="st0"
   d="m 151.2,-75.8 c -0.1,-0.1 -0.2,-0.1 -0.4,-0.1 H 0 c -0.1,0 -0.3,0.1 -0.3,0.1 -0.1,0.1 -0.1,0.2 -0.1,0.4 V 75.4 c 0,0.1 0.1,0.3 0.1,0.4 0.1,0.1 0.2,0.1 0.3,0.1 h 150.9 c 0.1,0 0.3,-0.1 0.4,-0.1 0.1,-0.1 0.1,-0.2 0.1,-0.4 V -75.4 c 0,-0.2 -0.1,-0.3 -0.2,-0.4 M 0.5,-74.9 H 150.4 V 74.9 H 0.5 Z" />
				<path
   id="path4_00000034049822348791093820000010980567872012097705_"
   class="st1"
   d="M 150.4,-74.9 H 0.5 V 74.9 H 150.4 V -74.9 m -0.8,0.5 v 0.2 l 0.2,-0.2 V 74.2 H 1.5 1.2 V -74.4 Z" />
				<path
   id="path6_00000005975738898163892670000000094192166252343445_"
   class="st2"
   d="m 143.2,-67.6 6.4,-6.5 v -0.2 H 1.2 V 74.2 H 1.4 L 8,67.7 V -67.6 Z" />
				<path
   id="path8_00000026871959748440744960000008491877493286785436_"
   class="st3"
   d="m 143.2,-67.6 v 0 L 143.1,67.5 H 8.3 L 8,67.7 1.5,74.1 H 149.8 V -74.4 l -0.2,0.2 z" />
				<path
   id="path10_00000030470407633806021120000000617366304771491732_"
   class="st5"
   d="m 143.1,-67.5 v 0 L 8,-67.6 V 67.7 L 8.3,67.4 H 143 V -67.5 Z" />
			</g>
		</g>
	</g>
</g>
<g
   id="g190"
   transform="matrix(0.80828857,0,0,0.80828857,122.77332,300.8175)">
	<g
   id="g188">
		<g
   id="use186">
			<g
   id="Symbol_4_0_Layer0_0_FILL_00000168118519416731920450000006746176599741086624_">
				<path
   id="path2_00000054963599454882630800000001770535081808191148_"
   class="st0"
   d="m 151.1,-75.8 c -0.1,-0.1 -0.2,-0.1 -0.4,-0.1 H -0.1 c -0.1,0 -0.3,0.1 -0.3,0.1 -0.1,0.1 -0.1,0.2 -0.1,0.4 V 75.4 c 0,0.1 0.1,0.3 0.1,0.4 0.1,0.1 0.2,0.1 0.3,0.1 h 150.9 c 0.1,0 0.3,-0.1 0.4,-0.1 0.1,-0.1 0.1,-0.2 0.1,-0.4 V -75.4 c 0,-0.2 -0.1,-0.3 -0.2,-0.4 M 0.4,-74.9 H 150.3 V 74.9 H 0.4 Z" />
				<path
   id="path4_00000066495869530957017040000015506392911535888303_"
   class="st1"
   d="M 150.3,-74.9 H 0.4 V 74.9 H 150.3 V -74.9 m -0.8,0.5 v 0.2 l 0.2,-0.2 V 74.2 H 1.4 1.1 V -74.4 Z" />
				<path
   id="path6_00000017508343009326121090000018381320373674731699_"
   class="st2"
   d="m 143.1,-67.6 6.4,-6.5 v -0.2 H 1.1 V 74.2 H 1.3 L 7.8,67.8 V -67.6 Z" />
				<path
   id="path8_00000092451216826468738160000000726201697762667189_"
   class="st3"
   d="m 143.1,-67.6 v 0 L 143,67.4 H 8.2 L 7.9,67.7 1.4,74.1 H 149.7 V -74.4 l -0.2,0.2 z" />
				<path
   id="path10_00000170280106682261889770000009658011550063682959_"
   class="st5"
   d="m 143,-67.5 v 0 L 7.9,-67.6 V 67.7 L 8.2,67.4 H 143 Z" />
			</g>
		</g>
	</g>
</g>
<g
   id="g196"
   transform="matrix(0.80828857,0,0,0.80828857,245.22332,300.8175)">
	<g
   id="g194">
		<g
   id="use192">
			<g
   id="Symbol_4_0_Layer0_0_FILL_00000034089343528881507960000016707996159042167228_">
				<path
   id="path2_00000068673903481941523780000007232502475358004132_"
   class="st0"
   d="m 151.2,-75.8 c -0.1,-0.1 -0.2,-0.1 -0.4,-0.1 H 0 c -0.1,0 -0.3,0.1 -0.3,0.1 -0.1,0.1 -0.1,0.2 -0.1,0.4 V 75.4 c 0,0.1 0.1,0.3 0.1,0.4 0.1,0.1 0.2,0.1 0.3,0.1 h 150.9 c 0.1,0 0.3,-0.1 0.4,-0.1 0.1,-0.1 0.1,-0.2 0.1,-0.4 V -75.4 c 0,-0.2 -0.1,-0.3 -0.2,-0.4 M 0.5,-74.9 H 150.4 V 74.9 H 0.5 Z" />
				<path
   id="path4_00000183216263279024222770000001361758064845223855_"
   class="st1"
   d="M 150.4,-74.9 H 0.5 V 74.9 H 150.4 V -74.9 m -0.8,0.5 v 0.2 l 0.2,-0.2 V 74.2 H 1.5 1.2 V -74.4 Z" />
				<path
   id="path6_00000066502249678284850750000004306917295981801610_"
   class="st2"
   d="m 143.2,-67.6 6.4,-6.5 v -0.2 H 1.2 V 74.2 H 1.4 L 8,67.7 V -67.6 Z" />
				<path
   id="path8_00000051349698610727253910000016684851669806800273_"
   class="st3"
   d="m 143.2,-67.6 v 0 L 143.1,67.5 H 8.3 L 8,67.7 1.5,74.1 H 149.8 V -74.4 l -0.2,0.2 z" />
				<path
   id="path10_00000047061924320312984500000008394199800180631170_"
   class="st5"
   d="m 143.1,-67.5 v 0 L 8,-67.6 V 67.7 L 8.3,67.4 H 143 V -67.5 Z" />
			</g>
		</g>
	</g>
</g>
<g
   id="g202"
   transform="matrix(0.80828857,0,0,0.80828857,367.67332,300.8175)">
	<g
   id="g200">
		<g
   id="use198">
			<g
   id="Symbol_4_0_Layer0_0_FILL_00000133503239864127640250000011250163920443120808_">
				<path
   id="path2_00000124154712822414452450000008538036914902318216_"
   class="st0"
   d="m 151.2,-75.8 c -0.1,-0.1 -0.2,-0.1 -0.4,-0.1 H 0 c -0.1,0 -0.3,0.1 -0.3,0.1 -0.1,0.1 -0.1,0.2 -0.1,0.4 V 75.4 c 0,0.1 0.1,0.3 0.1,0.4 0.1,0.1 0.2,0.1 0.3,0.1 h 150.9 c 0.1,0 0.3,-0.1 0.4,-0.1 0.1,-0.1 0.1,-0.2 0.1,-0.4 V -75.4 c 0,-0.2 -0.1,-0.3 -0.2,-0.4 M 0.5,-74.9 H 150.4 V 74.9 H 0.5 Z" />
				<path
   id="path4_00000132069887730392947830000006575668080426835355_"
   class="st1"
   d="M 150.4,-74.9 H 0.5 V 74.9 H 150.4 V -74.9 m -0.8,0.5 v 0.2 l 0.2,-0.2 V 74.2 H 1.5 1.2 V -74.4 Z" />
				<path
   id="path6_00000071534364550132265750000004975994454730426785_"
   class="st2"
   d="m 143.2,-67.6 6.4,-6.5 v -0.2 H 1.2 V 74.2 H 1.4 L 8,67.7 V -67.6 Z" />
				<path
   id="path8_00000061430185181603523010000013039290469823301022_"
   class="st3"
   d="m 143.2,-67.6 v 0 L 143.1,67.5 H 8.3 L 8,67.7 1.5,74.1 H 149.8 V -74.4 l -0.2,0.2 z" />
				<path
   id="path10_00000013162491137018077680000013193890061353456268_"
   class="st5"
   d="m 143.1,-67.5 v 0 L 8,-67.6 V 67.7 L 8.3,67.4 H 143 V -67.5 Z" />
			</g>
		</g>
	</g>
</g>
<g
   id="g208"
   transform="matrix(0.80828857,0,0,0.80828857,490.12332,300.8175)">
	<g
   id="g206">
		<g
   id="use204">
			<g
   id="Symbol_4_0_Layer0_0_FILL_00000160177816290408472680000000439426008075200952_">
				<path
   id="path2_00000072270546006141667110000002324338484441207688_"
   class="st0"
   d="m 151.2,-75.8 c -0.1,-0.1 -0.2,-0.1 -0.4,-0.1 H 0 c -0.1,0 -0.3,0.1 -0.3,0.1 -0.1,0.1 -0.1,0.2 -0.1,0.4 V 75.4 c 0,0.1 0.1,0.3 0.1,0.4 0.1,0.1 0.2,0.1 0.3,0.1 h 150.9 c 0.1,0 0.3,-0.1 0.4,-0.1 0.1,-0.1 0.1,-0.2 0.1,-0.4 V -75.4 c 0,-0.2 -0.1,-0.3 -0.2,-0.4 M 0.5,-74.9 H 150.4 V 74.9 H 0.5 Z" />
				<path
   id="path4_00000085221534252272745910000001023283114645741492_"
   class="st1"
   d="M 150.4,-74.9 H 0.5 V 74.9 H 150.4 V -74.9 m -0.8,0.5 v 0.2 l 0.2,-0.2 V 74.2 H 1.5 1.2 V -74.4 Z" />
				<path
   id="path6_00000031926952065245368180000006709736285001348030_"
   class="st2"
   d="m 143.2,-67.6 6.4,-6.5 v -0.2 H 1.2 V 74.2 H 1.4 L 8,67.7 V -67.6 Z" />
				<path
   id="path8_00000124844552374104592620000002099423773179169682_"
   class="st3"
   d="m 143.2,-67.6 v 0 L 143.1,67.5 H 8.3 L 8,67.7 1.5,74.1 H 149.8 V -74.4 l -0.2,0.2 z" />
				<path
   id="path10_00000072959872506455002510000015217409638139051933_"
   class="st9"
   d="m 143.1,-67.5 v 0 L 8,-67.6 V 67.7 l 0.4,-0.3 h 134.7 z" />
			</g>
		</g>
	</g>
</g>
<g
   id="g214"
   transform="matrix(0.80828857,0,0,0.80828857,612.57332,300.8175)">
	<g
   id="g212">
		<g
   id="use210">
			<g
   id="Symbol_4_0_Layer0_0_FILL_00000142868847218277860410000011288505960904820098_">
				<path
   id="path2_00000052797777442139639080000009149625877104494986_"
   class="st0"
   d="m 151.2,-75.8 c -0.1,-0.1 -0.2,-0.1 -0.4,-0.1 H 0 c -0.1,0 -0.3,0.1 -0.3,0.1 -0.1,0.1 -0.1,0.2 -0.1,0.4 V 75.4 c 0,0.1 0.1,0.3 0.1,0.4 0.1,0.1 0.2,0.1 0.3,0.1 h 150.9 c 0.1,0 0.3,-0.1 0.4,-0.1 0.1,-0.1 0.1,-0.2 0.1,-0.4 V -75.4 c 0,-0.2 -0.1,-0.3 -0.2,-0.4 M 0.5,-74.9 H 150.4 V 74.9 H 0.5 Z" />
				<path
   id="path4_00000158713056885321952630000000747903880597271428_"
   class="st1"
   d="M 150.4,-74.9 H 0.5 V 74.9 H 150.4 V -74.9 m -0.8,0.5 v 0.2 l 0.2,-0.2 V 74.2 H 1.5 1.2 V -74.4 Z" />
				<path
   id="path6_00000147220028667650125230000010907124864385706908_"
   class="st2"
   d="m 143.2,-67.6 6.4,-6.5 v -0.2 H 1.2 V 74.2 H 1.4 L 8,67.7 V -67.6 Z" />
				<path
   id="path8_00000172409204603684112420000009721210664746860943_"
   class="st3"
   d="m 143.2,-67.6 v 0 L 143.1,67.5 H 8.3 L 8,67.7 1.5,74.1 H 149.8 V -74.4 l -0.2,0.2 z" />
				<path
   id="path10_00000176760770045589993190000009365872722992672642_"
   class="st10"
   d="m 143.1,-67.5 v 0 L 8,-67.6 V 67.7 l 0.4,-0.3 h 134.7 z" />
			</g>
		</g>
	</g>
</g>
<g
   id="g220"
   transform="matrix(0.80828857,0,0,0.80828857,735.12332,300.8175)">
	<g
   id="g218">
		<g
   id="use216">
			<g
   id="Symbol_4_0_Layer0_0_FILL_00000041294227150112928130000002292045310008840110_">
				<path
   id="path2_00000098215582679956837460000012394515635341972125_"
   class="st0"
   d="m 150,-75.8 c -0.1,-0.1 -0.2,-0.1 -0.4,-0.1 H -1.3 c -0.1,0 -0.3,0.1 -0.3,0.1 -0.1,0.1 -0.1,0.2 -0.1,0.4 V 75.4 c 0,0.1 0.1,0.3 0.1,0.4 0.1,0.1 0.2,0.1 0.3,0.1 h 150.9 c 0.1,0 0.3,-0.1 0.4,-0.1 0.1,-0.1 0.1,-0.2 0.1,-0.4 V -75.4 c 0,-0.2 0,-0.3 -0.1,-0.4 M -0.8,-74.9 H 149.1 V 74.9 H -0.8 Z" />
				<path
   id="path4_00000121242668927724428840000003837499666418490246_"
   class="st1"
   d="M 149.1,-74.9 H -0.8 V 74.9 H 149.1 V -74.9 m -0.7,0.5 v 0.2 l 0.2,-0.2 V 74.2 H 0.2 0 V -74.4 Z" />
				<path
   id="path6_00000041259561511804798460000005930724095860632201_"
   class="st2"
   d="m 141.9,-67.6 6.4,-6.5 v -0.2 H 0 V 74.2 H 0.2 L 6.7,67.8 V -67.6 Z" />
				<path
   id="path8_00000026856311108640365330000010436197993028459960_"
   class="st3"
   d="m 141.9,-67.6 v 0 L 141.8,67.5 H 7.1 L 6.7,67.8 0.2,74.2 H 148.5 V -74.4 l -0.2,0.2 z" />
				<path
   id="path10_00000048467942921869867500000017746309516269359496_"
   class="st5"
   d="m 141.8,-67.5 v 0 L 6.7,-67.6 V 67.7 l 0.4,-0.3 h 134.7 z" />
			</g>
		</g>
	</g>
</g>
<g
   id="g226"
   transform="matrix(0.80828857,0,0,0.80828857,489.67924,60.798008)">
	<g
   id="g224">
		<g
   id="use222">
			<g
   id="Symbol_4_0_Layer0_0_FILL_00000025407147054455560530000000470899841905722768_">
				<path
   id="path2_00000106826320460935926590000003965532090028234375_"
   class="st0"
   d="m 151.2,-75.8 c -0.1,-0.1 -0.2,-0.1 -0.4,-0.1 H 0 c -0.1,0 -0.3,0.1 -0.3,0.1 -0.1,0.1 -0.1,0.2 -0.1,0.4 V 75.4 c 0,0.1 0.1,0.3 0.1,0.4 0.1,0.1 0.2,0.1 0.3,0.1 h 150.9 c 0.1,0 0.3,-0.1 0.4,-0.1 0.1,-0.1 0.1,-0.2 0.1,-0.4 V -75.4 c 0,-0.2 -0.1,-0.3 -0.2,-0.4 M 0.5,-74.9 H 150.4 V 74.9 H 0.5 Z" />
				<path
   id="path4_00000126297849903040931310000017418496824503613829_"
   class="st1"
   d="M 150.4,-74.9 H 0.5 V 74.9 H 150.4 V -74.9 m -0.8,0.5 v 0.2 l 0.2,-0.2 V 74.2 H 1.5 1.2 V -74.4 Z" />
				<path
   id="path6_00000068673418780828141480000007485837589687126947_"
   class="st2"
   d="m 143.2,-67.6 6.4,-6.5 v -0.2 H 1.2 V 74.2 H 1.4 L 8,67.7 V -67.6 Z" />
				<path
   id="path8_00000160871311356605549900000010597987761126321316_"
   class="st3"
   d="m 143.2,-67.6 v 0 L 143.1,67.5 H 8.3 L 8,67.7 1.5,74.1 H 149.8 V -74.4 l -0.2,0.2 z" />
				<path
   id="path10_00000129179066641383179780000013762188123628869248_"
   class="st11"
   d="m 143.1,-67.5 v 0 L 8,-67.6 V 67.7 L 8.3,67.4 H 143 V -67.5 Z" />
			</g>
		</g>
	</g>
</g>
<g
   id="g232"
   transform="matrix(0.80828857,0,0,0.80828857,122.77332,420.4675)">
	<g
   id="g230">
		<g
   id="use228">
			<g
   id="Symbol_4_0_Layer0_0_FILL_00000116954203912083876640000010422110688551804823_">
				<path
   id="path2_00000067205876901617659880000013475038297354648965_"
   class="st0"
   d="m 151.1,-75.8 c -0.1,-0.1 -0.2,-0.1 -0.4,-0.1 H -0.1 c -0.1,0 -0.3,0.1 -0.3,0.1 -0.1,0.1 -0.1,0.2 -0.1,0.4 V 75.4 c 0,0.1 0.1,0.3 0.1,0.4 0.1,0.1 0.2,0.1 0.3,0.1 h 150.9 c 0.1,0 0.3,-0.1 0.4,-0.1 0.1,-0.1 0.1,-0.2 0.1,-0.4 V -75.4 c 0,-0.2 -0.1,-0.3 -0.2,-0.4 M 0.4,-74.9 H 150.3 V 74.9 H 0.4 Z" />
				<path
   id="path4_00000161619136070287682540000009682827198073111973_"
   class="st1"
   d="M 150.3,-74.9 H 0.4 V 74.9 H 150.3 V -74.9 m -0.8,0.5 v 0.2 l 0.2,-0.2 V 74.2 H 1.4 1.1 V -74.4 Z" />
				<path
   id="path6_00000092428373916082031500000011656307186502566040_"
   class="st2"
   d="m 143.1,-67.6 6.4,-6.5 v -0.2 H 1.1 V 74.2 H 1.3 L 7.8,67.8 V -67.6 Z" />
				<path
   id="path8_00000038407425058454473070000010115892973379549568_"
   class="st3"
   d="m 143.1,-67.6 v 0 L 143,67.4 H 8.2 L 7.9,67.7 1.4,74.1 H 149.7 V -74.4 l -0.2,0.2 z" />
				<path
   id="path10_00000101818337789241675190000008633489020979229598_"
   class="st5"
   d="m 143,-67.5 v 0 L 7.9,-67.6 V 67.7 L 8.2,67.4 H 143 Z" />
			</g>
		</g>
	</g>
</g>
<g
   id="g238"
   transform="matrix(0.80828857,0,0,0.80828857,245.22332,420.4675)">
	<g
   id="g236">
		<g
   id="use234">
			<g
   id="Symbol_4_0_Layer0_0_FILL_00000157291522330966101970000000119456920468825756_">
				<path
   id="path2_00000070076909875572487870000000367881128897953949_"
   class="st0"
   d="m 151.2,-75.8 c -0.1,-0.1 -0.2,-0.1 -0.4,-0.1 H 0 c -0.1,0 -0.3,0.1 -0.3,0.1 -0.1,0.1 -0.1,0.2 -0.1,0.4 V 75.4 c 0,0.1 0.1,0.3 0.1,0.4 0.1,0.1 0.2,0.1 0.3,0.1 h 150.9 c 0.1,0 0.3,-0.1 0.4,-0.1 0.1,-0.1 0.1,-0.2 0.1,-0.4 V -75.4 c 0,-0.2 -0.1,-0.3 -0.2,-0.4 M 0.5,-74.9 H 150.4 V 74.9 H 0.5 Z" />
				<path
   id="path4_00000150091816535655015560000014992568124332521130_"
   class="st1"
   d="M 150.4,-74.9 H 0.5 V 74.9 H 150.4 V -74.9 m -0.8,0.5 v 0.2 l 0.2,-0.2 V 74.2 H 1.5 1.2 V -74.4 Z" />
				<path
   id="path6_00000028305757775857245750000004606787685230774945_"
   class="st2"
   d="m 143.2,-67.6 6.4,-6.5 v -0.2 H 1.2 V 74.2 H 1.4 L 8,67.7 V -67.6 Z" />
				<path
   id="path8_00000141419324469174721020000015179088005499934909_"
   class="st3"
   d="m 143.2,-67.6 v 0 L 143.1,67.5 H 8.3 L 8,67.7 1.5,74.1 H 149.8 V -74.4 l -0.2,0.2 z" />
				<path
   id="path10_00000103252654281057211800000016910595948285829793_"
   class="st12"
   d="m 143.1,-67.5 v 0 L 8,-67.6 V 67.7 L 8.3,67.4 H 143 V -67.5 Z" />
			</g>
		</g>
	</g>
</g>
<g
   id="g244"
   transform="matrix(0.80828857,0,0,0.80828857,367.67332,420.4675)">
	<g
   id="g242">
		<g
   id="use240">
			<g
   id="Symbol_4_0_Layer0_0_FILL_00000066490057351728314050000004783118010253894813_">
				<path
   id="path2_00000159438894633729068180000015755941001396391868_"
   class="st0"
   d="m 151.2,-75.8 c -0.1,-0.1 -0.2,-0.1 -0.4,-0.1 H 0 c -0.1,0 -0.3,0.1 -0.3,0.1 -0.1,0.1 -0.1,0.2 -0.1,0.4 V 75.4 c 0,0.1 0.1,0.3 0.1,0.4 0.1,0.1 0.2,0.1 0.3,0.1 h 150.9 c 0.1,0 0.3,-0.1 0.4,-0.1 0.1,-0.1 0.1,-0.2 0.1,-0.4 V -75.4 c 0,-0.2 -0.1,-0.3 -0.2,-0.4 M 0.5,-74.9 H 150.4 V 74.9 H 0.5 Z" />
				<path
   id="path4_00000011723411955562501670000000744818105632825015_"
   class="st1"
   d="M 150.4,-74.9 H 0.5 V 74.9 H 150.4 V -74.9 m -0.8,0.5 v 0.2 l 0.2,-0.2 V 74.2 H 1.5 1.2 V -74.4 Z" />
				<path
   id="path6_00000130618051517152606890000008586712310674796178_"
   class="st2"
   d="m 143.2,-67.6 6.4,-6.5 v -0.2 H 1.2 V 74.2 H 1.4 L 8,67.7 V -67.6 Z" />
				<path
   id="path8_00000135692729031639177920000004130399926732768413_"
   class="st3"
   d="m 143.2,-67.6 v 0 L 143.1,67.5 H 8.3 L 8,67.7 1.5,74.1 H 149.8 V -74.4 l -0.2,0.2 z" />
				<path
   id="path10_00000155113685838991257640000004763351280140717449_"
   class="st5"
   d="m 143.1,-67.5 v 0 L 8,-67.6 V 67.7 L 8.3,67.4 H 143 V -67.5 Z" />
			</g>
		</g>
	</g>
</g>
<g
   id="g250"
   transform="matrix(0.80828857,0,0,0.80828857,490.12332,420.4675)">
	<g
   id="g248">
		<g
   id="use246">
			<g
   id="Symbol_4_0_Layer0_0_FILL_00000150789655329905784890000016593476894351877823_">
				<path
   id="path2_00000069357811239459572450000016305085999317334700_"
   class="st0"
   d="m 151.2,-75.8 c -0.1,-0.1 -0.2,-0.1 -0.4,-0.1 H 0 c -0.1,0 -0.3,0.1 -0.3,0.1 -0.1,0.1 -0.1,0.2 -0.1,0.4 V 75.4 c 0,0.1 0.1,0.3 0.1,0.4 0.1,0.1 0.2,0.1 0.3,0.1 h 150.9 c 0.1,0 0.3,-0.1 0.4,-0.1 0.1,-0.1 0.1,-0.2 0.1,-0.4 V -75.4 c 0,-0.2 -0.1,-0.3 -0.2,-0.4 M 0.5,-74.9 H 150.4 V 74.9 H 0.5 Z" />
				<path
   id="path4_00000067958925461898816360000008569740770902955659_"
   class="st1"
   d="M 150.4,-74.9 H 0.5 V 74.9 H 150.4 V -74.9 m -0.8,0.5 v 0.2 l 0.2,-0.2 V 74.2 H 1.5 1.2 V -74.4 Z" />
				<path
   id="path6_00000165234147192554916510000010581991935596165539_"
   class="st2"
   d="m 143.2,-67.6 6.4,-6.5 v -0.2 H 1.2 V 74.2 H 1.4 L 8,67.7 V -67.6 Z" />
				<path
   id="path8_00000016064897022159762910000010790654261438956695_"
   class="st3"
   d="m 143.2,-67.6 v 0 L 143.1,67.5 H 8.3 L 8,67.7 1.5,74.1 H 149.8 V -74.4 l -0.2,0.2 z" />
				<path
   id="path10_00000105426802482394124550000004709626196142584198_"
   class="st6"
   d="m 143.1,-67.5 v 0 L 8,-67.6 V 67.7 l 0.4,-0.3 h 134.7 z" />
			</g>
		</g>
	</g>
</g>
<g
   id="g256"
   transform="matrix(0.80828857,0,0,0.80828857,612.57332,420.4675)">
	<g
   id="g254">
		<g
   id="use252">
			<g
   id="Symbol_4_0_Layer0_0_FILL_00000092421171790669488290000001271668356573996208_">
				<path
   id="path2_00000127043272241357483900000006763041279023504817_"
   class="st0"
   d="m 151.2,-75.8 c -0.1,-0.1 -0.2,-0.1 -0.4,-0.1 H 0 c -0.1,0 -0.3,0.1 -0.3,0.1 -0.1,0.1 -0.1,0.2 -0.1,0.4 V 75.4 c 0,0.1 0.1,0.3 0.1,0.4 0.1,0.1 0.2,0.1 0.3,0.1 h 150.9 c 0.1,0 0.3,-0.1 0.4,-0.1 0.1,-0.1 0.1,-0.2 0.1,-0.4 V -75.4 c 0,-0.2 -0.1,-0.3 -0.2,-0.4 M 0.5,-74.9 H 150.4 V 74.9 H 0.5 Z" />
				<path
   id="path4_00000008845562704865471230000002032733483161119159_"
   class="st1"
   d="M 150.4,-74.9 H 0.5 V 74.9 H 150.4 V -74.9 m -0.8,0.5 v 0.2 l 0.2,-0.2 V 74.2 H 1.5 1.2 V -74.4 Z" />
				<path
   id="path6_00000100354748382292128300000014978721526108065676_"
   class="st2"
   d="m 143.2,-67.6 6.4,-6.5 v -0.2 H 1.2 V 74.2 H 1.4 L 8,67.7 V -67.6 Z" />
				<path
   id="path8_00000151518568490179562020000007526369076376049029_"
   class="st3"
   d="m 143.2,-67.6 v 0 L 143.1,67.5 H 8.3 L 8,67.7 1.5,74.1 H 149.8 V -74.4 l -0.2,0.2 z" />
				<path
   id="path10_00000180359284808841221110000013272416783209414044_"
   class="st5"
   d="m 143.1,-67.5 v 0 L 8,-67.6 V 67.7 l 0.4,-0.3 h 134.7 z" />
			</g>
		</g>
	</g>
</g>
<g
   id="g262"
   transform="matrix(0.80828857,0,0,0.80828857,735.12332,420.4675)">
	<g
   id="g260">
		<g
   id="use258">
			<g
   id="Symbol_4_0_Layer0_0_FILL_00000028326073917907635820000012167210808837885108_">
				<path
   id="path2_00000140005610011180639100000005319206059327384981_"
   class="st0"
   d="m 150,-75.8 c -0.1,-0.1 -0.2,-0.1 -0.4,-0.1 H -1.3 c -0.1,0 -0.3,0.1 -0.3,0.1 -0.1,0.1 -0.1,0.2 -0.1,0.4 V 75.4 c 0,0.1 0.1,0.3 0.1,0.4 0.1,0.1 0.2,0.1 0.3,0.1 h 150.9 c 0.1,0 0.3,-0.1 0.4,-0.1 0.1,-0.1 0.1,-0.2 0.1,-0.4 V -75.4 c 0,-0.2 0,-0.3 -0.1,-0.4 M -0.8,-74.9 H 149.1 V 74.9 H -0.8 Z" />
				<path
   id="path4_00000009569743275224169180000014540532314898896006_"
   class="st1"
   d="M 149.1,-74.9 H -0.8 V 74.9 H 149.1 V -74.9 m -0.7,0.5 v 0.2 l 0.2,-0.2 V 74.2 H 0.2 0 V -74.4 Z" />
				<path
   id="path6_00000000924649784056353140000018022634545189583233_"
   class="st2"
   d="m 141.9,-67.6 6.4,-6.5 v -0.2 H 0 V 74.2 H 0.2 L 6.7,67.8 V -67.6 Z" />
				<path
   id="path8_00000142872729171197351820000001492369091805057678_"
   class="st3"
   d="m 141.9,-67.6 v 0 L 141.8,67.5 H 7.1 L 6.7,67.8 0.2,74.2 H 148.5 V -74.4 l -0.2,0.2 z" />
				<path
   id="path10_00000132050265894490996960000008429028540627953086_"
   class="st13"
   d="m 141.8,-67.5 v 0 L 6.7,-67.6 V 67.7 l 0.4,-0.3 h 134.7 z" />
			</g>
		</g>
	</g>
</g>







<g
   id="g310"
   transform="matrix(0.80828857,0,0,0.80828857,122.27332,60.217498)">
	<g
   id="g308">
		<g
   id="use306">
			<g
   id="Symbol_4_0_Layer0_0_FILL_00000000906882677077555790000000169692701777610887_">
				<path
   id="path2_00000094603148103254449210000014539227364966097025_"
   class="st0"
   d="m 151.7,-74.4 c -0.1,-0.1 -0.2,-0.1 -0.4,-0.1 H 0.5 c -0.1,0 -0.3,0.1 -0.3,0.1 C 0,-74.3 0,-74.2 0,-74 V 74.8 c 0,0.1 0.1,0.3 0.1,0.3 0.1,0.1 0.2,0.1 0.3,0.1 h 150.9 c 0.1,0 0.3,-0.1 0.4,-0.1 0.1,-0.1 0.1,-0.2 0.1,-0.3 V -74 c 0.1,-0.2 0,-0.3 -0.1,-0.4 M 1,-73.5 H 150.9 V 74.3 H 1 Z" />
				<path
   id="path4_00000170978683821772900030000018129760501434531492_"
   class="st1"
   d="M 150.9,-73.5 H 1 V 74.3 H 150.9 V -73.5 m -0.8,0.5 v 0.2 l 0.2,-0.2 V 73.6 H 2 1.7 V -73 Z" />
				<path
   id="path6_00000142889099871844211610000009140065669991359380_"
   class="st2"
   d="m 143.7,-66.3 6.4,-6.5 V -73 H 1.7 V 73.6 H 2 L 8.5,67.2 V -66.3 Z" />
				<path
   id="path8_00000125571108785446957890000007152395196143955600_"
   class="st3"
   d="m 143.7,-66.3 v 0 L 143.6,66.9 H 8.8 L 8.5,67.2 2,73.6 H 150.3 V -73 l -0.2,0.2 z" />
				<path
   id="path10_00000059997406298275621050000013268618618494690964_"
   class="st5"
   d="m 143.6,-66.2 v 0 L 8.5,-66.3 V 67.2 L 8.8,66.9 H 143.5 V -66.2 Z" />
			</g>
		</g>
	</g>
</g>
<path
   class="st14"
   d="M 427.62332,180.2175"
   id="path2863" />
<g
   id="g2893"
   transform="translate(-0.07668457,-1.1825015)">
	<circle
   class="st2"
   cx="550.70001"
   cy="422.60001"
   r="48.799999"
   id="circle2865" />
	<path
   class="st15"
   d="m 550.7,471.3 c -26.9,0 -48.8,-21.9 -48.8,-48.8 0,-26.9 21.9,-48.8 48.8,-48.8 26.9,0 48.8,21.9 48.8,48.8 -0.1,27 -21.9,48.8 -48.8,48.8 z m 0,-96.5 c -26.3,0 -47.7,21.4 -47.7,47.7 0,26.3 21.4,47.7 47.7,47.7 26.3,0 47.7,-21.4 47.7,-47.7 0,-26.3 -21.4,-47.7 -47.7,-47.7 z"
   id="path2867" />
	<g
   id="g2891">
		<g
   id="g2887">
			<g
   id="g2885">
				<path
   class="st16"
   d="m 573.8,436.2 c -1,12.2 -11.1,21.4 -22.7,20.5 -11.6,-0.9 -20.1,-11.6 -19.2,-23.8 1,-12.2 11.1,-21.4 22.7,-20.5 11.6,0.9 20.2,11.6 19.2,23.8 z"
   id="path2869" />
				<path
   class="st17"
   d="m 547.7,456.7 c -10.3,-2.6 -17.1,-12.6 -16.2,-23.8 0.5,-6 3.1,-11.5 7.5,-15.5 4.4,-4 9.9,-5.9 15.7,-5.4 1.1,0.1 2.3,0.3 3.4,0.6 10.3,2.6 17.1,12.6 16.2,23.8 -0.5,6 -3.2,11.5 -7.5,15.5 -4.4,4 -9.9,5.9 -15.7,5.4 -1.1,-0.2 -2.3,-0.4 -3.4,-0.6 z m 10.2,-43.3 c -1.1,-0.3 -2.2,-0.5 -3.3,-0.5 -5.5,-0.4 -10.8,1.4 -14.9,5.2 -4.2,3.8 -6.8,9.1 -7.2,14.9 -0.9,10.7 5.7,20.3 15.5,22.8 1.1,0.3 2.2,0.4 3.2,0.5 5.5,0.4 10.8,-1.4 15,-5.2 4.2,-3.8 6.8,-9.1 7.2,-14.9 0.8,-10.7 -5.7,-20.3 -15.5,-22.8 z"
   id="path2871" />
				<path
   class="st2"
   d="m 572.2,434.2 c -0.9,11.2 -10.2,19.6 -20.8,18.8 -10.6,-0.8 -18.4,-10.6 -17.5,-21.8 0.9,-11.2 11.2,-14.6 21.8,-13.7 10.6,0.8 17.4,5.5 16.5,16.7 z"
   id="path2873" />
				<path
   class="st18"
   d="m 564.2,436 c -0.5,6.6 -6,11.6 -12.3,11.1 -6.3,-0.5 -10.9,-6.3 -10.4,-12.9 0.5,-6.6 6,-11.6 12.3,-11.1 6.3,0.5 10.9,6.3 10.4,12.9 z"
   id="path2875" />
				<path
   class="st19"
   d="m 559.1,435.6 c -0.3,3.7 -3.3,6.4 -6.8,6.1 -3.5,-0.3 -6,-3.5 -5.7,-7.1 0.3,-3.7 3.3,-6.4 6.8,-6.1 3.5,0.2 6,3.4 5.7,7.1 z"
   id="path2877" />
				<path
   class="st2"
   d="m 561.6,430.2 c -0.2,2 -1.8,3.4 -3.6,3.3 -1.8,-0.1 -3.2,-1.9 -3.1,-3.8 0.1,-2 1.8,-3.4 3.6,-3.3 1.9,0.2 3.3,1.9 3.1,3.8 z"
   id="path2879" />
				<path
   class="st2"
   d="m 548.2,441.1 c -0.1,1 -0.9,1.8 -1.9,1.7 -1,-0.1 -1.7,-1 -1.6,-2 0.1,-1 0.9,-1.8 1.9,-1.7 0.9,0.1 1.7,1 1.6,2 z"
   id="path2881" />
				<path
   class="st20"
   d="m 533.2,422.8 c 0,0 3.6,-10.2 14.8,-12.4 11.2,-2.1 22.8,9.1 22.8,9.1 0,0 -19.3,-9.7 -37.6,3.3 z"
   id="path2883" />
			</g>
		</g>
		<path
   class="st21"
   d="m 540.3,388.5 c 15.8,-7.2 22.1,10.5 11.1,12.2 -11.8,1.8 -21,7.6 -22.6,6.7 -3.7,-2 2.5,-14.8 11.5,-18.9 z"
   id="path2889" />
	</g>
</g>
<g
   id="g2925"
   transform="translate(-0.07668457,-1.1825015)">
	<circle
   class="st2"
   cx="674.59998"
   cy="301"
   r="48.200001"
   id="circle2895" />
	<g
   id="g2923">
		<path
   class="st15"
   d="m 674.6,350.3 c -27.2,0 -49.3,-22.1 -49.3,-49.3 0,-27.2 22.1,-49.3 49.3,-49.3 27.2,0 49.3,22.1 49.3,49.3 0,27.2 -22.1,49.3 -49.3,49.3 z m 0,-97.5 c -26.6,0 -48.2,21.6 -48.2,48.2 0,26.6 21.6,48.2 48.2,48.2 26.6,0 48.2,-21.6 48.2,-48.2 0,-26.6 -21.6,-48.2 -48.2,-48.2 z"
   id="path2897" />
		<g
   id="g2921">
			<path
   class="st22"
   d="m 675.1,270.1 c -8.4,0 -10.3,8.4 -11.5,17 -0.9,6.8 0.1,16.2 -5.7,22.9 -5.8,6.7 -8.4,12.7 -4.1,17.6 4.4,5 11.5,1.3 12.5,1.3 3.9,1.5 9.8,2.4 16.6,0.1 7.3,1.9 13.7,0.4 15.1,-5.4 1.5,-5.8 -10.1,-14.3 -11.2,-26.2 -1.2,-13.6 -1.5,-27.3 -11.7,-27.3 z"
   id="path2899" />
			<path
   class="st20"
   d="m 675.1,270.1 c -8.4,0 -10.3,8.4 -11.5,17 -0.9,6.8 -0.2,16.4 -6.1,23.1 -5.8,6.7 -6.7,13.2 -2.5,16.5 2.8,2.2 6.9,-0.1 7.9,-0.1 8.4,6.1 13.5,7.4 22.2,0.9 4.7,1.1 11.6,-1.1 12.3,-5 1,-5.8 -9.4,-14.2 -10,-24.9 -0.7,-13.7 -2.1,-27.5 -12.3,-27.5 z"
   id="path2901" />
			<g
   id="g2909">
				<g
   id="g2907">
					<path
   class="st23"
   d="m 657.7,326.6 c -0.6,1.9 1.4,3.1 3.3,3.6 2.6,-0.2 4.9,-1.2 5.4,-1.2 -2,-1.9 -7.8,-5.2 -8.7,-2.4 z"
   id="path2903" />
					<path
   class="st23"
   d="m 690.8,326 c -2,-1.2 -6.9,2 -7.9,3.1 2,0.5 3.9,0.8 5.6,0.8 2.3,-1 4.3,-2.8 2.3,-3.9 z"
   id="path2905" />
				</g>
			</g>
			<path
   class="st24"
   d="m 679.7,278 c -1,-4.6 -6.7,-7 -9.1,0.3 -2.4,7.3 -8.5,47.5 4.5,47.5 13.1,0 7.3,-35.3 4.6,-47.8 z"
   id="path2911" />
			<path
   class="st24"
   d="m 660.6,310.5 c -3.5,3.4 -8.1,13.5 -2.8,13.3 4.4,-0.1 3.7,-4.7 3.2,-6.4 -0.6,-1.8 -0.4,-6.9 -0.4,-6.9 z"
   id="path2913" />
			<path
   class="st25"
   d="m 689.6,311.2 c 3.5,3.4 8.1,13.5 2.8,13.3 -4.4,-0.1 -3.7,-4.7 -3.2,-6.4 0.7,-1.8 0.4,-6.9 0.4,-6.9 z"
   id="path2915" />
			<path
   class="st26"
   d="m 680.8,318.5 c -0.4,1.4 -1.3,4.2 -3.7,4 -0.9,-0.1 -2.4,-1.1 -1.8,-3.9 0.7,-2.9 3.4,-5.8 4.3,-5.8 2.3,0.1 1.6,4.1 1.2,5.7 z"
   id="path2917" />
			<path
   class="st27"
   d="m 670.7,328.8 c -2.6,-1 -1.7,0.2 -0.4,0.9 1.2,0.7 3.8,1.8 7.9,0.7 4,-1 2.4,-1.8 0.7,-1.4 -0.6,0.2 -3.9,1.5 -8.2,-0.2 z"
   id="path2919" />
		</g>
	</g>
</g>
<g
   id="g2941"
   transform="translate(-0.07668457,-1.1825015)">
	<circle
   class="st2"
   cx="795.29999"
   cy="62.599998"
   r="49.299999"
   id="circle2927" />
	<g
   id="g2939">
		<path
   class="st15"
   d="m 795.3,111.9 c -27.2,0 -49.3,-22.1 -49.3,-49.3 0,-27.2 22.1,-49.3 49.3,-49.3 27.2,0 49.3,22.1 49.3,49.3 0,27.2 -22.2,49.3 -49.3,49.3 z m 0,-97.5 c -26.6,0 -48.2,21.6 -48.2,48.2 0,26.6 21.6,48.2 48.2,48.2 26.6,0 48.2,-21.6 48.2,-48.2 0,-26.6 -21.6,-48.2 -48.2,-48.2 z"
   id="path2929" />
		<g
   id="g2937">
			<path
   class="st20"
   d="m 795.4,27.2 c 0,0 24.5,18.3 22.8,30.2 -1.6,11.8 -8.6,30.6 -8.6,38.7 -7.7,4.1 -16.3,1.2 -19.2,-0.8 -2,-17.1 0.8,-35.1 0.8,-35.1 0,0 -13,-8.2 -18.3,-13.5 0.9,-12.5 18,-19.5 22.5,-19.5 z"
   id="path2931" />
			<path
   class="st22"
   d="m 776.4,38.1 c -1.5,2 -2.7,4.3 -3.2,6.8 v 0 c 5.6,5.4 20,14.3 20,14.3 0,0 -3.4,19.7 -1.4,36.8 0,0 0.1,0 0.1,0.1 0.2,0.1 0.4,0.2 0.6,0.3 0.2,0.1 0.5,0.2 0.7,0.3 0,0 0,0 0.1,0 0.6,0.2 1.2,0.4 1.8,0.6 v 0 0 c -2.1,-11.5 -0.4,-33.2 4.2,-40 -9.1,-1.5 -19.8,-11 -22.9,-19.2 z"
   id="path2933" />
			<path
   class="st22"
   d="m 806.8,60.7 c 4.4,3.8 7.1,4.4 10.2,3.1 0.5,-2.3 0.9,-4.4 1.2,-6.4 0,0 -2.5,4.1 -11.4,3.3 z"
   id="path2935" />
		</g>
	</g>
</g>
<g
   id="g2967"
   transform="translate(-0.07668457,-1.1825015)">
	<circle
   class="st2"
   cx="306.39999"
   cy="62.599998"
   r="48.200001"
   id="circle2943" />
	<g
   id="g2965">
		<path
   class="st15"
   d="m 306.4,111.9 c -27.2,0 -49.3,-22.1 -49.3,-49.3 0,-27.2 22.1,-49.3 49.3,-49.3 27.2,0 49.3,22.1 49.3,49.3 0,27.2 -22.1,49.3 -49.3,49.3 z m 0,-97.6 c -26.6,0 -48.2,21.6 -48.2,48.2 0,26.6 21.6,48.2 48.2,48.2 26.6,0 48.2,-21.6 48.2,-48.2 C 354.7,36 333,14.3 306.4,14.3 Z"
   id="path2945" />
		<g
   id="g2963">
			<path
   class="st20"
   d="m 293.3,65.8 c 1.2,-1.1 3.8,-4.2 2.4,-7.9 -1.5,-3.7 -7,-9 -4.5,-15.5 2.5,-6.5 14.7,-12.2 21.2,-12.6 6.5,-0.4 13.1,3.8 15.6,16.4 2.5,12.6 -3.2,27.7 -11.9,36.7 -8.7,9 -21.2,13.3 -26,9.4 -4.8,-3.8 -4.2,-15.2 -2.9,-18 1.3,-2.8 2.2,-1.2 2.4,-5.2 0.2,-2.9 2.7,-2.4 3.7,-3.3 z"
   id="path2947" />
			<path
   class="st28"
   d="m 308.3,69.6 c 0,0 -1,-2.7 -3.2,-3.2 -2.2,-0.6 -3.8,-0.4 -4.4,-3.5 -0.6,-3.1 -3.1,-3.9 -3.1,-2.2 0,1.7 -0.7,7.7 -3.2,11 -2.5,3.2 -4.6,6.7 -3.5,9.1 1.1,2.4 4.4,0.7 6.3,-2.2 2,-3 4.6,-5.2 7.9,-5.2 3.2,0 7.6,-0.1 8.7,-6.3 1.1,-6.2 -1.3,-8.7 -4.5,-11.1 -3.2,-2.4 -7.2,2 -8.1,-5.5 -0.4,4.1 -0.6,6.7 2.7,8 3.2,1.3 7.3,6.9 5.3,13.1 -1.4,0.7 -3.9,0.6 -5.9,0.7 -2,0.1 -5.5,2.7 -6.9,5.1 -1.4,2.4 -3.8,4.1 -4.4,2.1 -0.6,-2 2,-4.6 3.5,-7 1.5,-2.4 2.4,-6.6 3.1,-7.3 0.7,-0.7 1.5,2.4 3.5,2.5 2,0 5.4,0.5 6.2,1.9 z"
   id="path2949" />
			<path
   class="st28"
   d="m 304.2,40.8 c 0,0 2.8,-0.6 3.9,1.4 1.1,2 1.7,8.8 0.4,9.6 -0.1,-0.1 -1.7,-4.4 -2.2,-6.5 -0.6,-2.1 -2.2,-2.8 -3.6,-1.8 0,-1.4 1.5,-2.7 1.5,-2.7 z"
   id="path2951" />
			<path
   class="st28"
   d="m 301.2,50.4 c 0,0 0,-0.1 -0.1,-0.2 0,-0.1 -0.1,-0.3 -0.1,-0.6 0,-0.3 -0.1,-0.6 0,-1 0,-0.4 0,-0.9 0.1,-1.4 0.1,-0.5 0.2,-1.1 0.4,-1.7 0.1,-0.3 0.2,-0.6 0.3,-0.9 0.1,-0.3 0.2,-0.7 0.4,-1 0.3,-0.6 0.6,-1.4 1.1,-2 0.5,-0.7 0.9,-1.4 1.5,-2.1 0.3,-0.3 0.6,-0.7 0.9,-1 0.4,-0.3 0.7,-0.7 1.1,-1 0.4,-0.3 0.8,-0.6 1.3,-0.8 0.5,-0.2 0.9,-0.5 1.4,-0.6 1,-0.4 2.1,-0.6 3.2,-0.6 1.1,0 2.3,0.2 3.4,0.5 1.1,0.4 2.2,1 3.2,1.7 1,0.7 1.8,1.8 2.3,2.9 1.1,2.1 1.8,4.5 2.3,6.8 0.1,0.6 0.2,1.2 0.3,1.8 l 0.1,0.9 V 51 c 0,0.6 0.1,1.2 0.1,1.8 0,0.6 0,1.2 -0.1,1.8 0,1.2 -0.2,2.3 -0.4,3.5 -0.2,1.1 -0.5,2.2 -0.7,3.3 -0.3,1.1 -0.6,2.1 -1,3.1 -0.4,1 -0.8,2 -1.2,2.9 -0.9,1.8 -1.8,3.5 -2.8,5 -0.5,0.7 -0.9,1.5 -1.4,2.1 -0.5,0.6 -1,1.2 -1.4,1.8 -0.4,0.6 -0.9,1.1 -1.2,1.6 -0.4,0.5 -0.8,0.9 -1.1,1.3 -1.4,1.5 -2.2,2.4 -2.2,2.4 0,0 0.7,-0.9 1.9,-2.6 0.3,-0.4 0.7,-0.9 1,-1.3 0.3,-0.5 0.7,-1.1 1.1,-1.7 0.4,-0.6 0.8,-1.2 1.2,-1.9 0.4,-0.7 0.8,-1.4 1.2,-2.2 0.9,-1.5 1.6,-3.2 2.5,-5 0.3,-0.9 0.7,-1.9 1.1,-2.9 0.3,-1 0.6,-2 0.9,-3 0.3,-1 0.4,-2.1 0.6,-3.2 0.1,-0.5 0.1,-1.1 0.2,-1.7 0.1,-0.6 0.1,-1.1 0.1,-1.7 0.1,-2.2 -0.1,-4.5 -0.5,-6.8 -0.4,-2.2 -1.1,-4.4 -2.1,-6.4 -0.5,-1 -1.1,-1.8 -1.9,-2.4 -0.8,-0.7 -1.7,-1.2 -2.6,-1.5 -1,-0.3 -1.9,-0.5 -2.9,-0.6 -1,0 -1.9,0.1 -2.8,0.4 -0.5,0.1 -0.9,0.4 -1.3,0.5 -0.4,0.2 -0.8,0.5 -1.2,0.7 -0.3,0.3 -0.7,0.5 -1,0.8 -0.3,0.3 -0.6,0.6 -1,0.9 -0.5,0.7 -1,1.3 -1.5,1.9 -0.5,0.6 -0.8,1.3 -1.2,1.9 -0.2,0.3 -0.3,0.6 -0.5,0.9 -0.1,0.3 -0.3,0.6 -0.4,0.9 -0.3,0.5 -0.4,1.1 -0.5,1.6 -0.1,0.5 -0.2,0.9 -0.2,1.3 0,0.4 0,0.7 -0.1,1 0,0.3 0,0.5 0,0.6 0.1,0.2 0.2,0.3 0.2,0.3 z"
   id="path2953" />
			<path
   class="st29"
   d="m 296.8,57.4 c 0,0 -6.3,-8.4 -4.5,-13.8 1.8,-5.3 8,-8.9 12.5,-10.5 -2.8,2.2 -8.8,6.3 -9.8,12.2 -1,5.9 0.5,8.5 1.8,12.1 z"
   id="path2955" />
			<path
   class="st25"
   d="m 300,53.1 c 0,0 -0.6,4.6 3.7,6.6 4.2,2 4.6,5.2 4.6,7.6 -0.6,-0.7 -2.7,-2.1 -4.8,-2.8 -2.1,-0.7 -0.3,-2.9 -2.1,-4.8 -1.8,-1.9 -2.1,-4.4 -1.4,-6.6 z"
   id="path2957" />
			<path
   class="st25"
   d="m 289.4,88.3 c 0,0 1.3,4.6 6.6,4.5 5.3,-0.1 16.9,-4.9 24.2,-16.9 -4.7,6 -22.7,21.8 -30.8,12.4 z"
   id="path2959" />
			<path
   class="st25"
   d="m 308,39.7 c 0,0 5.6,3.2 4.1,9.1 -1.5,5.9 1,5.1 3.2,8.3 2.2,3.2 2.2,10.7 4.1,7 1.8,-3.7 2.8,-14.9 0.1,-21.4 -2.6,-6.4 -9.5,-6.1 -11.5,-3 z"
   id="path2961" />
		</g>
	</g>
</g>
<g
   id="g2997"
   transform="translate(-0.07668457,-1.1825015)">
	<circle
   class="st2"
   cx="59.599998"
   cy="62"
   r="48.799999"
   id="circle2969" />
	<g
   id="g2995">
		<path
   class="st15"
   d="m 59.6,111.8 c -27.2,0 -49.3,-22.1 -49.3,-49.3 0,-27.2 22.1,-49.3 49.3,-49.3 27.2,0 49.3,22.1 49.3,49.3 0,27.2 -22.1,49.3 -49.3,49.3 z m 0,-97.5 c -26.6,0 -48.2,21.6 -48.2,48.2 0,26.6 21.6,48.2 48.2,48.2 26.6,0 48.2,-21.6 48.2,-48.2 0,-26.6 -21.6,-48.2 -48.2,-48.2 z"
   id="path2971" />
		<g
   id="g2993">
			<path
   class="st20"
   d="m 50.2,96.3 c 0,0 3.1,-7.4 1,-11.4 -2.1,-4 -7.3,-6.9 -9.6,-11.9 -2.4,-5 -3.5,-9.4 -8.9,-14.2 -2.3,-2.1 0.9,-4.6 4.4,-3.7 4.9,1.3 7.8,7.8 8.9,7.9 2.8,0.7 -1,-27.8 4.2,-28 3,-0.1 3.4,7.2 3.8,11.4 0.5,5.2 0.6,7.7 1.4,7.6 1.2,-0.2 0.9,-5.2 1,-11.2 0.1,-6 -0.1,-14.5 3,-14.5 3.9,-0.1 3.6,9.5 3.9,13.9 0.3,3.7 0.1,12 0.4,12 1.3,-0.1 1.6,-6.2 1.7,-10.9 0.1,-5.3 -0.2,-11.9 2.7,-11.9 3.2,0 3.7,7.4 3.6,11.7 -0.1,4.2 -0.5,11.1 0.2,11.7 0.7,0.6 1.6,-13.8 4.8,-13.6 3.3,0.2 2.2,9.5 1.2,16.3 -0.7,5.1 -1.3,9.4 -3.4,16.7 -2.1,7.2 -4.2,8.5 -4.7,11 -0.5,2.5 0.8,12.3 0.8,12.3 0,0 -11.1,4.6 -20.4,-1.2 z"
   id="path2973" />
			<path
   class="st22"
   d="m 54.6,57.1 c -1.8,0.7 -3.1,0.6 -4.6,0 1.7,2 3.2,1.8 4.6,0 z"
   id="path2975" />
			<path
   class="st22"
   d="m 62.6,57 c -1.8,0.7 -3.1,0.6 -4.6,0.1 1.7,2 3.2,1.7 4.6,-0.1 z"
   id="path2977" />
			<path
   class="st22"
   d="m 70.6,58 c -1.9,0.4 -3.1,0.1 -4.5,-0.8 1.3,2.3 2.8,2.3 4.5,0.8 z"
   id="path2979" />
			<path
   class="st22"
   d="m 77.2,58.7 c -1.9,0.4 -3.1,0.1 -4.5,-0.8 1.3,2.3 2.8,2.3 4.5,0.8 z"
   id="path2981" />
			<path
   class="st30"
   d="m 35.4,60.4 c -1,-0.8 -3.3,-2.5 -2.3,-3.2 1.4,-0.9 4.1,1.7 4.1,1.7 z"
   id="path2983" />
			<path
   class="st30"
   d="m 49,39 c 0.1,-0.9 0.1,-3.3 1.7,-3.2 1.4,0.1 1.6,3 1.6,3 z"
   id="path2985" />
			<path
   class="st30"
   d="m 58.2,32.5 c 0.1,-0.9 0.1,-3.3 1.7,-3.2 1.4,0.1 1.6,3 1.6,3 z"
   id="path2987" />
			<path
   class="st30"
   d="m 66.9,35.7 c 0.1,-0.9 0.1,-3.3 1.7,-3.2 1.4,0.1 1.6,3 1.6,3 z"
   id="path2989" />
			<path
   class="st30"
   d="m 75.3,44.8 c 0.2,-0.9 0.4,-3 1.8,-2.8 1.3,0.2 1.2,2.9 1.2,2.9 z"
   id="path2991" />
		</g>
	</g>
</g>
<g
   id="g3021"
   transform="translate(-0.07668457,-1.1825015)">
	<circle
   class="st31"
   cx="794.20001"
   cy="422.5"
   r="48.200001"
   id="circle2999" />
	<g
   id="g3019">
		<path
   class="st15"
   d="m 794,471.9 c -27.2,0 -49.3,-22.1 -49.3,-49.3 0,-27.2 22.1,-49.3 49.3,-49.3 27.2,0 49.3,22.1 49.3,49.3 0,27.2 -22.1,49.3 -49.3,49.3 z m 0,-97.5 c -26.6,0 -48.2,21.6 -48.2,48.2 0,26.6 21.6,48.2 48.2,48.2 26.6,0 48.2,-21.6 48.2,-48.2 0.1,-26.6 -21.6,-48.2 -48.2,-48.2 z"
   id="path3001" />
		<g
   id="g3017">
			<path
   class="st20"
   d="m 816.8,414.5 c -6.5,1.2 -19.5,16.8 -29,23.1 1.1,-12.5 -1.8,-25.8 -1.8,-28.6 8.7,-0.8 19.7,-9 19.9,-13.3 0.2,-4.3 -3.3,-11.9 -6.5,-12.3 -3.2,-0.4 -2.8,1 -4.3,1.8 -3,0 -3.9,0.2 -4.3,1.6 -2.6,0.2 -3.4,1.2 -4.9,3 -3.7,1.8 -10.1,11.6 -12.4,19.1 -2.4,7.5 -3.8,48.1 5.6,50.9 12.4,3.7 29.1,-15.6 36.8,-21.1 5.2,-14 0.9,-24.2 0.9,-24.2 z"
   id="path3003" />
			<path
   class="st22"
   d="m 786.5,438.4 c 1.2,-11.7 -1,-25.8 -1.8,-29.9 5,-0.7 10.8,-2 13.8,-6.2 3,-4.1 -6.3,-5.3 -8.5,-3.5 -0.2,0.2 0.3,2.7 -1,4.1 2.5,0.6 -0.4,4.1 -7.1,4.3 0.6,3.8 3.6,29.3 1.9,37.8 1.1,-3.4 2.9,-6.5 2.7,-6.6 z"
   id="path3005" />
			<path
   class="st20"
   d="m 807.7,392.1 c 0.4,1.2 0.8,4 -0.5,6.5 -1.6,3.1 -3.3,0.6 -3.3,0.6 0,0 -0.5,2.9 -1.6,3.7 -1.8,1.3 -2.4,-0.3 -2.4,-0.3 0,0 -0.9,2.8 -2.8,2.8 -1.9,0 -1.8,-2.2 -1.8,-2.2 0,0 -1.8,2.4 -2.8,1.2 -1,-1.2 0.1,-4.3 0.1,-4.3 0,0 -1.3,0 -2.8,-1.3 0.1,3.4 -1.2,5.5 -3.8,6.1 -3.1,-0.6 -6.1,-6.5 -5.6,-9.8 0.4,-3.3 5.4,-5.4 5.4,-5.4 0,0 1.6,-3.9 4.9,-3 0.5,-2.4 2.7,-2.1 4.3,-1.6 0.9,-2.9 4.3,-2.6 5.3,-2 3.6,2 6.2,5.8 7.4,9 z"
   id="path3007" />
			<path
   class="st32"
   d="m 796.9,405.6 c -0.6,0 -1.1,-0.2 -1.4,-0.6 -0.3,-0.3 -0.4,-0.8 -0.4,-1.1 -0.4,0.5 -1.1,1 -1.8,1.1 -0.4,0 -0.7,-0.1 -0.9,-0.4 -0.9,-1.1 -0.3,-3.4 0,-4.2 -0.4,-0.1 -1.3,-0.3 -2.2,-1 0,1.7 -0.4,3.1 -1.2,4.1 -0.1,0.1 -0.2,0.1 -0.4,0 -0.1,-0.1 -0.1,-0.2 0,-0.4 0.8,-1 1.2,-2.5 1.1,-4.3 0,-0.1 0.1,-0.2 0.1,-0.2 0.1,0 0.2,0 0.3,0 1.4,1.2 2.6,1.3 2.6,1.3 0.1,0 0.2,0 0.2,0.1 0,0.1 0.1,0.2 0,0.2 -0.3,0.8 -1,3.2 -0.2,4 0.1,0.2 0.3,0.3 0.5,0.2 0.7,0 1.6,-1 1.9,-1.4 0.1,-0.1 0.2,-0.1 0.3,-0.1 0.1,0 0.2,0.2 0.2,0.3 0,0 -0.1,0.9 0.3,1.4 0.2,0.3 0.6,0.4 1,0.4 1.7,0 2.8,-2.5 2.8,-2.6 0,-0.1 0.2,-0.2 0.3,-0.2 0.1,0 0.2,0.1 0.2,0.3 0,0 0,0.4 0.2,0.6 0.2,0.1 0.7,0.1 1.2,-0.3 2,-1 2,-3.7 2,-3.7 0,-0.1 0.1,-0.2 0.2,-0.2 0.1,0 0.2,0 0.3,0.1 0,0 0.6,0.9 1.3,0.8 0.5,0 1,-0.5 1.5,-1.4 1.2,-2.3 0.9,-5.1 0.5,-6.3 -1.1,-2.9 -3.5,-6.8 -7.2,-8.9 -0.1,-0.1 -0.2,-0.2 -0.1,-0.3 0.1,-0.1 0.2,-0.2 0.3,-0.1 3.8,2.2 6.3,6.1 7.4,9.2 0.5,1.4 0.8,4.3 -0.5,6.7 -0.6,1.1 -1.2,1.7 -1.9,1.7 -0.6,0 -1,-0.3 -1.4,-0.6 -0.1,0.9 -0.6,2.7 -2.2,3.5 -0.8,0.4 -1.4,0.5 -1.8,0.2 -0.1,-0.1 -0.2,-0.2 -0.3,-0.3 -0.3,1 -1.3,2.4 -2.8,2.4 z"
   id="path3009" />
			<path
   class="st32"
   d="m 795.4,403.5 c -0.1,0 -0.1,0 -0.2,-0.1 -0.1,-0.1 -0.1,-0.2 0,-0.4 1.2,-1.5 1.6,-3.1 1.2,-4.8 -0.5,-2.2 -2.4,-3.9 -3.8,-4.6 -0.1,-0.1 -0.2,-0.2 -0.1,-0.3 0.1,-0.1 0.2,-0.2 0.3,-0.1 1.6,0.8 3.5,2.6 4.1,5 0.4,1.8 0,3.6 -1.2,5.2 -0.2,0 -0.3,0.1 -0.3,0.1 z"
   id="path3011" />
			<path
   class="st32"
   d="m 799.9,402.9 v 0 c -0.2,-0.1 -0.3,-0.2 -0.2,-0.4 2.5,-6.2 -0.6,-9 -3.1,-11.3 l -0.2,-0.2 c -0.1,-0.1 -0.1,-0.3 0,-0.4 0.1,-0.1 0.3,-0.1 0.4,0 l 0.2,0.2 c 2.5,2.2 5.8,5.3 3.2,11.8 -0.1,0.2 -0.2,0.3 -0.3,0.3 z"
   id="path3013" />
			<path
   class="st32"
   d="m 803.9,399.5 v 0 c -0.2,0 -0.3,-0.2 -0.2,-0.3 1.9,-6.5 -3.4,-10.7 -3.5,-10.8 -0.1,-0.1 -0.1,-0.2 0,-0.4 0.1,-0.1 0.2,-0.1 0.4,0 0.1,0 5.6,4.5 3.6,11.3 0,0.1 -0.1,0.2 -0.3,0.2 z"
   id="path3015" />
		</g>
	</g>
</g>
<g
   id="g3041"
   transform="translate(-0.07668457,-1.1825015)">
	<circle
   class="st33"
   cx="183.7"
   cy="181.5"
   r="48.200001"
   id="circle3023" />
	<g
   id="g3039">
		<path
   class="st15"
   d="m 183.7,230.7 c -27.2,0 -49.3,-22.1 -49.3,-49.3 0,-27.2 22.1,-49.3 49.3,-49.3 27.2,0 49.3,22.1 49.3,49.3 0,27.2 -22.1,49.3 -49.3,49.3 z m 0,-97.5 c -26.6,0 -48.2,21.6 -48.2,48.2 0,26.6 21.6,48.2 48.2,48.2 26.6,0 48.2,-21.6 48.2,-48.2 0,-26.5 -21.6,-48.2 -48.2,-48.2 z"
   id="path3025" />
		<g
   id="g3037">
			<g
   id="g3035">
				<path
   class="st22"
   d="m 154.7,159.1 c 0,0 1.8,1.5 1.2,12.6 -0.6,11.1 -4.1,23 -1,26.9 3.3,4.2 11.4,2.9 15.1,2.3 3.6,-0.6 10.7,0.2 15.3,1.2 5.6,1.2 13.6,1.3 17,0 2.3,-0.9 2.9,-1.2 4.4,-0.5 0.8,0.4 5.9,2.1 8.2,-0.9 2.4,-3.3 0.1,-6.4 -1.6,-6.5 -2.6,0.4 -6.9,1.6 -8.7,0.9 -1.7,-0.7 -25.9,-10.1 -30.8,-15.3 -3.5,-3.7 0.9,-15.9 1.1,-20.6 -5.3,-0.1 -20.2,-0.1 -20.2,-0.1 z"
   id="path3027" />
				<path
   class="st20"
   d="m 154.7,159.1 c 0,0 1.2,2.1 0.6,13.2 -0.6,11.1 -1.6,20.8 1.9,24.3 3.5,3.5 9.7,2.7 13.3,2.3 5.4,-0.6 10.4,0.9 15,1.9 5.6,1.2 12.6,1.4 16,0.1 2.3,-0.9 4,-1.9 4.8,-1.3 0.7,0.6 4.4,2.9 7.2,0.4 2.7,-2.5 1.4,-5.8 -0.3,-5.9 -2.6,0.4 -4.5,0.9 -6.1,-0.1 -3.3,-2.2 -19.5,-3.3 -31.4,-15.7 -3.5,-3.6 0.5,-14.5 0.6,-19.1 -5.2,-0.1 -21.6,-0.1 -21.6,-0.1 z"
   id="path3029" />
				<path
   class="st34"
   d="m 207.9,194.3 c 0,0 0.6,1.3 2.8,1.1 2.2,-0.1 3,-0.5 3,-0.5 l -0.4,-0.7 c -0.1,-0.1 -1.7,-0.4 -5.4,0.1 z"
   id="path3031" />
				<path
   class="st22"
   d="m 161.3,179.5 c 0,0 -1.6,3.2 -0.3,5.2 1.3,2 1.9,4 1.7,5.3 -1.2,-1.9 -1.6,-3.5 -2.9,-4.5 -1.3,-1 -1.4,-3.8 1.5,-6 z"
   id="path3033" />
			</g>
		</g>
	</g>
</g>
<g
   id="g3087"
   transform="translate(490.03349,-362.6486)">
	<circle
   class="st2"
   cx="60.799999"
   cy="422.79999"
   r="48.299999"
   id="circle3043" />
	<g
   id="g3085">
		<path
   class="st15"
   d="m 60.8,472 c -27.2,0 -49.3,-22.1 -49.3,-49.3 0,-27.2 22.1,-49.3 49.3,-49.3 27.2,0 49.3,22.1 49.3,49.3 0,27.2 -22.1,49.3 -49.3,49.3 z m 0,-97.5 c -26.6,0 -48.2,21.6 -48.2,48.2 0,26.6 21.6,48.2 48.2,48.2 26.6,0 48.2,-21.6 48.2,-48.2 0.1,-26.5 -21.6,-48.2 -48.2,-48.2 z"
   id="path3045" />
		<g
   id="g3083">
			<g
   id="g3081">
				<g
   id="g3057">
					<path
   class="st22"
   d="m 45.9,408.7 c 0,0 -10.2,26.5 -11.9,29.9 -1.7,3.4 -4.4,6.6 -3.9,8.2 0.5,1.7 3.2,2.4 4.4,2.7 1.2,0.3 3.3,1.5 4.6,2.4 1.6,1.1 4.1,2.2 5.3,2.3 0.8,0 1.1,0 1.4,0.4 0.2,0.2 1.6,1.5 2.7,0.8 1.2,-0.7 0.9,-2 0.4,-2.2 -0.9,-0.2 -2.4,-0.4 -2.8,-0.9 -0.4,-0.5 -6.7,-6.6 -7.5,-8.9 -0.6,-1.6 13,-30.6 13.7,-32 -1.7,-0.7 -6.4,-2.7 -6.4,-2.7 z"
   id="path3047" />
					<path
   class="st20"
   d="m 45.9,408.7 c 0,0 -10.5,26.6 -12.2,30 -1.7,3.4 -3.3,6.2 -2.7,7.8 0.6,1.5 2.6,2.1 3.8,2.5 1.8,0.5 3.1,1.7 4.4,2.6 1.6,1.1 3.7,2.2 5,2.2 0.8,0 1.5,0 1.7,0.2 0.1,0.3 1,1.5 2.2,1.1 1.2,-0.4 1.2,-1.6 0.7,-1.9 -0.9,-0.2 -1.5,-0.3 -1.9,-0.9 -0.7,-1.1 -5.6,-3.7 -7.7,-9.1 -0.6,-1.6 12.7,-30.2 13.3,-31.6 -1.4,-0.7 -6.6,-2.9 -6.6,-2.9 z"
   id="path3049" />
					<path
   class="st34"
   d="m 47.2,452.6 c 0,0 0,0.5 0.7,0.7 0.7,0.3 1,0.2 1,0.2 v -0.3 c -0.1,0.1 -0.5,-0.3 -1.7,-0.6 z"
   id="path3051" />
					<path
   class="st22"
   d="m 34.7,441.7 c 0,0 -0.9,0.8 -0.8,1.6 0.1,0.8 0,1.5 -0.2,1.9 -0.1,-0.7 0,-1.3 -0.3,-1.8 -0.3,-0.5 0.1,-1.4 1.3,-1.7 z"
   id="path3053" />
					<path
   class="st22"
   d="m 43.7,415.6 c 0,0 -1,2.8 -1.6,4.3 3.3,-1.7 5.1,-1.4 5.3,2.1 1.6,-3.1 1.9,-4.7 1.9,-4.7 z"
   id="path3055" />
				</g>
				<g
   id="g3069">
					<path
   class="st22"
   d="m 63,406.4 c 0,0 11.8,30.9 13.1,34.4 1.3,3.5 1.8,7.7 3.3,8.5 1.6,0.8 3.9,-0.6 5,-1.3 1,-0.7 3.4,-1.4 4.9,-1.7 1.9,-0.4 4.4,-1.4 5.3,-2.3 0.6,-0.6 0.7,-0.8 1.3,-0.8 0.3,0 2.1,-0.1 2.4,-1.4 0.3,-1.3 -0.8,-2 -1.4,-1.8 -0.8,0.5 -1.9,1.4 -2.6,1.4 -0.6,0 -9.4,0.4 -11.6,-0.6 -1.6,-0.7 -12.9,-35.8 -13.5,-37.2 -1.6,0.7 -6.2,2.8 -6.2,2.8 z"
   id="path3059" />
					<path
   class="st20"
   d="m 63,406.4 c 0,0 11.7,31.2 13.1,34.7 1.3,3.5 2.3,6.7 3.9,7.3 1.6,0.6 3.4,-0.5 4.4,-1.1 1.6,-0.9 3.4,-1.1 4.9,-1.4 1.9,-0.4 4.1,-1.3 5,-2.1 0.6,-0.6 1,-1.1 1.3,-1 0.3,0.1 1.8,0.3 2.3,-0.8 0.5,-1.1 -0.3,-2 -0.9,-1.8 -0.8,0.5 -1.3,0.9 -1.9,0.8 -1.3,-0.2 -6.5,1.6 -11.9,-0.7 -1.6,-0.7 -12.9,-35.2 -13.5,-36.7 -1.6,0.5 -6.7,2.8 -6.7,2.8 z"
   id="path3061" />
					<path
   class="st34"
   d="m 95.3,440.8 c 0,0 0.3,0.3 1,0 0.7,-0.3 0.8,-0.6 0.8,-0.6 L 96.9,440 c 0.1,0 -0.5,0.1 -1.6,0.8 z"
   id="path3063" />
					<path
   class="st22"
   d="m 78.8,442.5 c 0,0 -0.1,1.2 0.6,1.7 0.7,0.5 1.1,1 1.3,1.4 -0.6,-0.4 -1,-0.9 -1.5,-1 -0.5,-0.2 -0.9,-1 -0.4,-2.1 z"
   id="path3065" />
					<path
   class="st22"
   d="m 67,415.6 c 0,0 1.2,2.7 1.8,4.2 1.2,-3.5 2.7,-4.6 5.3,-2.1 -1,-3.3 -1.8,-4.7 -1.8,-4.7 z"
   id="path3067" />
				</g>
				<g
   id="g3079">
					<path
   class="st35"
   d="m 46.8,390.5 c -1.3,3.6 -5.8,15.3 -8.6,21.5 5.4,7.2 12.9,6.8 14.8,6.3 3.1,-4.5 6,-14.3 6,-14.3 0,0 2.7,8.1 3.7,13.7 4.7,0.4 13.3,-4.3 15.2,-6.3 -3.7,-9.4 -9.6,-21.8 -9.6,-21.8 0,0 -11,3.6 -21.5,0.9 z"
   id="path3071" />
					<path
   class="st36"
   d="m 55.6,403.3 c 0,0 4.9,1.1 8.1,-1.4 -1.6,2 -4.4,3.5 -8.1,1.4 z"
   id="path3073" />
					<path
   class="st36"
   d="m 46.8,392.2 c 0,0 -1,3.9 -2.3,6 5.5,-3.9 20,-5.6 26.2,-2 -1.3,-3.4 -2.4,-5.4 -2.4,-5.4 z"
   id="path3075" />
					<path
   class="st37"
   d="m 46.5,390.1 c 0,0 -1,1.1 -0.6,2.3 4.2,1.5 15.4,1.8 23.4,-1 -0.3,-1.8 -1.3,-2.7 -1.3,-2.7 0,0 -8.4,3.7 -21.5,1.4 z"
   id="path3077" />
				</g>
			</g>
		</g>
	</g>
</g>
<g
   id="g3197"
   transform="translate(-0.07668457,-1.1825015)">
	<circle
   class="st2"
   cx="550.90002"
   cy="302.89999"
   r="49"
   id="circle3089" />
	<g
   id="g3195">
		<path
   class="st15"
   d="m 550.7,352.3 c -27.2,0 -49.3,-22.1 -49.3,-49.3 0,-27.2 22.1,-49.3 49.3,-49.3 27.2,0 49.3,22.1 49.3,49.3 0,27.2 -22.1,49.3 -49.3,49.3 z m 0,-97.5 c -26.6,0 -48.2,21.6 -48.2,48.2 0,26.6 21.6,48.2 48.2,48.2 26.6,0 48.2,-21.6 48.2,-48.2 0.1,-26.6 -21.6,-48.2 -48.2,-48.2 z"
   id="path3091" />
		<g
   id="g3193">
			<path
   class="st38"
   d="m 522.3,315.4 c -2.2,0.7 -5.4,-2.2 -2.7,-5.5 -4.5,1.8 -7.2,-6 -1.8,-9.6 -5.3,-3.9 -3.9,-15 4.4,-16.4 -3.3,-2.8 -0.1,-4.1 1.6,-3.5 -1.7,-5.3 4.1,-8.9 7.2,-7 0.2,-6.2 8.5,-9.7 11.5,-4.2 1,-5.7 5,-3.6 5.4,-1.9 1.7,-4.6 6.4,-3.2 8.8,-0.3 2.8,-3.1 3.6,-1.3 3.7,1.4 3.4,-5 12.9,-0.3 10.8,4.8 3.1,-1.4 4.1,1.3 2.3,2.3 4.7,-0.9 8.4,3.2 7.8,7.7 5.6,-2.3 6.8,3.5 1.5,4 5.5,1.3 4.7,4.8 1.6,3.9 3.6,2.4 6.4,11 2.4,15.4 3,3.8 -0.1,7.5 -2,6.8 4.3,5.5 -2.9,13.3 -7.9,10.2 -3.6,-0.9 -54.6,-8.1 -54.6,-8.1 z"
   id="path3093" />
			<g
   id="g3179">
				<g
   id="g3115">
					<path
   class="st20"
   d="m 520.2,302.1 c -2.4,8.3 -1.9,33 21.2,37.8 22.9,4.7 34.7,-11.5 37.4,-27.5 3.3,-19.2 -12.1,-30.4 -25.5,-31.7 -21,-2 -29.9,10.3 -33.1,21.4 z"
   id="path3095" />
					<path
   class="st22"
   d="m 520.2,302.1 c 3.2,-11.1 12.1,-23.4 33.1,-21.4 1.6,0.2 3.3,0.5 5,0.9 3.1,0.9 5.9,2.1 8.3,3.6 0,0 0.1,0 0.1,0.1 0.2,0.1 0.5,0.3 0.7,0.4 0.2,0.1 0.3,0.2 0.5,0.3 0.1,0.1 0.3,0.2 0.4,0.3 7.5,5.3 12.7,14.2 10.6,26.1 -0.2,1.4 -0.6,2.8 -0.9,4.1 -0.1,-0.1 -0.1,-0.2 -0.2,-0.3 -4.4,4 -9.4,1.5 -5.6,-3.6 -4.2,1.3 -6,-3.6 -3.9,-7.3 -1.3,1 -5.6,-0.3 -6.1,-5.2 -3.8,3 -5.7,0.6 -4.9,-2.9 -3.2,2.8 -7.4,0.7 -7.4,-2.3 -1.4,1.4 -5.3,1.4 -5.2,-1.7 0,2.7 -4.2,3.1 -6.6,0.1 0.4,2.3 -4.7,4.2 -6.1,0.9 -0.1,2.4 -1.1,5.9 -4.7,3 1.1,2.2 -1.5,3.9 -3.1,3.5 0,1.5 -3.4,4.4 -4.5,5.2 0,-1.4 0.2,-2.7 0.5,-3.8 z"
   id="path3097" />
					<path
   class="st39"
   d="m 533.6,320.7 c 0,2.1 -2.9,3.7 -6,3.1 -3.1,-0.7 -4.8,-3.1 -4.7,-5.5 0.1,-2.2 2.9,-4.1 6,-2 2.8,1.9 4.6,2.2 4.7,4.4 z"
   id="path3099" />
					<path
   class="st40"
   d="m 525.3,317.6 c 0,0.3 -0.3,0.5 -0.6,0.5 -0.3,0 -0.6,-0.2 -0.6,-0.5 0,-0.3 0.3,-0.5 0.6,-0.5 0.4,0 0.6,0.3 0.6,0.5 z"
   id="path3101" />
					<path
   class="st29"
   d="m 543.3,315.9 c 0,0.3 -0.3,0.5 -0.8,0.5 -0.4,0 -0.7,-0.2 -0.7,-0.5 0,-0.3 0.3,-0.5 0.8,-0.5 0.4,0 0.8,0.2 0.7,0.5 z"
   id="path3103" />
					<path
   class="st39"
   d="m 567.5,320.5 c -0.2,2.8 -2.9,4.7 -6.5,4.9 -3.5,0.1 -7.1,-2.5 -6.4,-5.2 0.6,-2.5 2.5,-1.6 6.6,-3 3.9,-1.4 6.4,0.5 6.3,3.3 z"
   id="path3105" />
					<path
   class="st40"
   d="m 565,318.4 c 0,0.3 -0.3,0.4 -0.6,0.4 -0.3,0 -0.6,-0.2 -0.6,-0.5 0,-0.3 0.3,-0.4 0.6,-0.4 0.4,0 0.6,0.3 0.6,0.5 z"
   id="path3107" />
					<path
   class="st21"
   d="m 530.5,300.3 c 3.1,-1.3 4.3,2.1 2.1,2.4 -2.3,0.3 -4.1,1.4 -4.4,1.2 -0.7,-0.3 0.6,-2.8 2.3,-3.6 z"
   id="path3109" />
					<path
   class="st21"
   d="m 561.4,301.5 c -3,-1.6 -4.4,1.7 -2.3,2.2 2.3,0.5 4,1.8 4.3,1.6 0.8,-0.3 -0.3,-2.9 -2,-3.8 z"
   id="path3111" />
					<path
   class="st22"
   d="m 579.1,311.7 c 0.8,-5.4 -0.8,-9.9 -3.7,-13.6 1.6,3.2 2.6,7.7 1.9,11.9 -2.3,15.7 -15.3,32.3 -36.2,27.4 -14.4,-3.4 -19.5,-16.1 -21,-26 0.9,10.3 4.3,22.6 21.2,27.2 20,5.5 35.5,-11.2 37.8,-26.9 z"
   id="path3113" />
				</g>
				<g
   id="g3131">
					<path
   class="st41"
   d="m 536.9,321.9 c 0,0 -0.3,12.2 8.4,12.7 8.7,0.5 6.6,-11.4 6.6,-11.4 0,0 -6.2,2 -15,-1.3 z"
   id="path3117" />
					<path
   class="st42"
   d="m 545.1,323.7 c 0.5,3 1.7,7.2 5.3,8.8 2.5,-3.3 1.5,-9.3 1.5,-9.3 0,0 -2.6,0.8 -6.8,0.5 z"
   id="path3119" />
					<path
   class="st43"
   d="m 540,332.1 c 1.2,1.4 2.9,2.4 5.2,2.5 4.3,0.2 5.9,-2.6 6.5,-5.5 -0.4,-0.5 -1.8,-1 -3.1,-0.2 -1.6,-2.2 -6.8,0.1 -8.6,3.2 z"
   id="path3121" />
					<path
   class="st44"
   d="m 550.3,329 c -0.7,-0.2 -1.5,0 -1.8,0.3 -0.3,-0.5 -0.8,-1 -2.1,-0.9 -3.2,0.2 -6.7,3.9 -2.5,5 4.2,1.3 8.9,-3.6 6.4,-4.4 z"
   id="path3123" />
					<path
   class="st45"
   d="m 543.8,330 c 0.6,-0.7 2.2,-1.4 2.7,-1 0.6,0.5 -0.7,1.4 -1.7,1.7 -0.9,0.2 -1.4,-0.2 -1,-0.7 z"
   id="path3125" />
					<path
   class="st2"
   d="m 539.5,322.8 c -0.2,1.3 0.1,2.2 1.8,2.7 1.6,0.5 4,0.7 5.6,0.5 1.9,-0.2 2.8,-1.1 2.6,-2.4 -3.3,0.3 -5.9,0.2 -10,-0.8 z"
   id="path3127" />
					<path
   class="st46"
   d="m 536.2,321.7 c 0,0 4.2,0.9 7.1,1.2 4.6,0.5 9.1,0.2 9.1,0.2 0,0 -6.6,2.2 -16.2,-1.4 z"
   id="path3129" />
				</g>
				<g
   id="g3139">
					<path
   class="st20"
   d="m 574,316.5 c 0,0 1.7,-4 5.8,-3.1 4.2,0.9 3.9,7.6 0.4,10.5 -3.5,2.9 -8.3,1.9 -8.6,-1.5 z"
   id="path3133" />
					<path
   class="st22"
   d="m 579.3,314.1 c -1,-0.2 -1.9,-0.1 -2.6,0.1 0.6,-0.2 1.2,-0.2 1.9,0 3.9,1 3,5.7 0.9,8 -2.9,3.1 -6.7,2.5 -8,-0.1 0.3,3.2 4.8,4.1 8.1,1.4 3.3,-2.8 3.7,-8.6 -0.3,-9.4 z"
   id="path3135" />
					<path
   class="st47"
   d="m 578.8,315.8 c -2.4,-0.9 -5.2,3.9 -2.3,7.1 -0.8,-3.8 0.7,-4.9 2.2,-2.9 0.2,-1.2 -0.3,-2 -1.8,-2.1 0.3,-1.6 1.9,-2.1 1.9,-2.1 z"
   id="path3137" />
				</g>
				<path
   class="st32"
   d="m 542.8,319.1 c 0,0 0.1,0 0,0 0.1,-0.2 0.1,-0.3 0,-0.3 -1.5,-0.5 -1.6,-1.6 -1.5,-2.1 0,-0.9 0.6,-1.7 1.3,-1.8 0.7,-0.2 1.5,0.3 2.2,1.5 0,0.1 0.1,0.1 0.2,0.1 0.1,0 0.1,-0.1 0.1,-0.2 -1,-1.7 -2,-1.7 -2.5,-1.6 -0.8,0.2 -1.5,1.1 -1.5,2.1 -0.1,1.1 0.6,2 1.7,2.4 -0.1,0 0,0 0,-0.1 z"
   id="path3141" />
				<g
   id="g3159">
					<path
   class="st22"
   d="m 553.1,307.9 c -2,2.5 -1.7,6 0.7,7.8 2.3,1.9 5.8,1.4 7.8,-1.1 2,-2.5 1.7,-6 -0.7,-7.8 -2.4,-1.9 -5.8,-1.4 -7.8,1.1 z"
   id="path3143" />
					<path
   class="st22"
   d="m 560.3,314.3 c 1.8,0.2 2.2,1 0.9,1.8 -1.3,0.8 -3.8,1.3 -5.5,1.1 -1.8,-0.2 -2.2,-1 -0.9,-1.8 1.3,-0.8 3.7,-1.3 5.5,-1.1 z"
   id="path3145" />
					<path
   class="st2"
   d="m 552.9,307.7 c -1.9,2.4 -1.6,5.8 0.6,7.6 2.3,1.8 5.7,1.3 7.6,-1.1 1.9,-2.4 1.6,-5.8 -0.6,-7.6 -2.3,-1.8 -5.7,-1.3 -7.6,1.1 z"
   id="path3147" />
					<path
   class="st48"
   d="m 561.4,309.1 c 0.3,1.4 0,3 -1,4.2 -1.7,2.1 -4.7,2.6 -6.7,1 -0.6,-0.4 -1,-1 -1.3,-1.6 0.2,1 0.7,1.9 1.6,2.5 2,1.6 5,1.2 6.7,-1 1.2,-1.6 1.4,-3.5 0.7,-5.1 z"
   id="path3149" />
					<path
   class="st18"
   d="m 554.7,311.6 c -0.1,1.7 1.1,3.1 2.7,3.1 1.6,0.1 2.9,-1.2 3,-2.9 0.1,-1.7 -1.1,-3.1 -2.7,-3.1 -1.6,-0.1 -2.9,1.2 -3,2.9 z"
   id="path3151" />
					<path
   class="st49"
   d="m 555.8,311.7 c 0,1 0.7,1.9 1.7,1.9 1,0 1.8,-0.8 1.8,-1.8 0,-1 -0.7,-1.9 -1.7,-1.9 -0.9,0 -1.7,0.8 -1.8,1.8 z"
   id="path3153" />
					<path
   class="st2"
   d="m 555.8,310.6 c 0,0.4 0.3,0.8 0.7,0.8 0.4,0 0.7,-0.3 0.8,-0.7 0,-0.4 -0.3,-0.8 -0.7,-0.8 -0.4,0 -0.8,0.3 -0.8,0.7 z"
   id="path3155" />
					<path
   class="st2"
   d="m 558.2,313.2 c 0,0.3 0.2,0.5 0.4,0.5 0.2,0 0.4,-0.2 0.5,-0.4 0,-0.3 -0.2,-0.5 -0.4,-0.5 -0.3,-0.1 -0.5,0.1 -0.5,0.4 z"
   id="path3157" />
				</g>
				<g
   id="g3177">
					<path
   class="st22"
   d="m 537.6,308.5 c 1,2.8 -0.4,5.9 -3,6.9 -2.7,0.9 -5.7,-0.6 -6.7,-3.4 -1,-2.8 0.4,-5.9 3,-6.9 2.7,-1 5.7,0.5 6.7,3.4 z"
   id="path3161" />
					<path
   class="st22"
   d="m 535.9,313.7 c 1.7,0.2 2.1,1 0.8,1.7 -1.2,0.8 -3.6,1.2 -5.3,1 -1.7,-0.2 -2.1,-1 -0.8,-1.7 1.2,-0.8 3.6,-1.2 5.3,-1 z"
   id="path3163" />
					<path
   class="st2"
   d="m 537.1,308.6 c 1,2.8 -0.4,5.8 -3,6.8 -2.7,0.9 -5.6,-0.6 -6.6,-3.4 -1,-2.8 0.4,-5.8 3,-6.8 2.6,-0.9 5.6,0.6 6.6,3.4 z"
   id="path3165" />
					<path
   class="st48"
   d="m 536.5,309.1 c -0.2,-0.6 -0.5,-1 -0.8,-1.5 0.2,0.3 0.3,0.5 0.4,0.9 0.9,2.5 -0.3,5.1 -2.6,6 -1.4,0.5 -2.9,0.2 -4,-0.6 1.2,1.2 2.9,1.7 4.5,1.1 2.2,-0.9 3.4,-3.5 2.5,-5.9 z"
   id="path3167" />
					<path
   class="st18"
   d="m 535.9,310.9 c -0.1,1.6 -1.4,2.9 -2.9,2.8 -1.5,-0.1 -2.7,-1.4 -2.6,-3 0.1,-1.6 1.4,-2.9 2.9,-2.8 1.5,0 2.7,1.4 2.6,3 z"
   id="path3169" />
					<path
   class="st49"
   d="m 534.8,311 c 0,1 -0.8,1.7 -1.7,1.7 -0.9,0 -1.6,-0.9 -1.6,-1.8 0,-1 0.8,-1.7 1.7,-1.7 0.9,0 1.7,0.8 1.6,1.8 z"
   id="path3171" />
					<path
   class="st2"
   d="m 533,309.8 c 0,0.4 -0.3,0.7 -0.7,0.7 -0.4,0 -0.7,-0.4 -0.7,-0.8 0,-0.4 0.3,-0.7 0.7,-0.7 0.4,0.1 0.7,0.4 0.7,0.8 z"
   id="path3173" />
					<path
   class="st2"
   d="m 534.7,312.1 c 0,0.2 -0.2,0.4 -0.4,0.4 -0.2,0 -0.4,-0.2 -0.4,-0.5 0,-0.2 0.2,-0.4 0.4,-0.4 0.3,0 0.5,0.2 0.4,0.5 z"
   id="path3175" />
				</g>
			</g>
			<path
   class="st38"
   d="m 519.2,303.6 c 0,1.5 4.1,-1.2 4.1,-3.8 1.6,0.5 4.2,-2.1 3.1,-4.3 3.7,2.9 3.7,-1.6 5.8,-3.4 1.4,3.2 7.5,1.3 7.1,-1 2.4,3 6.6,2.6 6.6,-0.1 -0.1,3.1 3.7,3.1 5.2,1.7 0,3 4.2,5.1 7.4,2.3 -0.8,3.5 1.1,6 4.9,2.9 0.5,4.9 4.8,6.2 6.1,5.2 -2.1,3.6 -0.3,8.6 3.9,7.3 -3.8,5.1 0.8,6.9 5.2,2.9 1.8,1.5 4.7,0.5 5.3,-2.2 0.7,-2.7 -3.5,-32.7 -34.8,-33.2 -22.9,-0.6 -29.7,18.6 -29.9,25.7 z"
   id="path3181" />
			<path
   class="st50"
   d="m 526.5,282.9 c -6.3,-1.9 11.4,-15.4 20.4,-9.6 -7.1,0 -15,11.2 -20.4,9.6 z"
   id="path3183" />
			<path
   class="st50"
   d="m 549.3,272.9 c 9.6,-7.1 25.9,1.9 29.6,10.6 3.7,8.7 -1,6.6 -5,1.7 -3,-3.7 -14.2,-17 -24.6,-12.3 z"
   id="path3185" />
			<path
   class="st50"
   d="m 549.5,273.9 c 8.2,-1.5 21.5,9 15.1,15.1 -4.5,4.2 -10.8,-2.6 -10.5,-7.9 0.3,-5.9 -4.6,-7.2 -4.6,-7.2 z"
   id="path3187" />
			<path
   class="st51"
   d="m 582.3,291.3 c 2,2.8 6.8,12.2 -0.7,13 1.9,2.4 -5.1,6.6 -5.6,-0.5 -1.9,2.5 -5.2,1.5 -4.9,-3.4 -2.1,3.2 -3.1,7.6 2.5,7.1 -1.5,2.7 1.2,6.4 4.2,3.7 2,1.7 2.5,1.2 3.1,-0.2 2.7,3 3.7,6.7 1.2,10.4 2.5,-1.9 3.1,-9.1 0.6,-11.5 4.5,2.1 4.8,0.3 2,-2.9 7.6,-8.3 -2.4,-15.7 -2.4,-15.7 z"
   id="path3189" />
			<path
   class="st51"
   d="m 521.3,285 c 0,0 -9.5,6 -2.1,14.2 -2,2.8 -5.3,7.9 -0.2,9.7 -1.1,-5 0.7,-6.9 0.7,-6.9 0,0 3.7,-2.2 2.7,-4.4 1.8,-1 4.1,-2.8 2.8,-5.2 -1.9,3.1 -4,2.9 -3.5,-0.2 -4.1,5.9 -5.6,-1.9 -0.4,-7.2 z"
   id="path3191" />
		</g>
	</g>
</g>
<g
   id="g3221"
   transform="translate(-0.07668457,-1.1825015)">
	<g
   id="g3203">
		<circle
   class="st2"
   cx="305.39999"
   cy="422.5"
   r="48.799999"
   id="circle3199" />
		<path
   class="st15"
   d="m 305.4,471.2 c -26.9,0 -48.8,-21.9 -48.8,-48.8 0,-26.9 21.9,-48.8 48.8,-48.8 26.9,0 48.8,21.9 48.8,48.8 -0.1,27 -21.9,48.8 -48.8,48.8 z m 0,-96.5 c -26.3,0 -47.7,21.4 -47.7,47.7 0,26.3 21.4,47.7 47.7,47.7 26.3,0 47.7,-21.4 47.7,-47.7 0,-26.3 -21.4,-47.7 -47.7,-47.7 z"
   id="path3201" />
	</g>
	<g
   id="g3219">
		<path
   class="st41"
   d="m 281.8,410.9 c 0,0 -0.9,36.4 24.9,37.8 25.8,1.4 19.7,-34.1 19.7,-34.1 0,0 -18.4,6.2 -44.6,-3.7 z"
   id="path3205" />
		<path
   class="st42"
   d="m 306.1,416.3 c 1.4,8.9 5.2,21.3 15.8,26.1 7.5,-9.9 4.4,-27.8 4.4,-27.8 0,0 -7.6,2.6 -20.2,1.7 z"
   id="path3207" />
		<path
   class="st43"
   d="m 291,441.3 c 3.6,4.1 8.6,7.1 15.6,7.4 12.8,0.7 17.7,-7.6 19.5,-16.2 -1.1,-1.6 -5.3,-3 -9.2,-0.6 -5,-6.6 -20.3,0.3 -25.9,9.4 z"
   id="path3209" />
		<path
   class="st44"
   d="m 321.7,432.2 c -2,-0.6 -4.4,0.1 -5.4,0.9 -1,-1.4 -2.5,-2.9 -6.3,-2.6 -9.4,0.6 -19.9,11.7 -7.4,15 12.6,3.4 26.5,-11.1 19.1,-13.3 z"
   id="path3211" />
		<path
   class="st45"
   d="m 302.3,435 c 1.8,-2.2 6.6,-4.1 8.1,-2.9 1.8,1.3 -2.2,4.3 -5,5 -2.8,0.7 -4.2,-0.7 -3.1,-2.1 z"
   id="path3213" />
		<path
   class="st2"
   d="m 289.6,413.5 c -0.6,3.9 0.3,6.7 5.5,8.2 4.9,1.4 11.9,2.1 16.6,1.6 5.7,-0.6 8.3,-3.3 7.6,-7.2 -9.7,0.8 -17.6,0.5 -29.7,-2.6 z"
   id="path3215" />
		<path
   class="st46"
   d="m 279.8,410.4 c 0,0 12.4,2.6 21.3,3.6 13.8,1.5 27.1,0.5 27.1,0.5 0,0 -19.9,6.5 -48.4,-4.1 z"
   id="path3217" />
	</g>
</g>
</svg>
