<?xml version="1.0" encoding="UTF-8" standalone="no"?>
<!-- Created with Inkscape (http://www.inkscape.org/) -->

<svg
   width="32.463898mm"
   height="32.463898mm"
   viewBox="0 0 32.463898 32.463898"
   version="1.1"
   id="svg2577"
   inkscape:version="1.2.2 (732a01da63, 2022-12-09)"
   sodipodi:docname="body_girl_sel.svg"
   xmlns:inkscape="http://www.inkscape.org/namespaces/inkscape"
   xmlns:sodipodi="http://sodipodi.sourceforge.net/DTD/sodipodi-0.dtd"
   xmlns="http://www.w3.org/2000/svg"
   xmlns:svg="http://www.w3.org/2000/svg">
  <sodipodi:namedview
     id="namedview2579"
     pagecolor="#ffffff"
     bordercolor="#000000"
     borderopacity="0.25"
     inkscape:showpageshadow="2"
     inkscape:pageopacity="0.0"
     inkscape:pagecheckerboard="0"
     inkscape:deskcolor="#d1d1d1"
     inkscape:document-units="mm"
     showgrid="false"
     inkscape:zoom="0.46769781"
     inkscape:cx="-888.39415"
     inkscape:cy="209.53701"
     inkscape:window-width="1366"
     inkscape:window-height="705"
     inkscape:window-x="-8"
     inkscape:window-y="-8"
     inkscape:window-maximized="1"
     inkscape:current-layer="layer1" />
  <defs
     id="defs2574" />
  <g
     inkscape:label="Στρώση 1"
     inkscape:groupmode="layer"
     id="layer1"
     transform="translate(-340.73376,-93.516618)">
    <g
       id="g136"
       transform="matrix(0.21385968,0,0,0.21385968,341.09732,109.79134)">
	<g
   id="g134">
		<g
   id="use132">
			<g
   id="Symbol_4_0_Layer0_0_FILL_00000091017035848212406670000014345063686291619502_">
				<path
   id="path2_00000072993743194985466790000010583979596603331516_"
   class="st0"
   d="m 150,-76 c -0.1,-0.1 -0.2,-0.1 -0.4,-0.1 H -1.3 c -0.1,0 -0.3,0.1 -0.3,0.1 -0.1,0.1 -0.1,0.2 -0.1,0.4 V 75.2 c 0,0.1 0.1,0.3 0.1,0.4 0.1,0.1 0.2,0.1 0.3,0.1 h 150.9 c 0.1,0 0.3,-0.1 0.4,-0.1 0.1,-0.1 0.1,-0.2 0.1,-0.4 V -75.7 c 0,-0.1 0,-0.2 -0.1,-0.3 M -0.8,-75.2 H 149.1 V 74.7 H -0.8 Z"
   style="fill:#444444" />

				<path
   id="path4_00000055699972803546447230000012722936884186736830_"
   class="st1"
   d="M 149.1,-75.2 H -0.8 V 74.7 H 149.1 V -75.2 m -0.7,0.6 v 0.2 l 0.2,-0.2 V 74 H 0.2 0 V -74.6 Z"
   style="fill:#f8e8ce" />

				<path
   id="path6_00000061450129643549349280000006611041753507255483_"
   class="st2"
   d="m 141.9,-67.9 6.4,-6.5 v -0.2 H 0 V 74 H 0.2 L 6.7,67.6 V -67.9 Z"
   style="fill:#ffffff" />

				<path
   id="path8_00000058561351830711363160000013209939200969587359_"
   class="st3"
   d="m 141.9,-67.9 v 0 L 141.8,67.2 H 7.1 L 6.7,67.5 0.2,74 H 148.5 V -74.6 l -0.2,0.2 z"
   style="fill:#aaaaaa" />

				<path
   id="path10_00000154397802831285786620000012698042020909465476_"
   class="st7"
   d="m 141.8,-67.8 v 0 L 6.7,-67.9 V 67.5 l 0.4,-0.3 h 134.7 z"
   style="fill:#9e6171" />

			</g>

		</g>

	</g>

</g>
    <g
       id="g2413"
       transform="matrix(0.26458333,0,0,0.26458333,146.57566,93.188739)">
	<circle
   class="st2"
   cx="794"
   cy="62.099998"
   r="48.299999"
   id="circle2371"
   style="fill:#ffffff" />

	<g
   id="g2411">
		<path
   class="st16"
   d="m 794,111.3 c -27.2,0 -49.3,-22.1 -49.3,-49.3 0,-27.2 22.1,-49.3 49.3,-49.3 27.2,0 49.3,22.1 49.3,49.3 0,27.2 -22.1,49.3 -49.3,49.3 z m 0,-97.5 c -26.6,0 -48.2,21.6 -48.2,48.2 0,26.6 21.6,48.2 48.2,48.2 26.6,0 48.2,-21.6 48.2,-48.2 C 842.3,35.5 820.6,13.8 794,13.8 Z"
   id="path2373"
   style="fill:#7b2c27" />

		<g
   id="g2409">
			<g
   id="g2407">
				<g
   id="g2385">
					<path
   class="st24"
   d="m 779.1,48 c 0,0 -10.2,26.5 -11.9,29.9 -1.7,3.4 -4.4,6.6 -3.9,8.2 0.5,1.7 3.2,2.4 4.4,2.7 1.2,0.3 3.3,1.5 4.6,2.4 1.6,1.1 4.1,2.2 5.3,2.3 0.8,0 1.1,0 1.4,0.4 0.2,0.2 1.6,1.5 2.7,0.8 1.2,-0.7 0.9,-2 0.4,-2.2 -0.9,-0.2 -2.4,-0.4 -2.8,-0.9 -0.4,-0.5 -6.7,-6.6 -7.5,-8.9 -0.6,-1.6 13,-30.6 13.7,-32 C 783.8,50 779.1,48 779.1,48 Z"
   id="path2375"
   style="fill:#eaad85" />

					<path
   class="st21"
   d="m 779.1,48 c 0,0 -10.5,26.6 -12.2,30 -1.7,3.4 -3.3,6.2 -2.7,7.8 0.6,1.5 2.6,2.1 3.8,2.5 1.8,0.5 3.1,1.7 4.4,2.6 1.6,1.1 3.7,2.2 5,2.2 0.8,0 1.5,0 1.7,0.2 0.1,0.3 1,1.5 2.2,1.1 1.2,-0.4 1.2,-1.6 0.7,-1.9 -0.9,-0.2 -1.5,-0.3 -1.9,-0.9 -0.7,-1.1 -5.6,-3.7 -7.7,-9.1 -0.6,-1.6 12.7,-30.2 13.3,-31.6 -1.4,-0.7 -6.6,-2.9 -6.6,-2.9 z"
   id="path2377"
   style="fill:#fbc6a4" />

					<path
   class="st44"
   d="m 780.4,91.9 c 0,0 0,0.5 0.7,0.7 0.7,0.3 1,0.2 1,0.2 v -0.3 c -0.1,0.1 -0.5,-0.3 -1.7,-0.6 z"
   id="path2379"
   style="fill:#fde2cf" />

					<path
   class="st24"
   d="m 767.9,81 c 0,0 -0.9,0.8 -0.8,1.6 0.1,0.8 0,1.5 -0.2,1.9 -0.1,-0.7 0,-1.3 -0.3,-1.8 -0.3,-0.5 0.1,-1.4 1.3,-1.7 z"
   id="path2381"
   style="fill:#eaad85" />

					<path
   class="st24"
   d="m 776.9,54.9 c 0,0 -1,2.8 -1.6,4.3 3.3,-1.7 5.1,-1.4 5.3,2.1 1.6,-3.1 1.9,-4.7 1.9,-4.7 z"
   id="path2383"
   style="fill:#eaad85" />

				</g>

				<g
   id="g2397">
					<path
   class="st24"
   d="m 796.2,45.7 c 0,0 11.8,30.9 13.1,34.4 1.3,3.5 1.8,7.7 3.3,8.5 1.6,0.8 3.9,-0.6 5,-1.3 1,-0.7 3.4,-1.4 4.9,-1.7 1.9,-0.4 4.4,-1.4 5.3,-2.3 0.6,-0.6 0.7,-0.8 1.3,-0.8 0.3,0 2.1,-0.1 2.4,-1.4 0.3,-1.3 -0.8,-2 -1.4,-1.8 -0.8,0.5 -1.9,1.4 -2.6,1.4 -0.6,0 -9.4,0.4 -11.6,-0.6 -1.6,-0.7 -12.9,-35.8 -13.5,-37.2 -1.6,0.7 -6.2,2.8 -6.2,2.8 z"
   id="path2387"
   style="fill:#eaad85" />

					<path
   class="st21"
   d="m 796.2,45.7 c 0,0 11.7,31.2 13.1,34.7 1.3,3.5 2.3,6.7 3.9,7.3 1.6,0.6 3.4,-0.5 4.4,-1.1 1.6,-0.9 3.4,-1.1 4.9,-1.4 1.9,-0.4 4.1,-1.3 5,-2.1 0.6,-0.6 1,-1.1 1.3,-1 0.3,0.1 1.8,0.3 2.3,-0.8 0.5,-1.1 -0.3,-2 -0.9,-1.8 -0.8,0.5 -1.3,0.9 -1.9,0.8 -1.3,-0.2 -6.5,1.6 -11.9,-0.7 -1.6,-0.7 -12.9,-35.2 -13.5,-36.7 -1.6,0.5 -6.7,2.8 -6.7,2.8 z"
   id="path2389"
   style="fill:#fbc6a4" />

					<path
   class="st44"
   d="m 828.5,80.1 c 0,0 0.3,0.3 1,0 0.7,-0.3 0.8,-0.6 0.8,-0.6 l -0.2,-0.2 c 0.1,0 -0.5,0.1 -1.6,0.8 z"
   id="path2391"
   style="fill:#fde2cf" />

					<path
   class="st24"
   d="m 812,81.8 c 0,0 -0.1,1.2 0.6,1.7 0.7,0.5 1.1,1 1.3,1.4 -0.6,-0.4 -1,-0.9 -1.5,-1 -0.5,-0.2 -0.9,-1 -0.4,-2.1 z"
   id="path2393"
   style="fill:#eaad85" />

					<path
   class="st24"
   d="m 800.2,54.9 c 0,0 1.2,2.7 1.8,4.2 1.2,-3.5 2.7,-4.6 5.3,-2.1 -1,-3.3 -1.8,-4.7 -1.8,-4.7 z"
   id="path2395"
   style="fill:#eaad85" />

				</g>

				<g
   id="g2405">
					<path
   class="st58"
   d="m 792.6,57.8 c 14.7,-0.8 16.6,-5.1 18.5,-7.1 -3.7,-9.4 -9.6,-21.8 -9.6,-21.8 0,0 -11,3.6 -21.5,0.9 -1.3,3.6 -5.8,15.3 -8.6,21.5 5.4,7.2 14.3,6.8 16.1,6.8"
   id="path2399"
   style="fill:#e16faa" />

					<path
   class="st59"
   d="m 780,31.5 c 0,0 -1,3.9 -2.3,6 5.5,-3.9 20,-5.6 26.2,-2 -1.3,-3.4 -2.4,-5.4 -2.4,-5.4 z"
   id="path2401"
   style="fill:#ca5a94" />

					<path
   class="st47"
   d="m 779.7,29.4 c 0,0 -1,1.1 -0.6,2.3 4.2,1.5 15.4,1.8 23.4,-1 -0.3,-1.8 -1.3,-2.7 -1.3,-2.7 0,0 -8.4,3.7 -21.5,1.4 z"
   id="path2403"
   style="fill:#439cd6" />

				</g>

			</g>

		</g>

	</g>

</g>
  </g>
</svg>
