<?xml version="1.0" encoding="UTF-8" standalone="no"?>
<!-- Created with Inkscape (http://www.inkscape.org/) -->

<svg
   width="32.463898mm"
   height="32.463898mm"
   viewBox="0 0 32.463898 32.463898"
   version="1.1"
   id="svg1272"
   inkscape:version="1.2.2 (732a01da63, 2022-12-09)"
   sodipodi:docname="body_boy_sel.svg"
   xmlns:inkscape="http://www.inkscape.org/namespaces/inkscape"
   xmlns:sodipodi="http://sodipodi.sourceforge.net/DTD/sodipodi-0.dtd"
   xmlns="http://www.w3.org/2000/svg"
   xmlns:svg="http://www.w3.org/2000/svg">
  <sodipodi:namedview
     id="namedview1274"
     pagecolor="#ffffff"
     bordercolor="#000000"
     borderopacity="0.25"
     inkscape:showpageshadow="2"
     inkscape:pageopacity="0.0"
     inkscape:pagecheckerboard="0"
     inkscape:deskcolor="#d1d1d1"
     inkscape:document-units="mm"
     showgrid="false"
     inkscape:zoom="0.46769781"
     inkscape:cx="-283.30259"
     inkscape:cy="-74.834646"
     inkscape:window-width="1366"
     inkscape:window-height="705"
     inkscape:window-x="-8"
     inkscape:window-y="-8"
     inkscape:window-maximized="1"
     inkscape:current-layer="layer1" />
  <defs
     id="defs1269" />
  <g
     inkscape:label="Στρώση 1"
     inkscape:groupmode="layer"
     id="layer1"
     transform="translate(-180.63662,-168.75662)">
    <g
       id="g226"
       transform="matrix(0.21385968,0,0,0.21385968,180.72216,184.98857)">
	<g
   id="g224">
		<g
   id="use222">
			<g
   id="Symbol_4_0_Layer0_0_FILL_00000025407147054455560530000000470899841905722768_">
				<path
   id="path2_00000106826320460935926590000003965532090028234375_"
   class="st0"
   d="m 151.2,-75.8 c -0.1,-0.1 -0.2,-0.1 -0.4,-0.1 H 0 c -0.1,0 -0.3,0.1 -0.3,0.1 -0.1,0.1 -0.1,0.2 -0.1,0.4 V 75.4 c 0,0.1 0.1,0.3 0.1,0.4 0.1,0.1 0.2,0.1 0.3,0.1 h 150.9 c 0.1,0 0.3,-0.1 0.4,-0.1 0.1,-0.1 0.1,-0.2 0.1,-0.4 V -75.4 c 0,-0.2 -0.1,-0.3 -0.2,-0.4 M 0.5,-74.9 H 150.4 V 74.9 H 0.5 Z"
   style="fill:#444444" />

				<path
   id="path4_00000126297849903040931310000017418496824503613829_"
   class="st1"
   d="M 150.4,-74.9 H 0.5 V 74.9 H 150.4 V -74.9 m -0.8,0.5 v 0.2 l 0.2,-0.2 V 74.2 H 1.5 1.2 V -74.4 Z"
   style="fill:#f8e8ce" />

				<path
   id="path6_00000068673418780828141480000007485837589687126947_"
   class="st2"
   d="m 143.2,-67.6 6.4,-6.5 v -0.2 H 1.2 V 74.2 H 1.4 L 8,67.7 V -67.6 Z"
   style="fill:#ffffff" />

				<path
   id="path8_00000160871311356605549900000010597987761126321316_"
   class="st3"
   d="m 143.2,-67.6 v 0 L 143.1,67.5 H 8.3 L 8,67.7 1.5,74.1 H 149.8 V -74.4 l -0.2,0.2 z"
   style="fill:#aaaaaa" />

				<path
   id="path10_00000129179066641383179780000013762188123628869248_"
   class="st11"
   d="m 143.1,-67.5 v 0 L 8,-67.6 V 67.7 L 8.3,67.4 H 143 V -67.5 Z"
   style="fill:#03f2f2" />

			</g>

		</g>

	</g>

</g>
    <g
       id="g553"
       transform="matrix(0.26458333,0,0,0.26458333,180.61633,73.42701)">
	<circle
   class="st2"
   cx="60.799999"
   cy="422.79999"
   r="48.299999"
   id="circle509"
   style="fill:#ffffff" />

	<g
   id="g551">
		<path
   class="st15"
   d="m 60.8,472 c -27.2,0 -49.3,-22.1 -49.3,-49.3 0,-27.2 22.1,-49.3 49.3,-49.3 27.2,0 49.3,22.1 49.3,49.3 0,27.2 -22.1,49.3 -49.3,49.3 z m 0,-97.5 c -26.6,0 -48.2,21.6 -48.2,48.2 0,26.6 21.6,48.2 48.2,48.2 26.6,0 48.2,-21.6 48.2,-48.2 0.1,-26.5 -21.6,-48.2 -48.2,-48.2 z"
   id="path511"
   style="fill:#7b2c27" />

		<g
   id="g549">
			<g
   id="g547">
				<g
   id="g523">
					<path
   class="st22"
   d="m 45.9,408.7 c 0,0 -10.2,26.5 -11.9,29.9 -1.7,3.4 -4.4,6.6 -3.9,8.2 0.5,1.7 3.2,2.4 4.4,2.7 1.2,0.3 3.3,1.5 4.6,2.4 1.6,1.1 4.1,2.2 5.3,2.3 0.8,0 1.1,0 1.4,0.4 0.2,0.2 1.6,1.5 2.7,0.8 1.2,-0.7 0.9,-2 0.4,-2.2 -0.9,-0.2 -2.4,-0.4 -2.8,-0.9 -0.4,-0.5 -6.7,-6.6 -7.5,-8.9 -0.6,-1.6 13,-30.6 13.7,-32 -1.7,-0.7 -6.4,-2.7 -6.4,-2.7 z"
   id="path513"
   style="fill:#eaad85" />

					<path
   class="st20"
   d="m 45.9,408.7 c 0,0 -10.5,26.6 -12.2,30 -1.7,3.4 -3.3,6.2 -2.7,7.8 0.6,1.5 2.6,2.1 3.8,2.5 1.8,0.5 3.1,1.7 4.4,2.6 1.6,1.1 3.7,2.2 5,2.2 0.8,0 1.5,0 1.7,0.2 0.1,0.3 1,1.5 2.2,1.1 1.2,-0.4 1.2,-1.6 0.7,-1.9 -0.9,-0.2 -1.5,-0.3 -1.9,-0.9 -0.7,-1.1 -5.6,-3.7 -7.7,-9.1 -0.6,-1.6 12.7,-30.2 13.3,-31.6 -1.4,-0.7 -6.6,-2.9 -6.6,-2.9 z"
   id="path515"
   style="fill:#fbc6a4" />

					<path
   class="st34"
   d="m 47.2,452.6 c 0,0 0,0.5 0.7,0.7 0.7,0.3 1,0.2 1,0.2 v -0.3 c -0.1,0.1 -0.5,-0.3 -1.7,-0.6 z"
   id="path517"
   style="fill:#fde2cf" />

					<path
   class="st22"
   d="m 34.7,441.7 c 0,0 -0.9,0.8 -0.8,1.6 0.1,0.8 0,1.5 -0.2,1.9 -0.1,-0.7 0,-1.3 -0.3,-1.8 -0.3,-0.5 0.1,-1.4 1.3,-1.7 z"
   id="path519"
   style="fill:#eaad85" />

					<path
   class="st22"
   d="m 43.7,415.6 c 0,0 -1,2.8 -1.6,4.3 3.3,-1.7 5.1,-1.4 5.3,2.1 1.6,-3.1 1.9,-4.7 1.9,-4.7 z"
   id="path521"
   style="fill:#eaad85" />

				</g>

				<g
   id="g535">
					<path
   class="st22"
   d="m 63,406.4 c 0,0 11.8,30.9 13.1,34.4 1.3,3.5 1.8,7.7 3.3,8.5 1.6,0.8 3.9,-0.6 5,-1.3 1,-0.7 3.4,-1.4 4.9,-1.7 1.9,-0.4 4.4,-1.4 5.3,-2.3 0.6,-0.6 0.7,-0.8 1.3,-0.8 0.3,0 2.1,-0.1 2.4,-1.4 0.3,-1.3 -0.8,-2 -1.4,-1.8 -0.8,0.5 -1.9,1.4 -2.6,1.4 -0.6,0 -9.4,0.4 -11.6,-0.6 -1.6,-0.7 -12.9,-35.8 -13.5,-37.2 -1.6,0.7 -6.2,2.8 -6.2,2.8 z"
   id="path525"
   style="fill:#eaad85" />

					<path
   class="st20"
   d="m 63,406.4 c 0,0 11.7,31.2 13.1,34.7 1.3,3.5 2.3,6.7 3.9,7.3 1.6,0.6 3.4,-0.5 4.4,-1.1 1.6,-0.9 3.4,-1.1 4.9,-1.4 1.9,-0.4 4.1,-1.3 5,-2.1 0.6,-0.6 1,-1.1 1.3,-1 0.3,0.1 1.8,0.3 2.3,-0.8 0.5,-1.1 -0.3,-2 -0.9,-1.8 -0.8,0.5 -1.3,0.9 -1.9,0.8 -1.3,-0.2 -6.5,1.6 -11.9,-0.7 -1.6,-0.7 -12.9,-35.2 -13.5,-36.7 -1.6,0.5 -6.7,2.8 -6.7,2.8 z"
   id="path527"
   style="fill:#fbc6a4" />

					<path
   class="st34"
   d="m 95.3,440.8 c 0,0 0.3,0.3 1,0 0.7,-0.3 0.8,-0.6 0.8,-0.6 L 96.9,440 c 0.1,0 -0.5,0.1 -1.6,0.8 z"
   id="path529"
   style="fill:#fde2cf" />

					<path
   class="st22"
   d="m 78.8,442.5 c 0,0 -0.1,1.2 0.6,1.7 0.7,0.5 1.1,1 1.3,1.4 -0.6,-0.4 -1,-0.9 -1.5,-1 -0.5,-0.2 -0.9,-1 -0.4,-2.1 z"
   id="path531"
   style="fill:#eaad85" />

					<path
   class="st22"
   d="m 67,415.6 c 0,0 1.2,2.7 1.8,4.2 1.2,-3.5 2.7,-4.6 5.3,-2.1 -1,-3.3 -1.8,-4.7 -1.8,-4.7 z"
   id="path533"
   style="fill:#eaad85" />

				</g>

				<g
   id="g545">
					<path
   class="st35"
   d="m 46.8,390.5 c -1.3,3.6 -5.8,15.3 -8.6,21.5 5.4,7.2 12.9,6.8 14.8,6.3 3.1,-4.5 6,-14.3 6,-14.3 0,0 2.7,8.1 3.7,13.7 4.7,0.4 13.3,-4.3 15.2,-6.3 -3.7,-9.4 -9.6,-21.8 -9.6,-21.8 0,0 -11,3.6 -21.5,0.9 z"
   id="path537"
   style="fill:#e16faa" />

					<path
   class="st36"
   d="m 55.6,403.3 c 0,0 4.9,1.1 8.1,-1.4 -1.6,2 -4.4,3.5 -8.1,1.4 z"
   id="path539"
   style="fill:#ca5a94" />

					<path
   class="st36"
   d="m 46.8,392.2 c 0,0 -1,3.9 -2.3,6 5.5,-3.9 20,-5.6 26.2,-2 -1.3,-3.4 -2.4,-5.4 -2.4,-5.4 z"
   id="path541"
   style="fill:#ca5a94" />

					<path
   class="st37"
   d="m 46.5,390.1 c 0,0 -1,1.1 -0.6,2.3 4.2,1.5 15.4,1.8 23.4,-1 -0.3,-1.8 -1.3,-2.7 -1.3,-2.7 0,0 -8.4,3.7 -21.5,1.4 z"
   id="path543"
   style="fill:#439cd6" />

				</g>

			</g>

		</g>

	</g>

</g>
  </g>
</svg>
