<?xml version="1.0" encoding="UTF-8" standalone="no"?>
<!-- Generator: Adobe Illustrator 27.4.0, SVG Export Plug-In . SVG Version: 6.00 Build 0)  -->

<svg
   version="1.1"
   id="svg543"
   inkscape:version="1.2.2 (732a01da63, 2022-12-09)"
   sodipodi:docname="body_girl.svg"
   x="0px"
   y="0px"
   viewBox="0 0 856.44745 482.50751"
   xml:space="preserve"
   width="856.44745"
   height="482.50751"
   xmlns:inkscape="http://www.inkscape.org/namespaces/inkscape"
   xmlns:sodipodi="http://sodipodi.sourceforge.net/DTD/sodipodi-0.dtd"
   xmlns="http://www.w3.org/2000/svg"
   xmlns:svg="http://www.w3.org/2000/svg"><defs
   id="defs852" />
<style
   type="text/css"
   id="style2">
	.st0{fill:#444444;}
	.st1{fill:#F8E8CE;}
	.st2{fill:#FFFFFF;}
	.st3{fill:#AAAAAA;}
	.st4{fill:#FF6112;}
	.st5{fill:#E5E5E5;}
	.st6{fill:#DD6CD8;}
	.st7{fill:#9E6171;}
	.st8{fill:#03F2F2;}
	.st9{fill:#73E852;}
	.st10{fill:#FF5B71;}
	.st11{fill:#EDDD15;}
	.st12{fill:#1229D6;}
	.st13{fill:#00776E;}
	.st14{fill:#F20633;}
	.st15{fill:none;}
	.st16{fill:#7B2C27;}
	.st17{fill:#DDDFE0;}
	.st18{fill:#AEB0B3;}
	.st19{fill:#8B6C5A;}
	.st20{fill:#060708;}
	.st21{fill:#FBC6A4;}
	.st22{fill:#774308;}
	.st23{fill:#712914;}
	.st24{fill:#EAAD85;}
	.st25{fill:#A6583A;}
	.st26{fill:#FCD2B7;}
	.st27{fill:#FBC192;}
	.st28{fill:#FDDFCC;}
	.st29{fill:#FCD0AB;}
	.st30{fill:#803330;}
	.st31{fill:#511517;}
	.st32{fill:#F48F87;}
	.st33{fill:#58595B;stroke:#58595B;stroke-width:0.25;stroke-linecap:round;stroke-linejoin:round;stroke-miterlimit:10;}
	.st34{fill:#F0645C;}
	.st35{fill:#F2C2C9;}
	.st36{fill:#F38179;}
	.st37{fill:#F8BDBF;}
	.st38{fill:#D58D5E;}
	.st39{fill:#FCD8C1;}
	.st40{fill:#FBDEC7;}
	.st41{fill:#FDFDFF;}
	.st42{fill:#CE7754;}
	.st43{fill:#FDFFFF;}
	.st44{fill:#FDE2CF;}
	.st45{fill:#723026;}
	.st46{fill:#542518;}
	.st47{fill:#439CD6;}
	.st48{fill:#6B4432;}
	.st49{fill:#F8AF9A;}
	.st50{fill:#FBD3C4;}
	.st51{fill:#9E5141;}
	.st52{fill:#D9DBDC;}
	.st53{fill:#896F68;}
	.st54{fill:#231F20;}
	.st55{fill:#8A4A37;}
	.st56{fill:#5E2820;}
	.st57{fill:#D5956A;}
	.st58{fill:#E16FAA;}
	.st59{fill:#CA5A94;}
</style>
<sodipodi:namedview
   bordercolor="#666666"
   borderopacity="1"
   gridtolerance="10"
   guidetolerance="10"
   id="namedview545"
   inkscape:current-layer="svg543"
   inkscape:cx="-270.38983"
   inkscape:cy="352.01695"
   inkscape:pageopacity="0"
   inkscape:pageshadow="2"
   inkscape:window-height="705"
   inkscape:window-maximized="1"
   inkscape:window-width="1366"
   inkscape:window-x="-8"
   inkscape:window-y="-8"
   inkscape:zoom="0.39202658"
   objecttolerance="10"
   pagecolor="#ffffff"
   showgrid="false"
   inkscape:showpageshadow="2"
   inkscape:pagecheckerboard="0"
   inkscape:deskcolor="#d1d1d1">
	</sodipodi:namedview>
<g
   id="g100"
   transform="matrix(0.80828857,0,0,0.80828857,0.32331543,62.258417)">
	<g
   id="g98">
		<g
   id="use96">
			<g
   id="Symbol_4_0_Layer0_0_FILL">
				<path
   id="path2"
   class="st0"
   d="m 151.2,-76 c -0.1,-0.1 -0.2,-0.1 -0.4,-0.1 H 0 c -0.1,0 -0.3,0.1 -0.3,0.1 -0.1,0.1 -0.1,0.2 -0.1,0.4 V 75.2 c 0,0.1 0.1,0.3 0.1,0.4 0.1,0.1 0.2,0.1 0.3,0.1 h 150.9 c 0.1,0 0.3,-0.1 0.4,-0.1 0.1,-0.1 0.1,-0.2 0.1,-0.4 V -75.7 c 0,-0.1 -0.1,-0.2 -0.2,-0.3 M 0.5,-75.2 H 150.4 V 74.7 H 0.5 Z" />
				<path
   id="path4"
   class="st1"
   d="M 150.4,-75.2 H 0.5 V 74.7 H 150.4 V -75.2 m -0.8,0.6 v 0.2 l 0.2,-0.2 V 74 H 1.5 1.2 V -74.6 Z" />
				<path
   id="path6"
   class="st2"
   d="m 143.2,-67.9 6.4,-6.5 v -0.2 H 1.2 V 74 H 1.4 L 8,67.5 V -67.9 Z" />
				<path
   id="path8"
   class="st3"
   d="m 143.2,-67.9 v 0 L 143.1,67.2 H 8.3 L 8,67.5 1.5,74 H 149.8 V -74.6 l -0.2,0.2 z" />
				<path
   id="path10"
   class="st4"
   d="m 143.1,-67.8 v 0 L 8,-67.9 V 67.5 L 8.3,67.2 H 143 v -135 z" />
			</g>
		</g>
	</g>
</g>
<g
   id="g106"
   transform="matrix(0.80828857,0,0,0.80828857,728.87332,420.05842)">
	<g
   id="g104">
		<g
   id="use102">
			<g
   id="Symbol_4_0_Layer0_0_FILL_00000057856617367565944020000006972131852511088547_">
				<path
   id="path2_00000024004149143150599540000007527483977003721096_"
   class="st0"
   d="m 157.7,-75.8 c -0.1,-0.1 -0.2,-0.1 -0.4,-0.1 H 6.4 c -0.1,0 -0.3,0.1 -0.3,0.1 C 6,-75.7 6,-75.6 6,-75.4 V 75.4 c 0,0.1 0.1,0.3 0.1,0.4 0.1,0.1 0.2,0.1 0.3,0.1 h 150.9 c 0.1,0 0.3,-0.1 0.4,-0.1 0.1,-0.1 0.1,-0.2 0.1,-0.4 V -75.4 c 0,-0.2 0,-0.3 -0.1,-0.4 M 6.9,-74.9 H 156.8 V 74.9 H 6.9 Z" />
				<path
   id="path4_00000054974703845682232700000004367232116412736689_"
   class="st1"
   d="M 156.8,-74.9 H 6.9 V 74.9 H 156.8 V -74.9 m -0.7,0.5 v 0.2 l 0.2,-0.2 V 74.2 H 7.9 7.7 V -74.4 Z" />
				<path
   id="path6_00000048479097119265090530000013270581327287037605_"
   class="st2"
   d="m 149.6,-67.6 6.4,-6.5 v -0.2 H 7.7 V 74.2 h 0.2 l 6.5,-6.4 V -67.6 Z" />
				<path
   id="path8_00000153687430753875686090000016452881103048786836_"
   class="st3"
   d="m 149.6,-67.6 v 0 L 149.5,67.5 H 14.8 l -0.4,0.3 -6.5,6.4 H 156.2 V -74.4 l -0.2,0.2 z" />
				<path
   id="path10_00000134938418709115646240000000747861923546826646_"
   class="st5"
   d="m 149.5,-67.5 v 0 L 14.4,-67.6 V 67.7 l 0.4,-0.3 h 134.7 z" />
			</g>
		</g>
	</g>
</g>
<g
   id="g112"
   transform="matrix(0.80828857,0,0,0.80828857,245.22332,62.258417)">
	<g
   id="g110">
		<g
   id="use108">
			<g
   id="Symbol_4_0_Layer0_0_FILL_00000041284311209527837320000008059889795685489048_">
				<path
   id="path2_00000155108935303216007840000009395691468609637536_"
   class="st0"
   d="m 151.2,-76 c -0.1,-0.1 -0.2,-0.1 -0.4,-0.1 H 0 c -0.1,0 -0.3,0.1 -0.3,0.1 -0.1,0.1 -0.1,0.2 -0.1,0.4 V 75.2 c 0,0.1 0.1,0.3 0.1,0.4 0.1,0.1 0.2,0.1 0.3,0.1 h 150.9 c 0.1,0 0.3,-0.1 0.4,-0.1 0.1,-0.1 0.1,-0.2 0.1,-0.4 V -75.7 c 0,-0.1 -0.1,-0.2 -0.2,-0.3 M 0.5,-75.2 H 150.4 V 74.7 H 0.5 Z" />
				<path
   id="path4_00000015347109854312592910000005403258354177462448_"
   class="st1"
   d="M 150.4,-75.2 H 0.5 V 74.7 H 150.4 V -75.2 m -0.8,0.6 v 0.2 l 0.2,-0.2 V 74 H 1.5 1.2 V -74.6 Z" />
				<path
   id="path6_00000157997516171477126120000010360631310375759794_"
   class="st2"
   d="m 143.2,-67.9 6.4,-6.5 v -0.2 H 1.2 V 74 H 1.4 L 8,67.5 V -67.9 Z" />
				<path
   id="path8_00000036249121193093756160000006399212360395048884_"
   class="st3"
   d="m 143.2,-67.9 v 0 L 143.1,67.2 H 8.3 L 8,67.5 1.5,74 H 149.8 V -74.6 l -0.2,0.2 z" />
				<path
   id="path10_00000176021503273690717610000013989761639343461296_"
   class="st6"
   d="m 143.1,-67.8 v 0 L 8,-67.9 V 67.5 L 8.3,67.2 H 143 v -135 z" />
			</g>
		</g>
	</g>
</g>
<g
   id="g118"
   transform="matrix(0.80828857,0,0,0.80828857,367.67332,62.258417)">
	<g
   id="g116">
		<g
   id="use114">
			<g
   id="Symbol_4_0_Layer0_0_FILL_00000167395658768129741350000003842712895238764932_">
				<path
   id="path2_00000042010490735679254520000002200077004639188122_"
   class="st0"
   d="m 151.2,-76 c -0.1,-0.1 -0.2,-0.1 -0.4,-0.1 H 0 c -0.1,0 -0.3,0.1 -0.3,0.1 -0.1,0.1 -0.1,0.2 -0.1,0.4 V 75.2 c 0,0.1 0.1,0.3 0.1,0.4 0.1,0.1 0.2,0.1 0.3,0.1 h 150.9 c 0.1,0 0.3,-0.1 0.4,-0.1 0.1,-0.1 0.1,-0.2 0.1,-0.4 V -75.7 c 0,-0.1 -0.1,-0.2 -0.2,-0.3 M 0.5,-75.2 H 150.4 V 74.7 H 0.5 Z" />
				<path
   id="path4_00000003106666698228172490000006721997179963678879_"
   class="st1"
   d="M 150.4,-75.2 H 0.5 V 74.7 H 150.4 V -75.2 m -0.8,0.6 v 0.2 l 0.2,-0.2 V 74 H 1.5 1.2 V -74.6 Z" />
				<path
   id="path6_00000022519364463937133560000016206082409796882604_"
   class="st2"
   d="m 143.2,-67.9 6.4,-6.5 v -0.2 H 1.2 V 74 H 1.4 L 8,67.5 V -67.9 Z" />
				<path
   id="path8_00000145029021083507723540000006925270994396109468_"
   class="st3"
   d="m 143.2,-67.9 v 0 L 143.1,67.2 H 8.3 L 8,67.5 1.5,74 H 149.8 V -74.6 l -0.2,0.2 z" />
				<path
   id="path10_00000047777791217049611700000009134504407946484126_"
   class="st5"
   d="m 143.1,-67.8 v 0 L 8,-67.9 V 67.5 L 8.3,67.2 H 143 v -135 z" />
			</g>
		</g>
	</g>
</g>

<g
   id="g130"
   transform="matrix(0.80828857,0,0,0.80828857,612.57332,62.258417)">
	<g
   id="g128">
		<g
   id="use126">
			<g
   id="Symbol_4_0_Layer0_0_FILL_00000003811045814102726980000010203010938762674367_">
				<path
   id="path2_00000111890607537781829590000001353001895528908961_"
   class="st0"
   d="m 151.2,-76 c -0.1,-0.1 -0.2,-0.1 -0.4,-0.1 H 0 c -0.1,0 -0.3,0.1 -0.3,0.1 -0.1,0.1 -0.1,0.2 -0.1,0.4 V 75.2 c 0,0.1 0.1,0.3 0.1,0.4 0.1,0.1 0.2,0.1 0.3,0.1 h 150.9 c 0.1,0 0.3,-0.1 0.4,-0.1 0.1,-0.1 0.1,-0.2 0.1,-0.4 V -75.7 c 0,-0.1 -0.1,-0.2 -0.2,-0.3 M 0.5,-75.2 H 150.4 V 74.7 H 0.5 Z" />
				<path
   id="path4_00000056406234049904874240000013045944485960576663_"
   class="st1"
   d="M 150.4,-75.2 H 0.5 V 74.7 H 150.4 V -75.2 m -0.8,0.6 v 0.2 l 0.2,-0.2 V 74 H 1.5 1.2 V -74.6 Z" />
				<path
   id="path6_00000161608843497017924190000007142883374151338919_"
   class="st2"
   d="m 143.2,-67.9 6.4,-6.5 v -0.2 H 1.2 V 74 H 1.4 L 8,67.5 V -67.9 Z" />
				<path
   id="path8_00000150070345939787929130000005586749309766291625_"
   class="st3"
   d="m 143.2,-67.9 v 0 L 143.1,67.2 H 8.3 L 8,67.5 1.5,74 H 149.8 V -74.6 l -0.2,0.2 z" />
				<path
   id="path10_00000152252852442381324580000012666466921934896539_"
   class="st5"
   d="m 143.1,-67.8 v 0 L 8,-67.9 V 67.5 l 0.4,-0.3 h 134.7 z" />
			</g>
		</g>
	</g>
</g>
<g
   id="g136"
   transform="matrix(0.80828857,0,0,0.80828857,735.12332,62.258417)">
	<g
   id="g134">
		<g
   id="use132">
			<g
   id="Symbol_4_0_Layer0_0_FILL_00000091017035848212406670000014345063686291619502_">
				<path
   id="path2_00000072993743194985466790000010583979596603331516_"
   class="st0"
   d="m 150,-76 c -0.1,-0.1 -0.2,-0.1 -0.4,-0.1 H -1.3 c -0.1,0 -0.3,0.1 -0.3,0.1 -0.1,0.1 -0.1,0.2 -0.1,0.4 V 75.2 c 0,0.1 0.1,0.3 0.1,0.4 0.1,0.1 0.2,0.1 0.3,0.1 h 150.9 c 0.1,0 0.3,-0.1 0.4,-0.1 0.1,-0.1 0.1,-0.2 0.1,-0.4 V -75.7 c 0,-0.1 0,-0.2 -0.1,-0.3 M -0.8,-75.2 H 149.1 V 74.7 H -0.8 Z" />
				<path
   id="path4_00000055699972803546447230000012722936884186736830_"
   class="st1"
   d="M 149.1,-75.2 H -0.8 V 74.7 H 149.1 V -75.2 m -0.7,0.6 v 0.2 l 0.2,-0.2 V 74 H 0.2 0 V -74.6 Z" />
				<path
   id="path6_00000061450129643549349280000006611041753507255483_"
   class="st2"
   d="m 141.9,-67.9 6.4,-6.5 v -0.2 H 0 V 74 H 0.2 L 6.7,67.6 V -67.9 Z" />
				<path
   id="path8_00000058561351830711363160000013209939200969587359_"
   class="st3"
   d="m 141.9,-67.9 v 0 L 141.8,67.2 H 7.1 L 6.7,67.5 0.2,74 H 148.5 V -74.6 l -0.2,0.2 z" />
				<path
   id="path10_00000154397802831285786620000012698042020909465476_"
   class="st7"
   d="m 141.8,-67.8 v 0 L 6.7,-67.9 V 67.5 l 0.4,-0.3 h 134.7 z" />
			</g>
		</g>
	</g>
</g>
<g
   id="g142"
   transform="matrix(0.80828857,0,0,0.80828857,0.32331543,181.90842)">
	<g
   id="g140">
		<g
   id="use138">
			<g
   id="Symbol_4_0_Layer0_0_FILL_00000062170747477018209800000002527276927208526779_">
				<path
   id="path2_00000000209592974442518250000010463367002182371712_"
   class="st0"
   d="m 151.2,-75.8 c -0.1,-0.1 -0.2,-0.1 -0.4,-0.1 H 0 c -0.1,0 -0.3,0.1 -0.3,0.1 -0.1,0.1 -0.1,0.2 -0.1,0.4 V 75.4 c 0,0.1 0.1,0.3 0.1,0.4 0.1,0.1 0.2,0.1 0.3,0.1 h 150.9 c 0.1,0 0.3,-0.1 0.4,-0.1 0.1,-0.1 0.1,-0.2 0.1,-0.4 V -75.5 c 0,-0.1 -0.1,-0.2 -0.2,-0.3 M 0.5,-75 H 150.4 V 74.9 H 0.5 Z" />
				<path
   id="path4_00000111167897200759796450000011761640082765346480_"
   class="st1"
   d="M 150.4,-75 H 0.5 V 74.9 H 150.4 V -75 m -0.8,0.6 v 0.2 l 0.2,-0.2 V 74.2 H 1.5 1.2 V -74.4 Z" />
				<path
   id="path6_00000103961407567163123440000013763964828460691112_"
   class="st2"
   d="m 143.2,-67.7 6.4,-6.5 v -0.2 H 1.2 V 74.2 H 1.4 L 8,67.7 V -67.7 Z" />
				<path
   id="path8_00000173149725070394813510000009687076572293894278_"
   class="st3"
   d="m 143.2,-67.7 v 0 L 143.1,67.4 H 8.3 L 8,67.7 1.5,74.1 H 149.8 V -74.4 l -0.2,0.2 z" />
				<path
   id="path10_00000102529401508985403710000008088653573099773357_"
   class="st5"
   d="m 143.1,-67.6 v 0 L 8,-67.7 V 67.7 L 8.3,67.4 H 143 v -135 c 0,0 0.1,0 0.1,0 z" />
			</g>
		</g>
	</g>
</g>
<g
   id="g154"
   transform="matrix(0.80828857,0,0,0.80828857,245.22332,181.90842)">
	<g
   id="g152">
		<g
   id="use150">
			<g
   id="Symbol_4_0_Layer0_0_FILL_00000017488679195934062650000009659570928698336409_">
				<path
   id="path2_00000146459863597470641830000009439416191409941120_"
   class="st0"
   d="m 151.2,-75.8 c -0.1,-0.1 -0.2,-0.1 -0.4,-0.1 H 0 c -0.1,0 -0.3,0.1 -0.3,0.1 -0.1,0.1 -0.1,0.2 -0.1,0.4 V 75.4 c 0,0.1 0.1,0.3 0.1,0.4 0.1,0.1 0.2,0.1 0.3,0.1 h 150.9 c 0.1,0 0.3,-0.1 0.4,-0.1 0.1,-0.1 0.1,-0.2 0.1,-0.4 V -75.5 c 0,-0.1 -0.1,-0.2 -0.2,-0.3 M 0.5,-75 H 150.4 V 74.9 H 0.5 Z" />
				<path
   id="path4_00000026866958475516022370000000020738918433504908_"
   class="st1"
   d="M 150.4,-75 H 0.5 V 74.9 H 150.4 V -75 m -0.8,0.6 v 0.2 l 0.2,-0.2 V 74.2 H 1.5 1.2 V -74.4 Z" />
				<path
   id="path6_00000158017089806823539740000012288919036979721893_"
   class="st2"
   d="m 143.2,-67.7 6.4,-6.5 v -0.2 H 1.2 V 74.2 H 1.4 L 8,67.7 V -67.7 Z" />
				<path
   id="path8_00000026866943304865955490000012895560907734951044_"
   class="st3"
   d="m 143.2,-67.7 v 0 L 143.1,67.4 H 8.3 L 8,67.7 1.5,74.1 H 149.8 V -74.4 l -0.2,0.2 z" />
				<path
   id="path10_00000039118881252824875450000018344616573389853330_"
   class="st5"
   d="m 143.1,-67.6 v 0 L 8,-67.7 V 67.7 L 8.3,67.4 H 143 v -135 c 0,0 0.1,0 0.1,0 z" />
			</g>
		</g>
	</g>
</g>
<g
   id="g160"
   transform="matrix(0.80828857,0,0,0.80828857,367.67332,181.90842)">
	<g
   id="g158">
		<g
   id="use156">
			<g
   id="Symbol_4_0_Layer0_0_FILL_00000078755145510030100570000010173634966654743987_">
				<path
   id="path2_00000111185043719099079840000017375565389773749642_"
   class="st0"
   d="m 151.2,-75.8 c -0.1,-0.1 -0.2,-0.1 -0.4,-0.1 H 0 c -0.1,0 -0.3,0.1 -0.3,0.1 -0.1,0.1 -0.1,0.2 -0.1,0.4 V 75.4 c 0,0.1 0.1,0.3 0.1,0.4 0.1,0.1 0.2,0.1 0.3,0.1 h 150.9 c 0.1,0 0.3,-0.1 0.4,-0.1 0.1,-0.1 0.1,-0.2 0.1,-0.4 V -75.5 c 0,-0.1 -0.1,-0.2 -0.2,-0.3 M 0.5,-75 H 150.4 V 74.9 H 0.5 Z" />
				<path
   id="path4_00000030473317724129259180000003227667644077662641_"
   class="st1"
   d="M 150.4,-75 H 0.5 V 74.9 H 150.4 V -75 m -0.8,0.6 v 0.2 l 0.2,-0.2 V 74.2 H 1.5 1.2 V -74.4 Z" />
				<path
   id="path6_00000029757789466747643810000013650173063508748688_"
   class="st2"
   d="m 143.2,-67.7 6.4,-6.5 v -0.2 H 1.2 V 74.2 H 1.4 L 8,67.7 V -67.7 Z" />
				<path
   id="path8_00000174601280969872920320000009263182456056537984_"
   class="st3"
   d="m 143.2,-67.7 v 0 L 143.1,67.4 H 8.3 L 8,67.7 1.5,74.1 H 149.8 V -74.4 l -0.2,0.2 z" />
				<path
   id="path10_00000172417310576537766280000012639880159394053290_"
   class="st5"
   d="m 143.1,-67.6 v 0 L 8,-67.7 V 67.7 L 8.3,67.4 H 143 v -135 c 0,0 0.1,0 0.1,0 z" />
			</g>
		</g>
	</g>
</g>
<g
   id="g166"
   transform="matrix(0.80828857,0,0,0.80828857,490.12332,181.90842)">
	<g
   id="g164">
		<g
   id="use162">
			<g
   id="Symbol_4_0_Layer0_0_FILL_00000024707311206431413960000008060899986521116292_">
				<path
   id="path2_00000069380103871089443450000017988368857506093208_"
   class="st0"
   d="m 151.2,-75.8 c -0.1,-0.1 -0.2,-0.1 -0.4,-0.1 H 0 c -0.1,0 -0.3,0.1 -0.3,0.1 -0.1,0.1 -0.1,0.2 -0.1,0.4 V 75.4 c 0,0.1 0.1,0.3 0.1,0.4 0.1,0.1 0.2,0.1 0.3,0.1 h 150.9 c 0.1,0 0.3,-0.1 0.4,-0.1 0.1,-0.1 0.1,-0.2 0.1,-0.4 V -75.5 c 0,-0.1 -0.1,-0.2 -0.2,-0.3 M 0.5,-75 H 150.4 V 74.9 H 0.5 Z" />
				<path
   id="path4_00000008106495094226170510000015754463775499544497_"
   class="st1"
   d="M 150.4,-75 H 0.5 V 74.9 H 150.4 V -75 m -0.8,0.6 v 0.2 l 0.2,-0.2 V 74.2 H 1.5 1.2 V -74.4 Z" />
				<path
   id="path6_00000036236036935696876180000018161778294271511955_"
   class="st2"
   d="m 143.2,-67.7 6.4,-6.5 v -0.2 H 1.2 V 74.2 H 1.4 L 8,67.7 V -67.7 Z" />
				<path
   id="path8_00000181786656457589936310000014505996450723418503_"
   class="st3"
   d="m 143.2,-67.7 v 0 L 143.1,67.4 H 8.3 L 8,67.7 1.5,74.1 H 149.8 V -74.4 l -0.2,0.2 z" />
				<path
   id="path10_00000096763707700810175890000005016336437352907164_"
   class="st5"
   d="m 143.1,-67.6 v 0 L 8,-67.7 V 67.7 l 0.4,-0.3 h 134.7 z" />
			</g>
		</g>
	</g>
</g>
<g
   id="g148"
   transform="matrix(0.80828857,0,0,0.80828857,122.77332,181.90842)">
	<g
   id="g146">
		<g
   id="use144">
			<g
   id="Symbol_4_0_Layer0_0_FILL_00000033363552309600447430000017556475254216275622_">
				<path
   id="path2_00000058564793044152101480000001378862769272277172_"
   class="st0"
   d="M 151.1,-75.9 C 151,-76 150.9,-76 150.7,-76.1 H -0.1 c -0.1,0 -0.3,0.1 -0.3,0.2 -0.1,0.1 -0.1,0.2 -0.1,0.4 v 151 c 0,0.1 0.1,0.3 0.1,0.4 0,0.1 0.1,0.1 0.3,0.1 h 150.9 c 0.1,0 0.3,-0.1 0.4,-0.2 0.1,-0.1 0.1,-0.2 0.1,-0.4 v -151 c 0,-0.1 -0.1,-0.2 -0.2,-0.3 M 0.4,-75.1 H 150.3 V 75 H 0.4 Z" />
				<path
   id="path4_00000058585913906331310760000001114299357940534933_"
   class="st1"
   d="M 150.3,-75.1 H 0.4 V 75 H 150.3 V -75.1 m -0.8,0.6 v 0.2 l 0.2,-0.2 V 74.3 H 1.4 1.1 V -74.5 Z" />
				<path
   id="path6_00000098938623980545254090000009415952286167862679_"
   class="st2"
   d="m 143.1,-67.7 6.4,-6.6 v -0.2 H 1.1 V 74.3 H 1.3 L 7.8,67.8 V -67.7 Z" />
				<path
   id="path8_00000077326211783924193940000012935128060371397047_"
   class="st3"
   d="m 143.1,-67.7 -0.1,0.1 V 67.5 H 8.2 L 7.9,67.8 1.4,74.3 H 149.7 V -74.5 l -0.2,0.2 z" />
				<path
   id="path10_00000149382099678950156040000004061500477030073234_"
   class="st8"
   d="m 143,-67.6 0.1,-0.1 H 7.9 V 67.8 L 8.2,67.5 H 143 Z" />
			</g>
		</g>
	</g>
</g>
<g
   id="g172"
   transform="matrix(0.80828857,0,0,0.80828857,612.57332,181.90842)">
	<g
   id="g170">
		<g
   id="use168">
			<g
   id="Symbol_4_0_Layer0_0_FILL_00000119807508041754990940000014847469003942912409_">
				<path
   id="path2_00000078728286230637113320000008709132304190666398_"
   class="st0"
   d="m 151.2,-75.8 c -0.1,-0.1 -0.2,-0.1 -0.4,-0.1 H 0 c -0.1,0 -0.3,0.1 -0.3,0.1 -0.1,0.1 -0.1,0.2 -0.1,0.4 V 75.4 c 0,0.1 0.1,0.3 0.1,0.4 0.1,0.1 0.2,0.1 0.3,0.1 h 150.9 c 0.1,0 0.3,-0.1 0.4,-0.1 0.1,-0.1 0.1,-0.2 0.1,-0.4 V -75.5 c 0,-0.1 -0.1,-0.2 -0.2,-0.3 M 0.5,-75 H 150.4 V 74.9 H 0.5 Z" />
				<path
   id="path4_00000101815569689806686930000018131885094844902032_"
   class="st1"
   d="M 150.4,-75 H 0.5 V 74.9 H 150.4 V -75 m -0.8,0.6 v 0.2 l 0.2,-0.2 V 74.2 H 1.5 1.2 V -74.4 Z" />
				<path
   id="path6_00000021117990851476599990000004709108357694463134_"
   class="st2"
   d="m 143.2,-67.7 6.4,-6.5 v -0.2 H 1.2 V 74.2 H 1.4 L 8,67.7 V -67.7 Z" />
				<path
   id="path8_00000023248538889175750580000002771749508534949297_"
   class="st3"
   d="m 143.2,-67.7 v 0 L 143.1,67.4 H 8.3 L 8,67.7 1.5,74.1 H 149.8 V -74.4 l -0.2,0.2 z" />
				<path
   id="path10_00000074413613661496314030000011966847728264372912_"
   class="st9"
   d="m 143.1,-67.6 v 0 L 8,-67.7 V 67.7 l 0.4,-0.3 h 134.7 z" />
			</g>
		</g>
	</g>
</g>
<g
   id="g178"
   transform="matrix(0.80828857,0,0,0.80828857,735.12332,181.90842)">
	<g
   id="g176">
		<g
   id="use174">
			<g
   id="Symbol_4_0_Layer0_0_FILL_00000025440143557055061070000007755473767476061111_">
				<path
   id="path2_00000089563856112063284460000016014926334299872946_"
   class="st0"
   d="m 150,-75.8 c -0.1,-0.1 -0.2,-0.1 -0.4,-0.1 H -1.3 c -0.1,0 -0.3,0.1 -0.3,0.1 -0.1,0.1 -0.1,0.2 -0.1,0.4 V 75.4 c 0,0.1 0.1,0.3 0.1,0.4 0.1,0.1 0.2,0.1 0.3,0.1 h 150.9 c 0.1,0 0.3,-0.1 0.4,-0.1 0.1,-0.1 0.1,-0.2 0.1,-0.4 V -75.4 c 0,-0.2 0,-0.3 -0.1,-0.4 M -0.8,-74.9 H 149.1 V 74.9 H -0.8 Z" />
				<path
   id="path4_00000102536156034228840390000002439320304375451040_"
   class="st1"
   d="M 149.1,-74.9 H -0.8 V 74.9 H 149.1 V -74.9 m -0.7,0.5 v 0.2 l 0.2,-0.2 V 74.2 H 0.2 0 V -74.4 Z" />
				<path
   id="path6_00000175305919553886309250000008393064082716938152_"
   class="st2"
   d="m 141.9,-67.6 6.4,-6.5 v -0.2 H 0 V 74.2 H 0.2 L 6.7,67.8 V -67.6 Z" />
				<path
   id="path8_00000153694245092182785800000013017949854318354564_"
   class="st3"
   d="m 141.9,-67.6 v 0 L 141.8,67.5 H 7.1 L 6.7,67.8 0.2,74.2 H 148.5 V -74.4 l -0.2,0.2 z" />
				<path
   id="path10_00000017492461212884835460000006727953520199175566_"
   class="st5"
   d="m 141.8,-67.5 v 0 L 6.7,-67.6 V 67.7 l 0.4,-0.3 h 134.7 z" />
			</g>
		</g>
	</g>
</g>
<g
   id="g184"
   transform="matrix(0.80828857,0,0,0.80828857,0.32331543,301.50842)">
	<g
   id="g182">
		<g
   id="use180">
			<g
   id="Symbol_4_0_Layer0_0_FILL_00000140711856823094285050000013953596219598861203_">
				<path
   id="path2_00000142858157422478081590000014871120901222127250_"
   class="st0"
   d="m 151.2,-75.8 c -0.1,-0.1 -0.2,-0.1 -0.4,-0.1 H 0 c -0.1,0 -0.3,0.1 -0.3,0.1 -0.1,0.1 -0.1,0.2 -0.1,0.4 V 75.4 c 0,0.1 0.1,0.3 0.1,0.4 0.1,0.1 0.2,0.1 0.3,0.1 h 150.9 c 0.1,0 0.3,-0.1 0.4,-0.1 0.1,-0.1 0.1,-0.2 0.1,-0.4 V -75.4 c 0,-0.2 -0.1,-0.3 -0.2,-0.4 M 0.5,-74.9 H 150.4 V 74.9 H 0.5 Z" />
				<path
   id="path4_00000034049822348791093820000010980567872012097705_"
   class="st1"
   d="M 150.4,-74.9 H 0.5 V 74.9 H 150.4 V -74.9 m -0.8,0.5 v 0.2 l 0.2,-0.2 V 74.2 H 1.5 1.2 V -74.4 Z" />
				<path
   id="path6_00000005975738898163892670000000094192166252343445_"
   class="st2"
   d="m 143.2,-67.6 6.4,-6.5 v -0.2 H 1.2 V 74.2 H 1.4 L 8,67.7 V -67.6 Z" />
				<path
   id="path8_00000026871959748440744960000008491877493286785436_"
   class="st3"
   d="m 143.2,-67.6 v 0 L 143.1,67.5 H 8.3 L 8,67.7 1.5,74.1 H 149.8 V -74.4 l -0.2,0.2 z" />
				<path
   id="path10_00000030470407633806021120000000617366304771491732_"
   class="st5"
   d="m 143.1,-67.5 v 0 L 8,-67.6 V 67.7 L 8.3,67.4 H 143 V -67.5 Z" />
			</g>
		</g>
	</g>
</g>
<g
   id="g190"
   transform="matrix(0.80828857,0,0,0.80828857,122.77332,301.50842)">
	<g
   id="g188">
		<g
   id="use186">
			<g
   id="Symbol_4_0_Layer0_0_FILL_00000168118519416731920450000006746176599741086624_">
				<path
   id="path2_00000054963599454882630800000001770535081808191148_"
   class="st0"
   d="m 151.1,-75.8 c -0.1,-0.1 -0.2,-0.1 -0.4,-0.1 H -0.1 c -0.1,0 -0.3,0.1 -0.3,0.1 -0.1,0.1 -0.1,0.2 -0.1,0.4 V 75.4 c 0,0.1 0.1,0.3 0.1,0.4 0.1,0.1 0.2,0.1 0.3,0.1 h 150.9 c 0.1,0 0.3,-0.1 0.4,-0.1 0.1,-0.1 0.1,-0.2 0.1,-0.4 V -75.4 c 0,-0.2 -0.1,-0.3 -0.2,-0.4 M 0.4,-74.9 H 150.3 V 74.9 H 0.4 Z" />
				<path
   id="path4_00000066495869530957017040000015506392911535888303_"
   class="st1"
   d="M 150.3,-74.9 H 0.4 V 74.9 H 150.3 V -74.9 m -0.8,0.5 v 0.2 l 0.2,-0.2 V 74.2 H 1.4 1.1 V -74.4 Z" />
				<path
   id="path6_00000017508343009326121090000018381320373674731699_"
   class="st2"
   d="m 143.1,-67.6 6.4,-6.5 v -0.2 H 1.1 V 74.2 H 1.3 L 7.8,67.8 V -67.6 Z" />
				<path
   id="path8_00000092451216826468738160000000726201697762667189_"
   class="st3"
   d="m 143.1,-67.6 v 0 L 143,67.4 H 8.2 L 7.9,67.7 1.4,74.1 H 149.7 V -74.4 l -0.2,0.2 z" />
				<path
   id="path10_00000170280106682261889770000009658011550063682959_"
   class="st5"
   d="m 143,-67.5 v 0 L 7.9,-67.6 V 67.7 L 8.2,67.4 H 143 Z" />
			</g>
		</g>
	</g>
</g>
<g
   id="g196"
   transform="matrix(0.80828857,0,0,0.80828857,245.22332,301.50842)">
	<g
   id="g194">
		<g
   id="use192">
			<g
   id="Symbol_4_0_Layer0_0_FILL_00000034089343528881507960000016707996159042167228_">
				<path
   id="path2_00000068673903481941523780000007232502475358004132_"
   class="st0"
   d="m 151.2,-75.8 c -0.1,-0.1 -0.2,-0.1 -0.4,-0.1 H 0 c -0.1,0 -0.3,0.1 -0.3,0.1 -0.1,0.1 -0.1,0.2 -0.1,0.4 V 75.4 c 0,0.1 0.1,0.3 0.1,0.4 0.1,0.1 0.2,0.1 0.3,0.1 h 150.9 c 0.1,0 0.3,-0.1 0.4,-0.1 0.1,-0.1 0.1,-0.2 0.1,-0.4 V -75.4 c 0,-0.2 -0.1,-0.3 -0.2,-0.4 M 0.5,-74.9 H 150.4 V 74.9 H 0.5 Z" />
				<path
   id="path4_00000183216263279024222770000001361758064845223855_"
   class="st1"
   d="M 150.4,-74.9 H 0.5 V 74.9 H 150.4 V -74.9 m -0.8,0.5 v 0.2 l 0.2,-0.2 V 74.2 H 1.5 1.2 V -74.4 Z" />
				<path
   id="path6_00000066502249678284850750000004306917295981801610_"
   class="st2"
   d="m 143.2,-67.6 6.4,-6.5 v -0.2 H 1.2 V 74.2 H 1.4 L 8,67.7 V -67.6 Z" />
				<path
   id="path8_00000051349698610727253910000016684851669806800273_"
   class="st3"
   d="m 143.2,-67.6 v 0 L 143.1,67.5 H 8.3 L 8,67.7 1.5,74.1 H 149.8 V -74.4 l -0.2,0.2 z" />
				<path
   id="path10_00000047061924320312984500000008394199800180631170_"
   class="st5"
   d="m 143.1,-67.5 v 0 L 8,-67.6 V 67.7 L 8.3,67.4 H 143 V -67.5 Z" />
			</g>
		</g>
	</g>
</g>
<g
   id="g202"
   transform="matrix(0.80828857,0,0,0.80828857,367.67332,301.50842)">
	<g
   id="g200">
		<g
   id="use198">
			<g
   id="Symbol_4_0_Layer0_0_FILL_00000133503239864127640250000011250163920443120808_">
				<path
   id="path2_00000124154712822414452450000008538036914902318216_"
   class="st0"
   d="m 151.2,-75.8 c -0.1,-0.1 -0.2,-0.1 -0.4,-0.1 H 0 c -0.1,0 -0.3,0.1 -0.3,0.1 -0.1,0.1 -0.1,0.2 -0.1,0.4 V 75.4 c 0,0.1 0.1,0.3 0.1,0.4 0.1,0.1 0.2,0.1 0.3,0.1 h 150.9 c 0.1,0 0.3,-0.1 0.4,-0.1 0.1,-0.1 0.1,-0.2 0.1,-0.4 V -75.4 c 0,-0.2 -0.1,-0.3 -0.2,-0.4 M 0.5,-74.9 H 150.4 V 74.9 H 0.5 Z" />
				<path
   id="path4_00000132069887730392947830000006575668080426835355_"
   class="st1"
   d="M 150.4,-74.9 H 0.5 V 74.9 H 150.4 V -74.9 m -0.8,0.5 v 0.2 l 0.2,-0.2 V 74.2 H 1.5 1.2 V -74.4 Z" />
				<path
   id="path6_00000071534364550132265750000004975994454730426785_"
   class="st2"
   d="m 143.2,-67.6 6.4,-6.5 v -0.2 H 1.2 V 74.2 H 1.4 L 8,67.7 V -67.6 Z" />
				<path
   id="path8_00000061430185181603523010000013039290469823301022_"
   class="st3"
   d="m 143.2,-67.6 v 0 L 143.1,67.5 H 8.3 L 8,67.7 1.5,74.1 H 149.8 V -74.4 l -0.2,0.2 z" />
				<path
   id="path10_00000013162491137018077680000013193890061353456268_"
   class="st10"
   d="m 143.1,-67.5 v 0 L 8,-67.6 V 67.7 L 8.3,67.4 H 143 V -67.5 Z" />
			</g>
		</g>
	</g>
</g>
<g
   id="g208"
   transform="matrix(0.80828857,0,0,0.80828857,490.12332,301.50842)">
	<g
   id="g206">
		<g
   id="use204">
			<g
   id="Symbol_4_0_Layer0_0_FILL_00000160177816290408472680000000439426008075200952_">
				<path
   id="path2_00000072270546006141667110000002324338484441207688_"
   class="st0"
   d="m 151.2,-75.8 c -0.1,-0.1 -0.2,-0.1 -0.4,-0.1 H 0 c -0.1,0 -0.3,0.1 -0.3,0.1 -0.1,0.1 -0.1,0.2 -0.1,0.4 V 75.4 c 0,0.1 0.1,0.3 0.1,0.4 0.1,0.1 0.2,0.1 0.3,0.1 h 150.9 c 0.1,0 0.3,-0.1 0.4,-0.1 0.1,-0.1 0.1,-0.2 0.1,-0.4 V -75.4 c 0,-0.2 -0.1,-0.3 -0.2,-0.4 M 0.5,-74.9 H 150.4 V 74.9 H 0.5 Z" />
				<path
   id="path4_00000085221534252272745910000001023283114645741492_"
   class="st1"
   d="M 150.4,-74.9 H 0.5 V 74.9 H 150.4 V -74.9 m -0.8,0.5 v 0.2 l 0.2,-0.2 V 74.2 H 1.5 1.2 V -74.4 Z" />
				<path
   id="path6_00000031926952065245368180000006709736285001348030_"
   class="st2"
   d="m 143.2,-67.6 6.4,-6.5 v -0.2 H 1.2 V 74.2 H 1.4 L 8,67.7 V -67.6 Z" />
				<path
   id="path8_00000124844552374104592620000002099423773179169682_"
   class="st3"
   d="m 143.2,-67.6 v 0 L 143.1,67.5 H 8.3 L 8,67.7 1.5,74.1 H 149.8 V -74.4 l -0.2,0.2 z" />
				<path
   id="path10_00000072959872506455002510000015217409638139051933_"
   class="st5"
   d="m 143.1,-67.5 v 0 L 8,-67.6 V 67.7 l 0.4,-0.3 h 134.7 z" />
			</g>
		</g>
	</g>
</g>
<g
   id="g214"
   transform="matrix(0.80828857,0,0,0.80828857,612.57332,301.50842)">
	<g
   id="g212">
		<g
   id="use210">
			<g
   id="Symbol_4_0_Layer0_0_FILL_00000142868847218277860410000011288505960904820098_">
				<path
   id="path2_00000052797777442139639080000009149625877104494986_"
   class="st0"
   d="m 151.2,-75.8 c -0.1,-0.1 -0.2,-0.1 -0.4,-0.1 H 0 c -0.1,0 -0.3,0.1 -0.3,0.1 -0.1,0.1 -0.1,0.2 -0.1,0.4 V 75.4 c 0,0.1 0.1,0.3 0.1,0.4 0.1,0.1 0.2,0.1 0.3,0.1 h 150.9 c 0.1,0 0.3,-0.1 0.4,-0.1 0.1,-0.1 0.1,-0.2 0.1,-0.4 V -75.4 c 0,-0.2 -0.1,-0.3 -0.2,-0.4 M 0.5,-74.9 H 150.4 V 74.9 H 0.5 Z" />
				<path
   id="path4_00000158713056885321952630000000747903880597271428_"
   class="st1"
   d="M 150.4,-74.9 H 0.5 V 74.9 H 150.4 V -74.9 m -0.8,0.5 v 0.2 l 0.2,-0.2 V 74.2 H 1.5 1.2 V -74.4 Z" />
				<path
   id="path6_00000147220028667650125230000010907124864385706908_"
   class="st2"
   d="m 143.2,-67.6 6.4,-6.5 v -0.2 H 1.2 V 74.2 H 1.4 L 8,67.7 V -67.6 Z" />
				<path
   id="path8_00000172409204603684112420000009721210664746860943_"
   class="st3"
   d="m 143.2,-67.6 v 0 L 143.1,67.5 H 8.3 L 8,67.7 1.5,74.1 H 149.8 V -74.4 l -0.2,0.2 z" />
				<path
   id="path10_00000176760770045589993190000009365872722992672642_"
   class="st11"
   d="m 143.1,-67.5 v 0 L 8,-67.6 V 67.7 l 0.4,-0.3 h 134.7 z" />
			</g>
		</g>
	</g>
</g>
<g
   id="g220"
   transform="matrix(0.80828857,0,0,0.80828857,735.12332,301.50842)">
	<g
   id="g218">
		<g
   id="use216">
			<g
   id="Symbol_4_0_Layer0_0_FILL_00000041294227150112928130000002292045310008840110_">
				<path
   id="path2_00000098215582679956837460000012394515635341972125_"
   class="st0"
   d="m 150,-75.8 c -0.1,-0.1 -0.2,-0.1 -0.4,-0.1 H -1.3 c -0.1,0 -0.3,0.1 -0.3,0.1 -0.1,0.1 -0.1,0.2 -0.1,0.4 V 75.4 c 0,0.1 0.1,0.3 0.1,0.4 0.1,0.1 0.2,0.1 0.3,0.1 h 150.9 c 0.1,0 0.3,-0.1 0.4,-0.1 0.1,-0.1 0.1,-0.2 0.1,-0.4 V -75.4 c 0,-0.2 0,-0.3 -0.1,-0.4 M -0.8,-74.9 H 149.1 V 74.9 H -0.8 Z" />
				<path
   id="path4_00000121242668927724428840000003837499666418490246_"
   class="st1"
   d="M 149.1,-74.9 H -0.8 V 74.9 H 149.1 V -74.9 m -0.7,0.5 v 0.2 l 0.2,-0.2 V 74.2 H 0.2 0 V -74.4 Z" />
				<path
   id="path6_00000041259561511804798460000005930724095860632201_"
   class="st2"
   d="m 141.9,-67.6 6.4,-6.5 v -0.2 H 0 V 74.2 H 0.2 L 6.7,67.8 V -67.6 Z" />
				<path
   id="path8_00000026856311108640365330000010436197993028459960_"
   class="st3"
   d="m 141.9,-67.6 v 0 L 141.8,67.5 H 7.1 L 6.7,67.8 0.2,74.2 H 148.5 V -74.4 l -0.2,0.2 z" />
				<path
   id="path10_00000048467942921869867500000017746309516269359496_"
   class="st5"
   d="m 141.8,-67.5 v 0 L 6.7,-67.6 V 67.7 l 0.4,-0.3 h 134.7 z" />
			</g>
		</g>
	</g>
</g>
<g
   id="g226"
   transform="matrix(0.80828857,0,0,0.80828857,0.32331543,421.15842)">
	<g
   id="g224">
		<g
   id="use222">
			<g
   id="Symbol_4_0_Layer0_0_FILL_00000025407147054455560530000000470899841905722768_">
				<path
   id="path2_00000106826320460935926590000003965532090028234375_"
   class="st0"
   d="m 151.2,-75.8 c -0.1,-0.1 -0.2,-0.1 -0.4,-0.1 H 0 c -0.1,0 -0.3,0.1 -0.3,0.1 -0.1,0.1 -0.1,0.2 -0.1,0.4 V 75.4 c 0,0.1 0.1,0.3 0.1,0.4 0.1,0.1 0.2,0.1 0.3,0.1 h 150.9 c 0.1,0 0.3,-0.1 0.4,-0.1 0.1,-0.1 0.1,-0.2 0.1,-0.4 V -75.4 c 0,-0.2 -0.1,-0.3 -0.2,-0.4 M 0.5,-74.9 H 150.4 V 74.9 H 0.5 Z" />
				<path
   id="path4_00000126297849903040931310000017418496824503613829_"
   class="st1"
   d="M 150.4,-74.9 H 0.5 V 74.9 H 150.4 V -74.9 m -0.8,0.5 v 0.2 l 0.2,-0.2 V 74.2 H 1.5 1.2 V -74.4 Z" />
				<path
   id="path6_00000068673418780828141480000007485837589687126947_"
   class="st2"
   d="m 143.2,-67.6 6.4,-6.5 v -0.2 H 1.2 V 74.2 H 1.4 L 8,67.7 V -67.6 Z" />
				<path
   id="path8_00000160871311356605549900000010597987761126321316_"
   class="st3"
   d="m 143.2,-67.6 v 0 L 143.1,67.5 H 8.3 L 8,67.7 1.5,74.1 H 149.8 V -74.4 l -0.2,0.2 z" />
				<path
   id="path10_00000129179066641383179780000013762188123628869248_"
   class="st5"
   d="m 143.1,-67.5 v 0 L 8,-67.6 V 67.7 L 8.3,67.4 H 143 V -67.5 Z" />
			</g>
		</g>
	</g>
</g>
<g
   id="g232"
   transform="matrix(0.80828857,0,0,0.80828857,122.77332,421.15842)">
	<g
   id="g230">
		<g
   id="use228">
			<g
   id="Symbol_4_0_Layer0_0_FILL_00000116954203912083876640000010422110688551804823_">
				<path
   id="path2_00000067205876901617659880000013475038297354648965_"
   class="st0"
   d="m 151.1,-75.8 c -0.1,-0.1 -0.2,-0.1 -0.4,-0.1 H -0.1 c -0.1,0 -0.3,0.1 -0.3,0.1 -0.1,0.1 -0.1,0.2 -0.1,0.4 V 75.4 c 0,0.1 0.1,0.3 0.1,0.4 0.1,0.1 0.2,0.1 0.3,0.1 h 150.9 c 0.1,0 0.3,-0.1 0.4,-0.1 0.1,-0.1 0.1,-0.2 0.1,-0.4 V -75.4 c 0,-0.2 -0.1,-0.3 -0.2,-0.4 M 0.4,-74.9 H 150.3 V 74.9 H 0.4 Z" />
				<path
   id="path4_00000161619136070287682540000009682827198073111973_"
   class="st1"
   d="M 150.3,-74.9 H 0.4 V 74.9 H 150.3 V -74.9 m -0.8,0.5 v 0.2 l 0.2,-0.2 V 74.2 H 1.4 1.1 V -74.4 Z" />
				<path
   id="path6_00000092428373916082031500000011656307186502566040_"
   class="st2"
   d="m 143.1,-67.6 6.4,-6.5 v -0.2 H 1.1 V 74.2 H 1.3 L 7.8,67.8 V -67.6 Z" />
				<path
   id="path8_00000038407425058454473070000010115892973379549568_"
   class="st3"
   d="m 143.1,-67.6 v 0 L 143,67.4 H 8.2 L 7.9,67.7 1.4,74.1 H 149.7 V -74.4 l -0.2,0.2 z" />
				<path
   id="path10_00000101818337789241675190000008633489020979229598_"
   class="st5"
   d="m 143,-67.5 v 0 L 7.9,-67.6 V 67.7 L 8.2,67.4 H 143 Z" />
			</g>
		</g>
	</g>
</g>
<g
   id="g238"
   transform="matrix(0.80828857,0,0,0.80828857,245.22332,421.15842)">
	<g
   id="g236">
		<g
   id="use234">
			<g
   id="Symbol_4_0_Layer0_0_FILL_00000157291522330966101970000000119456920468825756_">
				<path
   id="path2_00000070076909875572487870000000367881128897953949_"
   class="st0"
   d="m 151.2,-75.8 c -0.1,-0.1 -0.2,-0.1 -0.4,-0.1 H 0 c -0.1,0 -0.3,0.1 -0.3,0.1 -0.1,0.1 -0.1,0.2 -0.1,0.4 V 75.4 c 0,0.1 0.1,0.3 0.1,0.4 0.1,0.1 0.2,0.1 0.3,0.1 h 150.9 c 0.1,0 0.3,-0.1 0.4,-0.1 0.1,-0.1 0.1,-0.2 0.1,-0.4 V -75.4 c 0,-0.2 -0.1,-0.3 -0.2,-0.4 M 0.5,-74.9 H 150.4 V 74.9 H 0.5 Z" />
				<path
   id="path4_00000150091816535655015560000014992568124332521130_"
   class="st1"
   d="M 150.4,-74.9 H 0.5 V 74.9 H 150.4 V -74.9 m -0.8,0.5 v 0.2 l 0.2,-0.2 V 74.2 H 1.5 1.2 V -74.4 Z" />
				<path
   id="path6_00000028305757775857245750000004606787685230774945_"
   class="st2"
   d="m 143.2,-67.6 6.4,-6.5 v -0.2 H 1.2 V 74.2 H 1.4 L 8,67.7 V -67.6 Z" />
				<path
   id="path8_00000141419324469174721020000015179088005499934909_"
   class="st3"
   d="m 143.2,-67.6 v 0 L 143.1,67.5 H 8.3 L 8,67.7 1.5,74.1 H 149.8 V -74.4 l -0.2,0.2 z" />
				<path
   id="path10_00000103252654281057211800000016910595948285829793_"
   class="st12"
   d="m 143.1,-67.5 v 0 L 8,-67.6 V 67.7 L 8.3,67.4 H 143 V -67.5 Z" />
			</g>
		</g>
	</g>
</g>
<g
   id="g244"
   transform="matrix(0.80828857,0,0,0.80828857,367.67332,421.15842)">
	<g
   id="g242">
		<g
   id="use240">
			<g
   id="Symbol_4_0_Layer0_0_FILL_00000066490057351728314050000004783118010253894813_">
				<path
   id="path2_00000159438894633729068180000015755941001396391868_"
   class="st0"
   d="m 151.2,-75.8 c -0.1,-0.1 -0.2,-0.1 -0.4,-0.1 H 0 c -0.1,0 -0.3,0.1 -0.3,0.1 -0.1,0.1 -0.1,0.2 -0.1,0.4 V 75.4 c 0,0.1 0.1,0.3 0.1,0.4 0.1,0.1 0.2,0.1 0.3,0.1 h 150.9 c 0.1,0 0.3,-0.1 0.4,-0.1 0.1,-0.1 0.1,-0.2 0.1,-0.4 V -75.4 c 0,-0.2 -0.1,-0.3 -0.2,-0.4 M 0.5,-74.9 H 150.4 V 74.9 H 0.5 Z" />
				<path
   id="path4_00000011723411955562501670000000744818105632825015_"
   class="st1"
   d="M 150.4,-74.9 H 0.5 V 74.9 H 150.4 V -74.9 m -0.8,0.5 v 0.2 l 0.2,-0.2 V 74.2 H 1.5 1.2 V -74.4 Z" />
				<path
   id="path6_00000130618051517152606890000008586712310674796178_"
   class="st2"
   d="m 143.2,-67.6 6.4,-6.5 v -0.2 H 1.2 V 74.2 H 1.4 L 8,67.7 V -67.6 Z" />
				<path
   id="path8_00000135692729031639177920000004130399926732768413_"
   class="st3"
   d="m 143.2,-67.6 v 0 L 143.1,67.5 H 8.3 L 8,67.7 1.5,74.1 H 149.8 V -74.4 l -0.2,0.2 z" />
				<path
   id="path10_00000155113685838991257640000004763351280140717449_"
   class="st5"
   d="m 143.1,-67.5 v 0 L 8,-67.6 V 67.7 L 8.3,67.4 H 143 V -67.5 Z" />
			</g>
		</g>
	</g>
</g>
<g
   id="g250"
   transform="matrix(0.80828857,0,0,0.80828857,490.12332,421.15842)">
	<g
   id="g248">
		<g
   id="use246">
			<g
   id="Symbol_4_0_Layer0_0_FILL_00000150789655329905784890000016593476894351877823_">
				<path
   id="path2_00000069357811239459572450000016305085999317334700_"
   class="st0"
   d="m 151.2,-75.8 c -0.1,-0.1 -0.2,-0.1 -0.4,-0.1 H 0 c -0.1,0 -0.3,0.1 -0.3,0.1 -0.1,0.1 -0.1,0.2 -0.1,0.4 V 75.4 c 0,0.1 0.1,0.3 0.1,0.4 0.1,0.1 0.2,0.1 0.3,0.1 h 150.9 c 0.1,0 0.3,-0.1 0.4,-0.1 0.1,-0.1 0.1,-0.2 0.1,-0.4 V -75.4 c 0,-0.2 -0.1,-0.3 -0.2,-0.4 M 0.5,-74.9 H 150.4 V 74.9 H 0.5 Z" />
				<path
   id="path4_00000067958925461898816360000008569740770902955659_"
   class="st1"
   d="M 150.4,-74.9 H 0.5 V 74.9 H 150.4 V -74.9 m -0.8,0.5 v 0.2 l 0.2,-0.2 V 74.2 H 1.5 1.2 V -74.4 Z" />
				<path
   id="path6_00000165234147192554916510000010581991935596165539_"
   class="st2"
   d="m 143.2,-67.6 6.4,-6.5 v -0.2 H 1.2 V 74.2 H 1.4 L 8,67.7 V -67.6 Z" />
				<path
   id="path8_00000016064897022159762910000010790654261438956695_"
   class="st3"
   d="m 143.2,-67.6 v 0 L 143.1,67.5 H 8.3 L 8,67.7 1.5,74.1 H 149.8 V -74.4 l -0.2,0.2 z" />
				<path
   id="path10_00000105426802482394124550000004709626196142584198_"
   class="st5"
   d="m 143.1,-67.5 v 0 L 8,-67.6 V 67.7 l 0.4,-0.3 h 134.7 z" />
			</g>
		</g>
	</g>
</g>
<g
   id="g256"
   transform="matrix(0.80828857,0,0,0.80828857,612.57332,421.15842)">
	<g
   id="g254">
		<g
   id="use252">
			<g
   id="Symbol_4_0_Layer0_0_FILL_00000092421171790669488290000001271668356573996208_">
				<path
   id="path2_00000127043272241357483900000006763041279023504817_"
   class="st0"
   d="m 151.2,-75.8 c -0.1,-0.1 -0.2,-0.1 -0.4,-0.1 H 0 c -0.1,0 -0.3,0.1 -0.3,0.1 -0.1,0.1 -0.1,0.2 -0.1,0.4 V 75.4 c 0,0.1 0.1,0.3 0.1,0.4 0.1,0.1 0.2,0.1 0.3,0.1 h 150.9 c 0.1,0 0.3,-0.1 0.4,-0.1 0.1,-0.1 0.1,-0.2 0.1,-0.4 V -75.4 c 0,-0.2 -0.1,-0.3 -0.2,-0.4 M 0.5,-74.9 H 150.4 V 74.9 H 0.5 Z" />
				<path
   id="path4_00000008845562704865471230000002032733483161119159_"
   class="st1"
   d="M 150.4,-74.9 H 0.5 V 74.9 H 150.4 V -74.9 m -0.8,0.5 v 0.2 l 0.2,-0.2 V 74.2 H 1.5 1.2 V -74.4 Z" />
				<path
   id="path6_00000100354748382292128300000014978721526108065676_"
   class="st2"
   d="m 143.2,-67.6 6.4,-6.5 v -0.2 H 1.2 V 74.2 H 1.4 L 8,67.7 V -67.6 Z" />
				<path
   id="path8_00000151518568490179562020000007526369076376049029_"
   class="st3"
   d="m 143.2,-67.6 v 0 L 143.1,67.5 H 8.3 L 8,67.7 1.5,74.1 H 149.8 V -74.4 l -0.2,0.2 z" />
				<path
   id="path10_00000180359284808841221110000013272416783209414044_"
   class="st5"
   d="m 143.1,-67.5 v 0 L 8,-67.6 V 67.7 l 0.4,-0.3 h 134.7 z" />
			</g>
		</g>
	</g>
</g>
<g
   id="g262"
   transform="matrix(0.80828857,0,0,0.80828857,735.12332,421.15842)">
	<g
   id="g260">
		<g
   id="use258">
			<g
   id="Symbol_4_0_Layer0_0_FILL_00000028326073917907635820000012167210808837885108_">
				<path
   id="path2_00000140005610011180639100000005319206059327384981_"
   class="st0"
   d="m 150,-75.8 c -0.1,-0.1 -0.2,-0.1 -0.4,-0.1 H -1.3 c -0.1,0 -0.3,0.1 -0.3,0.1 -0.1,0.1 -0.1,0.2 -0.1,0.4 V 75.4 c 0,0.1 0.1,0.3 0.1,0.4 0.1,0.1 0.2,0.1 0.3,0.1 h 150.9 c 0.1,0 0.3,-0.1 0.4,-0.1 0.1,-0.1 0.1,-0.2 0.1,-0.4 V -75.4 c 0,-0.2 0,-0.3 -0.1,-0.4 M -0.8,-74.9 H 149.1 V 74.9 H -0.8 Z" />
				<path
   id="path4_00000009569743275224169180000014540532314898896006_"
   class="st1"
   d="M 149.1,-74.9 H -0.8 V 74.9 H 149.1 V -74.9 m -0.7,0.5 v 0.2 l 0.2,-0.2 V 74.2 H 0.2 0 V -74.4 Z" />
				<path
   id="path6_00000000924649784056353140000018022634545189583233_"
   class="st2"
   d="m 141.9,-67.6 6.4,-6.5 v -0.2 H 0 V 74.2 H 0.2 L 6.7,67.8 V -67.6 Z" />
				<path
   id="path8_00000142872729171197351820000001492369091805057678_"
   class="st3"
   d="m 141.9,-67.6 v 0 L 141.8,67.5 H 7.1 L 6.7,67.8 0.2,74.2 H 148.5 V -74.4 l -0.2,0.2 z" />
				<path
   id="path10_00000132050265894490996960000008429028540627953086_"
   class="st5"
   d="m 141.8,-67.5 v 0 L 6.7,-67.6 V 67.7 l 0.4,-0.3 h 134.7 z" />
			</g>
		</g>
	</g>
</g>

<g
   id="g274"
   transform="matrix(0.80828857,0,0,0.80828857,485.68857,61.349102)">
	<g
   id="g272">
		<g
   id="use270">
			<g
   id="Symbol_4_0_Layer0_0_FILL_00000030476560357998383820000013036424653461358246_">
				<path
   id="path2_00000047051516475827347430000002038053959976974239_"
   class="st0"
   d="m 151.1,-75.8 c -0.1,-0.1 -0.2,-0.1 -0.4,-0.1 H -0.1 c -0.1,0 -0.3,0.1 -0.3,0.1 -0.1,0.1 -0.1,0.2 -0.1,0.4 V 75.4 c 0,0.1 0.1,0.3 0.1,0.4 0.1,0.1 0.2,0.1 0.3,0.1 h 150.9 c 0.1,0 0.3,-0.1 0.4,-0.1 0.1,-0.1 0.1,-0.2 0.1,-0.4 V -75.4 c 0,-0.2 -0.1,-0.3 -0.2,-0.4 M 0.4,-74.9 H 150.3 V 74.9 H 0.4 Z" />
				<path
   id="path4_00000065049289655020213820000003236294316273332152_"
   class="st1"
   d="M 150.3,-74.9 H 0.4 V 74.9 H 150.3 V -74.9 m -0.8,0.5 v 0.2 l 0.2,-0.2 V 74.2 H 1.4 1.1 V -74.4 Z" />
				<path
   id="path6_00000179648080620706992600000017852899203626816400_"
   class="st2"
   d="m 143.1,-67.6 6.4,-6.5 v -0.2 H 1.1 V 74.2 H 1.3 L 7.8,67.8 V -67.6 Z" />
				<path
   id="path8_00000167356092459365956790000018323718088639478452_"
   class="st3"
   d="m 143.1,-67.6 v 0 L 143,67.4 H 8.2 L 7.9,67.7 1.4,74.1 H 149.7 V -74.4 l -0.2,0.2 z" />
				<path
   id="path10_00000158718220123432818780000013525637723361430708_"
   class="st13"
   d="m 143,-67.5 v 0 L 7.9,-67.6 V 67.7 L 8.2,67.4 H 143 Z" />
			</g>
		</g>
	</g>
</g>



<g
   id="g298"
   transform="matrix(0.80828857,0,0,0.80828857,0.92077603,301.59486)">
	<g
   id="g296">
		<g
   id="use294">
			<g
   id="Symbol_4_0_Layer0_0_FILL_00000123410083826048302820000011772575075747349940_">
				<path
   id="path2_00000025411111296819110480000009152016661110864022_"
   class="st0"
   d="m 151.2,-75.8 c -0.1,-0.1 -0.2,-0.1 -0.4,-0.1 H 0 c -0.1,0 -0.3,0.1 -0.3,0.1 -0.1,0.1 -0.1,0.2 -0.1,0.4 V 75.4 c 0,0.1 0.1,0.3 0.1,0.4 0.1,0.1 0.2,0.1 0.3,0.1 h 150.9 c 0.1,0 0.3,-0.1 0.4,-0.1 0.1,-0.1 0.1,-0.2 0.1,-0.4 V -75.4 c 0,-0.2 -0.1,-0.3 -0.2,-0.4 M 0.5,-74.9 H 150.4 V 74.9 H 0.5 Z" />
				<path
   id="path4_00000138530895052135576610000001012356147881110437_"
   class="st1"
   d="M 150.4,-74.9 H 0.5 V 74.9 H 150.4 V -74.9 m -0.8,0.5 v 0.2 l 0.2,-0.2 V 74.2 H 1.5 1.2 V -74.4 Z" />
				<path
   id="path6_00000037694153792708556110000008578503756064600727_"
   class="st2"
   d="m 143.2,-67.6 6.4,-6.5 v -0.2 H 1.2 V 74.2 H 1.4 L 8,67.7 V -67.6 Z" />
				<path
   id="path8_00000110461827565417275550000007627009652645300878_"
   class="st3"
   d="m 143.2,-67.6 v 0 L 143.1,67.5 H 8.3 L 8,67.7 1.5,74.1 H 149.8 V -74.4 l -0.2,0.2 z" />
				<path
   id="path10_00000078039951956193503080000012982147743948947118_"
   class="st14"
   d="m 143.1,-67.5 v 0 L 8,-67.6 V 67.7 l 0.4,-0.3 h 134.7 z" />
			</g>
		</g>
	</g>
</g>

<g
   id="g310"
   transform="matrix(0.80828857,0,0,0.80828857,122.27332,60.908417)">
	<g
   id="g308">
		<g
   id="use306">
			<g
   id="Symbol_4_0_Layer0_0_FILL_00000000906882677077555790000000169692701777610887_">
				<path
   id="path2_00000094603148103254449210000014539227364966097025_"
   class="st0"
   d="m 151.7,-74.4 c -0.1,-0.1 -0.2,-0.1 -0.4,-0.1 H 0.5 c -0.1,0 -0.3,0.1 -0.3,0.1 C 0,-74.3 0,-74.2 0,-74 V 74.8 c 0,0.1 0.1,0.3 0.1,0.3 0.1,0.1 0.2,0.1 0.3,0.1 h 150.9 c 0.1,0 0.3,-0.1 0.4,-0.1 0.1,-0.1 0.1,-0.2 0.1,-0.3 V -74 c 0.1,-0.2 0,-0.3 -0.1,-0.4 M 1,-73.5 H 150.9 V 74.3 H 1 Z" />
				<path
   id="path4_00000170978683821772900030000018129760501434531492_"
   class="st1"
   d="M 150.9,-73.5 H 1 V 74.3 H 150.9 V -73.5 m -0.8,0.5 v 0.2 l 0.2,-0.2 V 73.6 H 2 1.7 V -73 Z" />
				<path
   id="path6_00000142889099871844211610000009140065669991359380_"
   class="st2"
   d="m 143.7,-66.3 6.4,-6.5 V -73 H 1.7 V 73.6 H 2 L 8.5,67.2 V -66.3 Z" />
				<path
   id="path8_00000125571108785446957890000007152395196143955600_"
   class="st3"
   d="m 143.7,-66.3 v 0 L 143.6,66.9 H 8.8 L 8.5,67.2 2,73.6 H 150.3 V -73 l -0.2,0.2 z" />
				<path
   id="path10_00000059997406298275621050000013268618618494690964_"
   class="st5"
   d="m 143.6,-66.2 v 0 L 8.5,-66.3 V 67.2 L 8.8,66.9 H 143.5 V -66.2 Z" />
			</g>
		</g>
	</g>
</g>
<path
   class="st15"
   d="M 427.62332,180.90842"
   id="path329" />
<g
   id="g367"
   transform="translate(-0.07668457,-0.49158254)">
	<circle
   class="st2"
   cx="428.5"
   cy="301.79999"
   r="48.799999"
   id="circle331" />
	<path
   class="st16"
   d="m 428.5,350.5 c -26.9,0 -48.8,-21.9 -48.8,-48.8 0,-26.9 21.9,-48.8 48.8,-48.8 26.9,0 48.8,21.9 48.8,48.8 -0.1,27 -21.9,48.8 -48.8,48.8 z m 0,-96.5 c -26.3,0 -47.7,21.4 -47.7,47.7 0,26.3 21.4,47.7 47.7,47.7 26.3,0 47.7,-21.4 47.7,-47.7 0,-26.3 -21.4,-47.7 -47.7,-47.7 z"
   id="path333" />
	<g
   id="g365">
		<g
   id="g361">
			<g
   id="g359">
				<path
   class="st17"
   d="m 451.6,315.4 c -1,12.2 -11.1,21.4 -22.7,20.5 -11.6,-0.9 -20.1,-11.6 -19.2,-23.8 1,-12.2 11.1,-21.4 22.7,-20.5 11.6,0.9 20.2,11.6 19.2,23.8 z"
   id="path335" />
				<path
   class="st18"
   d="m 425.5,335.9 c -10.3,-2.6 -17.1,-12.6 -16.2,-23.8 0.5,-6 3.1,-11.5 7.5,-15.5 4.4,-4 9.9,-5.9 15.7,-5.4 1.1,0.1 2.3,0.3 3.4,0.6 10.3,2.6 17.1,12.6 16.2,23.8 -0.5,6 -3.2,11.5 -7.5,15.5 -4.4,4 -9.9,5.9 -15.7,5.4 -1.1,-0.2 -2.3,-0.4 -3.4,-0.6 z m 10.2,-43.3 c -1.1,-0.3 -2.2,-0.5 -3.3,-0.5 -5.5,-0.4 -10.8,1.4 -14.9,5.2 -4.2,3.8 -6.8,9.1 -7.2,14.9 -0.9,10.7 5.7,20.3 15.5,22.8 1.1,0.3 2.2,0.4 3.2,0.5 5.5,0.4 10.8,-1.4 15,-5.2 4.2,-3.8 6.8,-9.1 7.2,-14.9 0.8,-10.7 -5.7,-20.3 -15.5,-22.8 z"
   id="path337" />
				<path
   class="st2"
   d="m 450,313.4 c -0.9,11.2 -10.2,19.6 -20.8,18.8 -10.6,-0.8 -18.4,-10.6 -17.5,-21.8 0.9,-11.2 11.2,-14.6 21.8,-13.7 10.6,0.8 17.4,5.5 16.5,16.7 z"
   id="path339" />
				<path
   class="st19"
   d="m 442,315.2 c -0.5,6.6 -6,11.6 -12.3,11.1 -6.3,-0.5 -10.9,-6.3 -10.4,-12.9 0.5,-6.6 6,-11.6 12.3,-11.1 6.3,0.5 10.9,6.3 10.4,12.9 z"
   id="path341" />
				<path
   class="st20"
   d="m 436.9,314.8 c -0.3,3.7 -3.3,6.4 -6.8,6.1 -3.5,-0.3 -6,-3.5 -5.7,-7.1 0.3,-3.7 3.3,-6.4 6.8,-6.1 3.5,0.2 6,3.4 5.7,7.1 z"
   id="path343" />
				<path
   class="st2"
   d="m 439.4,309.4 c -0.2,2 -1.8,3.4 -3.6,3.3 -1.8,-0.1 -3.2,-1.9 -3.1,-3.8 0.1,-2 1.8,-3.4 3.6,-3.3 1.9,0.2 3.3,1.9 3.1,3.8 z"
   id="path345" />
				<path
   class="st2"
   d="m 426,320.3 c -0.1,1 -0.9,1.8 -1.9,1.7 -1,-0.1 -1.7,-1 -1.6,-2 0.1,-1 0.9,-1.8 1.9,-1.7 0.9,0.1 1.7,1 1.6,2 z"
   id="path347" />
				<path
   class="st21"
   d="m 411,302 c 0,0 3.6,-10.2 14.8,-12.4 11.2,-2.1 22.8,9.1 22.8,9.1 0,0 -19.3,-9.7 -37.6,3.3 z"
   id="path349" />
				<path
   class="st22"
   d="m 448.5,298.8 c 0,0 -0.6,-0.2 -1.6,-0.5 -1,-0.3 -2.5,-0.7 -4.3,-1 -0.9,-0.2 -1.9,-0.3 -2.9,-0.5 -1,-0.2 -2.1,-0.2 -3.2,-0.4 -1.1,0 -2.3,-0.2 -3.5,-0.1 -0.6,0 -1.2,0 -1.8,0 -0.6,0 -1.2,0.1 -1.8,0.1 -0.6,0.1 -1.2,0 -1.8,0.2 -0.6,0.1 -1.2,0.2 -1.8,0.3 -1.2,0.1 -2.3,0.5 -3.4,0.7 -0.3,0.1 -0.5,0.1 -0.8,0.2 -0.3,0.1 -0.5,0.2 -0.8,0.2 -0.5,0.2 -1,0.3 -1.5,0.5 -1,0.3 -1.9,0.7 -2.8,1 -0.8,0.4 -1.6,0.6 -2.3,1 -0.7,0.3 -1.2,0.6 -1.7,0.9 -1,0.5 -1.5,0.7 -1.5,0.7 0,0 0.5,-0.4 1.3,-1.1 0.4,-0.3 1,-0.7 1.6,-1.2 0.6,-0.5 1.4,-0.9 2.2,-1.3 0.4,-0.2 0.8,-0.5 1.3,-0.7 0.4,-0.3 0.9,-0.4 1.4,-0.7 1,-0.4 2,-1 3.2,-1.2 1.1,-0.3 2.3,-0.8 3.5,-0.9 0.6,-0.1 1.2,-0.2 1.9,-0.3 0.6,-0.1 1.3,-0.1 1.9,-0.2 0.6,0 1.3,-0.1 1.9,-0.1 0.6,0 1.3,0 1.9,0 h 0.9 c 0.3,0 0.6,0.1 0.9,0.1 0.6,0.1 1.2,0.1 1.8,0.2 1.2,0.2 2.3,0.4 3.3,0.7 0.5,0.1 1,0.3 1.5,0.4 0.5,0.1 1,0.3 1.4,0.5 0.9,0.3 1.7,0.6 2.4,0.9 0.7,0.3 1.3,0.6 1.8,0.8 0.5,0.3 0.9,0.5 1.1,0.6 0.2,0.1 0.3,0.2 0.3,0.2 z"
   id="path351" />
				<path
   class="st22"
   d="m 421.5,296.7 c 0,0 -0.1,-0.1 -0.2,-0.4 -0.2,-0.3 -0.3,-0.7 -0.5,-1.2 -0.1,-0.2 -0.1,-0.5 -0.2,-0.8 -0.1,-0.3 -0.2,-0.6 -0.2,-0.9 -0.1,-0.3 -0.1,-0.6 -0.2,-0.9 -0.1,-0.3 -0.1,-0.6 -0.1,-1 0,-0.3 0,-0.6 -0.1,-1 0,-0.3 0,-0.6 0,-0.9 0,-0.3 0,-0.6 0.1,-0.9 0,-0.3 0.1,-0.5 0.1,-0.7 0.2,-0.9 0.3,-1.5 0.3,-1.5 0,0 0,0.6 0,1.5 0,0.2 0,0.5 0,0.7 0,0.3 0.1,0.5 0.1,0.8 0,0.3 0.1,0.6 0.1,0.9 0.1,0.3 0.1,0.6 0.2,0.9 0.1,0.3 0.1,0.6 0.3,0.8 0.1,0.3 0.2,0.5 0.3,0.8 0.1,0.3 0.2,0.5 0.3,0.7 0.1,0.2 0.2,0.4 0.3,0.6 0.2,0.4 0.4,0.7 0.6,0.8 0.1,0.2 0.2,0.3 0.2,0.3 z"
   id="path353" />
				<path
   class="st22"
   d="m 412.4,301.2 c 0,0 -0.4,-0.6 -0.9,-1.5 -0.5,-0.9 -1.1,-2.2 -1.4,-3.6 -0.2,-0.7 -0.3,-1.4 -0.3,-2 0,-0.3 0,-0.6 0,-0.9 0,-0.3 0,-0.6 0.1,-0.8 0.1,-0.5 0.2,-0.9 0.3,-1.2 0.1,-0.3 0.2,-0.4 0.2,-0.4 0,0 0,0.2 -0.1,0.5 -0.1,0.3 -0.1,0.7 -0.1,1.2 0,0.2 0,0.5 0.1,0.8 0,0.3 0.1,0.6 0.2,0.9 0.1,0.6 0.4,1.2 0.6,1.8 0.5,1.2 1.3,2.2 1.8,3 0.6,0.8 1,1.2 1,1.2 z"
   id="path355" />
				<path
   class="st22"
   d="m 416.9,299.1 c 0,0 -0.1,-0.1 -0.4,-0.5 -0.3,-0.3 -0.5,-0.8 -0.8,-1.4 -0.1,-0.3 -0.3,-0.6 -0.4,-1 -0.1,-0.3 -0.3,-0.7 -0.4,-1.1 -0.1,-0.4 -0.2,-0.8 -0.3,-1.2 -0.1,-0.4 -0.1,-0.8 -0.1,-1.2 0,-0.4 -0.1,-0.8 -0.1,-1.2 0,-0.4 0,-0.8 0.1,-1.2 0,-0.4 0,-0.8 0.1,-1.1 0,-0.4 0.1,-0.7 0.2,-1 0.2,-1.2 0.4,-2 0.4,-2 0,0 0,0.8 -0.1,2 0,0.3 0,0.6 0,1 0,0.3 0.1,0.7 0.1,1.1 0,0.4 0.1,0.8 0.1,1.1 0,0.4 0.2,0.8 0.3,1.1 0.1,0.4 0.2,0.8 0.3,1.1 0.2,0.4 0.3,0.7 0.4,1 0.1,0.3 0.3,0.6 0.5,0.9 0.2,0.3 0.3,0.5 0.5,0.8 0.3,0.4 0.6,0.8 0.8,1 0.2,0.2 0.4,0.3 0.4,0.3 z"
   id="path357" />
			</g>
		</g>
		<path
   class="st23"
   d="m 418.1,267.7 c 15.8,-7.2 22.1,10.5 11.1,12.2 -11.8,1.8 -21,7.6 -22.6,6.7 -3.7,-2 2.5,-14.8 11.5,-18.9 z"
   id="path363" />
	</g>
</g>
<g
   id="g399"
   transform="translate(-0.07668457,-0.49158254)">
	<circle
   class="st2"
   cx="674.59998"
   cy="181.39999"
   r="48.200001"
   id="circle369" />
	<g
   id="g397">
		<path
   class="st16"
   d="m 674.6,230.7 c -27.2,0 -49.3,-22.1 -49.3,-49.3 0,-27.2 22.1,-49.3 49.3,-49.3 27.2,0 49.3,22.1 49.3,49.3 0,27.2 -22.1,49.3 -49.3,49.3 z m 0,-97.5 c -26.6,0 -48.2,21.6 -48.2,48.2 0,26.6 21.6,48.2 48.2,48.2 26.6,0 48.2,-21.6 48.2,-48.2 0,-26.6 -21.6,-48.2 -48.2,-48.2 z"
   id="path371" />
		<g
   id="g395">
			<path
   class="st24"
   d="m 675.1,150.5 c -8.4,0 -10.3,8.4 -11.5,17 -0.9,6.8 0.1,16.2 -5.7,22.9 -5.8,6.7 -8.4,12.7 -4.1,17.6 4.4,5 11.5,1.3 12.5,1.3 3.9,1.5 9.8,2.4 16.6,0.1 7.3,1.9 13.7,0.4 15.1,-5.4 1.5,-5.8 -10.1,-14.3 -11.2,-26.2 -1.2,-13.6 -1.5,-27.3 -11.7,-27.3 z"
   id="path373" />
			<path
   class="st21"
   d="m 675.1,150.5 c -8.4,0 -10.3,8.4 -11.5,17 -0.9,6.8 -0.2,16.4 -6.1,23.1 -5.8,6.7 -6.7,13.2 -2.5,16.5 2.8,2.2 6.9,-0.1 7.9,-0.1 8.4,6.1 13.5,7.4 22.2,0.9 4.7,1.1 11.6,-1.1 12.3,-5 1,-5.8 -9.4,-14.2 -10,-24.9 -0.7,-13.7 -2.1,-27.5 -12.3,-27.5 z"
   id="path375" />
			<g
   id="g383">
				<g
   id="g381">
					<path
   class="st25"
   d="m 657.7,207 c -0.6,1.9 1.4,3.1 3.3,3.6 2.6,-0.2 4.9,-1.2 5.4,-1.2 -2,-1.9 -7.8,-5.2 -8.7,-2.4 z"
   id="path377" />
					<path
   class="st25"
   d="m 690.8,206.4 c -2,-1.2 -6.9,2 -7.9,3.1 2,0.5 3.9,0.8 5.6,0.8 2.3,-1 4.3,-2.8 2.3,-3.9 z"
   id="path379" />
				</g>
			</g>
			<path
   class="st26"
   d="m 679.7,158.4 c -1,-4.6 -6.7,-7 -9.1,0.3 -2.4,7.3 -8.5,47.5 4.5,47.5 13.1,0 7.3,-35.3 4.6,-47.8 z"
   id="path385" />
			<path
   class="st26"
   d="m 660.6,190.9 c -3.5,3.4 -8.1,13.5 -2.8,13.3 4.4,-0.1 3.7,-4.7 3.2,-6.4 -0.6,-1.8 -0.4,-6.9 -0.4,-6.9 z"
   id="path387" />
			<path
   class="st27"
   d="m 689.6,191.6 c 3.5,3.4 8.1,13.5 2.8,13.3 -4.4,-0.1 -3.7,-4.7 -3.2,-6.4 0.7,-1.8 0.4,-6.9 0.4,-6.9 z"
   id="path389" />
			<path
   class="st28"
   d="m 680.8,198.9 c -0.4,1.4 -1.3,4.2 -3.7,4 -0.9,-0.1 -2.4,-1.1 -1.8,-3.9 0.7,-2.9 3.4,-5.8 4.3,-5.8 2.3,0.1 1.6,4.1 1.2,5.7 z"
   id="path391" />
			<path
   class="st29"
   d="m 670.7,209.2 c -2.6,-1 -1.7,0.2 -0.4,0.9 1.2,0.7 3.8,1.8 7.9,0.7 4,-1 2.4,-1.8 0.7,-1.4 -0.6,0.2 -3.9,1.5 -8.2,-0.2 z"
   id="path393" />
		</g>
	</g>
</g>
<g
   id="g581"
   transform="translate(-0.07668457,-0.49158254)">
	<circle
   class="st2"
   cx="674.40002"
   cy="303.70001"
   r="48.799999"
   id="circle401" />
	<g
   id="g579">
		<path
   class="st16"
   d="m 673.9,352.4 c -27.2,0 -49.3,-22.1 -49.3,-49.3 0,-27.2 22.1,-49.3 49.3,-49.3 27.2,0 49.3,22.1 49.3,49.3 0,27.2 -22.1,49.3 -49.3,49.3 z m 0,-97.5 c -26.6,0 -48.2,21.6 -48.2,48.2 0,26.6 21.6,48.2 48.2,48.2 26.6,0 48.2,-21.6 48.2,-48.2 0,-26.6 -21.6,-48.2 -48.2,-48.2 z"
   id="path403" />
		<g
   id="g577">
			<path
   class="st30"
   d="m 639.1,300.8 c 1.5,2.9 9.1,12.4 16.2,14.9 7.9,2.8 13.1,3.5 24.1,3.5 28,0 30.7,-19.7 29.9,-20.1 -0.8,-0.3 -9.5,-11.8 -24.5,-14 -15,-2.2 -26.2,0.8 -33.6,4.9 -7.4,4 -8.5,6.1 -9.2,5.8 -0.7,-0.2 -3.5,6.3 -2.9,5 z"
   id="path405" />
			<path
   class="st31"
   d="m 663.3,302.4 c 0,0 -2.1,-10.1 3.8,-13.1 5.9,-3 7.7,3.2 6.3,6.5 -1.4,3.3 0.3,5.1 2.7,5.1 2.4,0 2.7,-3.3 2.3,-5.6 -0.5,-2.3 0.5,-6.2 4.5,-6.2 4.1,0 6,11.5 5.1,14.5 -1.9,2.7 -20.3,6.5 -24.7,-1.2 z"
   id="path407" />
			<path
   class="st32"
   d="m 656.6,308.4 c 0,0 -1.1,-3.2 5.2,-4.5 6.4,-1.2 9.6,0.2 13.9,0.2 4.3,0 8.7,-1.4 13.4,0.3 4.6,1.7 6.1,3.9 3.3,5.9 -2.8,2 -8.4,5.9 -16.6,5.9 -8.1,0 -17.4,-0.7 -19.2,-7.8 z"
   id="path409" />
			<g
   id="g417">
				<g
   id="g415">
					<path
   class="st2"
   d="m 642.5,296.1 c 0,0 -1,2.7 0.2,3.7 0.9,0.8 3.8,0.2 4.3,-0.8 0.8,-2.5 -0.3,-4.5 -0.5,-4.8 -1.2,0 -2.9,0.7 -4,1.9 z"
   id="path411" />
					<path
   class="st33"
   d="m 644,300.3 v 0 c -0.6,0 -1.1,-0.1 -1.4,-0.4 -1.2,-1.1 -0.2,-3.7 -0.2,-3.8 v 0 c 1.2,-1.1 2.8,-1.9 4,-1.9 v 0 0.1 c 0.8,1.6 1,3.2 0.4,4.8 -0.1,0.7 -1.6,1.2 -2.8,1.2 z m -1.5,-4.2 c -0.1,0.2 -0.9,2.7 0.2,3.7 0.3,0.2 0.7,0.4 1.3,0.4 v 0 c 1.1,0 2.6,-0.5 2.8,-1.1 0.5,-1.6 0.4,-3.1 -0.4,-4.7 v 0 c -1.1,-0.2 -2.8,0.6 -3.9,1.7 z"
   id="path413" />
				</g>
			</g>
			<g
   id="g425">
				<g
   id="g423">
					<path
   class="st2"
   d="m 646.4,294.3 c 0,0 -1.1,3.5 0.2,4.9 1,1 4.4,0.3 4.9,-1 1,-3.3 -0.3,-5.8 -0.5,-6.3 -1.4,-0.1 -3.3,0.9 -4.6,2.4 z"
   id="path419" />
					<path
   class="st33"
   d="m 648.1,299.7 v 0 c -0.7,0 -1.3,-0.2 -1.6,-0.5 -1.4,-1.4 -0.3,-4.8 -0.2,-4.9 v 0 c 1.3,-1.5 3.2,-2.5 4.6,-2.4 v 0 l 0.1,0.1 c 0.9,2.1 1.1,4.2 0.5,6.3 -0.3,0.8 -2,1.4 -3.4,1.4 z m -1.7,-5.4 c -0.1,0.2 -1.1,3.5 0.2,4.8 0.3,0.3 0.8,0.5 1.5,0.5 v 0 c 1.3,0 2.9,-0.6 3.3,-1.4 0.6,-2 0.4,-4.1 -0.5,-6.2 v -0.1 c -1.3,0 -3.2,1 -4.5,2.4 z"
   id="path421" />
				</g>
			</g>
			<g
   id="g433">
				<g
   id="g431">
					<path
   class="st2"
   d="m 651,292.3 c 0,0 1.4,-1.7 3.7,-2.9 2.3,-1.2 3.3,-1.5 3.5,0.7 0.2,2.1 0.2,6.4 -1,8.1 -0.9,1.3 -4.8,1.4 -5.7,0.4 -0.9,-1.1 -1,-5.5 -0.5,-6.3 z"
   id="path427" />
					<path
   class="st33"
   d="m 653.9,299.3 c -1.1,0 -2,-0.2 -2.4,-0.7 -1,-1.2 -1.1,-5.7 -0.6,-6.4 0,0 1.4,-1.8 3.7,-2.9 1.1,-0.6 1.9,-0.9 2.5,-0.9 0.7,0 1,0.5 1.2,1.6 0.2,2 0.3,6.4 -1,8.1 -0.5,0.9 -2.1,1.2 -3.4,1.2 z m 3.2,-10.7 c -0.5,0 -1.3,0.3 -2.4,0.9 -2.2,1.1 -3.6,2.8 -3.7,2.9 -0.4,0.7 -0.4,5.1 0.6,6.3 0.3,0.4 1.2,0.6 2.3,0.6 1.3,0 2.8,-0.3 3.3,-1 1.2,-1.7 1.2,-6 1,-8.1 -0.1,-1.1 -0.5,-1.6 -1.1,-1.6 z"
   id="path429" />
				</g>
			</g>
			<g
   id="g441">
				<g
   id="g439">
					<path
   class="st2"
   d="m 657.3,292.4 c 0.1,-1.4 0.1,-2.7 1.1,-3.4 1.1,-0.8 5.4,-2.9 6.2,-1.5 0.8,1.5 1,7.5 0.4,9.3 -0.6,1.8 -2.3,2.2 -4.3,2.2 -1.4,0 -2.7,-0.2 -3,-1.6 -0.3,-1 -0.5,-3.4 -0.4,-5 z"
   id="path435" />
					<path
   class="st33"
   d="m 660.5,299 c -1.1,0 -2.5,-0.2 -2.9,-1.7 -0.2,-0.9 -0.5,-3.3 -0.4,-5 V 292 c 0.1,-1.3 0.1,-2.5 1.2,-3.2 0.8,-0.5 3.5,-2 5.1,-2 0.6,0 1,0.2 1.1,0.5 0.8,1.5 1,7.6 0.4,9.3 -0.7,1.9 -2.5,2.2 -4.4,2.2 0,0.2 0,0.2 -0.1,0.2 z m 3,-12 c -1.6,0 -4.2,1.4 -5,2 -1,0.7 -1,1.8 -1.1,3.1 v 0.3 c -0.1,1.7 0.1,4 0.4,5 0.3,1.4 1.6,1.6 2.8,1.6 0.1,0 0.1,0 0.2,0 1.8,0 3.6,-0.3 4.3,-2.2 0.6,-1.7 0.4,-7.8 -0.4,-9.2 -0.3,-0.4 -0.6,-0.6 -1.2,-0.6 z"
   id="path437" />
				</g>
			</g>
			<g
   id="g449">
				<g
   id="g447">
					<path
   class="st2"
   d="m 705.8,296.2 c 0,0 1,2.7 -0.2,3.7 -0.9,0.8 -3.8,0.2 -4.3,-0.8 -0.8,-2.5 0.3,-4.5 0.5,-4.8 1.2,0 2.9,0.8 4,1.9 z"
   id="path443" />
					<path
   class="st33"
   d="m 704.3,300.4 c -1.2,0 -2.6,-0.5 -2.9,-1.2 -0.5,-1.6 -0.4,-3.2 0.4,-4.8 v -0.1 0 c 1.2,-0.1 2.9,0.7 4,1.9 v 0 c 0,0.1 1,2.7 -0.2,3.8 -0.2,0.2 -0.7,0.4 -1.3,0.4 z m -2.4,-6 v 0 c -0.8,1.6 -1,3.2 -0.5,4.8 0.3,0.6 1.7,1.1 2.8,1.1 0.6,0 1.1,-0.1 1.3,-0.4 1.1,-1 0.2,-3.5 0.2,-3.7 -1,-1.1 -2.6,-1.8 -3.8,-1.8 z"
   id="path445" />
				</g>
			</g>
			<g
   id="g457">
				<g
   id="g455">
					<path
   class="st2"
   d="m 702.4,294.4 c 0,0 1.1,3.5 -0.2,4.9 -1,1 -4.4,0.3 -4.9,-1 -1,-3.3 0.3,-5.8 0.5,-6.3 1.4,-0.1 3.3,0.9 4.6,2.4 z"
   id="path451" />
					<path
   class="st33"
   d="m 700.6,299.8 c -1.3,0 -3,-0.6 -3.4,-1.5 -0.6,-2.1 -0.4,-4.2 0.5,-6.3 v -0.1 0 c 1.4,-0.1 3.3,0.9 4.6,2.4 v 0 c 0,0.1 1.1,3.5 -0.2,4.9 -0.2,0.5 -0.7,0.6 -1.5,0.6 z m -2.7,-7.8 v 0 c -1,2.1 -1.1,4.2 -0.5,6.2 0.3,0.8 2,1.4 3.3,1.4 0.7,0 1.2,-0.2 1.5,-0.5 1.3,-1.3 0.3,-4.6 0.2,-4.8 -1.3,-1.3 -3.2,-2.3 -4.5,-2.3 z"
   id="path453" />
				</g>
			</g>
			<g
   id="g465">
				<g
   id="g463">
					<path
   class="st2"
   d="m 697.7,292.3 c 0,0 -1.4,-1.7 -3.7,-2.9 -2.3,-1.2 -3.3,-1.5 -3.5,0.7 -0.2,2.1 -0.2,6.4 1,8.1 0.9,1.3 4.8,1.4 5.7,0.4 0.9,-1.1 1,-5.5 0.5,-6.3 z"
   id="path459" />
					<path
   class="st33"
   d="m 694.8,299.3 v 0 c -1.3,0 -2.8,-0.3 -3.4,-1.1 -1.2,-1.8 -1.2,-6.1 -1,-8.1 0.1,-1.1 0.5,-1.6 1.2,-1.6 0.6,0 1.4,0.3 2.5,0.9 2.2,1.1 3.7,2.9 3.7,2.9 0.5,0.7 0.5,5.2 -0.6,6.4 -0.4,0.4 -1.3,0.6 -2.4,0.6 z m -3.2,-10.7 c -0.6,0 -0.9,0.5 -1,1.5 -0.2,2 -0.3,6.3 1,8.1 0.5,0.7 2,1 3.3,1 v 0 c 1.1,0 2,-0.2 2.3,-0.6 1,-1.2 1,-5.6 0.6,-6.3 0,0 -1.4,-1.7 -3.6,-2.9 -1.3,-0.5 -2.1,-0.8 -2.6,-0.8 z"
   id="path461" />
				</g>
			</g>
			<g
   id="g473">
				<g
   id="g471">
					<path
   class="st2"
   d="m 692.7,292.4 c -0.1,-1.4 -0.1,-2.7 -1.1,-3.4 -1.1,-0.8 -5.4,-2.9 -6.2,-1.5 -0.8,1.5 -1,7.5 -0.4,9.3 0.6,1.8 2.3,2.2 4.3,2.2 1.4,0 2.7,-0.2 3,-1.6 0.3,-1 0.5,-3.4 0.4,-5 z"
   id="path467" />
					<path
   class="st33"
   d="m 689.5,299 v 0 c -0.1,0 -0.1,0 -0.2,0 -1.9,0 -3.7,-0.3 -4.4,-2.2 -0.6,-1.8 -0.4,-7.9 0.4,-9.3 0.2,-0.4 0.6,-0.5 1.1,-0.5 1.7,0 4.4,1.4 5.1,2 1,0.7 1.1,1.9 1.2,3.2 v 0.3 c 0.1,1.7 -0.1,4.1 -0.4,5 -0.3,1.3 -1.6,1.5 -2.8,1.5 z m -3,-12 c -0.5,0 -0.9,0.2 -1,0.5 -0.8,1.4 -1,7.5 -0.4,9.2 0.7,1.9 2.5,2.1 4.3,2.2 0.1,0 0.1,0 0.2,0 1.2,0 2.4,-0.2 2.8,-1.6 0.2,-0.9 0.5,-3.2 0.4,-5 V 292 c -0.1,-1.3 -0.1,-2.4 -1.1,-3.1 -1,-0.5 -3.6,-1.9 -5.2,-1.9 z"
   id="path469" />
				</g>
			</g>
			<g
   id="g481">
				<g
   id="g479">
					<path
   class="st2"
   d="m 664.3,290.3 c 0.1,-0.8 -0.2,-2.3 1.2,-3.4 1.4,-1.1 9.3,-3 9.3,-1.2 0,2.4 0,4.9 0,6.6 0,2.5 0.3,4.8 -0.7,5.8 -1.5,1.4 -7.5,1 -8.8,-0.1 -1,-1 -1.2,-5.8 -1,-7.7 z"
   id="path475" />
					<path
   class="st33"
   d="m 670.1,299 c -1.9,0 -4.1,-0.4 -4.9,-1.1 -1,-1 -1.2,-5.9 -1,-7.7 0,-0.1 0,-0.3 0,-0.5 0,-0.9 0,-2 1.2,-3 1,-0.8 5.1,-1.9 7.6,-1.9 1.2,0 1.8,0.3 1.8,0.8 v 6.6 c 0,0.5 0,1 0,1.5 0.1,1.9 0.1,3.5 -0.8,4.4 -0.5,0.6 -2,0.9 -3.9,0.9 z m 2.9,-14 c -2.4,0 -6.5,1.1 -7.5,1.9 -1.1,0.9 -1.2,2 -1.2,2.9 0,0.2 0,0.3 0,0.5 -0.2,1.9 0,6.7 1,7.6 0.7,0.6 2.7,1 4.8,1 1.9,0 3.3,-0.3 3.9,-0.9 0.8,-0.8 0.8,-2.4 0.7,-4.3 0,-0.5 0,-1 0,-1.5 v -6.6 c 0,-0.5 -0.9,-0.6 -1.7,-0.6 z"
   id="path477" />
				</g>
			</g>
			<g
   id="g489">
				<g
   id="g487">
					<path
   class="st2"
   d="m 685.2,290 c -0.1,-0.8 0.2,-2.4 -1.2,-3.5 -1.4,-1.2 -7.7,-2.3 -9.4,-1.7 0,1.8 0,4.8 0,7.9 0,2 0.2,4.6 0.8,5.3 1.3,1.6 7.5,1.1 8.8,-0.1 1.1,-1 1.2,-5.9 1,-7.9 z"
   id="path483" />
					<path
   class="st33"
   d="m 679.2,299.1 v 0 c -1.9,0 -3.3,-0.4 -3.8,-1 -0.7,-0.9 -0.8,-4.3 -0.8,-5.4 v -8 0 c 0.3,-0.1 0.7,-0.1 1.3,-0.1 2.5,0 7,0.9 8.1,1.9 1.2,1 1.2,2.2 1.2,3.1 0,0.2 0,0.4 0,0.5 0.2,1.9 0.1,7 -1,7.9 -0.6,0.6 -2.8,1.1 -5,1.1 z m -4.5,-14.3 v 7.9 c 0,1 0.1,4.5 0.8,5.3 0.5,0.6 1.9,1 3.7,1 v 0 c 2.1,0 4.3,-0.5 5,-1.1 1,-0.9 1.1,-5.9 1,-7.9 0,-0.2 0,-0.3 0,-0.5 0,-0.9 0,-2 -1.2,-3 -1.1,-0.9 -5.5,-1.8 -8,-1.8 -0.6,0 -1,0 -1.3,0.1 z"
   id="path485" />
				</g>
			</g>
			<g
   id="g497">
				<g
   id="g495">
					<path
   class="st2"
   d="m 642.4,308.7 c 0,0 -1.1,-3 0.2,-4.1 1,-0.9 4.2,-0.2 4.7,0.8 0.9,2.8 -0.3,4.9 -0.5,5.3 -1.2,0.1 -3.1,-0.7 -4.4,-2 z"
   id="path491" />
					<path
   class="st33"
   d="m 646.7,310.8 c -1.3,0 -3,-0.8 -4.3,-2.1 v 0 c 0,-0.1 -1.1,-3 0.2,-4.2 0.3,-0.3 0.9,-0.4 1.5,-0.4 1.3,0 2.9,0.5 3.2,1.3 0.6,1.8 0.4,3.5 -0.5,5.3 v 0.1 0 c 0,0 -0.1,0 -0.1,0 z m -4.2,-2.1 c 1.2,1.2 3,2.1 4.3,2 v 0 c 0.9,-1.7 1.1,-3.5 0.5,-5.2 -0.3,-0.7 -1.9,-1.2 -3.1,-1.2 -0.7,0 -1.2,0.1 -1.5,0.4 -1.2,1 -0.3,3.8 -0.2,4 z"
   id="path493" />
				</g>
			</g>
			<g
   id="g505">
				<g
   id="g503">
					<path
   class="st2"
   d="m 646.9,310.4 c 0,0 -1.1,-3.5 0.2,-4.9 1,-1 4.2,-0.3 4.7,1 0.9,3.3 -0.3,5.9 -0.5,6.4 -1.3,0.1 -3.2,-1 -4.4,-2.5 z"
   id="path499" />
					<path
   class="st33"
   d="m 651.1,312.9 c -1.3,0 -3,-1 -4.3,-2.5 v 0 c 0,-0.1 -1.1,-3.6 0.2,-5 0.3,-0.3 0.9,-0.5 1.5,-0.5 1.3,0 2.9,0.6 3.2,1.5 0.6,2.1 0.4,4.2 -0.5,6.3 v 0.1 0 c 0,0.1 -0.1,0.1 -0.1,0.1 z m -4.2,-2.5 c 1.2,1.5 3,2.5 4.3,2.4 v -0.1 c 0.9,-2.1 1.1,-4.2 0.5,-6.2 -0.3,-0.9 -1.9,-1.5 -3.1,-1.5 -0.7,0 -1.2,0.2 -1.5,0.5 -1.2,1.4 -0.2,4.7 -0.2,4.9 z"
   id="path501" />
				</g>
			</g>
			<g
   id="g513">
				<g
   id="g511">
					<path
   class="st2"
   d="m 706.5,308.7 c 0,0 1.1,-3 -0.2,-4.1 -1,-0.9 -4.2,-0.2 -4.7,0.8 -0.9,2.8 0.3,4.9 0.5,5.3 1.3,0.1 3.1,-0.7 4.4,-2 z"
   id="path507" />
					<path
   class="st33"
   d="m 702.3,310.8 v 0 c -0.1,0 -0.1,0 -0.2,0 v 0 l -0.1,-0.1 c -0.9,-1.8 -1.1,-3.6 -0.5,-5.3 0.3,-0.8 1.9,-1.3 3.2,-1.3 0.7,0 1.2,0.2 1.5,0.4 1.3,1.2 0.3,4.1 0.2,4.2 v 0 c -1.1,1.3 -2.8,2.1 -4.1,2.1 z m -0.1,-0.1 c 1.3,0.1 3.1,-0.8 4.3,-2 0.1,-0.2 1,-3 -0.2,-4.1 -0.3,-0.3 -0.8,-0.4 -1.5,-0.4 -1.2,0 -2.8,0.5 -3.1,1.2 -0.6,1.8 -0.4,3.5 0.5,5.3 z"
   id="path509" />
				</g>
			</g>
			<g
   id="g521">
				<g
   id="g519">
					<path
   class="st2"
   d="m 702.1,310.6 c 0,0 1.1,-3.5 -0.2,-4.9 -1,-1 -4.2,-0.3 -4.7,1 -0.9,3.3 0.3,5.9 0.5,6.4 1.3,0.1 3.1,-0.9 4.4,-2.5 z"
   id="path515" />
					<path
   class="st33"
   d="m 697.9,313.1 v 0 c -0.1,0 -0.1,0 -0.2,0 v 0 -0.1 c -0.9,-2.1 -1.1,-4.2 -0.5,-6.3 0.3,-0.9 1.9,-1.5 3.2,-1.5 0.7,0 1.2,0.2 1.5,0.5 1.3,1.4 0.3,4.8 0.2,5 v 0 c -1.2,1.4 -2.9,2.4 -4.2,2.4 z m -0.1,-0.1 c 1.3,0.1 3.1,-0.9 4.3,-2.4 0.1,-0.2 1,-3.5 -0.2,-4.9 -0.3,-0.3 -0.8,-0.5 -1.5,-0.5 -1.2,0 -2.8,0.6 -3.1,1.5 -0.6,2.1 -0.5,4.2 0.5,6.3 z"
   id="path517" />
				</g>
			</g>
			<g
   id="g529">
				<g
   id="g527">
					<path
   class="st2"
   d="m 651.7,313.1 c 0,0 1.4,1.7 3.7,2.9 2.3,1.2 3.3,1.5 3.5,-0.7 0.2,-2.2 0.2,-6.4 -1,-8.2 -0.9,-1.3 -4.8,-1.4 -5.7,-0.4 -0.9,1.1 -1,5.6 -0.5,6.4 z"
   id="path523" />
					<path
   class="st33"
   d="m 657.8,316.9 v 0 c -0.6,0 -1.4,-0.3 -2.5,-0.9 -2.2,-1.2 -3.7,-2.9 -3.7,-2.9 -0.5,-0.8 -0.5,-5.2 0.6,-6.5 0.4,-0.4 1.2,-0.7 2.4,-0.7 1.3,0 2.8,0.3 3.4,1.1 1.2,1.8 1.2,6.1 1,8.2 -0.1,1.2 -0.5,1.7 -1.2,1.7 z m -3.2,-10.8 c -1.1,0 -2,0.2 -2.3,0.6 -1,1.2 -1,5.6 -0.6,6.3 0,0 1.4,1.7 3.7,2.9 1.1,0.6 1.9,0.9 2.4,0.9 0.6,0 0.9,-0.5 1,-1.5 0.2,-2 0.3,-6.4 -1,-8.1 -0.4,-0.8 -1.9,-1.1 -3.2,-1.1 z"
   id="path525" />
				</g>
			</g>
			<g
   id="g537">
				<g
   id="g535">
					<path
   class="st2"
   d="m 658.1,313.3 c 0.1,1.5 0.1,2.7 1.1,3.5 1.1,0.8 5.4,3 6.2,1.5 0.8,-1.5 1,-7.6 0.4,-9.4 -0.6,-1.8 -2.3,-2.2 -4.3,-2.2 -1.4,0 -2.7,0.2 -3,1.7 -0.2,0.8 -0.5,3.2 -0.4,4.9 z"
   id="path531" />
					<path
   class="st33"
   d="m 664.3,318.8 v 0 c -1.7,0 -4.4,-1.5 -5.1,-2 -1,-0.7 -1.1,-1.9 -1.2,-3.3 v -0.3 c -0.1,-1.8 0.1,-4.1 0.4,-5.1 0.4,-1.5 1.7,-1.7 2.9,-1.7 0.1,0 0.1,0 0.2,0 1.9,0 3.7,0.3 4.4,2.3 0.6,1.8 0.4,8 -0.4,9.5 -0.2,0.4 -0.6,0.6 -1.2,0.6 z m -3,-12.2 c -1.2,0 -2.4,0.2 -2.8,1.6 -0.2,0.9 -0.5,3.3 -0.4,5 v 0.3 c 0.1,1.3 0.1,2.5 1.1,3.2 0.8,0.6 3.5,2 5,2 v 0 c 0.5,0 0.9,-0.2 1,-0.5 0.8,-1.5 1,-7.6 0.4,-9.4 -0.7,-1.9 -2.5,-2.2 -4.3,-2.2 0.1,0 0.1,0 0,0 z"
   id="path533" />
				</g>
			</g>
			<g
   id="g545">
				<g
   id="g543">
					<path
   class="st2"
   d="m 665.1,314.8 c 0.1,0.8 -0.2,2.2 1.2,3.2 1.4,1.1 6.8,2.4 8.4,1.9 0.6,-0.2 0.9,-0.6 1,-1.6 0,-3.3 0,-6.4 0,-7.2 0,-1.5 -0.1,-3.1 -0.8,-3.7 -1.5,-1.4 -7.5,-1 -8.8,0.1 -1,0.9 -1.2,5.4 -1,7.3 z"
   id="path539" />
					<path
   class="st33"
   d="m 673.8,320 v 0 c -2.2,0 -6.3,-1.1 -7.5,-2 -1.2,-0.9 -1.2,-2 -1.2,-2.8 0,-0.2 0,-0.3 0,-0.5 -0.2,-1.7 -0.1,-6.4 1,-7.3 0.8,-0.7 3.1,-1 4.9,-1 1.9,0 3.4,0.3 4,0.9 0.6,0.5 0.9,1.8 0.8,3.7 0,0.3 0,1.1 0,2.2 0,1.3 0,3.2 0,5 -0.1,0.9 -0.4,1.4 -1,1.6 -0.3,0.2 -0.6,0.2 -1,0.2 z m -2.9,-13.4 c -2.1,0 -4.2,0.4 -4.8,1 -1,0.8 -1.1,5.4 -0.9,7.2 0,0.1 0,0.3 0,0.5 0,0.8 0,1.9 1.2,2.7 1.2,0.9 5.3,2 7.5,2 v 0 c 0.4,0 0.7,0 0.9,-0.1 0.6,-0.2 0.9,-0.6 1,-1.5 0,-1.9 0,-3.7 0,-5 0,-1.1 0,-1.8 0,-2.2 0,-1.9 -0.2,-3.1 -0.8,-3.7 -0.8,-0.6 -2.2,-0.9 -4.1,-0.9 z"
   id="path541" />
				</g>
			</g>
			<g
   id="g551">
				<path
   class="st2"
   d="m 697.9,312.7 c 0,0 -1.4,1.6 -3.7,2.7 -2.3,1.1 -3.3,1.4 -3.5,-0.6 -0.2,-2 -0.2,-5.9 1,-7.6 0.9,-1.2 4.8,-1.3 5.7,-0.4 0.9,1.1 1,5.2 0.5,5.9 z"
   id="path547" />
				<path
   class="st33"
   d="m 691.8,316.3 c -0.7,0 -1,-0.5 -1.2,-1.5 -0.2,-1.9 -0.3,-5.9 1,-7.6 0.5,-0.7 2.1,-1 3.4,-1 1.1,0 2,0.2 2.4,0.6 1,1.1 1.1,5.3 0.6,6 0,0 -1.4,1.6 -3.7,2.7 -1.2,0.5 -2,0.8 -2.5,0.8 z m 3.2,-10 c -1.3,0 -2.8,0.3 -3.3,1 -1.2,1.6 -1.2,5.6 -1,7.5 0.1,1 0.4,1.4 1,1.4 0.5,0 1.3,-0.3 2.4,-0.8 2.2,-1.1 3.6,-2.7 3.7,-2.7 0.4,-0.6 0.4,-4.8 -0.6,-5.8 -0.3,-0.4 -1.1,-0.6 -2.2,-0.6 z"
   id="path549" />
			</g>
			<g
   id="g559">
				<g
   id="g557">
					<path
   class="st2"
   d="m 691.6,313.2 c -0.1,1.4 -0.1,2.6 -1.1,3.4 -1.1,0.8 -5.4,2.9 -6.2,1.4 -0.8,-1.4 -1,-7.4 -0.4,-9.1 0.6,-1.7 2.3,-2.1 4.3,-2.2 1.4,0 2.7,0.2 3,1.6 0.2,0.9 0.5,3.2 0.4,4.9 z"
   id="path553" />
					<path
   class="st33"
   d="m 685.4,318.5 c -0.6,0 -1,-0.2 -1.1,-0.5 -0.8,-1.4 -1,-7.4 -0.4,-9.2 0.7,-1.9 2.5,-2.2 4.4,-2.2 0.1,0 0.1,0 0.2,0 1.1,0 2.5,0.2 2.9,1.6 0.2,0.9 0.5,3.2 0.4,4.9 v 0.3 c -0.1,1.3 -0.1,2.4 -1.2,3.1 -0.9,0.6 -3.6,2 -5.2,2 z m 3,-11.8 c -0.1,0 -0.1,0 -0.2,0 -1.8,0 -3.6,0.3 -4.3,2.1 -0.6,1.7 -0.4,7.7 0.4,9.1 0.2,0.3 0.5,0.5 1,0.5 1.6,0 4.2,-1.4 5,-1.9 1,-0.7 1,-1.8 1.1,-3.1 v -0.3 c 0.1,-1.7 -0.1,-4 -0.4,-4.9 -0.2,-1.3 -1.4,-1.5 -2.6,-1.5 z"
   id="path555" />
				</g>
			</g>
			<g
   id="g567">
				<g
   id="g565">
					<path
   class="st2"
   d="m 685.8,314.8 c -0.1,0.8 0.2,2.2 -1.2,3.2 -1.4,1.1 -7.5,2.1 -9.1,1.6 0,-0.3 -0.1,-0.7 -0.1,-1.2 0,-2.9 -0.1,-4 -0.1,-6.6 0,-1.7 0.2,-3.7 0.7,-4.3 1.4,-1.5 7.5,-1 8.8,0.1 1.1,0.8 1.2,5.3 1,7.2 z"
   id="path561" />
					<path
   class="st33"
   d="m 676.8,319.7 c -0.6,0 -1,0 -1.3,-0.1 v 0 0 c 0,-0.1 0,-0.1 0,-0.2 0,-0.3 -0.1,-0.6 -0.1,-1 0,-1.5 0,-2.5 0,-3.5 0,-0.9 0,-1.8 0,-3.1 0,-1.3 0.1,-3.6 0.7,-4.3 0.5,-0.6 1.9,-0.9 3.8,-0.9 2.2,0 4.4,0.5 5.1,1.1 1,0.9 1.2,5.6 1,7.3 0,0.1 0,0.3 0,0.5 0,0.8 0,1.9 -1.2,2.8 -1.3,0.6 -5.6,1.4 -8,1.4 z m -1.2,-0.2 c 0.3,0.1 0.7,0.1 1.2,0.1 2.4,0 6.7,-0.8 7.8,-1.7 1.1,-0.9 1.2,-1.9 1.2,-2.7 0,-0.2 0,-0.3 0,-0.5 0.2,-1.8 0,-6.3 -1,-7.2 -0.7,-0.6 -2.9,-1 -5,-1 -1.9,0 -3.2,0.3 -3.7,0.9 -0.6,0.6 -0.7,2.9 -0.7,4.2 0,1.3 0,2.2 0,3.1 0,1 0,2 0,3.5 0,0.4 0,0.7 0.1,1 0.1,0.2 0.1,0.2 0.1,0.3 z"
   id="path563" />
				</g>
			</g>
			<path
   class="st34"
   d="m 710.1,300.6 c -0.9,-4.8 -14.2,-20.2 -23.5,-22 -5.5,-1.1 -6.3,1.4 -11.7,1.4 -4,0 -3.9,-2.7 -11.2,-1.1 -9.7,2.1 -25,18.1 -25.2,20.8 -0.4,4.8 7.2,17.6 13.8,22.7 9.4,7.2 22.4,10.1 37.2,4.2 9.2,-3.9 21.7,-21.3 20.6,-26 z m -35.6,16.9 c -21.5,0 -34.1,-10.8 -34.4,-17.9 0,0 12.7,-12 34.4,-12 21.7,0 33.4,10.4 34.4,13.2 0.1,3.7 -12.1,16.7 -34.4,16.7 z"
   id="path569" />
			<path
   class="st35"
   d="m 680.6,319.2 c 0,0 -4.4,0.4 -4.6,2.2 -0.2,1.8 7.5,1.4 11.3,0.1 3.8,-1.3 7.8,-5.3 5.2,-5.3 -2.6,0 -6.2,2.8 -11.9,3 z"
   id="path571" />
			<path
   class="st36"
   d="m 693.4,283.6 c 1.9,3.3 0.3,4.6 -4,3.2 -4.3,-1.4 -8.9,-2.6 -12.3,-0.7 -3.4,1.9 -5.9,-0.2 -8.3,-1.3 -6.2,-2.9 -10,2.4 -11.1,1.4 -2.7,-2.2 4.9,-8 10,-6.6 4.5,1.2 6,2.5 11.5,0.8 7.2,-2.4 12.2,-0.2 14.2,3.2 z"
   id="path573" />
			<path
   class="st37"
   d="m 683.7,280.8 c 2.6,-0.8 8.1,4.3 5.3,4.2 -2.8,0 -8.3,-3.3 -5.3,-4.2 z"
   id="path575" />
		</g>
	</g>
</g>
<g
   id="g597"
   transform="translate(-0.07668457,-0.49158254)">
	<circle
   class="st2"
   cx="183"
   cy="182.39999"
   r="49.299999"
   id="circle583" />
	<g
   id="g595">
		<path
   class="st16"
   d="m 183,231.7 c -27.2,0 -49.3,-22.1 -49.3,-49.3 0,-27.2 22.1,-49.3 49.3,-49.3 27.2,0 49.3,22.1 49.3,49.3 0,27.2 -22.2,49.3 -49.3,49.3 z m 0,-97.5 c -26.6,0 -48.2,21.6 -48.2,48.2 0,26.6 21.6,48.2 48.2,48.2 26.6,0 48.2,-21.6 48.2,-48.2 0,-26.6 -21.6,-48.2 -48.2,-48.2 z"
   id="path585" />
		<g
   id="g593">
			<path
   class="st21"
   d="m 183.1,147 c 0,0 24.5,18.3 22.8,30.2 -1.6,11.8 -8.6,30.6 -8.6,38.7 -7.7,4.1 -16.3,1.2 -19.2,-0.8 -2,-17.1 0.8,-35.1 0.8,-35.1 0,0 -13,-8.2 -18.3,-13.5 0.9,-12.5 18,-19.5 22.5,-19.5 z"
   id="path587" />
			<path
   class="st24"
   d="m 164.1,157.9 c -1.5,2 -2.7,4.3 -3.2,6.8 v 0 c 5.6,5.4 20,14.3 20,14.3 0,0 -3.4,19.7 -1.4,36.8 0,0 0.1,0 0.1,0.1 0.2,0.1 0.4,0.2 0.6,0.3 0.2,0.1 0.5,0.2 0.7,0.3 0,0 0,0 0.1,0 0.6,0.2 1.2,0.4 1.8,0.6 v 0 0 c -2.1,-11.5 -0.4,-33.2 4.2,-40 -9.1,-1.5 -19.8,-11 -22.9,-19.2 z"
   id="path589" />
			<path
   class="st24"
   d="m 194.5,180.5 c 4.4,3.8 7.1,4.4 10.2,3.1 0.5,-2.3 0.9,-4.4 1.2,-6.4 0,0 -2.5,4.1 -11.4,3.3 z"
   id="path591" />
		</g>
	</g>
</g>
<g
   id="g623"
   transform="translate(-0.07668457,-0.49158254)">
	<circle
   class="st2"
   cx="306.39999"
   cy="62.599998"
   r="48.200001"
   id="circle599" />
	<g
   id="g621">
		<path
   class="st16"
   d="m 306.4,111.9 c -27.2,0 -49.3,-22.1 -49.3,-49.3 0,-27.2 22.1,-49.3 49.3,-49.3 27.2,0 49.3,22.1 49.3,49.3 0,27.2 -22.1,49.3 -49.3,49.3 z m 0,-97.6 c -26.6,0 -48.2,21.6 -48.2,48.2 0,26.6 21.6,48.2 48.2,48.2 26.6,0 48.2,-21.6 48.2,-48.2 C 354.7,36 333,14.3 306.4,14.3 Z"
   id="path601" />
		<g
   id="g619">
			<path
   class="st21"
   d="m 293.3,65.8 c 1.2,-1.1 3.8,-4.2 2.4,-7.9 -1.5,-3.7 -7,-9 -4.5,-15.5 2.5,-6.5 14.7,-12.2 21.2,-12.6 6.5,-0.4 13.1,3.8 15.6,16.4 2.5,12.6 -3.2,27.7 -11.9,36.7 -8.7,9 -21.2,13.3 -26,9.4 -4.8,-3.8 -4.2,-15.2 -2.9,-18 1.3,-2.8 2.2,-1.2 2.4,-5.2 0.2,-2.9 2.7,-2.4 3.7,-3.3 z"
   id="path603" />
			<path
   class="st38"
   d="m 308.3,69.6 c 0,0 -1,-2.7 -3.2,-3.2 -2.2,-0.6 -3.8,-0.4 -4.4,-3.5 -0.6,-3.1 -3.1,-3.9 -3.1,-2.2 0,1.7 -0.7,7.7 -3.2,11 -2.5,3.2 -4.6,6.7 -3.5,9.1 1.1,2.4 4.4,0.7 6.3,-2.2 2,-3 4.6,-5.2 7.9,-5.2 3.2,0 7.6,-0.1 8.7,-6.3 1.1,-6.2 -1.3,-8.7 -4.5,-11.1 -3.2,-2.4 -7.2,2 -8.1,-5.5 -0.4,4.1 -0.6,6.7 2.7,8 3.2,1.3 7.3,6.9 5.3,13.1 -1.4,0.7 -3.9,0.6 -5.9,0.7 -2,0.1 -5.5,2.7 -6.9,5.1 -1.4,2.4 -3.8,4.1 -4.4,2.1 -0.6,-2 2,-4.6 3.5,-7 1.5,-2.4 2.4,-6.6 3.1,-7.3 0.7,-0.7 1.5,2.4 3.5,2.5 2,0 5.4,0.5 6.2,1.9 z"
   id="path605" />
			<path
   class="st38"
   d="m 304.2,40.8 c 0,0 2.8,-0.6 3.9,1.4 1.1,2 1.7,8.8 0.4,9.6 -0.1,-0.1 -1.7,-4.4 -2.2,-6.5 -0.6,-2.1 -2.2,-2.8 -3.6,-1.8 0,-1.4 1.5,-2.7 1.5,-2.7 z"
   id="path607" />
			<path
   class="st38"
   d="m 301.2,50.4 c 0,0 0,-0.1 -0.1,-0.2 0,-0.1 -0.1,-0.3 -0.1,-0.6 0,-0.3 -0.1,-0.6 0,-1 0,-0.4 0,-0.9 0.1,-1.4 0.1,-0.5 0.2,-1.1 0.4,-1.7 0.1,-0.3 0.2,-0.6 0.3,-0.9 0.1,-0.3 0.2,-0.7 0.4,-1 0.3,-0.6 0.6,-1.4 1.1,-2 0.5,-0.7 0.9,-1.4 1.5,-2.1 0.3,-0.3 0.6,-0.7 0.9,-1 0.4,-0.3 0.7,-0.7 1.1,-1 0.4,-0.3 0.8,-0.6 1.3,-0.8 0.5,-0.2 0.9,-0.5 1.4,-0.6 1,-0.4 2.1,-0.6 3.2,-0.6 1.1,0 2.3,0.2 3.4,0.5 1.1,0.4 2.2,1 3.2,1.7 1,0.7 1.8,1.8 2.3,2.9 1.1,2.1 1.8,4.5 2.3,6.8 0.1,0.6 0.2,1.2 0.3,1.8 l 0.1,0.9 V 51 c 0,0.6 0.1,1.2 0.1,1.8 0,0.6 0,1.2 -0.1,1.8 0,1.2 -0.2,2.3 -0.4,3.5 -0.2,1.1 -0.5,2.2 -0.7,3.3 -0.3,1.1 -0.6,2.1 -1,3.1 -0.4,1 -0.8,2 -1.2,2.9 -0.9,1.8 -1.8,3.5 -2.8,5 -0.5,0.7 -0.9,1.5 -1.4,2.1 -0.5,0.6 -1,1.2 -1.4,1.8 -0.4,0.6 -0.9,1.1 -1.2,1.6 -0.4,0.5 -0.8,0.9 -1.1,1.3 -1.4,1.5 -2.2,2.4 -2.2,2.4 0,0 0.7,-0.9 1.9,-2.6 0.3,-0.4 0.7,-0.9 1,-1.3 0.3,-0.5 0.7,-1.1 1.1,-1.7 0.4,-0.6 0.8,-1.2 1.2,-1.9 0.4,-0.7 0.8,-1.4 1.2,-2.2 0.9,-1.5 1.6,-3.2 2.5,-5 0.3,-0.9 0.7,-1.9 1.1,-2.9 0.3,-1 0.6,-2 0.9,-3 0.3,-1 0.4,-2.1 0.6,-3.2 0.1,-0.5 0.1,-1.1 0.2,-1.7 0.1,-0.6 0.1,-1.1 0.1,-1.7 0.1,-2.2 -0.1,-4.5 -0.5,-6.8 -0.4,-2.2 -1.1,-4.4 -2.1,-6.4 -0.5,-1 -1.1,-1.8 -1.9,-2.4 -0.8,-0.7 -1.7,-1.2 -2.6,-1.5 -1,-0.3 -1.9,-0.5 -2.9,-0.6 -1,0 -1.9,0.1 -2.8,0.4 -0.5,0.1 -0.9,0.4 -1.3,0.5 -0.4,0.2 -0.8,0.5 -1.2,0.7 -0.3,0.3 -0.7,0.5 -1,0.8 -0.3,0.3 -0.6,0.6 -1,0.9 -0.5,0.7 -1,1.3 -1.5,1.9 -0.5,0.6 -0.8,1.3 -1.2,1.9 -0.2,0.3 -0.3,0.6 -0.5,0.9 -0.1,0.3 -0.3,0.6 -0.4,0.9 -0.3,0.5 -0.4,1.1 -0.5,1.6 -0.1,0.5 -0.2,0.9 -0.2,1.3 0,0.4 0,0.7 -0.1,1 0,0.3 0,0.5 0,0.6 0.1,0.2 0.2,0.3 0.2,0.3 z"
   id="path609" />
			<path
   class="st39"
   d="m 296.8,57.4 c 0,0 -6.3,-8.4 -4.5,-13.8 1.8,-5.3 8,-8.9 12.5,-10.5 -2.8,2.2 -8.8,6.3 -9.8,12.2 -1,5.9 0.5,8.5 1.8,12.1 z"
   id="path611" />
			<path
   class="st27"
   d="m 300,53.1 c 0,0 -0.6,4.6 3.7,6.6 4.2,2 4.6,5.2 4.6,7.6 -0.6,-0.7 -2.7,-2.1 -4.8,-2.8 -2.1,-0.7 -0.3,-2.9 -2.1,-4.8 -1.8,-1.9 -2.1,-4.4 -1.4,-6.6 z"
   id="path613" />
			<path
   class="st27"
   d="m 289.4,88.3 c 0,0 1.3,4.6 6.6,4.5 5.3,-0.1 16.9,-4.9 24.2,-16.9 -4.7,6 -22.7,21.8 -30.8,12.4 z"
   id="path615" />
			<path
   class="st27"
   d="m 308,39.7 c 0,0 5.6,3.2 4.1,9.1 -1.5,5.9 1,5.1 3.2,8.3 2.2,3.2 2.2,10.7 4.1,7 1.8,-3.7 2.8,-14.9 0.1,-21.4 -2.6,-6.4 -9.5,-6.1 -11.5,-3 z"
   id="path617" />
		</g>
	</g>
</g>
<g
   id="g653"
   transform="translate(-0.07668457,-0.49158254)">
	<circle
   class="st2"
   cx="304.79999"
   cy="421.20001"
   r="48.799999"
   id="circle625" />
	<g
   id="g651">
		<path
   class="st16"
   d="m 304.8,471 c -27.2,0 -49.3,-22.1 -49.3,-49.3 0,-27.2 22.1,-49.3 49.3,-49.3 27.2,0 49.3,22.1 49.3,49.3 0,27.2 -22.1,49.3 -49.3,49.3 z m 0,-97.5 c -26.6,0 -48.2,21.6 -48.2,48.2 0,26.6 21.6,48.2 48.2,48.2 26.6,0 48.2,-21.6 48.2,-48.2 0,-26.6 -21.6,-48.2 -48.2,-48.2 z"
   id="path627" />
		<g
   id="g649">
			<path
   class="st21"
   d="m 295.4,455.5 c 0,0 3.1,-7.4 1,-11.4 -2.1,-4 -7.3,-6.9 -9.6,-11.9 -2.4,-5 -3.5,-9.4 -8.9,-14.2 -2.3,-2.1 0.9,-4.6 4.4,-3.7 4.9,1.3 7.8,7.8 8.9,7.9 2.8,0.7 -1,-27.8 4.2,-28 3,-0.1 3.4,7.2 3.8,11.4 0.5,5.2 0.6,7.7 1.4,7.6 1.2,-0.2 0.9,-5.2 1,-11.2 0.1,-6 -0.1,-14.5 3,-14.5 3.9,-0.1 3.6,9.5 3.9,13.9 0.3,3.7 0.1,12 0.4,12 1.3,-0.1 1.6,-6.2 1.7,-10.9 0.1,-5.3 -0.2,-11.9 2.7,-11.9 3.2,0 3.7,7.4 3.6,11.7 -0.1,4.2 -0.5,11.1 0.2,11.7 0.7,0.6 1.6,-13.8 4.8,-13.6 3.3,0.2 2.2,9.5 1.2,16.3 -0.7,5.1 -1.3,9.4 -3.4,16.7 -2.1,7.2 -4.2,8.5 -4.7,11 -0.5,2.5 0.8,12.3 0.8,12.3 0,0 -11.1,4.6 -20.4,-1.2 z"
   id="path629" />
			<path
   class="st24"
   d="m 299.8,416.3 c -1.8,0.7 -3.1,0.6 -4.6,0 1.7,2 3.2,1.8 4.6,0 z"
   id="path631" />
			<path
   class="st24"
   d="m 307.8,416.2 c -1.8,0.7 -3.1,0.6 -4.6,0.1 1.7,2 3.2,1.7 4.6,-0.1 z"
   id="path633" />
			<path
   class="st24"
   d="m 315.8,417.2 c -1.9,0.4 -3.1,0.1 -4.5,-0.8 1.3,2.3 2.8,2.3 4.5,0.8 z"
   id="path635" />
			<path
   class="st24"
   d="m 322.4,417.9 c -1.9,0.4 -3.1,0.1 -4.5,-0.8 1.3,2.3 2.8,2.3 4.5,0.8 z"
   id="path637" />
			<path
   class="st40"
   d="m 280.6,419.6 c -1,-0.8 -3.3,-2.5 -2.3,-3.2 1.4,-0.9 4.1,1.7 4.1,1.7 z"
   id="path639" />
			<path
   class="st40"
   d="m 294.2,398.2 c 0.1,-0.9 0.1,-3.3 1.7,-3.2 1.4,0.1 1.6,3 1.6,3 z"
   id="path641" />
			<path
   class="st40"
   d="m 303.4,391.7 c 0.1,-0.9 0.1,-3.3 1.7,-3.2 1.4,0.1 1.6,3 1.6,3 z"
   id="path643" />
			<path
   class="st40"
   d="m 312.1,394.9 c 0.1,-0.9 0.1,-3.3 1.7,-3.2 1.4,0.1 1.6,3 1.6,3 z"
   id="path645" />
			<path
   class="st40"
   d="m 320.5,404 c 0.2,-0.9 0.4,-3 1.8,-2.8 1.3,0.2 1.2,2.9 1.2,2.9 z"
   id="path647" />
		</g>
	</g>
</g>
<g
   id="g677"
   transform="translate(362.83857,-480.05089)">
	<circle
   class="st41"
   cx="184.10001"
   cy="541.29999"
   r="48.200001"
   id="circle655" />
	<g
   id="g675">
		<path
   class="st16"
   d="m 183.9,590.7 c -27.2,0 -49.3,-22.1 -49.3,-49.3 0,-27.2 22.1,-49.3 49.3,-49.3 27.2,0 49.3,22.1 49.3,49.3 0,27.2 -22.1,49.3 -49.3,49.3 z m 0,-97.5 c -26.6,0 -48.2,21.6 -48.2,48.2 0,26.6 21.6,48.2 48.2,48.2 26.6,0 48.2,-21.6 48.2,-48.2 0.1,-26.6 -21.6,-48.2 -48.2,-48.2 z"
   id="path657" />
		<g
   id="g673">
			<path
   class="st21"
   d="m 206.7,533.3 c -6.5,1.2 -19.5,16.8 -29,23.1 1.1,-12.5 -1.8,-25.8 -1.8,-28.6 8.7,-0.8 19.7,-9 19.9,-13.3 0.2,-4.3 -3.3,-11.9 -6.5,-12.3 -3.2,-0.4 -2.8,1 -4.3,1.8 -3,0 -3.9,0.2 -4.3,1.6 -2.6,0.2 -3.4,1.2 -4.9,3 -3.7,1.8 -10.1,11.6 -12.4,19.1 -2.4,7.5 -3.8,48.1 5.6,50.9 12.4,3.7 29.1,-15.6 36.8,-21.1 5.2,-14 0.9,-24.2 0.9,-24.2 z"
   id="path659" />
			<path
   class="st24"
   d="m 176.4,557.2 c 1.2,-11.7 -1,-25.8 -1.8,-29.9 5,-0.7 10.8,-2 13.8,-6.2 3,-4.1 -6.3,-5.3 -8.5,-3.5 -0.2,0.2 0.3,2.7 -1,4.1 2.5,0.6 -0.4,4.1 -7.1,4.3 0.6,3.8 3.6,29.3 1.9,37.8 1.1,-3.4 2.9,-6.5 2.7,-6.6 z"
   id="path661" />
			<path
   class="st21"
   d="m 197.6,510.9 c 0.4,1.2 0.8,4 -0.5,6.5 -1.6,3.1 -3.3,0.6 -3.3,0.6 0,0 -0.5,2.9 -1.6,3.7 -1.8,1.3 -2.4,-0.3 -2.4,-0.3 0,0 -0.9,2.8 -2.8,2.8 -1.9,0 -1.8,-2.2 -1.8,-2.2 0,0 -1.8,2.4 -2.8,1.2 -1,-1.2 0.1,-4.3 0.1,-4.3 0,0 -1.3,0 -2.8,-1.3 0.1,3.4 -1.2,5.5 -3.8,6.1 -3.1,-0.6 -6.1,-6.5 -5.6,-9.8 0.4,-3.3 5.4,-5.4 5.4,-5.4 0,0 1.6,-3.9 4.9,-3 0.5,-2.4 2.7,-2.1 4.3,-1.6 0.9,-2.9 4.3,-2.6 5.3,-2 3.6,2 6.2,5.8 7.4,9 z"
   id="path663" />
			<path
   class="st42"
   d="m 186.8,524.4 c -0.6,0 -1.1,-0.2 -1.4,-0.6 -0.3,-0.3 -0.4,-0.8 -0.4,-1.1 -0.4,0.5 -1.1,1 -1.8,1.1 -0.4,0 -0.7,-0.1 -0.9,-0.4 -0.9,-1.1 -0.3,-3.4 0,-4.2 -0.4,-0.1 -1.3,-0.3 -2.2,-1 0,1.7 -0.4,3.1 -1.2,4.1 -0.1,0.1 -0.2,0.1 -0.4,0 -0.1,-0.1 -0.1,-0.2 0,-0.4 0.8,-1 1.2,-2.5 1.1,-4.3 0,-0.1 0.1,-0.2 0.1,-0.2 0.1,0 0.2,0 0.3,0 1.4,1.2 2.6,1.3 2.6,1.3 0.1,0 0.2,0 0.2,0.1 0,0.1 0.1,0.2 0,0.2 -0.3,0.8 -1,3.2 -0.2,4 0.1,0.2 0.3,0.3 0.5,0.2 0.7,0 1.6,-1 1.9,-1.4 0.1,-0.1 0.2,-0.1 0.3,-0.1 0.1,0 0.2,0.2 0.2,0.3 0,0 -0.1,0.9 0.3,1.4 0.2,0.3 0.6,0.4 1,0.4 1.7,0 2.8,-2.5 2.8,-2.6 0,-0.1 0.2,-0.2 0.3,-0.2 0.1,0 0.2,0.1 0.2,0.3 0,0 0,0.4 0.2,0.6 0.2,0.1 0.7,0.1 1.2,-0.3 2,-1 2,-3.7 2,-3.7 0,-0.1 0.1,-0.2 0.2,-0.2 0.1,0 0.2,0 0.3,0.1 0,0 0.6,0.9 1.3,0.8 0.5,0 1,-0.5 1.5,-1.4 1.2,-2.3 0.9,-5.1 0.5,-6.3 -1.1,-2.9 -3.5,-6.8 -7.2,-8.9 -0.1,-0.1 -0.2,-0.2 -0.1,-0.3 0.1,-0.1 0.2,-0.2 0.3,-0.1 3.8,2.2 6.3,6.1 7.4,9.2 0.5,1.4 0.8,4.3 -0.5,6.7 -0.6,1.1 -1.2,1.7 -1.9,1.7 -0.6,0 -1,-0.3 -1.4,-0.6 -0.1,0.9 -0.6,2.7 -2.2,3.5 -0.8,0.4 -1.4,0.5 -1.8,0.2 -0.1,-0.1 -0.2,-0.2 -0.3,-0.3 -0.3,1 -1.3,2.4 -2.8,2.4 z"
   id="path665" />
			<path
   class="st42"
   d="m 185.3,522.3 c -0.1,0 -0.1,0 -0.2,-0.1 -0.1,-0.1 -0.1,-0.2 0,-0.4 1.2,-1.5 1.6,-3.1 1.2,-4.8 -0.5,-2.2 -2.4,-3.9 -3.8,-4.6 -0.1,-0.1 -0.2,-0.2 -0.1,-0.3 0.1,-0.1 0.2,-0.2 0.3,-0.1 1.6,0.8 3.5,2.6 4.1,5 0.4,1.8 0,3.6 -1.2,5.2 -0.2,0 -0.3,0.1 -0.3,0.1 z"
   id="path667" />
			<path
   class="st42"
   d="m 189.8,521.7 v 0 c -0.2,-0.1 -0.3,-0.2 -0.2,-0.4 2.5,-6.2 -0.6,-9 -3.1,-11.3 l -0.2,-0.2 c -0.1,-0.1 -0.1,-0.3 0,-0.4 0.1,-0.1 0.3,-0.1 0.4,0 l 0.2,0.2 c 2.5,2.2 5.8,5.3 3.2,11.8 -0.1,0.2 -0.2,0.3 -0.3,0.3 z"
   id="path669" />
			<path
   class="st42"
   d="m 193.8,518.3 v 0 c -0.2,0 -0.3,-0.2 -0.2,-0.3 1.9,-6.5 -3.4,-10.7 -3.5,-10.8 -0.1,-0.1 -0.1,-0.2 0,-0.4 0.1,-0.1 0.2,-0.1 0.4,0 0.1,0 5.6,4.5 3.6,11.3 0,0.1 -0.1,0.2 -0.3,0.2 z"
   id="path671" />
		</g>
	</g>
</g>
<g
   id="g697"
   transform="translate(-611.72922,-239.80514)">
	<circle
   class="st43"
   cx="673.59998"
   cy="541.5"
   r="48.200001"
   id="circle679" />
	<g
   id="g695">
		<path
   class="st16"
   d="m 673.6,590.7 c -27.2,0 -49.3,-22.1 -49.3,-49.3 0,-27.2 22.1,-49.3 49.3,-49.3 27.2,0 49.3,22.1 49.3,49.3 0,27.2 -22.1,49.3 -49.3,49.3 z m 0,-97.5 c -26.6,0 -48.2,21.6 -48.2,48.2 0,26.6 21.6,48.2 48.2,48.2 26.6,0 48.2,-21.6 48.2,-48.2 0,-26.5 -21.6,-48.2 -48.2,-48.2 z"
   id="path681" />
		<g
   id="g693">
			<g
   id="g691">
				<path
   class="st24"
   d="m 644.6,519.1 c 0,0 1.8,1.5 1.2,12.6 -0.6,11.1 -4.1,23 -1,26.9 3.3,4.2 11.4,2.9 15.1,2.3 3.6,-0.6 10.7,0.2 15.3,1.2 5.6,1.2 13.6,1.3 17,0 2.3,-0.9 2.9,-1.2 4.4,-0.5 0.8,0.4 5.9,2.1 8.2,-0.9 2.4,-3.3 0.1,-6.4 -1.6,-6.5 -2.6,0.4 -6.9,1.6 -8.7,0.9 -1.7,-0.7 -25.9,-10.1 -30.8,-15.3 -3.5,-3.7 0.9,-15.9 1.1,-20.6 -5.3,-0.1 -20.2,-0.1 -20.2,-0.1 z"
   id="path683" />
				<path
   class="st21"
   d="m 644.6,519.1 c 0,0 1.2,2.1 0.6,13.2 -0.6,11.1 -1.6,20.8 1.9,24.3 3.5,3.5 9.7,2.7 13.3,2.3 5.4,-0.6 10.4,0.9 15,1.9 5.6,1.2 12.6,1.4 16,0.1 2.3,-0.9 4,-1.9 4.8,-1.3 0.7,0.6 4.4,2.9 7.2,0.4 2.7,-2.5 1.4,-5.8 -0.3,-5.9 -2.6,0.4 -4.5,0.9 -6.1,-0.1 -3.3,-2.2 -19.5,-3.3 -31.4,-15.7 -3.5,-3.6 0.5,-14.5 0.6,-19.1 -5.2,-0.1 -21.6,-0.1 -21.6,-0.1 z"
   id="path685" />
				<path
   class="st44"
   d="m 697.8,554.3 c 0,0 0.6,1.3 2.8,1.1 2.2,-0.1 3,-0.5 3,-0.5 l -0.4,-0.7 c -0.1,-0.1 -1.7,-0.4 -5.4,0.1 z"
   id="path687" />
				<path
   class="st24"
   d="m 651.2,539.5 c 0,0 -1.6,3.2 -0.3,5.2 1.3,2 1.9,4 1.7,5.3 -1.2,-1.9 -1.6,-3.5 -2.9,-4.5 -1.3,-1 -1.4,-3.8 1.5,-6 z"
   id="path689" />
			</g>
		</g>
	</g>
</g>
<g
   id="g805"
   transform="translate(-0.07668457,-0.49158254)">
	<circle
   class="st2"
   cx="61.5"
   cy="62.599998"
   r="48.200001"
   id="circle699" />
	<g
   id="g803">
		<path
   class="st16"
   d="m 61.5,111.9 c -27.2,0 -49.3,-22.1 -49.3,-49.3 0,-27.2 22.1,-49.3 49.3,-49.3 27.2,0 49.3,22.1 49.3,49.3 0,27.2 -22.1,49.3 -49.3,49.3 z m 0,-97.6 c -26.6,0 -48.2,21.6 -48.2,48.2 0,26.6 21.6,48.2 48.2,48.2 26.6,0 48.2,-21.6 48.2,-48.2 C 109.8,36 88.1,14.3 61.5,14.3 Z"
   id="path701" />
		<g
   id="g801">
			<g
   id="g713">
				<path
   class="st45"
   d="m 46,57.8 c 0,0 0.4,14.3 -4.7,17.1 1.6,2.7 -0.1,6.7 -2.2,6.6 2.4,2.4 0.5,6 -1.2,6.9 -1.7,0.6 -4,-0.6 -4,-0.6 0,0 -3.1,-4.9 1,-7.3 -1.1,-2.6 -1.5,-5.2 0.4,-6.8 -1.4,-3.5 -3.8,-7.9 -3.8,-7.9 z"
   id="path703" />
				<path
   class="st46"
   d="m 41.3,74.8 c 0,0 -2.2,-1.5 -6,-1 1.2,0.5 6,1 6,1 z"
   id="path705" />
				<path
   class="st45"
   d="m 38.2,90.4 c 2.4,1.8 2.9,5 -0.8,7.3 -1.9,1.2 -0.8,2.7 -0.8,2.7 0,0 -9.2,-3.3 -2.3,-10.4 2,0 3.9,0.4 3.9,0.4 z"
   id="path707" />
				<path
   class="st47"
   d="m 38.4,88 c 0.9,0.5 0.7,2.4 0.2,2.9 -0.7,0.5 -4.1,0.3 -4.9,-0.4 -1.6,-1.6 -0.1,-3.2 -0.1,-3.2 0,0 3,0.8 4.8,0.7 z"
   id="path709" />
				<path
   class="st46"
   d="m 39.1,81.5 c -2.7,-1.6 -3.7,-1.3 -4.1,-0.9 0.8,0.4 4.1,0.9 4.1,0.9 z"
   id="path711" />
			</g>
			<g
   id="g725">
				<path
   class="st45"
   d="m 92.2,61.1 c 0,0 0.4,14.3 -4.7,17.1 1.6,2.7 -0.1,6.7 -2.2,6.6 2.4,2.4 0.5,6 -1.2,6.9 -1.7,0.6 -4,-0.6 -4,-0.6 0,0 -3.1,-4.9 1,-7.3 C 80,81.2 79.6,78.6 81.5,77 80.1,73.5 77.7,69.1 77.7,69.1 Z"
   id="path715" />
				<path
   class="st46"
   d="m 87.5,78 c 0,0 -2.2,-1.5 -6,-1 1.2,0.5 6,1 6,1 z"
   id="path717" />
				<path
   class="st45"
   d="m 84.1,93.6 c 2.4,1.8 2.9,5 -0.8,7.3 -1.9,1.2 -0.8,2.7 -0.8,2.7 0,0 -9.2,-3.3 -2.3,-10.4 2,0 3.9,0.4 3.9,0.4 z"
   id="path719" />
				<path
   class="st47"
   d="m 84.6,91.3 c 0.9,0.5 0.7,2.4 0.2,2.9 -0.7,0.5 -4.1,0.3 -4.9,-0.4 -1.7,-1.6 -0.1,-3.2 -0.1,-3.2 0,0 2.9,0.7 4.8,0.7 z"
   id="path721" />
				<path
   class="st46"
   d="m 85.2,84.7 c -2.6,-1.6 -3.7,-1.3 -4.1,-0.9 0.9,0.4 4.1,0.9 4.1,0.9 z"
   id="path723" />
			</g>
			<g
   id="g799">
				<g
   id="g773">
					<g
   id="g749">
						<path
   class="st21"
   d="m 29.5,53.9 c -2.8,8.6 -3.4,34.7 20.7,40.6 23.9,5.9 37,-10.7 40.5,-27.3 C 95,47.1 79.2,34.6 65.2,32.7 c -22,-3 -31.9,9.6 -35.7,21.2 z"
   id="path727" />
						<path
   class="st48"
   d="m 71.8,66.9 c 0.1,-0.1 0.2,-0.2 0.2,-0.4 -0.8,-3.3 -3.7,-5 -6,-4.5 -1.5,0.3 -2.8,1.7 -2.2,4.5 0,0.2 0.2,0.3 0.4,0.3 0.2,0 0.3,-0.2 0.3,-0.4 -0.4,-2 0.2,-3.4 1.7,-3.8 1.9,-0.4 4.5,1.1 5.2,4 0,0.2 0.2,0.3 0.4,0.3 z"
   id="path729" />
						<path
   class="st24"
   d="M 29.5,53.9 C 33.3,42.3 43.2,29.7 65.2,32.7 79.2,34.6 95,47.1 90.7,67.1 90.2,69.3 89.6,71.4 88.8,73.5 76.1,64.7 75.2,48.3 75.2,48.3 69.5,61.4 50,52.9 45.8,49.2 37.4,41.8 29,53.3 28.4,61.1 c -0.1,0.2 -0.2,0.4 -0.3,0.6 0.2,-3.1 0.7,-5.9 1.4,-7.8 z"
   id="path731" />
						<path
   class="st49"
   d="m 42.6,74.4 c -0.1,2.2 -3.2,3.8 -6.5,3 -3.3,-0.8 -5,-3.5 -4.7,-6 0.2,-2.3 3.2,-4.2 6.4,-1.8 2.9,2.2 4.8,2.6 4.8,4.8 z"
   id="path733" />
						<path
   class="st50"
   d="m 34,70.9 c 0,0.3 -0.3,0.5 -0.7,0.5 -0.4,0 -0.7,-0.3 -0.6,-0.5 0,-0.3 0.3,-0.5 0.7,-0.5 0.4,0 0.7,0.2 0.6,0.5 z"
   id="path735" />
						<path
   class="st39"
   d="m 53.2,69.3 c 0,0.3 -0.4,0.5 -0.8,0.5 -0.4,0 -0.8,-0.3 -0.7,-0.6 0,-0.3 0.4,-0.5 0.8,-0.5 0.4,0.1 0.8,0.3 0.7,0.6 z"
   id="path737" />
						<path
   class="st49"
   d="m 77.6,72.3 c -0.3,2.9 -3.2,4.9 -7.1,4.9 -3.7,0 -7.3,-3 -6.5,-5.7 0.8,-2.6 2.7,-1.6 7.1,-2.9 4.3,-1.4 6.8,0.7 6.5,3.7 z"
   id="path739" />
						<path
   class="st50"
   d="m 75.1,70.6 c 0,0.3 -0.3,0.5 -0.7,0.4 -0.3,0 -0.6,-0.3 -0.6,-0.5 0,-0.3 0.3,-0.5 0.7,-0.4 0.3,0 0.6,0.2 0.6,0.5 z"
   id="path741" />
						<path
   class="st23"
   d="m 39.3,50.9 c 3.3,-1.3 4.4,2.4 2.1,2.6 -2.4,0.2 -4.4,1.3 -4.7,1.1 -0.8,-0.4 0.7,-3 2.6,-3.7 z"
   id="path743" />
						<path
   class="st23"
   d="m 70.8,57.7 c -3.1,-1.8 -4.7,1.6 -2.5,2.2 2.4,0.6 4.1,2 4.5,1.9 0.7,-0.3 -0.2,-3.1 -2,-4.1 z"
   id="path745" />
						<path
   class="st24"
   d="M 91,66.4 C 92,60.8 90.6,56 87.7,52 c 1.6,3.4 2.4,8.2 1.5,12.6 C 86.2,81.1 71.8,98 50,92 35,87.9 30.2,74.3 29,63.7 29.5,74.6 32.5,87.6 50.1,93.2 70.9,99.8 87.9,82.9 91,66.4 Z"
   id="path747" />
					</g>
					<path
   class="st51"
   d="m 65.8,78.3 c -0.1,-0.2 -0.3,-0.3 -0.5,-0.2 -0.8,0.3 -1.4,0.4 -2,0.1 -1,-0.5 -1.3,-1.7 -1.3,-1.7 -0.1,-0.2 -0.3,-0.3 -0.5,-0.3 -0.2,0.1 -0.3,0.3 -0.3,0.5 0,0.1 0.3,1 1.1,1.7 -1.2,2.1 -3.1,3.3 -5.6,3.5 C 54,82.1 51.2,81 49.5,79 c -0.1,-0.2 -0.4,-0.2 -0.6,-0.1 -0.2,0.1 -0.2,0.4 -0.1,0.6 1.8,2.2 4.9,3.5 7.9,3.2 0.3,0 0.5,-0.1 0.8,-0.1 2.3,-0.4 4.2,-1.7 5.4,-3.8 0.5,0.2 1.1,0.3 1.7,0.2 0.3,-0.1 0.6,-0.2 0.9,-0.3 0.3,0 0.4,-0.2 0.3,-0.4 z"
   id="path751" />
					<path
   class="st42"
   d="m 52.5,72.7 v 0 c -1.3,-0.5 -1.9,-1.4 -1.8,-2.6 0.1,-1.1 0.8,-2 1.7,-2.2 0.5,-0.1 1.6,0 2.6,1.8 0,0.1 0,0.2 -0.1,0.2 -0.1,0 -0.2,0 -0.2,-0.1 -0.6,-1.2 -1.4,-1.8 -2.2,-1.6 -0.7,0.1 -1.4,1 -1.5,1.9 0,0.5 0,1.7 1.5,2.3 0.1,0.1 0.2,0.2 0,0.3 0.1,0 0.1,0 0,0 z"
   id="path753" />
					<g
   id="g771">
						<path
   class="st24"
   d="m 46.7,61.6 c 0.9,2.8 -0.6,5.7 -3.2,6.6 -2.6,0.8 -5.5,-0.8 -6.4,-3.6 -0.9,-2.8 0.6,-5.7 3.2,-6.6 2.7,-0.9 5.5,0.8 6.4,3.6 z"
   id="path755" />
						<path
   class="st24"
   d="m 44.8,66.6 c 1.6,0.3 2,1 0.8,1.7 -1.2,0.7 -3.5,1 -5.2,0.8 -1.6,-0.3 -2,-1 -0.8,-1.7 1.2,-0.8 3.5,-1.1 5.2,-0.8 z"
   id="path757" />
						<path
   class="st2"
   d="m 46.2,61.7 c 0.8,2.8 -0.6,5.7 -3.2,6.5 -2.6,0.8 -5.4,-0.8 -6.3,-3.6 -0.9,-2.8 0.6,-5.7 3.2,-6.5 2.6,-0.8 5.4,0.8 6.3,3.6 z"
   id="path759" />
						<path
   class="st52"
   d="m 45.6,62.1 c -0.2,-0.6 -0.4,-1 -0.8,-1.5 0.1,0.3 0.3,0.5 0.3,0.8 0.7,2.4 -0.5,5 -2.8,5.7 -1.4,0.4 -2.8,0.1 -3.9,-0.8 1.1,1.2 2.8,1.8 4.4,1.3 2.3,-0.6 3.5,-3.1 2.8,-5.5 z"
   id="path761" />
						<path
   class="st53"
   d="m 44.6,63.4 c -0.1,1.6 -1.4,2.7 -2.9,2.6 -1.5,-0.1 -2.6,-1.5 -2.4,-3.1 0.1,-1.6 1.4,-2.7 2.9,-2.6 1.5,0.2 2.6,1.5 2.4,3.1 z"
   id="path763" />
						<path
   class="st54"
   d="m 43.8,63.3 c -0.1,0.9 -0.9,1.6 -1.7,1.6 -0.9,-0.1 -1.5,-0.9 -1.5,-1.8 0.1,-0.9 0.9,-1.6 1.8,-1.6 0.9,0 1.5,0.9 1.4,1.8 z"
   id="path765" />
						<path
   class="st2"
   d="m 41.9,62.1 c 0,0.4 -0.4,0.7 -0.7,0.7 -0.4,0 -0.7,-0.4 -0.6,-0.8 0,-0.4 0.4,-0.7 0.7,-0.7 0.3,0.1 0.6,0.4 0.6,0.8 z"
   id="path767" />
						<path
   class="st2"
   d="m 43.5,64.4 c 0,0.2 -0.2,0.4 -0.4,0.4 -0.2,0 -0.4,-0.2 -0.4,-0.5 0,-0.2 0.2,-0.4 0.4,-0.4 0.3,0 0.4,0.2 0.4,0.5 z"
   id="path769" />
					</g>
				</g>
				<g
   id="g785">
					<path
   class="st45"
   d="m 56,20.9 c 21.9,-2.1 29.8,10.8 29.8,10.8 0,0 8.1,0.3 13,12.1 5.8,13.7 -0.6,23.4 -6.5,32.4 -18,-6.7 -16,-29.8 -16,-29.8 -5.8,13.4 -25.7,4.7 -30,0.9 C 37.7,39.7 29.1,51.4 28.6,59.5 21.4,44.6 34.9,22.9 56,20.9 Z"
   id="path775" />
					<path
   class="st55"
   d="m 86.4,37.1 c 2.2,-1.5 12.8,9.2 9.9,19.6 C 94.4,48.8 91.1,46 91.1,46 c 0,0 4.2,5.5 2.5,17.2 -4.1,-13 -9.7,-16.8 -9.7,-16.8 0,0 3.7,9.4 6.5,14.4 -8.8,-7.6 -11.5,-18.9 -9.5,-21.4 2.1,-2 8.5,8.2 8.5,8.2 0,0 -4.9,-9.2 -3,-10.5 z"
   id="path777" />
					<path
   class="st55"
   d="M 79,31.4 C 73,25.3 62.3,18.8 43.1,27.2 c 10,-2.6 17.2,-0.3 17.2,-0.3 0,0 -22.8,2.2 -29.8,15 6.7,-7.6 22.5,-13.3 36.7,-9.7 -8.2,3.3 -20.5,5 -20.5,5 0,0 19.2,2.8 26,-3.1 -5,6.7 -12.6,8.9 -12.6,8.9 0,0 14,-2 18,-10 -4.2,-2.8 -9.3,-4.7 -17.7,-4.3 6.9,-4.1 18.6,2.7 18.6,2.7 z"
   id="path779" />
					<path
   class="st56"
   d="m 78.3,42.9 c 0.1,0.6 -3.1,23.9 15.7,32.8 6.2,-7.7 4.7,-16.8 4.7,-16.8 0,0 -2.5,8.4 -6.8,6.8 C 79.2,60.7 78.3,42.9 78.3,42.9 Z"
   id="path781" />
					<path
   class="st56"
   d="M 75.9,42.5 C 70.6,49.9 59.8,51.7 50.7,45.8 41.5,39.9 37.2,42.6 35.3,45.6 38.8,43.2 41.7,42.3 47.2,46 59.5,54.3 73,53.8 75.9,42.5 Z"
   id="path783" />
				</g>
				<g
   id="g793">
					<path
   class="st21"
   d="m 85.9,71.6 c 0,0 2,-3.6 6.2,-2.6 4.4,1.1 3.7,7.6 -0.1,10.6 -3.8,2.9 -8.8,1.7 -9,-1.9 z"
   id="path787" />
					<path
   class="st24"
   d="m 91.6,69.3 c -1.1,-0.3 -2,-0.2 -2.8,0 0.6,-0.2 1.3,-0.2 2,0 4.1,1.2 2.9,6.1 0.6,8.5 -3.2,3.2 -7.2,2.3 -8.4,-0.5 0.2,3.3 4.8,4.5 8.4,1.8 3.7,-2.7 4.3,-8.8 0.2,-9.8 z"
   id="path789" />
					<path
   class="st57"
   d="m 92.3,71.1 c -2.5,-1.6 -7,3.1 -4.5,7.5 0,-4.6 2,-5.4 3.2,-2.7 0.5,-1.3 0.1,-2.4 -1.6,-2.9 0.9,-1.7 2.9,-1.9 2.9,-1.9 z"
   id="path791" />
				</g>
				<path
   class="st58"
   d="m 83.9,57 c 4.3,-0.2 8.5,-4.4 8.2,-5.7 -0.7,-0.8 -6,-0.1 -9.1,2.1 -1.8,1.3 -2.1,3.7 0.9,3.6 z m 2.3,-3.9 c 1.2,-0.5 3.5,-1 3.6,-0.6 0.1,0.6 -5.4,4.1 -6.2,2.6 -0.3,-0.6 1,-1.3 2.6,-2 z"
   id="path795" />
				<path
   class="st58"
   d="m 32.2,46.9 c 1.8,-3.3 0.7,-8.5 -0.3,-8.8 -0.9,0.1 -2.8,4.5 -2.6,7.9 0.1,1.9 1.6,3.2 2.9,0.9 z m -1.7,-3.5 c 0.2,-1.1 0.9,-3.1 1.2,-3 0.5,0.2 0.4,6 -0.9,5.9 -0.6,-0.1 -0.5,-1.4 -0.3,-2.9 z"
   id="path797" />
			</g>
		</g>
	</g>
</g>
<g
   id="g849"
   transform="translate(-0.07668457,-0.49158254)">
	<circle
   class="st2"
   cx="794"
   cy="62.099998"
   r="48.299999"
   id="circle807" />
	<g
   id="g847">
		<path
   class="st16"
   d="m 794,111.3 c -27.2,0 -49.3,-22.1 -49.3,-49.3 0,-27.2 22.1,-49.3 49.3,-49.3 27.2,0 49.3,22.1 49.3,49.3 0,27.2 -22.1,49.3 -49.3,49.3 z m 0,-97.5 c -26.6,0 -48.2,21.6 -48.2,48.2 0,26.6 21.6,48.2 48.2,48.2 26.6,0 48.2,-21.6 48.2,-48.2 C 842.3,35.5 820.6,13.8 794,13.8 Z"
   id="path809" />
		<g
   id="g845">
			<g
   id="g843">
				<g
   id="g821">
					<path
   class="st24"
   d="m 779.1,48 c 0,0 -10.2,26.5 -11.9,29.9 -1.7,3.4 -4.4,6.6 -3.9,8.2 0.5,1.7 3.2,2.4 4.4,2.7 1.2,0.3 3.3,1.5 4.6,2.4 1.6,1.1 4.1,2.2 5.3,2.3 0.8,0 1.1,0 1.4,0.4 0.2,0.2 1.6,1.5 2.7,0.8 1.2,-0.7 0.9,-2 0.4,-2.2 -0.9,-0.2 -2.4,-0.4 -2.8,-0.9 -0.4,-0.5 -6.7,-6.6 -7.5,-8.9 -0.6,-1.6 13,-30.6 13.7,-32 C 783.8,50 779.1,48 779.1,48 Z"
   id="path811" />
					<path
   class="st21"
   d="m 779.1,48 c 0,0 -10.5,26.6 -12.2,30 -1.7,3.4 -3.3,6.2 -2.7,7.8 0.6,1.5 2.6,2.1 3.8,2.5 1.8,0.5 3.1,1.7 4.4,2.6 1.6,1.1 3.7,2.2 5,2.2 0.8,0 1.5,0 1.7,0.2 0.1,0.3 1,1.5 2.2,1.1 1.2,-0.4 1.2,-1.6 0.7,-1.9 -0.9,-0.2 -1.5,-0.3 -1.9,-0.9 -0.7,-1.1 -5.6,-3.7 -7.7,-9.1 -0.6,-1.6 12.7,-30.2 13.3,-31.6 -1.4,-0.7 -6.6,-2.9 -6.6,-2.9 z"
   id="path813" />
					<path
   class="st44"
   d="m 780.4,91.9 c 0,0 0,0.5 0.7,0.7 0.7,0.3 1,0.2 1,0.2 v -0.3 c -0.1,0.1 -0.5,-0.3 -1.7,-0.6 z"
   id="path815" />
					<path
   class="st24"
   d="m 767.9,81 c 0,0 -0.9,0.8 -0.8,1.6 0.1,0.8 0,1.5 -0.2,1.9 -0.1,-0.7 0,-1.3 -0.3,-1.8 -0.3,-0.5 0.1,-1.4 1.3,-1.7 z"
   id="path817" />
					<path
   class="st24"
   d="m 776.9,54.9 c 0,0 -1,2.8 -1.6,4.3 3.3,-1.7 5.1,-1.4 5.3,2.1 1.6,-3.1 1.9,-4.7 1.9,-4.7 z"
   id="path819" />
				</g>
				<g
   id="g833">
					<path
   class="st24"
   d="m 796.2,45.7 c 0,0 11.8,30.9 13.1,34.4 1.3,3.5 1.8,7.7 3.3,8.5 1.6,0.8 3.9,-0.6 5,-1.3 1,-0.7 3.4,-1.4 4.9,-1.7 1.9,-0.4 4.4,-1.4 5.3,-2.3 0.6,-0.6 0.7,-0.8 1.3,-0.8 0.3,0 2.1,-0.1 2.4,-1.4 0.3,-1.3 -0.8,-2 -1.4,-1.8 -0.8,0.5 -1.9,1.4 -2.6,1.4 -0.6,0 -9.4,0.4 -11.6,-0.6 -1.6,-0.7 -12.9,-35.8 -13.5,-37.2 -1.6,0.7 -6.2,2.8 -6.2,2.8 z"
   id="path823" />
					<path
   class="st21"
   d="m 796.2,45.7 c 0,0 11.7,31.2 13.1,34.7 1.3,3.5 2.3,6.7 3.9,7.3 1.6,0.6 3.4,-0.5 4.4,-1.1 1.6,-0.9 3.4,-1.1 4.9,-1.4 1.9,-0.4 4.1,-1.3 5,-2.1 0.6,-0.6 1,-1.1 1.3,-1 0.3,0.1 1.8,0.3 2.3,-0.8 0.5,-1.1 -0.3,-2 -0.9,-1.8 -0.8,0.5 -1.3,0.9 -1.9,0.8 -1.3,-0.2 -6.5,1.6 -11.9,-0.7 -1.6,-0.7 -12.9,-35.2 -13.5,-36.7 -1.6,0.5 -6.7,2.8 -6.7,2.8 z"
   id="path825" />
					<path
   class="st44"
   d="m 828.5,80.1 c 0,0 0.3,0.3 1,0 0.7,-0.3 0.8,-0.6 0.8,-0.6 l -0.2,-0.2 c 0.1,0 -0.5,0.1 -1.6,0.8 z"
   id="path827" />
					<path
   class="st24"
   d="m 812,81.8 c 0,0 -0.1,1.2 0.6,1.7 0.7,0.5 1.1,1 1.3,1.4 -0.6,-0.4 -1,-0.9 -1.5,-1 -0.5,-0.2 -0.9,-1 -0.4,-2.1 z"
   id="path829" />
					<path
   class="st24"
   d="m 800.2,54.9 c 0,0 1.2,2.7 1.8,4.2 1.2,-3.5 2.7,-4.6 5.3,-2.1 -1,-3.3 -1.8,-4.7 -1.8,-4.7 z"
   id="path831" />
				</g>
				<g
   id="g841">
					<path
   class="st58"
   d="m 792.6,57.8 c 14.7,-0.8 16.6,-5.1 18.5,-7.1 -3.7,-9.4 -9.6,-21.8 -9.6,-21.8 0,0 -11,3.6 -21.5,0.9 -1.3,3.6 -5.8,15.3 -8.6,21.5 5.4,7.2 14.3,6.8 16.1,6.8"
   id="path835" />
					<path
   class="st59"
   d="m 780,31.5 c 0,0 -1,3.9 -2.3,6 5.5,-3.9 20,-5.6 26.2,-2 -1.3,-3.4 -2.4,-5.4 -2.4,-5.4 z"
   id="path837" />
					<path
   class="st47"
   d="m 779.7,29.4 c 0,0 -1,1.1 -0.6,2.3 4.2,1.5 15.4,1.8 23.4,-1 -0.3,-1.8 -1.3,-2.7 -1.3,-2.7 0,0 -8.4,3.7 -21.5,1.4 z"
   id="path839" />
				</g>
			</g>
		</g>
	</g>
</g>
</svg>
