<?xml version="1.0" encoding="UTF-8" standalone="no"?>
<!-- Created with Inkscape (http://www.inkscape.org/) -->

<svg
   width="32.463898mm"
   height="32.463898mm"
   viewBox="0 0 32.463898 32.463898"
   version="1.1"
   id="svg3324"
   inkscape:version="1.2.2 (732a01da63, 2022-12-09)"
   sodipodi:docname="colors_sel.svg"
   xmlns:inkscape="http://www.inkscape.org/namespaces/inkscape"
   xmlns:sodipodi="http://sodipodi.sourceforge.net/DTD/sodipodi-0.dtd"
   xmlns="http://www.w3.org/2000/svg"
   xmlns:svg="http://www.w3.org/2000/svg">
  <sodipodi:namedview
     id="namedview3326"
     pagecolor="#ffffff"
     bordercolor="#000000"
     borderopacity="0.25"
     inkscape:showpageshadow="2"
     inkscape:pageopacity="0.0"
     inkscape:pagecheckerboard="0"
     inkscape:deskcolor="#d1d1d1"
     inkscape:document-units="mm"
     showgrid="false"
     inkscape:zoom="0.46769781"
     inkscape:cx="330.34151"
     inkscape:cy="-23.51946"
     inkscape:window-width="1366"
     inkscape:window-height="705"
     inkscape:window-x="-8"
     inkscape:window-y="-8"
     inkscape:window-maximized="1"
     inkscape:current-layer="layer1" />
  <defs
     id="defs3321" />
  <g
     inkscape:label="Στρώση 1"
     inkscape:groupmode="layer"
     id="layer1"
     transform="translate(-18.276621,-155.17948)">
    <g
       id="g268"
       transform="matrix(0.21385968,0,0,0.21385968,18.362165,171.41143)">
	<g
   id="g266">
		<g
   id="use264">
			<g
   id="Symbol_4_copy_11_0_Layer0_0_FILL">
				<path
   id="path79"
   class="st0"
   d="m 151.2,-75.8 c -0.1,-0.1 -0.2,-0.1 -0.4,-0.1 H 0 c -0.1,0 -0.3,0.1 -0.3,0.1 -0.1,0.1 -0.1,0.2 -0.1,0.4 V 75.4 c 0,0.1 0.1,0.3 0.1,0.4 0.1,0.1 0.2,0.1 0.3,0.1 h 150.9 c 0.1,0 0.3,-0.1 0.4,-0.1 0.1,-0.1 0.1,-0.2 0.1,-0.4 V -75.4 c 0,-0.2 -0.1,-0.3 -0.2,-0.4 M 0.5,-74.9 H 150.4 V 74.9 H 0.5 Z"
   style="fill:#444444" />

				<path
   id="path81"
   class="st1"
   d="M 150.4,-74.9 H 0.5 V 74.9 H 150.4 V -74.9 m -0.8,0.5 v 0.2 l 0.2,-0.2 V 74.2 H 1.5 1.2 V -74.4 Z"
   style="fill:#f8e8ce" />

				<path
   id="path83"
   class="st2"
   d="m 143.2,-67.6 6.4,-6.5 v -0.2 H 1.2 V 74.2 H 1.4 L 8,67.7 V -67.6 Z"
   style="fill:#ffffff" />

				<path
   id="path85"
   class="st3"
   d="m 143.2,-67.6 v 0 L 143.1,67.5 H 8.3 L 8,67.7 1.5,74.1 H 149.8 V -74.4 l -0.2,0.2 z"
   style="fill:#aaaaaa" />

				<path
   id="path87"
   class="st10"
   d="m 143.1,-67.5 v 0 L 8,-67.6 V 67.7 L 8.3,67.4 H 143 V -67.5 Z"
   style="fill:#ff7300" />

			</g>

		</g>

	</g>

</g>
  </g>
</svg>
