<?xml version="1.0" encoding="UTF-8" standalone="no"?>
<!-- Generator: Adobe Illustrator 27.4.0, SVG Export Plug-In . SVG Version: 6.00 Build 0)  -->

<svg
   version="1.1"
   id="svg504"
   inkscape:version="1.2.2 (732a01da63, 2022-12-09)"
   sodipodi:docname="colors_text.svg"
   x="0px"
   y="0px"
   viewBox="0 0 857.49823 481.59821"
   xml:space="preserve"
   width="857.49823"
   height="481.59821"
   xmlns:inkscape="http://www.inkscape.org/namespaces/inkscape"
   xmlns:sodipodi="http://sodipodi.sourceforge.net/DTD/sodipodi-0.dtd"
   xmlns="http://www.w3.org/2000/svg"
   xmlns:svg="http://www.w3.org/2000/svg"><defs
   id="defs2638" />
<style
   type="text/css"
   id="style2159">
	.st0{fill:#444444;}
	.st1{fill:#F8E8CE;}
	.st2{fill:#FFFFFF;}
	.st3{fill:#AAAAAA;}
	.st4{fill:#C4EF29;}
	.st5{fill:#E5E5E5;}
	.st6{fill:#FFF800;}
	.st7{fill:#FF1A30;}
	.st8{fill:#9D4ABC;}
	.st9{fill:#002AF7;}
	.st10{fill:#FF7300;}
	.st11{fill:#009318;}
	.st12{fill:#C1C1C1;}
	.st13{fill:#A35E1A;}
	.st14{fill:#FF64D7;}
	.st15{fill:#BC1940;}
	.st16{fill:#26E8F7;}
	.st17{fill:#3F3F3F;}
</style>
<sodipodi:namedview
   bordercolor="#666666"
   borderopacity="1"
   gridtolerance="10"
   guidetolerance="10"
   id="namedview506"
   inkscape:current-layer="svg504"
   inkscape:cx="322.32983"
   inkscape:cy="235.89502"
   inkscape:pageopacity="0"
   inkscape:pageshadow="2"
   inkscape:window-height="705"
   inkscape:window-maximized="1"
   inkscape:window-width="1366"
   inkscape:window-x="-8"
   inkscape:window-y="-8"
   inkscape:zoom="0.55533178"
   objecttolerance="10"
   pagecolor="#ffffff"
   showgrid="false"
   inkscape:showpageshadow="2"
   inkscape:pagecheckerboard="0"
   inkscape:deskcolor="#d1d1d1">
	</sodipodi:namedview>
<g
   id="g184"
   transform="matrix(0.80828857,0,0,0.80828857,0.32331543,61.349102)">
	<g
   id="g182">
		<g
   id="use180">
			<g
   id="Symbol_4_copy_4_0_Layer0_0_FILL">
				<path
   id="path2"
   class="st0"
   d="m 151.2,-75.8 c -0.1,-0.1 -0.2,-0.1 -0.4,-0.1 H 0 c -0.1,0 -0.3,0.1 -0.3,0.1 -0.1,0.1 -0.1,0.2 -0.1,0.4 V 75.4 c 0,0.1 0.1,0.3 0.1,0.4 0.1,0.1 0.2,0.1 0.3,0.1 h 150.9 c 0.1,0 0.3,-0.1 0.4,-0.1 0.1,-0.1 0.1,-0.2 0.1,-0.4 V -75.4 c 0,-0.2 -0.1,-0.3 -0.2,-0.4 M 0.5,-74.9 H 150.4 V 74.9 H 0.5 Z" />
				<path
   id="path4"
   class="st1"
   d="M 150.4,-74.9 H 0.5 V 74.9 H 150.4 V -74.9 m -0.8,0.5 v 0.2 l 0.2,-0.2 V 74.2 H 1.5 1.2 V -74.4 Z" />
				<path
   id="path6"
   class="st2"
   d="m 143.2,-67.6 6.4,-6.5 v -0.2 H 1.2 V 74.2 H 1.4 L 8,67.7 V -67.6 Z" />
				<path
   id="path8"
   class="st3"
   d="m 143.2,-67.6 v 0 L 143.1,67.5 H 8.3 L 8,67.7 1.5,74.1 H 149.8 V -74.4 l -0.2,0.2 z" />
				<path
   id="path10"
   class="st4"
   d="m 143.1,-67.5 v 0 L 8,-67.6 V 67.7 L 8.3,67.4 H 143 V -67.5 Z" />
			</g>
		</g>
	</g>
</g>
<g
   id="g190"
   transform="matrix(0.80828857,0,0,0.80828857,122.77332,61.349102)">
	<g
   id="g188">
		<g
   id="use186">
			<g
   id="Symbol_4_0_Layer0_0_FILL">
				<path
   id="path13"
   class="st0"
   d="m 151.2,-75.8 c -0.1,-0.1 -0.2,-0.1 -0.4,-0.1 H 0 c -0.1,0 -0.3,0.1 -0.3,0.1 -0.1,0.1 -0.1,0.2 -0.1,0.4 V 75.4 c 0,0.1 0.1,0.3 0.1,0.4 0.1,0.1 0.2,0.1 0.3,0.1 h 150.9 c 0.1,0 0.3,-0.1 0.4,-0.1 0.1,-0.1 0.1,-0.2 0.1,-0.4 V -75.4 c 0,-0.2 -0.1,-0.3 -0.2,-0.4 M 0.5,-74.9 H 150.4 V 74.9 H 0.5 Z" />
				<path
   id="path15"
   class="st1"
   d="M 150.4,-74.9 H 0.5 V 74.9 H 150.4 V -74.9 m -0.8,0.5 v 0.2 l 0.2,-0.2 V 74.2 H 1.5 1.2 V -74.4 Z" />
				<path
   id="path17"
   class="st2"
   d="m 143.2,-67.6 6.4,-6.5 v -0.2 H 1.2 V 74.2 H 1.4 L 8,67.7 V -67.6 Z" />
				<path
   id="path19"
   class="st3"
   d="m 143.2,-67.6 v 0 L 143.1,67.5 H 8.3 L 8,67.7 1.5,74.1 H 149.8 V -74.4 l -0.2,0.2 z" />
				<path
   id="path21"
   class="st5"
   d="m 143.1,-67.5 v 0 L 8,-67.6 V 67.7 l 0.4,-0.3 h 134.7 z" />
			</g>
		</g>
	</g>
</g>
<g
   id="g196"
   transform="matrix(0.80828857,0,0,0.80828857,245.22332,61.349102)">
	<g
   id="g194">
		<g
   id="use192">
			<g
   id="Symbol_4_copy_12_0_Layer0_0_FILL">
				<path
   id="path24"
   class="st0"
   d="m 151.2,-75.8 c -0.1,-0.1 -0.2,-0.1 -0.4,-0.1 H 0 c -0.1,0 -0.3,0.1 -0.3,0.1 -0.1,0.1 -0.1,0.2 -0.1,0.4 V 75.4 c 0,0.1 0.1,0.3 0.1,0.4 0.1,0.1 0.2,0.1 0.3,0.1 h 150.9 c 0.1,0 0.3,-0.1 0.4,-0.1 0.1,-0.1 0.1,-0.2 0.1,-0.4 V -75.4 c 0,-0.2 -0.1,-0.3 -0.2,-0.4 M 0.5,-74.9 H 150.4 V 74.9 H 0.5 Z" />
				<path
   id="path26"
   class="st1"
   d="M 150.4,-74.9 H 0.5 V 74.9 H 150.4 V -74.9 m -0.8,0.5 v 0.2 l 0.2,-0.2 V 74.2 H 1.5 1.2 V -74.4 Z" />
				<path
   id="path28"
   class="st2"
   d="m 143.2,-67.6 6.4,-6.5 v -0.2 H 1.2 V 74.2 H 1.4 L 8,67.7 V -67.6 Z" />
				<path
   id="path30"
   class="st3"
   d="m 143.2,-67.6 v 0 L 143.1,67.5 H 8.3 L 8,67.7 1.5,74.1 H 149.8 V -74.4 l -0.2,0.2 z" />
				<path
   id="path32"
   class="st6"
   d="m 143.1,-67.5 v 0 L 8,-67.6 V 67.7 L 8.3,67.4 H 143 V -67.5 Z" />
			</g>
		</g>
	</g>
</g>
<g
   id="g202"
   transform="matrix(0.80828857,0,0,0.80828857,367.67332,61.349102)">
	<g
   id="g200">
		<g
   id="use198">
			<g
   id="Symbol_4_0_Layer0_0_FILL_00000023985423339962824070000016960878260546083458_">
				<path
   id="path13_00000066475751140718351140000002757253245767147439_"
   class="st0"
   d="m 151.2,-75.8 c -0.1,-0.1 -0.2,-0.1 -0.4,-0.1 H 0 c -0.1,0 -0.3,0.1 -0.3,0.1 -0.1,0.1 -0.1,0.2 -0.1,0.4 V 75.4 c 0,0.1 0.1,0.3 0.1,0.4 0.1,0.1 0.2,0.1 0.3,0.1 h 150.9 c 0.1,0 0.3,-0.1 0.4,-0.1 0.1,-0.1 0.1,-0.2 0.1,-0.4 V -75.4 c 0,-0.2 -0.1,-0.3 -0.2,-0.4 M 0.5,-74.9 H 150.4 V 74.9 H 0.5 Z" />
				<path
   id="path15_00000111884003530838486090000011628768070478721966_"
   class="st1"
   d="M 150.4,-74.9 H 0.5 V 74.9 H 150.4 V -74.9 m -0.8,0.5 v 0.2 l 0.2,-0.2 V 74.2 H 1.5 1.2 V -74.4 Z" />
				<path
   id="path17_00000033344759383448769230000009325985137981112456_"
   class="st2"
   d="m 143.2,-67.6 6.4,-6.5 v -0.2 H 1.2 V 74.2 H 1.4 L 8,67.7 V -67.6 Z" />
				<path
   id="path19_00000036959843429961924310000016851380611642028455_"
   class="st3"
   d="m 143.2,-67.6 v 0 L 143.1,67.5 H 8.3 L 8,67.7 1.5,74.1 H 149.8 V -74.4 l -0.2,0.2 z" />
				<path
   id="path21_00000096757948684855325940000014940953499356878999_"
   class="st5"
   d="m 143.1,-67.5 v 0 L 8,-67.6 V 67.7 L 8.3,67.4 H 143 V -67.5 Z" />
			</g>
		</g>
	</g>
</g>
<g
   id="g208"
   transform="matrix(0.80828857,0,0,0.80828857,490.12332,61.349102)">
	<g
   id="g206">
		<g
   id="use204">
			<g
   id="Symbol_4_0_Layer0_0_FILL_00000103970770299503391610000012395468197948150708_">
				<path
   id="path13_00000036959554784581584210000001162692629597034911_"
   class="st0"
   d="m 151.2,-75.8 c -0.1,-0.1 -0.2,-0.1 -0.4,-0.1 H 0 c -0.1,0 -0.3,0.1 -0.3,0.1 -0.1,0.1 -0.1,0.2 -0.1,0.4 V 75.4 c 0,0.1 0.1,0.3 0.1,0.4 0.1,0.1 0.2,0.1 0.3,0.1 h 150.9 c 0.1,0 0.3,-0.1 0.4,-0.1 0.1,-0.1 0.1,-0.2 0.1,-0.4 V -75.4 c 0,-0.2 -0.1,-0.3 -0.2,-0.4 M 0.5,-74.9 H 150.4 V 74.9 H 0.5 Z" />
				<path
   id="path15_00000023999165042390411630000011598790013811244672_"
   class="st1"
   d="M 150.4,-74.9 H 0.5 V 74.9 H 150.4 V -74.9 m -0.8,0.5 v 0.2 l 0.2,-0.2 V 74.2 H 1.5 1.2 V -74.4 Z" />
				<path
   id="path17_00000073722821717747135810000002442673045680083388_"
   class="st2"
   d="m 143.2,-67.6 6.4,-6.5 v -0.2 H 1.2 V 74.2 H 1.4 L 8,67.7 V -67.6 Z" />
				<path
   id="path19_00000144299741187194877220000011336311820609020555_"
   class="st3"
   d="m 143.2,-67.6 v 0 L 143.1,67.5 H 8.3 L 8,67.7 1.5,74.1 H 149.8 V -74.4 l -0.2,0.2 z" />
				<path
   id="path21_00000041284369604028125420000003263118888200455834_"
   class="st5"
   d="m 143.1,-67.5 v 0 L 8,-67.6 V 67.7 l 0.4,-0.3 h 134.7 z" />
			</g>
		</g>
	</g>
</g>
<g
   id="g214"
   transform="matrix(0.80828857,0,0,0.80828857,612.57332,61.349102)">
	<g
   id="g212">
		<g
   id="use210">
			<g
   id="Symbol_4_copy_5_0_Layer0_0_FILL">
				<path
   id="path35"
   class="st0"
   d="m 151.2,-75.8 c -0.1,-0.1 -0.2,-0.1 -0.4,-0.1 H 0 c -0.1,0 -0.3,0.1 -0.3,0.1 -0.1,0.1 -0.1,0.2 -0.1,0.4 V 75.4 c 0,0.1 0.1,0.3 0.1,0.4 0.1,0.1 0.2,0.1 0.3,0.1 h 150.9 c 0.1,0 0.3,-0.1 0.4,-0.1 0.1,-0.1 0.1,-0.2 0.1,-0.4 V -75.4 c 0,-0.2 -0.1,-0.3 -0.2,-0.4 M 0.5,-74.9 H 150.4 V 74.9 H 0.5 Z" />
				<path
   id="path37"
   class="st1"
   d="M 150.4,-74.9 H 0.5 V 74.9 H 150.4 V -74.9 m -0.8,0.5 v 0.2 l 0.2,-0.2 V 74.2 H 1.5 1.2 V -74.4 Z" />
				<path
   id="path39"
   class="st2"
   d="m 143.2,-67.6 6.4,-6.5 v -0.2 H 1.2 V 74.2 H 1.4 L 8,67.7 V -67.6 Z" />
				<path
   id="path41"
   class="st3"
   d="m 143.2,-67.6 v 0 L 143.1,67.5 H 8.3 L 8,67.7 1.5,74.1 H 149.8 V -74.4 l -0.2,0.2 z" />
				<path
   id="path43"
   class="st7"
   d="m 143.1,-67.5 v 0 L 8,-67.6 V 67.7 l 0.4,-0.3 h 134.7 z" />
			</g>
		</g>
	</g>
</g>
<g
   id="g220"
   transform="matrix(0.80828857,0,0,0.80828857,735.12332,61.349102)">
	<g
   id="g218">
		<g
   id="use216">
			<g
   id="Symbol_4_0_Layer0_0_FILL_00000097465114906193105230000007980441332277947301_">
				<path
   id="path13_00000112600084518246351000000003855901861241564846_"
   class="st0"
   d="m 151.2,-75.8 c -0.1,-0.1 -0.2,-0.1 -0.4,-0.1 H 0 c -0.1,0 -0.3,0.1 -0.3,0.1 -0.1,0.1 -0.1,0.2 -0.1,0.4 V 75.4 c 0,0.1 0.1,0.3 0.1,0.4 0.1,0.1 0.2,0.1 0.3,0.1 h 150.9 c 0.1,0 0.3,-0.1 0.4,-0.1 0.1,-0.1 0.1,-0.2 0.1,-0.4 V -75.4 c 0,-0.2 -0.1,-0.3 -0.2,-0.4 M 0.5,-74.9 H 150.4 V 74.9 H 0.5 Z" />
				<path
   id="path15_00000010298514573729616390000006835323682184620959_"
   class="st1"
   d="M 150.4,-74.9 H 0.5 V 74.9 H 150.4 V -74.9 m -0.8,0.5 v 0.2 l 0.2,-0.2 V 74.2 H 1.5 1.2 V -74.4 Z" />
				<path
   id="path17_00000040564715728692281850000013689682397306564240_"
   class="st2"
   d="m 143.2,-67.6 6.4,-6.5 v -0.2 H 1.2 V 74.2 H 1.4 L 8,67.7 V -67.6 Z" />
				<path
   id="path19_00000069368566574577519740000015517596098355122080_"
   class="st3"
   d="m 143.2,-67.6 v 0 L 143.1,67.5 H 8.3 L 8,67.7 1.5,74.1 H 149.8 V -74.4 l -0.2,0.2 z" />
				<path
   id="path21_00000172410411641457213570000005248226214628110486_"
   class="st5"
   d="m 143.1,-67.5 v 0 L 8,-67.6 V 67.7 l 0.4,-0.3 h 134.7 z" />
			</g>
		</g>
	</g>
</g>
<g
   id="g226"
   transform="matrix(0.80828857,0,0,0.80828857,0.32331543,180.9991)">
	<g
   id="g224">
		<g
   id="use222">
			<g
   id="Symbol_4_0_Layer0_0_FILL_00000131362508041433524110000004079536574202339250_">
				<path
   id="path13_00000060017992486630436930000015295786080815562386_"
   class="st0"
   d="m 151.2,-75.8 c -0.1,-0.1 -0.2,-0.1 -0.4,-0.1 H 0 c -0.1,0 -0.3,0.1 -0.3,0.1 -0.1,0.1 -0.1,0.2 -0.1,0.4 V 75.4 c 0,0.1 0.1,0.3 0.1,0.4 0.1,0.1 0.2,0.1 0.3,0.1 h 150.9 c 0.1,0 0.3,-0.1 0.4,-0.1 0.1,-0.1 0.1,-0.2 0.1,-0.4 V -75.4 c 0,-0.2 -0.1,-0.3 -0.2,-0.4 M 0.5,-74.9 H 150.4 V 74.9 H 0.5 Z" />
				<path
   id="path15_00000060724520657796487670000004848660067643217854_"
   class="st1"
   d="M 150.4,-74.9 H 0.5 V 74.9 H 150.4 V -74.9 m -0.8,0.5 v 0.2 l 0.2,-0.2 V 74.2 H 1.5 1.2 V -74.4 Z" />
				<path
   id="path17_00000133490272924521528490000009618955350511044009_"
   class="st2"
   d="m 143.2,-67.6 6.4,-6.5 v -0.2 H 1.2 V 74.2 H 1.4 L 8,67.7 V -67.6 Z" />
				<path
   id="path19_00000149370030678593799820000001960901763668441744_"
   class="st3"
   d="m 143.2,-67.6 v 0 L 143.1,67.5 H 8.3 L 8,67.7 1.5,74.1 H 149.8 V -74.4 l -0.2,0.2 z" />
				<path
   id="path21_00000014603529036638390290000012214796685920851584_"
   class="st5"
   d="m 143.1,-67.5 v 0 L 8,-67.6 V 67.7 L 8.3,67.4 H 143 V -67.5 Z" />
			</g>
		</g>
	</g>
</g>
<g
   id="g232"
   transform="matrix(0.80828857,0,0,0.80828857,122.77332,180.9991)">
	<g
   id="g230">
		<g
   id="use228">
			<g
   id="Symbol_4_copy_8_0_Layer0_0_FILL">
				<path
   id="path46"
   class="st0"
   d="m 151.2,-75.8 c -0.1,-0.1 -0.2,-0.1 -0.4,-0.1 H 0 c -0.1,0 -0.3,0.1 -0.3,0.1 -0.1,0.1 -0.1,0.2 -0.1,0.4 V 75.4 c 0,0.1 0.1,0.3 0.1,0.4 0.1,0.1 0.2,0.1 0.3,0.1 h 150.9 c 0.1,0 0.3,-0.1 0.4,-0.1 0.1,-0.1 0.1,-0.2 0.1,-0.4 V -75.4 c 0,-0.2 -0.1,-0.3 -0.2,-0.4 M 0.5,-74.9 H 150.4 V 74.9 H 0.5 Z" />
				<path
   id="path48"
   class="st1"
   d="M 150.4,-74.9 H 0.5 V 74.9 H 150.4 V -74.9 m -0.8,0.5 v 0.2 l 0.2,-0.2 V 74.2 H 1.5 1.2 V -74.4 Z" />
				<path
   id="path50"
   class="st2"
   d="m 143.2,-67.6 6.4,-6.5 v -0.2 H 1.2 V 74.2 H 1.4 L 8,67.7 V -67.6 Z" />
				<path
   id="path52"
   class="st3"
   d="m 143.2,-67.6 v 0 L 143.1,67.5 H 8.3 L 8,67.7 1.5,74.1 H 149.8 V -74.4 l -0.2,0.2 z" />
				<path
   id="path54"
   class="st8"
   d="m 143.1,-67.5 v 0 L 8,-67.6 V 67.7 l 0.4,-0.3 h 134.7 z" />
			</g>
		</g>
	</g>
</g>
<g
   id="g238"
   transform="matrix(0.80828857,0,0,0.80828857,245.22332,180.9991)">
	<g
   id="g236">
		<g
   id="use234">
			<g
   id="Symbol_4_0_Layer0_0_FILL_00000082358676936908971120000018222054325171570307_">
				<path
   id="path13_00000127028626412814560450000013832580486590981301_"
   class="st0"
   d="m 151.2,-75.8 c -0.1,-0.1 -0.2,-0.1 -0.4,-0.1 H 0 c -0.1,0 -0.3,0.1 -0.3,0.1 -0.1,0.1 -0.1,0.2 -0.1,0.4 V 75.4 c 0,0.1 0.1,0.3 0.1,0.4 0.1,0.1 0.2,0.1 0.3,0.1 h 150.9 c 0.1,0 0.3,-0.1 0.4,-0.1 0.1,-0.1 0.1,-0.2 0.1,-0.4 V -75.4 c 0,-0.2 -0.1,-0.3 -0.2,-0.4 M 0.5,-74.9 H 150.4 V 74.9 H 0.5 Z" />
				<path
   id="path15_00000140698197559992058020000014733284184173367467_"
   class="st1"
   d="M 150.4,-74.9 H 0.5 V 74.9 H 150.4 V -74.9 m -0.8,0.5 v 0.2 l 0.2,-0.2 V 74.2 H 1.5 1.2 V -74.4 Z" />
				<path
   id="path17_00000140731055211173677340000010084447712347367091_"
   class="st2"
   d="m 143.2,-67.6 6.4,-6.5 v -0.2 H 1.2 V 74.2 H 1.4 L 8,67.7 V -67.6 Z" />
				<path
   id="path19_00000075842219260670987550000013656480397485884047_"
   class="st3"
   d="m 143.2,-67.6 v 0 L 143.1,67.5 H 8.3 L 8,67.7 1.5,74.1 H 149.8 V -74.4 l -0.2,0.2 z" />
				<path
   id="path21_00000036932525540099398260000016152671747061553537_"
   class="st5"
   d="m 143.1,-67.5 v 0 L 8,-67.6 V 67.7 L 8.3,67.4 H 143 V -67.5 Z" />
			</g>
		</g>
	</g>
</g>
<g
   id="g244"
   transform="matrix(0.80828857,0,0,0.80828857,367.67332,180.9991)">
	<g
   id="g242">
		<g
   id="use240">
			<g
   id="Symbol_4_copy_3_0_Layer0_0_FILL">
				<path
   id="path57"
   class="st0"
   d="m 151.2,-75.8 c -0.1,-0.1 -0.2,-0.1 -0.4,-0.1 H 0 c -0.1,0 -0.3,0.1 -0.3,0.1 -0.1,0.1 -0.1,0.2 -0.1,0.4 V 75.4 c 0,0.1 0.1,0.3 0.1,0.4 0.1,0.1 0.2,0.1 0.3,0.1 h 150.9 c 0.1,0 0.3,-0.1 0.4,-0.1 0.1,-0.1 0.1,-0.2 0.1,-0.4 V -75.4 c 0,-0.2 -0.1,-0.3 -0.2,-0.4 M 0.5,-74.9 H 150.4 V 74.9 H 0.5 Z" />
				<path
   id="path59"
   class="st1"
   d="M 150.4,-74.9 H 0.5 V 74.9 H 150.4 V -74.9 m -0.8,0.5 v 0.2 l 0.2,-0.2 V 74.2 H 1.5 1.2 V -74.4 Z" />
				<path
   id="path61"
   class="st2"
   d="m 143.2,-67.6 6.4,-6.5 v -0.2 H 1.2 V 74.2 H 1.4 L 8,67.7 V -67.6 Z" />
				<path
   id="path63"
   class="st3"
   d="m 143.2,-67.6 v 0 L 143.1,67.5 H 8.3 L 8,67.7 1.5,74.1 H 149.8 V -74.4 l -0.2,0.2 z" />
				<path
   id="path65"
   class="st9"
   d="m 143.1,-67.5 v 0 L 8,-67.6 V 67.7 L 8.3,67.4 H 143 V -67.5 Z" />
			</g>
		</g>
	</g>
</g>
<g
   id="g250"
   transform="matrix(0.80828857,0,0,0.80828857,490.12332,180.9991)">
	<g
   id="g248">
		<g
   id="use246">
			<g
   id="Symbol_4_0_Layer0_0_FILL_00000028302447075379656420000007829875505828288171_">
				<path
   id="path13_00000059276145206739608130000011219558411611858307_"
   class="st0"
   d="m 151.2,-75.8 c -0.1,-0.1 -0.2,-0.1 -0.4,-0.1 H 0 c -0.1,0 -0.3,0.1 -0.3,0.1 -0.1,0.1 -0.1,0.2 -0.1,0.4 V 75.4 c 0,0.1 0.1,0.3 0.1,0.4 0.1,0.1 0.2,0.1 0.3,0.1 h 150.9 c 0.1,0 0.3,-0.1 0.4,-0.1 0.1,-0.1 0.1,-0.2 0.1,-0.4 V -75.4 c 0,-0.2 -0.1,-0.3 -0.2,-0.4 M 0.5,-74.9 H 150.4 V 74.9 H 0.5 Z" />
				<path
   id="path15_00000144326953291269256930000002586891213387773059_"
   class="st1"
   d="M 150.4,-74.9 H 0.5 V 74.9 H 150.4 V -74.9 m -0.8,0.5 v 0.2 l 0.2,-0.2 V 74.2 H 1.5 1.2 V -74.4 Z" />
				<path
   id="path17_00000096038789980122770590000015672751459001787020_"
   class="st2"
   d="m 143.2,-67.6 6.4,-6.5 v -0.2 H 1.2 V 74.2 H 1.4 L 8,67.7 V -67.6 Z" />
				<path
   id="path19_00000003076957460796812790000013176697058185135531_"
   class="st3"
   d="m 143.2,-67.6 v 0 L 143.1,67.5 H 8.3 L 8,67.7 1.5,74.1 H 149.8 V -74.4 l -0.2,0.2 z" />
				<path
   id="path21_00000108292790857965058770000015087419403279899526_"
   class="st5"
   d="m 143.1,-67.5 v 0 L 8,-67.6 V 67.7 l 0.4,-0.3 h 134.7 z" />
			</g>
		</g>
	</g>
</g>
<g
   id="g256"
   transform="matrix(0.80828857,0,0,0.80828857,612.57332,180.9991)">
	<g
   id="g254">
		<g
   id="use252">
			<g
   id="Symbol_4_0_Layer0_0_FILL_00000013184867020930637340000007917106259140938890_">
				<path
   id="path13_00000112593680356463082380000009723786154799551361_"
   class="st0"
   d="m 151.2,-75.8 c -0.1,-0.1 -0.2,-0.1 -0.4,-0.1 H 0 c -0.1,0 -0.3,0.1 -0.3,0.1 -0.1,0.1 -0.1,0.2 -0.1,0.4 V 75.4 c 0,0.1 0.1,0.3 0.1,0.4 0.1,0.1 0.2,0.1 0.3,0.1 h 150.9 c 0.1,0 0.3,-0.1 0.4,-0.1 0.1,-0.1 0.1,-0.2 0.1,-0.4 V -75.4 c 0,-0.2 -0.1,-0.3 -0.2,-0.4 M 0.5,-74.9 H 150.4 V 74.9 H 0.5 Z" />
				<path
   id="path15_00000023263107801313555640000007112393622814080652_"
   class="st1"
   d="M 150.4,-74.9 H 0.5 V 74.9 H 150.4 V -74.9 m -0.8,0.5 v 0.2 l 0.2,-0.2 V 74.2 H 1.5 1.2 V -74.4 Z" />
				<path
   id="path17_00000101804189952800961240000004435976580160484251_"
   class="st2"
   d="m 143.2,-67.6 6.4,-6.5 v -0.2 H 1.2 V 74.2 H 1.4 L 8,67.7 V -67.6 Z" />
				<path
   id="path19_00000160164074066973503440000004523343487220249765_"
   class="st3"
   d="m 143.2,-67.6 v 0 L 143.1,67.5 H 8.3 L 8,67.7 1.5,74.1 H 149.8 V -74.4 l -0.2,0.2 z" />
				<path
   id="path21_00000124128254158660594880000007979322821863817653_"
   class="st5"
   d="m 143.1,-67.5 v 0 L 8,-67.6 V 67.7 l 0.4,-0.3 h 134.7 z" />
			</g>
		</g>
	</g>
</g>
<g
   id="g262"
   transform="matrix(0.80828857,0,0,0.80828857,735.12332,180.9991)">
	<g
   id="g260">
		<g
   id="use258">
			<g
   id="Symbol_4_copy_13_0_Layer0_0_FILL">
				<path
   id="path68"
   class="st0"
   d="m 151.2,-75.8 c -0.1,-0.1 -0.2,-0.1 -0.4,-0.1 H 0 c -0.1,0 -0.3,0.1 -0.3,0.1 -0.1,0.1 -0.1,0.2 -0.1,0.4 V 75.4 c 0,0.1 0.1,0.3 0.1,0.4 0.1,0.1 0.2,0.1 0.3,0.1 h 150.9 c 0.1,0 0.3,-0.1 0.4,-0.1 0.1,-0.1 0.1,-0.2 0.1,-0.4 V -75.4 c 0,-0.2 -0.1,-0.3 -0.2,-0.4 M 0.5,-74.9 H 150.4 V 74.9 H 0.5 Z" />
				<path
   id="path70"
   class="st1"
   d="M 150.4,-74.9 H 0.5 V 74.9 H 150.4 V -74.9 m -0.8,0.5 v 0.2 l 0.2,-0.2 V 74.2 H 1.5 1.2 V -74.4 Z" />
				<path
   id="path72"
   class="st2"
   d="m 143.2,-67.6 6.4,-6.5 v -0.2 H 1.2 V 74.2 H 1.4 L 8,67.7 V -67.6 Z" />
				<path
   id="path74"
   class="st3"
   d="m 143.2,-67.6 v 0 L 143.1,67.5 H 8.3 L 8,67.7 1.5,74.1 H 149.8 V -74.4 l -0.2,0.2 z" />
				<path
   id="path76"
   class="st5"
   d="m 143.1,-67.5 v 0 L 8,-67.6 V 67.7 l 0.4,-0.3 h 134.7 z" />
			</g>
		</g>
	</g>
</g>
<g
   id="g268"
   transform="matrix(0.80828857,0,0,0.80828857,0.32331543,300.5991)">
	<g
   id="g266">
		<g
   id="use264">
			<g
   id="Symbol_4_copy_11_0_Layer0_0_FILL">
				<path
   id="path79"
   class="st0"
   d="m 151.2,-75.8 c -0.1,-0.1 -0.2,-0.1 -0.4,-0.1 H 0 c -0.1,0 -0.3,0.1 -0.3,0.1 -0.1,0.1 -0.1,0.2 -0.1,0.4 V 75.4 c 0,0.1 0.1,0.3 0.1,0.4 0.1,0.1 0.2,0.1 0.3,0.1 h 150.9 c 0.1,0 0.3,-0.1 0.4,-0.1 0.1,-0.1 0.1,-0.2 0.1,-0.4 V -75.4 c 0,-0.2 -0.1,-0.3 -0.2,-0.4 M 0.5,-74.9 H 150.4 V 74.9 H 0.5 Z" />
				<path
   id="path81"
   class="st1"
   d="M 150.4,-74.9 H 0.5 V 74.9 H 150.4 V -74.9 m -0.8,0.5 v 0.2 l 0.2,-0.2 V 74.2 H 1.5 1.2 V -74.4 Z" />
				<path
   id="path83"
   class="st2"
   d="m 143.2,-67.6 6.4,-6.5 v -0.2 H 1.2 V 74.2 H 1.4 L 8,67.7 V -67.6 Z" />
				<path
   id="path85"
   class="st3"
   d="m 143.2,-67.6 v 0 L 143.1,67.5 H 8.3 L 8,67.7 1.5,74.1 H 149.8 V -74.4 l -0.2,0.2 z" />
				<path
   id="path87"
   class="st10"
   d="m 143.1,-67.5 v 0 L 8,-67.6 V 67.7 L 8.3,67.4 H 143 V -67.5 Z" />
			</g>
		</g>
	</g>
</g>
<g
   id="g274"
   transform="matrix(0.80828857,0,0,0.80828857,122.77332,300.5991)">
	<g
   id="g272">
		<g
   id="use270">
			<g
   id="Symbol_4_0_Layer0_0_FILL_00000183928240169165829230000005400074461091822991_">
				<path
   id="path13_00000114042506064714404080000014614724909865606055_"
   class="st0"
   d="m 151.2,-75.8 c -0.1,-0.1 -0.2,-0.1 -0.4,-0.1 H 0 c -0.1,0 -0.3,0.1 -0.3,0.1 -0.1,0.1 -0.1,0.2 -0.1,0.4 V 75.4 c 0,0.1 0.1,0.3 0.1,0.4 0.1,0.1 0.2,0.1 0.3,0.1 h 150.9 c 0.1,0 0.3,-0.1 0.4,-0.1 0.1,-0.1 0.1,-0.2 0.1,-0.4 V -75.4 c 0,-0.2 -0.1,-0.3 -0.2,-0.4 M 0.5,-74.9 H 150.4 V 74.9 H 0.5 Z" />
				<path
   id="path15_00000039126121944962633370000016104749615603015559_"
   class="st1"
   d="M 150.4,-74.9 H 0.5 V 74.9 H 150.4 V -74.9 m -0.8,0.5 v 0.2 l 0.2,-0.2 V 74.2 H 1.5 1.2 V -74.4 Z" />
				<path
   id="path17_00000169529316890158586220000008602430986734131850_"
   class="st2"
   d="m 143.2,-67.6 6.4,-6.5 v -0.2 H 1.2 V 74.2 H 1.4 L 8,67.7 V -67.6 Z" />
				<path
   id="path19_00000024701021402077486840000008457174755173985950_"
   class="st3"
   d="m 143.2,-67.6 v 0 L 143.1,67.5 H 8.3 L 8,67.7 1.5,74.1 H 149.8 V -74.4 l -0.2,0.2 z" />
				<path
   id="path21_00000145051728891035115710000016420115284600273562_"
   class="st5"
   d="m 143.1,-67.5 v 0 L 8,-67.6 V 67.7 l 0.4,-0.3 h 134.7 z" />
			</g>
		</g>
	</g>
</g>
<g
   id="g280"
   transform="matrix(0.80828857,0,0,0.80828857,245.22332,300.5991)">
	<g
   id="g278">
		<g
   id="use276">
			<g
   id="Symbol_4_0_Layer0_0_FILL_00000147183967897259791190000004895823721947045270_">
				<path
   id="path13_00000180354055923391435400000007287963517164441997_"
   class="st0"
   d="m 151.2,-75.8 c -0.1,-0.1 -0.2,-0.1 -0.4,-0.1 H 0 c -0.1,0 -0.3,0.1 -0.3,0.1 -0.1,0.1 -0.1,0.2 -0.1,0.4 V 75.4 c 0,0.1 0.1,0.3 0.1,0.4 0.1,0.1 0.2,0.1 0.3,0.1 h 150.9 c 0.1,0 0.3,-0.1 0.4,-0.1 0.1,-0.1 0.1,-0.2 0.1,-0.4 V -75.4 c 0,-0.2 -0.1,-0.3 -0.2,-0.4 M 0.5,-74.9 H 150.4 V 74.9 H 0.5 Z" />
				<path
   id="path15_00000090278404404105948350000008815752907961940614_"
   class="st1"
   d="M 150.4,-74.9 H 0.5 V 74.9 H 150.4 V -74.9 m -0.8,0.5 v 0.2 l 0.2,-0.2 V 74.2 H 1.5 1.2 V -74.4 Z" />
				<path
   id="path17_00000088845662717361265580000003978229086614782860_"
   class="st2"
   d="m 143.2,-67.6 6.4,-6.5 v -0.2 H 1.2 V 74.2 H 1.4 L 8,67.7 V -67.6 Z" />
				<path
   id="path19_00000116228409885875131060000002518738925734153903_"
   class="st3"
   d="m 143.2,-67.6 v 0 L 143.1,67.5 H 8.3 L 8,67.7 1.5,74.1 H 149.8 V -74.4 l -0.2,0.2 z" />
				<path
   id="path21_00000089561177320265162680000003858807430001638572_"
   class="st5"
   d="m 143.1,-67.5 v 0 L 8,-67.6 V 67.7 L 8.3,67.4 H 143 V -67.5 Z" />
			</g>
		</g>
	</g>
</g>
<g
   id="g286"
   transform="matrix(0.80828857,0,0,0.80828857,367.67332,300.5991)">
	<g
   id="g284">
		<g
   id="use282">
			<g
   id="Symbol_4_copy_7_0_Layer0_0_FILL">
				<path
   id="path90"
   class="st0"
   d="m 151.2,-75.8 c -0.1,-0.1 -0.2,-0.1 -0.4,-0.1 H 0 c -0.1,0 -0.3,0.1 -0.3,0.1 -0.1,0.1 -0.1,0.2 -0.1,0.4 V 75.4 c 0,0.1 0.1,0.3 0.1,0.4 0.1,0.1 0.2,0.1 0.3,0.1 h 150.9 c 0.1,0 0.3,-0.1 0.4,-0.1 0.1,-0.1 0.1,-0.2 0.1,-0.4 V -75.4 c 0,-0.2 -0.1,-0.3 -0.2,-0.4 M 0.5,-74.9 H 150.4 V 74.9 H 0.5 Z" />
				<path
   id="path92"
   class="st1"
   d="M 150.4,-74.9 H 0.5 V 74.9 H 150.4 V -74.9 m -0.8,0.5 v 0.2 l 0.2,-0.2 V 74.2 H 1.5 1.2 V -74.4 Z" />
				<path
   id="path94"
   class="st2"
   d="m 143.2,-67.6 6.4,-6.5 v -0.2 H 1.2 V 74.2 H 1.4 L 8,67.7 V -67.6 Z" />
				<path
   id="path96"
   class="st3"
   d="m 143.2,-67.6 v 0 L 143.1,67.5 H 8.3 L 8,67.7 1.5,74.1 H 149.8 V -74.4 l -0.2,0.2 z" />
				<path
   id="path98"
   class="st5"
   d="m 143.1,-67.5 v 0 L 8,-67.6 V 67.7 L 8.3,67.4 H 143 V -67.5 Z" />
			</g>
		</g>
	</g>
</g>
<g
   id="g292"
   transform="matrix(0.80828857,0,0,0.80828857,490.12332,300.5991)">
	<g
   id="g290">
		<g
   id="use288">
			<g
   id="Symbol_4_0_Layer0_0_FILL_00000147179804079997679130000017396382544841592737_">
				<path
   id="path13_00000109011335669862554910000000041870125219897740_"
   class="st0"
   d="m 151.2,-75.8 c -0.1,-0.1 -0.2,-0.1 -0.4,-0.1 H 0 c -0.1,0 -0.3,0.1 -0.3,0.1 -0.1,0.1 -0.1,0.2 -0.1,0.4 V 75.4 c 0,0.1 0.1,0.3 0.1,0.4 0.1,0.1 0.2,0.1 0.3,0.1 h 150.9 c 0.1,0 0.3,-0.1 0.4,-0.1 0.1,-0.1 0.1,-0.2 0.1,-0.4 V -75.4 c 0,-0.2 -0.1,-0.3 -0.2,-0.4 M 0.5,-74.9 H 150.4 V 74.9 H 0.5 Z" />
				<path
   id="path15_00000030456148904753157480000005246988438413984166_"
   class="st1"
   d="M 150.4,-74.9 H 0.5 V 74.9 H 150.4 V -74.9 m -0.8,0.5 v 0.2 l 0.2,-0.2 V 74.2 H 1.5 1.2 V -74.4 Z" />
				<path
   id="path17_00000100375943645493835690000009305267024508612482_"
   class="st2"
   d="m 143.2,-67.6 6.4,-6.5 v -0.2 H 1.2 V 74.2 H 1.4 L 8,67.7 V -67.6 Z" />
				<path
   id="path19_00000043420457795890633120000001317270149438382464_"
   class="st3"
   d="m 143.2,-67.6 v 0 L 143.1,67.5 H 8.3 L 8,67.7 1.5,74.1 H 149.8 V -74.4 l -0.2,0.2 z" />
				<path
   id="path21_00000006694607668680604500000016515418128432904605_"
   class="st11"
   d="m 143.1,-67.5 v 0 L 8,-67.6 V 67.7 l 0.4,-0.3 h 134.7 z" />
			</g>
		</g>
	</g>
</g>
<g
   id="g298"
   transform="matrix(0.80828857,0,0,0.80828857,612.57332,300.5991)">
	<g
   id="g296">
		<g
   id="use294">
			<g
   id="Symbol_4_copy_6_0_Layer0_0_FILL">
				<path
   id="path101"
   class="st0"
   d="m 151.2,-75.8 c -0.1,-0.1 -0.2,-0.1 -0.4,-0.1 H 0 c -0.1,0 -0.3,0.1 -0.3,0.1 -0.1,0.1 -0.1,0.2 -0.1,0.4 V 75.4 c 0,0.1 0.1,0.3 0.1,0.4 0.1,0.1 0.2,0.1 0.3,0.1 h 150.9 c 0.1,0 0.3,-0.1 0.4,-0.1 0.1,-0.1 0.1,-0.2 0.1,-0.4 V -75.4 c 0,-0.2 -0.1,-0.3 -0.2,-0.4 M 0.5,-74.9 H 150.4 V 74.9 H 0.5 Z" />
				<path
   id="path103"
   class="st1"
   d="M 150.4,-74.9 H 0.5 V 74.9 H 150.4 V -74.9 m -0.8,0.5 v 0.2 l 0.2,-0.2 V 74.2 H 1.5 1.2 V -74.4 Z" />
				<path
   id="path105"
   class="st2"
   d="m 143.2,-67.6 6.4,-6.5 v -0.2 H 1.2 V 74.2 H 1.4 L 8,67.7 V -67.6 Z" />
				<path
   id="path107"
   class="st3"
   d="m 143.2,-67.6 v 0 L 143.1,67.5 H 8.3 L 8,67.7 1.5,74.1 H 149.8 V -74.4 l -0.2,0.2 z" />
				<path
   id="path109"
   class="st5"
   d="m 143.1,-67.5 v 0 L 8,-67.6 V 67.7 l 0.4,-0.3 h 134.7 z" />
			</g>
		</g>
	</g>
</g>
<g
   id="g304"
   transform="matrix(0.80828857,0,0,0.80828857,735.12332,300.5991)">
	<g
   id="g302">
		<g
   id="use300">
			<g
   id="Symbol_4_0_Layer0_0_FILL_00000042723301541708239190000006220011610391269801_">
				<path
   id="path13_00000032634827656256725330000017904363071374961820_"
   class="st0"
   d="m 151.2,-75.8 c -0.1,-0.1 -0.2,-0.1 -0.4,-0.1 H 0 c -0.1,0 -0.3,0.1 -0.3,0.1 -0.1,0.1 -0.1,0.2 -0.1,0.4 V 75.4 c 0,0.1 0.1,0.3 0.1,0.4 0.1,0.1 0.2,0.1 0.3,0.1 h 150.9 c 0.1,0 0.3,-0.1 0.4,-0.1 0.1,-0.1 0.1,-0.2 0.1,-0.4 V -75.4 c 0,-0.2 -0.1,-0.3 -0.2,-0.4 M 0.5,-74.9 H 150.4 V 74.9 H 0.5 Z" />
				<path
   id="path15_00000052090192253687314070000011206305885727831461_"
   class="st1"
   d="M 150.4,-74.9 H 0.5 V 74.9 H 150.4 V -74.9 m -0.8,0.5 v 0.2 l 0.2,-0.2 V 74.2 H 1.5 1.2 V -74.4 Z" />
				<path
   id="path17_00000060030133517313723450000004556328275572514978_"
   class="st2"
   d="m 143.2,-67.6 6.4,-6.5 v -0.2 H 1.2 V 74.2 H 1.4 L 8,67.7 V -67.6 Z" />
				<path
   id="path19_00000076579131080642026730000004256876863186074270_"
   class="st3"
   d="m 143.2,-67.6 v 0 L 143.1,67.5 H 8.3 L 8,67.7 1.5,74.1 H 149.8 V -74.4 l -0.2,0.2 z" />
				<path
   id="path21_00000060029626571349076210000003313651528063065475_"
   class="st5"
   d="m 143.1,-67.5 v 0 L 8,-67.6 V 67.7 l 0.4,-0.3 h 134.7 z" />
			</g>
		</g>
	</g>
</g>
<g
   id="g310"
   transform="matrix(0.80828857,0,0,0.80828857,0.32331543,420.2491)">
	<g
   id="g308">
		<g
   id="use306">
			<g
   id="Symbol_4_0_Layer0_0_FILL_00000025405287331528561990000009400599338834071961_">
				<path
   id="path13_00000181803864809125074000000014199387199319510939_"
   class="st0"
   d="m 151.2,-75.8 c -0.1,-0.1 -0.2,-0.1 -0.4,-0.1 H 0 c -0.1,0 -0.3,0.1 -0.3,0.1 -0.1,0.1 -0.1,0.2 -0.1,0.4 V 75.4 c 0,0.1 0.1,0.3 0.1,0.4 0.1,0.1 0.2,0.1 0.3,0.1 h 150.9 c 0.1,0 0.3,-0.1 0.4,-0.1 0.1,-0.1 0.1,-0.2 0.1,-0.4 V -75.4 c 0,-0.2 -0.1,-0.3 -0.2,-0.4 M 0.5,-74.9 H 150.4 V 74.9 H 0.5 Z" />
				<path
   id="path15_00000142150666251534786280000017542964140042640017_"
   class="st1"
   d="M 150.4,-74.9 H 0.5 V 74.9 H 150.4 V -74.9 m -0.8,0.5 v 0.2 l 0.2,-0.2 V 74.2 H 1.5 1.2 V -74.4 Z" />
				<path
   id="path17_00000019667142940734716360000009495189295859406265_"
   class="st2"
   d="m 143.2,-67.6 6.4,-6.5 v -0.2 H 1.2 V 74.2 H 1.4 L 8,67.7 V -67.6 Z" />
				<path
   id="path19_00000006673654200891350210000011773260730983279294_"
   class="st3"
   d="m 143.2,-67.6 v 0 L 143.1,67.5 H 8.3 L 8,67.7 1.5,74.1 H 149.8 V -74.4 l -0.2,0.2 z" />
				<path
   id="path21_00000147192182778343489230000000948887106823285927_"
   class="st5"
   d="m 143.1,-67.5 v 0 L 8,-67.6 V 67.7 L 8.3,67.4 H 143 V -67.5 Z" />
			</g>
		</g>
	</g>
</g>
<g
   id="g316"
   transform="matrix(0.80828857,0,0,0.80828857,122.77332,420.2491)">
	<g
   id="g314">
		<g
   id="use312">
			<g
   id="Symbol_4_copy_10_0_Layer0_0_FILL">
				<path
   id="path112"
   class="st0"
   d="m 151.2,-75.8 c -0.1,-0.1 -0.2,-0.1 -0.4,-0.1 H 0 c -0.1,0 -0.3,0.1 -0.3,0.1 -0.1,0.1 -0.1,0.2 -0.1,0.4 V 75.4 c 0,0.1 0.1,0.3 0.1,0.4 0.1,0.1 0.2,0.1 0.3,0.1 h 150.9 c 0.1,0 0.3,-0.1 0.4,-0.1 0.1,-0.1 0.1,-0.2 0.1,-0.4 V -75.4 c 0,-0.2 -0.1,-0.3 -0.2,-0.4 M 0.5,-74.9 H 150.4 V 74.9 H 0.5 Z" />
				<path
   id="path114"
   class="st1"
   d="M 150.4,-74.9 H 0.5 V 74.9 H 150.4 V -74.9 m -0.8,0.5 v 0.2 l 0.2,-0.2 V 74.2 H 1.5 1.2 V -74.4 Z" />
				<path
   id="path116"
   class="st2"
   d="m 143.2,-67.6 6.4,-6.5 v -0.2 H 1.2 V 74.2 H 1.4 L 8,67.7 V -67.6 Z" />
				<path
   id="path118"
   class="st3"
   d="m 143.2,-67.6 v 0 L 143.1,67.5 H 8.3 L 8,67.7 1.5,74.1 H 149.8 V -74.4 l -0.2,0.2 z" />
				<path
   id="path120"
   class="st12"
   d="m 143.1,-67.5 v 0 L 8,-67.6 V 67.7 l 0.4,-0.3 h 134.7 z" />
			</g>
		</g>
	</g>
</g>
<g
   id="g322"
   transform="matrix(0.80828857,0,0,0.80828857,245.22332,420.2491)">
	<g
   id="g320">
		<g
   id="use318">
			<g
   id="Symbol_4_0_Layer0_0_FILL_00000031173934801403856280000002171056525361945232_">
				<path
   id="path13_00000015331353167570162670000013697173521361017484_"
   class="st0"
   d="m 151.2,-75.8 c -0.1,-0.1 -0.2,-0.1 -0.4,-0.1 H 0 c -0.1,0 -0.3,0.1 -0.3,0.1 -0.1,0.1 -0.1,0.2 -0.1,0.4 V 75.4 c 0,0.1 0.1,0.3 0.1,0.4 0.1,0.1 0.2,0.1 0.3,0.1 h 150.9 c 0.1,0 0.3,-0.1 0.4,-0.1 0.1,-0.1 0.1,-0.2 0.1,-0.4 V -75.4 c 0,-0.2 -0.1,-0.3 -0.2,-0.4 M 0.5,-74.9 H 150.4 V 74.9 H 0.5 Z" />
				<path
   id="path15_00000100375167927564298480000001572812966749751483_"
   class="st1"
   d="M 150.4,-74.9 H 0.5 V 74.9 H 150.4 V -74.9 m -0.8,0.5 v 0.2 l 0.2,-0.2 V 74.2 H 1.5 1.2 V -74.4 Z" />
				<path
   id="path17_00000129922228991724127220000014451783483991389828_"
   class="st2"
   d="m 143.2,-67.6 6.4,-6.5 v -0.2 H 1.2 V 74.2 H 1.4 L 8,67.7 V -67.6 Z" />
				<path
   id="path19_00000021815701830645649450000014519555231733558940_"
   class="st3"
   d="m 143.2,-67.6 v 0 L 143.1,67.5 H 8.3 L 8,67.7 1.5,74.1 H 149.8 V -74.4 l -0.2,0.2 z" />
				<path
   id="path21_00000025420327193190883910000018269413626207701403_"
   class="st5"
   d="m 143.1,-67.5 v 0 L 8,-67.6 V 67.7 L 8.3,67.4 H 143 V -67.5 Z" />
			</g>
		</g>
	</g>
</g>
<g
   id="g328"
   transform="matrix(0.80828857,0,0,0.80828857,367.67332,420.2491)">
	<g
   id="g326">
		<g
   id="use324">
			<g
   id="Symbol_4_copy_14_0_Layer0_0_FILL">
				<path
   id="path123"
   class="st0"
   d="m 151.2,-75.8 c -0.1,-0.1 -0.2,-0.1 -0.4,-0.1 H 0 c -0.1,0 -0.3,0.1 -0.3,0.1 -0.1,0.1 -0.1,0.2 -0.1,0.4 V 75.4 c 0,0.1 0.1,0.3 0.1,0.4 0.1,0.1 0.2,0.1 0.3,0.1 h 150.9 c 0.1,0 0.3,-0.1 0.4,-0.1 0.1,-0.1 0.1,-0.2 0.1,-0.4 V -75.4 c 0,-0.2 -0.1,-0.3 -0.2,-0.4 M 0.5,-74.9 H 150.4 V 74.9 H 0.5 Z" />
				<path
   id="path125"
   class="st1"
   d="M 150.4,-74.9 H 0.5 V 74.9 H 150.4 V -74.9 m -0.8,0.5 v 0.2 l 0.2,-0.2 V 74.2 H 1.5 1.2 V -74.4 Z" />
				<path
   id="path127"
   class="st2"
   d="m 143.2,-67.6 6.4,-6.5 v -0.2 H 1.2 V 74.2 H 1.4 L 8,67.7 V -67.6 Z" />
				<path
   id="path129"
   class="st3"
   d="m 143.2,-67.6 v 0 L 143.1,67.5 H 8.3 L 8,67.7 1.5,74.1 H 149.8 V -74.4 l -0.2,0.2 z" />
				<path
   id="path131"
   class="st13"
   d="m 143.1,-67.5 v 0 L 8,-67.6 V 67.7 L 8.3,67.4 H 143 V -67.5 Z" />
			</g>
		</g>
	</g>
</g>
<g
   id="g334"
   transform="matrix(0.80828857,0,0,0.80828857,490.12332,420.2491)">
	<g
   id="g332">
		<g
   id="use330">
			<g
   id="Symbol_4_0_Layer0_0_FILL_00000092429423617598533950000015756039165446186392_">
				<path
   id="path13_00000103971296132670550870000006604147196066726788_"
   class="st0"
   d="m 151.2,-75.8 c -0.1,-0.1 -0.2,-0.1 -0.4,-0.1 H 0 c -0.1,0 -0.3,0.1 -0.3,0.1 -0.1,0.1 -0.1,0.2 -0.1,0.4 V 75.4 c 0,0.1 0.1,0.3 0.1,0.4 0.1,0.1 0.2,0.1 0.3,0.1 h 150.9 c 0.1,0 0.3,-0.1 0.4,-0.1 0.1,-0.1 0.1,-0.2 0.1,-0.4 V -75.4 c 0,-0.2 -0.1,-0.3 -0.2,-0.4 M 0.5,-74.9 H 150.4 V 74.9 H 0.5 Z" />
				<path
   id="path15_00000049907601318111615100000014871067557387305135_"
   class="st1"
   d="M 150.4,-74.9 H 0.5 V 74.9 H 150.4 V -74.9 m -0.8,0.5 v 0.2 l 0.2,-0.2 V 74.2 H 1.5 1.2 V -74.4 Z" />
				<path
   id="path17_00000025418837434392228280000007512328040302750091_"
   class="st2"
   d="m 143.2,-67.6 6.4,-6.5 v -0.2 H 1.2 V 74.2 H 1.4 L 8,67.7 V -67.6 Z" />
				<path
   id="path19_00000132072424426233556780000002235161542634455735_"
   class="st3"
   d="m 143.2,-67.6 v 0 L 143.1,67.5 H 8.3 L 8,67.7 1.5,74.1 H 149.8 V -74.4 l -0.2,0.2 z" />
				<path
   id="path21_00000039134978800987063130000007141367675449296061_"
   class="st5"
   d="m 143.1,-67.5 v 0 L 8,-67.6 V 67.7 l 0.4,-0.3 h 134.7 z" />
			</g>
		</g>
	</g>
</g>
<g
   id="g340"
   transform="matrix(0.80828857,0,0,0.80828857,612.57332,420.2491)">
	<g
   id="g338">
		<g
   id="use336">
			<g
   id="Symbol_4_copy_15_0_Layer0_0_FILL">
				<path
   id="path134"
   class="st0"
   d="m 151.2,-75.8 c -0.1,-0.1 -0.2,-0.1 -0.4,-0.1 H 0 c -0.1,0 -0.3,0.1 -0.3,0.1 -0.1,0.1 -0.1,0.2 -0.1,0.4 V 75.4 c 0,0.1 0.1,0.3 0.1,0.4 0.1,0.1 0.2,0.1 0.3,0.1 h 150.9 c 0.1,0 0.3,-0.1 0.4,-0.1 0.1,-0.1 0.1,-0.2 0.1,-0.4 V -75.4 c 0,-0.2 -0.1,-0.3 -0.2,-0.4 M 0.5,-74.9 H 150.4 V 74.9 H 0.5 Z" />
				<path
   id="path136"
   class="st1"
   d="M 150.4,-74.9 H 0.5 V 74.9 H 150.4 V -74.9 m -0.8,0.5 v 0.2 l 0.2,-0.2 V 74.2 H 1.5 1.2 V -74.4 Z" />
				<path
   id="path138"
   class="st2"
   d="m 143.2,-67.6 6.4,-6.5 v -0.2 H 1.2 V 74.2 H 1.4 L 8,67.7 V -67.6 Z" />
				<path
   id="path140"
   class="st3"
   d="m 143.2,-67.6 v 0 L 143.1,67.5 H 8.3 L 8,67.7 1.5,74.1 H 149.8 V -74.4 l -0.2,0.2 z" />
				<path
   id="path142"
   class="st14"
   d="m 143.1,-67.5 v 0 L 8,-67.6 V 67.7 l 0.4,-0.3 h 134.7 z" />
			</g>
		</g>
	</g>
</g>
<g
   id="g346"
   transform="matrix(0.80828857,0,0,0.80828857,735.12332,420.2491)">
	<g
   id="g344">
		<g
   id="use342">
			<g
   id="Symbol_4_0_Layer0_0_FILL_00000080894522724192128430000002514344809887040904_">
				<path
   id="path13_00000109712505714062161760000002549607905483753865_"
   class="st0"
   d="m 151.2,-75.8 c -0.1,-0.1 -0.2,-0.1 -0.4,-0.1 H 0 c -0.1,0 -0.3,0.1 -0.3,0.1 -0.1,0.1 -0.1,0.2 -0.1,0.4 V 75.4 c 0,0.1 0.1,0.3 0.1,0.4 0.1,0.1 0.2,0.1 0.3,0.1 h 150.9 c 0.1,0 0.3,-0.1 0.4,-0.1 0.1,-0.1 0.1,-0.2 0.1,-0.4 V -75.4 c 0,-0.2 -0.1,-0.3 -0.2,-0.4 M 0.5,-74.9 H 150.4 V 74.9 H 0.5 Z" />
				<path
   id="path15_00000119817244499532458180000015409861323385124758_"
   class="st1"
   d="M 150.4,-74.9 H 0.5 V 74.9 H 150.4 V -74.9 m -0.8,0.5 v 0.2 l 0.2,-0.2 V 74.2 H 1.5 1.2 V -74.4 Z" />
				<path
   id="path17_00000172431300477060403750000002657105488891306422_"
   class="st2"
   d="m 143.2,-67.6 6.4,-6.5 v -0.2 H 1.2 V 74.2 H 1.4 L 8,67.7 V -67.6 Z" />
				<path
   id="path19_00000068661330158121573980000016124233799727591325_"
   class="st3"
   d="m 143.2,-67.6 v 0 L 143.1,67.5 H 8.3 L 8,67.7 1.5,74.1 H 149.8 V -74.4 l -0.2,0.2 z" />
				<path
   id="path21_00000137119726250143870930000002482877106972475296_"
   class="st5"
   d="m 143.1,-67.5 v 0 L 8,-67.6 V 67.7 l 0.4,-0.3 h 134.7 z" />
			</g>
		</g>
	</g>
</g>

<g
   id="g358"
   transform="matrix(0.80828857,0,0,0.80828857,612.57061,181.65476)">
	<g
   id="g356">
		<g
   id="use354">
			<g
   id="Symbol_4_copy_0_Layer0_0_FILL">
				<path
   id="path145"
   class="st0"
   d="m 151.2,-75.8 c -0.1,-0.1 -0.2,-0.1 -0.4,-0.1 H 0 c -0.1,0 -0.3,0.1 -0.3,0.1 -0.1,0.1 -0.1,0.2 -0.1,0.4 V 75.4 c 0,0.1 0.1,0.3 0.1,0.4 0.1,0.1 0.2,0.1 0.3,0.1 h 150.9 c 0.1,0 0.3,-0.1 0.4,-0.1 0.1,-0.1 0.1,-0.2 0.1,-0.4 V -75.4 c 0,-0.2 -0.1,-0.3 -0.2,-0.4 M 0.5,-74.9 H 150.4 V 74.9 H 0.5 Z" />
				<path
   id="path147"
   class="st1"
   d="M 150.4,-74.9 H 0.5 V 74.9 H 150.4 V -74.9 m -0.8,0.5 v 0.2 l 0.2,-0.2 V 74.2 H 1.5 1.2 V -74.4 Z" />
				<path
   id="path149"
   class="st2"
   d="m 143.2,-67.6 6.4,-6.5 v -0.2 H 1.2 V 74.2 H 1.4 L 8,67.7 V -67.6 Z" />
				<path
   id="path151"
   class="st3"
   d="m 143.2,-67.6 v 0 L 143.1,67.5 H 8.3 L 8,67.7 1.5,74.1 H 149.8 V -74.4 l -0.2,0.2 z" />
				<path
   id="path153"
   class="st15"
   d="m 143.1,-67.5 v 0 L 8,-67.6 V 67.7 l 0.4,-0.3 h 134.7 z" />
			</g>
		</g>
	</g>
</g>
<g
   id="g364"
   transform="matrix(0.80828857,0,0,0.80828857,735.02061,181.65476)">
	<g
   id="g362">
		<g
   id="use360">
			<g
   id="Symbol_4_0_Layer0_0_FILL_00000007403266518813092720000008962433506318234506_">
				<path
   id="path13_00000015328838498162012240000004128186958364551815_"
   class="st0"
   d="m 151.2,-75.8 c -0.1,-0.1 -0.2,-0.1 -0.4,-0.1 H 0 c -0.1,0 -0.3,0.1 -0.3,0.1 -0.1,0.1 -0.1,0.2 -0.1,0.4 V 75.4 c 0,0.1 0.1,0.3 0.1,0.4 0.1,0.1 0.2,0.1 0.3,0.1 h 150.9 c 0.1,0 0.3,-0.1 0.4,-0.1 0.1,-0.1 0.1,-0.2 0.1,-0.4 V -75.4 c 0,-0.2 -0.1,-0.3 -0.2,-0.4 M 0.5,-74.9 H 150.4 V 74.9 H 0.5 Z" />
				<path
   id="path15_00000132087233209929553470000006317843317766290081_"
   class="st1"
   d="M 150.4,-74.9 H 0.5 V 74.9 H 150.4 V -74.9 m -0.8,0.5 v 0.2 l 0.2,-0.2 V 74.2 H 1.5 1.2 V -74.4 Z" />
				<path
   id="path17_00000034780863704352914500000017034934845469970822_"
   class="st2"
   d="m 143.2,-67.6 6.4,-6.5 v -0.2 H 1.2 V 74.2 H 1.4 L 8,67.7 V -67.6 Z" />
				<path
   id="path19_00000024697855551842072850000003632800904455062154_"
   class="st3"
   d="m 143.2,-67.6 v 0 L 143.1,67.5 H 8.3 L 8,67.7 1.5,74.1 H 149.8 V -74.4 l -0.2,0.2 z" />
				<path
   id="path21_00000129902044992696839220000013462489497575721652_"
   class="st5"
   d="m 143.1,-67.5 v 0 L 8,-67.6 V 67.7 L 8.3,67.4 H 143 V -67.5 Z" />
			</g>
		</g>
	</g>
</g>

<g
   id="g376"
   transform="matrix(0.80828857,0,0,0.80828857,245.42395,302.10408)">
	<g
   id="g374">
		<g
   id="use372">
			<g
   id="Symbol_4_copy_9_0_Layer0_0_FILL">
				<path
   id="path156"
   class="st0"
   d="m 151.2,-75.8 c -0.1,-0.1 -0.2,-0.1 -0.4,-0.1 H 0 c -0.1,0 -0.3,0.1 -0.3,0.1 -0.1,0.1 -0.1,0.2 -0.1,0.4 V 75.4 c 0,0.1 0.1,0.3 0.1,0.4 0.1,0.1 0.2,0.1 0.3,0.1 h 150.9 c 0.1,0 0.3,-0.1 0.4,-0.1 0.1,-0.1 0.1,-0.2 0.1,-0.4 V -75.4 c 0,-0.2 -0.1,-0.3 -0.2,-0.4 M 0.5,-74.9 H 150.4 V 74.9 H 0.5 Z" />
				<path
   id="path158"
   class="st1"
   d="M 150.4,-74.9 H 0.5 V 74.9 H 150.4 V -74.9 m -0.8,0.5 v 0.2 l 0.2,-0.2 V 74.2 H 1.5 1.2 V -74.4 Z" />
				<path
   id="path160"
   class="st2"
   d="m 143.2,-67.6 6.4,-6.5 v -0.2 H 1.2 V 74.2 H 1.4 L 8,67.7 V -67.6 Z" />
				<path
   id="path162"
   class="st3"
   d="m 143.2,-67.6 v 0 L 143.1,67.5 H 8.3 L 8,67.7 1.5,74.1 H 149.8 V -74.4 l -0.2,0.2 z" />
				<path
   id="path164"
   class="st16"
   d="m 143.1,-67.5 v 0 L 8,-67.6 V 67.7 l 0.4,-0.3 h 134.7 z" />
			</g>
		</g>
	</g>
</g>
<g
   id="g382"
   transform="matrix(0.80828857,0,0,0.80828857,367.87395,302.10408)">
	<g
   id="g380">
		<g
   id="use378">
			<g
   id="Symbol_4_0_Layer0_0_FILL_00000090974869975661014950000011291461661280785282_">
				<path
   id="path13_00000127042696936386314140000004305241681079131069_"
   class="st0"
   d="m 151.2,-75.8 c -0.1,-0.1 -0.2,-0.1 -0.4,-0.1 H 0 c -0.1,0 -0.3,0.1 -0.3,0.1 -0.1,0.1 -0.1,0.2 -0.1,0.4 V 75.4 c 0,0.1 0.1,0.3 0.1,0.4 0.1,0.1 0.2,0.1 0.3,0.1 h 150.9 c 0.1,0 0.3,-0.1 0.4,-0.1 0.1,-0.1 0.1,-0.2 0.1,-0.4 V -75.4 c 0,-0.2 -0.1,-0.3 -0.2,-0.4 M 0.5,-74.9 H 150.4 V 74.9 H 0.5 Z" />
				<path
   id="path15_00000127754413878295411830000002569420102989765542_"
   class="st1"
   d="M 150.4,-74.9 H 0.5 V 74.9 H 150.4 V -74.9 m -0.8,0.5 v 0.2 l 0.2,-0.2 V 74.2 H 1.5 1.2 V -74.4 Z" />
				<path
   id="path17_00000000917466572945602570000007624080848190053295_"
   class="st2"
   d="m 143.2,-67.6 6.4,-6.5 v -0.2 H 1.2 V 74.2 H 1.4 L 8,67.7 V -67.6 Z" />
				<path
   id="path19_00000053510746182799860370000004786689672858908549_"
   class="st3"
   d="m 143.2,-67.6 v 0 L 143.1,67.5 H 8.3 L 8,67.7 1.5,74.1 H 149.8 V -74.4 l -0.2,0.2 z" />
				<path
   id="path21_00000018204210395529287920000001254323511060433590_"
   class="st5"
   d="m 143.1,-67.5 v 0 L 8,-67.6 V 67.7 l 0.4,-0.3 h 134.7 z" />
			</g>
		</g>
	</g>
</g>

<g
   id="g2489"
   transform="translate(-120.07668,-0.05089754)">
	<path
   class="st17"
   d="m 152.8,72.3 c -0.1,-1.7 0,-3.4 -0.2,-5.1 -0.1,-1.5 -0.2,-3.8 -1.5,-4.9 -1.8,-1.4 -4.1,1.5 -4.6,2.9 -0.7,2.1 -0.6,4.2 -0.4,6.4 0.1,0.1 0.1,0.2 0.1,0.4 0,0 0,0.1 0,0.1 0.2,0.6 -0.4,1.1 -1,1 -1.2,-0.3 -1.4,-2.6 -1.4,-3.6 -0.1,-1.6 0,-3.3 0.6,-4.9 1,-2.6 3.2,-5.1 6.2,-4.8 1.4,0.1 2.3,0.8 2.9,1.7 v -0.1 c -0.1,-1.8 -0.3,-4 -1.1,-5.6 -1.2,-2.2 -3.7,-2.9 -5.6,-1.1 -0.6,0.5 -1.3,-0.3 -0.9,-0.9 1.3,-1.7 3.4,-2.3 5.4,-1.4 2.1,0.9 3.2,2.8 3.6,5 1.1,5 0.6,9.8 0.1,14.9 -0.1,1.4 -2.1,1.5 -2.2,0 z"
   id="path2477" />
	<path
   class="st17"
   d="m 168.1,66.5 c 0.6,1.9 1.2,3.8 1.7,5.7 0.2,0.9 -0.9,1.4 -1.4,0.6 -0.7,-1.1 -1.2,-2.2 -1.6,-3.4 -0.1,0.1 -0.2,0.3 -0.3,0.4 -1.5,2.5 -4.5,4.8 -7.5,2.8 -5,-3.4 -0.2,-13 4.1,-14.9 0.5,-0.2 1.1,-0.1 1.4,0.4 1.2,1.8 2.1,3.8 2.8,5.9 0.7,-2.1 1.2,-4.1 1.6,-5.2 0.3,-0.9 1.6,-0.5 1.4,0.4 -0.8,2.5 -1.4,5 -2.2,7.3 z m -4.8,-6.4 c -1.6,1.1 -2.8,3.1 -3.4,4.9 -0.6,1.6 -1.8,5.1 0.4,6.1 2.6,1.2 4.4,-0.9 5.7,-3.8 -0.7,-2.4 -1.4,-4.9 -2.7,-7.2 z"
   id="path2479" />
	<path
   class="st17"
   d="m 183.4,60.8 v 0 c -0.2,0.3 -1.1,0.9 -1.2,1.1 -0.5,0.4 -0.9,0.9 -1.4,1.3 -0.4,0.5 -0.9,1 -1.4,1.4 0.2,0.3 0.4,0.5 0.6,0.8 1.8,2.6 4.1,6.3 3.8,9.6 -0.1,1.2 -2,1.6 -2.3,0.3 l -0.2,-1 c 0,-0.1 0,-0.2 0,-0.3 -0.6,-2.8 -1.7,-5.4 -3.3,-7.7 -0.1,0.1 -0.1,0.2 -0.2,0.3 -1.4,1.8 -2.6,3.7 -4,5.5 0,0.1 -0.1,0.2 -0.2,0.3 -0.1,0.1 -0.2,0.3 -0.4,0.4 -0.3,0.8 -1.8,0.4 -1.5,-0.6 0.9,-2.8 3,-5.5 4.8,-7.8 l 0.1,-0.1 c -1.4,-1.8 -3.1,-3.4 -4.9,-4.8 -0.9,-0.4 -0.1,-1.8 0.8,-1.4 2,1.1 3.8,2.8 5.4,4.6 0.6,-0.7 1.3,-1.5 2,-2.2 0.7,-0.7 1.8,-2.2 2.8,-2.4 1.1,-0.2 2.1,0.8 1.5,1.9 -0.2,0.4 -0.5,0.5 -0.8,0.8 z"
   id="path2481" />
	<path
   class="st17"
   d="m 196.9,66.5 c 0.6,1.9 1.2,3.8 1.7,5.7 0.2,0.9 -0.9,1.4 -1.4,0.6 -0.7,-1.1 -1.2,-2.2 -1.6,-3.4 -0.1,0.1 -0.2,0.3 -0.3,0.4 -1.5,2.5 -4.5,4.8 -7.5,2.8 -5,-3.4 -0.2,-13 4.1,-14.9 0.5,-0.2 1.1,-0.1 1.4,0.4 1.2,1.8 2.1,3.8 2.8,5.9 0.7,-2.1 1.2,-4.1 1.6,-5.2 0.3,-0.9 1.6,-0.5 1.4,0.4 -0.8,2.5 -1.3,5 -2.2,7.3 z m -4.8,-6.4 c -1.6,1.1 -2.8,3.1 -3.4,4.9 -0.6,1.6 -1.8,5.1 0.4,6.1 2.6,1.2 4.4,-0.9 5.7,-3.8 -0.7,-2.4 -1.4,-4.9 -2.7,-7.2 z"
   id="path2483" />
	<path
   class="st17"
   d="m 205.5,72.9 c -0.5,0.7 -1.9,0.8 -2,-0.3 -0.6,-4.6 -2.1,-9 -3.3,-13.5 -0.2,-0.7 0.9,-1.2 1.2,-0.5 1.5,3.4 2.7,7 3.6,10.7 0.8,-1.5 1.6,-3 2.2,-4.6 0.9,-2.3 1.1,-4.7 1.9,-6.9 0.4,-1 1.6,-0.7 1.7,0.2 0.7,5.1 -2.7,10.8 -5.3,14.9 z"
   id="path2485" />
	<path
   class="st17"
   d="m 215.5,73 c -4.9,1.5 -2.8,-12.8 -2.1,-14.7 0.2,-0.5 0.9,-0.4 0.9,0.1 0.1,2.6 -0.1,5.3 0.2,7.9 0.1,1.6 0.2,4 1.4,5.3 0.3,0.6 0.1,1.3 -0.4,1.4 z m -1.3,-17.9 c -0.6,0.9 -2.1,0.1 -1.4,-0.8 0.8,-1.2 1.6,-2.5 3,-3.2 0.8,-0.4 1.6,0.6 0.9,1.2 -1,0.8 -1.8,1.7 -2.5,2.8 z"
   id="path2487" />
</g>
<g
   id="g2497"
   transform="translate(-120.07668,-0.05089754)">
	<path
   class="st17"
   d="m 295.5,189.9 c -0.1,-0.1 -0.1,-0.1 -0.2,-0.2 v 0 c -0.7,-1 -1.1,-2 -1.5,-3.1 -0.4,0.8 -0.8,1.6 -1.5,2.3 -1.3,1.4 -3.1,2.1 -4.6,0.4 -0.6,-0.7 -1.1,-1.7 -1.4,-2.6 -0.2,3.1 -0.5,6.1 -0.7,9.2 -0.1,0.8 -1.3,0.8 -1.2,0 -0.4,-6.7 0.6,-13.4 0.6,-20 0,-1.3 1.9,-1.3 1.9,0 0,3.5 0.3,7.5 1.6,10.8 0.2,0.6 0.5,1.5 1.1,1.8 0.6,0.3 1.5,-1.1 1.8,-1.4 2.1,-3.3 1.4,-7.5 1.8,-11.2 0.1,-1.1 1.6,-1.1 1.7,0 0.1,3.7 -0.6,8.8 1.8,11.9 0.2,0.2 0.4,0.4 0.6,0.7 0.8,1.1 -0.9,2.4 -1.8,1.4 z"
   id="path2491" />
	<path
   class="st17"
   d="m 313,189.7 c -2.5,1.9 -4.6,0.4 -5.9,-2 -0.9,1.4 -2.3,2.6 -4,2.5 -2.9,-0.2 -4,-4 -4,-6.3 0,-3 0.7,-6.7 3.2,-8.5 0.7,-0.5 1.3,0.5 0.8,1.1 -1.5,1.9 -2.2,4.5 -2.1,7 0.1,1.1 0.4,4.8 2.2,4.6 0.9,-0.1 2,-1.6 2.6,-3.1 -0.5,-1.7 -0.6,-3.5 -0.2,-4.6 0.3,-0.9 1.3,-1.1 2.1,-0.6 1.4,1.1 1.1,3.3 0.6,5 0.1,0.4 0.3,0.8 0.5,1.2 0.6,1.2 2,3.2 3,1.2 1.4,-2.5 1.5,-7.9 -0.5,-10.2 -1,-1.1 0.5,-2.6 1.6,-1.6 1.9,1.6 2.3,4.8 2.3,7.1 0.2,2.3 -0.1,5.5 -2.2,7.2 z"
   id="path2493" />
	<path
   class="st17"
   d="m 319.7,190.2 c 0.1,1.7 0.2,3.4 0.3,5 0,1.1 -1.6,1 -1.7,0 -0.6,-6.1 -1.6,-12.3 -0.5,-18.5 0.5,-2.7 1.4,-8.2 4.9,-8.6 3.5,-0.4 5.3,4.3 4.4,7.1 -0.5,1.6 -1.4,3.1 -2.6,4.5 1.8,-0.3 3.5,0.1 4,1.9 1.4,5 -4.6,8.2 -8.8,8.6 z m 4.7,-20.2 c -1.5,-0.9 -2.4,0.4 -3,1.7 -1.4,3.3 -1.9,6.8 -2,10.4 0.6,-0.5 1.5,-1.1 2.5,-1.6 1,-0.8 3.4,-3.3 4,-5.2 0.6,-1.8 0.4,-4.2 -1.5,-5.3 z m -2.7,12.4 c -0.6,0.4 -1.1,0.8 -1.7,1.2 -0.2,0.1 -0.4,0.1 -0.6,0.1 0,1.6 0.1,3.3 0.2,4.9 3.1,-0.5 7.9,-2.3 7.4,-6.2 -0.3,-2.1 -3.3,-1.1 -5.3,0 z"
   id="path2495" />
</g>
<g
   id="g2513"
   transform="translate(-122.07668,-0.05089754)">
	<path
   class="st17"
   d="m 404.7,73.1 c -0.9,-2 -2.3,-3.4 -3.8,-4.9 -0.7,-0.7 -1.6,-1.6 -2.2,-2.6 -1.1,2 -2.2,4.2 -2.3,6.4 -0.1,1.1 -1.5,1.2 -1.8,0.3 -0.8,-2.3 -0.9,-4.8 -0.7,-7.2 0.2,-2.4 0.4,-5 1.3,-7.2 0.2,-0.4 0.7,-0.4 0.8,0.1 0.2,2.3 -0.4,4.7 -0.5,7.1 0,0.8 0,1.7 0,2.5 0.7,-1.8 1.7,-3.4 2.7,-4.8 1.8,-2.4 4.6,-5.5 8,-4.7 0.7,0.2 0.8,1.4 0,1.5 -2.8,0.4 -4.8,2.1 -6.4,4.3 1.1,1.5 2.5,2.6 3.9,3.8 1.4,1.2 2.7,2.9 2.6,4.9 0,0.9 -1.2,1.3 -1.6,0.5 z"
   id="path2499" />
	<path
   class="st17"
   d="m 411.5,73 c -4.9,1.5 -2.8,-12.8 -2.1,-14.7 0.2,-0.5 0.9,-0.4 0.9,0.1 0.1,2.6 -0.1,5.3 0.2,7.9 0.1,1.6 0.2,4 1.4,5.3 0.4,0.6 0.2,1.3 -0.4,1.4 z m -1.3,-17.9 c -0.6,0.9 -2.1,0.1 -1.4,-0.8 0.8,-1.2 1.6,-2.5 3,-3.2 0.8,-0.4 1.6,0.6 0.9,1.2 -0.9,0.8 -1.7,1.7 -2.5,2.8 z"
   id="path2501" />
	<path
   class="st17"
   d="m 419.7,71.5 c 1,1.1 -0.6,2.8 -1.7,1.7 -3.6,-3.3 -2.9,-9.3 0.2,-12.7 -1.6,0.1 -3.1,0 -4.7,-0.5 -0.9,-0.3 -0.5,-1.5 0.2,-1.5 2.6,0.2 6.2,-0.3 8.7,-0.6 0.5,-0.1 1,-0.1 1.6,-0.1 1.4,0 1.4,2.1 0,2.2 -5.5,0.2 -7.6,7.8 -4.3,11.5 z"
   id="path2503" />
	<path
   class="st17"
   d="m 428.9,72.2 c -0.1,0 -0.1,0 -0.2,-0.1 V 72 c -0.4,-0.3 -0.4,-0.9 0.1,-1.1 1.4,-0.4 2.8,-0.1 4,-1 0.9,-0.7 1.4,-1.6 1.6,-2.7 0.3,-2.1 0.1,-6.1 -2.1,-7.2 -3.4,-1.6 -4.6,5.7 -4.6,7.6 0,3.5 0.9,6.9 1.8,10.2 0.4,1.7 -2.1,2.2 -2.5,0.7 -1.2,-4.9 -2.6,-10.9 -0.6,-16.3 1.1,-3 4.4,-6.3 7.5,-3.8 2.6,2.1 3.4,7 2.3,10.1 -0.9,2.9 -4.4,5 -7.3,3.7 z"
   id="path2505" />
	<path
   class="st17"
   d="m 441.4,73 c -4.9,1.5 -2.8,-12.8 -2.1,-14.7 0.2,-0.5 0.9,-0.4 0.9,0.1 0.1,2.6 -0.1,5.3 0.2,7.9 0.1,1.6 0.2,4 1.4,5.3 0.4,0.6 0.2,1.3 -0.4,1.4 z"
   id="path2507" />
	<path
   class="st17"
   d="m 448.5,72.9 c -0.5,0.7 -1.9,0.8 -2,-0.3 -0.6,-4.6 -2.1,-9 -3.3,-13.5 -0.2,-0.7 0.9,-1.2 1.2,-0.5 1.5,3.4 2.7,7 3.6,10.7 0.8,-1.5 1.6,-3 2.2,-4.6 0.9,-2.3 1.1,-4.7 1.9,-6.9 0.4,-1 1.6,-0.7 1.7,0.2 0.7,5.1 -2.7,10.8 -5.3,14.9 z"
   id="path2509" />
	<path
   class="st17"
   d="m 455.5,70.2 c -0.7,-1.6 -0.1,-4.4 1.2,-6.5 -0.5,-0.2 -0.8,-0.8 -0.5,-1.3 0.4,-0.6 0.7,-1.2 1.1,-1.8 2.3,-3.1 6.5,-3.9 8.6,-0.1 1.6,3 2.1,7.6 0,10.5 -2.2,3.2 -8.7,3.3 -10.4,-0.8 z m 8.1,-9.5 c -1.2,-1.3 -2.5,-0.8 -3.6,0.2 0.8,-0.2 1.7,0 2.6,0.7 0.5,0.4 -0.2,1.3 -0.7,0.9 -2.8,-2 -7.7,6.7 -2.7,8.3 2.7,0.9 5,0.1 5.7,-2.9 0.6,-2.2 0.4,-5.4 -1.3,-7.2 z"
   id="path2511" />
</g>
<g
   id="g2523"
   transform="translate(-120.07668,-0.05089754)">
	<path
   class="st17"
   d="m 534.3,189.9 c -0.1,-0.1 -0.1,-0.1 -0.2,-0.2 v 0 c -0.7,-1 -1.1,-2 -1.5,-3.1 -0.4,0.8 -0.8,1.6 -1.5,2.3 -1.3,1.4 -3.1,2.1 -4.5,0.4 -0.6,-0.7 -1.1,-1.7 -1.4,-2.6 -0.2,3.1 -0.5,6.1 -0.7,9.2 -0.1,0.8 -1.3,0.8 -1.2,0 -0.4,-6.7 0.6,-13.4 0.6,-20 0,-1.3 1.9,-1.3 1.9,0 0,3.5 0.3,7.5 1.6,10.8 0.2,0.6 0.5,1.5 1.1,1.8 0.6,0.3 1.5,-1.1 1.8,-1.4 2.1,-3.3 1.4,-7.5 1.8,-11.2 0.1,-1.1 1.6,-1.1 1.7,0 0.1,3.7 -0.6,8.8 1.8,11.9 0.2,0.2 0.4,0.4 0.6,0.7 0.7,1.1 -1,2.4 -1.9,1.4 z"
   id="path2515" />
	<path
   class="st17"
   d="m 551.4,177.6 c -1.3,0.1 -2.7,-0.2 -4,-0.3 0.3,0.3 -0.1,-0.1 0.2,0.3 0.3,0.3 0.3,0.8 0.4,1.1 0.1,1.2 0.1,2.4 0.2,3.6 0.1,2.4 -0.1,4.9 0.1,7.3 0.1,1.6 -2.3,1.6 -2.5,0 0,-0.3 0,-0.6 0.1,-0.9 0.1,-2 0.2,-4.1 0.3,-6.1 0.1,-1.1 0.1,-2.3 0.1,-3.5 0,-0.4 0.1,-0.7 0.1,-1.1 0,-0.2 0.1,-0.3 0.2,-0.5 0,-0.2 0.1,-0.3 0.2,-0.4 -0.8,-0.1 -1.5,-0.1 -2.3,-0.1 -0.8,0 -1.6,0.1 -2.4,0.2 0,1.6 -0.4,3.2 -0.5,4.7 -0.2,1.7 -0.4,3.4 -0.3,5.1 0.3,0.8 0.4,1.4 0.4,2.3 -0.1,1.2 -2.1,1.7 -2.3,0.3 -0.4,-2.7 -0.2,-5.3 0.3,-8 0.2,-1.4 0.6,-2.8 0.8,-4.2 0,0 -0.1,0 -0.1,0 -0.9,0.2 -1.8,0.7 -2.8,0.9 -0.7,0.3 -1.1,-0.7 -0.7,-1.2 1.6,-1.8 4.9,-2.2 7.1,-2.3 2.3,-0.2 5.8,-0.5 7.8,1 0.7,0.6 0.5,1.7 -0.4,1.8 z"
   id="path2517" />
	<path
   class="st17"
   d="m 561.1,189.3 c -0.1,-1.7 0,-3.4 -0.2,-5.1 -0.1,-1.5 -0.2,-3.8 -1.5,-4.9 -1.8,-1.4 -4.1,1.5 -4.6,2.9 -0.7,2.1 -0.6,4.2 -0.4,6.4 0.1,0.1 0.1,0.2 0.1,0.4 0,0 0,0.1 0,0.1 0.2,0.6 -0.4,1.1 -1,1 -1.2,-0.3 -1.4,-2.6 -1.4,-3.6 -0.1,-1.6 0,-3.3 0.6,-4.9 1,-2.6 3.2,-5.1 6.2,-4.8 1.3,0.1 2.3,0.8 2.9,1.7 v -0.1 c -0.1,-1.8 -0.3,-4 -1.1,-5.6 -1.2,-2.2 -3.7,-2.9 -5.6,-1.1 -0.6,0.5 -1.3,-0.3 -0.9,-0.9 1.3,-1.7 3.4,-2.3 5.4,-1.4 2.1,0.9 3.2,2.8 3.6,5 1.1,5 0.6,9.8 0.1,14.9 -0.1,1.4 -2.1,1.5 -2.2,0 z"
   id="path2519" />
	<path
   class="st17"
   d="m 571.6,190.2 c -2.2,0.4 -4.6,-0.3 -5.8,-2.4 -1.3,-2.3 0.2,-4.6 2.3,-6.3 -1.1,-0.5 -2.1,-1.5 -1.7,-2.8 1.2,-3.4 7.1,-5 9.7,-2.2 0.5,0.5 -0.2,1.2 -0.8,0.7 -1.8,-1.5 -6.2,-0.7 -7.2,1.5 -0.6,1.3 0.9,1.5 2.3,1.3 0.7,-0.4 1.4,-0.6 2,-0.8 0.8,-0.2 1.6,0.9 0.9,1.5 -0.6,0.5 -1.4,0.9 -2.2,1 -2,1.1 -4.3,3.1 -3.6,4.9 0.8,1.8 3.4,1.8 4.8,0.8 1.3,-0.9 2.3,-2.1 3.2,-3.3 0.7,-0.9 2.1,0.3 1.5,1.2 -1.1,1.9 -2.8,4.5 -5.4,4.9 z"
   id="path2521" />
</g>
<g
   id="g2539"
   transform="translate(-122.07668,-0.05089754)">
	<path
   class="st17"
   d="m 644,299.5 c -1.3,0.1 -2.7,-0.2 -4,-0.3 0.3,0.3 -0.1,-0.1 0.2,0.3 0.3,0.3 0.3,0.8 0.4,1.1 0.1,1.2 0.1,2.4 0.2,3.6 0.1,2.4 -0.1,4.9 0.1,7.3 0.1,1.6 -2.3,1.6 -2.5,0 0,-0.3 0,-0.6 0.1,-0.9 0.1,-2 0.2,-4.1 0.3,-6.1 0.1,-1.1 0.1,-2.3 0.1,-3.5 0,-0.4 0.1,-0.7 0.1,-1.1 0,-0.2 0.1,-0.3 0.2,-0.5 0,-0.2 0.1,-0.3 0.2,-0.4 -0.8,-0.1 -1.5,-0.1 -2.3,-0.1 -0.8,0 -1.6,0.1 -2.4,0.2 0,1.6 -0.4,3.2 -0.5,4.7 -0.2,1.7 -0.4,3.4 -0.3,5.1 0.3,0.8 0.4,1.4 0.4,2.3 -0.1,1.2 -2.1,1.7 -2.3,0.3 -0.4,-2.7 -0.2,-5.3 0.3,-8 0.2,-1.4 0.6,-2.8 0.8,-4.2 0,0 -0.1,0 -0.1,0 -0.9,0.2 -1.8,0.7 -2.8,0.9 -0.7,0.3 -1.1,-0.7 -0.7,-1.2 1.6,-1.8 4.9,-2.2 7.1,-2.3 2.3,-0.2 5.8,-0.5 7.8,1 0.7,0.7 0.5,1.7 -0.4,1.8 z"
   id="path2525" />
	<path
   class="st17"
   d="m 648.1,311.1 c -0.1,0 -0.1,0 -0.2,-0.1 v -0.1 c -0.4,-0.3 -0.4,-0.9 0.1,-1.1 1.4,-0.4 2.8,-0.1 4,-1 0.9,-0.7 1.4,-1.6 1.6,-2.7 0.3,-2.1 0.1,-6.1 -2.1,-7.2 -3.4,-1.6 -4.6,5.7 -4.6,7.6 0,3.5 0.9,6.9 1.8,10.2 0.4,1.7 -2.1,2.2 -2.5,0.7 -1.2,-4.9 -2.6,-10.9 -0.6,-16.3 1.1,-3 4.4,-6.3 7.5,-3.8 2.6,2.1 3.4,7 2.3,10.1 -0.8,2.9 -4.4,5.1 -7.3,3.7 z"
   id="path2527" />
	<path
   class="st17"
   d="m 668.4,305.4 c 0.6,1.9 1.2,3.8 1.8,5.7 0.2,0.9 -1,1.4 -1.4,0.6 -0.7,-1.1 -1.2,-2.2 -1.6,-3.4 -0.1,0.1 -0.2,0.3 -0.3,0.4 -1.5,2.5 -4.5,4.8 -7.5,2.8 -5,-3.4 -0.2,-13 4.1,-14.9 0.6,-0.2 1.1,-0.1 1.4,0.4 1.2,1.8 2.1,3.8 2.8,5.9 0.7,-2.1 1.2,-4.1 1.6,-5.2 0.3,-0.9 1.6,-0.5 1.3,0.4 -0.8,2.5 -1.3,5 -2.2,7.3 z m -4.8,-6.4 c -1.6,1.1 -2.8,3.1 -3.4,4.9 -0.6,1.6 -1.8,5.1 0.4,6.1 2.6,1.2 4.4,-0.9 5.8,-3.8 -0.8,-2.4 -1.5,-4.9 -2.8,-7.2 z m 2.2,-5 c -0.6,0.9 -2.1,0.1 -1.4,-0.8 0.8,-1.2 1.6,-2.5 3,-3.2 0.8,-0.4 1.6,0.6 0.9,1.2 -0.9,0.8 -1.7,1.8 -2.5,2.8 z"
   id="path2529" />
	<path
   class="st17"
   d="m 680,299.5 c -0.9,0 -2,-0.2 -2.9,0.1 -2.6,0.8 -3.3,5 -2.5,7.2 0.6,1.4 1.7,2.8 3.3,3.2 1.3,0.3 3.2,-0.2 3.5,-1.7 0.5,-2.1 -0.4,-6.1 -2.9,-6.8 -0.9,-0.2 -0.5,-1.6 0.4,-1.4 3.4,0.6 5.1,5.7 4.4,8.7 -0.9,4.1 -6.5,4.3 -9,1.6 -3,-3.2 -3.2,-8.5 0,-11.7 2.4,-2.4 6.6,-1.5 9.6,-1.5 1.1,0 1.2,1.4 0.2,1.8 -1.2,0.5 -2.6,0.6 -4.1,0.5 z"
   id="path2531" />
	<path
   class="st17"
   d="m 689.3,312 c -4.9,1.5 -2.8,-12.8 -2.1,-14.7 0.2,-0.5 0.9,-0.4 0.9,0.1 0.1,2.6 -0.1,5.3 0.2,7.9 0.1,1.6 0.2,4 1.4,5.3 0.3,0.5 0.1,1.2 -0.4,1.4 z"
   id="path2533" />
	<path
   class="st17"
   d="m 696.4,311.8 c -0.5,0.7 -1.9,0.8 -2,-0.3 -0.6,-4.6 -2.1,-9 -3.3,-13.5 -0.2,-0.7 0.9,-1.2 1.2,-0.5 1.5,3.4 2.7,7 3.6,10.7 0.8,-1.5 1.6,-3 2.2,-4.6 0.9,-2.3 1.1,-4.7 1.9,-6.9 0.4,-1 1.6,-0.7 1.7,0.2 0.6,5.2 -2.7,10.8 -5.3,14.9 z"
   id="path2535" />
	<path
   class="st17"
   d="m 703.4,309.1 c -0.7,-1.6 -0.1,-4.4 1.2,-6.5 -0.5,-0.2 -0.8,-0.8 -0.5,-1.3 0.4,-0.6 0.7,-1.2 1.1,-1.8 2.3,-3.1 6.5,-3.9 8.6,-0.1 1.6,3 2.1,7.6 0,10.5 -2.3,3.2 -8.7,3.3 -10.4,-0.8 z m 8.1,-9.4 c -1.2,-1.3 -2.5,-0.8 -3.6,0.2 0.8,-0.2 1.7,0 2.6,0.7 0.5,0.4 -0.2,1.3 -0.7,0.9 -2.8,-2 -7.7,6.7 -2.7,8.3 2.7,0.9 5,0.1 5.7,-2.9 0.5,-2.3 0.3,-5.5 -1.3,-7.2 z"
   id="path2537" />
</g>
<g
   id="g2547"
   transform="translate(-118.07668,-0.05089754)">
	<path
   class="st17"
   d="m 779.9,427.9 c -0.1,0 -0.1,0 -0.2,-0.1 v -0.1 c -0.4,-0.3 -0.4,-0.9 0.1,-1.1 1.4,-0.4 2.8,-0.1 4,-1 0.9,-0.7 1.4,-1.6 1.6,-2.7 0.3,-2.1 0.1,-6.1 -2.1,-7.2 -3.4,-1.6 -4.6,5.7 -4.6,7.6 0,3.5 0.9,6.9 1.8,10.2 0.4,1.7 -2.1,2.2 -2.5,0.7 -1.2,-4.9 -2.6,-10.9 -0.6,-16.3 1.1,-3 4.4,-6.3 7.5,-3.8 2.6,2.1 3.4,7 2.3,10.1 -0.8,2.9 -4.4,5 -7.3,3.7 z"
   id="path2541" />
	<path
   class="st17"
   d="m 789.6,425.8 c -0.7,-1.6 -0.1,-4.4 1.2,-6.5 -0.5,-0.2 -0.8,-0.8 -0.5,-1.3 0.4,-0.6 0.7,-1.2 1.1,-1.8 2.3,-3.1 6.5,-3.9 8.6,-0.1 1.6,3 2.1,7.6 0,10.5 -2.3,3.3 -8.7,3.4 -10.4,-0.8 z m 8.1,-9.4 c -1.2,-1.3 -2.5,-0.8 -3.6,0.2 0.8,-0.2 1.7,0 2.6,0.7 0.5,0.4 -0.2,1.3 -0.7,0.9 -2.8,-2 -7.7,6.7 -2.7,8.3 2.7,0.9 5,0.1 5.7,-2.9 0.5,-2.2 0.3,-5.4 -1.3,-7.2 z"
   id="path2543" />
	<path
   class="st17"
   d="m 804.7,433.5 c -2.7,-2.5 -1.8,-6.7 0.7,-8.9 0.7,-0.6 1.6,0.3 1.1,1.1 -1.1,1.3 -1.8,3.4 -1.2,5.1 0.6,1.6 2.2,2.2 3.8,1.7 4.5,-1.3 3.7,-6.3 1.4,-9.3 -2.1,-2.7 -6.4,-4.8 -6,-8.7 0.2,-1.7 1.4,-3.1 2.9,-4.2 -0.1,0 -0.2,0 -0.4,0 -0.9,0 -3.3,0.1 -3.6,-1.1 -0.1,-0.5 0.6,-0.8 0.8,-0.4 0.3,0.6 4.1,0 4.7,-0.1 1.1,-0.1 2.1,-0.2 3.2,-0.3 0.4,0 0.8,-0.1 1.1,0 1,0 1,1.6 0,1.6 -2.3,0 -7.8,2.3 -6.9,5.4 0.7,2.3 3.1,3.6 4.7,5.3 2.4,2.6 4.5,7 2.8,10.5 -1.5,3 -6.4,4.8 -9.1,2.3 z"
   id="path2545" />
</g>
<g
   id="g2557"
   transform="translate(-124.07668,-0.05089754)">
	<path
   class="st17"
   d="m 534.9,428.8 c -0.9,-2 -2.3,-3.4 -3.8,-4.9 -0.7,-0.7 -1.6,-1.6 -2.2,-2.6 -1.1,2 -2.2,4.2 -2.3,6.4 -0.1,1.1 -1.5,1.2 -1.8,0.3 -0.8,-2.3 -0.9,-4.8 -0.7,-7.2 0.2,-2.4 0.4,-5 1.3,-7.2 0.2,-0.4 0.7,-0.4 0.8,0.1 0.2,2.3 -0.4,4.7 -0.5,7.1 0,0.8 0,1.7 0,2.5 0.7,-1.8 1.7,-3.4 2.7,-4.8 1.8,-2.4 4.6,-5.5 8,-4.7 0.7,0.2 0.8,1.4 0,1.5 -2.8,0.4 -4.8,2.1 -6.4,4.3 1.1,1.5 2.5,2.6 3.9,3.8 1.4,1.3 2.7,2.9 2.6,4.9 0,0.8 -1.2,1.3 -1.6,0.5 z"
   id="path2549" />
	<path
   class="st17"
   d="m 549.4,422.2 c 0.6,1.9 1.2,3.8 1.7,5.7 0.2,0.9 -0.9,1.4 -1.4,0.6 -0.7,-1.1 -1.2,-2.2 -1.6,-3.4 -0.1,0.1 -0.2,0.3 -0.3,0.4 -1.5,2.5 -4.5,4.8 -7.5,2.8 -5,-3.4 -0.2,-13 4.1,-14.9 0.5,-0.2 1.1,-0.1 1.4,0.4 1.2,1.8 2.1,3.8 2.8,5.9 0.7,-2.1 1.2,-4.1 1.6,-5.2 0.3,-0.9 1.6,-0.5 1.3,0.4 -0.7,2.5 -1.2,5 -2.1,7.3 z m -4.7,-6.4 c -1.6,1.1 -2.8,3.1 -3.4,4.9 -0.6,1.6 -1.8,5.1 0.4,6.1 2.6,1.2 4.4,-0.9 5.7,-3.8 -0.8,-2.4 -1.4,-4.9 -2.7,-7.2 z"
   id="path2551" />
	<path
   class="st17"
   d="m 564,427.5 c -1,0.8 -2.1,1.3 -3.2,1.5 0.2,1.8 0.4,3.7 0.6,5.5 0.1,1.4 -1.9,1.5 -2.3,0.3 -0.6,-1.8 -0.8,-3.8 -0.9,-5.8 -2.4,-0.5 -4.4,-2.3 -5.1,-5.3 -1.2,-5.2 1.5,-10.5 6.9,-11.6 0.8,-0.1 1.1,1 0.3,1.2 -4.6,1.3 -6.9,6.2 -5.1,10.6 0.6,1.5 1.6,2.4 2.8,2.8 -0.1,-2.9 0,-6 1.1,-8.6 1,-2.3 3.4,-4 6,-3.1 4.9,1.6 1.6,10.5 -1.1,12.5 z m -1.3,-9.9 c -0.9,0.5 -1.3,1.5 -1.5,2.5 -0.6,2.2 -0.7,4.4 -0.5,6.7 1.3,-0.4 2.6,-1.4 3.3,-3 0.7,-1.5 1.9,-4.5 0.9,-6.1 -0.5,-0.7 -1.7,-0.5 -2.2,-0.1 z"
   id="path2553" />
	<path
   class="st17"
   d="m 575.3,428.9 c -2.2,0.4 -4.6,-0.3 -5.8,-2.4 -1.3,-2.3 0.2,-4.6 2.3,-6.3 -1.1,-0.5 -2.1,-1.5 -1.7,-2.8 1.2,-3.4 7.1,-5 9.7,-2.2 0.5,0.5 -0.2,1.2 -0.8,0.7 -1.8,-1.5 -6.2,-0.7 -7.2,1.5 -0.6,1.3 0.9,1.5 2.3,1.3 0.7,-0.4 1.4,-0.6 2,-0.8 0.8,-0.2 1.6,0.9 0.9,1.5 -0.6,0.5 -1.4,0.9 -2.2,1 -2,1.1 -4.3,3.1 -3.6,4.9 0.8,1.8 3.4,1.8 4.8,0.8 1.3,-0.9 2.3,-2.1 3.2,-3.3 0.7,-0.9 2.1,0.3 1.5,1.2 -1.1,1.9 -2.8,4.5 -5.4,4.9 z m 1.1,-18.1 c -0.6,0.9 -2.1,0.1 -1.4,-0.8 0.8,-1.2 1.6,-2.5 3,-3.2 0.8,-0.4 1.6,0.6 0.9,1.2 -0.9,0.8 -1.7,1.7 -2.5,2.8 z"
   id="path2555" />
</g>
<g
   id="g2573"
   transform="translate(-366.77605,-237.94592)">
	<path
   class="st17"
   d="m 639,540.9 c 0,0.1 0.1,0.1 0.1,0.2 2.1,2.5 3.4,5.3 3.6,8.6 0.1,2.4 -0.4,5.1 -2.8,6.1 -1.8,0.8 -4.5,0.3 -6,-1 -2.9,-2.5 -0.7,-7.3 0.7,-10 0.6,-1.2 1.3,-2.3 2.1,-3.4 -0.7,-0.8 -1.5,-1.6 -2.2,-2.4 -0.3,-0.4 -1.2,-1.7 -1.7,-1.8 -0.5,-0.1 -0.5,-0.8 0,-1 0.9,-0.3 1.9,0.9 2.5,1.4 0.8,0.8 1.7,1.5 2.5,2.3 0.2,-0.3 0.4,-0.6 0.6,-0.8 1,-1.3 2.1,-2.8 3.5,-3.5 0.6,-0.3 1.3,0.5 0.8,1 -1.2,1.3 -2.5,2.7 -3.7,4.3 z m -1.2,1.7 c -0.1,0.2 -0.3,0.5 -0.5,0.7 -1.4,2.3 -3.9,6.1 -3,9 0.5,1.5 2,1.9 3.5,1.8 2.6,-0.3 2.9,-2.7 2.7,-4.9 -0.3,-2.5 -1.2,-4.6 -2.7,-6.6 z"
   id="path2559" />
	<path
   class="st17"
   d="m 655.4,544.2 c 0.6,1.9 1.2,3.8 1.7,5.7 0.2,0.9 -0.9,1.4 -1.4,0.6 -0.7,-1.1 -1.2,-2.2 -1.6,-3.4 -0.1,0.1 -0.2,0.3 -0.3,0.4 -1.5,2.5 -4.5,4.8 -7.5,2.8 -5,-3.4 -0.2,-13 4.1,-14.9 0.5,-0.2 1.1,-0.1 1.4,0.4 1.2,1.8 2.1,3.8 2.8,5.9 0.7,-2.1 1.2,-4.1 1.6,-5.2 0.3,-0.9 1.6,-0.5 1.3,0.4 -0.7,2.4 -1.2,4.9 -2.1,7.3 z m -4.8,-6.4 c -1.6,1.1 -2.8,3.1 -3.4,4.9 -0.6,1.6 -1.8,5.1 0.4,6.1 2.6,1.2 4.4,-0.9 5.7,-3.8 -0.7,-2.5 -1.4,-5 -2.7,-7.2 z"
   id="path2561" />
	<path
   class="st17"
   d="m 668,550 c -0.1,-1.7 0,-3.4 -0.2,-5.1 -0.1,-1.5 -0.2,-3.8 -1.5,-4.9 -1.8,-1.4 -4.1,1.5 -4.5,2.9 -0.7,2.1 -0.6,4.2 -0.4,6.4 0.1,0.1 0.1,0.2 0.1,0.4 0,0 0,0.1 0,0.1 0.2,0.6 -0.4,1.1 -1,1 -1.2,-0.3 -1.4,-2.6 -1.4,-3.6 -0.1,-1.6 0,-3.3 0.6,-4.9 1,-2.6 3.2,-5.1 6.2,-4.8 1.3,0.1 2.3,0.8 2.9,1.7 v -0.1 c -0.1,-1.8 -0.3,-4 -1.1,-5.6 -1.2,-2.2 -3.7,-2.9 -5.6,-1.1 -0.6,0.5 -1.3,-0.3 -0.9,-0.9 1.3,-1.7 3.4,-2.3 5.4,-1.4 2.1,0.9 3.2,2.8 3.6,5 1.1,5 0.6,9.8 0.1,14.9 -0.2,1.4 -2.2,1.4 -2.3,0 z"
   id="path2563" />
	<path
   class="st17"
   d="m 683.4,544.2 c 0.6,1.9 1.2,3.8 1.8,5.7 0.2,0.9 -1,1.4 -1.4,0.6 -0.7,-1.1 -1.2,-2.2 -1.6,-3.4 -0.1,0.1 -0.2,0.3 -0.3,0.4 -1.5,2.5 -4.5,4.8 -7.5,2.8 -5,-3.4 -0.2,-13 4.1,-14.9 0.6,-0.2 1.1,-0.1 1.4,0.4 1.2,1.8 2.1,3.8 2.8,5.9 0.7,-2.1 1.2,-4.1 1.6,-5.2 0.3,-0.9 1.6,-0.5 1.4,0.4 -0.9,2.4 -1.5,4.9 -2.3,7.3 z m -4.8,-6.4 c -1.6,1.1 -2.8,3.1 -3.4,4.9 -0.6,1.6 -1.8,5.1 0.4,6.1 2.6,1.2 4.4,-0.9 5.8,-3.8 -0.8,-2.5 -1.5,-5 -2.8,-7.2 z m 2.2,-5.1 c -0.6,0.9 -2.1,0.1 -1.4,-0.8 0.8,-1.2 1.6,-2.5 3,-3.2 0.8,-0.4 1.6,0.6 0.9,1.2 -1,0.8 -1.8,1.8 -2.5,2.8 z"
   id="path2565" />
	<path
   class="st17"
   d="m 688.7,555.4 c -2.7,-2.5 -1.8,-6.7 0.7,-8.9 0.7,-0.6 1.6,0.3 1.1,1.1 -1.1,1.3 -1.8,3.4 -1.2,5.1 0.6,1.6 2.2,2.2 3.8,1.7 4.5,-1.3 3.7,-6.3 1.4,-9.3 -2.1,-2.7 -6.4,-4.8 -6,-8.7 0.2,-1.7 1.4,-3.1 2.9,-4.2 -0.1,0 -0.2,0 -0.4,0 -0.9,0 -3.3,0.1 -3.6,-1.1 -0.1,-0.5 0.6,-0.8 0.8,-0.4 0.3,0.6 4.1,0 4.7,-0.1 1.1,-0.1 2.1,-0.2 3.2,-0.3 0.4,0 0.8,-0.1 1.1,0 1,0 1,1.6 0,1.6 -2.3,0 -7.8,2.3 -6.9,5.4 0.7,2.3 3.1,3.6 4.7,5.3 2.4,2.6 4.5,7 2.8,10.5 -1.5,3 -6.4,4.9 -9.1,2.3 z"
   id="path2567" />
	<path
   class="st17"
   d="m 703.3,550.7 c -4.9,1.5 -2.8,-12.8 -2.1,-14.7 0.2,-0.5 0.9,-0.4 0.9,0.1 0.1,2.6 -0.1,5.3 0.2,7.9 0.1,1.6 0.2,4 1.4,5.3 0.4,0.5 0.2,1.2 -0.4,1.4 z"
   id="path2569" />
	<path
   class="st17"
   d="m 705.7,547.8 c -0.7,-1.6 -0.1,-4.4 1.2,-6.5 -0.5,-0.2 -0.8,-0.8 -0.5,-1.3 0.4,-0.6 0.7,-1.2 1.1,-1.8 2.3,-3.1 6.5,-3.9 8.6,-0.1 1.6,3 2.1,7.6 0,10.5 -2.2,3.2 -8.7,3.3 -10.4,-0.8 z m 8.1,-9.4 c -1.2,-1.3 -2.5,-0.8 -3.6,0.2 0.8,-0.2 1.7,0 2.6,0.7 0.5,0.4 -0.2,1.3 -0.7,0.9 -2.8,-2 -7.7,6.7 -2.7,8.3 2.7,0.9 5,0.1 5.7,-2.9 0.6,-2.3 0.3,-5.5 -1.3,-7.2 z"
   id="path2571" />
</g>
<g
   id="g2589"
   transform="translate(369.72061,-358.39524)">
	<path
   class="st17"
   d="m 269.2,550.6 c -0.1,-0.1 -0.1,-0.1 -0.2,-0.2 v 0 c -0.7,-1 -1.1,-2 -1.5,-3.1 -0.4,0.8 -0.8,1.6 -1.5,2.3 -1.3,1.4 -3.1,2.1 -4.6,0.4 -0.6,-0.7 -1.1,-1.7 -1.4,-2.6 -0.2,3.1 -0.5,6.1 -0.7,9.2 -0.1,0.8 -1.3,0.8 -1.2,0 -0.4,-6.7 0.6,-13.4 0.6,-20 0,-1.3 1.9,-1.3 1.9,0 0,3.5 0.3,7.5 1.6,10.8 0.2,0.6 0.5,1.5 1.1,1.8 0.6,0.3 1.5,-1.1 1.8,-1.4 2.1,-3.3 1.4,-7.5 1.8,-11.2 0.1,-1.1 1.6,-1.1 1.7,0 0.1,3.7 -0.6,8.8 1.8,11.9 0.2,0.2 0.4,0.4 0.6,0.7 0.7,1 -1,2.4 -1.8,1.4 z"
   id="path2575" />
	<path
   class="st17"
   d="m 286.3,538.2 c -1.3,0.1 -2.7,-0.2 -4,-0.3 0.3,0.3 -0.1,-0.1 0.2,0.3 0.3,0.3 0.3,0.8 0.4,1.1 0.1,1.2 0.1,2.4 0.2,3.6 0.1,2.4 -0.1,4.9 0.1,7.3 0.1,1.6 -2.3,1.6 -2.5,0 0,-0.3 0,-0.6 0.1,-0.9 0.1,-2 0.2,-4.1 0.3,-6.1 0.1,-1.1 0.1,-2.3 0.1,-3.5 0,-0.4 0.1,-0.7 0.1,-1.1 0,-0.2 0.1,-0.3 0.2,-0.5 0,-0.2 0.1,-0.3 0.2,-0.4 -0.8,-0.1 -1.5,-0.1 -2.3,-0.1 -0.8,0 -1.6,0.1 -2.4,0.2 0,1.6 -0.4,3.2 -0.5,4.7 -0.2,1.7 -0.4,3.4 -0.3,5.1 0.3,0.8 0.4,1.4 0.4,2.3 -0.1,1.2 -2.1,1.7 -2.3,0.3 -0.4,-2.7 -0.2,-5.3 0.3,-8 0.2,-1.4 0.6,-2.8 0.8,-4.2 0,0 -0.1,0 -0.1,0 -0.9,0.2 -1.8,0.7 -2.8,0.9 -0.7,0.3 -1.1,-0.7 -0.7,-1.2 1.6,-1.8 4.9,-2.2 7.1,-2.3 2.3,-0.2 5.8,-0.5 7.8,1 0.6,0.7 0.4,1.7 -0.4,1.8 z"
   id="path2577" />
	<path
   class="st17"
   d="m 287.3,547.8 c -0.7,-1.6 -0.1,-4.4 1.2,-6.5 -0.5,-0.2 -0.8,-0.8 -0.5,-1.3 0.4,-0.6 0.7,-1.2 1.1,-1.8 2.3,-3.1 6.5,-3.9 8.6,-0.1 1.6,3 2.1,7.6 0,10.5 -2.3,3.2 -8.7,3.3 -10.4,-0.8 z m 8,-9.4 c -1.2,-1.3 -2.5,-0.8 -3.6,0.2 0.8,-0.2 1.7,0 2.6,0.7 0.5,0.4 -0.2,1.3 -0.7,0.9 -2.8,-2 -7.7,6.7 -2.7,8.3 2.7,0.9 5,0.1 5.7,-2.9 0.6,-2.3 0.4,-5.5 -1.3,-7.2 z"
   id="path2579" />
	<path
   class="st17"
   d="m 304.2,549.9 c -0.1,0 -0.1,0 -0.2,-0.1 v -0.1 c -0.4,-0.3 -0.4,-0.9 0.1,-1.1 1.4,-0.4 2.8,-0.1 4,-1 0.9,-0.7 1.4,-1.6 1.6,-2.7 0.3,-2.1 0.1,-6.1 -2.1,-7.2 -3.4,-1.6 -4.6,5.7 -4.6,7.6 0,3.5 0.9,6.9 1.8,10.2 0.4,1.7 -2.1,2.2 -2.5,0.7 -1.2,-4.9 -2.6,-10.9 -0.6,-16.3 1.1,-3 4.4,-6.3 7.5,-3.8 2.6,2.1 3.4,7 2.3,10.1 -0.9,2.8 -4.5,5 -7.3,3.7 z"
   id="path2581" />
	<path
   class="st17"
   d="m 318.5,550.6 c -0.5,0.7 -1.9,0.8 -2,-0.3 -0.6,-4.6 -2.1,-9 -3.3,-13.5 -0.2,-0.7 0.9,-1.2 1.2,-0.5 1.5,3.4 2.7,7 3.6,10.7 0.8,-1.5 1.6,-3 2.2,-4.6 0.9,-2.3 1.1,-4.7 1.9,-6.9 0.4,-1 1.6,-0.7 1.7,0.2 0.7,5.1 -2.7,10.7 -5.3,14.9 z"
   id="path2583" />
	<path
   class="st17"
   d="m 331.3,549.2 c 1,1.1 -0.6,2.8 -1.7,1.7 -3.6,-3.3 -2.9,-9.3 0.2,-12.7 -1.6,0.1 -3.1,0 -4.7,-0.5 -0.9,-0.3 -0.5,-1.5 0.2,-1.5 2.6,0.2 6.2,-0.3 8.7,-0.6 0.5,-0.1 1,-0.1 1.6,-0.1 1.4,0 1.4,2.1 0,2.2 -5.5,0.1 -7.7,7.7 -4.3,11.5 z"
   id="path2585" />
	<path
   class="st17"
   d="m 351,550.3 c -2.5,1.9 -4.6,0.4 -5.9,-2 -0.9,1.4 -2.3,2.6 -4,2.5 -2.9,-0.2 -4,-4 -4,-6.3 0,-3 0.7,-6.7 3.2,-8.5 0.7,-0.5 1.3,0.5 0.8,1.1 -1.5,1.9 -2.2,4.5 -2.1,7 0.1,1.1 0.4,4.8 2.2,4.6 0.9,-0.1 2,-1.6 2.6,-3.1 -0.5,-1.7 -0.6,-3.5 -0.2,-4.6 0.3,-0.9 1.3,-1.1 2.1,-0.6 1.4,1.1 1.1,3.3 0.6,5 0.1,0.4 0.3,0.8 0.5,1.2 0.6,1.2 2,3.2 3,1.2 1.4,-2.5 1.5,-7.9 -0.5,-10.2 -1,-1.1 0.5,-2.6 1.6,-1.6 1.9,1.6 2.3,4.8 2.3,7.1 0.1,2.4 -0.2,5.6 -2.2,7.2 z m -3.5,-17.6 c -0.6,0.9 -2.1,0.1 -1.4,-0.8 0.8,-1.2 1.6,-2.5 3,-3.2 0.8,-0.4 1.6,0.6 0.9,1.2 -1,0.8 -1.8,1.8 -2.5,2.8 z"
   id="path2587" />
</g>
<g
   id="g2609"
   transform="translate(-122.07668,-0.05089754)">
	<path
   class="st17"
   d="m 148.3,300.1 c -1.1,0 -2.2,-0.1 -3.3,-0.3 0.2,0.3 -0.1,-0.1 0.2,0.2 0.2,0.2 0.3,0.6 0.3,0.9 0.1,1 0.1,2 0.1,3 0,2 0,4 0,6 0,1.3 -1.9,1.3 -2,0 0,-0.3 0,-0.5 0,-0.7 0.1,-1.7 0.1,-3.3 0.2,-5 0,-0.9 0,-1.9 0.1,-2.9 0,-0.3 0.1,-0.6 0.1,-0.9 0,-0.1 0.1,-0.3 0.1,-0.4 0,-0.1 0.1,-0.3 0.2,-0.3 -0.6,-0.1 -1.2,-0.1 -1.9,-0.1 -0.6,0 -1.3,0.1 -2,0.1 0,1.3 -0.3,2.6 -0.4,3.8 -0.2,1.4 -0.3,2.8 -0.2,4.2 0.3,0.7 0.4,1.2 0.3,1.9 -0.1,1 -1.7,1.4 -1.9,0.2 -0.3,-2.2 -0.1,-4.4 0.3,-6.5 0.2,-1.2 0.5,-2.3 0.7,-3.4 0,0 -0.1,0 -0.1,0 -0.8,0.2 -1.5,0.6 -2.3,0.7 -0.6,0.2 -0.9,-0.6 -0.6,-1 1.3,-1.4 4,-1.8 5.8,-1.9 1.9,-0.1 4.8,-0.4 6.4,0.8 0.8,0.7 0.6,1.5 -0.1,1.6 z"
   id="path2591" />
	<path
   class="st17"
   d="m 149.1,308 c -0.6,-1.3 0,-3.6 1,-5.4 -0.4,-0.2 -0.6,-0.6 -0.4,-1.1 0.3,-0.5 0.6,-1 0.9,-1.5 1.9,-2.5 5.3,-3.2 7,-0.1 1.3,2.4 1.7,6.2 0,8.6 -1.8,2.7 -7.1,2.8 -8.5,-0.5 z m 6.6,-7.8 c -1,-1 -2,-0.6 -2.9,0.1 0.7,-0.1 1.4,0 2.1,0.6 0.4,0.3 -0.1,1 -0.6,0.7 -2.3,-1.6 -6.3,5.5 -2.2,6.8 2.2,0.7 4.1,0 4.7,-2.4 0.4,-1.7 0.2,-4.3 -1.1,-5.8 z"
   id="path2593" />
	<path
   class="st17"
   d="m 162.9,309.6 c 0,0 -0.1,0 -0.1,0 v 0 c -0.3,-0.2 -0.3,-0.7 0.1,-0.9 1.1,-0.3 2.3,-0.1 3.3,-0.8 0.8,-0.6 1.2,-1.3 1.3,-2.2 0.2,-1.7 0.1,-5 -1.7,-5.9 -2.8,-1.3 -3.8,4.7 -3.8,6.3 0,2.9 0.7,5.6 1.4,8.4 0.4,1.4 -1.7,1.8 -2,0.6 -1,-4 -2.1,-8.9 -0.5,-13.4 0.9,-2.4 3.6,-5.2 6.2,-3.1 2.1,1.7 2.8,5.8 1.9,8.2 -0.8,2.1 -3.7,3.9 -6.1,2.8 z"
   id="path2595" />
	<path
   class="st17"
   d="m 175.5,309.1 c 0.8,0.9 -0.5,2.3 -1.4,1.4 -2.9,-2.7 -2.4,-7.6 0.2,-10.4 -1.3,0 -2.5,0 -3.8,-0.4 -0.7,-0.2 -0.4,-1.3 0.2,-1.2 2.1,0.1 5.1,-0.2 7.1,-0.5 0.4,-0.1 0.8,-0.1 1.3,-0.1 1.2,0 1.2,1.7 0,1.8 -4.6,0.1 -6.3,6.3 -3.6,9.4 z"
   id="path2597" />
	<path
   class="st17"
   d="m 180.5,308 c -0.6,-1.3 0,-3.6 1,-5.4 -0.4,-0.2 -0.6,-0.6 -0.4,-1.1 0.3,-0.5 0.6,-1 0.9,-1.5 1.9,-2.5 5.3,-3.2 7,-0.1 1.3,2.4 1.7,6.2 0,8.6 -1.8,2.7 -7.1,2.8 -8.5,-0.5 z m 6.6,-7.8 c -1,-1 -2,-0.6 -2.9,0.1 0.7,-0.1 1.4,0 2.1,0.6 0.4,0.3 -0.1,1 -0.6,0.7 -2.3,-1.6 -6.3,5.5 -2.2,6.8 2.2,0.7 4.1,0 4.7,-2.4 0.4,-1.7 0.3,-4.3 -1.1,-5.8 z"
   id="path2599" />
	<path
   class="st17"
   d="m 200.4,310.4 c -0.7,-1.7 -1.9,-2.8 -3.2,-4 -0.6,-0.6 -1.3,-1.3 -1.8,-2.1 -0.9,1.6 -1.8,3.4 -1.9,5.3 0,0.9 -1.2,1 -1.5,0.2 -0.6,-1.9 -0.7,-3.9 -0.6,-5.9 0.2,-1.9 0.4,-4.1 1.1,-5.9 0.1,-0.3 0.6,-0.3 0.6,0.1 0.2,1.9 -0.3,3.9 -0.4,5.8 0,0.7 0,1.4 0,2 0.6,-1.4 1.4,-2.8 2.2,-4 1.4,-2 3.8,-4.5 6.5,-3.9 0.6,0.1 0.6,1.1 0,1.2 -2.3,0.3 -4,1.7 -5.2,3.5 0.9,1.2 2,2.1 3.2,3.1 1.2,1.1 2.2,2.4 2.1,4 0.2,0.8 -0.8,1.3 -1.1,0.6 z"
   id="path2601" />
	<path
   class="st17"
   d="m 212.3,305 c 0.5,1.5 1,3.1 1.4,4.7 0.2,0.7 -0.8,1.1 -1.2,0.5 -0.6,-0.9 -1,-1.8 -1.3,-2.8 -0.1,0.1 -0.1,0.2 -0.2,0.4 -1.3,2.1 -3.7,4 -6.1,2.3 -4.1,-2.8 -0.2,-10.6 3.4,-12.2 0.4,-0.2 0.9,-0.1 1.2,0.3 1,1.5 1.7,3.2 2.3,4.8 0.6,-1.7 1,-3.4 1.3,-4.3 0.2,-0.7 1.3,-0.4 1.1,0.3 -0.8,2 -1.2,4 -1.9,6 z m -4,-5.3 c -1.3,0.9 -2.3,2.6 -2.8,4 -0.5,1.3 -1.4,4.2 0.4,5 2.1,1 3.6,-0.7 4.7,-3.1 -0.6,-2 -1.2,-4 -2.3,-5.9 z"
   id="path2603" />
	<path
   class="st17"
   d="m 222.6,309.7 c -0.1,-1.4 0,-2.8 -0.1,-4.2 -0.1,-1.2 -0.2,-3.2 -1.2,-4 -1.4,-1.2 -3.3,1.2 -3.7,2.4 -0.6,1.7 -0.5,3.4 -0.4,5.2 0,0.1 0.1,0.2 0.1,0.3 0,0 0,0 0,0.1 0.2,0.5 -0.4,0.9 -0.8,0.8 -1,-0.2 -1.1,-2.1 -1.2,-2.9 -0.1,-1.3 0,-2.7 0.5,-4 0.8,-2.1 2.6,-4.2 5.1,-4 1.1,0.1 1.9,0.6 2.4,1.4 v -0.1 c -0.1,-1.4 -0.2,-3.3 -0.9,-4.6 -1,-1.8 -3,-2.4 -4.6,-0.9 -0.5,0.4 -1.1,-0.2 -0.7,-0.7 1.1,-1.4 2.8,-1.9 4.4,-1.2 1.7,0.7 2.6,2.3 3,4.1 0.9,4.1 0.5,8.1 0.1,12.2 -0.3,1.3 -2,1.3 -2,0.1 z"
   id="path2605" />
	<path
   class="st17"
   d="m 228.8,310.3 c -4,1.2 -2.3,-10.5 -1.8,-12 0.1,-0.4 0.7,-0.3 0.7,0.1 0.1,2.2 0,4.4 0.1,6.5 0.1,1.3 0.2,3.3 1.2,4.4 0.4,0.3 0.3,0.9 -0.2,1 z m -1.1,-14.7 c -0.5,0.7 -1.7,0 -1.2,-0.7 0.6,-1 1.3,-2.1 2.5,-2.6 0.6,-0.3 1.3,0.5 0.8,1 -0.8,0.7 -1.5,1.5 -2.1,2.3 z"
   id="path2607" />
</g>
<g
   id="g2619"
   transform="translate(-122.07668,-0.05089754)">
	<path
   class="st17"
   d="m 292,419 c 0,0.1 0.1,0.1 0.1,0.2 2.1,2.5 3.4,5.3 3.6,8.6 0.1,2.4 -0.4,5.1 -2.8,6.1 -1.8,0.8 -4.5,0.3 -6,-1 -2.9,-2.5 -0.7,-7.3 0.7,-10 0.6,-1.2 1.3,-2.3 2.1,-3.4 -0.7,-0.8 -1.5,-1.6 -2.2,-2.4 -0.3,-0.4 -1.2,-1.7 -1.7,-1.8 -0.5,-0.1 -0.5,-0.8 0,-1 0.9,-0.3 1.9,0.9 2.5,1.4 0.8,0.8 1.7,1.5 2.5,2.3 0.2,-0.3 0.4,-0.6 0.6,-0.8 1,-1.3 2.1,-2.8 3.5,-3.5 0.6,-0.3 1.3,0.5 0.8,1 -1.3,1.3 -2.6,2.7 -3.7,4.3 z m -1.2,1.7 c -0.1,0.2 -0.3,0.5 -0.5,0.7 -1.4,2.3 -3.9,6.1 -3,9 0.5,1.5 2,1.9 3.5,1.8 2.6,-0.3 2.9,-2.7 2.7,-4.9 -0.3,-2.5 -1.3,-4.7 -2.7,-6.6 z"
   id="path2611" />
	<path
   class="st17"
   d="m 308.3,428.8 c -0.9,-2 -2.3,-3.4 -3.8,-4.9 -0.7,-0.7 -1.6,-1.6 -2.2,-2.6 -1.1,2 -2.2,4.2 -2.3,6.4 -0.1,1.1 -1.5,1.2 -1.8,0.3 -0.8,-2.3 -0.9,-4.8 -0.7,-7.2 0.2,-2.4 0.4,-5 1.3,-7.2 0.2,-0.4 0.7,-0.4 0.8,0.1 0.2,2.3 -0.4,4.7 -0.5,7.1 0,0.8 0,1.7 0,2.5 0.7,-1.8 1.7,-3.4 2.7,-4.8 1.8,-2.4 4.6,-5.5 8,-4.7 0.7,0.2 0.8,1.4 0,1.5 -2.8,0.4 -4.8,2.1 -6.4,4.3 1.1,1.5 2.5,2.6 3.9,3.8 1.4,1.2 2.7,2.9 2.6,4.9 0,0.8 -1.2,1.3 -1.6,0.5 z"
   id="path2613" />
	<path
   class="st17"
   d="m 315.4,427.9 c -0.1,0 -0.1,0 -0.2,-0.1 v -0.1 c -0.4,-0.3 -0.4,-0.9 0.1,-1.1 1.4,-0.4 2.8,-0.1 4,-1 0.9,-0.7 1.4,-1.6 1.6,-2.7 0.3,-2.1 0.1,-6.1 -2.1,-7.2 -3.4,-1.6 -4.6,5.7 -4.6,7.6 0,3.5 0.9,6.9 1.8,10.2 0.4,1.7 -2.1,2.2 -2.5,0.7 -1.2,-4.9 -2.6,-10.9 -0.6,-16.3 1.1,-3 4.4,-6.3 7.5,-3.8 2.6,2.1 3.4,7 2.3,10.1 -0.9,2.9 -4.5,5 -7.3,3.7 z"
   id="path2615" />
	<path
   class="st17"
   d="m 327.9,428.7 c -4.9,1.5 -2.8,-12.8 -2.1,-14.7 0.2,-0.5 0.9,-0.4 0.9,0.1 0.1,2.6 -0.1,5.3 0.2,7.9 0.1,1.6 0.2,4 1.4,5.3 0.3,0.5 0.2,1.3 -0.4,1.4 z"
   id="path2617" />
</g>
<g
   id="g2635"
   transform="translate(-126.07668,-0.05089754)">
	<path
   class="st17"
   d="m 765.6,73.1 c -0.9,-2 -2.3,-3.4 -3.8,-4.9 -0.7,-0.7 -1.6,-1.6 -2.2,-2.6 -1.1,2 -2.2,4.2 -2.3,6.4 -0.1,1.1 -1.5,1.2 -1.8,0.3 -0.8,-2.3 -0.9,-4.8 -0.7,-7.2 0.2,-2.4 0.4,-5 1.3,-7.2 0.2,-0.4 0.7,-0.4 0.8,0.1 0.2,2.3 -0.4,4.7 -0.5,7.1 0,0.8 0,1.7 0,2.5 0.7,-1.8 1.7,-3.4 2.7,-4.8 1.8,-2.4 4.6,-5.5 8,-4.7 0.7,0.2 0.8,1.4 0,1.5 -2.8,0.4 -4.8,2.1 -6.4,4.3 1.1,1.5 2.5,2.6 3.9,3.8 1.4,1.3 2.7,2.9 2.6,4.9 -0.1,0.9 -1.3,1.3 -1.6,0.5 z"
   id="path2621" />
	<path
   class="st17"
   d="m 769.5,70.2 c -0.7,-1.6 -0.1,-4.4 1.2,-6.5 -0.5,-0.2 -0.8,-0.8 -0.5,-1.3 0.4,-0.6 0.7,-1.2 1.1,-1.8 2.3,-3.1 6.5,-3.9 8.6,-0.1 1.6,3 2.1,7.6 0,10.5 -2.2,3.2 -8.7,3.3 -10.4,-0.8 z m 8.1,-9.5 c -1.2,-1.3 -2.5,-0.8 -3.6,0.2 0.8,-0.2 1.7,0 2.6,0.7 0.5,0.4 -0.2,1.3 -0.7,0.9 -2.8,-2 -7.7,6.7 -2.7,8.3 2.7,0.9 5,0.1 5.7,-2.9 0.5,-2.2 0.3,-5.4 -1.3,-7.2 z m 0.6,-5.6 c -0.6,0.9 -2.1,0.1 -1.4,-0.8 0.8,-1.2 1.6,-2.5 3,-3.2 0.8,-0.4 1.6,0.6 0.9,1.2 -1,0.8 -1.8,1.7 -2.5,2.8 z"
   id="path2623" />
	<path
   class="st17"
   d="m 793.8,73.1 c -0.9,-2 -2.3,-3.4 -3.8,-4.9 -0.7,-0.7 -1.6,-1.6 -2.2,-2.6 -1.1,2 -2.2,4.2 -2.3,6.4 -0.1,1.1 -1.5,1.2 -1.8,0.3 -0.8,-2.3 -0.9,-4.8 -0.7,-7.2 0.2,-2.4 0.4,-5 1.3,-7.2 0.2,-0.4 0.7,-0.4 0.8,0.1 0.2,2.3 -0.4,4.7 -0.5,7.1 0,0.8 0,1.7 0,2.5 0.7,-1.8 1.7,-3.4 2.7,-4.8 1.8,-2.4 4.6,-5.5 8,-4.7 0.7,0.2 0.8,1.4 0,1.5 -2.8,0.4 -4.8,2.1 -6.4,4.3 1.1,1.5 2.5,2.6 3.9,3.8 1.4,1.3 2.7,2.9 2.6,4.9 0,0.9 -1.2,1.3 -1.6,0.5 z"
   id="path2625" />
	<path
   class="st17"
   d="m 808.2,73.1 c -0.9,-2 -2.3,-3.4 -3.8,-4.9 -0.7,-0.7 -1.6,-1.6 -2.2,-2.6 -1.1,2 -2.2,4.2 -2.3,6.4 -0.1,1.1 -1.5,1.2 -1.8,0.3 -0.8,-2.3 -0.9,-4.8 -0.7,-7.2 0.2,-2.4 0.4,-5 1.3,-7.2 0.2,-0.4 0.7,-0.4 0.8,0.1 0.2,2.3 -0.4,4.7 -0.5,7.1 0,0.8 0,1.7 0,2.5 0.7,-1.8 1.7,-3.4 2.7,-4.8 1.8,-2.4 4.6,-5.5 8,-4.7 0.7,0.2 0.8,1.4 0,1.5 -2.8,0.4 -4.8,2.1 -6.4,4.3 1.1,1.5 2.5,2.6 3.9,3.8 1.4,1.3 2.7,2.9 2.6,4.9 0,0.9 -1.2,1.3 -1.6,0.5 z"
   id="path2627" />
	<path
   class="st17"
   d="m 815.1,73 c -4.9,1.5 -2.8,-12.8 -2.1,-14.7 0.2,-0.5 0.9,-0.4 0.9,0.1 0.1,2.6 -0.1,5.3 0.2,7.9 0.1,1.6 0.2,4 1.4,5.3 0.3,0.6 0.2,1.3 -0.4,1.4 z"
   id="path2629" />
	<path
   class="st17"
   d="m 822.2,72.9 c -0.5,0.7 -1.9,0.8 -2,-0.3 -0.6,-4.6 -2.1,-9 -3.3,-13.5 -0.2,-0.7 0.9,-1.2 1.2,-0.5 1.5,3.4 2.7,7 3.6,10.7 0.8,-1.5 1.6,-3 2.2,-4.6 0.9,-2.3 1.1,-4.7 1.9,-6.9 0.4,-1 1.6,-0.7 1.7,0.2 0.7,5.1 -2.7,10.8 -5.3,14.9 z"
   id="path2631" />
	<path
   class="st17"
   d="m 829.2,70.2 c -0.7,-1.6 -0.1,-4.4 1.2,-6.5 -0.5,-0.2 -0.8,-0.8 -0.5,-1.3 0.4,-0.6 0.7,-1.2 1.1,-1.8 2.3,-3.1 6.5,-3.9 8.6,-0.1 1.6,3 2.1,7.6 0,10.5 -2.2,3.2 -8.7,3.3 -10.4,-0.8 z m 8.1,-9.5 c -1.2,-1.3 -2.5,-0.8 -3.6,0.2 0.8,-0.2 1.7,0 2.6,0.7 0.5,0.4 -0.2,1.3 -0.7,0.9 -2.8,-2 -7.7,6.7 -2.7,8.3 2.7,0.9 5,0.1 5.7,-2.9 0.6,-2.2 0.3,-5.4 -1.3,-7.2 z"
   id="path2633" />
</g>
</svg>
