<?xml version="1.0" encoding="UTF-8" standalone="no"?>
<!-- Created with Inkscape (http://www.inkscape.org/) -->

<svg
   width="32.463898mm"
   height="32.463898mm"
   viewBox="0 0 32.463898 32.463898"
   version="1.1"
   id="svg5494"
   inkscape:version="1.2.2 (732a01da63, 2022-12-09)"
   sodipodi:docname="dice_sel.svg"
   xmlns:inkscape="http://www.inkscape.org/namespaces/inkscape"
   xmlns:sodipodi="http://sodipodi.sourceforge.net/DTD/sodipodi-0.dtd"
   xmlns="http://www.w3.org/2000/svg"
   xmlns:svg="http://www.w3.org/2000/svg">
  <sodipodi:namedview
     id="namedview5496"
     pagecolor="#ffffff"
     bordercolor="#000000"
     borderopacity="0.25"
     inkscape:showpageshadow="2"
     inkscape:pageopacity="0.0"
     inkscape:pagecheckerboard="0"
     inkscape:deskcolor="#d1d1d1"
     inkscape:document-units="mm"
     showgrid="false"
     inkscape:zoom="0.46769781"
     inkscape:cx="627.54196"
     inkscape:cy="-286.50979"
     inkscape:window-width="1366"
     inkscape:window-height="705"
     inkscape:window-x="-8"
     inkscape:window-y="-8"
     inkscape:window-maximized="1"
     inkscape:current-layer="layer1" />
  <defs
     id="defs5491" />
  <g
     inkscape:label="Στρώση 1"
     inkscape:groupmode="layer"
     id="layer1"
     transform="translate(60.357665,-224.76233)">
    <g
       transform="matrix(0.21385968,0,0,0.21385968,-60.272121,240.99428)"
       id="g4097">
		<g
   id="g4095">
			<g
   id="g4093">
				<g
   id="Duplicate_Items_Folder_Symbol_4_0_Layer0_0_FILL_00000033335836145372437240000008115325097484869028_">
					<g
   id="g4074">
						<path
   class="st0"
   d="m 151.2,-75.8 c -0.1,-0.1 -0.2,-0.1 -0.4,-0.1 H 0 c -0.1,0 -0.3,0.1 -0.3,0.1 -0.1,0.1 -0.1,0.2 -0.1,0.4 V 75.4 c 0,0.1 0.1,0.3 0.1,0.4 0.1,0.1 0.2,0.1 0.3,0.1 h 150.9 c 0.1,0 0.3,-0.1 0.4,-0.1 0.1,-0.1 0.1,-0.2 0.1,-0.4 V -75.4 c 0,-0.2 -0.1,-0.3 -0.2,-0.4 M 0.5,-74.9 H 150.4 V 74.9 H 0.5 Z"
   id="path4072"
   style="fill:#444444" />

					</g>

					<g
   id="g4078">
						<path
   class="st1"
   d="M 150.4,-74.9 H 0.5 V 74.9 H 150.4 V -74.9 m -0.8,0.7 0.2,-0.2 V 74.2 H 1.5 1.2 V -74.4 h 148.4 z"
   id="path4076"
   style="fill:#f8e8ce" />

					</g>

					<g
   id="g4082">
						<path
   class="st2"
   d="m 143.1,-67.5 v 0 L 8,-67.6 V 67.7 L 8.3,67.4 H 143 V -67.5 Z"
   id="path4080"
   style="fill:#e5e5e5" />

					</g>

					<g
   id="g4086">
						<path
   class="st3"
   d="m 149.6,-74.2 v -0.2 H 1.2 V 74.2 H 1.4 L 8,67.7 V -67.6 h 135.2 z"
   id="path4084"
   style="fill:#ffffff" />

					</g>

					<g
   id="g4090">
						<path
   class="st4"
   d="m 149.8,-74.4 -0.2,0.2 -6.4,6.5 -0.1,0.1 v 135 H 8.3 L 8,67.7 1.5,74.1 h 148.3 z"
   id="path4088"
   style="fill:#aaaaaa" />

					</g>

				</g>

			</g>

		</g>

	</g>
    <g
       id="g4640"
       transform="matrix(0.26458333,0,0,0.26458333,-60.377954,129.78991)">
	<g
   id="g4618">
		<path
   class="st3"
   d="m 98.5,421.9 c 0,8.5 0,16.9 0,25.4 0,5.4 -3.4,9.5 -8.7,10.5 -0.6,0.1 -1.2,0.1 -1.8,0.1 -6.6,-0.2 -13.1,-0.6 -19.7,-0.5 -6.4,0.1 -12.9,0.6 -19.3,0.9 -4.3,0.2 -8.7,0.3 -13.1,0.2 -4.7,-0.1 -9.2,-4 -10.3,-8.8 -0.2,-0.9 -0.3,-1.8 -0.3,-2.8 0,-17 0,-33.9 0,-50.9 0,-6.1 4.7,-10.8 10.8,-10.6 7.9,0.2 15.7,-0.3 23.5,-0.8 7.9,-0.5 15.9,-0.5 23.8,0.1 1.9,0.1 3.9,0.2 5.8,0.5 5.1,0.9 9.1,5.8 9.2,11 0.1,8.5 0.1,17.1 0.1,25.7 z m -4.9,-0.2 c 0,-8.5 0,-16.9 0,-25.4 0,-3.2 -2,-5.9 -5.1,-6.6 -1.6,-0.3 -3.2,-0.3 -4.9,-0.4 -8.8,-0.6 -17.5,-0.4 -26.3,0.1 -6.9,0.4 -13.8,0.6 -20.7,0.7 -4,0.1 -6.5,2.5 -6.5,6.4 0,14.2 0,28.3 0,42.5 0,2.7 0,5.4 0,8.1 0,3.4 2.8,6.4 6.2,6.4 5.2,0 10.3,-0.1 15.5,-0.3 5.2,-0.2 10.5,-0.6 15.7,-0.8 6.6,-0.2 13.1,0.2 19.7,0.6 3.8,0.2 6.4,-2.3 6.4,-6.1 0,-8.4 0,-16.8 0,-25.2 z"
   id="path4616"
   style="fill:#ffffff" />

	</g>

	<g
   id="g4622">
		<path
   class="st9"
   d="m 93.6,421.7 c 0,8.4 0,16.8 0,25.1 0,3.8 -2.6,6.3 -6.4,6.1 -6.6,-0.4 -13.1,-0.8 -19.7,-0.6 -5.2,0.2 -10.5,0.6 -15.7,0.8 -5.2,0.2 -10.3,0.3 -15.5,0.3 -3.4,0 -6.2,-2.9 -6.2,-6.4 0,-2.7 0,-5.4 0,-8.1 0,-14.2 0,-28.3 0,-42.5 0,-4 2.5,-6.4 6.5,-6.4 6.9,-0.2 13.8,-0.4 20.7,-0.7 8.8,-0.4 17.5,-0.7 26.3,-0.1 1.6,0.1 3.3,0.1 4.9,0.4 3.2,0.7 5.1,3.3 5.1,6.6 0.1,8.6 0,17.1 0,25.5 z"
   id="path4620"
   style="fill:#e82ff7" />

	</g>

	<g
   id="g4626">
		<path
   class="st3"
   d="m 68.8,407.6 c 0,-3.9 3.1,-7 7.2,-7 3.6,0 6.5,2.9 6.6,6.4 0,4.1 -3.1,7.4 -7.1,7.4 -3.7,0 -6.6,-3 -6.7,-6.8 z"
   id="path4624"
   style="fill:#ffffff" />

	</g>

	<g
   id="g4630">
		<path
   class="st3"
   d="m 41.3,436.1 c 0,-3.9 3.1,-7 7.2,-7 3.6,0 6.5,2.9 6.6,6.4 0,4.1 -3.1,7.4 -7.1,7.4 -3.8,0 -6.7,-3 -6.7,-6.8 z"
   id="path4628"
   style="fill:#ffffff" />

	</g>

	<g
   id="g4634">
		<path
   class="st3"
   d="m 47.8,414.4 c -3.9,0 -7,-3.1 -7,-7.2 0,-3.6 2.9,-6.5 6.4,-6.6 4.1,0 7.4,3.1 7.4,7.1 0,3.7 -2.9,6.6 -6.8,6.7 z"
   id="path4632"
   style="fill:#ffffff" />

	</g>

	<g
   id="g4638">
		<path
   class="st3"
   d="m 76.3,441.9 c -3.9,0 -7,-3.1 -7,-7.2 0,-3.6 2.9,-6.5 6.4,-6.6 4.1,0 7.4,3.1 7.4,7.1 0,3.8 -3,6.7 -6.8,6.7 z"
   id="path4636"
   style="fill:#ffffff" />

	</g>

</g>
  </g>
</svg>
