<?xml version="1.0" encoding="UTF-8" standalone="no"?>
<!-- Generator: Adobe Illustrator 27.4.0, SVG Export Plug-In . SVG Version: 6.00 Build 0)  -->

<svg
   version="1.1"
   id="Layer_1"
   x="0px"
   y="0px"
   viewBox="0 0 857.49823 481.59821"
   xml:space="preserve"
   sodipodi:docname="dice.svg"
   width="857.49823"
   height="481.59821"
   inkscape:version="1.2.2 (732a01da63, 2022-12-09)"
   xmlns:inkscape="http://www.inkscape.org/namespaces/inkscape"
   xmlns:sodipodi="http://sodipodi.sourceforge.net/DTD/sodipodi-0.dtd"
   xmlns="http://www.w3.org/2000/svg"
   xmlns:svg="http://www.w3.org/2000/svg"><defs
   id="defs4728">
	
	
	
	
	
	
	
	
	
	
	
	
	
	
	
	
	
	
	
	
	
	
	
	
	
	
	
	
	
	
	
	
	
	
	
</defs><sodipodi:namedview
   id="namedview4726"
   pagecolor="#ffffff"
   bordercolor="#000000"
   borderopacity="0.25"
   inkscape:showpageshadow="2"
   inkscape:pageopacity="0.0"
   inkscape:pagecheckerboard="0"
   inkscape:deskcolor="#d1d1d1"
   showgrid="false"
   inkscape:zoom="0.87354409"
   inkscape:cx="428.71333"
   inkscape:cy="252.99238"
   inkscape:window-width="1366"
   inkscape:window-height="705"
   inkscape:window-x="-8"
   inkscape:window-y="-8"
   inkscape:window-maximized="1"
   inkscape:current-layer="Layer_1" />
<style
   type="text/css"
   id="style3384">
	.st0{fill:#444444;}
	.st1{fill:#F8E8CE;}
	.st2{fill:#E5E5E5;}
	.st3{fill:#FFFFFF;}
	.st4{fill:#AAAAAA;}
	.st5{fill:#FC0000;}
	.st6{fill:#05D36C;}
	.st7{fill:#C94300;}
	.st8{fill:#0B4EF7;}
	.st9{fill:#E82FF7;}
	.st10{fill:#D6C709;}
	.st11{fill:#5B5B5B;}
</style>
<g
   transform="matrix(0.80828857,0,0,0.80828857,0.32331543,61.349102)"
   id="g3411">
		<g
   id="g3409">
			<g
   id="g3407">
				<g
   id="Duplicate_Items_Folder_Symbol_4_0_Layer0_0_FILL">
					<g
   id="g3388">
						<path
   class="st0"
   d="m 151.2,-75.8 c -0.1,-0.1 -0.2,-0.1 -0.4,-0.1 H 0 c -0.1,0 -0.3,0.1 -0.3,0.1 -0.1,0.1 -0.1,0.2 -0.1,0.4 V 75.4 c 0,0.1 0.1,0.3 0.1,0.4 0.1,0.1 0.2,0.1 0.3,0.1 h 150.9 c 0.1,0 0.3,-0.1 0.4,-0.1 0.1,-0.1 0.1,-0.2 0.1,-0.4 V -75.4 c 0,-0.2 -0.1,-0.3 -0.2,-0.4 M 0.5,-74.9 H 150.4 V 74.9 H 0.5 Z"
   id="path3386" />
					</g>
					<g
   id="g3392">
						<path
   class="st1"
   d="M 150.4,-74.9 H 0.5 V 74.9 H 150.4 V -74.9 m -0.8,0.7 0.2,-0.2 V 74.2 H 1.5 1.2 V -74.4 h 148.4 z"
   id="path3390" />
					</g>
					<g
   id="g3396">
						<path
   class="st2"
   d="m 143.1,-67.5 v 0 L 8,-67.6 V 67.7 L 8.3,67.4 H 143 V -67.5 Z"
   id="path3394" />
					</g>
					<g
   id="g3400">
						<path
   class="st3"
   d="m 149.6,-74.2 v -0.2 H 1.2 V 74.2 H 1.4 L 8,67.7 V -67.6 h 135.2 z"
   id="path3398" />
					</g>
					<g
   id="g3404">
						<path
   class="st4"
   d="m 149.8,-74.4 -0.2,0.2 -6.4,6.5 -0.1,0.1 v 135 H 8.3 L 8,67.7 1.5,74.1 h 148.3 z"
   id="path3402" />
					</g>
				</g>
			</g>
		</g>
	</g><g
   transform="matrix(0.80828857,0,0,0.80828857,122.77332,61.349102)"
   id="g3438">
		<g
   id="g3436">
			<g
   id="g3434">
				<g
   id="Duplicate_Items_Folder_Symbol_4_0_Layer0_0_FILL_00000146493653453437622390000005856974514048076930_">
					<g
   id="g3415">
						<path
   class="st0"
   d="m 151.2,-75.8 c -0.1,-0.1 -0.2,-0.1 -0.4,-0.1 H 0 c -0.1,0 -0.3,0.1 -0.3,0.1 -0.1,0.1 -0.1,0.2 -0.1,0.4 V 75.4 c 0,0.1 0.1,0.3 0.1,0.4 0.1,0.1 0.2,0.1 0.3,0.1 h 150.9 c 0.1,0 0.3,-0.1 0.4,-0.1 0.1,-0.1 0.1,-0.2 0.1,-0.4 V -75.4 c 0,-0.2 -0.1,-0.3 -0.2,-0.4 M 0.5,-74.9 H 150.4 V 74.9 H 0.5 Z"
   id="path3413" />
					</g>
					<g
   id="g3419">
						<path
   class="st1"
   d="M 150.4,-74.9 H 0.5 V 74.9 H 150.4 V -74.9 m -0.8,0.7 0.2,-0.2 V 74.2 H 1.5 1.2 V -74.4 h 148.4 z"
   id="path3417" />
					</g>
					<g
   id="g3423">
						<path
   class="st2"
   d="m 143.1,-67.5 v 0 L 8,-67.6 V 67.7 l 0.4,-0.3 h 134.7 z"
   id="path3421" />
					</g>
					<g
   id="g3427">
						<path
   class="st3"
   d="m 149.6,-74.2 v -0.2 H 1.2 V 74.2 H 1.4 L 8,67.7 V -67.6 h 135.2 z"
   id="path3425" />
					</g>
					<g
   id="g3431">
						<path
   class="st4"
   d="m 149.8,-74.4 -0.2,0.2 -6.4,6.5 -0.1,0.1 v 135 H 8.3 L 8,67.7 1.5,74.1 h 148.3 z"
   id="path3429" />
					</g>
				</g>
			</g>
		</g>
	</g><g
   transform="matrix(0.80828857,0,0,0.80828857,245.22332,61.349102)"
   id="g3465">
		<g
   id="g3463">
			<g
   id="g3461">
				<g
   id="Duplicate_Items_Folder_Symbol_4_0_Layer0_0_FILL_00000000203712009826075590000003032526079147901832_">
					<g
   id="g3442">
						<path
   class="st0"
   d="m 151.2,-75.8 c -0.1,-0.1 -0.2,-0.1 -0.4,-0.1 H 0 c -0.1,0 -0.3,0.1 -0.3,0.1 -0.1,0.1 -0.1,0.2 -0.1,0.4 V 75.4 c 0,0.1 0.1,0.3 0.1,0.4 0.1,0.1 0.2,0.1 0.3,0.1 h 150.9 c 0.1,0 0.3,-0.1 0.4,-0.1 0.1,-0.1 0.1,-0.2 0.1,-0.4 V -75.4 c 0,-0.2 -0.1,-0.3 -0.2,-0.4 M 0.5,-74.9 H 150.4 V 74.9 H 0.5 Z"
   id="path3440" />
					</g>
					<g
   id="g3446">
						<path
   class="st1"
   d="M 150.4,-74.9 H 0.5 V 74.9 H 150.4 V -74.9 m -0.8,0.7 0.2,-0.2 V 74.2 H 1.5 1.2 V -74.4 h 148.4 z"
   id="path3444" />
					</g>
					<g
   id="g3450">
						<path
   class="st2"
   d="m 143.1,-67.5 v 0 L 8,-67.6 V 67.7 L 8.3,67.4 H 143 V -67.5 Z"
   id="path3448" />
					</g>
					<g
   id="g3454">
						<path
   class="st3"
   d="m 149.6,-74.2 v -0.2 H 1.2 V 74.2 H 1.4 L 8,67.7 V -67.6 h 135.2 z"
   id="path3452" />
					</g>
					<g
   id="g3458">
						<path
   class="st4"
   d="m 149.8,-74.4 -0.2,0.2 -6.4,6.5 -0.1,0.1 v 135 H 8.3 L 8,67.7 1.5,74.1 h 148.3 z"
   id="path3456" />
					</g>
				</g>
			</g>
		</g>
	</g><g
   transform="matrix(0.80828857,0,0,0.80828857,367.67332,61.349102)"
   id="g3492">
		<g
   id="g3490">
			<g
   id="g3488">
				<g
   id="Duplicate_Items_Folder_Symbol_4_0_Layer0_0_FILL_00000109738409043943152150000009807984576221767326_">
					<g
   id="g3469">
						<path
   class="st0"
   d="m 151.2,-75.8 c -0.1,-0.1 -0.2,-0.1 -0.4,-0.1 H 0 c -0.1,0 -0.3,0.1 -0.3,0.1 -0.1,0.1 -0.1,0.2 -0.1,0.4 V 75.4 c 0,0.1 0.1,0.3 0.1,0.4 0.1,0.1 0.2,0.1 0.3,0.1 h 150.9 c 0.1,0 0.3,-0.1 0.4,-0.1 0.1,-0.1 0.1,-0.2 0.1,-0.4 V -75.4 c 0,-0.2 -0.1,-0.3 -0.2,-0.4 M 0.5,-74.9 H 150.4 V 74.9 H 0.5 Z"
   id="path3467" />
					</g>
					<g
   id="g3473">
						<path
   class="st1"
   d="M 150.4,-74.9 H 0.5 V 74.9 H 150.4 V -74.9 m -0.8,0.7 0.2,-0.2 V 74.2 H 1.5 1.2 V -74.4 h 148.4 z"
   id="path3471" />
					</g>
					<g
   id="g3477">
						<path
   class="st2"
   d="m 143.1,-67.5 v 0 L 8,-67.6 V 67.7 L 8.3,67.4 H 143 V -67.5 Z"
   id="path3475" />
					</g>
					<g
   id="g3481">
						<path
   class="st3"
   d="m 149.6,-74.2 v -0.2 H 1.2 V 74.2 H 1.4 L 8,67.7 V -67.6 h 135.2 z"
   id="path3479" />
					</g>
					<g
   id="g3485">
						<path
   class="st4"
   d="m 149.8,-74.4 -0.2,0.2 -6.4,6.5 -0.1,0.1 v 135 H 8.3 L 8,67.7 1.5,74.1 h 148.3 z"
   id="path3483" />
					</g>
				</g>
			</g>
		</g>
	</g><g
   transform="matrix(0.80828857,0,0,0.80828857,490.12332,61.349102)"
   id="g3519">
		<g
   id="g3517">
			<g
   id="g3515">
				<g
   id="Duplicate_Items_Folder_Symbol_4_0_Layer0_0_FILL_00000127761416228770963740000000747956412734915762_">
					<g
   id="g3496">
						<path
   class="st0"
   d="m 151.2,-75.8 c -0.1,-0.1 -0.2,-0.1 -0.4,-0.1 H 0 c -0.1,0 -0.3,0.1 -0.3,0.1 -0.1,0.1 -0.1,0.2 -0.1,0.4 V 75.4 c 0,0.1 0.1,0.3 0.1,0.4 0.1,0.1 0.2,0.1 0.3,0.1 h 150.9 c 0.1,0 0.3,-0.1 0.4,-0.1 0.1,-0.1 0.1,-0.2 0.1,-0.4 V -75.4 c 0,-0.2 -0.1,-0.3 -0.2,-0.4 M 0.5,-74.9 H 150.4 V 74.9 H 0.5 Z"
   id="path3494" />
					</g>
					<g
   id="g3500">
						<path
   class="st1"
   d="M 150.4,-74.9 H 0.5 V 74.9 H 150.4 V -74.9 m -0.8,0.7 0.2,-0.2 V 74.2 H 1.5 1.2 V -74.4 h 148.4 z"
   id="path3498" />
					</g>
					<g
   id="g3504">
						<path
   class="st2"
   d="m 143.1,-67.5 v 0 L 8,-67.6 V 67.7 l 0.4,-0.3 h 134.7 z"
   id="path3502" />
					</g>
					<g
   id="g3508">
						<path
   class="st3"
   d="m 149.6,-74.2 v -0.2 H 1.2 V 74.2 H 1.4 L 8,67.7 V -67.6 h 135.2 z"
   id="path3506" />
					</g>
					<g
   id="g3512">
						<path
   class="st4"
   d="m 149.8,-74.4 -0.2,0.2 -6.4,6.5 -0.1,0.1 v 135 H 8.3 L 8,67.7 1.5,74.1 h 148.3 z"
   id="path3510" />
					</g>
				</g>
			</g>
		</g>
	</g><g
   transform="matrix(0.80828857,0,0,0.80828857,612.57332,61.349102)"
   id="g3546">
		<g
   id="g3544">
			<g
   id="g3542">
				<g
   id="Duplicate_Items_Folder_Symbol_4_0_Layer0_0_FILL_00000097497284776799453170000017390332628603784377_">
					<g
   id="g3523">
						<path
   class="st0"
   d="m 151.2,-75.8 c -0.1,-0.1 -0.2,-0.1 -0.4,-0.1 H 0 c -0.1,0 -0.3,0.1 -0.3,0.1 -0.1,0.1 -0.1,0.2 -0.1,0.4 V 75.4 c 0,0.1 0.1,0.3 0.1,0.4 0.1,0.1 0.2,0.1 0.3,0.1 h 150.9 c 0.1,0 0.3,-0.1 0.4,-0.1 0.1,-0.1 0.1,-0.2 0.1,-0.4 V -75.4 c 0,-0.2 -0.1,-0.3 -0.2,-0.4 M 0.5,-74.9 H 150.4 V 74.9 H 0.5 Z"
   id="path3521" />
					</g>
					<g
   id="g3527">
						<path
   class="st1"
   d="M 150.4,-74.9 H 0.5 V 74.9 H 150.4 V -74.9 m -0.8,0.7 0.2,-0.2 V 74.2 H 1.5 1.2 V -74.4 h 148.4 z"
   id="path3525" />
					</g>
					<g
   id="g3531">
						<path
   class="st2"
   d="m 143.1,-67.5 v 0 L 8,-67.6 V 67.7 l 0.4,-0.3 h 134.7 z"
   id="path3529" />
					</g>
					<g
   id="g3535">
						<path
   class="st3"
   d="m 149.6,-74.2 v -0.2 H 1.2 V 74.2 H 1.4 L 8,67.7 V -67.6 h 135.2 z"
   id="path3533" />
					</g>
					<g
   id="g3539">
						<path
   class="st4"
   d="m 149.8,-74.4 -0.2,0.2 -6.4,6.5 -0.1,0.1 v 135 H 8.3 L 8,67.7 1.5,74.1 h 148.3 z"
   id="path3537" />
					</g>
				</g>
			</g>
		</g>
	</g><g
   transform="matrix(0.80828857,0,0,0.80828857,735.12332,61.349102)"
   id="g3573">
		<g
   id="g3571">
			<g
   id="g3569">
				<g
   id="Duplicate_Items_Folder_Symbol_4_0_Layer0_0_FILL_00000068667367954578840610000005459374431885038225_">
					<g
   id="g3550">
						<path
   class="st0"
   d="m 151.2,-75.8 c -0.1,-0.1 -0.2,-0.1 -0.4,-0.1 H 0 c -0.1,0 -0.3,0.1 -0.3,0.1 -0.1,0.1 -0.1,0.2 -0.1,0.4 V 75.4 c 0,0.1 0.1,0.3 0.1,0.4 0.1,0.1 0.2,0.1 0.3,0.1 h 150.9 c 0.1,0 0.3,-0.1 0.4,-0.1 0.1,-0.1 0.1,-0.2 0.1,-0.4 V -75.4 c 0,-0.2 -0.1,-0.3 -0.2,-0.4 M 0.5,-74.9 H 150.4 V 74.9 H 0.5 Z"
   id="path3548" />
					</g>
					<g
   id="g3554">
						<path
   class="st1"
   d="M 150.4,-74.9 H 0.5 V 74.9 H 150.4 V -74.9 m -0.8,0.7 0.2,-0.2 V 74.2 H 1.5 1.2 V -74.4 h 148.4 z"
   id="path3552" />
					</g>
					<g
   id="g3558">
						<path
   class="st2"
   d="m 143.1,-67.5 v 0 L 8,-67.6 V 67.7 l 0.4,-0.3 h 134.7 z"
   id="path3556" />
					</g>
					<g
   id="g3562">
						<path
   class="st3"
   d="m 149.6,-74.2 v -0.2 H 1.2 V 74.2 H 1.4 L 8,67.7 V -67.6 h 135.2 z"
   id="path3560" />
					</g>
					<g
   id="g3566">
						<path
   class="st4"
   d="m 149.8,-74.4 -0.2,0.2 -6.4,6.5 -0.1,0.1 v 135 H 8.3 L 8,67.7 1.5,74.1 h 148.3 z"
   id="path3564" />
					</g>
				</g>
			</g>
		</g>
	</g><g
   transform="matrix(0.80828857,0,0,0.80828857,0.32331543,180.9991)"
   id="g3600">
		<g
   id="g3598">
			<g
   id="g3596">
				<g
   id="Duplicate_Items_Folder_Symbol_4_0_Layer0_0_FILL_00000098935953377485723230000001298379973757110932_">
					<g
   id="g3577">
						<path
   class="st0"
   d="m 151.2,-75.8 c -0.1,-0.1 -0.2,-0.1 -0.4,-0.1 H 0 c -0.1,0 -0.3,0.1 -0.3,0.1 -0.1,0.1 -0.1,0.2 -0.1,0.4 V 75.4 c 0,0.1 0.1,0.3 0.1,0.4 0.1,0.1 0.2,0.1 0.3,0.1 h 150.9 c 0.1,0 0.3,-0.1 0.4,-0.1 0.1,-0.1 0.1,-0.2 0.1,-0.4 V -75.4 c 0,-0.2 -0.1,-0.3 -0.2,-0.4 M 0.5,-74.9 H 150.4 V 74.9 H 0.5 Z"
   id="path3575" />
					</g>
					<g
   id="g3581">
						<path
   class="st1"
   d="M 150.4,-74.9 H 0.5 V 74.9 H 150.4 V -74.9 m -0.8,0.7 0.2,-0.2 V 74.2 H 1.5 1.2 V -74.4 h 148.4 z"
   id="path3579" />
					</g>
					<g
   id="g3585">
						<path
   class="st2"
   d="m 143.1,-67.5 v 0 L 8,-67.6 V 67.7 L 8.3,67.4 H 143 V -67.5 Z"
   id="path3583" />
					</g>
					<g
   id="g3589">
						<path
   class="st3"
   d="m 149.6,-74.2 v -0.2 H 1.2 V 74.2 H 1.4 L 8,67.7 V -67.6 h 135.2 z"
   id="path3587" />
					</g>
					<g
   id="g3593">
						<path
   class="st4"
   d="m 149.8,-74.4 -0.2,0.2 -6.4,6.5 -0.1,0.1 v 135 H 8.3 L 8,67.7 1.5,74.1 h 148.3 z"
   id="path3591" />
					</g>
				</g>
			</g>
		</g>
	</g><g
   transform="matrix(0.80828857,0,0,0.80828857,122.77332,180.9991)"
   id="g3627">
		<g
   id="g3625">
			<g
   id="g3623">
				<g
   id="Duplicate_Items_Folder_Symbol_4_0_Layer0_0_FILL_00000010282869261343963540000003047898577256897183_">
					<g
   id="g3604">
						<path
   class="st0"
   d="m 151.2,-75.8 c -0.1,-0.1 -0.2,-0.1 -0.4,-0.1 H 0 c -0.1,0 -0.3,0.1 -0.3,0.1 -0.1,0.1 -0.1,0.2 -0.1,0.4 V 75.4 c 0,0.1 0.1,0.3 0.1,0.4 0.1,0.1 0.2,0.1 0.3,0.1 h 150.9 c 0.1,0 0.3,-0.1 0.4,-0.1 0.1,-0.1 0.1,-0.2 0.1,-0.4 V -75.4 c 0,-0.2 -0.1,-0.3 -0.2,-0.4 M 0.5,-74.9 H 150.4 V 74.9 H 0.5 Z"
   id="path3602" />
					</g>
					<g
   id="g3608">
						<path
   class="st1"
   d="M 150.4,-74.9 H 0.5 V 74.9 H 150.4 V -74.9 m -0.8,0.7 0.2,-0.2 V 74.2 H 1.5 1.2 V -74.4 h 148.4 z"
   id="path3606" />
					</g>
					<g
   id="g3612">
						<path
   class="st2"
   d="m 143.1,-67.5 v 0 L 8,-67.6 V 67.7 l 0.4,-0.3 h 134.7 z"
   id="path3610" />
					</g>
					<g
   id="g3616">
						<path
   class="st3"
   d="m 149.6,-74.2 v -0.2 H 1.2 V 74.2 H 1.4 L 8,67.7 V -67.6 h 135.2 z"
   id="path3614" />
					</g>
					<g
   id="g3620">
						<path
   class="st4"
   d="m 149.8,-74.4 -0.2,0.2 -6.4,6.5 -0.1,0.1 v 135 H 8.3 L 8,67.7 1.5,74.1 h 148.3 z"
   id="path3618" />
					</g>
				</g>
			</g>
		</g>
	</g><g
   transform="matrix(0.80828857,0,0,0.80828857,245.22332,180.9991)"
   id="g3654">
		<g
   id="g3652">
			<g
   id="g3650">
				<g
   id="Duplicate_Items_Folder_Symbol_4_0_Layer0_0_FILL_00000031906905040799126660000002256654423919673493_">
					<g
   id="g3631">
						<path
   class="st0"
   d="m 151.2,-75.8 c -0.1,-0.1 -0.2,-0.1 -0.4,-0.1 H 0 c -0.1,0 -0.3,0.1 -0.3,0.1 -0.1,0.1 -0.1,0.2 -0.1,0.4 V 75.4 c 0,0.1 0.1,0.3 0.1,0.4 0.1,0.1 0.2,0.1 0.3,0.1 h 150.9 c 0.1,0 0.3,-0.1 0.4,-0.1 0.1,-0.1 0.1,-0.2 0.1,-0.4 V -75.4 c 0,-0.2 -0.1,-0.3 -0.2,-0.4 M 0.5,-74.9 H 150.4 V 74.9 H 0.5 Z"
   id="path3629" />
					</g>
					<g
   id="g3635">
						<path
   class="st1"
   d="M 150.4,-74.9 H 0.5 V 74.9 H 150.4 V -74.9 m -0.8,0.7 0.2,-0.2 V 74.2 H 1.5 1.2 V -74.4 h 148.4 z"
   id="path3633" />
					</g>
					<g
   id="g3639">
						<path
   class="st2"
   d="m 143.1,-67.5 v 0 L 8,-67.6 V 67.7 L 8.3,67.4 H 143 V -67.5 Z"
   id="path3637" />
					</g>
					<g
   id="g3643">
						<path
   class="st3"
   d="m 149.6,-74.2 v -0.2 H 1.2 V 74.2 H 1.4 L 8,67.7 V -67.6 h 135.2 z"
   id="path3641" />
					</g>
					<g
   id="g3647">
						<path
   class="st4"
   d="m 149.8,-74.4 -0.2,0.2 -6.4,6.5 -0.1,0.1 v 135 H 8.3 L 8,67.7 1.5,74.1 h 148.3 z"
   id="path3645" />
					</g>
				</g>
			</g>
		</g>
	</g><g
   transform="matrix(0.80828857,0,0,0.80828857,367.67332,180.9991)"
   id="g3681">
		<g
   id="g3679">
			<g
   id="g3677">
				<g
   id="Duplicate_Items_Folder_Symbol_4_0_Layer0_0_FILL_00000101808113489081053570000005815447536388867749_">
					<g
   id="g3658">
						<path
   class="st0"
   d="m 151.2,-75.8 c -0.1,-0.1 -0.2,-0.1 -0.4,-0.1 H 0 c -0.1,0 -0.3,0.1 -0.3,0.1 -0.1,0.1 -0.1,0.2 -0.1,0.4 V 75.4 c 0,0.1 0.1,0.3 0.1,0.4 0.1,0.1 0.2,0.1 0.3,0.1 h 150.9 c 0.1,0 0.3,-0.1 0.4,-0.1 0.1,-0.1 0.1,-0.2 0.1,-0.4 V -75.4 c 0,-0.2 -0.1,-0.3 -0.2,-0.4 M 0.5,-74.9 H 150.4 V 74.9 H 0.5 Z"
   id="path3656" />
					</g>
					<g
   id="g3662">
						<path
   class="st1"
   d="M 150.4,-74.9 H 0.5 V 74.9 H 150.4 V -74.9 m -0.8,0.7 0.2,-0.2 V 74.2 H 1.5 1.2 V -74.4 h 148.4 z"
   id="path3660" />
					</g>
					<g
   id="g3666">
						<path
   class="st2"
   d="m 143.1,-67.5 v 0 L 8,-67.6 V 67.7 L 8.3,67.4 H 143 V -67.5 Z"
   id="path3664" />
					</g>
					<g
   id="g3670">
						<path
   class="st3"
   d="m 149.6,-74.2 v -0.2 H 1.2 V 74.2 H 1.4 L 8,67.7 V -67.6 h 135.2 z"
   id="path3668" />
					</g>
					<g
   id="g3674">
						<path
   class="st4"
   d="m 149.8,-74.4 -0.2,0.2 -6.4,6.5 -0.1,0.1 v 135 H 8.3 L 8,67.7 1.5,74.1 h 148.3 z"
   id="path3672" />
					</g>
				</g>
			</g>
		</g>
	</g><g
   transform="matrix(0.80828857,0,0,0.80828857,490.12332,180.9991)"
   id="g3708">
		<g
   id="g3706">
			<g
   id="g3704">
				<g
   id="Duplicate_Items_Folder_Symbol_4_0_Layer0_0_FILL_00000148623022430044216980000003810513447510785152_">
					<g
   id="g3685">
						<path
   class="st0"
   d="m 151.2,-75.8 c -0.1,-0.1 -0.2,-0.1 -0.4,-0.1 H 0 c -0.1,0 -0.3,0.1 -0.3,0.1 -0.1,0.1 -0.1,0.2 -0.1,0.4 V 75.4 c 0,0.1 0.1,0.3 0.1,0.4 0.1,0.1 0.2,0.1 0.3,0.1 h 150.9 c 0.1,0 0.3,-0.1 0.4,-0.1 0.1,-0.1 0.1,-0.2 0.1,-0.4 V -75.4 c 0,-0.2 -0.1,-0.3 -0.2,-0.4 M 0.5,-74.9 H 150.4 V 74.9 H 0.5 Z"
   id="path3683" />
					</g>
					<g
   id="g3689">
						<path
   class="st1"
   d="M 150.4,-74.9 H 0.5 V 74.9 H 150.4 V -74.9 m -0.8,0.7 0.2,-0.2 V 74.2 H 1.5 1.2 V -74.4 h 148.4 z"
   id="path3687" />
					</g>
					<g
   id="g3693">
						<path
   class="st2"
   d="m 143.1,-67.5 v 0 L 8,-67.6 V 67.7 l 0.4,-0.3 h 134.7 z"
   id="path3691" />
					</g>
					<g
   id="g3697">
						<path
   class="st3"
   d="m 149.6,-74.2 v -0.2 H 1.2 V 74.2 H 1.4 L 8,67.7 V -67.6 h 135.2 z"
   id="path3695" />
					</g>
					<g
   id="g3701">
						<path
   class="st4"
   d="m 149.8,-74.4 -0.2,0.2 -6.4,6.5 -0.1,0.1 v 135 H 8.3 L 8,67.7 1.5,74.1 h 148.3 z"
   id="path3699" />
					</g>
				</g>
			</g>
		</g>
	</g><g
   transform="matrix(0.80828857,0,0,0.80828857,612.57332,180.9991)"
   id="g3735">
		<g
   id="g3733">
			<g
   id="g3731">
				<g
   id="Duplicate_Items_Folder_Symbol_4_0_Layer0_0_FILL_00000068676255145335729880000018346459405693199036_">
					<g
   id="g3712">
						<path
   class="st0"
   d="m 151.2,-75.8 c -0.1,-0.1 -0.2,-0.1 -0.4,-0.1 H 0 c -0.1,0 -0.3,0.1 -0.3,0.1 -0.1,0.1 -0.1,0.2 -0.1,0.4 V 75.4 c 0,0.1 0.1,0.3 0.1,0.4 0.1,0.1 0.2,0.1 0.3,0.1 h 150.9 c 0.1,0 0.3,-0.1 0.4,-0.1 0.1,-0.1 0.1,-0.2 0.1,-0.4 V -75.4 c 0,-0.2 -0.1,-0.3 -0.2,-0.4 M 0.5,-74.9 H 150.4 V 74.9 H 0.5 Z"
   id="path3710" />
					</g>
					<g
   id="g3716">
						<path
   class="st1"
   d="M 150.4,-74.9 H 0.5 V 74.9 H 150.4 V -74.9 m -0.8,0.7 0.2,-0.2 V 74.2 H 1.5 1.2 V -74.4 h 148.4 z"
   id="path3714" />
					</g>
					<g
   id="g3720">
						<path
   class="st2"
   d="m 143.1,-67.5 v 0 L 8,-67.6 V 67.7 l 0.4,-0.3 h 134.7 z"
   id="path3718" />
					</g>
					<g
   id="g3724">
						<path
   class="st3"
   d="m 149.6,-74.2 v -0.2 H 1.2 V 74.2 H 1.4 L 8,67.7 V -67.6 h 135.2 z"
   id="path3722" />
					</g>
					<g
   id="g3728">
						<path
   class="st4"
   d="m 149.8,-74.4 -0.2,0.2 -6.4,6.5 -0.1,0.1 v 135 H 8.3 L 8,67.7 1.5,74.1 h 148.3 z"
   id="path3726" />
					</g>
				</g>
			</g>
		</g>
	</g><g
   transform="matrix(0.80828857,0,0,0.80828857,735.12332,180.9991)"
   id="g3762">
		<g
   id="g3760">
			<g
   id="g3758">
				<g
   id="Duplicate_Items_Folder_Symbol_4_0_Layer0_0_FILL_00000178903725109501738680000003021235784109561475_">
					<g
   id="g3739">
						<path
   class="st0"
   d="m 151.2,-75.8 c -0.1,-0.1 -0.2,-0.1 -0.4,-0.1 H 0 c -0.1,0 -0.3,0.1 -0.3,0.1 -0.1,0.1 -0.1,0.2 -0.1,0.4 V 75.4 c 0,0.1 0.1,0.3 0.1,0.4 0.1,0.1 0.2,0.1 0.3,0.1 h 150.9 c 0.1,0 0.3,-0.1 0.4,-0.1 0.1,-0.1 0.1,-0.2 0.1,-0.4 V -75.4 c 0,-0.2 -0.1,-0.3 -0.2,-0.4 M 0.5,-74.9 H 150.4 V 74.9 H 0.5 Z"
   id="path3737" />
					</g>
					<g
   id="g3743">
						<path
   class="st1"
   d="M 150.4,-74.9 H 0.5 V 74.9 H 150.4 V -74.9 m -0.8,0.7 0.2,-0.2 V 74.2 H 1.5 1.2 V -74.4 h 148.4 z"
   id="path3741" />
					</g>
					<g
   id="g3747">
						<path
   class="st2"
   d="m 143.1,-67.5 v 0 L 8,-67.6 V 67.7 l 0.4,-0.3 h 134.7 z"
   id="path3745" />
					</g>
					<g
   id="g3751">
						<path
   class="st3"
   d="m 149.6,-74.2 v -0.2 H 1.2 V 74.2 H 1.4 L 8,67.7 V -67.6 h 135.2 z"
   id="path3749" />
					</g>
					<g
   id="g3755">
						<path
   class="st4"
   d="m 149.8,-74.4 -0.2,0.2 -6.4,6.5 -0.1,0.1 v 135 H 8.3 L 8,67.7 1.5,74.1 h 148.3 z"
   id="path3753" />
					</g>
				</g>
			</g>
		</g>
	</g><g
   transform="matrix(0.80828857,0,0,0.80828857,0.32331543,300.5991)"
   id="g3789">
		<g
   id="g3787">
			<g
   id="g3785">
				<g
   id="Duplicate_Items_Folder_Symbol_4_0_Layer0_0_FILL_00000016076287801236073990000012813079132533888651_">
					<g
   id="g3766">
						<path
   class="st0"
   d="m 151.2,-75.8 c -0.1,-0.1 -0.2,-0.1 -0.4,-0.1 H 0 c -0.1,0 -0.3,0.1 -0.3,0.1 -0.1,0.1 -0.1,0.2 -0.1,0.4 V 75.4 c 0,0.1 0.1,0.3 0.1,0.4 0.1,0.1 0.2,0.1 0.3,0.1 h 150.9 c 0.1,0 0.3,-0.1 0.4,-0.1 0.1,-0.1 0.1,-0.2 0.1,-0.4 V -75.4 c 0,-0.2 -0.1,-0.3 -0.2,-0.4 M 0.5,-74.9 H 150.4 V 74.9 H 0.5 Z"
   id="path3764" />
					</g>
					<g
   id="g3770">
						<path
   class="st1"
   d="M 150.4,-74.9 H 0.5 V 74.9 H 150.4 V -74.9 m -0.8,0.7 0.2,-0.2 V 74.2 H 1.5 1.2 V -74.4 h 148.4 z"
   id="path3768" />
					</g>
					<g
   id="g3774">
						<path
   class="st2"
   d="m 143.1,-67.5 v 0 L 8,-67.6 V 67.7 L 8.3,67.4 H 143 V -67.5 Z"
   id="path3772" />
					</g>
					<g
   id="g3778">
						<path
   class="st3"
   d="m 149.6,-74.2 v -0.2 H 1.2 V 74.2 H 1.4 L 8,67.7 V -67.6 h 135.2 z"
   id="path3776" />
					</g>
					<g
   id="g3782">
						<path
   class="st4"
   d="m 149.8,-74.4 -0.2,0.2 -6.4,6.5 -0.1,0.1 v 135 H 8.3 L 8,67.7 1.5,74.1 h 148.3 z"
   id="path3780" />
					</g>
				</g>
			</g>
		</g>
	</g><g
   transform="matrix(0.80828857,0,0,0.80828857,122.77332,300.5991)"
   id="g3816">
		<g
   id="g3814">
			<g
   id="g3812">
				<g
   id="Duplicate_Items_Folder_Symbol_4_0_Layer0_0_FILL_00000134932168618403840680000011088508444235831974_">
					<g
   id="g3793">
						<path
   class="st0"
   d="m 151.2,-75.8 c -0.1,-0.1 -0.2,-0.1 -0.4,-0.1 H 0 c -0.1,0 -0.3,0.1 -0.3,0.1 -0.1,0.1 -0.1,0.2 -0.1,0.4 V 75.4 c 0,0.1 0.1,0.3 0.1,0.4 0.1,0.1 0.2,0.1 0.3,0.1 h 150.9 c 0.1,0 0.3,-0.1 0.4,-0.1 0.1,-0.1 0.1,-0.2 0.1,-0.4 V -75.4 c 0,-0.2 -0.1,-0.3 -0.2,-0.4 M 0.5,-74.9 H 150.4 V 74.9 H 0.5 Z"
   id="path3791" />
					</g>
					<g
   id="g3797">
						<path
   class="st1"
   d="M 150.4,-74.9 H 0.5 V 74.9 H 150.4 V -74.9 m -0.8,0.7 0.2,-0.2 V 74.2 H 1.5 1.2 V -74.4 h 148.4 z"
   id="path3795" />
					</g>
					<g
   id="g3801">
						<path
   class="st2"
   d="m 143.1,-67.5 v 0 L 8,-67.6 V 67.7 l 0.4,-0.3 h 134.7 z"
   id="path3799" />
					</g>
					<g
   id="g3805">
						<path
   class="st3"
   d="m 149.6,-74.2 v -0.2 H 1.2 V 74.2 H 1.4 L 8,67.7 V -67.6 h 135.2 z"
   id="path3803" />
					</g>
					<g
   id="g3809">
						<path
   class="st4"
   d="m 149.8,-74.4 -0.2,0.2 -6.4,6.5 -0.1,0.1 v 135 H 8.3 L 8,67.7 1.5,74.1 h 148.3 z"
   id="path3807" />
					</g>
				</g>
			</g>
		</g>
	</g><g
   transform="matrix(0.80828857,0,0,0.80828857,245.22332,300.5991)"
   id="g3843">
		<g
   id="g3841">
			<g
   id="g3839">
				<g
   id="Duplicate_Items_Folder_Symbol_4_0_Layer0_0_FILL_00000078033939582523499420000015822503872599413127_">
					<g
   id="g3820">
						<path
   class="st0"
   d="m 151.2,-75.8 c -0.1,-0.1 -0.2,-0.1 -0.4,-0.1 H 0 c -0.1,0 -0.3,0.1 -0.3,0.1 -0.1,0.1 -0.1,0.2 -0.1,0.4 V 75.4 c 0,0.1 0.1,0.3 0.1,0.4 0.1,0.1 0.2,0.1 0.3,0.1 h 150.9 c 0.1,0 0.3,-0.1 0.4,-0.1 0.1,-0.1 0.1,-0.2 0.1,-0.4 V -75.4 c 0,-0.2 -0.1,-0.3 -0.2,-0.4 M 0.5,-74.9 H 150.4 V 74.9 H 0.5 Z"
   id="path3818" />
					</g>
					<g
   id="g3824">
						<path
   class="st1"
   d="M 150.4,-74.9 H 0.5 V 74.9 H 150.4 V -74.9 m -0.8,0.7 0.2,-0.2 V 74.2 H 1.5 1.2 V -74.4 h 148.4 z"
   id="path3822" />
					</g>
					<g
   id="g3828">
						<path
   class="st2"
   d="m 143.1,-67.5 v 0 L 8,-67.6 V 67.7 L 8.3,67.4 H 143 V -67.5 Z"
   id="path3826" />
					</g>
					<g
   id="g3832">
						<path
   class="st3"
   d="m 149.6,-74.2 v -0.2 H 1.2 V 74.2 H 1.4 L 8,67.7 V -67.6 h 135.2 z"
   id="path3830" />
					</g>
					<g
   id="g3836">
						<path
   class="st4"
   d="m 149.8,-74.4 -0.2,0.2 -6.4,6.5 -0.1,0.1 v 135 H 8.3 L 8,67.7 1.5,74.1 h 148.3 z"
   id="path3834" />
					</g>
				</g>
			</g>
		</g>
	</g><g
   transform="matrix(0.80828857,0,0,0.80828857,367.67332,300.5991)"
   id="g3870">
		<g
   id="g3868">
			<g
   id="g3866">
				<g
   id="Duplicate_Items_Folder_Symbol_4_0_Layer0_0_FILL_00000026140050304109919800000016580085525223730825_">
					<g
   id="g3847">
						<path
   class="st0"
   d="m 151.2,-75.8 c -0.1,-0.1 -0.2,-0.1 -0.4,-0.1 H 0 c -0.1,0 -0.3,0.1 -0.3,0.1 -0.1,0.1 -0.1,0.2 -0.1,0.4 V 75.4 c 0,0.1 0.1,0.3 0.1,0.4 0.1,0.1 0.2,0.1 0.3,0.1 h 150.9 c 0.1,0 0.3,-0.1 0.4,-0.1 0.1,-0.1 0.1,-0.2 0.1,-0.4 V -75.4 c 0,-0.2 -0.1,-0.3 -0.2,-0.4 M 0.5,-74.9 H 150.4 V 74.9 H 0.5 Z"
   id="path3845" />
					</g>
					<g
   id="g3851">
						<path
   class="st1"
   d="M 150.4,-74.9 H 0.5 V 74.9 H 150.4 V -74.9 m -0.8,0.7 0.2,-0.2 V 74.2 H 1.5 1.2 V -74.4 h 148.4 z"
   id="path3849" />
					</g>
					<g
   id="g3855">
						<path
   class="st2"
   d="m 143.1,-67.5 v 0 L 8,-67.6 V 67.7 L 8.3,67.4 H 143 V -67.5 Z"
   id="path3853" />
					</g>
					<g
   id="g3859">
						<path
   class="st3"
   d="m 149.6,-74.2 v -0.2 H 1.2 V 74.2 H 1.4 L 8,67.7 V -67.6 h 135.2 z"
   id="path3857" />
					</g>
					<g
   id="g3863">
						<path
   class="st4"
   d="m 149.8,-74.4 -0.2,0.2 -6.4,6.5 -0.1,0.1 v 135 H 8.3 L 8,67.7 1.5,74.1 h 148.3 z"
   id="path3861" />
					</g>
				</g>
			</g>
		</g>
	</g><g
   transform="matrix(0.80828857,0,0,0.80828857,490.12332,300.5991)"
   id="g3897">
		<g
   id="g3895">
			<g
   id="g3893">
				<g
   id="Duplicate_Items_Folder_Symbol_4_0_Layer0_0_FILL_00000090998860055647108510000010414270576567189393_">
					<g
   id="g3874">
						<path
   class="st0"
   d="m 151.2,-75.8 c -0.1,-0.1 -0.2,-0.1 -0.4,-0.1 H 0 c -0.1,0 -0.3,0.1 -0.3,0.1 -0.1,0.1 -0.1,0.2 -0.1,0.4 V 75.4 c 0,0.1 0.1,0.3 0.1,0.4 0.1,0.1 0.2,0.1 0.3,0.1 h 150.9 c 0.1,0 0.3,-0.1 0.4,-0.1 0.1,-0.1 0.1,-0.2 0.1,-0.4 V -75.4 c 0,-0.2 -0.1,-0.3 -0.2,-0.4 M 0.5,-74.9 H 150.4 V 74.9 H 0.5 Z"
   id="path3872" />
					</g>
					<g
   id="g3878">
						<path
   class="st1"
   d="M 150.4,-74.9 H 0.5 V 74.9 H 150.4 V -74.9 m -0.8,0.7 0.2,-0.2 V 74.2 H 1.5 1.2 V -74.4 h 148.4 z"
   id="path3876" />
					</g>
					<g
   id="g3882">
						<path
   class="st2"
   d="m 143.1,-67.5 v 0 L 8,-67.6 V 67.7 l 0.4,-0.3 h 134.7 z"
   id="path3880" />
					</g>
					<g
   id="g3886">
						<path
   class="st3"
   d="m 149.6,-74.2 v -0.2 H 1.2 V 74.2 H 1.4 L 8,67.7 V -67.6 h 135.2 z"
   id="path3884" />
					</g>
					<g
   id="g3890">
						<path
   class="st4"
   d="m 149.8,-74.4 -0.2,0.2 -6.4,6.5 -0.1,0.1 v 135 H 8.3 L 8,67.7 1.5,74.1 h 148.3 z"
   id="path3888" />
					</g>
				</g>
			</g>
		</g>
	</g><g
   transform="matrix(0.80828857,0,0,0.80828857,612.57332,300.5991)"
   id="g3924">
		<g
   id="g3922">
			<g
   id="g3920">
				<g
   id="Duplicate_Items_Folder_Symbol_4_0_Layer0_0_FILL_00000142893302461108046060000013443881986408851878_">
					<g
   id="g3901">
						<path
   class="st0"
   d="m 151.2,-75.8 c -0.1,-0.1 -0.2,-0.1 -0.4,-0.1 H 0 c -0.1,0 -0.3,0.1 -0.3,0.1 -0.1,0.1 -0.1,0.2 -0.1,0.4 V 75.4 c 0,0.1 0.1,0.3 0.1,0.4 0.1,0.1 0.2,0.1 0.3,0.1 h 150.9 c 0.1,0 0.3,-0.1 0.4,-0.1 0.1,-0.1 0.1,-0.2 0.1,-0.4 V -75.4 c 0,-0.2 -0.1,-0.3 -0.2,-0.4 M 0.5,-74.9 H 150.4 V 74.9 H 0.5 Z"
   id="path3899" />
					</g>
					<g
   id="g3905">
						<path
   class="st1"
   d="M 150.4,-74.9 H 0.5 V 74.9 H 150.4 V -74.9 m -0.8,0.7 0.2,-0.2 V 74.2 H 1.5 1.2 V -74.4 h 148.4 z"
   id="path3903" />
					</g>
					<g
   id="g3909">
						<path
   class="st2"
   d="m 143.1,-67.5 v 0 L 8,-67.6 V 67.7 l 0.4,-0.3 h 134.7 z"
   id="path3907" />
					</g>
					<g
   id="g3913">
						<path
   class="st3"
   d="m 149.6,-74.2 v -0.2 H 1.2 V 74.2 H 1.4 L 8,67.7 V -67.6 h 135.2 z"
   id="path3911" />
					</g>
					<g
   id="g3917">
						<path
   class="st4"
   d="m 149.8,-74.4 -0.2,0.2 -6.4,6.5 -0.1,0.1 v 135 H 8.3 L 8,67.7 1.5,74.1 h 148.3 z"
   id="path3915" />
					</g>
				</g>
			</g>
		</g>
	</g><g
   transform="matrix(0.80828857,0,0,0.80828857,735.12332,300.5991)"
   id="g3951">
		<g
   id="g3949">
			<g
   id="g3947">
				<g
   id="Duplicate_Items_Folder_Symbol_4_0_Layer0_0_FILL_00000021839062649158354910000005879760877082891452_">
					<g
   id="g3928">
						<path
   class="st0"
   d="m 151.2,-75.8 c -0.1,-0.1 -0.2,-0.1 -0.4,-0.1 H 0 c -0.1,0 -0.3,0.1 -0.3,0.1 -0.1,0.1 -0.1,0.2 -0.1,0.4 V 75.4 c 0,0.1 0.1,0.3 0.1,0.4 0.1,0.1 0.2,0.1 0.3,0.1 h 150.9 c 0.1,0 0.3,-0.1 0.4,-0.1 0.1,-0.1 0.1,-0.2 0.1,-0.4 V -75.4 c 0,-0.2 -0.1,-0.3 -0.2,-0.4 M 0.5,-74.9 H 150.4 V 74.9 H 0.5 Z"
   id="path3926" />
					</g>
					<g
   id="g3932">
						<path
   class="st1"
   d="M 150.4,-74.9 H 0.5 V 74.9 H 150.4 V -74.9 m -0.8,0.7 0.2,-0.2 V 74.2 H 1.5 1.2 V -74.4 h 148.4 z"
   id="path3930" />
					</g>
					<g
   id="g3936">
						<path
   class="st2"
   d="m 143.1,-67.5 v 0 L 8,-67.6 V 67.7 l 0.4,-0.3 h 134.7 z"
   id="path3934" />
					</g>
					<g
   id="g3940">
						<path
   class="st3"
   d="m 149.6,-74.2 v -0.2 H 1.2 V 74.2 H 1.4 L 8,67.7 V -67.6 h 135.2 z"
   id="path3938" />
					</g>
					<g
   id="g3944">
						<path
   class="st4"
   d="m 149.8,-74.4 -0.2,0.2 -6.4,6.5 -0.1,0.1 v 135 H 8.3 L 8,67.7 1.5,74.1 h 148.3 z"
   id="path3942" />
					</g>
				</g>
			</g>
		</g>
	</g><g
   transform="matrix(0.80828857,0,0,0.80828857,0.32331543,420.2491)"
   id="g3978">
		<g
   id="g3976">
			<g
   id="g3974">
				<g
   id="Duplicate_Items_Folder_Symbol_4_0_Layer0_0_FILL_00000033335836145372437240000008115325097484869028_">
					<g
   id="g3955">
						<path
   class="st0"
   d="m 151.2,-75.8 c -0.1,-0.1 -0.2,-0.1 -0.4,-0.1 H 0 c -0.1,0 -0.3,0.1 -0.3,0.1 -0.1,0.1 -0.1,0.2 -0.1,0.4 V 75.4 c 0,0.1 0.1,0.3 0.1,0.4 0.1,0.1 0.2,0.1 0.3,0.1 h 150.9 c 0.1,0 0.3,-0.1 0.4,-0.1 0.1,-0.1 0.1,-0.2 0.1,-0.4 V -75.4 c 0,-0.2 -0.1,-0.3 -0.2,-0.4 M 0.5,-74.9 H 150.4 V 74.9 H 0.5 Z"
   id="path3953" />
					</g>
					<g
   id="g3959">
						<path
   class="st1"
   d="M 150.4,-74.9 H 0.5 V 74.9 H 150.4 V -74.9 m -0.8,0.7 0.2,-0.2 V 74.2 H 1.5 1.2 V -74.4 h 148.4 z"
   id="path3957" />
					</g>
					<g
   id="g3963">
						<path
   class="st2"
   d="m 143.1,-67.5 v 0 L 8,-67.6 V 67.7 L 8.3,67.4 H 143 V -67.5 Z"
   id="path3961" />
					</g>
					<g
   id="g3967">
						<path
   class="st3"
   d="m 149.6,-74.2 v -0.2 H 1.2 V 74.2 H 1.4 L 8,67.7 V -67.6 h 135.2 z"
   id="path3965" />
					</g>
					<g
   id="g3971">
						<path
   class="st4"
   d="m 149.8,-74.4 -0.2,0.2 -6.4,6.5 -0.1,0.1 v 135 H 8.3 L 8,67.7 1.5,74.1 h 148.3 z"
   id="path3969" />
					</g>
				</g>
			</g>
		</g>
	</g><g
   transform="matrix(0.80828857,0,0,0.80828857,122.77332,420.2491)"
   id="g4005">
		<g
   id="g4003">
			<g
   id="g4001">
				<g
   id="Duplicate_Items_Folder_Symbol_4_0_Layer0_0_FILL_00000021115631079104637930000004684443091697030027_">
					<g
   id="g3982">
						<path
   class="st0"
   d="m 151.2,-75.8 c -0.1,-0.1 -0.2,-0.1 -0.4,-0.1 H 0 c -0.1,0 -0.3,0.1 -0.3,0.1 -0.1,0.1 -0.1,0.2 -0.1,0.4 V 75.4 c 0,0.1 0.1,0.3 0.1,0.4 0.1,0.1 0.2,0.1 0.3,0.1 h 150.9 c 0.1,0 0.3,-0.1 0.4,-0.1 0.1,-0.1 0.1,-0.2 0.1,-0.4 V -75.4 c 0,-0.2 -0.1,-0.3 -0.2,-0.4 M 0.5,-74.9 H 150.4 V 74.9 H 0.5 Z"
   id="path3980" />
					</g>
					<g
   id="g3986">
						<path
   class="st1"
   d="M 150.4,-74.9 H 0.5 V 74.9 H 150.4 V -74.9 m -0.8,0.7 0.2,-0.2 V 74.2 H 1.5 1.2 V -74.4 h 148.4 z"
   id="path3984" />
					</g>
					<g
   id="g3990">
						<path
   class="st2"
   d="m 143.1,-67.5 v 0 L 8,-67.6 V 67.7 l 0.4,-0.3 h 134.7 z"
   id="path3988" />
					</g>
					<g
   id="g3994">
						<path
   class="st3"
   d="m 149.6,-74.2 v -0.2 H 1.2 V 74.2 H 1.4 L 8,67.7 V -67.6 h 135.2 z"
   id="path3992" />
					</g>
					<g
   id="g3998">
						<path
   class="st4"
   d="m 149.8,-74.4 -0.2,0.2 -6.4,6.5 -0.1,0.1 v 135 H 8.3 L 8,67.7 1.5,74.1 h 148.3 z"
   id="path3996" />
					</g>
				</g>
			</g>
		</g>
	</g><g
   transform="matrix(0.80828857,0,0,0.80828857,245.22332,420.2491)"
   id="g4032">
		<g
   id="g4030">
			<g
   id="g4028">
				<g
   id="Duplicate_Items_Folder_Symbol_4_0_Layer0_0_FILL_00000099637343416124633990000000342304737978954899_">
					<g
   id="g4009">
						<path
   class="st0"
   d="m 151.2,-75.8 c -0.1,-0.1 -0.2,-0.1 -0.4,-0.1 H 0 c -0.1,0 -0.3,0.1 -0.3,0.1 -0.1,0.1 -0.1,0.2 -0.1,0.4 V 75.4 c 0,0.1 0.1,0.3 0.1,0.4 0.1,0.1 0.2,0.1 0.3,0.1 h 150.9 c 0.1,0 0.3,-0.1 0.4,-0.1 0.1,-0.1 0.1,-0.2 0.1,-0.4 V -75.4 c 0,-0.2 -0.1,-0.3 -0.2,-0.4 M 0.5,-74.9 H 150.4 V 74.9 H 0.5 Z"
   id="path4007" />
					</g>
					<g
   id="g4013">
						<path
   class="st1"
   d="M 150.4,-74.9 H 0.5 V 74.9 H 150.4 V -74.9 m -0.8,0.7 0.2,-0.2 V 74.2 H 1.5 1.2 V -74.4 h 148.4 z"
   id="path4011" />
					</g>
					<g
   id="g4017">
						<path
   class="st2"
   d="m 143.1,-67.5 v 0 L 8,-67.6 V 67.7 L 8.3,67.4 H 143 V -67.5 Z"
   id="path4015" />
					</g>
					<g
   id="g4021">
						<path
   class="st3"
   d="m 149.6,-74.2 v -0.2 H 1.2 V 74.2 H 1.4 L 8,67.7 V -67.6 h 135.2 z"
   id="path4019" />
					</g>
					<g
   id="g4025">
						<path
   class="st4"
   d="m 149.8,-74.4 -0.2,0.2 -6.4,6.5 -0.1,0.1 v 135 H 8.3 L 8,67.7 1.5,74.1 h 148.3 z"
   id="path4023" />
					</g>
				</g>
			</g>
		</g>
	</g><g
   transform="matrix(0.80828857,0,0,0.80828857,367.67332,420.2491)"
   id="g4059">
		<g
   id="g4057">
			<g
   id="g4055">
				<g
   id="Duplicate_Items_Folder_Symbol_4_0_Layer0_0_FILL_00000176002238526707892410000010896268844058837653_">
					<g
   id="g4036">
						<path
   class="st0"
   d="m 151.2,-75.8 c -0.1,-0.1 -0.2,-0.1 -0.4,-0.1 H 0 c -0.1,0 -0.3,0.1 -0.3,0.1 -0.1,0.1 -0.1,0.2 -0.1,0.4 V 75.4 c 0,0.1 0.1,0.3 0.1,0.4 0.1,0.1 0.2,0.1 0.3,0.1 h 150.9 c 0.1,0 0.3,-0.1 0.4,-0.1 0.1,-0.1 0.1,-0.2 0.1,-0.4 V -75.4 c 0,-0.2 -0.1,-0.3 -0.2,-0.4 M 0.5,-74.9 H 150.4 V 74.9 H 0.5 Z"
   id="path4034" />
					</g>
					<g
   id="g4040">
						<path
   class="st1"
   d="M 150.4,-74.9 H 0.5 V 74.9 H 150.4 V -74.9 m -0.8,0.7 0.2,-0.2 V 74.2 H 1.5 1.2 V -74.4 h 148.4 z"
   id="path4038" />
					</g>
					<g
   id="g4044">
						<path
   class="st2"
   d="m 143.1,-67.5 v 0 L 8,-67.6 V 67.7 L 8.3,67.4 H 143 V -67.5 Z"
   id="path4042" />
					</g>
					<g
   id="g4048">
						<path
   class="st3"
   d="m 149.6,-74.2 v -0.2 H 1.2 V 74.2 H 1.4 L 8,67.7 V -67.6 h 135.2 z"
   id="path4046" />
					</g>
					<g
   id="g4052">
						<path
   class="st4"
   d="m 149.8,-74.4 -0.2,0.2 -6.4,6.5 -0.1,0.1 v 135 H 8.3 L 8,67.7 1.5,74.1 h 148.3 z"
   id="path4050" />
					</g>
				</g>
			</g>
		</g>
	</g><g
   transform="matrix(0.80828857,0,0,0.80828857,490.12332,420.2491)"
   id="g4086">
		<g
   id="g4084">
			<g
   id="g4082">
				<g
   id="Duplicate_Items_Folder_Symbol_4_0_Layer0_0_FILL_00000016033674009377286970000017306531843277609653_">
					<g
   id="g4063">
						<path
   class="st0"
   d="m 151.2,-75.8 c -0.1,-0.1 -0.2,-0.1 -0.4,-0.1 H 0 c -0.1,0 -0.3,0.1 -0.3,0.1 -0.1,0.1 -0.1,0.2 -0.1,0.4 V 75.4 c 0,0.1 0.1,0.3 0.1,0.4 0.1,0.1 0.2,0.1 0.3,0.1 h 150.9 c 0.1,0 0.3,-0.1 0.4,-0.1 0.1,-0.1 0.1,-0.2 0.1,-0.4 V -75.4 c 0,-0.2 -0.1,-0.3 -0.2,-0.4 M 0.5,-74.9 H 150.4 V 74.9 H 0.5 Z"
   id="path4061" />
					</g>
					<g
   id="g4067">
						<path
   class="st1"
   d="M 150.4,-74.9 H 0.5 V 74.9 H 150.4 V -74.9 m -0.8,0.7 0.2,-0.2 V 74.2 H 1.5 1.2 V -74.4 h 148.4 z"
   id="path4065" />
					</g>
					<g
   id="g4071">
						<path
   class="st2"
   d="m 143.1,-67.5 v 0 L 8,-67.6 V 67.7 l 0.4,-0.3 h 134.7 z"
   id="path4069" />
					</g>
					<g
   id="g4075">
						<path
   class="st3"
   d="m 149.6,-74.2 v -0.2 H 1.2 V 74.2 H 1.4 L 8,67.7 V -67.6 h 135.2 z"
   id="path4073" />
					</g>
					<g
   id="g4079">
						<path
   class="st4"
   d="m 149.8,-74.4 -0.2,0.2 -6.4,6.5 -0.1,0.1 v 135 H 8.3 L 8,67.7 1.5,74.1 h 148.3 z"
   id="path4077" />
					</g>
				</g>
			</g>
		</g>
	</g><g
   transform="matrix(0.80828857,0,0,0.80828857,612.57332,420.2491)"
   id="g4113">
		<g
   id="g4111">
			<g
   id="g4109">
				<g
   id="Duplicate_Items_Folder_Symbol_4_0_Layer0_0_FILL_00000024680212973241960100000004283109319019715491_">
					<g
   id="g4090">
						<path
   class="st0"
   d="m 151.2,-75.8 c -0.1,-0.1 -0.2,-0.1 -0.4,-0.1 H 0 c -0.1,0 -0.3,0.1 -0.3,0.1 -0.1,0.1 -0.1,0.2 -0.1,0.4 V 75.4 c 0,0.1 0.1,0.3 0.1,0.4 0.1,0.1 0.2,0.1 0.3,0.1 h 150.9 c 0.1,0 0.3,-0.1 0.4,-0.1 0.1,-0.1 0.1,-0.2 0.1,-0.4 V -75.4 c 0,-0.2 -0.1,-0.3 -0.2,-0.4 M 0.5,-74.9 H 150.4 V 74.9 H 0.5 Z"
   id="path4088" />
					</g>
					<g
   id="g4094">
						<path
   class="st1"
   d="M 150.4,-74.9 H 0.5 V 74.9 H 150.4 V -74.9 m -0.8,0.7 0.2,-0.2 V 74.2 H 1.5 1.2 V -74.4 h 148.4 z"
   id="path4092" />
					</g>
					<g
   id="g4098">
						<path
   class="st2"
   d="m 143.1,-67.5 v 0 L 8,-67.6 V 67.7 l 0.4,-0.3 h 134.7 z"
   id="path4096" />
					</g>
					<g
   id="g4102">
						<path
   class="st3"
   d="m 149.6,-74.2 v -0.2 H 1.2 V 74.2 H 1.4 L 8,67.7 V -67.6 h 135.2 z"
   id="path4100" />
					</g>
					<g
   id="g4106">
						<path
   class="st4"
   d="m 149.8,-74.4 -0.2,0.2 -6.4,6.5 -0.1,0.1 v 135 H 8.3 L 8,67.7 1.5,74.1 h 148.3 z"
   id="path4104" />
					</g>
				</g>
			</g>
		</g>
	</g><g
   transform="matrix(0.80828857,0,0,0.80828857,735.12332,420.2491)"
   id="g4140">
		<g
   id="g4138">
			<g
   id="g4136">
				<g
   id="Duplicate_Items_Folder_Symbol_4_0_Layer0_0_FILL_00000039098422256013575520000012491069073063509920_">
					<g
   id="g4117">
						<path
   class="st0"
   d="m 151.2,-75.8 c -0.1,-0.1 -0.2,-0.1 -0.4,-0.1 H 0 c -0.1,0 -0.3,0.1 -0.3,0.1 -0.1,0.1 -0.1,0.2 -0.1,0.4 V 75.4 c 0,0.1 0.1,0.3 0.1,0.4 0.1,0.1 0.2,0.1 0.3,0.1 h 150.9 c 0.1,0 0.3,-0.1 0.4,-0.1 0.1,-0.1 0.1,-0.2 0.1,-0.4 V -75.4 c 0,-0.2 -0.1,-0.3 -0.2,-0.4 M 0.5,-74.9 H 150.4 V 74.9 H 0.5 Z"
   id="path4115" />
					</g>
					<g
   id="g4121">
						<path
   class="st1"
   d="M 150.4,-74.9 H 0.5 V 74.9 H 150.4 V -74.9 m -0.8,0.7 0.2,-0.2 V 74.2 H 1.5 1.2 V -74.4 h 148.4 z"
   id="path4119" />
					</g>
					<g
   id="g4125">
						<path
   class="st2"
   d="m 143.1,-67.5 v 0 L 8,-67.6 V 67.7 l 0.4,-0.3 h 134.7 z"
   id="path4123" />
					</g>
					<g
   id="g4129">
						<path
   class="st3"
   d="m 149.6,-74.2 v -0.2 H 1.2 V 74.2 H 1.4 L 8,67.7 V -67.6 h 135.2 z"
   id="path4127" />
					</g>
					<g
   id="g4133">
						<path
   class="st4"
   d="m 149.8,-74.4 -0.2,0.2 -6.4,6.5 -0.1,0.1 v 135 H 8.3 L 8,67.7 1.5,74.1 h 148.3 z"
   id="path4131" />
					</g>
				</g>
			</g>
		</g>
	</g>
<g
   id="_x32_bYVbg_00000149370432276206216530000006313526561954679431_"
   transform="translate(-0.07668457,-0.05089754)">
	<g
   id="g4365">
		<g
   id="g4335">
			<path
   class="st3"
   d="m 707.8,422.4 c 0,8 0,16.1 0,24.1 0,5.1 -3.2,9 -8.2,10 -0.6,0.1 -1.1,0.1 -1.7,0.1 -6.2,-0.2 -12.5,-0.6 -18.7,-0.5 -6.1,0.1 -12.2,0.6 -18.3,0.8 -4.1,0.2 -8.3,0.3 -12.4,0.2 -4.5,-0.1 -8.7,-3.8 -9.8,-8.4 -0.2,-0.9 -0.3,-1.7 -0.3,-2.6 0,-16.1 0,-32.2 0,-48.4 0,-5.8 4.5,-10.2 10.3,-10.1 7.5,0.2 14.9,-0.3 22.4,-0.8 7.6,-0.5 15.1,-0.5 22.7,0 1.8,0.1 3.7,0.2 5.5,0.5 4.8,0.9 8.7,5.5 8.7,10.5 -0.1,8.2 -0.2,16.4 -0.2,24.6 z m -4.6,-0.2 c 0,-8 0,-16.1 0,-24.1 0,-3.1 -1.9,-5.6 -4.9,-6.2 -1.5,-0.3 -3.1,-0.3 -4.6,-0.4 -8.3,-0.6 -16.6,-0.4 -25,0.1 -6.5,0.3 -13.1,0.5 -19.6,0.7 -3.8,0.1 -6.2,2.3 -6.2,6.1 0,13.5 0,26.9 0,40.4 0,2.6 0,5.1 0,7.7 0,3.2 2.7,6.1 5.9,6 4.9,0 9.8,-0.1 14.7,-0.3 5,-0.2 9.9,-0.6 14.9,-0.7 6.2,-0.2 12.5,0.2 18.7,0.5 3.6,0.2 6.1,-2.2 6.1,-5.8 0,-8 0,-16 0,-24 z"
   id="path4333" />
		</g>
		<g
   id="g4339">
			<path
   class="st5"
   d="m 703.2,422.2 c 0,8 0,15.9 0,23.9 0,3.6 -2.5,6 -6.1,5.8 -6.2,-0.3 -12.5,-0.8 -18.7,-0.5 -5,0.2 -9.9,0.6 -14.9,0.7 -4.9,0.2 -9.8,0.3 -14.7,0.3 -3.2,0 -5.9,-2.8 -5.9,-6 0,-2.6 0,-5.1 0,-7.7 0,-13.5 0,-26.9 0,-40.4 0,-3.8 2.4,-6 6.2,-6.1 6.6,-0.1 13.1,-0.3 19.6,-0.7 8.3,-0.4 16.6,-0.6 25,-0.1 1.5,0.1 3.1,0.1 4.6,0.4 3,0.6 4.9,3.2 4.9,6.2 0,8.1 0,16.2 0,24.2 z"
   id="path4337" />
		</g>
		<g
   id="g4343">
			<path
   class="st3"
   d="m 653.4,439.5 c 0,-3.7 3,-6.7 6.8,-6.7 3.4,0 6.2,2.7 6.2,6.1 0,3.9 -3,7 -6.7,7 -3.4,0 -6.2,-2.8 -6.3,-6.4 z"
   id="path4341" />
		</g>
		<g
   id="g4347">
			<path
   class="st3"
   d="m 659.7,413 c -3.7,0 -6.7,-3 -6.7,-6.8 0,-3.4 2.7,-6.2 6.1,-6.2 3.9,0 7,3 7,6.7 0,3.5 -2.8,6.3 -6.4,6.3 z"
   id="path4345" />
		</g>
		<g
   id="g4351">
			<path
   class="st3"
   d="m 660.3,429.2 c -3.7,0 -6.7,-3 -6.7,-6.8 0,-3.4 2.7,-6.2 6.1,-6.2 3.9,0 7,3 7,6.7 0,3.5 -2.8,6.3 -6.4,6.3 z"
   id="path4349" />
		</g>
		<g
   id="g4355">
			<path
   class="st3"
   d="m 679.6,439.2 c 0,-3.7 3,-6.7 6.8,-6.7 3.4,0 6.2,2.7 6.2,6.1 0,3.9 -3,7 -6.7,7 -3.5,0 -6.3,-2.8 -6.3,-6.4 z"
   id="path4353" />
		</g>
		<g
   id="g4359">
			<path
   class="st3"
   d="m 685.9,412.7 c -3.7,0 -6.7,-3 -6.7,-6.8 0,-3.4 2.7,-6.2 6.1,-6.2 3.9,0 7,3 7,6.7 0,3.5 -2.8,6.3 -6.4,6.3 z"
   id="path4357" />
		</g>
		<g
   id="g4363">
			<path
   class="st3"
   d="m 686.5,428.9 c -3.7,0 -6.7,-3 -6.7,-6.8 0,-3.4 2.7,-6.2 6.1,-6.2 3.9,0 7,3 7,6.7 0,3.5 -2.8,6.2 -6.4,6.3 z"
   id="path4361" />
		</g>
	</g>
</g>
<g
   id="_x32_bYVbg_00000138542729637125841200000005928760545861563835_"
   transform="translate(-1.2214465,-238.16138)">
	<g
   id="g4400">
		<g
   id="g4370">
			<path
   class="st3"
   d="m 831.1,540.6 c 0,8 0,16.1 0,24.1 0,5.1 -3.2,9 -8.2,10 -0.6,0.1 -1.1,0.1 -1.7,0.1 -6.2,-0.2 -12.5,-0.6 -18.7,-0.5 -6.1,0.1 -12.2,0.6 -18.3,0.8 -4.1,0.2 -8.3,0.3 -12.4,0.2 -4.5,-0.1 -8.7,-3.8 -9.8,-8.4 -0.2,-0.9 -0.3,-1.7 -0.3,-2.6 0,-16.1 0,-32.2 0,-48.4 0,-5.8 4.5,-10.2 10.3,-10.1 7.5,0.2 14.9,-0.3 22.4,-0.8 7.6,-0.5 15.1,-0.5 22.7,0 1.8,0.1 3.7,0.2 5.5,0.5 4.8,0.9 8.7,5.5 8.7,10.5 -0.2,8.2 -0.2,16.4 -0.2,24.6 z m -4.6,-0.2 c 0,-8 0,-16.1 0,-24.1 0,-3.1 -1.9,-5.6 -4.9,-6.2 -1.5,-0.3 -3.1,-0.3 -4.6,-0.4 -8.3,-0.6 -16.6,-0.4 -25,0.1 -6.5,0.3 -13.1,0.5 -19.6,0.7 -3.8,0.1 -6.2,2.3 -6.2,6.1 0,13.5 0,26.9 0,40.4 0,2.6 0,5.1 0,7.7 0,3.2 2.7,6.1 5.9,6 4.9,0 9.8,-0.1 14.7,-0.3 5,-0.2 9.9,-0.6 14.9,-0.7 6.2,-0.2 12.5,0.2 18.7,0.5 3.6,0.2 6.1,-2.2 6.1,-5.8 0,-8 0,-16 0,-24 z"
   id="path4368" />
		</g>
		<g
   id="g4374">
			<path
   class="st5"
   d="m 826.5,540.4 c 0,8 0,15.9 0,23.9 0,3.6 -2.5,6 -6.1,5.8 -6.2,-0.3 -12.5,-0.8 -18.7,-0.5 -5,0.2 -9.9,0.6 -14.9,0.7 -4.9,0.2 -9.8,0.3 -14.7,0.3 -3.2,0 -5.9,-2.8 -5.9,-6 0,-2.6 0,-5.1 0,-7.7 0,-13.5 0,-26.9 0,-40.4 0,-3.8 2.4,-6 6.2,-6.1 6.6,-0.1 13.1,-0.3 19.6,-0.7 8.3,-0.4 16.6,-0.6 25,-0.1 1.5,0.1 3.1,0.1 4.6,0.4 3,0.6 4.9,3.2 4.9,6.2 0,8.1 0,16.2 0,24.2 z"
   id="path4372" />
		</g>
		<g
   id="g4378">
			<path
   class="st3"
   d="m 776.7,557.7 c 0,-3.7 3,-6.7 6.8,-6.7 3.4,0 6.2,2.7 6.2,6.1 0,3.9 -3,7 -6.7,7 -3.5,0 -6.2,-2.8 -6.3,-6.4 z"
   id="path4376" />
		</g>
		<g
   id="g4382">
			<path
   class="st3"
   d="m 783,531.2 c -3.7,0 -6.7,-3 -6.7,-6.8 0,-3.4 2.7,-6.2 6.1,-6.2 3.9,0 7,3 7,6.7 0,3.5 -2.8,6.3 -6.4,6.3 z"
   id="path4380" />
		</g>
		<g
   id="g4386">
			<path
   class="st3"
   d="m 783.6,547.4 c -3.7,0 -6.7,-3 -6.7,-6.8 0,-3.4 2.7,-6.2 6.1,-6.2 3.9,0 7,3 7,6.7 0,3.5 -2.8,6.3 -6.4,6.3 z"
   id="path4384" />
		</g>
		<g
   id="g4390">
			<path
   class="st3"
   d="m 802.9,557.4 c 0,-3.7 3,-6.7 6.8,-6.7 3.4,0 6.2,2.7 6.2,6.1 0,3.9 -3,7 -6.7,7 -3.5,0 -6.3,-2.8 -6.3,-6.4 z"
   id="path4388" />
		</g>
		<g
   id="g4394">
			<path
   class="st3"
   d="m 809.1,530.9 c -3.7,0 -6.7,-3 -6.7,-6.8 0,-3.4 2.7,-6.2 6.1,-6.2 3.9,0 7,3 7,6.7 0.1,3.5 -2.7,6.3 -6.4,6.3 z"
   id="path4392" />
		</g>
		<g
   id="g4398">
			<path
   class="st3"
   d="m 809.7,547.1 c -3.7,0 -6.7,-3 -6.7,-6.8 0,-3.4 2.7,-6.2 6.1,-6.2 3.9,0 7,3 7,6.7 0.1,3.5 -2.7,6.2 -6.4,6.3 z"
   id="path4396" />
		</g>
	</g>
</g>
<g
   id="g4415"
   transform="translate(-0.07668457,-0.05089754)">
	<g
   id="g4405">
		<path
   class="st3"
   d="m 344.1,62.9 c 0,8.6 0,17.2 0,25.8 0,5.5 -3.5,9.6 -8.8,10.7 -0.6,0.1 -1.2,0.1 -1.8,0.1 -6.7,-0.2 -13.3,-0.6 -20,-0.5 -6.5,0.1 -13.1,0.6 -19.6,0.9 -4.4,0.2 -8.8,0.3 -13.3,0.2 -4.8,-0.1 -9.3,-4.1 -10.4,-8.9 -0.2,-0.9 -0.3,-1.9 -0.3,-2.8 0,-17.2 0,-34.5 0,-51.7 0,-6.2 4.8,-11 11,-10.8 8,0.2 16,-0.3 23.9,-0.8 8.1,-0.5 16.2,-0.5 24.2,0.1 2,0.1 3.9,0.2 5.9,0.5 5.2,0.9 9.3,5.9 9.3,11.2 -0.1,8.5 -0.1,17.2 -0.1,26 z m -5,-0.2 c 0,-8.6 0,-17.2 0,-25.8 0,-3.3 -2,-6 -5.2,-6.7 -1.6,-0.3 -3.3,-0.3 -5,-0.4 -8.9,-0.6 -17.8,-0.4 -26.7,0.1 -7,0.4 -14,0.6 -21,0.7 -4,0.1 -6.6,2.5 -6.6,6.5 0,14.4 0,28.8 0,43.2 0,2.7 0,5.5 0,8.2 0,3.5 2.9,6.5 6.3,6.5 5.2,0 10.5,-0.1 15.7,-0.3 5.3,-0.2 10.6,-0.6 15.9,-0.8 6.7,-0.2 13.3,0.2 20,0.6 3.8,0.2 6.5,-2.4 6.5,-6.2 0.1,-8.5 0.1,-17.1 0.1,-25.6 z"
   id="path4403" />
	</g>
	<g
   id="g4409">
		<path
   class="st6"
   d="m 339.1,62.7 c 0,8.5 0,17 0,25.6 0,3.8 -2.6,6.4 -6.5,6.2 -6.7,-0.4 -13.3,-0.8 -20,-0.6 -5.3,0.2 -10.6,0.6 -15.9,0.8 -5.2,0.2 -10.5,0.3 -15.7,0.3 -3.5,0 -6.3,-3 -6.3,-6.5 0,-2.7 0,-5.5 0,-8.2 0,-14.4 0,-28.8 0,-43.2 0,-4 2.6,-6.5 6.6,-6.5 7,-0.2 14,-0.4 21,-0.7 8.9,-0.5 17.8,-0.7 26.7,-0.1 1.7,0.1 3.3,0.1 5,0.4 3.2,0.7 5.2,3.4 5.2,6.7 -0.1,8.6 -0.1,17.2 -0.1,25.8 z"
   id="path4407" />
	</g>
	<g
   id="g4413">
		<path
   class="st3"
   d="m 299.9,62.4 c 0,-4 3.2,-7.1 7.3,-7.2 3.6,0 6.6,2.9 6.7,6.5 0,4.1 -3.2,7.5 -7.2,7.5 -3.8,0.1 -6.8,-2.9 -6.8,-6.8 z"
   id="path4411" />
	</g>
</g>
<g
   id="g4433"
   transform="translate(-0.07668457,-0.05089754)">
	<g
   id="g4419">
		<path
   class="st3"
   d="m 830.8,182.4 c 0,8.4 0,16.7 0,25.1 0,5.3 -3.4,9.4 -8.6,10.4 -0.6,0.1 -1.2,0.1 -1.8,0.1 -6.5,-0.2 -13,-0.6 -19.5,-0.5 -6.4,0.1 -12.7,0.6 -19.1,0.9 -4.3,0.2 -8.6,0.3 -12.9,0.2 -4.6,-0.1 -9.1,-4 -10.2,-8.7 -0.2,-0.9 -0.3,-1.8 -0.3,-2.7 0,-16.8 0,-33.5 0,-50.3 0,-6 4.6,-10.7 10.7,-10.5 7.8,0.2 15.5,-0.3 23.3,-0.8 7.9,-0.5 15.7,-0.5 23.6,0.1 1.9,0.1 3.8,0.2 5.7,0.5 5,0.9 9,5.8 9.1,10.9 0.1,8.3 0,16.8 0,25.3 z m -4.7,-0.2 c 0,-8.4 0,-16.7 0,-25.1 0,-3.2 -2,-5.8 -5.1,-6.5 -1.6,-0.3 -3.2,-0.3 -4.8,-0.4 -8.7,-0.6 -17.3,-0.4 -25.9,0.1 -6.8,0.3 -13.6,0.5 -20.4,0.7 -3.9,0.1 -6.4,2.4 -6.4,6.4 0,14 0,28 0,42 0,2.7 0,5.3 0,8 0,3.4 2.8,6.3 6.1,6.3 5.1,0 10.2,-0.1 15.3,-0.3 5.2,-0.2 10.3,-0.6 15.5,-0.8 6.5,-0.2 13,0.2 19.5,0.6 3.7,0.2 6.3,-2.3 6.3,-6 -0.1,-8.4 -0.2,-16.7 -0.1,-25 z"
   id="path4417" />
	</g>
	<g
   id="g4423">
		<path
   class="st7"
   d="m 826,182.2 c 0,8.3 0,16.6 0,24.8 0,3.7 -2.6,6.3 -6.3,6 -6.5,-0.4 -13,-0.8 -19.5,-0.6 -5.2,0.2 -10.3,0.6 -15.5,0.8 -5.1,0.2 -10.2,0.3 -15.3,0.3 -3.4,0 -6.1,-2.9 -6.1,-6.3 0,-2.7 0,-5.3 0,-8 0,-14 0,-28 0,-42 0,-3.9 2.5,-6.3 6.4,-6.4 6.8,-0.2 13.6,-0.4 20.4,-0.7 8.7,-0.4 17.3,-0.6 25.9,-0.1 1.6,0.1 3.3,0.1 4.8,0.4 3.1,0.7 5.1,3.3 5.1,6.5 0.2,8.6 0.2,17 0.1,25.3 z"
   id="path4421" />
	</g>
	<g
   id="g4427">
		<path
   class="st3"
   d="m 801.5,168.3 c 0,-3.9 3.1,-6.9 7.1,-7 3.5,0 6.5,2.8 6.5,6.3 0,4 -3.1,7.3 -7,7.3 -3.6,0.1 -6.5,-2.9 -6.6,-6.6 z"
   id="path4425" />
	</g>
	<g
   id="g4431">
		<path
   class="st3"
   d="m 774.3,196.4 c 0,-3.9 3.1,-6.9 7.1,-7 3.5,0 6.5,2.8 6.5,6.3 0,4 -3.1,7.3 -7,7.3 -3.7,0.1 -6.6,-2.8 -6.6,-6.6 z"
   id="path4429" />
	</g>
</g>
<g
   id="g4451"
   transform="translate(-0.07668457,-0.05089754)">
	<g
   id="g4437">
		<path
   class="st3"
   d="m 711,62.8 c 0,8.4 0,16.7 0,25.1 0,5.3 -3.4,9.4 -8.6,10.4 -0.6,0.1 -1.2,0.1 -1.8,0.1 -6.5,-0.2 -13,-0.6 -19.5,-0.5 -6.4,0.1 -12.7,0.6 -19.1,0.9 -4.3,0.2 -8.6,0.3 -12.9,0.2 -4.6,-0.1 -9.1,-4 -10.2,-8.7 -0.2,-0.9 -0.3,-1.8 -0.3,-2.7 0,-16.8 0,-33.5 0,-50.3 0,-6 4.6,-10.7 10.7,-10.5 7.8,0.2 15.5,-0.3 23.3,-0.8 7.9,-0.5 15.7,-0.5 23.6,0.1 1.9,0.1 3.8,0.2 5.7,0.5 5,0.9 9,5.8 9.1,10.9 0,8.3 0,16.8 0,25.3 z m -4.8,-0.1 c 0,-8.4 0,-16.7 0,-25.1 0,-3.2 -2,-5.8 -5.1,-6.5 -1.6,-0.3 -3.2,-0.3 -4.8,-0.4 -8.7,-0.6 -17.3,-0.4 -25.9,0.1 -6.8,0.3 -13.6,0.5 -20.4,0.7 -3.9,0.1 -6.4,2.4 -6.4,6.4 0,14 0,28 0,42 0,2.7 0,5.3 0,8 0,3.4 2.8,6.3 6.1,6.3 5.1,0 10.2,-0.1 15.3,-0.3 5.2,-0.2 10.3,-0.6 15.5,-0.8 6.5,-0.2 13,0.2 19.5,0.6 3.7,0.2 6.3,-2.3 6.3,-6 -0.1,-8.4 -0.1,-16.7 -0.1,-25 z"
   id="path4435" />
	</g>
	<g
   id="g4441">
		<path
   class="st7"
   d="m 706.2,62.7 c 0,8.3 0,16.6 0,24.8 0,3.7 -2.6,6.3 -6.3,6 -6.5,-0.4 -13,-0.8 -19.5,-0.6 -5.2,0.2 -10.3,0.6 -15.5,0.8 -5.1,0.2 -10.2,0.3 -15.3,0.3 -3.4,0 -6.1,-2.9 -6.1,-6.3 0,-2.7 0,-5.3 0,-8 0,-14 0,-28 0,-42 0,-3.9 2.5,-6.3 6.4,-6.4 6.8,-0.2 13.6,-0.4 20.4,-0.7 8.7,-0.4 17.3,-0.6 25.9,-0.1 1.6,0.1 3.3,0.1 4.8,0.4 3.1,0.7 5.1,3.3 5.1,6.5 0.1,8.6 0.1,16.9 0.1,25.3 z"
   id="path4439" />
	</g>
	<g
   id="g4445">
		<path
   class="st3"
   d="m 681.7,48.7 c 0,-3.9 3.1,-6.9 7.1,-7 3.5,0 6.5,2.8 6.5,6.3 0,4 -3.1,7.3 -7,7.3 -3.7,0.1 -6.6,-2.8 -6.6,-6.6 z"
   id="path4443" />
	</g>
	<g
   id="g4449">
		<path
   class="st3"
   d="m 654.5,76.9 c 0,-3.9 3.1,-6.9 7.1,-7 3.5,0 6.5,2.8 6.5,6.3 0,4 -3.1,7.3 -7,7.3 -3.7,0.1 -6.6,-2.8 -6.6,-6.6 z"
   id="path4447" />
	</g>
</g>
<g
   id="g4473"
   transform="translate(-0.07668457,-0.05089754)">
	<g
   id="g4455">
		<path
   class="st3"
   d="m 220.4,181.7 c 0,8.4 0,16.8 0,25.2 0,5.3 -3.4,9.4 -8.6,10.4 -0.6,0.1 -1.2,0.1 -1.8,0.1 -6.5,-0.2 -13.1,-0.6 -19.6,-0.5 -6.4,0.1 -12.8,0.6 -19.2,0.9 -4.3,0.2 -8.7,0.3 -13,0.2 -4.7,-0.1 -9.1,-4 -10.2,-8.8 -0.2,-0.9 -0.3,-1.8 -0.3,-2.7 0,-16.9 0,-33.7 0,-50.6 0,-6.1 4.7,-10.7 10.7,-10.6 7.8,0.2 15.6,-0.3 23.4,-0.8 7.9,-0.5 15.8,-0.5 23.7,0.1 1.9,0.1 3.9,0.2 5.7,0.5 5.1,0.9 9.1,5.8 9.1,10.9 0.1,8.6 0.1,17.2 0.1,25.7 z m -4.9,-0.1 c 0,-8.4 0,-16.8 0,-25.2 0,-3.2 -2,-5.9 -5.1,-6.5 -1.6,-0.3 -3.2,-0.3 -4.8,-0.4 -8.7,-0.6 -17.4,-0.4 -26.1,0.1 -6.8,0.3 -13.7,0.6 -20.5,0.7 -3.9,0.1 -6.4,2.5 -6.4,6.4 0,14.1 0,28.2 0,42.3 0,2.7 0,5.4 0,8 0,3.4 2.8,6.3 6.2,6.3 5.1,0 10.3,-0.1 15.4,-0.3 5.2,-0.2 10.4,-0.6 15.6,-0.8 6.5,-0.2 13.1,0.2 19.6,0.6 3.8,0.2 6.3,-2.3 6.3,-6.1 -0.2,-8.5 -0.2,-16.8 -0.2,-25.1 z"
   id="path4453" />
	</g>
	<g
   id="g4459">
		<path
   class="st8"
   d="m 215.5,181.6 c 0,8.3 0,16.7 0,25 0,3.8 -2.6,6.3 -6.3,6.1 -6.5,-0.4 -13,-0.8 -19.6,-0.6 -5.2,0.2 -10.4,0.6 -15.6,0.8 -5.1,0.2 -10.3,0.3 -15.4,0.3 -3.4,0 -6.1,-2.9 -6.2,-6.3 0,-2.7 0,-5.4 0,-8 0,-14.1 0,-28.2 0,-42.3 0,-3.9 2.5,-6.3 6.4,-6.4 6.9,-0.2 13.7,-0.4 20.5,-0.7 8.7,-0.4 17.4,-0.7 26.1,-0.1 1.6,0.1 3.3,0.1 4.8,0.4 3.1,0.7 5.1,3.3 5.1,6.5 0.2,8.5 0.2,16.9 0.2,25.3 z m -31,-7.7 c -3.8,-0.1 -7.2,3.2 -7.3,7.1 -0.1,3.7 2.8,6.6 6.6,6.6 3.7,0.1 7.1,-3.1 7.2,-6.9 0,-3.7 -2.8,-6.7 -6.5,-6.8 z m 22.2,-8.7 c 0,-4 -3.2,-7.2 -7.1,-7.2 -3.6,0 -6.6,2.9 -6.6,6.6 0,3.9 3.1,7.1 7.1,7.1 3.7,0 6.6,-2.9 6.6,-6.5 z m -45.4,32.4 c 0,3.8 3,6.7 6.7,6.7 3.9,0 7.1,-3.3 7,-7.4 0,-3.5 -3,-6.4 -6.5,-6.4 -4.1,0.1 -7.2,3.2 -7.2,7.1 z"
   id="path4457" />
	</g>
	<g
   id="g4463">
		<path
   class="st3"
   d="m 184.5,173.9 c 3.7,0.1 6.6,3.1 6.4,6.9 -0.1,3.8 -3.5,7 -7.2,6.9 -3.8,-0.1 -6.7,-3 -6.6,-6.6 0.2,-4 3.5,-7.3 7.4,-7.2 z"
   id="path4461" />
	</g>
	<g
   id="g4467">
		<path
   class="st3"
   d="m 206.7,165.2 c 0,3.7 -2.9,6.5 -6.6,6.5 -4,0 -7.1,-3.1 -7.1,-7.1 0,-3.7 3,-6.6 6.6,-6.6 3.9,0 7.1,3.2 7.1,7.2 z"
   id="path4465" />
	</g>
	<g
   id="g4471">
		<path
   class="st3"
   d="m 161.3,197.6 c 0,-3.9 3.1,-7 7.2,-7 3.5,0 6.5,2.8 6.5,6.4 0,4 -3.1,7.3 -7,7.4 -3.7,-0.1 -6.7,-3 -6.7,-6.8 z"
   id="path4469" />
	</g>
</g>
<g
   id="g4495"
   transform="translate(-0.07668457,-0.05089754)">
	<g
   id="g4477">
		<path
   class="st3"
   d="m 97.7,62.1 c 0,8.4 0,16.8 0,25.2 0,5.3 -3.4,9.4 -8.6,10.4 -0.6,0.1 -1.2,0.1 -1.8,0.1 -6.5,-0.2 -13.1,-0.6 -19.6,-0.5 -6.4,0.1 -12.8,0.6 -19.2,0.9 -4.3,0.2 -8.7,0.3 -13,0.2 -4.7,-0.1 -9.1,-4 -10.2,-8.8 C 25.1,88.7 25,87.8 25,86.9 25,70 25,53.2 25,36.3 c 0,-6.1 4.7,-10.7 10.7,-10.6 7.8,0.2 15.6,-0.3 23.4,-0.8 7.9,-0.5 15.8,-0.5 23.7,0.1 1.9,0.1 3.9,0.2 5.7,0.5 5.1,0.9 9.1,5.8 9.1,10.9 0.1,8.6 0.1,17.1 0.1,25.7 z m -4.8,-0.2 c 0,-8.4 0,-16.8 0,-25.2 0,-3.2 -2,-5.9 -5.1,-6.5 C 86.2,29.9 84.6,29.9 83,29.8 74.3,29.2 65.6,29.4 56.9,29.9 50.1,30.2 43.2,30.5 36.4,30.6 32.5,30.7 30,33.1 30,37 c 0,14.1 0,28.2 0,42.3 0,2.7 0,5.4 0,8 0,3.4 2.8,6.3 6.2,6.3 5.1,0 10.3,-0.1 15.4,-0.3 5.2,-0.2 10.4,-0.6 15.6,-0.8 6.5,-0.2 13.1,0.2 19.6,0.6 3.8,0.2 6.3,-2.3 6.3,-6.1 -0.2,-8.4 -0.2,-16.7 -0.2,-25.1 z"
   id="path4475" />
	</g>
	<g
   id="g4481">
		<path
   class="st8"
   d="m 92.9,61.9 c 0,8.3 0,16.7 0,25 0,3.8 -2.6,6.3 -6.3,6.1 -6.5,-0.4 -13,-0.8 -19.6,-0.6 -5.2,0.2 -10.4,0.6 -15.6,0.8 -5.1,0.2 -10.3,0.3 -15.4,0.3 -3.4,0 -6.1,-2.9 -6.2,-6.3 0,-2.7 0,-5.4 0,-8 0,-14.1 0,-28.2 0,-42.3 0,-3.9 2.5,-6.3 6.4,-6.4 6.9,-0.2 13.7,-0.4 20.5,-0.7 8.7,-0.4 17.4,-0.7 26.1,-0.1 1.6,0.1 3.3,0.1 4.8,0.4 3.1,0.7 5.1,3.3 5.1,6.5 0.2,8.5 0.2,16.9 0.2,25.3 z M 61.8,54.2 c -3.8,-0.1 -7.2,3.2 -7.3,7.1 -0.1,3.7 2.8,6.7 6.6,6.7 3.7,0.1 7.1,-3.1 7.2,-6.9 0.1,-3.7 -2.8,-6.8 -6.5,-6.9 z m 22.3,-8.7 c 0,-4 -3.2,-7.2 -7.1,-7.2 -3.6,0 -6.6,2.9 -6.6,6.6 0,3.9 3.1,7.1 7.1,7.1 3.7,0 6.6,-2.8 6.6,-6.5 z M 38.7,78 c 0,3.8 3,6.7 6.7,6.7 3.9,0 7.1,-3.3 7,-7.4 0,-3.5 -3,-6.4 -6.5,-6.4 -4.1,0.1 -7.3,3.2 -7.2,7.1 z"
   id="path4479" />
	</g>
	<g
   id="g4485">
		<path
   class="st3"
   d="m 61.8,54.2 c 3.7,0.1 6.6,3.1 6.4,6.9 -0.1,3.8 -3.5,7 -7.2,6.9 -3.8,-0.1 -6.7,-3 -6.6,-6.6 0.2,-4 3.6,-7.3 7.4,-7.2 z"
   id="path4483" />
	</g>
	<g
   id="g4489">
		<path
   class="st3"
   d="m 84.1,45.5 c 0,3.7 -2.9,6.5 -6.6,6.5 -4,0 -7.1,-3.1 -7.1,-7.1 0,-3.7 3,-6.6 6.6,-6.6 3.9,0 7.1,3.3 7.1,7.2 z"
   id="path4487" />
	</g>
	<g
   id="g4493">
		<path
   class="st3"
   d="m 38.7,78 c 0,-3.9 3.1,-7 7.2,-7 3.5,0 6.5,2.8 6.5,6.4 0,4 -3.1,7.3 -7,7.4 -3.8,-0.1 -6.7,-3 -6.7,-6.8 z"
   id="path4491" />
	</g>
</g>
<g
   id="g4521"
   transform="translate(243.7576,-120.2509)">
	<g
   id="g4499">
		<path
   class="st3"
   d="m 98.5,421.9 c 0,8.5 0,16.9 0,25.4 0,5.4 -3.4,9.5 -8.7,10.5 -0.6,0.1 -1.2,0.1 -1.8,0.1 -6.6,-0.2 -13.1,-0.6 -19.7,-0.5 -6.4,0.1 -12.9,0.6 -19.3,0.9 -4.3,0.2 -8.7,0.3 -13.1,0.2 -4.7,-0.1 -9.2,-4 -10.3,-8.8 -0.2,-0.9 -0.3,-1.8 -0.3,-2.8 0,-17 0,-33.9 0,-50.9 0,-6.1 4.7,-10.8 10.8,-10.6 7.9,0.2 15.7,-0.3 23.5,-0.8 7.9,-0.5 15.9,-0.5 23.8,0.1 1.9,0.1 3.9,0.2 5.8,0.5 5.1,0.9 9.1,5.8 9.2,11 0.1,8.5 0.1,17.1 0.1,25.7 z m -4.9,-0.2 c 0,-8.5 0,-16.9 0,-25.4 0,-3.2 -2,-5.9 -5.1,-6.6 -1.6,-0.3 -3.2,-0.3 -4.9,-0.4 -8.8,-0.6 -17.5,-0.4 -26.3,0.1 -6.9,0.4 -13.8,0.6 -20.7,0.7 -4,0.1 -6.5,2.5 -6.5,6.4 0,14.2 0,28.3 0,42.5 0,2.7 0,5.4 0,8.1 0,3.4 2.8,6.4 6.2,6.4 5.2,0 10.3,-0.1 15.5,-0.3 5.2,-0.2 10.5,-0.6 15.7,-0.8 6.6,-0.2 13.1,0.2 19.7,0.6 3.8,0.2 6.4,-2.3 6.4,-6.1 0,-8.4 0,-16.8 0,-25.2 z"
   id="path4497" />
	</g>
	<g
   id="g4503">
		<path
   class="st9"
   d="m 93.6,421.7 c 0,8.4 0,16.8 0,25.1 0,3.8 -2.6,6.3 -6.4,6.1 -6.6,-0.4 -13.1,-0.8 -19.7,-0.6 -5.2,0.2 -10.5,0.6 -15.7,0.8 -5.2,0.2 -10.3,0.3 -15.5,0.3 -3.4,0 -6.2,-2.9 -6.2,-6.4 0,-2.7 0,-5.4 0,-8.1 0,-14.2 0,-28.3 0,-42.5 0,-4 2.5,-6.4 6.5,-6.4 6.9,-0.2 13.8,-0.4 20.7,-0.7 8.8,-0.4 17.5,-0.7 26.3,-0.1 1.6,0.1 3.3,0.1 4.9,0.4 3.2,0.7 5.1,3.3 5.1,6.6 0.1,8.6 0,17.1 0,25.5 z"
   id="path4501" />
	</g>
	<g
   id="g4507">
		<path
   class="st3"
   d="m 68.8,407.6 c 0,-3.9 3.1,-7 7.2,-7 3.6,0 6.5,2.9 6.6,6.4 0,4.1 -3.1,7.4 -7.1,7.4 -3.7,0 -6.6,-3 -6.7,-6.8 z"
   id="path4505" />
	</g>
	<g
   id="g4511">
		<path
   class="st3"
   d="m 41.3,436.1 c 0,-3.9 3.1,-7 7.2,-7 3.6,0 6.5,2.9 6.6,6.4 0,4.1 -3.1,7.4 -7.1,7.4 -3.8,0 -6.7,-3 -6.7,-6.8 z"
   id="path4509" />
	</g>
	<g
   id="g4515">
		<path
   class="st3"
   d="m 47.8,414.4 c -3.9,0 -7,-3.1 -7,-7.2 0,-3.6 2.9,-6.5 6.4,-6.6 4.1,0 7.4,3.1 7.4,7.1 0,3.7 -2.9,6.6 -6.8,6.7 z"
   id="path4513" />
	</g>
	<g
   id="g4519">
		<path
   class="st3"
   d="m 76.3,441.9 c -3.9,0 -7,-3.1 -7,-7.2 0,-3.6 2.9,-6.5 6.4,-6.6 4.1,0 7.4,3.1 7.4,7.1 0,3.8 -3,6.7 -6.8,6.7 z"
   id="path4517" />
	</g>
</g>
<g
   id="g4547"
   transform="translate(-1.8004941,-120.2509)">
	<g
   id="g4525">
		<path
   class="st3"
   d="m 221.1,541.1 c 0,8.5 0,16.9 0,25.4 0,5.4 -3.4,9.5 -8.7,10.5 -0.6,0.1 -1.2,0.1 -1.8,0.1 -6.6,-0.2 -13.1,-0.6 -19.7,-0.5 -6.4,0.1 -12.9,0.6 -19.3,0.9 -4.3,0.2 -8.7,0.3 -13.1,0.2 -4.7,-0.1 -9.2,-4 -10.3,-8.8 -0.2,-0.9 -0.3,-1.8 -0.3,-2.8 0,-17 0,-33.9 0,-50.9 0,-6.1 4.7,-10.8 10.8,-10.6 7.9,0.2 15.7,-0.3 23.5,-0.8 7.9,-0.5 15.9,-0.5 23.8,0.1 1.9,0.1 3.9,0.2 5.8,0.5 5.1,0.9 9.1,5.8 9.2,11 0.2,8.5 0.1,17.1 0.1,25.7 z m -4.8,-0.1 c 0,-8.5 0,-16.9 0,-25.4 0,-3.2 -2,-5.9 -5.1,-6.6 -1.6,-0.3 -3.2,-0.3 -4.9,-0.4 -8.8,-0.6 -17.5,-0.4 -26.3,0.1 -6.9,0.4 -13.8,0.6 -20.7,0.7 -4,0.1 -6.5,2.5 -6.5,6.4 0,14.2 0,28.3 0,42.5 0,2.7 0,5.4 0,8.1 0,3.4 2.8,6.4 6.2,6.4 5.2,0 10.3,-0.1 15.5,-0.3 5.2,-0.2 10.5,-0.6 15.7,-0.8 6.6,-0.2 13.1,0.2 19.7,0.6 3.8,0.2 6.4,-2.3 6.4,-6.1 0,-8.5 0,-16.8 0,-25.2 z"
   id="path4523" />
	</g>
	<g
   id="g4529">
		<path
   class="st9"
   d="m 216.3,541 c 0,8.4 0,16.8 0,25.1 0,3.8 -2.6,6.3 -6.4,6.1 -6.6,-0.4 -13.1,-0.8 -19.7,-0.6 -5.2,0.2 -10.5,0.6 -15.7,0.8 -5.2,0.2 -10.3,0.3 -15.5,0.3 -3.4,0 -6.2,-2.9 -6.2,-6.4 0,-2.7 0,-5.4 0,-8.1 0,-14.2 0,-28.3 0,-42.5 0,-4 2.5,-6.4 6.5,-6.4 6.9,-0.2 13.8,-0.4 20.7,-0.7 8.8,-0.4 17.5,-0.7 26.3,-0.1 1.6,0.1 3.3,0.1 4.9,0.4 3.2,0.7 5.1,3.3 5.1,6.6 0,8.6 0,17 0,25.5 z"
   id="path4527" />
	</g>
	<g
   id="g4533">
		<path
   class="st3"
   d="m 191.5,526.9 c 0,-3.9 3.1,-7 7.2,-7 3.6,0 6.5,2.9 6.6,6.4 0,4.1 -3.1,7.4 -7.1,7.4 -3.8,-0.1 -6.7,-3 -6.7,-6.8 z"
   id="path4531" />
	</g>
	<g
   id="g4537">
		<path
   class="st3"
   d="m 163.9,555.3 c 0,-3.9 3.1,-7 7.2,-7 3.6,0 6.5,2.9 6.6,6.4 0,4.1 -3.1,7.4 -7.1,7.4 -3.7,0 -6.7,-2.9 -6.7,-6.8 z"
   id="path4535" />
	</g>
	<g
   id="g4541">
		<path
   class="st3"
   d="m 170.5,533.6 c -3.9,0 -7,-3.1 -7,-7.2 0,-3.6 2.9,-6.5 6.4,-6.6 4.1,0 7.4,3.1 7.4,7.1 -0.1,3.8 -3,6.7 -6.8,6.7 z"
   id="path4539" />
	</g>
	<g
   id="g4545">
		<path
   class="st3"
   d="m 199,561.2 c -3.9,0 -7,-3.1 -7,-7.2 0,-3.6 2.9,-6.5 6.4,-6.6 4.1,0 7.4,3.1 7.4,7.1 -0.1,3.7 -3,6.6 -6.8,6.7 z"
   id="path4543" />
	</g>
</g>
<g
   id="g4577"
   transform="translate(-0.07668457,-0.05089754)">
	<g
   id="g4551">
		<path
   class="st3"
   d="m 463.8,302.8 c 0,8.3 0,16.7 0,25 0,5.3 -3.3,9.4 -8.6,10.3 -0.6,0.1 -1.2,0.1 -1.8,0.1 -6.5,-0.2 -12.9,-0.6 -19.4,-0.5 -6.3,0.1 -12.7,0.6 -19,0.8 -4.3,0.2 -8.6,0.3 -12.9,0.2 -4.6,-0.1 -9,-4 -10.1,-8.7 -0.2,-0.9 -0.3,-1.8 -0.3,-2.7 0,-16.7 0,-33.5 0,-50.2 0,-6 4.6,-10.6 10.7,-10.5 7.8,0.2 15.5,-0.3 23.2,-0.8 7.8,-0.5 15.7,-0.5 23.5,0.1 1.9,0.1 3.8,0.2 5.7,0.5 5,0.9 9,5.7 9,10.9 0,8.6 0,17.1 0,25.5 z m -4.8,-0.1 c 0,-8.3 0,-16.7 0,-25 0,-3.2 -2,-5.8 -5.1,-6.5 -1.6,-0.3 -3.2,-0.3 -4.8,-0.4 -8.6,-0.6 -17.3,-0.4 -25.9,0.1 -6.8,0.3 -13.6,0.5 -20.4,0.7 -3.9,0.1 -6.4,2.4 -6.4,6.4 0,14 0,27.9 0,41.9 0,2.7 0,5.3 0,8 0,3.4 2.8,6.3 6.1,6.3 5.1,0 10.2,-0.1 15.3,-0.3 5.2,-0.2 10.3,-0.6 15.5,-0.8 6.5,-0.2 12.9,0.2 19.4,0.6 3.7,0.2 6.3,-2.3 6.3,-6 0,-8.5 0,-16.7 0,-25 z"
   id="path4549" />
	</g>
	<g
   id="g4555">
		<path
   class="st10"
   d="m 459,302.7 c 0,8.3 0,16.5 0,24.8 0,3.7 -2.6,6.2 -6.3,6 -6.5,-0.4 -12.9,-0.8 -19.4,-0.6 -5.2,0.2 -10.3,0.6 -15.5,0.8 -5.1,0.2 -10.2,0.3 -15.3,0.3 -3.3,0 -6.1,-2.9 -6.1,-6.3 0,-2.7 0,-5.3 0,-8 0,-14 0,-27.9 0,-41.9 0,-3.9 2.5,-6.3 6.4,-6.4 6.8,-0.2 13.6,-0.4 20.4,-0.7 8.6,-0.4 17.3,-0.6 25.9,-0.1 1.6,0.1 3.2,0.1 4.8,0.4 3.1,0.7 5.1,3.3 5.1,6.5 0,8.5 0,16.9 0,25.2 z"
   id="path4553" />
	</g>
	<g
   id="g4559">
		<path
   class="st3"
   d="m 434.6,288.8 c 0,-3.9 3.1,-6.9 7.1,-6.9 3.5,0 6.4,2.8 6.5,6.3 0,4 -3.1,7.3 -7,7.3 -3.7,-0.1 -6.6,-3 -6.6,-6.7 z"
   id="path4557" />
	</g>
	<g
   id="g4563">
		<path
   class="st3"
   d="m 407.4,316.9 c 0,-3.9 3.1,-6.9 7.1,-6.9 3.5,0 6.4,2.8 6.5,6.3 0,4 -3.1,7.3 -7,7.3 -3.7,-0.1 -6.6,-3 -6.6,-6.7 z"
   id="path4561" />
	</g>
	<g
   id="g4567">
		<path
   class="st3"
   d="m 413.9,295.4 c -3.9,0 -6.9,-3.1 -6.9,-7.1 0,-3.5 2.8,-6.4 6.3,-6.5 4,0 7.3,3.1 7.3,7 -0.1,3.7 -3,6.6 -6.7,6.6 z"
   id="path4565" />
	</g>
	<g
   id="g4571">
		<path
   class="st3"
   d="m 442,322.6 c -3.9,0 -6.9,-3.1 -6.9,-7.1 0,-3.5 2.8,-6.4 6.3,-6.5 4,0 7.3,3.1 7.3,7 -0.1,3.7 -3,6.6 -6.7,6.6 z"
   id="path4569" />
	</g>
	<g
   id="g4575">
		<path
   class="st3"
   d="m 427.9,309 c -3.9,0 -6.9,-3.1 -6.9,-7.1 0,-3.5 2.8,-6.4 6.3,-6.5 4,0 7.3,3.1 7.3,7 0,3.7 -2.9,6.6 -6.7,6.6 z"
   id="path4573" />
	</g>
</g>
<g
   id="g4607"
   transform="translate(-0.07668457,-0.05089754)">
	<g
   id="g4581">
		<path
   class="st3"
   d="m 586,422.5 c 0,8.3 0,16.7 0,25 0,5.3 -3.3,9.4 -8.6,10.3 -0.6,0.1 -1.2,0.1 -1.8,0.1 -6.5,-0.2 -12.9,-0.6 -19.4,-0.5 -6.3,0.1 -12.7,0.6 -19,0.8 -4.3,0.2 -8.6,0.3 -12.9,0.2 -4.6,-0.1 -9,-4 -10.1,-8.7 -0.2,-0.9 -0.3,-1.8 -0.3,-2.7 0,-16.7 0,-33.5 0,-50.2 0,-6 4.6,-10.6 10.7,-10.5 7.8,0.2 15.5,-0.3 23.2,-0.8 7.8,-0.5 15.7,-0.5 23.5,0.1 1.9,0.1 3.8,0.2 5.7,0.5 5,0.9 9,5.7 9,10.9 0.1,8.5 0,17 0,25.5 z m -4.7,-0.2 c 0,-8.3 0,-16.7 0,-25 0,-3.2 -2,-5.8 -5.1,-6.5 -1.6,-0.3 -3.2,-0.3 -4.8,-0.4 -8.6,-0.6 -17.3,-0.4 -25.9,0.1 -6.8,0.3 -13.6,0.5 -20.4,0.7 -3.9,0.1 -6.4,2.4 -6.4,6.4 0,14 0,27.9 0,41.9 0,2.7 0,5.3 0,8 0,3.4 2.8,6.3 6.1,6.3 5.1,0 10.2,-0.1 15.3,-0.3 5.2,-0.2 10.3,-0.6 15.5,-0.8 6.5,-0.2 12.9,0.2 19.4,0.6 3.7,0.2 6.3,-2.3 6.3,-6 0,-8.4 0,-16.7 0,-25 z"
   id="path4579" />
	</g>
	<g
   id="g4585">
		<path
   class="st10"
   d="m 581.3,422.3 c 0,8.3 0,16.5 0,24.8 0,3.7 -2.6,6.2 -6.3,6 -6.5,-0.4 -12.9,-0.8 -19.4,-0.6 -5.2,0.2 -10.3,0.6 -15.5,0.8 -5.1,0.2 -10.2,0.3 -15.3,0.3 -3.3,0 -6.1,-2.9 -6.1,-6.3 0,-2.7 0,-5.3 0,-8 0,-14 0,-27.9 0,-41.9 0,-3.9 2.5,-6.3 6.4,-6.4 6.8,-0.2 13.6,-0.4 20.4,-0.7 8.6,-0.4 17.3,-0.6 25.9,-0.1 1.6,0.1 3.2,0.1 4.8,0.4 3.1,0.7 5.1,3.3 5.1,6.5 0,8.5 0,16.9 0,25.2 z"
   id="path4583" />
	</g>
	<g
   id="g4589">
		<path
   class="st3"
   d="m 556.8,408.4 c 0,-3.9 3.1,-6.9 7.1,-6.9 3.5,0 6.4,2.8 6.5,6.3 0,4 -3.1,7.3 -7,7.3 -3.7,0 -6.6,-2.9 -6.6,-6.7 z"
   id="path4587" />
	</g>
	<g
   id="g4593">
		<path
   class="st3"
   d="m 529.6,436.5 c 0,-3.9 3.1,-6.9 7.1,-6.9 3.5,0 6.4,2.8 6.5,6.3 0,4 -3.1,7.3 -7,7.3 -3.7,0 -6.6,-2.9 -6.6,-6.7 z"
   id="path4591" />
	</g>
	<g
   id="g4597">
		<path
   class="st3"
   d="m 536.1,415.1 c -3.9,0 -6.9,-3.1 -6.9,-7.1 0,-3.5 2.8,-6.4 6.3,-6.5 4,0 7.3,3.1 7.3,7 0,3.6 -3,6.5 -6.7,6.6 z"
   id="path4595" />
	</g>
	<g
   id="g4601">
		<path
   class="st3"
   d="m 564.2,442.3 c -3.9,0 -6.9,-3.1 -6.9,-7.1 0,-3.5 2.8,-6.4 6.3,-6.5 4,0 7.3,3.1 7.3,7 -0.1,3.6 -3,6.5 -6.7,6.6 z"
   id="path4599" />
	</g>
	<g
   id="g4605">
		<path
   class="st3"
   d="m 550.1,428.7 c -3.9,0 -6.9,-3.1 -6.9,-7.1 0,-3.5 2.8,-6.4 6.3,-6.5 4,0 7.3,3.1 7.3,7 0,3.6 -2.9,6.5 -6.7,6.6 z"
   id="path4603" />
	</g>
</g>











</svg>
