<?xml version="1.0" encoding="UTF-8" standalone="no"?>
<!-- Created with Inkscape (http://www.inkscape.org/) -->

<svg
   width="32.221313mm"
   height="32.485287mm"
   viewBox="0 0 32.221313 32.485287"
   version="1.1"
   id="svg7889"
   inkscape:version="1.2.2 (732a01da63, 2022-12-09)"
   sodipodi:docname="disabilities_sel.svg"
   xmlns:inkscape="http://www.inkscape.org/namespaces/inkscape"
   xmlns:sodipodi="http://sodipodi.sourceforge.net/DTD/sodipodi-0.dtd"
   xmlns="http://www.w3.org/2000/svg"
   xmlns:svg="http://www.w3.org/2000/svg">
  <sodipodi:namedview
     id="namedview7891"
     pagecolor="#ffffff"
     bordercolor="#000000"
     borderopacity="0.25"
     inkscape:showpageshadow="2"
     inkscape:pageopacity="0.0"
     inkscape:pagecheckerboard="0"
     inkscape:deskcolor="#d1d1d1"
     inkscape:document-units="mm"
     showgrid="false"
     inkscape:zoom="0.46769781"
     inkscape:cx="50.246119"
     inkscape:cy="235.1946"
     inkscape:window-width="1366"
     inkscape:window-height="705"
     inkscape:window-x="-8"
     inkscape:window-y="-8"
     inkscape:window-maximized="1"
     inkscape:current-layer="layer1" />
  <defs
     id="defs7886" />
  <g
     inkscape:label="Στρώση 1"
     inkscape:groupmode="layer"
     id="layer1"
     transform="translate(-91.940771,-86.717352)">
    <g
       transform="matrix(0.21385968,0,0,0.21385968,91.748297,103.01346)"
       id="g6171">
		<g
   id="g6169">
			<g
   id="g6167">
				<g
   id="Duplicate_Items_Folder_Symbol_4_0_Layer0_0_FILL_00000052096228674270154890000002771930182163838136_">
					<path
   class="st0"
   d="m 151.5,-76.1 c -0.1,-0.1 -0.2,-0.1 -0.3,-0.1 H 1.4 c -0.1,0 -0.3,0.1 -0.3,0.1 -0.1,0.1 -0.2,0.2 -0.2,0.4 V 75.2 c 0,0.1 0.1,0.3 0.1,0.4 0.1,0.1 0.2,0.1 0.3,0.1 H 151 c 0.1,0 0.3,-0.1 0.3,-0.1 0.1,-0.1 0.1,-0.2 0.1,-0.4 V -75.7 c 0.2,-0.2 0.2,-0.3 0.1,-0.4 M 1.9,-75.2 H 150.6 V 74.7 H 1.9 Z"
   id="path6156"
   style="fill:#444444" />

					<path
   class="st1"
   d="M 150.6,-75.2 H 1.9 V 74.7 H 150.6 V -75.2 m -0.7,0.5 v 0.2 l 0.2,-0.2 V 73.9 H 2.9 2.6 V -74.7 Z"
   id="path6158"
   style="fill:#f8e8ce" />

					<path
   class="st2"
   d="m 143.5,-67.9 6.4,-6.5 v -0.2 H 2.6 V 73.9 H 2.8 L 9.2,67.5 V -67.9 Z"
   id="path6160"
   style="fill:#ffffff" />

					<path
   class="st3"
   d="m 143.5,-67.9 v 0 L 143.4,67.2 H 9.7 L 9.4,67.5 3,73.9 H 150.2 V -74.7 l -0.2,0.2 z"
   id="path6162"
   style="fill:#e1d3b8" />

					<path
   class="st2"
   d="m 143.4,-67.8 v 0 L 9.3,-67.9 V 67.5 l 0.3,-0.3 h 133.7 z"
   id="path6164"
   style="fill:#ffffff" />

				</g>

			</g>

		</g>

	</g>
    <g
       id="g6496"
       transform="matrix(0.26458333,0,0,0.26458333,26.846006,-8.1909087)">
	<path
   class="st5"
   d="m 291.9,392.2 c 0,-0.4 -0.1,-0.7 -0.2,-1.1 0,0 0,0 0,-0.1 -0.3,0.1 -0.6,0.2 -0.8,0.2 0,0.3 0.1,0.7 0.2,1 0.1,-0.1 0.4,-0.1 0.8,0 z"
   id="path6362"
   style="fill:#b28d5b" />

	<path
   class="st5"
   d="m 295.5,397.8 c -0.5,-0.3 -0.9,-0.7 -1.2,-1.1 -0.1,-0.1 -0.1,-0.2 -0.2,-0.2 0,1.1 -0.1,2.3 -0.1,3.4 0.5,-0.1 0.9,-0.2 1.4,-0.3 1.1,-0.2 2.2,-0.4 3.4,-0.6 0,0 0,0 0,-0.1 -0.1,0 -0.1,0 -0.2,0 -1.1,-0.3 -2.3,-0.6 -3.1,-1.1 z"
   id="path6364"
   style="fill:#b28d5b" />

	<path
   class="st5"
   d="m 293.5,394.9 c 0.3,0.1 0.6,0.6 0.9,0.9 0.8,0.8 1.5,1.5 2.7,1.9 1,0.3 2.1,0.6 3.2,0.6 1,0 2.3,-0.2 2.9,-1.2 0.3,-0.5 0.3,-1.1 0.3,-1.6 0,-0.6 0.1,-1.2 0.1,-1.8 0,-1.1 0,-2.3 -0.2,-3.4 -0.1,-0.5 -0.2,-1 -0.4,-1.5 0,-0.1 0,-0.1 -0.1,-0.2 -0.1,0 -0.1,0 -0.2,0 -0.1,-0.1 -0.4,0.1 -0.5,0.1 -0.2,0.1 -0.4,0.1 -0.6,0.2 -0.2,0.1 -0.4,0.1 -0.5,-0.1 -0.1,-0.2 -0.1,-0.4 0.1,-0.5 0,0 0.1,0 0.1,-0.1 -0.1,0 -0.2,0 -0.3,0.1 -1.2,0.3 -2.4,0.6 -3.5,1 -1.2,0.3 -2.4,0.7 -3.5,1.1 -0.5,0.2 -1,0.4 -1.5,0.6 0,0 0,0.1 0,0.1 0.2,0.6 0.3,1.2 0.2,1.9 0,0.3 -0.3,0.5 -0.6,0.3 -0.3,-0.2 -0.5,-0.4 -0.7,0 -0.2,0.2 -0.2,0.5 -0.2,0.8 0,0.9 0.7,1.3 1.5,1.1 0.2,-0.3 0.5,-0.4 0.8,-0.3 z m 8.5,-5.3 c 0.2,-0.1 0.5,0.4 0.7,1.1 0.2,0.7 0.2,1.3 0,1.3 -0.2,0.1 -0.5,-0.4 -0.7,-1.1 -0.2,-0.6 -0.2,-1.2 0,-1.3 z m -0.8,1.9 c 0.3,0.6 0.9,0.9 1.4,1.2 0.2,0.1 0.2,0.3 0.1,0.5 -0.2,0.3 -0.4,0.8 -0.7,1 -0.4,0.2 -0.8,-0.4 -0.4,-0.6 0.1,-0.1 0.2,-0.2 0.3,-0.4 -0.6,-0.3 -1.1,-0.7 -1.4,-1.2 -0.2,-0.5 0.4,-0.9 0.7,-0.5 z m 0.6,4 c 0.4,-0.3 0.8,0.4 0.4,0.6 -1.1,0.7 -2.3,0.9 -3.5,0.7 -0.5,-0.1 -0.3,-0.8 0.2,-0.7 1,0.2 2,0 2.9,-0.6 z m -2.8,-2.3 c -0.2,0.1 -0.5,-0.4 -0.7,-1.1 -0.2,-0.7 -0.2,-1.3 0,-1.3 0.2,-0.1 0.5,0.4 0.7,1.1 0.2,0.7 0.2,1.3 0,1.3 z m -3.2,-2.9 c 0.6,-0.8 1.4,-1.1 2.3,-1.4 0.5,-0.1 0.7,0.6 0.2,0.7 -0.7,0.2 -1.4,0.4 -1.9,1 -0.2,0.5 -0.8,0.1 -0.6,-0.3 z"
   id="path6366"
   style="fill:#b28d5b" />

	<path
   class="st6"
   d="m 293.5,387.2 c 2.1,-0.8 4.2,-1.9 6.4,-2.5 0.5,-0.1 1.5,-0.4 2.2,-0.2 0,0 0,0 0.1,-0.1 0.3,-0.3 0.6,-0.6 0.7,-1 0.2,-0.4 0,-0.7 -0.5,-0.8 -0.1,0 -0.2,0 -0.3,0 -0.3,0 -0.5,-0.2 -0.7,-0.4 -0.2,-0.4 -0.2,-0.8 -0.3,-1.2 -0.2,-0.6 -0.7,-0.9 -1.3,-0.8 -0.3,0.1 -0.5,0.2 -0.8,0.3 -0.4,0.1 -0.7,0.1 -1,-0.1 -0.3,-0.2 -0.5,-0.6 -0.9,-0.8 -0.6,-0.2 -0.8,0.7 -1.2,0.9 -0.3,0.2 -0.7,0.3 -1.1,0.3 -0.6,0 -1.2,-0.4 -1.8,-0.2 -0.6,0.2 -0.7,1.1 -1.3,1.5 -0.4,0.3 -0.8,0.4 -1.2,0.7 -0.7,0.4 -0.9,0.9 -0.8,1.7 0.1,0.5 0,0.9 -0.3,1.3 -0.4,0.5 -1.1,1 -0.7,1.7 0.2,0.3 0.3,0.4 0.2,0.8 -0.1,0.2 -0.4,0.6 -0.3,0.9 0.1,0.1 0.7,0 1,0 0,-0.3 0.2,-0.5 0.4,-0.7 0.4,-0.3 1,-0.5 1.5,-0.6 0.7,-0.3 1.3,-0.5 2,-0.7 z"
   id="path6368"
   style="fill:#7c312d" />

	<path
   class="st5"
   d="m 302.5,387.7 c 0,0 0,0 0,0 0,0 0,0 0,0 0,0 0,0 0,0 z"
   id="path6370"
   style="fill:#b28d5b" />

	<path
   class="st5"
   d="m 290.4,411.6 c 0.4,1 0.9,1.9 1.6,2.7 0.3,0.4 0.6,0.9 1,1.1 0.4,0.3 0.6,0.2 0.8,-0.3 0.1,-0.3 0.2,-0.5 0.3,-0.8 0.8,-2.2 1.1,-4.6 1.1,-6.9 -0.8,0.3 -1.6,0.7 -2.3,1.3 -0.4,0.3 -0.7,-0.3 -0.4,-0.6 2.1,-1.6 5,-2.1 7.4,-2.9 2.6,-0.9 5.2,-2.1 7.2,-4 3.8,-3.6 3.6,-9.1 6,-13.6 0,0 0,-0.1 0,-0.1 0,0 0.1,-0.1 0.1,-0.1 0,0 0,0 0,0 0,0 0.1,-0.1 0.1,-0.1 0.5,-0.6 1.3,-0.9 1.9,-1.5 0.4,-0.4 0.8,-0.8 1.2,-1.2 0.2,-0.2 0.4,-0.4 0.6,-0.7 0.1,-0.1 0.7,-1.1 0.2,-1.1 -0.1,0 -0.1,0 -0.1,0 0,0 -0.1,0.1 -0.1,0.1 -0.3,0.4 -0.5,0.8 -0.9,1.2 -0.3,0.4 -0.8,-0.2 -0.5,-0.5 0.3,-0.3 0.5,-0.6 0.7,-1 0,-0.1 0.7,-1.1 0.3,-1.1 -0.3,0.7 -0.9,1.3 -1.3,1.8 -0.3,0.4 -0.8,-0.2 -0.5,-0.5 0.3,-0.4 0.6,-0.8 0.9,-1.2 0.1,-0.2 0.2,-0.4 0.3,-0.6 0.1,-0.2 0,-0.6 -0.2,-0.7 -0.1,0.2 -0.2,0.4 -0.3,0.5 -0.3,0.6 -0.7,1.1 -1.1,1.7 -0.3,0.4 -0.9,0 -0.6,-0.4 0.4,-0.6 0.8,-1.2 1.1,-1.8 0.3,-0.5 0,-0.5 -0.3,-0.1 -0.3,0.3 -0.5,0.6 -0.7,1 -0.4,0.6 -0.8,2.1 -1.6,2.3 -0.3,0.1 -0.5,-0.1 -0.6,-0.4 -0.1,-0.2 -0.1,-0.5 -0.1,-0.7 -0.1,-0.3 -0.2,-0.8 -0.2,-0.2 0,1.1 0.2,2.3 -0.2,3.4 -0.4,1 -1.2,1.8 -1.8,2.7 -0.7,1 -1.2,2 -1.8,3.1 -0.6,1.2 -1.1,2.3 -1.5,3.6 -0.3,0.9 -0.5,1.8 -0.9,2.6 -0.3,0.7 -0.7,1.2 -1.5,1.3 -1.1,0.2 -2.3,0.2 -3.4,0.4 -2.4,0.4 -4.8,0.8 -7.2,1.4 -2.2,0.6 -4.1,1.9 -4.4,4.4 -0.1,1.2 0.3,2.3 0.7,3.4 0.2,1.1 0.6,2.1 1,3.1 z"
   id="path6372"
   style="fill:#b28d5b" />

	<path
   class="st7"
   d="m 286.1,446.3 c -1.1,-0.2 -2.3,0.1 -3.3,0.9 -1,0.8 -1.8,2.1 -2.1,3.5 -0.7,2.9 0.7,5.7 3.1,6.3 2.3,0.5 4.8,-1.4 5.4,-4.4 0.3,-1.4 0.2,-2.9 -0.4,-4.1 -0.7,-1.2 -1.6,-2 -2.7,-2.2 z m 2.1,6.1 c -0.2,1.1 -0.8,2.1 -1.6,2.7 -0.7,0.5 -1.4,0.8 -2.1,0.8 -0.2,0 -0.4,0 -0.7,-0.1 -1.9,-0.4 -3.1,-2.7 -2.6,-5 0.5,-2.3 2.5,-3.8 4.4,-3.4 2,0.4 3.2,2.7 2.6,5 z"
   id="path6374"
   style="fill:#d0d2d3" />

	<path
   class="st8"
   d="m 285.4,448.4 c -0.1,0 -0.3,0 -0.4,0 -1.2,0 -2.4,1.1 -2.8,2.7 -0.4,1.8 0.4,3.4 1.8,3.8 0.7,0.1 1.3,0 1.9,-0.5 0.6,-0.5 1.1,-1.3 1.3,-2.1 0.4,-1.9 -0.4,-3.6 -1.8,-3.9 z"
   id="path6376"
   style="fill:#60657d" />

	<path
   class="st5"
   d="m 312.2,381.9 c 0,0 0,0.1 0,0.1 0,0.2 0.1,0.4 0.1,0.6 0,0.4 -0.1,0.2 0.2,-0.1 0.1,-0.1 0.1,-0.2 0.2,-0.3 0.2,-0.3 0.3,-0.5 0.4,-0.8 0.3,-0.5 0.6,-1 1,-1.5 0.3,-0.4 0.9,-0.9 1.3,-0.7 0.4,-0.6 0.8,-1.2 1.2,-1.9 0.1,-0.2 1.5,-2.9 0.7,-3 -0.1,0.5 -0.2,0.9 -0.3,1.2 -0.1,0.5 -0.8,0.3 -0.7,-0.2 0.1,-0.5 0.6,-1.8 0.1,-2.3 -0.1,0.9 -0.3,1.8 -0.4,2.2 0,0.5 -0.8,0.5 -0.7,0 0,-0.5 0.1,-1 0.2,-1.5 0,-0.2 0.2,-1.5 0,-1.5 -0.2,0.1 -0.4,1.3 -0.4,1.6 -0.1,0.5 -0.2,0.9 -0.3,1.3 0,0 0,0 0,0 0,0.5 -0.7,0.5 -0.7,0 0,-0.5 -0.1,-1 -0.1,-1.6 0,-0.4 0,-1.1 -0.3,-1.6 -0.3,0.4 -0.1,1.7 -0.1,2 0,0.6 0.1,1.3 0,1.9 -0.1,0.8 -0.7,1.2 -1.4,0.7 -0.3,-0.2 -0.8,-1.7 -0.8,-0.6 0,0.7 0.4,1.4 0.6,2.1 0.2,1.4 0.2,2.6 0.2,3.9 z"
   id="path6378"
   style="fill:#b28d5b" />

	<path
   class="st5"
   d="m 288.8,438.4 c -0.1,0.1 -0.3,0.1 -0.4,0.3 -0.2,0.2 -0.2,0.5 -0.3,0.8 -0.1,0.2 -0.1,0.5 -0.1,0.8 0,-0.1 0.1,-0.2 0.1,-0.3 0.3,-0.6 0.5,-1.1 0.7,-1.6 z"
   id="path6380"
   style="fill:#b28d5b" />

	<path
   class="st9"
   d="m 306.6,443.6 c 1,0.1 1.9,-0.2 2.9,-0.4 0.9,-0.2 1.9,-0.4 2.8,-0.7 0.5,-0.1 1.1,-0.3 1.6,-0.4 0.3,-0.1 0.5,-0.1 0.7,-0.4 0.2,-0.3 0.2,-0.5 0.2,-0.8 0,-0.6 0,-1.1 0,-1.7 -1.1,0.8 -2.4,1.3 -3.6,1.8 -1.5,0.5 -3.2,0.6 -4.6,1.2 0,0.2 0,0.5 0.1,0.7 -0.1,0.3 -0.1,0.5 -0.1,0.7 z"
   id="path6382"
   style="fill:#f9eddd" />

	<path
   class="st5"
   d="m 314.3,442.8 c -0.5,0.1 -0.9,0.2 -1.3,0.3 -1.3,0.3 -2.5,0.6 -3.8,0.9 -0.4,0.1 -0.8,0.2 -1.2,0.3 0.3,3.5 0.5,7 1.1,10.5 0.3,1.7 0.4,3.4 0.6,5.1 0.2,1.7 0.4,3.4 0.5,5 0.6,-0.1 1.3,0 1.9,0.1 -0.1,-0.6 -0.1,-1.1 0.4,-1.5 0.4,-0.3 0.9,-0.6 1.5,-0.7 -0.4,-3.3 -0.3,-6.5 -0.1,-9.8 0.1,-1.7 0.2,-3.5 0.2,-5.2 0,0 0,0 0,0 0,0 0,-0.1 0,-0.1 0.2,-1.7 0.2,-3.3 0.2,-4.9 z"
   id="path6384"
   style="fill:#b28d5b" />

	<path
   class="st5"
   d="m 313.8,387.7 c -1.2,2.1 -1.7,4.4 -2.3,6.6 -0.5,1.9 -1.2,3.8 -2.3,5.4 -1.1,1.5 -2.5,2.8 -4.1,3.7 0,1 0.1,1.9 0.1,2.9 2.8,-2.4 5.6,-5.1 7.6,-8.3 2.1,-3.4 2.1,-7.3 2,-11.1 -0.4,0.3 -0.7,0.5 -1,0.8 z"
   id="path6386"
   style="fill:#b28d5b" />

	<path
   class="st9"
   d="m 315.5,439 c 0,0.5 0,0.9 0,1.4 0,0.2 0,0.4 0,0.5 1.3,0.1 2.6,0.1 3.9,-0.4 0.6,-0.2 1.1,-0.5 1.6,-1 0.6,-0.6 0.4,-1.2 0.2,-1.9 0,-0.1 0,-0.2 -0.1,-0.3 -1.6,1.2 -3.6,1.7 -5.6,1.7 z"
   id="path6388"
   style="fill:#f9eddd" />

	<path
   class="st9"
   d="m 304.2,425.5 c 0,0.6 -0.2,1 -0.6,1.4 -0.9,0.7 -2.3,0.8 -3.5,0.8 0.2,0.2 0.3,0.3 0.5,0.5 1.1,1.4 1.9,3.1 2.2,4.9 0.1,0.4 0.1,0.7 0.5,0.7 0.4,0 0.8,0 1.1,0 0.7,0.1 1.1,0.4 1.4,1 0.3,0.7 0.3,1.4 0.3,2.1 0.1,0.9 0.1,1.8 0.2,2.6 0,0 0,0 0,0 1.4,-0.4 2.8,-0.8 4.2,-1.3 0.8,-0.3 1.5,-0.6 2.3,-1 0.5,-0.3 1.4,-0.5 1.6,-1.2 0,-0.1 0,-0.1 0.1,-0.1 -0.1,-0.4 -0.3,-0.8 -0.5,-1.1 -0.5,-0.8 -1.3,-1.3 -2.1,-1.8 -1.7,-1.1 -3.6,-2 -5.5,-2.7 -0.4,-0.2 -0.2,-0.9 0.2,-0.7 2.2,0.9 4.5,1.9 6.4,3.3 0.8,0.6 1.5,1.3 1.9,2.1 0.2,0.4 0.3,0.9 0.4,1.4 1.8,-0.1 3.5,-0.6 5,-1.6 -0.6,-1.1 -1.4,-2.2 -2.3,-3 -1.9,-1.7 -4.3,-2.6 -6.6,-3.6 -2.4,-1 -4.8,-2.1 -7.1,-3.1 -0.1,0.2 -0.1,0.3 -0.1,0.4 z"
   id="path6390"
   style="fill:#f9eddd" />

	<path
   class="st9"
   d="m 304.4,404 c -1.7,1 -3.6,1.7 -5.5,2.3 -0.4,0.1 -0.9,0.3 -1.3,0.4 -0.1,2 -0.4,4 -0.8,5.9 -0.2,1 -0.4,2 -0.6,2.9 -0.2,0.8 -0.4,1.7 -0.9,2.4 -1,1.4 -2.5,0.1 -3.4,-0.6 -0.7,-0.6 -1.3,-1.2 -1.8,-1.9 0.2,1.2 0.3,2.4 0.4,3.7 0.1,1.7 0.1,3.5 0.2,5.2 0,0.2 0,0.5 0,0.7 0.9,0.3 1.9,0.2 2.9,0.3 0.9,0 1.8,0.2 2.7,0.4 1.1,0.3 2,0.7 2.9,1.3 0.3,0 0.6,0 0.8,0 0.9,0 1.9,-0.1 2.7,-0.5 0.9,-0.4 0.7,-1.3 0.7,-2.2 0,-3.5 0.7,-6.9 0.9,-10.3 0.2,-3.3 0.3,-6.7 0.1,-10 z"
   id="path6392"
   style="fill:#f9eddd" />

	<path
   class="st5"
   d="m 320.2,463.1 c 0.3,-0.1 0.6,-0.2 0.9,-0.3 0.1,-7.5 0.1,-15 0.2,-22.5 -1.6,1.3 -3.7,1.4 -5.7,1.3 0,0 0,0 0,0 0,0.1 0,0.2 -0.1,0.4 -0.1,0.2 -0.2,0.4 -0.4,0.5 0,0 0,0.1 0,0.1 0,1.7 0,3.5 -0.1,5.2 0.7,5.5 1.1,11.1 1.7,16.7 0.2,0.5 0.8,0.5 1.3,0.5 0.3,0 0.6,0 0.9,-0.1 -0.1,-0.8 0.5,-1.4 1.3,-1.8 z"
   id="path6394"
   style="fill:#b28d5b" />

	<g
   id="g6404">
		<path
   class="st10"
   d="m 295.9,407.3 c 0.1,1.5 0,3.1 -0.3,4.6 -0.1,0.7 -0.3,1.5 -0.6,2.2 -0.2,0.6 -0.4,1.3 -0.8,1.9 -1.4,2 -3.8,-2.6 -4.3,-3.6 -0.3,-0.7 -0.6,-1.4 -0.9,-2.2 0.2,1 0.4,2.1 0.6,3.1 0.6,1.2 1.4,2.2 2.4,3.1 0.4,0.4 0.9,0.9 1.5,1.2 1.1,0.6 1.5,-0.7 1.7,-1.5 0.9,-2.9 1.4,-6.1 1.6,-9.2 -0.3,0.1 -0.6,0.2 -0.9,0.4 0,0 0,0 0,0 z"
   id="path6396"
   style="fill:#cd5047" />

		<path
   class="st10"
   d="m 301.9,385.3 c -0.4,-0.3 -1.3,-0.1 -1.8,0.1 -0.5,0.1 -1,0.3 -1.5,0.5 -1.1,0.4 -2.1,0.9 -3.1,1.3 -1,0.4 -2.1,0.8 -3.1,1.2 -0.5,0.2 -1.2,0.3 -1.7,0.6 -0.5,0.4 -0.3,1 -0.1,1.6 1.1,-0.2 2,-0.6 3,-1 1.1,-0.4 2.2,-0.7 3.3,-1 1.1,-0.3 2.3,-0.6 3.4,-0.9 0.5,-0.1 1.2,-0.2 1.6,-0.4 0.6,-0.3 0.4,-0.7 0.3,-1.2 -0.1,-0.3 -0.1,-0.6 -0.3,-0.8 z"
   id="path6398"
   style="fill:#cd5047" />

		<path
   class="st10"
   d="m 314.6,437.1 c -0.2,0.2 -0.4,0.4 -0.7,0.5 -0.8,0.4 -1.6,0.8 -2.4,1.1 -1.7,0.7 -3.4,1.3 -5.1,1.7 0,0 0,0 -0.1,0 0,0.3 0.1,0.7 0.1,1 1.4,-0.5 2.9,-0.6 4.3,-1.1 1.4,-0.5 2.8,-1.1 4,-2 0,-0.2 0,-0.4 0,-0.6 0,-0.2 -0.1,-0.4 -0.1,-0.6 z"
   id="path6400"
   style="fill:#cd5047" />

		<path
   class="st10"
   d="m 320.6,435.6 c -1.6,1 -3.3,1.6 -5.2,1.7 0,0.3 0.1,0.6 0.1,1 2,0.1 3.9,-0.5 5.5,-1.6 -0.1,-0.5 -0.3,-0.8 -0.4,-1.1 z"
   id="path6402"
   style="fill:#cd5047" />

	</g>

	<g
   id="g6410">
		<path
   class="st9"
   d="m 322.6,465.6 c -0.7,-0.3 -1.5,-0.1 -2.2,-0.1 -0.8,0 -1.5,0.1 -2.2,0.1 -1,0.1 -1.8,-0.1 -2.1,-1 0,0 0,0 0,-0.1 0,-0.1 -0.1,-0.2 -0.1,-0.3 -0.1,-0.2 -0.1,-0.7 -0.3,-0.9 -0.2,-0.2 -0.9,-0.1 -1.2,0 -0.4,0.1 -0.8,0.2 -1.1,0.5 -0.6,0.4 -0.5,0.8 -0.3,1.4 0,0.1 0,0.2 0,0.3 0,0.2 -0.1,0.3 -0.3,0.3 -0.8,-0.1 -2.7,-0.5 -3.1,0.4 -0.2,0.5 -0.3,1.1 -0.4,1.6 0,0.4 -0.2,0.8 -0.2,1.2 0,0 0,0 0,0.1 1.1,0 2.3,-0.1 3.4,-0.1 1.8,-0.1 3.6,-0.1 5.5,-0.2 1.2,-0.1 2.6,0 3.8,-0.3 0.7,-0.3 2.5,-2.2 0.8,-2.9 z"
   id="path6406"
   style="fill:#f9eddd" />

		<path
   class="st9"
   d="m 328.9,465.6 c -0.9,-0.4 -2.1,-0.4 -3,-0.5 -0.5,-0.1 -1,-0.1 -1.5,-0.2 -0.3,-0.1 -0.8,0 -1.1,-0.2 -0.6,-0.4 -0.4,-1.4 -1.3,-1.3 -0.1,0 -0.2,0 -0.4,0.1 -0.1,0.1 -0.2,0.1 -0.3,0.1 -0.8,0.2 -1.8,0.6 -1.7,1.4 0.4,0 0.9,0 1.3,-0.1 0.7,0 1.4,-0.1 2.1,0.2 1.2,0.6 1.2,2.2 0.4,3.1 -0.4,0.5 -0.9,0.8 -1.5,0.9 0,0 0.1,0 0.1,0 1,-0.1 2,-0.2 3,-0.3 1.1,-0.1 2.2,-0.3 3.2,-0.6 0.5,-0.2 0.9,-0.4 1.2,-0.9 0.4,-0.8 0.1,-1.4 -0.5,-1.7 z"
   id="path6408"
   style="fill:#f9eddd" />

	</g>

	<g
   id="g6420">
		<path
   class="st11"
   d="m 288.7,434.5 c 0,1 0,2.1 0,3.1 0.2,0 0.3,-0.1 0.5,-0.1 0.3,-0.8 0.6,-1.7 0.8,-2.6 -0.4,-0.1 -0.9,-0.2 -1.3,-0.4 z"
   id="path6412"
   style="fill:#bbbdbf" />

		<path
   class="st11"
   d="m 290,437.5 c 0.1,0 0.1,0 0.2,0 0,-0.2 0,-0.3 0,-0.5 -0.1,0.2 -0.2,0.4 -0.2,0.5 z"
   id="path6414"
   style="fill:#bbbdbf" />

		<path
   class="st11"
   d="m 304.4,424.5 c 0.2,0.1 0.4,0.2 0.6,0.3 0.1,-1.1 0.1,-2.2 0.2,-3.3 0,-0.7 0.6,-3.5 -0.5,-3.6 -0.2,1.6 -0.4,3.1 -0.5,4.7 0,0.6 0,1.3 0,1.9 0,-0.1 0.1,-0.1 0.2,0 z"
   id="path6416"
   style="fill:#bbbdbf" />

		<path
   class="st11"
   d="m 326.3,469.3 c -0.5,0.1 -1,0.1 -1.4,0.1 -1.2,0.1 -2.4,0.3 -3.6,0.4 -1,0.1 -1.9,0 -2.7,-0.4 0,0 0,0 0,0 -3.3,0.2 -6.6,0.3 -9.9,0.4 -0.2,0 -0.3,-0.1 -0.4,-0.3 0,0 0,-0.1 0,-0.2 -0.2,-2.1 -0.4,-4.2 -0.6,-6.3 -0.6,-6.8 -1.2,-13.6 -1.8,-20.4 -0.1,-0.9 -0.2,-1.7 -0.2,-2.6 0,-0.3 0,-0.5 -0.1,-0.8 -0.1,-0.9 -0.1,-1.7 -0.2,-2.6 -0.1,-0.9 -0.1,-2 -1.3,-2 -0.5,0 -1.2,0.2 -1.7,-0.2 -0.4,-0.3 -0.3,-0.9 -0.4,-1.3 -0.3,-1.7 -1.1,-3.3 -2.2,-4.6 -1.1,-1.4 -2.7,-2 -4.4,-2.3 -1.3,-0.3 -2.7,0 -4,-0.3 -0.2,0 -0.3,0 -0.5,0 -0.3,-0.1 -0.5,-0.2 -0.7,-0.3 -0.1,-0.2 -0.1,-0.5 -0.1,-0.7 -0.2,-2 -0.2,-4 -0.3,-6 0,-0.1 0,-0.2 0,-0.3 0,0 -0.1,-0.1 -0.1,-0.2 -0.2,-1.4 -1.1,-2.7 -2.4,-3.3 -1.4,-0.6 -3.1,-0.4 -4.6,-0.4 -0.3,0.7 -0.1,1.5 0.1,2.3 1.3,-0.1 3,-0.3 4.2,0.3 1.1,0.5 1.6,1.7 1.6,2.9 0.1,1.7 0.1,3.4 0.2,5 0.1,1.6 0.2,3.2 0.1,4.8 0.2,0 0.4,0.1 0.6,0.1 0.2,0.1 0.5,0.1 0.7,0.2 0,-0.9 0,-1.8 0,-2.7 0,-0.2 0.1,-0.3 0.3,-0.4 1.5,-0.4 3.1,-0.3 4.6,0.2 1.4,0.4 2.8,0.9 3.7,2 1.8,2.3 2.5,5.2 2.6,8 0.3,0 0.6,0 0.9,0 0,-0.5 -0.2,-1.4 0.3,-1.8 0.4,-0.3 0.8,-0.2 1.1,0.1 0.5,0.5 0.4,1.3 0.4,1.9 0,0.7 0.1,1.4 0.2,2 0.6,6.1 1.3,12.3 1.9,18.4 0.3,3.1 0.6,6.1 1,9.2 0.1,1.3 0.4,2.6 0.4,3.9 1.6,0 3.2,0.1 4.9,0 1.7,-0.1 3.4,-0.2 5.1,-0.1 0.8,0 1.5,0.3 2.3,0.3 0.8,0.1 1.7,0 2.5,0 0.9,0 1.8,0 2.7,-0.1 0.5,0 1.1,0 1.3,-0.6 0.2,-0.2 0.1,-0.8 -0.1,-1.3 z"
   id="path6418"
   style="fill:#bbbdbf" />

	</g>

	<path
   class="st12"
   d="m 289.3,430.9 c -9.1,-2 -18.5,5.1 -20.9,16 -2.4,10.8 3.1,21.3 12.2,23.3 4.4,1 9,-0.1 13,-3.1 4,-3 6.8,-7.6 8,-12.8 2.3,-10.9 -3.2,-21.3 -12.3,-23.4 z m 9.1,22.5 c -1.8,8.2 -8.2,13.9 -14.8,13.9 -0.8,0 -1.7,-0.1 -2.5,-0.3 -3.7,-0.8 -6.7,-3.3 -8.6,-7.1 -1.9,-3.7 -2.3,-8.2 -1.4,-12.6 1,-4.4 3.3,-8.3 6.6,-10.9 3.3,-2.6 7.1,-3.6 10.8,-2.8 0.7,0.2 1.4,0.4 2,0.6 0.1,0 0.1,0 0.2,0.1 6.1,2.9 9.5,10.8 7.7,19.1 z"
   id="path6422"
   style="fill:#7c6a9d" />

	<g
   id="g6430">
		<path
   class="st7"
   d="m 290.9,437.6 c 0.1,0 0.2,0 0.3,0 0.9,0 1.8,0 2.7,0 -0.9,-0.9 -1.9,-1.7 -3,-2.2 0,0.7 0,1.4 0,2.2 z"
   id="path6424"
   style="fill:#d0d2d3" />

		<path
   class="st7"
   d="m 295,428.2 c -1.3,-0.4 -2.7,-0.5 -4.1,-0.2 0,0.9 0,1.7 0,2.6 3.6,1.2 6.6,3.7 8.7,6.9 0,0 0,0 0,0 0.3,0 0.7,0 1,0 -0.1,-2.5 -0.7,-5.1 -2.2,-7.2 -0.8,-1.2 -2,-1.7 -3.4,-2.1 z"
   id="path6426"
   style="fill:#d0d2d3" />

		<path
   class="st7"
   d="m 303.4,437.4 c 0,-0.1 0,-1.2 -0.4,-1 -0.1,0.1 0,0.8 0,1.1 0.2,0 0.3,0 0.4,-0.1 0,0.1 0,0 0,0 z"
   id="path6428"
   style="fill:#d0d2d3" />

	</g>

	<g
   id="g6436">
		<path
   class="st13"
   d="m 303.7,440.5 c -0.1,-0.7 -0.2,-1.5 -0.2,-2.2 0,0 0,0 0,-0.1 -1.2,0.1 -2.3,0 -3.5,0 0.6,1.1 1.1,2.2 1.6,3.4 0,0 0.1,0 0.2,0 0.7,-0.1 1.4,-0.1 2.1,-0.1 -0.1,-0.3 -0.2,-0.6 -0.2,-1 z"
   id="path6432"
   style="fill:#956f4d" />

		<path
   class="st13"
   d="m 294.3,438.4 c -1.5,-0.1 -3,-0.1 -4.5,0 0,0 -0.1,0 -0.1,0 -0.3,0.6 -0.5,1.1 -0.8,1.7 -0.2,0.5 -0.4,1 -0.6,1.4 0.1,0.1 0.2,0.2 0.4,0.3 0.6,0.2 1.4,0.1 2,0.2 0.6,0 1.3,0 1.9,0 1.4,-0.1 2.8,0.1 4.1,0.1 -0.6,-1.3 -1.3,-2.6 -2.2,-3.6 -0.1,-0.2 -0.1,-0.1 -0.2,-0.1 z"
   id="path6434"
   style="fill:#956f4d" />

	</g>

	<g
   id="g6454">
		<path
   class="st14"
   d="m 331.8,376.8 c -1.2,0.1 -2.4,0.1 -3.6,0 0,0.6 0.1,1.2 0.2,1.8 0.6,-0.1 1.3,0 1.9,0.2 1.2,0.4 2.2,1 3.4,1.5 1.3,0.5 2.5,0.7 3.8,0.7 1.7,-1.5 2.7,-3.7 2.7,-6.1 -2.5,1.3 -5.5,1.7 -8.4,1.9 z"
   id="path6438"
   style="fill:#ec7e45" />

		<path
   class="st14"
   d="m 329.3,373.5 c -0.3,0.1 -0.6,0.2 -0.8,0.3 -0.2,0.8 -0.2,1.5 -0.3,2.3 1.2,0.1 2.4,0 3.6,-0.1 2.9,-0.1 5.8,-0.5 8.4,-2 -0.2,-2.1 -1.2,-4 -2.6,-5.4 -1.8,-0.1 -3.2,1.2 -4.5,2.2 -1.2,0.9 -2.4,2 -3.8,2.7 z"
   id="path6440"
   style="fill:#ec7e45" />

		<path
   class="st14"
   d="m 331.6,380.1 c -0.9,-0.4 -2,-1 -3.1,-0.8 0.4,1.4 1,2.7 1.9,3.8 0,0 0,0 0,0 0.4,0.1 0.8,0.1 1.3,0.1 1.8,0 3.6,-0.6 4.9,-1.6 -0.8,-0.1 -1.6,-0.2 -2.4,-0.4 -0.8,-0.2 -1.7,-0.7 -2.6,-1.1 z"
   id="path6442"
   style="fill:#ec7e45" />

		<path
   class="st14"
   d="m 327.5,379 c 0.1,-0.1 0.2,-0.1 0.3,-0.1 -0.1,-0.7 -0.2,-1.4 -0.2,-2.1 -0.2,0 -0.4,0 -0.7,-0.1 -1.2,-0.2 -2.4,-0.3 -3.5,-0.8 0.3,1.9 1.2,3.7 2.5,5 0.3,-0.8 0.8,-1.5 1.6,-1.9 z"
   id="path6444"
   style="fill:#ec7e45" />

		<path
   class="st14"
   d="m 327.5,376 c 0,-0.7 0.1,-1.5 0.2,-2.2 -1.7,0 -3,-1.3 -3.6,-2.9 -0.6,1.2 -0.9,2.5 -0.9,3.8 0,0.1 0,0.2 0,0.3 1.2,0.7 2.7,0.8 4,1 0.1,0 0.2,0 0.3,0 z"
   id="path6446"
   style="fill:#ec7e45" />

		<path
   class="st14"
   d="m 327.1,373.1 c 0.3,0.1 0.5,0.1 0.8,0.1 0.6,-2.7 2.1,-5.2 4.3,-6.9 -0.1,0 -0.3,0 -0.4,0 -2.9,0 -5.5,1.5 -7.1,3.8 0.2,1.3 1,2.6 2.4,3 z"
   id="path6448"
   style="fill:#ec7e45" />

		<path
   class="st14"
   d="m 328.6,373 c 0.8,-0.3 1.5,-0.9 2.1,-1.3 1.1,-0.8 2.2,-1.7 3.3,-2.5 0.8,-0.6 1.7,-1 2.7,-1.2 -1,-0.8 -2.2,-1.3 -3.5,-1.5 -2.3,1.3 -3.8,3.8 -4.6,6.5 z"
   id="path6450"
   style="fill:#ec7e45" />

		<path
   class="st14"
   d="m 326.3,381.3 c 0.9,0.7 1.9,1.3 3,1.6 -0.7,-1 -1.2,-2.2 -1.5,-3.4 -0.6,0.4 -1.1,1.2 -1.5,1.8 z"
   id="path6452"
   style="fill:#ec7e45" />

	</g>

	<g
   id="g6460">
		<path
   class="st15"
   d="m 304.8,450.6 h -2 c 0,0.4 -0.1,0.7 -0.1,1.1 h 2.2 c -0.1,-0.4 -0.1,-0.7 -0.1,-1.1 z"
   id="path6456"
   style="fill:#929497" />

		<path
   class="st15"
   d="m 290.3,451.7 h 7.7 c 0.1,-0.4 0.1,-0.7 0.1,-1.1 h -7.8 c 0,0.4 0,0.7 0,1.1 z"
   id="path6458"
   style="fill:#929497" />

	</g>

	<g
   id="g6476">
		<path
   class="st8"
   d="m 295.4,442.7 c -0.1,0.2 -0.2,0.4 -0.3,0.6 0.3,-0.2 0.5,-0.4 0.8,-0.5 -0.1,-0.1 -0.3,-0.1 -0.5,-0.1 z"
   id="path6462"
   style="fill:#60657d" />

		<path
   class="st8"
   d="m 308.5,464.7 c 0.1,0.6 0.1,1.1 0.1,1.7 0.1,-0.3 0.2,-0.6 0.4,-0.9 0.1,-0.2 0.3,-0.3 0.5,-0.4 0,-0.1 0,-0.2 0,-0.3 -0.3,0 -0.6,0 -1,-0.1 z"
   id="path6464"
   style="fill:#60657d" />

		<path
   class="st8"
   d="m 306.2,464.1 c -2.3,-0.8 -4.4,-2.2 -5.9,-4.1 -0.6,1.1 -1.2,2.2 -1.9,3.2 2.2,2.4 5.1,4.1 8.3,4.9 0,-0.4 -0.1,-0.8 -0.1,-1.2 -0.2,-0.9 -0.3,-1.8 -0.4,-2.8 z"
   id="path6466"
   style="fill:#60657d" />

		<path
   class="st8"
   d="m 325.6,440.8 c -1.1,-1.8 -2.4,-3.3 -3.9,-4.5 0.2,0.6 0.4,1.3 0.5,1.9 0.1,0.6 0,1 -0.2,1.4 0,0 0,0 0,0 0,0.4 0,0.8 0,1.2 0.3,0.4 0.7,0.9 1,1.4 2,3.3 2.6,7.2 1.8,11 -0.5,2.3 -1.5,4.4 -2.9,6.1 0,1.1 0,2.2 0,3.2 0.3,0 0.6,0 0.9,0.1 0.2,0.1 0.4,0.2 0.5,0.4 2.3,-2.4 3.9,-5.4 4.6,-8.7 0.9,-4.7 0.2,-9.5 -2.3,-13.5 z"
   id="path6468"
   style="fill:#60657d" />

		<path
   class="st8"
   d="m 296.9,452.4 h -3.3 c 0,0.3 0,0.5 0.1,0.8 1.2,0.3 2.4,0.6 3.6,0.9 -0.3,-0.5 -0.4,-1.1 -0.4,-1.7 z"
   id="path6470"
   style="fill:#60657d" />

		<path
   class="st8"
   d="m 295.4,459 c 0.8,-1.3 1.4,-2.7 1.8,-4.1 -1.1,-0.3 -2.3,-0.6 -3.5,-0.9 0.3,1.7 0.9,3.4 1.7,5 z"
   id="path6472"
   style="fill:#60657d" />

		<path
   class="st8"
   d="m 294.6,444.4 c -0.3,0.8 -0.5,1.6 -0.7,2.4 -0.2,1 -0.4,2 -0.4,3 h 3.2 c 0,-0.9 0.1,-1.8 0.3,-2.7 0.2,-0.7 0.4,-1.4 0.6,-2.1 -0.2,-0.8 -0.4,-1.5 -0.6,-2.2 -0.7,0.5 -1.6,1.1 -2.4,1.6 z"
   id="path6474"
   style="fill:#60657d" />

	</g>

	<path
   d="m 290.6,434.4 c 0,0 -0.1,-0.1 -0.2,-0.1 -0.6,-0.3 -1.3,-0.5 -2,-0.6 -3.7,-0.8 -7.5,0.2 -10.8,2.8 -3.3,2.6 -5.6,6.4 -6.6,10.9 -1,4.4 -0.5,8.9 1.4,12.6 1.9,3.7 4.9,6.2 8.6,7.1 0.8,0.2 1.7,0.3 2.5,0.3 6.7,0 13,-5.7 14.8,-13.9 1.9,-8.4 -1.5,-16.3 -7.7,-19.1 z m 3.3,3.2 c -0.9,0 -1.8,0 -2.7,0 -0.1,0 -0.2,0 -0.3,0 0,-0.7 -0.1,-1.5 -0.1,-2.2 1.2,0.5 2.2,1.3 3.1,2.2 z m -3.7,-0.1 c -0.1,0 -0.1,0 -0.2,0 0.1,-0.1 0.1,-0.3 0.2,-0.5 0,0.2 0,0.4 0,0.5 z M 290,435 c -0.2,0.9 -0.5,1.7 -0.8,2.6 -0.2,0 -0.3,0 -0.5,0.1 0,-1 0,-2.1 0,-3.1 0.4,0.1 0.9,0.2 1.3,0.4 z m -1.9,4.5 c 0.1,-0.2 0.1,-0.6 0.3,-0.8 0.1,-0.2 0.2,-0.2 0.4,-0.3 -0.2,0.5 -0.5,1 -0.7,1.5 0,0.1 -0.1,0.2 -0.1,0.3 0,-0.3 0.1,-0.5 0.1,-0.7 z m 1.5,8.5 c 1.3,-1 2.7,-2 4,-2.9 -0.2,0.5 -0.3,1 -0.4,1.5 -0.2,1.1 -0.4,2.1 -0.4,3.2 h -2.6 c -0.1,-0.6 -0.3,-1.2 -0.6,-1.8 z m 3.2,4.4 c 0,0.2 0,0.4 0.1,0.6 -0.9,-0.2 -1.8,-0.3 -2.7,-0.5 0,0 0,-0.1 0,-0.1 z m -3.5,-5 c -0.7,-1 -1.6,-1.7 -2.7,-2 0.4,-1 0.9,-2.1 1.3,-3.1 0.1,0.1 0.3,0.2 0.5,0.2 0.8,0.1 1.7,0.2 2.5,0.2 1,0 2.1,-0.1 3.1,-0.1 0.2,0 0.4,0 0.6,0 -0.2,0.4 -0.4,0.9 -0.6,1.4 -1.6,1.1 -3.2,2.2 -4.7,3.4 z m -0.2,5.1 c -0.7,2.9 -3.1,4.9 -5.4,4.4 -2.3,-0.5 -3.7,-3.3 -3.1,-6.3 0.3,-1.4 1.1,-2.7 2.1,-3.5 1,-0.8 2.2,-1.1 3.3,-0.9 1.1,0.2 2,1 2.6,2.2 0.7,1.3 0.8,2.7 0.5,4.1 z m -3.2,-18.3 c 0.7,0 1.4,0.1 2,0.2 0,1.2 0,2.4 0,3.7 -0.8,0.8 -0.7,2.4 -0.6,3.3 0,0.1 0,0.1 0,0.2 -0.5,1.2 -1.1,2.4 -1.6,3.7 0,0 0,0 0,0 -0.5,-0.1 -1.1,0 -1.6,0.1 -0.2,-3.5 -0.6,-7 -1.2,-10.5 0,-0.1 -0.1,-0.2 -0.1,-0.2 1.1,-0.4 2.1,-0.5 3.1,-0.5 z m -7.8,2.9 c 1.4,-1.1 2.8,-1.9 4.3,-2.3 0,0.1 -0.1,0.2 0,0.3 0.6,3.5 0.9,7 1.2,10.5 -0.5,0.2 -1,0.5 -1.4,0.8 -0.3,0.2 -0.6,0.5 -0.8,0.8 -1.2,-0.9 -2.1,-2.1 -3.2,-3.2 -1.1,-1.1 -2.3,-2.1 -3.5,-3 0.9,-1.6 2.1,-2.9 3.4,-3.9 z m -6.3,10.4 c 0.5,-2.2 1.3,-4.2 2.4,-5.9 0.1,0 0.1,0 0.2,0 1.2,1 2.4,2 3.5,3 1,1 1.9,2.2 3,3 -0.5,0.7 -0.9,1.4 -1.1,2.3 -1.3,0 -2.6,-0.1 -3.9,-0.1 -0.7,0 -1.4,0 -2,0 -0.3,0 -0.7,0 -1,0 -0.2,0 -0.8,0.1 -1.1,0 -0.1,-0.1 -0.2,-0.1 -0.3,-0.2 0,-0.7 0.2,-1.4 0.3,-2.1 z m 0.4,10 c -0.7,-2.2 -1,-4.7 -0.8,-7.1 0.1,0 0.2,0.1 0.4,0.1 0.9,0.1 1.9,0 2.8,0.1 1.7,0 3.4,0.1 5,0.1 -0.2,1 -0.2,2 0,2.9 -2.3,1.6 -5.1,2.3 -7.4,3.9 z m 6.4,7.9 c -2.3,-1.2 -4.2,-3.1 -5.5,-5.7 -0.2,-0.5 -0.4,-1 -0.6,-1.4 2.2,-1.7 5,-2.4 7.3,-3.9 0.5,1.5 1.4,2.7 2.7,3.3 -0.5,1.3 -1.2,2.6 -1.9,3.8 -0.6,1.2 -1.3,2.6 -2,3.9 0,0 0,0 0,0 z m 4.9,1.2 c -0.8,0 -1.6,-0.1 -2.3,-0.3 -0.7,-0.1 -1.3,-0.4 -1.9,-0.6 0.7,-1.4 1.4,-2.8 2.1,-4.2 0.6,-1.2 1.3,-2.4 1.8,-3.7 0.1,0 0.2,0 0.3,0.1 0.3,0.1 0.7,0.1 1,0.1 1,0 2,-0.3 2.8,-0.9 1,2.5 1.9,5 2.8,7.5 -2,1.3 -4.3,2 -6.6,2 z m 7.2,-2.4 c -0.9,-2.5 -1.8,-5 -2.8,-7.4 0,0 0,-0.1 -0.1,-0.1 1,-0.8 1.7,-2 2.1,-3.4 1,0.1 2,0.3 3,0.5 0.3,2.1 1,4.1 2,5.9 -1.1,1.8 -2.6,3.3 -4.2,4.5 z m 2.8,-11.8 h 3.3 c 0.1,0.6 0.2,1.1 0.3,1.7 -1.2,-0.3 -2.4,-0.6 -3.6,-0.9 0.1,-0.2 0.1,-0.5 0,-0.8 z m 1.9,6.6 c -0.8,-1.6 -1.3,-3.3 -1.6,-5 1.2,0.3 2.3,0.6 3.5,0.9 -0.5,1.5 -1.2,2.9 -1.9,4.1 z m 2.3,-6 c 0,-0.2 -0.1,-0.4 -0.1,-0.6 h 0.2 c 0,0.2 -0.1,0.4 -0.1,0.6 z m 0.2,-1.3 h -7.7 c 0,-0.4 0,-0.7 0,-1.1 h 7.8 c 0,0.4 0,0.7 -0.1,1.1 z m 0.1,-5.1 c 0.1,1.1 0.2,2.2 0.1,3.3 h -0.6 c 0,-0.9 0.1,-1.7 0.3,-2.6 0.1,-0.2 0.1,-0.5 0.2,-0.7 z m -0.3,-1.6 c -0.3,0.7 -0.5,1.4 -0.6,2.1 -0.2,0.9 -0.3,1.8 -0.3,2.7 h -3.2 c 0.1,-1 0.2,-2 0.4,-3 0.2,-0.8 0.4,-1.6 0.7,-2.4 0.8,-0.6 1.6,-1.1 2.4,-1.6 0.2,0.7 0.5,1.5 0.6,2.2 z m -2.6,-1.8 c 0.1,-0.2 0.2,-0.4 0.3,-0.6 0.2,0 0.4,0 0.5,0 -0.2,0.3 -0.5,0.4 -0.8,0.6 z m -0.6,-4.9 c 0.9,1.1 1.6,2.3 2.2,3.6 -1.4,0.1 -2.8,-0.1 -4.1,-0.1 -0.6,0 -1.3,0.1 -1.9,0 -0.6,0 -1.5,0 -2,-0.2 -0.2,-0.1 -0.3,-0.2 -0.4,-0.3 0.2,-0.5 0.4,-1 0.6,-1.4 0.2,-0.6 0.5,-1.1 0.8,-1.7 0,0 0.1,0 0.1,0 1.5,0 3,0 4.5,0 0.1,0.2 0.1,0.1 0.2,0.1 z"
   id="path6478" />

	<path
   d="m 285.7,447.4 c -1.9,-0.4 -3.9,1.1 -4.4,3.4 -0.5,2.3 0.6,4.5 2.6,5 0.2,0 0.4,0.1 0.7,0.1 0.7,0 1.5,-0.3 2.1,-0.8 0.8,-0.6 1.4,-1.6 1.6,-2.7 0.5,-2.3 -0.7,-4.6 -2.6,-5 z m 1.5,4.8 c -0.2,0.9 -0.6,1.6 -1.3,2.1 -0.6,0.5 -1.3,0.7 -1.9,0.5 -1.4,-0.3 -2.2,-2 -1.8,-3.8 0.3,-1.6 1.5,-2.7 2.8,-2.7 0.1,0 0.3,0 0.4,0 1.4,0.4 2.2,2.1 1.8,3.9 z"
   id="path6480" />

	<path
   d="m 327.6,464.6 c -1.2,-0.2 -2.4,-0.3 -3.6,-0.5 -0.3,0 -0.4,-0.1 -0.5,-0.3 2.5,-2.5 4.2,-5.7 5,-9.3 1.1,-4.9 0.3,-9.9 -2.3,-14.1 -1.3,-2.2 -3.1,-4.1 -5.1,-5.5 -0.8,-1.5 -1.8,-2.9 -3.2,-4 -1.7,-1.4 -3.8,-2.2 -5.8,-3.1 -2.1,-0.9 -4.2,-1.8 -6.4,-2.8 0.1,-1.8 0.2,-3.6 0.3,-5.3 0.1,-1 0,-2.6 -1.3,-2.6 0,-0.1 0,-0.3 0,-0.4 0.3,-3.1 0.4,-6.2 0.4,-9.4 3.1,-2.6 6.3,-5.6 8.3,-9.1 2.1,-3.6 2.1,-7.7 1.9,-11.8 0.1,0 0.1,-0.1 0.2,-0.1 0.7,-0.5 1.3,-1.2 1.9,-1.9 0.4,-0.5 0.8,-1.1 0.6,-1.7 -0.1,-0.4 -0.3,-0.6 -0.6,-0.6 0,-0.1 0,-0.2 0.1,-0.2 0.1,-0.5 -0.2,-0.9 -0.7,-1 0.1,-0.7 -0.4,-1.1 -1,-1.2 0.7,-1.1 4,-5.9 1.4,-6.1 0,-0.6 -0.3,-1.1 -0.9,-1.3 -0.1,-0.4 -0.3,-0.8 -0.7,-0.8 -0.6,-0.1 -0.9,0.4 -1.1,1.1 -0.2,-0.9 -0.5,-1.6 -1.2,-1.2 -0.6,0.3 -0.6,1.3 -0.6,1.9 0,0.5 0,1 0,1.5 0,0.3 0.1,1.5 -0.2,1.4 -0.1,0 -0.3,-0.8 -0.5,-0.9 -0.2,-0.2 -0.4,-0.3 -0.7,-0.4 -0.6,0 -0.9,0.8 -0.9,1.3 0,0.9 0.4,1.7 0.6,2.6 0.2,0.8 0.2,1.7 0.2,2.5 -0.1,0 -0.3,0.1 -0.5,0.2 -0.3,0.2 -0.4,0.6 -0.4,1 0,0.7 0.1,1.4 0,2.1 -0.1,1.4 -1.1,2.4 -1.8,3.5 -1.5,2.3 -2.7,4.8 -3.7,7.5 -0.3,0.9 -0.5,2.6 -1.6,2.9 -0.2,0.1 -0.5,0.1 -0.7,0.1 0.4,-0.2 0.8,-0.5 1,-0.9 0.5,-0.9 0.4,-2.1 0.5,-3.1 0.1,-1.3 0,-2.6 -0.2,-3.9 -0.1,-0.7 -0.3,-1.3 -0.5,-1.9 -0.2,-0.5 -0.3,-1 -0.6,-1.5 0.1,-0.5 0,-1.5 -0.3,-2.1 0.7,-0.6 1.2,-1.5 0.9,-2.4 -0.1,-0.3 -0.4,-0.6 -0.7,-0.7 -0.2,-0.1 -0.4,0 -0.7,-0.1 -0.4,-0.1 -0.3,-0.4 -0.4,-0.8 -0.2,-0.9 -1,-1.8 -2.1,-1.5 -0.6,0.1 -1.1,0.6 -1.7,0.2 -0.3,-0.2 -0.5,-0.6 -1,-0.8 -1.1,-0.3 -1.3,1.3 -2.3,1.2 -0.6,0 -1.1,-0.3 -1.7,-0.3 -0.4,0 -0.8,0.3 -1.1,0.6 -0.2,0.2 -0.3,0.5 -0.4,0.7 -0.2,0.3 -0.5,0.5 -0.8,0.7 -0.5,0.2 -0.9,0.5 -1.3,0.9 -0.3,0.3 -0.5,0.8 -0.5,1.2 0,0.2 0.1,0.5 0.1,0.7 0,0.6 -0.3,0.9 -0.6,1.3 -0.3,0.4 -0.6,0.9 -0.6,1.4 0,0.2 0.1,0.4 0.2,0.5 0.2,0.3 0.2,0.2 0,0.5 -0.2,0.4 -0.3,0.9 0,1.3 0.3,0.4 1.2,0.3 1.6,0.3 0.1,0.4 0.2,0.7 0.4,1.1 0.1,0.7 0.1,1.4 0.4,2.1 0,0 0,0 0,0 -0.2,0.6 -0.1,1.4 0.3,2 0.5,0.8 1.3,0.7 2.1,0.6 0.2,0 0.3,0 0.5,0.1 0,1.4 -0.1,2.8 -0.1,4.2 -0.6,0.2 -1.2,0.3 -1.8,0.6 -2,0.8 -3.4,2.7 -3.5,5 0,0.7 0.1,1.3 0.3,2 0,0.1 0,0.1 0,0.2 0,1.9 0.4,3.7 0.8,5.6 0.2,1 0.4,1.9 0.5,2.9 -0.4,-0.5 -0.9,-1 -1.4,-1.3 -1.6,-1 -3.8,-0.7 -5.6,-0.7 -0.1,0 -0.3,0.1 -0.3,0.2 -0.5,1.1 -0.3,2.2 0.1,3.3 0,0.1 0.2,0.3 0.4,0.3 0.7,-0.1 1.5,-0.1 2.2,-0.1 0.7,0 1.5,0 2.1,0.3 1.3,0.7 1.1,2.5 1.1,3.7 0,2.7 0.4,5.4 0.2,8.1 -9.1,-1.2 -18.1,6.1 -20.5,16.8 -2.5,11.2 3.2,22.1 12.8,24.2 1.1,0.2 2.2,0.4 3.3,0.4 3.6,0 7.1,-1.2 10.3,-3.6 1.4,-1.1 2.7,-2.4 3.9,-3.9 2.4,2.5 5.4,4.3 8.8,5.1 0.1,0.9 0.2,1.8 0.2,2.6 0,0 0,0.1 0,0.1 0,0.2 0.1,0.4 0.4,0.4 2.1,-0.1 4.1,0.1 6.2,0 1,0 2.1,-0.1 3.1,-0.1 1.1,0 2,0.1 3,0.3 0.9,0.1 1.7,0 2.6,0 1.1,0 2.2,0 3.3,-0.1 0.7,0 1.2,-0.1 1.5,-0.9 0.3,-0.7 0.2,-1.4 0,-2.1 1.3,-0.2 2.6,-0.6 3.1,-1.7 0.3,-0.6 0.3,-1.4 -0.1,-2 -0.4,-1 -1.4,-1.1 -2.3,-1.2 z m -2,-23.8 c 2.5,4 3.2,8.9 2.2,13.6 -0.7,3.3 -2.3,6.3 -4.6,8.7 -0.1,-0.2 -0.3,-0.3 -0.5,-0.4 -0.3,-0.1 -0.6,-0.1 -0.9,-0.1 0,-1.1 0,-2.2 0,-3.2 1.4,-1.7 2.4,-3.8 2.9,-6.1 0.8,-3.8 0.2,-7.8 -1.8,-11 -0.3,-0.5 -0.6,-1 -1,-1.4 0,-0.4 0,-0.8 0,-1.2 0,0 0,0 0,0 0.2,-0.4 0.3,-0.8 0.2,-1.4 -0.1,-0.7 -0.3,-1.3 -0.5,-1.9 1.6,1.1 2.9,2.6 4,4.4 z m -3.8,17.3 c 0,-5.4 0.1,-10.7 0.1,-16.1 0.1,0.2 0.2,0.4 0.4,0.5 1.9,3.1 2.5,6.9 1.7,10.5 -0.4,2 -1.2,3.7 -2.2,5.1 z m -0.6,-20.8 c 0,0.1 0.1,0.2 0.1,0.3 0.2,0.7 0.4,1.3 -0.2,1.9 -0.5,0.4 -1,0.8 -1.6,1 -1.2,0.5 -2.6,0.5 -3.9,0.4 0,-0.2 0,-0.4 0,-0.5 0,-0.5 0,-0.9 0,-1.4 1.9,0 3.9,-0.5 5.6,-1.7 z m -10.1,3.7 c 1.3,-0.4 2.5,-1 3.6,-1.8 0,0.6 0,1.1 0,1.7 0,0.3 0,0.5 -0.2,0.8 -0.2,0.3 -0.4,0.3 -0.7,0.4 -0.5,0.1 -1.1,0.3 -1.6,0.4 -0.9,0.2 -1.9,0.5 -2.8,0.7 -0.9,0.2 -1.9,0.6 -2.9,0.4 0,-0.2 0,-0.4 -0.1,-0.7 0,-0.2 0,-0.5 -0.1,-0.7 1.7,-0.5 3.3,-0.7 4.8,-1.2 z m -4.7,0.5 c 0,-0.3 -0.1,-0.7 -0.1,-1 0,0 0,0 0.1,0 1.8,-0.4 3.5,-1 5.1,-1.7 0.8,-0.3 1.6,-0.7 2.4,-1.1 0.3,-0.1 0.5,-0.3 0.7,-0.5 0,0.2 0.1,0.5 0.1,0.7 0,0.2 0,0.4 0,0.6 -1.2,0.9 -2.6,1.6 -4,2 -1.4,0.4 -2.9,0.5 -4.3,1 z m 9.4,21.2 c -0.3,-0.1 -0.6,-0.1 -0.9,-0.1 -0.4,-3.3 -0.3,-6.6 -0.1,-10 0,0 0,0 0,-0.1 0.3,3.5 0.6,6.8 1,10.2 z m -1.5,-14.9 c 0,0 0,0 0,0 0,1.7 -0.1,3.5 -0.2,5.2 -0.2,3.3 -0.3,6.5 0.1,9.8 -0.5,0.1 -1.1,0.4 -1.5,0.7 -0.5,0.4 -0.5,0.9 -0.4,1.5 -0.6,-0.1 -1.3,-0.2 -1.9,-0.1 -0.2,-1.7 -0.4,-3.4 -0.5,-5 -0.2,-1.7 -0.3,-3.4 -0.6,-5.1 -0.7,-3.5 -0.8,-7 -1.1,-10.5 0.4,-0.1 0.8,-0.2 1.2,-0.3 1.3,-0.3 2.5,-0.6 3.8,-0.9 0.3,-0.1 0.8,-0.1 1.3,-0.3 0,1.6 0,3.2 -0.1,4.9 -0.2,0 -0.2,0 -0.1,0.1 z m -7,-3.5 c 0.3,3.4 0.3,6.8 1,10.1 0.4,1.7 0.5,3.5 0.7,5.3 0.2,1.5 0.3,2.9 0.5,4.4 -0.3,0 -0.7,-0.1 -1.1,-0.1 -0.3,-3.6 -0.7,-7.3 -1,-10.9 -0.3,-2.9 -0.5,-5.8 -0.8,-8.7 0.3,-0.1 0.5,-0.1 0.7,-0.1 z m 2.3,20.5 c 0,0.1 0,0.2 0,0.3 -0.2,0.1 -0.4,0.2 -0.5,0.4 -0.2,0.2 -0.3,0.6 -0.4,0.9 0,-0.6 -0.1,-1.1 -0.1,-1.7 0.3,0.1 0.6,0.1 1,0.1 z m -0.7,4.2 c 0,-0.4 0.2,-0.8 0.2,-1.2 0.1,-0.5 0.1,-1.1 0.4,-1.6 0.4,-0.9 2.3,-0.5 3.1,-0.4 0.2,0 0.3,-0.1 0.3,-0.3 0,-0.1 0.1,-0.2 0,-0.3 -0.1,-0.6 -0.2,-1 0.3,-1.4 0.3,-0.2 0.7,-0.4 1.1,-0.5 0.3,-0.1 0.9,-0.2 1.2,0 0.2,0.2 0.2,0.7 0.3,0.9 0,0.1 0.1,0.2 0.1,0.3 0,0 0,0 0,0.1 0.4,0.9 1.1,1 2.1,1 0.8,-0.1 1.5,-0.1 2.2,-0.1 0.7,0 1.5,-0.2 2.2,0.1 1.7,0.7 -0.1,2.6 -1,2.8 -1.2,0.3 -2.5,0.3 -3.8,0.3 -1.8,0.1 -3.6,0.2 -5.5,0.2 -0.9,0.1 -2,0.1 -3.2,0.1 0,0 0,0 0,0 z m 10,-4.1 c -0.3,0 -0.6,0 -0.9,0.1 -0.6,0 -1.1,0.1 -1.3,-0.5 -0.6,-5.6 -1,-11.1 -1.7,-16.7 0,-1.7 0.1,-3.4 0.1,-5.2 0,0 0,-0.1 0,-0.1 0.2,-0.1 0.4,-0.3 0.4,-0.5 0,-0.1 0.1,-0.2 0.1,-0.4 0,0 0,0 0,0 2,0.1 4.1,0 5.7,-1.3 -0.1,7.5 -0.1,15 -0.2,22.5 -0.3,0.1 -0.6,0.2 -0.9,0.3 -0.8,0.4 -1.4,1 -1.3,1.8 z m 2.1,-28.3 c -1.6,1.2 -3.5,1.7 -5.5,1.6 0,-0.3 0,-0.6 -0.1,-1 1.9,-0.1 3.6,-0.7 5.2,-1.7 0.1,0.4 0.3,0.7 0.4,1.1 z m -9.7,-8.3 c 2.3,1 4.7,1.9 6.6,3.6 0.9,0.9 1.7,1.9 2.3,3 -1.5,1 -3.2,1.5 -5,1.6 -0.1,-0.5 -0.2,-1 -0.4,-1.4 -0.4,-0.9 -1.2,-1.6 -1.9,-2.1 -1.9,-1.4 -4.2,-2.4 -6.4,-3.3 -0.4,-0.2 -0.6,0.5 -0.2,0.7 1.9,0.7 3.7,1.6 5.5,2.7 0.8,0.5 1.6,1.1 2.1,1.8 0.2,0.4 0.4,0.7 0.5,1.1 0,0 -0.1,0.1 -0.1,0.1 -0.2,0.6 -1.1,0.9 -1.6,1.2 -0.7,0.4 -1.5,0.7 -2.3,1 -1.4,0.5 -2.8,1 -4.2,1.3 0,0 0,0 0,0 -0.1,-0.9 -0.1,-1.8 -0.2,-2.6 0,-0.7 0,-1.5 -0.3,-2.1 -0.3,-0.6 -0.7,-0.9 -1.4,-1 -0.4,0 -0.8,0 -1.1,0 -0.5,-0.1 -0.5,-0.3 -0.5,-0.7 -0.3,-1.8 -1.1,-3.5 -2.2,-4.9 -0.1,-0.2 -0.3,-0.4 -0.5,-0.5 1.2,0 2.6,-0.1 3.5,-0.8 0.4,-0.4 0.6,-0.8 0.6,-1.4 0,-0.1 0,-0.2 0,-0.4 2.5,1 4.8,2 7.2,3.1 z m -7.9,-3.9 c 0,0.8 0.2,1.7 -0.7,2.2 -0.8,0.4 -1.8,0.5 -2.7,0.5 -0.3,0 -0.6,0 -0.8,0 -0.8,-0.6 -1.8,-1 -2.9,-1.3 -0.9,-0.2 -1.8,-0.4 -2.7,-0.4 -1,0 -1.9,0.1 -2.9,-0.3 0,-0.2 0,-0.4 0,-0.7 -0.1,-1.7 -0.1,-3.5 -0.2,-5.2 -0.1,-1.2 -0.2,-2.4 -0.4,-3.7 0.5,0.7 1.1,1.3 1.8,1.9 0.9,0.8 2.4,2 3.4,0.6 0.5,-0.7 0.7,-1.6 0.9,-2.4 0.2,-1 0.4,-1.9 0.6,-2.9 0.4,-2 0.6,-3.9 0.8,-5.9 0.5,-0.1 0.9,-0.3 1.3,-0.4 1.9,-0.6 3.8,-1.3 5.5,-2.3 0.1,3.3 0.1,6.7 -0.1,10 -0.2,3.4 -0.9,6.8 -0.9,10.3 z m 1.8,-2.9 c -0.1,1.1 -0.1,2.2 -0.2,3.3 -0.2,-0.1 -0.4,-0.2 -0.6,-0.3 -0.1,0 -0.1,0 -0.2,0 0,-0.6 0,-1.3 0,-1.9 0.1,-1.6 0.3,-3.1 0.5,-4.7 1.1,0 0.5,2.9 0.5,3.6 z m 7.6,-23.4 c -1.9,3.2 -4.7,5.9 -7.6,8.3 0,-1 0,-1.9 -0.1,-2.9 1.6,-1 3,-2.2 4.1,-3.7 1.1,-1.6 1.8,-3.5 2.3,-5.4 0.6,-2.3 1.2,-4.6 2.3,-6.6 0.2,-0.3 0.6,-0.6 0.9,-0.8 0.2,3.8 0.2,7.6 -1.9,11.1 z M 311.3,376 c 0,-1.1 0.6,0.4 0.8,0.6 0.7,0.6 1.3,0.1 1.4,-0.7 0.1,-0.6 0,-1.3 0,-1.9 0,-0.3 -0.2,-1.7 0.1,-2 0.3,0.4 0.2,1.1 0.3,1.6 0,0.5 0.1,1 0.1,1.6 0,0.5 0.8,0.5 0.7,0 0,0 0,0 0,0 0.1,-0.4 0.2,-0.9 0.3,-1.3 0,-0.3 0.2,-1.5 0.4,-1.6 0.2,-0.1 0,1.3 0,1.5 -0.1,0.5 -0.2,1 -0.2,1.5 0,0.5 0.7,0.5 0.7,0 0,-0.4 0.3,-1.3 0.4,-2.2 0.5,0.4 0,1.8 -0.1,2.3 -0.1,0.5 0.6,0.7 0.7,0.2 0.1,-0.3 0.2,-0.8 0.3,-1.2 0.8,0.1 -0.6,2.7 -0.7,3 -0.4,0.6 -0.8,1.2 -1.2,1.9 -0.4,-0.1 -1,0.4 -1.3,0.7 -0.4,0.5 -0.7,0.9 -1,1.5 -0.1,0.3 -0.3,0.5 -0.4,0.8 -0.1,0.1 -0.1,0.2 -0.2,0.3 -0.2,0.3 -0.1,0.5 -0.2,0.1 0,-0.2 0,-0.4 -0.1,-0.6 0,0 0,-0.1 0,-0.1 0,-1.3 0,-2.5 -0.3,-3.7 -0.1,-0.8 -0.5,-1.6 -0.5,-2.3 z m -21.2,12.5 c -0.3,0.2 -0.4,0.4 -0.4,0.7 -0.3,0 -0.9,0 -1,0 -0.2,-0.2 0.2,-0.7 0.3,-0.9 0.1,-0.4 0,-0.4 -0.2,-0.8 -0.4,-0.7 0.3,-1.2 0.7,-1.7 0.3,-0.4 0.4,-0.8 0.3,-1.3 -0.1,-0.8 0.1,-1.3 0.8,-1.7 0.4,-0.2 0.8,-0.4 1.2,-0.7 0.5,-0.4 0.6,-1.3 1.3,-1.5 0.6,-0.2 1.2,0.2 1.8,0.2 0.4,0 0.7,0 1.1,-0.3 0.4,-0.3 0.7,-1.1 1.2,-0.9 0.3,0.1 0.5,0.6 0.9,0.8 0.3,0.2 0.7,0.2 1,0.1 0.3,-0.1 0.5,-0.2 0.8,-0.3 0.6,-0.2 1.1,0.2 1.3,0.8 0.1,0.4 0.1,0.8 0.3,1.2 0.1,0.2 0.4,0.4 0.7,0.4 0.1,0 0.2,0 0.3,0 0.5,0.2 0.7,0.4 0.5,0.8 -0.1,0.4 -0.4,0.8 -0.7,1 0,0 0,0 -0.1,0.1 -0.7,-0.2 -1.7,0.1 -2.2,0.2 -2.2,0.5 -4.3,1.7 -6.4,2.5 -0.6,0.2 -1.3,0.5 -1.9,0.7 -0.6,0.2 -1.2,0.3 -1.6,0.6 z m 12.4,-0.8 c 0,0 0,0 0,0 0,0 0,0 0,0 0,0 0,0 0,0 z m -11.8,2.9 c -0.2,-0.5 -0.5,-1.2 0.1,-1.6 0.4,-0.3 1.2,-0.4 1.7,-0.6 1,-0.4 2.1,-0.7 3.1,-1.2 1,-0.4 2.1,-0.9 3.1,-1.3 0.5,-0.2 1,-0.3 1.5,-0.5 0.5,-0.1 1.4,-0.4 1.8,-0.1 0.2,0.2 0.2,0.4 0.3,0.7 0.1,0.5 0.3,0.9 -0.3,1.2 -0.4,0.2 -1.1,0.3 -1.6,0.4 -1.1,0.3 -2.3,0.6 -3.4,0.9 -1.1,0.3 -2.2,0.6 -3.3,1 -1,0.4 -2,0.9 -3,1.1 z m 0.1,0.7 c 0.3,-0.1 0.6,-0.1 0.8,-0.2 0,0 0,0 0,0.1 0.1,0.4 0.2,0.7 0.2,1.1 -0.3,-0.1 -0.6,-0.1 -0.9,0.1 0,-0.4 -0.1,-0.8 -0.1,-1.1 z m 1.9,3.7 c -0.9,0.2 -1.5,-0.2 -1.5,-1.1 0,-0.2 0,-0.6 0.2,-0.8 0.3,-0.3 0.4,-0.1 0.7,0 0.3,0.2 0.5,-0.1 0.6,-0.3 0.1,-0.7 0,-1.3 -0.2,-1.9 0,0 0,-0.1 0,-0.1 0.5,-0.2 1,-0.4 1.5,-0.6 1.2,-0.4 2.4,-0.7 3.5,-1.1 1.2,-0.3 2.3,-0.7 3.5,-1 0.1,0 0.2,0 0.3,-0.1 0,0 -0.1,0 -0.1,0.1 -0.2,0.1 -0.2,0.3 -0.1,0.5 0.1,0.2 0.3,0.2 0.5,0.1 0.2,-0.1 0.4,-0.2 0.6,-0.2 0.1,0 0.4,-0.2 0.5,-0.1 0.1,0 0.1,0 0.2,0 0,0.1 0,0.1 0.1,0.2 0.2,0.5 0.3,1 0.4,1.5 0.2,1.1 0.3,2.3 0.2,3.4 0,0.6 0,1.2 -0.1,1.8 0,0.5 0,1.2 -0.3,1.6 -0.6,0.9 -1.9,1.1 -2.9,1.2 -1.1,0 -2.2,-0.2 -3.2,-0.6 -1.1,-0.4 -1.9,-1.1 -2.7,-1.9 -0.2,-0.2 -0.6,-0.7 -0.9,-0.9 -0.3,0.1 -0.6,0.2 -0.8,0.3 z m 6,3.9 c -1.1,0.2 -2.3,0.4 -3.4,0.6 -0.5,0.1 -0.9,0.2 -1.4,0.3 0,-1.1 0.1,-2.3 0.1,-3.4 0.1,0.1 0.1,0.2 0.2,0.2 0.4,0.4 0.8,0.8 1.2,1.1 0.9,0.6 2,0.8 3,1 0.1,0.1 0.2,0.1 0.3,0.2 0,0 0,0 0,0 z m -10.1,6.3 c 0.2,-2.5 2.1,-3.8 4.4,-4.4 2.4,-0.6 4.8,-1.1 7.2,-1.4 1.1,-0.2 2.3,-0.2 3.4,-0.4 0.7,-0.1 1.2,-0.7 1.5,-1.3 0.4,-0.8 0.6,-1.7 0.9,-2.6 0.4,-1.2 1,-2.4 1.5,-3.6 0.5,-1.1 1.1,-2.1 1.8,-3.1 0.6,-0.9 1.3,-1.7 1.8,-2.7 0.4,-1.1 0.2,-2.3 0.2,-3.4 0,-0.6 0.1,-0.2 0.2,0.2 0,0.2 0,0.5 0.1,0.7 0.1,0.2 0.4,0.4 0.6,0.4 0.8,-0.2 1.3,-1.7 1.6,-2.3 0.2,-0.3 0.4,-0.7 0.7,-1 0.3,-0.3 0.6,-0.4 0.3,0.1 -0.3,0.6 -0.7,1.2 -1.1,1.8 -0.3,0.4 0.4,0.8 0.6,0.4 0.4,-0.6 0.7,-1.1 1.1,-1.7 0.1,-0.2 0.2,-0.3 0.3,-0.5 0.3,0.1 0.4,0.4 0.2,0.7 -0.1,0.2 -0.2,0.4 -0.3,0.6 -0.3,0.4 -0.6,0.8 -0.9,1.2 -0.3,0.4 0.2,0.9 0.5,0.5 0.4,-0.5 1,-1.2 1.3,-1.8 0.4,0 -0.3,1.1 -0.3,1.1 -0.2,0.3 -0.4,0.7 -0.7,1 -0.3,0.4 0.2,0.9 0.5,0.5 0.3,-0.4 0.6,-0.8 0.9,-1.2 0,0 0.1,-0.1 0.1,-0.1 0,0 0.1,0 0.1,0 0.4,-0.1 -0.2,0.9 -0.2,1.1 -0.2,0.2 -0.4,0.4 -0.6,0.7 -0.4,0.4 -0.8,0.8 -1.2,1.2 -0.6,0.5 -1.4,0.8 -1.9,1.5 0,0 -0.1,0.1 -0.1,0.1 0,0 0,0 0,0 0,0 -0.1,0.1 -0.1,0.1 0,0 0,0.1 0,0.1 -2.4,4.4 -2.2,9.9 -6,13.6 -2,1.9 -4.6,3.1 -7.2,4 -2.4,0.9 -5.3,1.3 -7.4,2.9 -0.4,0.3 0,0.9 0.4,0.6 0.7,-0.5 1.5,-0.9 2.3,-1.3 0.1,2.4 -0.3,4.7 -1.1,6.9 -0.1,0.3 -0.2,0.5 -0.3,0.8 -0.2,0.4 -0.4,0.6 -0.8,0.3 -0.4,-0.3 -0.7,-0.8 -1,-1.1 -0.6,-0.8 -1.1,-1.8 -1.6,-2.7 -0.4,-1 -0.8,-2 -1.1,-2.9 -0.3,-1.3 -0.7,-2.4 -0.6,-3.6 z m 0.5,5 c 0.3,0.7 0.5,1.4 0.9,2.2 0.5,1 2.9,5.6 4.3,3.6 0.4,-0.5 0.6,-1.3 0.8,-1.9 0.2,-0.7 0.4,-1.5 0.6,-2.2 0.3,-1.5 0.4,-3.1 0.3,-4.6 0,0 0,-0.1 0,-0.1 0.3,-0.1 0.6,-0.2 0.9,-0.3 -0.2,3.1 -0.6,6.3 -1.6,9.2 -0.3,0.8 -0.6,2.1 -1.7,1.5 -0.5,-0.3 -1,-0.8 -1.5,-1.2 -1,-0.9 -1.8,-1.9 -2.4,-3.1 -0.2,-1 -0.5,-2 -0.6,-3.1 z m 4.4,56.9 c -4,3 -8.6,4.1 -13,3.1 -9.1,-2 -14.6,-12.5 -12.2,-23.3 2.4,-10.8 11.8,-18 20.9,-16 9.1,2 14.6,12.5 12.2,23.3 -1.1,5.3 -3.9,9.9 -7.9,12.9 z m 10,-28.9 c 0,0 0,0.1 0,0 0.1,0.8 0.2,1.5 0.2,2.3 0,0.3 0.1,0.7 0.1,1 -0.7,0 -1.4,0.1 -2.1,0.1 -0.1,0 -0.1,0 -0.2,0 -0.4,-1.2 -0.9,-2.4 -1.6,-3.4 1.3,0.1 2.4,0.1 3.6,0 z m -0.5,-1.8 c 0.4,-0.2 0.4,0.9 0.4,1 0,0 0,0 0,0.1 -0.1,0 -0.3,0 -0.4,0 0,-0.3 -0.1,-1 0,-1.1 z m -0.3,15.3 c 0,-0.4 0.1,-0.7 0.1,-1.1 h 2 c 0,0.4 0.1,0.7 0.1,1.1 z m 2.2,0.7 c 0,0 0,0 0,0 0.5,3.7 0.8,7.4 1.2,11 0,-0.1 0,-0.1 0,-0.2 -2.2,-0.8 -4.1,-2.2 -5.5,-4 0.7,-1.5 1.2,-3.2 1.6,-4.9 0.1,-0.7 0.3,-1.3 0.4,-2 h 2.3 z m -2.1,-2.5 c 0.1,-2.6 -0.3,-5.2 -1,-7.5 0.7,-0.1 1.4,-0.1 2.1,-0.1 0.2,2.1 0.4,4.1 0.6,6.2 0.1,0.5 0.1,1 0.2,1.5 h -1.9 z m -3.2,-12.4 c 0,0 0,0.1 0,0 -2.1,-3.3 -5.1,-5.7 -8.7,-6.9 0,-0.9 0,-1.7 0,-2.6 1.4,-0.3 2.7,-0.1 4.1,0.2 1.4,0.4 2.6,0.9 3.5,2.1 1.4,2.1 2,4.6 2.2,7.2 -0.4,0 -0.7,0 -1.1,0 z m -1.3,25.8 c 0.7,-1 1.4,-2.1 1.9,-3.2 1.6,1.8 3.6,3.2 5.9,4.1 0.1,1 0.2,1.9 0.3,2.9 0,0.4 0.1,0.8 0.1,1.2 -3.1,-1 -6,-2.6 -8.2,-5 z m 28.1,7.6 c -0.2,0.6 -0.8,0.5 -1.3,0.6 -0.9,0 -1.8,0 -2.7,0.1 -0.8,0 -1.7,0.1 -2.5,0 -0.8,-0.1 -1.5,-0.3 -2.3,-0.3 -1.7,0 -3.4,0.1 -5.1,0.1 -1.6,0.1 -3.2,-0.1 -4.9,0 0,-1.3 -0.3,-2.6 -0.4,-3.9 -0.3,-3.1 -0.6,-6.1 -1,-9.2 -0.6,-6.1 -1.3,-12.2 -1.9,-18.4 -0.1,-0.7 -0.2,-1.4 -0.2,-2 0,-0.6 0,-1.4 -0.4,-1.9 -0.3,-0.3 -0.8,-0.4 -1.1,-0.1 -0.5,0.4 -0.3,1.2 -0.3,1.8 -0.3,0 -0.6,0 -0.9,0 -0.1,-2.8 -0.8,-5.8 -2.6,-8 -0.9,-1.1 -2.3,-1.7 -3.7,-2 -1.5,-0.4 -3.1,-0.5 -4.6,-0.2 -0.2,0 -0.3,0.2 -0.3,0.4 0,0.9 0,1.8 0,2.7 -0.2,-0.1 -0.5,-0.1 -0.7,-0.2 -0.2,0 -0.4,-0.1 -0.6,-0.1 0.1,-1.6 0,-3.2 -0.1,-4.8 -0.1,-1.7 -0.1,-3.4 -0.2,-5 -0.1,-1.2 -0.5,-2.4 -1.6,-2.9 -1.2,-0.5 -2.9,-0.4 -4.2,-0.3 -0.2,-0.8 -0.4,-1.5 -0.1,-2.3 1.5,0 3.3,-0.3 4.6,0.4 1.3,0.6 2.2,1.9 2.4,3.3 0,0.1 0,0.1 0.1,0.2 0,0.1 0,0.2 0,0.3 0.1,2 0.1,4 0.3,6 0,0.3 0,0.5 0.1,0.7 0.2,0.1 0.4,0.2 0.7,0.3 0.2,0 0.3,0 0.5,0 1.3,0.2 2.7,0 4,0.3 1.7,0.3 3.3,1 4.4,2.3 1.1,1.3 1.8,2.9 2.2,4.6 0.1,0.4 0,1 0.4,1.3 0.4,0.4 1.2,0.1 1.7,0.2 1.2,0.1 1.2,1.1 1.3,2 0.1,0.9 0.1,1.7 0.2,2.6 0,0.3 0,0.5 0.1,0.8 0.1,0.9 0.2,1.7 0.2,2.6 0.6,6.8 1.2,13.6 1.8,20.4 0.2,2.1 0.4,4.2 0.6,6.3 0,0.1 0,0.1 0,0.2 0,0.2 0.1,0.3 0.4,0.3 3.3,-0.1 6.6,-0.2 9.9,-0.4 0,0 0,0 0,0 0.9,0.4 1.8,0.5 2.7,0.4 1.2,-0.1 2.4,-0.2 3.6,-0.4 0.4,0 0.9,-0.1 1.4,-0.1 0.2,0.2 0.3,0.8 0.1,1.3 z m 3.1,-3.7 c -0.2,0.5 -0.7,0.7 -1.2,0.9 -1,0.4 -2.2,0.5 -3.2,0.6 -1,0.1 -2,0.2 -3,0.3 0,0 -0.1,0 -0.1,0 0.5,-0.2 1,-0.5 1.5,-0.9 0.8,-0.9 0.9,-2.5 -0.4,-3.1 -0.6,-0.3 -1.4,-0.3 -2.1,-0.2 -0.4,0 -0.9,0 -1.3,0.1 -0.1,-0.8 0.9,-1.2 1.7,-1.4 0.1,0 0.2,0 0.3,-0.1 0.1,0 0.3,0 0.4,-0.1 0.9,-0.1 0.6,0.9 1.3,1.3 0.3,0.2 0.8,0.2 1.1,0.2 0.5,0.1 1,0.1 1.5,0.2 1,0.1 2.1,0.1 3,0.5 0.5,0.4 0.8,1 0.5,1.7 z"
   id="path6482" />

	<path
   d="m 333.3,365.6 c 0,0 -0.1,0 -0.1,0 -0.5,-0.1 -0.9,-0.1 -1.4,-0.1 -5.1,0 -9.2,4.1 -9.2,9.2 0,5.1 4.1,9.2 9.2,9.2 5.1,0 9.2,-4.1 9.2,-9.2 0,-4.5 -3.4,-8.3 -7.7,-9.1 z m -0.1,0.8 c 1.3,0.2 2.5,0.8 3.5,1.5 -1,0.2 -1.9,0.6 -2.7,1.2 -1.1,0.8 -2.2,1.7 -3.3,2.5 -0.6,0.5 -1.3,1.1 -2.1,1.3 0.8,-2.6 2.3,-5.1 4.6,-6.5 z m -1.5,-0.2 c 0.1,0 0.3,0 0.4,0 -2.2,1.7 -3.6,4.2 -4.3,6.9 -0.2,0 -0.5,0 -0.8,-0.1 -1.4,-0.4 -2.2,-1.7 -2.4,-3.1 1.6,-2.2 4.2,-3.7 7.1,-3.7 z m -8.5,8.5 c 0,-1.4 0.3,-2.7 0.9,-3.8 0.6,1.7 1.9,2.9 3.6,2.9 -0.1,0.7 -0.2,1.4 -0.2,2.2 -0.1,0 -0.2,0 -0.3,0 -1.3,-0.2 -2.8,-0.3 -4,-1 0,-0.1 0,-0.2 0,-0.3 z m 0.1,1.2 c 1.1,0.5 2.3,0.6 3.5,0.8 0.2,0 0.4,0.1 0.7,0.1 0,0.7 0.1,1.4 0.2,2.1 -0.1,0 -0.2,0.1 -0.3,0.1 -0.7,0.4 -1.2,1.1 -1.7,1.9 -1.2,-1.4 -2.2,-3.1 -2.4,-5 z m 3,5.4 c 0.4,-0.7 0.9,-1.4 1.5,-1.8 0.3,1.2 0.8,2.3 1.5,3.4 -1,-0.3 -2.1,-0.9 -3,-1.6 z m 5.4,1.9 c -0.4,0 -0.9,0 -1.3,-0.1 0,0 0,0 0,0 -0.9,-1.1 -1.5,-2.4 -1.9,-3.8 1,-0.2 2.1,0.4 3.1,0.8 0.9,0.4 1.8,0.8 2.7,1.1 0.8,0.2 1.6,0.3 2.4,0.4 -1.4,1.1 -3.1,1.6 -5,1.6 z m 5.8,-2.2 c -1.3,-0.1 -2.6,-0.2 -3.8,-0.7 -1.1,-0.4 -2.2,-1.1 -3.4,-1.5 -0.6,-0.2 -1.3,-0.3 -1.9,-0.2 -0.1,-0.6 -0.2,-1.2 -0.2,-1.8 1.2,0.1 2.4,0 3.6,0 2.9,-0.1 5.8,-0.5 8.4,-1.9 0,2.4 -1,4.5 -2.7,6.1 z m -5.7,-5 c -1.2,0.1 -2.4,0.1 -3.6,0.1 0,-0.8 0.1,-1.6 0.3,-2.3 0.3,-0.1 0.6,-0.2 0.8,-0.3 1.4,-0.7 2.6,-1.8 3.8,-2.7 1.3,-1 2.7,-2.2 4.5,-2.2 1.5,1.4 2.4,3.3 2.6,5.4 -2.6,1.5 -5.5,1.9 -8.4,2 z"
   id="path6484" />

	<path
   d="m 298.3,390.7 c -0.2,0.1 -0.2,0.7 0,1.3 0.2,0.7 0.5,1.2 0.7,1.1 0.2,-0.1 0.2,-0.7 0,-1.3 -0.1,-0.6 -0.5,-1.1 -0.7,-1.1 z"
   id="path6486" />

	<path
   d="m 302.7,392.1 c 0.2,-0.1 0.2,-0.7 0,-1.3 -0.2,-0.7 -0.5,-1.2 -0.7,-1.1 -0.2,0.1 -0.2,0.7 0,1.3 0.2,0.6 0.5,1.1 0.7,1.1 z"
   id="path6488" />

	<path
   d="m 301.9,393.1 c -0.1,0.2 -0.2,0.4 -0.3,0.4 -0.4,0.2 0,0.9 0.4,0.6 0.3,-0.2 0.5,-0.7 0.7,-1 0.1,-0.2 0,-0.4 -0.1,-0.5 -0.6,-0.3 -1.1,-0.6 -1.4,-1.2 -0.2,-0.4 -0.9,0 -0.6,0.4 0.3,0.6 0.8,1 1.3,1.3 z"
   id="path6490" />

	<path
   d="m 298.7,396.8 c 1.2,0.2 2.4,0 3.5,-0.7 0.4,-0.3 0,-0.9 -0.4,-0.6 -0.9,0.6 -1.9,0.8 -2.9,0.6 -0.5,-0.1 -0.7,0.6 -0.2,0.7 z"
   id="path6492" />

	<path
   d="m 296.5,390.7 c 0.4,-0.6 1.2,-0.8 1.9,-1 0.5,-0.1 0.3,-0.8 -0.2,-0.7 -0.9,0.2 -1.8,0.6 -2.3,1.4 -0.3,0.3 0.3,0.7 0.6,0.3 z"
   id="path6494" />

</g>
  </g>
</svg>
