<?xml version="1.0" encoding="utf-8"?>
<!-- Generator: Adobe Illustrator 24.0.3, SVG Export Plug-In . SVG Version: 6.00 Build 0)  -->
<svg version="1.1"
	 id="svg1110" xmlns:inkscape="http://www.inkscape.org/namespaces/inkscape" xmlns:sodipodi="http://sodipodi.sourceforge.net/DTD/sodipodi-0.dtd" xmlns:svg="http://www.w3.org/2000/svg"
	 xmlns="http://www.w3.org/2000/svg" xmlns:xlink="http://www.w3.org/1999/xlink" x="0px" y="0px" viewBox="0 0 141.7 141.7"
	 style="enable-background:new 0 0 141.7 141.7;" xml:space="preserve">
<style type="text/css">
	.st0{fill:#FF663F;}
	.st1{fill:#350073;}
	.st2{fill:#E84D2E;}
</style>
<sodipodi:namedview  bordercolor="#666666" borderopacity="1.0" fit-margin-bottom="0" fit-margin-left="0" fit-margin-right="0" fit-margin-top="0" id="namedview1112" inkscape:current-layer="layer1" inkscape:cx="319.02053" inkscape:cy="503.94429" inkscape:document-units="mm" inkscape:pagecheckerboard="0" inkscape:pageopacity="0.0" inkscape:pageshadow="2" inkscape:window-height="705" inkscape:window-maximized="1" inkscape:window-width="1366" inkscape:window-x="-8" inkscape:window-y="-8" inkscape:zoom="0.46235269" pagecolor="#ffffff" showgrid="false">
	</sodipodi:namedview>
<g id="no_x5F_button">
	
		<ellipse transform="matrix(0.7071 -0.7071 0.7071 0.7071 -29.3626 70.8564)" class="st0" cx="70.8" cy="70.9" rx="64.9" ry="64.9"/>
	<path class="st1" d="M70.8,6c35.8,0,64.9,29,64.9,64.9c0,35.8-29,64.9-64.9,64.9S6,106.7,6,70.9C6,35,35,6,70.8,6 M70.8,2
		C61.6,2,52.5,3.8,44,7.4c-8.2,3.5-15.6,8.4-21.9,14.8c-6.3,6.3-11.3,13.7-14.8,21.9C3.8,52.6,2,61.6,2,70.9
		c0,9.3,1.8,18.3,5.4,26.8c3.5,8.2,8.4,15.6,14.8,21.9c6.3,6.3,13.7,11.3,21.9,14.8c8.5,3.6,17.5,5.4,26.8,5.4s18.3-1.8,26.8-5.4
		c8.2-3.5,15.6-8.4,21.9-14.8c6.3-6.3,11.3-13.7,14.8-21.9c3.6-8.5,5.4-17.5,5.4-26.8c0-9.3-1.8-18.3-5.4-26.8
		c-3.5-8.2-8.4-15.6-14.8-21.9c-6.3-6.3-13.7-11.3-21.9-14.8C89.2,3.8,80.1,2,70.8,2L70.8,2z"/>
	<path class="st2" d="M70.8,10.4c35.1,0,63.6,27.9,64.8,62.7c0-0.7,0.1-1.5,0.1-2.2C135.7,35,106.7,6,70.8,6S6,35,6,70.9
		c0,0.7,0,1.5,0.1,2.2C7.2,38.3,35.8,10.4,70.8,10.4z"/>
	
		<ellipse transform="matrix(0.7071 -0.7071 0.7071 0.7071 -29.3626 70.8564)" class="st0" cx="70.8" cy="70.9" rx="53.5" ry="53.5"/>
</g>
<g>
	<path class="st1" d="M64.8,20.9L30.6,80.1c-2.7,4.6,0.7,10.4,6,10.4H105c5.3,0,8.7-5.8,6-10.4L76.9,20.9
		C74.2,16.2,67.5,16.2,64.8,20.9z"/>
	<path class="st1" d="M80.8,120.7H59c-5.4,0-9.7-4.4-9.7-9.7V84.6c0-5.4,4.4-9.7,9.7-9.7h21.8c5.4,0,9.7,4.4,9.7,9.7V111
		C90.6,116.4,86.2,120.7,80.8,120.7z"/>
</g>
</svg>
