<?xml version="1.0" encoding="UTF-8" standalone="no"?>
<!-- Created with Inkscape (http://www.inkscape.org/) -->

<svg
   width="32.216125mm"
   height="32.485287mm"
   viewBox="0 0 32.216125 32.485287"
   version="1.1"
   id="svg9999"
   inkscape:version="1.2.2 (732a01da63, 2022-12-09)"
   sodipodi:docname="flags_sel.svg"
   xmlns:inkscape="http://www.inkscape.org/namespaces/inkscape"
   xmlns:sodipodi="http://sodipodi.sourceforge.net/DTD/sodipodi-0.dtd"
   xmlns="http://www.w3.org/2000/svg"
   xmlns:svg="http://www.w3.org/2000/svg">
  <sodipodi:namedview
     id="namedview10001"
     pagecolor="#ffffff"
     bordercolor="#000000"
     borderopacity="0.25"
     inkscape:showpageshadow="2"
     inkscape:pageopacity="0.0"
     inkscape:pagecheckerboard="0"
     inkscape:deskcolor="#d1d1d1"
     inkscape:document-units="mm"
     showgrid="false"
     inkscape:zoom="0.46769781"
     inkscape:cx="56.660517"
     inkscape:cy="-124.0117"
     inkscape:window-width="1366"
     inkscape:window-height="705"
     inkscape:window-x="-8"
     inkscape:window-y="-8"
     inkscape:window-maximized="1"
     inkscape:current-layer="layer1" />
  <defs
     id="defs9996" />
  <g
     inkscape:label="Στρώση 1"
     inkscape:groupmode="layer"
     id="layer1"
     transform="translate(-3.5484357,-174.96879)">
    <g
       transform="matrix(0.21385968,0,0,0.21385968,3.5912076,191.2649)"
       id="g8714">
		<g
   id="g8712">
			<g
   id="g8710">
				<g
   id="Duplicate_Items_Folder_Symbol_4_0_Layer0_0_FILL_00000081647693810739387920000016970750400242393503_">
					<path
   class="st0"
   d="m 150.3,-76.1 c -0.1,-0.1 -0.2,-0.1 -0.3,-0.1 H 0.2 c -0.1,0 -0.3,0.1 -0.3,0.1 -0.1,0.1 -0.1,0.2 -0.1,0.4 V 75.2 c 0,0.1 0.1,0.3 0.1,0.4 0.1,0.1 0.2,0.1 0.3,0.1 H 150 c 0.1,0 0.3,-0.1 0.3,-0.1 0.1,-0.1 0.1,-0.2 0.1,-0.4 V -75.7 c 0.1,-0.2 0,-0.3 -0.1,-0.4 M 0.7,-75.2 H 149.4 V 74.7 H 0.7 Z"
   id="path8699"
   style="fill:#444444" />

					<path
   class="st1"
   d="M 149.5,-75.2 H 0.7 V 74.7 H 149.4 V -75.2 m -0.7,0.5 v 0.2 l 0.2,-0.2 V 73.9 H 1.7 1.5 V -74.7 Z"
   id="path8701"
   style="fill:#f8e8ce" />

					<path
   class="st2"
   d="m 142.3,-67.9 6.4,-6.5 v -0.2 H 1.5 V 73.9 H 1.7 L 8.1,67.5 V -67.9 Z"
   id="path8703"
   style="fill:#ffffff" />

					<path
   class="st3"
   d="m 142.3,-67.9 v 0 L 142.2,67.2 H 8.5 L 8.2,67.5 1.8,73.9 H 149 V -74.7 l -0.2,0.2 z"
   id="path8705"
   style="fill:#e1d3b8" />

					<path
   class="st2"
   d="m 142.2,-67.8 v 0 L 8.2,-67.9 V 67.5 l 0.3,-0.3 h 133.7 z"
   id="path8707"
   style="fill:#ffffff" />

				</g>

			</g>

		</g>

	</g>
    <g
       id="g9031"
       transform="matrix(0.26458333,0,0,0.26458333,-93.709312,111.71792)">
		<path
   class="st5"
   d="m 465.7,281.9 c -25,-14.2 -50.1,14.2 -75.1,0 0,-1.8 0,-3.5 0,-5.3 25,14.2 50.1,-14.2 75.1,0 0,1.8 0,3.5 0,5.3 z"
   id="path9007"
   style="fill:#17b3dd" />

		<path
   class="st2"
   d="m 465.7,287.2 c -25,-14.2 -50.1,14.2 -75.1,0 0,-1.8 0,-3.5 0,-5.3 25,14.2 50.1,-14.2 75.1,0 0,1.7 0,3.5 0,5.3 z"
   id="path9009"
   style="fill:#ffffff" />

		<path
   class="st5"
   d="m 465.7,292.4 c -25,-14.2 -50.1,14.2 -75.1,0 0,-1.8 0,-3.5 0,-5.3 25,14.2 50.1,-14.2 75.1,0 0,1.8 0,3.6 0,5.3 z"
   id="path9011"
   style="fill:#17b3dd" />

		<path
   class="st2"
   d="m 465.7,297.7 c -25,-14.2 -50.1,14.2 -75.1,0 0,-1.8 0,-3.5 0,-5.3 25,14.2 50.1,-14.2 75.1,0 0,1.8 0,3.5 0,5.3 z"
   id="path9013"
   style="fill:#ffffff" />

		<path
   class="st5"
   d="m 465.7,303 c -25,-14.2 -50.1,14.2 -75.1,0 0,-1.8 0,-3.5 0,-5.3 25,14.2 50.1,-14.2 75.1,0 0,1.7 0,3.5 0,5.3 z"
   id="path9015"
   style="fill:#17b3dd" />

		<path
   class="st2"
   d="m 465.7,308.2 c -25,-14.2 -50.1,14.2 -75.1,0 0,-1.8 0,-3.5 0,-5.3 25,14.2 50.1,-14.2 75.1,0 0,1.8 0,3.6 0,5.3 z"
   id="path9017"
   style="fill:#ffffff" />

		<path
   class="st5"
   d="m 465.7,313.5 c -25,-14.2 -50.1,14.2 -75.1,0 0,-1.8 0,-3.5 0,-5.3 25,14.2 50.1,-14.2 75.1,0 0,1.8 0,3.6 0,5.3 z"
   id="path9019"
   style="fill:#17b3dd" />

		<path
   class="st2"
   d="m 465.7,318.8 c -25,-14.2 -50.1,14.2 -75.1,0 0,-1.8 0,-3.5 0,-5.3 25,14.2 50.1,-14.2 75.1,0 0,1.7 0,3.5 0,5.3 z"
   id="path9021"
   style="fill:#ffffff" />

		<path
   class="st5"
   d="m 465.7,324 c -25,-14.2 -50.1,14.2 -75.1,0 0,-1.8 0,-3.5 0,-5.3 25,14.2 50.1,-14.2 75.1,0 0,1.8 0,3.6 0,5.3 z"
   id="path9023"
   style="fill:#17b3dd" />

		<path
   class="st5"
   d="m 416.3,279.6 c 0,8.8 0,17.6 0,26.4 -8.6,1.7 -17.2,1.9 -25.8,-3 0,-8.8 0,-17.6 0,-26.4 8.6,4.9 17.2,4.7 25.8,3 z"
   id="path9025"
   style="fill:#17b3dd" />

		<path
   class="st2"
   d="m 416.3,290.2 c 0,1.8 0,3.5 0,5.3 -8.6,1.7 -17.2,1.9 -25.8,-3 0,-1.8 0,-3.5 0,-5.3 8.6,4.8 17.2,4.7 25.8,3 z"
   id="path9027"
   style="fill:#ffffff" />

		<path
   class="st2"
   d="m 406,307.1 c -1.7,0 -3.4,-0.2 -5.2,-0.4 0,-8.8 0,-17.6 0,-26.4 1.7,0.3 3.4,0.4 5.2,0.4 0,8.8 0,17.6 0,26.4 z"
   id="path9029"
   style="fill:#ffffff" />

	</g>
  </g>
</svg>
