<?xml version="1.0" encoding="UTF-8" standalone="no"?>
<!-- Generator: Adobe Illustrator 27.4.0, SVG Export Plug-In . SVG Version: 6.00 Build 0)  -->

<svg
   version="1.1"
   id="svg2121"
   inkscape:version="1.2.2 (732a01da63, 2022-12-09)"
   sodipodi:docname="flowers.svg"
   x="0px"
   y="0px"
   viewBox="0 0 850.85004 481.67905"
   xml:space="preserve"
   width="850.85004"
   height="481.67905"
   xmlns:inkscape="http://www.inkscape.org/namespaces/inkscape"
   xmlns:sodipodi="http://sodipodi.sourceforge.net/DTD/sodipodi-0.dtd"
   xmlns="http://www.w3.org/2000/svg"
   xmlns:svg="http://www.w3.org/2000/svg"><defs
   id="defs11657">
	
	
	
	
	
	
	
	
	
	
	
	
	
	
	
	
	
	
	
	
	
	
	
	
	
	
	
	
	
	
	
	
	
	
	
</defs><sodipodi:namedview
   id="namedview11655"
   pagecolor="#ffffff"
   bordercolor="#000000"
   borderopacity="0.25"
   inkscape:showpageshadow="2"
   inkscape:pageopacity="0.0"
   inkscape:pagecheckerboard="0"
   inkscape:deskcolor="#d1d1d1"
   showgrid="false"
   inkscape:zoom="0.87354409"
   inkscape:cx="424.70667"
   inkscape:cy="573.52571"
   inkscape:window-width="1366"
   inkscape:window-height="705"
   inkscape:window-x="-8"
   inkscape:window-y="-8"
   inkscape:window-maximized="1"
   inkscape:current-layer="svg2121" />
<style
   type="text/css"
   id="style10473">
	.st0{fill:#444444;}
	.st1{fill:#F8E8CE;}
	.st2{fill:#FFFFFF;}
	.st3{fill:#E1D3B8;}
	.st4{fill:#F1E8DE;}
	.st5{fill:#D6A117;}
	.st6{fill:#FAC437;}
	.st7{fill:#47323B;}
	.st8{fill:#634653;}
	.st9{fill:none;stroke:#634653;stroke-miterlimit:10;}
	.st10{fill:#22A5D6;}
	.st11{fill:#269BC7;}
	.st12{fill:#32ADDB;}
	.st13{fill:#2FA3CF;}
	.st14{fill:#F8EAD3;}
	.st15{fill:#71D6FC;}
	.st16{fill:#CF2547;}
	.st17{fill:#E6294F;}
	.st18{fill:#F06297;}
	.st19{fill:#799117;}
	.st20{fill:#FE68A0;}
	.st21{fill:#FE87B3;}
	.st22{fill:#FEC1D7;}
	.st23{fill:#CF294F;}
	.st24{fill:#FFF8E1;}
	.st25{fill:#FE8EB8;}
	.st26{fill:#F777A8;}
	.st27{fill:#E8568C;}
	.st28{fill:#DED2BD;}
	.st29{fill:#B759BA;}
	.st30{fill:#9E4DA1;}
</style>
<g
   transform="matrix(0.80828857,0,0,0.80828857,-2.6673523,61.591589)"
   id="g10490">
		<g
   id="g10488">
			<g
   id="g10486">
				<g
   id="Duplicate_Items_Folder_Symbol_4_0_Layer0_0_FILL">
					<path
   class="st0"
   d="m 153.8,-76.1 c -0.1,-0.1 -0.2,-0.1 -0.3,-0.1 H 3.7 c -0.1,0 -0.3,0.1 -0.3,0.1 -0.1,0.1 -0.1,0.2 -0.1,0.4 V 75.2 c 0,0.1 0.1,0.3 0.1,0.4 0.1,0.1 0.2,0.1 0.3,0.1 h 149.7 c 0.1,0 0.3,-0.1 0.3,-0.1 0.1,-0.1 0.1,-0.2 0.1,-0.4 V -75.7 c 0.2,-0.2 0.1,-0.3 0,-0.4 M 4.2,-75.2 H 153 V 74.7 H 4.2 Z"
   id="path10475" />
					<path
   class="st1"
   d="M 153,-75.2 H 4.2 V 74.7 H 153 V -75.2 m -0.8,0.5 v 0.2 l 0.2,-0.2 V 73.9 H 5.2 5 V -74.7 Z"
   id="path10477" />
					<path
   class="st2"
   d="m 145.8,-67.9 6.4,-6.5 v -0.2 H 5 V 73.9 h 0.2 l 6.4,-6.4 V -67.9 Z"
   id="path10479" />
					<path
   class="st3"
   d="m 145.8,-67.9 v 0 L 145.7,67.2 H 12 l -0.3,0.3 -6.4,6.4 H 152.5 V -74.7 l -0.2,0.2 z"
   id="path10481" />
					<path
   class="st4"
   d="m 145.7,-67.8 v 0 l -134,-0.1 V 67.5 L 12,67.2 h 133.7 z"
   id="path10483" />
				</g>
			</g>
		</g>
	</g><g
   transform="matrix(0.80828857,0,0,0.80828857,119.78265,61.591589)"
   id="g10507">
		<g
   id="g10505">
			<g
   id="g10503">
				<g
   id="Duplicate_Items_Folder_Symbol_4_0_Layer0_0_FILL_00000103259204796297521060000009202442913214377128_">
					<path
   class="st0"
   d="m 152.7,-76.1 c -0.1,-0.1 -0.2,-0.1 -0.3,-0.1 H 2.6 c -0.1,0 -0.3,0.1 -0.3,0.1 -0.1,0.1 -0.1,0.2 -0.1,0.4 V 75.2 c 0,0.1 0.1,0.3 0.1,0.4 0.1,0.1 0.2,0.1 0.3,0.1 h 149.7 c 0.1,0 0.3,-0.1 0.3,-0.1 0.1,-0.1 0.1,-0.2 0.1,-0.4 V -75.7 c 0.1,-0.2 0.1,-0.3 0,-0.4 M 3.1,-75.2 H 151.8 V 74.7 H 3.1 Z"
   id="path10492" />
					<path
   class="st1"
   d="M 151.8,-75.2 H 3.1 V 74.7 H 151.8 V -75.2 m -0.7,0.5 v 0.2 l 0.2,-0.2 V 73.9 H 4.1 3.8 V -74.7 Z"
   id="path10494" />
					<path
   class="st2"
   d="m 144.7,-67.9 6.4,-6.5 v -0.2 H 3.8 V 73.9 H 4 l 6.4,-6.4 V -67.9 Z"
   id="path10496" />
					<path
   class="st3"
   d="m 144.7,-67.9 v 0 L 144.6,67.2 H 10.9 l -0.3,0.3 -6.4,6.4 H 151.4 V -74.7 l -0.2,0.2 z"
   id="path10498" />
					<path
   class="st4"
   d="m 144.6,-67.8 v 0 L 10.5,-67.9 V 67.5 l 0.3,-0.3 h 133.7 v -135 z"
   id="path10500" />
				</g>
			</g>
		</g>
	</g><g
   transform="matrix(0.80828857,0,0,0.80828857,242.23265,61.591589)"
   id="g10524">
		<g
   id="g10522">
			<g
   id="g10520">
				<g
   id="Duplicate_Items_Folder_Symbol_4_0_Layer0_0_FILL_00000150095661800686720220000007911614582640425606_">
					<path
   class="st0"
   d="m 151.5,-76.1 c -0.1,-0.1 -0.2,-0.1 -0.3,-0.1 H 1.4 c -0.1,0 -0.3,0.1 -0.3,0.1 -0.1,0.1 -0.2,0.2 -0.2,0.4 V 75.2 c 0,0.1 0.1,0.3 0.1,0.4 0.1,0.1 0.2,0.1 0.3,0.1 H 151 c 0.1,0 0.3,-0.1 0.3,-0.1 0.1,-0.1 0.1,-0.2 0.1,-0.4 V -75.7 c 0.2,-0.2 0.2,-0.3 0.1,-0.4 M 1.9,-75.2 H 150.6 V 74.7 H 1.9 Z"
   id="path10509" />
					<path
   class="st1"
   d="M 150.6,-75.2 H 1.9 V 74.7 H 150.6 V -75.2 m -0.7,0.5 v 0.2 l 0.2,-0.2 V 73.9 H 2.9 2.6 V -74.7 Z"
   id="path10511" />
					<path
   class="st2"
   d="m 143.5,-67.9 6.4,-6.5 v -0.2 H 2.6 V 73.9 H 2.8 L 9.2,67.5 V -67.9 Z"
   id="path10513" />
					<path
   class="st3"
   d="m 143.5,-67.9 v 0 L 143.4,67.2 H 9.7 L 9.4,67.5 3,73.9 H 150.2 V -74.7 l -0.2,0.2 z"
   id="path10515" />
					<path
   class="st4"
   d="m 143.4,-67.8 v 0 L 9.3,-67.9 V 67.5 l 0.3,-0.3 h 133.7 v -135 z"
   id="path10517" />
				</g>
			</g>
		</g>
	</g><g
   transform="matrix(0.80828857,0,0,0.80828857,364.68265,61.591589)"
   id="g10541">
		<g
   id="g10539">
			<g
   id="g10537">
				<g
   id="Duplicate_Items_Folder_Symbol_4_0_Layer0_0_FILL_00000028327254553976565370000015109165849768636837_">
					<path
   class="st0"
   d="m 150.3,-76.1 c -0.1,-0.1 -0.2,-0.1 -0.3,-0.1 H 0.2 c -0.1,0 -0.3,0.1 -0.3,0.1 -0.1,0.1 -0.1,0.2 -0.1,0.4 V 75.2 c 0,0.1 0.1,0.3 0.1,0.4 0.1,0.1 0.2,0.1 0.3,0.1 H 150 c 0.1,0 0.3,-0.1 0.3,-0.1 0.1,-0.1 0.1,-0.2 0.1,-0.4 V -75.7 c 0.1,-0.2 0,-0.3 -0.1,-0.4 M 0.7,-75.2 H 149.4 V 74.7 H 0.7 Z"
   id="path10526" />
					<path
   class="st1"
   d="M 149.5,-75.2 H 0.7 V 74.7 H 149.4 V -75.2 m -0.7,0.5 v 0.2 l 0.2,-0.2 V 73.9 H 1.7 1.5 V -74.7 Z"
   id="path10528" />
					<path
   class="st2"
   d="m 142.3,-67.9 6.4,-6.5 v -0.2 H 1.5 V 73.9 H 1.7 L 8.1,67.5 V -67.9 Z"
   id="path10530" />
					<path
   class="st3"
   d="m 142.3,-67.9 v 0 L 142.2,67.2 H 8.5 L 8.2,67.5 1.8,73.9 H 149 V -74.7 l -0.2,0.2 z"
   id="path10532" />
					<path
   class="st4"
   d="m 142.2,-67.8 v 0 L 8.2,-67.9 V 67.5 l 0.3,-0.3 h 133.7 z"
   id="path10534" />
				</g>
			</g>
		</g>
	</g><g
   transform="matrix(0.80828857,0,0,0.80828857,487.13265,61.591589)"
   id="g10558">
		<g
   id="g10556">
			<g
   id="g10554">
				<g
   id="Duplicate_Items_Folder_Symbol_4_0_Layer0_0_FILL_00000076581959032475639530000008960199103215055039_">
					<path
   class="st0"
   d="m 149.1,-76.1 c -0.1,-0.1 -0.2,-0.1 -0.3,-0.1 H -0.9 c -0.1,0 -0.3,0.1 -0.3,0.1 -0.1,0.1 -0.1,0.2 -0.1,0.4 V 75.2 c 0,0.1 0.1,0.3 0.1,0.4 0.1,0.1 0.2,0.1 0.3,0.1 h 149.7 c 0.1,0 0.3,-0.1 0.3,-0.1 0.1,-0.1 0.1,-0.2 0.1,-0.4 V -75.7 c 0.1,-0.2 0,-0.3 -0.1,-0.4 M -0.4,-75.2 H 148.3 V 74.7 H -0.4 Z"
   id="path10543" />
					<path
   class="st1"
   d="M 148.3,-75.2 H -0.4 V 74.7 H 148.3 V -75.2 m -0.7,0.5 v 0.2 l 0.2,-0.2 V 73.9 H 0.5 0.3 V -74.7 Z"
   id="path10545" />
					<path
   class="st2"
   d="m 141.2,-67.9 6.4,-6.5 v -0.2 H 0.3 V 73.9 H 0.5 L 7,67.5 V -67.9 Z"
   id="path10547" />
					<path
   class="st3"
   d="m 141.2,-67.9 v 0 L 141.1,67.2 H 7.3 L 7,67.5 0.6,73.9 H 147.8 V -74.7 l -0.2,0.2 z"
   id="path10549" />
					<path
   class="st4"
   d="m 141.1,-67.8 v 0 L 7,-67.9 V 67.5 L 7.3,67.2 H 141 v -135 z"
   id="path10551" />
				</g>
			</g>
		</g>
	</g><g
   transform="matrix(0.80828857,0,0,0.80828857,609.58265,61.591589)"
   id="g10575">
		<g
   id="g10573">
			<g
   id="g10571">
				<g
   id="Duplicate_Items_Folder_Symbol_4_0_Layer0_0_FILL_00000080896063043282772020000008342106817347203775_">
					<path
   class="st0"
   d="m 148,-76.1 c -0.1,-0.1 -0.2,-0.1 -0.3,-0.1 H -2.1 c -0.1,0 -0.3,0.1 -0.3,0.1 -0.1,0.1 -0.1,0.2 -0.1,0.4 V 75.2 c 0,0.1 0.1,0.3 0.1,0.4 0.1,0.1 0.2,0.1 0.3,0.1 h 149.7 c 0.1,0 0.3,-0.1 0.3,-0.1 0.1,-0.1 0.1,-0.2 0.1,-0.4 V -75.7 c 0.1,-0.2 0.1,-0.3 0,-0.4 M -1.6,-75.2 H 147.1 V 74.7 H -1.6 Z"
   id="path10560" />
					<path
   class="st1"
   d="M 147.1,-75.2 H -1.6 V 74.7 H 147.1 V -75.2 m -0.7,0.5 v 0.2 l 0.2,-0.2 V 73.9 H -0.6 -0.8 V -74.7 Z"
   id="path10562" />
					<path
   class="st2"
   d="m 140,-67.9 6.4,-6.5 v -0.2 H -0.9 V 73.9 h 0.2 L 5.7,67.5 V -67.9 Z"
   id="path10564" />
					<path
   class="st3"
   d="m 140,-67.9 v 0 L 139.9,67.2 H 6.2 l -0.3,0.3 -6.4,6.4 H 146.7 V -74.7 l -0.2,0.2 z"
   id="path10566" />
					<path
   class="st4"
   d="m 139.9,-67.8 v 0 L 5.8,-67.9 V 67.5 l 0.3,-0.3 h 133.7 v -135 z"
   id="path10568" />
				</g>
			</g>
		</g>
	</g><g
   transform="matrix(0.80828857,0,0,0.80828857,732.13265,61.591589)"
   id="g10592">
		<g
   id="g10590">
			<g
   id="g10588">
				<g
   id="Duplicate_Items_Folder_Symbol_4_0_Layer0_0_FILL_00000082327849748842702370000000482010199518088854_">
					<path
   class="st0"
   d="m 146.8,-76.1 c -0.1,-0.1 -0.2,-0.1 -0.3,-0.1 H -3.3 c -0.1,0 -0.3,0.1 -0.3,0.1 -0.1,0.1 -0.1,0.2 -0.1,0.4 V 75.2 c 0,0.1 0.1,0.3 0.1,0.4 0.1,0.1 0.2,0.1 0.3,0.1 h 149.7 c 0.1,0 0.3,-0.1 0.3,-0.1 0.1,-0.1 0.1,-0.2 0.1,-0.4 V -75.7 c 0.1,-0.2 0.1,-0.3 0,-0.4 M -2.8,-75.2 H 146 V 74.7 H -2.8 Z"
   id="path10577" />
					<path
   class="st1"
   d="M 146,-75.2 H -2.8 V 74.7 H 146 V -75.2 m -0.8,0.5 v 0.2 l 0.2,-0.2 V 73.9 H -1.8 -2 V -74.7 Z"
   id="path10579" />
					<path
   class="st2"
   d="m 138.8,-67.9 6.4,-6.5 v -0.2 H -2 V 73.9 h 0.2 L 4.6,67.5 V -67.9 Z"
   id="path10581" />
					<path
   class="st3"
   d="m 138.8,-67.9 v 0 L 138.7,67.2 H 5 l -0.3,0.3 -6.4,6.4 H 145.5 V -74.7 l -0.2,0.2 z"
   id="path10583" />
					<path
   class="st4"
   d="m 138.7,-67.8 v 0 L 4.7,-67.9 V 67.5 L 5,67.2 h 133.7 z"
   id="path10585" />
				</g>
			</g>
		</g>
	</g><g
   transform="matrix(0.80828857,0,0,0.80828857,-2.6673523,181.24159)"
   id="g10609">
		<g
   id="g10607">
			<g
   id="g10605">
				<g
   id="Duplicate_Items_Folder_Symbol_4_0_Layer0_0_FILL_00000108995129806447714850000012967377881701300396_">
					<path
   class="st0"
   d="m 153.8,-76.1 c -0.1,-0.1 -0.2,-0.1 -0.3,-0.1 H 3.7 c -0.1,0 -0.3,0.1 -0.3,0.1 -0.1,0.1 -0.1,0.2 -0.1,0.4 V 75.2 c 0,0.1 0.1,0.3 0.1,0.4 0.1,0.1 0.2,0.1 0.3,0.1 h 149.7 c 0.1,0 0.3,-0.1 0.3,-0.1 0.1,-0.1 0.1,-0.2 0.1,-0.4 V -75.7 c 0.2,-0.2 0.1,-0.3 0,-0.4 M 4.2,-75.2 H 153 V 74.7 H 4.2 Z"
   id="path10594" />
					<path
   class="st1"
   d="M 153,-75.2 H 4.2 V 74.7 H 153 V -75.2 m -0.8,0.5 v 0.2 l 0.2,-0.2 V 73.9 H 5.2 5 V -74.7 Z"
   id="path10596" />
					<path
   class="st2"
   d="m 145.8,-67.9 6.4,-6.5 v -0.2 H 5 V 73.9 h 0.2 l 6.4,-6.4 V -67.9 Z"
   id="path10598" />
					<path
   class="st3"
   d="m 145.8,-67.9 v 0 L 145.7,67.2 H 12 l -0.3,0.3 -6.4,6.4 H 152.5 V -74.7 l -0.2,0.2 z"
   id="path10600" />
					<path
   class="st4"
   d="m 145.7,-67.8 v 0 l -134,-0.1 V 67.5 L 12,67.2 h 133.7 z"
   id="path10602" />
				</g>
			</g>
		</g>
	</g><g
   transform="matrix(0.80828857,0,0,0.80828857,119.78265,181.24159)"
   id="g10626">
		<g
   id="g10624">
			<g
   id="g10622">
				<g
   id="Duplicate_Items_Folder_Symbol_4_0_Layer0_0_FILL_00000131346542553011193890000012865089029935732367_">
					<path
   class="st0"
   d="m 152.7,-76.1 c -0.1,-0.1 -0.2,-0.1 -0.3,-0.1 H 2.6 c -0.1,0 -0.3,0.1 -0.3,0.1 -0.1,0.1 -0.1,0.2 -0.1,0.4 V 75.2 c 0,0.1 0.1,0.3 0.1,0.4 0.1,0.1 0.2,0.1 0.3,0.1 h 149.7 c 0.1,0 0.3,-0.1 0.3,-0.1 0.1,-0.1 0.1,-0.2 0.1,-0.4 V -75.7 c 0.1,-0.2 0.1,-0.3 0,-0.4 M 3.1,-75.2 H 151.8 V 74.7 H 3.1 Z"
   id="path10611" />
					<path
   class="st1"
   d="M 151.8,-75.2 H 3.1 V 74.7 H 151.8 V -75.2 m -0.7,0.5 v 0.2 l 0.2,-0.2 V 73.9 H 4.1 3.8 V -74.7 Z"
   id="path10613" />
					<path
   class="st2"
   d="m 144.7,-67.9 6.4,-6.5 v -0.2 H 3.8 V 73.9 H 4 l 6.4,-6.4 V -67.9 Z"
   id="path10615" />
					<path
   class="st3"
   d="m 144.7,-67.9 v 0 L 144.6,67.2 H 10.9 l -0.3,0.3 -6.4,6.4 H 151.4 V -74.7 l -0.2,0.2 z"
   id="path10617" />
					<path
   class="st4"
   d="m 144.6,-67.8 v 0 L 10.5,-67.9 V 67.5 l 0.3,-0.3 h 133.7 v -135 z"
   id="path10619" />
				</g>
			</g>
		</g>
	</g><g
   transform="matrix(0.80828857,0,0,0.80828857,242.23265,181.24159)"
   id="g10643">
		<g
   id="g10641">
			<g
   id="g10639">
				<g
   id="Duplicate_Items_Folder_Symbol_4_0_Layer0_0_FILL_00000033357865755669866100000007837339411294685336_">
					<path
   class="st0"
   d="m 151.5,-76.1 c -0.1,-0.1 -0.2,-0.1 -0.3,-0.1 H 1.4 c -0.1,0 -0.3,0.1 -0.3,0.1 -0.1,0.1 -0.2,0.2 -0.2,0.4 V 75.2 c 0,0.1 0.1,0.3 0.1,0.4 0.1,0.1 0.2,0.1 0.3,0.1 H 151 c 0.1,0 0.3,-0.1 0.3,-0.1 0.1,-0.1 0.1,-0.2 0.1,-0.4 V -75.7 c 0.2,-0.2 0.2,-0.3 0.1,-0.4 M 1.9,-75.2 H 150.6 V 74.7 H 1.9 Z"
   id="path10628" />
					<path
   class="st1"
   d="M 150.6,-75.2 H 1.9 V 74.7 H 150.6 V -75.2 m -0.7,0.5 v 0.2 l 0.2,-0.2 V 73.9 H 2.9 2.6 V -74.7 Z"
   id="path10630" />
					<path
   class="st2"
   d="m 143.5,-67.9 6.4,-6.5 v -0.2 H 2.6 V 73.9 H 2.8 L 9.2,67.5 V -67.9 Z"
   id="path10632" />
					<path
   class="st3"
   d="m 143.5,-67.9 v 0 L 143.4,67.2 H 9.7 L 9.4,67.5 3,73.9 H 150.2 V -74.7 l -0.2,0.2 z"
   id="path10634" />
					<path
   class="st4"
   d="m 143.4,-67.8 v 0 L 9.3,-67.9 V 67.5 l 0.3,-0.3 h 133.7 v -135 z"
   id="path10636" />
				</g>
			</g>
		</g>
	</g><g
   transform="matrix(0.80828857,0,0,0.80828857,364.68265,181.24159)"
   id="g10660">
		<g
   id="g10658">
			<g
   id="g10656">
				<g
   id="Duplicate_Items_Folder_Symbol_4_0_Layer0_0_FILL_00000145737734372285428120000000098250607328028847_">
					<path
   class="st0"
   d="m 150.3,-76.1 c -0.1,-0.1 -0.2,-0.1 -0.3,-0.1 H 0.2 c -0.1,0 -0.3,0.1 -0.3,0.1 -0.1,0.1 -0.1,0.2 -0.1,0.4 V 75.2 c 0,0.1 0.1,0.3 0.1,0.4 0.1,0.1 0.2,0.1 0.3,0.1 H 150 c 0.1,0 0.3,-0.1 0.3,-0.1 0.1,-0.1 0.1,-0.2 0.1,-0.4 V -75.7 c 0.1,-0.2 0,-0.3 -0.1,-0.4 M 0.7,-75.2 H 149.4 V 74.7 H 0.7 Z"
   id="path10645" />
					<path
   class="st1"
   d="M 149.5,-75.2 H 0.7 V 74.7 H 149.4 V -75.2 m -0.7,0.5 v 0.2 l 0.2,-0.2 V 73.9 H 1.7 1.5 V -74.7 Z"
   id="path10647" />
					<path
   class="st2"
   d="m 142.3,-67.9 6.4,-6.5 v -0.2 H 1.5 V 73.9 H 1.7 L 8.1,67.5 V -67.9 Z"
   id="path10649" />
					<path
   class="st3"
   d="m 142.3,-67.9 v 0 L 142.2,67.2 H 8.5 L 8.2,67.5 1.8,73.9 H 149 V -74.7 l -0.2,0.2 z"
   id="path10651" />
					<path
   class="st4"
   d="m 142.2,-67.8 v 0 L 8.2,-67.9 V 67.5 l 0.3,-0.3 h 133.7 z"
   id="path10653" />
				</g>
			</g>
		</g>
	</g><g
   transform="matrix(0.80828857,0,0,0.80828857,487.13265,181.24159)"
   id="g10677">
		<g
   id="g10675">
			<g
   id="g10673">
				<g
   id="Duplicate_Items_Folder_Symbol_4_0_Layer0_0_FILL_00000048483184921922657120000003251561539696903040_">
					<path
   class="st0"
   d="m 149.1,-76.1 c -0.1,-0.1 -0.2,-0.1 -0.3,-0.1 H -0.9 c -0.1,0 -0.3,0.1 -0.3,0.1 -0.1,0.1 -0.1,0.2 -0.1,0.4 V 75.2 c 0,0.1 0.1,0.3 0.1,0.4 0.1,0.1 0.2,0.1 0.3,0.1 h 149.7 c 0.1,0 0.3,-0.1 0.3,-0.1 0.1,-0.1 0.1,-0.2 0.1,-0.4 V -75.7 c 0.1,-0.2 0,-0.3 -0.1,-0.4 M -0.4,-75.2 H 148.3 V 74.7 H -0.4 Z"
   id="path10662" />
					<path
   class="st1"
   d="M 148.3,-75.2 H -0.4 V 74.7 H 148.3 V -75.2 m -0.7,0.5 v 0.2 l 0.2,-0.2 V 73.9 H 0.5 0.3 V -74.7 Z"
   id="path10664" />
					<path
   class="st2"
   d="m 141.2,-67.9 6.4,-6.5 v -0.2 H 0.3 V 73.9 H 0.5 L 7,67.5 V -67.9 Z"
   id="path10666" />
					<path
   class="st3"
   d="m 141.2,-67.9 v 0 L 141.1,67.2 H 7.3 L 7,67.5 0.6,73.9 H 147.8 V -74.7 l -0.2,0.2 z"
   id="path10668" />
					<path
   class="st4"
   d="m 141.1,-67.8 v 0 L 7,-67.9 V 67.5 L 7.3,67.2 H 141 v -135 z"
   id="path10670" />
				</g>
			</g>
		</g>
	</g><g
   transform="matrix(0.80828857,0,0,0.80828857,609.58265,181.24159)"
   id="g10694">
		<g
   id="g10692">
			<g
   id="g10690">
				<g
   id="Duplicate_Items_Folder_Symbol_4_0_Layer0_0_FILL_00000098217089594599827130000007504543668754962354_">
					<path
   class="st0"
   d="m 148,-76.1 c -0.1,-0.1 -0.2,-0.1 -0.3,-0.1 H -2.1 c -0.1,0 -0.3,0.1 -0.3,0.1 -0.1,0.1 -0.1,0.2 -0.1,0.4 V 75.2 c 0,0.1 0.1,0.3 0.1,0.4 0.1,0.1 0.2,0.1 0.3,0.1 h 149.7 c 0.1,0 0.3,-0.1 0.3,-0.1 0.1,-0.1 0.1,-0.2 0.1,-0.4 V -75.7 c 0.1,-0.2 0.1,-0.3 0,-0.4 M -1.6,-75.2 H 147.1 V 74.7 H -1.6 Z"
   id="path10679" />
					<path
   class="st1"
   d="M 147.1,-75.2 H -1.6 V 74.7 H 147.1 V -75.2 m -0.7,0.5 v 0.2 l 0.2,-0.2 V 73.9 H -0.6 -0.8 V -74.7 Z"
   id="path10681" />
					<path
   class="st2"
   d="m 140,-67.9 6.4,-6.5 v -0.2 H -0.9 V 73.9 h 0.2 L 5.7,67.5 V -67.9 Z"
   id="path10683" />
					<path
   class="st3"
   d="m 140,-67.9 v 0 L 139.9,67.2 H 6.2 l -0.3,0.3 -6.4,6.4 H 146.7 V -74.7 l -0.2,0.2 z"
   id="path10685" />
					<path
   class="st4"
   d="m 139.9,-67.8 v 0 L 5.8,-67.9 V 67.5 l 0.3,-0.3 h 133.7 v -135 z"
   id="path10687" />
				</g>
			</g>
		</g>
	</g><g
   transform="matrix(0.80828857,0,0,0.80828857,732.13265,181.24159)"
   id="g10711">
		<g
   id="g10709">
			<g
   id="g10707">
				<g
   id="Duplicate_Items_Folder_Symbol_4_0_Layer0_0_FILL_00000048482115052319978770000006072974825167757704_">
					<path
   class="st0"
   d="m 146.8,-76.1 c -0.1,-0.1 -0.2,-0.1 -0.3,-0.1 H -3.3 c -0.1,0 -0.3,0.1 -0.3,0.1 -0.1,0.1 -0.1,0.2 -0.1,0.4 V 75.2 c 0,0.1 0.1,0.3 0.1,0.4 0.1,0.1 0.2,0.1 0.3,0.1 h 149.7 c 0.1,0 0.3,-0.1 0.3,-0.1 0.1,-0.1 0.1,-0.2 0.1,-0.4 V -75.7 c 0.1,-0.2 0.1,-0.3 0,-0.4 M -2.8,-75.2 H 146 V 74.7 H -2.8 Z"
   id="path10696" />
					<path
   class="st1"
   d="M 146,-75.2 H -2.8 V 74.7 H 146 V -75.2 m -0.8,0.5 v 0.2 l 0.2,-0.2 V 73.9 H -1.8 -2 V -74.7 Z"
   id="path10698" />
					<path
   class="st2"
   d="m 138.8,-67.9 6.4,-6.5 v -0.2 H -2 V 73.9 h 0.2 L 4.6,67.5 V -67.9 Z"
   id="path10700" />
					<path
   class="st3"
   d="m 138.8,-67.9 v 0 L 138.7,67.2 H 5 l -0.3,0.3 -6.4,6.4 H 145.5 V -74.7 l -0.2,0.2 z"
   id="path10702" />
					<path
   class="st4"
   d="m 138.7,-67.8 v 0 L 4.7,-67.9 V 67.5 L 5,67.2 h 133.7 z"
   id="path10704" />
				</g>
			</g>
		</g>
	</g><g
   transform="matrix(0.80828857,0,0,0.80828857,-2.6673523,300.84159)"
   id="g10728">
		<g
   id="g10726">
			<g
   id="g10724">
				<g
   id="Duplicate_Items_Folder_Symbol_4_0_Layer0_0_FILL_00000127024286884559174220000004834808001671814819_">
					<path
   class="st0"
   d="m 153.8,-76.1 c -0.1,-0.1 -0.2,-0.1 -0.3,-0.1 H 3.7 c -0.1,0 -0.3,0.1 -0.3,0.1 -0.1,0.1 -0.1,0.2 -0.1,0.4 V 75.2 c 0,0.1 0.1,0.3 0.1,0.4 0.1,0.1 0.2,0.1 0.3,0.1 h 149.7 c 0.1,0 0.3,-0.1 0.3,-0.1 0.1,-0.1 0.1,-0.2 0.1,-0.4 V -75.7 c 0.2,-0.2 0.1,-0.3 0,-0.4 M 4.2,-75.2 H 153 V 74.7 H 4.2 Z"
   id="path10713" />
					<path
   class="st1"
   d="M 153,-75.2 H 4.2 V 74.7 H 153 V -75.2 m -0.8,0.5 v 0.2 l 0.2,-0.2 V 73.9 H 5.2 5 V -74.7 Z"
   id="path10715" />
					<path
   class="st2"
   d="m 145.8,-67.9 6.4,-6.5 v -0.2 H 5 V 73.9 h 0.2 l 6.4,-6.4 V -67.9 Z"
   id="path10717" />
					<path
   class="st3"
   d="m 145.8,-67.9 v 0 L 145.7,67.2 H 12 l -0.3,0.3 -6.4,6.4 H 152.5 V -74.7 l -0.2,0.2 z"
   id="path10719" />
					<path
   class="st4"
   d="m 145.7,-67.8 v 0 l -134,-0.1 V 67.5 L 12,67.2 h 133.7 z"
   id="path10721" />
				</g>
			</g>
		</g>
	</g><g
   transform="matrix(0.80828857,0,0,0.80828857,119.78265,300.84159)"
   id="g10745">
		<g
   id="g10743">
			<g
   id="g10741">
				<g
   id="Duplicate_Items_Folder_Symbol_4_0_Layer0_0_FILL_00000020380242139765454840000014868946191386986166_">
					<path
   class="st0"
   d="m 152.7,-76.1 c -0.1,-0.1 -0.2,-0.1 -0.3,-0.1 H 2.6 c -0.1,0 -0.3,0.1 -0.3,0.1 -0.1,0.1 -0.1,0.2 -0.1,0.4 V 75.2 c 0,0.1 0.1,0.3 0.1,0.4 0.1,0.1 0.2,0.1 0.3,0.1 h 149.7 c 0.1,0 0.3,-0.1 0.3,-0.1 0.1,-0.1 0.1,-0.2 0.1,-0.4 V -75.7 c 0.1,-0.2 0.1,-0.3 0,-0.4 M 3.1,-75.2 H 151.8 V 74.7 H 3.1 Z"
   id="path10730" />
					<path
   class="st1"
   d="M 151.8,-75.2 H 3.1 V 74.7 H 151.8 V -75.2 m -0.7,0.5 v 0.2 l 0.2,-0.2 V 73.9 H 4.1 3.8 V -74.7 Z"
   id="path10732" />
					<path
   class="st2"
   d="m 144.7,-67.9 6.4,-6.5 v -0.2 H 3.8 V 73.9 H 4 l 6.4,-6.4 V -67.9 Z"
   id="path10734" />
					<path
   class="st3"
   d="m 144.7,-67.9 v 0 L 144.6,67.2 H 10.9 l -0.3,0.3 -6.4,6.4 H 151.4 V -74.7 l -0.2,0.2 z"
   id="path10736" />
					<path
   class="st4"
   d="m 144.6,-67.8 v 0 L 10.5,-67.9 V 67.5 l 0.3,-0.3 h 133.7 v -135 z"
   id="path10738" />
				</g>
			</g>
		</g>
	</g><g
   transform="matrix(0.80828857,0,0,0.80828857,242.23265,300.84159)"
   id="g10762">
		<g
   id="g10760">
			<g
   id="g10758">
				<g
   id="Duplicate_Items_Folder_Symbol_4_0_Layer0_0_FILL_00000143589691710794000380000001467482418706008745_">
					<path
   class="st0"
   d="m 151.5,-76.1 c -0.1,-0.1 -0.2,-0.1 -0.3,-0.1 H 1.4 c -0.1,0 -0.3,0.1 -0.3,0.1 -0.1,0.1 -0.2,0.2 -0.2,0.4 V 75.2 c 0,0.1 0.1,0.3 0.1,0.4 0.1,0.1 0.2,0.1 0.3,0.1 H 151 c 0.1,0 0.3,-0.1 0.3,-0.1 0.1,-0.1 0.1,-0.2 0.1,-0.4 V -75.7 c 0.2,-0.2 0.2,-0.3 0.1,-0.4 M 1.9,-75.2 H 150.6 V 74.7 H 1.9 Z"
   id="path10747" />
					<path
   class="st1"
   d="M 150.6,-75.2 H 1.9 V 74.7 H 150.6 V -75.2 m -0.7,0.5 v 0.2 l 0.2,-0.2 V 73.9 H 2.9 2.6 V -74.7 Z"
   id="path10749" />
					<path
   class="st2"
   d="m 143.5,-67.9 6.4,-6.5 v -0.2 H 2.6 V 73.9 H 2.8 L 9.2,67.5 V -67.9 Z"
   id="path10751" />
					<path
   class="st3"
   d="m 143.5,-67.9 v 0 L 143.4,67.2 H 9.7 L 9.4,67.5 3,73.9 H 150.2 V -74.7 l -0.2,0.2 z"
   id="path10753" />
					<path
   class="st4"
   d="m 143.4,-67.8 v 0 L 9.3,-67.9 V 67.5 l 0.3,-0.3 h 133.7 v -135 z"
   id="path10755" />
				</g>
			</g>
		</g>
	</g><g
   transform="matrix(0.80828857,0,0,0.80828857,364.68265,300.84159)"
   id="g10779">
		<g
   id="g10777">
			<g
   id="g10775">
				<g
   id="Duplicate_Items_Folder_Symbol_4_0_Layer0_0_FILL_00000081647693810739387920000016970750400242393503_">
					<path
   class="st0"
   d="m 150.3,-76.1 c -0.1,-0.1 -0.2,-0.1 -0.3,-0.1 H 0.2 c -0.1,0 -0.3,0.1 -0.3,0.1 -0.1,0.1 -0.1,0.2 -0.1,0.4 V 75.2 c 0,0.1 0.1,0.3 0.1,0.4 0.1,0.1 0.2,0.1 0.3,0.1 H 150 c 0.1,0 0.3,-0.1 0.3,-0.1 0.1,-0.1 0.1,-0.2 0.1,-0.4 V -75.7 c 0.1,-0.2 0,-0.3 -0.1,-0.4 M 0.7,-75.2 H 149.4 V 74.7 H 0.7 Z"
   id="path10764" />
					<path
   class="st1"
   d="M 149.5,-75.2 H 0.7 V 74.7 H 149.4 V -75.2 m -0.7,0.5 v 0.2 l 0.2,-0.2 V 73.9 H 1.7 1.5 V -74.7 Z"
   id="path10766" />
					<path
   class="st2"
   d="m 142.3,-67.9 6.4,-6.5 v -0.2 H 1.5 V 73.9 H 1.7 L 8.1,67.5 V -67.9 Z"
   id="path10768" />
					<path
   class="st3"
   d="m 142.3,-67.9 v 0 L 142.2,67.2 H 8.5 L 8.2,67.5 1.8,73.9 H 149 V -74.7 l -0.2,0.2 z"
   id="path10770" />
					<path
   class="st4"
   d="m 142.2,-67.8 v 0 L 8.2,-67.9 V 67.5 l 0.3,-0.3 h 133.7 z"
   id="path10772" />
				</g>
			</g>
		</g>
	</g><g
   transform="matrix(0.80828857,0,0,0.80828857,487.13265,300.84159)"
   id="g10796">
		<g
   id="g10794">
			<g
   id="g10792">
				<g
   id="Duplicate_Items_Folder_Symbol_4_0_Layer0_0_FILL_00000101085341573872540630000016773882472006805659_">
					<path
   class="st0"
   d="m 149.1,-76.1 c -0.1,-0.1 -0.2,-0.1 -0.3,-0.1 H -0.9 c -0.1,0 -0.3,0.1 -0.3,0.1 -0.1,0.1 -0.1,0.2 -0.1,0.4 V 75.2 c 0,0.1 0.1,0.3 0.1,0.4 0.1,0.1 0.2,0.1 0.3,0.1 h 149.7 c 0.1,0 0.3,-0.1 0.3,-0.1 0.1,-0.1 0.1,-0.2 0.1,-0.4 V -75.7 c 0.1,-0.2 0,-0.3 -0.1,-0.4 M -0.4,-75.2 H 148.3 V 74.7 H -0.4 Z"
   id="path10781" />
					<path
   class="st1"
   d="M 148.3,-75.2 H -0.4 V 74.7 H 148.3 V -75.2 m -0.7,0.5 v 0.2 l 0.2,-0.2 V 73.9 H 0.5 0.3 V -74.7 Z"
   id="path10783" />
					<path
   class="st2"
   d="m 141.2,-67.9 6.4,-6.5 v -0.2 H 0.3 V 73.9 H 0.5 L 7,67.5 V -67.9 Z"
   id="path10785" />
					<path
   class="st3"
   d="m 141.2,-67.9 v 0 L 141.1,67.2 H 7.3 L 7,67.5 0.6,73.9 H 147.8 V -74.7 l -0.2,0.2 z"
   id="path10787" />
					<path
   class="st4"
   d="m 141.1,-67.8 v 0 L 7,-67.9 V 67.5 L 7.3,67.2 H 141 v -135 z"
   id="path10789" />
				</g>
			</g>
		</g>
	</g><g
   transform="matrix(0.80828857,0,0,0.80828857,609.58265,300.84159)"
   id="g10813">
		<g
   id="g10811">
			<g
   id="g10809">
				<g
   id="Duplicate_Items_Folder_Symbol_4_0_Layer0_0_FILL_00000180326312454524565460000006245114545542771089_">
					<path
   class="st0"
   d="m 148,-76.1 c -0.1,-0.1 -0.2,-0.1 -0.3,-0.1 H -2.1 c -0.1,0 -0.3,0.1 -0.3,0.1 -0.1,0.1 -0.1,0.2 -0.1,0.4 V 75.2 c 0,0.1 0.1,0.3 0.1,0.4 0.1,0.1 0.2,0.1 0.3,0.1 h 149.7 c 0.1,0 0.3,-0.1 0.3,-0.1 0.1,-0.1 0.1,-0.2 0.1,-0.4 V -75.7 c 0.1,-0.2 0.1,-0.3 0,-0.4 M -1.6,-75.2 H 147.1 V 74.7 H -1.6 Z"
   id="path10798" />
					<path
   class="st1"
   d="M 147.1,-75.2 H -1.6 V 74.7 H 147.1 V -75.2 m -0.7,0.5 v 0.2 l 0.2,-0.2 V 73.9 H -0.6 -0.8 V -74.7 Z"
   id="path10800" />
					<path
   class="st2"
   d="m 140,-67.9 6.4,-6.5 v -0.2 H -0.9 V 73.9 h 0.2 L 5.7,67.5 V -67.9 Z"
   id="path10802" />
					<path
   class="st3"
   d="m 140,-67.9 v 0 L 139.9,67.2 H 6.2 l -0.3,0.3 -6.4,6.4 H 146.7 V -74.7 l -0.2,0.2 z"
   id="path10804" />
					<path
   class="st4"
   d="m 139.9,-67.8 v 0 L 5.8,-67.9 V 67.5 l 0.3,-0.3 h 133.7 v -135 z"
   id="path10806" />
				</g>
			</g>
		</g>
	</g><g
   transform="matrix(0.80828857,0,0,0.80828857,732.13265,300.84159)"
   id="g10830">
		<g
   id="g10828">
			<g
   id="g10826">
				<g
   id="Duplicate_Items_Folder_Symbol_4_0_Layer0_0_FILL_00000037662926157978586080000003698215917179208626_">
					<path
   class="st0"
   d="m 146.8,-76.1 c -0.1,-0.1 -0.2,-0.1 -0.3,-0.1 H -3.3 c -0.1,0 -0.3,0.1 -0.3,0.1 -0.1,0.1 -0.1,0.2 -0.1,0.4 V 75.2 c 0,0.1 0.1,0.3 0.1,0.4 0.1,0.1 0.2,0.1 0.3,0.1 h 149.7 c 0.1,0 0.3,-0.1 0.3,-0.1 0.1,-0.1 0.1,-0.2 0.1,-0.4 V -75.7 c 0.1,-0.2 0.1,-0.3 0,-0.4 M -2.8,-75.2 H 146 V 74.7 H -2.8 Z"
   id="path10815" />
					<path
   class="st1"
   d="M 146,-75.2 H -2.8 V 74.7 H 146 V -75.2 m -0.8,0.5 v 0.2 l 0.2,-0.2 V 73.9 H -1.8 -2 V -74.7 Z"
   id="path10817" />
					<path
   class="st2"
   d="m 138.8,-67.9 6.4,-6.5 v -0.2 H -2 V 73.9 h 0.2 L 4.6,67.5 V -67.9 Z"
   id="path10819" />
					<path
   class="st3"
   d="m 138.8,-67.9 v 0 L 138.7,67.2 H 5 l -0.3,0.3 -6.4,6.4 H 145.5 V -74.7 l -0.2,0.2 z"
   id="path10821" />
					<path
   class="st4"
   d="m 138.7,-67.8 v 0 L 4.7,-67.9 V 67.5 L 5,67.2 h 133.7 z"
   id="path10823" />
				</g>
			</g>
		</g>
	</g><g
   transform="matrix(0.80828857,0,0,0.80828857,-2.6673523,420.49159)"
   id="g10847">
		<g
   id="g10845">
			<g
   id="g10843">
				<g
   id="Duplicate_Items_Folder_Symbol_4_0_Layer0_0_FILL_00000063594509381718679450000001290298100037845132_">
					<path
   class="st0"
   d="m 153.8,-76.1 c -0.1,-0.1 -0.2,-0.1 -0.3,-0.1 H 3.7 c -0.1,0 -0.3,0.1 -0.3,0.1 -0.1,0.1 -0.1,0.2 -0.1,0.4 V 75.2 c 0,0.1 0.1,0.3 0.1,0.4 0.1,0.1 0.2,0.1 0.3,0.1 h 149.7 c 0.1,0 0.3,-0.1 0.3,-0.1 0.1,-0.1 0.1,-0.2 0.1,-0.4 V -75.7 c 0.2,-0.2 0.1,-0.3 0,-0.4 M 4.2,-75.2 H 153 V 74.7 H 4.2 Z"
   id="path10832" />
					<path
   class="st1"
   d="M 153,-75.2 H 4.2 V 74.7 H 153 V -75.2 m -0.8,0.5 v 0.2 l 0.2,-0.2 V 73.9 H 5.2 5 V -74.7 Z"
   id="path10834" />
					<path
   class="st2"
   d="m 145.8,-67.9 6.4,-6.5 v -0.2 H 5 V 73.9 h 0.2 l 6.4,-6.4 V -67.9 Z"
   id="path10836" />
					<path
   class="st3"
   d="m 145.8,-67.9 v 0 L 145.7,67.2 H 12 l -0.3,0.3 -6.4,6.4 H 152.5 V -74.7 l -0.2,0.2 z"
   id="path10838" />
					<path
   class="st4"
   d="m 145.7,-67.8 v 0 l -134,-0.1 V 67.5 L 12,67.2 h 133.7 z"
   id="path10840" />
				</g>
			</g>
		</g>
	</g><g
   transform="matrix(0.80828857,0,0,0.80828857,119.78265,420.49159)"
   id="g10864">
		<g
   id="g10862">
			<g
   id="g10860">
				<g
   id="Duplicate_Items_Folder_Symbol_4_0_Layer0_0_FILL_00000016797044142060919450000017870866123137992126_">
					<path
   class="st0"
   d="m 152.7,-76.1 c -0.1,-0.1 -0.2,-0.1 -0.3,-0.1 H 2.6 c -0.1,0 -0.3,0.1 -0.3,0.1 -0.1,0.1 -0.1,0.2 -0.1,0.4 V 75.2 c 0,0.1 0.1,0.3 0.1,0.4 0.1,0.1 0.2,0.1 0.3,0.1 h 149.7 c 0.1,0 0.3,-0.1 0.3,-0.1 0.1,-0.1 0.1,-0.2 0.1,-0.4 V -75.7 c 0.1,-0.2 0.1,-0.3 0,-0.4 M 3.1,-75.2 H 151.8 V 74.7 H 3.1 Z"
   id="path10849" />
					<path
   class="st1"
   d="M 151.8,-75.2 H 3.1 V 74.7 H 151.8 V -75.2 m -0.7,0.5 v 0.2 l 0.2,-0.2 V 73.9 H 4.1 3.8 V -74.7 Z"
   id="path10851" />
					<path
   class="st2"
   d="m 144.7,-67.9 6.4,-6.5 v -0.2 H 3.8 V 73.9 H 4 l 6.4,-6.4 V -67.9 Z"
   id="path10853" />
					<path
   class="st3"
   d="m 144.7,-67.9 v 0 L 144.6,67.2 H 10.9 l -0.3,0.3 -6.4,6.4 H 151.4 V -74.7 l -0.2,0.2 z"
   id="path10855" />
					<path
   class="st4"
   d="m 144.6,-67.8 v 0 L 10.5,-67.9 V 67.5 l 0.3,-0.3 h 133.7 v -135 z"
   id="path10857" />
				</g>
			</g>
		</g>
	</g><g
   transform="matrix(0.80828857,0,0,0.80828857,242.23265,420.49159)"
   id="g10881">
		<g
   id="g10879">
			<g
   id="g10877">
				<g
   id="Duplicate_Items_Folder_Symbol_4_0_Layer0_0_FILL_00000052096228674270154890000002771930182163838136_">
					<path
   class="st0"
   d="m 151.5,-76.1 c -0.1,-0.1 -0.2,-0.1 -0.3,-0.1 H 1.4 c -0.1,0 -0.3,0.1 -0.3,0.1 -0.1,0.1 -0.2,0.2 -0.2,0.4 V 75.2 c 0,0.1 0.1,0.3 0.1,0.4 0.1,0.1 0.2,0.1 0.3,0.1 H 151 c 0.1,0 0.3,-0.1 0.3,-0.1 0.1,-0.1 0.1,-0.2 0.1,-0.4 V -75.7 c 0.2,-0.2 0.2,-0.3 0.1,-0.4 M 1.9,-75.2 H 150.6 V 74.7 H 1.9 Z"
   id="path10866" />
					<path
   class="st1"
   d="M 150.6,-75.2 H 1.9 V 74.7 H 150.6 V -75.2 m -0.7,0.5 v 0.2 l 0.2,-0.2 V 73.9 H 2.9 2.6 V -74.7 Z"
   id="path10868" />
					<path
   class="st2"
   d="m 143.5,-67.9 6.4,-6.5 v -0.2 H 2.6 V 73.9 H 2.8 L 9.2,67.5 V -67.9 Z"
   id="path10870" />
					<path
   class="st3"
   d="m 143.5,-67.9 v 0 L 143.4,67.2 H 9.7 L 9.4,67.5 3,73.9 H 150.2 V -74.7 l -0.2,0.2 z"
   id="path10872" />
					<path
   class="st4"
   d="m 143.4,-67.8 v 0 L 9.3,-67.9 V 67.5 l 0.3,-0.3 h 133.7 v -135 z"
   id="path10874" />
				</g>
			</g>
		</g>
	</g><g
   transform="matrix(0.80828857,0,0,0.80828857,364.68265,420.49159)"
   id="g10898">
		<g
   id="g10896">
			<g
   id="g10894">
				<g
   id="Duplicate_Items_Folder_Symbol_4_0_Layer0_0_FILL_00000009578991873829025820000004174113798812483972_">
					<path
   class="st0"
   d="m 150.3,-76.1 c -0.1,-0.1 -0.2,-0.1 -0.3,-0.1 H 0.2 c -0.1,0 -0.3,0.1 -0.3,0.1 -0.1,0.1 -0.1,0.2 -0.1,0.4 V 75.2 c 0,0.1 0.1,0.3 0.1,0.4 0.1,0.1 0.2,0.1 0.3,0.1 H 150 c 0.1,0 0.3,-0.1 0.3,-0.1 0.1,-0.1 0.1,-0.2 0.1,-0.4 V -75.7 c 0.1,-0.2 0,-0.3 -0.1,-0.4 M 0.7,-75.2 H 149.4 V 74.7 H 0.7 Z"
   id="path10883" />
					<path
   class="st1"
   d="M 149.5,-75.2 H 0.7 V 74.7 H 149.4 V -75.2 m -0.7,0.5 v 0.2 l 0.2,-0.2 V 73.9 H 1.7 1.5 V -74.7 Z"
   id="path10885" />
					<path
   class="st2"
   d="m 142.3,-67.9 6.4,-6.5 v -0.2 H 1.5 V 73.9 H 1.7 L 8.1,67.5 V -67.9 Z"
   id="path10887" />
					<path
   class="st3"
   d="m 142.3,-67.9 v 0 L 142.2,67.2 H 8.5 L 8.2,67.5 1.8,73.9 H 149 V -74.7 l -0.2,0.2 z"
   id="path10889" />
					<path
   class="st4"
   d="m 142.2,-67.8 v 0 L 8.2,-67.9 V 67.5 l 0.3,-0.3 h 133.7 z"
   id="path10891" />
				</g>
			</g>
		</g>
	</g><g
   transform="matrix(0.80828857,0,0,0.80828857,487.13265,420.49159)"
   id="g10915">
		<g
   id="g10913">
			<g
   id="g10911">
				<g
   id="Duplicate_Items_Folder_Symbol_4_0_Layer0_0_FILL_00000116227654466386827740000001009115525496689573_">
					<path
   class="st0"
   d="m 149.1,-76.1 c -0.1,-0.1 -0.2,-0.1 -0.3,-0.1 H -0.9 c -0.1,0 -0.3,0.1 -0.3,0.1 -0.1,0.1 -0.1,0.2 -0.1,0.4 V 75.2 c 0,0.1 0.1,0.3 0.1,0.4 0.1,0.1 0.2,0.1 0.3,0.1 h 149.7 c 0.1,0 0.3,-0.1 0.3,-0.1 0.1,-0.1 0.1,-0.2 0.1,-0.4 V -75.7 c 0.1,-0.2 0,-0.3 -0.1,-0.4 M -0.4,-75.2 H 148.3 V 74.7 H -0.4 Z"
   id="path10900" />
					<path
   class="st1"
   d="M 148.3,-75.2 H -0.4 V 74.7 H 148.3 V -75.2 m -0.7,0.5 v 0.2 l 0.2,-0.2 V 73.9 H 0.5 0.3 V -74.7 Z"
   id="path10902" />
					<path
   class="st2"
   d="m 141.2,-67.9 6.4,-6.5 v -0.2 H 0.3 V 73.9 H 0.5 L 7,67.5 V -67.9 Z"
   id="path10904" />
					<path
   class="st3"
   d="m 141.2,-67.9 v 0 L 141.1,67.2 H 7.3 L 7,67.5 0.6,73.9 H 147.8 V -74.7 l -0.2,0.2 z"
   id="path10906" />
					<path
   class="st4"
   d="m 141.1,-67.8 v 0 L 7,-67.9 V 67.5 L 7.3,67.2 H 141 v -135 z"
   id="path10908" />
				</g>
			</g>
		</g>
	</g><g
   transform="matrix(0.80828857,0,0,0.80828857,609.58265,420.49159)"
   id="g10932">
		<g
   id="g10930">
			<g
   id="g10928">
				<g
   id="Duplicate_Items_Folder_Symbol_4_0_Layer0_0_FILL_00000177452165754303531310000015956352157417289913_">
					<path
   class="st0"
   d="m 148,-76.1 c -0.1,-0.1 -0.2,-0.1 -0.3,-0.1 H -2.1 c -0.1,0 -0.3,0.1 -0.3,0.1 -0.1,0.1 -0.1,0.2 -0.1,0.4 V 75.2 c 0,0.1 0.1,0.3 0.1,0.4 0.1,0.1 0.2,0.1 0.3,0.1 h 149.7 c 0.1,0 0.3,-0.1 0.3,-0.1 0.1,-0.1 0.1,-0.2 0.1,-0.4 V -75.7 c 0.1,-0.2 0.1,-0.3 0,-0.4 M -1.6,-75.2 H 147.1 V 74.7 H -1.6 Z"
   id="path10917" />
					<path
   class="st1"
   d="M 147.1,-75.2 H -1.6 V 74.7 H 147.1 V -75.2 m -0.7,0.5 v 0.2 l 0.2,-0.2 V 73.9 H -0.6 -0.8 V -74.7 Z"
   id="path10919" />
					<path
   class="st2"
   d="m 140,-67.9 6.4,-6.5 v -0.2 H -0.9 V 73.9 h 0.2 L 5.7,67.5 V -67.9 Z"
   id="path10921" />
					<path
   class="st3"
   d="m 140,-67.9 v 0 L 139.9,67.2 H 6.2 l -0.3,0.3 -6.4,6.4 H 146.7 V -74.7 l -0.2,0.2 z"
   id="path10923" />
					<path
   class="st4"
   d="m 139.9,-67.8 v 0 L 5.8,-67.9 V 67.5 l 0.3,-0.3 h 133.7 v -135 z"
   id="path10925" />
				</g>
			</g>
		</g>
	</g><g
   transform="matrix(0.80828857,0,0,0.80828857,732.13265,420.49159)"
   id="g10949">
		<g
   id="g10947">
			<g
   id="g10945">
				<g
   id="Duplicate_Items_Folder_Symbol_4_0_Layer0_0_FILL_00000081646626589692745090000014802872453466246544_">
					<path
   class="st0"
   d="m 146.8,-76.1 c -0.1,-0.1 -0.2,-0.1 -0.3,-0.1 H -3.3 c -0.1,0 -0.3,0.1 -0.3,0.1 -0.1,0.1 -0.1,0.2 -0.1,0.4 V 75.2 c 0,0.1 0.1,0.3 0.1,0.4 0.1,0.1 0.2,0.1 0.3,0.1 h 149.7 c 0.1,0 0.3,-0.1 0.3,-0.1 0.1,-0.1 0.1,-0.2 0.1,-0.4 V -75.7 c 0.1,-0.2 0.1,-0.3 0,-0.4 M -2.8,-75.2 H 146 V 74.7 H -2.8 Z"
   id="path10934" />
					<path
   class="st1"
   d="M 146,-75.2 H -2.8 V 74.7 H 146 V -75.2 m -0.8,0.5 v 0.2 l 0.2,-0.2 V 73.9 H -1.8 -2 V -74.7 Z"
   id="path10936" />
					<path
   class="st2"
   d="m 138.8,-67.9 6.4,-6.5 v -0.2 H -2 V 73.9 h 0.2 L 4.6,67.5 V -67.9 Z"
   id="path10938" />
					<path
   class="st3"
   d="m 138.8,-67.9 v 0 L 138.7,67.2 H 5 l -0.3,0.3 -6.4,6.4 H 145.5 V -74.7 l -0.2,0.2 z"
   id="path10940" />
					<path
   class="st4"
   d="m 138.7,-67.8 v 0 L 4.7,-67.9 V 67.5 L 5,67.2 h 133.7 z"
   id="path10942" />
				</g>
			</g>
		</g>
	</g>
<g
   id="g11286"
   transform="translate(-3.0673523,0.19158903)">
	<g
   id="g11282">
		<g
   id="g11104">
			<g
   id="g11074">
				<path
   class="st5"
   d="m 422.1,50.5 c 0,0 -7,-4.2 -11.4,-14.8 -4.4,-10.6 0.7,-19.8 0.7,-19.8 0,0 10.1,2.9 14.5,13.5 4.4,10.6 2.4,18.5 2.4,18.5 z"
   id="path11072" />
			</g>
			<g
   id="g11078">
				<path
   class="st5"
   d="m 415.9,60.3 c 0,0 -7.9,2 -18.5,-2.4 -10.6,-4.4 -13.5,-14.5 -13.5,-14.5 0,0 9.2,-5.1 19.8,-0.7 10.6,4.4 14.8,11.4 14.8,11.4 z"
   id="path11076" />
			</g>
			<g
   id="g11082">
				<path
   class="st5"
   d="m 418.4,71.6 c 0,0 -4.2,7 -14.8,11.4 -10.6,4.4 -19.8,-0.7 -19.8,-0.7 0,0 2.9,-10.1 13.5,-14.5 10.6,-4.4 18.5,-2.4 18.5,-2.4 z"
   id="path11080" />
			</g>
			<g
   id="g11086">
				<path
   class="st5"
   d="m 428.2,77.8 c 0,0 2,7.9 -2.4,18.5 -4.4,10.6 -14.5,13.5 -14.5,13.5 0,0 -5.1,-9.2 -0.7,-19.8 C 415,79.4 422,75.2 422,75.2 Z"
   id="path11084" />
			</g>
			<g
   id="g11090">
				<path
   class="st5"
   d="m 439.4,75.3 c 0,0 7,4.2 11.4,14.8 4.4,10.6 -0.7,19.8 -0.7,19.8 0,0 -10.1,-2.9 -14.5,-13.5 -4.4,-10.6 -2.4,-18.5 -2.4,-18.5 z"
   id="path11088" />
			</g>
			<g
   id="g11094">
				<path
   class="st5"
   d="m 445.6,65.5 c 0,0 7.9,-2 18.5,2.4 10.6,4.4 13.5,14.5 13.5,14.5 0,0 -9.2,5.1 -19.8,0.7 C 447.2,78.7 443,71.7 443,71.7 Z"
   id="path11092" />
			</g>
			<g
   id="g11098">
				<path
   class="st5"
   d="m 443.1,54.2 c 0,0 4.2,-7 14.8,-11.4 10.6,-4.4 19.8,0.7 19.8,0.7 0,0 -2.9,10.1 -13.5,14.5 -10.6,4.4 -18.5,2.4 -18.5,2.4 z"
   id="path11096" />
			</g>
			<g
   id="g11102">
				<path
   class="st5"
   d="m 433.4,48 c 0,0 -2,-7.9 2.4,-18.5 4.4,-10.6 14.5,-13.5 14.5,-13.5 0,0 5.1,9.2 0.7,19.8 -4.4,10.6 -11.4,14.8 -11.4,14.8 z"
   id="path11100" />
			</g>
		</g>
		<g
   id="g11138">
			<g
   id="g11108">
				<path
   class="st6"
   d="m 427.5,48.2 c 0,0 -4.9,-6.5 -4.9,-18 0,-11.5 8.2,-18 8.2,-18 0,0 8.2,6.5 8.2,18 0,11.5 -4.9,18 -4.9,18 z"
   id="path11106" />
			</g>
			<g
   id="g11112">
				<path
   class="st6"
   d="m 418,54.8 c 0,0 -8.1,-1.2 -16.2,-9.3 -8.1,-8.1 -6.9,-18.5 -6.9,-18.5 0,0 10.4,-1.2 18.5,6.9 8.1,8.1 9.3,16.2 9.3,16.2 z"
   id="path11110" />
			</g>
			<g
   id="g11116">
				<path
   class="st6"
   d="m 416,66.2 c 0,0 -6.5,4.9 -18,4.9 -11.5,0 -18,-8.2 -18,-8.2 0,0 6.5,-8.2 18,-8.2 11.5,0 18,4.9 18,4.9 z"
   id="path11114" />
			</g>
			<g
   id="g11120">
				<path
   class="st6"
   d="m 422.7,75.6 c 0,0 -1.2,8.1 -9.3,16.2 -8.1,8.1 -18.5,6.9 -18.5,6.9 0,0 -1.2,-10.4 6.9,-18.5 C 409.9,72.1 418,71 418,71 Z"
   id="path11118" />
			</g>
			<g
   id="g11124">
				<path
   class="st6"
   d="m 434,77.6 c 0,0 4.9,6.5 4.9,18 0,11.5 -8.2,18 -8.2,18 0,0 -8.2,-6.5 -8.2,-18 0,-11.5 4.9,-18 4.9,-18 z"
   id="path11122" />
			</g>
			<g
   id="g11128">
				<path
   class="st6"
   d="m 443.5,71 c 0,0 8.1,1.2 16.2,9.3 8.1,8.1 6.9,18.5 6.9,18.5 0,0 -10.4,1.2 -18.5,-6.9 -8.1,-8.1 -9.3,-16.2 -9.3,-16.2 z"
   id="path11126" />
			</g>
			<g
   id="g11132">
				<path
   class="st6"
   d="m 445.5,59.6 c 0,0 6.5,-4.9 18,-4.9 11.5,0 18,8.2 18,8.2 0,0 -6.5,8.2 -18,8.2 -11.5,0 -18,-4.9 -18,-4.9 z"
   id="path11130" />
			</g>
			<g
   id="g11136">
				<path
   class="st6"
   d="m 438.9,50.2 c 0,0 1.2,-8.1 9.3,-16.2 8.1,-8.1 18.5,-6.9 18.5,-6.9 0,0 1.2,10.4 -6.9,18.5 -8.1,8.1 -16.2,9.3 -16.2,9.3 z"
   id="path11134" />
			</g>
		</g>
		<g
   id="g11144">
			<g
   id="g11142">
				<path
   class="st5"
   d="m 430.8,46.5 c -0.9,0 -1.6,-0.7 -1.6,-1.6 V 31.8 c 0,-0.9 0.7,-1.6 1.6,-1.6 0.9,0 1.6,0.7 1.6,1.6 v 13.1 c 0,0.9 -0.7,1.6 -1.6,1.6 z"
   id="path11140" />
			</g>
		</g>
		<g
   id="g11150">
			<g
   id="g11148">
				<path
   class="st5"
   d="m 419.2,51.3 c -0.6,0.6 -1.7,0.6 -2.3,0 L 407.6,42 c -0.6,-0.6 -0.6,-1.7 0,-2.3 0.6,-0.6 1.7,-0.6 2.3,0 l 9.3,9.3 c 0.6,0.7 0.6,1.7 0,2.3 z"
   id="path11146" />
			</g>
		</g>
		<g
   id="g11156">
			<g
   id="g11154">
				<path
   class="st5"
   d="m 414.4,62.9 c 0,0.9 -0.7,1.6 -1.6,1.6 h -13.1 c -0.9,0 -1.6,-0.7 -1.6,-1.6 0,-0.9 0.7,-1.6 1.6,-1.6 h 13.1 c 0.9,0 1.6,0.7 1.6,1.6 z"
   id="path11152" />
			</g>
		</g>
		<g
   id="g11162">
			<g
   id="g11160">
				<path
   class="st5"
   d="m 419.2,74.5 c 0.6,0.6 0.6,1.7 0,2.3 l -9.3,9.3 c -0.6,0.6 -1.7,0.6 -2.3,0 -0.6,-0.6 -0.6,-1.7 0,-2.3 l 9.3,-9.3 c 0.6,-0.7 1.7,-0.7 2.3,0 z"
   id="path11158" />
			</g>
		</g>
		<g
   id="g11168">
			<g
   id="g11166">
				<path
   class="st5"
   d="m 430.8,79.3 c 0.9,0 1.6,0.7 1.6,1.6 V 94 c 0,0.9 -0.7,1.6 -1.6,1.6 -0.9,0 -1.6,-0.7 -1.6,-1.6 V 80.9 c -0.1,-0.9 0.7,-1.6 1.6,-1.6 z"
   id="path11164" />
			</g>
		</g>
		<g
   id="g11174">
			<g
   id="g11172">
				<path
   class="st5"
   d="m 442.4,74.5 c 0.6,-0.6 1.7,-0.6 2.3,0 l 9.3,9.3 c 0.6,0.6 0.6,1.7 0,2.3 -0.6,0.6 -1.7,0.6 -2.3,0 l -9.3,-9.3 c -0.7,-0.6 -0.7,-1.7 0,-2.3 z"
   id="path11170" />
			</g>
		</g>
		<g
   id="g11180">
			<g
   id="g11178">
				<path
   class="st5"
   d="m 447.1,62.9 c 0,-0.9 0.7,-1.6 1.6,-1.6 h 13.1 c 0.9,0 1.6,0.7 1.6,1.6 0,0.9 -0.7,1.6 -1.6,1.6 h -13.1 c -0.8,0 -1.6,-0.7 -1.6,-1.6 z"
   id="path11176" />
			</g>
		</g>
		<g
   id="g11186">
			<g
   id="g11184">
				<path
   class="st5"
   d="m 442.4,51.3 c -0.6,-0.6 -0.6,-1.7 0,-2.3 l 9.3,-9.3 c 0.6,-0.6 1.7,-0.6 2.3,0 0.6,0.6 0.6,1.7 0,2.3 l -9.3,9.3 c -0.7,0.7 -1.7,0.7 -2.3,0 z"
   id="path11182" />
			</g>
		</g>
		<g
   id="g11190">
			<circle
   class="st7"
   cx="430.79999"
   cy="62.900002"
   r="19.6"
   id="circle11188" />
		</g>
		<g
   id="g11280">
			<g
   id="g11278">
				<g
   id="g11212">
					<g
   id="g11194">
						<rect
   x="416"
   y="61.299999"
   class="st8"
   width="3.3"
   height="3.3"
   id="rect11192" />
					</g>
					<g
   id="g11198">
						<rect
   x="422.60001"
   y="61.299999"
   class="st8"
   width="3.3"
   height="3.3"
   id="rect11196" />
					</g>
					<g
   id="g11202">
						<rect
   x="429.10001"
   y="61.299999"
   class="st8"
   width="3.3"
   height="3.3"
   id="rect11200" />
					</g>
					<g
   id="g11206">
						<rect
   x="435.70001"
   y="61.299999"
   class="st8"
   width="3.3"
   height="3.3"
   id="rect11204" />
					</g>
					<g
   id="g11210">
						<rect
   x="442.20001"
   y="61.299999"
   class="st8"
   width="3.3"
   height="3.3"
   id="rect11208" />
					</g>
				</g>
				<g
   id="g11230">
					<g
   id="g11216">
						<rect
   x="419.29999"
   y="54.700001"
   class="st8"
   width="3.3"
   height="3.3"
   id="rect11214" />
					</g>
					<g
   id="g11220">
						<rect
   x="425.89999"
   y="54.700001"
   class="st8"
   width="3.3"
   height="3.3"
   id="rect11218" />
					</g>
					<g
   id="g11224">
						<rect
   x="432.39999"
   y="54.700001"
   class="st8"
   width="3.3"
   height="3.3"
   id="rect11222" />
					</g>
					<g
   id="g11228">
						<rect
   x="439"
   y="54.700001"
   class="st8"
   width="3.3"
   height="3.3"
   id="rect11226" />
					</g>
				</g>
				<g
   id="g11248">
					<g
   id="g11234">
						<rect
   x="419.29999"
   y="67.800003"
   class="st8"
   width="3.3"
   height="3.3"
   id="rect11232" />
					</g>
					<g
   id="g11238">
						<rect
   x="425.89999"
   y="67.800003"
   class="st8"
   width="3.3"
   height="3.3"
   id="rect11236" />
					</g>
					<g
   id="g11242">
						<rect
   x="432.39999"
   y="67.800003"
   class="st8"
   width="3.3"
   height="3.3"
   id="rect11240" />
					</g>
					<g
   id="g11246">
						<rect
   x="439"
   y="67.800003"
   class="st8"
   width="3.3"
   height="3.3"
   id="rect11244" />
					</g>
				</g>
				<g
   id="g11262">
					<g
   id="g11252">
						<rect
   x="422.60001"
   y="48.200001"
   class="st8"
   width="3.3"
   height="3.3"
   id="rect11250" />
					</g>
					<g
   id="g11256">
						<rect
   x="429.10001"
   y="48.200001"
   class="st8"
   width="3.3"
   height="3.3"
   id="rect11254" />
					</g>
					<g
   id="g11260">
						<rect
   x="435.70001"
   y="48.200001"
   class="st8"
   width="3.3"
   height="3.3"
   id="rect11258" />
					</g>
				</g>
				<g
   id="g11276">
					<g
   id="g11266">
						<rect
   x="422.60001"
   y="74.400002"
   class="st8"
   width="3.3"
   height="3.3"
   id="rect11264" />
					</g>
					<g
   id="g11270">
						<rect
   x="429.10001"
   y="74.400002"
   class="st8"
   width="3.3"
   height="3.3"
   id="rect11268" />
					</g>
					<g
   id="g11274">
						<rect
   x="435.70001"
   y="74.400002"
   class="st8"
   width="3.3"
   height="3.3"
   id="rect11272" />
					</g>
				</g>
			</g>
		</g>
	</g>
	<path
   class="st9"
   d="m 481.3,63.3 c 0,0 -4.6,-5.7 -12.7,-7.6 6.8,-4.9 8.8,-11.9 8.8,-11.9 0,0 -6.4,-3.5 -14.6,-2.1 4.4,-7.1 3.6,-14.3 3.6,-14.3 0,0 -7.2,-0.8 -14.3,3.6 1.4,-8.2 -2.1,-14.6 -2.1,-14.6 0,0 -7,2 -11.9,8.8 -1.9,-8.1 -7.6,-12.7 -7.6,-12.7 0,0 -5.7,4.6 -7.6,12.7 C 418,18.4 411,16.4 411,16.4 c 0,0 -3.5,6.4 -2.1,14.6 -7.1,-4.4 -14.3,-3.6 -14.3,-3.6 0,0 -0.8,7.2 3.6,14.3 -8.2,-1.4 -14.6,2.1 -14.6,2.1 0,0 2,7 8.8,11.9 -8.1,1.9 -12.7,7.6 -12.7,7.6 0,0 4.6,5.7 12.7,7.6 -6.8,4.9 -8.8,11.9 -8.8,11.9 0,0 6.4,3.5 14.6,2.1 -4.4,7.1 -3.6,14.3 -3.6,14.3 0,0 7.2,0.8 14.3,-3.6 -1.4,8.2 2.1,14.6 2.1,14.6 0,0 7,-2 11.9,-8.8 1.9,8.1 7.6,12.7 7.6,12.7 0,0 5.7,-4.6 7.6,-12.7 4.9,6.8 11.9,8.8 11.9,8.8 0,0 3.5,-6.4 2.1,-14.6 7.1,4.4 14.3,3.6 14.3,3.6 0,0 0.8,-7.2 -3.6,-14.3 8.2,1.4 14.6,-2.1 14.6,-2.1 0,0 -2,-7 -8.8,-11.9 8.1,-2 12.7,-7.6 12.7,-7.6 z"
   id="path11284" />
</g>
<g
   id="g11354"
   transform="translate(-3.0673523,0.19158903)">
	<g
   id="g11350">
		<g
   id="g11318">
			<g
   id="g11290">
				<path
   class="st10"
   d="m 383.3,285.8 c 0,0 5.7,-17.5 24.8,-11.3 19.1,6.2 24.6,27.4 24.6,27.4 0,0 -16.9,13.9 -36,7.7 -19.1,-6.2 -13.4,-23.8 -13.4,-23.8 z"
   id="path11288" />
			</g>
			<g
   id="g11294">
				<path
   class="st11"
   d="m 402.1,343.9 c 0,0 -14.9,-10.8 -3.1,-27.1 11.8,-16.3 33.6,-14.9 33.6,-14.9 0,0 8,20.3 -3.8,36.6 -11.8,16.3 -26.7,5.4 -26.7,5.4 z"
   id="path11292" />
			</g>
			<g
   id="g11298">
				<path
   class="st12"
   d="m 463.2,343.9 c 0,0 -14.9,10.8 -26.7,-5.4 -11.8,-16.2 -3.8,-36.6 -3.8,-36.6 0,0 21.8,-1.3 33.6,14.9 11.8,16.2 -3.1,27.1 -3.1,27.1 z"
   id="path11296" />
			</g>
			<g
   id="g11302">
				<path
   class="st13"
   d="m 482.1,285.8 c 0,0 5.7,17.5 -13.4,23.7 -19.1,6.2 -36,-7.7 -36,-7.7 0,0 5.5,-21.2 24.6,-27.4 19.1,-6.1 24.8,11.4 24.8,11.4 z"
   id="path11300" />
			</g>
			<g
   id="g11306">
				<path
   class="st12"
   d="m 432.7,250 c 0,0 18.4,0 18.4,20.1 0,20.1 -18.4,31.8 -18.4,31.8 0,0 -18.4,-11.7 -18.4,-31.8 C 414.2,250 432.7,250 432.7,250 Z"
   id="path11304" />
			</g>
			<g
   id="g11310">
				<path
   class="st10"
   d="m 383.3,285.8 c 0,0 5.7,-17.5 24.8,-11.3 19.1,6.2 24.6,27.4 24.6,27.4 z"
   id="path11308" />
			</g>
			<g
   id="g11316">
				<path
   class="st14"
   d="m 447.7,301.9 c 0,-2.3 -1.5,-4.1 -3.5,-4.8 1,-1.9 0.7,-4.3 -0.9,-5.9 -1.6,-1.6 -4,-1.9 -5.9,-0.9 -0.6,-2 -2.5,-3.5 -4.8,-3.5 -2.3,0 -4.1,1.5 -4.8,3.5 -1.9,-1 -4.3,-0.7 -5.9,0.9 -1.6,1.6 -1.9,4 -0.9,5.9 -2,0.6 -3.5,2.5 -3.5,4.8 0,2.3 1.5,4.1 3.5,4.8 -1,1.9 -0.7,4.3 0.9,5.9 1.6,1.6 4,1.9 5.9,0.9 0.6,2 2.5,3.5 4.8,3.5 2.3,0 4.1,-1.5 4.8,-3.5 1.9,1 4.3,0.7 5.9,-0.9 1.6,-1.6 1.9,-4 0.9,-5.9 2.1,-0.7 3.5,-2.6 3.5,-4.8 z"
   id="path11312" />
				<circle
   class="st6"
   cx="432.70001"
   cy="301.89999"
   r="6.6999998"
   id="circle11314" />
			</g>
		</g>
		<g
   id="g11324">
			<g
   id="g11322">
				<path
   class="st15"
   d="m 432.7,278.4 c -0.9,0 -1.7,-0.7 -1.7,-1.7 v -10.1 c 0,-0.9 0.7,-1.7 1.7,-1.7 1,0 1.7,0.7 1.7,1.7 v 10.1 c -0.1,1 -0.8,1.7 -1.7,1.7 z"
   id="path11320" />
			</g>
		</g>
		<g
   id="g11330">
			<g
   id="g11328">
				<path
   class="st15"
   d="m 408.8,295.8 c -0.2,0 -0.3,0 -0.5,-0.1 l -9.6,-3.1 c -0.9,-0.3 -1.4,-1.2 -1.1,-2.1 0.3,-0.9 1.2,-1.4 2.1,-1.1 l 9.6,3.1 c 0.9,0.3 1.4,1.2 1.1,2.1 -0.3,0.8 -0.9,1.2 -1.6,1.2 z"
   id="path11326" />
			</g>
		</g>
		<g
   id="g11336">
			<g
   id="g11334">
				<path
   class="st15"
   d="m 412,332 c -0.3,0 -0.7,-0.1 -1,-0.3 -0.7,-0.5 -0.9,-1.6 -0.4,-2.3 l 5.9,-8.1 c 0.5,-0.7 1.6,-0.9 2.3,-0.4 0.7,0.5 0.9,1.6 0.4,2.3 l -5.9,8.1 c -0.3,0.5 -0.8,0.7 -1.3,0.7 z"
   id="path11332" />
			</g>
		</g>
		<g
   id="g11342">
			<g
   id="g11340">
				<path
   class="st15"
   d="m 453.4,332 c -0.5,0 -1,-0.2 -1.4,-0.7 l -5.9,-8.1 c -0.5,-0.7 -0.4,-1.8 0.4,-2.3 0.7,-0.5 1.8,-0.4 2.3,0.4 l 5.9,8.1 c 0.5,0.7 0.4,1.8 -0.4,2.3 -0.3,0.2 -0.6,0.3 -0.9,0.3 z"
   id="path11338" />
			</g>
		</g>
		<g
   id="g11348">
			<g
   id="g11346">
				<path
   class="st15"
   d="m 456.6,295.8 c -0.7,0 -1.4,-0.4 -1.6,-1.2 -0.3,-0.9 0.2,-1.8 1.1,-2.1 l 9.6,-3.1 c 0.9,-0.3 1.8,0.2 2.1,1.1 0.3,0.9 -0.2,1.8 -1.1,2.1 l -9.6,3.1 c -0.2,0.1 -0.4,0.1 -0.5,0.1 z"
   id="path11344" />
			</g>
		</g>
	</g>
	<path
   class="st9"
   d="m 481.8,285.8 c 0,0 -5.7,-17.5 -24.8,-11.3 -2.6,0.9 -5,2 -7.1,3.3 0.6,-2.4 1,-5 1,-7.8 0,-20.1 -18.4,-20.1 -18.4,-20.1 0,0 -18.4,0 -18.4,20.1 0,2.8 0.4,5.3 1,7.8 -2.1,-1.3 -4.5,-2.5 -7.1,-3.3 -19.1,-6.2 -24.8,11.3 -24.8,11.3 0,0 -5.7,17.5 13.4,23.7 2.6,0.9 5.2,1.3 7.7,1.5 -1.9,1.6 -3.7,3.5 -5.3,5.7 -11.8,16.3 3.1,27.1 3.1,27.1 0,0 14.9,10.8 26.7,-5.4 1.6,-2.2 2.9,-4.5 3.8,-6.9 0.9,2.3 2.2,4.6 3.8,6.9 11.8,16.3 26.7,5.4 26.7,5.4 0,0 14.9,-10.8 3.1,-27.1 -1.6,-2.2 -3.4,-4.1 -5.3,-5.7 2.5,-0.2 5.1,-0.6 7.7,-1.5 18.9,-6.2 13.2,-23.7 13.2,-23.7 z"
   id="path11352" />
</g>
<g
   id="g11404"
   transform="translate(-3.0673523,0.19158903)">
	<g
   id="g11400">
		<path
   class="st16"
   d="m 17,182.6 c 0,-4.4 1.5,-17.5 13.1,-17.5 11.6,0 32,17.5 32,17.5 0,0 -20.4,17.5 -32,17.5 C 18.5,200.1 17,187 17,182.6 Z"
   id="path11356" />
		<path
   class="st17"
   d="m 39.6,221.7 c -3.8,-2.2 -14.4,-10 -8.6,-20.1 5.8,-10.1 31.1,-19 31.1,-19 0,0 4.9,26.4 -0.9,36.5 -5.8,10 -17.9,4.7 -21.6,2.6 z"
   id="path11358" />
		<path
   class="st16"
   d="m 84.7,221.7 c -3.8,2.2 -15.8,7.5 -21.7,-2.6 -5.8,-10.1 -0.9,-36.5 -0.9,-36.5 0,0 25.3,8.9 31.1,19 5.9,10.1 -4.8,17.9 -8.5,20.1 z"
   id="path11360" />
		<path
   class="st17"
   d="m 107.2,182.6 c 0,4.4 -1.5,17.5 -13.1,17.5 -11.6,0 -32,-17.5 -32,-17.5 0,0 20.4,-17.5 32,-17.5 11.6,0 13.1,13.1 13.1,17.5 z"
   id="path11362" />
		<path
   class="st16"
   d="m 84.7,143.5 c 3.8,2.2 14.4,10 8.6,20.1 -5.8,10.1 -31.1,19 -31.1,19 0,0 -4.9,-26.4 0.9,-36.5 5.7,-10 17.8,-4.7 21.6,-2.6 z"
   id="path11364" />
		<path
   class="st17"
   d="m 39.6,143.5 c 3.8,-2.2 15.8,-7.5 21.7,2.6 5.8,10.1 0.9,36.5 0.9,36.5 0,0 -25.3,-8.9 -31.1,-19 -5.9,-10.1 4.7,-17.9 8.5,-20.1 z"
   id="path11366" />
		<path
   class="st16"
   d="M 30.1,165.1 C 18.5,165.1 17,178.2 17,182.6 h 45.1 c 0,0 -20.4,-17.5 -32,-17.5 z"
   id="path11368" />
		<circle
   class="st8"
   cx="62.099998"
   cy="182.60001"
   r="13.1"
   id="circle11370" />
		<polygon
   class="st5"
   points="74.8,172 72.7,169.9 63.6,179.1 63.6,166.6 60.7,166.6 60.7,179.1 51.5,169.9 49.4,172 58.6,181.1 46.1,181.1 46.1,184.1 58.6,184.1 49.4,193.2 51.5,195.3 60.7,186.1 60.7,198.6 63.6,198.6 63.6,186.1 72.7,195.3 74.8,193.2 65.6,184.1 78.1,184.1 78.1,181.1 65.6,181.1 "
   id="polygon11372" />
		<g
   id="g11398">
			<g
   id="g11378">
				<circle
   class="st6"
   cx="62.099998"
   cy="166.60001"
   r="2.9000001"
   id="circle11374" />
				<circle
   class="st6"
   cx="62.099998"
   cy="198.60001"
   r="2.9000001"
   id="circle11376" />
			</g>
			<g
   id="g11384">
				<circle
   class="st6"
   cx="78.099998"
   cy="182.60001"
   r="2.9000001"
   id="circle11380" />
				<circle
   class="st6"
   cx="46.099998"
   cy="182.60001"
   r="2.9000001"
   id="circle11382" />
			</g>
			<g
   id="g11390">
				<circle
   class="st6"
   cx="50.799999"
   cy="171.3"
   r="2.9000001"
   id="circle11386" />
				<circle
   class="st6"
   cx="73.400002"
   cy="193.89999"
   r="2.9000001"
   id="circle11388" />
			</g>
			<g
   id="g11396">
				<circle
   class="st6"
   cx="73.400002"
   cy="171.3"
   r="2.9000001"
   id="circle11392" />
				<circle
   class="st6"
   cx="50.799999"
   cy="193.89999"
   r="2.9000001"
   id="circle11394" />
			</g>
		</g>
	</g>
	<path
   class="st9"
   d="m 107.2,182.6 c 0,-4.4 -1.5,-17.5 -13.1,-17.5 -0.7,0 -1.4,0.1 -2.1,0.2 0.4,-0.6 0.8,-1.1 1.2,-1.7 5.8,-10.1 -4.8,-17.9 -8.6,-20.1 -3.8,-2.2 -15.8,-7.5 -21.7,2.6 -0.3,0.6 -0.6,1.2 -0.9,1.9 -0.3,-0.7 -0.6,-1.3 -0.9,-1.9 -5.8,-10.1 -17.9,-4.8 -21.7,-2.6 -3.8,2.2 -14.4,10 -8.6,20.1 0.3,0.6 0.7,1.1 1.2,1.7 -0.7,-0.1 -1.4,-0.2 -2.1,-0.2 -11.6,0 -13.1,13.1 -13.1,17.5 0,4.4 1.5,17.5 13.1,17.5 0.7,0 1.4,-0.1 2.1,-0.2 -0.4,0.6 -0.8,1.1 -1.2,1.7 -5.8,10.1 4.8,17.9 8.6,20.1 3.8,2.2 15.8,7.5 21.7,-2.6 0.3,-0.6 0.6,-1.2 0.9,-1.9 0.3,0.7 0.6,1.3 0.9,1.9 5.8,10.1 17.9,4.8 21.7,2.6 3.8,-2.2 14.4,-10 8.6,-20.1 -0.3,-0.6 -0.7,-1.1 -1.2,-1.7 0.7,0.1 1.4,0.2 2.1,0.2 11.7,0 13.1,-13.1 13.1,-17.5 z"
   id="path11402" />
</g>
<g
   id="g11434"
   transform="translate(-3.0673523,0.19158903)">
	<g
   id="g11430">
		<g
   id="g11428">
			<path
   class="st18"
   d="m 329.1,181.8 c 0,12.5 -10.1,22.6 -22.6,22.6 -12.5,0 -22.5,-10.2 -22.5,-22.6 0,-29 22.6,-45.1 22.6,-45.1 0,0 22.5,16.1 22.5,45.1 z"
   id="path11406" />
			<path
   class="st19"
   d="m 306.5,204.3 c 0,0 -1.6,22.6 -25.8,22.6 h -11.3 c 0.1,0 4.9,-33.9 37.1,-22.6 z"
   id="path11408" />
			<path
   class="st20"
   d="m 306.5,204.3 c 0,0 -3.2,11.3 -25.8,11.3 -12.9,0 -16.1,-14.5 -24.2,-14.5 0.1,0 27.5,-22.6 50,3.2 z"
   id="path11410" />
			<path
   class="st21"
   d="m 306.5,204.3 c 0,0 -37.1,11.3 -38.7,-9.7 -1.6,-21 -11.3,-22.6 -11.3,-22.6 0,0 42,-14.4 50,32.3 z"
   id="path11412" />
			<path
   class="st19"
   d="m 306.5,204.3 c 0,0 1.6,22.6 25.8,22.6 h 11.3 c 0,0 -4.8,-33.9 -37.1,-22.6 z"
   id="path11414" />
			<path
   class="st20"
   d="m 306.5,204.3 c 0,0 3.2,11.3 25.8,11.3 12.9,0 16.1,-14.5 24.2,-14.5 0,0 -27.4,-22.6 -50,3.2 z"
   id="path11416" />
			<path
   class="st20"
   d="m 306.5,204.3 c -27.4,0 -33.8,-20.9 -30.6,-33.8 3.2,-12.9 -4.8,-17.7 -4.8,-17.7 0,0 35.4,-9.7 35.4,45.1 z"
   id="path11418" />
			<path
   class="st21"
   d="m 306.5,204.3 c 0,0 37.1,11.3 38.7,-9.7 1.6,-20.9 11.3,-22.6 11.3,-22.6 0,0 -41.9,-14.4 -50,32.3 z"
   id="path11420" />
			<path
   class="st20"
   d="m 306.5,204.3 c 27.4,0 33.8,-20.9 30.6,-33.8 -3.2,-12.9 4.8,-17.7 4.8,-17.7 0,0 -35.4,-9.7 -35.4,45.1 z"
   id="path11422" />
			<path
   class="st21"
   d="m 306.5,149.5 c 0,0 -3.9,8.6 -9.7,12.9 -6.4,4.8 -9.7,11.3 -9.7,20.9 0,9.6 4.8,20.9 19.3,20.9 14.5,0 19.3,-11.3 19.3,-20.9 0,-9.6 -3.2,-16.1 -9.7,-20.9 -5.6,-4.3 -9.5,-12.9 -9.5,-12.9 z"
   id="path11424" />
			<path
   class="st22"
   d="m 316.2,194.7 c 0,5.3 -4.3,9.7 -9.7,9.7 -5.4,0 -9.7,-4.3 -9.7,-9.7 0,-5.3 9.7,-25.8 9.7,-25.8 0,0 9.7,20.4 9.7,25.8 z"
   id="path11426" />
		</g>
	</g>
	<path
   class="st9"
   d="m 345.1,194.7 c 1.6,-20.9 11.3,-22.6 11.3,-22.6 0,0 -9,-3.1 -19.4,-1.8 -3.1,-12.7 4.9,-17.5 4.9,-17.5 0,0 -10.1,-2.7 -19.5,3 -6.7,-12.4 -16,-19.1 -16,-19.1 0,0 -9.3,6.7 -16,19.1 -9.4,-5.7 -19.5,-3 -19.5,-3 0,0 8,4.8 4.9,17.5 -10.4,-1.3 -19.4,1.8 -19.4,1.8 0,0 9.7,1.6 11.3,22.6 0,0 0,0 0,0.1 -6.8,2.7 -11.3,6.4 -11.3,6.4 6.5,0 9.8,9.3 17.5,13 -3.7,6.3 -4.6,12.8 -4.6,12.8 h 11.3 c 24.2,0 25.8,-22.6 25.8,-22.6 0,0 1.6,22.6 25.8,22.6 h 11.3 c 0,0 -0.9,-6.4 -4.6,-12.8 7.7,-3.7 11.1,-13 17.5,-13 -0.1,-0.1 -4.5,-3.8 -11.3,-6.5 0,0 0,0 0,0 z"
   id="path11432" />
</g>
<g
   id="g11458"
   transform="translate(-3.0673523,0.19158903)">
	<g
   id="g11454">
		<g
   id="g11452">
			<path
   class="st23"
   d="m 712,184.6 c -2.3,-2.4 10.7,-8.1 -1.4,-11.6 -4.5,-1.3 -10.5,-0.2 -16.4,1.6 27.1,-13.9 17,-21.7 13.3,-24.2 -4.5,-3 4.5,-13.4 -4.5,-13.4 -6,0 -8.9,4.5 -11.9,6 -3,1.5 -7.8,-7.4 -14.9,3 -2.6,3.8 -2.9,8.8 -3,14.9 -4.9,-30.1 -15.8,-19.2 -19.4,-16.4 -4.2,3.3 -10.6,-8.5 -13.4,0 -1.8,5.7 -0.5,10.1 0,13.4 0.5,3.3 -9.9,2.5 -2.2,12.4 2.8,3.6 9.7,6.3 15.4,8.3 -25.1,-2.8 -20.8,7.9 -19.2,12.1 1.9,5 -6,7.4 -6,13.4 0,6 10.1,0.9 13.4,1.5 3.3,0.5 -2.2,11.2 9.7,6.9 4,-1.4 7.9,-5.2 11.3,-9.5 -12.1,23.1 0,17.7 4.4,17.5 5.4,-0.2 3,8.9 10.4,8.9 6,0 5.9,-9 7.4,-11.9 1.5,-3 10.7,9.3 10.3,-3.3 -0.1,-4.4 -2.7,-9.4 -5.9,-14.1 19.4,19.6 19.8,6.8 21,2.5 1.5,-5.2 10.4,-0.7 10.4,-7.4 0.1,-4.7 -6.5,-8.2 -8.8,-10.6 z"
   id="path11436" />
			<polygon
   class="st14"
   points="683.2,182.3 689.5,176.7 681.1,177.5 692.6,154.8 676.2,172.7 671.8,166.7 670.3,175.6 659.8,166.7 667.4,178.8 659,179.6 666.3,183.9 646.4,195 668.4,188.7 666.6,197 672.9,191.4 676.2,212.9 678.1,190.9 685.4,195.1 682,187.4 704.5,192 "
   id="polygon11438" />
			<g
   id="g11450">
				<path
   class="st6"
   d="m 679.1,180.1 c 0,0 1.5,7.4 -6,6 0,0 -22.5,-23.4 -25.2,-44.7 -0.3,-2.6 3.4,-3.5 4.3,-1.1 3.8,9.8 14.8,32 26.9,39.8 z"
   id="path11440" />
				<circle
   class="st6"
   cx="652.40002"
   cy="165.2"
   r="3"
   id="circle11442" />
				<circle
   class="st6"
   cx="647.90002"
   cy="154.8"
   r="3"
   id="circle11444" />
				<circle
   class="st6"
   cx="661.29999"
   cy="148.89999"
   r="3"
   id="circle11446" />
				<circle
   class="st6"
   cx="665.79999"
   cy="157.8"
   r="3"
   id="circle11448" />
			</g>
		</g>
	</g>
	<path
   class="st9"
   d="m 712,184.6 c -2.3,-2.4 10.7,-8.1 -1.4,-11.6 -4.5,-1.3 -10.5,-0.2 -16.4,1.6 27.1,-13.9 17,-21.7 13.3,-24.2 -4.5,-3 4.5,-13.4 -4.5,-13.4 -6,0 -8.9,4.5 -11.9,6 -3,1.5 -7.8,-7.4 -14.9,3 -2.6,3.8 -2.9,8.8 -3,14.9 -4.9,-30 -15.8,-19.2 -19.3,-16.4 -0.7,-1.5 -1.2,-2.9 -1.7,-4 -0.9,-2.4 -4.6,-1.5 -4.3,1.1 0.1,0.7 0.2,1.3 0.3,2 -3.1,-1.9 -6.1,-4.2 -7.8,1 -1.8,5.7 -0.5,10.1 0,13.4 0.5,3.3 -9.9,2.5 -2.2,12.4 2.8,3.6 9.7,6.3 15.4,8.3 -25.1,-2.8 -20.8,7.9 -19.2,12.1 1.9,5 -6,7.4 -6,13.4 0,6 10.1,0.9 13.4,1.5 3.3,0.5 -2.2,11.2 9.7,6.9 4,-1.4 7.9,-5.2 11.3,-9.5 -12.1,23.1 0,17.7 4.4,17.5 5.4,-0.2 3,8.9 10.4,8.9 6,0 5.9,-9 7.4,-11.9 1.5,-3 10.7,9.3 10.3,-3.3 -0.1,-4.4 -2.7,-9.4 -5.9,-14.1 19.4,19.6 19.8,6.8 21,2.5 1.5,-5.2 10.4,-0.7 10.4,-7.4 0.1,-4.8 -6.5,-8.3 -8.8,-10.7 z"
   id="path11456" />
</g>
<g
   id="g11538"
   transform="translate(-245.75687,-478.31889)">
	<g
   id="g11534">
		<g
   id="g11502">
			<g
   id="g11500">
				<g
   id="g11476">
					<path
   class="st24"
   d="m 432,539.2 c 0,0 -5.7,-51.2 -20.4,-45.1 -14.7,6.1 17.5,46.3 17.5,46.3 z"
   id="path11460" />
					<path
   class="st24"
   d="m 431.1,538.3 c 0,0 -40.2,-32.2 -46.3,-17.5 -6.1,14.7 45.1,20.4 45.1,20.4 z"
   id="path11462" />
					<path
   class="st24"
   d="m 429.9,538.3 c 0,0 -51.2,5.7 -45.1,20.4 6.1,14.7 46.3,-17.5 46.3,-17.5 z"
   id="path11464" />
					<path
   class="st24"
   d="m 429,539.2 c 0,0 -32.2,40.2 -17.5,46.3 14.7,6.1 20.4,-45.1 20.4,-45.1 z"
   id="path11466" />
					<path
   class="st24"
   d="m 429,540.4 c 0,0 5.7,51.2 20.4,45.1 14.7,-6.1 -17.5,-46.3 -17.5,-46.3 z"
   id="path11468" />
					<path
   class="st24"
   d="m 429.9,541.3 c 0,0 40.2,32.2 46.3,17.5 6.1,-14.7 -45.1,-20.4 -45.1,-20.4 z"
   id="path11470" />
					<path
   class="st24"
   d="m 431.1,541.3 c 0,0 51.2,-5.7 45.1,-20.4 -6.1,-14.7 -46.3,17.5 -46.3,17.5 z"
   id="path11472" />
					<path
   class="st24"
   d="m 432,540.4 c 0,0 32.2,-40.2 17.5,-46.3 C 434.8,488 429,539.2 429,539.2 Z"
   id="path11474" />
				</g>
				<g
   id="g11494">
					<path
   class="st2"
   d="m 432.1,539.8 c 0,0 14.4,-49.5 -1.6,-49.5 -16,0 -1.6,49.5 -1.6,49.5 z"
   id="path11478" />
					<path
   class="st2"
   d="m 431.6,538.7 c 0,0 -24.8,-45.1 -36.1,-33.8 -11.3,11.3 33.8,36.1 33.8,36.1 z"
   id="path11480" />
					<path
   class="st2"
   d="m 430.5,538.2 c 0,0 -49.5,-14.4 -49.5,1.6 0,16 49.5,1.6 49.5,1.6 z"
   id="path11482" />
					<path
   class="st2"
   d="m 429.4,538.7 c 0,0 -45.1,24.8 -33.8,36.1 11.3,11.3 36.1,-33.8 36.1,-33.8 z"
   id="path11484" />
					<path
   class="st2"
   d="m 428.9,539.8 c 0,0 -14.4,49.5 1.6,49.5 16,0 1.6,-49.5 1.6,-49.5 z"
   id="path11486" />
					<path
   class="st2"
   d="m 429.4,540.9 c 0,0 24.8,45.1 36.1,33.8 11.3,-11.3 -33.8,-36.1 -33.8,-36.1 z"
   id="path11488" />
					<path
   class="st2"
   d="m 430.5,541.4 c 0,0 49.5,14.4 49.5,-1.6 0,-16 -49.5,-1.6 -49.5,-1.6 z"
   id="path11490" />
					<path
   class="st2"
   d="m 431.6,540.9 c 0,0 45.1,-24.8 33.8,-36.1 -11.3,-11.3 -36.1,33.8 -36.1,33.8 z"
   id="path11492" />
				</g>
				<g
   id="g11498">
					<circle
   class="st6"
   cx="430.5"
   cy="539.79999"
   r="11.2"
   id="circle11496" />
				</g>
			</g>
		</g>
		<g
   id="g11532">
			<g
   id="g11506">
				<rect
   x="425.70001"
   y="533.40002"
   class="st5"
   width="3.2"
   height="3.2"
   id="rect11504" />
			</g>
			<g
   id="g11510">
				<rect
   x="425.70001"
   y="543"
   class="st5"
   width="3.2"
   height="3.2"
   id="rect11508" />
			</g>
			<g
   id="g11514">
				<rect
   x="432.10001"
   y="543"
   class="st5"
   width="3.2"
   height="3.2"
   id="rect11512" />
			</g>
			<g
   id="g11518">
				<rect
   x="432.10001"
   y="533.40002"
   class="st5"
   width="3.2"
   height="3.2"
   id="rect11516" />
			</g>
			<g
   id="g11522">
				<rect
   x="428.89999"
   y="538.20001"
   class="st5"
   width="3.2"
   height="3.2"
   id="rect11520" />
			</g>
			<g
   id="g11526">
				<rect
   x="435.29999"
   y="538.20001"
   class="st5"
   width="3.2"
   height="3.2"
   id="rect11524" />
			</g>
			<g
   id="g11530">
				<rect
   x="422.5"
   y="538.20001"
   class="st5"
   width="3.2"
   height="3.2"
   id="rect11528" />
			</g>
		</g>
	</g>
	<path
   class="st9"
   d="m 480,539.8 c 0,-5.1 -5.1,-7.1 -11.9,-7.5 6.2,-3 10.1,-6.8 8.2,-11.5 -2,-4.7 -7.4,-4.6 -13.9,-2.3 4.6,-5.1 6.8,-10.1 3.2,-13.7 -3.6,-3.6 -8.6,-1.4 -13.7,3.2 2.3,-6.5 2.4,-11.9 -2.3,-13.9 -4.7,-2 -8.5,2 -11.5,8.2 -0.4,-6.9 -2.4,-11.9 -7.5,-11.9 -5.1,0 -7.1,5.1 -7.5,11.9 -3,-6.2 -6.8,-10.1 -11.5,-8.2 -4.7,1.9 -4.6,7.4 -2.3,13.9 -5.1,-4.6 -10.1,-6.8 -13.7,-3.2 -3.6,3.6 -1.4,8.6 3.2,13.7 -6.5,-2.3 -11.9,-2.4 -13.9,2.3 -2,4.7 2,8.5 8.2,11.5 -6.9,0.4 -11.9,2.4 -11.9,7.5 0,5.1 5.1,7.1 11.9,7.5 -6.2,3 -10.1,6.8 -8.2,11.5 2,4.7 7.4,4.6 13.9,2.3 -4.6,5.1 -6.8,10.1 -3.2,13.7 3.6,3.6 8.6,1.4 13.7,-3.2 -2.3,6.5 -2.4,11.9 2.3,13.9 4.7,2 8.5,-2 11.5,-8.2 0.4,6.9 2.4,11.9 7.5,11.9 5.1,0 7.1,-5.1 7.5,-11.9 3,6.2 6.8,10.1 11.5,8.2 4.7,-1.9 4.6,-7.4 2.3,-13.9 5.1,4.6 10.1,6.8 13.7,3.2 3.6,-3.6 1.4,-8.6 -3.2,-13.7 6.5,2.3 11.9,2.4 13.9,-2.3 2,-4.7 -2,-8.5 -8.2,-11.5 6.8,-0.4 11.9,-2.4 11.9,-7.5 z"
   id="path11536" />
</g>
<g
   id="g11556"
   transform="translate(-3.0673523,0.19158903)">
	<g
   id="g11552">
		<path
   class="st25"
   d="m 673.6,419.6 c 0,0 31.2,-19.7 6.6,-51 l -6.6,8.2 -6.6,-8.2 c -24.6,31.3 6.6,51 6.6,51 z"
   id="path11540" />
		<path
   class="st21"
   d="m 673.6,419.6 c 0,0 -9.1,-35.8 -46.4,-22 l 5.8,8.8 -9.9,3.7 c 22.1,33.2 50.5,9.5 50.5,9.5 z"
   id="path11542" />
		<path
   class="st26"
   d="m 673.6,419.6 c 0,0 -36.9,-2.4 -35.3,37.4 l 10.2,-2.8 0.5,10.5 c 38.3,-10.7 24.6,-45.1 24.6,-45.1 z"
   id="path11544" />
		<path
   class="st21"
   d="m 673.6,419.6 c 0,0 -13.7,34.3 24.6,45.1 l 0.5,-10.5 10.2,2.8 c 1.6,-39.8 -35.3,-37.4 -35.3,-37.4 z"
   id="path11546" />
		<path
   class="st26"
   d="m 673.6,419.6 c 0,0 28.4,23.6 50.5,-9.5 l -9.9,-3.7 5.8,-8.8 c -37.3,-13.8 -46.4,22 -46.4,22 z"
   id="path11548" />
		<path
   class="st27"
   d="m 698.3,408.1 c -1.7,0 -3.1,1.3 -3.3,3 l -19.8,6.3 v -21.2 c 1,-0.6 1.6,-1.6 1.6,-2.8 0,-1.8 -1.5,-3.3 -3.3,-3.3 -1.8,0 -3.3,1.5 -3.3,3.3 0,1.2 0.7,2.3 1.6,2.8 v 21.2 L 652,411.1 c -0.2,-1.7 -1.6,-3 -3.3,-3 -1.8,0 -3.3,1.5 -3.3,3.3 0,1.8 1.5,3.3 3.3,3.3 0.7,0 1.4,-0.2 1.9,-0.6 l 20.1,6.4 -13.3,18.9 c -0.2,0 -0.3,-0.1 -0.5,-0.1 -1.8,0 -3.3,1.5 -3.3,3.3 0,1.8 1.5,3.3 3.3,3.3 1.8,0 3.3,-1.5 3.3,-3.3 0,-0.4 -0.1,-0.8 -0.2,-1.2 l 13.4,-19 13.4,19 c -0.1,0.4 -0.2,0.7 -0.2,1.2 0,1.8 1.5,3.3 3.3,3.3 1.8,0 3.3,-1.5 3.3,-3.3 0,-1.8 -1.5,-3.3 -3.3,-3.3 -0.2,0 -0.3,0 -0.5,0.1 l -13.3,-18.9 20.1,-6.4 c 0.5,0.4 1.2,0.6 1.9,0.6 1.8,0 3.3,-1.5 3.3,-3.3 0.2,-1.8 -1.3,-3.3 -3.1,-3.3 z"
   id="path11550" />
	</g>
	<path
   class="st9"
   d="m 724.3,410.1 -9.9,-3.7 5.8,-8.8 c -14,-5.2 -24,-3.4 -31.1,0.9 1.9,-8 0.5,-18.2 -8.8,-29.9 l -6.6,8.2 -6.6,-8.2 c -9.3,11.7 -10.6,21.8 -8.8,29.9 -7.1,-4.3 -17.1,-6.1 -31.1,-0.9 l 5.8,8.8 -9.9,3.7 c 8.3,12.4 17.5,16.9 25.7,17.6 -6.3,5.4 -11.1,14.4 -10.5,29.3 l 10.2,-2.8 0.5,10.5 c 14.4,-4 21.4,-11.4 24.6,-19 3.2,7.6 10.3,15 24.6,19 l 0.5,-10.5 10.2,2.8 c 0.6,-14.9 -4.2,-23.9 -10.5,-29.3 8.5,-0.8 17.6,-5.2 25.9,-17.6 z"
   id="path11554" />
</g>
<g
   id="g11592"
   transform="translate(-1.9225904,-120.00841)">
	<g
   id="g11588">
		<g
   id="g11562">
			<path
   class="st2"
   d="m 230.2,529.5 c -4.2,-13 -17.7,-10.3 -23.1,-2.2 -2.7,4.1 -8.8,6.9 -14.1,8.6 18.3,-20 7,-41.8 -5.5,-41.8 -13.7,0 -15.3,13.7 -9.2,21.3 3.1,3.9 3.9,10.5 3.9,16.1 -13.4,-23.6 -37.6,-19.6 -41.5,-7.7 -4.2,13 8.3,18.8 17.4,15.4 4.6,-1.7 11.2,-0.4 16.5,1.3 -26.6,5.5 -30.3,29.7 -20.1,37.1 11.1,8 20.4,-2.1 20,-11.8 -0.2,-4.9 3,-10.7 6.3,-15.3 -3,27 18.9,38 29.1,30.6 11.1,-8 4.4,-20.1 -5,-22.6 -4.8,-1.3 -9.3,-6.2 -12.6,-10.7 24.6,11 41.8,-6.4 37.9,-18.3 z"
   id="path11558" />
			<circle
   class="st6"
   cx="184.5"
   cy="541.09998"
   r="4.5999999"
   id="circle11560" />
		</g>
		<g
   id="g11586">
			<g
   id="g11584">
				<g
   id="g11566">
					<path
   class="st28"
   d="m 187.6,533.5 c -0.2,0 -0.5,-0.1 -0.7,-0.2 -0.7,-0.4 -1.1,-1.3 -0.7,-2 0,-0.1 4.3,-8.7 2.9,-14.1 -0.2,-0.8 0.3,-1.6 1.1,-1.8 0.8,-0.2 1.6,0.3 1.8,1.1 1.6,6.5 -3,15.8 -3.2,16.2 -0.2,0.5 -0.7,0.8 -1.2,0.8 z"
   id="path11564" />
				</g>
				<g
   id="g11570">
					<path
   class="st28"
   d="m 176.8,536.9 c -0.4,0 -0.8,-0.1 -1.1,-0.4 -0.1,-0.1 -6.9,-6.8 -12.5,-7.1 -0.8,-0.1 -1.5,-0.8 -1.4,-1.6 0.1,-0.8 0.8,-1.4 1.6,-1.4 6.7,0.5 14.2,7.7 14.5,8 0.6,0.6 0.6,1.6 0,2.1 -0.3,0.3 -0.7,0.4 -1.1,0.4 z"
   id="path11568" />
				</g>
				<g
   id="g11574">
					<path
   class="st28"
   d="m 165.3,558.7 c -0.2,0 -0.4,0 -0.6,-0.1 -0.8,-0.3 -1.2,-1.2 -0.8,-2 2.5,-6.3 11.7,-11.1 12.1,-11.3 0.7,-0.4 1.7,-0.1 2,0.6 0.4,0.7 0.1,1.7 -0.6,2 -0.1,0 -8.6,4.5 -10.7,9.7 -0.2,0.8 -0.8,1.1 -1.4,1.1 z"
   id="path11572" />
				</g>
				<g
   id="g11578">
					<path
   class="st28"
   d="m 193.9,565.9 c -0.3,0 -0.7,-0.1 -1,-0.4 -5.2,-4.3 -6.9,-14.6 -7,-15 -0.1,-0.8 0.4,-1.6 1.2,-1.7 0.8,-0.1 1.6,0.4 1.7,1.2 0,0.1 1.6,9.5 5.9,13.2 0.6,0.5 0.7,1.5 0.2,2.1 -0.2,0.4 -0.6,0.6 -1,0.6 z"
   id="path11576" />
				</g>
				<g
   id="g11582">
					<path
   class="st28"
   d="m 199.4,543.1 c -3,0 -5.3,-0.3 -5.5,-0.4 -0.8,-0.1 -1.4,-0.9 -1.3,-1.7 0.1,-0.8 0.9,-1.4 1.7,-1.3 0.1,0 9.6,1.4 14.4,-1.6 0.7,-0.4 1.6,-0.2 2.1,0.5 0.4,0.7 0.2,1.6 -0.5,2.1 -3.1,1.9 -7.5,2.4 -10.9,2.4 z"
   id="path11580" />
				</g>
			</g>
		</g>
	</g>
	<path
   class="st9"
   d="m 230,529.5 c -4.2,-13 -17.7,-10.3 -23.1,-2.2 -2.7,4.1 -8.8,6.9 -14.1,8.6 18.3,-20 7,-41.8 -5.5,-41.8 -13.7,0 -15.3,13.7 -9.2,21.3 3.1,3.9 3.9,10.5 3.9,16.1 -13.4,-23.6 -37.6,-19.6 -41.5,-7.7 -4.2,13 8.3,18.8 17.4,15.4 4.6,-1.7 11.2,-0.4 16.5,1.3 -26.6,5.5 -30.3,29.7 -20.1,37.1 11.1,8 20.4,-2.1 20,-11.8 -0.2,-4.9 3,-10.7 6.3,-15.3 -3,27 18.9,38 29.1,30.6 11.1,-8 4.4,-20.1 -5,-22.6 -4.8,-1.3 -9.3,-6.2 -12.6,-10.7 24.5,11 41.8,-6.4 37.9,-18.3 z"
   id="path11590" />
</g>
<g
   id="g11652"
   transform="translate(-7.0806853,-479.17412)">
	<g
   id="g11648">
		<g
   id="g11646">
			<g
   id="g11596">
				<path
   class="st19"
   d="m 824,589.2 c -1.5,0.9 -3.5,0.4 -4.3,-1.2 l -47.5,-82.4 c -0.9,-1.5 -0.4,-3.5 1.2,-4.3 1.5,-0.9 3.5,-0.4 4.3,1.2 l 47.5,82.4 c 0.8,1.5 0.3,3.5 -1.2,4.3 z"
   id="path11594" />
			</g>
			<g
   id="g11604">
				<path
   class="st29"
   d="m 768,491.7 c 4.1,-2.4 15,13.3 15,13.3 l -3.9,5.9 -7.1,0.4 c 0,0 -8.1,-17.3 -4,-19.6 z"
   id="path11598" />
				<path
   class="st30"
   d="m 780.7,513.6 -10.5,1.5 c -3.8,0.6 -7.6,-1.3 -9.6,-4.7 l -1.5,-2.7 10.5,-1.5 c 3.8,-0.6 7.6,1.3 9.6,4.7 z"
   id="path11600" />
				<path
   class="st30"
   d="m 780.7,513.6 6.6,-8.4 c 2.4,-3.1 2.7,-7.3 0.8,-10.6 l -1.5,-2.7 -6.6,8.4 c -2.4,3.1 -2.7,7.3 -0.8,10.6 z"
   id="path11602" />
			</g>
			<g
   id="g11612">
				<path
   class="st29"
   d="m 775.1,504 c 4.1,-2.4 15,13.3 15,13.3 l -3.9,5.9 -7.1,0.4 c 0,0 -8.1,-17.2 -4,-19.6 z"
   id="path11606" />
				<path
   class="st30"
   d="m 787.8,526 -10.5,1.5 c -3.8,0.6 -7.6,-1.3 -9.6,-4.7 l -1.5,-2.7 10.5,-1.5 c 3.8,-0.6 7.6,1.3 9.6,4.7 z"
   id="path11608" />
				<path
   class="st30"
   d="m 787.8,526 6.6,-8.4 c 2.4,-3.1 2.7,-7.3 0.8,-10.6 l -1.5,-2.7 -6.6,8.4 c -2.4,3.1 -2.7,7.3 -0.8,10.6 z"
   id="path11610" />
			</g>
			<g
   id="g11620">
				<path
   class="st29"
   d="m 782.3,516.4 c 4.1,-2.4 15,13.3 15,13.3 l -3.9,5.9 -7.1,0.4 c 0,0 -8.2,-17.3 -4,-19.6 z"
   id="path11614" />
				<path
   class="st30"
   d="m 794.9,538.3 -10.5,1.5 c -3.8,0.6 -7.6,-1.3 -9.6,-4.7 l -1.5,-2.7 10.5,-1.5 c 3.8,-0.6 7.6,1.3 9.6,4.7 z"
   id="path11616" />
				<path
   class="st30"
   d="m 794.9,538.3 6.6,-8.4 c 2.4,-3.1 2.7,-7.3 0.8,-10.6 l -1.5,-2.7 -6.6,8.4 c -2.4,3.1 -2.7,7.3 -0.8,10.6 z"
   id="path11618" />
			</g>
			<g
   id="g11628">
				<path
   class="st29"
   d="m 789.4,528.7 c 4.1,-2.4 15,13.3 15,13.3 l -3.9,5.9 -7.1,0.4 c 0,0 -8.1,-17.2 -4,-19.6 z"
   id="path11622" />
				<path
   class="st30"
   d="m 802.1,550.7 -10.5,1.5 c -3.8,0.6 -7.6,-1.3 -9.6,-4.7 l -1.5,-2.7 10.5,-1.5 c 3.8,-0.6 7.6,1.3 9.6,4.7 z"
   id="path11624" />
				<path
   class="st30"
   d="m 802.1,550.7 6.6,-8.4 c 2.4,-3.1 2.7,-7.3 0.8,-10.6 l -1.5,-2.7 -6.6,8.4 c -2.4,3.1 -2.7,7.3 -0.8,10.6 z"
   id="path11626" />
			</g>
			<g
   id="g11636">
				<path
   class="st29"
   d="m 796.5,541.1 c 4.1,-2.4 15,13.3 15,13.3 l -3.9,5.9 -7.1,0.4 c 0,0 -8.1,-17.3 -4,-19.6 z"
   id="path11630" />
				<path
   class="st30"
   d="m 809.2,563 -10.5,1.5 c -3.8,0.6 -7.6,-1.3 -9.6,-4.7 l -1.5,-2.7 10.5,-1.5 c 3.8,-0.6 7.6,1.3 9.6,4.7 z"
   id="path11632" />
				<path
   class="st30"
   d="m 809.2,563 6.6,-8.4 c 2.4,-3.1 2.7,-7.3 0.8,-10.6 l -1.5,-2.7 -6.6,8.4 c -2.4,3.1 -2.7,7.3 -0.8,10.6 z"
   id="path11634" />
			</g>
			<g
   id="g11644">
				<path
   class="st29"
   d="m 803.6,553.4 c 4.1,-2.4 15,13.3 15,13.3 l -3.9,5.9 -7.1,0.4 c 0.1,0.1 -8.1,-17.2 -4,-19.6 z"
   id="path11638" />
				<path
   class="st30"
   d="m 816.3,575.4 -10.5,1.5 c -3.8,0.6 -7.6,-1.3 -9.6,-4.7 l -1.5,-2.7 10.5,-1.5 c 3.8,-0.6 7.6,1.3 9.6,4.7 z"
   id="path11640" />
				<path
   class="st30"
   d="m 816.3,575.4 6.6,-8.4 c 2.4,-3.1 2.7,-7.3 0.8,-10.6 l -1.5,-2.7 -6.6,8.4 c -2.4,3.1 -2.7,7.3 -0.8,10.6 z"
   id="path11642" />
			</g>
		</g>
	</g>
	<path
   class="st9"
   d="m 825.2,584.9 -6.9,-12 4.7,-5.9 c 2.4,-3.1 2.7,-7.3 0.8,-10.6 l -1.5,-2.7 -6.6,8.4 c -0.1,0.1 -0.1,0.2 -0.2,0.3 -0.9,-1.1 -1.9,-2.3 -2.9,-3.5 l 3.3,-4.2 c 2.4,-3.1 2.7,-7.3 0.8,-10.6 l -1.5,-2.7 -6.6,8.4 c -0.1,0.1 -0.1,0.2 -0.2,0.3 -0.9,-1.1 -1.9,-2.3 -2.9,-3.5 l 3.3,-4.2 c 2.4,-3.1 2.7,-7.3 0.8,-10.6 l -1.5,-2.7 -6.6,8.4 c -0.1,0.1 -0.1,0.2 -0.2,0.3 -0.9,-1.1 -1.9,-2.3 -2.9,-3.5 l 3.3,-4.2 c 2.4,-3.1 2.7,-7.3 0.8,-10.6 l -1.5,-2.7 -6.6,8.4 c -0.1,0.1 -0.1,0.2 -0.2,0.3 -0.9,-1.1 -1.9,-2.3 -2.9,-3.5 l 3.3,-4.2 c 2.4,-3.1 2.7,-7.3 0.8,-10.6 l -1.5,-2.7 -6.6,8.4 c -0.1,0.1 -0.1,0.2 -0.2,0.3 -0.9,-1.1 -1.9,-2.3 -2.9,-3.5 l 3.3,-4.2 c 2.4,-3.1 2.7,-7.3 0.8,-10.6 l -1.5,-2.7 -6.6,8.4 c -0.1,0.1 -0.1,0.2 -0.2,0.3 -3.5,-4.4 -9.1,-10.5 -11.7,-8.9 -2.7,1.5 -0.2,9.3 1.9,14.6 -0.1,0 -0.2,0 -0.3,0 l -10.5,1.5 1.5,2.7 c 1.9,3.4 5.7,5.2 9.6,4.7 l 5.3,-0.8 c 0.5,1.5 1,3 1.5,4.3 -0.1,0 -0.2,0 -0.3,0 l -10.5,1.5 1.5,2.7 c 1.9,3.4 5.7,5.2 9.6,4.7 l 5.3,-0.8 c 0.5,1.5 1,3 1.5,4.3 -0.1,0 -0.2,0 -0.3,0 l -10.5,1.5 1.5,2.7 c 1.9,3.4 5.7,5.2 9.6,4.7 l 5.3,-0.8 c 0.5,1.5 1,3 1.5,4.3 -0.1,0 -0.2,0 -0.3,0 l -10.5,1.5 1.5,2.7 c 1.9,3.4 5.7,5.2 9.6,4.7 l 5.3,-0.8 c 0.5,1.5 1,3 1.5,4.3 -0.1,0 -0.2,0 -0.3,0 l -10.5,1.5 1.5,2.7 c 1.9,3.4 5.7,5.2 9.6,4.7 l 5.3,-0.8 c 0.5,1.5 1,3 1.5,4.3 -0.1,0 -0.2,0 -0.3,0 l -10.5,1.5 1.5,2.7 c 1.9,3.4 5.7,5.2 9.6,4.7 l 6.8,-1 7,12.2 c 0.9,1.5 2.8,2 4.3,1.2 1.4,-1.5 1.9,-3.5 1.1,-5 z"
   id="path11650" />
</g>
</svg>
