<?xml version="1.0" encoding="UTF-8" standalone="no"?>
<!-- Created with Inkscape (http://www.inkscape.org/) -->

<svg
   width="32.216125mm"
   height="32.485287mm"
   viewBox="0 0 32.216125 32.485287"
   version="1.1"
   id="svg12082"
   inkscape:version="1.2.2 (732a01da63, 2022-12-09)"
   sodipodi:docname="flower_sel.svg"
   xmlns:inkscape="http://www.inkscape.org/namespaces/inkscape"
   xmlns:sodipodi="http://sodipodi.sourceforge.net/DTD/sodipodi-0.dtd"
   xmlns="http://www.w3.org/2000/svg"
   xmlns:svg="http://www.w3.org/2000/svg">
  <sodipodi:namedview
     id="namedview12084"
     pagecolor="#ffffff"
     bordercolor="#000000"
     borderopacity="0.25"
     inkscape:showpageshadow="2"
     inkscape:pageopacity="0.0"
     inkscape:pagecheckerboard="0"
     inkscape:deskcolor="#d1d1d1"
     inkscape:document-units="mm"
     showgrid="false"
     inkscape:zoom="0.46769781"
     inkscape:cx="281.16445"
     inkscape:cy="17.105062"
     inkscape:window-width="1366"
     inkscape:window-height="705"
     inkscape:window-x="-8"
     inkscape:window-y="-8"
     inkscape:window-maximized="1"
     inkscape:current-layer="layer1" />
  <defs
     id="defs12079" />
  <g
     inkscape:label="Στρώση 1"
     inkscape:groupmode="layer"
     id="layer1"
     transform="translate(-31.268436,-144.42021)">
    <g
       transform="matrix(0.21385968,0,0,0.21385968,31.311208,160.71632)"
       id="g10689">
		<g
   id="g10687">
			<g
   id="g10685">
				<g
   id="Duplicate_Items_Folder_Symbol_4_0_Layer0_0_FILL_00000081647693810739387920000016970750400242393503_">
					<path
   class="st0"
   d="m 150.3,-76.1 c -0.1,-0.1 -0.2,-0.1 -0.3,-0.1 H 0.2 c -0.1,0 -0.3,0.1 -0.3,0.1 -0.1,0.1 -0.1,0.2 -0.1,0.4 V 75.2 c 0,0.1 0.1,0.3 0.1,0.4 0.1,0.1 0.2,0.1 0.3,0.1 H 150 c 0.1,0 0.3,-0.1 0.3,-0.1 0.1,-0.1 0.1,-0.2 0.1,-0.4 V -75.7 c 0.1,-0.2 0,-0.3 -0.1,-0.4 M 0.7,-75.2 H 149.4 V 74.7 H 0.7 Z"
   id="path10674"
   style="fill:#444444" />

					<path
   class="st1"
   d="M 149.5,-75.2 H 0.7 V 74.7 H 149.4 V -75.2 m -0.7,0.5 v 0.2 l 0.2,-0.2 V 73.9 H 1.7 1.5 V -74.7 Z"
   id="path10676"
   style="fill:#f8e8ce" />

					<path
   class="st2"
   d="m 142.3,-67.9 6.4,-6.5 v -0.2 H 1.5 V 73.9 H 1.7 L 8.1,67.5 V -67.9 Z"
   id="path10678"
   style="fill:#ffffff" />

					<path
   class="st3"
   d="m 142.3,-67.9 v 0 L 142.2,67.2 H 8.5 L 8.2,67.5 1.8,73.9 H 149 V -74.7 l -0.2,0.2 z"
   id="path10680"
   style="fill:#e1d3b8" />

					<path
   class="st4"
   d="m 142.2,-67.8 v 0 L 8.2,-67.9 V 67.5 l 0.3,-0.3 h 133.7 z"
   id="path10682"
   style="fill:#f1e8de" />

				</g>

			</g>

		</g>

	</g>
    <g
       id="g11264"
       transform="matrix(0.26458333,0,0,0.26458333,-65.989312,81.169344)">
	<g
   id="g11260">
		<g
   id="g11228">
			<g
   id="g11200">
				<path
   class="st10"
   d="m 383.3,285.8 c 0,0 5.7,-17.5 24.8,-11.3 19.1,6.2 24.6,27.4 24.6,27.4 0,0 -16.9,13.9 -36,7.7 -19.1,-6.2 -13.4,-23.8 -13.4,-23.8 z"
   id="path11198"
   style="fill:#22a5d6" />

			</g>

			<g
   id="g11204">
				<path
   class="st11"
   d="m 402.1,343.9 c 0,0 -14.9,-10.8 -3.1,-27.1 11.8,-16.3 33.6,-14.9 33.6,-14.9 0,0 8,20.3 -3.8,36.6 -11.8,16.3 -26.7,5.4 -26.7,5.4 z"
   id="path11202"
   style="fill:#269bc7" />

			</g>

			<g
   id="g11208">
				<path
   class="st12"
   d="m 463.2,343.9 c 0,0 -14.9,10.8 -26.7,-5.4 -11.8,-16.2 -3.8,-36.6 -3.8,-36.6 0,0 21.8,-1.3 33.6,14.9 11.8,16.2 -3.1,27.1 -3.1,27.1 z"
   id="path11206"
   style="fill:#32addb" />

			</g>

			<g
   id="g11212">
				<path
   class="st13"
   d="m 482.1,285.8 c 0,0 5.7,17.5 -13.4,23.7 -19.1,6.2 -36,-7.7 -36,-7.7 0,0 5.5,-21.2 24.6,-27.4 19.1,-6.1 24.8,11.4 24.8,11.4 z"
   id="path11210"
   style="fill:#2fa3cf" />

			</g>

			<g
   id="g11216">
				<path
   class="st12"
   d="m 432.7,250 c 0,0 18.4,0 18.4,20.1 0,20.1 -18.4,31.8 -18.4,31.8 0,0 -18.4,-11.7 -18.4,-31.8 C 414.2,250 432.7,250 432.7,250 Z"
   id="path11214"
   style="fill:#32addb" />

			</g>

			<g
   id="g11220">
				<path
   class="st10"
   d="m 383.3,285.8 c 0,0 5.7,-17.5 24.8,-11.3 19.1,6.2 24.6,27.4 24.6,27.4 z"
   id="path11218"
   style="fill:#22a5d6" />

			</g>

			<g
   id="g11226">
				<path
   class="st14"
   d="m 447.7,301.9 c 0,-2.3 -1.5,-4.1 -3.5,-4.8 1,-1.9 0.7,-4.3 -0.9,-5.9 -1.6,-1.6 -4,-1.9 -5.9,-0.9 -0.6,-2 -2.5,-3.5 -4.8,-3.5 -2.3,0 -4.1,1.5 -4.8,3.5 -1.9,-1 -4.3,-0.7 -5.9,0.9 -1.6,1.6 -1.9,4 -0.9,5.9 -2,0.6 -3.5,2.5 -3.5,4.8 0,2.3 1.5,4.1 3.5,4.8 -1,1.9 -0.7,4.3 0.9,5.9 1.6,1.6 4,1.9 5.9,0.9 0.6,2 2.5,3.5 4.8,3.5 2.3,0 4.1,-1.5 4.8,-3.5 1.9,1 4.3,0.7 5.9,-0.9 1.6,-1.6 1.9,-4 0.9,-5.9 2.1,-0.7 3.5,-2.6 3.5,-4.8 z"
   id="path11222"
   style="fill:#f8ead3" />

				<circle
   class="st6"
   cx="432.70001"
   cy="301.89999"
   r="6.6999998"
   id="circle11224"
   style="fill:#fac437" />

			</g>

		</g>

		<g
   id="g11234">
			<g
   id="g11232">
				<path
   class="st15"
   d="m 432.7,278.4 c -0.9,0 -1.7,-0.7 -1.7,-1.7 v -10.1 c 0,-0.9 0.7,-1.7 1.7,-1.7 1,0 1.7,0.7 1.7,1.7 v 10.1 c -0.1,1 -0.8,1.7 -1.7,1.7 z"
   id="path11230"
   style="fill:#71d6fc" />

			</g>

		</g>

		<g
   id="g11240">
			<g
   id="g11238">
				<path
   class="st15"
   d="m 408.8,295.8 c -0.2,0 -0.3,0 -0.5,-0.1 l -9.6,-3.1 c -0.9,-0.3 -1.4,-1.2 -1.1,-2.1 0.3,-0.9 1.2,-1.4 2.1,-1.1 l 9.6,3.1 c 0.9,0.3 1.4,1.2 1.1,2.1 -0.3,0.8 -0.9,1.2 -1.6,1.2 z"
   id="path11236"
   style="fill:#71d6fc" />

			</g>

		</g>

		<g
   id="g11246">
			<g
   id="g11244">
				<path
   class="st15"
   d="m 412,332 c -0.3,0 -0.7,-0.1 -1,-0.3 -0.7,-0.5 -0.9,-1.6 -0.4,-2.3 l 5.9,-8.1 c 0.5,-0.7 1.6,-0.9 2.3,-0.4 0.7,0.5 0.9,1.6 0.4,2.3 l -5.9,8.1 c -0.3,0.5 -0.8,0.7 -1.3,0.7 z"
   id="path11242"
   style="fill:#71d6fc" />

			</g>

		</g>

		<g
   id="g11252">
			<g
   id="g11250">
				<path
   class="st15"
   d="m 453.4,332 c -0.5,0 -1,-0.2 -1.4,-0.7 l -5.9,-8.1 c -0.5,-0.7 -0.4,-1.8 0.4,-2.3 0.7,-0.5 1.8,-0.4 2.3,0.4 l 5.9,8.1 c 0.5,0.7 0.4,1.8 -0.4,2.3 -0.3,0.2 -0.6,0.3 -0.9,0.3 z"
   id="path11248"
   style="fill:#71d6fc" />

			</g>

		</g>

		<g
   id="g11258">
			<g
   id="g11256">
				<path
   class="st15"
   d="m 456.6,295.8 c -0.7,0 -1.4,-0.4 -1.6,-1.2 -0.3,-0.9 0.2,-1.8 1.1,-2.1 l 9.6,-3.1 c 0.9,-0.3 1.8,0.2 2.1,1.1 0.3,0.9 -0.2,1.8 -1.1,2.1 l -9.6,3.1 c -0.2,0.1 -0.4,0.1 -0.5,0.1 z"
   id="path11254"
   style="fill:#71d6fc" />

			</g>

		</g>

	</g>

	<path
   class="st9"
   d="m 481.8,285.8 c 0,0 -5.7,-17.5 -24.8,-11.3 -2.6,0.9 -5,2 -7.1,3.3 0.6,-2.4 1,-5 1,-7.8 0,-20.1 -18.4,-20.1 -18.4,-20.1 0,0 -18.4,0 -18.4,20.1 0,2.8 0.4,5.3 1,7.8 -2.1,-1.3 -4.5,-2.5 -7.1,-3.3 -19.1,-6.2 -24.8,11.3 -24.8,11.3 0,0 -5.7,17.5 13.4,23.7 2.6,0.9 5.2,1.3 7.7,1.5 -1.9,1.6 -3.7,3.5 -5.3,5.7 -11.8,16.3 3.1,27.1 3.1,27.1 0,0 14.9,10.8 26.7,-5.4 1.6,-2.2 2.9,-4.5 3.8,-6.9 0.9,2.3 2.2,4.6 3.8,6.9 11.8,16.3 26.7,5.4 26.7,5.4 0,0 14.9,-10.8 3.1,-27.1 -1.6,-2.2 -3.4,-4.1 -5.3,-5.7 2.5,-0.2 5.1,-0.6 7.7,-1.5 18.9,-6.2 13.2,-23.7 13.2,-23.7 z"
   id="path11262"
   style="fill:none;stroke:#634653;stroke-miterlimit:10" />

</g>
  </g>
</svg>
