<?xml version="1.0" encoding="UTF-8" standalone="no"?>
<!-- Created with Inkscape (http://www.inkscape.org/) -->

<svg
   width="32.463898mm"
   height="32.463898mm"
   viewBox="0 0 32.463898 32.463898"
   version="1.1"
   id="svg15396"
   inkscape:version="1.2.2 (732a01da63, 2022-12-09)"
   sodipodi:docname="fruits_sel.svg"
   xmlns:inkscape="http://www.inkscape.org/namespaces/inkscape"
   xmlns:sodipodi="http://sodipodi.sourceforge.net/DTD/sodipodi-0.dtd"
   xmlns:xlink="http://www.w3.org/1999/xlink"
   xmlns="http://www.w3.org/2000/svg"
   xmlns:svg="http://www.w3.org/2000/svg">
  <sodipodi:namedview
     id="namedview15398"
     pagecolor="#ffffff"
     bordercolor="#000000"
     borderopacity="0.25"
     inkscape:showpageshadow="2"
     inkscape:pageopacity="0.0"
     inkscape:pagecheckerboard="0"
     inkscape:deskcolor="#d1d1d1"
     inkscape:document-units="mm"
     showgrid="false"
     inkscape:zoom="0.46769781"
     inkscape:cx="-234.12553"
     inkscape:cy="21.381327"
     inkscape:window-width="1366"
     inkscape:window-height="705"
     inkscape:window-x="-8"
     inkscape:window-y="-8"
     inkscape:window-maximized="1"
     inkscape:current-layer="layer1" />
  <defs
     id="defs15393">
    <clipPath
       id="SVGID_00000105397985495146952290000009886418882287162761_">
				<use
   xlink:href="#SVGID_00000062878341637693446860000004458754623519313830_"
   style="overflow:visible"
   id="use14528" />

			</clipPath>
    <clipPath
       id="SVGID_00000172424935420623186380000009347996967854921869_">
				<use
   xlink:href="#SVGID_00000107574526671702199910000002221100954925651886_"
   style="overflow:visible"
   id="use14562" />

			</clipPath>
    <clipPath
       id="clipPath15131">
				<use
   xlink:href="#SVGID_00000107574526671702199910000002221100954925651886_"
   style="overflow:visible"
   id="use15129" />

			</clipPath>
    <clipPath
       id="clipPath15135">
				<use
   xlink:href="#SVGID_00000107574526671702199910000002221100954925651886_"
   style="overflow:visible"
   id="use15133" />

			</clipPath>
    <clipPath
       id="clipPath15139">
				<use
   xlink:href="#SVGID_00000107574526671702199910000002221100954925651886_"
   style="overflow:visible"
   id="use15137" />

			</clipPath>
    <clipPath
       id="clipPath15143">
				<use
   xlink:href="#SVGID_00000107574526671702199910000002221100954925651886_"
   style="overflow:visible"
   id="use15141" />

			</clipPath>
    <clipPath
       id="SVGID_00000059284303699298818810000012779803828142237866_">
				<use
   xlink:href="#SVGID_00000149356730750592781620000005200099087887522726_"
   style="overflow:visible"
   id="use14590" />

			</clipPath>
    <clipPath
       id="clipPath15149">
				<use
   xlink:href="#SVGID_00000149356730750592781620000005200099087887522726_"
   style="overflow:visible"
   id="use15147" />

			</clipPath>
    <clipPath
       id="SVGID_00000092439666966730641650000016559394459205130637_">
				<use
   xlink:href="#SVGID_00000183934467505080173170000013686508064921841053_"
   style="overflow:visible"
   id="use14602" />

			</clipPath>
    <clipPath
       id="SVGID_00000018953823902320809560000010711432389495861127_">
				<use
   xlink:href="#SVGID_00000096776062553465473910000005189147936789463426_"
   style="overflow:visible"
   id="use14622" />

			</clipPath>
    <clipPath
       id="clipPath15157">
				<use
   xlink:href="#SVGID_00000096776062553465473910000005189147936789463426_"
   style="overflow:visible"
   id="use15155" />

			</clipPath>
    <clipPath
       id="clipPath15161">
				<use
   xlink:href="#SVGID_00000096776062553465473910000005189147936789463426_"
   style="overflow:visible"
   id="use15159" />

			</clipPath>
    <clipPath
       id="SVGID_00000029035312216035335100000016505417746822601392_">
				<use
   xlink:href="#SVGID_00000093147584023202640540000002008243310198173580_"
   style="overflow:visible"
   id="use14640" />

			</clipPath>
    <clipPath
       id="SVGID_00000168092885085545907660000001885118396919115679_">
				<use
   xlink:href="#SVGID_00000142884472272109277460000011404879812412476859_"
   style="overflow:visible"
   id="use14650" />

			</clipPath>
    <path
       id="SVGID_00000062878341637693446860000004458754623519313830_"
       d="m 547.9,271 c 13.8,-4 30.2,-1.2 39.3,10.3 4.5,5.6 6.6,9.4 7.4,16.6 1,9.1 1,15 -3.7,23 -1.5,2.7 -6.9,6.9 -9.4,8.6 -4.5,3 -10,3.5 -15.3,3.6 -6,0.1 -12,-0.4 -18,-1.3 -5,-0.8 -10,-2 -14.3,-4.6 -8.8,-5.3 -16.6,-20 -13.3,-30.8 4,-12.9 15.2,-21.9 27.3,-25.4 z" />
    <path
       id="SVGID_00000107574526671702199910000002221100954925651886_"
       d="m 547.9,271 c 13.8,-4 30.2,-1.2 39.3,10.3 4.5,5.6 6.6,9.4 7.4,16.6 1,9.1 1,15 -3.7,23 -1.5,2.7 -6.9,6.9 -9.4,8.6 -4.5,3 -10,3.5 -15.3,3.6 -6,0.1 -12,-0.4 -18,-1.3 -5,-0.8 -10,-2 -14.3,-4.6 -8.8,-5.3 -16.6,-20 -13.3,-30.8 4,-12.9 15.2,-21.9 27.3,-25.4 z" />
    <path
       id="SVGID_00000149356730750592781620000005200099087887522726_"
       d="m 547.9,271 c 13.8,-4 30.2,-1.2 39.3,10.3 4.5,5.6 6.6,9.4 7.4,16.6 1,9.1 1,15 -3.7,23 -1.5,2.7 -6.9,6.9 -9.4,8.6 -4.5,3 -10,3.5 -15.3,3.6 -6,0.1 -12,-0.4 -18,-1.3 -5,-0.8 -10,-2 -14.3,-4.6 -8.8,-5.3 -16.6,-20 -13.3,-30.8 4,-12.9 15.2,-21.9 27.3,-25.4 z" />
    <path
       id="SVGID_00000183934467505080173170000013686508064921841053_"
       d="m 547.9,271 c 13.8,-4 30.2,-1.2 39.3,10.3 4.5,5.6 6.6,9.4 7.4,16.6 1,9.1 1,15 -3.7,23 -1.5,2.7 -6.9,6.9 -9.4,8.6 -4.5,3 -10,3.5 -15.3,3.6 -6,0.1 -12,-0.4 -18,-1.3 -5,-0.8 -10,-2 -14.3,-4.6 -8.8,-5.3 -16.6,-20 -13.3,-30.8 4,-12.9 15.2,-21.9 27.3,-25.4 z" />
    <path
       id="SVGID_00000096776062553465473910000005189147936789463426_"
       d="m 580.2,310.1 c 1.3,13.3 -8.6,26.2 -21.3,30.4 -12.7,4.2 -26.3,2.7 -36.9,-5.4 -3.4,-2.6 -7.4,-7.9 -9.4,-11.7 -1.7,-3.3 -2.5,-6.9 -3.3,-10.5 24,-0.8 47,-2 70.9,-2.8 z" />
    <path
       id="SVGID_00000093147584023202640540000002008243310198173580_"
       d="m 580.2,310.1 c 1.3,13.3 -8.6,26.2 -21.3,30.4 -12.7,4.2 -26.3,2.7 -36.9,-5.4 -3.4,-2.6 -7.4,-7.9 -9.4,-11.7 -1.7,-3.3 -2.5,-6.9 -3.3,-10.5 24,-0.8 47,-2 70.9,-2.8 z" />
    <path
       id="SVGID_00000142884472272109277460000011404879812412476859_"
       d="m 580.2,310.1 c 1.3,13.3 -8.6,26.2 -21.3,30.4 -12.7,4.2 -26.3,2.7 -36.9,-5.4 -3.4,-2.6 -7.4,-7.9 -9.4,-11.7 -1.7,-3.3 -2.5,-6.9 -3.3,-10.5 24,-0.8 47,-2 70.9,-2.8 z" />
  </defs>
  <g
     inkscape:label="Στρώση 1"
     inkscape:groupmode="layer"
     id="layer1"
     transform="translate(-167.45945,-143.29948)">
    <g
       id="g540"
       transform="matrix(0.21385968,0,0,0.21385968,167.54499,159.53143)">
	<g
   id="g538">
		<g
   id="use536">
			<g
   id="Duplicate_Items_Folder_Symbol_4_copy_12_0_Layer0_0_FILL_00000000907780734431268580000006688191436794185108_">
				<path
   id="path91_00000022540031953735628450000009666771915620414647_"
   class="st0"
   d="m 151.2,-75.8 c -0.1,-0.1 -0.2,-0.1 -0.4,-0.1 H 0 c -0.1,0 -0.3,0.1 -0.3,0.1 -0.1,0.1 -0.1,0.2 -0.1,0.4 V 75.4 c 0,0.1 0.1,0.3 0.1,0.4 0.1,0.1 0.2,0.1 0.3,0.1 h 150.9 c 0.1,0 0.3,-0.1 0.4,-0.1 0.1,-0.1 0.1,-0.2 0.1,-0.4 V -75.4 c 0,-0.2 -0.1,-0.3 -0.2,-0.4 M 0.5,-74.9 H 150.4 V 74.9 H 0.5 Z"
   style="fill:#444444" />

				<path
   id="path93_00000071550709314106413070000015313129106872881599_"
   class="st1"
   d="M 150.4,-74.9 H 0.5 V 74.9 H 150.4 V -74.9 m -0.8,0.7 0.2,-0.2 V 74.2 H 1.5 1.2 V -74.4 h 148.4 z"
   style="fill:#f8e8ce" />

				<path
   id="path95_00000163062339078837544100000015337493569444308127_"
   class="st2"
   d="m 143.1,-67.5 v 0 L 8,-67.6 V 67.7 l 0.4,-0.3 h 134.7 z"
   style="fill:#ebffd4" />

				<path
   id="path97_00000141416518135516430540000017544587554812526268_"
   class="st3"
   d="m 149.6,-74.2 v -0.2 H 1.2 V 74.2 H 1.4 L 8,67.7 V -67.6 h 135.2 z"
   style="fill:#cbf59e" />

				<path
   id="path99_00000029018072165392676750000008849669943518184342_"
   class="st4"
   d="m 149.8,-74.4 -0.2,0.2 -6.4,6.5 -0.1,0.1 v 135 H 8.3 L 8,67.7 1.5,74.1 h 148.3 z"
   style="fill:#7d9862" />

			</g>

		</g>

	</g>

</g>
    <g
       id="g14865"
       transform="matrix(0.26458333,0,0,0.26458333,37.846245,79.336221)">
	<g
   id="g14863">
		<g
   id="g14557">
			<defs
   id="defs14524">
				<path
   id="path16059"
   d="m 547.9,271 c 13.8,-4 30.2,-1.2 39.3,10.3 4.5,5.6 6.6,9.4 7.4,16.6 1,9.1 1,15 -3.7,23 -1.5,2.7 -6.9,6.9 -9.4,8.6 -4.5,3 -10,3.5 -15.3,3.6 -6,0.1 -12,-0.4 -18,-1.3 -5,-0.8 -10,-2 -14.3,-4.6 -8.8,-5.3 -16.6,-20 -13.3,-30.8 4,-12.9 15.2,-21.9 27.3,-25.4 z" />

			</defs>

			<use
   xlink:href="#SVGID_00000062878341637693446860000004458754623519313830_"
   style="overflow:visible;fill:#88ae1a"
   id="use14526" />

			<clipPath
   id="clipPath15201">
				<use
   xlink:href="#SVGID_00000062878341637693446860000004458754623519313830_"
   style="overflow:visible"
   id="use15199" />

			</clipPath>

			<g
   clip-path="url(#SVGID_00000105397985495146952290000009886418882287162761_)"
   id="g14555">
				<g
   id="g14533">
					<path
   class="st109"
   d="m 518.6,302.9 c 0.8,-1.5 1.9,-2.9 2.6,-4.4 0.8,-1.7 1.7,-3.4 2.7,-5 1.9,-3.2 4.3,-5.8 7.1,-8.2 5.4,-4.6 11.6,-8.4 18.5,-10.3 3.6,-1 7.2,-1.5 11,-1.4 3.9,0.1 7.5,1.2 11.1,2.5 6.2,2.2 12.8,4.5 16.9,10 2.3,3.1 4.2,6.4 6.7,9.3 1.2,1.4 2.4,2.7 3.8,3.9 1.7,1.4 5,1.8 5.8,-0.9 0.7,-2.4 -1,-3.7 -2.5,-5.2 -1.3,-1.3 -2.6,-2.7 -3.6,-4.2 -2.3,-3.1 -4.1,-6.4 -6.7,-9.3 -4.9,-5.5 -12.3,-8 -19.1,-10.4 -7.7,-2.7 -15.6,-3.3 -23.6,-1.2 -8.3,2.2 -15.7,6.8 -22.1,12.4 -3.1,2.7 -6,5.8 -7.7,9.6 -0.9,2 -1.6,3.9 -2.1,6 -0.2,1 -0.4,1.9 -0.5,2.8 -0.2,1.1 -0.1,2.1 -0.2,3.2 -0.3,1.4 1.4,1.7 1.9,0.8 z"
   id="path14531"
   style="fill:#458750" />

				</g>

				<g
   id="g14537">
					<path
   class="st110"
   d="m 517.4,308.7 c 1.5,-0.4 -0.5,-0.9 0.9,-1.7 1.6,-0.9 3.9,-2.5 5.3,-3.7 2.6,-2.1 5.6,-5.7 8.2,-7.7 4.5,-3.7 9.8,-5.8 15.2,-8.2 5.7,-2.5 13,-3.5 18.8,-1.9 24.4,6.9 33.2,17.9 36.8,18.2 2.8,0.2 1.7,-2.8 0.2,-4.6 -1.2,-1.4 -2.8,-2 -4.3,-3 -1.4,-0.9 -2.8,-1.8 -4.2,-2.7 -2.6,-1.8 -5.2,-3.7 -7.7,-5.6 -2.7,-2 -3.8,-2.6 -6.7,-4.3 -3.2,-1.8 -8.1,-4.2 -11.7,-4.6 -6.7,-0.7 -13.8,-1 -20.1,1.3 -6.1,2.2 -11.5,5.9 -16.5,10.1 -2.9,2.4 -5.7,5 -8.4,7.6 -1.4,1.4 -3,2.8 -4.1,4.4 -1.1,1.6 -2.3,3.1 -2.8,4.9 -0.4,1 0.3,1.7 1.1,1.5 z"
   id="path14535"
   style="fill:#47654d" />

				</g>

				<g
   id="g14541">
					<path
   class="st111"
   d="m 518.6,311.6 c 1.5,0.4 1.7,-0.9 3.1,-1.3 1.5,-0.5 3.9,-1.6 5.3,-2.1 3,-1.1 6.4,-3.1 9.3,-4.4 5.6,-2.5 10.8,-3.2 16.9,-4.3 5.6,-1 11,-0.2 16.4,1.5 5.3,1.7 12.2,2.9 17.6,4.3 3.1,0.8 8.6,1.6 11.8,1.7 1.5,0 -1,0.8 0.6,0.8 1.7,0 3.2,0.6 4.9,0.5 2,-0.1 3.9,-2.5 2.5,-4.3 -1.1,-1.5 -2.4,-2.3 -4.3,-2.6 -1.7,-0.3 -3.3,-0.3 -5,-0.3 -2.8,0.1 -5.5,0 -8.2,-0.6 -5.7,-1.2 -11,-3.6 -16.5,-5.5 -5.8,-1.9 -11.7,-3.1 -17.8,-2.5 -6.6,0.7 -12.8,2.8 -18.9,5.5 -3.4,1.5 -6.7,3.4 -9.8,5.3 -1.5,0.9 -3,2 -4.4,3 -1.5,1 -3.3,1.9 -4.2,3.5 -0.4,0.7 -0.1,1.6 0.7,1.8 z"
   id="path14539"
   style="fill:#1c652e" />

				</g>

				<g
   id="g14545">
					<path
   class="st112"
   d="m 520.5,313.6 c 2,1.8 3.5,0.7 6.1,0.8 2.9,0.1 7,1.2 9.8,0.6 5.4,-1 10.8,-2.6 16.3,-2.9 11.4,-0.6 24.2,0.9 35.6,0.7 3.1,-0.1 8.9,-1.5 12,-2.1 1.4,-0.3 -1.4,2.2 0,1.7 1.6,-0.6 3.5,-1.1 4.6,-2.5 1.6,-1.9 0.7,-5.1 -2.1,-5.1 -1.5,0 -2.7,0.6 -4.1,1.1 -1.2,0.4 -2.5,0.8 -3.8,1.1 -2.4,0.5 -4.7,0.8 -7.2,0.9 -5.4,0.2 -10.7,-0.4 -16,-1.1 -5.7,-0.7 -11.4,-1.5 -17.1,-1.4 -5.7,0.1 -11.2,1.3 -16.7,2.6 -3,0.8 -6,1.6 -9,2.2 -2.8,0.6 -5.8,0.8 -8.3,2.1 -0.4,0.1 -0.5,0.9 -0.1,1.3 z"
   id="path14543"
   style="fill:#1d5b27" />

				</g>

				<g
   id="g14549">
					<path
   class="st110"
   d="m 522.9,317.5 c 1.2,1.7 3.7,2.4 5.5,3.2 2.5,1.1 5.1,1.7 7.8,2.3 5.2,1.1 10.7,1.4 16,1.5 10.1,0.2 20.5,0.1 30.3,-2.8 2.9,-0.9 5.7,-2 8.4,-3.3 1.4,-0.7 2.5,-1.6 3.7,-2.5 0.6,-0.5 1.3,-1 1.8,-1.6 0.5,-0.6 0.6,-1.3 1.1,-1.9 0.9,-1.2 0.9,-1.6 -0.2,-1.5 -0.6,0.1 -1.5,-0.2 -2.1,-0.1 -0.6,0.1 0.5,0.8 -0.1,1 -1.4,0.5 -3.5,1.5 -4.8,2.1 -2.2,1 -17.6,3.3 -22.2,3.7 -4.9,0.4 -9.8,0.4 -14.8,0.3 -5.1,-0.1 -10.2,-0.2 -15.3,-0.6 -2.9,-0.3 -5.8,-0.7 -8.7,-1 -2,-0.2 -5.1,-0.8 -6.5,1.1 0.1,-0.1 0.1,0 0.1,0.1 z"
   id="path14547"
   style="fill:#47654d" />

				</g>

				<g
   id="g14553">
					<path
   class="st110"
   d="m 523.2,322.2 c 1,2.4 4.3,3.6 6.5,4.6 2.8,1.2 5.7,2.3 8.5,3.3 5.8,2 11.9,3.9 18,4.4 3,0.3 6.1,0 9.1,-0.2 3,-0.3 6,-0.5 9,-1 5.5,-0.8 10.7,-2.7 15.5,-5.6 2.7,-1.6 5.2,-3.5 7.7,-5.4 2.3,-1.8 5.5,-4.1 5.6,-7.2 0,-0.8 -0.6,-1.8 -1.5,-2 -2.8,-0.4 -5.2,1.6 -7.3,3.3 -1.9,1.5 -3.8,3 -5.9,4.3 -4.2,2.8 -8.6,4.8 -13.6,5.8 -2.6,0.5 -5.3,0.8 -7.9,1 -2.8,0.3 -5.7,0.5 -8.5,0.5 -5.7,-0.1 -11.4,-1 -16.9,-2.4 -3.2,-0.8 -5.7,-0.7 -8.9,-1.4 -1.5,-0.4 -3.4,-2.9 -4.9,-3.1 -1.4,-0.2 -2.9,-0.5 -4.2,0.3 -0.2,0.1 -0.4,0.5 -0.3,0.8 z"
   id="path14551"
   style="fill:#47654d" />

				</g>

			</g>

		</g>

		<g
   id="g14585">
			<defs
   id="defs14560">
				<path
   id="path16079"
   d="m 547.9,271 c 13.8,-4 30.2,-1.2 39.3,10.3 4.5,5.6 6.6,9.4 7.4,16.6 1,9.1 1,15 -3.7,23 -1.5,2.7 -6.9,6.9 -9.4,8.6 -4.5,3 -10,3.5 -15.3,3.6 -6,0.1 -12,-0.4 -18,-1.3 -5,-0.8 -10,-2 -14.3,-4.6 -8.8,-5.3 -16.6,-20 -13.3,-30.8 4,-12.9 15.2,-21.9 27.3,-25.4 z" />

			</defs>

			<clipPath
   id="clipPath15221">
				<use
   xlink:href="#SVGID_00000107574526671702199910000002221100954925651886_"
   style="overflow:visible"
   id="use15219" />

			</clipPath>

			<g
   clip-path="url(#SVGID_00000172424935420623186380000009347996967854921869_)"
   id="g14567">
				<path
   class="st114"
   d="m 520.4,299 c -1,0 -1.8,0.6 -2,1.6 -0.1,0.6 0.6,1.3 1.2,0.7 3.7,-4.2 9,-6.6 12.2,-11.4 0.8,-1.2 1.5,-2.5 2.5,-3.6 1.2,-1.2 2.7,-2 4.1,-2.8 2.9,-1.6 5.8,-2.9 9,-3.9 3.3,-1 6.8,-1.9 10.3,-2.2 3.4,-0.2 6.8,0.3 10.1,1.1 3,0.8 6.2,1.7 9.1,3.2 2.6,1.3 4.7,3.5 7.5,4.7 1.5,0.6 3.2,1 4.5,1.9 1.3,0.9 2.1,2.3 3,3.6 1.8,2.7 4.2,5.6 7.5,6.3 1.4,0.3 2.1,-1.2 1.3,-2.3 -1,-1.2 -2.1,-2.1 -3.2,-3.2 -1.2,-1.1 -2.2,-2.4 -3.1,-3.8 -0.7,-1.1 -1.5,-2.2 -2.5,-3 -1.3,-1.1 -2.8,-1.7 -4.4,-2.3 -1.5,-0.5 -2.8,-1.1 -4.1,-1.9 -1.3,-0.9 -2.5,-1.9 -3.8,-2.7 -3,-1.7 -6.5,-2.8 -9.8,-3.6 -3.3,-0.9 -6.8,-1.4 -10.2,-1.4 -3.5,0.1 -7,0.9 -10.4,1.8 -3.4,0.9 -6.8,2.1 -10,3.8 -2.7,1.4 -5.7,3.3 -7.6,5.8 -1,1.3 -1.8,2.9 -2.8,4.2 -1.1,1.4 -2.4,2.6 -3.7,3.7 -2.5,2.1 -4.8,4.2 -6.5,7.1 0.4,0.1 0.9,0.2 1.3,0.3 -0.1,-0.6 0.1,-1.1 0.7,-1.6 -0.1,0 -0.1,-0.1 -0.2,-0.1 z"
   id="path14565"
   style="fill:#97b723" />

			</g>

			<g
   clip-path="url(#SVGID_00000172424935420623186380000009347996967854921869_)"
   id="g14571">
				<path
   class="st114"
   d="m 516.2,310.5 c 3,-1.4 5.7,-3.3 8.5,-5.1 2.5,-1.6 5.1,-3.2 7.4,-4.9 2.3,-1.8 4.3,-4 7,-5.3 2.6,-1.3 5.5,-2.1 8.3,-2.9 5.8,-1.5 11.9,-2 17.8,-1.2 3.1,0.4 6,1.2 8.9,2.5 2.8,1.2 5.5,2.3 8.4,3.1 3.4,0.9 6.8,1.8 10.1,2.9 3.3,1.1 6.5,2.7 10,3.2 1.2,0.2 1.8,-1.2 0.8,-1.9 -2.6,-1.9 -5.7,-3 -8.7,-4.1 -3.1,-1.1 -6.2,-2 -9.3,-2.8 -3.2,-0.8 -6.1,-1.7 -9.1,-3 -2.9,-1.3 -5.8,-2.2 -8.9,-2.8 -6.1,-1.1 -12.3,-0.9 -18.3,0.4 -3,0.6 -5.8,1.5 -8.6,2.8 -2.8,1.3 -4.9,3.3 -7.1,5.4 -5.3,5.1 -12.1,8.3 -17.5,13.3 -0.3,0.1 0,0.5 0.3,0.4 z"
   id="path14569"
   style="fill:#97b723" />

			</g>

			<g
   clip-path="url(#SVGID_00000172424935420623186380000009347996967854921869_)"
   id="g14575">
				<path
   class="st114"
   d="m 518.2,313.5 c 2.8,-0.5 5.4,-1.5 8.1,-2.4 2.3,-0.8 4.6,-1.5 6.8,-2.5 1.1,-0.5 2.2,-1.2 3.3,-1.7 1.3,-0.6 2.6,-0.9 4,-1.1 2.7,-0.4 5.4,-0.8 8.1,-1.2 5.6,-0.6 11.3,-0.9 16.9,-0.4 5.4,0.5 10.8,1.2 16.2,1.9 3,0.4 6,0.7 9,1.3 2.9,0.6 5.8,1.4 8.8,1.8 0.9,0.1 1.4,-0.9 0.6,-1.4 -4.4,-3 -10.1,-3.5 -15.3,-4.2 -5.6,-0.7 -11.2,-1.4 -16.8,-2 -5.7,-0.6 -11.5,-0.6 -17.2,0 -5.3,0.6 -11,1.1 -15.7,3.9 -5.4,3.3 -11.7,4.2 -17.2,7.2 -0.5,0.2 -0.1,0.9 0.4,0.8 z"
   id="path14573"
   style="fill:#97b723" />

			</g>

			<g
   clip-path="url(#SVGID_00000172424935420623186380000009347996967854921869_)"
   id="g14579">
				<path
   class="st114"
   d="m 521,315.5 c 2.5,0.8 5.2,0.7 7.8,0.9 2.7,0.1 5.3,0.2 8,0.3 5.4,0.1 10.8,-0.1 16.2,-0.8 2.6,-0.3 5.2,-0.6 7.8,-0.6 2.7,0.1 5.3,0.4 8,0.5 5.2,0.3 10.5,0.3 15.5,-0.9 2.9,-0.7 5.6,-1.7 8.5,-2.3 3,-0.6 6.1,-0.9 9.1,-1 0.5,0 0.7,-0.8 0.1,-1 -5.1,-1.3 -10.1,0.4 -15.2,1 -2.6,0.3 -5.2,0.9 -7.9,1.1 -2.6,0.2 -5.2,0.3 -7.7,0.3 -5.3,-0.1 -10.5,-0.8 -15.8,-0.1 -5.4,0.7 -10.7,1.4 -16.1,1.6 -3.1,0.1 -6.3,0.2 -9.4,0.1 -2.9,0 -6,-0.4 -8.9,0.3 -0.2,0.2 -0.2,0.5 0,0.6 z"
   id="path14577"
   style="fill:#97b723" />

			</g>

			<g
   clip-path="url(#SVGID_00000172424935420623186380000009347996967854921869_)"
   id="g14583">
				<path
   class="st114"
   d="m 523.5,321.1 c 2.6,0.3 5.3,0.4 7.9,1 2.5,0.5 4.8,1.4 7.3,2.2 4.9,1.5 9.9,2.7 15,3.2 5.3,0.5 10.3,0 15.5,-1 2.6,-0.5 5.2,-0.7 7.8,-0.9 2.3,-0.2 4.4,-0.9 6.6,-1.8 2.7,-1.1 5.3,-2.2 8,-3.2 1.4,-0.5 2.7,-0.9 4.1,-1.4 1.3,-0.4 2.7,-0.8 3.6,-1.8 0.3,-0.4 0.2,-1 -0.3,-1.1 -2.2,-0.5 -4.9,0.9 -7,1.6 -2.2,0.7 -4.5,1.5 -6.7,2.4 -2.3,1 -4.5,2.1 -7,2.5 -2.4,0.4 -4.9,0.3 -7.3,0.7 -2.6,0.4 -5.2,1.2 -7.9,1.4 -2.6,0.3 -5.3,0.3 -7.9,0.1 -5.2,-0.4 -10.4,-1.4 -15.5,-2.8 -2.6,-0.7 -5.2,-1.6 -7.9,-1.9 -2.8,-0.3 -5.5,0 -8.2,0.6 -0.4,-0.2 -0.3,0.1 -0.1,0.2 z"
   id="path14581"
   style="fill:#97b723" />

			</g>

		</g>

		<g
   id="g14597">
			<defs
   id="defs14588">
				<path
   id="path16095"
   d="m 547.9,271 c 13.8,-4 30.2,-1.2 39.3,10.3 4.5,5.6 6.6,9.4 7.4,16.6 1,9.1 1,15 -3.7,23 -1.5,2.7 -6.9,6.9 -9.4,8.6 -4.5,3 -10,3.5 -15.3,3.6 -6,0.1 -12,-0.4 -18,-1.3 -5,-0.8 -10,-2 -14.3,-4.6 -8.8,-5.3 -16.6,-20 -13.3,-30.8 4,-12.9 15.2,-21.9 27.3,-25.4 z" />

			</defs>

			<clipPath
   id="clipPath15238">
				<use
   xlink:href="#SVGID_00000149356730750592781620000005200099087887522726_"
   style="overflow:visible"
   id="use15236" />

			</clipPath>

			<path
   style="opacity:0.32;fill:#47654d"
   d="m 606.8,307.3 c -0.1,-1.4 -1,-2.6 -2.4,-2.8 -1.3,-0.2 -2.8,0.6 -3.1,2 -1.3,7.7 -9.5,10.6 -16,12.7 -7.8,2.4 -15.6,4.5 -23.8,3.6 -6.5,-0.7 -13.1,-3.2 -18,-7.6 -2.9,-2.5 -5.1,-5.6 -6.9,-9 -2,-3.6 -3.8,-7.5 -4.9,-11.5 -1,-3.7 -1,-7.7 0,-11.5 1,-3.6 2.9,-7.3 5.3,-10.2 1.2,-1.5 -0.5,-4.3 -2.3,-2.9 -1.6,1.2 -3.1,2.5 -4.4,4.1 -1.3,1.5 -2.2,3.4 -2.9,5.3 0.2,-1.4 0.5,-2.7 0.9,-4.1 1,-3 -3.5,-4.8 -5,-2.1 -1.4,2.3 -2.5,4.9 -3.2,7.6 -1,-2.2 -4.9,-2.6 -5.4,0.3 -1.4,8 -1.7,16.4 -0.2,24.4 1.5,7.5 6.1,13.3 12,17.9 1.4,1.1 2.9,2.1 4.4,3.1 0.9,0.9 1.8,1.7 2.8,2.4 1.3,0.9 3,1.6 4.3,2.5 0.6,0.5 1.5,0.3 2.1,-0.2 7.8,3.2 16.3,4.7 24.7,4.5 3.8,-0.1 7.7,-0.6 11.4,-1.4 3.2,-0.7 7.8,-1.5 9.7,-4.5 1.9,-0.4 3.8,-0.9 5.7,-1.7 8.5,-3.2 16.1,-11.1 15.2,-20.9 z"
   clip-path="url(#SVGID_00000059284303699298818810000012779803828142237866_)"
   id="path14593" />

			<path
   style="opacity:0.64;fill:#91c19d"
   d="m 603.1,278.4 c -2.8,-5.6 -7.7,-10.2 -13.3,-13.1 -5.8,-3.1 -12.7,-4.8 -19.3,-4.5 -6.8,0.4 -14,4 -15.1,11.4 0,0 0,0.1 0,0.1 -0.9,2.2 -1.2,4.6 -1.3,7 -0.2,6.8 2.1,13 6.9,17.9 4.8,4.9 11.4,8.3 18.2,9.2 3.8,0.5 7.5,-0.1 11.1,-1.4 3.4,-1.2 7,-2.6 9.5,-5.3 2.5,-2.7 4.5,-6.4 5.2,-10 0.7,-4 -0.2,-7.8 -1.9,-11.3 z"
   clip-path="url(#SVGID_00000059284303699298818810000012779803828142237866_)"
   id="path14595" />

		</g>

		<g
   id="g14607">
			<defs
   id="defs14600">
				<path
   id="path16103"
   d="m 547.9,271 c 13.8,-4 30.2,-1.2 39.3,10.3 4.5,5.6 6.6,9.4 7.4,16.6 1,9.1 1,15 -3.7,23 -1.5,2.7 -6.9,6.9 -9.4,8.6 -4.5,3 -10,3.5 -15.3,3.6 -6,0.1 -12,-0.4 -18,-1.3 -5,-0.8 -10,-2 -14.3,-4.6 -8.8,-5.3 -16.6,-20 -13.3,-30.8 4,-12.9 15.2,-21.9 27.3,-25.4 z" />

			</defs>

			<clipPath
   id="clipPath15247">
				<use
   xlink:href="#SVGID_00000183934467505080173170000013686508064921841053_"
   style="overflow:visible"
   id="use15245" />

			</clipPath>

			<path
   style="opacity:0.29;fill:#334a04"
   d="m 606,304.4 c 0.7,-1.6 0.5,-3.6 -1.2,-4.5 -0.5,-0.3 -1.1,-0.4 -1.8,-0.4 0,-0.6 0.1,-1.1 0.1,-1.7 0,-2.7 -3.7,-3.7 -5.1,-1.4 -2.8,4.7 -7.5,8 -12.6,9.9 -5.8,2.3 -12.3,3.6 -18.6,3.3 -9.3,-0.4 -18.6,-4.7 -24.8,-11.7 -1.1,-1.9 -2.1,-4 -2.9,-6.1 -1.2,-2.9 -2.2,-5.9 -3.2,-9 -0.2,-0.6 -0.4,-1.2 -0.5,-1.8 0.2,-3.2 1.3,-6.2 3.8,-8.7 1,-1.1 -0.5,-2.5 -1.6,-1.6 -1.1,0.9 -2,2 -2.8,3.1 -0.2,-0.5 -0.4,-0.9 -0.7,-1.3 -1,-1.4 -3,-2 -4.4,-0.6 -1,1 -1.6,2.1 -2.1,3.3 0,0 0,0 0,0 -1.1,0 -2.4,0.9 -2.5,2.1 -1.4,-0.7 -3.3,-0.5 -4,1.1 -4.5,9.9 -6.9,21.3 -2,31.6 0.2,0.5 0.5,1 0.7,1.4 0.8,2.9 1.9,5.8 3.4,8.3 2.4,3.9 6.2,7 9.7,9.8 4,3.1 8.3,5.1 13.4,5.4 2.9,0.2 5.8,-0.1 8.7,-0.6 1.3,0.3 2.5,0.5 3.9,0.6 4.2,0.5 8.5,0.2 12.6,-0.8 4.3,-1 8.3,-3 12.2,-4.9 7.4,-3.6 15.2,-8.3 18.8,-16.1 0.5,-1.1 0.5,-2.3 0,-3.3 0.5,-0.6 0.9,-1.2 1.3,-1.9 0.9,-1 1.6,-2.2 2.2,-3.5 z"
   clip-path="url(#SVGID_00000092439666966730641650000016559394459205130637_)"
   id="path14605" />

		</g>

		<g
   class="st118"
   id="g14611"
   style="opacity:0.35">
			<path
   class="st9"
   d="m 563.9,279.8 c 0.4,0.3 0.9,0.4 1.3,0.6 0.5,0.2 0.9,0.4 1.3,0.6 0.9,0.4 2,0.3 2.5,-0.7 0.5,-0.8 0.2,-2.1 -0.7,-2.5 -1.1,-0.5 -2.4,-0.8 -3.6,-0.4 -0.8,0.3 -2,1.6 -0.8,2.4 z"
   id="path14609"
   style="fill:#ffffff" />

		</g>

		<g
   id="g14615">
			<path
   class="st9"
   d="m 576.1,285 c 0.6,1.1 1.9,1.9 2.8,2.8 1,1 2,2 2.8,3.1 1.9,2.7 5.8,-0.2 3.7,-2.8 -1.1,-1.4 -2.4,-2.6 -4,-3.4 -1.3,-0.7 -3.2,-1.5 -4.7,-1 -0.6,0.1 -0.9,0.7 -0.6,1.3 z"
   id="path14613"
   style="fill:#ffffff" />

		</g>

		<g
   id="g14635">
			<defs
   id="defs14618">
				<path
   id="path16114"
   d="m 580.2,310.1 c 1.3,13.3 -8.6,26.2 -21.3,30.4 -12.7,4.2 -26.3,2.7 -36.9,-5.4 -3.4,-2.6 -7.4,-7.9 -9.4,-11.7 -1.7,-3.3 -2.5,-6.9 -3.3,-10.5 24,-0.8 47,-2 70.9,-2.8 z" />

			</defs>

			<use
   xlink:href="#SVGID_00000096776062553465473910000005189147936789463426_"
   style="overflow:visible;fill:#ea2e25"
   id="use14620" />

			<clipPath
   id="clipPath15260">
				<use
   xlink:href="#SVGID_00000096776062553465473910000005189147936789463426_"
   style="overflow:visible"
   id="use15258" />

			</clipPath>

			<g
   clip-path="url(#SVGID_00000018953823902320809560000010711432389495861127_)"
   id="g14627">
				<path
   class="st120"
   d="m 506.9,310.3 c -0.8,3.4 0.1,6.6 1.4,9.7 1.3,3.3 3.2,6.4 5.4,9.2 4.4,5.5 10.2,9.7 16.7,12.3 13.9,5.6 32.7,3.8 43.4,-7.5 3,-3.2 5.7,-6.9 7.1,-11.1 1.3,-4 2.3,-10.1 -0.2,-13.8 -0.8,-1.2 -2.5,-1.2 -3.3,0 -2,3.1 -1.3,7.2 -2.2,10.7 -0.8,3.1 -2.5,5.9 -4.6,8.3 -4.4,5.2 -10.2,8.1 -16.9,9.4 -12.4,2.5 -25.4,-1.7 -34.1,-10.9 -2.2,-2.4 -7.6,-12.4 -8.7,-18.7 -0.2,-0.7 -3.8,1.4 -4,2.4 z"
   id="path14625"
   style="fill:#efffe9" />

			</g>

			<g
   clip-path="url(#SVGID_00000018953823902320809560000010711432389495861127_)"
   id="g14631">
				<path
   class="st121"
   d="m 578.7,304.9 c 0.1,1.9 -0.3,3.8 -0.4,5.7 -0.1,1.9 0.3,3.4 -0.1,5.3 -0.6,3.4 -1.8,5.9 -3.2,9 -2.8,6.1 -8.4,11.3 -14.8,13.2 -3.4,1 -6.6,1.6 -10.1,1.7 -3.6,0.2 -7.5,0 -11.1,-0.4 -8.3,-0.8 -15.7,-6.3 -18.4,-8.4 -6.1,-4.6 -9.5,-14.6 -10.7,-22.2 -0.3,-1.6 -2.9,-0.2 -4.4,0.2 -1.8,0.5 -2.4,2.1 -2.2,3.8 1.2,7.8 5.4,14.7 11.4,19.8 3,2.5 6.2,4.7 9.5,6.7 3.5,2.2 7.1,4.5 11.1,5.6 4.1,1.1 8.4,1.1 12.6,1.1 4.3,-0.1 8.7,-0.5 12.9,-1.6 7.5,-2 14.2,-6.5 17.9,-13.4 2.1,-4 3.5,-8.4 4.3,-12.8 0.4,-2.3 0.7,-4.7 0.5,-7.1 -0.1,-1.2 -0.2,-2.6 -0.6,-3.8 -0.4,-1.1 -1,-2.2 -1.5,-3.2 -0.6,-1.4 -2.8,-0.7 -2.7,0.8 z"
   id="path14629"
   style="fill:#387746" />

			</g>

			<path
   style="opacity:0.65;fill:#f44d4d"
   d="m 569.9,303.7 c -1.6,-0.6 -3.1,0 -4,1.3 -0.7,0.9 -1.5,1.7 -2.5,2.3 -1.6,-0.2 -3.2,0 -4.7,0.5 -1.6,0.5 -3.2,1.3 -4.9,1.7 -3.3,0.8 -6.9,0.6 -10.3,0.7 -3.6,0.1 -7.2,0.1 -10.8,-0.2 -1.5,-0.1 -3.3,-0.2 -5,-0.5 -0.4,-0.9 -1.1,-1.6 -2.1,-1.9 -0.9,-0.2 -1.8,-0.4 -2.7,-0.6 -0.5,-0.1 -1.1,-0.1 -1.5,0 -0.7,-0.5 -1.3,-1 -1.9,-1.5 -2.1,-1.8 -4.8,-0.7 -5.4,1.7 -0.1,-0.4 -0.3,-0.7 -0.3,-1.1 -0.2,-0.9 -1.6,-0.7 -1.6,0.2 -0.2,4.9 3,8.2 6.2,11.4 3.6,3.5 7.7,6.7 12.4,8.6 10,4 21.5,-0.1 30.2,-5.5 5.1,-3.2 8.9,-7.7 11,-13.4 0.3,-1.4 -0.8,-3.2 -2.1,-3.7 z"
   clip-path="url(#SVGID_00000018953823902320809560000010711432389495861127_)"
   id="path14633" />

		</g>

		<g
   id="g14645">
			<defs
   id="defs14638">
				<path
   id="path16126"
   d="m 580.2,310.1 c 1.3,13.3 -8.6,26.2 -21.3,30.4 -12.7,4.2 -26.3,2.7 -36.9,-5.4 -3.4,-2.6 -7.4,-7.9 -9.4,-11.7 -1.7,-3.3 -2.5,-6.9 -3.3,-10.5 24,-0.8 47,-2 70.9,-2.8 z" />

			</defs>

			<clipPath
   id="clipPath15272">
				<use
   xlink:href="#SVGID_00000093147584023202640540000002008243310198173580_"
   style="overflow:visible"
   id="use15270" />

			</clipPath>

			<path
   style="opacity:0.3;fill:#efffe9"
   d="m 553.9,304.3 c -8.3,4.5 -18.1,5.9 -27.3,4 -1.2,-0.7 -2.8,-0.3 -3.8,1 -0.1,0.1 -0.1,0.2 -0.2,0.2 -1,1.4 -0.2,3.4 1.3,4.1 0.5,0.5 1,1 1.6,1.4 1.3,1 2.8,1.7 4.3,2.3 3.5,1.3 7.4,2.2 11.2,2.3 7.5,0.1 13.6,-4.8 17,-11.2 1.4,-2.7 -1.4,-5.5 -4.1,-4.1 z"
   clip-path="url(#SVGID_00000029035312216035335100000016505417746822601392_)"
   id="path14643" />

		</g>

		<g
   id="g14655">
			<defs
   id="defs14648">
				<path
   id="path16133"
   d="m 580.2,310.1 c 1.3,13.3 -8.6,26.2 -21.3,30.4 -12.7,4.2 -26.3,2.7 -36.9,-5.4 -3.4,-2.6 -7.4,-7.9 -9.4,-11.7 -1.7,-3.3 -2.5,-6.9 -3.3,-10.5 24,-0.8 47,-2 70.9,-2.8 z" />

			</defs>

			<clipPath
   id="clipPath15280">
				<use
   xlink:href="#SVGID_00000142884472272109277460000011404879812412476859_"
   style="overflow:visible"
   id="use15278" />

			</clipPath>

			<path
   style="opacity:0.34;fill:#d8a8a7"
   d="m 571.6,331.4 c -8.6,3.6 -18.3,4.3 -26.5,-0.6 -7.7,-4.6 -12.2,-13.2 -12.7,-22 -0.1,-1 -1.4,-1.5 -2,-0.9 -1.2,-2 -4.6,-1.6 -5.3,0.9 -0.2,-1.1 -0.4,-2.2 -0.6,-3.2 -0.5,-3.3 -5.6,-2.4 -5.6,0.8 0,1.4 0,2.8 0.1,4.1 -0.1,-0.1 -0.2,-0.3 -0.3,-0.4 -0.5,-0.8 -1.1,-1.7 -1.8,-2.3 -1.5,-1.4 -3.8,-1.7 -5.4,-0.2 -1.2,0 -2.5,0.7 -2.8,2.2 -0.4,1.4 -0.7,2.8 -1.1,4.2 -0.1,0.1 -0.2,0.3 -0.2,0.4 -0.6,1.5 -0.2,2.6 0.7,3.8 0.3,0.4 0.7,0.6 1.1,0.8 0,0.1 0.1,0.2 0.2,0.3 0,0.1 0.1,0.2 0.1,0.3 0.4,0.8 0.7,1.5 1.1,2.3 0.8,1.6 1.6,3.2 2.5,4.7 1,1.8 2.1,3.6 3.3,5.3 -0.1,0.3 -0.3,0.6 -0.3,0.9 -0.4,1.6 0.3,3 1.3,4.2 3.1,4 7.5,6.6 12.3,8.4 1.4,0.9 2.9,1.8 4.4,2.5 1.3,0.6 2.7,0.4 3.6,-0.3 2.1,0.4 4.1,0.8 6.1,1.1 1.3,0.2 2.6,-0.1 3.4,-1.1 0.6,0.2 1.2,0.4 1.8,0.6 5.5,1.5 11.2,0.5 16.3,-1.8 5.2,-2.3 10.4,-6.3 10.7,-12.4 0,-2.5 -2.6,-3.4 -4.4,-2.6 z"
   clip-path="url(#SVGID_00000168092885085545907660000001885118396919115679_)"
   id="path14653" />

		</g>

		<g
   id="g14659">
			<path
   class="st125"
   d="m 556.7,321.2 c 0,0.7 0.3,1.4 0.6,2 0.4,0.8 1.1,1.7 2,1.9 1.3,0.3 2.2,-0.8 2,-2 -0.1,-0.9 -1.1,-1.6 -1.8,-2 -0.6,-0.3 -1.3,-0.7 -2,-0.6 -0.5,0.1 -0.8,0.3 -0.8,0.7 z"
   id="path14657"
   style="fill:#db1616" />

		</g>

		<g
   id="g14663">
			<path
   class="st125"
   d="m 560.6,318.9 c 0.2,0.3 0.3,0.6 0.5,0.9 0.2,0.4 0.5,0.6 0.8,0.9 0.9,0.7 2.1,1.2 3,0.3 0.4,-0.4 0.5,-1 0.3,-1.5 -0.2,-0.7 -0.8,-1.1 -1.5,-1.3 -0.8,-0.3 -1.5,-0.4 -2.3,-0.3 0.2,0 0.3,0 0.5,0 -0.2,-0.1 -0.4,-0.1 -0.5,-0.2 -0.5,-0.2 -1.2,0.6 -0.8,1.2 z"
   id="path14661"
   style="fill:#db1616" />

		</g>

		<g
   id="g14667">
			<path
   class="st125"
   d="m 563.4,315.9 c 0.2,0.7 0.7,1 1.3,1.3 0.8,0.4 1.6,0.5 2.4,0.1 0.6,-0.3 0.9,-1.3 0.5,-1.9 -0.6,-0.9 -1.5,-1.2 -2.5,-1.1 -0.7,0 -1.9,0.6 -1.7,1.6 z"
   id="path14665"
   style="fill:#db1616" />

		</g>

		<g
   id="g14671">
			<path
   class="st125"
   d="m 552.5,323.8 c -0.1,0.5 -0.2,1.1 -0.2,1.7 0,0.3 0,0.7 0.1,1 0.1,0.5 0.4,0.8 0.8,1.1 0.6,0.5 1.5,0.1 1.9,-0.5 0.7,-1.2 -0.2,-2.4 -0.8,-3.4 -0.4,-0.8 -1.7,-0.7 -1.8,0.1 z"
   id="path14669"
   style="fill:#db1616" />

		</g>

		<g
   id="g14675">
			<path
   class="st125"
   d="m 547.4,325.1 c -0.4,0.6 -0.7,1 -0.7,1.8 -0.1,0.8 -0.2,1.6 0.3,2.3 0.4,0.7 1.2,1 2,0.8 0.8,-0.2 1.2,-0.9 1.3,-1.7 0.1,-1.1 -0.7,-2.3 -1.1,-3.2 -0.4,-0.7 -1.4,-0.6 -1.8,0 z"
   id="path14673"
   style="fill:#db1616" />

		</g>

		<g
   id="g14679">
			<path
   class="st125"
   d="m 542.3,325.1 c -1.1,1.3 -1.9,3.6 -0.6,5 0.6,0.6 1.8,0.7 2.4,0 1,-1.2 0.7,-3 0.5,-4.4 -0.3,-1 -1.7,-1.4 -2.3,-0.6 z"
   id="path14677"
   style="fill:#db1616" />

		</g>

		<g
   id="g14683">
			<path
   class="st125"
   d="m 536.8,325.6 c -0.7,0.5 -1.4,1 -1.8,1.8 -0.5,1 -1,2.1 -0.3,3.2 0.5,0.8 1.6,1.2 2.5,0.7 1.5,-0.9 1.4,-3 1.5,-4.5 0.1,-1 -1.1,-1.7 -1.9,-1.2 z"
   id="path14681"
   style="fill:#db1616" />

		</g>

		<g
   id="g14687">
			<path
   class="st125"
   d="m 531.5,325.4 c -1,0.6 -2.6,1.2 -3,2.5 -0.4,1.1 0.8,2.1 1.9,1.9 1.4,-0.4 2,-2.2 2.5,-3.3 0.2,-0.8 -0.8,-1.5 -1.4,-1.1 z"
   id="path14685"
   style="fill:#db1616" />

		</g>

		<g
   id="g14691">
			<path
   class="st125"
   d="m 526.7,322.7 c -0.2,0.1 -0.6,0.3 -0.8,0.4 0.2,-0.1 0.4,-0.1 0.7,-0.2 -0.2,0 -0.3,0 -0.5,0.1 -0.4,0.2 -0.4,0.2 -0.3,0.1 -0.2,0.1 -0.4,0.2 -0.6,0.3 -0.5,0.2 0.3,-0.1 -0.2,0.1 -0.3,0.1 -0.6,0.2 -0.8,0.4 -0.8,0.6 -1.2,1.6 -0.7,2.5 0.5,0.8 1.6,1.2 2.5,0.7 0.5,-0.3 0.9,-0.8 1.3,-1.3 0.3,-0.4 0.5,-0.9 0.6,-1.5 -0.1,0.2 -0.1,0.4 -0.2,0.7 0.2,-0.4 0.3,-0.7 0.4,-1.1 0.2,-0.9 -0.8,-1.6 -1.4,-1.2 z"
   id="path14689"
   style="fill:#db1616" />

		</g>

		<g
   id="g14695">
			<path
   class="st125"
   d="m 523.1,320.5 c -0.4,0.1 -0.8,0.1 -1.2,0.2 -0.1,0 -0.4,0 -0.5,0.1 0.1,0 0.2,0 0.2,0 -0.1,0 -0.2,0 -0.3,0 -0.2,0 -0.4,0.1 -0.6,0.2 -0.7,0.4 -1,1.7 -0.3,2.3 0,0 0,0 0,0 0.4,0.3 0.9,0.6 1.5,0.4 0.7,-0.3 0.9,-0.6 1.3,-1.2 0.3,-0.4 0.4,-0.7 0.7,-1.1 0.3,-0.4 -0.3,-1 -0.8,-0.9 z"
   id="path14693"
   style="fill:#db1616" />

		</g>

		<g
   id="g14699">
			<path
   class="st125"
   d="m 521.6,317.3 c -1.4,-0.9 -3.4,-0.3 -4.7,0.6 -0.8,0.5 -1.1,1.6 -0.6,2.4 0.5,0.8 1.6,1.1 2.4,0.6 1.1,-0.7 2.5,-1.5 3.1,-2.6 0.3,-0.4 0.1,-0.8 -0.2,-1 z"
   id="path14697"
   style="fill:#db1616" />

		</g>

		<g
   id="g14703">
			<path
   class="st125"
   d="m 563.3,323.6 c 0,0 0,0.1 0,0.1 0,-0.2 0.1,-0.4 0.1,-0.5 -0.3,0.8 -0.1,1.4 0.2,2.2 0.4,0.9 1,1.8 2,2.1 1.1,0.3 2.5,-0.8 2,-2 -0.3,-0.9 -0.9,-1.4 -1.7,-1.9 -0.5,-0.4 -1,-0.8 -1.7,-0.9 0.2,0 0.4,0.1 0.5,0.1 0,0 -0.1,-0.1 -0.1,-0.1 -0.5,-0.3 -1.4,0.1 -1.3,0.9 z"
   id="path14701"
   style="fill:#db1616" />

		</g>

		<g
   id="g14707">
			<path
   class="st125"
   d="m 566,321.8 c 0.1,0.2 0.3,0.4 0.5,0.6 0.1,0.1 0.3,0.3 0.4,0.3 0.2,0.1 0.2,0.1 0,0 0.6,0.5 1,0.8 1.8,0.9 1.3,0.1 2,-1.5 1.4,-2.5 -0.7,-1.1 -2.6,-1.7 -3.7,-1 -0.6,0.4 -0.7,1.1 -0.4,1.7 z"
   id="path14705"
   style="fill:#db1616" />

		</g>

		<g
   id="g14711">
			<path
   class="st125"
   d="m 568.6,317.6 c 0.4,0.4 0.9,0.8 1.5,1 0.7,0.3 1.4,0.4 2.2,0 0.9,-0.5 1,-1.7 0.3,-2.4 -0.9,-1 -2.4,-0.7 -3.5,-0.5 -0.9,0.2 -1.1,1.4 -0.5,1.9 z"
   id="path14709"
   style="fill:#db1616" />

		</g>

		<g
   id="g14715">
			<path
   class="st125"
   d="m 552,319.3 c 0,0.3 0,0.5 0.1,0.8 0.1,0.2 0.2,0.4 0.3,0.6 0.1,0.3 0.3,0.6 0.5,0.8 0.3,0.4 0.7,0.5 1.2,0.6 0.5,0.1 1,-0.4 1.1,-0.9 0.3,-0.7 -0.1,-1.4 -0.6,-1.9 -0.3,-0.4 -0.6,-0.7 -1.1,-1 -0.6,-0.3 -1.5,0.2 -1.5,1 z"
   id="path14713"
   style="fill:#db1616" />

		</g>

		<g
   id="g14719">
			<path
   class="st125"
   d="m 557.3,329 c -0.1,-0.3 -0.2,-0.3 -0.1,-0.1 0,0.1 0,0.2 0.1,0.3 0,0.2 0.1,0.4 0.2,0.7 0.2,0.6 0.4,1.2 0.9,1.6 0.5,0.4 1,0.6 1.6,0.3 0.6,-0.3 0.9,-0.7 0.9,-1.3 0.1,-0.8 -0.4,-1.6 -0.8,-2.2 -0.4,-0.6 -0.8,-1.1 -1.5,-1.3 -1.3,-0.3 -2.3,1.2 -1.3,2 z"
   id="path14717"
   style="fill:#db1616" />

		</g>

		<g
   id="g14723">
			<path
   class="st125"
   d="m 544.5,331.6 c -0.4,0.4 -0.6,1.2 -0.7,1.8 -0.1,0.8 0.1,1.6 0.9,2 0.5,0.3 1.3,0.2 1.7,-0.2 0.6,-0.6 0.6,-1.4 0.4,-2.1 -0.1,-0.5 -0.3,-1 -0.6,-1.4 -0.5,-0.6 -1.3,-0.5 -1.7,-0.1 z"
   id="path14721"
   style="fill:#db1616" />

		</g>

		<g
   id="g14733">
			<g
   id="g14727">
				<path
   class="st126"
   d="m 520.3,317.2 c -0.5,0 -1,0 -1.5,0.3 -0.6,0.3 -1.2,0.7 -1.3,1.5 0,0.6 0.4,1.2 1,1.2 1,0.1 1.7,-1 2.3,-1.7 0.5,-0.5 0.1,-1.3 -0.5,-1.3 z"
   id="path14725"
   style="fill:#4c0000" />

			</g>

			<g
   class="st127"
   id="g14731"
   style="opacity:0.16">
				<path
   class="st9"
   d="m 519.5,318.4 c -0.1,0 -0.3,0 -0.4,0.1 -0.2,0.1 -0.3,0.2 -0.3,0.4 0,0.2 0.1,0.3 0.3,0.3 0.3,0 0.5,-0.3 0.6,-0.5 0,-0.1 -0.1,-0.3 -0.2,-0.3 z"
   id="path14729"
   style="fill:#ffffff" />

			</g>

		</g>

		<g
   id="g14739">
			<g
   id="g14737">
				<path
   class="st126"
   d="m 523.1,320.9 c -0.5,0 -1,0 -1.5,0.3 -0.6,0.3 -1.2,0.7 -1.3,1.5 0,0.6 0.4,1.2 1,1.2 1,0.1 1.7,-1 2.3,-1.7 0.5,-0.5 0.1,-1.3 -0.5,-1.3 z"
   id="path14735"
   style="fill:#4c0000" />

			</g>

		</g>

		<g
   id="g14749">
			<g
   id="g14743">
				<path
   class="st126"
   d="m 526.8,323.1 c -0.6,0.1 -1.1,0.2 -1.6,0.6 -0.6,0.5 -1.2,1 -1.1,1.9 0.1,0.7 0.7,1.2 1.4,1.1 1.1,-0.1 1.7,-1.4 2.3,-2.3 0.2,-0.6 -0.4,-1.4 -1,-1.3 z"
   id="path14741"
   style="fill:#4c0000" />

			</g>

			<g
   class="st101"
   id="g14747"
   style="opacity:0.39">
				<path
   class="st9"
   d="m 526.1,324.6 c -0.2,0 -0.3,0.1 -0.4,0.2 -0.2,0.1 -0.3,0.3 -0.3,0.5 0,0.2 0.2,0.3 0.4,0.3 0.3,0 0.5,-0.4 0.6,-0.6 0,-0.2 -0.1,-0.4 -0.3,-0.4 z"
   id="path14745"
   style="fill:#ffffff" />

			</g>

		</g>

		<g
   id="g14759">
			<g
   id="g14753">
				<path
   class="st126"
   d="m 531.8,325.8 c -0.6,0.1 -1.1,0.3 -1.6,0.7 -0.6,0.5 -1.1,1.1 -1,2 0.1,0.7 0.8,1.2 1.5,1 1.1,-0.2 1.6,-1.6 2,-2.5 0.4,-0.6 -0.3,-1.4 -0.9,-1.2 z"
   id="path14751"
   style="fill:#4c0000" />

			</g>

			<g
   class="st128"
   id="g14757"
   style="opacity:0.38">
				<path
   class="st9"
   d="m 531.3,327.3 c -0.2,0 -0.3,0.1 -0.4,0.2 -0.2,0.1 -0.3,0.3 -0.3,0.5 0,0.2 0.2,0.3 0.4,0.3 0.3,-0.1 0.4,-0.4 0.5,-0.7 0.1,-0.1 0,-0.3 -0.2,-0.3 z"
   id="path14755"
   style="fill:#ffffff" />

			</g>

		</g>

		<g
   id="g14769">
			<g
   id="g14763">
				<path
   class="st126"
   d="m 537,326.4 c -0.5,0.3 -1,0.6 -1.3,1.1 -0.4,0.6 -0.8,1.4 -0.4,2.1 0.3,0.6 1.1,0.9 1.7,0.6 1,-0.5 1.1,-2 1.3,-3 0.1,-0.6 -0.7,-1.1 -1.3,-0.8 z"
   id="path14761"
   style="fill:#4c0000" />

			</g>

			<g
   class="st101"
   id="g14767"
   style="opacity:0.39">
				<path
   class="st9"
   d="m 537,328 c -0.1,0.1 -0.3,0.2 -0.3,0.3 -0.1,0.2 -0.2,0.4 -0.1,0.6 0.1,0.2 0.3,0.2 0.4,0.2 0.3,-0.1 0.3,-0.5 0.3,-0.8 0,-0.2 -0.2,-0.4 -0.3,-0.3 z"
   id="path14765"
   style="fill:#ffffff" />

			</g>

		</g>

		<g
   id="g14775">
			<g
   id="g14773">
				<path
   class="st126"
   d="m 542.5,325.7 c -0.3,0.5 -0.6,1 -0.7,1.6 -0.1,0.8 -0.1,1.6 0.6,2.1 0.5,0.4 1.3,0.3 1.8,-0.2 0.7,-0.9 0.1,-2.2 -0.2,-3.2 -0.1,-0.7 -1.1,-0.8 -1.5,-0.3 z"
   id="path14771"
   style="fill:#4c0000" />

			</g>

		</g>

		<g
   id="g14785">
			<g
   id="g14779">
				<path
   class="st126"
   d="m 545.2,331.3 c -0.3,0.5 -0.6,1 -0.7,1.6 -0.1,0.8 -0.1,1.6 0.6,2.1 0.5,0.4 1.3,0.3 1.8,-0.2 0.7,-0.9 0.1,-2.2 -0.2,-3.2 -0.2,-0.7 -1.2,-0.8 -1.5,-0.3 z"
   id="path14777"
   style="fill:#4c0000" />

			</g>

			<g
   class="st128"
   id="g14783"
   style="opacity:0.38">
				<path
   class="st9"
   d="m 545.8,332.9 c -0.1,0.1 -0.2,0.3 -0.2,0.4 0,0.2 0,0.4 0.2,0.6 0.1,0.1 0.4,0.1 0.5,-0.1 0.2,-0.2 0,-0.6 0,-0.9 -0.1,-0.2 -0.4,-0.2 -0.5,0 z"
   id="path14781"
   style="fill:#ffffff" />

			</g>

		</g>

		<g
   id="g14795">
			<g
   id="g14789">
				<path
   class="st126"
   d="m 547.2,325.9 c -0.2,0.5 -0.4,1.1 -0.3,1.7 0.1,0.8 0.2,1.6 1,1.9 0.6,0.3 1.4,0.1 1.7,-0.6 0.5,-1 -0.4,-2.2 -0.8,-3.1 -0.4,-0.6 -1.4,-0.5 -1.6,0.1 z"
   id="path14787"
   style="fill:#4c0000" />

			</g>

			<g
   class="st127"
   id="g14793"
   style="opacity:0.16">
				<path
   class="st9"
   d="m 548.1,327.3 c -0.1,0.1 -0.1,0.3 -0.1,0.4 0,0.2 0.1,0.4 0.3,0.5 0.2,0.1 0.4,0 0.4,-0.2 0.1,-0.3 -0.1,-0.6 -0.2,-0.8 0,-0.1 -0.3,-0.1 -0.4,0.1 z"
   id="path14791"
   style="fill:#ffffff" />

			</g>

		</g>

		<g
   id="g14805">
			<g
   id="g14799">
				<path
   class="st126"
   d="m 552.9,324.1 c -0.2,0.5 -0.4,1.1 -0.3,1.7 0.1,0.8 0.2,1.6 1,1.9 0.6,0.3 1.4,0.1 1.7,-0.6 0.5,-1 -0.4,-2.2 -0.8,-3.1 -0.3,-0.6 -1.3,-0.5 -1.6,0.1 z"
   id="path14797"
   style="fill:#4c0000" />

			</g>

			<g
   class="st127"
   id="g14803"
   style="opacity:0.16">
				<path
   class="st9"
   d="m 553.9,325.4 c -0.1,0.1 -0.1,0.3 -0.1,0.4 0,0.2 0.1,0.4 0.3,0.5 0.2,0.1 0.4,0 0.4,-0.2 0.1,-0.3 -0.1,-0.6 -0.2,-0.8 -0.1,0 -0.3,0 -0.4,0.1 z"
   id="path14801"
   style="fill:#ffffff" />

			</g>

		</g>

		<g
   id="g14811">
			<g
   id="g14809">
				<path
   class="st126"
   d="m 552.6,319.4 c -0.1,0.5 -0.1,1.1 0.1,1.6 0.3,0.7 0.6,1.3 1.4,1.4 0.6,0.1 1.2,-0.3 1.3,-1 0.2,-1.1 -0.9,-1.9 -1.6,-2.6 -0.3,-0.3 -1.2,0 -1.2,0.6 z"
   id="path14807"
   style="fill:#4c0000" />

			</g>

		</g>

		<g
   id="g14821">
			<g
   id="g14815">
				<path
   class="st126"
   d="m 557.8,328.5 c -0.1,0.5 -0.1,1.1 0.1,1.6 0.3,0.7 0.6,1.3 1.4,1.4 0.6,0.1 1.2,-0.3 1.3,-1 0.2,-1.1 -0.9,-1.9 -1.6,-2.6 -0.3,-0.4 -1.1,0 -1.2,0.6 z"
   id="path14813"
   style="fill:#4c0000" />

			</g>

			<g
   class="st101"
   id="g14819"
   style="opacity:0.39">
				<path
   class="st9"
   d="m 559,329.4 c 0,0.1 0,0.3 0,0.4 0.1,0.2 0.2,0.4 0.4,0.4 0.2,0 0.3,-0.1 0.4,-0.3 0,-0.3 -0.2,-0.5 -0.4,-0.7 -0.1,0 -0.4,0.1 -0.4,0.2 z"
   id="path14817"
   style="fill:#ffffff" />

			</g>

		</g>

		<g
   id="g14831">
			<g
   id="g14825">
				<path
   class="st126"
   d="m 557.6,321.9 c 0.1,0.5 0.2,1 0.5,1.5 0.4,0.6 0.9,1.2 1.7,1.1 0.6,-0.1 1.1,-0.6 1.1,-1.2 -0.1,-1.1 -1.3,-1.6 -2.1,-2.1 -0.6,-0.4 -1.3,0.1 -1.2,0.7 z"
   id="path14823"
   style="fill:#4c0000" />

			</g>

			<g
   class="st101"
   id="g14829"
   style="opacity:0.39">
				<path
   class="st9"
   d="m 558.9,322.5 c 0,0.1 0,0.3 0.1,0.4 0.1,0.2 0.2,0.3 0.5,0.3 0.2,0 0.3,-0.2 0.3,-0.3 0,-0.3 -0.3,-0.4 -0.6,-0.6 -0.1,-0.1 -0.3,0.1 -0.3,0.2 z"
   id="path14827"
   style="fill:#ffffff" />

			</g>

		</g>

		<g
   id="g14841">
			<g
   id="g14835">
				<path
   class="st126"
   d="m 535.3,322.2 c -0.4,0.1 -0.8,0.2 -1.1,0.5 -0.4,0.3 -0.8,0.8 -0.7,1.3 0.1,0.4 0.5,0.8 1,0.7 0.8,-0.1 1.1,-1.1 1.4,-1.7 0.2,-0.4 -0.2,-0.9 -0.6,-0.8 z"
   id="path14833"
   style="fill:#4c0000" />

			</g>

			<g
   id="g14839">
				<path
   class="st9"
   d="m 534.9,323.3 c -0.1,0 -0.2,0.1 -0.3,0.1 -0.1,0.1 -0.2,0.2 -0.2,0.4 0,0.1 0.1,0.2 0.3,0.2 0.2,0 0.3,-0.3 0.4,-0.5 0,-0.1 -0.1,-0.2 -0.2,-0.2 z"
   id="path14837"
   style="fill:#ffffff" />

			</g>

		</g>

		<g
   id="g14851">
			<g
   id="g14845">
				<path
   class="st126"
   d="m 561.8,318.1 c 0.1,0.5 0.2,1 0.5,1.5 0.4,0.6 0.9,1.2 1.7,1.1 0.6,-0.1 1.1,-0.6 1.1,-1.2 -0.1,-1.1 -1.3,-1.6 -2.1,-2.1 -0.6,-0.4 -1.3,0.1 -1.2,0.7 z"
   id="path14843"
   style="fill:#4c0000" />

			</g>

			<g
   class="st129"
   id="g14849"
   style="opacity:0.51">
				<path
   class="st9"
   d="m 563.2,318.8 c 0,0.1 0,0.3 0.1,0.4 0.1,0.2 0.2,0.3 0.5,0.3 0.2,0 0.3,-0.2 0.3,-0.3 0,-0.3 -0.3,-0.4 -0.6,-0.6 -0.2,-0.1 -0.4,0 -0.3,0.2 z"
   id="path14847"
   style="fill:#ffffff" />

			</g>

		</g>

		<g
   id="g14861">
			<g
   id="g14855">
				<path
   class="st126"
   d="m 568.9,317.3 c 0.4,0.4 0.7,0.8 1.3,0.9 0.7,0.2 1.4,0.4 2,-0.1 0.5,-0.4 0.6,-1.1 0.2,-1.6 -0.7,-0.8 -2,-0.6 -2.9,-0.6 -0.7,0.1 -1,0.9 -0.6,1.4 z"
   id="path14853"
   style="fill:#4c0000" />

			</g>

			<g
   id="g14859">
				<path
   class="st9"
   d="m 570.4,317 c 0.1,0.1 0.2,0.2 0.3,0.3 0.2,0.1 0.4,0.1 0.5,0 0.1,-0.1 0.2,-0.3 0.1,-0.4 -0.2,-0.2 -0.5,-0.2 -0.8,-0.1 -0.1,-0.2 -0.2,0.1 -0.1,0.2 z"
   id="path14857"
   style="fill:#ffffff" />

			</g>

		</g>

	</g>

</g>
  </g>
</svg>
