<?xml version="1.0" encoding="UTF-8" standalone="no"?>
<svg
   version="1.1"
   preserveAspectRatio="none"
   x="0px"
   y="0px"
   width="857.57904"
   height="481.67905"
   viewBox="0 0 857.57904 481.67905"
   id="svg1257"
   sodipodi:docname="grid.svg"
   inkscape:version="1.2.2 (732a01da63, 2022-12-09)"
   xmlns:inkscape="http://www.inkscape.org/namespaces/inkscape"
   xmlns:sodipodi="http://sodipodi.sourceforge.net/DTD/sodipodi-0.dtd"
   xmlns:xlink="http://www.w3.org/1999/xlink"
   xmlns="http://www.w3.org/2000/svg"
   xmlns:svg="http://www.w3.org/2000/svg"
   xmlns:rdf="http://www.w3.org/1999/02/22-rdf-syntax-ns#"
   xmlns:cc="http://creativecommons.org/ns#"
   xmlns:dc="http://purl.org/dc/elements/1.1/">
  <metadata
     id="metadata1261">
    <rdf:RDF>
      <cc:Work
         rdf:about="">
        <dc:format>image/svg+xml</dc:format>
        <dc:type
           rdf:resource="http://purl.org/dc/dcmitype/StillImage" />
      </cc:Work>
    </rdf:RDF>
  </metadata>
  <sodipodi:namedview
     pagecolor="#ffffff"
     bordercolor="#666666"
     borderopacity="1"
     objecttolerance="10"
     gridtolerance="10"
     guidetolerance="10"
     inkscape:pageopacity="0"
     inkscape:pageshadow="2"
     inkscape:window-width="1366"
     inkscape:window-height="705"
     id="namedview1259"
     showgrid="false"
     inkscape:zoom="0.39267887"
     inkscape:cx="-5.0932203"
     inkscape:cy="341.24576"
     inkscape:window-x="-8"
     inkscape:window-y="-8"
     inkscape:window-maximized="1"
     inkscape:current-layer="svg1257"
     inkscape:showpageshadow="2"
     inkscape:pagecheckerboard="0"
     inkscape:deskcolor="#d1d1d1" />
  <defs
     id="defs487">
    <filter
       id="Filter_1"
       x="-0.30319303"
       y="-0.23565891"
       width="1.6063861"
       height="1.4713179"
       color-interpolation-filters="sRGB">
      <feFlood
         flood-color="#000000"
         flood-opacity="0.2"
         in="SourceGraphic"
         result="result1"
         id="feFlood2" />
      <feComposite
         in2="SourceGraphic"
         in="result1"
         operator="in"
         result="result2"
         id="feComposite4" />
      <feGaussianBlur
         in="result2"
         stdDeviation="4,4"
         result="result3"
         id="feGaussianBlur6" />
      <feOffset
         dx="1.999999965771458"
         dy="1.999999965771458"
         in="result3"
         result="result4"
         id="feOffset8" />
      <feComposite
         in2="result4"
         in="SourceGraphic"
         operator="over"
         result="result5"
         id="feComposite10" />
    </filter>
    <filter
       id="Filter_2"
       x="-0.2"
       y="-0.2"
       width="1.4"
       height="1.4"
       color-interpolation-filters="sRGB">
      <feColorMatrix
         in="SourceGraphic"
         type="matrix"
         values="1 0 0 0 0 0 1 0 0 0 0 0 1 0 0 0 0 0 0.8 0"
         result="result1"
         id="feColorMatrix13" />
    </filter>
    <filter
       id="Filter_3"
       x="-0.2638385"
       y="-0.2554692"
       width="1.5276771"
       height="1.5109384"
       color-interpolation-filters="sRGB">
      <feFlood
         flood-color="#000000"
         flood-opacity="0.2"
         in="SourceGraphic"
         result="result1"
         id="feFlood16" />
      <feComposite
         in2="SourceGraphic"
         in="result1"
         operator="in"
         result="result2"
         id="feComposite18" />
      <feGaussianBlur
         in="result2"
         stdDeviation="4,4"
         result="result3"
         id="feGaussianBlur20" />
      <feOffset
         dx="1.999999965771458"
         dy="1.999999965771458"
         in="result3"
         result="result4"
         id="feOffset22" />
      <feComposite
         in2="result4"
         in="SourceGraphic"
         operator="over"
         result="result5"
         id="feComposite24" />
    </filter>
    <filter
       id="Filter_4"
       x="-0.23289035"
       y="-0.24242115"
       width="1.4657807"
       height="1.4848424"
       color-interpolation-filters="sRGB">
      <feFlood
         flood-color="#000000"
         flood-opacity="0.2"
         in="SourceGraphic"
         result="result1"
         id="feFlood27" />
      <feComposite
         in2="SourceGraphic"
         in="result1"
         operator="in"
         result="result2"
         id="feComposite29" />
      <feGaussianBlur
         in="result2"
         stdDeviation="4,4"
         result="result3"
         id="feGaussianBlur31" />
      <feOffset
         dx="1.999999965771458"
         dy="1.999999965771458"
         in="result3"
         result="result4"
         id="feOffset33" />
      <feComposite
         in2="result4"
         in="SourceGraphic"
         operator="over"
         result="result5"
         id="feComposite35" />
    </filter>
    <filter
       id="Filter_5"
       x="-0.2"
       y="-0.2"
       width="1.4"
       height="1.4"
       color-interpolation-filters="sRGB">
      <feColorMatrix
         in="SourceGraphic"
         type="matrix"
         values="1 0 0 0 0 0 1 0 0 0 0 0 1 0 0 0 0 0 0.6 0"
         result="result1"
         id="feColorMatrix38" />
    </filter>
    <filter
       id="Filter_6"
       x="-0.2"
       y="-0.2"
       width="1.4"
       height="1.4"
       color-interpolation-filters="sRGB">
      <feColorMatrix
         in="SourceGraphic"
         type="matrix"
         values="1 0 0 0 0 0 1 0 0 0 0 0 1 0 0 0 0 0 0.7 0"
         result="result1"
         id="feColorMatrix41" />
    </filter>
    <filter
       id="Filter_7"
       x="-0.2"
       y="-0.2"
       width="1.4"
       height="1.4"
       color-interpolation-filters="sRGB">
      <feColorMatrix
         in="SourceGraphic"
         type="matrix"
         values="1 0 0 0 0 0 1 0 0 0 0 0 1 0 0 0 0 0 0.9 0"
         result="result1"
         id="feColorMatrix44" />
    </filter>
    <filter
       id="Filter_8"
       x="-0.20711553"
       y="-0.20989011"
       width="1.4142311"
       height="1.4197803"
       color-interpolation-filters="sRGB">
      <feFlood
         flood-color="#000000"
         flood-opacity="0.2"
         in="SourceGraphic"
         result="result1"
         id="feFlood47" />
      <feComposite
         in2="SourceGraphic"
         in="result1"
         operator="in"
         result="result2"
         id="feComposite49" />
      <feGaussianBlur
         in="result2"
         stdDeviation="4,4"
         result="result3"
         id="feGaussianBlur51" />
      <feOffset
         dx="1.999999965771458"
         dy="1.999999965771458"
         in="result3"
         result="result4"
         id="feOffset53" />
      <feComposite
         in2="result4"
         in="SourceGraphic"
         operator="over"
         result="result5"
         id="feComposite55" />
    </filter>
    <filter
       id="Filter_9"
       x="-0.25918135"
       y="-0.25721505"
       width="1.5183628"
       height="1.51443"
       color-interpolation-filters="sRGB">
      <feFlood
         flood-color="#000000"
         flood-opacity="0.2"
         in="SourceGraphic"
         result="result1"
         id="feFlood58" />
      <feComposite
         in2="SourceGraphic"
         in="result1"
         operator="in"
         result="result2"
         id="feComposite60" />
      <feGaussianBlur
         in="result2"
         stdDeviation="4,4"
         result="result3"
         id="feGaussianBlur62" />
      <feOffset
         dx="1.999999965771458"
         dy="1.999999965771458"
         in="result3"
         result="result4"
         id="feOffset64" />
      <feComposite
         in2="result4"
         in="SourceGraphic"
         operator="over"
         result="result5"
         id="feComposite66" />
    </filter>
    <filter
       id="Filter_10"
       x="-0.32064617"
       y="-0.26676595"
       width="1.6412925"
       height="1.5335318"
       color-interpolation-filters="sRGB">
      <feFlood
         flood-color="#000000"
         flood-opacity="0.2"
         in="SourceGraphic"
         result="result1"
         id="feFlood69" />
      <feComposite
         in2="SourceGraphic"
         in="result1"
         operator="in"
         result="result2"
         id="feComposite71" />
      <feGaussianBlur
         in="result2"
         stdDeviation="4,4"
         result="result3"
         id="feGaussianBlur73" />
      <feOffset
         dx="1.999999965771458"
         dy="1.999999965771458"
         in="result3"
         result="result4"
         id="feOffset75" />
      <feComposite
         in2="result4"
         in="SourceGraphic"
         operator="over"
         result="result5"
         id="feComposite77" />
    </filter>
    <filter
       id="Filter_11"
       x="-0.29485038"
       y="-0.28384769"
       width="1.5897008"
       height="1.5676953"
       color-interpolation-filters="sRGB">
      <feFlood
         flood-color="#000000"
         flood-opacity="0.2"
         in="SourceGraphic"
         result="result1"
         id="feFlood80" />
      <feComposite
         in2="SourceGraphic"
         in="result1"
         operator="in"
         result="result2"
         id="feComposite82" />
      <feGaussianBlur
         in="result2"
         stdDeviation="4,4"
         result="result3"
         id="feGaussianBlur84" />
      <feOffset
         dx="1.999999965771458"
         dy="1.999999965771458"
         in="result3"
         result="result4"
         id="feOffset86" />
      <feComposite
         in2="result4"
         in="SourceGraphic"
         operator="over"
         result="result5"
         id="feComposite88" />
    </filter>
    <filter
       id="Filter_12"
       x="-0.28518519"
       y="-0.25633726"
       width="1.5703703"
       height="1.5126745"
       color-interpolation-filters="sRGB">
      <feFlood
         flood-color="#000000"
         flood-opacity="0.2"
         in="SourceGraphic"
         result="result1"
         id="feFlood91" />
      <feComposite
         in2="SourceGraphic"
         in="result1"
         operator="in"
         result="result2"
         id="feComposite93" />
      <feGaussianBlur
         in="result2"
         stdDeviation="4,4"
         result="result3"
         id="feGaussianBlur95" />
      <feOffset
         dx="1.999999965771458"
         dy="1.999999965771458"
         in="result3"
         result="result4"
         id="feOffset97" />
      <feComposite
         in2="result4"
         in="SourceGraphic"
         operator="over"
         result="result5"
         id="feComposite99" />
    </filter>
    <filter
       id="Filter_13"
       x="-0.27337462"
       y="-0.26499707"
       width="1.5467492"
       height="1.529994"
       color-interpolation-filters="sRGB">
      <feFlood
         flood-color="#000000"
         flood-opacity="0.2"
         in="SourceGraphic"
         result="result1"
         id="feFlood102" />
      <feComposite
         in2="SourceGraphic"
         in="result1"
         operator="in"
         result="result2"
         id="feComposite104" />
      <feGaussianBlur
         in="result2"
         stdDeviation="4,4"
         result="result3"
         id="feGaussianBlur106" />
      <feOffset
         dx="1.999999965771458"
         dy="1.999999965771458"
         in="result3"
         result="result4"
         id="feOffset108" />
      <feComposite
         in2="result4"
         in="SourceGraphic"
         operator="over"
         result="result5"
         id="feComposite110" />
    </filter>
    <g
       id="Duplicate_Items_Folder_Symbol_4_copy_12_0_Layer0_0_FILL">
      <path
         fill="#444444"
         stroke="none"
         d="m 151.25,-75.8 q -0.14473,-0.148242 -0.35,-0.15 H 0 q -0.20527344,0.0018 -0.35,0.15 -0.14824219,0.144727 -0.15,0.35 v 150.9 q 0.001758,0.205273 0.15,0.35 0.14472656,0.148242 0.35,0.15 h 150.9 q 0.20527,-0.0018 0.35,-0.15 0.14824,-0.144727 0.15,-0.35 v -150.9 q -0.002,-0.205273 -0.15,-0.35 M 0.5,-74.95 H 150.4 V 74.95 H 0.5 Z"
         id="path113" />
      <path
         fill="#f8e8ce"
         stroke="none"
         d="M 150.4,-74.95 H 0.5 v 149.9 h 149.9 v -149.9 m -0.75,0.75 0.2,-0.2 V 74.2 H 1.5 1.25 V -74.4 h 148.4 z"
         id="path115" />
      <path
         fill="#9aba78"
         stroke="none"
         d="m 143.1,-67.55 0.1,-0.1 H 8 v 135.4 l 0.35,-0.3 H 143.1 Z"
         id="path117" />
      <path
         fill="#cbf59e"
         stroke="none"
         d="m 149.65,-74.2 v -0.2 H 1.25 V 74.2 H 1.5 L 8,67.75 v -135.4 h 135.2 z"
         id="path119" />
      <path
         fill="#7d9862"
         stroke="none"
         d="m 149.85,-74.4 -0.2,0.2 -6.45,6.55 -0.1,0.1 v 135 H 8.35 L 8,67.75 1.5,74.2 h 148.35 z"
         id="path121" />
    </g>
    <g
       id="flash0_ai_1_Objects__Path__1_0_Layer0_0_FILL">
      <path
         fill="#ffffff"
         stroke="none"
         d="m 96.2,15.1 q -6.85,1.85 -12.9,6.45 -5.85,-5 -13.65,-6.3 -3.25,-0.5 -6.15,-1.6 -1.9,-0.7 -2.75,-1.25 -2.85,-1.95 -6.25,-2.2 -3.4,-0.2 -6.6,1.25 -3.15,1.4 -5.2,4.3 -2,2.85 -2.45,6.4 -0.55,4.95 0.1,10.2 1.25,9.35 6.25,15.7 1.1,1.5 2.8,3.1 -3.9,3.55 -6.35,8.2 -2.4,4.6 -4.45,11.3 -1.15,3.9 -3.15,12.2 -3.25,14.05 -5.15,16.6 l -0.9,1.2 q -11,14.3 -15.4,26.95 -8.15,23.2 0.8,46.8 9.4,24.85 30.6,35.5 11.5,5.75 28.8,7.45 l 0.35,0.05 q 3,0.25 5.7,0.25 2.35,0 4.65,-0.15 l 3.9,-0.35 q 4.55,-0.55 8.45,-1.55 8.25,-1.9 15.85,-5.85 l 2.3,-1.25 q 2.2,-1.25 4.55,-2.9 2.35,-1.65 4.4,-3.4 1.75,-1.45 4.2,-3.9 6.45,-6.7 10.65,-15.15 1.7,-3.45 3.5,-7.85 0.6,-1.4 1.9,-5.15 1.2,-3.75 1.55,-5.15 1,-4.1 1.6,-7.7 l 0.35,-2.6 q 0.25,-1.65 0.45,-5.05 l 0.05,-2.55 q 0.05,-3.4 -0.35,-7.5 -0.3,-2.55 -0.75,-4.9 -0.6,-3.3 -1.85,-7.15 Q 142.1,116.3 133.9,106 127.15,97.5 124.65,92.95 L 122.9,89.2 122.05,86.55 119.5,75.9 q -0.65,-2.75 -1.75,-6.25 -0.45,-1.35 -1.15,-3.15 l -1.3,-3.05 q -1.45,-3.15 -3.35,-6.05 l -1.05,-1.45 q -3.85,-5.05 -8.7,-8.3 L 103,47.4 q 6.85,-0.75 10,-7.8 2.6,-5.9 1.35,-12.1 -1.4,-6.85 -7.1,-10.65 -2.45,-1.6 -5.35,-2.05 -2.9,-0.5 -5.7,0.3 z"
         id="path124" />
    </g>
    <g
       id="Symbol_1_0_Layer0_35_MEMBER_1_MEMBER_0_FILL">
      <path
         fill="#dce223"
         stroke="none"
         d="m 398.55,340.65 q -4.2,-0.1 -9.2,1.2 -10,2.65 -13.85,9.85 -2.8,5.3 -6.75,22 -3.6,15.3 -7.1,19.9 -10.15,13.4 -13.7,22.65 -7.55,19.5 0.05,39.45 7.6,20.15 24.15,28.35 8.9,4.45 24.3,6 12.7,1.2 25.55,-3.7 17.65,-6.75 25.75,-23.1 17.7,-35.85 -3.8,-62.85 -9.4,-11.8 -12.35,-18.7 -1.3,-3.15 -4.55,-16.55 -2.95,-12.15 -8.6,-17.7 -6.85,-6.8 -19.9,-6.8 z"
         id="path127" />
    </g>
    <g
       id="Symbol_1_0_Layer0_35_MEMBER_1_MEMBER_1_FILL">
      <path
         fill="#babf1d"
         stroke="none"
         d="m 398.55,340.65 h -0.7 q 8.8,0.35 13.75,7.25 3.55,5 5.55,14.3 3.1,14.65 4.15,17.5 2.8,7.7 11.3,19.7 9.3,13.1 8.85,30.8 -0.4,16.9 -9.5,33.35 -6.1,11.05 -16.9,18.3 -8.95,6.05 -18.85,8.15 l 0.25,0.05 q 12.7,1.2 25.55,-3.7 17.65,-6.75 25.75,-23.1 17.7,-35.85 -3.8,-62.85 -9.4,-11.8 -12.35,-18.7 -1.3,-3.15 -4.55,-16.55 -2.95,-12.15 -8.6,-17.7 -6.85,-6.8 -19.9,-6.8 z"
         id="path130" />
    </g>
    <g
       id="flash0_ai_1_Objects__Path__2_0_Layer0_0_FILL">
      <path
         fill="#ffffff"
         stroke="none"
         d="M 13.95,0 Q 5.4,10.9 2.15,21.25 q -5,16.15 1.55,32.6 9.15,23 31.5,29.35 Q 17.9,74.5 10.05,51.75 1.1,25.5 13.95,0 Z"
         id="path133" />
    </g>
    <g
       id="Symbol_1_0_Layer0_35_MEMBER_1_MEMBER_3_FILL">
      <path
         fill="#74b84b"
         stroke="none"
         d="m 398.3,321.6 q -3.5,-5.9 -10.2,-7 -5.45,-0.9 -10.2,-2.9 l -3.7,-1.85 -0.15,2.95 q 0,3.6 0.75,6.7 2.45,9.8 11.4,10.85 8.25,0.95 11.8,3.05 1.75,1.05 1.85,1.9 2.1,-7.6 -1.55,-13.7 z"
         id="path136" />
    </g>
    <g
       id="Symbol_1_0_Layer0_35_MEMBER_1_MEMBER_4_FILL">
      <path
         fill="#42362b"
         stroke="none"
         d="m 397.35,341.95 q 0.5,0.4 1.25,0.05 4.45,-12.1 14,-18.15 4.8,-3.05 8.7,-3.65 1.2,-2.65 0.25,-4.65 l -1.2,-1.45 q -10.65,2.95 -17.95,15.5 -2.35,4.05 -3.95,8.45 -1.3,3.55 -1.1,3.9 z"
         id="path139" />
    </g>
    <g
       id="flash0_ai_1_Objects__Path__1_0_0_Layer0_0_FILL">
      <path
         fill="#ffffff"
         stroke="none"
         d="m 162.35,66.85 -0.1,-0.05 -4.8,-3.95 -5.6,-3.5 -0.15,-0.05 -4.05,-2 -6.05,-2.15 q 5.5,-8.5 6.65,-20.65 0.65,-6.6 -0.05,-12.15 -0.45,-3.6 -2.5,-6.45 -2.05,-2.95 -5.25,-4.4 -3.25,-1.5 -6.7,-1.25 -3.5,0.2 -6.45,2.15 -1.7,1.05 -4.9,2.3 -5.6,2.2 -11.9,3.2 -7.25,1.15 -13.4,5 -6.2,3.85 -10.5,9.85 l -0.7,1.05 q -7.55,-4.6 -15.5,-6.5 -3.7,-0.8 -7.3,0.45 -3.6,1.3 -6.05,4.2 -2.85,3.35 -4.15,7.95 -0.8,2.85 -0.85,5.4 -0.2,3.95 1.85,7.45 -10,2.25 -19.5,8.05 -15.35,9.35 -21.45,30.6 -6.1,21.2 0.1,43.55 7.3,26.2 28.35,41.15 21.05,14.95 51,15.15 h 0.85 q 17.1,0 31.55,-4.2 l 2.6,-0.75 q 4.5,-1.5 7.5,-2.75 l 2.4,-1.05 q 4.6,-2.05 8.95,-4.75 l 7.95,-5.6 q 2.65,-2.05 5.35,-4.7 l 1.65,-1.65 q 1.95,-2 4.55,-5.15 1.55,-1.95 2.7,-3.65 7.7,-11.05 10.9,-23.9 l 0.5,-2.05 q 1.9,-8.35 1.8,-16.9 V 114 q -0.15,-10.7 -3.2,-20.6 v -0.05 q -0.7,-2.2 -1.2,-3.5 l -1.4,-3.55 -2.2,-4.6 -0.05,-0.05 q -0.5,-1.1 -1.3,-2.4 l -0.05,-0.1 -0.45,-0.75 -4.5,-6.3 z"
         id="path142" />
    </g>
    <g
       id="Symbol_1_0_Layer0_36_MEMBER_1_MEMBER_0_FILL">
      <path
         fill="#74b84b"
         stroke="none"
         d="m 666.15,326.15 q -7.5,3.15 -16.1,4.55 -10.5,1.7 -16.05,11 -5.7,9.65 -2.45,21.65 l 0.45,-0.9 q 0.8,-1.05 2.5,-2.1 5.6,-3.3 18.55,-4.8 14.15,-1.6 17.95,-17.1 1.15,-4.85 1.2,-10.5 l -0.25,-4.65 q -2.05,1.3 -5.8,2.85 z"
         id="path145" />
    </g>
    <g
       id="Symbol_1_0_Layer0_36_MEMBER_1_MEMBER_1_FILL">
      <path
         fill="#5e4023"
         stroke="none"
         d="m 604.9,340 q -1.05,1.3 -1.55,3.3 -0.2,1.05 -0.25,1.8 19.4,7.45 28.4,23.4 4.5,7.95 5.1,14.45 -0.6,-22.8 -16.2,-35.15 -4.9,-3.85 -10.7,-6.2 z"
         id="path148" />
    </g>
    <g
       id="Symbol_1_0_Layer0_36_MEMBER_1_MEMBER_2_FILL">
      <path
         fill="#ff0000"
         stroke="none"
         d="m 672.9,367 q -9.6,-2.25 -19.75,0 -10,2.2 -18,8.15 -6.4,-5.55 -16.6,-8.75 -20.45,-6.35 -39.65,5.35 -11.5,7.05 -15.85,24.25 -4.4,17.25 0.8,35.15 5.7,19.75 21.1,31.7 17.8,13.8 45.1,13.9 22.15,0.1 38.9,-7.5 15.2,-6.9 24.55,-19.4 8.65,-11.55 11,-25.95 2.25,-13.9 -1.8,-27.25 -7.45,-24.5 -29.8,-29.65 z"
         id="path151" />
    </g>
    <g
       id="Symbol_1_0_Layer0_36_MEMBER_1_MEMBER_3_FILL">
      <path
         fill="#db0000"
         stroke="none"
         d="m 683.5,371.15 q -12.4,-7.1 -27.6,-4.65 18.35,9.9 23.15,30.7 2.9,12.4 0.7,25.1 -2.1,12.65 -8.85,23.65 -14.75,24.1 -43.35,30.75 l 2.5,0.05 q 22.15,0.1 38.9,-7.5 15.2,-6.9 24.55,-19.4 8.65,-11.55 11,-25.95 2.25,-13.9 -1.8,-27.25 -5.4,-17.6 -19.2,-25.5 z"
         id="path154" />
    </g>
    <g
       id="flash0_ai_1_Objects__Path__5_0_Layer0_0_FILL">
      <path
         fill="#ffffff"
         stroke="none"
         d="M 4.95,45.95 Q 6.7,14.2 28.65,0 25.75,0.55 21.8,2.35 13.85,6.05 8.6,12.55 -8.3,33.4 7.55,74.8 4.05,61.8 4.95,45.95 Z"
         id="path157" />
    </g>
    <g
       id="flash0_ai_1_Objects__Compound_Path__0_Layer0_0_FILL">
      <path
         fill="#ffffff"
         stroke="none"
         d="m 172.1,10.2 q -2.95,0.1 -6.6,1.2 -6.15,1.9 -10.6,6 -3.5,3.2 -4,7.9 -0.45,4.75 2.3,8.6 0.15,0 0.95,1.75 1.05,2.15 1.5,4.4 l -1.85,1.7 q -1.55,1.5 -5.2,5.4 L 136.4,60.4 q -3.75,3.75 -5.6,5.45 L 116.3,77.3 q -2.9,1.95 -6.1,3.75 l -1.6,0.85 q -5.75,3.15 -12.25,5.45 -2.1,0.8 -5,1.3 l -0.9,0.2 q -3.05,0.5 -5.25,0.65 h -0.15 l -1.9,0.15 q -1.1,0.1 -3.3,0.2 l -6,0.1 Q 69.9,89.9 67.9,89.8 l -18.85,-1.2 -0.1,-0.05 h -0.1 Q 40.1,87.85 37.1,87.85 h -2.3 l -0.2,0.05 -1.65,0.05 -0.3,0.05 -1.35,0.1 h -0.25 l -1.45,0.15 -0.1,0.05 -3.25,0.6 -0.1,0.05 -0.45,0.1 q -3.4,0.45 -6.3,2.15 l -0.65,0.45 -0.1,0.05 -2.15,1.65 -0.85,0.8 -1.65,1.9 q -1,1.4 -1.4,2.15 l -0.05,0.05 -1.4,3.2 -0.7,2.7 -0.3,2.75 q -0.05,0.45 0,0.9 0,3 1.05,5.55 l 0.4,2.3 0.95,3.45 v 0.1 l 2.3,5.6 2.95,5.25 0.35,0.5 q 0.25,0.35 0.75,1.1 l 5.55,7 0.4,0.35 0.1,0.15 5.45,5.25 6.45,5.2 0.05,0.05 0.4,0.25 -0.05,0.45 0.05,2.55 q 0,0.6 0.15,1.2 l 0.2,1.3 0.7,2.3 q 1,2.8 2.8,4.9 l 0.5,0.95 0.15,0.2 2.85,4.3 0.6,0.7 q 0.15,0.15 0.45,0.5 l 0.55,0.7 4.8,4.75 0.1,0.05 0.45,0.4 1.7,1.35 0.1,0.1 8.6,5.5 0.05,0.05 7.05,3.35 q 2,4 5.45,6.4 l 0.65,0.65 0.15,0.2 1,1 q 1,0.95 2.5,2.1 l 0.4,0.35 2,1.45 0.6,0.35 0.1,0.1 2.5,1.5 5.4,2.65 5.6,2.05 0.3,0.05 2.35,0.7 11.45,2.1 3.6,0.35 q 0.65,0 2.05,0.1 l 6.3,0.15 q 3.65,-0.1 6.55,-0.35 3.6,-0.45 6.4,-0.95 2.8,-0.55 6.3,-1.45 8.5,-2.35 16.85,-6.6 l 2.45,-1.3 q 12.4,-6.7 23.95,-17.35 11.55,-10.6 20.8,-23.8 5.5,-7.9 9.15,-16.05 0.75,-1.6 1.2,-2.8 1.75,-4.1 3,-8.4 1.05,-3.45 1.5,-5.7 0.7,-2.95 1.15,-5.7 0.95,-5.85 1,-11.55 l 0.05,-2.85 q -0.05,-4.1 -0.55,-8.65 -0.35,-2.85 -0.9,-5.7 -0.7,-3.85 -2,-8.45 -2.1,-7.1 -5.25,-13.65 l -1.65,-3.3 -3.9,-6.4 -3.6,-4.75 -3.25,-3.55 -0.05,-0.1 -8.1,-6.75 -4.7,-2.8 -2.35,-1.15 q 0.7,-9.15 -0.5,-16.9 -0.7,-4.7 -4.45,-7.75 -3.7,-3 -8.5,-2.8 z"
         id="path160" />
    </g>
    <g
       id="Symbol_1_0_Layer0_37_MEMBER_1_MEMBER_0_MEMBER_0_MEMBER_0_FILL">
      <path
         fill="#f5d329"
         stroke="none"
         d="m 696.85,122.35 q -2.05,-3.85 -4.75,-6.8 l -2.3,-2.15 q -2.8,-0.55 -5.8,1.5 -2.5,1.75 -8.35,7.8 -1.65,1.75 -6.4,11 -5.55,10.75 -10.05,17.2 -16.35,23.25 -41.55,27.05 -11.55,1.75 -35.75,-4.3 -12,-3.15 -16.85,-4.35 -8.2,-2.1 -11.1,-2.05 -6.5,0.1 -9,1.25 -1.95,0.9 -3.65,3.75 -2.7,4.7 2.05,14.2 6.05,12.3 22.1,22.85 17.15,11.25 42,11 22,-0.15 44.65,-8.95 20.6,-8 33.4,-23.8 12.6,-15.55 15.5,-36.05 2.45,-16.85 -4.15,-29.15 z"
         id="path163" />
    </g>
    <g
       id="Symbol_1_0_Layer0_37_MEMBER_1_MEMBER_0_MEMBER_0_MEMBER_1_FILL">
      <path
         fill="#ebc61a"
         stroke="none"
         d="m 689.85,113.45 q 1.65,12.75 -0.25,24.4 -2.85,17.35 -13.5,34.35 -7.5,12.05 -23.6,20.7 -16.35,8.8 -35.65,10.85 -20.95,2.2 -39.45,-4.35 -20.8,-7.35 -35.1,-24.8 l -1.75,2.45 q 0.4,6.6 5.6,14.2 6.6,9.7 19.3,18.05 17.15,11.25 42,11 22,-0.15 44.65,-8.95 20.6,-8 33.4,-23.8 12.6,-15.55 15.5,-36.05 2.35,-16.35 -3.75,-28.45 -3.3,-6.45 -7.4,-9.6 z"
         id="path166" />
    </g>
    <g
       id="Symbol_1_0_Layer0_37_MEMBER_1_MEMBER_0_MEMBER_0_MEMBER_2_FILL">
      <path
         fill="#ffe24f"
         stroke="none"
         d="m 680.35,117.05 q -0.4,0.35 -13.55,14.5 -23.55,25.35 -49,34.5 -11.55,4.15 -35.5,3.1 -23.7,-1.95 -28.35,-1.9 -4.25,0.1 -6.6,0.5 -2.25,0.45 -3.6,1.4 l 1.1,1.9 q 34.2,17.35 64,13.65 24.2,-3.05 44.4,-19.8 15.05,-12.45 26.4,-31.1 7.65,-12.55 10,-20.4 -3.45,-1.75 -9.3,3.65 z"
         id="path169" />
    </g>
    <g
       id="Symbol_1_0_Layer0_37_MEMBER_1_MEMBER_0_MEMBER_0_MEMBER_3_FILL">
      <path
         fill="#8f7200"
         stroke="none"
         d="m 546.75,174.75 q 1.05,-1.8 0.85,-3.6 -0.15,-1.8 -1.4,-2.5 -1.25,-0.7 -2.9,0.05 -1.65,0.8 -2.65,2.6 -1,1.8 -0.85,3.6 0.2,1.8 1.45,2.5 1.25,0.7 2.9,-0.05 1.6,-0.8 2.6,-2.6 z"
         id="path172" />
    </g>
    <g
       id="flash0_ai_1_Objects__Path__6_0_0_Layer0_0_FILL">
      <path
         fill="#fff1ba"
         stroke="none"
         d="M 95.2,7.55 Q 99.2,3.15 101.15,0 80.85,27.2 38.4,33.05 17.2,36 0,33.5 43.8,43.85 76.85,22.95 87.2,16.45 95.2,7.55 Z"
         id="path175" />
    </g>
    <g
       id="Symbol_1_0_Layer0_37_MEMBER_1_MEMBER_0_MEMBER_0_MEMBER_5_FILL">
      <path
         fill="#8f7200"
         stroke="none"
         d="m 667.6,172 q 0.75,-1.3 0.55,-2.65 -0.25,-1.35 -1.25,-1.9 -1.05,-0.55 -2.3,-0.05 -1.25,0.55 -1.95,1.85 -0.75,1.35 -0.55,2.7 0.25,1.35 1.25,1.9 1.05,0.55 2.3,0.05 1.25,-0.55 1.95,-1.9 z"
         id="path178" />
    </g>
    <g
       id="Symbol_1_0_Layer0_37_MEMBER_1_MEMBER_0_MEMBER_0_MEMBER_6_FILL">
      <path
         fill="#8f7200"
         stroke="none"
         d="m 658.05,173.4 q 0.35,-0.6 0.25,-1.2 -0.1,-0.65 -0.55,-0.9 -0.5,-0.25 -1.05,0 -0.55,0.25 -0.9,0.85 -0.35,0.6 -0.25,1.2 0.1,0.65 0.55,0.9 0.5,0.25 1.05,0 0.55,-0.25 0.9,-0.85 z"
         id="path181" />
    </g>
    <g
       id="Symbol_1_0_Layer0_37_MEMBER_1_MEMBER_0_MEMBER_0_MEMBER_7_FILL">
      <path
         fill="#8f7200"
         stroke="none"
         d="m 602.05,197 q 0.35,-0.6 0.25,-1.2 -0.1,-0.65 -0.6,-0.9 -0.45,-0.25 -1.05,0 -0.55,0.25 -0.9,0.85 -0.35,0.6 -0.25,1.2 0.1,0.65 0.6,0.9 0.45,0.25 1.05,0 0.55,-0.25 0.9,-0.85 z"
         id="path184" />
    </g>
    <g
       id="Symbol_1_0_Layer0_37_MEMBER_1_MEMBER_0_MEMBER_0_MEMBER_8_FILL">
      <path
         fill="#8f7200"
         stroke="none"
         d="m 596.5,196.85 q 0.25,-0.45 0.15,-0.95 -0.05,-0.45 -0.4,-0.65 -0.35,-0.2 -0.8,0 -0.4,0.2 -0.65,0.65 -0.25,0.45 -0.2,0.9 0.05,0.45 0.4,0.65 0.35,0.2 0.8,0.05 0.45,-0.2 0.7,-0.65 z"
         id="path187" />
    </g>
    <g
       id="Symbol_1_0_Layer0_37_MEMBER_1_MEMBER_0_MEMBER_0_MEMBER_9_FILL">
      <path
         fill="#8f7200"
         stroke="none"
         d="m 597.35,191.8 q 0.25,-0.45 0.15,-0.95 -0.05,-0.45 -0.4,-0.65 -0.35,-0.2 -0.8,0 -0.45,0.2 -0.7,0.65 -0.25,0.45 -0.15,0.9 0.05,0.45 0.4,0.65 0.35,0.2 0.8,0.05 0.45,-0.2 0.7,-0.65 z"
         id="path190" />
    </g>
    <g
       id="Symbol_1_0_Layer0_37_MEMBER_1_MEMBER_0_MEMBER_0_MEMBER_10_FILL">
      <path
         fill="#8f7200"
         stroke="none"
         d="m 652,188.55 q 0.4,-0.75 0.3,-1.45 -0.1,-0.75 -0.65,-1.05 -0.55,-0.3 -1.25,0 -0.7,0.25 -1.1,1 -0.4,0.7 -0.25,1.45 0.1,0.7 0.65,1.05 0.55,0.3 1.25,0 0.7,-0.3 1.05,-1 z"
         id="path193" />
    </g>
    <g
       id="Symbol_1_0_Layer0_37_MEMBER_1_MEMBER_1_MEMBER_0_MEMBER_0_FILL">
      <path
         fill="#f5d329"
         stroke="none"
         d="m 712.05,145.8 q -3.25,-16.75 -13.5,-26.2 -3.2,-3 -6.7,-4.85 l -2.9,-1.3 q -2.85,0.4 -5,3.3 -1.8,2.5 -5.3,10.15 -1,2.2 -2.45,12.5 -1.75,11.95 -3.9,19.5 -7.85,27.35 -30.35,39.2 -10.35,5.4 -35.2,7.65 -12.35,0.95 -17.35,1.35 -8.45,0.75 -11.15,1.75 -6.15,2.2 -8.15,4.15 -1.55,1.45 -2.15,4.7 -1,5.3 6.55,12.75 9.75,9.6 28.35,14.35 19.9,5 43.35,-3.35 20.7,-7.35 39.25,-23.1 16.85,-14.3 23.75,-33.45 6.8,-18.8 2.85,-39.1 z"
         id="path196" />
    </g>
    <g
       id="Symbol_1_0_Layer0_37_MEMBER_1_MEMBER_1_MEMBER_0_MEMBER_1_FILL">
      <path
         fill="#ebc61a"
         stroke="none"
         d="m 689.05,113.5 q 5.7,11.55 7.7,23.1 3.05,17.4 -1.45,36.9 -3.2,13.85 -15.55,27.3 -12.6,13.65 -30.15,21.9 -19.05,8.95 -38.7,8.85 -22.05,-0.15 -41.3,-11.95 l -0.8,2.9 q 2.55,6.1 9.95,11.6 9.4,6.95 24.1,10.7 19.9,5 43.35,-3.35 20.7,-7.35 39.25,-23.1 16.85,-14.3 23.75,-33.45 6.8,-18.8 2.85,-39.1 -3.15,-16.3 -12.9,-25.7 -5.25,-5.05 -10.1,-6.6 z"
         id="path199" />
    </g>
    <g
       id="Symbol_1_0_Layer0_37_MEMBER_1_MEMBER_1_MEMBER_0_MEMBER_2_FILL">
      <path
         fill="#ffe24f"
         stroke="none"
         d="m 681.25,120 q -0.3,0.55 -8.05,18.15 -14,31.6 -35.05,48.65 -9.55,7.7 -32.5,14.5 -23,5.95 -27.4,7.55 -4,1.45 -6.1,2.65 -2,1.1 -2.9,2.45 l 1.65,1.45 q 38,5.2 64.9,-8.1 21.9,-10.75 35.5,-33.25 10.15,-16.7 14.8,-38.05 3.1,-14.3 2.75,-22.5 -3.85,-0.55 -7.6,6.5 z"
         id="path202" />
    </g>
    <g
       id="Symbol_1_0_Layer0_37_MEMBER_1_MEMBER_1_MEMBER_0_MEMBER_3_FILL">
      <path
         fill="#8f7200"
         stroke="none"
         d="m 573.9,218.25 q 0.4,-2 -0.35,-3.65 -0.75,-1.65 -2.2,-1.9 -1.4,-0.25 -2.7,1 -1.25,1.25 -1.65,3.3 -0.35,2.05 0.4,3.7 0.7,1.65 2.15,1.9 1.45,0.25 2.7,-1 1.3,-1.3 1.65,-3.35 z"
         id="path205" />
    </g>
    <g
       id="flash0_ai_1_Objects__Path__7_0_0_Layer0_0_FILL">
      <path
         fill="#fff1ba"
         stroke="none"
         d="M 68.6,28.5 Q 76.05,19.4 80.55,8.8 82.8,3.5 83.55,0 70.45,34.2 33.9,50.85 15.65,59.2 0,60.65 44.7,57.6 68.6,28.5 Z"
         id="path208" />
    </g>
    <g
       id="Symbol_1_0_Layer0_37_MEMBER_1_MEMBER_1_MEMBER_0_MEMBER_5_FILL">
      <path
         fill="#8f7200"
         stroke="none"
         d="m 687.2,176.1 q 0.25,-1.5 -0.4,-2.7 -0.65,-1.2 -1.8,-1.4 -1.15,-0.2 -2.15,0.75 -1,0.9 -1.25,2.4 -0.25,1.5 0.4,2.7 0.6,1.15 1.75,1.4 1.15,0.2 2.2,-0.75 1,-0.9 1.25,-2.4 z"
         id="path211" />
    </g>
    <g
       id="Symbol_1_0_Layer0_37_MEMBER_1_MEMBER_1_MEMBER_0_MEMBER_6_FILL">
      <path
         fill="#8f7200"
         stroke="none"
         d="m 678.65,180.55 q 0.1,-0.7 -0.2,-1.25 -0.25,-0.55 -0.8,-0.65 -0.55,-0.1 -1,0.35 -0.5,0.4 -0.6,1.1 -0.1,0.7 0.2,1.25 0.3,0.55 0.8,0.6 0.5,0.1 1,-0.3 0.45,-0.4 0.6,-1.1 z"
         id="path214" />
    </g>
    <g
       id="Symbol_1_0_Layer0_37_MEMBER_1_MEMBER_1_MEMBER_0_MEMBER_7_FILL">
      <path
         fill="#8f7200"
         stroke="none"
         d="m 612.9,225 q 0.1,-0.65 -0.2,-1.25 -0.25,-0.55 -0.8,-0.65 -0.5,-0.05 -1,0.35 -0.45,0.45 -0.55,1.1 -0.1,0.7 0.2,1.25 0.3,0.55 0.8,0.65 0.55,0.1 1,-0.35 0.45,-0.4 0.55,-1.1 z"
         id="path217" />
    </g>
    <g
       id="Symbol_1_0_Layer0_37_MEMBER_1_MEMBER_1_MEMBER_0_MEMBER_8_FILL">
      <path
         fill="#8f7200"
         stroke="none"
         d="m 628.25,215.3 q 0.15,-0.65 -0.15,-1.2 -0.25,-0.55 -0.8,-0.65 -0.55,-0.1 -1,0.3 -0.5,0.45 -0.6,1.15 -0.1,0.7 0.2,1.25 0.3,0.55 0.8,0.6 0.55,0.1 1,-0.3 0.45,-0.45 0.55,-1.15 z"
         id="path220" />
    </g>
    <g
       id="Symbol_1_0_Layer0_37_MEMBER_1_MEMBER_1_MEMBER_0_MEMBER_9_FILL">
      <path
         fill="#8f7200"
         stroke="none"
         d="m 611.1,219.05 q 0.1,-0.5 -0.1,-0.9 -0.25,-0.4 -0.65,-0.5 -0.35,-0.05 -0.7,0.25 -0.35,0.3 -0.45,0.8 -0.05,0.55 0.15,0.95 0.2,0.45 0.6,0.5 0.4,0.05 0.75,-0.25 0.35,-0.35 0.4,-0.85 z"
         id="path223" />
    </g>
    <g
       id="Symbol_1_0_Layer0_37_MEMBER_1_MEMBER_1_MEMBER_0_MEMBER_10_FILL">
      <path
         fill="#8f7200"
         stroke="none"
         d="m 616.8,217.15 q 0.2,-1.25 -0.75,-1.4 -0.4,-0.05 -0.75,0.25 -0.3,0.3 -0.4,0.85 -0.1,0.5 0.1,0.9 0.2,0.45 0.6,0.5 0.4,0.05 0.75,-0.25 0.4,-0.35 0.45,-0.85 z"
         id="path226" />
    </g>
    <g
       id="Symbol_1_0_Layer0_37_MEMBER_1_MEMBER_1_MEMBER_0_MEMBER_11_FILL">
      <path
         fill="#8f7200"
         stroke="none"
         d="m 677.85,196.8 q 0.15,-0.8 -0.2,-1.45 -0.3,-0.65 -0.95,-0.75 -0.65,-0.1 -1.2,0.4 -0.55,0.5 -0.65,1.3 -0.15,0.8 0.2,1.45 0.3,0.65 0.95,0.75 0.65,0.1 1.2,-0.4 0.55,-0.5 0.65,-1.3 z"
         id="path229" />
    </g>
    <g
       id="Symbol_1_0_Layer0_37_MEMBER_1_MEMBER_2_MEMBER_0_MEMBER_0_FILL">
      <path
         fill="#f5d329"
         stroke="none"
         d="m 719.1,138.8 q -7.35,-15.35 -19.65,-21.9 -3.85,-2.05 -7.75,-3 l -3.1,-0.5 q -2.65,1.1 -4,4.4 -1.15,2.9 -2.55,11.15 -0.4,2.4 0.75,12.75 1.4,12.05 1.2,19.85 -0.65,28.45 -19.45,45.6 -8.65,7.9 -32.1,16.35 -11.7,4 -16.45,5.7 -8,2.85 -10.35,4.45 -5.4,3.75 -6.85,6.1 -1.1,1.8 -0.85,5.1 0.35,5.4 9.55,10.7 11.9,6.8 31.1,6.65 20.5,-0.2 41.05,-14.2 18.2,-12.35 32.1,-32.25 12.7,-18.1 14.55,-38.4 1.8,-19.9 -7.2,-38.55 z"
         id="path232" />
    </g>
    <g
       id="Symbol_1_0_Layer0_37_MEMBER_1_MEMBER_2_MEMBER_0_MEMBER_1_FILL">
      <path
         fill="#ebc61a"
         stroke="none"
         d="m 695.95,121.7 q 4.8,5.8 7.95,11.45 9,16 8.15,35.45 -0.75,16.35 -9.95,33.45 -9.35,17.4 -24.45,29.9 -16.3,13.45 -35.25,17.6 -21.1,4.6 -42.35,-3.3 l -0.1,3.05 q 4.05,5.25 12.6,8.65 10.85,4.4 26.05,4.25 20.5,-0.2 41.05,-14.2 18.2,-12.35 32.1,-32.25 12.7,-18.1 14.55,-38.4 1.8,-19.9 -7.2,-38.55 -7.15,-14.95 -18.95,-21.55 -6.5,-3.65 -11.45,-3.85 2.05,2.35 7.25,8.3 z"
         id="path235" />
    </g>
    <g
       id="Symbol_1_0_Layer0_37_MEMBER_1_MEMBER_2_MEMBER_0_MEMBER_2_FILL">
      <path
         fill="#ffe24f"
         stroke="none"
         d="m 691.5,135.95 q -0.6,-14.65 -3,-22.5 -3.85,0.45 -5.75,8.2 -0.15,0.65 -3.15,19.6 -5.5,34.15 -21.55,55.9 -7.3,9.9 -27.75,22.3 -20.8,11.6 -24.65,14.2 -3.5,2.45 -5.2,4.15 -1.65,1.6 -2.2,3.1 l 1.95,1 q 38.1,-4.6 60.75,-24.25 18.4,-16 25.9,-41.15 5.6,-18.75 4.65,-40.55 z"
         id="path238" />
    </g>
    <g
       id="Symbol_1_0_Layer0_37_MEMBER_1_MEMBER_2_MEMBER_0_MEMBER_3_FILL">
      <path
         fill="#8f7200"
         stroke="none"
         d="m 603.85,243.9 q -0.15,-2.05 -1.3,-3.45 -1.15,-1.4 -2.6,-1.3 -1.45,0.1 -2.35,1.65 -0.9,1.55 -0.75,3.65 0.15,2.05 1.3,3.45 1.15,1.4 2.6,1.3 1.45,-0.1 2.35,-1.65 0.9,-1.55 0.75,-3.65 z"
         id="path241" />
    </g>
    <g
       id="flash0_ai_1_Objects__Path__6_1_0_Layer0_0_FILL">
      <path
         fill="#fff1ba"
         stroke="none"
         d="M 53.05,35.9 Q 57.5,23.75 58.95,10.65 59.65,4.1 59.5,0 57.85,39.1 28.75,68.6 14.2,83.35 0,90.3 38.85,74.9 53.05,35.9 Z"
         id="path244" />
    </g>
    <g
       id="Symbol_1_0_Layer0_37_MEMBER_1_MEMBER_2_MEMBER_0_MEMBER_5_FILL">
      <path
         fill="#8f7200"
         stroke="none"
         d="m 702.75,174.4 q -0.1,-1.5 -1.05,-2.5 -0.9,-0.95 -2.1,-0.9 -1.15,0.1 -1.9,1.25 -0.7,1.15 -0.6,2.65 0.15,1.5 1.05,2.5 0.95,1 2.1,0.9 1.15,-0.05 1.9,-1.2 0.75,-1.15 0.6,-2.7 z"
         id="path247" />
    </g>
    <g
       id="Symbol_1_0_Layer0_37_MEMBER_1_MEMBER_2_MEMBER_0_MEMBER_6_FILL">
      <path
         fill="#8f7200"
         stroke="none"
         d="m 695.6,180.85 q -0.05,-0.65 -0.5,-1.15 -0.4,-0.45 -0.95,-0.4 -0.5,0.05 -0.85,0.55 -0.35,0.55 -0.3,1.25 0.1,0.7 0.5,1.15 0.45,0.45 0.95,0.4 0.55,-0.05 0.9,-0.55 0.35,-0.55 0.25,-1.25 z"
         id="path250" />
    </g>
    <g
       id="Symbol_1_0_Layer0_37_MEMBER_1_MEMBER_2_MEMBER_0_MEMBER_7_FILL">
      <path
         fill="#8f7200"
         stroke="none"
         d="m 643.05,234.95 q -0.05,-0.65 -0.5,-1.15 -0.4,-0.45 -0.95,-0.4 -0.55,0.05 -0.85,0.55 -0.35,0.55 -0.3,1.25 0.05,0.7 0.45,1.15 0.45,0.45 1,0.4 0.5,-0.05 0.85,-0.55 0.35,-0.55 0.3,-1.25 z"
         id="path253" />
    </g>
    <g
       id="Symbol_1_0_Layer0_37_MEMBER_1_MEMBER_2_MEMBER_0_MEMBER_8_FILL">
      <path
         fill="#8f7200"
         stroke="none"
         d="m 647.3,235.8 q -0.2,-1.3 -1.1,-1.2 -0.4,0.05 -0.65,0.45 -0.25,0.35 -0.2,0.9 0.05,0.5 0.35,0.85 0.3,0.35 0.7,0.3 0.4,-0.05 0.7,-0.4 0.25,-0.4 0.2,-0.9 z"
         id="path256" />
    </g>
    <g
       id="Symbol_1_0_Layer0_37_MEMBER_1_MEMBER_2_MEMBER_0_MEMBER_9_FILL">
      <path
         fill="#8f7200"
         stroke="none"
         d="m 638.05,241.8 q -0.05,-0.55 -0.35,-0.9 -0.3,-0.35 -0.7,-0.3 -0.4,0.05 -0.65,0.45 -0.3,0.4 -0.25,0.9 0.1,0.55 0.4,0.9 0.3,0.35 0.7,0.3 0.4,-0.05 0.65,-0.45 0.3,-0.4 0.2,-0.9 z"
         id="path259" />
    </g>
    <g
       id="Symbol_1_0_Layer0_37_MEMBER_1_MEMBER_2_MEMBER_0_MEMBER_10_FILL">
      <path
         fill="#8f7200"
         stroke="none"
         d="m 699,196.8 q -0.05,-0.8 -0.55,-1.35 -0.5,-0.55 -1.15,-0.5 -0.65,0.1 -1.05,0.7 -0.4,0.65 -0.35,1.45 0.1,0.8 0.55,1.35 0.5,0.55 1.15,0.5 0.65,-0.05 1.05,-0.7 0.45,-0.65 0.35,-1.45 z"
         id="path262" />
    </g>
    <g
       id="Symbol_1_0_Layer0_37_MEMBER_1_MEMBER_3_FILL">
      <path
         fill="#8f7200"
         stroke="none"
         d="m 686.7,90.2 q -3.65,1.05 -6.2,3.35 l 3,5.75 q 2.85,7.2 2,14.15 l 1,0.7 q 1.2,0.45 2.35,-0.55 1.5,-6.5 1.65,-13.55 0.15,-5.75 -0.6,-10.45 -1.35,0.05 -3.2,0.6 z"
         id="path265" />
    </g>
    <g
       id="flash0_ai_1_Objects__Path__1_1_0_Layer0_0_FILL">
      <path
         fill="#ffffff"
         stroke="none"
         d="m 136.95,82.95 q 0,-3.15 -1.35,-6.15 -5.35,-13.5 -15,-24.3 Q 108.2,38.55 93.35,35.5 82.2,18.85 63.7,11.35 60.2,9.9 56.45,10.3 q -3.75,0.4 -6.8,2.55 -5.05,3.45 -7.45,9.35 -2.75,6.65 -0.75,13.75 1.25,4.35 4.7,7.3 3.45,2.95 7.9,3.45 l 1,0.2 Q 48,54 43.9,64.35 q -3.3,8.4 -3.85,16.45 -0.25,4.25 1.5,7.85 -0.25,3.95 -0.25,11.1 -0.05,8.5 -0.5,12.65 -0.75,6.95 -3.2,13.65 -0.95,2.6 -3.5,6.6 -1.5,2.4 -5.25,7.7 -9.7,13.9 -13.5,22.6 -6.6,15.15 -4.75,30.1 l 0.05,0.55 0.65,3.75 v 0.15 l 1.8,6.7 q 4.6,14.05 17.85,23.2 1.4,1 3.75,2.4 6.7,3.85 14.25,6.15 1.45,0.45 4.35,1.15 5.05,1.25 11.2,1.9 l 8.1,0.35 q 4.35,0 8.05,-0.35 l 6.95,-0.95 q 16.6,-2.9 29.6,-11.55 12.95,-8.65 20.6,-21.9 0.8,-1.4 1.7,-3.25 l 1.95,-4.35 q 0.55,-1.3 1.25,-3.45 l 1.25,-3.85 1.15,-4.45 1.65,-8.7 0.6,-4.95 q 0.2,-1.55 0.3,-3.25 l 0.6,-14.4 -0.05,-0.45 -0.65,-14.65 -2.35,-18.75 v -0.05 L 141.25,101.8 138.2,91.45 q -0.8,-2.5 -1.3,-3.8 l 0.05,0.1 -0.45,-1.25 q 0.45,-1.7 0.45,-3.55 z"
         id="path268" />
    </g>
    <g
       id="Symbol_1_0_Layer0_38_MEMBER_1_MEMBER_0_FILL">
      <path
         fill="#70264a"
         stroke="none"
         d="m 196.25,560.15 q -12.4,-16.95 -26.7,-14.45 -1.1,0.05 -2.8,0.45 -3.45,0.8 -6.65,2.7 -10.3,6.05 -14.35,20.4 -2.65,9.3 -2.75,27.45 -0.05,16.7 -4.55,29.05 -2,5.45 -8.1,14.3 -8.65,12.55 -10.35,15.45 -11.95,20.15 -5.9,38.65 3.7,11.35 16.45,18.2 12.05,6.45 27.85,6.7 16.3,0.25 30.15,-6.35 15.25,-7.25 23.15,-20.95 8.05,-13.95 8.45,-40 0.35,-24.65 -6.1,-50.05 -6.65,-26.3 -17.8,-41.55 z"
         id="path271" />
    </g>
    <g
       id="Symbol_1_0_Layer0_38_MEMBER_1_MEMBER_1_FILL">
      <path
         fill="#5c1f3c"
         stroke="none"
         d="m 130.55,712.35 q 12.05,6.45 27.85,6.7 16.3,0.25 30.15,-6.35 15.25,-7.25 23.15,-20.95 5.75,-9.9 7.65,-26.6 1.75,-15.65 -0.15,-34.35 -1.9,-18.45 -6.9,-35.5 -5.2,-17.7 -12.6,-29.95 9.9,27.25 11,58.05 1.15,32.15 -8.35,48.6 -6.8,11.85 -19.15,18.95 -11.3,6.5 -25.25,8.05 -13.35,1.45 -25.55,-1.9 -12.45,-3.45 -20.1,-10.85 0.45,3.85 1.8,7.9 3.7,11.35 16.45,18.2 z"
         id="path274" />
    </g>
    <g
       id="Symbol_1_0_Layer0_38_MEMBER_1_MEMBER_2_FILL">
      <path
         fill="#74b84b"
         stroke="none"
         d="m 195.05,568.1 q 1.35,-0.05 2.95,0.5 5.15,1.75 10.85,8.95 -3.4,-8.95 -10,-17.55 -13.2,-17.3 -29.35,-15.75 -16.1,1.55 -23.5,16.95 -3.7,7.75 -4.2,15.15 1.2,-2.45 3.7,-4.7 5,-4.55 11.55,-3.7 v 2.4 q 0.1,2.95 0.7,5.55 1.95,8.2 8.05,9.75 -0.75,-1.9 0,-5 1.45,-6.2 8.8,-12 l 5.05,6.9 q 4.95,7.8 4.75,12.4 2.85,-2.25 5.45,-5.85 5.2,-7.2 4.15,-13.85 z"
         id="path277" />
    </g>
    <g
       id="flash0_ai_1_Objects__Path__1_2_0_Layer0_0_FILL">
      <path
         fill="#ffffff"
         stroke="none"
         d="M 14.1,44.25 Q 27.4,25.25 23.6,0 23.8,8 20.9,19.25 15.2,41.8 0,58.15 7.45,53.7 14.1,44.25 Z"
         id="path280" />
    </g>
    <g
       id="Symbol_1_0_Layer0_38_MEMBER_1_MEMBER_4_FILL">
      <path
         fill="#517d10"
         stroke="none"
         d="m 169.4,546.65 q 1.5,0.75 2.65,-0.2 -1.5,-4.5 -5.7,-10.1 -8.3,-11.2 -21.45,-16.6 l -1.6,1.75 q -1.45,2.3 -0.65,5 l 3.1,0.6 q 3.8,1 7.4,2.75 11.45,5.6 16.25,16.8 z"
         id="path283" />
    </g>
    <g
       id="flash0_ai_1_Objects__Path__1_3_0_Layer0_0_FILL">
      <path
         fill="#ffffff"
         stroke="none"
         d="m 169,27.25 q 0,-4.1 -2.05,-7.6 -2,-3.4 -5.45,-5.4 -6.45,-4.1 -15.5,-4.1 -6.4,0 -12.65,2.2 -1.7,-0.95 -3,-1.35 -3.05,-1 -6.3,-0.65 -3.2,0.35 -6,2 -3.05,1.75 -6.85,4.75 -6.45,5.05 -11.1,10.85 -8.05,-5.3 -17.8,-9.25 -5.55,-2.3 -9.75,-3.45 -3.1,-0.9 -6.3,-0.4 -3.2,0.5 -5.9,2.25 -3.2,2 -5.05,5.4 -4.4,-0.7 -9.25,-0.7 -13.45,0 -23.65,5.9 -5.85,3.4 -9.1,7.55 -3.3,4.15 -3.2,9.5 0.1,5.3 3.5,9.4 2.1,2.5 5.05,3.9 2.85,1.4 6.05,1.5 0.55,0.7 1.2,1.95 2.15,3.95 4.95,7.5 l -0.1,0.1 q -2.65,4.85 -1.55,10.25 1.1,5.4 5.4,8.8 4.65,3.7 10.6,3.2 l 1.6,1.6 q 3.8,4.15 9.25,7.8 -1.9,5.4 -1.9,11.25 0,6.25 2.2,12.1 2.25,5.9 6.4,10.6 l 0.25,0.25 q 1.25,1.4 2.55,2.55 l 2.6,2.15 q 1.4,1 2.1,1.4 l 2.5,1.45 q 1,0.55 1.8,0.85 l 1.05,0.5 5.7,1.75 0.3,0.05 0.1,0.05 2,0.3 q 2.1,5 5.85,9.3 l 0.2,0.25 q 1.4,1.45 2.6,2.55 l 0.4,0.4 4.3,3.2 4.2,2.25 3.4,1.3 0.9,0.25 q 1.35,0.4 1.85,0.5 2.35,6.45 6.7,11.4 l 0.2,0.25 q 0.8,0.9 2.6,2.6 l 1.8,1.5 2.95,2.05 q 0.65,0.5 1.25,0.75 0.45,0.3 1.2,0.65 l 5.15,2.2 0.85,0.25 q 1.9,0.55 2.55,0.65 l 0.4,0.1 2.85,0.45 0.9,0.05 q 1.65,0.15 3.05,0.15 h 0.05 q 14.2,0 24.3,-10.05 10.05,-10.1 10.05,-24.3 0,-1.8 -0.15,-3.45 l -0.25,-1.7 v -0.1 q 1.05,-1.05 2.3,-2.55 2.1,-2.55 3.7,-5.45 4.15,-7.75 4.15,-16.4 0,-1.95 -0.2,-3.5 l -0.2,-1.7 -0.05,-0.15 -1.1,-4.85 q -0.5,-1.6 -0.85,-2.45 l -1.15,-2.55 q 1.3,-1.7 2.25,-3.6 4.2,-7.65 4.2,-16.4 0,-1.1 -0.2,-3.5 l -0.25,-1.7 v -0.1 l -1.1,-4.85 -0.85,-2.45 -0.3,-0.65 q -0.35,-0.9 -1.25,-2.7 l -0.15,-0.3 q -2.05,-3.9 -5.2,-7.2 -0.8,-0.9 -1.25,-1.3 -6.6,-6.35 -15.35,-8.6 1.85,-3.45 1.85,-7.2 0,-3.95 -1.95,-7.4 l 0.5,-1.6 q 3.45,-1.95 5.5,-5.4 2.1,-3.5 2.1,-7.65 z"
         id="path286" />
    </g>
    <g
       id="Symbol_1_0_Layer0_39_MEMBER_1_MEMBER_0_FILL">
      <path
         fill="#77a117"
         stroke="none"
         d="m 680.35,569.2 q 1.35,-0.5 2.15,-0.1 -1,-1.05 -2.6,-1.95 -3.15,-1.7 -5.9,-0.65 l 3.1,-2.3 q 3.4,-3.45 4.8,-9.15 1.4,-5.7 4.25,-7.4 1.4,-0.85 2.55,-0.6 -2.6,-1.95 -7.5,-2.1 -9.85,-0.2 -21.3,9 0.7,-0.95 1.1,-2.55 0.8,-3.15 -0.6,-6.35 -6.95,4.1 -12.7,10.7 -11.55,13.15 -5.5,25.45 4.25,8.6 18.1,7.35 l 5.95,-3.8 q 6.4,-4.8 8.9,-9.6 2.55,-4.85 5.2,-5.95 z"
         id="path289" />
    </g>
    <g
       id="Symbol_1_0_Layer0_39_MEMBER_1_MEMBER_1_FILL">
      <path
         fill="#91c41c"
         stroke="none"
         d="m 562.4,561.95 q -1.8,1.3 -2.6,2.35 l 1.15,-0.35 q 1.45,-0.25 3.1,0.25 5.15,1.55 9.7,9.85 4.55,8.3 11.25,12.3 3.29766,1.96875 5.7,2.3 -4.63477,-0.51719 -8.85,3.45 -2.1,2 -3.25,4.1 l 0.85,-0.45 q 1.15,-0.45 2.55,-0.25 4.6,0.6 10.55,7.1 5.95,6.5 18,11.35 6,2.4 10.8,3.5 8.95,-1.55 14.95,-5.15 8.5,-5.1 10.25,-13.9 4.35,-21.75 -19.05,-37.5 -7.35,-4.9 -16.55,-8.65 l -7.75,-2.75 q -0.85,5.55 1.7,10.15 1.25,2.35 2.7,3.55 -21.7,-9.7 -36.95,-5.25 -4.75,1.35 -8.25,4 z"
         id="path292" />
    </g>
    <g
       id="Symbol_1_0_Layer0_39_MEMBER_1_MEMBER_2_MEMBER_0_MEMBER_0_FILL">
      <path
         fill="#8c3fc7"
         stroke="none"
         d="m 688.25,660.8 q -5.65,-5.7 -13.65,-5.7 -8,0 -13.7,5.7 -5.7,5.7 -5.7,13.7 0,8 5.7,13.7 5.65,5.65 13.7,5.65 8,0 13.65,-5.65 5.7,-5.7 5.7,-13.7 0,-8 -5.7,-13.7 z"
         id="path295" />
    </g>
    <g
       id="flash0_ai_1_Objects__Path__1_4_0_Layer0_0_FILL">
      <path
         fill="#ffffff"
         stroke="none"
         d="M 3.8,17.1 Q 2.4,14 2.4,10.5 2.4,4.35 6.25,0 3.4,1.7 1.7,4.5 0,7.4 0,10.75 q 0,3.75 2.1,6.85 2,3.05 5.4,4.6 -2.4,-2.1 -3.7,-5.1 z"
         id="path298" />
    </g>
    <g
       id="Symbol_1_0_Layer0_39_MEMBER_1_MEMBER_2_MEMBER_0_MEMBER_2_FILL">
      <path
         fill="#662e91"
         stroke="none"
         d="m 657.9,684.3 q 2.6,4.35 6.95,6.9 4.5,2.65 9.75,2.65 8,0 13.65,-5.65 5.7,-5.7 5.7,-13.7 0,-3.9 -1.5,-7.45 -1.45,-3.45 -4.1,-6.15 2.7,4.6 2.7,9.85 0,8 -5.65,13.65 -5.7,5.7 -13.7,5.7 -4,0 -7.6,-1.55 -3.55,-1.5 -6.2,-4.25 z"
         id="path301" />
    </g>
    <g
       id="Symbol_1_0_Layer0_39_MEMBER_1_MEMBER_2_MEMBER_1_MEMBER_0_FILL">
      <path
         fill="#8c3fc7"
         stroke="none"
         d="M 663.7,638.65 Q 658.05,633 650,633 q -8,0 -13.7,5.65 -5.65,5.7 -5.65,13.7 0,8.05 5.65,13.7 5.7,5.65 13.7,5.65 8.05,0 13.7,-5.65 5.7,-5.7 5.7,-13.7 0,-8 -5.7,-13.7 z"
         id="path304" />
    </g>
    <g
       id="flash0_ai_1_Objects__Path__1_5_0_Layer0_0_FILL">
      <path
         fill="#ffffff"
         stroke="none"
         d="M 3.85,17.05 Q 2.45,13.95 2.45,10.45 2.45,4.25 6.3,0 3.45,1.7 1.75,4.5 0,7.4 0,10.75 q 0,3.7 2.1,6.85 2.05,3 5.45,4.55 -2.35,-2.05 -3.7,-5.1 z"
         id="path307" />
    </g>
    <g
       id="Symbol_1_0_Layer0_39_MEMBER_1_MEMBER_2_MEMBER_1_MEMBER_2_FILL">
      <path
         fill="#662e91"
         stroke="none"
         d="m 669.4,652.35 q 0,-3.9 -1.5,-7.45 -1.45,-3.45 -4.1,-6.15 2.7,4.6 2.7,9.85 0,8.05 -5.65,13.7 -5.65,5.65 -13.7,5.65 -4,0 -7.6,-1.55 -3.5,-1.5 -6.2,-4.2 2.55,4.35 6.9,6.9 4.5,2.6 9.75,2.6 8.05,0 13.7,-5.65 5.7,-5.7 5.7,-13.7 z"
         id="path310" />
    </g>
    <g
       id="Symbol_1_0_Layer0_39_MEMBER_1_MEMBER_2_MEMBER_2_MEMBER_0_FILL">
      <path
         fill="#8c3fc7"
         stroke="none"
         d="m 684.3,625.45 q -8,0 -13.7,5.7 -5.65,5.65 -5.65,13.7 0,8.05 5.65,13.7 5.7,5.65 13.7,5.65 8.05,0 13.7,-5.65 5.7,-5.7 5.7,-13.7 0,-8 -5.7,-13.7 -5.65,-5.7 -13.7,-5.7 z"
         id="path313" />
    </g>
    <g
       id="flash0_ai_1_Objects__Path__1_6_0_Layer0_0_FILL">
      <path
         fill="#ffffff"
         stroke="none"
         d="M 3.85,17.1 Q 2.45,14 2.45,10.45 2.45,4.35 6.3,0 3.4,1.75 1.75,4.5 0,7.4 0,10.75 q 0,3.75 2.1,6.85 2.05,3.05 5.45,4.6 -2.4,-2.1 -3.7,-5.1 z"
         id="path316" />
    </g>
    <g
       id="Symbol_1_0_Layer0_39_MEMBER_1_MEMBER_2_MEMBER_2_MEMBER_2_FILL">
      <path
         fill="#662e91"
         stroke="none"
         d="m 702.2,637.4 q -1.45,-3.45 -4.1,-6.15 2.7,4.6 2.7,9.8 0,8.05 -5.65,13.7 -5.7,5.7 -13.7,5.7 -3.95,0 -7.6,-1.55 -3.5,-1.55 -6.2,-4.25 2.55,4.35 6.9,6.9 4.5,2.65 9.75,2.65 8.05,0 13.7,-5.65 5.7,-5.7 5.7,-13.7 0,-3.9 -1.5,-7.45 z"
         id="path319" />
    </g>
    <g
       id="Symbol_1_0_Layer0_39_MEMBER_1_MEMBER_2_MEMBER_3_MEMBER_0_FILL">
      <path
         fill="#8c3fc7"
         stroke="none"
         d="m 706.55,609.65 q 0,-8 -5.65,-13.7 -5.65,-5.65 -13.7,-5.65 -8,0 -13.7,5.65 -5.65,5.7 -5.65,13.7 0,8.05 5.65,13.7 5.7,5.65 13.7,5.65 8.05,0 13.7,-5.65 5.65,-5.65 5.65,-13.7 z"
         id="path322" />
    </g>
    <g
       id="flash0_ai_1_Objects__Path__1_7_0_Layer0_0_FILL">
      <path
         fill="#ffffff"
         stroke="none"
         d="M 3.8,17.05 Q 2.4,13.95 2.4,10.45 2.4,4.35 6.25,0 3.4,1.7 1.7,4.5 0,7.4 0,10.75 q 0,3.7 2.1,6.8 2.05,3.05 5.45,4.6 -2.4,-2.05 -3.75,-5.1 z"
         id="path325" />
    </g>
    <g
       id="Symbol_1_0_Layer0_39_MEMBER_1_MEMBER_2_MEMBER_3_MEMBER_2_FILL">
      <path
         fill="#662e91"
         stroke="none"
         d="m 705.05,602.2 q -1.4,-3.5 -4.05,-6.15 2.7,4.6 2.7,9.85 0,8 -5.7,13.7 -5.65,5.65 -13.7,5.65 -4,0 -7.6,-1.55 -3.5,-1.5 -6.15,-4.25 2.55,4.35 6.9,6.9 4.5,2.65 9.75,2.65 8.05,0 13.7,-5.65 5.65,-5.65 5.65,-13.7 0,-3.9 -1.5,-7.45 z"
         id="path328" />
    </g>
    <g
       id="Symbol_1_0_Layer0_39_MEMBER_1_MEMBER_2_MEMBER_4_MEMBER_0_FILL">
      <path
         fill="#8c3fc7"
         stroke="none"
         d="m 677.35,626.25 q 0,-8 -5.7,-13.7 Q 666,606.9 658,606.9 q -8.05,0 -13.7,5.65 -5.7,5.7 -5.7,13.7 0,8 5.7,13.7 5.65,5.65 13.7,5.65 8,0 13.65,-5.65 5.7,-5.7 5.7,-13.7 z"
         id="path331" />
    </g>
    <g
       id="flash0_ai_1_Objects__Path__1_8_0_Layer0_0_FILL">
      <path
         fill="#ffffff"
         stroke="none"
         d="M 3.8,17.1 Q 2.4,14 2.4,10.5 2.4,4.35 6.25,0 3.4,1.7 1.7,4.55 0,7.45 0,10.75 q 0,3.75 2.1,6.85 2,3.05 5.4,4.6 -2.35,-2.05 -3.7,-5.1 z"
         id="path334" />
    </g>
    <g
       id="Symbol_1_0_Layer0_39_MEMBER_1_MEMBER_2_MEMBER_4_MEMBER_2_FILL">
      <path
         fill="#662e91"
         stroke="none"
         d="m 675.85,618.8 q -1.45,-3.45 -4.1,-6.15 2.7,4.6 2.7,9.85 0,8.05 -5.65,13.7 -5.65,5.65 -13.7,5.65 -4,0 -7.6,-1.55 -3.5,-1.5 -6.2,-4.25 2.6,4.35 6.95,6.9 4.5,2.65 9.75,2.65 8,0 13.65,-5.65 5.7,-5.7 5.7,-13.7 0,-3.9 -1.5,-7.45 z"
         id="path337" />
    </g>
    <g
       id="Symbol_1_0_Layer0_39_MEMBER_1_MEMBER_2_MEMBER_5_MEMBER_0_FILL">
      <path
         fill="#8c3fc7"
         stroke="none"
         d="m 642.6,631.8 q 0,-8.05 -5.65,-13.7 -5.7,-5.7 -13.7,-5.7 -8,0 -13.7,5.7 -5.7,5.7 -5.7,13.7 0,8 5.7,13.65 5.7,5.7 13.7,5.7 8,0 13.7,-5.7 5.65,-5.65 5.65,-13.65 z"
         id="path340" />
    </g>
    <g
       id="flash0_ai_1_Objects__Path__1_9_0_Layer0_0_FILL">
      <path
         fill="#ffffff"
         stroke="none"
         d="M 3.8,17.1 Q 2.4,14 2.4,10.45 2.4,4.4 6.25,0 3.4,1.7 1.7,4.5 0,7.4 0,10.75 0,14.5 2.1,17.6 4.15,20.65 7.55,22.15 5.15,20.1 3.8,17.1 Z"
         id="path343" />
    </g>
    <g
       id="Symbol_1_0_Layer0_39_MEMBER_1_MEMBER_2_MEMBER_5_MEMBER_2_FILL">
      <path
         fill="#662e91"
         stroke="none"
         d="m 641.1,624.35 q -1.45,-3.45 -4.1,-6.15 2.7,4.4 2.7,9.8 0,8.05 -5.65,13.7 -5.7,5.7 -13.7,5.7 -3.95,0 -7.6,-1.55 -3.45,-1.5 -6.2,-4.25 2.6,4.35 6.95,6.9 4.5,2.65 9.75,2.65 8,0 13.7,-5.7 5.65,-5.65 5.65,-13.65 0,-3.9 -1.5,-7.45 z"
         id="path346" />
    </g>
    <g
       id="Symbol_1_0_Layer0_39_MEMBER_1_MEMBER_2_MEMBER_6_MEMBER_0_FILL">
      <path
         fill="#8c3fc7"
         stroke="none"
         d="m 644.7,590.85 q -5.65,-5.65 -13.7,-5.65 -8.05,0 -13.7,5.65 -5.7,5.7 -5.7,13.7 0,8 5.7,13.7 5.65,5.65 13.7,5.65 8.05,0 13.7,-5.65 5.65,-5.65 5.65,-13.7 0,-8 -5.65,-13.7 z"
         id="path349" />
    </g>
    <g
       id="flash0_ai_1_Objects__Path__1_10_0_Layer0_0_FILL">
      <path
         fill="#ffffff"
         stroke="none"
         d="M 3.8,17.05 Q 2.4,13.95 2.4,10.45 2.4,4.25 6.25,0 3.4,1.7 1.7,4.5 0,7.4 0,10.75 q 0,3.75 2.1,6.85 2,3 5.4,4.55 -2.35,-2.05 -3.7,-5.1 z"
         id="path352" />
    </g>
    <g
       id="Symbol_1_0_Layer0_39_MEMBER_1_MEMBER_2_MEMBER_6_MEMBER_2_FILL">
      <path
         fill="#662e91"
         stroke="none"
         d="m 650.35,604.55 q 0,-3.9 -1.5,-7.45 -1.45,-3.45 -4.1,-6.15 2.7,4.6 2.7,9.85 0,8.05 -5.65,13.7 -5.65,5.65 -13.7,5.65 -8.05,0 -13.8,-5.75 2.6,4.35 6.95,6.9 4.5,2.6 9.75,2.6 8.05,0 13.7,-5.65 5.65,-5.65 5.65,-13.7 z"
         id="path355" />
    </g>
    <g
       id="Symbol_1_0_Layer0_39_MEMBER_1_MEMBER_2_MEMBER_7_MEMBER_0_FILL">
      <path
         fill="#8c3fc7"
         stroke="none"
         d="m 680.2,591.95 q 0,-8 -5.65,-13.7 -5.65,-5.65 -13.7,-5.65 -8,0 -13.7,5.65 -5.65,5.7 -5.65,13.7 0,8.05 5.65,13.7 5.7,5.65 13.7,5.65 8.05,0 13.7,-5.65 5.65,-5.65 5.65,-13.7 z"
         id="path358" />
    </g>
    <g
       id="flash0_ai_1_Objects__Path__1_11_0_Layer0_0_FILL">
      <path
         fill="#ffffff"
         stroke="none"
         d="M 3.85,17.1 Q 2.45,14 2.45,10.5 2.45,4.35 6.3,0 3.4,1.7 1.75,4.55 0,7.4 0,10.75 0,14.5 2.1,17.6 4.15,20.65 7.55,22.2 5.2,20.15 3.85,17.1 Z"
         id="path361" />
    </g>
    <g
       id="Symbol_1_0_Layer0_39_MEMBER_1_MEMBER_2_MEMBER_7_MEMBER_2_FILL">
      <path
         fill="#662e91"
         stroke="none"
         d="m 678.7,584.5 q -1.4,-3.5 -4.05,-6.15 2.7,4.6 2.7,9.85 0,8 -5.7,13.65 -5.65,5.7 -13.65,5.7 -4,0 -7.6,-1.55 -3.55,-1.5 -6.2,-4.25 2.55,4.35 6.9,6.9 4.5,2.65 9.75,2.65 8.05,0 13.7,-5.65 5.65,-5.65 5.65,-13.7 0,-3.9 -1.5,-7.45 z"
         id="path364" />
    </g>
    <g
       id="flash0_ai_1_Objects__Compound_Path__0_0_Layer0_0_FILL">
      <path
         fill="#ffffff"
         stroke="none"
         d="m 91.25,31.9 q -1.1,-11.05 -4.85,-16.15 -3,-4 -7.8,-5 -2.9,-0.55 -5.5,-0.55 -7.15,0 -12.65,3.85 -4.55,3.2 -6.65,7.9 -1.35,2.9 -1.1,6.15 -2.8,0.2 -5.45,1.7 -4.8,2.9 -6.1,8.3 l -0.5,2.7 -1.45,-0.05 q -5.35,0 -9.85,1.55 -2.95,1 -5.05,2.45 -2.5,1.75 -3.95,4.35 -1.45,2.6 -1.6,5.6 -0.2,3 1,5.8 1.15,2.75 3.4,4.75 l 1.45,1.2 Q 16.9,73.3 13.25,83 q -3.75,9.75 -3.1,21.7 1.45,27.3 21.75,49.65 8.5,9.35 18.7,15.75 9.7,6.1 18.5,8.05 l 2.9,0.5 h 0.15 l 3.7,0.3 0.3,-0.05 q 7.75,-0.05 16.35,-4.4 8.65,-4.4 16.65,-12.25 17,-16.65 24.25,-40.95 l 2,-7.55 0.05,-0.05 v -0.05 L 136,111.1 V 111 l 0.45,-2.35 0.05,-0.15 0.7,-4.9 v -0.1 q 2.4,-21.9 -10.1,-34.95 0.65,-0.6 1.3,-1.35 2.05,-2.5 2.75,-5.65 0.7,-3.15 -0.15,-6.25 -0.85,-3.1 -3.1,-5.45 -2.2,-2.35 -5.3,-3.4 -1.85,-0.6 -3.9,-1 0.4,-5.4 -1.75,-9.65 -1.85,-3.65 -5.4,-5.55 -3.6,-1.95 -7.6,-1.45 -6.65,0.7 -12.7,3.1 z"
         id="path367" />
    </g>
    <g
       id="Symbol_1_0_Layer0_40_MEMBER_1_FILL">
      <path
         fill="#eb004a"
         stroke="none"
         d="m 372.2,150.1 q -24.3,8.65 -22.9,35.25 1.3,25 21.6,44.85 8.05,7.9 17,12.65 8.45,4.5 14.25,4.45 11,-0.15 24.05,-12.95 14.55,-14.35 20.9,-35.45 7.65,-25.5 -1.25,-37.6 -11.05,-14.95 -49.1,-14.5 -12.4,-1 -24.55,3.3 z"
         id="path370" />
    </g>
    <g
       id="Symbol_1_0_Layer0_40_MEMBER_2_FILL">
      <path
         fill="#b00038"
         stroke="none"
         d="m 438.25,167.75 q 2.4,11.15 -2.6,29.45 -5.45,19.9 -17.75,34.2 -10.85,12.65 -21.35,15.05 3.25,0.85 5.6,0.85 11,-0.15 24.05,-12.95 14.55,-14.35 20.9,-35.45 6.2,-20.65 1.65,-32.15 -5.45,-13.95 -27.15,-18.1 13.7,5.85 16.65,19.1 z"
         id="path373" />
    </g>
    <g
       id="Symbol_1_0_Layer0_40_MEMBER_3_FILL">
      <path
         fill="#ffffff"
         stroke="none"
         d="m 368.95,174.9 q -0.15,-1.7 -0.95,-2.85 -0.85,-1.1 -1.85,-1.05 -0.95,0.1 -1.55,1.3 -0.6,1.25 -0.45,2.95 0.15,1.7 0.95,2.8 0.85,1.15 1.85,1.1 1,-0.05 1.6,-1.3 0.6,-1.25 0.4,-2.95 z"
         id="path376" />
    </g>
    <g
       id="Symbol_1_0_Layer0_40_MEMBER_4_FILL">
      <path
         fill="#ffffff"
         stroke="none"
         d="m 384.65,179.85 q -0.15,-1.65 -1,-2.85 -0.8,-1.1 -1.8,-1.05 -1,0.1 -1.6,1.3 -0.6,1.25 -0.4,2.95 0.15,1.65 0.95,2.8 0.85,1.15 1.85,1.05 1,-0.05 1.55,-1.3 0.6,-1.2 0.45,-2.9 z"
         id="path379" />
    </g>
    <g
       id="Symbol_1_0_Layer0_40_MEMBER_5_FILL">
      <path
         fill="#ffffff"
         stroke="none"
         d="m 362.9,193.4 q -0.6,1.2 -0.45,2.9 0.2,1.7 1,2.85 0.85,1.15 1.8,1.05 1,-0.05 1.6,-1.3 0.6,-1.25 0.45,-2.95 -0.2,-1.7 -1,-2.8 -0.8,-1.1 -1.8,-1.05 -1,0.1 -1.6,1.3 z"
         id="path382" />
    </g>
    <g
       id="Symbol_1_0_Layer0_40_MEMBER_6_FILL">
      <path
         fill="#ffffff"
         stroke="none"
         d="m 387.7,195.3 q -0.85,-1.15 -1.85,-1.1 -0.95,0.1 -1.55,1.3 -0.6,1.25 -0.45,2.95 0.15,1.7 0.95,2.85 0.85,1.15 1.85,1.05 1,-0.05 1.6,-1.3 0.6,-1.25 0.4,-2.95 -0.15,-1.7 -0.95,-2.8 z"
         id="path385" />
    </g>
    <g
       id="Symbol_1_0_Layer0_40_MEMBER_7_FILL">
      <path
         fill="#ffffff"
         stroke="none"
         d="m 377.25,210.15 q -0.15,-1.7 -0.95,-2.8 -0.85,-1.1 -1.85,-1.05 -1,0.05 -1.6,1.3 -0.6,1.2 -0.4,2.9 0.15,1.7 0.95,2.85 0.85,1.15 1.85,1.05 1,-0.05 1.55,-1.3 0.6,-1.25 0.45,-2.95 z"
         id="path388" />
    </g>
    <g
       id="Symbol_1_0_Layer0_40_MEMBER_8_FILL">
      <path
         fill="#ffffff"
         stroke="none"
         d="m 404.35,231.75 q -0.15,-1.7 -0.95,-2.85 -0.85,-1.1 -1.85,-1.05 -1,0.1 -1.6,1.3 -0.6,1.25 -0.4,2.95 0.15,1.65 0.95,2.8 0.85,1.15 1.85,1.05 1,-0.05 1.55,-1.3 0.6,-1.25 0.45,-2.9 z"
         id="path391" />
    </g>
    <g
       id="Symbol_1_0_Layer0_40_MEMBER_9_FILL">
      <path
         fill="#ffffff"
         stroke="none"
         d="m 400.65,207.45 q -0.15,-1.65 -1,-2.8 -0.8,-1.1 -1.8,-1.05 -1,0.1 -1.6,1.3 -0.6,1.2 -0.45,2.9 0.2,1.7 1,2.85 0.85,1.15 1.85,1.05 1,-0.05 1.55,-1.3 0.6,-1.25 0.45,-2.95 z"
         id="path394" />
    </g>
    <g
       id="Symbol_1_0_Layer0_40_MEMBER_10_FILL">
      <path
         fill="#ffffff"
         stroke="none"
         d="m 413.85,217.15 q -0.2,-1.7 -1,-2.85 -0.8,-1.1 -1.8,-1.05 -1,0.1 -1.6,1.3 -0.6,1.25 -0.45,2.9 0.2,1.7 1,2.85 0.85,1.15 1.8,1.05 1,-0.05 1.6,-1.3 0.6,-1.25 0.45,-2.9 z"
         id="path397" />
    </g>
    <g
       id="Symbol_1_0_Layer0_40_MEMBER_11_FILL">
      <path
         fill="#ffffff"
         stroke="none"
         d="m 401.85,180.8 q -0.2,-1.7 -1,-2.85 -0.85,-1.1 -1.85,-1.05 -0.95,0.1 -1.55,1.3 -0.6,1.25 -0.45,2.95 0.2,1.7 1,2.8 0.8,1.15 1.8,1.05 1,-0.05 1.6,-1.25 0.6,-1.25 0.45,-2.95 z"
         id="path400" />
    </g>
    <g
       id="Symbol_1_0_Layer0_40_MEMBER_12_FILL">
      <path
         fill="#ffffff"
         stroke="none"
         d="m 419.15,178.6 q -0.2,-1.7 -1,-2.85 -0.8,-1.1 -1.8,-1.05 -1,0.1 -1.6,1.3 -0.6,1.25 -0.45,2.95 0.2,1.7 1,2.8 0.85,1.15 1.85,1.05 1,-0.05 1.55,-1.25 0.6,-1.25 0.45,-2.95 z"
         id="path403" />
    </g>
    <g
       id="Symbol_1_0_Layer0_40_MEMBER_13_FILL">
      <path
         fill="#ffffff"
         stroke="none"
         d="m 415.1,197.05 q -0.2,-1.7 -1,-2.8 -0.8,-1.1 -1.8,-1.05 -1,0.1 -1.6,1.3 -0.6,1.2 -0.45,2.9 0.2,1.7 1,2.85 0.85,1.15 1.85,1.05 1,-0.05 1.55,-1.3 0.6,-1.25 0.45,-2.95 z"
         id="path406" />
    </g>
    <g
       id="Symbol_1_0_Layer0_40_MEMBER_14_FILL">
      <path
         fill="#ffffff"
         stroke="none"
         d="m 389.55,224.3 q -0.15,-1.65 -1,-2.85 -0.8,-1.1 -1.8,-1.05 -1,0.1 -1.6,1.3 -0.6,1.25 -0.45,2.9 0.2,1.7 1,2.85 0.85,1.15 1.85,1.05 1,-0.05 1.55,-1.3 0.6,-1.25 0.45,-2.9 z"
         id="path409" />
    </g>
    <g
       id="Symbol_1_0_Layer0_40_MEMBER_15_FILL">
      <path
         fill="#74b84b"
         stroke="none"
         d="m 404.1,111.6 q -0.55,-3.25 -1.3,-5.35 l -0.7,-1.4 q -4.95,-1.05 -8.1,1.25 l -2.2,2.5 q 7.05,11.8 9,22.95 1,5.6 0.55,8.8 -5.05,-8.85 -13.7,-14.3 -2.7,-1.7 -5.45,-2.85 l -2.2,-0.8 q -1.8,7.7 1.05,13.9 1.45,3.15 3.2,4.7 -11.2,-6.3 -19.9,-5.85 -2.75,0.1 -4.9,0.9 l -1.6,0.75 3.6,2.85 q 4.65,3.4 9.7,6.3 16.2,9.1 30.6,9.1 18.9,0 32.75,-7.45 6.95,-3.7 10.1,-7.45 -5.65,-1.9 -14.55,-0.05 l -7.8,2.25 q 7.85,-8.05 9.35,-14.5 0.5,-2 0.25,-3.6 l -0.3,-1.2 q -12.1,1.4 -20.95,9.4 -2.8,2.5 -4.9,5.35 l -1.55,2.35 q 1.6,-18.2 -0.05,-28.55 z"
         id="path412" />
    </g>
    <g
       id="flash0_ai_1_Objects__Compound_Path__1_0_Layer0_0_FILL">
      <path
         fill="#ffffff"
         stroke="none"
         d="m 135.75,31.75 q -4.4,-1.7 -8.6,-5.1 -3.95,-3.25 -8.85,-5 -4.9,-1.75 -10.1,-1.75 -5.85,0 -11.3,2.15 -6.4,-5.8 -14.15,-8.9 -7.8,-3.1 -16.1,-3.1 -7.15,0 -14,2.45 -6.8,2.4 -12.35,6.95 -6.1,4.95 -12.7,8.3 -3.65,1.85 -6.1,2.6 -3.6,0.95 -6.25,3.55 -2.6,2.6 -3.75,6.2 -1.1,3.55 -0.25,7.3 0.85,3.65 3.35,6.5 3.75,4.25 9.1,8.35 9.8,7.6 19.95,10.25 -1.85,4 -3.7,9.05 -11.5,1.15 -19.9,9 -5.75,5.35 -8.3,14.5 -2.55,9.1 -1.15,19.4 1.55,11.4 7.35,20.25 5.8,8.9 14.8,13.65 l 0.2,0.1 q 1.8,0.9 3.05,1.4 l 3.45,1.3 0.8,0.2 q 1.35,0.4 2.75,0.7 l 1.25,0.25 h 0.1 l 6.3,0.75 h 4 q 12.15,-0.45 21.45,-4.8 1.8,-0.8 4.1,-2.1 3.85,-2.3 7.2,-5.6 l 5.75,2.55 q 1.8,0.65 2.75,0.9 l 1.2,0.3 h 0.05 l 6.25,1.1 q 1.25,0.15 3.95,0.25 h 0.1 q 3.9,0.1 7.05,-0.2 2.3,-0.2 3.4,-0.4 3.15,-0.4 6.5,-1.3 4.95,-1.4 8.9,-3.5 7.25,-3.8 12.2,-9.95 4.95,-6.2 7.25,-14.25 l 0.6,-2.6 q 0.5,-2.05 0.85,-5.15 l 0.2,-2.6 q 0.15,-2.2 0.05,-5.1 l -0.05,-0.15 q -0.05,-2.2 -0.4,-4.85 -0.75,-6.05 -2.8,-12.05 l -2.65,-6.15 -2.55,-4 -2.45,-3 -2,-1.9 -2.15,-1.65 q -7,-4.95 -16,-4.95 -2.8,0 -5.35,0.45 -1,-2.05 -1.6,-3.6 8.95,-0.3 17.6,-6.05 5.05,-3.4 8.55,-7.45 2.5,-2.9 3.4,-6.55 0.85,-3.7 -0.25,-7.3 -1.15,-3.6 -3.75,-6.15 -2.65,-2.55 -6.25,-3.5 z"
         id="path415" />
    </g>
    <g
       id="Symbol_1_0_Layer0_41_MEMBER_1_MEMBER_0_FILL">
      <path
         fill="#59bf1d"
         stroke="none"
         d="m 155.8,338.5 q -12.7,-2.4 -22.55,5.6 -8.05,6.55 -16.8,10.7 l -7.15,2.9 4,3.9 q 5,4.45 10.3,7.25 16.8,8.85 29.4,-2.45 11.6,-10.35 18.95,-12.7 3.7,-1.15 5.05,-0.25 -8.1,-12.4 -21.2,-14.95 z"
         id="path418" />
    </g>
    <g
       id="Symbol_1_0_Layer0_41_MEMBER_2_MEMBER_0_FILL">
      <path
         fill="#8cd42f"
         stroke="none"
         d="m 188.85,348.15 q -7.45,1.4 -12.05,8.5 l 0.65,-0.15 q 0.9,-0.1 2.2,0.3 4.2,1.35 10.8,7.25 7.2,6.45 16.8,1.4 4.8,-2.5 8.15,-6.35 -1.55,-0.45 -4.05,-1.65 -5,-2.4 -9.6,-6.1 -5.65,-4.6 -12.9,-3.2 z"
         id="path421" />
    </g>
    <g
       id="Symbol_1_0_Layer0_41_MEMBER_3_MEMBER_0_FILL">
      <path
         fill="#734512"
         stroke="none"
         d="m 174.25,358.25 q 1.45,13.15 5.1,24.5 5.65,17.65 15.5,26.7 0.8,0.75 1.85,0.7 1.1,-0.05 1.85,-0.85 0.75,-0.8 0.7,-1.85 -0.05,-1.1 -0.85,-1.85 -10.8,-9.95 -16.1,-32 -1.7,-6.95 -2.6,-14.25 -0.6,-6 -0.6,-6.1 -0.1,-1.5 -1.45,-2.25 -1.4,-0.65 -2.65,0.25 -23.8,16.8 -35.05,42.25 -5.65,12.85 -6.7,23.3 -0.05,1.1 0.6,1.95 0.7,0.85 1.8,0.9 l 0.2,0.05 q 1,0 1.8,-0.7 0.75,-0.7 0.85,-1.7 0.85,-8.65 5.75,-20.2 9.7,-23.1 30,-38.85 z"
         id="path424" />
    </g>
    <g
       id="Symbol_1_0_Layer0_41_MEMBER_4_MEMBER_0_MEMBER_0_MEMBER_0_FILL">
      <path
         fill="#ff004c"
         stroke="none"
         d="m 221.2,411.65 q -4.15,-12.2 -14.65,-11.8 -6.7,0.25 -12.55,4.4 -3.2,-1.85 -7.8,-2.6 -9.2,-1.45 -16,4.15 -4.15,3.45 -5.65,11.35 -1.6,8 0.45,16.15 2.3,9.05 8.4,14.55 7.1,6.4 18.05,6.65 21.7,0.5 29.1,-14 6.25,-12.3 0.65,-28.85 z"
         id="path427" />
    </g>
    <g
       id="Symbol_1_0_Layer0_41_MEMBER_4_MEMBER_0_MEMBER_1_MEMBER_0_FILL">
      <path
         fill="#cf003e"
         stroke="none"
         d="m 220.55,440.5 q 6.25,-12.3 0.65,-28.85 -2.5,-7.35 -7.45,-10.2 0.6,1.5 0.85,2.35 5.85,17.75 -0.7,30.9 -7.75,15.6 -30.4,15.1 -5.3,-0.15 -9.9,-1.8 7.05,6.3 17.85,6.5 21.7,0.5 29.1,-14 z"
         id="path430" />
    </g>
    <g
       id="flash0_ai_1_Objects__Group__0_Layer0_0_MEMBER_0_FILL">
      <path
         fill="#ffffff"
         stroke="none"
         d="M 2.75,13.9 Q 5.6,3.9 13.4,0 8.75,-0.3 4.95,2.45 -2.7,7.95 1.4,23.1 1.3,18.9 2.75,13.9 Z"
         id="path433" />
    </g>
    <g
       id="Symbol_1_0_Layer0_41_MEMBER_5_MEMBER_0_MEMBER_0_MEMBER_0_FILL">
      <path
         fill="#ff004c"
         stroke="none"
         d="m 166.05,446.15 q 5.5,-12.6 -1.1,-28.8 -4.85,-11.95 -15.3,-10.9 -6.7,0.65 -12.25,5.15 -3.35,-1.65 -7.95,-2.15 -9.3,-0.95 -15.75,5.1 -3.95,3.7 -5,11.65 -1.05,8.1 1.5,16.1 2.8,8.9 9.25,14.05 7.45,5.95 18.4,5.55 21.65,-0.8 28.2,-15.75 z"
         id="path436" />
    </g>
    <g
       id="Symbol_1_0_Layer0_41_MEMBER_5_MEMBER_0_MEMBER_1_MEMBER_0_FILL">
      <path
         fill="#cf003e"
         stroke="none"
         d="m 166.05,446.15 q 5.5,-12.6 -1.1,-28.8 -2.9,-7.3 -8.05,-9.7 l 1.05,2.25 q 6.9,17.4 1.15,30.9 -6.85,16.05 -29.45,16.85 -5.25,0.2 -10.05,-1.15 7.45,5.8 18.25,5.4 21.65,-0.8 28.2,-15.75 z"
         id="path439" />
    </g>
    <g
       id="flash0_ai_1_Objects__Group__0_0_Layer0_0_MEMBER_0_FILL">
      <path
         fill="#ffffff"
         stroke="none"
         d="M 2.8,14.5 Q 5.05,4.35 12.6,0 7.95,0 4.3,3 -3.05,8.95 2,23.8 1.65,19.6 2.8,14.5 Z"
         id="path442" />
    </g>
    <g
       id="flash0_ai_1_Objects__Path__7_1_0_Layer0_0_FILL">
      <path
         fill="#ffffff"
         stroke="none"
         d="m 137.2,32.45 q -5.6,-1.6 -11.85,-6.25 -6.05,-4.45 -13.4,-5.75 -1.55,-3.5 -4.7,-5.6 -3.55,-2.4 -6.35,-3.65 -3.75,-1.6 -7.75,-0.8 -4,0.75 -6.9,3.65 -1,1 -2.8,3.3 -9.85,-6.65 -22.4,-6.65 -5.9,0 -12,1.7 -11.4,3.15 -21.25,3.15 L 26.05,15.5 q -3.25,-0.3 -6.25,0.9 -2.95,1.2 -5.1,3.7 -2.1,2.5 -2.8,5.7 -0.65,3.2 0.2,6.35 0.55,2.1 1.85,5.3 2.25,5.6 5.5,10.3 6.9,10.05 16.85,14.35 -8,6.95 -14.6,16.1 -9.4,13.15 -11.15,34.25 -1.95,22.9 6.95,41 7.15,14.65 20.15,23.7 Q 54.8,189 80.6,190 l 4.2,0.05 q 19.55,0 35.6,-7.15 16.05,-7.2 26.55,-20.7 10.1,-12.9 13.55,-29.05 3.5,-16.2 -0.45,-31.95 -6.5,-26.05 -22.95,-40.4 3.7,-2.95 7.35,-7.2 2.15,-2.75 2.8,-6.1 0.6,-3.4 -0.55,-6.65 -1.15,-3.25 -3.65,-5.45 -2.55,-2.25 -5.85,-2.95 z"
         id="path445" />
    </g>
    <g
       id="Symbol_1_0_Layer0_42_MEMBER_1_FILL">
      <path
         fill="#74b84b"
         stroke="none"
         d="m 162.2,121.6 q 3.8,0.2 4.55,1.4 -1.2,-13 -11.6,-19.35 -10.1,-6.2 -22.65,-2.7 -10.25,2.85 -20,3.5 l -7.7,0.1 1.65,4.55 q 2.35,5.35 5.65,9.4 10.65,12.85 27.25,7.5 15.2,-4.85 22.85,-4.4 z"
         id="path448" />
    </g>
    <g
       id="Symbol_1_0_Layer0_42_MEMBER_2_FILL">
      <path
         fill="#74b84b"
         stroke="none"
         d="m 213.95,121.15 q -1.9,-0.45 -4.9,-1.75 -6.05,-2.55 -11.7,-6.7 -6.9,-5.15 -15.4,-3.1 -8.8,2.1 -13.85,10.75 l 0.75,-0.25 q 1.1,-0.15 2.65,0.3 5.05,1.35 13.2,8 8.9,7.2 19.95,0.7 5.55,-3.25 9.3,-7.95 z"
         id="path451" />
    </g>
    <g
       id="Symbol_1_0_Layer0_42_MEMBER_3_FILL">
      <path
         fill="#764c24"
         stroke="none"
         d="m 179.75,101.65 q -2.7,-1.8 -4.2,-2.45 -1,1 -2.35,2.9 -2.7,3.8 -4.6,8.4 -5.95,14.65 -1,31.45 -1.05,-6.2 -0.05,-14.35 2,-16.3 12.2,-25.95 z"
         id="path454" />
    </g>
    <g
       id="Symbol_1_0_Layer0_42_MEMBER_4_FILL">
      <path
         fill="#ff6600"
         stroke="none"
         d="m 173.15,131 q -5.3,1.15 -7.15,1.25 -2.7,0.15 -6.4,-0.85 -2.6,-0.7 -6.05,0.85 -4.45,2.3 -7.75,3.5 -19.85,7.05 -33.4,26 -6,8.4 -8.2,22.6 -2.45,15.55 1.5,29.6 4.6,16.45 17.05,26.25 14.5,11.45 38.25,12.35 19.2,0.75 34.1,-6 13.4,-6.1 22,-17.65 7.9,-10.55 10.5,-23.85 2.45,-12.8 -0.55,-24.85 -3.65,-14.65 -10.85,-24.75 -10.2,-14.4 -27.05,-19.05 -6.4,-1.75 -11.3,-4.3 -2.85,-1.5 -4.7,-1.1 z"
         id="path457" />
    </g>
    <g
       id="Symbol_1_0_Layer0_42_MEMBER_5_FILL">
      <path
         fill="#db5800"
         stroke="none"
         d="m 189.15,136.4 -2.4,-0.7 q 16.3,13 22.7,39.4 2.7,11.05 1.3,22.85 -1.4,12.15 -6.85,22.8 -12.45,24.35 -39.55,31.85 35.7,0.15 53.45,-24.6 7.5,-10.5 9.9,-23.5 Q 230,192 227.05,180.2 223.4,165.55 216.2,155.45 206,141.05 189.15,136.4 Z"
         id="path460" />
    </g>
    <g
       id="flash0_ai_1_Objects__Path__1_12_0_Layer0_0_FILL">
      <path
         fill="#ffffff"
         stroke="none"
         d="M 5.2,40.85 Q 8.05,12.4 26.25,0 23.65,0.8 20.15,2.8 13.05,6.85 8.25,13.1 -7.15,32.95 5.95,66.8 3.75,55.05 5.2,40.85 Z"
         id="path463" />
    </g>
    <g
       id="flash0_ai_1_Objects__Path__1_13_0_Layer0_0_FILL">
      <path
         fill="#ffffff"
         stroke="none"
         d="m 163.7,68.75 -0.05,-0.1 -2.75,-4.25 -0.05,-0.1 -3.35,-4.3 -2.55,-2.65 -0.25,-0.2 -1.3,-1.25 q -5.3,-4.8 -11.6,-7.7 l -0.05,-0.05 -0.15,-0.05 -1.5,-0.65 -0.15,-0.1 -3.3,-1.2 -0.1,-0.05 -1.6,-0.5 h -0.1 l -2.2,-0.55 q 1.05,-2.9 0.7,-6.05 -0.4,-3.65 -2.6,-6.6 -2.15,-2.9 -5.5,-4.4 1.15,-3.65 0.25,-7.45 -1,-3.85 -3.85,-6.6 -3.7,-3.5 -8.75,-3.7 Q 107.8,10 103.8,13.1 93.1,21.7 86.05,30.15 80.25,26.2 72.8,22.3 q -4.6,-2.35 -9.6,-1.05 -5,1.25 -7.95,5.55 -3.35,4.85 -2.05,10.6 -4.05,3.1 -5.1,7.95 -13.85,3.35 -23.4,14.9 -9.65,11.7 -13.05,29.4 -4.9,25.4 4.15,49.2 9.75,25.85 31.05,34.35 7.55,3 18.7,5.2 12.15,2.4 21.9,2.4 27.75,0 48.5,-12.05 20.1,-11.65 29.4,-32.15 l 3.3,-8.85 q 0.65,-2.3 0.85,-3.2 l 0.05,-0.1 1.35,-6.65 1.3,-14.05 -0.4,-8.9 -0.05,-0.1 -0.5,-4.15 -0.05,-0.15 -0.15,-1.05 -2.1,-8.65 -0.9,-2.55 v -0.1 l -0.65,-1.7 -0.05,-0.05 -1.2,-2.9 -0.2,-0.3 q -1,-2.2 -2.25,-4.4 z"
         id="path466" />
    </g>
    <g
       id="Symbol_1_0_Layer0_43_MEMBER_0_MEMBER_1_MEMBER_0_FILL">
      <path
         fill="#68a545"
         stroke="none"
         d="m 375.4,558.35 5.75,5.25 q 6.4,6 9.65,9.7 -2.8,-0.5 -6.8,-0.9 -7.9,-0.75 -13.7,-0.2 l 9.05,2.3 q 10,3.15 14.45,7.65 l 5.05,5 6.35,-3.25 q 2.95,-3.8 7.35,-8.1 8.75,-8.65 16.05,-11.35 -3.05,-0.4 -7.45,0.75 -8.75,2.3 -15.4,10.1 0.05,-1.45 1.95,-5.65 3.85,-8.35 13.4,-21.9 l -9.95,8.85 q -10.5,10.4 -13.15,17.85 -1.5,-1.9 -5.1,-4.85 -7.2,-5.95 -17.5,-11.25 z"
         id="path469" />
    </g>
    <g
       id="Symbol_1_0_Layer0_43_MEMBER_0_MEMBER_1_MEMBER_1_FILL">
      <path
         fill="#ff2200"
         stroke="none"
         d="m 404.1,579 q -10.85,-4.05 -20.35,6.05 -21.1,-8.2 -35.1,3.25 -12.25,10 -15.3,31.15 -2.9,20.35 4.15,38.8 7.65,19.9 23.25,26.15 13.5,5.4 29.9,5.95 16.65,0.6 31.75,-4 16.2,-4.9 27,-14.75 12,-10.9 15.7,-26.4 3.8,-15.8 1.3,-29.75 -2.4,-13.25 -10,-22.15 -7.6,-8.9 -18.65,-11.2 -11.65,-2.5 -24.7,2.95 -3.5,-4.05 -8.95,-6.05 z"
         id="path472" />
    </g>
    <g
       id="Symbol_1_0_Layer0_43_MEMBER_0_MEMBER_1_MEMBER_2_MEMBER_0_FILL">
      <path
         fill="#d90000"
         stroke="none"
         d="m 442.4,583.45 q -10.05,-3.7 -21.7,-0.9 16.9,2.8 23.05,21.15 6,17.7 -0.15,43 -4.75,19.7 -18.6,31 -13.4,10.85 -33.75,12.7 25.55,1.45 45.95,-9.85 22.4,-12.45 27.9,-35.35 3.55,-14.65 1.6,-27.8 -1.85,-12.5 -8.25,-21.45 -6.4,-8.9 -16.05,-12.5 z"
         id="path475" />
    </g>
    <g
       id="flash0_ai_1_Objects__Path__17_0_Layer0_0_FILL">
      <path
         fill="#ffffff"
         stroke="none"
         d="M 4.6,45.15 Q 6.25,13.35 26.05,0 23.4,0.45 19.8,2.2 12.65,5.7 7.85,12.1 -7.5,32.55 6.9,74.3 3.8,61.05 4.6,45.15 Z"
         id="path478" />
    </g>
    <g
       id="Symbol_1_0_Layer0_43_MEMBER_1_FILL">
      <path
         fill="#d90000"
         stroke="none"
         d="m 413.3,586.35 1.2,2.6 q 1.4,3.35 2.35,7.05 2.9,11.9 -0.25,23.1 3.15,-5.05 4.3,-11.65 2.3,-13.2 -7.6,-21.1 z"
         id="path481" />
    </g>
    <g
       id="Symbol_1_0_Layer0_43_MEMBER_2_FILL">
      <path
         fill="#d90000"
         stroke="none"
         d="m 377.65,593.2 q 1.45,-2.8 3.45,-5 l 1.7,-1.6 q -11.6,5.5 -10.6,16.8 0.5,5.6 3.3,10.15 -2.5,-11.5 2.15,-20.35 z"
         id="path484" />
    </g>
  </defs>
  <g
     id="g493"
     transform="matrix(0.80828857,0,0,0.80828857,0.40414428,61.389517)">
    <g
       id="g491">
      <use
         height="100%"
         width="100%"
         y="0"
         x="0"
         id="use489"
         xlink:href="#Duplicate_Items_Folder_Symbol_4_copy_12_0_Layer0_0_FILL" />
    </g>
  </g>
  <g
     id="g499"
     transform="matrix(0.80828857,0,0,0.80828857,122.85414,61.389517)">
    <g
       id="g497">
      <use
         height="100%"
         width="100%"
         y="0"
         x="0"
         id="use495"
         xlink:href="#Duplicate_Items_Folder_Symbol_4_copy_12_0_Layer0_0_FILL" />
    </g>
  </g>
  <g
     id="g505"
     transform="matrix(0.80828857,0,0,0.80828857,245.30414,61.389517)">
    <g
       id="g503">
      <use
         height="100%"
         width="100%"
         y="0"
         x="0"
         id="use501"
         xlink:href="#Duplicate_Items_Folder_Symbol_4_copy_12_0_Layer0_0_FILL" />
    </g>
  </g>
  <g
     id="g511"
     transform="matrix(0.80828857,0,0,0.80828857,367.75414,61.389517)">
    <g
       id="g509">
      <use
         height="100%"
         width="100%"
         y="0"
         x="0"
         id="use507"
         xlink:href="#Duplicate_Items_Folder_Symbol_4_copy_12_0_Layer0_0_FILL" />
    </g>
  </g>
  <g
     id="g517"
     transform="matrix(0.80828857,0,0,0.80828857,490.20414,61.389517)">
    <g
       id="g515">
      <use
         height="100%"
         width="100%"
         y="0"
         x="0"
         id="use513"
         xlink:href="#Duplicate_Items_Folder_Symbol_4_copy_12_0_Layer0_0_FILL" />
    </g>
  </g>
  <g
     id="g523"
     transform="matrix(0.80828857,0,0,0.80828857,612.65414,61.389517)">
    <g
       id="g521">
      <use
         height="100%"
         width="100%"
         y="0"
         x="0"
         id="use519"
         xlink:href="#Duplicate_Items_Folder_Symbol_4_copy_12_0_Layer0_0_FILL" />
    </g>
  </g>
  <g
     id="g529"
     transform="matrix(0.80828857,0,0,0.80828857,735.20414,61.389517)">
    <g
       id="g527">
      <use
         height="100%"
         width="100%"
         y="0"
         x="0"
         id="use525"
         xlink:href="#Duplicate_Items_Folder_Symbol_4_copy_12_0_Layer0_0_FILL" />
    </g>
  </g>
  <g
     id="g535"
     transform="matrix(0.80828857,0,0,0.80828857,0.40414428,181.03952)">
    <g
       id="g533">
      <use
         height="100%"
         width="100%"
         y="0"
         x="0"
         id="use531"
         xlink:href="#Duplicate_Items_Folder_Symbol_4_copy_12_0_Layer0_0_FILL" />
    </g>
  </g>
  <g
     id="g541"
     transform="matrix(0.80828857,0,0,0.80828857,122.85414,181.03952)">
    <g
       id="g539">
      <use
         height="100%"
         width="100%"
         y="0"
         x="0"
         id="use537"
         xlink:href="#Duplicate_Items_Folder_Symbol_4_copy_12_0_Layer0_0_FILL" />
    </g>
  </g>
  <g
     id="g547"
     transform="matrix(0.80828857,0,0,0.80828857,245.30414,181.03952)">
    <g
       id="g545">
      <use
         height="100%"
         width="100%"
         y="0"
         x="0"
         id="use543"
         xlink:href="#Duplicate_Items_Folder_Symbol_4_copy_12_0_Layer0_0_FILL" />
    </g>
  </g>
  <g
     id="g553"
     transform="matrix(0.80828857,0,0,0.80828857,367.75414,181.03952)">
    <g
       id="g551">
      <use
         height="100%"
         width="100%"
         y="0"
         x="0"
         id="use549"
         xlink:href="#Duplicate_Items_Folder_Symbol_4_copy_12_0_Layer0_0_FILL" />
    </g>
  </g>
  <g
     id="g559"
     transform="matrix(0.80828857,0,0,0.80828857,490.20414,181.03952)">
    <g
       id="g557">
      <use
         height="100%"
         width="100%"
         y="0"
         x="0"
         id="use555"
         xlink:href="#Duplicate_Items_Folder_Symbol_4_copy_12_0_Layer0_0_FILL" />
    </g>
  </g>
  <g
     id="g565"
     transform="matrix(0.80828857,0,0,0.80828857,612.65414,181.03952)">
    <g
       id="g563">
      <use
         height="100%"
         width="100%"
         y="0"
         x="0"
         id="use561"
         xlink:href="#Duplicate_Items_Folder_Symbol_4_copy_12_0_Layer0_0_FILL" />
    </g>
  </g>
  <g
     id="g571"
     transform="matrix(0.80828857,0,0,0.80828857,735.20414,181.03952)">
    <g
       id="g569">
      <use
         height="100%"
         width="100%"
         y="0"
         x="0"
         id="use567"
         xlink:href="#Duplicate_Items_Folder_Symbol_4_copy_12_0_Layer0_0_FILL" />
    </g>
  </g>
  <g
     id="g577"
     transform="matrix(0.80828857,0,0,0.80828857,0.40414428,300.63952)">
    <g
       id="g575">
      <use
         height="100%"
         width="100%"
         y="0"
         x="0"
         id="use573"
         xlink:href="#Duplicate_Items_Folder_Symbol_4_copy_12_0_Layer0_0_FILL" />
    </g>
  </g>
  <g
     id="g583"
     transform="matrix(0.80828857,0,0,0.80828857,122.85414,300.63952)">
    <g
       id="g581">
      <use
         height="100%"
         width="100%"
         y="0"
         x="0"
         id="use579"
         xlink:href="#Duplicate_Items_Folder_Symbol_4_copy_12_0_Layer0_0_FILL" />
    </g>
  </g>
  <g
     id="g589"
     transform="matrix(0.80828857,0,0,0.80828857,245.30414,300.63952)">
    <g
       id="g587">
      <use
         height="100%"
         width="100%"
         y="0"
         x="0"
         id="use585"
         xlink:href="#Duplicate_Items_Folder_Symbol_4_copy_12_0_Layer0_0_FILL" />
    </g>
  </g>
  <g
     id="g595"
     transform="matrix(0.80828857,0,0,0.80828857,367.75414,300.63952)">
    <g
       id="g593">
      <use
         height="100%"
         width="100%"
         y="0"
         x="0"
         id="use591"
         xlink:href="#Duplicate_Items_Folder_Symbol_4_copy_12_0_Layer0_0_FILL" />
    </g>
  </g>
  <g
     id="g601"
     transform="matrix(0.80828857,0,0,0.80828857,490.20414,300.63952)">
    <g
       id="g599">
      <use
         height="100%"
         width="100%"
         y="0"
         x="0"
         id="use597"
         xlink:href="#Duplicate_Items_Folder_Symbol_4_copy_12_0_Layer0_0_FILL" />
    </g>
  </g>
  <g
     id="g607"
     transform="matrix(0.80828857,0,0,0.80828857,612.65414,300.63952)">
    <g
       id="g605">
      <use
         height="100%"
         width="100%"
         y="0"
         x="0"
         id="use603"
         xlink:href="#Duplicate_Items_Folder_Symbol_4_copy_12_0_Layer0_0_FILL" />
    </g>
  </g>
  <g
     id="g613"
     transform="matrix(0.80828857,0,0,0.80828857,735.20414,300.63952)">
    <g
       id="g611">
      <use
         height="100%"
         width="100%"
         y="0"
         x="0"
         id="use609"
         xlink:href="#Duplicate_Items_Folder_Symbol_4_copy_12_0_Layer0_0_FILL" />
    </g>
  </g>
  <g
     id="g619"
     transform="matrix(0.80828857,0,0,0.80828857,0.40414428,420.28952)">
    <g
       id="g617">
      <use
         height="100%"
         width="100%"
         y="0"
         x="0"
         id="use615"
         xlink:href="#Duplicate_Items_Folder_Symbol_4_copy_12_0_Layer0_0_FILL" />
    </g>
  </g>
  <g
     id="g625"
     transform="matrix(0.80828857,0,0,0.80828857,122.85414,420.28952)">
    <g
       id="g623">
      <use
         height="100%"
         width="100%"
         y="0"
         x="0"
         id="use621"
         xlink:href="#Duplicate_Items_Folder_Symbol_4_copy_12_0_Layer0_0_FILL" />
    </g>
  </g>
  <g
     id="g631"
     transform="matrix(0.80828857,0,0,0.80828857,245.30414,420.28952)">
    <g
       id="g629">
      <use
         height="100%"
         width="100%"
         y="0"
         x="0"
         id="use627"
         xlink:href="#Duplicate_Items_Folder_Symbol_4_copy_12_0_Layer0_0_FILL" />
    </g>
  </g>
  <g
     id="g637"
     transform="matrix(0.80828857,0,0,0.80828857,367.75414,420.28952)">
    <g
       id="g635">
      <use
         height="100%"
         width="100%"
         y="0"
         x="0"
         id="use633"
         xlink:href="#Duplicate_Items_Folder_Symbol_4_copy_12_0_Layer0_0_FILL" />
    </g>
  </g>
  <g
     id="g643"
     transform="matrix(0.80828857,0,0,0.80828857,490.20414,420.28952)">
    <g
       id="g641">
      <use
         height="100%"
         width="100%"
         y="0"
         x="0"
         id="use639"
         xlink:href="#Duplicate_Items_Folder_Symbol_4_copy_12_0_Layer0_0_FILL" />
    </g>
  </g>
  <g
     id="g649"
     transform="matrix(0.80828857,0,0,0.80828857,612.65414,420.28952)">
    <g
       id="g647">
      <use
         height="100%"
         width="100%"
         y="0"
         x="0"
         id="use645"
         xlink:href="#Duplicate_Items_Folder_Symbol_4_copy_12_0_Layer0_0_FILL" />
    </g>
  </g>
  <g
     id="g655"
     transform="matrix(0.80828857,0,0,0.80828857,735.20414,420.28952)">
    <g
       id="g653">
      <use
         height="100%"
         width="100%"
         y="0"
         x="0"
         id="use651"
         xlink:href="#Duplicate_Items_Folder_Symbol_4_copy_12_0_Layer0_0_FILL" />
    </g>
  </g>
</svg>
