<?xml version="1.0" encoding="UTF-8" standalone="no"?>
<!-- Created with Inkscape (http://www.inkscape.org/) -->

<svg
   width="32.485287mm"
   height="32.485287mm"
   viewBox="0 0 32.485287 32.485287"
   version="1.1"
   id="svg664"
   inkscape:version="1.2.2 (732a01da63, 2022-12-09)"
   sodipodi:docname="grid_sel.svg"
   xmlns:inkscape="http://www.inkscape.org/namespaces/inkscape"
   xmlns:sodipodi="http://sodipodi.sourceforge.net/DTD/sodipodi-0.dtd"
   xmlns="http://www.w3.org/2000/svg"
   xmlns:svg="http://www.w3.org/2000/svg">
  <sodipodi:namedview
     id="namedview666"
     pagecolor="#ffffff"
     bordercolor="#000000"
     borderopacity="0.25"
     inkscape:showpageshadow="2"
     inkscape:pageopacity="0.0"
     inkscape:pagecheckerboard="0"
     inkscape:deskcolor="#d1d1d1"
     inkscape:document-units="mm"
     showgrid="false"
     inkscape:zoom="0.46769781"
     inkscape:cx="-31.002925"
     inkscape:cy="324.99618"
     inkscape:window-width="1366"
     inkscape:window-height="705"
     inkscape:window-x="-8"
     inkscape:window-y="-8"
     inkscape:window-maximized="1"
     inkscape:current-layer="layer1" />
  <defs
     id="defs661" />
  <g
     inkscape:label="Στρώση 1"
     inkscape:groupmode="layer"
     id="layer1"
     transform="translate(-113.87164,-62.957357)">
    <g
       id="g493"
       transform="matrix(0.21385968,0,0,0.21385968,113.97857,79.2)">
      <g
         id="g491">
        <g
           id="use489">
          <path
             fill="#444444"
             stroke="none"
             d="m 151.25,-75.8 q -0.14473,-0.148242 -0.35,-0.15 H 0 q -0.20527344,0.0018 -0.35,0.15 -0.14824219,0.144727 -0.15,0.35 v 150.9 q 0.001758,0.205273 0.15,0.35 0.14472656,0.148242 0.35,0.15 h 150.9 q 0.20527,-0.0018 0.35,-0.15 0.14824,-0.144727 0.15,-0.35 v -150.9 q -0.002,-0.205273 -0.15,-0.35 M 0.5,-74.95 H 150.4 V 74.95 H 0.5 Z"
             id="path812" />
          <path
             fill="#f8e8ce"
             stroke="none"
             d="M 150.4,-74.95 H 0.5 v 149.9 h 149.9 v -149.9 m -0.75,0.75 0.2,-0.2 V 74.2 H 1.5 1.25 V -74.4 h 148.4 z"
             id="path814" />
          <path
             fill="#9aba78"
             stroke="none"
             d="m 143.1,-67.55 0.1,-0.1 H 8 v 135.4 l 0.35,-0.3 H 143.1 Z"
             id="path816" />
          <path
             fill="#cbf59e"
             stroke="none"
             d="m 149.65,-74.2 v -0.2 H 1.25 V 74.2 H 1.5 L 8,67.75 v -135.4 h 135.2 z"
             id="path818" />
          <path
             fill="#7d9862"
             stroke="none"
             d="m 149.85,-74.4 -0.2,0.2 -6.45,6.55 -0.1,0.1 v 135 H 8.35 L 8,67.75 1.5,74.2 h 148.35 z"
             id="path820" />
        </g>
      </g>
    </g>
  </g>
</svg>
