<?xml version="1.0" encoding="utf-8"?>
<!-- Generator: Adobe Illustrator 27.4.0, SVG Export Plug-In . SVG Version: 6.00 Build 0)  -->
<svg version="1.1"
	 id="svg289" xmlns:sodipodi="http://sodipodi.sourceforge.net/DTD/sodipodi-0.dtd" xmlns:rdf="http://www.w3.org/1999/02/22-rdf-syntax-ns#" xmlns:inkscape="http://www.inkscape.org/namespaces/inkscape" xmlns:cc="http://creativecommons.org/ns#" xmlns:dc="http://purl.org/dc/elements/1.1/" xmlns:svg="http://www.w3.org/2000/svg" inkscape:version="0.92.4 (5da689c313, 2019-01-14)" sodipodi:docname="eprobot.svg"
	 xmlns="http://www.w3.org/2000/svg" xmlns:xlink="http://www.w3.org/1999/xlink" x="0px" y="0px" viewBox="0 0 176.9 176.8"
	 style="enable-background:new 0 0 176.9 176.8;" xml:space="preserve">
<style type="text/css">
	.st0{fill:#35362C;}
	.st1{fill:#131410;}
	.st2{fill:#484A3D;}
	.st3{fill:#72250B;}
	.st4{opacity:0.6;fill:#94290C;enable-background:new    ;}
	.st5{opacity:0.5;fill:#9E9E9E;enable-background:new    ;}
	.st6{opacity:0.5;fill:#393939;enable-background:new    ;}
	.st7{opacity:0.4;fill:#484A3D;enable-background:new    ;}
	.st8{fill:#9E9E9E;}
	.st9{opacity:0.2;fill:#B0B0B0;enable-background:new    ;}
	.st10{fill:#F22908;}
	.st11{fill:#E8DFB8;}
	.st12{fill:#393827;}
	.st13{fill:#4B4D3F;}
	.st14{opacity:0.6;}
	.st15{fill:#E44A27;}
</style>
<sodipodi:namedview  bordercolor="#666666" borderopacity="1.0" fit-margin-bottom="0" fit-margin-left="0" fit-margin-right="0" fit-margin-top="0" id="base" inkscape:current-layer="layer1" inkscape:cx="17.151921" inkscape:cy="153.04773" inkscape:document-units="mm" inkscape:pageopacity="0.0" inkscape:pageshadow="2" inkscape:window-height="705" inkscape:window-maximized="1" inkscape:window-width="1366" inkscape:window-x="-8" inkscape:window-y="-8" inkscape:zoom="0.98994949" pagecolor="#ffffff" showgrid="false">
	</sodipodi:namedview>
<g>
	<g>
		<g>
			<g>
				<path class="st0" d="M129.2,34.2c0,0-0.2-2.8,0.4-2.3c0.6,0.5,6.5,0.9,8.7,1c2.2,0.1,3.8-1.8,4.1-0.3c0.3,1.5-0.7,3,0.4,2.5
					c1.2-0.5,3.5-3.4,3.6-2.6c0.1,0.7-3,6.2-4.5,5.1s-2.3-1.4-2.7-1.9c-0.3-0.5-0.2,2-3.5,1.2C132.5,36,129.2,34.2,129.2,34.2z"/>
				<path class="st0" d="M136.5,33.3c0.9,0,1.9,0,2.7-0.2c0.5-0.1,1.2-0.7,1.8-0.7c0.4,0,0.7,0.3,0.8,0.6c0.1,0.6,0,1.3,0.5,1.6
					c0.1-0.5,0.3-1.3,0.1-2.1c-0.3-1.5-1.9,0.4-4.1,0.3c-2.2-0.1-8.1-0.5-8.7-1l0,0C131.2,33.7,134.3,33.4,136.5,33.3z"/>
				<path class="st0" d="M146.3,32.3c-0.6,0.2-2.2,2-3.2,2.6C143.8,35.1,145.3,33.4,146.3,32.3z"/>
				<path class="st0" d="M142.7,36.3c-0.1,0-0.2,0-0.2-0.1c0-0.4,0-0.7,0-1c-0.3-0.2,0.2-1.3,0-2.6c0-0.1-0.1-0.2-0.1-0.3
					c-0.1,1.1-0.5,2.2-1.2,3.1h-0.1c-0.5-0.2-1.1-0.5-1.2-1.2c0-0.6,0.2-1.1,0.2-1.6c-0.1,0-0.2,0.1-0.3,0.1
					c-0.3,0.7-0.7,1.3-1.3,1.7c-0.8,0.5-1.8,0.5-2.8,0.4c-1.2-0.2-2.7-0.1-3.8-0.7c-0.9-0.4-1.3-1.3-1.8-2c-0.2-0.1-0.3-0.1-0.4-0.2
					c-0.6-0.5-0.4,2.3-0.4,2.3s3.3,1.8,6.6,2.7c3.3,0.8,3.2-1.7,3.5-1.2c0.3,0.5,1.1,0.8,2.7,1.9c1.5,1.1,4.6-4.4,4.5-5.1
					c0,0,0,0,0-0.1C145.5,33.9,144.3,35.3,142.7,36.3z"/>
				<path class="st0" d="M121.8,62.4c0,0,5.8-2.8,7.1-8.4c1.2-5.5,2.7-16.7,1.4-21.6c0,0-1.4-1.2-1.7-0.1c-0.2,1.1-4,8.6-3.3,22.7
					c0,0,0.7,1.7-1,1.9c-1.6,0.2-3.3,1.2-3.3,1.2L121.8,62.4z"/>
				<path class="st0" d="M125.2,57.2c1.3-0.9,1.2-2.4,1-3.8c-0.1-1.5-0.2-2.9-0.2-4.4c0-3.4,0.2-6.9,0.9-10.3
					c0.2-1.2,0.4-2.4,0.7-3.5c-1.1,3.5-2.8,10.1-2.3,19.9c0,0,0.7,1.7-1,1.9c-1.6,0.2-3.3,1.2-3.3,1.2l0.1,0.8
					C122.4,58.2,124.1,58,125.2,57.2z"/>
				<path class="st0" d="M130.3,32.4c0,0-0.9-0.7-1.4-0.5c0.3,0.2,0.6,0.6,0.7,1c0.3,1,0.3,2.2,0.2,3.2c-0.2,3-0.4,6-0.9,8.9
					c-0.6,3.6-1.5,7.2-2.6,10.7c0,0.1-0.2,0.1-0.3,0.1c-0.4-0.4-0.6-0.8-0.8-1.3c0,0.2,0,0.4,0,0.5c0,0,0.4,1-0.2,1.6
					c0.3,0.7,0.5,1.4-0.3,1.9c-0.1,0-0.2,0-0.2-0.1c-0.3-0.5-0.6-0.9-1-1.4c-1.3,0.3-2.5,1.1-2.5,1.1l0.7,4.2c0,0,5.8-2.8,7.1-8.4
					C130.1,48.5,131.6,37.4,130.3,32.4z"/>
				<path class="st0" d="M117.4,55.5c0,0,3.6-1.4,4.5,0.2c0.9,1.5,3.2,7.8-0.1,8.4C118.5,64.6,117.4,55.5,117.4,55.5z"/>
				<path class="st0" d="M121.6,57.7c-0.4-0.7-0.9-1.5-1.4-2.2c-0.1-0.2-0.3-0.4-0.5-0.7c-1.2,0.1-2.3,0.5-2.3,0.5s1.1,9.1,4.4,8.5
					c1.1-0.2,1.6-1,1.7-2.1C123,60.5,122.4,59.1,121.6,57.7z"/>
			</g>
			<g>
				<path class="st0" d="M149.3,106.5c-1.8-2-7.2-0.2-7.2-0.2l-0.4-0.1c0,0-0.8,1.7,0.8,1.2C146.9,106,153.5,111.1,149.3,106.5z"/>
				<path class="st0" d="M143.2,105.9c-0.7,0.2-1.1,0.3-1.1,0.3l-0.4-0.1c0,0-0.8,1.7,0.8,1.2c2.7-0.9,6.3,0.8,7.6,1.1
					C148.5,106.7,145.6,106.5,143.2,105.9z"/>
				<path class="st0" d="M143.4,107c0,0-0.1-1.4-3-1.2c-2.8,0.2-9.1,5.8-8.4,6.8C132.8,113.8,137.5,109.1,143.4,107z"/>
				<path class="st0" d="M139.6,108c-1.1,0.5-2,1.1-3,1.7c-0.4,0.3-1.6,1.2-2.1,0.7c-0.2-0.2-0.3-0.5-0.3-0.8
					c-1.4,1.3-2.4,2.6-2.1,3.1c0.8,1.1,5.5-3.6,11.3-5.7c0,0,0-0.1,0-0.2C142.1,106.9,140.8,107.4,139.6,108z"/>
				<path class="st0" d="M135.5,109.4c1.2-1,2.5-2.1,3.9-2.8c0.5-0.3,1.2-0.5,1.9-0.7c-0.3,0-0.6,0-0.9,0c-2.5,0.2-7.8,4.6-8.4,6.3
					C133.4,111.7,134.5,110.3,135.5,109.4z"/>
				<path class="st0" d="M124.2,82.7c0,0,10.7,11.7,9.2,28.8c0,0,0.6,1.9-1.6,1.5c-2.2-0.4-5.5-10.7-7.5-18.1
					C122.4,87.5,124.2,82.7,124.2,82.7z"/>
				<path class="st0" d="M131.8,96.9c0.2,1.4,0.4,2.8,0.5,4.1c0.1,2.4,0.1,4.9,0.2,7.3c0,1.3,0.1,3,0.8,4.1c0.2-0.5,0-1.1,0-1.1
					C133.9,106,133.1,101.1,131.8,96.9z"/>
				<path class="st0" d="M131,106.2c0.3-2.8,0.2-5.5,0-8.3c-0.1-1.6-0.4-3.1-0.7-4.7c-0.1-0.4-0.2-0.8-0.3-1.2
					c-2.6-5.9-5.8-9.4-5.8-9.4s-1.8,4.8,0.2,12.2c1.9,7.4,5.3,17.7,7.5,18.1c0.8,0.1,1.2,0,1.4-0.3
					C130.4,112.6,130.9,108.2,131,106.2z"/>
			</g>
			<g>
				<path class="st0" d="M138,153.4c0,0,2.2-0.8,3,1.4c0.8,2.2,2.9,6.6,2.1,8.5s-0.5,2.8-0.8,1.9c-0.3-0.9,0-1.2-0.5-4
					s-3.9-6.5-3.9-6.5L138,153.4z"/>
				<path class="st0" d="M140.3,154c0.1,0.4,0.1,0.9,0.3,1.3c0.2,0.6,0.5,1.1,0.8,1.7c0.5,0.9,1,1.8,1.4,2.7
					c-0.5-1.8-1.4-3.7-1.8-4.9c-0.2-0.6-0.5-0.9-0.8-1.1C140.3,153.8,140.3,153.9,140.3,154z"/>
				<path class="st0" d="M143.2,163.1c-0.1-0.4-0.1-0.7-0.2-1c-0.3-1.1-0.8-2.1-1.3-3c-0.3-0.6-0.7-1.3-1.1-1.9
					c-0.3-0.5-0.7-0.9-0.8-1.5c-0.2-0.5,0-0.7,0.2-1.1c0.2-0.3,0.2-0.6,0.2-0.9c-0.9-0.7-2.2-0.2-2.2-0.2v1.3c0,0,3.3,3.7,3.9,6.5
					c0.5,2.8,0.2,3.1,0.5,4c0.3,0.9,0,0,0.8-1.9C143.2,163.2,143.2,163.2,143.2,163.1z"/>
				<path class="st0" d="M139.6,153.2c-1.5-4-15.8-11.9-21.9-10.9c0,0-0.8,1.9,1.2,3.2c0.1,0.1,0.1,0.1,0.2,0.2
					c0.7,0.8,1.6,1.2,2.6,1.6c1.3,0.5,2.6,0.7,3.9,1.1c1.5,0.5,3,1.5,4.1,2.6c0.5,0.4,2.9,3,3.2,1.2c0.1-0.6-0.6-1.3-1-1.8
					c0.2,0.1,0.4,0.2,0.7,0.3c0.8,0.7,1.5,1.4,2.2,2.1c0.8,0.8,1.6,1.5,2.4,2.2c0.4,0.4,0.9,0.8,1.6,0.7
					C139.8,155.4,139.9,153.9,139.6,153.2z"/>
				<path class="st0" d="M124.4,143.8c2.3,0.7,4.5,1.6,6.7,2.7c1.3,0.6,2.7,1.3,3.9,2.2c-4.8-3.3-12.1-6.6-16.5-6.4
					C120.4,143,122.5,143.2,124.4,143.8z"/>
				<path class="st0" d="M137.4,154.4c-0.7-0.6-1.3-1.3-1.8-2s-1.2-1.4-1.8-2c-1.5-1.3-3.1-2.3-4.9-3c0.9,1.1,1.8,2.1,2.4,3.4
					c0.1,0.1-0.1,0.3-0.2,0.2c-1.3-1.1-2.7-2.1-4.3-2.9c-1.4-0.7-2.8-1.2-4.2-1.7c-0.9-0.3-2-0.7-2.4-1.7c-0.4-0.9,0.2-1.6,0.8-2.3
					c-1.2-0.2-2.2-0.2-3.1-0.1c0,0-0.8,1.9,1.2,3.2c0.1,0.1,0.1,0.1,0.2,0.2c0.7,0.8,1.6,1.2,2.6,1.6c1.3,0.5,2.6,0.7,3.9,1.1
					c1.5,0.5,3,1.5,4.1,2.6c0.5,0.4,2.9,3,3.2,1.2c0.1-0.6-0.6-1.3-1-1.8c0.2,0.1,0.4,0.2,0.7,0.3c0.8,0.7,1.5,1.4,2.2,2.1
					c0.8,0.8,1.6,1.5,2.4,2.2c0.4,0.4,0.9,0.8,1.6,0.7c0.5-0.1,0.8-0.5,0.9-1C139.1,155.2,138.1,155,137.4,154.4z"/>
				<path class="st0" d="M124.3,120.2c0,0,2,0.4,1.4,4.3c-0.6,3.8-5.8,20.3-7.9,20.3c-2.1-0.1-2.7-2.9-2-3.5c0.4-0.4,4.8-6.1,5.6-13
					C121.8,124.7,121.6,124.9,124.3,120.2z"/>
				<path class="st0" d="M124.8,120.4c0.2,0.9,0.2,1.9,0.2,2.8c0,1.6-0.4,3.2-0.8,4.7c-0.5,1.8-1,3.7-1.6,5.4
					c-0.6,1.8-1.3,3.6-2,5.4c-0.5,1.5-0.9,3.1-1.8,4.4c-0.3,0.5-0.8,1-1.3,1.4c0.1,0,0.1,0,0.2,0c2.1,0.1,7.3-16.4,7.9-20.3
					C126.1,121.9,125.4,120.9,124.8,120.4z"/>
				<path class="st0" d="M117.2,142.8c-0.1-1.1,0.6-1.9,1.2-2.8c1.8-2.6,3.2-5.8,4.1-8.9c0.5-1.7,0.7-3.5,1-5.2
					c0.2-1.2,0.3-2.9,1.1-3.9c0.2-0.3,0.5-0.5,0.9-0.6c-0.4-1-1.2-1.2-1.2-1.2c-2.7,4.7-2.5,4.5-2.9,8c-0.8,6.9-5.2,12.7-5.6,13
					c-0.7,0.6-0.1,3.4,2,3.5c0.2,0,0.5-0.2,0.9-0.6C117.8,144.2,117.3,143.5,117.2,142.8z"/>
			</g>
		</g>
		<g>
			<g>
				<path class="st0" d="M51.5,31.8c0,0,0.4-2.7-0.3-2.3c-0.7,0.5-6.6,0.5-8.8,0.4s-3.7-2.1-4.1-0.6c-0.4,1.5,0.5,3-0.6,2.5
					c-1.1-0.6-3.3-3.6-3.4-2.9c-0.1,0.7,2.6,6.4,4.2,5.4c1.6-1,2.4-1.2,2.8-1.8c0.4-0.5,0.1,2,3.5,1.4
					C48.2,33.4,51.5,31.8,51.5,31.8z"/>
				<path class="st0" d="M44.3,30.4c-0.9-0.1-1.9-0.1-2.7-0.4c-0.5-0.2-1.2-0.8-1.8-0.8c-0.4,0-0.8,0.2-0.9,0.6
					c-0.2,0.6-0.1,1.3-0.6,1.6c0-0.5-0.2-1.3,0-2.1c0.4-1.5,1.9,0.5,4.1,0.6c2.2,0,8.1,0,8.8-0.4l0,0C49.5,31.2,46.5,30.6,44.3,30.4
					z"/>
				<path class="st0" d="M34.6,28.9c0.6,0.3,2,2.2,3,2.8C36.9,31.8,35.5,30,34.6,28.9z"/>
				<path class="st0" d="M38,33c0.1,0,0.2,0,0.2-0.1c0.1-0.4,0.1-0.7,0-1c0.3-0.2-0.2-1.4,0.2-2.6c0-0.1,0.1-0.2,0.1-0.3
					c0,1.1,0.4,2.2,1,3.2c0,0,0.1,0.1,0.1,0c0.5-0.2,1.2-0.5,1.2-1.1c0.1-0.6-0.2-1.1-0.1-1.6c0.1,0,0.2,0.1,0.2,0.1
					c0.2,0.7,0.6,1.3,1.2,1.8c0.8,0.6,1.8,0.6,2.7,0.5c1.2-0.1,2.7,0,3.9-0.4c0.9-0.3,1.3-1.3,2-1.9c0.2,0,0.4-0.1,0.4-0.1
					c0.7-0.5,0.3,2.3,0.3,2.3S48,33.4,44.7,34c-3.4,0.6-3.1-1.9-3.5-1.4s-1.2,0.8-2.8,1.8c-1.6,1-4.3-4.7-4.2-5.4c0,0,0,0,0-0.1
					C35.3,30.5,36.4,32,38,33z"/>
				<path class="st0" d="M57.2,60.4c0,0-5.6-3.2-6.5-8.8s-1.7-16.8,0-21.7c0,0,1.5-1.1,1.6,0s3.4,8.9,1.9,22.9c0,0-0.8,1.7,0.8,2
					s3.2,1.4,3.2,1.4L57.2,60.4z"/>
				<path class="st0" d="M54.1,55c-1.2-1-1-2.4-0.8-3.8c0.2-1.5,0.4-2.9,0.4-4.4c0.2-3.4,0.2-6.9-0.3-10.3c-0.2-1.2-0.3-2.4-0.5-3.6
					c0.9,3.6,2.2,10.3,1.1,20c0,0-0.8,1.7,0.8,2s3.2,1.4,3.2,1.4l-0.2,0.8C56.9,56.1,55.2,55.8,54.1,55z"/>
				<path class="st0" d="M50.6,30c0,0,0.9-0.7,1.4-0.4c-0.4,0.1-0.7,0.6-0.8,0.9c-0.4,1-0.4,2.2-0.4,3.2c0,3,0.1,6,0.3,8.9
					c0.3,3.7,1,7.3,1.9,10.8c0,0.1,0.2,0.1,0.2,0.1c0.4-0.4,0.7-0.8,0.9-1.2c0,0.2,0,0.4,0,0.5c0,0-0.5,1,0.1,1.6
					c-0.4,0.7-0.6,1.4,0.2,1.9c0.1,0,0.2,0,0.2,0c0.3-0.4,0.7-0.9,1-1.3c1.3,0.4,2.5,1.2,2.5,1.2l-0.9,4.2c0,0-5.6-3.2-6.5-8.8
					S49,34.8,50.6,30z"/>
				<path class="st0" d="M62,53.8c0,0-3.5-1.6-4.5-0.1s-3.7,7.6-0.4,8.3C60.4,62.8,62,53.8,62,53.8z"/>
				<path class="st0" d="M57.7,55.8c0.5-0.7,0.9-1.4,1.5-2.1c0.1-0.1,0.3-0.4,0.6-0.6c1.1,0.2,2.3,0.7,2.3,0.7s-1.6,9-4.9,8.3
					c-1.1-0.3-1.5-1.1-1.6-2.2C56.1,58.4,56.8,57.1,57.7,55.8z"/>
			</g>
			<g>
				<path class="st0" d="M27,102.7c1.9-1.9,7.2,0.2,7.2,0.2l0.4-0.1c0,0,0.7,1.7-0.9,1.2C29.4,102.4,22.5,107.1,27,102.7z"/>
				<path class="st0" d="M33.1,102.5c0.7,0.2,1.1,0.4,1.1,0.4l0.4-0.1c0,0,0.7,1.7-0.9,1.2c-2.7-1-6.4,0.4-7.7,0.6
					C27.8,102.9,30.7,103,33.1,102.5z"/>
				<path class="st0" d="M32.9,103.6c0,0,0.2-1.4,3-1s8.7,6.3,7.9,7.3C43,111,38.6,106.1,32.9,103.6z"/>
				<path class="st0" d="M36.6,104.8c1.1,0.6,2,1.2,2.9,1.9c0.4,0.3,1.5,1.3,2.1,0.8c0.2-0.2,0.3-0.4,0.4-0.7
					c1.3,1.4,2.2,2.7,1.9,3.2c-0.8,1-5.2-3.9-11-6.3c0,0,0-0.1,0.1-0.2C34.2,103.6,35.5,104.2,36.6,104.8z"/>
				<path class="st0" d="M40.6,106.4c-1.1-1.1-2.3-2.2-3.7-3c-0.5-0.3-1.1-0.6-1.9-0.9c0.3,0,0.6,0,0.9,0.1c2.5,0.4,7.5,5.1,8,6.8
					C42.5,108.9,41.5,107.4,40.6,106.4z"/>
				<path class="st0" d="M53.5,80.5c0,0-11.4,11.1-10.9,28.1c0,0-0.7,1.9,1.5,1.6c2.2-0.2,6.2-10.4,8.6-17.6
					C55,85.4,53.5,80.5,53.5,80.5z"/>
				<path class="st0" d="M45.1,94.3c-0.3,1.4-0.6,2.7-0.8,4.1c-0.3,2.4-0.4,4.9-0.6,7.3c-0.1,1.3-0.2,3-1.1,4c-0.2-0.5,0-1.1,0-1.1
					C42.5,103.2,43.5,98.3,45.1,94.3z"/>
				<path class="st0" d="M45.3,103.6c-0.1-2.8,0.1-5.5,0.5-8.3c0.2-1.6,0.6-3.1,1-4.6c0.1-0.4,0.2-0.8,0.4-1.1c3-5.7,6.4-9,6.4-9
					s1.5,4.9-0.9,12.1c-2.4,7.3-6.4,17.4-8.6,17.6c-0.8,0.1-1.2-0.1-1.4-0.4C45.5,110,45.3,105.6,45.3,103.6z"/>
			</g>
			<g>
				<path class="st0" d="M35.4,150.3c0,0-2.1-1-3.1,1.2c-0.9,2.1-3.3,6.4-2.7,8.3c0.7,1.9,0.3,2.8,0.7,1.9c0.3-0.9,0-1.2,0.8-3.9
					c0.7-2.7,4.3-6.2,4.3-6.2V150.3z"/>
				<path class="st0" d="M33,150.7c-0.1,0.4-0.2,0.9-0.3,1.3c-0.2,0.6-0.6,1.1-0.9,1.6c-0.6,0.8-1.1,1.7-1.6,2.6
					c0.7-1.7,1.6-3.6,2.1-4.8c0.2-0.5,0.5-0.9,0.9-1.1C33.1,150.5,33.1,150.6,33,150.7z"/>
				<path class="st0" d="M29.6,159.6c0.1-0.3,0.2-0.7,0.3-1c0.4-1,0.9-2,1.5-2.9c0.4-0.6,0.8-1.2,1.2-1.8c0.3-0.5,0.7-0.9,0.9-1.4
					s0.1-0.7-0.1-1.2c-0.2-0.3-0.2-0.6-0.1-0.9c1-0.6,2.2-0.1,2.2-0.1v1.3c0,0-3.6,3.5-4.3,6.2s-0.4,3.1-0.8,3.9
					c-0.3,0.9,0,0-0.7-1.9C29.6,159.7,29.6,159.7,29.6,159.6z"/>
				<path class="st0" d="M34.4,152.4c0.6,0.1,1.2-0.2,1.6-0.6c0.8-0.7,1.7-1.4,2.6-2.1c0.8-0.7,1.6-1.3,2.4-2
					c0.2-0.1,0.5-0.2,0.7-0.3c-0.4,0.5-1.2,1.1-1.1,1.7c0.2,1.9,2.8-0.6,3.2-1c1.2-1,2.8-1.9,4.3-2.3c1.3-0.3,2.7-0.5,4-0.9
					c1-0.3,1.9-0.7,2.7-1.4c0.1-0.1,0.1-0.1,0.2-0.2c2.1-1.2,1.4-3.1,1.4-3.1c-6-1.3-20.8,5.7-22.5,9.6
					C33.5,150.6,33.4,152.1,34.4,152.4z"/>
				<path class="st0" d="M49.5,141.5c-2.3,0.6-4.6,1.4-6.8,2.3c-1.4,0.5-2.7,1.2-4,1.9c5-3,12.5-5.8,16.8-5.4
					C53.6,140.9,51.5,141,49.5,141.5z"/>
				<path class="st0" d="M35.9,151.3c0.7-0.5,1.3-1.2,1.9-1.9c0.6-0.7,1.3-1.3,2-1.9c1.5-1.2,3.2-2.1,5.1-2.7c-0.9,1-1.9,2-2.6,3.2
					c-0.1,0.1,0.1,0.3,0.2,0.2c1.4-1,2.9-1.9,4.4-2.6c1.4-0.6,2.9-1,4.3-1.4c1-0.3,2.1-0.6,2.5-1.6c0.4-0.9-0.1-1.6-0.6-2.4
					c1.2-0.1,2.2-0.1,3.1,0.1c0,0,0.7,1.9-1.4,3.1c-0.1,0.1-0.1,0.1-0.2,0.2c-0.7,0.7-1.7,1.1-2.7,1.4c-1.3,0.4-2.7,0.6-4,0.9
					c-1.5,0.4-3.1,1.3-4.3,2.3c-0.5,0.4-3,2.9-3.2,1c-0.1-0.6,0.7-1.3,1.1-1.7c-0.2,0.1-0.5,0.2-0.7,0.3c-0.8,0.6-1.6,1.3-2.4,2
					c-0.8,0.7-1.7,1.4-2.6,2.1c-0.5,0.4-1,0.7-1.6,0.6c-0.5-0.1-0.8-0.6-0.8-1.1C34.2,151.9,35.2,151.8,35.9,151.3z"/>
				<path class="st0" d="M51.1,117.9c0,0-2,0.3-1.7,4.2c0.4,3.9,4.6,20.6,6.7,20.7c2.1,0.1,2.9-2.7,2.2-3.3
					c-0.4-0.4-4.4-6.4-4.8-13.3C53.3,122.6,53.6,122.8,51.1,117.9z"/>
				<path class="st0" d="M50.6,118.2c-0.2,0.9-0.4,1.9-0.4,2.8c-0.1,1.6,0.2,3.2,0.5,4.8c0.4,1.9,0.8,3.7,1.3,5.5
					c0.5,1.8,1.1,3.7,1.6,5.5c0.4,1.5,0.7,3.2,1.6,4.5c0.3,0.5,0.7,1,1.2,1.5c-0.1,0-0.1,0-0.2,0c-2.1-0.1-6.3-16.8-6.7-20.7
					C49.2,119.5,50,118.5,50.6,118.2z"/>
				<path class="st0" d="M56.8,140.9c0.2-1.1-0.4-2-1-2.9c-1.7-2.7-2.9-6-3.6-9.1c-0.4-1.7-0.5-3.5-0.7-5.3c-0.1-1.2-0.1-2.9-0.8-4
					c-0.2-0.3-0.5-0.6-0.8-0.6c0.5-1,1.3-1.1,1.3-1.1c2.4,4.9,2.2,4.7,2.4,8.2c0.4,7,4.4,12.9,4.8,13.3c0.7,0.6-0.1,3.4-2.2,3.3
					c-0.3,0-0.5-0.2-0.8-0.7C56.1,142.3,56.6,141.6,56.8,140.9z"/>
			</g>
		</g>
		<g>
			<path class="st1" d="M117.4,65.8l-29.3,0.8l-26.5-2.5c-0.4,0-2.9,1.4-2.9,1.4s9.3,4,12.2,7.1l16.5,0.5l1.6,0.1l18.6,0.6
				c3.1-2.9,12.6-6.3,12.6-6.3S117.8,65.8,117.4,65.8z"/>
			<g>
				<g>
					<path class="st0" d="M101.1,39.5c0,0,0.7-1.2,1.3-3.3c0.6-2.1-0.4-2.4-1.9-0.8c-1.6,1.7-5.4,1.3-5.4,1.3L101.1,39.5z"/>
					<path class="st0" d="M97,37.3c0,0-0.7-3.8-4.7-4.1h-1.2H90h-1.2c-4.1,0-5,3.8-5,3.8l6.6-0.3L97,37.3z"/>
					<path class="st2" d="M96.1,35.3c-1.2-0.6-2.4-0.8-3.7-0.8c-1.4-0.1-2.8-0.2-4.2-0.1c-0.9,0-1.7,0.1-2.6,0.4
						c-0.2,0.1-0.5,0.2-0.8,0.2c-0.7,1-1,1.9-1,1.9l6.6-0.3l6.6,0.7C97,37.3,96.8,36.3,96.1,35.3z"/>
					<path class="st3" d="M98.6,36.4c0,0,7.4-7.5,8.1-8.9c0,0,0.6-3.3,2.3-2.9c1.6,0.4,0.4,1.9-1.8,4c-2.4,2.4-7.3,8.4-7.3,8.4
						L98.6,36.4z"/>
					<path class="st4" d="M109.5,24.8c-0.1,0.4-0.3,0.9-0.5,1.2c-0.3,0.5-1,1.5-1.7,1.1c-0.2-0.1-0.4-0.3-0.4-0.5
						c-0.1,0.4-0.2,0.8-0.2,0.8c-0.7,1.5-8.1,8.9-8.1,8.9l1.3,0.5c0,0,4.9-6,7.3-8.4C108.9,26.8,110,25.4,109.5,24.8z"/>
					<path class="st0" d="M78.8,38.8c0,0-0.6-1.3-1.1-3.4c-0.5-2.1,0.5-2.4,2-0.7c1.5,1.8,5.3,1.7,5.3,1.7L78.8,38.8z"/>
					<path class="st0" d="M75.8,46.3c0,0-0.7-11.7,14.6-11.2s13.9,12.1,13.9,12.1L75.8,46.3L75.8,46.3z"/>
					<path class="st5" d="M94.6,35.6c-0.5,0.4-0.8,0.9-0.5,1.7c0.3,1,1,2,1.7,2.8s1.4,1.5,2.1,2.2c0.4,0.3,0.9,0.7,0.9,1.2
						c0,0.1-7.1-1.9-9.2-2c-1.3,0-2.7-0.1-4,0.1c-1.3,0.2-3.8,1.1-3.7,1c1.2-1.8,3.3-3,4.3-4.9c0.4-0.8,0.5-1.8-0.3-2.4
						c-10.7,1.7-10.1,11-10.1,11l28.5,0.9C104.4,47.2,105.4,37.8,94.6,35.6z"/>
					<path class="st6" d="M99.1,43.7c-2.7-0.7-5.4-1.1-8.2-1.3c-2.8-0.2-5.7,0.1-8.4,0.8c-2.3,0.5-4.5,1.3-6.6,2.1
						c-0.1,0.7,0,1.1,0,1.1l28.5,0.9c0,0,0.1-0.7,0-1.7C102.6,44.8,100.9,44.1,99.1,43.7z"/>
					<path class="st2" d="M76,44.2c0,0,0.7,1.5,6.3-3.1c5.5-4.6,3.9-7-0.7-5.2C77,37.6,76.2,41.3,76,44.2z"/>
					<path class="st2" d="M77.6,40.8c0.9-0.8,1.5-1.8,2.2-2.7c0.6-0.6,1.3-1.2,1.9-1.7C79.9,37.1,78,38.7,77.6,40.8z"/>
					<path class="st3" d="M81.6,35.8c0,0-6.9-7.9-7.5-9.4c0,0-0.4-3.4-2.1-3.1c-1.6,0.3-0.5,1.9,1.5,4.1c2.3,2.5,6.8,8.8,6.8,8.8
						L81.6,35.8z"/>
					<path class="st2" d="M83.7,35.3c0.1,0.1,0.2,0.2,0.3,0.3c0.3,0.6-0.1,1.6-0.4,2.1c-1.2,1.9-3.2,4-5.6,4.3
						c-1.7,0.2-0.8-1.9-0.4-2.7c0.9-1.4,2.1-2.5,3.5-3.3c-4.1,1.9-4.9,5.4-5.1,8.1c0,0,0.7,1.5,6.3-3.1C86.8,37.3,86.5,35,83.7,35.3
						z"/>
					<path class="st2" d="M103.9,45.1c0,0-0.8,1.4-6.1-3.5c-5.2-4.9-3.5-7.3,1-5.2C103.3,38.4,103.8,42.2,103.9,45.1z"/>
					<path class="st2" d="M103.3,41.1c0.1,0.4,0.1,0.9-0.2,1.2c-0.6,0.6-1.4,0.3-2,0c-1.2-0.6-2.2-1.5-3-2.6
						c-0.6-0.8-1.3-1.7-1.5-2.7c-0.1-0.7,0.1-1.1,0.5-1.2c-3-0.7-3.6,1.7,0.8,5.8c5.2,4.9,6.1,3.5,6.1,3.5
						C103.9,43.8,103.8,42.5,103.3,41.1z"/>
					<path class="st4" d="M74.1,26.4c0,0-0.1-0.7-0.3-1.4c0.1,0.3,0.1,0.7-0.1,0.8c-0.5,0.4-1.1-0.1-1.4-0.4c-0.4-0.4-0.7-1-1-1.5
						c-0.1,0.7,0.9,2,2.3,3.5c2.3,2.5,6.8,8.8,6.8,8.8l1.3-0.4C81.6,35.8,74.7,27.9,74.1,26.4z"/>
					<path class="st2" d="M102.5,41.5c-0.8-0.8-1.3-1.9-2.1-2.8c-0.5-0.7-1.2-1.3-1.8-1.8C100.4,37.7,102.2,39.5,102.5,41.5z"/>
					<path class="st7" d="M86.2,38c-0.7,0.3-1.2,0.9-1.5,1.5c-0.4,0.3-0.7,0.8-0.8,1.2c-0.1,0.9,1.3,0.4,1.6,0.3
						c0.8-0.3,1.7-1.1,1.9-2C87.7,38.2,87,37.6,86.2,38z"/>
					<path class="st7" d="M94.1,38.2c0.6,0.3,1.1,1,1.4,1.6c0.3,0.4,0.7,0.8,0.7,1.3c0.1,0.9-1.3,0.4-1.6,0.2
						c-0.8-0.4-1.6-1.2-1.8-2.1C92.6,38.3,93.4,37.8,94.1,38.2z"/>
				</g>
				<path class="st0" d="M107.3,45.7c-1.3,1.2-5.4-0.5-5.4-0.5c-3.7-0.8-7.9-1.7-10.5-2.3l-2.3-0.1c-2.6,0.4-6.8,1.1-10.6,1.6
					c0,0-4.2,1.5-5.5,0.2c-1.1-1.2-17.8,10.9-15.4,19.9c0,0,2.7,4.7,27.9,5.7l3.8,0.2l3.8,0.1c25.3,0.5,28.2-4,28.2-4
					C124.4,57.7,108.5,44.6,107.3,45.7z"/>
				<path class="st8" d="M76,45.6c1.6,0.1,3.2-0.2,4.6-0.9c0.6-0.3,1.3-0.6,1.9-0.9c-1.4,0.2-2.7,0.4-4,0.6c0,0-2.5,0.9-4.2,0.7
					C74.8,45.4,75.4,45.6,76,45.6z"/>
			</g>
			<path class="st9" d="M64.7,54.8c1.3-1.3,2.7-2.7,4.2-3.8c1.2-0.9,2.5-1.6,4-1.9c1.7-0.4,3.4-0.2,5.1-0.3c2.1-0.2,3.8-1.1,5.6-1.9
				c1.2-0.5,2.5-0.9,3.8-1.1c1.9-0.3,4.2-0.5,6,0.5c-0.9-0.9-2.5-1.1-3.7-1.2c-1.1,0-2.3,0.2-3.4,0.5c-1.8,0.2-3.5,0.5-5.2,0.8
				c-1.8,0.4-3.5,0.8-5.4,0.6c-1.3-0.2-2.2-0.4-3.5,0c-2.4,0.7-4.4,2.9-6,4.7c-1.9,2.1-4.2,4.2-5.1,6.9c0,0,0,0,0,0.1
				C62.2,57.3,63.4,56,64.7,54.8z"/>
			<path class="st9" d="M101.1,66.4c-2,0.1-4.1,0.1-6.1,0c-4-0.1-8-0.3-12-0.5c-4-0.2-7.9-0.5-11.9-1c-3.2-0.5-6.4-1.1-9.6-2
				c0.9,0.6,1.9,1.1,2.9,1.5c2.3,0.7,4.8,1.1,7.1,1.6c3.5,0.8,6.9,1.1,10.5,1.4c7,0.5,14.2,0.8,21-0.9l0.1-0.1
				C102.5,66.3,101.8,66.3,101.1,66.4z"/>
			<g>
				<path class="st10" d="M123.2,74.9c-1.1-4.1-28.8-4-28.8-4l-3.3-0.1l-3.5-0.1l-3.3-0.1c0,0-27.6-1.7-29,2.2
					c-0.7,2-7.9,18.1-6,36.1c1.9,17,12.3,35.7,31.1,39.9c0,0,1,0.3,4.7,0.6c0,0,1.2,0.1,1.7,0.1s1.8,0,1.8,0
					c3.8-0.1,4.8-0.3,4.8-0.3c19-3,30.6-21.1,33.5-37.9C130,93.4,123.8,76.9,123.2,74.9z"/>
				<path class="st11" d="M70,70.7c2.1,1.9,8.8,8.9,18.3,8.6c4.3-0.2,6.9,0.4,10.6-1.7c3.1-1.7,5.7-4.1,9-5.6
					c0.4-0.2,0.8-0.4,1.2-0.5c-7.3-0.7-14.6-0.7-14.6-0.7l-10.2-0.3c0,0-7.5-0.5-14.9-0.4C69.6,70.3,69.8,70.5,70,70.7z"/>
				<path class="st12" d="M98.2,81.5c-0.1-1.6,0.3-3.2-0.3-4.8c-0.5-1.4-1.6-2.1-2.8-2.9c-0.2-0.1-0.4-0.3-0.6-0.4
					c-0.3-0.4-0.7-0.7-1.1-1c-0.3-0.2-0.7-0.2-1.1-0.2l0,0c-0.1,0-0.1,0-0.2,0c-0.2,0-0.4,0-0.6-0.1c-0.8-0.3-1.4-0.5-2.2-0.4
					c-0.8,0.1-1.4,0.2-2.2,0c-0.7-0.2-1.3-0.1-2,0.2c-0.1,0-0.2,0.1-0.3,0.1h-0.1c0,0,0,0-0.1,0c-0.4-0.1-0.7-0.1-1.1,0.1
					c-0.4,0.3-0.8,0.6-1.2,0.9c-0.2,0.2-0.5,0.3-0.6,0.4c-1.2,0.8-2.3,1.4-2.9,2.8c-0.7,1.5-0.4,3.1-0.6,4.8c-0.1,1.3,0.8,3,1.6,3.9
					c0.4,0.4,1,0.5,1.5,0.6c1.1,0.2,1.6,0.4,2.1,1.4c0.7,1.4,1.9,1.3,3.2,0.9c0.6-0.2,0.9-0.3,1.4-0.4c0.4,0.1,0.8,0.3,1.3,0.4
					c1.3,0.5,2.5,0.6,3.3-0.7c0.6-1,1.1-1.1,2.2-1.3c0.5-0.1,1.2-0.1,1.6-0.5C97.3,84.5,98.3,82.8,98.2,81.5z"/>
				<path class="st12" d="M82.7,105.1c-0.2-0.7-0.9-1.4-1.4-1.9s-0.8-0.7-0.6-1.4c0.1-0.4,0.1-0.8,0.1-1.2c-0.2-1.5-1.5-2.4-2.8-2.9
					c-1.4-0.5-3-0.6-4.4-0.4c-1.8,0.2-3.9-0.1-5.4,0.9c-1.3,0.8-1.9,2.4-2.6,3.8c-0.3,0.3-0.7,0.6-1,1c-0.8,0.9-1.3,1.8-1.6,3
					c-0.4,1.6-2.2,2.8-2,4.5c0.1,1,1,1.6,1,2.6c0.1,3.7,2.7,8.8,7.2,7.5c1.2-0.4,2.5-0.3,3.7-0.8c1-0.4,1.6-1.3,2.5-1.9
					c2.7-1.7,5.5-3.9,6.6-7.1c0.3-1,0.1-2,0.3-3S83,106.2,82.7,105.1z"/>
				<path class="st12" d="M60,89.8c-0.3-1.3,0.5-2-0.8-3c-0.7-0.5-0.8-0.5-0.9-1.5c0-0.4-0.5-0.8-0.8-1c-0.6-0.4-1.3-0.3-1.9-0.1
					c-0.6,0.2-1.3,0.6-1.6,0.9c-1.1,1.1-1.9,2.6-2.3,4c-0.1,0.4-0.3,1.3,0.1,1.6c0.1,0.1,0.2,0.1,0.3,0.2c-0.1,1.4-1.2,2.7-0.8,4.2
					c0.1,0.3,0.4,0.5,0.7,0.6c0.1,0.3,0.3,0.5,0.6,0.4c1.2-0.2,2.4,0.1,3.6-0.5c1.2-0.6,1.4-1.9,2.2-2.8C59.1,92.1,60.2,91,60,89.8z
					"/>
				<path class="st12" d="M116.9,91.6c0.3-1.3-0.4-2,1-2.9c0.7-0.5,0.8-0.5,0.9-1.5c0.1-0.4,0.5-0.7,0.9-0.9c0.6-0.3,1.3-0.2,1.9,0
					s1.2,0.7,1.6,1c1.1,1.2,1.7,2.7,2,4.2c0.1,0.4,0.2,1.3-0.2,1.6c-0.1,0.1-0.2,0.1-0.3,0.2c0,1.4,1.1,2.8,0.5,4.2
					c-0.1,0.3-0.4,0.5-0.7,0.5c-0.1,0.3-0.3,0.5-0.6,0.4c-1.2-0.3-2.4,0-3.5-0.7s-1.2-2-2-3C117.6,93.9,116.6,92.7,116.9,91.6z"/>
				<path class="st12" d="M72.2,138.4c-0.1-0.6-0.6-1.1-1.1-1.6c0.1-0.3,0.2-0.6,0.3-1c0.2-1-0.4-1.7-1.3-1.9c-0.1,0-0.1,0-0.2,0
					c-0.1-0.2-0.2-0.4-0.4-0.6c-0.3-0.4-0.7-0.6-1.1-0.9c-0.2-0.2-0.4-0.4-0.6-0.6c-0.5-0.9-1.3-1.4-2.2-1.9
					c-1.4-0.8-2.7-0.7-3.6,0.2c-0.5,0.3-0.8,0.8-0.9,1.4c-1,1.9,0.6,4.4,1.9,5.9c0.5,0.6,1.1,1,1.7,1.6s1,1.3,1.5,1.9
					c0.9,1,2.5,2,3.8,2.4c0.7,0.2,1.4-0.4,1.7-1.1c0.3-0.2,0.3-0.6,0-1.2C72,140.1,72.3,139.3,72.2,138.4z"/>
				<path class="st12" d="M92.6,105.4c0.2-0.7,1-1.3,1.6-1.8c0.5-0.4,0.8-0.7,0.7-1.4c-0.1-0.4-0.1-0.8,0-1.2c0.3-1.5,1.6-2.3,3-2.7
					c1.4-0.4,3-0.4,4.4-0.2c1.8,0.3,3.9,0.2,5.4,1.3c1.2,0.9,1.7,2.6,2.4,4c0.3,0.3,0.6,0.6,0.9,1c0.7,1,1.1,1.9,1.4,3.1
					c0.3,1.6,2,2.9,1.7,4.6c-0.2,1-1.1,1.5-1.2,2.5c-0.3,3.7-3.2,8.6-7.6,7c-1.2-0.4-2.5-0.5-3.6-1.1c-0.9-0.5-1.5-1.4-2.4-2
					c-2.6-1.9-5.3-4.3-6.2-7.5c-0.3-1,0.1-2-0.1-3C92.7,107.1,92.2,106.5,92.6,105.4z"/>
				<path class="st12" d="M101,139.3c0.1-0.6,0.7-1.1,1.2-1.5c-0.1-0.3-0.2-0.7-0.2-1c-0.1-1,0.5-1.6,1.4-1.9c0.1,0,0.1,0,0.2,0
					c0.1-0.2,0.2-0.4,0.4-0.6c0.3-0.4,0.8-0.5,1.1-0.8c0.2-0.2,0.4-0.4,0.6-0.6c0.5-0.8,1.3-1.3,2.3-1.8c1.4-0.7,2.8-0.6,3.6,0.5
					c0.5,0.3,0.8,0.9,0.8,1.5c0.9,1.9-0.8,4.4-2.2,5.7c-0.5,0.5-1.2,1-1.8,1.5c-0.6,0.5-1.1,1.2-1.7,1.8c-1,0.9-2.6,1.9-3.9,2.2
					c-0.7,0.2-1.4-0.5-1.6-1.2c-0.3-0.2-0.3-0.6,0-1.2C101.1,141,100.8,140.2,101,139.3z"/>
				<g>
					<path class="st13" d="M88.5,75.8c-0.2-2.3-2.8-4.3-4-5.1c-0.3,0-0.6-0.1-1-0.2c0,0.1,0,0.3,0.1,0.3c0,0,4.1,2.4,4.3,5.1
						c0.3,2.8-2.2,72.8-2.3,73.5c0,0.1,0.1,0.3,0.3,0.3l0,0c0.1,0,0.3-0.1,0.3-0.2C86.3,146.5,88.7,78.5,88.5,75.8z"/>
					<path class="st13" d="M92.3,71.1c-1.3,0.8-3.7,2.6-4,4.7c-0.4,2.8-2.2,70.7-2.3,73.6c0,0.1,0.1,0.3,0.3,0.3l0,0
						c0.1,0,0.3-0.1,0.3-0.3c0-0.7,1.8-70.8,2.3-73.5c0.4-2.6,4.6-4.8,4.6-4.8c0.1-0.1,0.2-0.2,0.1-0.3
						C93.1,70.8,92.7,70.9,92.3,71.1z"/>
				</g>
			</g>
			<g class="st14">
				<path class="st15" d="M87.2,81.7c0-0.1-0.2,0-0.2,0.1c0.1,2-0.2,4.2-0.4,6.3c-0.2,2.3-0.3,4.5-0.4,6.8
					c-0.2,5.1-0.3,10.2-0.6,15.3c-0.2,4.3-0.6,8.6-0.7,12.9c-0.1,4.7-0.1,9.3,0,13.9c0,0.1,0.2,0,0.2-0.1c0.1-4.5,0.1-9.1,0.3-13.6
					c0.2-4.6,0.5-9.2,0.8-13.8c0.3-4.8,0.3-9.5,0.5-14.3c0.1-2.6,0.3-5.2,0.4-7.8C87.2,85.6,87.4,83.6,87.2,81.7z"/>
				<path class="st15" d="M84.5,106.5C84.5,106.4,84.4,106.5,84.5,106.5c-0.3,5.7-0.7,11.4-0.8,17c-0.1,2.7,0,5.4-0.1,8.1
					c-0.1,2.6-0.1,5.2,0.3,7.8c0,0.1,0.2,0,0.2-0.1C83.6,128.3,84.3,117.4,84.5,106.5z"/>
				<path class="st15" d="M85.3,139c0-0.1-0.2,0-0.2,0.1c-0.1,2.2,0.2,4.4,0.3,6.6c0,0.1,0.2,0,0.2-0.1
					C85.6,143.4,85.3,141.2,85.3,139z"/>
				<path class="st15" d="M87.1,74.7c0-0.1-0.2,0-0.2,0.1c0,3.2-0.9,6.3-1,9.5c0,0.2,0.3,0,0.3-0.1C86.7,81.1,87.2,77.8,87.1,74.7z"
					/>
				<path class="st15" d="M85.9,87.4c0-0.1-0.2,0-0.2,0.1c-0.4,4.3-1.2,8.7-1.3,13c0,0.2,0.3,0,0.3-0.1C85.1,96,85.9,91.7,85.9,87.4
					z"/>
				<path class="st15" d="M83.5,102.7c-0.2,2.1-0.5,4.2-0.5,6.3c0,0.2,0.3,0,0.3-0.1c0.2-2.1,0.2-4.2,0.3-6.3
					C83.6,102.5,83.5,102.6,83.5,102.7z"/>
				<path class="st15" d="M82.2,126.9c0-0.1-0.2,0-0.2,0.1c-0.2,6.3-0.1,13,1.6,19.1c0,0.1,0.3-0.1,0.3-0.2
					C82.7,139.7,82.2,133.3,82.2,126.9z"/>
			</g>
			<g class="st14">
				<path class="st15" d="M89,81.8c0-0.1,0.2,0,0.2,0.1c-0.2,2-0.1,4.3,0,6.3c0.1,2.3,0.1,4.5,0,6.8c-0.1,5.1-0.3,10.2-0.4,15.3
					c0,4.3,0.1,8.6-0.1,12.9c-0.2,4.7-0.5,9.3-0.9,13.9c0,0.1-0.2,0-0.2-0.1c0.1-4.5,0.4-9.1,0.6-13.6c0.1-4.6,0-9.2,0.1-13.8
					c0-4.8,0.3-9.5,0.4-14.3c0.1-2.6,0.1-5.2,0.1-7.8C88.8,85.6,88.7,83.6,89,81.8z"/>
				<path class="st15" d="M90.2,106.6C90.2,106.5,90.3,106.6,90.2,106.6c0,5.7,0,11.4-0.2,17c-0.1,2.7-0.4,5.4-0.4,8.1
					c-0.1,2.6-0.3,5.2-0.8,7.8c0,0.1-0.2,0-0.2-0.1C89.7,128.5,89.7,117.6,90.2,106.6z"/>
				<path class="st15" d="M87.4,139.1c0-0.1,0.2,0,0.2,0.1c-0.1,2.2-0.4,4.4-0.7,6.6c0,0.1-0.2,0-0.2-0.1
					C86.8,143.4,87.2,141.3,87.4,139.1z"/>
				<path class="st15" d="M89.6,74.8c0-0.1,0.2,0,0.2,0.1c-0.2,3.2,0.5,6.4,0.4,9.5c0,0.2-0.3,0-0.3-0.2
					C89.5,81.2,89.2,77.9,89.6,74.8z"/>
				<path class="st15" d="M90,87.5c0-0.1,0.2,0,0.2,0.1c0.1,4.4,0.7,8.7,0.5,13.1c0,0.2-0.3,0-0.3-0.2C90.2,96.2,89.7,91.8,90,87.5z
					"/>
				<path class="st15" d="M91.5,102.9c0.1,2.1,0.2,4.2,0.1,6.4c0,0.2-0.3,0-0.3-0.2c0-2.1,0.1-4.2,0.1-6.3
					C91.3,102.7,91.5,102.8,91.5,102.9z"/>
				<path class="st15" d="M91.2,127.2c0-0.1,0.2,0,0.2,0.1c-0.2,6.3-0.7,13-2.7,19c-0.1,0.1-0.3-0.1-0.3-0.2
					C90,139.9,90.9,133.5,91.2,127.2z"/>
			</g>
		</g>
	</g>
</g>
</svg>
