<?xml version="1.0" encoding="UTF-8" standalone="no"?>
<!-- Created with Inkscape (http://www.inkscape.org/) -->

<svg
   width="32.313034mm"
   height="32.749866mm"
   viewBox="0 0 32.313034 32.749866"
   version="1.1"
   id="svg5728"
   inkscape:version="1.2.2 (732a01da63, 2022-12-09)"
   sodipodi:docname="playstage_sel.svg"
   xmlns:inkscape="http://www.inkscape.org/namespaces/inkscape"
   xmlns:sodipodi="http://sodipodi.sourceforge.net/DTD/sodipodi-0.dtd"
   xmlns="http://www.w3.org/2000/svg"
   xmlns:svg="http://www.w3.org/2000/svg">
  <sodipodi:namedview
     id="namedview5730"
     pagecolor="#ffffff"
     bordercolor="#000000"
     borderopacity="0.25"
     inkscape:showpageshadow="2"
     inkscape:pageopacity="0.0"
     inkscape:pagecheckerboard="0"
     inkscape:deskcolor="#d1d1d1"
     inkscape:document-units="mm"
     showgrid="false"
     inkscape:zoom="0.46769781"
     inkscape:cx="-666.02835"
     inkscape:cy="262.99033"
     inkscape:window-width="1366"
     inkscape:window-height="705"
     inkscape:window-x="-8"
     inkscape:window-y="-8"
     inkscape:window-maximized="1"
     inkscape:current-layer="layer1" />
  <defs
     id="defs5725" />
  <g
     inkscape:label="Στρώση 1"
     inkscape:groupmode="layer"
     id="layer1"
     transform="translate(-281.97491,-79.230779)">
    <g
       transform="matrix(0.21385968,0,0,0.21385968,282.76619,95.79147)"
       id="g240">
		<g
   id="g238">
			<g
   id="g236">
				<g
   id="Duplicate_Items_Folder_Symbol_4_0_Layer0_0_FILL_00000048482115052319978770000006072974825167757704_">
					<path
   class="st0"
   d="m 146.8,-76.1 c -0.1,-0.1 -0.2,-0.1 -0.3,-0.1 H -3.3 c -0.1,0 -0.3,0.1 -0.3,0.1 -0.1,0.1 -0.1,0.2 -0.1,0.4 V 75.2 c 0,0.1 0.1,0.3 0.1,0.4 0.1,0.1 0.2,0.1 0.3,0.1 h 149.7 c 0.1,0 0.3,-0.1 0.3,-0.1 0.1,-0.1 0.1,-0.2 0.1,-0.4 V -75.7 c 0.1,-0.2 0.1,-0.3 0,-0.4 M -2.8,-75.2 H 146 V 74.7 H -2.8 Z"
   id="path225"
   style="fill:#444444" />

					<path
   class="st1"
   d="M 146,-75.2 H -2.8 V 74.7 H 146 V -75.2 m -0.8,0.5 v 0.2 l 0.2,-0.2 V 73.9 H -1.8 -2 V -74.7 Z"
   id="path227"
   style="fill:#f8e8ce" />

					<path
   class="st2"
   d="m 138.8,-67.9 6.4,-6.5 v -0.2 H -2 V 73.9 h 0.2 L 4.6,67.5 V -67.9 Z"
   id="path229"
   style="fill:#ffffff" />

					<path
   class="st3"
   d="m 138.8,-67.9 v 0 L 138.7,67.2 H 5 l -0.3,0.3 -6.4,6.4 H 145.5 V -74.7 l -0.2,0.2 z"
   id="path231"
   style="fill:#e1d3b8" />

					<path
   class="st4"
   d="m 138.7,-67.8 v 0 L 4.7,-67.9 V 67.5 L 5,67.2 h 133.7 z"
   id="path233"
   style="fill:#f1e8de" />

				</g>

			</g>

		</g>

	</g>
    <g
       transform="matrix(0.21385968,0,0,0.21385968,282.62067,95.526887)"
       id="g580">
		<g
   id="g578">
			<g
   id="g576">
				<g
   id="Duplicate_Items_Folder_Symbol_4_0_Layer0_0_FILL_00000095322087089564154990000016987976499450678191_">
					<path
   class="st0"
   d="m 148,-76.1 c -0.1,-0.1 -0.2,-0.1 -0.3,-0.1 H -2.1 c -0.1,0 -0.3,0.1 -0.3,0.1 -0.1,0.1 -0.1,0.2 -0.1,0.4 V 75.2 c 0,0.1 0.1,0.3 0.1,0.4 0.1,0.1 0.2,0.1 0.3,0.1 h 149.7 c 0.1,0 0.3,-0.1 0.3,-0.1 0.1,-0.1 0.1,-0.2 0.1,-0.4 V -75.7 c 0.1,-0.2 0.1,-0.3 0,-0.4 M -1.6,-75.2 H 147.1 V 74.7 H -1.6 Z"
   id="path565"
   style="fill:#444444" />

					<path
   class="st1"
   d="M 147.1,-75.2 H -1.6 V 74.7 H 147.1 V -75.2 m -0.7,0.5 v 0.2 l 0.2,-0.2 V 73.9 H -0.6 -0.8 V -74.7 Z"
   id="path567"
   style="fill:#f8e8ce" />

					<path
   class="st2"
   d="m 140,-67.9 6.4,-6.5 v -0.2 H -0.9 V 73.9 h 0.2 L 5.7,67.5 V -67.9 Z"
   id="path569"
   style="fill:#ffffff" />

					<path
   class="st3"
   d="m 140,-67.9 v 0 L 139.9,67.2 H 6.2 l -0.3,0.3 -6.4,6.4 H 146.7 V -74.7 l -0.2,0.2 z"
   id="path571"
   style="fill:#e1d3b8" />

					<path
   class="st5"
   d="m 139.9,-67.8 v 0 L 5.8,-67.9 V 67.5 l 0.3,-0.3 h 133.7 z"
   id="path573"
   style="fill:#93e57c" />

				</g>

			</g>

		</g>

	</g>
    <g
       id="g2927"
       transform="matrix(0.26458333,0,0,0.26458333,120.5237,-47.36134)">
	<g
   id="g2799">
		<path
   class="st75"
   d="m 693.5,502.5 c -3.5,-2.8 -8.5,-2.3 -11.3,1.1 -2.8,3.4 -2.2,8.4 1.3,11.2 3.5,2.8 8.5,2.3 11.3,-1.1 2.7,-3.3 2.2,-8.4 -1.3,-11.2 z"
   id="path2797"
   style="fill:#be7c44" />

	</g>

	<g
   id="g2803">
		<path
   class="st75"
   d="m 649.4,502.5 c -3.5,2.8 -4,7.8 -1.3,11.2 2.8,3.4 7.8,3.9 11.3,1.1 3.5,-2.8 4,-7.8 1.3,-11.2 -2.8,-3.4 -7.8,-3.9 -11.3,-1.1 z"
   id="path2801"
   style="fill:#be7c44" />

	</g>

	<g
   id="g2807">
		<path
   class="st76"
   d="m 691.8,504.7 c -2.2,-1.8 -5.5,-1.5 -7.3,0.7 -1.8,2.2 -1.4,5.5 0.8,7.3 2.2,1.8 5.5,1.5 7.3,-0.7 1.8,-2.2 1.4,-5.5 -0.8,-7.3 z"
   id="path2805"
   style="fill:#a65c3a" />

	</g>

	<g
   id="g2811">
		<path
   class="st76"
   d="m 651.2,504.7 c -2.2,1.8 -2.6,5.1 -0.8,7.3 1.8,2.2 5.1,2.5 7.3,0.7 2.2,-1.8 2.6,-5.1 0.8,-7.3 -1.8,-2.2 -5.1,-2.5 -7.3,-0.7 z"
   id="path2809"
   style="fill:#a65c3a" />

	</g>

	<g
   id="g2815">
		<path
   class="st75"
   d="m 642.5,541 c -3.6,3.1 -6.8,7.8 -3.6,12.3 1.2,1.6 4.3,2.9 7.8,1.3 7.2,-3.1 16.5,-12.2 16.5,-12.2 l -1.4,-10 c -0.1,0 -12.5,2.6 -19.3,8.6 z"
   id="path2813"
   style="fill:#be7c44" />

	</g>

	<g
   class="st77"
   id="g2819"
   style="opacity:0.32">
		<path
   class="st78"
   d="m 654.9,534.4 c -2.7,3.3 -4.5,8.7 -3.8,17.8 6.1,-3.9 12.1,-9.7 12.1,-9.7 l -1.4,-10 c -0.1,-0.1 -3,0.5 -6.9,1.9 z"
   id="path2817"
   style="fill:#9a7661" />

	</g>

	<g
   id="g2823">
		<path
   class="st75"
   d="m 700.4,541 c -6.8,-6 -19.3,-8.6 -19.3,-8.6 l -1.4,10 c 0,0 9.3,9 16.5,12.2 3.5,1.5 6.6,0.3 7.8,-1.3 3.2,-4.5 0,-9.2 -3.6,-12.3 z"
   id="path2821"
   style="fill:#be7c44" />

	</g>

	<g
   class="st77"
   id="g2827"
   style="opacity:0.32">
		<path
   class="st78"
   d="m 681.2,532.4 -1.4,10 c 0,0 5.9,5.7 11.9,9.7 0.7,-9 -1.1,-14.5 -3.8,-17.7 -3.8,-1.4 -6.7,-2 -6.7,-2 z"
   id="path2825"
   style="fill:#9a7661" />

	</g>

	<g
   id="g2831">
		<path
   class="st75"
   d="m 671.5,504.4 c -11.9,0 -21.5,7 -21.5,15.6 0,8.6 9.6,15.6 21.5,15.6 11.9,0 21.5,-7 21.5,-15.6 0,-8.6 -9.6,-15.6 -21.5,-15.6 z"
   id="path2829"
   style="fill:#be7c44" />

	</g>

	<g
   class="st77"
   id="g2835"
   style="opacity:0.32">
		<path
   class="st75"
   d="m 692.8,519 c -4,3.4 -7.9,6.3 -13.1,7.4 -7.1,1.5 -14.5,0.8 -20.9,-2.9 -3.4,-2 -6,-4.5 -8.1,-7.5 -0.5,1.3 -0.7,2.6 -0.7,3.9 0,8.6 9.6,15.6 21.5,15.6 11.9,0 21.5,-7 21.5,-15.6 0,-0.4 0,-0.8 -0.1,-1.1 0,0.1 -0.1,0.2 -0.1,0.2 z"
   id="path2833"
   style="fill:#be7c44" />

	</g>

	<g
   id="g2839">
		<path
   class="st76"
   d="m 677,510.5 c -2.4,0 -4.4,1.2 -5.6,3.1 -1.2,-1.9 -3.2,-3.1 -5.6,-3.1 -3.6,0 -6.6,3 -6.6,6.6 0,3.6 3,6.6 6.6,6.6 2.4,0 4.4,-1.2 5.6,-3.1 1.2,1.9 3.2,3.1 5.6,3.1 3.6,0 6.6,-3 6.6,-6.6 0,-3.6 -2.9,-6.6 -6.6,-6.6 z"
   id="path2837"
   style="fill:#a65c3a" />

	</g>

	<g
   id="g2843">
		<path
   class="st75"
   d="m 689.1,555.9 c 3.1,-28.8 -17.6,-24 -17.6,-24 0,0 -20.7,-4.8 -17.6,24 l -9.3,7.5 c 0,0 -0.7,12.9 13.5,10 l 5.7,-9.3 7.8,0.3 7.8,-0.3 5.7,9.3 c 14.1,3 13.5,-10 13.5,-10 z"
   id="path2841"
   style="fill:#be7c44" />

	</g>

	<g
   id="g2847">
		<path
   class="st75"
   d="m 689.1,555.9 c 3.1,-28.8 -17.6,-24 -17.6,-24 0,0 -20.7,-4.8 -17.6,24 l -9.3,7.5 c 0,0 -0.7,12.9 13.5,10 l 5.7,-9.3 7.8,0.3 7.8,-0.3 5.7,9.3 c 14.1,3 13.5,-10 13.5,-10 z"
   id="path2845"
   style="fill:#be7c44" />

	</g>

	<g
   class="st77"
   id="g2851"
   style="opacity:0.32">
		<path
   class="st78"
   d="m 698.4,563.5 -9.3,-7.5 c 0.4,-3.3 0.4,-6.1 0.2,-8.6 -0.2,1.3 -0.7,2.6 -1.3,3.9 -2.5,5.2 -7,9.7 -13,10.7 -6.7,1.1 -10.8,-1.2 -16.3,-4.9 -3.8,-2.6 -5.2,-7 -4.9,-11.5 -0.4,2.9 -0.5,6.3 0,10.4 l -9.3,7.5 c 0,0 -0.7,12.9 13.5,10 l 5.7,-9.3 7.8,0.3 7.8,-0.3 5.7,9.3 c 14.1,2.9 13.4,-10 13.4,-10 z"
   id="path2849"
   style="fill:#9a7661" />

	</g>

	<g
   id="g2855">
		<path
   class="st79"
   d="m 653.9,561.8 c -5.1,-3.4 -11.4,-2.7 -14.2,1.5 -2.8,4.2 -0.9,10.3 4.2,13.7 5.1,3.4 11.4,2.7 14.2,-1.5 2.8,-4.2 0.9,-10.4 -4.2,-13.7 z"
   id="path2853"
   style="fill:#c38040" />

	</g>

	<g
   id="g2859">
		<path
   class="st79"
   d="m 689,561.8 c -5.1,3.4 -6.9,9.5 -4.2,13.7 2.8,4.2 9.1,4.8 14.2,1.5 5.1,-3.4 6.9,-9.5 4.2,-13.7 -2.8,-4.2 -9.2,-4.9 -14.2,-1.5 z"
   id="path2857"
   style="fill:#c38040" />

	</g>

	<g
   id="g2863">
		<path
   class="st76"
   d="m 652.5,565 c -3.7,-2.4 -8.3,-2 -10.3,1.1 -2,3 -0.7,7.4 3,9.9 3.7,2.4 8.3,2 10.3,-1.1 2.1,-3.1 0.7,-7.5 -3,-9.9 z"
   id="path2861"
   style="fill:#a65c3a" />

	</g>

	<g
   id="g2867">
		<path
   class="st76"
   d="m 690.4,565 c -3.7,2.4 -5,6.9 -3,9.9 2,3 6.6,3.5 10.3,1.1 3.7,-2.4 5,-6.9 3,-9.9 -2.1,-3.1 -6.7,-3.6 -10.3,-1.1 z"
   id="path2865"
   style="fill:#a65c3a" />

	</g>

	<g
   id="g2885">
		<g
   id="g2871">
			<path
   class="st44"
   d="m 663.2,535.9 c 1.1,-0.3 6.1,0.9 8.1,2.3 -3,-2.3 -10.6,-7.6 -12.1,-4.5 -2.4,5.1 1.4,18 12.1,4.5 0,0 0,0 -0.1,-0.1 -8,8.2 -10.4,-1.6 -8,-2.2 z"
   id="path2869"
   style="fill:#e72425" />

		</g>

		<g
   id="g2875">
			<path
   class="st44"
   d="m 671.5,538.2 c 1.9,-1.1 6.4,-2 7.4,-1.8 2.1,0.5 0,8.3 -7.4,1.8 -0.1,0.1 -0.1,0.1 0,0 9.7,10.8 13.1,0.5 11,-3.6 -1.4,-2.4 -8.3,1.8 -11,3.6 z"
   id="path2873"
   style="fill:#e72425" />

		</g>

		<g
   id="g2879">
			<polygon
   class="st44"
   points="664.5,545.3 668.5,548.3 671.3,538.2 "
   id="polygon2877"
   style="fill:#e72425" />

		</g>

		<g
   id="g2883">
			<polygon
   class="st44"
   points="671.4,538.2 674.3,548 678.5,545 "
   id="polygon2881"
   style="fill:#e72425" />

		</g>

	</g>

	<g
   id="g2889">
		<path
   class="st80"
   d="m 671.5,518.4 c -6.9,0 -12.5,3.9 -12.5,8.6 0,4.8 5.6,8.6 12.5,8.6 6.9,0 12.5,-3.9 12.5,-8.6 0,-4.8 -5.6,-8.6 -12.5,-8.6 z"
   id="path2887"
   style="fill:#fdca97" />

	</g>

	<g
   id="g2925">
		<g
   id="g2893">
			<path
   class="st81"
   d="m 665.8,514.7 c -1.3,0 -2.4,1.1 -2.4,2.4 0,1.3 1.1,2.4 2.4,2.4 1.3,0 2.4,-1.1 2.4,-2.4 0.1,-1.3 -1,-2.4 -2.4,-2.4 z"
   id="path2891"
   style="fill:#4f4840" />

		</g>

		<g
   id="g2897">
			<path
   class="st81"
   d="m 677.1,514.7 c -1.3,0 -2.4,1.1 -2.4,2.4 0,1.3 1.1,2.4 2.4,2.4 1.3,0 2.4,-1.1 2.4,-2.4 0,-1.3 -1.1,-2.4 -2.4,-2.4 z"
   id="path2895"
   style="fill:#4f4840" />

		</g>

		<g
   id="g2913">
			<g
   id="g2903">
				<g
   id="g2901">
					<path
   class="st81"
   d="m 671.5,531.4 c -5.2,0 -7.3,-3.7 -7.3,-3.8 l -1,0.5 c 0.1,0.2 2.4,4.4 8.3,4.4 5.9,0 8.2,-4.2 8.3,-4.4 l -1,-0.5 c 0,0 -2.1,3.8 -7.3,3.8 z"
   id="path2899"
   style="fill:#4f4840" />

				</g>

			</g>

			<g
   id="g2907">
				<path
   class="st81"
   d="m 679.3,526.4 c -0.8,0 -1.4,0.6 -1.4,1.4 0,0.8 0.6,1.4 1.4,1.4 0.8,0 1.4,-0.6 1.4,-1.4 0,-0.8 -0.7,-1.4 -1.4,-1.4 z"
   id="path2905"
   style="fill:#4f4840" />

			</g>

			<g
   id="g2911">
				<path
   class="st81"
   d="m 663.6,526.4 c -0.8,0 -1.4,0.6 -1.4,1.4 0,0.8 0.6,1.4 1.4,1.4 0.8,0 1.4,-0.6 1.4,-1.4 0.1,-0.8 -0.6,-1.4 -1.4,-1.4 z"
   id="path2909"
   style="fill:#4f4840" />

			</g>

		</g>

		<g
   id="g2919">
			<g
   id="g2917">
				<rect
   x="670.90002"
   y="520.59998"
   class="st81"
   width="1.1"
   height="15"
   id="rect2915"
   style="fill:#4f4840" />

			</g>

		</g>

		<g
   id="g2923">
			<path
   class="st81"
   d="m 671.4,517.5 c -3.5,0 -6.4,1.7 -6.4,3.9 0,2.2 2.9,3.9 6.4,3.9 3.5,0 6.4,-1.7 6.4,-3.9 -0.1,-2.1 -2.9,-3.9 -6.4,-3.9 z"
   id="path2921"
   style="fill:#4f4840" />

		</g>

	</g>

</g>
  </g>
</svg>
