<?xml version="1.0" encoding="UTF-8" standalone="no"?>
<!-- Created with Inkscape (http://www.inkscape.org/) -->

<svg
   width="32.20192mm"
   height="32.485287mm"
   viewBox="0 0 32.20192 32.485287"
   version="1.1"
   id="svg26683"
   inkscape:version="1.2.2 (732a01da63, 2022-12-09)"
   sodipodi:docname="playground_sel.svg"
   xmlns:inkscape="http://www.inkscape.org/namespaces/inkscape"
   xmlns:sodipodi="http://sodipodi.sourceforge.net/DTD/sodipodi-0.dtd"
   xmlns="http://www.w3.org/2000/svg"
   xmlns:svg="http://www.w3.org/2000/svg">
  <sodipodi:namedview
     id="namedview26685"
     pagecolor="#ffffff"
     bordercolor="#000000"
     borderopacity="0.25"
     inkscape:showpageshadow="2"
     inkscape:pageopacity="0.0"
     inkscape:pagecheckerboard="0"
     inkscape:deskcolor="#d1d1d1"
     inkscape:document-units="mm"
     showgrid="false"
     inkscape:zoom="0.46769781"
     inkscape:cx="313.23645"
     inkscape:cy="-168.91249"
     inkscape:window-width="1366"
     inkscape:window-height="705"
     inkscape:window-x="-8"
     inkscape:window-y="-8"
     inkscape:window-maximized="1"
     inkscape:current-layer="layer1" />
  <defs
     id="defs26680" />
  <g
     inkscape:label="Στρώση 1"
     inkscape:groupmode="layer"
     id="layer1"
     transform="translate(-22.609102,-193.63736)">
    <g
       transform="matrix(0.21385968,0,0,0.21385968,22.138611,209.93347)"
       id="g274">
		<g
   id="g272">
			<g
   id="g270">
				<g
   id="Duplicate_Items_Folder_Symbol_4_0_Layer0_0_FILL_00000020380242139765454840000014868946191386986166_">
					<path
   class="st0"
   d="m 152.7,-76.1 c -0.1,-0.1 -0.2,-0.1 -0.3,-0.1 H 2.6 c -0.1,0 -0.3,0.1 -0.3,0.1 -0.1,0.1 -0.1,0.2 -0.1,0.4 V 75.2 c 0,0.1 0.1,0.3 0.1,0.4 0.1,0.1 0.2,0.1 0.3,0.1 h 149.7 c 0.1,0 0.3,-0.1 0.3,-0.1 0.1,-0.1 0.1,-0.2 0.1,-0.4 V -75.7 c 0.1,-0.2 0.1,-0.3 0,-0.4 M 3.1,-75.2 H 151.8 V 74.7 H 3.1 Z"
   id="path259"
   style="fill:#444444" />

					<path
   class="st1"
   d="M 151.8,-75.2 H 3.1 V 74.7 H 151.8 V -75.2 m -0.7,0.5 v 0.2 l 0.2,-0.2 V 73.9 H 4.1 3.8 V -74.7 Z"
   id="path261"
   style="fill:#f8e8ce" />

					<path
   class="st2"
   d="m 144.7,-67.9 6.4,-6.5 v -0.2 H 3.8 V 73.9 H 4 l 6.4,-6.4 V -67.9 Z"
   id="path263"
   style="fill:#ffffff" />

					<path
   class="st3"
   d="m 144.7,-67.9 v 0 L 144.6,67.2 H 10.9 l -0.3,0.3 -6.4,6.4 H 151.4 V -74.7 l -0.2,0.2 z"
   id="path265"
   style="fill:#e1d3b8" />

					<path
   class="st4"
   d="m 144.6,-67.8 v 0 L 10.5,-67.9 V 67.5 l 0.3,-0.3 h 133.7 v -135 z"
   id="path267"
   style="fill:#f1e8de" />

				</g>

			</g>

		</g>

	</g>
    <g
       id="g795"
       transform="matrix(0.26458333,0,0,0.26458333,-10.365451,130.38649)">
	<polygon
   class="st14"
   points="149.9,336.6 155.3,336.6 155.3,336.2 149.9,336.2 "
   id="polygon685"
   style="fill:#ff6464" />

	<polygon
   class="st14"
   points="150.9,333.6 156.4,333.6 156.4,333.2 150.9,333.2 "
   id="polygon687"
   style="fill:#ff6464" />

	<polygon
   class="st14"
   points="151.5,330.6 156.9,330.6 156.9,330.2 151.5,330.2 "
   id="polygon689"
   style="fill:#ff6464" />

	<polygon
   class="st14"
   points="152.4,327.7 157.8,327.7 157.8,327.3 152.4,327.3 "
   id="polygon691"
   style="fill:#ff6464" />

	<polygon
   class="st14"
   points="153.1,324.7 158.6,324.7 158.6,324.3 153.1,324.3 "
   id="polygon693"
   style="fill:#ff6464" />

	<polygon
   class="st15"
   points="153.8,321.7 159.3,321.7 159.3,321.3 153.8,321.3 "
   id="polygon695"
   style="fill:#f24949" />

	<polygon
   class="st15"
   points="154.6,318.8 160,318.8 160,318.4 154.6,318.4 "
   id="polygon697"
   style="fill:#f24949" />

	<polygon
   class="st15"
   points="155.3,315.8 160.8,315.8 160.8,315.4 155.3,315.4 "
   id="polygon699"
   style="fill:#f24949" />

	<polygon
   class="st15"
   points="156.1,312.8 161.5,312.8 161.5,312.4 156.1,312.4 "
   id="polygon701"
   style="fill:#f24949" />

	<polygon
   class="st15"
   points="156.7,309.9 162.2,309.9 162.2,309.4 156.7,309.4 "
   id="polygon703"
   style="fill:#f24949" />

	<polygon
   class="st15"
   points="157.4,306.9 162.8,306.9 162.8,306.5 157.4,306.5 "
   id="polygon705"
   style="fill:#f24949" />

	<polygon
   class="st15"
   points="158,303.9 163.5,303.9 163.5,303.5 158,303.5 "
   id="polygon707"
   style="fill:#f24949" />

	<polygon
   class="st15"
   points="158.7,300.9 164.1,300.9 164.1,300.5 158.7,300.5 "
   id="polygon709"
   style="fill:#f24949" />

	<polygon
   class="st16"
   points="165.3,274.1 165,274.5 167.9,277.2 168.1,276.9 "
   id="polygon711"
   style="fill:#ffa748" />

	<polygon
   class="st16"
   points="178.8,274.2 178.6,274.5 181.9,277.2 182.2,276.9 "
   id="polygon713"
   style="fill:#ffa748" />

	<polygon
   class="st16"
   points="169.9,274.2 169.6,274.5 173,277.2 173.2,276.9 "
   id="polygon715"
   style="fill:#ffa748" />

	
		<rect
   x="172.60001"
   y="275.5"
   transform="matrix(0.6246,-0.781,0.781,0.6246,-149.706,239.9637)"
   class="st16"
   width="4.3000002"
   height="0.40000001"
   id="rect717"
   style="fill:#ffa748" />

	
		<rect
   x="167.7"
   y="275.5"
   transform="matrix(0.6245,-0.781,0.781,0.6245,-151.5333,236.1888)"
   class="st16"
   width="4.3000002"
   height="0.40000001"
   id="rect719"
   style="fill:#ffa748" />

	
		<rect
   x="157.8"
   y="275.5"
   transform="matrix(0.6245,-0.781,0.781,0.6245,-155.2664,228.4241)"
   class="st16"
   width="4.3000002"
   height="0.40000001"
   id="rect721"
   style="fill:#ffa748" />

	<polygon
   class="st16"
   points="174.9,296.5 176.6,296.5 173.1,271.8 172.5,271.8 "
   id="polygon723"
   style="fill:#ffa748" />

	<polygon
   class="st15"
   points="155.6,339.5 165.1,297.3 164.7,297.3 154.3,339.5 "
   id="polygon725"
   style="fill:#f24949" />

	<polygon
   class="st14"
   points="149.7,339.5 159.7,297.3 159.4,297.3 148.4,339.5 "
   id="polygon727"
   style="fill:#ff6464" />

	<path
   class="st15"
   d="m 154.8,318.2 4.9,-20.9 h -0.3 L 155,314 c 0,1.3 -0.1,2.7 -0.2,4.2 z"
   id="path729"
   style="fill:#f24949" />

	<rect
   x="159.3"
   y="318.20001"
   class="st17"
   width="8.6000004"
   height="0.60000002"
   id="rect731"
   style="fill:#993d7d" />

	<polygon
   class="st17"
   points="161.1,296.4 159.1,296.4 158.5,339.5 159.2,339.5 "
   id="polygon733"
   style="fill:#993d7d" />

	<polygon
   class="st17"
   points="174.9,296.4 176.9,296.4 184.4,339.5 183.7,339.5 "
   id="polygon735"
   style="fill:#993d7d" />

	<rect
   x="167.7"
   y="318.20001"
   class="st6"
   width="20.299999"
   height="0.60000002"
   id="rect737"
   style="fill:#bf5599" />

	<polygon
   class="st6"
   points="183.2,296.4 185.1,296.4 192.6,339.5 191.9,339.5 "
   id="polygon739"
   style="fill:#bf5599" />

	<path
   class="st17"
   d="m 186.3,303.3 -1.2,-6.9 h -1.9 l 2.1,10.5 c 0.2,-1.7 0.5,-3 1,-3.6 z"
   id="path741"
   style="fill:#993d7d" />

	<polygon
   class="st18"
   points="160.9,299.1 184.1,299.1 184.1,297.5 159.4,297.5 "
   id="polygon743"
   style="fill:#4c263a" />

	<polygon
   class="st6"
   points="170.2,296.4 168.3,296.4 166.4,339.5 167.1,339.5 "
   id="polygon745"
   style="fill:#bf5599" />

	<path
   class="st17"
   d="m 169.7,303.8 0.5,-7.4 h -1.9 l -0.4,8.8 c 0.6,-0.7 1.2,-1.2 1.8,-1.4 z"
   id="path747"
   style="fill:#993d7d" />

	<rect
   x="167.5"
   y="296.20001"
   class="st8"
   width="18"
   height="2.0999999"
   id="rect749"
   style="fill:#ffd45c" />

	<rect
   x="158.3"
   y="296.20001"
   class="st16"
   width="9.6999998"
   height="2.0999999"
   id="rect751"
   style="fill:#ffa748" />

	<rect
   x="158.10001"
   y="273"
   class="st18"
   width="23.9"
   height="1.6"
   id="rect753"
   style="fill:#4c263a" />

	<polygon
   class="st8"
   points="183.7,296.5 185.4,296.5 181.9,271.8 181.3,271.8 "
   id="polygon755"
   style="fill:#ffd45c" />

	<path
   class="st16"
   d="m 182.8,277.8 -0.9,-6 h -0.8 l 0.9,7.3 c 0.2,-0.4 0.5,-0.9 0.8,-1.3 z"
   id="path757"
   style="fill:#ffa748" />

	<polygon
   class="st8"
   points="169.9,296.5 168.2,296.5 167.7,271.8 168.3,271.8 "
   id="polygon759"
   style="fill:#ffd45c" />

	<path
   class="st16"
   d="m 168.8,278.8 -0.4,-7 h -0.9 l 0.3,8.1 c 0.3,-0.5 0.6,-0.8 1,-1.1 z"
   id="path761"
   style="fill:#ffa748" />

	<polygon
   class="st16"
   points="160,296.5 158.4,296.5 157.9,272.1 158.6,272.1 "
   id="polygon763"
   style="fill:#ffa748" />

	<polygon
   class="st19"
   points="179.1,272.1 170.1,259.9 157,272.1 157,274.1 179.1,274.1 "
   id="polygon765"
   style="fill:#e54141" />

	<polygon
   class="st20"
   points="177.6,296.2 180.3,296.2 178.8,294 177.6,294 "
   id="polygon767"
   style="fill:#6fd8dd" />

	<path
   class="st20"
   d="m 207.5,329.8 c -10.3,-8.4 -21.2,-23.1 -26.6,-35.7 l -2.1,-0.2 c 5,12.3 12.5,24.2 22,33.9 12.8,13 27.4,11.7 35.4,11.7 v -2.3 c -9,-0.1 -21.1,-1.2 -28.7,-7.4 z"
   id="path769"
   style="fill:#6fd8dd" />

	<path
   class="st21"
   d="m 204.6,329.9 c -9.8,-8 -18.9,-21.9 -24.5,-34.1 H 176 c 5,11.6 12.5,22.9 21.6,32.1 12.8,13 27.4,11.7 35.4,11.7 v -0.4 c -9,-0.1 -20.8,-3.1 -28.4,-9.3 z"
   id="path771"
   style="fill:#8be1ea" />

	<g
   id="g777">
		<path
   class="st22"
   d="m 184.5,304.4 c -1.6,-2.9 -3.1,-5.8 -4.4,-8.6 H 176 c 3.2,7.5 7.5,14.8 12.5,21.5 z"
   id="path773"
   style="fill:#9ff3f7" />

		<path
   class="st22"
   d="m 209.2,333 1.1,3.5 c 8.9,3.7 17.3,3 22.8,3 v -0.4 c -7.5,0 -16.7,-2 -23.9,-6.1 z"
   id="path775"
   style="fill:#9ff3f7" />

	</g>

	<path
   class="st23"
   d="m 201.2,329.8 c -9.9,-8.4 -20.4,-23.1 -25.6,-35.7 l -2,-0.2 c 4.8,12.3 12,24.2 21.2,33.9 12.4,13 26.4,11.7 34.1,11.7 v -1.9 c -8.7,0 -20.3,-1.6 -27.7,-7.8 z"
   id="path779"
   style="fill:#5cbac4" />

	<polygon
   class="st24"
   points="183.3,272.1 170.1,259.9 168.1,272.1 168.1,274.1 183.3,274.1 "
   id="polygon781"
   style="fill:#ff5555" />

	<polygon
   class="st23"
   points="172.4,296.2 175.1,296.2 173.6,294 172.4,294 "
   id="polygon783"
   style="fill:#5cbac4" />

	<rect
   x="159.5"
   y="296.20001"
   class="st8"
   width="8.8000002"
   height="0.5"
   id="rect785"
   style="fill:#ffd45c" />

	<polygon
   class="st19"
   points="177.2,272.5 167.3,271.8 167,272.5 "
   id="polygon787"
   style="fill:#e54141" />

	<polygon
   class="st25"
   points="169.7,260.6 157.7,271.9 159.9,271.6 "
   id="polygon789"
   style="fill:#f44e4e" />

	<polygon
   class="st12"
   points="136.9,339.4 241.6,339.4 207.3,342.8 185.8,343.2 150.8,341.6 "
   id="polygon791"
   style="fill:#d1d143" />

	<path
   class="st13"
   d="m 241.1,339.4 h -97.6 c 20.3,1.5 82.5,2.2 97.6,0 z"
   id="path793"
   style="fill:#a3a02e" />

</g>
  </g>
</svg>
