<?xml version="1.0" encoding="utf-8"?>
<!-- Generator: Adobe Illustrator 24.0.3, SVG Export Plug-In . SVG Version: 6.00 Build 0)  -->
<svg version="1.1" id="Layer_1" xmlns="http://www.w3.org/2000/svg" xmlns:xlink="http://www.w3.org/1999/xlink" x="0px" y="0px"
	 viewBox="0 0 131 123" style="enable-background:new 0 0 131 123;" xml:space="preserve">
<style type="text/css">
	.st0{fill:#CCE156;}
	.st1{fill:#141414;}
</style>
<path class="st0" d="M123.3,74.4c7.1-18.7,8.1-48.8-18.9-59.4C77.5,4.2,17.1,8.9,2.8,48.9C-10.3,85.4,88.1,168.6,123.3,74.4z"/>
<g transform="matrix( 1, 0, 0, 1, 0,0) ">
	<g transform="matrix( 1, 0, 0, 1, 69.35,63.15) ">
		<g transform="matrix( 1, 0, 0, 1, 0,0) ">
			<g>
				<g id="Symbol_3_0_Layer0_0_FILL">
					<path class="st1" d="M17.1,32.1V10.7h-34.2v21.4H17.1 M12.9,23.5v4.2h-25.7v-4.2H12.9 M12.9,14.9v4.3h-25.7v-4.3H12.9
						 M31.6-16.5c-1.8-1.9-3.8-2.8-5.9-2.8h-4.3v12.8h-42.8v-12.8h-4.3c-2.1,0-4,0.9-5.8,2.8c-1.9,1.7-2.8,3.6-2.8,5.8v21.4
						c0,2.1,0.9,4.1,2.8,6c1.7,1.7,3.6,2.5,5.8,2.5h4.3V6.4h42.8v12.8h4.3c2.1,0,4.1-0.9,5.9-2.5c1.7-1.9,2.6-3.9,2.6-6v-21.4
						C34.2-12.8,33.4-14.8,31.6-16.5 M17.1-10.7v-21.4h-34.2v21.4H17.1z"/>
				</g>
			</g>
		</g>
	</g>
</g>
</svg>
