<?xml version="1.0" encoding="UTF-8" standalone="no"?>
<!-- Generator: Adobe Illustrator 27.4.0, SVG Export Plug-In . SVG Version: 6.00 Build 0)  -->

<svg
   version="1.1"
   id="svg2121"
   inkscape:version="1.2.2 (732a01da63, 2022-12-09)"
   sodipodi:docname="recycling.svg"
   x="0px"
   y="0px"
   viewBox="0 0 850.85004 481.67905"
   xml:space="preserve"
   width="850.85004"
   height="481.67905"
   xmlns:inkscape="http://www.inkscape.org/namespaces/inkscape"
   xmlns:sodipodi="http://sodipodi.sourceforge.net/DTD/sodipodi-0.dtd"
   xmlns:xlink="http://www.w3.org/1999/xlink"
   xmlns="http://www.w3.org/2000/svg"
   xmlns:svg="http://www.w3.org/2000/svg"><defs
   id="defs1004">
	
	
	
	
	
	
	
	
	
	
	
	
	
	
	
	
	
	
	
	
	
	
	
	
	
	
	
	
	
	
	
	
	
	
	
</defs><sodipodi:namedview
   id="namedview1002"
   pagecolor="#ffffff"
   bordercolor="#000000"
   borderopacity="0.25"
   inkscape:showpageshadow="2"
   inkscape:pageopacity="0.0"
   inkscape:pagecheckerboard="0"
   inkscape:deskcolor="#d1d1d1"
   showgrid="false"
   inkscape:zoom="0.87354409"
   inkscape:cx="425.27905"
   inkscape:cy="338.84952"
   inkscape:window-width="1366"
   inkscape:window-height="705"
   inkscape:window-x="-8"
   inkscape:window-y="-8"
   inkscape:window-maximized="1"
   inkscape:current-layer="svg2121" />
<style
   type="text/css"
   id="style2">
	.st0{fill:#444444;}
	.st1{fill:#F8E8CE;}
	.st2{fill:#FFFFFF;}
	.st3{fill:#E1D3B8;}
	.st4{fill:#F1E8DE;}
	.st5{fill:#DD2A2A;}
	.st6{fill:#C9A200;}
	.st7{fill:#57DFFF;}
	.st8{fill:#4065FF;}
	.st9{fill:#55C642;}
	.st10{fill:#E1E0F0;}
	.st11{fill:#CDD5EC;}
	.st12{fill:#D4D3E2;}
	.st13{fill:#EC4042;}
	.st14{fill:#EF5351;}
	.st15{fill:#F9EDCD;}
	.st16{fill:#E0D5B1;}
	.st17{fill:#EADFBA;}
	.st18{fill:#BDAF84;}
	.st19{fill:#CFD0D2;}
	.st20{fill:#A6A7AA;}
	.st21{fill:#EBECEC;}
	.st22{fill:#808284;}
	.st23{fill:#949699;}
	.st24{fill:#6E6F71;}
	.st25{fill:#BFC1C3;}
	.st26{fill:#B0B1B2;}
	.st27{fill:#C6C7C8;}
	.st28{fill:#DDDDDC;}
	.st29{fill:#CCCBCA;}
	.st30{fill:#F2F2F2;}
	.st31{fill:#E9313B;}
	.st32{fill:#CF2334;}
	.st33{fill:#F27E88;}
	.st34{fill:#52ADC5;}
	.st35{fill:#A6D3E2;}
	.st36{fill:#74C5DE;}
	.st37{opacity:0.6;fill:#FFFFFF;}
	.st38{fill:#C0DCE4;}
	.st39{fill:#58BBD5;}
	.st40{fill:#FFC20D;}
	.st41{fill:#ECA619;}
	.st42{fill:#FFD200;}
	.st43{fill:#FFF7AB;}
	.st44{fill:#FFF79E;}
	.st45{fill:#F7AF19;}
	.st46{fill:#E8931C;}
	.st47{opacity:0.8;fill:#FFFFFF;}
	.st48{fill:#B06C36;}
	.st49{fill:#96582B;}
	.st50{fill:#D39155;}
	.st51{fill:#C5834A;}
	.st52{fill:#E9B886;}
	.st53{fill:#E0A870;}
	.st54{fill:#A26332;}
	.st55{fill:#F3E6CF;}
	.st56{fill:#D8BB8A;}
	.st57{fill:#F4E1C1;}
	.st58{fill:#EB2027;}
	.st59{fill:#C61D23;}
	.st60{fill:#A51519;}
	.st61{fill:#F2704B;}
	.st62{fill:#EB2026;}
	.st63{fill:#647329;}
	.st64{fill:#E55955;}
	.st65{fill:#FAE3A4;}
	.st66{fill:#D9504C;}
	.st67{fill:#6E5A50;}
	.st68{fill:#F76363;}
	.st69{fill:#FCEEC5;}
	.st70{fill:#8CA846;}
	.st71{fill:#3A3A39;}
	.st72{fill:#E5E5E4;}
	.st73{fill:#E4B622;}
	.st74{fill:#FFDC6E;}
	.st75{fill:#020202;}
	.st76{fill:none;}
	.st77{fill:#3A3C3B;}
	.st78{fill:#9E7B71;}
	.st79{clip-path:url(#SVGID_00000173145131574377650950000008233358141602955933_);}
	.st80{fill:#E2BFC0;}
	.st81{fill:#F46763;}
	.st82{fill:#090B0B;}
	.st83{fill:#F7E2D1;}
</style>
<g
   transform="matrix(0.80828857,0,0,0.80828857,-2.6673523,61.591589)"
   id="g19">
		<g
   id="g17">
			<g
   id="g15">
				<g
   id="Duplicate_Items_Folder_Symbol_4_0_Layer0_0_FILL">
					<path
   class="st0"
   d="m 153.8,-76.1 c -0.1,-0.1 -0.2,-0.1 -0.3,-0.1 H 3.7 c -0.1,0 -0.3,0.1 -0.3,0.1 -0.1,0.1 -0.1,0.2 -0.1,0.4 V 75.2 c 0,0.1 0.1,0.3 0.1,0.4 0.1,0.1 0.2,0.1 0.3,0.1 h 149.7 c 0.1,0 0.3,-0.1 0.3,-0.1 0.1,-0.1 0.1,-0.2 0.1,-0.4 V -75.7 c 0.2,-0.2 0.1,-0.3 0,-0.4 M 4.2,-75.2 H 153 V 74.7 H 4.2 Z"
   id="path4" />
					<path
   class="st1"
   d="M 153,-75.2 H 4.2 V 74.7 H 153 V -75.2 m -0.8,0.5 v 0.2 l 0.2,-0.2 V 73.9 H 5.2 5 V -74.7 Z"
   id="path6" />
					<path
   class="st2"
   d="m 145.8,-67.9 6.4,-6.5 v -0.2 H 5 V 73.9 h 0.2 l 6.4,-6.4 V -67.9 Z"
   id="path8" />
					<path
   class="st3"
   d="m 145.8,-67.9 v 0 L 145.7,67.2 H 12 l -0.3,0.3 -6.4,6.4 H 152.5 V -74.7 l -0.2,0.2 z"
   id="path10" />
					<path
   class="st4"
   d="m 145.7,-67.8 v 0 l -134,-0.1 V 67.5 L 12,67.2 h 133.7 z"
   id="path12" />
				</g>
			</g>
		</g>
	</g><g
   transform="matrix(0.80828857,0,0,0.80828857,119.78265,61.591589)"
   id="g36">
		<g
   id="g34">
			<g
   id="g32">
				<g
   id="Duplicate_Items_Folder_Symbol_4_0_Layer0_0_FILL_00000103259204796297521060000009202442913214377128_">
					<path
   class="st0"
   d="m 152.7,-76.1 c -0.1,-0.1 -0.2,-0.1 -0.3,-0.1 H 2.6 c -0.1,0 -0.3,0.1 -0.3,0.1 -0.1,0.1 -0.1,0.2 -0.1,0.4 V 75.2 c 0,0.1 0.1,0.3 0.1,0.4 0.1,0.1 0.2,0.1 0.3,0.1 h 149.7 c 0.1,0 0.3,-0.1 0.3,-0.1 0.1,-0.1 0.1,-0.2 0.1,-0.4 V -75.7 c 0.1,-0.2 0.1,-0.3 0,-0.4 M 3.1,-75.2 H 151.8 V 74.7 H 3.1 Z"
   id="path21" />
					<path
   class="st1"
   d="M 151.8,-75.2 H 3.1 V 74.7 H 151.8 V -75.2 m -0.7,0.5 v 0.2 l 0.2,-0.2 V 73.9 H 4.1 3.8 V -74.7 Z"
   id="path23" />
					<path
   class="st2"
   d="m 144.7,-67.9 6.4,-6.5 v -0.2 H 3.8 V 73.9 H 4 l 6.4,-6.4 V -67.9 Z"
   id="path25" />
					<path
   class="st3"
   d="m 144.7,-67.9 v 0 L 144.6,67.2 H 10.9 l -0.3,0.3 -6.4,6.4 H 151.4 V -74.7 l -0.2,0.2 z"
   id="path27" />
					<path
   class="st4"
   d="m 144.6,-67.8 v 0 L 10.5,-67.9 V 67.5 l 0.3,-0.3 h 133.7 v -135 z"
   id="path29" />
				</g>
			</g>
		</g>
	</g><g
   transform="matrix(0.80828857,0,0,0.80828857,242.23265,61.591589)"
   id="g53">
		<g
   id="g51">
			<g
   id="g49">
				<g
   id="Duplicate_Items_Folder_Symbol_4_0_Layer0_0_FILL_00000150095661800686720220000007911614582640425606_">
					<path
   class="st0"
   d="m 151.5,-76.1 c -0.1,-0.1 -0.2,-0.1 -0.3,-0.1 H 1.4 c -0.1,0 -0.3,0.1 -0.3,0.1 -0.1,0.1 -0.2,0.2 -0.2,0.4 V 75.2 c 0,0.1 0.1,0.3 0.1,0.4 0.1,0.1 0.2,0.1 0.3,0.1 H 151 c 0.1,0 0.3,-0.1 0.3,-0.1 0.1,-0.1 0.1,-0.2 0.1,-0.4 V -75.7 c 0.2,-0.2 0.2,-0.3 0.1,-0.4 M 1.9,-75.2 H 150.6 V 74.7 H 1.9 Z"
   id="path38" />
					<path
   class="st1"
   d="M 150.6,-75.2 H 1.9 V 74.7 H 150.6 V -75.2 m -0.7,0.5 v 0.2 l 0.2,-0.2 V 73.9 H 2.9 2.6 V -74.7 Z"
   id="path40" />
					<path
   class="st2"
   d="m 143.5,-67.9 6.4,-6.5 v -0.2 H 2.6 V 73.9 H 2.8 L 9.2,67.5 V -67.9 Z"
   id="path42" />
					<path
   class="st3"
   d="m 143.5,-67.9 v 0 L 143.4,67.2 H 9.7 L 9.4,67.5 3,73.9 H 150.2 V -74.7 l -0.2,0.2 z"
   id="path44" />
					<path
   class="st4"
   d="m 143.4,-67.8 v 0 L 9.3,-67.9 V 67.5 l 0.3,-0.3 h 133.7 z"
   id="path46" />
				</g>
			</g>
		</g>
	</g><g
   transform="matrix(0.80828857,0,0,0.80828857,364.68265,61.591589)"
   id="g70">
		<g
   id="g68">
			<g
   id="g66">
				<g
   id="Duplicate_Items_Folder_Symbol_4_0_Layer0_0_FILL_00000028327254553976565370000015109165849768636837_">
					<path
   class="st0"
   d="m 150.3,-76.1 c -0.1,-0.1 -0.2,-0.1 -0.3,-0.1 H 0.2 c -0.1,0 -0.3,0.1 -0.3,0.1 -0.1,0.1 -0.1,0.2 -0.1,0.4 V 75.2 c 0,0.1 0.1,0.3 0.1,0.4 0.1,0.1 0.2,0.1 0.3,0.1 H 150 c 0.1,0 0.3,-0.1 0.3,-0.1 0.1,-0.1 0.1,-0.2 0.1,-0.4 V -75.7 c 0.1,-0.2 0,-0.3 -0.1,-0.4 M 0.7,-75.2 H 149.4 V 74.7 H 0.7 Z"
   id="path55" />
					<path
   class="st1"
   d="M 149.5,-75.2 H 0.7 V 74.7 H 149.4 V -75.2 m -0.7,0.5 v 0.2 l 0.2,-0.2 V 73.9 H 1.7 1.5 V -74.7 Z"
   id="path57" />
					<path
   class="st2"
   d="m 142.3,-67.9 6.4,-6.5 v -0.2 H 1.5 V 73.9 H 1.7 L 8.1,67.5 V -67.9 Z"
   id="path59" />
					<path
   class="st3"
   d="m 142.3,-67.9 v 0 L 142.2,67.2 H 8.5 L 8.2,67.5 1.8,73.9 H 149 V -74.7 l -0.2,0.2 z"
   id="path61" />
					<path
   class="st4"
   d="m 142.2,-67.8 v 0 L 8.2,-67.9 V 67.5 l 0.3,-0.3 h 133.7 z"
   id="path63" />
				</g>
			</g>
		</g>
	</g><g
   transform="matrix(0.80828857,0,0,0.80828857,487.13265,61.591589)"
   id="g87">
		<g
   id="g85">
			<g
   id="g83">
				<g
   id="Duplicate_Items_Folder_Symbol_4_0_Layer0_0_FILL_00000076581959032475639530000008960199103215055039_">
					<path
   class="st0"
   d="m 149.1,-76.1 c -0.1,-0.1 -0.2,-0.1 -0.3,-0.1 H -0.9 c -0.1,0 -0.3,0.1 -0.3,0.1 -0.1,0.1 -0.1,0.2 -0.1,0.4 V 75.2 c 0,0.1 0.1,0.3 0.1,0.4 0.1,0.1 0.2,0.1 0.3,0.1 h 149.7 c 0.1,0 0.3,-0.1 0.3,-0.1 0.1,-0.1 0.1,-0.2 0.1,-0.4 V -75.7 c 0.1,-0.2 0,-0.3 -0.1,-0.4 M -0.4,-75.2 H 148.3 V 74.7 H -0.4 Z"
   id="path72" />
					<path
   class="st1"
   d="M 148.3,-75.2 H -0.4 V 74.7 H 148.3 V -75.2 m -0.7,0.5 v 0.2 l 0.2,-0.2 V 73.9 H 0.5 0.3 V -74.7 Z"
   id="path74" />
					<path
   class="st2"
   d="m 141.2,-67.9 6.4,-6.5 v -0.2 H 0.3 V 73.9 H 0.5 L 7,67.5 V -67.9 Z"
   id="path76" />
					<path
   class="st3"
   d="m 141.2,-67.9 v 0 L 141.1,67.2 H 7.3 L 7,67.5 0.6,73.9 H 147.8 V -74.7 l -0.2,0.2 z"
   id="path78" />
					<path
   class="st5"
   d="m 141.1,-67.8 v 0 L 7,-67.9 V 67.5 L 7.3,67.2 H 141 v -135 z"
   id="path80" />
				</g>
			</g>
		</g>
	</g><g
   transform="matrix(0.80828857,0,0,0.80828857,609.58265,61.591589)"
   id="g104">
		<g
   id="g102">
			<g
   id="g100">
				<g
   id="Duplicate_Items_Folder_Symbol_4_0_Layer0_0_FILL_00000080896063043282772020000008342106817347203775_">
					<path
   class="st0"
   d="m 148,-76.1 c -0.1,-0.1 -0.2,-0.1 -0.3,-0.1 H -2.1 c -0.1,0 -0.3,0.1 -0.3,0.1 -0.1,0.1 -0.1,0.2 -0.1,0.4 V 75.2 c 0,0.1 0.1,0.3 0.1,0.4 0.1,0.1 0.2,0.1 0.3,0.1 h 149.7 c 0.1,0 0.3,-0.1 0.3,-0.1 0.1,-0.1 0.1,-0.2 0.1,-0.4 V -75.7 c 0.1,-0.2 0.1,-0.3 0,-0.4 M -1.6,-75.2 H 147.1 V 74.7 H -1.6 Z"
   id="path89" />
					<path
   class="st1"
   d="M 147.1,-75.2 H -1.6 V 74.7 H 147.1 V -75.2 m -0.7,0.5 v 0.2 l 0.2,-0.2 V 73.9 H -0.6 -0.8 V -74.7 Z"
   id="path91" />
					<path
   class="st2"
   d="m 140,-67.9 6.4,-6.5 v -0.2 H -0.9 V 73.9 h 0.2 L 5.7,67.5 V -67.9 Z"
   id="path93" />
					<path
   class="st3"
   d="m 140,-67.9 v 0 L 139.9,67.2 H 6.2 l -0.3,0.3 -6.4,6.4 H 146.7 V -74.7 l -0.2,0.2 z"
   id="path95" />
					<path
   class="st4"
   d="m 139.9,-67.8 v 0 L 5.8,-67.9 V 67.5 l 0.3,-0.3 h 133.7 z"
   id="path97" />
				</g>
			</g>
		</g>
	</g><g
   transform="matrix(0.80828857,0,0,0.80828857,732.13265,61.591589)"
   id="g121">
		<g
   id="g119">
			<g
   id="g117">
				<g
   id="Duplicate_Items_Folder_Symbol_4_0_Layer0_0_FILL_00000082327849748842702370000000482010199518088854_">
					<path
   class="st0"
   d="m 146.8,-76.1 c -0.1,-0.1 -0.2,-0.1 -0.3,-0.1 H -3.3 c -0.1,0 -0.3,0.1 -0.3,0.1 -0.1,0.1 -0.1,0.2 -0.1,0.4 V 75.2 c 0,0.1 0.1,0.3 0.1,0.4 0.1,0.1 0.2,0.1 0.3,0.1 h 149.7 c 0.1,0 0.3,-0.1 0.3,-0.1 0.1,-0.1 0.1,-0.2 0.1,-0.4 V -75.7 c 0.1,-0.2 0.1,-0.3 0,-0.4 M -2.8,-75.2 H 146 V 74.7 H -2.8 Z"
   id="path106" />
					<path
   class="st1"
   d="M 146,-75.2 H -2.8 V 74.7 H 146 V -75.2 m -0.8,0.5 v 0.2 l 0.2,-0.2 V 73.9 H -1.8 -2 V -74.7 Z"
   id="path108" />
					<path
   class="st2"
   d="m 138.8,-67.9 6.4,-6.5 v -0.2 H -2 V 73.9 h 0.2 L 4.6,67.5 V -67.9 Z"
   id="path110" />
					<path
   class="st3"
   d="m 138.8,-67.9 v 0 L 138.7,67.2 H 5 l -0.3,0.3 -6.4,6.4 H 145.5 V -74.7 l -0.2,0.2 z"
   id="path112" />
					<path
   class="st4"
   d="m 138.7,-67.8 v 0 L 4.7,-67.9 V 67.5 L 5,67.2 h 133.7 z"
   id="path114" />
				</g>
			</g>
		</g>
	</g><g
   transform="matrix(0.80828857,0,0,0.80828857,-2.6673523,181.24159)"
   id="g138">
		<g
   id="g136">
			<g
   id="g134">
				<g
   id="Duplicate_Items_Folder_Symbol_4_0_Layer0_0_FILL_00000108995129806447714850000012967377881701300396_">
					<path
   class="st0"
   d="m 153.8,-76.1 c -0.1,-0.1 -0.2,-0.1 -0.3,-0.1 H 3.7 c -0.1,0 -0.3,0.1 -0.3,0.1 -0.1,0.1 -0.1,0.2 -0.1,0.4 V 75.2 c 0,0.1 0.1,0.3 0.1,0.4 0.1,0.1 0.2,0.1 0.3,0.1 h 149.7 c 0.1,0 0.3,-0.1 0.3,-0.1 0.1,-0.1 0.1,-0.2 0.1,-0.4 V -75.7 c 0.2,-0.2 0.1,-0.3 0,-0.4 M 4.2,-75.2 H 153 V 74.7 H 4.2 Z"
   id="path123" />
					<path
   class="st1"
   d="M 153,-75.2 H 4.2 V 74.7 H 153 V -75.2 m -0.8,0.5 v 0.2 l 0.2,-0.2 V 73.9 H 5.2 5 V -74.7 Z"
   id="path125" />
					<path
   class="st2"
   d="m 145.8,-67.9 6.4,-6.5 v -0.2 H 5 V 73.9 h 0.2 l 6.4,-6.4 V -67.9 Z"
   id="path127" />
					<path
   class="st3"
   d="m 145.8,-67.9 v 0 L 145.7,67.2 H 12 l -0.3,0.3 -6.4,6.4 H 152.5 V -74.7 l -0.2,0.2 z"
   id="path129" />
					<path
   class="st6"
   d="m 145.7,-67.8 v 0 l -134,-0.1 V 67.5 L 12,67.2 h 133.7 z"
   id="path131" />
				</g>
			</g>
		</g>
	</g><g
   transform="matrix(0.80828857,0,0,0.80828857,119.78265,181.24159)"
   id="g155">
		<g
   id="g153">
			<g
   id="g151">
				<g
   id="Duplicate_Items_Folder_Symbol_4_0_Layer0_0_FILL_00000131346542553011193890000012865089029935732367_">
					<path
   class="st0"
   d="m 152.7,-76.1 c -0.1,-0.1 -0.2,-0.1 -0.3,-0.1 H 2.6 c -0.1,0 -0.3,0.1 -0.3,0.1 -0.1,0.1 -0.1,0.2 -0.1,0.4 V 75.2 c 0,0.1 0.1,0.3 0.1,0.4 0.1,0.1 0.2,0.1 0.3,0.1 h 149.7 c 0.1,0 0.3,-0.1 0.3,-0.1 0.1,-0.1 0.1,-0.2 0.1,-0.4 V -75.7 c 0.1,-0.2 0.1,-0.3 0,-0.4 M 3.1,-75.2 H 151.8 V 74.7 H 3.1 Z"
   id="path140" />
					<path
   class="st1"
   d="M 151.8,-75.2 H 3.1 V 74.7 H 151.8 V -75.2 m -0.7,0.5 v 0.2 l 0.2,-0.2 V 73.9 H 4.1 3.8 V -74.7 Z"
   id="path142" />
					<path
   class="st2"
   d="m 144.7,-67.9 6.4,-6.5 v -0.2 H 3.8 V 73.9 H 4 l 6.4,-6.4 V -67.9 Z"
   id="path144" />
					<path
   class="st3"
   d="m 144.7,-67.9 v 0 L 144.6,67.2 H 10.9 l -0.3,0.3 -6.4,6.4 H 151.4 V -74.7 l -0.2,0.2 z"
   id="path146" />
					<path
   class="st4"
   d="m 144.6,-67.8 v 0 L 10.5,-67.9 V 67.5 l 0.3,-0.3 h 133.7 v -135 z"
   id="path148" />
				</g>
			</g>
		</g>
	</g><g
   transform="matrix(0.80828857,0,0,0.80828857,242.23265,181.24159)"
   id="g172">
		<g
   id="g170">
			<g
   id="g168">
				<g
   id="Duplicate_Items_Folder_Symbol_4_0_Layer0_0_FILL_00000033357865755669866100000007837339411294685336_">
					<path
   class="st0"
   d="m 151.5,-76.1 c -0.1,-0.1 -0.2,-0.1 -0.3,-0.1 H 1.4 c -0.1,0 -0.3,0.1 -0.3,0.1 -0.1,0.1 -0.2,0.2 -0.2,0.4 V 75.2 c 0,0.1 0.1,0.3 0.1,0.4 0.1,0.1 0.2,0.1 0.3,0.1 H 151 c 0.1,0 0.3,-0.1 0.3,-0.1 0.1,-0.1 0.1,-0.2 0.1,-0.4 V -75.7 c 0.2,-0.2 0.2,-0.3 0.1,-0.4 M 1.9,-75.2 H 150.6 V 74.7 H 1.9 Z"
   id="path157" />
					<path
   class="st1"
   d="M 150.6,-75.2 H 1.9 V 74.7 H 150.6 V -75.2 m -0.7,0.5 v 0.2 l 0.2,-0.2 V 73.9 H 2.9 2.6 V -74.7 Z"
   id="path159" />
					<path
   class="st2"
   d="m 143.5,-67.9 6.4,-6.5 v -0.2 H 2.6 V 73.9 H 2.8 L 9.2,67.5 V -67.9 Z"
   id="path161" />
					<path
   class="st3"
   d="m 143.5,-67.9 v 0 L 143.4,67.2 H 9.7 L 9.4,67.5 3,73.9 H 150.2 V -74.7 l -0.2,0.2 z"
   id="path163" />
					<path
   class="st7"
   d="m 143.4,-67.8 v 0 L 9.3,-67.9 V 67.5 l 0.3,-0.3 h 133.7 z"
   id="path165" />
				</g>
			</g>
		</g>
	</g><g
   transform="matrix(0.80828857,0,0,0.80828857,364.68265,181.24159)"
   id="g189">
		<g
   id="g187">
			<g
   id="g185">
				<g
   id="Duplicate_Items_Folder_Symbol_4_0_Layer0_0_FILL_00000145737734372285428120000000098250607328028847_">
					<path
   class="st0"
   d="m 150.3,-76.1 c -0.1,-0.1 -0.2,-0.1 -0.3,-0.1 H 0.2 c -0.1,0 -0.3,0.1 -0.3,0.1 -0.1,0.1 -0.1,0.2 -0.1,0.4 V 75.2 c 0,0.1 0.1,0.3 0.1,0.4 0.1,0.1 0.2,0.1 0.3,0.1 H 150 c 0.1,0 0.3,-0.1 0.3,-0.1 0.1,-0.1 0.1,-0.2 0.1,-0.4 V -75.7 c 0.1,-0.2 0,-0.3 -0.1,-0.4 M 0.7,-75.2 H 149.4 V 74.7 H 0.7 Z"
   id="path174" />
					<path
   class="st1"
   d="M 149.5,-75.2 H 0.7 V 74.7 H 149.4 V -75.2 m -0.7,0.5 v 0.2 l 0.2,-0.2 V 73.9 H 1.7 1.5 V -74.7 Z"
   id="path176" />
					<path
   class="st2"
   d="m 142.3,-67.9 6.4,-6.5 v -0.2 H 1.5 V 73.9 H 1.7 L 8.1,67.5 V -67.9 Z"
   id="path178" />
					<path
   class="st3"
   d="m 142.3,-67.9 v 0 L 142.2,67.2 H 8.5 L 8.2,67.5 1.8,73.9 H 149 V -74.7 l -0.2,0.2 z"
   id="path180" />
					<path
   class="st4"
   d="m 142.2,-67.8 v 0 L 8.2,-67.9 V 67.5 l 0.3,-0.3 h 133.7 z"
   id="path182" />
				</g>
			</g>
		</g>
	</g><g
   transform="matrix(0.80828857,0,0,0.80828857,487.13265,181.24159)"
   id="g206">
		<g
   id="g204">
			<g
   id="g202">
				<g
   id="Duplicate_Items_Folder_Symbol_4_0_Layer0_0_FILL_00000048483184921922657120000003251561539696903040_">
					<path
   class="st0"
   d="m 149.1,-76.1 c -0.1,-0.1 -0.2,-0.1 -0.3,-0.1 H -0.9 c -0.1,0 -0.3,0.1 -0.3,0.1 -0.1,0.1 -0.1,0.2 -0.1,0.4 V 75.2 c 0,0.1 0.1,0.3 0.1,0.4 0.1,0.1 0.2,0.1 0.3,0.1 h 149.7 c 0.1,0 0.3,-0.1 0.3,-0.1 0.1,-0.1 0.1,-0.2 0.1,-0.4 V -75.7 c 0.1,-0.2 0,-0.3 -0.1,-0.4 M -0.4,-75.2 H 148.3 V 74.7 H -0.4 Z"
   id="path191" />
					<path
   class="st1"
   d="M 148.3,-75.2 H -0.4 V 74.7 H 148.3 V -75.2 m -0.7,0.5 v 0.2 l 0.2,-0.2 V 73.9 H 0.5 0.3 V -74.7 Z"
   id="path193" />
					<path
   class="st2"
   d="m 141.2,-67.9 6.4,-6.5 v -0.2 H 0.3 V 73.9 H 0.5 L 7,67.5 V -67.9 Z"
   id="path195" />
					<path
   class="st3"
   d="m 141.2,-67.9 v 0 L 141.1,67.2 H 7.3 L 7,67.5 0.6,73.9 H 147.8 V -74.7 l -0.2,0.2 z"
   id="path197" />
					<path
   class="st8"
   d="m 141.1,-67.8 v 0 L 7,-67.9 V 67.5 L 7.3,67.2 H 141 v -135 z"
   id="path199" />
				</g>
			</g>
		</g>
	</g><g
   transform="matrix(0.80828857,0,0,0.80828857,609.58265,181.24159)"
   id="g223">
		<g
   id="g221">
			<g
   id="g219">
				<g
   id="Duplicate_Items_Folder_Symbol_4_0_Layer0_0_FILL_00000098217089594599827130000007504543668754962354_">
					<path
   class="st0"
   d="m 148,-76.1 c -0.1,-0.1 -0.2,-0.1 -0.3,-0.1 H -2.1 c -0.1,0 -0.3,0.1 -0.3,0.1 -0.1,0.1 -0.1,0.2 -0.1,0.4 V 75.2 c 0,0.1 0.1,0.3 0.1,0.4 0.1,0.1 0.2,0.1 0.3,0.1 h 149.7 c 0.1,0 0.3,-0.1 0.3,-0.1 0.1,-0.1 0.1,-0.2 0.1,-0.4 V -75.7 c 0.1,-0.2 0.1,-0.3 0,-0.4 M -1.6,-75.2 H 147.1 V 74.7 H -1.6 Z"
   id="path208" />
					<path
   class="st1"
   d="M 147.1,-75.2 H -1.6 V 74.7 H 147.1 V -75.2 m -0.7,0.5 v 0.2 l 0.2,-0.2 V 73.9 H -0.6 -0.8 V -74.7 Z"
   id="path210" />
					<path
   class="st2"
   d="m 140,-67.9 6.4,-6.5 v -0.2 H -0.9 V 73.9 h 0.2 L 5.7,67.5 V -67.9 Z"
   id="path212" />
					<path
   class="st3"
   d="m 140,-67.9 v 0 L 139.9,67.2 H 6.2 l -0.3,0.3 -6.4,6.4 H 146.7 V -74.7 l -0.2,0.2 z"
   id="path214" />
					<path
   class="st4"
   d="m 139.9,-67.8 v 0 L 5.8,-67.9 V 67.5 l 0.3,-0.3 h 133.7 z"
   id="path216" />
				</g>
			</g>
		</g>
	</g><g
   transform="matrix(0.80828857,0,0,0.80828857,732.13265,181.24159)"
   id="g240">
		<g
   id="g238">
			<g
   id="g236">
				<g
   id="Duplicate_Items_Folder_Symbol_4_0_Layer0_0_FILL_00000048482115052319978770000006072974825167757704_">
					<path
   class="st0"
   d="m 146.8,-76.1 c -0.1,-0.1 -0.2,-0.1 -0.3,-0.1 H -3.3 c -0.1,0 -0.3,0.1 -0.3,0.1 -0.1,0.1 -0.1,0.2 -0.1,0.4 V 75.2 c 0,0.1 0.1,0.3 0.1,0.4 0.1,0.1 0.2,0.1 0.3,0.1 h 149.7 c 0.1,0 0.3,-0.1 0.3,-0.1 0.1,-0.1 0.1,-0.2 0.1,-0.4 V -75.7 c 0.1,-0.2 0.1,-0.3 0,-0.4 M -2.8,-75.2 H 146 V 74.7 H -2.8 Z"
   id="path225" />
					<path
   class="st1"
   d="M 146,-75.2 H -2.8 V 74.7 H 146 V -75.2 m -0.8,0.5 v 0.2 l 0.2,-0.2 V 73.9 H -1.8 -2 V -74.7 Z"
   id="path227" />
					<path
   class="st2"
   d="m 138.8,-67.9 6.4,-6.5 v -0.2 H -2 V 73.9 h 0.2 L 4.6,67.5 V -67.9 Z"
   id="path229" />
					<path
   class="st3"
   d="m 138.8,-67.9 v 0 L 138.7,67.2 H 5 l -0.3,0.3 -6.4,6.4 H 145.5 V -74.7 l -0.2,0.2 z"
   id="path231" />
					<path
   class="st7"
   d="m 138.7,-67.8 v 0 L 4.7,-67.9 V 67.5 L 5,67.2 h 133.7 z"
   id="path233" />
				</g>
			</g>
		</g>
	</g><g
   transform="matrix(0.80828857,0,0,0.80828857,-2.6673523,300.84159)"
   id="g257">
		<g
   id="g255">
			<g
   id="g253">
				<g
   id="Duplicate_Items_Folder_Symbol_4_0_Layer0_0_FILL_00000127024286884559174220000004834808001671814819_">
					<path
   class="st0"
   d="m 153.8,-76.1 c -0.1,-0.1 -0.2,-0.1 -0.3,-0.1 H 3.7 c -0.1,0 -0.3,0.1 -0.3,0.1 -0.1,0.1 -0.1,0.2 -0.1,0.4 V 75.2 c 0,0.1 0.1,0.3 0.1,0.4 0.1,0.1 0.2,0.1 0.3,0.1 h 149.7 c 0.1,0 0.3,-0.1 0.3,-0.1 0.1,-0.1 0.1,-0.2 0.1,-0.4 V -75.7 c 0.2,-0.2 0.1,-0.3 0,-0.4 M 4.2,-75.2 H 153 V 74.7 H 4.2 Z"
   id="path242" />
					<path
   class="st1"
   d="M 153,-75.2 H 4.2 V 74.7 H 153 V -75.2 m -0.8,0.5 v 0.2 l 0.2,-0.2 V 73.9 H 5.2 5 V -74.7 Z"
   id="path244" />
					<path
   class="st2"
   d="m 145.8,-67.9 6.4,-6.5 v -0.2 H 5 V 73.9 h 0.2 l 6.4,-6.4 V -67.9 Z"
   id="path246" />
					<path
   class="st3"
   d="m 145.8,-67.9 v 0 L 145.7,67.2 H 12 l -0.3,0.3 -6.4,6.4 H 152.5 V -74.7 l -0.2,0.2 z"
   id="path248" />
					<path
   class="st4"
   d="m 145.7,-67.8 v 0 l -134,-0.1 V 67.5 L 12,67.2 h 133.7 z"
   id="path250" />
				</g>
			</g>
		</g>
	</g><g
   transform="matrix(0.80828857,0,0,0.80828857,119.78265,300.84159)"
   id="g274">
		<g
   id="g272">
			<g
   id="g270">
				<g
   id="Duplicate_Items_Folder_Symbol_4_0_Layer0_0_FILL_00000020380242139765454840000014868946191386986166_">
					<path
   class="st0"
   d="m 152.7,-76.1 c -0.1,-0.1 -0.2,-0.1 -0.3,-0.1 H 2.6 c -0.1,0 -0.3,0.1 -0.3,0.1 -0.1,0.1 -0.1,0.2 -0.1,0.4 V 75.2 c 0,0.1 0.1,0.3 0.1,0.4 0.1,0.1 0.2,0.1 0.3,0.1 h 149.7 c 0.1,0 0.3,-0.1 0.3,-0.1 0.1,-0.1 0.1,-0.2 0.1,-0.4 V -75.7 c 0.1,-0.2 0.1,-0.3 0,-0.4 M 3.1,-75.2 H 151.8 V 74.7 H 3.1 Z"
   id="path259" />
					<path
   class="st1"
   d="M 151.8,-75.2 H 3.1 V 74.7 H 151.8 V -75.2 m -0.7,0.5 v 0.2 l 0.2,-0.2 V 73.9 H 4.1 3.8 V -74.7 Z"
   id="path261" />
					<path
   class="st2"
   d="m 144.7,-67.9 6.4,-6.5 v -0.2 H 3.8 V 73.9 H 4 l 6.4,-6.4 V -67.9 Z"
   id="path263" />
					<path
   class="st3"
   d="m 144.7,-67.9 v 0 L 144.6,67.2 H 10.9 l -0.3,0.3 -6.4,6.4 H 151.4 V -74.7 l -0.2,0.2 z"
   id="path265" />
					<path
   class="st4"
   d="m 144.6,-67.8 v 0 L 10.5,-67.9 V 67.5 l 0.3,-0.3 h 133.7 v -135 z"
   id="path267" />
				</g>
			</g>
		</g>
	</g><g
   transform="matrix(0.80828857,0,0,0.80828857,242.23265,300.84159)"
   id="g291">
		<g
   id="g289">
			<g
   id="g287">
				<g
   id="Duplicate_Items_Folder_Symbol_4_0_Layer0_0_FILL_00000143589691710794000380000001467482418706008745_">
					<path
   class="st0"
   d="m 151.5,-76.1 c -0.1,-0.1 -0.2,-0.1 -0.3,-0.1 H 1.4 c -0.1,0 -0.3,0.1 -0.3,0.1 -0.1,0.1 -0.2,0.2 -0.2,0.4 V 75.2 c 0,0.1 0.1,0.3 0.1,0.4 0.1,0.1 0.2,0.1 0.3,0.1 H 151 c 0.1,0 0.3,-0.1 0.3,-0.1 0.1,-0.1 0.1,-0.2 0.1,-0.4 V -75.7 c 0.2,-0.2 0.2,-0.3 0.1,-0.4 M 1.9,-75.2 H 150.6 V 74.7 H 1.9 Z"
   id="path276" />
					<path
   class="st1"
   d="M 150.6,-75.2 H 1.9 V 74.7 H 150.6 V -75.2 m -0.7,0.5 v 0.2 l 0.2,-0.2 V 73.9 H 2.9 2.6 V -74.7 Z"
   id="path278" />
					<path
   class="st2"
   d="m 143.5,-67.9 6.4,-6.5 v -0.2 H 2.6 V 73.9 H 2.8 L 9.2,67.5 V -67.9 Z"
   id="path280" />
					<path
   class="st3"
   d="m 143.5,-67.9 v 0 L 143.4,67.2 H 9.7 L 9.4,67.5 3,73.9 H 150.2 V -74.7 l -0.2,0.2 z"
   id="path282" />
					<path
   class="st4"
   d="m 143.4,-67.8 v 0 L 9.3,-67.9 V 67.5 l 0.3,-0.3 h 133.7 z"
   id="path284" />
				</g>
			</g>
		</g>
	</g><g
   transform="matrix(0.80828857,0,0,0.80828857,364.68265,300.84159)"
   id="g308">
		<g
   id="g306">
			<g
   id="g304">
				<g
   id="Duplicate_Items_Folder_Symbol_4_0_Layer0_0_FILL_00000081647693810739387920000016970750400242393503_">
					<path
   class="st0"
   d="m 150.3,-76.1 c -0.1,-0.1 -0.2,-0.1 -0.3,-0.1 H 0.2 c -0.1,0 -0.3,0.1 -0.3,0.1 -0.1,0.1 -0.1,0.2 -0.1,0.4 V 75.2 c 0,0.1 0.1,0.3 0.1,0.4 0.1,0.1 0.2,0.1 0.3,0.1 H 150 c 0.1,0 0.3,-0.1 0.3,-0.1 0.1,-0.1 0.1,-0.2 0.1,-0.4 V -75.7 c 0.1,-0.2 0,-0.3 -0.1,-0.4 M 0.7,-75.2 H 149.4 V 74.7 H 0.7 Z"
   id="path293" />
					<path
   class="st1"
   d="M 149.5,-75.2 H 0.7 V 74.7 H 149.4 V -75.2 m -0.7,0.5 v 0.2 l 0.2,-0.2 V 73.9 H 1.7 1.5 V -74.7 Z"
   id="path295" />
					<path
   class="st2"
   d="m 142.3,-67.9 6.4,-6.5 v -0.2 H 1.5 V 73.9 H 1.7 L 8.1,67.5 V -67.9 Z"
   id="path297" />
					<path
   class="st3"
   d="m 142.3,-67.9 v 0 L 142.2,67.2 H 8.5 L 8.2,67.5 1.8,73.9 H 149 V -74.7 l -0.2,0.2 z"
   id="path299" />
					<path
   class="st5"
   d="m 142.2,-67.8 v 0 L 8.2,-67.9 V 67.5 l 0.3,-0.3 h 133.7 z"
   id="path301" />
				</g>
			</g>
		</g>
	</g><g
   transform="matrix(0.80828857,0,0,0.80828857,487.13265,300.84159)"
   id="g325">
		<g
   id="g323">
			<g
   id="g321">
				<g
   id="Duplicate_Items_Folder_Symbol_4_0_Layer0_0_FILL_00000101085341573872540630000016773882472006805659_">
					<path
   class="st0"
   d="m 149.1,-76.1 c -0.1,-0.1 -0.2,-0.1 -0.3,-0.1 H -0.9 c -0.1,0 -0.3,0.1 -0.3,0.1 -0.1,0.1 -0.1,0.2 -0.1,0.4 V 75.2 c 0,0.1 0.1,0.3 0.1,0.4 0.1,0.1 0.2,0.1 0.3,0.1 h 149.7 c 0.1,0 0.3,-0.1 0.3,-0.1 0.1,-0.1 0.1,-0.2 0.1,-0.4 V -75.7 c 0.1,-0.2 0,-0.3 -0.1,-0.4 M -0.4,-75.2 H 148.3 V 74.7 H -0.4 Z"
   id="path310" />
					<path
   class="st1"
   d="M 148.3,-75.2 H -0.4 V 74.7 H 148.3 V -75.2 m -0.7,0.5 v 0.2 l 0.2,-0.2 V 73.9 H 0.5 0.3 V -74.7 Z"
   id="path312" />
					<path
   class="st2"
   d="m 141.2,-67.9 6.4,-6.5 v -0.2 H 0.3 V 73.9 H 0.5 L 7,67.5 V -67.9 Z"
   id="path314" />
					<path
   class="st3"
   d="m 141.2,-67.9 v 0 L 141.1,67.2 H 7.3 L 7,67.5 0.6,73.9 H 147.8 V -74.7 l -0.2,0.2 z"
   id="path316" />
					<path
   class="st4"
   d="m 141.1,-67.8 v 0 L 7,-67.9 V 67.5 L 7.3,67.2 H 141 v -135 z"
   id="path318" />
				</g>
			</g>
		</g>
	</g><g
   transform="matrix(0.80828857,0,0,0.80828857,609.58265,300.84159)"
   id="g342">
		<g
   id="g340">
			<g
   id="g338">
				<g
   id="Duplicate_Items_Folder_Symbol_4_0_Layer0_0_FILL_00000180326312454524565460000006245114545542771089_">
					<path
   class="st0"
   d="m 148,-76.1 c -0.1,-0.1 -0.2,-0.1 -0.3,-0.1 H -2.1 c -0.1,0 -0.3,0.1 -0.3,0.1 -0.1,0.1 -0.1,0.2 -0.1,0.4 V 75.2 c 0,0.1 0.1,0.3 0.1,0.4 0.1,0.1 0.2,0.1 0.3,0.1 h 149.7 c 0.1,0 0.3,-0.1 0.3,-0.1 0.1,-0.1 0.1,-0.2 0.1,-0.4 V -75.7 c 0.1,-0.2 0.1,-0.3 0,-0.4 M -1.6,-75.2 H 147.1 V 74.7 H -1.6 Z"
   id="path327" />
					<path
   class="st1"
   d="M 147.1,-75.2 H -1.6 V 74.7 H 147.1 V -75.2 m -0.7,0.5 v 0.2 l 0.2,-0.2 V 73.9 H -0.6 -0.8 V -74.7 Z"
   id="path329" />
					<path
   class="st2"
   d="m 140,-67.9 6.4,-6.5 v -0.2 H -0.9 V 73.9 h 0.2 L 5.7,67.5 V -67.9 Z"
   id="path331" />
					<path
   class="st3"
   d="m 140,-67.9 v 0 L 139.9,67.2 H 6.2 l -0.3,0.3 -6.4,6.4 H 146.7 V -74.7 l -0.2,0.2 z"
   id="path333" />
					<path
   class="st6"
   d="m 139.9,-67.8 v 0 L 5.8,-67.9 V 67.5 l 0.3,-0.3 h 133.7 z"
   id="path335" />
				</g>
			</g>
		</g>
	</g><g
   transform="matrix(0.80828857,0,0,0.80828857,732.13265,300.84159)"
   id="g359">
		<g
   id="g357">
			<g
   id="g355">
				<g
   id="Duplicate_Items_Folder_Symbol_4_0_Layer0_0_FILL_00000037662926157978586080000003698215917179208626_">
					<path
   class="st0"
   d="m 146.8,-76.1 c -0.1,-0.1 -0.2,-0.1 -0.3,-0.1 H -3.3 c -0.1,0 -0.3,0.1 -0.3,0.1 -0.1,0.1 -0.1,0.2 -0.1,0.4 V 75.2 c 0,0.1 0.1,0.3 0.1,0.4 0.1,0.1 0.2,0.1 0.3,0.1 h 149.7 c 0.1,0 0.3,-0.1 0.3,-0.1 0.1,-0.1 0.1,-0.2 0.1,-0.4 V -75.7 c 0.1,-0.2 0.1,-0.3 0,-0.4 M -2.8,-75.2 H 146 V 74.7 H -2.8 Z"
   id="path344" />
					<path
   class="st1"
   d="M 146,-75.2 H -2.8 V 74.7 H 146 V -75.2 m -0.8,0.5 v 0.2 l 0.2,-0.2 V 73.9 H -1.8 -2 V -74.7 Z"
   id="path346" />
					<path
   class="st2"
   d="m 138.8,-67.9 6.4,-6.5 v -0.2 H -2 V 73.9 h 0.2 L 4.6,67.5 V -67.9 Z"
   id="path348" />
					<path
   class="st3"
   d="m 138.8,-67.9 v 0 L 138.7,67.2 H 5 l -0.3,0.3 -6.4,6.4 H 145.5 V -74.7 l -0.2,0.2 z"
   id="path350" />
					<path
   class="st4"
   d="m 138.7,-67.8 v 0 L 4.7,-67.9 V 67.5 L 5,67.2 h 133.7 z"
   id="path352" />
				</g>
			</g>
		</g>
	</g><g
   transform="matrix(0.80828857,0,0,0.80828857,-2.6673523,420.49159)"
   id="g376">
		<g
   id="g374">
			<g
   id="g372">
				<g
   id="Duplicate_Items_Folder_Symbol_4_0_Layer0_0_FILL_00000063594509381718679450000001290298100037845132_">
					<path
   class="st0"
   d="m 153.8,-76.1 c -0.1,-0.1 -0.2,-0.1 -0.3,-0.1 H 3.7 c -0.1,0 -0.3,0.1 -0.3,0.1 -0.1,0.1 -0.1,0.2 -0.1,0.4 V 75.2 c 0,0.1 0.1,0.3 0.1,0.4 0.1,0.1 0.2,0.1 0.3,0.1 h 149.7 c 0.1,0 0.3,-0.1 0.3,-0.1 0.1,-0.1 0.1,-0.2 0.1,-0.4 V -75.7 c 0.2,-0.2 0.1,-0.3 0,-0.4 M 4.2,-75.2 H 153 V 74.7 H 4.2 Z"
   id="path361" />
					<path
   class="st1"
   d="M 153,-75.2 H 4.2 V 74.7 H 153 V -75.2 m -0.8,0.5 v 0.2 l 0.2,-0.2 V 73.9 H 5.2 5 V -74.7 Z"
   id="path363" />
					<path
   class="st2"
   d="m 145.8,-67.9 6.4,-6.5 v -0.2 H 5 V 73.9 h 0.2 l 6.4,-6.4 V -67.9 Z"
   id="path365" />
					<path
   class="st3"
   d="m 145.8,-67.9 v 0 L 145.7,67.2 H 12 l -0.3,0.3 -6.4,6.4 H 152.5 V -74.7 l -0.2,0.2 z"
   id="path367" />
					<path
   class="st4"
   d="m 145.7,-67.8 v 0 l -134,-0.1 V 67.5 L 12,67.2 h 133.7 z"
   id="path369" />
				</g>
			</g>
		</g>
	</g><g
   transform="matrix(0.80828857,0,0,0.80828857,119.78265,420.49159)"
   id="g393">
		<g
   id="g391">
			<g
   id="g389">
				<g
   id="Duplicate_Items_Folder_Symbol_4_0_Layer0_0_FILL_00000016797044142060919450000017870866123137992126_">
					<path
   class="st0"
   d="m 152.7,-76.1 c -0.1,-0.1 -0.2,-0.1 -0.3,-0.1 H 2.6 c -0.1,0 -0.3,0.1 -0.3,0.1 -0.1,0.1 -0.1,0.2 -0.1,0.4 V 75.2 c 0,0.1 0.1,0.3 0.1,0.4 0.1,0.1 0.2,0.1 0.3,0.1 h 149.7 c 0.1,0 0.3,-0.1 0.3,-0.1 0.1,-0.1 0.1,-0.2 0.1,-0.4 V -75.7 c 0.1,-0.2 0.1,-0.3 0,-0.4 M 3.1,-75.2 H 151.8 V 74.7 H 3.1 Z"
   id="path378" />
					<path
   class="st1"
   d="M 151.8,-75.2 H 3.1 V 74.7 H 151.8 V -75.2 m -0.7,0.5 v 0.2 l 0.2,-0.2 V 73.9 H 4.1 3.8 V -74.7 Z"
   id="path380" />
					<path
   class="st2"
   d="m 144.7,-67.9 6.4,-6.5 v -0.2 H 3.8 V 73.9 H 4 l 6.4,-6.4 V -67.9 Z"
   id="path382" />
					<path
   class="st3"
   d="m 144.7,-67.9 v 0 L 144.6,67.2 H 10.9 l -0.3,0.3 -6.4,6.4 H 151.4 V -74.7 l -0.2,0.2 z"
   id="path384" />
					<path
   class="st9"
   d="m 144.6,-67.8 v 0 L 10.5,-67.9 V 67.5 l 0.3,-0.3 h 133.7 v -135 z"
   id="path386" />
				</g>
			</g>
		</g>
	</g><g
   transform="matrix(0.80828857,0,0,0.80828857,242.23265,420.49159)"
   id="g410">
		<g
   id="g408">
			<g
   id="g406">
				<g
   id="Duplicate_Items_Folder_Symbol_4_0_Layer0_0_FILL_00000052096228674270154890000002771930182163838136_">
					<path
   class="st0"
   d="m 151.5,-76.1 c -0.1,-0.1 -0.2,-0.1 -0.3,-0.1 H 1.4 c -0.1,0 -0.3,0.1 -0.3,0.1 -0.1,0.1 -0.2,0.2 -0.2,0.4 V 75.2 c 0,0.1 0.1,0.3 0.1,0.4 0.1,0.1 0.2,0.1 0.3,0.1 H 151 c 0.1,0 0.3,-0.1 0.3,-0.1 0.1,-0.1 0.1,-0.2 0.1,-0.4 V -75.7 c 0.2,-0.2 0.2,-0.3 0.1,-0.4 M 1.9,-75.2 H 150.6 V 74.7 H 1.9 Z"
   id="path395" />
					<path
   class="st1"
   d="M 150.6,-75.2 H 1.9 V 74.7 H 150.6 V -75.2 m -0.7,0.5 v 0.2 l 0.2,-0.2 V 73.9 H 2.9 2.6 V -74.7 Z"
   id="path397" />
					<path
   class="st2"
   d="m 143.5,-67.9 6.4,-6.5 v -0.2 H 2.6 V 73.9 H 2.8 L 9.2,67.5 V -67.9 Z"
   id="path399" />
					<path
   class="st3"
   d="m 143.5,-67.9 v 0 L 143.4,67.2 H 9.7 L 9.4,67.5 3,73.9 H 150.2 V -74.7 l -0.2,0.2 z"
   id="path401" />
					<path
   class="st4"
   d="m 143.4,-67.8 v 0 L 9.3,-67.9 V 67.5 l 0.3,-0.3 h 133.7 z"
   id="path403" />
				</g>
			</g>
		</g>
	</g><g
   transform="matrix(0.80828857,0,0,0.80828857,364.68265,420.49159)"
   id="g427">
		<g
   id="g425">
			<g
   id="g423">
				<g
   id="Duplicate_Items_Folder_Symbol_4_0_Layer0_0_FILL_00000009578991873829025820000004174113798812483972_">
					<path
   class="st0"
   d="m 150.3,-76.1 c -0.1,-0.1 -0.2,-0.1 -0.3,-0.1 H 0.2 c -0.1,0 -0.3,0.1 -0.3,0.1 -0.1,0.1 -0.1,0.2 -0.1,0.4 V 75.2 c 0,0.1 0.1,0.3 0.1,0.4 0.1,0.1 0.2,0.1 0.3,0.1 H 150 c 0.1,0 0.3,-0.1 0.3,-0.1 0.1,-0.1 0.1,-0.2 0.1,-0.4 V -75.7 c 0.1,-0.2 0,-0.3 -0.1,-0.4 M 0.7,-75.2 H 149.4 V 74.7 H 0.7 Z"
   id="path412" />
					<path
   class="st1"
   d="M 149.5,-75.2 H 0.7 V 74.7 H 149.4 V -75.2 m -0.7,0.5 v 0.2 l 0.2,-0.2 V 73.9 H 1.7 1.5 V -74.7 Z"
   id="path414" />
					<path
   class="st2"
   d="m 142.3,-67.9 6.4,-6.5 v -0.2 H 1.5 V 73.9 H 1.7 L 8.1,67.5 V -67.9 Z"
   id="path416" />
					<path
   class="st3"
   d="m 142.3,-67.9 v 0 L 142.2,67.2 H 8.5 L 8.2,67.5 1.8,73.9 H 149 V -74.7 l -0.2,0.2 z"
   id="path418" />
					<path
   class="st4"
   d="m 142.2,-67.8 v 0 L 8.2,-67.9 V 67.5 l 0.3,-0.3 h 133.7 z"
   id="path420" />
				</g>
			</g>
		</g>
	</g><g
   transform="matrix(0.80828857,0,0,0.80828857,487.13265,420.49159)"
   id="g444">
		<g
   id="g442">
			<g
   id="g440">
				<g
   id="Duplicate_Items_Folder_Symbol_4_0_Layer0_0_FILL_00000116227654466386827740000001009115525496689573_">
					<path
   class="st0"
   d="m 149.1,-76.1 c -0.1,-0.1 -0.2,-0.1 -0.3,-0.1 H -0.9 c -0.1,0 -0.3,0.1 -0.3,0.1 -0.1,0.1 -0.1,0.2 -0.1,0.4 V 75.2 c 0,0.1 0.1,0.3 0.1,0.4 0.1,0.1 0.2,0.1 0.3,0.1 h 149.7 c 0.1,0 0.3,-0.1 0.3,-0.1 0.1,-0.1 0.1,-0.2 0.1,-0.4 V -75.7 c 0.1,-0.2 0,-0.3 -0.1,-0.4 M -0.4,-75.2 H 148.3 V 74.7 H -0.4 Z"
   id="path429" />
					<path
   class="st1"
   d="M 148.3,-75.2 H -0.4 V 74.7 H 148.3 V -75.2 m -0.7,0.5 v 0.2 l 0.2,-0.2 V 73.9 H 0.5 0.3 V -74.7 Z"
   id="path431" />
					<path
   class="st2"
   d="m 141.2,-67.9 6.4,-6.5 v -0.2 H 0.3 V 73.9 H 0.5 L 7,67.5 V -67.9 Z"
   id="path433" />
					<path
   class="st3"
   d="m 141.2,-67.9 v 0 L 141.1,67.2 H 7.3 L 7,67.5 0.6,73.9 H 147.8 V -74.7 l -0.2,0.2 z"
   id="path435" />
					<path
   class="st4"
   d="m 141.1,-67.8 v 0 L 7,-67.9 V 67.5 L 7.3,67.2 H 141 v -135 z"
   id="path437" />
				</g>
			</g>
		</g>
	</g><g
   transform="matrix(0.80828857,0,0,0.80828857,609.58265,420.49159)"
   id="g461">
		<g
   id="g459">
			<g
   id="g457">
				<g
   id="Duplicate_Items_Folder_Symbol_4_0_Layer0_0_FILL_00000177452165754303531310000015956352157417289913_">
					<path
   class="st0"
   d="m 148,-76.1 c -0.1,-0.1 -0.2,-0.1 -0.3,-0.1 H -2.1 c -0.1,0 -0.3,0.1 -0.3,0.1 -0.1,0.1 -0.1,0.2 -0.1,0.4 V 75.2 c 0,0.1 0.1,0.3 0.1,0.4 0.1,0.1 0.2,0.1 0.3,0.1 h 149.7 c 0.1,0 0.3,-0.1 0.3,-0.1 0.1,-0.1 0.1,-0.2 0.1,-0.4 V -75.7 c 0.1,-0.2 0.1,-0.3 0,-0.4 M -1.6,-75.2 H 147.1 V 74.7 H -1.6 Z"
   id="path446" />
					<path
   class="st1"
   d="M 147.1,-75.2 H -1.6 V 74.7 H 147.1 V -75.2 m -0.7,0.5 v 0.2 l 0.2,-0.2 V 73.9 H -0.6 -0.8 V -74.7 Z"
   id="path448" />
					<path
   class="st2"
   d="m 140,-67.9 6.4,-6.5 v -0.2 H -0.9 V 73.9 h 0.2 L 5.7,67.5 V -67.9 Z"
   id="path450" />
					<path
   class="st3"
   d="m 140,-67.9 v 0 L 139.9,67.2 H 6.2 l -0.3,0.3 -6.4,6.4 H 146.7 V -74.7 l -0.2,0.2 z"
   id="path452" />
					<path
   class="st4"
   d="m 139.9,-67.8 v 0 L 5.8,-67.9 V 67.5 l 0.3,-0.3 h 133.7 z"
   id="path454" />
				</g>
			</g>
		</g>
	</g><g
   transform="matrix(0.80828857,0,0,0.80828857,732.13265,420.49159)"
   id="g478">
		<g
   id="g476">
			<g
   id="g474">
				<g
   id="Duplicate_Items_Folder_Symbol_4_0_Layer0_0_FILL_00000081646626589692745090000014802872453466246544_">
					<path
   class="st0"
   d="m 146.8,-76.1 c -0.1,-0.1 -0.2,-0.1 -0.3,-0.1 H -3.3 c -0.1,0 -0.3,0.1 -0.3,0.1 -0.1,0.1 -0.1,0.2 -0.1,0.4 V 75.2 c 0,0.1 0.1,0.3 0.1,0.4 0.1,0.1 0.2,0.1 0.3,0.1 h 149.7 c 0.1,0 0.3,-0.1 0.3,-0.1 0.1,-0.1 0.1,-0.2 0.1,-0.4 V -75.7 c 0.1,-0.2 0.1,-0.3 0,-0.4 M -2.8,-75.2 H 146 V 74.7 H -2.8 Z"
   id="path463" />
					<path
   class="st1"
   d="M 146,-75.2 H -2.8 V 74.7 H 146 V -75.2 m -0.8,0.5 v 0.2 l 0.2,-0.2 V 73.9 H -1.8 -2 V -74.7 Z"
   id="path465" />
					<path
   class="st2"
   d="m 138.8,-67.9 6.4,-6.5 v -0.2 H -2 V 73.9 h 0.2 L 4.6,67.5 V -67.9 Z"
   id="path467" />
					<path
   class="st3"
   d="m 138.8,-67.9 v 0 L 138.7,67.2 H 5 l -0.3,0.3 -6.4,6.4 H 145.5 V -74.7 l -0.2,0.2 z"
   id="path469" />
					<path
   class="st4"
   d="m 138.7,-67.8 v 0 L 4.7,-67.9 V 67.5 L 5,67.2 h 133.7 z"
   id="path471" />
				</g>
			</g>
		</g>
	</g><g
   transform="matrix(0.80828857,0,0,0.80828857,364.68265,420.24159)"
   id="g546">
		<g
   id="g544">
			<g
   id="g542">
				<g
   id="Duplicate_Items_Folder_Symbol_4_0_Layer0_0_FILL_00000047781479519611349770000014411235579538908351_">
					<path
   class="st0"
   d="m 150.3,-76.1 c -0.1,-0.1 -0.2,-0.1 -0.3,-0.1 H 0.2 c -0.1,0 -0.3,0.1 -0.3,0.1 -0.1,0.1 -0.1,0.2 -0.1,0.4 V 75.2 c 0,0.1 0.1,0.3 0.1,0.4 0.1,0.1 0.2,0.1 0.3,0.1 H 150 c 0.1,0 0.3,-0.1 0.3,-0.1 0.1,-0.1 0.1,-0.2 0.1,-0.4 V -75.7 c 0.1,-0.2 0,-0.3 -0.1,-0.4 M 0.7,-75.2 H 149.4 V 74.7 H 0.7 Z"
   id="path531" />
					<path
   class="st1"
   d="M 149.5,-75.2 H 0.7 V 74.7 H 149.4 V -75.2 m -0.7,0.5 v 0.2 l 0.2,-0.2 V 73.9 H 1.7 1.5 V -74.7 Z"
   id="path533" />
					<path
   class="st2"
   d="m 142.3,-67.9 6.4,-6.5 v -0.2 H 1.5 V 73.9 H 1.7 L 8.1,67.5 V -67.9 Z"
   id="path535" />
					<path
   class="st3"
   d="m 142.3,-67.9 v 0 L 142.2,67.2 H 8.5 L 8.2,67.5 1.8,73.9 H 149 V -74.7 l -0.2,0.2 z"
   id="path537" />
					<path
   class="st8"
   d="m 142.2,-67.8 v 0 L 8.2,-67.9 V 67.5 l 0.3,-0.3 h 133.7 z"
   id="path539" />
				</g>
			</g>
		</g>
	</g><g
   transform="matrix(0.80828857,0,0,0.80828857,487.13265,420.24159)"
   id="g563">
		<g
   id="g561">
			<g
   id="g559">
				<g
   id="Duplicate_Items_Folder_Symbol_4_0_Layer0_0_FILL_00000155867567608452467580000017528469487584083368_">
					<path
   class="st0"
   d="m 149.1,-76.1 c -0.1,-0.1 -0.2,-0.1 -0.3,-0.1 H -0.9 c -0.1,0 -0.3,0.1 -0.3,0.1 -0.1,0.1 -0.1,0.2 -0.1,0.4 V 75.2 c 0,0.1 0.1,0.3 0.1,0.4 0.1,0.1 0.2,0.1 0.3,0.1 h 149.7 c 0.1,0 0.3,-0.1 0.3,-0.1 0.1,-0.1 0.1,-0.2 0.1,-0.4 V -75.7 c 0.1,-0.2 0,-0.3 -0.1,-0.4 M -0.4,-75.2 H 148.3 V 74.7 H -0.4 Z"
   id="path548" />
					<path
   class="st1"
   d="M 148.3,-75.2 H -0.4 V 74.7 H 148.3 V -75.2 m -0.7,0.5 v 0.2 l 0.2,-0.2 V 73.9 H 0.5 0.3 V -74.7 Z"
   id="path550" />
					<path
   class="st2"
   d="m 141.2,-67.9 6.4,-6.5 v -0.2 H 0.3 V 73.9 H 0.5 L 7,67.5 V -67.9 Z"
   id="path552" />
					<path
   class="st3"
   d="m 141.2,-67.9 v 0 L 141.1,67.2 H 7.3 L 7,67.5 0.6,73.9 H 147.8 V -74.7 l -0.2,0.2 z"
   id="path554" />
					<path
   class="st4"
   d="m 141.1,-67.8 v 0 L 7,-67.9 V 67.5 L 7.3,67.2 H 141 v -135 z"
   id="path556" />
				</g>
			</g>
		</g>
	</g><g
   transform="matrix(0.80828857,0,0,0.80828857,609.58265,420.24159)"
   id="g580">
		<g
   id="g578">
			<g
   id="g576">
				<g
   id="Duplicate_Items_Folder_Symbol_4_0_Layer0_0_FILL_00000095322087089564154990000016987976499450678191_">
					<path
   class="st0"
   d="m 148,-76.1 c -0.1,-0.1 -0.2,-0.1 -0.3,-0.1 H -2.1 c -0.1,0 -0.3,0.1 -0.3,0.1 -0.1,0.1 -0.1,0.2 -0.1,0.4 V 75.2 c 0,0.1 0.1,0.3 0.1,0.4 0.1,0.1 0.2,0.1 0.3,0.1 h 149.7 c 0.1,0 0.3,-0.1 0.3,-0.1 0.1,-0.1 0.1,-0.2 0.1,-0.4 V -75.7 c 0.1,-0.2 0.1,-0.3 0,-0.4 M -1.6,-75.2 H 147.1 V 74.7 H -1.6 Z"
   id="path565" />
					<path
   class="st1"
   d="M 147.1,-75.2 H -1.6 V 74.7 H 147.1 V -75.2 m -0.7,0.5 v 0.2 l 0.2,-0.2 V 73.9 H -0.6 -0.8 V -74.7 Z"
   id="path567" />
					<path
   class="st2"
   d="m 140,-67.9 6.4,-6.5 v -0.2 H -0.9 V 73.9 h 0.2 L 5.7,67.5 V -67.9 Z"
   id="path569" />
					<path
   class="st3"
   d="m 140,-67.9 v 0 L 139.9,67.2 H 6.2 l -0.3,0.3 -6.4,6.4 H 146.7 V -74.7 l -0.2,0.2 z"
   id="path571" />
					<path
   class="st7"
   d="m 139.9,-67.8 v 0 L 5.8,-67.9 V 67.5 l 0.3,-0.3 h 133.7 z"
   id="path573" />
				</g>
			</g>
		</g>
	</g><g
   transform="matrix(0.80828857,0,0,0.80828857,732.13265,420.24159)"
   id="g597">
		<g
   id="g595">
			<g
   id="g593">
				<g
   id="Duplicate_Items_Folder_Symbol_4_0_Layer0_0_FILL_00000028293577923037564990000009941849023239914172_">
					<path
   class="st0"
   d="m 146.8,-76.1 c -0.1,-0.1 -0.2,-0.1 -0.3,-0.1 H -3.3 c -0.1,0 -0.3,0.1 -0.3,0.1 -0.1,0.1 -0.1,0.2 -0.1,0.4 V 75.2 c 0,0.1 0.1,0.3 0.1,0.4 0.1,0.1 0.2,0.1 0.3,0.1 h 149.7 c 0.1,0 0.3,-0.1 0.3,-0.1 0.1,-0.1 0.1,-0.2 0.1,-0.4 V -75.7 c 0.1,-0.2 0.1,-0.3 0,-0.4 M -2.8,-75.2 H 146 V 74.7 H -2.8 Z"
   id="path582" />
					<path
   class="st1"
   d="M 146,-75.2 H -2.8 V 74.7 H 146 V -75.2 m -0.8,0.5 v 0.2 l 0.2,-0.2 V 73.9 H -1.8 -2 V -74.7 Z"
   id="path584" />
					<path
   class="st2"
   d="m 138.8,-67.9 6.4,-6.5 v -0.2 H -2 V 73.9 h 0.2 L 4.6,67.5 V -67.9 Z"
   id="path586" />
					<path
   class="st3"
   d="m 138.8,-67.9 v 0 L 138.7,67.2 H 5 l -0.3,0.3 -6.4,6.4 H 145.5 V -74.7 l -0.2,0.2 z"
   id="path588" />
					<path
   class="st9"
   d="m 138.7,-67.8 v 0 L 4.7,-67.9 V 67.5 L 5,67.2 h 133.7 z"
   id="path590" />
				</g>
			</g>
		</g>
	</g>
<g
   id="g631"
   transform="translate(-3.0673523,0.19158903)">
	<path
   class="st10"
   d="m 551.3,161.6 c 0.1,-0.3 0.5,-1.3 0.2,-1.9 -0.2,-0.6 -1.3,-3.1 -1.6,-3.8 -0.3,-0.7 -0.5,-1.3 -1.4,-1.6 0.4,-0.8 0.5,-1.9 -0.5,-2.7 -1.1,-0.8 -10.2,-6.8 -12.1,-7.9 l -7,2.9 c -0.6,2.1 -2.9,12.8 -3.1,14.1 -0.2,1.3 0.7,2 1.5,2.3 -0.4,0.9 -0.2,1.5 0.1,2.2 0.3,0.7 1.3,3.2 1.6,3.8 0.2,0.6 1.2,1.1 1.5,1.2 -0.3,0.8 -0.6,1.2 -0.3,1.9 0.3,0.7 1.3,3.2 1.7,4.1 0.4,1 1.5,1.1 1.9,1.2 -0.7,0.9 -0.7,1.5 -0.4,2.1 0.2,0.6 1.2,3 1.7,4.1 0.4,1.1 1.1,1.2 1.6,1.2 -0.7,0.9 -0.7,1.2 -0.4,1.9 0.3,0.7 1.5,3.4 1.9,4.3 0.4,0.9 1.2,1.1 1.6,0.9 -0.7,0.5 -0.7,1.2 -0.5,1.8 0.2,0.6 1.4,3.3 1.9,4.5 0.5,1.2 1,1.2 1.5,1 -0.5,0.4 -0.6,1.1 -0.2,2.1 0.4,1 1.5,3.5 1.8,4.3 0.3,0.8 1.1,0.8 1.6,0.9 -0.4,0.8 -0.7,1.4 -0.4,2.2 0.4,0.9 1.1,2.6 1.6,3.8 0.5,1.3 1,1.1 1.5,1.1 -0.5,0.5 -0.8,0.7 -0.4,1.5 0.3,0.8 1.6,4 2.1,5.3 0.5,1.3 2.7,3.9 12.9,-0.7 10.5,-3.9 10.2,-7.3 9.7,-8.5 -0.5,-1.3 -1.9,-4.4 -2.2,-5.2 -0.3,-0.8 -0.6,-0.8 -1.4,-0.8 0.3,-0.3 0.8,-0.6 0.2,-1.8 -0.5,-1.3 -1.2,-3 -1.6,-3.8 -0.4,-0.9 -1,-1.1 -1.8,-1.3 0.3,-0.4 0.9,-0.9 0.5,-1.8 -0.3,-0.8 -1.4,-3.4 -1.8,-4.3 -0.4,-1 -1,-1.4 -1.6,-1.3 0.4,-0.2 0.8,-0.6 0.3,-1.8 -0.5,-1.2 -1.6,-4 -1.8,-4.5 -0.3,-0.6 -0.8,-1.1 -1.6,-0.9 0.4,-0.2 0.9,-0.9 0.5,-1.8 -0.4,-0.9 -1.4,-3.7 -1.7,-4.3 -0.3,-0.7 -0.5,-0.9 -1.6,-1.1 0.4,-0.4 0.8,-0.9 0.3,-2 -0.4,-1.1 -1.4,-3.5 -1.7,-4.1 -0.2,-0.6 -0.6,-1.1 -1.8,-1.2 0.2,-0.4 0.9,-1.2 0.5,-2.2 -0.4,-1 -1.4,-3.5 -1.7,-4.1 -0.3,-0.8 -0.8,-0.9 -1.6,-1.3 z"
   id="path601" />
	<path
   class="st11"
   d="m 547.5,153.1 c 1.8,2.7 23,55.2 23.9,58.2 0.9,3 -7.9,8 -16.2,9.7 -3,0.6 -0.3,-2.3 5.3,-4.6 5.6,-2.3 6.6,-6.2 3.2,-15.1 -3.6,-8.9 -18.2,-51.1 -16.2,-48.2 z"
   id="path603" />
	<path
   class="st2"
   d="m 529.6,158.3 c 0.4,-3.5 3.8,-5.2 4.5,-0.1 0.7,5.1 8.9,21.9 16.1,39.3 7.3,17.3 6.6,20.9 2.4,19.5 -2.4,-0.8 -17.9,-41.7 -20.5,-48.4 -2.6,-6.7 -2.5,-10.3 -2.5,-10.3 z"
   id="path605" />
	<path
   class="st10"
   d="m 534.9,151.1 c 3.4,-1.3 5.6,-2.5 7.1,-3.6 -2.6,-1.7 -5.2,-3.3 -6.1,-3.9 l -7,2.9 c -0.3,1 -1,4 -1.6,7 1.8,-0.2 4.3,-0.9 7.6,-2.4 z"
   id="path607" />
	<path
   class="st11"
   d="m 538.6,160.5 c -4.9,2 -9.7,3.3 -11.3,2.9 -0.2,0 -0.4,-0.3 -0.3,-0.5 0,-0.2 0.3,-0.4 0.5,-0.3 2.3,0.5 15.2,-3.6 20.8,-8.6 0.2,-0.2 0.5,-0.1 0.6,0 0.2,0.2 0.1,0.5 0,0.6 -2.5,2.2 -6.5,4.3 -10.3,5.9 z"
   id="path609" />
	<path
   class="st11"
   d="m 541.5,167.7 c -4.9,2 -9.7,3.3 -11.3,2.9 -0.2,0 -0.4,-0.3 -0.3,-0.5 0,-0.2 0.3,-0.4 0.5,-0.3 2.3,0.5 15.2,-3.6 20.8,-8.6 0.2,-0.2 0.5,-0.1 0.6,0 0.2,0.2 0.1,0.5 0,0.6 -2.5,2.2 -6.4,4.3 -10.3,5.9 z"
   id="path611" />
	<path
   class="st11"
   d="m 544.5,174.9 c -4.9,2 -9.7,3.3 -11.3,2.9 -0.2,0 -0.4,-0.3 -0.3,-0.5 0,-0.2 0.3,-0.4 0.5,-0.3 2.3,0.5 15.2,-3.6 20.8,-8.6 0.2,-0.2 0.5,-0.1 0.6,0 0.2,0.2 0.1,0.5 0,0.6 -2.5,2.3 -6.4,4.4 -10.3,5.9 z"
   id="path613" />
	<path
   class="st11"
   d="m 547.5,182.2 c -4.9,2 -9.7,3.3 -11.3,2.9 -0.2,0 -0.4,-0.3 -0.3,-0.5 0,-0.2 0.3,-0.4 0.5,-0.3 2.3,0.5 15.2,-3.6 20.8,-8.6 0.2,-0.2 0.5,-0.1 0.6,0 0.2,0.2 0.1,0.5 0,0.6 -2.5,2.2 -6.4,4.3 -10.3,5.9 z"
   id="path615" />
	<path
   class="st11"
   d="m 550.5,189.4 c -4.9,2 -9.7,3.3 -11.3,2.9 -0.2,0 -0.4,-0.3 -0.3,-0.5 0,-0.2 0.3,-0.4 0.5,-0.3 2.3,0.5 15.2,-3.6 20.8,-8.6 0.2,-0.2 0.5,-0.1 0.6,0 0.2,0.2 0.1,0.5 0,0.6 -2.5,2.3 -6.5,4.4 -10.3,5.9 z"
   id="path617" />
	<path
   class="st11"
   d="m 553.5,196.7 c -4.9,2 -9.7,3.3 -11.3,2.9 -0.2,0 -0.4,-0.3 -0.3,-0.5 0,-0.2 0.3,-0.4 0.5,-0.3 2.3,0.5 15.2,-3.6 20.8,-8.6 0.2,-0.2 0.5,-0.1 0.6,0 0.2,0.2 0.1,0.5 0,0.6 -2.5,2.2 -6.5,4.3 -10.3,5.9 z"
   id="path619" />
	<path
   class="st11"
   d="m 556.4,203.9 c -4.9,2 -9.7,3.3 -11.3,2.9 -0.2,0 -0.4,-0.3 -0.3,-0.5 0,-0.2 0.3,-0.4 0.5,-0.3 2.3,0.5 15.2,-3.6 20.8,-8.6 0.2,-0.2 0.5,-0.1 0.6,0 0.2,0.2 0.1,0.5 0,0.6 -2.5,2.3 -6.4,4.3 -10.3,5.9 z"
   id="path621" />
	<path
   class="st11"
   d="m 559.4,211.2 c -4.9,2 -9.7,3.3 -11.3,2.9 -0.2,0 -0.4,-0.3 -0.3,-0.5 0,-0.2 0.3,-0.4 0.5,-0.3 2.3,0.5 15.2,-3.6 20.8,-8.6 0.2,-0.2 0.5,-0.1 0.6,0 0.2,0.2 0.1,0.5 0,0.6 -2.5,2.2 -6.4,4.3 -10.3,5.9 z"
   id="path623" />
	<path
   class="st12"
   d="m 526.6,143.9 c 0.7,1.8 1.1,2.9 2.3,2.6 2.3,-0.5 5,-1.4 7,-2.9 1,-0.7 0.4,-2.2 -0.2,-3.5 -3.1,1.3 -9.1,3.8 -9.1,3.8 z"
   id="path625" />
	<path
   class="st13"
   d="m 525,141.6 1.1,2.7 h 0.1 c 0.5,0.3 2.8,-0.2 5.4,-1.2 2.6,-1.1 4.5,-2.3 4.7,-2.9 h 0.1 l -1.1,-2.7 z"
   id="path627" />
	<path
   class="st14"
   d="m 535.1,137.4 c 0.2,0.5 -1.9,1.9 -4.7,3.1 -2.8,1.2 -5.3,1.7 -5.5,1.1 -0.2,-0.5 1.9,-1.9 4.7,-3.1 2.9,-1.1 5.3,-1.6 5.5,-1.1 z"
   id="path629" />
</g>
<g
   id="g667"
   transform="translate(-3.0673523,0.19158903)">
	<g
   id="g665">
		<path
   class="st15"
   d="m 618.7,303.1 c 11.9,-4.9 43.3,-20.8 43.3,-20.8 0,0 5.8,3.6 9.7,3.4 8.8,-0.5 14.2,-1.2 17.6,7.1 -12.7,9 -43.4,28.2 -43.4,28.2 0,0 -0.5,-9.8 -8.8,-14 -8.3,-4.2 -11.8,1.3 -18.4,-3.9 z"
   id="path633" />
		<path
   class="st16"
   d="m 621.2,303 c 8.6,-1.7 35.9,6.5 44.3,1.8 17.1,-9.5 -3.7,-21.5 -3.7,-21.5 0,0 6.2,3.5 10.1,3.2 8.8,-0.5 13.4,-0.1 16.5,7 -12.7,9 -41.9,27.1 -41.9,27.1 0,0 -0.2,-9.9 -8.5,-14.1 -8.2,-4.2 -11.1,0.3 -16.8,-3.5 z"
   id="path635" />
		<path
   class="st15"
   d="m 645.9,320.9 c 0.5,-2.1 8.3,-8.3 17.2,-13.5 8.9,-5.2 26.3,-14.7 26.3,-14.7 0,0 6,-4.1 13.5,0.5 7.4,4.6 9.4,11 21.7,13.5 -14.1,4.9 -41,20 -41,20 0,0 -5.5,-1.4 -10.4,-5.8 -8.2,-7.1 -18.2,-8.2 -27.3,0 z"
   id="path637" />
		<path
   class="st17"
   d="m 645.9,320.9 c 0.5,-2.1 8.3,-8.3 17.2,-13.5 8.9,-5.2 26.3,-14.7 26.3,-14.7 0,0 6,-4.1 13.5,0.5 7.4,4.6 9.4,11 21.7,13.5 -5.3,1.8 -27,-16 -48.4,-5.4 -11.3,5.6 6.5,24.2 6.5,24.2 0,0 -4.7,-1.7 -9.7,-6 -8.2,-7.2 -18.8,-7.8 -27.1,1.4 z"
   id="path639" />
		<g
   id="g651">
			<path
   class="st18"
   d="m 707.9,306.3 c -0.1,0 -0.1,-0.1 -0.2,-0.1 -8.9,-8.4 -19.7,-9.7 -19.8,-9.7 -0.3,0 -0.5,-0.3 -0.5,-0.6 0,-0.3 0.3,-0.5 0.6,-0.5 0.1,0 11.3,1.3 20.4,9.9 0.2,0.2 0.2,0.5 0,0.7 -0.1,0.3 -0.3,0.4 -0.5,0.3 z"
   id="path641" />
			<path
   class="st18"
   d="m 702.3,309.8 c -0.1,0 -0.1,-0.1 -0.2,-0.1 -8.9,-8.4 -19.7,-9.7 -19.8,-9.7 -0.3,0 -0.5,-0.3 -0.5,-0.6 0,-0.3 0.3,-0.5 0.6,-0.5 0.1,0 11.3,1.3 20.4,9.9 0.2,0.2 0.2,0.5 0,0.7 -0.1,0.3 -0.3,0.3 -0.5,0.3 z"
   id="path643" />
			<path
   class="st18"
   d="m 696.6,313.2 c -0.1,0 -0.1,-0.1 -0.2,-0.1 -8.9,-8.4 -19.7,-9.7 -19.8,-9.7 -0.3,0 -0.5,-0.3 -0.5,-0.6 0,-0.3 0.3,-0.5 0.6,-0.5 0.1,0 11.3,1.3 20.4,10 0.2,0.2 0.2,0.5 0,0.7 -0.1,0.3 -0.3,0.3 -0.5,0.2 z"
   id="path645" />
			<path
   class="st18"
   d="m 691,316.7 c -0.1,0 -0.1,-0.1 -0.2,-0.1 -8.9,-8.4 -19.7,-9.7 -19.8,-9.7 -0.3,0 -0.5,-0.3 -0.5,-0.6 0,-0.3 0.3,-0.5 0.6,-0.5 0.1,0 11.3,1.3 20.4,10 0.2,0.2 0.2,0.5 0,0.7 -0.1,0.2 -0.3,0.3 -0.5,0.2 z"
   id="path647" />
			<path
   class="st18"
   d="m 685.3,320.2 c -0.1,0 -0.1,-0.1 -0.2,-0.1 -8.9,-8.4 -19.7,-9.7 -19.8,-9.7 -0.3,0 -0.5,-0.3 -0.5,-0.6 0,-0.3 0.3,-0.5 0.6,-0.5 0.1,0 11.3,1.3 20.4,9.9 0.2,0.2 0.2,0.5 0,0.7 -0.1,0.3 -0.3,0.3 -0.5,0.3 z"
   id="path649" />
		</g>
		<g
   id="g663">
			<path
   class="st18"
   d="m 677.3,296 c -0.1,0 -0.1,-0.1 -0.2,-0.1 -8.3,-8.4 -18.8,-9.8 -18.9,-9.9 -0.3,0 -0.5,-0.3 -0.4,-0.6 0,-0.3 0.3,-0.5 0.6,-0.4 0.1,0 10.9,1.5 19.4,10.1 0.2,0.2 0.2,0.5 0,0.7 -0.1,0.2 -0.3,0.2 -0.5,0.2 z"
   id="path653" />
			<path
   class="st18"
   d="m 671.7,299.2 c -0.1,0 -0.1,-0.1 -0.2,-0.1 -8.3,-8.4 -18.8,-9.8 -18.9,-9.8 -0.3,0 -0.5,-0.3 -0.4,-0.6 0,-0.3 0.3,-0.5 0.6,-0.4 0.1,0 10.9,1.5 19.4,10.1 0.2,0.2 0.2,0.5 0,0.7 -0.1,0.1 -0.3,0.1 -0.5,0.1 z"
   id="path655" />
			<path
   class="st18"
   d="m 666.2,302.4 c -0.1,0 -0.1,-0.1 -0.2,-0.1 -8.3,-8.4 -18.7,-9.8 -18.9,-9.9 -0.3,0 -0.5,-0.3 -0.4,-0.6 0,-0.3 0.3,-0.5 0.6,-0.4 0.1,0 10.9,1.5 19.4,10.1 0.2,0.2 0.2,0.5 0,0.7 -0.1,0.2 -0.3,0.2 -0.5,0.2 z"
   id="path657" />
			<path
   class="st18"
   d="m 660.7,305.6 c -0.1,0 -0.1,-0.1 -0.2,-0.1 -8.3,-8.4 -18.8,-9.8 -18.9,-9.9 -0.3,0 -0.5,-0.3 -0.4,-0.6 0,-0.3 0.3,-0.5 0.6,-0.4 0.1,0 10.9,1.5 19.4,10.1 0.2,0.2 0.2,0.5 0,0.7 -0.2,0.2 -0.4,0.2 -0.5,0.2 z"
   id="path659" />
			<path
   class="st18"
   d="m 655.1,308.7 c -0.1,0 -0.1,-0.1 -0.2,-0.1 -8.3,-8.4 -18.8,-9.8 -18.9,-9.8 -0.3,0 -0.5,-0.3 -0.4,-0.6 0,-0.3 0.3,-0.5 0.6,-0.4 0.1,0 10.9,1.5 19.4,10.1 0.2,0.2 0.2,0.5 0,0.7 -0.1,0.2 -0.3,0.2 -0.5,0.1 z"
   id="path661" />
		</g>
	</g>
</g>
<g
   id="g689"
   transform="translate(-3.0673523,0.19158903)">
	<g
   id="g683">
		<path
   class="st2"
   d="m 514.3,78.9 c 5.3,-5.3 25,-21.6 48.7,-27.3 -1.3,-13.4 22.4,-21.2 30.3,-13.5 4,5.9 -0.6,19.4 -12.7,22 -10,2.2 -15.7,-4.2 -15.7,-4.2 0,0 -31.6,17.1 -42.5,25.4 -10.2,7.9 -14.2,3.6 -8.1,-2.4 z"
   id="path669" />
		<path
   class="st19"
   d="m 514.3,78.9 c 5.3,-5.3 25,-21.6 48.7,-27.3 -1.3,-13.4 22.4,-21.2 30.3,-13.5 3.4,5.3 -0.8,18.8 -12.9,21.4 C 570.4,61.7 565,56 565,56 c 0,0 -31.6,17.1 -42.5,25.4 -10.3,7.8 -14.3,3.5 -8.2,-2.5 z"
   id="path671" />
		<path
   class="st20"
   d="m 579.8,36.3 c 6,-1.3 14.4,-0.6 13.1,6.4 -1.4,7.6 -12,14.6 -20.3,13.7 -9.6,-1 -9.4,-8.2 -6.2,-12.4 3.5,-4.5 7.5,-6.4 13.4,-7.7 z"
   id="path673" />
		<path
   class="st21"
   d="m 572.5,55.9 c 8.3,0.9 18.9,-6.1 20.3,-13.7 0.2,-1.1 0.1,-2 -0.1,-2.8 0.4,0.9 0.5,2 0.3,3.4 -1.4,7.6 -12,14.6 -20.3,13.7 -5,-0.5 -7.3,-2.7 -8,-5.3 0.9,2.3 3.2,4.2 7.8,4.7 z"
   id="path675" />
		<path
   class="st22"
   d="m 589,43.5 c 1.2,-6.7 -8.4,-6.6 -14.1,-5.4 -0.3,0.1 -0.5,0.1 -0.8,0.2 1.7,-0.7 3.5,-1.5 5.6,-1.7 4.3,-0.5 13.2,-0.5 12,6.1 -1.3,7.2 -11.8,13.2 -18.8,13.1 -1.2,0 -2.2,-0.4 -3.1,-0.7 7.9,0.8 17.9,-4.4 19.2,-11.6 z"
   id="path677" />
		<path
   class="st23"
   d="m 560.7,59.3 c 0.9,-2.5 -2.3,-7.4 -4.2,-6.6 -6.8,1.9 -30.1,13.2 -44.1,27.7 -2.3,2.5 -1.8,6.3 1.1,6.7 3,0.4 4,-0.8 20.7,-12.2 16.7,-11.5 26.5,-15.6 26.5,-15.6 z"
   id="path679" />
		<path
   class="st24"
   d="m 514.1,85.8 c -0.2,-0.1 -0.4,-0.3 -0.6,-0.4 2.4,-0.2 3.5,-1.3 18,-11.3 16.7,-11.5 22.1,-14.3 22.1,-14.3 3.4,-2.2 3.4,-4.3 2.3,-5.8 -0.5,-0.5 0,-0.6 0.7,-0.2 1.7,1.2 3.1,3.4 2.4,5.3 0,0 -9.8,4 -26.5,15.5 -13.3,9.1 -15.9,11.3 -18.4,11.2 z"
   id="path681" />
	</g>
	<path
   class="st25"
   d="m 548.5,57.3 c 2.2,-0.9 4,-0.4 0.7,1.6 -3.3,2 -10.8,6 -24.3,15.3 -4.7,3.3 -5,0.5 -1.5,-2.1 6.5,-4.8 17.5,-11.8 25.1,-14.8 z"
   id="path685" />
	<path
   class="st26"
   d="m 594.1,43.5 c -1,3.7 -3.7,10.3 -17.1,15.3 7.2,0.6 17.2,-6.9 17.1,-15.3 z"
   id="path687" />
</g>
<g
   id="g715"
   transform="translate(-3.0673523,0.19158903)">
	<g
   id="g703">
		<g
   id="g693">
			<path
   class="st27"
   d="m 391.3,323 c 6.7,-5.9 31.8,-23 58.3,-29.8 -1.2,-1.5 -1.3,-3.3 -0.8,-5.1 1.2,-4.6 19.4,-13 20.8,-11.7 1,1.3 -12.9,9.6 -12.2,10.6 1.5,2.1 15.6,-7.5 16.7,-6.3 1.1,1.2 -12.9,10.9 -11.3,11.9 2.9,1.8 15,-7 16.5,-6.1 2.4,1.4 -13,14.4 -18.7,14.7 -4.1,0.2 -7.8,-3.2 -7.8,-3.2 0,0 -38.9,17 -52.6,26 -12.6,8.5 -16.6,5.7 -8.9,-1 z"
   id="path691" />
		</g>
		<path
   class="st23"
   d="m 444.5,303 c 1.3,-2.9 -2.2,-9 -4.5,-8.2 -8.3,1.7 -37,13.3 -54.7,29.4 -3,2.8 -2.7,7.4 0.8,8 3.5,0.7 4.8,-0.6 25.6,-12.9 20.7,-12.2 32.8,-16.3 32.8,-16.3 z"
   id="path695" />
		<path
   class="st24"
   d="m 386.8,330.8 c -0.3,-0.2 -0.5,-0.3 -0.7,-0.6 2.9,0 4.3,-1.3 22.3,-12 20.8,-12.3 27.5,-15.2 27.5,-15.2 4.2,-2.4 4.4,-4.8 3.3,-6.8 -0.5,-0.6 0,-0.8 0.8,-0.2 1.9,1.5 3.4,4.3 2.5,6.5 0,0 -12,4 -32.8,16.3 -16.7,9.9 -19.9,12.3 -22.9,12 z"
   id="path697" />
		<path
   class="st25"
   d="m 430,299.6 c 2.7,-0.9 4.8,-0.1 0.7,2 -4.1,2.1 -13.4,6.2 -30.1,16.3 -5.8,3.5 -6,0.2 -1.6,-2.6 8.1,-5.2 21.8,-12.7 31,-15.7 z"
   id="path699" />
		<path
   class="st20"
   d="m 444.8,299 c 0,0 7.1,-3.1 7.6,-3.2 3.4,2.8 6.1,3.6 10.9,2.6 4.7,-1 12.7,-8 14.3,-9.5 1.7,-1.5 0,1 -1.8,2.5 -1.8,1.5 -10.6,9.5 -15.9,9 -4.7,-0.4 -6.9,-3.2 -6.9,-3.2 l -7.8,3.6 c 0,0 -0.1,-1.1 -0.4,-1.8 z"
   id="path701" />
	</g>
	<path
   class="st21"
   d="m 458.8,281 c 2.3,-1.4 6.6,-3.6 7,-3.2 0.4,0.3 -4.5,2.7 -7,4.1 -2.4,1.4 -3.5,1.2 0,-0.9 z"
   id="path705" />
	<path
   class="st21"
   d="m 464.1,285.8 c 3,-1.4 6.1,-3.5 6.2,-3 0,0.3 -4.1,2.8 -6.6,4.2 -2.4,1.3 -3.3,0.5 0.4,-1.2 z"
   id="path707" />
	<path
   class="st21"
   d="m 469.8,291.4 c 2.3,-1.4 7.6,-4.2 7.6,-3.6 0,0.4 -4.9,3.4 -7.4,4.7 -2.5,1.3 -3.7,1 -0.2,-1.1 z"
   id="path709" />
	<path
   class="st20"
   d="m 468.5,277.4 c -0.6,-0.3 -10.7,6.4 -11.9,9 -0.6,0.8 -0.5,0.9 0.4,0 1,-0.9 12.3,-8.6 11.5,-9 z"
   id="path711" />
	<path
   class="st20"
   d="m 473.4,281.8 c -0.6,-0.3 -10.7,6.4 -11.9,9 -0.6,0.8 -0.5,0.9 0.4,0 0.9,-1 12.2,-8.6 11.5,-9 z"
   id="path713" />
</g>
<g
   id="g765"
   transform="translate(-3.0673523,0.19158903)">
	<path
   class="st28"
   d="m 166,376.2 c -2.5,0.7 -1.2,4.9 0.5,4.4 1.2,3.9 4,19.2 3.6,25 -0.4,5.7 -1.2,13 2.4,21.2 3.5,8.2 7.4,18.1 7.7,22.4 0.3,4.4 0.6,10.1 4.3,12.3 3.7,2.2 20,-1.6 22.4,-6.6 1.5,-1.9 0.2,-6.6 -2.3,-11.6 -2.5,-5 -5.4,-18.9 -6.3,-24.1 -0.9,-5.1 -1.2,-7.5 -9.9,-19.2 -2.9,-3.3 -9.5,-20.4 -10.4,-22.6 1.7,-0.5 1.1,-5 -1.6,-4.3 -3.4,1.1 -10.4,3.1 -10.4,3.1 z"
   id="path717" />
	<path
   class="st29"
   d="m 186.5,460.2 c -3.7,-2.2 -4,-7.9 -4.3,-12.2 -0.3,-4.3 -4.1,-14.1 -7.7,-22.2 -3.5,-8.1 -2.8,-15.4 -2.3,-21 0.4,-5.7 -2.6,-20.6 -3.7,-24.5 3,-0.8 7.3,-2.2 9.8,-2.9 1.3,-0.9 0.7,-4.8 -1.8,-4.1 -3.5,1 -10.5,3 -10.5,3 -2.5,0.7 -1.2,4.9 0.5,4.4 1.2,3.9 4,19.2 3.6,25 -0.4,5.7 -1.2,13 2.4,21.2 3.5,8.2 7.4,18.1 7.7,22.4 0.3,4.4 0.6,10.1 4.3,12.3 3.2,1.9 16.1,-0.7 20.9,-4.7 -5.8,3.1 -16.1,5 -18.9,3.3 z"
   id="path719" />
	<path
   class="st30"
   d="m 186.9,400.5 c -2.9,-3.3 -9.5,-20.4 -10.4,-22.6 1.7,-0.5 -2,0.6 -3.6,1.1 0.9,2.2 7.5,19.3 10.4,22.6 8.7,11.7 9,14 9.9,19.2 0.9,5.1 3.8,19.1 6.3,24.1 2.5,5 3.8,9.7 2.3,11.6 -1,2 2.4,1.6 3.6,-1.1 1.5,-1.9 0.2,-6.6 -2.3,-11.6 -2.5,-5 -5.4,-18.9 -6.3,-24.1 -0.9,-5.2 -1.2,-7.5 -9.9,-19.2 z"
   id="path721" />
	<path
   class="st2"
   d="m 171.4,423.9 c 0.3,0.9 0.7,1.9 1.1,2.8 2.1,5 4.4,10.6 5.9,15.2 11.1,0.2 19.7,-4.5 23.4,-7 -1.5,-5.8 -2.9,-12.5 -3.4,-15.7 -0.2,-1.1 -0.4,-2.1 -0.6,-3.1 -7.3,3.7 -21.5,7.6 -26.4,7.8 z"
   id="path723" />
	<path
   class="st31"
   d="m 171.7,425.2 c 0.3,0.8 0.6,1.6 0.9,2.4 1.9,4.3 4,9.1 5.3,13 11,-0.3 19.7,-4.7 23.4,-7 -1.3,-5 -2.4,-10.8 -2.8,-13.6 -0.2,-1 -0.3,-1.8 -0.5,-2.7 -7.2,3.6 -21.4,7.5 -26.3,7.9 z"
   id="path725" />
	<path
   class="st32"
   d="m 174.5,425.7 c -0.1,-0.3 -0.2,-0.6 -0.3,-0.8 -0.9,0.2 -1.8,0.3 -2.4,0.3 0.2,0.5 0.4,1 0.6,1.5 0.8,1.9 1.6,3.8 2.4,5.7 1.2,2.8 2.3,5.7 3.2,8.2 0.8,0 1.6,-0.1 2.4,-0.1 -1.5,-4.5 -3.8,-10 -5.9,-14.8 z"
   id="path727" />
	<path
   class="st33"
   d="m 192.9,419.6 c 0.1,0.4 0.1,0.8 0.2,1.2 0.6,3.2 1.9,9.8 3.4,15.5 1.3,-0.6 2.5,-1.2 3.5,-1.8 -1.4,-5.6 -2.7,-11.7 -3.2,-14.8 -0.1,-0.5 -0.2,-1 -0.3,-1.5 -1.1,0.4 -2.3,0.9 -3.6,1.4 z"
   id="path729" />
	<path
   class="st30"
   d="m 177.9,374.8 c 0.1,0.4 -0.1,0.8 -0.5,1 l -5.9,1.7 c -0.4,0.1 -0.8,-0.1 -1,-0.5 v 0 c -0.1,-0.4 0.1,-0.8 0.5,-1 l 5.9,-1.7 c 0.5,-0.1 0.9,0.1 1,0.5 z"
   id="path731" />
	<path
   class="st2"
   d="m 182.2,402.7 c 0.1,0.5 -0.1,1 -0.6,1.1 v 0 c -0.5,0.1 -1,-0.1 -1.1,-0.6 v -0.1 c -0.1,-0.5 0.1,-1 0.6,-1.1 v 0 c 0.5,-0.2 1,0.1 1.1,0.7 z"
   id="path733" />
	<path
   class="st2"
   d="m 175.2,397.2 c 0.1,0.5 -0.1,1 -0.6,1.1 v 0 c -0.5,0.1 -1,-0.1 -1.1,-0.6 v -0.1 c -0.1,-0.5 0.1,-1 0.6,-1.1 v 0 c 0.4,-0.1 1,0.1 1.1,0.7 z"
   id="path735" />
	<path
   class="st2"
   d="m 185.2,400.1 c 0.1,0.5 -0.1,1 -0.6,1.1 v 0 c -0.5,0.1 -1,-0.1 -1.1,-0.6 v -0.1 c -0.1,-0.5 0.1,-1 0.6,-1.1 v 0 c 0.4,-0.1 0.9,0.2 1.1,0.7 z"
   id="path737" />
	<path
   class="st2"
   d="m 172.5,383.9 c 0.1,0.5 -0.1,1 -0.6,1.1 v 0 c -0.5,0.1 -1,-0.1 -1.1,-0.6 v -0.1 c -0.1,-0.5 0.1,-1 0.6,-1.1 v 0 c 0.5,-0.2 1,0.1 1.1,0.7 z"
   id="path739" />
	<path
   class="st2"
   d="m 175.3,390.9 c 0.1,0.2 -0.1,0.5 -0.3,0.5 v 0 c -0.2,0.1 -0.5,-0.1 -0.6,-0.3 v 0 c -0.1,-0.2 0.1,-0.5 0.3,-0.5 v 0 c 0.3,-0.1 0.6,0.1 0.6,0.3 z"
   id="path741" />
	<path
   class="st2"
   d="m 173.6,394.6 c 0.1,0.2 -0.1,0.5 -0.3,0.5 v 0 c -0.2,0.1 -0.5,-0.1 -0.5,-0.3 v 0 c -0.1,-0.2 0.1,-0.5 0.3,-0.5 v 0 c 0.2,-0.1 0.5,0 0.5,0.3 z"
   id="path743" />
	<path
   class="st2"
   d="m 177.3,396.9 c 0.1,0.2 -0.1,0.5 -0.3,0.5 v 0 c -0.2,0.1 -0.5,-0.1 -0.5,-0.3 v 0 c -0.1,-0.2 0.1,-0.5 0.3,-0.5 v 0 c 0.1,-0.1 0.4,0 0.5,0.3 z"
   id="path745" />
	<path
   class="st2"
   d="m 177.8,384.3 c 0.1,0.2 -0.1,0.5 -0.3,0.5 v 0 c -0.2,0.1 -0.5,-0.1 -0.5,-0.3 v 0 c -0.1,-0.2 0.1,-0.5 0.3,-0.5 v 0 c 0.2,-0.1 0.5,0.1 0.5,0.3 z"
   id="path747" />
	<path
   class="st2"
   d="m 181.8,393.1 c 0.1,0.2 -0.1,0.5 -0.3,0.5 v 0 c -0.2,0.1 -0.5,-0.1 -0.5,-0.3 v 0 c -0.1,-0.2 0.1,-0.5 0.3,-0.5 v 0 c 0.2,-0.1 0.4,0 0.5,0.3 z"
   id="path749" />
	<path
   class="st2"
   d="m 173.2,403.4 c 0.1,0.2 -0.1,0.5 -0.3,0.5 v 0 c -0.2,0.1 -0.5,-0.1 -0.5,-0.3 v 0 c -0.1,-0.2 0.1,-0.5 0.3,-0.6 v 0 c 0.2,0 0.4,0.1 0.5,0.4 z"
   id="path751" />
	<path
   class="st2"
   d="m 184,398.3 c 0.1,0.2 -0.1,0.5 -0.3,0.6 v 0 c -0.2,0.1 -0.5,-0.1 -0.5,-0.3 v 0 c -0.1,-0.2 0.1,-0.5 0.3,-0.5 v 0 c 0.2,-0.2 0.5,-0.1 0.5,0.2 z"
   id="path753" />
	<path
   class="st2"
   d="m 178.1,401.2 c 0.1,0.2 -0.1,0.5 -0.3,0.5 v 0 c -0.2,0.1 -0.5,-0.1 -0.5,-0.3 v 0 c -0.1,-0.2 0.1,-0.5 0.3,-0.5 v 0 c 0.2,-0.1 0.4,0.1 0.5,0.3 z"
   id="path755" />
	<path
   class="st2"
   d="m 170.2,388.7 c 0.1,0.2 -0.1,0.5 -0.3,0.5 v 0 c -0.2,0.1 -0.5,-0.1 -0.5,-0.3 v 0 c -0.1,-0.2 0.1,-0.5 0.3,-0.5 v 0 c 0.2,-0.1 0.5,0.1 0.5,0.3 z"
   id="path757" />
	<path
   class="st2"
   d="m 174.6,387.1 c 0.1,0.2 -0.1,0.5 -0.3,0.5 v 0 c -0.2,0.1 -0.5,-0.1 -0.5,-0.3 v 0 c -0.1,-0.2 0.1,-0.5 0.3,-0.6 v 0 c 0.2,0 0.5,0.1 0.5,0.4 z"
   id="path759" />
	<path
   class="st2"
   d="m 178.5,382.7 c 0.1,0.2 -0.1,0.5 -0.3,0.6 v 0 c -0.2,0.1 -0.5,-0.1 -0.6,-0.3 v 0 c -0.1,-0.2 0.1,-0.5 0.3,-0.6 v 0 c 0.3,-0.1 0.5,0.1 0.6,0.3 z"
   id="path761" />
	<path
   class="st2"
   d="m 179.4,391 c 0.1,0.2 -0.1,0.5 -0.3,0.5 v 0 c -0.2,0.1 -0.5,-0.1 -0.5,-0.3 v 0 c -0.1,-0.2 0.1,-0.5 0.3,-0.5 v 0 c 0.2,-0.1 0.4,0 0.5,0.3 z"
   id="path763" />
</g>
<g
   id="g813"
   transform="translate(-3.0673523,-119.80841)">
	<g
   id="g783">
		<path
   class="st34"
   d="m 808.2,513.7 c 3.1,-1.6 0.9,-5.8 0.9,-5.8 l -16.3,0.7 -16.3,-0.4 c 0,0 -2.1,4.2 1,5.8 -2.5,3.3 -3.8,5.2 -3.7,12.3 0.1,7.1 0.2,26 0.3,33.5 0.1,7.5 0.4,11.5 2.3,13.8 0.4,3.9 7.2,7.1 16.4,7.3 0,0 0,0 0,0 0.2,0 0.4,0 0.6,0 0.2,0 0.4,0 0.6,0 0,0 0,0 0,0 9.2,-0.4 15.9,-3.7 16.3,-7.6 1.8,-2.3 2.1,-6.3 2,-13.8 -0.1,-7.5 -0.2,-26.3 -0.3,-33.5 0,-7.2 -1.3,-9.1 -3.8,-12.3 z"
   id="path767" />
		<path
   class="st35"
   d="m 807.4,514 c 2.9,-1.6 0.9,-5.7 0.9,-5.7 l -15.4,0.7 -15.4,-0.4 c 0,0 -2,4.1 1,5.7 -2.4,3.3 -3.6,5.2 -3.5,12.2 0.1,7 0.2,25.6 0.3,33 0.1,7.4 -0.2,11 3,15.8 0.7,2.5 5.9,4.8 14.6,5 0,0 0,0 0,0 0.2,0 0.4,0 0.6,0 0.2,0 0.4,0 0.6,0 0,0 0,0 0,0 8.7,-0.3 13.5,-2.3 14.2,-5.1 3.3,-4.9 3.1,-8.6 3.1,-16 -0.1,-7.4 -0.2,-26 -0.3,-33 -0.1,-7.1 -1.3,-9 -3.7,-12.2 z"
   id="path769" />
		<path
   class="st36"
   d="m 808.2,515.1 c -0.3,-0.4 -0.5,-0.7 -0.8,-1.1 2.9,-1.6 0.9,-5.7 0.9,-5.7 l -15.4,0.7 -15.4,-0.4 c 0,0 -2,4.1 1,5.7 -2.4,3.3 -3.6,5.2 -3.5,12.2 0.1,7 0.2,25.6 0.3,33 0.1,7.4 -0.2,11 3,15.8 0.3,1 1.2,1.9 2.8,2.7 -8.5,-8.3 -2.5,-34 -1.7,-45.6 0.9,-12.1 4.8,-14.2 13.9,-14.3 6.5,-0.3 11.8,-1.9 14.9,-3 z"
   id="path771" />
		<path
   class="st37"
   d="m 793.7,554.1 c 1.5,0 5.5,-0.1 10.4,-2.1 0,-0.8 0,-1.5 0,-2.1 0,-0.5 0,-1.1 0,-1.5 0,-0.2 0,-0.3 0,-0.5 0,-3.3 -0.1,-12.1 -0.1,-15.1 -3.5,0 -7.2,1.1 -11.9,1.1 -3.1,0 -6.9,-0.1 -9.9,-0.9 0,3 0.1,11.8 0.1,15.1 0,1.5 0,2.9 0,4.1 3.6,2.5 8.5,1.9 11.4,1.9 z"
   id="path773" />
		<path
   class="st38"
   d="m 808.2,513.7 c 3.1,-1.6 0.9,-5.8 0.9,-5.8 l -16.3,0.7 -16.3,-0.4 c 0,0 -2.1,4.2 1,5.8 0,0 0,0 0,0 3.2,1.5 8.2,2.3 14.6,2.3 0,0 0,0 0,0 0.3,0 0.5,0 0.8,0 0.3,0 0.5,0 0.8,0 0,0 0,0 0,0 6.8,-0.2 10.9,-1.2 14.5,-2.6 0,0 0,0 0,0 z"
   id="path775" />
		<path
   class="st34"
   d="m 808.1,512.3 c 3.1,-1.6 0.9,-5.8 0.9,-5.8 l -16.3,0.7 -16.3,-0.4 c 0,0 -2.1,4.2 1,5.8 0,0 0,0 0,0 3.2,1.5 8.2,2.3 14.6,2.3 0,0 0,0 0,0 0.3,0 0.5,0 0.8,0 0.3,0 0.5,0 0.8,0 0,0 0,0 0,0 6.9,-0.1 11,-1.2 14.5,-2.6 0.1,0 0.1,0 0,0 z"
   id="path777" />
		<path
   class="st34"
   d="m 808.1,512.9 c 0.1,0 0.1,0 0,0 -3.5,1.4 -7.7,2.5 -14.5,2.5 0,0 0,0 0,0 -0.3,0 -0.5,0 -0.8,0 -0.3,0 -0.5,0 -0.8,0 0,0 0,0 0,0 -6.4,0 -11.4,-0.8 -14.6,-2.3 0,0 0,0 0,0 -1.2,-0.6 -1.6,-1.5 -1.7,-2.5 -0.1,1.2 0.2,2.5 1.7,3.2 0,0 0,0 0,0 3.2,1.5 8.2,2.3 14.6,2.3 0,0 0,0 0,0 0.3,0 0.5,0 0.8,0 0.3,0 0.5,0 0.8,0 0,0 0,0 0,0 6.8,-0.1 11,-1.1 14.6,-2.5 0,0 0,0 0,0 1.5,-0.8 1.8,-2.1 1.7,-3.3 -0.2,1 -0.6,2 -1.8,2.6 z"
   id="path779" />
		<path
   class="st39"
   d="m 794.1,579.1 c 0,0 0,0 0,0 -0.2,0 -0.5,0 -0.7,0 -0.2,0 -0.5,0 -0.7,0 0,0 0,0 0,0 -7.4,-0.2 -13,-1.8 -16.3,-5.4 0.6,3.8 7.3,6.9 16.4,7.1 0,0 0,0 0,0 0.2,0 0.4,0 0.6,0 0.2,0 0.4,0 0.6,0 0,0 0,0 0,0 9.1,-0.3 15.7,-3.5 16.3,-7.3 -3.2,3.4 -8.9,5.3 -16.2,5.6 z"
   id="path781" />
	</g>
	<g
   id="g807">
		<path
   class="st40"
   d="m 809.5,507 c 0.8,-1.4 0.8,-4.7 -0.2,-5.4 l -15,-0.9 h -2.9 l -15,1.1 c -1.1,0.7 -1,4.1 -0.2,5.4 -1,0.6 -1.1,2.6 -0.3,3.2 1,0.9 4.5,3.4 17,3.3 12.8,-0.1 16,-2.7 17,-3.6 0.7,-0.5 0.7,-2.5 -0.4,-3.1 z"
   id="path785" />
		<path
   class="st41"
   d="m 809.5,507 c 0,-0.1 0.1,-0.2 0.1,-0.2 -1.9,1.1 -6.2,2.5 -15.7,2.6 -12.5,0.1 -16,-2.4 -17,-3.3 -0.4,-0.4 -1,-1.5 -1.3,-2.5 -0.1,1.3 0.1,2.8 0.6,3.7 -1,0.6 -1.1,2.6 -0.3,3.2 1,0.9 4.5,3.4 17,3.3 12.8,-0.1 16,-2.7 17,-3.6 0.7,-0.6 0.7,-2.6 -0.4,-3.2 z"
   id="path787" />
		<path
   class="st42"
   d="m 809.6,507.1 c -1.9,1.2 -6.2,2.8 -16.7,2.9 -10.3,0.1 -14.8,-1.5 -16.8,-2.7 -1,0.6 -1,2.5 -0.2,3.2 1,0.9 4.5,3.4 17,3.3 12.8,-0.1 16,-2.7 17,-3.6 0.7,-0.6 0.7,-2.5 -0.3,-3.1 z"
   id="path789" />
		<g
   id="g795">
			<path
   class="st43"
   d="m 802.5,512.3 c -2.1,0.3 -5,0.4 -8.1,0.5 -12.5,0.1 -16.1,-3.1 -17.1,-3.9 -1.2,-1.1 -1.6,0.8 -0.9,1.4 1.2,1 4.3,3.1 16.3,3 4.4,-0.1 7.3,-0.6 9.8,-1 z"
   id="path791" />
			<path
   class="st44"
   d="m 809.7,509 c -0.1,-0.2 0.1,-0.7 -0.2,-0.9 -1.1,0.7 -3.3,1.8 -6.5,2.4 3.1,-0.4 5.3,-0.9 6.7,-1.5 z"
   id="path793" />
		</g>
		<path
   class="st42"
   d="m 809.5,501.9 c 0,1.9 -7.5,3.4 -16.8,3.5 -9.3,0.1 -16.8,-1.4 -16.8,-3.2 0,-1.9 7.5,-3.4 16.8,-3.5 9.3,-0.1 16.8,1.3 16.8,3.2 z"
   id="path797" />
		<path
   class="st44"
   d="m 793.5,504.8 c -9.3,0.1 -16.8,-1.4 -16.8,-3.2 0,-0.2 0.1,-0.4 0.3,-0.6 -0.7,0.4 -1.1,0.8 -1.1,1.2 0,1.9 7.6,3.3 16.8,3.2 8.3,-0.1 15.2,-1.3 16.5,-2.9 -2.3,1.3 -8.4,2.2 -15.7,2.3 z"
   id="path799" />
		<path
   class="st45"
   d="m 807.3,501.6 c 0,1.3 -6.5,2.4 -14.6,2.4 -8,0.1 -14.6,-0.9 -14.6,-2.2 0,-1.3 6.5,-2.4 14.6,-2.4 8,0 14.6,0.9 14.6,2.2 z"
   id="path801" />
		<path
   class="st40"
   d="m 792.7,499.4 c -1,0 -1.9,0 -2.8,0.1 5,0.3 8.5,1.1 8.5,2 0,1.1 -5.1,2.1 -11.8,2.4 1.9,0.1 3.9,0.2 6.1,0.2 8,-0.1 14.6,-1.2 14.6,-2.4 0,-1.4 -6.6,-2.3 -14.6,-2.3 z"
   id="path803" />
		<path
   class="st46"
   d="m 792.7,500.1 c 7.3,-0.1 13.4,0.8 14.4,1.9 0.1,-0.1 0.2,-0.2 0.2,-0.3 0,-1.3 -6.5,-2.3 -14.6,-2.2 -8,0.1 -14.6,1.1 -14.6,2.4 0,0.1 0.1,0.2 0.2,0.3 1,-1.1 7.1,-2 14.4,-2.1 z"
   id="path805" />
	</g>
	<path
   class="st37"
   d="m 780.1,528.6 c 0.4,-5.4 0.6,-6.7 1.1,-8.3 0.6,-1.8 0.3,-3.1 -0.6,-3.3 -1.7,-0.4 -2.9,1 -3.3,2.3 -0.6,1.7 -0.8,4 -0.8,7.3 0.1,7.1 0.2,26 0.3,33.4 0,5.6 0.3,12.7 1.1,11.7 0,0.1 1.6,-36 2.2,-43.1 z"
   id="path809" />
	<path
   class="st47"
   d="m 807.8,524.8 c -0.3,-3.3 -0.4,-4.1 -0.7,-5 -0.4,-1.1 -0.2,-1.9 0.3,-2 1,-0.3 1.8,0.6 2,1.3 0.4,1.1 0.5,2.4 0.6,4.5 0,4.3 0.1,15.8 0.2,20.4 0,3.4 -0.1,7.7 -0.6,7.2 0,-0.2 -1.3,-22.1 -1.8,-26.4 z"
   id="path811" />
</g>
<g
   id="g843"
   transform="translate(-3.0673523,0.19158903)">
	<g
   id="g833">
		<polygon
   class="st48"
   points="97.4,156.8 61.9,173.4 61.9,219.6 97.4,202.9 "
   id="polygon815" />
		<path
   class="st49"
   d="m 61.9,219.6 35.5,-16.7 c 0,0 -28.4,6 -31.1,-1.5 -5.9,-16.6 31.1,-44.7 31.1,-44.7 l -35.5,16.7 z"
   id="path817" />
		<polygon
   class="st50"
   points="26.4,156.8 61.9,173.4 61.9,219.6 26.4,202.9 "
   id="polygon819" />
		<path
   class="st51"
   d="M 61.9,219.6 26.4,202.9 c 0,0 28.4,9.4 31.7,-3.3 5.3,-20.3 -31.7,-42.9 -31.7,-42.9 l 35.5,16.7 z"
   id="path821" />
		<polygon
   class="st52"
   points="61.9,173.4 97.4,156.8 61.9,146 26.4,156.8 "
   id="polygon823" />
		<path
   class="st53"
   d="m 61.9,146 c 0,0 31.9,10.1 14,18.7 -16.6,8 -49.5,-8 -49.5,-8 l 35.5,16.7 35.5,-16.7 z"
   id="path825" />
		<path
   class="st54"
   d="m 26.4,156.8 c 0,0 11.2,7.2 35.5,16.7 -12,-5.7 -35.5,-16.7 -35.5,-16.7 z"
   id="path827" />
		<path
   class="st52"
   d="m 97.4,156.8 c 0,0 -19.4,8.2 -35.5,16.7 12.8,-5 35.5,-16.7 35.5,-16.7 z"
   id="path829" />
		<path
   class="st53"
   d="m 61.9,173.4 c 0,0 0.6,39 0,46.2 -1,-20.4 0,-46.2 0,-46.2 z"
   id="path831" />
	</g>
	<polygon
   class="st55"
   points="42.3,151.9 40.8,152.4 76.5,166.6 84.2,163 48.3,150.1 "
   id="polygon835" />
	<polygon
   class="st56"
   points="84.3,173.3 84.2,163 76.5,166.6 76.5,177.6 "
   id="polygon837" />
	<polygon
   class="st57"
   points="81.4,151.9 82.9,152.4 47.1,166.6 39.5,163 75.3,150.1 "
   id="polygon839" />
	<polygon
   class="st56"
   points="39.4,173.3 39.5,163 47.1,166.6 47.1,177.6 "
   id="polygon841" />
</g>
<g
   id="g859"
   transform="translate(-3.0673523,-119.80841)">
	<path
   class="st58"
   d="m 388.7,538.8 c 0,0 4.1,17.1 5.7,19.2 1.6,2 8.6,8.6 32.5,8.6 23.9,0 35.9,-5.9 37,-8.6 1.1,-2.7 5.4,-18.8 5.4,-18.8 z"
   id="path845" />
	<path
   class="st59"
   d="m 390,538.5 c 0,0 4.1,15.5 5.7,17.5 1.6,2 8.6,8.6 32.5,8.6 -30.9,-5.2 -28.3,-12.4 -25.4,-12.4 61.7,-0.7 67.8,-13.3 67.8,-13.3 z"
   id="path847" />
	<path
   class="st60"
   d="m 391,542.4 c 7.9,2.9 22,4.9 38,4.9 14.5,0 27.4,-1.6 35.6,-4.1 5,-2.4 5.9,-4.4 5.9,-4.4 l -80.6,-0.4 c 0.1,0.1 0.5,1.7 1.1,4 z"
   id="path849" />
	<path
   class="st58"
   d="m 474.2,533.7 h -1.4 c -4.3,-4.7 -22.2,-8.2 -43.8,-8.2 -21.6,0 -39.5,3.5 -43.8,8.2 h -1.4 l 0.5,2.8 h 0.1 c 1.5,5.4 20.9,9.7 44.6,9.7 23.7,0 43.1,-4.3 44.6,-9.7 h 0.1 z"
   id="path851" />
	<path
   class="st61"
   d="m 474.2,533.5 c 0,5.7 -20.2,10.3 -45.2,10.3 -25,0 -45.2,-4.6 -45.2,-10.3 0,-5.7 20.2,-10.3 45.2,-10.3 25,0 45.2,4.6 45.2,10.3 z"
   id="path853" />
	<path
   class="st62"
   d="m 470.9,533.2 c 0,5 -18.8,9 -41.9,9 -23.1,0 -41.9,-4 -41.9,-9 0,-5 18.8,-9 41.9,-9 23.2,0 41.9,4.1 41.9,9 z"
   id="path855" />
	<path
   class="st61"
   d="m 460.5,547 c 3,-0.2 6.9,6.1 -1.7,10.4 -8.6,4.4 -31.5,5.9 -24.5,4.3 15.2,-3.4 19.2,-14.2 26.2,-14.7 z"
   id="path857" />
</g>
<g
   id="g919"
   transform="translate(-3.0673523,0.19158903)">
	<g
   id="g893">
		<path
   class="st63"
   d="m 797.7,147.3 c 0,0 0,0 0,0 -0.1,-0.1 -0.1,-0.1 0,0 -0.8,-0.8 -1.6,-1.4 -2.6,-1.8 -1.8,-2.5 -2.5,-3.7 -4.4,-4.7 -2.2,-1.3 -4.2,-1.7 -8.3,-0.3 -5.1,1.6 -8,3.5 -10,3.4 0,0 0,0 -0.1,0 0,0 0,0 0,0 2.5,0.3 4.8,1.6 6.8,2.9 1,-0.8 2,-1.6 3,-2.3 1,-0.7 2.5,0.1 2.5,1.3 0,0.8 0,1.6 0,2.4 0,0.7 0.1,1.4 0.1,2 0,0 0.1,0 0.1,0 1,0.3 2.5,0.2 3.7,-0.1 0.6,-0.1 1.2,-0.3 1.7,-0.5 0.9,-0.4 1.6,-1 2.3,-1.6 0.7,-0.6 1.5,-1.2 2.2,-1.9 0,0 0,0 0,0 0.9,0.4 1.8,0.9 2.5,1.5 0.2,0.2 0.4,-0.1 0.3,-0.3 0.2,0.1 0.2,0 0.2,0 z"
   id="path861" />
		<path
   class="st64"
   d="m 830,176.8 c -0.6,1.9 -0.8,3.2 -3.6,5 -1.2,0.8 -3.4,1.1 -4.7,1.4 -2.3,0.4 -2.6,3.3 -5.1,4.9 -2.8,1.8 -4.1,1.4 -6.1,1.1 -0.2,0 -0.4,-0.1 -0.7,-0.1 0.2,-1.5 0.1,-3 -0.2,-4.5 2.5,-0.6 5.1,-1.6 7.6,-3.2 3.1,-2 5.6,-4.5 7.3,-7.2 1.7,1 3.6,1.9 5.5,2.6 z"
   id="path863" />
		<path
   class="st65"
   d="m 817.3,170.9 c -0.5,-0.1 -1,-0.3 -1.6,-0.6 -1.3,-0.7 -1.9,-1.8 -2.1,-3.1 -0.3,-1 -0.3,-2 0,-2.9 -1.5,-3.1 -2.4,-6.7 -3,-10.2 -0.2,-1.1 -0.3,-2.2 -0.4,-3.3 -2.4,5.6 -7.7,9.6 -13.8,10.7 -2.7,0.5 -8.3,0.3 -13.2,3.1 -0.3,0.2 -0.7,0.6 -1.3,1.1 0.8,-0.1 1.6,-0.2 2.4,-0.2 3.1,-0.1 7.8,-0.6 10.7,0.5 1.5,0.6 3,1.3 4.4,2.2 0.1,0 0.2,0 0.3,0 1.1,-0.2 2.3,-0.1 3.3,0.6 0.6,0.4 1.1,0.9 1.5,1.5 0.8,1 1.3,2.3 1.3,3.9 0,0.2 0,0.4 -0.1,0.5 1.8,3 3.1,6.4 3.8,9.7 2.5,-0.6 5.1,-1.6 7.6,-3.2 3.1,-2 5.6,-4.5 7.3,-7.2 -1.5,-0.9 -3.2,-1.8 -4.8,-2.8 -0.7,0.2 -1.5,0.1 -2.3,-0.3 z"
   id="path865" />
		<path
   class="st64"
   d="m 812.1,139.3 c -0.3,2.7 -0.9,8.7 -1.8,11.6 -2.4,5.6 -7.7,9.6 -13.8,10.7 -2.7,0.5 -8.3,0.3 -13.2,3.1 -0.3,0.2 -0.7,0.6 -1.3,1.1 0,0 -0.1,0 -0.1,0 -0.1,-3.6 1.1,-7.3 3.2,-10.2 0,0 0,-0.1 0.1,-0.1 0.7,-0.9 2.2,-2.1 2.3,-2.2 2.7,-0.9 3.5,0.6 5.8,1 2.8,0.5 5.4,0.5 7.8,-1.2 6.1,-4.5 3.6,-11.5 7.3,-12.9 0.6,-0.2 1.3,-0.4 1.9,-0.6 0.6,-0.1 1.2,-0.2 1.8,-0.3 z"
   id="path867" />
		<g
   id="g873">
			<g
   id="g871">
				<path
   class="st64"
   d="m 787.2,153.5 c 2.7,-0.9 3.6,0.6 5.9,1 2.8,0.5 5.4,0.5 7.8,-1.2 2.2,-1.6 3.7,-4.3 4.4,-6.9 0.7,-2.6 0.4,-3.9 2.3,-5.8 -4,1.6 -5.3,4.8 -9.5,7.5 -4.2,2.7 -7.3,2.6 -10.9,5.4 z"
   id="path869" />
			</g>
		</g>
		<g
   id="g879">
			<g
   id="g877">
				<path
   class="st66"
   d="m 803.8,149.8 c -2.8,0.2 -6.1,2.3 -7.4,4.8 3.3,-0.2 5.7,-2 7.4,-4.8 z"
   id="path875" />
			</g>
		</g>
		<g
   id="g885">
			<g
   id="g883">
				<path
   class="st67"
   d="m 798.7,140.1 c -0.7,-1.1 -2.2,-1.4 -3.3,-0.6 -0.1,0.5 0,1.2 0.1,2.2 0.9,5.4 3.5,10.7 4.4,11.9 0.7,-0.3 1,-0.6 1.4,-0.8 -0.2,-0.4 -3.2,-4.4 -3.3,-8.1 0,-1.5 0.5,-3.3 0.7,-4.6 z"
   id="path881" />
			</g>
		</g>
		<g
   id="g891">
			<g
   id="g889">
				<path
   class="st68"
   d="m 806.6,141.3 c -1.3,1.6 -1,3 -1.7,5.3 -0.7,2.6 -2.1,5.2 -4.3,6.8 -2.3,1.7 -4.8,1.7 -7.6,1.2 -2.3,-0.4 -3.1,-1.9 -5.7,-1.1 -1.8,1.4 -3.9,3.5 -5,8.2 0.6,-0.8 3.3,-3.2 4.1,-3.4 3.1,-0.9 6.3,0 7.9,0.2 4.1,0.3 8.1,-1.7 9.8,-5.5 2.6,-5.8 1.8,-9.3 3.9,-12.6 -0.4,0.2 -1,0.3 -1.4,0.9 z"
   id="path887" />
			</g>
		</g>
	</g>
	<g
   id="g917">
		<g
   id="g915">
			<g
   id="g897">
				<path
   class="st68"
   d="m 831.5,204.1 c -6.7,3.8 -15.4,5.4 -20.3,-0.9 -7.3,2.7 -16.4,1.8 -22.4,-3.1 -5.3,-4.3 -9.1,-11.6 -8,-18.4 -7.2,-2 -11.3,-8.5 -11.2,-15.5 l -23.4,17.3 c 0,0 12.5,18.1 39.1,29.4 26.6,11.3 48.4,7.8 48.4,7.8 z"
   id="path895" />
			</g>
			<g
   id="g901">
				<path
   class="st66"
   d="m 802.5,210.9 c -3.6,-2.4 -7,-5.1 -9.9,-8.3 -1.4,-0.7 -2.7,-1.5 -3.9,-2.4 -5.3,-4.3 -9.1,-11.6 -8,-18.4 -7.2,-2 -11.4,-8.5 -11.2,-15.5 l -23.4,17.3 c 0,0 12.5,18.1 39.1,29.4 12.5,5.3 23.9,7.3 32.5,8 -2,-1.5 -3.9,-3.1 -5.6,-4.8 -3.3,-1.6 -6.5,-3.3 -9.6,-5.3 z"
   id="path899" />
			</g>
			<g
   id="g905">
				<path
   class="st69"
   d="m 749.7,180.5 -4.3,3.2 c 0,0 12.5,18.2 39.4,29.5 26.9,11.4 49,7.9 49,7.9 l -0.6,-4.7 c -30.1,2.5 -66.8,-14.2 -83.5,-35.9 z"
   id="path903" />
			</g>
			<g
   id="g909">
				<path
   class="st70"
   d="m 786.5,211.2 c -23.8,-10.1 -36.7,-25.7 -39,-29 l -2.8,2.1 c 0,0 12.9,18.6 39.8,29.9 26.9,11.4 49.5,8 49.5,8 l -0.3,-2.9 c -6.1,0.7 -25.3,1.2 -47.2,-8.1 z"
   id="path907" />
			</g>
			<g
   id="g913">
				<path
   class="st71"
   d="m 766.3,183.2 c 0.6,-1.5 3.7,-2.9 3.7,-2.9 2.9,8.6 -5.5,7.3 -3.7,2.9 z"
   id="path911" />
			</g>
		</g>
	</g>
</g>
<g
   id="g955"
   transform="translate(-3.0673523,0.19158903)">
	<path
   class="st72"
   d="m 290.7,160.1 -1.2,-1.9 c -0.2,-0.4 -0.1,-0.8 0.2,-1 l 2.8,-1.7 c 0.3,-0.2 0.8,-0.1 1,0.3 l 1.2,1.9 z m 34.7,47.2 -1.2,-1.9 -4,2.5 1.2,1.9 c 0.2,0.4 0.7,0.5 1,0.3 l 2.8,-1.7 c 0.4,-0.2 0.5,-0.7 0.2,-1.1 z"
   id="path921" />
	<path
   class="st73"
   d="m 300.7,155.9 c -0.8,-1.3 -2.4,-1.7 -3.6,-1 l -10,6.2 c -1.2,0.7 -1.5,2.4 -0.7,3.7 l 27.8,45 c 0.8,1.3 2.4,1.7 3.6,1 l 10,-6.2 c 1.2,-0.7 1.5,-2.4 0.7,-3.6 z"
   id="path923" />
	<path
   class="st74"
   d="m 298,157.8 c -0.5,0.3 -0.6,1 -0.3,1.5 l 26.1,42.2 c 0.3,0.5 1,0.7 1.5,0.4 0.5,-0.3 0.6,-1 0.3,-1.5 l -26.1,-42.2 c -0.3,-0.6 -1,-0.8 -1.5,-0.4 z"
   id="path925" />
	<path
   class="st75"
   d="m 290.5,171.4 -4.1,-6.7 c -0.8,-1.3 -0.5,-2.9 0.7,-3.7 l 10,-6.2 c 1.2,-0.7 2.8,-0.3 3.6,1 l 4.1,6.7 z m 37.9,29.5 -4.2,-6.8 -14.3,8.9 4.2,6.8 c 0.8,1.3 2.4,1.7 3.6,1 l 10,-6.2 c 1.2,-0.8 1.5,-2.4 0.7,-3.7 z m -5.1,-8.3 -1.1,-1.8 -14.4,8.9 1.1,1.8 z m -16.4,-26.6 -1.1,-1.8 -14.3,8.9 1.1,1.8 z"
   id="path927" />
	<path
   class="st76"
   d="m 290.5,171.4 -4.1,-6.7 c -0.8,-1.3 -0.5,-2.9 0.7,-3.7 l 10,-6.2 c 1.2,-0.7 2.8,-0.3 3.6,1 l 4.1,6.7 z m 37.9,29.5 -4.2,-6.8 -14.3,8.9 4.2,6.8 c 0.8,1.3 2.4,1.7 3.6,1 l 10,-6.2 c 1.2,-0.8 1.5,-2.4 0.7,-3.7 z m -5.1,-8.3 -1.1,-1.8 -14.4,8.9 1.1,1.8 z m -16.4,-26.6 -1.1,-1.8 -14.3,8.9 1.1,1.8 z"
   id="path929" />
	<g
   id="g935">
		<g
   id="g933">
			<path
   class="st73"
   d="m 322.3,201.7 -1.8,1.1 1.2,1.9 -1.2,0.8 -1.2,-1.9 -1.8,1.1 -0.8,-1.2 1.8,-1.1 -1.2,-1.9 1.2,-0.8 1.2,1.9 1.8,-1.1 z"
   id="path931" />
		</g>
	</g>
	<g
   id="g941">
		<g
   id="g939">
			<path
   class="st73"
   d="m 296.3,161.7 -2.8,1.7 -0.8,-1.3 2.8,-1.7 z"
   id="path937" />
		</g>
	</g>
	<polygon
   class="st75"
   points="314.7,191.8 303.4,184.1 305.5,182.7 299.1,174.6 310.4,182.3 308.2,183.6 "
   id="polygon943" />
	<g
   id="g953">
		<path
   class="st77"
   d="m 301.1,164.8 -3.4,-5.5 c -0.3,-0.5 -0.2,-1.2 0.3,-1.5 0.5,-0.3 1.2,-0.1 1.5,0.4 l 3.4,5.5 z"
   id="path945" />
		
			<rect
   x="302.5"
   y="165.7"
   transform="matrix(0.8511,-0.5251,0.5251,0.8511,-42.3512,184.2435)"
   class="st77"
   width="2.0999999"
   height="2.2"
   id="rect947" />
		<path
   class="st77"
   d="m 325.3,202 c -0.5,0.3 -1.2,0.1 -1.5,-0.4 l -3.2,-5.2 1.8,-1.1 3.2,5.2 c 0.3,0.5 0.2,1.1 -0.3,1.5 z"
   id="path949" />
		
			<rect
   x="319"
   y="192.3"
   transform="matrix(0.8512,-0.5249,0.5249,0.8512,-53.873,196.7384)"
   class="st77"
   width="2.0999999"
   height="2.2"
   id="rect951" />
	</g>
</g>
<g
   id="g999"
   transform="translate(-3.0673523,-119.80841)">
	<path
   class="st78"
   d="m 660.4,497.9 c 0,0 10.6,6.5 24.1,0 0,0 2,5.9 1.9,6.1 -0.1,0.2 -8.3,6.7 -9.4,6.7 -1.1,0 -11.7,-0.2 -12.4,-0.3 -0.7,-0.1 -4.1,-2.5 -4.2,-3.1 -0.1,-0.7 -0.6,-5.9 -0.6,-5.9 z"
   id="path957" />
	<g
   id="g969">
		<defs
   id="defs960">
			<rect
   id="SVGID_1_"
   x="628.90002"
   y="497.60001"
   width="87.099998"
   height="90.5" />
		</defs>
		<clipPath
   id="SVGID_00000090990650363474433950000013801739912706307511_">
			<use
   xlink:href="#SVGID_1_"
   style="overflow:visible"
   id="use962" />
		</clipPath>
		<g
   clip-path="url(#SVGID_00000090990650363474433950000013801739912706307511_)"
   id="g967">
			<path
   class="st80"
   d="m 672.6,507.5 c -0.7,0 -1.4,0 -2.1,-0.1 -0.7,-0.1 -1.4,-0.2 -2.1,-0.4 -0.7,-0.2 -1.3,-0.5 -2,-0.8 -0.7,-0.3 -1.2,-0.7 -1.8,-1.1 -0.6,-0.4 -1.1,-0.9 -1.5,-1.5 -0.5,-0.5 -0.9,-1.1 -1.3,-1.7 -0.4,-0.6 -0.7,-1.2 -0.9,-1.9 -0.3,-0.7 -0.4,-1.3 -0.6,-2 l 0.1,-0.3 -8.4,3 c -1,0.4 -2.1,0.7 -3,1.3 -2.9,1.8 -4,6.4 -4,6.4 -3.5,11.7 -6,23.5 -8.4,35.4 -2.4,11.8 -5.2,23.4 -6.3,35.4 l 0.1,0.5 c -0.2,2.1 -0.9,3.8 -1.6,5.8 l 0.3,0.4 c 3.6,1.6 7.4,2.8 11.3,2.1 l 0.2,-0.3 c -0.3,-2.1 0.8,-4.5 1.1,-6.6 l 0.1,-0.3 c 2.2,-8.5 4.6,-17 6.8,-25.5 l 0.1,0.2 -0.5,4.7 v 0.4 l 23.8,0.1 h 0.3 l 23.8,-0.1 v -0.4 l -0.4,-4.7 0.1,-0.2 c 2.2,8.5 4.6,17 6.8,25.5 l 0.1,0.3 c 0.4,2.1 1.4,4.4 1.1,6.6 l 0.2,0.3 c 3.9,0.7 7.7,-0.5 11.3,-2.1 l 0.3,-0.4 c -0.7,-2 -1.4,-3.6 -1.6,-5.8 l 0.1,-0.5 c -1.2,-12 -3.9,-23.7 -6.3,-35.4 -2.5,-11.9 -4.9,-23.8 -8.4,-35.4 0,0 -1.1,-4.6 -4,-6.4 -0.9,-0.6 -1.9,-1 -3,-1.3 l -8.4,-3 0.1,0.3 c -0.1,0.7 -0.3,1.4 -0.6,2 -0.3,0.7 -0.6,1.3 -0.9,1.9 -0.4,0.6 -0.8,1.2 -1.3,1.7 -0.5,0.5 -1,1 -1.5,1.5 -0.6,0.4 -1.2,0.8 -1.8,1.1 -0.6,0.3 -1.3,0.6 -2,0.8 -0.7,0.2 -1.4,0.4 -2.1,0.4 -0.7,0.1 -1.4,0.1 -2.1,0.1 z"
   id="path965" />
		</g>
	</g>
	<path
   class="st81"
   d="m 714.3,579.8 v -0.1 l -1.3,0.3 -3.9,0.9 -4.3,0.8 -1.8,0.3 c 0,0.2 0.1,0.4 0.1,0.5 l 1.7,-0.3 4.3,-0.8 c 1.4,-0.3 2.7,-0.6 3.9,-0.9 l 1.2,-0.3 c 0.2,-0.1 0.1,-0.2 0.1,-0.4 z"
   id="path971" />
	<path
   class="st81"
   d="m 647.8,512.9 c -1.3,-0.4 -2.5,-0.9 -3.6,-1.4 0,0.1 -0.1,0.3 -0.1,0.4 1.2,0.5 2.3,1 3.6,1.4 l 2.5,0.9 c 0.9,0.3 1.8,0.5 2.8,0.8 1.9,0.6 4,1 6.2,1.4 4.8,0.8 9.6,1.3 14.5,1.3 4.9,-0.1 9.7,-0.5 14.5,-1.4 2.2,-0.5 4.3,-0.9 6.2,-1.5 1,-0.3 1.9,-0.5 2.8,-0.8 l 2.5,-0.9 c 0.5,-0.2 1,-0.4 1.5,-0.6 0,-0.2 -0.1,-0.3 -0.1,-0.5 -0.5,0.2 -1,0.4 -1.5,0.5 l -2.5,0.9 c -0.9,0.3 -1.8,0.5 -2.7,0.8 -1.9,0.6 -4,1 -6.1,1.4 -4.7,0.9 -9.5,1.3 -14.4,1.4 -4.8,0 -9.6,-0.4 -14.4,-1.3 -2.2,-0.5 -4.3,-0.8 -6.1,-1.4 -0.9,-0.3 -1.9,-0.5 -2.8,-0.8 z"
   id="path973" />
	<path
   class="st81"
   d="m 637.9,581.1 -3.9,-0.9 -1.8,-0.4 c -0.6,-0.1 -1.2,-0.2 -1.7,-0.4 h -0.1 l 0.1,0.4 c 0,0 0,0 0,0.1 0.5,0.1 1.1,0.3 1.6,0.4 l 1.8,0.4 3.9,0.9 3.8,0.7 c 0,-0.2 0.1,-0.4 0.1,-0.5 z"
   id="path975" />
	<path
   class="st81"
   d="m 645.1,568.6 -3.9,-0.7 -3.5,-0.9 -1.6,-0.4 c -0.5,-0.1 -1.1,-0.2 -1.6,-0.4 l -2.2,-0.6 c 0,0.1 -0.1,0.3 -0.1,0.4 l 2.2,0.7 c 0.5,0.2 1,0.3 1.6,0.4 l 1.7,0.4 3.5,0.9 3.9,0.8 h 0.1 l 0.1,-0.5 z"
   id="path977" />
	<path
   class="st81"
   d="m 639.6,548.7 1.5,0.4 3.2,0.9 3.5,0.8 1.8,0.4 c 0.6,0.1 1.3,0.2 1.9,0.3 l 4,0.7 c 6,0.8 12,1.2 18,1.2 6,-0.1 12,-0.5 18,-1.4 l 4,-0.7 c 0.6,-0.1 1.3,-0.2 1.9,-0.4 l 1.8,-0.4 3.5,-0.8 3.2,-0.9 1.5,-0.4 c 0.5,-0.1 0.9,-0.3 1.4,-0.4 l 0.2,-0.1 -0.1,-0.5 -0.2,0.1 c -0.4,0.2 -0.9,0.3 -1.4,0.4 l -1.5,0.4 -3.2,0.9 -3.5,0.8 -1.8,0.4 c -0.6,0.1 -1.3,0.2 -1.9,0.3 l -4,0.7 c -6,0.8 -11.9,1.3 -17.9,1.3 -6,0 -12,-0.4 -17.9,-1.2 l -4,-0.7 c -0.6,-0.1 -1.3,-0.2 -1.9,-0.3 l -1.8,-0.4 -3.5,-0.8 -3.2,-0.9 -1.5,-0.4 c -0.5,-0.1 -1,-0.3 -1.4,-0.4 l -2.3,-0.8 -0.1,0.4 2.3,0.8 c 0.4,0.5 0.9,0.6 1.4,0.7 z"
   id="path979" />
	<path
   class="st81"
   d="m 709.5,567.3 1.6,-0.4 c 0.5,-0.1 1.1,-0.3 1.6,-0.4 0,-0.2 -0.1,-0.3 -0.1,-0.5 v 0 c -0.5,0.2 -1,0.3 -1.6,0.4 l -1.6,0.4 -3.5,0.9 -3.9,0.8 -2,0.4 c -0.1,0 -0.2,0 -0.3,0 0,0.2 0.1,0.4 0.1,0.5 0.1,0 0.2,0 0.2,0 l 2,-0.4 3.9,-0.8 z"
   id="path981" />
	<path
   class="st81"
   d="m 641.3,529 2.1,0.9 0.6,0.2 0.6,0.2 1.3,0.4 2.7,0.9 c 0.9,0.3 1.9,0.5 3,0.8 2,0.6 4.3,1 6.6,1.4 5.1,0.8 10.2,1.3 15.4,1.3 5.2,-0.1 10.3,-0.5 15.4,-1.4 2.3,-0.5 4.6,-0.9 6.6,-1.5 1,-0.3 2,-0.5 3,-0.8 l 2.7,-0.9 1.2,-0.4 0.6,-0.2 0.6,-0.2 1.4,-0.6 c 0,-0.1 -0.1,-0.3 -0.1,-0.4 l -1.5,0.6 -0.6,0.2 -0.6,0.2 -1.3,0.3 -2.7,0.9 c -0.9,0.3 -1.9,0.5 -2.9,0.8 -2,0.6 -4.2,1 -6.6,1.4 -5.1,0.9 -10.2,1.3 -15.3,1.4 -5.1,0 -10.2,-0.4 -15.3,-1.3 -2.3,-0.5 -4.5,-0.8 -6.6,-1.4 -1,-0.3 -2,-0.5 -2.9,-0.8 l -2.7,-0.8 -1.2,-0.4 -0.6,-0.2 -0.6,-0.2 -2.1,-0.8 -1.5,-0.6 c 0,0.1 -0.1,0.3 -0.1,0.4 z"
   id="path983" />
	<path
   class="st82"
   d="m 652.4,520.8 c 0,0 0,0.5 0,1.4 0,0.9 -0.1,2.1 -0.3,3.7 -0.2,3.1 -0.6,7.5 -1.2,12.2 -0.5,4.8 -1,9.1 -1.4,12.2 -0.2,1.6 -0.4,2.8 -0.5,3.7 -0.1,0.9 -0.2,1.4 -0.2,1.3 0,0 0,-0.5 0.1,-1.4 0.1,-0.9 0.2,-2.1 0.4,-3.7 0.4,-3.1 0.9,-7.4 1.4,-12.2 0.5,-4.8 0.9,-9.1 1.2,-12.2 0.1,-1.6 0.3,-2.8 0.3,-3.7 0.1,-0.9 0.1,-1.3 0.2,-1.3 z"
   id="path985" />
	<path
   class="st82"
   d="m 692.5,520.8 c 0,0 0.1,0.5 0.2,1.4 0.1,0.9 0.2,2.1 0.3,3.7 0.3,3.1 0.7,7.5 1.2,12.2 0.5,4.8 1,9.1 1.4,12.2 0.2,1.6 0.3,2.8 0.4,3.7 0.1,0.9 0.1,1.4 0.1,1.4 0,0 -0.1,-0.5 -0.2,-1.3 -0.1,-0.9 -0.3,-2.1 -0.5,-3.7 -0.4,-3.1 -0.9,-7.4 -1.4,-12.2 -0.5,-4.8 -0.9,-9.1 -1.2,-12.2 -0.1,-1.6 -0.2,-2.8 -0.3,-3.7 -0.1,-1 -0.1,-1.5 0,-1.5 z"
   id="path987" />
	<path
   class="st81"
   d="m 686.1,499.3 c 0,0 0,0.1 -0.1,0.4 -0.1,0.4 -0.2,0.7 -0.3,1.1 -0.4,1.3 -1,2.5 -1.8,3.6 -0.5,0.8 -1.2,1.4 -1.9,2.1 -0.8,0.7 -1.7,1.3 -2.6,1.8 -1.1,0.5 -2.2,0.9 -3.3,1.2 -1.2,0.3 -2.5,0.4 -3.8,0.4 -1.3,0 -2.6,-0.2 -3.7,-0.5 -1.2,-0.3 -2.3,-0.7 -3.3,-1.3 -0.9,-0.5 -1.8,-1.1 -2.6,-1.9 -0.4,-0.3 -0.7,-0.7 -1,-1 -0.3,-0.4 -0.6,-0.7 -0.8,-1.1 -0.8,-1.1 -1.4,-2.3 -1.8,-3.6 -0.1,-0.3 -0.2,-0.7 -0.3,-1.1 -0.1,-0.2 -0.1,-0.4 -0.1,-0.4 0,0 0.2,0.5 0.5,1.4 0.5,1.2 1.1,2.4 1.9,3.5 0.2,0.3 0.5,0.7 0.8,1 0.3,0.3 0.6,0.7 1,1 0.8,0.7 1.6,1.3 2.5,1.8 1,0.5 2.1,0.9 3.2,1.2 1.2,0.3 2.4,0.4 3.7,0.5 1.2,0 2.5,-0.1 3.7,-0.4 1.1,-0.3 2.2,-0.6 3.2,-1.2 0.9,-0.5 1.8,-1.1 2.6,-1.7 0.7,-0.6 1.3,-1.3 1.8,-2 0.8,-1.1 1.4,-2.2 1.9,-3.5 0.4,-0.8 0.5,-1.3 0.6,-1.3 z"
   id="path989" />
	<path
   class="st83"
   d="m 656.3,552.2 c -1.4,-1.1 -2.5,-2.1 -2.6,-2 -0.1,0.1 1,1.1 2.4,2.2 1.4,1.1 2.7,1.9 2.7,1.8 0.1,-0.1 -1.1,-0.9 -2.5,-2 z"
   id="path991" />
	<path
   class="st83"
   d="m 687.5,519.1 c -0.1,0 -0.7,1.6 -2,4.2 l -0.5,1 c -0.2,0.3 -0.4,0.7 -0.6,1.1 -0.4,0.7 -0.9,1.5 -1.4,2.3 -1.2,1.7 -2.5,3.3 -3.8,4.8 -1.4,1.5 -2.9,2.9 -4.5,4.1 -0.8,0.6 -1.5,1.1 -2.2,1.6 -0.4,0.2 -0.7,0.5 -1,0.7 l -1,0.6 c -2.5,1.4 -4.1,2.1 -4.1,2.2 0,0 0.4,-0.1 1.2,-0.4 l 0.6,-0.3 c 0.2,-0.1 0.5,-0.2 0.7,-0.4 0.5,-0.3 1.1,-0.5 1.7,-0.9 l 1,-0.6 c 0.3,-0.2 0.7,-0.4 1,-0.7 0.7,-0.5 1.4,-1 2.2,-1.6 1.6,-1.3 3.2,-2.7 4.6,-4.1 1.4,-1.5 2.7,-3.1 3.9,-4.8 0.5,-0.8 1,-1.5 1.4,-2.3 0.2,-0.4 0.4,-0.7 0.6,-1.1 0.2,-0.3 0.4,-0.7 0.5,-1 0.3,-0.6 0.6,-1.2 0.8,-1.8 0.1,-0.3 0.2,-0.5 0.3,-0.7 0.1,-0.2 0.2,-0.4 0.2,-0.6 0.3,-0.9 0.5,-1.3 0.4,-1.3 z"
   id="path993" />
	<path
   class="st82"
   d="m 631.6,580.8 c 0,0.1 -0.2,0.1 -0.4,0 -0.2,-0.1 -0.3,-0.1 -0.3,-0.2 0,-0.1 0.2,-0.1 0.4,0 0.2,0.1 0.4,0.1 0.3,0.2 z"
   id="path995" />
	<path
   class="st82"
   d="m 710.7,582 c 0,0.1 -0.5,0.2 -1.1,0.4 -0.6,0.1 -1.1,0.2 -1.2,0.1 0,-0.1 0.5,-0.2 1.1,-0.4 0.7,-0.1 1.2,-0.2 1.2,-0.1 z"
   id="path997" />
</g>
</svg>
