<?xml version="1.0" encoding="UTF-8" standalone="no"?>
<!-- Created with Inkscape (http://www.inkscape.org/) -->

<svg
   width="32.20192mm"
   height="32.485287mm"
   viewBox="0 0 32.20192 32.485287"
   version="1.1"
   id="svg28668"
   sodipodi:docname="recycling_sel.svg"
   inkscape:version="1.2.2 (732a01da63, 2022-12-09)"
   xmlns:inkscape="http://www.inkscape.org/namespaces/inkscape"
   xmlns:sodipodi="http://sodipodi.sourceforge.net/DTD/sodipodi-0.dtd"
   xmlns="http://www.w3.org/2000/svg"
   xmlns:svg="http://www.w3.org/2000/svg">
  <sodipodi:namedview
     id="namedview28670"
     pagecolor="#ffffff"
     bordercolor="#000000"
     borderopacity="0.25"
     inkscape:showpageshadow="2"
     inkscape:pageopacity="0.0"
     inkscape:pagecheckerboard="0"
     inkscape:deskcolor="#d1d1d1"
     inkscape:document-units="mm"
     showgrid="false"
     inkscape:zoom="0.46769781"
     inkscape:cx="330.34151"
     inkscape:cy="38.486389"
     inkscape:window-width="1366"
     inkscape:window-height="705"
     inkscape:window-x="-8"
     inkscape:window-y="-8"
     inkscape:window-maximized="1"
     inkscape:current-layer="layer1" />
  <defs
     id="defs28665" />
  <g
     inkscape:label="Στρώση 1"
     inkscape:groupmode="layer"
     id="layer1"
     transform="translate(-42.974816,46.225504)">
    <g
       transform="matrix(0.21385968,0,0,0.21385968,42.504325,-29.929396)"
       id="g27569">
		<g
   id="g27567">
			<g
   id="g27565">
				<g
   id="Duplicate_Items_Folder_Symbol_4_0_Layer0_0_FILL_00000016797044142060919450000017870866123137992126_">
					<path
   class="st0"
   d="m 152.7,-76.1 c -0.1,-0.1 -0.2,-0.1 -0.3,-0.1 H 2.6 c -0.1,0 -0.3,0.1 -0.3,0.1 -0.1,0.1 -0.1,0.2 -0.1,0.4 V 75.2 c 0,0.1 0.1,0.3 0.1,0.4 0.1,0.1 0.2,0.1 0.3,0.1 h 149.7 c 0.1,0 0.3,-0.1 0.3,-0.1 0.1,-0.1 0.1,-0.2 0.1,-0.4 V -75.7 c 0.1,-0.2 0.1,-0.3 0,-0.4 M 3.1,-75.2 H 151.8 V 74.7 H 3.1 Z"
   id="path27554"
   style="fill:#444444" />

					<path
   class="st1"
   d="M 151.8,-75.2 H 3.1 V 74.7 H 151.8 V -75.2 m -0.7,0.5 v 0.2 l 0.2,-0.2 V 73.9 H 4.1 3.8 V -74.7 Z"
   id="path27556"
   style="fill:#f8e8ce" />

					<path
   class="st2"
   d="m 144.7,-67.9 6.4,-6.5 v -0.2 H 3.8 V 73.9 H 4 l 6.4,-6.4 V -67.9 Z"
   id="path27558"
   style="fill:#ffffff" />

					<path
   class="st3"
   d="m 144.7,-67.9 v 0 L 144.6,67.2 H 10.9 l -0.3,0.3 -6.4,6.4 H 151.4 V -74.7 l -0.2,0.2 z"
   id="path27560"
   style="fill:#e1d3b8" />

					<path
   class="st9"
   d="m 144.6,-67.8 v 0 L 10.5,-67.9 V 67.5 l 0.3,-0.3 h 133.7 v -135 z"
   id="path27562"
   style="fill:#55c642" />

				</g>

			</g>

		</g>

	</g>
    <g
       id="g27941"
       transform="matrix(0.26458333,0,0,0.26458333,10.000263,-141.13377)">
	<path
   class="st28"
   d="m 166,376.2 c -2.5,0.7 -1.2,4.9 0.5,4.4 1.2,3.9 4,19.2 3.6,25 -0.4,5.7 -1.2,13 2.4,21.2 3.5,8.2 7.4,18.1 7.7,22.4 0.3,4.4 0.6,10.1 4.3,12.3 3.7,2.2 20,-1.6 22.4,-6.6 1.5,-1.9 0.2,-6.6 -2.3,-11.6 -2.5,-5 -5.4,-18.9 -6.3,-24.1 -0.9,-5.1 -1.2,-7.5 -9.9,-19.2 -2.9,-3.3 -9.5,-20.4 -10.4,-22.6 1.7,-0.5 1.1,-5 -1.6,-4.3 -3.4,1.1 -10.4,3.1 -10.4,3.1 z"
   id="path27893"
   style="fill:#dddddc" />

	<path
   class="st29"
   d="m 186.5,460.2 c -3.7,-2.2 -4,-7.9 -4.3,-12.2 -0.3,-4.3 -4.1,-14.1 -7.7,-22.2 -3.5,-8.1 -2.8,-15.4 -2.3,-21 0.4,-5.7 -2.6,-20.6 -3.7,-24.5 3,-0.8 7.3,-2.2 9.8,-2.9 1.3,-0.9 0.7,-4.8 -1.8,-4.1 -3.5,1 -10.5,3 -10.5,3 -2.5,0.7 -1.2,4.9 0.5,4.4 1.2,3.9 4,19.2 3.6,25 -0.4,5.7 -1.2,13 2.4,21.2 3.5,8.2 7.4,18.1 7.7,22.4 0.3,4.4 0.6,10.1 4.3,12.3 3.2,1.9 16.1,-0.7 20.9,-4.7 -5.8,3.1 -16.1,5 -18.9,3.3 z"
   id="path27895"
   style="fill:#cccbca" />

	<path
   class="st30"
   d="m 186.9,400.5 c -2.9,-3.3 -9.5,-20.4 -10.4,-22.6 1.7,-0.5 -2,0.6 -3.6,1.1 0.9,2.2 7.5,19.3 10.4,22.6 8.7,11.7 9,14 9.9,19.2 0.9,5.1 3.8,19.1 6.3,24.1 2.5,5 3.8,9.7 2.3,11.6 -1,2 2.4,1.6 3.6,-1.1 1.5,-1.9 0.2,-6.6 -2.3,-11.6 -2.5,-5 -5.4,-18.9 -6.3,-24.1 -0.9,-5.2 -1.2,-7.5 -9.9,-19.2 z"
   id="path27897"
   style="fill:#f2f2f2" />

	<path
   class="st2"
   d="m 171.4,423.9 c 0.3,0.9 0.7,1.9 1.1,2.8 2.1,5 4.4,10.6 5.9,15.2 11.1,0.2 19.7,-4.5 23.4,-7 -1.5,-5.8 -2.9,-12.5 -3.4,-15.7 -0.2,-1.1 -0.4,-2.1 -0.6,-3.1 -7.3,3.7 -21.5,7.6 -26.4,7.8 z"
   id="path27899"
   style="fill:#ffffff" />

	<path
   class="st31"
   d="m 171.7,425.2 c 0.3,0.8 0.6,1.6 0.9,2.4 1.9,4.3 4,9.1 5.3,13 11,-0.3 19.7,-4.7 23.4,-7 -1.3,-5 -2.4,-10.8 -2.8,-13.6 -0.2,-1 -0.3,-1.8 -0.5,-2.7 -7.2,3.6 -21.4,7.5 -26.3,7.9 z"
   id="path27901"
   style="fill:#e9313b" />

	<path
   class="st32"
   d="m 174.5,425.7 c -0.1,-0.3 -0.2,-0.6 -0.3,-0.8 -0.9,0.2 -1.8,0.3 -2.4,0.3 0.2,0.5 0.4,1 0.6,1.5 0.8,1.9 1.6,3.8 2.4,5.7 1.2,2.8 2.3,5.7 3.2,8.2 0.8,0 1.6,-0.1 2.4,-0.1 -1.5,-4.5 -3.8,-10 -5.9,-14.8 z"
   id="path27903"
   style="fill:#cf2334" />

	<path
   class="st33"
   d="m 192.9,419.6 c 0.1,0.4 0.1,0.8 0.2,1.2 0.6,3.2 1.9,9.8 3.4,15.5 1.3,-0.6 2.5,-1.2 3.5,-1.8 -1.4,-5.6 -2.7,-11.7 -3.2,-14.8 -0.1,-0.5 -0.2,-1 -0.3,-1.5 -1.1,0.4 -2.3,0.9 -3.6,1.4 z"
   id="path27905"
   style="fill:#f27e88" />

	<path
   class="st30"
   d="m 177.9,374.8 c 0.1,0.4 -0.1,0.8 -0.5,1 l -5.9,1.7 c -0.4,0.1 -0.8,-0.1 -1,-0.5 v 0 c -0.1,-0.4 0.1,-0.8 0.5,-1 l 5.9,-1.7 c 0.5,-0.1 0.9,0.1 1,0.5 z"
   id="path27907"
   style="fill:#f2f2f2" />

	<path
   class="st2"
   d="m 182.2,402.7 c 0.1,0.5 -0.1,1 -0.6,1.1 v 0 c -0.5,0.1 -1,-0.1 -1.1,-0.6 v -0.1 c -0.1,-0.5 0.1,-1 0.6,-1.1 v 0 c 0.5,-0.2 1,0.1 1.1,0.7 z"
   id="path27909"
   style="fill:#ffffff" />

	<path
   class="st2"
   d="m 175.2,397.2 c 0.1,0.5 -0.1,1 -0.6,1.1 v 0 c -0.5,0.1 -1,-0.1 -1.1,-0.6 v -0.1 c -0.1,-0.5 0.1,-1 0.6,-1.1 v 0 c 0.4,-0.1 1,0.1 1.1,0.7 z"
   id="path27911"
   style="fill:#ffffff" />

	<path
   class="st2"
   d="m 185.2,400.1 c 0.1,0.5 -0.1,1 -0.6,1.1 v 0 c -0.5,0.1 -1,-0.1 -1.1,-0.6 v -0.1 c -0.1,-0.5 0.1,-1 0.6,-1.1 v 0 c 0.4,-0.1 0.9,0.2 1.1,0.7 z"
   id="path27913"
   style="fill:#ffffff" />

	<path
   class="st2"
   d="m 172.5,383.9 c 0.1,0.5 -0.1,1 -0.6,1.1 v 0 c -0.5,0.1 -1,-0.1 -1.1,-0.6 v -0.1 c -0.1,-0.5 0.1,-1 0.6,-1.1 v 0 c 0.5,-0.2 1,0.1 1.1,0.7 z"
   id="path27915"
   style="fill:#ffffff" />

	<path
   class="st2"
   d="m 175.3,390.9 c 0.1,0.2 -0.1,0.5 -0.3,0.5 v 0 c -0.2,0.1 -0.5,-0.1 -0.6,-0.3 v 0 c -0.1,-0.2 0.1,-0.5 0.3,-0.5 v 0 c 0.3,-0.1 0.6,0.1 0.6,0.3 z"
   id="path27917"
   style="fill:#ffffff" />

	<path
   class="st2"
   d="m 173.6,394.6 c 0.1,0.2 -0.1,0.5 -0.3,0.5 v 0 c -0.2,0.1 -0.5,-0.1 -0.5,-0.3 v 0 c -0.1,-0.2 0.1,-0.5 0.3,-0.5 v 0 c 0.2,-0.1 0.5,0 0.5,0.3 z"
   id="path27919"
   style="fill:#ffffff" />

	<path
   class="st2"
   d="m 177.3,396.9 c 0.1,0.2 -0.1,0.5 -0.3,0.5 v 0 c -0.2,0.1 -0.5,-0.1 -0.5,-0.3 v 0 c -0.1,-0.2 0.1,-0.5 0.3,-0.5 v 0 c 0.1,-0.1 0.4,0 0.5,0.3 z"
   id="path27921"
   style="fill:#ffffff" />

	<path
   class="st2"
   d="m 177.8,384.3 c 0.1,0.2 -0.1,0.5 -0.3,0.5 v 0 c -0.2,0.1 -0.5,-0.1 -0.5,-0.3 v 0 c -0.1,-0.2 0.1,-0.5 0.3,-0.5 v 0 c 0.2,-0.1 0.5,0.1 0.5,0.3 z"
   id="path27923"
   style="fill:#ffffff" />

	<path
   class="st2"
   d="m 181.8,393.1 c 0.1,0.2 -0.1,0.5 -0.3,0.5 v 0 c -0.2,0.1 -0.5,-0.1 -0.5,-0.3 v 0 c -0.1,-0.2 0.1,-0.5 0.3,-0.5 v 0 c 0.2,-0.1 0.4,0 0.5,0.3 z"
   id="path27925"
   style="fill:#ffffff" />

	<path
   class="st2"
   d="m 173.2,403.4 c 0.1,0.2 -0.1,0.5 -0.3,0.5 v 0 c -0.2,0.1 -0.5,-0.1 -0.5,-0.3 v 0 c -0.1,-0.2 0.1,-0.5 0.3,-0.6 v 0 c 0.2,0 0.4,0.1 0.5,0.4 z"
   id="path27927"
   style="fill:#ffffff" />

	<path
   class="st2"
   d="m 184,398.3 c 0.1,0.2 -0.1,0.5 -0.3,0.6 v 0 c -0.2,0.1 -0.5,-0.1 -0.5,-0.3 v 0 c -0.1,-0.2 0.1,-0.5 0.3,-0.5 v 0 c 0.2,-0.2 0.5,-0.1 0.5,0.2 z"
   id="path27929"
   style="fill:#ffffff" />

	<path
   class="st2"
   d="m 178.1,401.2 c 0.1,0.2 -0.1,0.5 -0.3,0.5 v 0 c -0.2,0.1 -0.5,-0.1 -0.5,-0.3 v 0 c -0.1,-0.2 0.1,-0.5 0.3,-0.5 v 0 c 0.2,-0.1 0.4,0.1 0.5,0.3 z"
   id="path27931"
   style="fill:#ffffff" />

	<path
   class="st2"
   d="m 170.2,388.7 c 0.1,0.2 -0.1,0.5 -0.3,0.5 v 0 c -0.2,0.1 -0.5,-0.1 -0.5,-0.3 v 0 c -0.1,-0.2 0.1,-0.5 0.3,-0.5 v 0 c 0.2,-0.1 0.5,0.1 0.5,0.3 z"
   id="path27933"
   style="fill:#ffffff" />

	<path
   class="st2"
   d="m 174.6,387.1 c 0.1,0.2 -0.1,0.5 -0.3,0.5 v 0 c -0.2,0.1 -0.5,-0.1 -0.5,-0.3 v 0 c -0.1,-0.2 0.1,-0.5 0.3,-0.6 v 0 c 0.2,0 0.5,0.1 0.5,0.4 z"
   id="path27935"
   style="fill:#ffffff" />

	<path
   class="st2"
   d="m 178.5,382.7 c 0.1,0.2 -0.1,0.5 -0.3,0.6 v 0 c -0.2,0.1 -0.5,-0.1 -0.6,-0.3 v 0 c -0.1,-0.2 0.1,-0.5 0.3,-0.6 v 0 c 0.3,-0.1 0.5,0.1 0.6,0.3 z"
   id="path27937"
   style="fill:#ffffff" />

	<path
   class="st2"
   d="m 179.4,391 c 0.1,0.2 -0.1,0.5 -0.3,0.5 v 0 c -0.2,0.1 -0.5,-0.1 -0.5,-0.3 v 0 c -0.1,-0.2 0.1,-0.5 0.3,-0.5 v 0 c 0.2,-0.1 0.4,0 0.5,0.3 z"
   id="path27939"
   style="fill:#ffffff" />

</g>
  </g>
</svg>
