<?xml version="1.0" encoding="UTF-8" standalone="no"?>
<!-- Generator: Adobe Illustrator 27.4.0, SVG Export Plug-In . SVG Version: 6.00 Build 0)  -->

<svg
   version="1.1"
   id="svg543"
   inkscape:version="1.2.2 (732a01da63, 2022-12-09)"
   sodipodi:docname="shapes_text.svg"
   x="0px"
   y="0px"
   viewBox="0 0 856.44745 484.91855"
   xml:space="preserve"
   width="856.44745"
   height="484.91855"
   xmlns:inkscape="http://www.inkscape.org/namespaces/inkscape"
   xmlns:sodipodi="http://sodipodi.sourceforge.net/DTD/sodipodi-0.dtd"
   xmlns="http://www.w3.org/2000/svg"
   xmlns:svg="http://www.w3.org/2000/svg"><defs
   id="defs1079" />
<style
   type="text/css"
   id="style2">
	.st0{fill:#444444;}
	.st1{fill:#F8E8CE;}
	.st2{fill:#FFFFFF;}
	.st3{fill:#AAAAAA;}
	.st4{fill:#E5E5E5;}
	.st5{fill:#FF5B71;}
	.st6{fill:#D12442;}
	.st7{fill:#D389BD;}
	.st8{fill:#BA65A4;}
	.st9{fill:#FDDD3A;}
	.st10{fill:#FFF235;}
	.st11{fill:#F6CA14;}
	.st12{fill:#D1A900;}
	.st13{fill:#1CADE3;}
	.st14{fill:#0099DC;}
	.st15{fill:#0485B2;}
	.st16{fill:none;}
	.st17{fill:#EE5A9C;}
	.st18{fill:#E43C90;}
	.st19{fill:#EF6EA8;}
	.st20{fill:#BC1E74;}
	.st21{fill:#FF9100;}
	.st22{fill:#D37402;}
	.st23{fill:#00F988;}
	.st24{fill:#09AA5D;}
	.st25{fill:#A4E869;}
	.st26{fill:#7AB541;}
	.st27{fill:#0080FF;}
	.st28{fill:#005BA5;}
	.st29{fill:#E21000;}
	.st30{fill:#930700;}
	.st31{fill:#EADE00;}
	.st32{fill:#AFA200;}
	.st33{fill:#494949;}
</style>
<sodipodi:namedview
   bordercolor="#666666"
   borderopacity="1"
   gridtolerance="10"
   guidetolerance="10"
   id="namedview545"
   inkscape:current-layer="svg543"
   inkscape:cx="-271.66525"
   inkscape:cy="354.56779"
   inkscape:pageopacity="0"
   inkscape:pageshadow="2"
   inkscape:window-height="705"
   inkscape:window-maximized="1"
   inkscape:window-width="1366"
   inkscape:window-x="-8"
   inkscape:window-y="-8"
   inkscape:zoom="0.39202658"
   objecttolerance="10"
   pagecolor="#ffffff"
   showgrid="false"
   inkscape:showpageshadow="2"
   inkscape:pagecheckerboard="0"
   inkscape:deskcolor="#d1d1d1">
	</sodipodi:namedview>
<g
   id="g100"
   transform="matrix(0.80828857,0,0,0.80828857,0.32331543,64.258422)">
	<g
   id="g98">
		<g
   id="use96">
			<g
   id="Symbol_4_0_Layer0_0_FILL">
				<g
   id="path2">
					<path
   class="st0"
   d="m 151.2,-76 c -0.1,-0.1 -0.2,-0.1 -0.4,-0.1 H 0 c -0.1,0 -0.3,0.1 -0.3,0.1 -0.1,0.1 -0.1,0.2 -0.1,0.4 V 75.2 c 0,0.1 0.1,0.3 0.1,0.4 0.1,0.1 0.2,0.1 0.3,0.1 h 150.9 c 0.1,0 0.3,-0.1 0.4,-0.1 0.1,-0.1 0.1,-0.2 0.1,-0.4 V -75.7 c 0,-0.1 -0.1,-0.2 -0.2,-0.3 M 0.5,-75.2 H 150.4 V 74.7 H 0.5 Z"
   id="path5" />
				</g>
				<g
   id="path4">
					<path
   class="st1"
   d="M 150.4,-75.2 H 0.5 V 74.7 H 150.4 V -75.2 m -0.8,0.6 v 0.2 l 0.2,-0.2 V 74 H 1.5 1.2 V -74.6 Z"
   id="path8" />
				</g>
				<g
   id="path6">
					<path
   class="st2"
   d="m 143.2,-67.9 6.4,-6.5 v -0.2 H 1.2 V 74 H 1.4 L 8,67.5 V -67.9 Z"
   id="path11" />
				</g>
				<g
   id="g16">
					<path
   class="st3"
   d="m 143.2,-67.9 v 0 L 143.1,67.2 H 8.3 L 8,67.5 1.5,74 H 149.8 V -74.6 l -0.2,0.2 z"
   id="path14" />
				</g>
				<g
   id="path10">
					<path
   class="st4"
   d="m 143.1,-67.8 v 0 L 8,-67.9 V 67.5 L 8.3,67.2 H 143 v -135 z"
   id="path18" />
				</g>
			</g>
		</g>
	</g>
</g>
<g
   id="g106"
   transform="matrix(0.80828857,0,0,0.80828857,728.87332,422.05842)">
	<g
   id="g104">
		<g
   id="use102">
			<g
   id="Symbol_4_0_Layer0_0_FILL_00000057856617367565944020000006972131852511088547_">
				<g
   id="path2_00000024004149143150599540000007527483977003721096_">
					<path
   class="st0"
   d="m 157.7,-75.8 c -0.1,-0.1 -0.2,-0.1 -0.4,-0.1 H 6.4 c -0.1,0 -0.3,0.1 -0.3,0.1 C 6,-75.7 6,-75.6 6,-75.4 V 75.4 c 0,0.1 0.1,0.3 0.1,0.4 0.1,0.1 0.2,0.1 0.3,0.1 h 150.9 c 0.1,0 0.3,-0.1 0.4,-0.1 0.1,-0.1 0.1,-0.2 0.1,-0.4 V -75.4 c 0,-0.2 0,-0.3 -0.1,-0.4 M 6.9,-74.9 H 156.8 V 74.9 H 6.9 Z"
   id="path25" />
				</g>
				<g
   id="path4_00000054974703845682232700000004367232116412736689_">
					<path
   class="st1"
   d="M 156.8,-74.9 H 6.9 V 74.9 H 156.8 V -74.9 m -0.7,0.5 v 0.2 l 0.2,-0.2 V 74.2 H 7.9 7.7 V -74.4 Z"
   id="path28" />
				</g>
				<g
   id="path6_00000048479097119265090530000013270581327287037605_">
					<path
   class="st2"
   d="m 149.6,-67.6 6.4,-6.5 v -0.2 H 7.7 V 74.2 h 0.2 l 6.5,-6.4 V -67.6 Z"
   id="path31" />
				</g>
				<g
   id="path8_00000153687430753875686090000016452881103048786836_">
					<path
   class="st3"
   d="m 149.6,-67.6 v 0 L 149.5,67.5 H 14.8 l -0.4,0.3 -6.5,6.4 H 156.2 V -74.4 l -0.2,0.2 z"
   id="path34" />
				</g>
				<g
   id="path10_00000134938418709115646240000000747861923546826646_">
					<path
   class="st4"
   d="m 149.5,-67.5 v 0 L 14.4,-67.6 V 67.7 l 0.4,-0.3 h 134.7 z"
   id="path37" />
				</g>
			</g>
		</g>
	</g>
</g>
<g
   id="g112"
   transform="matrix(0.80828857,0,0,0.80828857,245.22332,64.258422)">
	<g
   id="g110">
		<g
   id="use108">
			<g
   id="Symbol_4_0_Layer0_0_FILL_00000041284311209527837320000008059889795685489048_">
				<g
   id="path2_00000155108935303216007840000009395691468609637536_">
					<path
   class="st0"
   d="m 151.2,-76 c -0.1,-0.1 -0.2,-0.1 -0.4,-0.1 H 0 c -0.1,0 -0.3,0.1 -0.3,0.1 -0.1,0.1 -0.1,0.2 -0.1,0.4 V 75.2 c 0,0.1 0.1,0.3 0.1,0.4 0.1,0.1 0.2,0.1 0.3,0.1 h 150.9 c 0.1,0 0.3,-0.1 0.4,-0.1 0.1,-0.1 0.1,-0.2 0.1,-0.4 V -75.7 c 0,-0.1 -0.1,-0.2 -0.2,-0.3 M 0.5,-75.2 H 150.4 V 74.7 H 0.5 Z"
   id="path44" />
				</g>
				<g
   id="path4_00000015347109854312592910000005403258354177462448_">
					<path
   class="st1"
   d="M 150.4,-75.2 H 0.5 V 74.7 H 150.4 V -75.2 m -0.8,0.6 v 0.2 l 0.2,-0.2 V 74 H 1.5 1.2 V -74.6 Z"
   id="path47" />
				</g>
				<g
   id="path6_00000157997516171477126120000010360631310375759794_">
					<path
   class="st2"
   d="m 143.2,-67.9 6.4,-6.5 v -0.2 H 1.2 V 74 H 1.4 L 8,67.5 V -67.9 Z"
   id="path50" />
				</g>
				<g
   id="path8_00000036249121193093756160000006399212360395048884_">
					<path
   class="st3"
   d="m 143.2,-67.9 v 0 L 143.1,67.2 H 8.3 L 8,67.5 1.5,74 H 149.8 V -74.6 l -0.2,0.2 z"
   id="path53" />
				</g>
				<g
   id="path10_00000176021503273690717610000013989761639343461296_">
					<path
   class="st4"
   d="m 143.1,-67.8 v 0 L 8,-67.9 V 67.5 L 8.3,67.2 H 143 v -135 z"
   id="path56" />
				</g>
			</g>
		</g>
	</g>
</g>
<g
   id="g118"
   transform="matrix(0.80828857,0,0,0.80828857,367.67332,64.258422)">
	<g
   id="g116">
		<g
   id="use114">
			<g
   id="Symbol_4_0_Layer0_0_FILL_00000167395658768129741350000003842712895238764932_">
				<g
   id="path2_00000042010490735679254520000002200077004639188122_">
					<path
   class="st0"
   d="m 151.2,-76 c -0.1,-0.1 -0.2,-0.1 -0.4,-0.1 H 0 c -0.1,0 -0.3,0.1 -0.3,0.1 -0.1,0.1 -0.1,0.2 -0.1,0.4 V 75.2 c 0,0.1 0.1,0.3 0.1,0.4 0.1,0.1 0.2,0.1 0.3,0.1 h 150.9 c 0.1,0 0.3,-0.1 0.4,-0.1 0.1,-0.1 0.1,-0.2 0.1,-0.4 V -75.7 c 0,-0.1 -0.1,-0.2 -0.2,-0.3 M 0.5,-75.2 H 150.4 V 74.7 H 0.5 Z"
   id="path63" />
				</g>
				<g
   id="path4_00000003106666698228172490000006721997179963678879_">
					<path
   class="st1"
   d="M 150.4,-75.2 H 0.5 V 74.7 H 150.4 V -75.2 m -0.8,0.6 v 0.2 l 0.2,-0.2 V 74 H 1.5 1.2 V -74.6 Z"
   id="path66" />
				</g>
				<g
   id="path6_00000022519364463937133560000016206082409796882604_">
					<path
   class="st2"
   d="m 143.2,-67.9 6.4,-6.5 v -0.2 H 1.2 V 74 H 1.4 L 8,67.5 V -67.9 Z"
   id="path69" />
				</g>
				<g
   id="path8_00000145029021083507723540000006925270994396109468_">
					<path
   class="st3"
   d="m 143.2,-67.9 v 0 L 143.1,67.2 H 8.3 L 8,67.5 1.5,74 H 149.8 V -74.6 l -0.2,0.2 z"
   id="path72" />
				</g>
				<g
   id="path10_00000047777791217049611700000009134504407946484126_">
					<path
   class="st4"
   d="m 143.1,-67.8 v 0 L 8,-67.9 V 67.5 L 8.3,67.2 H 143 v -135 z"
   id="path75" />
				</g>
			</g>
		</g>
	</g>
</g>
<g
   id="g124"
   transform="matrix(0.80828857,0,0,0.80828857,490.12332,64.258422)">
	<g
   id="g122">
		<g
   id="use120">
			<g
   id="Symbol_4_0_Layer0_0_FILL_00000060718874202409458760000012851487041570271387_">
				<g
   id="path2_00000183931077455208167610000017228650999048755593_">
					<path
   class="st0"
   d="m 151.2,-76 c -0.1,-0.1 -0.2,-0.1 -0.4,-0.1 H 0 c -0.1,0 -0.3,0.1 -0.3,0.1 -0.1,0.1 -0.1,0.2 -0.1,0.4 V 75.2 c 0,0.1 0.1,0.3 0.1,0.4 0.1,0.1 0.2,0.1 0.3,0.1 h 150.9 c 0.1,0 0.3,-0.1 0.4,-0.1 0.1,-0.1 0.1,-0.2 0.1,-0.4 V -75.7 c 0,-0.1 -0.1,-0.2 -0.2,-0.3 M 0.5,-75.2 H 150.4 V 74.7 H 0.5 Z"
   id="path82" />
				</g>
				<g
   id="path4_00000182523135411332471050000007666885396670035862_">
					<path
   class="st1"
   d="M 150.4,-75.2 H 0.5 V 74.7 H 150.4 V -75.2 m -0.8,0.6 v 0.2 l 0.2,-0.2 V 74 H 1.5 1.2 V -74.6 Z"
   id="path85" />
				</g>
				<g
   id="path6_00000169516036661798399500000014961519093579055036_">
					<path
   class="st2"
   d="m 143.2,-67.9 6.4,-6.5 v -0.2 H 1.2 V 74 H 1.4 L 8,67.5 V -67.9 Z"
   id="path88" />
				</g>
				<g
   id="path8_00000001665662037508111850000011031744532500242863_">
					<path
   class="st3"
   d="m 143.2,-67.9 v 0 L 143.1,67.2 H 8.3 L 8,67.5 1.5,74 H 149.8 V -74.6 l -0.2,0.2 z"
   id="path91" />
				</g>
				<g
   id="path10_00000024700687145594495970000009638486501810725534_">
					<path
   class="st4"
   d="m 143.1,-67.8 v 0 L 8,-67.9 V 67.5 l 0.4,-0.3 h 134.7 z"
   id="path94" />
				</g>
			</g>
		</g>
	</g>
</g>
<g
   id="g130"
   transform="matrix(0.80828857,0,0,0.80828857,612.57332,64.258422)">
	<g
   id="g128">
		<g
   id="use126">
			<g
   id="Symbol_4_0_Layer0_0_FILL_00000003811045814102726980000010203010938762674367_">
				<g
   id="path2_00000111890607537781829590000001353001895528908961_">
					<path
   class="st0"
   d="m 151.2,-76 c -0.1,-0.1 -0.2,-0.1 -0.4,-0.1 H 0 c -0.1,0 -0.3,0.1 -0.3,0.1 -0.1,0.1 -0.1,0.2 -0.1,0.4 V 75.2 c 0,0.1 0.1,0.3 0.1,0.4 0.1,0.1 0.2,0.1 0.3,0.1 h 150.9 c 0.1,0 0.3,-0.1 0.4,-0.1 0.1,-0.1 0.1,-0.2 0.1,-0.4 V -75.7 c 0,-0.1 -0.1,-0.2 -0.2,-0.3 M 0.5,-75.2 H 150.4 V 74.7 H 0.5 Z"
   id="path101" />
				</g>
				<g
   id="path4_00000056406234049904874240000013045944485960576663_">
					<path
   class="st1"
   d="M 150.4,-75.2 H 0.5 V 74.7 H 150.4 V -75.2 m -0.8,0.6 v 0.2 l 0.2,-0.2 V 74 H 1.5 1.2 V -74.6 Z"
   id="path104" />
				</g>
				<g
   id="path6_00000161608843497017924190000007142883374151338919_">
					<path
   class="st2"
   d="m 143.2,-67.9 6.4,-6.5 v -0.2 H 1.2 V 74 H 1.4 L 8,67.5 V -67.9 Z"
   id="path107" />
				</g>
				<g
   id="path8_00000150070345939787929130000005586749309766291625_">
					<path
   class="st3"
   d="m 143.2,-67.9 v 0 L 143.1,67.2 H 8.3 L 8,67.5 1.5,74 H 149.8 V -74.6 l -0.2,0.2 z"
   id="path110" />
				</g>
				<g
   id="path10_00000152252852442381324580000012666466921934896539_">
					<path
   class="st4"
   d="m 143.1,-67.8 v 0 L 8,-67.9 V 67.5 l 0.4,-0.3 h 134.7 z"
   id="path113" />
				</g>
			</g>
		</g>
	</g>
</g>
<g
   id="g136"
   transform="matrix(0.80828857,0,0,0.80828857,735.12332,64.258422)">
	<g
   id="g134">
		<g
   id="use132">
			<g
   id="Symbol_4_0_Layer0_0_FILL_00000091017035848212406670000014345063686291619502_">
				<g
   id="path2_00000072993743194985466790000010583979596603331516_">
					<path
   class="st0"
   d="m 150,-76 c -0.1,-0.1 -0.2,-0.1 -0.4,-0.1 H -1.3 c -0.1,0 -0.3,0.1 -0.3,0.1 -0.1,0.1 -0.1,0.2 -0.1,0.4 V 75.2 c 0,0.1 0.1,0.3 0.1,0.4 0.1,0.1 0.2,0.1 0.3,0.1 h 150.9 c 0.1,0 0.3,-0.1 0.4,-0.1 0.1,-0.1 0.1,-0.2 0.1,-0.4 V -75.7 c 0,-0.1 0,-0.2 -0.1,-0.3 M -0.8,-75.2 H 149.1 V 74.7 H -0.8 Z"
   id="path120" />
				</g>
				<g
   id="path4_00000055699972803546447230000012722936884186736830_">
					<path
   class="st1"
   d="M 149.1,-75.2 H -0.8 V 74.7 H 149.1 V -75.2 m -0.7,0.6 v 0.2 l 0.2,-0.2 V 74 H 0.2 0 V -74.6 Z"
   id="path123" />
				</g>
				<g
   id="path6_00000061450129643549349280000006611041753507255483_">
					<path
   class="st2"
   d="m 141.9,-67.9 6.4,-6.5 v -0.2 H 0 V 74 H 0.2 L 6.7,67.6 V -67.9 Z"
   id="path126" />
				</g>
				<g
   id="path8_00000058561351830711363160000013209939200969587359_">
					<path
   class="st3"
   d="m 141.9,-67.9 v 0 L 141.8,67.2 H 7.1 L 6.7,67.5 0.2,74 H 148.5 V -74.6 l -0.2,0.2 z"
   id="path129" />
				</g>
				<g
   id="path10_00000154397802831285786620000012698042020909465476_">
					<path
   class="st4"
   d="m 141.8,-67.8 v 0 L 6.7,-67.9 V 67.5 l 0.4,-0.3 h 134.7 z"
   id="path132" />
				</g>
			</g>
		</g>
	</g>
</g>
<g
   id="g142"
   transform="matrix(0.80828857,0,0,0.80828857,0.32331543,183.90842)">
	<g
   id="g140">
		<g
   id="use138">
			<g
   id="Symbol_4_0_Layer0_0_FILL_00000062170747477018209800000002527276927208526779_">
				<g
   id="path2_00000000209592974442518250000010463367002182371712_">
					<path
   class="st0"
   d="m 151.2,-75.8 c -0.1,-0.1 -0.2,-0.1 -0.4,-0.1 H 0 c -0.1,0 -0.3,0.1 -0.3,0.1 -0.1,0.1 -0.1,0.2 -0.1,0.4 V 75.4 c 0,0.1 0.1,0.3 0.1,0.4 0.1,0.1 0.2,0.1 0.3,0.1 h 150.9 c 0.1,0 0.3,-0.1 0.4,-0.1 0.1,-0.1 0.1,-0.2 0.1,-0.4 V -75.5 c 0,-0.1 -0.1,-0.2 -0.2,-0.3 M 0.5,-75 H 150.4 V 74.9 H 0.5 Z"
   id="path139" />
				</g>
				<g
   id="path4_00000111167897200759796450000011761640082765346480_">
					<path
   class="st1"
   d="M 150.4,-75 H 0.5 V 74.9 H 150.4 V -75 m -0.8,0.6 v 0.2 l 0.2,-0.2 V 74.2 H 1.5 1.2 V -74.4 Z"
   id="path142" />
				</g>
				<g
   id="path6_00000103961407567163123440000013763964828460691112_">
					<path
   class="st2"
   d="m 143.2,-67.7 6.4,-6.5 v -0.2 H 1.2 V 74.2 H 1.4 L 8,67.7 V -67.7 Z"
   id="path145" />
				</g>
				<g
   id="path8_00000173149725070394813510000009687076572293894278_">
					<path
   class="st3"
   d="m 143.2,-67.7 v 0 L 143.1,67.4 H 8.3 L 8,67.7 1.5,74.1 H 149.8 V -74.4 l -0.2,0.2 z"
   id="path148" />
				</g>
				<g
   id="path10_00000102529401508985403710000008088653573099773357_">
					<path
   class="st4"
   d="m 143.1,-67.6 v 0 L 8,-67.7 V 67.7 L 8.3,67.4 H 143 v -135 z"
   id="path151" />
				</g>
			</g>
		</g>
	</g>
</g>
<g
   id="g154"
   transform="matrix(0.80828857,0,0,0.80828857,245.22332,183.90842)">
	<g
   id="g152">
		<g
   id="use150">
			<g
   id="Symbol_4_0_Layer0_0_FILL_00000017488679195934062650000009659570928698336409_">
				<g
   id="path2_00000146459863597470641830000009439416191409941120_">
					<path
   class="st0"
   d="m 151.2,-75.8 c -0.1,-0.1 -0.2,-0.1 -0.4,-0.1 H 0 c -0.1,0 -0.3,0.1 -0.3,0.1 -0.1,0.1 -0.1,0.2 -0.1,0.4 V 75.4 c 0,0.1 0.1,0.3 0.1,0.4 0.1,0.1 0.2,0.1 0.3,0.1 h 150.9 c 0.1,0 0.3,-0.1 0.4,-0.1 0.1,-0.1 0.1,-0.2 0.1,-0.4 V -75.5 c 0,-0.1 -0.1,-0.2 -0.2,-0.3 M 0.5,-75 H 150.4 V 74.9 H 0.5 Z"
   id="path158" />
				</g>
				<g
   id="path4_00000026866958475516022370000000020738918433504908_">
					<path
   class="st1"
   d="M 150.4,-75 H 0.5 V 74.9 H 150.4 V -75 m -0.8,0.6 v 0.2 l 0.2,-0.2 V 74.2 H 1.5 1.2 V -74.4 Z"
   id="path161" />
				</g>
				<g
   id="path6_00000158017089806823539740000012288919036979721893_">
					<path
   class="st2"
   d="m 143.2,-67.7 6.4,-6.5 v -0.2 H 1.2 V 74.2 H 1.4 L 8,67.7 V -67.7 Z"
   id="path164" />
				</g>
				<g
   id="path8_00000026866943304865955490000012895560907734951044_">
					<path
   class="st3"
   d="m 143.2,-67.7 v 0 L 143.1,67.4 H 8.3 L 8,67.7 1.5,74.1 H 149.8 V -74.4 l -0.2,0.2 z"
   id="path167" />
				</g>
				<g
   id="path10_00000039118881252824875450000018344616573389853330_">
					<path
   class="st4"
   d="m 143.1,-67.6 v 0 L 8,-67.7 V 67.7 L 8.3,67.4 H 143 v -135 z"
   id="path170" />
				</g>
			</g>
		</g>
	</g>
</g>
<g
   id="g160"
   transform="matrix(0.80828857,0,0,0.80828857,367.67332,183.90842)">
	<g
   id="g158">
		<g
   id="use156">
			<g
   id="Symbol_4_0_Layer0_0_FILL_00000078755145510030100570000010173634966654743987_">
				<g
   id="path2_00000111185043719099079840000017375565389773749642_">
					<path
   class="st0"
   d="m 151.2,-75.8 c -0.1,-0.1 -0.2,-0.1 -0.4,-0.1 H 0 c -0.1,0 -0.3,0.1 -0.3,0.1 -0.1,0.1 -0.1,0.2 -0.1,0.4 V 75.4 c 0,0.1 0.1,0.3 0.1,0.4 0.1,0.1 0.2,0.1 0.3,0.1 h 150.9 c 0.1,0 0.3,-0.1 0.4,-0.1 0.1,-0.1 0.1,-0.2 0.1,-0.4 V -75.5 c 0,-0.1 -0.1,-0.2 -0.2,-0.3 M 0.5,-75 H 150.4 V 74.9 H 0.5 Z"
   id="path177" />
				</g>
				<g
   id="path4_00000030473317724129259180000003227667644077662641_">
					<path
   class="st1"
   d="M 150.4,-75 H 0.5 V 74.9 H 150.4 V -75 m -0.8,0.6 v 0.2 l 0.2,-0.2 V 74.2 H 1.5 1.2 V -74.4 Z"
   id="path180" />
				</g>
				<g
   id="path6_00000029757789466747643810000013650173063508748688_">
					<path
   class="st2"
   d="m 143.2,-67.7 6.4,-6.5 v -0.2 H 1.2 V 74.2 H 1.4 L 8,67.7 V -67.7 Z"
   id="path183" />
				</g>
				<g
   id="path8_00000174601280969872920320000009263182456056537984_">
					<path
   class="st3"
   d="m 143.2,-67.7 v 0 L 143.1,67.4 H 8.3 L 8,67.7 1.5,74.1 H 149.8 V -74.4 l -0.2,0.2 z"
   id="path186" />
				</g>
				<g
   id="path10_00000172417310576537766280000012639880159394053290_">
					<path
   class="st4"
   d="m 143.1,-67.6 v 0 L 8,-67.7 V 67.7 L 8.3,67.4 H 143 v -135 z"
   id="path189" />
				</g>
			</g>
		</g>
	</g>
</g>
<g
   id="g166"
   transform="matrix(0.80828857,0,0,0.80828857,490.12332,183.90842)">
	<g
   id="g164">
		<g
   id="use162">
			<g
   id="Symbol_4_0_Layer0_0_FILL_00000024707311206431413960000008060899986521116292_">
				<g
   id="path2_00000069380103871089443450000017988368857506093208_">
					<path
   class="st0"
   d="m 151.2,-75.8 c -0.1,-0.1 -0.2,-0.1 -0.4,-0.1 H 0 c -0.1,0 -0.3,0.1 -0.3,0.1 -0.1,0.1 -0.1,0.2 -0.1,0.4 V 75.4 c 0,0.1 0.1,0.3 0.1,0.4 0.1,0.1 0.2,0.1 0.3,0.1 h 150.9 c 0.1,0 0.3,-0.1 0.4,-0.1 0.1,-0.1 0.1,-0.2 0.1,-0.4 V -75.5 c 0,-0.1 -0.1,-0.2 -0.2,-0.3 M 0.5,-75 H 150.4 V 74.9 H 0.5 Z"
   id="path196" />
				</g>
				<g
   id="path4_00000008106495094226170510000015754463775499544497_">
					<path
   class="st1"
   d="M 150.4,-75 H 0.5 V 74.9 H 150.4 V -75 m -0.8,0.6 v 0.2 l 0.2,-0.2 V 74.2 H 1.5 1.2 V -74.4 Z"
   id="path199" />
				</g>
				<g
   id="path6_00000036236036935696876180000018161778294271511955_">
					<path
   class="st2"
   d="m 143.2,-67.7 6.4,-6.5 v -0.2 H 1.2 V 74.2 H 1.4 L 8,67.7 V -67.7 Z"
   id="path202" />
				</g>
				<g
   id="path8_00000181786656457589936310000014505996450723418503_">
					<path
   class="st3"
   d="m 143.2,-67.7 v 0 L 143.1,67.4 H 8.3 L 8,67.7 1.5,74.1 H 149.8 V -74.4 l -0.2,0.2 z"
   id="path205" />
				</g>
				<g
   id="path10_00000096763707700810175890000005016336437352907164_">
					<path
   class="st4"
   d="m 143.1,-67.6 v 0 L 8,-67.7 V 67.7 l 0.4,-0.3 h 134.7 z"
   id="path208" />
				</g>
			</g>
		</g>
	</g>
</g>
<g
   id="g148"
   transform="matrix(0.80828857,0,0,0.80828857,122.77332,183.90842)">
	<g
   id="g146">
		<g
   id="use144">
			<g
   id="Symbol_4_0_Layer0_0_FILL_00000033363552309600447430000017556475254216275622_">
				<g
   id="path2_00000058564793044152101480000001378862769272277172_">
					<path
   class="st0"
   d="M 151.1,-75.9 C 151,-76 150.9,-76 150.7,-76.1 H -0.1 c -0.1,0 -0.3,0.1 -0.3,0.2 -0.1,0.1 -0.1,0.2 -0.1,0.4 v 151 c 0,0.1 0.1,0.3 0.1,0.4 0,0.1 0.1,0.1 0.3,0.1 h 150.9 c 0.1,0 0.3,-0.1 0.4,-0.2 0.1,-0.1 0.1,-0.2 0.1,-0.4 v -151 c 0,-0.1 -0.1,-0.2 -0.2,-0.3 M 0.4,-75.1 H 150.3 V 75 H 0.4 Z"
   id="path215" />
				</g>
				<g
   id="path4_00000058585913906331310760000001114299357940534933_">
					<path
   class="st1"
   d="M 150.3,-75.1 H 0.4 V 75 H 150.3 V -75.1 m -0.8,0.6 v 0.2 l 0.2,-0.2 V 74.3 H 1.4 1.1 V -74.5 Z"
   id="path218" />
				</g>
				<g
   id="path6_00000098938623980545254090000009415952286167862679_">
					<path
   class="st2"
   d="m 143.1,-67.7 6.4,-6.6 v -0.2 H 1.1 V 74.3 H 1.3 L 7.8,67.8 V -67.7 Z"
   id="path221" />
				</g>
				<g
   id="path8_00000077326211783924193940000012935128060371397047_">
					<path
   class="st3"
   d="m 143.1,-67.7 -0.1,0.1 V 67.5 H 8.2 L 7.9,67.8 1.4,74.3 H 149.7 V -74.5 l -0.2,0.2 z"
   id="path224" />
				</g>
				<g
   id="path10_00000149382099678950156040000004061500477030073234_">
					<path
   class="st4"
   d="m 143,-67.6 0.1,-0.1 H 7.9 V 67.8 L 8.2,67.5 H 143 Z"
   id="path227" />
				</g>
			</g>
		</g>
	</g>
</g>
<g
   id="g172"
   transform="matrix(0.80828857,0,0,0.80828857,612.57332,183.90842)">
	<g
   id="g170">
		<g
   id="use168">
			<g
   id="Symbol_4_0_Layer0_0_FILL_00000119807508041754990940000014847469003942912409_">
				<g
   id="path2_00000078728286230637113320000008709132304190666398_">
					<path
   class="st0"
   d="m 151.2,-75.8 c -0.1,-0.1 -0.2,-0.1 -0.4,-0.1 H 0 c -0.1,0 -0.3,0.1 -0.3,0.1 -0.1,0.1 -0.1,0.2 -0.1,0.4 V 75.4 c 0,0.1 0.1,0.3 0.1,0.4 0.1,0.1 0.2,0.1 0.3,0.1 h 150.9 c 0.1,0 0.3,-0.1 0.4,-0.1 0.1,-0.1 0.1,-0.2 0.1,-0.4 V -75.5 c 0,-0.1 -0.1,-0.2 -0.2,-0.3 M 0.5,-75 H 150.4 V 74.9 H 0.5 Z"
   id="path234" />
				</g>
				<g
   id="path4_00000101815569689806686930000018131885094844902032_">
					<path
   class="st1"
   d="M 150.4,-75 H 0.5 V 74.9 H 150.4 V -75 m -0.8,0.6 v 0.2 l 0.2,-0.2 V 74.2 H 1.5 1.2 V -74.4 Z"
   id="path237" />
				</g>
				<g
   id="path6_00000021117990851476599990000004709108357694463134_">
					<path
   class="st2"
   d="m 143.2,-67.7 6.4,-6.5 v -0.2 H 1.2 V 74.2 H 1.4 L 8,67.7 V -67.7 Z"
   id="path240" />
				</g>
				<g
   id="path8_00000023248538889175750580000002771749508534949297_">
					<path
   class="st3"
   d="m 143.2,-67.7 v 0 L 143.1,67.4 H 8.3 L 8,67.7 1.5,74.1 H 149.8 V -74.4 l -0.2,0.2 z"
   id="path243" />
				</g>
				<g
   id="path10_00000074413613661496314030000011966847728264372912_">
					<path
   class="st4"
   d="m 143.1,-67.6 v 0 L 8,-67.7 V 67.7 l 0.4,-0.3 h 134.7 z"
   id="path246" />
				</g>
			</g>
		</g>
	</g>
</g>
<g
   id="g178"
   transform="matrix(0.80828857,0,0,0.80828857,735.12332,183.90842)">
	<g
   id="g176">
		<g
   id="use174">
			<g
   id="Symbol_4_0_Layer0_0_FILL_00000025440143557055061070000007755473767476061111_">
				<g
   id="path2_00000089563856112063284460000016014926334299872946_">
					<path
   class="st0"
   d="m 150,-75.8 c -0.1,-0.1 -0.2,-0.1 -0.4,-0.1 H -1.3 c -0.1,0 -0.3,0.1 -0.3,0.1 -0.1,0.1 -0.1,0.2 -0.1,0.4 V 75.4 c 0,0.1 0.1,0.3 0.1,0.4 0.1,0.1 0.2,0.1 0.3,0.1 h 150.9 c 0.1,0 0.3,-0.1 0.4,-0.1 0.1,-0.1 0.1,-0.2 0.1,-0.4 V -75.4 c 0,-0.2 0,-0.3 -0.1,-0.4 M -0.8,-74.9 H 149.1 V 74.9 H -0.8 Z"
   id="path253" />
				</g>
				<g
   id="path4_00000102536156034228840390000002439320304375451040_">
					<path
   class="st1"
   d="M 149.1,-74.9 H -0.8 V 74.9 H 149.1 V -74.9 m -0.7,0.5 v 0.2 l 0.2,-0.2 V 74.2 H 0.2 0 V -74.4 Z"
   id="path256" />
				</g>
				<g
   id="path6_00000175305919553886309250000008393064082716938152_">
					<path
   class="st2"
   d="m 141.9,-67.6 6.4,-6.5 v -0.2 H 0 V 74.2 H 0.2 L 6.7,67.8 V -67.6 Z"
   id="path259" />
				</g>
				<g
   id="path8_00000153694245092182785800000013017949854318354564_">
					<path
   class="st3"
   d="m 141.9,-67.6 v 0 L 141.8,67.5 H 7.1 L 6.7,67.8 0.2,74.2 H 148.5 V -74.4 l -0.2,0.2 z"
   id="path262" />
				</g>
				<g
   id="path10_00000017492461212884835460000006727953520199175566_">
					<path
   class="st4"
   d="m 141.8,-67.5 v 0 L 6.7,-67.6 V 67.7 l 0.4,-0.3 h 134.7 z"
   id="path265" />
				</g>
			</g>
		</g>
	</g>
</g>
<g
   id="g184"
   transform="matrix(0.80828857,0,0,0.80828857,0.32331543,303.50842)">
	<g
   id="g182">
		<g
   id="use180">
			<g
   id="Symbol_4_0_Layer0_0_FILL_00000140711856823094285050000013953596219598861203_">
				<g
   id="path2_00000142858157422478081590000014871120901222127250_">
					<path
   class="st0"
   d="m 151.2,-75.8 c -0.1,-0.1 -0.2,-0.1 -0.4,-0.1 H 0 c -0.1,0 -0.3,0.1 -0.3,0.1 -0.1,0.1 -0.1,0.2 -0.1,0.4 V 75.4 c 0,0.1 0.1,0.3 0.1,0.4 0.1,0.1 0.2,0.1 0.3,0.1 h 150.9 c 0.1,0 0.3,-0.1 0.4,-0.1 0.1,-0.1 0.1,-0.2 0.1,-0.4 V -75.4 c 0,-0.2 -0.1,-0.3 -0.2,-0.4 M 0.5,-74.9 H 150.4 V 74.9 H 0.5 Z"
   id="path272" />
				</g>
				<g
   id="path4_00000034049822348791093820000010980567872012097705_">
					<path
   class="st1"
   d="M 150.4,-74.9 H 0.5 V 74.9 H 150.4 V -74.9 m -0.8,0.5 v 0.2 l 0.2,-0.2 V 74.2 H 1.5 1.2 V -74.4 Z"
   id="path275" />
				</g>
				<g
   id="path6_00000005975738898163892670000000094192166252343445_">
					<path
   class="st2"
   d="m 143.2,-67.6 6.4,-6.5 v -0.2 H 1.2 V 74.2 H 1.4 L 8,67.7 V -67.6 Z"
   id="path278" />
				</g>
				<g
   id="path8_00000026871959748440744960000008491877493286785436_">
					<path
   class="st3"
   d="m 143.2,-67.6 v 0 L 143.1,67.5 H 8.3 L 8,67.7 1.5,74.1 H 149.8 V -74.4 l -0.2,0.2 z"
   id="path281" />
				</g>
				<g
   id="path10_00000030470407633806021120000000617366304771491732_">
					<path
   class="st4"
   d="m 143.1,-67.5 v 0 L 8,-67.6 V 67.7 L 8.3,67.4 H 143 V -67.5 Z"
   id="path284" />
				</g>
			</g>
		</g>
	</g>
</g>
<g
   id="g190"
   transform="matrix(0.80828857,0,0,0.80828857,122.77332,303.50842)">
	<g
   id="g188">
		<g
   id="use186">
			<g
   id="Symbol_4_0_Layer0_0_FILL_00000168118519416731920450000006746176599741086624_">
				<g
   id="path2_00000054963599454882630800000001770535081808191148_">
					<path
   class="st0"
   d="m 151.1,-75.8 c -0.1,-0.1 -0.2,-0.1 -0.4,-0.1 H -0.1 c -0.1,0 -0.3,0.1 -0.3,0.1 -0.1,0.1 -0.1,0.2 -0.1,0.4 V 75.4 c 0,0.1 0.1,0.3 0.1,0.4 0.1,0.1 0.2,0.1 0.3,0.1 h 150.9 c 0.1,0 0.3,-0.1 0.4,-0.1 0.1,-0.1 0.1,-0.2 0.1,-0.4 V -75.4 c 0,-0.2 -0.1,-0.3 -0.2,-0.4 M 0.4,-74.9 H 150.3 V 74.9 H 0.4 Z"
   id="path291" />
				</g>
				<g
   id="path4_00000066495869530957017040000015506392911535888303_">
					<path
   class="st1"
   d="M 150.3,-74.9 H 0.4 V 74.9 H 150.3 V -74.9 m -0.8,0.5 v 0.2 l 0.2,-0.2 V 74.2 H 1.4 1.1 V -74.4 Z"
   id="path294" />
				</g>
				<g
   id="path6_00000017508343009326121090000018381320373674731699_">
					<path
   class="st2"
   d="m 143.1,-67.6 6.4,-6.5 v -0.2 H 1.1 V 74.2 H 1.3 L 7.8,67.8 V -67.6 Z"
   id="path297" />
				</g>
				<g
   id="path8_00000092451216826468738160000000726201697762667189_">
					<path
   class="st3"
   d="m 143.1,-67.6 v 0 L 143,67.4 H 8.2 L 7.9,67.7 1.4,74.1 H 149.7 V -74.4 l -0.2,0.2 z"
   id="path300" />
				</g>
				<g
   id="path10_00000170280106682261889770000009658011550063682959_">
					<path
   class="st4"
   d="m 143,-67.5 v 0 L 7.9,-67.6 V 67.7 L 8.2,67.4 H 143 Z"
   id="path303" />
				</g>
			</g>
		</g>
	</g>
</g>
<g
   id="g196"
   transform="matrix(0.80828857,0,0,0.80828857,245.22332,303.50842)">
	<g
   id="g194">
		<g
   id="use192">
			<g
   id="Symbol_4_0_Layer0_0_FILL_00000034089343528881507960000016707996159042167228_">
				<g
   id="path2_00000068673903481941523780000007232502475358004132_">
					<path
   class="st0"
   d="m 151.2,-75.8 c -0.1,-0.1 -0.2,-0.1 -0.4,-0.1 H 0 c -0.1,0 -0.3,0.1 -0.3,0.1 -0.1,0.1 -0.1,0.2 -0.1,0.4 V 75.4 c 0,0.1 0.1,0.3 0.1,0.4 0.1,0.1 0.2,0.1 0.3,0.1 h 150.9 c 0.1,0 0.3,-0.1 0.4,-0.1 0.1,-0.1 0.1,-0.2 0.1,-0.4 V -75.4 c 0,-0.2 -0.1,-0.3 -0.2,-0.4 M 0.5,-74.9 H 150.4 V 74.9 H 0.5 Z"
   id="path310" />
				</g>
				<g
   id="path4_00000183216263279024222770000001361758064845223855_">
					<path
   class="st1"
   d="M 150.4,-74.9 H 0.5 V 74.9 H 150.4 V -74.9 m -0.8,0.5 v 0.2 l 0.2,-0.2 V 74.2 H 1.5 1.2 V -74.4 Z"
   id="path313" />
				</g>
				<g
   id="path6_00000066502249678284850750000004306917295981801610_">
					<path
   class="st2"
   d="m 143.2,-67.6 6.4,-6.5 v -0.2 H 1.2 V 74.2 H 1.4 L 8,67.7 V -67.6 Z"
   id="path316" />
				</g>
				<g
   id="path8_00000051349698610727253910000016684851669806800273_">
					<path
   class="st3"
   d="m 143.2,-67.6 v 0 L 143.1,67.5 H 8.3 L 8,67.7 1.5,74.1 H 149.8 V -74.4 l -0.2,0.2 z"
   id="path319" />
				</g>
				<g
   id="path10_00000047061924320312984500000008394199800180631170_">
					<path
   class="st4"
   d="m 143.1,-67.5 v 0 L 8,-67.6 V 67.7 L 8.3,67.4 H 143 V -67.5 Z"
   id="path322" />
				</g>
			</g>
		</g>
	</g>
</g>
<g
   id="g202"
   transform="matrix(0.80828857,0,0,0.80828857,367.67332,303.50842)">
	<g
   id="g200">
		<g
   id="use198">
			<g
   id="Symbol_4_0_Layer0_0_FILL_00000133503239864127640250000011250163920443120808_">
				<g
   id="path2_00000124154712822414452450000008538036914902318216_">
					<path
   class="st0"
   d="m 151.2,-75.8 c -0.1,-0.1 -0.2,-0.1 -0.4,-0.1 H 0 c -0.1,0 -0.3,0.1 -0.3,0.1 -0.1,0.1 -0.1,0.2 -0.1,0.4 V 75.4 c 0,0.1 0.1,0.3 0.1,0.4 0.1,0.1 0.2,0.1 0.3,0.1 h 150.9 c 0.1,0 0.3,-0.1 0.4,-0.1 0.1,-0.1 0.1,-0.2 0.1,-0.4 V -75.4 c 0,-0.2 -0.1,-0.3 -0.2,-0.4 M 0.5,-74.9 H 150.4 V 74.9 H 0.5 Z"
   id="path329" />
				</g>
				<g
   id="path4_00000132069887730392947830000006575668080426835355_">
					<path
   class="st1"
   d="M 150.4,-74.9 H 0.5 V 74.9 H 150.4 V -74.9 m -0.8,0.5 v 0.2 l 0.2,-0.2 V 74.2 H 1.5 1.2 V -74.4 Z"
   id="path332" />
				</g>
				<g
   id="path6_00000071534364550132265750000004975994454730426785_">
					<path
   class="st2"
   d="m 143.2,-67.6 6.4,-6.5 v -0.2 H 1.2 V 74.2 H 1.4 L 8,67.7 V -67.6 Z"
   id="path335" />
				</g>
				<g
   id="path8_00000061430185181603523010000013039290469823301022_">
					<path
   class="st3"
   d="m 143.2,-67.6 v 0 L 143.1,67.5 H 8.3 L 8,67.7 1.5,74.1 H 149.8 V -74.4 l -0.2,0.2 z"
   id="path338" />
				</g>
				<g
   id="path10_00000013162491137018077680000013193890061353456268_">
					<path
   class="st4"
   d="m 143.1,-67.5 v 0 L 8,-67.6 V 67.7 L 8.3,67.4 H 143 V -67.5 Z"
   id="path341" />
				</g>
			</g>
		</g>
	</g>
</g>
<g
   id="g208"
   transform="matrix(0.80828857,0,0,0.80828857,490.12332,303.50842)">
	<g
   id="g206">
		<g
   id="use204">
			<g
   id="Symbol_4_0_Layer0_0_FILL_00000160177816290408472680000000439426008075200952_">
				<g
   id="path2_00000072270546006141667110000002324338484441207688_">
					<path
   class="st0"
   d="m 151.2,-75.8 c -0.1,-0.1 -0.2,-0.1 -0.4,-0.1 H 0 c -0.1,0 -0.3,0.1 -0.3,0.1 -0.1,0.1 -0.1,0.2 -0.1,0.4 V 75.4 c 0,0.1 0.1,0.3 0.1,0.4 0.1,0.1 0.2,0.1 0.3,0.1 h 150.9 c 0.1,0 0.3,-0.1 0.4,-0.1 0.1,-0.1 0.1,-0.2 0.1,-0.4 V -75.4 c 0,-0.2 -0.1,-0.3 -0.2,-0.4 M 0.5,-74.9 H 150.4 V 74.9 H 0.5 Z"
   id="path348" />
				</g>
				<g
   id="path4_00000085221534252272745910000001023283114645741492_">
					<path
   class="st1"
   d="M 150.4,-74.9 H 0.5 V 74.9 H 150.4 V -74.9 m -0.8,0.5 v 0.2 l 0.2,-0.2 V 74.2 H 1.5 1.2 V -74.4 Z"
   id="path351" />
				</g>
				<g
   id="path6_00000031926952065245368180000006709736285001348030_">
					<path
   class="st2"
   d="m 143.2,-67.6 6.4,-6.5 v -0.2 H 1.2 V 74.2 H 1.4 L 8,67.7 V -67.6 Z"
   id="path354" />
				</g>
				<g
   id="path8_00000124844552374104592620000002099423773179169682_">
					<path
   class="st3"
   d="m 143.2,-67.6 v 0 L 143.1,67.5 H 8.3 L 8,67.7 1.5,74.1 H 149.8 V -74.4 l -0.2,0.2 z"
   id="path357" />
				</g>
				<g
   id="path10_00000072959872506455002510000015217409638139051933_">
					<path
   class="st4"
   d="m 143.1,-67.5 v 0 L 8,-67.6 V 67.7 l 0.4,-0.3 h 134.7 z"
   id="path360" />
				</g>
			</g>
		</g>
	</g>
</g>
<g
   id="g214"
   transform="matrix(0.80828857,0,0,0.80828857,612.57332,303.50842)">
	<g
   id="g212">
		<g
   id="use210">
			<g
   id="Symbol_4_0_Layer0_0_FILL_00000142868847218277860410000011288505960904820098_">
				<g
   id="path2_00000052797777442139639080000009149625877104494986_">
					<path
   class="st0"
   d="m 151.2,-75.8 c -0.1,-0.1 -0.2,-0.1 -0.4,-0.1 H 0 c -0.1,0 -0.3,0.1 -0.3,0.1 -0.1,0.1 -0.1,0.2 -0.1,0.4 V 75.4 c 0,0.1 0.1,0.3 0.1,0.4 0.1,0.1 0.2,0.1 0.3,0.1 h 150.9 c 0.1,0 0.3,-0.1 0.4,-0.1 0.1,-0.1 0.1,-0.2 0.1,-0.4 V -75.4 c 0,-0.2 -0.1,-0.3 -0.2,-0.4 M 0.5,-74.9 H 150.4 V 74.9 H 0.5 Z"
   id="path367" />
				</g>
				<g
   id="path4_00000158713056885321952630000000747903880597271428_">
					<path
   class="st1"
   d="M 150.4,-74.9 H 0.5 V 74.9 H 150.4 V -74.9 m -0.8,0.5 v 0.2 l 0.2,-0.2 V 74.2 H 1.5 1.2 V -74.4 Z"
   id="path370" />
				</g>
				<g
   id="path6_00000147220028667650125230000010907124864385706908_">
					<path
   class="st2"
   d="m 143.2,-67.6 6.4,-6.5 v -0.2 H 1.2 V 74.2 H 1.4 L 8,67.7 V -67.6 Z"
   id="path373" />
				</g>
				<g
   id="path8_00000172409204603684112420000009721210664746860943_">
					<path
   class="st3"
   d="m 143.2,-67.6 v 0 L 143.1,67.5 H 8.3 L 8,67.7 1.5,74.1 H 149.8 V -74.4 l -0.2,0.2 z"
   id="path376" />
				</g>
				<g
   id="path10_00000176760770045589993190000009365872722992672642_">
					<path
   class="st4"
   d="m 143.1,-67.5 v 0 L 8,-67.6 V 67.7 l 0.4,-0.3 h 134.7 z"
   id="path379" />
				</g>
			</g>
		</g>
	</g>
</g>
<g
   id="g220"
   transform="matrix(0.80828857,0,0,0.80828857,735.12332,303.50842)">
	<g
   id="g218">
		<g
   id="use216">
			<g
   id="Symbol_4_0_Layer0_0_FILL_00000041294227150112928130000002292045310008840110_">
				<g
   id="path2_00000098215582679956837460000012394515635341972125_">
					<path
   class="st0"
   d="m 150,-75.8 c -0.1,-0.1 -0.2,-0.1 -0.4,-0.1 H -1.3 c -0.1,0 -0.3,0.1 -0.3,0.1 -0.1,0.1 -0.1,0.2 -0.1,0.4 V 75.4 c 0,0.1 0.1,0.3 0.1,0.4 0.1,0.1 0.2,0.1 0.3,0.1 h 150.9 c 0.1,0 0.3,-0.1 0.4,-0.1 0.1,-0.1 0.1,-0.2 0.1,-0.4 V -75.4 c 0,-0.2 0,-0.3 -0.1,-0.4 M -0.8,-74.9 H 149.1 V 74.9 H -0.8 Z"
   id="path386" />
				</g>
				<g
   id="path4_00000121242668927724428840000003837499666418490246_">
					<path
   class="st1"
   d="M 149.1,-74.9 H -0.8 V 74.9 H 149.1 V -74.9 m -0.7,0.5 v 0.2 l 0.2,-0.2 V 74.2 H 0.2 0 V -74.4 Z"
   id="path389" />
				</g>
				<g
   id="path6_00000041259561511804798460000005930724095860632201_">
					<path
   class="st2"
   d="m 141.9,-67.6 6.4,-6.5 v -0.2 H 0 V 74.2 H 0.2 L 6.7,67.8 V -67.6 Z"
   id="path392" />
				</g>
				<g
   id="path8_00000026856311108640365330000010436197993028459960_">
					<path
   class="st3"
   d="m 141.9,-67.6 v 0 L 141.8,67.5 H 7.1 L 6.7,67.8 0.2,74.2 H 148.5 V -74.4 l -0.2,0.2 z"
   id="path395" />
				</g>
				<g
   id="path10_00000048467942921869867500000017746309516269359496_">
					<path
   class="st4"
   d="m 141.8,-67.5 v 0 L 6.7,-67.6 V 67.7 l 0.4,-0.3 h 134.7 z"
   id="path398" />
				</g>
			</g>
		</g>
	</g>
</g>
<g
   id="g226"
   transform="matrix(0.80828857,0,0,0.80828857,0.32331543,423.15842)">
	<g
   id="g224">
		<g
   id="use222">
			<g
   id="Symbol_4_0_Layer0_0_FILL_00000025407147054455560530000000470899841905722768_">
				<g
   id="path2_00000106826320460935926590000003965532090028234375_">
					<path
   class="st0"
   d="m 151.2,-75.8 c -0.1,-0.1 -0.2,-0.1 -0.4,-0.1 H 0 c -0.1,0 -0.3,0.1 -0.3,0.1 -0.1,0.1 -0.1,0.2 -0.1,0.4 V 75.4 c 0,0.1 0.1,0.3 0.1,0.4 0.1,0.1 0.2,0.1 0.3,0.1 h 150.9 c 0.1,0 0.3,-0.1 0.4,-0.1 0.1,-0.1 0.1,-0.2 0.1,-0.4 V -75.4 c 0,-0.2 -0.1,-0.3 -0.2,-0.4 M 0.5,-74.9 H 150.4 V 74.9 H 0.5 Z"
   id="path405" />
				</g>
				<g
   id="path4_00000126297849903040931310000017418496824503613829_">
					<path
   class="st1"
   d="M 150.4,-74.9 H 0.5 V 74.9 H 150.4 V -74.9 m -0.8,0.5 v 0.2 l 0.2,-0.2 V 74.2 H 1.5 1.2 V -74.4 Z"
   id="path408" />
				</g>
				<g
   id="path6_00000068673418780828141480000007485837589687126947_">
					<path
   class="st2"
   d="m 143.2,-67.6 6.4,-6.5 v -0.2 H 1.2 V 74.2 H 1.4 L 8,67.7 V -67.6 Z"
   id="path411" />
				</g>
				<g
   id="path8_00000160871311356605549900000010597987761126321316_">
					<path
   class="st3"
   d="m 143.2,-67.6 v 0 L 143.1,67.5 H 8.3 L 8,67.7 1.5,74.1 H 149.8 V -74.4 l -0.2,0.2 z"
   id="path414" />
				</g>
				<g
   id="path10_00000129179066641383179780000013762188123628869248_">
					<path
   class="st4"
   d="m 143.1,-67.5 v 0 L 8,-67.6 V 67.7 L 8.3,67.4 H 143 V -67.5 Z"
   id="path417" />
				</g>
			</g>
		</g>
	</g>
</g>
<g
   id="g232"
   transform="matrix(0.80828857,0,0,0.80828857,122.77332,421.15842)">
	<g
   id="g230">
		<g
   id="use228">
			<g
   id="Symbol_4_0_Layer0_0_FILL_00000116954203912083876640000010422110688551804823_">
				<g
   id="path2_00000067205876901617659880000013475038297354648965_">
					<path
   class="st0"
   d="m 151.1,-75.8 c -0.1,-0.1 -0.2,-0.1 -0.4,-0.1 H -0.1 c -0.1,0 -0.3,0.1 -0.3,0.1 -0.1,0.1 -0.1,0.2 -0.1,0.4 V 75.4 c 0,0.1 0.1,0.3 0.1,0.4 0.1,0.1 0.2,0.1 0.3,0.1 h 150.9 c 0.1,0 0.3,-0.1 0.4,-0.1 0.1,-0.1 0.1,-0.2 0.1,-0.4 V -75.4 c 0,-0.2 -0.1,-0.3 -0.2,-0.4 M 0.4,-74.9 H 150.3 V 74.9 H 0.4 Z"
   id="path424" />
				</g>
				<g
   id="path4_00000161619136070287682540000009682827198073111973_">
					<path
   class="st1"
   d="M 150.3,-74.9 H 0.4 V 74.9 H 150.3 V -74.9 m -0.8,0.5 v 0.2 l 0.2,-0.2 V 74.2 H 1.4 1.1 V -74.4 Z"
   id="path427" />
				</g>
				<g
   id="path6_00000092428373916082031500000011656307186502566040_">
					<path
   class="st2"
   d="m 143.1,-67.6 6.4,-6.5 v -0.2 H 1.1 V 74.2 H 1.3 L 7.8,67.8 V -67.6 Z"
   id="path430" />
				</g>
				<g
   id="path8_00000038407425058454473070000010115892973379549568_">
					<path
   class="st3"
   d="m 143.1,-67.6 v 0 L 143,67.4 H 8.2 L 7.9,67.7 1.4,74.1 H 149.7 V -74.4 l -0.2,0.2 z"
   id="path433" />
				</g>
				<g
   id="path10_00000101818337789241675190000008633489020979229598_">
					<path
   class="st4"
   d="m 143,-67.5 v 0 L 7.9,-67.6 V 67.7 L 8.2,67.4 H 143 Z"
   id="path436" />
				</g>
			</g>
		</g>
	</g>
</g>
<g
   id="g238"
   transform="matrix(0.80828857,0,0,0.80828857,245.22332,421.15842)">
	<g
   id="g236">
		<g
   id="use234">
			<g
   id="Symbol_4_0_Layer0_0_FILL_00000157291522330966101970000000119456920468825756_">
				<g
   id="path2_00000070076909875572487870000000367881128897953949_">
					<path
   class="st0"
   d="m 151.2,-75.8 c -0.1,-0.1 -0.2,-0.1 -0.4,-0.1 H 0 c -0.1,0 -0.3,0.1 -0.3,0.1 -0.1,0.1 -0.1,0.2 -0.1,0.4 V 75.4 c 0,0.1 0.1,0.3 0.1,0.4 0.1,0.1 0.2,0.1 0.3,0.1 h 150.9 c 0.1,0 0.3,-0.1 0.4,-0.1 0.1,-0.1 0.1,-0.2 0.1,-0.4 V -75.4 c 0,-0.2 -0.1,-0.3 -0.2,-0.4 M 0.5,-74.9 H 150.4 V 74.9 H 0.5 Z"
   id="path443" />
				</g>
				<g
   id="path4_00000150091816535655015560000014992568124332521130_">
					<path
   class="st1"
   d="M 150.4,-74.9 H 0.5 V 74.9 H 150.4 V -74.9 m -0.8,0.5 v 0.2 l 0.2,-0.2 V 74.2 H 1.5 1.2 V -74.4 Z"
   id="path446" />
				</g>
				<g
   id="path6_00000028305757775857245750000004606787685230774945_">
					<path
   class="st2"
   d="m 143.2,-67.6 6.4,-6.5 v -0.2 H 1.2 V 74.2 H 1.4 L 8,67.7 V -67.6 Z"
   id="path449" />
				</g>
				<g
   id="path8_00000141419324469174721020000015179088005499934909_">
					<path
   class="st3"
   d="m 143.2,-67.6 v 0 L 143.1,67.5 H 8.3 L 8,67.7 1.5,74.1 H 149.8 V -74.4 l -0.2,0.2 z"
   id="path452" />
				</g>
				<g
   id="path10_00000103252654281057211800000016910595948285829793_">
					<path
   class="st4"
   d="m 143.1,-67.5 v 0 L 8,-67.6 V 67.7 L 8.3,67.4 H 143 V -67.5 Z"
   id="path455" />
				</g>
			</g>
		</g>
	</g>
</g>
<g
   id="g244"
   transform="matrix(0.80828857,0,0,0.80828857,367.67332,423.15842)">
	<g
   id="g242">
		<g
   id="use240">
			<g
   id="Symbol_4_0_Layer0_0_FILL_00000066490057351728314050000004783118010253894813_">
				<g
   id="path2_00000159438894633729068180000015755941001396391868_">
					<path
   class="st0"
   d="m 151.2,-75.8 c -0.1,-0.1 -0.2,-0.1 -0.4,-0.1 H 0 c -0.1,0 -0.3,0.1 -0.3,0.1 -0.1,0.1 -0.1,0.2 -0.1,0.4 V 75.4 c 0,0.1 0.1,0.3 0.1,0.4 0.1,0.1 0.2,0.1 0.3,0.1 h 150.9 c 0.1,0 0.3,-0.1 0.4,-0.1 0.1,-0.1 0.1,-0.2 0.1,-0.4 V -75.4 c 0,-0.2 -0.1,-0.3 -0.2,-0.4 M 0.5,-74.9 H 150.4 V 74.9 H 0.5 Z"
   id="path462" />
				</g>
				<g
   id="path4_00000011723411955562501670000000744818105632825015_">
					<path
   class="st1"
   d="M 150.4,-74.9 H 0.5 V 74.9 H 150.4 V -74.9 m -0.8,0.5 v 0.2 l 0.2,-0.2 V 74.2 H 1.5 1.2 V -74.4 Z"
   id="path465" />
				</g>
				<g
   id="path6_00000130618051517152606890000008586712310674796178_">
					<path
   class="st2"
   d="m 143.2,-67.6 6.4,-6.5 v -0.2 H 1.2 V 74.2 H 1.4 L 8,67.7 V -67.6 Z"
   id="path468" />
				</g>
				<g
   id="path8_00000135692729031639177920000004130399926732768413_">
					<path
   class="st3"
   d="m 143.2,-67.6 v 0 L 143.1,67.5 H 8.3 L 8,67.7 1.5,74.1 H 149.8 V -74.4 l -0.2,0.2 z"
   id="path471" />
				</g>
				<g
   id="path10_00000155113685838991257640000004763351280140717449_">
					<path
   class="st4"
   d="m 143.1,-67.5 v 0 L 8,-67.6 V 67.7 L 8.3,67.4 H 143 V -67.5 Z"
   id="path474" />
				</g>
			</g>
		</g>
	</g>
</g>
<g
   id="g250"
   transform="matrix(0.80828857,0,0,0.80828857,490.12332,423.15842)">
	<g
   id="g248">
		<g
   id="use246">
			<g
   id="Symbol_4_0_Layer0_0_FILL_00000150789655329905784890000016593476894351877823_">
				<g
   id="path2_00000069357811239459572450000016305085999317334700_">
					<path
   class="st0"
   d="m 151.2,-75.8 c -0.1,-0.1 -0.2,-0.1 -0.4,-0.1 H 0 c -0.1,0 -0.3,0.1 -0.3,0.1 -0.1,0.1 -0.1,0.2 -0.1,0.4 V 75.4 c 0,0.1 0.1,0.3 0.1,0.4 0.1,0.1 0.2,0.1 0.3,0.1 h 150.9 c 0.1,0 0.3,-0.1 0.4,-0.1 0.1,-0.1 0.1,-0.2 0.1,-0.4 V -75.4 c 0,-0.2 -0.1,-0.3 -0.2,-0.4 M 0.5,-74.9 H 150.4 V 74.9 H 0.5 Z"
   id="path481" />
				</g>
				<g
   id="path4_00000067958925461898816360000008569740770902955659_">
					<path
   class="st1"
   d="M 150.4,-74.9 H 0.5 V 74.9 H 150.4 V -74.9 m -0.8,0.5 v 0.2 l 0.2,-0.2 V 74.2 H 1.5 1.2 V -74.4 Z"
   id="path484" />
				</g>
				<g
   id="path6_00000165234147192554916510000010581991935596165539_">
					<path
   class="st2"
   d="m 143.2,-67.6 6.4,-6.5 v -0.2 H 1.2 V 74.2 H 1.4 L 8,67.7 V -67.6 Z"
   id="path487" />
				</g>
				<g
   id="path8_00000016064897022159762910000010790654261438956695_">
					<path
   class="st3"
   d="m 143.2,-67.6 v 0 L 143.1,67.5 H 8.3 L 8,67.7 1.5,74.1 H 149.8 V -74.4 l -0.2,0.2 z"
   id="path490" />
				</g>
				<g
   id="path10_00000105426802482394124550000004709626196142584198_">
					<path
   class="st4"
   d="m 143.1,-67.5 v 0 L 8,-67.6 V 67.7 l 0.4,-0.3 h 134.7 z"
   id="path493" />
				</g>
			</g>
		</g>
	</g>
</g>
<g
   id="g256"
   transform="matrix(0.80828857,0,0,0.80828857,612.57332,423.15842)">
	<g
   id="g254">
		<g
   id="use252">
			<g
   id="Symbol_4_0_Layer0_0_FILL_00000092421171790669488290000001271668356573996208_">
				<g
   id="path2_00000127043272241357483900000006763041279023504817_">
					<path
   class="st0"
   d="m 151.2,-75.8 c -0.1,-0.1 -0.2,-0.1 -0.4,-0.1 H 0 c -0.1,0 -0.3,0.1 -0.3,0.1 -0.1,0.1 -0.1,0.2 -0.1,0.4 V 75.4 c 0,0.1 0.1,0.3 0.1,0.4 0.1,0.1 0.2,0.1 0.3,0.1 h 150.9 c 0.1,0 0.3,-0.1 0.4,-0.1 0.1,-0.1 0.1,-0.2 0.1,-0.4 V -75.4 c 0,-0.2 -0.1,-0.3 -0.2,-0.4 M 0.5,-74.9 H 150.4 V 74.9 H 0.5 Z"
   id="path500" />
				</g>
				<g
   id="path4_00000008845562704865471230000002032733483161119159_">
					<path
   class="st1"
   d="M 150.4,-74.9 H 0.5 V 74.9 H 150.4 V -74.9 m -0.8,0.5 v 0.2 l 0.2,-0.2 V 74.2 H 1.5 1.2 V -74.4 Z"
   id="path503" />
				</g>
				<g
   id="path6_00000100354748382292128300000014978721526108065676_">
					<path
   class="st2"
   d="m 143.2,-67.6 6.4,-6.5 v -0.2 H 1.2 V 74.2 H 1.4 L 8,67.7 V -67.6 Z"
   id="path506" />
				</g>
				<g
   id="path8_00000151518568490179562020000007526369076376049029_">
					<path
   class="st3"
   d="m 143.2,-67.6 v 0 L 143.1,67.5 H 8.3 L 8,67.7 1.5,74.1 H 149.8 V -74.4 l -0.2,0.2 z"
   id="path509" />
				</g>
				<g
   id="path10_00000180359284808841221110000013272416783209414044_">
					<path
   class="st4"
   d="m 143.1,-67.5 v 0 L 8,-67.6 V 67.7 l 0.4,-0.3 h 134.7 z"
   id="path512" />
				</g>
			</g>
		</g>
	</g>
</g>
<g
   id="g262"
   transform="matrix(0.80828857,0,0,0.80828857,735.12332,423.15842)">
	<g
   id="g260">
		<g
   id="use258">
			<g
   id="Symbol_4_0_Layer0_0_FILL_00000028326073917907635820000012167210808837885108_">
				<g
   id="path2_00000140005610011180639100000005319206059327384981_">
					<path
   class="st0"
   d="m 150,-75.8 c -0.1,-0.1 -0.2,-0.1 -0.4,-0.1 H -1.3 c -0.1,0 -0.3,0.1 -0.3,0.1 -0.1,0.1 -0.1,0.2 -0.1,0.4 V 75.4 c 0,0.1 0.1,0.3 0.1,0.4 0.1,0.1 0.2,0.1 0.3,0.1 h 150.9 c 0.1,0 0.3,-0.1 0.4,-0.1 0.1,-0.1 0.1,-0.2 0.1,-0.4 V -75.4 c 0,-0.2 0,-0.3 -0.1,-0.4 M -0.8,-74.9 H 149.1 V 74.9 H -0.8 Z"
   id="path519" />
				</g>
				<g
   id="path4_00000009569743275224169180000014540532314898896006_">
					<path
   class="st1"
   d="M 149.1,-74.9 H -0.8 V 74.9 H 149.1 V -74.9 m -0.7,0.5 v 0.2 l 0.2,-0.2 V 74.2 H 0.2 0 V -74.4 Z"
   id="path522" />
				</g>
				<g
   id="path6_00000000924649784056353140000018022634545189583233_">
					<path
   class="st2"
   d="m 141.9,-67.6 6.4,-6.5 v -0.2 H 0 V 74.2 H 0.2 L 6.7,67.8 V -67.6 Z"
   id="path525" />
				</g>
				<g
   id="path8_00000142872729171197351820000001492369091805057678_">
					<path
   class="st3"
   d="m 141.9,-67.6 v 0 L 141.8,67.5 H 7.1 L 6.7,67.8 0.2,74.2 H 148.5 V -74.4 l -0.2,0.2 z"
   id="path528" />
				</g>
				<g
   id="path10_00000132050265894490996960000008429028540627953086_">
					<path
   class="st4"
   d="m 141.8,-67.5 v 0 L 6.7,-67.6 V 67.7 l 0.4,-0.3 h 134.7 z"
   id="path531" />
				</g>
			</g>
		</g>
	</g>
</g>

<g
   id="g274"
   transform="matrix(0.80828857,0,0,0.80828857,368.20552,61.349102)">
	<g
   id="g272">
		<g
   id="use270">
			<g
   id="Symbol_4_0_Layer0_0_FILL_00000030476560357998383820000013036424653461358246_">
				<g
   id="path2_00000047051516475827347430000002038053959976974239_">
					<path
   class="st0"
   d="m 151.1,-75.8 c -0.1,-0.1 -0.2,-0.1 -0.4,-0.1 H -0.1 c -0.1,0 -0.3,0.1 -0.3,0.1 -0.1,0.1 -0.1,0.2 -0.1,0.4 V 75.4 c 0,0.1 0.1,0.3 0.1,0.4 0.1,0.1 0.2,0.1 0.3,0.1 h 150.9 c 0.1,0 0.3,-0.1 0.4,-0.1 0.1,-0.1 0.1,-0.2 0.1,-0.4 V -75.4 c 0,-0.2 -0.1,-0.3 -0.2,-0.4 M 0.4,-74.9 H 150.3 V 74.9 H 0.4 Z"
   id="path557" />
				</g>
				<g
   id="path4_00000065049289655020213820000003236294316273332152_">
					<path
   class="st1"
   d="M 150.3,-74.9 H 0.4 V 74.9 H 150.3 V -74.9 m -0.8,0.5 v 0.2 l 0.2,-0.2 V 74.2 H 1.4 1.1 V -74.4 Z"
   id="path560" />
				</g>
				<g
   id="path6_00000179648080620706992600000017852899203626816400_">
					<path
   class="st2"
   d="m 143.1,-67.6 6.4,-6.5 v -0.2 H 1.1 V 74.2 H 1.3 L 7.8,67.8 V -67.6 Z"
   id="path563" />
				</g>
				<g
   id="path8_00000167356092459365956790000018323718088639478452_">
					<path
   class="st3"
   d="m 143.1,-67.6 v 0 L 143,67.4 H 8.2 L 7.9,67.7 1.4,74.1 H 149.7 V -74.4 l -0.2,0.2 z"
   id="path566" />
				</g>
				<g
   id="path10_00000158718220123432818780000013525637723361430708_">
					<path
   class="st4"
   d="m 143,-67.5 v 0 L 7.9,-67.6 V 67.7 L 8.2,67.4 H 143 Z"
   id="path569" />
				</g>
			</g>
		</g>
	</g>
</g>
<g
   id="g280"
   transform="matrix(0.80828857,0,0,0.80828857,490.65552,61.349102)">
	<g
   id="g278">
		<g
   id="use276">
			<g
   id="Symbol_4_0_Layer0_0_FILL_00000158738238967721611770000009736312552156759475_">
				<g
   id="path2_00000096745233925713880670000016569251715807409541_">
					<path
   class="st0"
   d="m 151.2,-75.8 c -0.1,-0.1 -0.2,-0.1 -0.4,-0.1 H 0 c -0.1,0 -0.3,0.1 -0.3,0.1 -0.1,0.1 -0.1,0.2 -0.1,0.4 V 75.4 c 0,0.1 0.1,0.3 0.1,0.4 0.1,0.1 0.2,0.1 0.3,0.1 h 150.9 c 0.1,0 0.3,-0.1 0.4,-0.1 0.1,-0.1 0.1,-0.2 0.1,-0.4 V -75.4 c 0,-0.2 -0.1,-0.3 -0.2,-0.4 M 0.5,-74.9 H 150.4 V 74.9 H 0.5 Z"
   id="path576" />
				</g>
				<g
   id="path4_00000083784649746542239540000009220780913507367838_">
					<path
   class="st1"
   d="M 150.4,-74.9 H 0.5 V 74.9 H 150.4 V -74.9 m -0.8,0.5 v 0.2 l 0.2,-0.2 V 74.2 H 1.5 1.2 V -74.4 Z"
   id="path579" />
				</g>
				<g
   id="path6_00000161600331775804786060000003395248037079198113_">
					<path
   class="st2"
   d="m 143.2,-67.6 6.4,-6.5 v -0.2 H 1.2 V 74.2 H 1.4 L 8,67.7 V -67.6 Z"
   id="path582" />
				</g>
				<g
   id="path8_00000083802617478974909190000004630663314644480950_">
					<path
   class="st3"
   d="m 143.2,-67.6 v 0 L 143.1,67.5 H 8.3 L 8,67.7 1.5,74.1 H 149.8 V -74.4 l -0.2,0.2 z"
   id="path585" />
				</g>
				<g
   id="path10_00000178204264835863616470000002143961095067861401_">
					<path
   class="st4"
   d="m 143.1,-67.5 v 0 L 8,-67.6 V 67.7 L 8.3,67.4 H 143 V -67.5 Z"
   id="path588" />
				</g>
			</g>
		</g>
	</g>
</g>

<g
   id="g292"
   transform="matrix(0.80828857,0,0,0.80828857,122.80129,423.56944)">
	<g
   id="g290">
		<g
   id="use288">
			<g
   id="Symbol_4_0_Layer0_0_FILL_00000171715209524700647500000000186189793868264846_">
				<g
   id="path2_00000031910589066764629700000004784936348432782234_">
					<path
   class="st0"
   d="m 151.2,-75.8 c -0.1,-0.1 -0.2,-0.1 -0.4,-0.1 H 0 c -0.1,0 -0.3,0.1 -0.3,0.1 -0.1,0.1 -0.1,0.2 -0.1,0.4 V 75.4 c 0,0.1 0.1,0.3 0.1,0.4 0.1,0.1 0.2,0.1 0.3,0.1 h 150.9 c 0.1,0 0.3,-0.1 0.4,-0.1 0.1,-0.1 0.1,-0.2 0.1,-0.4 V -75.4 c 0,-0.2 -0.1,-0.3 -0.2,-0.4 M 0.5,-74.9 H 150.4 V 74.9 H 0.5 Z"
   id="path614" />
				</g>
				<g
   id="path4_00000026131243946562233880000000042299066979260322_">
					<path
   class="st1"
   d="M 150.4,-74.9 H 0.5 V 74.9 H 150.4 V -74.9 m -0.8,0.5 v 0.2 l 0.2,-0.2 V 74.2 H 1.5 1.2 V -74.4 Z"
   id="path617" />
				</g>
				<g
   id="path6_00000170968271433178490050000009065223672830444452_">
					<path
   class="st2"
   d="m 143.2,-67.6 6.4,-6.5 v -0.2 H 1.2 V 74.2 H 1.4 L 8,67.7 V -67.6 Z"
   id="path620" />
				</g>
				<g
   id="path8_00000011713391768976076240000010174196449613590667_">
					<path
   class="st3"
   d="m 143.2,-67.6 v 0 L 143.1,67.5 H 8.3 L 8,67.7 1.5,74.1 H 149.8 V -74.4 l -0.2,0.2 z"
   id="path623" />
				</g>
				<g
   id="path10_00000016069112469756668340000009851868501857323184_">
					<path
   class="st4"
   d="m 143.1,-67.5 v 0 L 8,-67.6 V 67.7 l 0.4,-0.3 h 134.7 z"
   id="path626" />
				</g>
			</g>
		</g>
	</g>
</g>
<g
   id="g298"
   transform="matrix(0.80828857,0,0,0.80828857,245.25129,423.56944)">
	<g
   id="g296">
		<g
   id="use294">
			<g
   id="Symbol_4_0_Layer0_0_FILL_00000123410083826048302820000011772575075747349940_">
				<g
   id="path2_00000025411111296819110480000009152016661110864022_">
					<path
   class="st0"
   d="m 151.2,-75.8 c -0.1,-0.1 -0.2,-0.1 -0.4,-0.1 H 0 c -0.1,0 -0.3,0.1 -0.3,0.1 -0.1,0.1 -0.1,0.2 -0.1,0.4 V 75.4 c 0,0.1 0.1,0.3 0.1,0.4 0.1,0.1 0.2,0.1 0.3,0.1 h 150.9 c 0.1,0 0.3,-0.1 0.4,-0.1 0.1,-0.1 0.1,-0.2 0.1,-0.4 V -75.4 c 0,-0.2 -0.1,-0.3 -0.2,-0.4 M 0.5,-74.9 H 150.4 V 74.9 H 0.5 Z"
   id="path633" />
				</g>
				<g
   id="path4_00000138530895052135576610000001012356147881110437_">
					<path
   class="st1"
   d="M 150.4,-74.9 H 0.5 V 74.9 H 150.4 V -74.9 m -0.8,0.5 v 0.2 l 0.2,-0.2 V 74.2 H 1.5 1.2 V -74.4 Z"
   id="path636" />
				</g>
				<g
   id="path6_00000037694153792708556110000008578503756064600727_">
					<path
   class="st2"
   d="m 143.2,-67.6 6.4,-6.5 v -0.2 H 1.2 V 74.2 H 1.4 L 8,67.7 V -67.6 Z"
   id="path639" />
				</g>
				<g
   id="path8_00000110461827565417275550000007627009652645300878_">
					<path
   class="st3"
   d="m 143.2,-67.6 v 0 L 143.1,67.5 H 8.3 L 8,67.7 1.5,74.1 H 149.8 V -74.4 l -0.2,0.2 z"
   id="path642" />
				</g>
				<g
   id="path10_00000078039951956193503080000012982147743948947118_">
					<path
   class="st4"
   d="m 143.1,-67.5 v 0 L 8,-67.6 V 67.7 l 0.4,-0.3 h 134.7 z"
   id="path645" />
				</g>
			</g>
		</g>
	</g>
</g>

<g
   id="g310"
   transform="matrix(0.80828857,0,0,0.80828857,122.27332,62.908422)">
	<g
   id="g308">
		<g
   id="use306">
			<g
   id="Symbol_4_0_Layer0_0_FILL_00000000906882677077555790000000169692701777610887_">
				<g
   id="path2_00000094603148103254449210000014539227364966097025_">
					<path
   class="st0"
   d="m 151.7,-74.4 c -0.1,-0.1 -0.2,-0.1 -0.4,-0.1 H 0.5 c -0.1,0 -0.3,0.1 -0.3,0.1 C 0,-74.3 0,-74.2 0,-74 V 74.8 c 0,0.1 0.1,0.3 0.1,0.3 0.1,0.1 0.2,0.1 0.3,0.1 h 150.9 c 0.1,0 0.3,-0.1 0.4,-0.1 0.1,-0.1 0.1,-0.2 0.1,-0.3 V -74 c 0.1,-0.2 0,-0.3 -0.1,-0.4 M 1,-73.5 H 150.9 V 74.3 H 1 Z"
   id="path671" />
				</g>
				<g
   id="path4_00000170978683821772900030000018129760501434531492_">
					<path
   class="st1"
   d="M 150.9,-73.5 H 1 V 74.3 H 150.9 V -73.5 m -0.8,0.5 v 0.2 l 0.2,-0.2 V 73.6 H 2 1.7 V -73 Z"
   id="path674" />
				</g>
				<g
   id="path6_00000142889099871844211610000009140065669991359380_">
					<path
   class="st2"
   d="m 143.7,-66.3 6.4,-6.5 V -73 H 1.7 V 73.6 H 2 L 8.5,67.2 V -66.3 Z"
   id="path677" />
				</g>
				<g
   id="path8_00000125571108785446957890000007152395196143955600_">
					<path
   class="st3"
   d="m 143.7,-66.3 v 0 L 143.6,66.9 H 8.8 L 8.5,67.2 2,73.6 H 150.3 V -73 l -0.2,0.2 z"
   id="path680" />
				</g>
				<g
   id="path10_00000059997406298275621050000013268618618494690964_">
					<path
   class="st4"
   d="m 143.6,-66.2 v 0 L 8.5,-66.3 V 67.2 L 8.8,66.9 H 143.5 V -66.2 Z"
   id="path683" />
				</g>
			</g>
		</g>
	</g>
</g>
<g
   id="g354"
   transform="translate(139.52332,421.85842)">
	<g
   id="g352">
		<g
   id="use350"
   transform="translate(4)">
			<g
   id="Symbol_9_0_Layer0_0_FILL">
				<g
   id="g694">
					<path
   class="st5"
   d="m 246.3,1.3 38.1,37.8 38,-37.8 -38,-38.1 z"
   id="path690" />
					<path
   class="st6"
   d="M 284.4,39.8 284,39.4 245.6,1.3 284.4,-37.5 323.1,1.3 Z M 247,1.3 284.4,38.4 321.7,1.3 284.4,-36.1 Z"
   id="path692" />
				</g>
			</g>
		</g>
	</g>
</g>
<g
   id="g712"
   transform="translate(-0.07668457,1.5084225)">
	<g
   id="g374"
   transform="translate(-648.1,347.95)">
		<g
   id="use372">
			<g
   id="Symbol_11_0_Layer0_49_FILL">
				<g
   id="path52">
					<path
   class="st7"
   d="m 740.5,-197.6 h -63 v 63.1 h 63 z"
   id="path700" />
				</g>
			</g>
		</g>
	</g>
	<g
   id="g374_00000148638716641354815980000001811457047771257992_"
   transform="translate(-648.1,347.95)">
		<g
   id="use372_00000096046330031706306080000001201996074774519712_">
			<g
   id="Symbol_11_0_Layer0_49_FILL_00000044898211316219073520000009502250459142220169_">
				<g
   id="path52_00000134211887336778497760000000214832790769739417_">
					<path
   class="st8"
   d="m 741,-134 h -64 v -64.1 h 64 z m -63,-1 h 62 v -62.1 h -62 z"
   id="path706" />
				</g>
			</g>
		</g>
	</g>
</g>
<g
   id="g748"
   transform="translate(-0.07668457,1.5084225)">
	<g
   id="g732">
		<g
   id="g400"
   transform="matrix(0.48680115,0.3249054,-0.3249054,0.48680115,115.15,-86.5)">
			<g
   id="use398">
				<g
   id="Symbol_11_0_Layer0_55_FILL">
					<g
   id="path70">
						<path
   class="st9"
   d="m 246.3,66.2 -61.2,106 61.2,35.4 z"
   id="path714" />
					</g>
				</g>
			</g>
		</g>
		<g
   id="g404"
   transform="matrix(0.48680115,0.3249054,-0.3249054,0.48680115,115.15,-86.5)">
			<g
   id="use402">
				<g
   id="Symbol_11_0_Layer0_56_FILL">
					<g
   id="path73">
						<path
   class="st10"
   d="M 307.5,172.2 246.4,66.2 V 207.6 Z"
   id="path720" />
					</g>
				</g>
			</g>
		</g>
		<g
   id="g408"
   transform="matrix(0.48680115,0.3249054,-0.3249054,0.48680115,115.15,-86.5)">
			<g
   id="use406">
				<g
   id="Symbol_11_0_Layer0_57_FILL">
					<g
   id="path76">
						<path
   class="st11"
   d="m 246.3,136.8 -61.2,35.3 61.2,35.4 61.2,-35.3 z"
   id="path726" />
					</g>
				</g>
			</g>
		</g>
	</g>
	<g
   id="g746">
		<g
   id="g736">
			<path
   class="st12"
   d="M 209.4,97.7 167.3,95 148.7,57.3 214.2,24.9 Z M 167.9,94 208.4,96.6 213,26.5 150,57.7 Z"
   id="path734" />
		</g>
		<g
   id="g740">
			<polygon
   class="st12"
   points="149.3,57 190.3,59.6 213.2,25.4 214,26 190.9,60.6 149.3,58 "
   id="polygon738" />
		</g>
		<g
   id="g744">
			
				<rect
   x="199.3"
   y="58"
   transform="matrix(0.8968,-0.4424,0.4424,0.8968,-14.1847,96.4769)"
   class="st12"
   width="1"
   height="41.400002"
   id="rect742" />
		</g>
	</g>
</g>
<g
   id="g770"
   transform="translate(-0.07668457,1.5084225)">
	<g
   id="g424"
   transform="matrix(0.35728455,0.48669434,-0.48669434,0.35728455,209,28.7)">
		<g
   id="use422">
			<g
   id="Symbol_11_0_Layer0_61_FILL">
				<g
   id="g752">
					<path
   class="st13"
   d="m 387.2,272.2 c -9.4,-13.1 -22,-20.9 -37.8,-23.5 -15.9,-2.6 -30.3,0.8 -43.4,10.2 -13,9.4 -20.9,22 -23.5,37.8 -2.6,15.9 0.8,30.3 10.1,43.4 9.4,13 22,20.9 37.9,23.5 15.9,2.6 30.3,-0.8 43.4,-10.1 13.1,-9.4 20.9,-22 23.5,-37.9 2.6,-15.9 -0.8,-30.3 -10.2,-43.4 z"
   id="path750" />
				</g>
			</g>
		</g>
	</g>
	<g
   id="g428"
   transform="matrix(0.35728455,0.48669434,-0.48669434,0.35728455,209,28.7)">
		<g
   id="use426">
			<g
   id="Symbol_11_0_Layer0_62_FILL">
				<g
   id="g759">
					<path
   class="st14"
   d="m 381.1,347.3 c 11.4,-11.4 17.1,-25.1 17.1,-41.1 0,-6.6 -1.1,-13.1 -3.2,-19.3 -4,11.5 -11,20.8 -21,27.9 -10.1,7.3 -21.5,10.9 -34,10.9 -12.5,0 -23.9,-3.6 -33.9,-11 -9.9,-7.1 -16.9,-16.5 -20.9,-28 -2.2,6.2 -3.3,12.6 -3.3,19.3 0,16.1 5.7,29.8 17,41.1 11.4,11.4 25.1,17.1 41.1,17.1 16,0.2 29.7,-5.5 41.1,-16.9 z"
   id="path757" />
				</g>
			</g>
		</g>
	</g>
	
		<g
   id="g424_00000016074138054553853070000006550895141923698306_"
   transform="matrix(0.35728455,0.48669434,-0.48669434,0.35728455,209,28.7)">
		<g
   id="use422_00000110429811966755873520000016547664958798524036_">
			<g
   id="Symbol_11_0_Layer0_61_FILL_00000176728051588821350080000003178884828023314832_">
				<g
   id="path88_00000030467831828416225930000002209859827155967659_">
					<path
   class="st15"
   d="m 387.6,340.8 c -3.6,4.9 -8.1,9.3 -13.4,13.1 -13.2,9.4 -27.9,12.8 -43.8,10.2 -15.9,-2.6 -28.7,-10.6 -38.2,-23.7 -9.4,-13.2 -12.8,-27.9 -10.2,-43.8 2.6,-15.8 10.6,-28.6 23.7,-38.1 13.1,-9.4 27.9,-12.9 43.8,-10.3 15.9,2.6 28.7,10.6 38.1,23.7 l -0.4,0.3 0.4,-0.3 c 9.4,13.1 12.9,27.9 10.3,43.8 -1.6,9.5 -5,17.9 -10.3,25.1 z m -94.5,-68.5 c -5.2,7.1 -8.6,15.3 -10.1,24.5 -2.6,15.6 0.8,30.1 10,43 9.3,12.9 22,20.7 37.6,23.3 15.6,2.5 30.1,-0.8 43,-10 12.9,-9.3 20.7,-21.9 23.3,-37.6 2.6,-15.9 -0.7,-29.9 -10.1,-43 v 0 c -9.2,-12.9 -21.9,-20.7 -37.5,-23.3 -15.9,-2.6 -29.9,0.7 -43,10.1 -5.2,3.8 -9.6,8.1 -13.2,13 z"
   id="path764" />
				</g>
			</g>
		</g>
	</g>
</g>
<g
   id="g774"
   transform="translate(-0.07668457,1.5084225)">
	<path
   class="st16"
   d="M 427.7,181.4"
   id="path772" />
</g>
<g
   id="g810"
   transform="translate(245.35552,-480.0509)">
	<g
   id="g796">
		<g
   id="g412"
   transform="matrix(0.46426392,0.41795349,-0.41795349,0.46426392,483.55,-16.3)">
			<g
   id="use410">
				<g
   id="Symbol_11_0_Layer0_58_FILL">
					<g
   id="path79">
						<path
   class="st17"
   d="M 237.8,919 179,953 v 68 l 58.9,34 58.9,-33.9 v -68 z"
   id="path776" />
					</g>
				</g>
			</g>
		</g>
		<g
   id="g416"
   transform="matrix(0.46426392,0.41795349,-0.41795349,0.46426392,483.55,-16.3)">
			<g
   id="use414">
				<g
   id="Symbol_11_0_Layer0_59_FILL">
					<g
   id="g784">
						<path
   class="st18"
   d="m 179,1021 58.9,34 58.9,-33.9 -58.8,-34 z"
   id="path782" />
					</g>
				</g>
			</g>
		</g>
		<g
   id="g420"
   transform="matrix(0.46426392,0.41795349,-0.41795349,0.46426392,483.55,-16.3)">
			<g
   id="use418">
				<g
   id="Symbol_11_0_Layer0_60_FILL">
					<g
   id="g791">
						<path
   class="st19"
   d="m 237.8,919 v 68 l 58.8,34 v -68 z"
   id="path789" />
					</g>
				</g>
			</g>
		</g>
	</g>
	<g
   id="g800">
		<path
   class="st20"
   d="m 194.8,582.2 -42.1,-8.9 -13.4,-40.9 28.8,-32 42.2,9 13.3,40.8 z m -41.3,-9.7 40.9,8.7 28,-31.2 -12.9,-39.8 -41,-8.8 -28,31.2 z"
   id="path798" />
	</g>
	<g
   id="g804">
		<polygon
   class="st20"
   points="182.1,541.4 195.1,581.5 194.1,581.9 180.9,541.2 181.1,541 209.5,509.5 210.3,510.1 "
   id="polygon802" />
	</g>
	<g
   id="g808">
		
			<rect
   x="160.2"
   y="515.59998"
   transform="matrix(0.207,-0.9784,0.9784,0.207,-397.8341,583.0075)"
   class="st20"
   width="1"
   height="42.5"
   id="rect806" />
	</g>
</g>
<g
   id="g824"
   transform="translate(-0.07668457,1.5084225)">
	<g
   id="g366"
   transform="matrix(0.72319031,0,0,0.72319031,-33.9,216.1)">
		<g
   id="use364">
			<g
   id="Symbol_11_0_Layer0_47_FILL">
				<g
   id="path46">
					<path
   class="st21"
   d="m 978.4,-263.6 -44.5,25.7 v 51.4 l 44.5,25.7 44.4,-25.7 v -51.4 z"
   id="path812" />
				</g>
			</g>
		</g>
	</g>
	<g
   id="g366_00000059294167189012078460000006284408537153155216_"
   transform="matrix(0.72319031,0,0,0.72319031,-33.9,216.1)">
		<g
   id="use364_00000027590755871178719170000016808108574563176633_">
			<g
   id="Symbol_11_0_Layer0_47_FILL_00000129188135974197854210000015769084885599351432_">
				<g
   id="path46_00000147188906993387436440000006508500544043944635_">
					<path
   class="st22"
   d="m 978.4,-160.2 -45,-26 v -52 l 45,-26 44.9,26 v 52 z m -44,-26.6 44,25.4 43.9,-25.4 v -50.8 l -43.9,-25.4 -44,25.4 z"
   id="path818" />
				</g>
			</g>
		</g>
	</g>
</g>
<g
   id="g841"
   transform="translate(-0.07668457,1.5084225)">
	<g
   id="g342"
   transform="translate(636.75,179)">
		<g
   id="g340">
			<g
   id="use338">
				<g
   id="Symbol_7_0_Layer0_0_FILL">
					<g
   id="g828">
						<path
   class="st23"
   d="m -359.6,33.3 h 60.9 l -30.5,-60.9 z"
   id="path826" />
					</g>
				</g>
			</g>
		</g>
	</g>
	<g
   id="g342_00000173149724906971614230000018185599696357233835_"
   transform="translate(636.75,179)">
		<g
   id="g340_00000083077128517317176390000002113628755235184309_">
			<g
   id="use338_00000029030420188168492330000016627055872168618114_">
				<g
   id="Symbol_7_0_Layer0_0_FILL_00000178901721191763370180000018418928394617660545_">
					<g
   id="path31_00000082327444431083713770000008375971280078126747_">
						<path
   class="st24"
   d="m -297.7,33.8 h -62.5 l 31.2,-62.5 z m -60.9,-1 h 59.3 L -329,-26.5 Z"
   id="path834" />
					</g>
				</g>
			</g>
		</g>
	</g>
</g>
<g
   id="g855"
   transform="translate(-0.07668457,1.5084225)">
	<g
   id="g396"
   transform="translate(-450.25,436.75)">
		<g
   id="use394">
			<g
   id="Symbol_11_0_Layer0_54_FILL">
				<g
   id="path67">
					<path
   class="st25"
   d="m 1022.5,-102.2 13.5,-41.5 -35.4,-25.7 -35.4,25.7 13.5,41.5 z"
   id="path843" />
				</g>
			</g>
		</g>
	</g>
	<g
   id="g396_00000065758315407663868400000004685999983643461553_"
   transform="translate(-450.25,436.75)">
		<g
   id="use394_00000177456137204951573230000007195405355636961186_">
			<g
   id="Symbol_11_0_Layer0_54_FILL_00000103952381774401359690000002024400220471449782_">
				<g
   id="path67_00000088821820188309343160000001028066579266592173_">
					<path
   class="st26"
   d="m 1022.9,-101.7 h -44.5 l -13.7,-42.2 36,-26.1 36,26.1 z m -43.8,-1 h 43.1 l 13.3,-40.8 -34.8,-25.3 -34.8,25.3 z"
   id="path849" />
				</g>
			</g>
		</g>
	</g>
</g>
<g
   id="g871"
   transform="translate(-0.07668457,1.5084225)">
	<g
   id="g320"
   transform="translate(640.8,422.6)">
		<g
   id="g318">
			<g
   id="use316">
				<g
   id="Symbol_6_0_Layer0_0_FILL">
					<g
   id="path16">
						<path
   class="st27"
   d="m 32.9,-32.9 c -9.1,0 -16.8,3.2 -23.3,9.7 C 3.1,-16.7 0,-9.1 0,0 c 0,9 3.2,16.8 9.6,23.2 6.4,6.4 14.2,9.6 23.3,9.6 9,0 16.8,-3.2 23.2,-9.6 C 62.5,16.8 65.8,9 65.8,0 c 0,-9.1 -3.2,-16.8 -9.7,-23.2 -6.4,-6.5 -14.2,-9.7 -23.2,-9.7 z"
   id="path857" />
					</g>
				</g>
			</g>
		</g>
	</g>
	<g
   id="g320_00000114779373172027956220000010853693122378404010_"
   transform="translate(640.8,422.6)">
		<g
   id="g318_00000173143479232735578050000011431958549695535546_">
			<g
   id="use316_00000178907529078510272210000008663189789264965539_">
				<g
   id="Symbol_6_0_Layer0_0_FILL_00000115484581831553420250000003104597487439737234_">
					<g
   id="path16_00000155844771107613834510000014773982332591744698_">
						<path
   class="st28"
   d="M 32.9,33.3 C 23.7,33.3 15.7,30 9.2,23.6 2.8,17.1 -0.5,9.2 -0.5,0 c 0,-9.3 3.2,-17 9.7,-23.6 6.6,-6.6 14.4,-9.8 23.7,-9.8 9.2,0 17.1,3.3 23.6,9.8 6.5,6.5 9.8,14.4 9.8,23.6 0,9.1 -3.3,17 -9.8,23.6 C 50,30 42.1,33.3 32.9,33.3 Z m 0,-65.7 c -9,0 -16.5,3.1 -22.9,9.6 C 3.6,-16.5 0.5,-9 0.5,0 c 0,8.9 3.2,16.6 9.5,22.8 6.3,6.3 14,9.5 22.9,9.5 8.9,0 16.6,-3.2 22.8,-9.5 6.3,-6.3 9.6,-14 9.6,-22.8 0,-9 -3.1,-16.5 -9.5,-22.8 -6.3,-6.4 -14,-9.6 -22.9,-9.6 z"
   id="path864" />
					</g>
				</g>
			</g>
		</g>
	</g>
</g>
<g
   id="g887"
   transform="translate(-0.07668457,1.5084225)">
	<g
   id="g392"
   transform="translate(518.55,543.4)">
		<g
   id="g390">
			<g
   id="use388">
				<g
   id="Symbol_10_0_Layer0_0_FILL">
					<g
   id="path64">
						<path
   class="st29"
   d="m 10.5,-391.2 c -5.4,2.2 -9.1,6.2 -11.1,11.9 -2,5.6 -1.7,11.1 0.8,16.6 5.5,11.7 16,23.1 31.6,34.2 15.6,-11.2 26.2,-22.6 31.6,-34.2 2.5,-5.4 2.8,-10.9 0.8,-16.5 -2,-5.7 -5.7,-9.7 -11.1,-11.9 -5.3,-2.2 -10.5,-1.7 -15.5,1.4 -1.5,1 -3,2.2 -4.3,3.6 l -1.5,1.8 c -1.4,-2 -3.3,-3.8 -5.8,-5.4 -5,-3.2 -10.2,-3.7 -15.5,-1.5 z"
   id="path873" />
					</g>
				</g>
			</g>
		</g>
	</g>
	<g
   id="g392_00000065781287957653507660000012620676011891877522_"
   transform="translate(518.55,543.4)">
		<g
   id="g390_00000032630913555328863640000005129210330801204148_">
			<g
   id="use388_00000046305704243668598510000004407827280051932291_">
				<g
   id="Symbol_10_0_Layer0_0_FILL_00000096777895456502443320000011607179053078915227_">
					<g
   id="path64_00000044175042403860584610000005068365497679812020_">
						<path
   class="st30"
   d="m 31.8,-328 -0.3,-0.2 C 16,-339.3 5.3,-350.8 -0.3,-362.6 c -2.6,-5.5 -2.8,-11.2 -0.8,-16.9 2,-5.9 5.8,-9.9 11.4,-12.2 5.5,-2.3 10.8,-1.7 16,1.5 2.3,1.5 4.1,3.1 5.6,5 l 1.1,-1.3 c 1.4,-1.6 2.9,-2.7 4.4,-3.7 5.2,-3.2 10.5,-3.7 16,-1.4 5.5,2.1 9.3,6.2 11.4,12.1 2,5.7 1.7,11.3 -0.8,16.9 -5.4,11.6 -16.1,23.1 -31.8,34.4 z m -14.9,-64 c -2.1,0 -4.1,0.4 -6.2,1.3 v 0 c -5.3,2.2 -8.9,6 -10.8,11.6 -1.9,5.4 -1.7,10.8 0.8,16.1 5.4,11.5 15.9,22.9 31.1,33.8 15.4,-11.1 25.9,-22.5 31.1,-33.8 2.4,-5.3 2.7,-10.7 0.8,-16.1 -2,-5.6 -5.6,-9.5 -10.8,-11.5 -5.1,-2.1 -10.2,-1.7 -15.1,1.4 -1.4,0.9 -2.9,2 -4.2,3.5 l -1.9,2.3 -0.4,-0.5 c -1.4,-2 -3.3,-3.7 -5.7,-5.3 -2.7,-1.9 -5.7,-2.8 -8.7,-2.8 z"
   id="path880" />
					</g>
				</g>
			</g>
		</g>
	</g>
</g>
<g
   id="g904"
   transform="translate(-367.39871,-117.83056)">
	<g
   id="g348"
   transform="translate(263.69333,538.53248)">
		<g
   id="g346">
			<g
   id="use344">
				<g
   id="Symbol_8_0_Layer0_0_FILL">
					<g
   id="g891">
						<path
   class="st31"
   d="M 275.3,-9 251,-5 268.4,12.5 263.9,37.7 286.7,25.8 309.2,37.7 304.7,12.5 322.4,-5 297.8,-9 286.7,-31.8 Z"
   id="path889" />
					</g>
				</g>
			</g>
		</g>
	</g>
	<g
   id="g348_00000181045868112683959670000006821221117462720953_"
   transform="translate(263.69333,538.53248)">
		<g
   id="g346_00000077321243631563441570000005589690297629984950_">
			<g
   id="use344_00000150807744895560685270000018295631210778431657_">
				<g
   id="Symbol_8_0_Layer0_0_FILL_00000013908791784319740920000010422241195682363010_">
					<g
   id="path34_00000166643122181812416250000007676276298777436605_">
						<path
   class="st32"
   d="M 309.9,38.6 286.7,26.3 263.2,38.5 267.8,12.6 250,-5.3 l 25,-4.1 11.7,-23.5 11.4,23.5 25.3,4.1 -18.2,18 z M 252,-4.7 l 16.9,17 -4.4,24.5 22.1,-11.6 21.8,11.5 -4.4,-24.5 17.2,-17 -23.9,-3.9 -10.8,-22.1 -10.9,22.3 z"
   id="path897" />
					</g>
				</g>
			</g>
		</g>
	</g>
</g>
<g
   id="g924"
   transform="translate(-0.07668457,1.5084225)">
	<path
   class="st33"
   d="m 147.3,188.4 c 0.7,0.8 -0.4,2 -1.2,1.2 -2.5,-2.3 -2,-6.5 0.1,-8.9 -1.1,0 -2.2,0 -3.3,-0.3 -0.6,-0.2 -0.4,-1.1 0.1,-1.1 1.8,0.1 4.3,-0.2 6.1,-0.4 0.4,-0.1 0.7,-0.1 1.1,-0.1 1,0 1,1.5 0,1.5 -3.8,0.1 -5.3,5.5 -2.9,8.1 z"
   id="path906" />
	<path
   class="st33"
   d="m 155.6,189.6 c -1.6,0.2 -3.3,-0.2 -4.1,-1.7 -0.9,-1.6 0.2,-3.3 1.6,-4.5 -0.8,-0.3 -1.5,-1 -1.2,-2 0.8,-2.4 5,-3.5 6.8,-1.5 0.3,0.4 -0.2,0.8 -0.5,0.5 -1.2,-1.1 -4.3,-0.5 -5.1,1.1 -0.4,0.9 0.6,1 1.6,0.9 0.5,-0.2 1,-0.4 1.4,-0.5 0.6,-0.1 1.2,0.6 0.6,1.1 -0.4,0.4 -1,0.6 -1.5,0.7 -1.4,0.8 -3,2.2 -2.5,3.4 0.6,1.3 2.4,1.3 3.4,0.5 0.9,-0.6 1.6,-1.4 2.2,-2.3 0.5,-0.6 1.5,0.2 1.1,0.8 -0.8,1.4 -2,3.2 -3.8,3.5 z"
   id="path908" />
	<path
   class="st33"
   d="m 164.9,188.4 c 0.7,0.8 -0.4,2 -1.2,1.2 -2.5,-2.3 -2,-6.5 0.1,-8.9 -1.1,0 -2.2,0 -3.3,-0.3 -0.6,-0.2 -0.4,-1.1 0.1,-1.1 1.8,0.1 4.3,-0.2 6.1,-0.4 0.4,-0.1 0.7,-0.1 1.1,-0.1 1,0 1,1.5 0,1.5 -3.7,0.1 -5.3,5.5 -2.9,8.1 z"
   id="path910" />
	<path
   class="st33"
   d="m 171.3,188.9 c 0,0 -0.1,0 -0.1,0 v 0 c -0.3,-0.2 -0.3,-0.6 0.1,-0.7 0.9,-0.2 1.9,-0.1 2.8,-0.7 0.7,-0.5 1,-1.1 1.1,-1.9 0.2,-1.4 0.1,-4.3 -1.5,-5.1 -2.4,-1.2 -3.3,4 -3.3,5.4 0,2.5 0.6,4.8 1.2,7.2 0.3,1.2 -1.5,1.5 -1.7,0.5 -0.8,-3.4 -1.8,-7.7 -0.4,-11.5 0.8,-2.1 3.1,-4.4 5.3,-2.7 1.8,1.4 2.4,4.9 1.6,7.1 -0.5,1.8 -3,3.3 -5.1,2.4 z"
   id="path912" />
	<path
   class="st33"
   d="m 185.6,184.9 c 0.4,1.3 0.9,2.7 1.2,4 0.1,0.6 -0.7,0.9 -1,0.4 -0.5,-0.8 -0.8,-1.5 -1.2,-2.4 -0.1,0.1 -0.1,0.2 -0.2,0.3 -1.1,1.8 -3.2,3.4 -5.3,2 -3.5,-2.4 -0.1,-9.1 2.9,-10.5 0.4,-0.2 0.8,-0.1 1,0.3 0.9,1.3 1.4,2.7 1.9,4.1 0.5,-1.5 0.8,-2.9 1.1,-3.6 0.2,-0.6 1.2,-0.4 0.9,0.3 -0.3,1.7 -0.7,3.5 -1.3,5.1 z m -3.4,-4.5 c -1.1,0.8 -1.9,2.2 -2.4,3.4 -0.5,1.1 -1.3,3.6 0.3,4.3 1.8,0.8 3.1,-0.6 4,-2.6 -0.5,-1.8 -1,-3.5 -1.9,-5.1 z m 1.6,-3.5 c -0.4,0.6 -1.4,0 -1,-0.6 0.6,-0.9 1.2,-1.8 2.1,-2.3 0.5,-0.3 1.2,0.4 0.7,0.8 -0.7,0.7 -1.3,1.3 -1.8,2.1 z"
   id="path914" />
	<path
   class="st33"
   d="m 192.6,182.6 c 0,0 0.1,0.1 0.1,0.1 1.4,1.8 2.4,3.7 2.5,6 0.1,1.7 -0.2,3.6 -1.9,4.3 -1.3,0.6 -3.1,0.2 -4.2,-0.7 -2,-1.8 -0.5,-5.2 0.5,-7.1 0.4,-0.8 0.9,-1.6 1.4,-2.4 -0.5,-0.6 -1,-1.1 -1.6,-1.7 -0.2,-0.2 -0.8,-1.2 -1.2,-1.3 -0.4,-0.1 -0.3,-0.6 0,-0.7 0.6,-0.2 1.4,0.6 1.8,1 0.6,0.5 1.2,1 1.8,1.6 0.1,-0.2 0.3,-0.4 0.4,-0.6 0.7,-0.9 1.4,-1.9 2.5,-2.4 0.5,-0.2 0.9,0.3 0.6,0.7 -1,1.1 -1.9,2.1 -2.7,3.2 z m -0.9,1.2 c -0.1,0.2 -0.2,0.3 -0.3,0.5 -1,1.6 -2.8,4.3 -2.1,6.3 0.3,1.1 1.4,1.3 2.4,1.2 1.8,-0.2 2.1,-1.9 1.9,-3.4 -0.2,-1.7 -0.9,-3.2 -1.9,-4.6 z"
   id="path916" />
	<path
   class="st33"
   d="m 206.2,189.2 c -1.8,1.4 -3.2,0.3 -4.2,-1.4 -0.7,1 -1.6,1.9 -2.8,1.8 -2,-0.1 -2.8,-2.8 -2.8,-4.5 0,-2.1 0.5,-4.7 2.3,-6 0.5,-0.3 0.9,0.4 0.6,0.8 -1.1,1.4 -1.5,3.1 -1.5,4.9 0,0.8 0.3,3.4 1.6,3.2 0.6,-0.1 1.4,-1.1 1.9,-2.2 -0.3,-1.2 -0.4,-2.5 -0.1,-3.2 0.2,-0.7 0.9,-0.8 1.4,-0.4 1,0.8 0.8,2.3 0.4,3.5 0.1,0.3 0.2,0.6 0.3,0.8 0.4,0.8 1.4,2.2 2.1,0.9 1,-1.8 1,-5.5 -0.4,-7.2 -0.7,-0.8 0.4,-1.8 1.2,-1.2 1.3,1.1 1.6,3.4 1.6,5 0.1,1.8 -0.1,4.1 -1.6,5.2 z"
   id="path918" />
	<path
   class="st33"
   d="m 212.6,189.4 c -0.3,0.5 -1.3,0.5 -1.4,-0.2 -0.5,-3.3 -1.4,-6.3 -2.3,-9.5 -0.1,-0.5 0.6,-0.9 0.9,-0.4 1.1,2.4 1.9,4.9 2.5,7.5 0.6,-1.1 1.1,-2.1 1.5,-3.2 0.6,-1.6 0.8,-3.3 1.4,-4.9 0.2,-0.7 1.1,-0.5 1.2,0.2 0.4,3.6 -1.9,7.6 -3.8,10.5 z"
   id="path920" />
	<path
   class="st33"
   d="m 217.6,187.5 c -0.5,-1.2 0,-3.1 0.9,-4.6 -0.3,-0.1 -0.6,-0.6 -0.4,-0.9 0.2,-0.5 0.5,-0.9 0.8,-1.3 1.6,-2.2 4.6,-2.7 6,-0.1 1.2,2.1 1.4,5.3 0,7.4 -1.6,2.3 -6.1,2.3 -7.3,-0.5 z m 5.6,-6.7 c -0.8,-0.9 -1.7,-0.6 -2.5,0.1 0.6,-0.1 1.2,0 1.8,0.5 0.4,0.3 -0.1,0.9 -0.5,0.6 -2,-1.4 -5.4,4.7 -1.9,5.9 1.9,0.6 3.5,0 4,-2 0.5,-1.6 0.3,-3.8 -0.9,-5.1 z"
   id="path922" />
</g>
<g
   id="g940"
   transform="translate(-0.07668457,1.5084225)">
	<path
   class="st33"
   d="m 404.7,188.4 c 0.7,0.8 -0.4,2 -1.2,1.2 -2.5,-2.3 -2,-6.5 0.1,-8.9 -1.1,0 -2.2,0 -3.3,-0.3 -0.6,-0.2 -0.4,-1.1 0.1,-1.1 1.8,0.1 4.3,-0.2 6.1,-0.4 0.4,-0.1 0.7,-0.1 1.1,-0.1 1,0 1,1.5 0,1.5 -3.7,0.1 -5.2,5.5 -2.9,8.1 z"
   id="path926" />
	<path
   class="st33"
   d="m 411.2,188.9 c 0,0 -0.1,0 -0.1,0 v 0 c -0.3,-0.2 -0.3,-0.6 0.1,-0.7 0.9,-0.2 1.9,-0.1 2.8,-0.7 0.7,-0.5 1,-1.1 1.1,-1.9 0.2,-1.4 0.1,-4.3 -1.5,-5.1 -2.4,-1.2 -3.3,4 -3.3,5.4 0,2.5 0.6,4.8 1.2,7.2 0.3,1.2 -1.5,1.5 -1.7,0.5 -0.8,-3.4 -1.8,-7.7 -0.4,-11.5 0.8,-2.1 3.1,-4.4 5.3,-2.7 1.8,1.4 2.4,4.9 1.6,7.1 -0.6,1.8 -3.1,3.3 -5.1,2.4 z"
   id="path928" />
	<path
   class="st33"
   d="m 420,189.5 c -3.5,1.1 -2,-9 -1.5,-10.3 0.1,-0.3 0.6,-0.3 0.6,0.1 0.1,1.9 0,3.7 0.1,5.6 0.1,1.2 0.2,2.8 1,3.8 0.3,0.2 0.2,0.7 -0.2,0.8 z m -0.9,-12.6 c -0.4,0.6 -1.4,0 -1,-0.6 0.6,-0.9 1.2,-1.8 2.1,-2.3 0.5,-0.3 1.2,0.4 0.7,0.8 -0.7,0.7 -1.3,1.3 -1.8,2.1 z"
   id="path930" />
	<path
   class="st33"
   d="m 425.9,182.6 c 0,0 0.1,0.1 0.1,0.1 1.4,1.8 2.4,3.7 2.5,6 0.1,1.7 -0.2,3.6 -1.9,4.3 -1.3,0.6 -3.1,0.2 -4.2,-0.7 -2,-1.8 -0.5,-5.2 0.5,-7.1 0.4,-0.8 0.9,-1.6 1.4,-2.4 -0.5,-0.6 -1,-1.1 -1.6,-1.7 -0.2,-0.2 -0.8,-1.2 -1.2,-1.3 -0.4,-0.1 -0.3,-0.6 0,-0.7 0.6,-0.2 1.4,0.6 1.8,1 0.6,0.5 1.2,1 1.8,1.6 0.1,-0.2 0.3,-0.4 0.4,-0.6 0.7,-0.9 1.4,-1.9 2.5,-2.4 0.5,-0.2 0.9,0.3 0.6,0.7 -1,1.1 -1.9,2.1 -2.7,3.2 z m -0.9,1.2 c -0.1,0.2 -0.2,0.3 -0.3,0.5 -1,1.6 -2.8,4.3 -2.1,6.3 0.3,1.1 1.4,1.3 2.4,1.2 1.8,-0.2 2.1,-1.9 1.9,-3.4 -0.2,-1.7 -0.9,-3.2 -1.9,-4.6 z"
   id="path932" />
	<path
   class="st33"
   d="m 439.5,189.2 c -1.8,1.4 -3.2,0.3 -4.2,-1.4 -0.7,1 -1.6,1.9 -2.8,1.8 -2,-0.1 -2.8,-2.8 -2.8,-4.5 0,-2.1 0.5,-4.7 2.3,-6 0.5,-0.3 0.9,0.4 0.6,0.8 -1.1,1.4 -1.5,3.1 -1.5,4.9 0,0.8 0.3,3.4 1.6,3.2 0.6,-0.1 1.4,-1.1 1.9,-2.2 -0.3,-1.2 -0.4,-2.5 -0.1,-3.2 0.2,-0.7 0.9,-0.8 1.4,-0.4 1,0.8 0.8,2.3 0.4,3.5 0.1,0.3 0.2,0.6 0.3,0.8 0.4,0.8 1.4,2.2 2.1,0.9 1,-1.8 1,-5.5 -0.4,-7.2 -0.7,-0.8 0.4,-1.8 1.2,-1.2 1.3,1.1 1.6,3.4 1.6,5 0.1,1.8 -0.1,4.1 -1.6,5.2 z"
   id="path934" />
	<path
   class="st33"
   d="m 445.9,189.4 c -0.3,0.5 -1.3,0.5 -1.4,-0.2 -0.5,-3.3 -1.4,-6.3 -2.3,-9.5 -0.1,-0.5 0.6,-0.9 0.9,-0.4 1.1,2.4 1.9,4.9 2.5,7.5 0.6,-1.1 1.1,-2.1 1.5,-3.2 0.6,-1.6 0.8,-3.3 1.4,-4.9 0.2,-0.7 1.1,-0.5 1.2,0.2 0.4,3.6 -2,7.6 -3.8,10.5 z"
   id="path936" />
	<path
   class="st33"
   d="m 450.9,187.5 c -0.5,-1.2 0,-3.1 0.9,-4.6 -0.3,-0.1 -0.6,-0.6 -0.4,-0.9 0.2,-0.5 0.5,-0.9 0.8,-1.3 1.6,-2.2 4.6,-2.7 6,-0.1 1.2,2.1 1.4,5.3 0,7.4 -1.6,2.3 -6.1,2.3 -7.3,-0.5 z m 5.6,-6.7 c -0.8,-0.9 -1.7,-0.6 -2.5,0.1 0.6,-0.1 1.2,0 1.8,0.5 0.4,0.3 -0.1,0.9 -0.5,0.6 -2,-1.4 -5.4,4.7 -1.9,5.9 1.9,0.6 3.5,0 4,-2 0.4,-1.6 0.3,-3.8 -0.9,-5.1 z"
   id="path938" />
</g>
<g
   id="g954"
   transform="translate(-0.07668457,1.5084225)">
	<path
   class="st33"
   d="m 655.4,189.5 c -0.6,-1.4 -1.6,-2.4 -2.7,-3.4 -0.5,-0.5 -1.1,-1.1 -1.5,-1.8 -0.8,1.4 -1.5,2.9 -1.6,4.5 0,0.7 -1,0.9 -1.3,0.2 -0.6,-1.6 -0.6,-3.3 -0.5,-5 0.2,-1.7 0.3,-3.5 0.9,-5 0.1,-0.3 0.5,-0.2 0.5,0.1 0.2,1.6 -0.3,3.3 -0.3,5 0,0.6 0,1.2 0,1.8 0.5,-1.2 1.2,-2.4 1.9,-3.4 1.2,-1.7 3.2,-3.9 5.6,-3.3 0.5,0.1 0.6,1 0,1.1 -2,0.3 -3.4,1.5 -4.5,3 0.8,1.1 1.7,1.8 2.7,2.7 1,0.9 1.9,2 1.8,3.4 0.1,0.4 -0.7,0.7 -1,0.1 z"
   id="path942" />
	<path
   class="st33"
   d="m 665.6,184.9 c 0.4,1.3 0.9,2.7 1.2,4 0.2,0.6 -0.7,0.9 -1,0.4 -0.5,-0.8 -0.8,-1.5 -1.2,-2.4 -0.1,0.1 -0.1,0.2 -0.2,0.3 -1.1,1.8 -3.2,3.4 -5.3,2 -3.5,-2.4 -0.1,-9.1 2.9,-10.5 0.4,-0.2 0.7,-0.1 1,0.3 0.8,1.3 1.4,2.7 1.9,4.1 0.5,-1.5 0.8,-2.9 1.1,-3.6 0.2,-0.6 1.1,-0.4 0.9,0.3 -0.4,1.7 -0.7,3.5 -1.3,5.1 z m -3.4,-4.5 c -1.1,0.8 -1.9,2.2 -2.4,3.4 -0.4,1.1 -1.2,3.6 0.3,4.3 1.8,0.8 3.1,-0.6 4,-2.6 -0.5,-1.8 -1,-3.5 -1.9,-5.1 z"
   id="path944" />
	<path
   class="st33"
   d="m 670.5,188.9 c 0,0 -0.1,0 -0.1,0 v 0 c -0.3,-0.2 -0.3,-0.6 0.1,-0.7 0.9,-0.2 1.9,-0.1 2.8,-0.7 0.7,-0.5 1,-1.1 1.1,-1.9 0.2,-1.4 0.1,-4.3 -1.5,-5.1 -2.4,-1.2 -3.3,4 -3.3,5.4 0,2.5 0.6,4.8 1.2,7.2 0.3,1.2 -1.5,1.5 -1.7,0.5 -0.8,-3.4 -1.8,-7.7 -0.4,-11.5 0.8,-2.1 3.1,-4.4 5.3,-2.7 1.8,1.4 2.4,4.9 1.6,7.1 -0.6,1.8 -3.1,3.3 -5.1,2.4 z"
   id="path946" />
	<path
   class="st33"
   d="m 681,176.3 c 1.6,1.6 3,3.4 3.8,5.4 1.1,2.6 0.8,6.4 -2.1,7.8 -2.4,1.2 -5.9,-0.4 -5.8,-3.4 0.1,-2.6 3.2,-5.3 5.9,-5.1 0.1,0 0.1,0 0.2,0 -1.3,-2.3 -3.6,-4.5 -5.2,-5.8 -0.7,-0.6 0.3,-1.6 1,-1 1.4,1.2 4.3,1 5.8,0.1 0.4,-0.2 0.9,0.3 0.5,0.6 -1,1.1 -2.5,1.5 -4.1,1.4 z m 2.3,5.3 c 0,0.2 -0.2,0.4 -0.5,0.4 -1.9,0.1 -5.2,2.6 -4.4,4.8 1,2.7 4.2,1.9 5.2,-0.3 0.8,-1.6 0.5,-3.3 -0.3,-4.9 z"
   id="path948" />
	<path
   class="st33"
   d="m 688.8,189.5 c -3.5,1.1 -2,-9 -1.5,-10.3 0.1,-0.3 0.6,-0.3 0.6,0.1 0.1,1.9 0,3.7 0.1,5.6 0.1,1.2 0.2,2.8 1,3.8 0.3,0.2 0.2,0.7 -0.2,0.8 z"
   id="path950" />
	<path
   class="st33"
   d="m 698,184.9 c 0.4,1.3 0.9,2.7 1.2,4 0.1,0.6 -0.7,0.9 -1,0.4 -0.5,-0.8 -0.8,-1.5 -1.2,-2.4 -0.1,0.1 -0.1,0.2 -0.2,0.3 -1.1,1.8 -3.2,3.4 -5.3,2 -3.5,-2.4 -0.1,-9.1 2.9,-10.5 0.4,-0.2 0.8,-0.1 1,0.3 0.9,1.3 1.4,2.7 1.9,4.1 0.5,-1.5 0.8,-2.9 1.1,-3.6 0.2,-0.6 1.2,-0.4 0.9,0.3 -0.4,1.7 -0.7,3.5 -1.3,5.1 z m -3.4,-4.5 c -1.1,0.8 -1.9,2.2 -2.4,3.4 -0.5,1.1 -1.3,3.6 0.3,4.3 1.8,0.8 3.1,-0.6 4,-2.6 -0.5,-1.8 -1,-3.5 -1.9,-5.1 z m 1.6,-3.5 c -0.4,0.6 -1.4,0 -1,-0.6 0.6,-0.9 1.2,-1.8 2.1,-2.3 0.5,-0.3 1.2,0.4 0.7,0.8 -0.8,0.7 -1.3,1.3 -1.8,2.1 z"
   id="path952" />
</g>
<g
   id="g974"
   transform="translate(-0.07668457,1.5084225)">
	<path
   class="st33"
   d="m 643.2,302.2 c -0.9,0 -1.9,-0.1 -2.8,-0.2 0.2,0.2 -0.1,-0.1 0.2,0.2 0.2,0.2 0.2,0.5 0.3,0.8 0.1,0.8 0.1,1.7 0.1,2.5 0,1.7 0,3.4 0,5.1 0,1.1 -1.6,1.1 -1.7,0 0,-0.2 0,-0.4 0,-0.6 0.1,-1.4 0.1,-2.8 0.2,-4.3 0,-0.8 0,-1.6 0.1,-2.5 0,-0.3 0.1,-0.5 0.1,-0.8 0,-0.1 0.1,-0.2 0.1,-0.3 0,-0.1 0.1,-0.2 0.1,-0.3 -0.5,-0.1 -1.1,-0.1 -1.6,-0.1 -0.6,0 -1.1,0.1 -1.7,0.1 0,1.1 -0.2,2.2 -0.4,3.3 -0.2,1.2 -0.3,2.4 -0.2,3.6 0.2,0.6 0.3,1 0.2,1.6 -0.1,0.8 -1.5,1.2 -1.6,0.2 -0.3,-1.9 -0.1,-3.7 0.2,-5.6 0.2,-1 0.4,-2 0.6,-2.9 0,0 -0.1,0 -0.1,0 -0.7,0.2 -1.3,0.5 -2,0.6 -0.5,0.2 -0.8,-0.5 -0.5,-0.8 1.1,-1.2 3.4,-1.5 5,-1.6 1.6,-0.1 4.1,-0.3 5.5,0.7 0.7,0.5 0.6,1.3 -0.1,1.3 z"
   id="path956" />
	<path
   class="st33"
   d="m 648,311.1 c -1.6,0.2 -3.3,-0.2 -4.1,-1.7 -0.9,-1.6 0.2,-3.3 1.6,-4.5 -0.8,-0.3 -1.5,-1 -1.2,-2 0.8,-2.4 5,-3.5 6.8,-1.5 0.3,0.4 -0.2,0.8 -0.5,0.5 -1.2,-1.1 -4.3,-0.5 -5.1,1.1 -0.4,0.9 0.6,1 1.6,0.9 0.5,-0.2 1,-0.4 1.4,-0.5 0.6,-0.1 1.2,0.6 0.6,1.1 -0.4,0.4 -1,0.6 -1.5,0.7 -1.4,0.8 -3,2.2 -2.5,3.4 0.6,1.3 2.4,1.3 3.4,0.5 0.9,-0.6 1.6,-1.4 2.2,-2.3 0.5,-0.6 1.5,0.2 1.1,0.8 -0.8,1.4 -2,3.2 -3.8,3.5 z"
   id="path958" />
	<path
   class="st33"
   d="m 656.6,310.9 c -0.3,0.5 -1.3,0.5 -1.4,-0.2 -0.5,-3.3 -1.4,-6.3 -2.3,-9.5 -0.1,-0.5 0.6,-0.9 0.9,-0.4 1.1,2.4 1.9,4.9 2.5,7.5 0.6,-1.1 1.1,-2.1 1.5,-3.2 0.6,-1.6 0.8,-3.3 1.4,-4.9 0.2,-0.7 1.1,-0.5 1.2,0.2 0.4,3.6 -2,7.6 -3.8,10.5 z"
   id="path960" />
	<path
   class="st33"
   d="m 665.6,309.9 c 0.7,0.8 -0.4,2 -1.2,1.2 -2.5,-2.3 -2,-6.5 0.1,-8.9 -1.1,0 -2.2,0 -3.3,-0.3 -0.6,-0.2 -0.4,-1.1 0.1,-1.1 1.8,0.1 4.3,-0.2 6.1,-0.4 0.3,-0.1 0.7,-0.1 1.1,-0.1 1,0 1,1.5 0,1.5 -3.8,0.1 -5.3,5.5 -2.9,8.1 z"
   id="path962" />
	<path
   class="st33"
   d="m 677.3,306.4 c 0.4,1.3 0.9,2.7 1.2,4 0.1,0.6 -0.7,0.9 -1,0.4 -0.5,-0.8 -0.8,-1.5 -1.2,-2.4 -0.1,0.1 -0.1,0.2 -0.2,0.3 -1.1,1.8 -3.2,3.4 -5.3,2 -3.5,-2.4 -0.1,-9.1 2.9,-10.5 0.4,-0.2 0.8,-0.1 1,0.3 0.9,1.3 1.4,2.7 1.9,4.1 0.5,-1.5 0.8,-2.9 1.1,-3.6 0.2,-0.6 1.2,-0.4 0.9,0.3 -0.3,1.7 -0.7,3.5 -1.3,5.1 z m -3.3,-4.5 c -1.1,0.8 -1.9,2.2 -2.4,3.4 -0.5,1.1 -1.3,3.6 0.3,4.3 1.8,0.8 3.1,-0.6 4,-2.6 -0.6,-1.7 -1,-3.5 -1.9,-5.1 z m 1.5,-3.5 c -0.4,0.6 -1.4,0 -1,-0.6 0.6,-0.9 1.2,-1.8 2.1,-2.3 0.5,-0.3 1.2,0.4 0.7,0.8 -0.7,0.7 -1.3,1.3 -1.8,2.1 z"
   id="path964" />
	<path
   class="st33"
   d="m 684.3,304.1 c 0,0 0.1,0.1 0.1,0.1 1.4,1.8 2.4,3.7 2.5,6 0.1,1.7 -0.2,3.6 -1.9,4.3 -1.3,0.6 -3.1,0.2 -4.2,-0.7 -2,-1.8 -0.5,-5.2 0.5,-7 0.4,-0.8 0.9,-1.6 1.4,-2.4 -0.5,-0.6 -1,-1.1 -1.6,-1.7 -0.2,-0.2 -0.8,-1.2 -1.2,-1.3 -0.4,-0.1 -0.3,-0.6 0,-0.7 0.6,-0.2 1.4,0.6 1.8,1 0.6,0.5 1.2,1 1.8,1.6 0.1,-0.2 0.3,-0.4 0.4,-0.6 0.7,-0.9 1.4,-1.9 2.5,-2.4 0.5,-0.2 0.9,0.3 0.6,0.7 -1,1 -1.9,2 -2.7,3.1 z m -0.9,1.2 c -0.1,0.2 -0.2,0.3 -0.3,0.5 -1,1.6 -2.8,4.3 -2.1,6.3 0.3,1.1 1.4,1.3 2.4,1.2 1.8,-0.2 2.1,-1.9 1.9,-3.4 -0.2,-1.7 -0.9,-3.2 -1.9,-4.6 z"
   id="path966" />
	<path
   class="st33"
   d="m 697.9,310.7 c -1.8,1.4 -3.2,0.3 -4.2,-1.4 -0.7,1 -1.6,1.9 -2.8,1.8 -2,-0.1 -2.8,-2.8 -2.8,-4.5 0,-2.1 0.5,-4.7 2.3,-6 0.5,-0.3 0.9,0.4 0.6,0.8 -1.1,1.4 -1.5,3.1 -1.5,4.9 0,0.8 0.3,3.4 1.6,3.2 0.6,-0.1 1.4,-1.1 1.9,-2.2 -0.3,-1.2 -0.4,-2.5 -0.1,-3.2 0.2,-0.7 0.9,-0.8 1.4,-0.4 1,0.8 0.8,2.3 0.4,3.5 0.1,0.3 0.2,0.6 0.3,0.8 0.4,0.8 1.4,2.2 2.1,0.9 1,-1.8 1,-5.5 -0.4,-7.2 -0.7,-0.8 0.4,-1.8 1.2,-1.2 1.3,1.1 1.6,3.4 1.6,5 0.1,1.8 -0.1,4.1 -1.6,5.2 z"
   id="path968" />
	<path
   class="st33"
   d="m 704.4,310.9 c -0.3,0.5 -1.3,0.5 -1.4,-0.2 -0.5,-3.3 -1.4,-6.3 -2.3,-9.5 -0.1,-0.5 0.6,-0.9 0.9,-0.4 1.1,2.4 1.9,4.9 2.5,7.5 0.6,-1.1 1.1,-2.1 1.5,-3.2 0.6,-1.6 0.8,-3.3 1.4,-4.9 0.2,-0.7 1.1,-0.5 1.2,0.2 0.3,3.6 -2,7.6 -3.8,10.5 z"
   id="path970" />
	<path
   class="st33"
   d="m 709.3,309 c -0.5,-1.2 0,-3.1 0.9,-4.6 -0.3,-0.1 -0.6,-0.6 -0.4,-0.9 0.2,-0.5 0.5,-0.9 0.8,-1.3 1.6,-2.2 4.6,-2.7 6,-0.1 1.2,2.1 1.4,5.3 0,7.4 -1.6,2.3 -6.1,2.4 -7.3,-0.5 z m 5.7,-6.7 c -0.8,-0.9 -1.7,-0.6 -2.5,0.1 0.6,-0.1 1.2,0 1.8,0.5 0.3,0.3 -0.1,0.9 -0.5,0.6 -2,-1.4 -5.4,4.7 -1.9,5.9 1.9,0.6 3.5,0 4,-2 0.4,-1.6 0.2,-3.8 -0.9,-5.1 z"
   id="path972" />
</g>
<g
   id="g988"
   transform="translate(-0.07668457,1.5084225)">
	<path
   class="st33"
   d="m 774.5,429.3 c -0.6,-1.4 -1.6,-2.4 -2.7,-3.4 -0.5,-0.5 -1.1,-1.1 -1.5,-1.8 -0.8,1.4 -1.5,2.9 -1.6,4.5 0,0.7 -1,0.9 -1.3,0.2 -0.6,-1.6 -0.6,-3.3 -0.5,-5 0.2,-1.7 0.3,-3.5 0.9,-5 0.1,-0.3 0.5,-0.2 0.5,0.1 0.2,1.6 -0.3,3.3 -0.3,5 0,0.6 0,1.2 0,1.8 0.5,-1.2 1.2,-2.4 1.9,-3.4 1.2,-1.7 3.2,-3.9 5.6,-3.3 0.5,0.1 0.6,1 0,1.1 -2,0.3 -3.4,1.5 -4.5,3 0.8,1.1 1.7,1.8 2.7,2.7 1,0.9 1.9,2 1.8,3.4 0.1,0.3 -0.7,0.7 -1,0.1 z"
   id="path976" />
	<path
   class="st33"
   d="m 782,429.3 c -2.2,0.5 -4.4,-1.5 -4.7,-3.6 -0.4,-2.3 0.2,-5.2 2.3,-6.6 0.4,-0.2 0.8,0.3 0.5,0.6 -1.6,1.4 -2.1,4.2 -1.3,6.1 0.4,1.1 2.3,2.7 3.3,1.4 0.8,-1.1 0.9,-2.9 1,-4.2 0,-1.3 0,-2.5 0,-3.8 -0.1,-0.8 1.1,-0.9 1.4,-0.2 0.6,1.9 0.5,4 0.2,5.9 -0.3,1.6 -0.9,4 -2.7,4.4 z m 0.3,-12.7 c -0.4,0.6 -1.4,0 -1,-0.6 0.6,-0.9 1.2,-1.8 2.1,-2.3 0.5,-0.3 1.2,0.4 0.7,0.8 -0.7,0.7 -1.2,1.4 -1.8,2.1 z"
   id="path978" />
	<path
   class="st33"
   d="m 793.7,429.3 c -0.6,-1.4 -1.6,-2.4 -2.7,-3.4 -0.5,-0.5 -1.1,-1.1 -1.5,-1.8 -0.8,1.4 -1.5,2.9 -1.6,4.5 0,0.7 -1,0.9 -1.3,0.2 -0.6,-1.6 -0.6,-3.3 -0.5,-5 0.2,-1.7 0.3,-3.5 0.9,-5 0.1,-0.3 0.5,-0.2 0.5,0.1 0.2,1.6 -0.3,3.3 -0.3,5 0,0.6 0,1.2 0,1.8 0.5,-1.2 1.2,-2.4 1.9,-3.4 1.2,-1.7 3.2,-3.9 5.6,-3.3 0.5,0.1 0.6,1 0,1.1 -2,0.3 -3.4,1.5 -4.5,3 0.8,1.1 1.7,1.8 2.7,2.7 1,0.9 1.9,2 1.8,3.4 0.1,0.3 -0.8,0.7 -1,0.1 z"
   id="path980" />
	<path
   class="st33"
   d="m 802.5,428.7 c -0.1,-1.2 0,-2.4 -0.1,-3.6 -0.1,-1.1 -0.2,-2.7 -1.1,-3.4 -1.2,-1 -2.9,1 -3.2,2 -0.5,1.5 -0.4,2.9 -0.3,4.5 0,0.1 0.1,0.1 0.1,0.2 0,0 0,0 0,0.1 0.1,0.4 -0.3,0.8 -0.7,0.7 -0.9,-0.2 -1,-1.8 -1,-2.5 -0.1,-1.1 0,-2.4 0.4,-3.4 0.7,-1.8 2.2,-3.6 4.4,-3.4 0.9,0.1 1.6,0.5 2.1,1.2 V 421 c -0.1,-1.2 -0.2,-2.8 -0.8,-3.9 -0.9,-1.6 -2.6,-2 -4,-0.8 -0.4,0.4 -0.9,-0.2 -0.6,-0.6 0.9,-1.2 2.4,-1.6 3.8,-1 1.5,0.6 2.2,2 2.6,3.5 0.8,3.5 0.4,6.9 0.1,10.5 -0.2,1 -1.6,1 -1.7,0 z"
   id="path982" />
	<path
   class="st33"
   d="m 805.8,427.2 c -0.5,-1.2 0,-3.1 0.9,-4.6 -0.3,-0.1 -0.6,-0.6 -0.4,-0.9 0.2,-0.5 0.5,-0.9 0.8,-1.3 1.6,-2.2 4.6,-2.7 6,-0.1 1.2,2.1 1.4,5.3 0,7.4 -1.5,2.3 -6.1,2.4 -7.3,-0.5 z m 5.7,-6.6 c -0.8,-0.9 -1.7,-0.6 -2.5,0.1 0.6,-0.1 1.2,0 1.8,0.5 0.4,0.3 -0.1,0.9 -0.5,0.6 -2,-1.4 -5.4,4.7 -1.9,5.9 1.9,0.6 3.5,0 4,-2 0.4,-1.6 0.3,-3.9 -0.9,-5.1 z"
   id="path984" />
	<path
   class="st33"
   d="m 819.7,432.4 c -0.6,0 -1.1,-0.4 -0.8,-1 0.2,-0.7 1,-1 1.6,-1.4 0.2,-0.1 0.9,-0.5 0.6,-0.7 -0.3,-0.3 -0.8,-0.4 -1.2,-0.5 -1.9,-0.4 -4,-0.6 -4.6,-2.8 -1.1,-3.9 3.5,-8.5 7.4,-7.3 0.5,0.1 0.3,0.8 -0.2,0.7 -2.2,-0.4 -4.5,1.5 -5.4,3.4 -0.4,0.9 -0.7,2.1 -0.1,3 0.5,0.8 1.4,0.9 2.3,1.1 1.3,0.2 4,0.6 3.7,2.6 -0.2,1.3 -2,2.9 -3.3,2.9 z"
   id="path986" />
</g>
<g
   id="g1002"
   transform="translate(-0.07668457,1.5084225)">
	<path
   class="st33"
   d="m 530,428.6 c 0,0 -0.1,0 -0.1,0 v 0 c -0.3,-0.2 -0.3,-0.6 0.1,-0.7 0.9,-0.2 1.9,-0.1 2.8,-0.7 0.7,-0.5 1,-1.1 1.1,-1.9 0.2,-1.4 0.1,-4.3 -1.5,-5.1 -2.4,-1.2 -3.3,4 -3.3,5.4 0,2.5 0.6,4.8 1.2,7.2 0.3,1.2 -1.5,1.5 -1.7,0.5 -0.8,-3.4 -1.8,-7.7 -0.4,-11.5 0.8,-2.1 3.1,-4.4 5.3,-2.7 1.8,1.4 2.4,4.9 1.6,7.1 -0.6,1.8 -3.1,3.4 -5.1,2.4 z"
   id="path990" />
	<path
   class="st33"
   d="m 536.8,427.2 c -0.5,-1.2 0,-3.1 0.9,-4.6 -0.3,-0.1 -0.6,-0.6 -0.4,-0.9 0.2,-0.5 0.5,-0.9 0.8,-1.3 1.6,-2.2 4.6,-2.7 6,-0.1 1.2,2.1 1.4,5.3 0,7.4 -1.6,2.3 -6.1,2.4 -7.3,-0.5 z m 5.6,-6.6 c -0.8,-0.9 -1.7,-0.6 -2.5,0.1 0.6,-0.1 1.2,0 1.8,0.5 0.3,0.3 -0.1,0.9 -0.5,0.6 -2,-1.4 -5.4,4.7 -1.9,5.9 1.9,0.6 3.5,0 4,-2 0.4,-1.6 0.3,-3.9 -0.9,-5.1 z m 0.4,-4 c -0.4,0.6 -1.4,0 -1,-0.6 0.6,-0.9 1.2,-1.8 2.1,-2.3 0.5,-0.3 1.2,0.4 0.7,0.8 -0.7,0.7 -1.2,1.4 -1.8,2.1 z"
   id="path992" />
	<path
   class="st33"
   d="m 554.5,429.1 c 0,0 -0.1,-0.1 -0.1,-0.2 v 0 c -0.5,-0.7 -0.8,-1.4 -1,-2.1 -0.2,0.6 -0.6,1.1 -1,1.6 -0.9,1 -2.2,1.5 -3.2,0.3 -0.4,-0.5 -0.7,-1.2 -0.9,-1.9 -0.2,2.1 -0.4,4.3 -0.5,6.5 0,0.6 -0.9,0.6 -0.9,0 -0.3,-4.7 0.4,-9.4 0.4,-14.1 0,-0.9 1.4,-0.9 1.4,0 0,2.5 0.2,5.3 1.1,7.6 0.1,0.4 0.4,1 0.8,1.2 0.4,0.2 1.1,-0.7 1.2,-1 1.4,-2.3 1,-5.3 1.3,-7.9 0.1,-0.7 1.2,-0.8 1.2,0 0.1,2.6 -0.5,6.2 1.3,8.4 0.1,0.1 0.3,0.3 0.4,0.5 0.3,0.9 -0.9,1.9 -1.5,1.1 z"
   id="path994" />
	<path
   class="st33"
   d="m 558.9,429.3 c 0.1,1.2 0.1,2.4 0.2,3.5 0,0.8 -1.1,0.7 -1.2,0 -0.4,-4.3 -1.1,-8.7 -0.4,-13 0.3,-1.9 1,-5.8 3.5,-6.1 2.5,-0.3 3.7,3 3.1,5 -0.4,1.1 -1,2.2 -1.8,3.1 1.3,-0.2 2.4,0.1 2.8,1.4 0.9,3.6 -3.3,5.8 -6.2,6.1 z m 3.2,-14.1 c -1.1,-0.6 -1.7,0.2 -2.1,1.2 -1,2.3 -1.3,4.8 -1.4,7.3 0.4,-0.4 1,-0.8 1.7,-1.1 0.7,-0.6 2.4,-2.3 2.8,-3.6 0.5,-1.4 0.4,-3.1 -1,-3.8 z m -1.9,8.7 c -0.4,0.3 -0.8,0.6 -1.2,0.8 -0.1,0.1 -0.3,0.1 -0.4,0.1 0,1.2 0.1,2.3 0.1,3.4 2.2,-0.3 5.5,-1.6 5.2,-4.3 -0.1,-1.5 -2.3,-0.8 -3.7,0 z"
   id="path996" />
	<path
   class="st33"
   d="m 566.6,427.2 c -0.5,-1.2 0,-3.1 0.9,-4.6 -0.3,-0.1 -0.6,-0.6 -0.4,-0.9 0.2,-0.5 0.5,-0.9 0.8,-1.3 1.6,-2.2 4.6,-2.7 6,-0.1 1.2,2.1 1.4,5.3 0,7.4 -1.6,2.3 -6.1,2.4 -7.3,-0.5 z m 5.7,-6.6 c -0.8,-0.9 -1.7,-0.6 -2.5,0.1 0.6,-0.1 1.2,0 1.8,0.5 0.3,0.3 -0.1,0.9 -0.5,0.6 -2,-1.4 -5.4,4.7 -1.9,5.9 1.9,0.6 3.5,0 4,-2 0.4,-1.6 0.2,-3.9 -0.9,-5.1 z"
   id="path998" />
	<path
   class="st33"
   d="m 580.4,432.4 c -0.6,0 -1.1,-0.4 -0.8,-1 0.2,-0.7 1,-1 1.6,-1.4 0.2,-0.1 0.9,-0.5 0.6,-0.7 -0.3,-0.3 -0.8,-0.4 -1.2,-0.5 -1.9,-0.4 -4,-0.6 -4.6,-2.8 -1.1,-3.9 3.5,-8.5 7.4,-7.3 0.5,0.1 0.3,0.8 -0.2,0.7 -2.2,-0.4 -4.5,1.5 -5.4,3.4 -0.4,0.9 -0.7,2.1 -0.1,3 0.5,0.8 1.4,0.9 2.3,1.1 1.3,0.2 4,0.6 3.7,2.6 -0.1,1.3 -1.9,2.9 -3.3,2.9 z"
   id="path1000" />
</g>
<g
   id="g1016"
   transform="translate(-367.39871,-117.83056)">
	<path
   class="st33"
   d="m 656,546.3 c 0.4,1.3 0.9,2.7 1.2,4 0.2,0.6 -0.7,0.9 -1,0.4 -0.5,-0.8 -0.8,-1.5 -1.2,-2.4 -0.1,0.1 -0.1,0.2 -0.2,0.3 -1.1,1.8 -3.2,3.4 -5.3,2 -3.5,-2.4 -0.1,-9.1 2.9,-10.5 0.4,-0.2 0.7,-0.1 1,0.3 0.8,1.3 1.4,2.7 1.9,4.1 0.5,-1.5 0.8,-2.9 1.1,-3.6 0.2,-0.6 1.1,-0.4 0.9,0.3 -0.3,1.7 -0.7,3.4 -1.3,5.1 z m -3.4,-4.5 c -1.1,0.8 -1.9,2.2 -2.4,3.4 -0.4,1.1 -1.2,3.6 0.3,4.3 1.8,0.8 3.1,-0.6 4,-2.6 -0.5,-1.8 -1,-3.5 -1.9,-5.1 z"
   id="path1004" />
	<path
   class="st33"
   d="m 664,542.1 c -0.6,0 -1.4,-0.1 -2,0 -1.8,0.6 -2.3,3.5 -1.7,5.1 0.4,1 1.2,2 2.3,2.2 0.9,0.2 2.2,-0.1 2.5,-1.2 0.3,-1.5 -0.3,-4.3 -2,-4.7 -0.7,-0.2 -0.4,-1.1 0.3,-1 2.4,0.4 3.6,4 3.1,6.1 -0.6,2.9 -4.5,3 -6.3,1.1 -2.1,-2.2 -2.2,-5.9 0,-8.2 1.7,-1.7 4.6,-1.1 6.7,-1 0.7,0 0.8,1 0.2,1.2 -1.1,0.4 -2,0.5 -3.1,0.4 z"
   id="path1006" />
	<path
   class="st33"
   d="m 672.5,549.8 c 0.7,0.8 -0.4,2 -1.2,1.2 -2.5,-2.3 -2,-6.5 0.1,-8.9 -1.1,0 -2.2,0 -3.3,-0.3 -0.6,-0.2 -0.4,-1.1 0.1,-1.1 1.8,0.1 4.3,-0.2 6.1,-0.4 0.4,-0.1 0.7,-0.1 1.1,-0.1 1,0 1,1.5 0,1.5 -3.8,0.1 -5.3,5.5 -2.9,8.1 z"
   id="path1008" />
	<path
   class="st33"
   d="m 680.8,551 c -1.6,0.2 -3.3,-0.2 -4.1,-1.7 -0.9,-1.6 0.2,-3.3 1.6,-4.5 -0.8,-0.3 -1.5,-1 -1.2,-2 0.8,-2.4 5,-3.5 6.8,-1.5 0.3,0.4 -0.2,0.8 -0.5,0.5 -1.2,-1.1 -4.3,-0.5 -5,1.1 -0.4,0.9 0.6,1 1.6,0.9 0.5,-0.2 1,-0.4 1.4,-0.5 0.6,-0.1 1.2,0.6 0.6,1.1 -0.4,0.4 -1,0.6 -1.5,0.7 -1.4,0.8 -3,2.2 -2.5,3.4 0.6,1.3 2.4,1.3 3.4,0.5 0.9,-0.6 1.6,-1.4 2.2,-2.3 0.5,-0.6 1.5,0.2 1.1,0.8 -0.9,1.4 -2.1,3.2 -3.9,3.5 z m 0.8,-12.7 c -0.4,0.6 -1.4,0 -1,-0.6 0.6,-0.9 1.2,-1.8 2.1,-2.3 0.5,-0.3 1.2,0.4 0.7,0.8 -0.7,0.7 -1.3,1.3 -1.8,2.1 z"
   id="path1010" />
	<path
   class="st33"
   d="m 688.3,550.3 c 0,0 -0.1,0 -0.1,0 v 0 c -0.3,-0.2 -0.3,-0.6 0.1,-0.7 0.9,-0.2 1.9,-0.1 2.8,-0.7 0.7,-0.5 1,-1.1 1.1,-1.9 0.2,-1.4 0.1,-4.3 -1.5,-5.1 -2.4,-1.2 -3.3,4 -3.3,5.4 0,2.5 0.6,4.8 1.2,7.2 0.3,1.2 -1.5,1.5 -1.7,0.5 -0.8,-3.4 -1.8,-7.7 -0.4,-11.5 0.8,-2.1 3.1,-4.4 5.3,-2.7 1.8,1.4 2.4,4.9 1.6,7.1 -0.6,1.8 -3.1,3.3 -5.1,2.4 z"
   id="path1012" />
	<path
   class="st33"
   d="m 697.1,550.9 c -3.5,1.1 -2,-9 -1.5,-10.3 0.1,-0.3 0.6,-0.3 0.6,0.1 0.1,1.9 0,3.7 0.1,5.6 0.1,1.2 0.2,2.8 1,3.8 0.3,0.1 0.2,0.6 -0.2,0.8 z"
   id="path1014" />
</g>
<g
   id="g1032"
   transform="translate(-0.07668457,1.5084225)">
	<path
   class="st33"
   d="m 771.8,72 c -1.6,0.2 -3.3,-0.2 -4.1,-1.7 -0.9,-1.6 0.2,-3.3 1.6,-4.5 -0.8,-0.3 -1.5,-1 -1.2,-2 0.8,-2.4 5,-3.5 6.8,-1.5 0.3,0.4 -0.2,0.8 -0.5,0.5 -1.2,-1.1 -4.3,-0.5 -5.1,1.1 -0.4,0.9 0.6,1 1.6,0.9 0.5,-0.2 1,-0.4 1.4,-0.5 0.6,-0.1 1.2,0.6 0.6,1.1 -0.4,0.4 -1,0.6 -1.5,0.7 -1.4,0.8 -3,2.2 -2.5,3.4 0.6,1.3 2.4,1.3 3.4,0.5 0.9,-0.6 1.6,-1.4 2.2,-2.3 0.5,-0.6 1.5,0.2 1.1,0.8 -0.8,1.4 -2,3.2 -3.8,3.5 z"
   id="path1018" />
	<path
   class="st33"
   d="m 781.5,65.1 c -0.7,0.4 -1.2,0.9 -1.3,1.5 -0.2,1.1 1.4,1.5 2.1,1.9 0.8,0.5 1.8,1.1 2,2.1 0.3,1.3 -0.1,2.6 -0.8,3.6 -1.4,2 -4.9,2.4 -6.3,0.1 -1.1,-1.8 -0.3,-4.1 1.8,-4.7 0.5,-0.1 0.9,0.6 0.4,0.9 -2.4,1.1 -1.4,4.5 1.2,4.2 1.5,-0.2 3.1,-2 2.7,-3.6 -0.2,-0.9 -1.1,-1.3 -1.9,-1.8 -1.4,-0.7 -2.8,-1.6 -2.3,-3.4 0.2,-0.6 0.6,-1.1 1.1,-1.6 -0.8,-0.5 -1.4,-1.3 -1.6,-2.1 -0.3,-1.2 0.3,-2.4 1.3,-3.3 -0.8,-0.2 -1.6,-0.5 -2.2,-0.9 -0.3,-0.2 0,-0.7 0.3,-0.6 0.9,0.4 2.1,0.6 3.3,0.5 0.9,-0.5 1.9,-0.7 2.7,-0.6 0.7,0.1 0.5,1 0,1.2 -0.6,0.2 -1.3,0.4 -2,0.4 -1.2,0.6 -2.5,1.7 -2.2,2.7 0.1,0.5 0.9,1.4 1.8,1.8 0.8,-0.4 1.7,-0.6 2.4,-0.7 0.5,0 0.9,0.5 0.7,0.9 -0.6,1.6 -1.9,1.8 -3.2,1.5 z"
   id="path1020" />
	<path
   class="st33"
   d="m 793.5,67.3 c 0.4,1.3 0.9,2.7 1.2,4 0.1,0.6 -0.7,0.9 -1,0.4 -0.5,-0.8 -0.8,-1.5 -1.2,-2.4 -0.1,0.1 -0.1,0.2 -0.2,0.3 -1.1,1.8 -3.2,3.4 -5.3,2 -3.5,-2.4 -0.1,-9.1 2.9,-10.5 0.4,-0.2 0.8,-0.1 1,0.3 0.9,1.3 1.4,2.7 1.9,4.1 0.5,-1.5 0.8,-2.9 1.1,-3.6 0.2,-0.6 1.2,-0.4 0.9,0.3 -0.4,1.7 -0.7,3.4 -1.3,5.1 z m -3.4,-4.5 c -1.1,0.8 -1.9,2.2 -2.4,3.4 -0.5,1.1 -1.3,3.6 0.3,4.3 1.8,0.8 3.1,-0.6 4,-2.6 -0.5,-1.8 -1,-3.6 -1.9,-5.1 z m 1.6,-3.6 c -0.4,0.6 -1.4,0 -1,-0.6 0.6,-0.9 1.2,-1.8 2.1,-2.3 0.5,-0.3 1.2,0.4 0.7,0.8 -0.8,0.7 -1.3,1.4 -1.8,2.1 z"
   id="path1022" />
	<path
   class="st33"
   d="m 800.4,65 c 0,0 0.1,0.1 0.1,0.1 1.4,1.8 2.4,3.7 2.5,6 0.1,1.7 -0.2,3.6 -1.9,4.3 -1.3,0.6 -3.1,0.2 -4.2,-0.7 -2,-1.8 -0.5,-5.2 0.5,-7.1 0.4,-0.8 0.9,-1.6 1.4,-2.4 -0.5,-0.6 -1,-1.1 -1.6,-1.7 -0.2,-0.2 -0.8,-1.2 -1.2,-1.3 -0.4,-0.1 -0.3,-0.6 0,-0.7 0.6,-0.2 1.4,0.6 1.8,1 0.6,0.5 1.2,1 1.8,1.6 0.1,-0.2 0.3,-0.4 0.4,-0.6 0.7,-0.9 1.4,-1.9 2.5,-2.4 0.5,-0.2 0.9,0.3 0.6,0.7 -0.9,1.1 -1.9,2.1 -2.7,3.2 z m -0.8,1.2 c -0.1,0.2 -0.2,0.3 -0.3,0.5 -1,1.6 -2.8,4.3 -2.1,6.3 0.3,1.1 1.4,1.3 2.4,1.2 1.8,-0.2 2.1,-1.9 1.9,-3.4 -0.2,-1.8 -0.9,-3.3 -1.9,-4.6 z"
   id="path1024" />
	<path
   class="st33"
   d="m 814.1,71.6 c -1.8,1.4 -3.2,0.3 -4.2,-1.4 -0.7,1 -1.6,1.9 -2.8,1.8 -2,-0.1 -2.8,-2.8 -2.8,-4.5 0,-2.1 0.5,-4.7 2.3,-6 0.5,-0.3 0.9,0.4 0.6,0.8 -1.1,1.4 -1.5,3.1 -1.5,4.9 0,0.8 0.3,3.4 1.6,3.2 0.6,-0.1 1.4,-1.1 1.9,-2.2 -0.3,-1.2 -0.4,-2.5 -0.1,-3.2 0.2,-0.7 0.9,-0.8 1.4,-0.4 1,0.8 0.8,2.3 0.4,3.5 0.1,0.3 0.2,0.6 0.3,0.8 0.4,0.8 1.4,2.2 2.1,0.9 1,-1.8 1,-5.5 -0.4,-7.2 -0.7,-0.8 0.4,-1.8 1.2,-1.2 1.3,1.1 1.6,3.4 1.6,5 0.1,1.8 -0.1,4 -1.6,5.2 z"
   id="path1026" />
	<path
   class="st33"
   d="m 820.5,71.7 c -0.3,0.5 -1.3,0.5 -1.4,-0.2 -0.5,-3.3 -1.4,-6.3 -2.3,-9.5 -0.1,-0.5 0.6,-0.9 0.9,-0.4 1.1,2.4 1.9,4.9 2.5,7.5 0.6,-1.1 1.1,-2.1 1.5,-3.2 0.6,-1.6 0.8,-3.3 1.4,-4.9 0.2,-0.7 1.1,-0.5 1.2,0.2 0.4,3.7 -2,7.6 -3.8,10.5 z"
   id="path1028" />
	<path
   class="st33"
   d="m 825.4,69.8 c -0.5,-1.2 0,-3.1 0.9,-4.6 -0.3,-0.1 -0.6,-0.6 -0.4,-0.9 0.2,-0.5 0.5,-0.9 0.8,-1.3 1.6,-2.2 4.6,-2.7 6,-0.1 1.2,2.1 1.4,5.3 0,7.4 -1.5,2.3 -6.1,2.4 -7.3,-0.5 z m 5.7,-6.6 c -0.8,-0.9 -1.7,-0.6 -2.5,0.1 0.6,-0.1 1.2,0 1.8,0.5 0.3,0.3 -0.1,0.9 -0.5,0.6 -2,-1.4 -5.4,4.7 -1.9,5.9 1.9,0.6 3.5,0 4,-2 0.4,-1.6 0.3,-3.9 -0.9,-5.1 z"
   id="path1030" />
</g>
<g
   id="g1046"
   transform="translate(-0.07668457,1.5084225)">
	<path
   class="st33"
   d="m 285.7,302.3 c -0.6,0 -1.4,-0.1 -2,0 -1.8,0.6 -2.4,3.5 -1.7,5.1 0.4,1 1.2,2 2.3,2.2 0.9,0.2 2.2,-0.1 2.5,-1.2 0.3,-1.5 -0.3,-4.3 -2,-4.7 -0.7,-0.2 -0.4,-1.1 0.3,-1 2.4,0.4 3.6,4 3.1,6.1 -0.6,2.9 -4.5,3 -6.3,1.1 -2.1,-2.2 -2.2,-5.9 0,-8.2 1.7,-1.7 4.6,-1.1 6.7,-1 0.7,0 0.8,1 0.2,1.2 -1.1,0.3 -2.1,0.4 -3.1,0.4 z"
   id="path1034" />
	<path
   class="st33"
   d="m 297.6,310.1 c -0.7,0.5 -1.5,0.9 -2.2,1 0.1,1.3 0.3,2.6 0.4,3.9 0.1,1 -1.3,1 -1.6,0.2 -0.4,-1.3 -0.6,-2.7 -0.6,-4.1 -1.7,-0.3 -3.1,-1.6 -3.5,-3.7 -0.8,-3.7 1.1,-7.4 4.9,-8.1 0.6,-0.1 0.8,0.7 0.2,0.9 -3.3,0.9 -4.9,4.3 -3.6,7.5 0.4,1.1 1.2,1.7 2,1.9 -0.1,-2 0,-4.2 0.8,-6 0.7,-1.6 2.4,-2.8 4.2,-2.2 3.2,1.1 0.9,7.3 -1,8.7 z m -0.9,-6.9 c -0.6,0.4 -0.9,1.1 -1.1,1.7 -0.4,1.5 -0.5,3.1 -0.4,4.7 0.9,-0.3 1.8,-1 2.3,-2.1 0.5,-1 1.3,-3.2 0.6,-4.3 -0.2,-0.4 -1,-0.3 -1.4,0 z"
   id="path1036" />
	<path
   class="st33"
   d="m 308.9,306.4 c 0.4,1.3 0.9,2.7 1.2,4 0.2,0.6 -0.7,0.9 -1,0.4 -0.5,-0.8 -0.8,-1.5 -1.2,-2.4 -0.1,0.1 -0.1,0.2 -0.2,0.3 -1.1,1.8 -3.2,3.4 -5.3,2 -3.5,-2.4 -0.1,-9.1 2.9,-10.5 0.4,-0.2 0.7,-0.1 1,0.3 0.8,1.3 1.4,2.7 1.9,4.1 0.5,-1.5 0.8,-2.9 1.1,-3.6 0.2,-0.6 1.1,-0.4 0.9,0.3 -0.3,1.7 -0.7,3.5 -1.3,5.1 z m -3.3,-4.5 c -1.1,0.8 -1.9,2.2 -2.4,3.4 -0.4,1.1 -1.2,3.6 0.3,4.3 1.8,0.8 3.1,-0.6 4,-2.6 -0.5,-1.7 -1,-3.5 -1.9,-5.1 z"
   id="path1038" />
	<path
   class="st33"
   d="m 313.7,311 c -3.5,1.1 -2,-9 -1.5,-10.3 0.1,-0.3 0.6,-0.3 0.6,0.1 0.1,1.9 0,3.7 0.1,5.6 0.1,1.2 0.2,2.8 1,3.8 0.3,0.2 0.2,0.7 -0.2,0.8 z m -0.9,-12.6 c -0.4,0.6 -1.4,0 -1,-0.6 0.6,-0.9 1.2,-1.8 2.1,-2.3 0.5,-0.3 1.2,0.4 0.7,0.8 -0.7,0.7 -1.3,1.3 -1.8,2.1 z"
   id="path1040" />
	<path
   class="st33"
   d="m 317.6,310.4 c 0,0 -0.1,0 -0.1,0 v 0 c -0.3,-0.2 -0.3,-0.6 0.1,-0.7 0.9,-0.2 1.9,-0.1 2.8,-0.7 0.7,-0.5 1,-1.1 1.1,-1.9 0.2,-1.4 0.1,-4.3 -1.5,-5.1 -2.4,-1.2 -3.3,4 -3.3,5.4 0,2.5 0.6,4.8 1.2,7.2 0.3,1.2 -1.5,1.5 -1.7,0.5 -0.8,-3.4 -1.8,-7.7 -0.4,-11.5 0.8,-2.1 3.1,-4.4 5.3,-2.7 1.8,1.4 2.4,4.9 1.6,7.1 -0.6,1.8 -3.1,3.3 -5.1,2.4 z"
   id="path1042" />
	<path
   class="st33"
   d="m 331.8,306.4 c 0.4,1.3 0.9,2.7 1.2,4 0.2,0.6 -0.7,0.9 -1,0.4 -0.5,-0.8 -0.8,-1.5 -1.2,-2.4 -0.1,0.1 -0.1,0.2 -0.2,0.3 -1.1,1.8 -3.2,3.4 -5.3,2 -3.5,-2.4 -0.1,-9.1 2.9,-10.5 0.4,-0.2 0.7,-0.1 1,0.3 0.8,1.3 1.4,2.7 1.9,4.1 0.5,-1.5 0.8,-2.9 1.1,-3.6 0.2,-0.6 1.1,-0.4 0.9,0.3 -0.4,1.7 -0.7,3.5 -1.3,5.1 z m -3.4,-4.5 c -1.1,0.8 -1.9,2.2 -2.4,3.4 -0.4,1.1 -1.2,3.6 0.3,4.3 1.8,0.8 3.1,-0.6 4,-2.6 -0.5,-1.7 -1,-3.5 -1.9,-5.1 z"
   id="path1044" />
</g>
<g
   id="g1064"
   transform="translate(-0.07668457,1.5084225)">
	<path
   class="st33"
   d="m 280.7,63.1 c -0.9,0 -1.9,-0.1 -2.8,-0.2 0.2,0.2 -0.1,-0.1 0.2,0.2 0.2,0.2 0.2,0.5 0.3,0.8 0.1,0.8 0.1,1.7 0.1,2.5 0,1.7 0,3.4 0,5.1 0,1.1 -1.6,1.1 -1.7,0 0,-0.2 0,-0.4 0,-0.6 0.1,-1.4 0.1,-2.8 0.2,-4.3 0,-0.8 0,-1.6 0.1,-2.5 0,-0.3 0.1,-0.5 0.1,-0.8 0,-0.1 0.1,-0.2 0.1,-0.3 0,-0.1 0.1,-0.2 0.1,-0.3 -0.5,-0.1 -1.1,-0.1 -1.6,-0.1 -0.6,0 -1.1,0.1 -1.7,0.1 0,1.1 -0.2,2.2 -0.4,3.3 -0.2,1.2 -0.3,2.4 -0.2,3.6 0.2,0.6 0.3,1 0.2,1.6 -0.1,0.8 -1.5,1.2 -1.6,0.2 -0.3,-1.9 -0.1,-3.7 0.2,-5.6 0.2,-1 0.4,-2 0.6,-2.9 0,0 -0.1,0 -0.1,0 -0.7,0.2 -1.3,0.5 -2,0.6 -0.5,0.2 -0.8,-0.5 -0.5,-0.8 1.1,-1.2 3.4,-1.5 5,-1.6 1.6,-0.1 4.1,-0.3 5.5,0.7 0.6,0.5 0.5,1.2 -0.1,1.3 z"
   id="path1048" />
	<path
   class="st33"
   d="m 286,71.9 c -2.2,0.5 -4.4,-1.5 -4.7,-3.6 -0.4,-2.4 0.2,-5.2 2.3,-6.6 0.4,-0.2 0.8,0.3 0.5,0.6 -1.6,1.4 -2.1,4.2 -1.3,6.1 0.4,1.1 2.3,2.7 3.3,1.4 0.8,-1.1 0.9,-2.9 1,-4.2 0,-1.3 0,-2.5 0,-3.8 -0.1,-0.8 1.1,-0.9 1.4,-0.2 0.6,1.9 0.5,4 0.2,5.9 -0.2,1.6 -0.8,4 -2.7,4.4 z"
   id="path1050" />
	<path
   class="st33"
   d="m 292.6,71.3 c 0,0 -0.1,0 -0.1,0 v 0 c -0.3,-0.2 -0.3,-0.6 0.1,-0.7 0.9,-0.2 1.9,-0.1 2.8,-0.7 0.7,-0.5 1,-1.1 1.1,-1.9 0.2,-1.4 0.1,-4.3 -1.5,-5.1 -2.4,-1.2 -3.3,4 -3.3,5.4 0,2.5 0.6,4.8 1.2,7.2 0.3,1.2 -1.5,1.5 -1.7,0.5 -0.8,-3.4 -1.8,-7.7 -0.4,-11.5 0.8,-2.1 3.1,-4.4 5.3,-2.7 1.8,1.4 2.4,4.9 1.6,7.1 -0.6,1.8 -3.1,3.3 -5.1,2.4 z"
   id="path1052" />
	<path
   class="st33"
   d="m 306.8,67.3 c 0.4,1.3 0.9,2.7 1.2,4 0.2,0.6 -0.7,0.9 -1,0.4 -0.5,-0.8 -0.8,-1.5 -1.2,-2.4 -0.1,0.1 -0.1,0.2 -0.2,0.3 -1.1,1.8 -3.2,3.4 -5.3,2 -3.5,-2.4 -0.1,-9.1 2.9,-10.5 0.4,-0.2 0.7,-0.1 1,0.3 0.8,1.3 1.4,2.7 1.9,4.1 0.5,-1.5 0.8,-2.9 1.1,-3.6 0.2,-0.6 1.1,-0.4 0.9,0.3 -0.4,1.7 -0.7,3.4 -1.3,5.1 z m -3.4,-4.5 c -1.1,0.8 -1.9,2.2 -2.4,3.4 -0.4,1.1 -1.2,3.6 0.3,4.3 1.8,0.8 3.1,-0.6 4,-2.6 -0.5,-1.8 -1,-3.6 -1.9,-5.1 z"
   id="path1054" />
	<path
   class="st33"
   d="m 317.5,71.7 c 0,0 -0.1,-0.1 -0.1,-0.2 v 0 c -0.5,-0.7 -0.8,-1.4 -1,-2.1 -0.2,0.6 -0.6,1.1 -1,1.6 -0.9,1 -2.2,1.5 -3.2,0.3 -0.4,-0.5 -0.7,-1.2 -0.9,-1.9 -0.2,2.1 -0.4,4.3 -0.5,6.5 0,0.6 -0.9,0.6 -0.9,0 -0.3,-4.7 0.4,-9.4 0.4,-14.1 0,-0.9 1.4,-0.9 1.4,0 0,2.5 0.2,5.3 1.1,7.6 0.1,0.4 0.4,1 0.8,1.2 0.4,0.2 1.1,-0.7 1.2,-1 1.4,-2.3 1,-5.3 1.3,-7.9 0.1,-0.7 1.2,-0.8 1.2,0 0.1,2.6 -0.5,6.2 1.3,8.4 0.1,0.1 0.3,0.3 0.4,0.5 0.3,0.9 -0.9,1.9 -1.5,1.1 z"
   id="path1056" />
	<path
   class="st33"
   d="m 322.3,71.8 c -3.5,1.1 -2,-9 -1.5,-10.3 0.1,-0.3 0.6,-0.3 0.6,0.1 0.1,1.9 0,3.7 0.1,5.6 0.1,1.2 0.2,2.8 1,3.8 0.3,0.2 0.2,0.7 -0.2,0.8 z m -1,-12.6 c -0.4,0.6 -1.4,0 -1,-0.6 0.6,-0.9 1.2,-1.8 2.1,-2.3 0.5,-0.3 1.2,0.4 0.7,0.8 -0.7,0.7 -1.2,1.4 -1.8,2.1 z"
   id="path1058" />
	<path
   class="st33"
   d="m 327.8,58.7 c 1.6,1.6 3,3.4 3.8,5.4 1.1,2.6 0.8,6.4 -2.1,7.8 -2.4,1.2 -5.9,-0.4 -5.8,-3.4 0.1,-2.6 3.2,-5.3 5.9,-5.1 0.1,0 0.1,0 0.2,0 -1.3,-2.3 -3.6,-4.5 -5.2,-5.8 -0.7,-0.6 0.3,-1.6 1,-1 1.4,1.2 4.3,1 5.8,0.1 0.4,-0.2 0.9,0.3 0.5,0.6 -1,1 -2.6,1.4 -4.1,1.4 z m 2.3,5.3 c 0,0.2 -0.2,0.4 -0.5,0.4 -1.9,0.1 -5.2,2.6 -4.4,4.8 1,2.7 4.2,1.9 5.2,-0.3 0.7,-1.6 0.5,-3.3 -0.3,-4.9 z"
   id="path1060" />
	<path
   class="st33"
   d="m 340.9,67.3 c 0.4,1.3 0.9,2.7 1.2,4 0.2,0.6 -0.7,0.9 -1,0.4 -0.5,-0.8 -0.8,-1.5 -1.2,-2.4 -0.1,0.1 -0.1,0.2 -0.2,0.3 -1.1,1.8 -3.2,3.4 -5.3,2 -3.5,-2.4 -0.1,-9.1 2.9,-10.5 0.4,-0.2 0.7,-0.1 1,0.3 0.8,1.3 1.4,2.7 1.9,4.1 0.5,-1.5 0.8,-2.9 1.1,-3.6 0.2,-0.6 1.1,-0.4 0.9,0.3 -0.3,1.7 -0.7,3.4 -1.3,5.1 z m -3.3,-4.5 c -1.1,0.8 -1.9,2.2 -2.4,3.4 -0.4,1.1 -1.2,3.6 0.3,4.3 1.8,0.8 3.1,-0.6 4,-2.6 -0.5,-1.8 -1,-3.6 -1.9,-5.1 z"
   id="path1062" />
</g>
<g
   id="g1076"
   transform="translate(245.35552,-480.0509)">
	<path
   class="st33"
   d="m 291.3,550.9 c -0.6,-1.4 -1.6,-2.4 -2.7,-3.4 -0.5,-0.5 -1.1,-1.1 -1.5,-1.8 -0.8,1.4 -1.5,2.9 -1.6,4.5 0,0.7 -1,0.9 -1.3,0.2 -0.6,-1.6 -0.6,-3.3 -0.5,-5 0.2,-1.7 0.3,-3.5 0.9,-5 0.1,-0.3 0.5,-0.2 0.5,0.1 0.2,1.7 -0.3,3.3 -0.3,5 0,0.6 0,1.2 0,1.8 0.5,-1.2 1.2,-2.4 1.9,-3.4 1.2,-1.7 3.2,-3.9 5.6,-3.3 0.5,0.1 0.6,1 0,1.1 -2,0.3 -3.4,1.5 -4.5,3 0.8,1.1 1.7,1.8 2.7,2.7 1,0.9 1.9,2 1.8,3.4 0.1,0.4 -0.8,0.7 -1,0.1 z"
   id="path1066" />
	<path
   class="st33"
   d="m 298.7,550.9 c -2.2,0.5 -4.4,-1.5 -4.7,-3.6 -0.4,-2.4 0.2,-5.2 2.3,-6.6 0.4,-0.2 0.8,0.3 0.5,0.6 -1.6,1.4 -2.1,4.2 -1.3,6.1 0.4,1.1 2.3,2.7 3.3,1.4 0.8,-1.1 0.9,-2.9 1,-4.2 0,-1.3 0,-2.5 0,-3.8 -0.1,-0.8 1.1,-0.9 1.4,-0.2 0.6,1.9 0.5,4 0.2,5.9 -0.3,1.6 -0.9,4 -2.7,4.4 z m 0.4,-12.6 c -0.4,0.6 -1.4,0 -1,-0.6 0.6,-0.9 1.2,-1.8 2.1,-2.3 0.5,-0.3 1.2,0.4 0.7,0.8 -0.7,0.7 -1.3,1.3 -1.8,2.1 z"
   id="path1068" />
	<path
   class="st33"
   d="m 304.7,551 c 0.1,1.2 0.1,2.4 0.2,3.5 0,0.8 -1.1,0.7 -1.2,0 -0.4,-4.3 -1.1,-8.7 -0.4,-13 0.3,-1.9 1,-5.8 3.5,-6.1 2.5,-0.3 3.7,3 3.1,5 -0.4,1.1 -1,2.2 -1.8,3.1 1.3,-0.2 2.4,0.1 2.8,1.4 0.9,3.6 -3.3,5.8 -6.2,6.1 z m 3.3,-14.2 c -1.1,-0.6 -1.7,0.2 -2.1,1.2 -1,2.3 -1.3,4.8 -1.4,7.3 0.4,-0.4 1,-0.8 1.7,-1.1 0.7,-0.6 2.4,-2.4 2.8,-3.6 0.4,-1.3 0.3,-3 -1,-3.8 z m -1.9,8.7 c -0.4,0.3 -0.8,0.6 -1.2,0.8 -0.1,0.1 -0.3,0.1 -0.4,0.1 0,1.2 0.1,2.3 0.1,3.4 2.2,-0.3 5.5,-1.6 5.2,-4.3 -0.2,-1.4 -2.3,-0.7 -3.7,0 z"
   id="path1070" />
	<path
   class="st33"
   d="m 312.4,548.8 c -0.5,-1.2 0,-3.1 0.9,-4.6 -0.3,-0.1 -0.6,-0.6 -0.4,-0.9 0.2,-0.5 0.5,-0.9 0.8,-1.3 1.6,-2.2 4.6,-2.7 6,-0.1 1.2,2.1 1.4,5.3 0,7.4 -1.6,2.4 -6.1,2.4 -7.3,-0.5 z m 5.7,-6.6 c -0.8,-0.9 -1.7,-0.6 -2.5,0.1 0.6,-0.1 1.2,0 1.8,0.5 0.4,0.3 -0.1,0.9 -0.5,0.6 -2,-1.4 -5.4,4.7 -1.9,5.9 1.9,0.6 3.5,0 4,-2 0.4,-1.6 0.2,-3.8 -0.9,-5.1 z"
   id="path1072" />
	<path
   class="st33"
   d="m 326.2,554 c -0.6,0 -1.1,-0.4 -0.8,-1 0.2,-0.7 1,-1 1.6,-1.4 0.2,-0.1 0.9,-0.5 0.6,-0.7 -0.3,-0.3 -0.8,-0.4 -1.2,-0.5 -1.9,-0.4 -4,-0.6 -4.6,-2.8 -1.1,-3.9 3.5,-8.5 7.4,-7.3 0.5,0.1 0.3,0.8 -0.2,0.7 -2.2,-0.4 -4.5,1.5 -5.4,3.4 -0.4,0.9 -0.7,2.1 -0.1,3 0.5,0.8 1.4,0.9 2.3,1.1 1.3,0.2 4,0.6 3.7,2.6 -0.1,1.3 -1.9,2.9 -3.3,2.9 z"
   id="path1074" />
</g>
</svg>
