<?xml version="1.0" encoding="UTF-8" standalone="no"?>
<!-- Created with Inkscape (http://www.inkscape.org/) -->

<svg
   width="32.472759mm"
   height="32.014793mm"
   viewBox="0 0 32.472759 32.014793"
   version="1.1"
   id="svg1007"
   xml:space="preserve"
   inkscape:version="1.2.2 (732a01da63, 2022-12-09)"
   sodipodi:docname="shapes_sel.svg"
   xmlns:inkscape="http://www.inkscape.org/namespaces/inkscape"
   xmlns:sodipodi="http://sodipodi.sourceforge.net/DTD/sodipodi-0.dtd"
   xmlns="http://www.w3.org/2000/svg"
   xmlns:svg="http://www.w3.org/2000/svg"><sodipodi:namedview
     id="namedview1009"
     pagecolor="#ffffff"
     bordercolor="#000000"
     borderopacity="0.25"
     inkscape:showpageshadow="2"
     inkscape:pageopacity="0.0"
     inkscape:pagecheckerboard="0"
     inkscape:deskcolor="#d1d1d1"
     inkscape:document-units="mm"
     showgrid="false"
     inkscape:zoom="0.46769781"
     inkscape:cx="-236.26367"
     inkscape:cy="290.78605"
     inkscape:window-width="1366"
     inkscape:window-height="705"
     inkscape:window-x="-8"
     inkscape:window-y="-8"
     inkscape:window-maximized="1"
     inkscape:current-layer="layer1" /><defs
     id="defs1004" /><g
     inkscape:label="Στρώση 1"
     inkscape:groupmode="layer"
     id="layer1"
     transform="translate(-76.3192,-72.029181)"><g
       id="g310"
       transform="matrix(0.21385968,0,0,0.21385968,76.3192,87.961727)">
	<g
   id="g308">
		<g
   id="use306">
			<g
   id="Symbol_4_0_Layer0_0_FILL_00000000906882677077555790000000169692701777610887_">
				<path
   id="path2_00000094603148103254449210000014539227364966097025_"
   class="st0"
   d="m 151.7,-74.4 c -0.1,-0.1 -0.2,-0.1 -0.4,-0.1 H 0.5 c -0.1,0 -0.3,0.1 -0.3,0.1 C 0,-74.3 0,-74.2 0,-74 V 74.8 c 0,0.1 0.1,0.3 0.1,0.3 0.1,0.1 0.2,0.1 0.3,0.1 h 150.9 c 0.1,0 0.3,-0.1 0.4,-0.1 0.1,-0.1 0.1,-0.2 0.1,-0.3 V -74 c 0.1,-0.2 0,-0.3 -0.1,-0.4 M 1,-73.5 H 150.9 V 74.3 H 1 Z" />
				<path
   id="path4_00000170978683821772900030000018129760501434531492_"
   class="st1"
   d="M 150.9,-73.5 H 1 V 74.3 H 150.9 V -73.5 m -0.8,0.5 v 0.2 l 0.2,-0.2 V 73.6 H 2 1.7 V -73 Z" />
				<path
   id="path6_00000142889099871844211610000009140065669991359380_"
   class="st2"
   d="m 143.7,-66.3 6.4,-6.5 V -73 H 1.7 V 73.6 H 2 L 8.5,67.2 V -66.3 Z" />
				<path
   id="path8_00000125571108785446957890000007152395196143955600_"
   class="st3"
   d="m 143.7,-66.3 v 0 L 143.6,66.9 H 8.8 L 8.5,67.2 2,73.6 H 150.3 V -73 l -0.2,0.2 z" />
				<path
   id="path10_00000059997406298275621050000013268618618494690964_"
   class="st4"
   d="m 143.6,-66.2 v 0 L 8.5,-66.3 V 67.2 L 8.8,66.9 H 143.5 V -66.2 Z" />
			</g>
		</g>
	</g>
</g><g
       id="g30162"
       transform="matrix(0.26458333,0,0,0.26458333,43.94743,71.716307)">
	<g
   id="g30152">
		<g
   id="g400"
   transform="matrix(0.48680115,0.3249054,-0.3249054,0.48680115,115.15,-86.5)">
			<g
   id="use398">
				<g
   id="Symbol_11_0_Layer0_55_FILL">
					<path
   id="path70"
   class="st8"
   d="m 246.3,66.2 -61.2,106 61.2,35.4 z" />
				</g>
			</g>
		</g>
		<g
   id="g404"
   transform="matrix(0.48680115,0.3249054,-0.3249054,0.48680115,115.15,-86.5)">
			<g
   id="use402">
				<g
   id="Symbol_11_0_Layer0_56_FILL">
					<path
   id="path73"
   class="st9"
   d="M 307.5,172.2 246.4,66.2 V 207.6 Z" />
				</g>
			</g>
		</g>
		<g
   id="g408"
   transform="matrix(0.48680115,0.3249054,-0.3249054,0.48680115,115.15,-86.5)">
			<g
   id="use406">
				<g
   id="Symbol_11_0_Layer0_57_FILL">
					<path
   id="path76"
   class="st10"
   d="m 246.3,136.8 -61.2,35.3 61.2,35.4 61.2,-35.3 z" />
				</g>
			</g>
		</g>
	</g>
	<g
   id="g30160">
		<polygon
   class="st11"
   points="213.6,25.7 149.3,57.5 167.6,94.5 208.9,97.2 "
   id="polygon30154" />
		<polyline
   class="st11"
   points="213.6,25.7 190.6,60.1 149.3,57.5   "
   id="polyline30156" />
		<line
   class="st11"
   x1="208.89999"
   y1="97.199997"
   x2="190.60001"
   y2="60.099998"
   id="line30158" />
	</g>
</g></g><style
     type="text/css"
     id="style29798">
	.st0{fill:#444444;}
	.st1{fill:#F8E8CE;}
	.st2{fill:#FFFFFF;}
	.st3{fill:#AAAAAA;}
	.st4{fill:#E5E5E5;}
	.st5{fill:#FF5B71;stroke:#D12442;stroke-miterlimit:10;}
	.st6{fill:#D389BD;}
	.st7{fill:none;stroke:#BA65A4;stroke-miterlimit:10;}
	.st8{fill:#FDDD3A;}
	.st9{fill:#FFF235;}
	.st10{fill:#F6CA14;}
	.st11{fill:none;stroke:#D1A900;stroke-miterlimit:10;}
	.st12{fill:#1CADE3;}
	.st13{fill:#0099DC;}
	.st14{fill:none;stroke:#0485B2;stroke-miterlimit:10;}
	.st15{fill:none;}
	.st16{fill:#EE5A9C;}
	.st17{fill:#E43C90;}
	.st18{fill:#EF6EA8;}
	.st19{fill:none;stroke:#BC1E74;stroke-miterlimit:10;}
	.st20{fill:#FF9100;}
	.st21{fill:none;stroke:#D37402;stroke-miterlimit:10;}
	.st22{fill:#00F988;}
	.st23{fill:none;stroke:#09AA5D;stroke-miterlimit:10;}
	.st24{fill:#A4E869;}
	.st25{fill:none;stroke:#7AB541;stroke-miterlimit:10;}
	.st26{fill:#0080FF;}
	.st27{fill:none;stroke:#005BA5;stroke-miterlimit:10;}
	.st28{fill:#E21000;}
	.st29{fill:none;stroke:#930700;stroke-miterlimit:10;}
	.st30{fill:#EADE00;}
	.st31{fill:none;stroke:#AFA200;stroke-miterlimit:10;}
</style></svg>
