<?xml version="1.0" encoding="UTF-8" standalone="no"?>
<!-- Generator: Adobe Illustrator 27.4.0, SVG Export Plug-In . SVG Version: 6.00 Build 0)  -->

<svg
   version="1.1"
   id="svg543"
   inkscape:version="1.2.2 (732a01da63, 2022-12-09)"
   sodipodi:docname="shapes.svg"
   x="0px"
   y="0px"
   viewBox="0 0 856.44745 481.81659"
   xml:space="preserve"
   width="856.44745"
   height="481.81659"
   xmlns:inkscape="http://www.inkscape.org/namespaces/inkscape"
   xmlns:sodipodi="http://sodipodi.sourceforge.net/DTD/sodipodi-0.dtd"
   xmlns="http://www.w3.org/2000/svg"
   xmlns:svg="http://www.w3.org/2000/svg"><defs
   id="defs480" />
<style
   type="text/css"
   id="style2">
	.st0{fill:#444444;}
	.st1{fill:#F8E8CE;}
	.st2{fill:#FFFFFF;}
	.st3{fill:#AAAAAA;}
	.st4{fill:#E5E5E5;}
	.st5{fill:#FF5B71;stroke:#D12442;stroke-miterlimit:10;}
	.st6{fill:#D389BD;}
	.st7{fill:none;stroke:#BA65A4;stroke-miterlimit:10;}
	.st8{fill:#FDDD3A;}
	.st9{fill:#FFF235;}
	.st10{fill:#F6CA14;}
	.st11{fill:none;stroke:#D1A900;stroke-miterlimit:10;}
	.st12{fill:#1CADE3;}
	.st13{fill:#0099DC;}
	.st14{fill:none;stroke:#0485B2;stroke-miterlimit:10;}
	.st15{fill:none;}
	.st16{fill:#EE5A9C;}
	.st17{fill:#E43C90;}
	.st18{fill:#EF6EA8;}
	.st19{fill:none;stroke:#BC1E74;stroke-miterlimit:10;}
	.st20{fill:#FF9100;}
	.st21{fill:none;stroke:#D37402;stroke-miterlimit:10;}
	.st22{fill:#00F988;}
	.st23{fill:none;stroke:#09AA5D;stroke-miterlimit:10;}
	.st24{fill:#A4E869;}
	.st25{fill:none;stroke:#7AB541;stroke-miterlimit:10;}
	.st26{fill:#0080FF;}
	.st27{fill:none;stroke:#005BA5;stroke-miterlimit:10;}
	.st28{fill:#E21000;}
	.st29{fill:none;stroke:#930700;stroke-miterlimit:10;}
	.st30{fill:#EADE00;}
	.st31{fill:none;stroke:#AFA200;stroke-miterlimit:10;}
</style>
<sodipodi:namedview
   bordercolor="#666666"
   borderopacity="1"
   gridtolerance="10"
   guidetolerance="10"
   id="namedview545"
   inkscape:current-layer="svg543"
   inkscape:cx="-105.86017"
   inkscape:cy="352.01695"
   inkscape:pageopacity="0"
   inkscape:pageshadow="2"
   inkscape:window-height="705"
   inkscape:window-maximized="1"
   inkscape:window-width="1366"
   inkscape:window-x="-8"
   inkscape:window-y="-8"
   inkscape:zoom="0.39202658"
   objecttolerance="10"
   pagecolor="#ffffff"
   showgrid="false"
   inkscape:showpageshadow="2"
   inkscape:pagecheckerboard="0"
   inkscape:deskcolor="#d1d1d1">
	</sodipodi:namedview>
<g
   id="g100"
   transform="matrix(0.80828857,0,0,0.80828857,0.32331543,61.567498)">
	<g
   id="g98">
		<g
   id="use96">
			<g
   id="Symbol_4_0_Layer0_0_FILL">
				<path
   id="path2"
   class="st0"
   d="m 151.2,-76 c -0.1,-0.1 -0.2,-0.1 -0.4,-0.1 H 0 c -0.1,0 -0.3,0.1 -0.3,0.1 -0.1,0.1 -0.1,0.2 -0.1,0.4 V 75.2 c 0,0.1 0.1,0.3 0.1,0.4 0.1,0.1 0.2,0.1 0.3,0.1 h 150.9 c 0.1,0 0.3,-0.1 0.4,-0.1 0.1,-0.1 0.1,-0.2 0.1,-0.4 V -75.7 c 0,-0.1 -0.1,-0.2 -0.2,-0.3 M 0.5,-75.2 H 150.4 V 74.7 H 0.5 Z" />
				<path
   id="path4"
   class="st1"
   d="M 150.4,-75.2 H 0.5 V 74.7 H 150.4 V -75.2 m -0.8,0.6 v 0.2 l 0.2,-0.2 V 74 H 1.5 1.2 V -74.6 Z" />
				<path
   id="path6"
   class="st2"
   d="m 143.2,-67.9 6.4,-6.5 v -0.2 H 1.2 V 74 H 1.4 L 8,67.5 V -67.9 Z" />
				<path
   id="path8"
   class="st3"
   d="m 143.2,-67.9 v 0 L 143.1,67.2 H 8.3 L 8,67.5 1.5,74 H 149.8 V -74.6 l -0.2,0.2 z" />
				<path
   id="path10"
   class="st4"
   d="m 143.1,-67.8 v 0 L 8,-67.9 V 67.5 L 8.3,67.2 H 143 v -135 z" />
			</g>
		</g>
	</g>
</g>
<g
   id="g106"
   transform="matrix(0.80828857,0,0,0.80828857,728.87332,419.3675)">
	<g
   id="g104">
		<g
   id="use102">
			<g
   id="Symbol_4_0_Layer0_0_FILL_00000057856617367565944020000006972131852511088547_">
				<path
   id="path2_00000024004149143150599540000007527483977003721096_"
   class="st0"
   d="m 157.7,-75.8 c -0.1,-0.1 -0.2,-0.1 -0.4,-0.1 H 6.4 c -0.1,0 -0.3,0.1 -0.3,0.1 C 6,-75.7 6,-75.6 6,-75.4 V 75.4 c 0,0.1 0.1,0.3 0.1,0.4 0.1,0.1 0.2,0.1 0.3,0.1 h 150.9 c 0.1,0 0.3,-0.1 0.4,-0.1 0.1,-0.1 0.1,-0.2 0.1,-0.4 V -75.4 c 0,-0.2 0,-0.3 -0.1,-0.4 M 6.9,-74.9 H 156.8 V 74.9 H 6.9 Z" />
				<path
   id="path4_00000054974703845682232700000004367232116412736689_"
   class="st1"
   d="M 156.8,-74.9 H 6.9 V 74.9 H 156.8 V -74.9 m -0.7,0.5 v 0.2 l 0.2,-0.2 V 74.2 H 7.9 7.7 V -74.4 Z" />
				<path
   id="path6_00000048479097119265090530000013270581327287037605_"
   class="st2"
   d="m 149.6,-67.6 6.4,-6.5 v -0.2 H 7.7 V 74.2 h 0.2 l 6.5,-6.4 V -67.6 Z" />
				<path
   id="path8_00000153687430753875686090000016452881103048786836_"
   class="st3"
   d="m 149.6,-67.6 v 0 L 149.5,67.5 H 14.8 l -0.4,0.3 -6.5,6.4 H 156.2 V -74.4 l -0.2,0.2 z" />
				<path
   id="path10_00000134938418709115646240000000747861923546826646_"
   class="st4"
   d="m 149.5,-67.5 v 0 L 14.4,-67.6 V 67.7 l 0.4,-0.3 h 134.7 z" />
			</g>
		</g>
	</g>
</g>
<g
   id="g112"
   transform="matrix(0.80828857,0,0,0.80828857,245.22332,61.567498)">
	<g
   id="g110">
		<g
   id="use108">
			<g
   id="Symbol_4_0_Layer0_0_FILL_00000041284311209527837320000008059889795685489048_">
				<path
   id="path2_00000155108935303216007840000009395691468609637536_"
   class="st0"
   d="m 151.2,-76 c -0.1,-0.1 -0.2,-0.1 -0.4,-0.1 H 0 c -0.1,0 -0.3,0.1 -0.3,0.1 -0.1,0.1 -0.1,0.2 -0.1,0.4 V 75.2 c 0,0.1 0.1,0.3 0.1,0.4 0.1,0.1 0.2,0.1 0.3,0.1 h 150.9 c 0.1,0 0.3,-0.1 0.4,-0.1 0.1,-0.1 0.1,-0.2 0.1,-0.4 V -75.7 c 0,-0.1 -0.1,-0.2 -0.2,-0.3 M 0.5,-75.2 H 150.4 V 74.7 H 0.5 Z" />
				<path
   id="path4_00000015347109854312592910000005403258354177462448_"
   class="st1"
   d="M 150.4,-75.2 H 0.5 V 74.7 H 150.4 V -75.2 m -0.8,0.6 v 0.2 l 0.2,-0.2 V 74 H 1.5 1.2 V -74.6 Z" />
				<path
   id="path6_00000157997516171477126120000010360631310375759794_"
   class="st2"
   d="m 143.2,-67.9 6.4,-6.5 v -0.2 H 1.2 V 74 H 1.4 L 8,67.5 V -67.9 Z" />
				<path
   id="path8_00000036249121193093756160000006399212360395048884_"
   class="st3"
   d="m 143.2,-67.9 v 0 L 143.1,67.2 H 8.3 L 8,67.5 1.5,74 H 149.8 V -74.6 l -0.2,0.2 z" />
				<path
   id="path10_00000176021503273690717610000013989761639343461296_"
   class="st4"
   d="m 143.1,-67.8 v 0 L 8,-67.9 V 67.5 L 8.3,67.2 H 143 v -135 z" />
			</g>
		</g>
	</g>
</g>
<g
   id="g118"
   transform="matrix(0.80828857,0,0,0.80828857,367.67332,61.567498)">
	<g
   id="g116">
		<g
   id="use114">
			<g
   id="Symbol_4_0_Layer0_0_FILL_00000167395658768129741350000003842712895238764932_">
				<path
   id="path2_00000042010490735679254520000002200077004639188122_"
   class="st0"
   d="m 151.2,-76 c -0.1,-0.1 -0.2,-0.1 -0.4,-0.1 H 0 c -0.1,0 -0.3,0.1 -0.3,0.1 -0.1,0.1 -0.1,0.2 -0.1,0.4 V 75.2 c 0,0.1 0.1,0.3 0.1,0.4 0.1,0.1 0.2,0.1 0.3,0.1 h 150.9 c 0.1,0 0.3,-0.1 0.4,-0.1 0.1,-0.1 0.1,-0.2 0.1,-0.4 V -75.7 c 0,-0.1 -0.1,-0.2 -0.2,-0.3 M 0.5,-75.2 H 150.4 V 74.7 H 0.5 Z" />
				<path
   id="path4_00000003106666698228172490000006721997179963678879_"
   class="st1"
   d="M 150.4,-75.2 H 0.5 V 74.7 H 150.4 V -75.2 m -0.8,0.6 v 0.2 l 0.2,-0.2 V 74 H 1.5 1.2 V -74.6 Z" />
				<path
   id="path6_00000022519364463937133560000016206082409796882604_"
   class="st2"
   d="m 143.2,-67.9 6.4,-6.5 v -0.2 H 1.2 V 74 H 1.4 L 8,67.5 V -67.9 Z" />
				<path
   id="path8_00000145029021083507723540000006925270994396109468_"
   class="st3"
   d="m 143.2,-67.9 v 0 L 143.1,67.2 H 8.3 L 8,67.5 1.5,74 H 149.8 V -74.6 l -0.2,0.2 z" />
				<path
   id="path10_00000047777791217049611700000009134504407946484126_"
   class="st4"
   d="m 143.1,-67.8 v 0 L 8,-67.9 V 67.5 L 8.3,67.2 H 143 v -135 z" />
			</g>
		</g>
	</g>
</g>
<g
   id="g124"
   transform="matrix(0.80828857,0,0,0.80828857,490.12332,61.567498)">
	<g
   id="g122">
		<g
   id="use120">
			<g
   id="Symbol_4_0_Layer0_0_FILL_00000060718874202409458760000012851487041570271387_">
				<path
   id="path2_00000183931077455208167610000017228650999048755593_"
   class="st0"
   d="m 151.2,-76 c -0.1,-0.1 -0.2,-0.1 -0.4,-0.1 H 0 c -0.1,0 -0.3,0.1 -0.3,0.1 -0.1,0.1 -0.1,0.2 -0.1,0.4 V 75.2 c 0,0.1 0.1,0.3 0.1,0.4 0.1,0.1 0.2,0.1 0.3,0.1 h 150.9 c 0.1,0 0.3,-0.1 0.4,-0.1 0.1,-0.1 0.1,-0.2 0.1,-0.4 V -75.7 c 0,-0.1 -0.1,-0.2 -0.2,-0.3 M 0.5,-75.2 H 150.4 V 74.7 H 0.5 Z" />
				<path
   id="path4_00000182523135411332471050000007666885396670035862_"
   class="st1"
   d="M 150.4,-75.2 H 0.5 V 74.7 H 150.4 V -75.2 m -0.8,0.6 v 0.2 l 0.2,-0.2 V 74 H 1.5 1.2 V -74.6 Z" />
				<path
   id="path6_00000169516036661798399500000014961519093579055036_"
   class="st2"
   d="m 143.2,-67.9 6.4,-6.5 v -0.2 H 1.2 V 74 H 1.4 L 8,67.5 V -67.9 Z" />
				<path
   id="path8_00000001665662037508111850000011031744532500242863_"
   class="st3"
   d="m 143.2,-67.9 v 0 L 143.1,67.2 H 8.3 L 8,67.5 1.5,74 H 149.8 V -74.6 l -0.2,0.2 z" />
				<path
   id="path10_00000024700687145594495970000009638486501810725534_"
   class="st4"
   d="m 143.1,-67.8 v 0 L 8,-67.9 V 67.5 l 0.4,-0.3 h 134.7 z" />
			</g>
		</g>
	</g>
</g>
<g
   id="g130"
   transform="matrix(0.80828857,0,0,0.80828857,612.57332,61.567498)">
	<g
   id="g128">
		<g
   id="use126">
			<g
   id="Symbol_4_0_Layer0_0_FILL_00000003811045814102726980000010203010938762674367_">
				<path
   id="path2_00000111890607537781829590000001353001895528908961_"
   class="st0"
   d="m 151.2,-76 c -0.1,-0.1 -0.2,-0.1 -0.4,-0.1 H 0 c -0.1,0 -0.3,0.1 -0.3,0.1 -0.1,0.1 -0.1,0.2 -0.1,0.4 V 75.2 c 0,0.1 0.1,0.3 0.1,0.4 0.1,0.1 0.2,0.1 0.3,0.1 h 150.9 c 0.1,0 0.3,-0.1 0.4,-0.1 0.1,-0.1 0.1,-0.2 0.1,-0.4 V -75.7 c 0,-0.1 -0.1,-0.2 -0.2,-0.3 M 0.5,-75.2 H 150.4 V 74.7 H 0.5 Z" />
				<path
   id="path4_00000056406234049904874240000013045944485960576663_"
   class="st1"
   d="M 150.4,-75.2 H 0.5 V 74.7 H 150.4 V -75.2 m -0.8,0.6 v 0.2 l 0.2,-0.2 V 74 H 1.5 1.2 V -74.6 Z" />
				<path
   id="path6_00000161608843497017924190000007142883374151338919_"
   class="st2"
   d="m 143.2,-67.9 6.4,-6.5 v -0.2 H 1.2 V 74 H 1.4 L 8,67.5 V -67.9 Z" />
				<path
   id="path8_00000150070345939787929130000005586749309766291625_"
   class="st3"
   d="m 143.2,-67.9 v 0 L 143.1,67.2 H 8.3 L 8,67.5 1.5,74 H 149.8 V -74.6 l -0.2,0.2 z" />
				<path
   id="path10_00000152252852442381324580000012666466921934896539_"
   class="st4"
   d="m 143.1,-67.8 v 0 L 8,-67.9 V 67.5 l 0.4,-0.3 h 134.7 z" />
			</g>
		</g>
	</g>
</g>
<g
   id="g136"
   transform="matrix(0.80828857,0,0,0.80828857,735.12332,61.567498)">
	<g
   id="g134">
		<g
   id="use132">
			<g
   id="Symbol_4_0_Layer0_0_FILL_00000091017035848212406670000014345063686291619502_">
				<path
   id="path2_00000072993743194985466790000010583979596603331516_"
   class="st0"
   d="m 150,-76 c -0.1,-0.1 -0.2,-0.1 -0.4,-0.1 H -1.3 c -0.1,0 -0.3,0.1 -0.3,0.1 -0.1,0.1 -0.1,0.2 -0.1,0.4 V 75.2 c 0,0.1 0.1,0.3 0.1,0.4 0.1,0.1 0.2,0.1 0.3,0.1 h 150.9 c 0.1,0 0.3,-0.1 0.4,-0.1 0.1,-0.1 0.1,-0.2 0.1,-0.4 V -75.7 c 0,-0.1 0,-0.2 -0.1,-0.3 M -0.8,-75.2 H 149.1 V 74.7 H -0.8 Z" />
				<path
   id="path4_00000055699972803546447230000012722936884186736830_"
   class="st1"
   d="M 149.1,-75.2 H -0.8 V 74.7 H 149.1 V -75.2 m -0.7,0.6 v 0.2 l 0.2,-0.2 V 74 H 0.2 0 V -74.6 Z" />
				<path
   id="path6_00000061450129643549349280000006611041753507255483_"
   class="st2"
   d="m 141.9,-67.9 6.4,-6.5 v -0.2 H 0 V 74 H 0.2 L 6.7,67.6 V -67.9 Z" />
				<path
   id="path8_00000058561351830711363160000013209939200969587359_"
   class="st3"
   d="m 141.9,-67.9 v 0 L 141.8,67.2 H 7.1 L 6.7,67.5 0.2,74 H 148.5 V -74.6 l -0.2,0.2 z" />
				<path
   id="path10_00000154397802831285786620000012698042020909465476_"
   class="st4"
   d="m 141.8,-67.8 v 0 L 6.7,-67.9 V 67.5 l 0.4,-0.3 h 134.7 z" />
			</g>
		</g>
	</g>
</g>
<g
   id="g142"
   transform="matrix(0.80828857,0,0,0.80828857,0.32331543,181.2175)">
	<g
   id="g140">
		<g
   id="use138">
			<g
   id="Symbol_4_0_Layer0_0_FILL_00000062170747477018209800000002527276927208526779_">
				<path
   id="path2_00000000209592974442518250000010463367002182371712_"
   class="st0"
   d="m 151.2,-75.8 c -0.1,-0.1 -0.2,-0.1 -0.4,-0.1 H 0 c -0.1,0 -0.3,0.1 -0.3,0.1 -0.1,0.1 -0.1,0.2 -0.1,0.4 V 75.4 c 0,0.1 0.1,0.3 0.1,0.4 0.1,0.1 0.2,0.1 0.3,0.1 h 150.9 c 0.1,0 0.3,-0.1 0.4,-0.1 0.1,-0.1 0.1,-0.2 0.1,-0.4 V -75.5 c 0,-0.1 -0.1,-0.2 -0.2,-0.3 M 0.5,-75 H 150.4 V 74.9 H 0.5 Z" />
				<path
   id="path4_00000111167897200759796450000011761640082765346480_"
   class="st1"
   d="M 150.4,-75 H 0.5 V 74.9 H 150.4 V -75 m -0.8,0.6 v 0.2 l 0.2,-0.2 V 74.2 H 1.5 1.2 V -74.4 Z" />
				<path
   id="path6_00000103961407567163123440000013763964828460691112_"
   class="st2"
   d="m 143.2,-67.7 6.4,-6.5 v -0.2 H 1.2 V 74.2 H 1.4 L 8,67.7 V -67.7 Z" />
				<path
   id="path8_00000173149725070394813510000009687076572293894278_"
   class="st3"
   d="m 143.2,-67.7 v 0 L 143.1,67.4 H 8.3 L 8,67.7 1.5,74.1 H 149.8 V -74.4 l -0.2,0.2 z" />
				<path
   id="path10_00000102529401508985403710000008088653573099773357_"
   class="st4"
   d="m 143.1,-67.6 v 0 L 8,-67.7 V 67.7 L 8.3,67.4 H 143 v -135 z" />
			</g>
		</g>
	</g>
</g>
<g
   id="g154"
   transform="matrix(0.80828857,0,0,0.80828857,245.22332,181.2175)">
	<g
   id="g152">
		<g
   id="use150">
			<g
   id="Symbol_4_0_Layer0_0_FILL_00000017488679195934062650000009659570928698336409_">
				<path
   id="path2_00000146459863597470641830000009439416191409941120_"
   class="st0"
   d="m 151.2,-75.8 c -0.1,-0.1 -0.2,-0.1 -0.4,-0.1 H 0 c -0.1,0 -0.3,0.1 -0.3,0.1 -0.1,0.1 -0.1,0.2 -0.1,0.4 V 75.4 c 0,0.1 0.1,0.3 0.1,0.4 0.1,0.1 0.2,0.1 0.3,0.1 h 150.9 c 0.1,0 0.3,-0.1 0.4,-0.1 0.1,-0.1 0.1,-0.2 0.1,-0.4 V -75.5 c 0,-0.1 -0.1,-0.2 -0.2,-0.3 M 0.5,-75 H 150.4 V 74.9 H 0.5 Z" />
				<path
   id="path4_00000026866958475516022370000000020738918433504908_"
   class="st1"
   d="M 150.4,-75 H 0.5 V 74.9 H 150.4 V -75 m -0.8,0.6 v 0.2 l 0.2,-0.2 V 74.2 H 1.5 1.2 V -74.4 Z" />
				<path
   id="path6_00000158017089806823539740000012288919036979721893_"
   class="st2"
   d="m 143.2,-67.7 6.4,-6.5 v -0.2 H 1.2 V 74.2 H 1.4 L 8,67.7 V -67.7 Z" />
				<path
   id="path8_00000026866943304865955490000012895560907734951044_"
   class="st3"
   d="m 143.2,-67.7 v 0 L 143.1,67.4 H 8.3 L 8,67.7 1.5,74.1 H 149.8 V -74.4 l -0.2,0.2 z" />
				<path
   id="path10_00000039118881252824875450000018344616573389853330_"
   class="st4"
   d="m 143.1,-67.6 v 0 L 8,-67.7 V 67.7 L 8.3,67.4 H 143 v -135 z" />
			</g>
		</g>
	</g>
</g>
<g
   id="g160"
   transform="matrix(0.80828857,0,0,0.80828857,367.67332,181.2175)">
	<g
   id="g158">
		<g
   id="use156">
			<g
   id="Symbol_4_0_Layer0_0_FILL_00000078755145510030100570000010173634966654743987_">
				<path
   id="path2_00000111185043719099079840000017375565389773749642_"
   class="st0"
   d="m 151.2,-75.8 c -0.1,-0.1 -0.2,-0.1 -0.4,-0.1 H 0 c -0.1,0 -0.3,0.1 -0.3,0.1 -0.1,0.1 -0.1,0.2 -0.1,0.4 V 75.4 c 0,0.1 0.1,0.3 0.1,0.4 0.1,0.1 0.2,0.1 0.3,0.1 h 150.9 c 0.1,0 0.3,-0.1 0.4,-0.1 0.1,-0.1 0.1,-0.2 0.1,-0.4 V -75.5 c 0,-0.1 -0.1,-0.2 -0.2,-0.3 M 0.5,-75 H 150.4 V 74.9 H 0.5 Z" />
				<path
   id="path4_00000030473317724129259180000003227667644077662641_"
   class="st1"
   d="M 150.4,-75 H 0.5 V 74.9 H 150.4 V -75 m -0.8,0.6 v 0.2 l 0.2,-0.2 V 74.2 H 1.5 1.2 V -74.4 Z" />
				<path
   id="path6_00000029757789466747643810000013650173063508748688_"
   class="st2"
   d="m 143.2,-67.7 6.4,-6.5 v -0.2 H 1.2 V 74.2 H 1.4 L 8,67.7 V -67.7 Z" />
				<path
   id="path8_00000174601280969872920320000009263182456056537984_"
   class="st3"
   d="m 143.2,-67.7 v 0 L 143.1,67.4 H 8.3 L 8,67.7 1.5,74.1 H 149.8 V -74.4 l -0.2,0.2 z" />
				<path
   id="path10_00000172417310576537766280000012639880159394053290_"
   class="st4"
   d="m 143.1,-67.6 v 0 L 8,-67.7 V 67.7 L 8.3,67.4 H 143 v -135 z" />
			</g>
		</g>
	</g>
</g>
<g
   id="g166"
   transform="matrix(0.80828857,0,0,0.80828857,490.12332,181.2175)">
	<g
   id="g164">
		<g
   id="use162">
			<g
   id="Symbol_4_0_Layer0_0_FILL_00000024707311206431413960000008060899986521116292_">
				<path
   id="path2_00000069380103871089443450000017988368857506093208_"
   class="st0"
   d="m 151.2,-75.8 c -0.1,-0.1 -0.2,-0.1 -0.4,-0.1 H 0 c -0.1,0 -0.3,0.1 -0.3,0.1 -0.1,0.1 -0.1,0.2 -0.1,0.4 V 75.4 c 0,0.1 0.1,0.3 0.1,0.4 0.1,0.1 0.2,0.1 0.3,0.1 h 150.9 c 0.1,0 0.3,-0.1 0.4,-0.1 0.1,-0.1 0.1,-0.2 0.1,-0.4 V -75.5 c 0,-0.1 -0.1,-0.2 -0.2,-0.3 M 0.5,-75 H 150.4 V 74.9 H 0.5 Z" />
				<path
   id="path4_00000008106495094226170510000015754463775499544497_"
   class="st1"
   d="M 150.4,-75 H 0.5 V 74.9 H 150.4 V -75 m -0.8,0.6 v 0.2 l 0.2,-0.2 V 74.2 H 1.5 1.2 V -74.4 Z" />
				<path
   id="path6_00000036236036935696876180000018161778294271511955_"
   class="st2"
   d="m 143.2,-67.7 6.4,-6.5 v -0.2 H 1.2 V 74.2 H 1.4 L 8,67.7 V -67.7 Z" />
				<path
   id="path8_00000181786656457589936310000014505996450723418503_"
   class="st3"
   d="m 143.2,-67.7 v 0 L 143.1,67.4 H 8.3 L 8,67.7 1.5,74.1 H 149.8 V -74.4 l -0.2,0.2 z" />
				<path
   id="path10_00000096763707700810175890000005016336437352907164_"
   class="st4"
   d="m 143.1,-67.6 v 0 L 8,-67.7 V 67.7 l 0.4,-0.3 h 134.7 z" />
			</g>
		</g>
	</g>
</g>
<g
   id="g148"
   transform="matrix(0.80828857,0,0,0.80828857,122.77332,181.2175)">
	<g
   id="g146">
		<g
   id="use144">
			<g
   id="Symbol_4_0_Layer0_0_FILL_00000033363552309600447430000017556475254216275622_">
				<path
   id="path2_00000058564793044152101480000001378862769272277172_"
   class="st0"
   d="M 151.1,-75.9 C 151,-76 150.9,-76 150.7,-76.1 H -0.1 c -0.1,0 -0.3,0.1 -0.3,0.2 -0.1,0.1 -0.1,0.2 -0.1,0.4 v 151 c 0,0.1 0.1,0.3 0.1,0.4 0,0.1 0.1,0.1 0.3,0.1 h 150.9 c 0.1,0 0.3,-0.1 0.4,-0.2 0.1,-0.1 0.1,-0.2 0.1,-0.4 v -151 c 0,-0.1 -0.1,-0.2 -0.2,-0.3 M 0.4,-75.1 H 150.3 V 75 H 0.4 Z" />
				<path
   id="path4_00000058585913906331310760000001114299357940534933_"
   class="st1"
   d="M 150.3,-75.1 H 0.4 V 75 H 150.3 V -75.1 m -0.8,0.6 v 0.2 l 0.2,-0.2 V 74.3 H 1.4 1.1 V -74.5 Z" />
				<path
   id="path6_00000098938623980545254090000009415952286167862679_"
   class="st2"
   d="m 143.1,-67.7 6.4,-6.6 v -0.2 H 1.1 V 74.3 H 1.3 L 7.8,67.8 V -67.7 Z" />
				<path
   id="path8_00000077326211783924193940000012935128060371397047_"
   class="st3"
   d="m 143.1,-67.7 -0.1,0.1 V 67.5 H 8.2 L 7.9,67.8 1.4,74.3 H 149.7 V -74.5 l -0.2,0.2 z" />
				<path
   id="path10_00000149382099678950156040000004061500477030073234_"
   class="st4"
   d="m 143,-67.6 0.1,-0.1 H 7.9 V 67.8 L 8.2,67.5 H 143 Z" />
			</g>
		</g>
	</g>
</g>
<g
   id="g172"
   transform="matrix(0.80828857,0,0,0.80828857,612.57332,181.2175)">
	<g
   id="g170">
		<g
   id="use168">
			<g
   id="Symbol_4_0_Layer0_0_FILL_00000119807508041754990940000014847469003942912409_">
				<path
   id="path2_00000078728286230637113320000008709132304190666398_"
   class="st0"
   d="m 151.2,-75.8 c -0.1,-0.1 -0.2,-0.1 -0.4,-0.1 H 0 c -0.1,0 -0.3,0.1 -0.3,0.1 -0.1,0.1 -0.1,0.2 -0.1,0.4 V 75.4 c 0,0.1 0.1,0.3 0.1,0.4 0.1,0.1 0.2,0.1 0.3,0.1 h 150.9 c 0.1,0 0.3,-0.1 0.4,-0.1 0.1,-0.1 0.1,-0.2 0.1,-0.4 V -75.5 c 0,-0.1 -0.1,-0.2 -0.2,-0.3 M 0.5,-75 H 150.4 V 74.9 H 0.5 Z" />
				<path
   id="path4_00000101815569689806686930000018131885094844902032_"
   class="st1"
   d="M 150.4,-75 H 0.5 V 74.9 H 150.4 V -75 m -0.8,0.6 v 0.2 l 0.2,-0.2 V 74.2 H 1.5 1.2 V -74.4 Z" />
				<path
   id="path6_00000021117990851476599990000004709108357694463134_"
   class="st2"
   d="m 143.2,-67.7 6.4,-6.5 v -0.2 H 1.2 V 74.2 H 1.4 L 8,67.7 V -67.7 Z" />
				<path
   id="path8_00000023248538889175750580000002771749508534949297_"
   class="st3"
   d="m 143.2,-67.7 v 0 L 143.1,67.4 H 8.3 L 8,67.7 1.5,74.1 H 149.8 V -74.4 l -0.2,0.2 z" />
				<path
   id="path10_00000074413613661496314030000011966847728264372912_"
   class="st4"
   d="m 143.1,-67.6 v 0 L 8,-67.7 V 67.7 l 0.4,-0.3 h 134.7 z" />
			</g>
		</g>
	</g>
</g>
<g
   id="g178"
   transform="matrix(0.80828857,0,0,0.80828857,735.12332,181.2175)">
	<g
   id="g176">
		<g
   id="use174">
			<g
   id="Symbol_4_0_Layer0_0_FILL_00000025440143557055061070000007755473767476061111_">
				<path
   id="path2_00000089563856112063284460000016014926334299872946_"
   class="st0"
   d="m 150,-75.8 c -0.1,-0.1 -0.2,-0.1 -0.4,-0.1 H -1.3 c -0.1,0 -0.3,0.1 -0.3,0.1 -0.1,0.1 -0.1,0.2 -0.1,0.4 V 75.4 c 0,0.1 0.1,0.3 0.1,0.4 0.1,0.1 0.2,0.1 0.3,0.1 h 150.9 c 0.1,0 0.3,-0.1 0.4,-0.1 0.1,-0.1 0.1,-0.2 0.1,-0.4 V -75.4 c 0,-0.2 0,-0.3 -0.1,-0.4 M -0.8,-74.9 H 149.1 V 74.9 H -0.8 Z" />
				<path
   id="path4_00000102536156034228840390000002439320304375451040_"
   class="st1"
   d="M 149.1,-74.9 H -0.8 V 74.9 H 149.1 V -74.9 m -0.7,0.5 v 0.2 l 0.2,-0.2 V 74.2 H 0.2 0 V -74.4 Z" />
				<path
   id="path6_00000175305919553886309250000008393064082716938152_"
   class="st2"
   d="m 141.9,-67.6 6.4,-6.5 v -0.2 H 0 V 74.2 H 0.2 L 6.7,67.8 V -67.6 Z" />
				<path
   id="path8_00000153694245092182785800000013017949854318354564_"
   class="st3"
   d="m 141.9,-67.6 v 0 L 141.8,67.5 H 7.1 L 6.7,67.8 0.2,74.2 H 148.5 V -74.4 l -0.2,0.2 z" />
				<path
   id="path10_00000017492461212884835460000006727953520199175566_"
   class="st4"
   d="m 141.8,-67.5 v 0 L 6.7,-67.6 V 67.7 l 0.4,-0.3 h 134.7 z" />
			</g>
		</g>
	</g>
</g>
<g
   id="g184"
   transform="matrix(0.80828857,0,0,0.80828857,0.32331543,300.8175)">
	<g
   id="g182">
		<g
   id="use180">
			<g
   id="Symbol_4_0_Layer0_0_FILL_00000140711856823094285050000013953596219598861203_">
				<path
   id="path2_00000142858157422478081590000014871120901222127250_"
   class="st0"
   d="m 151.2,-75.8 c -0.1,-0.1 -0.2,-0.1 -0.4,-0.1 H 0 c -0.1,0 -0.3,0.1 -0.3,0.1 -0.1,0.1 -0.1,0.2 -0.1,0.4 V 75.4 c 0,0.1 0.1,0.3 0.1,0.4 0.1,0.1 0.2,0.1 0.3,0.1 h 150.9 c 0.1,0 0.3,-0.1 0.4,-0.1 0.1,-0.1 0.1,-0.2 0.1,-0.4 V -75.4 c 0,-0.2 -0.1,-0.3 -0.2,-0.4 M 0.5,-74.9 H 150.4 V 74.9 H 0.5 Z" />
				<path
   id="path4_00000034049822348791093820000010980567872012097705_"
   class="st1"
   d="M 150.4,-74.9 H 0.5 V 74.9 H 150.4 V -74.9 m -0.8,0.5 v 0.2 l 0.2,-0.2 V 74.2 H 1.5 1.2 V -74.4 Z" />
				<path
   id="path6_00000005975738898163892670000000094192166252343445_"
   class="st2"
   d="m 143.2,-67.6 6.4,-6.5 v -0.2 H 1.2 V 74.2 H 1.4 L 8,67.7 V -67.6 Z" />
				<path
   id="path8_00000026871959748440744960000008491877493286785436_"
   class="st3"
   d="m 143.2,-67.6 v 0 L 143.1,67.5 H 8.3 L 8,67.7 1.5,74.1 H 149.8 V -74.4 l -0.2,0.2 z" />
				<path
   id="path10_00000030470407633806021120000000617366304771491732_"
   class="st4"
   d="m 143.1,-67.5 v 0 L 8,-67.6 V 67.7 L 8.3,67.4 H 143 V -67.5 Z" />
			</g>
		</g>
	</g>
</g>
<g
   id="g190"
   transform="matrix(0.80828857,0,0,0.80828857,122.77332,300.8175)">
	<g
   id="g188">
		<g
   id="use186">
			<g
   id="Symbol_4_0_Layer0_0_FILL_00000168118519416731920450000006746176599741086624_">
				<path
   id="path2_00000054963599454882630800000001770535081808191148_"
   class="st0"
   d="m 151.1,-75.8 c -0.1,-0.1 -0.2,-0.1 -0.4,-0.1 H -0.1 c -0.1,0 -0.3,0.1 -0.3,0.1 -0.1,0.1 -0.1,0.2 -0.1,0.4 V 75.4 c 0,0.1 0.1,0.3 0.1,0.4 0.1,0.1 0.2,0.1 0.3,0.1 h 150.9 c 0.1,0 0.3,-0.1 0.4,-0.1 0.1,-0.1 0.1,-0.2 0.1,-0.4 V -75.4 c 0,-0.2 -0.1,-0.3 -0.2,-0.4 M 0.4,-74.9 H 150.3 V 74.9 H 0.4 Z" />
				<path
   id="path4_00000066495869530957017040000015506392911535888303_"
   class="st1"
   d="M 150.3,-74.9 H 0.4 V 74.9 H 150.3 V -74.9 m -0.8,0.5 v 0.2 l 0.2,-0.2 V 74.2 H 1.4 1.1 V -74.4 Z" />
				<path
   id="path6_00000017508343009326121090000018381320373674731699_"
   class="st2"
   d="m 143.1,-67.6 6.4,-6.5 v -0.2 H 1.1 V 74.2 H 1.3 L 7.8,67.8 V -67.6 Z" />
				<path
   id="path8_00000092451216826468738160000000726201697762667189_"
   class="st3"
   d="m 143.1,-67.6 v 0 L 143,67.4 H 8.2 L 7.9,67.7 1.4,74.1 H 149.7 V -74.4 l -0.2,0.2 z" />
				<path
   id="path10_00000170280106682261889770000009658011550063682959_"
   class="st4"
   d="m 143,-67.5 v 0 L 7.9,-67.6 V 67.7 L 8.2,67.4 H 143 Z" />
			</g>
		</g>
	</g>
</g>
<g
   id="g196"
   transform="matrix(0.80828857,0,0,0.80828857,245.22332,300.8175)">
	<g
   id="g194">
		<g
   id="use192">
			<g
   id="Symbol_4_0_Layer0_0_FILL_00000034089343528881507960000016707996159042167228_">
				<path
   id="path2_00000068673903481941523780000007232502475358004132_"
   class="st0"
   d="m 151.2,-75.8 c -0.1,-0.1 -0.2,-0.1 -0.4,-0.1 H 0 c -0.1,0 -0.3,0.1 -0.3,0.1 -0.1,0.1 -0.1,0.2 -0.1,0.4 V 75.4 c 0,0.1 0.1,0.3 0.1,0.4 0.1,0.1 0.2,0.1 0.3,0.1 h 150.9 c 0.1,0 0.3,-0.1 0.4,-0.1 0.1,-0.1 0.1,-0.2 0.1,-0.4 V -75.4 c 0,-0.2 -0.1,-0.3 -0.2,-0.4 M 0.5,-74.9 H 150.4 V 74.9 H 0.5 Z" />
				<path
   id="path4_00000183216263279024222770000001361758064845223855_"
   class="st1"
   d="M 150.4,-74.9 H 0.5 V 74.9 H 150.4 V -74.9 m -0.8,0.5 v 0.2 l 0.2,-0.2 V 74.2 H 1.5 1.2 V -74.4 Z" />
				<path
   id="path6_00000066502249678284850750000004306917295981801610_"
   class="st2"
   d="m 143.2,-67.6 6.4,-6.5 v -0.2 H 1.2 V 74.2 H 1.4 L 8,67.7 V -67.6 Z" />
				<path
   id="path8_00000051349698610727253910000016684851669806800273_"
   class="st3"
   d="m 143.2,-67.6 v 0 L 143.1,67.5 H 8.3 L 8,67.7 1.5,74.1 H 149.8 V -74.4 l -0.2,0.2 z" />
				<path
   id="path10_00000047061924320312984500000008394199800180631170_"
   class="st4"
   d="m 143.1,-67.5 v 0 L 8,-67.6 V 67.7 L 8.3,67.4 H 143 V -67.5 Z" />
			</g>
		</g>
	</g>
</g>
<g
   id="g202"
   transform="matrix(0.80828857,0,0,0.80828857,367.67332,300.8175)">
	<g
   id="g200">
		<g
   id="use198">
			<g
   id="Symbol_4_0_Layer0_0_FILL_00000133503239864127640250000011250163920443120808_">
				<path
   id="path2_00000124154712822414452450000008538036914902318216_"
   class="st0"
   d="m 151.2,-75.8 c -0.1,-0.1 -0.2,-0.1 -0.4,-0.1 H 0 c -0.1,0 -0.3,0.1 -0.3,0.1 -0.1,0.1 -0.1,0.2 -0.1,0.4 V 75.4 c 0,0.1 0.1,0.3 0.1,0.4 0.1,0.1 0.2,0.1 0.3,0.1 h 150.9 c 0.1,0 0.3,-0.1 0.4,-0.1 0.1,-0.1 0.1,-0.2 0.1,-0.4 V -75.4 c 0,-0.2 -0.1,-0.3 -0.2,-0.4 M 0.5,-74.9 H 150.4 V 74.9 H 0.5 Z" />
				<path
   id="path4_00000132069887730392947830000006575668080426835355_"
   class="st1"
   d="M 150.4,-74.9 H 0.5 V 74.9 H 150.4 V -74.9 m -0.8,0.5 v 0.2 l 0.2,-0.2 V 74.2 H 1.5 1.2 V -74.4 Z" />
				<path
   id="path6_00000071534364550132265750000004975994454730426785_"
   class="st2"
   d="m 143.2,-67.6 6.4,-6.5 v -0.2 H 1.2 V 74.2 H 1.4 L 8,67.7 V -67.6 Z" />
				<path
   id="path8_00000061430185181603523010000013039290469823301022_"
   class="st3"
   d="m 143.2,-67.6 v 0 L 143.1,67.5 H 8.3 L 8,67.7 1.5,74.1 H 149.8 V -74.4 l -0.2,0.2 z" />
				<path
   id="path10_00000013162491137018077680000013193890061353456268_"
   class="st4"
   d="m 143.1,-67.5 v 0 L 8,-67.6 V 67.7 L 8.3,67.4 H 143 V -67.5 Z" />
			</g>
		</g>
	</g>
</g>
<g
   id="g208"
   transform="matrix(0.80828857,0,0,0.80828857,490.12332,300.8175)">
	<g
   id="g206">
		<g
   id="use204">
			<g
   id="Symbol_4_0_Layer0_0_FILL_00000160177816290408472680000000439426008075200952_">
				<path
   id="path2_00000072270546006141667110000002324338484441207688_"
   class="st0"
   d="m 151.2,-75.8 c -0.1,-0.1 -0.2,-0.1 -0.4,-0.1 H 0 c -0.1,0 -0.3,0.1 -0.3,0.1 -0.1,0.1 -0.1,0.2 -0.1,0.4 V 75.4 c 0,0.1 0.1,0.3 0.1,0.4 0.1,0.1 0.2,0.1 0.3,0.1 h 150.9 c 0.1,0 0.3,-0.1 0.4,-0.1 0.1,-0.1 0.1,-0.2 0.1,-0.4 V -75.4 c 0,-0.2 -0.1,-0.3 -0.2,-0.4 M 0.5,-74.9 H 150.4 V 74.9 H 0.5 Z" />
				<path
   id="path4_00000085221534252272745910000001023283114645741492_"
   class="st1"
   d="M 150.4,-74.9 H 0.5 V 74.9 H 150.4 V -74.9 m -0.8,0.5 v 0.2 l 0.2,-0.2 V 74.2 H 1.5 1.2 V -74.4 Z" />
				<path
   id="path6_00000031926952065245368180000006709736285001348030_"
   class="st2"
   d="m 143.2,-67.6 6.4,-6.5 v -0.2 H 1.2 V 74.2 H 1.4 L 8,67.7 V -67.6 Z" />
				<path
   id="path8_00000124844552374104592620000002099423773179169682_"
   class="st3"
   d="m 143.2,-67.6 v 0 L 143.1,67.5 H 8.3 L 8,67.7 1.5,74.1 H 149.8 V -74.4 l -0.2,0.2 z" />
				<path
   id="path10_00000072959872506455002510000015217409638139051933_"
   class="st4"
   d="m 143.1,-67.5 v 0 L 8,-67.6 V 67.7 l 0.4,-0.3 h 134.7 z" />
			</g>
		</g>
	</g>
</g>
<g
   id="g214"
   transform="matrix(0.80828857,0,0,0.80828857,612.57332,300.8175)">
	<g
   id="g212">
		<g
   id="use210">
			<g
   id="Symbol_4_0_Layer0_0_FILL_00000142868847218277860410000011288505960904820098_">
				<path
   id="path2_00000052797777442139639080000009149625877104494986_"
   class="st0"
   d="m 151.2,-75.8 c -0.1,-0.1 -0.2,-0.1 -0.4,-0.1 H 0 c -0.1,0 -0.3,0.1 -0.3,0.1 -0.1,0.1 -0.1,0.2 -0.1,0.4 V 75.4 c 0,0.1 0.1,0.3 0.1,0.4 0.1,0.1 0.2,0.1 0.3,0.1 h 150.9 c 0.1,0 0.3,-0.1 0.4,-0.1 0.1,-0.1 0.1,-0.2 0.1,-0.4 V -75.4 c 0,-0.2 -0.1,-0.3 -0.2,-0.4 M 0.5,-74.9 H 150.4 V 74.9 H 0.5 Z" />
				<path
   id="path4_00000158713056885321952630000000747903880597271428_"
   class="st1"
   d="M 150.4,-74.9 H 0.5 V 74.9 H 150.4 V -74.9 m -0.8,0.5 v 0.2 l 0.2,-0.2 V 74.2 H 1.5 1.2 V -74.4 Z" />
				<path
   id="path6_00000147220028667650125230000010907124864385706908_"
   class="st2"
   d="m 143.2,-67.6 6.4,-6.5 v -0.2 H 1.2 V 74.2 H 1.4 L 8,67.7 V -67.6 Z" />
				<path
   id="path8_00000172409204603684112420000009721210664746860943_"
   class="st3"
   d="m 143.2,-67.6 v 0 L 143.1,67.5 H 8.3 L 8,67.7 1.5,74.1 H 149.8 V -74.4 l -0.2,0.2 z" />
				<path
   id="path10_00000176760770045589993190000009365872722992672642_"
   class="st4"
   d="m 143.1,-67.5 v 0 L 8,-67.6 V 67.7 l 0.4,-0.3 h 134.7 z" />
			</g>
		</g>
	</g>
</g>
<g
   id="g220"
   transform="matrix(0.80828857,0,0,0.80828857,735.12332,300.8175)">
	<g
   id="g218">
		<g
   id="use216">
			<g
   id="Symbol_4_0_Layer0_0_FILL_00000041294227150112928130000002292045310008840110_">
				<path
   id="path2_00000098215582679956837460000012394515635341972125_"
   class="st0"
   d="m 150,-75.8 c -0.1,-0.1 -0.2,-0.1 -0.4,-0.1 H -1.3 c -0.1,0 -0.3,0.1 -0.3,0.1 -0.1,0.1 -0.1,0.2 -0.1,0.4 V 75.4 c 0,0.1 0.1,0.3 0.1,0.4 0.1,0.1 0.2,0.1 0.3,0.1 h 150.9 c 0.1,0 0.3,-0.1 0.4,-0.1 0.1,-0.1 0.1,-0.2 0.1,-0.4 V -75.4 c 0,-0.2 0,-0.3 -0.1,-0.4 M -0.8,-74.9 H 149.1 V 74.9 H -0.8 Z" />
				<path
   id="path4_00000121242668927724428840000003837499666418490246_"
   class="st1"
   d="M 149.1,-74.9 H -0.8 V 74.9 H 149.1 V -74.9 m -0.7,0.5 v 0.2 l 0.2,-0.2 V 74.2 H 0.2 0 V -74.4 Z" />
				<path
   id="path6_00000041259561511804798460000005930724095860632201_"
   class="st2"
   d="m 141.9,-67.6 6.4,-6.5 v -0.2 H 0 V 74.2 H 0.2 L 6.7,67.8 V -67.6 Z" />
				<path
   id="path8_00000026856311108640365330000010436197993028459960_"
   class="st3"
   d="m 141.9,-67.6 v 0 L 141.8,67.5 H 7.1 L 6.7,67.8 0.2,74.2 H 148.5 V -74.4 l -0.2,0.2 z" />
				<path
   id="path10_00000048467942921869867500000017746309516269359496_"
   class="st4"
   d="m 141.8,-67.5 v 0 L 6.7,-67.6 V 67.7 l 0.4,-0.3 h 134.7 z" />
			</g>
		</g>
	</g>
</g>
<g
   id="g226"
   transform="matrix(0.80828857,0,0,0.80828857,0.32331543,420.4675)">
	<g
   id="g224">
		<g
   id="use222">
			<g
   id="Symbol_4_0_Layer0_0_FILL_00000025407147054455560530000000470899841905722768_">
				<path
   id="path2_00000106826320460935926590000003965532090028234375_"
   class="st0"
   d="m 151.2,-75.8 c -0.1,-0.1 -0.2,-0.1 -0.4,-0.1 H 0 c -0.1,0 -0.3,0.1 -0.3,0.1 -0.1,0.1 -0.1,0.2 -0.1,0.4 V 75.4 c 0,0.1 0.1,0.3 0.1,0.4 0.1,0.1 0.2,0.1 0.3,0.1 h 150.9 c 0.1,0 0.3,-0.1 0.4,-0.1 0.1,-0.1 0.1,-0.2 0.1,-0.4 V -75.4 c 0,-0.2 -0.1,-0.3 -0.2,-0.4 M 0.5,-74.9 H 150.4 V 74.9 H 0.5 Z" />
				<path
   id="path4_00000126297849903040931310000017418496824503613829_"
   class="st1"
   d="M 150.4,-74.9 H 0.5 V 74.9 H 150.4 V -74.9 m -0.8,0.5 v 0.2 l 0.2,-0.2 V 74.2 H 1.5 1.2 V -74.4 Z" />
				<path
   id="path6_00000068673418780828141480000007485837589687126947_"
   class="st2"
   d="m 143.2,-67.6 6.4,-6.5 v -0.2 H 1.2 V 74.2 H 1.4 L 8,67.7 V -67.6 Z" />
				<path
   id="path8_00000160871311356605549900000010597987761126321316_"
   class="st3"
   d="m 143.2,-67.6 v 0 L 143.1,67.5 H 8.3 L 8,67.7 1.5,74.1 H 149.8 V -74.4 l -0.2,0.2 z" />
				<path
   id="path10_00000129179066641383179780000013762188123628869248_"
   class="st4"
   d="m 143.1,-67.5 v 0 L 8,-67.6 V 67.7 L 8.3,67.4 H 143 V -67.5 Z" />
			</g>
		</g>
	</g>
</g>
<g
   id="g232"
   transform="matrix(0.80828857,0,0,0.80828857,122.77332,420.4675)">
	<g
   id="g230">
		<g
   id="use228">
			<g
   id="Symbol_4_0_Layer0_0_FILL_00000116954203912083876640000010422110688551804823_">
				<path
   id="path2_00000067205876901617659880000013475038297354648965_"
   class="st0"
   d="m 151.1,-75.8 c -0.1,-0.1 -0.2,-0.1 -0.4,-0.1 H -0.1 c -0.1,0 -0.3,0.1 -0.3,0.1 -0.1,0.1 -0.1,0.2 -0.1,0.4 V 75.4 c 0,0.1 0.1,0.3 0.1,0.4 0.1,0.1 0.2,0.1 0.3,0.1 h 150.9 c 0.1,0 0.3,-0.1 0.4,-0.1 0.1,-0.1 0.1,-0.2 0.1,-0.4 V -75.4 c 0,-0.2 -0.1,-0.3 -0.2,-0.4 M 0.4,-74.9 H 150.3 V 74.9 H 0.4 Z" />
				<path
   id="path4_00000161619136070287682540000009682827198073111973_"
   class="st1"
   d="M 150.3,-74.9 H 0.4 V 74.9 H 150.3 V -74.9 m -0.8,0.5 v 0.2 l 0.2,-0.2 V 74.2 H 1.4 1.1 V -74.4 Z" />
				<path
   id="path6_00000092428373916082031500000011656307186502566040_"
   class="st2"
   d="m 143.1,-67.6 6.4,-6.5 v -0.2 H 1.1 V 74.2 H 1.3 L 7.8,67.8 V -67.6 Z" />
				<path
   id="path8_00000038407425058454473070000010115892973379549568_"
   class="st3"
   d="m 143.1,-67.6 v 0 L 143,67.4 H 8.2 L 7.9,67.7 1.4,74.1 H 149.7 V -74.4 l -0.2,0.2 z" />
				<path
   id="path10_00000101818337789241675190000008633489020979229598_"
   class="st4"
   d="m 143,-67.5 v 0 L 7.9,-67.6 V 67.7 L 8.2,67.4 H 143 Z" />
			</g>
		</g>
	</g>
</g>
<g
   id="g238"
   transform="matrix(0.80828857,0,0,0.80828857,245.22332,420.4675)">
	<g
   id="g236">
		<g
   id="use234">
			<g
   id="Symbol_4_0_Layer0_0_FILL_00000157291522330966101970000000119456920468825756_">
				<path
   id="path2_00000070076909875572487870000000367881128897953949_"
   class="st0"
   d="m 151.2,-75.8 c -0.1,-0.1 -0.2,-0.1 -0.4,-0.1 H 0 c -0.1,0 -0.3,0.1 -0.3,0.1 -0.1,0.1 -0.1,0.2 -0.1,0.4 V 75.4 c 0,0.1 0.1,0.3 0.1,0.4 0.1,0.1 0.2,0.1 0.3,0.1 h 150.9 c 0.1,0 0.3,-0.1 0.4,-0.1 0.1,-0.1 0.1,-0.2 0.1,-0.4 V -75.4 c 0,-0.2 -0.1,-0.3 -0.2,-0.4 M 0.5,-74.9 H 150.4 V 74.9 H 0.5 Z" />
				<path
   id="path4_00000150091816535655015560000014992568124332521130_"
   class="st1"
   d="M 150.4,-74.9 H 0.5 V 74.9 H 150.4 V -74.9 m -0.8,0.5 v 0.2 l 0.2,-0.2 V 74.2 H 1.5 1.2 V -74.4 Z" />
				<path
   id="path6_00000028305757775857245750000004606787685230774945_"
   class="st2"
   d="m 143.2,-67.6 6.4,-6.5 v -0.2 H 1.2 V 74.2 H 1.4 L 8,67.7 V -67.6 Z" />
				<path
   id="path8_00000141419324469174721020000015179088005499934909_"
   class="st3"
   d="m 143.2,-67.6 v 0 L 143.1,67.5 H 8.3 L 8,67.7 1.5,74.1 H 149.8 V -74.4 l -0.2,0.2 z" />
				<path
   id="path10_00000103252654281057211800000016910595948285829793_"
   class="st4"
   d="m 143.1,-67.5 v 0 L 8,-67.6 V 67.7 L 8.3,67.4 H 143 V -67.5 Z" />
			</g>
		</g>
	</g>
</g>
<g
   id="g244"
   transform="matrix(0.80828857,0,0,0.80828857,367.67332,420.4675)">
	<g
   id="g242">
		<g
   id="use240">
			<g
   id="Symbol_4_0_Layer0_0_FILL_00000066490057351728314050000004783118010253894813_">
				<path
   id="path2_00000159438894633729068180000015755941001396391868_"
   class="st0"
   d="m 151.2,-75.8 c -0.1,-0.1 -0.2,-0.1 -0.4,-0.1 H 0 c -0.1,0 -0.3,0.1 -0.3,0.1 -0.1,0.1 -0.1,0.2 -0.1,0.4 V 75.4 c 0,0.1 0.1,0.3 0.1,0.4 0.1,0.1 0.2,0.1 0.3,0.1 h 150.9 c 0.1,0 0.3,-0.1 0.4,-0.1 0.1,-0.1 0.1,-0.2 0.1,-0.4 V -75.4 c 0,-0.2 -0.1,-0.3 -0.2,-0.4 M 0.5,-74.9 H 150.4 V 74.9 H 0.5 Z" />
				<path
   id="path4_00000011723411955562501670000000744818105632825015_"
   class="st1"
   d="M 150.4,-74.9 H 0.5 V 74.9 H 150.4 V -74.9 m -0.8,0.5 v 0.2 l 0.2,-0.2 V 74.2 H 1.5 1.2 V -74.4 Z" />
				<path
   id="path6_00000130618051517152606890000008586712310674796178_"
   class="st2"
   d="m 143.2,-67.6 6.4,-6.5 v -0.2 H 1.2 V 74.2 H 1.4 L 8,67.7 V -67.6 Z" />
				<path
   id="path8_00000135692729031639177920000004130399926732768413_"
   class="st3"
   d="m 143.2,-67.6 v 0 L 143.1,67.5 H 8.3 L 8,67.7 1.5,74.1 H 149.8 V -74.4 l -0.2,0.2 z" />
				<path
   id="path10_00000155113685838991257640000004763351280140717449_"
   class="st4"
   d="m 143.1,-67.5 v 0 L 8,-67.6 V 67.7 L 8.3,67.4 H 143 V -67.5 Z" />
			</g>
		</g>
	</g>
</g>
<g
   id="g250"
   transform="matrix(0.80828857,0,0,0.80828857,490.12332,420.4675)">
	<g
   id="g248">
		<g
   id="use246">
			<g
   id="Symbol_4_0_Layer0_0_FILL_00000150789655329905784890000016593476894351877823_">
				<path
   id="path2_00000069357811239459572450000016305085999317334700_"
   class="st0"
   d="m 151.2,-75.8 c -0.1,-0.1 -0.2,-0.1 -0.4,-0.1 H 0 c -0.1,0 -0.3,0.1 -0.3,0.1 -0.1,0.1 -0.1,0.2 -0.1,0.4 V 75.4 c 0,0.1 0.1,0.3 0.1,0.4 0.1,0.1 0.2,0.1 0.3,0.1 h 150.9 c 0.1,0 0.3,-0.1 0.4,-0.1 0.1,-0.1 0.1,-0.2 0.1,-0.4 V -75.4 c 0,-0.2 -0.1,-0.3 -0.2,-0.4 M 0.5,-74.9 H 150.4 V 74.9 H 0.5 Z" />
				<path
   id="path4_00000067958925461898816360000008569740770902955659_"
   class="st1"
   d="M 150.4,-74.9 H 0.5 V 74.9 H 150.4 V -74.9 m -0.8,0.5 v 0.2 l 0.2,-0.2 V 74.2 H 1.5 1.2 V -74.4 Z" />
				<path
   id="path6_00000165234147192554916510000010581991935596165539_"
   class="st2"
   d="m 143.2,-67.6 6.4,-6.5 v -0.2 H 1.2 V 74.2 H 1.4 L 8,67.7 V -67.6 Z" />
				<path
   id="path8_00000016064897022159762910000010790654261438956695_"
   class="st3"
   d="m 143.2,-67.6 v 0 L 143.1,67.5 H 8.3 L 8,67.7 1.5,74.1 H 149.8 V -74.4 l -0.2,0.2 z" />
				<path
   id="path10_00000105426802482394124550000004709626196142584198_"
   class="st4"
   d="m 143.1,-67.5 v 0 L 8,-67.6 V 67.7 l 0.4,-0.3 h 134.7 z" />
			</g>
		</g>
	</g>
</g>
<g
   id="g256"
   transform="matrix(0.80828857,0,0,0.80828857,612.57332,420.4675)">
	<g
   id="g254">
		<g
   id="use252">
			<g
   id="Symbol_4_0_Layer0_0_FILL_00000092421171790669488290000001271668356573996208_">
				<path
   id="path2_00000127043272241357483900000006763041279023504817_"
   class="st0"
   d="m 151.2,-75.8 c -0.1,-0.1 -0.2,-0.1 -0.4,-0.1 H 0 c -0.1,0 -0.3,0.1 -0.3,0.1 -0.1,0.1 -0.1,0.2 -0.1,0.4 V 75.4 c 0,0.1 0.1,0.3 0.1,0.4 0.1,0.1 0.2,0.1 0.3,0.1 h 150.9 c 0.1,0 0.3,-0.1 0.4,-0.1 0.1,-0.1 0.1,-0.2 0.1,-0.4 V -75.4 c 0,-0.2 -0.1,-0.3 -0.2,-0.4 M 0.5,-74.9 H 150.4 V 74.9 H 0.5 Z" />
				<path
   id="path4_00000008845562704865471230000002032733483161119159_"
   class="st1"
   d="M 150.4,-74.9 H 0.5 V 74.9 H 150.4 V -74.9 m -0.8,0.5 v 0.2 l 0.2,-0.2 V 74.2 H 1.5 1.2 V -74.4 Z" />
				<path
   id="path6_00000100354748382292128300000014978721526108065676_"
   class="st2"
   d="m 143.2,-67.6 6.4,-6.5 v -0.2 H 1.2 V 74.2 H 1.4 L 8,67.7 V -67.6 Z" />
				<path
   id="path8_00000151518568490179562020000007526369076376049029_"
   class="st3"
   d="m 143.2,-67.6 v 0 L 143.1,67.5 H 8.3 L 8,67.7 1.5,74.1 H 149.8 V -74.4 l -0.2,0.2 z" />
				<path
   id="path10_00000180359284808841221110000013272416783209414044_"
   class="st4"
   d="m 143.1,-67.5 v 0 L 8,-67.6 V 67.7 l 0.4,-0.3 h 134.7 z" />
			</g>
		</g>
	</g>
</g>
<g
   id="g262"
   transform="matrix(0.80828857,0,0,0.80828857,735.12332,420.4675)">
	<g
   id="g260">
		<g
   id="use258">
			<g
   id="Symbol_4_0_Layer0_0_FILL_00000028326073917907635820000012167210808837885108_">
				<path
   id="path2_00000140005610011180639100000005319206059327384981_"
   class="st0"
   d="m 150,-75.8 c -0.1,-0.1 -0.2,-0.1 -0.4,-0.1 H -1.3 c -0.1,0 -0.3,0.1 -0.3,0.1 -0.1,0.1 -0.1,0.2 -0.1,0.4 V 75.4 c 0,0.1 0.1,0.3 0.1,0.4 0.1,0.1 0.2,0.1 0.3,0.1 h 150.9 c 0.1,0 0.3,-0.1 0.4,-0.1 0.1,-0.1 0.1,-0.2 0.1,-0.4 V -75.4 c 0,-0.2 0,-0.3 -0.1,-0.4 M -0.8,-74.9 H 149.1 V 74.9 H -0.8 Z" />
				<path
   id="path4_00000009569743275224169180000014540532314898896006_"
   class="st1"
   d="M 149.1,-74.9 H -0.8 V 74.9 H 149.1 V -74.9 m -0.7,0.5 v 0.2 l 0.2,-0.2 V 74.2 H 0.2 0 V -74.4 Z" />
				<path
   id="path6_00000000924649784056353140000018022634545189583233_"
   class="st2"
   d="m 141.9,-67.6 6.4,-6.5 v -0.2 H 0 V 74.2 H 0.2 L 6.7,67.8 V -67.6 Z" />
				<path
   id="path8_00000142872729171197351820000001492369091805057678_"
   class="st3"
   d="m 141.9,-67.6 v 0 L 141.8,67.5 H 7.1 L 6.7,67.8 0.2,74.2 H 148.5 V -74.4 l -0.2,0.2 z" />
				<path
   id="path10_00000132050265894490996960000008429028540627953086_"
   class="st4"
   d="m 141.8,-67.5 v 0 L 6.7,-67.6 V 67.7 l 0.4,-0.3 h 134.7 z" />
			</g>
		</g>
	</g>
</g>







<g
   id="g310"
   transform="matrix(0.80828857,0,0,0.80828857,122.27332,60.217498)">
	<g
   id="g308">
		<g
   id="use306">
			<g
   id="Symbol_4_0_Layer0_0_FILL_00000000906882677077555790000000169692701777610887_">
				<path
   id="path2_00000094603148103254449210000014539227364966097025_"
   class="st0"
   d="m 151.7,-74.4 c -0.1,-0.1 -0.2,-0.1 -0.4,-0.1 H 0.5 c -0.1,0 -0.3,0.1 -0.3,0.1 C 0,-74.3 0,-74.2 0,-74 V 74.8 c 0,0.1 0.1,0.3 0.1,0.3 0.1,0.1 0.2,0.1 0.3,0.1 h 150.9 c 0.1,0 0.3,-0.1 0.4,-0.1 0.1,-0.1 0.1,-0.2 0.1,-0.3 V -74 c 0.1,-0.2 0,-0.3 -0.1,-0.4 M 1,-73.5 H 150.9 V 74.3 H 1 Z" />
				<path
   id="path4_00000170978683821772900030000018129760501434531492_"
   class="st1"
   d="M 150.9,-73.5 H 1 V 74.3 H 150.9 V -73.5 m -0.8,0.5 v 0.2 l 0.2,-0.2 V 73.6 H 2 1.7 V -73 Z" />
				<path
   id="path6_00000142889099871844211610000009140065669991359380_"
   class="st2"
   d="m 143.7,-66.3 6.4,-6.5 V -73 H 1.7 V 73.6 H 2 L 8.5,67.2 V -66.3 Z" />
				<path
   id="path8_00000125571108785446957890000007152395196143955600_"
   class="st3"
   d="m 143.7,-66.3 v 0 L 143.6,66.9 H 8.8 L 8.5,67.2 2,73.6 H 150.3 V -73 l -0.2,0.2 z" />
				<path
   id="path10_00000059997406298275621050000013268618618494690964_"
   class="st4"
   d="m 143.6,-66.2 v 0 L 8.5,-66.3 V 67.2 L 8.8,66.9 H 143.5 V -66.2 Z" />
			</g>
		</g>
	</g>
</g>
<g
   id="g354"
   transform="translate(139.52332,419.1675)">
	<g
   id="g352">
		<g
   id="use350"
   transform="translate(4)">
			<g
   id="Symbol_9_0_Layer0_0_FILL">
				<path
   id="path37"
   class="st5"
   d="m 250.3,1.3 38.1,37.8 38,-37.8 -38,-38.1 z" />
			</g>
		</g>
	</g>
</g>
<g
   id="g342"
   transform="translate(-0.07668457,-1.1825015)">
	<g
   id="g374"
   transform="translate(-648.1,347.95)">
		<g
   id="use372">
			<g
   id="Symbol_11_0_Layer0_49_FILL">
				<path
   id="path52"
   class="st6"
   d="m 740.5,-197.6 h -63 v 63.1 h 63 z" />
			</g>
		</g>
	</g>
	<g
   id="g374_00000148638716641354815980000001811457047771257992_"
   transform="translate(-648.1,347.95)">
		<g
   id="use372_00000096046330031706306080000001201996074774519712_">
			<g
   id="Symbol_11_0_Layer0_49_FILL_00000044898211316219073520000009502250459142220169_">
				<path
   id="path52_00000134211887336778497760000000214832790769739417_"
   class="st7"
   d="m 740.5,-197.6 h -63 v 63.1 h 63 z" />
			</g>
		</g>
	</g>
</g>
<g
   id="g366"
   transform="translate(-0.07668457,-1.1825015)">
	<g
   id="g356">
		<g
   id="g400"
   transform="matrix(0.48680115,0.3249054,-0.3249054,0.48680115,115.15,-86.5)">
			<g
   id="use398">
				<g
   id="Symbol_11_0_Layer0_55_FILL">
					<path
   id="path70"
   class="st8"
   d="m 246.3,66.2 -61.2,106 61.2,35.4 z" />
				</g>
			</g>
		</g>
		<g
   id="g404"
   transform="matrix(0.48680115,0.3249054,-0.3249054,0.48680115,115.15,-86.5)">
			<g
   id="use402">
				<g
   id="Symbol_11_0_Layer0_56_FILL">
					<path
   id="path73"
   class="st9"
   d="M 307.5,172.2 246.4,66.2 V 207.6 Z" />
				</g>
			</g>
		</g>
		<g
   id="g408"
   transform="matrix(0.48680115,0.3249054,-0.3249054,0.48680115,115.15,-86.5)">
			<g
   id="use406">
				<g
   id="Symbol_11_0_Layer0_57_FILL">
					<path
   id="path76"
   class="st10"
   d="m 246.3,136.8 -61.2,35.3 61.2,35.4 61.2,-35.3 z" />
				</g>
			</g>
		</g>
	</g>
	<g
   id="g364">
		<polygon
   class="st11"
   points="208.9,97.2 213.6,25.7 149.3,57.5 167.6,94.5 "
   id="polygon358" />
		<polyline
   class="st11"
   points="213.6,25.7 190.6,60.1 149.3,57.5   "
   id="polyline360" />
		<line
   class="st11"
   x1="208.89999"
   y1="97.199997"
   x2="190.60001"
   y2="60.099998"
   id="line362" />
	</g>
</g>
<g
   id="g380"
   transform="translate(-0.07668457,-1.1825015)">
	<g
   id="g424"
   transform="matrix(0.35728455,0.48669434,-0.48669434,0.35728455,209,28.7)">
		<g
   id="use422">
			<g
   id="Symbol_11_0_Layer0_61_FILL">
				<path
   id="path88"
   class="st12"
   d="m 387.2,272.2 c -9.4,-13.1 -22,-20.9 -37.8,-23.5 -15.9,-2.6 -30.3,0.8 -43.4,10.2 -13,9.4 -20.9,22 -23.5,37.8 -2.6,15.9 0.8,30.3 10.1,43.4 9.4,13 22,20.9 37.9,23.5 15.9,2.6 30.3,-0.8 43.4,-10.1 13.1,-9.4 20.9,-22 23.5,-37.9 2.6,-15.9 -0.8,-30.3 -10.2,-43.4 z" />
			</g>
		</g>
	</g>
	<g
   id="g428"
   transform="matrix(0.35728455,0.48669434,-0.48669434,0.35728455,209,28.7)">
		<g
   id="use426">
			<g
   id="Symbol_11_0_Layer0_62_FILL">
				<path
   id="path91"
   class="st13"
   d="m 381.1,347.3 c 11.4,-11.4 17.1,-25.1 17.1,-41.1 0,-6.6 -1.1,-13.1 -3.2,-19.3 -4,11.5 -11,20.8 -21,27.9 -10.1,7.3 -21.5,10.9 -34,10.9 -12.5,0 -23.9,-3.6 -33.9,-11 -9.9,-7.1 -16.9,-16.5 -20.9,-28 -2.2,6.2 -3.3,12.6 -3.3,19.3 0,16.1 5.7,29.8 17,41.1 11.4,11.4 25.1,17.1 41.1,17.1 16,0.2 29.7,-5.5 41.1,-16.9 z" />
			</g>
		</g>
	</g>
	
		<g
   id="g424_00000016074138054553853070000006550895141923698306_"
   transform="matrix(0.35728455,0.48669434,-0.48669434,0.35728455,209,28.7)">
		<g
   id="use422_00000110429811966755873520000016547664958798524036_">
			<g
   id="Symbol_11_0_Layer0_61_FILL_00000176728051588821350080000003178884828023314832_">
				<path
   id="path88_00000030467831828416225930000002209859827155967659_"
   class="st14"
   d="m 387.2,272.2 c -9.4,-13.1 -22,-20.9 -37.8,-23.5 -15.9,-2.6 -30.3,0.8 -43.4,10.2 -13,9.4 -20.9,22 -23.5,37.8 -2.6,15.9 0.8,30.3 10.1,43.4 9.4,13 22,20.9 37.9,23.5 15.9,2.6 30.3,-0.8 43.4,-10.1 13.1,-9.4 20.9,-22 23.5,-37.9 2.6,-15.9 -0.8,-30.3 -10.2,-43.4 z" />
			</g>
		</g>
	</g>
</g>
<path
   class="st15"
   d="M 427.62332,180.2175"
   id="path382" />
<g
   id="g405"
   transform="translate(247.35552,-478.19097)">
	<g
   id="g396">
		<g
   id="g412"
   transform="matrix(0.46426392,0.41795349,-0.41795349,0.46426392,483.55,-16.3)">
			<g
   id="use410">
				<g
   id="Symbol_11_0_Layer0_58_FILL">
					<path
   id="path79"
   class="st16"
   d="M 237.8,919 179,953 v 68 l 58.9,34 58.9,-33.9 v -68 z" />
				</g>
			</g>
		</g>
		<g
   id="g416"
   transform="matrix(0.46426392,0.41795349,-0.41795349,0.46426392,483.55,-16.3)">
			<g
   id="use414">
				<g
   id="Symbol_11_0_Layer0_59_FILL">
					<path
   id="path82"
   class="st17"
   d="m 179,1021 58.9,34 58.9,-33.9 -58.8,-34 z" />
				</g>
			</g>
		</g>
		<g
   id="g420"
   transform="matrix(0.46426392,0.41795349,-0.41795349,0.46426392,483.55,-16.3)">
			<g
   id="use418">
				<g
   id="Symbol_11_0_Layer0_60_FILL">
					<path
   id="path85"
   class="st18"
   d="m 237.8,919 v 68 l 58.8,34 v -68 z" />
				</g>
			</g>
		</g>
	</g>
	<polygon
   class="st19"
   points="153.1,572.9 194.6,581.7 223,550.1 209.9,509.8 168.3,500.9 139.9,532.5 "
   id="polygon398" />
	<polyline
   class="st19"
   points="209.9,509.8 181.5,541.3 194.6,581.7  "
   id="polyline400" />
	<line
   class="st19"
   x1="139.89999"
   y1="532.5"
   x2="181.5"
   y2="541.29999"
   id="line402" />
</g>
<g
   id="g417"
   transform="translate(-0.07668457,-1.1825015)">
	<g
   id="g410"
   transform="matrix(0.72319031,0,0,0.72319031,-33.9,216.1)">
		<g
   id="use364">
			<g
   id="Symbol_11_0_Layer0_47_FILL">
				<path
   id="path46"
   class="st20"
   d="m 978.4,-263.6 -44.5,25.7 v 51.4 l 44.5,25.7 44.4,-25.7 v -51.4 z" />
			</g>
		</g>
	</g>
	<g
   id="g366_00000059294167189012078460000006284408537153155216_"
   transform="matrix(0.72319031,0,0,0.72319031,-33.9,216.1)">
		<g
   id="use364_00000027590755871178719170000016808108574563176633_">
			<g
   id="Symbol_11_0_Layer0_47_FILL_00000129188135974197854210000015769084885599351432_">
				<path
   id="path46_00000147188906993387436440000006508500544043944635_"
   class="st21"
   d="m 978.4,-263.6 -44.5,25.7 v 51.4 l 44.5,25.7 44.4,-25.7 v -51.4 z" />
			</g>
		</g>
	</g>
</g>
<g
   id="g430"
   transform="translate(-0.07668457,-1.1825015)">
	<g
   id="g423"
   transform="translate(636.75,179)">
		<g
   id="g340">
			<g
   id="use338">
				<g
   id="Symbol_7_0_Layer0_0_FILL">
					<path
   id="path31"
   class="st22"
   d="m -359.6,33.3 h 60.9 l -30.5,-60.9 z" />
				</g>
			</g>
		</g>
	</g>
	<g
   id="g342_00000173149724906971614230000018185599696357233835_"
   transform="translate(636.75,179)">
		<g
   id="g340_00000083077128517317176390000002113628755235184309_">
			<g
   id="use338_00000029030420188168492330000016627055872168618114_">
				<g
   id="Symbol_7_0_Layer0_0_FILL_00000178901721191763370180000018418928394617660545_">
					<path
   id="path31_00000082327444431083713770000008375971280078126747_"
   class="st23"
   d="m -359.4,33.3 h 60.9 L -329,-27.6 Z" />
				</g>
			</g>
		</g>
	</g>
</g>
<g
   id="g441"
   transform="translate(-0.07668457,-1.1825015)">
	<g
   id="g435"
   transform="translate(-450.25,436.75)">
		<g
   id="use394">
			<g
   id="Symbol_11_0_Layer0_54_FILL">
				<path
   id="path67"
   class="st24"
   d="m 1022.5,-102.2 13.5,-41.5 -35.4,-25.7 -35.4,25.7 13.5,41.5 z" />
			</g>
		</g>
	</g>
	<g
   id="g396_00000065758315407663868400000004685999983643461553_"
   transform="translate(-450.25,436.75)">
		<g
   id="use394_00000177456137204951573230000007195405355636961186_">
			<g
   id="Symbol_11_0_Layer0_54_FILL_00000103952381774401359690000002024400220471449782_">
				<path
   id="path67_00000088821820188309343160000001028066579266592173_"
   class="st25"
   d="m 1022.5,-102.2 13.5,-41.5 -35.4,-25.7 -35.4,25.7 13.5,41.5 z" />
			</g>
		</g>
	</g>
</g>
<g
   id="g453"
   transform="translate(-0.07668457,-1.1825015)">
	<g
   id="g320"
   transform="translate(640.8,422.6)">
		<g
   id="g318">
			<g
   id="use316">
				<g
   id="Symbol_6_0_Layer0_0_FILL">
					<path
   id="path16"
   class="st26"
   d="m 32.9,-32.9 c -9.1,0 -16.8,3.2 -23.3,9.7 C 3.1,-16.7 0,-9.1 0,0 c 0,9 3.2,16.8 9.6,23.2 6.4,6.4 14.2,9.6 23.3,9.6 9,0 16.8,-3.2 23.2,-9.6 C 62.5,16.8 65.8,9 65.8,0 c 0,-9.1 -3.2,-16.8 -9.7,-23.2 -6.4,-6.5 -14.2,-9.7 -23.2,-9.7 z" />
				</g>
			</g>
		</g>
	</g>
	<g
   id="g320_00000114779373172027956220000010853693122378404010_"
   transform="translate(640.8,422.6)">
		<g
   id="g318_00000173143479232735578050000011431958549695535546_">
			<g
   id="use316_00000178907529078510272210000008663189789264965539_">
				<g
   id="Symbol_6_0_Layer0_0_FILL_00000115484581831553420250000003104597487439737234_">
					<path
   id="path16_00000155844771107613834510000014773982332591744698_"
   class="st27"
   d="m 32.9,-32.9 c -9.1,0 -16.8,3.2 -23.3,9.7 C 3.1,-16.7 0,-9.1 0,0 c 0,9 3.2,16.8 9.6,23.2 6.4,6.4 14.2,9.6 23.3,9.6 9,0 16.8,-3.2 23.2,-9.6 C 62.5,16.8 65.8,9 65.8,0 c 0,-9.1 -3.2,-16.8 -9.7,-23.2 -6.4,-6.5 -14.2,-9.7 -23.2,-9.7 z" />
				</g>
			</g>
		</g>
	</g>
</g>
<g
   id="g465"
   transform="translate(-0.07668457,-1.1825015)">
	<g
   id="g392"
   transform="translate(518.55,543.4)">
		<g
   id="g390">
			<g
   id="use388">
				<g
   id="Symbol_10_0_Layer0_0_FILL">
					<path
   id="path64"
   class="st28"
   d="m 10.5,-391.2 c -5.4,2.2 -9.1,6.2 -11.1,11.9 -2,5.6 -1.7,11.1 0.8,16.6 5.5,11.7 16,23.1 31.6,34.2 15.6,-11.2 26.2,-22.6 31.6,-34.2 2.5,-5.4 2.8,-10.9 0.8,-16.5 -2,-5.7 -5.7,-9.7 -11.1,-11.9 -5.3,-2.2 -10.5,-1.7 -15.5,1.4 -1.5,1 -3,2.2 -4.3,3.6 l -1.5,1.8 c -1.4,-2 -3.3,-3.8 -5.8,-5.4 -5,-3.2 -10.2,-3.7 -15.5,-1.5 z" />
				</g>
			</g>
		</g>
	</g>
	<g
   id="g392_00000065781287957653507660000012620676011891877522_"
   transform="translate(518.55,543.4)">
		<g
   id="g390_00000032630913555328863640000005129210330801204148_">
			<g
   id="use388_00000046305704243668598510000004407827280051932291_">
				<g
   id="Symbol_10_0_Layer0_0_FILL_00000096777895456502443320000011607179053078915227_">
					<path
   id="path64_00000044175042403860584610000005068365497679812020_"
   class="st29"
   d="m 10.5,-391.2 c -5.4,2.2 -9.1,6.1 -11.1,11.9 -2,5.6 -1.7,11.1 0.8,16.5 5.5,11.7 16,23.1 31.6,34.2 15.6,-11.2 26.2,-22.6 31.6,-34.2 2.5,-5.4 2.8,-10.9 0.8,-16.5 -2,-5.7 -5.7,-9.7 -11.1,-11.8 -5.3,-2.2 -10.5,-1.7 -15.5,1.4 -1.5,1 -3,2.1 -4.3,3.6 l -1.5,1.8 c -1.4,-2 -3.3,-3.8 -5.8,-5.4 -5,-3.2 -10.2,-3.7 -15.5,-1.5 z" />
				</g>
			</g>
		</g>
	</g>
</g>
<g
   id="g477"
   transform="translate(242.25383,-243.51301)">
	<g
   id="g348"
   transform="translate(263.69333,538.53248)">
		<g
   id="g346">
			<g
   id="use344">
				<g
   id="Symbol_8_0_Layer0_0_FILL">
					<path
   id="path34"
   class="st30"
   d="M 275.3,-9 251,-5 268.4,12.5 263.9,37.7 286.7,25.8 309.2,37.7 304.7,12.5 322.4,-5 297.8,-9 286.7,-31.8 Z" />
				</g>
			</g>
		</g>
	</g>
	<g
   id="g348_00000181045868112683959670000006821221117462720953_"
   transform="translate(263.69333,538.53248)">
		<g
   id="g346_00000077321243631563441570000005589690297629984950_">
			<g
   id="use344_00000150807744895560685270000018295631210778431657_">
				<g
   id="Symbol_8_0_Layer0_0_FILL_00000013908791784319740920000010422241195682363010_">
					<path
   id="path34_00000166643122181812416250000007676276298777436605_"
   class="st31"
   d="M 275.3,-9 251,-5 268.4,12.5 263.9,37.7 286.7,25.8 309.2,37.7 304.7,12.5 322.4,-5 297.8,-9 286.7,-31.8 Z" />
				</g>
			</g>
		</g>
	</g>
</g>
</svg>
