<?xml version="1.0" encoding="UTF-8" standalone="no"?>
<!-- Created with Inkscape (http://www.inkscape.org/) -->

<svg
   width="209.69974mm"
   height="198.94241mm"
   viewBox="0 0 209.69974 198.94241"
   version="1.1"
   id="svg2144"
   inkscape:version="1.1.2 (b8e25be833, 2022-02-05)"
   sodipodi:docname="stingray.svg"
   xmlns:inkscape="http://www.inkscape.org/namespaces/inkscape"
   xmlns:sodipodi="http://sodipodi.sourceforge.net/DTD/sodipodi-0.dtd"
   xmlns="http://www.w3.org/2000/svg"
   xmlns:svg="http://www.w3.org/2000/svg">
  <sodipodi:namedview
     id="namedview2146"
     pagecolor="#ffffff"
     bordercolor="#666666"
     borderopacity="1.0"
     inkscape:pageshadow="2"
     inkscape:pageopacity="0.0"
     inkscape:pagecheckerboard="0"
     inkscape:document-units="mm"
     showgrid="false"
     inkscape:zoom="0.46235269"
     inkscape:cx="319.02053"
     inkscape:cy="168.70238"
     inkscape:window-width="1366"
     inkscape:window-height="705"
     inkscape:window-x="-8"
     inkscape:window-y="-8"
     inkscape:window-maximized="1"
     inkscape:current-layer="layer1" />
  <defs
     id="defs2141">
    <clipPath
       id="clip1">
      <path
         d="M 192,236 H 377 V 497 H 192 Z m 0,0"
         id="path1018" />
    </clipPath>
    <clipPath
       id="clip2">
      <path
         d="m 376.86719,496.42187 c -15.75,-0.5 -37.12891,2.38672 -61.51953,-15.40234 -8.15235,-2.57812 -13.96485,-5.80078 -18.25391,-9.55859 4.28906,3.75781 10.10156,6.96875 18.25,9.55859 24.38281,17.78125 45.76953,14.89063 61.52344,15.40234 m -91.44922,-44.95312 c -5.67578,-18.75 -7.23828,-43.05859 -42.82031,-69.25 -1.84375,-1.35938 -3.60938,-2.73828 -5.29688,-4.14844 1.6875,1.41016 3.44922,2.78906 5.29297,4.14844 35.58594,26.17969 37.15234,50.5 42.82422,69.25 M 205.14844,319.60156 c -3.94532,-15.49219 -7.42188,-34.70312 -11.0586,-59.16015 -1.27343,-8.58204 -1.86328,-16.64063 -1.82031,-24.11329 -0.0391,7.47266 0.54297,15.52344 1.82422,24.1211 3.63281,24.44922 7.10937,43.67187 11.05469,59.15234"
         id="path1021" />
    </clipPath>
  </defs>
  <g
     inkscape:label="Στρώση 1"
     inkscape:groupmode="layer"
     id="layer1"
     transform="translate(-20.473827,-104.25134)">
    <g
       id="g2097"
       transform="translate(226.92343,381.03551)">
      <path
         style="fill:#d7d7d7;fill-opacity:1;fill-rule:nonzero;stroke:none;stroke-width:0.352778"
         d="m -108.90164,-77.846825 c -26.10005,-0.363802 -23.18687,-32.035255 -17.36604,-33.855645 5.82635,-1.82039 -3.62424,20.700889 12.74548,26.207532 17.343987,5.841502 23.327426,-13.818969 12.99903,-30.198332 -7.68945,-12.18461 -9.63938,-27.23692 -9.33208,-36.85838 0.022,-0.60221 0.0482,-1.18512 0.0854,-1.74598 0.1571,-2.40192 1.51309,-4.03214 3.4575,-5.12493 5.70233,-3.21082 16.434486,-1.79282 16.434486,-1.79282 0,0 -10.904416,14.92553 1.470367,39.68061 12.380295,24.757833 5.600347,44.051747 -20.494183,43.687945"
         id="path1028" />
      <path
         style="fill:#3f3f42;fill-opacity:1;fill-rule:nonzero;stroke:none;stroke-width:0.352778"
         d="m -26.517005,-270.85624 c -18.020606,14.18828 -44.094468,4.90444 -56.381055,0.80891 -12.252138,-4.0845 -18.66553,4.99539 -18.70136,5.04776 -0.0358,-0.0524 -6.44922,-9.13226 -18.70135,-5.04776 -12.28659,4.09553 -38.36183,13.37937 -56.38244,-0.80891 -17.83043,-14.03669 -33.12666,-2.10564 -29.12208,24.83225 4.00458,26.94341 7.46208,35.86207 17.10972,42.96034 21.18734,15.58975 8.19106,29.30399 25.66459,34.85748 h 122.86175 c 17.473524,-5.55349 4.478623,-19.26773 25.665963,-34.85748 9.646267,-7.09827 13.1051402,-16.01693 17.1097219,-42.96034 4.0045781,-26.93789 -11.2916477,-38.86894 -29.1234599,-24.83225"
         id="path1030" />
      <path
         style="fill:#d7d7d7;fill-opacity:1;fill-rule:nonzero;stroke:none;stroke-width:0.352778"
         d="m -8.4977796,-262.06711 c -7.4303824,-3.49884 -12.8860344,0.339 -19.6081054,4.18235 -7.852061,4.48689 -17.432182,8.96965 -33.906629,1.76251 -30.457402,-13.32425 -39.516626,-0.10611 -39.588286,0 -0.0716,-0.10611 -9.1295,-13.32425 -39.5869,0 -16.47582,7.20714 -26.05595,2.72438 -33.90663,-1.76251 -6.72207,-3.84335 -12.17772,-7.68119 -19.6081,-4.18235 -16.10927,7.58197 0.81855,52.08985 13.65084,58.91389 12.83367,6.82405 4.91546,25.39035 18.02061,34.94705 13.10652,9.55669 23.75462,2.18419 28.6687,7.91821 4.91409,5.73402 -18.0206,12.83229 -8.19106,21.29896 9.82955,8.46115 13.65085,-14.47354 21.78403,-15.95217 3.56361,-0.64768 5.2834,1.45107 7.89478,3.54982 2.35783,1.8948 5.44326,3.79098 11.27236,3.66145 h 0.003 c 5.829103,0.12953 8.915909,-1.76665 11.273731,-3.66145 2.611381,-2.09875 4.329797,-4.1975 7.894782,-3.54982 8.131803,1.47863 11.954478,24.41332 21.784028,15.95217 9.828166,-8.46667 -13.105144,-15.56494 -8.191059,-21.29896 4.914081,-5.73402 15.562185,1.63848 28.667325,-7.91821 13.106524,-9.5567 5.188317,-28.123 18.020609,-34.94705 12.8322918,-6.82404 29.7601113,-51.33192 13.6522214,-58.91389"
         id="path1032" />
      <path
         style="fill:#3f3f42;fill-opacity:1;fill-rule:nonzero;stroke:none;stroke-width:0.352778"
         d="m -108.37661,-237.99967 c 0,0.34038 -0.0165,0.68764 -0.0565,1.02802 -0.22738,2.50803 -1.31465,4.82588 -3.11436,6.63387 -2.04502,2.04639 -4.76113,3.17362 -7.64949,3.18051 h -0.0152 c -3.47128,0 -6.56222,-1.64537 -8.54935,-4.19475 -1.23335,-1.58061 -2.03537,-3.51675 -2.23105,-5.61963 v -0.007 c -0.0317,-0.32522 -0.0482,-0.66559 -0.0482,-0.99908 0,-2.89388 1.11897,-5.61275 3.16398,-7.66189 2.04363,-2.04639 4.76112,-3.17362 7.655,-3.18189 2.47496,0 4.75423,0.83647 6.57875,2.23242 2.58796,1.97749 4.25814,5.09461 4.26641,8.58931"
         id="path1034" />
      <path
         style="fill:#3f3f42;fill-opacity:1;fill-rule:nonzero;stroke:none;stroke-width:0.352778"
         d="m -69.605506,-237.99967 c 0,0.34038 -0.01654,0.68764 -0.05788,1.02802 -0.225997,2.50803 -1.313269,4.82588 -3.114365,6.63387 -2.043631,2.04639 -4.761124,3.17362 -7.648113,3.18051 h -0.01654 c -3.471277,0 -6.562217,-1.64537 -8.549347,-4.19475 -1.231967,-1.58061 -2.035362,-3.51675 -2.229665,-5.61963 v -0.007 c -0.03171,-0.32522 -0.04823,-0.66559 -0.04823,-0.99908 0,-2.89388 1.118965,-5.61275 3.162596,-7.66189 2.043631,-2.04639 4.761124,-3.17362 7.656382,-3.18189 2.474955,0 4.752852,0.83647 6.578752,2.23242 2.586581,1.97749 4.258141,5.09461 4.266406,8.58931"
         id="path1036" />
      <path
         style="fill:#9e9e9e;fill-opacity:1;fill-rule:nonzero;stroke:none;stroke-width:0.352778"
         d="m -69.605506,-239.61749 c 0,0.34038 -0.01654,0.68902 -0.05788,1.03077 -0.225997,2.50666 -1.313269,4.82727 -3.114365,6.63664 -2.043631,2.04363 -4.761124,3.16949 -7.648113,3.17638 h -0.01654 c -3.471277,0 -6.560838,-1.64538 -8.547968,-4.19337 -1.233346,-1.58061 -2.035366,-3.51951 -2.231044,-5.61965 v -0.007 c -0.03171,-0.3266 -0.04823,-0.66835 -0.04823,-0.99771 0,-2.89663 1.118965,-5.61274 3.162596,-7.66326 2.043631,-2.04777 4.761124,-3.175 7.656382,-3.18189 2.474955,0 4.752852,0.83371 6.578752,2.22966 2.586581,1.97886 4.258141,5.09185 4.266406,8.58931"
         id="path1038" />
      <path
         style="fill:#faf3d9;fill-opacity:1;fill-rule:nonzero;stroke:none;stroke-width:0.352778"
         d="m -70.998699,-239.61473 c 0.0055,5.21312 -4.216799,9.44369 -9.429916,9.44783 -5.214497,0.007 -9.445075,-4.21542 -9.449209,-9.42854 -0.0041,-5.21449 4.216798,-9.4437 9.431295,-9.45196 5.213117,-0.003 9.443695,4.21955 9.44783,9.43267"
         id="path1040" />
      <path
         style="fill:#000000;fill-opacity:1;fill-rule:nonzero;stroke:none;stroke-width:0.352778"
         d="m -74.774526,-239.60922 c 0.0028,3.12401 -2.530076,5.66236 -5.658224,5.66649 -3.128147,0.003 -5.666493,-2.53145 -5.669248,-5.6596 -0.0028,-3.12539 2.530076,-5.66236 5.658224,-5.66649 3.128148,-0.004 5.666493,2.53008 5.669248,5.6596"
         id="path1042" />
      <path
         style="fill:#fafafa;fill-opacity:1;fill-rule:nonzero;stroke:none;stroke-width:0.352778"
         d="m -76.76579,-242.62575 c 0.0014,1.12311 -0.908128,2.03675 -2.032607,2.03675 -1.1231,0.004 -2.033983,-0.90951 -2.035362,-2.03261 -0.0014,-1.1231 0.909503,-2.03261 2.032607,-2.03536 1.123099,0 2.033982,0.90812 2.035362,2.03122"
         id="path1044" />
      <path
         style="fill:#3f3f42;fill-opacity:1;fill-rule:nonzero;stroke:none;stroke-width:0.352778"
         d="m -73.426805,-250.15121 c -0.234266,0 -0.469911,-0.0813 -0.664214,-0.24116 -1.773534,-1.4745 -4.029382,-2.28341 -6.35,-2.28341 -2.317859,0 -4.569573,0.80891 -6.34311,2.28341 -0.443727,0.36656 -1.101051,0.30592 -1.467609,-0.1378 -0.367936,-0.44235 -0.307304,-1.09968 0.135047,-1.46624 2.146985,-1.78318 4.872743,-2.76434 7.675672,-2.76434 2.805688,0 5.534202,0.98116 7.681186,2.76434 0.442348,0.36656 0.502984,1.02389 0.135047,1.46624 -0.205327,0.24805 -0.502984,0.37896 -0.802019,0.37896"
         id="path1046" />
      <path
         style="fill:#9e9e9e;fill-opacity:1;fill-rule:nonzero;stroke:none;stroke-width:0.352778"
         d="m -108.37661,-239.61749 c 0,0.34038 -0.0165,0.68902 -0.0565,1.03077 -0.22738,2.50666 -1.31465,4.82727 -3.11436,6.63664 -2.04502,2.04363 -4.76113,3.16949 -7.64949,3.17638 h -0.0165 c -3.4699,0 -6.56084,-1.64538 -8.54797,-4.19337 -1.23334,-1.58061 -2.03536,-3.51951 -2.23104,-5.61965 v -0.007 c -0.0317,-0.3266 -0.0482,-0.66835 -0.0482,-0.99771 0,-2.89663 1.12035,-5.61274 3.16398,-7.66326 2.04363,-2.04777 4.75974,-3.175 7.65638,-3.18189 2.47358,0 4.75286,0.83371 6.57738,2.22966 2.58795,1.97886 4.25813,5.09185 4.2664,8.58931"
         id="path1048" />
      <path
         style="fill:#faf3d9;fill-opacity:1;fill-rule:nonzero;stroke:none;stroke-width:0.352778"
         d="m -109.76843,-239.61473 c 0.004,5.21312 -4.21817,9.44369 -9.43129,9.44783 -5.21312,0.007 -9.4437,-4.21542 -9.44921,-9.42854 -0.004,-5.21449 4.21818,-9.4437 9.43129,-9.45196 5.21312,-0.003 9.4437,4.21955 9.44921,9.43267"
         id="path1050" />
      <path
         style="fill:#000000;fill-opacity:1;fill-rule:nonzero;stroke:none;stroke-width:0.352778"
         d="m -113.54425,-239.60922 c 0.003,3.12401 -2.53146,5.66236 -5.65961,5.66649 -3.12676,0.003 -5.66511,-2.53145 -5.66924,-5.6596 -0.003,-3.12539 2.53145,-5.66236 5.6596,-5.66649 3.12677,-0.004 5.66511,2.53008 5.66925,5.6596"
         id="path1052" />
      <path
         style="fill:#fafafa;fill-opacity:1;fill-rule:nonzero;stroke:none;stroke-width:0.352778"
         d="m -115.53689,-242.62575 c 0.001,1.12311 -0.90813,2.03675 -2.03123,2.03675 -1.1231,0.004 -2.03537,-0.90951 -2.03674,-2.03261 -0.001,-1.1231 0.9095,-2.03261 2.0326,-2.03536 1.1231,0 2.03399,0.90812 2.03537,2.03122"
         id="path1054" />
      <path
         style="fill:#3f3f42;fill-opacity:1;fill-rule:nonzero;stroke:none;stroke-width:0.352778"
         d="m -112.19653,-250.15121 c -0.23427,0 -0.47129,-0.0813 -0.66559,-0.24116 -1.77354,-1.4745 -4.02801,-2.28341 -6.35,-2.28341 -2.31649,0 -4.56958,0.80891 -6.34311,2.28341 -0.44373,0.36656 -1.10106,0.30592 -1.46761,-0.1378 -0.36794,-0.44235 -0.30731,-1.09968 0.13504,-1.46624 2.14699,-1.78318 4.87412,-2.76434 7.67568,-2.76434 2.80706,0 5.5342,0.98116 7.68118,2.76434 0.44373,0.36656 0.50436,1.02389 0.13643,1.46624 -0.20671,0.24805 -0.50299,0.37896 -0.80202,0.37896"
         id="path1056" />
      <path
         style="fill:#000000;fill-opacity:1;fill-rule:nonzero;stroke:none;stroke-width:0.352778"
         d="m -94.294436,-224.91658 c -0.0041,-1.16995 -1.51033,-1.69912 -2.253093,-0.79513 -1.310513,1.59715 -3.088185,2.58245 -5.049131,2.58245 -1.96095,0 -3.74275,-0.9853 -5.05464,-2.5852 -0.74277,-0.90399 -2.24896,-0.37207 -2.25172,0.79788 v 0.04 c 0,5.1263 3.27284,9.28246 7.30636,9.28246 4.033515,0 7.302224,-4.15616 7.302224,-9.28246 v -0.04"
         id="path1058" />
      <path
         style="fill:#9e9e9e;fill-opacity:1;fill-rule:nonzero;stroke:none;stroke-width:0.352778"
         d="m -136.40177,-247.47506 c -2.44464,5.63755 -4.23885,11.45287 -5.35368,17.38533 -1.09692,5.93659 -1.51998,11.96688 -1.3174,17.97926 0.22462,6.00687 1.08313,11.9848 2.61827,17.81941 1.55029,5.83048 3.80476,11.4832 6.76617,16.87271 -3.89985,-4.76664 -6.802,-10.37388 -8.77811,-16.26499 -1.99953,-5.89525 -3.06338,-12.10607 -3.29626,-18.33755 -0.2012,-6.22185 0.40789,-12.49468 1.9637,-18.51808 1.53376,-6.01927 3.96737,-11.82633 7.39731,-16.93609"
         id="path1060" />
      <path
         style="fill:#9e9e9e;fill-opacity:1;fill-rule:nonzero;stroke:none;stroke-width:0.352778"
         d="m -66.798439,-247.47506 c 3.428559,5.10976 5.862172,10.91682 7.397309,16.93609 1.555803,6.0234 2.164895,12.29623 1.962327,18.51808 -0.23289,6.23148 -1.295358,12.4423 -3.294892,18.33755 -1.976106,5.89111 -4.878253,11.49835 -8.778102,16.26499 2.960024,-5.38951 5.215876,-11.04223 6.766168,-16.87271 1.533754,-5.83461 2.39365,-11.81254 2.616895,-17.81941 0.203948,-6.01238 -0.220486,-12.04267 -1.316027,-17.97926 -1.114834,-5.93246 -2.909041,-11.74778 -5.353678,-17.38533"
         id="path1062" />
      <g
         clip-path="url(#clip1)"
         clip-rule="nonzero"
         id="g1068"
         transform="matrix(0.35277778,0,0,0.35277778,-274.27725,-337.90055)">
        <g
           clip-path="url(#clip2)"
           clip-rule="nonzero"
           id="g1066">
          <path
             style="fill:#cccccc;fill-opacity:1;fill-rule:nonzero;stroke:none"
             d="M 192.22656,236.32422 H 376.86719 V 498.80859 H 192.22656"
             id="path1064" />
        </g>
      </g>
      <path
         style="fill:#333335;fill-opacity:1;fill-rule:nonzero;stroke:none;stroke-width:0.352778"
         d="m -163.03098,-168.20617 c -2.87459,-0.91364 -4.92511,-2.04638 -6.4382,-3.37482 -2.23518,-1.95819 -3.29902,-4.34219 -4.11895,-7.05142 -2.00092,-6.61458 -2.55351,-15.19424 -15.10744,-24.42986 -0.65043,-0.47956 -1.27193,-0.96325 -1.86724,-1.4621 -5.41707,-4.54614 -8.68164,-10.18094 -11.34263,-20.62923 -1.39182,-5.45979 -2.61827,-12.24249 -3.90123,-20.86763 -0.45061,-3.02893 -0.65594,-5.8732 -0.64216,-8.50663 0.007,-1.22094 0.062,-2.39503 0.16261,-3.52778 0.70693,8.2448 3.69314,17.78496 7.60677,25.90023 3.83646,12.86674 11.24066,25.60395 17.62786,29.00081 2.20762,1.17547 3.79925,2.69545 4.99126,4.45658 0.97427,5.04775 1.77767,10.38076 4.49378,14.95998 1.18098,5.74229 2.94625,11.45839 8.53557,15.53187"
         id="path1070" />
      <path
         style="fill:#aeaeae;fill-opacity:1;fill-rule:nonzero;stroke:none;stroke-width:0.352778"
         d="m -138.77751,-162.55621 c -0.79513,-0.12816 -1.64676,-0.18742 -2.54937,-0.21773 -5.55901,-0.17915 -13.10239,0.84336 -21.7041,-5.43085 -5.58932,-4.07348 -7.35459,-9.78821 -8.53695,-15.53187 1.28433,2.16627 2.99586,4.16443 5.35506,5.88284 13.78589,10.05417 24.98521,2.29995 30.15423,8.33162 1.83692,2.14147 -0.0207,4.46347 -2.71887,6.96599 m -37.28282,-36.13905 c -1.19201,-1.76252 -2.78502,-3.28249 -4.99126,-4.45658 -6.3872,-3.401 -13.7914,-16.13683 -17.62786,-29.00495 4.01422,8.32473 9.00548,15.14602 13.51717,17.54518 6.30177,3.35277 7.8438,9.39822 9.10195,15.91635"
         id="path1072" />
      <path
         style="fill:#cccccc;fill-opacity:1;fill-rule:nonzero;stroke:none;stroke-width:0.352778"
         d="m -67.745153,-138.12635 c -3.442339,-2.37436 -6.187391,-8.45978 -9.332073,-12.63937 3.144682,4.17684 5.891114,10.26225 9.332073,12.63937 m -77.276247,-5.57692 c 0.0606,-0.97703 0.44235,-1.93752 1.03215,-2.87184 -0.5898,0.93432 -0.97152,1.89481 -1.03215,2.87184 m 86.842589,0 c -0.06201,-0.97703 -0.443728,-1.93752 -1.03215,-2.87184 0.589798,0.93432 0.971514,1.89481 1.03215,2.87184 m -56.327309,-9.05234 c -1.53514,-1.28433 -2.949,-2.30683 -5.0009,-2.30683 -0.11714,0 -0.23565,0.003 -0.35692,0.01 0.12265,-0.007 0.24116,-0.01 0.35967,-0.01 2.05052,0 3.46301,1.0225 4.99815,2.30683"
         id="path1074" />
      <path
         style="fill:#aeaeae;fill-opacity:1;fill-rule:nonzero;stroke:none;stroke-width:0.352778"
         d="m -102.15339,-147.72163 c -3.22874,0 -5.58519,-0.63803 -7.44416,-1.53789 1.8576,0.89986 4.21266,1.53789 7.43865,1.53789 0.18328,0 0.36794,-0.004 0.55673,-0.007 h 0.004 c 0.18741,0.003 0.37345,0.007 0.55535,0.007 1.623327,0 3.026169,-0.16261 4.255378,-0.43684 -1.230588,0.27423 -2.63343,0.43684 -4.258138,0.43684 -0.18328,0 -0.36656,0 -0.55535,-0.007 -0.18603,0.007 -0.37069,0.007 -0.55259,0.007"
         id="path1076" />
      <path
         style="fill:#aeaeae;fill-opacity:1;fill-rule:nonzero;stroke:none;stroke-width:0.352778"
         d="m -64.825088,-137.12452 c -1.036285,0 -2.002293,-0.37069 -2.920065,-1.00183 -3.440959,-2.37712 -6.187391,-8.46253 -9.332073,-12.63937 -1.626087,-2.16352 -3.359658,-3.81441 -5.353678,-4.17683 -0.447866,-0.0813 -0.869544,-0.11989 -1.26504,-0.11989 -4.681195,0 -6.03443,5.32336 -13.091365,6.90397 -1.229208,0.27423 -2.63205,0.43684 -4.255381,0.43684 -0.1819,0 -0.36794,-0.004 -0.55535,-0.007 h -0.004 c -0.18879,0.003 -0.37345,0.007 -0.55673,0.007 -3.22598,0 -5.58105,-0.63803 -7.43865,-1.53789 -1.28984,-0.62839 -2.33991,-1.37942 -3.27559,-2.13045 -0.57878,-0.46578 -1.11346,-0.93155 -1.63298,-1.36564 -1.53513,-1.28433 -2.94762,-2.30683 -4.99814,-2.30683 -0.11852,0 -0.23703,0.003 -0.35967,0.01 -0.28939,0.0179 -0.5898,0.0538 -0.90675,0.11024 -6.8709,1.25264 -10.66464,17.81804 -17.60582,17.81804 -1.27331,0 -2.65134,-0.55673 -4.17545,-1.87 -1.88102,-1.6192 -2.56315,-3.18878 -2.46945,-4.70876 0.0606,-0.97702 0.44235,-1.93752 1.03215,-2.87183 1.33394,0.98805 2.56316,1.418 3.7083,1.418 7.30223,0 11.29165,-17.42667 18.51946,-18.74683 0.47267,-0.0841 0.91364,-0.12678 1.32981,-0.12678 2.88974,0 4.57371,1.92925 6.97425,3.86264 2.40054,1.93063 5.51766,3.85989 11.27235,3.85989 0.19155,0 0.38585,-0.004 0.58429,-0.007 0.19981,0.003 0.39412,0.003 0.58704,0.003 11.513511,0 12.465736,-7.71839 18.245227,-7.71839 0.416168,0 0.857141,0.0427 1.328431,0.12678 7.227809,1.32016 11.218608,18.74683 18.520833,18.74683 1.145148,0 2.37436,-0.42995 3.708301,-1.418 0.588423,0.93431 0.970139,1.8948 1.03215,2.87183 0.0937,1.51998 -0.588422,3.08956 -2.469444,4.70876 -1.524109,1.31327 -2.903527,1.87 -4.176833,1.87"
         id="path1078" />
      <path
         style="fill:#cccccc;fill-opacity:1;fill-rule:nonzero;stroke:none;stroke-width:0.352778"
         d="m -61.855419,-162.7767 c 5.415693,-0.17501 12.712404,0.78411 21.035755,-4.96783 -8.326106,5.75469 -15.621441,4.79696 -21.035755,4.96783 m 21.037134,-4.96783 c 0.0096,-0.008 0.0193,-0.0165 0.02893,-0.0234 -0.01101,0.007 -0.0193,0.0152 -0.02893,0.0234 m 0.649055,-0.46302 c 0.0014,0 0,0 0,0 1.543402,-0.49196 2.848405,-1.04593 3.96186,-1.65778 -1.112076,0.61185 -2.419837,1.16858 -3.96186,1.65778 m 13.00868,-18.90944 c 1.774914,-4.86999 4.960938,-10.28567 12.657283,-15.94941 0.442348,-0.32522 0.87092,-0.65319 1.288464,-0.98943 -0.417544,0.33624 -0.847492,0.66421 -1.291223,0.99356 -7.694965,5.65961 -10.87961,11.07529 -12.654524,15.94528 m 26.89379567,-42.44495 c 0.98805295,-4.60127 1.91547043,-10.01421 2.87320923,-16.46067 0.4712864,-3.17362 0.6752378,-6.13778 0.6394097,-8.87594 0.037208,2.73816 -0.1681233,5.70232 -0.6380339,8.87594 -0.9591146,6.44371 -1.88653208,11.8594 -2.87458503,16.46067"
         id="path1080" />
      <path
         style="fill:#333335;fill-opacity:1;fill-rule:nonzero;stroke:none;stroke-width:0.352778"
         d="m -40.16923,-168.20617 c 5.587943,-4.07348 7.353212,-9.78958 8.535567,-15.53187 2.716114,-4.57922 3.518133,-9.91223 4.495162,-14.95998 1.190625,-1.76113 2.783639,-3.28111 4.9885,-4.45658 6.388583,-3.39686 13.7914063,-16.12994 17.6278647,-29.00081 3.91500433,-8.11527 6.899836,-17.65543 7.6081467,-25.90023 0.089574,1.01699 0.143316,2.06844 0.1584748,3.15984 0.035828,2.73954 -0.1681197,5.7037 -0.6394097,8.87457 -0.9577352,6.44922 -1.88515624,11.86215 -2.87182983,16.4648 -2.95313807,13.75695 -6.44784297,20.28334 -12.94942767,25.50335 -0.417545,0.33486 -0.846113,0.66422 -1.288465,0.99081 -7.696344,5.66236 -10.882369,11.07805 -12.657282,15.94666 -2.677527,7.34632 -2.138715,13.44276 -9.04682,17.25442 -1.113455,0.61047 -2.418458,1.16719 -3.960481,1.65502"
         id="path1082" />
      <path
         style="fill:#aeaeae;fill-opacity:1;fill-rule:nonzero;stroke:none;stroke-width:0.352778"
         d="m -64.424082,-162.55621 c -2.69682,-2.50666 -4.554414,-4.82452 -2.718869,-6.97012 5.170399,-6.0303 16.369718,1.72255 30.15561,-8.33024 2.359202,-1.71842 4.070724,-3.71657 5.355058,-5.88009 -1.182356,5.73953 -2.947624,11.45425 -8.536947,15.53187 -0.0014,0 0,-0.004 -0.0014,0 0,0 0.0014,0 0,0 -0.206703,0.1502 -0.41341,0.29765 -0.620117,0.43821 -0.0096,0.007 -0.0193,0.0138 -0.02893,0.0221 -8.32335,5.75469 -15.620061,4.7942 -21.035754,4.96783 -0.910883,0.0289 -1.76802,0.0882 -2.568663,0.22049 m 37.285602,-36.14319 c 1.25815,-6.51674 2.801553,-12.56357 9.104697,-15.91221 4.51032,-2.39916 9.4988205,-9.22458 13.5130435,-17.54518 -3.8378342,12.86812 -11.2406575,25.60395 -17.6278645,29.00081 -2.206237,1.17409 -3.799251,2.69407 -4.989876,4.45658"
         id="path1084" />
    </g>
  </g>
</svg>
