<?xml version="1.0" encoding="utf-8"?>
<!-- Generator: Adobe Illustrator 27.4.0, SVG Export Plug-In . SVG Version: 6.00 Build 0)  -->
<svg version="1.1"
	 id="svg289" xmlns:sodipodi="http://sodipodi.sourceforge.net/DTD/sodipodi-0.dtd" xmlns:rdf="http://www.w3.org/1999/02/22-rdf-syntax-ns#" xmlns:inkscape="http://www.inkscape.org/namespaces/inkscape" xmlns:cc="http://creativecommons.org/ns#" xmlns:dc="http://purl.org/dc/elements/1.1/" xmlns:svg="http://www.w3.org/2000/svg" inkscape:version="0.92.4 (5da689c313, 2019-01-14)" sodipodi:docname="student.svg"
	 xmlns="http://www.w3.org/2000/svg" xmlns:xlink="http://www.w3.org/1999/xlink" x="0px" y="0px" viewBox="0 0 176.9 176.8"
	 style="enable-background:new 0 0 176.9 176.8;" xml:space="preserve">
<style type="text/css">
	.st0{fill:#FDE0CA;}
	.st1{fill:#E29078;}
	.st2{opacity:0.5;fill:#E49078;}
	.st3{opacity:0.5;}
	.st4{opacity:0.5;fill:#E29078;}
	.st5{opacity:0.7;}
	.st6{fill:#FFFFFF;}
	.st7{fill:#D2D3D6;}
	.st8{fill:#E71900;}
	.st9{fill:#89211E;}
	.st10{fill:#C96833;}
	.st11{fill:#72370A;}
	.st12{fill:#FFD54C;}
	.st13{fill:#D3A116;}
	.st14{fill:#7CD54C;}
	.st15{fill:#3E8E10;}
	.st16{opacity:0.5;fill:#C96833;}
	.st17{fill:none;}
	.st18{fill:#1B1B18;}
	.st19{fill:#5A5A4F;}
	.st20{fill:none;stroke:#000000;stroke-width:1.5739;stroke-linecap:round;stroke-linejoin:round;stroke-miterlimit:7.9317;}
	.st21{opacity:0.6;fill:#FFF4F0;}
	.st22{fill:#FFF4F0;}
	.st23{fill:#A26531;}
	.st24{fill:#68330B;}
	.st25{opacity:0.5;fill:#A26531;}
	.st26{opacity:0.4;fill:#A26531;}
</style>
<defs>
	
		<inkscape:path-effect  apply_no_weight="true" apply_with_weight="true" effect="bspline" helper_size="0" id="path-effect9762" is_visible="true" only_selected="false" steps="2" weight="33.333333">
		</inkscape:path-effect>
	
		<inkscape:path-effect  apply_no_weight="true" apply_with_weight="true" effect="bspline" helper_size="0" id="path-effect9740" is_visible="true" only_selected="false" steps="2" weight="33.333333">
		</inkscape:path-effect>
	
		<inkscape:path-effect  apply_no_weight="true" apply_with_weight="true" effect="bspline" helper_size="0" id="path-effect9586" is_visible="true" only_selected="false" steps="2" weight="33.333333">
		</inkscape:path-effect>
	
		<inkscape:path-effect  apply_no_weight="true" apply_with_weight="true" effect="bspline" helper_size="0" id="path-effect9740-1" is_visible="true" only_selected="false" steps="2" weight="33.333333">
		</inkscape:path-effect>
</defs>
<sodipodi:namedview  bordercolor="#666666" borderopacity="1.0" fit-margin-bottom="0" fit-margin-left="0" fit-margin-right="0" fit-margin-top="0" id="base" inkscape:current-layer="layer1" inkscape:cx="-209.20158" inkscape:cy="-1.9514653" inkscape:document-units="mm" inkscape:pageopacity="0.0" inkscape:pageshadow="2" inkscape:window-height="705" inkscape:window-maximized="1" inkscape:window-width="1366" inkscape:window-x="-8" inkscape:window-y="-8" inkscape:zoom="0.7" pagecolor="#ffffff" showgrid="false">
	</sodipodi:namedview>
<g>
	<g>
		<g>
			<g>
				<path class="st0" d="M159.7,108.6c0,0-0.2-3.1,1.8-4.5c2-1.4,2.7-3.1,3.8-2.8c1.1,0.3-0.1,3.3-1.5,4c1.9,2.6,3.3,2.9,4.9,2.7
					c1.6-0.2,3.4-1.6,4.7-0.7c1.4,0.8,1.3,1.6-0.8,1.9c-2.1,0.3-2.1,1.2-2.1,1.2s1.1,1.5-0.8,3.1c0.8,1.8,1,1.5-0.6,2.9
					c-1.6,1.5-2.9,1.9-6,1.7c-3.1-0.2-3.3-1-3.3-1L159.7,108.6z"/>
				<g>
					<path class="st1" d="M170.8,110c0,0-0.2,0.4-0.7,0.8c-0.1,0.1-0.3,0.2-0.5,0.3c-0.2,0.1-0.4,0.1-0.6,0.2c-0.2,0-0.4,0-0.6,0
						c-0.2,0-0.4,0-0.6,0c-0.9,0-1.7,0-2.4-0.1c-0.6,0-1.1-0.1-1.1-0.1s0.4-0.1,1.1-0.1c0.7,0,1.5-0.1,2.4-0.1c0.2,0,0.4,0,0.6,0
						c0.2,0,0.4,0,0.6,0c0.2,0,0.4,0,0.5-0.1c0.2,0,0.3-0.1,0.5-0.2c0.1-0.1,0.3-0.2,0.4-0.2c0.1-0.1,0.2-0.1,0.3-0.2
						C170.7,110.1,170.8,110,170.8,110z"/>
					<path class="st1" d="M169.7,113.5c0,0-0.1,0-0.2,0.1c-0.2,0-0.4,0.1-0.7,0.2c-0.3,0-0.6,0.1-1,0.2c-0.4,0-0.7,0-1.1,0
						c-0.2,0-0.4,0-0.6,0c-0.2,0-0.4,0-0.5,0c-0.4,0-0.7,0-1,0c-0.6,0-0.9,0-0.9,0s0.1,0,0.2-0.1c0.2,0,0.4-0.1,0.7-0.2
						c0.3,0,0.6-0.1,1-0.1c0.2,0,0.4,0,0.5,0c0.2,0,0.4,0,0.6,0c0.4,0,0.7,0,1.1,0c0.3,0,0.7,0,1,0
						C169.3,113.5,169.7,113.5,169.7,113.5z"/>
					<path class="st1" d="M169.6,116c0,0-0.1,0.1-0.2,0.2c-0.1,0.1-0.3,0.2-0.6,0.3c-0.1,0.1-0.3,0.1-0.4,0.2
						c-0.2,0-0.3,0.1-0.5,0.1c-0.2,0-0.4,0-0.5,0.1c-0.2,0-0.4,0-0.6,0.1c-0.4,0-0.7,0.1-1.1,0.1c-0.3,0-0.7,0-1,0
						c-0.6,0-0.9,0-0.9,0s0.4-0.1,0.9-0.2c0.6-0.1,1.3-0.2,2-0.3c0.4,0,0.7-0.1,1.1-0.1c0.2,0,0.3,0,0.5,0c0.2,0,0.3-0.1,0.4-0.1
						c0.3,0,0.5-0.1,0.6-0.2C169.5,116,169.6,116,169.6,116z"/>
				</g>
				<path class="st2" d="M165.1,100.9c0.1,0,0.2,0,0.3,0c0.4,0.1,0.6,0.4,0.7,0.9c0.1,1-0.7,2.8-1.8,3.6c1.8,2.3,2.9,2.4,4.4,2.3
					c0.5-0.1,1.1-0.3,1.7-0.5c0.7-0.3,1.4-0.5,2.1-0.5c0.4,0,0.8,0.1,1.2,0.3c0.8,0.5,1.2,1,1.1,1.5c-0.1,0.6-0.8,0.9-2,1.1
					c-1.3,0.2-1.7,0.6-1.8,0.8c0.2,0.5,0.8,1.9-0.8,3.3c0.1,0.1,0.1,0.3,0.2,0.4c0.6,1.2,0.5,1.4-0.7,2.4l-0.3,0.3
					c-1.8,1.6-3.2,2-6.3,1.8c-3.1-0.2-3.6-1-3.6-1.3l0-0.1l-0.1-8.6c0-0.1-0.2-3.3,2-4.8c0.8-0.5,1.4-1.1,1.9-1.7
					C163.9,101.4,164.4,100.9,165.1,100.9z M168,108.4c-1.7,0-3-0.8-4.5-2.9l-0.3-0.3l0.4-0.2c1-0.5,1.9-2.2,1.8-3.1
					c0-0.2-0.1-0.3-0.1-0.3c-0.5-0.1-0.9,0.4-1.5,1c-0.5,0.5-1.1,1.2-2,1.8c-1.8,1.2-1.7,4.1-1.7,4.1l0.1,8.5
					c0.1,0.1,0.6,0.6,2.9,0.7c3.1,0.2,4.3-0.3,5.8-1.6l0.3-0.3c0.9-0.8,0.9-0.8,0.5-1.6c-0.1-0.2-0.2-0.4-0.3-0.6l-0.1-0.3l0.2-0.2
					c1.6-1.3,0.8-2.6,0.8-2.6l-0.1-0.1v-0.1c0-0.1,0.1-1.2,2.4-1.5c1.3-0.2,1.4-0.5,1.4-0.5c0-0.1-0.1-0.3-0.7-0.7
					c-0.7-0.4-1.6-0.1-2.6,0.3c-0.6,0.2-1.2,0.4-1.9,0.5C168.5,108.4,168.2,108.4,168,108.4z"/>
			</g>
			<g>
				<path class="st0" d="M159.7,108.6l0.1,8.6c0,0,0.2,0.8,3.3,1c3.1,0.2,4.4-0.3,6-1.7c1.6-1.5,1.5-1.1,0.6-2.9
					c1.9-1.6,0.8-3.1,0.8-3.1s0-0.9,2.1-1.2c2.1-0.3,2.2-1.1,0.8-1.9c-1.4-0.8-3.1,0.5-4.7,0.7c-1.6,0.2-3-0.1-4.9-2.7
					c1.5-0.7,2.6-3.7,1.5-4c-1.1-0.3-1.8,1.5-3.8,2.8C159.5,105.5,159.7,108.6,159.7,108.6z M162.6,104.2c1.4-1.2,2-1.1,1.5-0.3
					c-0.5,0.8-1.7,0.7-0.9,1.9c0.8,1.2,2.6,3.6,4.1,3.3c1.5-0.3,2.9-0.9,4.1-0.9c1.2,0,0.8,0.6-0.3,0.8c-1,0.3-1.1,1.6-2.5,1.6
					c-1.4,0-4.4,0.3-4.9,0.3c-0.5,0,2.2,0.3,3.7,0.5c1.2,0.1,1.5,1.5-0.7,1.7c-2.2,0.2-5.2,1-2.7,1c2.6,0,3.3,0.5,3.3,1.2
					c0,0.7-1.9,1.2-3.2,1.3c-1.3,0.1-1.6-1-1.5-2.5c0.1-1.5,0.6-3.9,0-5.3c0,0-0.2-0.8-1-1.5C161,106.6,161.2,105.4,162.6,104.2z"/>
			</g>
		</g>
		<g>
			<path class="st0" d="M33.5,76.7c0,0,0.8-2.6-0.6-3.5c-1.5-0.9-3.6-2.3-4.4-4.4c-0.8-2.1-0.8-2.7-2.2-1.6
				c-1.4,1.1-0.1,2.9,0.5,4.2c0.6,1.3-0.9,2.6-2.6,2.3c-1.6-0.3-3.9-0.8-5-2.4c-1.1-1.6-2.4-2.4-3-1.6c-0.6,0.7,1.7,3.6,1.7,3.6
				s-0.7,6.3,1.1,8.7c1.8,2.4,2.9,3.1,4.6,3.7c1.6,0.6,2.3,0.7,2.3,0.7L33.5,76.7z"/>
			<g class="st3">
				<path class="st1" d="M24.3,77.6c0,0-0.5-0.1-1.2-0.4c-0.4-0.1-0.8-0.3-1.2-0.5c-0.4-0.2-0.9-0.4-1.3-0.7
					c-0.2-0.2-0.4-0.3-0.6-0.5c-0.2-0.2-0.3-0.4-0.5-0.5c-0.3-0.4-0.6-0.7-0.8-1c-0.5-0.6-0.7-1-0.7-1s0.4,0.4,0.9,0.9
					c0.3,0.3,0.6,0.6,0.9,0.9c0.2,0.2,0.3,0.3,0.5,0.5c0.2,0.2,0.3,0.3,0.5,0.5c0.4,0.3,0.8,0.5,1.3,0.7c0.4,0.2,0.8,0.4,1.1,0.6
					C23.8,77.3,24.3,77.6,24.3,77.6z"/>
				<path class="st1" d="M20.1,81.4c0,0-0.2-0.1-0.4-0.3c-0.2-0.2-0.6-0.5-0.8-0.8c-0.1-0.2-0.3-0.3-0.4-0.5
					c-0.1-0.2-0.2-0.3-0.3-0.5C18,79.2,18,79.1,18,79c0-0.1,0-0.1,0-0.1s0,0,0.1,0.1c0.1,0.1,0.1,0.2,0.2,0.3
					c0.2,0.2,0.5,0.5,0.8,0.8c0.3,0.3,0.5,0.6,0.7,0.9C20,81.2,20.1,81.4,20.1,81.4z"/>
				<path class="st1" d="M21.9,81c0,0-0.3-0.2-0.8-0.6c-0.4-0.4-1-0.9-1.6-1.5c-0.5-0.6-1-1.2-1.3-1.7c-0.2-0.3-0.2-0.5-0.3-0.7
					c0-0.2-0.1-0.3-0.1-0.3s0,0.1,0.1,0.2c0.1,0.1,0.2,0.3,0.4,0.6c0.2,0.2,0.4,0.5,0.6,0.8c0.2,0.3,0.5,0.6,0.8,0.8
					c0.5,0.6,1,1.2,1.4,1.6C21.6,80.7,21.9,81,21.9,81z"/>
			</g>
			<path class="st4" d="M27.2,66.4L27.2,66.4c0.7,0,0.9,0.6,1.3,1.7c0.1,0.2,0.2,0.4,0.3,0.7c0.7,1.9,2.6,3.2,4.2,4.2
				c1.7,1.1,0.8,3.8,0.8,3.9L33.8,77l-7.7,9.8l-0.2,0c0,0-0.7-0.1-2.4-0.8c-1.7-0.7-2.8-1.4-4.7-3.9c-1.7-2.3-1.3-7.7-1.2-8.8
				c-0.8-1-2.4-3.1-1.6-3.9c0.2-0.3,0.5-0.4,0.9-0.4c0.8,0,1.8,0.8,2.7,2.1c1,1.4,3.2,2,4.8,2.2c0.9,0.1,1.8-0.2,2.1-0.8
				c0.1-0.2,0.2-0.6,0-1c-0.1-0.2-0.2-0.3-0.3-0.5c-0.7-1.3-1.6-3-0.2-4.1C26.6,66.5,26.9,66.4,27.2,66.4z M33.1,76.6
				c0.1-0.4,0.6-2.3-0.5-3c-1.3-0.8-3.6-2.3-4.5-4.6c-0.1-0.3-0.2-0.5-0.3-0.7c-0.2-0.6-0.5-1.2-0.6-1.2c-0.1,0-0.3,0.1-0.7,0.4
				c-0.9,0.7-0.4,1.8,0.4,3.2c0.1,0.2,0.2,0.4,0.3,0.5c0.3,0.5,0.2,1.1-0.1,1.7c-0.5,0.8-1.7,1.3-2.9,1.1c-1.7-0.3-4.1-0.9-5.3-2.5
				c-0.9-1.3-1.7-1.8-2.1-1.8c-0.1,0-0.2,0-0.3,0.1c-0.2,0.2,0.5,1.6,1.7,3.1l0.1,0.1l0,0.2c0,0.1-0.7,6.2,1,8.4
				c1.8,2.3,2.8,3,4.4,3.6c1.1,0.4,1.7,0.6,2,0.7L33.1,76.6z"/>
			<g class="st5">
				<path class="st0" d="M18,73.3c0,0-0.7,6.3,1.1,8.7c1.8,2.4,2.9,3.1,4.6,3.7c1.6,0.6,2.3,0.7,2.3,0.7l7.6-9.7
					c0,0,0.8-2.6-0.6-3.5c-1.5-0.9-3.6-2.3-4.4-4.4c-0.8-2.1-0.8-2.7-2.2-1.6c-1.4,1.1-0.1,2.9,0.5,4.2c0.6,1.3-0.9,2.6-2.6,2.3
					c-1.6-0.3-3.9-0.8-5-2.4c-1.1-1.6-2.4-2.4-3-1.6C15.6,70.5,18,73.3,18,73.3z M21.2,79.6c-1.2-1.4-0.9-2.9,0.1-2.5
					c1,0.4,3.1,1.2,3.3,0.6c0.2-0.5-0.2-1.1-2.2-1.9c-2.1-0.8-2.8-1.9-2.2-2.3c0.5-0.4,3.1,1.1,4.7,1.2c1.6,0.1,4-1.4,3.1-2.8
					c-0.8-1.3-0.4-2.9,0.4-1.4c0.8,1.4,2.6,2.7,2.6,2.7c1.3,1,0.3,1.7-2.4,2.4c-2.7,0.7-3.5,2.9-4.1,4c-0.6,1.2-0.5,3.1-0.2,4.4
					c0.4,1.3-3-1.3-3.9-2.8c-0.9-1.4-0.4-1.3,0.7-0.5C22.3,81.4,22.4,81.1,21.2,79.6z"/>
			</g>
		</g>
		<g>
			<g>
				<g>
					<path class="st6" d="M80.3,46.5c-0.5-3.7-2.3-7.3-5.8-7.5c-4-0.2-5,3.1-5.2,6.5c0,0,0,0,0,0C74,44.1,78,45.4,80.3,46.5z"/>
					<path class="st7" d="M74.2,38.6c0.1,0,0.2,0,0.3,0c3.2,0.1,5.5,3.1,6.1,7.8l0.1,0.7l-0.6-0.3c-1.5-0.7-3.8-1.5-6.6-1.5
						c-1.4,0-2.8,0.2-4.1,0.6L68.9,46l0-0.5C69.2,40.9,70.9,38.6,74.2,38.6z M79.8,45.8c-0.4-2.1-1.6-6.3-5.3-6.5
						C71.5,39.2,70,41,69.7,45c1.3-0.3,2.5-0.5,3.8-0.5C76.1,44.5,78.3,45.2,79.8,45.8z"/>
				</g>
				<g>
					<path class="st8" d="M69.3,45.5c-0.2,3.4,0.2,9.7,0.2,9.7l11.7,0.4c0,0-0.5-3.2-0.7-7.5c0-0.5-0.1-1.1-0.1-1.7
						C78,45.4,74,44.1,69.3,45.5z"/>
					<path class="st9" d="M73.5,44.5L73.5,44.5c2.9,0,5.4,0.9,6.9,1.6l0.2,0.1l0,0.2c0.1,0.6,0.1,1.1,0.2,1.7
						c0.2,4.2,0.7,7.4,0.7,7.4l0.1,0.4l-12.5-0.4l0-0.3c0-0.1-0.4-6.4-0.2-9.8l0-0.3l0.2-0.1C70.6,44.7,72.1,44.5,73.5,44.5z
						 M80,46.7c-1.5-0.7-3.7-1.4-6.4-1.4l0,0c-1.3,0-2.6,0.2-3.9,0.5c-0.1,2.9,0.1,7.8,0.2,9.1l10.9,0.3c-0.2-1-0.5-3.7-0.7-7.1
						C80.1,47.6,80,47.2,80,46.7z"/>
				</g>
				<g class="st3">
					<path class="st9" d="M72.5,48.3c0,1.7,0.6,3.2-0.5,4c-0.6,0.4-1.7,0.9-2.6,1.3c0,1,0.1,1.6,0.1,1.6l11.7,0.4c0,0-0.1-0.7-0.3-2
						c-1.3-0.6-3-1.5-3.1-2.4c-0.2-1.5,0-2.7,0-3.7c0-0.5,1.4-0.9,2.5-1.1c0,0,0,0,0,0c-2.3-1.1-6.3-2.3-11-0.9c0,0.2,0,0.4,0,0.6
						C70.8,46.6,72.5,47.4,72.5,48.3z"/>
				</g>
			</g>
			<g>
				<path class="st6" d="M77,49.6c0,0-0.3-0.1-0.8-0.3c-0.4-0.2-1-0.6-1.5-0.9c-0.5-0.4-1-0.8-1.3-1.2c-0.3-0.4-0.5-0.6-0.5-0.6
					s0.3,0.1,0.8,0.3c0.4,0.2,1,0.6,1.5,0.9c0.5,0.4,1,0.8,1.3,1.2C76.8,49.3,77,49.6,77,49.6z"/>
				<path class="st6" d="M73.5,49.8c0,0,0.1-0.3,0.3-0.7c0.2-0.4,0.5-0.9,0.9-1.3c0.4-0.4,0.8-0.8,1.1-1.1c0.3-0.3,0.6-0.4,0.6-0.4
					s-0.1,0.3-0.3,0.7c-0.2,0.4-0.5,0.9-0.9,1.3c-0.4,0.4-0.8,0.8-1.1,1.1C73.8,49.7,73.5,49.8,73.5,49.8z"/>
				<path class="st6" d="M77,52.8c0,0-0.3,0-0.6-0.2c-0.4-0.1-0.8-0.3-1.2-0.6c-0.4-0.3-0.8-0.6-1-0.9c-0.3-0.3-0.4-0.5-0.4-0.5
					s0.3,0,0.6,0.2c0.4,0.1,0.8,0.3,1.2,0.6c0.4,0.3,0.8,0.6,1,0.9C76.8,52.5,77,52.8,77,52.8z"/>
				<path class="st6" d="M76.7,50.6c0,0-0.1,0.2-0.4,0.5c-0.2,0.3-0.6,0.6-1,0.9c-0.4,0.3-0.8,0.5-1.2,0.6c-0.3,0.1-0.6,0.2-0.6,0.2
					s0.1-0.2,0.4-0.5c0.2-0.3,0.6-0.6,1-0.9c0.4-0.3,0.8-0.5,1.2-0.6C76.4,50.6,76.7,50.6,76.7,50.6z"/>
			</g>
			<g>
				<path class="st7" d="M80.3,46.5c-0.5-3.7-2.3-7.3-5.8-7.5c-4-0.2-5,3.1-5.2,6.5c0,0,0,0,0,0C74,44.1,78,45.4,80.3,46.5z
					 M73.8,40.2c2.6-0.2,5.5,4.3,4,4.1c0,0-3.1-0.9-5.4-0.6C70.3,44.1,71.2,40.4,73.8,40.2z"/>
			</g>
		</g>
		<g>
			<g>
				<g>
					<path class="st6" d="M102.7,24.2c-0.2-0.4-0.3-0.7-0.5-1.1c-3.5-5.2-6.4-5-8-3.6c-1.5,1.3-2.5,3.7-2.2,7.6
						C95.4,25,100.1,24.4,102.7,24.2z"/>
					<path class="st7" d="M96.4,18.3L96.4,18.3c1.4,0,3.5,0.8,6.1,4.6c0.2,0.4,0.4,0.8,0.5,1.1l0.2,0.5l-0.5,0
						c-2.4,0.2-7.1,0.8-10.6,2.9l-0.5,0.3l0-0.6c-0.3-3.6,0.5-6.3,2.3-7.9C94.6,18.7,95.5,18.3,96.4,18.3z M102.1,23.9
						c-0.1-0.2-0.2-0.4-0.3-0.6c-2.3-3.5-4.3-4.2-5.5-4.2l0,0c-0.7,0-1.4,0.3-2,0.8c-1.6,1.4-2.3,3.7-2.1,6.7
						C95.5,24.7,99.6,24.1,102.1,23.9z"/>
				</g>
				<g>
					<path class="st8" d="M92,28.3c0.6,4.6,2.9,8.8,2.9,8.8l10.2-1.6c0,0-0.2-6.2-2.5-11.2c-2.6,0.2-7.2,0.8-10.8,3
						C91.9,27.6,92,27.9,92,28.3z"/>
					<path class="st9" d="M102.9,23.8L103,24c2.3,5.1,2.5,11.1,2.5,11.4l0,0.3l-10.8,1.7l-0.1-0.2c-0.1-0.2-2.3-4.2-3-8.9
						c-0.1-0.4-0.1-0.8-0.1-1.2l0-0.2l0.2-0.1c3.6-2.3,8.4-2.9,10.9-3.1L102.9,23.8z M104.8,35.1c-0.1-1.3-0.5-6.3-2.3-10.6
						c-2.5,0.2-6.8,0.8-10.1,2.8c0,0.3,0.1,0.6,0.1,0.9c0.5,3.9,2.3,7.5,2.8,8.4L104.8,35.1z"/>
				</g>
				<g class="st3">
					<path class="st9" d="M95.1,28.5c0.5,1.6,1.7,3.1,0.7,4.4c-0.5,0.7-1.2,1.8-1.7,2.7c0.4,0.9,0.7,1.5,0.7,1.5l10.2-1.6
						c0,0,0-0.9-0.2-2.4c-0.9-0.6-2-1.3-2.8-1.7c-1.6-0.7-0.9-1.5-1.2-3.6c-0.2-1.6,0.7-2.5,1.9-3.2c-0.1-0.1-0.1-0.3-0.2-0.4
						c-2.6,0.2-7.2,0.8-10.8,3c0,0.2,0,0.4,0.1,0.5C93.2,27.6,94.8,27.5,95.1,28.5z"/>
				</g>
			</g>
			<g>
				<path class="st6" d="M101.5,32.3c0,0-0.3,0-0.8-0.1c-0.5-0.1-1.1-0.3-1.7-0.5c-0.6-0.2-1.2-0.5-1.6-0.8
					c-0.4-0.2-0.7-0.5-0.7-0.5s0.3,0,0.8,0.1c0.5,0.1,1.1,0.3,1.7,0.5c0.6,0.2,1.2,0.5,1.6,0.8C101.2,32.1,101.5,32.3,101.5,32.3z"
					/>
				<path class="st6" d="M97.3,33c0,0,0.1-0.3,0.3-0.6c0.2-0.4,0.5-0.8,0.9-1.2c0.4-0.4,0.8-0.7,1.1-1c0.3-0.2,0.6-0.3,0.6-0.3
					s-0.1,0.3-0.3,0.6c-0.2,0.4-0.5,0.8-0.9,1.2c-0.4,0.4-0.8,0.7-1.1,1C97.6,32.9,97.3,33,97.3,33z"/>
				<path class="st6" d="M99.9,28.8c0,0-0.3,0-0.8,0c-0.4-0.1-1-0.2-1.6-0.4c-0.5-0.2-1.1-0.4-1.5-0.7c-0.4-0.2-0.6-0.4-0.6-0.4
					s0.3,0,0.8,0c0.4,0.1,1,0.2,1.6,0.4c0.5,0.2,1.1,0.4,1.5,0.7C99.7,28.6,99.9,28.8,99.9,28.8z"/>
				<path class="st6" d="M97,29.6c0,0,0.1-0.3,0.2-0.7c0.2-0.4,0.5-0.9,0.8-1.3c0.3-0.4,0.7-0.9,1-1.1c0.3-0.3,0.6-0.4,0.6-0.4
					s-0.1,0.3-0.2,0.7c-0.2,0.4-0.5,0.9-0.8,1.3c-0.3,0.4-0.7,0.9-1,1.1C97.3,29.4,97,29.6,97,29.6z"/>
			</g>
			<g>
				<path class="st7" d="M91.9,27.2c3.5-2.2,8.2-2.8,10.8-3c-0.2-0.4-0.3-0.7-0.5-1.1c-3.5-5.2-6.4-5-8-3.6
					C92.6,20.9,91.6,23.2,91.9,27.2z M96.2,19.7c3-0.5,5.1,3.8,3.1,3.9c0,0-2.6,0.2-4.6,1.1C92.9,25.6,93.3,20.2,96.2,19.7z"/>
			</g>
		</g>
		<g>
			<path class="st10" d="M122.8,78.6c0,0,3.8-3.9-0.4-8.4c-1.5-12.2-3.4-14.5-5.4-16.9c-2.2-3.3-4.2-7.1-5.6-11.1
				c-1.4-4-4.1-5.4-5.8-7c-1.7-1.6-4.3-2-7.7-1.4c-3.5,0.6-3.2,2.8-4.6,6.7c-1.4,3.9-3.2,15.9-3.2,22.3c-3.2-1.6-4.7-5.7-7.3-7.3
				c-2.6-1.6-8.5-3.3-12.2-1.6c-3.7,1.6-5.9,4.2-8.3,9.8c-2.4,5.6-5.6,11.3-3.7,16.2c5.2-4.4,25.3-11.3,35-11.5
				C103.3,68.1,122.8,78.6,122.8,78.6z"/>
			<path class="st11" d="M100.6,33.2c2.2,0,3.9,0.6,5.1,1.8c0.4,0.3,0.8,0.7,1.2,1c1.6,1.3,3.5,2.9,4.7,6.1c1.4,4,3.4,7.8,5.6,11
				c1.9,2.2,3.9,4.4,5.4,16.9c4.2,4.7,0.4,8.7,0.3,8.8l-0.1,0.1l-0.2-0.1c-0.2-0.1-19.3-10.3-28.9-10.3h-0.2
				c-9.8,0.1-29.7,7.1-34.8,11.4l-0.3,0.2l-0.1-0.4c-1.7-4.4,0.5-9.4,2.7-14.3c0.3-0.7,0.6-1.4,0.9-2.1c2.4-5.5,4.7-8.2,8.5-9.9
				c1-0.5,2.3-0.7,3.8-0.7c3.4,0,6.9,1.2,8.7,2.3c1.3,0.8,2.2,2,3.3,3.4c1.1,1.4,2.2,2.8,3.6,3.7c0.1-6.4,1.8-18.1,3.2-21.9
				c0.3-0.9,0.6-1.7,0.8-2.4c0.7-2.4,1.2-4,4-4.5C98.8,33.3,99.8,33.2,100.6,33.2z M122.7,78.3c0.6-0.7,3-4-0.5-7.9l-0.1-0.1l0-0.1
				c-1.6-12.4-3.5-14.6-5.3-16.7c-2.2-3.3-4.2-7.1-5.6-11.2c-1.1-3.1-2.9-4.5-4.5-5.9c-0.4-0.4-0.8-0.7-1.2-1c-1.6-1.5-4-2-7.5-1.4
				c-2.5,0.4-2.9,1.8-3.6,4.1c-0.2,0.7-0.4,1.5-0.8,2.4c-1.4,3.9-3.1,15.9-3.1,22.2v0.4L90,63c-1.8-0.9-3-2.5-4.2-4.1
				c-1-1.3-2-2.5-3.1-3.3c-1.8-1.1-5.3-2.3-8.4-2.3c-1.4,0-2.6,0.2-3.5,0.7c-3.7,1.6-5.8,4.1-8.2,9.6c-0.3,0.7-0.6,1.4-0.9,2.1
				c-2.1,4.6-4.3,9.4-2.9,13.5c5.6-4.4,25.1-11.1,34.9-11.3l0.2,0C103.1,68,120.6,77.1,122.7,78.3z"/>
		</g>
		<g class="st3">
			<path class="st10" d="M58.6,79.7c5.2-4.4,25.3-11.3,35-11.5c9.7-0.1,29.2,10.3,29.2,10.3s3.8-3.9-0.4-8.4
				c-1.5-12.2-3.4-14.5-5.4-16.9c-2.2-3.3-4.2-7.1-5.6-11.1c-1.4-4-4.1-5.4-5.8-7c-1.7-1.6-4.3-2-7.7-1.4c-3.5,0.6-3.2,2.8-4.6,6.7
				c-1.4,3.9-3.2,15.9-3.2,22.3c-3.2-1.6-4.7-5.7-7.3-7.3c-2.6-1.6-8.5-3.3-12.2-1.6c-3.7,1.6-5.9,4.2-8.3,9.8
				C59.8,69.1,56.7,74.8,58.6,79.7z M107.2,44.2c8.3,3.6,6.1,7.5,9.2,10.7c3.2,3.2,4.1,9,0.5,7.3c-3.6-1.7-3.9,0.5-1,4.1
				c2.9,3.6,3.9,5.1,1,3.9c0,0-6.8-4.6-14.1-6.1c-7.3-1.5,0.5-2.7,6.3-5.1c5.8-2.4,2.9-2.7-4.4-1.5c-7.3,1.2-9.7,3.2-9.7-4.1
				C95,46.1,98.9,40.5,107.2,44.2z M65.6,61.7c1.2-2.9,4.4-3.2,10.7-3.4c6.3-0.2,7.8,1.9,3.6,3.9c-4.1,1.9-5.8,4.1,2.4,2.9
				c8.3-1.2,13.4,1.2,9.5,1c0,0-11.2,0-22.1,4.1c-7.3,2.9-2.9-1-1.2-2.7c1.7-1.7,1-0.7-2.9-0.2C61.7,67.8,64.4,64.6,65.6,61.7z"/>
		</g>
		<g>
			<path class="st12" d="M158.9,117.6c0,0,2.7-0.5,3-2.2c0.3-1.7,0.7-6.5-2-7.9C158.5,107,158.9,117.6,158.9,117.6z"/>
			<path class="st13" d="M159.8,107.1C159.8,107.1,159.8,107.1,159.8,107.1c0.1,0,0.1,0,0.2,0c3.3,1.8,2.4,7.6,2.2,8.3
				c-0.3,1.9-3.1,2.5-3.2,2.5l-0.4,0.1l0-0.4c-0.1-1.5-0.3-9.2,0.8-10.3C159.5,107.1,159.6,107.1,159.8,107.1z M159.2,117.1
				c0.7-0.2,2.1-0.8,2.3-1.8c0.1-0.6,1-5.9-1.7-7.5C159.3,108.5,159.1,113,159.2,117.1z"/>
		</g>
		<g>
			<path class="st12" d="M34,77.4c0,0,0.5-1.8-2.8-1.6s-7.2,3.3-5.7,7.3C27.7,79.9,34,77.4,34,77.4z"/>
			<path class="st13" d="M31.8,75.4L31.8,75.4c1.1,0,1.9,0.3,2.3,0.8c0.4,0.5,0.3,1,0.3,1.3l0,0.2l-0.2,0.1c-0.1,0-6.2,2.6-8.3,5.6
				l-0.4,0.6l-0.2-0.7c-0.6-1.6-0.4-3.2,0.5-4.6c1.1-1.7,3.4-3,5.5-3.2C31.4,75.4,31.6,75.4,31.8,75.4z M33.7,77.1
				c0-0.1,0-0.3-0.2-0.5c-0.3-0.3-0.9-0.5-1.7-0.5l0,0c-0.2,0-0.4,0-0.5,0c-2,0.1-4,1.3-5,2.9c-0.7,1-0.9,2.1-0.6,3.3
				C27.9,79.7,32.6,77.6,33.7,77.1z"/>
		</g>
		<g>
			<path class="st14" d="M27,94.2c-0.9-1.3-2.4-2.6-1.1-6c-0.2-2.9-0.9-6.2,1.1-8.2c2-2,6.6-4.6,8-1.3c1.5,0,2.6-1.1,6.7,4.6
				c3.1,0.7,3.6,1.3,6.6,6.7c2.6,0.4,4.9,2,4.9,2s0.5-0.9,3.1-5.3c0.7-3.8,1.8-8.8,6.7-11.7c4.9-2.9,20.1-7.3,31.7-7.5
				c11.7-0.2,25.4,5.8,28.6,9.7c3.3,3.8,7.5,12.6,9.3,15.5c1.8,2.9,4.4,4.9,5.5,5.1c1.1,0.2,2.7-0.2,3.8,1.1
				c1.1,1.3,1.1,2.2,4.2,2.2c3.1,0,7.5,1.8,10.8,3.5c3.3,1.6,3.3,4.4,3.3,9.1c0,4.7-2.9,5.1-12.8,12.4c-2.1,1.5-2.7,0.7-9.5-1.5
				c-2.9,3.3-8.6,4.6-8.6,4.6s-53.4,2.9-61.6,0c-8.2-2.9-19-7.1-20.6-8.2c-1.6-1.1-3.6-6.6-5.7-9.7c-2-3.1-4.6-2.6-7.8-6.4
				C30.5,101.1,27,94.2,27,94.2z"/>
			<path class="st15" d="M95.4,67.2c11.6,0,25,5.9,28.4,9.8c2.3,2.7,5,7.8,7.1,11.5c0.9,1.7,1.7,3.2,2.3,4.1
				c1.8,2.8,4.2,4.8,5.2,4.9c0.3,0,0.6,0.1,0.9,0.1c1,0,2.3,0.1,3.2,1.2c0.2,0.2,0.4,0.5,0.5,0.7c0.7,0.9,1,1.4,3.4,1.4
				c3.2,0,7.7,1.9,10.9,3.5c3.5,1.7,3.5,4.6,3.5,9.4c0,3.7-1.8,5-6.7,8.3c-1.7,1.1-3.7,2.6-6.3,4.4c-0.7,0.5-1.4,0.9-2.2,0.9
				c-0.9,0-2.1-0.4-4.1-1.1c-0.9-0.3-1.9-0.7-3.2-1.1c-3,3.2-8.4,4.4-8.6,4.5c-0.3,0-24,1.3-42.1,1.3c-10.6,0-17.3-0.4-19.7-1.3
				c-8.4-3-19-7.2-20.7-8.2c-1.1-0.7-2.2-3-3.4-5.4c-0.8-1.5-1.5-3.1-2.3-4.3c-1-1.5-2-2.1-3.3-2.8c-1.3-0.7-2.8-1.6-4.5-3.5
				c-3.3-3.8-6.8-10.8-6.8-10.8c-0.1-0.1-0.2-0.2-0.3-0.4c-0.9-1.2-2-2.6-0.9-5.9c0-0.5-0.1-0.9-0.1-1.4c-0.2-2.6-0.5-5.2,1.3-7
				c1.4-1.4,3.9-3,5.9-3c1.2,0,2.1,0.5,2.6,1.6c0.1,0,0.2,0,0.3,0c0.2,0,0.4,0,0.7,0c1.4,0,2.9,0.8,5.7,4.7c3.1,0.7,3.8,1.4,6.6,6.7
				c2,0.3,3.8,1.4,4.6,1.8c0.3-0.5,1.1-1.9,2.9-4.9c0.8-4.4,2.1-9,6.9-11.9c4.8-2.9,20.1-7.3,31.9-7.5C95,67.2,95.2,67.2,95.4,67.2z
				 M145.5,126.5c0.6,0,1.1-0.2,1.8-0.7c2.5-1.9,4.6-3.3,6.3-4.4c4.9-3.3,6.3-4.3,6.3-7.7c0-4.7,0-7.3-3.1-8.8
				c-3.1-1.6-7.5-3.4-10.6-3.4c-2.6,0-3.2-0.6-4-1.7c-0.1-0.2-0.3-0.4-0.5-0.6c-0.7-0.8-1.7-0.9-2.6-0.9c-0.3,0-0.7,0-1-0.1
				c-1.3-0.2-3.9-2.4-5.7-5.3c-0.6-0.9-1.4-2.4-2.3-4.1c-2-3.7-4.7-8.7-7-11.4c-3.3-3.8-17-9.7-28.3-9.5
				c-11.7,0.2-26.8,4.6-31.6,7.4c-4.6,2.7-5.8,7.1-6.6,11.4l0,0.1c-2.6,4.4-3.1,5.3-3.1,5.3l-0.2,0.3l-0.3-0.2c0,0-2.3-1.6-4.8-1.9
				l-0.2,0L48,90.1c-2.9-5.4-3.3-5.9-6.3-6.6l-0.1,0l-0.1-0.1c-3.5-4.8-4.7-4.6-5.8-4.5c-0.2,0-0.4,0-0.6,0h-0.2l-0.1-0.2
				c-0.4-0.9-1.1-1.4-2.1-1.4c-1.7,0-4,1.4-5.4,2.7c-1.6,1.6-1.3,4-1.1,6.5c0,0.5,0.1,1,0.1,1.5l0,0.1l0,0.1
				c-1.1,2.9-0.2,4.1,0.7,5.2c0.1,0.1,0.2,0.3,0.3,0.4c0.1,0.1,3.5,7,6.7,10.7c1.6,1.9,3,2.7,4.3,3.4c1.3,0.7,2.5,1.4,3.6,3
				c0.8,1.2,1.6,2.8,2.4,4.4c1.1,2.2,2.3,4.6,3.2,5.2c1.6,1.1,12.2,5.2,20.5,8.2c2.4,0.8,8.9,1.3,19.5,1.3c18,0,41.8-1.3,42-1.3
				c0,0,5.5-1.3,8.3-4.4l0.2-0.2l0.2,0.1c1.4,0.5,2.5,0.8,3.5,1.2C143.6,126.1,144.7,126.5,145.5,126.5z"/>
		</g>
		<g>
			<path class="st14" d="M27,94.2c0,0,3.5,6.9,6.7,10.8c3.3,3.8,5.8,3.3,7.8,6.4c2,3.1,4,8.6,5.7,9.7c1.6,1.1,12.4,5.3,20.6,8.2
				c8.2,2.9,61.6,0,61.6,0s5.7-1.3,8.6-4.6c6.7,2.2,7.4,3,9.5,1.5c9.8-7.3,12.8-7.7,12.8-12.4c0-4.7,0-7.5-3.3-9.1
				c-3.3-1.6-7.7-3.5-10.8-3.5c-3.1,0-3.1-0.9-4.2-2.2c-1.1-1.3-2.7-0.9-3.8-1.1c-1.1-0.2-3.6-2.2-5.5-5.1c-1.8-2.9-6-11.7-9.3-15.5
				c-3.3-3.8-17-9.8-28.6-9.7C83.2,67.7,68,72.1,63.1,75c-4.9,2.9-6,7.8-6.7,11.7c-2.6,4.4-3.1,5.3-3.1,5.3s-2.4-1.6-4.9-2
				c-2.9-5.5-3.5-6-6.6-6.7c-4.2-5.7-5.3-4.6-6.7-4.6c-1.5-3.3-6-0.7-8,1.3c-2,2-1.3,5.3-1.1,8.2C24.6,91.6,26.1,92.9,27,94.2z
				 M142.9,113.5c1.9-3.6,1.7-10,5.6-6.8c3.9,3.2,7.3,7.3,6.3,4.1c-1-3.2-0.5-6.6,2.2-2.9c2.7,3.6,0,10-4.9,13.4
				c-4.9,3.4-8.5,1.7-4.6-1c3.9-2.7,5.3-6.8,0.5-3.6c0,0-5.8,5.4-9.7,5.1c-3.9-0.2-3.6-2.7-3.9-4.6
				C134.2,115.2,141.3,116.5,142.9,113.5z M64.9,89.4c7.5-6.3,6.1-7.5,1.9-4.9c-4.1,2.7-4.6-0.5-4.6-3.2c0-2.7,14.1-9.5,26.7-10.7
				c12.6-1.2,18.2,1.5,26.7,6.1c8.5,4.6,0.7,1.9-6.1,0c-6.8-1.9,0.2,2.2,8,6.6c7.8,4.4,21.4,22.9,17,24.3c0,0-4.6,0-5.8-2.4
				c-1.2-2.4-3.6-5.8-10-10.2c-6.3-4.4-16.5-5.6-18.2-8c-1.7-2.4-4.6-4.1-6.8-1c-2.2,3.2-6.8,2.7-12.4,5.1
				c-5.6,2.4-12.4,10-14.8,15.6c-2.4,5.6-5.3,4.1-10.2,2.9C51.5,108.4,52,97.9,64.9,89.4z M55.3,115.3c3.3,0.9,7.5,1.5,7.3,4
				c-0.2,2.6,1.3,6.4-2.4,4.7c0,0-6.2-1.5-9.3-3.3c-3.1-1.8-3.6-3.8-4.6-5.8C45.4,112.9,52,114.4,55.3,115.3z M35.4,85.6
				c6.5,0.5,8.6,2.8,2.5,2.8c-6.2,0-0.6,2.5,3.7,3.9c4.3,1.4,7.9,6.3,7.4,9.4c-0.5,3.1-1.7,8.3-1.7,8.3c-0.3,4.2-9.2-4.6-12.3-9.4
				c-3.1-4.8-5.7-4.9-5.7-7.7C29.2,90,28.9,85.1,35.4,85.6z"/>
		</g>
		<g>
			<path class="st11" d="M103.4,65.8c0,0-0.4-0.1-1.1-0.2c-0.7-0.2-1.7-0.3-2.8-0.6c-1.2-0.3-2.5-0.5-4-0.9
				c-0.7-0.2-1.5-0.3-2.2-0.5c-0.8-0.1-1.5-0.3-2.3-0.4c-0.4-0.1-0.8-0.2-1.1-0.2c-0.4,0-0.8-0.1-1.2-0.1c-0.8,0-1.5-0.1-2.2,0
				c-0.7,0-1.4,0.1-2.1,0.2c-0.7,0.1-1.3,0.2-1.9,0.3c-2.3,0.5-3.9,0.8-3.9,0.8s0.4-0.1,1-0.3c0.7-0.2,1.6-0.5,2.8-0.8
				c0.6-0.1,1.2-0.3,1.9-0.4c0.7-0.1,1.4-0.3,2.1-0.3c0.4,0,0.8-0.1,1.2-0.1c0.4,0,0.8,0,1.2,0c0.4,0,0.8,0.1,1.2,0.1
				c0.4,0,0.8,0.1,1.2,0.2c0.8,0.2,1.6,0.3,2.3,0.5c0.8,0.1,1.5,0.4,2.2,0.5c1.4,0.4,2.8,0.7,3.9,1.1
				C101.9,65.3,103.4,65.8,103.4,65.8z"/>
			<path class="st11" d="M122.4,70.2c0,0-0.5-0.4-1.3-1.1c-0.4-0.3-0.8-0.7-1.3-1.1c-0.5-0.4-0.9-0.9-1.4-1.3
				c-0.9-0.9-1.9-1.8-2.6-2.5c-0.3-0.4-0.7-0.6-0.9-0.8c-0.2-0.2-0.3-0.3-0.3-0.3s0.2,0.1,0.4,0.2c0.3,0.1,0.7,0.3,1.1,0.6
				c0.4,0.3,0.9,0.6,1.4,1c0.5,0.4,1,0.8,1.5,1.3c1,0.9,1.8,1.9,2.5,2.7C122,69.6,122.4,70.2,122.4,70.2z"/>
			<path class="st11" d="M58.3,77c0,0,0-0.2,0-0.5c0-0.3,0.1-0.8,0.2-1.3c0.1-0.3,0.2-0.6,0.3-0.9c0.1-0.3,0.2-0.6,0.4-0.9
				c0.2-0.3,0.3-0.6,0.5-0.9c0.2-0.3,0.4-0.6,0.7-0.9c0.2-0.3,0.5-0.5,0.8-0.8c0.3-0.3,0.5-0.5,0.8-0.7c0.3-0.2,0.6-0.4,0.8-0.6
				c0.3-0.2,0.5-0.3,0.8-0.4c0.5-0.3,0.9-0.4,1.2-0.5c0.3-0.1,0.5-0.2,0.5-0.2s-0.1,0.1-0.4,0.3c-0.1,0.1-0.3,0.2-0.5,0.3
				c-0.2,0.1-0.4,0.3-0.6,0.4c-0.2,0.2-0.5,0.3-0.7,0.5c-0.2,0.2-0.5,0.4-0.7,0.6c-0.2,0.2-0.5,0.5-0.7,0.7
				c-0.2,0.3-0.5,0.5-0.7,0.8c-0.2,0.3-0.4,0.5-0.6,0.8c-0.2,0.3-0.4,0.6-0.6,0.8c-0.3,0.6-0.6,1.1-0.8,1.6
				c-0.2,0.5-0.4,0.9-0.5,1.2C58.4,76.8,58.3,77,58.3,77z"/>
			<path class="st11" d="M93.6,63.4c0,0,0.2-0.2,0.6-0.5c0.4-0.3,1-0.8,1.7-1.2c0.7-0.5,1.6-1,2.5-1.5c0.5-0.2,1-0.5,1.5-0.7
				c0.5-0.2,1.1-0.4,1.6-0.6c0.5-0.2,1.1-0.4,1.6-0.5c0.5-0.2,1.1-0.3,1.6-0.4c0.5-0.1,1-0.2,1.5-0.3c0.5-0.1,0.9-0.1,1.4-0.2
				c0.9-0.1,1.6-0.1,2.1-0.1c0.5,0,0.8,0,0.8,0s-0.3,0.1-0.8,0.1c-0.2,0-0.5,0.1-0.9,0.1c-0.3,0.1-0.7,0.2-1.1,0.2
				c-0.4,0.1-0.9,0.2-1.3,0.3c-0.5,0.1-1,0.2-1.5,0.4c-1,0.3-2.1,0.6-3.1,1c-1.1,0.4-2.1,0.8-3.1,1.2c-1,0.4-1.9,0.8-2.6,1.2
				c-0.8,0.4-1.4,0.7-1.8,1C93.8,63.3,93.6,63.4,93.6,63.4z"/>
			<path class="st11" d="M112.5,45.2c0,0-0.1-0.1-0.4-0.3c-0.2-0.2-0.6-0.5-1-0.8c-0.4-0.3-1-0.7-1.5-1.1c-0.6-0.3-1.2-0.7-1.9-1
				c-0.6-0.3-1.3-0.6-1.9-0.8c-0.3-0.1-0.6-0.2-0.9-0.3c-0.3-0.1-0.6-0.2-0.9-0.2c-0.3-0.1-0.5-0.1-0.7-0.2c-0.2,0-0.4-0.1-0.6-0.1
				c-0.3-0.1-0.5-0.1-0.5-0.1s0.2,0,0.5,0c0.3,0,0.8-0.1,1.4,0c0.3,0,0.6,0,0.9,0.1c0.3,0.1,0.7,0.1,1,0.2c0.3,0.1,0.7,0.2,1,0.3
				c0.3,0.1,0.7,0.3,1,0.4c0.3,0.2,0.7,0.4,1,0.5c0.3,0.2,0.6,0.4,0.9,0.6c0.6,0.4,1.1,0.9,1.4,1.3c0.4,0.4,0.7,0.8,0.9,1
				C112.4,45,112.5,45.2,112.5,45.2z"/>
			<path class="st11" d="M106.2,36.2c0,0-0.7-0.1-1.7-0.2c-0.5,0-1.1-0.1-1.7-0.1c-0.6,0-1.3,0-1.9,0.1c-0.3,0-0.7,0.1-1,0.1
				c-0.3,0.1-0.6,0.1-0.9,0.2c-0.3,0.1-0.6,0.1-0.9,0.2c-0.3,0.1-0.5,0.2-0.8,0.3c-0.2,0.1-0.4,0.2-0.6,0.3
				c-0.2,0.1-0.3,0.2-0.5,0.2c-0.3,0.1-0.4,0.2-0.4,0.2s0.1-0.1,0.3-0.3c0.1-0.1,0.3-0.2,0.4-0.4c0.2-0.1,0.4-0.3,0.6-0.4
				c0.2-0.2,0.5-0.3,0.7-0.4c0.3-0.1,0.6-0.3,0.9-0.4c0.6-0.2,1.3-0.3,2-0.4c0.7-0.1,1.4-0.1,2,0c0.7,0.1,1.2,0.2,1.8,0.3
				C105.6,35.9,106.2,36.2,106.2,36.2z"/>
		</g>
		<g>
			<path class="st15" d="M149.9,117.5c0,0-0.1,0.2-0.4,0.5c-0.3,0.3-0.6,0.7-1.1,1.2c-0.5,0.4-1.1,1-1.7,1.5c-0.7,0.5-1.4,1-2.2,1.5
				c-0.4,0.2-0.8,0.4-1.2,0.6c-0.4,0.2-0.8,0.3-1.2,0.4c-0.4,0.1-0.8,0.2-1.2,0.3c-0.4,0.1-0.7,0.1-1,0.2c-0.3,0.1-0.6,0.2-0.8,0.3
				c-0.2,0.1-0.4,0.2-0.6,0.3c-0.3,0.2-0.5,0.3-0.5,0.3s0.2-0.2,0.4-0.4c0.1-0.1,0.3-0.3,0.5-0.4c0.2-0.2,0.5-0.3,0.8-0.5
				c0.3-0.2,0.7-0.3,1-0.4c0.4-0.1,0.7-0.2,1.1-0.3c0.4-0.1,0.7-0.3,1.1-0.5c0.4-0.2,0.8-0.4,1.1-0.6c0.7-0.5,1.5-0.9,2.2-1.3
				c0.7-0.5,1.3-0.9,1.8-1.3c0.5-0.4,1-0.7,1.3-1C149.7,117.6,149.9,117.5,149.9,117.5z"/>
			<path class="st15" d="M141.9,112.4c0,0-0.2,0.1-0.5,0.3c-0.3,0.2-0.8,0.5-1.4,0.7c-0.3,0.1-0.6,0.2-1,0.4
				c-0.4,0.1-0.7,0.2-1.1,0.3c-0.4,0.1-0.8,0.1-1.2,0.2c-0.4,0-0.9,0-1.3,0c-1.7-0.1-3.3-0.3-4.6-0.5c-0.6-0.1-1.1-0.1-1.5-0.2
				c-0.4,0-0.6-0.1-0.6-0.1s0.2,0,0.6-0.1c0.4,0,0.9-0.1,1.5-0.1c1.3,0,2.9,0,4.6,0.2c0.4,0,0.8,0,1.2,0.1c0.4,0,0.8-0.1,1.2-0.1
				c0.4-0.1,0.7-0.1,1.1-0.2c0.3-0.1,0.7-0.2,1-0.2c0.3-0.1,0.6-0.2,0.8-0.2c0.2-0.1,0.4-0.2,0.6-0.2
				C141.7,112.5,141.9,112.4,141.9,112.4z"/>
			<path class="st15" d="M140.4,105.8c0,0-0.3-0.5-0.9-1.3c-0.3-0.4-0.7-1-1.1-1.6c-0.4-0.6-0.8-1.3-1.3-2.1c-0.9-1.5-2-3.3-3.2-5.2
				c-0.1-0.2-0.3-0.5-0.4-0.7c-0.2-0.2-0.3-0.5-0.5-0.7c-0.3-0.5-0.6-1-1-1.4c-0.4-0.4-0.7-0.9-1.1-1.3c-0.2-0.2-0.4-0.4-0.6-0.6
				l-0.6-0.6c-0.8-0.9-1.7-1.6-2.6-2.3c-0.4-0.4-0.9-0.7-1.4-1c-0.5-0.3-0.9-0.6-1.4-1c-0.9-0.6-1.9-1.2-2.7-1.7
				c-0.9-0.6-1.7-1-2.5-1.4c-0.8-0.4-1.5-0.8-2.1-1.2c-0.6-0.3-1.2-0.6-1.7-0.9c-0.9-0.5-1.5-0.8-1.5-0.8s0.6,0.2,1.5,0.6
				c0.5,0.2,1.1,0.5,1.7,0.7c0.7,0.3,1.4,0.6,2.2,1c0.8,0.4,1.7,0.8,2.6,1.3c0.9,0.5,1.9,1,2.8,1.6c0.5,0.3,0.9,0.6,1.4,1
				c0.5,0.3,1,0.6,1.4,1c0.9,0.7,1.9,1.5,2.7,2.3l0.6,0.6c0.2,0.2,0.4,0.4,0.6,0.7c0.4,0.5,0.8,0.9,1.1,1.4c0.4,0.5,0.6,1,1,1.5
				c0.2,0.2,0.3,0.5,0.5,0.7c0.2,0.3,0.3,0.5,0.4,0.7c1.1,1.9,2.1,3.8,3,5.3c0.4,0.8,0.8,1.5,1.2,2.1c0.4,0.6,0.7,1.2,1,1.6
				C140.1,105.3,140.4,105.8,140.4,105.8z"/>
			<path class="st15" d="M68.9,84.5c0,0-0.1,0.1-0.3,0.2c-0.2,0.1-0.5,0.4-0.9,0.6c-0.4,0.3-0.8,0.6-1.4,1c-0.5,0.4-1.1,0.8-1.7,1.3
				c-1.2,1-2.7,2.1-4.2,3.4c-0.8,0.6-1.6,1.3-2.4,1.9c-0.8,0.7-1.6,1.3-2.4,2.1c-0.4,0.3-0.7,0.7-1.1,1.1c-0.2,0.2-0.3,0.4-0.5,0.6
				c-0.2,0.2-0.3,0.4-0.4,0.6l-0.4,0.6c-0.1,0.2-0.2,0.5-0.3,0.7c-0.2,0.4-0.3,0.9-0.5,1.4c-0.2,0.5-0.2,0.9-0.4,1.4
				c-0.1,0.5-0.2,0.9-0.3,1.3c-0.2,0.9-0.4,1.7-0.5,2.5c-0.6,3.1-1,5.2-1,5.2s0-0.5,0.1-1.5c0.1-0.9,0.2-2.2,0.5-3.8
				c0.1-0.8,0.2-1.6,0.4-2.5c0.1-0.9,0.3-1.9,0.6-2.8c0.1-0.5,0.3-1,0.5-1.5c0.1-0.2,0.2-0.5,0.3-0.7l0.4-0.7
				c0.1-0.2,0.3-0.5,0.5-0.7c0.2-0.2,0.3-0.4,0.5-0.6c0.4-0.4,0.7-0.8,1.1-1.2c0.8-0.7,1.6-1.4,2.4-2.1c0.8-0.6,1.6-1.3,2.4-1.9
				c0.8-0.6,1.6-1.2,2.3-1.7c0.7-0.5,1.4-1,2.1-1.5c1.3-0.9,2.4-1.6,3.3-2C68.5,84.7,68.9,84.5,68.9,84.5z"/>
			<path class="st15" d="M63.8,115.3c0,0-0.2,0-0.5,0c-0.3,0-0.8,0-1.3,0c-0.5,0-1.2-0.1-1.9-0.2c-0.3,0-0.7-0.1-1-0.1
				c-0.4-0.1-0.7-0.1-1.1-0.2c-0.7-0.1-1.4-0.3-2.1-0.5c-0.3-0.1-0.6-0.2-0.9-0.3c-0.3-0.1-0.6-0.2-0.8-0.3
				c-0.3-0.1-0.5-0.2-0.7-0.3c-0.2-0.1-0.4-0.2-0.5-0.3c-0.3-0.2-0.4-0.3-0.4-0.3s0.2,0,0.5,0.1c0.2,0,0.3,0.1,0.5,0.2
				c0.2,0.1,0.4,0.2,0.7,0.2c0.3,0.1,0.6,0.1,0.9,0.2c0.3,0.1,0.6,0.2,0.9,0.2c0.7,0.1,1.4,0.3,2.1,0.4c0.7,0.1,1.4,0.3,2.1,0.4
				c0.7,0.1,1.3,0.3,1.8,0.4c0.5,0.1,1,0.2,1.3,0.3C63.7,115.3,63.8,115.3,63.8,115.3z"/>
			<path class="st15" d="M48,89.6c0,0-0.6,0.1-1.5,0.1c-0.9,0-2.1,0-3.3,0c-0.6,0-1.2-0.1-1.7-0.1c-0.6-0.1-1.1-0.1-1.5-0.1
				c-0.9-0.1-1.5-0.2-1.5-0.2s0.6-0.1,1.5-0.2c0.4,0,1-0.1,1.5-0.1c0.6,0,1.2,0,1.7,0c0.6,0,1.2,0.1,1.7,0.1
				c0.6,0.1,1.1,0.1,1.5,0.2C47.4,89.4,48,89.6,48,89.6z"/>
			<path class="st15" d="M41.8,83.4c0,0-0.1,0-0.3,0c-0.2,0-0.4,0-0.7,0.1c-0.3,0-0.7,0-1,0c-0.4,0-0.8,0-1.2,0
				c-0.4,0-0.8,0-1.2-0.1c-0.4,0-0.7,0-1-0.1c-0.6-0.1-1-0.1-1-0.1s0.4-0.1,1-0.3c0.3-0.1,0.7-0.1,1-0.2c0.4,0,0.8,0,1.2,0
				c0.4,0,0.8,0,1.2,0.1c0.4,0.1,0.7,0.1,1,0.2C41.4,83.2,41.8,83.4,41.8,83.4z"/>
			<path class="st15" d="M153.2,107.8c0,0-0.1-0.1-0.3-0.4c-0.2-0.2-0.5-0.5-0.9-0.9c-0.2-0.2-0.4-0.4-0.6-0.6
				c-0.2-0.2-0.4-0.4-0.7-0.6c-0.3-0.2-0.5-0.4-0.8-0.6c-0.2-0.2-0.6-0.4-0.8-0.6c-0.3-0.2-0.6-0.4-0.8-0.6
				c-0.3-0.2-0.6-0.4-0.9-0.5c-0.3-0.2-0.5-0.3-0.8-0.5c-0.2-0.2-0.5-0.3-0.7-0.4c-0.5-0.2-0.8-0.5-1.1-0.6
				c-0.3-0.2-0.4-0.3-0.4-0.3s0.2,0,0.5,0.1c0.3,0.1,0.7,0.2,1.2,0.4c0.3,0.1,0.5,0.2,0.8,0.3c0.3,0.1,0.6,0.3,0.9,0.4
				c0.3,0.2,0.6,0.3,0.9,0.5c0.3,0.2,0.6,0.4,0.9,0.6c0.3,0.2,0.6,0.4,0.9,0.7c0.3,0.2,0.5,0.5,0.8,0.7c0.3,0.2,0.5,0.5,0.7,0.7
				c0.2,0.2,0.4,0.5,0.6,0.7c0.3,0.4,0.5,0.8,0.7,1.1C153.1,107.7,153.2,107.8,153.2,107.8z"/>
			<path class="st15" d="M40.9,110.2c0,0-0.2-0.1-0.4-0.2c-0.3-0.2-0.7-0.4-1.1-0.7c-0.9-0.6-1.9-1.6-2.8-2.7
				c-0.4-0.6-0.8-1.2-1.1-1.8c-0.2-0.3-0.3-0.6-0.4-0.9c-0.1-0.3-0.2-0.5-0.3-0.8c-0.2-0.5-0.3-0.9-0.3-1.2
				c-0.1-0.3-0.1-0.5-0.1-0.5s0.1,0.2,0.2,0.4c0.1,0.1,0.1,0.3,0.2,0.5c0.1,0.2,0.2,0.4,0.3,0.6c0.2,0.5,0.5,1,0.9,1.5
				c0.3,0.5,0.7,1.1,1.2,1.6c0.4,0.6,0.9,1.1,1.3,1.6c0.4,0.5,0.8,0.9,1.2,1.3c0.4,0.4,0.7,0.7,0.9,0.9
				C40.7,110.1,40.9,110.2,40.9,110.2z"/>
		</g>
		<path class="st16" d="M111.4,48.6c0,0-10.4-7.1-13.7-0.4C96.5,51.7,97.4,36.5,111.4,48.6z"/>
		<path class="st16" d="M82,61c0,0-5.8-3.3-13.8,1.1C71.3,57.4,76.8,57.4,82,61z"/>
		<g>
			<path class="st17" d="M65.6,61.7c-1.2,2.9-3.9,6.1,0,5.6c3.9-0.5,4.6-1.5,2.9,0.2c-1.7,1.7-6.1,5.6,1.2,2.7
				c10.9-4.1,22.1-4.1,22.1-4.1c3.9,0.2-1.2-2.2-9.5-1c-8.3,1.2-6.6-1-2.4-2.9c4.1-1.9,2.7-4.1-3.6-3.9C70,58.5,66.8,58.8,65.6,61.7
				z"/>
			<path class="st17" d="M104.8,57.6c7.3-1.2,10.2-1,4.4,1.5c-5.8,2.4-13.6,3.6-6.3,5.1c7.3,1.5,14.1,6.1,14.1,6.1
				c2.9,1.2,1.9-0.2-1-3.9c-2.9-3.6-2.7-5.8,1-4.1c3.6,1.7,2.7-4.1-0.5-7.3c-3.2-3.2-1-7-9.2-10.7C98.9,40.5,95,46.1,95,53.4
				C95,60.7,97.5,58.8,104.8,57.6z"/>
			<path class="st10" d="M97.8,40.3c-3.5,0.2,0.7-4.2,4.4-4.2c3.6,0,6.2,3.5,4,3.3c-2.2-0.2-3.6,0.2-0.4,1.3
				c2.3,0.9,4.7,2.7,6.6,4.3c-0.4-0.9-0.8-1.9-1.1-2.8c-1.4-4-4.1-5.4-5.8-7c-1.7-1.6-4.3-2-7.7-1.4c-3.5,0.6-3.2,2.8-4.6,6.7
				c-0.8,2.1-1.6,6.6-2.3,11.2c0.1-0.2,0.2-0.5,0.3-1C92.2,45.4,93.8,43.2,97.8,40.3z"/>
			<path class="st10" d="M61.2,66.2c0,0,3.3-6.7,5.1-7.5c1.8-0.7,5.3-1.5,3.3-2c-2-0.5-0.7-1.6,6.6-1.5c3.5,0.1,6.6,1.1,8.8,2.2
				c-0.7-0.8-1.4-1.5-2.2-2c-2.6-1.6-8.5-3.3-12.2-1.6c-3.7,1.6-5.9,4.2-8.3,9.8c-0.4,0.9-0.8,1.8-1.2,2.6L61.2,66.2z"/>
		</g>
		<path class="st14" d="M112.8,85.2c0,0-16.7-15.2-39.5,1.8C64.7,92.7,89.8,65.2,112.8,85.2z"/>
		<path class="st14" d="M104.3,73.4c0,0-9.5-3.6-23.8,1.5C73.6,76.8,89.7,66.1,104.3,73.4z"/>
	</g>
</g>
<g id="g77" transform="matrix(0.26397093,0.01799131,-0.01799131,0.26397093,79.91336,78.717402)">
	<g id="g75" transform="matrix(0.99249268,-0.12223816,0.12223816,0.99249268,0,0)">
		<g id="g73">
			<g id="use69" transform="matrix(0.26458333,0,0,0.26458333,52.391459,52.443713)">
				<path id="path1818" inkscape:connector-curvature="0" class="st18" d="M630.8,444.7c0.1,0.3,0.2,0.6,0.4,0.7
					c0.9-1.1,1.7-2.2,2.6-3.4C632.9,443,631.9,443.8,630.8,444.7 M362.1,188.8c-10.5-7.5-19.9-11.4-28.1-11.6
					c-5.7-0.5-13.4-3.9-22.9-10.1l-350,739.3c82.6,6.9,179.7,0.7,291.2-18.7c125.9-21.5,243.7-55.1,353.4-100.8
					c74.4-30.5,118.4-57.1,131.9-79.8c13-22.7,11-67.1-6-133c-6.1-23.2-11.6-41.7-16.5-55.5c-3.4-9.1-6.5-16.1-9.4-21
					c-1.4-2.3-2.9-4.4-4.5-6.4c-6.7-7.4-15.4-11.4-26.2-12c-21.7-0.8-36.3-12.1-43.8-33.7c-0.1-0.2-0.3-0.4-0.4-0.7
					c-1.6-4.4-2.8-9.3-3.7-14.6c-3.4-20.3-4.3-56.5-2.6-108.7c1.2-28.6,3-62.1,5.6-100.4l9-128.9l5.2-70.4l-3-1.5l-32.6-15
					C574.2-10.1,552-11.6,542,0.7c-2.5,3-5,7.7-7.5,14.2c-1.1,3.4-2.2,7.2-3.4,11.6c-5.2,19.8-10,49.4-14.2,88.8
					c-7.4,73.7-6.9,151.9,1.5,234.6c0.8,6.3,1.5,12.5,2.2,18.7c6.3,53.6,8.3,93.2,6,118.8c-1,12.1-3,21.1-6,27
					c-9.5,19-39.2,30.6-89.2,34.8c-22.3,2.3-35.8,3.3-40.5,3c-0.2,0-0.5,0-0.7,0c-9.7-0.7-15.7-5.4-18-13.9
					c-2.7-10.9,2.3-62,15-153.3c0.2-0.5,0.3-1,0.4-1.5c8-57.5,11.9-95.8,11.6-115c0-19.7-4.7-37.5-14.2-53.2
					C379.5,205.1,371.8,196.3,362.1,188.8z"/>
				<path id="path1826" inkscape:connector-curvature="0" class="st19" d="M311.1,167.1c-4.8-3.4-10.2-7.5-16.1-12.4
					c-16.7-15-35-34.5-54.7-58.5c-29.5-37-51.2-59.7-65.2-68.2c-14.2-9.2-38.8-15.9-73.8-19.9C41.8,0.7,1.4,2-20.1,12.3
					C-41.4,22.8-64,52.5-88,101.5c-11.7,23-24.4,44-37.8,63c-12.7,18.7-22.5,29.4-29.2,31.9c-6.2,2.5-16.7,2.5-31.5,0
					c-15.7-2.2-30.7-5.9-45-10.9c-23-8-39.1-11.9-48.3-11.6c-9.5,0.7-19.5,6.2-30,16.5c-10.2,10.2-15.9,19.7-16.9,28.5
					c-0.5,8,2.7,23,9.7,45c9.8,27,17.4,67.5,22.9,121.4c0.8,8,1.5,16.3,2.2,24.7c5.5,62.5,11.1,102.9,16.9,121.4
					c4,11,2.4,16.9-4.9,17.6c-7,0.7-26.9-2.5-59.6-9.7c-53.2-13-84.2-27.6-92.9-43.8c-8.4-15.2-8.3-52.5,0.4-112
					c0.8-4.3,1.5-8.6,2.2-13.1c8.5-51.2,11.7-113.4,9.7-186.6c-1.5-72.9-7.6-142.3-18.4-208c-0.5-3.1-1.1-5.9-1.9-8.6
					c-2.4-8.2-6.3-14.2-11.6-18c-0.9-0.7-1.9-1.3-3-1.9c-6.5-3.7-16-6-28.5-7.1l-39-0.4l-0.7,26.6l-0.7,22.5l-4.5,187
					c-2.5,103.3-6.5,175-12,215.1c-1.2,8.7-2.4,16-3.7,21.7c-8.5,32.5-26.1,44.6-52.8,36.3c-10.5-3.5-19.2-2.1-26.2,4.1
					c-1.7,1.5-3.4,3.5-5.2,6c-3.3,4.4-6.9,10.3-10.9,17.6c-2.3,5-4.8,10.5-7.5,16.5c-1.6,3.9-3.1,7.8-4.5,11.6
					c-2.4,6.2-4.7,12.3-6.7,18.4c-8.9,28.1-12.7,53.2-11.6,75.3c2.2,29.5,13.9,55.7,34.8,78.7c45.7,48.5,123.7,94.8,233.8,139
					c110.7,44.5,220.7,73.4,330.1,86.9c10.4,1.4,21,2.5,31.9,3.4L311.1,167.1z"/>
			</g>
			<path id="use71" inkscape:connector-curvature="0" class="st20" d="M134.8,96.6c2.5,1.7,4.5,2.5,6,2.7c2.2,0.1,4.7,1.1,7.4,3.1
				c2.6,2,4.6,4.3,6,7c2.5,4.2,3.8,8.9,3.8,14.1c0.1,5.1-1,15.2-3.1,30.4c0,0.1,0,0.3,0,0.4 M189.6,145c-2.3-21.9-2.4-42.6-0.4-62.1
				c1.1-10.4,2.4-18.3,3.8-23.5 M-64.1,43.7c0.2,0.7,0.4,1.5,0.5,2.3c2.8,17.4,4.5,35.7,4.9,55c0.5,19.4-0.3,35.8-2.6,49.4
				c-0.2,1.2-0.4,2.3-0.5,3.5 M-25.4,154.4c-1.4-14.3-3.5-25-6-32.2c-1.9-5.8-2.7-9.8-2.6-11.9c0.3-2.3,1.8-4.8,4.5-7.5
				c2.8-2.7,5.4-4.2,7.9-4.4c2.4-0.1,6.7,1,12.8,3.1c3.8,1.3,7.7,2.3,11.9,2.9c3.9,0.7,6.7,0.7,8.3,0c1.8-0.7,4.4-3.5,7.7-8.4
				c3.6-5,6.9-10.6,10-16.7c6.3-13,12.3-20.8,17.9-23.6c5.7-2.7,16.4-3.1,32.1-1.1c9.3,1.1,15.8,2.8,19.5,5.3
				c3.7,2.2,9.5,8.3,17.3,18c5.2,6.3,10,11.5,14.5,15.5c1.6,1.3,3,2.4,4.3,3.3 M42.1,292.3c21.9,1.8,47.5,0.2,77-5
				c33.3-5.7,64.5-14.6,93.5-26.7c19.7-8.1,31.3-15.1,34.9-21.1c3.4-6,2.9-17.7-1.6-35.2c-1.6-6.1-3.1-11-4.4-14.6
				c-0.9-2.5-1.7-4.3-2.5-5.6c-0.4-0.6-0.8-1.2-1.2-1.6c-1.8-2-4.1-3.1-6.9-3.2c-5.7-0.2-9.6-3.2-11.6-8.9c0-0.1-0.1-0.2-0.1-0.2
				c-0.4-1.2-0.7-2.5-1-3.9c-0.9-5.4-1.1-14.9-0.6-28.7c0.3-7.6,0.8-16.5,1.4-26.6l2.4-34.1l1.3-18.7l-0.8-0.3l-8.6-4
				c-9.1-4-15-4.4-17.6-1.2c-0.7,0.8-1.3,2-1.9,3.8c-0.3,0.9-0.6,1.9-0.9,3.1 M-86,43.5l0.2-7l10.3,0.1c3.3,0.3,5.8,0.9,7.6,1.9
				c0.3,0.2,0.5,0.3,0.7,0.5c1.4,1,2.4,2.6,3.1,4.8 M-90.6,155.8c1.5-10.6,2.5-29.6,3.2-56.9l1.2-49.4l0.1-6 M-119.9,186
				c0.4-1,0.8-2,1.2-3.1c0.7-1.6,1.4-3,2-4.3c1-2,2-3.5,2.8-4.7 M-61.8,153.9c-2.3,15.8-2.4,25.6-0.1,29.6
				c2.3,4.3,10.5,8.2,24.6,11.6c8.7,1.9,13.9,2.8,15.8,2.6c1.9-0.2,2.3-1.8,1.3-4.7c-1.5-4.9-3-15.6-4.5-32.1
				c-0.2-2.2-0.4-4.4-0.6-6.5 M42.1,292.3c-2.9-0.2-5.7-0.5-8.4-0.9c-29-3.6-58.1-11.2-87.3-23c-29.1-11.7-49.8-24-61.9-36.8
				c-5.6-6.1-8.6-13-9.2-20.8c-0.3-5.9,0.7-12.5,3.1-19.9c0.5-1.6,1.1-3.2,1.7-4.9 M-113.8,173.9c0.5-0.7,0.9-1.2,1.4-1.6
				c1.9-1.7,4.2-2,6.9-1.1c7.1,2.2,11.7-1,14-9.6c0.4-1.5,0.7-3.4,1-5.8 M191.7,181.4c0.6-6.8,0.1-17.3-1.6-31.4
				c-0.2-1.7-0.4-3.3-0.5-5 M191.7,181.4c-0.3,3.2-0.8,5.6-1.6,7.1c-2.5,5-10.4,8.1-23.6,9.2c-5.9,0.6-9.4,0.9-10.7,0.8
				c-0.1,0-0.2,0-0.2,0c-2.6-0.2-4.2-1.4-4.8-3.7c-0.7-2.9,0.6-16.4,4-40.6"/>
		</g>
	</g>
</g>
<g>
	<g>
		<g>
			<g>
				<path class="st0" d="M76.6,102.5c0.5,2.8,3.9,4.5,6.5,5.9c6.4,3.4,13.8,4.1,20.9,1.9c3.7-1.2,7.7-2.3,10.9-4.4
					c1.3-0.9,2.3-2.5,2.4-4.5c0-0.9-0.1-1.9-0.6-2.7c-0.3-0.4-0.8-0.8-1.3-1.1c0,0,0.1,0,0-0.1c-1.4-2.4-3.5-4.1-5.9-5.3
					c-2.6-1.2-5.2-1.7-7.9-2c-0.8-0.4-1.4-1.2-2-1.9c-0.5-0.6-1.3-1.4-2.1-1.5c-0.9-0.1-1.7,0.5-2.4,1.2c-0.6,0.6-1.1,1.2-1.7,1.7
					c-1.1,0.4-2.3,0.4-3.4,0.5c-1.2,0.1-2.4,0.5-3.6,1c-1.8,0.7-3.3,1.8-4.7,3C79,96.1,76,99.3,76.6,102.5z"/>
				<path class="st21" d="M96.3,91.4c2.9-0.1,5.9,0.3,8.7,0.9c0.5,0.1,1.1,0.2,1.7,0.3c-2.3-1-4.7-1.6-7.4-1.9
					c-1.9-0.2-3.9,0.1-5.8,0.5c-1.1,0.2-2.3,0.5-3.5,0.9C92.1,91.8,94.2,91.4,96.3,91.4z"/>
				<path class="st2" d="M76.6,102.5c0.5,2.8,3.9,4.5,6.5,5.9c6.4,3.4,13.8,4.1,20.9,1.9c3.7-1.2,7.7-2.3,10.9-4.4
					c1.3-0.9,2.3-2.5,2.4-4.5c0-0.9-0.1-1.9-0.6-2.7c-0.3-0.4-0.8-0.8-1.3-1.1c0,0,0.1,0,0-0.1c-1.4-2.4-3.5-4.1-5.9-5.3
					c-2.3-1.1-4.7-1.6-7.1-1.9c-0.3-0.1-0.5-0.1-0.8-0.1c-0.8-0.4-1.4-1.2-2-1.9c-0.5-0.6-1.3-1.4-2.1-1.5c-0.9-0.1-1.7,0.5-2.4,1.2
					c-0.6,0.6-1.1,1.2-1.7,1.7c-0.3,0.1-0.7,0.2-1.1,0.3c-0.3,0-0.6,0.1-0.9,0.1c0,0-0.1,0-0.1,0c-0.5,0-1,0.1-1.4,0.1
					c-1.2,0.1-2.4,0.5-3.6,1c-1.8,0.7-3.3,1.8-4.7,3C79,96.1,76,99.3,76.6,102.5z M77.5,99.7c0.5-1.4,1.6-2.6,2.7-3.7
					c0,0,0.1,0,0.1-0.1c1-0.9,2-1.9,3.1-2.7c1.1-0.8,2.3-1.4,3.6-1.9c1.3-0.5,2.5-0.7,3.7-0.8c0.6,0,1.6-0.1,2.2-0.2
					c1.2-0.1,2.3-0.4,3.5-0.5c-0.8,0-1.6-0.1-2.5,0c0.3-0.3,0.5-0.6,1-1.1c0.9-1,1.9-2,3.2-1.2c1,0.7,1.7,2,2.8,2.7
					c-0.1,0-0.2,0-0.3,0c-0.6,0-1.2-0.2-1.7-0.1c-0.1,0,1,0.1,1.1,0.2c2.9,0.2,5.8,0.9,8.6,1.9c2,0.8,4.1,2.5,5.6,4
					c-0.1,0-0.1,0.1-0.1,0.1c0.1,0.5,0.4,0.9,0.8,1.2c0.7,0.6,1.4,1.1,1.7,2c0.4,1.3,0.2,2.7-0.3,3.9c-1.2,2.6-4,3.4-6.4,4.3
					c-6.2,2.3-12.9,4.4-19.2,2.9c-4-1-8-2.7-11.5-5.3C77.6,104.1,76.6,102.2,77.5,99.7z"/>
				<path class="st22" d="M96.9,87.6c0.1,0.4,0.2,0.7,0.2,1.1c0,0.4,0,0.7,0,1c0,0,0.1,0,0.1,0c0-0.3,0.1-0.7,0.1-1
					c0.1-0.4,0.2-0.7,0.3-1.1C97.7,87,96.8,87,96.9,87.6z"/>
			</g>
		</g>
		<path class="st0" d="M101.5,90.2c-0.8-0.4-1.4-1.2-2-1.9c-0.4-0.5-1-1.1-1.6-1.4C98,86.9,98,87,98,87.2c0,1,0.2,1.9-0.9,2.4
			c-0.3,0.1-0.6,0-0.8-0.3c-0.4-0.6-0.4-1.4-0.3-2.2c0-0.1,0-0.1,0.1-0.1c-0.4,0.2-0.7,0.5-1,0.8c-0.6,0.6-1.1,1.2-1.7,1.7
			c-0.4,0.1-0.8,0.2-1.1,0.3c-0.1,0.1-0.1,0.2-0.2,0.3C95.4,89.6,99.8,90,101.5,90.2z"/>
		<path class="st0" d="M76.6,102.5c0.5,2.8,3.9,4.5,6.5,5.9c6.4,3.4,13.8,4.1,20.9,1.9c3.7-1.2,7.7-2.3,10.9-4.4
			c1.3-0.9,2.3-2.5,2.4-4.5c0-0.9-0.1-1.9-0.6-2.7c-0.3-0.4-0.8-0.8-1.3-1.1c0,0,0.1,0,0-0.1c-1.4-2.3-3.4-4-5.9-5.2
			c0.8,0.9,1,1.9-1.1,2.5c-4.6,1.2-8.7,1.4-13.6,3.8c-3.8,1.8-3.4,1-3.5-0.9c-0.1-1.9-1.1-2.8-3-3.9c-1.9-1.2-0.3-2.5,2.4-3.1
			c0-0.2,0-0.3,0.1-0.5c-0.3,0-0.5,0-0.8,0.1c-1.2,0.1-2.4,0.5-3.6,1c-1.8,0.7-3.3,1.8-4.7,3C79,96.1,76,99.3,76.6,102.5z"/>
	</g>
	<g>
		<path class="st23" d="M83.3,147.2c-3.7,1.9-4.4,3.5-0.8,2.8c2.1,2.5,5.2-1.9,5.2-1.9s5,8.4,16.3,4.1c3.4-1.9,5.8-0.5,5.8-0.5
			s0.8-3-1.5-3.2c0,0,14-2.7,19.2-12.4c-2.3,1.9-3.7,2.5-3.7,2.5s6.2-5.3,6.6-10.8c1.3-1.9,2.7-1.6,2.7-1.6s-1.2-2.8-3.5-1.9
			c3.5-4.1,3-7.9,0.4-9.6c0,2.2-0.6,2.5-0.6,2.5s0.9-5.8-2.6-7.4c1-7.2-3-9.4-5.2-10.2c-2.6-2.1-4-3.2-5.6-2.5
			c0.3-2-2.9-3.5-5.9-1.3c-1-0.7-2.5-0.1-2.5-0.1c-0.4-2.2-6.2-2.5-9-0.9c-0.5-1.7-3.3-0.8-3.8,0c-1.6-1.4-7.8-0.9-8.8,0.3
			c-0.2-3.1-3.2-0.7-4.8,1.2c-0.7-3.3-7.6,1.4-8,6.4c-2.4-0.7-5.3,7.5-5.4,11.2c-1.9,0.1-4,10.8,1.7,16.6
			C69.3,133.3,73.5,144.3,83.3,147.2z"/>
		<path class="st24" d="M84.8,93.3c0.5,0,1,0.2,1.2,1.2c1-0.6,3.1-0.9,4.9-0.9c1,0,2.7,0.1,3.7,0.7c0.5-0.4,1.5-0.9,2.4-0.9
			c0.8,0,1.3,0.3,1.6,0.9c1.2-0.6,2.7-0.9,4.4-0.9c1.9,0,4.2,0.5,4.7,1.8c0.3-0.1,0.7-0.1,1.1-0.1c0.5,0,0.9,0.1,1.2,0.3
			c1.2-0.8,2.3-1,3-1c1.1,0,2.1,0.4,2.7,1.1c0.3,0.4,0.5,0.8,0.5,1.2c1.6-0.4,3.1,0.8,5.5,2.7c2.9,1,6.2,3.7,5.3,10.3
			c2,1,2.6,3.4,2.7,5.3c0-0.1,0-0.1,0-0.2v-0.5l0.4,0.3c1.2,0.8,1.9,2,2.1,3.3c0.3,1.8-0.4,3.9-2,6c0.1,0,0.1,0,0.2,0
			c1.9,0,2.8,2.2,2.8,2.3l0.2,0.5l-0.5-0.1l0,0c0,0-0.1,0-0.2,0c-0.4,0-1.3,0.2-2.1,1.4c-0.3,3.9-3.3,7.5-5.1,9.5
			c0.5-0.3,1.2-0.8,1.9-1.4l1.1-0.9l-0.7,1.3c-4.5,8.2-15.2,11.5-18.5,12.3c0.2,0.1,0.4,0.3,0.5,0.5c0.7,1,0.3,2.7,0.3,2.7l-0.1,0.3
			l-0.3-0.2c0,0-0.8-0.5-2.1-0.5c-1.1,0-2.3,0.3-3.4,1c-2.2,0.8-4.3,1.2-6.2,1.2c-6,0-9.4-4-10.2-5.1c-0.6,0.7-2.1,2.5-3.7,2.5
			c-0.6,0-1.1-0.2-1.6-0.7c-1.6,0.3-2.4,0.1-2.6-0.5c-0.2-0.8,1.4-1.9,2.7-2.6c-9.2-3.1-13.4-13.6-13.5-16.7
			c-4.3-4.4-4.3-11.7-2.9-15.2c0.3-0.7,0.7-1.5,1.2-1.7c0.2-3.7,2.8-11.3,5.4-11.3l0,0c0,0,0,0,0,0c0.4-3.9,4.5-7.5,6.9-7.5
			c0.7,0,1.2,0.3,1.4,0.8C81.9,94.9,83.5,93.3,84.8,93.3z M85.6,95.7l0-0.7c-0.1-1.2-0.6-1.2-0.8-1.2c-0.9,0-2.4,1.3-3.6,2.6
			l-0.4,0.4l-0.1-0.5c-0.1-0.6-0.5-0.9-1-0.9c-2.2,0-6.1,3.6-6.4,7.3l0,0.3l-0.3-0.1c-0.1,0-0.1,0-0.2,0c-2.1,0-4.8,7.4-4.9,11
			l0,0.3l-0.2,0c-0.2,0-0.6,0.4-1,1.4c-1,2.7-1.7,10.1,2.9,14.7l0.1,0.1v0.1c0,2.9,4.3,13.7,13.7,16.5l0.7,0.2l-0.6,0.3
			c-2.4,1.2-3.1,2.1-3,2.3c0,0,0.2,0.2,0.7,0.2c0.4,0,0.8,0,1.3-0.1l0.2,0l0.1,0.1c0.4,0.4,0.8,0.6,1.3,0.6c1.6,0,3.5-2.5,3.5-2.6
			l0.2-0.3l0.2,0.4c0,0.1,3.2,5.2,10,5.2c1.9,0,3.9-0.4,6-1.2c1.2-0.7,2.4-1,3.6-1c1,0,1.7,0.2,2.1,0.4c0.1-0.5,0.1-1.4-0.3-2
			c-0.2-0.3-0.6-0.5-1.1-0.6l-1.8-0.2l1.8-0.3c0.1,0,12.6-2.6,18.3-11c-1.6,1.2-2.6,1.6-2.6,1.6l-1.4,0.5l1.1-1
			c0.1-0.1,6.1-5.3,6.5-10.7l0-0.1l0-0.1c0.9-1.4,1.9-1.7,2.5-1.7c-0.3-0.6-1.1-1.5-2.1-1.5c-0.3,0-0.5,0.1-0.8,0.2l-1,0.4l0.7-0.8
			c1.8-2.1,2.6-4.3,2.4-6.2c-0.2-1.1-0.7-2-1.5-2.7c-0.1,1.8-0.7,2.1-0.8,2.2l-0.4,0.2l0.1-0.5c0-0.1,0.8-5.6-2.4-7.1l-0.2-0.1
			l0-0.2c0.7-5.1-1-8.5-5-9.9l-0.1,0c-2.5-2-3.9-3.1-5.4-2.5l-0.5,0.2l0.1-0.5c0.1-0.4-0.1-0.8-0.3-1.2c-0.5-0.6-1.3-0.9-2.2-0.9
			c-0.7,0-1.7,0.2-2.9,1L110,96l-0.2-0.1c-0.3-0.2-0.6-0.3-1.1-0.3c-0.6,0-1.2,0.2-1.2,0.2l-0.3,0.1l-0.1-0.3
			c-0.2-1-1.9-1.7-4.2-1.7c-1.7,0-3.3,0.4-4.4,1l-0.3,0.2l-0.1-0.3C98,94.3,97.6,94,96.9,94c-0.9,0-1.9,0.5-2.1,0.9l-0.2,0.2
			l-0.2-0.2c-0.6-0.5-1.9-0.8-3.6-0.8c-2.2,0-4.4,0.5-4.9,1.1L85.6,95.7z"/>
	</g>
	<g>
		<path class="st11" d="M88.8,140.7c0,0,0.1,0,0.2,0.1c0.2,0.1,0.4,0.1,0.7,0.2c0.3,0.1,0.7,0.2,1.1,0.3c0.4,0.1,0.9,0.1,1.5,0.2
			c0.3,0,0.6,0,0.9,0c0.3,0,0.6,0,0.9,0c0.3,0,0.6-0.1,1-0.1c0.3-0.1,0.6-0.1,1-0.2c0.3,0,0.7-0.2,1-0.3c0.3-0.1,0.7-0.2,1-0.3
			c0.3-0.1,0.6-0.3,1-0.5c0.2-0.1,0.3-0.1,0.5-0.2l0.5-0.3l0.9-0.6c0.3-0.2,0.6-0.4,0.9-0.7c0.3-0.2,0.6-0.4,0.8-0.7
			c0.3-0.2,0.5-0.5,0.8-0.7c0.2-0.2,0.5-0.5,0.7-0.7c0.2-0.2,0.5-0.4,0.7-0.7c0.4-0.5,0.8-0.9,1.2-1.4c0.4-0.4,0.7-0.8,0.9-1.2
			c0.3-0.4,0.5-0.7,0.7-0.9c0.4-0.5,0.6-0.8,0.6-0.8s-0.2,0.3-0.5,0.9c-0.2,0.3-0.4,0.6-0.6,1c-0.2,0.4-0.5,0.8-0.8,1.3
			c-0.3,0.4-0.7,0.9-1.1,1.5c-0.4,0.5-0.9,1-1.4,1.5c-0.5,0.5-1,1-1.6,1.5c-0.3,0.2-0.6,0.5-0.9,0.7l-1,0.6l-0.5,0.3
			c-0.2,0.1-0.3,0.2-0.5,0.2c-0.3,0.2-0.7,0.3-1,0.5c-0.3,0.1-0.7,0.2-1.1,0.3c-0.4,0.1-0.7,0.2-1.1,0.3c-0.4,0.1-0.7,0.1-1,0.2
			c-0.3,0-0.7,0-1,0c-0.3,0-0.6,0-0.9,0c-0.3,0-0.6,0-0.9-0.1c-0.3-0.1-0.5-0.1-0.8-0.1c-0.3-0.1-0.5-0.1-0.7-0.2
			c-0.4-0.1-0.8-0.3-1.1-0.4C89.1,140.9,88.8,140.7,88.8,140.7z"/>
		<path class="st11" d="M87.9,137.4c0,0,0-0.3,0-0.8c0-0.5,0-1.3,0.2-2.2c0.1-0.5,0.1-0.9,0.2-1.5c0.1-0.5,0.2-1,0.4-1.6
			c0.2-0.5,0.3-1.1,0.5-1.7c0.2-0.6,0.4-1.1,0.7-1.7c0.3-0.6,0.5-1.1,0.9-1.6c0.2-0.3,0.3-0.5,0.5-0.8c0.2-0.2,0.3-0.5,0.5-0.7
			c0.2-0.2,0.3-0.5,0.5-0.7c0.2-0.2,0.4-0.4,0.5-0.6c0.3-0.4,0.7-0.8,1-1.1c0.3-0.3,0.6-0.6,0.9-0.8c0.3-0.2,0.6-0.4,0.8-0.6
			c0.4-0.3,0.7-0.5,0.7-0.5s-0.2,0.2-0.6,0.6c-0.2,0.2-0.4,0.4-0.7,0.7c-0.2,0.3-0.5,0.6-0.8,0.9c-0.3,0.3-0.6,0.7-0.9,1.1
			c-0.3,0.4-0.6,0.8-0.9,1.3c-0.2,0.2-0.3,0.5-0.5,0.7c-0.1,0.3-0.3,0.5-0.4,0.8c-0.3,0.5-0.6,1-0.8,1.6c-0.3,0.5-0.5,1.1-0.7,1.6
			c-0.2,0.5-0.4,1.1-0.6,1.6c-0.2,0.5-0.3,1-0.5,1.5c-0.1,0.5-0.3,1-0.4,1.4c-0.2,0.9-0.4,1.6-0.4,2.1
			C87.9,137.1,87.9,137.4,87.9,137.4z"/>
		<path class="st11" d="M82.7,137.1c0,0-0.2-0.1-0.4-0.2c-0.3-0.2-0.6-0.4-1-0.8c-0.4-0.3-0.9-0.8-1.3-1.3c-0.2-0.3-0.4-0.5-0.6-0.8
			c-0.2-0.3-0.4-0.6-0.6-0.9c-0.2-0.3-0.3-0.6-0.5-1c-0.2-0.3-0.3-0.7-0.4-1c-0.1-0.3-0.2-0.6-0.2-1c0-0.2-0.1-0.3-0.1-0.4
			c0-0.1,0-0.3,0-0.4c0-0.3,0-0.5,0-0.7c0-0.2,0-0.4,0-0.6c0-0.3,0-0.5,0-0.5s0,0.2,0.1,0.5c0,0.2,0.1,0.3,0.1,0.5
			c0,0.2,0.1,0.4,0.2,0.7c0.1,0.3,0.1,0.5,0.2,0.8c0.1,0.3,0.2,0.6,0.3,0.9c0.1,0.3,0.2,0.6,0.4,0.9c0.1,0.3,0.3,0.6,0.5,0.9
			c0.3,0.6,0.7,1.2,1.1,1.7c0.2,0.3,0.4,0.5,0.6,0.7c0.2,0.2,0.4,0.5,0.5,0.7c0.3,0.4,0.6,0.7,0.8,0.9
			C82.6,136.9,82.7,137.1,82.7,137.1z"/>
		<path class="st11" d="M81.8,138c0,0-0.1,0-0.2,0.1c-0.2,0-0.4,0.1-0.7,0c-0.1,0-0.3-0.1-0.4-0.1c-0.2,0-0.3-0.1-0.5-0.2
			c-0.1-0.1-0.3-0.1-0.5-0.3c-0.1-0.1-0.3-0.2-0.4-0.4c-0.1-0.1-0.3-0.3-0.4-0.4c-0.1-0.1-0.2-0.3-0.3-0.4c-0.1-0.1-0.2-0.3-0.2-0.4
			c-0.1-0.1-0.1-0.3-0.1-0.4c-0.2-0.5-0.2-0.9-0.2-0.9s0.3,0.3,0.6,0.6c0.1,0.1,0.2,0.2,0.2,0.3c0.1,0.1,0.2,0.2,0.3,0.3
			c0.1,0.1,0.2,0.2,0.3,0.3c0.1,0.1,0.2,0.2,0.3,0.3l0.3,0.3c0.1,0.1,0.2,0.2,0.4,0.3c0.1,0.1,0.2,0.2,0.3,0.2
			c0.1,0.1,0.2,0.1,0.3,0.2c0.2,0.1,0.4,0.2,0.5,0.2C81.7,138,81.8,138,81.8,138z"/>
		<path class="st11" d="M96.5,144c0,0-0.5,0.3-1.3,0.5c-0.4,0.1-0.9,0.2-1.4,0.3c-0.5,0.1-1.1,0-1.7,0c-0.3-0.1-0.6-0.1-0.8-0.2
			c-0.3-0.1-0.5-0.2-0.8-0.3c-0.2-0.1-0.5-0.2-0.7-0.4c-0.2-0.1-0.4-0.3-0.5-0.4c-0.1-0.2-0.3-0.3-0.4-0.4c-0.1-0.1-0.2-0.3-0.2-0.4
			c-0.1-0.2-0.2-0.3-0.2-0.3s0.1,0.1,0.3,0.2c0.1,0.1,0.2,0.2,0.3,0.3c0.1,0.1,0.3,0.2,0.5,0.3c0.2,0.1,0.4,0.2,0.6,0.3
			c0.2,0.1,0.4,0.2,0.6,0.3c0.2,0.1,0.5,0.1,0.7,0.2c0.2,0.1,0.5,0.1,0.8,0.2c0.3,0,0.5,0.1,0.8,0.1c0.3,0,0.5,0,0.8,0
			c0.5,0,1,0,1.4,0C95.9,144.1,96.5,144,96.5,144z"/>
		<path class="st11" d="M86,130.1c0,0-0.1-0.1-0.2-0.3c-0.1-0.1-0.1-0.2-0.2-0.4c0-0.2-0.1-0.3-0.1-0.5c0-0.2-0.1-0.4-0.1-0.6
			c0-0.2,0-0.5,0-0.7c0-0.2,0-0.5,0.1-0.7c0.1-0.2,0.2-0.5,0.2-0.7c0.1-0.2,0.2-0.5,0.3-0.7c0.1-0.2,0.3-0.4,0.4-0.6
			c0.1-0.2,0.2-0.4,0.4-0.6c0.1-0.2,0.3-0.3,0.4-0.5c0.5-0.6,0.9-0.9,0.9-0.9s-0.2,0.5-0.6,1.1c-0.1,0.2-0.2,0.3-0.3,0.5
			c-0.1,0.2-0.2,0.4-0.3,0.6c-0.1,0.2-0.2,0.4-0.3,0.6c-0.1,0.2-0.2,0.4-0.3,0.7c-0.1,0.2-0.2,0.4-0.2,0.7c-0.1,0.2-0.1,0.4-0.2,0.7
			c0,0.2-0.1,0.4-0.1,0.6c0,0.2,0,0.4-0.1,0.6c0,0.2,0,0.3,0,0.5c0,0.2,0,0.3,0,0.4C86,130,86,130.1,86,130.1z"/>
		<path class="st11" d="M111.9,136.8c0,0,0.3-0.1,0.7-0.3c0.4-0.2,1.1-0.5,1.8-0.9c1.5-0.7,3.5-1.7,5.4-2.8c0.5-0.3,0.9-0.6,1.4-0.9
			c0.4-0.3,0.9-0.6,1.3-0.9c0.8-0.6,1.5-1.3,2-1.9c0.2-0.3,0.5-0.6,0.6-0.9c0.1-0.3,0.3-0.6,0.3-0.8c0.1-0.2,0.1-0.4,0.1-0.5
			c0-0.1,0-0.2,0-0.2s0,0.1,0,0.2c0,0.1,0,0.3,0,0.6c0,0.2-0.1,0.5-0.2,0.9c-0.1,0.2-0.1,0.3-0.2,0.5c-0.1,0.2-0.2,0.4-0.3,0.5
			c-0.2,0.4-0.5,0.7-0.8,1.1c-0.3,0.4-0.7,0.7-1.1,1.1c-0.8,0.7-1.7,1.3-2.7,1.9c-1.9,1.1-4,2-5.6,2.6c-0.8,0.3-1.5,0.5-1.9,0.6
			C112.2,136.8,111.9,136.8,111.9,136.8z"/>
		<path class="st11" d="M101.3,120.1c0,0,0-0.1,0-0.4c0-0.2,0-0.6,0-1c0-0.2,0.1-0.4,0.1-0.6c0-0.2,0.1-0.5,0.2-0.7
			c0.1-0.2,0.2-0.5,0.2-0.7c0.1-0.2,0.2-0.5,0.3-0.7c0.1-0.2,0.2-0.5,0.4-0.7c0.1-0.2,0.3-0.4,0.4-0.6c0.1-0.2,0.3-0.4,0.4-0.6
			c0.1-0.2,0.3-0.3,0.4-0.5c0.6-0.6,1-0.9,1-0.9s-0.2,0.5-0.7,1.2c-0.1,0.2-0.2,0.3-0.3,0.5c-0.1,0.2-0.2,0.4-0.3,0.6
			c-0.1,0.2-0.2,0.4-0.4,0.6c-0.1,0.2-0.2,0.5-0.3,0.7s-0.2,0.5-0.3,0.7c-0.1,0.2-0.2,0.5-0.3,0.7c-0.1,0.2-0.2,0.4-0.3,0.6
			c-0.1,0.2-0.2,0.4-0.2,0.6c-0.1,0.4-0.2,0.7-0.3,0.9C101.4,119.9,101.3,120.1,101.3,120.1z"/>
		<path class="st11" d="M97.1,124.2c0,0,0-0.2,0-0.5c0-0.3,0.1-0.8,0.2-1.3c0.1-0.5,0.2-1.2,0.4-1.8c0.2-0.7,0.5-1.3,0.7-2
			c0.3-0.7,0.7-1.3,1-1.9c0.2-0.3,0.4-0.6,0.6-0.8c0.2-0.2,0.4-0.5,0.6-0.7c0.4-0.4,0.7-0.7,1-0.9c0.3-0.2,0.4-0.3,0.4-0.3
			s-0.1,0.1-0.3,0.4c-0.1,0.1-0.2,0.3-0.4,0.4c-0.1,0.2-0.3,0.4-0.4,0.6c-0.2,0.2-0.3,0.5-0.5,0.7c-0.2,0.3-0.3,0.5-0.5,0.8
			c-0.2,0.3-0.3,0.6-0.5,0.9c-0.2,0.3-0.3,0.6-0.4,1c-0.6,1.3-1.1,2.6-1.4,3.7c-0.2,0.5-0.3,0.9-0.4,1.2
			C97.1,124,97.1,124.2,97.1,124.2z"/>
		<path class="st11" d="M76.3,125.9c0,0-0.6-0.5-1.2-1.4c-0.3-0.4-0.7-1-1-1.6c-0.3-0.6-0.6-1.3-0.9-2c-0.1-0.4-0.2-0.7-0.3-1.1
			c-0.1-0.3-0.2-0.7-0.2-1c-0.1-0.3-0.1-0.7-0.1-1c0-0.3,0-0.6,0-0.9c0-0.3,0-0.5,0-0.7c0-0.2,0.1-0.4,0.1-0.6
			c0.1-0.3,0.1-0.5,0.1-0.5s0,0.2,0,0.5c0,0.2,0,0.3,0,0.6c0,0.2,0.1,0.5,0.1,0.7c0,0.3,0.1,0.5,0.1,0.8c0,0.3,0.1,0.6,0.2,0.9
			c0.1,0.3,0.2,0.7,0.3,1c0.1,0.3,0.2,0.7,0.3,1c0.1,0.3,0.2,0.7,0.4,1c0.1,0.3,0.3,0.6,0.4,0.9c0.3,0.6,0.5,1.2,0.8,1.6
			c0.2,0.5,0.5,0.9,0.6,1.1C76.2,125.7,76.3,125.9,76.3,125.9z"/>
		<path class="st11" d="M72.4,127.2c0,0,0-0.4-0.2-1.1c-0.1-0.3-0.1-0.8-0.3-1.2c-0.1-0.5-0.2-1-0.5-1.5c-0.2-0.6-0.4-1.1-0.7-1.8
			c-0.3-0.6-0.5-1.4-0.6-2.1c-0.2-0.7-0.3-1.5-0.4-2.3c-0.1-0.8-0.2-1.6-0.2-2.4l0-1.2c0-0.4,0-0.8,0-1.2c0-0.8,0.1-1.6,0.2-2.3
			c0.1-0.8,0.3-1.5,0.4-2.1c0.2-0.7,0.4-1.3,0.6-1.9c0.2-0.6,0.4-1.1,0.7-1.5c0.2-0.4,0.4-0.8,0.6-1.1c0.4-0.6,0.6-0.9,0.6-0.9
			s-0.2,0.3-0.5,1c-0.2,0.3-0.3,0.7-0.5,1.1c-0.2,0.4-0.4,1-0.5,1.5c-0.2,0.6-0.3,1.2-0.5,1.8c-0.1,0.7-0.2,1.4-0.3,2.1
			c-0.1,0.7-0.1,1.5-0.2,2.3c0,0.4,0,0.8,0,1.2l0,1.2c0.1,1.6,0.3,3.1,0.5,4.6c0.1,0.7,0.3,1.4,0.5,2c0.2,0.6,0.4,1.3,0.6,1.9
			c0.2,0.6,0.2,1.1,0.3,1.6c0.1,0.5,0.1,0.9,0.1,1.3C72.4,126.8,72.4,127.2,72.4,127.2z"/>
		<path class="st11" d="M106.8,109.5c0,0-0.1-0.2-0.1-0.7c0-0.4,0-1.1,0.1-1.9c0.1-0.4,0.1-0.8,0.3-1.2c0.1-0.2,0.1-0.4,0.2-0.7
			c0.1-0.2,0.2-0.4,0.3-0.7c0.2-0.5,0.4-0.9,0.7-1.3c0.3-0.4,0.6-0.9,0.9-1.3c0.3-0.4,0.6-0.8,1-1.2c0.4-0.3,0.7-0.7,1.1-1
			c0.4-0.3,0.7-0.6,1.1-0.9c0.4-0.2,0.7-0.5,1.1-0.7c0.2-0.1,0.3-0.2,0.5-0.3c0.2-0.1,0.3-0.1,0.4-0.2c0.3-0.1,0.5-0.3,0.7-0.3
			c0.4-0.2,0.6-0.3,0.6-0.3s-0.2,0.2-0.6,0.4c-0.2,0.1-0.4,0.3-0.7,0.5c-0.3,0.2-0.5,0.4-0.8,0.6c-0.3,0.2-0.6,0.5-1,0.7
			c-0.3,0.3-0.7,0.6-1,0.9c-0.4,0.3-0.7,0.7-1,1c-0.4,0.3-0.6,0.7-1,1.1c-0.3,0.4-0.6,0.8-0.9,1.2c-0.2,0.4-0.5,0.8-0.7,1.2
			c-0.1,0.2-0.2,0.4-0.3,0.6c-0.1,0.2-0.2,0.4-0.2,0.6c-0.2,0.4-0.3,0.8-0.4,1.1c-0.2,0.7-0.3,1.3-0.4,1.8
			C106.8,109.2,106.8,109.5,106.8,109.5z"/>
		<path class="st11" d="M112.8,112.6c0,0,0.2-0.2,0.6-0.5c0.2-0.1,0.4-0.3,0.6-0.6c0.2-0.2,0.5-0.5,0.8-0.8c0.3-0.3,0.6-0.6,0.9-0.9
			c0.3-0.3,0.6-0.7,0.9-1.1c0.3-0.4,0.6-0.8,0.9-1.2c0.3-0.4,0.5-0.9,0.8-1.3l0.3-0.7l0.2-0.4l0.1-0.4c0.2-0.5,0.3-0.9,0.4-1.4
			c0.1-0.2,0.1-0.5,0.1-0.7c0-0.2,0-0.5,0.1-0.7c0-0.4,0.1-0.9,0-1.3c0-0.4,0-0.8-0.1-1.1c-0.1-0.3-0.1-0.6-0.2-0.8
			c-0.1-0.5-0.1-0.7-0.1-0.7s0.1,0.2,0.3,0.7c0.1,0.2,0.2,0.5,0.3,0.8c0.1,0.3,0.1,0.7,0.2,1.1c0,0.2,0.1,0.4,0.1,0.6
			c0,0.2,0,0.5,0,0.7c0,0.2,0,0.5,0,0.7c0,0.2-0.1,0.5-0.1,0.8c-0.1,0.5-0.2,1-0.4,1.5l-0.1,0.4l-0.2,0.4l-0.3,0.8
			c-0.3,0.5-0.5,1-0.8,1.4c-0.3,0.4-0.6,0.9-1,1.2c-0.3,0.4-0.7,0.7-1,1.1c-0.3,0.3-0.7,0.6-1,0.9c-0.6,0.5-1.2,0.9-1.6,1.1
			C113,112.5,112.8,112.6,112.8,112.6z"/>
		<path class="st11" d="M114.5,103.6c0,0,0.3-0.4,0.6-1c0.2-0.3,0.3-0.6,0.5-1c0.1-0.2,0.1-0.4,0.2-0.6c0.1-0.2,0.1-0.4,0.2-0.6
			c0.1-0.2,0.1-0.4,0.1-0.6c0-0.2,0.1-0.4,0.1-0.6c0-0.2,0-0.4,0-0.6c0-0.2,0-0.4,0-0.5c0-0.3,0-0.6,0-0.8c0-0.2,0-0.3,0-0.3
			s0.1,0.1,0.1,0.3c0.1,0.2,0.2,0.5,0.3,0.8c0.1,0.3,0.1,0.8,0.2,1.2c0,0.2,0,0.5,0,0.7c0,0.2-0.1,0.5-0.1,0.7
			c-0.1,0.2-0.1,0.5-0.2,0.7c-0.1,0.2-0.2,0.4-0.3,0.6c-0.2,0.4-0.5,0.7-0.7,1C114.9,103.5,114.5,103.6,114.5,103.6z"/>
		<path class="st11" d="M114.5,117.6c0,0,0.3-0.2,0.7-0.6c0.5-0.4,1.1-0.9,1.8-1.6c0.7-0.7,1.6-1.5,2.4-2.5c0.4-0.5,0.8-1,1.2-1.5
			c0.4-0.5,0.7-1.1,1-1.7c0.3-0.6,0.6-1.2,0.8-1.8c0.2-0.6,0.4-1.2,0.4-1.8c0.1-0.6,0.1-1.2,0.1-1.8c0-0.6-0.1-1.1-0.2-1.6
			c0-0.2-0.1-0.5-0.2-0.7c-0.1-0.2-0.1-0.4-0.2-0.6c-0.2-0.4-0.3-0.7-0.4-1c-0.3-0.5-0.4-0.8-0.4-0.8s0.2,0.3,0.5,0.8
			c0.2,0.2,0.3,0.6,0.5,0.9c0.2,0.4,0.4,0.8,0.5,1.3c0.2,0.5,0.3,1,0.4,1.6c0.1,0.6,0.1,1.2,0,1.9c-0.1,0.7-0.2,1.3-0.4,2
			c-0.2,0.7-0.5,1.3-0.8,1.9c-0.6,1.2-1.5,2.4-2.3,3.3c-0.9,1-1.8,1.7-2.6,2.4c-0.8,0.6-1.5,1.1-2,1.4
			C114.8,117.5,114.5,117.6,114.5,117.6z"/>
		<path class="st11" d="M115.4,122.7c0,0,0.7-0.6,1.6-1.6c0.5-0.5,1-1,1.6-1.6c0.6-0.6,1.2-1.3,1.7-2c0.6-0.7,1.1-1.4,1.6-2.1
			c0.2-0.3,0.4-0.7,0.6-1c0.2-0.3,0.3-0.7,0.5-0.9c0.2-0.3,0.2-0.6,0.3-0.8c0.1-0.2,0.2-0.5,0.2-0.7c0.1-0.4,0.2-0.6,0.2-0.6
			s0,0.2,0,0.6c0,0.2,0,0.4-0.1,0.7c-0.1,0.3-0.1,0.6-0.2,0.9c-0.1,0.3-0.2,0.7-0.4,1c-0.2,0.3-0.3,0.7-0.6,1.1
			c-0.2,0.4-0.4,0.8-0.7,1.1c-0.3,0.4-0.5,0.7-0.8,1.1c-0.3,0.4-0.6,0.7-0.9,1c-0.3,0.3-0.6,0.6-0.9,0.9c-0.6,0.6-1.2,1.1-1.8,1.5
			c-0.5,0.4-1,0.7-1.4,0.9C115.7,122.6,115.4,122.7,115.4,122.7z"/>
		<path class="st11" d="M120.8,124.4c0,0,0.2-0.2,0.5-0.5c0.3-0.3,0.7-0.8,1.2-1.4c0.5-0.6,1-1.3,1.5-2.1c0.2-0.4,0.5-0.8,0.7-1.3
			c0.1-0.2,0.2-0.4,0.3-0.7l0.3-0.7c0.2-0.5,0.3-0.9,0.5-1.4c0.2-0.5,0.2-0.9,0.4-1.4c0.1-0.5,0.1-0.9,0.2-1.3
			c0.1-0.4,0.1-0.8,0.1-1.2c0-0.4,0.1-0.7,0.1-1c0-0.3,0-0.6,0-0.8c0-0.4,0-0.7,0-0.7s0.1,0.3,0.1,0.7c0,0.2,0.1,0.5,0.1,0.8
			c0.1,0.3,0.1,0.7,0.1,1.1c0,0.4,0.1,0.8,0,1.3c0,0.4,0,0.9-0.1,1.4c-0.1,0.5-0.1,1-0.3,1.5c-0.2,0.5-0.3,1-0.5,1.5l-0.3,0.7
			c-0.1,0.2-0.2,0.5-0.4,0.7c-0.2,0.5-0.5,0.9-0.8,1.3c-0.3,0.4-0.6,0.8-0.8,1.1c-0.3,0.3-0.6,0.7-0.9,0.9c-0.5,0.6-1.1,1-1.4,1.2
			C121,124.3,120.8,124.4,120.8,124.4z"/>
		<path class="st11" d="M79,112.6c0,0-0.1-0.2-0.3-0.7c-0.1-0.2-0.2-0.5-0.3-0.8c-0.1-0.3-0.3-0.7-0.4-1.1c-0.1-0.4-0.2-0.8-0.3-1.3
			c-0.1-0.5-0.2-1-0.3-1.5c0-0.5-0.1-1.1-0.1-1.6c0-0.5,0-1.1,0.1-1.7l0.1-0.8c0.1-0.3,0.1-0.5,0.2-0.8c0.1-0.5,0.3-1,0.4-1.5
			c0.1-0.5,0.4-0.9,0.6-1.4c0.1-0.2,0.2-0.4,0.3-0.6c0.1-0.2,0.2-0.4,0.3-0.5c0.2-0.3,0.4-0.7,0.6-0.9c0.2-0.3,0.4-0.5,0.6-0.7
			c0.3-0.4,0.5-0.6,0.5-0.6s-0.1,0.2-0.4,0.6c-0.1,0.2-0.3,0.4-0.5,0.7c-0.2,0.3-0.3,0.6-0.5,1c-0.2,0.4-0.4,0.7-0.5,1.2
			c-0.2,0.4-0.4,0.9-0.5,1.4c-0.1,0.5-0.3,1-0.4,1.5c0,0.3-0.1,0.5-0.1,0.8l-0.1,0.8c-0.1,0.5-0.1,1.1-0.1,1.6c0,0.5,0,1,0,1.5
			c0.1,0.5,0.1,1,0.2,1.4c0.1,0.5,0.1,0.9,0.2,1.3c0.2,0.8,0.3,1.5,0.4,1.9C78.9,112.4,79,112.6,79,112.6z"/>
		<path class="st11" d="M102.9,104.1c0,0,0-0.2,0-0.5c0-0.3,0.1-0.8,0.2-1.3c0.1-0.5,0.4-1.2,0.7-1.8c0.2-0.3,0.3-0.6,0.5-0.9
			c0.2-0.3,0.4-0.6,0.7-0.9c0.2-0.3,0.5-0.5,0.8-0.8c0.3-0.3,0.6-0.5,0.8-0.7c0.3-0.2,0.6-0.4,0.8-0.6c0.3-0.2,0.5-0.3,0.8-0.4
			c0.3-0.1,0.5-0.2,0.7-0.3c0.2-0.1,0.4-0.1,0.6-0.2c0.3-0.1,0.5-0.1,0.5-0.1s-0.2,0.1-0.4,0.3c-0.1,0.1-0.3,0.2-0.5,0.3
			c-0.2,0.1-0.4,0.3-0.6,0.4c-0.2,0.2-0.5,0.3-0.7,0.5c-0.2,0.2-0.5,0.4-0.7,0.6c-0.2,0.2-0.5,0.4-0.7,0.7c-0.2,0.3-0.5,0.5-0.7,0.8
			c-0.5,0.5-0.8,1.1-1.2,1.7c-0.3,0.6-0.6,1.1-0.8,1.6c-0.2,0.5-0.4,0.9-0.5,1.2C103,104,102.9,104.1,102.9,104.1z"/>
		<path class="st11" d="M101.3,99.4c0,0,0-0.1,0.1-0.3c0.1-0.2,0.3-0.4,0.5-0.7c0.2-0.3,0.5-0.6,0.9-0.9c0.2-0.1,0.3-0.3,0.5-0.4
			c0.2-0.1,0.4-0.3,0.6-0.4c0.2-0.1,0.4-0.3,0.6-0.3c0.2-0.1,0.4-0.2,0.6-0.3c0.2-0.1,0.4-0.2,0.6-0.2c0.2-0.1,0.4-0.1,0.6-0.1
			c0.7-0.1,1.2-0.2,1.2-0.2s-0.4,0.3-1,0.6c-0.2,0.1-0.3,0.2-0.5,0.2c-0.2,0.1-0.4,0.2-0.5,0.3c-0.2,0.1-0.4,0.2-0.6,0.3
			c-0.2,0.1-0.4,0.2-0.6,0.3c-0.2,0.1-0.4,0.2-0.6,0.3c-0.2,0.1-0.4,0.2-0.5,0.4c-0.2,0.1-0.4,0.2-0.5,0.3c-0.2,0.1-0.3,0.2-0.4,0.3
			c-0.3,0.2-0.5,0.4-0.6,0.5C101.4,99.3,101.3,99.4,101.3,99.4z"/>
		<path class="st11" d="M93.7,106.8c0,0-0.2-0.9-0.2-2.2c0-0.7,0-1.4,0.1-2.3c0.1-0.4,0.1-0.8,0.2-1.3c0.1-0.4,0.2-0.9,0.4-1.3
			c0.2-0.4,0.3-0.8,0.5-1.2c0.2-0.4,0.4-0.8,0.6-1.1c0.2-0.4,0.5-0.7,0.7-1c0.1-0.1,0.2-0.3,0.4-0.4c0.1-0.1,0.3-0.2,0.4-0.4
			c0.2-0.2,0.5-0.4,0.7-0.6c0.2-0.2,0.4-0.3,0.6-0.4c0.3-0.2,0.5-0.3,0.5-0.3s-0.1,0.2-0.4,0.4c-0.1,0.1-0.3,0.3-0.5,0.5
			c-0.2,0.2-0.3,0.4-0.5,0.7c-0.2,0.2-0.4,0.5-0.6,0.8c-0.2,0.3-0.4,0.6-0.6,1c-0.1,0.2-0.2,0.3-0.3,0.5c-0.1,0.2-0.2,0.4-0.3,0.6
			c-0.2,0.4-0.3,0.8-0.5,1.2c-0.2,0.4-0.3,0.8-0.4,1.2c-0.1,0.4-0.2,0.8-0.3,1.2c-0.2,0.8-0.3,1.5-0.4,2.2c-0.1,0.6-0.1,1.2-0.1,1.6
			C93.7,106.6,93.7,106.8,93.7,106.8z"/>
		<path class="st11" d="M90,108.4c0,0-0.3-0.9-0.4-2.3c-0.1-0.7,0-1.5,0-2.4c0-0.4,0.1-0.9,0.2-1.4c0.1-0.5,0.2-0.9,0.3-1.4
			c0.1-0.5,0.3-0.9,0.5-1.3c0.1-0.2,0.2-0.4,0.3-0.6c0.1-0.2,0.2-0.4,0.3-0.6c0.1-0.2,0.2-0.4,0.3-0.6c0.1-0.2,0.2-0.3,0.4-0.5
			c0.2-0.3,0.5-0.6,0.7-0.9c0.2-0.3,0.5-0.5,0.7-0.7c0.2-0.2,0.4-0.3,0.6-0.5c0.3-0.3,0.5-0.4,0.5-0.4S94.3,95,94,95.3
			c-0.1,0.2-0.3,0.3-0.5,0.6c-0.2,0.2-0.3,0.5-0.5,0.8c-0.2,0.3-0.4,0.6-0.6,0.9c-0.1,0.2-0.2,0.3-0.3,0.5c-0.1,0.2-0.2,0.4-0.3,0.6
			c-0.1,0.2-0.2,0.4-0.3,0.6c-0.1,0.2-0.2,0.4-0.2,0.6c-0.2,0.4-0.3,0.8-0.4,1.3c-0.1,0.4-0.2,0.9-0.3,1.3c-0.1,0.4-0.2,0.9-0.2,1.3
			c-0.1,0.8-0.2,1.6-0.2,2.3c0,0.7-0.1,1.3-0.1,1.7C90,108.2,90,108.4,90,108.4z"/>
		<path class="st11" d="M82.9,104.7c0,0-0.2-0.6-0.3-1.6c0-0.5-0.1-1.1,0-1.7c0-0.6,0.2-1.3,0.3-2c0.1-0.3,0.2-0.7,0.3-1
			c0.1-0.3,0.2-0.6,0.4-0.9c0.1-0.3,0.3-0.6,0.5-0.8c0.2-0.2,0.3-0.5,0.5-0.7c0.2-0.2,0.3-0.4,0.5-0.5c0.2-0.1,0.3-0.2,0.4-0.3
			c0.2-0.2,0.4-0.3,0.4-0.3s-0.1,0.1-0.3,0.4c-0.1,0.1-0.2,0.3-0.3,0.4c-0.1,0.2-0.2,0.4-0.3,0.6c-0.1,0.2-0.2,0.4-0.4,0.7
			c-0.1,0.2-0.2,0.5-0.3,0.8c-0.1,0.3-0.2,0.6-0.3,0.9c-0.1,0.3-0.2,0.6-0.3,0.9c-0.1,0.3-0.2,0.6-0.2,0.9c0,0.3-0.1,0.6-0.2,0.9
			c-0.1,0.6-0.2,1.2-0.2,1.6C82.9,104.1,82.9,104.7,82.9,104.7z"/>
		<path class="st11" d="M126,133.4c0,0-0.1-0.1-0.1-0.3c0-0.1,0-0.2,0-0.4c0-0.2,0-0.3,0-0.5c0-0.2,0.1-0.4,0.1-0.6
			c0.1-0.2,0.2-0.4,0.3-0.6c0.1-0.1,0.1-0.2,0.2-0.3c0.1-0.1,0.1-0.2,0.2-0.3c0.1-0.2,0.3-0.4,0.5-0.6c0.1-0.2,0.4-0.4,0.5-0.5
			c0.2-0.2,0.4-0.3,0.5-0.5c0.3-0.3,0.7-0.5,1.1-0.7c0.7-0.4,1.1-0.5,1.1-0.5s-0.3,0.4-0.9,0.9c-0.1,0.1-0.3,0.3-0.4,0.4
			c-0.2,0.1-0.3,0.3-0.5,0.5c-0.2,0.2-0.3,0.3-0.5,0.5c-0.2,0.2-0.4,0.3-0.5,0.5c-0.1,0.2-0.3,0.4-0.4,0.5l-0.2,0.3
			c-0.1,0.1-0.1,0.2-0.2,0.3c-0.1,0.2-0.2,0.4-0.3,0.5c-0.1,0.2-0.2,0.4-0.2,0.5c-0.1,0.2-0.1,0.3-0.2,0.5c0,0.1-0.1,0.3-0.1,0.4
			C126,133.2,126,133.4,126,133.4z"/>
		<path class="st11" d="M88.5,114.8c0,0-0.3-0.4-0.5-1.1c-0.1-0.2-0.1-0.4-0.2-0.6c0-0.2-0.1-0.4-0.1-0.6c-0.1-0.5-0.1-0.9-0.1-1.4
			c0-0.2,0-0.5,0-0.7c0-0.2,0.1-0.5,0.1-0.7c0-0.2,0.1-0.4,0.1-0.6c0-0.2,0.1-0.4,0.2-0.6c0.3-0.7,0.5-1.1,0.5-1.1s0,0.5-0.1,1.2
			c-0.1,0.3,0,0.8-0.1,1.2c0,0.2,0,0.4,0,0.7c0,0.2,0,0.5,0,0.7c0,0.5,0,0.9,0,1.4c0,0.4,0,0.8,0.1,1.2
			C88.4,114.3,88.5,114.8,88.5,114.8z"/>
		<path class="st11" d="M96.5,114.2c0,0-0.1-0.5,0.1-1.3c0-0.4,0.1-0.8,0.2-1.3c0.1-0.5,0.3-0.9,0.5-1.4c0.1-0.2,0.2-0.5,0.3-0.7
			c0.1-0.2,0.2-0.4,0.4-0.6c0.1-0.2,0.3-0.4,0.4-0.6c0.1-0.2,0.2-0.4,0.4-0.5c0.5-0.6,0.9-0.9,0.9-0.9s-0.2,0.5-0.5,1.1
			c-0.2,0.3-0.3,0.7-0.5,1.1c-0.2,0.4-0.4,0.9-0.6,1.3c-0.2,0.4-0.4,0.9-0.5,1.3c-0.2,0.4-0.3,0.8-0.5,1.2
			C96.7,113.7,96.5,114.2,96.5,114.2z"/>
		<path class="st11" d="M84.1,114.2c0,0,0-0.4,0.1-0.9c0-0.3,0.1-0.6,0.1-0.9c0-0.2,0-0.3,0-0.5c0-0.2,0.1-0.3,0-0.5
			c0-0.2,0-0.3,0-0.5c0-0.2,0-0.3,0-0.5c0-0.3,0-0.6,0-0.9c0-0.5,0-0.9,0-0.9s0.2,0.3,0.4,0.8c0.1,0.3,0.1,0.6,0.2,0.9
			c0.1,0.4,0,0.7,0,1.1c0,0.2-0.1,0.4-0.1,0.6c0,0.2-0.1,0.4-0.1,0.5c-0.1,0.3-0.2,0.6-0.3,0.9C84.3,113.9,84.1,114.2,84.1,114.2z"
			/>
		<path class="st11" d="M69.1,122.2c0,0-0.1-0.1-0.3-0.3c-0.2-0.2-0.4-0.5-0.6-0.9c-0.1-0.2-0.2-0.4-0.3-0.7
			c-0.1-0.2-0.2-0.5-0.3-0.8c-0.1-0.3-0.2-0.5-0.2-0.8c-0.1-0.3-0.1-0.6-0.1-0.9c0-0.3-0.1-0.6-0.1-0.9c0-0.3,0-0.6,0-0.9
			c0-0.3,0-0.5,0.1-0.8c0-0.3,0.1-0.5,0.1-0.7c0.2-0.9,0.4-1.4,0.4-1.4s0,0.6,0,1.5c0,0.2,0,0.4,0,0.7c0,0.2,0,0.5,0,0.8
			c0,0.3,0,0.5,0,0.8c0,0.3,0.1,0.6,0.1,0.8c0,0.3,0,0.6,0.1,0.8c0.1,0.3,0.1,0.5,0.2,0.8c0,0.3,0.1,0.5,0.2,0.7
			c0.1,0.2,0.1,0.5,0.2,0.7c0.1,0.4,0.2,0.8,0.3,1C69.1,122.1,69.1,122.2,69.1,122.2z"/>
		<path class="st11" d="M107.8,148.3c0,0-0.6,0.5-1.6,1.1c-1,0.6-2.4,1.3-3.9,1.6c-0.8,0.2-1.6,0.3-2.3,0.2c-0.4,0-0.7-0.1-1.1-0.1
			c-0.3-0.1-0.6-0.2-0.9-0.3c-0.5-0.2-0.9-0.6-1.2-0.8c-0.1-0.1-0.2-0.2-0.3-0.3c-0.1-0.1-0.1-0.1-0.1-0.1s0.2,0.1,0.4,0.3
			c0.1,0.1,0.3,0.2,0.5,0.3c0.2,0.1,0.4,0.2,0.7,0.3c0.5,0.1,1.2,0.2,1.8,0.2c0.7,0,1.4-0.1,2.1-0.3c1.4-0.3,2.9-0.9,3.9-1.3
			c0.5-0.2,1-0.4,1.3-0.5C107.6,148.4,107.8,148.3,107.8,148.3z"/>
	</g>
	<g class="st3">
		<path class="st23" d="M82.5,150c2.1,2.5,5.2-1.9,5.2-1.9s5,8.4,16.3,4.1c3.4-1.9,5.8-0.5,5.8-0.5s0.4-1.4-0.2-2.4
			c-6.6,1.5-14.2,2-17.2-2.3c-1.9-3.6,3.4,0.7,5.6-3.4c-3.9,0.7-6.1-0.5-6.1-0.5s14.3-0.2,16.8-13.1c-5.1,7.5-14.6,11.9-18,9.2
			c-3.4-2.7,0.7-10.9,3.6-13.9c2.9-2.9,0.7,3.4,0.7,3.4s3.9-6.8,5.3-9.2c1.5-2.4,0,4.1,1,3.9c1-0.2,0.7-6.1,4.9-11.4
			c-0.2-2.9-3.2,0.2-4.6,3.4c1.9-6.1-3.4-2.2-4.6,3.4c-3.2-2.4-4.6,1-6.3,3.6c-1.7,2.7-1.9-1-1.2-3.6c0.7-2.7-4.9-1.2-5.8,5.3
			c-1,6.6-6.6,1.7-9.2-6.6C73.1,113,71.4,123,77,132c1.7,3.6,1.2,5.1-1.7,1.5c-2.9-3.6-0.5,6.3,6.1,7.1c5.9,0.7,2.8,7.2-2.9,4.5
			c1.4,0.9,3,1.7,4.7,2.2C79.5,149.1,78.9,150.7,82.5,150z"/>
	</g>
	<g>
		<g>
			<path class="st23" d="M118.8,113.8c-0.8,1-1.4,2.1-1.4,2.1S118,115.1,118.8,113.8z"/>
			<path class="st11" d="M118.5,113.6l0.6,0.4c-0.8,1.2-1.4,2.1-1.4,2.1l-0.6-0.4C117.1,115.7,117.7,114.6,118.5,113.6z"/>
		</g>
		<path class="st25" d="M69.3,130.4c0,0.4,0.1,1,0.3,1.7c0.1-1,0.3-1.9,0.6-2.6c-4.4-4.4-3.6-9.7-1.7-9.7c-1.5-5.3,0.2-10.7,1.9-5.1
			c0-10.2,7.3-16.8,6.2-12.2c-1.1,4.5,0.4,6.9,0.9,2.3c0.5-4.6,3.9-6.8,4.1-4.6c0.2,2.2,0.5,7.1,1.5,2.2c1-4.9,4.1-5.3,4.4-2.4
			c0.2,2.9,1.9,3.9,2.2,1.9c0.2-1.9,3.4-6.6,2.9-4.1c-0.5,2.4,0.5,5.8,0.7,5.1c0.2-0.7,4.1-8.3,3.2-3.6c-1,4.6,0.2,7.5,1.5,4.6
			c1.2-2.9,5.6-5.3,4.4-2.7c-1.2,2.7,0.2,3.6,1.5,1c1.2-2.7,6.3-5.6,4.1-1c-2.2,4.6-1,8.8-0.2,6.1c0.7-2.7,5.1-7.5,5.8-5.8
			c0.7,1.7-1.9,5.3,0.5,4.6c2.4-0.7,3.9-7.1,4.1-2.7c0.2,4.4-2.9,8-2.9,8s3.2-1,6.1-6.3c1.9,1.3-0.7,6.1-2.5,8.8c0.9-1,2-1.9,3-1.3
			c1.9,1.2-4.1,10.2-4.1,10.2s5.6-7.1,6.1-4.6c0.5,2.4-4.9,10-4.9,10s6.6-5.1,5.1-0.2c-1.5,4.9-11.7,10.5-4.6,7.8
			c5.6-2.2,5.8,1-0.5,5.6c5.6-1.7-2.2,4.1-2.2,4.1l0,0.1c3.9-1.9,8.3-4.9,10.7-9.4c-2.3,1.9-3.7,2.5-3.7,2.5s6.2-5.3,6.6-10.8
			c1.3-1.9,2.7-1.6,2.7-1.6s-1.2-2.8-3.5-1.9c3.5-4.1,3-7.9,0.4-9.6c0,2.2-0.6,2.5-0.6,2.5s0.9-5.8-2.6-7.4c1-7.2-3-9.4-5.2-10.2
			c-2.6-2.1-4-3.2-5.6-2.5c0.3-2-2.9-3.5-5.9-1.3c-1-0.7-2.5-0.1-2.5-0.1c-0.4-2.2-6.2-2.5-9-0.9c-0.5-1.7-3.3-0.8-3.8,0
			c-1.6-1.4-7.8-0.9-8.8,0.3c-0.2-3.1-3.2-0.7-4.8,1.2c-0.7-3.3-7.6,1.4-8,6.4c-2.4-0.7-5.3,7.5-5.4,11.2
			C65.7,114,63.6,124.7,69.3,130.4z"/>
	</g>
	<path class="st26" d="M111.3,145.1c0,0-5.2,3.3-8.7,2.4c-3.4-0.9,5.5-3.7,0.4-3.4c-5.1,0.3,2.8-3,5.5-7c2.7-4,3-0.3,0.7,2.1
		c-2.2,2.4,1.8-0.1,5.2-0.9C118,137.4,117.1,141.5,111.3,145.1z"/>
	<path class="st26" d="M107.8,128.1c0,0-6,9.2-12.4,9.8c-6.4,0.6,4.6-16,4.5-10.9c-0.1,5.1,1.7-3.5,4.9-8c3.2-4.5,1.9,2.7-0.1,6.7
		C102.6,129.7,111.2,122.2,107.8,128.1z"/>
	<path class="st26" d="M110.2,111.1c0,0,0.5-3.6,1.5-6c0.9-2.4-2.2-0.7-3.3,3.8C107.2,113.5,110,114.6,110.2,111.1z"/>
	<path class="st26" d="M105.2,108.7c0,0,0.4-4.4,1.3-6.7c0.9-2.4-2.9-1.3-3.3,3.5C102.9,110.2,105.2,111.7,105.2,108.7z"/>
	<path class="st26" d="M111.3,115.3c0,0,6.4-3.6,8-6c1.6-2.4,0.9,3.8-5.1,7.1C110.2,118.6,110,116.2,111.3,115.3z"/>
	<path class="st26" d="M113.1,125.7c0,0,4.7-2.2,7.8-4.7c3.1-2.6,2.2,1.3-2.2,4.6C114.4,128.8,109.8,127.4,113.1,125.7z"/>
	<path class="st26" d="M82.4,111.5c0,0-1.3-4.2-1.1-8c0.2-3.8-3.3-1.5-2.9,4C78.8,112.9,83.5,116.8,82.4,111.5z"/>
	<path class="st26" d="M78.1,116.2c0,0-2-2.7-2.4-9.5c-0.4-6.7-2.9-0.7-1.3,6.6C76.1,120.6,79,119.5,78.1,116.2z"/>
	<path class="st23" d="M111,144.3c-0.9,0.6-1.8,1.1-2.7,1.5c-0.9,0.4-1.9,0.9-2.9,1.2c-0.3,0.1-0.5,0.1-0.8,0.1c-0.1,0-0.3,0-0.4,0
		l-0.1,0c0,0,0,0-0.1,0l0,0c-0.1,0-0.1,0-0.2-0.1c-0.2-0.1-0.4-0.2-0.5-0.5c-0.1-0.2,0-0.4,0.1-0.6c0.1-0.3,0.3-0.5,0.4-0.8
		c0.3-0.4,0.7-0.8,1.1-1.2c0.4-0.4,0.8-0.7,1.2-1l0.4,0.6c-0.4,0.3-0.9,0.5-1.4,0.7c-0.5,0.2-1,0.3-1.6,0.2c-0.1,0-0.3-0.1-0.4-0.2
		c-0.1,0-0.1,0-0.2-0.1c0,0-0.1,0-0.2-0.2c-0.1-0.2-0.1-0.5,0-0.6c0.1-0.2,0.2-0.3,0.2-0.4c0.3-0.4,0.7-0.7,1.1-1
		c0.8-0.6,1.6-1.2,2.3-1.8c0.4-0.3,0.8-0.6,1.1-0.9c0.3-0.3,0.7-0.7,0.9-1.1c-0.2,0.5-0.5,0.9-0.8,1.3c-0.3,0.4-0.7,0.7-1,1.1
		c-0.7,0.7-1.5,1.3-2.2,1.9c-0.4,0.3-0.7,0.7-1,1c-0.1,0.2-0.2,0.4-0.2,0.3c0,0,0,0,0.1,0.1c0,0,0.1,0,0.1,0
		c0.1,0.1,0.2,0.1,0.3,0.1c0.4,0.1,0.8,0,1.2-0.2c0.4-0.2,0.8-0.4,1.2-0.6l0.4,0.6c-0.8,0.6-1.6,1.3-2.2,2c-0.2,0.2-0.3,0.4-0.4,0.6
		c0,0.1,0,0.2,0,0.2c0,0,0,0,0.1,0c0,0,0.1,0,0.1,0l0,0c0,0,0,0,0,0l0.1,0c0.1,0,0.2,0,0.3,0c0.2,0,0.5,0,0.7-0.1
		c1-0.2,1.9-0.6,2.9-0.9C109.1,145.2,110,144.7,111,144.3z"/>
	<path class="st23" d="M104.9,129.7c0,0-0.2,0.3-0.5,0.9c-0.4,0.5-0.9,1.3-1.6,2.2c-0.7,0.9-1.5,1.9-2.6,2.8
		c-0.5,0.5-1.1,0.9-1.8,1.3c-0.7,0.3-1.4,0.7-2.2,0.7c-0.1,0-0.2,0-0.3,0l-0.3,0c-0.2,0-0.4,0-0.6-0.1c-0.4-0.1-0.8-0.4-1-0.8
		c-0.2-0.4-0.2-0.8-0.2-1.2c0-0.4,0.1-0.8,0.2-1.1c0.2-0.7,0.5-1.3,0.8-1.9c0.3-0.6,0.6-1.1,1-1.5c0.6-0.9,1.2-1.6,1.7-2.1
		c0.4-0.5,0.7-0.7,0.7-0.7s-0.2,0.3-0.6,0.8c-0.4,0.5-0.9,1.3-1.4,2.2c-0.6,0.9-1.2,2.1-1.5,3.3c-0.2,0.6-0.3,1.3,0,1.8
		c0.3,0.5,0.9,0.6,1.6,0.5c0.7,0,1.3-0.3,1.9-0.6c0.6-0.4,1.2-0.7,1.7-1.2c1-0.8,2-1.7,2.7-2.5c0.7-0.8,1.3-1.5,1.7-2
		C104.6,130,104.9,129.7,104.9,129.7z"/>
	<path class="st23" d="M80.8,143.9c0,0-0.2,0-0.6-0.2c-0.4-0.1-0.9-0.3-1.5-0.6c-0.6-0.3-1.3-0.7-1.9-1.2c-0.3-0.2-0.7-0.5-1-0.8
		c-0.3-0.3-0.6-0.6-1-0.9c-0.3-0.3-0.6-0.7-0.9-1c-0.3-0.3-0.5-0.7-0.8-1c-0.2-0.3-0.4-0.7-0.7-1c-0.2-0.3-0.4-0.6-0.5-0.9
		c-0.3-0.6-0.5-1.1-0.7-1.4c-0.1-0.4-0.2-0.6-0.2-0.6s0.1,0.2,0.3,0.5c0.1,0.2,0.2,0.4,0.4,0.6c0.1,0.2,0.3,0.5,0.5,0.7
		c0.2,0.3,0.4,0.6,0.6,0.8c0.2,0.3,0.5,0.6,0.7,0.9c0.3,0.3,0.5,0.6,0.8,0.9c0.3,0.3,0.6,0.6,0.9,0.9c0.3,0.3,0.6,0.6,0.9,0.9
		c0.3,0.3,0.6,0.6,0.9,0.8c0.6,0.5,1.2,1,1.7,1.4c0.5,0.4,1,0.7,1.3,0.9C80.6,143.8,80.8,143.9,80.8,143.9z"/>
</g>
</svg>
