<?xml version="1.0" encoding="utf-8"?>
<!-- Generator: Adobe Illustrator 27.4.0, SVG Export Plug-In . SVG Version: 6.00 Build 0)  -->
<svg version="1.1"
	 id="svg289" xmlns:cc="http://creativecommons.org/ns#" xmlns:dc="http://purl.org/dc/elements/1.1/" xmlns:rdf="http://www.w3.org/1999/02/22-rdf-syntax-ns#" xmlns:sodipodi="http://sodipodi.sourceforge.net/DTD/sodipodi-0.dtd" xmlns:inkscape="http://www.inkscape.org/namespaces/inkscape" xmlns:svg="http://www.w3.org/2000/svg" inkscape:version="0.92.4 (5da689c313, 2019-01-14)" sodipodi:docname="student.svg"
	 xmlns="http://www.w3.org/2000/svg" xmlns:xlink="http://www.w3.org/1999/xlink" x="0px" y="0px" viewBox="0 0 176.9 176.8"
	 style="enable-background:new 0 0 176.9 176.8;" xml:space="preserve">
<style type="text/css">
	.st0{fill:#FDE0CA;}
	.st1{fill:#E29078;}
	.st2{opacity:0.5;fill:#E49078;enable-background:new    ;}
	.st3{opacity:0.5;}
	.st4{opacity:0.5;fill:#E29078;enable-background:new    ;}
	.st5{opacity:0.7;}
	.st6{fill:#FFFFFF;}
	.st7{fill:#D2D3D6;}
	.st8{fill:#F985FF;}
	.st9{fill:#C15DC9;}
	.st10{fill:#89211E;}
	.st11{fill:#43AA00;}
	.st12{fill:#FFD54C;}
	.st13{fill:#D3A116;}
	.st14{opacity:0.5;fill:#C96833;enable-background:new    ;}
	.st15{fill:#469910;}
	.st16{fill:#1B1B18;}
	.st17{fill:#5A5A4F;}
	.st18{fill:none;stroke:#000000;stroke-width:0.4164;stroke-linecap:round;stroke-linejoin:round;stroke-miterlimit:2.0986;}
	.st19{opacity:0.6;fill:#FFF4F0;enable-background:new    ;}
	.st20{fill:#FFF4F0;}
	.st21{fill:#7E2922;}
	.st22{opacity:0.4;fill:#7E2922;}
	.st23{opacity:0.6;fill:#870022;}
	.st24{opacity:0.6;fill:#860022;}
	.st25{opacity:0.4;fill:#D34642;}
	.st26{opacity:0.2;fill:#D34642;}
	.st27{fill:#D34642;}
	.st28{opacity:0.5;fill:#D34642;}
	.st29{opacity:0.2;fill:#7E2922;}
</style>
<defs>
	
		<inkscape:path-effect  apply_no_weight="true" apply_with_weight="true" effect="bspline" helper_size="0" id="path-effect9762" is_visible="true" only_selected="false" steps="2" weight="33.333333">
		</inkscape:path-effect>
	
		<inkscape:path-effect  apply_no_weight="true" apply_with_weight="true" effect="bspline" helper_size="0" id="path-effect9740" is_visible="true" only_selected="false" steps="2" weight="33.333333">
		</inkscape:path-effect>
	
		<inkscape:path-effect  apply_no_weight="true" apply_with_weight="true" effect="bspline" helper_size="0" id="path-effect9586" is_visible="true" only_selected="false" steps="2" weight="33.333333">
		</inkscape:path-effect>
	
		<inkscape:path-effect  apply_no_weight="true" apply_with_weight="true" effect="bspline" helper_size="0" id="path-effect9740-1" is_visible="true" only_selected="false" steps="2" weight="33.333333">
		</inkscape:path-effect>
</defs>
<sodipodi:namedview  bordercolor="#666666" borderopacity="1.0" fit-margin-bottom="0" fit-margin-left="0" fit-margin-right="0" fit-margin-top="0" id="base" inkscape:current-layer="layer1" inkscape:cx="-209.20158" inkscape:cy="-1.9514653" inkscape:document-units="mm" inkscape:pageopacity="0.0" inkscape:pageshadow="2" inkscape:window-height="705" inkscape:window-maximized="1" inkscape:window-width="1366" inkscape:window-x="-8" inkscape:window-y="-8" inkscape:zoom="0.7" pagecolor="#ffffff" showgrid="false">
	</sodipodi:namedview>
<g>
	<g>
		<g>
			<g>
				<path class="st0" d="M155.5,91.2c0,0-0.2-3.1,1.8-4.5s2.7-3.1,3.8-2.8c1.1,0.3-0.1,3.3-1.5,4c1.9,2.6,3.3,2.9,4.9,2.7
					c1.6-0.2,3.4-1.6,4.7-0.7c1.4,0.8,1.3,1.6-0.8,1.9s-2.1,1.2-2.1,1.2s1.1,1.5-0.8,3.1c0.8,1.8,1,1.5-0.6,2.9
					c-1.6,1.5-2.9,1.9-6,1.7c-3.1-0.2-3.3-1-3.3-1L155.5,91.2z"/>
				<g>
					<path class="st1" d="M166.6,92.6c0,0-0.2,0.4-0.7,0.8c-0.1,0.1-0.3,0.2-0.5,0.3c-0.2,0.1-0.4,0.1-0.6,0.2c-0.2,0-0.4,0-0.6,0
						c-0.2,0-0.4,0-0.6,0c-0.9,0-1.7,0-2.4-0.1c-0.6,0-1.1-0.1-1.1-0.1s0.4-0.1,1.1-0.1c0.7,0,1.5-0.1,2.4-0.1c0.2,0,0.4,0,0.6,0
						c0.2,0,0.4,0,0.6,0c0.2,0,0.4,0,0.5-0.1c0.2,0,0.3-0.1,0.5-0.2c0.1-0.1,0.3-0.2,0.4-0.2c0.1-0.1,0.2-0.1,0.3-0.2
						C166.5,92.7,166.6,92.6,166.6,92.6z"/>
					<path class="st1" d="M165.5,96.1c0,0-0.1,0-0.2,0.1c-0.2,0-0.4,0.1-0.7,0.2c-0.3,0-0.6,0.1-1,0.2c-0.4,0-0.7,0-1.1,0
						c-0.2,0-0.4,0-0.6,0c-0.2,0-0.4,0-0.5,0c-0.4,0-0.7,0-1,0c-0.6,0-0.9,0-0.9,0s0.1,0,0.2-0.1c0.2,0,0.4-0.1,0.7-0.2
						c0.3,0,0.6-0.1,1-0.1c0.2,0,0.4,0,0.5,0c0.2,0,0.4,0,0.6,0c0.4,0,0.7,0,1.1,0c0.3,0,0.7,0,1,0
						C165.1,96.1,165.5,96.1,165.5,96.1z"/>
					<path class="st1" d="M165.4,98.6c0,0-0.1,0.1-0.2,0.2c-0.1,0.1-0.3,0.2-0.6,0.3c-0.1,0.1-0.3,0.1-0.4,0.2
						c-0.2,0-0.3,0.1-0.5,0.1s-0.4,0-0.5,0.1c-0.2,0-0.4,0-0.6,0.1c-0.4,0-0.7,0.1-1.1,0.1c-0.3,0-0.7,0-1,0c-0.6,0-0.9,0-0.9,0
						s0.4-0.1,0.9-0.2c0.6-0.1,1.3-0.2,2-0.3c0.4,0,0.7-0.1,1.1-0.1c0.2,0,0.3,0,0.5,0s0.3-0.1,0.4-0.1c0.3,0,0.5-0.1,0.6-0.2
						C165.3,98.6,165.4,98.6,165.4,98.6z"/>
				</g>
				<path class="st2" d="M160.9,83.5c0.1,0,0.2,0,0.3,0c0.4,0.1,0.6,0.4,0.7,0.9c0.1,1-0.7,2.8-1.8,3.6c1.8,2.3,2.9,2.4,4.4,2.3
					c0.5-0.1,1.1-0.3,1.7-0.5c0.7-0.3,1.4-0.5,2.1-0.5c0.4,0,0.8,0.1,1.2,0.3c0.8,0.5,1.2,1,1.1,1.5c-0.1,0.6-0.8,0.9-2,1.1
					c-1.3,0.2-1.7,0.6-1.8,0.8c0.2,0.5,0.8,1.9-0.8,3.3c0.1,0.1,0.1,0.3,0.2,0.4c0.6,1.2,0.5,1.4-0.7,2.4l-0.3,0.3
					c-1.8,1.6-3.2,2-6.3,1.8s-3.6-1-3.6-1.3v-0.1l-0.1-8.6c0-0.1-0.2-3.3,2-4.8c0.8-0.5,1.4-1.1,1.9-1.7
					C159.7,84,160.2,83.5,160.9,83.5z M163.8,91c-1.7,0-3-0.8-4.5-2.9l-0.3-0.3l0.4-0.2c1-0.5,1.9-2.2,1.8-3.1
					c0-0.2-0.1-0.3-0.1-0.3c-0.5-0.1-0.9,0.4-1.5,1c-0.5,0.5-1.1,1.2-2,1.8c-1.8,1.2-1.7,4.1-1.7,4.1l0.1,8.5
					c0.1,0.1,0.6,0.6,2.9,0.7c3.1,0.2,4.3-0.3,5.8-1.6l0.3-0.3c0.9-0.8,0.9-0.8,0.5-1.6c-0.1-0.2-0.2-0.4-0.3-0.6l-0.1-0.3l0.2-0.2
					c1.6-1.3,0.8-2.6,0.8-2.6L166,93v-0.1c0-0.1,0.1-1.2,2.4-1.5c1.3-0.2,1.4-0.5,1.4-0.5c0-0.1-0.1-0.3-0.7-0.7
					c-0.7-0.4-1.6-0.1-2.6,0.3c-0.6,0.2-1.2,0.4-1.9,0.5C164.3,91,164,91,163.8,91z"/>
			</g>
			<g>
				<path class="st0" d="M155.5,91.2l0.1,8.6c0,0,0.2,0.8,3.3,1s4.4-0.3,6-1.7c1.6-1.5,1.5-1.1,0.6-2.9c1.9-1.6,0.8-3.1,0.8-3.1
					s0-0.9,2.1-1.2c2.1-0.3,2.2-1.1,0.8-1.9s-3.1,0.5-4.7,0.7c-1.6,0.2-3-0.1-4.9-2.7c1.5-0.7,2.6-3.7,1.5-4s-1.8,1.5-3.8,2.8
					C155.3,88.1,155.5,91.2,155.5,91.2z M158.4,86.8c1.4-1.2,2-1.1,1.5-0.3c-0.5,0.8-1.7,0.7-0.9,1.9c0.8,1.2,2.6,3.6,4.1,3.3
					c1.5-0.3,2.9-0.9,4.1-0.9c1.2,0,0.8,0.6-0.3,0.8c-1,0.3-1.1,1.6-2.5,1.6s-4.4,0.3-4.9,0.3s2.2,0.3,3.7,0.5
					c1.2,0.1,1.5,1.5-0.7,1.7s-5.2,1-2.7,1c2.6,0,3.3,0.5,3.3,1.2s-1.9,1.2-3.2,1.3c-1.3,0.1-1.6-1-1.5-2.5s0.6-3.9,0-5.3
					c0,0-0.2-0.8-1-1.5C156.8,89.2,157,88,158.4,86.8z"/>
			</g>
		</g>
		<g>
			<path class="st0" d="M29.3,59.3c0,0,0.8-2.6-0.6-3.5c-1.5-0.9-3.6-2.3-4.4-4.4s-0.8-2.7-2.2-1.6c-1.4,1.1-0.1,2.9,0.5,4.2
				c0.6,1.3-0.9,2.6-2.6,2.3c-1.6-0.3-3.9-0.8-5-2.4s-2.4-2.4-3-1.6c-0.6,0.7,1.7,3.6,1.7,3.6s-0.7,6.3,1.1,8.7
				c1.8,2.4,2.9,3.1,4.6,3.7c1.6,0.6,2.3,0.7,2.3,0.7L29.3,59.3z"/>
			<g class="st3">
				<path class="st1" d="M20.1,60.2c0,0-0.5-0.1-1.2-0.4c-0.4-0.1-0.8-0.3-1.2-0.5c-0.4-0.2-0.9-0.4-1.3-0.7
					c-0.2-0.2-0.4-0.3-0.6-0.5s-0.3-0.4-0.5-0.5c-0.3-0.4-0.6-0.7-0.8-1c-0.5-0.6-0.7-1-0.7-1s0.4,0.4,0.9,0.9
					c0.3,0.3,0.6,0.6,0.9,0.9c0.2,0.2,0.3,0.3,0.5,0.5s0.3,0.3,0.5,0.5c0.4,0.3,0.8,0.5,1.3,0.7c0.4,0.2,0.8,0.4,1.1,0.6
					C19.6,59.9,20.1,60.2,20.1,60.2z"/>
				<path class="st1" d="M15.9,64c0,0-0.2-0.1-0.4-0.3c-0.2-0.2-0.6-0.5-0.8-0.8c-0.1-0.2-0.3-0.3-0.4-0.5s-0.2-0.3-0.3-0.5
					c-0.2-0.1-0.2-0.2-0.2-0.3s0-0.1,0-0.1s0,0,0.1,0.1s0.1,0.2,0.2,0.3c0.2,0.2,0.5,0.5,0.8,0.8s0.5,0.6,0.7,0.9
					C15.8,63.8,15.9,64,15.9,64z"/>
				<path class="st1" d="M17.7,63.6c0,0-0.3-0.2-0.8-0.6c-0.4-0.4-1-0.9-1.6-1.5c-0.5-0.6-1-1.2-1.3-1.7c-0.2-0.3-0.2-0.5-0.3-0.7
					c0-0.2-0.1-0.3-0.1-0.3s0,0.1,0.1,0.2s0.2,0.3,0.4,0.6c0.2,0.2,0.4,0.5,0.6,0.8s0.5,0.6,0.8,0.8c0.5,0.6,1,1.2,1.4,1.6
					C17.4,63.3,17.7,63.6,17.7,63.6z"/>
			</g>
			<path class="st4" d="M23,49L23,49c0.7,0,0.9,0.6,1.3,1.7c0.1,0.2,0.2,0.4,0.3,0.7c0.7,1.9,2.6,3.2,4.2,4.2
				c1.7,1.1,0.8,3.8,0.8,3.9v0.1l-7.7,9.8h-0.2c0,0-0.7-0.1-2.4-0.8c-1.7-0.7-2.8-1.4-4.7-3.9c-1.7-2.3-1.3-7.7-1.2-8.8
				c-0.8-1-2.4-3.1-1.6-3.9c0.2-0.3,0.5-0.4,0.9-0.4c0.8,0,1.8,0.8,2.7,2.1c1,1.4,3.2,2,4.8,2.2c0.9,0.1,1.8-0.2,2.1-0.8
				c0.1-0.2,0.2-0.6,0-1c-0.1-0.2-0.2-0.3-0.3-0.5c-0.7-1.3-1.6-3-0.2-4.1C22.4,49.1,22.7,49,23,49z M28.9,59.2
				c0.1-0.4,0.6-2.3-0.5-3c-1.3-0.8-3.6-2.3-4.5-4.6c-0.1-0.3-0.2-0.5-0.3-0.7c-0.2-0.6-0.5-1.2-0.6-1.2s-0.3,0.1-0.7,0.4
				c-0.9,0.7-0.4,1.8,0.4,3.2c0.1,0.2,0.2,0.4,0.3,0.5c0.3,0.5,0.2,1.1-0.1,1.7c-0.5,0.8-1.7,1.3-2.9,1.1c-1.7-0.3-4.1-0.9-5.3-2.5
				c-0.9-1.3-1.7-1.8-2.1-1.8c-0.1,0-0.2,0-0.3,0.1c-0.2,0.2,0.5,1.6,1.7,3.1l0.1,0.1v0.2c0,0.1-0.7,6.2,1,8.4
				c1.8,2.3,2.8,3,4.4,3.6c1.1,0.4,1.7,0.6,2,0.7L28.9,59.2z"/>
			<g class="st5">
				<path class="st0" d="M13.8,55.9c0,0-0.7,6.3,1.1,8.7c1.8,2.4,2.9,3.1,4.6,3.7c1.6,0.6,2.3,0.7,2.3,0.7l7.6-9.7
					c0,0,0.8-2.6-0.6-3.5c-1.5-0.9-3.6-2.3-4.4-4.4s-0.8-2.7-2.2-1.6c-1.4,1.1-0.1,2.9,0.5,4.2c0.6,1.3-0.9,2.6-2.6,2.3
					c-1.6-0.3-3.9-0.8-5-2.4s-2.4-2.4-3-1.6C11.4,53.1,13.8,55.9,13.8,55.9z M17,62.2c-1.2-1.4-0.9-2.9,0.1-2.5s3.1,1.2,3.3,0.6
					c0.2-0.5-0.2-1.1-2.2-1.9c-2.1-0.8-2.8-1.9-2.2-2.3c0.5-0.4,3.1,1.1,4.7,1.2c1.6,0.1,4-1.4,3.1-2.8c-0.8-1.3-0.4-2.9,0.4-1.4
					c0.8,1.4,2.6,2.7,2.6,2.7c1.3,1,0.3,1.7-2.4,2.4c-2.7,0.7-3.5,2.9-4.1,4c-0.6,1.2-0.5,3.1-0.2,4.4c0.4,1.3-3-1.3-3.9-2.8
					c-0.9-1.4-0.4-1.3,0.7-0.5C18.1,64,18.2,63.7,17,62.2z"/>
			</g>
		</g>
		<g>
			<g>
				<g>
					<path class="st6" d="M76.1,29.1c-0.5-3.7-2.3-7.3-5.8-7.5c-4-0.2-5,3.1-5.2,6.5l0,0C69.8,26.7,73.8,28,76.1,29.1z"/>
					<path class="st7" d="M70,21.2c0.1,0,0.2,0,0.3,0c3.2,0.1,5.5,3.1,6.1,7.8l0.1,0.7l-0.6-0.3c-1.5-0.7-3.8-1.5-6.6-1.5
						c-1.4,0-2.8,0.2-4.1,0.6l-0.5,0.1v-0.5C65,23.5,66.7,21.2,70,21.2z M75.6,28.4c-0.4-2.1-1.6-6.3-5.3-6.5
						c-3-0.1-4.5,1.7-4.8,5.7c1.3-0.3,2.5-0.5,3.8-0.5C71.9,27.1,74.1,27.8,75.6,28.4z"/>
				</g>
				<g>
					<path class="st8" d="M65.1,28.1c-0.2,3.4,0.2,9.7,0.2,9.7L77,38.2c0,0-0.5-3.2-0.7-7.5c0-0.5-0.1-1.1-0.1-1.7
						C73.8,28,69.8,26.7,65.1,28.1z"/>
					<path class="st9" d="M69.3,27.1L69.3,27.1c2.9,0,5.4,0.9,6.9,1.6l0.2,0.1V29c0.1,0.6,0.1,1.1,0.2,1.7c0.2,4.2,0.7,7.4,0.7,7.4
						l0.1,0.4l-12.5-0.4v-0.3c0-0.1-0.4-6.4-0.2-9.8v-0.3l0.2-0.1C66.4,27.3,67.9,27.1,69.3,27.1z M75.8,29.3
						c-1.5-0.7-3.7-1.4-6.4-1.4l0,0c-1.3,0-2.6,0.2-3.9,0.5c-0.1,2.9,0.1,7.8,0.2,9.1l10.9,0.3c-0.2-1-0.5-3.7-0.7-7.1
						C75.9,30.2,75.8,29.8,75.8,29.3z"/>
				</g>
				<g class="st3">
					<path class="st10" d="M68.3,30.9c0,1.7,0.6,3.2-0.5,4c-0.6,0.4-1.7,0.9-2.6,1.3c0,1,0.1,1.6,0.1,1.6L77,38.2c0,0-0.1-0.7-0.3-2
						c-1.3-0.6-3-1.5-3.1-2.4c-0.2-1.5,0-2.7,0-3.7c0-0.5,1.4-0.9,2.5-1.1l0,0c-2.3-1.1-6.3-2.3-11-0.9c0,0.2,0,0.4,0,0.6
						C66.6,29.2,68.3,30,68.3,30.9z"/>
				</g>
			</g>
			<g>
				<path class="st6" d="M72.8,32.2c0,0-0.3-0.1-0.8-0.3c-0.4-0.2-1-0.6-1.5-0.9c-0.5-0.4-1-0.8-1.3-1.2s-0.5-0.6-0.5-0.6
					s0.3,0.1,0.8,0.3c0.4,0.2,1,0.6,1.5,0.9c0.5,0.4,1,0.8,1.3,1.2C72.6,31.9,72.8,32.2,72.8,32.2z"/>
				<path class="st6" d="M69.3,32.4c0,0,0.1-0.3,0.3-0.7c0.2-0.4,0.5-0.9,0.9-1.3c0.4-0.4,0.8-0.8,1.1-1.1c0.3-0.3,0.6-0.4,0.6-0.4
					s-0.1,0.3-0.3,0.7c-0.2,0.4-0.5,0.9-0.9,1.3c-0.4,0.4-0.8,0.8-1.1,1.1C69.6,32.3,69.3,32.4,69.3,32.4z"/>
				<path class="st6" d="M72.8,35.4c0,0-0.3,0-0.6-0.2c-0.4-0.1-0.8-0.3-1.2-0.6c-0.4-0.3-0.8-0.6-1-0.9c-0.3-0.3-0.4-0.5-0.4-0.5
					s0.3,0,0.6,0.2c0.4,0.1,0.8,0.3,1.2,0.6c0.4,0.3,0.8,0.6,1,0.9C72.6,35.1,72.8,35.4,72.8,35.4z"/>
				<path class="st6" d="M72.5,33.2c0,0-0.1,0.2-0.4,0.5c-0.2,0.3-0.6,0.6-1,0.9c-0.4,0.3-0.8,0.5-1.2,0.6c-0.3,0.1-0.6,0.2-0.6,0.2
					s0.1-0.2,0.4-0.5c0.2-0.3,0.6-0.6,1-0.9c0.4-0.3,0.8-0.5,1.2-0.6C72.2,33.2,72.5,33.2,72.5,33.2z"/>
			</g>
			<g>
				<path class="st7" d="M76.1,29.1c-0.5-3.7-2.3-7.3-5.8-7.5c-4-0.2-5,3.1-5.2,6.5l0,0C69.8,26.7,73.8,28,76.1,29.1z M69.6,22.8
					c2.6-0.2,5.5,4.3,4,4.1c0,0-3.1-0.9-5.4-0.6C66.1,26.7,67,23,69.6,22.8z"/>
			</g>
		</g>
		<g>
			<g>
				<g>
					<path class="st6" d="M98.5,6.8c-0.2-0.4-0.3-0.7-0.5-1.1c-3.5-5.2-6.4-5-8-3.6c-1.5,1.3-2.5,3.7-2.2,7.6
						C91.2,7.6,95.9,7,98.5,6.8z"/>
					<path class="st7" d="M92.2,0.9L92.2,0.9c1.4,0,3.5,0.8,6.1,4.6c0.2,0.4,0.4,0.8,0.5,1.1L99,7.1h-0.5c-2.4,0.2-7.1,0.8-10.6,2.9
						l-0.5,0.3V9.7c-0.3-3.6,0.5-6.3,2.3-7.9C90.4,1.3,91.3,0.9,92.2,0.9z M97.9,6.5c-0.1-0.2-0.2-0.4-0.3-0.6
						c-2.3-3.5-4.3-4.2-5.5-4.2l0,0c-0.7,0-1.4,0.3-2,0.8c-1.6,1.4-2.3,3.7-2.1,6.7C91.3,7.3,95.4,6.7,97.9,6.5z"/>
				</g>
				<g>
					<path class="st8" d="M87.8,10.9c0.6,4.6,2.9,8.8,2.9,8.8l10.2-1.6c0,0-0.2-6.2-2.5-11.2c-2.6,0.2-7.2,0.8-10.8,3
						C87.7,10.2,87.8,10.5,87.8,10.9z"/>
					<path class="st8" d="M98.7,6.4l0.1,0.2c2.3,5.1,2.5,11.1,2.5,11.4v0.3L90.5,20l-0.1-0.2c-0.1-0.2-2.3-4.2-3-8.9
						c-0.1-0.4-0.1-0.8-0.1-1.2V9.5l0.2-0.1c3.6-2.3,8.4-2.9,10.9-3.1L98.7,6.4z M100.6,17.7c-0.1-1.3-0.5-6.3-2.3-10.6
						c-2.5,0.2-6.8,0.8-10.1,2.8c0,0.3,0.1,0.6,0.1,0.9c0.5,3.9,2.3,7.5,2.8,8.4L100.6,17.7z"/>
				</g>
				<g class="st3">
					<path class="st10" d="M90.9,11.1c0.5,1.6,1.7,3.1,0.7,4.4c-0.5,0.7-1.2,1.8-1.7,2.7c0.4,0.9,0.7,1.5,0.7,1.5l10.2-1.6
						c0,0,0-0.9-0.2-2.4c-0.9-0.6-2-1.3-2.8-1.7c-1.6-0.7-0.9-1.5-1.2-3.6c-0.2-1.6,0.7-2.5,1.9-3.2c-0.1-0.1-0.1-0.3-0.2-0.4
						c-2.6,0.2-7.2,0.8-10.8,3c0,0.2,0,0.4,0.1,0.5C89,10.2,90.6,10.1,90.9,11.1z"/>
				</g>
			</g>
			<g>
				<path class="st6" d="M97.3,14.9c0,0-0.3,0-0.8-0.1s-1.1-0.3-1.7-0.5s-1.2-0.5-1.6-0.8c-0.4-0.2-0.7-0.5-0.7-0.5s0.3,0,0.8,0.1
					s1.1,0.3,1.7,0.5s1.2,0.5,1.6,0.8C97,14.7,97.3,14.9,97.3,14.9z"/>
				<path class="st6" d="M93.1,15.6c0,0,0.1-0.3,0.3-0.6c0.2-0.4,0.5-0.8,0.9-1.2c0.4-0.4,0.8-0.7,1.1-1c0.3-0.2,0.6-0.3,0.6-0.3
					s-0.1,0.3-0.3,0.6c-0.2,0.4-0.5,0.8-0.9,1.2c-0.4,0.4-0.8,0.7-1.1,1C93.4,15.5,93.1,15.6,93.1,15.6z"/>
				<path class="st6" d="M95.7,11.4c0,0-0.3,0-0.8,0c-0.4-0.1-1-0.2-1.6-0.4c-0.5-0.2-1.1-0.4-1.5-0.7c-0.4-0.2-0.6-0.4-0.6-0.4
					s0.3,0,0.8,0c0.4,0.1,1,0.2,1.6,0.4c0.5,0.2,1.1,0.4,1.5,0.7C95.5,11.2,95.7,11.4,95.7,11.4z"/>
				<path class="st6" d="M92.8,12.2c0,0,0.1-0.3,0.2-0.7c0.2-0.4,0.5-0.9,0.8-1.3s0.7-0.9,1-1.1c0.3-0.3,0.6-0.4,0.6-0.4
					S95.3,9,95.2,9.4c-0.2,0.4-0.5,0.9-0.8,1.3s-0.7,0.9-1,1.1C93.1,12,92.8,12.2,92.8,12.2z"/>
			</g>
			<g>
				<path class="st7" d="M87.7,9.8c3.5-2.2,8.2-2.8,10.8-3c-0.2-0.4-0.3-0.7-0.5-1.1c-3.5-5.2-6.4-5-8-3.6
					C88.4,3.5,87.4,5.8,87.7,9.8z M92,2.3c3-0.5,5.1,3.8,3.1,3.9c0,0-2.6,0.2-4.6,1.1C88.7,8.2,89.1,2.8,92,2.3z"/>
			</g>
		</g>
		<g>
			<path class="st0" d="M118.6,61.2c0,0,3.8-3.9-0.4-8.4c-1.5-12.2-4.1-6.1-6.1-8.5c-2.2-3.3-3.5-15.5-4.9-19.5s-4.1-5.4-5.8-7
				c-1.7-1.6-4.3-2-7.7-1.4c-3.5,0.6-3.2,2.8-4.6,6.7s3.4,17.5,3.4,23.9c-3.2-1.6-11.3-7.3-13.9-8.9c-2.6-1.6-8.5-3.3-12.2-1.6
				c-3.7,1.6-3.3,6.2-5.7,11.8c-2.4,5.6-8.2,9.3-6.3,14.2c5.2-4.4,25.3-11.3,35-11.5C99.1,50.7,118.6,61.2,118.6,61.2z"/>
		</g>
		<path class="st11" d="M54.4,62.5c0,0-3.9-5.8-1.9-10s4.6-9.8,12.6-9s7.7-4.1,13.5-5.4c5.8-1.3,15.3-0.7,19.6,1.2
			c4.3,2,13.5-1.6,17.8-3.9c3.2-1.7,5.9,5.5,7,9.2c0.4,1.3,0.4,2.7-0.1,4l-2.9,8.3c-0.9,2.6-3.3,4.3-6,4.4L54.4,62.5z"/>
		<g>
			<path class="st12" d="M154.7,100.2c0,0,2.7-0.5,3-2.2s0.7-6.5-2-7.9C154.3,89.6,154.7,100.2,154.7,100.2z"/>
			<path class="st13" d="M155.6,89.7L155.6,89.7c0.1,0,0.1,0,0.2,0c3.3,1.8,2.4,7.6,2.2,8.3c-0.3,1.9-3.1,2.5-3.2,2.5l-0.4,0.1v-0.4
				c-0.1-1.5-0.3-9.2,0.8-10.3C155.3,89.7,155.4,89.7,155.6,89.7z M155,99.7c0.7-0.2,2.1-0.8,2.3-1.8c0.1-0.6,1-5.9-1.7-7.5
				C155.1,91.1,154.9,95.6,155,99.7z"/>
		</g>
		<g>
			<path class="st12" d="M29.8,60c0,0,0.5-1.8-2.8-1.6s-7.2,3.3-5.7,7.3C23.5,62.5,29.8,60,29.8,60z"/>
			<path class="st13" d="M27.6,58L27.6,58c1.1,0,1.9,0.3,2.3,0.8c0.4,0.5,0.3,1,0.3,1.3v0.2L30,60.4c-0.1,0-6.2,2.6-8.3,5.6
				l-0.4,0.6l-0.2-0.7c-0.6-1.6-0.4-3.2,0.5-4.6c1.1-1.7,3.4-3,5.5-3.2C27.2,58,27.4,58,27.6,58z M29.5,59.7c0-0.1,0-0.3-0.2-0.5
				c-0.3-0.3-0.9-0.5-1.7-0.5l0,0c-0.2,0-0.4,0-0.5,0c-2,0.1-4,1.3-5,2.9c-0.7,1-0.9,2.1-0.6,3.3C23.7,62.3,28.4,60.2,29.5,59.7z"/>
		</g>
		<g>
			<path class="st9" d="M22.8,76.8c-0.9-1.3-2.4-2.6-1.1-6c-0.2-2.9-0.9-6.2,1.1-8.2c2-2,6.6-4.6,8-1.3c1.5,0,2.6-1.1,6.7,4.6
				c3.1,0.7,3.6,1.3,6.6,6.7c2.6,0.4,4.9,2,4.9,2s0.5-0.9,3.1-5.3c0.7-3.8,1.8-8.8,6.7-11.7c4.9-2.9,20.1-7.3,31.7-7.5
				c11.7-0.2,25.4,5.8,28.6,9.7c3.3,3.8,7.5,12.6,9.3,15.5c1.8,2.9,4.4,4.9,5.5,5.1s2.7-0.2,3.8,1.1c1.1,1.3,1.1,2.2,4.2,2.2
				c3.1,0,7.5,1.8,10.8,3.5c3.3,1.6,3.3,4.4,3.3,9.1s-2.9,5.1-12.8,12.4c-2.1,1.5-2.7,0.7-9.5-1.5c-2.9,3.3-8.6,4.6-8.6,4.6
				s-53.4,2.9-61.6,0c-8.2-2.9-19-7.1-20.6-8.2s-3.6-6.6-5.7-9.7c-2-3.1-4.6-2.6-7.8-6.4C26.3,83.7,22.8,76.8,22.8,76.8z"/>
			<path class="st9" d="M91.2,49.8c11.6,0,25,5.9,28.4,9.8c2.3,2.7,5,7.8,7.1,11.5c0.9,1.7,1.7,3.2,2.3,4.1c1.8,2.8,4.2,4.8,5.2,4.9
				c0.3,0,0.6,0.1,0.9,0.1c1,0,2.3,0.1,3.2,1.2c0.2,0.2,0.4,0.5,0.5,0.7c0.7,0.9,1,1.4,3.4,1.4c3.2,0,7.7,1.9,10.9,3.5
				c3.5,1.7,3.5,4.6,3.5,9.4c0,3.7-1.8,5-6.7,8.3c-1.7,1.1-3.7,2.6-6.3,4.4c-0.7,0.5-1.4,0.9-2.2,0.9c-0.9,0-2.1-0.4-4.1-1.1
				c-0.9-0.3-1.9-0.7-3.2-1.1c-3,3.2-8.4,4.4-8.6,4.5c-0.3,0-24,1.3-42.1,1.3c-10.6,0-17.3-0.4-19.7-1.3c-8.4-3-19-7.2-20.7-8.2
				c-1.1-0.7-2.2-3-3.4-5.4c-0.8-1.5-1.5-3.1-2.3-4.3c-1-1.5-2-2.1-3.3-2.8c-1.3-0.7-2.8-1.6-4.5-3.5c-3.3-3.8-6.8-10.8-6.8-10.8
				c-0.1-0.1-0.2-0.2-0.3-0.4c-0.9-1.2-2-2.6-0.9-5.9c0-0.5-0.1-0.9-0.1-1.4c-0.2-2.6-0.5-5.2,1.3-7c1.4-1.4,3.9-3,5.9-3
				c1.2,0,2.1,0.5,2.6,1.6c0.1,0,0.2,0,0.3,0c0.2,0,0.4,0,0.7,0c1.4,0,2.9,0.8,5.7,4.7c3.1,0.7,3.8,1.4,6.6,6.7
				c2,0.3,3.8,1.4,4.6,1.8c0.3-0.5,1.1-1.9,2.9-4.9c0.8-4.4,2.1-9,6.9-11.9s20.1-7.3,31.9-7.5C90.8,49.8,91,49.8,91.2,49.8z
				 M141.3,109.1c0.6,0,1.1-0.2,1.8-0.7c2.5-1.9,4.6-3.3,6.3-4.4c4.9-3.3,6.3-4.3,6.3-7.7c0-4.7,0-7.3-3.1-8.8
				c-3.1-1.6-7.5-3.4-10.6-3.4c-2.6,0-3.2-0.6-4-1.7c-0.1-0.2-0.3-0.4-0.5-0.6c-0.7-0.8-1.7-0.9-2.6-0.9c-0.3,0-0.7,0-1-0.1
				c-1.3-0.2-3.9-2.4-5.7-5.3c-0.6-0.9-1.4-2.4-2.3-4.1c-2-3.7-4.7-8.7-7-11.4c-3.3-3.8-17-9.7-28.3-9.5
				c-11.7,0.2-26.8,4.6-31.6,7.4c-4.6,2.7-5.8,7.1-6.6,11.4v0.1c-2.6,4.4-3.1,5.3-3.1,5.3L49.1,75l-0.3-0.2c0,0-2.3-1.6-4.8-1.9
				h-0.2l0-0.2c-2.9-5.4-3.3-5.9-6.3-6.6h-0.1L37.3,66c-3.5-4.8-4.7-4.6-5.8-4.5c-0.2,0-0.4,0-0.6,0h-0.2l-0.1-0.2
				c-0.4-0.9-1.1-1.4-2.1-1.4c-1.7,0-4,1.4-5.4,2.7c-1.6,1.6-1.3,4-1.1,6.5c0,0.5,0.1,1,0.1,1.5v0.1v0.1c-1.1,2.9-0.2,4.1,0.7,5.2
				c0.1,0.1,0.2,0.3,0.3,0.4c0.1,0.1,3.5,7,6.7,10.7c1.6,1.9,3,2.7,4.3,3.4c1.3,0.7,2.5,1.4,3.6,3c0.8,1.2,1.6,2.8,2.4,4.4
				c1.1,2.2,2.3,4.6,3.2,5.2c1.6,1.1,12.2,5.2,20.5,8.2c2.4,0.8,8.9,1.3,19.5,1.3c18,0,41.8-1.3,42-1.3c0,0,5.5-1.3,8.3-4.4l0.2-0.2
				l0.2,0.1c1.4,0.5,2.5,0.8,3.5,1.2C139.4,108.7,140.5,109.1,141.3,109.1z"/>
		</g>
		<g>
			<path class="st8" d="M22.8,76.8c0,0,3.5,6.9,6.7,10.8c3.3,3.8,5.8,3.3,7.8,6.4s4,8.6,5.7,9.7c1.6,1.1,12.4,5.3,20.6,8.2
				c8.2,2.9,61.6,0,61.6,0s5.7-1.3,8.6-4.6c6.7,2.2,7.4,3,9.5,1.5c9.8-7.3,12.8-7.7,12.8-12.4c0-4.7,0-7.5-3.3-9.1
				s-7.7-3.5-10.8-3.5s-3.1-0.9-4.2-2.2c-1.1-1.3-2.7-0.9-3.8-1.1s-3.6-2.2-5.5-5.1c-1.8-2.9-6-11.7-9.3-15.5s-17-9.8-28.6-9.7
				c-11.6,0.1-26.8,4.5-31.7,7.4s-6,7.8-6.7,11.7c-2.6,4.4-3.1,5.3-3.1,5.3s-2.4-1.6-4.9-2c-2.9-5.5-3.5-6-6.6-6.7
				c-4.2-5.7-5.3-4.6-6.7-4.6c-1.5-3.3-6-0.7-8,1.3c-2,2-1.3,5.3-1.1,8.2C20.4,74.2,21.9,75.5,22.8,76.8z M138.7,96.1
				c1.9-3.6,1.7-10,5.6-6.8c3.9,3.2,7.3,7.3,6.3,4.1c-1-3.2-0.5-6.6,2.2-2.9c2.7,3.6,0,10-4.9,13.4s-8.5,1.7-4.6-1s5.3-6.8,0.5-3.6
				c0,0-5.8,5.4-9.7,5.1c-3.9-0.2-3.6-2.7-3.9-4.6C130,97.8,137.1,99.1,138.7,96.1z M60.7,72c7.5-6.3,6.1-7.5,1.9-4.9
				c-4.1,2.7-4.6-0.5-4.6-3.2c0-2.7,14.1-9.5,26.7-10.7s18.2,1.5,26.7,6.1s0.7,1.9-6.1,0c-6.8-1.9,0.2,2.2,8,6.6s21.4,22.9,17,24.3
				c0,0-4.6,0-5.8-2.4s-3.6-5.8-10-10.2c-6.3-4.4-16.5-5.6-18.2-8s-4.6-4.1-6.8-1c-2.2,3.2-6.8,2.7-12.4,5.1s-12.4,10-14.8,15.6
				c-2.4,5.6-5.3,4.1-10.2,2.9C47.3,91,47.8,80.5,60.7,72z M51.1,97.9c3.3,0.9,7.5,1.5,7.3,4c-0.2,2.6,1.3,6.4-2.4,4.7
				c0,0-6.2-1.5-9.3-3.3s-3.6-3.8-4.6-5.8C41.2,95.5,47.8,97,51.1,97.9z M31.2,68.2c6.5,0.5,8.6,2.8,2.5,2.8c-6.2,0-0.6,2.5,3.7,3.9
				s7.9,6.3,7.4,9.4s-1.7,8.3-1.7,8.3c-0.3,4.2-9.2-4.6-12.3-9.4s-5.7-4.9-5.7-7.7C25,72.6,24.7,67.7,31.2,68.2z"/>
		</g>
		<g>
			<path class="st9" d="M145.7,100.1c0,0-0.1,0.2-0.4,0.5c-0.3,0.3-0.6,0.7-1.1,1.2c-0.5,0.4-1.1,1-1.7,1.5c-0.7,0.5-1.4,1-2.2,1.5
				c-0.4,0.2-0.8,0.4-1.2,0.6s-0.8,0.3-1.2,0.4s-0.8,0.2-1.2,0.3c-0.4,0.1-0.7,0.1-1,0.2s-0.6,0.2-0.8,0.3c-0.2,0.1-0.4,0.2-0.6,0.3
				c-0.3,0.2-0.5,0.3-0.5,0.3s0.2-0.2,0.4-0.4c0.1-0.1,0.3-0.3,0.5-0.4c0.2-0.2,0.5-0.3,0.8-0.5s0.7-0.3,1-0.4
				c0.4-0.1,0.7-0.2,1.1-0.3c0.4-0.1,0.7-0.3,1.1-0.5c0.4-0.2,0.8-0.4,1.1-0.6c0.7-0.5,1.5-0.9,2.2-1.3c0.7-0.5,1.3-0.9,1.8-1.3
				s1-0.7,1.3-1C145.5,100.2,145.7,100.1,145.7,100.1z"/>
			<path class="st9" d="M137.7,95c0,0-0.2,0.1-0.5,0.3c-0.3,0.2-0.8,0.5-1.4,0.7c-0.3,0.1-0.6,0.2-1,0.4c-0.4,0.1-0.7,0.2-1.1,0.3
				c-0.4,0.1-0.8,0.1-1.2,0.2c-0.4,0-0.9,0-1.3,0c-1.7-0.1-3.3-0.3-4.6-0.5c-0.6-0.1-1.1-0.1-1.5-0.2c-0.4,0-0.6-0.1-0.6-0.1
				s0.2,0,0.6-0.1c0.4,0,0.9-0.1,1.5-0.1c1.3,0,2.9,0,4.6,0.2c0.4,0,0.8,0,1.2,0.1c0.4,0,0.8-0.1,1.2-0.1c0.4-0.1,0.7-0.1,1.1-0.2
				c0.3-0.1,0.7-0.2,1-0.2c0.3-0.1,0.6-0.2,0.8-0.2c0.2-0.1,0.4-0.2,0.6-0.2C137.5,95.1,137.7,95,137.7,95z"/>
			<path class="st9" d="M136.2,88.4c0,0-0.3-0.5-0.9-1.3c-0.3-0.4-0.7-1-1.1-1.6c-0.4-0.6-0.8-1.3-1.3-2.1c-0.9-1.5-2-3.3-3.2-5.2
				c-0.1-0.2-0.3-0.5-0.4-0.7c-0.2-0.2-0.3-0.5-0.5-0.7c-0.3-0.5-0.6-1-1-1.4c-0.4-0.4-0.7-0.9-1.1-1.3c-0.2-0.2-0.4-0.4-0.6-0.6
				l-0.6-0.6c-0.8-0.9-1.7-1.6-2.6-2.3c-0.4-0.4-0.9-0.7-1.4-1s-0.9-0.6-1.4-1c-0.9-0.6-1.9-1.2-2.7-1.7c-0.9-0.6-1.7-1-2.5-1.4
				s-1.5-0.8-2.1-1.2c-0.6-0.3-1.2-0.6-1.7-0.9c-0.9-0.5-1.5-0.8-1.5-0.8s0.6,0.2,1.5,0.6c0.5,0.2,1.1,0.5,1.7,0.7
				c0.7,0.3,1.4,0.6,2.2,1c0.8,0.4,1.7,0.8,2.6,1.3s1.9,1,2.8,1.6c0.5,0.3,0.9,0.6,1.4,1c0.5,0.3,1,0.6,1.4,1
				c0.9,0.7,1.9,1.5,2.7,2.3l0.6,0.6c0.2,0.2,0.4,0.4,0.6,0.7c0.4,0.5,0.8,0.9,1.1,1.4c0.4,0.5,0.6,1,1,1.5c0.2,0.2,0.3,0.5,0.5,0.7
				c0.2,0.3,0.3,0.5,0.4,0.7c1.1,1.9,2.1,3.8,3,5.3c0.4,0.8,0.8,1.5,1.2,2.1s0.7,1.2,1,1.6C135.9,87.9,136.2,88.4,136.2,88.4z"/>
			<path class="st9" d="M64.7,67.1c0,0-0.1,0.1-0.3,0.2c-0.2,0.1-0.5,0.4-0.9,0.6c-0.4,0.3-0.8,0.6-1.4,1c-0.5,0.4-1.1,0.8-1.7,1.3
				c-1.2,1-2.7,2.1-4.2,3.4c-0.8,0.6-1.6,1.3-2.4,1.9c-0.8,0.7-1.6,1.3-2.4,2.1c-0.4,0.3-0.7,0.7-1.1,1.1c-0.2,0.2-0.3,0.4-0.5,0.6
				s-0.3,0.4-0.4,0.6L49,80.5c-0.1,0.2-0.2,0.5-0.3,0.7c-0.2,0.4-0.3,0.9-0.5,1.4S48,83.5,47.8,84c-0.1,0.5-0.2,0.9-0.3,1.3
				c-0.2,0.9-0.4,1.7-0.5,2.5c-0.6,3.1-1,5.2-1,5.2s0-0.5,0.1-1.5c0.1-0.9,0.2-2.2,0.5-3.8c0.1-0.8,0.2-1.6,0.4-2.5
				c0.1-0.9,0.3-1.9,0.6-2.8c0.1-0.5,0.3-1,0.5-1.5c0.1-0.2,0.2-0.5,0.3-0.7l0.4-0.7c0.1-0.2,0.3-0.5,0.5-0.7s0.3-0.4,0.5-0.6
				c0.4-0.4,0.7-0.8,1.1-1.2c0.8-0.7,1.6-1.4,2.4-2.1c0.8-0.6,1.6-1.3,2.4-1.9c0.8-0.6,1.6-1.2,2.3-1.7s1.4-1,2.1-1.5
				c1.3-0.9,2.4-1.6,3.3-2C64.3,67.3,64.7,67.1,64.7,67.1z"/>
			<path class="st9" d="M59.6,97.9c0,0-0.2,0-0.5,0s-0.8,0-1.3,0s-1.2-0.1-1.9-0.2c-0.3,0-0.7-0.1-1-0.1c-0.4-0.1-0.7-0.1-1.1-0.2
				c-0.7-0.1-1.4-0.3-2.1-0.5c-0.3-0.1-0.6-0.2-0.9-0.3c-0.3-0.1-0.6-0.2-0.8-0.3c-0.3-0.1-0.5-0.2-0.7-0.3
				c-0.2-0.1-0.4-0.2-0.5-0.3c-0.3-0.2-0.4-0.3-0.4-0.3s0.2,0,0.5,0.1c0.2,0,0.3,0.1,0.5,0.2s0.4,0.2,0.7,0.2
				c0.3,0.1,0.6,0.1,0.9,0.2c0.3,0.1,0.6,0.2,0.9,0.2c0.7,0.1,1.4,0.3,2.1,0.4c0.7,0.1,1.4,0.3,2.1,0.4c0.7,0.1,1.3,0.3,1.8,0.4
				s1,0.2,1.3,0.3C59.5,97.9,59.6,97.9,59.6,97.9z"/>
			<path class="st9" d="M43.8,72.2c0,0-0.6,0.1-1.5,0.1s-2.1,0-3.3,0c-0.6,0-1.2-0.1-1.7-0.1c-0.6-0.1-1.1-0.1-1.5-0.1
				c-0.9-0.1-1.5-0.2-1.5-0.2s0.6-0.1,1.5-0.2c0.4,0,1-0.1,1.5-0.1c0.6,0,1.2,0,1.7,0c0.6,0,1.2,0.1,1.7,0.1
				c0.6,0.1,1.1,0.1,1.5,0.2C43.2,72,43.8,72.2,43.8,72.2z"/>
			<path class="st9" d="M37.6,66c0,0-0.1,0-0.3,0s-0.4,0-0.7,0.1c-0.3,0-0.7,0-1,0c-0.4,0-0.8,0-1.2,0s-0.8,0-1.2-0.1
				c-0.4,0-0.7,0-1-0.1c-0.6-0.1-1-0.1-1-0.1s0.4-0.1,1-0.3c0.3-0.1,0.7-0.1,1-0.2c0.4,0,0.8,0,1.2,0s0.8,0,1.2,0.1s0.7,0.1,1,0.2
				C37.2,65.8,37.6,66,37.6,66z"/>
			<path class="st9" d="M149,90.4c0,0-0.1-0.1-0.3-0.4c-0.2-0.2-0.5-0.5-0.9-0.9c-0.2-0.2-0.4-0.4-0.6-0.6c-0.2-0.2-0.4-0.4-0.7-0.6
				s-0.5-0.4-0.8-0.6c-0.2-0.2-0.6-0.4-0.8-0.6c-0.3-0.2-0.6-0.4-0.8-0.6c-0.3-0.2-0.6-0.4-0.9-0.5c-0.3-0.2-0.5-0.3-0.8-0.5
				c-0.2-0.2-0.5-0.3-0.7-0.4c-0.5-0.2-0.8-0.5-1.1-0.6c-0.3-0.2-0.4-0.3-0.4-0.3s0.2,0,0.5,0.1s0.7,0.2,1.2,0.4
				c0.3,0.1,0.5,0.2,0.8,0.3c0.3,0.1,0.6,0.3,0.9,0.4c0.3,0.2,0.6,0.3,0.9,0.5c0.3,0.2,0.6,0.4,0.9,0.6c0.3,0.2,0.6,0.4,0.9,0.7
				c0.3,0.2,0.5,0.5,0.8,0.7s0.5,0.5,0.7,0.7s0.4,0.5,0.6,0.7c0.3,0.4,0.5,0.8,0.7,1.1C148.9,90.3,149,90.4,149,90.4z"/>
			<path class="st9" d="M36.7,92.8c0,0-0.2-0.1-0.4-0.2c-0.3-0.2-0.7-0.4-1.1-0.7c-0.9-0.6-1.9-1.6-2.8-2.7
				c-0.4-0.6-0.8-1.2-1.1-1.8c-0.2-0.3-0.3-0.6-0.4-0.9c-0.1-0.3-0.2-0.5-0.3-0.8c-0.2-0.5-0.3-0.9-0.3-1.2
				c-0.1-0.3-0.1-0.5-0.1-0.5s0.1,0.2,0.2,0.4c0.1,0.1,0.1,0.3,0.2,0.5c0.1,0.2,0.2,0.4,0.3,0.6c0.2,0.5,0.5,1,0.9,1.5
				c0.3,0.5,0.7,1.1,1.2,1.6c0.4,0.6,0.9,1.1,1.3,1.6c0.4,0.5,0.8,0.9,1.2,1.3s0.7,0.7,0.9,0.9C36.5,92.7,36.7,92.8,36.7,92.8z"/>
		</g>
		<path class="st14" d="M104.6,22.4c0,0-10.4-7.1-13.7-0.4C89.7,25.5,90.6,10.3,104.6,22.4z"/>
		<path class="st8" d="M108.6,67.8c0,0-16.7-15.2-39.5,1.8C60.5,75.3,85.6,47.8,108.6,67.8z"/>
		<path class="st8" d="M100.1,56c0,0-9.5-3.6-23.8,1.5C69.4,59.4,85.5,48.7,100.1,56z"/>
		<path class="st15" d="M56.5,54.6c0,0,3.8-8.5,8.2-8.1c4.3,0.4,8.2,0,8.2,0s-5,4.5-8.9,4.9C60,51.8,56.5,54.6,56.5,54.6z"/>
		<path class="st15" d="M103.2,43.7c0,0,10.6-5.4,12.9-4.3c2.3,1.1,5.3,5,4.2,7.1s1.8-1.9-5.6-2.1C107.2,44.2,103.2,43.7,103.2,43.7
			z"/>
	</g>
</g>
<g id="g77" transform="matrix(0.26397093,0.01799131,-0.01799131,0.26397093,79.91336,78.717402)">
	<g id="g75" transform="matrix(0.99249268,-0.12223816,0.12223816,0.99249268,0,0)">
		<g id="g73">
			<g id="use69" transform="matrix(0.26458333,0,0,0.26458333,52.391459,52.443713)">
				<path id="path1818" inkscape:connector-curvature="0" class="st16" d="M585,193.8c0.1,0.3,0.2,0.6,0.4,0.7
					c0.9-1.1,1.7-2.2,2.6-3.4C587.1,192.1,586.1,192.9,585,193.8 M316.3-62.1c-10.5-7.5-19.9-11.4-28.1-11.6
					c-5.7-0.5-13.4-3.9-22.9-10.1l-350,739.3c82.6,6.9,179.7,0.7,291.2-18.7c125.9-21.5,243.7-55.1,353.4-100.8
					c74.4-30.5,118.4-57.1,131.9-79.8c13-22.7,11-67.1-6-133c-6.1-23.2-11.6-41.7-16.5-55.5c-3.4-9.1-6.5-16.1-9.4-21
					c-1.4-2.3-2.9-4.4-4.5-6.4c-6.7-7.4-15.4-11.4-26.2-12c-21.7-0.8-36.3-12.1-43.8-33.7c-0.1-0.2-0.3-0.4-0.4-0.7
					c-1.6-4.4-2.8-9.3-3.7-14.6c-3.4-20.3-4.3-56.5-2.6-108.7c1.2-28.6,3-62.1,5.6-100.4l9-128.9l5.2-70.4l-3-1.5l-32.6-15
					c-34.5-15.4-56.7-16.9-66.7-4.6c-2.5,3-5,7.7-7.5,14.2c-1.1,3.4-2.2,7.2-3.4,11.6c-5.2,19.8-10,49.4-14.2,88.8
					c-7.4,73.7-6.9,151.9,1.5,234.6c0.8,6.3,1.5,12.5,2.2,18.7c6.3,53.6,8.3,93.2,6,118.8c-1,12.1-3,21.1-6,27
					c-9.5,19-39.2,30.6-89.2,34.8c-22.3,2.3-35.8,3.3-40.5,3c-0.2,0-0.5,0-0.7,0c-9.7-0.7-15.7-5.4-18-13.9
					c-2.7-10.9,2.3-62,15-153.3c0.2-0.5,0.3-1,0.4-1.5c8-57.5,11.9-95.8,11.6-115c0-19.7-4.7-37.5-14.2-53.2
					C333.7-45.8,326-54.6,316.3-62.1z"/>
				<path id="path1826" inkscape:connector-curvature="0" class="st17" d="M265.3-83.8c-4.8-3.4-10.2-7.5-16.1-12.4
					c-16.7-15-35-34.5-54.7-58.5c-29.5-37-51.2-59.7-65.2-68.2c-14.2-9.2-38.8-15.9-73.8-19.9c-59.5-7.4-99.9-6.1-121.4,4.2
					c-21.3,10.5-43.9,40.2-67.9,89.2c-11.7,23-24.4,44-37.8,63c-12.7,18.7-22.5,29.4-29.2,31.9c-6.2,2.5-16.7,2.5-31.5,0
					c-15.7-2.2-30.7-5.9-45-10.9c-23-8-39.1-11.9-48.3-11.6c-9.5,0.7-19.5,6.2-30,16.5c-10.2,10.2-15.9,19.7-16.9,28.5
					c-0.5,8,2.7,23,9.7,45c9.8,27,17.4,67.5,22.9,121.4c0.8,8,1.5,16.3,2.2,24.7c5.5,62.5,11.1,102.9,16.9,121.4
					c4,11,2.4,16.9-4.9,17.6c-7,0.7-26.9-2.5-59.6-9.7c-53.2-13-84.2-27.6-92.9-43.8c-8.4-15.2-8.3-52.5,0.4-112
					c0.8-4.3,1.5-8.6,2.2-13.1c8.5-51.2,11.7-113.4,9.7-186.6c-1.5-72.9-7.6-142.3-18.4-208c-0.5-3.1-1.1-5.9-1.9-8.6
					c-2.4-8.2-6.3-14.2-11.6-18c-0.9-0.7-1.9-1.3-3-1.9c-6.5-3.7-16-6-28.5-7.1l-39-0.4l-0.7,26.6l-0.7,22.5l-4.5,187
					c-2.5,103.3-6.5,175-12,215.1c-1.2,8.7-2.4,16-3.7,21.7c-8.5,32.5-26.1,44.6-52.8,36.3c-10.5-3.5-19.2-2.1-26.2,4.1
					c-1.7,1.5-3.4,3.5-5.2,6c-3.3,4.4-6.9,10.3-10.9,17.6c-2.3,5-4.8,10.5-7.5,16.5c-1.6,3.9-3.1,7.8-4.5,11.6
					c-2.4,6.2-4.7,12.3-6.7,18.4c-8.9,28.1-12.7,53.2-11.6,75.3c2.2,29.5,13.9,55.7,34.8,78.7c45.7,48.5,123.7,94.8,233.8,139
					c110.7,44.5,220.7,73.4,330.1,86.9c10.4,1.4,21,2.5,31.9,3.4L265.3-83.8z"/>
			</g>
			<path id="use71" inkscape:connector-curvature="0" class="st18" d="M122.7,30.2c2.5,1.7,4.5,2.5,6,2.7c2.2,0.1,4.7,1.1,7.4,3.1
				c2.6,2,4.6,4.3,6,7c2.5,4.2,3.8,8.9,3.8,14.1c0.1,5.1-1,15.2-3.1,30.4c0,0.1,0,0.3,0,0.4 M177.5,78.6
				c-2.3-21.9-2.4-42.6-0.4-62.1c1.1-10.4,2.4-18.3,3.8-23.5 M-76.2-22.7c0.2,0.7,0.4,1.5,0.5,2.3c2.8,17.4,4.5,35.7,4.9,55
				c0.5,19.4-0.3,35.8-2.6,49.4c-0.2,1.2-0.4,2.3-0.5,3.5 M-37.5,88c-1.4-14.3-3.5-25-6-32.2c-1.9-5.8-2.7-9.8-2.6-11.9
				c0.3-2.3,1.8-4.8,4.5-7.5c2.8-2.7,5.4-4.2,7.9-4.4c2.4-0.1,6.7,1,12.8,3.1c3.8,1.3,7.7,2.3,11.9,2.9c3.9,0.7,6.7,0.7,8.3,0
				c1.8-0.7,4.4-3.5,7.7-8.4c3.6-5,6.9-10.6,10-16.7c6.3-13,12.3-20.8,17.9-23.6c5.7-2.7,16.4-3.1,32.1-1.1
				c9.3,1.1,15.8,2.8,19.5,5.3c3.7,2.2,9.5,8.3,17.3,18c5.2,6.3,10,11.5,14.5,15.5c1.6,1.3,3,2.4,4.3,3.3 M30,225.9
				c21.9,1.8,47.5,0.2,77-5c33.3-5.7,64.5-14.6,93.5-26.7c19.7-8.1,31.3-15.1,34.9-21.1c3.4-6,2.9-17.7-1.6-35.2
				c-1.6-6.1-3.1-11-4.4-14.6c-0.9-2.5-1.7-4.3-2.5-5.6c-0.4-0.6-0.8-1.2-1.2-1.6c-1.8-2-4.1-3.1-6.9-3.2c-5.7-0.2-9.6-3.2-11.6-8.9
				c0-0.1-0.1-0.2-0.1-0.2c-0.4-1.2-0.7-2.5-1-3.9c-0.9-5.4-1.1-14.9-0.6-28.7c0.3-7.6,0.8-16.5,1.4-26.6l2.4-34.1l1.3-18.7
				l-0.8-0.3l-8.6-4c-9.1-4-15-4.4-17.6-1.2c-0.7,0.8-1.3,2-1.9,3.8c-0.3,0.9-0.6,1.9-0.9,3.1 M-98.1-22.9l0.2-7l10.3,0.1
				c3.3,0.3,5.8,0.9,7.6,1.9c0.3,0.2,0.5,0.3,0.7,0.5c1.4,1,2.4,2.6,3.1,4.8 M-102.7,89.4c1.5-10.6,2.5-29.6,3.2-56.9l1.2-49.4
				l0.1-6 M-132,119.6c0.4-1,0.8-2,1.2-3.1c0.7-1.6,1.4-3,2-4.3c1-2,2-3.5,2.8-4.7 M-73.9,87.5c-2.3,15.8-2.4,25.6-0.1,29.6
				c2.3,4.3,10.5,8.2,24.6,11.6c8.7,1.9,13.9,2.8,15.8,2.6c1.9-0.2,2.3-1.8,1.3-4.7c-1.5-4.9-3-15.6-4.5-32.1
				c-0.2-2.2-0.4-4.4-0.6-6.5 M30,225.9c-2.9-0.2-5.7-0.5-8.4-0.9c-29-3.6-58.1-11.2-87.3-23c-29.1-11.7-49.8-24-61.9-36.8
				c-5.6-6.1-8.6-13-9.2-20.8c-0.3-5.9,0.7-12.5,3.1-19.9c0.5-1.6,1.1-3.2,1.7-4.9 M-125.9,107.5c0.5-0.7,0.9-1.2,1.4-1.6
				c1.9-1.7,4.2-2,6.9-1.1c7.1,2.2,11.7-1,14-9.6c0.4-1.5,0.7-3.4,1-5.8 M179.6,115c0.6-6.8,0.1-17.3-1.6-31.4
				c-0.2-1.7-0.4-3.3-0.5-5 M179.6,115c-0.3,3.2-0.8,5.6-1.6,7.1c-2.5,5-10.4,8.1-23.6,9.2c-5.9,0.6-9.4,0.9-10.7,0.8
				c-0.1,0-0.2,0-0.2,0c-2.6-0.2-4.2-1.4-4.8-3.7c-0.7-2.9,0.6-16.4,4-40.6"/>
		</g>
	</g>
</g>
<g>
	<g>
		<g>
			<g>
				<path class="st0" d="M72.4,85.1c0.5,2.8,3.9,4.5,6.5,5.9c6.4,3.4,13.8,4.1,20.9,1.9c3.7-1.2,7.7-2.3,10.9-4.4
					c1.3-0.9,2.3-2.5,2.4-4.5c0-0.9-0.1-1.9-0.6-2.7c-0.3-0.4-0.8-0.8-1.3-1.1c0,0,0.1,0,0-0.1c-1.4-2.4-3.5-4.1-5.9-5.3
					c-2.6-1.2-5.2-1.7-7.9-2c-0.8-0.4-1.4-1.2-2-1.9c-0.5-0.6-1.3-1.4-2.1-1.5c-0.9-0.1-1.7,0.5-2.4,1.2c-0.6,0.6-1.1,1.2-1.7,1.7
					c-1.1,0.4-2.3,0.4-3.4,0.5c-1.2,0.1-2.4,0.5-3.6,1c-1.8,0.7-3.3,1.8-4.7,3C74.8,78.7,71.8,81.9,72.4,85.1z"/>
				<path class="st19" d="M92.1,74c2.9-0.1,5.9,0.3,8.7,0.9c0.5,0.1,1.1,0.2,1.7,0.3c-2.3-1-4.7-1.6-7.4-1.9
					c-1.9-0.2-3.9,0.1-5.8,0.5c-1.1,0.2-2.3,0.5-3.5,0.9C87.9,74.4,90,74,92.1,74z"/>
				<path class="st2" d="M72.4,85.1c0.5,2.8,3.9,4.5,6.5,5.9c6.4,3.4,13.8,4.1,20.9,1.9c3.7-1.2,7.7-2.3,10.9-4.4
					c1.3-0.9,2.3-2.5,2.4-4.5c0-0.9-0.1-1.9-0.6-2.7c-0.3-0.4-0.8-0.8-1.3-1.1c0,0,0.1,0,0-0.1c-1.4-2.4-3.5-4.1-5.9-5.3
					c-2.3-1.1-4.7-1.6-7.1-1.9c-0.3-0.1-0.5-0.1-0.8-0.1c-0.8-0.4-1.4-1.2-2-1.9c-0.5-0.6-1.3-1.4-2.1-1.5c-0.9-0.1-1.7,0.5-2.4,1.2
					c-0.6,0.6-1.1,1.2-1.7,1.7c-0.3,0.1-0.7,0.2-1.1,0.3c-0.3,0-0.6,0.1-0.9,0.1h-0.1c-0.5,0-1,0.1-1.4,0.1c-1.2,0.1-2.4,0.5-3.6,1
					c-1.8,0.7-3.3,1.8-4.7,3C74.8,78.7,71.8,81.9,72.4,85.1z M73.3,82.3c0.5-1.4,1.6-2.6,2.7-3.7c0,0,0.1,0,0.1-0.1
					c1-0.9,2-1.9,3.1-2.7c1.1-0.8,2.3-1.4,3.6-1.9c1.3-0.5,2.5-0.7,3.7-0.8c0.6,0,1.6-0.1,2.2-0.2c1.2-0.1,2.3-0.4,3.5-0.5
					c-0.8,0-1.6-0.1-2.5,0c0.3-0.3,0.5-0.6,1-1.1c0.9-1,1.9-2,3.2-1.2c1,0.7,1.7,2,2.8,2.7c-0.1,0-0.2,0-0.3,0
					c-0.6,0-1.2-0.2-1.7-0.1c-0.1,0,1,0.1,1.1,0.2c2.9,0.2,5.8,0.9,8.6,1.9c2,0.8,4.1,2.5,5.6,4c-0.1,0-0.1,0.1-0.1,0.1
					c0.1,0.5,0.4,0.9,0.8,1.2c0.7,0.6,1.4,1.1,1.7,2c0.4,1.3,0.2,2.7-0.3,3.9c-1.2,2.6-4,3.4-6.4,4.3c-6.2,2.3-12.9,4.4-19.2,2.9
					c-4-1-8-2.7-11.5-5.3C73.4,86.7,72.4,84.8,73.3,82.3z"/>
				<path class="st20" d="M92.7,70.2c0.1,0.4,0.2,0.7,0.2,1.1s0,0.7,0,1H93c0-0.3,0.1-0.7,0.1-1c0.1-0.4,0.2-0.7,0.3-1.1
					C93.5,69.6,92.6,69.6,92.7,70.2z"/>
			</g>
		</g>
		<path class="st0" d="M97.3,72.8c-0.8-0.4-1.4-1.2-2-1.9c-0.4-0.5-1-1.1-1.6-1.4c0.1,0,0.1,0.1,0.1,0.3c0,1,0.2,1.9-0.9,2.4
			c-0.3,0.1-0.6,0-0.8-0.3c-0.4-0.6-0.4-1.4-0.3-2.2c0-0.1,0-0.1,0.1-0.1c-0.4,0.2-0.7,0.5-1,0.8c-0.6,0.6-1.1,1.2-1.7,1.7
			c-0.4,0.1-0.8,0.2-1.1,0.3c-0.1,0.1-0.1,0.2-0.2,0.3C91.2,72.2,95.6,72.6,97.3,72.8z"/>
		<path class="st0" d="M72.4,85.1c0.5,2.8,3.9,4.5,6.5,5.9c6.4,3.4,13.8,4.1,20.9,1.9c3.7-1.2,7.7-2.3,10.9-4.4
			c1.3-0.9,2.3-2.5,2.4-4.5c0-0.9-0.1-1.9-0.6-2.7c-0.3-0.4-0.8-0.8-1.3-1.1c0,0,0.1,0,0-0.1c-1.4-2.3-3.4-4-5.9-5.2
			c0.8,0.9,1,1.9-1.1,2.5c-4.6,1.2-8.7,1.4-13.6,3.8c-3.8,1.8-3.4,1-3.5-0.9s-1.1-2.8-3-3.9c-1.9-1.2-0.3-2.5,2.4-3.1
			c0-0.2,0-0.3,0.1-0.5c-0.3,0-0.5,0-0.8,0.1c-1.2,0.1-2.4,0.5-3.6,1c-1.8,0.7-3.3,1.8-4.7,3C74.8,78.7,71.8,81.9,72.4,85.1z"/>
	</g>
</g>
<g>
	<g>
		<path class="st21" d="M128.1,105.2c-0.6,0.8-1.4-0.1-1.9-0.6c-0.5-0.4-0.9-0.9-1.3-1.5c-0.7-1-1.1-2.2-1.5-3.3
			c-0.7-2.2-1-4.6-1.8-6.8c-0.9-2.5-2.7-4.7-4.7-6.4c-1-0.9-2.1-1.6-3.4-2c1.6-0.6,2.4-2.5,2.5-4.1c0-1.7-1.1-3.4-2.7-3.8
			c-0.1,0-0.1,0.1,0,0.1c1.8,0.6,1,1.8,0.2,3c-0.2,0.3-0.4,0.7-0.7,0.9c-0.7,0.5-1.5,0.6-2.3,0.5c-1.6-0.1-3.2-0.9-4.6-1.7
			c-1.4-0.8-2.9-1.6-4.4-2.2c-3.5-1.5-7.4-2.1-11.2-2.2c-3.4-0.1-6.8,0.3-9.9,1.5c-2.6,0.9-4.9,2.5-6.7,4.5c-1.8,2-3.6,4.9-3.6,7.7
			c-5.2,1.4-9.2,5.6-11.8,10.4c-1.7,3.1-2.8,6.5-3.3,10c-0.5,3.6,0.1,7.1,1.8,10.3c0.2,0.3,0.4,0.7,0.5,1c0.7,3.2,1,6.5,1.9,9.7
			c1,3.4,3.2,6,5.9,8.1c2.9,2.2,6.2,3.8,9.1,6c1.4,1,2.5,2.1,4.3,2.3c1.6,0.2,3.1-0.2,4.6-0.7c0.4-0.1,0.8-0.3,1.2-0.4
			c1.3-0.2,2.7-0.1,3.9-0.1c2.2,0.1,4.3,0.4,6.5,0.7c3.8,0.6,7.6,1.2,11.3,0.1c1.9-0.5,3.5-1.6,5.1-2.6c1.8-1.1,3.8-1.6,5.6-2.5
			c1.4-0.7,2.6-1.8,3.6-2.9c0.9-1.1,1.8-2.5,1.6-3.9c-0.1-0.6-0.3-1.2-0.5-1.9c0-1.1,0.8-2,1.4-2.9c0.7-0.9,1.1-1.9,1.4-3
			c0.2-1.2,0.3-2.4,0.6-3.6c0.3-1.3,0.7-2.5,1-3.8c0.9-4.2-0.5-8.4-3-11.8c0.7,0.5,1.5,0.7,2.4,0.5c1.1-0.3,2.2-1.2,2.6-2.2
			c0,0,0-0.1,0-0.1c0,0,0,0,0-0.1C128.4,105.2,128.2,105.1,128.1,105.2z"/>
		<path class="st22" d="M125.8,105.7c-1.5-0.7-2.5-2.4-3.6-3.6c-0.9-1-1.9-2-2.7-3.1c0.8,1.7,1.8,3.3,2.7,4.9
			c0.1,0.2-0.1,0.4-0.3,0.3c-1.6-0.4-3.2-1.1-4.9-0.8c0.6,1.2,1.6,2.1,2.2,3.3c0.6,1.1,1.2,2.2,1.6,3.4c0.7,1.9,1.1,3.8,1.6,5.8
			c0.6,2.7,1.7,7.2-0.7,9.4c-0.1,0.1-0.3,0.1-0.4-0.1c-0.1-0.6-0.2-1.1-0.2-1.7c-1.1,2-1.5,4.2-2.8,6c-0.1,0.1-0.2,0.2-0.3,0.1
			c-1.2-0.5-1-1.6-1.2-2.7c-1.2,2-2.6,5.8-5.3,5.2c-0.1,0-0.2-0.1-0.2-0.2c-0.1-1,0.2-1.8,0.6-2.7c0.2-0.4,1.5-3.2,0.5-2.8
			c-1.5,0.5-3,1.8-4.6,0.7c-0.1-0.1-0.1-0.2-0.1-0.3c0.5-1.8,2.6-2.2,3.4-3.8c0.9-1.7-2.2-1.3-3.1-1.2c-1,0.1-2,0.1-3-0.2
			c-0.1-0.1-0.2-0.2-0.1-0.3c1.4-2.1,4.1-3.1,5.4-5.4c1.2-2.2,1.7-5.1,0.5-7.4c-0.9,1.3-1.1,3-2.1,4.3c-1,1.3-2.7,2.4-4.3,2.9
			c-0.1,0-0.2,0-0.3-0.1c-1.2-2.1,0-5,0.2-7.2c0.2-2.6-0.4-5.9-2.6-7.6c-0.8,4.2-0.8,8.9-4.1,12.1c-0.1,0.1-0.3,0.1-0.3,0
			c-1.6-2.1,0.4-5.2-1-7.2c-1.1,1.7-1.8,3.7-3.3,5.1c-1.3,1.3-2.3,0.2-2.6-1.3c-0.4-2.2-0.2-4.4-0.1-6.6c0.1-1.5,0.3-2.9,1.2-4.2
			c0.1-0.1,0.8-0.9,0.2-1c-0.4-0.1-0.8,0-1.2,0.1c-0.5,0.1-1,0.2-1.5,0.3c-0.2,0-0.4-0.1-0.3-0.3c0.7-2.2,3.4-2.8,5.4-3.1
			c2.8-0.4,5,0.6,7.3,2c-1.5-3.1-4.1-6.2-7.7-6.7c-0.9-0.1-1.9-0.1-2.8,0c-0.4,0-0.9,0.1-1.2,0c-1.2-0.6-1.4-2.2-2.5-3.1
			c0,1.2,0.2,2.5-0.3,3.6c-0.1,0.1-0.2,0.2-0.3,0.1c-0.7-0.4-1.1-1-1.7-1.6c-0.7-0.8-1.6-1.5-2.7-1.8c-0.9-0.3-1.9-0.6-2.8-0.9
			c-1-0.3-4.2-0.8-4.3-2.3c-0.1-1.9,2.1-3.8,3.5-4.9c2.6-1.9,5.6-3.4,8.8-3.7c0.2,0,0.2,0.1,0.2,0.3c0.8-0.1,1.6-0.1,2.4-0.1
			c3.1,0.3,6.4,0.9,9.3,2.1c2.9,1.2,5.9,2.7,9,3.4c1.8,0.4,5.2,0.6,5.6-1.8c0-0.2,0.4-0.2,0.5,0c0.5,2.3-2.6,3.8-4.5,3.9
			c-2.2,0.1-4.2-0.1-6.4,0.5c-0.9,0.2-1.7,0.5-2.5,0.9c4.8-1.3,9.7-0.9,14.2,1.7c2.3,1.3,4.2,3,5.7,5.2c-1-1.9-2.4-3.6-4-4.9
			c-1-0.9-2.1-1.6-3.4-2c1.6-0.6,2.4-2.5,2.5-4.1c0-1.7-1.1-3.4-2.7-3.8c-0.1,0-0.1,0.1,0,0.1c1.8,0.6,1,1.8,0.2,3
			c-0.2,0.3-0.4,0.7-0.7,0.9c-0.7,0.5-1.5,0.6-2.3,0.5c-1.6-0.1-3.2-0.9-4.6-1.7c-1.4-0.8-2.9-1.6-4.4-2.2
			c-3.5-1.5-7.4-2.1-11.2-2.2c-3.4-0.1-6.8,0.3-9.9,1.5c-2.6,0.9-4.9,2.5-6.7,4.5c-1.8,2-3.6,4.9-3.6,7.7
			c-5.2,1.4-9.2,5.6-11.8,10.4c-1.7,3.1-2.8,6.5-3.3,10c-0.5,3.6,0.1,7.1,1.8,10.3c0.2,0.3,0.4,0.7,0.5,1c0.7,3.2,1,6.5,1.9,9.7
			c1,3.4,3.2,6,5.9,8.1c2.9,2.2,6.2,3.8,9.1,6c1.4,1,2.5,2.1,4.3,2.3c1.6,0.2,3.1-0.2,4.6-0.7c0.4-0.1,0.8-0.3,1.2-0.4
			c1.3-0.2,2.7-0.1,3.9-0.1c2.2,0.1,4.3,0.4,6.5,0.7c3.8,0.6,7.6,1.2,11.3,0.1c1.9-0.5,3.5-1.6,5.1-2.6c1.8-1.1,3.8-1.6,5.6-2.5
			c1.4-0.7,2.6-1.8,3.6-2.9c0.9-1.1,1.8-2.5,1.6-3.9c-0.1-0.6-0.3-1.2-0.5-1.9c0-1.1,0.8-2,1.4-2.9c0.7-0.9,1.1-1.9,1.4-3
			c0.2-1.2,0.3-2.4,0.6-3.6c0.3-1.3,0.7-2.5,1-3.8c0.9-4.2-0.5-8.4-3-11.8c0.7,0.5,1.5,0.7,2.4,0.5c0.9-0.2,1.7-0.9,2.3-1.6
			C127.2,106.1,126.4,106,125.8,105.7z M85.5,108.7c0,0.1-0.1,0.2-0.2,0.2c-0.9,0-1.7-0.6-2.3-1.1c-1.1-0.8-2.2-1.5-3.4-2.1
			c-1.4-0.8-2.9-1.6-4.3-2.5c-0.5-0.3-1-0.6-1.4-0.9c3.1,1.9,6.1,4.4,7.7,7.7c0.1,0.2,0,0.3-0.2,0.4c-4,0.2-6.7-3.3-10.3-4.2
			c1.4,2.4,3.5,4.2,5.5,6c1,0.9,2,1.8,2.9,2.8c0.3,0.4,0.6,1,0.4,1.5c-0.6,1.5-2.5,2.3-3.8,2.9c-1.9,1-4.3,2.4-5.4,4.3
			c1.1-0.2,2.1-0.8,3.2-0.8c0.2,0,0.3,0.2,0.2,0.3c-0.3,2-2.7,2.9-4.4,3.7c1.3,0.1,2.6-0.6,4-0.5c0.2,0,0.3,0.2,0.2,0.4
			c-2.1,3.5-7,6.3-10.9,4.4c-0.1-0.1-0.2-0.3,0-0.4c0.9-0.7,1.9-1,2.9-1.4c-1.4-0.7-2.9-1.1-3.8-2.5c-0.1-0.1,0-0.3,0.1-0.3
			c1-0.4,2.1-0.4,3.1-0.6c-0.8-1.6-2.4-2.5-3.5-3.9c-0.9-1.1-1.7-2.4-2.1-3.8c-1.1-3.3-2.2-7.1-1-10.5c0-0.1,0.2-0.2,0.3-0.1
			c0.6,0.5,1.1,1.1,1.6,1.6c-0.9-3.5-1.8-7.8-0.5-11.3c-0.1-0.1-0.1-0.2,0-0.3c0.1-0.1,0.1-0.1,0.2-0.2c0.3-0.7,0.7-1.3,1.2-1.9
			c0.2-0.2,0.4,0,0.4,0.2c0.8-0.9,1.6-1.8,2.5-2.6c1.3-1.1,2.7-1.9,4.2-2.6c2.8-1.2,6.5-2.6,9.5-1.5c0.2,0.1,0.2,0.4,0,0.5
			c-2.5,0.8-4.9,2.1-6.6,4.2c-1.2,1.5-2.1,3.2-2.8,5.1c1.3-1.6,3.3-2.7,5.2-3.4c2.2-0.8,5.4-1.6,7.6-0.3c2.1,1.2,3,3.7,3.5,6
			C85.3,103.6,85.6,106.2,85.5,108.7z"/>
		<path class="st22" d="M75.6,91.8c-0.9,0.5-1.6,1.2-2.3,2c2.3-1.4,5.1-2.2,7.7-1.3c1.4,0.5,3.1,1.4,3.8,2.8
			c0.5,0.8,0.7,1.6,0.8,2.5c0.4-0.7,1-1.4,1.5-2c1-1.1,2.3-2.1,3.8-2.5c1.8-0.4,3.7-0.4,5.5,0.2c1.1,0.4,2,0.9,2.9,1.4
			c-0.8-1.1-1.8-2.1-3-2.7c-2.5-1.1-4.7-2-7.6,0C88.3,92.5,88,93,88,92.7c0-0.7,0-1.4-0.1-2.1c-0.3,0.6-0.5,1.2-0.9,1.8
			c-0.2,0.4-0.1,0.2-0.3-0.2c-0.6-1.5-2.5-2.7-4-3.4c-1.2-0.6-2.3-0.6-3.3-0.2c0.6,0.2,1.2,0.6,1.8,1c0.5,0.4,1.7,1.1,1.8,1.8
			C83.1,91.6,80,89.1,75.6,91.8z"/>
		<path class="st22" d="M125.7,120.4c-0.8,2.7-0.7,6.1-3.1,8c-0.3,0.3-0.8,0.1-0.9-0.3c-0.3,0.5-0.6,1.1-0.8,1.7
			c-0.2,1,0,2.2-0.3,3.2c-0.4,1.3-1.2,2.1-2.2,2.9c-2.1,1.6-4.9,2.9-7.6,3.2c-0.3,0-0.6-0.4-0.5-0.7c0.2-0.9,1-1.5,1.5-2.2
			c-2.6,0.9-6.5,3.7-8.2,0.5c-0.7-1.4-1.6-3.6-0.3-4.9c0.6-0.6,1.6-0.8,2.4-0.9c-0.5-0.1-1-0.2-1.5-0.4c-0.8-0.3-2.3-1.1-2.1-2.2
			c0.3-1.5,2-1.3,3.1-1.8c1.1-0.4,2.1-1,3-1.8c-1.4,0.5-2.8,0.9-4.2,0.9c-1,0-4.1-0.2-4-1.9c0.1-1.6,1.9-2.8,3.2-3.6
			c1.3-0.9,2.7-1.6,3.9-2.7c-1.3,0.6-2.6,1.3-4,1.7c-1.5,0.5-3,1.3-4.6,1.5c-0.4,0.1-0.6-0.5-0.4-0.8c1-2.2,3.1-4.3,3.6-6.7
			c-0.8,1.3-1.7,2.7-2.8,3.9c-0.9,1-2.1,2.5-3.6,2.7c-2.4,0.3-1.4-3.1-1.2-5c-1.2,1.3-2.6,3.9-4.4,2.8c-1.3-0.8-1.9-3.3-2.3-4.7
			c-0.4-1.1-0.7-2.2-1-3.3c0.1,1.7,0.3,3.4,0.6,5.1c0.2,1.1,0.7,3.1-0.7,3.7c-1.4,0.5-3.1-2.2-3.8-3c-1.4-1.6-3.5-2.6-5.6-3.3
			c1.9,2.3,4.3,4.2,6.4,6.2c0.2,0.2,0.2,0.7-0.1,0.8c-3.7,1.7-7.6,3.8-10,7.2c1.7-0.4,3.1-1.4,4.5-2.5c0.3-0.2,0.5-0.4,0.8-0.6
			c0.5-0.4,1.3,0.3,0.7,0.7c-0.3,0.2-0.6,0.5-0.9,0.7c-2.5,2.1-5,5.1-5.3,8.4c-0.2,2,0.1,5.2-1.6,6.6c-0.2,0.2-0.5,0.2-0.7,0
			c-0.6-0.6-0.6-1.3-0.6-2c-6.5,3-10-7.7-10.9-12.4c-0.1-0.5,0.3-0.8,0.8-0.6c0.8,0.4,1.4,1.2,2,1.8c-1.9-4.3-5.2-7.9-6.2-12.6
			c-0.5-2.1-0.6-4.4-0.5-6.7c-0.1,0.7-0.3,1.4-0.4,2.1c-0.5,3.6,0.1,7.1,1.8,10.3c0.2,0.3,0.4,0.7,0.5,1c0.7,3.2,1,6.5,1.9,9.7
			c1,3.4,3.2,6,5.9,8.1c2.9,2.2,6.2,3.8,9.1,6c1.4,1,2.5,2.1,4.3,2.3c1.6,0.2,3.1-0.2,4.6-0.7c0.4-0.1,0.8-0.3,1.2-0.4
			c1.3-0.2,2.7-0.1,3.9-0.1c2.2,0.1,4.3,0.4,6.5,0.7c3.8,0.6,7.6,1.2,11.3,0.1c1.9-0.5,3.5-1.6,5.1-2.6c1.8-1.1,3.8-1.6,5.6-2.5
			c1.4-0.7,2.6-1.8,3.6-2.9c0.9-1.1,1.8-2.5,1.6-3.9c-0.1-0.6-0.3-1.2-0.5-1.9c0-1.1,0.8-2,1.4-2.9c0.7-0.9,1.1-1.9,1.4-3
			c0.2-1.2,0.3-2.4,0.6-3.6c0.3-1.3,0.7-2.5,1-3.8c0-0.1,0-0.2,0.1-0.3C126.1,119.2,125.9,119.8,125.7,120.4z"/>
		<path class="st23" d="M128.1,105.2c-0.6,0.8-1.4-0.1-1.9-0.6c-0.5-0.4-0.9-0.9-1.3-1.5c-0.7-1-1.1-2.2-1.5-3.3
			c-0.7-2.2-1-4.6-1.8-6.8c-0.9-2.5-2.7-4.7-4.7-6.4c-1-0.9-2.1-1.6-3.4-2c1.6-0.6,2.4-2.5,2.5-4.1c0-1.7-1.1-3.4-2.7-3.8
			c-0.1,0-0.1,0.1,0,0.1c1.8,0.6,1,1.8,0.2,3c-0.2,0.3-0.4,0.7-0.7,0.9c-0.7,0.5-1.5,0.6-2.3,0.5c-1.6-0.1-3.2-0.9-4.6-1.7
			c-1.4-0.8-2.9-1.6-4.4-2.2c-3.5-1.5-7.4-2.1-11.2-2.2c-3.4-0.1-6.8,0.3-9.9,1.5c-2.6,0.9-4.9,2.5-6.7,4.5c-1.8,2-3.6,4.9-3.6,7.7
			c-5.2,1.4-9.2,5.6-11.8,10.4c-1.7,3.1-2.8,6.5-3.3,10c-0.5,3.6,0.1,7.1,1.8,10.3c0.2,0.3,0.4,0.7,0.5,1c0.7,3.2,1,6.5,1.9,9.7
			c1,3.4,3.2,6,5.9,8.1c2.9,2.2,6.2,3.8,9.1,6c1.4,1,2.5,2.1,4.3,2.3c1.6,0.2,3.1-0.2,4.6-0.7c0.4-0.1,0.8-0.3,1.2-0.4
			c1.3-0.2,2.7-0.1,3.9-0.1c2.2,0.1,4.3,0.4,6.5,0.7c3.8,0.6,7.6,1.2,11.3,0.1c1.9-0.5,3.5-1.6,5.1-2.6c1.8-1.1,3.8-1.6,5.6-2.5
			c1.4-0.7,2.6-1.8,3.6-2.9c0.9-1.1,1.8-2.5,1.6-3.9c-0.1-0.6-0.3-1.2-0.5-1.9c0-1.1,0.8-2,1.4-2.9c0.7-0.9,1.1-1.9,1.4-3
			c0.2-1.2,0.3-2.4,0.6-3.6c0.3-1.3,0.7-2.5,1-3.8c0.9-4.2-0.5-8.4-3-11.8c0.7,0.5,1.5,0.7,2.4,0.5c1.1-0.3,2.2-1.2,2.6-2.2
			c0,0,0-0.1,0-0.1c0,0,0,0,0-0.1C128.4,105.2,128.2,105.1,128.1,105.2z M122.8,106.6C122.8,106.6,122.7,106.6,122.8,106.6
			c-0.3-0.3-0.5-0.6-0.7-0.8c0,0-0.1,0,0,0c0.2,0.3,0.4,0.6,0.7,0.9c0,0,0,0,0,0c0,0,0,0,0,0c1.2,1.7,2.2,3.5,2.8,5.5
			c0.8,2.5,0.8,5,0.1,7.6c-0.3,1.2-0.7,2.4-1,3.6c-0.3,1.2-0.3,2.4-0.6,3.5c-0.3,1.1-0.9,2-1.6,2.9c-0.4,0.5-0.7,1.1-0.8,1.6
			c0-0.2-0.1-0.4-0.1-0.6c-0.2-1.3,0.1-2.6,0.5-3.8c0-0.1-0.1-0.2-0.2-0.1c-0.8,1.7-0.9,3.3-0.5,5.1c0.2,0.9,0.6,1.8,0.5,2.7
			c0,0.9-0.7,1.8-1.2,2.5c-1,1.4-2.4,2.6-3.9,3.3c-1.9,0.9-3.9,1.4-5.6,2.5c-1.8,1.1-3.4,2.2-5.5,2.7c-1.9,0.5-4,0.5-6,0.4
			c-4.1-0.3-8.1-1.3-12.2-1.3c-0.7,0-1.3,0-2,0c0.5-0.2,1-0.5,1.6-0.7c0.1-0.1,0-0.3-0.1-0.3c-3.1,1-6.6,3.1-9.9,1.5
			c-0.8-0.4-1.4-1-2.1-1.5c-0.8-0.6-1.6-1.1-2.4-1.6c-1.5-1-3.1-1.9-4.6-2.9c-3.2-2-6.2-4.5-7.7-8.1c-1.3-3.2-1.4-6.7-2.2-10
			c0-0.1-0.1-0.3-0.1-0.4c0.5,0.7,1,1.4,1.5,2.1c0.1,0.1,0.3,0,0.2-0.1c-1-1.7-2-3.2-2.8-5c-0.8-1.8-1.3-3.7-1.4-5.7
			c-0.2-3.7,0.8-7.5,2.2-10.9c2.4-5.7,6.6-10.8,12.6-12.7c0,0,0.1,0,0.1,0c0.5-0.2,1.1-0.3,1.6-0.4c0.3-0.1,0.7-0.1,1-0.2
			c0.1,0,0-0.1,0-0.1c-0.9,0.1-1.7,0.2-2.5,0.4c0.5-3.7,2.9-7.1,5.8-9.4c2.7-2.1,6.2-3.1,9.5-3.6c3.8-0.5,7.7-0.2,11.4,0.6
			c2,0.5,3.9,1.2,5.7,2c1.4,0.7,2.7,1.5,4,2.1c1.9,0.9,5,2.1,6.6,0.1c0.3-0.4,1.3-1.8,1.4-2.7c0.6,0.7,0.9,1.7,0.9,2.7
			c0,1.7-1,3-2.4,3.8c-0.1,0-0.1,0.1-0.1,0.1c-1.3-0.4-2.7-0.6-4.1-0.8c0,0,0,0,0,0c1.5,0.3,2.9,0.6,4.3,1.1
			c1.6,0.6,2.9,1.6,4.1,2.8c2.2,2.1,3.6,4.7,4.4,7.6c0.6,2.4,1,4.9,2.1,7.1c0.5,1.1,1.3,2.1,2.2,2.9c0.5,0.4,1,0.8,1.4,0.7
			C126.3,107.3,124.4,108.2,122.8,106.6z"/>
		<path class="st24" d="M77.7,122.3c-1,1.1-2,2.1-3.2,3c-1.2,0.9-2.8,1.8-4.3,1.3c-0.1,0-0.1,0.1,0,0.1c1.4,0.6,3-0.1,4.2-0.9
			c1.3-0.8,2.7-2,3.5-3.4C77.9,122.4,77.7,122.3,77.7,122.3z"/>
		<path class="st24" d="M82.5,114.9c-1.5-1.8-3.9-2.6-5.9-3.6c-1-0.5-2.1-1.1-3-1.8c-1-0.8-1.7-1.7-2.4-2.7c0,0-0.1,0-0.1,0
			c1.1,1.8,2.6,3.4,4.5,4.4C77.9,112.6,80.4,113.2,82.5,114.9C82.4,115.1,82.5,115,82.5,114.9z"/>
		<path class="st24" d="M84.2,112.3c-3.6-4.7-7.6-9.4-13.3-11.5c-0.1,0-0.1,0.1,0,0.1c2.8,1.2,5.2,2.9,7.4,5
			c2.1,2.1,3.9,4.3,5.9,6.5C84.2,112.4,84.3,112.4,84.2,112.3z"/>
		<path class="st24" d="M85.9,107.5c-0.3-2.4,0.2-4.8,0.3-7.2c0,0-0.1,0-0.1,0c-0.1,2.4-0.7,4.8-0.5,7.2c0.2,2.4,1,4.9,1.8,7.2
			c0,0.1,0.1,0,0.1,0C87.2,112.2,86.3,109.9,85.9,107.5z"/>
		<path class="st24" d="M102.4,100.9c0-0.1-0.1,0-0.1,0c1.8,5.2-0.1,11.2-2.8,15.8c-0.1,0.1,0.1,0.2,0.1,0.1
			c1.7-2.2,2.6-4.9,3.2-7.6C103.3,106.5,103.4,103.5,102.4,100.9z"/>
		<path class="st24" d="M111.6,109.7C111.6,109.6,111.5,109.6,111.6,109.7c-0.2,2.4-1.2,4.5-3,6c-1.8,1.5-4,2.1-6.2,2.6
			c-0.1,0-0.1,0.1,0,0.1c2.3-0.2,4.6-1,6.4-2.5C110.8,114.4,111.7,112.1,111.6,109.7z"/>
		<path class="st24" d="M108.3,125.7c-2.1,1.5-5.2,1.1-7.6,0.7c-0.1,0-0.1,0.1,0,0.1C103,127.4,106.4,127.4,108.3,125.7
			C108.4,125.8,108.3,125.7,108.3,125.7z"/>
		<path class="st24" d="M108.5,130.4c-1.8,0.9-3.8,0.5-5.7,0.2c-0.1,0-0.1,0.1,0,0.2C104.7,131.4,106.9,131.5,108.5,130.4
			C108.6,130.5,108.6,130.4,108.5,130.4z"/>
		<path class="st24" d="M86.5,95.7c-0.1-0.1-0.1-0.3-0.2-0.4c0.1-1.4-0.6-2.9-1.5-4c-1.1-1.3-2.7-1.8-4.3-2.1c-0.1,0-0.1,0.1,0,0.1
			c1.5,0.4,3,1,4,2.2c0.5,0.5,0.8,1.2,1.1,1.9c0.2,0.5,0.2,0.9,0.3,1.4c-1.7-2.5-4.8-3.6-7.8-3.2c-3.1,0.4-6.1,2.4-7.4,5.2
			c0,0,0,0.1,0.1,0c1.4-2.6,4.2-4.3,7.1-4.8c1.4-0.3,2.9-0.2,4.3,0.3c0.8,0.3,1.6,0.8,2.2,1.3c0.6,0.5,1.1,1.2,1.6,1.8
			c0,0.1,0,0.1,0,0.2c0,0.1,0.1,0.1,0.2,0.1c0,0.1,0.1,0.1,0.1,0.2C86.4,95.9,86.5,95.8,86.5,95.7z"/>
		<path class="st24" d="M98.2,94.4c-3.1-1.7-8.6-3.6-10.8,0.4c-0.1,0.1,0.1,0.3,0.2,0.1c0.7-0.8,1.4-1.4,2.3-1.8
			c0.8-0.3,1.8-0.4,2.7-0.3c1.9,0.1,3.9,0.9,5.6,1.7C98.2,94.6,98.3,94.5,98.2,94.4z"/>
		<path class="st25" d="M112.9,81.2c-1.2,0.6-2.3,0.7-3.7,0.5c-1.6-0.2-3.5-1.5-5-2c-3.3-1.1-5-2.4-8.3-3.3
			c-2.9-0.8-7.4-0.9-10.3,0.1c-2.9,1.1-5.5,2.7-8,4.4c-0.1,0.1,0,0.2,0.1,0.2c2.8-1.1,5.5-2.4,8.6-2.8c4.1-0.5,8.2,0.4,12.1,1.6
			c4,1.2,8.4,3.4,12.7,3c1.1-0.1,3.3-1.1,3.6-3.7C114.7,78.8,114.6,80.4,112.9,81.2z"/>
		<path class="st25" d="M126.8,105.7c-2-1.1-2.9-2-3.3-3.9c-2-8.1-3.5-14.9-12.5-16.9c-2.2-0.5-4.3-0.8-6.5-0.4
			c-2.3,0.4-4.8,2-6.9,3.1c2.5-0.8,4.5-1,6.7-1.1c4-0.2,8.1,1.3,11.3,3.4c4.5,2.9,4.5,7.4,6.2,12.1c0.8,2.1,2.9,4.5,5.6,4.1
			C127.7,106,127.7,106.2,126.8,105.7z"/>
		<path class="st25" d="M76.1,89c-2.5-0.3-5,0.8-7.3,1.8c-2.5,1.1-4.5,2.8-6.1,4.9c-3,4.1-3.2,10.1-1.3,14.7
			c0.1,0.2,0.4,0.1,0.3-0.1c-0.4-1.4-0.8-2.7-0.9-4.1c-0.1-1.3,0.1-2.6,0.3-3.8c0.4-2.1,1-4.1,2.2-5.9c1.3-2.1,3.3-3.7,5.5-4.8
			c2.2-1.1,4.8-2.5,7.3-2.5C76.3,89.2,76.3,89,76.1,89z"/>
		<path class="st25" d="M62.5,121.7c-2.3-3.8-3.8-7.8-3.5-12.2c0-0.1-0.2-0.1-0.2,0c-0.8,4.5,0.4,9.1,3.5,12.4
			C62.4,122,62.6,121.8,62.5,121.7z"/>
		<path class="st26" d="M117.6,112.8c-1-0.7-2-0.5-3,0.1c0.3-1.1,0.7-2.3,0.8-3.5c0.3-2.1,0.2-4.9-1.7-6.2c-1.5-1-3,0-4.3,1.6
			c-0.2-1.5-0.6-3.1-1.1-4.6c-0.6-1.8-1.7-4.1-3.9-3.7c-1.2,0.2-2.1,1.2-2.9,2.3c0-0.2,0-0.3-0.1-0.5c-0.5-2.4-2.9-2.8-4.6-1.5
			c-0.6,0.5-1.2,1.1-1.7,1.8c0-0.3,0-0.7,0-1c-0.2-1.8-1.8-2-3.2-1.1c-0.4,0.3-0.2,0.9,0.3,0.7c1.2-0.4,1.2,0.2,0.8,1.1
			c-0.4,0.9-0.7,1.8-1,2.7c-0.5,1.7-0.7,3.4-0.6,5.1c0.1,1.8,2.4,2.4,3.3,0.9c1.1-1.7,1.9-3.7,3-5.5c-0.2,1.5-0.4,3.1,0,4.6
			c0.3,1.1,0.1,2.5,0.4,1.3c0.5-2.6,3.9-10,6.3-8.8c1.6,0.8,1.7,1.9,1.9,2.7c0.5,2.6,0.5,5.3,0.1,7.9c-0.2,1.5,1.6,3.1,2.8,1.7
			c0.7-0.8,1.3-1.8,1.9-2.7c0.4-0.5,0.7-1.1,1.2-1.6c0.1-0.2,0.3-0.3,0.5-0.5c0.1,0.3,0.2,0.6,0.2,0.9c0.1,1-0.1,2.1-0.3,3.1
			c-0.5,2-1.2,3.9-1.5,6c-0.2,1.4,1.2,2.2,2.3,1.3c0.8-0.6,1.5-1.5,2.3-2.1c0,0.1,0,0.1,0,0.2c0,0.7-0.7,2.7-0.5,2
			c0.4-1.4,2.7-1.5,0,4.1c-0.5,1-0.9,2-0.1,1c1.4-1.6,2.3-3.1,2.9-5.1C118.3,116.4,118.9,113.8,117.6,112.8z"/>
		<path class="st26" d="M82.9,96.5c-2.1-5.1-9.7-1.8-12.6,1c-2.3,2.1-1.1,4.3-0.4,5.1c-2.3-0.2-5,0.5-5.8,3
			c-0.7,2.4,1.7,4.4,3.3,5.6c0.6,0.5,1.3,0.9,2,1.4c-1,0.2-1.9,0.5-2.8,1.1c-1.7,1.2-1.4,3.6,0.6,4.2c0.5,0.1,0.9,0.2,1.4,0.2
			c0.1,0,0.1,0,0.2,0c-0.3,0.4-0.7,0.8-1,1.2c-1,1.4-0.6,3,1.1,3.5c0.2,0.1,0.4,0,0.6,0c-0.2-0.2-0.8-0.6-1-0.7
			c-0.2-0.2-0.3-0.6-0.3-0.9c0-0.8,0.7-1.7,1.3-2.2c0.3-0.3,0.7-0.5,1-0.7c0.7-0.5,0.2-0.6-0.2-0.8c-0.4-0.2-0.9-0.7-0.9-1.2
			c0.2-2.2,4-1.8,6-2.3c0.2-0.6,0-1.2-0.5-1.8c-1.1-1.2-2.7-2.1-4-3c-0.8-0.5-1.5-1-2.2-1.7c-0.3-0.3-0.6-0.6-0.9-0.9
			c-0.1-0.1-0.1-0.1-0.1-0.2c0.1,0,0.3-0.1,0.5-0.1c0.7-0.2,1.7,0,2.4,0.1c1.7,0.3,3.4,0.8,5.2,1c0.9,0.1,1.5,0.4,2.4,0.4
			c0.9,0-6.3-3.5-8-7.3c-0.6-1.4,1.6-1.3,1.4-1.5c0.5,0.1,1,0.2,1.3,0.2c4.9,0.9,8.4,2.6,11.1,6.9c0-0.1,0.1-0.3,0.1-0.4
			C84.4,103.3,83.7,98.5,82.9,96.5z"/>
		<path class="st25" d="M104.9,80.7c-3.6-1.3-7.2-2.9-10.9-3.6c-1.1-0.2-2.2-0.3-3.2-0.3c0,0,0,0,0,0c-2.5-0.3-5.1,0.7-7.4,1.7
			c-1.2,0.5-4.4,1.7-4.6,3.3c-0.2,1.8,2.4,2.1,3.4,3.1c0.9,1,2.4,3.4,4,2.1c0.5-0.4,0.5-1.3,0.6-1.9c0-0.4,0-0.8,0-1.2
			c0-0.4,0.1-0.7,0.3-1.1c0.7-1.6,1.5,0.4,1.6,0.7c0.4,1.2,0.5,3.4,2.2,3.3c1.2,0,2.5-1.9,3.2-2.6c0.6-0.6,1.3-1.3,2.1-1.6
			c0.5-0.2-0.5,2.5-0.5,2.8c-0.1,0.3,0.3,0.6,0.5,0.4c1.2-0.9,2.3-2.1,3.5-3c1.5-1.1,3.3-1.2,5.1-1.3
			C105.2,81.4,105.2,80.8,104.9,80.7z"/>
		<path class="st27" d="M114.3,79.6c-1.1,2.6-4.6,2.2-6.8,1.7c-3.2-0.7-6.4-1.8-9.5-2.7c-3.1-0.9-6-1.8-9.3-1.4
			c-3,0.3-5.9,1.6-8.6,3c0,0,0,0.1,0,0.1c3.3-1.1,6.4-2.4,10-2.4c3.7,0,7.4,1.6,11,2.6c3,0.9,6,2,9.1,1.9c1.9-0.1,3.8-0.6,4.2-2.7
			C114.5,79.5,114.4,79.5,114.3,79.6z"/>
		<path class="st27" d="M121.1,93.4c-1-3.1-3.6-5.7-6.5-7c-2.9-1.3-6.3-1.5-9.4-1c-0.1,0-0.1,0.2,0,0.2c2.9-0.1,5.7,0.2,8.4,1.2
			c3.4,1.3,5.3,3.9,7.3,6.7C121,93.5,121.1,93.5,121.1,93.4z"/>
		<path class="st27" d="M72.4,89.2c-4,1-7.8,2.7-10.3,6.1c-1.1,1.5-2.1,3.3-2.4,5.2c-0.3,2.2,0.1,4.4,0.7,6.4c0,0.1,0.2,0.1,0.2,0
			c-0.2-1.8-0.4-3.6-0.2-5.5c0.2-2.3,1.3-4.2,2.6-6c1.1-1.4,2.5-2.7,4.1-3.6c1.7-1,3.6-1.5,5.4-2.3C72.8,89.5,72.6,89.2,72.4,89.2z"
			/>
		<path class="st28" d="M104.3,97.5c-1.9-0.6-3.4,2-4.3,3.3c-0.2,0.3-0.4,0.7-0.7,1c-0.4,0.6-0.7,1.1-0.5,0.1
			c0.1-0.9,0.4-1.7,0.4-2.6c0-0.6,0-1.4-0.7-1.5c-0.7-0.2-1.4,0.8-1.7,1.3c-0.5,0.6-0.9,1.3-1.3,2c-0.2,0.4-0.5,0.8-0.8,1.2
			c0,0-1,1.5-1.1,0.7c-0.2-1.6,0.4-3.3,0.3-4.9c0-0.1-0.2-0.1-0.2,0c-0.1,1.7-0.6,3.2-0.7,4.9c0,0.7,0.4,1.5,1.1,1.1
			c0.5-0.2,0.9-1,1.2-1.5c0.6-0.8,1-1.6,1.5-2.5c0.3-0.6,0.8-1.2,1.3-1.6c0.3-0.2,0.1,1.9,0.1,2c-0.1,0.6-0.6,3.9,0.8,2.4
			c1.5-1.5,2.5-5.1,5.1-5C104.5,97.9,104.5,97.6,104.3,97.5z"/>
		<path class="st28" d="M116.9,113.9c-0.6-0.7-1.5-0.1-2.1,0.4c-0.1,0.1-1.1,0.9-1.2,0.4c0-0.3,0.1-0.7,0.2-1c0.2-1,0.5-1.9,0.8-2.9
			c0.3-1.1,0.4-2.3,0.3-3.5c-0.2-2.1-1.6-3-3.4-1.6c-0.6,0.4-1,1-1.5,1.5c-0.4,0.4-0.7,0.7-1.1,1c-0.6,0.4-0.6-1.9-0.6-1.9
			c0-1.9-0.2-3.8-0.9-5.6c-0.1-0.2-0.3-0.1-0.2,0.1c0.6,2,0.6,3.9,0.6,6c0,0.8-0.1,1.8,0.7,2.2c0.9,0.3,2.1-1.4,2.6-1.9
			c0.6-0.6,1.4-1.6,2.4-1.4c0.7,0.1,0.8,1.4,0.9,2c0.1,1.4-0.1,2.7-0.4,4c-0.3,1-0.8,2.3-0.7,3.4c0.1,0.7,1,0.2,1.3,0
			c0.2-0.1,0.4-0.3,0.5-0.4c0.4-0.3,1.9-1.7,2.1,0.2c0.1,0.6,0,1.3,0,1.9c0,0.1,0.2,0.1,0.2,0C117.3,115.8,117.5,114.5,116.9,113.9z
			"/>
		<path class="st28" d="M82.1,102.2c-2.6-2.7-6.3-5.3-10.2-4.5c-1.3,0.2-2.2,1.1-2.3,2.4c-0.2,1.9,1.5,3.6,2.8,4.9
			c-1.8,0.2-3.6-0.3-5.4,0.1c-1.4,0.4-2.5,2-1.3,3.3c0.7,0.7,1.5,1.2,2.4,1.7c0.4,0.2,0.8,0.4,1.2,0.7c0.9,0.5,0.9,1.4,0.2,2.1
			c-1.1,1-3.1,1.9-2.3,3.7c0.1,0.2,0.5,0.1,0.4-0.2c-0.7-1.7,2.2-2.7,3-3.9c1-1.4-0.9-2.3-1.9-2.8c-0.8-0.4-1.6-0.9-2.3-1.5
			c-1.4-1.3,0.4-2.4,1.6-2.6c1.8-0.2,3.6,0.3,5.3-0.1c0.3,0,0.3-0.4,0.1-0.6c-1.3-1.3-2.5-2.6-2.9-4.4c-0.4-1.7,1.5-2.2,2.8-2.3
			C76.5,98.1,79.7,100.1,82.1,102.2C82.1,102.3,82.2,102.2,82.1,102.2z"/>
	</g>
	<g>
		<path class="st21" d="M104.6,143.5c0.9,0.7,3.8-2.3,3.1-3.3c0.3,0.4-1.5,1-1.7,1.1c-0.9,0.2-1.8,0.1-2.5-0.5c-1-1-1-2.8-1-4.1
			c0-1.4,0-2.6-0.3-4c-0.3-1.5-0.9-2.8-1.7-4.1c-1.5-2.7-3.9-4.8-6.6-6.2c-1.3-0.7-2.8-1.3-4.3-1.5c-0.8-0.1-1.5-0.1-2.3,0
			c-0.5,0.1-1,0.3-1.5,0.4c-4.6,1.2-8.8,4.2-10.8,8.6c-0.6,1.3-1,2.7-1.1,4.1c-0.2,1.7,0.1,3.2,0.8,4.7c0.8,1.5,1.8,2.9,2.8,4.3
			c1,1.5,2.1,3.2,1.7,5c-0.2,0.8-0.7,1.4-1.5,1.4c-0.9,0-1.5-0.7-1.8-1.4c0,0,0,0-0.1,0c0,0,0.1-0.1,0.1-0.1c0-0.1-0.1-0.1-0.1-0.1
			c-1.2,1.4-2.2,3.5-0.4,4.9c0.5,0.4,1,0.5,1.6,0.4c-2.6,1.6-5.1,3.7-4.8,6.9c0.2,1.8,1.4,3.2,3,4c0.8,0.4,1.7,0.6,2.6,0.7
			c0.5,0.1,1,0,1.5,0.1c0.6,0.1,1.1,0.5,1.4,1c-0.1,0.6-0.5,1.2-1,1.6c-0.9,0.9-2.4,0.9-3.5,1.3c0.6,0,1.3-0.1,1.9,0
			c0.7,0.1,1.3,0.6,1.9,1c1.1,0.6,2.1,0.6,3.2,0.1c0.9-0.4,1.8-0.9,2.3-1.7c0,0,0-0.1,0.1-0.1c0.1,0.5,0.4,1,0.6,1.5
			c0.6,1,1.6,1.5,2.7,1.9c1.2,0.4,2.7,0.5,4,0.4c0.7-0.1,1.3-0.3,2-0.6c0.6-0.3,1.4-0.6,1.9-1.1c0.8,0.4,1.8,0.5,2.8,0.4
			c0.9-0.1,1.8-0.4,2.6-0.9c0.8-0.5,1.3-1.5,1.6-2.4c0.5-0.3,0.9-0.7,1.2-1.1c0.6-0.8,1-1.8,1-2.9c0-0.8-0.5-1.6-0.6-2.4
			c-0.4,1-1.4,1.8-2.5,2.1c-1.3,0.4-3,0.1-4.1-0.8c-1.1-0.9-0.3-2.3,0.5-3.1c1.1-1,2.6-1.3,4-1.9c1.2-0.4,2.3-1,3.1-2
			c0.9-1.2,1.3-2.6,1.4-4.1C108.1,148,106.9,145.3,104.6,143.5z"/>
		<path class="st22" d="M104.6,143.5c0.9,0.7,3.8-2.3,3.1-3.3c0.1,0.2-0.2,0.4-0.5,0.6c-0.6,0.6-1.2,1.2-2,1.5
			c-1.5,0.6-3.2,0.2-4.3-1c-0.8-0.9-1-2.1-1-3.4c-0.6,1.1-1.1,2.4-0.8,3.6c0.5,1.9,1.9,2.6,3.4,3.7c1.8,1.3,2.6,4.1,2.1,6.3
			c-0.6,2.6-2.9,4.2-5.4,4.7c-1.7,0.4-3.4,0.7-4.1,2.5c-0.4,0.8-0.7,2.2-0.3,3.1c0.3,0.3,0.7,0.7,1.1,0.9c0.4,0.3-6.4-2-4.6-8.2
			c-3.8,3.6-2.8,7.7,0.4,9.3c0.6,0.3,0.8,0.3,0.3,0.2c-1.8-0.3-3.7-0.9-4.9-2.4c-1-1.3-0.9-3.2-0.2-4.7c1.1-2.4,3.4-4.6,2.6-7.5
			c-0.2-0.8-0.6-1.5-1-2.2c0.2,0.4,0.3,0.8,0.4,1.3c0.4,2.2-0.6,4.2-2.2,5.7c-1,0.9-2,1.8-2.9,2.7c-1.2,1.3-1.5,2.2-0.6,3.7
			c0.5,0.9,1.3,1.9,1.3,3c0,1.1-0.5,1.9-1.1,2.7c-0.3,0.4-1,0.3-1-0.3c0.2-3-2.1-4-4.3-5.4c-0.8-0.5-1.4-1.1-1.6-1.8
			c-0.5,1.1-0.4,2.3,0.7,3.1c0,0,0.1,0.1,0.1,0.1c0.5,0.4-3.8-1-4.2-2.8c-0.4-1.6,0.6-3.3,1.8-4.3c1.6-1.3,3.9-1.5,5.1-3.3
			c0.5-0.7,0.8-1.5,1-2.4c-0.6,0.8-1.5,1.4-2.8,1.6c-1,0.1-2.7-0.1-2.9-1.4c-0.1-0.4-0.1-0.7,0-1.1c-0.8,1.3-1.2,2.9,0.2,4
			c0.5,0.4,1,0.5,1.6,0.4c-2.6,1.6-5.1,3.7-4.8,6.9c0.2,1.8,1.4,3.2,3,4c0.8,0.4,1.7,0.6,2.6,0.7c0.5,0.1,1,0,1.5,0.1
			c0.6,0.1,1.1,0.5,1.4,1c-0.1,0.6-0.5,1.2-1,1.6c-0.9,0.9-2.4,0.9-3.5,1.3c0.6,0,1.3-0.1,1.9,0c0.7,0.1,1.3,0.6,1.9,1
			c1.1,0.6,2.1,0.6,3.2,0.1c0.9-0.4,1.8-0.9,2.3-1.7c0,0,0-0.1,0.1-0.1c0.1,0.5,0.4,1,0.6,1.5c0.6,1,1.6,1.5,2.7,1.9
			c1.2,0.4,2.7,0.5,4,0.4c0.7-0.1,1.3-0.3,2-0.6c0.6-0.3,1.4-0.6,1.9-1.1c0.8,0.4,1.8,0.5,2.8,0.4c0.9-0.1,1.8-0.4,2.6-0.9
			c0.8-0.5,1.3-1.5,1.6-2.4c0.5-0.3,0.9-0.7,1.2-1.1c0.6-0.8,1-1.8,1-2.9c0-0.8-0.5-1.6-0.6-2.4c-0.4,1-1.4,1.8-2.5,2.1
			c-1.3,0.4-3,0.1-4.1-0.8c-1.1-0.9-0.3-2.3,0.5-3.1c1.1-1,2.6-1.3,4-1.9c1.2-0.4,2.3-1,3.1-2c0.9-1.2,1.3-2.6,1.4-4.1
			C108.1,148,106.9,145.3,104.6,143.5z"/>
		<path class="st29" d="M85,124.9c0,0,1.3-1.6,1.3-1.6c-0.2,0.2-1.9,1.9-2.1,1.7c-2.4,2.1-4.5,6-4.4,9.2c0.2,3.1,1.6,5.5,3.7,7.7
			c3,3,7.4,2,8.4,8.6c0.3-1.4,0.3-2.8-0.2-4.2c-0.7-2-2-3.6-3.3-5.2c-0.3-0.4,0-1,0.5-0.9c2.7,0.9,4.9,3.3,5.9,5.9
			c0.9,2.5,0.3,4.9-0.7,7.2c1.5-1.2,2.7-2.9,3.2-4.8c0.7-2.7-0.3-5-2-7.2c-1.3-1.7-2.7-3.4-3.2-5.5c-0.3-1.7-0.2-3.3,0-5
			c-2,1.5-2.5,4.3-2.8,6.7c-0.1,0.4-0.5,0.7-0.9,0.4c-2-1.8-2.3-4-2.3-6.4c-1,1.4-1.3,3.2-1.3,5c0,0.4-0.6,0.7-0.9,0.4
			c-1.6-1.8-2-4.4-1.6-6.7C82.7,128.1,83.7,126.5,85,124.9z"/>
		<path class="st24" d="M104.6,143.5c0.9,0.7,3.8-2.3,3.1-3.3c0.3,0.4-1.5,1-1.7,1.1c-0.9,0.2-1.8,0.1-2.5-0.5c-1-1-1-2.8-1-4.1
			c0-1.4,0-2.6-0.3-4c-0.3-1.5-0.9-2.8-1.7-4.1c-1.5-2.7-3.9-4.8-6.6-6.2c-1.3-0.7-2.8-1.3-4.3-1.5c-0.8-0.1-1.5-0.1-2.3,0
			c-0.5,0.1-1,0.3-1.5,0.4c-4.6,1.2-8.8,4.2-10.8,8.6c-0.6,1.3-1,2.7-1.1,4.1c-0.2,1.7,0.1,3.2,0.8,4.7c0.8,1.5,1.8,2.9,2.8,4.3
			c1,1.5,2.1,3.2,1.7,5c-0.2,0.8-0.7,1.4-1.5,1.4c-0.9,0-1.5-0.7-1.8-1.4c0,0,0,0-0.1,0c0,0,0.1-0.1,0.1-0.1c0-0.1-0.1-0.1-0.1-0.1
			c-1.2,1.4-2.2,3.5-0.4,4.9c0.5,0.4,1,0.5,1.6,0.4c-2.6,1.6-5.1,3.7-4.8,6.9c0.2,1.8,1.4,3.2,3,4c0.8,0.4,1.7,0.6,2.6,0.7
			c0.5,0.1,1,0,1.5,0.1c0.6,0.1,1.1,0.5,1.4,1c-0.1,0.6-0.5,1.2-1,1.6c-0.9,0.9-2.4,0.9-3.5,1.3c0.6,0,1.3-0.1,1.9,0
			c0.7,0.1,1.3,0.6,1.9,1c1.1,0.6,2.1,0.6,3.2,0.1c0.9-0.4,1.8-0.9,2.3-1.7c0,0,0-0.1,0.1-0.1c0.1,0.5,0.4,1,0.6,1.5
			c0.6,1,1.6,1.5,2.7,1.9c1.2,0.4,2.7,0.5,4,0.4c0.7-0.1,1.3-0.3,2-0.6c0.6-0.3,1.4-0.6,1.9-1.1c0.8,0.4,1.8,0.5,2.8,0.4
			c0.9-0.1,1.8-0.4,2.6-0.9c0.8-0.5,1.3-1.5,1.6-2.4c0.5-0.3,0.9-0.7,1.2-1.1c0.6-0.8,1-1.8,1-2.9c0-0.8-0.5-1.6-0.6-2.4
			c-0.4,1-1.4,1.8-2.5,2.1c-1.3,0.4-3,0.1-4.1-0.8c-1.1-0.9-0.3-2.3,0.5-3.1c1.1-1,2.6-1.3,4-1.9c1.2-0.4,2.3-1,3.1-2
			c0.9-1.2,1.3-2.6,1.4-4.1C108.1,148,106.9,145.3,104.6,143.5z M107.2,152.5c-0.4,1.6-1.4,2.9-2.9,3.7c-1.3,0.6-2.6,1-3.9,1.6
			c-1.8,0.9-3.7,3.2-1.5,4.7c1.7,1.1,4.7,1.2,6-0.6c0.2-0.3,0.3-0.5,0.4-0.8c0.3,0.6,0.5,1.3,0.4,2.1c-0.1,0.7-0.4,1.4-0.7,2.1
			c-0.4,0.7-1,1.3-1.7,1.6c-1.1,0.4-2.5-0.3-3.3-1c0,0,0,0,0,0c0.8,0.8,1.8,1.5,3,1.4c0.2,0,0.4-0.1,0.5-0.1
			c-0.4,0.7-0.7,1.4-1.5,1.9c-0.6,0.4-1.4,0.6-2.1,0.8c-1.5,0.3-3.4,0-4.4-1.4c0,0-0.1,0-0.1,0c0.3,0.5,0.7,0.9,1.1,1.2
			c-1,0.5-1.9,1.1-3.1,1.3c-1.2,0.3-2.5,0.2-3.8-0.1c-1-0.2-1.9-0.6-2.6-1.4c-0.5-0.6-1.1-1.4-1.1-2.2c0.2-0.7,0.2-1.5,0.2-2.1
			c0-0.2-0.2-0.2-0.2,0c-0.1,0.8,0,1.7-0.5,2.5c-0.5,0.8-1.8,1.4-2.7,1.7c-1.2,0.4-2.3-0.3-3.3-0.8c-0.2-0.1-0.4-0.2-0.6-0.3
			c1.2-0.3,2.3-1.4,2.4-2.6c0.2-2.1-1.4-3.2-3.1-3.9c0,0-0.1,0,0,0.1c0.6,0.3,1.3,0.6,1.8,1c0.6,0.6,0.9,1.5,1,2.3
			c0,0.1,0,0.1,0,0.2c-0.4-0.5-0.8-0.9-1.5-1.1c-0.8-0.2-1.7-0.1-2.6-0.4c-1.8-0.5-3.4-1.7-3.9-3.6c-1-3.8,2.7-5.8,5.4-7.7
			c0.7-0.3,1.4-0.8,1.9-1.3c0.1-0.1,0-0.2-0.1-0.2c-1.1,0.7-2.4,1.7-3.8,1.3c-1-0.3-1.3-1.4-1.2-2.3c0.1-0.7,0.4-1.4,0.8-2
			c0.3,0.9,1.1,1.7,2.1,1.7c1.1,0,1.7-1.1,1.9-2c0.3-1.5-0.6-3.1-1.3-4.3c-0.9-1.4-1.9-2.8-2.8-4.3c-1-1.7-1.4-3.4-1.2-5.3
			c0.2-1.5,0.7-3,1.3-4.4c1.3-2.6,3.5-4.7,6-6.1c1.6-0.9,3.4-1.6,5.2-2c0.1,0,0.2,0,0.3-0.1c0.9-0.2,1.9-0.1,2.8,0.1
			c1.7,0.3,3.3,1,4.7,1.9c2.9,1.8,5.1,4.4,6.4,7.6c0.6,1.4,0.9,2.8,0.9,4.3c0,1.4-0.1,2.8,0.2,4.2c0.3,1.1,0.9,2.1,2.1,2.4
			c0.9,0.3,2,0,2.8-0.5c-0.2,0.4-0.4,0.7-0.7,1c-0.6,0.5-1.3,0.8-2.1,1c-1.3,0.3-3.5,0-3.6-1.7c0,0,0,0,0,0
			c-0.2,1.5,1.9,2.3,3.1,2.2c0.1,0,0.3,0,0.4-0.1c1.2,1.1,2.2,2.4,2.8,4C107.6,149.1,107.6,150.9,107.2,152.5z"/>
		<path class="st24" d="M84.5,141.7c-0.6-0.6-1.2-1.1-1.7-1.8c-0.5-0.6-0.8-1.4-1-2.1c-0.5-1.3-0.7-2.8-0.7-4.2c0-3,1.2-5.9,3.3-8.1
			c0,0,0-0.1-0.1-0.1c-4.5,4-5.2,12.6,0.1,16.4C84.5,141.9,84.6,141.8,84.5,141.7z"/>
		<path class="st24" d="M94.5,142.4C94.5,142.4,94.5,142.5,94.5,142.4c0.7,0.8,1.4,1.7,1.9,2.8c0.5,1.1,0.3,2.2,0,3.3
			c0,0.1,0.1,0.2,0.2,0.1C97.9,146.3,96.3,143.9,94.5,142.4z"/>
		<path class="st24" d="M86.9,163.3c-1.2-0.3-2.2-0.8-2.7-2.1c-0.3-0.7-0.2-1.4,0-2c0.4-1.3,1.6-2.4,2.6-3.4c1.8-1.8,4-4.1,2.5-6.8
			c0,0-0.1,0-0.1,0c1.7,3.2-1.9,5.5-3.8,7.5c-0.9,1-1.7,2.1-1.8,3.5c-0.1,1.9,1.5,3.1,3.3,3.3C87,163.4,87,163.3,86.9,163.3z"/>
		<path class="st24" d="M91.7,160.9c-0.6-0.6-1.3-1.1-1.5-2c-0.3-0.9,0.1-1.9,0.5-2.7c0-0.1,0-0.1-0.1,0c-0.5,0.8-0.8,1.7-0.7,2.7
			c0.1,0.9,0.9,1.8,1.7,2.2C91.6,161,91.7,160.9,91.7,160.9z"/>
		<g>
			<path class="st26" d="M82.2,141.5C82.1,141.5,82.1,141.5,82.2,141.5c1.1,1.4,2.6,2.5,3.8,3.9c1.5,1.8,1.5,4.3,0.3,6.2
				c-0.9,1.5-2.5,2.5-3.6,3.8c-0.4,0.5-1,1.1-1.2,1.8c-0.4,1.1,0,1.9,0.4,3c0.1,0.2,0.4,0.2,0.3,0c-0.1-0.5-0.1-1.1-0.2-1.6
				c0-0.8,0.5-1.6,1-2.2c0.6-0.7,1.3-1.4,1.9-2c1.2-1.1,2.3-2.3,2.8-4C89,145.9,84.7,144,82.2,141.5z"/>
			<path class="st26" d="M81.3,150.6c-0.9,2.4-4.3,3.4-6.2,4.9c-1.6,1.2-2.9,3.2-1.1,4.8c0.1,0.1,0.2,0,0.2-0.1
				c-1.9-4.8,6.1-5.7,7.2-9.6C81.4,150.5,81.3,150.5,81.3,150.6z"/>
			<path class="st26" d="M91.2,149C91.2,148.9,91.1,149,91.2,149c0.8,2.4-1.3,5.7-2.2,7.8c-0.6,1.5-1.5,3.8,0.1,4.9
				c0.1,0,0.1,0,0.1-0.1c-1.7-2,0.4-5,1.3-6.9C91.3,153,92.2,150.8,91.2,149z"/>
			<path class="st26" d="M92.7,143.7c-0.1-0.1-0.2,0-0.1,0.1c2.1,2.8,1.8,6.4,0.7,9.5c0,0.1,0.2,0.2,0.2,0.1
				C95.1,150.4,95.1,146.3,92.7,143.7z"/>
			<path class="st26" d="M102.7,146.1c-1-1-2.3-1.7-3.3-2.7c-1.5-1.5-0.7-3.8-0.3-5.5c0-0.1-0.2-0.2-0.2-0.1
				c-0.4,1.2-0.9,2.5-0.9,3.8c0,1.3,0.8,2.3,1.7,3.2c2,1.8,5.4,4,3,7c-2.5,3.1-9.4,3.5-8.2,8.7c0,0.1,0.2,0.1,0.2,0
				c-0.1-1.7,0.4-3,1.9-3.9c0.9-0.5,1.9-0.9,2.8-1.4c1.7-0.9,3.6-1.9,4.6-3.7C105,149.6,104,147.5,102.7,146.1z"/>
			<path class="st26" d="M104.5,141.8c-2.1-0.2-2.4-2.9-2.4-4.7c0-2-0.2-4.1-0.8-6c-1.1-3.7-4.2-6.7-7.5-8.6c-3-1.7-6.4-1.8-9.4,0
				c-0.6,0.4-1.2,0.8-1.7,1.3c0,0-0.1,0-0.1,0c-4.6,2.4-7.8,7.1-6.7,12.4c0.6,3,2.9,5.2,3.9,8.1c0.4,1.2,0.5,2.4,0.2,3.6
				c-0.2,0.7-0.7,1.2-1.3,1.6c-1.1,0.6-2,0.1-2.6-0.9c-0.1-0.1-0.2,0-0.2,0.1c0.8,2,2.8,2.1,4.3,0.6c1.5-1.5,1-4.5,0.2-6.2
				c-0.6-1.5-1.5-2.8-2.3-4.2c-1.1-2-1.6-4.2-1.2-6.4c0.5-3,2.6-5.5,4.8-7.5c-1.3,1.5-2.4,3.4-2.9,5.3c0,0.1,0.1,0.1,0.2,0.1
				c0.5-0.9,1.1-1.7,1.7-2.6c1.8-2,3.6-4.5,6.3-5c-2.1,2.4-3.5,4.9-3.7,8.3c0,0.6-0.2,2,0.5,2.2c0.5,0.2,1.1-0.6,1.4-1
				c1.2-1.6,1.9-3.6,3.4-5.1c0.6-0.6,0.5,0.1,0.4,0.6c-0.1,0.6-0.3,1.1-0.5,1.7c-0.4,1.3-0.2,2.7,0.3,3.9c0.1,0.3,0.4,0.2,0.6,0
				c1.1-1.4,1.6-3.3,2.4-4.9c0.2-0.5,1.1-2.4,1.4-1.1c0.3,1.2,0.3,2.7,0.5,3.9c0.2,1.3,1.3,5,3.3,3.5c0.7-0.6,1.1-1.8,1.3-2.7
				c0.3-1.3,0-2.7-0.3-4c1.7,1.6,2.4,3.7,3,6c0.1,0.2,0.3,0.2,0.4,0c0.1,0.6,0.1,1.1,0.2,1.7c0.1,2.3-0.4,5.5,2.3,6.5
				C103.6,142.4,107.2,142.1,104.5,141.8z"/>
		</g>
		<path class="st27" d="M81.6,124.8c-2.4,1.6-4.1,3.6-4.9,6.4c-0.8,2.9-0.3,6.1,1.4,8.5c0.1,0.1,0.2,0,0.2-0.1
			c-0.7-1.4-1.3-2.6-1.4-4.3c-0.1-1.3,0.1-2.7,0.5-4c0.7-2.6,2.3-4.8,4.4-6.5C81.7,124.9,81.7,124.8,81.6,124.8z"/>
		<path class="st27" d="M85.8,125.1c-1.6,2.4-2.4,4.5-2.3,7.4c0,0.1,0.1,0.1,0.1,0c0-2.6,1.2-5,2.3-7.3
			C86,125.1,85.8,125,85.8,125.1z"/>
		<path class="st27" d="M89.2,126.2C89.2,126.2,89.1,126.1,89.2,126.2c-0.7,1.7-1.5,3.7-0.9,5.5c0.1,0.2,0.3,0.1,0.3-0.1
			C88.2,129.8,88.6,128,89.2,126.2z"/>
		<path class="st27" d="M96.6,127.8c-0.1-0.1-0.2,0-0.2,0.1c0.7,1.5,0.4,3,0.4,4.6c0,0.1,0.2,0.1,0.2,0
			C97.5,131.1,97.5,129.2,96.6,127.8z"/>
		<path class="st27" d="M102.5,140.7c-0.8-1.8-0.5-3.9-0.6-5.8c-0.1-1.7-0.5-3.3-1.1-4.9c-1.1-2.8-3.3-5.3-6.1-6.2
			c-0.1,0-0.1,0.1-0.1,0.1c3.3,1.8,5.2,4.4,6.1,8c0.4,1.6,0.7,3.2,0.8,4.9C101.6,138.1,101.5,139.6,102.5,140.7
			C102.5,140.8,102.6,140.7,102.5,140.7z"/>
		<path class="st27" d="M83.1,161.2c-0.8-1.5-0.2-2.8,0.6-4.1c1.8-2.7,5-4.8,4.2-8.4c0,0-0.1,0-0.1,0c0.4,3.5-3.1,5.8-4.9,8.5
			c-0.6,0.9-1.2,2.3-0.6,3.4c0.4,0.9,1.1,1.6,1.5,2.5c0.5,1.3-0.4,2.3-1.2,3.2c-0.1,0.1,0,0.2,0.2,0.2c0.9-0.9,1.6-1.8,1.3-3.1
			C84,162.6,83.5,161.9,83.1,161.2z"/>
		<path class="st27" d="M80,144.6c-0.1-0.1-0.3,0-0.2,0.1c0.6,1.2,1.2,2.6,0.6,3.9c-0.7,1.7-3.3,2.1-4.3,0.6c0,0-0.1,0-0.1,0
			c0.9,1.8,3,1.5,4.3,0.3C81.7,148.2,80.8,145.9,80,144.6z"/>
		<path class="st27" d="M90.8,152C90.8,152,90.8,152,90.8,152c0.7,2.3-2.3,4.1-2.7,6.1c0,0.1,0.1,0.1,0.1,0
			C89.1,156.3,91.8,154.3,90.8,152z"/>
		<path class="st27" d="M102.9,146.1C102.8,146,102.8,146.1,102.9,146.1c1.3,1.7,1.3,3.8,0.3,5.7c-0.9,1.5-2.7,2.3-4.2,3
			c-2.4,1.1-5.6,3.4-4.4,6.5c0,0.1,0.2,0.1,0.2,0c-0.4-5,4.6-5.4,7.7-7.9C104.7,151.5,104.9,148.2,102.9,146.1z"/>
		<path class="st27" d="M77.1,155c-2.5,1.1-4.5,4.5-1.9,6.6c0.1,0,0.2,0,0.1-0.1c-1.6-2.7-0.1-4.6,2-6.3
			C77.3,155.1,77.2,155,77.1,155z"/>
	</g>
</g>
</svg>
