<?xml version="1.0" encoding="UTF-8" standalone="no"?>
<!-- Created with Inkscape (http://www.inkscape.org/) -->

<svg
   width="105.76375mm"
   height="200.7081mm"
   viewBox="0 0 105.76375 200.7081"
   version="1.1"
   id="svg2518"
   inkscape:version="1.1.2 (b8e25be833, 2022-02-05)"
   sodipodi:docname="turtle.svg"
   xmlns:inkscape="http://www.inkscape.org/namespaces/inkscape"
   xmlns:sodipodi="http://sodipodi.sourceforge.net/DTD/sodipodi-0.dtd"
   xmlns="http://www.w3.org/2000/svg"
   xmlns:svg="http://www.w3.org/2000/svg">
  <sodipodi:namedview
     id="namedview2520"
     pagecolor="#ffffff"
     bordercolor="#666666"
     borderopacity="1.0"
     inkscape:pageshadow="2"
     inkscape:pageopacity="0.0"
     inkscape:pagecheckerboard="0"
     inkscape:document-units="mm"
     showgrid="false"
     inkscape:zoom="0.46235269"
     inkscape:cx="241.15789"
     inkscape:cy="103.81685"
     inkscape:window-width="1366"
     inkscape:window-height="705"
     inkscape:window-x="-8"
     inkscape:window-y="-8"
     inkscape:window-maximized="1"
     inkscape:current-layer="layer1" />
  <defs
     id="defs2515" />
  <g
     inkscape:label="Στρώση 1"
     inkscape:groupmode="layer"
     id="layer1"
     transform="translate(-40.967831,-121.10838)">
    <g
       id="g2444"
       transform="rotate(-90,92.585742,-4.4488977)">
      <path
         style="fill:#6e9930;fill-opacity:1;fill-rule:nonzero;stroke:none;stroke-width:0.352778"
         d="m -176.01486,5.9833706 c 0,0 6.79924,9.9880354 -3.77582,20.3343374 -10.57507,10.347677 -37.11746,5.852512 -47.65394,-1.358759 -10.53786,-7.209896 -6.5512,-8.910391 3.29351,-9.412006 14.40877,-0.733104 27.30445,-8.9641254 25.36004,-15.29896656 -1.94304,-6.34035514 22.77621,5.73539416 22.77621,5.73539416"
         id="path1148" />
      <path
         style="fill:#5c821e;fill-opacity:1;fill-rule:nonzero;stroke:none;stroke-width:0.352778"
         d="m -179.79068,26.317708 c -10.57645,10.347677 -37.11608,5.852512 -47.65119,-1.358759 -6.00824,-4.109297 -7.29671,-6.427153 -5.47219,-7.752821 0.99908,1.117565 2.63481,2.461154 5.01331,4.088624 10.53648,7.207144 37.07474,11.705061 47.65256,1.357383 4.62883,-4.525504 5.9297,-8.984823 5.9297,-12.569099 0.96738,3.866773 0.91639,9.986624 -5.47219,16.234672"
         id="path1150" />
      <path
         style="fill:#6e9930;fill-opacity:1;fill-rule:nonzero;stroke:none;stroke-width:0.352778"
         d="m -97.943482,-6.2536087 c 0,0 13.710102,4.1837258 11.618239,21.6104047 -2.091859,17.428034 -29.975087,32.998481 -45.079757,34.160178 -15.1033,1.160322 -12.68209,-3.376189 -3.94946,-11.155221 12.77992,-11.383963 18.58835,-28.5818868 12.08263,-32.9957436 -6.50571,-4.41661196 25.328348,-11.6196181 25.328348,-11.6196181"
         id="path1152" />
      <path
         style="fill:#5c821e;fill-opacity:1;fill-rule:nonzero;stroke:none;stroke-width:0.352778"
         d="m -86.323863,15.360924 c -2.093239,17.423906 -29.976467,32.994353 -45.081137,34.15605 -9.22046,0.708307 -11.91039,-0.705555 -10.61779,-3.687621 1.73633,0.257704 4.16994,0.268711 7.40971,0.01799 15.10606,-1.156194 42.987905,-16.728016 45.081144,-34.156068 0.797884,-6.6421457 -0.700046,-11.36192431 -2.867699,-14.6568159 3.527778,3.05786725 7.236079,8.6499489 6.075772,18.3265339"
         id="path1154" />
      <path
         style="fill:#abb317;fill-opacity:1;fill-rule:nonzero;stroke:none;stroke-width:0.352778"
         d="m -99.426252,2.4307889 c -0.650438,0.3775816 -1.320158,0.7482735 -2.007798,1.1148343 -1.41525,0.7482734 -2.90491,1.4676085 -4.4676,2.145605 -0.50436,0.2259965 -1.017,0.4409722 -1.53927,0.6559444 -1.84795,0.7551667 -3.79098,1.4634775 -5.82084,2.127691 -0.6835,0.2218655 -1.37941,0.4368377 -2.08497,0.6490582 -0.24253,0.073036 -0.49058,0.147447 -0.73725,0.2149722 -0.67937,0.2011927 -1.37114,0.3913646 -2.06705,0.5718846 -0.18328,0.055122 -0.36656,0.1047324 -0.55535,0.1474504 -0.18742,0.04961 -0.3707,0.09508 -0.55949,0.14883 -0.37482,0.09508 -0.75103,0.186034 -1.13137,0.278363 -1.03077,0.250804 -2.08084,0.490583 -3.14881,0.719335 -0.53055,0.113002 -1.06798,0.221865 -1.60817,0.327974 -0.54571,0.106108 -1.09141,0.212217 -1.63573,0.314194 -0.52228,0.09508 -1.05007,0.187414 -1.57648,0.278363 -0.051,0.0069 -0.0965,0.01379 -0.14745,0.02205 -0.48921,0.08406 -0.9853,0.16123 -1.48415,0.239779 -0.41755,0.06339 -0.83922,0.126778 -1.2609,0.186034 -0.42168,0.06339 -0.84336,0.124023 -1.26918,0.180524 -0.21084,0.03168 -0.42581,0.05926 -0.64216,0.0813 -0.84198,0.115754 -1.69086,0.214972 -2.54662,0.305922 -0.42719,0.05375 -0.85714,0.09922 -1.28846,0.137806 -0.29352,0.02893 -0.58705,0.0565 -0.88057,0.08544 -0.83371,0.0813 -1.67707,0.15434 -2.5287,0.214972 -0.5457,0.04548 -1.09967,0.08131 -1.64951,0.119892 -0.50436,0.03168 -1.00872,0.0565 -1.51309,0.08406 -0.64079,0.03996 -1.2926,0.07166 -1.94303,0.09233 -0.31144,0.01379 -0.62839,0.02755 -0.94396,0.03858 -0.2756,0.0069 -0.55397,0.01792 -0.83371,0.0248 -0.27974,0.01101 -0.55948,0.01792 -0.83923,0.0248 -0.52227,0.01379 -1.04041,0.02067 -1.55304,0.03168 -0.51815,0.0069 -1.02664,0.01379 -1.54065,0.01792 -1.59852,0.01379 -3.16673,0.0096 -4.70187,-0.01379 -0.42168,-0.0041 -0.84336,-0.01517 -1.26503,-0.02205 -1.38769,-0.03168 -2.74506,-0.07717 -4.07762,-0.137806 -0.76206,-0.03858 -1.51309,-0.07717 -2.25585,-0.119888 -0.12816,-0.0028 -0.25631,-0.01379 -0.38034,-0.02067 -0.43959,-0.02893 -0.87505,-0.0565 -1.305,-0.08406 -0.33073,-0.02205 -0.65595,-0.04685 -0.98116,-0.07441 -1.65503,-0.124027 -3.25906,-0.268718 -4.82176,-0.438217 -1.30087,-0.144696 -2.57555,-0.299036 -3.81303,-0.472666 -0.2701,-0.03859 -0.54019,-0.07304 -0.81029,-0.115757 -0.86678,-0.124023 -1.71841,-0.254939 -2.5535,-0.391361 -0.76481,-0.130916 -1.52136,-0.261828 -2.25861,-0.406524 -15.34859,-2.8676951 -24.82122,-8.060143 -27.91905,-13.4152004 -0.52641,-0.9136415 -0.87092,-1.8314141 -1.02664,-2.7422969 -0.0413,-0.2149722 -0.0689,-0.4368377 -0.0827,-0.6518134 -0.0772,-1.0445503 0.21635,-2.4446371 0.84749,-4.1203316 0.0372,-0.088194 0.0744,-0.1874132 0.11024,-0.2824974 1.51722,-3.8309483 4.7625,-9.0096163 9.4313,-14.5162553 1.10518,-1.309137 2.29168,-2.629299 3.55258,-3.959105 0.62839,-0.658703 1.27331,-1.322917 1.94303,-1.985751 8.05602,-8.025694 18.78956,-15.994892 31.32833,-20.972364 0.72898,-0.293521 1.46209,-0.571888 2.20348,-0.840606 1.04042,-0.380336 2.09048,-0.737249 3.15295,-1.072113 0.89021,-0.282497 1.78869,-0.542946 2.69131,-0.789615 0.8282,-0.230131 1.66742,-0.440972 2.51078,-0.63941 1.531,-0.355533 3.07992,-0.669727 4.64675,-0.927421 0.75654,-0.122643 1.52135,-0.232886 2.28754,-0.32797 1.64951,-0.214976 3.31694,-0.366561 5.00917,-0.454755 13.02384,-0.673859 24.24796,2.711979 33.1432,7.810722 0.71382,0.409279 1.41111,0.825443 2.09324,1.255391 1.36563,0.857141 2.67753,1.759755 3.91914,2.684421 0.11851,0.09233 0.24253,0.183278 0.36242,0.275607 1.222322,0.927418 2.386764,1.879643 3.482305,2.860806 0.508497,0.451996 1.003211,0.906751 1.485526,1.368393 1.153417,1.101051 2.226909,2.22002 3.206693,3.341744 0.610472,0.683507 1.178225,1.371145 1.719792,2.053276 3.628376,4.60678 5.815323,9.157063 6.355514,12.741342 1.389062,9.194271 -4.486892,17.6540444 -15.425762,24.0205827"
         id="path1156" />
      <path
         style="fill:#6e9930;fill-opacity:1;fill-rule:nonzero;stroke:none;stroke-width:0.352778"
         d="m -197.39788,-9.9729342 c 0,0 -12.08264,8.3688273 -27.41882,4.6495017 -6.58978,-1.5971449 -6.10196,1.9085843 -1.74322,5.4156893 5.78638,4.6536363 18.39543,9.3100279 30.32373,2.0215825 20.91449,-12.7813043 -1.16169,-12.0867735 -1.16169,-12.0867735"
         id="path1158" />
      <path
         style="fill:#5c821e;fill-opacity:1;fill-rule:nonzero;stroke:none;stroke-width:0.352778"
         d="m -196.23757,2.1097047 c -19.28978,11.7932523 -40.36136,-7.6577578 -31.47577,-7.8313915 3.42856,5.02432815 18.62556,13.3173612 32.84967,4.6246979 3.85989,-2.3564462 6.2563,-4.2581371 7.59437,-5.7850052 0.34313,1.7845617 -1.75562,4.5888663 -8.96827,8.9916988"
         id="path1160" />
      <path
         style="fill:#6e9930;fill-opacity:1;fill-rule:nonzero;stroke:none;stroke-width:0.352778"
         d="m -34.060386,-21.232885 c -0.957738,2.856675 -2.603115,5.612751 -5.119412,8.039478 -7.754221,7.4896378 -23.761513,11.9131395 -53.418275,6.9397983 l 0.69729,-16.2636063 c 0,0 13.010057,4.646743 20.911729,-8.134558 9.326562,-15.088143 18.125338,-22.772084 29.976466,-15.106057 5.430848,3.516753 10.274653,14.658192 6.952202,24.524945"
         id="path1162" />
      <path
         style="fill:#5c821c;fill-opacity:1;fill-rule:nonzero;stroke:none;stroke-width:0.352778"
         d="m -33.130209,-25.37113 c -0.1695,1.386303 -0.47267,2.776745 -0.930177,4.138245 -0.957738,2.856675 -2.603115,5.612751 -5.119412,8.039478 -7.754221,7.4896378 -23.761513,11.9131395 -53.418275,6.9397983 l 0.175013,-4.0996623 c 29.678807,4.1410043 45.938282,-0.230135 53.966732,-7.444162 2.553504,-2.295814 4.271916,-4.885146 5.326119,-7.573697"
         id="path1164" />
      <path
         style="fill:#3d5c14;fill-opacity:1;fill-rule:nonzero;stroke:none;stroke-width:0.352778"
         d="m -49.950545,-22.834164 c -5.246193,0 -9.51811,-4.269162 -9.522244,-9.515352 -0.0028,-2.542484 0.985297,-4.938889 2.782259,-6.73723 1.796962,-1.799717 4.187857,-2.794663 6.731716,-2.794663 5.255839,0 9.527756,4.26503 9.53189,9.51122 0.0028,2.546615 -0.985298,4.938889 -2.782259,6.738606 -1.796962,1.798341 -4.187857,2.793284 -6.731717,2.797419 h -0.0096"
         id="path1166" />
      <path
         style="fill:#59821c;fill-opacity:1;fill-rule:nonzero;stroke:none;stroke-width:0.352778"
         d="m -49.950545,-24.669709 c -5.246193,0 -9.51811,-4.267786 -9.522244,-9.513976 -0.0028,-2.54386 0.985297,-4.934755 2.782259,-6.73861 1.796962,-1.798337 4.187857,-2.789149 6.731716,-2.79328 5.255839,0 9.527756,4.269161 9.53189,9.513976 0.0028,2.543856 -0.985298,4.93613 -2.782259,6.734471 -1.796962,1.802472 -4.187857,2.79466 -6.731717,2.797419 h -0.0096"
         id="path1168" />
      <path
         style="fill:#faf3d9;fill-opacity:1;fill-rule:nonzero;stroke:none;stroke-width:0.352778"
         d="m -41.647867,-34.201599 c 0.0041,4.586111 -3.709677,8.305433 -8.294408,8.312326 -4.584736,0.0028 -8.305437,-3.71106 -8.309572,-8.294412 -0.0041,-4.586111 3.709677,-8.308192 8.294413,-8.310951 4.584731,-0.0041 8.304057,3.711057 8.309567,8.293037"
         id="path1170" />
      <path
         style="fill:#000000;fill-opacity:1;fill-rule:nonzero;stroke:none;stroke-width:0.352778"
         d="m -44.968938,-34.197468 c 0.0028,2.751945 -2.22553,4.984365 -4.976096,4.984365 -2.750563,0.0041 -4.982986,-2.222775 -4.985742,-4.973341 -0.0028,-2.751942 2.225531,-4.985741 4.976097,-4.985741 2.750562,-0.0028 4.982986,2.222775 4.985741,4.974717"
         id="path1172" />
      <path
         style="fill:#fafafa;fill-opacity:1;fill-rule:nonzero;stroke:none;stroke-width:0.352778"
         d="m -47.069066,-36.999018 c 0.0014,0.988053 -0.799264,1.788693 -1.787317,1.788693 -0.988053,0.0041 -1.790072,-0.796505 -1.790072,-1.784558 -0.0014,-0.988053 0.799264,-1.792827 1.787317,-1.792827 0.986673,0 1.788692,0.800639 1.790072,1.788692"
         id="path1174" />
      <path
         style="fill:#3d5c14;fill-opacity:1;fill-rule:nonzero;stroke:none;stroke-width:0.352778"
         d="m -43.783823,-43.468909 c -0.205327,0 -0.413413,-0.06615 -0.584288,-0.210838 -1.559941,-1.295358 -3.542937,-2.007803 -5.583813,-2.007803 -2.038117,0 -4.019737,0.712445 -5.579674,2.007803 -0.389986,0.323839 -0.967384,0.271473 -1.289844,-0.119891 -0.32384,-0.388606 -0.270097,-0.967381 0.118508,-1.288465 1.889291,-1.569586 4.2857,-2.433616 6.75101,-2.433616 2.468069,0 4.867233,0.86403 6.755144,2.433616 0.388606,0.321084 0.442352,0.899859 0.118512,1.288465 -0.180523,0.21773 -0.442351,0.330729 -0.705555,0.330729"
         id="path1176" />
      <path
         style="fill:#283d07;fill-opacity:1;fill-rule:nonzero;stroke:none;stroke-width:0.352778"
         d="m -34.060386,-21.232885 c -0.957738,2.856675 -2.603115,5.612751 -5.119412,8.039478 -3.326585,-0.511253 -5.898004,-3.819924 -5.898004,-7.824502 v -0.03859 c 0.0041,-0.994943 1.406977,-1.446939 2.098753,-0.673858 1.223698,1.3615 2.882854,2.197971 4.705999,2.197971 1.590255,0 3.052354,-0.635275 4.212664,-1.700502"
         id="path1178" />
      <path
         style="fill:#d9d742;fill-opacity:1;fill-rule:nonzero;stroke:none;stroke-width:0.352778"
         d="m -113.26176,8.4748636 c -0.6835,0.2218655 -1.37941,0.4368377 -2.08497,0.6490582 -0.24253,0.073036 -0.49058,0.147447 -0.73725,0.2149722 -0.67937,0.2011927 -1.37114,0.3913646 -2.06705,0.5718846 -0.18328,0.055122 -0.36656,0.1047324 -0.55535,0.1474504 -0.18742,0.04961 -0.3707,0.09508 -0.55949,0.14883 -0.37482,0.09508 -0.75103,0.186034 -1.13137,0.278363 -1.03077,0.257693 -2.08084,0.493338 -3.14881,0.719335 -0.53055,0.113002 -1.06798,0.221865 -1.60817,0.327974 -0.54571,0.106108 -1.09141,0.212217 -1.63573,0.314194 -0.52228,0.09508 -1.05007,0.187414 -1.57648,0.278363 -0.051,0.0069 -0.0965,0.01379 -0.14745,0.02205 -0.48921,0.08406 -0.9853,0.16123 -1.48415,0.239779 -0.41755,0.06339 -0.83922,0.126778 -1.2609,0.186034 -0.42168,0.06339 -0.84336,0.124023 -1.26918,0.180524 -0.21084,0.03168 -0.42581,0.05926 -0.64216,0.0813 -0.84198,0.115754 -1.69086,0.214972 -2.54662,0.305922 -0.42719,0.05375 -0.85714,0.09922 -1.28846,0.137806 -0.29352,0.02893 -0.58705,0.0565 -0.88057,0.08544 -0.83371,0.0813 -1.67707,0.15434 -2.5287,0.214972 -0.5457,0.04548 -1.09967,0.08131 -1.64951,0.119892 -0.50436,0.03168 -1.00872,0.0565 -1.51309,0.08406 -0.64079,0.03996 -1.2926,0.07166 -1.94303,0.09233 -0.31144,0.01379 -0.62839,0.02755 -0.94396,0.03858 -0.2756,0.0069 -0.55397,0.01792 -0.83371,0.0248 -0.27974,0.01101 -0.55948,0.01792 -0.83923,0.0248 -0.52227,0.01379 -1.04041,0.02067 -1.55304,0.03168 -0.51815,0.0069 -1.02664,0.01379 -1.54065,0.01792 -1.59852,0.01379 -3.16673,0.0096 -4.70187,-0.01379 -0.42168,-0.0041 -0.84336,-0.01517 -1.26503,-0.02205 -1.38769,-0.03168 -2.74506,-0.07717 -4.07762,-0.137806 -0.76206,-0.03858 -1.51309,-0.07717 -2.25585,-0.119888 -0.12816,-0.0028 -0.25631,-0.01379 -0.38034,-0.02067 -0.43959,-0.02893 -0.87505,-0.0565 -1.305,-0.08406 -0.33073,-0.02205 -0.65595,-0.04685 -0.98116,-0.07441 -1.65503,-0.124027 -3.25906,-0.268718 -4.82176,-0.438217 0.50436,-11.2392818 2.28341,-29.84831 8.47907,-33.122528 8.98205,-4.747342 30.67237,-10.452418 36.86803,-4.500672 5.0133,4.819001 12.03992,21.6145284 12.41061,32.9957463"
         id="path1180" />
      <path
         style="fill:#abb317;fill-opacity:1;fill-rule:nonzero;stroke:none;stroke-width:0.352778"
         d="m -128.11012,-17.324767 c -5.73264,-6.27145 -24.29343,-0.112998 -30.95211,3.902604 -3.82682,2.299946 -6.22322,11.3591698 -7.13548,26.962697 0.32521,0.02755 0.65043,0.05236 0.98116,0.07441 0.42995,0.02755 0.86541,0.05512 1.305,0.08406 0.84887,-14.07528343 3.05236,-23.3715283 6.02754,-25.160224 7.07071,-4.258138 23.79321,-9.009613 28.08304,-4.317394 3.57463,3.912253 8.29993,16.49511666 9.40373,26.264031 0.38034,-0.09233 0.75655,-0.183279 1.13137,-0.278363 0.18879,-0.05375 0.37207,-0.09922 0.55949,-0.14883 0.18879,-0.04272 0.37207,-0.092329 0.55535,-0.1474504 -1.23335,-10.31875011 -6.15984,-23.0724926 -9.95909,-27.2355456"
         id="path1182" />
      <path
         style="fill:#d9d742;fill-opacity:1;fill-rule:nonzero;stroke:none;stroke-width:0.352778"
         d="m -99.426252,2.4307889 c -0.650438,0.3775816 -1.320158,0.7482735 -2.007798,1.1148343 -1.41525,0.7482734 -2.90491,1.4676085 -4.4676,2.145605 -3.47817,-6.9990582 -8.98757,-19.3435222 -8.98757,-27.4422552 0,-8.520409 11.23377,-15.322406 19.606731,-17.975129 1.153417,1.101051 2.226909,2.22002 3.206693,3.341744 0.610472,0.683507 1.178225,1.371145 1.719792,2.053276 3.628376,4.606781 5.815323,9.157064 6.355514,12.741342 1.389062,9.194271 -4.486892,17.6540447 -15.425762,24.0205829"
         id="path1184" />
      <path
         style="fill:#abb317;fill-opacity:1;fill-rule:nonzero;stroke:none;stroke-width:0.352778"
         d="m -90.521369,-34.4841 c 0.05512,0.05374 0.110243,0.103353 0.165365,0.152964 -0.541567,-0.682131 -1.10932,-1.369769 -1.719792,-2.053276 -7.322894,2.497004 -16.960894,8.451508 -16.960894,16.315973 0,6.920505 4.3863,17.0876732 7.60264,23.6140622 0.68764,-0.3665608 1.35736,-0.7372527 2.007798,-1.1148343 -2.794658,-5.7009453 -7.318758,-15.9383909 -7.318758,-22.4992279 0,-6.890191 9.701387,-12.37892 16.223641,-14.415661"
         id="path1186" />
      <path
         style="fill:#d9d742;fill-opacity:1;fill-rule:nonzero;stroke:none;stroke-width:0.352778"
         d="m -175.64279,12.513894 c -0.86678,-0.124023 -1.71841,-0.254938 -2.5535,-0.391361 -0.76481,-0.130916 -1.52136,-0.261828 -2.25861,-0.406524 -15.34859,-2.8676948 -24.82122,-8.0601428 -27.91905,-13.4152001 -0.52641,-0.9136415 -0.87092,-1.8314141 -1.02664,-2.7422969 -0.0413,-0.2149722 -0.0689,-0.4368377 -0.0827,-0.6518134 -0.0772,-1.0445503 0.21635,-2.4446371 0.84749,-4.1203316 0.0372,-0.088194 0.0744,-0.1874132 0.11024,-0.2824974 3.03858,-4.5930046 7.05831,-9.0592236 11.15523,-8.9186636 8.36331,0.282498 19.51853,1.058334 21.82812,4.078993 1.72255,2.250335 2.74092,16.4455057 -0.1006,26.849695"
         id="path1188" />
      <path
         style="fill:#abb317;fill-opacity:1;fill-rule:nonzero;stroke:none;stroke-width:0.352778"
         d="m -179.18572,-8.8787693 c -1.78319,-2.4832277 -7.84518,-3.7785817 -19.65083,-4.2057747 -0.0689,-0.0069 -0.1378,-0.0069 -0.2067,-0.0069 -3.31832,0 -6.79649,2.907662 -10.35734,8.6499456 0.15572,0.9108828 0.50023,1.8286553 1.02664,2.7422969 3.42856,-5.976553 6.77857,-9.1873815 9.45472,-9.0991865 13.17956,0.4768 16.9981,2.0353618 17.87315,3.2604391 0.95361,1.3229166 1.84658,10.6894419 0.59118,19.2539479 0.73725,0.144695 1.4938,0.275608 2.25861,0.406524 1.3298,-8.9145327 0.51814,-18.9094433 -0.98943,-21.0013027"
         id="path1190" />
      <path
         style="fill:#d9d742;fill-opacity:1;fill-rule:nonzero;stroke:none;stroke-width:0.352778"
         d="m -156.34474,-32.359164 c -3.71657,4.493782 -14.09733,11.200694 -19.82997,11.330231 -4.86172,0.117132 -14.09733,-2.987587 -22.91953,-2.987587 1.10518,-1.305003 2.29168,-2.625164 3.55258,-3.954971 0.62839,-0.658703 1.27331,-1.322916 1.94303,-1.985751 8.05602,-8.025694 18.78956,-15.994891 31.32833,-20.972363 0.72898,-0.293522 1.46209,-0.571889 2.20348,-0.840606 1.04042,-0.376203 2.09048,-0.73725 3.15433,-1.072113 1.41524,7.218165 2.92833,17.629244 0.56775,20.48316"
         id="path1192" />
      <path
         style="fill:#abb317;fill-opacity:1;fill-rule:nonzero;stroke:none;stroke-width:0.352778"
         d="m -160.06682,-51.770211 c -0.74139,0.268717 -1.4745,0.547084 -2.20348,0.840606 0.80201,6.261805 0.66007,10.529587 -0.45889,11.881442 -3.77169,4.564063 -13.84515,10.798309 -18.97283,10.918197 -2.01607,0.04548 -4.93476,-0.515383 -8.31233,-1.160307 -1.1603,-0.221865 -2.35644,-0.451996 -3.58428,-0.666969 -0.66972,0.662835 -1.31464,1.327048 -1.94303,1.985751 1.75424,0.289387 3.46439,0.614606 5.09599,0.931556 3.35414,0.646299 6.2742,1.20716 8.50111,1.20716 0.1006,0 0.2012,-0.0083 0.29766,-0.0083 3.19429,-0.07028 7.429,-1.875508 11.33299,-4.233334 3.90949,-2.356443 7.48412,-5.255835 9.35412,-7.513062 1.60817,-1.947168 1.90169,-6.706913 0.89297,-14.182771"
         id="path1194" />
      <path
         style="fill:#d9d742;fill-opacity:1;fill-rule:nonzero;stroke:none;stroke-width:0.352778"
         d="m -100.25032,-43.955355 c -5.8856,4.748721 -15.33481,10.187835 -17.05873,10.827244 -4.18373,1.551672 -28.30215,3.050978 -30.97968,1.234723 -4.20164,-2.840137 -3.12952,-13.606749 -3.42305,-22.377961 1.531,-0.355533 3.07992,-0.669728 4.64675,-0.923287 0.75654,-0.126778 1.52135,-0.237021 2.28754,-0.332105 1.64951,-0.214976 3.31694,-0.366561 5.00917,-0.454755 13.02384,-0.673859 24.24796,2.711979 33.1432,7.810722 0.71382,0.409279 1.41111,0.825444 2.09324,1.255392 1.36563,0.85714 2.67753,1.759754 3.91914,2.68442 0.11851,0.09233 0.24253,0.183278 0.36242,0.275607"
         id="path1196" />
      <path
         style="fill:#abb317;fill-opacity:1;fill-rule:nonzero;stroke:none;stroke-width:0.352778"
         d="m -106.62512,-48.170774 c -4.58749,3.537423 -11.27924,7.379395 -12.47538,7.817612 -3.43683,1.280195 -21.6669,2.126312 -23.48728,1.103807 -2.1401,-1.44694 -2.14837,-7.245724 -2.15388,-12.358247 -0.004,-1.300868 -0.004,-2.632054 -0.0358,-3.919139 -0.76619,0.09508 -1.531,0.205327 -2.28754,0.332105 0.0276,1.17409 0.0276,2.399164 0.0331,3.587034 0.008,6.237002 0.0138,12.129491 3.16122,14.255807 0.91227,0.621495 3.74413,0.861271 7.21817,0.861271 6.86952,0 16.25534,-0.935686 18.34995,-1.714278 1.59439,-0.585667 9.07439,-4.943023 13.77074,-8.71058 -0.68213,-0.429948 -1.37942,-0.846113 -2.09324,-1.255392"
         id="path1198" />
      <path
         style="fill:#d9d742;fill-opacity:1;fill-rule:nonzero;stroke:none;stroke-width:0.352778"
         d="m -101.6008,16.898823 c 0,0.807508 -0.65594,1.463463 -1.46485,1.463463 -0.81029,0 -1.46623,-0.655955 -1.46623,-1.463463 0,-0.811671 0.65594,-1.467626 1.46623,-1.467626 0.80891,0 1.46485,0.655955 1.46485,1.467626"
         id="path1200" />
      <path
         style="fill:#d9d742;fill-opacity:1;fill-rule:nonzero;stroke:none;stroke-width:0.352778"
         d="m -102.13685,21.794991 c 0,1.322916 -1.07212,2.395008 -2.39503,2.395008 -1.32154,0 -2.39503,-1.072092 -2.39503,-2.395008 0,-1.31879 1.07349,-2.392292 2.39503,-2.392292 1.32291,0 2.39503,1.073502 2.39503,2.392292"
         id="path1202" />
      <path
         style="fill:#d9d742;fill-opacity:1;fill-rule:nonzero;stroke:none;stroke-width:0.352778"
         d="m -105.08034,28.359973 c 0,0.515373 -0.41617,0.931545 -0.9288,0.931545 -0.51401,0 -0.9288,-0.416172 -0.9288,-0.931545 0,-0.51128 0.41479,-0.927452 0.9288,-0.927452 0.51263,0 0.9288,0.416172 0.9288,0.927452"
         id="path1204" />
      <path
         style="fill:#d9d742;fill-opacity:1;fill-rule:nonzero;stroke:none;stroke-width:0.352778"
         d="m -111.19883,25.806462 c 0,0.895703 -0.72898,1.626059 -1.62608,1.626059 -0.89849,0 -1.62747,-0.730356 -1.62747,-1.626059 0,-0.899866 0.72898,-1.626094 1.62747,-1.626094 0.8971,0 1.62608,0.726228 1.62608,1.626094"
         id="path1206" />
      <path
         style="fill:#d9d742;fill-opacity:1;fill-rule:nonzero;stroke:none;stroke-width:0.352778"
         d="m -106.39637,17.903393 c 0,1.080382 -0.87367,1.95132 -1.94992,1.95132 -1.07763,0 -1.9513,-0.870938 -1.9513,-1.95132 0,-1.074879 0.87367,-1.949909 1.9513,-1.949909 1.07625,0 1.94992,0.87503 1.94992,1.949909"
         id="path1208" />
      <path
         style="fill:#d9d742;fill-opacity:1;fill-rule:nonzero;stroke:none;stroke-width:0.352778"
         d="m -108.02245,25.806462 c 0,0.373451 -0.30317,0.673841 -0.67662,0.673841 -0.37345,0 -0.67662,-0.30039 -0.67662,-0.673841 0,-0.373451 0.30317,-0.678004 0.67662,-0.678004 0.37345,0 0.67662,0.304553 0.67662,0.678004"
         id="path1210" />
      <path
         style="fill:#d9d742;fill-opacity:1;fill-rule:nonzero;stroke:none;stroke-width:0.352778"
         d="m -109.26269,31.534973 c 0,0.571853 -0.46302,1.037661 -1.0349,1.037661 -0.57189,0 -1.03491,-0.465808 -1.03491,-1.037661 0,-0.570512 0.46302,-1.033533 1.03491,-1.033533 0.57188,0 1.0349,0.463021 1.0349,1.033533"
         id="path1212" />
      <path
         style="fill:#d9d742;fill-opacity:1;fill-rule:nonzero;stroke:none;stroke-width:0.352778"
         d="m -98.869523,18.913502 c 0,0.51816 -0.421679,0.941211 -0.94258,0.941211 -0.522277,0 -0.943957,-0.423051 -0.943957,-0.941211 0,-0.522288 0.42168,-0.945339 0.943957,-0.945339 0.520901,0 0.94258,0.423051 0.94258,0.945339"
         id="path1214" />
      <path
         style="fill:#3d5c14;fill-opacity:1;fill-rule:nonzero;stroke:none;stroke-width:0.352778"
         d="m -70.794751,-14.145632 c -0.369313,0.289387 -0.905373,0.225996 -1.19476,-0.144695 -0.290766,-0.370692 -0.225996,-0.902614 0.144695,-1.196136 0.369313,-0.289391 0.905369,-0.226 1.19476,0.144692 0.290767,0.370692 0.225997,0.906752 -0.144695,1.196139"
         id="path1216" />
      <path
         style="fill:#3d5c14;fill-opacity:1;fill-rule:nonzero;stroke:none;stroke-width:0.352778"
         d="m -73.226988,-12.635302 c -0.604958,0.475421 -1.478637,0.369312 -1.952682,-0.237025 -0.474045,-0.603578 -0.367936,-1.478632 0.237025,-1.951302 0.604957,-0.475421 1.478632,-0.369312 1.952677,0.237025 0.474046,0.603581 0.367937,1.478632 -0.23702,1.951302"
         id="path1218" />
      <path
         style="fill:#3d5c14;fill-opacity:1;fill-rule:nonzero;stroke:none;stroke-width:0.352778"
         d="m -77.282553,-11.62658 c -0.23427,0.183279 -0.574644,0.140561 -0.757922,-0.09233 -0.184658,-0.235642 -0.143316,-0.57464 0.09233,-0.757918 0.234265,-0.183279 0.573264,-0.144696 0.757918,0.09095 0.183282,0.23289 0.14194,0.571885 -0.09232,0.759298"
         id="path1220" />
      <path
         style="fill:#3d5c14;fill-opacity:1;fill-rule:nonzero;stroke:none;stroke-width:0.352778"
         d="m -78.306438,-15.341771 c -0.410655,0.321084 -1.004588,0.250804 -1.327051,-0.162606 -0.321081,-0.409279 -0.249425,-1.001836 0.16123,-1.325675 0.410658,-0.321081 1.004591,-0.250801 1.327051,0.16123 0.321084,0.409278 0.249424,1.00597 -0.16123,1.327051"
         id="path1222" />
      <path
         style="fill:#3d5c14;fill-opacity:1;fill-rule:nonzero;stroke:none;stroke-width:0.352778"
         d="m -72.973429,-15.977046 c -0.493339,0.384475 -1.204405,0.300411 -1.591635,-0.194303 -0.385851,-0.493339 -0.299035,-1.203029 0.192927,-1.590255 0.493335,-0.384475 1.205781,-0.300412 1.591631,0.194303 0.385851,0.490579 0.299036,1.203028 -0.192923,1.590255"
         id="path1224" />
      <path
         style="fill:#3d5c14;fill-opacity:1;fill-rule:nonzero;stroke:none;stroke-width:0.352778"
         d="m -77.168179,-13.887939 c -0.170875,0.133668 -0.418924,0.101974 -0.552591,-0.06752 -0.133671,-0.172254 -0.103354,-0.420303 0.06752,-0.55397 0.170879,-0.133671 0.417548,-0.101974 0.551215,0.06752 0.133672,0.172258 0.104733,0.418924 -0.06614,0.553974"
         id="path1226" />
      <path
         style="fill:#3d5c14;fill-opacity:1;fill-rule:nonzero;stroke:none;stroke-width:0.352778"
         d="m -80.232936,-12.402416 c -0.261825,0.203951 -0.63941,0.158475 -0.844737,-0.10335 -0.205328,-0.260452 -0.158475,-0.638034 0.101977,-0.843361 0.261825,-0.203948 0.63941,-0.158475 0.844737,0.103353 0.203948,0.260449 0.158475,0.638031 -0.101977,0.843358"
         id="path1228" />
      <path
         style="fill:#3d5c14;fill-opacity:1;fill-rule:nonzero;stroke:none;stroke-width:0.352778"
         d="m -70.736875,-12.173661 c -0.2384,0.187413 -0.582908,0.144696 -0.768942,-0.09508 -0.187413,-0.237021 -0.146075,-0.582909 0.0937,-0.768946 0.237024,-0.187413 0.581533,-0.144692 0.768946,0.09095 0.186034,0.239776 0.144692,0.585664 -0.09371,0.773077"
         id="path1230" />
      <path
         style="fill:#d9d742;fill-opacity:1;fill-rule:nonzero;stroke:none;stroke-width:0.352778"
         d="m -187.73645,26.050373 c -0.66835,0.457517 -1.58061,0.285256 -2.03674,-0.385869 -0.45613,-0.665586 -0.28388,-1.579209 0.38585,-2.035351 0.66835,-0.454766 1.58061,-0.281129 2.03536,0.384457 0.45613,0.671125 0.28526,1.580621 -0.38447,2.036763"
         id="path1232" />
      <path
         style="fill:#d9d742;fill-opacity:1;fill-rule:nonzero;stroke:none;stroke-width:0.352778"
         d="m -192.08554,28.366853 c -1.09278,0.748277 -2.58244,0.465772 -3.32796,-0.627028 -0.74552,-1.09414 -0.4644,-2.582439 0.62838,-3.326553 1.09279,-0.748277 2.58383,-0.465808 3.32796,0.626992 0.74553,1.094176 0.4644,2.582439 -0.62838,3.326589"
         id="path1234" />
      <path
         style="fill:#d9d742;fill-opacity:1;fill-rule:nonzero;stroke:none;stroke-width:0.352778"
         d="m -199.16728,29.637382 c -0.42305,0.289419 -1.00183,0.180551 -1.29122,-0.246662 -0.28939,-0.423052 -0.18052,-1.001819 0.24391,-1.291202 0.42444,-0.289384 1.00184,-0.180517 1.29122,0.24391 0.28939,0.425803 0.18053,1.00457 -0.24391,1.293954"
         id="path1236" />
      <path
         style="fill:#d9d742;fill-opacity:1;fill-rule:nonzero;stroke:none;stroke-width:0.352778"
         d="m -200.50398,23.139956 c -0.74138,0.507118 -1.75424,0.316935 -2.25998,-0.427214 -0.50574,-0.741363 -0.31419,-1.754223 0.42719,-2.258589 0.74277,-0.507118 1.75425,-0.316936 2.26137,0.427178 0.50573,0.741398 0.31419,1.752883 -0.42858,2.258625"
         id="path1238" />
      <path
         style="fill:#d9d742;fill-opacity:1;fill-rule:nonzero;stroke:none;stroke-width:0.352778"
         d="m -191.26974,22.656262 c -0.89021,0.606319 -2.10427,0.377578 -2.71198,-0.511245 -0.60634,-0.890235 -0.37758,-2.102909 0.51263,-2.709228 0.89021,-0.610482 2.10426,-0.381741 2.7106,0.511246 0.60772,0.888823 0.37759,2.101497 -0.51125,2.709227"
         id="path1240" />
      <path
         style="fill:#d9d742;fill-opacity:1;fill-rule:nonzero;stroke:none;stroke-width:0.352778"
         d="m -198.7139,25.763741 c -0.30868,0.212195 -0.72898,0.130915 -0.93983,-0.176389 -0.21084,-0.310057 -0.13091,-0.730356 0.17777,-0.941211 0.30868,-0.208069 0.72898,-0.130916 0.93982,0.17914 0.21084,0.307305 0.13092,0.727604 -0.17776,0.93846"
         id="path1242" />
      <path
         style="fill:#d9d742;fill-opacity:1;fill-rule:nonzero;stroke:none;stroke-width:0.352778"
         d="m -204.14751,27.968602 c -0.47267,0.325226 -1.11621,0.201189 -1.43867,-0.271498 -0.32108,-0.472652 -0.19981,-1.114813 0.27147,-1.435911 0.47267,-0.323815 1.11759,-0.20119 1.43868,0.271497 0.32246,0.472652 0.20119,1.114813 -0.27148,1.435912"
         id="path1244" />
      <path
         style="fill:#d9d742;fill-opacity:1;fill-rule:nonzero;stroke:none;stroke-width:0.352778"
         d="m -187.86047,29.443107 c -0.43133,0.293511 -1.01837,0.180516 -1.3119,-0.250825 -0.29352,-0.42993 -0.1819,-1.015612 0.24805,-1.307747 0.42995,-0.296263 1.01699,-0.183268 1.31052,0.246662 0.29489,0.429966 0.18327,1.015612 -0.24667,1.31191"
         id="path1246" />
      <path
         style="fill:#8f990c;fill-opacity:1;fill-rule:nonzero;stroke:none;stroke-width:0.352778"
         d="m -171.01947,13.099562 c -1.30087,-0.141941 -2.57555,-0.296281 -3.81165,-0.47267 -0.2701,-0.03583 -0.54157,-0.07028 -0.81167,-0.112998 0.68213,-2.498383 1.1424,-5.2172517 1.42352,-7.9347448 0.97565,0.092329 1.96921,0.1763889 2.98069,0.2549384 0.25494,0.020673 0.50988,0.038583 0.76757,0.056501 -0.26596,2.9310859 -0.43822,5.7464184 -0.54846,8.2089734 m 57.75771,-4.6288328 c -0.0992,-3.0303047 -0.6711,-6.4492188 -1.55166,-9.9232509 0.79375,-0.2935217 1.57096,-0.5994471 2.33163,-0.9108828 0.52228,-0.2149758 1.03491,-0.429948 1.53927,-0.655948 0.29766,-0.1267777 0.59256,-0.2576936 0.88333,-0.3913611 1.41524,3.42580036 2.91592,6.6035591 4.15754,9.1019419 -0.50436,0.221862 -1.017,0.4368377 -1.53927,0.6518099 -1.84657,0.7593012 -3.78961,1.467612 -5.81946,2.127691 -0.001,0 -0.001,0 -0.001,0"
         id="path1248" />
      <path
         style="fill:#b8b823;fill-opacity:1;fill-rule:nonzero;stroke:none;stroke-width:0.352778"
         d="m -153.01264,14.020089 c -0.98668,0 -1.9582,-0.0069 -2.91869,-0.02067 -0.42306,-0.0041 -0.84336,-0.01517 -1.26504,-0.0248 -1.38906,-0.03171 -2.74505,-0.07855 -4.07899,-0.137805 -0.76068,-0.03583 -1.51309,-0.07855 -2.25447,-0.117133 -0.12816,-0.0069 -0.25769,-0.01379 -0.38034,-0.0248 0,0 -0.001,0 -0.001,0 0.18465,-3.050978 0.43132,-5.8773346 0.73725,-8.4515082 0.31006,0.00963 0.62287,0.016545 0.93706,0.0248 0.42031,0.00963 0.84198,0.016545 1.26366,0.023424 0.96187,0.015169 1.93615,0.022049 2.92282,0.022049 0.58843,0 1.18236,-0.00413 1.77905,-0.00688 0.51401,-0.00688 1.0225,-0.011007 1.54065,-0.022049 0.51263,-0.00688 1.03077,-0.016545 1.55305,-0.031679 0.27974,-0.00282 0.55948,-0.013794 0.83922,-0.020673 0.27974,-0.011007 0.55948,-0.017921 0.83371,-0.028928 0.31558,-0.00963 0.63252,-0.023424 0.94396,-0.034466 0.65044,-0.0248 1.30225,-0.056501 1.94303,-0.092329 0.50437,-0.027552 1.00873,-0.056501 1.51309,-0.088194 0.54984,-0.038587 1.10381,-0.073036 1.64951,-0.119888 0.85163,-0.059256 1.69499,-0.1295365 2.53008,-0.2149757 l 0.87919,-0.081305 c 0.43132,-0.041342 0.86127,-0.088195 1.28846,-0.1378021 0.85715,-0.090953 1.70464,-0.1929271 2.548,-0.3059253 0.21497,-0.0248 0.42994,-0.053742 0.64078,-0.085439 0.4272,-0.052366 0.84888,-0.1129982 1.26918,-0.1763889 0.42168,-0.059256 0.84336,-0.1226432 1.2609,-0.1901684 0.49885,-0.07717 0.99495,-0.1557196 1.48553,-0.2370243 0.0496,-0.00963 0.0951,-0.013794 0.14607,-0.023424 0.52641,-0.092329 1.0542,-0.184658 1.57648,-0.2797422 0.5457,-0.1019739 1.0914,-0.2039514 1.63573,-0.3100599 0.54157,-0.1061085 1.07762,-0.2149722 1.60817,-0.332105 1.06798,-0.2287552 2.11804,-0.4657795 3.14881,-0.7193386 0.38034,-0.09095 0.75655,-0.1832786 1.13275,-0.2783628 0.18742,-0.049608 0.3707,-0.095084 0.55811,-0.1446918 0.18879,-0.042721 0.37207,-0.095088 0.55535,-0.1488299 0.29214,-0.07717 0.58566,-0.1543403 0.87643,-0.23564497 0.89021,3.21772137 1.57647,6.50158517 1.91823,9.51397607 -1.03077,0.254938 -2.08084,0.490583 -3.14744,0.72347 -0.53193,0.113001 -1.06798,0.221865 -1.60955,0.327973 -0.54432,0.106109 -1.09003,0.212217 -1.63573,0.31006 -0.52228,0.09922 -1.04869,0.191548 -1.57648,0.282498 -0.0496,0.0069 -0.0965,0.01101 -0.14607,0.02205 -0.49058,0.07993 -0.98529,0.16123 -1.48552,0.23978 -0.41617,0.06339 -0.83785,0.126778 -1.25953,0.186034 -0.42168,0.06339 -0.84336,0.124022 -1.27055,0.176389 -0.20946,0.03583 -0.42582,0.06063 -0.64079,0.08544 -0.84336,0.112998 -1.69085,0.214972 -2.54799,0.305922 -0.42582,0.04961 -0.85714,0.09646 -1.28847,0.137805 l -0.87919,0.08131 c -0.83371,0.08544 -1.67707,0.155716 -2.53008,0.214972 -0.5457,0.04686 -1.09967,0.08544 -1.64951,0.119892 -0.50436,0.03168 -1.00872,0.06063 -1.51308,0.08819 -0.64079,0.03583 -1.2926,0.06752 -1.94304,0.09233 -0.31143,0.01379 -0.627,0.02755 -0.94395,0.03583 -0.27423,0.0096 -0.55398,0.01655 -0.83371,0.02755 -0.27975,0.01101 -0.55949,0.01792 -0.83923,0.0248 -0.52228,0.01101 -1.04042,0.02067 -1.55305,0.03168 -0.51814,0.0069 -1.02664,0.01101 -1.53927,0.01792 -0.59944,0.0028 -1.19338,0.0069 -1.78318,0.0069 m -13.18507,-0.479555 c -1.65502,-0.124026 -3.25768,-0.271473 -4.82175,-0.440973 0.11024,-2.462554 0.28249,-5.2778869 0.54846,-8.2089728 0.0703,0.00688 0.14193,0.00963 0.21359,0.013794 0.42995,0.027552 0.86541,0.056497 1.305,0.08406 0.12403,0.00688 0.25218,0.017921 0.38172,0.022049 0.74138,0.041342 1.49379,0.08406 2.25447,0.119888 0.27147,0.013794 0.5457,0.0248 0.81993,0.034466 -0.28938,2.5411006 -0.52365,5.3343838 -0.70142,8.3757168 m 48.04672,-3.6297691 c -0.36794,-3.0730226 -1.06247,-6.3651554 -1.9582,-9.57874227 0.61048,-0.18327865 1.21405,-0.37344704 1.80661,-0.56774998 1.19476,-0.38860942 2.35783,-0.79375005 3.4892,-1.21680815 0.88056,3.4740321 1.45245,6.8929462 1.55166,9.9232509 -0.68212,0.226 -1.37941,0.4409722 -2.08497,0.6531927 -0.24253,0.070277 -0.49058,0.1446918 -0.73725,0.2149722 -0.67799,0.2011927 -1.37114,0.3872301 -2.06705,0.5718846"
         id="path1250" />
      <path
         style="fill:#8f990c;fill-opacity:1;fill-rule:nonzero;stroke:none;stroke-width:0.352778"
         d="m -163.91155,13.694874 c -0.43959,-0.02755 -0.87505,-0.0565 -1.305,-0.07993 -0.33073,-0.0248 -0.65595,-0.04685 -0.98116,-0.07441 0.17776,-3.041333 0.41203,-5.8346166 0.70142,-8.3757173 0.76619,0.03168 1.53927,0.056501 2.32199,0.078549 -0.30592,2.5741736 -0.55259,5.4005313 -0.73725,8.4515083 m 43.51431,-3.213587 c -0.34175,-3.0123909 -1.02801,-6.2962546 -1.91823,-9.513976 0.39963,-0.1088637 0.79789,-0.21910676 1.19063,-0.33899828 0.24667,-0.0661458 0.49472,-0.14055726 0.73725,-0.21083764 0.0923,-0.0289278 0.18604,-0.0565009 0.27836,-0.0854393 0.89573,3.21358682 1.59026,6.50571962 1.9582,9.57874222 -0.18328,0.055122 -0.36656,0.104732 -0.55535,0.14745 -0.18742,0.04961 -0.3707,0.09508 -0.55811,0.144695 -0.3762,0.09509 -0.75241,0.187414 -1.13275,0.278363"
         id="path1252" />
      <path
         style="fill:#d4d98a;fill-opacity:1;fill-rule:nonzero;stroke:none;stroke-width:0.352778"
         d="m -84.039077,-21.832328 c -0.423058,-2.498387 -1.623328,-5.440497 -3.534667,-8.538327 1.912718,3.09783 3.112988,6.03994 3.534667,8.538327"
         id="path1254" />
      <path
         style="fill:#5c8219;fill-opacity:1;fill-rule:nonzero;stroke:none;stroke-width:0.352778"
         d="m -84.564109,-13.835576 c 0.759298,-2.501138 0.966004,-5.09736 0.563619,-7.754218 -0.01242,-0.0813 -0.0248,-0.161233 -0.03859,-0.242534 0.01379,0.0813 0.02755,0.16123 0.03859,0.239776 0.402385,2.659616 0.197058,5.255838 -0.563619,7.756976"
         id="path1256" />
      <path
         style="fill:#d4d98a;fill-opacity:1;fill-rule:nonzero;stroke:none;stroke-width:0.352778"
         d="m -87.5765,-30.37341 c -0.0014,0 -0.0014,-0.0041 -0.0028,-0.0041 0.0014,0 0.0014,0.0041 0.0028,0.0041"
         id="path1258" />
      <path
         style="fill:#b8b823;fill-opacity:1;fill-rule:nonzero;stroke:none;stroke-width:0.352778"
         d="m -105.90165,5.6912282 c -1.24162,-2.4983828 -2.7423,-5.67614154 -4.15754,-9.1019419 1.24299,-0.5608637 2.43775,-1.1465278 3.58565,-1.7528646 0.31833,-0.1694991 0.63114,-0.3389982 0.94258,-0.5126319 1.31327,3.3665477 2.80017,6.59115536 4.09691,9.2218334 -1.41525,0.7482734 -2.90491,1.4648533 -4.4676,2.145605 m 6.475398,-3.2604393 c -1.208538,-2.46530986 -2.740918,-5.7781155 -4.090018,-9.2741962 10.328399,-6.3003927 15.822638,-14.5341697 14.474914,-23.4555877 -0.169496,-1.114834 -0.494715,-2.317863 -0.97565,-3.591169 0.909504,1.180977 1.723926,2.356447 2.437751,3.512619 0.0014,0 0.0014,0.0041 0.0028,0.0041 0.0014,0 0.0014,0.0028 0.0028,0.0028 1.911339,3.09783 3.111609,6.03994 3.534667,8.538327 0.01379,0.0813 0.02618,0.16123 0.03859,0.242534 0.402385,2.656858 0.195679,5.25308 -0.563619,7.754218 -1.867242,6.1529421 -7.084494,11.7367547 -14.862143,16.2663649"
         id="path1260" />
      <path
         style="fill:#8f990c;fill-opacity:1;fill-rule:nonzero;stroke:none;stroke-width:0.352778"
         d="m -101.43405,3.5456232 c -1.29674,-2.63067804 -2.78364,-5.8552857 -4.09691,-9.2218334 0.35967,-0.1970582 0.71382,-0.3982544 1.06384,-0.5994471 0.32109,-0.1860338 0.63941,-0.3775816 0.95085,-0.56775 1.3491,3.4960807 2.88148,6.80888634 4.090018,9.2741962 -0.650438,0.3775816 -1.320158,0.7482735 -2.006428,1.1148343 -10e-4,0 -10e-4,0 -10e-4,0"
         id="path1262" />
      <path
         style="fill:#b8b823;fill-opacity:1;fill-rule:nonzero;stroke:none;stroke-width:0.352778"
         d="m -175.64279,12.513894 c -0.86541,-0.124023 -1.71841,-0.257694 -2.55213,-0.395496 h -0.001 c 0.38999,-2.6141394 0.59669,-5.3192288 0.65457,-7.8947818 0.48921,0.059256 0.98392,0.115757 1.48139,0.1694992 0.60772,0.066146 1.22094,0.1267777 1.84106,0.1860338 -0.28112,2.7174931 -0.74139,5.4363618 -1.42351,7.9347448 m -4.81211,-0.797885 c -15.34718,-2.8676948 -24.81981,-8.0601428 -27.91764,-13.4193347 0.52917,-0.9246623 1.05695,-1.7818029 1.58198,-2.5686632 4.87275,2.9572691 12.00685,5.5424706 21.29483,7.2815521 0.73725,0.1419402 1.49379,0.2756077 2.25861,0.4023889 0.83508,0.1378021 1.68671,0.2714731 2.5535,0.3954957 0.27009,0.038587 0.54019,0.07717 0.81028,0.1130018 0.01,0.00282 0.0179,0.00282 0.0262,0.00282 -0.0427,2.5052726 -0.226,5.1855582 -0.60772,7.7928054 m -28.94431,-16.1602534 h -0.001 c -0.0413,-0.2149757 -0.0675,-0.4340825 -0.0813,-0.6490582 -0.0234,-0.3073012 -0.0138,-0.6421649 0.0262,-1.005967 0.24392,0.1901684 0.49472,0.3775816 0.75379,0.5649948 -0.23151,0.3527778 -0.4644,0.7165799 -0.69729,1.0900304"
         id="path1264" />
      <path
         style="fill:#8f990c;fill-opacity:1;fill-rule:nonzero;stroke:none;stroke-width:0.352778"
         d="m -178.19629,12.118398 c -0.76481,-0.126781 -1.51998,-0.260448 -2.25861,-0.402389 0.38172,-2.607246 0.565,-5.2875317 0.60772,-7.7928042 0.75516,0.1061085 1.52411,0.2053272 2.30546,0.3004114 -0.0579,2.575553 -0.26459,5.2806424 -0.65457,7.8947818 m -30.17628,-13.8217237 c -0.001,0 0,0 -0.001,0 -0.52641,-0.9095069 -0.86954,-1.8272795 -1.02526,-2.7409175 0.23289,-0.3734506 0.46577,-0.7372526 0.69728,-1.0900304 0.59256,0.4271927 1.22922,0.8461163 1.91134,1.2622847 -0.52503,0.7868603 -1.05282,1.6440009 -1.58198,2.5686632"
         id="path1266" />
    </g>
  </g>
</svg>
