<?xml version="1.0" encoding="utf-8"?>
<!-- Generator: Adobe Illustrator 27.4.0, SVG Export Plug-In . SVG Version: 6.00 Build 0)  -->
<svg version="1.1"
	 id="svg2121" xmlns:cc="http://creativecommons.org/ns#" xmlns:dc="http://purl.org/dc/elements/1.1/" xmlns:rdf="http://www.w3.org/1999/02/22-rdf-syntax-ns#" xmlns:sodipodi="http://sodipodi.sourceforge.net/DTD/sodipodi-0.dtd" xmlns:inkscape="http://www.inkscape.org/namespaces/inkscape" xmlns:svg="http://www.w3.org/2000/svg" inkscape:version="0.92.4 (5da689c313, 2019-01-14)" sodipodi:docname="flowers.svg"
	 xmlns="http://www.w3.org/2000/svg" xmlns:xlink="http://www.w3.org/1999/xlink" x="0px" y="0px" viewBox="0 0 857 601"
	 style="enable-background:new 0 0 857 601;" xml:space="preserve">
<style type="text/css">
	.st0{fill:#444444;}
	.st1{fill:#F8E8CE;}
	.st2{fill:#FFFFFF;}
	.st3{fill:#E1D3B8;}
	.st4{fill:#F1E8DE;}
	.st5{fill:#4AFF40;}
	.st6{fill:#31D8FF;}
	.st7{fill:#F772D8;}
	.st8{fill:#FF7F00;}
	.st9{fill:#FFE94D;}
	.st10{fill:#F93E5A;}
	.st11{fill:#3E642E;}
	.st12{fill:#466E33;}
	.st13{fill:#709B40;}
	.st14{fill:#2F4F25;}
	.st15{fill:none;stroke:#305025;stroke-width:0.5;stroke-linecap:round;stroke-linejoin:round;stroke-miterlimit:10;}
	.st16{fill:#24301A;}
	.st17{fill:#72A140;}
	.st18{fill:#6B983C;}
	.st19{fill:#D0DA95;}
	.st20{fill:#55803A;}
	.st21{fill:#83B44E;}
	.st22{fill:#EC1C24;}
	.st23{fill:#D81F27;}
	.st24{fill:#EF5139;}
	.st25{fill:#F38171;}
	.st26{fill:#FACEC9;}
	.st27{fill:#EA2D2E;}
	.st28{fill:#7EB242;}
	.st29{fill:#8BBF40;}
	.st30{fill:#57873D;}
	.st31{fill:#D32027;}
	.st32{fill:#644961;}
	.st33{fill:#5F3F5B;}
	.st34{fill:#5F3E5B;}
	.st35{fill:#7CB342;}
	.st36{fill:#71566E;}
	.st37{fill:#7D627A;}
	.st38{fill:#B6D673;}
	.st39{fill:#9D839B;}
	.st40{fill:#58813A;}
	.st41{fill:#669146;}
	.st42{fill:#6D9A4B;}
	.st43{fill:#486F30;}
	.st44{fill:#4D7533;}
	.st45{fill:#385C25;}
	.st46{fill:#7C993D;}
	.st47{fill:#4B7232;}
	.st48{fill:#97B060;}
	.st49{fill:#40652A;}
	.st50{fill:#5E913F;}
	.st51{fill:#E1E1BF;}
	.st52{fill:#D8D7AA;}
	.st53{fill:#C2C084;}
	.st54{fill:#AB2A15;}
	.st55{fill:#D03620;}
	.st56{fill:#7BBA54;}
	.st57{fill:#B5D07F;}
	.st58{fill:#EE4629;}
	.st59{fill:#F48A75;}
	.st60{fill:#F05F33;}
	.st61{fill:#F38056;}
	.st62{fill:#A8D389;}
	.st63{fill:#5C9F38;}
	.st64{fill:#7DC142;}
	.st65{fill:#6EB23E;}
	.st66{fill:#C8DC71;}
	.st67{fill:#B8D051;}
	.st68{fill:#A5CE4B;}
	.st69{fill:#F58723;}
	.st70{fill:#F26B23;}
	.st71{fill:#28AA47;}
	.st72{fill:#89C549;}
	.st73{fill:#47AE4D;}
	.st74{fill:#F89F1F;}
	.st75{fill:#CD5A27;}
	.st76{fill:#3B823F;}
	.st77{fill:#2F6936;}
	.st78{fill:#AFD147;}
	.st79{fill:#9ABF3C;}
	.st80{fill:#479344;}
	.st81{fill:#5EA849;}
	.st82{fill:#6DAB47;}
	.st83{fill:#82C260;}
	.st84{fill:#40863D;}
	.st85{fill:#CDDE6D;}
	.st86{fill:#C5D168;}
	.st87{fill:#B3BF52;}
	.st88{fill:#DBE582;}
	.st89{fill:#7B9143;}
	.st90{fill:#9BAD70;}
	.st91{fill:#647934;}
	.st92{fill:#A5B041;}
</style>
<g transform="matrix( 1, 0, 0, 1, 0,0) ">
	<g transform="matrix( 0.80828857421875, 0, 0, 0.80828857421875, 0.4,61.4) ">
		<g transform="matrix( 1, 0, 0, 1, 0,0) ">
			<g>
				<g id="Duplicate_Items_Folder_Symbol_4_0_Layer0_0_FILL">
					<path class="st0" d="M153.8-76.1c-0.1-0.1-0.2-0.1-0.3-0.1H3.7c-0.1,0-0.3,0.1-0.3,0.1c-0.1,0.1-0.1,0.2-0.1,0.4V75.2
						c0,0.1,0.1,0.3,0.1,0.4c0.1,0.1,0.2,0.1,0.3,0.1h149.7c0.1,0,0.3-0.1,0.3-0.1c0.1-0.1,0.1-0.2,0.1-0.4V-75.7
						C154-75.9,153.9-76,153.8-76.1 M4.2-75.2H153V74.7H4.2V-75.2z"/>
					<path class="st1" d="M153-75.2H4.2V74.7H153V-75.2 M152.2-74.7v0.2l0.2-0.2V73.9H5.2H5V-74.7H152.2z"/>
					<path class="st2" d="M145.8-67.9l6.4-6.5v-0.2H5V73.9h0.2l6.4-6.4V-67.9H145.8z"/>
					<path class="st3" d="M145.8-67.9L145.8-67.9l-0.1,135.1H12l-0.3,0.3l-6.4,6.4h147.2V-74.7l-0.2,0.2L145.8-67.9z"/>
					<path class="st4" d="M145.7-67.8L145.7-67.8l-134-0.1V67.5l0.3-0.3h133.7V-67.8z"/>
				</g>
			</g>
		</g>
	</g>
	<g transform="matrix( 0.80828857421875, 0, 0, 0.80828857421875, 122.85,61.4) ">
		<g transform="matrix( 1, 0, 0, 1, 0,0) ">
			<g>
				<g id="Duplicate_Items_Folder_Symbol_4_0_Layer0_0_FILL_00000103259204796297521060000009202442913214377128_">
					<path class="st0" d="M152.7-76.1c-0.1-0.1-0.2-0.1-0.3-0.1H2.6c-0.1,0-0.3,0.1-0.3,0.1c-0.1,0.1-0.1,0.2-0.1,0.4V75.2
						c0,0.1,0.1,0.3,0.1,0.4c0.1,0.1,0.2,0.1,0.3,0.1h149.7c0.1,0,0.3-0.1,0.3-0.1c0.1-0.1,0.1-0.2,0.1-0.4V-75.7
						C152.8-75.9,152.8-76,152.7-76.1 M3.1-75.2h148.7V74.7H3.1V-75.2z"/>
					<path class="st1" d="M151.8-75.2H3.1V74.7h148.7V-75.2 M151.1-74.7v0.2l0.2-0.2V73.9H4.1H3.8V-74.7H151.1z"/>
					<path class="st2" d="M144.7-67.9l6.4-6.5v-0.2H3.8V73.9H4l6.4-6.4V-67.9H144.7z"/>
					<path class="st3" d="M144.7-67.9L144.7-67.9l-0.1,135.1H10.9l-0.3,0.3l-6.4,6.4h147.2V-74.7l-0.2,0.2L144.7-67.9z"/>
					<path class="st4" d="M144.6-67.8L144.6-67.8L10.5-67.9V67.5l0.3-0.3h133.7v-135H144.6z"/>
				</g>
			</g>
		</g>
	</g>
	<g transform="matrix( 0.80828857421875, 0, 0, 0.80828857421875, 245.3,61.4) ">
		<g transform="matrix( 1, 0, 0, 1, 0,0) ">
			<g>
				<g id="Duplicate_Items_Folder_Symbol_4_0_Layer0_0_FILL_00000150095661800686720220000007911614582640425606_">
					<path class="st0" d="M151.5-76.1c-0.1-0.1-0.2-0.1-0.3-0.1H1.4c-0.1,0-0.3,0.1-0.3,0.1C1-76,0.9-75.9,0.9-75.7V75.2
						c0,0.1,0.1,0.3,0.1,0.4c0.1,0.1,0.2,0.1,0.3,0.1H151c0.1,0,0.3-0.1,0.3-0.1c0.1-0.1,0.1-0.2,0.1-0.4V-75.7
						C151.6-75.9,151.6-76,151.5-76.1 M1.9-75.2h148.7V74.7H1.9V-75.2z"/>
					<path class="st1" d="M150.6-75.2H1.9V74.7h148.7L150.6-75.2 M149.9-74.7v0.2l0.2-0.2V73.9H2.9H2.6V-74.7H149.9z"/>
					<path class="st2" d="M143.5-67.9l6.4-6.5v-0.2H2.6V73.9h0.2l6.4-6.4V-67.9H143.5z"/>
					<path class="st3" d="M143.5-67.9L143.5-67.9l-0.1,135.1H9.7l-0.3,0.3L3,73.9h147.2V-74.7l-0.2,0.2L143.5-67.9z"/>
					<path class="st4" d="M143.4-67.8L143.4-67.8L9.3-67.9V67.5l0.3-0.3h133.7L143.4-67.8L143.4-67.8z"/>
				</g>
			</g>
		</g>
	</g>
	<g transform="matrix( 0.80828857421875, 0, 0, 0.80828857421875, 367.75,61.4) ">
		<g transform="matrix( 1, 0, 0, 1, 0,0) ">
			<g>
				<g id="Duplicate_Items_Folder_Symbol_4_0_Layer0_0_FILL_00000028327254553976565370000015109165849768636837_">
					<path class="st0" d="M150.3-76.1c-0.1-0.1-0.2-0.1-0.3-0.1H0.2c-0.1,0-0.3,0.1-0.3,0.1c-0.1,0.1-0.1,0.2-0.1,0.4V75.2
						c0,0.1,0.1,0.3,0.1,0.4c0.1,0.1,0.2,0.1,0.3,0.1H150c0.1,0,0.3-0.1,0.3-0.1c0.1-0.1,0.1-0.2,0.1-0.4V-75.7
						C150.5-75.9,150.4-76,150.3-76.1 M0.7-75.2h148.7V74.7H0.7V-75.2z"/>
					<path class="st1" d="M149.5-75.2H0.7V74.7h148.7V-75.2 M148.7-74.7v0.2l0.2-0.2V73.9H1.7H1.5V-74.7H148.7z"/>
					<path class="st2" d="M142.3-67.9l6.4-6.5v-0.2H1.5V73.9h0.2l6.4-6.4V-67.9H142.3z"/>
					<path class="st3" d="M142.3-67.9L142.3-67.9l-0.1,135.1H8.5l-0.3,0.3l-6.4,6.4H149V-74.7l-0.2,0.2L142.3-67.9z"/>
					<path class="st5" d="M142.2-67.8L142.2-67.8l-134-0.1V67.5l0.3-0.3h133.7V-67.8z"/>
				</g>
			</g>
		</g>
	</g>
	<g transform="matrix( 0.80828857421875, 0, 0, 0.80828857421875, 490.2,61.4) ">
		<g transform="matrix( 1, 0, 0, 1, 0,0) ">
			<g>
				<g id="Duplicate_Items_Folder_Symbol_4_0_Layer0_0_FILL_00000076581959032475639530000008960199103215055039_">
					<path class="st0" d="M149.1-76.1c-0.1-0.1-0.2-0.1-0.3-0.1H-0.9c-0.1,0-0.3,0.1-0.3,0.1c-0.1,0.1-0.1,0.2-0.1,0.4V75.2
						c0,0.1,0.1,0.3,0.1,0.4c0.1,0.1,0.2,0.1,0.3,0.1h149.7c0.1,0,0.3-0.1,0.3-0.1c0.1-0.1,0.1-0.2,0.1-0.4V-75.7
						C149.3-75.9,149.2-76,149.1-76.1 M-0.4-75.2h148.7V74.7H-0.4V-75.2z"/>
					<path class="st1" d="M148.3-75.2H-0.4V74.7h148.7V-75.2 M147.6-74.7v0.2l0.2-0.2V73.9H0.5H0.3V-74.7H147.6z"/>
					<path class="st2" d="M141.2-67.9l6.4-6.5v-0.2H0.3V73.9h0.2L7,67.5V-67.9H141.2z"/>
					<path class="st3" d="M141.2-67.9L141.2-67.9l-0.1,135.1H7.3L7,67.5l-6.4,6.4h147.2V-74.7l-0.2,0.2L141.2-67.9z"/>
					<path class="st4" d="M141.1-67.8L141.1-67.8L7-67.9V67.5l0.3-0.3H141v-135H141.1z"/>
				</g>
			</g>
		</g>
	</g>
	<g transform="matrix( 0.80828857421875, 0, 0, 0.80828857421875, 612.65,61.4) ">
		<g transform="matrix( 1, 0, 0, 1, 0,0) ">
			<g>
				<g id="Duplicate_Items_Folder_Symbol_4_0_Layer0_0_FILL_00000080896063043282772020000008342106817347203775_">
					<path class="st0" d="M148-76.1c-0.1-0.1-0.2-0.1-0.3-0.1H-2.1c-0.1,0-0.3,0.1-0.3,0.1c-0.1,0.1-0.1,0.2-0.1,0.4V75.2
						c0,0.1,0.1,0.3,0.1,0.4c0.1,0.1,0.2,0.1,0.3,0.1h149.7c0.1,0,0.3-0.1,0.3-0.1c0.1-0.1,0.1-0.2,0.1-0.4V-75.7
						C148.1-75.9,148.1-76,148-76.1 M-1.6-75.2h148.7V74.7H-1.6V-75.2z"/>
					<path class="st1" d="M147.1-75.2H-1.6V74.7h148.7L147.1-75.2 M146.4-74.7v0.2l0.2-0.2V73.9H-0.6h-0.2V-74.7H146.4z"/>
					<path class="st2" d="M140-67.9l6.4-6.5v-0.2H-0.9V73.9h0.2l6.4-6.4V-67.9H140z"/>
					<path class="st3" d="M140-67.9L140-67.9l-0.1,135.1H6.2l-0.3,0.3l-6.4,6.4h147.2V-74.7l-0.2,0.2L140-67.9z"/>
					<path class="st4" d="M139.9-67.8L139.9-67.8L5.8-67.9V67.5l0.3-0.3h133.7L139.9-67.8L139.9-67.8z"/>
				</g>
			</g>
		</g>
	</g>
	<g transform="matrix( 0.80828857421875, 0, 0, 0.80828857421875, 735.2,61.4) ">
		<g transform="matrix( 1, 0, 0, 1, 0,0) ">
			<g>
				<g id="Duplicate_Items_Folder_Symbol_4_0_Layer0_0_FILL_00000082327849748842702370000000482010199518088854_">
					<path class="st0" d="M146.8-76.1c-0.1-0.1-0.2-0.1-0.3-0.1H-3.3c-0.1,0-0.3,0.1-0.3,0.1c-0.1,0.1-0.1,0.2-0.1,0.4V75.2
						c0,0.1,0.1,0.3,0.1,0.4c0.1,0.1,0.2,0.1,0.3,0.1h149.7c0.1,0,0.3-0.1,0.3-0.1c0.1-0.1,0.1-0.2,0.1-0.4V-75.7
						C146.9-75.9,146.9-76,146.8-76.1 M-2.8-75.2H146V74.7H-2.8V-75.2z"/>
					<path class="st1" d="M146-75.2H-2.8V74.7H146V-75.2 M145.2-74.7v0.2l0.2-0.2V73.9H-1.8H-2V-74.7H145.2z"/>
					<path class="st2" d="M138.8-67.9l6.4-6.5v-0.2H-2V73.9h0.2l6.4-6.4V-67.9H138.8z"/>
					<path class="st3" d="M138.8-67.9L138.8-67.9l-0.1,135.1H5l-0.3,0.3l-6.4,6.4h147.2V-74.7l-0.2,0.2L138.8-67.9z"/>
					<path class="st6" d="M138.7-67.8L138.7-67.8l-134-0.1V67.5L5,67.2h133.7V-67.8z"/>
				</g>
			</g>
		</g>
	</g>
	<g transform="matrix( 0.80828857421875, 0, 0, 0.80828857421875, 0.4,181.05) ">
		<g transform="matrix( 1, 0, 0, 1, 0,0) ">
			<g>
				<g id="Duplicate_Items_Folder_Symbol_4_0_Layer0_0_FILL_00000108995129806447714850000012967377881701300396_">
					<path class="st0" d="M153.8-76.1c-0.1-0.1-0.2-0.1-0.3-0.1H3.7c-0.1,0-0.3,0.1-0.3,0.1c-0.1,0.1-0.1,0.2-0.1,0.4V75.2
						c0,0.1,0.1,0.3,0.1,0.4c0.1,0.1,0.2,0.1,0.3,0.1h149.7c0.1,0,0.3-0.1,0.3-0.1c0.1-0.1,0.1-0.2,0.1-0.4V-75.7
						C154-75.9,153.9-76,153.8-76.1 M4.2-75.2H153V74.7H4.2V-75.2z"/>
					<path class="st1" d="M153-75.2H4.2V74.7H153V-75.2 M152.2-74.7v0.2l0.2-0.2V73.9H5.2H5V-74.7H152.2z"/>
					<path class="st2" d="M145.8-67.9l6.4-6.5v-0.2H5V73.9h0.2l6.4-6.4V-67.9H145.8z"/>
					<path class="st3" d="M145.8-67.9L145.8-67.9l-0.1,135.1H12l-0.3,0.3l-6.4,6.4h147.2V-74.7l-0.2,0.2L145.8-67.9z"/>
					<path class="st7" d="M145.7-67.8L145.7-67.8l-134-0.1V67.5l0.3-0.3h133.7V-67.8z"/>
				</g>
			</g>
		</g>
	</g>
	<g transform="matrix( 0.80828857421875, 0, 0, 0.80828857421875, 122.85,181.05) ">
		<g transform="matrix( 1, 0, 0, 1, 0,0) ">
			<g>
				<g id="Duplicate_Items_Folder_Symbol_4_0_Layer0_0_FILL_00000131346542553011193890000012865089029935732367_">
					<path class="st0" d="M152.7-76.1c-0.1-0.1-0.2-0.1-0.3-0.1H2.6c-0.1,0-0.3,0.1-0.3,0.1c-0.1,0.1-0.1,0.2-0.1,0.4V75.2
						c0,0.1,0.1,0.3,0.1,0.4c0.1,0.1,0.2,0.1,0.3,0.1h149.7c0.1,0,0.3-0.1,0.3-0.1c0.1-0.1,0.1-0.2,0.1-0.4V-75.7
						C152.8-75.9,152.8-76,152.7-76.1 M3.1-75.2h148.7V74.7H3.1V-75.2z"/>
					<path class="st1" d="M151.8-75.2H3.1V74.7h148.7V-75.2 M151.1-74.7v0.2l0.2-0.2V73.9H4.1H3.8V-74.7H151.1z"/>
					<path class="st2" d="M144.7-67.9l6.4-6.5v-0.2H3.8V73.9H4l6.4-6.4V-67.9H144.7z"/>
					<path class="st3" d="M144.7-67.9L144.7-67.9l-0.1,135.1H10.9l-0.3,0.3l-6.4,6.4h147.2V-74.7l-0.2,0.2L144.7-67.9z"/>
					<path class="st4" d="M144.6-67.8L144.6-67.8L10.5-67.9V67.5l0.3-0.3h133.7v-135H144.6z"/>
				</g>
			</g>
		</g>
	</g>
	<g transform="matrix( 0.80828857421875, 0, 0, 0.80828857421875, 245.3,181.05) ">
		<g transform="matrix( 1, 0, 0, 1, 0,0) ">
			<g>
				<g id="Duplicate_Items_Folder_Symbol_4_0_Layer0_0_FILL_00000033357865755669866100000007837339411294685336_">
					<path class="st0" d="M151.5-76.1c-0.1-0.1-0.2-0.1-0.3-0.1H1.4c-0.1,0-0.3,0.1-0.3,0.1C1-76,0.9-75.9,0.9-75.7V75.2
						c0,0.1,0.1,0.3,0.1,0.4c0.1,0.1,0.2,0.1,0.3,0.1H151c0.1,0,0.3-0.1,0.3-0.1c0.1-0.1,0.1-0.2,0.1-0.4V-75.7
						C151.6-75.9,151.6-76,151.5-76.1 M1.9-75.2h148.7V74.7H1.9V-75.2z"/>
					<path class="st1" d="M150.6-75.2H1.9V74.7h148.7L150.6-75.2 M149.9-74.7v0.2l0.2-0.2V73.9H2.9H2.6V-74.7H149.9z"/>
					<path class="st2" d="M143.5-67.9l6.4-6.5v-0.2H2.6V73.9h0.2l6.4-6.4V-67.9H143.5z"/>
					<path class="st3" d="M143.5-67.9L143.5-67.9l-0.1,135.1H9.7l-0.3,0.3L3,73.9h147.2V-74.7l-0.2,0.2L143.5-67.9z"/>
					<path class="st4" d="M143.4-67.8L143.4-67.8L9.3-67.9V67.5l0.3-0.3h133.7L143.4-67.8L143.4-67.8z"/>
				</g>
			</g>
		</g>
	</g>
	<g transform="matrix( 0.80828857421875, 0, 0, 0.80828857421875, 367.75,181.05) ">
		<g transform="matrix( 1, 0, 0, 1, 0,0) ">
			<g>
				<g id="Duplicate_Items_Folder_Symbol_4_0_Layer0_0_FILL_00000145737734372285428120000000098250607328028847_">
					<path class="st0" d="M150.3-76.1c-0.1-0.1-0.2-0.1-0.3-0.1H0.2c-0.1,0-0.3,0.1-0.3,0.1c-0.1,0.1-0.1,0.2-0.1,0.4V75.2
						c0,0.1,0.1,0.3,0.1,0.4c0.1,0.1,0.2,0.1,0.3,0.1H150c0.1,0,0.3-0.1,0.3-0.1c0.1-0.1,0.1-0.2,0.1-0.4V-75.7
						C150.5-75.9,150.4-76,150.3-76.1 M0.7-75.2h148.7V74.7H0.7V-75.2z"/>
					<path class="st1" d="M149.5-75.2H0.7V74.7h148.7V-75.2 M148.7-74.7v0.2l0.2-0.2V73.9H1.7H1.5V-74.7H148.7z"/>
					<path class="st2" d="M142.3-67.9l6.4-6.5v-0.2H1.5V73.9h0.2l6.4-6.4V-67.9H142.3z"/>
					<path class="st3" d="M142.3-67.9L142.3-67.9l-0.1,135.1H8.5l-0.3,0.3l-6.4,6.4H149V-74.7l-0.2,0.2L142.3-67.9z"/>
					<path class="st4" d="M142.2-67.8L142.2-67.8l-134-0.1V67.5l0.3-0.3h133.7V-67.8z"/>
				</g>
			</g>
		</g>
	</g>
	<g transform="matrix( 0.80828857421875, 0, 0, 0.80828857421875, 490.2,181.05) ">
		<g transform="matrix( 1, 0, 0, 1, 0,0) ">
			<g>
				<g id="Duplicate_Items_Folder_Symbol_4_0_Layer0_0_FILL_00000048483184921922657120000003251561539696903040_">
					<path class="st0" d="M149.1-76.1c-0.1-0.1-0.2-0.1-0.3-0.1H-0.9c-0.1,0-0.3,0.1-0.3,0.1c-0.1,0.1-0.1,0.2-0.1,0.4V75.2
						c0,0.1,0.1,0.3,0.1,0.4c0.1,0.1,0.2,0.1,0.3,0.1h149.7c0.1,0,0.3-0.1,0.3-0.1c0.1-0.1,0.1-0.2,0.1-0.4V-75.7
						C149.3-75.9,149.2-76,149.1-76.1 M-0.4-75.2h148.7V74.7H-0.4V-75.2z"/>
					<path class="st1" d="M148.3-75.2H-0.4V74.7h148.7V-75.2 M147.6-74.7v0.2l0.2-0.2V73.9H0.5H0.3V-74.7H147.6z"/>
					<path class="st2" d="M141.2-67.9l6.4-6.5v-0.2H0.3V73.9h0.2L7,67.5V-67.9H141.2z"/>
					<path class="st3" d="M141.2-67.9L141.2-67.9l-0.1,135.1H7.3L7,67.5l-6.4,6.4h147.2V-74.7l-0.2,0.2L141.2-67.9z"/>
					<path class="st4" d="M141.1-67.8L141.1-67.8L7-67.9V67.5l0.3-0.3H141v-135H141.1z"/>
				</g>
			</g>
		</g>
	</g>
	<g transform="matrix( 0.80828857421875, 0, 0, 0.80828857421875, 612.65,181.05) ">
		<g transform="matrix( 1, 0, 0, 1, 0,0) ">
			<g>
				<g id="Duplicate_Items_Folder_Symbol_4_0_Layer0_0_FILL_00000098217089594599827130000007504543668754962354_">
					<path class="st0" d="M148-76.1c-0.1-0.1-0.2-0.1-0.3-0.1H-2.1c-0.1,0-0.3,0.1-0.3,0.1c-0.1,0.1-0.1,0.2-0.1,0.4V75.2
						c0,0.1,0.1,0.3,0.1,0.4c0.1,0.1,0.2,0.1,0.3,0.1h149.7c0.1,0,0.3-0.1,0.3-0.1c0.1-0.1,0.1-0.2,0.1-0.4V-75.7
						C148.1-75.9,148.1-76,148-76.1 M-1.6-75.2h148.7V74.7H-1.6V-75.2z"/>
					<path class="st1" d="M147.1-75.2H-1.6V74.7h148.7L147.1-75.2 M146.4-74.7v0.2l0.2-0.2V73.9H-0.6h-0.2V-74.7H146.4z"/>
					<path class="st2" d="M140-67.9l6.4-6.5v-0.2H-0.9V73.9h0.2l6.4-6.4V-67.9H140z"/>
					<path class="st3" d="M140-67.9L140-67.9l-0.1,135.1H6.2l-0.3,0.3l-6.4,6.4h147.2V-74.7l-0.2,0.2L140-67.9z"/>
					<path class="st4" d="M139.9-67.8L139.9-67.8L5.8-67.9V67.5l0.3-0.3h133.7L139.9-67.8L139.9-67.8z"/>
				</g>
			</g>
		</g>
	</g>
	<g transform="matrix( 0.80828857421875, 0, 0, 0.80828857421875, 735.2,181.05) ">
		<g transform="matrix( 1, 0, 0, 1, 0,0) ">
			<g>
				<g id="Duplicate_Items_Folder_Symbol_4_0_Layer0_0_FILL_00000048482115052319978770000006072974825167757704_">
					<path class="st0" d="M146.8-76.1c-0.1-0.1-0.2-0.1-0.3-0.1H-3.3c-0.1,0-0.3,0.1-0.3,0.1c-0.1,0.1-0.1,0.2-0.1,0.4V75.2
						c0,0.1,0.1,0.3,0.1,0.4c0.1,0.1,0.2,0.1,0.3,0.1h149.7c0.1,0,0.3-0.1,0.3-0.1c0.1-0.1,0.1-0.2,0.1-0.4V-75.7
						C146.9-75.9,146.9-76,146.8-76.1 M-2.8-75.2H146V74.7H-2.8V-75.2z"/>
					<path class="st1" d="M146-75.2H-2.8V74.7H146V-75.2 M145.2-74.7v0.2l0.2-0.2V73.9H-1.8H-2V-74.7H145.2z"/>
					<path class="st2" d="M138.8-67.9l6.4-6.5v-0.2H-2V73.9h0.2l6.4-6.4V-67.9H138.8z"/>
					<path class="st3" d="M138.8-67.9L138.8-67.9l-0.1,135.1H5l-0.3,0.3l-6.4,6.4h147.2V-74.7l-0.2,0.2L138.8-67.9z"/>
					<path class="st4" d="M138.7-67.8L138.7-67.8l-134-0.1V67.5L5,67.2h133.7V-67.8z"/>
				</g>
			</g>
		</g>
	</g>
	<g transform="matrix( 0.80828857421875, 0, 0, 0.80828857421875, 0.4,300.65) ">
		<g transform="matrix( 1, 0, 0, 1, 0,0) ">
			<g>
				<g id="Duplicate_Items_Folder_Symbol_4_0_Layer0_0_FILL_00000127024286884559174220000004834808001671814819_">
					<path class="st0" d="M153.8-76.1c-0.1-0.1-0.2-0.1-0.3-0.1H3.7c-0.1,0-0.3,0.1-0.3,0.1c-0.1,0.1-0.1,0.2-0.1,0.4V75.2
						c0,0.1,0.1,0.3,0.1,0.4c0.1,0.1,0.2,0.1,0.3,0.1h149.7c0.1,0,0.3-0.1,0.3-0.1c0.1-0.1,0.1-0.2,0.1-0.4V-75.7
						C154-75.9,153.9-76,153.8-76.1 M4.2-75.2H153V74.7H4.2V-75.2z"/>
					<path class="st1" d="M153-75.2H4.2V74.7H153V-75.2 M152.2-74.7v0.2l0.2-0.2V73.9H5.2H5V-74.7H152.2z"/>
					<path class="st2" d="M145.8-67.9l6.4-6.5v-0.2H5V73.9h0.2l6.4-6.4V-67.9H145.8z"/>
					<path class="st3" d="M145.8-67.9L145.8-67.9l-0.1,135.1H12l-0.3,0.3l-6.4,6.4h147.2V-74.7l-0.2,0.2L145.8-67.9z"/>
					<path class="st4" d="M145.7-67.8L145.7-67.8l-134-0.1V67.5l0.3-0.3h133.7V-67.8z"/>
				</g>
			</g>
		</g>
	</g>
	<g transform="matrix( 0.80828857421875, 0, 0, 0.80828857421875, 122.85,300.65) ">
		<g transform="matrix( 1, 0, 0, 1, 0,0) ">
			<g>
				<g id="Duplicate_Items_Folder_Symbol_4_0_Layer0_0_FILL_00000020380242139765454840000014868946191386986166_">
					<path class="st0" d="M152.7-76.1c-0.1-0.1-0.2-0.1-0.3-0.1H2.6c-0.1,0-0.3,0.1-0.3,0.1c-0.1,0.1-0.1,0.2-0.1,0.4V75.2
						c0,0.1,0.1,0.3,0.1,0.4c0.1,0.1,0.2,0.1,0.3,0.1h149.7c0.1,0,0.3-0.1,0.3-0.1c0.1-0.1,0.1-0.2,0.1-0.4V-75.7
						C152.8-75.9,152.8-76,152.7-76.1 M3.1-75.2h148.7V74.7H3.1V-75.2z"/>
					<path class="st1" d="M151.8-75.2H3.1V74.7h148.7V-75.2 M151.1-74.7v0.2l0.2-0.2V73.9H4.1H3.8V-74.7H151.1z"/>
					<path class="st2" d="M144.7-67.9l6.4-6.5v-0.2H3.8V73.9H4l6.4-6.4V-67.9H144.7z"/>
					<path class="st3" d="M144.7-67.9L144.7-67.9l-0.1,135.1H10.9l-0.3,0.3l-6.4,6.4h147.2V-74.7l-0.2,0.2L144.7-67.9z"/>
					<path class="st4" d="M144.6-67.8L144.6-67.8L10.5-67.9V67.5l0.3-0.3h133.7v-135H144.6z"/>
				</g>
			</g>
		</g>
	</g>
	<g transform="matrix( 0.80828857421875, 0, 0, 0.80828857421875, 245.3,300.65) ">
		<g transform="matrix( 1, 0, 0, 1, 0,0) ">
			<g>
				<g id="Duplicate_Items_Folder_Symbol_4_0_Layer0_0_FILL_00000143589691710794000380000001467482418706008745_">
					<path class="st0" d="M151.5-76.1c-0.1-0.1-0.2-0.1-0.3-0.1H1.4c-0.1,0-0.3,0.1-0.3,0.1C1-76,0.9-75.9,0.9-75.7V75.2
						c0,0.1,0.1,0.3,0.1,0.4c0.1,0.1,0.2,0.1,0.3,0.1H151c0.1,0,0.3-0.1,0.3-0.1c0.1-0.1,0.1-0.2,0.1-0.4V-75.7
						C151.6-75.9,151.6-76,151.5-76.1 M1.9-75.2h148.7V74.7H1.9V-75.2z"/>
					<path class="st1" d="M150.6-75.2H1.9V74.7h148.7L150.6-75.2 M149.9-74.7v0.2l0.2-0.2V73.9H2.9H2.6V-74.7H149.9z"/>
					<path class="st2" d="M143.5-67.9l6.4-6.5v-0.2H2.6V73.9h0.2l6.4-6.4V-67.9H143.5z"/>
					<path class="st3" d="M143.5-67.9L143.5-67.9l-0.1,135.1H9.7l-0.3,0.3L3,73.9h147.2V-74.7l-0.2,0.2L143.5-67.9z"/>
					<path class="st8" d="M143.4-67.8L143.4-67.8L9.3-67.9V67.5l0.3-0.3h133.7L143.4-67.8L143.4-67.8z"/>
				</g>
			</g>
		</g>
	</g>
	<g transform="matrix( 0.80828857421875, 0, 0, 0.80828857421875, 367.75,300.65) ">
		<g transform="matrix( 1, 0, 0, 1, 0,0) ">
			<g>
				<g id="Duplicate_Items_Folder_Symbol_4_0_Layer0_0_FILL_00000081647693810739387920000016970750400242393503_">
					<path class="st0" d="M150.3-76.1c-0.1-0.1-0.2-0.1-0.3-0.1H0.2c-0.1,0-0.3,0.1-0.3,0.1c-0.1,0.1-0.1,0.2-0.1,0.4V75.2
						c0,0.1,0.1,0.3,0.1,0.4c0.1,0.1,0.2,0.1,0.3,0.1H150c0.1,0,0.3-0.1,0.3-0.1c0.1-0.1,0.1-0.2,0.1-0.4V-75.7
						C150.5-75.9,150.4-76,150.3-76.1 M0.7-75.2h148.7V74.7H0.7V-75.2z"/>
					<path class="st1" d="M149.5-75.2H0.7V74.7h148.7V-75.2 M148.7-74.7v0.2l0.2-0.2V73.9H1.7H1.5V-74.7H148.7z"/>
					<path class="st2" d="M142.3-67.9l6.4-6.5v-0.2H1.5V73.9h0.2l6.4-6.4V-67.9H142.3z"/>
					<path class="st3" d="M142.3-67.9L142.3-67.9l-0.1,135.1H8.5l-0.3,0.3l-6.4,6.4H149V-74.7l-0.2,0.2L142.3-67.9z"/>
					<path class="st4" d="M142.2-67.8L142.2-67.8l-134-0.1V67.5l0.3-0.3h133.7V-67.8z"/>
				</g>
			</g>
		</g>
	</g>
	<g transform="matrix( 0.80828857421875, 0, 0, 0.80828857421875, 490.2,300.65) ">
		<g transform="matrix( 1, 0, 0, 1, 0,0) ">
			<g>
				<g id="Duplicate_Items_Folder_Symbol_4_0_Layer0_0_FILL_00000101085341573872540630000016773882472006805659_">
					<path class="st0" d="M149.1-76.1c-0.1-0.1-0.2-0.1-0.3-0.1H-0.9c-0.1,0-0.3,0.1-0.3,0.1c-0.1,0.1-0.1,0.2-0.1,0.4V75.2
						c0,0.1,0.1,0.3,0.1,0.4c0.1,0.1,0.2,0.1,0.3,0.1h149.7c0.1,0,0.3-0.1,0.3-0.1c0.1-0.1,0.1-0.2,0.1-0.4V-75.7
						C149.3-75.9,149.2-76,149.1-76.1 M-0.4-75.2h148.7V74.7H-0.4V-75.2z"/>
					<path class="st1" d="M148.3-75.2H-0.4V74.7h148.7V-75.2 M147.6-74.7v0.2l0.2-0.2V73.9H0.5H0.3V-74.7H147.6z"/>
					<path class="st2" d="M141.2-67.9l6.4-6.5v-0.2H0.3V73.9h0.2L7,67.5V-67.9H141.2z"/>
					<path class="st3" d="M141.2-67.9L141.2-67.9l-0.1,135.1H7.3L7,67.5l-6.4,6.4h147.2V-74.7l-0.2,0.2L141.2-67.9z"/>
					<path class="st9" d="M141.1-67.8L141.1-67.8L7-67.9V67.5l0.3-0.3H141v-135H141.1z"/>
				</g>
			</g>
		</g>
	</g>
	<g transform="matrix( 0.80828857421875, 0, 0, 0.80828857421875, 612.65,300.65) ">
		<g transform="matrix( 1, 0, 0, 1, 0,0) ">
			<g>
				<g id="Duplicate_Items_Folder_Symbol_4_0_Layer0_0_FILL_00000180326312454524565460000006245114545542771089_">
					<path class="st0" d="M148-76.1c-0.1-0.1-0.2-0.1-0.3-0.1H-2.1c-0.1,0-0.3,0.1-0.3,0.1c-0.1,0.1-0.1,0.2-0.1,0.4V75.2
						c0,0.1,0.1,0.3,0.1,0.4c0.1,0.1,0.2,0.1,0.3,0.1h149.7c0.1,0,0.3-0.1,0.3-0.1c0.1-0.1,0.1-0.2,0.1-0.4V-75.7
						C148.1-75.9,148.1-76,148-76.1 M-1.6-75.2h148.7V74.7H-1.6V-75.2z"/>
					<path class="st1" d="M147.1-75.2H-1.6V74.7h148.7L147.1-75.2 M146.4-74.7v0.2l0.2-0.2V73.9H-0.6h-0.2V-74.7H146.4z"/>
					<path class="st2" d="M140-67.9l6.4-6.5v-0.2H-0.9V73.9h0.2l6.4-6.4V-67.9H140z"/>
					<path class="st3" d="M140-67.9L140-67.9l-0.1,135.1H6.2l-0.3,0.3l-6.4,6.4h147.2V-74.7l-0.2,0.2L140-67.9z"/>
					<path class="st4" d="M139.9-67.8L139.9-67.8L5.8-67.9V67.5l0.3-0.3h133.7L139.9-67.8L139.9-67.8z"/>
				</g>
			</g>
		</g>
	</g>
	<g transform="matrix( 0.80828857421875, 0, 0, 0.80828857421875, 735.2,300.65) ">
		<g transform="matrix( 1, 0, 0, 1, 0,0) ">
			<g>
				<g id="Duplicate_Items_Folder_Symbol_4_0_Layer0_0_FILL_00000037662926157978586080000003698215917179208626_">
					<path class="st0" d="M146.8-76.1c-0.1-0.1-0.2-0.1-0.3-0.1H-3.3c-0.1,0-0.3,0.1-0.3,0.1c-0.1,0.1-0.1,0.2-0.1,0.4V75.2
						c0,0.1,0.1,0.3,0.1,0.4c0.1,0.1,0.2,0.1,0.3,0.1h149.7c0.1,0,0.3-0.1,0.3-0.1c0.1-0.1,0.1-0.2,0.1-0.4V-75.7
						C146.9-75.9,146.9-76,146.8-76.1 M-2.8-75.2H146V74.7H-2.8V-75.2z"/>
					<path class="st1" d="M146-75.2H-2.8V74.7H146V-75.2 M145.2-74.7v0.2l0.2-0.2V73.9H-1.8H-2V-74.7H145.2z"/>
					<path class="st2" d="M138.8-67.9l6.4-6.5v-0.2H-2V73.9h0.2l6.4-6.4V-67.9H138.8z"/>
					<path class="st3" d="M138.8-67.9L138.8-67.9l-0.1,135.1H5l-0.3,0.3l-6.4,6.4h147.2V-74.7l-0.2,0.2L138.8-67.9z"/>
					<path class="st4" d="M138.7-67.8L138.7-67.8l-134-0.1V67.5L5,67.2h133.7V-67.8z"/>
				</g>
			</g>
		</g>
	</g>
	<g transform="matrix( 0.80828857421875, 0, 0, 0.80828857421875, 0.4,420.3) ">
		<g transform="matrix( 1, 0, 0, 1, 0,0) ">
			<g>
				<g id="Duplicate_Items_Folder_Symbol_4_0_Layer0_0_FILL_00000063594509381718679450000001290298100037845132_">
					<path class="st0" d="M153.8-76.1c-0.1-0.1-0.2-0.1-0.3-0.1H3.7c-0.1,0-0.3,0.1-0.3,0.1c-0.1,0.1-0.1,0.2-0.1,0.4V75.2
						c0,0.1,0.1,0.3,0.1,0.4c0.1,0.1,0.2,0.1,0.3,0.1h149.7c0.1,0,0.3-0.1,0.3-0.1c0.1-0.1,0.1-0.2,0.1-0.4V-75.7
						C154-75.9,153.9-76,153.8-76.1 M4.2-75.2H153V74.7H4.2V-75.2z"/>
					<path class="st1" d="M153-75.2H4.2V74.7H153V-75.2 M152.2-74.7v0.2l0.2-0.2V73.9H5.2H5V-74.7H152.2z"/>
					<path class="st2" d="M145.8-67.9l6.4-6.5v-0.2H5V73.9h0.2l6.4-6.4V-67.9H145.8z"/>
					<path class="st3" d="M145.8-67.9L145.8-67.9l-0.1,135.1H12l-0.3,0.3l-6.4,6.4h147.2V-74.7l-0.2,0.2L145.8-67.9z"/>
					<path class="st4" d="M145.7-67.8L145.7-67.8l-134-0.1V67.5l0.3-0.3h133.7V-67.8z"/>
				</g>
			</g>
		</g>
	</g>
	<g transform="matrix( 0.80828857421875, 0, 0, 0.80828857421875, 122.85,420.3) ">
		<g transform="matrix( 1, 0, 0, 1, 0,0) ">
			<g>
				<g id="Duplicate_Items_Folder_Symbol_4_0_Layer0_0_FILL_00000016797044142060919450000017870866123137992126_">
					<path class="st0" d="M152.7-76.1c-0.1-0.1-0.2-0.1-0.3-0.1H2.6c-0.1,0-0.3,0.1-0.3,0.1c-0.1,0.1-0.1,0.2-0.1,0.4V75.2
						c0,0.1,0.1,0.3,0.1,0.4c0.1,0.1,0.2,0.1,0.3,0.1h149.7c0.1,0,0.3-0.1,0.3-0.1c0.1-0.1,0.1-0.2,0.1-0.4V-75.7
						C152.8-75.9,152.8-76,152.7-76.1 M3.1-75.2h148.7V74.7H3.1V-75.2z"/>
					<path class="st1" d="M151.8-75.2H3.1V74.7h148.7V-75.2 M151.1-74.7v0.2l0.2-0.2V73.9H4.1H3.8V-74.7H151.1z"/>
					<path class="st2" d="M144.7-67.9l6.4-6.5v-0.2H3.8V73.9H4l6.4-6.4V-67.9H144.7z"/>
					<path class="st3" d="M144.7-67.9L144.7-67.9l-0.1,135.1H10.9l-0.3,0.3l-6.4,6.4h147.2V-74.7l-0.2,0.2L144.7-67.9z"/>
					<path class="st4" d="M144.6-67.8L144.6-67.8L10.5-67.9V67.5l0.3-0.3h133.7v-135H144.6z"/>
				</g>
			</g>
		</g>
	</g>
	<g transform="matrix( 0.80828857421875, 0, 0, 0.80828857421875, 245.3,420.3) ">
		<g transform="matrix( 1, 0, 0, 1, 0,0) ">
			<g>
				<g id="Duplicate_Items_Folder_Symbol_4_0_Layer0_0_FILL_00000052096228674270154890000002771930182163838136_">
					<path class="st0" d="M151.5-76.1c-0.1-0.1-0.2-0.1-0.3-0.1H1.4c-0.1,0-0.3,0.1-0.3,0.1C1-76,0.9-75.9,0.9-75.7V75.2
						c0,0.1,0.1,0.3,0.1,0.4c0.1,0.1,0.2,0.1,0.3,0.1H151c0.1,0,0.3-0.1,0.3-0.1c0.1-0.1,0.1-0.2,0.1-0.4V-75.7
						C151.6-75.9,151.6-76,151.5-76.1 M1.9-75.2h148.7V74.7H1.9V-75.2z"/>
					<path class="st1" d="M150.6-75.2H1.9V74.7h148.7L150.6-75.2 M149.9-74.7v0.2l0.2-0.2V73.9H2.9H2.6V-74.7H149.9z"/>
					<path class="st2" d="M143.5-67.9l6.4-6.5v-0.2H2.6V73.9h0.2l6.4-6.4V-67.9H143.5z"/>
					<path class="st3" d="M143.5-67.9L143.5-67.9l-0.1,135.1H9.7l-0.3,0.3L3,73.9h147.2V-74.7l-0.2,0.2L143.5-67.9z"/>
					<path class="st4" d="M143.4-67.8L143.4-67.8L9.3-67.9V67.5l0.3-0.3h133.7L143.4-67.8L143.4-67.8z"/>
				</g>
			</g>
		</g>
	</g>
	<g transform="matrix( 0.80828857421875, 0, 0, 0.80828857421875, 367.75,420.3) ">
		<g transform="matrix( 1, 0, 0, 1, 0,0) ">
			<g>
				<g id="Duplicate_Items_Folder_Symbol_4_0_Layer0_0_FILL_00000009578991873829025820000004174113798812483972_">
					<path class="st0" d="M150.3-76.1c-0.1-0.1-0.2-0.1-0.3-0.1H0.2c-0.1,0-0.3,0.1-0.3,0.1c-0.1,0.1-0.1,0.2-0.1,0.4V75.2
						c0,0.1,0.1,0.3,0.1,0.4c0.1,0.1,0.2,0.1,0.3,0.1H150c0.1,0,0.3-0.1,0.3-0.1c0.1-0.1,0.1-0.2,0.1-0.4V-75.7
						C150.5-75.9,150.4-76,150.3-76.1 M0.7-75.2h148.7V74.7H0.7V-75.2z"/>
					<path class="st1" d="M149.5-75.2H0.7V74.7h148.7V-75.2 M148.7-74.7v0.2l0.2-0.2V73.9H1.7H1.5V-74.7H148.7z"/>
					<path class="st2" d="M142.3-67.9l6.4-6.5v-0.2H1.5V73.9h0.2l6.4-6.4V-67.9H142.3z"/>
					<path class="st3" d="M142.3-67.9L142.3-67.9l-0.1,135.1H8.5l-0.3,0.3l-6.4,6.4H149V-74.7l-0.2,0.2L142.3-67.9z"/>
					<path class="st4" d="M142.2-67.8L142.2-67.8l-134-0.1V67.5l0.3-0.3h133.7V-67.8z"/>
				</g>
			</g>
		</g>
	</g>
	<g transform="matrix( 0.80828857421875, 0, 0, 0.80828857421875, 490.2,420.3) ">
		<g transform="matrix( 1, 0, 0, 1, 0,0) ">
			<g>
				<g id="Duplicate_Items_Folder_Symbol_4_0_Layer0_0_FILL_00000116227654466386827740000001009115525496689573_">
					<path class="st0" d="M149.1-76.1c-0.1-0.1-0.2-0.1-0.3-0.1H-0.9c-0.1,0-0.3,0.1-0.3,0.1c-0.1,0.1-0.1,0.2-0.1,0.4V75.2
						c0,0.1,0.1,0.3,0.1,0.4c0.1,0.1,0.2,0.1,0.3,0.1h149.7c0.1,0,0.3-0.1,0.3-0.1c0.1-0.1,0.1-0.2,0.1-0.4V-75.7
						C149.3-75.9,149.2-76,149.1-76.1 M-0.4-75.2h148.7V74.7H-0.4V-75.2z"/>
					<path class="st1" d="M148.3-75.2H-0.4V74.7h148.7V-75.2 M147.6-74.7v0.2l0.2-0.2V73.9H0.5H0.3V-74.7H147.6z"/>
					<path class="st2" d="M141.2-67.9l6.4-6.5v-0.2H0.3V73.9h0.2L7,67.5V-67.9H141.2z"/>
					<path class="st3" d="M141.2-67.9L141.2-67.9l-0.1,135.1H7.3L7,67.5l-6.4,6.4h147.2V-74.7l-0.2,0.2L141.2-67.9z"/>
					<path class="st4" d="M141.1-67.8L141.1-67.8L7-67.9V67.5l0.3-0.3H141v-135H141.1z"/>
				</g>
			</g>
		</g>
	</g>
	<g transform="matrix( 0.80828857421875, 0, 0, 0.80828857421875, 612.65,420.3) ">
		<g transform="matrix( 1, 0, 0, 1, 0,0) ">
			<g>
				<g id="Duplicate_Items_Folder_Symbol_4_0_Layer0_0_FILL_00000177452165754303531310000015956352157417289913_">
					<path class="st0" d="M148-76.1c-0.1-0.1-0.2-0.1-0.3-0.1H-2.1c-0.1,0-0.3,0.1-0.3,0.1c-0.1,0.1-0.1,0.2-0.1,0.4V75.2
						c0,0.1,0.1,0.3,0.1,0.4c0.1,0.1,0.2,0.1,0.3,0.1h149.7c0.1,0,0.3-0.1,0.3-0.1c0.1-0.1,0.1-0.2,0.1-0.4V-75.7
						C148.1-75.9,148.1-76,148-76.1 M-1.6-75.2h148.7V74.7H-1.6V-75.2z"/>
					<path class="st1" d="M147.1-75.2H-1.6V74.7h148.7L147.1-75.2 M146.4-74.7v0.2l0.2-0.2V73.9H-0.6h-0.2V-74.7H146.4z"/>
					<path class="st2" d="M140-67.9l6.4-6.5v-0.2H-0.9V73.9h0.2l6.4-6.4V-67.9H140z"/>
					<path class="st3" d="M140-67.9L140-67.9l-0.1,135.1H6.2l-0.3,0.3l-6.4,6.4h147.2V-74.7l-0.2,0.2L140-67.9z"/>
					<path class="st5" d="M139.9-67.8L139.9-67.8L5.8-67.9V67.5l0.3-0.3h133.7L139.9-67.8L139.9-67.8z"/>
				</g>
			</g>
		</g>
	</g>
	<g transform="matrix( 0.80828857421875, 0, 0, 0.80828857421875, 735.2,420.3) ">
		<g transform="matrix( 1, 0, 0, 1, 0,0) ">
			<g>
				<g id="Duplicate_Items_Folder_Symbol_4_0_Layer0_0_FILL_00000081646626589692745090000014802872453466246544_">
					<path class="st0" d="M146.8-76.1c-0.1-0.1-0.2-0.1-0.3-0.1H-3.3c-0.1,0-0.3,0.1-0.3,0.1c-0.1,0.1-0.1,0.2-0.1,0.4V75.2
						c0,0.1,0.1,0.3,0.1,0.4c0.1,0.1,0.2,0.1,0.3,0.1h149.7c0.1,0,0.3-0.1,0.3-0.1c0.1-0.1,0.1-0.2,0.1-0.4V-75.7
						C146.9-75.9,146.9-76,146.8-76.1 M-2.8-75.2H146V74.7H-2.8V-75.2z"/>
					<path class="st1" d="M146-75.2H-2.8V74.7H146V-75.2 M145.2-74.7v0.2l0.2-0.2V73.9H-1.8H-2V-74.7H145.2z"/>
					<path class="st2" d="M138.8-67.9l6.4-6.5v-0.2H-2V73.9h0.2l6.4-6.4V-67.9H138.8z"/>
					<path class="st3" d="M138.8-67.9L138.8-67.9l-0.1,135.1H5l-0.3,0.3l-6.4,6.4h147.2V-74.7l-0.2,0.2L138.8-67.9z"/>
					<path class="st4" d="M138.7-67.8L138.7-67.8l-134-0.1V67.5L5,67.2h133.7V-67.8z"/>
				</g>
			</g>
		</g>
	</g>
	<g transform="matrix( 0.80828857421875, 0, 0, 0.80828857421875, 0.4,540.05) ">
		<g transform="matrix( 1, 0, 0, 1, 0,0) ">
			<g>
				<g id="Duplicate_Items_Folder_Symbol_4_0_Layer0_0_FILL_00000000201206562515351060000008075494481181985469_">
					<path class="st0" d="M153.8-76.1c-0.1-0.1-0.2-0.1-0.3-0.1H3.7c-0.1,0-0.3,0.1-0.3,0.1c-0.1,0.1-0.1,0.2-0.1,0.4V75.2
						c0,0.1,0.1,0.3,0.1,0.4c0.1,0.1,0.2,0.1,0.3,0.1h149.7c0.1,0,0.3-0.1,0.3-0.1c0.1-0.1,0.1-0.2,0.1-0.4V-75.7
						C154-75.9,153.9-76,153.8-76.1 M4.2-75.2H153V74.7H4.2V-75.2z"/>
					<path class="st1" d="M153-75.2H4.2V74.7H153V-75.2 M152.2-74.7v0.2l0.2-0.2V73.9H5.2H5V-74.7H152.2z"/>
					<path class="st2" d="M145.8-67.9l6.4-6.5v-0.2H5V73.9h0.2l6.4-6.4V-67.9H145.8z"/>
					<path class="st3" d="M145.8-67.9L145.8-67.9l-0.1,135.1H12l-0.3,0.3l-6.4,6.4h147.2V-74.7l-0.2,0.2L145.8-67.9z"/>
					<path class="st10" d="M145.7-67.8L145.7-67.8l-134-0.1V67.5l0.3-0.3h133.7V-67.8z"/>
				</g>
			</g>
		</g>
	</g>
	<g transform="matrix( 0.80828857421875, 0, 0, 0.80828857421875, 122.85,540.05) ">
		<g transform="matrix( 1, 0, 0, 1, 0,0) ">
			<g>
				<g id="Duplicate_Items_Folder_Symbol_4_0_Layer0_0_FILL_00000067195527795790935800000014680493682669724305_">
					<path class="st0" d="M152.7-76.1c-0.1-0.1-0.2-0.1-0.3-0.1H2.6c-0.1,0-0.3,0.1-0.3,0.1c-0.1,0.1-0.1,0.2-0.1,0.4V75.2
						c0,0.1,0.1,0.3,0.1,0.4c0.1,0.1,0.2,0.1,0.3,0.1h149.7c0.1,0,0.3-0.1,0.3-0.1c0.1-0.1,0.1-0.2,0.1-0.4V-75.7
						C152.8-75.9,152.8-76,152.7-76.1 M3.1-75.2h148.7V74.7H3.1V-75.2z"/>
					<path class="st1" d="M151.8-75.2H3.1V74.7h148.7V-75.2 M151.1-74.7v0.2l0.2-0.2V73.9H4.1H3.8V-74.7H151.1z"/>
					<path class="st2" d="M144.7-67.9l6.4-6.5v-0.2H3.8V73.9H4l6.4-6.4V-67.9H144.7z"/>
					<path class="st3" d="M144.7-67.9L144.7-67.9l-0.1,135.1H10.9l-0.3,0.3l-6.4,6.4h147.2V-74.7l-0.2,0.2L144.7-67.9z"/>
					<path class="st4" d="M144.6-67.8L144.6-67.8L10.5-67.9V67.5l0.3-0.3h133.7v-135H144.6z"/>
				</g>
			</g>
		</g>
	</g>
	<g transform="matrix( 0.80828857421875, 0, 0, 0.80828857421875, 245.3,540.05) ">
		<g transform="matrix( 1, 0, 0, 1, 0,0) ">
			<g>
				<g id="Duplicate_Items_Folder_Symbol_4_0_Layer0_0_FILL_00000153689579709917889390000004461948754114239648_">
					<path class="st0" d="M151.5-76.1c-0.1-0.1-0.2-0.1-0.3-0.1H1.4c-0.1,0-0.3,0.1-0.3,0.1C1-76,0.9-75.9,0.9-75.7V75.2
						c0,0.1,0.1,0.3,0.1,0.4c0.1,0.1,0.2,0.1,0.3,0.1H151c0.1,0,0.3-0.1,0.3-0.1c0.1-0.1,0.1-0.2,0.1-0.4V-75.7
						C151.6-75.9,151.6-76,151.5-76.1 M1.9-75.2h148.7V74.7H1.9V-75.2z"/>
					<path class="st1" d="M150.6-75.2H1.9V74.7h148.7L150.6-75.2 M149.9-74.7v0.2l0.2-0.2V73.9H2.9H2.6V-74.7H149.9z"/>
					<path class="st2" d="M143.5-67.9l6.4-6.5v-0.2H2.6V73.9h0.2l6.4-6.4V-67.9H143.5z"/>
					<path class="st3" d="M143.5-67.9L143.5-67.9l-0.1,135.1H9.7l-0.3,0.3L3,73.9h147.2V-74.7l-0.2,0.2L143.5-67.9z"/>
					<path class="st4" d="M143.4-67.8L143.4-67.8L9.3-67.9V67.5l0.3-0.3h133.7L143.4-67.8L143.4-67.8z"/>
				</g>
			</g>
		</g>
	</g>
	<g transform="matrix( 0.80828857421875, 0, 0, 0.80828857421875, 367.75,540.05) ">
		<g transform="matrix( 1, 0, 0, 1, 0,0) ">
			<g>
				<g id="Duplicate_Items_Folder_Symbol_4_0_Layer0_0_FILL_00000047781479519611349770000014411235579538908351_">
					<path class="st0" d="M150.3-76.1c-0.1-0.1-0.2-0.1-0.3-0.1H0.2c-0.1,0-0.3,0.1-0.3,0.1c-0.1,0.1-0.1,0.2-0.1,0.4V75.2
						c0,0.1,0.1,0.3,0.1,0.4c0.1,0.1,0.2,0.1,0.3,0.1H150c0.1,0,0.3-0.1,0.3-0.1c0.1-0.1,0.1-0.2,0.1-0.4V-75.7
						C150.5-75.9,150.4-76,150.3-76.1 M0.7-75.2h148.7V74.7H0.7V-75.2z"/>
					<path class="st1" d="M149.5-75.2H0.7V74.7h148.7V-75.2 M148.7-74.7v0.2l0.2-0.2V73.9H1.7H1.5V-74.7H148.7z"/>
					<path class="st2" d="M142.3-67.9l6.4-6.5v-0.2H1.5V73.9h0.2l6.4-6.4V-67.9H142.3z"/>
					<path class="st3" d="M142.3-67.9L142.3-67.9l-0.1,135.1H8.5l-0.3,0.3l-6.4,6.4H149V-74.7l-0.2,0.2L142.3-67.9z"/>
					<path class="st6" d="M142.2-67.8L142.2-67.8l-134-0.1V67.5l0.3-0.3h133.7V-67.8z"/>
				</g>
			</g>
		</g>
	</g>
	<g transform="matrix( 0.80828857421875, 0, 0, 0.80828857421875, 490.2,540.05) ">
		<g transform="matrix( 1, 0, 0, 1, 0,0) ">
			<g>
				<g id="Duplicate_Items_Folder_Symbol_4_0_Layer0_0_FILL_00000155867567608452467580000017528469487584083368_">
					<path class="st0" d="M149.1-76.1c-0.1-0.1-0.2-0.1-0.3-0.1H-0.9c-0.1,0-0.3,0.1-0.3,0.1c-0.1,0.1-0.1,0.2-0.1,0.4V75.2
						c0,0.1,0.1,0.3,0.1,0.4c0.1,0.1,0.2,0.1,0.3,0.1h149.7c0.1,0,0.3-0.1,0.3-0.1c0.1-0.1,0.1-0.2,0.1-0.4V-75.7
						C149.3-75.9,149.2-76,149.1-76.1 M-0.4-75.2h148.7V74.7H-0.4V-75.2z"/>
					<path class="st1" d="M148.3-75.2H-0.4V74.7h148.7V-75.2 M147.6-74.7v0.2l0.2-0.2V73.9H0.5H0.3V-74.7H147.6z"/>
					<path class="st2" d="M141.2-67.9l6.4-6.5v-0.2H0.3V73.9h0.2L7,67.5V-67.9H141.2z"/>
					<path class="st3" d="M141.2-67.9L141.2-67.9l-0.1,135.1H7.3L7,67.5l-6.4,6.4h147.2V-74.7l-0.2,0.2L141.2-67.9z"/>
					<path class="st4" d="M141.1-67.8L141.1-67.8L7-67.9V67.5l0.3-0.3H141v-135H141.1z"/>
				</g>
			</g>
		</g>
	</g>
	<g transform="matrix( 0.80828857421875, 0, 0, 0.80828857421875, 612.65,540.05) ">
		<g transform="matrix( 1, 0, 0, 1, 0,0) ">
			<g>
				<g id="Duplicate_Items_Folder_Symbol_4_0_Layer0_0_FILL_00000095322087089564154990000016987976499450678191_">
					<path class="st0" d="M148-76.1c-0.1-0.1-0.2-0.1-0.3-0.1H-2.1c-0.1,0-0.3,0.1-0.3,0.1c-0.1,0.1-0.1,0.2-0.1,0.4V75.2
						c0,0.1,0.1,0.3,0.1,0.4c0.1,0.1,0.2,0.1,0.3,0.1h149.7c0.1,0,0.3-0.1,0.3-0.1c0.1-0.1,0.1-0.2,0.1-0.4V-75.7
						C148.1-75.9,148.1-76,148-76.1 M-1.6-75.2h148.7V74.7H-1.6V-75.2z"/>
					<path class="st1" d="M147.1-75.2H-1.6V74.7h148.7L147.1-75.2 M146.4-74.7v0.2l0.2-0.2V73.9H-0.6h-0.2V-74.7H146.4z"/>
					<path class="st2" d="M140-67.9l6.4-6.5v-0.2H-0.9V73.9h0.2l6.4-6.4V-67.9H140z"/>
					<path class="st3" d="M140-67.9L140-67.9l-0.1,135.1H6.2l-0.3,0.3l-6.4,6.4h147.2V-74.7l-0.2,0.2L140-67.9z"/>
					<path class="st4" d="M139.9-67.8L139.9-67.8L5.8-67.9V67.5l0.3-0.3h133.7L139.9-67.8L139.9-67.8z"/>
				</g>
			</g>
		</g>
	</g>
	<g transform="matrix( 0.80828857421875, 0, 0, 0.80828857421875, 735.2,540.05) ">
		<g transform="matrix( 1, 0, 0, 1, 0,0) ">
			<g>
				<g id="Duplicate_Items_Folder_Symbol_4_0_Layer0_0_FILL_00000028293577923037564990000009941849023239914172_">
					<path class="st0" d="M146.8-76.1c-0.1-0.1-0.2-0.1-0.3-0.1H-3.3c-0.1,0-0.3,0.1-0.3,0.1c-0.1,0.1-0.1,0.2-0.1,0.4V75.2
						c0,0.1,0.1,0.3,0.1,0.4c0.1,0.1,0.2,0.1,0.3,0.1h149.7c0.1,0,0.3-0.1,0.3-0.1c0.1-0.1,0.1-0.2,0.1-0.4V-75.7
						C146.9-75.9,146.9-76,146.8-76.1 M-2.8-75.2H146V74.7H-2.8V-75.2z"/>
					<path class="st1" d="M146-75.2H-2.8V74.7H146V-75.2 M145.2-74.7v0.2l0.2-0.2V73.9H-1.8H-2V-74.7H145.2z"/>
					<path class="st2" d="M138.8-67.9l6.4-6.5v-0.2H-2V73.9h0.2l6.4-6.4V-67.9H138.8z"/>
					<path class="st3" d="M138.8-67.9L138.8-67.9l-0.1,135.1H5l-0.3,0.3l-6.4,6.4h147.2V-74.7l-0.2,0.2L138.8-67.9z"/>
					<path class="st8" d="M138.7-67.8L138.7-67.8l-134-0.1V67.5L5,67.2h133.7V-67.8z"/>
				</g>
			</g>
		</g>
	</g>
</g>
<g>
	<g>
		<path class="st11" d="M751.3,555l0.5-0.8c6.1-14.4,25.2-29.2,45.6-36.4c17-6,28-7.7,28.2-7.7l0.9,0.1l-0.7,0.6
			c-0.1,0.1-0.2,0.2-0.3,0.3c-0.3,7.2-15.8,28.5-34.3,38.2c-18.3,9.6-34.5,8.4-38.7,5.5c-0.1,0-0.2,0-0.3,0.1L751.3,555z"/>
		<path class="st12" d="M751.3,555l0.5-0.8c6.1-14.4,25.2-29.2,45.6-36.4c17-6,28-7.7,28.2-7.7l0.9,0.1l-0.7,0.6
			c-0.1,0.1-0.2,0.2-0.3,0.3c-0.3,7.2-17.2,25.4-37.8,28.9c-18.4,3.1-23.3,3.6-35.2,14.7c-0.1,0-0.2,0-0.3,0.1L751.3,555z"/>
		<path class="st13" d="M816.3,513.9c0,0-29.4,5.6-50.5,24.7C774.6,533.2,799.9,520.5,816.3,513.9z"/>
		<path class="st14" d="M755.6,554.1c0,0,6.6-7.6,14.4-7.8c7.8-0.2,31.6-6.2,42.4-15.5c-10.5,11.1-14.8,15-28.2,17.1
			C770.8,550,758,554.5,755.6,554.1z"/>
		<path class="st15" d="M825.6,510.2c-0.1,0-11.1,1.8-28.2,7.7c-20.4,7.1-39.5,22-45.6,36.4l-0.5,0.8l0.9-0.2c0.1,0,0.2,0,0.3-0.1
			c4.2,2.9,20.3,4.1,38.7-5.5c18.5-9.7,34-31,34.3-38.2c0.1-0.1,0.2-0.2,0.3-0.3l0.7-0.6L825.6,510.2z"/>
	</g>
	<g>
		<path class="st16" d="M838.2,550.4c0,0-10.3-6.3-28.7-6.4c-18.4-0.1-49.1,5.6-58.1,10.8C752.8,558.1,797.6,577,838.2,550.4z"/>
		<g>
			<path class="st17" d="M759.7,557.9c0,0-0.7-3.4,3.3-5.7s7.3,1.5,6.4,6C768.5,562.6,762,562.8,759.7,557.9z"/>
			<path class="st18" d="M759.7,557.9c0,0-0.3-1.5,0.6-3.2c2.3,3.9,7.5,3.9,9,0.6c0.2,0.9,0.2,1.9,0,2.9
				C768.5,562.6,762,562.8,759.7,557.9z"/>
			<path class="st19" d="M763.4,553.9c-0.4-0.4-0.3-1.1,1-1.7c1.3-0.7,3.1,0.5,2.9,1.9C767.1,555.4,765.1,555.4,763.4,553.9z"/>
		</g>
		<g>
			<path class="st17" d="M770.3,559.2c0,0-1.4-3.6,2.6-6.8s8.2,0.5,8,5.5C780.7,562.8,773.6,564.1,770.3,559.2z"/>
			<path class="st18" d="M770.3,559.2c0,0-0.6-1.6,0.2-3.6c3.2,3.8,8.9,3,9.9-0.9c0.4,0.9,0.6,2,0.5,3.2
				C780.7,562.8,773.6,564.1,770.3,559.2z"/>
			<path class="st19" d="M773.7,554.2c-0.5-0.3-0.5-1.1,0.8-2.1c1.3-0.9,3.5,0,3.5,1.5C778,555.2,775.7,555.6,773.7,554.2z"/>
		</g>
		<g>
			<path class="st17" d="M782.9,560.7c0,0-3.2-3.2-0.2-8.4c3.1-5.2,9.6-3.1,11.6,2.3C796.4,560,789,564.5,782.9,560.7z"/>
			<path class="st18" d="M782.9,560.7c0,0-1.4-1.4-1.5-3.9c5.4,2.6,11.5-0.8,10.9-5.3c0.9,0.8,1.6,1.9,2,3.1
				C796.4,560,789,564.5,782.9,560.7z"/>
			<path class="st19" d="M784.4,553.9c-0.7-0.1-1.1-1,0-2.5c1.1-1.6,4-1.5,4.7,0.1C789.8,553.1,787.5,554.5,784.4,553.9z"/>
		</g>
		<g>
			<path class="st17" d="M796.8,559.6c0,0-3.4-3.3-0.2-8.8c3.2-5.4,10-3.3,12.2,2.4S803.2,563.6,796.8,559.6z"/>
			<path class="st18" d="M796.8,559.6c0,0-1.5-1.5-1.6-4.1c5.7,2.8,12-0.8,11.4-5.6c0.9,0.9,1.6,2,2.2,3.3
				C811,558.9,803.2,563.6,796.8,559.6z"/>
			<path class="st19" d="M798.4,552.5c-0.8-0.1-1.2-1,0-2.7c1.1-1.7,4.2-1.6,4.9,0.1C804.1,551.6,801.6,553.1,798.4,552.5z"/>
		</g>
		<g>
			<path class="st17" d="M811.6,558.2c0,0-3-3-0.2-7.9c2.9-4.9,9-2.9,10.9,2.1C824.3,557.5,817.3,561.7,811.6,558.2z"/>
			<path class="st18" d="M811.6,558.2c0,0-1.3-1.3-1.4-3.7c5.1,2.5,10.8-0.7,10.2-5c0.8,0.8,1.5,1.8,1.9,2.9
				C824.3,557.5,817.3,561.7,811.6,558.2z"/>
			<path class="st19" d="M813,551.8c-0.7-0.1-1-0.9,0-2.4s3.8-1.4,4.4,0.1C818,551,815.8,552.3,813,551.8z"/>
		</g>
		<g>
			<path class="st17" d="M824.7,555.9c0,0-2.4-2.4-0.1-6.2c2.3-3.8,7.1-2.3,8.6,1.7S829.2,558.7,824.7,555.9z"/>
			<path class="st18" d="M824.7,555.9c0,0-1.1-1.1-1.1-2.9c4,1.9,8.5-0.6,8.1-3.9c0.6,0.6,1.2,1.4,1.5,2.3
				C834.7,555.4,829.2,558.7,824.7,555.9z"/>
			<path class="st19" d="M825.8,550.9c-0.6-0.1-0.8-0.7,0-1.9s3-1.1,3.5,0.1C829.8,550.3,828,551.3,825.8,550.9z"/>
		</g>
		<path class="st20" d="M751.4,554.8c3-0.1,10.5,4.7,27,5.1c16.5,0.4,50.1-6.7,59.8-9.5c-2.7,6.2-27.4,18.6-49.3,18.4
			C767.1,568.7,753,559.2,751.4,554.8z"/>
		<path class="st12" d="M751.4,554.8c1,0,2.6,0.5,4.9,1.3c5.2,4.8,16.5,10.7,33,10.8c21,0.1,22-4,12.8-8.5c17.3-2,30.1-6.3,36.2-8
			c-2.7,6.2-27.4,18.6-49.3,18.4C767.1,568.7,753,559.2,751.4,554.8z"/>
		<path class="st15" d="M780,559.5c-11.2-0.4-19.9-2.2-24.2-3.6c-0.4-0.1-0.8-0.3-1.1-0.4c-0.1,0-0.1,0-0.2-0.1
			c-0.2-0.1-0.5-0.1-0.7-0.2c-0.1,0-0.2,0-0.2-0.1c-0.3-0.1-0.5-0.1-0.7-0.2h-0.1c-0.2,0-0.4-0.1-0.5-0.1s-0.1,0-0.2,0
			c-0.2,0-0.4,0-0.5,0c1.6,4.5,15.7,13.9,37.5,14s46.6-12.3,49.3-18.4C827.3,554.9,798,560.1,780,559.5z"/>
		<path class="st21" d="M838.2,551c-45.9,13.2-68.8,10.1-86.9,4.5c0,0-0.5-0.2-0.5-0.5c0-0.4,0.4-0.6,0.4-0.6
			c9.2-5.3,39.7-11,58.3-10.9c18.3,0.1,28.8,6.4,28.9,6.5c0,0,0.3,0.2,0.3,0.4C838.7,550.7,838.2,551,838.2,551z M837.1,550.3
			c-2.8-1.5-12.5-5.8-27.6-5.9c-17.6-0.1-47.1,5.3-57,10.3C770.2,560,792.9,562.9,837.1,550.3z"/>
	</g>
</g>
<g>
	<g>
		<path class="st22" d="M426,41.7c-12.9-2.5-24.9,1.7-30.7,14.2c-5,10.9-1.4,42.9,33,42.4c31.4-0.4,35.5-24.7,35.6-32.6
			C464,57.7,458.2,33.2,426,41.7z"/>
		<path class="st23" d="M438,39.9c-2,0-4.2,0.2-6.5,0.6c-2.9,1.3-5.3,2.8-5.6,4.3c-0.4-1.1-1.5-2.4-3.1-3.6c-1.5-0.2-3-0.2-4.5-0.2
			c1.8,1,3.4,2.2,4.4,3.8c-4.6-2.1-7.9-2.3-11-1.4c-1.5,0.4-4.1,0.8-6.6,1.1c-0.4,0.3-0.9,0.5-1.3,0.8c2.8,0,5.8-0.1,7.2-0.5
			c2.6-0.8,6.9-0.2,10,1.6c-4.3,0.3-4,3.3-3.4,5.1c0.6,1.8,0.8,5.2,0.1,5.9c1-0.6,2.2-2,1.7-3.8c-0.5-1.7,1-5.2,6.3-5.4
			c0.9,0.8,4.5,0.6,6.5,0.1c2-0.5,9.4-0.1,10.8,5.5c0.4-0.8,0.6-3.2-0.2-4.3c-0.8-1.2-3.6-3.3-8.4-3.1c4.8-0.9,14.4-3.5,19.5-1
			c-1-1.1-2.7-1.7-6.9-2c-4.2-0.3-15.3,1.7-16.5,1.4C431.6,43,434.2,41.1,438,39.9z"/>
		<path class="st24" d="M430.1,42.1c-10.4-2-20.1,1.4-24.8,11.4c-4,8.8-1.1,34.6,26.6,34.3c25.4-0.3,28.7-19.9,28.8-26.3
			C460.8,55.1,456.1,35.2,430.1,42.1z"/>
		<path class="st25" d="M449.2,48.2c-2.4,0.7-2.9,2.7-2.8,7.2c0.1,2.9,2.6,15.1,8.1,13.6c5.7-1.5,4.2-12.7,3.7-14.6
			C457.7,52.6,455.3,46.4,449.2,48.2z"/>
		<path class="st24" d="M399.1,60.3c0.9,0.1,1.3-0.5,1.9-2c0.4-1,1.3-5.4-0.8-5.7c-2.1-0.3-3.2,3.6-3.3,4.3
			C396.8,57.6,396.8,60,399.1,60.3z"/>
		<path class="st26" d="M454.9,52.6c-0.6,0.2-0.7,0.6-0.7,1.7c0,0.7,0.6,3.5,1.9,3.2c1.3-0.4,1-3,0.9-3.4
			C456.9,53.7,456.4,52.2,454.9,52.6z"/>
		<path class="st27" d="M434.4,46.5c4.8-0.2,7.6,2,8.4,3.1c0.8,1.2-1.1,3.4-1.5,4.2c0.9-5.3-6.9-7.6-8.9-7c-2,0.5-5.9,0.7-6.8-0.1
			c-5.3,0.3-5.3,5.1-4.8,6.8c0.5,1.7-0.7,3.1-1.7,3.8c0.7-0.7,0.5-4.1-0.1-5.9c-0.6-1.8-2.3-4.6,2-4.9c-2.4-1.4-5.5-2-8-1.9
			c1-0.6,2.1-1.2,3.3-1.6c1.9,0.1,4,0.7,6.5,1.8c-0.7-1.1-1.6-2.1-2.8-2.9c1.1-0.2,2.2-0.3,3.4-0.4c1.3,1.1,2.2,2.2,2.6,3.2
			c0.2-1,1.3-2,2.8-2.9c0.4,0.1,0.9,0.1,1.3,0.2c1.8-0.5,3.5-0.8,5.1-1c-2.3,1.1-3.8,2.5-4.6,3.9c1.2,0.3,12.3-1.7,16.5-1.4
			c3,0.2,4.7,0.6,5.8,1.2c0.3,0.2,0.6,0.5,0.9,0.8C448.6,43.1,439.2,45.6,434.4,46.5z"/>
		<path class="st28" d="M426,41.7c-1.5-4.4-10.7-11.2-20.8-8.2c2.9,0.7,14.1,1.5,17.6,8.3c-4.6-2.4-7.9-2.6-11-1.6
			c-3.1,1-10.5,1.9-13.3,1.8c1.5,0.6,10.1,0.7,12.6-0.1c2.6-0.9,6.9-0.2,10,1.8c-4.3,0.4-4,3.8-3.4,5.9c0.6,2.1,0.8,5.9,0.1,6.7
			c1-0.7,2.2-2.3,1.7-4.3c-0.5-2,2.3-7.1,7.5-7.4c0.9,0.9,3.2,1.4,5.3,1.3c2.7-0.1,9.4-0.2,10.8,6.3c0.4-0.9,0.6-3.6-0.2-5
			c-0.8-1.3-3.6-3.8-8.4-3.6c4.8-1,14.4-4,19.5-1.1c-1-1.3-2.7-2-6.9-2.3c-4.2-0.3-15.3,1.9-16.5,1.6c1.8-3.7,7.7-7.1,16.8-7.3
			c-1,0-7.4-1.2-12.5,0.8C430.8,36.9,426.3,39.3,426,41.7z"/>
		<path class="st29" d="M426,41.7c-1.5-4.4-10.7-11.2-20.8-8.2c2.9,0.7,14.1,1.5,17.6,8.3c-4.6-2.4-7.9-2.6-11-1.6
			c-3.1,1-10.5,1.9-13.3,1.8c1.5,0.6,10.3-0.2,13-0.9c4.6-1.2,8.4,0,10.5,2.6c-5-0.1-4.9,3.8-4.3,5.9c0.6,2.1,0.8,5.9,0.1,6.7
			c1-0.7,1.6-4.1,1.1-6.1c-0.9-3.4,3.4-6.8,8.7-7.1c0.9,0.9,3.1,1.6,5.2,1.5c2.7-0.1,10.6,0.1,10.4,7.5c0.4-0.9,0.6-3.6-0.2-5
			c-0.8-1.3-4-4.3-10.6-3.5c4.2-2.5,17.7-4.6,21.8-1.2c-1-1.3-2.7-2-6.9-2.3c-4.2-0.3-15.3,1.9-16.5,1.6c1.8-3.7,7.7-7.1,16.8-7.3
			c-1,0-7.4-1.2-12.5,0.8C430.8,36.9,426.3,39.3,426,41.7z"/>
		<path class="st28" d="M430.4,24.5c-1.9,1.6-5.4,7.8-5.2,17.3c0.3,1.6,2.9,1.3,3.1,0.1c-0.1-3.1-0.2-11,3.7-16.7
			C432.3,24.2,431.2,23.9,430.4,24.5z"/>
		<path class="st29" d="M429.8,25.4c-1.3,1.3-4.7,6.9-4.5,16.4c0.3,1.6,2.9,1.3,3.1,0.1c-1-2.1-2.1-7.8,1.7-15.4
			C431.1,25.2,430.5,24.3,429.8,25.4z"/>
		<path class="st29" d="M430.9,24.1c-0.3,0.1-1.4,0.6-0.6,1c0.8,0.4,1.8,0.3,2-0.2C432.6,24.2,431.9,23.9,430.9,24.1z"/>
		<path class="st30" d="M431.3,25.5L431.3,25.5c-0.4,0-0.8-0.1-1.1-0.3c-0.3-0.2-0.4-0.4-0.4-0.5c0.1-0.4,0.8-0.8,1-0.8
			c0.8-0.1,1.4,0,1.6,0.4c0.1,0.1,0.2,0.4,0,0.7C432.3,25.3,431.8,25.5,431.3,25.5z M431.4,24.2c-0.2,0-0.3,0-0.5,0
			c-0.2,0-0.7,0.3-0.7,0.5c0,0,0.1,0.1,0.2,0.2c0.6,0.3,1.6,0.2,1.8-0.1c0.1-0.1,0.1-0.3,0-0.3C432,24.3,431.8,24.2,431.4,24.2z"/>
	</g>
	<path class="st31" d="M396.7,72.3c0,0,6.4,22,37.2,22.5C412.5,101.6,396.8,83.3,396.7,72.3z"/>
</g>
<g>
	<path class="st32" d="M775.9,57.4c5.6,0.3,19.8,0.3,30.1-3.7c13.7-5.4,28.8-9.7,34.9,1.7c7.9,14.4-6.4,28.1-23.2,31.2
		c-13.4,2.4-34,2.8-48.2-5.8C761,67.1,766.1,56.9,775.9,57.4z"/>
	<path class="st32" d="M775.9,57.4c5.6,0.3,19.8,0.3,30.1-3.7c13.7-5.4,28.8-9.7,34.9,1.7c7.9,14.4-6.4,28.1-23.2,31.2
		c-13.4,2.4-34,2.8-48.2-5.8C761,67.1,766.1,56.9,775.9,57.4z"/>
	<g>
		<path class="st33" d="M819.1,49.4c-4.2,1-8.5,2.5-12.8,4.2c2.6-0.5,5.1-1.2,7.4-2.1C815.6,50.7,817.4,50,819.1,49.4z"/>
		<path class="st34" d="M823.2,79.4c-10.8,2.1-27.8,4.8-37.3-2.1c-7.8-5.7-6.6-15.1-2.4-19.8c-3.1,0.1-5.8,0-7.6-0.1
			c-9.8-0.5-14.9,9.7-6.4,23.4c14.2,8.5,34.9,8.2,48.2,5.8c13.4-2.5,25.2-11.6,25.5-22.5C840.9,71.6,832.5,77.6,823.2,79.4z"/>
	</g>
	<path class="st35" d="M747.7,55.2c0,0,5.5,7.6,14.3,5.4c1.3-0.2,3.7-2.5,6.5-3c2.8-0.5,7.4,0.3,8.3-1.4c0.8-1.8-1.8-2.5-2.8-2.3
		c1.3-0.6,4.1-0.8,5.4,1.1c1.3,1.9-0.4,6.8-3.5,8.8c4.8-1.8,6.9-2.6,7-4.3c0.4,1-0.1,4.8-8.1,7.1c2,1.9,4.4,8.8,8.4,5.7
		c-0.3,1.6-2.7,3.7-7.1,1.2c2.1,2.3,4.4,6,2.8,9.1c-0.3-2.4-1-4.6-4.4-6.4c-3.4-1.8-1.3,6.4-1.3,6.4s0.6,3.3-3.3,5.4
		c1.3-2.1,2.7-4.1,0.5-5.2c-2.2-1.1-7.5-4.6-8.4-11c-1.1-2.7-2.5-4.3-5.3-5.9c-3.3-1.8-9.3-5.8-10.6-9.4
		C746.3,54.9,747.7,55.2,747.7,55.2z"/>
	<path class="st36" d="M787.5,59.1c-3,0.3-5.4,4.2,2.1,4.5c5.8,0.3,21.9,1.5,36-6c7.7-4.1,3.2-8.2-4.1-6.9
		C815.8,51.7,805,57.6,787.5,59.1z"/>
	<path class="st37" d="M794.3,74.2c-3,0.2-5.5,3.9,2,4.3c5.8,0.4,22,2,36.2-4.9c7.8-3.8,3.3-7.7-4-6.7
		C822.8,67.9,811.9,73.2,794.3,74.2z"/>
	<path class="st29" d="M763.3,61.8c1.1-1.4,4.4-3.3,7.8-3.4c3.1-0.1,5,0.8,7-2.4c0.5,2.9-0.8,4.9-2.6,6c-3,1.8-4.6,2.9-0.1,2.8
		c1.7,0-1.4,1.8-3.3,1.9c-1.9,0.1,0,3.8,2.6,7.8c-1.9-0.6-6.2-3-3.9,6.3c-2.3-0.5-4.9-2.4-6.1-5.6c-1.3-3.3-2-5-3-7.1
		C761.1,66.1,761.8,63.6,763.3,61.8z"/>
	<path class="st29" d="M748.4,57.6c0,0,4.3,4.5,9.2,4.1c2.1,0.5,1.4,2.9-0.5,2.8C755.2,64.4,746.8,58.5,748.4,57.6z"/>
	<path class="st38" d="M766.1,61.1c2-1.6,3.9-2.5,6.1-2.1c2.3,0.4-0.8,0.6-1.9,3.9c-1.1,3.3-0.9,7.8-3.3,7.1
		C764.7,69.4,763.2,63.5,766.1,61.1z"/>
	<path class="st39" d="M818.1,53c-2.8,0.9-5.9,1.6-6.3,3.3c-0.6,2.7,6.4,0.7,8.7-1.6C821.7,53.5,819.5,52.6,818.1,53z"/>
	<path class="st39" d="M835.8,51.3c1.8,0.7,8.7,6.8,5.6,14c-1.3,1.3-0.2-3.3-2.1-6.7C837.1,54.8,833,50.3,835.8,51.3z"/>
</g>
<g>
	<g>
		<path class="st40" d="M453.4,527.5c14.5,6.7,25.1,16.8,18.7,28.9c-5.7,10.8-26.8,7-39.1-1.3c-12.4-8.3-21.3-12.2-32.1-16.3
			c-10.8-4.1-16.8-10.1-14.6-17.9c2.2-7.8,13.2-8.8,30.1-5.3C433.2,519.3,447.9,525,453.4,527.5z"/>
		<path class="st41" d="M436.1,522.3c6.8,2.7,17.4,8.8,13.6,14.2c-3.4,4.8-17.3,0.6-25.2-2.9c-8.3-3.7-14.4-6.3-20.9-8.4
			c-6.5-2.2-9.4-3.7-8.1-7.2c1.3-3.5,8-3.8,18.1-1.7C423.8,518.3,432.8,521,436.1,522.3z"/>
		<path class="st42" d="M463.6,535.4c1.1,0.8,2.7,2.5,1.7,3.2c-0.9,0.7-3.1-0.8-4.4-1.8c-1.3-1.1-2.3-1.8-3.3-2.6
			c-1.1-0.7-1.5-1.1-1.1-1.7c0.4-0.6,1.6-0.3,3.3,0.6C461.6,534,463.1,535,463.6,535.4z"/>
		<path class="st43" d="M400.8,531.7c10.3,4,18.6,9.3,30.7,15.6c12.7,6.6,29.2,10,34.7-0.3c1.6-3.1,2.1-6.1,1.7-8.9
			c4,5.1,5.8,11,2.6,16.8c-5.5,10.3-25.6,6.7-37.5-1.3c-11.8-8-20.4-11.6-30.7-15.6c-9.4-3.6-15-8.6-14.4-15.1
			C390.3,526.5,394.8,529.4,400.8,531.7z"/>
		<path class="st44" d="M433,555.1c5.2,3.5,11.9,6.2,18.4,7.3c0.7-2.2,0.9-4.5,0.5-7c-1.2-7.7-8-13-15-11.9
			c-4.4,0.7-7.9,3.7-9.6,7.8C429,552.5,430.9,553.7,433,555.1z"/>
		<path class="st45" d="M433.1,553.7c5.2,3.5,12.1,6.2,18.6,7.2c0.4-1.7,0.4-3.6,0.1-5.4c-0.1-0.7-0.3-1.3-0.4-1.9
			c-6.4-0.4-13.6-2.9-19.9-6.2c-0.4-0.2-0.8-0.4-1.1-0.6c-1.1,1-2,2.2-2.7,3.5C429.5,551.3,431.3,552.4,433.1,553.7z"/>
		<path class="st46" d="M474.4,553.2c0.6-3.9-0.9-10.4-3.2-11.1c-1.5-0.5,1.5,8.7-0.5,8.1c-2-0.6-7-6.4-7.5-5.5
			c-0.8,1.6,4.5,6.7,3.3,9c-0.9,1.6-10,0.6-10.1,1.9c-0.2,2.2,9.1,3.1,9.1,3.8c-0.2,2.2-9.1,2.7-9.1,3.4c0,0.9,7.4,1.1,12.6-1.3
			C472.2,559.9,474,556.4,474.4,553.2z"/>
		<path class="st47" d="M472.1,554.8c-0.4-2-4.6,0.8-3.8,3.1C469.2,560.3,472.6,557.1,472.1,554.8z"/>
		<path class="st48" d="M450.2,530.1c0,0-0.6-0.3-1.7-0.8c-0.5-0.2-1.2-0.6-1.9-0.9c-0.7-0.3-1.6-0.7-2.5-1.1
			c-0.9-0.4-1.9-0.8-3-1.2c-1.1-0.4-2.2-0.8-3.4-1.2c-0.6-0.2-1.2-0.4-1.8-0.6c-0.6-0.2-1.2-0.4-1.9-0.6c-1.3-0.4-2.5-0.8-3.8-1.2
			c-1.3-0.4-2.6-0.7-3.8-1.1c-1.3-0.4-2.5-0.7-3.7-1c-1.2-0.3-2.4-0.6-3.5-0.9c-1.1-0.3-2.2-0.5-3.1-0.8c-1.9-0.5-3.6-0.8-4.7-1.1
			c-1.1-0.3-1.8-0.4-1.8-0.4s0.6,0.2,1.8,0.5c1.1,0.3,2.7,0.7,4.7,1.2c1,0.2,2,0.5,3.1,0.8c1.1,0.3,2.3,0.6,3.5,1
			c1.2,0.3,2.5,0.7,3.7,1c1.3,0.4,2.5,0.7,3.8,1.1c1.3,0.4,2.6,0.8,3.8,1.2c0.6,0.2,1.2,0.4,1.9,0.6c0.6,0.2,1.2,0.4,1.8,0.6
			c1.2,0.4,2.3,0.7,3.4,1.2c1.1,0.4,2.1,0.8,3,1.1c0.9,0.4,1.8,0.7,2.5,1c0.8,0.3,1.4,0.6,1.9,0.8
			C449.6,529.8,450.2,530.1,450.2,530.1z"/>
		<path class="st48" d="M459.1,543.4c0,0-1-0.5-2.8-1.3c-1.8-0.8-4.4-2-7.5-3.4c-1.6-0.7-3.2-1.4-5-2.2c-0.9-0.4-1.8-0.8-2.8-1.2
			c-0.9-0.4-1.9-0.8-2.9-1.2c-2-0.8-4-1.6-6.1-2.4c-2.1-0.8-4.2-1.6-6.3-2.4c-2.1-0.8-4.3-1.5-6.4-2.3c-2.1-0.7-4.2-1.4-6.2-2.1
			c-2-0.6-4-1.3-5.9-1.8c-1.9-0.5-3.6-1.1-5.3-1.5c-1.7-0.4-3.2-0.8-4.5-1.1c-0.3-0.1-0.7-0.2-1-0.2c-0.3-0.1-0.6-0.1-0.9-0.2
			c-0.6-0.1-1.1-0.2-1.6-0.3c-1.9-0.4-3.1-0.7-3.1-0.7s1.1,0.3,3,0.7c0.5,0.1,1,0.2,1.6,0.4c0.3,0.1,0.6,0.1,0.9,0.2
			c0.3,0.1,0.6,0.2,1,0.3c1.3,0.4,2.8,0.8,4.5,1.2c1.6,0.5,3.4,1,5.3,1.6c1.9,0.6,3.8,1.2,5.8,1.9c2,0.7,4.1,1.4,6.2,2.1
			c2.1,0.8,4.2,1.5,6.4,2.3c2.1,0.8,4.3,1.6,6.3,2.4c2.1,0.8,4.1,1.6,6.1,2.4c2,0.8,3.9,1.6,5.7,2.3c1.8,0.7,3.5,1.5,5.1,2.1
			c3.1,1.3,5.7,2.5,7.6,3.3C458,543,459.1,543.4,459.1,543.4z"/>
		<path class="st48" d="M415.5,535.7c0,0-6.4-2.7-12.8-5.3c-0.8-0.3-1.6-0.7-2.4-1c-0.8-0.3-1.6-0.7-2.3-1c-1.5-0.7-2.9-1.3-4.1-1.8
			c-1.2-0.5-2.2-1-2.9-1.3c-0.7-0.3-1.1-0.5-1.1-0.5s0.4,0.2,1,0.6c0.7,0.3,1.6,0.9,2.8,1.5c1.2,0.6,2.5,1.2,4,1.9
			c0.7,0.3,1.5,0.7,2.3,1c0.8,0.3,1.6,0.7,2.4,1c1.6,0.6,3.2,1.3,4.7,1.9c1.5,0.6,2.9,1.1,4.2,1.6c1.2,0.5,2.2,0.8,3,1.1
			C415.1,535.6,415.5,535.7,415.5,535.7z"/>
		<path class="st48" d="M445.2,556.9c0,0-0.4-0.1-1.1-0.3c-0.3-0.1-0.7-0.2-1.2-0.4c-0.5-0.1-1-0.3-1.5-0.5
			c-0.6-0.2-1.2-0.4-1.8-0.7c-0.6-0.3-1.3-0.6-1.9-0.9c-0.7-0.3-1.4-0.6-2.1-1c-0.7-0.4-1.4-0.7-2.1-1.1c-1.4-0.7-2.8-1.5-4.1-2.2
			c-1.3-0.7-2.6-1.3-3.6-1.8c-0.5-0.3-1-0.5-1.5-0.7c-0.4-0.2-0.8-0.4-1.1-0.5c-0.6-0.3-1-0.4-1-0.4s0.4,0.2,1,0.5
			c0.3,0.2,0.7,0.4,1.1,0.6c0.4,0.2,0.9,0.5,1.4,0.8c1,0.6,2.3,1.2,3.6,2c1.3,0.7,2.7,1.5,4.1,2.2c0.7,0.4,1.4,0.7,2.1,1.1
			c0.7,0.3,1.4,0.7,2.1,1c0.7,0.3,1.4,0.6,2,0.8c0.6,0.2,1.2,0.5,1.8,0.6c0.6,0.2,1.1,0.3,1.6,0.4c0.5,0.1,0.9,0.2,1.2,0.3
			C444.8,556.8,445.2,556.9,445.2,556.9z"/>
		<path class="st48" d="M455.8,551.7c0,0-0.5-0.1-1.4-0.4c-0.4-0.1-1-0.3-1.6-0.5c-0.6-0.2-1.3-0.4-2.1-0.7
			c-0.8-0.3-1.6-0.6-2.4-0.9c-0.9-0.3-1.8-0.7-2.7-1.1c-0.9-0.4-1.9-0.8-2.9-1.2c-1-0.4-2-0.8-2.9-1.3c-2-0.8-3.9-1.7-5.8-2.5
			c-1.8-0.8-3.5-1.6-5-2.2c-1.5-0.6-2.7-1.2-3.5-1.6c-0.9-0.4-1.4-0.6-1.4-0.6s0.5,0.2,1.3,0.7c0.8,0.4,2,1,3.5,1.7
			c1.4,0.7,3.1,1.5,5,2.3c1.8,0.8,3.8,1.7,5.7,2.6c1,0.4,2,0.8,2.9,1.2c1,0.4,1.9,0.8,2.9,1.1c0.9,0.4,1.8,0.7,2.7,1
			c0.9,0.3,1.7,0.6,2.5,0.8c0.8,0.2,1.5,0.4,2.1,0.6c0.6,0.2,1.2,0.3,1.6,0.4C455.3,551.5,455.8,551.7,455.8,551.7z"/>
		<path class="st49" d="M470.9,555.5c0,0,5.2,1.8,6.6,4.1c0.3,2-1.3,1.7-1.3,1.7s-4-3-6.9-3.1C468.9,556.8,470.9,555.5,470.9,555.5z
			"/>
	</g>
	<g>
		<path class="st49" d="M424,557.4c-0.1,7.8,5.7,14.1,12.9,14.2c7.2,0.1,13-6.2,13.1-14c0.1-7.8-5.7-14.1-12.9-14.2
			C429.9,543.4,424,549.6,424,557.4z"/>
		<path class="st50" d="M423.2,557.4c-0.1,7.8,5.5,14.1,12.5,14.2c6.9,0.1,12.6-6.2,12.7-14c0.1-7.8-5.5-14.1-12.5-14.2
			C429,543.4,423.3,549.6,423.2,557.4z"/>
		<path class="st51" d="M423.6,557.4c-0.1,7.4,5.3,13.5,11.9,13.6c6.6,0.1,12.1-5.9,12.1-13.4c0.1-7.4-5.3-13.5-11.9-13.6
			C429.1,544,423.7,550,423.6,557.4z"/>
		<path class="st52" d="M431.2,546.1c-0.8,0-1.5,0.1-2.3,0.2c-3.1,2.4-5.2,6.4-5.3,11c-0.1,7.4,5.3,13.5,11.9,13.6
			c0.8,0,1.5-0.1,2.3-0.2c3.1-2.4,5.2-6.4,5.3-11C443.1,552.3,437.8,546.2,431.2,546.1z"/>
		<path class="st52" d="M422.9,556.5c-0.1,7.4,5.3,13.5,11.9,13.6c6.6,0.1,12.1-5.9,12.1-13.4c-1.1,6.3-6.8,9.9-13.4,9.2
			C426.4,565,423.9,560.9,422.9,556.5z"/>
		<path class="st53" d="M435.9,553.6c0.9-0.2,1.9-3.5,0-3.5C434.9,550,434.4,553,435.9,553.6z"/>
		<path class="st53" d="M435.5,562.1c-0.8,0.5-0.6,4,1.2,3.3C437.7,565.1,437.1,562.1,435.5,562.1z"/>
		<path class="st53" d="M432.2,560.8c-0.8-0.5-3.8,1.3-2.4,2.6C430.5,564.1,433,562.2,432.2,560.8z"/>
		<path class="st53" d="M438.5,560.2c0.1,1,3.2,2.5,3.5,0.6C442.1,559.8,439.2,558.8,438.5,560.2z"/>
		<path class="st53" d="M438.7,556.7c0.8,0.5,3.9-1.1,2.6-2.4C440.6,553.5,438,555.2,438.7,556.7z"/>
		<path class="st53" d="M433.7,554.9c0.4-0.9-1.8-3.6-2.9-2.1C430.2,553.7,432.4,555.9,433.7,554.9z"/>
		<path class="st53" d="M431.3,557.7c-0.5-0.8-4-0.6-3.4,1.1C428.3,559.8,431.3,559.3,431.3,557.7z"/>
	</g>
	<g>
		<path class="st49" d="M415.1,557.5c-2.2,7.5,1.7,15.1,8.6,17.1c6.9,2,14.2-2.4,16.4-9.9c2.2-7.5-1.7-15.1-8.6-17.1
			C424.7,545.6,417.3,550,415.1,557.5z"/>
		<path class="st50" d="M414.4,557.3c-2.2,7.5,1.5,15.1,8.2,17c6.7,1.9,13.8-2.6,16-10c2.2-7.5-1.5-15.1-8.2-17
			C423.8,545.3,416.6,549.8,414.4,557.3z"/>
		<path class="st51" d="M414.8,557.4c-2.1,7.1,1.4,14.4,7.8,16.3c6.4,1.8,13.2-2.4,15.3-9.6c2.1-7.1-1.4-14.4-7.8-16.3
			C423.7,545.9,416.9,550.2,414.8,557.4z"/>
		<path class="st52" d="M426.5,562.9c1.6-5.4-0.2-10.9-4.1-13.9c-3.2,1.5-5.9,4.5-7,8.5c-1.6,5.4,0.2,10.9,4.1,13.9
			C422.7,569.9,425.3,566.8,426.5,562.9z"/>
		<path class="st52" d="M414.8,556.2c-2.1,7.1,1.4,14.4,7.8,16.3c6.4,1.8,13.2-2.4,15.3-9.6c-2.8,5.8-9.3,7.7-15.4,5.2
			C415.8,565.4,414.5,560.8,414.8,556.2z"/>
		<path class="st53" d="M427.7,557c1,0.1,2.8-2.9,1-3.4C427.7,553.3,426.4,556.1,427.7,557z"/>
		<path class="st53" d="M425,565.1c-0.9,0.3-1.7,3.6,0.2,3.5C426.2,568.6,426.5,565.5,425,565.1z"/>
		<path class="st53" d="M422.1,563c-0.7-0.7-4,0.3-3,1.9C419.6,565.7,422.5,564.5,422.1,563z"/>
		<path class="st53" d="M428.3,564.1c-0.2,0.9,2.4,3.2,3.2,1.5C432,564.7,429.4,562.9,428.3,564.1z"/>
		<path class="st53" d="M429.5,560.8c0.6,0.7,4,0,3.1-1.6C432.2,558.2,429.2,559.2,429.5,560.8z"/>
		<path class="st53" d="M425.2,557.7c0.6-0.8-0.8-3.9-2.2-2.8C422.2,555.6,423.7,558.3,425.2,557.7z"/>
		<path class="st53" d="M422.1,559.7c-0.3-0.9-3.6-1.7-3.5,0.2C418.6,560.9,421.7,561.2,422.1,559.7z"/>
	</g>
	<g>
		<path class="st49" d="M398.6,555.2c-2.2,7.5,1.7,15.1,8.6,17.1c6.9,2,15-2.1,17.2-9.5c2.2-7.5-2.5-15.5-9.4-17.5
			C408.1,543.3,400.8,547.8,398.6,555.2z"/>
		<path class="st50" d="M397.9,555c-2.2,7.5,1.5,15.1,8.1,17c6.7,1.9,13.8-2.6,16-10c2.2-7.5-1.5-15.1-8.1-17
			C407.2,543.1,400,547.5,397.9,555z"/>
		<path class="st51" d="M398.2,555.1c-2.1,7.1,1.4,14.4,7.8,16.3c6.4,1.8,13.2-2.4,15.3-9.6c2.1-7.1-1.4-14.4-7.8-16.3
			C407.2,543.7,400.3,548,398.2,555.1z"/>
		<path class="st52" d="M398.7,554.2c-2.1,7.1,1.4,14.4,7.8,16.3c6.4,1.8,13.2-2.4,15.3-9.6c-2.8,5.8-9.3,7.7-15.4,5.2
			C399.7,563.3,398.4,558.8,398.7,554.2z"/>
		<path class="st53" d="M411.1,554.8c1,0.1,2.8-2.9,1-3.4C411.1,551.1,409.8,553.9,411.1,554.8z"/>
		<path class="st53" d="M408.4,562.9c-0.9,0.3-1.7,3.6,0.2,3.5C409.7,566.3,410,563.3,408.4,562.9z"/>
		<path class="st53" d="M405.6,560.7c-0.7-0.7-4,0.3-3,1.9C403.1,563.5,405.9,562.3,405.6,560.7z"/>
		<path class="st53" d="M411.8,561.8c-0.2,0.9,2.4,3.2,3.2,1.5C415.4,562.4,412.9,560.7,411.8,561.8z"/>
		<path class="st53" d="M412.9,558.5c0.6,0.7,4,0,3.1-1.6C415.6,555.9,412.7,556.9,412.9,558.5z"/>
		<path class="st53" d="M408.6,555.5c0.6-0.8-0.8-3.9-2.2-2.8C405.6,553.4,407.1,556,408.6,555.5z"/>
		<path class="st53" d="M405.6,557.4c-0.3-0.9-3.6-1.7-3.5,0.2C402.1,558.7,405.1,559,405.6,557.4z"/>
	</g>
</g>
<g>
	<path class="st54" d="M553,280.9c-3.8-5.8-17.4-8.7-23.9,0.7c-9.3,13.5,8.6,49,14.2,51.9c5.6,3,11.5-1.5,11.5-1.5
		S560,291.6,553,280.9z"/>
	<path class="st54" d="M545.2,280.9c5.1-7,20.9-7.5,26.1,0.4c8.2,12.2-7.2,47.8-16.4,52.3c-5.7,2.8-11.5-1.5-11.5-1.5
		S537.7,291.2,545.2,280.9z"/>
	<path class="st55" d="M541.7,278.5c-4.9,0-9.5,2.2-6.2,5.2c3.3,3,13.9,6.2,22.8,4.3c8.9-1.9,7.3-7.1,3.3-8.7
		c-2.8-1.1-5.9-0.6-11.4-0.6C547.8,278.7,545.2,278.5,541.7,278.5z"/>
	<path class="st54" d="M546.6,279.3c-1.7,0.1-5.5,1.1-3.5,2.6c2,1.5,5.2,2.9,10.6,1.9c5.4-1,4.4-3,2-3.8
		C553.3,279.2,552.1,279,546.6,279.3z"/>
	<path class="st56" d="M544.6,280.7c2.3-1.3,3.3-3.6,1.7-9.3c-1.6-5.7,2.4-9.2,3.4-9.9c2.3,0.8,7.2,5.2,7.2,5.2s-4.5,1.3-4.5,5.4
		c0,4.1,0.9,7.4,3.4,9.4C552.8,284.3,544.7,282.9,544.6,280.7z"/>
	<path class="st57" d="M551.1,261.4c-1.6-0.5-2.6,0.3,0,2.6c2.6,2.3,6.1,3.6,5.9,2.3C556.8,265.4,554.4,262.4,551.1,261.4z"/>
	<path class="st58" d="M542.3,285.9c-3.8-5.8-17.8-7.2-21.2-0.5c-7.5,14.5,5.9,50.2,11.5,53.1c5.6,3,11.5-1.5,11.5-1.5
		S549.3,296.6,542.3,285.9z"/>
	<path class="st58" d="M557.6,285.9c3.8-5.8,17.1-6.9,21.2-0.5c7.9,12.4-2.3,48.6-11.5,53.1c-5.7,2.8-11.5-1.5-11.5-1.5
		S550.6,296.6,557.6,285.9z"/>
	<path class="st55" d="M558.3,287.1c1.7-2,6.5-1.4,8.5,9c2,10.4-5,42-8.4,41.2c-3.4-0.8-3.4-8.5-3.4-8.5L558.3,287.1z"/>
	<path class="st55" d="M542,287.9c-1.6-2.1-6.4-1.8-9.1,8.4c-2.7,10.2,2.3,42.2,5.8,41.7c3.5-0.6,3.9-8.3,3.9-8.3L542,287.9z"/>
	<path class="st59" d="M531.6,282.6c-3.9-0.5-8.8,1.4-10.2,7.2c-1.4,5.8,4.2-1.6,8.8-2.3C534.8,286.8,541.4,283.8,531.6,282.6z"/>
	<path class="st59" d="M571.1,282.4c-4.5-1.3-12.1,1.9-5.8,2.8c6.3,0.9,11.4,4.9,12.8,10.5C579.5,301.2,582,285.6,571.1,282.4z"/>
	<path class="st60" d="M542.7,284.9c-4.3,2.1-8.4,9.5-7.4,27.3c1.1,17.8,3.4,29.9,13,29.9c9.6,0,13.7-19.1,14.7-29.9
		c1-10.7,1.2-21-2.5-24.4C557,284.4,549.5,281.7,542.7,284.9z"/>
	<path class="st61" d="M543.9,287c4.5-2.7,11.9-1.6,16.3,2.8c4.4,4.4-6.3-0.2-12.8,2.3C540.9,294.7,535.1,292.4,543.9,287z"/>
	<path class="st62" d="M547.6,265.9c0.8-1.8,2.7-2.6,2.3-1.2c-0.4,1.4-2.3,3.7-1.2,8.1C549.4,275.8,545,271.9,547.6,265.9z"/>
</g>
<g>
	<path class="st63" d="M97.3,164.3c2.9-4.6-2.4-4-1.1-8.5c1.4-4.6-0.3-9.6-6.7-6.5c-5.8,2.8-8.1,1.8-12.2,3
		c-4.1,1.2,1.8,15.8,9.1,15.8C93.8,168.2,95.2,167.7,97.3,164.3z"/>
	<path class="st63" d="M45.6,153.9c-3.2-4.4-4.6,0.8-8.3-2.2c-3.7-3-11.9-1.1-8.6,3.8c3.7,5.3-1.3,8.2-1.7,12.4
		c-0.4,4.3,15.4,4.2,18.1-2.6C47.8,158.6,47.9,157.1,45.6,153.9z"/>
	<path class="st64" d="M64.9,229.6c-7.1-0.2-26.6-11.6-26.5-31.6c0-20-2.2-23.8-4.9-27.4c-2.8-3.6-0.2-7.4,5.8-9.2
		c6-1.8,3-5.4,3-9.2c0-4.2,3.6-7,9.5-6.3c4.9,0.6,3.5-6.4,8.2-9.2c3.3-2,7.2,0.6,9.9,6.7c2,4.4,6.3,5.9,9.5,5.9
		c4.6,0.1,9.2,3.6,5.2,9.7c-4,6.1,4.6,4.3,6.7,9.8c1.3,3.3-5.3,6.6-3.7,12.3C92.2,198.3,84.3,230.2,64.9,229.6z"/>
	<g>
		<path class="st65" d="M68.6,229.3c-0.6,0.1-1.1,0.2-1.7,0.2c-0.8,0-1.5-0.1-2.2-0.2c1.4-0.2,2.7-0.4,4-0.7
			C68.7,228.9,68.7,229.2,68.6,229.3z"/>
		<path class="st65" d="M61.3,228.9c1,0.2,2.1,0.4,3.3,0.5c-0.3,0-0.6,0.1-0.9,0.1C63,229.3,62.2,229.1,61.3,228.9z"/>
		<path class="st65" d="M33.5,170.6c-2.8-3.6-0.2-7.4,5.8-9.2c1.1-0.3,1.9-0.7,2.4-1.1c4.2,1.1,5.4,4.1,4.4,6.9
			c-1.3,3.5-0.5,5.8,5.1,8.5c5.6,2.7,9.1,5.5,3.6,16.1c-5.5,10.5,4.4,16.1,2.6,21.1c-0.9,2.7,3.6,7.3,7.2,11c-1.9,2-3.6,3.7-4,4.7
			c-8.6-3.2-22.2-13.9-22.2-30.6C38.5,178.1,36.3,174.2,33.5,170.6z"/>
		<path class="st65" d="M71.8,212.9c-1.7-5,8.1-10.6,2.6-21.1c-5.5-10.5-1.9-13.4,3.6-16.1c5.6-2.7,6.4-5,5.1-8.5
			c-0.5-1.5-0.4-3.1,0.5-4.4c1.1,2,5.9,2.2,7.5,6.1c1.3,3.3-5.3,6.6-3.7,12.3c3.8,13.7-0.4,36.8-12.2,45.2c-2,1-4.2,1.8-6.6,2.3
			c-0.3-1-2-2.8-4-4.8C68.2,220.2,72.7,215.6,71.8,212.9z"/>
	</g>
	<path class="st66" d="M63.8,210c-9.1-4.5-15.9-12.3-16.7-14.3c-0.8-2-1-2.7,0.4-0.9c6.3,9.5,16.4,13.4,16.4,13.4
		S64.1,209.3,63.8,210z M66.6,209c9.5-3.6,17-10.7,18-12.6c1-1.9,1.2-2.6-0.3-0.9c-7.2,8.8-17.6,11.8-17.6,11.8S66.5,208.2,66.6,209
		z M63.3,191c0,0-8.9-3.5-14.4-11.8c-1.2-1.6-1.1-1-0.4,0.8c0.7,1.8,6.7,8.6,14.7,12.6C63.4,191.9,63.3,191,63.3,191z M65.7,191.6
		c8.4-3.2,15-9.4,15.9-11.1c0.9-1.7,1.1-2.3-0.3-0.8c-6.3,7.7-15.5,10.3-15.5,10.3S65.5,190.9,65.7,191.6z M62.8,176
		c0,0-5.9-2.3-9.7-7.9c-0.8-1.1-0.7-0.7-0.2,0.5c0.5,1.2,4.5,5.8,9.9,8.4C62.9,176.6,62.8,176,62.8,176z M64.4,176.4
		c5.6-2.1,10-6.3,10.6-7.5c0.6-1.1,0.7-1.6-0.2-0.5c-4.3,5.2-10.4,6.9-10.4,6.9S64.3,175.9,64.4,176.4z M62.5,157.8
		c0,0-4.3-1.7-7.1-5.8c-0.6-0.8-0.5-0.5-0.2,0.4c0.4,0.9,3.3,4.2,7.2,6.2C62.6,158.2,62.5,157.8,62.5,157.8z M63.7,158.1
		c4.1-1.5,7.3-4.6,7.8-5.4c0.4-0.8,0.5-1.1-0.1-0.4c-3.1,3.8-7.6,5.1-7.6,5.1S63.6,157.7,63.7,158.1z"/>
	<g>
		<path class="st67" d="M75,203.4c3-1.8,6.5-4.4,9.4-8c1.5-1.7,1.3-1,0.3,0.9c-0.7,1.4-4.8,5.4-10.6,8.9
			C74.4,204.7,74.7,204,75,203.4z"/>
		<path class="st67" d="M48.5,180c-0.7-1.8-0.9-2.4,0.4-0.8c2.3,3.5,5.3,6.1,7.9,8c-0.1,0.3-0.2,0.7-0.4,1
			C52,184.8,49,181.2,48.5,180z"/>
		<path class="st67" d="M47.5,194.8c1.8,2.7,4,5,6.1,6.9c0.2,0.7,0.5,1.4,0.7,2c-4.1-3.5-6.8-6.8-7.3-8
			C46.3,193.7,46.2,193,47.5,194.8z"/>
		<path class="st67" d="M81.2,179.7c1.4-1.5,1.2-0.9,0.3,0.8c-0.6,1.2-4,4.5-8.7,7.5c-0.1-0.3-0.2-0.7-0.3-1
			C75.2,185.4,78.5,183,81.2,179.7z"/>
	</g>
	<path class="st68" d="M64.9,229.6c4.3-0.6-12.3-11.7-10.6-16.7c1.7-5-8.1-10.6-2.6-21.1c5.5-10.5,1.9-13.4-3.6-16.1
		c-5.6-2.7-6.4-5-5.1-8.5c1.3-3.5-1.1-7.6-8.8-7.3c-7.7,0.2-6.8-1.8-10.2-4.2c-6.2-4.3-14.6,3.3-4.2,15.8c7.5,9,12.5,14.4,12.3,20.7
		C31.6,204,38.5,228.9,64.9,229.6z"/>
	<path class="st66" d="M26.8,173.2c5.4,2.4,9.9,8.5,9.7,17.8c-0.1,8,1.1,16.4,6.4,23.9c5.3,7.5,15.7,13.6,20.8,14.5
		c-2.5,0.6-9.6-0.8-16.5-5.3c-8.6-5.5-13.5-13.1-13.4-23.4c0.1-4.2,1.6-10.9-0.1-16.3C32.2,179.3,26.8,173.2,26.8,173.2z"/>
	<path class="st68" d="M63.4,229.6c-4.3-0.6,12.3-11.7,10.6-16.7c-1.7-5,8.1-10.6,2.6-21.1c-5.5-10.5-1.9-13.4,3.6-16.1
		c5.6-2.7,6.4-5,5.1-8.5c-1.3-3.5,1.1-7.6,8.8-7.3c7.7,0.2,6.8-1.8,10.2-4.2c6.2-4.3,14.6,3.3,4.2,15.8c-7.5,9-12.5,14.4-12.3,20.7
		C96.6,204,89.8,228.9,63.4,229.6z"/>
	<path class="st66" d="M101.4,173.2c-4.4,3.2-10.7,9.9-10.2,17.9c0.5,8,0.4,16.8-4.9,24.3c-5.3,7.5-16.7,13.1-21.8,13.9
		c2.5,0.6,9.6-0.8,16.5-5.3c8.6-5.5,13.5-13.1,13.4-23.4c-0.1-4.2-1.6-10.9,0.1-16.3C96.1,179.3,101.4,173.2,101.4,173.2z"/>
	<path class="st66" d="M62.6,229.3c-0.7-5.1-0.3-50.1-1.1-61.9c-0.8-13.1,0.8-23.6,1.4-20.6c0.6,3.2,5.8,69.9,5,82.2
		C67.3,229.4,63.6,230,62.6,229.3z"/>
	<path class="st66" d="M42.2,214.7c0,0,3.6-5.6,3.5-12.1c0-1.3,0.2-1,0.5,0.2c0.3,1.2-0.4,7.2-3.4,12.6
		C42.5,215.2,42.2,214.7,42.2,214.7z"/>
	<path class="st66" d="M37.1,197.9c0,0,4.4-2.7,6.5-7.3c0.5-0.9,0.5-0.6,0.3,0.3c-0.2,0.9-2.7,4.9-6.6,7.8
		C37.2,198.4,37.1,197.9,37.1,197.9z"/>
	<path class="st66" d="M35.8,187.5c0,0,2-4.8,1-9.7c-0.1-1,0-0.8,0.4,0.1c0.4,0.9,0.7,5.5-0.9,10.1
		C36.1,187.8,35.8,187.5,35.8,187.5z"/>
	<path class="st66" d="M87.7,215.3c0,0-3.6-5.6-3.5-12.1c0-1.3-0.2-1-0.5,0.2c-0.3,1.2,0.4,7.2,3.4,12.6
		C87.4,215.8,87.7,215.3,87.7,215.3z"/>
	<path class="st66" d="M92.5,198.8c0,0-4.4-2.7-6.5-7.3c-0.5-0.9-0.5-0.6-0.3,0.3c0.2,0.9,2.7,4.9,6.6,7.8
		C92.5,199.3,92.5,198.8,92.5,198.8z"/>
	<path class="st66" d="M92.3,187.8c0,0-2-4.8-1-9.7c0.1-1,0-0.8-0.4,0.1c-0.4,0.9-0.7,5.5,0.9,10.1C92,188.1,92.3,187.8,92.3,187.8z
		"/>
</g>
<g>
	<path class="st69" d="M689.3,403.4c4.8,4.6,10.9,13.3,2.3,21.7c-8.5,8.4-58.2,45-62.4,43c-4.2-2,19.1-43.9,27.5-57.6
		C665.1,396.7,672.4,387.1,689.3,403.4z"/>
	<path class="st70" d="M686,402.6c2.8,2.1,7.2,8.7,2,6.3c-5.3-2.5-9.5-9.1-8.1-9.2C682.3,399.3,684.9,401.7,686,402.6z"/>
	<g>
		<path class="st71" d="M686.7,406.2c0,0,13.2-12.2,28.4-17.2c-0.2-2.4-1.9-6.5-3.9-8.4c-5.3,2.9-20.9,16.3-26.2,24.2
			C685.7,406,686.7,406.2,686.7,406.2z"/>
		<path class="st72" d="M710.6,375.5c0,0-5.9,13.3-24.4,30.3c-1.6-0.4-2.6-2.3-2.6-2.3s17.4-16.8,18.3-34.3
			C707.4,371.8,710.6,375.5,710.6,375.5z"/>
		<path class="st73" d="M698.5,375c0,0-2.9,16.2-14.1,29.6c-1.4-1.6-1.7-2.4-1.7-2.4s6.5-2.4,8.6-25.5
			C694.3,374.7,698.5,375,698.5,375z"/>
		<path class="st72" d="M692.3,387.6c0,0-2.4,8.3-8.7,15.9c-1-0.7-1.2-1.8-1.2-1.8s5.4-8,5-16.6
			C689.5,385.2,692.3,387.6,692.3,387.6z"/>
		<path class="st72" d="M706.1,400.3c0,0,0.7-1.6,0-4.9c-6.4,1.3-15.8,6.6-19.7,10.6c0.4,0.7,1.2,0.8,1.2,0.8
			S697.3,399.9,706.1,400.3z"/>
	</g>
	<path class="st74" d="M691.7,415.3c-4.6-1.1-8.1-2.6-13.7-9.2c-5.6-6.6-9.7-2.7-5.5,3.1c4.2,5.7,12.2,14.3,6.7,11.8
		c-5.5-2.5-9.6-9.9-13.3-12.1c-3.7-2.2,4,11.6,11.7,16.5c7.8,4.8,12.7,1.5,10.2-1.1c-5-5.2-6.9-9.7-3.2-7.2
		C691.2,421.5,696.5,416.5,691.7,415.3z"/>
	<path class="st74" d="M678.4,430.6c-4.2-2.8-7.2-2.7-13.8-11.7c-4.6-6.2-5.2-1.2-1.9,5.2c3.8,7.3,10.8,13.8,5.7,11
		c-5.1-2.7-11.4-9.9-13.8-6.6c-2.4,3.3,6,12.7,9.7,13.3c3.7,0.5-5-4.4-2.3-5.5c2.7-1.1,9.2,4.1,11.8,1.5c1.1-1.1-4.1-7.1-1-5.7
		C675.9,433.6,681.9,432.9,678.4,430.6z"/>
	<path class="st74" d="M657.4,446.2c-5.9-4.7-8.6-5.8-8.1-1.2c0.5,4.6-1.8,8.9-6.1,10.2c-4.2,1.3-12.8,11-8.1,8.1
		c4.7-2.9,12.9-5.6,14.8-10.7c1.9-5.1,2-5.3,4.1-4.3C656,449.3,661.2,449.2,657.4,446.2z"/>
	<path class="st75" d="M685.1,429.5c-4.3-0.7-11.6-3.2-19.3-13.8C667.6,421.6,680.5,431.4,685.1,429.5z"/>
	<path class="st75" d="M656.7,440.1c0,0-7.1-7.7-8.6-11.3C649.6,435.6,656.7,440.1,656.7,440.1z"/>
	<path class="st75" d="M673.2,412.1c0,0-6-8.6-7-12.4C666.8,406.7,673.2,412.1,673.2,412.1z"/>
	<path class="st75" d="M662.1,446.4c0,0-4.1,1.3-7.4-5.1C657.8,445.4,662.1,446.4,662.1,446.4z"/>
	<path class="st75" d="M645.1,452.3c0,0-4.3,0.3-6.3-7C641.1,450.3,645.1,452.3,645.1,452.3z"/>
	<path class="st75" d="M677.5,434.8c0,0-4.1,1.5-8-5C673.1,434,677.5,434.8,677.5,434.8z"/>
	<path class="st75" d="M693,422.6c0,0-4.1,1.5-8-5C688.6,421.7,693,422.6,693,422.6z"/>
</g>
<g>
	<path class="st76" d="M331.6,288.5c5.2-1.5,8.1-11.1-0.6-12c3.8-1.8,2.6-7.4-2.1-8.1c2.5-5.1-2.5-10.7-6.7-7.5
		c1.4-3.1-2.7-5.8-5.7-3.3c-2.2-4.1-7.1-3.1-7.7,0.6c-1.4-3.7-7.1-4.5-9.1,0c-3.8-2.9-9.8,0.2-7.3,6.1c-1.5-3.3-8.8,1.1-4.9,5
		c-3.3,0.6-3.3,5.2-1.5,7.6c-2.7,1.9-3,4.5,0.1,4.7c-4,1.9-1.8,5.3,0.7,5.9c-4.2,1.5,48.5,7.8,43.9,5.4
		C334.3,292.5,334.5,289.7,331.6,288.5z"/>
	<path class="st77" d="M307.8,276.8c-1.7-5.1-8.6-14.9-9.2-6.2c-2-3.7-7.6-2.3-8,2.5c-5.2-2.2-10.5,3-7.2,7
		c-3.1-1.3-5.7,2.9-3.1,5.9c-4,2.4-2.8,7.2,1,7.7c-3.7,1.5-11.6,10.2-7.1,11.9c-2.7,3.9-0.8,8.5,5,5.7c-3.2,1.6,7.2,6,8,0.7
		c3.3,1.1,6.7-2.1,10.1-3.4c4.9-2,6.9-2.3,8.2-3.4c2,2.6,6,1.7,6-1.4c-0.2,5,8.1,9.5,8.6,7c-1.5,5,4.5,7.5,7.4,3.8
		c0,5.1,6.4,3.3,5.8,0.2c5.4,2.1,9.8-0.6,6.3-4.8c6.8-1.4-0.9-13.7-4.1-15.5c6.1,0.6,3.6-6.3-0.7-6.4c3-2.6,1.1-7.5-2.4-5.3
		c2.9-3.7-1.1-8-4.3-5.5c1.7-3.3,0.2-6.9-3.7-4.2c1.4-6.1-5.1-1.9-7.4,2.8C316.6,272.1,309,273.8,307.8,276.8z"/>
	<path class="st78" d="M328.4,306.3c0,0-10.2,11.1-10.4,36.5c-0.2,3.5-24.4,5.2-27.4,0c0.7-15-0.6-27-8.1-37.2
		c2.6-3.5,5.1-5.6,5.1-5.6s6.5,13.1,8.6,17.1c1.2,2.3,1.5-7.1-2.7-19c4.5-3,6.3-3,6.3-3s1.7,13.4,2.6,21.3
		c1.2-1.6,1.9-22.9,1.9-22.9l3.6,0.2c0,0-0.7,22.4-0.2,23.3c0.5,0.9,5.8-15.9,9.4-19.7c5.3,0.2,5.7,2.8,5.7,2.8s-7.4,14.8-7.9,19.2
		c-0.2,1.8,8.2-13.9,10.1-17.5C327.7,301.6,328.4,306.3,328.4,306.3z"/>
	<path class="st79" d="M326.8,308.4l-2.6,4.7c0,0-0.5-4.4-3.9-1.1c2.8-5.4,3.4-6.8,3.4-6.8L326.8,308.4z"/>
	<path class="st79" d="M320.4,302.2l-2.7,5.1c0,0-1-4.5-4.8-0.8c2.9-5.9,3.5-7.3,3.5-7.3L320.4,302.2z"/>
	<path class="st79" d="M307,296l0.1,10.3c0,0-2-4.1-3.1-0.1c-0.1-6-0.1-9.6-0.1-9.6L307,296z"/>
	<path class="st79" d="M298.5,297.6l2,10.2c0,0-2.8-3.6-3.2,0.7c-1.2-5.9-1.9-9.5-1.9-9.5L298.5,297.6z"/>
	<path class="st79" d="M287.6,303.2l5.3,8.9c0,0-6-2.4-5,1.8c-3.1-5.2-4.8-9.1-4.8-9.1L287.6,303.2z"/>
	<path class="st80" d="M345,274c1.5-4.3-3.6-11-8.5-5.6c0.6-3.5-3.8-5.5-6.6-2.6c-2.2-4.2-8.5-3.6-8.5,0.8c-1.4-2.5-5.3-1.1-5.1,2.3
		c-3.9-0.5-5.6,3.3-3.4,5.6c-3.2-0.9-6.6,2.7-4.5,6.2c-3.9,1.2-4.7,6.8,0.6,8c-3-0.6-3.6,6.6,1,5.9c-1.2,2.6,1.9,4.8,4.4,4.8
		c-0.1,2.8,1.6,4.3,3.3,2.2c-0.7,3.7,2.7,3.9,4.4,2.5c-1.1,3.6,0.1,6.7,4.2,4.5c0.5,4.5,5.9,4.6,7.2,2.2c2.5,4.3,9.1,3.1,9-1.5
		c5.3,2.6,7.1-2.9,6-5.8c3.7,3.6,5.7-2.2,2.9-4.6c3.4-0.1,4.7-4.4,1.2-4.7c3.9-0.9,3.5-5.9,0-5.9c2.9-1.3,3.8-4.5-0.2-4.7
		c4.1-3.3-0.9-8.7-4.8-6.8C349,274.2,347.3,272.6,345,274z"/>
	<path class="st81" d="M297.5,303.4c3.9,2.9,12.3-0.3,8.3-7c3.4,1.7,6.7-2.2,4.6-5.9c5-1,6.3-7.6,1.7-8.9c2.9-0.7,2.7-5-0.7-5.9
		c1.8-3.8-1.7-6.7-4.6-5.2c1.9-3-0.7-7.5-4.9-6.5c0-4.3-5.5-6.9-8.3-1.9c1.5-2.8-5.6-5.7-6.3-0.8c-2.2-2-5.5,0.5-6.2,3
		c-2.8-0.9-4.8,0.3-3.3,2.6c-3.5-1.8-4.8,1.6-3.9,3.7c-3.3-2.2-6.8-1.9-5.9,2.9c-4.8-0.9-6.5,4.6-4.4,6.6c-5.1,1.2-6,8.3-1.2,9.6
		c-4.3,4.6,0.8,8.2,4,7.8c-4.8,2.7,0.5,6.5,3.8,4.4c-0.9,3.5,3,6.1,4.4,2.7c-0.3,4.2,4.9,5.4,6,1.8c0.4,3.4,3.4,5.2,4.9,1.2
		c2,5.2,9.1,1.8,8.4-2.8C296.1,307.5,298.2,306.2,297.5,303.4z"/>
	<path class="st82" d="M341,273.5c0.5-2.2-2.4-4.6-4.3-1.7c-2.2-3.8-5.1-3.3-5.5-0.9c-2.9-2.2-7.4,0.7-3.6,2.6
		c0.3,2.9,3.6,3.3,4.6,1.9c2.4,5.1,6.3,4.5,6.5,2.1c0.7,5.8,2.7,4.1,4.1,4.3c-0.7,5.5,0.7,6.5,3.6,6.3c-0.7,4.5,4.6,1.5,3.1-0.2
		c2.4-3.4,1-7.4-2.4-6.2c0.3-3.6-2.4-4.6-4.6-4.5C344.2,273.3,341,273.5,341,273.5z"/>
	<path class="st83" d="M294,264.9c1-2.7,7.2-0.9,5.8,2.9c3.4-1.7,7.2,2.4,4.1,4.1c3.8,4.1-1.2,3.4-2.9,1.4c-0.3,3.1-4.8,0.2-5-2.9
		c-2.4,2.4-5.3-0.7-5.5-2.7c-1,3.6-3.4,2.9-5,0.9c-2.4,3.3-4.8-2.1-1.5-2.1c1.9-3.9,5.5-3.9,6.8-1.4C293.1,262,294,264.9,294,264.9z
		"/>
	<path class="st84" d="M336.8,303c2.9,0,5.7,2.2,1.7,2.7C334.6,306.3,333.7,303,336.8,303z"/>
	<path class="st84" d="M327.3,301.1c2.3,0.4,4.2,2.9,0.9,2.9C324.9,304,324.8,300.6,327.3,301.1z"/>
	<path class="st84" d="M320.6,288.7c2.2,0.9,3.3,3.9,0.2,3.1C317.7,290.9,318.3,287.7,320.6,288.7z"/>
	<path class="st84" d="M316.1,292.7c1.6,0.7,2.5,2.9,0.1,2.3C313.9,294.4,314.3,291.9,316.1,292.7z"/>
	<path class="st84" d="M330.7,293.7c1.4,1.1,1.7,3.4-0.4,2.3C328.2,294.8,329.3,292.6,330.7,293.7z"/>
	<path class="st84" d="M322,295.5c1.4,1.1,1.7,3.4-0.4,2.3C319.4,296.6,320.5,294.3,322,295.5z"/>
	<path class="st84" d="M317.9,277.8c1.4,1.1,1.7,3.4-0.4,2.2C315.3,278.9,316.4,276.7,317.9,277.8z"/>
	<path class="st80" d="M295.8,294.3c2.2-1.9,5.7-2.1,3.1,0.9C296.3,298.2,293.5,296.4,295.8,294.3z"/>
	<path class="st80" d="M287.4,299.2c2-1.3,5.1-0.6,2.6,1.6C287.6,302.9,285.2,300.5,287.4,299.2z"/>
	<path class="st80" d="M274.1,294.4c2.3-0.8,5.1,0.7,2.2,2.2C273.4,298.1,271.8,295.2,274.1,294.4z"/>
	<path class="st80" d="M273.4,300.4c1.7-0.6,3.8,0.5,1.6,1.6C272.9,303.2,271.7,301,273.4,300.4z"/>
	<path class="st80" d="M285.1,291.4c1.8-0.1,3.5,1.4,1.2,2C283.9,293.9,283.2,291.5,285.1,291.4z"/>
	<path class="st80" d="M279.7,298.6c1.8-0.1,3.5,1.4,1.2,2C278.5,301.1,277.8,298.7,279.7,298.6z"/>
	<path class="st80" d="M264.9,288.2c1.8-0.1,3.5,1.4,1.2,2C263.7,290.7,263,288.3,264.9,288.2z"/>
	<path class="st85" d="M320.7,315.7c-2.4,3.7-5,12.1-4.9,18.3c0.1,5.8,1.7,2.9,1.7-1.1c0-3.3,1.2-8.8,2.2-12
		C321.9,315.1,323.2,311.8,320.7,315.7z"/>
</g>
<g>
	<path class="st86" d="M98.6,521.5c3.3,9.4-4.5,28.1-31.1,46.4c-26.6,18.3-37.7,10.4-41.1,3.6c-3.5-6.9-6.8-19.7,15.3-31.3
		c20.2-10.6,34.8-22.5,39.8-26.3C86.3,510.1,95,511.5,98.6,521.5z"/>
	<g>
		<g>
			<path class="st87" d="M23.8,560.8c2.7-3.2,8.6-9.2,19.8-15.5c15-8.6,25.7-16.5,31.4-22.1c7.7-7.5,15.3-9.2,17.6-8.7
				c2.3,0.5,0.6,2.3,0.6,2.3c-7.5,3.2-11.4,8.8-26.6,22.4c-12.9,11.6-35.5,21.8-41.1,30.4C24.4,567.1,23.6,564.1,23.8,560.8z"/>
			<path class="st87" d="M94.2,519.1c1-4.8,3.1,0.2,3.1,0.2c-0.2,8.1-1,21.8-30.9,43c-16.1,11.5-25.9,15.2-31.5,16.3
				c-3.1-0.9-5.3-2.5-6.9-4.4c4.5-1.6,19.1-7.4,33.3-18.2C87,536.3,93.2,523.9,94.2,519.1z"/>
		</g>
	</g>
	<path class="st88" d="M94.2,519.1c-4,6.3-10.4,16.5-26.4,29.6c-16.1,13.1-36.5,23.2-40.2,25.5c17.7-5.7,36.1-18.9,42.7-24.8
		C76.8,543.6,94.2,525.6,94.2,519.1z"/>
	<path class="st89" d="M107.4,507.8c-1.8,5.8-7.1,11.5-9.2,13.3c-3.6,0.9-7.2-5.3-6.4-7.7c6.1-4.1,8.7-6.3,10-8.4
		C104.2,506.9,107.4,507.8,107.4,507.8z"/>
	<path class="st90" d="M105.8,505.9c2.5,1,2.1,3.2-0.2,2.3C102.4,507,98.6,503.2,105.8,505.9z"/>
	<path class="st91" d="M105.4,508.9c-0.4,2.4-3.7,7.7-8.6,11.1C101.1,515.9,105.4,508.9,105.4,508.9z"/>
	<path class="st91" d="M103.2,508.7c-1.4,2.2-3.5,6.9-9.1,10C96.8,515.1,103.2,508.7,103.2,508.7z"/>
	<path class="st91" d="M102,507.3c0,0-2.6,5.5-9.4,8.2C96,512.6,102,507.3,102,507.3z"/>
	<path class="st88" d="M93.3,540c-1.1,3.1-5.7,9.5-13.9,17.2c-5.7,5.4-12.5,9.5-12.9,8.1c-0.3-0.9,6.9-5.1,13.6-11.6
		C85.8,548.1,94.1,537.9,93.3,540z"/>
	<g>
		<path class="st92" d="M89.7,536.2c-0.3,2-3.1,4.5-3.5,3.6C85.8,538.9,90,534.7,89.7,536.2z"/>
		<path class="st92" d="M79.6,544.1c-0.5,2-3.5,4.1-3.8,3.2C75.5,546.4,80,542.7,79.6,544.1z"/>
		<path class="st92" d="M69.5,556.4c-0.9,1.8-4.2,3.3-4.3,2.4C65,557.9,70.1,555.1,69.5,556.4z"/>
		<path class="st92" d="M52.1,566.8c-1,1.7-4.4,3-4.5,2.1C47.5,567.9,52.9,565.5,52.1,566.8z"/>
		<path class="st92" d="M38,572.7c-1,1.7-4.4,3-4.5,2.1C33.4,573.8,38.8,571.4,38,572.7z"/>
		<path class="st92" d="M71,531.9c-0.8,1.8-4.1,3.5-4.3,2.5C66.6,533.5,71.6,530.5,71,531.9z"/>
		<path class="st92" d="M52.4,542.8c-0.5,1.2-2.7,2.3-2.8,1.6C49.5,543.8,52.8,541.9,52.4,542.8z"/>
		<path class="st92" d="M72.3,551c-0.5,1.2-2.7,2.3-2.8,1.6C69.4,552,72.7,550.1,72.3,551z"/>
		<path class="st92" d="M56.7,562.5c-0.5,1.2-2.7,2.3-2.8,1.6C53.8,563.5,57.1,561.6,56.7,562.5z"/>
		<path class="st92" d="M45.5,572.8c-1.1,1.1-4.4,2.5-4.4,2C41.1,574.3,46.3,572,45.5,572.8z"/>
		<path class="st92" d="M60.5,538.7c-0.9,1.2-4.1,2.9-4.2,2.4C56.2,540.7,61.2,537.8,60.5,538.7z"/>
		<path class="st92" d="M30.4,556.9c-0.8,1.3-3.7,3.4-3.8,2.9C26.5,559.4,31,555.9,30.4,556.9z"/>
		<path class="st92" d="M38.5,554.6c-0.5,1.2-2.7,2.3-2.8,1.6C35.6,555.6,38.9,553.7,38.5,554.6z"/>
		<path class="st87" d="M51,555.4c-0.6,1.2-2.8,2.1-2.9,1.5C48,556.3,51.4,554.5,51,555.4z"/>
		<path class="st87" d="M88.5,522.4c-0.7,1.5-3.5,3.4-3.6,2.8C84.7,524.6,89,521.3,88.5,522.4z"/>
		<path class="st87" d="M68.6,545.3c-0.7,1.5-3.5,3.4-3.6,2.8C64.8,547.5,69.1,544.2,68.6,545.3z"/>
		<path class="st87" d="M34.7,563.5c-0.7,1.5-3.5,3.4-3.6,2.8C30.8,565.7,35.2,562.4,34.7,563.5z"/>
		<path class="st87" d="M60.9,569.5c-0.9,1.2-3.9,2.7-4,2.2C56.8,571.2,61.5,568.6,60.9,569.5z"/>
		<path class="st87" d="M70.8,523.1c-0.8,1.3-3.6,3.2-3.7,2.6C67,525.2,71.4,522.1,70.8,523.1z"/>
		<path class="st92" d="M82.6,520.1c-0.5,1.2-2.7,2.3-2.8,1.6C79.7,521.2,83,519.3,82.6,520.1z"/>
		<path class="st87" d="M42.9,541c-0.8,1.3-3.6,3.2-3.7,2.6C39,543.1,43.5,540,42.9,541z"/>
	</g>
</g>
</svg>
