<?xml version="1.0" encoding="UTF-8" standalone="no"?>
<svg
   width="1920"
   height="1080"
   viewBox="0 0 1920 1080"
   version="1.1"
   id="svg625"
   sodipodi:docname="background.svg"
   inkscape:version="1.2.1 (9c6d41e410, 2022-07-14)"
   xmlns:inkscape="http://www.inkscape.org/namespaces/inkscape"
   xmlns:sodipodi="http://sodipodi.sourceforge.net/DTD/sodipodi-0.dtd"
   xmlns:xlink="http://www.w3.org/1999/xlink"
   xmlns="http://www.w3.org/2000/svg"
   xmlns:svg="http://www.w3.org/2000/svg"
   xmlns:rdf="http://www.w3.org/1999/02/22-rdf-syntax-ns#"
   xmlns:cc="http://creativecommons.org/ns#"
   xmlns:dc="http://purl.org/dc/elements/1.1/">
  <sodipodi:namedview
     id="namedview627"
     pagecolor="#ffffff"
     bordercolor="#000000"
     borderopacity="0.25"
     inkscape:showpageshadow="2"
     inkscape:pageopacity="0.0"
     inkscape:pagecheckerboard="0"
     inkscape:deskcolor="#d1d1d1"
     showgrid="false"
     inkscape:zoom="0.3140625"
     inkscape:cx="780.09951"
     inkscape:cy="995.02488"
     inkscape:window-width="1346"
     inkscape:window-height="1040"
     inkscape:window-x="478"
     inkscape:window-y="95"
     inkscape:window-maximized="0"
     inkscape:current-layer="svg625" />
  <defs
     id="defs52">
    <clipPath
       id="clip-path">
      <rect
         x="-0.0021"
         y="-2.0913"
         width="1921.2366"
         height="1083.1855"
         style="fill:none"
         id="rect2" />
    </clipPath>
    <linearGradient
       id="_ÂÁ_Ï_ÌÌ_È_ËÂÌÚ_30"
       x1="858.4239"
       y1="225.7938"
       x2="1091.622"
       y2="369.0625"
       gradientUnits="userSpaceOnUse">
      <stop
         offset="0.1606"
         stop-color="#772d28"
         id="stop8" />
      <stop
         offset="0.3449"
         stop-color="#8e3930"
         id="stop10" />
      <stop
         offset="1"
         stop-color="#d2603c"
         id="stop12" />
    </linearGradient>
    <linearGradient
       id="_ÂÁ_Ï_ÌÌ_È_ËÂÌÚ_33"
       x1="859.8178"
       y1="298.7542"
       x2="987.6457"
       y2="399.1607"
       gradientUnits="userSpaceOnUse">
      <stop
         offset="0.0135"
         stop-color="#772d28"
         id="stop15" />
      <stop
         offset="0.1554"
         stop-color="#7d302a"
         id="stop17" />
      <stop
         offset="0.5915"
         stop-color="#8a372e"
         id="stop19" />
      <stop
         offset="1"
         stop-color="#8e3930"
         id="stop21" />
    </linearGradient>
    <linearGradient
       id="_ÂÁ_Ï_ÌÌ_È_ËÂÌÚ_30-2"
       x1="747.9903"
       y1="420.3453"
       x2="1067.2388"
       y2="616.4803"
       xlink:href="#_ÂÁ_Ï_ÌÌ_È_ËÂÌÚ_30" />
    <linearGradient
       id="_ÂÁ_Ï_ÌÌ_È_ËÂÌÚ_30-3"
       x1="831.1923"
       y1="438.5905"
       x2="678.7989"
       y2="643.983"
       xlink:href="#_ÂÁ_Ï_ÌÌ_È_ËÂÌÚ_30" />
    <linearGradient
       id="_ÂÁ_Ï_ÌÌ_È_ËÂÌÚ_12"
       x1="1054.8104"
       y1="573.5183"
       x2="1084.7163"
       y2="868.2018"
       gradientUnits="userSpaceOnUse">
      <stop
         offset="0.2666"
         stop-color="#bb492f"
         id="stop26" />
      <stop
         offset="0.8134"
         stop-color="#a03c2b"
         id="stop28" />
    </linearGradient>
    <linearGradient
       id="_ÂÁ_Ï_ÌÌ_È_ËÂÌÚ_10"
       x1="791.7648"
       y1="882.488"
       x2="791.7648"
       y2="485.7021"
       gradientUnits="userSpaceOnUse">
      <stop
         offset="0.1829"
         stop-color="#bb492f"
         id="stop31" />
      <stop
         offset="0.8134"
         stop-color="#d2603c"
         id="stop33" />
    </linearGradient>
    <linearGradient
       id="_ÂÁ_Ï_ÌÌ_È_ËÂÌÚ_10-2"
       x1="622.9375"
       y1="882.5378"
       x2="622.9375"
       y2="485.7021"
       xlink:href="#_ÂÁ_Ï_ÌÌ_È_ËÂÌÚ_10" />
    <linearGradient
       id="_ÂÁ_Ï_ÌÌ_È_ËÂÌÚ_12-2"
       x1="1461.3056"
       y1="766.5153"
       x2="1671.8273"
       y2="766.5153"
       gradientTransform="translate(2910.8499 -115.683) rotate(136.2115)"
       xlink:href="#_ÂÁ_Ï_ÌÌ_È_ËÂÌÚ_12" />
    <linearGradient
       id="_ÂÁ_Ï_ÌÌ_È_ËÂÌÚ_12-3"
       x1="960.3071"
       y1="482.756"
       x2="1171.723"
       y2="482.756"
       xlink:href="#_ÂÁ_Ï_ÌÌ_È_ËÂÌÚ_12" />
    <linearGradient
       id="_ÂÁ_Ï_ÌÌ_È_ËÂÌÚ_12-4"
       x1="1055.0941"
       y1="573.3808"
       x2="1084.9946"
       y2="868.0109"
       xlink:href="#_ÂÁ_Ï_ÌÌ_È_ËÂÌÚ_12" />
    <linearGradient
       id="_ÂÁ_Ï_ÌÌ_È_ËÂÌÚ_10-3"
       x1="792.0962"
       y1="882.2946"
       x2="792.0962"
       y2="485.5805"
       xlink:href="#_ÂÁ_Ï_ÌÌ_È_ËÂÌÚ_10" />
    <linearGradient
       id="_ÂÁ_Ï_ÌÌ_È_ËÂÌÚ_7"
       x1="699.7387"
       y1="558.9845"
       x2="1117.415"
       y2="248.4241"
       gradientUnits="userSpaceOnUse">
      <stop
         offset="0.2801"
         stop-color="#e27244"
         id="stop41" />
      <stop
         offset="0.8134"
         stop-color="#f2794e"
         id="stop43" />
    </linearGradient>
    <radialGradient
       id="radial-gradient"
       cx="183.6258"
       cy="318.2268"
       r="45.5488"
       gradientTransform="matrix(1, 0, 0, -1, 0, 1081)"
       gradientUnits="userSpaceOnUse">
      <stop
         offset="0"
         stop-color="#ff6163"
         id="stop46" />
      <stop
         offset="1"
         stop-color="#c62020"
         id="stop48" />
    </radialGradient>
    <radialGradient
       id="radial-gradient-2"
       cx="135.5258"
       cy="171.3968"
       r="51.0299"
       xlink:href="#radial-gradient" />
    <radialGradient
       id="radial-gradient-8"
       cx="223.35091"
       cy="410.99951"
       r="59.925201"
       gradientTransform="matrix(1,0,0,-1,0,1422)"
       gradientUnits="userSpaceOnUse">
      <stop
         offset="0"
         stop-color="#ff6163"
         id="stop7574" />
      <stop
         offset="1"
         stop-color="#c62020"
         id="stop7576" />
    </radialGradient>
    <clipPath
       clipPathUnits="userSpaceOnUse"
       id="clipPath5814">
      <g
         id="g5818">
        <rect
           x="1.2031"
           y="1.3787"
           width="1917.7726"
           height="1078.2239"
           style="fill:none"
           id="rect5816" />
      </g>
    </clipPath>
  </defs>
  <title
     id="title54">emotions_lvl1</title>
  <rect
     x="-2.141"
     y="0.0199"
     width="1923.3579"
     height="1084.8073"
     style="fill:#8f63bc"
     id="rect56" />
  <path
     d="m 937.0912,906.2913 c 93.4668,40.196 206.4339,30.3337 303.3374,8.7415 60.2939,-13.4485 116.18,-37.581 171.7667,-64.1791 77.3286,-37.0579 154.4332,-71.1274 238.4112,-90.4035 71.8745,-16.5117 147.7089,-22.7877 220.33,-7.1725 a 365.8613,365.8613 0 0 1 41.0925,11.5059 v 155.1055 c -72.547,28.989 -146.8123,50.8053 -224.44,63.5066 -92.72,15.1669 -187.5313,19.7992 -281.2222,24.1326 -154.5079,7.0231 -320.148,5.6782 -465.9143,-53.1961 -64.6273,-26.0751 -123.651,-66.6445 -156.45,-129.6282 -30.4084,-58.2766 -33.9947,-129.18 -2.3161,-187.7553 45.5007,-84.1276 175.2782,-114.3119 255.82,-62.1618 46.5466,30.1843 60.8916,94.2886 34.4429,142.7777 -23.5348,43.0351 -71.2021,62.8342 -118.2717,62.1618 16.8853,-11.6553 30.7073,-25.9256 38.6269,-48.1156 9.19,-25.7015 9.6381,-57.5295 -5.6035,-81.139 -34.7418,-53.6444 -110.5015,-24.2072 -137.9961,19.575 -56.3341,89.6563 -1.1207,197.767 88.3863,236.2445 z"
     style="opacity:0.1;isolation:isolate;fill:#ffffff"
     id="path58" />
  <g
     clip-path="url(#clip-path)"
     id="g98">
    <path
       d="m 1302.3737,408.3015 c -7.9958,0 -14.5006,-7.62 -14.5006,-16.9859 0,-9.3659 6.5048,-16.9859 14.5006,-16.9859 7.9958,0 14.4994,7.62 14.4994,16.9859 0,9.3659 -6.5048,16.9859 -14.4994,16.9859 z m 0,-32.8075 c -7.4475,0 -13.5063,7.0975 -13.5063,15.8216 0,8.7241 6.0588,15.8212 13.5063,15.8212 7.4475,0 13.5053,-7.097 13.5053,-15.8212 0,-8.7242 -6.0581,-15.8216 -13.5053,-15.8216 z"
       style="fill:#ffffff"
       id="path60" />
    <path
       d="m 597.0766,386.5661 c -7.9957,0 -14.5,-7.62 -14.5,-16.9859 0,-9.3659 6.5048,-16.9859 14.5,-16.9859 7.9952,0 14.4994,7.62 14.4994,16.9859 0,9.3659 -6.5047,16.9859 -14.4994,16.9859 z m 0,-32.8075 c -7.4474,0 -13.5062,7.0975 -13.5062,15.8216 0,8.7241 6.0588,15.8213 13.5062,15.8213 7.4474,0 13.5053,-7.097 13.5053,-15.8213 0,-8.7243 -6.058,-15.8216 -13.5053,-15.8216 z"
       style="fill:#ffffff"
       id="path62" />
    <path
       d="m 845.1936,287.2836 c -3.998,0 -7.25,-3.81 -7.25,-8.4932 0,-4.6832 3.2524,-8.4932 7.25,-8.4932 3.9976,0 7.25,3.81 7.25,8.4932 0,4.6832 -3.2525,8.4932 -7.25,8.4932 z m 0,-16.4042 c -3.7238,0 -6.7532,3.5488 -6.7532,7.911 0,4.3622 3.0294,7.9108 6.7532,7.9108 3.7238,0 6.7528,-3.5485 6.7528,-7.9108 0,-4.3623 -3.0291,-7.911 -6.7528,-7.911 z"
       style="fill:#ffffff"
       id="path64" />
    <path
       d="m 1390.6139,593.5228 c -5.69,0 -10.3184,-5.4223 -10.3184,-12.0867 0,-6.6644 4.6286,-12.0868 10.3184,-12.0868 5.6898,0 10.3174,5.4222 10.3174,12.0868 0,6.6646 -4.6286,12.0867 -10.3174,12.0867 z m 0,-23.345 c -5.3,0 -9.6108,5.05 -9.6108,11.2583 0,6.2083 4.3113,11.2581 9.6108,11.2581 5.2995,0 9.61,-5.05 9.61,-11.2581 0,-6.2081 -4.3107,-11.2583 -9.61,-11.2583 z"
       style="fill:#ffffff"
       id="path66" />
    <path
       d="m 725.7546,324.39 c -5.1486,0 -5.1571,9.3737 0,9.3737 5.1486,-2e-4 5.1572,-9.3737 0,-9.3737 z"
       style="fill:#ffffff"
       id="path68" />
    <path
       d="m 533.0368,268.5145 c -5.1486,0 -5.1571,9.3737 0,9.3737 5.1486,0 5.1572,-9.3737 0,-9.3737 z"
       style="fill:#ffffff"
       id="path70" />
    <path
       d="m 564.79,822.3956 a 4.4627,4.4627 0 0 0 -4.0007,4.6868 v 3.3253 c 0,2.4514 1.84,4.8 4.0007,4.6868 a 4.4628,4.4628 0 0 0 4.0008,-4.6868 v -3.3253 c -8e-4,-2.4515 -1.8408,-4.8002 -4.0008,-4.6868 z"
       style="fill:#ffffff"
       id="path72" />
    <path
       d="m 1430.5067,882.2487 c -5.1486,0 -5.1572,9.3738 0,9.3738 5.1487,0 5.1572,-9.3738 0,-9.3738 z"
       style="fill:#ffffff"
       id="path74" />
    <path
       d="m 1231.7078,465.815 c -5.1487,0 -5.1571,9.3737 0,9.3737 5.1486,0 5.1572,-9.3737 0,-9.3737 z"
       style="fill:#ffffff"
       id="path76" />
    <path
       d="m 1268.6072,531.3367 c -2.5743,0 -2.5785,4.6869 0,4.6869 2.5744,0 2.5785,-4.6869 0,-4.6869 z"
       style="fill:#ffffff"
       id="path78" />
    <path
       d="m 1531.6122,511.0232 c -3.6637,0 -3.6695,6.67 0,6.67 3.6636,0 3.6696,-6.67 0,-6.67 z"
       style="fill:#ffffff"
       id="path80" />
    <path
       d="m 1351.0311,1004.2983 c -2.5743,0 -2.5787,4.6869 0,4.6869 2.5743,0 2.5789,-4.6869 0,-4.6869 z"
       style="fill:#ffffff"
       id="path82" />
    <path
       d="m 499.506,894.5677 c -2.5744,0 -2.5786,4.6868 0,4.6868 2.574,0 2.5785,-4.6868 0,-4.6868 z"
       style="fill:#ffffff"
       id="path84" />
    <path
       d="m 730.7473,254.6535 c -2.5744,0 -2.5786,4.6869 0,4.6869 2.5743,-4e-4 2.5785,-4.6869 0,-4.6869 z"
       style="fill:#ffffff"
       id="path86" />
    <path
       d="m 600.27,285.8974 c -2.5742,0 -2.5785,4.6868 0,4.6868 2.5746,0 2.5789,-4.6868 0,-4.6868 z"
       style="fill:#ffffff"
       id="path88" />
    <path
       d="m 665.0184,334.7225 a 1.4964,1.4964 0 0 0 -0.6437,-0.4845 1.3277,1.3277 0 0 0 -0.7707,-0.2017 1.8837,1.8837 0 0 0 -1.4145,0.6862 2.6641,2.6641 0 0 0 -0.5859,1.6572 v 3.3251 a 2.6442,2.6442 0 0 0 0.5859,1.6571 1.4975,1.4975 0 0 0 0.6438,0.4846 1.3285,1.3285 0 0 0 0.7707,0.2017 1.8829,1.8829 0 0 0 1.4144,-0.6863 2.6636,2.6636 0 0 0 0.5859,-1.6571 V 336.38 a 2.6447,2.6447 0 0 0 -0.5859,-1.6575 z"
       style="fill:#ffffff"
       id="path90" />
    <path
       d="m 1296.9914,285.274 c -2.5743,0 -2.5785,4.6868 0,4.6868 2.5744,0 2.5786,-4.6868 0,-4.6868 z"
       style="fill:#ffffff"
       id="path92" />
    <path
       d="m 300.4818,1085.959 -37.389,-0.1571 h -467.636 l -0.1484,-396.009 c -0.002,-5.4826 27.3858,8.2327 28.6691,9.0565 a 115.0875,115.0875 0 0 1 27.4486,24.4106 c 3.0332,3.7587 26.1378,41.5085 19.8721,45.1442 a 78.9392,78.9392 0 0 1 76.565,-0.9574 c 23.565,12.9139 40.2474,38.7237 42.9553,66.4566 15.7973,-7.1638 33.7609,-11.2179 50.244,-6.0228 16.4831,5.1951 30.6,22.8916 29.1421,40.8721 37.9754,-24.9627 125.1972,-3.118 165.0054,18.4782 36.1443,19.6088 87.993,58.172 103.9678,165.0428 a 41.065,41.065 0 0 1 25.8116,-3.3281 45.8707,45.8707 0 0 1 36.5683,36.7876 z"
       style="fill:#d2b0ec"
       id="path94" />
    <path
       d="m 1416.0611,1081.4413 37.389,-0.157 h 467.6361 l 0.1483,-396.0091 c 0,-5.4825 -27.3857,8.2328 -28.6691,9.0566 a 115.0849,115.0849 0 0 0 -27.4486,24.4108 c -3.0332,3.7588 -26.1378,41.5085 -19.8721,45.1443 a 78.9392,78.9392 0 0 0 -76.565,-0.9574 c -23.565,12.9139 -40.2474,38.7237 -42.9552,66.4565 -15.7974,-7.1637 -33.761,-11.2179 -50.2441,-6.0227 -16.4831,5.1952 -30.6,22.8916 -29.1421,40.872 -37.9749,-24.9626 -125.1971,-3.1182 -165.0051,18.478 -36.1443,19.6088 -87.993,58.172 -103.9678,165.0428 a 41.065,41.065 0 0 0 -25.8116,-3.3281 45.87,45.87 0 0 0 -36.5682,36.7875 z"
       style="fill:#d2b0ec"
       id="path96" />
  </g>
  <path
     d="m 1068.9242,203.6031 c -27.4945,-43.7822 -103.2542,-73.2194 -137.996,-19.575 -15.2416,23.6095 -14.7934,55.4375 -5.6035,81.139 7.92,22.19 21.7416,36.46 38.6269,48.1156 -47.07,0.6724 -94.737,-19.1267 -118.2718,-62.1618 -26.4486,-48.4891 -12.1036,-112.5934 34.443,-142.7777 80.5414,-52.15 210.3189,-21.9658 255.8195,62.1617 31.6787,58.5755 28.0924,129.4788 -2.3161,187.7554 -32.7993,62.9837 -91.823,103.5531 -156.45,129.6282 C 831.41,546.7628 665.7694,548.1077 511.2616,541.0846 417.5707,536.7511 322.7591,532.1189 230.0394,516.952 152.412,504.2507 78.1467,482.4344 5.6,453.4454 V 298.34 a 365.84,365.84 0 0 1 41.0922,-11.506 c 72.6216,-15.6152 148.456,-9.3392 220.33,7.1725 83.978,19.2761 161.0826,53.3456 238.4112,90.4035 55.587,26.598 111.4728,50.7306 171.7667,64.179 96.9035,21.5923 209.8706,31.4546 303.3374,-8.7414 89.5075,-38.4776 144.7209,-146.5882 88.3867,-236.2445 z"
     style="opacity:0.1;isolation:isolate;fill:#ffffff"
     id="path100" />
  <path
     d="m 1075.9082,1124.67 c 75.132,-0.1864 164.3345,-13.6216 211.2339,-75.4 88.3955,-116.62 -65.5884,-283.6361 9.8832,-408.8622 84.3131,-139.9855 336.9248,-30.9543 497.6556,-175.1058 79.7879,-71.4494 138.6229,-206.7845 108.067,-473.5469"
     style="fill:none;stroke:#ffffff;stroke-width:2.325px;stroke-miterlimit:10;stroke-dasharray:9.2999, 9.2999, 9.2999, 9.2999, 9.2999, 9.2999"
     id="path102"
     clip-path="url(#clipPath5814)" />
  <path
     d="m 225.74198,436.63554 18.7934,210.4354 c 0,0 135.1391,9.3672 207.1625,-17.5362 z"
     style="opacity:0.5;isolation:isolate;fill:#42210b"
     id="path104" />
  <path
     d="m 225.74198,436.63554 c 0,0 19.6625,156.7374 33.8934,197.8005 0,0 90.7083,20.5861 191.9539,-4.9014 l -21.7265,-214.9012 z"
     style="fill:#f3c460"
     id="path106" />
  <path
     d="m 229.86998,467.89584 c -2.6071,-18.7344 -4.128,-31.1514 -4.128,-31.1514 l 204.2294,-22.0021 2.9331,28.7552 z"
     style="fill:#f5d080"
     id="path108" />
  <path
     d="m 308.52008,545.66544 c 11.95,-2.6141 21.7265,-13.5062 25.42,-24.834 3.8021,-11.5456 -3.3676,-29.0819 -17.7071,-27.9927 a 5.6959,5.6959 0 0 0 -5.6489,5.2282 1.1271,1.1271 0 0 0 -0.8691,-0.6535 c -8.4733,-2.2873 -15.6431,-2.5052 -23.1387,2.6141 a 24.3262,24.3262 0 0 0 -10.5374,22.22 c 1.5209,15.7934 17.3812,26.7945 32.4812,23.4179 z m -19.3366,-19.0612 c -9.1252,-12.7438 6.4093,-28.7552 19.88,-26.5768 a 1.4656,1.4656 0 0 0 1.63,-0.98 6.2862,6.2862 0 0 0 2.7158,4.6836 c 2.6072,1.9606 6.0835,2.6142 7.93,5.3372 1.4122,2.07 1.3036,4.7925 0.6518,7.5156 -1.7381,7.1887 -7.387,13.07 -13.7963,16.3381 -7.3877,3.5942 -14.666,-0.2181 -19.0113,-6.3177 z"
     style="fill:#005ca9"
     id="path110" />
  <path
     d="m 378.47948,535.31804 c 11.95,-2.6141 21.7265,-13.5062 25.42,-24.834 3.8025,-11.546 -3.3675,-29.082 -17.7075,-27.9928 a 5.6959,5.6959 0 0 0 -5.6489,5.2282 1.1269,1.1269 0 0 0 -0.869,-0.6535 c -8.4734,-2.2873 -15.6431,-2.5052 -23.1388,2.6141 a 24.3262,24.3262 0 0 0 -10.5374,22.22 c 1.5213,15.7934 17.4903,26.7945 32.4816,23.418 z m 0.5432,-45.6379 a 1.4655,1.4655 0 0 0 1.6294,-0.98 6.2862,6.2862 0 0 0 2.7159,4.6836 c 2.6071,1.9606 6.0834,2.6141 7.93,5.3371 1.4122,2.07 1.3036,4.7926 0.6518,7.5156 -1.7381,7.1888 -7.387,13.0706 -13.7963,16.3382 -7.2784,3.5944 -14.5568,-0.2179 -18.9021,-6.3174 -9.125,-12.7442 6.3006,-28.7556 19.7713,-26.5772 z"
     style="fill:#005ca9"
     id="path112" />
  <path
     d="m 374.78598,513.64264 c 5.8661,0 5.8661,-9.1494 0,-9.1494 -5.8661,0 -5.8662,9.1494 0,9.1494 z"
     style="fill:#005ca9"
     id="path114" />
  <path
     d="m 303.63198,513.96944 c -6.9525,0 -6.9525,10.7832 0,10.7832 6.9525,0 6.9521,-10.7832 0,-10.7832 z"
     style="fill:#005ca9"
     id="path116" />
  <path
     d="m 412.26428,556.01294 c -3.4763,-0.98 -6.9525,-0.3268 -10.4288,-0.3268 a 5.2776,5.2776 0 0 0 -4.4539,-0.8713 36.8808,36.8808 0 0 1 -3.6935,-1.7427 4.2556,4.2556 0 0 0 -6.1921,4.7925 10.2642,10.2642 0 0 0 3.5849,5.4461 c -1.3037,9.1494 -3.15,16.8827 -9.9943,23.9626 -6.4093,6.7531 -15.2085,10.3475 -24.225,11.8724 a 43.3437,43.3437 0 0 1 -26.18,-3.8122 39.2557,39.2557 0 0 1 -10.9719,-8.3869 c -3.259,-3.4855 -5.1058,-7.9513 -7.4957,-11.9814 a 14.8327,14.8327 0 0 0 1.9554,-7.1887 c -0.1086,-3.4855 -3.9108,-4.6836 -6.3007,-2.6141 -4.4539,3.7033 -7.6043,8.06 -12.71,11.11 -3.0417,1.8517 -11.08,5.6639 -6.8438,10.0208 4.0194,4.03 12.71,-0.8714 16.2949,-3.2677 a 7.62,7.62 0 0 0 1.0863,-0.8713 c 2.6072,9.3672 10.7546,17.7541 18.3589,22.5466 10.4287,6.5353 23.1387,8.387 35.197,6.7532 22.3783,-3.05 43.7789,-21.24 44.8652,-44.44 3.9108,-0.2179 7.6043,-1.5249 9.9943,-3.9211 a 4.2027,4.2027 0 0 0 -1.8472,-7.08 z"
     style="fill:#005ca9"
     id="path118" />
  <path
     d="m 1731.9364,422.34307 -4.2452,150.4988 -143.126,-7.2209 c 0,0 15.2374,-92.1235 17.2843,-120.399 1.971,-28.3516 130.0869,-22.8789 130.0869,-22.8789 z"
     style="opacity:0.5;isolation:isolate;fill:#42210b"
     id="path120" />
  <path
     d="m 1731.9364,419.75877 c 0,0 -6.4437,129.52 -11.3712,148.5985 l -144.5663,-8.209 c 0,0 23.728,-88.7031 17.1326,-143.7339 z"
     style="fill:#f3c460"
     id="path122" />
  <path
     d="m 1594.4202,438.22907 c -0.076,-6.0048 -0.6823,-16.2661 -1.2887,-21.7387 l 138.8049,3.3444 c 0,0 -0.6065,13.0736 -1.2129,23.1829 z"
     style="fill:#f5d080"
     id="path124" />
  <path
     d="m 1646.0457,495.92027 c 1.6678,0.152 2.6533,-1.9 1.8952,-3.2684 -2.5017,-4.1045 -6.14,-6.5368 -9.7792,-9.5772 a 92.1094,92.1094 0 0 1 -11.8261,-11.2494 c -4.0937,-4.7126 -11.1438,2.28 -6.8228,6.8409 a 85.1641,85.1641 0 0 0 12.1294,10.6413 c 4.3968,3.2684 8.7937,6.2327 14.4035,6.6128 z"
     style="fill:#005ca9"
     id="path126" />
  <path
     d="m 1700.476,471.90127 c -4.776,3.04 -9.476,6.3088 -14.252,9.4252 -4.3969,2.8884 -9.5518,5.9287 -12.8874,10.1093 a 3.3141,3.3141 0 0 0 4.0179,5.1686 c 4.6243,-2.1283 8.7937,-5.3967 13.1906,-7.905 4.8518,-2.8884 10.0067,-5.3967 14.7826,-8.437 5.2308,-3.3445 0.3791,-11.7054 -4.8517,-8.3611 z"
     style="fill:#005ca9"
     id="path128" />
  <path
     d="m 1676.369,472.05327 c 8.718,4.5606 20.4683,-6.9169 24.941,-13.3777 2.4258,-3.4964 -3.1082,-7.7529 -5.8372,-4.4845 -2.6533,3.1924 -5.2308,6.3848 -8.5664,8.8931 -3.3356,2.5083 -7.8083,3.3444 -10.9164,6.0807 a 1.8865,1.8865 0 0 0 0.379,2.8884 z"
     style="fill:#005ca9"
     id="path130" />
  <path
     d="m 1635.4326,468.55697 a 18.7794,18.7794 0 0 0 7.4292,3.04 c 2.8808,0.456 5.0033,-0.38 7.7324,-0.9882 1.7436,-0.38 1.6678,-3.04 0,-3.4964 a 31.5672,31.5672 0 0 1 -10.0066,-5.2447 c -3.26,-2.5843 -4.4727,-6.7648 -7.8083,-9.1211 -2.5775,-1.9 -5.3824,0.76 -5.6856,3.2684 -0.6823,4.9409 4.624,9.9575 8.3389,12.542 z"
     style="fill:#005ca9"
     id="path132" />
  <path
     d="m 1688.8777,523.81577 c -7.6566,2.3563 -15.3132,4.8646 -22.8941,7.5249 v 0 c -0.6823,-2.1282 -1.7436,-4.1045 -2.5017,-6.2327 -0.3032,-0.9882 -0.5306,-2.0523 -0.7581,-3.1164 q 4.6623,-0.57 9.3245,-1.3682 a 7.9142,7.9142 0 0 0 1.2129,4.8647 c 2.1985,2.8883 6.14,1.8242 6.5953,-1.8243 a 13.4746,13.4746 0 0 0 -0.8339,-4.5606 v 0 c 2.5775,-0.6841 5.155,-1.3681 7.5808,-2.28 5.7615,-2.0523 3.563,-10.7934 -2.5775,-9.2732 -9.7792,2.3563 -19.3311,4.8646 -29.3377,6.5368 -5.0033,0.8361 -9.9309,1.3681 -14.9342,1.9762 -4.8517,0.6081 -10.4616,0.38 -15.0859,2.1283 a 2.06,2.06 0 0 0 0,3.9525 c 0.4549,0.152 0.8339,0.304 1.2887,0.456 a 3.1318,3.1318 0 0 0 -0.758,1.5962 c -0.2275,3.4964 0.6065,7.1449 0.758,10.7173 a 116.971,116.971 0 0 1 -0.4548,12.6176 c -0.379,4.4085 4.5485,5.3966 7.2776,3.1163 9.0212,-1.4442 17.9665,-5.7007 26.5329,-8.513 10.5373,-3.4965 21.2263,-6.6129 31.9152,-9.4252 5.8369,-1.5203 3.3353,-10.5654 -2.35,-8.8932 z m -50.8674,-0.3041 c 0,1.52 0.2274,3.1164 0.379,4.6366 a 68.8171,68.8171 0 0 0 1.3646,9.6532 4.2292,4.2292 0 0 0 1.592,2.5844 66.5113,66.5113 0 0 0 -6.5953,3.2684 c 0.2274,-6.8409 -0.91,-15.2019 -4.8518,-20.2946 2.7289,0.2281 5.5338,0.152 8.1112,0.152 z m 10.9164,13.9858 a 5.0332,5.0332 0 0 0 0,-2.1283 c -0.6065,-2.8123 -1.3646,-5.5486 -2.0468,-8.285 q -0.455,-1.8241 -0.91,-3.6485 5.0034,-0.228 10.0067,-0.6841 h 0.379 a 18.9289,18.9289 0 0 0 2.8049,11.1734 c -0.6065,0.2281 -1.2129,0.4561 -1.7436,0.6081 -2.8049,0.9121 -5.6856,1.9002 -8.4905,2.9644 z"
     style="fill:#005ca9"
     id="path134" />
  <path
     d="m 1675.9141,249.04137 -13.1149,146.85 c 0,0 -94.3054,6.5368 -144.5663,-12.2375 z"
     style="opacity:0.5;isolation:isolate;fill:#42210b"
     id="path136" />
  <path
     d="m 1675.9141,249.04137 c 0,0 -13.7213,109.3777 -23.6521,138.0333 0,0 -63.3,14.3658 -133.9532,-3.42 l 15.1617,-149.9667 z"
     style="fill:#f3c460"
     id="path138" />
  <path
     d="m 1673.0334,270.85617 c 1.82,-13.0737 2.8808,-21.7388 2.8808,-21.7388 l -142.52,-15.3539 -2.0465,20.0665 z"
     style="fill:#f5d080"
     id="path140" />
  <path
     d="m 1565.9164,327.55917 c 8.7937,3.1164 15.6922,-7.0688 18.6488,-13.8337 a 40.1328,40.1328 0 0 0 3.4871,-16.038 c 0,-4.4085 -0.8338,-12.2375 -5.7614,-13.91 a 2.6651,2.6651 0 0 0 -3.3356,1.9 c -0.5306,3.42 1.8194,6.9929 2.1227,10.4893 a 30.0785,30.0785 0 0 1 -1.44,11.3254 c -1.2887,4.3326 -5.155,13.53 -10.6889,13.7577 -2.4258,0.0761 -4.0179,-3.3444 -4.8518,-5.1686 a 22.2423,22.2423 0 0 1 -1.8194,-12.3135 c 0.6823,-7.2209 3.6389,-18.0143 12.4326,-17.8623 a 0.9886,0.9886 0 0 0 0.6823,-1.6722 c -9.1728,-7.905 -16.7536,8.7411 -18.4215,15.43 -2.0471,8.7415 -1.1374,24.2475 8.9451,27.8959 z"
     style="fill:#005ca9"
     id="path142" />
  <path
     d="m 1633.6889,307.49267 c -0.379,-4.18 -1.5919,-11.8574 -6.8227,-12.3895 a 1.1391,1.1391 0 0 0 -1.1371,0.8361 c -1.2129,3.2684 1.1371,7.3729 1.5161,10.6413 a 29.0376,29.0376 0 0 1 -0.91,11.7055 c -0.91,3.6485 -4.4727,12.3895 -9.476,9.1211 -3.184,-2.0522 -5.155,-7.3729 -6.2163,-10.7933 a 29.1862,29.1862 0 0 1 -0.91,-10.2613 28.8822,28.8822 0 0 1 2.2743,-10.7173 c 1.592,-3.2684 3.942,-3.5725 7.05,-4.7126 a 1.2431,1.2431 0 0 0 0.5306,-2.0523 c -2.7291,-3.4964 -7.505,-1.9763 -10.2341,0.5321 -3.6388,3.1924 -5.2308,8.8931 -5.9889,13.53 -1.5919,10.4133 0.3033,23.5629 9.2486,30.3277 8.6422,6.4608 15.92,-2.8123 18.8763,-10.2612 a 32.7854,32.7854 0 0 0 2.1992,-15.5063 z"
     style="fill:#005ca9"
     id="path144" />
  <path
     d="m 1614.5853,300.57587 c -0.5306,1.6722 -1.0613,3.7244 -0.076,5.3206 a 2.1994,2.1994 0 0 0 3.79,0 c 0.9856,-1.5962 0.5306,-3.6484 -0.076,-5.3206 a 1.8738,1.8738 0 0 0 -3.6384,0 z"
     style="fill:#005ca9"
     id="path146" />
  <path
     d="m 1567.2051,291.91077 c -1.5161,2.3563 -1.44,5.9287 -0.8338,8.4371 a 2.2669,2.2669 0 0 0 3.7146,0.9881 7.629,7.629 0 0 0 2.0468,-4.6366 7.5427,7.5427 0 0 0 -0.9856,-4.7886 2.2737,2.2737 0 0 0 -3.942,0 z"
     style="fill:#005ca9"
     id="path148" />
  <path
     d="m 1624.971,357.65897 a 5.6671,5.6671 0 0 0 -1.2129,-0.304 c -4.1695,-13.6817 -19.3311,-19.9145 -32.6734,-18.6984 -10.8406,0.9882 -26.23,6.7649 -31.3088,17.6343 q -0.455,-0.7982 -0.91,-1.5963 a 7.41,7.41 0 0 0 -1.2887,-1.3681 1.8182,1.8182 0 0 0 -0.91,-0.5321 c -1.1372,-1.3681 -2.9566,0.152 -2.7291,1.5962 -0.4548,1.9763 0.7581,4.5606 1.2887,6.3088 0.9855,3.3444 1.2887,7.905 3.26,10.7933 1.3646,1.9763 4.7,1.9 5.3066,-0.6841 0.8338,-3.3444 -0.7581,-7.0688 -2.1227,-10.3373 3.26,-4.0285 6.3679,-7.8289 10.8406,-10.7173 a 35.931,35.931 0 0 1 17.7392,-5.6247 29.8046,29.8046 0 0 1 16.1472,3.7244 c 5.2307,2.9644 7.6566,7.677 9.476,13.15 a 9.244,9.244 0 0 0 -2.6533,6.2328 3.2854,3.2854 0 0 0 6.0647,1.6722 c 0.91,-1.4442 1.2887,-2.8884 2.4258,-4.2565 a 6.0687,6.0687 0 0 1 0.9855,-0.9882 1.3316,1.3316 0 0 0 0.3791,-0.304 21.1364,21.1364 0 0 0 2.8807,-2.28 2.0628,2.0628 0 0 0 -0.9852,-3.421 z"
     style="fill:#005ca9"
     id="path150" />
  <path
     d="m 1636.1148,176.07227 25.4715,145.1782 c 0,0 94.5329,-1.52 142.9744,-24.5511 z"
     style="opacity:0.5;isolation:isolate;fill:#42210b"
     id="path152" />
  <path
     d="m 1636.1148,176.07227 c 0,0 22.894,107.7815 35.3266,135.525 0,0 64.2854,8.9691 133.1951,-14.8219 l -27.8216,-148.1425 z"
     style="fill:#f3c460"
     id="path154" />
  <path
     d="m 1640.8149,197.50697 c -2.8807,-12.9216 -4.7,-21.4347 -4.7,-21.4347 l 140.7,-27.4394 3.7146,19.8384 z"
     style="fill:#f5d080"
     id="path156" />
  <path
     d="m 1701.1583,238.09607 c 6.6712,-3.6485 9.5518,-12.4656 9.4,-19.61 -0.076,-6.5368 -5.0791,-18.3943 -13.6455,-15.734 a 1.2472,1.2472 0 0 0 -0.758,1.8243 c 2.8807,4.56 7.2017,6.7648 7.8082,12.6175 a 17.6374,17.6374 0 0 1 -4.2452,13.6818 c -3.7146,3.9525 -8.1873,1.9762 -11.5987,-1.2922 -6.14,-5.8528 -3.5629,-17.1782 4.5485,-19.9145 a 1.0182,1.0182 0 0 0 -0.2275,-1.9763 c -2.5017,-0.228 -4.0936,-0.684 -6.5195,0.5321 a 12.8913,12.8913 0 0 0 -5.3823,5.0927 c -2.9566,4.4845 -2.5017,11.1734 -0.2275,15.81 3.7148,7.8284 12.6602,13.4531 20.8475,8.9686 z"
     style="fill:#005ca9"
     id="path158" />
  <path
     d="m 1690.9242,221.22197 a 3.44,3.44 0 0 0 -0.3791,2.7363 2.914,2.914 0 0 0 2.7291,2.1283 2.972,2.972 0 0 0 2.6533,-1.8243 3.6375,3.6375 0 0 0 0.4548,-1.3681 2.88,2.88 0 0 0 0,-1.14 2.5649,2.5649 0 0 0 -1.1371,-1.52 3.3253,3.3253 0 0 0 -1.6677,-0.532 3.216,3.216 0 0 0 -0.8339,0.152 3.0269,3.0269 0 0 0 -1.8194,1.3678 z"
     style="fill:#005ca9"
     id="path160" />
  <path
     d="m 1741.4882,226.99867 c 14.6311,-2.28 15.5407,-26.5273 4.3211,-33.4442 -0.7581,-0.4561 -1.592,0.4561 -1.2129,1.2162 3.7146,6.7648 8.49,22.1187 -2.0468,25.6912 -5.2308,1.7482 -10.9922,-2.28 -13.418,-6.6129 a 10.7706,10.7706 0 0 1 -0.9856,-7.2209 c 0.379,-1.9 2.4258,-5.5487 4.17,-6.5368 1.0613,-0.6081 0.3032,-2.1283 -0.8339,-1.9 -1.7436,0.304 -3.0323,0 -4.776,0.8361 a 8.817,8.817 0 0 0 -3.5629,3.8765 c -1.971,3.3444 -1.8952,7.4489 -0.9856,11.0974 2.0464,8.1328 10.9159,14.2895 19.3306,12.9974 z"
     style="fill:#005ca9"
     id="path162" />
  <path
     d="m 1736.5607,213.54497 a 3.2055,3.2055 0 0 0 2.2743,-0.9121 3.3,3.3 0 0 0 0.8338,-3.1924 c 0,-0.152 -0.076,-0.304 -0.076,-0.5321 a 3.1806,3.1806 0 0 0 -0.8338,-1.3681 3.0322,3.0322 0 0 0 -2.1985,-0.9122 3.1788,3.1788 0 0 0 -1.592,0.4561 3.3112,3.3112 0 0 0 -1.44,1.9 c 0,0.1521 -0.076,0.3041 -0.076,0.5321 a 3.5963,3.5963 0 0 0 0.3032,2.5083 3.4144,3.4144 0 0 0 2.8046,1.5204 z"
     style="fill:#005ca9"
     id="path164" />
  <path
     d="m 1764.3824,238.62807 a 2.3,2.3 0 0 0 -4.3969,0 c -0.076,0.2281 -0.076,0.4561 -0.1516,0.6841 -11.5987,1.5962 -23.2731,5.6247 -34.6443,8.5131 -6.747,1.7482 -13.4939,3.3444 -20.2408,4.7126 -5.3824,1.0641 -11.5987,1.52 -16.8294,3.5724 a 2.6061,2.6061 0 0 0 -2.7291,3.1164 c 2.9566,13.2257 12.9632,24.7791 23.88,32.3041 10.9922,7.6009 24.6377,9.4251 36.9186,3.9525 9.7793,-4.4086 15.0859,-14.3658 17.5117,-24.3231 a 85.322,85.322 0 0 0 2.0468,-16.418 c 0.2269,-5.5488 0.5303,-11.0214 -1.365,-16.1141 z m -5.4583,13.2257 a 93.714,93.714 0 0 1 -1.1371,13.8337 c -1.44,8.8171 -4.9275,17.4062 -12.9632,22.1188 -10.2341,6.0047 -22.4392,3.1924 -31.9152,-2.7364 -9.6276,-6.0807 -16.6021,-15.5059 -21.9086,-25.3871 4.2452,0.304 8.87,-0.6081 12.8874,-1.14 6.8227,-0.9121 13.6455,-2.3563 20.3924,-3.8 6.6712,-1.4442 13.2664,-3.04 19.8617,-4.6366 4.8518,-1.2162 9.9309,-2.1283 14.7826,-3.4205 z"
     style="fill:#005ca9"
     id="path166" />
  <path
     d="m 1643.0357,9.7876742 39.3445,145.2540958 -139.1082,34.5843 c 0,0 -11.9777,-92.579999 -18.194,-120.246996 -6.2163,-27.667 117.9577,-59.5913998 117.9577,-59.5913998 z"
     style="opacity:0.5;isolation:isolate;fill:#42210b"
     id="path168" />
  <path
     d="m 1642.3534,7.3553742 c 0,0 31.2329,125.8716958 31.9152,145.5581958 l -140.7,34.0522 c 0,0 -2.8807,-91.743499 -25.0925,-142.517796 z"
     style="fill:#f3c460"
     id="path170" />
  <path
     d="m 1516.0568,64.894574 c -1.8194,-5.7008 -5.3065,-15.43 -7.505,-20.4466 L 1642.4292,7.3553742 c 0,0 3.1839,12.6935998 5.534,22.4987998 z"
     style="fill:#f5d080"
     id="path172" />
  <path
     d="m 1569.9565,94.690271 a 65.4861,65.4861 0 0 0 -17.0569,-3.4965 c -3.3355,-0.152 -4.0936,5.2447 -0.758,5.8528 5.4581,0.9881 10.8406,2.0522 16.2229,3.419999 4.6243,1.2162 9.5519,3.1924 14.4794,2.8884 a 1.2644,1.2644 0 0 0 0.91,-2.1283 c -3.715,-3.495999 -9.0973,-5.016199 -13.7974,-6.536399 z"
     style="fill:#005ca9"
     id="path174" />
  <path
     d="m 1632.8016,68.390974 a 1.1428,1.1428 0 0 0 -1.6678,-0.9881 c -2.5017,1.0641 -4.1694,3.4964 -5.8372,5.5487 -2.35,3.04 -4.8517,6.0047 -7.2018,8.9691 -2.5017,3.1924 -9.6276,9.425197 -8.1873,13.985697 a 1.1531,1.1531 0 0 0 0.9855,0.76 c 2.35,-0.228 3.4872,-1.8242 5.0792,-3.4964 2.35,-2.5843 4.5485,-5.396697 6.7469,-8.056997 q 3.525,-4.3326 6.8228,-8.8931 c 1.5918,-2.2042 3.4112,-5.0165 3.2597,-7.8289 z"
     style="fill:#005ca9"
     id="path176" />
  <path
     d="m 1620.9754,121.59767 a 96.1416,96.1416 0 0 0 -11.9019,-3.4205 c -0.6823,-0.152 -1.44,-0.304 -2.1226,-0.456 1.8952,-3.1924 3.8662,-6.3848 5.4581,-9.7293 a 1.1532,1.1532 0 0 0 -1.2887,-1.6722 c -4.7759,1.4442 -8.1114,5.7768 -10.7647,10.1093 -1.592,-0.228 -3.1839,-0.5321 -4.776,-0.76 -2.8048,-0.38 -7.05,-1.3682 -9.6276,0.152 a 1.4052,1.4052 0 0 0 -0.3032,2.2043 c 2.1226,1.8242 5.8372,2.1283 8.49,2.8123 1.0613,0.2281 2.1226,0.5321 3.1081,0.8362 -1.8194,3.1924 -3.4872,6.5368 -5.2308,9.8052 -1.5162,2.8123 -3.7146,6.0047 -3.1081,9.2731 a 1.6711,1.6711 0 0 0 2.0468,1.2162 c 2.9565,-0.6081 4.7,-3.6485 6.14,-6.0808 a 112.0941,112.0941 0 0 0 5.155,-9.9572 c 0.379,-0.8361 0.8339,-1.6722 1.2887,-2.5083 0.91,0.228 1.8194,0.532 2.7291,0.76 q 5.6856,1.5961 11.3712,3.6484 c 2.4258,0.9121 5.4582,2.9644 7.96,1.52 a 2.967,2.967 0 0 0 1.44,-2.5843 c 0.077,-3.1922 -3.5617,-4.1803 -6.0634,-5.1684 z"
     style="fill:#005ca9"
     id="path178" />
  <path
     d="m 1603.0847,83.516974 c 10.6889,-0.8361 15.6164,-13.53 15.8439,-22.6508 0.076,-1.9 -2.6533,-1.7483 -2.8807,0 a 24.8348,24.8348 0 0 1 -4.776,12.01 c -2.4258,3.4964 -6.3679,5.3966 -9.097,8.513 -0.6064,0.7595 -0.2272,2.2037 0.9098,2.1278 z"
     style="fill:#005ca9"
     id="path180" />
  <path
     d="m 1580.8729,87.241374 a 1.3581,1.3581 0 0 0 0,-2.3563 c -3.4872,-1.7483 -7.7324,-1.9763 -11.3712,-3.3445 -4.397,-1.5962 -7.7324,-4.8646 -11.5229,-7.5249 -1.2887,-0.9121 -2.6532,0.8361 -2.0467,2.0523 4.0177,7.6009 16.3744,15.049797 24.9408,11.1734 z"
     style="fill:#005ca9"
     id="path182" />
  <path
     d="m 142.99468,171.74994 25.4715,145.1781 c 0,0 94.5329,-1.52 142.9744,-24.5511 z"
     style="opacity:0.5;isolation:isolate;fill:#42210b"
     id="path184" />
  <path
     d="m 142.99468,171.74994 c 0,0 22.894,107.7815 35.3266,135.525 0,0 64.2854,8.9691 133.1951,-14.8219 l -27.8974,-148.1425 z"
     style="fill:#f3c460"
     id="path186" />
  <path
     d="m 147.69478,193.18464 c -2.8808,-12.9216 -4.7,-21.4347 -4.7,-21.4347 l 140.6242,-27.4394 3.7146,19.8385 z"
     style="fill:#f5d080"
     id="path188" />
  <path
     d="m 207.50748,202.68584 c -6.4437,-0.076 -6.3679,9.7292 0,9.9572 3.1081,0.1521 5.8372,0.3041 8.1115,2.66 1.971,2.0522 2.7291,5.0926 2.8807,7.753 a 15.4833,15.4833 0 0 1 -11.0677,15.582 c -6.4437,1.9 -14.5552,-0.38 -15.5407,-7.905 -0.9855,-8.361 4.5485,-13.15 10.4615,-17.8622 1.5162,-1.2162 -0.1516,-3.3444 -1.7436,-3.04 -9.0212,1.9763 -15.6923,13.3017 -14.5552,22.1188 1.5162,11.4774 13.039,15.43 23.1973,13.2256 21.6051,-4.4846 22.5148,-42.2614 -1.7438,-42.4894 z"
     style="fill:#005ca9"
     id="path190" />
  <path
     d="m 236.92108,235.67394 c 7.4292,6.0808 16.8294,3.4965 22.5908,-3.4964 5.61,-6.7648 8.7938,-16.7221 6.1405,-25.3872 a 16.1317,16.1317 0 0 0 -8.49,-9.8812 c -5.0034,-2.3563 -12.66,-3.1164 -17.36,0.304 a 4.7607,4.7607 0 0 0 -1.2888,1.4442 1.9893,1.9893 0 0 0 0.6823,2.7364 c 3.3356,2.4323 8.718,1.2161 12.66,2.28 a 8.2473,8.2473 0 0 1 5.534,4.5606 c 2.2742,4.4085 0.379,11.3254 -2.4259,16.114 a 17.7785,17.7785 0 0 1 -5.3066,5.7768 6.2735,6.2735 0 0 1 -6.292,0.76 c -3.184,-1.14 -5.9131,-5.2447 -6.6712,-8.5891 -1.5919,-6.6888 3.7146,-11.7055 8.1115,-15.5059 a 0.9971,0.9971 0 0 0 -0.4548,-1.6723 c -7.2776,-1.9762 -12.9632,6.6129 -14.4036,12.5416 -1.4409,6.9172 1.5914,13.682 6.9738,18.0145 z"
     style="fill:#005ca9"
     id="path192" />
  <path
     d="m 202.12508,229.21314 c 0.0758,0.1521 0.2274,0.2281 0.3032,0.3041 a 3.6056,3.6056 0 0 0 2.5775,1.0641 v 0 a 4.1167,4.1167 0 0 0 2.5775,-1.0641 3.6772,3.6772 0 0 0 0,-5.1687 3.7386,3.7386 0 0 0 -2.5775,-1.0641 v 0 a 3.7744,3.7744 0 0 0 -2.7291,1.2922 3.2,3.2 0 0 0 -0.1516,4.6365 z"
     style="fill:#005ca9"
     id="path194" />
  <path
     d="m 249.88428,222.60034 c 5.8372,0 5.8372,-9.0451 0,-9.0451 -5.7614,0.076 -5.7614,9.0451 0,9.0451 z"
     style="fill:#005ca9"
     id="path196" />
  <path
     d="m 271.56538,239.77854 c -1.8952,-2.28 -4.7,-0.76 -5.534,1.4441 a 2.5722,2.5722 0 0 0 -0.758,0.076 c -4.2453,0.9122 -8.3389,3.1164 -12.4326,4.4846 -5.1549,1.7482 -10.3857,3.42 -15.6923,4.8646 -5.4582,1.5962 -11.068,2.8884 -16.6778,4.1045 -4.5485,0.9881 -9.6277,1.3682 -13.9487,3.2684 a 1.9389,1.9389 0 0 0 -1.6678,1.7482 c -0.2274,2.8884 -0.5307,5.1687 0.1516,8.057 a 22.4656,22.4656 0 0 0 2.8049,6.8409 28.4121,28.4121 0 0 0 10.4613,9.6532 c 8.9454,4.9406 19.786,5.3967 29.6411,3.2684 9.7034,-2.1283 19.0279,-7.601 24.41,-16.114 5.5344,-8.6651 5.9889,-23.4864 -0.7577,-31.6959 z m -62.9208,20.75 a 29.0842,29.0842 0 0 0 9.2486,-0.152 c -0.2274,4.5606 2.1226,10.3373 3.3356,13.9858 0.4548,1.2921 0.91,2.9643 1.5919,4.5605 -0.1516,-0.076 -0.379,-0.152 -0.5306,-0.228 -7.2018,-3.3439 -11.9781,-10.4888 -13.6455,-18.1658 z m 23.0457,20.7506 c 0.3032,-3.3444 -2.35,-6.8408 -3.563,-9.8812 -1.0613,-2.5843 -2.1226,-5.1686 -3.1081,-7.753 -0.4549,-1.2921 -0.91,-2.7363 -1.44,-4.1045 3.4114,-0.5321 6.747,-1.2161 10.0825,-1.9762 0.91,8.361 4.4727,15.81 7.05,23.7149 a 35.8256,35.8256 0 0 1 -9.0214,5e-4 z m 15.7681,-1.2161 c -2.7291,-8.057 -7.2018,-15.3539 -9.855,-23.4109 a 6.3052,6.3052 0 0 0 1.1371,-0.3041 c 4.2452,-1.0641 8.4147,-2.28 12.5083,-3.5724 -0.9855,2.4323 -0.2274,5.3967 0.2275,7.905 a 83.09,83.09 0 0 0 4.2452,13.3776 3.5533,3.5533 0 0 0 1.5162,1.9 36.6464,36.6464 0 0 1 -9.7793,4.1053 z m 18.1182,-11.8575 a 21.2644,21.2644 0 0 1 -3.1082,3.8 c -1.2887,-4.0285 -3.1081,-7.829 -4.6243,-11.7815 -0.9855,-2.66 -1.5919,-6.2328 -3.4113,-8.4371 4.0178,-1.3681 8.6421,-2.5083 12.3567,-4.7126 0.9855,3.2684 2.1984,6.3848 2.1984,10.1093 a 20.5123,20.5123 0 0 1 -3.4113,11.0224 z"
     style="fill:#005ca9"
     id="path198" />
  <path
     d="m 258.06198,19.031743 0.6823,150.574797 143.2777,-3.8765 c 0,0 -13.1148,-92.427497 -14.4036,-120.779097 -1.3648,-28.2755 -129.5564,-25.9192 -129.5564,-25.9192 z"
     style="opacity:0.5;isolation:isolate;fill:#42210b"
     id="path200" />
  <path
     d="m 258.13758,16.523443 c 0,0 3.4114,129.672197 7.96,148.826597 l 144.7179,-4.7886 c 0,0 -21.6053,-89.235197 -13.7213,-144.037997 z"
     style="fill:#f3c460"
     id="path202" />
  <path
     d="m 395.19888,38.186143 c 0.2275,-6.0048 1.0613,-16.2661 1.8194,-21.7387 l -138.8807,0.076 c 0,0 0.3033,13.0736 0.6065,23.1829 z"
     style="fill:#f5d080"
     id="path204" />
  <path
     d="m 369.49988,69.578043 c -4.6243,-0.9121 -9.7792,-0.076 -14.4035,0.5321 -4.3211,0.532 -10.3858,0.608 -13.7213,3.5724 a 1.0425,1.0425 0 0 0 0.2274,1.6722 c 3.7146,2.2043 9.4,1.14 13.57,0.9121 h 0.4548 a 12.9663,12.9663 0 0 0 -0.6064,3.8765 34.7435,34.7435 0 0 0 -0.0758,4.8646 4.0192,4.0192 0 0 0 3.942,3.9525 c 2.7291,0 4.2453,-2.5083 3.79,-5.0166 -0.2274,-1.4442 -0.6065,-2.8884 -0.91,-4.2566 a 18.6136,18.6136 0 0 0 -1.0613,-3.4964 c 2.6533,0 5.3066,0 7.96,-0.152 3.5632,-0.076 4.6246,-5.7008 0.8341,-6.4608 z"
     style="fill:#005ca9"
     id="path206" />
  <path
     d="m 304.91128,95.573343 c 2.0468,-1.2162 2.2743,-3.4965 1.44,-5.4727 0.6064,1.3681 -0.0759,-0.6081 -0.1517,-0.9882 -0.2274,-0.9881 -0.5306,-1.9762 -0.6822,-2.8883 a 14.065,14.065 0 0 0 -1.5162,-4.5606 c 5.2308,-0.304 10.5374,-0.76 15.7681,-1.0641 4.7,-0.3041 4.7,-7.753 0,-7.3729 -6.0646,0.532 -12.0535,1.2161 -18.1181,1.9 -5.8373,0.6081 -12.5084,0.38 -17.9666,2.8123 a 1.64,1.64 0 0 0 0,2.8124 c 4.6243,1.9762 10.0825,1.52 15.0858,1.2922 a 14.6174,14.6174 0 0 0 -0.5306,5.7007 18.4453,18.4453 0 0 0 1.2129,6.4608 c 0.9101,1.9004 3.715,2.3565 5.4586,1.3684 z"
     style="fill:#005ca9"
     id="path208" />
  <path
     d="m 366.31598,124.00084 a 12.3821,12.3821 0 0 0 -1.5162,1.2922 c -10.1583,-6.6889 -23.0457,-9.6532 -35.0992,-9.3492 -10.2341,0.228 -25.3958,6.2328 -24.41,18.6983 a 6.1137,6.1137 0 0 0 -4.8517,1.5962 1.2513,1.2513 0 0 0 0.5307,2.0523 c 1.2887,0.5321 2.7291,0.6841 3.942,1.2922 1.2887,0.684 1.8194,1.9 2.5775,3.04 a 3.0582,3.0582 0 0 0 3.4114,1.3682 c 1.44,-0.38 2.7291,-2.2043 2.1226,-3.7245 a 9.4482,9.4482 0 0 0 -4.5485,-4.7125 c 2.0468,-4.4086 3.1081,-8.3611 7.5808,-11.1734 4.4727,-2.7364 10.0825,-3.1164 15.1617,-2.8884 9.4,0.38 21.6811,3.8765 28.6555,10.4893 0.0758,0.076 0.1516,0.076 0.2274,0.152 -0.1516,0.38 -0.379,0.76 -0.5307,1.0642 -1.6678,3.7244 3.6388,6.9928 5.534,3.1924 1.6678,-3.3445 3.1082,-7.677 2.9565,-11.4775 a 1.0947,1.0947 0 0 0 -1.7438,-0.9118 z"
     style="fill:#005ca9"
     id="path210" />
  <path
     d="m 1804.7877,322.46697 -43.1349,140.9216 c 0,0 84.9053,41.7292 138.5017,43.3254 z"
     style="opacity:0.5;isolation:isolate;fill:#42210b"
     id="path212" />
  <path
     d="m 1804.7877,322.46697 c 0,0 -28.4281,106.4893 -30.02,136.8171 0,0 53.2173,37.2447 125.3868,47.5059 l 42.3768,-144.646 z"
     style="fill:#f3c460"
     id="path214" />
  <path
     d="m 1799.2542,343.74927 c 3.26,-12.8456 5.534,-21.2827 5.534,-21.2827 l 137.7437,39.677 -5.6856,19.3824 z"
     style="fill:#f5d080"
     id="path216" />
  <path
     d="m 1848.1505,379.47367 c -5.6856,-2.9644 -10.0825,5.7767 -4.4727,8.8171 2.7291,1.52 5.0791,2.8884 6.0647,6.0808 0.8338,2.66 0.1515,5.7767 -0.9856,8.285 a 15.5178,15.5178 0 0 1 -16.9811,8.8171 c -6.5952,-1.2161 -12.8116,-6.9929 -10.2341,-14.0617 2.8808,-7.9051 10.0067,-9.5772 17.4359,-11.0974 1.8952,-0.38 1.3646,-3.04 -0.2274,-3.4964 -8.9454,-2.3563 -20.0134,4.6365 -22.97,13.0736 -3.8662,10.8694 4.6243,19.6105 14.6311,22.3468 21.3779,5.7767 39.3446,-27.5155 17.7392,-38.7649 z"
     style="fill:#005ca9"
     id="path218" />
  <path
     d="m 1859.446,422.26697 c 3.8662,8.8171 13.418,10.7933 21.7569,7.1449 8.0356,-3.4964 15.4649,-10.9454 16.9811,-19.8385 a 16.17,16.17 0 0 0 -3.1082,-12.6936 c -3.3356,-4.3325 -9.9308,-8.5131 -15.5407,-7.6009 a 4.416,4.416 0 0 0 -1.7436,0.6841 2.0379,2.0379 0 0 0 -0.6065,2.7363 c 1.8952,3.6484 7.2018,5.0926 10.2341,7.829 a 8.227,8.227 0 0 1 2.8808,6.6128 c 0,4.9406 -4.776,10.2613 -9.4761,13.3017 a 17.4155,17.4155 0 0 1 -7.3533,2.7363 6.1745,6.1745 0 0 1 -5.9131,-2.2043 c -2.35,-2.4323 -2.8808,-7.3729 -2.0468,-10.7173 1.592,-6.6889 8.6422,-8.7411 14.3278,-10.1093 a 1.0465,1.0465 0 0 0 0.379,-1.7482 c -5.61,-5.0926 -14.5551,0 -18.4972,4.6366 -4.7002,5.5488 -5.0792,12.9217 -2.2742,19.2304 z"
     style="fill:#005ca9"
     id="path220" />
  <path
     d="m 1831.3969,400.68037 c 0,0.152 0.076,0.3041 0.076,0.456 a 3.8661,3.8661 0 0 0 1.8194,2.1283 v 0 a 3.9659,3.9659 0 0 0 2.8049,0.228 3.8618,3.8618 0 0 0 2.1226,-1.8242 3.6265,3.6265 0 0 0 0.2275,-2.8124 3.8661,3.8661 0 0 0 -1.8194,-2.1283 v 0 a 3.2867,3.2867 0 0 0 -1.8952,-0.38 2.5052,2.5052 0 0 0 -1.1371,0.3041 3.1441,3.1441 0 0 0 -2.1985,4.0285 z"
     style="fill:#005ca9"
     id="path222" />
  <path
     d="m 1876.9577,416.56637 c 5.155,2.66 9.2486,-5.3967 4.0937,-8.057 -5.2309,-2.6604 -9.3245,5.3966 -4.0937,8.057 z"
     style="fill:#005ca9"
     id="path224" />
  <path
     d="m 1888.4047,441.72547 c -0.6823,-2.9644 -3.8662,-2.8123 -5.61,-1.2161 -0.2274,-0.076 -0.4548,-0.228 -0.6823,-0.3041 -4.1694,-1.0641 -8.8695,-1.0641 -13.1148,-1.6722 -5.3824,-0.76 -10.8406,-1.7482 -16.1472,-2.8123 -5.61,-1.14 -11.1438,-2.4324 -16.6778,-3.8765 -4.4727,-1.2161 -9.2486,-3.1924 -13.873,-3.42 a 2.0866,2.0866 0 0 0 -2.2742,0.76 c -1.5162,2.5083 -2.8049,4.3325 -3.563,7.2209 a 21.946,21.946 0 0 0 -0.6065,7.3729 28.1356,28.1356 0 0 0 4.9276,13.3017 c 5.7614,8.513 15.1616,13.8337 24.9409,16.418 9.6276,2.5083 20.3924,1.9 29.11,-3.2684 8.7943,-5.093 15.9203,-18.0906 13.5703,-28.5039 z m -65.4226,-10.2613 a 32.2958,32.2958 0 0 0 8.2631,4.1046 c -2.2742,3.9525 -2.8048,10.1853 -3.3356,13.9857 -0.1515,1.3682 -0.5306,3.04 -0.6822,4.7886 -0.1516,-0.152 -0.2275,-0.304 -0.3791,-0.456 -4.8516,-6.2328 -5.8372,-14.8219 -3.8662,-22.4229 z m 11.0681,29.0357 c 1.8194,-2.8884 1.0613,-7.1449 1.2887,-10.4133 0.2275,-2.8124 0.4548,-5.5487 0.7581,-8.3611 0.1516,-1.3681 0.4548,-2.8883 0.5306,-4.3325 3.26,1.0641 6.52,1.9762 9.8551,2.8883 -2.9566,7.829 -3.1839,16.1141 -4.5485,24.3231 a 39.026,39.026 0 0 1 -7.884,-4.1045 z m 14.6309,6.0807 c 1.2129,-8.437 0.5306,-16.95 1.8194,-25.3111 a 6.3036,6.3036 0 0 1 1.1372,0.304 c 4.2452,0.9882 8.4905,1.8243 12.8116,2.5084 -1.971,1.7482 -2.6533,4.7125 -3.4114,7.1449 -1.2887,4.4085 -1.7436,9.2731 -2.2742,13.8337 a 3.8908,3.8908 0 0 0 0.5306,2.3563 35.419,35.419 0 0 1 -10.6132,-0.8362 z m 21.53,-2.28 a 23.5538,23.5538 0 0 1 -4.4727,1.9762 c 0.6065,-4.1805 0.7581,-8.3611 1.2129,-12.5416 0.3032,-2.8123 1.44,-6.3088 0.8339,-9.1211 4.1694,0.608 8.87,1.6722 13.1148,1.3681 -0.6065,3.3445 -0.91,6.6889 -2.6533,9.9573 a 19.4264,19.4264 0 0 1 -8.036,8.3609 z"
     style="fill:#005ca9"
     id="path226" />
  <path
     d="m 1758.5451,510.21007 -26.3054,148.2185 141.61,22.0428 c 0,0 3.7146,-93.2637 7.4293,-121.3872 3.7901,-28.1235 -122.7339,-48.8741 -122.7339,-48.8741 z"
     style="opacity:0.5;isolation:isolate;fill:#42210b"
     id="path228" />
  <path
     d="m 1759.0758,507.70177 c 0,0 -19.9376,128.152 -18.8763,147.8384 l 143.2018,21.3587 c 0,0 -5.2307,-91.6674 12.3568,-144.19 z"
     style="fill:#f3c460"
     id="path230" />
  <path
     d="m 1889.9966,553.76347 c 1.2887,-5.8527 3.942,-15.81 5.6856,-21.0546 l -136.6064,-24.9311 c 0,0 -2.0468,12.9216 -3.5629,22.8788 z"
     style="fill:#f5d080"
     id="path232" />
  <path
     d="m 1859.1427,579.98697 c -4.3969,-1.7482 -9.6276,-1.8243 -14.252,-2.0523 -4.321,-0.228 -10.31,-1.2922 -14.1761,1.0642 a 1.0349,1.0349 0 0 0 -0.076,1.6722 c 3.26,2.8883 9.097,2.8123 13.1149,3.3444 0.1516,0 0.3032,0.076 0.4548,0.076 a 12.3062,12.3062 0 0 0 -1.2887,3.6485 35.8075,35.8075 0 0 0 -0.9855,4.7886 4.0687,4.0687 0 0 0 3.1839,4.6365 c 2.7291,0.5321 4.7,-1.6722 4.6243,-4.2565 0,-1.4442 -0.076,-2.9644 -0.1516,-4.4085 a 19.1976,19.1976 0 0 0 -0.3791,-3.6485 c 2.5775,0.456 5.2308,0.9121 7.8083,1.2922 3.6388,0.6078 5.6856,-4.7128 2.1226,-6.1568 z"
     style="fill:#005ca9"
     id="path234" />
  <path
     d="m 1790.9153,593.89697 c 2.1984,-0.8361 2.8807,-2.9644 2.35,-5.0927 0.3033,1.4442 0.076,-0.6081 0,-0.9881 -0.076,-0.9881 -0.1516,-1.9762 -0.1516,-2.9644 a 17.396,17.396 0 0 0 -0.6823,-4.7886 c 5.2308,0.6081 10.4616,1.14 15.6923,1.7482 4.7,0.5321 5.9889,-6.7648 1.2887,-7.2209 -6.0646,-0.608 -12.0535,-0.9881 -18.1182,-1.3681 -5.8372,-0.38 -12.4325,-1.8243 -18.194,-0.5321 a 1.6343,1.6343 0 0 0 -0.5306,2.7363 c 4.1695,2.7363 9.6276,3.3444 14.6311,3.9525 a 14.4421,14.4421 0 0 0 -1.5162,5.5487 17.64,17.64 0 0 0 0.076,6.6128 c 0.5307,2.1279 3.2598,3.04 5.155,2.3564 z"
     style="fill:#005ca9"
     id="path236" />
  <path
     d="m 1846.2553,632.96537 a 10.7356,10.7356 0 0 0 -1.7436,1.0642 c -8.7938,-8.3611 -20.9231,-13.6817 -32.825,-15.506 -10.0826,-1.5962 -26.0781,1.52 -27.3668,13.9858 a 6.0546,6.0546 0 0 0 -5.0791,0.6841 c -0.91,0.5321 -0.5306,1.6722 0.1516,2.1282 1.1371,0.76 2.5775,1.14 3.6388,1.9763 1.1371,0.9121 1.44,2.2043 1.971,3.42 a 2.9691,2.9691 0 0 0 3.1081,1.9762 c 1.5162,-0.152 3.1081,-1.6722 2.7291,-3.2684 a 10.0428,10.0428 0 0 0 -3.6388,-5.4727 c 2.8048,-4.0285 4.5485,-7.6769 9.476,-9.6532 4.8517,-1.9 10.4616,-1.2161 15.4649,-0.076 9.1728,2.0523 20.62,7.677 26.3054,15.506 0.076,0.076 0.076,0.152 0.1516,0.228 -0.2275,0.3041 -0.4548,0.6841 -0.6823,0.9881 -2.2742,3.3444 2.35,7.525 4.8518,4.1805 2.2742,-2.9644 4.4727,-6.9928 5.0033,-10.7173 0.2275,-0.9117 -0.6821,-1.8998 -1.516,-1.4438 z"
     style="fill:#005ca9"
     id="path238" />
  <path
     d="m 270.06408,358.75694 -36.5006,208.0392 c 0,0 -135.464901,-2.1781 -204.881501,-35.1815 z"
     style="opacity:0.5;isolation:isolate;fill:#42210b"
     id="path240" />
  <path
     d="m 270.06408,358.75694 c 0,0 -32.8071,154.45 -50.6228,194.2062 0,0 -92.12,12.8527 -190.867601,-21.24 l 39.9768,-212.2867 z"
     style="fill:#f3c460"
     id="path242" />
  <path
     d="m 263.32888,389.58154 c 4.128,-18.5165 6.7352,-30.7157 6.7352,-30.7157 l -201.513601,-39.4294 -5.323,28.4284 z"
     style="fill:#f5d080"
     id="path244" />
  <path
     d="m 111.67768,417.13864 c 0.1086,2.8319 0.4345,5.6639 0.76,8.4958 1.0864,7.08 2.6072,16.12 8.6906,20.5861 3.5849,2.6141 7.2784,-1.6338 6.6266,-5.1193 -0.5431,-2.8319 -2.064,-5.01 -3.15,-7.6245 a 48.6342,48.6342 0 0 1 -2.8245,-10.3475 c -1.3035,-6.971 -0.9776,-14.0508 -1.0863,-21.0217 -0.1086,-3.9212 -5.8661,-5.9907 -7.7129,-2.07 a 121.0618,121.0618 0 0 1 -9.2338,15.249 c -3.802101,5.2282 -8.907901,8.9315 -12.927301,13.9419 -1.4122,1.7427 -0.2172,5.01 2.39,4.139 7.278401,-2.7226 13.361901,-9.1494 18.467601,-16.2288 z"
     style="fill:#005ca9"
     id="path246" />
  <path
     d="m 200.86508,445.45804 c -2.7158,-6.6441 -6.8438,-11.9813 -8.9079,-19.0612 -2.064,-7.2977 -1.9554,-14.5954 -2.7158,-22.002 -0.4345,-4.03 -6.518,-5.555 -7.6043,-0.98 -1.8467,7.7333 -6.7352,14.5954 -11.6237,20.695 -4.128,5.1193 -10.32,9.8029 -13.1445,15.9024 a 2.4837,2.4837 0 0 0 3.3676,3.3765 c 6.4093,-2.9408 11.7323,-10.13 16.0776,-15.4668 a 63.7689,63.7689 0 0 0 4.0194,-5.446 c 0.9777,11.4367 4.78,23.0913 12.6014,29.1908 3.8022,2.614 9.6683,-1.9607 7.9302,-6.2087 z"
     style="fill:#005ca9"
     id="path248" />
  <path
     d="m 186.63418,484.99644 c -4.6712,0.4357 -7.17,4.3569 -9.8855,7.7334 a 41.0888,41.0888 0 0 1 -10.646,8.7137 42.5,42.5 0 0 1 -24.4424,5.3371 32.66,32.66 0 0 1 -20.9661,-9.585 c -6.8439,-7.08 -7.0611,-16.6649 -9.3424,-25.7053 a 2.9141,2.9141 0 0 0 -5.323,-0.6535 c -11.080001,22.3288 11.4064,44.0041 31.938,47.2717 a 55.1857,55.1857 0 0 0 32.3725,-4.9014 c 7.387,-3.4855 25.0942,-16.556 19.0107,-26.4678 a 2.9732,2.9732 0 0 0 -2.7158,-1.7429 z"
     style="fill:#005ca9"
     id="path250" />
  <g
     id="g5824">
    <g
       id="g5812">
      <rect
         x="1.2031"
         y="1.3787"
         width="1917.7726"
         height="1078.2239"
         style="fill:none"
         id="rect5810" />
    </g>
  </g>
  <path
     d="m 992.52763,74.10287 a 2.7347,2.7347 0 0 1 -2.5344,2.0056 c -2.2935,0.36 -4.8737,-0.9176 -7.1818,-1.5431 1.7318,6.48 1.8252,13.2461 1.5869,19.7525 -0.2842,3.2221 -1.4,17.4939 -3.6337,17.5241 -7.16,0.1 -9.6614,-19.3121 -9.1121,-27.07 -0.009,-0.657 0.4845,-7.76 1.1411,-7.7692 0.6566,-0.009 0.7273,5.1141 0.732,5.4426 a 58.3223,58.3223 0 0 0 0.8048,10.698 58.93,58.93 0 0 0 3.0338,10.3365 c -1.3779,-9.375 -2.4791,-17.7681 -0.9942,-29.1529 -2.3034,-0.2979 -9.3882,0.4583 -10.7107,-0.1818 -3.57,-1.5916 3.7988,-5.57 4.775,-6.2406 6.3975,-2.979 15.1988,-3.1 20.403,2.6745 0.9983,0.9705 1.9967,1.8769 1.6903,3.5238 z"
     style="fill:#f5d080;fill-opacity:1"
     id="path271" />
  <path
     d="m 1023.1051,109.54997 c -0.6254,2.2417 -4.9048,1.6436 -6.8095,1.6705 -1.9754,-0.3666 -4.5319,0.0628 -4.9623,-2.56 -0.3554,-1.9659 4.8057,-32.5853 -2.0608,-35.0536 -1.9184,-0.9577 -4.0161,13.6553 -2.5976,25.986 a 75.81,75.81 0 0 1 0.775,8.5314 3.3083,3.3083 0 0 1 -1.8608,3.2437 c -1.7024,0.3522 -10.11997,-0.2543 -9.82277,-2.4918 0.3017,-1.9763 3.5242,-1.6907 4.89997,-2.04 a 12.9339,12.9339 0 0 1 -2.77777,-6.07 c -2.3729,-10.0848 -2.1533,-17.9718 -1.2881,-26.6553 -0.01,-0.7226 0.5009,-6.5766 1.223,-6.5866 0.3285,-0.004 0.3747,3.3456 0.3776,3.5431 0.35,6.3009 0.176,12.7423 1.51,18.8984 -0.7425,-6.1641 -1.1791,-13.9762 1.63607,-19.4678 a 8.695,8.695 0 0 1 13.6915,-2.8175 c 4.3228,3.8159 4.7546,11.3 5.0979,17.1417 0.098,7.0936 -1.4308,15.3271 -2.5194,22.1092 2.8112,-0.9584 6.113,0.3094 5.488,2.6186 z"
     style="fill:#f5d080;fill-opacity:1"
     id="path273" />
  <path
     d="m 1054.4358,94.92637 a 92.4816,92.4816 0 0 1 -1.568,10.1386 c -0.6211,2.57 -0.8526,4.8737 -3.47,5.5657 a 3.8955,3.8955 0 0 1 -5.22,-2.161 c -1.0271,-3.0076 -1.6631,-6.2174 -2.7524,-9.0271 -1.6629,-6.2193 -3.7889,-12.6927 -6.1084,-18.9026 a 104.7691,104.7691 0 0 0 -0.029,16.9494 77.6059,77.6059 0 0 0 0.3711,7.8135 c 0.023,1.6426 1.1228,5.1749 -0.5094,5.92 -3.2061,0.9649 -7.0917,-18.7569 -8.1542,-24.3263 -1.1262,-5.4369 -2.1317,-11.6637 -1.2886,-17.1935 0.35,-3.2235 1.0554,0.3134 1.0733,1.6265 0.7114,3.8674 1.36,8.0628 2.1416,12.3218 -0.059,-4.2689 0.3574,-16.8891 4.2333,-16.9424 4.1991,-0.3851 6.3113,5.1026 7.9371,8.6272 a 115.36,115.36 0 0 1 6.1272,15.5514 50.8069,50.8069 0 0 0 0.1006,-11.76 c -0.6448,-3.8679 -2.0043,-7.1333 -2.7759,-10.67 -0.6364,-3.2773 3.222,-4.5783 4.6375,-1.9694 1.9443,2.8633 2.9177,6.726 3.9486,9.9976 1.7262,6.0835 1.8088,12.0605 1.3055,18.4406 z"
     style="fill:#f5d080;fill-opacity:1"
     id="path275" />
  <path
     d="m 1100.0111,69.99017 c -1.3447,2.58 -10.0928,1.7814 -15.0013,3.1639 -2.228,0.3578 7.3776,10.934 7.6907,14.5431 0.035,2.5608 -4.38,11.0978 -5.92,13.7458 -1.5879,3.9645 13.2862,1.131 13.7166,3.7526 0.018,1.2476 -7.154,5.289 -21.4068,5.4859 -2.9558,0.041 -4.94,-0.9182 -4.9845,-4.137 a 14.707,14.707 0 0 1 0.2742,-3.9446 41.3462,41.3462 0 0 1 6.9615,-14.418 c 1.6152,-1.9933 0.9851,-0.0137 0.35,1.5729 -0.9445,2.97 -2.217,5.9432 -3.424,8.9155 1.544,-2.3215 8.6046,-9.5793 8.5866,-10.8924 -0.027,-1.9712 -12.5143,-11.85 -13.2483,-17.4224 -0.733,-5.509 6.7547,-5.6119 11.2866,-5.6747 4.5983,-0.0642 16.0015,2.6689 15.1187,5.3094 z"
     style="fill:#f5d080;fill-opacity:1"
     id="path277" />
  <path
     d="m 1124.2621,75.56747 c -0.9765,5.4007 -2.553,10.1523 -6.3024,14.54 -0.7136,0.667 0.026,1.9047 0.031,2.2332 a 6.2179,6.2179 0 0 1 0.6274,2.6193 23.1529,23.1529 0 0 1 -0.4466,10.4515 c -1.0142,2.7069 -2.94,5.9531 -5.524,4.3458 a 6.0478,6.0478 0 0 1 -3.3254,-2.91 c -3.4032,-3.8271 -1.7729,-9.4347 0.1388,-13.731 0,0 0.698,-1.7836 1.026,-1.7879 0.3333,0.3234 -0.1112,1.4471 -0.1069,1.7756 a 35.2581,35.2581 0 0 0 0.1406,10.18 35.3942,35.3942 0 0 1 0.8676,-8.5515 c -0.01,-0.6571 0.2922,-2.6335 0.288,-2.961 0.3855,-0.5963 -2.0028,-2.2724 -2.607,-3.25 -3.0049,-3.5053 -4.396,-9.07 -5.4443,-13.6542 -0.35,-1.5719 -0.37,-2.9505 -0.7208,-4.589 -0.014,-0.9855 -0.3677,-2.885 -0.053,-3.8748 1.2772,-2.6452 2.9558,-0.0411 3.63,1.2635 2.3672,4.8944 4.6811,10.7093 7.4457,15.861 a 114.8655,114.8655 0 0 1 3.7653,-12.797 c 0.8836,-2.573 2.1256,-7.8474 5.3656,-6.3141 3.368,1.2661 1.4983,8.5837 1.2051,11.1506 z"
     style="fill:#f5d080;fill-opacity:1"
     id="path279" />
  <path
     d="m 1156.8307,93.51177 a 92.5834,92.5834 0 0 1 -1.5675,10.1386 c -0.6216,2.57 -0.8525,4.8737 -3.47,5.5656 a 3.896,3.896 0 0 1 -5.22,-2.161 c -1.0271,-3.0076 -1.6625,-6.2174 -2.7523,-9.027 -1.663,-6.2194 -3.7889,-12.6927 -6.1085,-18.9026 a 104.769,104.769 0 0 0 -0.029,16.9494 77.6334,77.6334 0 0 0 0.3711,7.8134 c 0.023,1.6427 1.1228,5.1749 -0.5094,5.92 -3.2056,0.9649 -7.0917,-18.7569 -8.1537,-24.3262 -1.1266,-5.4369 -2.1321,-11.6638 -1.289,-17.1936 0.35,-3.2235 1.0558,0.3134 1.0738,1.6266 0.7108,3.8674 1.3594,8.0627 2.141,12.3218 -0.059,-4.269 0.3579,-16.8892 4.2328,-16.9425 4.2,-0.3851 6.3118,5.1026 7.9376,8.6273 a 115.4584,115.4584 0 0 1 6.1272,15.5513 50.8071,50.8071 0 0 0 0.1007,-11.76 c -0.6449,-3.8678 -2.0043,-7.1333 -2.776,-10.67 -0.6358,-3.2773 3.2221,-4.5782 4.638,-1.9693 1.9438,2.8633 2.9177,6.7259 3.9481,9.9975 1.7257,6.0836 1.8083,12.0606 1.305,18.4407 z"
     style="fill:#f5d080;fill-opacity:1"
     id="path281" />
  <path
     d="m 1182.2228,95.98627 c 0.044,3.2178 0.097,7.0272 0.1421,10.3115 0.05,3.6128 -4.35,3.6737 -4.843,1.3156 -0.2093,-0.8512 -1.73,-6.3479 -2.0858,-8.3149 a 9.2511,9.2511 0 0 1 -8.0916,-0.8072 c -0.4954,2.2407 -0.8544,4.7417 -1.5407,7.38 -0.2446,1.3169 -0.7371,3.6887 -2.5136,3.5163 -3.8145,-0.3431 -3.592,-22.2214 -3.34,-32.474 0.09,-3.0232 1.527,-13.16 2.718,-12.5189 0.6609,0.2536 0.075,5.4521 0.084,6.1081 -0.1865,5.52 0.1109,8.0138 0.169,12.2172 0.5759,-5.8555 1.6681,-21.9 10.05,-19.1253 3.3027,1.2678 4.6687,5.06 5.6331,8.2658 1.375,4.4473 3.1079,15.7242 3.618,24.1258 z m -8.2066,-4.3531 c -0.724,-4.853 -1.705,-9.3062 -2.7571,-14.153 -1.1773,5.14 -2.0954,10.0142 -2.9447,15.1509 a 12.5673,12.5673 0 0 1 3.5384,-0.7061 5.9617,5.9617 0 0 1 2.1634,-0.2918 z"
     style="fill:#f5d080;fill-opacity:1"
     id="path283" />
  <path
     d="m 1195.594,108.15267 c -1.3574,1.5946 -3.2711,0.9645 -4.6026,-0.2662 -3.6148,-4.8769 -4.7632,-11.9555 -5.4363,-17.859 a 90.2645,90.2645 0 0 1 -0.3186,-23.0557 c 0,0 0.17,-1.9716 0.4374,-1.6478 0.9851,-0.0137 1.0282,12.5994 1.3709,13.6463 0.2784,-3.6171 0.9529,-7.1088 1.4274,-10.7938 0.4133,-3.3559 0.7993,-3.9522 2.1653,-4.9571 0.583,-0.6 1.3849,0.3737 1.7266,1.355 0.6056,1.0431 1.0909,12.4015 1.93,20.7994 0.7741,8.4638 2.1959,21.0576 1.2999,22.7789 z"
     style="fill:#f5d080;fill-opacity:1"
     id="path285" />
  <path
     d="m 1224.4742,68.27057 c -1.3442,2.58 -10.0928,1.7813 -15.0009,3.1639 -2.2284,0.3578 7.3777,10.934 7.69,14.5431 0.035,2.5607 -4.38,11.0978 -5.92,13.7458 -1.5879,3.9645 13.2862,1.131 13.7166,3.7526 0.017,1.2476 -7.1535,5.289 -21.4069,5.4858 -2.9557,0.0411 -4.94,-0.9171 -4.984,-4.1359 a 14.7131,14.7131 0 0 1 0.2743,-3.9456 41.3364,41.3364 0 0 1 6.9609,-14.418 c 1.6153,-1.9933 0.9856,-0.0137 0.35,1.5729 -0.9445,2.97 -2.2165,5.9432 -3.4241,8.9164 1.5446,-2.3224 8.6047,-9.58 8.5867,-10.8933 -0.027,-1.9712 -12.5143,-11.85 -13.2478,-17.4224 -0.7335,-5.5091 6.7542,-5.6119 11.2866,-5.6747 4.5982,-0.0642 16.0015,2.6689 15.1186,5.3094 z"
     style="fill:#f5d080;fill-opacity:1"
     id="path287" />
  <path
     d="m 1240.723,108.05467 c -7.146,1.0842 -10.906,-4.7763 -12.2485,-11.59 -1.418,-7.5353 -1.1928,-15.0273 -0.64,-22.5245 0.2913,-2.6979 0.5844,-5.2629 0.8761,-7.8964 -0.01,-0.7226 0.3058,-1.6449 0.5769,-1.0581 0.7419,1.3687 0.15,10.8375 0.1869,13.5313 a 36.79,36.79 0 0 1 3.52,-11.5466 c 0.9006,-1.3254 3.1545,-4.6413 5.4538,-4.6739 7.5532,-0.1043 9.5985,10.0512 10.3415,16.2809 1.5101,9.373 4.0707,28.3247 -8.0667,29.4773 z m 1.2895,-25.5076 a 57.216,57.216 0 0 0 -0.8,-10.435 c -0.348,-1.3744 -1.3868,-5.2366 -2.7089,-5.8757 -1.8963,0.684 -2.5561,5.2258 -2.8563,7.2667 a 51.4568,51.4568 0 0 0 -0.19,10.0547 13.8125,13.8125 0 0 1 6.5552,-1.0112 z m -0.2157,8.15 c -1.9754,-0.3021 -3.8843,-0.6037 -6.2533,-0.8992 0.37,2.9506 0.4286,7.22 2.5,9.8189 2.2733,2.8591 3.1872,-2.3436 3.4931,-3.99 a 24.5453,24.5453 0 0 0 0.2605,-4.9302 z"
     style="fill:#f5d080;fill-opacity:1"
     id="path289" />
  <path
     d="m 1277.8605,90.52617 c 0.035,2.5617 0.4975,12.2784 -0.1265,14.6512 -0.303,1.8443 -2.2553,3.1849 -3.7787,2.286 -1.6554,-0.9624 -2.3525,-3.8432 -2.77,-5.4792 a 65.98,65.98 0 0 1 -1.7909,-15.5453 23.758,23.758 0 0 1 -6.7788,-0.8926 c -0.2653,4.6017 0.1123,8.1448 0.45,13.593 0.036,2.6262 0.826,7.4778 -1.5246,8.4955 -8.1626,3.5946 -9.2685,-28.9086 -8.89,-34.8263 -0.011,-0.7881 -0.043,-7.8187 0.54,-8.4173 0.3941,-0.006 1.4821,12.1993 1.4958,13.1839 0.6037,-3.8834 1.5341,-7.8384 2.405,-11.3315 0.6359,-1.5866 0.9267,-4.2846 2.9025,-3.917 1.3141,-0.0179 1.3268,0.9022 1.6743,2.2766 0.3946,4.79 0.4616,9.65 0.5286,14.5107 a 10.5561,10.5561 0 0 1 7.7465,-0.4342 80.0011,80.0011 0 0 1 1.1934,-8.755 c 0.63,-1.98 0.9,-6.1874 2.4589,-7.4577 1.8825,-1.6676 2.5744,0.8847 2.9261,2.5222 0.368,2.8848 1.2619,20.0205 1.3384,25.537 z"
     style="fill:#f5d080;fill-opacity:1"
     id="path291" />
  <path
     d="m 1310.2543,86.26837 c -0.6362,6.25 -0.884,12.0994 0.252,18.26 0.3592,2.228 -1.3342,3.2362 -3.2484,2.607 -2.3082,-0.6254 -2.94,-3.5732 -3.2995,-5.8021 -1.3943,-5.8272 -1.484,-12.3293 -1.3112,-18.8352 -1.5266,3.6335 -2.3791,8.5062 -6.6566,7.9747 -3.9512,-0.6678 -4.2982,-6.7731 -5.661,-10.3016 0.08,5.78 0.022,25.2922 -0.2286,26.2161 -0.2968,2.302 -2.2807,1.3447 -2.9652,-0.617 -3.0364,-5.805 -6.14,-21.2658 -6.5587,-27.7647 -0.4,-5.1838 0.144,-13.338 1.0641,-13.3513 1.1759,-0.4091 1.3608,8.1948 1.3736,9.1139 0.33,4.7912 0.8514,9.317 1.5764,14.2345 -0.3969,-4.9227 -1.2678,-20.4148 0.015,-22.7314 a 4.393,4.393 0 0 1 6.8169,-1.079 c 2.5939,2.2633 4.2983,6.7731 5.3278,9.9772 1.5234,-3.8975 3.4218,-9.1139 6.6754,-11.3915 3.182,-2.6721 7.0937,-0.0981 7.48,4.101 0.747,6.4935 -0.4119,13.0131 -0.6517,19.3894 z"
     style="fill:#f5d080;fill-opacity:1"
     id="path293" />
  <path
     d="m 1336.4383,93.85647 c 0.044,3.2178 0.097,7.0272 0.1421,10.3115 0.05,3.6128 -4.35,3.6728 -4.843,1.3146 -0.2088,-0.8512 -1.73,-6.3479 -2.0854,-8.3139 a 9.2509,9.2509 0 0 1 -8.0915,-0.8082 c -0.4954,2.2408 -0.8549,4.7417 -1.5412,7.38 -0.2441,1.317 -0.7371,3.6888 -2.5131,3.5163 -3.815,-0.3421 -3.592,-22.2213 -3.34,-32.474 0.09,-3.0232 1.5265,-13.16 2.718,-12.5188 0.66,0.2535 0.075,5.452 0.084,6.1081 -0.1866,5.5213 0.1109,8.0137 0.169,12.2172 0.5754,-5.8556 1.6681,-21.9 10.05,-19.1254 3.3022,1.2678 4.6687,5.06 5.6326,8.2668 1.375,4.4463 3.1079,15.7227 3.618,24.1258 z m -8.2066,-4.3541 c -0.7235,-4.853 -1.7045,-9.3062 -2.7571,-14.1529 -1.1769,5.1409 -2.0954,10.0141 -2.9442,15.1508 a 12.5631,12.5631 0 0 1 3.5379,-0.7061 5.9665,5.9665 0 0 1 2.1634,-0.2918 z"
     style="fill:#f5d080;fill-opacity:1"
     id="path295" />
  <path
     d="m 1366.5754,68.93557 a 2.7368,2.7368 0 0 1 -2.5349,2.0056 c -2.2935,0.36 -4.8737,-0.9176 -7.1818,-1.543 1.7318,6.4789 1.8257,13.2451 1.5869,19.7524 -0.2842,3.2221 -1.4,17.4929 -3.6337,17.5241 -7.16,0.0986 -9.6615,-19.3121 -9.1121,-27.0713 -0.01,-0.6571 0.4845,-7.76 1.1411,-7.7692 0.6566,-0.009 0.7273,5.115 0.732,5.4435 a 58.2186,58.2186 0 0 0 0.8053,10.6971 58.873,58.873 0 0 0 3.0333,10.3374 c -1.3779,-9.375 -2.4792,-17.7681 -0.9947,-29.1539 -2.3024,-0.2978 -9.3877,0.4584 -10.71,-0.1817 -3.57,-1.5916 3.7989,-5.57 4.775,-6.2407 6.3975,-2.978 15.1988,-3.1 20.403,2.6746 0.9982,0.9709 1.9965,1.8773 1.6906,3.5251 z"
     style="fill:#f5d080;fill-opacity:1"
     id="path297" />
  <path
     d="m 1397.1524,104.38167 c -0.6254,2.2427 -4.9048,1.6446 -6.8094,1.6706 -1.9754,-0.3667 -4.532,0.0627 -4.9624,-2.5588 -0.3554,-1.967 4.8057,-32.5854 -2.0608,-35.0537 -1.9184,-0.9586 -4.0161,13.6553 -2.5976,25.9861 a 75.7673,75.7673 0 0 1 0.775,8.53 3.31,3.31 0 0 1 -1.8608,3.2447 c -1.7024,0.3512 -10.12,-0.2543 -9.8228,-2.4927 0.3017,-1.9754 3.5242,-1.6908 4.9,-2.0386 a 12.9383,12.9383 0 0 1 -2.7778,-6.07 c -2.3728,-10.0857 -2.1534,-17.9717 -1.2882,-26.6553 -0.01,-0.7226 0.501,-6.5766 1.2231,-6.5865 0.3285,-0.004 0.3747,3.3456 0.3775,3.5431 0.35,6.3008 0.1761,12.7422 1.51,18.8983 -0.7425,-6.1651 -1.1791,-13.9761 1.6356,-19.4688 a 8.6953,8.6953 0 0 1 13.692,-2.8165 c 4.3227,3.8159 4.7546,11.3 5.0978,17.1417 0.098,7.0937 -1.4306,15.3261 -2.5194,22.1093 2.8109,-0.9589 6.1129,0.3089 5.4882,2.6171 z"
     style="fill:#f5d080;fill-opacity:1"
     id="path299" />
  <path
     d="m 1428.4831,89.75917 a 92.5269,92.5269 0 0 1 -1.568,10.1385 c -0.6211,2.57 -0.8525,4.8728 -3.47,5.5657 a 3.8955,3.8955 0 0 1 -5.22,-2.162 c -1.0271,-3.0076 -1.6626,-6.2174 -2.7524,-9.026 -1.663,-6.2194 -3.7888,-12.6937 -6.1084,-18.9026 a 104.7576,104.7576 0 0 0 -0.029,16.9494 77.6333,77.6333 0 0 0 0.371,7.8134 c 0.023,1.6427 1.1229,5.1739 -0.5094,5.92 -3.2061,0.9649 -7.0916,-18.7569 -8.1542,-24.3263 -1.1261,-5.4378 -2.1316,-11.6637 -1.2884,-17.1945 0.35,-3.2225 1.0553,0.3144 1.0732,1.6275 0.7114,3.8665 1.36,8.0619 2.1416,12.3209 -0.059,-4.269 0.3579,-16.8882 4.2327,-16.9415 4.2,-0.3861 6.3119,5.1026 7.9376,8.6273 a 115.4443,115.4443 0 0 1 6.1273,15.55 50.8126,50.8126 0 0 0 0.1007,-11.76 c -0.6449,-3.8669 -2.0044,-7.1323 -2.776,-10.6687 -0.6364,-3.2773 3.222,-4.5782 4.637,-1.97 1.9448,2.8644 2.9187,6.726 3.9491,9.9976 1.7262,6.0841 1.8088,12.0612 1.3055,18.4413 z"
     style="fill:#f5d080;fill-opacity:1"
     id="path301" />
  <path
     d="m 525.23183,64.67917 a 3.45,3.45 0 0 1 -3.2331,2.4864 c -2.9015,0.4145 -6.1343,-1.2436 -9.0363,-2.0722 2.0728,8.2069 2.073,16.7462 1.6587,24.9532 -0.415,4.0625 -2.0726,22.0519 -4.891,22.0522 -9.0362,0 -11.8554,-24.5381 -11.0265,-34.32 0,-0.83 0.7464,-9.7835 1.5756,-9.7835 0.8292,0 0.8289,6.4665 0.8284,6.8808 a 73.62,73.62 0 0 0 0.8291,13.5135 74.3483,74.3483 0 0 0 3.6481,13.0968 c -1.5753,-11.8538 -2.8192,-22.4648 -0.7463,-36.8071 -2.902,-0.4152 -11.8551,0.4142 -13.513,-0.4154 -4.477,-2.0714 4.8906,-6.9614 6.1346,-7.7911 8.1241,-3.6488 19.2326,-3.6485 25.6991,3.73 1.244,1.2436 2.4873,2.4046 2.0726,4.4764 z"
     style="fill:#f5d080;fill-opacity:1"
     id="path303" />
  <path
     d="m 558.97433,93.44467 c -0.4142,5.3886 -1.2434,11.1085 -4.8914,15.2544 -5.8025,6.1354 -15.668,4.0613 -19.813,-2.9015 -3.5649,-5.7213 -4.4766,-14.0106 -5.2227,-20.9743 -0.4149,-8.6213 -0.8295,-17.9893 0.7458,-26.6109 0.4969,-2.9023 0.9116,0.7449 0.9114,2.072 0.3316,4.0622 0.7463,8.9543 1.1609,13.0989 0.8288,-4.8912 4.4761,-19.3159 14.4246,-19.3163 9.7823,0 11.4407,13.9271 12.27,21.72 a 126.3208,126.3208 0 0 1 0.4144,17.6577 z m -12.684,-34.0721 c -3.3989,0 -7.2955,9.2025 -7.3785,14.4257 -0.0821,6.1341 7e-4,36.5592 8.1251,27.5228 2.4867,-2.9847 2.0725,-14.4254 2.4865,-17.6582 3e-4,-5.3882 2e-4,-24.7049 -3.2331,-24.2902 z"
     style="fill:#f5d080;fill-opacity:1"
     id="path305" />
  <path
     d="m 620.73713,85.56867 c -0.9119,7.8756 -1.3268,15.2538 0,23.0466 0.4147,2.8184 -1.741,4.0614 -4.1447,3.234 -2.902,-0.83 -3.6482,-4.5606 -4.0629,-7.38 -1.6579,-7.3772 -1.6579,-15.5842 -1.3267,-23.79 -1.99,4.5582 -3.15,10.6936 -8.5384,9.9472 -4.9741,-0.9116 -5.3056,-8.6209 -6.9638,-13.0977 0,7.2952 -0.4141,31.9172 -0.7456,33.0765 -0.4143,2.9015 -2.9019,1.6585 -3.7307,-0.83 -3.7307,-7.3772 -7.3784,-26.9415 -7.7933,-35.1485 -0.4148,-6.55 0.4143,-16.8293 1.5748,-16.83 1.4924,-0.4968 1.5757,10.3626 1.5755,11.5236 0.3319,6.052 0.9119,11.7712 1.7413,17.9895 -0.4151,-6.2183 -1.2439,-25.7829 0.4139,-28.6835 a 5.5456,5.5456 0 0 1 8.6218,-1.2446 c 3.2334,2.9022 5.3056,8.6219 6.55,12.6844 1.9893,-4.8915 4.4759,-11.44 8.6212,-14.26 4.0628,-3.3152 8.9536,0 9.3684,5.3057 0.8292,8.2087 -0.7465,16.4159 -1.1608,24.4568 z"
     style="fill:#f5d080;fill-opacity:1"
     id="path307" />
  <path
     d="m 653.64933,95.59937 c 0,4.0624 0,8.87 0,13.0151 0,4.56 -5.5541,4.5607 -6.1345,1.5757 -0.2487,-1.0775 -2.0722,-8.0417 -2.4872,-10.5278 a 11.679,11.679 0 0 1 -10.1969,-1.1612 c -0.6627,2.8188 -1.16,5.9683 -2.0728,9.285 -0.3312,1.6586 -0.9943,4.6426 -3.2327,4.394 -4.8079,-0.4978 -4.1453,-28.1037 -3.6477,-41.0365 0.1657,-3.8139 2.1552,-16.58 3.6475,-15.7508 0.8289,0.3322 0,6.8808 0,7.71 -0.3313,6.9642 0,10.1147 0,15.42 0.8293,-7.3793 2.4862,-27.6066 13.0154,-23.9585 4.1452,1.6572 5.8026,6.4662 6.9635,10.5275 1.6582,5.6374 3.6481,19.8963 4.1454,30.5075 z m -10.28,-5.6372 c -0.8287,-6.1342 -1.9893,-11.7718 -3.2333,-17.906 -1.5747,6.4658 -2.8188,12.6 -3.9791,19.0668 a 15.856,15.856 0 0 1 4.4772,-0.829 7.5261,7.5261 0 0 1 2.7353,-0.3318 z"
     style="fill:#f5d080;fill-opacity:1"
     id="path309" />
  <path
     d="m 684.90333,63.59927 c -1.16,2.072 -3.6473,2.4044 -5.72,2.0722 -1.99,-0.4141 -6.0522,-2.4865 -7.71,-0.828 -0.4148,0.8277 -2.8183,12.601 -2.4867,30.59 0,3.9794 0.2488,12.186 0.4145,15.5032 0.0835,1.74 -3.6478,1.9891 -4.0619,0 a 110.3623,110.3623 0 0 1 -3.2336,-10.6127 150.4606,150.4606 0 0 1 -4.0621,-20.393 c -0.9122,-6.1344 -1.658,-13.0151 -0.4147,-19.2334 0.4146,-1.5753 0.7459,-1.5756 1.1605,0 0.8294,2.9014 0.8295,8.9536 1.2435,11.854 0.4144,-4.89 0.4142,-12.6 4.56,-15.5014 5.637,-4.0621 12.6,-2.9016 18.3206,5e-4 a 5.1638,5.1638 0 0 1 1.9899,6.5486 z"
     style="fill:#f5d080;fill-opacity:1"
     id="path311" />
  <path
     d="m 702.14713,111.18377 c -1.7408,1.99 -4.1453,1.1621 -5.8025,-0.4132 -4.477,-6.2189 -5.804,-15.1707 -6.55,-22.6328 a 113.9375,113.9375 0 0 1 0,-29.0988 c 0,0 0.2486,-2.4855 0.58,-2.0714 1.244,0 1.0787,15.9162 1.4929,17.2423 0.4146,-4.5589 1.3263,-8.9525 1.9894,-13.5949 0.58,-4.2282 1.0777,-4.9737 2.8187,-6.2176 0.7459,-0.7469 1.7408,0.4975 2.1552,1.7406 0.7465,1.3259 1.1608,15.6681 2.0734,26.2793 0.8284,10.6951 2.4035,26.6114 1.2429,28.7665 z"
     style="fill:#f5d080;fill-opacity:1"
     id="path313" />
  <path
     d="m 736.96603,106.21017 c -0.4148,2.7353 -1.2438,5.8029 -4.3111,5.4714 -2.3213,-0.4979 -3.0679,-3.8966 -3.8138,-6.3 -1.6582,-6.2183 -4.3112,-20.89 -4.6429,-22.1349 -0.4967,-2.6524 -2.7353,-3.3984 -5.1394,-3.3981 0,9.2849 1.99,19.067 0.4979,28.2683 -0.829,3.0666 -3.9794,5.0578 -5.8867,2.8194 -1.16,-0.9125 -5.3887,-11.7728 -6.1346,-15.6689 a 56.0759,56.0759 0 0 1 -1.2434,-19.6477 c 0.4141,-3.8963 4.31,-18.2383 5.14,-17.906 0.7461,0.4141 -1.2436,7.7936 -1.2439,8.1239 a 60.8,60.8 0 0 0 -1.1607,16.3312 72.6947,72.6947 0 0 1 7.047,-25.9474 c 0.7461,-1.2433 2.6528,-3.15 4.2282,-1.4922 3.2327,2.9842 -3.2334,14.5907 -1.2435,18.4877 a 4.54,4.54 0 0 0 3.4818,-0.333 c 1.9894,-1.988 7.1292,-18.1555 10.1137,-18.1554 3.0668,-0.4962 3.896,3.7314 3.8963,6.55 1.161,5.4714 -1.0773,11.9376 -5.8028,14.6737 a 24.2866,24.2866 0 0 1 4.7255,10.1138 60.6783,60.6783 0 0 1 1.4924,20.1442 z"
     style="fill:#f5d080;fill-opacity:1"
     id="path315" />
  <path
     d="m 770.95583,93.44297 c -0.4142,5.3886 -1.2435,11.1085 -4.8914,15.2543 -5.8025,6.1345 -15.668,4.0613 -19.813,-2.9015 -3.5649,-5.7213 -4.4765,-14.0115 -5.2227,-20.9742 -0.4149,-8.6213 -0.8295,-17.9893 0.7458,-26.6119 0.4968,-2.9013 0.9115,0.7458 0.9114,2.0729 0.3317,4.0613 0.7464,8.9534 1.1609,13.098 0.8288,-4.8913 4.4761,-19.3149 14.4246,-19.3153 9.7818,0 11.4407,13.927 12.27,21.72 a 126.3222,126.3222 0 0 1 0.4144,17.6577 z m -12.684,-34.0722 c -3.3989,0 -7.2955,9.2016 -7.3785,14.4258 -0.0827,6.134 7e-4,36.5591 8.1251,27.5218 2.4867,-2.9847 2.0725,-14.4254 2.4865,-17.6582 3e-4,-5.3886 2e-4,-24.705 -3.2331,-24.2894 z"
     style="fill:#f5d080;fill-opacity:1"
     id="path317" />
  <path
     d="m 826.33563,106.20927 c -0.4148,2.7354 -1.2433,5.803 -4.3112,5.4714 -2.3212,-0.4979 -3.0678,-3.8966 -3.8133,-6.3 -1.6586,-6.2182 -4.3116,-20.891 -4.6434,-22.1349 -0.4966,-2.6524 -2.7357,-3.3984 -5.1393,-3.399 0,9.2849 1.99,19.0679 0.4979,28.2692 -0.829,3.0667 -3.98,5.0579 -5.8863,2.8194 -1.1608,-0.9125 -5.3891,-11.7728 -6.135,-15.6689 a 56.0635,56.0635 0 0 1 -1.2434,-19.6476 c 0.4146,-3.8964 4.31,-18.2383 5.14,-17.9061 0.7462,0.4141 -1.2436,7.7937 -1.2438,8.124 a 60.7991,60.7991 0 0 0 -1.1607,16.3311 72.6937,72.6937 0 0 1 7.047,-25.9473 c 0.7461,-1.2433 2.6528,-3.15 4.2282,-1.4933 3.2326,2.9852 -3.2334,14.5918 -1.2435,18.4878 a 4.537,4.537 0 0 0 3.4818,-0.332 c 1.9894,-1.989 7.1292,-18.1555 10.1137,-18.1555 3.0672,-0.4961 3.8959,3.7314 3.8963,6.55 1.161,5.4715 -1.0773,11.9377 -5.8028,14.6738 a 24.2866,24.2866 0 0 1 4.7253,10.1133 60.6938,60.6938 0 0 1 1.4925,20.1446 z"
     style="fill:#f5d080;fill-opacity:1"
     id="path319" />
  <path
     d="m 860.32533,93.44207 c -0.4141,5.3886 -1.2434,11.1085 -4.8913,15.2534 -5.8026,6.1355 -15.668,4.0623 -19.813,-2.9 -3.565,-5.7213 -4.4766,-14.0115 -5.2227,-20.9742 -0.4149,-8.6214 -0.8295,-17.9893 0.7458,-26.6119 0.4968,-2.9013 0.9115,0.7458 0.9113,2.0729 0.3317,4.0612 0.7464,8.9534 1.161,13.0979 0.8293,-4.8912 4.4761,-19.3149 14.4246,-19.3152 9.7823,0 11.4407,13.927 12.27,21.72 a 126.2289,126.2289 0 0 1 0.4143,17.6571 z m -12.6839,-34.0721 c -3.3989,0 -7.2956,9.2015 -7.3791,14.4257 -0.0816,6.1341 8e-4,36.5592 8.1257,27.5218 2.4862,-2.9846 2.0725,-14.4253 2.486,-17.6581 3e-4,-5.3886 2e-4,-24.7047 -3.2326,-24.2894 z"
     style="fill:#f5d080;fill-opacity:1"
     id="path321" />
  <path
     d="m 890.99943,68.81997 c -1.3263,6.7976 -3.3987,12.7668 -8.2068,18.238 -0.9122,0.8286 0,2.4041 0,2.8194 a 7.8236,7.8236 0 0 1 0.7463,3.3147 29.2175,29.2175 0 0 1 -0.746,13.1824 c -1.3266,3.3978 -3.8139,7.46 -7.0472,5.3888 a 7.6482,7.6482 0 0 1 -4.1447,-3.73 c -4.2285,-4.8922 -2.0724,-11.939 0.414,-17.3277 0,0 0.9121,-2.2378 1.3264,-2.2378 0.4148,0.4153 -0.1655,1.8242 -0.1654,2.2375 -0.4147,4.1456 -0.8294,8.7054 0,12.85 a 44.6722,44.6722 0 0 1 1.2436,-10.7763 c 0,-0.83 0.4142,-3.3168 0.4142,-3.7312 0.4977,-0.7454 -2.4872,-2.9013 -3.2334,-4.1452 -3.7306,-4.4757 -5.3883,-11.5226 -6.6316,-17.3255 -0.4151,-1.9887 -0.415,-3.73 -0.8294,-5.8029 0,-1.244 -0.4147,-3.6481 0,-4.8911 1.6578,-3.3169 3.73,0 4.5594,1.6582 2.9013,6.2171 5.72,13.5951 9.1195,20.1438 a 144.708,144.708 0 0 1 4.9739,-16.0819 c 1.1607,-3.234 2.8183,-9.8657 6.8811,-7.8764 4.227,1.6584 1.7401,10.8614 1.3261,14.0932 z"
     style="fill:#f5d080;fill-opacity:1"
     id="path323" />
  <path
     d="m 930.62713,64.67467 a 3.4517,3.4517 0 0 1 -3.2331,2.4874 c -2.9015,0.4145 -6.1343,-1.2445 -9.0363,-2.0731 2.0728,8.2069 2.073,16.7461 1.6587,24.9532 -0.415,4.0624 -2.0726,22.0518 -4.891,22.0521 -9.0362,6e-4 -11.8554,-24.538 -11.0265,-34.32 0,-0.83 0.7464,-9.7825 1.5751,-9.7826 0.8287,-1e-4 0.8293,6.4665 0.8289,6.8808 a 73.61,73.61 0 0 0 0.8291,13.5135 74.3494,74.3494 0 0 0 3.6481,13.0969 c -1.5753,-11.8539 -2.8192,-22.4649 -0.7464,-36.8072 -2.9019,-0.4152 -11.855,0.4142 -13.5134,-0.4154 -4.4765,-2.0714 4.8911,-6.9624 6.1351,-7.7921 8.1241,-3.6478 19.2326,-3.6475 25.6991,3.73 1.2434,1.2436 2.4872,2.4045 2.0726,4.4765 z"
     style="fill:#f5d080;fill-opacity:1"
     id="path325" />
  <path
     d="m 947.37483,111.18087 c -1.7412,1.9906 -4.1453,1.1622 -5.803,-0.4131 -4.4765,-6.2179 -5.8034,-15.1707 -6.5493,-22.6318 a 113.9329,113.9329 0 0 1 -5e-4,-29.0988 c 0,0 0.2481,-2.4866 0.58,-2.0724 1.2436,0 1.0782,15.9171 1.4929,17.2432 0.4141,-4.5589 1.3263,-8.9525 1.99,-13.5958 0.58,-4.2273 1.0772,-4.9737 2.8186,-6.2176 0.7459,-0.7469 1.74,0.4975 2.1552,1.7406 0.7465,1.3259 1.1608,15.6681 2.0734,26.2793 0.8277,10.695 2.4028,26.6113 1.2427,28.7664 z"
     style="fill:#f5d080;fill-opacity:1"
     id="path327" />
  <path
     d="m 611.7732,883.5214 c -6.6232,0.2525 -19.2469,4.4456 -19.2951,4.4 a 127.5619,127.5619 0 0 0 -12.5372,-10.4585 c -1.5443,-1.12 -4.2582,-0.3028 -4.3511,1.8282 q -0.3616,8.2881 -0.6114,16.58 -8.2534,4.0034 -16.3171,8.4 c -1.87,1.0209 -2.3814,4.2339 0.0489,5.0324 q 7.8592,2.5821 15.8107,4.8636 -0.1512,8.2221 -0.2163,16.4457 a 2.853,2.853 0 0 0 0.4829,1.6437 2.95,2.95 0 0 0 5.01,1.3479 q 6.5436,-7.2019 12.7381,-14.6975 6.8679,1.6447 13.789,3.0557 c 3.3344,0.6771 9.4214,3.0257 11.8823,-0.6491 2.4657,-3.6821 -2.8692,-8.0928 -4.921,-10.5741 -2.4338,-2.9433 -4.89,-5.8686 -7.4,-8.7474 4.655,-6.217 4.9613,-6.5166 9.2748,-12.9789 1.823,-2.7324 -0.1413,-5.6155 -3.3875,-5.4917 z"
     style="fill:#ffd88e"
     id="path329" />
  <path
     d="m 178.3853,116.5229 c -7.4011,-4.4341 -24.1463,-8.8381 -24.1666,-8.9218 a 166.0722,166.0722 0 0 0 -6.233,-20.3177 c -0.8875,-2.3192 -4.4276,-3.3577 -6.0441,-1.1 q -6.2874,8.7795 -12.4554,17.6422 -11.8452,-1.5036 -23.7635,-2.4434 c -2.7646,-0.2166 -5.607,2.923 -3.5249,5.5216 q 6.7329,8.4036 13.78,16.5449 -6.0109,8.8572 -11.9294,17.7771 a 3.7151,3.7151 0 0 0 -0.6422,2.1356 3.8394,3.8394 0 0 0 4.5042,5.032 q 12.2553,-3.2 24.3392,-6.9675 6.3185,6.6768 12.8615,13.1362 c 3.1541,3.1091 8.1208,9.9979 13.4169,7.7411 5.3066,-2.2615 2.6261,-10.8638 2.1533,-15.0282 -0.5608,-4.94 -1.1591,-9.8757 -1.8491,-14.7993 9.496,-3.4687 10.0429,-3.5775 19.3411,-7.5564 3.931,-1.6831 3.8392,-6.2232 0.212,-8.3964 z"
     style="fill:#ffd88e"
     id="path331" />
  <path
     d="m 1850.1768,268.0366 c -6.6232,0.2525 -19.2469,4.4457 -19.2951,4.4 a 127.5629,127.5629 0 0 0 -12.5372,-10.4586 c -1.5443,-1.12 -4.2582,-0.3027 -4.3511,1.8283 q -0.3617,8.2881 -0.6114,16.58 -8.2535,4.0032 -16.3171,8.4 c -1.87,1.0209 -2.3814,4.234 0.049,5.0325 q 7.8592,2.5821 15.8107,4.8636 -0.1512,8.2219 -0.2163,16.4456 a 2.853,2.853 0 0 0 0.4829,1.6437 2.95,2.95 0 0 0 5.01,1.3479 q 6.5436,-7.2018 12.7382,-14.6975 6.8678,1.6449 13.7889,3.0558 c 3.3344,0.677 9.4214,3.0257 11.8823,-0.6492 2.4657,-3.682 -2.8692,-8.0927 -4.921,-10.574 -2.4338,-2.9433 -4.89,-5.8686 -7.4,-8.7474 4.655,-6.2171 4.9613,-6.5166 9.2748,-12.979 1.823,-2.7324 -0.1413,-5.6154 -3.3875,-5.4917 z"
     style="fill:#ffd88e"
     id="path333" />
  <path
     d="m 1500.2327,991.5067 c -4.0182,-2.4074 -13.11,-4.7984 -13.1206,-4.8439 a 90.1431,90.1431 0 0 0 -3.3841,-11.0309 1.9457,1.9457 0 0 0 -3.2814,-0.5975 q -3.4137,4.7667 -6.7624,9.5784 -6.4309,-0.8163 -12.9017,-1.3266 c -1.501,-0.1176 -3.0442,1.587 -1.9138,2.9978 q 3.6555,4.5625 7.4817,8.9827 -3.2635,4.8087 -6.4768,9.6516 a 2.0167,2.0167 0 0 0 -0.3486,1.1594 2.0844,2.0844 0 0 0 2.4454,2.732 q 6.6537,-1.7371 13.2143,-3.7828 3.4305,3.625 6.9828,7.132 c 1.7125,1.688 4.409,5.4281 7.2844,4.2028 2.8811,-1.2278 1.4258,-5.8982 1.1691,-8.1592 -0.3045,-2.6818 -0.6293,-5.3617 -1.0039,-8.0349 5.1556,-1.8832 5.4525,-1.9423 10.5007,-4.1025 2.1341,-0.9136 2.0843,-3.3785 0.1149,-4.5584 z"
     style="fill:#ffd88e"
     id="path335" />
  <path
     id="photo"
     d="m 662.6634,872.3892 c -8.2648,0.004 -16.53,0.0392 -24.7943,-0.007 -6.789,-0.0384 -10.8348,-3.84 -10.9438,-10.5366 q -0.2063,-12.665 0.004,-25.3355 c 0.092,-5.6446 4.1072,-9.5513 9.759,-9.8781 a 21.806,21.806 0 0 1 3.2318,-0.01 c 3.921,0.3591 7.027,0.0623 8.5772,-4.6634 1.0445,-3.1841 4.562,-4.4047 7.998,-4.4881 4.19,-0.1016 8.3869,-0.1288 12.5747,0.005 4.2082,0.1345 7.4173,2.1007 8.8412,6.1149 0.8253,2.3266 2.1231,3.19 4.5056,3.0405 a 56.1788,56.1788 0 0 1 6.4649,0.011 c 5.7681,0.3054 9.2868,3.9235 9.3189,9.629 0.0482,8.5643 0.03,17.1291 0.01,25.6935 -0.0161,6.7515 -3.4928,10.3122 -10.394,10.3972 -8.3833,0.1032 -16.7689,0.0245 -25.1535,0.0281 z m -15.6485,-22.9426 a 15.7634,15.7634 0 0 0 31.5266,0.0509 15.7646,15.7646 0 0 0 -31.5266,-0.0509 z"
     style="fill:#8f63bc" />
  <metadata
     id="metadata4157">
    <rdf:RDF>
      <cc:Work
         rdf:about="">
        <dc:title>emotions_lvl1</dc:title>
      </cc:Work>
    </rdf:RDF>
  </metadata>
</svg>
