<?xml version="1.0" encoding="UTF-8" standalone="no"?>
<svg
   width="933.12927"
   height="878.16901"
   viewBox="0 0 933.12927 878.16901"
   version="1.1"
   id="svg730"
   sodipodi:docname="chest-closed.svg"
   inkscape:version="1.2.1 (9c6d41e410, 2022-07-14)"
   xmlns:inkscape="http://www.inkscape.org/namespaces/inkscape"
   xmlns:sodipodi="http://sodipodi.sourceforge.net/DTD/sodipodi-0.dtd"
   xmlns:xlink="http://www.w3.org/1999/xlink"
   xmlns="http://www.w3.org/2000/svg"
   xmlns:svg="http://www.w3.org/2000/svg"
   xmlns:rdf="http://www.w3.org/1999/02/22-rdf-syntax-ns#"
   xmlns:cc="http://creativecommons.org/ns#"
   xmlns:dc="http://purl.org/dc/elements/1.1/">
  <sodipodi:namedview
     id="namedview732"
     pagecolor="#ffffff"
     bordercolor="#000000"
     borderopacity="0.25"
     inkscape:showpageshadow="2"
     inkscape:pageopacity="0.0"
     inkscape:pagecheckerboard="0"
     inkscape:deskcolor="#d1d1d1"
     showgrid="false"
     inkscape:zoom="0.58902182"
     inkscape:cx="317.47551"
     inkscape:cy="404.05973"
     inkscape:window-width="1920"
     inkscape:window-height="1017"
     inkscape:window-x="-8"
     inkscape:window-y="-8"
     inkscape:window-maximized="1"
     inkscape:current-layer="svg730" />
  <defs
     id="defs55">
    <clipPath
       id="clip-path">
      <rect
         x="2.5676999"
         y="-4.1897001"
         width="2044.2332"
         height="1429.7129"
         style="fill:none"
         id="rect2" />
    </clipPath>
    <clipPath
       id="clip-path-2">
      <rect
         x="0.31079999"
         y="0.2085"
         width="2046.49"
         height="1418.5383"
         style="fill:none"
         id="rect5" />
    </clipPath>
    <clipPath
       id="clip-path-3">
      <rect
         x="0.4914"
         y="0.2085"
         width="2046.49"
         height="1418.5383"
         style="fill:none"
         id="rect8" />
    </clipPath>
    <linearGradient
       id="_ÂÁ_Ï_ÌÌ_È_ËÂÌÚ_30"
       x1="973.72803"
       y1="217.1114"
       x2="1279.8972"
       y2="405.211"
       gradientUnits="userSpaceOnUse">
      <stop
         offset="0.1606"
         stop-color="#772d28"
         id="stop11" />
      <stop
         offset="0.3449"
         stop-color="#8e3930"
         id="stop13" />
      <stop
         offset="1"
         stop-color="#d2603c"
         id="stop15" />
    </linearGradient>
    <linearGradient
       id="_ÂÁ_Ï_ÌÌ_È_ËÂÌÚ_33"
       x1="975.55811"
       y1="312.90219"
       x2="1143.3853"
       y2="444.72739"
       gradientUnits="userSpaceOnUse">
      <stop
         offset="0.0135"
         stop-color="#772d28"
         id="stop18" />
      <stop
         offset="0.1554"
         stop-color="#7d302a"
         id="stop20" />
      <stop
         offset="0.5915"
         stop-color="#8a372e"
         id="stop22" />
      <stop
         offset="1"
         stop-color="#8e3930"
         id="stop24" />
    </linearGradient>
    <linearGradient
       id="_ÂÁ_Ï_ÌÌ_È_ËÂÌÚ_30-2"
       x1="828.7381"
       y1="472.54099"
       x2="1247.8842"
       y2="730.0495"
       xlink:href="#_%C3%82%C3%81_%C3%8F_%C3%8C%C3%8C_%C3%88_%C3%8B%C3%82%C3%8C%C3%9A_30" />
    <linearGradient
       id="_ÂÁ_Ï_ÌÌ_È_ËÂÌÚ_30-3"
       x1="937.97528"
       y1="496.49539"
       x2="737.89569"
       y2="766.1582"
       xlink:href="#_%C3%82%C3%81_%C3%8F_%C3%8C%C3%8C_%C3%88_%C3%8B%C3%82%C3%8C%C3%9A_30" />
    <linearGradient
       id="_ÂÁ_Ï_ÌÌ_È_ËÂÌÚ_12"
       x1="1231.5668"
       y1="673.64398"
       x2="1270.8306"
       y2="1060.5385"
       gradientUnits="userSpaceOnUse">
      <stop
         offset="0.2666"
         stop-color="#bb492f"
         id="stop29" />
      <stop
         offset="0.8134"
         stop-color="#a03c2b"
         id="stop31" />
    </linearGradient>
    <linearGradient
       id="_ÂÁ_Ï_ÌÌ_È_ËÂÌÚ_10"
       x1="886.21033"
       y1="1079.295"
       x2="886.21033"
       y2="558.34888"
       gradientUnits="userSpaceOnUse">
      <stop
         offset="0.1829"
         stop-color="#bb492f"
         id="stop34" />
      <stop
         offset="0.8134"
         stop-color="#d2603c"
         id="stop36" />
    </linearGradient>
    <linearGradient
       id="_ÂÁ_Ï_ÌÌ_È_ËÂÌÚ_10-2"
       x1="664.55438"
       y1="1079.3604"
       x2="664.55438"
       y2="558.34888"
       xlink:href="#_%C3%82%C3%81_%C3%8F_%C3%8C%C3%8C_%C3%88_%C3%8B%C3%82%C3%8C%C3%9A_10" />
    <linearGradient
       id="_ÂÁ_Ï_ÌÌ_È_ËÂÌÚ_12-2"
       x1="-2274.3308"
       y1="-526.58221"
       x2="-1997.9337"
       y2="-526.58221"
       gradientTransform="rotate(136.2115,-523.83111,697.56738)"
       xlink:href="#_%C3%82%C3%81_%C3%8F_%C3%8C%C3%8C_%C3%88_%C3%8B%C3%82%C3%8C%C3%9A_12" />
    <linearGradient
       id="_ÂÁ_Ï_ÌÌ_È_ËÂÌÚ_12-3"
       x1="1105.3553"
       y1="554.34039"
       x2="1383.4994"
       y2="554.34039"
       xlink:href="#_%C3%82%C3%81_%C3%8F_%C3%8C%C3%8C_%C3%88_%C3%8B%C3%82%C3%8C%C3%9A_12" />
    <linearGradient
       id="_ÂÁ_Ï_ÌÌ_È_ËÂÌÚ_12-4"
       x1="1230.0594"
       y1="673.56873"
       x2="1269.3973"
       y2="1061.1914"
       xlink:href="#_%C3%82%C3%81_%C3%8F_%C3%8C%C3%8C_%C3%88_%C3%8B%C3%82%C3%8C%C3%9A_12" />
    <linearGradient
       id="_ÂÁ_Ï_ÌÌ_È_ËÂÌÚ_10-3"
       x1="884.05292"
       y1="1079.9833"
       x2="884.05292"
       y2="558.05652"
       xlink:href="#_%C3%82%C3%81_%C3%8F_%C3%8C%C3%8C_%C3%88_%C3%8B%C3%82%C3%8C%C3%9A_10" />
    <linearGradient
       id="_ÂÁ_Ï_ÌÌ_È_ËÂÌÚ_7"
       x1="762.54498"
       y1="654.6286"
       x2="1312.0504"
       y2="246.0475"
       gradientUnits="userSpaceOnUse">
      <stop
         offset="0.2801"
         stop-color="#e27244"
         id="stop44" />
      <stop
         offset="0.8134"
         stop-color="#f2794e"
         id="stop46" />
    </linearGradient>
    <radialGradient
       id="radial-gradient"
       cx="223.35091"
       cy="410.99951"
       r="59.925201"
       gradientTransform="matrix(1,0,0,-1,0,1422)"
       gradientUnits="userSpaceOnUse">
      <stop
         offset="0"
         stop-color="#ff6163"
         id="stop49" />
      <stop
         offset="1"
         stop-color="#c62020"
         id="stop51" />
    </radialGradient>
    <radialGradient
       id="radial-gradient-2"
       cx="160.0694"
       cy="217.8264"
       r="67.1362"
       xlink:href="#radial-gradient" />
    <linearGradient
       id="_ÂÁ_Ï_ÌÌ_È_ËÂÌÚ_12-3-6"
       x1="1105.3553"
       y1="554.34039"
       x2="1383.4994"
       y2="554.34039"
       xlink:href="#_%C3%82%C3%81_%C3%8F_%C3%8C%C3%8C_%C3%88_%C3%8B%C3%82%C3%8C%C3%9A_12" />
    <linearGradient
       id="_ÂÁ_Ï_ÌÌ_È_ËÂÌÚ_12-4-2"
       x1="1230.0594"
       y1="673.56873"
       x2="1269.3973"
       y2="1061.1914"
       xlink:href="#_%C3%82%C3%81_%C3%8F_%C3%8C%C3%8C_%C3%88_%C3%8B%C3%82%C3%8C%C3%9A_12" />
    <linearGradient
       id="_ÂÁ_Ï_ÌÌ_È_ËÂÌÚ_10-3-2"
       x1="884.05292"
       y1="1079.9833"
       x2="884.05292"
       y2="558.05652"
       xlink:href="#_%C3%82%C3%81_%C3%8F_%C3%8C%C3%8C_%C3%88_%C3%8B%C3%82%C3%8C%C3%9A_10" />
    <linearGradient
       id="_ÂÁ_Ï_ÌÌ_È_ËÂÌÚ_7-8"
       x1="762.54498"
       y1="654.6286"
       x2="1312.0504"
       y2="246.0475"
       gradientUnits="userSpaceOnUse">
      <stop
         offset="0.2801"
         stop-color="#e27244"
         id="stop44-1" />
      <stop
         offset="0.8134"
         stop-color="#f2794e"
         id="stop46-6" />
    </linearGradient>
  </defs>
  <title
     id="title57">sinaisthimata-2</title>
  <metadata
     id="metadata6646">
    <rdf:RDF>
      <cc:Work
         rdf:about="">
        <dc:title>sinaisthimata-2</dc:title>
      </cc:Work>
    </rdf:RDF>
  </metadata>
  <g
     id="box_closed"
     data-name="box closed"
     transform="matrix(0.99729489,0,0,0.99729489,-659.58515,-199.04677)"
     style="display:inline">
    <path
       d="m 1383.4994,559.6925 -278.143,116.1657 c 0,0 -1.6361,-211.0614 129.2547,-238.8758 146.5132,-31.1338 148.8883,122.7101 148.8883,122.7101 z"
       style="fill:url(#_%C3%82%C3%81_%C3%8F_%C3%8C%C3%8C_%C3%88_%C3%8B%C3%82%C3%8C%C3%9A_12-3-6)"
       id="path394" />
    <polygon
       points="1106.142,1079.983 1383.499,950.729 1383.499,558.056 1106.142,674.222 "
       style="fill:url(#_%C3%82%C3%81_%C3%8F_%C3%8C%C3%8C_%C3%88_%C3%8B%C3%82%C3%8C%C3%9A_12-4-2)"
       id="polygon396" />
    <path
       d="m 1355.4559,601.8729 c -8.6141,3.6987 -241.93,98.9784 -241.93,98.9784 l 10.107,345.748 35.9667,-15.5068 c 0,0 -0.596,-246.6146 70.6384,-297.0873 67.2587,-47.6554 129.7857,10.4775 129.7857,10.4775 z"
       style="opacity:0.21;fill:#7f261e"
       id="path398" />
    <polygon
       points="1383.499,939.575 1383.499,894.804 1106.198,1022.981 1106.198,1068.947 "
       style="fill:#c66d0c"
       id="polygon400" />
    <polygon
       points="1345.992,573.52 1345.992,967.515 1374.036,954.447 1374.036,561.774 "
       style="fill:#c66d0c"
       id="polygon402" />
    <polygon
       points="1355.456,569.802 1355.456,963.798 1383.499,950.729 1383.499,558.056 "
       style="fill:#e08814"
       id="polygon404" />
    <polygon
       points="1106.142,1079.983 1141.123,1063.681 1141.123,659.571 1106.142,674.222 "
       style="fill:#e08814"
       id="polygon406" />
    <polygon
       points="661.964,911.462 1106.142,1079.983 1106.142,674.222 662.036,558.056 "
       style="fill:url(#_%C3%82%C3%81_%C3%8F_%C3%8C%C3%8C_%C3%88_%C3%8B%C3%82%C3%8C%C3%9A_10-3-2)"
       id="polygon408" />
    <path
       d="m 1274.2085,432.8491 -360.28,-61.3119 c -34.3588,-6.5446 -83.2024,-13.9029 -121.074,-3.2723 -93.26,26.1781 -120.9515,126.6528 -130.8908,191.4276 l 443.3924,116.1657 c 0,0 -1.6361,-211.0614 129.2547,-238.8758 3.4939,-0.7424 39.5977,-4.1333 39.5977,-4.1333 z"
       style="fill:url(#_%C3%82%C3%81_%C3%8F_%C3%8C%C3%8C_%C3%88_%C3%8B%C3%82%C3%8C%C3%9A_7-8)"
       id="path410" />
    <path
       d="m 967.9626,737.3851 c 91.3619,56.3835 112.9689,298.9935 112.9689,298.9935 V 607.8412 c 0,0 -221.4615,-56.3469 -274.1869,-73.584 -52.7254,-17.2371 -60.6441,-44.9 -37.854,-89.2275 30.7563,-59.8231 130.0839,-76.2 130.0839,-76.2 l -92.9059,-3.5646 c 0,0 -83.82,47.6557 -109.4841,110.4394 -25.6641,62.7837 -9.5365,430.2528 -9.5365,430.2528 l 388.7313,140.006 v -32.1081 c 0,0 -279.2383,-127.6275 -320.0701,-158.852 -34.4744,-26.3626 -25.3487,-106.1265 -25.9353,-200.7574 74.1361,21.0121 197.7461,58.1804 238.1887,83.1393 z"
       style="opacity:0.33;fill:#7f261e"
       id="path412" />
    <path
       d="m 838.5152,429.82 c -33.6763,24.9259 -32.7846,70.6385 35.9424,91.3278 44.2079,13.3079 231.5487,46.5088 231.5487,46.5088 l 87.729,-130.0629 -225.9379,-35.3387 c 0,0 -86.3584,-4.205 -129.2822,27.565 z"
       style="opacity:0.08;fill:#ffffff"
       id="path414" />
    <path
       d="m 832.8018,641.311 -0.0254,63.2 a 24.0344,24.0344 0 0 0 16.85,22.9454 l 27.9308,8.7487 a 24.0343,24.0343 0 0 0 31.2185,-22.9357 v -50.2646 z"
       style="fill:#c66d0c"
       id="path416" />
    <polygon
       points="669.738,561.288 669.738,914.503 704.358,927.638 704.358,570.153 669.769,561.107 "
       style="fill:#c66d0c"
       id="polygon418" />
    <path
       d="m 1236.7743,447.9634 c -114.6062,33.5808 -108.5662,218.351 -108.5662,218.351 l 210.1841,-92.8512 c 0,0 -105.1122,21.9688 -105.1122,-22.9827 0,-76.7192 71.5171,-93.4053 71.5171,-93.4053 0,0 -18.7923,-23.5369 -68.0228,-9.1118 z"
       style="opacity:0.21;fill:#7f261e"
       id="path420" />
    <polygon
       points="1106.142,1079.983 1141.123,1063.681 1141.123,659.571 1106.142,674.222 "
       style="fill:#e08814"
       id="polygon422" />
    <path
       d="m 1234.6111,436.9826 c -130.8908,27.8142 -129.7653,241.2553 -129.7653,241.2553 l 278.6536,-118.5452 v -1.6362 C 1382.7367,541.6718 1372.2217,407.74 1234.6111,436.9826 Z m 6.1138,23.6647 c 112.9009,-24.856 114.731,88.1491 114.731,88.1491 l -214.3328,89.4689 c 0,0 -1.2608,-155.4124 99.6018,-177.618 z"
       style="fill:#e08814"
       id="path424" />
    <path
       d="m 1240.7249,460.6473 c -100.8626,22.2056 -99.6018,177.618 -99.6018,177.618 l 214.3328,-89.4689 c 0,0 -1.8301,-113.0051 -114.731,-88.1491 z m 0.2017,6.3507 c 96.5258,-21.061 104.7126,78.5345 104.7126,78.5345 l -197.9722,83.4429 c 0,0 7.0261,-143.1617 93.2596,-161.9774 z"
       style="fill:#c66d0c"
       id="path426" />
    <path
       d="m 1106.1418,636.2563 v 33.8354 L 671.7807,552.9605 c 0,0 2.8634,-28.19 3.78,-32.3953 z"
       style="fill:#e08814"
       id="path428" />
    <polygon
       points="661.964,902.217 1106.198,1070.975 1106.198,1025.009 661.964,861.565 "
       style="fill:#c66d0c"
       id="polygon430" />
    <polygon
       points="1075.905,666.314 1075.905,1068.511 1106.142,1079.983 1106.142,674.222 "
       style="fill:#ffa727"
       id="polygon432" />
    <polygon
       points="661.964,595.328 1106.198,722.176 1106.198,672.492 662.036,558.056 "
       style="fill:#ffa727"
       id="polygon434" />
    <polygon
       points="661.964,911.343 1106.198,1080.1 1106.198,1034.134 661.964,870.691 "
       style="fill:#ffa727"
       id="polygon436" />
    <path
       d="m 827.2136,377.8381 c 17.0725,-5.9816 58.1518,-8.7953 71.7609,-9.008 -30.7277,-4.6383 -70.1565,-5.5507 -99.5751,2.7071 -93.26,26.1782 -121.18,123.9457 -131.12,188.7207 l 32.7228,8.1808 c 3.9049,-38.5181 21.9259,-154.0623 126.2114,-190.6006 z"
       style="fill:#e08814"
       id="path438" />
    <polygon
       points="661.964,558.31 661.964,911.462 696.585,924.597 696.585,567.111 662.024,558.065 "
       style="fill:#ffa727"
       id="polygon440" />
    <path
       d="m 1106.7635,674.7873 -0.6217,11.6655 -8.1388,-2.1911 L 661.964,566.864 a 20.2762,20.2762 0 0 1 -0.0746,-8.2021 z"
       style="fill:#e08814"
       id="path442" />
    <path
       d="m 1232.1866,425.6979 c -16.0884,1.6817 -135.2016,-2.66 -154.5816,209.5784 L 697.229,534.98 c 10.7685,-51.1508 40.675,-131.4133 123.44,-160.4074 17.065,-5.9883 54.7613,-7.1171 68.3742,-7.33 -30.7268,-4.63 -66.7706,-7.2318 -96.1884,1.0143 -78.7609,22.1125 -110.7471,97.197 -124.7756,159.0369 l -6.2326,31.5846 444.0807,116.7537 c 16.76,-256.45 159.2677,-242.6126 183.3959,-241.6108 z"
       style="fill:#ffa727"
       id="path444" />
    <polygon
       points="1106.198,686.35 1383.499,568.864 1383.499,559.693 1106.198,676.886 "
       style="fill:#c66d0c"
       id="polygon446" />
    <polygon
       points="1383.499,568.864 1383.499,602.111 1106.198,722.176 1106.198,686.35 "
       style="fill:#e08814"
       id="polygon448" />
    <polygon
       points="1383.499,950.729 1383.499,905.958 1106.198,1034.134 1106.198,1080.1 "
       style="fill:#e08814"
       id="polygon450" />
    <path
       d="m 823,641.311 -0.0254,63.2 a 24.0344,24.0344 0 0 0 16.85,22.9454 l 27.9307,8.7487 a 24.0344,24.0344 0 0 0 31.2185,-22.9357 v -50.2646 z"
       style="fill:#ffa727"
       id="path452" />
    <path
       d="m 869.8122,719.783 -7.4091,-32.6283 c 4.2117,-0.3837 7.4647,-4.0524 7.7542,-9.4276 0.3627,-6.7413 -4.0661,-13.4507 -9.8065,-14.9432 -5.6465,-1.468 -10.4165,2.6864 -10.7361,9.2389 a 15.7236,15.7236 0 0 0 6.1421,13.1046 l -9.8737,26.5711 z"
       style="fill:#c66d0c"
       id="path454" />
    <path
       d="m 806.0686,365.2655 c 0,0 -0.0515,0.0294 -0.15,0.0861 0.1487,-0.0256 0.2984,-0.05 0.4476,-0.0745 z"
       style="opacity:0.33;fill:#7f261e"
       id="path456" />
    <path
       d="m 898.9745,368.83 -0.0466,-0.002 0.0282,0.005 z"
       style="opacity:0.33;fill:#7f261e"
       id="path458" />
  </g>
</svg>
