<svg xmlns="http://www.w3.org/2000/svg" width="67.1666" height="63.5395" viewBox="0 0 67.1666 63.5395"><title>BxojUi.tif</title><g id="Layer_2" data-name="Layer 2"><g id="photo_pop_up" data-name="photo pop up"><g id="BxojUi.tif"><path d="M37.5149,0a35.1559,35.1559,0,0,1,13.74,5.2085A31.6345,31.6345,0,0,1,62.7821,18.936c.9,2.0478.2968,2.9918-1.9534,3.0242-2.235.0322-4.4741-.0658-6.7052.0332a3.527,3.527,0,0,1-3.29-1.8765A20.7662,20.7662,0,0,0,18.5,17.5363c-1.583,1.666-1.5738,1.7685.4455,2.7937,1.2319.6255,2.4273,1.2339,2.4609,2.897.0336,1.6582-1.13,2.3117-2.3295,3.0057-4.4286,2.5631-8.831,5.1719-13.2663,7.7233-2.4879,1.4312-4.3845.5556-4.633-2.2509Q.463,23.63.01,15.5323c-.1652-3,1.7525-4.1189,4.4783-2.78a9.0339,9.0339,0,0,1,1.2462.66c.8923.629,1.5195.5165,2.1958-.4054A31.5778,31.5778,0,0,1,29.4216.1292,1.5639,1.5639,0,0,0,29.7489,0Z" style="fill:#8f63bc"/><path d="M30.4549,63.54a34.6036,34.6036,0,0,1-14.4384-5.2848A31.8991,31.8991,0,0,1,4.4724,44.5411c-.9261-2.0762-.3588-2.9621,1.94-2.9891,2.2937-.027,4.59.0492,6.8812-.0279a3.0762,3.0762,0,0,1,2.8959,1.5691c4.478,6.5317,10.72,9.7422,18.6315,9.3663a20.0114,20.0114,0,0,0,14.3525-6.9924c.8632-.9618.8432-1.5824-.4277-2.0223a5.0269,5.0269,0,0,1-.472-.2382c-1.2575-.5918-2.4917-1.2674-2.5632-2.852-.0724-1.6035,1.1427-2.3156,2.345-3.0136,4.3739-2.5393,8.7305-5.1081,13.1015-7.6522,2.8879-1.6809,4.7427-.6847,4.9962,2.6859.2731,3.6321.5141,7.2666.7831,10.899a10.2457,10.2457,0,0,0,.23,1.2039v5.295c-1.54,1.787-2.3573,1.9306-4.5865.8052-2.3322-1.1773-2.3375-1.1815-3.8868.7862a32.9219,32.9219,0,0,1-7.472,6.9A34.4581,34.4581,0,0,1,36.8089,63.54Z" style="fill:#8f63bc"/></g></g></g></svg>