<svg xmlns="http://www.w3.org/2000/svg" width="61.8853" height="61.8943" viewBox="0 0 61.8853 61.8943"><title>save-icon</title><g id="Layer_2" data-name="Layer 2"><g id="photo_pop_up" data-name="photo pop up"><g id="_8YT35B" data-name="8YT35B"><path d="M30.97,61.8588c-8.83-.0008-17.66-.0638-26.4884.0351A4.1007,4.1007,0,0,1,0,57.45C.0706,39.726.035,22.002.0368,4.2781.037,1.47,1.4625.03,4.2521.0216,7.5187.0124,10.7858.0475,14.0517,0c.9451-.0136,1.2245.3218,1.22,1.2347-.0292,5.5952-.0156,11.1906-.0127,16.7859.0009,1.7176.4619,2.1768,2.2,2.1774q13.5354.0046,27.0709.0006c1.6931-.0006,2.1126-.4179,2.1149-2.1264q.0111-8.3445.0062-16.6889c.0007-1.3424.02-1.3613,1.346-1.3647,1.6172-.004,3.2348.0218,4.8513-.0106a2.1917,2.1917,0,0,1,1.715.7223c2.1546,2.187,4.3107,4.3734,6.5165,6.508a2.4792,2.4792,0,0,1,.8059,1.9626q-.0291,11.4978-.0114,22.9958,0,12.6622-.0005,25.3244c-.0012,2.9694-1.36,4.3352-4.3173,4.3366Q44.2631,61.8643,30.97,61.8588ZM30.9536,26.5q-10.2348,0-20.47.001c-1.9884.0008-2.356.3711-2.3568,2.4046q-.0051,14.261.0009,28.5219c.0006,1.6428.5164,2.1764,2.1247,2.1768q20.7123.0061,41.4246,0c1.5478,0,2.1032-.5591,2.1038-2.1059q.0057-14.3578.0013-28.7159C53.7819,26.8866,53.3935,26.5,51.52,26.5Q41.237,26.4964,30.9536,26.5ZM57.7714,54.3689c2.41-.04,2.2366.4268,2.2255-2.222,0-.0323-.0034-.0646-.0036-.0969a.6435.6435,0,0,0-.7292-.7093q-1.4051-.01-2.81-.0007a.72.72,0,0,0-.7791.6874c-.352,1.9781-.0642,2.3421,1.9027,2.3415Z" style="fill:#8f63bc"/><path d="M34.0628,10.1576c.0013-2.0351.0143-4.07-.0059-6.1052-.0068-.6811.19-.9729.9488-.9513,1.969.0562,3.941.0459,5.9108.01.7719-.0139,1.1137.2241,1.1092,1.0406q-.0333,6.1051.0005,12.2105c.0031.6536-.2395.9616-.8914.9594-2.1314-.0073-4.2628-.007-6.3942-.0146-.7467-.0027-.67-.578-.6729-1.0443C34.0532,14.2279,34.0615,12.1927,34.0628,10.1576Z" style="fill:#8f63bc"/><path d="M30.9337,40.0942q-7.3172,0-14.6342-.0015c-1.272-.0009-1.2969-.0306-1.3016-1.3064-.0037-.9691.0178-1.9387-.0039-2.9073-.0137-.6121.2406-.9064.856-.8836.1612.0059.323-.004.4845-.004q14.6341,0,29.2683.0019c1.2653,0,1.3012.0436,1.3084,1.3094q.0072,1.26.0013,2.52c-.0068,1.21-.0581,1.2691-1.2478,1.27Q38.2992,40.099,30.9337,40.0942Z" style="fill:#8f63bc"/><path d="M30.9828,50.9979c-4.9144,0-9.8289-.0238-14.7429.02-.9924.0089-1.3264-.3174-1.2575-1.2844.0687-.9651.0274-1.9389.0161-2.9086-.0068-.573.2555-.8344.8228-.8106.1935.0081.3878-.0028.5818-.0028q14.5491,0,29.0982.0016c1.4039,0,1.4054.0035,1.41,1.391.0031.8729-.0276,1.7471.01,2.6184.0316.7384-.2109,1.0076-1.0017,1.0019-4.9787-.036-9.9579-.0183-14.9369-.0183Z" style="fill:#8f63bc"/></g></g></g></svg>