<svg xmlns="http://www.w3.org/2000/svg" width="64.9992" height="64.9946" viewBox="0 0 64.9992 64.9946"><title>qnbq9P</title><g id="Layer_2" data-name="Layer 2"><g id="photo_pop_up" data-name="photo pop up"><g id="qnbq9P"><path d="M61.69,24.2663c.4394,0,.8787.0012,1.3181-.0007a1.2038,1.2038,0,0,1,.4321.0632,1.0367,1.0367,0,0,1,.6873.7733c.0942.4058.1849.8127.2645,1.2216.1679.8624.3085,1.73.3984,2.6037.076.7387.1445,1.4783.1663,2.2224.0148.5063.049,1.0122.0411,1.5191-.012.7655-.0533,1.5295-.1074,2.2935-.0668.9445-.1858,1.8818-.3368,2.8157a31.865,31.865,0,0,1-.8812,3.8506,32.4523,32.4523,0,0,1-2.4844,6.0906,32.91,32.91,0,0,1-1.7345,2.8985c-.0813.1217-.1627.2443-.2554.3572a1.0349,1.0349,0,0,1-1.6186.0093,2.4268,2.4268,0,0,1-.2394-.3672q-1.1025-1.9581-2.2011-3.9183-1.49-2.6512-2.98-5.302-1.48-2.6371-2.9577-5.276-1.29-2.2981-2.5858-4.5936Q45.3241,29.23,44.0365,26.93c-.1323-.2358-.2643-.4717-.3935-.7092a2.7416,2.7416,0,0,1-.1314-.2739,1.0458,1.0458,0,0,1,.8817-1.41c.0562-.0041.1126-.0044.1689-.0063,1.6662-.0579,3.3338-.0362,5-.0745,1.8132-.0417,3.6272-.0231,5.44-.0741,1.5431-.0434,3.0861-.0244,4.6286-.0613C60.317,24.3046,61.0032,24.2719,61.69,24.2663Z" style="fill:#8f63bc"/><path d="M32.4358,64.9881c-.6717.0314-1.4347-.0606-2.2-.0754a2.5036,2.5036,0,0,1-.4352-.0553,1.0408,1.0408,0,0,1-.7506-1.4843c.0955-.2031.2191-.3933.334-.587q1.9746-3.3273,3.9505-6.6538,1.2332-2.0777,2.4645-4.1564,2.4141-4.0685,4.8291-8.1363Q42.05,41.442,43.47,39.0431c.0459-.0774.0907-.1561.1436-.2288a1.0609,1.0609,0,0,1,1.7485.0613q.7023,1.1747,1.4054,2.3488,1.3079,2.1906,2.6141,4.382,2.0249,3.3957,4.049,6.7919.6918,1.1612,1.3811,2.3238c.046.0775.0949.1538.1332.235a1.0182,1.0182,0,0,1-.1745,1.1609c-.1375.1486-.2862.2875-.4367.4231a33.1973,33.1973,0,0,1-5.8447,4.2333,32.475,32.475,0,0,1-5.9574,2.6249,31.4655,31.4655,0,0,1-4.8558,1.1714c-.8447.1339-1.6929.2441-2.5478.3039C34.2632,64.935,33.3989,64.9967,32.4358,64.9881Z" style="fill:#8f63bc"/><path d="M32.4683.0035c.3942,0,.7887-.0093,1.1826.0025.4274.0129.8543.0432,1.2812.071a1.6771,1.6771,0,0,1,.2992.0516,1.0307,1.0307,0,0,1,.727,1.3736,1.6782,1.6782,0,0,1-.1645.3322Q34.589,3.8695,33.3805,5.9025q-2.4052,4.0533-4.81,8.1067-1.7755,2.993-3.55,5.9865-1.6892,2.8479-3.3788,5.6953c-.08.1356-.1568.274-.2438.4053a1.04,1.04,0,0,1-1.7606.0313c-.2055-.2952-.3784-.6132-.5632-.9226q-1.732-2.9008-3.4628-5.8027-2.1027-3.5256-4.2043-7.0519-.6315-1.0595-1.26-2.12a1.7049,1.7049,0,0,1-.1148-.2065A1.0446,1.0446,0,0,1,10.2,8.8576a4.31,4.31,0,0,1,.3616-.3547,32.85,32.85,0,0,1,4.7567-3.61c.8993-.56,1.8213-1.0792,2.7715-1.5479A32.4733,32.4733,0,0,1,28.5937.2171C29.23.14,29.87.0933,30.5105.0477,31.1633.0012,31.8155.0011,32.4683.0035Z" style="fill:#8f63bc"/><path d="M.0088,32.472c0-.4055-.0047-.8111.001-1.2166.0114-.8114.0958-1.6174.1813-2.4237a32.2378,32.2378,0,0,1,.626-3.66c.1579-.7039.3484-1.399.5581-2.0886a32.4865,32.4865,0,0,1,4.2981-8.9506,1.2143,1.2143,0,0,1,.3237-.34,1.0381,1.0381,0,0,1,1.48.3035c.1863.2949.3491.6046.52.909q1.1253,2.0034,2.2493,4.0074,1.473,2.6219,2.9476,5.2428,1.299,2.3127,2.5957,4.6267,1.4728,2.622,2.9476,5.2429,1.2825,2.2831,2.5622,4.568c.05.0883.0964.1785.1391.27a1.06,1.06,0,0,1-.8585,1.48c-.0782.0083-.1575.0077-.2363.0084-.2816.0024-.5634-.0023-.8449.0062-1.9592.0593-3.92.0318-5.8786.0825-1.5543.04-3.1091.0109-4.6622.0629-1.6668.0558-3.3339.0275-5,.0695-.5965.015-1.1929.0341-1.79.0411-.0676.0008-.1352.0021-.2028.0009a1.0887,1.0887,0,0,1-1.1382-.9088C.6376,38.9939.47,38.1769.3547,37.3513.2579,36.66.1667,35.9677.1025,35.273a19.9637,19.9637,0,0,1-.1011-2.1251c.0033-.2252.0006-.4506.0006-.6759Z" style="fill:#8f63bc"/><path d="M6.2007,44.972c.5521,0,1.1048-.0171,1.6562.0031,1.9822.0725,3.9659.0152,5.9476.0731,1.78.052,3.56.0109,5.3393.0628,2.005.0585,4.011.0157,6.0152.072,1.8249.0512,3.65.0277,5.4746.06.6192.0109,1.2383.0362,1.8576.044a1.04,1.04,0,0,1,.9125,1.503c-.1759.3649-.3823.7153-.58,1.0693q-1.7469,3.1278-3.4963,6.254-1.5342,2.7432-3.0692,5.4859-.9488,1.6959-1.8969,3.3923a1.3093,1.3093,0,0,1-.26.3512,1.0058,1.0058,0,0,1-.9358.2628c-.1207-.0274-.24-.06-.3584-.0978a33.6676,33.6676,0,0,1-3.8147-1.4657,32.6032,32.6032,0,0,1-8.2465-5.413q-1.1062-.9966-2.1191-2.0858a31.6169,31.6169,0,0,1-2.5023-3.0587,34.0014,34.0014,0,0,1-2.758-4.5664c-.0763-.1506-.14-.3074-.2144-.4592a1.0486,1.0486,0,0,1,.987-1.5072q.7775.0029,1.5549.007c.169.0007.338,0,.507,0Z" style="fill:#8f63bc"/><path d="M59.3385,20.03c-2.1252-.0763-4.4017-.0361-6.6764-.09-1.8813-.0444-3.763-.0078-5.6433-.0643-1.9262-.0579-3.8532-.011-5.7784-.0688-1.8812-.0565-3.7629-.0146-5.6433-.0671-1.0137-.0282-2.0271-.0341-3.0408-.0442a1.06,1.06,0,0,1-.8128-.35.9843.9843,0,0,1-.1978-1.126,4.7159,4.7159,0,0,1,.22-.4185q.93-1.6678,1.861-3.3348,1.0143-1.8142,2.0306-3.6275.8826-1.578,1.7637-3.1569.8573-1.5341,1.715-3.0679.7176-1.2831,1.4363-2.5655a2.0565,2.0565,0,0,1,.1567-.26,1.0286,1.0286,0,0,1,1.1015-.4147c.1537.0337.3047.0815.455.1292a32.3037,32.3037,0,0,1,4.9351,2.023,33.0223,33.0223,0,0,1,5.7154,3.7123q1.2109.9776,2.32,2.0676a32.6128,32.6128,0,0,1,6.5024,9.0763,1.3756,1.3756,0,0,1,.1525.5141,1.04,1.04,0,0,1-1.0035,1.1306c-.09.0036-.18.0026-.27.0026C60.2544,20.03,59.8714,20.03,59.3385,20.03Z" style="fill:#8f63bc"/></g></g></g></svg>