<?xml version="1.0" encoding="UTF-8"?>
<svg version="1.1" viewBox="0 0 132.75 40.167" xmlns="http://www.w3.org/2000/svg" xmlns:xlink="http://www.w3.org/1999/xlink">
 <title>09_water</title>
 <g id="_1-button-diapnoi" transform="translate(-1265.6 -514.89)" style="isolation:isolate" data-name="1-button-diapnoi">
  <rect x="1268.3" y="518.77" width="130" height="32.379" rx="15.249" fill="#fff"/>
  <circle cx="1285.6" cy="534.97" r="18.584" fill="#2e3192"/>
  <circle cx="1285.6" cy="534.97" r="18.584" fill="none" stroke="#fff" stroke-miterlimit="10" stroke-width="3px"/>
  <g fill="#2e3192">
   <path d="m1309.6 541.18 5.375-12.288h2.9053l5.3584 12.288zm4.5381-2.8027h4.4941l-2.2216-5.5117-0.034 0.0175z"/>
   <path d="m1324.3 541.18v-8.9805h3.0762v8.9805z"/>
   <path d="m1328.9 536.69a5.9857 5.9857 0 0 1 0.3331-2.0679 3.8642 3.8642 0 0 1 0.9052-1.47 3.927 3.927 0 0 1 2.8028-1.1367 3.0741 3.0741 0 0 1 2.4951 1.0683h0.043v-1.0166h3.0079v9.1172h-3.0079v-0.8887h-0.043a2.9006 2.9006 0 0 1-2.4434 1.085 3.8435 3.8435 0 0 1-3.751-2.6318 5.7345 5.7345 0 0 1-0.3418-2.0588zm3.5625 1.4868a1.7574 1.7574 0 0 0 1.333 0.5381 1.707 1.707 0 0 0 1.2823-0.5552 2.3558 2.3558 0 0 0 0-2.9565 1.7011 1.7011 0 0 0-1.2823-0.5469 1.7687 1.7687 0 0 0-1.3076 0.564 2.3127 2.3127 0 0 0-0.025 2.9565z"/>
   <path d="m1340.4 541.18v-8.9805h8.4169v8.9805h-3.0669v-6.4426h-2.2735v6.4429z"/>
   <path d="m1349.9 532.2h3.2725l1.8379 5.2891h0.033l1.8633-5.2891h3.1953l-3.58 9.0323h-3.0332z"/>
   <path d="m1361.7 533.33a4.8741 4.8741 0 0 1 3.5205-1.3164 4.8241 4.8241 0 0 1 3.4951 1.3164 4.8177 4.8177 0 0 1-0.01 6.7334 5.3348 5.3348 0 0 1-7.0156 0 4.8177 4.8177 0 0 1 0.01-6.7334zm2.2051 4.8017a1.6539 1.6539 0 0 0 1.3154 0.5811 1.61 1.61 0 0 0 1.2988-0.5635 2.4377 2.4377 0 0 0-0.025-2.914 1.7449 1.7449 0 0 0-2.6153-0.0171 2.2547 2.2547 0 0 0-0.4785 1.47 2.1394 2.1394 0 0 0 0.5049 1.4436z"/>
   <path d="m1371.5 541.18v-8.9805h3.06v0.8628h0.034a3.1068 3.1068 0 0 1 2.4355-1.0512 2.9962 2.9962 0 0 1 2.2041 0.8886 3.4937 3.4937 0 0 1 0.8721 2.5381v9.0664h-3.0595v-8.3315c0-0.9829-0.5557-1.5381-1.2471-1.5381-0.752 0-1.2393 0.5386-1.2393 1.5723v4.9731zm3.41-10.1 1.8535-3.2895 2.5547 1.102-2.3408 2.1875z"/>
  </g>
  <g fill="#fff">
   <path d="m1284.5 527.3c-12.423 9.3457-12.388 5.99 0 15.322a1.4776 1.4776 0 0 0 2.3133-1.3091v-12.704a1.4777 1.4777 0 0 0-2.3133-1.3091z"/>
   <path d="m1289.8 530.38c0.1191 0.0866 3.6774-1.4643 3.863-1.4993 0.8848-0.3247 0.3977-1.8491-0.5185-1.48l-3.6038 1.4487a0.8041 0.8041 0 0 0 0.2593 1.5306z"/>
   <path d="m1293.7 541.09-3.3976-2.0488c-0.8627-0.5165-1.5458 0.9193-0.7242 1.3771a37.995 37.995 0 0 0 3.7591 2.1506 0.8057 0.8057 0 0 0 0.3627-1.4789z"/>
   <path d="m1294.4 533.93h-4.55a0.7921 0.7921 0 0 0 0 1.5805h4.55c0.9581 0.0154 0.956-1.5958 0-1.5805z"/>
  </g>
 </g>
</svg>
