<?xml version="1.0" encoding="UTF-8"?>
<svg version="1.1" viewBox="0 0 143.16 40.167" xmlns="http://www.w3.org/2000/svg" xmlns:xlink="http://www.w3.org/1999/xlink">
 <title>09_water</title>
 <g id="_1-button-eksaxoni" transform="translate(-1606.5 -190.93)" style="isolation:isolate" data-name="1-button-eksaxoni">
  <rect x="1609.2" y="194.81" width="140.41" height="32.379" rx="15.848" fill="#fff"/>
  <circle cx="1626.5" cy="211.01" r="18.584" fill="#2e3192"/>
  <path d="m1626.5 231.09a20.084 20.084 0 1 1 20.084-20.084 20.106 20.106 0 0 1-20.084 20.084zm0-37.167a17.084 17.084 0 1 0 17.084 17.084 17.102 17.102 0 0 0-17.084-17.084z" fill="#fff"/>
  <g fill="#2e3192">
   <path d="m1651.6 217.22v-12.253h9.1514v2.82h-5.9131v1.82h5.2891v2.7h-5.2891v2.0762h6.0752v2.8369z"/>
   <path d="m1662.4 211.96a3.0612 3.0612 0 0 1 0.4873-0.7431 4.3369 4.3369 0 0 1 2.0166-1.1368c-1.5723-0.3247-1.8545-1.2734-1.8545-1.9052a1.6988 1.6988 0 0 1 0.3418-0.9659 2.2717 2.2717 0 0 1 1.5293-0.8032h-2.2217v-2.3071h8.3994v2.623h-3.0586c-1.29 0-1.8711 0.3506-1.8711 1.1709 0 0.7608 0.6153 1.1026 1.5381 1.1026h2.47v2.5973h-3.1875a2.1765 2.1765 0 0 0-1.2911 0.3584 1.3149 1.3149 0 0 0-0.5117 1.1621c0 0.82 0.52 1.3589 1.9824 1.6241a11.126 11.126 0 0 1 2.4942 0.6406 2.6981 2.6981 0 0 1 0.7695 0.4873 2.06 2.06 0 0 1 0.5811 1.5547 12.352 12.352 0 0 1-0.5215 2.8628h-2.3838a8.6914 8.6914 0 0 0 0.3164-1.6748 0.9959 0.9959 0 0 0-0.8291-0.9829 3.7323 3.7323 0 0 0-0.5039-0.1451c-0.1455-0.0258-0.3506-0.0683-0.6152-0.1108-0.2735-0.043-0.4786-0.0859-0.6065-0.1113a5.3773 5.3773 0 0 1-2.9062-1.3584 3.4071 3.4071 0 0 1-0.8887-2.4356 3.2772 3.2772 0 0 1 0.325-1.5036z"/>
   <path d="m1671.4 212.73a5.9877 5.9877 0 0 1 0.333-2.0679 3.8629 3.8629 0 0 1 0.9053-1.47 3.9268 3.9268 0 0 1 2.8027-1.1368 3.0739 3.0739 0 0 1 2.4951 1.0684h0.043v-1.0163h3.0078v9.1172h-3.0078v-0.8887h-0.043a2.9 2.9 0 0 1-2.4433 1.085 3.8433 3.8433 0 0 1-3.751-2.6319 5.7336 5.7336 0 0 1-0.3418-2.059zm3.5625 1.4868a1.7572 1.7572 0 0 0 1.333 0.5381 1.7068 1.7068 0 0 0 1.2822-0.5552 2.356 2.356 0 0 0 0-2.9566 1.7012 1.7012 0 0 0-1.2822-0.5468 1.769 1.769 0 0 0-1.3076 0.5639 2.3125 2.3125 0 0 0-0.025 2.9566zm0.248-7.0923 1.8545-3.29 2.5547 1.1021-2.3408 2.1875z"/>
   <path d="m1682 217.22 3.2724-4.5889-3.1445-4.3916h3.5889l1.4531 2.2471h0.034l1.4355-2.2471h3.5118l-3.11 4.3574 3.3242 4.6231h-3.5888l-1.6329-2.418h-0.033l-1.59 2.418z"/>
   <path d="m1692.6 208.24h3.2725l1.8379 5.2891h0.033l1.8632-5.2891h3.1954l-3.58 9.0318h-3.0332z"/>
   <path d="m1705.1 208.8a5.2789 5.2789 0 0 1 2.5371-0.7437l0.3848 2.5381a1.7755 1.7755 0 0 0-1.5889 0.9141 3.03 3.03 0 0 0-0.3506 1.41c0 1.1875 0.376 1.8886 1.1191 1.8886 0.709 0 0.9229-0.376 0.9229-1.3589v-2.102h2.8545v2.102c0 0.9829 0.2392 1.3589 0.9316 1.3589 0.7168 0 1.1016-0.7011 1.1016-1.8886a2.7851 2.7851 0 0 0-0.5293-1.7 1.9137 1.9137 0 0 0-1.4014-0.6241l0.3926-2.5381c3.1191 0.1626 4.5635 2.1963 4.5635 4.8794a4.9357 4.9357 0 0 1-1.0254 3.2388 3.3742 3.3742 0 0 1-2.7178 1.2471 2.8427 2.8427 0 0 1-2.751-1.5977 2.7914 2.7914 0 0 1-2.7265 1.5977 3.3152 3.3152 0 0 1-2.6992-1.2471 4.9357 4.9357 0 0 1-1.0254-3.2388 4.54 4.54 0 0 1 2.0078-4.1357z"/>
   <path d="m1722 208.24h5.2978v2.3838h-1.7851v0.0342a2.1443 2.1443 0 0 1 1.0254 0.9228 2.8549 2.8549 0 0 1 0.375 1.4014 4.5192 4.5192 0 0 1-4.8789 4.4346 4.7527 4.7527 0 0 1-4.2129-2.1875 4.63 4.63 0 0 1 4.1787-6.9893zm-1.2393 5.9556a1.6863 1.6863 0 0 0 1.3077 0.5552 1.6508 1.6508 0 0 0 1.29-0.5381 2.0486 2.0486 0 0 0 0.4785-1.4014 2.0818 2.0818 0 0 0-0.4951-1.4184 1.7968 1.7968 0 0 0-2.6065-8e-3 2.0808 2.0808 0 0 0-0.4863 1.4267 1.9528 1.9528 0 0 0 0.5119 1.3843z"/>
   <path d="m1728.8 217.22v-8.9805h3.0595v0.8628h0.034a3.1075 3.1075 0 0 1 2.4346-1.0513 2.9973 2.9973 0 0 1 2.2051 0.8887 3.4936 3.4936 0 0 1 0.871 2.5381v9.0664h-3.0585v-8.3315c0-0.9829-0.5557-1.5381-1.2481-1.5381-0.7519 0-1.2383 0.5386-1.2383 1.5722v4.9732z"/>
  </g>
  <g fill="#fff">
   <path d="m1625.4 203.34c-12.423 9.3457-12.388 5.99 0 15.322a1.4776 1.4776 0 0 0 2.3133-1.3091v-12.704a1.4777 1.4777 0 0 0-2.3133-1.3091z"/>
   <path d="m1630.7 206.42c0.1191 0.0865 3.6774-1.4644 3.863-1.4993 0.8848-0.3248 0.3977-1.8492-0.5185-1.48l-3.6038 1.4488a0.8041 0.8041 0 0 0 0.2593 1.5305z"/>
   <path d="m1634.6 217.13-3.3976-2.0488c-0.8627-0.5165-1.5458 0.9192-0.7242 1.3771a37.995 37.995 0 0 0 3.7591 2.1506 0.8057 0.8057 0 0 0 0.3627-1.4789z"/>
   <path d="m1635.3 209.97h-4.55a0.7921 0.7921 0 0 0 0 1.58h4.55c0.9581 0.0159 0.9558-1.5953 0-1.58z"/>
  </g>
 </g>
</svg>
