<?xml version="1.0" encoding="UTF-8"?>
<svg version="1.1" viewBox="0 0 137.74 40.167" xmlns="http://www.w3.org/2000/svg" xmlns:xlink="http://www.w3.org/1999/xlink">
 <title>09_water</title>
 <g id="_1-button-eksatmisi" transform="translate(-827 -641.37)" style="isolation:isolate" data-name="1-button-eksatmisi">
  <rect x="829.75" y="645.25" width="134.99" height="32.379" rx="15.538" fill="#fff"/>
  <circle cx="847.08" cy="661.45" r="18.584" fill="#2e3192"/>
  <path d="m847.08 681.54a20.084 20.084 0 1 1 20.084-20.083 20.106 20.106 0 0 1-20.084 20.083zm0-37.167a17.084 17.084 0 1 0 17.084 17.084 17.103 17.103 0 0 0-17.084-17.084z" fill="#fff"/>
  <g fill="#2e3192">
   <path d="m872.15 667.66v-12.253h9.1513v2.82h-5.913v1.82h5.289v2.7h-5.289v2.0762h6.0747v2.8369z"/>
   <path d="m882.99 662.4a3.07 3.07 0 0 1 0.4873-0.7432 4.3383 4.3383 0 0 1 2.0166-1.1367c-1.5722-0.3242-1.8545-1.2734-1.8545-1.9052a1.7 1.7 0 0 1 0.3418-0.9659 2.2693 2.2693 0 0 1 1.5293-0.8027h-2.2212v-2.3076h8.3994v2.623h-3.0594c-1.29 0-1.8711 0.3506-1.8711 1.1709 0 0.7608 0.6152 1.1026 1.5381 1.1026h2.47v2.5976h-3.187a2.1762 2.1762 0 0 0-1.291 0.3584 1.3148 1.3148 0 0 0-0.5117 1.1621c0 0.82 0.5205 1.3594 1.9824 1.6241a11.114 11.114 0 0 1 2.4941 0.6406 2.6981 2.6981 0 0 1 0.7695 0.4873 2.06 2.06 0 0 1 0.5811 1.5547 12.351 12.351 0 0 1-0.5215 2.8633h-2.3838a8.6981 8.6981 0 0 0 0.3164-1.6748 0.9959 0.9959 0 0 0-0.8291-0.9834 3.6489 3.6489 0 0 0-0.5039-0.1446c-0.1455-0.0263-0.3506-0.0683-0.6152-0.1113-0.2734-0.043-0.4785-0.0859-0.6065-0.1113a5.3777 5.3777 0 0 1-2.9062-1.3584 3.4071 3.4071 0 0 1-0.8887-2.4356 3.2772 3.2772 0 0 1 0.3248-1.5039z"/>
   <path d="m891.92 663.17a5.9884 5.9884 0 0 1 0.333-2.0683 3.8629 3.8629 0 0 1 0.9053-1.47 3.927 3.927 0 0 1 2.8027-1.1368 3.0742 3.0742 0 0 1 2.4952 1.0684h0.0429v-1.0166h3.0078v9.1172h-3.0078v-0.8887h-0.0429a2.9006 2.9006 0 0 1-2.4434 1.085 3.8434 3.8434 0 0 1-3.751-2.6319 5.7329 5.7329 0 0 1-0.3418-2.0583zm3.5625 1.4864a1.756 1.756 0 0 0 1.333 0.5381 1.7083 1.7083 0 0 0 1.2823-0.5547 2.3567 2.3567 0 0 0 0-2.9571 1.7014 1.7014 0 0 0-1.2823-0.5468 1.7691 1.7691 0 0 0-1.3076 0.5644 2.3118 2.3118 0 0 0-0.0254 2.9561zm0.2481-7.0918 1.8545-3.29 2.5547 1.1026-2.3409 2.1875z"/>
   <path d="m902.8 661.3v-2.6143h7.8779v2.6143h-2.3838v6.3662h-3.0761v-6.3662z"/>
   <path d="m912 670.99v-12.305h3.06v4.9219c0 1.0254 0.47 1.6064 1.2988 1.6064 0.6494 0 1.17-0.53 1.17-1.5556v-4.9727h3.0761v8.9805h-3.0244v-0.8369h-0.0342a1.3684 1.3684 0 0 1-1.2646 0.9228 1.25 1.25 0 0 1-1.1875-0.82h-0.0342v4.0586z"/>
   <path d="m922.51 667.66v-8.9805h3.0762v8.9805z"/>
   <path d="m931.97 658.68h5.2978v2.3838h-1.7851v0.0342a2.1443 2.1443 0 0 1 1.0254 0.9228 2.8559 2.8559 0 0 1 0.375 1.4014 4.5193 4.5193 0 0 1-4.8789 4.4346 4.7525 4.7525 0 0 1-4.2129-2.1875 4.63 4.63 0 0 1 4.1787-6.9893zm-1.2393 5.9561a1.6875 1.6875 0 0 0 1.3076 0.5547 1.65 1.65 0 0 0 1.29-0.5381 2.0477 2.0477 0 0 0 0.4785-1.4014 2.081 2.081 0 0 0-0.4951-1.418 1.7965 1.7965 0 0 0-2.6065-9e-3 2.0813 2.0813 0 0 0-0.4863 1.4268 1.9549 1.9549 0 0 0 0.5118 1.3848z"/>
   <path d="m938.79 667.66v-8.9805h3.06v0.8633h0.0342a3.1062 3.1062 0 0 1 2.4346-1.0518 2.9985 2.9985 0 0 1 2.205 0.8887 3.4929 3.4929 0 0 1 0.8711 2.5381v9.0664h-3.0586v-8.3311c0-0.9833-0.5556-1.538-1.248-1.538-0.752 0-1.2383 0.538-1.2383 1.5722v4.9727z"/>
  </g>
  <g fill="#fff">
   <path d="m845.9 653.78c-12.423 9.3457-12.388 5.99 0 15.322a1.4776 1.4776 0 0 0 2.3133-1.3091v-12.704a1.4777 1.4777 0 0 0-2.3133-1.309z"/>
   <path d="m851.25 656.86c0.1191 0.0865 3.6773-1.4644 3.863-1.4994 0.8848-0.3247 0.3977-1.8491-0.5185-1.48l-3.6045 1.4492a0.8041 0.8041 0 0 0 0.26 1.5302z"/>
   <path d="m855.11 667.57-3.3976-2.0489c-0.8627-0.5164-1.5458 0.9193-0.7242 1.3772a37.995 37.995 0 0 0 3.7591 2.1506 0.8057 0.8057 0 0 0 0.3627-1.4789z"/>
   <path d="m855.8 660.42h-4.55a0.7921 0.7921 0 0 0 0 1.58h4.55c0.9577 0.0159 0.9555-1.595 0-1.58z"/>
  </g>
 </g>
</svg>
