<?xml version="1.0" encoding="UTF-8"?>
<svg version="1.1" viewBox="0 0 153.98 40.167" xmlns="http://www.w3.org/2000/svg" xmlns:xlink="http://www.w3.org/1999/xlink">
 <title>09_water</title>
 <g id="_1-button-pagetonas" transform="translate(-1545.8 -359.02)" style="isolation:isolate" data-name="1-button-pagetonas">
  <rect x="1548.5" y="362.9" width="151.23" height="32.379" rx="16.19" fill="#fff"/>
  <circle cx="1565.9" cy="379.1" r="18.584" fill="#2e3192"/>
  <path d="m1565.9 399.19a20.084 20.084 0 1 1 20.083-20.084 20.106 20.106 0 0 1-20.083 20.084zm0-37.167a17.084 17.084 0 1 0 17.083 17.084 17.103 17.103 0 0 0-17.083-17.084z" fill="#fff"/>
  <g fill="#2e3192">
   <path d="m1590.9 385.31v-12.253h10.587v12.253h-3.2382v-9.331h-4.11v9.331z"/>
   <path d="m1603.2 380.82a5.988 5.988 0 0 1 0.334-2.0679 3.8767 3.8767 0 0 1 0.9053-1.47 3.9286 3.9286 0 0 1 2.8027-1.1367 3.0758 3.0758 0 0 1 2.4952 1.0683h0.043v-1.0166h3.0078v9.1172h-3.0078v-0.8886h-0.043a2.9 2.9 0 0 1-2.4434 1.0849 3.8463 3.8463 0 0 1-3.752-2.6318 5.7564 5.7564 0 0 1-0.3418-2.0588zm3.5635 1.4868a1.7574 1.7574 0 0 0 1.333 0.5381 1.7086 1.7086 0 0 0 1.2823-0.5552 2.3594 2.3594 0 0 0 0-2.9565 1.7026 1.7026 0 0 0-1.2823-0.5469 1.765 1.765 0 0 0-1.3066 0.564 2.3141 2.3141 0 0 0-0.026 2.9565z"/>
   <path d="m1613.9 376.33h3.2559l1.8535 5.5371h0.035l1.8789-5.5371h3.18l-3.5634 9.1513v3.1534h-3.085v-3.2217z"/>
   <path d="m1626.3 380.69v-0.0342a2.1073 2.1073 0 0 1-1.06-0.7261 1.94 1.94 0 0 1-0.4268-1.23 2.1752 2.1752 0 0 1 1.2813-2 5.9528 5.9528 0 0 1 2.6152-0.5557 6.6615 6.6615 0 0 1 2.4 0.3677 5.0992 5.0992 0 0 1 1.7178 1.1362l-1.7178 1.6665a3.03 3.03 0 0 0-2.2559-0.88c-0.58 0-1.0673 0.1968-1.0673 0.7178q0 0.6664 0.8711 0.667h1.6318v1.7856h-1.751c-0.6494 0-1.0517 0.2735-1.0517 0.7862q0 0.82 1.3847 0.82a3.66 3.66 0 0 0 2.5381-1.0513l1.6572 1.7007a6.3037 6.3037 0 0 1-4.4257 1.6489c-2.795 0-4.1788-0.9311-4.1788-2.666a2.2115 2.2115 0 0 1 1.8378-2.1533z"/>
   <path d="m1633.7 378.94v-2.6142h7.878v2.6142h-2.3838v6.3662h-3.0763v-6.3662z"/>
   <path d="m1644.3 376.89a5.2818 5.2818 0 0 1 2.5381-0.7436l0.3838 2.5381a1.7752 1.7752 0 0 0-1.5888 0.914 3.029 3.029 0 0 0-0.3506 1.41c0 1.1875 0.3759 1.8887 1.1191 1.8887 0.71 0 0.9229-0.376 0.9229-1.3589v-2.1021h2.8545v2.1021c0 0.9829 0.2392 1.3589 0.9306 1.3589 0.7188 0 1.1026-0.7012 1.1026-1.8887a2.7862 2.7862 0 0 0-0.5293-1.7 1.9159 1.9159 0 0 0-1.4014-0.624l0.3926-2.5381c3.1191 0.1626 4.5635 2.1963 4.5635 4.8794a4.9357 4.9357 0 0 1-1.0254 3.2388 3.3754 3.3754 0 0 1-2.7178 1.247 2.8427 2.8427 0 0 1-2.751-1.5976 2.7911 2.7911 0 0 1-2.7256 1.5976 3.3188 3.3188 0 0 1-2.7011-1.247 4.9357 4.9357 0 0 1-1.0254-3.2388 4.5412 4.5412 0 0 1 2.0087-4.1358zm3.5713-1.6748 1.8545-3.2895 2.5547 1.102-2.3408 2.1875z"/>
   <path d="m1655.4 376.33h3.2724l1.8369 5.289h0.035l1.8623-5.289h3.1963l-3.5811 9.0317h-3.0332z"/>
   <path d="m1665.8 380.82a5.9861 5.9861 0 0 1 0.333-2.0679 3.8655 3.8655 0 0 1 0.9052-1.47 3.927 3.927 0 0 1 2.8028-1.1367 3.0744 3.0744 0 0 1 2.4951 1.0683h0.043v-1.0166h3.0078v9.1172h-3.0078v-0.8886h-0.043a2.9008 2.9008 0 0 1-2.4434 1.0849 3.8433 3.8433 0 0 1-3.7509-2.6318 5.7324 5.7324 0 0 1-0.3418-2.0588zm3.5625 1.4868a1.7572 1.7572 0 0 0 1.333 0.5381 1.7068 1.7068 0 0 0 1.2822-0.5552 2.3558 2.3558 0 0 0 0-2.9565 1.7009 1.7009 0 0 0-1.2822-0.5469 1.7686 1.7686 0 0 0-1.3076 0.564 2.3124 2.3124 0 0 0-0.025 2.9565z"/>
   <path d="m1679.2 376.77a4.9848 4.9848 0 0 1 2.5371-0.624 4.4265 4.4265 0 0 1 3.9482 1.94l-2.1875 1.5723a1.9528 1.9528 0 0 0-1.7607-0.9229 1.5212 1.5212 0 0 0-1.2383 0.5894 2.2237 2.2237 0 0 0-0.4785 1.4189 2.2844 2.2844 0 0 0 0.3154 1.3243 2.5061 2.5061 0 0 0 1.47 0.9741c0.4707 0.1626 0.8545 0.3076 1.1455 0.4272a6.9113 6.9113 0 0 1 0.837 0.419 2.1692 2.1692 0 0 1 0.6074 0.5039 2.3536 2.3536 0 0 1 0.4521 1.4868 9.0172 9.0172 0 0 1-0.47 2.4951h-2.3838q0.025-0.1149 0.1026-0.436c0.051-0.2134 0.085-0.376 0.1113-0.4785a4.4366 4.4366 0 0 0 0.1015-0.7261 0.9167 0.9167 0 0 0-0.6152-0.8286 7 7 0 0 0-1.2812-0.4785 0.7389 0.7389 0 0 1-0.094-0.0259 4.2858 4.2858 0 0 1-3.3418-4.5459 4.4907 4.4907 0 0 1 2.2227-4.0846z"/>
  </g>
  <g fill="#fff">
   <path d="m1564.7 371.43c-12.423 9.3457-12.388 5.99 0 15.322a1.4776 1.4776 0 0 0 2.3134-1.3091v-12.704a1.4777 1.4777 0 0 0-2.3134-1.3091z"/>
   <path d="m1570 374.51c0.119 0.0866 3.6773-1.4643 3.8629-1.4993 0.8848-0.3247 0.3977-1.8492-0.5185-1.48l-3.6038 1.4487a0.8041 0.8041 0 0 0 0.2594 1.5306z"/>
   <path d="m1573.9 385.22-3.3976-2.0488c-0.8626-0.5165-1.5457 0.9193-0.7241 1.3771a37.994 37.994 0 0 0 3.759 2.1506 0.8057 0.8057 0 0 0 0.3627-1.4789z"/>
   <path d="m1574.6 378.06h-4.55a0.7921 0.7921 0 0 0 0 1.5805h4.55c0.9581 0.0154 0.9558-1.5958 0-1.5805z"/>
  </g>
 </g>
</svg>
