<?xml version="1.0" encoding="UTF-8"?>
<svg version="1.1" viewBox="0 0 371.92 339.56" xmlns="http://www.w3.org/2000/svg" xmlns:xlink="http://www.w3.org/1999/xlink">
 <title>09_water</title>
 <g id="_1_-_therometer" transform="translate(-1216.3 -51.342)" style="isolation:isolate" data-name="1 - therometer">
  <g id="_1-celcius" data-name="1-celcius">
   <rect x="1216.3" y="51.342" width="119.72" height="275.58" rx="59.859" fill="#fff"/>
   <g fill="#ef2f1b">
    <path d="m1292 168.6q0 40.913-0.019 81.827a1.9668 1.9668 0 0 0 0.9221 1.8283 26.975 26.975 0 0 1 11.906 19.176c1.5678 11.664-2.5816 21.172-12.267 27.866a28.036 28.036 0 0 1-34.572-1.9967 27.413 27.413 0 0 1-9.8315-19.329 27.876 27.876 0 0 1 7.0958-21.288 27.334 27.334 0 0 1 5.0115-4.4459 1.8044 1.8044 0 0 0 0.9048-1.6705q-0.046-81.344-0.036-162.69a15.48 15.48 0 0 1 30.424-3.8108 15.289 15.289 0 0 1 0.4806 3.9457q-0.022 40.294-0.011 80.587zm-3.8717 1.7618q0-40.563 0-81.126c0-0.5968 0.012-1.1943-0.013-1.79a11.564 11.564 0 0 0-23.09 1.2771q-0.01 81.883 0.023 163.77a2.914 2.914 0 0 1-1.5313 2.8432 24.161 24.161 0 1 0 25.993-0.0806 2.6021 2.6021 0 0 1-1.4084-2.5249q0.061-41.183 0.027-82.366z"/>
    <path d="m1300 248.23c-0.64 0-1.2832-0.0352-1.9206 8e-3 -0.9465 0.0647-1.5216-0.0594-1.5031-1.287 0.017-1.1567 0.5481-1.24 1.441-1.2107 1.4164 0.0464 2.8375 0.0581 4.2528-4e-3 0.9306-0.0407 1.3024 0.2329 1.2834 1.2239-0.017 0.9056-0.2067 1.3774-1.2221 1.2832-0.7709-0.0713-1.5538-0.0141-2.3314-0.0141z"/>
    <path d="m1300 239.96c-0.6863 0-1.3778-0.0534-2.0576 0.0126-0.9934 0.0966-1.3786-0.2214-1.3621-1.2852 0.015-0.9872 0.36-1.2612 1.29-1.2221 1.4615 0.0614 2.9293 0.0607 4.3909 0 0.9253-0.0383 1.28 0.2255 1.293 1.2184 0.014 1.0593-0.3621 1.3829-1.36 1.2893-0.7251-0.0675-1.4623-0.0131-2.1942-0.013z"/>
    <path d="m1300 229.22c0.732-9e-4 1.47 0.0564 2.1947-0.0147 1.02-0.1 1.3474 0.2708 1.3419 1.3066-0.01 1.0174-0.4092 1.2325-1.3107 1.201-1.5536-0.0543-3.1119-0.0563-4.6654-1e-3 -0.9858 0.035-0.9783-0.5488-0.9684-1.2372 0.01-0.6611-0.071-1.3217 0.938-1.2632 0.8207 0.0476 1.6464 0.01 2.4699 9e-3z"/>
    <path d="m1300.1 223.43c-0.6863 8e-4 -1.3758-0.0421-2.058 0.011-0.9829 0.0765-1.4922-0.1209-1.4771-1.3157 0.015-1.1862 0.6089-1.2033 1.4674-1.1838 1.509 0.0344 3.0208 0.05 4.5287-4e-3 0.9947-0.035 0.96 0.57 0.9574 1.2481 0 0.67 0.053 1.3147-0.9484 1.2533-0.8205-0.0499-1.6465-0.01-2.47-9e-3z"/>
    <path d="m1300 165.3c-0.7333 0-1.4692-0.0382-2.1992 0.01-0.8367 0.0558-1.2481-0.1551-1.2478-1.12s0.4123-1.1472 1.2481-1.1221c1.5568 0.0467 3.1175 0.0544 4.6738-1e-3 0.9323-0.0331 1.02 0.4512 1.0292 1.1929 0.01 0.76-0.2416 1.0926-1.03 1.0492-0.8222-0.0446-1.6491-9e-3 -2.4741-9e-3z"/>
    <path d="m1300 173.57c-0.6875 0-1.377-0.0332-2.062 9e-3 -0.8485 0.0521-1.3713-0.0741-1.356-1.1527 0.014-1.0022 0.487-1.1076 1.2832-1.0876q2.1987 0.0552 4.4 0c0.7914-0.0194 1.274 0.0757 1.2861 1.0833 0.013 1.0711-0.4993 1.2076-1.3513 1.1573-0.731-0.0439-1.4663-9e-3 -2.2-9e-3z"/>
    <path d="m1300.2 179.62c0.7333-9e-4 1.47 0.0458 2.199-0.0128 0.9025-0.0725 1.195 0.2769 1.19 1.1763 0 0.8824-0.37 1.0883-1.1612 1.0682-1.6031-0.0406-3.2089-0.0449-4.8118 0-0.85 0.0238-0.9777-0.4105-0.9706-1.1083 0.01-0.67 0.067-1.1788 0.9422-1.1327 0.8688 0.0461 1.7416 0.0104 2.6124 9e-3z"/>
    <path d="m1300.1 187.89c0.733 0 1.4672 0.0267 2.1986-7e-3 0.7778-0.036 1.286 0.0479 1.2967 1.0691 0.011 1.0624-0.4847 1.1917-1.3441 1.1666-1.5105-0.0439-3.0246-0.0517-4.5344 3e-3 -0.8818 0.0319-1.0683-0.3567-1.0794-1.1464-0.012-0.8481 0.2985-1.151 1.1269-1.0961 0.7754 0.0517 1.5569 0.0111 2.3357 0.0111z"/>
    <path d="m1300 198.37c-0.6874 0-1.3767-0.0314-2.0617 8e-3 -0.8392 0.0488-1.3641-0.0581-1.3661-1.1434 0-1.1484 0.6376-1.1 1.416-1.0889 1.4661 0.02 2.9337 0.0385 4.3988-6e-3 0.8033-0.0246 1.1426 0.2043 1.15 1.0759 0.01 0.9126-0.3118 1.2321-1.2008 1.1661-0.7745-0.0576-1.5572-0.012-2.3362-0.0118z"/>
    <path d="m1300.1 123.98c-0.7334 0-1.4681-0.0286-2.2 8e-3 -0.7867 0.0392-1.2781-0.0641-1.2911-1.0768-0.014-1.069 0.4922-1.1877 1.347-1.1626 1.4654 0.0431 2.9344 0.0508 4.3991-2e-3 0.8689-0.0316 1.2124 0.2227 1.22 1.1522 0.01 1.0008-0.475 1.1346-1.2763 1.09-0.7303-0.0399-1.4654-8e-3 -2.1987-8e-3z"/>
    <path d="m1300 206.64c-0.6873 0-1.3767-0.0341-2.0612 9e-3 -0.8539 0.0533-1.3616-0.09-1.3486-1.159 0.012-1.0124 0.5039-1.0957 1.29-1.0778 1.5112 0.0342 3.0248 0.0442 4.5352-4e-3 0.822-0.026 1.1454 0.2394 1.1311 1.0935-0.013 0.7832-0.1844 1.2113-1.0733 1.15-0.8208-0.0564-1.6485-0.0119-2.4732-0.0119z"/>
    <path d="m1300 148.77c-0.6872 0-1.3758-0.0289-2.0611 7e-3 -0.8223 0.0428-1.3774-0.0249-1.3783-1.1275-1e-3 -1.1334 0.61-1.1157 1.4028-1.1023 1.5113 0.0256 3.0242 0.0392 4.5347-4e-3 0.8019-0.0229 1.019 0.3176 1.0169 1.0631 0 0.7559-0.1242 1.24-1.0421 1.1761-0.8206-0.057-1.6483-0.012-2.4729-0.0124z"/>
    <path d="m1300 214.9c-0.7332 1e-3 -1.47-0.0449-2.1986 0.0131-0.9024 0.0718-1.1941-0.279-1.19-1.1777 0-0.8826 0.37-1.0872 1.1609-1.0667 1.6028 0.0415 3.2083 0.0467 4.8108 1e-3 0.8512-0.0242 0.9769 0.4086 0.969 1.1064-0.01 0.6692-0.065 1.1791-0.9411 1.1325-0.8677-0.0463-1.7403-0.0102-2.611-9e-3z"/>
    <path d="m1300 140.51c-0.6874 0-1.3769-0.034-2.0616 9e-3 -0.8543 0.054-1.362-0.089-1.3489-1.1582 0.012-1.0117 0.5031-1.0974 1.29-1.08 1.5115 0.034 3.0254 0.0439 4.5361-3e-3 0.8209-0.0256 1.1466 0.2381 1.1321 1.0934-0.013 0.7837-0.1853 1.2112-1.0738 1.15-0.8211-0.0561-1.649-0.0118-2.4739-0.0111z"/>
    <path d="m1300.1 115.7c-0.7331 6e-4 -1.4672-0.0239-2.1989 7e-3 -0.769 0.0328-1.294-0.0315-1.3049-1.0613-0.011-1.0545 0.4676-1.2007 1.3361-1.1749q2.3346 0.0695 4.6726 3e-3c0.8764-0.0244 0.9312 0.4663 0.9393 1.1347 0.01 0.7-0.1207 1.153-0.9708 1.1015-0.8216-0.0499-1.6487-0.0108-2.4734-0.0102z"/>
    <path d="m1300.2 105.22c0.6874 0 1.3762 0.0262 2.062-7e-3 0.7776-0.0376 1.286 0.0472 1.2972 1.0693 0.012 1.0622-0.4806 1.1936-1.3421 1.1681-1.511-0.0448-3.0258-0.0522-4.5363 2e-3 -0.88 0.0316-1.071-0.3537-1.0812-1.1455-0.011-0.8463 0.2957-1.151 1.1263-1.0983 0.8217 0.0522 1.6491 0.0114 2.4741 0.0113z"/>
    <path d="m1300.1 157.04c-0.7332 7e-4 -1.4687-0.0358-2.1989 0.0105-0.8255 0.0523-1.26-0.1346-1.2568-1.1106 0-0.9523 0.3908-1.159 1.238-1.1323 1.5564 0.0491 3.1169 0.055 4.673 0 0.92-0.0325 1.0358 0.4291 1.0391 1.1824 0 0.7489-0.2219 1.104-1.0205 1.0594-0.8223-0.0459-1.6491-0.0101-2.4739-9e-3z"/>
    <path d="m1300 99.175c-0.7333 0-1.4692-0.0384-2.1993 0.01-0.8366 0.0561-1.2483-0.154-1.2481-1.119s0.4148-1.1468 1.2495-1.1221c1.557 0.0461 3.1178 0.0542 4.6741-0.0012 0.9331-0.0333 1.0191 0.4516 1.0276 1.1931 0.01 0.76-0.24 1.0926-1.0293 1.0486-0.8224-0.0454-1.6494-0.0098-2.4745-0.0094z"/>
    <path d="m1300 132.24c-0.6873 0-1.3769-0.0346-2.0615 9e-3 -0.8536 0.0543-1.3658-0.0832-1.3514-1.1563 0.014-1.0085 0.4989-1.1008 1.2883-1.082q2.1982 0.0522 4.3985-1e-3c0.7972-0.02 1.288 0.0851 1.2782 1.0895-0.01 0.9244-0.3417 1.2155-1.216 1.1527-0.775-0.0556-1.5571-0.0116-2.3361-0.0115z"/>
    <path d="m1300.1 90.911c-0.7332 6e-4 -1.4675-0.024-2.1994 0.0073-0.7691 0.0329-1.2945-0.0312-1.3054-1.061-0.011-1.05 0.4593-1.2062 1.3326-1.1793q2.335 0.0718 4.6736 0.0051c0.8756-0.024 0.9328 0.465 0.9411 1.1342 0.01 0.6987-0.1168 1.155-0.9685 1.1038-0.8219-0.0494-1.6491-0.0108-2.474-0.0101z"/>
    <path d="m1269.5 132.8q0.032-0.1857 0.065-0.3712l13.579-0.019c0.011 0.5045 0.033 1.0089 0.033 1.5134q0 59.154 0 118.31c0 1.79 0.074 3.58 0.047 5.3688a1.405 1.405 0 0 0 0.9578 1.45c6.7473 3.3759 10.475 8.7873 10.561 16.398 0.088 7.7349-3.5691 13.368-10.412 16.776-11.578 5.7666-25.759-2.8223-26.078-15.73-0.1972-7.9993 3.4243-13.775 10.495-17.44 0.198-0.1026 0.3779-0.24 0.5663-0.3613 0.2692-0.108 0.2521-0.3108 0.1765-0.533 0.017-0.3658 0.048-0.7316 0.048-1.0974q0-38.242 7e-4 -76.483c0-0.32-0.028-0.64-0.043-0.96 0.027-0.3645 0.077-0.7289 0.077-1.0934q0-22.247 0-44.494c0-0.4104-0.047-0.8212-0.073-1.2321z"/>
   </g>
   <path d="m1269.5 132.8c0.025 0.4109 0.073 0.8217 0.073 1.2325q0.01 22.247 0 44.494c0 0.3645-0.05 0.7289-0.077 1.0934-0.3046-0.41-0.179-0.8856-0.1792-1.3325q-0.01-22.077 0-44.155a2.0368 2.0368 0 0 1 0.1786-1.3331z" fill="#e6e6e6"/>
   <path d="m1269.5 258.16c0.076 0.2222 0.093 0.425-0.1765 0.533z" fill="#e6e6e6"/>
  </g>
  <g id="_1-button-celcius" transform="matrix(1.8903 0 0 1.8903 -1121.9 -280.41)" data-name="1-button-celcius">
   <rect x="1262.9" y="318.85" width="170.76" height="32.379" rx="16.19" fill="#fff"/>
   <circle cx="1280.3" cy="335.05" r="18.584" fill="#2e3192"/>
   <path d="m1280.3 355.14a20.084 20.084 0 1 1 20.083-20.084 20.106 20.106 0 0 1-20.083 20.084zm0-37.167a17.084 17.084 0 1 0 17.083 17.084 17.103 17.103 0 0 0-17.083-17.084z" fill="#fff"/>
   <g fill="#2e3192">
    <path d="m1311.7 328.81a7.6525 7.6525 0 0 1 3.4951 0.7861 5.9862 5.9862 0 0 1 2.418 2.2388 6.2872 6.2872 0 0 1 0.8721 3.3066 5.9782 5.9782 0 0 1-1.8711 4.5889 6.9656 6.9656 0 0 1-4.9483 1.7519 7.4364 7.4364 0 0 1-3.4687-0.7949 5.9082 5.9082 0 0 1-2.4268-2.2388 6.2126 6.2126 0 0 1-0.8808-3.3071c-0.051-3.751 2.7947-6.3828 6.8105-6.3315zm-2.52 8.8354a3.8508 3.8508 0 0 0 5.0332-9e-3 3.3209 3.3209 0 0 0 0.9658-2.4951 3.275 3.275 0 0 0-0.9834-2.5034 3.5446 3.5446 0 0 0-2.5293-0.9229 3.4382 3.4382 0 0 0-2.5029 0.9312 3.32 3.32 0 0 0-0.9658 2.4951 3.2754 3.2754 0 0 0 0.9819 2.5039zm0.47-1.3672v-2.5039h4.0586v2.5039z"/>
    <path d="m1321.7 336.64v-0.0342a2.1044 2.1044 0 0 1-1.06-0.726 1.9454 1.9454 0 0 1-0.4267-1.2305 2.1753 2.1753 0 0 1 1.2812-2 5.956 5.956 0 0 1 2.6153-0.5557 6.6671 6.6671 0 0 1 2.4013 0.3677 5.1041 5.1041 0 0 1 1.7168 1.1362l-1.7168 1.6665a3.0337 3.0337 0 0 0-2.2558-0.88c-0.5821 0-1.0684 0.1967-1.0684 0.7177q0 0.6666 0.8711 0.667h1.6328v1.7857h-1.7519c-0.6495 0-1.0508 0.2734-1.0508 0.7861q0 0.82 1.3838 0.82a3.66 3.66 0 0 0 2.5381-1.0513l1.6572 1.7007a6.3034 6.3034 0 0 1-4.4258 1.6489c-2.7939 0-4.1787-0.9311-4.1787-2.666a2.2125 2.2125 0 0 1 1.8373-2.1528z"/>
    <path d="m1329.3 344.59v-7.8184a4.4729 4.4729 0 0 1 4.7588-4.6743 4.91 4.91 0 0 1 3.4952 1.2393 4.3074 4.3074 0 0 1 1.333 3.3066 4.8986 4.8986 0 0 1-1.3506 3.5547 4.4 4.4 0 0 1-3.0762 1.2393 2.9677 2.9677 0 0 1-2.042-0.709h-0.042v3.8623zm3.4258-6.3574a1.5431 1.5431 0 0 0 1.2989 0.5976c1.1367 0 1.77-0.82 1.77-2.0591 0-1.2563-0.5986-2.0849-1.752-2.0849a1.5917 1.5917 0 0 0-1.2988 0.5727 2.2457 2.2457 0 0 0-0.4873 1.4951 2.2861 2.2861 0 0 0 0.4692 1.4786z"/>
    <path d="m1340.5 344.59v-12.305h3.06v4.9219c0 1.0254 0.47 1.6064 1.2988 1.6064 0.6495 0 1.1709-0.53 1.1709-1.5557v-4.9726h3.0762v8.9805h-3.0254v-0.8374h-0.034a1.3673 1.3673 0 0 1-1.2646 0.9228 1.25 1.25 0 0 1-1.1875-0.82h-0.034v4.0591z"/>
    <path d="m1351.9 333.41a5.3319 5.3319 0 0 1 7.0157 0 4.818 4.818 0 0 1-0.01 6.7334 5.3336 5.3336 0 0 1-7.0147 0 4.8189 4.8189 0 0 1 0.01-6.7334zm2.2051 4.8018a1.6542 1.6542 0 0 0 1.3154 0.581 1.61 1.61 0 0 0 1.2989-0.5634 2.4417 2.4417 0 0 0-0.025-2.9141 1.744 1.744 0 0 0-2.6143-0.0171 2.25 2.25 0 0 0-0.4785 1.47 2.134 2.134 0 0 0 0.5039 1.4436z"/>
    <path d="m1361.8 341.26v-8.9805h3.06v2.8027l2.4-2.8027h3.461l-3.1875 3.5713 3.2734 5.4092h-3.3584l-1.9053-3.1534-0.6836 0.795v2.3584z"/>
    <path d="m1371.4 344.59v-7.8184a4.4743 4.4743 0 0 1 4.76-4.6743 4.91 4.91 0 0 1 3.4951 1.2393 4.3071 4.3071 0 0 1 1.333 3.3066 4.8981 4.8981 0 0 1-1.35 3.5547 4.4 4.4 0 0 1-3.0762 1.2393 2.9688 2.9688 0 0 1-2.043-0.709h-0.043v3.8623zm3.4268-6.3574a1.5416 1.5416 0 0 0 1.2988 0.5976c1.1367 0 1.7685-0.82 1.7685-2.0591 0-1.2563-0.5976-2.0849-1.7509-2.0849a1.5905 1.5905 0 0 0-1.2989 0.5727 2.2457 2.2457 0 0 0-0.4873 1.4951 2.2913 2.2913 0 0 0 0.47 1.4786z"/>
    <path d="m1382.2 336.77a5.9851 5.9851 0 0 1 0.333-2.0678 3.8641 3.8641 0 0 1 0.9053-1.47 3.927 3.927 0 0 1 2.8027-1.1367 3.0741 3.0741 0 0 1 2.4951 1.0684h0.043v-1.0169h3.0078v9.1172h-3.0078v-0.8887h-0.043a2.9005 2.9005 0 0 1-2.4434 1.0849 3.8433 3.8433 0 0 1-3.7509-2.6318 5.7316 5.7316 0 0 1-0.3418-2.0586zm3.5625 1.4868a1.7572 1.7572 0 0 0 1.333 0.5381 1.7071 1.7071 0 0 0 1.2822-0.5551 2.356 2.356 0 0 0 0-2.9566 1.7009 1.7009 0 0 0-1.2822-0.5469 1.7686 1.7686 0 0 0-1.3076 0.564 2.3124 2.3124 0 0 0-0.025 2.9565z"/>
    <path d="m1398.1 332.28h5.2979v2.3838h-1.7861v0.0342a2.135 2.135 0 0 1 1.0254 0.9228 2.8472 2.8472 0 0 1 0.3769 1.4014 4.5205 4.5205 0 0 1-4.88 4.4345 4.7485 4.7485 0 0 1-4.2119-2.1875 4.6274 4.6274 0 0 1 4.1777-6.9892zm-1.2382 5.9556a1.6827 1.6827 0 0 0 1.3066 0.5551 1.6528 1.6528 0 0 0 1.291-0.5381 2.0532 2.0532 0 0 0 0.4785-1.4013 2.083 2.083 0 0 0-0.4961-1.4185 1.7969 1.7969 0 0 0-2.6064-8e-3 2.0817 2.0817 0 0 0-0.4873 1.4268 1.9545 1.9545 0 0 0 0.5137 1.3843z"/>
    <path d="m1404.9 341.26v-8.9805h3.0761v8.9805zm0.5732-10.1 1.8535-3.29 2.5547 1.1021-2.3408 2.1875z"/>
    <path d="m1409.5 336.77a5.9875 5.9875 0 0 1 0.333-2.0678 3.8641 3.8641 0 0 1 0.9053-1.47 3.9271 3.9271 0 0 1 2.8027-1.1367 3.0739 3.0739 0 0 1 2.4951 1.0684h0.043v-1.0169h3.0078v9.1172h-3.0078v-0.8887h-0.043a2.9 2.9 0 0 1-2.4433 1.0849 3.8433 3.8433 0 0 1-3.751-2.6318 5.7338 5.7338 0 0 1-0.3418-2.0586zm3.5625 1.4868a1.7572 1.7572 0 0 0 1.333 0.5381 1.7071 1.7071 0 0 0 1.2822-0.5551 2.356 2.356 0 0 0 0-2.9566 1.7009 1.7009 0 0 0-1.2822-0.5469 1.7687 1.7687 0 0 0-1.3076 0.564 2.3124 2.3124 0 0 0-0.025 2.9565z"/>
   </g>
   <g fill="#fff">
    <path d="m1279.1 327.38c-12.423 9.3457-12.388 5.99 0 15.322a1.4776 1.4776 0 0 0 2.3134-1.3091v-12.703a1.4777 1.4777 0 0 0-2.3134-1.3095z"/>
    <path d="m1284.4 330.46c0.119 0.0866 3.6773-1.4643 3.8629-1.4993 0.8848-0.3247 0.3978-1.8491-0.5185-1.48l-3.6038 1.4487a0.8041 0.8041 0 0 0 0.2594 1.5306z"/>
    <path d="m1288.3 341.17-3.3976-2.0488c-0.8626-0.5165-1.5457 0.9193-0.7241 1.3771a37.994 37.994 0 0 0 3.759 2.1506 0.8057 0.8057 0 0 0 0.3627-1.4789z"/>
    <path d="m1289 334.02h-4.55a0.7921 0.7921 0 0 0 0 1.58h4.55c0.9581 0.016 0.9561-1.5956 0-1.58z"/>
   </g>
  </g>
 </g>
</svg>
