<?xml version="1.0" encoding="UTF-8"?>
<svg version="1.1" viewBox="0 0 137.79 40.167" xmlns="http://www.w3.org/2000/svg" xmlns:xlink="http://www.w3.org/1999/xlink">
 <title>09_water</title>
 <g id="_1_-_button-udratmoi" transform="translate(-909.53 -438.64)" style="isolation:isolate" data-name="1 - button-udratmoi">
  <rect x="912.28" y="442.52" width="135.04" height="32.379" rx="15.542" fill="#fff"/>
  <circle cx="929.61" cy="458.72" r="18.584" fill="#2e3192"/>
  <path d="m929.61 478.81a20.084 20.084 0 1 1 20.084-20.084 20.106 20.106 0 0 1-20.084 20.084zm0-37.167a17.084 17.084 0 1 0 17.084 17.084 17.103 17.103 0 0 0-17.084-17.084z" fill="#fff"/>
  <g fill="#2e3192">
   <path d="m953.54 452.68h3.7431l2.4 4.2553h0.0342l2.4189-4.2553h3.6747l-4.5205 7.4936v4.76h-3.2383v-4.76z"/>
   <path d="m966.59 457.52a3.8517 3.8517 0 0 1 2.77-1.1792 0.5515 0.5515 0 0 1 0.1621 0.0171l-2.7686-2.4781v-2.0674h7.3994v2.47h-3.0927l2.17 2.0762a7.3553 7.3553 0 0 1 1.53 1.9482 5.0464 5.0464 0 0 1 0.461 2.2388 4.3848 4.3848 0 0 1-2.2647 3.9389 5.1791 5.1791 0 0 1-2.6318 0.6495 4.9133 4.9133 0 0 1-3.5977-1.3838 4.5824 4.5824 0 0 1-1.2636-3.2046 4.1141 4.1141 0 0 1 1.1266-3.0256zm2.4444 4.3921a1.6442 1.6442 0 0 0 1.3242 0.5727 1.5759 1.5759 0 0 0 1.3076-0.5727 2.0833 2.0833 0 0 0 0.4609-1.3672 1.9806 1.9806 0 0 0-0.7343-1.6236 1.5233 1.5233 0 0 0-0.9659-0.3164 1.7393 1.7393 0 0 0-1.4267 0.5557 2.1145 2.1145 0 0 0-0.461 1.3843 1.9812 1.9812 0 0 0 0.4952 1.3675z"/>
   <path d="m976.51 468.26v-7.8188a4.4744 4.4744 0 0 1 4.76-4.6743 4.91 4.91 0 0 1 3.4951 1.2393 4.3071 4.3071 0 0 1 1.333 3.3066 4.8981 4.8981 0 0 1-1.35 3.5547 4.4 4.4 0 0 1-3.0761 1.2393 2.9686 2.9686 0 0 1-2.043-0.709h-0.043v3.8623zm3.4268-6.3574a1.5418 1.5418 0 0 0 1.2988 0.5976c1.1368 0 1.7686-0.82 1.7686-2.0591 0-1.2563-0.5977-2.0849-1.751-2.0849a1.59 1.59 0 0 0-1.2988 0.5727 2.2458 2.2458 0 0 0-0.4873 1.4952 2.2917 2.2917 0 0 0 0.4697 1.4785z"/>
   <path d="m987.28 460.44a5.9875 5.9875 0 0 1 0.333-2.0678 3.8641 3.8641 0 0 1 0.9053-1.47 3.9273 3.9273 0 0 1 2.8027-1.1367 3.0742 3.0742 0 0 1 2.4952 1.0684h0.0429v-1.0166h3.0078v9.1172h-3.0078v-0.8887h-0.0429a2.9006 2.9006 0 0 1-2.4434 1.085 3.8434 3.8434 0 0 1-3.751-2.6319 5.7338 5.7338 0 0 1-0.3418-2.0589zm3.5625 1.4869a1.7577 1.7577 0 0 0 1.333 0.538 1.7073 1.7073 0 0 0 1.2823-0.5551 2.3563 2.3563 0 0 0 0-2.9566 1.7011 1.7011 0 0 0-1.2823-0.5469 1.7687 1.7687 0 0 0-1.3076 0.564 2.3125 2.3125 0 0 0-0.0254 2.9566z"/>
   <path d="m998.16 458.57v-2.6143h7.8779v2.6143h-2.3838v6.3662h-3.0762v-6.3662z"/>
   <path d="m1007.4 468.26v-12.305h3.06v4.9219c0 1.0254 0.47 1.6064 1.2988 1.6064 0.6494 0 1.17-0.53 1.17-1.5556v-4.9727h3.0762v8.9805h-3.0244v-0.8374h-0.034a1.3684 1.3684 0 0 1-1.2646 0.9228 1.25 1.25 0 0 1-1.1875-0.82h-0.034v4.0591z"/>
   <path d="m1018.8 457.08a4.8746 4.8746 0 0 1 3.5205-1.3164 4.8249 4.8249 0 0 1 3.4952 1.3164 4.818 4.818 0 0 1-0.01 6.7334 5.3346 5.3346 0 0 1-7.0157 0 4.8177 4.8177 0 0 1 0.01-6.7334zm2.2051 4.8018a1.6539 1.6539 0 0 0 1.3154 0.581 1.6109 1.6109 0 0 0 1.2989-0.5634 2.4377 2.4377 0 0 0-0.025-2.9141 1.7451 1.7451 0 0 0-2.6153-0.0171 2.255 2.255 0 0 0-0.4785 1.47 2.14 2.14 0 0 0 0.5049 1.4436z"/>
   <path d="m1028.7 464.93v-8.9805h3.0762v8.9805zm0.5733-10.1 1.8535-3.29 2.5547 1.1021-2.3408 2.1875z"/>
  </g>
  <g fill="#fff">
   <path d="m928.43 451.05c-12.423 9.3457-12.388 5.99 0 15.322a1.4776 1.4776 0 0 0 2.3133-1.3091v-12.704a1.4777 1.4777 0 0 0-2.3133-1.3091z"/>
   <path d="m933.78 454.13c0.119 0.0865 3.6773-1.4644 3.8629-1.4994 0.8848-0.3247 0.3977-1.8491-0.5185-1.48l-3.6038 1.4494a0.8041 0.8041 0 0 0 0.2594 1.53z"/>
   <path d="m937.64 464.84-3.3976-2.0489c-0.8626-0.5164-1.5458 0.9193-0.7241 1.3772a38.014 38.014 0 0 0 3.759 2.1506 0.8057 0.8057 0 0 0 0.3627-1.4789z"/>
   <path d="m938.33 457.69h-4.55a0.7921 0.7921 0 0 0 0 1.58h4.55c0.9581 0.0159 0.9558-1.5954 0-1.58z"/>
  </g>
 </g>
</svg>
