<?xml version="1.0" encoding="utf-8"?>
<!-- Generator: Adobe Illustrator 24.0.3, SVG Export Plug-In . SVG Version: 6.00 Build 0)  -->
<svg version="1.1" id="Layer_1" xmlns="http://www.w3.org/2000/svg" xmlns:xlink="http://www.w3.org/1999/xlink" x="0px" y="0px"
	 viewBox="0 0 2045 1421" style="enable-background:new 0 0 2045 1421;" xml:space="preserve">
<style type="text/css">
	.st0{clip-path:url(#SVGID_2_);fill:#2ECCFD;}
	.st1{clip-path:url(#SVGID_6_);fill:#06632C;}
	.st2{clip-path:url(#SVGID_8_);}
	.st3{fill:#FFFFFF;}
	.st4{fill:#FD595E;}
	.st5{fill:#FDE054;}
	.st6{fill:#1BD469;}
	.st7{fill:#059240;}
	.st8{fill:#06632C;}
	.st9{fill:none;stroke:#FFFFFF;stroke-width:1.5752;stroke-linecap:round;stroke-linejoin:round;stroke-miterlimit:10;}
	.st10{fill:#0C355C;}
	.st11{fill:#FCC12C;}
	.st12{fill:none;stroke:#0C355C;stroke-width:3.1503;stroke-miterlimit:10;}
	.st13{fill:#778997;}
	.st14{fill:#5CB4D9;}
	.st15{fill:#FCC12C;stroke:#0C355C;stroke-width:3.1503;stroke-miterlimit:10;}
	.st16{opacity:0.4;fill:#FCC12C;enable-background:new    ;}
	.st17{fill:none;stroke:#0C355C;stroke-width:1.5752;stroke-linecap:round;stroke-linejoin:round;stroke-miterlimit:10;}
	.st18{opacity:0.25;fill:#778997;enable-background:new    ;}
	.st19{fill:#005588;}
	.st20{fill:#FDB0A4;}
	.st21{opacity:0.32;fill:#ED514E;enable-background:new    ;}
	.st22{fill:#0B0608;}
	.st23{fill:#99303E;}
	.st24{fill:#EC3759;}
	.st25{fill:#FDBFB6;}
	.st26{fill:#FD7D9E;}
	.st27{fill:#FDECEB;}
	.st28{fill:#F878A1;}
	.st29{opacity:0.41;fill:#EF4B4B;enable-background:new    ;}
	.st30{fill:#5F353C;}
	.st31{fill:#7E242D;}
	.st32{opacity:0.41;fill:#F05784;enable-background:new    ;}
	.st33{fill:#CD5D55;}
	.st34{fill:#320000;}
	.st35{fill:#D7334A;}
	.st36{fill:#D2335E;}
	.st37{fill:#F8E0DF;}
	.st38{fill:none;stroke:#02B631;stroke-width:3.6116;stroke-linecap:round;stroke-linejoin:round;stroke-miterlimit:10;}
	.st39{fill:#E35C60;}
	.st40{fill:#FDD40A;}
	.st41{fill:#F76C25;}
	.st42{fill:none;stroke:#FFFFFF;stroke-width:1.7056;stroke-linecap:round;stroke-linejoin:round;stroke-miterlimit:10;}
	.st43{fill:none;stroke:#FFFFFF;stroke-width:2;stroke-linecap:round;stroke-linejoin:round;stroke-miterlimit:10;}
	.st44{fill:none;stroke:#FFFFFF;stroke-width:1.5;stroke-linecap:round;stroke-linejoin:round;stroke-miterlimit:10;}
	.st45{fill:#93ACBD;}
	.st46{fill:none;stroke:#013566;stroke-width:1.274;stroke-linecap:round;stroke-linejoin:round;stroke-miterlimit:10;}
	.st47{fill:#013566;}
	.st48{opacity:0.5;fill:#FD7D9E;enable-background:new    ;}
	.st49{opacity:0.5;fill:#FFFFFF;enable-background:new    ;}
	
		.st50{opacity:0.25;fill:none;stroke:#013566;stroke-width:0.637;stroke-linecap:round;stroke-linejoin:round;stroke-miterlimit:10;enable-background:new    ;}
	.st51{opacity:0.75;fill:#FCC12C;enable-background:new    ;}
	.st52{fill:none;stroke:#FFFFFF;stroke-width:1.5079;stroke-linecap:round;stroke-linejoin:round;}
	
		.st53{fill:none;stroke:#FFFFFF;stroke-width:1.5079;stroke-linecap:round;stroke-linejoin:round;stroke-dasharray:13.8915,10.8045;}
	
		.st54{fill:none;stroke:#FFFFFF;stroke-width:1.5079;stroke-linecap:round;stroke-linejoin:round;stroke-miterlimit:10;stroke-dasharray:13.5714,10.5555;}
	.st55{fill:none;stroke:#FFFFFF;stroke-width:1.5079;stroke-linecap:round;stroke-linejoin:round;stroke-miterlimit:10;}
	.st56{opacity:0.2;clip-path:url(#SVGID_10_);}
	.st57{opacity:0.1;clip-path:url(#SVGID_12_);fill:#FFFFFF;enable-background:new    ;}
	
		.st58{clip-path:url(#SVGID_14_);fill:none;stroke:#FFFFFF;stroke-width:2.325;stroke-miterlimit:10;stroke-dasharray:9.2999,9.2999,9.2999,9.2999,9.2999,9.2999;}
</style>
<g id="Layer_1_1_">
</g>
<g id="Layer_2_1_">
	<g>
		<g>
			<g>
				<defs>
					<rect id="SVGID_1_" x="0.5" y="0.5" width="2044.8" height="1422.8"/>
				</defs>
				<clipPath id="SVGID_2_">
					<use xlink:href="#SVGID_1_"  style="overflow:visible;"/>
				</clipPath>
				<rect x="-1" y="-2.4" class="st0" width="2047.2" height="1070.1"/>
			</g>
			<g>
				<defs>
					<rect id="SVGID_3_" x="0.5" y="0.5" width="2044.8" height="1422.8"/>
				</defs>
				<clipPath id="SVGID_4_">
					<use xlink:href="#SVGID_3_"  style="overflow:visible;"/>
				</clipPath>
			</g>
			<g>
				<defs>
					<rect id="SVGID_5_" x="0.5" y="0.5" width="2044.8" height="1422.8"/>
				</defs>
				<clipPath id="SVGID_6_">
					<use xlink:href="#SVGID_5_"  style="overflow:visible;"/>
				</clipPath>
				<rect x="0.5" y="223.8" class="st1" width="2045.4" height="1199.4"/>
			</g>
			<g>
				<defs>
					<rect id="SVGID_7_" x="0.5" y="0.5" width="2044.8" height="1422.8"/>
				</defs>
				<clipPath id="SVGID_8_">
					<use xlink:href="#SVGID_7_"  style="overflow:visible;"/>
				</clipPath>
				<g class="st2">
					<path class="st3" d="M215.8,109.7c-0.1-0.6-0.2-1.2-0.5-1.8c-0.1-0.2-0.2-0.5-0.3-0.7c-0.8-1.3-2-2.5-3.5-3.5
						c-0.8-0.5-1.6-0.9-2.5-1.1c-0.4-0.1-0.7-0.2-1.1-0.3c-0.2,0-0.4-0.1-0.6-0.1c-0.4,0-0.9-0.1-1.3-0.1c-0.4,0-0.9,0-1.3,0.1
						c-1.1,0.2-2.1,0.5-3.1,1l0,0c0-0.3,0-0.7,0-1c0-0.1,0-0.2,0-0.3c0-0.2,0-0.5,0-0.7c0-0.1,0-0.3,0-0.4c0-0.2,0-0.4-0.1-0.7
						c0-0.1,0-0.3,0-0.4c0-0.2-0.1-0.5-0.1-0.7s-0.1-0.3-0.1-0.5s-0.1-0.5-0.1-0.7s-0.1-0.3-0.1-0.5S201,97,201,96.8
						s-0.1-0.4-0.1-0.5s-0.1-0.3-0.1-0.4c-0.1-0.2-0.1-0.4-0.2-0.6c0-0.1-0.1-0.2-0.1-0.3c-0.1-0.4-0.3-0.9-0.5-1.3
						c0,0,0-0.1-0.1-0.1c-0.1-0.2-0.2-0.4-0.3-0.6c0-0.1-0.1-0.2-0.1-0.3c-0.1-0.2-0.2-0.4-0.3-0.6c0-0.1-0.1-0.2-0.1-0.3
						c-0.1-0.2-0.2-0.4-0.3-0.6l-0.1-0.1c-0.9-1.5-1.9-2.9-3.2-4c-4.4-4-11.7-5.2-16.4-1.4c-4.5-7-13.1-11.1-21.3-10.1
						s-15.7,6.9-18.4,14.7c-7.7-1.9-15.3,0.2-21.2,4.7l0,0c-0.3,0.2-0.5,0.4-0.7,0.6c-0.1,0-0.1,0.1-0.2,0.1
						c-0.2,0.2-0.4,0.4-0.7,0.6c-0.1,0.1-0.1,0.1-0.2,0.2c-0.2,0.2-0.4,0.4-0.6,0.6c-0.1,0.1-0.2,0.1-0.2,0.2
						c-0.2,0.2-0.4,0.4-0.6,0.6c-0.1,0.1-0.2,0.2-0.2,0.2c-0.1,0.1-0.2,0.2-0.3,0.3v-0.1c-0.1-0.2-0.2-0.5-0.4-0.7
						c-0.8-1.4-2.1-2.6-3.7-3.6c-1.2-0.7-2.4-1.2-3.8-1.4c-0.4-0.1-0.9-0.1-1.4-0.1s-0.9,0-1.4,0c-0.2,0-0.5,0-0.7,0.1
						c-1.1,0.2-2.2,0.5-3.2,1l0,0c0-0.4,0-0.7,0-1.1c0-0.1,0-0.2,0-0.3c0-0.2,0-0.5,0-0.7c0-0.1,0-0.3,0-0.4c0-0.2,0-0.5-0.1-0.7
						c0-0.1,0-0.3,0-0.4c0-0.3-0.1-0.5-0.1-0.8c0-0.2-0.1-0.3-0.1-0.5s-0.1-0.5-0.1-0.7s-0.1-0.3-0.1-0.5s-0.1-0.3-0.1-0.5
						s-0.1-0.4-0.1-0.6c0-0.1-0.1-0.3-0.1-0.4c-0.1-0.2-0.1-0.4-0.2-0.6c0-0.1-0.1-0.2-0.1-0.3c-0.1-0.4-0.3-0.9-0.5-1.3
						c0-0.1,0-0.1-0.1-0.2c-0.1-0.2-0.2-0.4-0.3-0.6c0-0.1-0.1-0.2-0.1-0.3c-0.1-0.2-0.2-0.4-0.3-0.6c0-0.1-0.1-0.2-0.1-0.3
						c-0.1-0.2-0.2-0.4-0.3-0.6L97,81.1c-0.3-0.5-0.6-1-0.9-1.4l0,0l0,0c-0.7-1-1.5-1.9-2.4-2.8c-4.6-4.2-12.2-5.4-17-1.5
						c-5-7.4-14-11.7-22.5-10.7c-8.6,1-16.3,7.2-19.1,15.3c-8.3-2.1-16.6,0.4-22.8,5.5c-0.1,0-0.1,0.1-0.2,0.1
						c-0.2,0.2-0.5,0.4-0.7,0.6c-0.1,0.1-0.1,0.1-0.2,0.2c-0.2,0.2-0.4,0.4-0.6,0.6c-0.1,0.1-0.2,0.2-0.2,0.2
						c-0.2,0.2-0.4,0.4-0.6,0.6c-0.1,0.1-0.2,0.2-0.2,0.3c-0.2,0.2-0.4,0.4-0.6,0.6C8.8,88.9,8.7,89,8.7,89
						c-0.2,0.2-0.4,0.5-0.6,0.7L8,89.8c-0.4,0.5-0.8,1-1.2,1.6c0,0.1-0.1,0.1-0.1,0.2c-0.1,0.2-0.3,0.4-0.4,0.6S6.1,92.5,6,92.7
						c-0.1,0.2-0.2,0.4-0.3,0.6c-0.1,0.2-0.2,0.4-0.3,0.5c-0.1,0.2-0.2,0.4-0.3,0.5c-0.1,0.2-0.2,0.4-0.3,0.6
						c-0.1,0.2-0.2,0.3-0.3,0.5c-0.1,0.1-0.1,0.2-0.2,0.4c-1.2-0.7-2.5-1.3-3.9-1.6v34.1c2.3,0.8,4.7,1.2,7.2,1l0,0l0.7,0.1
						c-0.1-0.1-0.3-0.1-0.4-0.2c2.1-0.2,4.2-0.7,6.2-1.7c0.1,0,0.3,0.1,0.4,0.1c0.2,0,0.3,0.1,0.5,0.1c0.8,0.1,1.7,0.2,2.5,0.2
						c4.8,0.1,9.6,0.2,14.5,0.2c2.5,0,5,0.1,7.5,0.1c1.7,0,3.3,0,5,0s3.3,0,5,0s3.3-0.1,5-0.1c1.7-0.1,3.3-0.2,5-0.3
						c1.7-0.1,3.3-0.3,5-0.4c2.5-0.3,5-0.6,7.4-1c0.3,0,0.6-0.1,0.8-0.2c0.8-0.2,1.6-0.6,1.9-1.4c0.1-0.2,0.1-0.5,0.1-0.7
						c0-0.4-0.2-0.8-0.5-1.2c-0.1-0.1-0.2-0.2-0.3-0.3c-0.1-0.1-0.2-0.2-0.3-0.2c-0.1,0-0.1-0.1-0.2-0.1c-0.9-0.5-1.9-0.6-2.9-0.6
						c6.1-0.3,12.2-0.6,18.2-0.9c2.2-0.1,4.3-0.2,6.5-0.3c0.4,0.4,0.9,0.8,1.4,1.2c1.7,1.2,3.5,2.1,5.4,2.9c0.2,0.1,0.5,0.2,0.7,0.3
						c0.5,0.2,1,0.3,1.5,0.5c0.5,0.1,1,0.3,1.5,0.4c4,1,8.2,1.3,12.4,1.4c0.3,0,0.5,0,0.8,0c0.5,0,1,0,1.6,0c1.4,0,2.7,0.1,4.1,0.1
						s2.7,0,4.1-0.1c2.4-0.1,4.8-0.4,7.1-0.9c0.3-0.1,0.7-0.1,1-0.2c5.3-1.3,10.5-4,13.7-8.4c0.8,1.1,1.8,1.9,3,2.5
						c0.5,0.2,0.9,0.4,1.4,0.6c0.3,0.1,0.5,0.2,0.8,0.2c2.1,0.6,4.3,0.8,6.5,0.9c5.7,0.3,11.4,0.4,17,0.3c7.3-0.2,14.6-0.9,21.7-2.5
						c4.3-1,10-1.6,13.1-5.1C215.5,113,216,111.3,215.8,109.7z"/>
					<g>
						<g>
							<path class="st4" d="M1467.9,130.8l-21.6,12.1c-4.8-8.6-49.2-83.5-118.9-59.4c-21,7.3-36.7,22.5-46.7,45.2
								c-7.8,17.8-9,33.7-9,33.9l-24.7-1.7c0.2-3.2,5.8-77.9,72.3-100.9c35.3-12.2,70.7-6.2,102.3,17.5
								C1448,97.4,1463.7,123.3,1467.9,130.8z"/>
						</g>
						<g>
							<path class="st5" d="M1459.4,142.2l-19.5,10.9c-4.4-7.8-44.4-75.4-107.3-53.6c-19,6.6-33.2,20.3-42.2,40.8
								c-7,16.1-8.1,30.5-8.1,30.6l-22.3-1.5c0.2-2.9,5.3-70.3,65.3-91.1c31.9-11.1,63.8-5.6,92.3,15.8
								C1441.4,112.1,1455.6,135.5,1459.4,142.2z"/>
						</g>
						<g>
							<path class="st6" d="M1443.8,149.5l-16,9c-3.6-6.4-36.5-62-88.2-44c-15.6,5.4-27.3,16.7-34.6,33.6c-5.8,13.2-6.7,25-6.7,25.2
								l-18.4-1.2c0.2-2.4,4.3-57.8,53.7-74.9c26.2-9.1,52.5-4.6,75.9,13C1429.1,124.8,1440.7,144,1443.8,149.5z"/>
						</g>
					</g>
					<path class="st7" d="M800.2,188.8c-327.1,8.9-522-61.4-799.7-20.2v65.5H2047v-109C1534.5,84.9,1166,178.8,800.2,188.8z"/>
					<path class="st8" d="M1978.4,147.9c-5.4-3.4-16.9-2.7-20.2,1.2c-45.2,52.1-186.7,35.4-284.4,20.7
						c-138.4-20.1-276.8,13.4-405.4,35.7c-41.9,7.3-97.6,9.4-139-0.2c-7.8-1.8-21.8-6.4-25.5-14.1c-2-4.2-12.4-6.5-20.8-4.4
						c-104,26-223.7,29.8-341.1,24.9c-122-5.1-245.7-23.4-368.9-17.7c-38.1,1.8-75.2,6.1-111.7,11.2c-36.6,5.1-69.2,10-108.1,6.4
						c-18.6-1.7-39.7-4.8-34.5-18.4c2.5-6.5,19.3-10.4,34-16.1c3.7-1.4,0.6-4.1-4.1-3.6C90.3,180,40.1,193.9-6.4,211.2v22.6H2047
						v-58.2C2020.3,168.6,1996.7,159.6,1978.4,147.9z"/>
					<g>
						<g>
							<g>
								<g>
									<path class="st9" d="M1660.3,105.1c18.2,13.4,42.6,18,64.4,11.9"/>
									<path class="st9" d="M1657.6,93.5c6.4,5.3,14.1,8.9,22.2,10.5"/>
									<path class="st9" d="M1698.7,107c7,2.2,14.7,2,21.6-0.5"/>
									<path class="st9" d="M1677.3,93.5c12.4,4.7,26,6.4,39.2,4.8"/>
									<path class="st9" d="M1668.5,85.4c2.7-2,4.4-5.3,4.3-8.6c-0.2-3.3-2.4-6.5-5.5-7.6c-3.2-1-7,0.4-8.5,3.3
										c-0.6-3.4-3.5-6.1-6.8-7.2s-6.9-0.7-10.2,0.3c-2.1,0.6-4.2,1.5-5.7,3.1c-2.6,2.7-3,7.3-1.1,10.6c1.9,3.3,5.6,5.4,9.4,5.7
										c-6-0.5-12.1,3.2-14.5,8.7s-0.8,12.5,3.6,16.5c4.5,4,11.6,4.8,16.8,1.8"/>
									<path class="st9" d="M1634.7,71.5c3.9-2.1,7.7-4.2,11.6-6.3"/>
									<path class="st9" d="M1634.1,74.2c4.2-2.3,8.5-4.3,12.9-6"/>
									<path class="st9" d="M1634,77.7c4.7-2.3,9.5-4.4,14.4-6.4"/>
									<path class="st9" d="M1636.3,81c4.4-1.7,8.7-3.6,12.9-5.7"/>
									<path class="st9" d="M1641.5,83.6c3.2-1.4,6.4-2.8,9.5-4.3"/>
									<path class="st9" d="M1644,85.3c2.4-0.9,4.8-1.9,7.2-2.9"/>
									<path class="st9" d="M1631.1,92.3c2.5-1.6,5-2.9,7.7-4"/>
									<path class="st9" d="M1629,97.1c3-2.2,6.3-4.1,9.7-5.6"/>
									<path class="st9" d="M1629.2,101c3.2-1.6,6.4-3.2,9.6-4.9"/>
									<path class="st9" d="M1629.8,105c3.4-2.1,7-4.1,10.6-5.9"/>
									<path class="st9" d="M1632,108.8c3.6-1.8,7.1-3.8,10.5-5.9"/>
									<path class="st9" d="M1635.9,112.1c3.3-1.7,6.4-3.5,9.6-5.4"/>
									<path class="st9" d="M1641.2,113.4c3.1-1.6,6.1-3.3,9-5"/>
									<path class="st9" d="M1647.7,112.9c2.5-1.6,5.1-3.3,7.6-4.9"/>
									<path class="st9" d="M1660,81.8c1.6-0.9,3.3-1.7,5-2.4"/>
									<path class="st9" d="M1661.4,84.5c2.3-1.3,4.6-2.4,6.9-3.5"/>
									<path class="st9" d="M1663.1,86.4c1.9-0.7,3.8-1.6,5.5-2.7"/>
									<path class="st9" d="M1672.9,107.4c11.5,4.7,23.9,6.9,36.2,6.6"/>
									<path class="st9" d="M1686.2,101.2c5.1,1.5,10.4,2.5,15.8,2.8"/>
									<path class="st9" d="M1673.7,84.7c2-0.9,4.4-1,6.5-0.2c0.4,0.2,0.9,0.4,1.2,0.7c0.4,0.4,0.5,1,0.6,1.5
										c0.1,1.4-0.5,2.7-1.3,3.8c-0.8,1.1-1.9,1.9-3,2.7"/>
								</g>
							</g>
							<g>
								<g>
									<path class="st3" d="M1923,48.7c-0.2-3.5-2.3-7.4-5.2-8.3c-6.4-2.1-4.9,10.2-2.8,12.8c1.7,2.1,4.6,2.1,6.5,0.1
										C1922.7,52.2,1923.1,50.5,1923,48.7z"/>
									<g>
										<path class="st10" d="M1915.6,40.4c-0.4,1.4-0.7,2.6-0.9,3.7c-0.2,1.2-0.2,2.3-0.2,3.4c0,1.1,0.1,2.2,0.3,3.4
											c0.2,1.2,0.5,2.3,0.9,3.7c-1.4-0.5-2.5-1.6-3.3-2.8c-0.7-1.3-1.1-2.8-1.1-4.3s0.3-3,1.1-4.3
											C1913.1,42.1,1914.2,40.9,1915.6,40.4z"/>
									</g>
								</g>
								<path class="st11" d="M1909.3,45.7c-9.3-4-19.2,1.3-27.4,5.6c-4.2,2.2-8.2,4.6-12.2,7.2c1-5.7,1.9-11.4,1-16.9
									c-1.2-7.9-6.8-13.7-13.5-17.6c-7.6-4.4-18.3-6.8-27-6.6c-45.8,1.5-87.3,14.2-112,31.9c-2.8,2-4.7,3.7-4.3,7.4
									c0.6,5.4,2.8,11.1,4.3,16.3c4.6,16.3,9.4,32.6,15.1,48.5c1,2.9,2.9,5.2,6.3,4.5c28.2-6,56.8-10.3,85.6-12.6
									c28.3-2.4,56.7-2.9,85-3.6c1.7,0,4-1.3,4.2-3.3c1.7-11.9,3-23.9,3.8-35.9C1918.9,61.1,1919.4,50,1909.3,45.7z"/>
								<path class="st12" d="M1905.3,72.6c-60.4,4.6-124.5,7.1-177.4,32.6"/>
								<path class="st12" d="M1730,112c53.9-21.1,115.3-29.4,174.6-30.2"/>
								<path class="st13" d="M1918.3,70.4c0.3-4.6,0.6-9.7-0.5-14.1c-17.9,2.7-13.4,32.5-13.4,53.5c1.9,0,3.8-0.1,5.8-0.2
									c1.7,0,4-1.3,4.2-3.3C1916.2,94.4,1917.5,82.5,1918.3,70.4z"/>
								<path class="st14" d="M1862.2,27.4c-5.6-0.5-11.3-0.4-16.9,0.2c2.7,12.5,4.4,25.4,7.2,38.3c5.3-3.6,11.4-6.3,17.5-9.1
									c0.9-5.1,1.5-10.3,0.7-15.3C1869.9,35.7,1866.6,31,1862.2,27.4z"/>
								<path class="st11" d="M1761.9,75.1c3.7-1.3,7.4-2.5,11.2-3.6c-3.6-11.6-5.3-23.6-5.7-35.7c-4.4,1.3-8.7,2.7-12.9,4.3
									C1755.7,52.1,1757.7,64,1761.9,75.1z"/>
								<path class="st14" d="M1731.9,89.2c9.6-5.5,19.6-10.4,30-14.1c-4.2-11.1-6.2-23-7.5-35c-11.2,4.1-22,9.3-32.1,15.5
									C1723.2,67.3,1726.6,78.6,1731.9,89.2z"/>
								<path class="st15" d="M1843.7,35.3c-1.8-4.4-27.9-3.2-28.3,3.9c-1.5,25.9,4.4,53.4,10.3,73.1c7.8-0.6,15.6-1.1,23.5-1.6
									C1849.1,109.3,1849.8,54.2,1843.7,35.3z"/>
								<path class="st14" d="M1842.2,63.4c-0.7-8.3-1.7-16.6-2.7-25c0-0.2-0.2-0.4-0.4-0.3c-1.3,0.1-2.6,0.2-3.9,0.3
									c-1.5,0.1-2.9,0.3-4.3,0.5c-0.2,0-0.4,0.2-0.3,0.4c1,8.4,1.6,16.8,2.2,25.2c0,0.2,0.2,0.4,0.4,0.4c2.9-0.4,5.8-0.8,8.7-1.1
									C1842,63.8,1842.2,63.6,1842.2,63.4z"/>
								<path class="st16" d="M1725.9,98.9c2.3,7.6,4.8,15.1,7.5,22.6c1,2.9,2.9,5.2,6.3,4.5c28.2-6,56.8-10.3,85.6-12.6
									c26.3-2.2,52.8-2.8,79.2-3.5c0-7.2-0.7-14.7-0.8-21.9C1847.1,106,1784.6,106.9,1725.9,98.9z"/>
								<path class="st14" d="M1843.6,72.6c-1,0.1-2,0.2-3,0.4c-2,0.3-4,0.5-6,0.8c1.1,8.5,2.4,17,3.5,25.5c0.2,1.4,0.4,2.8,0.6,4.2
									c0.1,0,0.2,0,0.4,0c1.8-0.2,3.7-0.4,5.5-0.6c0-1.8,0.1-3.6,0-5.3C1844.4,89.1,1844,80.8,1843.6,72.6z"/>
								<path class="st14" d="M1820.4,66.4c2.6-0.6,5.4-0.8,7.9-1c0.2,0,0.4-0.2,0.4-0.4c-0.7-8.4-1.1-16.7-1.5-25.1
									c0-0.2-0.2-0.4-0.5-0.4c-2.4,0.4-4.8,0.7-7.2,1c-0.2,0-0.4,0.2-0.4,0.4c-0.1,5-0.3,10,0,15c0.2,3.4,0.4,6.8,0.8,10.2
									C1819.9,66.3,1820.2,66.5,1820.4,66.4z"/>
								<path class="st14" d="M1830.6,74.1c-2.8,0.3-5.6,0.5-8.5,0.5c0.1,0.4,0.1,0.9,0.2,1.3c1.4,9.2,3.4,18.2,5.2,27.3
									c0.1,0.5,0.2,0.9,0.3,1.4c2.2-0.6,4.5-0.8,6.7-1c-0.1-1.4-0.3-2.9-0.5-4.3C1832.9,91,1831.6,82.6,1830.6,74.1z"/>
								<path class="st9" d="M1842.2,63.4c-0.7-8.3-1.7-16.6-2.7-25c0-0.2-0.2-0.4-0.4-0.3c-1.3,0.1-2.6,0.2-3.9,0.3
									c-1.5,0.1-2.9,0.3-4.3,0.5c-0.2,0-0.4,0.2-0.3,0.4c1,8.4,1.6,16.8,2.2,25.2c0,0.2,0.2,0.4,0.4,0.4c2.9-0.4,5.8-0.8,8.7-1.1
									C1842,63.8,1842.2,63.6,1842.2,63.4z"/>
								<path class="st9" d="M1843.6,72.6c-1,0.1-2,0.2-3,0.4c-2,0.3-4,0.5-6,0.8c1.1,8.5,2.4,17,3.5,25.5c0.2,1.4,0.4,2.8,0.6,4.2
									c0.1,0,0.2,0,0.4,0c1.8-0.2,3.7-0.4,5.5-0.6c0-1.8,0.1-3.6,0-5.3C1844.4,89.1,1844,80.8,1843.6,72.6z"/>
								<path class="st9" d="M1820.4,66.4c2.6-0.6,5.4-0.8,7.9-1c0.2,0,0.4-0.2,0.4-0.4c-0.7-8.4-1.1-16.7-1.5-25.1
									c0-0.2-0.2-0.4-0.5-0.4c-2.4,0.4-4.8,0.7-7.2,1c-0.2,0-0.4,0.2-0.4,0.4c-0.1,5-0.3,10,0,15c0.2,3.4,0.4,6.8,0.8,10.2
									C1819.9,66.3,1820.2,66.5,1820.4,66.4z"/>
								<path class="st9" d="M1830.6,74.1c-2.8,0.3-5.6,0.5-8.5,0.5c0.1,0.4,0.1,0.9,0.2,1.3c1.4,9.2,3.4,18.2,5.2,27.3
									c0.1,0.5,0.2,0.9,0.3,1.4c2.2-0.6,4.5-0.8,6.7-1c-0.1-1.4-0.3-2.9-0.5-4.3C1832.9,91,1831.6,82.6,1830.6,74.1z"/>
								<path class="st14" d="M1767.4,35.8c0.4,12.1,2.1,24.1,5.7,35.7c10.5-2.9,21.2-4.5,31.9-4.6c-1.3-13.1-0.8-25.8,0.5-38.6
									C1792.6,29.7,1779.8,32.2,1767.4,35.8z"/>
								<path class="st9" d="M1862.2,27.4c-1.7-0.1-3.3-0.2-5-0.3l13.2,13C1869.3,35,1866.2,30.7,1862.2,27.4z"/>
								<path class="st9" d="M1870,56.8c0.4-2.4,0.8-4.9,0.9-7.3l-21-22.3c-1.6,0.1-3.1,0.2-4.7,0.4c1,4.7,1.9,9.4,2.7,14.2
									l15.8,17.8C1865.9,58.7,1868,57.7,1870,56.8z"/>
								<path class="st9" d="M1863.8,59.6L1848,41.8c0.7,3.8,1.3,7.6,2,11.4l8.6,9.1C1860.3,61.4,1862.1,60.5,1863.8,59.6z"/>
								<path class="st9" d="M1858.6,62.3l-8.6-9.1c0.8,4.2,1.5,8.5,2.5,12.7C1854.5,64.6,1856.5,63.4,1858.6,62.3z"/>
								<path class="st9" d="M1870.8,41.5c-0.1-0.5-0.2-0.9-0.3-1.4l-13.2-13c-2.4-0.1-4.9,0-7.3,0.1l21,22.3
									C1871.2,46.8,1871.2,44.1,1870.8,41.5z"/>
								<path class="st9" d="M1754.4,40.1c-3.7,1.4-7.4,2.9-11.1,4.5l13.1,10.3C1755.6,50,1754.9,45.1,1754.4,40.1z"/>
								<path class="st9" d="M1731.9,89.2c2.9-1.7,5.8-3.2,8.8-4.8l-15.1-11C1727.2,78.8,1729.3,84.1,1731.9,89.2z"/>
								<path class="st9" d="M1723.8,54.7c-0.5,0.3-1,0.6-1.5,0.9c0.5,6,1.6,12,3.3,17.8l15.1,11c4.8-2.5,9.7-4.8,14.8-6.8
									L1723.8,54.7z"/>
								<path class="st9" d="M1759,66.1l-23.1-18c-4.1,2.1-8.2,4.3-12.2,6.6l31.7,22.8c2.1-0.9,4.3-1.7,6.4-2.5
									C1760.8,72.1,1759.9,69.2,1759,66.1z"/>
								<path class="st9" d="M1756.5,54.9l-13.1-10.3c-2.5,1.1-5,2.3-7.4,3.5l23.1,18C1758,62.4,1757.2,58.7,1756.5,54.9z"/>
								<path class="st9" d="M1805.4,28.3c-2.9,0.3-5.8,0.7-8.8,1.1l8,8.1C1804.9,34.5,1805.1,31.4,1805.4,28.3z"/>
								<path class="st9" d="M1804.7,37.6l-8-8.1c-2.6,0.4-5.2,0.8-7.8,1.3l15.4,16.4C1804.3,43.9,1804.5,40.8,1804.7,37.6z"/>
								<path class="st9" d="M1804.2,47.1l-15.4-16.4c-7.3,1.3-14.5,3-21.5,5.1c0,0.9,0.1,1.7,0.1,2.6l30.8,28.8
									c2.2-0.1,4.4-0.2,6.7-0.2C1804.3,60.3,1804.1,53.7,1804.2,47.1z"/>
								<path class="st9" d="M1767.5,38.4c0.3,5.2,0.8,10.3,1.6,15.4l15.1,15.2c4.7-0.9,9.4-1.5,14.2-1.8L1767.5,38.4z"/>
								<path class="st9" d="M1769,53.8c0.9,6,2.2,11.9,4,17.7c3.7-1,7.4-1.8,11.1-2.5L1769,53.8z"/>
								<path class="st10" d="M1765,108.1c-7.7-4.8-18.3-1.8-21.1,6.8c-3,9,5.2,19.9,15.2,19.2C1773.4,133.2,1776.1,115,1765,108.1z
									"/>
								<path class="st13" d="M1758.1,125.7c-2,0-4-1-5.2-2.8c-2.5-3.8-0.3-8.7,4.4-8.7c1.2,0,2.4,0.3,3.4,1
									c2.6,1.6,3.2,4.5,2.6,6.6C1762.6,124.5,1760.4,125.8,1758.1,125.7z"/>
								<path class="st10" d="M1894.1,100.9c-4.9-9.9-20.8-13.7-26.6-1.3c-4,8.5,1.5,18.4,10.4,20.9c8.2,2.4,15.4-1.7,17.4-9.9
									C1896,107,1895.5,103.7,1894.1,100.9z"/>
								<path class="st13" d="M1881.9,112.7c-0.7,0-1.4-0.1-2.1-0.3c-2.1-0.6-3.8-2.1-4.7-4.1c-0.7-1.7-0.8-3.4,0-5
									c1-2.1,2.6-3.2,4.7-3.2c2.7,0,5.5,1.7,6.7,4.1c0.6,1.3,0.8,2.7,0.4,4.1C1886.3,111.2,1884.5,112.7,1881.9,112.7
									L1881.9,112.7z"/>
								<g>
									<path class="st3" d="M1906,49.2c-0.2-3.5-2.3-7.4-5.2-8.3c-6.4-2.1-4.9,10.2-2.8,12.8c1.7,2.1,4.6,2.1,6.5,0.1
										C1905.6,52.7,1906,51,1906,49.2z"/>
									<g>
										<path class="st10" d="M1898.5,41c-0.4,1.4-0.7,2.6-0.9,3.7c-0.2,1.2-0.2,2.3-0.2,3.4c0,1.1,0.1,2.2,0.3,3.4
											c0.2,1.2,0.5,2.3,0.9,3.7c-1.4-0.5-2.5-1.6-3.3-2.8c-0.7-1.3-1.1-2.8-1.1-4.3s0.3-3,1.1-4.3
											C1896.1,42.6,1897.2,41.5,1898.5,41z"/>
									</g>
								</g>
								<g>
									<path class="st17" d="M1903.6,109.5c0.3-9.3,0.5-18.7,0.8-28c0.2-6.9,0.5-14.2,4.3-20c1.9-2.9,4.9-5.4,8.4-5.6"/>
									<path class="st17" d="M1908,62.8c3.2-0.9,6.5-1.5,9.8-2"/>
									<path class="st17" d="M1905.8,68.7c4.1-0.7,7.7-1.1,11.8-1.5"/>
									<path class="st17" d="M1904.3,73.1c4.5-0.7,8.9-1.3,13.4-2"/>
									<path class="st17" d="M1904.5,77.3c4.4-0.5,8.5-0.9,12.9-1.3"/>
									<path class="st17" d="M1904.3,84.1c4.1-0.7,8.3-1.3,12.4-1.7"/>
									<path class="st17" d="M1904.1,89.8c3.9-0.7,7.9-1.3,11.8-1.8"/>
									<path class="st17" d="M1903.9,95.4c3.7-0.3,7.9-0.9,11.6-1.5"/>
								</g>
								<path class="st17" d="M1904,100.3c3.4-0.3,7.6-0.6,11-0.9"/>
								<path class="st13" d="M1918.6,109.2c0.3-2,2.2-4.9-1.7-6.3c-1.7-0.6-4-0.4-5.8-0.3c-2.3,0.1-4.6,0.2-6.9,0.3
									c-1.7,0.1-3.5,0.2-4.7,0.9c-1.5,0.9-1.3,2.4-1.2,3.6c0.1,1.7,0.3,3.8,3.7,4.3C1906.1,112.5,1918.1,112.5,1918.6,109.2z"/>
								<path class="st18" d="M1919.1,107.1c-7.6,1.8-15.5,2.5-21-1c0,0.5,0,0.9,0,1.4c0.1,1.7,0.3,3.8,3.7,4.3
									c4.2,0.6,16.2,0.6,16.7-2.7C1918.7,108.6,1918.9,107.9,1919.1,107.1z"/>
								<g>
									<path class="st9" d="M1868,118.1c1,4.2,5.4,7.2,9.6,6.6"/>
									<path class="st9" d="M1864.1,121.4c-0.2,2.3,1.2,4.5,3.2,5.7c2,1.2,4.4,1.5,6.7,1.6"/>
								</g>
							</g>
							<g>
								<path class="st9" d="M1926.8,39.9c2.2,3.3,2.7,7.6,1.4,11.3"/>
								<path class="st9" d="M1930.1,37.2c3.3,3.7,4.3,9.4,2.5,14.1"/>
							</g>
							<g>
								<path class="st9" d="M1707.9,56.3c0.3-5.3,3-10.4,7.2-13.6"/>
								<path class="st9" d="M1715,35.1c-8.5,5.4-13.1,16.3-11,26.1"/>
							</g>
							<g>
								<path class="st9" d="M1746.9,133.4c2,2.8,5.5,4.5,9,4.3"/>
								<path class="st9" d="M1742.3,135.5c2.8,4.9,9,7.6,14.5,6.2"/>
							</g>
						</g>
						<g>
							<path class="st6" d="M1775.3,70.6c0,0,3.2-4.7,9.9-4.3c6.7,0.4,8.6-3.4,15.9,0.4C1801.2,66.7,1786.5,67.3,1775.3,70.6z"/>
							<g>
								<g>
									<path class="st19" d="M1803.4,54.1c0-1.8-1.3-2.8-1.3-2.8c1.3-2.9-3-10.1-6.1-9.6c-0.7,0.1-1.2,0.3-1.5,0.6
										c-2.3-1.8-6.3-3.2-7.5-1.6c-0.6,0.8-0.7,1.6-0.5,2.2c-1.5-0.1-3.2,0.3-3.9,1.5c-1.3,1.9-0.4,4.1,2.1,5
										c0.3,0.1,0.7,0.2,1.1,0.3c1.1,0.2,2,0.1,2.7-0.1c-0.1,0.7,0.2,1.4,0.9,1.9c2,1.3,4.5-0.1,4.5-0.1c0.7,3.7,5.9,2.2,5.9,2.2
										c-2.1,4.4-1.3,7-1.3,7s1.4-0.8,3,0C1801.7,60,1803.5,56.9,1803.4,54.1z"/>
									<path class="st20" d="M1801.4,60.5c0.1,0,0.2,0.1,0.3,0.2c1.7,1.1,0.6,5-1.9,5.4c-1.9,0.3-2.7-0.7-2.7-0.7
										s-2.1,2.8-8.9,1.8s-10.1-5.8-9.2-9.2c0.6-2.6,2.6-3.5,3.1-4c0.6-0.9,2.6-4.5,2.6-4.5l0,0c0.3,0.1,0.7,0.2,1.1,0.3
										c1.1,0.2,2,0.1,2.7-0.1c-0.1,0.7,0.2,1.4,0.9,1.9c2,1.3,4.5-0.1,4.5-0.1c0.7,3.7,5.9,2.2,5.9,2.2c-2.1,4.4-1.3,7-1.3,7
										S1799.8,59.6,1801.4,60.5z"/>
								</g>
								<path class="st21" d="M1788.6,57.8c-0.2,0.4-0.8,0.6-1.3,0.3c-0.5-0.2-0.7-0.8-0.5-1.2s0.8-0.6,1.3-0.3
									C1788.6,56.8,1788.9,57.3,1788.6,57.8z"/>
								<path class="st21" d="M1795.8,62.5c0.3-1.3-0.4-2.6-1.7-2.9c-1.3-0.3-2.6,0.4-2.9,1.7s0.4,2.6,1.7,2.9
									C1794.2,64.5,1795.5,63.8,1795.8,62.5z"/>
								<path class="st21" d="M1784.3,58.5c0.3-1.3-0.4-2.6-1.7-2.9c-1.3-0.3-2.6,0.4-2.9,1.7s0.4,2.6,1.7,2.9
									C1782.7,60.6,1784,59.8,1784.3,58.5z"/>
								<path class="st19" d="M1793,53.6c-0.6,0-0.7,0.4-0.6,0.7c0.2,0.3,0.5,0.4,0.9,0.8c0.8,0.7,0.9,1.1,1.2,0.8
									C1795,55.3,1794.3,53.7,1793,53.6z"/>
								<path class="st19" d="M1787.5,51.4c0.5,0.4,0.2,0.8-0.1,0.9c-0.4,0.1-0.6-0.1-1.2-0.1c-1.1-0.1-1.5,0.1-1.5-0.3
									C1784.9,51.2,1786.6,50.6,1787.5,51.4z"/>
								<path class="st22" d="M1793,57.1c0-0.1,0-0.2,0-0.2c0-0.1,0-0.2-0.1-0.3c0-0.1-0.1-0.2-0.1-0.2c-0.1-0.1-0.1-0.1-0.2-0.2
									c-0.1-0.1-0.2-0.1-0.2-0.1c-0.1,0-0.2-0.1-0.2-0.1c-0.1,0-0.1,0-0.2,0s-0.2,0-0.3,0c-0.1,0-0.1,0-0.1,0
									c-0.1,0-0.1,0.1-0.1,0.1c0,0.1,0.1,0.1,0.1,0.1s0,0,0.1,0s0.1,0,0.2,0.1c0,0,0.1,0,0.1,0.1c0.1,0,0.1,0.1,0.1,0.1l0.1,0.1
									l0,0c-0.4-0.1-0.9,0.2-1.1,0.7s0,1.1,0.4,1.2c0.4,0.2,0.9-0.1,1.1-0.7C1793,57.4,1793,57.1,1793,57.1z"/>
								<path class="st22" d="M1786.1,54.5c0-0.1,0-0.2,0-0.2c0-0.1,0-0.2-0.1-0.3c0-0.1-0.1-0.2-0.1-0.2c-0.1-0.1-0.1-0.1-0.2-0.2
									c-0.1-0.1-0.2-0.1-0.2-0.1c-0.1,0-0.2-0.1-0.2-0.1c-0.1,0-0.1,0-0.2,0s-0.2,0-0.3,0c-0.1,0-0.1,0-0.1,0
									c-0.1,0-0.1,0.1-0.1,0.1c0,0.1,0.1,0.1,0.1,0.1s0,0,0.1,0s0.1,0,0.2,0.1c0,0,0.1,0,0.1,0.1c0.1,0,0.1,0.1,0.1,0.1l0.1,0.1
									l0,0c-0.4-0.1-0.9,0.2-1.1,0.7s0,1.1,0.4,1.2c0.4,0.2,0.9-0.1,1.1-0.7C1786.1,54.8,1786.1,54.5,1786.1,54.5z"/>
								<path class="st19" d="M1803.1,50.6c-0.4-0.1,0.1-1.9,0.8-1.6C1804.7,49.4,1803.4,50.7,1803.1,50.6z"/>
								<path class="st19" d="M1803.4,51.3c0-0.4,1.3-0.9,1.5-0.2S1803.4,51.7,1803.4,51.3z"/>
								<path class="st23" d="M1798.7,62.5c0.1-0.2,0.2-0.4,0.4-0.6c0.2-0.2,0.4-0.3,0.6-0.4c0.2-0.1,0.5-0.1,0.7,0
									c0.1,0,0.2,0.1,0.3,0.1c0.1,0.1,0.2,0.1,0.3,0.2v0.1h-0.1l0,0c-0.1,0-0.2-0.1-0.3-0.1c-0.1,0-0.2-0.1-0.3-0.1
									c-0.2,0-0.4,0-0.6,0s-0.3,0.1-0.5,0.3C1799,62.1,1798.9,62.3,1798.7,62.5L1798.7,62.5L1798.7,62.5
									C1798.7,62.5,1798.7,62.5,1798.7,62.5z"/>
								<path class="st23" d="M1787.6,56.5c-0.1,0-0.3,0.1-0.4,0.2c-0.1,0.1-0.2,0.2-0.2,0.3c-0.1,0.1,0,0.3,0,0.4
									c0,0.1,0.1,0.3,0.2,0.4l0,0v0.1h-0.1c-0.1-0.1-0.3-0.3-0.3-0.4c-0.1-0.2-0.1-0.4,0-0.6c0.1-0.2,0.2-0.3,0.3-0.4
									C1787.3,56.4,1787.4,56.3,1787.6,56.5C1787.6,56.4,1787.6,56.4,1787.6,56.5L1787.6,56.5L1787.6,56.5z"/>
								<g>
									<path class="st24" d="M1787.3,61.4c1.8,0.3,1.9,1.5,1.9,1.5c-0.7,0.3-1.6,0.4-2.6,0.1c-0.7-0.2-1.2-0.5-1.6-0.8
										C1785,62.2,1785.7,61.1,1787.3,61.4z"/>
									<path class="st22" d="M1791,60.1c0.4,1-0.4,2.2-1.8,2.7c0,0,0-1.2-1.9-1.5c-1.6-0.2-2.3,0.8-2.3,0.8
										c-1.2-1.1-1.1-2.7-0.4-3.2c0.5-0.4,1.4,0.3,2.6,0.5C1788.8,59.6,1790.4,58.6,1791,60.1z"/>
								</g>
								<path class="st10" d="M1784.7,43.1c0.6-0.2,1.1-0.2,1.7-0.2s1.2,0.1,1.7,0.3c0.3,0.1,0.6,0.2,0.8,0.5
									c0.1,0.1,0.1,0.2,0.1,0.3s0,0.1,0,0.2c0,0.1,0,0.1-0.1,0.1c-0.1,0.2-0.3,0.3-0.4,0.4c-0.4,0.1-0.7,0-1-0.1s-0.5-0.3-0.7-0.5
									c-0.4-0.4-0.7-1-0.7-1.7c0-0.6,0.3-1.2,0.7-1.7c0.2-0.2,0.5-0.4,0.8-0.5s0.6-0.2,0.9-0.2c0.6,0,1.2,0.1,1.7,0.2
									c1.1,0.3,2.2,0.8,3.2,1.3c0.5,0.3,1,0.6,1.4,1s0.9,0.8,1.2,1.3c0.1,0.3,0.3,0.6,0.2,0.9c0,0.2-0.1,0.3-0.2,0.5
									c-0.1,0.1-0.2,0.3-0.4,0.3c-0.2,0.1-0.4,0-0.5,0c-0.2-0.1-0.3-0.1-0.4-0.2c-0.3-0.2-0.5-0.4-0.6-0.7s-0.3-0.6-0.3-0.9
									c0-0.3,0-0.6,0.2-0.9c0.2-0.3,0.4-0.5,0.7-0.6c0.3-0.1,0.5-0.2,0.8-0.3c-0.5,0.2-1,0.5-1.3,1c-0.2,0.5-0.1,1,0.2,1.5
									c0.1,0.2,0.3,0.4,0.5,0.6c0.2,0.2,0.4,0.3,0.6,0.2c0.2,0,0.3-0.3,0.3-0.5s-0.1-0.5-0.2-0.7c-0.3-0.5-0.7-0.9-1.1-1.2
									c-0.4-0.4-0.9-0.7-1.4-1c-1-0.6-2-1.1-3.1-1.3c-0.5-0.1-1.1-0.2-1.7-0.2c-0.5,0-1.1,0.2-1.4,0.6c-0.3,0.4-0.6,0.9-0.6,1.5
									c0,0.5,0.2,1,0.6,1.4c0.2,0.2,0.4,0.3,0.6,0.5c0.2,0.1,0.5,0.2,0.7,0.1c0.1,0,0.2-0.1,0.2-0.2c0,0,0,0,0-0.1l0,0V44
									c-0.1-0.2-0.4-0.3-0.6-0.4C1787,43,1785.8,42.9,1784.7,43.1z"/>
								<path class="st10" d="M1799.8,53.5c-0.6,0.2-1.2,0.3-1.8,0.3c-0.6,0.1-1.2,0-1.8-0.1c-0.6-0.1-1.2-0.4-1.6-0.8
									c-0.5-0.4-0.7-1-0.9-1.6l0.3,0.1c-0.7,0.4-1.5,0.6-2.3,0.7c-0.4,0-0.8,0-1.2-0.1c-0.4-0.1-0.8-0.3-1.1-0.5
									c-0.4-0.2-0.7-0.6-0.8-1c-0.2-0.4-0.2-0.8-0.1-1.3c0.1-0.4,0.2-0.8,0.4-1.2c0.2-0.4,0.5-0.7,0.9-0.9
									c0.1-0.1,0.2-0.1,0.4-0.1c0.1,0,0.3,0,0.4,0.1s0.2,0.2,0.3,0.3c0.1,0.1,0.1,0.3,0,0.4c0,0.2-0.2,0.4-0.3,0.6
									c-0.1,0.2-0.3,0.3-0.4,0.4c-0.7,0.5-1.5,0.8-2.3,0.8c-0.8,0.1-1.6,0-2.4-0.2s-1.5-0.6-2.1-1.1c0,0,0,0,0-0.1l0,0
									c0.6,0.5,1.4,0.8,2.1,0.9c0.8,0.2,1.5,0.2,2.3,0.1c0.8-0.1,1.5-0.4,2.1-0.8c0.3-0.2,0.5-0.5,0.6-0.8c0-0.1,0-0.3-0.1-0.3
									c-0.1-0.1-0.2-0.1-0.4,0c-0.3,0.1-0.5,0.5-0.7,0.8s-0.3,0.7-0.3,1c0,0.4,0,0.7,0.1,1s0.4,0.6,0.7,0.8c0.3,0.2,0.7,0.3,1,0.4
									c0.4,0.1,0.7,0.1,1.1,0.1c0.7-0.1,1.5-0.3,2.2-0.6l0,0c0.1,0,0.2,0,0.2,0.1c0,0,0,0,0,0.1c0.1,0.6,0.3,1.1,0.7,1.5
									c0.4,0.4,0.9,0.7,1.5,0.8s1.1,0.2,1.7,0.1C1798.6,53.7,1799.2,53.6,1799.8,53.5L1799.8,53.5
									C1799.8,53.4,1799.8,53.5,1799.8,53.5L1799.8,53.5z"/>
							</g>
							<g>
								<path class="st25" d="M1776.9,70.7c-0.2,0-0.4-0.1-0.6-0.1c-0.9-0.3-1.7-0.9-2.2-1.9c-0.5-0.8-0.8-1.7-1-2.5v-0.1
									c-0.2-0.7-0.4-1.5-0.4-2.3c0-0.4,0.1-1.7,0.9-1.5c0.3,0.1,0.7,0.9,0.9,1.5c0-0.3-0.1-1.9-0.1-2.3c0-0.2,0.1-0.4,0.3-0.6
									c0.2-0.2,0.4-0.3,0.7-0.2c0.2,0,0.3,0.1,0.4,0.2c0.2,0.2,0.2,0.4,0.2,0.5l0.4,3.1c0-0.3-0.1-1.8-0.1-2.1v-0.1
									c0-0.6,0-1.3,0.4-1.9c0-0.1,0.2-0.2,0.4-0.3c0.1,0,0.2,0,0.3,0c0.2,0,0.5,0.2,0.6,0.4s0.1,0.4,0.1,0.6l0.2,3.8
									c0-0.2,0-1,0-1.1c0-0.2,0-0.3,0-0.5c0-0.6,0.1-1.3,0.5-1.8c0.2-0.2,0.5-0.4,0.7-0.3c0.1,0,0.2,0,0.3,0.1
									c0.2,0.1,0.2,0.3,0.3,0.4c0.4,1,0.2,2.1,0,3.1c-0.1,0.4-0.1,0.7-0.2,1.1c0,0.1,0,0.2,0,0.2s0.1-0.1,0.2-0.2
									c0.4-0.5,0.7-0.7,1.2-0.7c0.1,0,0.1,0,0.2,0.1c0.5,0.2,0.7,0.7,0.6,1.3c-0.1,0.5-0.3,1-0.5,1.5c-0.2,0.4-0.5,0.7-0.8,0.9
									c-0.7,0.7-1.3,1.1-2,1.4C1778.2,70.7,1777.5,70.8,1776.9,70.7z"/>
							</g>
						</g>
						<g>
							<g>
								<g>
									<path class="st26" d="M1728.7,59.5c0.6-0.3,1.2,1.2,0.8,1.4C1729.2,61,1728,59.9,1728.7,59.5z"/>
									<path class="st26" d="M1727.9,61.4c0.1-0.7,1.3-0.3,1.3,0.1C1729.2,61.8,1727.8,62.1,1727.9,61.4z"/>
									<path class="st27" d="M1734.2,72.4c0,0,3.8-4.1,1.2-10.3c0.8,0.9,1.8,3,2.2,3.3c0.4,0.3,2.9-0.8,2.9-1.1
										c0-0.7-2.2-4.1-2.2-4.1c2.5,2.5,2.6,3.8,2.9,3.8c0.7,0,3.5-1.3,3.5-1.7c0-0.3-2.5-3.6-2.5-3.6c2.1,1.4,2.6,3.2,3,3.3
										c0.1,0,0.3,0,0.6-0.1l0,0c0,0,1.8,2.9,2.4,3.6c0.4,0.5,2.2,1.2,3,3.4c0.7,2.1-0.4,4.8-3.1,6.7c-1.2,0.9-2.7,1.6-4.5,2
										c-0.4,0.1-0.9,0.2-1.3,0.2c-4.1,0.4-6.5-2.4-6.5-2.4s-0.9,1.2-2.4,1c-2-0.2-3.1-3.1-1.7-4.3
										C1732.6,71.6,1733.7,72.1,1734.2,72.4z"/>
									<path class="st28" d="M1752.8,67.6c2.6,2.7,3.7,2.5,3.8,3c0.1,0.5-0.7,3.4-2.5,4.3c-0.5,0.3-2-1.1-2-1.1s0.6,1.3,1.3,1.8
										c0,0-1,2.1-3.1,2.2c-0.9,0-2.3-1.9-2.3-1.9c2.7-2,3.8-4.7,3.1-6.7c-0.7-2.2-2.6-2.9-3-3.4c-0.6-0.7-2.4-3.6-2.4-3.6l0,0
										c0.5-0.2,1.2-0.5,1.8-0.8C1748,61.9,1750.9,65.6,1752.8,67.6z"/>
									<path class="st26" d="M1734.2,81.4c0.1,0.9,0,2.6-0.5,2.9s-3.7-0.4-4.2-0.7c-0.5-0.4,1.1-3.6,0.6-6.6
										c-0.5-2.9-2.6-7.7-2.1-11.2s3.1-4,3.1-4s-1-1.5,0.1-3.2s7.6-4.8,11.3-3.9c3.7,0.8,6.3,4.7,6.2,5.4c0,0.3-0.6,0.7-1.3,1.1
										c-0.6,0.3-1.3,0.7-1.8,0.8c-0.3,0.1-0.5,0.1-0.6,0.1c-0.4-0.2-0.9-1.9-3-3.3c0,0,2.5,3.3,2.5,3.6s-2.8,1.7-3.5,1.7
										c-0.2,0-0.4-1.3-2.9-3.8c0,0,2.2,3.5,2.2,4.1c0,0.3-2.5,1.5-2.9,1.1c-0.4-0.3-1.4-2.5-2.2-3.3c2.6,6.2-1.2,10.3-1.2,10.3
										c-0.5-0.3-1.6-0.9-2.5,0c-1.3,1.2-0.3,4.1,1.7,4.3c1.5,0.1,2.4-1,2.4-1s2.4,2.8,6.5,2.4c0.3,0.6,0.8,2.5,0.6,3.1
										c-0.2,0.6-2.6,1.4-2.7,1.3c-0.6-1.7-1.1-2.5-1.1-2.5c0.1,0.2,0.5,2.2,0.3,3s-4.3,1.3-4.5,1
										C1734.7,83.8,1734.3,82,1734.2,81.4z"/>
								</g>
								<path class="st29" d="M1737.8,73.3c-0.4-1.1,0.2-2.3,1.3-2.7c1.1-0.4,2.3,0.2,2.7,1.3c0.4,1.1-0.2,2.3-1.3,2.7
									C1739.4,75,1738.2,74.4,1737.8,73.3z"/>
								<path class="st29" d="M1746.5,70.1c-0.4-1.1,0.2-2.3,1.3-2.7c1.1-0.4,2.3,0.2,2.7,1.3c0.4,1.1-0.2,2.3-1.3,2.7
									C1748.1,71.8,1746.9,71.2,1746.5,70.1z"/>
								<path class="st30" d="M1738.5,66.5c0.5-0.1,0.7,0.3,0.6,0.5c-0.2,0.3-0.4,0.4-0.8,0.7c-0.7,0.7-0.8,1.1-1,0.8
									C1736.8,68.2,1737.4,66.7,1738.5,66.5z"/>
								<path class="st30" d="M1743.3,64.2c-0.4,0.4-0.2,0.7,0.1,0.8c0.4,0,0.5-0.1,1-0.2c1-0.1,1.3,0,1.3-0.4
									C1745.7,63.9,1744.1,63.5,1743.3,64.2z"/>
								<path class="st31" d="M1734,73.8c-0.2-0.1-0.3-0.2-0.5-0.2c-0.2-0.1-0.3-0.1-0.5-0.1s-0.3,0-0.5,0.1c-0.1,0-0.2,0.1-0.2,0.1
									c-0.1,0-0.2,0.1-0.2,0.1l0,0c-0.1,0-0.1,0-0.2-0.1v-0.1c0.1-0.1,0.1-0.2,0.2-0.3c0.1-0.1,0.1-0.2,0.3-0.2
									c0.2-0.1,0.4-0.2,0.7-0.2c0.2,0,0.5,0.1,0.7,0.2s0.4,0.3,0.5,0.4c0,0.1,0,0.1,0,0.2C1734.1,73.8,1734,73.8,1734,73.8
									L1734,73.8z"/>
								<g>
									<path class="st32" d="M1742.7,69.5c0.2,0.4,0.7,0.5,1.2,0.2c0.4-0.2,0.6-0.7,0.4-1.1s-0.7-0.5-1.2-0.2
										C1742.6,68.6,1742.4,69.1,1742.7,69.5z"/>
									<path class="st33" d="M1743.5,68.2c0.2,0,0.3,0,0.5,0.1c0.1,0.1,0.3,0.2,0.3,0.4c0.1,0.2,0.1,0.4,0,0.5
										c-0.1,0.2-0.1,0.3-0.3,0.4h-0.1c0,0,0,0,0-0.1l0,0c0.1-0.1,0.1-0.3,0.1-0.4s0-0.2,0-0.4c0-0.1-0.1-0.2-0.2-0.3
										C1743.7,68.3,1743.6,68.3,1743.5,68.2L1743.5,68.2C1743.5,68.3,1743.5,68.2,1743.5,68.2L1743.5,68.2z"/>
								</g>
								<path class="st34" d="M1745.9,70.2c-0.1,0.6-0.4,1.1-0.8,1.5s-0.9,0.7-1.5,0.9c-0.6,0.1-1.1,0.2-1.7,0.1s-1.1-0.3-1.5-0.7
									c0,0-0.1-0.1,0-0.2c0,0,0.1-0.1,0.1,0l0,0c0.2,0.1,0.5,0.2,0.7,0.3c0.2,0.1,0.5,0.1,0.7,0.2c0.5,0.1,1,0,1.5-0.1
									s0.9-0.4,1.3-0.7c0.2-0.2,0.4-0.4,0.5-0.6s0.3-0.4,0.4-0.7l0,0c0-0.1,0.1-0.1,0.2-0.1C1745.9,70.1,1745.9,70.1,1745.9,70.2z
									"/>
								<path class="st34" d="M1740.2,68.3C1740.2,68.3,1740.2,68.3,1740.2,68.3c-0.2,0-0.3,0-0.4,0c-0.1,0-0.1,0-0.2,0
									s-0.1,0.1-0.2,0.1s-0.1,0.1-0.2,0.1s-0.1,0.1-0.1,0.2h-0.1h-0.1c-0.1,0-0.1,0-0.2-0.1c-0.1,0-0.1-0.1-0.2-0.1l0,0
									c0,0,0,0-0.1,0c0,0-0.1,0.1,0,0.1c0.1,0.2,0.2,0.3,0.3,0.4c0.1,0,0.2,0.1,0.3,0.1l0,0l0,0h-0.1h-0.1c-0.1,0-0.1,0-0.2,0
									s-0.1,0-0.2,0l0,0c0,0,0,0-0.1,0v0.1c0.1,0.1,0.2,0.2,0.4,0.2c0.1,0,0.2,0,0.3,0l0,0c0,0.1,0,0.3,0.2,0.6
									c0.2,0.4,0.7,0.7,1.1,0.5s0.5-0.7,0.3-1.2c-0.2-0.4-0.7-0.6-1-0.5l0,0l0.1-0.1l0.1-0.1c0,0,0.1,0,0.1-0.1
									C1740,68.5,1740.1,68.4,1740.2,68.3C1740.2,68.4,1740.2,68.4,1740.2,68.3c0.1,0.1,0.1,0,0.1,0
									C1740.3,68.4,1740.3,68.3,1740.2,68.3z"/>
								<path class="st34" d="M1746.1,64.9L1746.1,64.9C1746,64.9,1746,64.9,1746.1,64.9L1746.1,64.9c-0.1,0.1-0.1,0.1-0.1,0.2
									s0,0.1,0,0.2s0,0.1-0.1,0.1l-0.1,0.1l0,0l0,0c0,0,0,0,0-0.1s0-0.2,0-0.3c0-0.2-0.1-0.3-0.3-0.4c0,0,0,0-0.1,0l-0.1,0.1l0,0
									c0,0.1,0,0.1,0,0.2s0,0.1,0,0.2s0,0.1,0,0.1l-0.1,0.2l0,0c-0.1,0-0.1,0.1-0.2,0.1s-0.1,0.1-0.2,0.1
									c-0.1,0.1-0.1,0.1-0.2,0.2c0,0.1-0.1,0.2-0.1,0.2c0,0.1,0,0.2,0,0.2c0,0.1,0,0.1,0,0.2s0,0.3,0.2,0.6
									c0.2,0.4,0.7,0.7,1.1,0.5s0.5-0.7,0.3-1.1s-0.7-0.6-1-0.5l0,0l0.1-0.1l0.1-0.1c0,0,0.1,0,0.1-0.1c0.1,0,0.3-0.1,0.3-0.1
									c0.1,0,0.1-0.1,0.2-0.2c0-0.1,0.1-0.2,0.1-0.2C1746.2,65.2,1746.2,65.1,1746.1,64.9z"/>
								<path class="st35" d="M1734,61c0.4,1.5,0.5,3.2,0.3,4.8c-0.2,1.6-0.8,3-1.6,4.4c-0.1,0.2,0.2,0.4,0.3,0.2
									c1.9-2.6,2.2-6.4,1.2-9.4C1734.2,60.8,1734,60.9,1734,61z"/>
								<path class="st35" d="M1731.5,77.4c0,1,0,2,0,3c0,0.5-0.1,1-0.1,1.5c-0.1,0.5-0.2,1-0.3,1.5c0,0.1,0.1,0.1,0.1,0
									c0.2-0.5,0.3-0.9,0.4-1.4s0.2-1,0.3-1.5c0.1-1,0.1-2,0-3C1731.8,77.2,1731.5,77.2,1731.5,77.4z"/>
								<path class="st35" d="M1732.7,77.6c0.2,1.4,0.1,2.7,0.1,4.1c0,0.1,0.2,0.1,0.2,0c0.2-1.4,0.2-2.8-0.1-4.1
									C1733,77.5,1732.7,77.5,1732.7,77.6z"/>
								<path class="st35" d="M1735,78.4c0.1,0.8,0.2,1.6,0.3,2.4c0.1,0.4,0.1,0.8,0.2,1.2c0.1,0.4,0.1,0.8,0.2,1.1
									c0,0.1,0.2,0.1,0.2,0c0-0.4,0-0.8-0.1-1.2c0-0.4-0.1-0.8-0.2-1.2C1735.5,79.9,1735.3,79.1,1735,78.4
									C1735.1,78.3,1735,78.3,1735,78.4z"/>
								<path class="st35" d="M1736.3,77.6c0-0.1-0.2-0.1-0.2,0.1c0.4,1.6,0.8,3.1,1.1,4.7c0,0.1,0.2,0.1,0.2,0
									c-0.1-0.8-0.2-1.6-0.3-2.4C1736.9,79.2,1736.6,78.4,1736.3,77.6z"/>
								<path class="st35" d="M1737.6,78.3c0-0.1-0.1-0.1-0.2-0.1s-0.1,0.1-0.1,0.2c0.1,0.3,0.2,0.5,0.2,0.8
									c0.1,0.3,0.1,0.5,0.2,0.8c0,0.1,0.3,0.1,0.3,0c0-0.2,0-0.3,0-0.4s-0.1-0.3-0.1-0.4C1737.9,78.9,1737.8,78.6,1737.6,78.3z"/>
								<path class="st35" d="M1732.4,61.5c0,1.5-0.2,3.1-0.5,4.5c-0.2,0.7-0.4,1.5-0.7,2.2c-0.3,0.7-0.7,1.3-1,2
									c-0.1,0.2,0.2,0.4,0.3,0.2c0.5-0.6,0.8-1.3,1.1-2c0.3-0.7,0.5-1.5,0.7-2.2c0.3-1.5,0.4-3.1,0.3-4.7
									C1732.6,61.4,1732.4,61.4,1732.4,61.5z"/>
								<path class="st36" d="M1733.7,67.5c0.1-0.5-3.5-1.4-3.6-0.6C1730,67.7,1733.5,68.1,1733.7,67.5z"/>
								<path class="st36" d="M1733.9,65.4c0.1-0.5-3.5-1.4-3.6-0.6C1730.2,65.6,1733.7,66,1733.9,65.4z"/>
								<path class="st35" d="M1738.2,60c0.6,0.6,1.2,1.2,1.7,1.9s1,1.4,1.4,2.1l-0.1-0.1c0.6-0.2,1.2-0.4,1.8-0.6
									c0.3-0.1,0.6-0.3,0.9-0.4c0.3-0.2,0.6-0.3,0.8-0.6l0,0h0.1v0.1c-0.2,0.3-0.5,0.5-0.8,0.7s-0.6,0.3-0.9,0.5
									c-0.6,0.3-1.2,0.5-1.9,0.6c-0.1,0-0.1,0-0.1-0.1l0,0c-0.4-0.7-0.9-1.4-1.4-2.1c-0.3-0.3-0.5-0.7-0.8-1
									C1738.7,60.8,1738.4,60.4,1738.2,60C1738.1,60.1,1738.1,60.1,1738.2,60C1738.1,60,1738.1,60,1738.2,60z"/>
								<path class="st35" d="M1741.9,58.6c0.6,0.4,1.2,0.9,1.8,1.4c0.5,0.5,1,1.1,1.5,1.7c0.1,0.1,0.1,0.1,0.2,0.2
									c0.1,0,0.1,0,0.2,0c0.2,0,0.3-0.1,0.5-0.1c0.3-0.1,0.7-0.3,1-0.4c0.3-0.2,0.7-0.3,1-0.6c0.3-0.2,0.6-0.4,0.8-0.8l0,0
									c0,0,0,0,0.1,0c0,0,0,0,0,0.1c-0.1,0.4-0.5,0.6-0.8,0.9c-0.3,0.2-0.6,0.4-1,0.6c-0.3,0.2-0.7,0.3-1.1,0.5
									c-0.2,0.1-0.4,0.1-0.6,0.1c-0.1,0-0.3,0-0.3-0.1c-0.1-0.1-0.2-0.2-0.2-0.2c-0.2-0.3-0.4-0.6-0.7-0.9
									c-0.2-0.3-0.5-0.6-0.8-0.8c-0.3-0.3-0.5-0.5-0.8-0.8C1742.4,59.2,1742.1,58.9,1741.9,58.6L1741.9,58.6
									C1741.8,58.7,1741.8,58.6,1741.9,58.6C1741.8,58.6,1741.8,58.6,1741.9,58.6z"/>
								<path class="st37" d="M1742.7,78l1.6,1.7c0,0,2.2,0.5,3.2-1.2l-0.7-2C1746.9,76.5,1745.1,77.5,1742.7,78z"/>
								<path class="st5" d="M1735.6,86.2c0,0,1.7-6.2,8.7-6.5c0,0,1.3,0.4,3.2-1.2c1.9-1.6,5.5-2.5,7.5-1.6L1735.6,86.2z"/>
							</g>
							<g>
								<path class="st27" d="M1755.2,77.6c-0.2,0-0.3,0-0.5-0.1c-0.8-0.2-1.2-0.9-1.4-1.3c-0.2-0.3-0.3-0.6-0.4-0.9
									c-0.1-0.1-0.1-0.3-0.2-0.4c-0.2-0.4-0.4-0.8-0.7-1.2c0-0.1-0.1-0.1-0.1-0.2c-0.3-0.4-0.7-0.9-0.6-1.5c0-0.3,0.2-0.4,0.3-0.5
									c0.1,0,0.2-0.1,0.3,0c0.2,0,0.3,0.1,0.4,0.2l1,0.9c0,0,0.1,0.1,0.2,0.1c0,0,0,0,0.1-0.1c0-0.1,0-0.2,0-0.4
									c-0.2-1-0.4-2.2-0.2-3.4c0.1-0.5,0.4-0.8,0.8-0.8l0,0c0.4,0,0.6,0.4,0.7,0.8c0,0.2,0,0.4,0,0.5c0,0.2,0,0.4,0,0.5
									c0.1,0.4,0.2,0.9,0.3,1.2c0.1-0.5,0.1-1.2,0.1-1.7s0-0.9,0-1.1s0.1-0.5,0.2-0.7c0.2-0.3,0.5-0.4,0.8-0.4c0.1,0,0.1,0,0.2,0
									c0.3,0.1,0.5,0.4,0.5,0.9c0,0.4-0.1,1-0.1,1.6c-0.1,0.4-0.1,1-0.2,1.4c0-0.1,0-0.1,0.1-0.2v-0.1c0-0.2,0.1-0.4,0.1-0.6
									c0.1-0.7,0.3-1.4,0.8-1.9c0.2-0.2,0.4-0.3,0.6-0.3h0.1c0.1,0,0.3,0.2,0.4,0.6c0.1,0.7-0.2,1.3-0.4,1.8
									c-0.2,0.4-0.4,0.8-0.4,1.2c0.1-0.1,0.2-0.3,0.2-0.5c0.1-0.3,0.2-0.6,0.5-0.9c0.2-0.2,0.4-0.3,0.6-0.3l0,0
									c0.3,0,0.5,0.2,0.6,0.5c0.1,0.2,0,0.4,0,0.6c-0.2,1.1-0.6,2.3-0.9,3.2c-0.3,0.7-0.6,1.5-1.2,2.1
									C1757.2,77.4,1756.2,77.7,1755.2,77.6z"/>
							</g>
						</g>
					</g>
					<g>
						<g>
							<path class="st38" d="M2008.3,134.3c-16.2,21.2-21.6,50.2-14,75.8"/>
							<path class="st38" d="M2007.9,182.5c-8.1,5.7-13.1,18.3-11,27.7"/>
							<path class="st38" d="M2012,190.9c-6.9,4.3-12.2,11.3-14.5,19.2"/>
						</g>
						<g>
							<path class="st38" d="M1818.6,153.7c-8.5,9-12.2,20.2-11,32.6c-0.9-4-2.1-8-4.3-11.5c-2.2-3.5-5.5-6.4-9.4-7.5"/>
							<path class="st38" d="M1797.6,152.7c4.5,8.7,7.8,18,9.7,27.5"/>
						</g>
						<g>
							<path class="st38" d="M1232.1,190.3c3.8,5.5,6.1,12.1,6.6,18.8c4.4-5.5,10.6-9.7,17.4-11.8"/>
							<path class="st38" d="M1258.3,183c-9,5.4-16.2,13.8-20.1,23.6"/>
						</g>
						<path class="st38" d="M1203.2,150.8c4.8,3.9,7.8,9.8,8.1,15.9c1.5-9.3,8-17.6,16.6-21.3"/>
						<path class="st38" d="M1125.6,199.6c1.5,2.5,2.9,4.9,4.4,7.4c1.3-3.7,9.7-16.5,12.3-19.5"/>
						<path class="st38" d="M1661,189c3.6,3.5,6.4,9.7,7.4,16.9c1.5-12.7,8.4-24.9,15.2-30"/>
						<g>
							<g>
								<g>
									<path class="st39" d="M1331.8,189.7c-3.3,0.7-6.3,2.8-9,4.9c-1.9-1.3-3.9-2.4-6.2-3.4c-1.7-0.8-3.9,0.5-3.3,2.5
										c0.6,2.3,1.3,4.5,2.3,6.6c-1.8,1.6-3.3,3.3-4.4,5.5c-2.1,4.1,1.4,9.2,6.1,7.9c2-0.5,3.9-1.5,5.7-2.5c0.5,0.5,1,1.1,1.5,1.5
										c2.3,1.9,5.4,2.4,7.9,0.5c2.3-1.8,3.2-5.2,1.6-7.8c-0.1-0.2-0.2-0.3-0.3-0.5c1.8-1,3.6-2.2,5-3.7
										C1343.3,196,1338.5,188.2,1331.8,189.7z"/>
								</g>
								<path class="st40" d="M1328.6,200.8c-0.9-4.6-6.3-3.4-7.3,0.5c-1.5,5.8,7.6,6.9,7.4,0.5
									C1328.7,201.5,1328.7,201.2,1328.6,200.8z"/>
							</g>
						</g>
						<g>
							<path class="st38" d="M1518.4,183.5c-8.2,9.2-10.9,22.9-6.8,34.5c0.2-9.7,6.6-19,15.6-22.7"/>
							<path class="st26" d="M1526.9,171.6c0.2-1.2,0.3-2.5-0.3-3.6c-0.9-1.9-3-2.3-4.8-1.6c-1,0.4-1.7,1.3-2.2,2.3
								c-2.1-1.9-5.8-2.3-7.4,0.8c-1.2,2.4-1.8,4.6-1.1,7.2c0.6,3.6,3.1,6.7,7,7.9c6.2,2,12.5-1.3,16-6.7
								C1537.1,172.9,1530.5,168,1526.9,171.6z"/>
						</g>
						<path class="st26" d="M2021.2,118.6c-1.3,0.3-2.6,0.7-4,1c0.7-1.8,1.4-3.7,1.7-5.6c0.5-3.2-2.9-5.6-5.6-3.3
							c-2,1.7-3.5,3.8-4.7,6.2c-1.6-0.9-3.3-1.6-5.2-1.9c-1.8-0.3-3.3,0.7-3.4,2.6c-0.1,2.2,0.2,4.3,0.9,6.4
							c-2.2,0.8-4.2,1.8-5.9,3.3c-1.2,1.1-1.1,3.6,0.5,4.4c2.2,1,4.5,1.3,6.8,1.4c-0.4,1.8-0.7,3.7-0.8,5.6c-0.3,5.4,7.2,5.9,9,1.5
							c5.8,6.3,15.8-0.6,12.2-8.2h0.1C2032.6,130.9,2030.7,116.4,2021.2,118.6z"/>
						<path class="st40" d="M2018.1,126.8c0.3-5.9-8.9-10.5-12-1.7c-2.2,6.3,4.8,10.9,9.8,6C2017.4,129.7,2018,128.2,2018.1,126.8z"
							/>
						<g>
							<path class="st39" d="M1198.2,181.8c-2.1-2.7-5.9-3.5-9-1.8c-0.1,0-0.2,0.1-0.2,0.1c-0.9-0.9-1.9-1.6-3.3-2
								c-1.8-0.5-4.2-0.3-5.8,0.8c-3.1,2-5.3,7-2.7,10.3c0.6,0.8,1.2,1.5,1.9,2.2c-0.9,1.3-1.6,2.7-1.7,4.6c-0.1,3.7,3.4,5.5,6.6,5
								c1.5-0.2,2.7-1.1,3.7-2.1l0,0c3.3,2.2,7.8,0.3,9.2-3.1c0.5-1.3,0.6-2.9,0.2-4.4c0.2-0.2,0.3-0.4,0.5-0.5
								C1199.8,188.2,1200.5,184.8,1198.2,181.8z"/>
							<path class="st40" d="M1192.2,189.7c0-0.6-0.1-1.1-0.3-1.6c-0.2-0.5-0.4-0.9-0.8-1.3c-0.3-0.2-0.5-0.4-0.8-0.6
								c-0.6-0.4-1.3-0.5-2-0.6c-0.1,0-0.2,0-0.2,0l-1.1,0.2c-0.3,0.1-0.7,0.3-1,0.4c-0.5,0.3-0.9,0.6-1.2,1.1
								c-0.3,0.3-0.4,0.6-0.6,0.9c-0.2,0.3-0.3,0.7-0.3,1.1c-0.1,0.4-0.1,0.8,0,1.1c0,0.4,0.1,0.7,0.3,1.1c0.2,0.5,0.5,1,0.9,1.4
								c0.3,0.2,0.6,0.4,0.9,0.7c0.3,0.1,0.7,0.3,1,0.4l1.1,0.2c0.4-0.1,0.8-0.1,1.1-0.2c0.3-0.1,0.7-0.3,1-0.4
								c0.5-0.3,0.9-0.6,1.2-1.1c0.3-0.3,0.4-0.6,0.6-0.9c0.3-0.5,0.4-1.1,0.4-1.7C1192.2,189.9,1192.2,189.8,1192.2,189.7z"/>
						</g>
						<g>
							<path class="st41" d="M1410.4,190c0.9-3-1.6-6.3-4.7-6.2c-2.4,0.1-4.5,1.4-6.3,3c-1.3-0.8-2.7-1.4-4.3-1.4
								c-2.6,0-4.9,2.3-4.9,4.9c0,1.9,1,3.3,2.4,4c-1.1,1.5-1.9,3.2-2.5,5c-1,3.3,2.8,6,5.7,4.4c1.2-0.7,2.3-1.5,3.4-2.4
								c0.8,0.9,1.8,1.7,3.3,2.2c3.1,1.1,6.2-1.8,6.3-4.8c0-1.5-0.6-3-1.4-4.3C1408.7,193.1,1409.9,191.8,1410.4,190z"/>
							<path class="st40" d="M1399.8,190.8c-4,0-4,6.3,0,6.3C1403.8,197,1403.8,190.8,1399.8,190.8z"/>
						</g>
						<g>
							<path class="st26" d="M1915.6,176.7c-3.4-0.6-6.7,0.2-9.6,1.7c0-2-0.4-4-1.2-5.8c-0.8-1.7-2-2.5-4-2.9
								c-5.7-1.1-7.4,3.6-7.5,8.5c-1.6-1-3.2-1.9-5-2.8c-2.2-1-4.6-0.5-5.3,1.5c-1.6,4.4,1.9,7.8,6.4,9.9c-3.9,3.8-7.9,8.6-3.8,12.4
								c4.5,4,9.9,0.1,13.9-3.7c1.6,2.3,3.5,4.3,5.9,5.9c1.4,0.9,3.2,0.8,4.6,0.3c0.2-0.1,0.3-0.1,0.5-0.2c1.7-0.6,2.5-2.6,1.9-4.1
								c-1-2.8-2.4-5.7-4-8.4c3.9-1.4,7.2-3.5,9.9-6.4C1920.6,180.4,1919.1,177.3,1915.6,176.7z"/>
							<path class="st40" d="M1904.1,184.1c-0.1-0.4-0.4-0.7-0.7-1c-0.4-0.5-0.9-0.9-1.5-1.2c-0.4-0.2-0.8-0.3-1.2-0.5
								c-0.4-0.1-0.9-0.2-1.3-0.3c-0.7-0.1-1.4,0-2,0.2c-0.6,0.1-1.2,0.4-1.6,0.8c-0.1,0-0.1,0.1-0.2,0.1c-0.6,0.5-1,1.1-1.3,1.9
								c-0.2,0.8-0.2,1.5,0,2.3c0.2,0.4,0.4,0.8,0.6,1.1c0.5,0.7,1.1,1.3,1.9,1.7c0.6,0.4,1.2,0.6,1.9,0.7c0.7,0.2,1.4,0.2,2,0.1
								c0.9-0.1,1.7-0.5,2.3-1c0.6-0.5,1-1.1,1.3-1.9c0-0.1,0-0.2,0-0.2c0.1-0.4,0.1-0.7,0.2-1.1
								C1904.6,185.3,1904.4,184.7,1904.1,184.1z"/>
						</g>
						<path class="st40" d="M1146.1,176.9c-0.3-0.9-0.8-1.7-1.4-2.3c-1.2-1.3-3.1-1-4.4,0c-1.1,0.9-1.8,2.3-2.3,3.9
							c-1.5-0.7-3.5,0.5-4.1,2c-2,5,2.7,10.3,7.6,10.6c5.4,0.3,9.3-3.9,10.8-8.8C1153.6,178.1,1149.2,175.7,1146.1,176.9z"/>
					</g>
					<g>
						<g>
							<path class="st42" d="M915.6,1036.4c-4.4-1.4-8.8,3.8-7.8,8.3c0.9,4.5,5.5,7.5,10,8.2c3,0.4,6.3,0,8.3-2.2
								c2.3-2.5,2.2-6.4,1.3-9.7c-2-7.4-6.8-13.7-11.6-19.7c-6.7-8.4-13.3-16.9-20-25.3c5.9-4.6,11.1-11.5,17-16.2
								c0.7-0.6,1.6-1.2,2.4-0.9c0.7,0.2,1.1,0.8,1.5,1.4c2.3,3.4,4.7,6.9,7,10.3c-2.8,4-6.4,7.5-10.5,10.2"/>
							<path class="st42" d="M912.6,1048.1c0.1-3.9,0.6-7.7,1.4-11.5"/>
							<path class="st42" d="M918.9,1052.1c-0.1-5.7,0.1-11.5,0.8-17.2"/>
							<path class="st42" d="M924.8,1050.8c-0.3-4.2-0.2-8.4,0.1-12.6"/>
							<path class="st42" d="M902.5,1001.8c0.7-5,1.9-9.9,3.7-14.7"/>
							<path class="st42" d="M907.5,1005.1c0.9-7.9,2.7-15.7,5.4-23.1"/>
							<path class="st42" d="M914.8,997.2c1.2-4,2.1-8.1,2.8-12.2"/>
						</g>
					</g>
					<g>
						<g>
							<path class="st42" d="M1016.2,46c-1.3-2.5-5.4-2.1-6.9,0.2s-0.8,5.6,0.9,7.8c1.1,1.5,2.7,2.7,4.6,2.6
								c2.1-0.1,3.7-1.8,4.7-3.6c2.3-4.1,2.9-8.8,3.4-13.5c0.7-6.5,1.4-13,2.1-19.5c4.5,0.5,9.7-0.3,14.2,0.2
								c0.5,0.1,1.2,0.2,1.4,0.6c0.2,0.4,0.1,0.8,0.1,1.2c-0.4,2.5-0.9,5-1.3,7.4c-2.9,0.5-5.9,0.5-8.9,0"/>
							<path class="st42" d="M1009.9,49.8c1.7-1.6,3.6-3.1,5.5-4.4"/>
							<path class="st42" d="M1010.9,54.3c2.4-2.5,5-4.9,7.7-7.1"/>
							<path class="st42" d="M1014,56.2c1.7-1.9,3.5-3.7,5.4-5.4"/>
							<path class="st42" d="M1025.2,25.5c2.4-1.9,5.1-3.5,7.8-4.8"/>
							<path class="st42" d="M1026,29c3.7-3,7.8-5.6,12.2-7.7"/>
							<path class="st42" d="M1032.5,28.7c2.2-1.2,4.4-2.6,6.4-4.1"/>
						</g>
					</g>
					<g>
						<g>
							<path class="st42" d="M1982.2,57.3c-1.3-2.5-5.4-2.2-6.9,0.2c-1.5,2.3-0.9,5.6,0.7,7.8c1.1,1.5,2.7,2.7,4.5,2.6
								c2.1-0.1,3.7-1.8,4.8-3.6c2.4-4,3-8.8,3.6-13.4c0.8-6.5,1.6-13,2.4-19.4c4.5,0.6,9.7-0.1,14.2,0.4c0.5,0.1,1.2,0.2,1.4,0.7
								c0.2,0.4,0.1,0.8,0.1,1.2c-0.5,2.5-1,4.9-1.4,7.4c-2.9,0.5-6,0.4-8.9-0.2"/>
							<path class="st42" d="M1975.9,61c1.7-1.6,3.6-3.1,5.6-4.3"/>
							<path class="st42" d="M1976.9,65.4c2.4-2.5,5-4.9,7.8-7"/>
							<path class="st42" d="M1979.9,67.4c1.7-1.9,3.5-3.7,5.5-5.4"/>
							<path class="st42" d="M1991.5,36.8c2.5-1.8,5.1-3.4,7.9-4.7"/>
							<path class="st42" d="M1992.3,40.4c3.8-3,7.9-5.5,12.3-7.5"/>
							<path class="st42" d="M1998.8,40.2c2.2-1.2,4.4-2.5,6.4-4"/>
						</g>
					</g>
					<g>
						<path class="st42" d="M1013.1,165.8L1013.1,165.8l0.1-0.6c0.1-0.8,0.1-1.2,0.1-1.2l-0.1,1.1c0.1-0.8,0-0.2,0,0.1
							c0-0.3,0.1-0.7,0.1-1c0-0.2,0,0.1,0,0.2c0-0.4,0.1-1.1,0.1-1.6c0.1-0.8,0-0.1,0.1-1c0.2-1.9,0.4-3.8,0.5-5.7
							c2.9-0.9,5.9-1.9,8.9-2.9c0.1,0,0,0-0.2,0.1c0.4-0.1,0.7-0.2,1.1-0.4c0.2-0.1,0.4-0.1,0.5-0.2c0.3-0.1,0.5-0.2,0.7-0.5
							c0.4-0.4,0.5-1,0.3-1.5c-0.1-0.3-0.3-0.5-0.5-0.7c-0.1-0.1-0.2-0.2-0.3-0.2h-0.1c0,0,0,0-0.1,0h-0.1c-0.4-0.2-0.5-0.2-0.6-0.3
							c0.1,0.1-1.8-0.7-3.7-1.4s-3.9-1.5-3.9-1.5h-0.1c-0.6-0.2-0.8-0.3-0.9-0.4c-0.1-0.1-0.1,0-0.1-0.1l0,0l0,0l0,0l0,0
							c0-0.6,0.2-2.4,0.2-2.9c0,0,0,0,0-0.1s0-0.2,0-0.2c0-0.2,0-0.3,0-0.3c0-0.2,0.1-0.7,0.1-1.2c0-0.2,0,0.1,0,0.2l0.1-1
							c0-0.4,0.1-0.5,0-0.1c0.1-0.7,0.2-2,0.3-3.6c0-0.4,0.1-0.8,0.1-1.3c0-0.1,0-0.2,0-0.3s0-0.2,0-0.3s0-0.2,0-0.3
							c-0.1-0.4-0.3-0.7-0.6-0.9s-0.7-0.3-1.1-0.2c-0.1,0-0.2,0-0.3,0.1c0,0-0.1,0-0.1,0.1l-0.1,0.1c-0.1,0-0.1,0.1-0.2,0.2
							l-0.1,0.1l-0.1,0.1c-0.3,0.4-0.6,0.7-1,1.1c-2.6,3-5.2,6-6.1,7.1c0.3-0.3,0.8-1,1.1-1.2c-0.5,0.6-0.7,0.9-0.9,1.1
							c0,0-0.1,0.1-0.2,0.2l-0.1,0.1l0,0l0,0l0,0l0,0c-0.1,0-0.2-0.1-0.4-0.1c-0.2-0.1-0.4-0.2-0.6-0.3l-0.2-0.1l-0.3-0.2
							c-3.2-1.2-0.7-0.3-3.5-1.3c-1.6-0.6-2.4-0.9-3.2-1.2c0.1,0.1,0.4,0.2,0,0c-0.1-0.1-1.1-0.4-1.3-0.5c-0.4-0.2-1.7-0.7-1.3-0.5
							c-0.2-0.1-1.4-0.6-0.7-0.3c-0.1,0-0.2-0.1-0.3-0.1s-0.1,0-0.2-0.1c-0.1,0-0.2,0-0.2,0c-0.3,0-0.6,0.1-0.8,0.2
							c0.2-0.1,0.5-0.2,0.8-0.2c-0.3,0-0.5,0-0.8,0.2c-0.2,0.1-0.4,0.3-0.5,0.5c-0.2,0.4-0.3,0.8-0.2,1.2c0,0.1,0.1,0.2,0.1,0.3
							l0.1,0.1v0.1c0.1,0.1,0.1,0.2,0.2,0.3c0.1,0.2,0.3,0.4,0.4,0.6l-0.3-0.5c0.5,0.7,0.9,1.3,1,1.6l-0.5-0.7
							c0.8,1.2,1.2,1.9,1.9,2.9l-0.2-0.4c0.3,0.4,1,1.5,1.8,2.8c0.8,1.2,1.7,2.6,2.4,3.7l-0.1,0.1c-0.1,0.1-0.2,0.2-0.3,0.3
							c-0.2,0.2-0.4,0.4-0.5,0.6c-0.3,0.4-0.5,0.7-0.7,0.8l0.4-0.5l-0.8,0.9c0.1-0.1,0.3-0.5,0.4-0.6c-0.8,1-3.5,4-6,7
							c-0.2,0.2-0.3,0.4-0.5,0.6l-0.2,0.3l-0.1,0.1l-0.1,0.1l-0.1,0.1l-0.1,0.1c-0.2,0.3-0.2,0.7-0.1,1c0.1,0.3,0.3,0.6,0.6,0.7
							c0.1,0,0.2,0.1,0.2,0.1c0.1,0,0.2,0,0.2,0c0.1,0,0.2,0,0.2,0h0.1h0.1c0.2-0.1,0.4-0.1,0.7-0.2c0.4-0.1,0.8-0.2,1.2-0.3
							c1.6-0.4,2.8-0.8,3.4-1c0.9-0.3,0.2,0,0.2,0c1.1-0.3,0.5-0.2,1.4-0.5c0.3-0.1,0,0-0.2,0.1c0.4-0.1,0.8-0.2,0.8-0.3
							c-0.5,0.1-0.3,0.1-0.5,0.1l1.2-0.4l0,0c0.3-0.1,0.7-0.3,1.9-0.6c0.8-0.2,1.5-0.5,2.3-0.7c0.7,1,1.3,2,2,3c0,0-0.3-0.4-0.5-0.8
							c0.2,0.2,0.4,0.6,0.5,0.8c-0.3-0.4,0.5,0.7,0.3,0.4c0.9,1.3,1.9,3,2.7,4.2c0.1,0,0.6,0.6,1.2,1.1c0.3,0.3,0.6,0.3,0.7,0.2
							c0.1,0,0.1-0.1,0.2-0.1c0.3-0.1,0.5-0.3,0.7-0.5C1012.6,167.7,1012.8,167.7,1013.1,165.8z"/>
						<path class="st42" d="M994.1,142.5c2.6-0.3,5.2-0.5,7.8-0.8"/>
						<path class="st42" d="M1009.1,140.1c1.9-0.1,3.8-0.3,5.8-0.4"/>
						<path class="st42" d="M996.8,145.5c6-0.4,12.1-1.1,18-2.1"/>
						<path class="st42" d="M999.1,149.7c5.7-1,11.4-2,17-2.9"/>
						<path class="st42" d="M997.9,153.4c7.7-1.6,15.5-3.1,23.2-4.7"/>
						<path class="st42" d="M993.3,157.4c10.2-1.8,20.5-3.6,30.7-5.4"/>
						<path class="st42" d="M991.6,160.1c7.4-0.8,14.8-1.4,22.2-1.8"/>
						<path class="st42" d="M1006.8,161.8c1.8,0.1,3.6,0.2,5.3,0.3"/>
						<path class="st42" d="M1009.3,165.1c0.9-0.2,1.9-0.3,2.8-0.2"/>
					</g>
					<g>
						<path class="st42" d="M1519.5,62.7L1519.5,62.7l0.2-0.6c0.3-0.8,0.3-1.2,0.3-1.1l-0.3,1.1c0.3-0.8,0.1-0.2,0,0.1
							c0.1-0.3,0.2-0.7,0.3-0.9c0-0.2,0,0.1-0.1,0.2c0.1-0.4,0.3-1,0.5-1.6c0.3-0.8,0,0,0.3-1c0.6-1.8,1.1-3.6,1.7-5.4
							c3.1-0.3,6.1-0.6,9.3-1c0.1,0,0,0-0.2,0c0.4,0,0.8-0.1,1.2-0.1c0.2,0,0.4,0,0.6-0.1c0.3,0,0.5-0.1,0.8-0.3
							c0.5-0.3,0.7-0.9,0.6-1.4c0-0.3-0.1-0.5-0.3-0.8c-0.1-0.1-0.2-0.2-0.3-0.3l-0.1-0.1c0,0,0,0-0.1,0l-0.1-0.1
							c-0.3-0.2-0.4-0.3-0.5-0.4c0.1,0.1-1.6-1-3.3-2.1c-1.7-1.1-3.5-2.3-3.5-2.3h-0.1c-0.6-0.4-0.7-0.5-0.8-0.5
							c-0.1-0.1-0.1-0.1-0.1-0.1l0,0l0,0l0,0l0,0c0.1-0.6,0.7-2.3,0.8-2.8c0,0,0,0,0-0.1s0-0.1,0.1-0.2c0.1-0.2,0.1-0.3,0.1-0.3
							c0-0.2,0.2-0.7,0.3-1.1c0-0.2,0,0.1-0.1,0.2l0.3-1c0.1-0.4,0.2-0.5,0-0.1c0.2-0.6,0.6-1.9,1.1-3.5c0.1-0.4,0.2-0.8,0.4-1.2
							c0-0.1,0.1-0.2,0.1-0.3s0-0.2,0.1-0.2c0-0.1,0-0.2,0-0.3c0-0.4-0.2-0.7-0.4-1c-0.3-0.2-0.6-0.4-1-0.4c-0.1,0-0.2,0-0.3,0h-0.1
							l-0.1,0.1c-0.1,0-0.2,0.1-0.3,0.1c0,0-0.1,0-0.1,0.1l-0.1,0.1c-0.4,0.3-0.8,0.6-1.2,0.9c-3.1,2.4-6.3,4.8-7.4,5.7
							c0.3-0.2,1-0.8,1.3-0.9c-0.6,0.5-0.9,0.7-1.2,0.9c-0.1,0-0.2,0.1-0.3,0.2c0,0-0.1,0-0.1,0.1l0,0l0,0l0,0l0,0
							c-0.1-0.1-0.2-0.1-0.3-0.2c-0.2-0.1-0.4-0.3-0.5-0.4l-0.2-0.1l-0.3-0.2c-2.8-1.8-0.7-0.4-3.2-2c-1.4-0.9-2.1-1.3-2.9-1.9
							c0.1,0.1,0.4,0.3,0,0c-0.1-0.1-1-0.6-1.2-0.8c-0.4-0.2-1.6-1-1.2-0.7c-0.2-0.1-1.3-0.8-0.6-0.4c-0.1-0.1-0.2-0.1-0.3-0.2
							c-0.1,0-0.1-0.1-0.2-0.1s-0.1-0.1-0.2-0.1c-0.3-0.1-0.6,0-0.8,0c0.3-0.1,0.6-0.1,0.8,0c-0.3-0.1-0.5-0.1-0.8,0
							c-0.2,0.1-0.4,0.2-0.6,0.3c-0.3,0.3-0.5,0.7-0.4,1.1c0,0.1,0,0.2,0,0.3v0.1v0.1c0,0.1,0.1,0.2,0.1,0.3
							c0.1,0.2,0.2,0.4,0.3,0.6l-0.2-0.5c0.3,0.8,0.6,1.5,0.7,1.8l-0.3-0.8c0.5,1.3,0.8,2.1,1.3,3.3l-0.2-0.4
							c0.2,0.5,0.7,1.7,1.2,3.1c0.5,1.3,1.1,2.9,1.6,4.1l-0.1,0.1c-0.1,0.1-0.2,0.2-0.4,0.3c-0.2,0.2-0.4,0.3-0.6,0.5
							c-0.4,0.3-0.7,0.5-0.8,0.7l0.5-0.4l-0.9,0.7c0.1-0.1,0.4-0.4,0.5-0.5c-1,0.8-4.2,3.2-7.4,5.6c-0.2,0.2-0.4,0.3-0.6,0.5
							l-0.3,0.2l-0.1,0.1l-0.1,0.1l-0.1,0.1l-0.1,0.1c-0.2,0.3-0.3,0.6-0.3,1c0,0.3,0.2,0.6,0.5,0.9c0.1,0.1,0.1,0.1,0.2,0.1
							s0.2,0.1,0.2,0.1c0.1,0,0.2,0,0.2,0h0.1h0.1c0.2,0,0.5,0,0.7,0c0.4,0,0.9-0.1,1.3-0.1c1.6-0.1,2.9-0.2,3.5-0.3
							c1-0.1,0.2,0,0.2,0c1.2-0.1,0.5-0.1,1.5-0.1c0.3,0-0.1,0-0.2,0c0.4,0,0.8-0.1,0.9-0.1c-0.5,0-0.3,0-0.5,0l1.3-0.1h-0.1
							c0.3,0,0.7-0.1,2-0.2c0.8-0.1,1.6-0.1,2.4-0.2c0.4,1.1,0.9,2.3,1.3,3.4c0,0-0.2-0.4-0.4-0.9c0.1,0.3,0.3,0.7,0.3,0.9
							c-0.2-0.5,0.3,0.8,0.2,0.5c0.6,1.4,1.3,3.3,1.8,4.6c0,0,0.5,0.7,0.9,1.3c0.2,0.3,0.5,0.4,0.7,0.4c0.1,0,0.2,0,0.2-0.1
							c0.3,0,0.5-0.1,0.8-0.3C1518.6,64.4,1518.9,64.5,1519.5,62.7z"/>
						<path class="st42" d="M1505.8,36c2.6,0.3,5.2,0.5,7.8,0.8"/>
						<path class="st42" d="M1520.9,36.7c1.9,0.3,3.8,0.5,5.7,0.8"/>
						<path class="st42" d="M1507.8,39.5c6,0.9,12,1.4,18.1,1.7"/>
						<path class="st42" d="M1509.1,44c5.8,0.2,11.5,0.4,17.3,0.6"/>
						<path class="st42" d="M1507.2,47.4c7.9,0.1,15.8,0.2,23.7,0.2"/>
						<path class="st42" d="M1501.9,50.4c10.4,0.3,20.8,0.7,31.2,1"/>
						<path class="st42" d="M1499.7,52.7c7.4,0.8,14.7,1.7,22.1,2.8"/>
						<path class="st42" d="M1514.2,57.4c1.7,0.5,3.4,0.9,5.2,1.4"/>
						<path class="st42" d="M1515.9,61.2c1,0,1.9,0.1,2.8,0.4"/>
					</g>
					<g>
						<path class="st42" d="M556.6,75.9L556.6,75.9l0.3-0.5c0.4-0.7,0.6-1.1,0.6-1l-0.6,1c0.4-0.7,0.1-0.2,0,0.1
							c0.2-0.3,0.4-0.6,0.5-0.8c0.1-0.1-0.1,0.1-0.1,0.2c0.2-0.4,0.5-0.9,0.8-1.4c0.4-0.7,0.1,0,0.6-0.9c1-1.7,1.9-3.3,2.9-4.9
							c3,0.2,6.1,0.4,9.2,0.6c0.1,0,0,0-0.2,0c0.4,0,0.8,0,1.2,0.1c0.2,0,0.4,0,0.6,0c0.3,0,0.6,0,0.8-0.2c0.5-0.3,0.9-0.8,0.9-1.3
							c0-0.3,0-0.5-0.1-0.8c-0.1-0.1-0.1-0.2-0.2-0.3l-0.1-0.1l0,0l-0.1-0.1c-0.3-0.3-0.3-0.4-0.4-0.4c0.1,0.1-1.3-1.2-2.7-2.6
							c-1.4-1.4-2.8-2.7-2.9-2.8h-0.1c-0.5-0.4-0.6-0.6-0.6-0.6c-0.1-0.1,0-0.1-0.1-0.1l0,0l0,0l0,0l0,0c0.2-0.5,1.2-2.1,1.5-2.6
							c0,0,0,0,0.1-0.1c0-0.1,0.1-0.1,0.1-0.2c0.1-0.1,0.2-0.3,0.2-0.3c0.1-0.2,0.4-0.6,0.6-1c0.1-0.1-0.1,0.1-0.1,0.2l0.5-0.9
							c0.2-0.3,0.3-0.4,0.1,0c0.3-0.6,1-1.7,1.8-3.1c0.2-0.4,0.4-0.7,0.6-1.1c0.1-0.1,0.1-0.2,0.2-0.3c0-0.1,0.1-0.2,0.1-0.2
							c0-0.1,0.1-0.2,0.1-0.3c0.1-0.4,0-0.7-0.2-1s-0.5-0.5-0.9-0.6c-0.1,0-0.2,0-0.3,0h-0.1H571c-0.1,0-0.2,0.1-0.3,0.1
							s-0.1,0-0.1,0h-0.1c-0.4,0.2-0.9,0.4-1.3,0.7c-3.6,1.8-7.2,3.6-8.5,4.2c0.3-0.2,1.2-0.6,1.5-0.7c-0.7,0.4-1,0.5-1.3,0.7
							c-0.1,0-0.2,0.1-0.3,0.1c0,0-0.1,0-0.1,0.1l0,0l0,0l0,0l0,0c-0.1-0.1-0.2-0.2-0.3-0.3c-0.2-0.2-0.3-0.3-0.4-0.4l-0.2-0.1
							l-0.2-0.3c-2.3-2.2-0.5-0.5-2.6-2.5c-1.2-1.1-1.8-1.6-2.4-2.3c0.1,0.1,0.3,0.3,0,0c0-0.1-0.8-0.8-1-0.9
							c-0.3-0.3-1.3-1.2-1-0.9c-0.2-0.2-1-1-0.5-0.5c-0.1-0.1-0.1-0.1-0.2-0.2c-0.1,0-0.1-0.1-0.2-0.1c-0.1,0-0.1-0.1-0.2-0.1
							c-0.3-0.1-0.6-0.1-0.8-0.1c0.3,0,0.6,0,0.8,0.1c-0.2-0.1-0.5-0.1-0.7-0.1s-0.5,0.1-0.6,0.2c-0.4,0.2-0.6,0.6-0.7,1
							c0,0.1,0,0.2,0,0.3v0.1v0.1c0,0.1,0,0.2,0,0.3c0,0.2,0.1,0.4,0.1,0.7l-0.1-0.5c0.1,0.8,0.2,1.5,0.2,1.8l-0.1-0.8
							c0.2,1.4,0.3,2.2,0.5,3.3l-0.1-0.4c0.1,0.5,0.3,1.7,0.5,3.2c0.2,1.4,0.4,2.9,0.6,4.2c-0.1,0-0.1,0.1-0.2,0.1
							c-0.1,0.1-0.3,0.1-0.4,0.2c-0.3,0.1-0.5,0.3-0.7,0.4c-0.4,0.2-0.8,0.4-1,0.5l0.6-0.3l-1.1,0.6c0.1-0.1,0.5-0.3,0.6-0.4
							c-1.2,0.6-4.8,2.4-8.4,4.2c-0.2,0.1-0.5,0.2-0.7,0.3l-0.3,0.2h-0.1l-0.1,0.1c0,0-0.1,0-0.1,0.1l-0.1,0.1
							c-0.3,0.2-0.5,0.6-0.5,0.9c0,0.3,0.1,0.7,0.3,0.9c0,0.1,0.1,0.1,0.2,0.2c0.1,0,0.1,0.1,0.2,0.1c0.1,0,0.1,0.1,0.2,0.1h0.1h0.1
							c0.2,0,0.4,0.1,0.7,0.1c0.4,0,0.9,0.1,1.3,0.1c1.6,0.2,2.9,0.3,3.5,0.3c0.9,0.1,0.2,0.1,0.2,0.1c1.2,0.1,0.5,0,1.5,0.1
							c0.3,0-0.1,0-0.2,0c0.4,0,0.8,0.1,0.9,0.1c-0.5-0.1-0.3-0.1-0.5-0.1l1.3,0.1h-0.1c0.3,0,0.7,0,2,0.1c0.8,0.1,1.6,0.1,2.4,0.2
							c0.2,1.2,0.3,2.3,0.5,3.4c0,0-0.1-0.5-0.1-0.9c0,0.3,0.1,0.7,0.1,0.9c0-0.5,0.1,0.9,0.1,0.5c0.3,1.5,0.5,3.4,0.7,4.7
							c0,0.1,0.3,0.7,0.6,1.4c0.1,0.3,0.4,0.5,0.6,0.5c0.1,0,0.2,0,0.2,0c0.3,0,0.6-0.1,0.8-0.2C555.3,77.4,555.6,77.5,556.6,75.9z"
							/>
						<path class="st42" d="M540.5,65.3c0.8-1,1.5-2.1,2.3-3.1"/>
						<path class="st42" d="M544.3,65.6c1.6-2.3,3.2-4.6,4.9-6.9"/>
						<path class="st42" d="M550.8,56c1.7-2.2,3.3-4.6,4.7-7"/>
						<path class="st42" d="M548.6,66.3c3-5.5,6.2-10.9,9.5-16.2"/>
						<path class="st42" d="M551.8,67.1c3.1-4.8,6.1-9.7,9.1-14.6"/>
						<path class="st42" d="M553,71.5c4.1-7.2,8.3-14.3,12.7-21.3"/>
						<path class="st42" d="M554.3,76.7c5.3-9.5,10.6-18.9,15.9-28.4"/>
						<path class="st42" d="M563.6,67c1.2-2.7,2.6-5.2,4.2-7.7"/>
						<path class="st42" d="M567.4,67.4c0.9-1.3,1.7-2.6,2.4-3.9"/>
						<path class="st42" d="M571.1,67.3c0.2-0.9,0.5-1.8,1-2.5"/>
					</g>
					<g>
						<g>
							<path class="st42" d="M1679.2,899.4c-0.9-3.3-4-5.8-7.4-6s-6.7,2-8,5.1c-2,5,1.9,11,7.1,12.3c5.2,1.2,10.8-1.7,13.8-6.2
								c1.7-2.6,2.7-5.6,3.7-8.6c3.7-11.8,7.3-23.5,10.7-35.4c0.6-2,1-4.4-0.6-5.8c-0.7-0.6-1.7-0.8-2.7-1
								c-14.5-2.4-28.9-4.8-43.4-7.3c-1.2,6-2.7,11-3.6,17.1c-1.4,9.6-4.9,18.9-10.3,27c-2,3.1-4.5,6.2-7.9,7.6
								c-4.8,2.1-11,0.1-13.5-4.4c-2.5-4.6-0.5-11.1,4.3-13.2c4.7-2.1,11.1,1.2,11.9,6.3"/>
							<path class="st42" d="M1650.8,858.6c15.2,1.7,30.3,3.8,45.4,6.1"/>
							<path class="st42" d="M1617.2,888.8c4.6-2,9.2-4.1,13.8-6.1"/>
							<path class="st42" d="M1618.2,894.6c4.8-2.6,9.7-5.2,14.7-7.6"/>
							<path class="st42" d="M1623.5,898.3c3.6-2.6,7.5-4.9,11.5-6.7"/>
							<path class="st42" d="M1664.3,900.4c3.8-1.5,7.6-3.1,11.4-4.6"/>
							<path class="st42" d="M1664.6,905.8c4.6-2.5,9.3-4.7,14.2-6.6"/>
							<path class="st42" d="M1667.8,909.6c4.4-2.1,8.7-4.2,13.1-6.5"/>
							<path class="st42" d="M1651.9,855.1c3.4-2.9,7.3-5.4,11.4-7.2"/>
							<path class="st42" d="M1656.5,857.5c4.7-3.1,9.7-5.6,15-7.5"/>
							<path class="st42" d="M1668.4,859.9c3.7-2.9,7.8-5.2,12.1-6.9"/>
							<path class="st42" d="M1677.3,860.1c3.9-2.6,8.2-4.8,12.6-6.5"/>
							<path class="st42" d="M1687.2,861.5c3.6-1.8,7.3-3.6,10.9-5.3"/>
						</g>
					</g>
					<g>
						<path class="st43" d="M300.9,77.5c-5.5-1.1-10.8-4.6-13-9.8c-2.8-6.5,0.1-14.7,6-18.6s14.1-3.5,20,0.5
							c0.2-12.6,10.4-24.2,22.9-25.9c12.4-1.7,25.5,6.7,29.1,18.7c5-6.2,12.7-10.8,20.6-10.1s15.4,7.8,14.7,15.7
							c8.2-0.5,18.5,1,20.8,8.9c1.2,4.1-0.6,8.7-3.7,11.7s-7.2,4.7-11.3,5.7c-10.4,2.6-21.6,1.7-31.5-2.5
							c-7.1,8.9-18.9,12.4-30.2,13.5c-8.2,0.8-19.3-2.8-24.8-8.5C314.5,78.4,309.3,79.3,300.9,77.5z"/>
						<path class="st43" d="M293.1,53.2c-2.9,3.5-4,8.3-2.8,12.7c0.4,1.5,1.1,3,2.5,3.7"/>
						<path class="st43" d="M340.3,82.5c8.7,0.5,17.6-2.3,24.5-7.6"/>
						<path class="st43" d="M393.4,71.7c5,0.5,10.2,0.1,14.7-2s8.3-6.1,9.5-11c0.2-1,0.4-2.1,0.1-3.1"/>
						<path class="st43" d="M407.1,52.2c2.8,0.4,5.5,2.4,5.8,5.2c0.3,2.7-1.7,5.2-3.5,7.2"/>
						<path class="st43" d="M368.8,43c1.7-1.8,3.7-3.5,5.8-4.9c1.5-1,3.2-1.9,4.9-1.6"/>
						<path class="st43" d="M355.8,35.8c2.9,1.9,5.1,5,5.9,8.4"/>
					</g>
					<g>
						<path class="st44" d="M1197.5,76c4.4-0.3,8.9-2.4,11.2-6.2c2.9-4.8,1.6-11.4-2.6-15.1c-4.2-3.7-10.6-4.3-15.6-1.8
							c1.2-9.8-5.5-20-15-22.7s-20.6,2.4-24.7,11.4c-3.2-5.4-8.7-9.8-14.9-10.1c-6.3-0.3-12.8,4.4-13.2,10.6
							c-6.3-1.3-14.5-1.2-17.2,4.6c-1.4,3.1-0.5,6.8,1.6,9.5s5.1,4.4,8.2,5.7c7.8,3.2,16.7,3.7,24.8,1.5
							c4.5,7.7,13.4,11.7,22.1,13.8c6.3,1.5,15.3-0.1,20.2-3.9C1186.8,75.2,1190.8,76.4,1197.5,76z"/>
						<path class="st44" d="M1206.2,57.9c1.9,3,2.2,6.9,0.8,10.2c-0.5,1.1-1.2,2.2-2.4,2.6"/>
						<path class="st44" d="M1166.3,75.5c-6.8-0.6-13.5-3.7-18.3-8.6"/>
						<path class="st44" d="M1126.1,61.3c-3.9-0.1-7.9-1-11.2-3.2c-3.3-2.2-5.8-5.7-6.2-9.6c-0.1-0.8-0.1-1.7,0.3-2.4"/>
						<path class="st44" d="M1117.6,44.6c-2.2,0-4.5,1.3-5.1,3.4c-0.5,2.1,0.7,4.2,1.9,6"/>
						<path class="st44" d="M1148.4,41.7c-1.2-1.6-2.5-3.1-4-4.4c-1-0.9-2.3-1.8-3.6-1.7"/>
						<path class="st44" d="M1159.3,37.5c-2.5,1.2-4.5,3.3-5.5,5.9"/>
					</g>
					<g>
						<g>
							<path class="st45" d="M793.1,65.7c2.7,6.7,5.8,13.2,9.1,19.5c2.5,4.7,5.8,5.3,10.3,2.6c4.1-2.5,8.2-4.7,12.4-7
								c16.1-9.1,31.5-19.5,47.5-28.9c2.8-1.6,5.6-3.3,8.3-4.9c2.3-1.3,4.8-2.3,5.9-4.8c1.1-2.3-5.1-1.4-6.1-1.4
								c-6.5-0.1-13.2,0.3-19.8,0.7c-12.3,0.7-24.5,1.9-36.6,3.7c-6.1,0.9-12.1,2-18.1,3.1c-4.6,0.9-11.8,1.4-14.6,5.9
								c-1.5,2.5-0.7,5.6,0.4,8.4C792.2,63.8,792.7,64.8,793.1,65.7z"/>
							<path class="st3" d="M818.8,35.6c-3.9,0.2-7.8,0.7-11.4,2.1c-4,1.6-7.4,4.5-10.2,7.7c-0.9,1-1.6,2.1-2.3,3.2
								c-0.1,0.2-2.7,4.3-2.8,4.5c-1.2,1.6,7.5,0.9,9.1,0.8c9.3-0.6,18.7-2.3,28-3.4c11.2-1.4,22.4-2.8,33.6-4.1
								c5.6-0.7,11.2-1.4,16.8-2.1c1.5-0.2,10.6-0.9,6.2-4.2c-1.6-1.2-5-0.9-6.9-1.1c-6.9-0.7-13.7-1.4-20.6-1.9
								c-8.8-0.6-17.7-1-26.5-1.2C827.8,35.8,823.3,35.5,818.8,35.6z"/>
							<g>
								<path class="st46" d="M800.5,33c1.6,3,1.3,6.9-0.5,9.8"/>
								<path class="st47" d="M798.4,31.4c0.3,0,0.6,0.2,0.9,0.4c-0.2-0.2-0.3-0.5-0.3-0.8c-0.1-0.9,0.7-1.5,1.5-1.1
									c0.5,0.3,0.8,0.9,0.9,1.5c0.2,0.5,0.3,1.1,0.1,1.6c-0.3,0.7-1.2,0.9-1.6,0.2l0,0c-0.2-0.1-0.4-0.1-0.7-0.2
									c-0.5-0.1-1-0.3-1.3-0.7C797.6,31.9,798,31.4,798.4,31.4z"/>
								<path class="st26" d="M812.2,64.2c0.1-0.6,0.2-1.2,0.3-1.8c-7.8-13.8-15.7-27.5-24-41.1c-2.9-4.7-12.9-0.9-10.1,3.9
									c8.5,14,17.3,27.8,26.3,41.6c2.3,0.7,4.5,1.8,6.6,3C811.7,67.9,811.9,66.1,812.2,64.2z"/>
								<path class="st48" d="M778.6,21.5c7.4,14.2,15.9,28.7,30.6,35c1.1,1.9,2.2,3.9,3.3,5.8c-0.1,0.6-0.2,1.2-0.3,1.8
									c-0.2,1.8-0.5,3.7-0.9,5.5c-2.1-1.2-4.3-2.4-6.6-3c-9-13.8-17.8-27.6-26.3-41.6C777.6,23.8,777.8,22.5,778.6,21.5z"/>
								<path class="st49" d="M803,64c0.6,0.9,1.1,1.8,1.7,2.7c2.3,0.7,4.5,1.8,6.6,3c0.3-1.8,0.6-3.7,0.9-5.5
									c0.1-0.6,0.2-1.2,0.3-1.8c-0.4-0.7-0.8-1.5-1.2-2.2C808.4,61.1,805.6,62.3,803,64z"/>
								<path class="st4" d="M779.1,26.2c2.8-2.1,6-3.9,9.4-5l0,0c-2.9-4.7-12.9-0.9-10.1,3.9C778.7,25.5,778.9,25.9,779.1,26.2z"/>
								<path class="st45" d="M789.9,23.7c-0.5-0.8-0.9-1.6-1.4-2.4c-3.4,1.1-6.6,2.9-9.4,5c0.5,0.8,1,1.6,1.5,2.4
									C783.1,26.5,786.5,25,789.9,23.7z"/>
								<path class="st47" d="M811.3,69.8c0.3-1.8,0.6-3.7,0.9-5.5c0-0.3,0.1-0.6,0.1-0.9c-2,1.4-3.7,2.9-5.3,4.3
									C808.5,68.2,809.9,69,811.3,69.8z"/>
								<path class="st50" d="M788.2,26.6c7,11.8,13.9,23.5,20.9,35.3"/>
								<path class="st50" d="M784,29.2c7.3,11.3,14.3,22.8,21.2,34.4"/>
								<g>
									<path class="st46" d="M794,30.4c-0.3-0.6-0.9-0.9-1.6-0.8c-0.9,0.2-1.3,1.3-0.8,2.1"/>
									<path class="st46" d="M788.9,33.6c-0.3-1-1.7-1.5-2.6-1c-0.9,0.6-1,2-0.2,2.7"/>
									<path class="st46" d="M792,32.9c0.3,0.4,0.2,1.1-0.3,1.3c-0.5,0.3-1.1,0.1-1.4-0.5"/>
									<path class="st39" d="M793.4,32.5c0-0.2,0.2-0.4,0.3-0.6c0,0,0,0,0-0.1c0.2-0.2,0.4-0.4,0.7-0.5s0.5-0.2,0.8-0.2
										c0.5,0,1,0.3,1.2,0.7s0.1,1-0.3,1.4c-0.2,0.2-0.4,0.4-0.7,0.5s-0.5,0.2-0.8,0.2c0,0,0,0-0.1,0c-0.3,0-0.5-0.1-0.7-0.2
										c-0.2-0.1-0.4-0.3-0.5-0.5C793.4,33,793.4,32.7,793.4,32.5z"/>
									<path class="st39" d="M787.6,35.1c2.1-1.5,3.8,0.9,1.7,2.4C787.2,39.1,785.5,36.6,787.6,35.1z"/>
								</g>
								<path class="st46" d="M792.9,46.2c-0.3,0.2-0.7,0.3-1,0.4c-2.8,0.4-5.9-0.8-7.6-3.1"/>
								<path class="st47" d="M782.4,40.8c0.3,0.2,0.8,0.5,1.1,0.6c0-0.1,0-0.2,0-0.3c0-0.9,1.1-1.1,1.3-0.2c0.1,0.4,0.1,0.8,0,1.1
									c0,0.4,0.3,0.8,0.2,1.2c-0.2,0.7-1.2,1.1-1.8,0.7l-2-1.1C780.1,42.2,781.2,40.2,782.4,40.8z"/>
							</g>
							<g>
								<path class="st46" d="M823,36.9c0.4-2.3,0.3-4.6-0.1-6.9"/>
								<g>
									<path class="st47" d="M823.9,29.7L823.9,29.7L823.9,29.7z"/>
									<path class="st47" d="M822.9,27.9c-0.2,0.2-0.4,0.3-0.5,0.6c-0.1,0.2-0.1,0.3-0.2,0.5c0,0.1,0,0.2,0,0.3l0,0
										c-0.3-0.1-0.7-0.1-0.8,0.3c-0.1,0.3,0,0.7,0.4,0.8c0.2,0,0.3,0.1,0.5,0.1c0.3,0.1,0.7,0.2,1,0.1c0.2-0.1,0.3-0.2,0.4-0.3
										c0.4-0.5,1.1-1.4,0.6-2C823.9,27.8,823.3,27.6,822.9,27.9z"/>
								</g>
								<path class="st6" d="M809.4,47.4c-0.5-0.2-0.9-0.5-1.1-0.9c-0.7-1.4-1.3-2.9-1.8-4.3c-0.2-0.7-0.3-1.5-0.2-2.3
									c0.4-3.8,6.6-5.4,9.5-6.6c3-1.3,5.5-1.3,7.3,1.7c3.2,5.3,5.6,11.8,7,17.8c0.2,0.9-6.8,2.6-9,4.1c-5.2,3.5-7.4-0.8-9.3-3.9
									c-0.1-0.1-0.2-0.3-0.2-0.4c-0.2-0.3-0.3-0.7-0.2-1.1C811.5,49.8,810.7,47.8,809.4,47.4z"/>
								<path class="st6" d="M806.6,42.1c-0.2-0.7-0.3-1.5-0.2-2.3c0.2-1.6,1.4-2.9,3-3.8c1.2,2.8,2.5,5.5,3.9,8.2
									c0.5,0.1,1,0.5,1.4,1c0.5,0.5,0.8,1.1,1,1.8c0.2,0.6,0.1,1.2,0.1,1.8c1.5,2.8,3,5.6,4.6,8.4c-4.5,2.4-6.6-1.5-8.3-4.5
									c-0.1-0.1-0.2-0.3-0.2-0.4c-0.2-0.3-0.3-0.7-0.2-1.1c0.1-1.5-0.7-3.5-2-3.9c-0.5-0.2-0.9-0.5-1.1-0.9
									C807.6,45,807,43.6,806.6,42.1z"/>
								<path class="st45" d="M824.3,53.7c-0.6,0.3-1.2,0.5-1.8,0.8c-0.1,0-0.2-0.1-0.2-0.1c-0.6-0.4-4.8-10-6.7-14.2
									c-0.5-1-0.9-2.2-1.1-3.3c-0.1-0.6,0.2-1.2,0.8-1.4c0.7-0.3,1.3-0.6,2-0.9c0.5-0.2,1.1-0.4,1.6-0.7c0.6-0.3,1.2-0.1,1.4,0.4
									c1.6,3.5,7.1,15.6,7.3,16.1c0.1,0.2,0.1,0.3,0.2,0.5c0.2,0.6-0.2,1.3-0.8,1.5C826.1,52.8,825.2,53.3,824.3,53.7z"/>
								<path class="st49" d="M814.5,36.9c-0.1-0.5,0.2-1.1,0.7-1.4c2,6.5,5.3,12.5,8.7,18.4c-0.4,0.2-0.9,0.4-1.3,0.6
									c-0.1,0-0.2-0.1-0.2-0.1c-0.6-0.4-4.8-10-6.7-14.2C815.2,39.1,814.7,38,814.5,36.9z"/>
								<path class="st46" d="M827.9,51.9c-2.4-6.6-4.8-12-8.1-18.1"/>
								<path class="st47" d="M811.5,35.9c0.1,0.3,1.4,0,3-0.6s2.8-1.3,2.7-1.5c-0.1-0.3-1.4,0-3,0.6
									C812.5,35,811.4,35.6,811.5,35.9z"/>
								<path class="st46" d="M809.9,37.9c0.7,1.4,1.5,2.9,2.2,4.3c0.2,0.5,0.5,1,0.9,1.4c0.5,0.5,1.2,0.9,1.7,1.4
									c0.6,0.6,1,1.3,1.2,2.2c0.2,0.8,0,1.7,0.2,2.5c0.1,0.6,0.5,1.2,0.8,1.7c0.9,1.6,1.9,3.3,2.8,4.9"/>
								<path class="st47" d="M820.6,44c-0.4-0.2-0.7-0.4-1.1-0.6c0.5-0.6,1.7-0.8,2.2-0.1c0.2,0.1,0.3,0.3,0.3,0.5
									c0.1,0.3,0,0.7-0.1,1C821.5,44.5,821.1,44.2,820.6,44z"/>
								<path class="st47" d="M820.4,44.5c0.5,0.2,0.9,0.5,1.4,0.7c-0.3,0.5-0.9,0.7-1.6,0.5c-0.4-0.1-0.7-0.5-0.9-0.9
									c-0.1-0.3-0.1-0.6-0.1-0.8C819.6,44.1,820,44.3,820.4,44.5z"/>
								<path class="st46" d="M818,31.3c-0.6-0.7-1.6-1.2-2.5-0.9c-1,0.3-1.6,1.4-1.4,2.4"/>
								<path class="st46" d="M812.3,33.5c-0.6-0.6-1.4-0.9-2.2-0.9c-1.5,0-2.7,1.3-2.1,3.1"/>
								<path class="st46" d="M808.9,42.2c-1.8-1.5-3.2-3.3-4.5-5.3"/>
								<g>
									<path class="st47" d="M803.4,37.4L803.4,37.4L803.4,37.4z"/>
									<path class="st47" d="M802.2,36.4c0.1,0.8,1.1,1.1,1.8,1.1c0.2,0,0.4,0,0.5,0c0.3-0.1,0.5-0.5,0.7-0.7
										c0.1-0.1,0.2-0.3,0.3-0.4c0.2-0.3,0-0.7-0.2-0.8c-0.3-0.2-0.6,0-0.8,0.3l0,0c-0.1-0.1-0.2-0.2-0.3-0.2
										c-0.1-0.1-0.3-0.2-0.5-0.3s-0.5-0.1-0.8-0.1C802.5,35.4,802.2,36,802.2,36.4z"/>
								</g>
							</g>
							<g>
								<g>
									<path class="st46" d="M848.7,35.6c-0.8,1.2-1.1,2.6-0.8,4"/>
									<path class="st47" d="M848.1,35.3c0.1-0.3,0.3-0.6,0.6-0.7c0.4-0.3,1,0,1.1,0.5c0.2,0.7-0.7,1.1-1.2,1.1
										C848.2,36.1,847.9,35.7,848.1,35.3z"/>
									<path class="st46" d="M847.9,34.8c0.3,0.3,0.5,0.8,0.5,1.2"/>
								</g>
								<path class="st11" d="M829.6,33.9c0.8-1.8,3.3-1.9,5-2.1c2.3-0.2,4.7-0.8,7-0.5c2.7,0.4,4.1,2.9,5.2,5.1
									c1.8,3.4,3.8,7,4.8,10.8c0.4,1.5-0.8,2.4-2.1,2.7c-4.1,1.1-11.9,3.9-15-0.7c-1.4-2-2.1-4.4-3-6.6
									C830.5,40.3,828.4,36.4,829.6,33.9z"/>
								<path class="st5" d="M831.4,42.6c-0.9-2.3-3-6.2-1.8-8.7c0.8-1.8,3.3-1.9,5-2.1c2.3-0.2,4.7-0.8,7-0.5
									c2.7,0.4,4.1,2.9,5.2,5.1c0.7,1.3,1.4,2.5,2,3.9c-5.6,1-11.2,2.4-16.9,3.6C831.8,43.5,831.6,43.1,831.4,42.6z"/>
								<path class="st51" d="M829.6,33.9c0.4-0.9,1.3-1.4,2.3-1.7c0.3,7.4,4.5,13.7,9.2,19.5c-2.7,0.2-5.2-0.3-6.6-2.5
									c-1.4-2-2.1-4.4-3-6.6C830.5,40.3,828.4,36.4,829.6,33.9z"/>
								<path class="st46" d="M845.6,36.7c-0.6-0.8-1.5-1.2-2.3-0.9s-1.4,1.1-1.4,2.1"/>
								<path class="st46" d="M838.3,38.6c-0.7-0.9-1.6-1.4-2.4-1.3c-0.8,0.2-1.5,1.2-1.2,2.4"/>
								<path class="st46" d="M841.1,38.6c-0.2,1.1-1.1,1.2-1.7,0.3"/>
								<path class="st46" d="M833.7,42.6c-1.2-0.7-2.4-1.4-3.6-2.2c-0.4-0.3-0.9-0.5-1.1-0.9c-0.3-0.4-0.3-1,0-1.4"/>
								<path class="st47" d="M826.9,39c0.2-0.4,0.6-0.5,0.9-0.5c0.4,0,0.7,0,1,0.3c0.5,0.4,0.3,1.3-0.3,1.3c-0.3,0-0.5-0.1-0.7-0.2
									c-0.1,0-0.2,0-0.3,0c-0.2,0-0.3-0.1-0.5-0.2C826.8,39.6,826.8,39.2,826.9,39z"/>
							</g>
							<path class="st3" d="M768.5,85.4c2.1,1.9,5.1,1.8,7.7,1.4c4.1-0.7,8.2-1.8,12.3-3c2.8-0.8,5.5-1.6,8.2-2.5
								c16.4-5.3,77.8-30.8,81.3-32.7c2.7-1.5,9.9-4.6,9.3-7c-0.5-1.9-4.3-0.6-5.8-0.3c-3.4,0.6-6.7,1.3-10.1,1.9
								c-25.8,5-51.5,10-77.3,14.8c-3.8,0.7-7.3,1.5-10.5,3.8c-3.4,2.4-6.4,5.5-9.3,8.6C770.9,73.8,762.9,80.5,768.5,85.4z"/>
							<path class="st46" d="M881.7,42.5c-31.7,4.5-63.2,10.2-94.4,17"/>
						</g>
						<g>
							<g>
								<g>
									<path class="st52" d="M786.2,53.5c-2.2,0.5-4.4,0.9-6.7,1"/>
									<path class="st53" d="M768.7,54.2c-7.2-1-14.1-3.5-20.2-7.5c-3.2-2.1-6.3-4.7-7.8-8.3s-0.8-8.2,2.3-10.5
										c1.6-1.1,3.6-1.5,5.5-1.5c4.5,0,8.9,2.2,11.7,5.7c2.9,3.5,4.1,8.2,3.6,12.6c-0.5,3.8-2.3,7.4-5.3,9.9
										c-4.5,3.7-10.9,4.1-16.7,3.4c-5.8-0.7-11.5-2.5-17.3-2.5c-9.3,0-18.5,4.6-24,12.2c-3.1,4.3-4.9,9.3-5.4,14.6"/>
									<path class="st52" d="M695.3,87.6c0.2,2.3,0.7,4.5,1.4,6.6"/>
								</g>
							</g>
							<path class="st54" d="M767.4,40.2c-1.7-8.4-8.7-15.4-17.1-17.2c-2.2-0.5-4.6-0.6-6.8,0s-4.2,2.1-5.2,4.1"/>
							<path class="st54" d="M719.1,60c-4.7,0.6-9.1,3.1-12.3,6.5s-5.3,7.7-6.3,12.2c-2.5,11.4,2.3,23.9,11.9,30.8"/>
						</g>
						<path class="st55" d="M834.1,88.5c-6.5,5.4-14.8,8.7-23.2,9.2c-9.5,0.5-18.9-2.4-28.4-1.7"/>
						<g>
							<path class="st55" d="M786,13.8c2.6,0.1,5,2.3,5.3,4.9"/>
							<path class="st55" d="M787.6,11c1.7,0.4,3.3,1.1,4.6,2.3s2.1,3,1.7,4.6"/>
						</g>
						<path class="st55" d="M765.3,76.2c-0.7,0.4-1,1.2-1.3,1.9c-0.9,2.4-0.9,5.1-0.1,7.5"/>
						<path class="st55" d="M762.2,72c-2.9,4.1-3.5,9.7-1.5,14.3"/>
						<g>
							<path class="st55" d="M891.7,42c0.2,2.2-1.2,4.4-3.3,5.2"/>
							<path class="st55" d="M895.6,42.1c-0.3,3.6-3,6.8-6.5,7.6"/>
						</g>
						<path class="st55" d="M799.3,100.7c-9.8-2.2-20.2-1.3-29.4,2.6"/>
					</g>
					<g>
						<g>
							<path class="st38" d="M952.9,140.5c-16.2,21.2-21.6,50.2-14,75.8"/>
							<path class="st38" d="M952.6,188.7c-8.1,5.7-13.1,18.3-11,27.7"/>
							<path class="st38" d="M956.6,197.1c-6.9,4.3-12.2,11.3-14.5,19.2"/>
						</g>
						<g>
							<path class="st38" d="M763.2,159.8c-8.5,9-12.2,20.2-11,32.6c-0.9-4-2.1-8-4.3-11.5s-5.5-6.4-9.4-7.5"/>
							<path class="st38" d="M742.3,158.9c4.5,8.7,7.8,18,9.7,27.5"/>
						</g>
						<g>
							<path class="st38" d="M176.7,196.5c3.8,5.5,6.1,12.1,6.6,18.8c4.4-5.5,10.6-9.7,17.4-11.8"/>
							<path class="st38" d="M203,189.1c-9,5.4-16.2,13.8-20.1,23.6"/>
						</g>
						<path class="st38" d="M147.9,157c4.8,3.9,7.8,9.8,8.1,15.9c1.5-9.3,8-17.6,16.6-21.3"/>
						<path class="st38" d="M70.2,205.8c1.5,2.5,2.9,4.9,4.4,7.4c1.3-3.7,9.7-16.5,12.3-19.5"/>
						<path class="st38" d="M605.7,195.1c3.6,3.5,6.4,9.7,7.4,16.9c1.5-12.7,8.4-24.9,15.2-30"/>
						<g>
							<g>
								<g>
									<path class="st39" d="M276.4,195.8c-3.3,0.7-6.3,2.8-9,4.9c-1.9-1.3-3.9-2.4-6.2-3.4c-1.7-0.8-3.9,0.5-3.3,2.5
										c0.6,2.3,1.3,4.5,2.3,6.6c-1.8,1.6-3.3,3.3-4.4,5.5c-2.1,4.1,1.4,9.2,6.1,7.9c2-0.5,3.9-1.5,5.7-2.5c0.5,0.5,1,1.1,1.5,1.5
										c2.3,1.9,5.4,2.4,7.9,0.5c2.3-1.8,3.2-5.2,1.6-7.8c-0.1-0.2-0.2-0.3-0.3-0.5c1.8-1,3.6-2.2,5-3.7
										C288,202.2,283.2,194.4,276.4,195.8z"/>
								</g>
								<path class="st40" d="M273.3,207c-0.9-4.6-6.3-3.4-7.3,0.5c-1.5,5.8,7.6,6.9,7.4,0.5C273.4,207.6,273.3,207.3,273.3,207z"/>
							</g>
						</g>
						<g>
							<path class="st38" d="M463.1,189.7c-8.2,9.2-10.9,22.9-6.8,34.5c0.2-9.7,6.6-19,15.6-22.7"/>
							<path class="st26" d="M471.5,177.7c0.2-1.2,0.3-2.5-0.3-3.6c-0.9-1.9-3-2.3-4.8-1.6c-1,0.4-1.7,1.3-2.2,2.3
								c-2.1-1.9-5.8-2.3-7.4,0.8c-1.2,2.4-1.8,4.6-1.1,7.2c0.6,3.6,3.1,6.7,7,7.9c6.2,2,12.5-1.3,16-6.7
								C481.8,179.1,475.2,174.2,471.5,177.7z"/>
						</g>
						<path class="st26" d="M965.8,124.7c-1.3,0.3-2.6,0.7-4,1c0.7-1.8,1.4-3.7,1.7-5.6c0.5-3.2-2.9-5.6-5.6-3.3
							c-2,1.7-3.5,3.8-4.7,6.2c-1.6-0.9-3.3-1.6-5.2-1.9c-1.8-0.3-3.3,0.7-3.4,2.6c-0.1,2.2,0.2,4.3,0.9,6.4
							c-2.2,0.8-4.2,1.8-5.9,3.3c-1.2,1.1-1.1,3.6,0.5,4.4c2.2,1,4.5,1.3,6.8,1.4c-0.4,1.8-0.7,3.7-0.8,5.6c-0.3,5.4,7.2,5.9,9,1.5
							c5.8,6.3,15.8-0.6,12.2-8.2h0.1C977.2,137.1,975.4,122.6,965.8,124.7z"/>
						<path class="st40" d="M962.7,132.9c0.3-5.9-8.9-10.5-12-1.7c-2.2,6.3,4.8,10.9,9.8,6C962,135.8,962.7,134.3,962.7,132.9z"/>
						<g>
							<path class="st39" d="M142.9,187.9c-2.1-2.7-5.9-3.5-9-1.8c-0.1,0-0.2,0.1-0.2,0.1c-0.9-0.9-1.9-1.6-3.3-2
								c-1.8-0.5-4.2-0.3-5.8,0.8c-3.1,2-5.3,7-2.7,10.3c0.6,0.8,1.2,1.5,1.9,2.2c-0.9,1.3-1.6,2.7-1.7,4.6c-0.1,3.7,3.4,5.5,6.6,5
								c1.5-0.2,2.7-1.1,3.7-2.1l0,0c3.3,2.2,7.8,0.3,9.2-3.1c0.5-1.3,0.6-2.9,0.2-4.4c0.2-0.2,0.3-0.4,0.5-0.5
								C144.5,194.3,145.2,190.9,142.9,187.9z"/>
							<path class="st40" d="M136.8,195.9c0-0.6-0.1-1.1-0.3-1.6s-0.4-0.9-0.8-1.3c-0.3-0.2-0.5-0.4-0.8-0.6c-0.6-0.4-1.3-0.5-2-0.6
								c-0.1,0-0.2,0-0.2,0l-1.1,0.2c-0.3,0.1-0.7,0.3-1,0.4c-0.5,0.3-0.9,0.6-1.2,1.1c-0.3,0.3-0.4,0.6-0.6,0.9
								c-0.2,0.3-0.3,0.7-0.3,1.1c-0.1,0.4-0.1,0.8,0,1.1c0,0.4,0.1,0.7,0.3,1.1c0.2,0.5,0.5,1,0.9,1.4c0.3,0.2,0.6,0.4,0.9,0.7
								c0.3,0.1,0.7,0.3,1,0.4l1.1,0.2c0.4-0.1,0.8-0.1,1.1-0.2c0.3-0.1,0.7-0.3,1-0.4c0.5-0.3,0.9-0.6,1.2-1.1
								c0.3-0.3,0.4-0.6,0.6-0.9c0.3-0.5,0.4-1.1,0.4-1.7C136.8,196,136.8,195.9,136.8,195.9z"/>
						</g>
						<g>
							<path class="st41" d="M355,196.1c0.9-3-1.6-6.3-4.7-6.2c-2.4,0.1-4.5,1.4-6.3,3c-1.3-0.8-2.7-1.4-4.3-1.4
								c-2.6,0-4.9,2.3-4.9,4.9c0,1.9,1,3.3,2.4,4c-1.1,1.5-1.9,3.2-2.5,5c-1,3.3,2.8,6,5.7,4.4c1.2-0.7,2.3-1.5,3.4-2.4
								c0.8,0.9,1.8,1.7,3.3,2.2c3.1,1.1,6.2-1.8,6.3-4.8c0-1.5-0.6-3-1.4-4.3C353.3,199.3,354.5,197.9,355,196.1z"/>
							<path class="st40" d="M344.4,196.9c-4,0-4,6.3,0,6.3S348.4,196.9,344.4,196.9z"/>
						</g>
						<g>
							<path class="st26" d="M860.3,182.9c-3.4-0.6-6.7,0.2-9.6,1.7c0-2-0.4-4-1.2-5.8c-0.8-1.7-2-2.5-4-2.9
								c-5.7-1.1-7.4,3.6-7.5,8.5c-1.6-1-3.2-1.9-5-2.8c-2.2-1-4.6-0.5-5.3,1.5c-1.6,4.4,1.9,7.8,6.4,9.9c-3.9,3.8-7.9,8.6-3.8,12.4
								c4.5,4,9.9,0.1,13.9-3.7c1.6,2.3,3.5,4.3,5.9,5.9c1.4,0.9,3.2,0.8,4.6,0.3c0.2-0.1,0.3-0.1,0.5-0.2c1.7-0.6,2.5-2.6,1.9-4.1
								c-1-2.8-2.4-5.7-4-8.4c3.9-1.4,7.2-3.5,9.9-6.4C865.2,186.5,863.8,183.5,860.3,182.9z"/>
							<path class="st40" d="M848.7,190.3c-0.1-0.4-0.4-0.7-0.7-1c-0.4-0.5-0.9-0.9-1.5-1.2c-0.4-0.2-0.8-0.3-1.2-0.5
								c-0.4-0.1-0.9-0.2-1.3-0.3c-0.7-0.1-1.4,0-2,0.2c-0.6,0.1-1.2,0.4-1.6,0.8c-0.1,0-0.1,0.1-0.2,0.1c-0.6,0.5-1,1.1-1.3,1.9
								c-0.2,0.8-0.2,1.5,0,2.3c0.2,0.4,0.4,0.8,0.6,1.1c0.5,0.7,1.1,1.3,1.9,1.7c0.6,0.4,1.2,0.6,1.9,0.7c0.7,0.2,1.4,0.2,2,0.1
								c0.9-0.1,1.7-0.5,2.3-1s1-1.1,1.3-1.9c0-0.1,0-0.2,0-0.2c0.1-0.4,0.1-0.7,0.2-1.1C849.2,191.4,849.1,190.9,848.7,190.3z"/>
						</g>
						<path class="st40" d="M90.8,183c-0.3-0.9-0.8-1.7-1.4-2.3c-1.2-1.3-3.1-1-4.4,0c-1.1,0.9-1.8,2.3-2.3,3.9
							c-1.5-0.7-3.5,0.5-4.1,2c-2,5,2.7,10.3,7.6,10.6c5.4,0.3,9.3-3.9,10.8-8.8C98.3,184.3,93.8,181.9,90.8,183z"/>
					</g>
					<g>
						<g>
							<path class="st42" d="M499.9,708.6c-2.2-4-8.9-3.4-11.4,0.4c-2.5,3.8-1.3,9.2,1.4,12.8c1.8,2.4,4.5,4.4,7.5,4.2
								c3.4-0.2,6.1-3,7.7-6c3.8-6.7,4.7-14.5,5.6-22.2c1.2-10.7,2.3-21.4,3.5-32.1c7.4,0.8,16-0.4,23.4,0.4
								c0.9,0.1,1.9,0.3,2.4,1.1c0.4,0.6,0.2,1.4,0.1,2c-0.7,4.1-1.5,8.2-2.2,12.2c-4.8,0.9-9.8,0.8-14.6-0.1"/>
							<path class="st42" d="M489.5,714.9c2.8-2.7,5.9-5.1,9.1-7.2"/>
							<path class="st42" d="M491.2,722.1c3.9-4.2,8.2-8.1,12.6-11.7"/>
							<path class="st42" d="M496.4,725.3c2.8-3.2,5.7-6.2,8.9-9"/>
							<path class="st42" d="M514.8,674.8c4-3.1,8.3-5.7,12.9-7.9"/>
							<path class="st42" d="M516.1,680.6c6.2-5,12.9-9.3,20.1-12.7"/>
							<path class="st42" d="M526.8,680.1c3.7-2,7.2-4.2,10.5-6.7"/>
						</g>
					</g>
					<g>
						<path class="st42" d="M592.4,1186.1L592.4,1186.1l0.1-1c0.1-1.4,0.2-2,0.2-1.9l-0.2,1.9c0.1-1.4,0.1-0.4,0,0.1
							c0.1-0.6,0.1-1.1,0.2-1.6c0-0.3,0,0.2-0.1,0.4c0.1-0.7,0.1-1.8,0.2-2.7c0.1-1.4,0.1-0.1,0.2-1.7c0.3-3.1,0.6-6.2,0.9-9.3
							c4.8-1.6,9.6-3.1,14.6-4.7c0.2,0,0,0-0.3,0.1c0.6-0.2,1.2-0.4,1.8-0.6c0.3-0.1,0.6-0.2,0.9-0.3c0.4-0.1,0.8-0.4,1.1-0.8
							c0.6-0.7,0.8-1.7,0.5-2.5c-0.1-0.4-0.4-0.8-0.8-1.1c-0.2-0.1-0.4-0.3-0.6-0.3l-0.1-0.1h-0.1l-0.2-0.1c-0.6-0.3-0.8-0.3-1-0.4
							c0.2,0.1-2.9-1.1-6.1-2.3c-3.2-1.2-6.4-2.5-6.5-2.5h-0.2c-1-0.4-1.3-0.5-1.5-0.6s-0.1-0.1-0.1-0.1l0,0l0,0l0,0c0,0,0,0,0-0.1
							c0-0.9,0.4-4,0.4-4.8c0,0,0-0.1,0-0.2s0-0.2,0-0.4c0-0.3,0.1-0.6,0.1-0.5c0-0.4,0.1-1.2,0.2-1.9c0-0.3,0,0.2-0.1,0.4l0.1-1.7
							c0.1-0.7,0.1-0.8,0.1-0.1c0.1-1.1,0.3-3.3,0.6-5.9c0.1-0.7,0.1-1.4,0.2-2.1c0-0.2,0-0.4,0.1-0.6c0-0.1,0-0.3,0-0.4
							s0-0.3-0.1-0.4c-0.1-0.6-0.5-1.1-1-1.4s-1.1-0.5-1.8-0.3c-0.2,0-0.3,0.1-0.5,0.1c-0.1,0-0.1,0.1-0.2,0.1l-0.2,0.1
							c-0.1,0.1-0.2,0.2-0.4,0.3c-0.1,0.1-0.1,0.1-0.1,0.1l-0.1,0.1c-0.5,0.6-1.1,1.2-1.6,1.8c-4.2,4.9-8.5,9.8-10,11.6
							c0.4-0.4,1.4-1.6,1.8-2c-0.8,1-1.2,1.4-1.6,1.8c-0.1,0.1-0.2,0.2-0.4,0.4l-0.1,0.1l0,0l0,0l0,0l0,0c-0.2-0.1-0.4-0.2-0.6-0.2
							c-0.4-0.2-0.7-0.3-1-0.4l-0.4-0.1l-0.6-0.3c-5.2-2-1.2-0.4-5.8-2.2c-2.6-1-3.9-1.4-5.3-2c0.2,0.1,0.7,0.3,0,0.1
							c-0.1-0.1-1.8-0.7-2.2-0.8c-0.7-0.3-2.9-1.1-2.1-0.8c-0.4-0.2-2.3-0.9-1.1-0.5c-0.2-0.1-0.3-0.1-0.5-0.2
							c-0.1,0-0.2-0.1-0.4-0.1c-0.1,0-0.3,0-0.4,0c-0.5,0-1,0.1-1.3,0.3c0.4-0.2,0.9-0.3,1.3-0.3c-0.5,0-0.9,0.1-1.2,0.3
							c-0.4,0.2-0.6,0.5-0.8,0.8c-0.4,0.6-0.5,1.3-0.3,1.9c0,0.1,0.1,0.3,0.2,0.4l0.1,0.2l0.1,0.1c0.1,0.2,0.2,0.3,0.3,0.5
							c0.2,0.3,0.4,0.6,0.6,0.9l-0.5-0.8c0.8,1.2,1.4,2.2,1.7,2.7l-0.8-1.2c1.3,2,2.1,3.2,3.1,4.8l-0.4-0.6c0.5,0.7,1.7,2.5,3,4.6
							c1.3,2,2.8,4.2,4,6.1c-0.1,0.1-0.1,0.2-0.2,0.2c-0.2,0.2-0.3,0.4-0.5,0.6c-0.3,0.4-0.6,0.7-0.8,1c-0.5,0.6-0.9,1.1-1.1,1.4
							l0.7-0.8l-1.3,1.5c0.2-0.2,0.5-0.8,0.7-1c-1.4,1.6-5.7,6.6-10,11.6c-0.3,0.3-0.5,0.6-0.8,0.9l-0.4,0.5l-0.1,0.1l-0.1,0.2
							c0,0.1-0.1,0.1-0.1,0.2l-0.1,0.2c-0.3,0.5-0.3,1.1-0.1,1.7c0.2,0.5,0.6,1,1.1,1.2c0.1,0.1,0.3,0.1,0.4,0.2
							c0.1,0,0.3,0.1,0.4,0.1c0.1,0,0.3,0,0.4,0h0.2c0.1,0,0.1,0,0.2,0c0.4-0.1,0.7-0.2,1.1-0.3c0.7-0.2,1.4-0.4,2-0.6
							c2.6-0.7,4.6-1.3,5.6-1.6c1.5-0.4,0.3,0,0.3,0c1.8-0.6,0.8-0.3,2.4-0.7c0.4-0.1-0.1,0.1-0.3,0.1c0.7-0.2,1.3-0.4,1.4-0.4
							c-0.9,0.2-0.5,0.1-0.9,0.2l2-0.6l-0.1,0.1c0.5-0.1,1.1-0.4,3.1-1c1.2-0.4,2.5-0.8,3.8-1.2c1.1,1.7,2.2,3.4,3.2,5
							c0,0-0.5-0.6-0.9-1.3c0.3,0.4,0.6,1,0.9,1.4c-0.4-0.7,0.8,1.2,0.5,0.7c1.5,2.1,3.2,5,4.5,6.8c0.1,0.1,1,0.9,1.9,1.7
							c0.4,0.5,0.9,0.5,1.2,0.4c0.1-0.1,0.2-0.1,0.3-0.2c0.4-0.2,0.8-0.4,1.1-0.8C591.6,1189.3,592,1189.3,592.4,1186.1z"/>
						<path class="st42" d="M561.2,1147.8c4.3-0.4,8.6-0.9,12.9-1.3"/>
						<path class="st42" d="M585.9,1143.9c3.2-0.2,6.3-0.5,9.5-0.7"/>
						<path class="st42" d="M565.7,1152.8c10-0.6,19.9-1.8,29.7-3.4"/>
						<path class="st42" d="M569.4,1159.7c9.4-1.6,18.7-3.2,28.1-4.8"/>
						<path class="st42" d="M567.5,1165.8c12.7-2.6,25.5-5.1,38.2-7.7"/>
						<path class="st42" d="M560,1172.3c16.9-3,33.7-6,50.6-8.9"/>
						<path class="st42" d="M557.2,1176.8c12.1-1.3,24.3-2.3,36.5-3"/>
						<path class="st42" d="M582.1,1179.6c2.9,0.2,5.9,0.3,8.8,0.5"/>
						<path class="st42" d="M586.2,1185c1.5-0.4,3.1-0.5,4.7-0.4"/>
					</g>
					<g>
						<path class="st42" d="M1660.9,384.3L1660.9,384.3l0.1-1c0.1-1.4,0.2-2,0.2-1.9l-0.2,1.9c0.1-1.4,0.1-0.4,0,0.1
							c0.1-0.6,0.1-1.1,0.2-1.6c0-0.3,0,0.2-0.1,0.4c0.1-0.7,0.1-1.8,0.2-2.7c0.1-1.4,0.1-0.1,0.2-1.7c0.3-3.1,0.6-6.2,0.9-9.3
							c4.8-1.6,9.6-3.1,14.6-4.7c0.2,0,0,0-0.3,0.1c0.6-0.2,1.2-0.4,1.8-0.6c0.3-0.1,0.6-0.2,0.9-0.3c0.4-0.1,0.8-0.4,1.1-0.8
							c0.6-0.7,0.8-1.7,0.5-2.5c-0.1-0.4-0.4-0.8-0.8-1.1c-0.2-0.1-0.4-0.3-0.6-0.3l-0.1-0.1h-0.1l-0.2-0.1c-0.6-0.3-0.8-0.3-1-0.4
							c0.2,0.1-2.9-1.1-6.1-2.3c-3.2-1.2-6.4-2.5-6.5-2.5h-0.2c-1-0.4-1.3-0.5-1.5-0.6s-0.1-0.1-0.1-0.1l0,0l0,0l0,0c0,0,0,0,0-0.1
							c0-0.9,0.4-4,0.4-4.8c0,0,0-0.1,0-0.2s0-0.2,0-0.4c0-0.3,0.1-0.6,0.1-0.5c0-0.4,0.1-1.2,0.2-1.9c0-0.3,0,0.2-0.1,0.4l0.1-1.7
							c0.1-0.7,0.1-0.8,0.1-0.1c0.1-1.1,0.3-3.3,0.6-5.9c0.1-0.7,0.1-1.4,0.2-2.1c0-0.2,0-0.4,0.1-0.6c0-0.1,0-0.3,0-0.4
							s0-0.3-0.1-0.4c-0.1-0.6-0.5-1.1-1-1.4s-1.1-0.5-1.8-0.3c-0.2,0-0.3,0.1-0.5,0.1c-0.1,0-0.1,0.1-0.2,0.1l-0.2,0.1
							c-0.1,0.1-0.2,0.2-0.4,0.3c-0.1,0.1-0.1,0.1-0.1,0.1l-0.1,0.1c-0.5,0.6-1.1,1.2-1.6,1.8c-4.2,4.9-8.5,9.8-10,11.6
							c0.4-0.4,1.4-1.6,1.8-2c-0.8,1-1.2,1.4-1.6,1.8c-0.1,0.1-0.2,0.2-0.4,0.4l-0.1,0.1l0,0l0,0l0,0l0,0c-0.2-0.1-0.4-0.2-0.6-0.2
							c-0.4-0.2-0.7-0.3-1-0.4l-0.4-0.1l-0.6-0.3c-5.2-2-1.2-0.4-5.8-2.2c-2.6-1-3.9-1.4-5.3-2c0.2,0.1,0.7,0.3,0,0.1
							c-0.1-0.1-1.8-0.7-2.2-0.8c-0.7-0.3-2.9-1.1-2.1-0.8c-0.4-0.2-2.3-0.9-1.1-0.5c-0.2-0.1-0.3-0.1-0.5-0.2
							c-0.1,0-0.2-0.1-0.4-0.1c-0.1,0-0.3,0-0.4,0c-0.5,0-1,0.1-1.3,0.3c0.4-0.2,0.9-0.3,1.3-0.3c-0.5,0-0.9,0.1-1.2,0.3
							c-0.4,0.2-0.6,0.5-0.8,0.8c-0.4,0.6-0.5,1.3-0.3,1.9c0,0.1,0.1,0.3,0.2,0.4l0.1,0.2l0.1,0.1c0.1,0.2,0.2,0.3,0.3,0.5
							c0.2,0.3,0.4,0.6,0.6,0.9l-0.5-0.8c0.8,1.2,1.4,2.2,1.7,2.7l-0.8-1.2c1.3,2,2.1,3.2,3.1,4.8l-0.4-0.6c0.5,0.7,1.7,2.5,3,4.6
							c1.3,2,2.8,4.2,4,6.1c-0.1,0.1-0.1,0.2-0.2,0.2c-0.2,0.2-0.3,0.4-0.5,0.6c-0.3,0.4-0.6,0.7-0.8,1c-0.5,0.6-0.9,1.1-1.1,1.4
							l0.7-0.8l-1.3,1.5c0.2-0.2,0.5-0.8,0.7-1c-1.4,1.6-5.7,6.6-10,11.6c-0.3,0.3-0.5,0.6-0.8,0.9l-0.4,0.5l-0.1,0.1l-0.1,0.2
							c0,0.1-0.1,0.1-0.1,0.2l-0.1,0.2c-0.3,0.5-0.3,1.1-0.1,1.7c0.2,0.5,0.6,1,1.1,1.2c0.1,0.1,0.3,0.1,0.4,0.2
							c0.1,0,0.3,0.1,0.4,0.1s0.3,0,0.4,0h0.2c0.1,0,0.1,0,0.2,0c0.4-0.1,0.7-0.2,1.1-0.3c0.7-0.2,1.4-0.4,2-0.6
							c2.6-0.7,4.6-1.3,5.6-1.6c1.5-0.4,0.3,0,0.3,0c1.8-0.6,0.8-0.3,2.4-0.7c0.4-0.1-0.1,0.1-0.3,0.1c0.7-0.2,1.3-0.4,1.4-0.4
							c-0.9,0.2-0.5,0.1-0.9,0.2l2-0.6l-0.1,0.1c0.5-0.1,1.1-0.4,3.1-1c1.2-0.4,2.5-0.8,3.8-1.2c1.1,1.7,2.2,3.4,3.2,5
							c0,0-0.5-0.6-0.9-1.3c0.3,0.4,0.6,1,0.9,1.4c-0.4-0.7,0.8,1.2,0.5,0.7c1.5,2.1,3.2,5,4.5,6.8c0.1,0.1,1,0.9,1.9,1.7
							c0.4,0.5,0.9,0.5,1.2,0.4c0.1-0.1,0.2-0.1,0.3-0.2c0.4-0.2,0.8-0.4,1.1-0.8C1660,387.4,1660.5,387.4,1660.9,384.3z"/>
						<path class="st42" d="M1629.7,346c4.3-0.4,8.6-0.9,12.9-1.3"/>
						<path class="st42" d="M1654.3,342c3.2-0.2,6.3-0.5,9.5-0.7"/>
						<path class="st42" d="M1634.2,350.9c10-0.6,19.9-1.8,29.7-3.4"/>
						<path class="st42" d="M1637.8,357.8c9.4-1.6,18.7-3.2,28.1-4.8"/>
						<path class="st42" d="M1635.9,363.9c12.7-2.6,25.5-5.1,38.2-7.7"/>
						<path class="st42" d="M1628.4,370.5c16.9-3,33.7-6,50.6-8.9"/>
						<path class="st42" d="M1625.6,375c12.1-1.3,24.3-2.3,36.5-3"/>
						<path class="st42" d="M1650.5,377.7c2.9,0.2,5.9,0.3,8.8,0.5"/>
						<path class="st42" d="M1654.6,383.2c1.5-0.4,3.1-0.5,4.7-0.4"/>
					</g>
					<g>
						<path class="st42" d="M233.4,446.8v0.1l0.7-1.3c0.9-1.5,1.3-2.3,1.3-2.1l-1.2,2.1c0.9-1.5,0.3-0.5,0,0.1
							c0.4-0.6,0.7-1.3,1.1-1.8c0.2-0.3-0.1,0.2-0.3,0.5c0.5-0.8,1.1-2,1.7-3c0.9-1.6,0.1-0.1,1.2-1.9c2.1-3.5,4.1-7,6.1-10.5
							c6.5,0.4,12.9,0.8,19.5,1.2c0.3,0-0.1,0-0.4,0c0.8,0,1.7,0.1,2.5,0.1c0.4,0,0.8,0,1.2,0.1c0.6,0,1.2-0.1,1.7-0.4
							c1.1-0.6,1.8-1.6,1.9-2.8c0.1-0.6,0-1.1-0.3-1.6c-0.1-0.2-0.3-0.5-0.5-0.7l-0.1-0.1l-0.1-0.1l-0.2-0.2
							c-0.6-0.6-0.7-0.8-0.9-0.9c0.2,0.2-2.8-2.6-5.8-5.5s-6.1-5.8-6.2-5.9l-0.2-0.1c-1-1-1.2-1.2-1.4-1.4c-0.2-0.2-0.1-0.1-0.1-0.2
							l0,0l0,0l0,0v-0.1c0.5-1.1,2.6-4.5,3.1-5.4c0,0,0-0.1,0.1-0.2s0.2-0.3,0.3-0.4c0.2-0.3,0.4-0.6,0.4-0.6
							c0.2-0.4,0.8-1.4,1.2-2.2c0.2-0.3-0.1,0.2-0.3,0.4l1.1-1.9c0.4-0.7,0.6-0.9,0.1-0.1c0.7-1.2,2.1-3.7,3.9-6.7
							c0.4-0.8,0.9-1.6,1.4-2.4c0.1-0.2,0.2-0.4,0.4-0.6c0.1-0.1,0.2-0.3,0.2-0.5c0.1-0.2,0.1-0.4,0.2-0.5c0.1-0.8,0-1.5-0.4-2.2
							c-0.4-0.6-1.1-1.1-1.9-1.2c-0.2,0-0.4-0.1-0.6,0c-0.1,0-0.2,0-0.3,0l-0.3,0.1c-0.2,0-0.4,0.1-0.6,0.2c-0.1,0-0.2,0.1-0.2,0.1
							l-0.2,0.1c-0.9,0.5-1.9,0.9-2.8,1.4c-7.6,3.8-15.3,7.6-18.1,9c0.7-0.3,2.5-1.2,3.1-1.5c-1.5,0.8-2.2,1.1-2.8,1.4
							c-0.1,0-0.4,0.1-0.7,0.3c-0.1,0-0.1,0.1-0.2,0.1c-0.1,0,0,0,0,0l0,0l0,0l0,0c-0.2-0.2-0.4-0.4-0.6-0.5
							c-0.4-0.4-0.7-0.7-0.9-0.9l-0.4-0.3l-0.5-0.6c-5-4.7-1.1-1.1-5.5-5.3c-2.5-2.4-3.7-3.5-5.1-4.8c0.2,0.2,0.6,0.6,0,0.1
							c-0.1-0.1-1.8-1.6-2-2c-0.6-0.6-2.7-2.6-2.1-1.9c-0.3-0.4-2.2-2.2-1-1.1c-0.2-0.2-0.3-0.3-0.5-0.4c-0.1-0.1-0.2-0.2-0.4-0.3
							c-0.1-0.1-0.3-0.2-0.4-0.2c-0.6-0.3-1.2-0.3-1.7-0.2c0.6-0.1,1.2,0,1.7,0.3c-0.5-0.2-1.1-0.3-1.6-0.3c-0.5,0.1-1,0.2-1.4,0.5
							c-0.8,0.5-1.3,1.3-1.4,2.1c0,0.2,0,0.4,0,0.6v0.3v0.2c0,0.2,0.1,0.5,0.1,0.7c0.1,0.5,0.1,0.9,0.2,1.4l-0.1-1.1
							c0.2,1.8,0.4,3.2,0.5,3.9l-0.3-1.8c0.4,2.9,0.6,4.7,1,7.1l-0.1-0.9c0.2,1.1,0.5,3.7,1,6.8c0.4,2.9,0.9,6.2,1.3,9
							c-0.1,0.1-0.2,0.1-0.3,0.2c-0.3,0.2-0.6,0.3-0.9,0.4c-0.6,0.3-1.1,0.6-1.5,0.8c-0.9,0.5-1.6,0.9-2.1,1.1l1.3-0.6l-2.3,1.2
							c0.3-0.1,1.1-0.7,1.3-0.8c-2.5,1.3-10.2,5.1-17.9,9c-0.5,0.2-1,0.5-1.4,0.7l-0.7,0.4l-0.2,0.1l-0.2,0.1
							c-0.1,0-0.2,0.1-0.2,0.1l-0.2,0.2c-0.6,0.5-1,1.2-1,1.9c-0.1,0.7,0.1,1.4,0.6,1.9c0.1,0.1,0.2,0.2,0.4,0.4
							c0.1,0.1,0.3,0.2,0.4,0.3c0.2,0.1,0.3,0.1,0.5,0.2l0.2,0.1c0.1,0,0.2,0,0.2,0c0.5,0.1,1,0.1,1.4,0.2c0.9,0.1,1.8,0.2,2.7,0.3
							c3.4,0.3,6.1,0.6,7.4,0.7c2,0.2,0.3,0.1,0.3,0.1c2.5,0.2,1.1,0,3.2,0.2c0.6,0.1-0.1,0-0.4,0c0.9,0.1,1.8,0.2,1.8,0.1
							c-1.1-0.1-0.6-0.1-1.1-0.2l2.7,0.2h-0.1c0.6,0,1.5,0,4.2,0.2c1.6,0.1,3.3,0.3,5.1,0.4c0.3,2.5,0.7,5,1,7.3
							c0-0.1-0.2-1-0.3-1.9c0.1,0.6,0.2,1.5,0.3,2c-0.1-1.1,0.3,1.8,0.2,1c0.5,3.2,1,7.3,1.4,10.1c0.1,0.1,0.7,1.5,1.3,2.9
							c0.2,0.7,0.8,1,1.2,1c0.2,0,0.3,0,0.4-0.1c0.6,0,1.2-0.1,1.7-0.4C230.7,450.1,231.2,450.2,233.4,446.8z"/>
						<path class="st42" d="M199,424.3c1.6-2.2,3.3-4.4,4.9-6.6"/>
						<path class="st42" d="M207.1,424.9c3.5-4.9,6.9-9.8,10.4-14.7"/>
						<path class="st42" d="M221.1,404.4c3.6-4.8,7-9.8,10-15"/>
						<path class="st42" d="M216.4,426.4c6.5-11.7,13.2-23.2,20.2-34.6"/>
						<path class="st42" d="M223.1,428.1c6.5-10.3,13-20.7,19.3-31.1"/>
						<path class="st42" d="M225.7,437.5c8.7-15.3,17.8-30.4,27.1-45.3"/>
						<path class="st42" d="M228.6,448.5c11.3-20.2,22.6-40.4,33.9-60.6"/>
						<path class="st42" d="M248.4,428c2.6-5.7,5.6-11.1,9.1-16.3"/>
						<path class="st42" d="M256.3,428.7c1.9-2.7,3.5-5.5,5-8.4"/>
						<path class="st42" d="M264.3,428.5c0.3-1.9,1.1-3.8,2.1-5.4"/>
					</g>
				</g>
			</g>
			<g>
				<defs>
					<rect id="SVGID_9_" x="0.5" y="0.5" width="2044.8" height="1422.8"/>
				</defs>
				<clipPath id="SVGID_10_">
					<use xlink:href="#SVGID_9_"  style="overflow:visible;"/>
				</clipPath>
				<g class="st56">
					<path class="st49" d="M2003.9,417.4c-256.7,41.5-545.9,96.6-799.8,13.4c87.2,56,198.5,85,292.6,112.6
						c272.2,80.1,555.7,48.2,834.6,70.5c100.9,8.1,244,25.9,342.2,88.5l67.7-197.7C2525.2,378.9,2246.4,378.2,2003.9,417.4z"/>
					<path class="st49" d="M-412.8,1419.6c78.7-16.5,153.4-47.2,231-67.6c76.1-20.1,153.3-33.4,232-37.2
						c81.8-3.9,163.1,2.4,243.9,15.7c87.4,14.4,173.8,34.1,262.3,40.6c152.4,11.2,307.3-5.1,453.5-50.2
						c88.1-27.2,206.4-70.8,257.2-156.2c-26.7,14.2-52.3,30.5-79.8,43.6c-37.6,18-78.3,30.6-118.2,42.6
						c-80.7,24.2-163.5,40.4-247.3,49.3c-76.8,8.2-154.4,9.6-231.1-0.1c-74.1-9.4-143.8-31.4-213.3-58.1
						c-71.1-27.3-141.5-56.2-216.7-70.4c-76.3-14.4-155.3-19.7-232.7-13c-149.9,13-287.2,87-438.2,93c-24.5,1-50.8,0.9-77.6-0.9
						V1436C-524.9,1440.4-455.4,1428.5-412.8,1419.6z"/>
					<path class="st49" d="M805.1,813.5c-125.1,53.8-276.3,40.6-406,11.7c-80.7-18-155.5-50.3-229.9-85.9
						c-103.5-49.6-206.7-95.2-319.1-121c-96.2-22.1-197.7-30.5-294.9-9.6c-18.9,4.1-37.2,9.3-55,15.4v207.6
						c97.1,38.8,196.5,68,300.4,85C-75.3,937,51.6,943.2,177,949c206.8,9.4,428.5,7.6,623.6-71.2c86.5-34.9,165.5-89.2,209.4-173.5
						c40.7-78,45.5-172.9,3.1-251.3c-60.9-112.6-234.6-153-342.4-83.2c-62.3,40.4-81.5,126.2-46.1,191.1
						c31.5,57.6,95.3,84.1,158.3,83.2c-22.6-15.6-41.1-34.7-51.7-64.4c-12.3-34.4-12.9-77,7.5-108.6
						c46.5-71.8,147.9-32.4,184.7,26.2C998.8,617.4,924.8,762.1,805.1,813.5z"/>
				</g>
			</g>
			<g>
				<defs>
					<rect id="SVGID_11_" x="0.5" y="0.5" width="2044.8" height="1422.8"/>
				</defs>
				<clipPath id="SVGID_12_">
					<use xlink:href="#SVGID_11_"  style="overflow:visible;"/>
				</clipPath>
				<path class="st57" d="M1281.8,1069c125.1,53.8,276.3,40.6,406,11.7c80.7-18,155.5-50.3,229.9-85.9
					c103.5-49.6,206.7-95.2,319.1-121c96.2-22.1,197.7-30.5,294.9-9.6c18.9,4.1,37.2,9.3,55,15.4v207.6
					c-97.1,38.8-196.5,68-300.4,85c-124.1,20.3-251,26.5-376.4,32.3c-206.8,9.4-428.5,7.6-623.6-71.2
					c-86.5-34.9-165.5-89.2-209.4-173.5c-40.7-78-45.5-172.9-3.1-251.3c60.9-112.6,234.6-153,342.4-83.2
					c62.3,40.4,81.5,126.2,46.1,191.1c-31.5,57.6-95.3,84.1-158.3,83.2c22.6-15.6,41.1-34.7,51.7-64.4c12.3-34.4,12.9-77-7.5-108.6
					c-46.5-71.8-147.9-32.4-184.7,26.2C1088.1,872.8,1162,1017.5,1281.8,1069z"/>
			</g>
			<g>
				<defs>
					<rect id="SVGID_13_" x="0.5" y="0.5" width="2044.8" height="1422.8"/>
				</defs>
				<clipPath id="SVGID_14_">
					<use xlink:href="#SVGID_13_"  style="overflow:visible;"/>
				</clipPath>
				<path class="st58" d="M-13.8,370.9c-24.3,64.6-41.8,145.6-4,206c71.4,113.9,265,36,348,141.6c92.8,118-83.1,299.5-11.6,484.5
					c35.4,91.8,132.5,186.4,371.6,247"/>
				<path class="st58" d="M1184.4,1454.1c54,21.9,122,38.4,173.8,7.7c97.6-57.8,36-222.9,126.9-290.6
					c101.6-75.8,251,76.5,408.6,20.1c78.2-28,160.1-107.9,216.3-308.3"/>
			</g>
		</g>
	</g>
</g>
</svg>
