<?xml version="1.0" encoding="UTF-8" standalone="no"?>
<!-- Generator: Adobe Illustrator 27.4.0, SVG Export Plug-In . SVG Version: 6.00 Build 0)  -->

<svg
   version="1.1"
   id="svg8255"
   inkscape:version="1.2.1 (9c6d41e410, 2022-07-14)"
   sodipodi:docname="background.svg"
   x="0px"
   y="0px"
   viewBox="0 0 2400 1350"
   style="enable-background:new 0 0 2400 1350;"
   xml:space="preserve"
   xmlns:inkscape="http://www.inkscape.org/namespaces/inkscape"
   xmlns:sodipodi="http://sodipodi.sourceforge.net/DTD/sodipodi-0.dtd"
   xmlns:xlink="http://www.w3.org/1999/xlink"
   xmlns="http://www.w3.org/2000/svg"
   xmlns:svg="http://www.w3.org/2000/svg"><defs
   id="defs145"><radialGradient
     id="radial-gradient"
     cx="223.35091"
     cy="410.99951"
     r="59.925201"
     gradientTransform="matrix(1,0,0,-1,0,1422)"
     gradientUnits="userSpaceOnUse"><stop
       offset="0"
       stop-color="#ff6163"
       id="stop49" /><stop
       offset="1"
       stop-color="#c62020"
       id="stop51" /></radialGradient><radialGradient
     id="radial-gradient-2"
     cx="160.0694"
     cy="217.8264"
     r="67.1362"
     xlink:href="#radial-gradient" /><radialGradient
     id="radialGradient1099"
     cx="223.35091"
     cy="410.99951"
     r="59.925201"
     gradientTransform="matrix(1,0,0,-1,0,1422)"
     gradientUnits="userSpaceOnUse"><stop
       offset="0"
       stop-color="#ff6163"
       id="stop1095" /><stop
       offset="1"
       stop-color="#c62020"
       id="stop1097" /></radialGradient></defs>
<style
   type="text/css"
   id="style2">
	.st0{fill:#DDCAAB;}
	.st1{clip-path:url(#SVGID_00000072971463901257473560000012641482264491082426_);}
	.st2{opacity:0.75;}
	.st3{fill:#FFFFFF;}
	.st4{fill:#FFFCEE;}
	.st5{opacity:0.1;fill:#FFFFFF;enable-background:new    ;}
	.st6{fill:#100B09;}
	.st7{fill:#FCB376;}
	.st8{fill:#FCBE88;}
	.st9{fill:#FCCB9E;}
	.st10{fill:#FDDBBD;}
	.st11{fill:#DA6F32;}
	.st12{fill:#D46B29;}
	.st13{fill:#D87748;}
	.st14{fill:#9D9C9B;}
	.st15{fill:url(#path8021_00000171720031480969750600000009299778473952743844_);}
	.st16{fill:#F9EFF4;}
	.st17{fill:#0171BA;}
	.st18{fill:#004B82;}
	.st19{fill:#038ED8;}
	.st20{fill:#8FD8F6;}
	.st21{fill:#08A1E6;}
	.st22{fill:#D4D5D5;}
	.st23{fill:#ACAEAE;}
	.st24{fill:#E4E4E4;}
	.st25{fill:#FA73AA;}
	.st26{fill:#8F63BC;}
</style>
<sodipodi:namedview
   bordercolor="#000000"
   borderopacity="0.25"
   id="namedview8257"
   inkscape:current-layer="svg8255"
   inkscape:cx="1240.0921"
   inkscape:cy="857.14014"
   inkscape:deskcolor="#d1d1d1"
   inkscape:pagecheckerboard="0"
   inkscape:pageopacity="0.0"
   inkscape:showpageshadow="2"
   inkscape:window-height="1017"
   inkscape:window-maximized="1"
   inkscape:window-width="1920"
   inkscape:window-x="-8"
   inkscape:window-y="-8"
   inkscape:zoom="0.41650132"
   pagecolor="#ffffff"
   showgrid="false"
   showguides="false">
	</sodipodi:namedview>
<rect
   id="rect7584"
   x="0.3"
   y="-0.3"
   class="st0"
   width="2399.7"
   height="1351.2" />
<g
   id="g37"
   transform="translate(0,64.825725)">
	<g
   id="g35">
		<g
   id="g33">
			<defs
   id="defs7">
				<rect
   id="SVGID_1_"
   x="-5.9000001"
   y="-3.8"
   width="2408.3999"
   height="1354.7" />
			</defs>
			<clipPath
   id="SVGID_00000035514711771027040380000001756065805871604143_">
				<use
   xlink:href="#SVGID_1_"
   style="overflow:visible"
   id="use9" />
			</clipPath>
			
				<g
   id="g7626"
   transform="matrix(1.1738278,0,0,0.9509915,-2.8055209,-0.06251138)"
   clip-path="url(#SVGID_00000035514711771027040380000001756065805871604143_)">
				<g
   id="g7588"
   class="st2">
					<path
   id="path7586"
   class="st3"
   d="m 375.3,1248.3 v 0 c -0.7,0.1 -1.3,-0.3 -1.4,-0.9 v -0.1 c -9.3,-56.2 -39,-106.8 -79.4,-135.4 -40.3,-28.6 -90.8,-34.8 -134.9,-16.5 -0.3,0.1 -0.6,0.3 -1,0.4 3.6,6.4 6.7,13 9.2,20 4.4,12.3 8.8,30.8 5.2,49.7 -3.4,17.8 -14.3,32.3 -27.1,35.8 -10.7,3 -20.7,-1.2 -28.2,-11.7 -9.2,-13 -12.2,-32.7 -7.4,-48 7.9,-25.1 28,-39.3 44.9,-46.9 -16.7,-27.2 -43.1,-44.4 -72.8,-46.3 -35.1,-2.2 -66,18 -82.5,54 -0.2,0.5 -0.8,0.8 -1.3,0.6 -0.1,0 -0.1,-0.1 -0.2,-0.1 -0.5,-0.4 -0.7,-1.3 -0.4,-1.9 17,-36.9 48.6,-57.6 84.6,-55.3 30.6,1.9 57.8,19.8 74.9,48.1 0.5,-0.2 1.1,-0.4 1.6,-0.7 44.7,-18.4 95.8,-12.3 136.7,16.7 40.9,28.9 71,80.3 80.4,137.2 0,0.4 -0.3,1.1 -0.9,1.3 z M 156.5,1096.9 c -16.6,7.4 -36.5,21.2 -44.2,45.7 -4.5,14.4 -1.6,33 7.1,45.3 6.9,9.8 16.2,13.7 26,10.9 12,-3.5 22.2,-17 25.5,-33.8 3.5,-18.1 -0.8,-36 -5.1,-48 -2.4,-7 -5.6,-13.7 -9.3,-20.1 z" />
				</g>
				<g
   id="g7592"
   class="st2">
					<path
   id="path7590"
   class="st3"
   d="m 1136.6,1494.3 c 9.5,-56.9 39.5,-108.1 80.4,-137.2 40.9,-28.9 92,-35.2 136.7,-16.7 0.5,0.2 1.1,0.4 1.6,0.7 17.1,-28.3 44.3,-46.1 74.9,-48.1 36,-2.2 67.6,18.4 84.6,55.3 0.3,0.6 0.1,1.4 -0.4,1.9 -0.5,0.3 -1.1,0.2 -1.4,-0.3 0,-0.1 -0.1,-0.1 -0.1,-0.2 -16.6,-35.9 -47.4,-56.2 -82.5,-54 -29.7,1.9 -56.1,19.1 -72.8,46.3 16.9,7.8 37,21.9 44.9,46.9 4.8,15.3 1.7,35 -7.4,48 -7.5,10.6 -17.5,14.8 -28.2,11.7 -12.8,-3.6 -23.7,-18 -27.1,-35.8 -3.6,-18.9 0.8,-37.4 5.2,-49.7 2.5,-6.9 5.5,-13.6 9.2,-20 -0.3,-0.1 -0.7,-0.3 -1,-0.4 -44.1,-18.3 -94.6,-12.2 -134.9,16.5 -40.4,28.6 -70,79.2 -79.4,135.4 -0.1,0.6 -0.6,1.2 -1.2,1 h -0.1 -0.1 c -0.8,0 -1.1,-0.6 -0.9,-1.3 z m 210.2,-129.8 c -4.2,11.8 -8.6,29.9 -5.1,48 3.3,16.8 13.5,30.4 25.5,33.8 9.9,2.8 19.1,-1 26,-10.9 8.7,-12.3 11.6,-30.9 7.1,-45.3 -7.7,-24.5 -27.6,-38.2 -44.2,-45.7 -3.7,6.4 -6.8,13.1 -9.3,20.1 z" />
				</g>
				<path
   id="path7594"
   class="st3"
   d="m 901.4,599.1 c -4.3,0 -7.7,-4.3 -7.7,-9.5 0,-5.2 3.5,-9.5 7.7,-9.5 4.2,0 7.7,4.3 7.7,9.5 0,5.2 -3.4,9.5 -7.7,9.5 z m 0,-18.4 c -4,0 -7.2,4 -7.2,8.8 0,4.8 3.2,8.8 7.2,8.8 4,0 7.2,-4 7.2,-8.8 0,-4.8 -3.2,-8.8 -7.2,-8.8 z" />
				<path
   id="path7596"
   class="st3"
   d="m 685.9,474.3 c -5.5,0 -5.5,10.5 0,10.5 5.5,0 5.5,-10.5 0,-10.5 z" />
				<path
   id="path7598"
   class="st3"
   d="m 569.1,578.1 c -5.5,0 -5.5,10.5 0,10.5 5.5,0 5.5,-10.5 0,-10.5 z" />
				<path
   id="path7600"
   class="st3"
   d="m 602.9,1197.9 c -2.5,0.3 -4.4,2.6 -4.3,5.2 v 3.8 c 0,2.7 2,5.3 4.3,5.2 2.5,-0.3 4.4,-2.6 4.3,-5.2 v -3.8 c 0,-2.7 -2,-5.3 -4.3,-5.2 z" />
				<path
   id="path7602"
   class="st3"
   d="m 1524.6,1264.9 c -5.5,0 -5.5,10.5 0,10.5 5.4,0 5.5,-10.5 0,-10.5 z" />
				<path
   id="path7604"
   class="st3"
   d="m 1312.9,798.8 c -5.5,0 -5.5,10.5 0,10.5 5.5,0.1 5.5,-10.5 0,-10.5 z" />
				<path
   id="path7606"
   class="st3"
   d="m 1352.2,872.2 c -2.7,0 -2.7,5.2 0,5.2 2.7,0 2.8,-5.2 0,-5.2 z" />
				<path
   id="path7608"
   class="st3"
   d="m 1632.2,849.4 c -3.9,0 -3.9,7.4 0,7.4 3.9,0 3.9,-7.4 0,-7.4 z" />
				<path
   id="path7610"
   class="st3"
   d="m 1440,1401.5 c -2.7,0 -2.7,5.2 0,5.2 2.7,0 2.7,-5.2 0,-5.2 z" />
				<path
   id="path7612"
   class="st3"
   d="m 533.4,1278.7 c -2.7,0 -2.7,5.2 0,5.2 2.8,0 2.8,-5.2 0,-5.2 z" />
				<path
   id="path7614"
   class="st3"
   d="m 779.6,562.5 c -2.7,0 -2.7,5.2 0,5.2 2.7,0 2.7,-5.2 0,-5.2 z" />
				<path
   id="path7616"
   class="st3"
   d="m 640.7,597.5 c -2.7,0 -2.7,5.2 0,5.2 2.7,0 2.7,-5.2 0,-5.2 z" />
				<path
   id="path7618"
   class="st3"
   d="m 709.6,652.1 c -0.2,-0.2 -0.4,-0.4 -0.7,-0.5 -0.2,-0.2 -0.5,-0.2 -0.8,-0.2 -0.6,0 -1.1,0.3 -1.5,0.7 -0.4,0.5 -0.6,1.2 -0.6,1.9 v 3.8 c 0,0.6 0.2,1.4 0.6,1.9 0.2,0.2 0.4,0.4 0.7,0.5 0.2,0.2 0.5,0.2 0.8,0.2 0.6,0 1.1,-0.3 1.5,-0.7 0.4,-0.5 0.6,-1.2 0.6,-1.9 V 654 c 0.1,-0.6 -0.2,-1.3 -0.6,-1.9 z" />
				<path
   id="path7620"
   class="st3"
   d="m 1382.4,596.8 c -2.7,0 -2.7,5.2 0,5.2 2.8,0 2.8,-5.2 0,-5.2 z" />
				<path
   id="path7622"
   class="st4"
   d="m 540.4,1487.9 -39.8,-0.2 H 2.7 L 2.5,1044.5 c 0,-6.2 29.2,9.2 30.5,10.2 11.1,7.4 20.9,16.7 29.2,27.3 3.2,4.2 27.8,46.4 21.2,50.5 25.2,-15.1 56,-15.5 81.5,-1 25.1,14.5 42.8,43.4 45.7,74.4 16.8,-8.1 35.9,-12.6 53.5,-6.7 17.5,5.8 32.6,25.6 31,45.8 40.4,-28 133.3,-3.5 175.7,20.6 38.5,21.9 93.7,65.1 110.7,184.7 8.5,-4.3 18.2,-5.7 27.5,-3.8 19,4.1 34.7,18.7 38.9,41.2 z" />
				<path
   id="path7624"
   class="st4"
   d="m 1509.2,1487.9 39.8,-0.2 h 497.8 l 0.2,-443.2 c 0,-6.2 -29.2,9.2 -30.5,10.2 -11.1,7.4 -20.9,16.7 -29.2,27.3 -3.2,4.2 -27.8,46.4 -21.2,50.5 -25.2,-15.1 -56,-15.5 -81.5,-1 -25.1,14.5 -42.8,43.4 -45.7,74.4 -16.8,-8.1 -35.9,-12.6 -53.5,-6.7 -17.5,5.8 -32.6,25.6 -31,45.8 -40.4,-28 -133.3,-3.5 -175.7,20.6 -38.5,21.9 -93.7,65.1 -110.7,184.7 -8.5,-4.3 -18.2,-5.7 -27.5,-3.8 -19,4.1 -34.7,18.7 -38.9,41.2 z" />
			</g>
		</g>
	</g>
</g>
<path
   id="path7628"
   class="st5"
   d="M898.2,1118.3c144.2,50.3,318.5,37.9,468,10.9c93-16.8,179.3-47,265-80.3  c119.3-46.4,238.3-89,367.9-113.1c110.9-20.7,227.9-28.5,340-9c21.5,3.8,42.6,8.6,63.4,14.4v194c-111.9,36.3-226.5,63.6-346.3,79.4  c-143.1,19-289.4,24.8-433.9,30.2c-238.4,8.8-494,7.1-718.9-66.5c-99.7-32.6-190.8-83.4-241.4-162.2  c-46.9-72.9-52.5-161.6-3.6-234.9c70.2-105.2,270.4-143,394.7-77.8c71.8,37.8,94,118,53.1,178.6c-36.3,53.8-109.9,78.6-182.5,77.8  c26.1-14.6,47.4-32.4,59.6-60.2c14.2-32.2,14.9-72-8.6-101.5c-53.6-67.1-170.5-30.3-212.9,24.5  C674.9,934.9,760.1,1070.1,898.2,1118.3L898.2,1118.3z" />
<path
   id="path7630"
   class="st5"
   d="M1645.3,196.8c-42.4-54.8-159.3-91.6-212.9-24.5c-23.5,29.5-22.8,69.4-8.6,101.5  c12.2,27.8,33.5,45.6,59.6,60.2c-72.6,0.8-146.2-23.9-182.5-77.8c-40.8-60.7-18.7-140.9,53.1-178.6  c124.3-65.2,324.5-27.5,394.7,77.8c48.9,73.3,43.3,162-3.6,234.9c-50.6,78.8-141.7,129.5-241.4,162.2  c-224.9,73.7-480.5,75.3-718.9,66.5c-144.6-5.4-290.9-11.2-433.9-30.2c-119.8-15.9-234.4-43.2-346.3-79.4v-194  c20.8-5.8,41.9-10.6,63.4-14.4c112.1-19.5,229.1-11.7,340,9c129.6,24,248.5,66.6,367.9,113c85.8,33.3,172,63.5,265,80.3  c149.5,27,323.8,39.3,468-10.9C1647,444.2,1732.2,309,1645.3,196.8z" />
<path
   id="path7839"
   class="st4"
   d="M564.5,919.3c-8.7,0.3-25.3,5.8-25.4,5.8c-5.2-4.9-10.7-9.5-16.5-13.8c-2-1.5-5.6-0.4-5.7,2.4  c-0.3,7.3-0.6,14.5-0.8,21.8c-7.2,3.5-14.4,7.2-21.5,11.1c-2.5,1.3-3.1,5.6,0.1,6.6c6.9,2.3,13.8,4.4,20.8,6.4  c-0.1,7.2-0.2,14.4-0.3,21.6c0,0.8,0.2,1.5,0.6,2.2c0.5,2.1,2.6,3.4,4.7,2.9c0.7-0.2,1.4-0.6,1.9-1.1c5.7-6.3,11.3-12.8,16.8-19.3  c6,1.4,12.1,2.8,18.1,4c4.4,0.9,12.4,4,15.6-0.9c3.2-4.8-3.8-10.6-6.5-13.9c-3.2-3.9-6.4-7.7-9.7-11.5c6.1-8.2,6.5-8.6,12.2-17.1  C571.4,922.9,568.8,919.1,564.5,919.3L564.5,919.3z" /><path
   id="path7839-0"
   class="st4"
   d="m 1947.0434,1133.5607 c 7.3349,-4.6882 18.821,-17.8746 18.907,-17.9255 6.9705,1.5693 14.0464,2.7277 21.2277,3.4751 2.4851,0.2726 5.0233,-2.5073 3.6836,-4.968 -3.459,-6.4355 -6.867,-12.7849 -10.4121,-19.1695 4.4144,-6.6785 8.727,-13.5292 12.8517,-20.501 1.4897,-2.3919 -0.1835,-6.3982 -3.4468,-5.6294 -7.1096,1.5341 -14.1174,3.2402 -21.1603,5.0833 -3.5802,-6.2475 -7.1604,-12.4951 -10.7406,-18.7427 -0.4074,-0.6885 -0.9359,-1.1891 -1.6366,-1.5879 -1.4997,-1.5527 -3.969,-1.6023 -5.5218,-0.1026 -0.5006,0.5286 -0.8993,1.2293 -1.0751,1.9142 -1.6977,8.3245 -3.2075,16.7703 -4.6312,25.1651 -5.8768,1.8503 -11.8396,3.7515 -17.6145,5.774 -4.2451,1.4659 -12.7088,2.8715 -12.9678,8.7181 -0.3099,5.7606 8.668,7.1879 12.6721,8.6532 4.74,1.7271 9.429,3.3681 14.2041,4.9581 -1.0745,10.1635 -1.215,10.7114 -1.7925,20.9294 -0.3185,4.3713 3.8542,6.3178 7.4531,3.9561 z"
   style="fill:#fffcee" />
<path
   id="path7841"
   class="st4"
   d="M2171.1,165.8c-9.7-5.8-31.8-11.6-31.8-11.7c-2.2-9.1-4.9-18-8.2-26.7c-1.2-3.1-5.8-4.4-8-1.4  c-5.5,7.7-11,15.4-16.4,23.2c-10.4-1.3-20.8-2.4-31.3-3.2c-3.6-0.3-7.4,3.8-4.6,7.3c5.9,7.4,11.9,14.6,18.1,21.8  c-5.3,7.8-10.5,15.6-15.7,23.4c-0.6,0.8-0.9,1.8-0.8,2.8c-1.3,3,1.6,7.8,5.9,6.6c10.7-2.8,21.4-5.9,32-9.2  c5.5,5.9,11.2,11.6,16.9,17.3c4.2,4.1,10.7,13.2,17.7,10.2s3.5-14.3,2.8-19.8c-0.7-6.5-1.5-13-2.4-19.5c12.5-4.6,13.2-4.7,25.4-9.9  C2176,174.7,2175.8,168.7,2171.1,165.8L2171.1,165.8z" /><path
   id="path7841-4"
   class="st4"
   d="m 2157.8126,857.10002 c -2.4287,-1.45219 -7.962,-2.90437 -7.962,-2.9294 -0.5508,-2.27842 -1.2268,-4.50677 -2.0531,-6.68504 -0.3004,-0.77616 -1.4522,-1.10165 -2.003,-0.35053 -1.377,1.9279 -2.7541,3.85579 -4.1061,5.80873 -2.604,-0.32549 -5.2079,-0.60091 -7.8368,-0.80121 -0.9014,-0.0751 -1.8528,0.95143 -1.1517,1.82775 1.4772,1.85278 2.9794,3.65548 4.5318,5.45819 -1.327,1.95293 -2.629,3.90586 -3.9309,5.8588 -0.1503,0.2003 -0.2254,0.45067 -0.2003,0.70105 -0.3255,0.75113 0.4006,1.95293 1.4772,1.65248 2.679,-0.70105 5.358,-1.47722 8.012,-2.30346 1.3771,1.47722 2.8042,2.90436 4.2314,4.33151 1.0515,1.02654 2.679,3.30496 4.4316,2.55383 1.7526,-0.75113 0.8763,-3.58038 0.7011,-4.95744 -0.1753,-1.62745 -0.3756,-3.25489 -0.6009,-4.88233 3.1297,-1.15173 3.3049,-1.17677 6.3595,-2.47872 1.327,-0.57587 1.2769,-2.07812 0.1002,-2.80421 z"
   style="fill:#fffcee;stroke-width:0.250376" /><path
   id="path7841-4-7"
   class="st4"
   d="m 115.4743,429.73043 c -2.4287,-1.45219 -7.962,-2.90437 -7.962,-2.9294 -0.5508,-2.27842 -1.2268,-4.50677 -2.0531,-6.68504 -0.3004,-0.77616 -1.4522,-1.10165 -2.003,-0.35053 -1.377,1.9279 -2.7541,3.85579 -4.1061,5.80873 -2.604,-0.32549 -5.2079,-0.60091 -7.8368,-0.80121 -0.9014,-0.0751 -1.8528,0.95143 -1.1517,1.82775 1.4772,1.85278 2.9794,3.65548 4.5318,5.45819 -1.327,1.95293 -2.629,3.90586 -3.9309,5.8588 -0.1503,0.2003 -0.2254,0.45067 -0.2003,0.70105 -0.3255,0.75113 0.4006,1.95293 1.4772,1.65248 2.679,-0.70105 5.358,-1.47722 8.012,-2.30346 1.3771,1.47722 2.8042,2.90436 4.2314,4.33151 1.0515,1.02654 2.679,3.30496 4.4316,2.55383 1.7526,-0.75113 0.8763,-3.58038 0.7011,-4.95744 -0.1753,-1.62745 -0.3756,-3.25489 -0.6009,-4.88233 3.1297,-1.15173 3.3049,-1.17677 6.3595,-2.47872 1.327,-0.57587 1.2769,-2.07812 0.1002,-2.80421 z"
   style="fill:#fffcee;stroke-width:0.250376" /><path
   id="path7841-3"
   class="st4"
   d="m 187.4807,244.2709 c 10.44913,-4.30647 28.31311,-18.55176 28.39326,-18.49196 8.60934,3.67821 17.35737,6.83607 26.30387,9.39342 3.20227,0.89189 6.99492,-2.01772 5.90591,-5.57498 -2.88284,-9.01272 -5.76567,-18.02545 -8.78845,-27.01783 7.26088,-7.55841 14.36146,-15.23641 21.28138,-23.17396 2.39315,-2.70607 1.37923,-8.20352 -3.1004,-8.05218 -9.45926,0.30396 -18.81802,0.80766 -28.29637,1.47166 -3.08257,-8.91222 -6.22495,-17.74429 -9.36733,-26.57636 -0.28243,-0.95929 -0.90455,-1.79771 -1.76587,-2.31554 -1.62718,-2.83588 -7.20858,-3.38175 -8.81804,0.78234 -4.15406,10.25055 -8.06766,20.6805 -11.76116,31.14988 -8.01779,0.88031 -15.99488,2.04051 -23.97197,3.20072 -5.7977,0.91468 -16.97832,0.683 -18.75958,8.08753 -1.78125,7.40454 9.36879,11.35631 14.19571,14.0841 5.62844,3.32575 11.31668,6.57136 17.06472,9.73681 -3.78768,12.76964 -4.12611,13.3905 -7.25348,26.27846 -1.32576,5.62337 3.60293,9.0509 8.7378,7.01789 z"
   style="fill:#fffcee" />
<path
   id="path7843"
   class="st4"
   d="M615,72.8c-8.7,0.3-25.3,5.8-25.4,5.8c-5.2-4.9-10.7-9.5-16.5-13.8c-2-1.5-5.6-0.4-5.7,2.4  c-0.3,7.3-0.6,14.5-0.8,21.8c-7.2,3.5-14.4,7.2-21.5,11.1c-2.5,1.3-3.1,5.6,0.1,6.6c6.9,2.3,13.8,4.4,20.8,6.4  c-0.1,7.2-0.2,14.4-0.3,21.6c0,0.8,0.2,1.5,0.6,2.2c0.5,2.1,2.6,3.4,4.7,2.9c0.7-0.2,1.4-0.6,1.9-1.1c5.7-6.3,11.3-12.8,16.8-19.3  c6,1.4,12.1,2.8,18.1,4c4.4,0.9,12.4,4,15.6-0.9c3.2-4.8-3.8-10.6-6.5-13.9c-3.2-3.9-6.4-7.7-9.7-11.5c6.1-8.2,6.5-8.6,12.2-17.1  C621.8,76.5,619.3,72.7,615,72.8L615,72.8z" />
<path
   id="path7845"
   class="st4"
   d="M1556.7,1122.3c-5.3-3.2-17.2-6.3-17.3-6.4c-1.2-4.9-2.7-9.8-4.5-14.5c-0.6-1.7-3.2-2.4-4.3-0.8  c-3,4.2-6,8.4-8.9,12.6c-5.6-0.7-11.3-1.3-17-1.7c-2-0.2-4,2.1-2.5,3.9c3.2,4,6.5,7.9,9.8,11.8c-2.9,4.2-5.7,8.5-8.5,12.7  c-0.3,0.4-0.5,1-0.5,1.5c-0.5,1.4,0.2,3,1.7,3.5c0.5,0.2,1,0.2,1.6,0.1c5.8-1.5,11.6-3.2,17.4-5c3,3.2,6.1,6.3,9.2,9.4  c2.3,2.2,5.8,7.1,9.6,5.5c3.8-1.6,1.9-7.8,1.5-10.7c-0.4-3.5-0.8-7.1-1.3-10.6c6.8-2.5,7.2-2.6,13.8-5.4  C1559.4,1127.1,1559.3,1123.9,1556.7,1122.3z" /><path
   id="path7845-6"
   class="st4"
   d="m 281.03154,316.56982 c -5.3,-3.2 -17.2,-6.3 -17.3,-6.4 -1.2,-4.9 -2.7,-9.8 -4.5,-14.5 -0.6,-1.7 -3.2,-2.4 -4.3,-0.8 -3,4.2 -6,8.4 -8.9,12.6 -5.6,-0.7 -11.3,-1.3 -17,-1.7 -2,-0.2 -4,2.1 -2.5,3.9 3.2,4 6.5,7.9 9.8,11.8 -2.9,4.2 -5.7,8.5 -8.5,12.7 -0.3,0.4 -0.5,1 -0.5,1.5 -0.5,1.4 0.2,3 1.7,3.5 0.5,0.2 1,0.2 1.6,0.1 5.8,-1.5 11.6,-3.2 17.4,-5 3,3.2 6.1,6.3 9.2,9.4 2.3,2.2 5.8,7.1 9.6,5.5 3.8,-1.6 1.9,-7.8 1.5,-10.7 -0.4,-3.5 -0.8,-7.1 -1.3,-10.6 6.8,-2.5 7.2,-2.6 13.8,-5.4 2.9,-1.1 2.8,-4.3 0.2,-5.9 z"
   style="fill:#fffcee" />

<g
   id="g142"
   style="fill:#a97756;fill-opacity:1"
   transform="matrix(1.0727998,0,0,1.0727998,-87.372256,-0.42508828)">
	<path
   class="st26"
   d="m 815.5,107.6 c -1.1,9.3 -1.6,18 0,27.2 0.5,3.3 -2.1,4.8 -4.9,3.8 -3.4,-1 -4.3,-5.4 -4.8,-8.7 -2,-8.7 -2,-18.4 -1.6,-28.1 -2.3,5.4 -3.7,12.6 -10.1,11.7 -5.9,-1.1 -6.3,-10.2 -8.2,-15.5 0,8.6 -0.5,37.7 -0.9,39.1 -0.5,3.4 -3.4,2 -4.4,-1 -4.4,-8.7 -8.7,-31.8 -9.2,-41.5 -0.5,-7.7 0.5,-19.9 1.9,-19.9 1.8,-0.6 1.9,12.2 1.9,13.6 0.4,7.1 1.1,13.9 2.1,21.2 -0.5,-7.3 -1.5,-30.4 0.5,-33.9 2.4,-3.8 7.3,-4.3 10.2,-1.5 3.8,3.4 6.3,10.2 7.7,15 2.3,-5.8 5.3,-13.5 10.2,-16.8 4.8,-3.9 10.6,0 11.1,6.3 0.8,9.8 -1,19.5 -1.5,29 z"
   id="path100"
   style="fill:#a97756;fill-opacity:1" />
	<path
   class="st26"
   d="m 854.3,119.4 c 0,4.8 0,10.5 0,15.4 0,5.4 -6.6,5.4 -7.2,1.9 -0.3,-1.3 -2.4,-9.5 -2.9,-12.4 -3.8,1.5 -8.6,0.9 -12,-1.4 -0.8,3.3 -1.4,7 -2.4,11 -0.4,2 -1.2,5.5 -3.8,5.2 -5.7,-0.6 -4.9,-33.2 -4.3,-48.5 0.2,-4.5 2.5,-19.6 4.3,-18.6 1,0.4 0,8.1 0,9.1 -0.4,8.2 0,11.9 0,18.2 1,-8.7 2.9,-32.6 15.4,-28.3 4.9,2 6.9,7.6 8.2,12.4 1.8,6.6 4.2,23.5 4.7,36 z m -12.1,-6.6 c -1,-7.2 -2.3,-13.9 -3.8,-21.1 -1.9,7.6 -3.3,14.9 -4.7,22.5 1.9,-0.5 3.2,-1 5.3,-1 0.9,-0.4 2.2,-0.4 3.2,-0.4 z"
   id="path102"
   style="fill:#a97756;fill-opacity:1" />
	<path
   class="st26"
   d="m 877.6,138.6 c -10.7,1.5 -16.2,-7.3 -18,-17.5 -2,-11.3 -1.5,-22.4 -0.5,-33.6 0.5,-4 1,-7.8 1.5,-11.7 0,-1.1 0.5,-2.4 0.9,-1.6 1.1,2.1 0,16.2 0,20.2 1.1,-6 2.5,-11.8 5.5,-17.1 1.4,-2 4.8,-6.9 8.2,-6.9 11.3,0 14.1,15.2 15.1,24.5 2,13.9 5.5,42.2 -12.7,43.7 z m 2.5,-38 c 0,-4.9 0,-10.3 -1,-15.6 -0.5,-2.1 -2,-7.8 -3.9,-8.8 -2.8,1 -3.9,7.7 -4.4,10.8 -0.5,4.8 -1,10.2 -0.5,15 3.1,-1.4 6.3,-1.6 9.8,-1.4 z m -0.5,12.2 c -2.9,-0.5 -5.8,-1 -9.3,-1.5 0.5,4.4 0.5,10.8 3.5,14.7 3.3,4.3 4.8,-3.4 5.3,-5.9 0.5,-2.4 0.5,-4.8 0.5,-7.3 z"
   id="path104"
   style="fill:#a97756;fill-opacity:1" />
	<path
   class="st26"
   d="m 929.2,119.4 c 0,4.8 0,10.5 0,15.4 0,5.4 -6.6,5.4 -7.2,1.9 -0.3,-1.3 -2.4,-9.5 -2.9,-12.4 -3.8,1.5 -8.6,0.9 -12,-1.4 -0.8,3.3 -1.4,7 -2.4,11 -0.4,2 -1.2,5.5 -3.8,5.2 -5.7,-0.6 -4.9,-33.2 -4.3,-48.5 0.2,-4.5 2.5,-19.6 4.3,-18.6 1,0.4 0,8.1 0,9.1 -0.4,8.2 0,11.9 0,18.2 1,-8.7 2.9,-32.6 15.4,-28.3 4.9,2 6.9,7.6 8.2,12.4 1.8,6.6 4.2,23.5 4.7,36 z m -12.1,-6.6 c -1,-7.2 -2.3,-13.9 -3.8,-21.1 -1.9,7.6 -3.3,14.9 -4.7,22.5 1.9,-0.5 3.2,-1 5.3,-1 0.8,-0.4 2.2,-0.4 3.2,-0.4 z"
   id="path106"
   style="fill:#a97756;fill-opacity:1" />
	<path
   class="st26"
   d="m 948.9,137.8 c -2.1,2.3 -4.9,1.4 -6.9,-0.5 -5.3,-7.3 -6.9,-17.9 -7.7,-26.7 -1.5,-11.2 -1.5,-22.7 0,-34.4 0,0 0.3,-2.9 0.7,-2.4 1.5,0 1.3,18.8 1.8,20.4 0.5,-5.4 1.6,-10.6 2.3,-16.1 0.7,-5 1.3,-5.9 3.3,-7.3 0.9,-0.9 2.1,0.6 2.5,2.1 0.9,1.6 1.4,18.5 2.4,31 1.1,12.6 3,31.4 1.6,33.9 z"
   id="path108"
   style="fill:#a97756;fill-opacity:1" />
	<path
   class="st26"
   d="m 996.2,115.2 c -0.5,5.4 -1.6,10.2 -2.5,15.1 -1,3.8 -1.4,7.2 -5.3,8.2 -3.3,1.1 -6.4,0 -7.7,-3.3 -1.5,-4.5 -2.3,-9.3 -3.9,-13.5 -2.3,-9.3 -5.4,-19 -8.7,-28.3 -0.9,8.4 -0.9,17.1 -0.4,25.3 0,3.9 0,7.7 0.4,11.6 0,2.4 1.6,7.7 -0.9,8.8 -4.8,1.4 -10.2,-28.1 -11.7,-36.4 -1.6,-8.1 -2.9,-17.4 -1.6,-25.6 0.6,-4.8 1.6,0.5 1.6,2.4 1,5.8 1.9,12 2.9,18.4 0,-6.4 0.9,-25.2 6.7,-25.2 6.3,-0.5 9.3,7.7 11.6,13 3.3,7.2 6.4,15 8.8,23.3 0.9,-6.4 0.9,-11.7 0.4,-17.5 -0.9,-5.8 -2.8,-10.7 -3.9,-16 -0.9,-4.9 4.9,-6.8 7,-2.8 2.8,4.3 4.2,10.1 5.7,15 2.4,9.1 2.4,18 1.5,27.5 z"
   id="path110"
   style="fill:#a97756;fill-opacity:1" />
	<path
   class="st26"
   d="m 1041.5,136.4 c -1,3.3 -7.3,2.3 -10.2,2.3 -2.9,-0.6 -6.8,0 -7.3,-3.9 -0.5,-2.9 7.8,-48.5 -2.3,-52.3 -2.8,-1.5 -6.3,20.3 -4.4,38.7 0.5,4.5 1,8.3 1,12.7 0,2 -1,4.2 -2.8,4.8 -2.5,0.5 -15.1,-0.6 -14.6,-3.9 0.5,-2.9 5.3,-2.4 7.3,-2.9 -2.1,-2.3 -3.4,-5.8 -4,-9.1 -3.3,-15.1 -2.8,-26.8 -1.4,-39.7 0,-1.1 0.9,-9.8 2,-9.8 0.5,0 0.5,5 0.5,5.3 0.4,9.4 0,19 1.9,28.2 -1,-9.2 -1.5,-20.9 2.8,-29 4,-7.8 14.1,-9.9 20.5,-3.9 6.4,5.8 6.9,16.9 7.2,25.7 0,10.6 -2.4,22.8 -4.2,32.9 4.1,-1.5 9,0.4 8,3.9 z"
   id="path112"
   style="fill:#a97756;fill-opacity:1" />
	<path
   class="st26"
   d="m 1111.6,82.9 c -0.5,2 -2.4,2.9 -3.8,2.9 -3.4,0.5 -7.2,-1.5 -10.7,-2.4 2.4,9.7 2.4,19.8 2,29.5 -0.5,4.8 -2.4,26 -5.8,26 -10.7,0 -14,-29 -13,-40.5 0,-1 0.9,-11.6 1.9,-11.6 1,0 1,7.6 1,8.1 0,5.4 0,10.7 1,16 1,5.3 2.4,10.7 4.3,15.5 -1.9,-14 -3.3,-26.5 -0.9,-43.5 -3.4,-0.5 -14,0.5 -16,-0.5 -5.3,-2.4 5.8,-8.2 7.2,-9.2 9.6,-4.3 22.7,-4.3 30.3,4.4 1.5,1.5 3,2.9 2.5,5.3 z"
   id="path114"
   style="fill:#a97756;fill-opacity:1" />
	<path
   class="st26"
   d="m 1151.5,116.9 c -0.5,6.4 -1.5,13.1 -5.8,18 -6.9,7.2 -18.5,4.8 -23.4,-3.4 -4.2,-6.8 -5.3,-16.5 -6.2,-24.8 -0.5,-10.2 -1,-21.2 0.9,-31.4 0.6,-3.4 1.1,0.9 1.1,2.4 0.4,4.8 0.9,10.6 1.4,15.5 1,-5.8 5.3,-22.8 17,-22.8 11.6,0 13.5,16.4 14.5,25.6 0.5,6.9 1,14.2 0.5,20.9 z m -15,-40.3 c -4,0 -8.6,10.9 -8.7,17 -0.1,7.2 0,43.2 9.6,32.5 2.9,-3.5 2.4,-17 2.9,-20.9 0,-6.2 0,-29.1 -3.8,-28.6 z"
   id="path116"
   style="fill:#a97756;fill-opacity:1" />
	<path
   class="st26"
   d="m 1198.6,115.2 c -0.5,5.4 -1.6,10.2 -2.5,15.1 -1,3.8 -1.4,7.2 -5.3,8.2 -3.3,1.1 -6.4,0 -7.7,-3.3 -1.5,-4.5 -2.3,-9.3 -3.9,-13.5 -2.3,-9.3 -5.4,-19 -8.7,-28.3 -0.9,8.4 -0.9,17.1 -0.4,25.3 0,3.9 0,7.7 0.4,11.6 0,2.4 1.6,7.7 -0.9,8.8 -4.8,1.4 -10.2,-28.1 -11.6,-36.4 -1.6,-8.1 -2.9,-17.4 -1.6,-25.6 0.6,-4.8 1.6,0.5 1.6,2.4 1,5.8 1.9,12 2.9,18.4 0,-6.4 0.9,-25.2 6.7,-25.2 6.3,-0.5 9.3,7.7 11.7,13 3.3,7.2 6.4,15 8.8,23.3 0.9,-6.4 0.9,-11.7 0.4,-17.5 -0.9,-5.8 -2.8,-10.7 -3.9,-16 -0.9,-4.9 4.9,-6.8 7,-2.8 2.8,4.3 4.2,10.1 5.7,15 2.1,9.1 2.1,18 1.3,27.5 z"
   id="path118"
   style="fill:#a97756;fill-opacity:1" />
	<path
   class="st26"
   d="m 1256.4,95.8 c -3.9,0.5 -2,-14 -3.4,-16.4 -1.5,0.5 -7.2,1.5 -8.2,2 -1.9,1.5 -2.3,13.5 -1.9,19.3 7.2,1 11.1,0 10.6,7.2 0,6.8 -6.8,5.3 -10.6,3.9 0.4,3.8 0.9,16 1.4,16.8 1.5,2.4 13.1,-1.9 13.1,3.9 0,4.8 -9.7,5.8 -13.1,6.3 -2.8,0 -7.7,0 -9.6,-3.4 -2,-2.8 -9.7,-39.6 -6.3,-58.9 0,-0.9 0.9,-7.2 1.9,-3.3 1,5.3 1,10.7 1.5,16 0.5,-4.4 1,-8.7 2.4,-12.6 1.5,-3.3 4.3,-3.8 7.7,-4.8 5.8,-1 16.8,-2.8 18.8,6.3 1,3.2 -1.9,17.7 -4.3,17.7 z"
   id="path120"
   style="fill:#a97756;fill-opacity:1" />
	<path
   class="st26"
   d="m 1298.1,119.4 c 0,4.8 0,10.5 0,15.4 0,5.4 -6.6,5.4 -7.2,1.9 -0.3,-1.3 -2.4,-9.5 -2.9,-12.4 -3.8,1.5 -8.6,0.9 -12,-1.4 -0.8,3.3 -1.4,7 -2.4,11 -0.4,2 -1.2,5.5 -3.8,5.2 -5.7,-0.6 -4.9,-33.2 -4.3,-48.5 0.2,-4.5 2.5,-19.6 4.3,-18.6 1,0.4 0,8.1 0,9.1 -0.4,8.2 0,11.9 0,18.2 1,-8.7 2.9,-32.6 15.4,-28.3 4.9,2 6.9,7.6 8.2,12.4 1.8,6.6 4.1,23.5 4.7,36 z m -12.1,-6.6 c -1,-7.2 -2.3,-13.9 -3.8,-21.1 -1.9,7.6 -3.3,14.9 -4.7,22.5 1.9,-0.5 3.2,-1 5.3,-1 0.8,-0.4 2.2,-0.4 3.2,-0.4 z"
   id="path122"
   style="fill:#a97756;fill-opacity:1" />
	<path
   class="st26"
   d="m 1334,87.8 c -1.6,8 -4,15.1 -9.7,21.5 -1.1,1 0,2.8 0,3.3 0.5,1 0.9,2.4 0.9,3.9 1,5.4 0.5,10.8 -0.9,15.6 -1.6,4 -4.5,8.8 -8.3,6.4 -2.1,-0.9 -4,-2.3 -4.9,-4.4 -5,-5.8 -2.4,-14.1 0.5,-20.5 0,0 1.1,-2.6 1.6,-2.6 0.5,0.5 -0.2,2.2 -0.2,2.6 -0.5,4.9 -1,10.3 0,15.2 0,-4.5 0.5,-8.8 1.5,-12.7 0,-1 0.5,-3.9 0.5,-4.4 0.6,-0.9 -2.9,-3.4 -3.8,-4.9 -4.4,-5.3 -6.4,-13.6 -7.8,-20.5 -0.5,-2.3 -0.5,-4.4 -1,-6.9 0,-1.5 -0.5,-4.3 0,-5.8 2,-3.9 4.4,0 5.4,2 3.4,7.3 6.8,16.1 10.8,23.8 1.4,-5.8 3.8,-13.6 5.9,-19 1.4,-3.8 3.3,-11.6 8.1,-9.3 4.9,2 1.9,12.9 1.4,16.7 z"
   id="path124"
   style="fill:#a97756;fill-opacity:1" />
	<path
   class="st26"
   d="m 1380.8,82.9 c -0.5,2 -2.4,2.9 -3.8,2.9 -3.4,0.5 -7.2,-1.5 -10.7,-2.4 2.4,9.7 2.4,19.8 2,29.5 -0.5,4.8 -2.4,26 -5.8,26 -10.7,0 -14,-29 -13,-40.5 0,-1 0.9,-11.6 1.9,-11.6 1,0 1,7.6 1,8.1 0,5.4 0,10.7 1,16 1,5.3 2.4,10.7 4.3,15.5 -1.9,-14 -3.3,-26.5 -0.9,-43.5 -3.4,-0.5 -14,0.5 -16,-0.5 -5.3,-2.4 5.8,-8.2 7.2,-9.2 9.6,-4.3 22.7,-4.3 30.3,4.4 1.6,1.5 3,2.9 2.5,5.3 z"
   id="path126"
   style="fill:#a97756;fill-opacity:1" />
	<path
   class="st26"
   d="m 1420.7,116.9 c -0.5,6.4 -1.5,13.1 -5.8,18 -6.9,7.2 -18.5,4.8 -23.4,-3.4 -4.2,-6.8 -5.3,-16.5 -6.2,-24.8 -0.5,-10.2 -1,-21.2 0.9,-31.4 0.6,-3.4 1.1,0.9 1.1,2.4 0.4,4.8 0.9,10.6 1.4,15.5 1,-5.8 5.3,-22.8 17,-22.8 11.6,0 13.5,16.4 14.5,25.6 0.5,6.9 1,14.2 0.5,20.9 z m -15,-40.3 c -4,0 -8.6,10.9 -8.7,17 -0.1,7.2 0,43.2 9.6,32.5 2.9,-3.5 2.4,-17 2.9,-20.9 0,-6.2 0,-29.1 -3.8,-28.6 z"
   id="path128"
   style="fill:#a97756;fill-opacity:1" />
	<path
   class="st26"
   d="m 1493.6,107.6 c -1.1,9.3 -1.6,18 0,27.2 0.5,3.3 -2.1,4.8 -4.9,3.8 -3.4,-1 -4.3,-5.4 -4.8,-8.7 -2,-8.7 -2,-18.4 -1.6,-28.1 -2.3,5.4 -3.7,12.6 -10.1,11.7 -5.9,-1.1 -6.3,-10.2 -8.2,-15.5 0,8.6 -0.5,37.7 -0.9,39.1 -0.5,3.4 -3.4,2 -4.4,-1 -4.4,-8.7 -8.7,-31.8 -9.2,-41.5 -0.5,-7.7 0.5,-19.9 1.9,-19.9 1.8,-0.6 1.9,12.2 1.9,13.6 0.4,7.1 1.1,13.9 2.1,21.2 -0.5,-7.3 -1.5,-30.4 0.5,-33.9 2.4,-3.8 7.3,-4.3 10.2,-1.5 3.8,3.4 6.3,10.2 7.7,15 2.3,-5.8 5.3,-13.5 10.2,-16.8 4.8,-3.9 10.6,0 11.1,6.3 0.9,9.8 -1,19.5 -1.5,29 z"
   id="path130"
   style="fill:#a97756;fill-opacity:1" />
	<path
   class="st26"
   d="m 1535,116.9 c -0.5,6.4 -1.5,13.1 -5.8,18 -6.9,7.2 -18.5,4.8 -23.4,-3.4 -4.2,-6.8 -5.3,-16.5 -6.2,-24.8 -0.5,-10.2 -1,-21.2 0.9,-31.4 0.6,-3.4 1.1,0.9 1.1,2.4 0.4,4.8 0.9,10.6 1.4,15.5 1,-5.8 5.3,-22.8 17,-22.8 11.6,0 13.5,16.4 14.5,25.6 0.5,6.9 1,14.2 0.5,20.9 z m -15,-40.3 c -4,0 -8.6,10.9 -8.7,17 -0.1,7.2 0,43.2 9.6,32.5 2.9,-3.5 2.4,-17 2.9,-20.9 0.1,-6.2 0.1,-29.1 -3.8,-28.6 z"
   id="path132"
   style="fill:#a97756;fill-opacity:1" />
	<path
   class="st26"
   d="m 1571.2,87.8 c -1.6,8 -4,15.1 -9.7,21.5 -1.1,1 0,2.8 0,3.3 0.5,1 0.9,2.4 0.9,3.9 1,5.4 0.5,10.8 -0.9,15.6 -1.6,4 -4.5,8.8 -8.3,6.4 -2.1,-0.9 -4,-2.3 -4.9,-4.4 -5,-5.8 -2.4,-14.1 0.5,-20.5 0,0 1.1,-2.6 1.6,-2.6 0.5,0.5 -0.2,2.2 -0.2,2.6 -0.5,4.9 -1,10.3 0,15.2 0,-4.5 0.5,-8.8 1.5,-12.7 0,-1 0.5,-3.9 0.5,-4.4 0.6,-0.9 -2.9,-3.4 -3.8,-4.9 -4.4,-5.3 -6.4,-13.6 -7.8,-20.5 -0.5,-2.3 -0.5,-4.4 -1,-6.9 0,-1.5 -0.5,-4.3 0,-5.8 2,-3.9 4.4,0 5.4,2 3.4,7.3 6.8,16.1 10.8,23.8 1.4,-5.8 3.8,-13.6 5.9,-19 1.4,-3.8 3.3,-11.6 8.1,-9.3 4.9,2 1.9,12.9 1.4,16.7 z"
   id="path134"
   style="fill:#a97756;fill-opacity:1" />
	<path
   class="st26"
   d="m 1578.4,127.5 c 2.7,-2.9 7.3,-4.6 10.4,-1.7 6.4,6.2 -0.3,16.8 -8.3,11.8 -3.7,-2.3 -5.4,-6.3 -2.1,-10.1 z"
   id="path136"
   style="fill:#a97756;fill-opacity:1" />
	<path
   class="st26"
   d="m 1597.1,127.5 c 2.7,-2.9 7.3,-4.6 10.4,-1.7 6.4,6.2 -0.3,16.8 -8.3,11.8 -3.7,-2.3 -5.4,-6.3 -2.1,-10.1 z"
   id="path138"
   style="fill:#a97756;fill-opacity:1" />
	<path
   class="st26"
   d="m 1615.8,127.5 c 2.7,-2.9 7.3,-4.6 10.4,-1.7 6.4,6.2 -0.3,16.8 -8.3,11.8 -3.7,-2.3 -5.4,-6.3 -2.1,-10.1 z"
   id="path140"
   style="fill:#a97756;fill-opacity:1" />
</g>
</svg>
