<?xml version="1.0" encoding="UTF-8" standalone="no"?>
<!-- Generator: Adobe Illustrator 27.4.0, SVG Export Plug-In . SVG Version: 6.00 Build 0)  -->

<svg
   version="1.1"
   id="Layer_1"
   x="0px"
   y="0px"
   viewBox="0 0 60.381751 52.002333"
   xml:space="preserve"
   sodipodi:docname="bar_graph.svg"
   width="60.381752"
   height="52.002335"
   inkscape:version="1.2.1 (9c6d41e410, 2022-07-14)"
   xmlns:inkscape="http://www.inkscape.org/namespaces/inkscape"
   xmlns:sodipodi="http://sodipodi.sourceforge.net/DTD/sodipodi-0.dtd"
   xmlns="http://www.w3.org/2000/svg"
   xmlns:svg="http://www.w3.org/2000/svg"><defs
   id="defs1274">
	

		
		
		
		
		
		
	</defs><sodipodi:namedview
   id="namedview1272"
   pagecolor="#ffffff"
   bordercolor="#000000"
   borderopacity="0.25"
   inkscape:showpageshadow="2"
   inkscape:pageopacity="0.0"
   inkscape:pagecheckerboard="0"
   inkscape:deskcolor="#d1d1d1"
   showgrid="false"
   inkscape:zoom="9.5613628"
   inkscape:cx="17.832186"
   inkscape:cy="28.029477"
   inkscape:window-width="1920"
   inkscape:window-height="1017"
   inkscape:window-x="-8"
   inkscape:window-y="-8"
   inkscape:window-maximized="1"
   inkscape:current-layer="Layer_1" />
<style
   type="text/css"
   id="style1254">
	.st0{fill:#8F63BC;}
</style>

<path
   class="st0"
   d="M 57.161122,30.818529 C 60.386399,22.217786 60.892326,8.4312981 48.497138,3.5617594 36.101948,-1.3710207 8.4024919,0.77916563 1.8254525,19.118988 -4.1824203,35.877791 40.971486,74.075213 57.161122,30.818529 Z"
   id="path4767"
   style="fill:#ffffff;stroke:#ffffff;stroke-width:2.52963;stroke-miterlimit:10" /><path
   class="st0"
   d="m 23.425722,37.215995 c 0,-1.255961 0,-2.442146 0,-3.698107 0,-0.139552 0,-0.279103 0.139551,-0.348878 0.06978,-0.06978 0.209327,-0.06978 0.348878,-0.06978 0.139552,0.06978 0.139552,0.209327 0.139552,0.348878 0,0.697756 0,1.465288 0,2.163044 0,1.465288 0.06978,2.930576 0,4.395864 0,0.348878 0.06978,0.627981 0,0.976859 0,0.209327 -0.06978,0.418653 -0.348879,0.348878 -0.209326,0 -0.279102,-0.209327 -0.279102,-0.418654 0,-1.186185 0,-2.442147 0,-3.698108 0,0 0,0 0,0 z"
   id="path2139"
   style="fill:#000000;fill-opacity:1;stroke-width:0.697756" /><path
   class="st0"
   d="m 31.613929,40.921988 c 2.511922,0 5.023844,0 7.535767,0 0.06977,0 0.209326,0 0.279102,0 0.139551,0 0.279103,0.139552 0.279103,0.279103 0,0.209327 -0.06978,0.279102 -0.279103,0.348878 -0.06978,0 -0.209327,0 -0.279102,0 -5.023845,0 -10.047689,0 -15.141309,0 -0.418654,0 -0.627981,-0.139551 -0.558205,-0.348878 0.06978,-0.348878 0.348878,-0.279103 0.558205,-0.279103 2.581698,0 5.09362,0 7.605542,0 z"
   id="path2135"
   style="fill:#000000;fill-opacity:1;stroke-width:0.697756" /><path
   class="st0"
   d="m 31.613929,33.668491 c -2.511922,0 -5.023844,0 -7.605542,0 -0.06978,0 -0.139552,0 -0.279103,0 -0.139551,0 -0.279102,-0.06977 -0.279102,-0.279102 0,-0.209327 0.06978,-0.279103 0.279102,-0.279103 0.06978,0 0.209327,0 0.279103,0 5.09362,0 10.117464,0 15.211084,0 0.06978,0 0.139551,0 0.279103,0 0.139551,0 0.279102,0.139552 0.279102,0.279103 0,0.139551 -0.139551,0.279102 -0.279102,0.279102 -0.139552,0 -0.209327,0 -0.348878,0 -2.581698,0 -5.09362,0 -7.535767,0 z"
   id="path2137"
   style="fill:#000000;fill-opacity:1;stroke-width:0.697756" /><path
   class="st0"
   d="m 39.203634,40.943698 c 0,-2.442147 0,-4.884293 0,-7.32644 0,-0.139551 -0.06977,-0.348878 0.139551,-0.418654 0.209327,-0.06977 0.418654,0 0.418654,0.279103 0,0.62798 0,1.255961 0,1.883941 0,1.60484 0,3.209679 0,4.884294 0,0.209326 0.06978,0.488429 0,0.697756 0,0.209327 0,0.488429 -0.279102,0.488429 -0.279103,0 -0.279103,-0.279102 -0.279103,-0.488429 z"
   id="path2141"
   style="fill:#000000;fill-opacity:1;stroke-width:0.697756" /><path
   d="m 37.437956,7.946447 c -0.780388,0 -1.414772,0.52771 -1.414772,1.178977 v 9.431815 c 0,0.651267 0.634384,1.179449 1.414772,1.179449 0.780672,0 1.414773,-0.528418 1.414773,-1.179685 V 9.125188 c 0,-0.651031 -0.634101,-1.178741 -1.414773,-1.178741 z"
   id="path2"
   style="fill:#000000;stroke-width:0.258303" /><path
   d="m 33.54184,10.304401 c -0.780389,0 -1.414773,0.52771 -1.414773,1.178977 v 7.073625 c 0,0.651267 0.634384,1.178977 1.414773,1.178977 0.780388,0 1.414772,-0.52771 1.414772,-1.178977 v -7.073625 c 0,-0.651267 -0.634384,-1.178977 -1.414772,-1.178977 z"
   id="path4"
   style="fill:#000000;stroke-width:0.258303" /><path
   d="m 29.673049,12.662354 c -0.780672,0 -1.414772,0.527711 -1.414772,1.178506 v 4.716143 c 0,0.651267 0.6341,1.178977 1.414772,1.178977 0.780388,0 1.414772,-0.52771 1.414772,-1.178977 v -4.716379 c 0,-0.650559 -0.634384,-1.17827 -1.414772,-1.17827 z"
   id="path8"
   style="fill:#000000;stroke-width:0.258303" /><path
   d="m 25.89044,15.020308 c -0.780749,0 -1.414913,0.528418 -1.414913,1.178977 v 2.35819 c 0,0.651267 0.634164,1.179448 1.414913,1.179448 0.780467,0 1.414631,-0.528417 1.414631,-1.179684 v -2.357954 c 0,-0.650559 -0.633881,-1.178977 -1.414631,-1.178977 z"
   id="path10"
   style="fill:#000000;stroke-width:0.258314" /><path
   class="st0"
   d="m 31.583212,26.680752 c -4.655807,0 -9.311614,0 -14.034896,0 -0.134951,0 -0.337378,0 -0.472329,0 -0.607279,0 -0.944656,0.337378 -0.944656,0.944657 0,1.956788 0,3.913577 0,5.870365 0,0.74223 0,1.551936 0,2.294166 0,0.202427 -0.06748,0.337377 -0.269902,0.337377 -0.607279,0 -1.214558,0.06748 -1.889313,-0.13495 -1.754362,-0.472329 -2.901445,-2.024264 -2.901445,-3.846102 0,-4.31843 0,-8.636859 0,-13.022764 0,-1.956789 1.349509,-3.5762 3.238822,-3.913577 0.472329,-0.134951 0.944657,-0.134951 1.34951,-0.134951 1.147082,0 2.294165,0 3.508724,0 0.269902,0 0.337377,-0.06748 0.337377,-0.337378 0,-2.564067 0,-5.0606589 0,-7.624727 0,-0.1349509 0,-0.2699018 0,-0.3373773 0.06748,-0.2699018 0.269902,-0.4723282 0.539804,-0.5398037 0.06748,0 0.202426,0 0.269902,0 7.489776,0 14.979553,0 22.469329,0 0.74223,0 0.877181,0.1349509 0.877181,0.877181 0,2.4965921 0,5.06066 0,7.557252 0,0.404853 0,0.404853 0.404853,0.404853 1.147083,0 2.294166,0 3.508724,0 0.809706,0 1.619411,0.06747 2.294166,0.472328 1.349509,0.74223 2.091739,1.956788 2.091739,3.441249 0.06748,4.385905 0,8.77181 0,13.157715 0,2.159215 -1.821837,3.913577 -3.913577,3.913577 -0.269902,0 -0.607279,0 -0.877181,0 -0.134951,0 -0.202426,0 -0.202426,-0.202426 0.06748,-0.809706 0,-1.619412 0,-2.429117 0,-1.754362 0,-3.441249 0,-5.195611 0,-0.269902 0,-0.539804 -0.06748,-0.809705 -0.06748,-0.404853 -0.337377,-0.742231 -0.809705,-0.742231 -0.134951,0 -0.269902,0 -0.337378,0 -4.655807,0 -9.379089,0 -14.169847,0 0,0 0,0 0,0 z m 0,-19.2305069 c -3.508724,0 -7.017448,0 -10.458697,0 -0.404853,0 -0.404853,0 -0.404853,0.404853 0,3.9810519 0,7.9621049 0,11.9431569 0,0.472328 0,0.472328 0.472329,0.472328 6.882497,0 13.764994,0 20.647492,0 0.134951,0 0.269901,0 0.337377,0 0.269902,0 0.337377,-0.06747 0.337377,-0.337377 0,-4.048528 0,-8.097056 0,-12.1455829 0,-0.4048532 0,-0.4048532 -0.404853,-0.4048532 -3.508724,0.067475 -7.017448,0.067475 -10.526172,0.067475 z"
   id="path2131"
   style="fill:#000000;fill-opacity:1;stroke-width:0.674755" /><path
   class="st0"
   d="m 31.650688,27.220556 c 4.723282,0 9.446564,0 14.237322,0 0.60728,0 0.674755,0.06748 0.60728,0.607279 -0.06748,2.361642 0,4.790758 0,7.1524 0,0.202426 0,0.404852 0,0.607279 0,0.337377 -0.134951,0.404853 -0.404853,0.404853 -0.674755,0 -1.282034,0 -1.956789,0 -0.269901,0 -0.337377,0.06748 -0.337377,0.337377 0,2.631543 0,5.195611 0,7.827154 0,0.472328 -0.202426,0.74223 -0.674755,0.74223 -7.624727,0 -15.181979,0 -22.806706,0 -0.60728,0 -0.742231,-0.134951 -0.742231,-0.809706 0,-2.496592 0,-5.06066 0,-7.557252 0,-0.472328 0,-0.539803 -0.539803,-0.539803 -0.607279,0 -1.214559,0 -1.821838,0 -0.269902,0 -0.404853,-0.134951 -0.404853,-0.404853 0,-0.472329 0,-1.012132 0,-1.48446 0,-2.09174 0,-4.250955 0,-6.342694 0,-0.607279 0,-0.607279 0.60728,-0.607279 4.723282,0.06747 9.446565,0.06747 14.237323,0.06747 z m -0.06748,16.531489 c 0,0 0,0 0,0 3.508724,0 7.084924,0 10.593648,0 0.269902,0 0.404853,-0.06748 0.404853,-0.404853 0,-3.913577 0,-7.894629 0,-11.808206 0,-0.337377 -0.06748,-0.404853 -0.404853,-0.404853 -7.017448,0 -14.034897,0 -21.052345,0 -0.269902,0 -0.404853,0.06748 -0.404853,0.404853 0,3.913577 0,7.827154 0,11.740731 0,0.404852 0,0.404852 0.404853,0.404852 3.508724,0.06748 6.949973,0.06748 10.458697,0.06748 z"
   id="path2133"
   style="fill:#000000;fill-opacity:1;stroke-width:0.674755" /></svg>
