<?xml version="1.0" encoding="UTF-8" standalone="no"?>
<svg
   width="278.61536"
   height="384.76215"
   viewBox="0 0 278.61535 384.76215"
   version="1.1"
   id="svg730"
   sodipodi:docname="help.svg"
   inkscape:version="1.2.1 (9c6d41e410, 2022-07-14)"
   xmlns:inkscape="http://www.inkscape.org/namespaces/inkscape"
   xmlns:sodipodi="http://sodipodi.sourceforge.net/DTD/sodipodi-0.dtd"
   xmlns:xlink="http://www.w3.org/1999/xlink"
   xmlns="http://www.w3.org/2000/svg"
   xmlns:svg="http://www.w3.org/2000/svg"
   xmlns:rdf="http://www.w3.org/1999/02/22-rdf-syntax-ns#"
   xmlns:cc="http://creativecommons.org/ns#"
   xmlns:dc="http://purl.org/dc/elements/1.1/">
  <sodipodi:namedview
     id="namedview732"
     pagecolor="#ffffff"
     bordercolor="#000000"
     borderopacity="0.25"
     inkscape:showpageshadow="2"
     inkscape:pageopacity="0.0"
     inkscape:pagecheckerboard="0"
     inkscape:deskcolor="#d1d1d1"
     showgrid="false"
     inkscape:zoom="1.6660053"
     inkscape:cx="109.54347"
     inkscape:cy="218.4867"
     inkscape:window-width="1920"
     inkscape:window-height="1017"
     inkscape:window-x="-8"
     inkscape:window-y="-8"
     inkscape:window-maximized="1"
     inkscape:current-layer="svg730" />
  <defs
     id="defs55">
    <clipPath
       id="clip-path">
      <rect
         x="2.5676999"
         y="-4.1897001"
         width="2044.2332"
         height="1429.7129"
         style="fill:none"
         id="rect2" />
    </clipPath>
    <clipPath
       id="clip-path-2">
      <rect
         x="0.31079999"
         y="0.2085"
         width="2046.49"
         height="1418.5383"
         style="fill:none"
         id="rect5" />
    </clipPath>
    <clipPath
       id="clip-path-3">
      <rect
         x="0.4914"
         y="0.2085"
         width="2046.49"
         height="1418.5383"
         style="fill:none"
         id="rect8" />
    </clipPath>
    <linearGradient
       id="_ÂÁ_Ï_ÌÌ_È_ËÂÌÚ_30"
       x1="973.72803"
       y1="217.1114"
       x2="1279.8972"
       y2="405.211"
       gradientUnits="userSpaceOnUse">
      <stop
         offset="0.1606"
         stop-color="#772d28"
         id="stop11" />
      <stop
         offset="0.3449"
         stop-color="#8e3930"
         id="stop13" />
      <stop
         offset="1"
         stop-color="#d2603c"
         id="stop15" />
    </linearGradient>
    <linearGradient
       id="_ÂÁ_Ï_ÌÌ_È_ËÂÌÚ_33"
       x1="975.55811"
       y1="312.90219"
       x2="1143.3853"
       y2="444.72739"
       gradientUnits="userSpaceOnUse">
      <stop
         offset="0.0135"
         stop-color="#772d28"
         id="stop18" />
      <stop
         offset="0.1554"
         stop-color="#7d302a"
         id="stop20" />
      <stop
         offset="0.5915"
         stop-color="#8a372e"
         id="stop22" />
      <stop
         offset="1"
         stop-color="#8e3930"
         id="stop24" />
    </linearGradient>
    <linearGradient
       id="_ÂÁ_Ï_ÌÌ_È_ËÂÌÚ_30-2"
       x1="828.7381"
       y1="472.54099"
       x2="1247.8842"
       y2="730.0495"
       xlink:href="#_%C3%82%C3%81_%C3%8F_%C3%8C%C3%8C_%C3%88_%C3%8B%C3%82%C3%8C%C3%9A_30" />
    <linearGradient
       id="_ÂÁ_Ï_ÌÌ_È_ËÂÌÚ_30-3"
       x1="937.97528"
       y1="496.49539"
       x2="737.89569"
       y2="766.1582"
       xlink:href="#_%C3%82%C3%81_%C3%8F_%C3%8C%C3%8C_%C3%88_%C3%8B%C3%82%C3%8C%C3%9A_30" />
    <linearGradient
       id="_ÂÁ_Ï_ÌÌ_È_ËÂÌÚ_12"
       x1="1231.5668"
       y1="673.64398"
       x2="1270.8306"
       y2="1060.5385"
       gradientUnits="userSpaceOnUse">
      <stop
         offset="0.2666"
         stop-color="#bb492f"
         id="stop29" />
      <stop
         offset="0.8134"
         stop-color="#a03c2b"
         id="stop31" />
    </linearGradient>
    <linearGradient
       id="_ÂÁ_Ï_ÌÌ_È_ËÂÌÚ_10"
       x1="886.21033"
       y1="1079.295"
       x2="886.21033"
       y2="558.34888"
       gradientUnits="userSpaceOnUse">
      <stop
         offset="0.1829"
         stop-color="#bb492f"
         id="stop34" />
      <stop
         offset="0.8134"
         stop-color="#d2603c"
         id="stop36" />
    </linearGradient>
    <linearGradient
       id="_ÂÁ_Ï_ÌÌ_È_ËÂÌÚ_10-2"
       x1="664.55438"
       y1="1079.3604"
       x2="664.55438"
       y2="558.34888"
       xlink:href="#_%C3%82%C3%81_%C3%8F_%C3%8C%C3%8C_%C3%88_%C3%8B%C3%82%C3%8C%C3%9A_10" />
    <linearGradient
       id="_ÂÁ_Ï_ÌÌ_È_ËÂÌÚ_12-2"
       x1="-2274.3308"
       y1="-526.58221"
       x2="-1997.9337"
       y2="-526.58221"
       gradientTransform="rotate(136.2115,-523.83111,697.56738)"
       xlink:href="#_%C3%82%C3%81_%C3%8F_%C3%8C%C3%8C_%C3%88_%C3%8B%C3%82%C3%8C%C3%9A_12" />
    <linearGradient
       id="_ÂÁ_Ï_ÌÌ_È_ËÂÌÚ_12-3"
       x1="1105.3553"
       y1="554.34039"
       x2="1383.4994"
       y2="554.34039"
       xlink:href="#_%C3%82%C3%81_%C3%8F_%C3%8C%C3%8C_%C3%88_%C3%8B%C3%82%C3%8C%C3%9A_12" />
    <linearGradient
       id="_ÂÁ_Ï_ÌÌ_È_ËÂÌÚ_12-4"
       x1="1230.0594"
       y1="673.56873"
       x2="1269.3973"
       y2="1061.1914"
       xlink:href="#_%C3%82%C3%81_%C3%8F_%C3%8C%C3%8C_%C3%88_%C3%8B%C3%82%C3%8C%C3%9A_12" />
    <linearGradient
       id="_ÂÁ_Ï_ÌÌ_È_ËÂÌÚ_10-3"
       x1="884.05292"
       y1="1079.9833"
       x2="884.05292"
       y2="558.05652"
       xlink:href="#_%C3%82%C3%81_%C3%8F_%C3%8C%C3%8C_%C3%88_%C3%8B%C3%82%C3%8C%C3%9A_10" />
    <linearGradient
       id="_ÂÁ_Ï_ÌÌ_È_ËÂÌÚ_7"
       x1="762.54498"
       y1="654.6286"
       x2="1312.0504"
       y2="246.0475"
       gradientUnits="userSpaceOnUse">
      <stop
         offset="0.2801"
         stop-color="#e27244"
         id="stop44" />
      <stop
         offset="0.8134"
         stop-color="#f2794e"
         id="stop46" />
    </linearGradient>
    <radialGradient
       id="radial-gradient"
       cx="223.35091"
       cy="410.99951"
       r="59.925201"
       gradientTransform="matrix(1,0,0,-1,0,1422)"
       gradientUnits="userSpaceOnUse">
      <stop
         offset="0"
         stop-color="#ff6163"
         id="stop49" />
      <stop
         offset="1"
         stop-color="#c62020"
         id="stop51" />
    </radialGradient>
    <radialGradient
       id="radial-gradient-2"
       cx="160.0694"
       cy="217.8264"
       r="67.1362"
       xlink:href="#radial-gradient" />
    <radialGradient
       inkscape:collect="always"
       xlink:href="#radial-gradient-7"
       id="radialGradient1015"
       gradientUnits="userSpaceOnUse"
       gradientTransform="matrix(1,0,0,-1,0,1422)"
       cx="223.35091"
       cy="410.99951"
       r="59.925201" />
    <radialGradient
       id="radial-gradient-7"
       cx="223.35091"
       cy="410.99951"
       r="59.925201"
       gradientTransform="matrix(1,0,0,-1,0,1422)"
       gradientUnits="userSpaceOnUse">
      <stop
         offset="0"
         stop-color="#ff6163"
         id="stop49-0" />
      <stop
         offset="1"
         stop-color="#c62020"
         id="stop51-1" />
    </radialGradient>
    <radialGradient
       id="radial-gradient-2-7"
       cx="160.0694"
       cy="217.8264"
       r="67.1362"
       xlink:href="#radial-gradient-7" />
    <radialGradient
       id="radialGradient1099"
       cx="223.35091"
       cy="410.99951"
       r="59.925201"
       gradientTransform="matrix(1,0,0,-1,0,1422)"
       gradientUnits="userSpaceOnUse">
      <stop
         offset="0"
         stop-color="#ff6163"
         id="stop1095" />
      <stop
         offset="1"
         stop-color="#c62020"
         id="stop1097" />
    </radialGradient>
  </defs>
  <title
     id="title57">sinaisthimata-2</title>
  <metadata
     id="metadata12940">
    <rdf:RDF>
      <cc:Work
         rdf:about="">
        <dc:title>sinaisthimata-2</dc:title>
      </cc:Work>
    </rdf:RDF>
  </metadata>
  <g
     id="molivis"
     transform="matrix(0.95629639,0,0,0.95629639,-78.626085,-921.37003)">
    <path
       d="m 298.0194,1145.4235 c 56.7,-6.9 66.3,-52.7 66.3,-52.7 0,0 8.2,-0.3 9.2,-8.6 0.5,-4.3 -3,-5.4 -5,-4.2 0,-3.1 -3.1,-4.8 -6.4,-2.2 0,-2.4 2.3,-14.2 -2.2,-14.9 -3.6,-0.6 -3.5,6.6 -4.8,14.2 -3,-0.7 -5.9,0.5 -6.3,4.1 -0.6,5.6 6,9.6 6,9.6 0,0 -4.3,38.5 -57.8,48 -5.1,2.1 -4.5,8.1 1,6.7 z"
       style="fill:#100b09"
       id="path470" />
    <path
       d="m 194.4194,1285.6236 c 0,0 43.4,80.2 52.3,80.2 7.3,0 31,-54.8 43.3,-82.6 1.9,-15.5 -3.6,-35.6 -47.5,-35.6 -47.6,0 -48.1,38 -48.1,38 z"
       style="fill:#fcb376"
       id="path472" />
    <path
       d="m 242.5194,1247.6236 a 64.05,64.05 0 0 0 -20.6,3 c -1,0.3 -2,0.7 -3,1.1 -0.9,0.4 -1.9,0.8 -2.7,1.2 a 43.55,43.55 0 0 0 -7,4.3 c -0.7,0.5 -1.3,1.1 -1.9,1.6 a 39.5179,39.5179 0 0 0 -12.9,26.8 9.317,9.317 0 0 0 0.7,1.1 c 7.4,-19.5 19.7,-21.9 29.5,-9.3 7.1,-17.7 31,-21.2 41,-0.7 6.1,-10.8 22.2,-11.6 24.3,7 0.1,-0.1 0.1,-0.3 0.2,-0.4 1.9,-15.6001 -3.7,-35.7 -47.6,-35.7 z"
       style="fill:#fcbe88"
       id="path474" />
    <path
       d="m 254.3194,1257.6236 c 0,0 -16.5,108.2 -7.6,108.2 7.3,0 31,-54.8 43.3,-82.6 8.2,-31.7 -35.7,-25.6 -35.7,-25.6 z"
       style="fill:#fccb9e"
       id="path476" />
    <path
       d="m 224.6194,1276.2235 c 2.1,11.5 15.3,87.4 21,89.3 13.3,-27.8 19.9,-88.9 19.9,-88.9 0,0 6.6,-21.2 -18.6,-23 -25.2,-1.8 -22.3,22.6 -22.3,22.6 z"
       style="fill:#fcbe88"
       id="path478" />
    <path
       d="m 222.8194,1263.5236 c 0,16.6 6,48 12,66.5 -3.4,-31.9 -12,-66.5 -12,-66.5 z"
       style="fill:#fddbbd"
       id="path480" />
    <path
       d="m 265.7194,1274.2235 c 0.2,10 0.2,26.9 -8.6,53.7 4.3,-35.2999 8.6,-53.7 8.6,-53.7 z"
       style="fill:#fddbbd"
       id="path482" />
    <path
       d="m 242.5194,1247.6236 c -47.5,0 -48.1,38 -48.1,38 a 9.317,9.317 0 0 0 0.7,1.1 c 6.6,-17.3 19.4,-20.2 29.5,-9.3 7.1,-17.7 31,-21.2 41,-0.7 6.1,-10.8 22.2,-11.6 24.3,7 0.1,-0.1 0.1,-0.3 0.2,-0.4 1.9,-15.6001 -3.7,-35.7 -47.6,-35.7 z"
       style="fill:#da6f32"
       id="path484" />
    <path
       d="m 287.6194,1265.5236 c -9.1,-11.3 -33.4,-7.9 -33.4,-7.9 0,0 -0.4,2.4 -1.1,6.5 4.9,2 9.3,6.1 12.4,12.5 5.2,-8.9 22.2,-11.6 24.3,7 0.1,-0.1 0.1,-0.3 0.2,-0.4 0.7,-5.7 0.4,-12.0001 -2.4,-17.7 z"
       style="fill:#d46b29"
       id="path486" />
    <path
       d="m 246.9194,1253.6236 c -25.2,-1.8 -22.4,22.6 -22.4,22.6 0,0.2 0.1,0.5 0.1,0.7 7,-14.6 30.5,-18 40.8,-0.4 0.1,0.1 6.7,-21.1001 -18.5,-22.9 z"
       style="fill:#d87748"
       id="path488" />
    <path
       d="m 246.7194,1365.8235 c 3.9,0 12.4,-15.5 21.4,-34.1 -1.7,-8.1 -46.1,-6.9 -46.1,1.9 10.4,17.1 20.8,32.2 24.7,32.2 z"
       style="fill:#100b09"
       id="path490" />
    <path
       d="m 259.5194,1332.6236 c -2.9,-2 -10.3,16.3 -7.4,17.8 2.9,1.5 10.3,-15.8 7.4,-17.8 z"
       style="fill:#9d9c9b"
       id="path492" />
    <path
       d="m 250.7194,1354.2235 c -1.6,-1.1 -4.3,4.8 -2.7,5.6 1.7,0.9 4.3,-4.5 2.7,-5.6 z"
       style="fill:#9d9c9b"
       id="path494" />
    <path
       d="m 293.5194,1043.9235 c -1.3,-30.4 -0.9,-35.5 -4.3,-48.4 -3.3,-13 -7.2,-30.8 -52.3,-32 -24.6,-0.7 -59.8,6.6 -73.8,20.9 -13.9,14.3 -9.6,31.9 -8.2,46.6 a 209.4424,209.4424 0 0 0 4.6,27.5 z"
       style="fill:url(#radialGradient1015)"
       id="path496" />
    <path
       d="m 275.1194,977.3235 c -9,-8.7 -44.1,-13 -42.3,-5.2 1.1,4.6 26.7,17 39,17.2 9,0.1001 9.9,-5.6999 3.3,-12 z"
       style="fill:#f9eff4"
       id="path498" />
    <path
       d="m 227.3194,971.4236 c 0.5,-4.1 -13.1,-3.4 -13.1,0.5 0,3.7999 12.6,3.5999 13.1,-0.5 z"
       style="fill:#f9eff4"
       id="path500" />
    <path
       d="m 158.8194,1069.7235 c 0,0 32.9,172.8 35.6,215.9 7.6,-19.9 20.1,-22.2 30.2,-9.3 -2.7,-49.9 -16.8,-183.1 -20.3,-225.6 -30.4,7.4001 -45.5,19 -45.5,19 z"
       style="fill:#0171ba"
       id="path502" />
    <path
       d="m 204.3194,1050.6236 c -30.4,7.4 -45.6,19 -45.6,19 0,0 0.6,3.4 1.8,9.3 a 254.3924,254.3924 0 0 1 45.1,-13.2 c -0.5,-5.8001 -0.9,-10.9001 -1.3,-15.1 z"
       style="fill:#004b82"
       id="path504" />
    <path
       d="m 259.6194,1048.8235 c 0,0 7.5,182.7 6,226.7 -9.1,-21 -33.6,-18.4 -41,0.7 -2.7,-49.9 -16.8,-183.1 -20.3,-225.6 38.8,-4.3 55.3,-1.8 55.3,-1.8 z"
       style="fill:#038ed8"
       id="path506" />
    <path
       d="m 260.1194,1061.7235 c -0.3,-8.1 -0.5,-12.9 -0.5,-12.9 0,0 -16.5,-2.5 -55.2,1.8 0.3,4.2 0.8,9.3 1.3,15.1 a 233.5843,233.5843 0 0 1 54.4,-4 z"
       style="fill:#0171ba"
       id="path508" />
    <path
       d="m 224.6194,1276.2235 c -5.1,-41.2 -18.9,-189.9 -20.3,-225.6 7.4,46.5001 20.7,209.8 20.3,225.6 z"
       style="fill:#8fd8f6"
       id="path510" />
    <path
       d="m 259.6194,1048.8235 c 0,0 7.5,182.7 6,226.7 6.4,-11.2 23.5,-13.6 24.5,7.7 5,-18.3 11.2,-167.8 9.1,-223.2 -9.2,-7.3 -39.6,-11.2 -39.6,-11.2 z"
       style="fill:#08a1e6"
       id="path512" />
    <path
       d="m 286.7194,1195.9235 c -7.3,-1.7 -7.9,39.6 -1.1,40.4 6.9,0.8001 8.4,-38.7999 1.1,-40.4 z"
       style="fill:#8fd8f6"
       id="path514" />
    <path
       d="m 285.7194,1244.8235 c -4,-0.9 -4.8,12.6 -1,13.1 3.9,0.5 5.1,-12.1 1,-13.1 z"
       style="fill:#8fd8f6"
       id="path516" />
    <path
       d="m 299.1194,1060.1236 c -9.1,-7.4 -39.6,-11.2 -39.6,-11.2 0,0 0.2,4.7 0.5,12.9 24,1.2 38.3,6.1 38.3,6.1 a 4.5364,4.5364 0 0 0 1,0.1 c 0,-2.9 -0.1,-5.5 -0.2,-7.9 z"
       style="fill:#038ed8"
       id="path518" />
    <path
       d="m 265.5194,1275.6236 c 1.8,-39.5 -6.7,-190.7 -6,-226.7 5.9,48.3999 9.9,213.9999 6,226.7 z"
       style="fill:#8fd8f6"
       id="path520" />
    <path
       d="m 299.1194,1017.6236 c 4,4 8.1,26.8 7.1,36.8 -1,9.9 -6.7,8.2 -6.7,8.2 0,0 -57.4,-23.8 -139.9,12 -4.4,0.9 -8.1,-2.1 -10.6,-14.6 -1.4,-7 -3,-19.7 -0.5,-28.8 2.4,-9 28.6,-19.9 71.3,-26.1 42.5,-6.2 68.8,2.0999 79.3,12.5 z"
       style="fill:#d4d5d5"
       id="path522" />
    <path
       d="m 146.5194,1049.9235 a 5.0194,5.0194 0 0 1 -1.2,-0.2 3.3211,3.3211 0 0 1 -1.9,-4.3 c 3.7,-9.6 31.6,-22.5 77.8,-28.6 23.2,-3.1 43.2,-2.9 59.5,0.4 12.4,2.6 22.2,7 26.7,12.3 a 3.335416,3.335416 0 0 1 -5.1,4.3 c -5.6,-6.5 -29.7,-17.2 -80.2,-10.5 -25.9,3.4 -43,8.7 -52.8,12.5 -14,5.4 -18.9,10.1 -19.7,12 a 3.35,3.35 0 0 1 -3.1,2.1 z"
       style="fill:#acaeae"
       id="path524" />
    <path
       d="m 150.5194,1069.7235 a 1.27,1.27 0 0 1 -0.6,-0.1 3.25,3.25 0 0 1 -2.6,-3.9 c 0.9,-4.7 8.1,-10.3 19.6,-15.3 9.9,-4.3 27.9,-10.1 57,-13.5 45.8,-5.4 77.8,3.7 84.9,11.6 a 3.3264095,3.3264095 0 0 1 -4.9,4.5 c -2.3,-2.5 -10.8,-6.3 -24,-8.7 -11.2,-2 -29.8,-3.8 -55.2,-0.8 -54.3,6.4 -70.2,21.1 -70.8,23.5 a 3.5172,3.5172 0 0 1 -3.4,2.7 z"
       style="fill:#acaeae"
       id="path526" />
    <path
       d="m 237.1194,1007.6236 c -3.1,4.1 36.3,6.3 38.6,2.4 2.3,-3.9 -35.5,-6.5001 -38.6,-2.4 z"
       style="fill:#e4e4e4"
       id="path528" />
    <ellipse
       cx="201.81551"
       cy="1115.0929"
       rx="12.4997"
       ry="6.2999001"
       transform="rotate(-1.9389,201.81858,1115.1045)"
       style="fill:#fa73aa"
       id="ellipse530" />
    <ellipse
       cx="275.22961"
       cy="1108.9261"
       rx="12.5001"
       ry="6.3000998"
       transform="rotate(-7.1172,275.22975,1108.9258)"
       style="fill:#fa73aa"
       id="ellipse532" />
    <circle
       cx="204.21941"
       cy="1087.9235"
       r="18"
       style="fill:#ffffff"
       id="circle534" />
    <circle
       cx="206.26131"
       cy="1088.2117"
       r="13.2999"
       transform="rotate(-11.9291,206.26081,1088.2107)"
       style="fill:#100b09"
       id="circle536" />
    <path
       d="m 204.1194,1084.5236 a 3.8529,3.8529 0 1 1 -3.7,-4 3.7064,3.7064 0 0 1 3.7,4 z"
       style="fill:#ffffff"
       id="path538" />
    <path
       d="m 215.0194,1094.3235 a 2.0025,2.0025 0 1 1 -1.9,-2.1 1.9475,1.9475 0 0 1 1.9,2.1 z"
       style="fill:#ffffff"
       id="path540" />
    <circle
       cx="266.6767"
       cy="1082.8602"
       r="17.999701"
       style="fill:#ffffff"
       id="circle542" />
    <circle
       cx="264.60431"
       cy="1083.3716"
       r="13.2993"
       transform="rotate(-1.7633,264.59755,1083.3479)"
       style="fill:#100b09"
       id="circle544" />
    <circle
       cx="269.95291"
       cy="1078.7168"
       r="3.8"
       transform="rotate(-20.0169,269.95246,1078.716)"
       style="fill:#ffffff"
       id="circle546" />
    <path
       d="m 257.0194,1090.8235 a 2.04,2.04 0 1 0 1.6,-2.4 1.9544,1.9544 0 0 0 -1.6,2.4 z"
       style="fill:#ffffff"
       id="path548" />
    <path
       d="m 240.8194,1139.0236 a 42.7963,42.7963 0 0 1 -11.2,-0.4 c 2.2,2.3 6,4.1 11.4,3.6 5.5,-0.4 8.6,-2.6 10.6,-5.4 a 38.0637,38.0637 0 0 1 -10.8,2.2 z"
       style="fill:#fa73aa"
       id="path550" />
    <path
       d="m 238.6194,1111.1236 a 55.7158,55.7158 0 0 1 -23.5,-3.2 c 4.7,14.3 13.3,26.8 25.3,25.9 12,-1 17.6,-13.8 20.9,-29.5 a 57.1139,57.1139 0 0 1 -22.7,6.8 z"
       style="fill:#100b09"
       id="path552" />
    <path
       d="m 253.0194,1108.0236 a 54.5929,54.5929 0 0 1 -14.4,3.1 58.5673,58.5673 0 0 1 -15.5,-0.9 c 4.3,5.1 9.6,8.3 15.9,7.8 6.2,-0.5 10.7,-4.3001 14,-10 z"
       style="fill:#ffffff"
       id="path554" />
    <path
       d="m 236.2194,1122.9235 a 24.3666,24.3666 0 0 0 -13.9,0.2 c 4.7,6.8 10.7,11.2 18,10.6 a 15.36,15.36 0 0 0 7.9,-2.8 25.04,25.04 0 0 0 -12,-8 z"
       style="fill:#fa73aa"
       id="path556" />
    <path
       d="m 233.1194,1094.0236 c -1.9,-0.5 -4.7,5.6 -1.1,6.6 1.7,0.5 2.9,-6.1 1.1,-6.6 z"
       style="fill:#100b09"
       id="path558" />
    <path
       d="m 240.4194,1093.4235 c 1.8,-0.8 5.5,4.8 2.2,6.3 -1.7,0.8001 -4,-5.5 -2.2,-6.3 z"
       style="fill:#100b09"
       id="path560" />
    <path
       d="m 187.5194,1060.9235 c 1.1,-6.9 7.8,-15.1 17.8,-14.5 h 0.1 c 2,0.2 4.5,7.9 2,8.4 a 44.0346,44.0346 0 0 0 -19.1,6.5 c -0.3,0.4 -0.8,0.1 -0.8,-0.4 z"
       style="fill:#100b09"
       id="path562" />
    <path
       d="m 277.7194,1057.0236 c -0.8,-7 -7.1,-15.5 -17.1,-15.3 h -0.1 c -2,0.1 -4.8,7.7 -2.4,8.3 a 45.36,45.36 0 0 1 18.8,7.4 c 0.3,0.3999 0.8,0.1 0.8,-0.4 z"
       style="fill:#100b09"
       id="path564" />
    <path
       d="m 234.3194,1258.5236 h -148.5 a 3.585,3.585 0 0 1 -3.6,-3.6 v -101.5 a 3.585,3.585 0 0 1 3.6,-3.6 h 148.5 a 3.585,3.585 0 0 1 3.6,3.6 v 101.5 a 3.5851,3.5851 0 0 1 -3.6,3.6 z"
       style="fill:url(#radial-gradient-2-7)"
       id="path566" />
    <path
       d="m 226.4194,1251.6236 h -132.8 a 3.585,3.585 0 0 1 -3.6,-3.6 v -87.8 a 3.5849,3.5849 0 0 1 3.6,-3.6 h 132.8 a 3.5849,3.5849 0 0 1 3.6,3.6 v 87.8 a 3.7183,3.7183 0 0 1 -3.6,3.6 z"
       style="fill:#ffffff"
       id="path568" />
    <path
       d="m 150.5194,1144.5236 c -4.4,2.4 -7.8,10.9 -3.8,15.8 2.7,3.3 3.3,-2.1 4.7,-6.4 -0.4,5.7 4.5,15 6.8,-0.2 1.2,6.3 5.5,12.1 6.6,3.1 -0.2,-0.5 -0.1,-6.2 1.5,-6.4 2,-0.2 3.5,0.2 6.2,-0.1 3.1,-2.2 -10.8,-12.0001 -22,-5.8 z"
       style="fill:#100b09"
       id="path570" />
    <path
       d="m 159.0194,1176.4235 c -43,32.3 -42.9,20.7 0,53 3.4,2.5 8,-0.1 8,-4.5 v -43.9 c 0,-4.4999 -4.6,-7.1 -8,-4.6 z"
       style="fill:#100b09"
       id="path572" />
    <path
       d="m 177.5194,1187.0236 c 0.4,0.3 12.7,-5.1 13.4,-5.2 3.1,-1.1 1.4,-6.4 -1.8,-5.1 l -12.5,5 c -2.6,0.9 -1.9,5.4 0.9,5.3 z"
       style="fill:#100b09"
       id="path574" />
    <path
       d="m 190.9194,1224.1236 -11.8,-7.1 c -3,-1.8 -5.3,3.2 -2.5,4.8 0.6,0.2 12.5,8 13,7.4 2.6,0.1 3.5,-3.9001 1.3,-5.1 z"
       style="fill:#100b09"
       id="path576" />
    <path
       d="m 193.3194,1199.3235 h -15.7 a 2.6692,2.6692 0 0 0 -2.6,2.7 2.6056,2.6056 0 0 0 2.6,2.7 h 15.7 c 3.3,0.1 3.3,-5.4 0,-5.4 z"
       style="fill:#100b09"
       id="path578" />
  </g>
</svg>
