<svg xmlns="http://www.w3.org/2000/svg" width="79.3008" height="79.3" viewBox="0 0 79.3008 79.3"><title>Asset 3</title><g id="Layer_2" data-name="Layer 2"><g id="svg1155"><path d="M58.6,79.3H20.8A20.784,20.784,0,0,1,0,58.5V20.8A20.784,20.784,0,0,1,20.8,0H58.5A20.784,20.784,0,0,1,79.3,20.8V58.5A20.6357,20.6357,0,0,1,58.6,79.3Z" style="fill:#9fd77a"/><ellipse cx="22.5" cy="31.4" rx="3.4" ry="5.8" style="fill:#333"/><ellipse cx="56.9" cy="31.4" rx="3.4" ry="5.8" style="fill:#333"/><path d="M27.1,53.8a38.1352,38.1352,0,0,0,24.3-.2,29.112,29.112,0,0,0,7.8-4.1c.7-.6,2.1-1.7,2.9-.6.5.6.1,1.7-.3,2.3a12.0178,12.0178,0,0,1-3.6,3.5,23.5443,23.5443,0,0,1-5.6,3.1A35.458,35.458,0,0,1,42,60.2c-1.4.1-2.7.1-4.1.1h-.1a54.201,54.201,0,0,1-5.8-.6A32.9029,32.9029,0,0,1,21.5,56c-.4-.2-.7-.4-1.1-.6a6.3308,6.3308,0,0,1-2.9-2.7,1.939,1.939,0,0,1-.2-1.5,1.6284,1.6284,0,0,1,1.9-1,14.3554,14.3554,0,0,1,3.3,1.6A37.7849,37.7849,0,0,0,26,53.5,2.6072,2.6072,0,0,1,27.1,53.8Z" style="fill:#333"/></g></g></svg>