<?xml version="1.0" encoding="utf-8"?>
<!-- Generator: Adobe Illustrator 24.0.3, SVG Export Plug-In . SVG Version: 6.00 Build 0)  -->
<svg version="1.1"
	 id="svg21" xmlns:cc="http://creativecommons.org/ns#" xmlns:dc="http://purl.org/dc/elements/1.1/" xmlns:inkscape="http://www.inkscape.org/namespaces/inkscape" xmlns:rdf="http://www.w3.org/1999/02/22-rdf-syntax-ns#" xmlns:sodipodi="http://sodipodi.sourceforge.net/DTD/sodipodi-0.dtd" xmlns:svg="http://www.w3.org/2000/svg"
	 xmlns="http://www.w3.org/2000/svg" xmlns:xlink="http://www.w3.org/1999/xlink" x="0px" y="0px" viewBox="0 0 97 97"
	 style="enable-background:new 0 0 97 97;" xml:space="preserve">
<style type="text/css">
	.st0{fill:#D94444;}
	.st1{fill:#FFFFFF;}
</style>
<sodipodi:namedview  bordercolor="#666666" borderopacity="1" gridtolerance="10" guidetolerance="10" id="namedview23" inkscape:current-layer="svg21" inkscape:cx="48.5" inkscape:cy="48.5" inkscape:pageopacity="0" inkscape:pageshadow="2" inkscape:window-height="705" inkscape:window-maximized="1" inkscape:window-width="1366" inkscape:window-x="-8" inkscape:window-y="-8" inkscape:zoom="2.4329897" objecttolerance="10" pagecolor="#ffffff" showgrid="false">
	</sodipodi:namedview>
<defs>
	<inkscape:path-effect  effect="spiro" id="path-effect834" is_visible="true"></inkscape:path-effect>
	<inkscape:path-effect  effect="spiro" id="path-effect834-7" is_visible="true"></inkscape:path-effect>
</defs>
<g>
	<path class="st0" d="M91.2,57.9c5.1-13.6,5.9-35.4-13.7-43.1C57.9,7.1,14.1,10.4,3.7,39.4C-5.8,65.9,65.6,126.3,91.2,57.9z"/>
	<path class="st1" d="M54.5,91.4c-6.2,0-11.7-1.5-15.4-2.8C15.4,79.9-3.8,54.3,1.8,38.8c3.6-10.1,11.6-18.2,22.9-23.3
		C42.9,7.2,65.8,8,78.2,12.9c9.4,3.7,15.3,10.9,17.3,20.8c1.5,7.6,0.6,16.6-2.5,24.9l0,0C83.1,85.1,67.3,91.4,54.5,91.4z M55.5,13.2
		c-9.5,0-19.9,1.7-29.1,5.9c-10.5,4.8-17.5,11.8-20.8,21C0.7,53.5,19,76.9,40.5,84.8c12.6,4.6,35.8,7.2,48.8-27.5
		c4.3-11.5,6.5-33-12.6-40.6C71.3,14.5,63.7,13.2,55.5,13.2z"/>
</g>
<path class="st1" d="M76.9,49L48.2,24.2v14.7H25.9c-1.4,0-2.6,0.6-3.5,1.5c-0.9,0.9-1.5,2.2-1.5,3.5v10.2c0,2.8,2.2,5,5,5h22.3v14.7
	L76.9,49z"/>
</svg>
