<svg xmlns="http://www.w3.org/2000/svg" width="79.5" height="79.4" viewBox="0 0 79.5 79.4"><title>Asset 1</title><g id="Layer_2" data-name="Layer 2"><g id="svg1155"><path d="M58.4,79.4H21.1A21.1041,21.1041,0,0,1,0,58.3V21.1A21.1041,21.1041,0,0,1,21.1,0H58.4A21.1041,21.1041,0,0,1,79.5,21.1V58.4A21.019,21.019,0,0,1,58.4,79.4Z" style="fill:#fa5562"/><path d="M48.8,61.6a3.1361,3.1361,0,0,0,2.9-4.4c-1.9-4.2-6.5-7.1-11.9-7.1s-10,2.9-11.9,7.1a3.123,3.123,0,0,0,2.9,4.4Z" style="fill:#333"/><path d="M14.4,31a1.5261,1.5261,0,0,0,1.1.7c4.7,1.2,13.8-.3,14.6-6.2.1-1-.4-3.3-1.8-2.2-1.5,1.2-2.5,2.8-4,4A7.853,7.853,0,0,1,19.2,29a11.4958,11.4958,0,0,0-3.7.1A1.3675,1.3675,0,0,0,14.4,31Z" style="fill:#333"/><path d="M65.3,31a1.5261,1.5261,0,0,1-1.1.7c-4.7,1.2-13.8-.3-14.6-6.2-.1-1,.4-3.3,1.8-2.2,1.5,1.2,2.5,2.8,4,4A7.853,7.853,0,0,0,60.5,29a11.4958,11.4958,0,0,1,3.7.1A1.4218,1.4218,0,0,1,65.3,31Z" style="fill:#333"/><path d="M29.6,38.9a5.4827,5.4827,0,0,1,1.5.8c2.3,1.7-.2,3.8-1.8,4.9-1.8,1.1-4.6,3.1-6.8,2.7a1.6235,1.6235,0,0,1-.9-.5c-.8-1.4,1.5-2.1,2.4-2.5.7-.3,2.1-1,2-1.9a1.0122,1.0122,0,0,0-.4-.7c-1.4-1.3-4.3-1-4.9-3.2a1.02,1.02,0,0,1,.2-.9,2.01,2.01,0,0,1,.8-.4,9.7,9.7,0,0,1,5.3,1A25.044,25.044,0,0,1,29.6,38.9Z" style="fill:#333"/><path d="M50,38.9a5.4827,5.4827,0,0,0-1.5.8c-2.3,1.7.2,3.8,1.8,4.9,1.8,1.1,4.6,3.1,6.8,2.7a1.6235,1.6235,0,0,0,.9-.5c.8-1.4-1.5-2.1-2.4-2.5-.7-.3-2.1-1-2-1.9a1.0122,1.0122,0,0,1,.4-.7c1.4-1.3,4.3-1,4.9-3.2a1.02,1.02,0,0,0-.2-.9,2.0107,2.0107,0,0,0-.8-.4,9.7,9.7,0,0,0-5.3,1C51.8,38.4,50.9,38.6,50,38.9Z" style="fill:#333"/></g></g></svg>