<svg xmlns="http://www.w3.org/2000/svg" width="79.5" height="79.4" viewBox="0 0 79.5 79.4"><title>Asset 2</title><g id="Layer_2" data-name="Layer 2"><g id="svg1155"><path d="M58.3,79.4H21.1A21.1041,21.1041,0,0,1,0,58.3V21.1A21.1041,21.1041,0,0,1,21.1,0H58.4A21.1041,21.1041,0,0,1,79.5,21.1V58.4A21.169,21.169,0,0,1,58.3,79.4Z" style="fill:#fa834f"/><ellipse cx="23.3" cy="37.8" rx="3.2" ry="5" style="fill:#333"/><ellipse cx="55.5" cy="37.8" rx="3.2" ry="5" style="fill:#333"/><path d="M8.5,30.2a1.5748,1.5748,0,0,0,1.3.8c5.7,1.4,16.9-.4,17.8-6.9.2-1.1-.5-3.7-2.2-2.5-1.8,1.3-3,3.1-4.8,4.4a9.7164,9.7164,0,0,1-6.2,1.9,17.7208,17.7208,0,0,0-4.6.1C8.6,28.4,8,29.4,8.5,30.2Z" style="fill:#333"/><path d="M70.9,30.2a1.5748,1.5748,0,0,1-1.3.8c-5.7,1.4-16.9-.4-17.8-6.9-.2-1.1.5-3.7,2.2-2.5,1.8,1.3,3,3.1,4.8,4.4A9.7164,9.7164,0,0,0,65,27.9a17.7208,17.7208,0,0,1,4.6.1C70.8,28.4,71.4,29.4,70.9,30.2Z" style="fill:#333"/><path d="M50.9,59.7a34.36,34.36,0,0,0-21.5.1,22.7441,22.7441,0,0,0-6.9,3.6c-.6.5-1.8,1.5-2.6.6a2.0384,2.0384,0,0,1,.2-2,10.534,10.534,0,0,1,3.2-3.1,26.8787,26.8787,0,0,1,5-2.8A30.5215,30.5215,0,0,1,37.7,54c1.2-.1,2.4-.1,3.6-.1h.1a44.0135,44.0135,0,0,1,5.1.5,31.3242,31.3242,0,0,1,9.3,3.3,4.0489,4.0489,0,0,0,.9.5,6.6531,6.6531,0,0,1,2.6,2.4,2,2,0,0,1,.2,1.3,1.4864,1.4864,0,0,1-1.7.9,9.7468,9.7468,0,0,1-2.9-1.4,21.9839,21.9839,0,0,0-3.1-1.5C51.6,60,51.3,59.8,50.9,59.7Z" style="fill:#333"/></g></g></svg>