<?xml version="1.0" encoding="utf-8"?>
<!-- Generator: Adobe Illustrator 24.0.3, SVG Export Plug-In . SVG Version: 6.00 Build 0)  -->
<svg version="1.1"
	 id="svg21" xmlns:cc="http://creativecommons.org/ns#" xmlns:dc="http://purl.org/dc/elements/1.1/" xmlns:inkscape="http://www.inkscape.org/namespaces/inkscape" xmlns:rdf="http://www.w3.org/1999/02/22-rdf-syntax-ns#" xmlns:sodipodi="http://sodipodi.sourceforge.net/DTD/sodipodi-0.dtd" xmlns:svg="http://www.w3.org/2000/svg"
	 xmlns="http://www.w3.org/2000/svg" xmlns:xlink="http://www.w3.org/1999/xlink" x="0px" y="0px" viewBox="0 0 97 97"
	 style="enable-background:new 0 0 97 97;" xml:space="preserve">
<style type="text/css">
	.st0{fill:#D94444;}
	.st1{fill:#FFFFFF;}
</style>
<sodipodi:namedview  bordercolor="#666666" borderopacity="1" gridtolerance="10" guidetolerance="10" id="namedview23" inkscape:current-layer="svg21" inkscape:cx="48.5" inkscape:cy="48.5" inkscape:pageopacity="0" inkscape:pageshadow="2" inkscape:window-height="705" inkscape:window-maximized="1" inkscape:window-width="1366" inkscape:window-x="-8" inkscape:window-y="-8" inkscape:zoom="2.4329897" objecttolerance="10" pagecolor="#ffffff" showgrid="false">
	</sodipodi:namedview>
<defs>
	<inkscape:path-effect  effect="spiro" id="path-effect834" is_visible="true"></inkscape:path-effect>
	<inkscape:path-effect  effect="spiro" id="path-effect834-7" is_visible="true"></inkscape:path-effect>
</defs>
<g>
	<g>
		<path class="st0" d="M90.8,56.2c5.1-13.6,5.9-35.4-13.7-43.1C57.5,5.3,13.7,8.7,3.3,37.7C-6.2,64.2,65.2,124.6,90.8,56.2z"/>
		<path class="st1" d="M54.2,89.7c-6.2,0-11.7-1.5-15.4-2.8C15.1,78.1-4.1,52.5,1.4,37C5.1,26.9,13,18.8,24.4,13.7
			c18.1-8.2,41.1-7.4,53.5-2.5c9.4,3.7,15.3,10.9,17.3,20.8c1.5,7.6,0.6,16.6-2.5,24.9l0,0C82.8,83.4,66.9,89.7,54.2,89.7z
			 M55.1,11.5c-9.5,0-19.9,1.7-29.1,5.9c-10.5,4.8-17.5,11.8-20.8,21C0.4,51.8,18.7,75.2,40.2,83.1c12.6,4.6,35.8,7.2,48.8-27.5
			c4.3-11.5,6.5-33-12.6-40.6C71,12.8,63.4,11.5,55.1,11.5z"/>
	</g>
	<path class="st1" d="M20.6,47.3L49.3,72V57.3h22.3c1.4,0,2.6-0.6,3.5-1.5c0.9-0.9,1.5-2.2,1.5-3.5V42.2c0-2.8-2.2-5-5-5H49.3V22.5
		L20.6,47.3z"/>
</g>
</svg>
