<svg xmlns="http://www.w3.org/2000/svg" width="79.3" height="79.3" viewBox="0 0 79.3 79.3"><title>Asset 4</title><g id="Layer_2" data-name="Layer 2"><g id="svg1155"><path d="M58.5,79.3H20.8A20.784,20.784,0,0,1,0,58.5V20.8A20.784,20.784,0,0,1,20.8,0H58.5A20.784,20.784,0,0,1,79.3,20.8V58.5A20.784,20.784,0,0,1,58.5,79.3Z" style="fill:#e5e510"/><path d="M12.1,31.5c0-.1,0-.1-.1-.2-.8-4.3,7.4-5.4,10-4.5a11.8569,11.8569,0,0,1,3.8,2.1c.4.4,3.1,3.7,1.2,3.7-.3,0-.5-.2-.8-.3-1.8-1.2-2.7-3.1-4.9-3.6a7.1672,7.1672,0,0,0-6.8,2C14,31.3,12.7,32.9,12.1,31.5Z" style="fill:#333"/><path d="M66,31.5c0-.1,0-.1.1-.2.8-4.3-7.4-5.4-10-4.5a11.8573,11.8573,0,0,0-3.8,2.1c-.4.4-3.1,3.7-1.2,3.7.3,0,.5-.2.8-.3,1.8-1.2,2.7-3.1,4.9-3.6a7.1674,7.1674,0,0,1,6.8,2C64,31.3,65.4,32.9,66,31.5Z" style="fill:#333"/><path d="M55.5,44.6a5.7136,5.7136,0,0,1,5.1,8.3C57,60.1,49,65.1,39.6,65.1s-17.5-5-21-12.2a5.7491,5.7491,0,0,1,5.1-8.3Z" style="fill:#333"/></g></g></svg>