<svg xmlns="http://www.w3.org/2000/svg" width="6.6623cm" height="9.0219cm" viewBox="0 0 188.8539 255.7396"><defs><style>.cls-1{fill:#fff;}.cls-2{fill:#dd6e43;}</style></defs><title>Artboard 2</title><g id="lvl_2" data-name="lvl 2"><g id="_1" data-name="1"><rect class="cls-1" x="-2.6477" y="0.0848" width="188.8539" height="255.7397" rx="10.4509"/><path class="cls-2" d="M93.956,87.044c4.0538,0,18.3164,1.2012,19.5176,2.5523.45.7505.75,5.5547.75,14.4126v9.7583c-.1494,5.2549-.1494,9.7588-.1494,13.6621-.15,23.2705-.4512,35.7314-.9014,37.6831-.7509,2.2519-2.5517,3.7529-5.705,3.7529l-7.5059-.3c-5.1045-.15-8.4082-.45-9.7588-.9C87.2,166.9137,86.9,165.1124,86.9,160.7584l.3-10.209c.15-6.7559.3008-13.9619.3008-21.3184,0-10.96-.15-16.6645-.4512-16.9648-.1494-.15-1.501.45-3.7529,2.1016-4.6543,3.1528-6.0049,3.7534-9.0079.7509q-4.9541-5.4053-4.9541-8.1074c0-3.4531,14.7129-15.7637,20.2676-19.3667C90.3535,87.1939,91.8545,87.044,93.956,87.044Z"/></g></g></svg>