<svg xmlns="http://www.w3.org/2000/svg" width="6.6623cm" height="9.0219cm" viewBox="0 0 188.8539 255.7396"><defs><style>.cls-1{fill:#fff;}.cls-2{fill:#5c9c58;}</style></defs><title>Artboard 4</title><g id="lvl_2" data-name="lvl 2"><g id="_2" data-name="2"><rect class="cls-1" x="-2.1625" y="0.0848" width="188.8539" height="255.7397" rx="10.4509"/><path class="cls-2" d="M92.5648,86.8936c8.8574,0,18.4658,3.6036,24.0205,9.1582a26.1425,26.1425,0,0,1,7.6572,19.2168c0,8.4073-3.3027,16.5147-14.8633,25.6724-4.3535,3.4531-6.6054,5.4048-6.6054,5.855l.15.15h.3c.15,0,2.5527-.15,7.206-.6006q4.5045-.45,7.2071-.45c5.4043,0,6.9052,1.501,7.6562,6.4556a50.6232,50.6232,0,0,1,.45,7.0561c0,4.3535-.3,6.9058-1.0508,7.6568-1.0508,1.0507-13.8115,1.5009-38.4336,1.6513l-25.0722.3-1.2-1.5015c-.751-.9008-1.2012-3.0024-1.2012-6.1552,0-15.1631,2.7021-15.4634,18.916-25.0718,11.26-6.606,16.2149-10.96,19.2168-16.8149a9.5616,9.5616,0,0,0,1.3516-4.504c0-2.8525-3.003-5.5546-4.6543-5.5546a15.2214,15.2214,0,0,0-3.4532,1.2011,13.7206,13.7206,0,0,0-5.2539,4.8042c-1.9521,2.4019-3.1533,3.753-3.6035,3.9034l-.15.15h-.45c-3.4531,0-13.5117-5.855-15.7636-9.0079a4.7864,4.7864,0,0,1-.9014-2.5522,12.1358,12.1358,0,0,1,1.3516-4.0537c4.0537-8.2569,10.81-13.5117,20.2675-16.064A24.8115,24.8115,0,0,1,92.5648,86.8936Z"/></g></g></svg>