<svg xmlns="http://www.w3.org/2000/svg" width="6.6623cm" height="9.0219cm" viewBox="0 0 188.8539 255.7396"><defs><style>.cls-1{fill:#fff;}.cls-2{fill:#d57b76;}</style></defs><title>Artboard 5</title><g id="lvl_2" data-name="lvl 2"><g id="_3" data-name="3"><rect class="cls-1" x="-1.8615" y="0.0848" width="188.8539" height="255.7397" rx="10.4509"/><path class="cls-2" d="M90.1636,87.7193a37.76,37.76,0,0,1,10.6591,1.2012c7.9571,2.5522,13.5118,6.9062,16.5137,12.9116a17.1392,17.1392,0,0,1,1.3516,7.2061c0,5.855-1.6514,8.8579-5.8555,12.6108l-3.1523,3.0029,3.1523,1.9517c5.8555,3.7534,9.1582,8.8579,9.7588,15.4634a2.6362,2.6362,0,0,0,.15.9009v1.0507c0,9.4585-6.3057,17.2652-16.9649,21.3189A39.2711,39.2711,0,0,1,90.7642,168.19c-12.0108,0-28.375-7.957-28.375-12.9116,0-2.852,7.0556-14.8628,9.0078-15.0127h.15c.45,0,2.1015.75,5.1035,2.1016,4.5049,2.2519,8.5576,3.4531,12.0107,3.4531,4.6543,0,8.2578-1.9517,8.2578-4.354,0-3.1528-5.2549-5.5547-11.41-5.5547a17.41,17.41,0,0,1-3.3028-.15c-1.2011,0-2.7031-.6-2.8525-1.8013a10.7247,10.7247,0,0,1-.15-2.5522,8.068,8.068,0,0,1,.15-1.6514v-1.9516c.1494-7.8072.3-8.1074,6.3057-8.8579s9.0078-2.5523,9.0078-5.2544a2.922,2.922,0,0,0-.15-1.2012c-.6006-2.1021-3.0029-3.1528-7.0567-3.1528a15.7537,15.7537,0,0,0-7.0556,1.6513c-1.9522,1.0508-3.1533,1.6514-3.9033,1.6514-.3008,0-.6006-.15-1.0508-.6006-.751-1.0508-4.9551-14.8628-4.9551-16.6645,0-1.2007,1.3516-2.5523,4.0537-3.9034A39.897,39.897,0,0,1,83.8579,88.17,36.2908,36.2908,0,0,1,90.1636,87.7193Z"/></g></g></svg>