<svg xmlns="http://www.w3.org/2000/svg" width="6.6623cm" height="9.0219cm" viewBox="0 0 188.8539 255.7397"><defs><style>.cls-1{fill:#fff;}.cls-2{fill:#4258cb;}</style></defs><title>Artboard 7</title><g id="lvl_2" data-name="lvl 2"><g id="_4" data-name="4"><rect class="cls-1" x="-2.6477" y="-0.1955" width="188.8539" height="255.7397" rx="10.4509"/><path class="cls-2" d="M93.3555,87.89a16.3334,16.3334,0,0,1,2.8525.15l5.1045.3c3.4531.15,6.0049.3,7.957.45a71.6052,71.6052,0,0,1,7.3565.6006,4.2345,4.2345,0,0,1,3.3027,4.2036c0,.15,0,1.2012.15,3.0025s.15,4.2036.3,7.3564.15,6.0054.3008,8.8579c.45,10.9595.9,16.9649,1.5009,17.8658a1.8727,1.8727,0,0,0,1.6514.6005h.6006c5.4053,0,6.7559,1.8013,6.7559,9.1578,0,7.5068-.6006,12.1606-1.8018,13.812-.45.7509-1.501,1.0512-2.8525,1.0512h-1.8008c-4.8047-.4507-4.5039-.7509-5.2549,5.1045-.45,2.8521-1.0508,4.6538-1.8018,5.7046l-1.2011,1.3516h-11.86q-11.71,0-12.61-.9009c-.6006-.6006-1.0518-2.7026-1.502-6.1553s-.75-5.5552-.9-6.0053c-.3008-.4507-6.1552-.6006-17.7158-.6006s-17.7148-.3-18.4658-.7505-1.0508-1.5015-1.0508-3.1529c0-4.0537.3-12.7612,1.0508-14.5629l5.8555-7.5064c5.5546-7.0561,10.6591-13.6621,15.163-19.8174,8.5577-11.71,13.8116-18.166,15.6133-19.2168A5.709,5.709,0,0,1,93.3555,87.89Zm-.45,26.5732c-.45,0-8.708,9.9087-11.86,14.2627q-2.2515,2.9275-2.2519,4.0532c0,.4507,2.4023.6006,7.3564.6006,9.458,0,8.1074.15,8.1074-5.2544,0-3.0029-.3008-6.606-.751-10.9595C93.3555,115.3636,93.0556,114.4627,92.9053,114.4627Z"/></g></g></svg>