<svg xmlns="http://www.w3.org/2000/svg" width="6.6623cm" height="9.0219cm" viewBox="0 0 188.8539 255.7397"><defs><style>.cls-1{fill:#fff;}.cls-2{fill:#dd6e43;}</style></defs><title>Artboard 9</title><g id="lvl_2" data-name="lvl 2"><g id="_5" data-name="5"><rect class="cls-1" x="-2.1625" y="-0.1955" width="188.8539" height="255.7397" rx="10.4509"/><path class="cls-2" d="M83.1815,87.6646c4.2041,0,10.81.3,19.8174.7505,6.0049.45,10.0586.6006,12.31.6006,2.7022,0,4.3545.3,4.8047.7505.9.9008,1.3506,4.354,1.3506,10.2089,0,4.0538-.45,6.606-1.2,7.6568l-.751,1.2012-12.31-.3c-1.0518,0-2.5528,0-4.2041-.15H99.6961a33.6732,33.6732,0,0,0-5.4052.3,1.7565,1.7565,0,0,0-1.2,1.6513c0,.9009,1.5009,1.5015,4.5039,1.6519,6.0049.45,15.9131,2.4018,20.1172,8.5571,2.8525,4.2036,3.6035,7.0562,3.6035,14.2627,0,8.5571-2.1026,13.3618-4.3545,16.9649a36.5664,36.5664,0,0,1-10.0586,9.7583q-2.2515,1.1264-2.252,1.8017c0,.75-7.3564,3.3028-10.9589,3.9033a27.6568,27.6568,0,0,1-4.9551.45c-10.0586,0-17.7149-5.8549-22.2188-10.5088-2.2519-2.2519-3.4531-4.0537-3.4531-5.1044,0-1.9517,6.9063-11.26,9.1582-12.461.6-.4507,1.8008.15,3.4522,1.6514,3.0029,2.5522,5.8554,3.7534,8.708,3.7534,4.3535,0,10.2089-3.3032,10.2089-7.3564a3.331,3.331,0,0,0-.15-1.3516C92.79,130.752,88.8866,128.5,79.4286,128.5H77.6268a12.24,12.24,0,0,1-2.1016.15c-1.6513.15-3.3027.15-5.2548.15-2.8526,0-3.3028-.15-3.3028-4.354,0-2.7021,0-5.4043.15-7.9565.45-15.9141,1.9512-25.0723,4.2031-27.3242.751-.7505,2.5528-1.2007,5.7051-1.3511A60.4592,60.4592,0,0,1,83.1815,87.6646Z"/></g></g></svg>