<svg xmlns="http://www.w3.org/2000/svg" width="6.6623cm" height="9.0219cm" viewBox="0 0 188.8539 255.7397"><defs><style>.cls-1{fill:#fff;}.cls-2{fill:#5c9c58;}</style></defs><title>Artboard 10</title><g id="lvl_2" data-name="lvl 2"><g id="_6" data-name="6"><rect class="cls-1" x="-1.8615" y="-0.1955" width="188.8539" height="255.7397" rx="10.4509"/><path class="cls-2" d="M98.6455,88.2647a49.1942,49.1942,0,0,1,20.1172,4.0537c3.1533,1.3511,4.6543,2.7026,4.6543,3.9033,0,1.6514-4.5039,12.461-5.7051,13.6621a1.9272,1.9272,0,0,1-1.501.6006,34.8,34.8,0,0,1-4.5039-.9009,26.4087,26.4087,0,0,0-6.9062-.9008c-6.6055,0-10.209,2.2519-14.2627,5.705q-3.1524,2.4771-3.1524,3.1529c.15.15.45.15,1.2012,0a11.5419,11.5419,0,0,0,2.5518-.7505,31.52,31.52,0,0,1,9.6084-1.6519,30.9438,30.9438,0,0,1,13.2119,3.1529c9.1582,4.354,13.6621,11.41,13.6621,21.0185v1.9517C126.57,154.6231,108.7041,167.084,91.89,167.084a28.1247,28.1247,0,0,1-6.3056-.6006c-8.4072-1.6513-18.166-8.5576-23.57-19.8173A42.6923,42.6923,0,0,1,57.51,127.75c0-11.26,4.2031-19.0669,10.3584-26.273a36.6013,36.6013,0,0,1,9.1582-7.957C82.8818,90.0665,90.0879,88.2647,98.6455,88.2647Zm-3.1523,43.6885c-3.4532,0-7.8077,2.7021-7.8077,6.4555,0,2.5523,3.6036,4.9541,7.3565,4.9541a.9026.9026,0,0,0,.6006-.15h.6006c3.6035-.45,5.4052-2.4018,5.4052-5.705,0-2.4019-.7509-4.0533-2.4023-4.8042A10.459,10.459,0,0,0,95.4932,131.9532Z"/></g></g></svg>