<svg xmlns="http://www.w3.org/2000/svg" width="6.6623cm" height="9.0219cm" viewBox="0 0 188.8539 255.7397"><defs><style>.cls-1{fill:#fff;}.cls-2{fill:#d57b76;}</style></defs><title>Artboard 11</title><g id="lvl_2" data-name="lvl 2"><g id="_7" data-name="7"><rect class="cls-1" x="-2.6477" y="0.0197" width="188.8539" height="255.7397" rx="10.4509"/><path class="cls-2" d="M96.5835,89.1557h9.9092c6.455,0,10.6591.15,12.3105.3,1.6514.3008,2.5518.9013,3.002,1.9521.4511.9014.6,4.0537.6,9.6084,0,7.8067,0,9.459-3.7529,16.8145-9.6084,19.0664-26.5732,44.1386-31.8281,47.7422a5.5441,5.5441,0,0,1-3.4531,1.0507c-3.4522,0-17.1143-2.7021-19.9668-3.9033q-2.253-.6753-2.252-2.2519c0-.751,1.8018-3.753,5.4043-8.708,8.5576-12.6114,24.0215-39.334,24.0215-41.586,0-.3008-3.9033-.6006-11.7109-.75a99.99,99.99,0,0,1-11.4092-.6015c-3.1533-.6-3.9043-2.252-3.9043-9.0079,0-6.1552.9014-8.2568,2.7031-9.458a11.4321,11.4321,0,0,1,4.5039-.9013C73.6138,89.3061,82.1714,89.1557,96.5835,89.1557Z"/></g></g></svg>