<svg xmlns="http://www.w3.org/2000/svg" width="6.6623cm" height="9.0219cm" viewBox="0 0 188.8539 255.7397"><defs><style>.cls-1{fill:#fff;}.cls-2{fill:#4258cb;}</style></defs><title>Artboard 12</title><g id="lvl_2" data-name="lvl 2"><g id="_8" data-name="8"><rect class="cls-1" x="-2.1625" y="0.0197" width="188.8539" height="255.7397" rx="10.4509"/><path class="cls-2" d="M95.4925,87.2792c13.3614,0,25.2217,5.4043,29.4258,14.2627a17.0871,17.0871,0,0,1,1.501,7.9561,21.3026,21.3026,0,0,1-8.5576,17.1152l-2.5518,1.9521,3.002,1.8018a22.84,22.84,0,0,1,9.3086,9.6084,16.1074,16.1074,0,0,1,1.5009,7.3564,15.9289,15.9289,0,0,1-1.6513,7.2061q-3.1524,5.4038-10.3584,9.0078c-6.9063,3.3027-15.4639,4.9541-25.8233,4.9541-16.8144,0-26.5732-4.3535-31.8271-11.71a19.8656,19.8656,0,0,1-4.0537-11.86,17.5269,17.5269,0,0,1,4.8037-12.1611,40.2943,40.2943,0,0,1,4.9541-4.5039l2.5527-1.9512L65.1654,123.61a17.808,17.808,0,0,1-3.3028-19.8164c4.6543-8.8584,13.6622-14.1124,26.7237-16.0645A53.2475,53.2475,0,0,1,95.4925,87.2792ZM92.94,136.372c-5.2539,0-10.209,3.3027-10.209,6.7558a3.2209,3.2209,0,0,0,.3008,1.501c1.2012,2.5527,3.6025,3.9033,7.206,3.9033s6.1553-1.3506,7.8067-4.2031a7.4239,7.4239,0,0,0,1.0508-3.6035,3.84,3.84,0,0,0-3.1524-3.9033A10.42,10.42,0,0,0,92.94,136.372Zm3.0029-29.876c-4.2041,0-7.8066,3.1523-7.8066,6.1553a3.29,3.29,0,0,0,1.0508,2.5517,7.6948,7.6948,0,0,0,5.8554,2.7032,5.9259,5.9259,0,0,0,6.0049-6.0059C101.0472,108.748,99.0951,106.496,95.9427,106.496Z"/></g></g></svg>