<svg xmlns="http://www.w3.org/2000/svg" width="6.6623cm" height="9.0219cm" viewBox="0 0 188.8539 255.7397"><defs><style>.cls-1{fill:#fff;}.cls-2{fill:#dd6e43;}</style></defs><title>Artboard 13</title><g id="lvl_2" data-name="lvl 2"><g id="_9" data-name="9"><rect class="cls-1" x="-1.8615" y="0.0197" width="188.8539" height="255.7397" rx="10.4509"/><path class="cls-2" d="M90.3135,86.3788h3.1523c11.86.4492,17.5654,2.7012,24.3213,9.7578,5.8555,5.8555,10.6592,14.4121,11.41,27.7744v2.8526c0,22.3691-16.6641,42.6367-45.0391,42.6367-8.2578,0-17.2656-2.252-23.12-5.7051q-4.5045-2.4756-4.5039-4.5039c0-1.2012,7.957-14.8623,9.6084-16.5137,1.0508-1.0507,1.2011-1.2011,3.7529-.15a26.6459,26.6459,0,0,0,9.1582,1.502,25.9682,25.9682,0,0,0,9.458-1.6523c2.8526-1.0508,4.2041-1.8008,4.2041-2.1016s-1.0517-.45-3.1533-.45H87.9111a10.0106,10.0106,0,0,1-1.9511.1494H82.8066c-8.5576,0-15.0127-2.1015-19.5166-6.3047-4.2041-3.7539-7.3564-11.5605-7.3564-18.0156,0-12.0107,12.61-25.2227,27.0234-28.6758A30.4371,30.4371,0,0,1,90.3135,86.3788Zm2.4023,25.2217a7.8576,7.8576,0,0,0-6.456,3.4521,5.1688,5.1688,0,0,0-1.2012,2.7032c0,2.2519,2.8525,5.4043,7.0566,5.4043,4.0537,0,7.3565-2.8516,7.3565-6.9063a7.61,7.61,0,0,0-.3008-1.3506A7.5222,7.5222,0,0,0,92.7158,111.6005Z"/></g></g></svg>